<svg xmlns="http://www.w3.org/2000/svg" style="width:506px;height:506px" width="100%" height="100%" fill="none" viewBox="0 0 100 100"><style>@keyframes line-battery1-blink{0%,10%,90%{opacity:1}50%{opacity:0}}.line-battery1{animation:line-battery1-blink 1.2s infinite}@media (prefers-reduced-motion:reduce){.line-battery1{animation:none}}</style><g filter="url(#filter0_ii)"><rect width="13" height="17" x="85" y="41" fill="rgba(51,255,93,1)" stroke-width="4" class="fill1" rx="2"/></g><rect style="animation-duration:3s" width="13" height="17" x="85" y="41" stroke="rgba(12,12,12,1)" stroke-width="4" class="stroke1" rx="2"/><g filter="url(#filter1_ii)"><path fill="rgba(51,255,93,1)" stroke-width="4" d="M87 29H8C5.79086 29 4 30.7909 4 33V67C4 69.2091 5.79086 71 8 71H87C89.2091 71 91 69.2091 91 67V33C91 30.7909 89.2091 29 87 29Z" class="fill1"/></g><path style="animation-duration:3s" stroke="rgba(12,12,12,1)" stroke-width="4" d="M87 29H8C5.79086 29 4 30.7909 4 33V67C4 69.2091 5.79086 71 8 71H87C89.2091 71 91 69.2091 91 67V33C91 30.7909 89.2091 29 87 29Z" class="stroke1"/><path style="animation-duration:3s" stroke="rgba(255,255,255,1)" stroke-linecap="round" stroke-linejoin="round" stroke-width="4" d="M60 48.1418L47.6953 56V43L35 51.0522" class="line-battery1 stroke2"/><defs><filter id="filter0_ii" width="21" height="25" x="82" y="36" color-interpolation-filters="sRGB" filterUnits="userSpaceOnUse"><feFlood flood-opacity="0" result="BackgroundImageFix"/><feBlend in="SourceGraphic" in2="BackgroundImageFix" mode="normal" result="shape"/><feColorMatrix in="SourceAlpha" result="hardAlpha" type="matrix" values="0 0 0 0 0 0 0 0 0 0 0 0 0 0 0 0 0 0 127 0"/><feOffset dx="4" dy="-4"/><feGaussianBlur stdDeviation="2"/><feComposite in2="hardAlpha" k2="-1" k3="1" operator="arithmetic"/><feColorMatrix type="matrix" values="0 0 0 0 0 0 0 0 0 0 0 0 0 0 0 0 0 0 0.3 0"/><feBlend in2="shape" mode="normal" result="effect1_innerShadow"/><feColorMatrix in="SourceAlpha" result="hardAlpha" type="matrix" values="0 0 0 0 0 0 0 0 0 0 0 0 0 0 0 0 0 0 127 0"/><feOffset dx="-4" dy="4"/><feGaussianBlur stdDeviation="1"/><feComposite in2="hardAlpha" k2="-1" k3="1" operator="arithmetic"/><feColorMatrix type="matrix" values="0 0 0 0 1 0 0 0 0 1 0 0 0 0 1 0 0 0 0.3 0"/><feBlend in2="effect1_innerShadow" mode="normal" result="effect2_innerShadow"/></filter><filter id="filter1_ii" width="95" height="50" x="1" y="24" color-interpolation-filters="sRGB" filterUnits="userSpaceOnUse"><feFlood flood-opacity="0" result="BackgroundImageFix"/><feBlend in="SourceGraphic" in2="BackgroundImageFix" mode="normal" result="shape"/><feColorMatrix in="SourceAlpha" result="hardAlpha" type="matrix" values="0 0 0 0 0 0 0 0 0 0 0 0 0 0 0 0 0 0 127 0"/><feOffset dx="4" dy="-4"/><feGaussianBlur stdDeviation="2"/><feComposite in2="hardAlpha" k2="-1" k3="1" operator="arithmetic"/><feColorMatrix type="matrix" values="0 0 0 0 0 0 0 0 0 0 0 0 0 0 0 0 0 0 0.3 0"/><feBlend in2="shape" mode="normal" result="effect1_innerShadow"/><feColorMatrix in="SourceAlpha" result="hardAlpha" type="matrix" values="0 0 0 0 0 0 0 0 0 0 0 0 0 0 0 0 0 0 127 0"/><feOffset dx="-4" dy="4"/><feGaussianBlur stdDeviation="1"/><feComposite in2="hardAlpha" k2="-1" k3="1" operator="arithmetic"/><feColorMatrix type="matrix" values="0 0 0 0 1 0 0 0 0 1 0 0 0 0 1 0 0 0 0.3 0"/><feBlend in2="effect1_innerShadow" mode="normal" result="effect2_innerShadow"/></filter></defs></svg>