<svg width="100%" height="100%" viewBox="0 0 48 48" xmlns="http://www.w3.org/2000/svg" xmlns:xlink="http://www.w3.org/1999/xlink"><defs><style>
.cls-1 {fill: url(#linear-gradient-2);}.cls-2 {fill: url(#linear-gradient-6);}.cls-3 {fill: url(#linear-gradient-10);}.cls-4 {fill: url(#linear-gradient-5);}.cls-5 {fill: url(#linear-gradient-7);}.cls-6 {fill: url(#linear-gradient-9);}.cls-7 {fill: url(#linear-gradient-3);}.cls-8 {fill: url(#linear-gradient);}.cls-9 {fill: url(#linear-gradient-4);}.cls-10 {fill: url(#linear-gradient-8);}
</style><linearGradient id="linear-gradient" x1="24.66" y1="-1.26" x2="22.71" y2="40.32" gradientUnits="userSpaceOnUse"><stop offset="0" stop-color="#f5f8ff"/><stop offset=".55" stop-color="#bec7f9"/><stop offset=".97" stop-color="#d6b5f3"/></linearGradient><linearGradient id="linear-gradient-2" x1="24.66" y1="-1.29" x2="22.7" y2="40.34" gradientUnits="userSpaceOnUse"><stop offset="0" stop-color="#f3f7ff"/><stop offset=".55" stop-color="#afbbf8"/><stop offset=".97" stop-color="#cda5f0"/></linearGradient><linearGradient id="linear-gradient-3" x1="24.66" y1="-1.31" x2="22.7" y2="40.36" gradientUnits="userSpaceOnUse"><stop offset="0" stop-color="#f1f5ff"/><stop offset=".55" stop-color="#a1aef7"/><stop offset=".97" stop-color="#c494ee"/></linearGradient><linearGradient id="linear-gradient-4" x1="24.66" y1="-1.33" x2="22.7" y2="40.37" gradientUnits="userSpaceOnUse"><stop offset="0" stop-color="#eff4ff"/><stop offset=".55" stop-color="#92a2f5"/><stop offset=".97" stop-color="#bb84eb"/></linearGradient><linearGradient id="linear-gradient-5" x1="24.66" y1="-1.34" x2="22.7" y2="40.37" gradientUnits="userSpaceOnUse"><stop offset="0" stop-color="#edf2ff"/><stop offset=".55" stop-color="#8496f4"/><stop offset=".97" stop-color="#b273e8"/></linearGradient><linearGradient id="linear-gradient-6" x1="24.66" y1="-1.34" x2="22.7" y2="40.37" gradientUnits="userSpaceOnUse"><stop offset="0" stop-color="#eaf1fe"/><stop offset=".55" stop-color="#7589f3"/><stop offset=".97" stop-color="#a863e6"/></linearGradient><linearGradient id="linear-gradient-7" x1="24.66" y1="-1.33" x2="22.69" y2="40.37" gradientUnits="userSpaceOnUse"><stop offset="0" stop-color="#e8effe"/><stop offset=".55" stop-color="#677df2"/><stop offset=".97" stop-color="#9f52e3"/></linearGradient><linearGradient id="linear-gradient-8" x1="24.65" y1="-1.31" x2="22.69" y2="40.36" gradientUnits="userSpaceOnUse"><stop offset="0" stop-color="#e6eefe"/><stop offset=".55" stop-color="#5871f0"/><stop offset=".97" stop-color="#9642e0"/></linearGradient><linearGradient id="linear-gradient-9" x1="24.65" y1="-1.29" x2="22.69" y2="40.34" gradientUnits="userSpaceOnUse"><stop offset="0" stop-color="#e4ecfe"/><stop offset=".55" stop-color="#4a64ef"/><stop offset=".97" stop-color="#8d31de"/></linearGradient><linearGradient id="linear-gradient-10" x1="24.64" y1="-1.26" x2="22.69" y2="40.32" gradientUnits="userSpaceOnUse"><stop offset="0" stop-color="#e2ebfe"/><stop offset=".55" stop-color="#3b58ee"/><stop offset=".97" stop-color="#8421db"/></linearGradient></defs><path class="cls-8" d="m36.52,8.13l-9.92-2.48c-2.34-.58-4.6,1.18-4.6,3.59v14.12s-.04.07-.08.06c-1.51-.46-3.18-.57-4.9-.24-3.88.75-7.01,3.83-7.8,7.7-1.36,6.65,3.9,12.47,10.39,12.09,5.18-.3,9.4-5.08,9.4-10.27V14.7c0-.09.08-.15.17-.13l6.46,1.41c1.22.27,2.37-.66,2.37-1.91v-4.05c0-.9-.61-1.68-1.48-1.9Z"/><path class="cls-1" d="m36.39,8.33l-9.82-2.46c-2.2-.55-4.34,1.12-4.34,3.39v14.18c0,.17-.16.27-.32.22-1.47-.49-3.11-.58-4.8-.26-3.83.72-6.93,3.79-7.68,7.61-1.27,6.47,3.84,12.11,10.16,11.74,5.08-.29,9.2-4.96,9.2-10.05,0-.61,0-17.66,0-18.1,0-.18.17-.32.35-.28l6.46,1.41c1.13.25,2.19-.61,2.19-1.77v-3.87c0-.84-.57-1.58-1.39-1.78Z"/><path class="cls-7" d="m36.25,8.52l-9.73-2.43c-2.07-.52-4.07,1.05-4.07,3.18v14.24c0,.29-.29.47-.56.38-1.44-.49-3.05-.58-4.7-.28-3.79.7-6.84,3.74-7.55,7.52-1.19,6.28,3.78,11.75,9.93,11.4,4.99-.28,9-4.83,9-9.83,0-1.21,0-17.31,0-18.19,0-.28.26-.49.53-.43l6.45,1.41c1.04.23,2.02-.56,2.02-1.62v-3.69c0-.79-.54-1.48-1.3-1.67Z"/><path class="cls-9" d="m36.12,8.72l-9.64-2.41c-1.93-.48-3.81.98-3.81,2.97v14.3c0,.41-.41.68-.8.54-1.41-.48-2.98-.59-4.61-.29-3.74.67-6.76,3.69-7.43,7.43-1.11,6.1,3.73,11.39,9.7,11.06,4.89-.27,8.8-4.71,8.8-9.6,0-1.82,0-16.96,0-18.28,0-.38.35-.66.72-.57l6.44,1.41c.94.21,1.84-.51,1.84-1.48v-3.52c0-.74-.5-1.38-1.21-1.55Z"/><path class="cls-4" d="m35.99,8.91l-9.55-2.39c-1.8-.45-3.54.91-3.54,2.77v14.35c0,.54-.53.88-1.04.7-1.38-.48-2.92-.59-4.51-.31-3.7.65-6.68,3.64-7.31,7.34-1.03,5.92,3.67,11.03,9.47,10.72,4.79-.26,8.6-4.58,8.6-9.38,0-2.43,0-16.61,0-18.37,0-.47.44-.82.9-.72l6.44,1.41c.85.19,1.66-.46,1.66-1.34v-3.34c0-.68-.46-1.28-1.13-1.44Z"/><path class="cls-2" d="m35.85,9.11l-9.46-2.37c-1.67-.42-3.28.84-3.28,2.56v14.41c0,.66-.66,1.08-1.28.86-1.35-.47-2.85-.59-4.41-.33-3.66.62-6.59,3.59-7.18,7.25-.95,5.74,3.62,10.68,9.24,10.38,4.7-.25,8.4-4.45,8.4-9.16,0-3.03,0-16.26,0-18.46,0-.57.53-.99,1.08-.87l6.43,1.41c.76.17,1.48-.41,1.48-1.19v-3.16c0-.63-.43-1.18-1.04-1.33Z"/><path class="cls-5" d="m35.72,9.3l-9.37-2.34c-1.53-.38-3.01.78-3.01,2.35v14.47c0,.78-.78,1.28-1.52,1.02-1.32-.47-2.78-.6-4.31-.34-3.61.6-6.51,3.54-7.06,7.16-.86,5.55,3.56,10.32,9.01,10.03,4.6-.24,8.21-4.33,8.21-8.94,0-3.64,0-15.9,0-18.55,0-.67.62-1.16,1.27-1.02l6.43,1.41c.67.15,1.31-.36,1.31-1.05v-2.99c0-.57-.39-1.07-.95-1.21Z"/><path class="cls-10" d="m35.59,9.5l-9.28-2.32c-1.4-.35-2.75.71-2.75,2.15v14.53c0,.91-.9,1.49-1.76,1.18-1.28-.46-2.72-.6-4.21-.36-3.57.57-6.43,3.49-6.94,7.07-.78,5.37,3.5,9.96,8.78,9.69,4.5-.23,8.01-4.2,8.01-8.71,0-4.25,0-15.55,0-18.64,0-.76.71-1.33,1.45-1.16l6.42,1.4c.58.13,1.13-.31,1.13-.91v-2.81c0-.52-.35-.97-.86-1.1Z"/><path class="cls-6" d="m35.45,9.7l-9.19-2.3c-1.26-.32-2.48.64-2.48,1.94v14.58c0,1.03-1.03,1.69-2,1.34-1.25-.46-2.65-.61-4.11-.38-3.52.55-6.34,3.44-6.81,6.98-.7,5.19,3.45,9.6,8.56,9.35,4.41-.22,7.81-4.08,7.81-8.49,0-4.85,0-15.2,0-18.73,0-.86.79-1.49,1.63-1.31l6.41,1.4c.49.11.95-.27.95-.77v-2.64c0-.47-.32-.87-.77-.99Z"/><path class="cls-3" d="m35.32,9.89l-9.1-2.27c-1.13-.28-2.22.57-2.22,1.73v14.64c0,1.15-1.15,1.9-2.24,1.5-1.22-.45-2.59-.61-4.01-.4-3.48.53-6.26,3.39-6.69,6.89-.62,5.01,3.39,9.24,8.33,9.01,4.31-.2,7.61-3.95,7.61-8.27,0-5.46,0-14.85,0-18.82,0-.96.88-1.66,1.82-1.46l6.41,1.4c.4.09.77-.22.77-.62v-2.46c0-.41-.28-.77-.68-.87Z"/></svg>