<svg width="100%" height="100%" viewBox="0 0 48 48" xmlns="http://www.w3.org/2000/svg" xmlns:xlink="http://www.w3.org/1999/xlink"><defs><style>
.cls-1 {fill: url(#linear-gradient-2);}.cls-2 {fill: url(#linear-gradient-6);}.cls-3 {fill: url(#linear-gradient-10);}.cls-4 {fill: url(#linear-gradient-5);}.cls-5 {fill: url(#linear-gradient-7);}.cls-6 {fill: url(#linear-gradient-9);}.cls-7 {fill: url(#linear-gradient-3);}.cls-8 {fill: url(#linear-gradient);}.cls-9 {fill: url(#linear-gradient-4);}.cls-10 {fill: url(#linear-gradient-8);}
</style><linearGradient id="linear-gradient" x1="17.42" y1="1.1" x2="29.42" y2="42.05" gradientUnits="userSpaceOnUse"><stop offset="0" stop-color="#ffedfb"/><stop offset=".36" stop-color="#fbd6f3"/><stop offset=".59" stop-color="#f9c6ed"/><stop offset="1" stop-color="#f9b8d3"/></linearGradient><linearGradient id="linear-gradient-2" x1="17.75" y1="2.07" x2="29.41" y2="42.14" gradientUnits="userSpaceOnUse"><stop offset="0" stop-color="#ffe9fa"/><stop offset=".3" stop-color="#fbd2f2"/><stop offset=".59" stop-color="#f8b9e9"/><stop offset="1" stop-color="#f8a8c9"/></linearGradient><linearGradient id="linear-gradient-3" x1="18.08" y1="3.04" x2="29.4" y2="42.21" gradientUnits="userSpaceOnUse"><stop offset="0" stop-color="#ffe5f9"/><stop offset=".26" stop-color="#fbcef1"/><stop offset=".59" stop-color="#f7ade5"/><stop offset="1" stop-color="#f799c0"/></linearGradient><linearGradient id="linear-gradient-4" x1="18.41" y1="4" x2="29.38" y2="42.26" gradientUnits="userSpaceOnUse"><stop offset="0" stop-color="#ffe1f8"/><stop offset=".23" stop-color="#fbcaf0"/><stop offset=".59" stop-color="#f5a0e1"/><stop offset="1" stop-color="#f589b6"/></linearGradient><linearGradient id="linear-gradient-5" x1="18.72" y1="4.95" x2="29.35" y2="42.28" gradientUnits="userSpaceOnUse"><stop offset="0" stop-color="#ffddf7"/><stop offset=".21" stop-color="#fbc6ef"/><stop offset=".59" stop-color="#f494dd"/><stop offset="1" stop-color="#f479ac"/></linearGradient><linearGradient id="linear-gradient-6" x1="19.03" y1="5.87" x2="29.32" y2="42.29" gradientUnits="userSpaceOnUse"><stop offset="0" stop-color="#fed9f7"/><stop offset=".19" stop-color="#fbc2ee"/><stop offset=".57" stop-color="#f389d8"/><stop offset=".59" stop-color="#f387d8"/><stop offset="1" stop-color="#f36aa3"/></linearGradient><linearGradient id="linear-gradient-7" x1="19.32" y1="6.75" x2="29.29" y2="42.28" gradientUnits="userSpaceOnUse"><stop offset="0" stop-color="#fed5f6"/><stop offset=".17" stop-color="#fbbeed"/><stop offset=".53" stop-color="#f385d7"/><stop offset=".59" stop-color="#f27bd4"/><stop offset="1" stop-color="#f25a99"/></linearGradient><linearGradient id="linear-gradient-8" x1="19.6" y1="7.61" x2="29.25" y2="42.24" gradientUnits="userSpaceOnUse"><stop offset="0" stop-color="#fed1f5"/><stop offset=".16" stop-color="#fabaec"/><stop offset=".48" stop-color="#f281d7"/><stop offset=".59" stop-color="#f06ed0"/><stop offset="1" stop-color="#f04a8f"/></linearGradient><linearGradient id="linear-gradient-9" x1="19.87" y1="8.45" x2="29.2" y2="42.19" gradientUnits="userSpaceOnUse"><stop offset="0" stop-color="#fecdf4"/><stop offset=".15" stop-color="#fab6eb"/><stop offset=".45" stop-color="#f27dd6"/><stop offset=".59" stop-color="#ef62cc"/><stop offset="1" stop-color="#ef3b86"/></linearGradient><linearGradient id="linear-gradient-10" x1="20.14" y1="9.27" x2="29.15" y2="42.12" gradientUnits="userSpaceOnUse"><stop offset="0" stop-color="#fec9f3"/><stop offset=".14" stop-color="#fab2ea"/><stop offset=".42" stop-color="#f379d5"/><stop offset=".59" stop-color="#ee55c8"/><stop offset="1" stop-color="#ee2b7c"/></linearGradient></defs><path class="cls-8" d="m18.2,20.32c7.65-2.43,8.86-9.47,7.89-15.79,0,0,0-.36.24-.24,7.41,3.64,15.66,11.29,15.66,23.07,0,8.74-6.92,16.64-17,16.64-10.93,0-17-7.65-17-16.76,0-5.46,3.64-10.93,7.89-13.36,0,0,.36,0,.36.24,0,1.21.49,4.25,1.82,6.07l.12.12Z"/><path class="cls-1" d="m15.66,14.53s.35-.02.37.2c0,.08.02.17.03.28.06.67.23,1.64.53,2.64.02.07.05.17.08.24.14.5.44,1.14.67,1.61.2.41.45.78.72,1.08l.12.1c.34-.11.77-.26,1.08-.38,6.59-2.63,7.92-9.04,7.18-15.07,0-.02,0-.36.22-.27.28.1.58.23.88.39,6.83,3.75,14.12,11.03,14.12,22.02,0,8.52-6.73,16.3-16.67,16.3-10.86,0-16.67-7.62-16.67-16.42,0-5.17,3.37-10.32,7.33-12.71Z"/><path class="cls-7" d="m15.43,15.17s.33-.03.37.16c.02.08.04.16.05.27.09.69.29,1.62.62,2.58.02.06.07.17.08.23.13.44.52,1.14.73,1.55s.48.72.76.97l.12.08c.29-.09.8-.27,1.07-.38,6.5-2.54,8.1-8.7,7.55-14.74,0-.03,0-.35.2-.29.24.06.55.14.84.31,6.49,3.7,13.5,10.76,13.5,21.43,0,8.29-6.55,15.97-16.33,15.97-10.8,0-16.33-7.6-16.33-16.09,0-4.87,3.1-9.72,6.77-12.07Z"/><path class="cls-9" d="m15.2,15.81s.32-.05.38.13c.02.07.06.16.08.26.12.7.35,1.61.7,2.53.01.05.08.17.09.23.11.38.61,1.14.79,1.49.2.38.5.67.8.87l.12.07c.25-.08.83-.28,1.06-.37,6.41-2.44,8.28-8.35,7.92-14.42,0-.05.01-.34.18-.31.21,0,.52.06.8.23,6.16,3.64,12.88,10.49,12.88,20.85,0,8.06-6.36,15.64-16,15.64-10.73,0-16-7.57-16-15.76,0-4.57,2.83-9.11,6.2-11.43Z"/><path class="cls-4" d="m14.98,16.46c.05-.06.3-.06.38.09.03.07.08.15.1.25.15.71.41,1.6.79,2.47.01.05.09.18.1.22.09.31.69,1.15.85,1.43.2.37.53.62.83.77l.13.05c.21-.07.86-.28,1.06-.36,6.32-2.35,8.47-8.01,8.28-14.09,0-.07.01-.33.16-.33.18-.04.49-.02.76.15,5.83,3.58,12.26,10.21,12.26,20.27,0,7.84-6.17,15.3-15.67,15.3-10.66,0-15.67-7.54-15.67-15.42,0-4.27,2.56-8.51,5.64-10.79Z"/><path class="cls-2" d="m14.75,17.1c.06-.07.29-.08.39.05.04.06.09.14.12.24.19.72.47,1.58.87,2.42,0,.04.1.18.11.22.07.25.78,1.15.91,1.37.21.36.55.57.87.66l.13.03c.17-.05.9-.29,1.05-.35,6.24-2.25,8.65-7.66,8.65-13.77,0-.08.02-.33.13-.35.15-.09.46-.1.72.06,5.5,3.51,11.63,9.94,11.63,19.68,0,7.61-5.99,14.97-15.33,14.97-10.6,0-15.33-7.52-15.33-15.09,0-3.98,2.28-7.9,5.08-10.14Z"/><path class="cls-5" d="m14.52,17.74c.07-.09.29-.1.39,0,.05.06.11.13.14.23.22.74.54,1.57.96,2.37,0,.03.11.18.12.21.05.19.87,1.15.97,1.31.21.34.58.51.9.56h.13c.13-.03.93-.29,1.04-.33,6.15-2.15,8.84-7.31,9.02-13.44.01-.1.02-.32.11-.38.12-.14.43-.19.69-.02,5.17,3.44,11.01,9.66,11.01,19.1,0,7.38-5.8,14.64-15,14.64-10.53,0-15-7.49-15-14.76,0-3.68,2.01-7.3,4.52-9.5Z"/><path class="cls-10" d="m14.29,18.39c.08-.1.28-.12.39-.03.07.05.13.12.17.22.25.75.6,1.55,1.05,2.31,0,.02.12.18.12.2.04.13.96,1.14,1.03,1.26.21.33.6.46.94.45h.13c.08-.03.96-.31,1.03-.34,6.06-2.06,9.02-6.97,9.39-13.11.01-.11.03-.31.09-.4.09-.18.4-.27.65-.1,4.85,3.38,10.39,9.39,10.39,18.52,0,7.16-5.61,14.3-14.67,14.3-10.47,0-14.67-7.46-14.67-14.42,0-3.38,1.74-6.69,3.95-8.86Z"/><path class="cls-6" d="m14.06,19.03c.09-.12.27-.14.4-.07.08.04.15.11.19.22.29.76.66,1.54,1.13,2.26,0,0,.13.19.13.2.02.06,1.05,1.14,1.09,1.2.21.32.63.41.98.35l.13-.02s.99-.32,1.03-.33c5.97-1.96,9.2-6.62,9.76-12.79.02-.13.03-.3.07-.42.06-.23.37-.35.61-.18,4.52,3.3,9.77,9.11,9.77,17.94,0,6.93-5.42,13.97-14.33,13.97-10.4,0-14.33-7.44-14.33-14.09,0-3.08,1.47-6.09,3.39-8.21Z"/><path class="cls-3" d="m25,41c-10.33,0-14-7.41-14-13.76,0-2.79,1.2-5.48,2.83-7.57.17-.22.51-.16.61.1.32.77.72,1.53,1.22,2.21l.14.19,1.15,1.14c.27.26.66.36,1.01.24l1.15-.37c6.02-1.91,9.55-6.49,10.18-12.91.03-.28.34-.43.57-.26,4.2,3.23,9.15,8.84,9.15,17.35,0,6.7-5.24,13.64-14,13.64Z"/></svg>