<?xml version="1.0" encoding="UTF-8" standalone="no"?><!DOCTYPE svg PUBLIC "-//W3C//DTD SVG 1.1//EN" "http://www.w3.org/Graphics/SVG/1.1/DTD/svg11.dtd"><!-- Created with Vectornator (http://vectornator.io/) --><svg width="100%" height="100%" viewBox="0 0 100 100"  stroke-miterlimit="10" style="fill-rule:nonzero;clip-rule:evenodd;stroke-linecap:round;stroke-linejoin:round;" version="1.1" xml:space="preserve" xmlns="http://www.w3.org/2000/svg" xmlns:vectornator="http://vectornator.io" xmlns:xlink="http://www.w3.org/1999/xlink"><defs><linearGradient gradientTransform="matrix(-12.2235 70.5679 -38.6936 -18.9615 32.1065 20.4413)" gradientUnits="userSpaceOnUse" id="LinearGradient" x1="0" x2="1" y1="0" y2="0"><stop offset="0" stop-color="#f2f2f2" stop-opacity="0.8"/><stop offset="1" stop-color="#757575" stop-opacity="0.5"/></linearGradient><linearGradient gradientTransform="matrix(-12.2235 70.5679 -38.6936 -18.9615 32.1065 20.4413)" gradientUnits="userSpaceOnUse" id="LinearGradient_2" x1="0" x2="1" y1="0" y2="0"><stop offset="0" stop-color="#f2f2f2" stop-opacity="0.8"/><stop offset="1" stop-color="#757575" stop-opacity="0.5"/></linearGradient><linearGradient gradientTransform="matrix(-23.9529 76.9767 -86.6924 -26.976 47.483 1.81597)" gradientUnits="userSpaceOnUse" id="LinearGradient_3" x1="0" x2="1" y1="0" y2="0"><stop offset="0" stop-color="#f2f2f2"/><stop offset="1" stop-color="#999999" stop-opacity="0"/></linearGradient><linearGradient gradientTransform="matrix(11.7685 46.9993 -51.1471 7.51997 65.3471 54.5871)" gradientUnits="userSpaceOnUse" id="LinearGradient_4" x1="0" x2="1" y1="0" y2="0"><stop offset="0" stop-color="#f2f2f2"/><stop offset="1" stop-color="#999999" stop-opacity="0"/></linearGradient><linearGradient gradientTransform="matrix(-26.5448 85.3062 -96.0732 -29.895 49.0921 -4.48036)" gradientUnits="userSpaceOnUse" id="LinearGradient_5" x1="0" x2="1" y1="0" y2="0"><stop offset="0" stop-color="#f2f2f2"/><stop offset="1" stop-color="#999999" stop-opacity="0.2"/></linearGradient><filter color-interpolation-filters="sRGB" filterUnits="userSpaceOnUse" height="12.6882" id="Filter" width="19.0267" x="23.0515" y="54.1868"><feGaussianBlur in="SourceGraphic" result="Blur" stdDeviation="1"/></filter></defs><g id="Layer"><g opacity="1"><path d="M58.5489 1.45881C56.6433 1.4542 54.7348 1.50544 52.8374 1.61472C36.1639 2.57505 16.7048 6.91295 7.22342 20.0277C-2.99136 34.1569-3.26937 56.5769 22.513 49.6973C19.5728 30.1605 23.0406 16.8188 45.0991 10.8913C53.8653 8.53573 75.2123 5.32602 80.132 16.8055C84.0813 26.0208 69.1697 37.6566 64.3747 41.6003C53.2893 50.7179 34.462 58.8285 24.1344 64.701C23.4298 65.1001 22.8933 65.5442 22.5026 66.0418C22.1726 66.4619 21.9647 66.9332 21.827 67.4398C21.8133 67.4855 21.7923 67.5288 21.7802 67.5749C21.752 67.6942 21.7316 67.8194 21.7126 67.9439C21.5373 68.9144 21.6409 69.9522 21.8945 70.9789C21.9285 71.1166 21.9775 71.2645 22.014 71.4051C22.1303 71.8952 22.2879 72.4481 22.4506 72.9954C23.1572 75.3865 23.9733 77.6467 23.9733 77.6467C27.9568 76.5916 31.8848 75.3748 35.7549 74.0244C43.638 71.5891 51.8709 69.252 59.9729 68.5C62.6496 68.2515 78.5707 67.2721 77.8141 74.1855C77.0538 81.1327 57.1619 83.8282 53.6585 84.5015C43.4319 86.4668 32.6518 86.748 22.752 89.6205C18.5085 90.8518 19.2164 93.6834 19.4987 96.2155C32.7147 98.541 44.8941 98.4747 57.8785 96.3246C66.0635 94.9693 72.4927 93.1401 80.0228 89.9947C94.9811 83.7465 104.883 70.3823 82.0133 62.6014C76.7508 60.8109 71.288 59.9598 65.7779 59.6755C74.2605 54.3421 82.057 48.1586 88.8837 41.143C114.867 14.4405 87.1319 1.52798 58.5489 1.45881Z" fill="#eeeeee" fill-opacity="0.8" fill-rule="nonzero" opacity="0" stroke="none"/><g opacity="1"><path d="M28.4062 22.75C27.6896 22.7453 27.1069 23.3147 27.0938 24.0312L26.625 49.0625C26.6071 49.7128 26.5805 50.3717 26.5625 51.0313C26.4421 55.4384 26.3638 59.2094 26.25 63.625C29.8214 61.6753 34.3078 59.3525 38.9062 57C39.022 54.5452 39.1418 51.991 39.2812 49L40.375 24.1875C40.4075 23.4463 39.8044 22.8174 39.0625 22.8125L28.4062 22.75Z" fill="url(#LinearGradient)" fill-rule="nonzero" opacity="0.6" stroke="none"/><path d="M38.7187 72.9063C34.5228 74.4659 30.2464 75.8548 25.9062 77.0625C25.8866 77.9323 25.8609 79.2593 25.8437 80.0625C25.7804 83.0319 25.5019 84.7877 27.5938 87C33.6005 84.2378 38.4872 85.8697 38.6875 78.0938C38.7319 76.369 38.7277 74.6352 38.7187 72.9063Z" fill="url(#LinearGradient_2)" fill-rule="nonzero" opacity="0.6" stroke="none"/></g><path d="M52.8438 1.625C36.1703 2.58533 16.7001 6.91655 7.21875 20.0312C-2.99603 34.1605-3.28233 56.5671 22.5 49.6875C19.5599 30.1508 23.0353 16.8337 45.0938 10.9062C53.8599 8.55064 75.2053 5.33301 80.125 16.8125C84.0743 26.0277 69.17 37.65 64.375 41.5938C57.4198 47.3142 47.9454 52.3757 38.9062 57C34.3078 59.3525 29.8214 61.6754 26.25 63.625C25.6525 63.9512 24.6765 64.4052 24.125 64.7188C26.1035 63.598 29.4186 62.8105 34.5938 62.0938C44.3832 60.738 54.9757 59.3538 65.4062 59.8438C74.0272 54.4796 81.9552 48.2675 88.875 41.1562C116.591 12.6735 83.2021-0.123525 52.8438 1.625Z" fill="#eeeeee" fill-opacity="0.8" fill-rule="nonzero" opacity="0.1" stroke="none"/><path d="M52.8438 1.625C36.1703 2.58533 16.7001 6.91655 7.21875 20.0312C-2.99603 34.1605-3.28233 56.5671 22.5 49.6875C19.5599 30.1508 23.0353 16.8337 45.0938 10.9062C53.8599 8.55064 75.2053 5.33301 80.125 16.8125C84.0743 26.0277 69.17 37.65 64.375 41.5938C57.4198 47.3142 47.9454 52.3757 38.9062 57C34.3078 59.3525 29.8214 61.6754 26.25 63.625C25.6525 63.9512 24.6765 64.4052 24.125 64.7188C26.1035 63.598 29.4186 62.8105 34.5938 62.0938C44.3832 60.738 54.9757 59.3538 65.4062 59.8438C74.0272 54.4796 81.9552 48.2675 88.875 41.1562C116.591 12.6735 83.2021-0.123525 52.8438 1.625Z" fill="url(#LinearGradient_3)" fill-rule="nonzero" opacity="1" stroke="none"/><path d="M58.2188 59.5938C50.1664 59.8551 42.1318 61.0498 34.5938 62.0938C29.4186 62.8105 26.1035 63.598 24.125 64.7188C23.4572 65.0985 22.941 65.5263 22.5625 66C22.3779 66.2311 22.3135 66.5015 22.1875 66.75C22.0455 67.0351 21.8534 67.3051 21.7812 67.625C21.5519 68.542 21.6712 69.5387 21.875 70.5313C22.0328 71.4366 22.4 72.5571 22.75 73.6875C23.2841 75.3739 23.9688 77.6563 23.9687 77.6563C24.5813 77.4748 25.2847 77.2518 25.9062 77.0625C36.5517 73.8199 48.3886 69.5748 59.9687 68.5C62.6455 68.2516 78.5691 67.2742 77.8125 74.1875C77.0522 81.1347 57.1597 83.8267 53.6563 84.5C43.4297 86.4653 32.6498 86.7524 22.75 89.625C18.5065 90.8563 19.2177 93.6867 19.5 96.2187C32.716 98.5443 44.8907 98.4626 57.875 96.3125C66.06 94.9571 72.5011 93.1454 80.0313 90C94.9895 83.7518 104.87 70.3746 82 62.5938C76.6225 60.7642 71.039 60.1084 65.4062 59.8438C63.0073 59.7311 60.6239 59.5157 58.2188 59.5938Z" fill="url(#LinearGradient_4)" fill-rule="nonzero" opacity="1" stroke="none"/><path d="M39.5782 56.6868C34.4821 59.2939 29.5102 61.8681 25.5524 64.0287C25.5493 64.1501 25.5556 64.2536 25.5524 64.375C27.7703 63.5912 30.577 62.9165 34.799 62.3318C36.3151 62.1218 37.926 61.921 39.4743 61.7084C39.4967 60.8789 39.4349 60.0423 39.4743 59.2149C39.5073 58.5213 39.5416 57.4624 39.5782 56.6868Z" fill="url(#LinearGradient_5)" fill-rule="nonzero" filter="url(#Filter)" opacity="1" stroke="none"/></g></g></svg>