<?xml version="1.0" encoding="UTF-8" standalone="no"?><!DOCTYPE svg PUBLIC "-//W3C//DTD SVG 1.1//EN" "http://www.w3.org/Graphics/SVG/1.1/DTD/svg11.dtd"><!-- Created with Vectornator (http://vectornator.io/) --><svg height="100%" stroke-miterlimit="10" style="fill-rule:nonzero;clip-rule:evenodd;stroke-linecap:round;stroke-linejoin:round;" version="1.1" viewBox="0 0 800 800" width="100%" xml:space="preserve" xmlns="http://www.w3.org/2000/svg" xmlns:vectornator="http://vectornator.io" xmlns:xlink="http://www.w3.org/1999/xlink"><defs><linearGradient gradientTransform="matrix(271.331 3.09943 -1.26606 307.772 269.284 656.191)" gradientUnits="userSpaceOnUse" id="LinearGradient" x1="0" x2="1" y1="0" y2="0"><stop offset="0" stop-color="#7b7b7b" stop-opacity="0.249352"/><stop offset="1" stop-color="#ffffff"/></linearGradient><linearGradient gradientTransform="matrix(-543.637 -1.69986 -0.85508 500.745 669.67 408.529)" gradientUnits="userSpaceOnUse" id="LinearGradient_2" x1="0" x2="1" y1="0" y2="0"><stop offset="0" stop-color="#7b7b7b" stop-opacity="0.249352"/><stop offset="1" stop-color="#ffffff"/></linearGradient><linearGradient gradientTransform="matrix(764.498 2.484 -1.17293 750.165 14.121 157.95)" gradientUnits="userSpaceOnUse" id="LinearGradient_3" x1="0" x2="1" y1="0" y2="0"><stop offset="0" stop-color="#7b7b7b" stop-opacity="0.249352"/><stop offset="1" stop-color="#ffffff"/></linearGradient></defs><g id="Layer"><g opacity="1"><path d="M314.925 581.824C284.556 581.824 260 610.076 260 644.524C260 678.972 284.556 706.824 314.925 706.824L485.075 706.824C515.444 706.824 540 678.972 540 644.524C540 610.076 515.444 581.824 485.075 581.824L314.925 581.824Z" fill="url(#LinearGradient)" fill-rule="nonzero" opacity="1" stroke="none"/><path d="M192.638 337.473C155.24 337.473 125 365.726 125 400.174C125 434.622 155.24 462.473 192.638 462.473L607.362 462.473C644.761 462.473 675 434.622 675 400.174C675 365.726 644.76 337.473 607.362 337.473L192.638 337.473Z" fill="url(#LinearGradient_2)" fill-rule="nonzero" opacity="1" stroke="none"/><path d="M734.472 93.1762C769.609 93.1762 798 121.296 798 155.774C798 190.253 769.609 218.176 734.472 218.176L65.5278 218.176C30.3907 218.176 2 190.253 2 155.774C2.00005 121.296 30.391 93.1762 65.5278 93.1762L734.472 93.1762Z" fill="url(#LinearGradient_3)" fill-rule="nonzero" opacity="1" stroke="none"/></g></g></svg>