<svg width="100%" height="100%" viewBox="0 0 100 100" xmlns="http://www.w3.org/2000/svg" xml:space="preserve" stroke-miterlimit="10" style="fill-rule:nonzero;clip-rule:evenodd;stroke-linecap:round;stroke-linejoin:round"><rect x="0" y="0" width="100" height="100" fill="#00000000"/><g fill="#010101"><path d="M50.545 38.061c-6.422 0-11.627 5.205-11.627 11.626 0 6.421 5.205 11.626 11.627 11.626 6.42 0 11.626-5.205 11.626-11.626 0-6.42-5.205-11.626-11.626-11.626Z" opacity=".2"/><path d="M50.545 37.65c-6.648 0-12.038 5.39-12.038 12.037 0 6.648 5.39 12.037 12.038 12.037 6.647 0 12.037-5.39 12.037-12.037 0-6.648-5.39-12.037-12.037-12.037Z" opacity=".15"/><path d="M50.545 37.286c-6.85 0-12.401 5.553-12.401 12.401 0 6.849 5.552 12.401 12.4 12.401 6.85 0 12.402-5.552 12.402-12.4 0-6.85-5.553-12.402-12.401-12.402Z" opacity=".1"/><path d="M50.545 36.906c-7.06 0-12.782 5.723-12.782 12.781 0 7.059 5.723 12.781 12.782 12.781 7.058 0 12.78-5.722 12.78-12.78 0-7.06-5.722-12.782-12.78-12.782Z" opacity=".05"/></g><path fill="#8c9498" d="M50.545 38.383c-6.244 0-11.305 5.061-11.305 11.304s5.061 11.305 11.305 11.305c6.243 0 11.304-5.062 11.304-11.305 0-6.243-5.061-11.304-11.304-11.304Z"/><g><g fill="#010101"><path d="m95.536 45.106-7.625-1.27a38.217 38.217 0 0 0-1.895-7.088l5.967-4.913a2.37 2.37 0 0 0 .544-3.02l-2.736-4.739a2.37 2.37 0 0 0-2.886-1.035l-7.203 2.697a38.795 38.795 0 0 0-5.214-5.213l2.697-7.199a2.373 2.373 0 0 0-1.035-2.887l-4.739-2.736a2.382 2.382 0 0 0-3.02.545l-4.906 5.969a38.123 38.123 0 0 0-7.09-1.897l-1.27-7.626A2.38 2.38 0 0 0 52.78 2.71h-5.474c-1.157 0-2.15.841-2.34 1.985l-1.27 7.626a38.223 38.223 0 0 0-7.088 1.895l-4.913-5.967a2.368 2.368 0 0 0-3.02-.547l-4.739 2.736a2.371 2.371 0 0 0-1.035 2.887l2.697 7.203a38.647 38.647 0 0 0-5.213 5.213l-7.203-2.697a2.369 2.369 0 0 0-2.888 1.036L7.56 28.817a2.371 2.371 0 0 0 .545 3.02l5.966 4.914a38.047 38.047 0 0 0-1.895 7.087l-7.625 1.27a2.376 2.376 0 0 0-1.983 2.343v5.473c0 1.158.841 2.15 1.985 2.34l7.626 1.27a38.228 38.228 0 0 0 1.894 7.089l-5.966 4.912a2.37 2.37 0 0 0-.545 3.02l2.736 4.74a2.371 2.371 0 0 0 2.887 1.035l7.203-2.697a38.78 38.78 0 0 0 5.213 5.213l-2.697 7.198a2.372 2.372 0 0 0 1.036 2.888l4.738 2.736a2.38 2.38 0 0 0 3.02-.548l4.909-5.961a38.101 38.101 0 0 0 7.09 1.896l1.27 7.626a2.376 2.376 0 0 0 2.342 1.983h5.474c1.157 0 2.15-.841 2.34-1.986l1.27-7.625a38.204 38.204 0 0 0 7.088-1.894l4.913 5.966a2.374 2.374 0 0 0 3.02.547l4.74-2.736a2.372 2.372 0 0 0 1.035-2.887l-2.698-7.203a38.763 38.763 0 0 0 5.214-5.213l7.198 2.697a2.372 2.372 0 0 0 2.887-1.035l2.736-4.74a2.38 2.38 0 0 0-.547-3.02l-5.962-4.908a38.146 38.146 0 0 0 1.897-7.09l7.626-1.27a2.38 2.38 0 0 0 1.983-2.345v-5.473c0-1.16-.842-2.152-1.986-2.343Zm-45.492 32.21c-14.921 0-27.13-12.208-27.13-27.13 0-14.92 12.209-27.13 27.13-27.13s27.13 12.21 27.13 27.13c0 14.922-12.209 27.13-27.13 27.13Z" opacity=".2"/><path d="m95.058 45.584-7.626-1.27a38.217 38.217 0 0 0-1.894-7.087l5.966-4.913a2.37 2.37 0 0 0 .545-3.02l-2.736-4.74a2.37 2.37 0 0 0-2.887-1.035l-7.202 2.697a38.79 38.79 0 0 0-5.214-5.213l2.697-7.198a2.373 2.373 0 0 0-1.035-2.888l-4.739-2.735a2.382 2.382 0 0 0-3.02.545l-4.907 5.968a38.123 38.123 0 0 0-7.09-1.897l-1.27-7.625A2.38 2.38 0 0 0 52.3 3.188h-5.473c-1.158 0-2.15.84-2.34 1.985l-1.27 7.625a38.226 38.226 0 0 0-7.088 1.895l-4.913-5.966a2.368 2.368 0 0 0-3.02-.547l-4.74 2.735a2.371 2.371 0 0 0-1.035 2.887l2.698 7.203a38.647 38.647 0 0 0-5.214 5.214l-7.203-2.698a2.369 2.369 0 0 0-2.887 1.036L7.08 29.296a2.371 2.371 0 0 0 .545 3.02l5.967 4.913a38.047 38.047 0 0 0-1.895 7.088l-7.626 1.27A2.376 2.376 0 0 0 2.09 47.93v5.474c0 1.157.84 2.15 1.985 2.34l7.625 1.27a38.228 38.228 0 0 0 1.895 7.088l-5.966 4.913a2.37 2.37 0 0 0-.545 3.02l2.735 4.739a2.371 2.371 0 0 0 2.887 1.035l7.203-2.697a38.78 38.78 0 0 0 5.214 5.214l-2.697 7.198a2.372 2.372 0 0 0 1.035 2.887l4.739 2.736a2.38 2.38 0 0 0 3.02-.547l4.909-5.962a38.12 38.12 0 0 0 7.09 1.897l1.27 7.626a2.376 2.376 0 0 0 2.342 1.982h5.474c1.157 0 2.15-.84 2.34-1.985l1.27-7.626a38.212 38.212 0 0 0 7.087-1.894l4.914 5.966a2.374 2.374 0 0 0 3.02.547l4.739-2.735a2.372 2.372 0 0 0 1.035-2.887l-2.697-7.203a38.763 38.763 0 0 0 5.213-5.214l7.199 2.697a2.372 2.372 0 0 0 2.887-1.035l2.735-4.739a2.38 2.38 0 0 0-.546-3.02l-5.962-4.909a38.148 38.148 0 0 0 1.897-7.09l7.626-1.27a2.38 2.38 0 0 0 1.982-2.345v-5.473c0-1.16-.841-2.152-1.985-2.343Zm-45.492 32.21c-14.922 0-27.13-12.208-27.13-27.13 0-14.92 12.208-27.129 27.13-27.129 14.92 0 27.13 12.208 27.13 27.13 0 14.921-12.21 27.13-27.13 27.13Z" opacity=".15"/><path d="m94.58 46.063-7.626-1.27a38.217 38.217 0 0 0-1.894-7.088l5.966-4.913a2.371 2.371 0 0 0 .544-3.02l-2.735-4.739a2.37 2.37 0 0 0-2.887-1.035l-7.203 2.697a38.794 38.794 0 0 0-5.214-5.214l2.697-7.198a2.373 2.373 0 0 0-1.035-2.887L70.455 8.66a2.382 2.382 0 0 0-3.02.545l-4.907 5.969a38.123 38.123 0 0 0-7.09-1.897l-1.27-7.626a2.38 2.38 0 0 0-2.345-1.985H46.35c-1.158 0-2.15.841-2.34 1.985l-1.271 7.626a38.226 38.226 0 0 0-7.088 1.894L30.74 9.205a2.368 2.368 0 0 0-3.02-.547l-4.74 2.736a2.371 2.371 0 0 0-1.035 2.887l2.697 7.203a38.64 38.64 0 0 0-5.213 5.213L12.225 24a2.369 2.369 0 0 0-2.887 1.035l-2.736 4.74a2.371 2.371 0 0 0 .545 3.02l5.966 4.912a38.047 38.047 0 0 0-1.894 7.088l-7.626 1.27a2.376 2.376 0 0 0-1.983 2.343v5.473c0 1.157.841 2.15 1.985 2.34l7.626 1.27a38.238 38.238 0 0 0 1.895 7.088l-5.967 4.913a2.37 2.37 0 0 0-.545 3.02l2.736 4.74a2.371 2.371 0 0 0 2.887 1.035l7.203-2.698a38.78 38.78 0 0 0 5.213 5.214l-2.697 7.198a2.372 2.372 0 0 0 1.036 2.887l4.738 2.736a2.38 2.38 0 0 0 3.02-.547l4.91-5.962a38.112 38.112 0 0 0 7.089 1.897l1.27 7.626a2.376 2.376 0 0 0 2.343 1.983h5.473c1.157 0 2.15-.841 2.34-1.986l1.27-7.625a38.21 38.21 0 0 0 7.088-1.895l4.913 5.967a2.374 2.374 0 0 0 3.02.547l4.74-2.736a2.372 2.372 0 0 0 1.035-2.887l-2.697-7.203a38.757 38.757 0 0 0 5.213-5.213l7.198 2.697a2.372 2.372 0 0 0 2.888-1.036l2.735-4.739a2.38 2.38 0 0 0-.547-3.02l-5.962-4.908a38.147 38.147 0 0 0 1.897-7.09l7.626-1.27a2.38 2.38 0 0 0 1.983-2.345v-5.473c0-1.16-.842-2.153-1.986-2.343Zm-45.492 32.21c-14.922 0-27.13-12.208-27.13-27.13 0-14.921 12.208-27.13 27.13-27.13 14.92 0 27.13 12.209 27.13 27.13 0 14.922-12.21 27.13-27.13 27.13Z" opacity=".1"/><path d="m94.101 46.541-7.626-1.27a38.215 38.215 0 0 0-1.894-7.088l5.967-4.912a2.371 2.371 0 0 0 .544-3.02l-2.736-4.74a2.37 2.37 0 0 0-2.886-1.035l-7.203 2.697a38.794 38.794 0 0 0-5.214-5.213l2.697-7.199a2.372 2.372 0 0 0-1.035-2.887L69.976 9.14a2.382 2.382 0 0 0-3.02.544l-4.907 5.969a38.115 38.115 0 0 0-7.09-1.897L53.69 6.13a2.38 2.38 0 0 0-2.345-1.985h-5.473c-1.157 0-2.15.841-2.34 1.985l-1.27 7.626a38.218 38.218 0 0 0-7.088 1.895L30.26 9.683a2.368 2.368 0 0 0-3.02-.547L22.5 11.872a2.371 2.371 0 0 0-1.035 2.887l2.697 7.203a38.645 38.645 0 0 0-5.214 5.213l-7.203-2.697a2.369 2.369 0 0 0-2.887 1.036l-2.735 4.738a2.371 2.371 0 0 0 .545 3.02l5.966 4.914a38.047 38.047 0 0 0-1.895 7.087l-7.625 1.271a2.376 2.376 0 0 0-1.983 2.342v5.473c0 1.158.84 2.15 1.985 2.34l7.626 1.27a38.229 38.229 0 0 0 1.894 7.089L6.671 69.97a2.371 2.371 0 0 0-.545 3.02l2.736 4.74a2.371 2.371 0 0 0 2.887 1.035l7.203-2.697a38.775 38.775 0 0 0 5.213 5.213l-2.697 7.199a2.372 2.372 0 0 0 1.035 2.887l4.74 2.736a2.38 2.38 0 0 0 3.02-.548l4.908-5.961a38.104 38.104 0 0 0 7.09 1.897l1.27 7.626a2.376 2.376 0 0 0 2.342 1.982h5.474c1.157 0 2.15-.841 2.34-1.985l1.27-7.626a38.21 38.21 0 0 0 7.088-1.894l4.913 5.966a2.374 2.374 0 0 0 3.02.547l4.74-2.735a2.372 2.372 0 0 0 1.034-2.888l-2.697-7.203a38.762 38.762 0 0 0 5.214-5.213l7.198 2.697a2.372 2.372 0 0 0 2.887-1.035l2.736-4.74a2.38 2.38 0 0 0-.547-3.02l-5.962-4.908a38.147 38.147 0 0 0 1.897-7.09l7.626-1.27a2.38 2.38 0 0 0 1.982-2.345v-5.473c0-1.16-.841-2.152-1.985-2.343Zm-45.492 32.21c-14.921 0-27.13-12.208-27.13-27.13 0-14.92 12.209-27.13 27.13-27.13s27.13 12.21 27.13 27.13c0 14.922-12.209 27.13-27.13 27.13Z" opacity=".05"/></g><g opacity=".5"><path d="m96.883 55.556-7.626 1.27a38.226 38.226 0 0 1-1.894 7.088l5.966 4.913a2.371 2.371 0 0 1 .545 3.02l-2.736 4.739a2.37 2.37 0 0 1-2.887 1.036l-7.202-2.698a38.796 38.796 0 0 1-5.214 5.214l2.697 7.198a2.373 2.373 0 0 1-1.035 2.887l-4.739 2.736a2.382 2.382 0 0 1-3.02-.544l-4.907-5.97a38.104 38.104 0 0 1-7.09 1.897l-1.27 7.626a2.38 2.38 0 0 1-2.345 1.985h-5.473a2.375 2.375 0 0 1-2.34-1.985l-1.27-7.626a38.213 38.213 0 0 1-7.088-1.894l-4.913 5.967a2.369 2.369 0 0 1-3.02.546l-4.74-2.735a2.371 2.371 0 0 1-1.035-2.887l2.698-7.203a38.623 38.623 0 0 1-5.214-5.214l-7.203 2.697a2.368 2.368 0 0 1-2.887-1.035l-2.736-4.739a2.371 2.371 0 0 1 .545-3.02l5.966-4.913a38.055 38.055 0 0 1-1.894-7.088l-7.626-1.27a2.376 2.376 0 0 1-1.983-2.343v-5.473c0-1.157.841-2.15 1.985-2.34l7.626-1.27a38.231 38.231 0 0 1 1.895-7.088l-5.967-4.913a2.371 2.371 0 0 1-.544-3.02l2.735-4.74a2.371 2.371 0 0 1 2.887-1.035l7.203 2.698a38.768 38.768 0 0 1 5.214-5.214l-2.697-7.198a2.372 2.372 0 0 1 1.035-2.887l4.739-2.736a2.38 2.38 0 0 1 3.02.547l4.908 5.962a38.102 38.102 0 0 1 7.09-1.897l1.271-7.626a2.376 2.376 0 0 1 2.342-1.982h5.474c1.157 0 2.15.84 2.34 1.985l1.27 7.625c2.45.41 4.818 1.047 7.087 1.895l4.914-5.967a2.374 2.374 0 0 1 3.02-.546l4.739 2.735a2.372 2.372 0 0 1 1.035 2.887l-2.697 7.203a38.763 38.763 0 0 1 5.214 5.214l7.198-2.698a2.372 2.372 0 0 1 2.887 1.036l2.735 4.739a2.38 2.38 0 0 1-.546 3.02l-5.962 4.908a38.148 38.148 0 0 1 1.897 7.09l7.626 1.271a2.38 2.38 0 0 1 1.982 2.344v5.474c0 1.16-.841 2.152-1.985 2.343ZM51.39 23.346c-14.922 0-27.13 12.208-27.13 27.13 0 14.921 12.208 27.13 27.13 27.13 14.92 0 27.13-12.209 27.13-27.13 0-14.922-12.21-27.13-27.13-27.13Z" opacity=".2"/><path d="m96.404 55.078-7.625 1.27a38.226 38.226 0 0 1-1.894 7.088l5.966 4.913a2.371 2.371 0 0 1 .544 3.02l-2.736 4.739a2.37 2.37 0 0 1-2.886 1.035l-7.203-2.697a38.795 38.795 0 0 1-5.214 5.214l2.698 7.198a2.373 2.373 0 0 1-1.036 2.887l-4.738 2.736a2.382 2.382 0 0 1-3.02-.545l-4.907-5.969a38.104 38.104 0 0 1-7.09 1.897l-1.27 7.626a2.38 2.38 0 0 1-2.345 1.985h-5.473a2.375 2.375 0 0 1-2.34-1.985l-1.271-7.626a38.215 38.215 0 0 1-7.088-1.894l-4.913 5.966a2.369 2.369 0 0 1-3.02.547l-4.739-2.736a2.371 2.371 0 0 1-1.035-2.887l2.697-7.203a38.629 38.629 0 0 1-5.213-5.213L14.05 77.14a2.369 2.369 0 0 1-2.887-1.035l-2.736-4.74a2.371 2.371 0 0 1 .545-3.02l5.966-4.912a38.047 38.047 0 0 1-1.894-7.088l-7.626-1.27a2.376 2.376 0 0 1-1.983-2.343V47.26c0-1.157.841-2.15 1.985-2.34l7.626-1.27a38.23 38.23 0 0 1 1.894-7.089L8.974 31.65a2.371 2.371 0 0 1-.545-3.02l2.736-4.74a2.371 2.371 0 0 1 2.887-1.035l7.203 2.697a38.768 38.768 0 0 1 5.213-5.213l-2.697-7.199a2.372 2.372 0 0 1 1.036-2.887l4.738-2.735a2.38 2.38 0 0 1 3.02.547l4.909 5.961a38.104 38.104 0 0 1 7.09-1.896l1.27-7.626a2.376 2.376 0 0 1 2.343-1.983h5.473c1.158 0 2.15.841 2.34 1.986l1.27 7.625a38.206 38.206 0 0 1 7.088 1.894l4.913-5.966a2.374 2.374 0 0 1 3.02-.547l4.74 2.736a2.372 2.372 0 0 1 1.035 2.887l-2.697 7.203a38.763 38.763 0 0 1 5.213 5.213l7.198-2.697a2.372 2.372 0 0 1 2.888 1.035l2.735 4.74a2.38 2.38 0 0 1-.547 3.02l-5.962 4.908a38.148 38.148 0 0 1 1.897 7.09l7.626 1.27a2.38 2.38 0 0 1 1.983 2.345v5.473c0 1.16-.842 2.153-1.986 2.343Zm-45.491-32.21c-14.922 0-27.13 12.208-27.13 27.13 0 14.921 12.208 27.13 27.13 27.13 14.92 0 27.13-12.209 27.13-27.13 0-14.922-12.21-27.13-27.13-27.13Z" opacity=".15"/><path d="m95.926 54.6-7.625 1.27a38.218 38.218 0 0 1-1.895 7.088l5.967 4.912a2.371 2.371 0 0 1 .544 3.02l-2.736 4.74a2.37 2.37 0 0 1-2.886 1.035l-7.203-2.697a38.802 38.802 0 0 1-5.214 5.213l2.697 7.199a2.373 2.373 0 0 1-1.035 2.887L71.8 92.002a2.382 2.382 0 0 1-3.02-.544l-4.907-5.97a38.104 38.104 0 0 1-7.09 1.898l-1.27 7.626a2.38 2.38 0 0 1-2.344 1.984h-5.474a2.375 2.375 0 0 1-2.34-1.984l-1.27-7.626a38.215 38.215 0 0 1-7.088-1.895l-4.913 5.967a2.369 2.369 0 0 1-3.02.546l-4.739-2.735a2.371 2.371 0 0 1-1.035-2.887l2.697-7.203a38.641 38.641 0 0 1-5.214-5.214l-7.203 2.697a2.369 2.369 0 0 1-2.887-1.035L7.95 70.888a2.371 2.371 0 0 1 .544-3.02l5.967-4.913a38.047 38.047 0 0 1-1.895-7.088l-7.626-1.27a2.376 2.376 0 0 1-1.982-2.342V46.78c0-1.157.84-2.15 1.985-2.34l7.625-1.27a38.227 38.227 0 0 1 1.895-7.088l-5.966-4.912a2.371 2.371 0 0 1-.545-3.021l2.735-4.739a2.371 2.371 0 0 1 2.887-1.035l7.203 2.697a38.785 38.785 0 0 1 5.214-5.214l-2.697-7.198a2.372 2.372 0 0 1 1.035-2.887l4.739-2.736a2.38 2.38 0 0 1 3.02.547l4.909 5.962a38.101 38.101 0 0 1 7.09-1.897l1.27-7.626a2.376 2.376 0 0 1 2.342-1.982h5.474c1.157 0 2.15.84 2.34 1.985l1.27 7.626a38.204 38.204 0 0 1 7.088 1.894l4.913-5.966a2.374 2.374 0 0 1 3.02-.547l4.74 2.735a2.372 2.372 0 0 1 1.034 2.887L74.88 19.86a38.769 38.769 0 0 1 5.214 5.214l7.198-2.697a2.372 2.372 0 0 1 2.887 1.035l2.736 4.739a2.38 2.38 0 0 1-.547 3.02l-5.962 4.909a38.156 38.156 0 0 1 1.897 7.09l7.626 1.27a2.38 2.38 0 0 1 1.982 2.345v5.473c0 1.16-.841 2.152-1.985 2.343ZM50.434 22.39c-14.921 0-27.13 12.208-27.13 27.13 0 14.92 12.209 27.13 27.13 27.13s27.13-12.21 27.13-27.13c0-14.922-12.209-27.13-27.13-27.13Z" opacity=".1"/><path d="m95.448 54.121-7.626 1.27a38.218 38.218 0 0 1-1.894 7.088l5.966 4.913a2.371 2.371 0 0 1 .545 3.02l-2.736 4.739a2.37 2.37 0 0 1-2.887 1.035l-7.203-2.697a38.802 38.802 0 0 1-5.213 5.214l2.697 7.198a2.373 2.373 0 0 1-1.035 2.887l-4.739 2.736a2.382 2.382 0 0 1-3.02-.545l-4.907-5.969a38.102 38.102 0 0 1-7.09 1.897l-1.27 7.626a2.38 2.38 0 0 1-2.345 1.985h-5.473a2.375 2.375 0 0 1-2.34-1.985l-1.271-7.626a38.217 38.217 0 0 1-7.087-1.894l-4.913 5.966a2.369 2.369 0 0 1-3.02.547l-4.74-2.735a2.372 2.372 0 0 1-1.035-2.887L25.51 78.7a38.641 38.641 0 0 1-5.213-5.214l-7.203 2.697a2.368 2.368 0 0 1-2.887-1.035L7.47 70.41a2.371 2.371 0 0 1 .545-3.02l5.966-4.913a38.05 38.05 0 0 1-1.894-7.088l-7.626-1.27a2.376 2.376 0 0 1-1.983-2.343v-5.473c0-1.157.841-2.15 1.985-2.34l7.626-1.27a38.227 38.227 0 0 1 1.895-7.088l-5.967-4.913a2.371 2.371 0 0 1-.545-3.02l2.736-4.74a2.371 2.371 0 0 1 2.887-1.035l7.203 2.698a38.785 38.785 0 0 1 5.214-5.214l-2.698-7.198a2.372 2.372 0 0 1 1.036-2.887l4.738-2.736a2.38 2.38 0 0 1 3.021.547l4.908 5.962a38.103 38.103 0 0 1 7.09-1.897l1.271-7.626a2.376 2.376 0 0 1 2.342-1.983h5.474c1.157 0 2.15.841 2.34 1.986l1.27 7.625a38.204 38.204 0 0 1 7.087 1.895l4.913-5.967a2.374 2.374 0 0 1 3.02-.547l4.74 2.736a2.372 2.372 0 0 1 1.035 2.887l-2.697 7.203a38.769 38.769 0 0 1 5.213 5.213l7.199-2.697a2.372 2.372 0 0 1 2.887 1.036l2.735 4.739a2.38 2.38 0 0 1-.547 3.02L85.928 35.6a38.145 38.145 0 0 1 1.897 7.09l7.626 1.27a2.38 2.38 0 0 1 1.982 2.345v5.474c0 1.16-.842 2.152-1.985 2.342Zm-45.492-32.21c-14.922 0-27.13 12.208-27.13 27.13 0 14.921 12.208 27.13 27.13 27.13 14.92 0 27.13-12.209 27.13-27.13 0-14.922-12.21-27.13-27.13-27.13Z" opacity=".05"/></g><g opacity=".5"><path d="m4.83 43.298 7.625-1.27a38.223 38.223 0 0 1 1.894-7.088l-5.966-4.913a2.371 2.371 0 0 1-.545-3.02l2.736-4.739a2.37 2.37 0 0 1 2.887-1.035l7.202 2.697a38.796 38.796 0 0 1 5.214-5.214l-2.697-7.198a2.372 2.372 0 0 1 1.035-2.887l4.739-2.736a2.382 2.382 0 0 1 3.02.545l4.907 5.969a38.12 38.12 0 0 1 7.09-1.897l1.27-7.626A2.38 2.38 0 0 1 47.586.901h5.473c1.158 0 2.15.841 2.34 1.985l1.27 7.626c2.452.409 4.818 1.046 7.088 1.894L68.67 6.44a2.368 2.368 0 0 1 3.02-.547l4.74 2.736a2.371 2.371 0 0 1 1.035 2.887l-2.698 7.203a38.629 38.629 0 0 1 5.214 5.213l7.203-2.697a2.369 2.369 0 0 1 2.887 1.035l2.736 4.739a2.37 2.37 0 0 1-.545 3.02l-5.966 4.913a38.074 38.074 0 0 1 1.894 7.088l7.626 1.27a2.376 2.376 0 0 1 1.983 2.343v5.473c0 1.157-.842 2.15-1.985 2.34l-7.626 1.27a38.22 38.22 0 0 1-1.895 7.088l5.967 4.913a2.371 2.371 0 0 1 .545 3.02l-2.736 4.74a2.371 2.371 0 0 1-2.887 1.035l-7.204-2.698a38.788 38.788 0 0 1-5.212 5.214l2.697 7.198a2.372 2.372 0 0 1-1.036 2.887l-4.739 2.736a2.38 2.38 0 0 1-3.02-.547L63.76 84.35a38.116 38.116 0 0 1-7.09 1.897l-1.271 7.626a2.376 2.376 0 0 1-2.342 1.983h-5.474a2.376 2.376 0 0 1-2.34-1.986l-1.27-7.625a38.206 38.206 0 0 1-7.087-1.895l-4.914 5.967a2.374 2.374 0 0 1-3.02.547l-4.739-2.736a2.372 2.372 0 0 1-1.035-2.887l2.697-7.203a38.763 38.763 0 0 1-5.214-5.214l-7.198 2.698a2.372 2.372 0 0 1-2.887-1.036l-2.735-4.739a2.38 2.38 0 0 1 .546-3.02l5.962-4.908a38.148 38.148 0 0 1-1.897-7.09l-7.626-1.27a2.381 2.381 0 0 1-1.982-2.345V45.64c0-1.16.841-2.152 1.985-2.342Zm45.491 32.21c14.922 0 27.13-12.208 27.13-27.13 0-14.921-12.208-27.13-27.13-27.13-14.92 0-27.13 12.209-27.13 27.13 0 14.922 12.21 27.13 27.13 27.13Z" opacity=".2"/><path d="m4.83 43.776 7.625-1.27a38.22 38.22 0 0 1 1.894-7.088l-5.966-4.912a2.371 2.371 0 0 1-.545-3.02l2.736-4.74a2.37 2.37 0 0 1 2.887-1.035l7.202 2.697a38.79 38.79 0 0 1 5.214-5.213l-2.697-7.199a2.372 2.372 0 0 1 1.035-2.887l4.739-2.735a2.382 2.382 0 0 1 3.02.544l4.907 5.969a38.128 38.128 0 0 1 7.09-1.897l1.27-7.626a2.38 2.38 0 0 1 2.345-1.985h5.473c1.158 0 2.15.841 2.34 1.985l1.27 7.626c2.452.41 4.818 1.047 7.088 1.895l4.913-5.967a2.368 2.368 0 0 1 3.02-.547l4.74 2.736a2.371 2.371 0 0 1 1.035 2.887l-2.698 7.203a38.629 38.629 0 0 1 5.214 5.213l7.203-2.697a2.369 2.369 0 0 1 2.887 1.036l2.736 4.738a2.37 2.37 0 0 1-.545 3.02l-5.966 4.914a38.074 38.074 0 0 1 1.894 7.087l7.626 1.271a2.376 2.376 0 0 1 1.983 2.342v5.473c0 1.158-.842 2.15-1.985 2.34l-7.626 1.27a38.222 38.222 0 0 1-1.895 7.089l5.967 4.912a2.371 2.371 0 0 1 .545 3.02l-2.736 4.74A2.371 2.371 0 0 1 87.182 76l-7.204-2.697a38.788 38.788 0 0 1-5.212 5.213l2.697 7.199a2.372 2.372 0 0 1-1.036 2.887l-4.739 2.736a2.38 2.38 0 0 1-3.02-.548L63.76 84.83a38.116 38.116 0 0 1-7.09 1.897l-1.271 7.626a2.376 2.376 0 0 1-2.342 1.982h-5.474a2.376 2.376 0 0 1-2.34-1.985l-1.27-7.626a38.214 38.214 0 0 1-7.087-1.894l-4.914 5.966a2.374 2.374 0 0 1-3.02.547l-4.739-2.736a2.372 2.372 0 0 1-1.035-2.887l2.697-7.203a38.763 38.763 0 0 1-5.214-5.213L13.463 76a2.372 2.372 0 0 1-2.887-1.035l-2.735-4.74a2.38 2.38 0 0 1 .546-3.02l5.962-4.908a38.147 38.147 0 0 1-1.897-7.09l-7.626-1.27a2.38 2.38 0 0 1-1.982-2.345V46.12c0-1.16.841-2.152 1.985-2.343Zm45.491 32.21c14.922 0 27.13-12.208 27.13-27.13 0-14.92-12.208-27.13-27.13-27.13-14.92 0-27.13 12.21-27.13 27.13 0 14.922 12.21 27.13 27.13 27.13Z" opacity=".15"/><path d="m4.83 44.255 7.625-1.27a38.217 38.217 0 0 1 1.894-7.088l-5.966-4.913a2.37 2.37 0 0 1-.545-3.02l2.736-4.74a2.37 2.37 0 0 1 2.887-1.035l7.202 2.698a38.795 38.795 0 0 1 5.214-5.214l-2.697-7.198a2.372 2.372 0 0 1 1.035-2.887l4.739-2.736a2.382 2.382 0 0 1 3.02.545l4.907 5.968a38.127 38.127 0 0 1 7.09-1.896l1.27-7.626a2.38 2.38 0 0 1 2.345-1.985h5.473c1.158 0 2.15.84 2.34 1.985l1.27 7.626c2.452.409 4.818 1.046 7.088 1.894l4.913-5.966a2.368 2.368 0 0 1 3.02-.547l4.74 2.735a2.371 2.371 0 0 1 1.035 2.887l-2.698 7.203a38.635 38.635 0 0 1 5.214 5.214l7.203-2.697a2.369 2.369 0 0 1 2.887 1.035l2.736 4.739a2.37 2.37 0 0 1-.545 3.02L86.296 35.9a38.07 38.07 0 0 1 1.894 7.088l7.626 1.27a2.376 2.376 0 0 1 1.983 2.343v5.473c0 1.157-.842 2.15-1.985 2.34l-7.626 1.27a38.22 38.22 0 0 1-1.895 7.088l5.967 4.913a2.371 2.371 0 0 1 .545 3.02l-2.736 4.74a2.371 2.371 0 0 1-2.887 1.034l-7.204-2.697a38.788 38.788 0 0 1-5.212 5.214l2.697 7.198a2.372 2.372 0 0 1-1.036 2.887l-4.739 2.736a2.38 2.38 0 0 1-3.02-.547l-4.908-5.962a38.108 38.108 0 0 1-7.09 1.897l-1.271 7.626a2.376 2.376 0 0 1-2.342 1.982h-5.474a2.376 2.376 0 0 1-2.34-1.985l-1.27-7.626a38.214 38.214 0 0 1-7.087-1.894l-4.914 5.966a2.374 2.374 0 0 1-3.02.547l-4.739-2.735a2.372 2.372 0 0 1-1.035-2.887l2.697-7.203a38.763 38.763 0 0 1-5.214-5.214l-7.198 2.697a2.372 2.372 0 0 1-2.887-1.035l-2.735-4.739a2.38 2.38 0 0 1 .546-3.02l5.962-4.909a38.147 38.147 0 0 1-1.897-7.09l-7.626-1.27a2.38 2.38 0 0 1-1.982-2.345v-5.473c0-1.16.841-2.152 1.985-2.343Zm45.491 32.21c14.922 0 27.13-12.209 27.13-27.13s-12.208-27.13-27.13-27.13c-14.92 0-27.13 12.209-27.13 27.13 0 14.922 12.21 27.13 27.13 27.13Z" opacity=".1"/><path d="m4.83 44.733 7.625-1.27a38.217 38.217 0 0 1 1.894-7.088l-5.966-4.913a2.37 2.37 0 0 1-.545-3.02l2.736-4.739a2.37 2.37 0 0 1 2.887-1.035l7.202 2.697a38.795 38.795 0 0 1 5.214-5.213l-2.697-7.199a2.372 2.372 0 0 1 1.035-2.887l4.739-2.736a2.382 2.382 0 0 1 3.02.545l4.907 5.969a38.127 38.127 0 0 1 7.09-1.897l1.27-7.626a2.38 2.38 0 0 1 2.345-1.985h5.473c1.158 0 2.15.841 2.34 1.985l1.27 7.626c2.452.41 4.818 1.047 7.088 1.895l4.913-5.967a2.368 2.368 0 0 1 3.02-.547l4.74 2.736a2.371 2.371 0 0 1 1.035 2.887l-2.698 7.203a38.635 38.635 0 0 1 5.214 5.213l7.203-2.697a2.369 2.369 0 0 1 2.887 1.035l2.736 4.74a2.37 2.37 0 0 1-.545 3.02l-5.966 4.912a38.07 38.07 0 0 1 1.894 7.088l7.626 1.27a2.376 2.376 0 0 1 1.983 2.343v5.473c0 1.157-.842 2.15-1.985 2.34l-7.626 1.27a38.218 38.218 0 0 1-1.895 7.088l5.967 4.913a2.371 2.371 0 0 1 .545 3.02l-2.736 4.74a2.371 2.371 0 0 1-2.887 1.035l-7.204-2.697a38.788 38.788 0 0 1-5.212 5.213l2.697 7.198a2.372 2.372 0 0 1-1.036 2.887l-4.739 2.736a2.38 2.38 0 0 1-3.02-.547l-4.908-5.962a38.108 38.108 0 0 1-7.09 1.897l-1.271 7.626a2.376 2.376 0 0 1-2.342 1.983h-5.474a2.376 2.376 0 0 1-2.34-1.986l-1.27-7.625a38.206 38.206 0 0 1-7.087-1.895l-4.914 5.967a2.374 2.374 0 0 1-3.02.547l-4.739-2.736a2.372 2.372 0 0 1-1.035-2.887l2.697-7.203a38.769 38.769 0 0 1-5.214-5.213l-7.198 2.697a2.372 2.372 0 0 1-2.887-1.035l-2.735-4.74a2.38 2.38 0 0 1 .546-3.02l5.962-4.908a38.147 38.147 0 0 1-1.897-7.09l-7.626-1.27a2.38 2.38 0 0 1-1.982-2.345v-5.473c0-1.16.841-2.153 1.985-2.343Zm45.491 32.21c14.922 0 27.13-12.208 27.13-27.13 0-14.92-12.208-27.13-27.13-27.13-14.92 0-27.13 12.21-27.13 27.13 0 14.922 12.21 27.13 27.13 27.13Z" opacity=".05"/></g><path fill="#607d8b" d="m96.037 44.607-7.626-1.27a38.218 38.218 0 0 0-1.894-7.088l5.966-4.913a2.37 2.37 0 0 0 .544-3.02l-2.735-4.74a2.37 2.37 0 0 0-2.887-1.035l-7.203 2.697a38.795 38.795 0 0 0-5.214-5.213l2.698-7.198A2.373 2.373 0 0 0 76.65 9.94l-4.738-2.736a2.382 2.382 0 0 0-3.02.545l-4.907 5.968a38.118 38.118 0 0 0-7.09-1.897l-1.27-7.625A2.38 2.38 0 0 0 53.28 2.21h-5.473c-1.158 0-2.15.84-2.34 1.985l-1.271 7.625a38.225 38.225 0 0 0-7.088 1.895l-4.912-5.966a2.368 2.368 0 0 0-3.02-.547l-4.74 2.735a2.371 2.371 0 0 0-1.035 2.887l2.697 7.203a38.652 38.652 0 0 0-5.213 5.214l-7.203-2.697a2.369 2.369 0 0 0-2.887 1.035l-2.736 4.739a2.371 2.371 0 0 0 .545 3.02l5.966 4.913a38.048 38.048 0 0 0-1.894 7.088l-7.626 1.27a2.376 2.376 0 0 0-1.983 2.343v5.473c0 1.157.841 2.15 1.985 2.34l7.626 1.27a38.229 38.229 0 0 0 1.894 7.088l-5.966 4.913a2.371 2.371 0 0 0-.545 3.02l2.736 4.74a2.371 2.371 0 0 0 2.887 1.034l7.203-2.697a38.78 38.78 0 0 0 5.213 5.214l-2.697 7.198a2.372 2.372 0 0 0 1.036 2.887l4.738 2.736a2.38 2.38 0 0 0 3.02-.547l4.91-5.962a38.103 38.103 0 0 0 7.089 1.897l1.271 7.626a2.376 2.376 0 0 0 2.342 1.982h5.474c1.157 0 2.15-.84 2.34-1.985l1.27-7.626a38.204 38.204 0 0 0 7.087-1.894l4.913 5.967a2.374 2.374 0 0 0 3.02.546l4.74-2.735a2.372 2.372 0 0 0 1.035-2.887l-2.697-7.203a38.769 38.769 0 0 0 5.213-5.214l7.199 2.697a2.372 2.372 0 0 0 2.887-1.035l2.735-4.739a2.38 2.38 0 0 0-.547-3.02l-5.961-4.909a38.147 38.147 0 0 0 1.897-7.09l7.626-1.27a2.38 2.38 0 0 0 1.982-2.345V46.95c0-1.16-.842-2.152-1.985-2.342Zm-45.492 32.21c-14.922 0-27.13-12.208-27.13-27.13 0-14.921 12.208-27.13 27.13-27.13 14.92 0 27.13 12.209 27.13 27.13 0 14.922-12.21 27.13-27.13 27.13Z"/><animateTransform id="b" attributeName="transform" attributeType="XML" begin="0;a.end" dur="1s" from="-90 50 50" to="0 50 50" type="rotate"/><animateTransform id="c" attributeName="transform" attributeType="XML" begin="b.end" dur="1.6s" from="0 50 50" to="-90 50 50" type="rotate"/><animateTransform id="a" attributeName="transform" attributeType="XML" begin="c.end" dur="1s" from="-90 50 50" to="270 50 50" type="rotate"/></g><g fill="#010101"><path d="M50.549 24.19c-14.059 0-25.5 11.44-25.5 25.498 0 14.06 11.441 25.5 25.5 25.5 14.06 0 25.5-11.44 25.5-25.5 0-14.059-11.44-25.499-25.5-25.499m0-4.636c16.575 0 30.136 13.561 30.136 30.135 0 16.575-13.561 30.137-30.136 30.137-16.574 0-30.135-13.562-30.135-30.137 0-16.574 13.56-30.135 30.135-30.135Z" opacity=".2"/><path d="M50.55 23.857c14.241 0 25.83 11.589 25.83 25.83 0 14.241-11.589 25.83-25.83 25.83-14.242 0-25.83-11.589-25.83-25.83 0-14.241 11.588-25.83 25.83-25.83m0-4.696c-16.79 0-30.526 13.737-30.526 30.526 0 16.79 13.736 30.526 30.526 30.526 16.789 0 30.526-13.737 30.526-30.526 0-16.79-13.737-30.526-30.526-30.526Z" opacity=".15"/><path d="M50.55 23.452c14.465 0 26.235 11.77 26.235 26.235S65.015 75.923 50.55 75.923c-14.466 0-26.236-11.771-26.236-26.236s11.77-26.235 26.236-26.235m0-4.77c-17.053 0-31.006 13.952-31.006 31.005 0 17.053 13.953 31.005 31.006 31.005S81.554 66.74 81.554 49.688c0-17.053-13.951-31.005-31.004-31.005Z" opacity=".1"/><path d="M50.55 23.135c14.64 0 26.552 11.912 26.552 26.552 0 14.64-11.913 26.552-26.552 26.552-14.64 0-26.552-11.913-26.552-26.552 0-14.64 11.912-26.552 26.552-26.552m0-4.827c-17.259 0-31.38 14.12-31.38 31.38 0 17.257 14.121 31.379 31.38 31.379 17.258 0 31.378-14.121 31.378-31.38s-14.12-31.38-31.378-31.38Z" opacity=".05"/></g><path fill="#3a4d57" d="M50.55 24.818c13.712 0 24.869 11.157 24.869 24.87 0 13.71-11.157 24.868-24.87 24.868-13.711 0-24.869-11.157-24.869-24.869s11.158-24.869 24.87-24.869m0-4.522c-16.165 0-29.391 13.226-29.391 29.391s13.226 29.39 29.39 29.39c16.166 0 29.391-13.225 29.391-29.39s-13.225-29.39-29.39-29.39Z"/><g><g fill="#010101" opacity=".5"><path d="M55.131 47.044V22.602a25.8 25.8 0 0 0-1.038-.16c-.332-.044-.66-.096-.996-.126a27.563 27.563 0 0 0-2.547-.13c-.86 0-1.707.052-2.548.13-.334.032-.664.082-.996.126-.349.046-.694.1-1.038.16v24.415L24.825 59.244c1.088 2.9 2.625 5.586 4.572 7.931l21.14-12.212 21.165 12.212c1.947-2.345 3.484-5.03 4.572-7.93l-21.143-12.2Z" opacity=".2"/><path d="M55.206 47.083v-24.84c-.35-.061-.701-.117-1.055-.164-.338-.044-.67-.097-1.013-.128a28.042 28.042 0 0 0-2.588-.132c-.874 0-1.735.053-2.59.132-.339.033-.674.084-1.012.128-.354.047-.705.103-1.054.163v24.813L24.406 59.482c1.105 2.947 2.668 5.676 4.646 8.06L50.538 55.13l21.508 12.41c1.98-2.383 3.541-5.111 4.647-8.06L55.206 47.084Z" opacity=".15"/><path d="M55.26 47.111V21.977a26.33 26.33 0 0 0-1.067-.165c-.341-.045-.678-.099-1.024-.13a28.346 28.346 0 0 0-2.62-.134c-.883 0-1.754.055-2.62.135-.342.033-.682.084-1.023.13-.359.046-.714.103-1.067.164v25.106L24.097 59.656c1.118 2.983 2.699 5.744 4.701 8.156l21.74-12.558L72.3 67.812c2.002-2.412 3.582-5.173 4.701-8.156L55.261 47.112Z" opacity=".1"/><path d="M55.295 47.13V21.808a26.394 26.394 0 0 0-1.074-.166c-.344-.046-.683-.1-1.032-.131a28.551 28.551 0 0 0-2.64-.135c-.89 0-1.767.054-2.638.135-.347.033-.689.085-1.033.13-.36.048-.719.105-1.075.167V47.1L23.9 59.768c1.127 3.005 2.72 5.787 4.737 8.216l21.902-12.65 21.925 12.65c2.018-2.43 3.61-5.211 4.737-8.216L55.295 47.13Z" opacity=".05"/></g><g fill="#010101"><path d="M55.401 46.945V22.826c-.339-.059-.68-.113-1.024-.158-.328-.043-.65-.095-.983-.124a27.175 27.175 0 0 0-2.514-.13c-.847 0-1.684.053-2.514.13-.329.031-.654.081-.982.124-.344.045-.685.1-1.024.158v24.092L25.496 58.984a27.189 27.189 0 0 0 4.512 7.826l20.861-12.051 20.884 12.05c1.922-2.314 3.438-4.964 4.512-7.825L55.4 46.945Z" opacity=".2"/><path d="M55.764 47.02V22.901c-.34-.058-.68-.113-1.024-.158-.328-.043-.65-.095-.983-.124a27.184 27.184 0 0 0-2.513-.13c-.849 0-1.684.053-2.514.13-.33.031-.656.081-.983.124-.344.045-.685.1-1.024.158v24.092L25.859 59.058a27.177 27.177 0 0 0 4.512 7.826l20.861-12.05 20.884 12.05c1.921-2.314 3.438-4.964 4.511-7.826L55.764 47.02Z" opacity=".15"/><path d="M55.968 47.093v-24.12a25.06 25.06 0 0 0-1.024-.157c-.327-.043-.65-.095-.983-.125a27.194 27.194 0 0 0-2.513-.128c-.848 0-1.685.051-2.514.128-.33.032-.655.082-.983.125-.344.045-.685.1-1.024.158v24.091L26.063 59.132a27.175 27.175 0 0 0 4.512 7.826l20.861-12.05 20.884 12.05c1.922-2.314 3.438-4.964 4.512-7.826L55.968 47.093Z" opacity=".1"/><path d="M56.166 47.214V23.1c-.339-.06-.68-.113-1.024-.159-.327-.043-.65-.095-.983-.124a27.203 27.203 0 0 0-2.513-.129c-.847 0-1.683.052-2.513.129-.33.032-.655.081-.983.124-.343.046-.684.1-1.023.159v24.086L26.267 59.25a27.174 27.174 0 0 0 4.512 7.824l20.856-12.048 20.88 12.048c1.92-2.314 3.436-4.963 4.51-7.824L56.166 47.214Z" opacity=".05"/></g><path d="M54.372 46.818V22.699c-.339-.059-.68-.113-1.024-.158-.328-.043-.65-.095-.983-.125a27.175 27.175 0 0 0-2.514-.128c-.847 0-1.684.052-2.514.128-.329.032-.654.082-.982.125-.344.045-.685.1-1.024.158V46.79L24.467 58.857a27.188 27.188 0 0 0 4.512 7.826l20.861-12.05 20.884 12.05c1.922-2.315 3.438-4.964 4.512-7.826L54.372 46.818Z" opacity=".2"/><path d="M54.735 46.893V22.774c-.34-.059-.68-.113-1.024-.158-.328-.043-.65-.095-.983-.125a27.22 27.22 0 0 0-2.513-.128c-.849 0-1.684.052-2.514.128-.33.032-.656.082-.983.125-.344.045-.685.1-1.024.158v24.092L24.83 58.93a27.176 27.176 0 0 0 4.512 7.826l20.861-12.05 20.884 12.05c1.921-2.314 3.438-4.964 4.511-7.826L54.735 46.893Z" opacity=".15"/><path d="M54.94 46.966v-24.12c-.34-.058-.681-.112-1.025-.158-.327-.043-.65-.095-.983-.124a27.194 27.194 0 0 0-2.513-.129c-.848 0-1.685.052-2.514.13-.33.03-.656.08-.983.123-.344.046-.685.1-1.024.159v24.091L25.034 59.004a27.176 27.176 0 0 0 4.512 7.826l20.861-12.05 20.884 12.05c1.922-2.315 3.438-4.964 4.512-7.826L54.939 46.966Z" opacity=".1"/><path d="M55.137 47.087V22.973c-.339-.058-.68-.113-1.024-.158-.327-.043-.65-.095-.983-.124a27.2 27.2 0 0 0-2.513-.129c-.847 0-1.683.052-2.513.129-.33.031-.655.081-.983.124-.343.045-.684.1-1.024.158V47.06L25.24 59.122c1.073 2.862 2.59 5.51 4.51 7.824L50.606 54.9l20.88 12.047c1.92-2.314 3.436-4.962 4.51-7.824L55.137 47.087Z" opacity=".05"/><path fill="#4d5b61" d="M55.066 47.092V22.969c-.34-.06-.68-.113-1.024-.159-.328-.043-.65-.095-.983-.124a27.195 27.195 0 0 0-2.514-.129c-.849 0-1.685.052-2.515.129-.33.032-.655.081-.983.124-.344.046-.685.1-1.024.159v24.096L25.155 59.132a27.18 27.18 0 0 0 4.513 7.828l20.865-12.053L71.421 66.96c1.922-2.315 3.438-4.965 4.512-7.828l-20.867-12.04Z"/><animateTransform attributeName="transform" attributeType="XML" dur="5s" from="0 50 50" repeatCount="indefinite" to="360 50 50" type="rotate"/></g></svg>