<svg width="690px" height="690px" viewBox="0 0 100 100" stroke-miterlimit="10" style="fill-rule:nonzero;clip-rule:evenodd;stroke-linecap:round;stroke-linejoin:round;" version="1.1" xml:space="preserve" xmlns="http://www.w3.org/2000/svg" xmlns:vectornator="http://vectornator.io" xmlns:xlink="http://www.w3.org/1999/xlink"><defs><linearGradient gradientTransform="matrix(-0.185011 -53.2215 -52.1744 0.188724 50.553 98.7152)" gradientUnits="userSpaceOnUse" id="LinearGradient" x1="0" x2="1" y1="0" y2="0"><stop offset="0" stop-color="#ececec" stop-opacity="0"/><stop offset="0.492105" stop-color="#f2f2f2" stop-opacity="0.492105"/><stop offset="1" stop-color="#f2f2f2"/></linearGradient><radialGradient cx="0" cy="0" gradientTransform="matrix(98.4968 0 0 100.476 49.363 99.746)" gradientUnits="userSpaceOnUse" id="RadialGradient" r="1"><stop offset="0" stop-color="#ffffff" stop-opacity="0"/><stop offset="0.832895" stop-color="#e6e6e6" stop-opacity="0.793584"/></radialGradient><radialGradient cx="0" cy="0" gradientTransform="matrix(38.8699 0 0 -39.7362 50.2613 34.4576)" gradientUnits="userSpaceOnUse" id="RadialGradient_2" r="1"><stop offset="0" stop-color="#ffffff"/><stop offset="0.542105" stop-color="#ffffff"/><stop offset="0.790789" stop-color="#d9d9d9"/><stop offset="1" stop-color="#cccccc"/></radialGradient><radialGradient cx="0" cy="0" gradientTransform="matrix(38.011 0 0 -38.8582 50.1854 33.6175)" gradientUnits="userSpaceOnUse" id="RadialGradient_3" r="1"><stop offset="0" stop-color="#ffffff"/><stop offset="0.542105" stop-color="#ffffff"/><stop offset="0.790789" stop-color="#d9d9d9"/><stop offset="1" stop-color="#cccccc"/></radialGradient><linearGradient gradientTransform="matrix(29.4468 0 0 30.0384 35.3566 27.5919)" gradientUnits="userSpaceOnUse" id="LinearGradient_2" x1="0" x2="1" y1="0" y2="0"><stop offset="0" stop-color="#e91e63"/><stop offset="1" stop-color="#ff01aa"/></linearGradient></defs><g id="Layer"><g opacity="1"><g opacity="1"><path d="M50 0.526C50 0.526 19.635 0.516088 19.0493 31.7631L19.0493 42.815L19.0493 68.2379C19.635 99.4849 47.4677 99.475 47.4677 99.475L52.5323 99.475C52.5323 99.475 80.9507 99.485 80.9507 68.2379L80.9507 42.815L80.9507 31.7631C80.9507 0.516088 50 0.526 50 0.526Z" fill="#ffffff" fill-rule="nonzero" opacity="0.2" stroke="none"/><path d="M19.0493 42.815L19.0493 68.2379C19.635 99.4849 47.4677 99.475 47.4677 99.475L52.5323 99.475C52.5323 99.475 80.9507 99.485 80.9507 68.2379L80.9507 42.815L19.0493 42.815Z" fill="url(#LinearGradient)" fill-rule="nonzero" opacity="1" stroke="none"/><path d="M19.0493 42.815L19.0493 68.2379C19.635 99.4849 47.4677 99.475 47.4677 99.475L52.5323 99.475C52.5323 99.475 80.9507 99.485 80.9507 68.2379L80.9507 42.815L19.0493 42.815Z" fill="url(#RadialGradient)" fill-rule="nonzero" opacity="1" stroke="none"/><g opacity="1"><path d="M50 0.526L50 42.815L80.9507 42.815L80.9507 31.7631C80.9507 0.516088 50 0.526 50 0.526Z" fill="url(#RadialGradient_2)" fill-rule="nonzero" opacity="1" stroke="none"/><path d="M50 0.526C50 0.526 19.635 0.516088 19.0493 31.7631L19.0493 42.815L50 42.815L50 0.526Z" fill="url(#RadialGradient_3)" fill-rule="nonzero" opacity="1" stroke="none"/></g><path d="M49.925 0.525L49.925 42.6575L19.05 42.6575L19.05 43.0044L80.95 43.0044L80.95 42.6575L50.225 42.6575L50.225 0.525L49.925 0.525Z" fill="#cccccc" fill-rule="nonzero" opacity="1" stroke="none"/></g><g opacity="1"><g opacity="1"><path d="M53.3153 21.4672L66.0925 21.4654L50.0001 5.46681L33.9076 21.4654L46.5411 21.5219L46.5411 36.9681L33.9075 36.9116L50 52.7883L66.0924 36.9116L53.3153 36.9133L53.3153 21.4672Z" fill="#000000" fill-rule="nonzero" opacity="0.05" stroke="none"/><path d="M53.1721 21.1281L65.7908 21.158L50.0001 5.56387L34.2093 21.158L46.7034 21.2247L46.7034 36.5158L34.2092 36.4491L50 52.0434L65.7907 36.4491L53.1721 36.4192L53.1721 21.1281Z" fill="#000000" fill-rule="nonzero" opacity="0.1" stroke="none"/><path d="M53.0365 20.8615L65.4891 20.8234L50.0001 5.45091L34.5111 20.8234L46.9283 20.8227L46.9283 35.8966L34.5109 35.8974L50 51.27L65.4889 35.8974L53.0365 35.9354L53.0365 20.8615Z" fill="#000000" fill-rule="nonzero" opacity="0.15" stroke="none"/><path d="M52.8922 20.5442L65.137 20.5402L50.0001 5.37605L34.8631 20.5402L47.1218 20.583L47.1218 35.4526L34.863 35.4099L50 50.5742L65.1369 35.4099L52.8922 35.4138L52.8922 20.5442Z" fill="#000000" fill-rule="nonzero" opacity="0.2" stroke="none"/></g><path d="M47.3086 20.2283L35.08 20.2283L50.08 5.20916L65.08 20.2283L52.8514 20.2283L52.8514 34.9557L65.08 34.9557L50.08 49.975L35.08 34.9557L47.3086 34.9557L47.3086 20.2283Z" fill="url(#LinearGradient_2)" fill-rule="nonzero" opacity="1" stroke="none"/></g></g></g></svg>