<svg xmlns="http://www.w3.org/2000/svg" width="100%" height="100%" viewBox="0 0 256 256"><defs><linearGradient id="a" x1="24.8" x2="24.8" y1="36.91" y2="-2.028" gradientUnits="userSpaceOnUse"><stop offset="0" stop-color="#959595"/><stop offset=".115" stop-color="#b1b1b1"/><stop offset=".725" stop-color="#ced2d4"/><stop offset="1" stop-color="#f9fbfb"/></linearGradient><linearGradient id="b" x1="5.913" x2="37.913" y1="36.5" y2="36.5" gradientUnits="userSpaceOnUse"><stop offset="0" stop-color="#ff36cb" stop-opacity=".6"/><stop offset="1" stop-color="#ffa6eb" stop-opacity=".4"/></linearGradient><linearGradient id="c" x1="23.217" x2="8.298" y1="33.672" y2="42.366" gradientUnits="userSpaceOnUse"><stop offset="0" stop-color="#f5ebff" stop-opacity=".2"/><stop offset="1" stop-color="#ffa6e2" stop-opacity=".4"/></linearGradient></defs><path fill="#00000000" d="M0 0H256V256H0z"/><g fill="none" stroke-miterlimit="10" font-family="none" font-size="none" font-weight="none" style="mix-blend-mode:normal" text-anchor="none"><path fill="#959595" d="M36.384 216.875c-7.867.666-14.885-2.966-19.867-8.416l.038.122c4.682 6.64 11.85 10.086 20.778 10.086h144c-11.781 0-26.666-5.334-26.666-32V176a5.335 5.335 0 0 0-5.334-5.333H60v19.632c0 23.797-19.456 26.16-23.616 26.576z" opacity=".4"/><path fill="#959595" d="M35.435 215.083c-7.499.928-14.72-2.107-19.68-7.9l.117.412c4.645 7.306 12.096 11.072 21.461 11.072h144c-11.781 0-26.666-5.334-26.666-32V176a5.335 5.335 0 0 0-5.334-5.333H56v21.328c0 18.656-15.19 22.25-20.565 23.088z" opacity=".3"/><path fill="#959595" d="M34.485 213.296c-7.13 1.195-14.56-1.248-19.488-7.381l.176.666c4.566 8.027 12.342 12.086 22.16 12.086h144c-11.781 0-26.666-5.334-26.666-32V176a5.335 5.335 0 0 0-5.334-5.333H52v23.018c0 13.52-10.923 18.352-17.515 19.61z" opacity=".2"/><path fill="#959595" d="M33.536 211.504c-6.757 1.45-14.368-.384-19.275-6.837 4.379 9.269 12.528 14 23.072 14h144c-11.781 0-26.666-5.334-26.666-32V176a5.335 5.335 0 0 0-5.334-5.333H48v24.709c0 8.384-6.656 14.448-14.464 16.128z" opacity=".1"/><path fill="#99999933" d="M82.336 32h144.608c8 0 18.39 6.005 18.39 20.672v10.864a3.132 3.132 0 0 1-3.131 3.13H103.797a3.132 3.132 0 0 1-3.13-3.13V54c0-18.336-10.235-22-18.331-22z"/><path fill="url(#a)" d="M15.438 6A3.438 3.438 0 0 0 12 9.438v25.927C12 40.788 7.553 41 7 41h27a5 5 0 0 0 5-5V9.875C39 6.146 42.221 6 42.601 6z" transform="scale(5.33333)"/><path fill="#68eaff" fill-opacity=".51" d="M96 85.333A5.335 5.335 0 0 1 101.333 80h69.334A5.335 5.335 0 0 1 176 85.333a5.332 5.332 0 0 1-5.333 5.334h-69.334A5.335 5.335 0 0 1 96 85.333zm53.333 48h-48A5.335 5.335 0 0 0 96 138.667a5.335 5.335 0 0 0 5.333 5.333h48a5.335 5.335 0 0 0 5.334-5.333 5.332 5.332 0 0 0-5.334-5.334zm21.334-26.666h-69.334A5.335 5.335 0 0 0 96 112a5.335 5.335 0 0 0 5.333 5.333h69.334A5.335 5.335 0 0 0 176 112a5.332 5.332 0 0 0-5.333-5.333z"/><path fill="#ea01ae" d="M64 188.608c0 28.928-23.717 30.059-26.667 30.059h144c-11.008 0-24.533-6.907-24.533-32V176a7.468 7.468 0 0 0-7.467-7.467H64z" opacity=".4"/><path fill="#ea01ae" d="M64 188.608c0 28.928-23.717 30.059-26.667 30.059h144c-10.234 0-22.4-8.48-22.4-32V176c0-5.296-4.304-9.6-9.6-9.6H64z" opacity=".3"/><path fill="#ea01ae" d="M64 188.608c0 28.928-23.717 30.059-26.667 30.059h144c-9.461 0-20.266-10.054-20.266-32V176c0-6.475-5.264-11.733-11.734-11.733H64z" opacity=".2"/><path fill="#ea01ae" d="M64 188.608c0 28.928-23.717 30.059-26.667 30.059h144c-8.682 0-18.133-11.627-18.133-32V176c0-7.648-6.219-13.867-13.867-13.867H64z" opacity=".1"/><path fill="#ea01ae" d="M64 188.608c0 28.928-23.717 30.059-26.667 30.059h144c-7.91 0-16-13.206-16-32V176c0-8.821-7.178-16-16-16H64z" opacity=".05"/><path fill="url(#b)" d="M34 41H7c-3 0-5-2-5-6v-2a1 1 0 0 1 1-1h25a1 1 0 0 1 1 1v2c0 5 2.791 6 5 6z" transform="scale(5.33333)"/><path fill="url(#c)" d="M28 32.5a.5.5 0 0 1 .5.5v2c0 2.965.947 4.608 2.145 5.5H7c-2.902 0-4.5-1.953-4.5-5.5v-2a.5.5 0 0 1 .5-.5h25m0-.5H3a1 1 0 0 0-1 1v2c0 4 2 6 5 6h27c-2.209 0-5-1-5-6v-2a1 1 0 0 0-1-1z" transform="scale(5.33333)"/></g></svg>