<svg viewBox="0 0 48 48" width="100%" height="100%" stroke-miterlimit="10" style="fill-rule:nonzero;clip-rule:evenodd;stroke-linecap:round;stroke-linejoin:round;" version="1.1"  xml:space="preserve" xmlns="http://www.w3.org/2000/svg" xmlns:vectornator="http://vectornator.io" xmlns:xlink="http://www.w3.org/1999/xlink">
<defs>
<linearGradient gradientTransform="matrix(8.54758 35.8225 39.7629 -7.70053 10.6108 13.8483)" gradientUnits="userSpaceOnUse" id="LG" x1="0" x2="1" y1="0" y2="0"><stop offset="0" stop-color="#00fbff"/><stop offset="1" stop-color="#2355ce"/></linearGradient>
</defs>
<g opacity="1" fill-rule="nonzero" stroke="none">
<path d="M21.8421 8.79018C19.8553 8.79018 18.0086 9.14705 16.2462 9.82845C14.4849 10.5094 12.896 11.4828 11.52 12.7065C10.1454 13.9289 9.04218 15.3332 8.18872 16.9507C7.36241 18.5167 6.86561 20.2056 6.67897 21.9963C5.46256 22.3503 4.3618 22.8972 3.38051 23.6539C2.34733 24.4507 1.50497 25.4245 0.902564 26.5866C0.297851 27.7531-4.44089e-16 29.0548-4.44089e-16 30.4847C-4.44089e-16 32.0797 0.385168 33.5374 1.18154 34.8564C1.97885 36.1768 3.1331 37.2435 4.62769 38.0258C6.13184 38.8132 7.94536 39.2098 10.0431 39.2098L12.8821 39.2098L35.1179 39.2098L35.8236 39.2098C37.5596 39.2098 39.1826 38.9019 40.6646 38.3173C42.1414 37.7347 43.4203 36.9425 44.521 35.9128C45.6207 34.8842 46.4702 33.684 47.081 32.3244C47.6937 30.9607 48 29.4761 48 27.9163C48 26.3146 47.664 24.8294 47.0154 23.4718C46.369 22.1188 45.4886 20.9587 44.3241 19.9562C43.1581 18.9524 41.7911 18.1906 40.2544 17.6428C38.7584 17.1096 37.13 16.8216 35.3969 16.8049C34.5373 15.2168 33.4757 13.8117 32.1641 12.6336C30.8064 11.4141 29.2418 10.4953 27.5036 9.82845C25.7619 9.16024 23.8708 8.79018 21.8421 8.79018ZM21.8421 12.5608C24.1215 12.5608 26.1497 13.0964 27.8974 14.2366C29.6505 15.3802 31.0783 17.0142 32.1805 19.1547C32.4449 19.6558 32.7638 20.0727 33.1815 20.3023C33.5909 20.5273 34.1061 20.6119 34.7405 20.6119C36.7573 20.6119 38.4608 20.9544 39.8441 21.632C41.2373 22.3144 42.279 23.228 42.9949 24.3461C43.7159 25.4722 44.0943 26.6596 44.0944 28.0074C44.0944 29.3857 43.7324 30.6566 43.0277 31.778C42.3211 32.9024 41.3602 33.7883 40.1395 34.4556C38.9269 35.1185 37.5584 35.4392 36.0205 35.4392C36.0205 35.4392 35.1179 35.4392 35.1179 35.4392L12.8821 35.4392L9.97744 35.4392C8.59558 35.4392 7.49574 35.2307 6.59692 34.8017C5.69142 34.3695 5.02464 33.7822 4.57846 33.053C4.12993 32.32 3.90564 31.4999 3.90564 30.5757C3.90564 29.4431 4.24555 28.4442 4.98872 27.5156C5.71565 26.6073 6.94122 25.9127 8.66462 25.4754C9.27884 25.323 9.74419 25.0948 10.0431 24.7468C10.3406 24.4004 10.5075 23.9089 10.5518 23.3078C10.674 21.7375 11.0346 20.2991 11.6677 18.9908C12.3026 17.6787 13.1612 16.533 14.1949 15.5663C15.2286 14.5995 16.3787 13.8758 17.6903 13.344C18.9969 12.8143 20.3662 12.5608 21.8421 12.5608Z" fill="url(#LG)"/>
</g>
</svg>