<svg xmlns="http://www.w3.org/2000/svg" viewBox="0 0 48 48" width="100%" height="100%" baseProfile="basic"><path fill="#118bef" d="M45.09,10.44l-5.83,5.83l-0.5-0.5L13.81,40.71l-1.44,0.32l-1.47,0.33l-1.44,0.32	l-0.92,0.2c-0.34,0.08-0.69-0.03-0.93-0.27l-1.22-1.22c-0.24-0.24-0.35-0.59-0.27-0.93l0.2-0.92l0.32-1.44l0.33-1.47l0.32-1.44	L32.23,9.24l-0.5-0.5l5.83-5.83c0.26,0.07,0.51,0.2,0.73,0.4c0.04,0.03,0.08,0.06,0.12,0.1l0.46,0.46l5.26,5.26l0.46,0.46	c0.04,0.04,0.07,0.08,0.1,0.12C44.89,9.93,45.02,10.18,45.09,10.44z" opacity=".1"/><path fill="#118bef" d="M44.69,9.71l-5.995,5.995l-0.5-0.5L12.37,41.03l-1.47,0.33l-1.44,0.32l-0.92,0.2	c-0.34,0.08-0.69-0.03-0.93-0.27l-1.22-1.22c-0.24-0.24-0.35-0.59-0.27-0.93l0.2-0.92l0.32-1.44l0.33-1.47L32.805,9.805l-0.5-0.5	L38.29,3.31c0.04,0.03,0.08,0.06,0.12,0.1l0.46,0.46l5.26,5.26l0.46,0.46C44.63,9.63,44.66,9.67,44.69,9.71z" opacity=".2"/><path fill="#118bef" d="M44.13,9.13l-6,6l-0.5-0.5L10.9,41.36l-1.44,0.32l-0.92,0.2	c-0.34,0.08-0.69-0.03-0.93-0.27l-1.22-1.22c-0.24-0.24-0.35-0.59-0.27-0.93l0.2-0.92l0.32-1.44l26.73-26.73l-0.5-0.5l6-6	L44.13,9.13z" opacity=".3"/><path fill="#118bef" d="M43.57,8.57l-6.005,5.995l-0.5-0.5L9.46,41.68l-0.92,0.2c-0.34,0.08-0.69-0.03-0.93-0.27	l-1.22-1.22c-0.24-0.24-0.35-0.59-0.27-0.93l0.2-0.92l27.615-27.605l-0.5-0.5L39.43,4.43L43.57,8.57z" opacity=".4"/><linearGradient id="B2_0oDkGAGMtJGQkNyeDRa" x1="24.354" x2="24.354" y1="-14.574" y2="64.988" gradientUnits="userSpaceOnUse"><stop offset="0" stop-color="#97f8ff"/><stop offset=".325" stop-color="#69dcfe"/><stop offset="1" stop-color="#009cfc"/></linearGradient><path fill="url(#B2_0oDkGAGMtJGQkNyeDRa)" d="M44.5,3.5c-0.828-0.828-2.172-0.828-3,0L34,11l0.5,0.5L4,42c-0.552,0.552-0.552,1.448,0,2	c0.552,0.552,1.448,0.552,2,0l30.5-30.5L37,14l7.5-7.5C45.328,5.672,45.328,4.328,44.5,3.5z"/><path fill="#118bef" d="M44.42,6.59l-0.29,0.28l-0.28,0.28l-0.28,0.29l-0.28,0.28L37,14l-0.5-0.5l-29,29	l-0.29,0.3c-0.01,0-0.01,0-0.01,0l-0.58,0.58c-0.15-0.11-0.29-0.22-0.42-0.35L4.97,41.8c-0.13-0.13-0.24-0.27-0.35-0.42L5.5,40.5	l0.3-0.29c0,0,0,0,0-0.01l28.7-28.7L34,11l6.29-6.28l0.28-0.28l0.28-0.29l0.28-0.28l0.29-0.28L44.42,6.59z" opacity=".05"/><path fill="#118bef" d="M44.13,6.87l-0.28,0.28l-0.28,0.29l-0.28,0.28L37,14l-0.5-0.5l-29,29l-0.29,0.3	c-0.01,0-0.01,0-0.01,0l-0.29,0.29c-0.16-0.1-0.3-0.21-0.43-0.34l-1.22-1.23c-0.13-0.13-0.25-0.27-0.35-0.43L5.5,40.5l0.3-0.29	c0,0,0,0,0-0.01l28.7-28.7L34,11l6.29-6.28l0.28-0.28l0.28-0.29l0.28-0.28L44.13,6.87z" opacity=".1"/><path fill="#118bef" d="M43.85,7.15l-0.28,0.29l-0.28,0.28L37,14l-0.5-0.5l-29,29l-0.29,0.3	c-0.01,0-0.01,0-0.01,0c-0.16-0.1-0.31-0.21-0.44-0.34l-1.22-1.22c-0.13-0.13-0.25-0.28-0.34-0.44l0.3-0.3l0.3-0.29c0,0,0,0,0-0.01	l28.7-28.7L34,11l6.29-6.28l0.28-0.28l0.28-0.29L43.85,7.15z" opacity=".2"/><path fill="#118bef" d="M43.57,7.44l-0.28,0.28L37,14l-0.5-0.5l-29,29c-0.17-0.08-0.32-0.19-0.45-0.32	l-1.23-1.23c-0.13-0.13-0.24-0.28-0.32-0.45l0.3-0.29c0,0,0,0,0-0.01l28.7-28.7L34,11l6.29-6.28l0.28-0.28L43.57,7.44z" opacity=".3"/><path fill="#118bef" d="M43.29,7.72L37,14l-0.5-0.5L7.8,42.2c-0.17-0.06-0.34-0.17-0.47-0.3l-1.22-1.23	c-0.13-0.13-0.24-0.29-0.31-0.46c0,0,0,0,0-0.01l28.7-28.7L34,11l6.29-6.28L43.29,7.72z" opacity=".4"/><linearGradient id="B2_0oDkGAGMtJGQkNyeDRb" x1="25.633" x2="25.633" y1="7.548" y2="38.317" gradientUnits="userSpaceOnUse"><stop offset="0" stop-color="#daa6ff" stop-opacity=".6"/><stop offset="1" stop-color="#dca6ff" stop-opacity=".4"/></linearGradient><path fill="url(#B2_0oDkGAGMtJGQkNyeDRb)" d="M35.586,3.414L8.412,30.588c-0.269,0.269-0.456,0.609-0.538,0.98l-1.755,7.896	c-0.074,0.334,0.027,0.682,0.269,0.924l1.224,1.224c0.242,0.242,0.59,0.343,0.924,0.269l7.896-1.755	c0.371-0.083,0.711-0.269,0.98-0.538l27.174-27.174c0.781-0.781,0.781-2.047,0-2.828l-6.172-6.172	C37.633,2.633,36.367,2.633,35.586,3.414z"/><linearGradient id="B2_0oDkGAGMtJGQkNyeDRc" x1="25.509" x2="25.729" y1="-.137" y2="45.064" gradientUnits="userSpaceOnUse"><stop offset="0" stop-color="#f5ebff" stop-opacity=".2"/><stop offset="1" stop-color="#daa6ff" stop-opacity=".4"/></linearGradient><path fill="url(#B2_0oDkGAGMtJGQkNyeDRc)" d="M37,3.328c0.401,0,0.777,0.156,1.061,0.439l6.172,6.172c0.283,0.283,0.439,0.66,0.439,1.061	s-0.156,0.777-0.439,1.061L17.058,39.235c-0.202,0.202-0.456,0.342-0.735,0.404l-7.896,1.755c-0.036,0.008-0.072,0.012-0.108,0.012	c-0.132,0-0.261-0.053-0.354-0.146l-1.224-1.224C6.62,39.913,6.57,39.74,6.607,39.573l1.755-7.896	c0.062-0.279,0.202-0.533,0.404-0.735L35.939,3.768C36.223,3.484,36.599,3.328,37,3.328 M37,2.828c-0.512,0-1.024,0.195-1.414,0.586	L8.412,30.588c-0.269,0.269-0.456,0.609-0.538,0.98l-1.755,7.896c-0.074,0.334,0.027,0.682,0.269,0.924l1.224,1.224	c0.19,0.19,0.445,0.293,0.707,0.293c0.072,0,0.145-0.008,0.217-0.024l7.896-1.755c0.371-0.083,0.711-0.269,0.98-0.538l27.174-27.174	c0.781-0.781,0.781-2.047,0-2.828l-6.172-6.172C38.024,3.024,37.512,2.828,37,2.828L37,2.828z"/><linearGradient id="B2_0oDkGAGMtJGQkNyeDRd" x1="19.235" x2="51.361" y1="-.88" y2="43.152" gradientUnits="userSpaceOnUse"><stop offset="0" stop-color="#97f8ff"/><stop offset=".325" stop-color="#69dcfe"/><stop offset="1" stop-color="#009cfc"/></linearGradient><path fill="url(#B2_0oDkGAGMtJGQkNyeDRd)" d="M34,5l-3,3l7.586,7.586c0.781,0.781,0.781,2.047,0,2.828L29.5,27.5	c-0.828,0.828-0.828,2.172,0,3l0,0c0.828,0.828,2.172,0.828,3,0l9.257-9.257c2.343-2.343,2.343-6.142,0-8.485L34,5z"/></svg>