<svg width="100%" height="100%" viewBox="0 0 100 100"><defs><linearGradient id="a" x1="0" x2="1" y1="0" y2="0" gradientTransform="rotate(105.85 39.675 39.146) scale(140.0186)" gradientUnits="userSpaceOnUse"><stop offset="0" stop-color="#00ddfc"/><stop offset=".345" stop-color="#01dcfe"/><stop offset="1" stop-color="#1e61ff"/></linearGradient><linearGradient id="b" x1="0" x2="1" y1="0" y2="0" gradientTransform="rotate(90 20.167 32.752) scale(71.6224)" gradientUnits="userSpaceOnUse"><stop offset="0" stop-color="#b66dff" stop-opacity=".476"/><stop offset="1" stop-color="#b871ff" stop-opacity=".4"/></linearGradient><linearGradient id="c" x1="0" x2="1" y1="0" y2="0" gradientTransform="rotate(53.885 25.883 33.876) scale(126.8757)" gradientUnits="userSpaceOnUse"><stop offset="0" stop-color="#00ddfc"/><stop offset=".345" stop-color="#01dcfe"/><stop offset="1" stop-color="#1e61ff"/></linearGradient></defs><path fill="#000" d="M0 0H100V100H0z"/><path fill="#118bef" opacity=".2" d="M97.28 17.619 83.323 31.574 82.16 30.41 22.046 90.524l-3.421.768-3.352.745-2.142.465a2.317 2.317 0 0 1-2.165-.628l-2.84-2.84a2.317 2.317 0 0 1-.628-2.165l.466-2.141.744-3.352.769-3.422L69.614 17.84l-1.164-1.164L82.382 2.721c.093.07.186.14.279.233l1.07 1.07L95.977 16.27l1.07 1.07c.093.094.163.187.233.28Z"/><path fill="#118bef" opacity=".3" d="M95.976 16.269 82.009 30.235l-1.164-1.164-62.22 62.22-3.352.746-2.142.465a2.317 2.317 0 0 1-2.165-.628l-2.84-2.84a2.317 2.317 0 0 1-.628-2.165l.466-2.141.744-3.352L70.93 19.155l-1.164-1.164L83.732 4.025l12.244 12.244Z"/><path fill="#118bef" opacity=".4" d="M94.672 14.965 80.694 28.92l-1.164-1.164-64.257 64.28-2.142.466a2.317 2.317 0 0 1-2.165-.628l-2.84-2.84a2.317 2.317 0 0 1-.628-2.165l.466-2.141 64.28-64.258-1.164-1.164L85.035 5.328l9.637 9.637Z"/><path fill="url(#a)" d="M96.837 3.163a4.94 4.94 0 0 0-6.983 0L72.395 20.622l1.164 1.163L2.563 92.782a3.293 3.293 0 0 0 4.656 4.655l70.996-70.996 1.164 1.164 17.458-17.458a4.94 4.94 0 0 0 0-6.984Z"/><g fill="#00a5ff"><path opacity=".05" d="m96.65 10.356-.674.652-.652.652-.652.675-.652.651L79.38 27.605l-1.164-1.164L10.71 93.945l-.675.699h-.023l-1.35 1.35a8.24 8.24 0 0 1-.978-.815l-2.863-2.863a8.25 8.25 0 0 1-.815-.978l2.049-2.048.698-.675v-.023L73.56 21.785l-1.163-1.163L87.037 6.003l.652-.652.652-.675.651-.651.675-.652 6.984 6.983Z"/><path opacity=".1" d="m95.976 11.008-.652.652-.652.675-.652.651L79.38 27.605l-1.164-1.164L10.71 93.945l-.675.699h-.023l-.675.675a5.553 5.553 0 0 1-1.001-.791l-2.84-2.864a5.67 5.67 0 0 1-.815-1l1.374-1.374.698-.675v-.023L73.56 21.785l-1.163-1.163L87.037 6.003l.652-.652.652-.675.651-.651 6.984 6.983Z"/><path opacity=".2" d="m95.324 11.66-.652.675-.652.651L79.38 27.605l-1.164-1.164L10.71 93.945l-.675.699h-.023a5.722 5.722 0 0 1-1.024-.792l-2.84-2.84a4.821 4.821 0 0 1-.792-1.024l.699-.698.698-.675v-.023L73.56 21.785l-1.163-1.163L87.037 6.003l.652-.652.652-.675 6.983 6.984Z"/><path opacity=".2" d="m94.672 12.335-.652.651L79.38 27.605l-1.164-1.164L10.71 93.945a3.727 3.727 0 0 1-1.047-.744L6.8 90.338a3.727 3.727 0 0 1-.745-1.048l.698-.675v-.023L73.56 21.785l-1.163-1.163L87.037 6.003l.652-.652 6.983 6.984Z"/><path opacity=".3" d="M94.02 12.986 79.38 27.605l-1.164-1.164-66.806 66.806a3.032 3.032 0 0 1-1.095-.698l-2.84-2.863a3.344 3.344 0 0 1-.72-1.071v-.023l66.805-66.807-1.163-1.163L87.037 6.003l6.983 6.983Z"/></g><path fill="#00a5ff" opacity=".1" d="m98.21 19.318-13.57 13.57-1.164-1.163-58.078 58.054-3.352.745-3.421.768-3.352.745-2.142.465a2.317 2.317 0 0 1-2.165-.628l-2.84-2.84a2.317 2.317 0 0 1-.628-2.165l.466-2.141.744-3.352.769-3.422.744-3.352 58.054-58.077-1.163-1.164L80.682 1.79a4.091 4.091 0 0 1 1.7.931c.093.07.186.14.279.233l1.07 1.07L95.977 16.27l1.07 1.07c.093.094.163.187.233.28.466.512.768 1.094.931 1.699Z"/><path fill="url(#b)" d="M76.087 2.963 12.833 66.217a4.646 4.646 0 0 0-1.252 2.281l-4.085 18.38a2.327 2.327 0 0 0 .626 2.15l2.849 2.85a2.327 2.327 0 0 0 2.15.626l18.38-4.085a4.665 4.665 0 0 0 2.282-1.252l63.254-63.255a4.655 4.655 0 0 0 0-6.582L82.67 2.962a4.655 4.655 0 0 0-6.583 0Z"/><path fill="url(#c)" d="m72.395 6.655-6.983 6.983 17.659 17.659a4.654 4.654 0 0 1 0 6.582L61.92 59.03a4.94 4.94 0 0 0 0 6.984 4.94 4.94 0 0 0 6.983 0l21.548-21.548c5.454-5.454 5.454-14.297 0-19.751L72.396 6.655Z"/></svg>