<svg xmlns="http://www.w3.org/2000/svg" xmlns:xlink="http://www.w3.org/1999/xlink" width="100%" height="100%" stroke-miterlimit="10" version="1.1" viewBox="0 0 500 500" xml:space="preserve" style="fill-rule:nonzero;clip-rule:evenodd;stroke-linecap:round;stroke-linejoin:round"><defs><filter id="Fi_2" width="461.508" height="397.424" x="19.246" y="81.662" color-interpolation-filters="sRGB" filterUnits="userSpaceOnUse"><feDropShadow dx="0" dy="8" flood-color="#000" flood-opacity=".7" in="SourceGraphic" result="Shadow" stdDeviation="5"/></filter></defs><g fill-rule="nonzero" stroke="none" opacity="1"><path fill="#cfd8dc" d="M427.645 458.586L249.225 458.586L72.3445 458.586C61.1588 458.586 50.3551 453.312 42.7161 444.11C34.7934 434.583 30.8648 421.668 31.9124 408.669L37.993 333.321L54.7312 125.795C56.5536 103.198 73.1193 86.1624 93.2535 86.1624L406.747 86.1624C426.892 86.1624 443.458 103.21 445.269 125.807L460.891 319.451L468.088 408.669C469.136 421.668 465.196 434.583 457.284 444.11C449.634 453.312 438.831 458.586 427.645 458.586Z" filter="url(#Fi_2)" shadowAngle="1.571" shadowColor="#000" shadowOffset="8" shadowOpacity=".7" shadowRadius="10"/><path fill="#7d8c93" d="M282.688 386.055C159.305 386.702 30.3437 391.89 30.3438 391.89L30.3438 436.095C30.3438 456.199 51.0848 472.569 76.5938 472.569L284.188 472.569C286.414 449.138 290.166 390.258 290.219 386.091C287.692 386.088 285.259 386.042 282.688 386.055ZM224.438 386.127C225.002 396.276 217.302 466.725 216.656 472.569L424.219 472.569C449.728 472.569 470.469 456.199 470.469 436.095C470.469 436.095 471.676 420.306 469.5 388.494C409.184 387.499 345.832 386.914 224.438 386.127Z"/><path fill="#cfd8dc" d="M428.795 433.821L249.22 433.821L71.1939 433.821C59.9358 433.821 49.0622 428.999 41.3737 420.586C33.3997 411.876 29.4456 400.068 30.5 388.184L36.62 319.297L53.4665 129.566C55.3008 108.906 71.9738 93.3315 92.2384 93.3315L407.762 93.3315C428.038 93.3315 444.711 108.917 446.534 129.577L462.256 306.616L469.5 388.184C470.555 400.068 466.59 411.876 458.627 420.586C450.927 428.999 440.054 433.821 428.795 433.821Z"/><path fill="#263238" d="M388.728 389.887L111.262 389.887C90.8544 389.887 74.2583 372.071 74.2583 350.181L74.2583 302.018L425.731 302.018L425.731 350.181C425.731 372.071 409.135 389.887 388.728 389.887Z"/><path fill="#546e7a" d="M389.112 345.953L110.877 345.953C100.827 345.953 91.4476 341.647 84.484 333.838C77.2129 325.666 73.5225 314.518 74.3792 303.238L91.7661 74.6705C93.3148 54.34 109.34 38.4139 128.253 38.4139L371.725 38.4139C390.639 38.4139 406.664 54.34 408.223 74.6705L425.61 303.216C426.467 314.518 422.776 325.655 415.505 333.827C408.542 341.647 399.173 345.953 389.112 345.953Z"/><path fill="#455a64" d="M83.6602 181.2L74.3792 303.227C73.5225 314.518 77.2129 325.655 84.484 333.827C91.4476 341.647 100.827 345.953 110.877 345.953L389.112 345.953C399.162 345.953 408.542 341.647 415.505 333.838C422.776 325.666 426.467 314.518 425.61 303.227L416.329 181.2L83.6602 181.2Z"/><path fill="#ffc107" d="M306.988 192.183L306.988 192.183C285.713 167.317 233.311 171.545 233.311 154.96C233.311 146.898 239.121 140.967 251.368 140.967C263.625 140.967 272.928 149.117 285.57 149.117C292.666 149.117 301.727 146.151 301.727 136.035C301.727 119.747 268.579 115.299 251.159 115.299C227.929 115.299 195.077 124.437 195.077 159.233C195.077 177.323 207.609 186.285 224.008 192.183L223.997 192.183C246.085 200.124 271.962 203.386 271.962 218.961C271.962 229.165 260.791 235.986 247.886 235.986C229.708 235.986 215.342 225.123 205.27 225.123C197.318 225.134 184.094 227.847 184.094 242.521C184.094 265.641 237.122 269.068 256.541 269.068C268.15 269.068 315.896 262.148 315.896 217.522C315.896 206.605 312.403 198.499 306.988 192.183Z"/><path fill="#ffb300" d="M292.743 181.2L204.468 181.2C209.564 185.934 216.33 189.415 224.008 192.183L223.997 192.183C246.085 200.124 271.962 203.386 271.962 218.961C271.962 229.165 260.791 235.986 247.886 235.986C229.708 235.986 215.342 225.123 205.27 225.123C197.318 225.134 184.094 227.847 184.094 242.521C184.094 265.641 237.122 269.068 256.541 269.068C268.15 269.068 315.896 262.148 315.896 217.522C315.896 206.605 312.403 198.499 306.988 192.183C303.111 187.647 298.179 184.099 292.743 181.2Z"/></g></svg>