<svg height="100%" stroke-miterlimit="10" style="fill-rule:nonzero;clip-rule:evenodd;stroke-linecap:round;stroke-linejoin:round;" version="1.1" viewBox="0 0 512 512" width="100%" xml:space="preserve" xmlns="http://www.w3.org/2000/svg" xmlns:xlink="http://www.w3.org/1999/xlink"><defs><linearGradient gradientTransform="matrix(-76.4683 -175.299 172.964 -87.2111 344.765 401.724)" gradientUnits="userSpaceOnUse" id="LinearGradient" x1="0" x2="1" y1="0" y2="0"><stop offset="0" stop-color="#ffffff"/><stop offset="1" stop-color="#595959" stop-opacity="0.275779"/></linearGradient><linearGradient gradientTransform="matrix(-84.1891 -216.7 214.227 -97.1657 460.25 474.637)" gradientUnits="userSpaceOnUse" id="LinearGradient_2" x1="0" x2="1" y1="0" y2="0"><stop offset="0" stop-color="#ffffff"/><stop offset="1" stop-color="#595959" stop-opacity="0.275779"/></linearGradient><linearGradient gradientTransform="matrix(-51.4802 -194.192 192.935 -62.4057 319.777 420.617)" gradientUnits="userSpaceOnUse" id="LinearGradient_3" x1="0" x2="1" y1="0" y2="0"><stop offset="0" stop-color="#ffffff"/><stop offset="1" stop-color="#595959" stop-opacity="0.275779"/></linearGradient><linearGradient gradientTransform="matrix(-419.19 223.395 -219.113 -418.185 391.084 48.5867)" gradientUnits="userSpaceOnUse" id="LinearGradient_4" x1="0" x2="1" y1="0" y2="0"><stop offset="0" stop-color="#4d4d4d" stop-opacity="0.53"/><stop offset="0.200877" stop-color="#979797" stop-opacity="0.726764"/><stop offset="0.479825" stop-color="#ffffff"/><stop offset="0.719298" stop-color="#eaeaea" stop-opacity="0.845644"/><stop offset="1" stop-color="#878787" stop-opacity="0.185372"/></linearGradient><linearGradient gradientTransform="matrix(289.711 -303.421 298.127 276.82 10.7578 506.727)" gradientUnits="userSpaceOnUse" id="LinearGradient_5" x1="0" x2="1" y1="0" y2="0"><stop offset="0" stop-color="#4d4d4d" stop-opacity="0.53"/><stop offset="0.200877" stop-color="#979797" stop-opacity="0.726764"/><stop offset="0.479825" stop-color="#ffffff"/><stop offset="0.719298" stop-color="#eaeaea" stop-opacity="0.845644"/><stop offset="1" stop-color="#878787" stop-opacity="0.185372"/></linearGradient><linearGradient gradientTransform="matrix(109.235 -160.148 156.808 107.991 142.776 118.307)" gradientUnits="userSpaceOnUse" id="LinearGradient_6" x1="0" x2="1" y1="0" y2="0"><stop offset="0" stop-color="#ffffff"/><stop offset="1" stop-color="#878787" stop-opacity="0.3"/></linearGradient><linearGradient gradientTransform="matrix(448.967 -180.91 139.462 550.219 105.38 307.557)" gradientUnits="userSpaceOnUse" id="LinearGradient_7" x1="0" x2="1" y1="0" y2="0"><stop offset="0" stop-color="#ffffff"/><stop offset="1" stop-color="#595959" stop-opacity="0.275779"/></linearGradient><linearGradient gradientTransform="matrix(-224.473 -65.165 107.784 -253.4 356.101 417.537)" gradientUnits="userSpaceOnUse" id="LinearGradient_8" x1="0" x2="1" y1="0" y2="0"><stop offset="0" stop-color="#ffffff"/><stop offset="1" stop-color="#595959" stop-opacity="0.275779"/></linearGradient><linearGradient gradientTransform="matrix(171.634 -179.765 179.765 171.634 25.3565 514.542)" gradientUnits="userSpaceOnUse" id="LinearGradient_9" x1="0" x2="1" y1="0" y2="0"><stop offset="0" stop-color="#ffffff"/><stop offset="1" stop-color="#666666" stop-opacity="0.5"/></linearGradient></defs><g id="Layer"><g opacity="1"><g opacity="1"><path d="M362.876 267.982C353.043 269.481 345.199 271.055 345.199 271.055C260.784 289.51 176.511 344.813 155.281 397.44C147.051 417.908 148.806 437.447 159.604 453.095C162.02 456.594 164.886 459.891 168.186 462.963C170.77 465.367 173.651 467.623 176.776 469.738C180.322 472.135 184.172 474.381 188.408 476.353C222.592 492.299 217.347 444.515 206.804 439.599C205.366 438.927 204.21 438.045 203.275 436.897C200.515 433.493 200.199 427.921 203.591 419.508C220.355 377.919 304.26 322.015 358.26 313.801C359.495 310.314 360.57 307.155 361.192 303.593C363.678 289.36 364.689 274.048 362.876 267.982Z" fill="url(#LinearGradient)" fill-rule="nonzero" opacity="1" stroke="none"/><path d="M409.683 311.942C409.81 311.963 409.937 311.983 410.065 312.003C424.2 314.243 437.848 316.032 446.483 325.251C485.978 367.416 429.019 403.914 423.909 439.592C422.201 451.52 427.256 460.148 434.932 466.563C447.128 476.755 461.585 472.814 475.748 455.468C523.412 397.092 522.099 329.981 475.248 291.387C459.986 278.633 429.276 265.543 411.561 268.822C411.997 275.81 412.075 288.023 411.523 297.894C411.176 304.094 410.566 309.285 409.683 311.942Z" fill="url(#LinearGradient_2)" fill-rule="nonzero" opacity="1" stroke="none"/><path d="M405.497 266.888C401.423 265.975 395.254 265.126 386.959 265.412C381.678 265.594 373.724 266.43 367.825 277.818C364.948 283.372 362.346 297.323 361.194 303.58C358.934 315.856 349.8 332.793 348.63 335.691C335.915 367.221 308.276 396.95 274.939 418.031C246.081 436.295 217.347 444.515 206.804 439.599C205.366 438.927 204.21 438.045 203.275 436.897C201.153 434.279 200.534 430.362 201.877 424.875C196.675 427.143 191.321 429.272 185.636 431.082C175.925 434.175 165.341 436.487 152.806 438.839C154.374 443.842 156.542 448.658 159.604 453.095C162.02 456.594 164.886 459.891 168.186 462.963C170.77 465.367 173.651 467.623 176.776 469.738C180.322 472.135 184.172 474.381 188.408 476.353C249.225 504.723 361.931 441.671 395.702 357.867C402.266 341.545 409.817 318.192 409.687 311.887L411.564 268.766C411.564 268.766 409.571 267.8 405.497 266.888Z" fill="url(#LinearGradient_3)" fill-rule="nonzero" opacity="1" stroke="none"/><path d="M331.13 3.6207C300.61-8.53752 296.165 45.38 304.403 58.68C305.523 61.7196 304.689 65.6614 301.109 70.8971C297.045 76.8398 290.885 83.6854 282.572 91.4046C274.259 99.1238 264.772 107.328 254.141 116.016C248.231 120.847 242.104 125.645 236.054 130.44C231.222 134.269 226.488 138.097 221.591 141.936C205.06 155.107 189.482 167.475 174.859 178.957C170.685 182.234 136.255 210.581 136.255 210.581L156.02 250.807C159.592 247.52 164.856 242.923 170.012 238.64C178.025 231.983 188.289 223.715 200.75 213.854C213.211 203.993 228.271 191.96 246.004 177.912C253.318 172.107 258.793 167.432 265.533 161.964C277.894 151.937 290.84 141.513 301.25 132.603C317.336 118.834 330.37 106.106 340.37 94.341C350.371 82.5759 356.686 71.4439 359.383 60.9369C362.013 50.6817 366.505 17.7127 331.13 3.6207Z" fill="url(#LinearGradient_4)" fill-rule="nonzero" opacity="1" stroke="none"/><path d="M136.255 210.581C129.757 216.072 123.82 221.165 120.088 224.454C110.993 232.467 104.111 240.986 99.3211 250.226C96.3298 255.995 94.5447 262.223 94.0012 268.809C93.9782 269.087 93.9217 269.365 93.9032 269.644C93.8949 269.77 93.9236 269.907 93.9162 270.033C93.4444 273.441 93.6317 276.962 94.34 280.543C94.3643 280.73 94.3395 280.901 94.3656 281.088C94.3672 281.005 94.3995 280.944 94.4024 280.862C95.4709 286.037 97.4782 291.283 100.335 296.215C103.325 301.573 107.098 305.692 111.51 308.903C114.295 310.93 117.497 312.614 120.822 313.824C120.854 313.836 144.524 274.262 144.524 274.262C143.195 271.731 142.899 268.926 143.918 266.043C144.422 264.616 146.492 259.704 156.02 250.807L136.255 210.581Z" fill="url(#LinearGradient_5)" fill-rule="nonzero" opacity="1" stroke="none"/><path d="M319.804 0.516775C304.829-1.10733 281.12 1.34159 268.55 4.45766C246.206 9.99746 217.923 20.7678 183.624 36.7835C178.461 39.1943 171.873 42.6324 166.358 45.2988C138.244 58.8915 119.738 68.01 82.6971 88.032C81.2816 88.7971 74.8986 92.3531 73.4674 93.1295C70.893 94.5262 68.2929 95.9414 65.6667 97.3754C59.0419 101.049 53.2093 104.216 48.0737 106.959C42.9385 109.701 38.4946 112.173 34.7149 114.216C30.9357 116.259 27.6804 117.943 25.095 119.377C22.5096 120.81 20.4628 122.049 18.9732 122.98C12.6565 127.01 8.14075 131.693 5.27094 137.026C2.40104 142.36 1.01741 147.638 1.0563 153.045C1.0952 158.451 2.18193 163.288 4.54614 167.458C4.88182 168.05 5.36723 168.564 5.80608 169.094C6.32683 169.722 6.80476 170.373 7.32662 171.004C9.46212 173.588 11.9525 175.961 15.2105 177.897C19.9351 180.705 25.4004 182.28 31.4981 182.641C37.5962 183.001 43.7311 181.712 50.0531 178.628C51.6336 177.857 53.7822 176.683 56.3673 175.249C58.9527 173.815 62.0423 172.1 65.7764 169.977C69.5105 167.854 73.9223 165.297 78.949 162.457C79.4357 162.182 80.1262 161.814 80.6265 161.532C85.0109 159.06 89.8726 156.357 95.2788 153.364C95.6254 153.172 95.893 153.02 96.2445 152.825C127.213 135.337 147.139 123.83 172.552 109.844C184.305 103.375 192.865 99.2139 203.189 93.7634C215.189 87.4281 228.719 79.9827 238.803 75.0143C257.562 65.7716 272.501 59.5835 283.648 56.3007C294.795 53.0181 304.253 58.2692 304.405 58.6795C303.572 57.8311 299.958 49.3952 300.885 36.025C301.089 33.0711 301.703 27.7076 302.504 24.4559C306.618 7.74639 315.531-2.46723 331.127 3.63896C328.822 2.06659 324.795 1.05814 319.804 0.516775Z" fill="url(#LinearGradient_6)" fill-rule="nonzero" opacity="1" stroke="none"/><path d="M328.589 209.298C320.026 211.259 303.619 217.396 289.994 222.921C275.307 229.326 258.558 236.934 239.697 245.811C221.897 254.311 207.163 260.973 195.449 265.782C183.734 270.592 174.329 273.932 167.325 275.814C160.321 277.695 155.154 278.417 151.666 277.979C148.248 277.55 145.816 276.429 144.524 274.262L120.822 313.824C123.993 314.972 127.466 315.526 131.177 315.861C137.231 316.405 143.953 316.176 151.378 315.094C160.903 313.706 171.539 310.937 183.29 306.878C198.552 301.606 215.739 294.785 234.842 286.358C238.398 284.789 246.819 280.825 255.489 276.77C256.051 276.53 256.258 276.614 256.858 276.335C264.681 272.7 269.786 270.134 275.938 267.226C284.349 263.227 292.257 259.49 299.668 256.053C310.271 250.936 317.417 248.523 322.299 247.175C310.929 248.919 310.01 213.09 328.589 209.298Z" fill="url(#LinearGradient_7)" fill-rule="nonzero" opacity="1" stroke="none"/><path d="M361.154 207.608C351.617 206.249 340.783 206.781 328.589 209.298C310.132 212.988 310.624 248.71 322.299 247.175C372.854 240.525 364.463 281.315 361.192 303.593C360.825 305.585 359.909 309.101 358.26 313.801C356.246 319.542 353.141 327.048 348.61 335.7C332.743 366.004 296.263 404.546 274.939 418.031C246.081 436.295 217.347 444.515 206.804 439.599C205.366 438.927 204.21 438.045 203.275 436.897C201.153 434.279 200.534 430.362 201.877 424.875C196.675 427.143 191.321 429.272 185.636 431.082C175.925 434.175 165.341 436.487 152.806 438.839C154.374 443.842 156.542 448.658 159.604 453.095C162.02 456.594 164.886 459.891 168.186 462.963C170.77 465.367 173.651 467.623 176.776 469.738C180.322 472.135 184.172 474.381 188.408 476.353C249.225 504.723 361.931 441.671 395.702 357.867C402.266 341.545 406.099 334.278 410.065 312.003C414.03 289.728 411.564 268.766 411.564 268.766C411.564 268.766 411.454 268.749 411.453 268.748C411.452 268.74 411.46 268.718 411.459 268.71C406.467 232.797 389.765 211.684 361.154 207.608Z" fill="url(#LinearGradient_8)" fill-rule="nonzero" opacity="1" stroke="none"/></g><path d="M101.041 312.415C87.4768 312.415 74.6558 315.031 62.5773 320.263C50.4991 325.495 39.842 332.696 30.6054 341.868C21.369 351.04 14.135 361.665 8.90318 373.743C3.67138 385.822 1.0555 398.643 1.0555 412.207C1.0555 426.029 3.63912 438.947 8.80631 450.959C13.9735 462.975 21.1753 473.566 30.4116 482.74C39.6479 491.911 50.273 499.08 62.2867 504.247C74.3004 509.414 87.2186 512 101.041 512C114.605 512 127.426 509.414 139.504 504.247C151.582 499.08 162.207 491.879 171.379 482.641C180.551 473.406 187.753 462.811 192.985 450.863C196.449 442.95 198.766 434.628 199.937 425.894C200.534 421.438 200.832 416.876 200.832 412.207C200.832 398.514 198.216 385.628 192.985 373.55C187.753 361.471 180.551 350.846 171.379 341.675C162.207 332.503 151.582 325.333 139.504 320.166C127.426 314.999 114.605 312.415 101.041 312.415ZM164.21 412.207C164.21 416.211 162.982 419.441 160.528 421.895C158.074 424.35 154.844 425.577 150.84 425.577L114.217 425.577L87.4768 425.577L50.8542 425.577C46.8499 425.577 43.6201 424.35 41.166 421.895C38.7116 419.441 37.4844 416.211 37.4844 412.207C37.4844 408.202 38.7116 404.973 41.166 402.518C43.6201 400.064 46.8499 398.837 50.8542 398.837L87.4768 398.837L114.217 398.837L150.84 398.837C154.844 398.837 158.074 400.064 160.528 402.518C162.982 404.973 164.21 408.202 164.21 412.207Z" fill="url(#LinearGradient_9)" fill-rule="nonzero" opacity="1" stroke="none"/></g></g></svg>