<?xml version="1.0" encoding="UTF-8" standalone="no"?>
<!DOCTYPE svg PUBLIC "-//W3C//DTD SVG 1.1//EN" "http://www.w3.org/Graphics/SVG/1.1/DTD/svg11.dtd">
<!-- Created with Vectornator (http://vectornator.io/) -->
<svg height="100%" stroke-miterlimit="10" style="fill-rule:nonzero;clip-rule:evenodd;stroke-linecap:round;stroke-linejoin:round;" version="1.1" viewBox="1 2.39196 98 95.2161" width="100%" xml:space="preserve" xmlns="http://www.w3.org/2000/svg" xmlns:vectornator="http://vectornator.io" xmlns:xlink="http://www.w3.org/1999/xlink">
<defs>
<linearGradient gradientTransform="matrix(9.46688 9.72403 -8.67913 14.9514 4.66789 9.95111)" gradientUnits="userSpaceOnUse" id="LinearGradient" x1="0" x2="1" y1="0" y2="0">
<stop offset="0" stop-color="#e600d0"/>
<stop offset="0.593421" stop-color="#c200ae"/>
<stop offset="1" stop-color="#800073"/>
</linearGradient>
<linearGradient gradientTransform="matrix(381.03 0 0 551.263 -6.92712 184.376)" gradientUnits="userSpaceOnUse" id="LinearGradient_2" x1="0" x2="1" y1="0" y2="0">
<stop offset="0" stop-color="#9600b9"/>
<stop offset="0.656579" stop-color="#910095"/>
<stop offset="1" stop-color="#5e0073"/>
</linearGradient>
<linearGradient gradientTransform="matrix(9.46688 9.72403 -8.67913 14.9514 3.41524 47.5702)" gradientUnits="userSpaceOnUse" id="LinearGradient_3" x1="0" x2="1" y1="0" y2="0">
<stop offset="0" stop-color="#e600d0"/>
<stop offset="0.593421" stop-color="#c200ae"/>
<stop offset="1" stop-color="#800073"/>
</linearGradient>
<linearGradient gradientTransform="matrix(381.03 0 0 551.263 -9.08281 188.165)" gradientUnits="userSpaceOnUse" id="LinearGradient_4" x1="0" x2="1" y1="0" y2="0">
<stop offset="0" stop-color="#9600b9"/>
<stop offset="0.656579" stop-color="#910095"/>
<stop offset="1" stop-color="#5e0073"/>
</linearGradient>
<linearGradient gradientTransform="matrix(9.46688 9.72403 -8.67913 14.9514 4.58965 81.4469)" gradientUnits="userSpaceOnUse" id="LinearGradient_5" x1="0" x2="1" y1="0" y2="0">
<stop offset="0" stop-color="#e600d0"/>
<stop offset="0.593421" stop-color="#c200ae"/>
<stop offset="1" stop-color="#800073"/>
</linearGradient>
<linearGradient gradientTransform="matrix(381.03 0 0 551.263 -10.5123 188.154)" gradientUnits="userSpaceOnUse" id="LinearGradient_6" x1="0" x2="1" y1="0" y2="0">
<stop offset="0" stop-color="#9600b9"/>
<stop offset="0.656579" stop-color="#910095"/>
<stop offset="1" stop-color="#5e0073"/>
</linearGradient>
<linearGradient gradientTransform="matrix(9.46688 9.72403 -8.67913 14.9514 4.66789 9.95111)" gradientUnits="userSpaceOnUse" id="LinearGradient_7" x1="0" x2="1" y1="0" y2="0">
<stop offset="0" stop-color="#e600d0"/>
<stop offset="0.593421" stop-color="#c200ae"/>
<stop offset="1" stop-color="#800073"/>
</linearGradient>
<linearGradient gradientTransform="matrix(381.03 0 0 551.263 -6.92712 184.376)" gradientUnits="userSpaceOnUse" id="LinearGradient_8" x1="0" x2="1" y1="0" y2="0">
<stop offset="0" stop-color="#9600b9"/>
<stop offset="0.656579" stop-color="#910095"/>
<stop offset="1" stop-color="#5e0073"/>
</linearGradient>
<linearGradient gradientTransform="matrix(9.46688 9.72403 -8.67913 14.9514 3.41524 47.5702)" gradientUnits="userSpaceOnUse" id="LinearGradient_9" x1="0" x2="1" y1="0" y2="0">
<stop offset="0" stop-color="#e600d0"/>
<stop offset="0.593421" stop-color="#c200ae"/>
<stop offset="1" stop-color="#800073"/>
</linearGradient>
<linearGradient gradientTransform="matrix(381.03 0 0 551.263 -9.08281 188.165)" gradientUnits="userSpaceOnUse" id="LinearGradient_10" x1="0" x2="1" y1="0" y2="0">
<stop offset="0" stop-color="#9600b9"/>
<stop offset="0.656579" stop-color="#910095"/>
<stop offset="1" stop-color="#5e0073"/>
</linearGradient>
<linearGradient gradientTransform="matrix(9.46688 9.72403 -8.67913 14.9514 4.58965 81.4469)" gradientUnits="userSpaceOnUse" id="LinearGradient_11" x1="0" x2="1" y1="0" y2="0">
<stop offset="0" stop-color="#e600d0"/>
<stop offset="0.593421" stop-color="#c200ae"/>
<stop offset="1" stop-color="#800073"/>
</linearGradient>
<linearGradient gradientTransform="matrix(381.03 0 0 551.263 -10.5123 188.154)" gradientUnits="userSpaceOnUse" id="LinearGradient_12" x1="0" x2="1" y1="0" y2="0">
<stop offset="0" stop-color="#9600b9"/>
<stop offset="0.656579" stop-color="#910095"/>
<stop offset="1" stop-color="#5e0073"/>
</linearGradient>
<linearGradient gradientTransform="matrix(-64.594 -0.0999153 -0.520413 77.886 103.585 20.7589)" gradientUnits="userSpaceOnUse" id="LinearGradient_13" x1="0" x2="1" y1="0" y2="0">
<stop offset="0" stop-color="#000399"/>
<stop offset="1" stop-color="#0004ff"/>
</linearGradient>
<linearGradient gradientTransform="matrix(80.8371 -0.259082 0.950052 84.8529 29.7036 54.6241)" gradientUnits="userSpaceOnUse" id="LinearGradient_14" x1="0" x2="1" y1="0" y2="0">
<stop offset="0" stop-color="#000399"/>
<stop offset="1" stop-color="#0004ff"/>
</linearGradient>
<linearGradient gradientTransform="matrix(-64.594 -0.0999153 -0.520413 77.886 103.585 88.4894)" gradientUnits="userSpaceOnUse" id="LinearGradient_15" x1="0" x2="1" y1="0" y2="0">
<stop offset="0" stop-color="#000399"/>
<stop offset="1" stop-color="#0004ff"/>
</linearGradient>
</defs>
<g id="Layer">
<g opacity="1">
<g opacity="1">
<g opacity="1">
<path d="M2.38823 15.9109C2.99333 15.3427 3.70539 14.6051 4.52441 13.6983C5.34342 12.7916 6.1496 11.8311 6.94295 10.817C7.73629 9.80296 8.46371 8.78197 9.12519 7.75407C9.78668 6.72617 10.2699 5.77495 10.5749 4.90042L15.4646 2.39196C15.9978 3.29282 16.2875 4.18764 16.3338 5.07643C16.3801 5.96523 16.3162 6.81991 16.142 7.64047C15.9678 8.46103 15.7346 9.20875 15.4423 9.88363C15.1501 10.5585 14.9395 11.1004 14.8105 11.5094L15.6471 24.5102C16.6112 24.4308 17.434 24.3776 18.1157 24.3506C18.7974 24.3236 19.3977 24.3198 19.9165 24.3394C20.4354 24.3589 20.9308 24.4067 21.4028 24.4828C21.8747 24.559 22.3829 24.6604 22.9275 24.7872C23.0556 24.8171 23.148 24.8555 23.2046 24.9024C23.2612 24.9494 23.3152 25.0801 23.3665 25.2947L19.6556 28.179C18.4085 28.0237 17.1046 27.9311 15.7439 27.9013C14.3832 27.8714 13.0142 27.9494 11.637 28.1353C10.2599 28.3211 8.87073 28.6308 7.46964 29.0644C6.06855 29.4979 4.69181 30.0807 3.33943 30.8126C3.35435 30.7485 3.37804 30.6105 3.41051 30.3986C3.44298 30.1867 3.48532 29.9686 3.53754 29.7443C3.58975 29.5201 3.64625 29.3138 3.70702 29.1253C3.76779 28.9368 3.82165 28.8143 3.8686 28.7577C4.49609 28.0933 5.36995 27.4948 6.49021 26.9621C7.61047 26.4294 8.88957 25.9759 10.3275 25.6015C10.1761 23.6414 10.1008 17.6309 10.1017 15.9596C10.1026 14.2882 10.0607 13.0542 9.97596 12.2578C9.04439 13.3579 8.00334 14.3481 6.85281 15.2283C5.70228 16.1086 4.63556 16.9914 3.65265 17.877L2.25265 17.1457L2.38823 15.9109Z" fill="url(#LinearGradient)" fill-rule="nonzero" opacity="1" stroke="none"/>
<path d="M23.5209 22.7017C23.5476 22.3554 23.714 21.9758 24.0204 21.5629C24.3267 21.15 24.693 20.7637 25.1192 20.4041C25.5455 20.0445 25.9917 19.7515 26.4578 19.525C26.924 19.2986 27.3169 19.1854 27.6366 19.1854C27.8497 19.1854 27.9962 19.2986 28.0761 19.525C28.156 19.7515 28.2093 20.0178 28.236 20.3242C28.2626 20.6305 28.2626 20.9369 28.236 21.2432C28.2093 21.5496 28.196 21.796 28.196 21.9824C28.196 22.1689 28.1893 22.3088 28.176 22.402C28.1627 22.4952 28.1294 22.5752 28.0761 22.6418C28.0229 22.7084 27.9429 22.7816 27.8364 22.8615C27.7298 22.9414 27.5833 23.0613 27.3968 23.2211C27.1837 23.3543 26.9107 23.5408 26.5777 23.7806C26.2447 24.0203 25.9184 24.2601 25.5987 24.4998C25.2258 24.7928 24.8395 25.0859 24.4399 25.3789L23.7207 25.3789C23.6408 25.3789 23.5808 25.2657 23.5409 25.0392C23.5009 24.8128 23.4743 24.5531 23.461 24.2601C23.4477 23.967 23.4477 23.674 23.461 23.381C23.4743 23.088 23.4943 22.8615 23.5209 22.7017Z" fill="url(#LinearGradient_2)" fill-rule="nonzero" opacity="1" stroke="none"/>
<path d="M5.13789 60.0977C6.18619 59.3967 7.25887 58.6035 8.35594 57.7181C9.45301 56.8328 10.4675 55.8748 11.3994 54.8442C12.3313 53.8136 13.1404 52.7128 13.8267 51.5419C14.513 50.371 14.9728 49.1308 15.2062 47.8213C15.3995 46.7363 15.3556 45.8213 15.0745 45.0764C14.7933 44.3314 13.9738 43.8379 12.616 43.5959C11.9371 43.4749 11.377 43.4909 10.9358 43.6439C10.4947 43.7969 10.2107 44.2288 10.084 44.9397C9.99068 45.4635 9.99719 45.9183 10.1036 46.304C10.21 46.6896 10.3428 47.0608 10.5022 47.4173C10.6615 47.7738 10.8208 48.1303 10.9802 48.4868C11.1395 48.8434 11.2255 49.2544 11.2381 49.7198L7.03734 52.3876C6.54358 52.2996 6.17136 52.0209 5.92068 51.5516C5.67 51.0823 5.49437 50.5492 5.3938 49.9522C5.29323 49.3552 5.25 48.7492 5.26411 48.134C5.27821 47.5189 5.31861 47.0243 5.38528 46.6501C5.43863 46.3508 5.51512 46.0556 5.61475 45.7645C5.71438 45.4735 5.98665 45.107 6.43156 44.6652C6.87646 44.2233 7.5872 43.6744 8.56378 43.0185C9.54035 42.3626 10.9323 41.5201 12.7395 40.4911C13.2007 40.2259 13.8012 40.0723 14.5409 40.0304C15.2807 39.9886 15.9129 40.0144 16.4375 40.1079C17.8571 40.3609 18.8859 40.9303 19.5241 41.816C20.1622 42.7018 20.3746 43.7434 20.1612 44.9406C19.8878 46.4746 19.3169 47.9363 18.4484 49.3256C17.5799 50.715 16.5715 52.0408 15.4232 53.303C14.2749 54.5653 13.0467 55.7844 11.7387 56.9602C10.4306 58.1361 9.18827 59.2562 8.01158 60.3204L7.96157 60.601C9.21674 60.1684 10.5501 59.7884 11.9617 59.4609C13.3732 59.1334 14.8117 58.8783 16.2771 58.6955C17.7424 58.5127 19.1912 58.4235 20.6232 58.4278C22.0552 58.4321 23.4347 58.5525 24.7617 58.789C24.916 58.8165 25.0301 58.8465 25.1039 58.8789C25.1777 58.9114 25.2476 59.0107 25.3135 59.1768L20.7424 61.7786C18.2028 61.5576 16.0157 61.4573 14.1813 61.4778C12.3468 61.4983 10.704 61.6495 9.25281 61.9313C7.80162 62.2131 6.43239 62.6157 5.14513 63.139C3.85786 63.6623 2.47615 64.3136 1 65.0928C1.05163 64.4458 1.19023 63.8914 1.41578 63.4298C1.64133 62.9682 1.93737 62.5577 2.30388 62.1984C2.6704 61.8391 3.09697 61.5001 3.58359 61.1815C4.07021 60.8629 4.58831 60.5016 5.13789 60.0977Z" fill="url(#LinearGradient_3)" fill-rule="nonzero" opacity="1" stroke="none"/>
<path d="M24.442 60.0558C24.4686 59.7095 24.6351 59.3299 24.9415 58.917C25.2478 58.5041 25.6141 58.1178 26.0403 57.7582C26.4665 57.3986 26.9127 57.1056 27.3789 56.8791C27.8451 56.6527 28.238 56.5395 28.5577 56.5395C28.7708 56.5395 28.9173 56.6527 28.9972 56.8791C29.0771 57.1056 29.1304 57.3719 29.157 57.6783C29.1837 57.9846 29.1837 58.291 29.157 58.5973C29.1304 58.9037 29.1171 59.1501 29.1171 59.3365C29.1171 59.523 29.1104 59.6629 29.0971 59.7561C29.0838 59.8493 29.0505 59.9293 28.9972 59.9959C28.9439 60.0625 28.864 60.1357 28.7575 60.2156C28.6509 60.2955 28.5044 60.4154 28.3179 60.5752C28.1048 60.7084 27.8318 60.8949 27.4988 61.1347C27.1658 61.3744 26.8395 61.6142 26.5198 61.8539C26.1469 62.1469 25.7606 62.44 25.361 62.733L24.6418 62.733C24.5619 62.733 24.5019 62.6198 24.462 62.3933C24.422 62.1669 24.3954 61.9072 24.382 61.6142C24.3687 61.3211 24.3687 61.0281 24.382 60.7351C24.3954 60.4421 24.4153 60.2156 24.442 60.0558Z" fill="url(#LinearGradient_4)" fill-rule="nonzero" opacity="1" stroke="none"/>
<path d="M21.6273 88.6855C21.7296 88.2171 21.641 87.9046 21.3616 87.7482C21.0822 87.5917 20.6042 87.4397 19.9275 87.2919C19.0686 87.1044 18.2607 86.9962 17.5035 86.9672C16.7464 86.9382 16.0025 86.9735 15.2719 87.073C14.5412 87.1725 13.7941 87.3162 13.0306 87.5039C12.267 87.6917 11.4624 87.9114 10.6168 88.163C10.3281 88.2363 9.99555 88.3546 9.61909 88.5178C9.24263 88.681 8.86108 88.8363 8.47445 88.9836C8.08782 89.131 7.70687 89.2523 7.33161 89.3476C6.95634 89.4429 6.62557 89.4593 6.33928 89.3968L7.28861 87.1092C7.51057 86.9668 7.88052 86.8022 8.39847 86.6153C8.91642 86.4285 9.45673 86.2329 10.0194 86.0285C10.5821 85.8242 11.1224 85.6286 11.6403 85.4417C12.1583 85.2549 12.5311 85.0773 12.7587 84.9088C13.2717 84.5573 13.8221 84.1594 14.4099 83.7151C14.9977 83.2709 15.5651 82.7949 16.1122 82.2872C16.6593 81.7796 17.1405 81.2302 17.5559 80.6392C17.9712 80.0483 18.2499 79.4275 18.3919 78.7768C18.4374 78.5686 18.4517 78.3468 18.4349 78.1114C18.4182 77.8759 18.3502 77.6566 18.231 77.4533C18.1117 77.2501 17.9204 77.0652 17.6568 76.8986C17.3932 76.7319 17.0403 76.6003 16.5978 76.5038C15.7129 76.3106 14.9532 76.356 14.3186 76.6401C13.684 76.9242 13.1358 77.343 12.6741 77.8966C12.2125 78.4502 11.8197 79.0938 11.4959 79.8275C11.1722 80.5611 10.8889 81.2968 10.646 82.0345C10.1851 82.3974 9.63727 82.7209 9.00266 83.0049C8.36805 83.289 7.79827 83.5259 7.29333 83.7156C7.26969 83.5741 7.25943 83.3401 7.26255 83.0136C7.26567 82.6871 7.28144 82.4588 7.30985 82.3286C7.53804 81.5332 7.92015 80.7509 8.45616 79.9818C8.99217 79.2127 9.63311 78.4937 10.379 77.8249C11.1248 77.1562 11.9454 76.5514 12.8405 76.0106C13.7356 75.4699 14.6514 75.0222 15.5877 74.6677C16.5239 74.3131 17.4412 74.0771 18.3393 73.9597C19.2375 73.8422 20.077 73.8687 20.8577 74.0392C21.6906 74.221 22.2675 74.5446 22.5885 75.0101C22.9095 75.4755 22.9762 76.1377 22.7887 76.9965C22.5671 78.0115 22.1529 78.9095 21.5462 79.6904C20.9394 80.4714 20.2414 81.171 19.452 81.7894C18.6626 82.4078 17.8268 82.9888 16.9447 83.5324C16.0625 84.076 15.2194 84.6281 14.4154 85.1887C15.4986 85.098 16.4915 85.0149 17.3941 84.9393C18.2968 84.8637 19.1873 84.8127 20.0655 84.7863C20.9438 84.7599 21.8512 84.7876 22.7877 84.8694C23.7241 84.9511 24.7389 85.1113 25.832 85.35C26.3525 85.4636 26.7704 85.7662 27.0857 86.2576C27.4011 86.7491 27.4905 87.3072 27.3542 87.9318C27.2235 88.5304 26.749 89.1425 25.9307 89.7682C25.1125 90.3939 24.1143 91.0008 22.9362 91.5888C21.758 92.1769 20.4693 92.7407 19.0699 93.2805C17.6706 93.8202 16.3296 94.3114 15.0469 94.7539C13.7642 95.1964 12.6055 95.5705 11.5708 95.8763C10.5361 96.1821 9.78494 96.4067 9.31739 96.55C8.76608 96.7023 8.08689 96.8471 7.27982 96.9845C6.47274 97.1218 5.69087 97.2374 4.9342 97.3312C4.17752 97.4251 3.52839 97.4947 2.9868 97.54C2.44521 97.5854 2.17441 97.608 2.17441 97.608L2.25112 97.2567C2.2568 97.2307 2.37062 97.1465 2.59257 97.004C2.81453 96.8616 3.07469 96.7003 3.37308 96.5201C3.67146 96.3398 3.97777 96.1545 4.292 95.964C4.60624 95.7736 4.85848 95.6174 5.04873 95.4953C5.45524 95.2569 6.12179 95.0139 7.04836 94.7663C7.97494 94.5187 9.01556 94.2482 10.1702 93.955C11.3249 93.6618 12.5401 93.3409 13.816 92.9923C15.0918 92.6437 16.2793 92.2622 17.3787 91.8479C18.478 91.4335 19.4124 90.9626 20.1819 90.4354C20.9514 89.9081 21.4332 89.3248 21.6273 88.6855Z" fill="url(#LinearGradient_5)" fill-rule="nonzero" opacity="1" stroke="none"/>
<path d="M25.6098 93.6093C25.6364 93.263 25.8029 92.8834 26.1092 92.4705C26.4156 92.0576 26.7819 91.6713 27.2081 91.3117C27.6343 90.9521 28.0805 90.6591 28.5467 90.4326C29.0128 90.2062 29.4058 90.093 29.7254 90.093C29.9385 90.093 30.0851 90.2062 30.165 90.4326C30.2449 90.6591 30.2982 90.9254 30.3248 91.2318C30.3514 91.5381 30.3514 91.8445 30.3248 92.1508C30.2982 92.4572 30.2848 92.7036 30.2848 92.89C30.2848 93.0765 30.2782 93.2164 30.2649 93.3096C30.2515 93.4028 30.2182 93.4828 30.165 93.5494C30.1117 93.6159 30.0318 93.6892 29.9252 93.7691C29.8187 93.849 29.6722 93.9689 29.4857 94.1287C29.2726 94.2619 28.9995 94.4484 28.6665 94.6882C28.3336 94.9279 28.0072 95.1677 27.6876 95.4074C27.3146 95.7004 26.9284 95.9935 26.5288 96.2865L25.8095 96.2865C25.7296 96.2865 25.6697 96.1733 25.6297 95.9468C25.5898 95.7204 25.5631 95.4607 25.5498 95.1677C25.5365 94.8746 25.5365 94.5816 25.5498 94.2886C25.5631 93.9955 25.5831 93.7691 25.6098 93.6093Z" fill="url(#LinearGradient_6)" fill-rule="nonzero" opacity="1" stroke="none"/>
</g>
<g opacity="1">
<path d="M2.38823 15.9109C2.99333 15.3427 3.70539 14.6051 4.52441 13.6983C5.34342 12.7916 6.1496 11.8311 6.94295 10.817C7.73629 9.80296 8.46371 8.78197 9.12519 7.75407C9.78668 6.72617 10.2699 5.77495 10.5749 4.90042L15.4646 2.39196C15.9978 3.29282 16.2875 4.18764 16.3338 5.07643C16.3801 5.96523 16.3162 6.81991 16.142 7.64047C15.9678 8.46103 15.7346 9.20875 15.4423 9.88363C15.1501 10.5585 14.9395 11.1004 14.8105 11.5094L15.6471 24.5102C16.6112 24.4308 17.434 24.3776 18.1157 24.3506C18.7974 24.3236 19.3977 24.3198 19.9165 24.3394C20.4354 24.3589 20.9308 24.4067 21.4028 24.4828C21.8747 24.559 22.3829 24.6604 22.9275 24.7872C23.0556 24.8171 23.148 24.8555 23.2046 24.9024C23.2612 24.9494 23.3152 25.0801 23.3665 25.2947L19.6556 28.179C18.4085 28.0237 17.1046 27.9311 15.7439 27.9013C14.3832 27.8714 13.0142 27.9494 11.637 28.1353C10.2599 28.3211 8.87073 28.6308 7.46964 29.0644C6.06855 29.4979 4.69181 30.0807 3.33943 30.8126C3.35435 30.7485 3.37804 30.6105 3.41051 30.3986C3.44298 30.1867 3.48532 29.9686 3.53754 29.7443C3.58975 29.5201 3.64625 29.3138 3.70702 29.1253C3.76779 28.9368 3.82165 28.8143 3.8686 28.7577C4.49609 28.0933 5.36995 27.4948 6.49021 26.9621C7.61047 26.4294 8.88957 25.9759 10.3275 25.6015C10.1761 23.6414 10.1008 17.6309 10.1017 15.9596C10.1026 14.2882 10.0607 13.0542 9.97596 12.2578C9.04439 13.3579 8.00334 14.3481 6.85281 15.2283C5.70228 16.1086 4.63556 16.9914 3.65265 17.877L2.25265 17.1457L2.38823 15.9109Z" fill="url(#LinearGradient_7)" fill-rule="nonzero" opacity="1" stroke="none"/>
<path d="M23.5209 22.7017C23.5476 22.3554 23.714 21.9758 24.0204 21.5629C24.3267 21.15 24.693 20.7637 25.1192 20.4041C25.5455 20.0445 25.9917 19.7515 26.4578 19.525C26.924 19.2986 27.3169 19.1854 27.6366 19.1854C27.8497 19.1854 27.9962 19.2986 28.0761 19.525C28.156 19.7515 28.2093 20.0178 28.236 20.3242C28.2626 20.6305 28.2626 20.9369 28.236 21.2432C28.2093 21.5496 28.196 21.796 28.196 21.9824C28.196 22.1689 28.1893 22.3088 28.176 22.402C28.1627 22.4952 28.1294 22.5752 28.0761 22.6418C28.0229 22.7084 27.9429 22.7816 27.8364 22.8615C27.7298 22.9414 27.5833 23.0613 27.3968 23.2211C27.1837 23.3543 26.9107 23.5408 26.5777 23.7806C26.2447 24.0203 25.9184 24.2601 25.5987 24.4998C25.2258 24.7928 24.8395 25.0859 24.4399 25.3789L23.7207 25.3789C23.6408 25.3789 23.5808 25.2657 23.5409 25.0392C23.5009 24.8128 23.4743 24.5531 23.461 24.2601C23.4477 23.967 23.4477 23.674 23.461 23.381C23.4743 23.088 23.4943 22.8615 23.5209 22.7017Z" fill="url(#LinearGradient_8)" fill-rule="nonzero" opacity="1" stroke="none"/>
<path d="M5.13789 60.0977C6.18619 59.3967 7.25887 58.6035 8.35594 57.7181C9.45301 56.8328 10.4675 55.8748 11.3994 54.8442C12.3313 53.8136 13.1404 52.7128 13.8267 51.5419C14.513 50.371 14.9728 49.1308 15.2062 47.8213C15.3995 46.7363 15.3556 45.8213 15.0745 45.0764C14.7933 44.3314 13.9738 43.8379 12.616 43.5959C11.9371 43.4749 11.377 43.4909 10.9358 43.6439C10.4947 43.7969 10.2107 44.2288 10.084 44.9397C9.99068 45.4635 9.99719 45.9183 10.1036 46.304C10.21 46.6896 10.3428 47.0608 10.5022 47.4173C10.6615 47.7738 10.8208 48.1303 10.9802 48.4868C11.1395 48.8434 11.2255 49.2544 11.2381 49.7198L7.03734 52.3876C6.54358 52.2996 6.17136 52.0209 5.92068 51.5516C5.67 51.0823 5.49437 50.5492 5.3938 49.9522C5.29323 49.3552 5.25 48.7492 5.26411 48.134C5.27821 47.5189 5.31861 47.0243 5.38528 46.6501C5.43863 46.3508 5.51512 46.0556 5.61475 45.7645C5.71438 45.4735 5.98665 45.107 6.43156 44.6652C6.87646 44.2233 7.5872 43.6744 8.56378 43.0185C9.54035 42.3626 10.9323 41.5201 12.7395 40.4911C13.2007 40.2259 13.8012 40.0723 14.5409 40.0304C15.2807 39.9886 15.9129 40.0144 16.4375 40.1079C17.8571 40.3609 18.8859 40.9303 19.5241 41.816C20.1622 42.7018 20.3746 43.7434 20.1612 44.9406C19.8878 46.4746 19.3169 47.9363 18.4484 49.3256C17.5799 50.715 16.5715 52.0408 15.4232 53.303C14.2749 54.5653 13.0467 55.7844 11.7387 56.9602C10.4306 58.1361 9.18827 59.2562 8.01158 60.3204L7.96157 60.601C9.21674 60.1684 10.5501 59.7884 11.9617 59.4609C13.3732 59.1334 14.8117 58.8783 16.2771 58.6955C17.7424 58.5127 19.1912 58.4235 20.6232 58.4278C22.0552 58.4321 23.4347 58.5525 24.7617 58.789C24.916 58.8165 25.0301 58.8465 25.1039 58.8789C25.1777 58.9114 25.2476 59.0107 25.3135 59.1768L20.7424 61.7786C18.2028 61.5576 16.0157 61.4573 14.1813 61.4778C12.3468 61.4983 10.704 61.6495 9.25281 61.9313C7.80162 62.2131 6.43239 62.6157 5.14513 63.139C3.85786 63.6623 2.47615 64.3136 1 65.0928C1.05163 64.4458 1.19023 63.8914 1.41578 63.4298C1.64133 62.9682 1.93737 62.5577 2.30388 62.1984C2.6704 61.8391 3.09697 61.5001 3.58359 61.1815C4.07021 60.8629 4.58831 60.5016 5.13789 60.0977Z" fill="url(#LinearGradient_9)" fill-rule="nonzero" opacity="1" stroke="none"/>
<path d="M24.442 60.0558C24.4686 59.7095 24.6351 59.3299 24.9415 58.917C25.2478 58.5041 25.6141 58.1178 26.0403 57.7582C26.4665 57.3986 26.9127 57.1056 27.3789 56.8791C27.8451 56.6527 28.238 56.5395 28.5577 56.5395C28.7708 56.5395 28.9173 56.6527 28.9972 56.8791C29.0771 57.1056 29.1304 57.3719 29.157 57.6783C29.1837 57.9846 29.1837 58.291 29.157 58.5973C29.1304 58.9037 29.1171 59.1501 29.1171 59.3365C29.1171 59.523 29.1104 59.6629 29.0971 59.7561C29.0838 59.8493 29.0505 59.9293 28.9972 59.9959C28.9439 60.0625 28.864 60.1357 28.7575 60.2156C28.6509 60.2955 28.5044 60.4154 28.3179 60.5752C28.1048 60.7084 27.8318 60.8949 27.4988 61.1347C27.1658 61.3744 26.8395 61.6142 26.5198 61.8539C26.1469 62.1469 25.7606 62.44 25.361 62.733L24.6418 62.733C24.5619 62.733 24.5019 62.6198 24.462 62.3933C24.422 62.1669 24.3954 61.9072 24.382 61.6142C24.3687 61.3211 24.3687 61.0281 24.382 60.7351C24.3954 60.4421 24.4153 60.2156 24.442 60.0558Z" fill="url(#LinearGradient_10)" fill-rule="nonzero" opacity="1" stroke="none"/>
<path d="M21.6273 88.6855C21.7296 88.2171 21.641 87.9046 21.3616 87.7482C21.0822 87.5917 20.6042 87.4397 19.9275 87.2919C19.0686 87.1044 18.2607 86.9962 17.5035 86.9672C16.7464 86.9382 16.0025 86.9735 15.2719 87.073C14.5412 87.1725 13.7941 87.3162 13.0306 87.5039C12.267 87.6917 11.4624 87.9114 10.6168 88.163C10.3281 88.2363 9.99555 88.3546 9.61909 88.5178C9.24263 88.681 8.86108 88.8363 8.47445 88.9836C8.08782 89.131 7.70687 89.2523 7.33161 89.3476C6.95634 89.4429 6.62557 89.4593 6.33928 89.3968L7.28861 87.1092C7.51057 86.9668 7.88052 86.8022 8.39847 86.6153C8.91642 86.4285 9.45673 86.2329 10.0194 86.0285C10.5821 85.8242 11.1224 85.6286 11.6403 85.4417C12.1583 85.2549 12.5311 85.0773 12.7587 84.9088C13.2717 84.5573 13.8221 84.1594 14.4099 83.7151C14.9977 83.2709 15.5651 82.7949 16.1122 82.2872C16.6593 81.7796 17.1405 81.2302 17.5559 80.6392C17.9712 80.0483 18.2499 79.4275 18.3919 78.7768C18.4374 78.5686 18.4517 78.3468 18.4349 78.1114C18.4182 77.8759 18.3502 77.6566 18.231 77.4533C18.1117 77.2501 17.9204 77.0652 17.6568 76.8986C17.3932 76.7319 17.0403 76.6003 16.5978 76.5038C15.7129 76.3106 14.9532 76.356 14.3186 76.6401C13.684 76.9242 13.1358 77.343 12.6741 77.8966C12.2125 78.4502 11.8197 79.0938 11.4959 79.8275C11.1722 80.5611 10.8889 81.2968 10.646 82.0345C10.1851 82.3974 9.63727 82.7209 9.00266 83.0049C8.36805 83.289 7.79827 83.5259 7.29333 83.7156C7.26969 83.5741 7.25943 83.3401 7.26255 83.0136C7.26567 82.6871 7.28144 82.4588 7.30985 82.3286C7.53804 81.5332 7.92015 80.7509 8.45616 79.9818C8.99217 79.2127 9.63311 78.4937 10.379 77.8249C11.1248 77.1562 11.9454 76.5514 12.8405 76.0106C13.7356 75.4699 14.6514 75.0222 15.5877 74.6677C16.5239 74.3131 17.4412 74.0771 18.3393 73.9597C19.2375 73.8422 20.077 73.8687 20.8577 74.0392C21.6906 74.221 22.2675 74.5446 22.5885 75.0101C22.9095 75.4755 22.9762 76.1377 22.7887 76.9965C22.5671 78.0115 22.1529 78.9095 21.5462 79.6904C20.9394 80.4714 20.2414 81.171 19.452 81.7894C18.6626 82.4078 17.8268 82.9888 16.9447 83.5324C16.0625 84.076 15.2194 84.6281 14.4154 85.1887C15.4986 85.098 16.4915 85.0149 17.3941 84.9393C18.2968 84.8637 19.1873 84.8127 20.0655 84.7863C20.9438 84.7599 21.8512 84.7876 22.7877 84.8694C23.7241 84.9511 24.7389 85.1113 25.832 85.35C26.3525 85.4636 26.7704 85.7662 27.0857 86.2576C27.4011 86.7491 27.4905 87.3072 27.3542 87.9318C27.2235 88.5304 26.749 89.1425 25.9307 89.7682C25.1125 90.3939 24.1143 91.0008 22.9362 91.5888C21.758 92.1769 20.4693 92.7407 19.0699 93.2805C17.6706 93.8202 16.3296 94.3114 15.0469 94.7539C13.7642 95.1964 12.6055 95.5705 11.5708 95.8763C10.5361 96.1821 9.78494 96.4067 9.31739 96.55C8.76608 96.7023 8.08689 96.8471 7.27982 96.9845C6.47274 97.1218 5.69087 97.2374 4.9342 97.3312C4.17752 97.4251 3.52839 97.4947 2.9868 97.54C2.44521 97.5854 2.17441 97.608 2.17441 97.608L2.25112 97.2567C2.2568 97.2307 2.37062 97.1465 2.59257 97.004C2.81453 96.8616 3.07469 96.7003 3.37308 96.5201C3.67146 96.3398 3.97777 96.1545 4.292 95.964C4.60624 95.7736 4.85848 95.6174 5.04873 95.4953C5.45524 95.2569 6.12179 95.0139 7.04836 94.7663C7.97494 94.5187 9.01556 94.2482 10.1702 93.955C11.3249 93.6618 12.5401 93.3409 13.816 92.9923C15.0918 92.6437 16.2793 92.2622 17.3787 91.8479C18.478 91.4335 19.4124 90.9626 20.1819 90.4354C20.9514 89.9081 21.4332 89.3248 21.6273 88.6855Z" fill="url(#LinearGradient_11)" fill-rule="nonzero" opacity="1" stroke="none"/>
<path d="M25.6098 93.6093C25.6364 93.263 25.8029 92.8834 26.1092 92.4705C26.4156 92.0576 26.7819 91.6713 27.2081 91.3117C27.6343 90.9521 28.0805 90.6591 28.5467 90.4326C29.0128 90.2062 29.4058 90.093 29.7254 90.093C29.9385 90.093 30.0851 90.2062 30.165 90.4326C30.2449 90.6591 30.2982 90.9254 30.3248 91.2318C30.3514 91.5381 30.3514 91.8445 30.3248 92.1508C30.2982 92.4572 30.2848 92.7036 30.2848 92.89C30.2848 93.0765 30.2782 93.2164 30.2649 93.3096C30.2515 93.4028 30.2182 93.4828 30.165 93.5494C30.1117 93.6159 30.0318 93.6892 29.9252 93.7691C29.8187 93.849 29.6722 93.9689 29.4857 94.1287C29.2726 94.2619 28.9995 94.4484 28.6665 94.6882C28.3336 94.9279 28.0072 95.1677 27.6876 95.4074C27.3146 95.7004 26.9284 95.9935 26.5288 96.2865L25.8095 96.2865C25.7296 96.2865 25.6697 96.1733 25.6297 95.9468C25.5898 95.7204 25.5631 95.4607 25.5498 95.1677C25.5365 94.8746 25.5365 94.5816 25.5498 94.2886C25.5631 93.9955 25.5831 93.7691 25.6098 93.6093Z" fill="url(#LinearGradient_12)" fill-rule="nonzero" opacity="1" stroke="none"/>
</g>
</g>
<g opacity="1">
<path d="M99 19.964C99 17.0991 96.6776 14.7766 93.8127 14.7766L40.1573 14.7766C37.2924 14.7766 34.97 17.0991 34.97 19.964L34.97 20.469C34.97 23.3338 37.2924 25.6563 40.1573 25.6563L93.8127 25.6563C96.6776 25.6563 99 23.3338 99 20.469L99 19.964Z" fill="url(#LinearGradient_13)" fill-rule="nonzero" opacity="1" stroke="none"/>
<path d="M99 53.8292C99 50.9643 96.6776 48.6419 93.8127 48.6419L40.1573 48.6419C37.2924 48.6419 34.97 50.9643 34.97 53.8292L34.97 54.3342C34.97 57.1991 37.2924 59.5215 40.1573 59.5215L93.8127 59.5215C96.6776 59.5215 99 57.1991 99 54.3342L99 53.8292Z" fill="url(#LinearGradient_14)" fill-rule="nonzero" opacity="1" stroke="none"/>
<path d="M99 87.6944C99 84.8296 96.6776 82.5071 93.8127 82.5071L40.1573 82.5071C37.2924 82.5071 34.97 84.8296 34.97 87.6944L34.97 88.1994C34.97 91.0643 37.2924 93.3867 40.1573 93.3867L93.8127 93.3867C96.6776 93.3867 99 91.0643 99 88.1994L99 87.6944Z" fill="url(#LinearGradient_15)" fill-rule="nonzero" opacity="1" stroke="none"/>
</g>
</g>
</g>
</svg>
