<?xml version="1.0" encoding="UTF-8" standalone="no"?>
<!DOCTYPE svg PUBLIC "-//W3C//DTD SVG 1.1//EN" "http://www.w3.org/Graphics/SVG/1.1/DTD/svg11.dtd">
<!-- Created with Vectornator (http://vectornator.io/) -->
<svg height="100%" stroke-miterlimit="10" style="fill-rule:nonzero;clip-rule:evenodd;stroke-linecap:round;stroke-linejoin:round;" version="1.1" viewBox="14.1642 0 71.6716 100" width="100%" xml:space="preserve" xmlns="http://www.w3.org/2000/svg" xmlns:vectornator="http://vectornator.io" xmlns:xlink="http://www.w3.org/1999/xlink">
<defs>
<linearGradient gradientTransform="matrix(44.5933 -0.401588 0.401588 44.5933 39.9357 15.5411)" gradientUnits="userSpaceOnUse" id="LinearGradient" x1="0" x2="1" y1="0" y2="0">
<stop offset="0" stop-color="#ff0071"/>
<stop offset="0.455263" stop-color="#df0062"/>
<stop offset="1" stop-color="#e6001e"/>
</linearGradient>
<linearGradient gradientTransform="matrix(29.6702 -1.9142 1.9142 29.6702 60.4141 14.8198)" gradientUnits="userSpaceOnUse" id="LinearGradient_2" x1="0" x2="1" y1="0" y2="0">
<stop offset="0" stop-color="#ff0071"/>
<stop offset="0.455263" stop-color="#df0062"/>
<stop offset="1" stop-color="#e6001e"/>
</linearGradient>
<linearGradient gradientTransform="matrix(-63.3579 -37.0924 -37.0924 63.3579 68.9417 68.2089)" gradientUnits="userSpaceOnUse" id="LinearGradient_3" x1="0" x2="1" y1="0" y2="0">
<stop offset="0" stop-color="#ababab" stop-opacity="0.82"/>
<stop offset="0.496053" stop-color="#dfdfdf"/>
<stop offset="1" stop-color="#ffffff"/>
</linearGradient>
<linearGradient gradientTransform="matrix(-30.5661 -22.1314 -22.6734 29.8354 73.5795 101.232)" gradientUnits="userSpaceOnUse" id="LinearGradient_4" x1="0" x2="1" y1="0" y2="0">
<stop offset="0" stop-color="#00e668"/>
<stop offset="0.277632" stop-color="#00d963"/>
<stop offset="1" stop-color="#008039"/>
</linearGradient>
<linearGradient gradientTransform="matrix(-38.7499 -9.97946 -14.1368 38.7499 78.8375 79.1006)" gradientUnits="userSpaceOnUse" id="LinearGradient_5" x1="0" x2="1" y1="0" y2="0">
<stop offset="0" stop-color="#ababab" stop-opacity="0.82"/>
<stop offset="0.496053" stop-color="#dfdfdf"/>
<stop offset="1" stop-color="#ffffff"/>
</linearGradient>
<linearGradient gradientTransform="matrix(-1.60247 -27.6998 19.5529 -1.60247 63.8136 92.7673)" gradientUnits="userSpaceOnUse" id="LinearGradient_6" x1="0" x2="1" y1="0" y2="0">
<stop offset="0" stop-color="#ababab" stop-opacity="0.82"/>
<stop offset="0.496053" stop-color="#dfdfdf"/>
<stop offset="1" stop-color="#ffffff"/>
</linearGradient>
</defs>
<g id="Layer">
<g opacity="1">
<g opacity="1">
<path d="M47.4102 10.3894L76.2844 10.3894L76.2844 18.7009L49.4881 18.7009L47.4102 10.3894Z" fill="url(#LinearGradient)" fill-rule="nonzero" opacity="0.908291" stroke="none"/>
<path d="M83.2086 13.1422C84.0574 13.8849 84.0574 15.2054 83.2086 15.9481L71.2807 26.385C70.0754 27.4397 68.189 26.5837 68.189 24.9821L68.189 4.10822C68.189 2.5066 70.0754 1.65061 71.2807 2.70528L83.2086 13.1422Z" fill="url(#LinearGradient_2)" fill-rule="nonzero" opacity="1" stroke="none"/>
</g>
<path d="M47.4102 10.3894L22.4757 10.3894C17.9044 10.3894 14.1642 14.1296 14.1642 18.7009L14.1642 81.0372C14.1642 85.6085 17.9044 89.3487 22.4757 89.3487L47.4102 89.3487C51.9815 89.3487 55.7217 85.6085 55.7217 81.0372L55.7217 18.7009C55.7217 14.1296 51.9815 10.3894 47.4102 10.3894ZM22.4757 81.0372L22.4757 18.7009L47.4102 18.7009L47.4102 81.0372L22.4757 81.0372Z" fill="url(#LinearGradient_3)" fill-rule="nonzero" opacity="1" stroke="none"/>
<g opacity="1">
<path d="M64.4353 58.1906C52.6102 58.1906 43.0028 67.5689 43.0028 79.1113C43.0028 90.6537 52.6102 100 64.4353 100C76.2604 100 85.8358 90.6537 85.8358 79.1113C85.8358 67.5689 76.2604 58.1906 64.4353 58.1906ZM63.9235 64.1725C66.232 64.1725 68.082 66.0546 68.082 68.363L68.082 74.9208L74.6717 74.9208C76.9802 74.9208 78.8303 76.8028 78.8303 79.1113C78.8303 81.4198 76.9802 83.2698 74.6717 83.2698L68.082 83.2698L68.082 89.8595C68.082 92.168 66.2319 94.0181 63.9235 94.0181C61.615 94.0181 59.7329 92.168 59.7329 89.8595L59.7329 83.2698L53.1752 83.2698C50.8667 83.2698 48.9847 81.4198 48.9847 79.1113C48.9847 76.8028 50.8667 74.9208 53.1752 74.9208L59.7329 74.9208L59.7329 68.363C59.7329 66.0546 61.615 64.1725 63.9235 64.1725Z" fill="url(#LinearGradient_4)" fill-rule="nonzero" opacity="1" stroke="none"/>
<path d="M78.8375 79.1006C78.8375 76.7921 76.9661 74.9208 74.6576 74.9208L53.168 74.9208C50.8595 74.9208 48.9881 76.7921 48.9881 79.1006L48.9881 79.1006C48.9881 81.4091 50.8595 83.2805 53.168 83.2805L74.6576 83.2805C76.9661 83.2805 78.8375 81.4091 78.8375 79.1006L78.8375 79.1006Z" fill="url(#LinearGradient_5)" fill-rule="nonzero" opacity="1" stroke="none"/>
<path d="M59.7329 68.3554C59.7329 66.0469 61.6043 64.1755 63.9128 64.1755L63.9128 64.1755C66.2213 64.1755 68.0927 66.0469 68.0927 68.3554L68.0927 89.8458C68.0927 92.1543 66.2213 94.0257 63.9128 94.0257L63.9128 94.0257C61.6043 94.0257 59.7329 92.1543 59.7329 89.8458L59.7329 68.3554Z" fill="url(#LinearGradient_6)" fill-rule="nonzero" opacity="1" stroke="none"/>
</g>
</g>
</g>
</svg>
