<svg id="ArchiveColumn" viewBox="0 0 100 100" width="100%" height="100%" stroke-miterlimit="10" style="fill:#f8ebe2;fill-rule:nonzero;clip-rule:evenodd;opacity:1;stroke:none;stroke-linecap:round;stroke-linejoin:round;" version="1.1" xml:space="preserve" xmlns="http://www.w3.org/2000/svg" xmlns:xlink="http://www.w3.org/1999/xlink"><path d="M17.375 2.9375C9.02597 2.9375 2.25 9.85585 2.25 18.375C2.25001 26.8942 9.02598 33.7813 17.375 33.7812C25.724 33.7812 32.5 26.8942 32.5 18.375L33.0625 42.375L26.9375 42.375L26.9375 50.6875L33.0625 50.6875L32.8125 100L91 100L91 50.6875L96 50.6875L100 50.6875L100 42.375L96 42.375L91 42.375L91 18.375L99.9062 18.375L99.9062 2.9375L17.375 2.9375Z"/><g style="fill:none;stroke:#35393b;stroke-linecap:butt;stroke-linejoin:round;"><path opacity="0.4" stroke-width="0.740817" d="M18.5625 0.375C16.6016 0.375 12.7812 1.25 12.7812 1.25C10.1317 2.02523 7.92596 3.3353 6.09375 4.96875C-2.21427 12.3755-1.93742 26.9158 8.84375 33.4062C14.2544 36.6635 21.5997 36.745 26.7813 33.625C29.7893 31.8134 29.7626 31.7899 29.625 35.9062C29.5433 38.3486 29.4702 39.1149 29.0938 39.5625C28.925 39.7632 28.7208 39.9039 28.375 40.0937C27.6783 40.4764 27.0961 40.8597 26.5938 41.25C24.9434 42.5322 24.2813 43.9463 24.2813 45.9688C24.2813 49.454 26.2564 52.1686 29.0938 52.625C29.8651 52.7492 30.8521 52.9368 31.3125 53.0312L32.1562 53.1875L32.1562 100L36.4688 100L36.8125 64.9688C36.8255 63.6672 37.4717 62.4073 38.4063 61.5C39.1411 60.7865 40.039 60.2812 41.0625 60.2812C43.3898 60.2812 45.2924 62.6728 45.3125 65L45.5938 100L49.9688 100L50.25 72.7188C50.2643 71.4009 50.926 70.0484 51.875 69.0625C52.1538 68.7105 52.4958 68.4745 52.8438 68.2188C53.3468 67.9337 53.9191 67.75 54.5 67.75L54.5938 67.75C56.9199 67.75 58.822 70.3928 58.8438 72.7188L59.0938 100L63.7188 100L63.9375 80C63.9526 78.6776 64.5771 77.3604 65.5 76.4062C66.198 75.6846 67.0623 75.1563 68.0625 75.1562L68.25 75.1562C70.5753 75.1563 72.602 77.6749 72.625 80L72.7188 91C72.7187 91.3434 72.7188 93.1875 72.7188 93.1875C72.7187 93.2297 72.7479 93.2701 72.75 93.3125L72.75 93.4375C72.7522 93.6558 72.8184 93.8306 72.875 94.0312C72.8937 94.0935 72.8838 94.1575 72.9063 94.2188C72.9699 94.391 73.057 94.5677 73.1562 94.7188C73.581 95.4727 74.2901 96.0625 75.0938 96.0625L75.2188 96.0625C75.7279 96.0625 76.1878 95.7722 76.5625 95.4062C76.8052 95.1692 77.0234 94.9095 77.1875 94.5938C77.2538 94.4813 77.3274 94.3733 77.375 94.25C77.4477 94.0582 77.4658 93.8864 77.5 93.6875C77.5097 93.6037 77.5616 93.5237 77.5625 93.4375L77.5625 93.375C77.5668 93.3131 77.5938 93.2489 77.5938 93.1875C77.5938 93.1875 77.5938 90.5971 77.5938 89.8438L77.625 87.4375C77.6381 86.1237 78.2755 84.7816 79.2188 83.8125C79.9447 83.0666 80.8325 82.5 81.8438 82.5L81.9375 82.5C84.2617 82.5 86.163 85.1135 86.1875 87.4375L86.3125 100L100 100L100 0.375C76.5944 0.375 18.5625 0.375 18.5625 0.375ZM58.5938 3.5625C77.8949 3.60775 96.7043 3.9562 97.3438 4.375C99.837 6.00904 100.022 9.44637 98.125 11.3437C97.7738 11.695 97.3684 11.9947 96.875 12.2188C96.21 12.5207 85.2259 12.7106 58.3125 12.8438C58.3125 12.8438 33.018 13.1377 23.25 13.0312C21.8073 13.0155 20.1709 13.5697 18.875 14.625C18.3597 15.0447 17.8881 15.512 17.5312 16.0938C16.5323 17.7221 15.0062 21.3717 17.0625 22.7187C17.9401 23.2936 18.854 23.0958 19.375 22.3437C19.5403 22.1052 19.6717 21.8169 19.75 21.4687C20.2884 19.0755 20.6008 17.8506 21.625 17.2187C22.6357 16.5952 24.3394 16.5625 27.5625 16.5625L31.9063 16.5625L31.6875 19C31.378 22.8548 29.7951 25.8276 27.5312 27.9062C20.4609 34.3982 6.72589 32.1102 4.21875 20.2187C3.39147 16.2949 4.66645 12.22 8.0625 9.125C11.2826 6.19029 16.4037 4.1222 23.5938 3.90625C31.5387 3.66741 45.1911 3.53108 58.5938 3.5625ZM69.7188 26.1875L70.0938 26.1875L77.25 26.2812L84.7813 26.4062L84.9062 27.9687L85 29.25L85.0312 29.5625L82.2812 29.5625C79.9408 29.5625 77.8982 30.3277 76.5625 31.4375C75.0984 32.654 74.4831 34.2743 75.3438 35.8125C76.1222 37.2044 77.4369 37.3029 78.25 36.3438C78.5145 36.0318 78.7275 35.6228 78.8438 35.0937C78.9652 34.5407 79.261 34.1644 79.625 33.875C80.2576 33.372 81.2062 33.2238 82.625 33.5C84.6301 33.8905 84.877 34.3329 84.9375 37.8438L84.9688 39.6562L84.9688 39.9688L77.3438 39.9688L69.7188 39.9688L69.7188 33.0937L69.7188 26.1875ZM51.875 26.2187L52.25 26.2187L58.7188 26.2187L65.5312 26.2187L65.7812 27.3437C65.9911 28.3935 65.9825 29.0586 65.75 29.4687C65.4601 29.9802 64.7876 30.0954 63.4688 30C61.031 29.8235 59.1309 30.3145 57.8438 31.3437C56.9588 32.0513 56.3525 33.0058 56.125 34.2187C55.6044 36.9934 57.8151 38.2687 59.1875 36.5625C59.3712 36.3342 59.5422 36.0579 59.6875 35.7188C60.0086 34.9698 60.4172 34.4987 60.8438 34.125C63.0281 32.2115 66.1193 34.8752 65.6875 39.4062C65.684 39.4432 65.6915 39.4628 65.6875 39.5C65.6496 39.8533 63.9799 39.9687 58.75 39.9688L51.875 39.9688L51.875 33.0937L51.875 26.2187ZM41.0625 26.2812L47.9688 26.4062L47.9688 28.0312L47.9688 29.3437L47.9688 29.6875L45.5 29.5937C43.3799 29.5169 41.7147 29.9467 40.5625 30.7812C39.3832 31.6354 38.7549 32.911 38.7188 34.625C38.6695 36.958 40.2905 37.6889 41.5625 36.4375C41.8452 36.1594 42.1201 35.7909 42.3438 35.3125C42.6461 34.6656 43.0428 34.2274 43.4375 33.875C45.3194 32.1947 47.8865 33.7035 48.0938 37.375L48.2188 39.6562L48.25 39.9688L40.9375 39.9688L33.6562 39.9688L33.6562 33.3438C33.6563 29.6956 33.7656 26.6097 33.9062 26.4687C33.9173 26.4577 34.2023 26.4477 34.25 26.4375C34.8104 26.3175 37.5638 26.2298 41.0625 26.2812ZM62.1875 44.0625L93.9062 44.0625L93.9062 45.0938C93.905 46.1346 93.2502 47.3568 92.375 48.2188C91.985 48.6029 91.5762 48.9053 91.125 49.0938C89.5663 49.745 31.4392 49.9236 29.75 49.2812C27.8969 48.5767 27.6972 45.9753 29.2188 44.8125C29.3364 44.7225 29.4551 44.602 29.5938 44.5312C30.2874 44.1772 37.7674 44.0666 62.1875 44.0625Z"/><path opacity="0.3" stroke-width="1.48163" d="M18.875 0.15625C16.9141 0.15625 13.0937 1.03125 13.0938 1.03125C-1.56983 5.32169-4.0338 25.2657 9.125 33.1875C14.5357 36.4448 21.9122 36.5263 27.0938 33.4062C30.1018 31.5946 30.0439 31.5711 29.9063 35.6875C29.788 39.2248 29.8044 39.2617 28.6875 39.875C25.7017 41.5148 24.5938 43.112 24.5938 45.75C24.5938 49.2352 26.5376 51.9499 29.375 52.4062C30.1464 52.5305 31.1646 52.718 31.625 52.8125L32.4375 52.9688L32.4375 100L36.7812 100L37.125 64.75C37.1482 62.4251 39.0499 60.0625 41.375 60.0625C43.7023 60.0625 45.6049 62.4541 45.625 64.7812L45.9375 100L50.25 100L50.5625 72.5312C50.5876 70.2077 52.4575 67.5313 54.7813 67.5312L54.9063 67.5312C57.2324 67.5313 59.1345 70.2052 59.1562 72.5312L59.4063 100L64.0312 100L64.25 79.8125C64.2766 77.49 66.0211 74.9375 68.3438 74.9375L68.5312 74.9375C70.8565 74.9375 72.8832 77.4874 72.9063 79.8125L73.0312 90.7812C73.0312 91.1247 73.0312 92.9687 73.0312 92.9688C73.0312 93.0109 73.0292 93.0513 73.0312 93.0938L73.0312 93.2188C73.0334 93.4371 73.0997 93.6119 73.1562 93.8125C73.1749 93.8748 73.1963 93.9387 73.2188 94C73.2824 94.1722 73.3694 94.3489 73.4688 94.5C73.8935 95.254 74.5713 95.8437 75.375 95.8438L75.5312 95.8438C76.3702 95.8437 77.0826 95.1782 77.5 94.375C77.5663 94.2625 77.6399 94.1545 77.6875 94.0312C77.7602 93.8394 77.7783 93.6677 77.8125 93.4688C77.8222 93.385 77.8741 93.305 77.875 93.2188L77.875 93.1562C77.8793 93.0944 77.9062 93.0302 77.9062 92.9688C77.9063 92.9688 77.9062 90.3784 77.9062 89.625L77.9062 87.2188C77.9295 84.8938 79.8312 82.3125 82.1562 82.3125L82.25 82.3125C84.5742 82.3125 86.4755 84.8947 86.5 87.2188L86.625 100L100 100L100 0.15625C76.3705 0.15625 18.875 0.15625 18.875 0.15625ZM58.9063 3.34375C78.2074 3.389 97.0168 3.73745 97.6562 4.15625C100.611 6.09282 100.346 10.5659 97.1875 12C96.5225 12.302 85.5384 12.4919 58.625 12.625C58.625 12.625 33.3305 12.919 23.5625 12.8125C21.546 12.7905 19.0668 13.8304 17.8125 15.875C16.8136 17.5033 15.3187 21.1529 17.375 22.5C18.5309 23.2572 19.7062 22.696 20.0313 21.25C21.1009 16.495 21.3545 16.3438 27.8438 16.3437L32.1875 16.3437L32 18.7812C30.724 34.6751 7.84111 35.699 4.53125 20C2.91955 12.3555 9.13333 4.1312 23.9063 3.6875C31.8512 3.44866 45.5036 3.31233 58.9063 3.34375ZM70.0312 25.9687L77.5625 26.0625L85.0938 26.1875L85.2188 27.7812L85.3125 29.3437L82.5625 29.3437C77.6566 29.3438 73.9793 32.6523 75.625 35.5938C76.6567 37.4385 78.6828 37.0306 79.1563 34.875C79.4887 33.3609 80.7022 32.8461 82.9375 33.2812C84.9426 33.6718 85.1894 34.1141 85.25 37.625L85.2812 39.75L77.6562 39.75L70.0312 39.75L70.0312 32.875L70.0312 25.9687ZM52.1875 26L59 26L65.8438 26L66.0625 27.1562C66.5341 29.515 66.1578 29.9531 63.7813 29.7812C59.6675 29.4833 56.9957 31.0228 56.4375 34C55.8473 37.146 58.7373 38.3731 59.9688 35.5C61.9474 30.8845 66.5586 33.7932 65.9688 39.2812C65.9308 39.6346 64.2924 39.75 59.0625 39.75L52.1875 39.75L52.1875 32.875L52.1875 26ZM41.375 26.0625L48.2813 26.1875L48.2813 27.8125L48.2813 29.4687L45.8125 29.375C41.5224 29.2195 39.0714 31.049 39 34.4375C38.9398 37.289 41.4263 37.7251 42.6562 35.0937C44.4005 31.3623 48.1556 32.7148 48.4062 37.1562L48.5312 39.75L41.25 39.75L33.9688 39.75L33.9688 33.125C33.9688 29.4769 34.0782 26.391 34.2188 26.25C34.3593 26.1094 37.5781 26.0067 41.375 26.0625ZM62.5 43.8438L94.2188 43.8438L94.2188 44.875C94.2169 46.3798 92.8698 48.2948 91.4062 48.9062C89.8476 49.5575 31.7517 49.7048 30.0625 49.0625C28.066 48.3034 27.9749 45.2977 29.9063 44.3125C30.5999 43.9584 38.0799 43.8478 62.5 43.8438Z"/><path opacity="0.2" stroke-width="2.22245" d="M19.25 0.03125C17.2891 0.03125 13.4687 0.9375 13.4688 0.9375C-1.19483 5.22794-3.6588 25.1407 9.5 33.0625C14.9107 36.3198 22.256 36.4325 27.4375 33.3125C30.4456 31.5009 30.4189 31.4774 30.2813 35.5938C30.163 39.1311 30.1481 39.1679 29.0313 39.7812C26.0455 41.421 24.9375 42.987 24.9375 45.625C24.9375 49.1102 26.9126 51.8249 29.75 52.2812C30.5214 52.4055 31.5396 52.593 32 52.6875L32.8125 52.875L32.8125 100L37.125 100L37.5 64.6562C37.5232 62.3313 39.4249 59.9375 41.75 59.9375C44.0773 59.9375 45.9799 62.3291 46 64.6562L46.3125 100L50.625 100L50.9375 72.4062C50.9626 70.0827 52.8325 67.4375 55.1562 67.4375L55.2813 67.4375C57.6074 67.4375 59.4783 70.0802 59.5 72.4062L59.7813 100L64.375 100L64.625 79.6875C64.6516 77.365 66.3961 74.8125 68.7188 74.8125L68.9062 74.8125C71.2315 74.8125 73.2582 77.3624 73.2813 79.6875L73.4062 90.6562C73.4062 90.9997 73.4063 92.875 73.4062 92.875C73.4062 92.9172 73.4042 92.9576 73.4062 93L73.4062 93.0938C73.4084 93.3121 73.4747 93.5181 73.5312 93.7188C73.5499 93.781 73.5713 93.845 73.5938 93.9062C73.6574 94.0785 73.7444 94.2239 73.8438 94.375C74.2685 95.129 74.9463 95.7188 75.75 95.7188L75.9062 95.7188C76.7452 95.7187 77.4576 95.0844 77.875 94.2812C77.9413 94.1688 78.0149 94.0608 78.0625 93.9375C78.1352 93.7457 78.1533 93.5427 78.1875 93.3438C78.1972 93.26 78.2179 93.1799 78.2188 93.0938L78.2188 93.0625C78.223 93.0006 78.25 92.9364 78.25 92.875C78.25 92.875 78.2499 90.2534 78.25 89.5L78.2812 87.0938C78.3045 84.7688 80.175 82.1875 82.5 82.1875L82.625 82.1875C84.9492 82.1875 86.8505 84.7697 86.875 87.0938L87 100L100 100L100 8.4375C99.8209 9.86872 99.04 11.2041 97.5625 11.875C96.8975 12.177 85.9135 12.3669 59 12.5C59 12.5 33.7055 12.794 23.9375 12.6875C21.921 12.6655 19.4418 13.7367 18.1875 15.7812C17.1886 17.4096 15.6937 21.0279 17.75 22.375C18.9059 23.1322 20.0812 22.571 20.4062 21.125C21.4759 16.37 21.7295 16.2188 28.2188 16.2188L32.5625 16.2188L32.375 18.6562C31.099 34.5501 8.21611 35.574 4.90625 19.875C3.29455 12.2305 9.50833 4.03745 24.2813 3.59375C32.2262 3.35491 45.8786 3.18733 59.2813 3.21875C78.5824 3.264 97.3918 3.61245 98.0312 4.03125C99.3571 4.90016 99.9425 6.29997 100 7.6875L100 0.03125C76.0849 0.03125 19.25 0.03125 19.25 0.03125ZM52.5312 25.875L59.375 25.875L66.2188 25.875L66.4375 27.0312C66.9091 29.39 66.5328 29.8593 64.1562 29.6875C60.0425 29.3896 57.3395 30.9291 56.7813 33.9062C56.191 37.0523 59.1123 38.2793 60.3438 35.4062C62.3224 30.7908 66.9336 33.6995 66.3438 39.1875C66.3058 39.5408 64.6674 39.6562 59.4375 39.6562L52.5312 39.6562L52.5312 32.75L52.5312 25.875ZM70.4062 25.875L77.9375 25.9687L85.4688 26.0625L85.5938 27.6562L85.6875 29.2187L82.9375 29.2187C78.0316 29.2188 74.3543 32.5585 76 35.5C77.0317 37.3447 79.0578 36.9056 79.5313 34.75C79.8637 33.2359 81.0772 32.7211 83.3125 33.1562C85.3176 33.5468 85.5644 33.9891 85.625 37.5L85.6562 39.6562L78.0312 39.6562L70.4062 39.6562L70.4062 32.75L70.4062 25.875ZM41.7188 25.9687L48.6563 26.0625L48.6563 27.7187L48.6563 29.3437L46.1875 29.2812C41.8974 29.1258 39.4464 30.924 39.375 34.3125C39.3148 37.164 41.8013 37.6313 43.0312 35C44.7755 31.2685 48.5306 32.5898 48.7813 37.0312L48.9062 39.6562L41.625 39.6562L34.3125 39.6562L34.3125 33C34.3125 29.3519 34.4532 26.266 34.5938 26.125C34.7343 25.9844 37.9218 25.913 41.7188 25.9687ZM94.5625 43.7188L94.5625 44.75C94.5606 46.2548 93.2448 48.1698 91.7812 48.7812C90.2226 49.4325 32.1267 49.6111 30.4375 48.9688C28.441 48.2097 28.3186 45.204 30.25 44.2187C30.9436 43.8647 38.4549 43.7541 62.875 43.75L94.5625 43.7188Z"/><path opacity="0.1" stroke-width="3.51888" d="M19.3125-7.10543e-15C17.3516-2.13163e-14 13.5312 0.90625 13.5313 0.90625C-1.13233 5.19669-3.56505 25.1094 9.59375 33.0312C15.0044 36.2885 22.3497 36.4013 27.5312 33.2812C30.5393 31.4696 30.5126 31.4461 30.375 35.5625C30.2567 39.0998 30.2419 39.1367 29.125 39.75C26.1392 41.3898 25.0313 42.9557 25.0313 45.5937C25.0313 49.079 26.9751 51.7937 29.8125 52.25C30.5839 52.3742 31.6021 52.5618 32.0625 52.6562L32.9062 52.8438L32.9062 100L37.2188 100L37.5625 64.625C37.5857 62.3001 39.4874 59.9062 41.8125 59.9062C44.1398 59.9062 46.0424 62.2978 46.0625 64.625L46.375 100L50.7188 100L51 72.375C51.0251 70.0514 52.9263 67.4063 55.25 67.4062L55.3438 67.4062C57.6699 67.4063 59.572 70.049 59.5938 72.375L59.8438 100L64.4688 100L64.6875 79.6562C64.7141 77.3337 66.4898 74.7812 68.8125 74.7812L69 74.7812C71.3253 74.7813 73.352 77.3311 73.375 79.6562L73.4688 90.625C73.4687 90.9684 73.4687 92.8437 73.4688 92.8438C73.4687 92.8859 73.498 92.9263 73.5 92.9688L73.5 93.0625C73.5022 93.2808 73.5684 93.4869 73.625 93.6875C73.6437 93.7498 73.6338 93.8137 73.6562 93.875C73.7199 94.0472 73.8069 94.1927 73.9062 94.3438C74.331 95.0977 75.0088 95.6875 75.8125 95.6875L75.9688 95.6875C76.8077 95.6875 77.5201 95.0219 77.9375 94.2188C78.0038 94.1063 78.0774 94.0295 78.125 93.9062C78.1977 93.7144 78.2158 93.5114 78.25 93.3125C78.2597 93.2287 78.3116 93.1487 78.3125 93.0625L78.3125 93.0312C78.3168 92.9694 78.3437 92.9052 78.3438 92.8438C78.3438 92.8438 78.3437 90.2221 78.3438 89.4688L78.375 87.0625C78.3982 84.7375 80.2687 82.1562 82.5938 82.1562L82.6875 82.1562C85.0117 82.1562 86.913 84.7385 86.9375 87.0625L87.0625 100L100 100L100 8.59375C99.7693 9.94744 99.0325 11.2046 97.625 11.8438C96.96 12.1457 85.9759 12.3356 59.0625 12.4687C59.0625 12.4688 33.768 12.7627 24 12.6562C21.9835 12.6343 19.5043 13.6742 18.25 15.7187C17.2511 17.3471 15.7562 20.9967 17.8125 22.3437C18.9684 23.101 20.1749 22.5398 20.5 21.0937C21.5696 16.3388 21.8233 16.1875 28.3125 16.1875L32.625 16.1875L32.4375 18.625C31.1615 34.5189 8.27861 35.5427 4.96875 19.8437C3.35705 12.1993 9.57083 3.97494 24.3438 3.53125C32.2887 3.29241 45.9411 3.15608 59.3438 3.1875C78.6449 3.23275 97.4544 3.5812 98.0938 4C99.3081 4.79583 99.8518 6.04603 100 7.3125L100-7.10543e-15L19.3125-7.10543e-15ZM52.625 25.8437L59.4688 25.8437L66.2812 25.8437L66.5312 27C67.0029 29.3587 66.5953 29.8281 64.2188 29.6562C60.105 29.3583 57.4332 30.8666 56.875 33.8437C56.2848 36.9898 59.1748 38.2481 60.4062 35.375C62.3849 30.7595 67.0274 33.6682 66.4375 39.1562C66.3996 39.5096 64.7299 39.625 59.5 39.625L52.625 39.625L52.625 32.7188L52.625 25.8437ZM70.4688 25.8437L78 25.9375L85.5312 26.0312L85.6562 27.625L85.7813 29.1875L83 29.1875C78.0941 29.1875 74.448 32.5273 76.0938 35.4688C77.1255 37.3135 79.1203 36.8744 79.5938 34.7188C79.9262 33.2047 81.1397 32.6899 83.375 33.125C85.3801 33.5155 85.6269 33.9579 85.6875 37.4688L85.7188 39.625L78.0938 39.625L70.4688 39.625L70.4688 32.7188L70.4688 25.8437ZM41.8125 25.9375L48.7188 26.0312L48.7188 27.6875L48.7188 29.3125L46.25 29.25C41.9599 29.0945 39.5402 30.8927 39.4688 34.2812C39.4085 37.1327 41.8638 37.6001 43.0938 34.9687C44.838 31.2373 48.5931 32.5586 48.8438 37L48.9688 39.625L41.6875 39.625L34.4062 39.625L34.4062 32.9688C34.4063 29.3206 34.5157 26.2347 34.6562 26.0937C34.7968 25.9532 38.0156 25.8817 41.8125 25.9375ZM94.6562 43.6875L94.6562 44.7188C94.6544 46.2235 93.3073 48.1386 91.8438 48.75C90.2851 49.4012 32.1892 49.5486 30.5 48.9062C28.5035 48.1472 28.4124 45.1414 30.3438 44.1562C31.0374 43.8022 38.5174 43.7228 62.9375 43.7188L94.6562 43.6875Z"/></g><path fill="#2c373b" d="M18.3125 0.65625C16.3516 0.65625 12.5625 1.53125 12.5625 1.53125C-2.10108 5.82169-4.56505 25.7657 8.59375 33.6875C14.0044 36.9448 21.3497 37.0263 26.5312 33.9062C29.5393 32.0946 29.5126 32.0711 29.375 36.1875C29.2567 39.7248 29.2419 39.7617 28.125 40.375C25.1392 42.0148 24.0313 43.612 24.0312 46.25C24.0312 49.7352 26.0064 52.4499 28.8437 52.9062C29.6151 53.0305 30.6021 53.218 31.0625 53.3125L31.9062 53.4688L31.9062 100L36.25 100L36.5937 65.25C36.617 62.9251 38.5187 60.5625 40.8437 60.5625C43.171 60.5625 45.0424 62.9541 45.0625 65.2812L45.375 100L49.75 100L50.0312 73C50.0564 70.6764 51.9263 68.0313 54.25 68.0312L54.375 68.0312C56.7011 68.0313 58.572 70.674 58.5937 73L58.8437 100L63.4687 100L63.6875 80.2812C63.7141 77.9587 65.4899 75.4375 67.8125 75.4375L68 75.4375C70.3253 75.4375 72.352 77.9561 72.375 80.2812L72.4687 91.2812C72.4687 91.6247 72.4687 93.4687 72.4687 93.4687C72.4687 93.5109 72.498 93.5513 72.5 93.5937L72.5 93.7188C72.5022 93.9371 72.5684 94.1119 72.625 94.3125C72.6437 94.3748 72.665 94.4387 72.6875 94.5C72.7511 94.6722 72.8382 94.8177 72.9375 94.9688C73.3623 95.7227 74.0401 96.3125 74.8437 96.3125L75 96.3125C75.8389 96.3125 76.5201 95.6782 76.9375 94.875C77.0038 94.7625 77.1087 94.6545 77.1562 94.5312C77.229 94.3394 77.247 94.1364 77.2812 93.9375C77.2909 93.8537 77.3116 93.805 77.3125 93.7188L77.3125 93.6562C77.3168 93.5944 77.3438 93.5302 77.3437 93.4687C77.3438 93.4688 77.3437 90.8471 77.3437 90.0938L77.375 87.7187C77.3982 85.3938 79.2687 82.7812 81.5937 82.7812L81.6875 82.7812C84.0117 82.7812 85.913 85.3947 85.9375 87.7187L86.0625 100L100 100L100 0.65625C76.7936 0.65625 18.3125 0.65625 18.3125 0.65625ZM58.3437 3.8125C77.6449 3.85775 96.4543 4.23745 97.0937 4.65625C100.049 6.59282 99.7833 11.0659 96.625 12.5C95.96 12.802 84.9759 12.9919 58.0625 13.125C58.0625 13.125 32.768 13.3877 23 13.2812C20.9835 13.2593 18.5355 14.3304 17.2812 16.375C16.2823 18.0033 14.7874 21.6217 16.8437 22.9688C17.9997 23.726 19.1749 23.196 19.5 21.75C20.5696 16.995 20.8233 16.8125 27.3125 16.8125L31.6562 16.8125L31.4375 19.2812C30.1615 35.1751 7.30986 36.1677 4 20.4688C2.3883 12.8243 8.60208 4.6312 23.375 4.1875C31.32 3.94866 44.9411 3.78108 58.3437 3.8125ZM69.5 26.4688L77 26.5625L84.5625 26.6875L84.6562 28.25L84.7812 29.8438L82.0312 29.8438C77.1253 29.8438 73.448 33.1523 75.0937 36.0938C76.1255 37.9385 78.1516 37.5306 78.625 35.375C78.9575 33.8609 80.171 33.3461 82.4062 33.7812C84.4113 34.1718 84.6269 34.6141 84.6875 38.125L84.7187 40.25L77.0937 40.25L69.5 40.25L69.5 33.375L69.5 26.4688ZM51.625 26.5L58.4687 26.5L65.3125 26.5L65.5312 27.625C66.0029 29.9837 65.5953 30.4531 63.2187 30.2812C59.105 29.9833 56.4332 31.5228 55.875 34.5C55.2848 37.646 58.2061 38.8731 59.4375 36C61.4161 31.3845 66.0274 34.2932 65.4375 39.7812C65.3996 40.1346 63.7611 40.25 58.5312 40.25L51.625 40.25L51.625 33.375L51.625 26.5ZM40.8125 26.5625L47.7187 26.6875L47.7187 28.3125L47.7187 29.9687L45.25 29.875C40.9599 29.7195 38.5402 31.5177 38.4687 34.9062C38.4085 37.7577 40.8638 38.2251 42.0937 35.5938C43.838 31.8623 47.5931 33.2148 47.8437 37.6562L48 40.25L40.6875 40.25L33.4062 40.25L33.4062 33.625C33.4063 29.9769 33.5157 26.8597 33.6562 26.7188C33.7968 26.5782 37.0156 26.5067 40.8125 26.5625ZM61.9687 44.3437L93.6562 44.3437L93.6562 45.375C93.6544 46.8798 92.3385 48.7636 90.875 49.375C89.3163 50.0262 31.2205 50.2048 29.5312 49.5625C27.5348 48.8034 27.4124 45.7977 29.3437 44.8125C30.0374 44.4584 37.5487 44.3478 61.9687 44.3437Z"/></svg>