<svg viewBox="0 0 100 100" width="100%" height="100%" stroke-miterlimit="10" style="fill-rule:nonzero;clip-rule:evenodd;stroke-linecap:round;stroke-linejoin:round;" version="1.1" xml:space="preserve" xmlns="http://www.w3.org/2000/svg" xmlns:xlink="http://www.w3.org/1999/xlink"><defs/><g opacity="1"><path fill="#f8ebe2" d="M29.5069 0.924514C26.1602 0.924514 23.4468 3.69447 23.4468 7.10937C23.4468 10.5243 26.1602 13.2896 29.5069 13.2896C32.8536 13.2896 35.5669 10.5243 35.5669 7.10937L35.7963 16.7406L33.342 16.7406L33.342 20.0705L35.7963 20.0705L35.4431 92.0332C35.4431 92.0332 35.438 91.6896 35.2016 91.0288C34.3537 88.6586 32.1239 86.9676 29.5069 86.9676C26.1602 86.9676 23.4468 89.7329 23.4468 93.1478C23.4468 96.5627 26.1602 99.3326 29.5069 99.3326L59.0182 99.3326L59.0182 94.4797L59.0182 20.0705L61.0304 20.0705L62.8534 20.0705L62.8534 16.7406L61.0304 16.7406L59.0182 16.7406L59.0182 7.10937L62.5965 7.10937L62.5965 0.924514L29.5069 0.924514Z"/><g style="stroke:#35393b;stroke-linecap:butt;stroke-linejoin:round;fill:none;"><path opacity="0.4" stroke-width="0.295478" d="M29.9891-0.103378C29.2031-0.103378 27.6737 0.253897 27.6738 0.253897C26.6117 0.564646 25.717 1.08855 24.9826 1.74332C21.6523 4.71231 21.7653 10.5373 26.0869 13.139C28.2558 14.4447 31.2018 14.4825 33.2788 13.2318C34.4846 12.5056 34.4708 12.4958 34.4156 14.1459C34.3829 15.1249 34.3623 15.4234 34.2114 15.6028C34.1438 15.6832 34.0577 15.7494 33.9191 15.8255C33.6398 15.9789 33.4106 16.1331 33.2092 16.2895C32.5477 16.8035 32.2766 17.3626 32.2766 18.1733C32.2766 19.5704 33.0648 20.6584 34.2021 20.8413C34.5113 20.8911 34.9131 20.9658 35.0977 21.0037L35.4317 21.0733L35.4317 78.808L35.4317 78.9054L35.0977 78.975C34.9131 79.0129 34.4969 79.0842 34.1697 79.1374C33.6438 79.2229 33.2446 79.4735 32.9354 79.7963C31.84 80.9401 32.1042 83.2058 33.9006 84.1532L34.3692 84.3991L34.4156 85.8282C34.4399 86.5548 34.4389 86.9249 34.3506 87.0949C34.2403 87.3075 33.9871 87.1863 33.4041 86.8165C30.959 85.2659 27.4325 85.5875 25.196 87.3873C24.8617 87.6563 24.5504 87.9533 24.282 88.2874C20.9801 92.3961 22.9331 99.0233 27.8733 100.119C27.9749 100.142 71.4127 100.149 71.6975 100.119C72.8982 99.994 73.9452 99.4397 74.7923 98.6205C77.2681 96.2263 78.0139 91.5472 75.7203 88.5287C73.5234 85.6374 69.2827 84.938 66.1156 86.9465C65.2654 87.4857 65.3162 87.5651 65.3732 85.8422L65.4196 84.3991L65.5681 84.3249L65.8929 84.1532C66.2088 83.9866 66.4725 83.7784 66.6956 83.5454C68.1248 82.0525 67.6724 79.4605 65.5542 79.1235C65.2651 79.0775 64.8757 79.0129 64.6912 78.975L64.3571 78.9054L64.3571 21.0779L64.5056 21.0547L64.9139 20.9851C65.8038 20.8358 66.2695 20.6565 66.6492 20.3031C66.7277 20.23 66.8025 20.1563 66.8766 20.0664C68.0824 18.6036 67.6535 16.7542 65.8929 15.8255L65.4196 15.575L65.3732 14.1319C65.3375 13.0513 65.3017 12.669 65.5635 12.7075C65.7205 12.7306 65.9823 12.9051 66.4219 13.1715C68.6903 14.546 71.602 14.4865 73.8736 13.0184C74.225 12.7912 74.5453 12.5406 74.8387 12.276C78.8424 8.66498 77.4984 1.86819 72.013 0.216778C72.013 0.216778 71.2109-0.103378 69.5028-0.103378C69.5028-0.103378 29.9891-0.103378 29.9891-0.103378ZM46.034 1.1726C53.7708 1.19074 61.3122 1.33416 61.5685 1.50204C62.5679 2.15704 62.6397 3.53472 61.8794 4.29528C61.7386 4.43609 61.576 4.55811 61.3783 4.64792C61.1117 4.76897 56.7108 4.84046 45.9226 4.89383C45.9226 4.89383 35.7837 5.01075 31.8683 4.96807C31.2899 4.96177 30.6245 5.18538 30.1051 5.60838C29.8985 5.77661 29.7099 5.9691 29.5669 6.20229C29.1664 6.85502 28.5663 8.31172 29.3905 8.8517C29.7423 9.08214 30.1004 9.00932 30.3092 8.70786C30.3755 8.61225 30.4263 8.4948 30.4577 8.35522C30.6735 7.39591 30.8081 6.90563 31.2187 6.65237C31.6238 6.40243 32.2977 6.38325 33.5897 6.38325L35.3297 6.38325L35.2508 7.36228C35.1267 8.90748 34.4879 10.0972 33.5804 10.9304C30.7462 13.5327 25.2452 12.6161 24.2402 7.84947C23.9086 6.27659 24.4147 4.64969 25.776 3.40905C27.0668 2.23268 29.1253 1.40301 32.0075 1.31644C35.1922 1.2207 40.6615 1.16001 46.034 1.1726ZM50.4976 10.253L50.6461 10.253L53.5136 10.2901L56.5342 10.3318L56.5806 10.9675L56.6177 11.4686L56.627 11.5985L55.5227 11.5985C54.5845 11.5985 53.7706 11.91 53.2352 12.3548C52.6483 12.8425 52.3984 13.4922 52.7433 14.1087C53.0554 14.6667 53.5913 14.7067 53.9172 14.3222C54.0233 14.1971 54.1073 14.0285 54.1539 13.8164C54.2025 13.5948 54.3188 13.4452 54.4647 13.3292C54.7183 13.1276 55.1024 13.0654 55.6711 13.1761C56.4749 13.3327 56.5702 13.5088 56.5945 14.9161L56.6084 15.6446L56.6084 15.7745L53.5507 15.7745L50.4976 15.7745L50.4976 13.0137L50.4976 10.253ZM43.3382 10.2576L43.4867 10.2576L46.0804 10.2576L48.8179 10.2576L48.9107 10.717C48.9949 11.1377 48.9946 11.3924 48.9015 11.5568C48.7853 11.7618 48.5161 11.8177 47.9874 11.7795C47.0102 11.7087 46.2437 11.9005 45.7277 12.3131C45.373 12.5967 45.1322 12.9822 45.041 13.4684C44.8324 14.5807 45.7205 15.0943 46.2706 14.4103C46.3442 14.3188 46.4072 14.2076 46.4655 14.0716C46.5942 13.7714 46.7585 13.5811 46.9295 13.4313C47.8051 12.6643 49.0467 13.7308 48.8736 15.5471C48.8722 15.5619 48.8752 15.574 48.8736 15.5889C48.8584 15.7305 48.1953 15.7745 46.0989 15.7745L43.3382 15.7745L43.3382 13.0137L43.3382 10.2576ZM39.0045 10.2901L41.7745 10.3318L41.7745 10.9907L41.7745 11.515L41.7745 11.6496L40.7862 11.6171C39.9364 11.5863 39.2715 11.7512 38.8096 12.0857C38.3369 12.4281 38.0771 12.9484 38.0626 13.6355C38.0428 14.5707 38.6987 14.8516 39.2086 14.35C39.322 14.2385 39.4299 14.101 39.5195 13.9092C39.6407 13.6499 39.7928 13.4751 39.951 13.3339C40.7054 12.6603 41.7425 13.2588 41.8256 14.7305L41.8766 15.6446L41.8812 15.7745L38.9581 15.7745L36.0349 15.7745L36.0349 13.1158C36.0349 11.6534 36.0806 10.4115 36.137 10.355C36.1414 10.3506 36.2571 10.3499 36.2762 10.3458C36.5009 10.2977 37.602 10.2695 39.0045 10.2901ZM60.1858 17.4124L60.1858 17.8253C60.1853 18.2426 59.9241 18.728 59.5733 19.0735C59.417 19.2275 59.2484 19.3598 59.0676 19.4354C58.4428 19.6964 35.153 19.7625 34.4759 19.505C33.7331 19.2226 33.6526 18.1755 34.2625 17.7093C34.3096 17.6733 34.3507 17.631 34.4063 17.6026C34.6843 17.4607 37.6882 17.4187 47.477 17.417L60.1858 17.4124ZM39.0091 23.9129C39.942 23.9129 40.7039 24.8685 40.712 25.8014L40.9022 47.9942L40.7073 71.2867C40.7036 71.7407 40.5174 72.1849 40.2248 72.5255C39.916 72.885 39.4883 73.1287 39.0091 73.1287C38.0768 73.1287 37.3198 72.219 37.3109 71.2867L37.0882 47.9756L37.3063 25.7967C37.3115 25.275 37.5673 24.7685 37.9419 24.4048C38.2365 24.1188 38.5989 23.9129 39.0091 23.9129ZM44.3868 26.9103L44.4332 26.9103C45.3656 26.9103 46.1227 27.9731 46.1314 28.9055L46.3263 49.5857L46.1314 71.2867C46.1274 71.7383 45.9436 72.1808 45.6535 72.5209C45.3445 72.8831 44.9143 73.1287 44.4332 73.1287L44.3868 73.1287C43.455 73.1287 42.7028 72.223 42.6932 71.2913L42.4705 49.5671L42.6932 28.9055C42.6989 28.3773 42.9624 27.8298 43.3428 27.4346C43.4546 27.2935 43.5931 27.1938 43.7326 27.0913C43.9342 26.977 44.1539 26.9103 44.3868 26.9103ZM49.8248 29.8752L49.899 29.8752C50.8311 29.8753 51.6437 30.892 51.6529 31.824L51.6947 36.2227C51.6947 36.3603 51.6947 37.1089 51.6947 37.1089C51.6947 37.1258 51.7032 37.1429 51.704 37.1599L51.704 37.2017C51.7049 37.2892 51.7323 37.3672 51.755 37.4476C51.7625 37.4726 51.7646 37.4973 51.7736 37.5219C51.7991 37.5909 51.8359 37.6515 51.8757 37.7121C52.0459 38.0143 52.3191 38.2503 52.6413 38.2503L52.7016 38.2503C52.9057 38.2503 53.0803 38.1418 53.2305 37.9951C53.3278 37.9001 53.42 37.7969 53.4857 37.6703C53.5123 37.6252 53.5455 37.5852 53.5646 37.5358C53.5937 37.4589 53.6019 37.3789 53.6156 37.2991C53.6195 37.2656 53.6338 37.2363 53.6342 37.2017L53.6342 37.1831C53.6359 37.1583 53.6481 37.1335 53.6481 37.1089C53.6481 37.1089 53.6481 36.0607 53.6481 35.7587L53.6574 34.7982C53.6627 34.2716 53.9196 33.7344 54.2977 33.3459C54.5887 33.0469 54.9456 32.8263 55.351 32.8262L55.3927 32.8262C56.3244 32.8262 57.0857 33.8666 57.0956 34.7982L57.2858 52.6202L57.0956 71.2913C57.0911 71.7425 56.9112 72.1865 56.6223 72.5255C56.3145 72.8867 55.8827 73.1287 55.402 73.1287L55.3649 73.1287C54.431 73.1288 53.6733 72.216 53.6667 71.282L53.5228 48.6113C53.5229 48.141 53.1394 47.688 52.6691 47.688C52.4887 47.688 52.3331 47.7695 52.1958 47.8782C51.9752 48.0529 51.82 48.3214 51.82 48.6113L51.6158 71.1939C51.612 71.655 51.4247 72.1322 51.124 72.4977C50.8162 72.8717 50.3896 73.1287 49.9176 73.1287L49.8758 73.1287C48.9444 73.1288 48.1877 72.1299 48.1776 71.1985L47.9596 50.9962L48.1776 31.824C48.1837 31.294 48.4341 30.7588 48.804 30.3764C49.0838 30.0871 49.4239 29.8752 49.8248 29.8752ZM52.6227 42.0783C52.4054 42.0783 52.2167 42.1656 52.0566 42.2871C51.8295 42.4593 51.6715 42.7155 51.6715 43.0202C51.6715 43.5396 52.0971 43.9621 52.6227 43.9621C52.9134 43.9621 53.1628 43.8267 53.3372 43.6234C53.4782 43.459 53.5739 43.2524 53.5739 43.0202C53.5739 42.5008 53.1483 42.0783 52.6227 42.0783ZM43.3335 84.645L43.482 84.645L46.1268 84.6822L48.9154 84.7239L48.8736 85.5406C48.8412 86.1492 48.6327 86.6043 48.3493 86.8954C47.8039 87.4556 46.9702 87.3776 46.5026 86.3989C46.1825 85.7288 45.6958 85.5946 45.3658 85.8236C45.1067 86.0035 44.941 86.4006 45.0503 86.9836C45.2611 88.1068 46.5298 88.7959 48.057 88.6168L48.8226 88.5287L48.8783 89.0901C48.9165 89.4918 48.9575 89.7397 48.869 89.8975C48.7049 90.1899 48.0872 90.1589 46.1221 90.1295L43.4124 90.0923L43.3753 87.3687L43.3335 84.645ZM36.0349 84.6497L36.1834 84.6497L38.9581 84.6497L41.8859 84.6497L41.8163 85.4756C41.7659 86.0837 41.5377 86.5535 41.2409 86.8629C40.6875 87.44 39.8855 87.4309 39.4824 86.5196C39.203 85.8878 38.7365 85.693 38.4152 85.8746C38.2057 85.9931 38.0559 86.267 38.0672 86.7005C38.1054 88.1553 39.1872 88.9355 40.9069 88.7514L41.8673 88.6493L41.8209 89.3685L41.7838 89.9624L41.7745 90.0923L39.2411 90.1341C35.6603 90.1942 36.0349 90.5236 36.0349 87.3316L36.0349 84.6497ZM50.4976 84.6497L50.6461 84.6497L53.5507 84.6497L56.6084 84.6497L56.5991 85.2854C56.5904 85.9438 56.3215 86.5059 55.9634 86.8861C55.3279 87.561 54.4095 87.6542 54.1539 86.6356C53.9916 85.9889 53.5584 85.7016 53.1702 85.87C53.1693 85.8707 53.1664 85.8693 53.1656 85.87C53.0358 85.9275 52.9111 86.0354 52.8036 86.1994C51.9813 87.4547 53.5992 88.9425 55.6015 88.7746L56.6223 88.6911L56.5806 89.3917L56.5434 89.9624L56.5342 90.0923L53.5136 90.1295L50.4976 90.1712L50.4976 87.4105L50.4976 84.6497ZM30.0494 87.5914C32.738 87.7434 35.0324 89.8647 35.2554 92.6443L35.3204 93.4656L35.3297 93.5955L33.5804 93.5955C31.1767 93.5955 30.518 93.2411 30.518 91.9483C30.518 91.5449 30.0853 90.909 29.8081 90.909C29.6851 90.909 29.582 90.945 29.488 90.9971C28.776 91.3917 28.8884 93.1347 29.8267 94.1662C30.6241 95.0429 30.113 95.0038 41.4822 95.0849C53.2298 95.1687 52.4803 95.091 52.9475 96.3145C53.2306 97.0557 53.0457 97.8096 52.5067 98.3004C52.4631 98.3401 52.4345 98.3897 52.3861 98.4257C51.9005 98.7861 32.02 98.9981 29.3488 98.6716C24.0002 98.0179 22.7809 91.728 26.0591 88.9138C26.7821 88.2931 27.7145 87.8358 28.8801 87.6517C29.2756 87.5893 29.6653 87.5697 30.0494 87.5914Z"/><path opacity="0.3" stroke-width="0.590957" d="M30.11-0.190609C29.324-0.190609 27.7947 0.166666 27.7947 0.166666C21.9168 1.88648 20.9332 9.87631 26.2078 13.0518C28.3767 14.3574 31.3227 14.3952 33.3997 13.1446C34.6055 12.4184 34.5917 12.4086 34.5365 14.0586C34.4891 15.4766 34.4878 15.4925 34.0401 15.7383C32.8432 16.3956 32.3975 17.0287 32.3975 18.0861C32.3975 19.4832 33.1857 20.5711 34.3231 20.7541C34.6323 20.8039 35.034 20.8786 35.2186 20.9165L35.5527 20.9861L35.5527 78.8182L35.2186 78.8878C35.034 78.9257 34.6179 78.997 34.2906 79.0502C31.9014 79.4383 31.7182 82.8511 34.0215 84.066L34.4901 84.3119L34.5365 85.741C34.5912 87.376 34.5744 87.3948 33.525 86.7293C30.7144 84.9469 26.4671 85.6315 24.4029 88.2002C21.101 92.3089 23.0541 98.9361 27.9942 100.032C28.0959 100.055 71.5336 100.062 71.8184 100.032C76.5285 99.5409 78.9197 92.4928 75.8412 88.4414C73.6444 85.5501 69.4037 84.8508 66.2366 86.8592C65.3864 87.3985 65.4371 87.4779 65.4942 85.7549L65.5406 84.3119L66.0139 84.066C68.3534 82.832 68.124 79.4259 65.6751 79.0363C65.3861 78.9902 64.9967 78.9257 64.8121 78.8878L64.478 78.8182L64.478 20.9907L65.0348 20.8979C66.1087 20.7177 66.5649 20.5041 66.9975 19.9792C68.2033 18.5164 67.7745 16.6669 66.0139 15.7383L65.5406 15.4877L65.4942 14.0447C65.4369 12.3157 65.3706 12.374 66.5428 13.0842C68.8113 14.4588 71.723 14.3993 73.9945 12.9311C79.1403 9.60525 78.0214 1.90199 72.1339 0.129547C72.1339 0.129547 71.3318-0.190609 69.6237-0.190609C69.6237-0.190609 30.11-0.190609 30.11-0.190609ZM46.1549 1.08537C53.8918 1.10351 61.4331 1.24693 61.6894 1.41481C62.8739 2.19108 62.7652 3.98582 61.4992 4.56069C61.2326 4.68174 56.8318 4.75323 46.0436 4.8066C46.0436 4.8066 35.9047 4.92352 31.9892 4.88084C31.1809 4.87203 30.1906 5.2955 29.6878 6.11506C29.2874 6.76779 28.6872 8.22449 29.5115 8.76447C29.9748 9.068 30.4484 8.84763 30.5787 8.26799C31.0074 6.36197 31.1094 6.29602 33.7106 6.29602L35.4506 6.29602L35.3717 7.27505C34.8602 13.6461 25.6879 14.0552 24.3612 7.76224C23.7151 4.69795 26.2067 1.40707 32.1284 1.22921C35.3131 1.13347 40.7825 1.07278 46.1549 1.08537ZM50.6186 10.1657L53.6345 10.2028L56.6551 10.2446L56.7015 10.8803L56.7479 11.5113L55.6436 11.5113C53.6771 11.5113 52.2046 12.8424 52.8643 14.0215C53.2778 14.761 54.085 14.5933 54.2748 13.7292C54.4081 13.1223 54.8961 12.9145 55.7921 13.0889C56.5958 13.2454 56.6911 13.4215 56.7154 14.8289L56.7293 15.6873L53.6716 15.6873L50.6186 15.6873L50.6186 12.9265L50.6186 10.1657ZM43.4591 10.1704L46.2013 10.1704L48.9389 10.1704L49.0317 10.6297C49.2207 11.5752 49.061 11.7611 48.1083 11.6923C46.4593 11.5728 45.3858 12.1878 45.162 13.3812C44.9254 14.6423 46.0928 15.1361 46.5864 13.9844C47.3796 12.1343 49.231 13.3018 48.9946 15.5017C48.9794 15.6433 48.3163 15.6873 46.2199 15.6873L43.4591 15.6873L43.4591 12.9265L43.4591 10.1704ZM39.1254 10.2028L41.8955 10.2446L41.8955 10.9035L41.8955 11.5623L40.9072 11.5299C39.1875 11.4676 38.2121 12.1899 38.1835 13.5482C38.1594 14.6913 39.1474 14.8768 39.6405 13.822C40.3397 12.3262 41.846 12.8629 41.9465 14.6433L42.0022 15.6873L39.079 15.6873L36.1559 15.6873L36.1559 13.0286C36.1559 11.5662 36.2016 10.3243 36.2579 10.2678C36.3143 10.2115 37.6034 10.1805 39.1254 10.2028ZM60.3067 17.3251L60.3067 17.7381C60.306 18.3413 59.7752 19.1031 59.1885 19.3482C58.5637 19.6092 35.274 19.6752 34.5969 19.4178C33.7966 19.1135 33.7531 17.9103 34.5273 17.5154C34.8053 17.3735 37.8092 17.3314 47.598 17.3298L60.3067 17.3251ZM39.1301 23.8257C40.063 23.8257 40.8249 24.7813 40.8329 25.7142L41.0232 47.907L40.8283 71.1994C40.8206 72.1326 40.0632 73.0415 39.1301 73.0415C38.1978 73.0415 37.4407 72.1317 37.4319 71.1994L37.2091 47.8884L37.4272 25.7095C37.4365 24.7776 38.1981 23.8257 39.1301 23.8257ZM44.5078 26.8231L44.5542 26.8231C45.4866 26.8231 46.2437 27.8859 46.2524 28.8183L46.4472 49.4985L46.2524 71.1994C46.244 72.1321 45.4869 73.0415 44.5542 73.0415L44.5078 73.0415C43.576 73.0415 42.8238 72.1358 42.8142 71.2041L42.5915 49.4799L42.8142 28.8183C42.8243 27.8869 43.5763 26.8231 44.5078 26.8231ZM49.9458 29.788L50.02 29.788C50.9521 29.788 51.7647 30.8048 51.7739 31.7368L51.8157 36.1354C51.8156 36.2731 51.8157 37.0217 51.8157 37.0217C51.8156 37.0386 51.8241 37.0557 51.8249 37.0727L51.8249 37.1145C51.8258 37.202 51.8533 37.28 51.876 37.3604C51.8835 37.3854 51.8855 37.4101 51.8945 37.4346C51.92 37.5037 51.9568 37.5643 51.9966 37.6249C52.1669 37.9271 52.4401 38.1631 52.7622 38.1631L52.8225 38.1631C53.1588 38.1631 53.4393 37.9051 53.6067 37.5831C53.6332 37.538 53.6665 37.498 53.6855 37.4486C53.7147 37.3717 53.7229 37.2917 53.7366 37.2119C53.7405 37.1783 53.7548 37.149 53.7551 37.1145L53.7551 37.0959C53.7569 37.0711 53.7691 37.0463 53.7691 37.0217C53.7691 37.0217 53.769 35.9735 53.7691 35.6715L53.7783 34.711C53.7877 33.779 54.5399 32.739 55.4719 32.739L55.5137 32.739C56.4453 32.739 57.2067 33.7794 57.2165 34.711L57.4068 52.533L57.2165 71.2041C57.2072 72.136 56.4549 73.0415 55.523 73.0415L55.4858 73.0415C54.5519 73.0415 53.7942 72.1287 53.7876 71.1948L53.6438 48.5241C53.6438 48.0538 53.2604 47.6007 52.79 47.6007C52.3197 47.6007 51.9409 48.0538 51.9409 48.5241L51.7368 71.1066C51.729 72.0397 50.9717 73.0415 50.0386 73.0415L49.9968 73.0415C49.0654 73.0415 48.3087 72.0427 48.2986 71.1113L48.0805 50.909L48.2986 31.7368C48.3092 30.8058 49.0147 29.788 49.9458 29.788ZM52.7436 41.991C52.218 41.991 51.7925 42.4135 51.7925 42.933C51.7925 43.4524 52.218 43.8749 52.7436 43.8749C53.2693 43.8749 53.6948 43.4524 53.6948 42.933C53.6948 42.4135 53.2693 41.991 52.7436 41.991ZM43.4545 84.5578L46.2477 84.5949L49.0363 84.6367L48.9946 85.4533C48.8999 87.2331 47.3341 87.799 46.6236 86.3117C46.052 85.1153 44.9227 85.5712 45.1713 86.8963C45.3821 88.0195 46.6507 88.7086 48.1779 88.5296L48.9435 88.4414L48.9992 89.0029C49.1085 90.1495 49.268 90.0875 46.2431 90.0422L43.5334 90.0051L43.4962 87.2815L43.4545 84.5578ZM36.1559 84.5625L39.079 84.5625L42.0068 84.5625L41.9372 85.3884C41.7928 87.1304 40.2226 87.8324 39.6033 86.4324C39.1416 85.3885 38.1594 85.5152 38.1882 86.6133C38.2263 88.0681 39.3081 88.8483 41.0278 88.6642L41.9883 88.5621L41.9419 89.2813L41.8955 90.0051L39.3621 90.0469C35.7813 90.1069 36.1559 90.4363 36.1559 87.2443L36.1559 84.5625ZM50.6186 84.5625L53.6716 84.5625L56.7293 84.5625L56.7201 85.1981C56.6958 87.0254 54.6745 88.1408 54.2748 86.5484C54.0576 85.6829 53.3546 85.4562 52.9246 86.1122C52.1023 87.3675 53.7202 88.8552 55.7225 88.6874L56.7433 88.6038L56.7015 89.3045L56.6551 90.0051L53.6345 90.0422L50.6186 90.084L50.6186 87.3232L50.6186 84.5625ZM30.1704 87.5042C32.859 87.6562 35.1533 89.7775 35.3764 92.5571L35.4506 93.5083L33.7013 93.5083C31.2977 93.5083 30.639 93.1539 30.639 91.8611C30.639 91.4577 30.2062 90.8217 29.9291 90.8217C28.8746 90.8217 28.8854 92.9112 29.9476 94.079C30.7451 94.9557 30.234 94.9166 41.6032 94.9977C53.3507 95.0815 52.6012 95.0037 53.0684 96.2273C53.3745 97.0284 53.154 97.8581 52.507 98.3384C52.0214 98.6989 32.141 98.9108 29.4697 98.5843C22.9415 97.7865 22.5501 88.5832 29.0011 87.5645C29.3965 87.5021 29.7863 87.4825 30.1704 87.5042Z"/><path opacity="0.2" stroke-width="0.886435" d="M30.2585-0.235152C29.4725-0.235152 27.9432 0.122123 27.9432 0.122123C22.0653 1.84194 21.0816 9.83177 26.3563 13.0072C28.5252 14.3129 31.4712 14.3507 33.5482 13.1C34.754 12.3738 34.7402 12.364 34.685 14.0141C34.6376 15.432 34.6362 15.4479 34.1885 15.6937C32.9917 16.3511 32.546 16.9841 32.546 18.0416C32.546 19.4386 33.3342 20.5266 34.4716 20.7095C34.7808 20.7593 35.1825 20.8341 35.3671 20.8719L35.7012 20.9415L35.7012 78.7737L35.3671 78.8433C35.1825 78.8811 34.7663 78.9524 34.4391 79.0057C32.0499 79.3937 31.8666 82.8066 34.17 84.0214L34.6386 84.2674L34.685 85.6965C34.7397 87.3314 34.7229 87.3503 33.6735 86.6848C30.8629 84.9023 26.6156 85.5869 24.5514 88.1556C21.2495 92.2643 23.2026 98.8916 28.1427 99.9875C28.2444 100.01 71.6821 100.017 71.9669 99.9875C76.677 99.4964 79.0681 92.4482 75.9897 88.3969C73.7928 85.5056 69.5522 84.8062 66.3851 86.8147C65.5348 87.3539 65.5856 87.4333 65.6427 85.7104L65.6891 84.2674L66.1623 84.0214C68.5019 82.7875 68.2725 79.3813 65.8236 78.9918C65.5345 78.9457 65.1451 78.8811 64.9606 78.8433L64.6265 78.7737L64.6265 20.9462L65.1833 20.8534C66.2572 20.6731 66.7134 20.4596 67.146 19.9346C68.3518 18.4718 67.923 16.6224 66.1623 15.6937L65.6891 15.4432L65.6427 14.0002C65.5854 12.2711 65.5191 12.3295 66.6913 13.0397C68.9597 14.4142 71.8715 14.3548 74.143 12.8866C79.2888 9.5607 78.1698 1.85745 72.2824 0.0850034C72.2824 0.0850034 71.4803-0.235152 69.7722-0.235152C69.7722-0.235152 30.2585-0.235152 30.2585-0.235152ZM46.3034 1.04083C54.0403 1.05897 61.5816 1.20239 61.8379 1.37027C63.0224 2.14654 62.9137 3.94128 61.6477 4.51614C61.3811 4.6372 56.9803 4.70869 46.1921 4.76206C46.1921 4.76206 36.0532 4.87897 32.1377 4.8363C31.3294 4.82749 30.339 5.25096 29.8363 6.07052C29.4359 6.72324 28.8357 8.17995 29.66 8.71992C30.1233 9.02346 30.5968 8.80308 30.7271 8.22345C31.1559 6.31743 31.2579 6.25148 33.8591 6.25148L35.5991 6.25148L35.5202 7.2305C35.0087 13.6015 25.8364 14.0106 24.5096 7.7177C23.8636 4.65341 26.3552 1.36252 32.2769 1.18467C35.4616 1.08893 40.931 1.02824 46.3034 1.04083ZM50.767 10.1212L53.783 10.1583L56.8036 10.2001L56.85 10.8357L56.8964 11.4668L55.7921 11.4668C53.8255 11.4668 52.3531 12.7979 53.0128 13.977C53.4263 14.7164 54.2335 14.5487 54.4233 13.6847C54.5566 13.0777 55.0446 12.8699 55.9406 13.0443C56.7443 13.2009 56.8396 13.377 56.8639 14.7843L56.8778 15.6427L53.8201 15.6427L50.767 15.6427L50.767 12.8819L50.767 10.1212ZM43.6076 10.1258L46.3498 10.1258L49.0874 10.1258L49.1802 10.5852C49.3692 11.5307 49.2095 11.7166 48.2568 11.6477C46.6078 11.5283 45.5342 12.1433 45.3105 13.3367C45.0739 14.5977 46.2413 15.0915 46.7349 13.9399C47.528 12.0897 49.3795 13.2572 49.1431 15.4571C49.1278 15.5987 48.4648 15.6427 46.3684 15.6427L43.6076 15.6427L43.6076 12.8819L43.6076 10.1258ZM39.2739 10.1583L42.0439 10.2001L42.0439 10.8589L42.0439 11.5178L41.0556 11.4853C39.336 11.423 38.3606 12.1454 38.332 13.5037C38.3079 14.6467 39.2959 14.8322 39.7889 13.7775C40.4881 12.2817 41.9945 12.8184 42.095 14.5987L42.1507 15.6427L39.2275 15.6427L36.3043 15.6427L36.3043 12.984C36.3044 11.5217 36.3501 10.2798 36.4064 10.2233C36.4628 10.1669 37.7519 10.1359 39.2739 10.1583ZM60.4552 17.2806L60.4552 17.6936C60.4545 18.2967 59.9236 19.0585 59.337 19.3036C58.7122 19.5647 35.4225 19.6307 34.7453 19.3732C33.9451 19.0689 33.9015 17.8658 34.6757 17.4708C34.9538 17.3289 37.9577 17.2869 47.7464 17.2852L60.4552 17.2806ZM39.2785 23.7812C40.2114 23.7812 40.9733 24.7368 40.9814 25.6696L41.1716 47.8624L40.9768 71.1549C40.9691 72.088 40.2117 72.997 39.2785 72.997C38.3462 72.997 37.5892 72.0872 37.5803 71.1549L37.3576 47.8439L37.5757 25.665C37.585 24.733 38.3465 23.7812 39.2785 23.7812ZM44.6562 26.7786L44.7026 26.7786C45.6351 26.7786 46.3921 27.8413 46.4008 28.7737L46.5957 49.4539L46.4008 71.1549C46.3925 72.0876 45.6353 72.9969 44.7026 72.997L44.6562 72.997C43.7244 72.9969 42.9723 72.0913 42.9627 71.1595L42.7399 49.4354L42.9627 28.7737C42.9727 27.8423 43.7248 26.7786 44.6562 26.7786ZM50.0942 29.7435L50.1685 29.7435C51.1006 29.7435 51.9132 30.7602 51.9224 31.6922L51.9641 36.0909C51.9641 36.2286 51.9641 36.9771 51.9641 36.9771C51.9641 36.994 51.9726 37.0112 51.9734 37.0282L51.9734 37.0699C51.9743 37.1574 52.0018 37.2354 52.0245 37.3158C52.0319 37.3408 52.034 37.3655 52.043 37.3901C52.0685 37.4591 52.1053 37.5198 52.1451 37.5803C52.3154 37.8825 52.5885 38.1186 52.9107 38.1186L52.971 38.1186C53.3073 38.1185 53.5878 37.8605 53.7551 37.5386C53.7817 37.4935 53.815 37.4534 53.834 37.404C53.8632 37.3271 53.8713 37.2471 53.8851 37.1674C53.889 37.1338 53.9033 37.1045 53.9036 37.0699L53.9036 37.0514C53.9053 37.0266 53.9175 37.0018 53.9175 36.9771C53.9175 36.9771 53.9175 35.9289 53.9175 35.6269L53.9268 34.6664C53.9361 33.7345 54.6884 32.6945 55.6204 32.6945L55.6622 32.6945C56.5938 32.6945 57.3552 33.7349 57.365 34.6664L57.5553 52.4884L57.365 71.1595C57.3556 72.0915 56.6034 72.997 55.6714 72.997L55.6343 72.997C54.7004 72.997 53.9427 72.0842 53.9361 71.1503L53.7923 48.4795C53.7923 48.0092 53.4088 47.5562 52.9385 47.5562C52.4682 47.5562 52.0894 48.0092 52.0894 48.4795L51.8853 71.0621C51.8775 71.9951 51.1202 72.9969 50.187 72.997L50.1453 72.997C49.2138 72.997 48.4572 71.9981 48.4471 71.0667L48.229 50.8645L48.4471 31.6922C48.4577 30.7613 49.1632 29.7435 50.0942 29.7435ZM52.8921 41.9465C52.3665 41.9465 51.9409 42.369 51.9409 42.8884C51.9409 43.4078 52.3665 43.8303 52.8921 43.8303C53.4177 43.8303 53.8433 43.4078 53.8433 42.8884C53.8433 42.369 53.4177 41.9465 52.8921 41.9465ZM43.603 84.5133L46.3962 84.5504L49.1848 84.5922L49.1431 85.4088C49.0484 87.1885 47.4826 87.7544 46.772 86.2672C46.2005 85.0708 45.0712 85.5266 45.3197 86.8518C45.5306 87.975 46.7992 88.6641 48.3264 88.4851L49.092 88.3969L49.1477 88.9583C49.257 90.1049 49.4165 90.043 46.3916 89.9977L43.6818 89.9606L43.6447 87.2369L43.603 84.5133ZM36.3043 84.5179L39.2275 84.5179L42.1553 84.5179L42.0857 85.3438C41.9413 87.0858 40.3711 87.7878 39.7518 86.3878C39.2901 85.3439 38.3079 85.4706 38.3366 86.5688C38.3748 88.0235 39.4566 88.8037 41.1763 88.6196L42.1367 88.5175L42.0903 89.2367L42.0439 89.9606L39.5105 90.0023C35.9297 90.0624 36.3043 90.3918 36.3043 87.1998L36.3043 84.5179ZM50.767 84.5179L53.8201 84.5179L56.8778 84.5179L56.8685 85.1536C56.8442 86.9809 54.823 88.0963 54.4233 86.5038C54.2061 85.6384 53.503 85.4117 53.0731 86.0677C52.2507 87.3229 53.8686 88.8107 55.871 88.6428L56.8917 88.5593L56.85 89.2599L56.8036 89.9606L53.783 89.9977L50.767 90.0394L50.767 87.2787L50.767 84.5179ZM30.3188 87.4596C33.0075 87.6116 35.3018 89.733 35.5248 92.5125L35.5991 93.4637L33.8498 93.4637C31.4462 93.4637 30.7875 93.1094 30.7875 91.8165C30.7875 91.4131 30.3547 90.7772 30.0776 90.7772C29.0231 90.7772 29.0339 92.8667 30.0961 94.0344C30.8936 94.9112 30.3824 94.872 41.7516 94.9531C53.4992 95.0369 52.7497 94.9592 53.2169 96.1827C53.523 96.9839 53.3025 97.8135 52.6555 98.2939C52.1699 98.6544 32.2895 98.8663 29.6182 98.5398C23.09 97.7419 22.6986 88.5386 29.1496 87.52C29.545 87.4575 29.9347 87.4379 30.3188 87.4596Z"/><path opacity="0.1" stroke-width="1.40352" d="M30.2882-0.25C29.5022-0.25 27.9729 0.107275 27.9729 0.107275C22.095 1.82709 21.1113 9.81692 26.386 12.9924C28.5549 14.298 31.5009 14.3358 33.5779 13.0852C34.7837 12.359 34.7699 12.3492 34.7147 13.9992C34.6673 15.4172 34.6659 15.4331 34.2182 15.6789C33.0214 16.3362 32.5757 16.9693 32.5757 18.0267C32.5757 19.4238 33.3639 20.5117 34.5013 20.6947C34.8105 20.7445 35.2122 20.8192 35.3968 20.8571L35.7309 20.9267L35.7309 78.7588L35.3968 78.8284C35.2122 78.8663 34.796 78.9376 34.4688 78.9908C32.0796 79.3789 31.8963 82.7917 34.1997 84.0066L34.6683 84.2525L34.7147 85.6816C34.7694 87.3166 34.7526 87.3354 33.7032 86.6699C30.8925 84.8875 26.6453 85.5721 24.5811 88.1408C21.2792 92.2495 23.2322 98.8767 28.1724 99.9726C28.274 99.9951 71.7118 100.002 71.9966 99.9726C76.7067 99.4815 79.0978 92.4334 76.0194 88.3821C73.8225 85.4907 69.5819 84.7914 66.4147 86.7998C65.5645 87.3391 65.6153 87.4185 65.6724 85.6955L65.7188 84.2525L66.192 84.0066C68.5316 82.7726 68.3022 79.3665 65.8533 78.9769C65.5642 78.9308 65.1748 78.8663 64.9903 78.8284L64.6562 78.7588L64.6562 20.9313L65.213 20.8385C66.2868 20.6583 66.7431 20.4447 67.1757 19.9198C68.3815 18.457 67.9527 16.6075 66.192 15.6789L65.7188 15.4283L65.6724 13.9853C65.6151 12.2563 65.5488 12.3146 66.721 13.0249C68.9894 14.3994 71.9012 14.3399 74.1727 12.8717C79.3185 9.54585 78.1995 1.8426 72.3121 0.0701556C72.3121 0.0701556 71.51-0.25 69.8019-0.25C69.8019-0.25 30.2882-0.25 30.2882-0.25ZM46.3331 1.02598C54.07 1.04412 61.6113 1.18754 61.8676 1.35542C63.0521 2.13169 62.9434 3.92643 61.6774 4.50129C61.4108 4.62235 57.01 4.69384 46.2217 4.74721C46.2218 4.74721 36.0829 4.86412 32.1674 4.82145C31.3591 4.81264 30.3687 5.23611 29.866 6.05567C29.4656 6.70839 28.8654 8.1651 29.6897 8.70508C30.153 9.00861 30.6265 8.78824 30.7568 8.2086C31.1856 6.30258 31.2876 6.23663 33.8888 6.23663L35.6288 6.23663L35.5499 7.21566C35.0384 13.5867 25.8661 13.9958 24.5393 7.70285C23.8933 4.63856 26.3849 1.34768 32.3066 1.16982C35.4913 1.07408 40.9607 1.01339 46.3331 1.02598ZM50.7967 10.1063L53.8127 10.1435L56.8333 10.1852L56.8797 10.8209L56.9261 11.4519L55.8218 11.4519C53.8552 11.4519 52.3828 12.783 53.0425 13.9621C53.456 14.7016 54.2632 14.5339 54.453 13.6698C54.5863 13.0629 55.0743 12.8551 55.9703 13.0295C56.774 13.186 56.8693 13.3621 56.8936 14.7695L56.9075 15.6279L53.8498 15.6279L50.7967 15.6279L50.7967 12.8671L50.7967 10.1063ZM43.6373 10.111L46.3795 10.111L49.1171 10.111L49.2099 10.5703C49.3989 11.5158 49.2392 11.7018 48.2865 11.6329C46.6375 11.5135 45.5639 12.1284 45.3402 13.3218C45.1036 14.5829 46.271 15.0767 46.7646 13.925C47.5577 12.0749 49.4092 13.2424 49.1727 15.4423C49.1575 15.5839 48.4945 15.6279 46.3981 15.6279L43.6373 15.6279L43.6373 12.8671L43.6373 10.111ZM39.3036 10.1435L42.0736 10.1852L42.0736 10.8441L42.0736 11.503L41.0853 11.4705C39.3657 11.4082 38.3903 12.1306 38.3617 13.4888C38.3376 14.6319 39.3256 14.8174 39.8186 13.7626C40.5178 12.2669 42.0242 12.8035 42.1247 14.5839L42.1804 15.6279L39.2572 15.6279L36.334 15.6279L36.334 12.9692C36.334 11.5068 36.3798 10.2649 36.4361 10.2084C36.4925 10.1521 37.7816 10.1211 39.3036 10.1435ZM60.4849 17.2658L60.4849 17.6787C60.4842 18.2819 59.9533 19.0437 59.3667 19.2888C58.7419 19.5498 35.4522 19.6158 34.775 19.3584C33.9747 19.0541 33.9312 17.8509 34.7054 17.456C34.9835 17.3141 37.9874 17.272 47.7761 17.2704L60.4849 17.2658ZM39.3082 23.7663C40.2411 23.7663 41.003 24.7219 41.0111 25.6548L41.2013 47.8476L41.0065 71.1401C40.9988 72.0732 40.2414 72.9821 39.3082 72.9821C38.3759 72.9821 37.6189 72.0723 37.61 71.1401L37.3873 47.829L37.6054 25.6501C37.6147 24.7182 38.3762 23.7663 39.3082 23.7663ZM44.6859 26.7637L44.7323 26.7637C45.6648 26.7637 46.4218 27.8265 46.4305 28.7589L46.6254 49.4391L46.4305 71.1401C46.4222 72.0727 45.665 72.9821 44.7323 72.9821L44.6859 72.9821C43.7541 72.9821 43.002 72.0764 42.9924 71.1447L42.7696 49.4205L42.9924 28.7589C43.0024 27.8275 43.7545 26.7637 44.6859 26.7637ZM50.1239 29.7286L50.1982 29.7286C51.1302 29.7286 51.9428 30.7454 51.9521 31.6774L51.9938 36.0761C51.9938 36.2137 51.9938 36.9623 51.9938 36.9623C51.9938 36.9792 52.0023 36.9963 52.0031 37.0133L52.0031 37.0551C52.004 37.1426 52.0315 37.2206 52.0541 37.301C52.0616 37.326 52.0637 37.3507 52.0727 37.3752C52.0982 37.4443 52.135 37.5049 52.1748 37.5655C52.3451 37.8677 52.6182 38.1037 52.9404 38.1037L53.0007 38.1037C53.337 38.1037 53.6175 37.8457 53.7848 37.5237C53.8114 37.4786 53.8447 37.4386 53.8637 37.3892C53.8929 37.3123 53.901 37.2323 53.9148 37.1525C53.9186 37.1189 53.933 37.0896 53.9333 37.0551L53.9333 37.0365C53.935 37.0117 53.9472 36.9869 53.9472 36.9623C53.9472 36.9623 53.9472 35.9141 53.9472 35.6121L53.9565 34.6516C53.9658 33.7196 54.7181 32.6796 55.6501 32.6796L55.6919 32.6796C56.6235 32.6796 57.3849 33.72 57.3947 34.6516L57.585 52.4736L57.3947 71.1447C57.3853 72.0766 56.6331 72.9821 55.7011 72.9821L55.664 72.9821C54.7301 72.9821 53.9724 72.0693 53.9658 71.1354L53.822 48.4647C53.822 47.9944 53.4385 47.5413 52.9682 47.5413C52.4979 47.5413 52.1191 47.9944 52.1191 48.4647L51.9149 71.0473C51.9072 71.9803 51.1499 72.9821 50.2167 72.9821L50.175 72.9821C49.2435 72.9822 48.4869 71.9833 48.4768 71.0519L48.2587 50.8496L48.4768 31.6774C48.4874 30.7464 49.1929 29.7286 50.1239 29.7286ZM52.9218 41.9317C52.3962 41.9316 51.9706 42.3541 51.9706 42.8736C51.9706 43.393 52.3962 43.8155 52.9218 43.8155C53.4474 43.8155 53.873 43.393 53.873 42.8736C53.873 42.3541 53.4474 41.9317 52.9218 41.9317ZM43.6327 84.4984L46.4259 84.5355L49.2145 84.5773L49.1727 85.3939C49.0781 87.1737 47.5123 87.7396 46.8017 86.2523C46.2302 85.0559 45.1009 85.5118 45.3494 86.837C45.5602 87.9602 46.8289 88.6493 48.3561 88.4702L49.1217 88.3821L49.1774 88.9435C49.2867 90.0901 49.4462 90.0282 46.4213 89.9828L43.7115 89.9457L43.6744 87.2221L43.6327 84.4984ZM36.334 84.5031L39.2572 84.5031L42.185 84.5031L42.1154 85.329C41.9709 87.071 40.4008 87.773 39.7815 86.373C39.3198 85.3291 38.3376 85.4558 38.3663 86.5539C38.4045 88.0087 39.4863 88.7889 41.206 88.6048L42.1664 88.5027L42.12 89.2219L42.0736 89.9457L39.5402 89.9875C35.9594 90.0475 36.334 90.377 36.334 87.185L36.334 84.5031ZM50.7967 84.5031L53.8498 84.5031L56.9075 84.5031L56.8982 85.1387C56.8739 86.966 54.8527 88.0815 54.453 86.489C54.2358 85.6235 53.5327 85.3968 53.1028 86.0528C52.2804 87.3081 53.8983 88.7958 55.9007 88.628L56.9214 88.5445L56.8797 89.2451L56.8333 89.9457L53.8127 89.9828L50.7967 90.0246L50.7967 87.2638L50.7967 84.5031ZM30.3485 87.4448C33.0372 87.5968 35.3315 89.7181 35.5545 92.4977L35.6288 93.4489L33.8795 93.4489C31.4759 93.4489 30.8172 93.0945 30.8172 91.8017C30.8172 91.3983 30.3844 90.7623 30.1073 90.7623C29.0528 90.7623 29.0636 92.8518 30.1258 94.0196C30.9233 94.8963 30.4121 94.8572 41.7813 94.9383C53.5289 95.0221 52.7794 94.9443 53.2466 96.1679C53.5527 96.969 53.3322 97.7987 52.6852 98.279C52.1996 98.6395 32.3192 98.8514 29.6479 98.525C23.1197 97.7271 22.7283 88.5238 29.1793 87.5051C29.5747 87.4427 29.9644 87.4231 30.3485 87.4448Z"/></g><path fill="#2c373b" fill-rule="nonzero" opacity="1" stroke="none" d="M29.8914 0.00769954C29.1054 0.00769954 27.5761 0.364975 27.5761 0.364975C21.6982 2.08479 20.7146 10.0746 25.9892 13.2501C28.1581 14.5557 31.1041 14.5935 33.1811 13.3429C34.3869 12.6167 34.3731 12.6069 34.3179 14.2569C34.2705 15.6749 34.2692 15.6908 33.8215 15.9366C32.6246 16.5939 32.1789 17.227 32.1789 18.2844C32.1789 19.6815 32.9671 20.7694 34.1045 20.9524C34.4137 21.0022 34.8154 21.0769 35 21.1148L35.3341 21.1844L35.3341 79.0165L35 79.0861C34.8154 79.124 34.3993 79.1953 34.072 79.2485C31.6828 79.6366 31.4996 83.0494 33.8029 84.2643L34.2715 84.5102L34.3179 85.9393C34.3726 87.5743 34.3558 87.5931 33.3064 86.9276C30.4958 85.1452 26.2485 85.8298 24.1843 88.3985C20.8824 92.5072 22.8355 99.1344 27.7756 100.23C27.8773 100.253 71.315 100.26 71.5998 100.23C76.3099 99.7392 78.7011 92.6911 75.6226 88.6398C73.4258 85.7484 69.1851 85.0491 66.018 87.0575C65.1678 87.5968 65.2185 87.6762 65.2756 85.9532L65.322 84.5102L65.7953 84.2643C68.1348 83.0303 67.9054 79.6242 65.4565 79.2346C65.1675 79.1885 64.7781 79.124 64.5935 79.0861L64.2594 79.0165L64.2594 21.189L64.8162 21.0962C65.8901 20.916 66.3463 20.7024 66.7789 20.1775C67.9847 18.7147 67.5559 16.8652 65.7953 15.9366L65.322 15.686L65.2756 14.243C65.2183 12.514 65.152 12.5723 66.3242 13.2826C68.5926 14.6571 71.5044 14.5976 73.7759 13.1294C78.9217 9.80355 77.8028 2.1003 71.9153 0.327855C71.9153 0.327855 71.1132 0.00769954 69.4051 0.00769954C69.4051 0.00769954 29.8914 0.00769954 29.8914 0.00769954ZM45.9363 1.28368C53.6732 1.30182 61.2145 1.44524 61.4708 1.61312C62.6553 2.38939 62.5466 4.18413 61.2806 4.75899C61.014 4.88005 56.6132 4.95154 45.825 5.00491C45.825 5.00491 35.6861 5.12182 31.7706 5.07915C30.9623 5.07034 29.972 5.49381 29.4692 6.31337C29.0688 6.96609 28.4686 8.4228 29.2929 8.96278C29.7562 9.26631 30.2298 9.04594 30.3601 8.4663C30.7888 6.56028 30.8908 6.49433 33.492 6.49433L35.232 6.49433L35.1531 7.47336C34.6416 13.8444 25.4693 14.2535 24.1425 7.96055C23.4965 4.89626 25.9881 1.60537 31.9098 1.42752C35.0945 1.33178 40.5639 1.27109 45.9363 1.28368ZM50.3999 10.364L53.4159 10.4012L56.4365 10.4429L56.4829 11.0786L56.5293 11.7096L55.425 11.7096C53.4585 11.7096 51.986 13.0407 52.6457 14.2198C53.0592 14.9593 53.8664 14.7916 54.0562 13.9275C54.1895 13.3206 54.6775 13.1128 55.5735 13.2872C56.3772 13.4437 56.4725 13.6198 56.4968 15.0272L56.5107 15.8856L53.453 15.8856L50.3999 15.8856L50.3999 13.1248L50.3999 10.364ZM43.2405 10.3687L45.9827 10.3687L48.7203 10.3687L48.8131 10.828C49.0021 11.7735 48.8424 11.9595 47.8897 11.8906C46.2407 11.7712 45.1672 12.3861 44.9434 13.5795C44.7068 14.8406 45.8742 15.3344 46.3678 14.1827C47.161 12.3326 49.0124 13.5001 48.776 15.7C48.7608 15.8416 48.0977 15.8856 46.0013 15.8856L43.2405 15.8856L43.2405 13.1248L43.2405 10.3687ZM38.9068 10.4012L41.6769 10.4429L41.6769 11.1018L41.6769 11.7607L40.6886 11.7282C38.9689 11.6659 37.9935 12.3883 37.9649 13.7465C37.9408 14.8896 38.9288 15.0751 39.4219 14.0203C40.1211 12.5246 41.6274 13.0612 41.7279 14.8416L41.7836 15.8856L38.8604 15.8856L35.9373 15.8856L35.9373 13.2269C35.9373 11.7645 35.983 10.5226 36.0393 10.4661C36.0957 10.4098 37.3848 10.3788 38.9068 10.4012ZM60.0881 17.5235L60.0881 17.9364C60.0874 18.5396 59.5566 19.3014 58.9699 19.5465C58.3451 19.8075 35.0554 19.8735 34.3782 19.6161C33.578 19.3118 33.5345 18.1086 34.3086 17.7137C34.5867 17.5718 37.5906 17.5297 47.3793 17.5281L60.0881 17.5235ZM38.9115 24.024C39.8444 24.024 40.6063 24.9796 40.6143 25.9125L40.8046 48.1053L40.6097 71.3978C40.602 72.3309 39.8446 73.2398 38.9115 73.2398C37.9792 73.2398 37.2221 72.33 37.2132 71.3978L36.9905 48.0867L37.2086 25.9078C37.2179 24.9759 37.9795 24.024 38.9115 24.024ZM44.2891 27.0214L44.3355 27.0214C45.268 27.0214 46.0251 28.0842 46.0338 29.0166L46.2286 49.6968L46.0338 71.3978C46.0254 72.3304 45.2683 73.2398 44.3355 73.2398L44.2891 73.2398C43.3574 73.2398 42.6052 72.3341 42.5956 71.4024L42.3729 49.6782L42.5956 29.0166C42.6056 28.0852 43.3577 27.0214 44.2891 27.0214ZM49.7272 29.9863L49.8014 29.9863C50.7335 29.9863 51.5461 31.0031 51.5553 31.9351L51.597 36.3338C51.597 36.4714 51.597 37.22 51.597 37.22C51.597 37.2369 51.6055 37.254 51.6063 37.271L51.6063 37.3128C51.6072 37.4003 51.6347 37.4783 51.6574 37.5587C51.6649 37.5837 51.6669 37.6084 51.6759 37.6329C51.7014 37.702 51.7382 37.7626 51.778 37.8232C51.9483 38.1254 52.2215 38.3614 52.5436 38.3614L52.6039 38.3614C52.9402 38.3614 53.2207 38.1034 53.3881 37.7814C53.4146 37.7363 53.4479 37.6963 53.4669 37.6469C53.4961 37.57 53.5043 37.49 53.518 37.4102C53.5219 37.3766 53.5362 37.3473 53.5365 37.3128L53.5365 37.2942C53.5383 37.2694 53.5505 37.2446 53.5505 37.22C53.5505 37.22 53.5504 36.1718 53.5505 35.8698L53.5597 34.9093C53.5691 33.9773 54.3213 32.9373 55.2533 32.9373L55.2951 32.9373C56.2267 32.9373 56.9881 33.9777 56.9979 34.9093L57.1882 52.7313L56.9979 71.4024C56.9886 72.3343 56.2363 73.2398 55.3044 73.2398L55.2672 73.2398C54.3333 73.2398 53.5756 72.327 53.569 71.3931L53.4252 48.7224C53.4252 48.2521 53.0418 47.799 52.5714 47.799C52.1011 47.799 51.7223 48.2521 51.7223 48.7224L51.5182 71.305C51.5104 72.238 50.7531 73.2398 49.82 73.2398L49.7782 73.2398C48.8468 73.2399 48.0901 72.241 48.08 71.3096L47.8619 51.1073L48.08 31.9351C48.0906 31.0041 48.7961 29.9863 49.7272 29.9863ZM52.525 42.1894C51.9994 42.1893 51.5738 42.6118 51.5738 43.1313C51.5739 43.6507 51.9994 44.0732 52.525 44.0732C53.0507 44.0732 53.4762 43.6507 53.4762 43.1313C53.4762 42.6118 53.0507 42.1894 52.525 42.1894ZM43.2359 84.7561L46.0291 84.7932L48.8177 84.835L48.776 85.6516C48.6813 87.4314 47.1155 87.9973 46.405 86.51C45.8334 85.3136 44.7041 85.7695 44.9527 87.0947C45.1635 88.2179 46.4321 88.907 47.9593 88.7279L48.7249 88.6398L48.7806 89.2012C48.8899 90.3478 49.0494 90.2859 46.0245 90.2405L43.3148 90.2034L43.2776 87.4798L43.2359 84.7561ZM35.9373 84.7608L38.8604 84.7608L41.7882 84.7608L41.7186 85.5867C41.5742 87.3287 40.004 88.0307 39.3847 86.6307C38.923 85.5868 37.9408 85.7135 37.9696 86.8116C38.0077 88.2664 39.0895 89.0466 40.8092 88.8625L41.7697 88.7604L41.7233 89.4796L41.6769 90.2034L39.1435 90.2452C35.5626 90.3052 35.9373 90.6347 35.9373 87.4426L35.9373 84.7608ZM50.3999 84.7608L53.453 84.7608L56.5107 84.7608L56.5015 85.3964C56.4772 87.2237 54.4559 88.3392 54.0562 86.7467C53.839 85.8812 53.1359 85.6545 52.706 86.3105C51.8836 87.5658 53.5015 89.0535 55.5039 88.8857L56.5247 88.8022L56.4829 89.5028L56.4365 90.2034L53.4159 90.2405L50.3999 90.2823L50.3999 87.5215L50.3999 84.7608ZM29.9517 87.7025C32.6404 87.8545 34.9347 89.9758 35.1578 92.7554L35.232 93.7066L33.4827 93.7066C31.0791 93.7066 30.4204 93.3522 30.4204 92.0594C30.4204 91.656 29.9876 91.02 29.7105 91.02C28.656 91.02 28.6668 93.1095 29.729 94.2773C30.5265 95.154 30.0154 95.1149 41.3845 95.196C53.1321 95.2798 52.3826 95.202 52.8498 96.4256C53.1559 97.2267 52.9354 98.0564 52.2884 98.5367C51.8028 98.8972 31.9224 99.1091 29.2511 98.7827C22.7229 97.9848 22.3315 88.7815 28.7825 87.7628C29.1779 87.7004 29.5677 87.6808 29.9517 87.7025Z"/></g></svg>