<svg width="100%" height="100%" viewBox="0 0 300 300" stroke-miterlimit="10" style="fill-rule:nonzero;clip-rule:evenodd;stroke-linecap:round;stroke-linejoin:round;" version="1.1" xml:space="preserve" xmlns="http://www.w3.org/2000/svg" xmlns:xlink="http://www.w3.org/1999/xlink"><defs><linearGradient id="LG" gradientTransform="matrix(-217.027 79.6088 -73.6577 -214.261 265.425 125.664)" gradientUnits="userSpaceOnUse" x1="0" x2="1" y1="0" y2="0"><stop offset="0.0736842" stop-color="#d9d9d9" stop-opacity="0.9"/><stop offset="1" stop-color="#bfbfbf" stop-opacity="0.65"/></linearGradient><filter id="Fi" color-interpolation-filters="sRGB" filterUnits="userSpaceOnUse" height="275.179" width="275.179" x="12.4105" y="13.3594"><feDropShadow dx="-3.48545e-06" dy="0.948885" flood-color="#fff" flood-opacity="0.66" in="SourceGraphic" result="Shadow" stdDeviation="4.23581"/></filter><filter id="Fi2" color-interpolation-filters="sRGB" filterUnits="userSpaceOnUse" height="295.255" width="218.93" x="41.3572" y="6.60725"><feDropShadow dx="-0" dy="0" flood-color="#000" flood-opacity="0.44" in="SourceGraphic" result="Shadow" stdDeviation="5.10995"/></filter><linearGradient id="LG2" gradientTransform="matrix(0.377387 -188.32 -259.399 54.8244 155.423 219.555)" gradientUnits="userSpaceOnUse" x1="0" x2="1" y1="0" y2="0"><stop offset="0" stop-color="#d9d9d9" stop-opacity="0.95"/><stop offset="0.250877" stop-color="#ccc" stop-opacity="0.9"/><stop offset="1" stop-color="#a6a6a6" stop-opacity="0.55"/></linearGradient><filter id="Fi3" color-interpolation-filters="sRGB" filterUnits="userSpaceOnUse" height="220.697" width="70.956" x="114.522" y="68.3902"><feDropShadow dx="-3.48545e-06" dy="0.948885" flood-color="#fff" flood-opacity="0.333" in="SourceGraphic" result="Shadow" stdDeviation="6.04665"/></filter><linearGradient id="LG3" gradientTransform="matrix(116.956 122.527 55.0079 -131.905 151.936 59.0866)" gradientUnits="userSpaceOnUse" x1="0" x2="1" y1="0" y2="0"><stop offset="0" stop-color="#d9d9d9" stop-opacity="0.95"/><stop offset="0.250877" stop-color="#ccc" stop-opacity="0.9"/><stop offset="1" stop-color="#a6a6a6" stop-opacity="0.55"/></linearGradient><linearGradient id="LG4" gradientTransform="matrix(-114.815 117.289 195.264 141.232 147.116 52.5143)" gradientUnits="userSpaceOnUse" x1="0" x2="1" y1="0" y2="0"><stop offset="0" stop-color="#d9d9d9" stop-opacity="0.95"/><stop offset="0.250877" stop-color="#ccc" stop-opacity="0.9"/><stop offset="1" stop-color="#a6a6a6" stop-opacity="0.55"/></linearGradient><linearGradient id="LG5" gradientTransform="matrix(0.380977 -258.307 -355.764 75.4087 148.119 254.763)" gradientUnits="userSpaceOnUse" x1="0" x2="1" y1="0" y2="0"><stop offset="0" stop-color="#d9d9d9" stop-opacity="0.95"/><stop offset="0.250877" stop-color="#ccc" stop-opacity="0.9"/><stop offset="1" stop-color="#a6a6a6" stop-opacity="0.55"/></linearGradient><linearGradient id="LG6" gradientTransform="matrix(119.967 117.117 49.8074 -132.398 154.291 62.182)" gradientUnits="userSpaceOnUse" x1="0" x2="1" y1="0" y2="0"><stop offset="0" stop-color="#d9d9d9" stop-opacity="0.95"/><stop offset="0.250877" stop-color="#ccc" stop-opacity="0.9"/><stop offset="1" stop-color="#a6a6a6" stop-opacity="0.55"/></linearGradient><filter id="Fi4" color-interpolation-filters="sRGB" filterUnits="userSpaceOnUse" height="129.433" width="105.564" x="141.948" y="25.8396"><feDropShadow dx="-3.48545e-06" dy="0.948885" flood-color="#fff" flood-opacity="0.333" in="SourceGraphic" result="Shadow" stdDeviation="3.22073"/></filter><linearGradient id="LG7" gradientTransform="matrix(-102.306 103.77 172.915 126.005 132.402 65.956)" gradientUnits="userSpaceOnUse" x1="0" x2="1" y1="0" y2="0"><stop offset="0" stop-color="#d9d9d9" stop-opacity="0.95"/><stop offset="0.250877" stop-color="#ccc" stop-opacity="0.9"/><stop offset="1" stop-color="#a6a6a6" stop-opacity="0.55"/></linearGradient><filter id="Fi5" color-interpolation-filters="sRGB" filterUnits="userSpaceOnUse" height="127.647" width="122.358" x="54.1321" y="25.9816"><feDropShadow dx="-3.48545e-06" dy="0.948885" flood-color="#fff" flood-opacity="0.44" in="SourceGraphic" result="Shadow" stdDeviation="2.56298"/></filter><filter id="Fi6" color-interpolation-filters="sRGB" filterUnits="userSpaceOnUse" height="45.0056" width="56.9812" x="121.509" y="236.136"><feGaussianBlur in="SourceGraphic" result="Blur" stdDeviation="3.2477"/></filter><filter id="Fi7" color-interpolation-filters="sRGB" filterUnits="userSpaceOnUse" height="46.8416" width="74.0708" x="121.222" y="22.6902"><feGaussianBlur in="SourceGraphic" result="Blur" stdDeviation="3.5"/></filter><filter id="Fi8" color-interpolation-filters="sRGB" filterUnits="userSpaceOnUse" height="53.5019" width="60.5721" x="101.397" y="19.3821"><feGaussianBlur in="SourceGraphic" result="Blur" stdDeviation="4.82322"/></filter><filter id="Fi9" color-interpolation-filters="sRGB" filterUnits="userSpaceOnUse" height="68.985" width="57.9799" x="121.009" y="22.5332"><feGaussianBlur in="SourceGraphic" result="Blur" stdDeviation="3.5628"/></filter></defs><g opacity="1"><path fill="url(#LG)" fill-rule="nonzero" filter="url(#Fi)" stroke="none" d="M150 23C79.8634 23 23 79.8634 23 150C23 220.136 79.8634 277 150 277C220.136 277 277 220.136 277 150C277 79.8634 220.136 23 150 23ZM149.911 31.4402C151.197 31.4402 152.445 31.5366 153.712 31.7937C153.742 31.7993 153.77 31.8321 153.8 31.8378C155.053 32.0778 156.267 32.4528 157.468 32.9426C159.968 33.9629 162.335 35.4663 164.361 37.5824L186.543 60.7818C221.658 75.1883 246.42 109.692 246.42 150C246.42 196.265 213.841 234.907 170.371 244.255L170.371 252.695C170.371 263.894 160.722 273.022 150 273.022C139.278 273.022 129.628 263.894 129.628 252.695L129.628 244.255C86.1587 234.907 53.579 196.265 53.579 150C53.579 109.689 78.3379 75.2323 113.455 60.8259L135.682 37.5824C139.621 33.4687 144.769 31.4402 149.911 31.4402Z"/><g filter="url(#Fi2)"><path fill="url(#LG2)" fill-rule="nonzero" filter="url(#Fi3)" stroke="none" d="M150 273.022C160.722 273.022 170.361 263.896 170.361 252.698L170.361 103.825L150 82.558L129.638 103.825L129.638 252.698C129.638 263.896 139.278 273.022 150 273.022L150 273.022Z"/><path fill="url(#LG3)" fill-rule="nonzero" opacity="0.543771" stroke="none" d="M157.468 32.9426C159.888 33.971 162.127 35.5257 164.096 37.5824C172.078 45.9201 172.078 59.5144 164.096 67.8521L150 82.6112L205.015 140.101C212.892 148.329 225.597 148.329 233.473 140.101C241.456 131.764 241.456 118.169 233.473 109.832L164.361 37.5824C162.336 35.4668 159.966 33.9702 157.468 32.9426Z"/><path fill="url(#LG4)" fill-rule="nonzero" opacity="0.543771" stroke="none" d="M149.911 31.4402C148.63 31.4547 147.328 31.5706 146.067 31.8378C142.265 32.6013 138.636 34.4972 135.682 37.5824L66.5264 109.832C58.5439 118.169 58.5439 131.764 66.5264 140.101C74.4032 148.329 87.1072 148.329 94.9842 140.101L150 82.6112L164.096 67.8521C172.078 59.5144 172.078 45.9201 164.096 37.5824C162.127 35.5257 159.888 33.971 157.468 32.9426C156.326 32.4577 155.125 32.094 153.933 31.8378C153.858 31.8228 153.786 31.8079 153.712 31.7937C152.445 31.5366 151.197 31.4402 149.911 31.4402Z"/><path fill="url(#LG5)" fill-rule="nonzero" opacity="0" stroke="none" d="M150 273.022C160.722 273.022 170.361 263.896 170.361 252.698L170.361 103.825L150 82.558L129.638 103.825L129.638 252.698C129.638 263.896 139.278 273.022 150 273.022L150 273.022Z"/><path fill="url(#LG6)" fill-rule="nonzero" filter="url(#Fi4)" stroke="none" d="M157.468 32.9426C159.888 33.971 162.127 35.5257 164.096 37.5824C172.078 45.9201 172.078 59.5144 164.096 67.8521L150 82.6112L205.015 140.101C212.892 148.329 225.597 148.329 233.473 140.101C241.456 131.764 241.456 118.169 233.473 109.832L164.361 37.5824C162.336 35.4668 159.966 33.9702 157.468 32.9426Z"/><path fill="url(#LG7)" fill-rule="nonzero" filter="url(#Fi5)" stroke="none" d="M149.911 31.4402C148.63 31.4547 147.328 31.5706 146.067 31.8378C142.265 32.6013 138.636 34.4972 135.682 37.5824L66.5264 109.832C58.5439 118.169 58.5439 131.764 66.5264 140.101C74.4032 148.329 87.1072 148.329 94.9842 140.101L150 82.6112L164.096 67.8521C172.078 59.5144 172.078 45.9201 164.096 37.5824C162.127 35.5257 159.888 33.971 157.468 32.9426C156.326 32.4577 155.125 32.094 153.933 31.8378C153.858 31.8228 153.786 31.8079 153.712 31.7937C152.445 31.5366 151.197 31.4402 149.911 31.4402Z"/><path fill="#fff" fill-rule="nonzero" filter="url(#Fi6)" opacity="0.915825" stroke="none" d="M129.628 244.255L129.628 252.695C129.628 263.894 139.278 273.022 150 273.022C160.722 273.022 170.371 263.894 170.371 252.695L170.371 244.255C163.804 245.667 156.989 246.42 150 246.42C143.01 246.42 136.196 245.667 129.628 244.255Z"/><path fill="#fff" fill-rule="nonzero" filter="url(#Fi7)" opacity="0.915825" stroke="none" d="M150.132 31.4402C144.99 31.4402 139.842 33.4687 135.903 37.5824C131.215 42.4794 129.34 49.2159 130.159 55.6115C136.56 54.2734 143.201 53.579 150 53.579C162.947 53.579 175.264 56.1539 186.543 60.7818L164.361 37.5824C160.423 33.4687 155.275 31.4402 150.132 31.4402Z"/><path fill="#fff" fill-rule="nonzero" filter="url(#Fi8)" opacity="0.915825" stroke="none" d="M149.911 31.4402C144.769 31.4402 139.621 33.4687 135.682 37.5824L113.455 60.8259C118.809 58.6296 124.372 56.8213 130.159 55.6115C129.34 49.2159 131.215 42.4794 135.903 37.5824C139.786 33.5272 144.842 31.497 149.911 31.4402Z"/><path fill="#fff" fill-rule="nonzero" filter="url(#Fi9)" opacity="0.358171" stroke="none" d="M149.911 31.4402C144.842 31.4979 139.786 33.5272 135.903 37.5824C127.921 45.9201 127.921 59.5585 135.903 67.8962L150 82.6112L164.096 67.8521C172.078 59.5144 172.078 45.9201 164.096 37.5824C162.127 35.5257 159.888 33.971 157.468 32.9426C156.326 32.4577 155.125 32.094 153.933 31.8378C153.858 31.8228 153.786 31.8079 153.712 31.7937C152.445 31.5366 151.197 31.4402 149.911 31.4402Z"/></g></g></svg>