<svg xmlns="http://www.w3.org/2000/svg" xmlns:xlink="http://www.w3.org/1999/xlink" width="100%" height="100%" viewBox="0 0 100 100" xml:space="preserve"><defs><filter id="Filter_Magritte" width="30.463" height="35.009" x="32.652" y="53.773" color-interpolation-filters="sRGB" filterUnits="userSpaceOnUse"><feDropShadow dx="-.98" dy=".823" flood-color="#000" flood-opacity=".8" in="SourceGraphic" result="Shadow" stdDeviation="1.547"/></filter><filter id="Filter_Magritte_2" width="57.736" height="16.827" x="19.015" y="35.591" color-interpolation-filters="sRGB" filterUnits="userSpaceOnUse"><feDropShadow dx="-.98" dy=".823" flood-color="#000" flood-opacity=".8" in="SourceGraphic" result="Shadow" stdDeviation="1.547"/></filter><filter id="Filter_Magritte_3" width="48.645" height="54.95" x="23.561" y="15.649" color-interpolation-filters="sRGB" filterUnits="userSpaceOnUse"><feDropShadow dx="-.98" dy=".823" flood-color="#000" flood-opacity=".8" in="SourceGraphic" result="Shadow" stdDeviation="1.547"/></filter><filter id="Filter_Magritte_4" width="53.191" height="41.827" x="21.288" y="6.045" color-interpolation-filters="sRGB" filterUnits="userSpaceOnUse"><feDropShadow dx="-.98" dy=".823" flood-color="#000" flood-opacity=".8" in="SourceGraphic" result="Shadow" stdDeviation="1.547"/></filter><filter id="Filter_Magritte_5" width="30.463" height="35.009" x="32.652" y="67.409" color-interpolation-filters="sRGB" filterUnits="userSpaceOnUse"><feDropShadow dx="-.98" dy=".823" flood-color="#000" flood-opacity=".8" in="SourceGraphic" result="Shadow" stdDeviation="1.547"/></filter><filter id="Filter_Magritte_6" width="16.827" height="33.872" x="39.47" y="69.682" color-interpolation-filters="sRGB" filterUnits="userSpaceOnUse"><feDropShadow dx="-.98" dy=".823" flood-color="#000" flood-opacity=".8" in="SourceGraphic" result="Shadow" stdDeviation="1.547"/></filter><filter id="Filter_Magritte_7" width="82.736" height="107.736" x="7.652" y="-3.045" color-interpolation-filters="sRGB" filterUnits="userSpaceOnUse"><feDropShadow dx="-.98" dy=".823" flood-color="#000" flood-opacity=".8" in="SourceGraphic" result="Shadow" stdDeviation="1.547"/></filter><filter id="Filter_Magritte_8" width="53.191" height="13.418" x="21.288" y="19.682" color-interpolation-filters="sRGB" filterUnits="userSpaceOnUse"><feDropShadow dx="-.98" dy=".823" flood-color="#000" flood-opacity=".8" in="SourceGraphic" result="Shadow" stdDeviation="1.547"/></filter><filter id="Filter_Magritte_9" width="16.427" height="25.918" x="41.234" y="20.136" color-interpolation-filters="sRGB" filterUnits="userSpaceOnUse"><feDropShadow dx="-.98" dy=".823" flood-color="#000" flood-opacity=".8" in="SourceGraphic" result="Shadow" stdDeviation="1.547"/></filter><filter id="Filter_Magritte_10" width="19.1" height="15.383" x="30.379" y="23.375" color-interpolation-filters="sRGB" filterUnits="userSpaceOnUse"><feDropShadow dx="-.98" dy=".823" flood-color="#000" flood-opacity=".8" in="SourceGraphic" result="Shadow" stdDeviation="1.547"/></filter><filter id="Filter_Magritte_11" width="34.922" height="30.525" x="30.61" y="35.544" color-interpolation-filters="sRGB" filterUnits="userSpaceOnUse"><feDropShadow dx="-.98" dy=".823" flood-color="#000" flood-opacity=".8" in="SourceGraphic" result="Shadow" stdDeviation="1.547"/></filter></defs><g opacity="1"><path fill="#ff9800" d="M48.8636 84.0909L37.5 70.4545L37.5 56.8182L60.2273 56.8182L60.2273 70.4545L48.8636 84.0909Z" filter="url(#Filter_Magritte)"/><path fill="#ffa726" d="M73.8636 43.1818C73.8636 45.6818 71.8182 47.7273 69.3182 47.7273C66.8182 47.7273 64.7727 45.6818 64.7727 43.1818C64.7727 40.6818 66.8182 38.6364 69.3182 38.6364C71.8182 38.6364 73.8636 40.6818 73.8636 43.1818M32.9545 43.1818C32.9545 40.6818 30.9091 38.6364 28.4091 38.6364C25.9091 38.6364 23.8636 40.6818 23.8636 43.1818C23.8636 45.6818 25.9091 47.7273 28.4091 47.7273C30.9091 47.7273 32.9545 45.6818 32.9545 43.1818" filter="url(#Filter_Magritte_2)"/><path fill="#ffb74d" d="M69.3182 29.5455C69.3182 12.2727 28.4091 18.1818 28.4091 29.5455L28.4091 45.4545C28.4091 56.8182 37.5 65.9091 48.8636 65.9091C60.2273 65.9091 69.3182 56.8182 69.3182 45.4545L69.3182 29.5455Z" filter="url(#Filter_Magritte_3)"/><path fill="#8d6e63" d="M48.8636 9.09091C35 9.09091 26.1364 20.2273 26.1364 34.0909L26.1364 39.3182L30.6818 43.1818L30.6818 31.8182L57.9545 22.7273L67.0455 31.8182L67.0455 43.1818L71.5909 39.3182L71.5909 34.0909C71.5909 25 69.3182 15.9091 57.9545 13.6364L55.6818 9.09091L48.8636 9.09091Z" filter="url(#Filter_Magritte_4)"/><path fill="#fff" d="M48.8636 97.7273L37.5 70.4545L48.8636 72.7273L60.2273 70.4545L48.8636 97.7273Z" filter="url(#Filter_Magritte_5)"/><path fill="#e65100" d="M46.5909 79.5455L45 89.7727L48.8636 98.8636L52.7273 89.7727L51.1364 79.5455L53.4091 77.2727L48.8636 72.7273L44.3182 77.2727L46.5909 79.5455Z" filter="url(#Filter_Magritte_6)"/><path fill="#37474f" d="M60.2273 70.4545L48.8636 97.7273L37.5 70.4545C37.5 70.4545 12.5 75 12.5 100L87.5 100C87.5 75 60.2273 70.4545 60.2273 70.4545M77.9545 25C77.0455 25 74.7727 25.4545 71.5909 25.9091L71.5909 17.9545C71.5909 6.36364 61.8182 0 49.7727 0L48.1818 0C35.9091 0 26.1364 6.36364 26.1364 17.9545L26.1364 25.9091C22.9545 25.4545 20.6818 25 19.7727 25C17.0455 25 17.0455 27.2727 17.0455 27.2727C17.0455 27.2727 19.3182 34.0909 31.3636 34.0909C40.6818 34.0909 36.8182 34.0909 48.8636 34.0909C60.9091 34.0909 58.1818 34.0909 67.7273 34.0909C78.4091 34.0909 80.6818 27.2727 80.6818 27.2727C80.6818 27.2727 80.6818 25 77.9545 25Z" filter="url(#Filter_Magritte_7)"/><path fill="#78909c" d="M48.8636 28.4091C56.8182 28.4091 65.6818 27.0455 71.5909 25.9091L71.5909 22.7273L26.1364 22.7273L26.1364 25.9091C32.0455 27.0455 40.9091 28.4091 48.8636 28.4091Z" filter="url(#Filter_Magritte_8)"/><path fill="#795548" d="M46.5909 41.3636C44.0909 29.3182 51.5909 23.4091 52.0455 23.1818L54.7727 26.8182L53.4091 25L54.7727 26.8182C54.5455 27.0455 49.0909 31.3636 51.1364 40.4545L46.5909 41.3636Z" filter="url(#Filter_Magritte_9)"/><path fill="#8bc34a" d="M46.5909 33.8636C46.5909 33.8636 45.6818 23.8636 35.2273 27.0455C36.3636 35.9091 46.5909 33.8636 46.5909 33.8636Z" filter="url(#Filter_Magritte_10)"/><path fill="#689f38" d="M48.8636 40.9091C48.6364 40.6818 48.4091 40.4545 48.1818 40.4545C47.9545 40.2273 47.7273 40.2273 47.5 40C39.3182 35.4545 34.3182 42.7273 35.6818 50C37.0455 56.8182 43.1818 63.1818 47.5 60.9091C47.7273 60.9091 47.7273 60.6818 47.9545 60.6818L48.1818 60.4545C48.1818 60.4545 48.1818 60.4545 48.4091 60.2273L48.6364 60C48.8636 59.7727 48.8636 59.7727 49.0909 59.5455C53.4091 64.5455 61.1364 57.5 62.5 49.7727C63.6364 42.2727 57.9545 34.7727 48.8636 40.9091Z" filter="url(#Filter_Magritte_11)"/></g></svg>