<svg xmlns="http://www.w3.org/2000/svg" xmlns:vectornator="http://vectornator.io" xmlns:xlink="http://www.w3.org/1999/xlink" width="100%" height="100%" viewBox="0 0 100 100" xml:space="preserve"><defs><linearGradient id="LinearGradient" x1="18.68" x2="53.665" y1="105.488" y2="95.383" gradientTransform="matrix(1 0 0 1 0 0)" gradientUnits="userSpaceOnUse"><stop offset="0" stop-color="#fff"/><stop offset=".324" stop-color="#fff"/><stop offset=".738" stop-color="#dedede"/><stop offset="1" stop-color="#ccc"/></linearGradient><linearGradient id="LinearGradient_2" x1="209.357" x2="1308.52" y1="732.753" y2="717.35" gradientTransform="matrix(0.0720964 0 0 0.0720964 0.0989639 0.109042)" gradientUnits="userSpaceOnUse"><stop offset="0" stop-color="#000"/><stop offset="1" stop-color="#797979"/></linearGradient><linearGradient id="LinearGradient_3" x1="19.758" x2="485.031" y1="325.405" y2="294.895" gradientTransform="matrix(0.0719601 0 0 0.0719601 0.136623 0.109042)" gradientUnits="userSpaceOnUse"><stop offset="0" stop-color="#000"/><stop offset="1" stop-color="#171717"/></linearGradient><linearGradient id="LinearGradient_4" x1=".127" x2="24.048" y1="76.817" y2="76.817" gradientTransform="matrix(1 0 0 1 0 0)" gradientUnits="userSpaceOnUse"><stop offset=".155" stop-color="#fff"/><stop offset=".713" stop-color="#e6e6e6"/><stop offset="1" stop-color="#ccc"/></linearGradient><linearGradient id="LinearGradient_5" x1="13.41" x2="42.924" y1="55.171" y2="55.171" gradientTransform="matrix(1 0 0 1 0 0)" gradientUnits="userSpaceOnUse"><stop offset=".155" stop-color="#fff"/><stop offset=".713" stop-color="#e6e6e6"/><stop offset="1" stop-color="#ccc"/></linearGradient><linearGradient id="LinearGradient_6" x1="6.096" x2="-4.789" y1="83.57" y2="91.374" gradientTransform="matrix(1 0 0 1 0 0)" gradientUnits="userSpaceOnUse"><stop offset="0" stop-color="#02103d"/><stop offset=".493" stop-color="#080063"/><stop offset="1" stop-color="#0b0078"/></linearGradient><linearGradient id="LinearGradient_7" x1="448.813" x2="609.228" y1="795.03" y2="795.03" gradientTransform="matrix(0.0713755 0 0 0.0713755 -18.2111 0.0550668)" gradientUnits="userSpaceOnUse"><stop offset="0" stop-color="#e10512"/><stop offset="1" stop-color="#a70101"/></linearGradient><linearGradient id="LinearGradient_8" x1="472.895" x2="515.001" y1="800.867" y2="777.92" gradientTransform="matrix(0.0713755 0 0 0.0713755 -18.21 0.0543192)" gradientUnits="userSpaceOnUse"><stop offset="0" stop-color="#e10512"/><stop offset="1" stop-color="#8c0101"/></linearGradient><linearGradient id="LinearGradient_9" x1="0" x2="43.03" y1="53.938" y2="53.938" gradientTransform="matrix(1 0 0 1 0 0)" gradientUnits="userSpaceOnUse"><stop offset="0" stop-color="#230175"/><stop offset="1" stop-color="#00003e"/></linearGradient><linearGradient id="LinearGradient_10" x1="250.601" x2="238.451" y1="1002.44" y2="467.697" gradientTransform="matrix(0.0719601 0 0 0.0719601 0.136623 0.109042)" gradientUnits="userSpaceOnUse"><stop offset="0" stop-color="#230175"/><stop offset="1" stop-color="#00003e"/></linearGradient><linearGradient id="LinearGradient_11" x1="482.973" x2="1128.04" y1="715.489" y2="4.359" gradientTransform="matrix(0.0713755 0 0 0.0713755 -18.21 0.0543192)" gradientUnits="userSpaceOnUse"><stop offset="0" stop-color="#f00513"/><stop offset="1" stop-color="#aa040e"/></linearGradient><linearGradient id="LinearGradient_12" x1="537.949" x2="531.498" y1="20.06" y2="526.502" gradientTransform="matrix(0.0713755 0 0 0.0713755 -18.21 0.0543192)" gradientUnits="userSpaceOnUse"><stop offset=".378" stop-color="#c94f56"/><stop offset="1" stop-color="#973b41"/></linearGradient><linearGradient id="LinearGradient_13" x1="836.018" x2="832.722" y1="463.198" y2="995.69" gradientTransform="matrix(0.0713755 0 0 0.0713755 -18.21 0.0543192)" gradientUnits="userSpaceOnUse"><stop offset=".504" stop-color="#e0848a"/><stop offset="1" stop-color="#b66b70"/></linearGradient><linearGradient id="LinearGradient_14" x1="367.904" x2="238.451" y1="380.197" y2="467.697" gradientTransform="matrix(0.0719601 0 0 0.0719601 0.136623 0.109042)" gradientUnits="userSpaceOnUse"><stop offset="0" stop-color="#230175"/><stop offset="1" stop-color="#00003e"/></linearGradient></defs><g id="Layer" layerName="Layer"><g layerName="Group 1" opacity="1"><path fill="url(#LinearGradient)" d="M27.457 100C38.1952 100.024 38.1952 99.9757 48.9334 100C48.9091 99.9272 48.9091 100.074 48.8848 100C48.3222 100 44.459 98.838 41.3507 96.5269C37.5108 93.6711 34.2939 89.0574 33.5445 87.1831C32.7603 85.2231 32.3902 82.9905 32.2295 80.9013C32.1586 79.9777 32.2179 79.0477 32.1321 78.1256C32.1267 78.0677 32.044 78.0363 31.986 78.0278C31.4885 77.9564 30.7445 78.7829 30.5251 79.002C29.4017 80.1255 29.2311 82.5979 29.1128 84.0176C29.0757 84.463 29.0394 85.0947 29.0153 85.5279C28.9739 86.2738 28.9447 87.0211 28.918 87.7677C28.8867 88.6449 28.8579 89.5214 28.8205 90.3979C28.7188 92.7911 28.5624 95.2121 28.0414 97.5561C27.8831 98.2699 27.786 99.3419 27.457 100Z" layerName="path" opacity="1"/><path fill="url(#LinearGradient_2)" d="M36.5953-4.44089e-16C36.9787 0.766809 38.3284 1.44821 38.986 2.01193C40.4226 3.24323 41.7902 4.52327 43.1333 5.86648C45.8795 8.6126 47.9959 11.954 49.9642 15.2345C51.4308 17.6787 52.7276 20.4993 53.6236 23.1875C54.2782 25.1515 53.1183 27.4709 53.7311 29.3095C54.335 31.1208 55.1256 32.7139 55.5863 34.5561C56.0954 36.5927 56.1558 38.8082 56.6663 40.8503C56.998 42.1771 57.7866 43.6378 57.9505 44.9487C58.2748 47.5431 61.5567 70.9283 61.5567 70.9283L45.4592 71.2915C45.4592 71.2915 45.4944 51.0481 45.4789 40.867C45.4755 38.7084 45.452 34.9337 42.9903 34.2354C41.5563 33.8286 40.7101 33.856 39.5715 33.873C39.5256 33.8737 39.5065 33.9381 39.474 33.9706C39.6303 34.1268 41.0359 34.3366 41.8834 35.5446C42.5171 36.4479 42.6633 38.3528 42.6943 38.801C42.891 41.6548 42.8998 44.7349 42.8406 47.6323C42.8375 47.7822 42.6466 47.861 42.5478 47.9738C42.3278 48.2252 41.9816 48.659 41.6208 48.8033C41.4112 48.8872 40.8427 48.8957 40.7425 49.0961C40.4048 49.7715 40.4056 50.9273 40.2547 51.682C39.9381 53.2648 39.5801 54.8392 39.23 56.4148C38.0261 61.8324 35.3408 66.2363 31.033 69.8814C28.7713 71.7953 26.1719 73.2406 23.4702 74.3212C22.6471 74.651 21.791 74.9365 20.9331 75.1506C20.713 75.2063 20.1151 75.2256 20.006 75.4433C19.896 75.6638 20.1573 76.3733 20.2012 76.6152C20.4056 77.7387 20.6115 78.8614 20.8355 79.9813C21.4285 82.9463 22.0044 85.9504 22.836 88.8611C23.1996 90.1338 23.8415 91.6355 23.9094 92.9602C24.0073 94.8681 23.5337 96.1778 23.0311 97.9365C22.8507 98.5682 22.3968 99.3448 22.3968 100C24.1045 100 25.8126 100.032 27.52 100C27.6401 99.9979 27.8365 98.9508 27.8615 98.8637C28.2041 97.6646 28.3992 96.3913 28.5446 95.155C28.9125 92.0274 28.9068 88.8797 29.0813 85.7385C29.1185 85.0711 29.1539 84.403 29.2277 83.7378C29.3923 82.2575 29.6245 80.3882 30.6426 79.2005C30.8844 78.9185 31.4492 78.2369 31.9601 78.3218C32.0054 78.3304 32.0553 78.3739 32.0576 78.4203C32.0885 79.0206 32.0463 79.6237 32.0576 80.2254C32.0835 81.5994 32.2958 83.029 32.5944 84.3723C33.4485 88.2166 35.0508 90.9767 37.8639 93.7896C40.1268 96.0522 42.9689 97.8323 45.9145 99.01C46.5868 99.2791 48.1649 99.9822 48.7932 99.9857C54.1602 100.018 100 100 100 100L100-4.44089e-16C100-4.44089e-16 50.7449-4.44089e-16 36.5953-4.44089e-16Z" layerName="path" opacity="0"/><path fill="url(#LinearGradient_3)" d="M0-4.44089e-16L0 33.809C0 33.809 26.1746 33.8901 39.1936 33.8578C39.2624 33.8576 39.3349 33.7804 39.3396 33.7116C39.3622 33.3891 40.0614 26.9112 35.3964 14.7313C33.1316 8.81795 27.8976 4.3127 22.9556 1.09386C22.4476 0.763022 21.5113 0.315362 20.7721-4.44089e-16C20.4857-0.122216 0-4.44089e-16 0-4.44089e-16Z" layerName="path" opacity="1"/><path fill="url(#LinearGradient_4)" d="M18.3989 64.0514C18.1629 63.8153 18.2026 62.8961 18.1554 62.5417C17.9707 61.1567 18.0178 59.4857 17.6197 58.1588C17.591 58.0632 16.5459 58.1204 16.2074 57.8665C14.9466 56.921 15.179 54.9561 15.8178 53.6784C15.4736 53.3341 14.6392 54.4163 14.4543 54.555C14.2125 54.7362 13.5071 54.1167 13.2368 54.1167C13.1057 54.1167 11.4726 55.3546 11.2401 55.5289C11.6646 56.3782 12.7212 55.9992 13.5289 56.0647C13.5747 56.0684 13.6058 56.1211 13.6263 56.162C13.7637 56.4369 13.3587 57.6083 13.3341 57.9153C13.2433 59.0508 13.2603 59.9299 13.2368 61.1781C13.1809 64.14 13.4134 67.1341 13.5777 70.0901C13.63 71.0315 13.6699 71.973 13.7238 72.9144C13.7433 73.2563 13.8883 73.6018 13.8212 73.9372C13.8122 73.9822 13.7697 74.0329 13.7238 74.035C12.9126 74.0657 12.1005 74.035 11.2889 74.035C11.2563 74.035 11.2238 74.035 11.1914 74.035C8.88629 74.035 3.59829 74.0372 3.59829 74.0372C3.70369 74.1792 3.57519 74.3476 3.41444 74.5711C3.41444 74.5711 3.13682 74.9101 2.83695 75.1628C2.61464 75.3498 2.54295 75.4775 2.02953 75.6089C1.80923 75.6638 1.30721 75.6867 0.935505 75.6588C0.602618 75.6345 0.347502 75.6146 0.133449 75.5953C0.109099 76.5196 0.160972 76.4704 0.136623 77.3947C0.858334 77.6359 1.88672 77.9271 2.66149 78.0235C2.92457 78.057 3.63756 77.9143 4.69046 78.0235C4.69046 78.0235 4.52147 78.7558 4.71277 79.4431C5.06445 80.7072 6.27523 81.5273 7.1777 82.129C8.82326 83.226 10.6069 83.9905 12.1167 85.2845C12.6132 85.7099 13.3082 86.2524 13.4803 86.9404C13.6896 87.7777 13.9522 88.6784 14.0964 89.5442C14.6664 92.9645 13.0904 96.9808 11.581 100C15.1847 100.016 22.4691 100.041 22.4897 100C22.6952 99.5889 22.7775 98.6895 22.928 98.2385C23.5331 96.4234 24.048 94.7825 24.048 92.8332C24.048 91.557 23.3263 89.966 22.9766 88.7419C22.3454 86.5329 21.9161 84.2617 21.4183 82.0219C21.0525 80.3753 20.7459 78.713 20.4443 77.0542C20.3813 76.7073 19.9838 75.5896 20.2008 75.3005C20.2841 75.1899 20.0422 75.3047 20.0422 75.3047C20.0422 75.3047 18.7074 63.7429 18.3989 64.0514Z" layerName="path" opacity="1"/><path fill="url(#LinearGradient_5)" d="M16.25 35.0312C15.8453 35.0145 15.4702 35.1851 15.1875 35.6562C14.3862 36.9919 13.8727 39.699 13.5625 41.25C13.4456 41.8346 13.3024 42.4904 13.5312 43.0625C14.1302 44.5597 15.7188 44.4482 15.7188 46.3125C15.7188 47.515 15.0545 48.7423 14.4688 49.7188C14.3354 49.9409 13.8365 50.5553 14.0312 50.75C14.1509 50.8697 14.6008 50.9278 14.7812 51C15.1697 51.1554 15.5301 51.3437 15.9688 51.3438C16.3276 51.3438 16.7963 51.0378 17.125 50.9062C17.7353 50.6621 18.4491 50.625 19.0938 50.625C20.7902 50.625 22.684 53.277 23.5625 54.375C23.8561 54.7421 25.2196 56.3373 25.1562 56.7812C24.8944 58.6138 22.3363 61.2982 21.0625 62.0625C20.4759 62.4145 19.6427 62.5454 19.0938 62.9375C18.7084 63.2127 18.7147 63.754 18.4062 64.0625C18.7147 63.754 20.0312 75.3125 20.0312 75.3125C20.0312 75.3125 20.2708 75.2019 20.1875 75.3125C20.2708 75.2019 20.9043 75.133 21.0625 75.0938C21.8503 74.8968 22.6497 74.6151 23.4062 74.3125C25.9065 73.3125 28.2864 71.9544 30.4375 70.2812C35.1489 66.6168 37.9844 62.0391 39.25 56.3438C39.5995 54.7711 39.9341 53.2048 40.25 51.625C40.3977 50.8865 40.4158 49.8248 40.75 49.1562C40.8656 48.925 41.3711 48.946 41.5938 48.8125C41.9363 48.6069 42.357 48.1742 42.5938 47.9375C42.7085 47.8227 42.8996 47.6934 42.9062 47.5312C42.9367 46.7852 42.9212 46.0591 42.9062 45.3125C42.8926 44.6303 42.3767 43.6065 41.9688 43.0625C39.8371 40.2203 37.0623 39.5116 33.5312 39.4688C31.145 39.4398 28.7612 39.4363 26.375 39.4062C25.868 39.3999 25.3148 39.3272 24.8125 39.25C22.86 38.9496 21.0684 38.2052 19.4688 37.0625C18.7805 36.5709 18.1737 35.9699 17.4688 35.5C17.0814 35.2418 16.6547 35.048 16.25 35.0312Z" layerName="Curve 2" opacity="1"/><path fill="url(#LinearGradient_6)" d="M0 77.314L0 100L11.5428 100C11.5428 100 12.1903 98.6389 12.4089 98.0928C13.0498 96.4898 13.7043 94.8874 14.016 93.1736C14.085 92.7939 14.3706 91.7754 14.1133 91.5177C13.7711 91.689 13.6623 92.2715 13.4315 92.5405C12.9412 93.113 12.6048 93.639 12.0193 94.1965C11.9275 94.2835 11.8514 94.4149 11.727 94.4398C10.0864 94.7682 9.83772 92.7368 9.68177 91.5663C9.36978 89.2273 9.19035 86.8027 8.5616 84.6022C8.53262 84.5008 7.98724 82.7157 7.98724 82.7157C6.91821 82.1511 5.99671 81.341 5.38061 80.6594C4.37487 79.5474 4.65877 78.2055 4.61697 78.1741C4.4025 78.0135 3.16187 78.0535 2.86379 78.0278C1.88072 77.9457 0.908403 77.6174 0 77.314Z" layerName="path" opacity="1"/><path fill="#020025" d="M13.4001 63.2641C13.4001 63.2641 13.3973 62.5252 13.3829 62.006C13.3761 61.7621 13.3962 61.5115 13.3341 61.2755C13.3109 61.1867 13.1488 61.172 13.1393 61.0807C13.0762 60.4652 13.4308 59.6676 12.9932 59.2301C12.9202 59.3032 12.9202 59.3032 12.8472 59.3762C12.6291 59.2309 11.0507 58.3974 11.0453 58.3535C11.0388 58.3011 11.0855 57.5796 10.9966 57.3796C10.879 57.115 10.5952 56.9644 10.7044 56.6003C10.7963 56.294 11.0584 56.1423 11.2401 55.8699C11.2889 55.9186 11.2889 55.9186 11.3375 55.9672C11.4349 55.8942 11.5023 56.0364 11.5997 55.9634C11.4279 55.7916 11.417 55.7367 11.3375 55.5777C11.7424 55.1727 12.6793 54.3535 13.2368 54.2141C13.5711 54.1305 14.1284 54.7921 14.4543 54.6524C14.7257 54.5361 14.9444 54.1141 15.1847 53.9219C14.1873 52.9244 13.9092 52.3147 13.9672 50.8052C13.969 50.7593 14.0322 50.7403 14.0646 50.7077C13.5628 50.206 12.7934 50.5072 12.068 50.5616C11.9427 50.571 11.6588 50.7906 11.5322 50.8538C9.7258 51.7571 8.18459 53.9469 6.98168 55.5509C6.80757 55.783 6.45179 56.2795 6.37015 56.5517C6.25841 56.9241 6.83508 58.4176 8.16568 59.8878C9.50661 61.3694 11.6031 62.8267 11.9017 62.9283C12.6259 63.1747 13.4001 63.2641 13.4001 63.2641Z" layerName="path" opacity="1"/><path fill="#000" d="M7.9215 82.68C9.46707 87.6906 9.07522 89.3137 9.58434 91.8589C9.81895 93.0316 10.08 94.8802 11.727 94.5369C11.9409 94.4927 13.6154 93.4006 14.2162 92.0202C14.2162 91.1459 14.0239 88.6235 13.4022 86.8205C13.0201 85.7128 11.9394 84.9555 11.3865 84.5643C10.0401 83.6093 9.22932 83.3688 7.9215 82.68Z" layerName="path" opacity="1"/><path fill="#000" d="M0 64.7818L0 73.9372C3.7438 74.0193 7.36142 74.1842 11.1914 74.1321C11.2602 74.1314 11.2889 74.035 11.3375 73.9858C10.9246 73.5732 10.1779 73.6225 9.68177 73.4019C9.02069 73.1079 8.51506 72.5654 7.90038 72.1971C4.81089 70.3432 2.48796 67.2698 0 64.7818Z" layerName="path" opacity="1"/><path fill="#fcfcfc" d="M18.3015 54.1167C17.7885 54.2877 17.3937 54.3128 17.3276 54.6524C17.3032 54.7772 17.4585 54.99 17.4755 55.203C17.4993 55.5014 17.4155 56.0344 17.7143 56.0531C18.4433 56.0987 18.9347 56.0799 19.6651 56.0647C19.9565 56.0586 20.1837 55.7408 20.3468 55.5777C20.0988 55.0815 18.9367 54.4099 18.3015 54.1167Z" layerName="path" opacity="1"/><path fill="url(#LinearGradient_7)" d="M18.4894 50.5242C18.0461 50.521 17.6043 50.5865 17.18 50.7562C16.6871 50.9534 16.1662 51.2447 15.6209 51.2447C15.2004 51.2447 14.3866 50.8461 14.015 50.6603C13.7146 50.9607 13.8531 51.5004 13.8678 51.925C13.895 52.7134 14.7933 53.8367 15.1347 53.9703C15.1996 53.9957 15.9136 53.2449 16.3703 54.2617C16.5076 54.5673 16.9594 54.7295 17.3265 54.6531C17.4565 54.5392 18.1661 54.2157 18.3488 54.2157C18.6688 54.2157 19.3814 54.9502 19.6648 55.1391C20.7355 55.853 21.947 56.4033 22.9748 57.0886C22.0778 58.8826 20.6994 58.3915 18.8841 58.5004C18.6541 58.5142 18.4073 59.601 18.3979 59.7673C18.3472 60.655 18.2428 62.3378 18.9823 63.0774C19.5581 62.7895 20.2633 62.584 20.8335 62.299C22.3287 61.5514 23.5367 60.1112 24.3868 58.6945C24.6834 58.2 25.3501 57.1919 25.2655 56.6001C25.2424 56.4386 24.8705 56.06 24.777 55.9198C24.124 54.9401 23.3684 54.0223 22.5867 53.1428C21.9092 52.3806 20.9611 50.9972 19.8098 50.7094C19.377 50.6012 18.9325 50.5274 18.4894 50.5242Z" layerName="path" opacity="1"/><path fill="url(#LinearGradient_8)" d="M15.6717 53.8245C15.0081 55.1518 14.9907 56.796 16.0614 57.8665C16.3185 58.1238 17.2046 58.3202 17.4736 58.1588C17.513 58.1351 17.5837 56.9767 17.5714 56.5525C17.5678 56.4276 17.5632 56.4016 17.5593 56.3119C17.5551 56.2145 17.5506 56.107 17.5448 55.9944C17.5318 55.7381 17.5122 55.4551 17.4744 55.2027C17.4416 54.9837 17.1099 53.4224 16.8235 53.0588C16.5589 52.7229 15.8959 53.5206 15.6717 53.8245Z" layerName="path" opacity="1"/><path fill="#000" d="M20.3468 55.4803C20.1203 55.7069 20.0174 55.9061 19.7138 55.9186C19.3856 55.932 18.0139 56.1564 17.5558 56.3213C17.5558 56.3213 17.5669 56.8098 17.5463 57.2691C17.5256 57.7284 17.4733 58.1584 17.4733 58.1584C17.5097 59.6116 17.8172 61.0527 18.0093 62.493C18.0715 62.9593 18.0264 64.1173 18.3502 64.4409C18.6387 64.2486 18.85 63.3927 19.032 63.0287C18.734 62.7306 18.6742 62.1162 18.5937 61.7138C18.4419 60.9549 18.3546 60.1865 18.545 59.425C18.582 59.2769 18.7594 58.608 18.9346 58.597C19.6798 58.5505 20.4281 58.6108 21.1747 58.597C21.714 58.587 23.1618 57.5262 23.074 57.0874C23.0414 56.9242 20.665 55.7984 20.3468 55.4803Z" layerName="path" opacity="1"/><path fill="#0b0a1b" d="M11.4118 55.8512C11.3223 55.1945 10.1785 56.1537 10.0957 56.8094C9.97683 57.7505 10.7171 59.129 10.7171 59.129C10.7171 59.129 12.5197 59.1948 12.7984 59.4736C12.8715 59.425 12.0707 61.2126 12.1438 61.164C12.6493 61.6694 13.3702 61.9733 13.372 61.9275C13.4031 61.1164 13.3218 59.5546 13.3341 58.7431C13.3465 57.9332 13.3941 56.8213 13.7724 56.0647C13.3242 55.6164 12.5069 55.9835 11.8732 55.9672C11.7162 55.9632 11.5352 55.9129 11.4118 55.8512Z" layerName="path" opacity="1"/><path fill="#1f1e2b" d="M9.63887 78.6787C9.63887 78.6787 12.4049 79.9014 13.1393 80.2682C13.1881 80.2197 13.1881 80.2197 13.2368 80.1712C12.5892 79.5231 12.0435 78.8864 11.1427 78.6609C10.7163 78.5545 9.63887 78.6787 9.63887 78.6787Z" layerName="path" opacity="1"/><path fill="#e10512" d="M9.77912 78.7101C9.70746 78.5667 6.81872 77.4489 5.63966 76.8594C5.32264 76.7009 4.51222 76.1235 4.17867 76.324C3.22801 76.8936 5.2599 78.521 5.49356 78.6609C6.39723 79.204 7.74763 79.7929 8.80513 79.4403C9.21162 79.3054 9.4029 78.8978 9.77912 78.7101Z" layerName="path" opacity="1"/><path fill="#e10512" d="M0 73.8816L0 75.5931C0.709263 75.6574 1.97331 75.8344 2.62029 75.3498C2.69956 75.2898 4.06467 74.1485 3.49689 73.9858C3.15314 73.888 2.78281 73.9487 2.4255 73.9372C1.67897 73.9137 0.746723 73.8973 0 73.8816Z" layerName="path" opacity="1"/><path fill="url(#LinearGradient_9)" d="M39.2423 33.7022L0 33.7996L0 64.8589C0 64.8589 1.90797 66.9821 1.9872 67.0614C3.00343 68.0775 5.31456 70.6812 7.48476 72.3848C9.00662 73.5804 10.6469 74.1842 10.917 74.1257C10.917 74.1257 12.8635 74.1871 13.6751 74.1713C13.7278 74.1699 13.8552 74.0621 13.8699 74.0257C14.0112 73.6724 13.7916 72.5668 13.7724 72.175C13.7535 71.7853 13.7427 71.3954 13.7238 71.0059C13.6255 68.9929 13.5105 66.9812 13.4315 64.9672C13.3983 64.1173 13.4829 63.109 13.2368 63.068C12.7984 62.9949 12.2162 62.9939 11.7758 62.8244C11.6085 62.7601 10.943 62.222 10.943 62.222C10.943 62.222 8.59543 60.2035 7.85962 58.7318C7.5223 58.057 6.9491 57.4373 7.10746 56.5663C7.20168 56.0481 7.68761 55.6168 8.02985 55.2062C9.03475 54.0002 10.2598 51.3173 11.6784 50.8443C12.398 50.6045 12.7858 50.776 13.8212 50.6983C14.2372 50.6671 14.6479 49.5639 14.8439 49.2372C15.3229 48.4389 16.1351 45.9917 15.5743 45.2439C15.0378 44.5285 13.8036 44.0046 13.5777 43.1012C13.1548 41.4094 14.085 39.2804 14.5516 37.6469C14.7184 37.0633 14.8645 36.1907 15.2334 35.6989C15.9902 34.6898 16.9062 35.3144 17.7171 35.8937C19.4045 37.0988 20.8151 38.3371 22.8306 38.9131C26.2773 39.8978 29.8866 39.503 33.447 39.5462C33.8769 39.5513 37.162 39.4844 39.69 41.0179C41.4985 42.115 42.1044 43.833 42.998 45.0237C43.0757 40.0273 43.1032 36.6986 41.9408 35.0118C41.2579 34.1031 40.3301 33.7998 39.2423 33.7022Z" layerName="path" opacity="1"/><path fill="#1f1e2b" d="M18.3989 44.5229C18.0477 44.5346 16.3693 46.1655 17.1327 46.4709C17.3821 46.5707 17.7176 45.7037 17.9606 45.6431C18.7377 45.4487 19.0038 46.0326 19.7625 46.0326C20.1854 46.0326 20.2009 45.3266 20.0059 45.1073C19.5018 44.5401 19.1708 44.4972 18.3989 44.5229Z" layerName="path" opacity="1"/><path fill="#000" d="M12.7498 44.6203C12.3269 44.6451 11.6139 45.7351 12.2141 45.9352C12.9286 46.1734 13.3488 45.4123 14.016 45.5943C14.3616 45.6886 14.6975 46.5846 15.0386 46.4709C15.4294 46.3406 14.6477 45.0572 14.503 44.9125C14.0021 44.4116 13.5841 44.5715 12.7498 44.6203Z" layerName="path" opacity="1"/><path fill="#000" d="M23.085 49.5286C23.085 49.2588 23.3078 49.04 23.5827 49.04C23.8576 49.04 24.0804 49.2588 24.0804 49.5286C24.0804 49.7983 23.8576 50.0171 23.5827 50.0171C23.3078 50.0171 23.085 49.7983 23.085 49.5286Z" layerName="path" opacity=".978"/><path fill="url(#LinearGradient_10)" d="M39.3396 33.7116L22.7994 33.7431C22.7994 33.7431 20.8151 38.3371 22.8306 38.9131C26.2773 39.8978 29.8866 39.503 33.447 39.5462C33.6858 39.549 34.8061 39.5297 36.1882 39.7749C37.2937 39.971 38.5666 40.3364 39.69 41.0179C41.4985 42.115 42.1044 43.833 42.998 45.0237C43.0757 40.0273 43.1032 36.6986 41.9408 35.0118C41.2579 34.1031 40.4275 33.8092 39.3396 33.7116Z" layerName="path" opacity="1"/><path fill="url(#LinearGradient_11)" d="M20.4443-4.44089e-16C20.4504 0.0182313 22.0827 0.677466 23.2034 1.32734C26.4348 3.20124 32.1946 8.5707 35.269 14.9316C39.0968 22.8512 39.2499 33.9812 39.2499 33.9812C39.2499 33.9812 40.3213 33.8409 41.8057 33.967C42.4267 34.0197 44.1848 33.9904 44.9241 35.5696C45.6422 37.1033 45.6861 40.3002 45.6861 40.3002L45.4582 71.2921L62.2388 71.2921C62.2388 71.2921 59.4684 42.615 54.2646 25.2446C50.2067 11.6986 43.113 5.74726 42.6025 5.23678C41.4491 4.08334 36.8295 0.0015914 36.5638-4.44089e-16C31.1907-0.0321741 25.8175-4.44089e-16 20.4443-4.44089e-16Z" layerName="path" opacity="1"/><path fill="url(#LinearGradient_12)" d="M18.593-4.44089e-16C18.5985 0.0170645 19.7233 0.484012 20.7227 0.999381C23.709 2.53931 29.892 8.4353 32.9283 14.9317C36.6299 22.8513 36.7781 33.9822 36.7781 33.9822L39.2495 33.9666C39.2489 33.9203 39.0879 22.8347 35.2681 14.9317C32.3104 8.81224 26.9309 3.57434 23.2034 1.32734C21.8591 0.516985 20.451 0.0203128 20.4443-4.44089e-16C20.4443-4.44089e-16 21.191-1.41811e-09 18.593-4.44089e-16Z" layerName="path" opacity="1"/><path fill="url(#LinearGradient_13)" d="M40.7796 33.9153C39.936 33.9028 39.4448 33.9638 39.3476 33.9755C40.0045 34.0225 41.5783 34.0532 42.2651 35.5703C42.9594 37.1041 43.0012 40.3012 43.0012 40.3012L42.7826 71.2915L45.4592 71.2915L45.6867 40.3012C45.6867 40.3012 45.6419 37.1041 44.9238 35.5703C44.1845 33.9911 42.4266 34.0193 41.8057 33.9666C41.4346 33.9351 41.0888 33.9199 40.7796 33.9153Z" layerName="path" opacity="1"/><path fill="url(#LinearGradient_14)" d="M39.3396 33.7116L22.7994 33.7431C22.7994 33.7431 20.8151 38.3371 22.8306 38.9131C26.2773 39.8978 29.8866 39.503 33.447 39.5462C33.6858 39.549 34.8061 39.5297 36.1882 39.7749C37.2937 39.971 38.5666 40.3364 39.69 41.0179C41.4985 42.115 42.1044 43.833 42.998 45.0237C43.0757 40.0273 43.1032 36.6986 41.9408 35.0118C41.2579 34.1031 40.4275 33.8092 39.3396 33.7116Z" layerName="path" opacity="1"/></g></g></svg>