<?xml version="1.0" encoding="UTF-8" standalone="no"?>
<!DOCTYPE svg PUBLIC "-//W3C//DTD SVG 1.1//EN" "http://www.w3.org/Graphics/SVG/1.1/DTD/svg11.dtd">
<!-- Created with Vectornator (http://vectornator.io/) -->
<svg height="100%" stroke-miterlimit="10" style="fill-rule:nonzero;clip-rule:evenodd;stroke-linecap:round;stroke-linejoin:round;" version="1.1" viewBox="0 0 900 1386" width="100%" xml:space="preserve" xmlns="http://www.w3.org/2000/svg" xmlns:vectornator="http://vectornator.io" xmlns:xlink="http://www.w3.org/1999/xlink">
<defs>
<linearGradient gradientTransform="matrix(1 0 0 1 0 0)" gradientUnits="userSpaceOnUse" id="LinearGradient" x1="275.745" x2="1081.66" y1="692.761" y2="679.568">
<stop offset="0" stop-color="#000000"/>
<stop offset="1" stop-color="#797979"/>
</linearGradient>
<linearGradient gradientTransform="matrix(1 0 0 1 0 0)" gradientUnits="userSpaceOnUse" id="LinearGradient_2" x1="19.7578" x2="485.031" y1="325.405" y2="294.895">
<stop offset="0" stop-color="#000000"/>
<stop offset="1" stop-color="#171717"/>
</linearGradient>
<linearGradient gradientTransform="matrix(1 0 0 1 0 0)" gradientUnits="userSpaceOnUse" id="LinearGradient_3" x1="250.601" x2="238.451" y1="1002.44" y2="467.697">
<stop offset="0" stop-color="#230175"/>
<stop offset="1" stop-color="#00003e"/>
</linearGradient>
</defs>
<clipPath id="ArtboardFrame">
<rect height="1386" width="900" x="0" y="0"/>
</clipPath>
<g clip-path="url(#ArtboardFrame)" id="Layer-1" vectornator:layerName="Layer 1">
<g opacity="1" vectornator:layerName="Group 1">
<path d="M506.215 0C511.533 10.6359 530.254 18.5747 539.376 26.3936C559.301 43.4722 578.27 61.2267 596.9 79.8574C634.99 117.947 664.345 164.293 691.646 209.795C711.988 243.697 729.975 282.82 742.403 320.106C751.483 347.347 757.59 375.14 766.09 400.641C774.465 425.765 774.59 452.239 780.979 477.791C788.041 506.04 790.14 536.769 797.221 565.093C801.822 583.497 806.453 603.758 808.726 621.94C813.224 657.925 862.801 983.427 862.801 983.427L630.833 988.395C630.833 988.395 629.649 706.541 629.433 565.325C629.387 535.384 629.061 483.029 594.916 473.343C575.027 467.701 563.288 468.081 547.497 468.316C546.859 468.326 546.595 469.219 546.144 469.67C548.311 471.837 567.808 474.747 579.563 491.503C588.352 504.031 590.381 530.453 590.81 536.669C593.539 576.253 593.66 618.974 592.84 659.162C592.797 661.241 590.149 662.334 588.779 663.899C585.728 667.386 580.925 673.403 575.921 675.404C573.014 676.567 565.129 676.686 563.739 679.465C559.055 688.833 559.065 704.864 556.972 715.333C552.581 737.286 547.616 759.123 542.76 780.979C526.061 856.122 488.814 917.206 429.064 967.764C397.694 994.308 361.64 1014.36 324.167 1029.35C312.75 1033.92 300.875 1037.88 288.976 1040.85C285.923 1041.62 277.63 1041.89 276.117 1044.91C274.59 1047.97 278.216 1057.81 278.824 1061.16C281.659 1076.75 284.515 1092.32 287.622 1107.85C295.848 1148.98 303.835 1190.65 315.369 1231.02C320.412 1248.67 329.316 1269.5 330.258 1287.87C331.615 1314.34 325.047 1332.5 318.076 1356.9C315.573 1365.66 309.278 1376.23 309.278 1385.32C332.965 1385.32 356.656 1385.77 380.338 1385.32C382.004 1385.29 384.728 1370.97 385.075 1369.76C389.826 1353.13 392.533 1335.46 394.55 1318.32C399.653 1274.94 399.574 1231.28 401.994 1187.71C402.509 1178.45 403 1169.18 404.024 1159.96C406.307 1139.42 409.528 1113.5 423.65 1097.02C427.003 1093.11 434.838 1083.66 441.923 1084.84C442.552 1084.95 443.244 1085.56 443.276 1086.2C443.704 1094.53 443.119 1102.89 443.276 1111.24C443.636 1130.3 446.58 1150.13 450.721 1168.76C462.569 1222.08 484.792 1260.36 523.811 1299.38C555.199 1330.76 594.619 1355.45 635.476 1371.79C644.801 1375.52 666.69 1385.27 675.404 1385.32C749.846 1385.77 900 1386 900 1386L900 4.44089e-16C900 4.44089e-16 702.475 0 506.215 0Z" fill="url(#LinearGradient)" fill-rule="nonzero" opacity="1" stroke="none"/>
<path d="M0 0L0 468.316C0 468.316 361.84 469.443 542.76 468.993C543.717 468.991 544.723 467.918 544.79 466.963C545.103 462.481 554.82 372.46 489.993 203.2C458.519 121.024 385.784 58.4166 317.107 13.6857C310.048 9.08811 297.035 4.37488 286.763-0.00758373C282.783-1.70597 0 0 0 0Z" fill="url(#LinearGradient_2)" fill-rule="nonzero" opacity="1" stroke="none"/>
<path d="M253.784 888.583C250.504 885.303 251.057 872.528 250.4 867.604C247.834 848.356 248.488 825.135 242.956 806.695C242.557 805.367 228.034 806.163 223.33 802.635C205.809 789.494 209.038 762.189 217.916 744.434C213.132 739.649 201.536 754.688 198.967 756.615C195.608 759.134 185.805 750.524 182.048 750.524C180.227 750.524 157.533 767.726 154.301 770.15C160.201 781.951 174.883 776.685 186.108 777.595C186.744 777.646 187.177 778.378 187.462 778.948C189.371 782.767 183.743 799.046 183.401 803.312C182.139 819.092 182.375 831.309 182.048 848.654C181.271 889.815 184.503 931.422 186.785 972.501C187.512 985.584 188.068 998.671 188.815 1011.75C189.087 1016.5 191.102 1021.3 190.169 1025.96C190.044 1026.59 189.453 1027.29 188.815 1027.32C177.544 1027.75 166.257 1027.32 154.978 1027.32C154.526 1027.32 154.075 1027.32 153.624 1027.32C121.591 1027.32 48.1055 1027.35 48.1055 1027.35C49.5702 1029.33 47.7844 1031.67 45.5506 1034.77C45.5506 1034.77 41.6926 1039.48 37.5254 1042.99C34.436 1045.59 33.4399 1047.37 26.305 1049.19C23.2436 1049.96 16.2673 1050.27 11.1018 1049.89C6.47577 1049.55 2.9305 1049.27-0.0441126 1049C-0.382491 1061.85 0.338379 1061.16 0 1074.01C10.0294 1077.36 24.3204 1081.41 35.0872 1082.75C38.7431 1083.21 48.6512 1081.23 63.283 1082.75C63.283 1082.75 60.9346 1092.92 63.5931 1102.48C68.4802 1120.04 85.306 1131.44 97.8473 1139.8C120.715 1155.05 145.501 1165.67 166.482 1183.65C173.382 1189.56 183.041 1197.1 185.432 1206.66C188.341 1218.3 191.989 1230.82 193.994 1242.85C201.915 1290.38 180.014 1342.69 159.038 1384.65C209.118 1384.87 259.198 1385.55 309.278 1385.32C309.916 1385.32 310.346 1384.54 310.632 1383.97C313.489 1378.26 314.632 1369.94 316.723 1363.67C325.132 1338.44 332.288 1315.64 332.288 1288.55C332.288 1270.82 322.259 1248.71 317.399 1231.7C308.627 1201 302.661 1169.44 295.743 1138.31C290.66 1115.43 286.399 1092.33 282.208 1069.28C281.333 1064.46 275.809 1048.93 278.824 1044.91C279.982 1043.37 288.807 1042.76 291.006 1042.21C301.953 1039.47 312.977 1035.58 323.49 1031.38C358.235 1017.48 391.05 998.458 420.943 975.208C486.416 924.285 525.849 860.801 543.437 781.655C548.293 759.8 553.258 737.963 557.648 716.01C559.701 705.748 559.772 690.784 564.416 681.495C566.023 678.281 572.826 678.614 575.921 676.758C580.681 673.902 586.843 667.866 590.133 664.576C591.728 662.981 594.101 661.416 594.193 659.162C594.617 648.794 594.401 638.406 594.193 628.031C594.004 618.551 587.004 604.459 581.335 596.9C551.712 557.403 513.326 547.415 464.256 546.82C431.096 546.418 397.932 546.561 364.772 546.144C357.726 546.055 350.096 545.187 343.116 544.113C315.982 539.939 290.903 529.538 268.673 513.659C259.108 506.827 250.723 498.534 240.926 492.003C230.161 484.827 216.975 480.939 209.118 494.033C197.982 512.594 191.096 550.307 186.785 571.86C185.16 579.985 182.928 588.95 186.108 596.9C194.431 617.707 216.563 616.335 216.563 642.243C216.563 658.953 207.108 676.047 198.967 689.616C197.114 692.704 190.17 701.122 192.876 703.828C194.539 705.491 201.196 706.209 203.704 707.212C209.101 709.371 213.849 711.949 219.946 711.949C224.933 711.949 231.62 707.686 236.188 705.858C244.669 702.466 254.3 701.798 263.259 701.798C286.834 701.798 313.313 738.649 325.521 753.908C329.601 759.009 348.735 781.576 347.854 787.746C344.215 813.212 308.708 850.215 291.006 860.836C282.853 865.727 270.887 867.569 263.259 873.018C257.904 876.842 258.071 884.296 253.784 888.583Z" fill="#fcfcfc" fill-rule="nonzero" opacity="1" stroke="none"/>
<path d="M282.208 0C282.546 1.01514 297.562 5.79476 304.541 8.12109C322.482 14.1013 431.289 87.9912 488.223 205.785C541.416 315.841 543.542 470.511 543.542 470.511C543.542 470.511 570.22 469.501 584.479 471.59C584.479 471.59 597.435 473.567 607.547 480.969C626.879 495.119 629.339 542.613 629.385 557.648C629.815 699.58 629.816 989.008 629.816 989.008L863.01 984.202C863.01 984.202 824.511 590.491 752.197 349.1C695.805 160.857 597.227 78.1535 590.133 71.0596C574.104 55.0307 509.908 0.0221146 506.215 0C431.547-0.447111 356.877 0 282.208 0Z" fill="#e10512" fill-rule="nonzero" opacity="1" stroke="none"/>
<path d="M0.062558 1072.89C-0.275821 1228.88-1.38491 1387.87-1.38491 1387.87L158.508 1387.55C158.508 1387.55 167.506 1369.23 170.543 1361.64C179.449 1339.37 188.546 1317.1 192.876 1293.28C193.835 1288.01 197.804 1273.85 194.229 1270.27C189.473 1272.65 187.961 1280.75 184.755 1284.49C177.94 1292.44 173.266 1299.75 165.129 1307.5C163.853 1308.71 162.796 1310.53 161.068 1310.88C138.268 1315.44 134.813 1287.21 132.645 1270.95C128.31 1238.44 125.816 1204.75 117.079 1174.17C116.676 1172.76 109.097 1147.95 109.097 1147.95C94.2412 1140.11 81.4354 1128.85 72.8737 1119.38C58.8973 1103.92 62.8425 1085.28 62.2617 1084.84C59.2813 1082.61 42.0408 1083.16 37.8984 1082.81C24.237 1081.67 12.6863 1077.1 0.062558 1072.89Z" fill="#180155" fill-rule="nonzero" opacity="1" stroke="none"/>
<path d="M379.661 1384.65C528.886 1384.98 528.886 1384.98 678.111 1385.32C677.773 1384.31 677.773 1384.31 677.435 1383.29C669.617 1383.29 615.931 1372 572.737 1339.88C519.375 1300.2 474.671 1236.08 464.256 1210.04C453.359 1182.8 448.216 1151.77 445.983 1122.74C444.997 1109.91 445.822 1096.98 444.63 1084.17C444.555 1083.36 443.405 1082.93 442.6 1082.81C435.685 1081.82 425.347 1093.3 422.297 1096.35C406.687 1111.96 404.315 1146.32 402.671 1166.05C402.156 1172.24 401.652 1181.01 401.317 1187.03C400.741 1197.4 400.335 1207.78 399.964 1218.16C399.529 1230.35 399.129 1242.53 398.61 1254.71C397.195 1287.97 395.023 1321.61 387.782 1354.19C385.582 1364.1 384.233 1375.5 379.661 1384.65Z" fill="#fcfcfc" fill-rule="nonzero" opacity="1" stroke="none"/>
<path d="M192.876 702.475C188.701 706.649 190.642 714.17 190.846 720.07C191.224 731.027 200.168 742.289 208.441 748.494C211.191 746.661 212.941 744.501 215.886 746.464C206.663 764.909 206.422 787.757 221.3 802.635C224.874 806.209 237.187 808.939 240.926 806.695C241.473 806.367 242.241 805.979 242.279 805.342C242.702 798.361 242.702 791.343 242.279 784.362C241.891 777.954 241.835 763.848 238.896 757.969C240.386 756.478 250.514 751.878 253.107 751.878C257.554 751.878 267.442 762.111 271.38 764.736C286.259 774.656 303.116 782.284 317.399 791.807C304.934 816.738 285.778 809.919 260.552 811.433C257.355 811.624 253.916 826.716 253.784 829.028C253.079 841.364 251.628 864.77 261.905 875.048C269.908 871.047 279.697 868.182 287.622 864.22C308.4 853.831 325.213 833.827 337.025 814.14C341.148 807.268 350.382 793.263 349.207 785.039C348.886 782.795 343.738 777.512 342.439 775.564C333.363 761.95 322.848 749.21 311.985 736.989C302.569 726.396 289.409 707.151 273.41 703.151C261.382 700.144 248.656 699.112 236.865 703.828C230.015 706.568 222.786 710.596 215.209 710.596C209.366 710.596 198.04 705.057 192.876 702.475Z" fill="#e10512" fill-rule="nonzero" opacity="1" stroke="none"/>
<path d="M184.317 877.643C184.317 877.643 184.279 867.375 184.078 860.159C183.984 856.769 184.264 853.287 183.401 850.008C183.077 848.774 180.825 848.57 180.694 847.301C179.817 838.747 184.744 827.664 178.664 821.584C177.649 822.599 177.649 822.599 176.634 823.614C173.603 821.594 151.67 810.011 151.594 809.402C151.503 808.673 152.153 798.647 150.917 795.867C149.283 792.191 145.339 790.098 146.856 785.039C148.134 780.782 151.776 778.674 154.301 774.888C154.978 775.564 154.978 775.564 155.654 776.241C157.008 775.226 157.944 777.202 159.298 776.187C156.911 773.8 156.759 773.037 155.654 770.827C161.282 765.199 174.3 753.815 182.048 751.878C186.694 750.717 194.438 759.91 198.967 757.969C202.738 756.353 205.779 750.489 209.118 747.817C195.257 733.956 191.392 725.483 192.199 704.505C192.224 703.867 193.102 703.603 193.553 703.151C186.579 696.178 175.886 700.365 165.806 701.121C164.065 701.252 160.119 704.303 158.361 705.182C133.257 717.734 111.84 748.165 95.1232 770.455C92.7037 773.681 87.7595 780.58 86.625 784.362C85.0722 789.538 93.0859 810.293 111.577 830.724C130.211 851.313 159.345 871.564 163.495 872.976C173.559 876.4 184.317 877.643 184.317 877.643Z" fill="#000000" fill-rule="nonzero" opacity="1" stroke="none"/>
<path d="M108.184 1147.46C129.662 1217.09 124.216 1239.64 131.291 1275.01C134.552 1291.31 138.18 1317 161.068 1312.23C164.04 1311.61 187.31 1296.44 195.658 1277.26C195.658 1265.11 192.986 1230.05 184.347 1205C179.037 1189.6 164.018 1179.08 156.335 1173.64C137.625 1160.37 126.358 1157.03 108.184 1147.46Z" fill="#000000" fill-rule="nonzero" opacity="1" stroke="none"/>
<path d="M0.676758 898.734C-48.5033 944.152 0.338379 962.35 0 1025.96C52.0262 1027.1 100.4 1029.4 153.624 1028.67C154.581 1028.66 154.978 1027.32 155.654 1026.64C149.916 1020.9 139.54 1021.59 132.645 1018.52C123.459 1014.44 113.439 1010.11 104.897 1004.99C61.9631 979.225 35.251 933.309 0.676758 898.734Z" fill="#000000" fill-rule="nonzero" opacity="1" stroke="none"/>
<path d="M280.854 769.474C277.706 772.622 276.275 775.392 272.057 775.564C261.686 775.988 251.285 775.594 240.926 776.241C240.289 776.281 239.697 776.969 239.572 777.595C239.121 779.851 240.791 782.066 240.926 784.362C241.35 791.569 240.745 798.802 240.926 806.019C241.431 826.213 245.701 846.912 248.37 866.927C249.234 873.407 248.608 889.498 253.107 893.997C257.117 891.324 260.053 879.429 262.582 874.371C258.44 870.229 257.61 861.691 256.491 856.099C254.382 845.552 253.169 834.874 255.814 824.291C256.329 822.233 258.794 812.938 261.229 812.786C271.585 812.139 281.984 812.978 292.359 812.786C299.852 812.647 319.973 797.905 318.753 791.807C318.299 789.539 285.275 773.894 280.854 769.474Z" fill="#000000" fill-rule="nonzero" opacity="1" stroke="none"/>
<path d="M156.686 774.628C155.443 765.502 139.549 778.833 138.398 787.944C136.746 801.022 147.034 820.178 147.034 820.178C147.034 820.178 172.082 821.093 175.957 824.968C176.972 824.291 165.844 849.134 166.859 848.457C173.884 855.482 183.902 859.705 183.927 859.068C184.36 847.797 183.23 826.094 183.401 814.816C183.572 803.561 184.235 788.11 189.492 777.595C183.263 771.366 171.905 776.467 163.099 776.241C160.917 776.185 158.401 775.485 156.686 774.628Z" fill="#0b0a1b" fill-rule="nonzero" opacity="1" stroke="none"/>
<path d="M132.049 1091.85C132.049 1091.85 170.487 1108.84 180.694 1113.94C181.371 1113.27 181.371 1113.27 182.048 1112.59C173.05 1103.59 165.466 1094.74 152.947 1091.61C147.022 1090.13 132.049 1091.85 132.049 1091.85Z" fill="#1f1e2b" fill-rule="nonzero" opacity="1" stroke="none"/>
<path d="M133.998 1092.29C133.002 1090.3 92.8587 1074.76 76.4736 1066.57C72.0681 1064.37 60.8061 1056.34 56.1709 1059.13C42.9598 1067.05 71.1962 1089.66 74.4434 1091.61C87.0013 1099.15 105.767 1107.34 120.463 1102.44C126.112 1100.56 128.77 1094.9 133.998 1092.29Z" fill="#e10512" fill-rule="nonzero" opacity="1" stroke="none"/>
<path d="M-0.0309738 1025.19L-0.303314 1048.97C9.55309 1049.87 25.5238 1052.33 34.5146 1045.59C35.6163 1044.76 54.5866 1028.9 46.6963 1026.64C41.9194 1025.28 36.7731 1026.12 31.8076 1025.96C21.4334 1025.64 10.346 1025.41-0.0309738 1025.19Z" fill="#e10512" fill-rule="nonzero" opacity="1" stroke="none"/>
<path d="M543.437 466.832L0 468.185L0 899.805C0 899.805 24.6158 929.31 25.7168 930.411C49.7426 954.437 77.4524 996.846 109.635 1008.91C112.456 1009.97 114.371 1013.76 117.079 1015.01C121.502 1017.05 130.429 1019.87 135.352 1020.42C138.083 1020.72 148.532 1023.79 150.917 1025.83C152.128 1026.87 152.712 1029.07 154.301 1029.22C165.534 1030.24 176.861 1029.43 188.139 1029.22C188.872 1029.2 190.641 1027.7 190.846 1027.19C192.81 1022.28 189.758 1006.92 189.492 1001.47C189.228 996.058 189.079 990.64 188.815 985.228C187.451 957.254 185.852 929.298 184.755 901.31C184.292 889.499 185.469 875.487 182.048 874.917C175.956 873.901 167.865 873.887 161.745 871.533C159.421 870.639 150.173 863.161 150.173 863.161C150.173 863.161 117.549 835.11 107.324 814.658C102.636 805.282 94.6704 796.67 96.8711 784.566C98.1804 777.365 104.933 771.371 109.689 765.664C123.654 748.906 140.678 711.622 160.392 705.05C170.392 701.717 175.781 704.099 190.169 703.02C195.95 702.587 201.658 687.256 204.381 682.717C211.038 671.622 222.325 637.614 214.532 627.223C207.076 617.281 189.924 610 186.785 597.446C180.908 573.936 193.835 544.349 200.32 521.649C202.637 513.54 204.668 501.414 209.795 494.579C220.312 480.556 233.04 489.236 244.31 497.286C267.758 514.034 287.361 531.242 315.369 539.245C363.267 552.93 413.424 547.443 462.902 548.043C468.876 548.115 514.528 547.185 549.659 568.496C574.79 583.742 593.419 623.306 593.419 623.306C593.419 623.306 603.13 513.109 580.937 485.031C571.142 472.637 558.554 468.188 543.437 466.832Z" fill="url(#LinearGradient_3)" fill-rule="nonzero" opacity="1" stroke="none"/>
<path d="M252.431 750.524C242.681 753.774 237.337 754.395 238.219 765.413C238.55 769.559 236.774 777.335 240.926 777.595C251.057 778.228 261.231 777.806 271.38 777.595C275.429 777.51 278.587 773.095 280.854 770.827C277.407 763.932 261.257 754.599 252.431 750.524Z" fill="#fcfcfc" fill-rule="nonzero" opacity="1" stroke="none"/>
<path d="M253.784 617.203C248.903 617.366 225.579 640.03 236.188 644.273C239.654 645.66 244.316 633.613 247.693 632.769C258.493 630.069 262.19 638.183 272.733 638.183C278.61 638.183 278.825 628.371 276.117 625.324C269.111 617.442 264.511 616.846 253.784 617.203Z" fill="#1f1e2b" fill-rule="nonzero" opacity="1" stroke="none"/>
<path d="M175.28 618.557C169.403 618.901 159.495 634.049 167.836 636.829C177.766 640.139 183.605 629.563 192.876 632.092C197.68 633.402 202.347 645.854 207.088 644.273C212.518 642.463 201.655 624.628 199.644 622.617C192.683 615.656 186.875 617.878 175.28 618.557Z" fill="#000000" fill-rule="nonzero" opacity="1" stroke="none"/>
<path d="M256.481 0.198716C256.808 1.21385 271.328 5.99347 278.077 8.31981C295.426 14.3001 400.644 88.1899 455.7 205.984C507.139 316.04 509.195 470.709 509.195 470.709C509.195 470.709 534.994 469.7 548.782 471.788C548.782 471.788 561.31 473.766 571.089 481.168C589.783 495.318 592.163 542.811 592.207 557.847C592.622 699.778 592.624 989.207 592.624 989.207L818.126 984.401C818.126 984.401 780.897 590.69 710.968 349.299C656.436 161.056 561.109 78.3522 554.249 71.2583C538.749 55.2294 476.67 0.220831 473.099 0.198716C400.894-0.248395 328.687 0.198716 256.481 0.198716Z" fill="#e10512" fill-rule="nonzero" opacity="0.674393" stroke="none" vectornator:layerName="Curve 2"/>
<path d="M318.905 686.765C318.905 683.016 322.002 679.976 325.822 679.976C329.641 679.976 332.738 683.016 332.738 686.765C332.738 690.514 329.641 693.554 325.822 693.554C322.002 693.554 318.905 690.514 318.905 686.765Z" fill="#000000" fill-rule="nonzero" opacity="0.978168" stroke="none" vectornator:layerName="Oval 1"/>
<path d="M0 523.24C0 872.573 3.5 1047.41 10.5 1047.74C17.5 1048.07 23 1047.74 27 1046.74C31 1045.74 35 1043.57 39 1040.24C43 1036.91 45.1667 1033.91 45.5 1031.24C45.8333 1028.57 70 1027.24 118 1027.24C142 1027.24 166 1027.24 190 1027.24C188.833 1002.07 187.667 976.906 186.5 951.74C184.167 901.406 183 864.406 183 840.74C183 817.073 184 800.573 186 791.24C187 786.573 188 781.906 189 777.24C184.333 777.073 179.667 776.906 175 776.74C165.667 776.406 160 775.406 158 773.74C156 772.073 155.333 770.573 156 769.24C156.667 767.906 161.167 764.406 169.5 758.74C177.833 753.073 183.667 751.073 187 752.74C190.333 754.406 193.333 755.406 196 755.74C198.667 756.073 201.667 754.406 205 750.74C208.333 747.073 211.5 744.74 214.5 743.74C216 743.24 217.5 742.74 219 742.24C218.167 743.74 217.333 745.24 216.5 746.74C214.833 749.74 213.5 753.406 212.5 757.74C211.5 762.073 211.167 767.906 211.5 775.24C211.833 782.573 212.667 787.74 214 790.74C215.333 793.74 217.333 796.573 220 799.24C222.667 801.906 227.167 803.74 233.5 804.74C239.833 805.74 244.667 820.74 248 849.74C249.667 864.24 251.333 878.74 253 893.24C254.5 889.906 256 886.573 257.5 883.24C260.5 876.573 266.5 871.406 275.5 867.74C284.5 864.073 291.833 860.24 297.5 856.24C303.167 852.24 308.667 847.573 314 842.24C319.333 836.906 324.5 830.74 329.5 823.74C334.5 816.74 338.667 809.74 342 802.74C345.333 795.74 347.167 790.74 347.5 787.74C347.833 784.74 345.167 779.24 339.5 771.24C333.833 763.24 325.667 753.073 315 740.74C304.333 728.406 296 719.74 290 714.74C284 709.74 278.333 706.24 273 704.24C267.667 702.24 262.167 701.24 256.5 701.24C250.833 701.24 243.667 702.906 235 706.24C226.333 709.573 220.667 711.24 218 711.24C215.333 711.24 210.333 709.906 203 707.24C199.333 705.906 195.667 704.573 192 703.24C194.833 698.073 197.667 692.906 200.5 687.74C206.167 677.406 210.333 667.906 213 659.24C215.667 650.573 217 644.24 217 640.24C217 636.24 216.333 632.406 215 628.74C213.667 625.073 209.833 620.74 203.5 615.74C197.167 610.74 193.167 607.24 191.5 605.24C189.833 603.24 188.333 600.406 187 596.74C185.667 593.073 185.167 588.406 185.5 582.74C185.833 577.073 187.333 568.74 190 557.74C192.667 546.74 196 534.573 200 521.24C204 507.906 207.167 499.073 209.5 494.74C211.833 490.406 213.833 487.74 215.5 486.74C217.167 485.74 220.167 485.406 224.5 485.74C228.833 486.073 233.333 487.573 238 490.24C242.667 492.906 248.167 497.073 254.5 502.74C260.833 508.406 267 513.24 273 517.24C279 521.24 286.333 525.24 295 529.24C303.667 533.24 312 536.406 320 538.74C328 541.073 337.5 542.906 348.5 544.24C359.5 545.573 384.5 546.406 423.5 546.74C462.5 547.073 487.5 548.073 498.5 549.74C509.5 551.406 518.333 553.24 525 555.24C531.667 557.24 539.5 560.74 548.5 565.74C557.5 570.74 564.333 575.573 569 580.24C573.667 584.906 577.333 589.24 580 593.24C582.667 597.24 585.667 603.74 589 612.74C592.333 621.74 594 631.74 594 642.74C594 653.74 591.833 661.573 587.5 666.24C583.167 670.906 579.833 673.906 577.5 675.24C575.167 676.573 572.667 677.406 570 677.74C567.333 678.073 565.667 678.74 565 679.74C564.333 680.74 559.833 701.406 551.5 741.74C543.167 782.073 537.5 807.073 534.5 816.74C531.5 826.406 527.5 837.073 522.5 848.74C517.5 860.406 511.833 871.24 505.5 881.24C499.167 891.24 491 902.406 481 914.74C471 927.073 461 938.24 451 948.24C441 958.24 431.333 966.906 422 974.24C412.667 981.573 403.667 988.073 395 993.74C386.333 999.406 375.667 1005.57 363 1012.24C350.333 1018.91 336 1025.24 320 1031.24C304 1037.24 292.833 1040.91 286.5 1042.24C283.333 1042.91 280.167 1043.57 277 1044.24C281.167 1065.57 285.333 1086.91 289.5 1108.24C297.833 1150.91 307 1191.41 317 1229.74C327 1268.07 331.667 1293.07 331 1304.74C330.333 1316.41 326.667 1332.74 320 1353.74C316.667 1364.24 313.333 1374.74 310 1385.24C321.833 1385.07 333.667 1384.91 345.5 1384.74C369.167 1384.41 382.667 1377.41 386 1363.74C389.333 1350.07 391.833 1337.24 393.5 1325.24C395.167 1313.24 397 1285.24 399 1241.24C401 1197.24 402.667 1169.41 404 1157.74C405.333 1146.07 406.5 1137.91 407.5 1133.24C408.5 1128.57 410.667 1122.07 414 1113.74C417.333 1105.41 420.833 1099.07 424.5 1094.74C428.167 1090.41 431.667 1087.41 435 1085.74C438.333 1084.07 440.667 1083.24 442 1083.24C443.333 1083.24 444.333 1091.57 445 1108.24C445.667 1124.91 447.167 1140.07 449.5 1153.74C451.833 1167.41 455 1180.91 459 1194.24C463 1207.57 467.333 1219.24 472 1229.24C476.667 1239.24 481.833 1248.41 487.5 1256.74C493.167 1265.07 501.333 1274.74 512 1285.74C522.667 1296.74 535.833 1308.41 551.5 1320.74C567.167 1333.07 581 1342.74 593 1349.74C605 1356.74 614.667 1361.91 622 1365.24C629.333 1368.57 641.333 1372.74 658 1377.74C674.667 1382.74 719.167 1385.24 791.5 1385.24C827.667 1385.24 863.833 1385.24 900 1385.24C900 1154.24 900 923.24 900 692.24C900 461.24 900 230.24 900-0.760462C750-0.760462 600-0.760462 450-0.760462C300-0.760462 150-0.760462 0-0.760462C0 173.906 0 348.573 0 523.24ZM251.5 618.24C249.167 618.906 247 620.073 245 621.74C243 623.406 241 626.406 239 630.74C237 635.073 236 638.24 236 640.24C236 641.24 236 642.24 236 643.24C236.667 643.073 237.333 642.906 238 642.74C239.333 642.406 240.5 640.906 241.5 638.24C242.5 635.573 244.5 633.573 247.5 632.24C250.5 630.906 253 630.406 255 630.74C257 631.073 259.5 632.24 262.5 634.24C265.5 636.24 268.5 636.906 271.5 636.24C274.5 635.573 276.167 633.906 276.5 631.24C276.833 628.573 276 626.073 274 623.74C272 621.406 268.333 619.74 263 618.74C257.667 617.74 253.833 617.573 251.5 618.24ZM320.5 683.24C319.5 684.573 319 686.073 319 687.74C319 689.406 319.667 690.906 321 692.24C322.333 693.573 323.667 694.24 325 694.24C326.333 694.24 327.833 693.573 329.5 692.24C331.167 690.906 332 689.406 332 687.74C332 686.073 331.333 684.573 330 683.24C328.667 681.906 327 681.24 325 681.24C323 681.24 321.5 681.906 320.5 683.24ZM253 750.24C254.333 750.24 255.5 750.906 256.5 752.24C257.5 753.573 261.5 756.406 268.5 760.74C275.5 765.073 279 768.24 279 770.24C279 772.24 278.167 773.74 276.5 774.74C274.833 775.74 268.333 776.24 257 776.24C245.667 776.24 239.667 772.906 239 766.24C238.333 759.573 240.167 755.24 244.5 753.24C248.833 751.24 251.667 750.24 253 750.24ZM56 1060.24C55.3333 1060.91 55 1062.41 55 1064.74C55 1067.07 56 1070.07 58 1073.74C60 1077.41 65 1082.07 73 1087.74C81 1093.41 88.3333 1097.24 95 1099.24C101.667 1101.24 106.833 1102.24 110.5 1102.24C114.167 1102.24 117.667 1101.57 121 1100.24C124.333 1098.91 126.5 1097.24 127.5 1095.24C128.5 1093.24 129.667 1092.24 131 1092.24C132.333 1092.24 141 1095.57 157 1102.24C165 1105.57 173 1108.91 181 1112.24C179.167 1110.24 177.333 1108.24 175.5 1106.24C171.833 1102.24 167.667 1098.91 163 1096.24C158.333 1093.57 150.5 1091.74 139.5 1090.74C128.5 1089.74 112.667 1084.24 92 1074.24C71.3333 1064.24 60.3333 1059.24 59 1059.24C57.6667 1059.24 56.6667 1059.57 56 1060.24ZM0 1229.24C0 1281.24 0 1333.24 0 1385.24C26.5 1385.24 53 1385.24 79.5 1385.24C132.5 1385.24 162.667 1376.91 170 1360.24C177.333 1343.57 182.667 1329.57 186 1318.24C189.333 1306.91 191.667 1297.41 193 1289.74C194.333 1282.07 195 1271.74 195 1258.74C195 1245.74 194.5 1236.57 193.5 1231.24C192.5 1225.91 190.5 1219.24 187.5 1211.24C184.5 1203.24 179.333 1195.57 172 1188.24C164.667 1180.91 152 1172.07 134 1161.74C116 1151.41 102.667 1143.07 94 1136.74C85.3333 1130.41 79.5 1125.57 76.5 1122.24C73.5 1118.91 70.8333 1115.07 68.5 1110.74C66.1667 1106.41 64.6667 1101.07 64 1094.74C63.3333 1088.41 56.1667 1084.57 42.5 1083.24C28.8333 1081.91 18.3333 1079.91 11 1077.24C7.33333 1075.91 3.66667 1074.57 0 1073.24C0 1125.24 0 1177.24 0 1229.24Z" fill="#000000" fill-rule="nonzero" opacity="0" stroke="none" vectornator:layerName="Curve 1"/>
</g>
</g>
</svg>
