<svg stroke-miterlimit="10" viewBox="0 0 100 100" xmlns="http://www.w3.org/2000/svg" clip-rule="evenodd" stroke-linecap="round" stroke-linejoin="round"><g fill-rule="evenodd"><path d="M64.462 10.245c-.35-.052-.617.081-.8.4.247.353.386.769.4 1.199a8.267 8.267 0 0 0-1.998-.4c.066 2.267 0 4.537-.2 6.796-.08.728-.413 1.26-1 1.6.767-2.475.967-5.006.6-7.596-3.306-6.495-8.57-9.427-15.79-8.795-.125.391-.391.658-.8.8-.402-.176-.402-.442 0-.8a2.324 2.324 0 0 0-1.599-.8c-2.192-.46-4.457-.526-6.796-.2a26.46 26.46 0 0 1-4.397 1C41.022.064 49.817.531 58.466 4.85a23.33 23.33 0 0 1 5.996 5.396z" fill="#929293"/><path d="M43.275 2.65a2.324 2.324 0 0 1 1.6.8c-.403.357-.403.623 0 .799.408-.142.674-.409.799-.8 3.975.17 7.573 1.37 10.793 3.598a45.74 45.74 0 0 0-5.197 2.398c-.24.875-.506 1.741-.8 2.599a58.876 58.876 0 0 1-3.197 1c-3.04.832-6.107 1.565-9.195 2.198-1.237.374-2.17 1.107-2.798 2.199-1.517 1.379-1.983 3.111-1.4 5.196a10.214 10.214 0 0 1 2.6 2.2c1.085.42 2.152.887 3.197 1.398a127.36 127.36 0 0 1-9.594-2.998c-.78-1.712-2.113-2.645-3.997-2.798l-2.2-2.199c-.083.623-.283 1.156-.599 1.6.095-1.44-.304-1.573-1.199-.4-1.4-1.41-1.934-3.142-1.599-5.198a3.9 3.9 0 0 1 1.999-.999l-.4-.4c1.59-2.655 3.721-4.787 6.396-6.396A14.273 14.273 0 0 1 34.48 4.25c1.587-.806 3.253-.939 4.998-.4 1.017-1.074 2.283-1.474 3.797-1.2z" fill="#d9dbdd"/><path d="M34.48 4.249c1.34-.066 2.672 0 3.998.2L36.88 6.046c.276 1.115 1.009 2.114 2.199 2.999.445 1.779.112 3.378-1 4.797a82.705 82.705 0 0 1-5.396 3.997 10.019 10.019 0 0 0-1.2 3.998c-8.723-4.42-9.19-9.55-1.399-15.39l4.398-2.2z" fill="#eff0f2"/><path d="M45.674 3.45c7.22-.633 12.484 2.299 15.79 8.794.367 2.59.167 5.121-.6 7.595a8.105 8.105 0 0 1-2.798 3.198c.778-2.174.978-4.44.6-6.796-.934-1.567-2.333-2.366-4.198-2.398-.167-.289-.433-.489-.8-.6a51.36 51.36 0 0 0-6.395-.2 58.876 58.876 0 0 0 3.198-1c.29-.848.557-1.714.8-2.598a45.74 45.74 0 0 1 5.196-2.398c-3.22-2.228-6.818-3.428-10.793-3.598z" fill="#c2c4c7"/><path d="M43.275 2.65c-1.514-.275-2.78.125-3.797 1.199-1.745-.539-3.411-.406-4.998.4a14.273 14.273 0 0 0-5.996 2.198c-2.675 1.61-4.807 3.741-6.396 6.396l.4.4a3.9 3.9 0 0 0-1.999 1c2.195-5.393 6.059-8.991 11.593-10.794a26.46 26.46 0 0 0 4.397-1c2.339-.326 4.604-.26 6.796.2z" fill="#b3b3b5"/><path d="M44.874 15.042a53.118 53.118 0 0 1 9.994.6c.833.278 1.5.745 1.999 1.399a20.944 20.944 0 0 0-7.595-1.6c-4.06.218-8.083.888-11.993 2l.8-.8a41.978 41.978 0 0 1 6.795-1.599z" fill="#2668d3"/><path d="M47.273 13.043c2.136-.066 4.268 0 6.396.2.366.111.632.311.8.6a29.116 29.116 0 0 0-6.797.4c-1.09-.132-2.023.134-2.798.799a41.978 41.978 0 0 0-6.796 1.6c-.962.149-1.902.417-2.798.799.628-1.092 1.561-1.825 2.798-2.2a144.536 144.536 0 0 0 9.195-2.198z" fill="#aad1e0"/><path d="M56.867 17.04l.8.4v.4c-.22 1.951-1.285 3.15-3.199 3.598.763-.632 1.497-1.3 2.199-1.999a2.597 2.597 0 0 0 0-1.998 4.372 4.372 0 0 1-1.799 1.199c-.317-1.05-.983-1.783-1.999-2.199-4.989-.854-9.653-.055-13.991 2.399-.533.8-.533 1.599 0 2.398l-1.999.4a26.898 26.898 0 0 0 5.597 1.599 1.971 1.971 0 0 1-1.2.2 22.44 22.44 0 0 1-5.596-1.6c-1.36-2.113-.827-3.579 1.599-4.396a54.523 54.523 0 0 1 11.992-2c2.646.063 5.177.596 7.596 1.6z" fill="#1b80f6"/><path d="M47.672 14.242a29.116 29.116 0 0 1 6.796-.4c1.865.033 3.264.832 4.198 2.4.378 2.355.178 4.62-.6 6.795l-6.396 2.399a34.922 34.922 0 0 0 4.397-2.599c.471-.4.876-.872 1.2-1.399.85-1.148.983-2.348.4-3.598v-1.998a23.208 23.208 0 0 0-9.995-1.6z" fill="#9fbdcf"/><path d="M47.672 14.242c3.47-.199 6.801.335 9.994 1.6v1.599l-.8-.4c-.498-.654-1.165-1.12-1.998-1.4a53.118 53.118 0 0 0-9.994-.599c.775-.665 1.708-.931 2.798-.8z" fill="#72a7de"/><path d="M64.462 10.245c1.79 1.465 2.59 3.398 2.399 5.796.135 2.73-.932 4.796-3.198 6.197-.062-.411.008-.83.2-1.2 2.088-1.467 2.754-3.465 1.998-5.996-.307.439-.64.439-.999 0-.026-1.17-.293-2.237-.8-3.198a2.229 2.229 0 0 0-.4-1.2c.183-.318.45-.451.8-.4z" fill="#c0c0c1" opacity=".357"/><path d="M20.489 14.242c-.335 2.056.198 3.788 1.599 5.197.895-1.172 1.294-1.039 1.2.4-.064.541.004 1.09.2 1.6.382-.884.848-.817 1.398.199 2.293.57 4.291 1.636 5.997 3.198a37.991 37.991 0 0 0 6.396 2.599c-4.242-1.191-8.506-2.39-12.792-3.598-.485.098-.752.365-.8.8a5.175 5.175 0 0 1-1.999-.2 8.374 8.374 0 0 1-1.799-3.399 22.57 22.57 0 0 1 0-5.996c.111-.366.311-.633.6-.8z" fill="#a1a2a3"/><path d="M54.468 21.438c-.727.779-1.66 1.179-2.798 1.2-2.796.418-5.594.818-8.395 1.199-.765.114-1.431-.02-1.999-.4.411.061.83-.009 1.2-.2a26.898 26.898 0 0 1-5.597-1.599l1.999-.4c-.533-.8-.533-1.599 0-2.398 4.338-2.454 9.002-3.254 13.991-2.399 1.016.416 1.682 1.15 2 2.199a4.372 4.372 0 0 0 1.798-1.2 2.597 2.597 0 0 1 0 2c-.702.699-1.436 1.366-2.199 1.998z" fill="#2f9cfc"/><path d="M39.677 20.639c-.08-.756.185-1.356.8-1.8a29.916 29.916 0 0 1 12.392-1.199c.335.405.468.871.4 1.4.742-.092 1.075.175 1 .8-.955 1.252-2.22 1.985-3.798 2.198a32.372 32.372 0 0 1-11.193.2c-.108-.64.026-1.172.4-1.6z" fill="#45b8ff"/><path d="M39.677 20.639a8.768 8.768 0 0 1 3.598-1 57.644 57.644 0 0 1 9.594 0 14.477 14.477 0 0 1-4.397 1.6c-2.525.266-5.07.266-7.595 0-.495-.094-.895-.293-1.2-.6z" fill="#5ed4ff"/><path d="M64.063 11.844c.506.961.773 2.027.799 3.198.066 1.469 0 2.94-.2 4.397a187.139 187.139 0 0 0-5.397 6.197 15.746 15.746 0 0 0-2.398 1.799c-.804-.844-1.337-.577-1.6.799v.4c-1.637-.072-3.27.2-4.796.8a87.307 87.307 0 0 0-5.597-.6c3.332-.032 6.264-1.031 8.795-2.998a37.387 37.387 0 0 0 4.397-2.799 8.105 8.105 0 0 0 2.798-3.198c.587-.338.92-.871 1-1.599.2-2.26.266-4.528.2-6.796.68.05 1.351.185 1.998.4z" fill="#646568"/><path d="M57.666 17.84c.584 1.25.45 2.45-.4 3.598a20.366 20.366 0 0 0-6.795 3.398c-4.903 1.141-9.567.608-13.992-1.599-.529-.326-.795-.793-.8-1.4a22.44 22.44 0 0 0 5.597 1.6c.568.38 1.234.514 2 .4 1.87.066 3.735 0 5.596-.2 1.075-.063 2.008-.396 2.798-1 1.138-.02 2.07-.42 2.798-1.199 1.914-.448 2.98-1.647 3.198-3.598z" fill="#79c7ee"/><path d="M38.078 16.641l-.8.8c-2.425.817-2.958 2.283-1.598 4.397.004.606.27 1.073.8 1.399 4.424 2.207 9.088 2.74 13.99 1.6a20.366 20.366 0 0 1 6.797-3.399 5.874 5.874 0 0 1-1.2 1.4 34.922 34.922 0 0 1-4.397 2.598c-3.914 1.238-7.912 1.504-11.993.8a40.873 40.873 0 0 0-3.198-1.4 10.214 10.214 0 0 0-2.598-2.199c-.584-2.085-.118-3.817 1.399-5.196.896-.382 1.836-.65 2.798-.8z" fill="#93c4e5"/><path d="M51.67 22.637c-.79.604-1.723.937-2.798 1-1.861.2-3.726.266-5.597.2 2.754-.374 5.552-.774 8.395-1.2z" fill="#3478ea"/><path d="M64.862 15.042c.359.439.692.439 1 0 .755 2.53.09 4.53-2 5.996a1.972 1.972 0 0 0-.2 1.2 117.826 117.826 0 0 1-5.996 5.396l-2.398.6c.262-1.376.795-1.643 1.599-.8a15.746 15.746 0 0 1 2.398-1.798 187.139 187.139 0 0 1 5.397-6.197c.2-1.456.266-2.928.2-4.397z" fill="#868687"/><path d="M63.663 22.238c-1.622 3.087-4.02 5.352-7.196 6.796-.283-.362-.683-.495-1.2-.4v-.4l2.4-.6c2.06-1.73 4.06-3.53 5.996-5.396z" fill="#b2b3b3" opacity=".965"/><path d="M39.677 26.235c4.081.705 8.079.439 11.993-.8l6.396-2.398a37.387 37.387 0 0 1-4.397 2.799c-5.285 2.016-10.748 2.55-16.39 1.599a37.991 37.991 0 0 1-6.396-2.599c-1.706-1.562-3.704-2.628-5.997-3.198-.55-1.016-1.016-1.083-1.399-.2a3.372 3.372 0 0 1-.2-1.599c.316-.443.516-.976.6-1.599l2.199 2.199c1.884.153 3.216 1.086 3.997 2.798a127.36 127.36 0 0 0 9.594 2.998z" fill="#b2b9c1"/><path d="M92.445 27.834a3.753 3.753 0 0 1-1.599 2.399 5.58 5.58 0 0 1-.8-1.6l-.999-.399c-1.33.365-2.607.902-3.797 1.599-.243-.05-.376-.183-.4-.4a31.59 31.59 0 0 1 3.198-2.598c1.677-.42 3.143-.087 4.397 1z" fill="#878592"/><path d="M37.279 27.434c5.642.951 11.105.418 16.39-1.599-2.531 1.968-5.463 2.967-8.795 2.999 1.878.14 3.743.34 5.597.6a91.81 91.81 0 0 1-14.791.2c-2.27-1.204-4.669-1.737-7.196-1.6.495.276.495.476 0 .6a7.657 7.657 0 0 1-3.198-1.8c-.785-.58-1.318-1.312-1.599-2.198.048-.434.315-.7.8-.8 4.286 1.209 8.55 2.408 12.792 3.599z" fill="#898a8d"/><path d="M90.846 30.233l-.4.8a71.385 71.385 0 0 0-.799 3.997c-1.582-.944-1.582-1.943 0-2.998-.091-.16-.225-.226-.4-.2.44-.359.44-.692 0-1a8.192 8.192 0 0 0-3.598 0 .903.903 0 0 0-.4.6c-.799-.533-1.598-.533-2.398 0v-.4a8.641 8.641 0 0 1 1.999-1.599c.024.217.157.35.4.4a15.798 15.798 0 0 1 3.797-1.599l1 .4a5.58 5.58 0 0 0 .8 1.599z" fill="#605f70"/><path d="M92.445 27.834c1.36.96 2.427 2.159 3.198 3.598-1.584-1.455-3.317-1.588-5.197-.4l.4-.8a3.753 3.753 0 0 0 1.6-2.398z" fill="#403f4a"/><path d="M50.47 29.433a11.732 11.732 0 0 1 4.798-.8c.516-.094.916.04 1.2.4a20.191 20.191 0 0 1-4.798 2.4H36.48a23.793 23.793 0 0 1-7.996-2.8c.495-.123.495-.323 0-.599 2.527-.137 4.926.396 7.196 1.6 5 .33 9.93.263 14.79-.2z" fill="#dbdbdc"/><path d="M95.643 31.432c.835.734 1.368 1.667 1.6 2.798a3.37 3.37 0 0 1-.2 1.6 29.858 29.858 0 0 1-4.798 4.797c-.092-.495-.292-.895-.6-1.2a32.864 32.864 0 0 0-1.998-4.397c.228-1.34.495-2.673.8-3.998 1.88-1.188 3.612-1.055 5.196.4z" fill="#8c8a98"/><path d="M89.247 31.832c-1.436 1.079-2.769.945-3.997-.4a.903.903 0 0 1 .4-.6 8.192 8.192 0 0 1 3.597 0c.44.308.44.641 0 1z" fill="#8c8a99"/><path d="M36.48 31.432h11.592c-.637.334-1.307.602-1.999.8a30.849 30.849 0 0 0-5.196-.4 7.371 7.371 0 0 0-2.399.2c.499.597.499 1.197 0 1.799a1.458 1.458 0 0 1-.6-.4 12.974 12.974 0 0 0-.2 3.198c-4.879-.05-7.41 2.348-7.595 7.196a7.358 7.358 0 0 0-2.798.799 23.244 23.244 0 0 1-4.797 3.198c.806-1.672 2.138-2.671 3.997-2.998.809-1.147 1.875-1.88 3.198-2.199.695-2.565-.238-3.63-2.798-3.198-1.27-.018-2.335.382-3.198 1.2-.639-.394-1.305-.46-1.999-.2-2.048 1.447-3.38 3.379-3.997 5.796.036.77.435 1.236 1.199 1.4a9.965 9.965 0 0 0 2.798.2c-.03.763-.43 1.23-1.199 1.398-2.72.283-4.186-.983-4.397-3.797a8.362 8.362 0 0 1 1.399-3.998 40.607 40.607 0 0 1 4.597-4.997c2.027-1.14 4.159-1.472 6.396-1a28.113 28.113 0 0 1 7.995-3.997z" fill="#b9b9bc"/><path d="M49.272 31.432h1.199c-.035.398.099.732.4 1 .909.187 1.708.587 2.398 1.199 2.975-.349 4.64.917 4.997 3.797a4.608 4.608 0 0 0-1.799-1.399 216.587 216.587 0 0 1-4.597-.6c-.672.044-1.139.31-1.4.8h-.399a9.966 9.966 0 0 0-.2-2.798.902.902 0 0 1-.6.4v-2.399z" fill="#99989d"/><path d="M82.851 31.032v.8c.167.288.433.488.8.6a60.47 60.47 0 0 0-6.796 4.796c-.375.277-.641.21-.8-.2a93.02 93.02 0 0 1 5.597-4.197c.343-.635.744-1.238 1.2-1.799z" fill="#84828f" opacity=".835"/><path d="M87.648 34.23c1.917 1.703 2.984 3.835 3.198 6.397a30.576 30.576 0 0 0-5.796 4.397c-.267.266-.267.533 0 .8.303.624.77 1.024 1.399 1.199.193.366.326.765.4 1.199-.887 1.381-1.22 2.847-1 4.397-.451.656-1.05 1.056-1.799 1.2.522-1.47 1.055-2.936 1.6-4.398a78.953 78.953 0 0 1-3.199-6.796c.71-.325.909-.858.6-1.599-.363-.775-.963-1.175-1.799-1.199-.459-.265-.992-.332-1.599-.2-.533-.267-.533-.533 0-.8a27.804 27.804 0 0 0 6.796-4.397 1.971 1.971 0 0 1 1.2-.2z" fill="#8a8897"/><path d="M50.071 36.23v.399a2.616 2.616 0 0 0-1.2 1.2l-1.598.399c-.47.087-.87-.046-1.2-.4a13.873 13.873 0 0 0 3.598-2.199c-.912-.433-1.045-1.032-.4-1.798a.902.902 0 0 0 .6-.4c.199.923.265 1.856.2 2.798z" fill="#15171b"/><path d="M71.258 35.43c-.146.477-.48.744-1 .8a11.168 11.168 0 0 0-2.598 0 2.613 2.613 0 0 1 1.2-1.2 4.793 4.793 0 0 0 2.398.4z" fill="#cbcdd3"/><path d="M75.256 36.629a2.994 2.994 0 0 1-1.4 1.2c-.561-1.164-1.427-1.963-2.598-2.4a.903.903 0 0 1 .4-.599c1.862-.63 3.06-.031 3.598 1.799z" fill="#c8cad1"/><path d="M86.05 33.031c.535.395 1.069.795 1.598 1.2-.41-.062-.83.008-1.2.2a27.804 27.804 0 0 1-6.795 4.397c-.533.266-.533.532 0 .8.607-.133 1.14-.066 1.6.199-.677.142-1.076.542-1.2 1.2-.502-.016-.902.184-1.2.599.347.634.748 1.236 1.2 1.799-.546.943-1.345 1.61-2.399 1.999-.133-.4-.4-.667-.8-.8-1.265-1.037-2.198-.77-2.798.8l-.8 1.199c-1.17.48-2.372.88-3.597 1.2l3.998-3.599a12.579 12.579 0 0 0 1.999-1.799 11.652 11.652 0 0 0-2-.999 258.29 258.29 0 0 0 2.4-2.399 167.518 167.518 0 0 1 7.595-5.396l2.398-.6z" fill="#767585"/><path d="M48.072 31.432h1.2v2.399c-.646.765-.513 1.365.4 1.798a13.873 13.873 0 0 1-3.599 2.2c.33.353.73.486 1.2.399-2.059.46-4.191.526-6.396.2a13.205 13.205 0 0 1-2.399-1c-.133-.4-.4-.666-.8-.8-.065-1.07.002-2.144.2-3.197.166.183.366.316.6.4.499-.602.499-1.202 0-1.8a7.371 7.371 0 0 1 2.399-.2c1.7.764 3.433.897 5.196.4a10.523 10.523 0 0 0 2-.799z" fill="#2e313d"/><path d="M44.075 36.629c.4-.133.666-.4.8-.8a35.097 35.097 0 0 1 3.597-.8v1.2c-1.212.203-2.413.47-3.598.8-.366-.018-.633-.15-.8-.4z" fill="#111216"/><path d="M44.874 35.83a1.2 1.2 0 0 1-.8.799c-.975.152-1.242-.114-.799-.8a11.645 11.645 0 0 1-1.999-.999c.533-.4.533-.8 0-1.2a14.486 14.486 0 0 1 4.797 0c-.266.8-.8 1.333-1.599 1.6a.903.903 0 0 1 .4.6z" fill="#5b5c73"/><path d="M40.877 31.832c1.74-.014 3.479.12 5.196.4-1.763.496-3.496.363-5.196-.4z" fill="#9596a3"/><path d="M82.851 31.832c1.216.093 2.282.493 3.198 1.2l-2.398.599a167.518 167.518 0 0 0-7.596 5.396 32.522 32.522 0 0 1-4.397 2 23.773 23.773 0 0 1 2.798-2.2 1.971 1.971 0 0 0-1.2-.2c-.755.082-1.354-.184-1.798-.799-.398.226-.73.493-1 .8-.49.26-.756.727-.799 1.399.194.968.328 1.834.4 2.598a223.347 223.347 0 0 1-9.994 7.196c.402-.358.402-.624 0-.8l.8-.8a15.758 15.758 0 0 0 2.798-1.998 6.65 6.65 0 0 0 2.398-1.999c.239-.094.372-.293.4-.6l-.8-1.598c.405-.646.874-1.249 1.4-1.8l.4.4c.187-.43.12-.83-.2-1.199.233-1.111.367-2.177.4-3.198a11.168 11.168 0 0 1 2.598 0c.52-.055.853-.322 1-.8 1.17.437 2.035 1.236 2.598 2.4a2.994 2.994 0 0 0 1.399-1.2l.8.4c.158.41.424.476.799.2a60.47 60.47 0 0 1 6.796-4.797c-.367-.112-.633-.312-.8-.6zm-9.594 6.796l-2.399 2.398c-.384-.705-.517-1.505-.4-2.398a3.832 3.832 0 0 1 1-.8c.444.615 1.043.881 1.799.8z" fill="#484a55"/><path d="M61.664 33.43c1.157.553 2.156 1.353 2.998 2.4a372.538 372.538 0 0 0 2.599 3.597c.32.37.387.769.2 1.2l-.4-.4c-.526.55-.995 1.153-1.4 1.799l.8 1.599c-.028.306-.161.505-.4.6-.61-2.148-1.61-2.414-2.998-.8-1.177-.749-1.643-1.815-1.399-3.198.922-.197 1.858-.33 2.798-.4a9.969 9.969 0 0 0-.2-2.798c-1.261-.929-2.127-2.128-2.598-3.598z" fill="#78787c"/><path d="M85.25 31.432c1.228 1.345 2.561 1.479 3.997.4.175-.026.309.04.4.2-1.582 1.055-1.582 2.054 0 2.998a32.864 32.864 0 0 1 1.999 4.397 3.941 3.941 0 0 1-.4 2.399c-.354-.33-.487-.73-.4-1.2-.214-2.561-1.28-4.693-3.198-6.396-.53-.404-1.063-.804-1.599-1.199-.916-.706-1.982-1.106-3.198-1.2v-.399c.8-.533 1.6-.533 2.399 0z" fill="#151519"/><path d="M97.242 34.23c.939 1.39 1.005 2.855.2 4.398a36.315 36.315 0 0 0-4.997 3.797c-2.466.66-4.598 1.926-6.396 3.798.145.273.278.54.4.8-.63-.175-1.096-.575-1.4-1.2-.266-.266-.266-.533 0-.8a30.576 30.576 0 0 1 5.797-4.397c-.087.47.046.87.4 1.2a3.941 3.941 0 0 0 .4-2.399c.307.305.507.705.6 1.2a29.858 29.858 0 0 0 4.797-4.798 3.37 3.37 0 0 0 .2-1.599z" fill="#42414a" opacity=".925"/><path d="M73.257 38.628c.41-.062.83.008 1.2.2a23.773 23.773 0 0 0-2.8 2.198h-.799l2.399-2.398z" fill="#8d8b97" opacity=".957"/><path d="M81.252 39.827c.836.024 1.436.424 1.799 1.2.309.74.11 1.273-.6 1.598-.483-1.017-1.282-1.55-2.398-1.599.124-.657.523-1.057 1.2-1.199z" fill="#c9ccd5"/><path d="M22.488 47.822h-.8a9.97 9.97 0 0 1-2.798-.2c-.764-.163-1.163-.63-1.2-1.399.617-2.417 1.95-4.35 3.998-5.796.694-.26 1.36-.194 2 .2.862-.818 1.928-1.218 3.197-1.2 2.56-.433 3.493.633 2.798 3.198-1.323.32-2.39 1.052-3.198 2.199-1.859.327-3.191 1.326-3.997 2.998z" fill="#d7d8da"/><path d="M56.067 31.832c2.107-.472 3.972.061 5.597 1.599.47 1.47 1.337 2.669 2.598 3.598a9.97 9.97 0 0 1 .2 2.798c-.94.07-1.876.203-2.798.4-.244 1.383.222 2.45 1.4 3.198 1.387-1.614 2.387-1.348 2.997.8a6.65 6.65 0 0 1-2.398 1.998c-.398.034-.731-.1-1-.4a12.52 12.52 0 0 0-1.998-3.198 67.754 67.754 0 0 0-.6 3.198c.276.797.542 1.596.8 2.399l-.8.8-20.787 15.19a.903.903 0 0 0-.4-.6 61.443 61.443 0 0 0 5.197-3.797 151.082 151.082 0 0 0 7.395-5.597 14.251 14.251 0 0 1 3.598-4.397 3.372 3.372 0 0 0 .2-1.6c2.377-.301 3.443-1.567 3.198-3.797.296-1.653.496-3.321.6-4.997a5.93 5.93 0 0 0 1.399 1.6c.794-1.051 1.594-2.117 2.398-3.199a16.65 16.65 0 0 1-5.596-5.796 1.971 1.971 0 0 0-1.2-.2z" fill="#98999d"/><path d="M80.053 41.026a51.995 51.995 0 0 1 3.198 5.797 6.162 6.162 0 0 0-.8 1.799v.4c-.913.19-1.712.589-2.398 1.199-.239-.094-.372-.294-.4-.6.308-.71.774-1.31 1.4-1.799a6.494 6.494 0 0 0 0-3.198c-.151-.576-.484-.976-1-1.2a12.306 12.306 0 0 1-1.2-1.798c.298-.415.698-.615 1.2-.6z" fill="#111113"/><path d="M50.071 36.23h.4c2.714-.24 4.912.692 6.596 2.797.193.38.26.78.2 1.2.029 2.98-1.437 4.912-4.398 5.796a31.2 31.2 0 0 0-3.597 3.598 51.751 51.751 0 0 0-6.596 2.998c.257 2.882-.742 5.214-2.999 6.996.469.747.402 1.48-.2 2.199a4.101 4.101 0 0 0-.6-1.6c-2.143 1.38-4.409 1.58-6.795.6-1.972-1.143-2.904-2.875-2.798-5.197a25.65 25.65 0 0 0 1.399-8.195 9.17 9.17 0 0 1-2.199 3.398c-.671.158-1.337.091-1.999-.2-.485-.098-.751-.365-.8-.8h1.2c-.061-.41.009-.83.2-1.198.357.484.69.484 1 0a18.819 18.819 0 0 0 1.998-4.797c.184-4.848 2.716-7.247 7.596-7.196a22.376 22.376 0 0 0 1.199 3.998 12.317 12.317 0 0 1-4.597-1.2c-.754.597-1.154 1.396-1.2 2.399-.175-1.12-.708-1.52-1.599-1.2.125 3.213 1.524 5.812 4.198 7.796a15.78 15.78 0 0 0 4.397 1.799 13.87 13.87 0 0 0 3.598-2.199 36.76 36.76 0 0 0-3.598-1.2c3.071.256 5.87-.41 8.395-1.998.048-.512-.152-.979-.6-1.4a3.486 3.486 0 0 1-2.398 1.2c-.412-.542-1.145-.942-2.199-1.2 2.095.385 3.76-.281 4.997-1.998a12.237 12.237 0 0 0 1.799-4.797v-.4z" fill="#d9d9dc"/><path d="M38.878 40.627c.943 1.74 2.409 2.673 4.397 2.798 1.054.257 1.787.657 2.199 1.199a3.486 3.486 0 0 0 2.398-1.2c.448.421.648.888.6 1.4-2.525 1.587-5.324 2.254-8.395 1.999 1.223.339 2.423.739 3.598 1.199a13.87 13.87 0 0 1-3.598 2.199 15.78 15.78 0 0 1-4.397-1.8c-2.674-1.983-4.073-4.582-4.198-7.794.891-.32 1.424.08 1.6 1.199.045-1.003.445-1.802 1.199-2.399a12.317 12.317 0 0 0 4.597 1.2z" fill="#eaeaec"/><path d="M37.679 36.629c.4.133.666.4.8.8 1.475 1.603 3.34 2.27 5.596 1.998 1.924.292 3.523-.24 4.797-1.599a2.616 2.616 0 0 1 1.199-1.2 12.237 12.237 0 0 1-1.799 4.798c-1.236 1.717-2.902 2.383-4.997 1.999-1.988-.125-3.454-1.058-4.397-2.798a22.376 22.376 0 0 1-1.2-3.998z" fill="#b7b8be"/><path d="M38.478 37.428c.765.412 1.568.746 2.399 1 2.205.326 4.337.26 6.396-.2l1.599-.4c-1.274 1.358-2.873 1.891-4.797 1.6-2.255.27-4.12-.396-5.597-2z" fill="#797b8c"/><path d="M80.053 43.425c.516.223.849.623 1 1.199a6.494 6.494 0 0 1 0 3.198 4.567 4.567 0 0 0-1.4 1.799c.028.306.161.506.4.6.412 1.212 1.212 2.012 2.398 2.398-1.015.555-1.681 1.42-1.998 2.599.61 1.151.344 2.084-.8 2.798-.5.296-.899.229-1.2-.2.64-.495 1.105-1.16 1.4-1.999.123-.816.324-1.62.6-2.398a35.839 35.839 0 0 1-3.199-6.396c.848-.361.981-.895.4-1.6 1.054-.388 1.853-1.055 2.399-1.998z" fill="#8f8e99"/><path d="M63.663 46.223a15.758 15.758 0 0 1-2.798 1.999c-.258-.803-.524-1.602-.8-2.399.174-1.07.374-2.136.6-3.198a12.52 12.52 0 0 1 1.998 3.198c.269.3.602.434 1 .4z" fill="#757679"/><path d="M76.855 44.624c.4.133.666.4.8.8.58.704.447 1.238-.4 1.599a5.875 5.875 0 0 0-1.2-1.4 2.82 2.82 0 0 0 .8-.999z" fill="#cfd1d9"/><path d="M74.056 45.424a10.572 10.572 0 0 1 3.198 5.196c-.152 1.621-.952 2.82-2.398 3.598-.425-.37-.425-.77 0-1.2.816-1.072.95-2.271.4-3.597a10.194 10.194 0 0 0-2-2.798l.8-1.2z" fill="#0b0b0c"/><path d="M50.47 31.432h1.2a7.446 7.446 0 0 1 3.398 1.2 2.825 2.825 0 0 1 1-.8c.41-.062.83.008 1.199.2a16.65 16.65 0 0 0 5.596 5.796 496.893 496.893 0 0 1-2.398 3.198 5.93 5.93 0 0 1-1.4-1.599 43.677 43.677 0 0 1-.6 4.997c.246 2.23-.82 3.496-3.197 3.798a3.372 3.372 0 0 1-.2 1.599 14.251 14.251 0 0 0-3.598 4.397 151.082 151.082 0 0 1-7.395 5.597v-1.2c.41.062.83-.008 1.199-.2 1.68-1.694 2.68-3.759 2.998-6.196a64.758 64.758 0 0 1 6.996-4.997 14.385 14.385 0 0 0 2.199-3.398c.321-1.277.255-2.476-.2-3.597.061-.411-.009-.83-.2-1.2-1.684-2.105-3.882-3.038-6.596-2.798.26-.49.727-.756 1.399-.8 1.53.217 3.063.417 4.597.6.707.309 1.326.79 1.799 1.4-.356-2.88-2.022-4.147-4.997-3.798a5.116 5.116 0 0 0-2.398-1.2 1.142 1.142 0 0 1-.4-.999z" fill="#b4b4b8"/><path d="M57.267 40.227c.455 1.12.521 2.32.2 3.598a14.385 14.385 0 0 1-2.2 3.397 64.758 64.758 0 0 0-6.995 4.997c-.319 2.437-1.318 4.502-2.998 6.197a1.972 1.972 0 0 1-1.2.2v1.199a61.443 61.443 0 0 1-5.196 3.797.903.903 0 0 1 .4.6c-1.597-.247-2.93.22-3.998 1.4l.8.399c-.87.065-1.603.398-2.2 1-.557-.526-.957-.393-1.198.4a7.387 7.387 0 0 0-1.4-.8 24.41 24.41 0 0 0-2.198-.8c-3.757-4.362-5.156-9.426-4.198-15.19h-1.199c-1.038-.089-1.038-.289 0-.6a5.169 5.169 0 0 1 1.999-.2c.048.434.314.7.8.8.661.29 1.327.357 1.998.2a9.17 9.17 0 0 0 2.199-3.399 25.65 25.65 0 0 1-1.4 8.195c-.105 2.322.827 4.054 2.799 5.197 2.386.98 4.652.78 6.796-.6.31.486.514 1.03.6 1.6.601-.72.668-1.452.2-2.2 2.256-1.781 3.255-4.113 2.998-6.995a51.751 51.751 0 0 1 6.596-2.998 31.2 31.2 0 0 1 3.597-3.598c2.961-.885 4.427-2.817 4.398-5.796z" fill="#cdcdd0"/><path d="M80.053 41.026c1.116.049 1.915.582 2.398 1.6a78.953 78.953 0 0 0 3.198 6.795 300.781 300.781 0 0 0-1.599 4.398c-.76-.096-1.294-.495-1.599-1.2-1.186-.386-1.986-1.186-2.398-2.398a5.115 5.115 0 0 1 2.398-1.2c.458.273.458.14 0-.4a6.162 6.162 0 0 1 .8-1.798 51.995 51.995 0 0 0-3.198-5.797z" fill="#494b55"/><path d="M22.887 51.02c-.4.666-.932 1.2-1.599 1.6-.635.768-1.368.901-2.198.399a1.78 1.78 0 0 1-.6.8c-.021-.475-.154-1.008-.4-1.6-1.524.916-2.723.516-3.597-1.199.665-.8 1.331-1.6 1.998-2.398a11.769 11.769 0 0 0 3.598 2.598c-.602.335-.802.801-.6 1.4.758-1.338 1.89-1.87 3.398-1.6z" fill="#333641"/><path d="M70.459 38.628c-.118.893.015 1.693.4 2.398h.799a32.522 32.522 0 0 0 4.397-1.999 258.29 258.29 0 0 1-2.398 2.399c.696.268 1.366.603 1.999 1-.6.669-1.27 1.272-2 1.798.07-.396-.064-.662-.4-.8a2.823 2.823 0 0 1-.999-.799 192.402 192.402 0 0 1-28.182 20.388l-.4-.2a2.82 2.82 0 0 0 .8-1 173.315 173.315 0 0 1 15.59-11.992 223.347 223.347 0 0 0 9.994-7.196 25.678 25.678 0 0 0-.4-2.598c.043-.672.31-1.139.8-1.4z" fill="#141415"/><path d="M14.093 51.02h.4c.873 1.715 2.073 2.114 3.597 1.2.245.591.379 1.124.4 1.599a1.78 1.78 0 0 0 .6-.8c.83.502 1.563.37 2.198-.4a25.706 25.706 0 0 1-2.398 3.598c.061-.41-.009-.83-.2-1.2-1.069.057-1.802.724-2.199 2-.242-.05-.375-.183-.4-.4a4.487 4.487 0 0 1 .8-2.798l-.4-.4c-4.6 2.596-5.4 1.797-2.398-2.399z" fill="#777d91"/><path d="M15.692 47.422c.217.024.35.157.4.4a222.193 222.193 0 0 0-2 3.198c-3 4.196-2.2 4.995 2.4 2.399l.4.4a4.487 4.487 0 0 0-.8 2.798c-1.705.375-3.455.51-5.197.4h-.8a28.867 28.867 0 0 1 5.597-9.595z" fill="#c2c7d7" opacity=".986"/><path d="M73.257 46.623c.82.813 1.496 1.759 1.999 2.798-1.55.537-3.162.873-4.797 1a8.25 8.25 0 0 0 2.398.799c.484.357.484.69 0 1-3.12-.922-5.852.011-8.195 2.798a42.447 42.447 0 0 1-4.597 7.395c-1.47.238-1.536-.095-.2-1a1.698 1.698 0 0 0 0-1.598 130.921 130.921 0 0 1-9.394 8.994 18.205 18.205 0 0 1-5.597 2.399l1.2.4a215.94 215.94 0 0 1-6.397 2.998l-1.199-.8a70.721 70.721 0 0 0 3.998-4.597 165.523 165.523 0 0 0 15.19-11.793 61.159 61.159 0 0 1 7.996-6.196c.954-1.605 2.287-2.738 3.997-3.398 1.225-.32 2.427-.72 3.598-1.2z" fill="#8d8a9e"/><path d="M23.687 50.62h1.2c-.96 5.765.44 10.829 4.197 15.191a24.41 24.41 0 0 1 2.198.8 7.377 7.377 0 0 1-2.398-.2c-4.81-4.238-6.543-9.502-5.197-15.79z" fill="#a3a3a6"/><path d="M76.855 44.624a2.82 2.82 0 0 1-.8 1c.471.4.876.872 1.2 1.399a35.839 35.839 0 0 0 3.198 6.396 12.976 12.976 0 0 0-.6 2.398c-.295.838-.76 1.505-1.4 1.999h-.399c-.289-.167-.489-.433-.6-.8l-.4 3.199c-.692.982-1.159.849-1.398-.4a6.745 6.745 0 0 0-.4-3.198 2.23 2.23 0 0 1-1.2.4 28.536 28.536 0 0 1-.8-1.6 12.974 12.974 0 0 1-1.998 1.8c1.62.775 1.487 1.109-.4.999-.57-.612-.836-.48-.8.4 0 .532-.266.8-.799.8-.792-.138-1.326.129-1.599.799h-.4a.903.903 0 0 0-.4-.6 74.108 74.108 0 0 0 4.798-4.198 5.683 5.683 0 0 1 3.198-2.398c-.425.43-.425.83 0 1.2 1.446-.779 2.246-1.978 2.398-3.599a10.572 10.572 0 0 0-3.198-5.196c.6-1.57 1.533-1.837 2.799-.8z" fill="#4a4c56"/><path d="M73.257 43.425c-.005.606-.27 1.073-.8 1.399a109.88 109.88 0 0 0-10.793 8.195 20253.49 20253.49 0 0 1-24.385 17.39 77.249 77.249 0 0 0-4.797 4.197 21.411 21.411 0 0 1-3.598-1.6c.124-.39.39-.657.8-.799 1.277 1.193 2.344 1.06 3.198-.4-.183-.319-.45-.452-.8-.4a2.29 2.29 0 0 0-.4-1.198c.411.06.83-.01 1.2-.2a324.759 324.759 0 0 1 11.592-8.195 2.82 2.82 0 0 1-.8.999l.4.2a192.402 192.402 0 0 0 28.183-20.388c.284.352.617.619 1 .8z" fill="#9897a5"/><path d="M75.656 59.815a63.072 63.072 0 0 1-1.4 3.598 14.945 14.945 0 0 0-2.998-1.6 11.418 11.418 0 0 0-1.2-3.198c-.036-.878.23-1.011.8-.4-.05 2.215 1.017 3.415 3.198 3.599-.364-1.747-.364-3.346 0-4.797a2.23 2.23 0 0 0 1.2-.4 6.745 6.745 0 0 1 .4 3.198z" fill="#c7c9d1"/><path d="M18.89 56.217a28.295 28.295 0 0 0-1.6 4.397h-.399c.84-1.92.307-2.586-1.599-1.998-.219-.875-.685-1.141-1.399-.8-.74 1.043-.674 1.975.2 2.798-.183.32-.45.452-.8.4-.361.283-.494.683-.4 1.2a2.736 2.736 0 0 0-1.598.4 19.939 19.939 0 0 1-.4-5.597c1.742.11 3.492-.025 5.197-.4.024.217.157.35.4.4.396-1.276 1.13-1.943 2.198-2 .193.38.26.78.2 1.2z" fill="#4d5261"/><path d="M75.256 49.421c.55 1.326.416 2.525-.4 3.598a5.683 5.683 0 0 0-3.198 2.398 114.797 114.797 0 0 0-9.194 6.796 1052.01 1052.01 0 0 0-19.988 14.991c-1.306 1.029-1.573 2.294-.8 3.798h1.2c.625 1.776.226 2.176-1.2 1.2-.088-1.687-.688-1.954-1.799-.8-.16-.091-.226-.225-.2-.4.223-.516.623-.849 1.2-1a39.806 39.806 0 0 0-1.6-2.998h1.2a4.545 4.545 0 0 0-.8-2.398 215.94 215.94 0 0 0 6.396-2.998l-1.199-.4a18.205 18.205 0 0 0 5.597-2.399 130.921 130.921 0 0 0 9.394-8.994 1.698 1.698 0 0 1 0 1.599c-1.336.904-1.27 1.237.2 1a42.447 42.447 0 0 0 4.597-7.396c2.343-2.787 5.075-3.72 8.195-2.799.484-.309.484-.642 0-.999a8.25 8.25 0 0 1-2.398-.8 19.157 19.157 0 0 0 4.797-.999z" fill="#94929f"/><path d="M71.658 55.417a74.108 74.108 0 0 1-4.797 4.198.903.903 0 0 1 .4.6c-1.91 1.158-2.977 2.891-3.198 5.196l-.8-.8c-.623-1.096-.356-1.962.8-2.598a3.084 3.084 0 0 0-1.6.2 114.797 114.797 0 0 1 9.195-6.796z" fill="#65646e"/><path d="M74.056 57.017c-.364 1.45-.364 3.05 0 4.797-2.181-.184-3.247-1.384-3.198-3.598 1.887.11 2.02-.224.4-1a12.974 12.974 0 0 0 1.999-1.799c.25.542.516 1.075.8 1.6z" fill="#75798d"/><path d="M78.054 57.816c.344 2.114.412 4.264.2 6.396a4.763 4.763 0 0 1-1 1.6c.035-.399-.099-.732-.4-1 .675-.765.875-1.631.6-2.599a11.348 11.348 0 0 0-2.598 3.398c.623.084 1.156.284 1.599.6-.512.572-1.178.839-1.999.8.388-.585.255-1.118-.4-1.6.374-.427.507-.96.4-1.599-.876-.316-1.675-.316-2.398 0-.089 1.038-.289 1.038-.6 0a5.17 5.17 0 0 1-.2-1.998c1.057.417 2.063.953 2.998 1.599.514-1.212.98-2.41 1.4-3.598.24 1.249.706 1.382 1.399.4l.4-3.199c.11.367.31.633.599.8z" fill="#9b9ca3"/><path d="M16.891 60.614c.03 1.077.163 2.148.4 3.198a18.01 18.01 0 0 1-2.399-2.798c.219-.654.352-1.32.4-1.999v-.4c1.906-.587 2.439.08 1.6 2z" fill="#2a2d36"/><path d="M69.26 59.415l.599 3.598a3.728 3.728 0 0 1 1.4 2.398 18.307 18.307 0 0 1-3.599-5.196c.273-.67.807-.937 1.6-.8z" fill="#c2c7d6"/><path d="M16.891 60.614h.4c.203 1.213.47 2.414.8 3.598l-.8-.4a16.621 16.621 0 0 1-.4-3.198z" fill="#c0c3ca" opacity=".922"/><path d="M61.664 53.019a1161.859 1161.859 0 0 1-28.782 22.386l-.4-.8a77.249 77.249 0 0 1 4.797-4.197 20253.49 20253.49 0 0 0 24.385-17.39z" fill="#272934"/><path d="M10.495 57.017h.4c-.131 1.875.003 3.759.4 5.596a2.736 2.736 0 0 1 1.599-.4c-.095-.516.038-.916.4-1.199.166.289.433.489.799.6-.666.991-1 2.124-1 3.398a5.927 5.927 0 0 1-1.399 1.599 8.823 8.823 0 0 1-.999-3.598 45.083 45.083 0 0 1-.2-5.996z" fill="#7e869d"/><path d="M15.292 59.015a8.088 8.088 0 0 1-.4 2 18.01 18.01 0 0 0 2.399 2.797l.8.4c.243.356.376.756.4 1.2-1.3.083-2.5-.183-3.599-.8a.902.902 0 0 1 .4-.6c-1.06-1.708-1.06-3.374 0-4.997z" fill="#464b59"/><path d="M60.065 49.021c.402.175.402.442 0 .8a173.315 173.315 0 0 0-15.59 11.993 324.759 324.759 0 0 0-11.593 8.195 1.972 1.972 0 0 1-1.2.2v-.4c2.542-1.878 5.073-3.744 7.596-5.597l20.787-15.19z" fill="#363639"/><path d="M72.058 63.812c.723-.316 1.522-.316 2.398 0 .107.64-.026 1.172-.4 1.6a8.639 8.639 0 0 1-1.998-1.6z" fill="#393d48"/><path d="M77.254 65.811c-.136.335-.403.469-.799.4-.443-.316-.976-.516-1.599-.6a11.348 11.348 0 0 1 2.598-3.398c.275.968.075 1.834-.6 2.599.301.268.435.601.4 1z" fill="#5e5f69"/><path d="M70.059 58.615c.548.974.948 2.04 1.2 3.199a5.17 5.17 0 0 0 .199 1.998c.311 1.038.511 1.038.6 0a8.639 8.639 0 0 0 1.998 1.6c.655.481.788 1.014.4 1.598-1.3-.117-2.367-.65-3.198-1.599a3.728 3.728 0 0 0-1.399-2.398l-.6-3.598c.533 0 .8-.267.8-.8z" fill="#6b7083"/><path d="M62.064 65.811l-.4.8c-1.861 1.49-3.993 2.49-6.396 2.998a107.787 107.787 0 0 0-5.996 4.597h-.8c-.509-.23-.509-.497 0-.8a347.874 347.874 0 0 0 11.193-8.594 11.212 11.212 0 0 0 1.999-.6 1.94 1.94 0 0 1 .4 1.6z" fill="#37373b"/><path d="M18.49 65.411c.705.305 1.104.838 1.2 1.6-.705-.305-1.105-.838-1.2-1.6z" fill="#919494" opacity=".714"/><path d="M73.257 43.425c.335.137.468.403.4.8l-3.998 3.597c-1.71.66-3.043 1.793-3.998 3.398a61.159 61.159 0 0 0-7.995 6.196A1209.251 1209.251 0 0 1 37.28 72.407c-2.942 2.677-5.873 5.342-8.795 7.995a237.08 237.08 0 0 1-9.594 6.996l-.4-.8a378.26 378.26 0 0 1 13.192-9.993c.48-.312.888-.72 1.2-1.2A1161.859 1161.859 0 0 0 61.663 53.02a109.88 109.88 0 0 1 10.793-8.195c.53-.326.796-.793.8-1.4z" fill="#484661"/><path d="M57.666 57.416a165.523 165.523 0 0 1-15.19 11.793 70.721 70.721 0 0 1-3.998 4.597c-.704.305-1.104.838-1.2 1.6-.46-.45-.86-.45-1.198 0-2.355.63-3.821 1.962-4.398 3.997l-.8.4c-.515-.095-.915.038-1.199.4a73.53 73.53 0 0 0-9.994 7.995 1.2 1.2 0 0 1-.799-.8 237.08 237.08 0 0 0 9.594-6.996c2.922-2.653 5.853-5.319 8.795-7.995a1209.251 1209.251 0 0 0 20.387-14.99z" fill="#62607b"/><path d="M30.083 43.825a18.819 18.819 0 0 1-1.999 4.797c-.309.484-.642.484-.999 0a1.972 1.972 0 0 0-.2 1.199h-1.2a5.169 5.169 0 0 0-1.998.2c-1.038.311-1.038.511 0 .6-1.346 6.288.386 11.552 5.197 15.79a7.378 7.378 0 0 0 2.398.2c.495.214.964.483 1.4.8.241-.793.641-.926 1.199-.4.596-.602 1.329-.935 2.199-1l-.8-.4c1.068-1.18 2.4-1.646 3.998-1.399a3267.632 3267.632 0 0 0-7.596 5.597c-1.144-.928-2.476-1.394-3.997-1.4-.73-.263-1.262-.73-1.6-1.399-2.589-5.089-3.655-10.42-3.198-15.99-1.508-.27-2.64.262-3.397 1.6-.203-.599-.003-1.065.6-1.4a11.769 11.769 0 0 1-3.599-2.598c-.667.798-1.333 1.598-1.998 2.398h-.4a222.193 222.193 0 0 1 1.999-3.198c-.05-.243-.183-.376-.4-.4-.114-.765.02-1.431.4-1.998.212 2.814 1.677 4.08 4.397 3.797.77-.168 1.17-.635 1.2-1.399h.799a23.244 23.244 0 0 0 4.797-3.198 7.358 7.358 0 0 1 2.798-.8z" fill="#8b8c8f"/><path d="M10.095 57.017h.4c-.066 2.003 0 4.002.2 5.996.08 1.28.412 2.48 1 3.598a5.927 5.927 0 0 0 1.399-1.6c0-1.273.333-2.406.999-3.397-.366-.111-.633-.311-.8-.6.35.052.617-.08.8-.4-.874-.823-.94-1.755-.2-2.798.714-.341 1.18-.075 1.4.8v.4c-1.06 1.622-1.06 3.288 0 4.996a.902.902 0 0 0-.4.6c-.679.074-1.212.407-1.6 1l.8.399a2.827 2.827 0 0 0-.8 1 7.586 7.586 0 0 0-.8 3.198c-2.696-4.007-3.496-8.404-2.398-13.193z" fill="#afb3c1" opacity=".745"/><path d="M19.69 67.01c.799.533 1.465 1.2 1.998 2a4.444 4.444 0 0 1-2.798-1.2c.279-.254.545-.521.8-.8z" fill="#a5a7aa" opacity=".961"/><path d="M13.293 67.01h.8a4.358 4.358 0 0 1 2.199 1.6c.464-.275.93-.341 1.399-.2-1.018.526-1.285 1.258-.8 2.198-.437.934-.97.934-1.599 0-.242.05-.376.183-.4.4-.024.217-.157.35-.4.4a4.566 4.566 0 0 0-1.998-1.2c.033-1.13.3-2.196.8-3.198z" fill="#484e5d"/><path d="M26.086 67.01c.337.67.87 1.136 1.599 1.4 1.52.005 2.853.47 3.997 1.399v.4c.244.356.377.755.4 1.199-.714.968-1.38.968-1.999 0-.143-.748-.543-1.348-1.2-1.8l-2.797-.399c-.388-.592-.921-.925-1.6-1 .305-.704.838-1.103 1.6-1.199z" fill="#c9ccd6"/><path d="M18.89 69.01c1.136.567 1.67 1.367 1.599 2.398-.36.316-.627.715-.8 1.199a329.16 329.16 0 0 0-1.998-2.398 4.334 4.334 0 0 1 1.199-1.2z" fill="#b9c0d5"/><path d="M24.487 68.21c.678.074 1.21.407 1.599 1l2.798.399c.656.451 1.056 1.05 1.2 1.799l-1.6-.4h-.4a6.893 6.893 0 0 1-1.799-1.2c.172 1.324.038 2.523-.4 3.598a5.8 5.8 0 0 1-1.598-1.998c-1.117.538-2.117.338-2.998-.6 1.075-.134 1.341-.6.799-1.399.748.143 1.348.543 1.799 1.2.527-.7.727-1.5.6-2.4z" fill="#838692"/><path d="M18.89 69.01a4.334 4.334 0 0 0-1.2 1.198c.67.797 1.337 1.596 2 2.399.364 1.57.364 3.17 0 4.797a6.101 6.101 0 0 1-2.799-2.398 12.02 12.02 0 0 0-1.999-3.998c.024-.217.158-.35.4-.4.629.934 1.162.934 1.6 0-.486-.94-.22-1.672.799-2.198-.469-.141-.935-.075-1.4.2a4.358 4.358 0 0 0-2.198-1.6c.407-.64 1.007-1.04 1.799-1.199 1.067 1 2.069 2.069 2.998 3.198z" fill="#7d8599"/><path d="M14.892 64.612c1.099.617 2.298.883 3.598.8.095.76.495 1.294 1.2 1.598-.255.279-.521.546-.8.8a4.444 4.444 0 0 0 2.798 1.2c.267 0 .4.132.4.399.542.8.276 1.265-.8 1.4.882.937 1.882 1.137 2.999.599a5.8 5.8 0 0 0 1.599 1.998c.438-1.075.571-2.274.4-3.597a6.893 6.893 0 0 0 1.798 1.199c-.335.137-.468.403-.4.8a6.27 6.27 0 0 0-1.199 1.399c-.333.452-.333.785 0 1a92.87 92.87 0 0 1-5.596 4.197 3.516 3.516 0 0 1-1.999.6c.48-.312.888-.72 1.2-1.2 1.318-1.183 2.65-2.383 3.997-3.598l1.2-.6a16.39 16.39 0 0 0-3.199-1.399c-.325-.46-.725-.46-1.2 0-.318-.182-.451-.45-.399-.8.07-1.03-.463-1.83-1.599-2.398a33.882 33.882 0 0 0-2.998-3.198c-.792.16-1.392.56-1.8 1.2h-.799c.182-.383.448-.717.8-1l-.8-.4c.388-.592.921-.925 1.6-1z" fill="#31343c"/><path d="M12.494 70.209c.757.219 1.423.618 1.999 1.199.242-.05.375-.183.4-.4a12.02 12.02 0 0 1 1.998 3.998c-.748-.144-1.347-.544-1.799-1.2a33.14 33.14 0 0 1-2.598-3.597z" fill="#91949b"/><path d="M61.664 66.61a9.99 9.99 0 0 1-1.999 2.799 60.488 60.488 0 0 0-5.996 3.997c-1.483.164-2.952.431-4.397.8a107.787 107.787 0 0 1 5.996-4.597c2.403-.508 4.535-1.507 6.396-2.998z" fill="#5d5e5f"/><path d="M82.851 71.808c.734.055.868.322.4.799-.32-.183-.452-.45-.4-.8z" opacity=".004"/><path d="M28.484 71.008l1.6.4c.618.968 1.284.968 1.998 0 .35-.053.617.08.8.4-.854 1.459-1.92 1.592-3.199.4-.408.141-.675.408-.8.799a1.2 1.2 0 0 1-.799-.8c.792-.242.926-.641.4-1.199z" fill="#44454c"/><path d="M63.263 64.612a2.618 2.618 0 0 1-1.2 1.2 1.94 1.94 0 0 0-.399-1.6c-.646.262-1.315.462-1.999.6a347.874 347.874 0 0 1-11.193 8.594c-.509.303-.509.57 0 .8l-.8.8c-.266 0-.4.133-.4.4a21.608 21.608 0 0 0-4.996 3.597c-.049.713.15 1.379.6 1.999h-1.2c-.773-1.504-.506-2.77.8-3.798a1052.01 1052.01 0 0 1 19.988-14.99 3.084 3.084 0 0 1 1.599-.2c-1.156.635-1.423 1.501-.8 2.598z" fill="#4c4b55"/><path d="M22.088 72.207a16.39 16.39 0 0 1 3.198 1.4l-1.2.6c-1.458-.123-2.125-.789-1.998-2z" fill="#a2a5b1"/><path d="M53.669 73.406a.97.97 0 0 1 .8.2c-1.08.336-2.147.67-3.199 1l-2.398.4h-1.2l.8-.8h.8a31.935 31.935 0 0 1 4.397-.8z" fill="#d3d3d6"/><path d="M27.685 71.808c.266 0 .4.133.4.4.133.399.4.666.799.799a21.411 21.411 0 0 0 3.598 1.599l.4.8c-.312.479-.72.887-1.2 1.199a3.639 3.639 0 0 1-1.599-1.2 3.66 3.66 0 0 0-1.999-.4c-.314-.64-.847-.907-1.599-.799-.333-.214-.333-.547 0-1a6.27 6.27 0 0 1 1.2-1.398z" fill="#09090b"/><path d="M20.489 71.408c-.052.35.081.617.4.8.474-.462.874-.462 1.199 0-.127 1.21.54 1.876 1.999 1.998-1.331 1.201-2.664 2.4-3.998 3.598-.266 0-.4-.133-.4-.4a10.655 10.655 0 0 0 0-4.797c.173-.484.44-.883.8-1.2z" fill="#484d5b"/><path d="M38.478 73.806l1.2.8c.491.718.757 1.518.799 2.398h-1.2c-.43-.816-1.097-1.35-1.998-1.599.095-.76.495-1.294 1.2-1.599z" fill="#d9dbe4"/><path d="M51.27 74.606c-.126 1.218.406 1.884 1.6 1.999.136.335.402.468.799.4-.31.258-.71.391-1.2.4a9.426 9.426 0 0 0-3.197-1.2c-.362-.284-.495-.683-.4-1.2l2.398-.4z" fill="#6b6f86"/><path d="M63.263 64.612l.8.8a11.842 11.842 0 0 1-3.598 5.196c-1.065.668-2.131 1.335-3.198 1.999a185.7 185.7 0 0 1-.8 3.598c-.493.6-.76 1.4-.8 2.398-.307-.973-.974-1.506-1.998-1.599-.397.07-.663-.064-.8-.4-1.193-.114-1.725-.78-1.599-1.998 1.052-.33 2.118-.664 3.198-1a.97.97 0 0 0-.8-.2 60.488 60.488 0 0 1 5.997-3.997 9.99 9.99 0 0 0 1.999-2.798l.4-.8a2.618 2.618 0 0 0 1.199-1.2z" fill="#8b8d94"/><path d="M52.87 76.605c.78-.379.914-.912.4-1.6a1.94 1.94 0 0 1 1.598-.4c.267 1.6-.4 2.266-1.999 2z" fill="#d6d8e1"/><path d="M36.08 75.405c1.764 1.521 2.43 3.386 1.998 5.597-2.436.944-3.102 2.543-1.998 4.797.33.354.73.487 1.199.4-.034 1.985-.567 2.118-1.6.4a21.685 21.685 0 0 0-2.398-.8c.397-.535.797-1.068 1.2-1.599l-.8-1.599c.887-.626 1.02-1.425.4-2.399-.806.051-1.606-.215-2.399-.8.577-2.034 2.043-3.366 4.398-3.997z" fill="#8c8a99"/><path d="M37.279 75.405c.9.25 1.567.783 1.999 1.6a39.806 39.806 0 0 1 1.599 2.998c-.577.15-.977.483-1.2.999-.791.486-1.59.819-2.398 1a2.82 2.82 0 0 0 .8-1c.431-2.21-.235-4.076-2-5.597.34-.45.74-.45 1.2 0z" fill="#161719"/><path d="M31.682 79.403c.793.584 1.593.85 2.399.8.62.973.487 1.772-.4 2.398a13.922 13.922 0 0 0-2.798-2.798l.8-.4z" fill="#d0d2db"/><path d="M47.273 75.405c0-.266.133-.4.4-.4h1.199c-.095.517.038.916.4 1.2a2.59 2.59 0 0 1-.4 1.799c2.119 1.624 4.384 1.824 6.796.6.04-1 .306-1.8.8-2.4 1.67 2.276 2.935 4.807 3.797 7.596.267 1.856.267 3.74 0 5.597a6.998 6.998 0 0 1-2.199 3.198l-.4-.8c1.045-.62 1.577-1.553 1.6-2.798.428-1.67.428-3.402 0-5.197a1.755 1.755 0 0 0-1.4.4l-.4 1.999c-.896.947-1.495 2.013-1.798 3.198-.198-1.8.335-3.332 1.599-4.597a22.143 22.143 0 0 1-1.4-3.398c-.838-.189-1.704-.588-2.598-1.2a7.218 7.218 0 0 1-3.198.2c-.596-1.533-1.462-1.733-2.598-.6a12.408 12.408 0 0 1-1.6 3.199 18.216 18.216 0 0 0 .2 4.397c-1.515-3.937-.915-7.535 1.8-10.793.29-.663.09-1.063-.6-1.2z" fill="#a8a7ac"/><path d="M49.272 76.205a9.426 9.426 0 0 1 3.198 1.2c.49-.009.89-.142 1.199-.4 1.024.092 1.69.625 1.999 1.598-2.412 1.225-4.677 1.025-6.796-.6a2.59 2.59 0 0 0 .4-1.798z" fill="#363944"/><path d="M28.084 75.006a3.66 3.66 0 0 1 2 .4c.034.397-.1.73-.4.999a394.02 394.02 0 0 0-12.393 8.594c-.986-1.064-.853-2.063.4-2.998a87.225 87.225 0 0 0 7.995-5.996 3.732 3.732 0 0 1 2.398-1z" fill="#9493a2"/><path d="M30.883 79.803A13.922 13.922 0 0 1 33.68 82.6l.8 1.599c-.403.531-.803 1.064-1.2 1.599-.392.256-.792.522-1.199.8-.319-.183-.452-.45-.4-.8.527-2.303-.14-4.168-1.999-5.597.284-.361.684-.494 1.2-.4z" fill="#0e0e10"/><path d="M18.89 79.003v1.6a107.084 107.084 0 0 1-6.796 2.997 14.39 14.39 0 0 0-1.799 1.4c-.16-.092-.226-.225-.2-.4a40.48 40.48 0 0 1 3.598-2.998c.42-.197.82-.13 1.2.2a947.97 947.97 0 0 1 3.997-2.799z" fill="#575663" opacity=".986"/><path d="M30.083 75.405c.41.541.944.941 1.6 1.2a378.26 378.26 0 0 0-13.193 9.993 2.821 2.821 0 0 1-1-.799c-.159.091-.225.225-.2.4a28.917 28.917 0 0 0-4.396 5.397c-.551.533-1.084.6-1.6.2a4.443 4.443 0 0 0-1.199-1.8 190.537 190.537 0 0 1 5.197-3.797c.661-.064 1.194-.33 1.6-.8.266 0 .399-.133.399-.4a394.02 394.02 0 0 1 12.392-8.594c.301-.269.434-.602.4-1z" fill="#242530"/><path d="M42.875 81.002c1.053.815 1.053 1.682 0 2.598.301.269.434.602.4 1-.78.306-1.518.71-2.198 1.199a5.312 5.312 0 0 1-2.2-1.999c.724-.326 1.323-.06 1.8.8.065-.755-.269-1.354-1-1.8.51-.928 1.176-1.128 2-.599 1.425.977 1.824.577 1.198-1.2z" fill="#666871"/><path d="M51.67 92.995c-1.28-.353-2.347-1.02-3.198-2a25.098 25.098 0 0 1-1.999-5.596c-.364-3.168.968-4.434 3.998-3.797.76 1.76 2.093 2.627 3.997 2.598.289 1.994.355 3.993.2 5.996-.49 1.544-1.49 2.476-2.998 2.799z" fill="#d9d8dd"/><path d="M55.668 89.397c-.86 1.188-1.26 2.52-1.2 3.997H52.87c-.516.095-.916-.038-1.199-.4 1.509-.322 2.508-1.254 2.998-2.798.156-2 .089-4.01-.2-5.996-1.905.03-3.237-.837-3.997-2.598-3.03-.637-4.362.629-3.998 3.797a25.098 25.098 0 0 0 1.999 5.597 8.34 8.34 0 0 1-2.399-3.598 18.216 18.216 0 0 1-.2-4.397 12.408 12.408 0 0 0 1.6-3.198c1.136-1.134 2.002-.934 2.598.6a7.218 7.218 0 0 0 3.198-.2c.894.61 1.76 1.01 2.599 1.199.37 1.17.839 2.306 1.399 3.398-1.264 1.265-1.797 2.797-1.6 4.597z" fill="#bcbbc1"/><path d="M26.485 74.206c.752-.108 1.285.158 1.6.8a3.732 3.732 0 0 0-2.4.999 87.225 87.225 0 0 1-7.994 5.996c-1.253.935-1.386 1.934-.4 2.998 0 .267-.133.4-.4.4-.356-.885-1.022-1.285-1.999-1.199a31.503 31.503 0 0 0-7.595 2.398 10.464 10.464 0 0 1 2.798-1.998c-.026.175.04.308.2.4a14.39 14.39 0 0 1 1.8-1.4c2.298-.92 4.565-1.92 6.795-2.998v-1.599a3.516 3.516 0 0 0 1.999-.6 92.87 92.87 0 0 0 5.596-4.197z" fill="#7e7d8b"/><path d="M16.891 85.4c-.405.469-.938.735-1.599.799a1.94 1.94 0 0 0-1.599.4l-3.598 2.398A6.12 6.12 0 0 1 7.297 86.6a31.503 31.503 0 0 1 7.595-2.399c.977-.086 1.643.314 2 1.2z" fill="#9b99a8"/><path d="M29.683 80.202c1.86 1.429 2.526 3.294 2 5.597-1.74 1-3.35 2.209-4.798 3.598a13.871 13.871 0 0 0-5.197 4.397 7.372 7.372 0 0 0-.2-2.398 19.1 19.1 0 0 1-1.799-3.198 73.53 73.53 0 0 1 9.994-7.996z" fill="#8a8798"/><path d="M41.676 82.201c-.823-.53-1.489-.33-1.999.6.731.445 1.065 1.044 1 1.799-.477-.86-1.076-1.126-1.8-.8-1.546-1.722-2.412-1.455-2.598.8a6.633 6.633 0 0 0 1 1.599c-.47.087-.87-.046-1.2-.4-1.103-2.254-.437-3.853 2-4.797a2.82 2.82 0 0 1-.8 1c.807-.181 1.607-.514 2.398-1-.026.175.04.309.2.4 1.111-1.154 1.71-.887 1.8.8z" fill="#4e4f58"/><path d="M48.472 85.4c.964.337 1.83.337 2.598 0 .435.317.905.585 1.4.799a7.745 7.745 0 0 1 0 4.797c-.49.445-1.022.512-1.6.2-2.052-1.368-2.852-3.3-2.398-5.797z" fill="#fbfafc"/><path d="M31.682 85.799c-.052.35.081.617.4.8.397-.27.797-.537 1.2-.8.814.22 1.615.487 2.398.8 1.032 1.718 1.565 1.585 1.599-.4.373.427.507.96.4 1.599 0 .266-.134.4-.4.4-.76 2.826-2.092 3.093-3.998.8-.541-1.28-1.474-1.746-2.798-1.4-.691.715-.958 1.581-.8 2.598-.361-.283-.494-.683-.4-1.199.053-.35-.08-.617-.4-.8-.575.581-1.24.98-1.998 1.2a24.785 24.785 0 0 1 4.797-3.598z" fill="#43444d"/><path d="M37.279 88.198c.266 0 .4-.134.4-.4 1.25-2.097 2.65-2.097 4.197 0 .162-.46.437-.873.8-1.2.789 2.09.723 4.156-.2 6.197-2.257.609-3.457-.258-3.598-2.599-.411.062-.83-.008-1.2-.2l.4-.4c-.589-.283-.855-.75-.8-1.398z" fill="#d7d7db"/><path d="M15.292 86.199a190.537 190.537 0 0 0-5.197 3.797c.542.492.954 1.11 1.2 1.8l-2.799-2.4a7.753 7.753 0 0 1-1.599-2.398c.05-.242.183-.376.4-.4a6.12 6.12 0 0 0 2.798 2.4l3.598-2.4a1.94 1.94 0 0 1 1.6-.4z" fill="#6d6f80"/><path d="M59.265 88.997c-.022 1.245-.554 2.178-1.599 2.798h-1.199c.728-2.098 1.46-4.23 2.199-6.396.556 1.11.756 2.31.6 3.598z" fill="#6d6c71"/><path d="M18.49 86.599l.4.799c-.783 2.963-2.249 5.562-4.397 7.795.346.89.747 1.758 1.199 2.599h-.8a229.877 229.877 0 0 1-1.998-2.399 33.44 33.44 0 0 1 3.398-5.996 44.25 44.25 0 0 0 .999-3.198c-.026-.175.04-.309.2-.4.283.352.616.618 1 .8z" fill="#7c7a90"/><path d="M38.878 83.8a5.312 5.312 0 0 0 2.199 1.999c.68-.49 1.418-.893 2.198-1.2.307.306.507.706.6 1.2a22.579 22.579 0 0 1 0 5.996c-.635 1.556-1.634 2.755-2.998 3.598a49.35 49.35 0 0 1-3.598-3.797c-2.32.679-4.186.012-5.597-2a4.052 4.052 0 0 1 1.6-.599c1.905 2.294 3.237 2.027 3.997-.8-.056.65.21 1.116.8 1.4l-.4.4c.368.19.788.26 1.199.2.141 2.34 1.34 3.207 3.598 2.598.923-2.041.989-4.107.2-6.197a2.915 2.915 0 0 0-.8 1.2c-1.547-2.097-2.947-2.097-4.197 0 .107-.64-.027-1.172-.4-1.6a6.633 6.633 0 0 1-1-1.598c.186-2.255 1.052-2.522 2.599-.8z" fill="#b8b7bc"/><path d="M33.281 88.997a4.052 4.052 0 0 0-1.599.6c1.41 2.011 3.276 2.678 5.597 1.999a49.35 49.35 0 0 0 3.598 3.797c-5.277 1.761-9.008.029-11.194-5.197-.158-1.017.109-1.883.8-2.598 1.324-.346 2.257.12 2.798 1.4z" fill="#a6a5a9"/><path d="M59.265 88.997c.157-1.288-.043-2.487-.6-3.598-.738 2.166-1.47 4.298-2.198 6.396h1.2l.4.8c-1.603 1.2-3.335 1.465-5.198.8h1.6c-.06-1.478.34-2.81 1.199-3.998.303-1.185.902-2.25 1.799-3.198l.4-1.999c.403-.335.87-.468 1.398-.4.429 1.795.429 3.527 0 5.197z" fill="#8f8e92"/><path d="M17.29 86.199a44.161 44.161 0 0 1-.998 3.198 33.44 33.44 0 0 0-3.398 5.996l-2-2.398a25.872 25.872 0 0 1-2.398-3.598l2.799 2.398c.515.4 1.048.334 1.599-.2A28.917 28.917 0 0 1 17.29 86.2z" fill="#444359" opacity=".584"/><path d="M18.89 87.398c.133.4.4.666.8.8a19.1 19.1 0 0 0 1.798 3.198c.198.788.265 1.588.2 2.398a74.108 74.108 0 0 1-4.797 4.198c-.5.295-.9.229-1.2-.2a23.444 23.444 0 0 1-1.198-2.599c2.148-2.233 3.614-4.832 4.397-7.795z" fill="#9d9aab"/><path d="M29.284 88.997a39.742 39.742 0 0 0-5.597 3.998 6.105 6.105 0 0 1-1.2 2.198 31.454 31.454 0 0 0-4.796 3.598c-1.28.805-2.214.472-2.799-1h.8c.3.43.7.496 1.2.2a74.108 74.108 0 0 0 4.796-4.197 13.871 13.871 0 0 1 5.197-4.397 4.566 4.566 0 0 0 1.999-1.2c.319.183.452.45.4.8z" fill="#32313b" opacity=".718"/></g></svg>