<?xml version="1.0" encoding="UTF-8" standalone="no"?>
<!DOCTYPE svg PUBLIC "-//W3C//DTD SVG 1.1//EN" "http://www.w3.org/Graphics/SVG/1.1/DTD/svg11.dtd">
<!-- Created with Vectornator (http://vectornator.io/) -->
<svg height="100%" stroke-miterlimit="10" style="fill-rule:nonzero;clip-rule:evenodd;stroke-linecap:round;stroke-linejoin:round;" version="1.1" viewBox="5.01895 -6 121.212 136.497" width="100%" xml:space="preserve" xmlns="http://www.w3.org/2000/svg" xmlns:vectornator="http://vectornator.io" xmlns:xlink="http://www.w3.org/1999/xlink">
<defs>
<linearGradient gradientTransform="matrix(39.4515 182.643 -188.238 69.2717 43.3364 -15.9918)" gradientUnits="userSpaceOnUse" id="LinearGradient" x1="0" x2="1" y1="0" y2="0">
<stop offset="0" stop-color="#ffffff" stop-opacity="0.8"/>
<stop offset="1" stop-color="#8f8f8f" stop-opacity="0.230234"/>
</linearGradient>
<linearGradient gradientTransform="matrix(-38.0084 -36.0937 -36.0006 36.0971 67.0471 28.0135)" gradientUnits="userSpaceOnUse" id="LinearGradient_2" x1="0" x2="1" y1="0" y2="0">
<stop offset="0" stop-color="#f2f2f2" stop-opacity="0.92"/>
<stop offset="0.315789" stop-color="#cccccc" stop-opacity="0.857895"/>
<stop offset="1" stop-color="#8c8c8c" stop-opacity="0"/>
</linearGradient>
<filter color-interpolation-filters="sRGB" filterUnits="userSpaceOnUse" height="50.44" id="Filter" width="40.6055" x="38.5003" y="-6">
<feDropShadow dx="-0" dy="0" flood-color="#fdfdfd" flood-opacity="0.35" in="SourceGraphic" result="Shadow" stdDeviation="2.5"/>
</filter>
<linearGradient gradientTransform="matrix(-81.0572 66.0982 62.3385 80.3891 111.344 22.8088)" gradientUnits="userSpaceOnUse" id="LinearGradient_3" x1="0" x2="1" y1="0" y2="0">
<stop offset="0" stop-color="#f2f2f2" stop-opacity="0.92"/>
<stop offset="0.315789" stop-color="#cccccc" stop-opacity="0.857895"/>
<stop offset="1" stop-color="#8c8c8c" stop-opacity="0"/>
</linearGradient>
<filter color-interpolation-filters="sRGB" filterUnits="userSpaceOnUse" height="125.133" id="Filter_2" width="77.3701" x="48.8609" y="5.36438">
<feDropShadow dx="-0" dy="0" flood-color="#fdfdfd" flood-opacity="0.35" in="SourceGraphic" result="Shadow" stdDeviation="2.5"/>
</filter>
</defs>
<g id="Layer">
<g opacity="1">
<path d="M62.4023 11.0344C30.7104 11.0344 5.01895 36.4905 5.01895 67.8922C5.01895 99.2939 30.7104 124.75 62.4023 124.75C94.0943 124.75 119.786 99.2939 119.786 67.8922C119.786 36.4905 94.0943 11.0344 62.4023 11.0344Z" fill="url(#LinearGradient)" fill-rule="nonzero" opacity="0.291246" stroke="none"/>
<g opacity="1">
<path d="M68.818 0.351085C68.0652 0.52496 67.2345 0.940772 66.3742 1.57305L46.8759 15.7053C45.4418 16.7169 44.7303 17.8949 44.7507 19.2649C44.7713 20.6348 45.4828 21.802 46.8759 22.7714L66.4803 36.9568C68.1602 38.1792 69.6526 38.4822 70.9431 37.9131C72.2339 37.3441 72.8559 35.95 72.8558 33.7159L72.8558 26.0654L72.8558 4.76077C72.8558 2.48458 72.2339 1.07952 70.9431 0.510471C70.2979 0.225947 69.571 0.177209 68.818 0.351085Z" fill="url(#LinearGradient_2)" fill-rule="nonzero" filter="url(#Filter)" stroke="none"/>
<path d="M72.8558 26.0654C91.7715 30.7123 105.743 47.4807 105.743 67.3995C105.743 90.8996 86.3022 110.009 62.23 110.009C58.3041 110.009 55.1109 113.202 55.1109 117.128C55.1109 121.054 58.3041 124.247 62.23 124.247C94.0959 124.247 119.981 98.8111 119.981 67.3995C119.981 39.5672 99.6541 16.5172 72.8558 11.6144L72.8558 26.0654Z" fill="url(#LinearGradient_3)" fill-rule="nonzero" filter="url(#Filter_2)" stroke="none"/>
</g>
</g>
</g>
</svg>
