<svg xmlns="http://www.w3.org/2000/svg" width="100%" height="100%" fill="none" viewBox="0 0 32 32"><g filter="url(#filter0_i_20020_5201)"><path fill="url(#paint0_radial_20020_5201)" d="M4.11644 18.1192C2.87679 17.2594 2.41476 15.5235 3.22792 14.2713C4.04108 13.0191 5.67843 12.6765 6.93059 13.4897L9.54086 15.1848L9.54086 4.65497C9.54086 3.19861 10.7215 2.01801 12.1778 2.018C13.6342 2.018 14.8148 3.19862 14.8148 4.65497L14.8148 8.93904C15.2326 8.14706 16.0642 7.60721 17.0218 7.60721C18.1125 7.60721 19.0396 8.30739 19.3782 9.28277C19.8733 8.77096 20.5672 8.45276 21.3355 8.45276C22.4829 8.45276 23.4644 9.16234 23.8654 10.1666C24.3413 9.75927 24.9594 9.51327 25.6349 9.51327C27.1388 9.51327 28.3579 10.7324 28.3579 12.2362L28.3579 15.339C28.3579 15.3737 28.3572 15.4082 28.356 15.4426L28.356 20.3017C28.356 21.733 27.5077 24.1796 25.8461 26.3244C25.6804 26.5446 25.5048 26.7572 25.3199 26.9614C25.3163 26.9654 25.3127 26.9695 25.3091 26.9736C25.3091 26.9737 25.309 26.9735 25.3091 26.9736C23.6309 28.82 21.1915 29.982 18.4765 29.982C15.3275 29.982 12.5494 28.4187 10.8996 26.0375C10.2963 25.2046 10.0078 24.531 9.72118 23.8618C9.50153 23.3489 9.28297 22.8386 8.92462 22.261C8.35815 21.348 7.52517 20.6705 7.05975 20.292C7.02474 20.2635 6.99181 20.2367 6.96123 20.2117L6.96349 20.2112L4.11644 18.1192Z"/><path fill="url(#paint1_radial_20020_5201)" d="M4.11644 18.1192C2.87679 17.2594 2.41476 15.5235 3.22792 14.2713C4.04108 13.0191 5.67843 12.6765 6.93059 13.4897L9.54086 15.1848L9.54086 4.65497C9.54086 3.19861 10.7215 2.01801 12.1778 2.018C13.6342 2.018 14.8148 3.19862 14.8148 4.65497L14.8148 8.93904C15.2326 8.14706 16.0642 7.60721 17.0218 7.60721C18.1125 7.60721 19.0396 8.30739 19.3782 9.28277C19.8733 8.77096 20.5672 8.45276 21.3355 8.45276C22.4829 8.45276 23.4644 9.16234 23.8654 10.1666C24.3413 9.75927 24.9594 9.51327 25.6349 9.51327C27.1388 9.51327 28.3579 10.7324 28.3579 12.2362L28.3579 15.339C28.3579 15.3737 28.3572 15.4082 28.356 15.4426L28.356 20.3017C28.356 21.733 27.5077 24.1796 25.8461 26.3244C25.6804 26.5446 25.5048 26.7572 25.3199 26.9614C25.3163 26.9654 25.3127 26.9695 25.3091 26.9736C25.3091 26.9737 25.309 26.9735 25.3091 26.9736C23.6309 28.82 21.1915 29.982 18.4765 29.982C15.3275 29.982 12.5494 28.4187 10.8996 26.0375C10.2963 25.2046 10.0078 24.531 9.72118 23.8618C9.50153 23.3489 9.28297 22.8386 8.92462 22.261C8.35815 21.348 7.52517 20.6705 7.05975 20.292C7.02474 20.2635 6.99181 20.2367 6.96123 20.2117L6.96349 20.2112L4.11644 18.1192Z"/><path fill="url(#paint2_radial_20020_5201)" d="M4.11644 18.1192C2.87679 17.2594 2.41476 15.5235 3.22792 14.2713C4.04108 13.0191 5.67843 12.6765 6.93059 13.4897L9.54086 15.1848L9.54086 4.65497C9.54086 3.19861 10.7215 2.01801 12.1778 2.018C13.6342 2.018 14.8148 3.19862 14.8148 4.65497L14.8148 8.93904C15.2326 8.14706 16.0642 7.60721 17.0218 7.60721C18.1125 7.60721 19.0396 8.30739 19.3782 9.28277C19.8733 8.77096 20.5672 8.45276 21.3355 8.45276C22.4829 8.45276 23.4644 9.16234 23.8654 10.1666C24.3413 9.75927 24.9594 9.51327 25.6349 9.51327C27.1388 9.51327 28.3579 10.7324 28.3579 12.2362L28.3579 15.339C28.3579 15.3737 28.3572 15.4082 28.356 15.4426L28.356 20.3017C28.356 21.733 27.5077 24.1796 25.8461 26.3244C25.6804 26.5446 25.5048 26.7572 25.3199 26.9614C25.3163 26.9654 25.3127 26.9695 25.3091 26.9736C25.3091 26.9737 25.309 26.9735 25.3091 26.9736C23.6309 28.82 21.1915 29.982 18.4765 29.982C15.3275 29.982 12.5494 28.4187 10.8996 26.0375C10.2963 25.2046 10.0078 24.531 9.72118 23.8618C9.50153 23.3489 9.28297 22.8386 8.92462 22.261C8.35815 21.348 7.52517 20.6705 7.05975 20.292C7.02474 20.2635 6.99181 20.2367 6.96123 20.2117L6.96349 20.2112L4.11644 18.1192Z"/><path fill="url(#paint3_radial_20020_5201)" d="M4.11644 18.1192C2.87679 17.2594 2.41476 15.5235 3.22792 14.2713C4.04108 13.0191 5.67843 12.6765 6.93059 13.4897L9.54086 15.1848L9.54086 4.65497C9.54086 3.19861 10.7215 2.01801 12.1778 2.018C13.6342 2.018 14.8148 3.19862 14.8148 4.65497L14.8148 8.93904C15.2326 8.14706 16.0642 7.60721 17.0218 7.60721C18.1125 7.60721 19.0396 8.30739 19.3782 9.28277C19.8733 8.77096 20.5672 8.45276 21.3355 8.45276C22.4829 8.45276 23.4644 9.16234 23.8654 10.1666C24.3413 9.75927 24.9594 9.51327 25.6349 9.51327C27.1388 9.51327 28.3579 10.7324 28.3579 12.2362L28.3579 15.339C28.3579 15.3737 28.3572 15.4082 28.356 15.4426L28.356 20.3017C28.356 21.733 27.5077 24.1796 25.8461 26.3244C25.6804 26.5446 25.5048 26.7572 25.3199 26.9614C25.3163 26.9654 25.3127 26.9695 25.3091 26.9736C25.3091 26.9737 25.309 26.9735 25.3091 26.9736C23.6309 28.82 21.1915 29.982 18.4765 29.982C15.3275 29.982 12.5494 28.4187 10.8996 26.0375C10.2963 25.2046 10.0078 24.531 9.72118 23.8618C9.50153 23.3489 9.28297 22.8386 8.92462 22.261C8.35815 21.348 7.52517 20.6705 7.05975 20.292C7.02474 20.2635 6.99181 20.2367 6.96123 20.2117L6.96349 20.2112L4.11644 18.1192Z"/><path fill="url(#paint4_radial_20020_5201)" d="M4.11644 18.1192C2.87679 17.2594 2.41476 15.5235 3.22792 14.2713C4.04108 13.0191 5.67843 12.6765 6.93059 13.4897L9.54086 15.1848L9.54086 4.65497C9.54086 3.19861 10.7215 2.01801 12.1778 2.018C13.6342 2.018 14.8148 3.19862 14.8148 4.65497L14.8148 8.93904C15.2326 8.14706 16.0642 7.60721 17.0218 7.60721C18.1125 7.60721 19.0396 8.30739 19.3782 9.28277C19.8733 8.77096 20.5672 8.45276 21.3355 8.45276C22.4829 8.45276 23.4644 9.16234 23.8654 10.1666C24.3413 9.75927 24.9594 9.51327 25.6349 9.51327C27.1388 9.51327 28.3579 10.7324 28.3579 12.2362L28.3579 15.339C28.3579 15.3737 28.3572 15.4082 28.356 15.4426L28.356 20.3017C28.356 21.733 27.5077 24.1796 25.8461 26.3244C25.6804 26.5446 25.5048 26.7572 25.3199 26.9614C25.3163 26.9654 25.3127 26.9695 25.3091 26.9736C25.3091 26.9737 25.309 26.9735 25.3091 26.9736C23.6309 28.82 21.1915 29.982 18.4765 29.982C15.3275 29.982 12.5494 28.4187 10.8996 26.0375C10.2963 25.2046 10.0078 24.531 9.72118 23.8618C9.50153 23.3489 9.28297 22.8386 8.92462 22.261C8.35815 21.348 7.52517 20.6705 7.05975 20.292C7.02474 20.2635 6.99181 20.2367 6.96123 20.2117L6.96349 20.2112L4.11644 18.1192Z"/><path fill="url(#paint5_radial_20020_5201)" d="M4.11644 18.1192C2.87679 17.2594 2.41476 15.5235 3.22792 14.2713C4.04108 13.0191 5.67843 12.6765 6.93059 13.4897L9.54086 15.1848L9.54086 4.65497C9.54086 3.19861 10.7215 2.01801 12.1778 2.018C13.6342 2.018 14.8148 3.19862 14.8148 4.65497L14.8148 8.93904C15.2326 8.14706 16.0642 7.60721 17.0218 7.60721C18.1125 7.60721 19.0396 8.30739 19.3782 9.28277C19.8733 8.77096 20.5672 8.45276 21.3355 8.45276C22.4829 8.45276 23.4644 9.16234 23.8654 10.1666C24.3413 9.75927 24.9594 9.51327 25.6349 9.51327C27.1388 9.51327 28.3579 10.7324 28.3579 12.2362L28.3579 15.339C28.3579 15.3737 28.3572 15.4082 28.356 15.4426L28.356 20.3017C28.356 21.733 27.5077 24.1796 25.8461 26.3244C25.6804 26.5446 25.5048 26.7572 25.3199 26.9614C25.3163 26.9654 25.3127 26.9695 25.3091 26.9736C25.3091 26.9737 25.309 26.9735 25.3091 26.9736C23.6309 28.82 21.1915 29.982 18.4765 29.982C15.3275 29.982 12.5494 28.4187 10.8996 26.0375C10.2963 25.2046 10.0078 24.531 9.72118 23.8618C9.50153 23.3489 9.28297 22.8386 8.92462 22.261C8.35815 21.348 7.52517 20.6705 7.05975 20.292C7.02474 20.2635 6.99181 20.2367 6.96123 20.2117L6.96349 20.2112L4.11644 18.1192Z"/><path fill="url(#paint6_linear_20020_5201)" d="M4.11644 18.1192C2.87679 17.2594 2.41476 15.5235 3.22792 14.2713C4.04108 13.0191 5.67843 12.6765 6.93059 13.4897L9.54086 15.1848L9.54086 4.65497C9.54086 3.19861 10.7215 2.01801 12.1778 2.018C13.6342 2.018 14.8148 3.19862 14.8148 4.65497L14.8148 8.93904C15.2326 8.14706 16.0642 7.60721 17.0218 7.60721C18.1125 7.60721 19.0396 8.30739 19.3782 9.28277C19.8733 8.77096 20.5672 8.45276 21.3355 8.45276C22.4829 8.45276 23.4644 9.16234 23.8654 10.1666C24.3413 9.75927 24.9594 9.51327 25.6349 9.51327C27.1388 9.51327 28.3579 10.7324 28.3579 12.2362L28.3579 15.339C28.3579 15.3737 28.3572 15.4082 28.356 15.4426L28.356 20.3017C28.356 21.733 27.5077 24.1796 25.8461 26.3244C25.6804 26.5446 25.5048 26.7572 25.3199 26.9614C25.3163 26.9654 25.3127 26.9695 25.3091 26.9736C25.3091 26.9737 25.309 26.9735 25.3091 26.9736C23.6309 28.82 21.1915 29.982 18.4765 29.982C15.3275 29.982 12.5494 28.4187 10.8996 26.0375C10.2963 25.2046 10.0078 24.531 9.72118 23.8618C9.50153 23.3489 9.28297 22.8386 8.92462 22.261C8.35815 21.348 7.52517 20.6705 7.05975 20.292C7.02474 20.2635 6.99181 20.2367 6.96123 20.2117L6.96349 20.2112L4.11644 18.1192Z"/></g><rect width="14.864" height="5.274" fill="url(#paint7_linear_20020_5201)" rx="2.637" transform="matrix(4.37114e-08 1 1 -4.37114e-08 9.54086 2.01801)"/><rect width="14.864" height="5.274" fill="url(#paint8_linear_20020_5201)" rx="2.637" transform="matrix(4.37114e-08 1 1 -4.37114e-08 9.54086 2.01801)"/><rect width="14.864" height="5.274" fill="url(#paint9_linear_20020_5201)" rx="2.637" transform="matrix(4.37114e-08 1 1 -4.37114e-08 9.54086 2.01801)"/><g filter="url(#filter1_f_20020_5201)"><rect width="11.359" height="1.869" fill="url(#paint10_linear_20020_5201)" rx=".934" transform="matrix(4.37114e-08 1 1 -4.37114e-08 11.9571 3.20514)"/></g><g filter="url(#filter2_f_20020_5201)"><rect width="8.33" height="2.167" fill="url(#paint11_linear_20020_5201)" rx="1.083" transform="matrix(0.840373 0.542008 0.542008 -0.840373 4.25348 15.2641)"/></g><g filter="url(#filter3_f_20020_5201)"><rect width="4.885" height="1.908" fill="url(#paint12_linear_20020_5201)" rx=".954" transform="matrix(4.37114e-08 1 1 -4.37114e-08 16.6822 8.55872)"/></g><g filter="url(#filter4_f_20020_5201)"><rect width="4.885" height="1.908" fill="url(#paint13_linear_20020_5201)" rx=".954" transform="matrix(4.37114e-08 1 1 -4.37114e-08 21.3126 9.67981)"/></g><g filter="url(#filter5_f_20020_5201)"><rect width="4.885" height="1.908" fill="url(#paint14_linear_20020_5201)" rx=".954" transform="matrix(4.37114e-08 1 1 -4.37114e-08 25.943 10.801)"/></g><path fill="url(#paint15_radial_20020_5201)" d="M17.1852 7.61252L17.1852 14.0348L14.8148 14.0348L14.8148 8.93906C15.2326 8.14709 16.0642 7.60724 17.0218 7.60724C17.0767 7.60724 17.1312 7.60904 17.1852 7.61252Z"/><defs><filter id="filter0_i_20020_5201" width="26.537" height="28.714" x="2.821" y="1.268" color-interpolation-filters="sRGB" filterUnits="userSpaceOnUse"><feFlood flood-opacity="0" result="BackgroundImageFix"/><feBlend in="SourceGraphic" in2="BackgroundImageFix" mode="normal" result="shape"/><feColorMatrix in="SourceAlpha" result="hardAlpha" type="matrix" values="0 0 0 0 0 0 0 0 0 0 0 0 0 0 0 0 0 0 127 0"/><feOffset dx="1" dy="-.75"/><feGaussianBlur stdDeviation="1"/><feComposite in2="hardAlpha" k2="-1" k3="1" operator="arithmetic"/><feColorMatrix type="matrix" values="0 0 0 0 0.901961 0 0 0 0 0.513726 0 0 0 0 0.258824 0 0 0 1 0"/><feBlend in2="shape" mode="normal" result="effect1_innerShadow_20020_5201"/></filter><filter id="filter1_f_20020_5201" width="4.869" height="14.359" x="10.457" y="1.705" color-interpolation-filters="sRGB" filterUnits="userSpaceOnUse"><feFlood flood-opacity="0" result="BackgroundImageFix"/><feBlend in="SourceGraphic" in2="BackgroundImageFix" mode="normal" result="shape"/><feGaussianBlur result="effect1_foregroundBlur_20020_5201" stdDeviation=".75"/></filter><filter id="filter2_f_20020_5201" width="10.346" height="8.507" x="3.168" y="12.357" color-interpolation-filters="sRGB" filterUnits="userSpaceOnUse"><feFlood flood-opacity="0" result="BackgroundImageFix"/><feBlend in="SourceGraphic" in2="BackgroundImageFix" mode="normal" result="shape"/><feGaussianBlur result="effect1_foregroundBlur_20020_5201" stdDeviation=".75"/></filter><filter id="filter3_f_20020_5201" width="3.908" height="6.885" x="15.682" y="7.559" color-interpolation-filters="sRGB" filterUnits="userSpaceOnUse"><feFlood flood-opacity="0" result="BackgroundImageFix"/><feBlend in="SourceGraphic" in2="BackgroundImageFix" mode="normal" result="shape"/><feGaussianBlur result="effect1_foregroundBlur_20020_5201" stdDeviation=".5"/></filter><filter id="filter4_f_20020_5201" width="3.908" height="6.885" x="20.313" y="8.68" color-interpolation-filters="sRGB" filterUnits="userSpaceOnUse"><feFlood flood-opacity="0" result="BackgroundImageFix"/><feBlend in="SourceGraphic" in2="BackgroundImageFix" mode="normal" result="shape"/><feGaussianBlur result="effect1_foregroundBlur_20020_5201" stdDeviation=".5"/></filter><filter id="filter5_f_20020_5201" width="3.908" height="6.885" x="24.943" y="9.801" color-interpolation-filters="sRGB" filterUnits="userSpaceOnUse"><feFlood flood-opacity="0" result="BackgroundImageFix"/><feBlend in="SourceGraphic" in2="BackgroundImageFix" mode="normal" result="shape"/><feGaussianBlur result="effect1_foregroundBlur_20020_5201" stdDeviation=".5"/></filter><radialGradient id="paint0_radial_20020_5201" cx="0" cy="0" r="1" gradientTransform="translate(25.2073 12.8766) rotate(123.538) scale(20.5218 30.2361)" gradientUnits="userSpaceOnUse"><stop stop-color="#FFD03F"/><stop offset="1" stop-color="#FEAD3A"/></radialGradient><radialGradient id="paint1_radial_20020_5201" cx="0" cy="0" r="1" gradientTransform="translate(15.8599 8.76555) rotate(90) scale(5.75553 1.47134)" gradientUnits="userSpaceOnUse"><stop stop-color="#DCA42D"/><stop offset="1" stop-color="#DCA42D" stop-opacity="0"/></radialGradient><radialGradient id="paint2_radial_20020_5201" cx="0" cy="0" r="1" gradientTransform="translate(20.4038 7.90006) rotate(90) scale(7.14032 1.53295)" gradientUnits="userSpaceOnUse"><stop stop-color="#DCA42D"/><stop offset="1" stop-color="#DCA42D" stop-opacity="0"/></radialGradient><radialGradient id="paint3_radial_20020_5201" cx="0" cy="0" r="1" gradientTransform="translate(24.8178 9.32812) rotate(90) scale(5.92863 1.27281)" gradientUnits="userSpaceOnUse"><stop stop-color="#DCA42D"/><stop offset="1" stop-color="#DCA42D" stop-opacity="0"/></radialGradient><radialGradient id="paint4_radial_20020_5201" cx="0" cy="0" r="1" gradientTransform="translate(23.8481 10.1689) rotate(90) scale(2.375 0.203126)" gradientUnits="userSpaceOnUse"><stop stop-color="#B65B01"/><stop offset="1" stop-color="#B65B01" stop-opacity="0"/></radialGradient><radialGradient id="paint5_radial_20020_5201" cx="0" cy="0" r="1" gradientTransform="translate(19.4517 7.98661) rotate(90) scale(3.80817 0.3257)" gradientUnits="userSpaceOnUse"><stop stop-color="#B65B01"/><stop offset="1" stop-color="#B65B01" stop-opacity="0"/></radialGradient><linearGradient id="paint6_linear_20020_5201" x1="24.342" x2="28.358" y1="16" y2="16" gradientUnits="userSpaceOnUse"><stop stop-color="#FFE040" stop-opacity="0"/><stop offset="1" stop-color="#FFE040"/></linearGradient><linearGradient id="paint7_linear_20020_5201" x1="5.442" x2="5.442" y1="-1.384" y2="1.992" gradientUnits="userSpaceOnUse"><stop stop-color="#E7942D"/><stop offset="1" stop-color="#E7942D" stop-opacity="0"/></linearGradient><linearGradient id="paint8_linear_20020_5201" x1="14.104" x2="12.027" y1="4.026" y2="4.026" gradientUnits="userSpaceOnUse"><stop stop-color="#FFBC3D"/><stop offset="1" stop-color="#FFBC3D" stop-opacity="0"/></linearGradient><linearGradient id="paint9_linear_20020_5201" x1="5.622" x2="7.432" y1="7.661" y2="3.593" gradientUnits="userSpaceOnUse"><stop stop-color="#FFE949"/><stop offset="1" stop-color="#FFE949" stop-opacity="0"/></linearGradient><linearGradient id="paint10_linear_20020_5201" x1="3.241" x2="13.642" y1="2.079" y2="2.079" gradientUnits="userSpaceOnUse"><stop stop-color="#FFE746"/><stop offset="1" stop-color="#FFE746" stop-opacity="0"/></linearGradient><linearGradient id="paint11_linear_20020_5201" x1="1.233" x2="6.169" y1=".935" y2="1.153" gradientUnits="userSpaceOnUse"><stop stop-color="#FFD12D"/><stop offset="1" stop-color="#FFD12D" stop-opacity="0"/></linearGradient><linearGradient id="paint12_linear_20020_5201" x1=".467" x2="4.885" y1=".954" y2=".954" gradientUnits="userSpaceOnUse"><stop stop-color="#FFE23F"/><stop offset="1" stop-color="#FFE23F" stop-opacity="0"/></linearGradient><linearGradient id="paint13_linear_20020_5201" x1=".467" x2="4.885" y1=".954" y2=".954" gradientUnits="userSpaceOnUse"><stop stop-color="#FFE23F"/><stop offset="1" stop-color="#FFE23F" stop-opacity="0"/></linearGradient><linearGradient id="paint14_linear_20020_5201" x1=".467" x2="4.885" y1=".954" y2=".954" gradientUnits="userSpaceOnUse"><stop stop-color="#FFE23F"/><stop offset="1" stop-color="#FFE23F" stop-opacity="0"/></linearGradient><radialGradient id="paint15_radial_20020_5201" cx="0" cy="0" r="1" gradientTransform="translate(14.3886 11.1024) rotate(-76.7622) scale(3.59059 0.82019)" gradientUnits="userSpaceOnUse"><stop stop-color="#8F4709"/><stop offset="1" stop-color="#8F4709" stop-opacity="0"/></radialGradient></defs></svg>