<svg xmlns="http://www.w3.org/2000/svg" xmlns:xlink="http://www.w3.org/1999/xlink" width="100%" height="100%" stroke-miterlimit="10" version="1.1" viewBox="0 0 100 100" xml:space="preserve" style="fill-rule:nonzero;clip-rule:evenodd;stroke-linecap:round;stroke-linejoin:round"><defs><radialGradient id="PointRG" cx="0" cy="0" r="1" gradientTransform="matrix(-49.5208 58.933 -86.8302 -72.9626 68.0121 19.8274)" gradientUnits="userSpaceOnUse"><stop offset=".07" stop-color="#ffd43e"/><stop offset="1" stop-color="#fdb236"/></radialGradient><linearGradient id="PointLG" x1="0" x2="1" y1="0" y2="0" gradientTransform="matrix(75.6033 0 0 75.6033 -3.2092 43.1786)" gradientUnits="userSpaceOnUse"><stop offset="0" stop-color="#f4a524"/><stop offset=".293" stop-color="#f4a524" stop-opacity="0"/></linearGradient><radialGradient id="PointRG2" cx="0" cy="0" r="1" gradientTransform="matrix(-22.5733 23.1172 -54.4893 -53.2073 84.0363 18.9281)" gradientUnits="userSpaceOnUse"><stop offset=".006" stop-color="#ffe040"/><stop offset="1" stop-color="#ffe040" stop-opacity="0"/></radialGradient><radialGradient id="PointRG3" cx="0" cy="0" r="1" gradientTransform="matrix(0 -14.8866 8.44916 0 19.8515 73.243)" gradientUnits="userSpaceOnUse"><stop offset="0" stop-color="#eb7b5d"/><stop offset="1" stop-color="#eb7b5d" stop-opacity="0"/></radialGradient><radialGradient id="PointRG4" cx="0" cy="0" r="1" gradientTransform="matrix(0 -14.011 10.5082 0 36.3452 76.8941)" gradientUnits="userSpaceOnUse"><stop offset="0" stop-color="#eb7b5d"/><stop offset="1" stop-color="#eb7b5d" stop-opacity="0"/></radialGradient><linearGradient id="PointLG2" x1="0" x2="1" y1="0" y2="0" gradientTransform="matrix(11.802 0 0 11.802 50.3137 80.2397)" gradientUnits="userSpaceOnUse"><stop offset="0" stop-color="#e7942d"/><stop offset="1" stop-color="#e7942d" stop-opacity="0"/></linearGradient><linearGradient id="PointLG3" x1="0" x2="1" y1="0" y2="0" gradientTransform="matrix(0 10.868 -10.868 0 58.7239 62.304)" gradientUnits="userSpaceOnUse"><stop offset="0" stop-color="#ffc13a"/><stop offset="1" stop-color="#ffc83c" stop-opacity="0"/></linearGradient><linearGradient id="PointLG4" x1="0" x2="1" y1="0" y2="0" gradientTransform="matrix(0 55.3733 -55.3733 0 65.7881 38.0713)" gradientUnits="userSpaceOnUse"><stop offset="0" stop-color="#ffdc45" stop-opacity="0"/><stop offset="1" stop-color="#ffdc45"/></linearGradient><linearGradient id="PointLG5" x1="0" x2="1" y1="0" y2="0" gradientTransform="matrix(23.3414 18.7905 -18.7905 23.3414 67.4606 32.5158)" gradientUnits="userSpaceOnUse"><stop offset="0" stop-color="#ffe548" stop-opacity="0"/><stop offset="1" stop-color="#ffe548"/></linearGradient></defs><g fill-rule="nonzero" stroke="none" opacity="1"><path fill="url(#PointRG)" d="M90.7489 42.3795C95.1529 45.4338 96.7937 51.603 93.9027 56.0496C92.5388 58.175 90.3798 59.665 87.9088 60.1863C85.4378 60.7076 82.8609 60.2167 80.7546 58.8235L71.4849 52.8035L71.4849 90.202C71.4849 95.3745 67.2918 99.5676 62.1193 99.5676C56.9468 99.5676 52.7537 95.3745 52.7537 90.202L52.7537 74.9869C51.1106 78.112 47.7685 79.9628 44.2478 79.6975C40.7271 79.4321 37.7002 77.1012 36.5441 73.7651C34.2623 76.1226 30.9413 77.1631 27.7222 76.5289C24.5032 75.8947 21.825 73.6723 20.608 70.6255C17.7389 73.0796 13.7039 73.6398 10.2748 72.0599C6.84571 70.4801 4.64951 67.0492 4.65053 63.2736L4.65053 52.2565L4.65764 51.8871L4.65764 34.6298C4.65764 29.5475 7.67296 20.8566 13.5722 13.242C14.1618 12.4606 14.7869 11.7041 15.4439 10.9796L15.4794 10.9334C21.697 4.10481 30.5125 0.224097 39.7476 0.250147C50.4744 0.217984 60.5332 5.45512 66.6583 14.2613C68.7999 17.2162 69.8263 19.61 70.8421 21.9861C71.6234 23.808 72.3977 25.6194 73.6727 27.6722C75.6829 30.9148 78.645 33.3193 80.2965 34.6653L80.6445 34.9495L80.6374 34.9495L90.7489 42.383L90.7489 42.3795Z"/><path fill="url(#PointLG)" d="M90.7489 42.3795C95.1529 45.4338 96.7937 51.603 93.9027 56.0496C92.5388 58.175 90.3798 59.665 87.9088 60.1863C85.4378 60.7076 82.8609 60.2167 80.7546 58.8235L71.4849 52.8035L71.4849 90.202C71.4849 95.3745 67.2918 99.5676 62.1193 99.5676C56.9468 99.5676 52.7537 95.3745 52.7537 90.202L52.7537 74.9869C51.1106 78.112 47.7685 79.9628 44.2478 79.6975C40.7271 79.4321 37.7002 77.1012 36.5441 73.7651C34.2623 76.1226 30.9413 77.1631 27.7222 76.5289C24.5032 75.8947 21.825 73.6723 20.608 70.6255C17.7389 73.0796 13.7039 73.6398 10.2748 72.0599C6.84571 70.4801 4.64951 67.0492 4.65053 63.2736L4.65053 52.2565L4.65764 51.8871L4.65764 34.6298C4.65764 29.5475 7.67296 20.8566 13.5722 13.242C14.1618 12.4606 14.7869 11.7041 15.4439 10.9796L15.4794 10.9334C21.697 4.10481 30.5125 0.224097 39.7476 0.250147C50.4744 0.217984 60.5332 5.45512 66.6583 14.2613C68.7999 17.2162 69.8263 19.61 70.8421 21.9861C71.6234 23.808 72.3977 25.6194 73.6727 27.6722C75.6829 30.9148 78.645 33.3193 80.2965 34.6653L80.6445 34.9495L80.6374 34.9495L90.7489 42.383L90.7489 42.3795Z"/><path fill="url(#PointRG2)" d="M90.7489 42.3795C95.1529 45.4338 96.7937 51.603 93.9027 56.0496C92.5388 58.175 90.3798 59.665 87.9088 60.1863C85.4378 60.7076 82.8609 60.2167 80.7546 58.8235L71.4849 52.8035L71.4849 90.202C71.4849 95.3745 67.2918 99.5676 62.1193 99.5676C56.9468 99.5676 52.7537 95.3745 52.7537 90.202L52.7537 74.9869C51.1106 78.112 47.7685 79.9628 44.2478 79.6975C40.7271 79.4321 37.7002 77.1012 36.5441 73.7651C34.2623 76.1226 30.9413 77.1631 27.7222 76.5289C24.5032 75.8947 21.825 73.6723 20.608 70.6255C17.7389 73.0796 13.7039 73.6398 10.2748 72.0599C6.84571 70.4801 4.64951 67.0492 4.65053 63.2736L4.65053 52.2565L4.65764 51.8871L4.65764 34.6298C4.65764 29.5475 7.67296 20.8566 13.5722 13.242C14.1618 12.4606 14.7869 11.7041 15.4439 10.9796L15.4794 10.9334C21.697 4.10481 30.5125 0.224097 39.7476 0.250147C50.4744 0.217984 60.5332 5.45512 66.6583 14.2613C68.7999 17.2162 69.8263 19.61 70.8421 21.9861C71.6234 23.808 72.3977 25.6194 73.6727 27.6722C75.6829 30.9148 78.645 33.3193 80.2965 34.6653L80.6445 34.9495L80.6374 34.9495L90.7489 42.383L90.7489 42.3795Z"/><path fill="url(#PointRG3)" d="M90.7489 42.3795C95.1529 45.4338 96.7937 51.603 93.9027 56.0496C92.5388 58.175 90.3798 59.665 87.9088 60.1863C85.4378 60.7076 82.8609 60.2167 80.7546 58.8235L71.4849 52.8035L71.4849 90.202C71.4849 95.3745 67.2918 99.5676 62.1193 99.5676C56.9468 99.5676 52.7537 95.3745 52.7537 90.202L52.7537 74.9869C51.1106 78.112 47.7685 79.9628 44.2478 79.6975C40.7271 79.4321 37.7002 77.1012 36.5441 73.7651C34.2623 76.1226 30.9413 77.1631 27.7222 76.5289C24.5032 75.8947 21.825 73.6723 20.608 70.6255C17.7389 73.0796 13.7039 73.6398 10.2748 72.0599C6.84571 70.4801 4.64951 67.0492 4.65053 63.2736L4.65053 52.2565L4.65764 51.8871L4.65764 34.6298C4.65764 29.5475 7.67296 20.8566 13.5722 13.242C14.1618 12.4606 14.7869 11.7041 15.4439 10.9796L15.4794 10.9334C21.697 4.10481 30.5125 0.224097 39.7476 0.250147C50.4744 0.217984 60.5332 5.45512 66.6583 14.2613C68.7999 17.2162 69.8263 19.61 70.8421 21.9861C71.6234 23.808 72.3977 25.6194 73.6727 27.6722C75.6829 30.9148 78.645 33.3193 80.2965 34.6653L80.6445 34.9495L80.6374 34.9495L90.7489 42.383L90.7489 42.3795Z"/><path fill="url(#PointRG4)" d="M90.7489 42.3795C95.1529 45.4338 96.7937 51.603 93.9027 56.0496C92.5388 58.175 90.3798 59.665 87.9088 60.1863C85.4378 60.7076 82.8609 60.2167 80.7546 58.8235L71.4849 52.8035L71.4849 90.202C71.4849 95.3745 67.2918 99.5676 62.1193 99.5676C56.9468 99.5676 52.7537 95.3745 52.7537 90.202L52.7537 74.9869C51.1106 78.112 47.7685 79.9628 44.2478 79.6975C40.7271 79.4321 37.7002 77.1012 36.5441 73.7651C34.2623 76.1226 30.9413 77.1631 27.7222 76.5289C24.5032 75.8947 21.825 73.6723 20.608 70.6255C17.7389 73.0796 13.7039 73.6398 10.2748 72.0599C6.84571 70.4801 4.64951 67.0492 4.65053 63.2736L4.65053 52.2565L4.65764 51.8871L4.65764 34.6298C4.65764 29.5475 7.67296 20.8566 13.5722 13.242C14.1618 12.4606 14.7869 11.7041 15.4439 10.9796L15.4794 10.9334C21.697 4.10481 30.5125 0.224097 39.7476 0.250147C50.4744 0.217984 60.5332 5.45512 66.6583 14.2613C68.7999 17.2162 69.8263 19.61 70.8421 21.9861C71.6234 23.808 72.3977 25.6194 73.6727 27.6722C75.6829 30.9148 78.645 33.3193 80.2965 34.6653L80.6445 34.9495L80.6374 34.9495L90.7489 42.383L90.7489 42.3795Z"/><path fill="url(#PointLG2)" d="M52.7537 62.304L52.7537 90.202C52.6877 93.5909 54.4578 96.7509 57.3821 98.4647C60.3065 100.178 63.9285 100.178 66.8529 98.4647C69.7772 96.7509 71.5474 93.5909 71.4814 90.202L71.4814 62.304C71.4814 62.304 52.7537 62.304 52.7537 62.304Z"/><path fill="url(#PointLG3)" d="M52.7537 62.304L52.7537 90.202C52.6877 93.5909 54.4578 96.7509 57.3821 98.4647C60.3065 100.178 63.9285 100.178 66.8529 98.4647C69.7772 96.7509 71.5474 93.5909 71.4814 90.202L71.4814 62.304C71.4814 62.304 52.7537 62.304 52.7537 62.304Z"/><path fill="url(#PointLG4)" d="M65.7881 49.9089L65.7881 49.9089C67.2298 49.9089 68.3985 51.0776 68.3985 52.5193L68.3985 90.8342C68.3985 92.2759 67.2298 93.4446 65.7881 93.4446L65.7881 93.4446C64.3464 93.4446 63.1777 92.2759 63.1777 90.8342L63.1777 52.5193C63.1777 51.0776 64.3464 49.9089 65.7881 49.9089Z"/><path fill="url(#PointLG5)" d="M72.4515 36.5336L72.4515 36.5336C73.5757 35.1371 75.6192 34.9164 77.0157 36.0406L90.309 46.742C91.7055 47.8663 91.9263 49.9098 90.802 51.3063L90.802 51.3063C89.6778 52.7028 87.6343 52.9235 86.2378 51.7993L72.9445 41.0979C71.548 39.9736 71.3272 37.9301 72.4515 36.5336Z"/><g fill="#ffc045"><path d="M16.1684 56.8985L16.1684 56.8985C17.922 56.8985 19.3436 58.32 19.3436 60.0736L19.3436 64.9607C19.3436 66.7142 17.922 68.1358 16.1684 68.1358L16.1684 68.1358C14.4149 68.1358 12.9933 66.7142 12.9933 64.9607L12.9933 60.0736C12.9933 58.32 14.4149 56.8985 16.1684 56.8985Z"/><path d="M32.6551 60.4394L32.6551 60.4394C34.4086 60.4394 35.8302 61.861 35.8302 63.6146L35.8302 68.5016C35.8302 70.2552 34.4086 71.6768 32.6551 71.6768L32.6551 71.6768C30.9015 71.6768 29.4799 70.2552 29.4799 68.5016L29.4799 63.6146C29.4799 61.861 30.9015 60.4394 32.6551 60.4394Z"/><path d="M47.9803 63.7957L47.9803 63.7957C49.7339 63.7957 51.1554 65.2173 51.1554 66.9709L51.1554 71.8579C51.1554 73.6115 49.7339 75.033 47.9803 75.033L47.9803 75.033C46.2267 75.033 44.8051 73.6115 44.8051 71.8579L44.8051 66.9709C44.8051 65.2173 46.2267 63.7957 47.9803 63.7957Z"/></g></g></svg>