<svg xmlns="http://www.w3.org/2000/svg" xmlns:xlink="http://www.w3.org/1999/xlink" width="100%" height="100%" stroke-miterlimit="10" version="1.1" viewBox="0 0 125 125" xml:space="preserve" style="fill-rule:nonzero;clip-rule:evenodd;stroke-linecap:round;stroke-linejoin:round"><defs><linearGradient id="LG" x1="0" x2="1" y1="0" y2="0" gradientTransform="matrix(-105.615 -76.3458 76.3458 -105.615 113.727 75.7292)" gradientUnits="userSpaceOnUse"><stop offset="0" stop-color="#fff"/><stop offset=".316" stop-color="#dbdbdb" stop-opacity=".858"/><stop offset="1" stop-color="#8c8c8c" stop-opacity=".55"/></linearGradient><linearGradient id="LG2" x1="0" x2="1" y1="0" y2="0" gradientTransform="matrix(1.02341 62.4276 -62.4276 1.02341 61.1244 33.565)" gradientUnits="userSpaceOnUse"><stop offset="0" stop-color="#fff"/><stop offset=".316" stop-color="#dbdbdb" stop-opacity=".858"/><stop offset="1" stop-color="#8c8c8c" stop-opacity=".55"/></linearGradient><linearGradient id="LG3" x1="0" x2="1" y1="0" y2="0" gradientTransform="matrix(-2.62238 141.28 -141.28 -2.62238 49.0824 23.5647)" gradientUnits="userSpaceOnUse"><stop offset="0" stop-color="#fff"/><stop offset=".316" stop-color="#dbdbdb" stop-opacity=".858"/><stop offset="1" stop-color="#8c8c8c" stop-opacity=".55"/></linearGradient><linearGradient id="LG4" x1="0" x2="1" y1="0" y2="0" gradientTransform="matrix(-97.0909 -12 12 -97.0909 116.28 63.7627)" gradientUnits="userSpaceOnUse"><stop offset="0" stop-color="#fff"/><stop offset=".316" stop-color="#dbdbdb" stop-opacity=".858"/><stop offset="1" stop-color="#8c8c8c" stop-opacity=".55"/></linearGradient><linearGradient id="LG5" x1="0" x2="1" y1="0" y2="0" gradientTransform="matrix(-95.6426 -103.569 103.569 -95.6426 80.8543 107.859)" gradientUnits="userSpaceOnUse"><stop offset="0" stop-color="#fff"/><stop offset=".316" stop-color="#dbdbdb" stop-opacity=".858"/><stop offset="1" stop-color="#8c8c8c" stop-opacity=".55"/></linearGradient><linearGradient id="LG6" x1="0" x2="1" y1="0" y2="0" gradientTransform="matrix(-54.8192 72.4576 75.0013 52.96 56.4717 13.5653)" gradientUnits="userSpaceOnUse"><stop offset="0" stop-color="#e6e6e6" stop-opacity=".8"/><stop offset=".979" stop-color="#747474" stop-opacity=".5"/></linearGradient><linearGradient id="LG7" x1="0" x2="1" y1="0" y2="0" gradientTransform="matrix(-54.8192 72.4576 75.0013 52.96 56.4717 13.5653)" gradientUnits="userSpaceOnUse"><stop offset="0" stop-color="#e6e6e6" stop-opacity=".8"/><stop offset=".979" stop-color="#747474" stop-opacity=".5"/></linearGradient><linearGradient id="LG8" x1="0" x2="1" y1="0" y2="0" gradientTransform="matrix(199.545 -21.9422 -28.7881 -200.808 -77.2476 3.72897)" gradientUnits="userSpaceOnUse"><stop offset="0" stop-color="#b9b9b9" stop-opacity=".8"/><stop offset="1" stop-color="#636363" stop-opacity=".23"/></linearGradient><linearGradient id="LG9" x1="0" x2="1" y1="0" y2="0" gradientTransform="matrix(-39.1337 101.073 103.382 36.1676 100.651 21.0985)" gradientUnits="userSpaceOnUse"><stop offset="0" stop-color="#e6e6e6" stop-opacity=".8"/><stop offset=".979" stop-color="#747474" stop-opacity=".5"/></linearGradient><linearGradient id="LG10" x1="0" x2="1" y1="0" y2="0" gradientTransform="matrix(68.8851 50.4375 -47.401 68.1808 -23.9809 13.2915)" gradientUnits="userSpaceOnUse"><stop offset="0" stop-color="#f2f2f2" stop-opacity=".92"/><stop offset=".316" stop-color="#ccc" stop-opacity=".858"/><stop offset="1" stop-color="#8c8c8c" stop-opacity="0"/></linearGradient><filter id="Fi" width="74.63" height="129.034" x="55.521" y="3.166" color-interpolation-filters="sRGB" filterUnits="userSpaceOnUse"><feDropShadow dx="0" dy="0" flood-color="#fdfdfd" flood-opacity=".491" in="SourceGraphic" result="Shadow" stdDeviation="3.28"/></filter><linearGradient id="LG11" x1="0" x2="1" y1="0" y2="0" gradientTransform="matrix(39.4515 182.643 -188.238 69.2717 43.3364 -15.9918)" gradientUnits="userSpaceOnUse"><stop offset="0" stop-color="#fff" stop-opacity=".8"/><stop offset="1" stop-color="#8f8f8f" stop-opacity=".23"/></linearGradient><linearGradient id="LG12" x1="0" x2="1" y1="0" y2="0" gradientTransform="matrix(-38.0084 -36.0937 -36.0006 36.0971 67.0471 28.0135)" gradientUnits="userSpaceOnUse"><stop offset="0" stop-color="#f2f2f2" stop-opacity=".92"/><stop offset=".316" stop-color="#ccc" stop-opacity=".858"/><stop offset="1" stop-color="#8c8c8c" stop-opacity="0"/></linearGradient><filter id="Fi2" width="40.605" height="50.44" x="38.5" y="-6" color-interpolation-filters="sRGB" filterUnits="userSpaceOnUse"><feDropShadow dx="0" dy="0" flood-color="#fdfdfd" flood-opacity=".35" in="SourceGraphic" result="Shadow" stdDeviation="2.5"/></filter><linearGradient id="LG13" x1="0" x2="1" y1="0" y2="0" gradientTransform="matrix(-81.0572 66.0982 62.3385 80.3891 111.344 22.8088)" gradientUnits="userSpaceOnUse"><stop offset="0" stop-color="#f2f2f2" stop-opacity=".92"/><stop offset=".316" stop-color="#ccc" stop-opacity=".858"/><stop offset="1" stop-color="#8c8c8c" stop-opacity="0"/></linearGradient><filter id="Fi3" width="77.37" height="125.133" x="48.861" y="5.364" color-interpolation-filters="sRGB" filterUnits="userSpaceOnUse"><feDropShadow dx="0" dy="0" flood-color="#fdfdfd" flood-opacity=".35" in="SourceGraphic" result="Shadow" stdDeviation="2.5"/></filter><linearGradient id="LG14" x1="0" x2="1" y1="0" y2="0" gradientTransform="matrix(-0.520616 38.7784 -38.7784 -0.520616 74.1626 51.9126)" gradientUnits="userSpaceOnUse"><stop offset="0" stop-color="#fff"/><stop offset=".316" stop-color="#dbdbdb" stop-opacity=".858"/><stop offset="1" stop-color="#8c8c8c" stop-opacity=".55"/></linearGradient><filter id="Fi4" width="60.723" height="48.9" x="28.442" y="42.978" color-interpolation-filters="sRGB" filterUnits="userSpaceOnUse"><feDropShadow dx="0" dy="0" flood-color="#fdfdfd" flood-opacity=".35" in="SourceGraphic" result="Shadow" stdDeviation="2.5"/></filter></defs><g opacity="0"><path fill="url(#LG)" fill-rule="nonzero" stroke="none" d="M126.758 54.7946C126.913 54.101 126.863 53.4477 126.608 52.8532C126.099 51.6643 124.838 51.0612 122.8 51.0612L114.848 51.0612C114.095 47.1414 112.965 43.3384 111.376 39.6745C108.357 32.7108 104.154 26.5722 98.8327 21.2692C93.5108 15.9661 87.3911 11.782 80.4273 8.76248C73.4636 5.74294 66.0278 4.24512 58.1393 4.24512C50.2508 4.24512 42.8339 5.74294 35.8513 8.76248C28.8686 11.782 22.7116 15.9846 17.4086 21.3065C12.1056 26.6284 7.95872 32.7481 4.9392 39.7119C1.91968 46.6756 0.384531 54.1114 0.384529 61.9999C0.384529 69.8884 1.91969 77.3242 4.9392 84.2879C7.95872 91.2517 12.1056 97.3714 17.4086 102.693C22.7116 108.015 28.8686 112.218 35.8513 115.237C42.8339 118.257 50.2508 119.755 58.1393 119.755C64.4803 119.755 70.5643 118.731 76.358 116.731C82.1517 114.73 87.4493 111.917 92.2994 108.293C97.1495 104.67 101.333 100.432 104.843 95.5626C105.786 94.3171 106.134 93.0387 105.888 91.6799C105.643 90.3212 104.967 89.2611 103.835 88.5439C102.665 87.8268 101.459 87.6258 100.214 87.9466C98.9685 88.2674 97.9088 89.0165 97.0407 90.1866C94.1722 94.1875 90.7376 97.6955 86.7367 100.677C82.7358 103.659 78.2961 105.961 73.446 107.621C68.5959 109.282 63.499 110.123 58.1393 110.123C51.4586 110.123 45.1921 108.899 39.3606 106.427C33.5292 103.955 28.4138 100.52 24.0166 96.1226C19.6194 91.7254 16.1848 86.61 13.7126 80.7786C11.2403 74.9471 10.0166 68.6806 10.0166 61.9999C10.0166 55.3192 11.2404 49.0711 13.7126 43.2585C16.1848 37.446 19.6194 32.349 24.0166 27.9518C28.4138 23.5547 33.5292 20.1201 39.3606 17.6478C45.1921 15.1756 51.4586 13.9145 58.1393 13.9145C64.7823 13.9145 71.0119 15.1756 76.8433 17.6478C82.6748 20.1201 87.7902 23.5362 92.1874 27.9145C96.5845 32.2928 100.037 37.4086 102.528 43.2212C103.609 45.7429 104.343 48.3761 104.955 51.0612L96.854 51.0612C94.8536 51.0612 93.6303 51.6643 93.1207 52.8532C92.6112 54.0422 92.8848 55.4124 93.9794 56.9599L106.672 75.0293C107.54 76.3126 108.582 76.9517 109.808 76.9706C111.035 76.9895 112.113 76.3503 113.019 75.0293L125.675 57.0346C126.241 56.2419 126.602 55.4881 126.758 54.7946Z" opacity="1"/><path fill="url(#LG2)" fill-rule="nonzero" stroke="none" d="M68.7761 39.4132C65.6433 39.4132 62.9213 40.3633 60.6001 42.2505C58.2788 44.1377 56.4515 46.7683 55.1494 50.1652C53.8472 53.5622 53.208 57.5449 53.208 62.1119C53.208 66.6412 53.8472 70.5874 55.1494 73.9466C56.4516 77.3058 58.2788 79.9183 60.6001 81.7866C62.9213 83.6549 65.6433 84.5866 68.7761 84.5866C71.9088 84.5866 74.6493 83.6549 76.9894 81.7866C79.3295 79.9183 81.1194 77.3058 82.4028 73.9466C83.6861 70.5874 84.3442 66.6412 84.3441 62.1119C84.3441 57.5449 83.6861 53.5622 82.4028 50.1652C81.1195 46.7683 79.3295 44.1377 76.9894 42.2505C74.6493 40.3633 71.9089 39.4132 68.7761 39.4132ZM38.872 39.8612C38.0794 39.8612 37.3857 40.0261 36.744 40.3092C36.1024 40.5923 35.2248 41.0485 34.168 41.7279L26.3653 46.9919C25.7237 47.4448 25.2486 47.9568 24.9467 48.4852C24.6447 49.0136 24.4987 49.5978 24.4987 50.2772C24.4987 51.2208 24.8277 52.0618 25.4693 52.7412C26.111 53.4206 26.8781 53.7492 27.784 53.7492C28.3124 53.7492 28.7694 53.6947 29.128 53.5626C29.4866 53.4304 29.9432 53.1564 30.5093 52.7412L35.7734 48.8585L35.7734 80.0319C35.7734 81.202 36.1024 82.1148 36.744 82.8319C37.3857 83.5491 38.2259 83.9146 39.2827 83.9146C40.3773 83.9146 41.2355 83.5675 41.896 82.8693C42.5566 82.171 42.904 81.2397 42.904 80.0319L42.904 44.4159C42.904 43.0193 42.5385 41.9047 41.8214 41.0932C41.1042 40.2817 40.1176 39.8612 38.872 39.8612ZM68.7761 46.2825C71.3049 46.2825 73.2963 47.6708 74.7494 50.4639C76.2026 53.2569 76.9147 57.1297 76.9148 62.1119C76.9148 66.9431 76.1841 70.7802 74.7121 73.5733C73.2401 76.3663 71.2672 77.7546 68.7761 77.7546C66.285 77.7546 64.2936 76.3663 62.8027 73.5733C61.3118 70.7802 60.5627 66.9431 60.5627 62.1119C60.5627 57.1674 61.2934 53.3131 62.7654 50.5012C64.2374 47.6893 66.2472 46.2825 68.7761 46.2825Z" opacity="1"/></g><g opacity="0"><path fill="url(#LG3)" fill-rule="nonzero" stroke="none" d="M88.7359 95.9166C84.3233 95.9166 80.7964 93.4429 78.1555 88.4953C75.5146 83.5477 74.1941 76.795 74.1941 68.237C74.1941 59.4785 75.4979 52.6088 78.1054 47.6278C80.7129 42.6468 84.2564 40.1563 88.7359 40.1563C93.2155 40.1563 96.7423 42.6301 99.3164 47.5776C101.89 52.5252 103.177 59.4117 103.177 68.237C103.177 76.795 101.874 83.5477 99.2662 88.4953C96.6587 93.4429 93.1486 95.9166 88.7359 95.9166ZM88.7359 108.052C94.2852 108.052 99.1325 106.397 103.278 103.088C107.423 99.7777 110.632 95.1478 112.905 89.1973C115.179 83.2469 116.315 76.2601 116.315 68.237C116.315 60.1471 115.179 53.0935 112.905 47.0762C110.632 41.0589 107.423 36.3788 103.278 33.0358C99.1325 29.6929 94.2852 28.0214 88.7359 28.0214C83.1867 28.0214 78.3561 29.6929 74.2443 33.0358C70.1324 36.3788 66.9232 41.0589 64.6166 47.0762C62.31 53.0935 61.1566 60.1471 61.1566 68.237C61.1566 76.2601 62.31 83.2469 64.6166 89.1973C66.9232 95.1478 70.1324 99.7777 74.2443 103.088C78.3561 106.397 83.1867 108.052 88.7359 108.052ZM36.4857 106.849C38.4246 106.849 39.9791 106.23 41.1491 104.993C42.3191 103.756 42.9041 102.068 42.9041 99.9282L42.9041 36.8468C42.9041 34.373 42.269 32.4174 40.9987 30.9799C39.7284 29.5424 37.99 28.8237 35.7837 28.8237C34.3796 28.8237 33.1093 29.0744 31.9727 29.5759C30.8361 30.0773 29.3318 30.9298 27.4597 32.1332L13.6199 41.46C12.4833 42.2623 11.6476 43.1315 11.1127 44.0675C10.5779 45.0036 10.3104 46.0733 10.3104 47.2768C10.3104 48.9482 10.8787 50.3857 12.0153 51.5892C13.1519 52.7926 14.5225 53.3944 16.1272 53.3944C17.0632 53.3944 17.8488 53.2774 18.4839 53.0433C19.1191 52.8093 19.9381 52.3246 20.941 51.5892L30.5687 44.569L30.2678 44.569L30.2678 99.9282C30.2678 102.001 30.8361 103.673 31.9727 104.943C33.1093 106.213 34.6136 106.849 36.4857 106.849Z" opacity=".999"/><path fill="url(#LG4)" fill-rule="nonzero" stroke="none" d="M73.9994 84.9941C77.9486 84.9941 81.1159 83.833 83.5012 81.5109C85.8865 79.1887 87.0792 76.1162 87.0792 72.2934C87.0792 68.8181 86.0129 65.9589 83.8803 63.7157C81.7478 61.4725 78.9912 60.351 75.6107 60.351C74.0942 60.351 72.6172 60.6985 71.1797 61.3936C69.7422 62.0886 68.7233 63.0364 68.123 64.237L68.3599 64.237L69.1656 53.5267L83.3827 53.5267C84.0778 53.5267 84.6781 53.274 85.1836 52.7685C85.6891 52.263 85.9418 51.5995 85.9418 50.7781C85.9418 49.9882 85.6891 49.3485 85.1836 48.8588C84.6781 48.3691 84.0778 48.1242 83.3827 48.1242L68.2178 48.1242C65.7219 48.1242 64.3633 49.4353 64.1422 52.0576L63.0996 65.7061C63.0048 66.8751 63.2418 67.7518 63.8104 68.3363C64.3791 68.9208 65.1848 69.213 66.2274 69.213C67.0172 69.213 67.6412 69.1182 68.0993 68.9287C68.5574 68.7391 69.134 68.3916 69.829 67.8861C70.7453 67.0646 71.5904 66.4723 72.3644 66.1089C73.1385 65.7456 73.9994 65.5639 74.9472 65.5639C76.8112 65.5639 78.3041 66.1879 79.4256 67.4359C80.5472 68.6838 81.108 70.3346 81.108 72.3882C81.108 74.4734 80.4603 76.1952 79.165 77.5537C77.8696 78.9123 76.2426 79.5915 74.2838 79.5915C72.8936 79.5915 71.6299 79.2203 70.4925 78.4779C69.3551 77.7354 68.4705 76.7481 67.8386 75.516C67.4911 74.9157 67.0962 74.4497 66.6539 74.1179C66.2116 73.7862 65.6903 73.6203 65.09 73.6203C64.3001 73.6203 63.6604 73.8731 63.1707 74.3786C62.681 74.8841 62.4361 75.5475 62.4361 76.369C62.4361 76.6849 62.4677 77.0009 62.5309 77.3168C62.5941 77.6327 62.6889 77.9487 62.8152 78.2646C63.4787 79.9707 64.7898 81.5188 66.7487 82.9089C68.7075 84.299 71.1244 84.9941 73.9994 84.9941ZM49.925 84.4254C50.8412 84.4254 51.5758 84.1331 52.1287 83.5487C52.6816 82.9642 52.958 82.1664 52.958 81.1554L52.958 51.252C52.958 50.0198 52.6658 49.0957 52.0813 48.4796C51.4968 47.8636 50.6675 47.5555 49.5933 47.5555C48.9298 47.5555 48.3137 47.674 47.745 47.9109C47.1764 48.1479 46.4813 48.5507 45.6599 49.1194L39.12 53.5267C38.5829 53.9059 38.18 54.3245 37.9115 54.7826C37.6429 55.2407 37.5087 55.7383 37.5087 56.2754C37.5087 57.0652 37.7772 57.7445 38.3143 58.3132C38.8514 58.8819 39.4991 59.1662 40.2573 59.1662C40.7312 59.1662 41.1262 59.103 41.4421 58.9766C41.758 58.8503 42.1372 58.6133 42.5795 58.2658L47.0816 54.9484L47.0342 54.9484L47.0342 81.1554C47.0342 82.1348 47.2948 82.9247 47.8161 83.525C48.3374 84.1252 49.0404 84.4254 49.925 84.4254ZM64 113.334C70.6031 113.334 76.8191 112.07 82.6482 109.543C88.4772 107.015 93.6191 103.532 98.0738 99.0928C102.529 94.6538 106.02 89.512 108.547 83.6671C111.075 77.8223 112.338 71.5983 112.338 64.9952C112.338 59.6875 111.501 54.6088 109.827 49.7592C108.152 44.9095 105.798 40.4548 102.765 36.395C99.7325 32.3353 96.1782 28.8362 92.1026 25.898C91.06 25.1082 89.97 24.8159 88.8327 25.0213C87.6953 25.2267 86.8265 25.8033 86.2262 26.7511C85.6259 27.7305 85.46 28.7415 85.7286 29.7841C85.9971 30.8267 86.6211 31.7113 87.6005 32.4379C90.9494 34.8391 93.8719 37.7141 96.3678 41.063C98.8637 44.4119 100.807 48.1163 102.197 52.1761C103.587 56.2359 104.282 60.5089 104.282 64.9952C104.282 70.5873 103.247 75.824 101.178 80.7052C99.1085 85.5864 96.2335 89.8674 92.5528 93.5481C88.8721 97.2287 84.5912 100.104 79.71 102.174C74.8287 104.243 69.5921 105.278 64 105.278C58.4079 105.278 53.1792 104.243 48.3137 102.174C43.4483 100.104 39.1752 97.2287 35.4946 93.5481C31.8139 89.8674 28.9389 85.5864 26.8695 80.7052C24.8001 75.824 23.7654 70.5873 23.7654 64.9952C23.7654 59.4348 24.8001 54.2139 26.8695 49.3327C28.9389 44.4514 31.806 40.1705 35.4709 36.4898C39.1358 32.8092 43.4009 29.9262 48.2663 27.841C53.1318 25.7559 58.3605 24.7133 63.9526 24.7133L63.9526 16.6569C57.3495 16.6569 51.1335 17.9206 45.3044 20.4481C39.4754 22.9756 34.3414 26.4667 29.9025 30.9214C25.4636 35.3761 21.9804 40.518 19.4529 46.3471C16.9254 52.1761 15.6616 58.3922 15.6616 64.9952C15.6616 71.5983 16.9254 77.8223 19.4529 83.6671C21.9804 89.512 25.4715 94.6538 29.9262 99.0928C34.3809 103.532 39.5228 107.015 45.3518 109.543C51.1809 112.07 57.3969 113.334 64 113.334ZM54.8536 10.8752L54.8536 32.5801C54.8536 34.2546 55.3512 35.3051 56.3464 35.7316C57.3416 36.1581 58.4869 35.9132 59.7822 34.997L74.8998 24.3815C75.974 23.6549 76.519 22.7782 76.5348 21.7514C76.5506 20.7246 76.0056 19.832 74.8998 19.0738L59.8296 8.45831C58.5027 7.51049 57.3416 7.24985 56.3464 7.67636C55.3512 8.10288 54.8536 9.16916 54.8536 10.8752Z" opacity=".999"/><path fill="url(#LG5)" fill-rule="nonzero" stroke="none" d="M1.27891 65.1225C1.27891 72.9473 2.77649 80.3136 5.77164 87.2211C8.7668 94.1287 12.8945 100.222 18.1547 105.501C23.415 110.78 29.5083 114.917 36.4346 117.913C43.3609 120.908 50.7364 122.405 58.5613 122.405C64.8511 122.405 70.8695 121.413 76.6165 119.429C82.3634 117.445 87.6424 114.655 92.4533 111.061C97.2643 107.467 101.411 103.255 104.893 98.4249C105.829 97.1894 106.175 95.8977 105.932 94.5499C105.688 93.2021 105.005 92.1725 103.882 91.4612C102.721 90.7498 101.523 90.5532 100.288 90.8715C99.052 91.1897 98.0037 91.9291 97.1426 93.0898C94.2972 97.0584 90.8902 100.522 86.9217 103.48C82.9531 106.437 78.5633 108.74 73.7523 110.387C68.9414 112.035 63.8777 112.858 58.5613 112.858C51.9345 112.858 45.7289 111.632 39.9445 109.18C34.1601 106.728 29.0871 103.321 24.7254 98.9584C20.3637 94.5967 16.9567 89.5237 14.5044 83.7393C12.0521 77.9549 10.826 71.7493 10.826 65.1225C10.826 58.4957 12.0521 52.2995 14.5044 46.5338C16.9567 40.7681 20.3637 35.7044 24.7254 31.3428C29.0871 26.9811 34.1601 23.5741 39.9445 21.1218C45.7289 18.6695 51.9345 17.4434 58.5613 17.4434C65.1506 17.4434 71.3375 18.6695 77.1219 21.1218C82.9063 23.5741 87.9793 26.9717 92.341 31.3147C96.7027 35.6576 100.119 40.712 102.59 46.4777C105.061 52.2433 106.297 58.4396 106.297 65.0663L115.844 65.0663C115.844 57.2415 114.346 49.8753 111.351 42.9677C108.356 36.0601 104.219 29.9762 98.9397 24.716C93.6608 19.4557 87.5675 15.328 80.6599 12.3329C73.7523 9.33771 66.3861 7.84013 58.5613 7.84013C50.7364 7.84013 43.3609 9.33771 36.4346 12.3329C29.5083 15.328 23.415 19.4651 18.1547 24.744C12.8945 30.023 8.7668 36.1163 5.77164 43.0239C2.77649 49.9314 1.27891 57.2977 1.27891 65.1225ZM122.695 54.2838L96.9742 54.2838C94.9899 54.2838 93.745 54.8734 93.2396 56.0528C92.7341 57.2321 93.0243 58.5893 94.11 60.1243L106.69 78.0391C107.551 79.3121 108.59 79.9579 109.807 79.9766C111.023 79.9953 112.081 79.3495 112.98 78.0391L125.559 60.1805C126.682 58.608 126.991 57.2321 126.486 56.0528C125.98 54.8734 124.717 54.2838 122.695 54.2838Z" opacity=".999"/><path fill="url(#LG6)" fill-rule="nonzero" stroke="none" d="M68.6213 40.8867C68.6213 22.5656 53.3447 7.7134 34.5 7.7134C15.6553 7.7134 0.378735 22.5656 0.378735 40.8867C0.378735 59.2078 15.6553 74.06 34.5 74.06C53.3447 74.06 68.6213 59.2078 68.6213 40.8867Z" opacity=".999"/><path fill="url(#LG7)" fill-rule="nonzero" stroke="none" d="M40.9375 8.34125L43.5312 10.2163C44.3747 10.8113 44.7933 11.5042 44.7812 12.31C44.7692 13.1158 44.3506 13.8023 43.5312 14.3725L32 22.7163C31.012 23.4353 30.1341 23.6135 29.375 23.2787C28.6159 22.944 28.25 22.124 28.25 20.81L28.25 16.31C17.1239 19.0433 8.90625 28.9064 8.90625 40.6225C8.90625 54.445 20.341 65.685 34.5 65.685C36.8092 65.685 38.6875 67.5633 38.6875 69.8725C38.6875 72.1817 36.8092 74.06 34.5 74.06C53.3447 74.06 68.625 59.1936 68.625 40.8725C68.625 24.6961 56.6969 11.2738 40.9375 8.34125Z" opacity=".999"/></g><path fill="url(#LG8)" fill-rule="nonzero" stroke="none" d="M53.4679 12.1108C26.1361 16.6705 5.28008 39.6506 5.28008 67.5241C5.28008 98.6721 31.2584 123.947 63.2967 123.947C63.4427 123.947 63.576 123.895 63.7217 123.894C60.0313 123.633 57.0807 120.636 57.0807 116.881C57.0807 112.955 60.2739 109.761 64.1998 109.761C88.2719 109.761 107.712 90.6521 107.712 67.1521C107.712 47.2333 93.7412 30.4648 74.8255 25.8181L74.8255 33.4686C74.8255 35.7026 74.2036 37.0967 72.9129 37.6657C71.6223 38.2347 70.13 37.9318 68.4501 36.7094L48.8457 22.5239C47.4526 21.5545 46.7411 20.3874 46.7205 19.0176C46.7001 17.6476 47.4116 16.4695 48.8457 15.4579L53.4679 12.1108Z" opacity="0"/><path fill="url(#LG9)" fill-rule="nonzero" stroke="none" d="M74.8255 12.2702L74.8255 25.8181C93.7412 30.4648 107.712 47.2333 107.712 67.1521C107.712 86.3076 94.7955 102.546 76.9821 107.895C72.942 109.108 68.6501 109.761 64.1998 109.761C60.2739 109.761 57.0807 112.955 57.0807 116.881C57.0807 120.636 60.0313 123.633 63.7217 123.894C70.6453 123.844 77.2812 122.616 83.4271 120.406C105.542 112.455 121.313 91.7873 121.313 67.5241C121.313 40.2169 101.336 17.4717 74.8255 12.2702Z" opacity="0"/><g opacity="0"><path fill="url(#LG10)" fill-rule="nonzero" stroke="none" d="M74.8255 11.367L74.8255 12.2702C101.336 17.4717 121.313 40.2169 121.313 67.5241C121.313 98.5302 95.5585 123.665 63.7217 123.894C63.889 123.905 64.0296 124 64.1998 124C96.0656 124 121.951 98.5637 121.951 67.1521C121.951 39.3197 101.624 16.2697 74.8255 11.367Z" filter="url(#Fi)"/></g><g opacity="1"><path fill="url(#LG11)" fill-rule="nonzero" stroke="none" d="M62.4023 11.0344C30.7104 11.0344 5.01895 36.4905 5.01895 67.8922C5.01895 99.2939 30.7104 124.75 62.4023 124.75C94.0943 124.75 119.786 99.2939 119.786 67.8922C119.786 36.4905 94.0943 11.0344 62.4023 11.0344Z" opacity=".291"/><g opacity="1"><path fill="url(#LG12)" fill-rule="nonzero" stroke="none" d="M68.818 0.351085C68.0652 0.52496 67.2345 0.940772 66.3742 1.57305L46.8759 15.7053C45.4418 16.7169 44.7303 17.8949 44.7507 19.2649C44.7713 20.6348 45.4828 21.802 46.8759 22.7714L66.4803 36.9568C68.1602 38.1792 69.6526 38.4822 70.9431 37.9131C72.2339 37.3441 72.8559 35.95 72.8558 33.7159L72.8558 26.0654L72.8558 4.76077C72.8558 2.48458 72.2339 1.07952 70.9431 0.510471C70.2979 0.225947 69.571 0.177209 68.818 0.351085Z" filter="url(#Fi2)"/><path fill="url(#LG13)" fill-rule="nonzero" stroke="none" d="M72.8558 26.0654C91.7715 30.7123 105.743 47.4807 105.743 67.3995C105.743 90.8996 86.3022 110.009 62.23 110.009C58.3041 110.009 55.1109 113.202 55.1109 117.128C55.1109 121.054 58.3041 124.247 62.23 124.247C94.0959 124.247 119.981 98.8111 119.981 67.3995C119.981 39.5672 99.6541 16.5172 72.8558 11.6144L72.8558 26.0654Z" filter="url(#Fi3)"/></g><path fill="url(#LG14)" fill-rule="nonzero" stroke="none" d="M70.37 49.2278C67.8456 49.2278 65.6521 49.9934 63.7818 51.5141C61.9114 53.0347 60.4389 55.1544 59.3896 57.8916C58.3404 60.629 57.8253 63.8381 57.8253 67.5182C57.8253 71.1678 58.3404 74.3476 59.3896 77.0545C60.4389 79.7613 61.9114 81.8664 63.7818 83.3718C65.6521 84.8774 67.8456 85.628 70.37 85.628C72.8943 85.628 75.1026 84.8774 76.9882 83.3718C78.8738 81.8664 80.316 79.7613 81.3502 77.0545C82.3842 74.3476 82.9145 71.1678 82.9145 67.5182C82.9145 63.8381 82.3842 60.629 81.3502 57.8916C80.3162 55.1544 78.8738 53.0347 76.9882 51.5141C75.1024 49.9934 72.8943 49.2278 70.37 49.2278ZM46.2735 49.5887C45.6348 49.5887 45.0758 49.7217 44.5588 49.9498C44.0417 50.1778 43.3347 50.5454 42.4831 51.0928L36.1957 55.3346C35.6787 55.6996 35.2958 56.1121 35.0525 56.538C34.8092 56.9637 34.6916 57.4344 34.6916 57.9819C34.6916 58.7422 34.9566 59.42 35.4737 59.9674C35.9908 60.5149 36.609 60.7796 37.3389 60.7796C37.7647 60.7796 38.133 60.7356 38.4218 60.6291C38.7109 60.5227 39.0788 60.3019 39.5349 59.9674L43.7767 56.8387L43.7767 81.958C43.7767 82.9009 44.0417 83.6363 44.5588 84.2142C45.0758 84.7921 45.7529 85.0866 46.6043 85.0866C47.4864 85.0866 48.178 84.8069 48.7103 84.2443C49.2424 83.6816 49.5224 82.9313 49.5224 81.958L49.5224 53.2589C49.5224 52.1336 49.228 51.2355 48.6501 50.5814C48.0722 49.9276 47.2772 49.5887 46.2735 49.5887ZM70.37 54.763C72.4076 54.763 74.0123 55.8817 75.1832 58.1323C76.3541 60.383 76.928 63.5035 76.928 67.5182C76.928 71.4111 76.3393 74.503 75.1531 76.7536C73.9669 79.0042 72.3773 80.1229 70.37 80.1229C68.3626 80.1229 66.7581 79.0042 65.5566 76.7536C64.3553 74.503 63.7517 71.4111 63.7517 67.5182C63.7517 63.534 64.3405 60.4282 65.5265 58.1624C66.7127 55.8965 68.3322 54.763 70.37 54.763Z" filter="url(#Fi4)"/></g></svg>