<svg width="100%" height="100%" viewBox="0 0 100 100" stroke-miterlimit="10" style="fill-rule:nonzero;clip-rule:evenodd;stroke-linecap:round;stroke-linejoin:round;" version="1.1" xml:space="preserve" xmlns="http://www.w3.org/2000/svg" xmlns:vectornator="http://vectornator.io" xmlns:xlink="http://www.w3.org/1999/xlink">
<defs>
<linearGradient gradientTransform="matrix(1.03493 0 0 1.03493 -1.74644 -19.5729)" gradientUnits="userSpaceOnUse" id="LinearGradient" x1="30.2027" x2="30.2693" y1="100.704" y2="62.8142">
<stop offset="0" stop-color="#7031bc"/>
<stop offset="1" stop-color="#8e3ad9"/>
</linearGradient>
</defs>
<g opacity="1" layerName="g 1">
<g opacity="1" layerName="Group 1">
<path d="M8.37646 57.6263C7.10712 57.6263 5.97444 57.8303 4.94825 58.2408C3.90871 58.6566 3.06871 59.2148 2.32859 59.9549C1.62592 60.6576 1.05763 61.5637 0.614489 62.6716C0.21025 63.6822-2.44249e-15 64.9029-2.44249e-15 66.1968C-7.90554e-08 67.4431 0.149973 68.5579 0.485123 69.7867C0.942344 70.9366 1.52889 71.8331 2.23157 72.5358C2.95032 73.2545 3.77752 73.7881 4.85123 74.2175C5.91947 74.6448 7.02821 74.8644 8.24709 74.8644C8.68585 74.8644 9.14265 74.828 9.67012 74.735C9.99281 74.6781 10.2676 74.5957 10.8021 74.4763C10.9219 74.4495 10.9418 74.4704 11.0608 74.4439C12.0205 74.2306 12.8558 73.8941 13.4864 73.4737L13.6481 73.3443L13.6481 69.8514L13.066 70.2395C11.7108 71.1107 10.1669 71.5655 8.5705 71.5655C7.44436 71.5655 6.52983 71.3736 5.85382 70.951C5.08267 70.4691 4.58757 69.8969 4.23674 69.1076C3.85953 68.3522 3.65459 67.3372 3.65459 66.1968C3.65459 65.0308 3.84897 64.1005 4.30142 63.2861C4.66765 62.4659 5.17971 61.8922 5.95084 61.4103C6.62684 60.9878 7.54136 60.7958 8.66753 60.7958C9.52356 60.7958 10.2487 60.8956 10.9314 61.1516C11.5201 61.321 12.0734 61.6326 12.8072 62.1218L13.4217 62.5099L13.4217 58.9847L13.2277 58.8876C12.4297 58.4316 11.7416 58.1119 10.9638 57.9174C10.1379 57.7109 9.30925 57.6263 8.37646 57.6263ZM15.3622 57.9174L15.3622 67.7816C15.3622 69.2041 15.6315 70.4547 16.1708 71.5332C16.8789 72.7156 17.6617 73.5238 18.6611 74.0235C19.6418 74.5688 20.9062 74.8643 22.3157 74.8644C23.725 74.8644 25.0069 74.5442 26.0026 73.9911C27.0601 73.4628 27.9243 72.6056 28.4605 71.5332C29.0148 70.4247 29.3014 69.1729 29.3014 67.7816L29.3014 57.9174L25.7115 57.9174L25.7115 68.0726C25.7115 69.3136 25.4682 70.127 24.8706 70.7246C24.2786 71.3166 23.4681 71.5655 22.3157 71.5655C21.1728 71.5655 20.3897 71.3213 19.793 70.7246C19.1812 70.1128 18.9198 69.2859 18.9198 68.0726L18.9198 57.9174L15.3622 57.9174ZM32.1151 57.9174L32.1151 74.4439L43.467 74.4439L43.467 71.2745L35.6727 71.2745L35.6727 57.9174L32.1151 57.9174ZM41.4942 57.9174L41.4942 61.1839L46.5718 61.1839L46.5718 74.4439L50.1294 74.4439L50.1294 61.1839L55.3364 61.1839L55.3364 57.9174L41.4942 57.9174ZM56.63 57.9174L56.63 67.7816C56.63 69.1729 56.9167 70.4247 57.4709 71.5332C58.179 72.7156 58.9618 73.5238 59.9612 74.0235C60.9419 74.5688 62.2064 74.8644 63.6158 74.8644C65.0252 74.8644 66.3071 74.5442 67.3027 73.9911C68.3603 73.4628 69.2245 72.6056 69.7607 71.5332C70.2999 70.4548 70.5692 69.2041 70.5692 67.7816L70.5692 57.9174L67.0116 57.9174L67.0116 68.0726C67.0116 69.2859 66.7503 70.1128 66.1384 70.7246C65.5418 71.3213 64.7587 71.5655 63.6158 71.5655C62.4729 71.5655 61.6898 71.3213 61.0931 70.7246C60.4813 70.1128 60.2199 69.2859 60.2199 68.0726L60.2199 57.9174L56.63 57.9174ZM73.3829 57.9174L73.3829 74.5409L76.9728 74.5409L76.9728 68.4607C77.498 68.4607 79.0776 68.4607 79.4631 68.4607C79.8986 69.1865 83.0207 74.4439 83.0207 74.4439L87.1604 74.4439L86.7723 73.8618C86.4844 73.4094 85.7701 72.213 85.7697 72.2124C85.2776 71.3833 85.0609 71.0246 84.7671 70.5629C84.4995 70.1424 83.327 68.3249 82.8913 67.6522C83.7225 67.2399 84.5256 66.7549 84.9935 66.0998C85.5581 65.198 85.8344 64.2342 85.8344 63.1891C85.8344 61.5042 85.2498 60.1207 84.088 59.2757C82.9593 58.3514 81.3106 57.9174 79.1721 57.9174C78.4969 57.9174 73.3829 57.9174 73.3829 57.9174ZM88.26 57.9174L88.26 74.4439L100 74.4439L100 71.3715L91.8176 71.3715L91.8176 67.4582L98.7063 67.4582L98.7063 64.3857L91.8176 64.3857L91.8176 61.0869L99.6119 61.0869L99.6119 57.9174L88.26 57.9174ZM76.9728 61.0869L79.1721 61.0869C80.3161 61.0869 81.1147 61.2608 81.63 61.6043C82.104 61.9203 82.3739 62.4988 82.3739 63.2861C82.3739 64.0734 82.104 64.6519 81.63 64.9679C81.023 65.3137 80.2139 65.4853 79.075 65.4853L76.9728 65.4853C76.9728 64.5541 76.9728 62.0181 76.9728 61.0869Z" fill="url(#LinearGradient)" fill-rule="nonzero" opacity="1" stroke="none" layerName="Curve 1"/>
<path d="M13.7882 30.7786L19.2377 30.7786C20.842 30.7786 22.0915 31.0995 22.9621 31.7428C23.8424 32.3861 24.2842 33.3083 24.2842 34.5159C24.2842 35.2059 24.1263 35.8041 23.8102 36.3055C23.4941 36.8134 23.0282 37.2148 22.4091 37.5131C23.2636 37.7969 23.9182 38.2467 24.3761 38.8626C24.8307 39.4785 25.0564 40.2266 25.0564 41.1036C25.0564 41.9694 24.8356 42.7143 24.3954 43.3286C23.9553 43.9509 23.3265 44.4314 22.509 44.77C21.6932 45.1085 20.7194 45.2778 19.5747 45.2778L13.7866 45.2778L13.7882 30.7786ZM6.53299 50.9321L32.3294 50.9321L32.3294 25.1356L6.53299 25.1356L6.53299 50.9321ZM18.9636 33.197C20.5292 33.197 21.3176 33.7726 21.3176 34.9222C21.3176 35.5171 21.1177 35.9814 20.7162 36.3119C20.3147 36.6441 19.7327 36.8085 18.9749 36.8085L16.75 36.8085L16.75 33.197L18.9636 33.197ZM19.3377 39.0818L16.7258 39.0818L16.7258 42.9997L19.2893 42.9997C20.1696 42.9997 20.8484 42.8336 21.3208 42.5031C21.7948 42.171 22.0318 41.6953 22.0318 41.073C22.0318 39.7477 21.1306 39.0899 19.3232 39.0899L19.3377 39.0818Z" fill="#fffefe" fill-rule="nonzero" opacity="1" stroke="none" layerName="path"/>
<path d="M45.1954 30.7786L50.6449 30.7786C52.2491 30.7786 53.4986 31.0995 54.3693 31.7428C55.2496 32.3861 55.6913 33.3083 55.6913 34.5159C55.6913 35.2059 55.5335 35.8041 55.2173 36.3055C54.9013 36.8134 54.4338 37.2148 53.8163 37.5131C54.6708 37.7969 55.3254 38.2467 55.7832 38.8626C56.2379 39.4785 56.4636 40.2266 56.4636 41.1036C56.4636 41.9694 56.2427 42.7143 55.8026 43.3286C55.3624 43.9509 54.7336 44.4314 53.9162 44.77C53.1004 45.1085 52.1266 45.2778 50.9819 45.2778L45.1938 45.2778L45.1954 30.7786ZM37.9402 50.9321L63.7366 50.9321L63.7366 25.1356L37.9402 25.1356L37.9402 50.9321ZM50.3708 33.197C51.9363 33.197 52.7247 33.7726 52.7247 34.9222C52.7247 35.5171 52.5248 35.9814 52.1234 36.3119C51.7219 36.6441 51.1399 36.8085 50.3821 36.8085L48.1572 36.8085L48.1572 33.197L50.3708 33.197ZM50.7449 39.0818L48.133 39.0818L48.133 42.9997L50.6965 42.9997C51.5768 42.9997 52.2556 42.8336 52.728 42.5031C53.202 42.171 53.439 41.6953 53.439 41.073C53.439 39.7477 52.5377 39.0899 50.7304 39.0899L50.7449 39.0818Z" fill="#fffefe" fill-rule="nonzero" opacity="1" stroke="none" layerName="path"/>
<path d="M85.7926 45.1601C86.5842 44.9683 87.2807 44.7055 87.8885 44.3749L87.8885 41.618C86.6197 42.3999 85.2283 42.7917 83.7288 42.7917C82.7454 42.7917 81.907 42.6063 81.2137 42.2355C80.5236 41.8646 79.998 41.3245 79.6369 40.6071C79.2741 39.8977 79.0936 39.0383 79.0936 38.0274C79.0936 37.0197 79.2806 36.1572 79.6562 35.4639C80.0319 34.7609 80.5704 34.224 81.2685 33.8532C81.9715 33.4824 82.8211 33.297 83.8159 33.297C84.5398 33.297 85.2299 33.3934 85.8796 33.5856C86.5342 33.7774 87.142 34.0596 87.7015 34.4304L87.7015 31.6089C87.0872 31.2913 86.4214 31.0495 85.7023 30.8834C84.9848 30.7173 84.2238 30.6351 83.4128 30.6351C82.252 30.6351 81.204 30.8076 80.2689 31.1527C79.3338 31.4977 78.5276 31.9943 77.8666 32.644C77.1975 33.2938 76.6848 34.0725 76.3301 34.9818C75.9754 35.8895 75.7981 36.9004 75.7981 38.029C75.7981 39.1834 75.969 40.2217 76.3108 41.1407C76.6526 42.0629 77.1427 42.8336 77.786 43.4785C78.4277 44.1154 79.2129 44.6023 80.1399 44.9409C81.0686 45.2794 82.1069 45.4487 83.2677 45.4487C84.1416 45.4487 84.9768 45.3523 85.7668 45.1601L85.7926 45.1601ZM95.1438 50.9321L69.3473 50.9321L69.3473 25.1356L95.1438 25.1356L95.1438 50.9321Z" fill="#fffefe" fill-rule="nonzero" opacity="1" stroke="none" layerName="path"/>
</g></g>
</svg>
