<svg version="1.1" id="Layer_1" xmlns="https://www.w3.org/2000/svg" xmlns:xlink="https://www.w3.org/1999/xlink" x="0px" y="0px" viewBox="0 0 99.5 16.5" style="enable-background:new 0 0 99.5 16.5;" xml:space="preserve">
<style type="text/css"> .st0{fill:#FFFFFF;} </style>
<g>
<path class="st0" d="M7.9,16.5c-1.2,0-2.3-0.2-3.3-0.6c-1-0.4-1.8-0.9-2.5-1.6c-0.7-0.7-1.2-1.6-1.6-2.6C0.2,10.6,0,9.5,0,8.2 C0,7,0.2,5.8,0.6,4.8c0.4-1,0.9-1.9,1.6-2.6C2.9,1.5,3.7,1,4.7,0.6C5.7,0.2,6.8,0,8,0c0.9,0,1.7,0.1,2.5,0.3 c0.8,0.2,1.5,0.5,2.2,0.9v2.6c-0.6-0.4-1.3-0.8-2-1C9.9,2.5,9.1,2.4,8.3,2.4c-1.1,0-2.1,0.2-2.9,0.7C4.6,3.6,4,4.2,3.6,5.1 C3.1,6,2.9,7,2.9,8.2c0,1.2,0.2,2.3,0.6,3.1c0.4,0.9,1,1.5,1.8,2C6.1,13.8,7.1,14,8.2,14c1.7,0,3.3-0.5,4.7-1.4v2.6 c-0.6,0.4-1.4,0.7-2.3,0.9C9.7,16.3,8.8,16.5,7.9,16.5">
<path class="st0" d="M22,16.5c-1.4,0-2.6-0.3-3.5-0.8c-1-0.5-1.7-1.3-2.3-2.3c-0.5-1-0.8-2.2-0.8-3.6V0.3h2.8v9.8 c0,1.3,0.3,2.2,1,2.9c0.7,0.7,1.6,1,2.8,1c1.2,0,2.1-0.3,2.8-1c0.7-0.7,1-1.6,1-2.9V0.3h2.8v9.5c0,1.4-0.3,2.6-0.8,3.6 c-0.5,1-1.3,1.8-2.3,2.3C24.6,16.2,23.4,16.5,22,16.5">
<polygon class="st0" points="32.2,0.3 35,0.3 35,13.7 42.8,13.7 42.8,16.1 32.2,16.1 ">
<polygon class="st0" points="41.6,0.3 54.7,0.3 54.7,2.8 49.5,2.8 49.5,16.1 46.7,16.1 46.7,2.8 41.6,2.8 ">
<path class="st0" d="M63.4,16.5c-1.4,0-2.6-0.3-3.5-0.8c-1-0.5-1.7-1.3-2.3-2.3c-0.5-1-0.8-2.2-0.8-3.6V0.3h2.8v9.8 c0,1.3,0.3,2.2,1,2.9c0.7,0.7,1.6,1,2.8,1c1.2,0,2.1-0.3,2.8-1c0.7-0.7,1-1.6,1-2.9V0.3H70v9.5c0,1.4-0.3,2.6-0.8,3.6 c-0.5,1-1.3,1.8-2.3,2.3C66,16.2,64.8,16.5,63.4,16.5">
<path class="st0" d="M76.4,10.1v6.1h-2.8V0.3H79c2,0,3.6,0.4,4.7,1.3c1.1,0.8,1.6,2.1,1.6,3.6c0,1-0.3,1.9-0.8,2.7 c-0.5,0.7-1.3,1.3-2.3,1.7c0.7,1.1,1.4,2.1,2.1,3.2c0.7,1.1,1.3,2.2,2,3.3h-3.2c-0.6-1-1.2-2-1.8-3s-1.2-2-1.8-3 c-0.2,0-0.4,0-0.6,0H76.4z M76.4,2.6v5.3h2.5c1.2,0,2.1-0.2,2.8-0.6c0.6-0.4,0.9-1.1,0.9-2c0-0.9-0.3-1.6-0.9-2 c-0.6-0.4-1.5-0.6-2.7-0.6H76.4z">
<polygon class="st0" points="88.5,0.3 99.1,0.3 99.1,2.7 91.3,2.7 91.3,6.8 98.2,6.8 98.2,9.1 91.3,9.1 91.3,13.8 99.5,13.8 99.5,16.1 88.5,16.1 ">
</g>
</svg>