<svg width="100%" height="100%" viewBox="-7.87373 -3.47803 534.091 533.498" xml:space="preserve" xmlns="http://www.w3.org/2000/svg" xmlns:vectornator="http://vectornator.io" xmlns:xlink="http://www.w3.org/1999/xlink"><defs><filter color-interpolation-filters="sRGB" filterUnits="userSpaceOnUse" height="533.498" id="Filter_BBEDIT" width="534.091" x="-7.87373" y="-3.47803">
<feDropShadow dx="-2.07815" dy="2.16363" flood-color="#000000" flood-opacity="0.55" in="SourceGraphic" result="Shadow" stdDeviation="5"/></filter><filter color-interpolation-filters="sRGB" filterUnits="userSpaceOnUse" height="96.8021" id="Filter_BBEDIT_2" width="108.354" x="417.864" y="150.397">
<feDropShadow dx="-2.07815" dy="2.16363" flood-color="#000000" flood-opacity="0.55" in="SourceGraphic" result="Shadow" stdDeviation="5"/></filter><filter color-interpolation-filters="sRGB" filterUnits="userSpaceOnUse" height="112.72" id="Filter_BBEDIT_3" width="97.0942" x="429.123" y="210.894">
<feDropShadow dx="-2.07815" dy="2.16363" flood-color="#000000" flood-opacity="0.55" in="SourceGraphic" result="Shadow" stdDeviation="5"/></filter><filter color-interpolation-filters="sRGB" filterUnits="userSpaceOnUse" height="265.972" id="Filter_BBEDIT_4" width="190.775" x="121.881" y="263.327">
<feDropShadow dx="-1.38543" dy="1.44242" flood-color="#000000" flood-opacity="0.55" in="SourceGraphic" result="Shadow" stdDeviation="5"/></filter><filter color-interpolation-filters="sRGB" filterUnits="userSpaceOnUse" height="229.003" id="Filter_BBEDIT_5" width="166.907" x="64.9984" y="259.153">
<feDropShadow dx="-1.38543" dy="1.44242" flood-color="#000000" flood-opacity="0.55" in="SourceGraphic" result="Shadow" stdDeviation="5"/></filter><filter color-interpolation-filters="sRGB" filterUnits="userSpaceOnUse" height="209.723" id="Filter_BBEDIT_6" width="131.15" x="38.6417" y="83.0893">
<feDropShadow dx="-1.38543" dy="1.44242" flood-color="#000000" flood-opacity="0.55" in="SourceGraphic" result="Shadow" stdDeviation="5"/></filter></defs><g id="Layer" layerName="Layer"><g opacity="1" layerName="g"><path d="M301.542 515.357L361.077 434.763L472.669 417.264L455.932 310.527L515.796 221.23L432.374 160.302L415.68 53.8454L307.821 70.7591L221.803 6.85835L158.677 94.1469L52.5271 110.793L68.7653 214.344L6.70442 299.045L93.1212 363.108L109.521 474.214L220.79 456.765L301.542 515.357Z" fill="#fcfcfd" filter="url(#Filter_BBEDIT)" layerName="path" shadowAngle="2.33605" shadowColor="#000000" shadowOffset="3" shadowOpacity="0.55" shadowRadius="10"/><g opacity="1" layerName="Group-1"><path d="M6.70442 299.045C6.70442 299.045 18.1334 308.478 26.6978 314.949C29.4041 316.993 40.4175 324.763 45.1054 328.518C49.0872 331.707 66.0806 343.999 78.6824 353.068C86.6873 358.829 92.9202 363.289 92.9202 363.289L96.3098 363.835L84.7071 288.706L6.70442 299.045Z" fill="#625ebb" opacity="1" layerName="path-3"/><path d="M82.9569 289.06L72.536 290.273C72.536 290.273 72.5369 290.277 72.5387 290.285C72.5387 290.285 73.9782 297.225 75.747 308.851C77.5617 320.779 78.4196 325.629 79.2437 336.65C80.0678 347.671 79.0434 352.936 79.0434 352.936L93.1212 363.108L82.9569 289.06Z" fill="#454383" opacity="1" layerName="path-2"/><path d="M6.70442 299.045L70.3468 290.609L72.1376 290.372L84.7071 288.706L71.7512 214.737L69.3256 213.52C69.3256 213.52 64.6608 220.068 58.4575 228.116C58.0917 228.59 57.7189 229.074 57.3395 229.567C53.9039 234.028 49.9236 239.22 45.7225 244.744C42.3415 249.189 38.8174 253.85 35.3191 258.518C32.784 261.901 30.2624 265.288 27.8186 268.6C24.9841 272.442 22.2542 276.183 19.7291 279.701C13.864 287.87 6.70442 299.045 6.70442 299.045Z" fill="#ecebf6" opacity="1" layerName="path-1"/><path d="M71.796 214.651L69.3196 213.52L57.3395 229.567C57.3395 229.567 61.8373 226.816 62.5684 227.7C66.4471 232.389 70.7163 244.304 72.536 266.43C72.8513 270.263 72.5387 290.285 72.5387 290.285C76.6996 289.954 85.1082 288.619 85.1082 288.619L71.796 214.651Z" fill="#b3b2c5" opacity="1" layerName="path-1"/></g><g opacity="1" layerName="g"><path d="M432.442 160.734L443.701 232.536L515.796 221.23L432.442 160.734Z" fill="#5954d0" filter="url(#Filter_BBEDIT_2)" layerName="path" shadowAngle="2.33605" shadowColor="#000000" shadowOffset="3" shadowOpacity="0.55" shadowRadius="10"/><path d="M443.701 232.536L455.684 308.95L515.796 221.23L443.701 232.536Z" fill="#fcfcfd" filter="url(#Filter_BBEDIT_3)" layerName="path" shadowAngle="2.33605" shadowColor="#000000" shadowOffset="3" shadowOpacity="0.55" shadowRadius="10"/></g><path d="M221.803 6.85835L242.185 136.833C276.545 129.746 303.986 141.305 308.434 143.967C317.039 149.115 325.278 153.771 332.175 161.271C353.388 184.337 350.692 217.412 336.424 242.376L346.512 248.971L388.17 242.945L368.201 115.61L221.803 6.85835Z" fill="#7772dd" opacity="1" layerName="path"/><path d="M265.086 417.769L285.014 483.655L419.8 335.722L399.192 240.138L364.515 236.65L345.352 124.788L279.027 92.6155L221.803 6.85835L115.791 153.436L135.767 280.824L165.817 293.042L179.19 399.982L202.813 421.34L265.086 417.769Z" fill="#fcfcfd" opacity="0" layerName="path-1"/><g opacity="1" layerName="g"><path d="M301.542 515.357L280.284 389.899C345.754 376.978 368.369 346.384 371.956 327.653C378.147 295.337 368.055 258.083 336.424 242.376L386.527 232.476L408.072 369.86L301.542 515.357Z" fill="#fcfcfd" opacity="1" layerName="path"/><path d="M301.542 515.357L280.284 389.899L195.256 402.649L175.142 274.385L135.767 280.824L156.019 409.973L301.542 515.357Z" fill="#5954d0" filter="url(#Filter_BBEDIT_4)" layerName="path" shadowAngle="2.33605" shadowColor="#000000" shadowOffset="2" shadowOpacity="0.55" shadowRadius="10"/></g><path d="M221.803 6.85835L242.185 136.833C276.545 129.746 303.986 141.305 308.434 143.967C317.039 149.115 325.278 153.771 332.175 161.271C353.388 184.337 350.692 217.412 336.424 242.376L346.512 248.971L388.17 242.945L368.201 115.61L221.803 6.85835Z" fill="#7772dd" opacity="1" layerName="path"/><g opacity="1" layerName="g"><path d="M361.077 434.763L472.669 417.264L442.275 223.441L386.528 232.475L408.072 369.86L361.077 434.763Z" fill="#4843bd" opacity="1" layerName="path"/><path d="M307.821 70.7591L368.201 115.61L386.527 232.474L442.275 223.44L415.68 53.8454L307.821 70.7591Z" fill="#fcfcfd" opacity="1" layerName="path"/></g><g opacity="1" layerName="g"><path d="M220.79 456.765L156.019 409.973L134.103 270.211L78.8838 278.87L80.4334 288.75L104.288 440.848L109.521 474.214L151.006 467.708L175.721 463.833L185.466 462.305L220.79 456.765Z" fill="#fcfcfd" filter="url(#Filter_BBEDIT_5)" layerName="path" shadowAngle="2.33605" shadowColor="#000000" shadowOffset="2" shadowOpacity="0.55" shadowRadius="10"/><path d="M78.8838 278.87L134.103 270.211L115.791 153.436L158.677 94.1469L52.5271 110.793L78.8838 278.87Z" fill="#5954d0" filter="url(#Filter_BBEDIT_6)" layerName="path" shadowAngle="2.33605" shadowColor="#000000" shadowOffset="2" shadowOpacity="0.55" shadowRadius="10"/><path d="M181.716 445.667C181.951 448.965 180.108 454.19 176.331 456.88C171.641 460.221 163.439 461.494 159.749 462.601C139.327 468.733 117.37 472.87 110.386 462.756C106.308 456.852 104.301 441.156 104.301 441.156L109.521 474.214L135.767 470.707L175.721 463.833L220.79 456.765L156.019 409.973C156.019 409.973 181.099 437.038 181.716 445.667ZM380.408 411.396L379.538 413.136L380.408 411.396ZM286.744 412.846L287.035 413.425L286.744 412.846Z" fill="#b3b2c5" opacity="1" layerName="path-4"/></g><path d="M178.335 162.623C176.829 164.69 180.513 180.197 181.032 183.506C184.302 204.361 186.979 225.114 190.256 246.012C195.312 278.254 199.487 310.508 204.549 342.791C205.976 351.891 207.591 361.097 208.616 370.459C208.906 373.114 208.942 377.68 210.14 380.177C210.738 381.425 217.86 379.544 218.785 379.399C229.021 377.794 239.575 376.411 249.869 374.797C282.461 369.686 331.436 366.295 350.141 332.499C364.092 307.293 355.526 270.228 328.61 256.734C322.617 253.731 315.573 252.213 308.808 251.378C305.823 251.009 299.509 251.709 297.176 250.008C298.579 248.083 307.322 244.805 309.81 243.032C317.382 237.635 323.967 229.202 327.912 220.654C331.354 213.196 331.389 203.605 330.113 195.469C322.038 143.972 259.348 150.191 221.16 156.18C208.442 158.174 196.269 159.811 178.335 162.623ZM212.29 181.526C212.29 181.526 247.201 176.566 257.519 175.895C279.875 174.443 299.631 183.472 299.001 209.42C298.884 214.198 296.965 221.924 294.074 225.892C280.769 244.145 267.495 243.856 245.939 247.236C240.628 248.069 223.155 250.809 223.155 250.809L212.29 181.526ZM244.121 269.881C253.388 268.418 263.661 266.99 267.754 267.161C281.872 267.752 295.389 265.397 307.063 273.842C320.452 283.525 326.407 303.707 321.48 319.188C319.769 324.563 316.099 329.665 311.697 333.295C305.265 338.599 296.706 342.305 287.131 344.147C268.716 347.692 238.929 351.4 238.929 351.4L226.608 272.831C226.608 272.831 234.855 271.344 244.121 269.881Z" fill="#202020" opacity="1" layerName="path"/></g></g></svg>
