<svg height="100%" stroke-miterlimit="10" style="fill-rule:nonzero;clip-rule:evenodd;stroke-linecap:round;stroke-linejoin:round;" version="1.1" viewBox="0 0 100 100" width="100%" xml:space="preserve" xmlns="http://www.w3.org/2000/svg" xmlns:vectornator="http://vectornator.io" xmlns:xlink="http://www.w3.org/1999/xlink">
<defs>
<filter color-interpolation-filters="sRGB" filterUnits="userSpaceOnUse" height="70.9296" id="Filter" width="97.5" x="1.23911" y="15.5351">
<feDropShadow dx="-0.0108916" dy="0.999941" flood-color="#b6977b" flood-opacity="0.669438" in="SourceGraphic" result="Shadow" stdDeviation="0.5"/>
</filter>
<filter color-interpolation-filters="sRGB" filterUnits="userSpaceOnUse" height="67.9906" id="Filter_2" width="94.5312" x="2.72348" y="17.0239">
<feDropShadow dx="-0.0108916" dy="0.999941" flood-color="#c4b29d" flood-opacity="0.575522" in="SourceGraphic" result="Shadow" stdDeviation="0.5"/>
</filter>
</defs>
<g id="Boobies">
<g opacity="1" >
<path d="M89.6773 39.2724C85.7437 33.3349 81.6766 27.2935 80.4594 17.4817C80.4328 17.3476 80.3879 17.2177 80.3258 17.0958C80.3309 17.0266 80.3309 16.9572 80.3258 16.888C80.1154 16.0979 79.3057 15.6267 78.5148 15.8341C70.6321 17.9319 62.5205 19.0487 54.3641 19.1591C53.3547 19.1591 52.4195 19.9903 51.2469 21.0146C50.8906 21.3263 50.3562 21.8013 50 22.0388C49.6438 21.7864 49.1094 21.3114 48.7531 20.9997C47.5805 19.9755 46.6602 19.1739 45.6359 19.1442C37.4907 19.0409 29.3893 17.9341 21.5148 15.8489C20.724 15.6415 19.9143 16.1127 19.7039 16.9028C19.6987 16.972 19.6987 17.0415 19.7039 17.1106C19.6418 17.2325 19.5968 17.3624 19.5703 17.4966C18.3977 26.8778 14.5531 32.2067 10.8422 37.3724C6.73047 43.0575 2.5 48.9505 2.5 59.7567C2.49604 71.6668 11.0752 81.8466 22.8138 83.8605C34.5523 85.8744 46.0339 79.1363 50 67.906C53.9661 79.1363 65.4477 85.8744 77.1862 83.8605C88.9248 81.8466 97.504 71.6668 97.5 59.7567C97.5 50.9989 93.7 45.2989 89.6773 39.2724ZM73.0375 81.2505C61.1504 81.2669 51.5008 71.6438 51.4844 59.7567C51.5395 56.6475 52.2105 53.58 53.4586 50.7317C53.7701 49.9734 53.4079 49.1062 52.6496 48.7946C51.8913 48.4831 51.024 48.8453 50.7125 49.6036C49.4104 52.6199 48.6757 55.8505 48.5453 59.1333C48.451 59.3278 48.4004 59.5406 48.3969 59.7567C48.3969 71.6438 38.7605 81.2802 26.8734 81.2802C14.9864 81.2802 5.35 71.6438 5.35 59.7567C5.35 49.9153 9.12031 44.6606 13.1281 39.0942C16.8836 33.8692 20.7578 28.4513 22.1977 19.0997C29.7897 20.9947 37.5744 22.0108 45.3984 22.1278C45.8878 22.4728 46.3539 22.8497 46.7938 23.256C47.9961 24.2653 48.9461 25.0966 50 25.0966C51.0539 25.0966 52.0039 24.2653 53.2062 23.2114C53.6472 22.8201 54.1133 22.4581 54.6016 22.1278C62.3886 22.0227 70.138 21.0266 77.6984 19.1591C79.1828 28.956 83.443 35.3239 87.2133 40.9794C91.1469 46.9169 94.5312 51.9489 94.5312 59.8013C94.4904 71.6478 84.8841 81.2342 73.0375 81.2505Z" fill="#efcaa5" fill-rule="nonzero" filter="url(#Filter)" stroke="none"  shadowAngle="1.58169" shadowColor="#b6977b" shadowOffset="1" shadowOpacity="0.669438" shadowRadius="1"/>
<path d="M52.1523 50.1528C50.8074 53.1805 50.0759 56.4447 50 59.7567C50 72.4636 60.3009 82.7646 73.0078 82.7646C85.7147 82.7646 96.0156 72.4636 96.0156 59.7567C96.0156 43.1614 81.5281 38.0255 78.975 17.6747L78.8711 17.2739C70.9017 19.3992 62.7002 20.5309 54.4531 20.6435C53.4883 20.6435 51.0391 23.6122 50 23.6122C48.9609 23.6122 46.5711 20.6435 45.5469 20.6435C37.3004 20.5358 29.0989 19.409 21.1289 17.2888L21.025 17.6747C18.4719 38.0255 3.98438 39.9403 3.98438 59.7567C3.98438 72.4636 14.2853 82.7646 26.9922 82.7646C39.6991 82.7646 50 72.4636 50 59.7567" fill="#faefde" fill-rule="nonzero" filter="url(#Filter_2)" stroke="none"  shadowAngle="1.58169" shadowColor="#c4b29d" shadowOffset="1" shadowOpacity="0.575522" shadowRadius="1"/>
<path d="M79.0789 18.3278C79.0789 18.1052 79.0789 17.8974 78.9898 17.6747L78.8859 17.2739C70.9118 19.4004 62.7052 20.5322 54.4531 20.6435C53.4883 20.6435 51.0391 23.6122 50 23.6122C48.9609 23.6122 46.5711 20.6435 45.5469 20.6435C37.3004 20.5358 29.0989 19.409 21.1289 17.2888L21.025 17.6747C21.025 17.8974 21.025 18.12 20.9211 18.3278C23.7266 26.4325 35.6758 32.5185 50 32.5185C64.3242 32.5185 76.2883 26.4325 79.0789 18.3278Z" fill="#fff8ee" fill-rule="nonzero" opacity="1" stroke="none" />
<path d="M53.9794 21.8317L53.9794 21.8317C54.6385 21.6559 55.2903 22.1624 55.435 22.9631L55.9593 25.8628C56.1041 26.6635 55.6871 27.4551 55.0279 27.631L55.0279 27.631C54.3688 27.8069 53.717 27.3003 53.5723 26.4996L53.048 23.6C52.9032 22.7993 53.3202 22.0076 53.9794 21.8317Z" fill="#efd8be" fill-rule="nonzero" opacity="0.492623" stroke="none" />
<path d="M45.9343 21.8318L45.9343 21.8318C45.2751 21.6559 44.6234 22.1625 44.4786 22.9634L43.9543 25.8636C43.8095 26.6645 44.2265 27.4564 44.8857 27.6323L44.8857 27.6323C45.5449 27.8082 46.1966 27.3015 46.3414 26.5007L46.8656 23.6004C47.0104 22.7995 46.5934 22.0077 45.9343 21.8318Z" fill="#efd8be" fill-rule="nonzero" opacity="0.492623" stroke="none" />
<path d="M47.5211 65.1747C44.5621 65.2179 41.7697 66.5517 39.8766 68.8263C35.7554 73.5998 29.8494 76.4643 23.5493 76.7452C17.2491 77.0261 11.1116 74.6985 6.58203 70.3106C10.9493 78.697 20.0106 83.5491 29.4115 82.5352C38.8124 81.5213 46.6307 74.8487 49.1094 65.7239L48.6492 65.1747L47.5211 65.1747ZM94.5312 65.1747C91.2078 65.1429 88.0301 66.5372 85.8031 69.0044C81.6666 73.708 75.7851 76.5137 69.5265 76.7688C63.2679 77.024 57.1776 74.7065 52.6719 70.3552C57.0814 78.8527 66.3028 83.72 75.8065 82.5663C85.3102 81.4127 93.0993 74.4804 95.3477 65.1747L94.5312 65.1747Z" fill="#efd8be" fill-rule="nonzero" opacity="1" stroke="none" />
<path d="M23.2813 57.7528C19.1823 57.7528 15.8594 61.0757 15.8594 65.1747C15.8594 69.2737 19.1823 72.5966 23.2813 72.5966C27.3802 72.5966 30.7031 69.2737 30.7031 65.1747C30.7031 61.0757 27.3802 57.7528 23.2813 57.7528ZM76.7187 57.7528C72.6198 57.7528 69.2969 61.0757 69.2969 65.1747C69.2969 69.2737 72.6198 72.5966 76.7187 72.5966C80.8177 72.5966 84.1406 69.2737 84.1406 65.1747C84.1406 61.0757 80.8177 57.7528 76.7187 57.7528Z" fill="#f283a5" fill-rule="nonzero" opacity="1" stroke="none" />
<g opacity="1" >
<path d="M23.2813 56.2685C18.3625 56.2685 14.375 60.2559 14.375 65.1747C14.375 70.0935 18.3625 74.081 23.2813 74.081C28.2 74.081 32.1875 70.0935 32.1875 65.1747C32.1875 60.2559 28.2 56.2685 23.2813 56.2685ZM23.2813 71.1122C20.0021 71.1122 17.3438 68.4539 17.3438 65.1747C17.3438 61.8955 20.0021 59.2372 23.2813 59.2372C26.5604 59.2372 29.2188 61.8955 29.2188 65.1747C29.2188 68.4539 26.5604 71.1122 23.2813 71.1122Z" fill="#d66d8d" fill-rule="nonzero" opacity="1" stroke="#d77d98" stroke-linecap="round" stroke-linejoin="round" stroke-width="0.1" />
<path d="M76.7187 56.2685C71.8 56.2685 67.8125 60.2559 67.8125 65.1747C67.8125 70.0935 71.8 74.081 76.7187 74.081C81.6375 74.081 85.625 70.0935 85.625 65.1747C85.625 60.2559 81.6375 56.2685 76.7187 56.2685ZM76.7187 71.1122C73.4396 71.1122 70.7812 68.4539 70.7812 65.1747C70.7812 61.8955 73.4396 59.2372 76.7187 59.2372C79.9979 59.2372 82.6562 61.8955 82.6562 65.1747C82.6562 68.4539 79.9979 71.1122 76.7187 71.1122Z" fill="#d66d8d" fill-rule="nonzero" opacity="1" stroke="#d77d98" stroke-linecap="round" stroke-linejoin="round" stroke-width="0.1" />
<g opacity="1" >
<path d="M22.2538 62.503C20.5511 62.503 19.1709 63.8833 19.1709 65.5859C19.1709 67.2886 20.5511 68.6688 22.2538 68.6688C23.9564 68.6688 25.3367 67.2886 25.3367 65.5859C25.3367 63.8833 23.9564 62.503 22.2538 62.503Z" fill="#d05c7f" fill-rule="nonzero" opacity="1" stroke="none" />
<path d="M23.2813 62.2016C21.6417 62.2016 20.3125 63.5351 20.3125 65.1747C20.3125 66.8143 21.6417 68.1391 23.2813 68.1391C24.9208 68.1391 26.25 66.8143 26.25 65.1747C26.25 63.5351 24.9208 62.2016 23.2813 62.2016Z" fill="#ff92b3" fill-rule="nonzero" opacity="1" stroke="none" />
</g>
<g opacity="1" id="bbookbbs">
<path d="M76.0907 62.3889C74.3881 62.3889 73.0078 63.7691 73.0078 65.4718C73.0078 67.1744 74.3881 68.5547 76.0907 68.5547C77.7934 68.5547 79.1736 67.1744 79.1736 65.4718C79.1736 63.7691 77.7934 62.3889 76.0907 62.3889Z" fill="#d05c7f" fill-rule="nonzero" opacity="1" stroke="none" />
<path d="M77.1182 62.2016C75.4786 62.2016 74.1494 63.421 74.1494 65.0605C74.1494 66.7001 75.4786 68.1391 77.1182 68.1391C78.7578 68.1391 80.0869 66.7001 80.0869 65.0605C80.0869 63.421 78.7578 62.2016 77.1182 62.2016Z" fill="#ff92b3" fill-rule="nonzero" opacity="1" stroke="none" />
</g>
</g>
</g>
</g>
</svg>
