<svg width="100%" height="100%" viewBox="0 0 100 100" version="1.1" xml:space="preserve" xmlns="http://www.w3.org/2000/svg" xmlns:xlink="http://www.w3.org/1999/xlink"><defs><filter color-interpolation-filters="sRGB" filterUnits="userSpaceOnUse" height="84.2434" id="Filter_HeaderBlueTwo" width="73.3646" x="20.2291" y="2.94725"><feDropShadow dx="-0.310728" dy="0.853696" flood-color="#000000" flood-opacity="0.55" in="SourceGraphic" result="Shadow" stdDeviation="1.0429"/></filter><linearGradient gradientTransform="matrix(1 0 0 1 5.52155 2.8157)" gradientUnits="userSpaceOnUse" id="LinearGradient_HeaderBlueTwo" x1="63.6839" x2="15.2183" y1="44.9394" y2="40.9744"><stop offset="0.167105" stop-color="#ffffff"/><stop offset="0.500452" stop-color="#ffffff"/><stop offset="0.860017" stop-color="#bebebe"/><stop offset="1" stop-color="#a9a9a9"/></linearGradient><filter color-interpolation-filters="sRGB" filterUnits="userSpaceOnUse" height="100.535" id="Filter_HeaderBlueTwo_2" width="91.8587" x="3.7599" y="0.586245"><feDropShadow dx="-0.310728" dy="0.853696" flood-color="#000000" flood-opacity="0.55" in="SourceGraphic" result="Shadow" stdDeviation="1.5429"/></filter></defs><g id="_HeaderBlueTwo"><g opacity="1"><path fill="#1e00da" filter="url(#Filter_HeaderBlueTwo)" stroke="none" shadowAngle="1.91987" shadowColor="#000000" shadowOffset="0.908487" shadowOpacity="0.55" shadowRadius="2.08581" d="M27.1031 4.70082C25.7129 4.70082 24.7131 5.02292 24.0911 5.64485C23.4692 6.26678 23.1471 7.26656 23.1471 8.65676L23.1471 79.7738C23.1471 81.164 23.4692 82.1638 24.0911 82.7857C24.7131 83.4076 25.7129 83.7297 27.1031 83.7297L44.0956 83.7297C45.4858 83.7297 46.4856 83.4076 47.1075 82.7857C47.7295 82.1637 48.0516 81.164 48.0516 79.7738L48.0516 55.4088L66.3927 55.4088L66.3927 79.7738C66.3927 81.164 66.7148 82.1638 67.3368 82.7857C67.9587 83.4076 68.9585 83.7297 70.3487 83.7297L87.3412 83.7297C88.7314 83.7297 89.7312 83.4076 90.3531 82.7857C90.9751 82.1637 91.2972 81.164 91.2972 79.7738L91.2972 8.65676C91.2972 7.26656 90.9751 6.26678 90.3531 5.64485C89.7312 5.02292 88.7314 4.70082 87.3412 4.70082L70.3487 4.70082C68.9585 4.70082 67.9587 5.02292 67.3368 5.64485C66.7148 6.26678 66.3927 7.26656 66.3927 8.65676L66.3927 32.4823L48.0516 32.4823L48.0516 8.65676C48.0516 7.26656 47.7295 6.26678 47.1075 5.64485C46.4856 5.02292 45.4858 4.70082 44.0956 4.70082L27.1031 4.70082ZM35.0149 14.5907L36.0938 14.5907L36.0938 43.6758L78.2156 43.6758L78.2156 14.5907L79.3394 14.5907L79.3394 73.8399L78.2156 73.8399L78.2156 44.7547L36.0938 44.7547L36.0938 73.8399L35.0149 73.8399L35.0149 14.5907Z"/><path fill="url(#LinearGradient_HeaderBlueTwo)" filter="url(#Filter_HeaderBlueTwo_2)" stroke="none" shadowAngle="1.91987" shadowColor="#000000" shadowOffset="0.908487" shadowOpacity="0.55" shadowRadius="3.08581" d="M27.0251 3.58981C26.2964 3.58982 25.6573 3.69846 25.0379 3.88063C24.4185 4.0628 23.8996 4.31621 23.5353 4.60768L9.43047 16.4829C8.92039 16.9201 8.5707 17.475 8.31565 18.1309C8.0606 18.7867 7.92789 19.6071 7.92789 20.5544L7.92789 91.3693C7.9279 93.1182 8.28961 94.3969 9.09118 95.1984C9.89273 96 11.1715 96.4102 12.9203 96.4102L29.8849 96.4102C30.6136 96.4102 31.3012 96.2895 31.9206 96.0709C32.5401 95.8523 32.9863 95.5869 33.2778 95.2954L47.4796 83.5171C47.9896 83.0799 48.3878 82.525 48.6428 81.8691C48.8979 81.2133 49.0306 80.3929 49.0306 79.4456L49.0306 68.2005L50.9694 68.2005L50.9694 91.3693C50.9694 93.1182 51.3796 94.3969 52.1812 95.1984C52.9827 96 54.2614 96.4102 56.0103 96.4102L72.9264 96.4102C73.6551 96.4102 74.3427 96.2895 74.9621 96.0709C75.5815 95.8523 76.0278 95.5869 76.3193 95.2954L90.5211 83.5171C91.0312 83.0799 91.4293 82.525 91.6843 81.8691C91.9394 81.2133 92.0721 80.3929 92.0721 79.4456L92.0721 8.63071C92.0721 6.88185 91.6619 5.60313 90.8604 4.80157C90.0588 3.99999 88.7801 3.58981 87.0312 3.58981L70.1151 3.58981C69.3864 3.58982 68.6988 3.69846 68.0794 3.88063C67.46 4.0628 66.9896 4.31621 66.6253 4.60768L52.5204 16.4829C52.0104 16.9201 51.6122 17.475 51.3572 18.1309C51.1021 18.7867 50.9694 19.6071 50.9694 20.5544L50.9694 31.2663L49.0306 31.2663L49.0306 8.63071C49.0306 6.88185 48.6204 5.60313 47.8188 4.80157C47.0173 3.99999 45.7386 3.58981 43.9897 3.58981L27.0251 3.58981ZM27.0251 4.70462L43.9897 4.70462C45.3742 4.70462 46.3755 5.00617 46.9948 5.62556C47.6143 6.24495 47.9158 7.24619 47.9158 8.63071L47.9158 32.3326L66.189 32.3326L66.189 8.63071C66.189 7.2462 66.4906 6.24495 67.11 5.62556C67.7294 5.00617 68.7306 4.70462 70.1151 4.70462L87.0312 4.70462C88.4157 4.70462 89.417 5.00617 90.0364 5.62556C90.6557 6.24495 91.0058 7.24619 91.0058 8.63071L91.0058 79.4456C91.0058 80.8302 90.6558 81.8314 90.0364 82.4508C89.4169 83.0702 88.4157 83.4202 87.0312 83.4202L70.1151 83.4202C68.7306 83.4202 67.7294 83.0702 67.11 82.4508C66.4906 81.8314 66.189 80.8301 66.189 79.4456L66.189 55.2105L47.9158 55.2105L47.9158 79.4456C47.9158 80.8302 47.6142 81.8314 46.9948 82.4508C46.3754 83.0702 45.3742 83.4202 43.9897 83.4202L27.0251 83.4202C25.6406 83.4202 24.6394 83.0702 24.02 82.4508C23.4006 81.8314 23.0991 80.8301 23.0991 79.4456L23.0991 8.63071C23.099 7.2462 23.4006 6.24495 24.02 5.62556C24.6394 5.00617 25.6406 4.70462 27.0251 4.70462Z"/></g></g></svg>
