<svg xmlns="http://www.w3.org/2000/svg" xml:space="preserve" stroke-linecap="round" stroke-linejoin="round" stroke-miterlimit="10" clip-rule="evenodd" viewBox="0 0 100 100"><defs><filter id="a" width="98.942" height="53.949" x="-.259" y="35.364" color-interpolation-filters="sRGB" filterUnits="userSpaceOnUse"><feDropShadow dx="-.788" dy=".816" flood-color="#000" flood-opacity=".4" in="SourceGraphic" result="Shadow" stdDeviation="1.088"/></filter><filter id="b" width="70.906" height="39.602" x="13.688" y="31.635" color-interpolation-filters="sRGB" filterUnits="userSpaceOnUse"><feDropShadow dx="-.833" dy=".863" flood-color="#000" flood-opacity=".4" in="SourceGraphic" result="Shadow" stdDeviation="1.15"/></filter></defs><path fill="#afafaf" d="M96.624 59.903v-4.767h-1.53C89.69 44.838 71.54 37.267 50 37.267c-21.54 0-39.69 7.571-45.094 17.87H3.249v7.01h.025C3.912 75.249 24.585 85.777 50 85.777c25.823 0 46.751-10.86 46.751-24.268 0-.51-.05-1.045-.127-1.606Z" filter="url(#a)"/><path fill="#99999a" d="M50 37.267c-21.54 0-39.69 7.571-45.094 17.87H3.249v7.01h.025C3.912 75.249 24.585 85.777 50 85.777v-48.51Z"/><path fill="#c1c1c1" d="M50 31.888c-25.82 0-46.751 10.865-46.751 24.268S24.18 80.424 50 80.424c25.82 0 46.751-10.865 46.751-24.268S75.82 31.888 50 31.888Z"/><path fill="#afafaf" d="M3.249 56.156c0-13.408 20.928-24.268 46.751-24.268v48.536C24.177 80.398 3.249 69.539 3.249 56.156Z"/><path fill="#eb5453" d="M17.397 50.574c0-9.33 14.58-16.927 32.578-16.927 17.996 0 32.577 7.571 32.577 16.927 0 9.355-14.58 16.926-32.578 16.926-17.996 0-32.577-7.571-32.577-16.926Z" filter="url(#b)"/><path fill="#da494a" d="M17.397 50.574V31.149s21.336 2.498 32.578 2.498c10.808 0 32.577-2.498 32.577-2.498v19.425c0 9.355-14.58 16.926-32.578 16.926-17.996 0-32.577-7.571-32.577-16.926Z"/><path fill="#d04646" d="M17.397 50.574V31.149s21.336 2.498 32.578 2.498V67.5c-17.972 0-32.578-7.571-32.578-16.926Z"/><path fill="#eb5453" d="M17.397 31.15c0-9.33 14.58-16.927 32.578-16.927 17.996 0 32.577 7.57 32.577 16.926 0 9.355-14.58 16.926-32.578 16.926-17.996 0-32.577-7.57-32.577-16.926Z"/><path fill="#e95e5d" d="M17.397 31.15h65.18c0 9.355-14.58 16.925-32.577 16.925s-32.603-7.57-32.603-16.926Z"/><path fill="#dc494a" d="M17.397 31.15c0-9.33 14.58-16.927 32.578-16.927V48.05c-17.972.025-32.578-7.545-32.578-16.9Z"/><path fill="#d64747" d="M17.397 31.15s14.58.229 32.578.229v16.67c-17.972.026-32.578-7.544-32.578-16.9Z"/></svg>