<svg height="100%" stroke-miterlimit="10" style="fill-rule:nonzero;clip-rule:evenodd;stroke-linecap:round;stroke-linejoin:round;" version="1.1" viewBox="0 0 100 100" width="100%" xml:space="preserve" xmlns="http://www.w3.org/2000/svg" xmlns:vectornator="http://vectornator.io" xmlns:xlink="http://www.w3.org/1999/xlink">
<defs>
<linearGradient gradientTransform="matrix(1.96768 0 0 1.96768 -12.9657 -16.9011)" gradientUnits="userSpaceOnUse" id="LinearGradient" x1="32" x2="32" y1="65.114" y2="21.113">
<stop offset="0" stop-color="#155cde"/>
<stop offset="0.278" stop-color="#1f7fe5"/>
<stop offset="0.569" stop-color="#279ceb"/>
<stop offset="0.82" stop-color="#2cafef"/>
<stop offset="1" stop-color="#2eb5f0"/>
</linearGradient>
<filter color-interpolation-filters="sRGB" filterUnits="userSpaceOnUse" height="96.5778" id="Filter" width="96.5778" x="1.32104" y="2.17098">
<feDropShadow dx="-0.390038" dy="0.459895" flood-color="#000000" flood-opacity="0.5" in="SourceGraphic" result="Shadow" stdDeviation="2"/>
</filter>
<radialGradient cx="50.7253" cy="37.3778" gradientTransform="matrix(1 0 0 1 0 0)" gradientUnits="userSpaceOnUse" id="RadialGradient" r="53.1874">
<stop offset="0" stop-color="#ffffff"/>
<stop offset="1" stop-color="#d1d1d1"/>
</radialGradient>
<filter color-interpolation-filters="sRGB" filterUnits="userSpaceOnUse" height="51.1358" id="Filter_2" width="76.8004" x="11.2098" y="26.8705">
<feDropShadow dx="-0.390038" dy="0.459895" flood-color="#000000" flood-opacity="0.5" in="SourceGraphic" result="Shadow" stdDeviation="2"/>
</filter>
</defs>
<path d="M0 0L100 0L100 100L0 100L0 0Z" fill="#689f38" fill-opacity="0" fill-rule="nonzero" opacity="1" stroke="none"/>
<g id="Layer-1" vectornator:layerName="Layer 1">
<g opacity="1" vectornator:layerName="Group 2">
<path d="M85.4182 6.71108L14.5818 6.71108C10.2352 6.71108 6.71108 10.2352 6.71108 14.5818L6.71108 85.4182C6.71108 89.7648 10.2352 93.2889 14.5818 93.2889L85.4182 93.2889C89.7648 93.2889 93.2889 89.7648 93.2889 85.4182L93.2889 14.5818C93.2889 10.2352 89.7648 6.71108 85.4182 6.71108Z" fill="url(#LinearGradient)" fill-rule="nonzero" filter="url(#Filter)" stroke="none" vectornator:layerName="path 1" vectornator:shadowAngle="2.27419" vectornator:shadowColor="#000000" vectornator:shadowOffset="0.60302" vectornator:shadowOpacity="0.5" vectornator:shadowRadius="4"/>
<path d="M73.8522 37.9539C72.7385 36.8402 71.2568 36.2263 69.6807 36.2263C68.0082 36.2459 66.619 36.8421 65.5033 37.9578L50.0177 53.4789L34.4908 37.9814C32.1925 35.6851 28.45 35.6891 26.1498 37.9873C25.0341 39.103 24.4202 40.5866 24.4202 42.1647C24.4202 43.7428 25.0361 45.2264 26.1537 46.3421L45.8521 66.009C47.0013 67.1562 48.5124 67.7307 50.0216 67.7307C51.5348 67.7307 53.0479 67.1542 54.1971 66.0031L73.8581 46.3067C76.1563 43.9986 76.1544 40.2541 73.8522 37.9539Z" fill="#ffffff" fill-rule="nonzero" opacity="1" stroke="none" vectornator:layerName="path 2"/>
<path d="M81.1438 33.6664C79.6896 32.2122 77.755 31.4106 75.697 31.4106C73.5132 31.4363 71.6993 32.2148 70.2426 33.6715L50.0228 53.9375L29.7491 33.7023C26.7482 30.7041 21.8616 30.7092 18.8581 33.7101C17.4014 35.1668 16.5998 37.104 16.5998 39.1645C16.5998 41.225 17.404 43.1622 18.8633 44.619L44.5838 70.2983C46.0842 71.7962 48.0573 72.5464 50.0279 72.5464C52.0037 72.5464 53.9794 71.7936 55.4798 70.2906L81.1515 44.5727C84.1523 41.559 84.1498 36.6698 81.1438 33.6664Z" fill="url(#RadialGradient)" fill-rule="nonzero" filter="url(#Filter_2)" stroke="none" vectornator:layerName="path 3" vectornator:shadowAngle="2.27419" vectornator:shadowColor="#000000" vectornator:shadowOffset="0.60302" vectornator:shadowOpacity="0.5" vectornator:shadowRadius="4"/>
</g>
</g>
</svg>
