<svg xmlns="http://www.w3.org/2000/svg" xmlns:xlink="http://www.w3.org/1999/xlink" width="100%" height="100%" viewBox="0 0 48 48"><style>@keyframes Combined-Shape_t{0%,23.4042%{transform:translate(-.073261px,-1.452231px);animation-timing-function:cubic-bezier(0,0,.58,1)}10.6382%{transform:translate(-.073261px,.547769px);animation-timing-function:cubic-bezier(0,0,.58,1)}14.8936%{transform:translate(-.073261px,-3.452231px);animation-timing-function:cubic-bezier(0,0,.58,1)}}@keyframes a0_t{0%{transform:translate(15.466739px,21.547769px);animation-timing-function:cubic-bezier(.42,0,.58,1)}10.6382%{transform:translate(15.466739px,15.547769px);animation-timing-function:cubic-bezier(.42,0,.58,1)}29.7872%{transform:translate(15.466739px,21.547769px);animation-timing-function:cubic-bezier(0,0,.58,1)}}@keyframes a1_t{0%{transform:translate(24.0762px,21.547769px);animation-timing-function:cubic-bezier(.42,0,.58,1)}10.6382%{transform:translate(24.0762px,15.547769px);animation-timing-function:cubic-bezier(.42,0,.58,1)}29.7872%{transform:translate(24.0762px,21.547769px);animation-timing-function:cubic-bezier(0,0,.58,1)}}@keyframes a2_t{0%{transform:translate(33.25px,21.547769px);animation-timing-function:cubic-bezier(.42,0,.58,1)}10.6382%{transform:translate(33.25px,15.547769px);animation-timing-function:cubic-bezier(.42,0,.58,1)}29.7872%{transform:translate(33.25px,21.547769px);animation-timing-function:cubic-bezier(0,0,.58,1)}}</style><title>B_element_chat</title><g fill="#efefef"><path style="animation:Combined-Shape_t 1.567s linear infinite both" id="Combined-Shape" d="M7.18721,44.7657C5.05415,45.3405,2.85904,44.0772,2.2843,41.9441C1.95389,40.7178,2.22547,39.4075,3.01606,38.4135C4.95945,35.9702,6.31247,34.0949,7.04438,32.8623C5.06963,29.9241,4,26.5349,4,23C4,12.454,13.4485,4,25,4C36.5515,4,46,12.454,46,23C46,33.546,36.5515,42,25,42C22.1928,42,19.4604,41.5009,16.9262,40.5459C14.2969,42.3232,11.0487,43.7253,7.18721,44.7657zM17.4623,36.447C19.7839,37.4633,22.3462,38,25,38C34.4354,38,42,31.2316,42,23C42,14.7684,34.4354,8,25,8C15.5646,8,8,14.7684,8,23C8,26.0595,9.04025,28.9826,10.9646,31.4611L11.6811,32.3839L11.2292,33.4612C10.5834,35.0012,8.91194,37.4267,6.14656,40.9035C10.0161,39.8609,13.1165,38.4475,15.4556,36.6826L16.39,35.9775L17.4623,36.447Z" transform="translate(24,23) translate(-24.0733,-24.4522)"/><ellipse style="animation:a0_t 1.567s linear .2s infinite both" fill="#FF2C7F" stroke="none" rx="3" ry="3" transform="translate(15.4667,21.5478)"/><ellipse style="animation:a1_t 1.567s linear .3s infinite both" fill="#E8F118" stroke="none" rx="3" ry="3" transform="translate(24.0762,21.5478)"/><ellipse style="animation:a2_t 1.567s linear .4s infinite both" fill="#00FFD3" stroke="none" rx="3" ry="3" transform="translate(33.25,21.5478)"/></g></svg>