<svg width="100%" height="100%" viewBox="0 0 100 100" stroke-miterlimit="10" style="fill-rule:nonzero;clip-rule:evenodd;stroke-linecap:round;stroke-linejoin:round;" version="1.1" xml:space="preserve" xmlns="http://www.w3.org/2000/svg" xmlns:xlink="http://www.w3.org/1999/xlink">
<defs>
<linearGradient id="LG2" gradientTransform="matrix(-17.6881 17.6883 -17.6883 -17.6881 31.0532 53.088)" gradientUnits="userSpaceOnUse" x1="0" x2="1" y1="0" y2="0"><stop offset="0" stop-color="#989898"/><stop offset="0.198744" stop-color="#cfcfcf"/><stop offset="0.290502" stop-color="#cfcfcf"/><stop offset="0.361715" stop-color="#cfcfcf"/><stop offset="0.522977" stop-color="#c1c1c1"/><stop offset="0.818118" stop-color="#ececec"/><stop offset="1" stop-color="#bebebe"/></linearGradient>
<radialGradient id="RG2" cx="0" cy="0" gradientTransform="matrix(-3.15306e-07 -7.21335 9.70684 -4.24299e-07 35.671 79.6863)" gradientUnits="userSpaceOnUse" r="1"><stop offset="0.0961684" stop-color="#fefefe"/><stop offset="0.846473" stop-color="#fefefe" stop-opacity="0"/></radialGradient>
<linearGradient id="LG3" gradientTransform="matrix(19.4937 20.6681 -20.6681 19.4937 47.6682 44.3484)" gradientUnits="userSpaceOnUse" x1="0" x2="1" y1="0" y2="0"><stop offset="0" stop-color="#767676"/><stop offset="0.266006" stop-color="#a9a9a9"/><stop offset="0.522977" stop-color="#c1c1c1"/><stop offset="0.735806" stop-color="#d8d8d8"/><stop offset="0.894873" stop-color="#bebebe"/></linearGradient>
<radialGradient id="RG4" cx="0" cy="0" gradientTransform="matrix(-4.74497e-07 10.8552 -7.46297 -3.26217e-07 33.2963 66.9036)" gradientUnits="userSpaceOnUse" r="1"><stop offset="0.366279" stop-color="#cfcfcf"/><stop offset="1" stop-color="#b5b5b5" stop-opacity="0"/></radialGradient>
<radialGradient id="RG6" cx="0" cy="0" gradientTransform="matrix(-3.41392e-07 -7.81013 9.71222 -4.24534e-07 34.8231 79.3013)" gradientUnits="userSpaceOnUse" r="1"><stop offset="0.0961684" stop-color="#fefefe"/><stop offset="0.846473" stop-color="#fefefe" stop-opacity="0"/></radialGradient>
<radialGradient id="RG7" cx="0" cy="0" gradientTransform="matrix(14.6981 -16.0398 16.0398 14.6981 91.9169 21.1888)" gradientUnits="userSpaceOnUse" r="1"><stop offset="0.0960526" stop-color="#fff" stop-opacity="0.713946"/><stop offset="1" stop-color="#ccc" stop-opacity="0"/></radialGradient>
<radialGradient id="RG9" cx="0" cy="0" gradientTransform="matrix(-9.30669 -6.5713 6.5713 -9.30669 6.86859 47.0459)" gradientUnits="userSpaceOnUse" r="1"><stop offset="0.1767" stop-color="#d8d8d8" stop-opacity="0.85"/><stop offset="1" stop-color="#ccc" stop-opacity="0"/></radialGradient>
</defs>
<g>
<rect fill="#0000000" x="0" y="0" width="100" height="100"/>
<g opacity="1" fill-rule="evenodd" stroke="none">
<path fill="url(#LG2)" fill-rule="nonzero" d="M12.313 40.3745C9.3315 40.3343 6.33717 41.4117 4.03172 43.6557C-0.579238 48.144-0.67524 55.5448 3.81297 60.1557L26.2505 83.2182C28.5883 85.62 31.7019 86.7151 34.813 86.6557L34.813 58.5932L20.5005 43.9057C18.2564 41.6003 15.2944 40.4147 12.313 40.3745Z"/>
<path fill="url(#RG2)" d="M96.3288 16.9227C100.742 21.6057 100.523 28.9795 95.8398 33.3925L42.5967 83.5652C37.9675 87.9277 30.6944 87.7707 26.2576 83.2124L3.8026 60.1435C-0.685604 55.5326-0.586122 48.1563 4.02483 43.668C8.63575 39.18 16.0121 39.2793 20.5003 43.8902L34.9593 58.7447L79.859 16.4337C84.5419 12.0208 91.9158 12.2398 96.3288 16.9227Z"/>
<path fill="url(#LG3)" d="M34.8231 86.735L34.8231 58.6049L34.9593 58.7447L79.859 16.4337C84.5419 12.0208 91.9158 12.2398 96.3288 16.9227C100.742 21.6057 100.523 28.9795 95.8398 33.3925L42.5967 83.5652C40.4045 85.6312 37.6194 86.6837 34.8231 86.735Z"/>
<path fill="url(#RG4)" d="M34.8231 86.735L34.8231 58.6049L34.9593 58.7447L79.859 16.4337C84.5419 12.0208 91.9158 12.2398 96.3288 16.9227C100.742 21.6057 100.523 28.9795 95.8398 33.3925L42.5967 83.5652C40.4045 85.6312 37.6194 86.6837 34.8231 86.735Z"/>
<path fill="url(#RG6)" d="M34.8231 86.735L34.8231 58.6049L34.9593 58.7447L79.859 16.4337C84.5419 12.0208 91.9158 12.2398 96.3288 16.9227C100.742 21.6057 100.523 28.9795 95.8398 33.3925L42.5967 83.5652C40.4045 85.6312 37.6194 86.6837 34.8231 86.735Z"/>
<path fill="url(#RG7)" d="M34.8231 86.735L34.8231 58.6049L34.9593 58.7447L79.859 16.4337C84.5419 12.0208 91.9158 12.2398 96.3288 16.9227C100.742 21.6057 100.523 28.9795 95.8398 33.3925L42.5967 83.5652C40.4045 85.6312 37.6194 86.6837 34.8231 86.735Z"/>
<path fill="url(#RG9)" fill-rule="nonzero" opacity="0.7" d="M12.313 40.3745C10.8222 40.3544 9.31678 40.6059 7.90672 41.1557C6.49665 41.7055 5.18445 42.5337 4.03172 43.6557C2.87898 44.7778 1.99433 46.1047 1.40672 47.4995C1.32289 47.6984 1.35401 47.922 1.28172 48.1245C0.854153 49.3218 0.524001 50.5544 0.500466 51.812C0.481732 53.2822 0.745768 54.7626 1.28172 56.1557C1.82514 57.5682 2.66488 58.8729 3.78172 60.0307L26.2505 83.2182C30.6873 87.7764 37.965 87.9244 42.5942 83.562L51.1255 75.5307L34.9692 58.7495L20.5005 43.9057C18.2564 41.6003 15.2944 40.4147 12.313 40.3745Z"/>
</g></g>
</svg>