<svg width="100%" height="100%" viewBox="0 0 131 131" stroke-miterlimit="10" style="fill-rule:nonzero;clip-rule:evenodd;stroke-linecap:round;stroke-linejoin:round;" version="1.1" xml:space="preserve" xmlns="http://www.w3.org/2000/svg" xmlns:xlink="http://www.w3.org/1999/xlink"><defs><linearGradient id="LG" gradientTransform="matrix(-40.7806 42.991 18.0895 11.919 71.76 38.795)" gradientUnits="userSpaceOnUse" x1="0" x2="1" y1="0" y2="0"><stop offset="0" stop-color="#fff" stop-opacity="0.8"/><stop offset="1" stop-color="#fff" stop-opacity="0.2"/></linearGradient><linearGradient id="LG_2" gradientTransform="matrix(29.4169 28.2025 8.6251 -12.0153 4.31605 49.2886)" gradientUnits="userSpaceOnUse" x1="0" x2="1" y1="0" y2="0"><stop offset="0" stop-color="#fff" stop-opacity="0.44"/><stop offset="1" stop-color="#fff"/></linearGradient><linearGradient id="LG_3" gradientTransform="matrix(-40.7806 -42.991 18.0895 -11.919 134.828 95.2352)" gradientUnits="userSpaceOnUse" x1="0" x2="1" y1="0" y2="0"><stop offset="0" stop-color="#fff" stop-opacity="0.8"/><stop offset="1" stop-color="#fff" stop-opacity="0.2"/></linearGradient><linearGradient id="LG_4" gradientTransform="matrix(29.4169 -28.2025 8.6251 12.0153 67.384 84.7416)" gradientUnits="userSpaceOnUse" x1="0" x2="1" y1="0" y2="0"><stop offset="0" stop-color="#fff" stop-opacity="0.44"/><stop offset="1" stop-color="#fff"/></linearGradient></defs><g><g opacity="1"><g opacity="1"><path fill="url(#LG)" fill-rule="nonzero" opacity="1" stroke="none" d="M64.6768 47.743C62.0573 45.1235 57.8102 45.1235 55.1907 47.743L29.1899 73.7439C26.5704 76.3634 26.5704 80.6104 29.1899 83.2299L29.2169 83.257C31.8364 85.8765 36.0835 85.8765 38.703 83.257L64.7038 57.2561C67.3233 54.6366 67.3233 50.3896 64.7038 47.7701L64.6768 47.743Z"/><path fill="url(#LG_2)" fill-rule="nonzero" opacity="1" stroke="none" d="M3.2379 47.7604C0.613047 50.3852 0.613047 54.6409 3.2379 57.2658L29.2194 83.2473C31.8442 85.8721 36.1 85.8721 38.7248 83.2473L38.7325 83.2396C41.3573 80.6148 41.3573 76.3591 38.7325 73.7342L12.751 47.7527C10.1261 45.1279 5.87039 45.1279 3.24554 47.7527L3.2379 47.7604Z"/></g><g opacity="1"><path fill="url(#LG_3)" fill-rule="nonzero" opacity="1" stroke="none" d="M127.745 86.2872C125.125 88.9067 120.878 88.9067 118.259 86.2872L92.2578 60.2863C89.6383 57.6668 89.6383 53.4197 92.2578 50.8002L92.2849 50.7732C94.9044 48.1537 99.1514 48.1537 101.771 50.7732L127.772 76.7741C130.391 79.3936 130.391 83.6406 127.772 86.2601L127.745 86.2872Z"/><path fill="url(#LG_4)" fill-rule="nonzero" opacity="1" stroke="none" d="M66.3059 86.2698C63.681 83.645 63.681 79.3892 66.3059 76.7644L92.2873 50.7829C94.9122 48.1581 99.1679 48.1581 101.793 50.7829L101.8 50.7905C104.425 53.4154 104.425 57.6711 101.8 60.296L75.819 86.2775C73.1941 88.9023 68.9384 88.9023 66.3135 86.2775L66.3059 86.2698Z"/></g></g></g></svg>