<svg xmlns="http://www.w3.org/2000/svg" xmlns:vectornator="http://vectornator.io" xmlns:xlink="http://www.w3.org/1999/xlink" style="fill-rule:nonzero;clip-rule:evenodd;stroke-linecap:round;stroke-linejoin:round" width="100%" height="100%" stroke-miterlimit="10" version="1.1" viewBox="1.64 2.445 94.776 94.776" xml:space="preserve"><g id="Layer"><g opacity="1"><path fill="#e57373" fill-rule="nonzero" stroke="none" d="M83.2527 97.2216L14.8032 97.2216C7.53443 97.2216 1.63987 91.3271 1.63987 84.0583L1.63987 15.6088C1.63987 8.34002 7.53443 2.44547 14.8032 2.44547L83.2527 2.44547C90.5215 2.44547 96.4161 8.34002 96.4161 15.6088L96.4161 84.0583C96.4161 91.3271 90.5215 97.2216 83.2527 97.2216Z" opacity="1"/><path fill="#ef9a9a" fill-rule="nonzero" stroke="none" d="M80.8675 35.5145L47.7985 2.44547L14.8032 2.44547C7.53443 2.44547 1.63987 8.34002 1.63987 15.6088L1.63987 48.6041L34.7089 81.6731L80.8675 35.5145Z" opacity="1"/><path fill="#212121" fill-rule="nonzero" stroke="none" d="M79.0299 33.6584L67.8358 22.4643C65.7138 20.3424 62.2756 20.3424 60.1536 22.4643L21.6587 60.9566C19.5368 63.0785 19.5368 66.5168 21.6587 68.6387L32.8528 79.8328C34.9748 81.9548 38.413 81.9548 40.535 79.8328L79.0273 41.3406C81.1492 39.2213 81.1492 35.7804 79.0299 33.6584Z" opacity="1"/><path fill="#424242" fill-rule="nonzero" stroke="none" d="M84.2952 38.9238L69.26 23.8886L23.083 70.0656L38.1182 85.1008C40.2401 87.2228 43.6784 87.2228 45.8003 85.1008L84.2926 46.6085C86.4145 44.4866 86.4145 41.0457 84.2952 38.9238Z" opacity="1"/><path fill="#9e9e9e" fill-rule="nonzero" stroke="none" d="M42.104 69.2469L39.574 66.7169C38.1234 65.2663 35.7698 65.2663 34.3192 66.7169C32.8686 68.1675 32.8686 70.5211 34.3192 71.9717L36.8492 74.5017C38.2998 75.9523 40.6534 75.9523 42.104 74.5017L42.104 74.5017C43.5546 73.0511 43.5546 70.6975 42.104 69.2469Z" opacity="1"/><path fill="#757575" fill-rule="nonzero" stroke="none" d="M45.616 76.4736L44.0759 78.0137C43.0465 79.043 41.3801 79.043 40.3533 78.0137L36.6412 74.3016L41.904 69.0389L45.616 72.751C46.6454 73.7777 46.6454 75.4468 45.616 76.4736Z" opacity="1"/><path fill="#424242" fill-rule="nonzero" stroke="none" d="M87.4044 96.4898C91.3139 95.1813 94.3757 92.1222 95.6842 88.2126L65.9718 58.4977L57.6921 66.7748L87.4044 96.4898Z" opacity="1"/><path fill="#757575" fill-rule="nonzero" stroke="none" d="M71.1582 57.6184C71.1582 57.6184 55.7544 45.8898 50.418 51.2262C45.0816 56.5627 56.8101 71.9664 56.8101 71.9664C58.8926 74.0489 62.2703 74.0489 64.3554 71.9664L71.1582 65.1636C73.2433 63.0785 73.2433 59.7008 71.1582 57.6184Z" opacity="1"/></g></g></svg>