<svg xmlns="http://www.w3.org/2000/svg" xmlns:vectornator="http://vectornator.io" xmlns:xlink="http://www.w3.org/1999/xlink" style="fill-rule:nonzero;clip-rule:evenodd;stroke-linecap:round;stroke-linejoin:round" width="100%" height="100%" stroke-miterlimit="10" version="1.1" viewBox="-1.813 2.392 103.626 96.284" xml:space="preserve">&gt;<defs><radialGradient id="RadialGradient_ClipBoardandLetterT" cx="7.429" cy="7.904" r="13.027" gradientTransform="matrix(5.69537 0 0 5.05069 -6.95365 -1.48721)" gradientUnits="userSpaceOnUse"><stop offset=".645" stop-color="#fff"/><stop offset=".946" stop-color="#c3c3c3"/><stop offset="1" stop-color="#979797"/></radialGradient><radialGradient id="RadialGradient_ClipBoardandLetterT_2" cx="9.968" cy="3.661" r="6.03" gradientTransform="matrix(6.26056 0 0 5.76152 -12.3266 -7.26583)" gradientUnits="userSpaceOnUse"><stop offset="0" stop-color="#2622ff"/><stop offset=".247" stop-color="#1817ff"/><stop offset=".59" stop-color="#0002ca"/><stop offset="1" stop-color="#0400bf"/></radialGradient><filter id="Filter_ClipBoardandLetterT" width="78.049" height="31.904" x="10.976" y="2.392" color-interpolation-filters="sRGB" filterUnits="userSpaceOnUse"><feDropShadow dx="0" dy="2.143" flood-color="#000" flood-opacity=".5" in="SourceGraphic" result="Shadow" stdDeviation="1.94"/></filter><radialGradient id="RadialGradient_ClipBoardandLetterT_3" cx="10.025" cy="10.444" r="16.047" gradientTransform="matrix(5.69537 0 0 5.05069 -6.95365 -1.48721)" gradientUnits="userSpaceOnUse"><stop offset=".763" stop-color="#fff"/><stop offset=".883" stop-color="#c3c3c3"/><stop offset="1" stop-color="#979797"/></radialGradient><filter id="Filter_ClipBoardandLetterT_2" width="103.626" height="83.21" x="-1.813" y="15.466" color-interpolation-filters="sRGB" filterUnits="userSpaceOnUse"><feDropShadow dx="0" dy="3" flood-color="#000" flood-opacity=".7" in="SourceGraphic" result="Shadow" stdDeviation="2.5"/></filter><radialGradient id="RadialGradient_ClipBoardandLetterT_4" cx="50.395" cy="60.648" r="28.614" gradientTransform="matrix(1.10789 0 0 1 -5.39454 0)" gradientUnits="userSpaceOnUse"><stop offset="0" stop-color="#2622ff"/><stop offset=".247" stop-color="#1817ff"/><stop offset=".59" stop-color="#0002ca"/><stop offset="1" stop-color="#0400bf"/></radialGradient><filter id="Filter_ClipBoardandLetterT_3" width="56.41" height="46.242" x="21.795" y="41.122" color-interpolation-filters="sRGB" filterUnits="userSpaceOnUse"><feDropShadow dx="0" dy="1.072" flood-color="#000" flood-opacity=".7" in="SourceGraphic" result="Shadow" stdDeviation="1.607"/></filter></defs><g id="Layer-4-copy" layerName="Layer 4 copy"><g layerName="Group-1" opacity="1"><path fill="url(#RadialGradient_ClipBoardandLetterT)" fill-rule="nonzero" stroke="none" d="M10.1324 18.7156C7 18.7156 4.43709 20.9884 4.43709 23.7663L4.43709 84.3746C4.43709 87.203 7 89.4253 10.1324 89.4253L89.8676 89.4253C93 89.4253 95.5629 87.203 95.5629 84.3746L95.5629 23.7663C95.5629 20.9884 93 18.7156 89.8676 18.7156L80.9686 18.7156L84.1722 21.8722L84.1722 33.8676L15.8278 33.8676L15.8278 21.8722L19.0315 18.7156L10.1324 18.7156ZM27.2186 43.969L72.7815 43.969L72.7815 54.0704L55.6953 54.0704L55.6953 79.3239L44.3047 79.3239L44.3047 54.0704L27.2186 54.0704L27.2186 43.969Z" layerName="path-1" opacity="1"/><path fill="url(#RadialGradient_ClipBoardandLetterT_2)" fill-rule="nonzero" stroke="none" d="M35.4148 5.09912L15.8257 22.059L15.9466 27.303L84.1743 27.303L84.0965 21.9331L65.148 5.09912L35.4148 5.09912ZM50.2789 10.0188C53.7222 10.0188 56.5395 12.6114 56.5395 15.7802C56.5395 19.0067 53.7222 21.5418 50.2789 21.5418C46.8356 21.5418 44.0184 19.0067 44.0184 15.7802C44.0184 12.6114 46.8356 10.0188 50.2789 10.0188Z" filter="url(#Filter_ClipBoardandLetterT)" layerName="path" shadowAngle="1.571" shadowColor="#000000" shadowOffset="2.143" shadowOpacity=".5" shadowRadius="3.88"/><path fill="url(#RadialGradient_ClipBoardandLetterT_3)" fill-rule="nonzero" stroke="none" d="M10.1324 18.7156C7 18.7156 4.43709 20.9884 4.43709 23.7663L4.43709 84.3746C4.43709 87.203 7 89.4253 10.1324 89.4253L89.8676 89.4253C93 89.4253 95.5629 87.203 95.5629 84.3746L95.5629 23.7663C95.5629 20.9884 93 18.7156 89.8676 18.7156L80.9686 18.7156L84.1722 21.8722L84.1722 33.8676L15.8278 33.8676L15.8278 21.8722L19.0315 18.7156L10.1324 18.7156ZM27.2186 43.969L72.7815 43.969L72.7815 54.0704L55.6953 54.0704L55.6953 79.3239L44.3047 79.3239L44.3047 54.0704L27.2186 54.0704L27.2186 43.969Z" filter="url(#Filter_ClipBoardandLetterT_2)" layerName="path-1" shadowAngle="1.571" shadowColor="#000000" shadowOffset="3" shadowOpacity=".7" shadowRadius="5"/><path fill="url(#RadialGradient_ClipBoardandLetterT_4)" fill-rule="nonzero" stroke="none" d="M25.8134 44.0688L25.8134 54.9844L43.9534 54.9844L43.9534 82.2735L56.0466 82.2735L56.0466 54.9844L74.1866 54.9844L74.1866 44.0688L25.8134 44.0688Z" filter="url(#Filter_ClipBoardandLetterT_3)" layerName="Curve-2" shadowAngle="1.571" shadowColor="#000000" shadowOffset="1.072" shadowOpacity=".7" shadowRadius="3.215"/></g></g></svg>