<svg xmlns="http://www.w3.org/2000/svg" xmlns:xlink="http://www.w3.org/1999/xlink" width="100%" height="100%" viewBox="0 0 48 48">
    <style>
@keyframes Combined-Shape_t { 0% { transform: translate(0px,0px); animation-timing-function: cubic-bezier(0,0,0.58,1); } 10.4166% { transform: translate(0px,2px); animation-timing-function: cubic-bezier(0,0,0.58,1); } 14.5833% { transform: translate(0px,-2px); animation-timing-function: cubic-bezier(0,0,0.58,1); } 22.9166% { transform: translate(0px,0px); animation-timing-function: cubic-bezier(0,0,0.58,1); } 100% { transform: translate(0px,0px); } }
@keyframes a0_t { 0% { transform: translate(17px,27px); animation-timing-function: cubic-bezier(0.42,0,0.58,1); } 10.4166% { transform: translate(17px,21px); animation-timing-function: cubic-bezier(0.42,0,0.58,1); } 29.1666% { transform: translate(17px,27px); animation-timing-function: cubic-bezier(0,0,0.58,1); } 100% { transform: translate(17px,27px); } }
@keyframes a1_t { 0% { transform: translate(25px,27px); animation-timing-function: cubic-bezier(0.42,0,0.58,1); } 10.4166% { transform: translate(25px,21px); animation-timing-function: cubic-bezier(0.42,0,0.58,1); } 29.1666% { transform: translate(25px,27px); animation-timing-function: cubic-bezier(0,0,0.58,1); } 100% { transform: translate(25px,27px); } }
@keyframes a2_t { 0% { transform: translate(33.066667px,27px); animation-timing-function: cubic-bezier(0.42,0,0.58,1); } 10.4166% { transform: translate(33.066667px,21px); animation-timing-function: cubic-bezier(0.42,0,0.58,1); } 29.1666% { transform: translate(33.066667px,27px); animation-timing-function: cubic-bezier(0,0,0.58,1); } 100% { transform: translate(33.066667px,27px); } }
    </style>
    <title>
stat48_cloud_waiting</title><g fill="#efefef"><path id="Combined-Shape" d="M48,30C48,35.5228,43.5228,40,38,40L9.20001,40C8.97906,40,8.76647,39.9642,8.56775,39.898C3.6904,39.1985,0,35.0034,0,30C0,26.7974,1.51959,23.8594,4,21.9989C4.00062,17.5811,7.5821,14,12,14C14.9594,9.11827,20.197,6,26,6C34.4373,6,41.3493,12.5308,41.9566,20.8131C45.5579,22.3633,48,25.9377,48,30zM38,36C41.3137,36,44,33.3137,44,30C44,27.2459,42.1279,24.8641,39.4998,24.1885C38.6031,23.9579,37.9818,23.142,37.9981,22.2162C37.9997,22.1083,37.9997,22.1083,38,22C38,15.3726,32.6274,10,26,10C21.2724,10,17.0463,12.758,15.0986,16.9759C14.7055,17.8273,13.7735,18.2912,12.8572,18.0916C12.5786,18.031,12.292,18,12,18C9.79086,18,8,19.7909,8,22C8,22.2315,8.01945,22.4596,8.05776,22.683C8.20066,23.5167,7.80368,24.3501,7.0663,24.7645C5.18661,25.8208,4,27.8055,4,30C4,33.09,6.34768,35.6675,9.39761,35.9703C9.46488,35.977,9.53109,35.9869,9.5961,36L38,36Z" transform="translate(24,23) translate(-24,-23)" style="animation: Combined-Shape_t 1.6s linear infinite both;"/>
    <ellipse rx="3" ry="3" fill="#9a3ccc" stroke="none" transform="translate(17,27)" style="animation: a0_t 1.6s linear 0.2s infinite both;"/>
    <ellipse rx="3" ry="3" fill="#ae44e6" stroke="none" transform="translate(25,27)" style="animation: a1_t 1.6s linear 0.3s infinite both;"/>
    <ellipse rx="3" ry="3" fill="#c14bff" stroke="none" transform="translate(33.0667,27)" style="animation: a2_t 1.6s linear 0.4s infinite both;"/>
</g></svg>
