<svg xmlns="http://www.w3.org/2000/svg" width="100%" height="100%" viewBox="50 50 540 540"><defs><linearGradient id="bgGrad" x1="0%" x2="100%" y1="0%" y2="100%"><stop style="stop-color:#1e293b00;stop-opacity:1" offset="0%"/><stop style="stop-color:#02061780;stop-opacity:1" offset="100%"/></linearGradient><radialGradient id="aura" x="50" y="50" cx="50%" cy="50%" r="50%" fx="50%" fy="50%"><stop style="stop-color:#38bdf8;stop-opacity:.25" offset="0%"/><stop style="stop-color:#38bdf8;stop-opacity:0" offset="100%"/></radialGradient><linearGradient id="iconGrad" x="0" x1="-50%" x2="120%" y="0" y1="-50%" y2="90%"><stop style="stop-color:#03e9f4;stop-opacity:1" offset="0%"/><stop style="stop-color:#8b008b;stop-opacity:1" offset="100%"/></linearGradient></defs><g opacity="0"><rect width="540" height="540" x="50" y="50" fill="url(#bgGrad)" rx="150"/></g><circle x="50" y="50" cx="320" cy="320" r="300" fill="url(#aura)"/><style>@keyframes slshStep{0%{transform:rotate(-45deg) scale(0);opacity:0}10%{transform:rotate(0deg) scale(1.4);opacity:1}18%{transform:rotate(360deg) scale(.6)}28%,88%{transform:rotate(360deg) scale(1.2);opacity:1}95%{transform:rotate(360deg) scale(0);opacity:0}}@keyframes leftStep{0%,18%{transform:translateX(180px) scale(0);opacity:0}28%,88%{transform:translateX(0) scale(1.2);opacity:1}95%{transform:translateX(100px) scale(0);opacity:0}}@keyframes rightStep{0%,18%{transform:translateX(-180px) scale(0);opacity:0}28%,88%{transform:translateX(0) scale(1.2);opacity:1}95%{transform:translateX(-100px) scale(0);opacity:0}}@keyframes float{0%,28%,88%{transform:translateY(0)}58%{transform:translateY(-50px)}}:root{--tempo-total:10s}.it{transform-origin:center;transform-box:fill-box;fill:url(#iconGrad);filter:drop-shadow(0 0 12px rgba(34,211,238,.5))}.scling-wr{transform:translate(320px,320px) scale(.65) translate(-320px,-256px)}.slsh{animation:slshStep var(--tempo-total) cubic-bezier(.4,0,.2,1) infinite}.brk-l{animation:leftStep var(--tempo-total) cubic-bezier(.4,0,.2,1) infinite}.brk-r{animation:rightStep var(--tempo-total) cubic-bezier(.4,0,.2,1) infinite}.floating-group{animation:float var(--tempo-total) ease-in-out infinite}</style><g class="scling-wr"><g class="floating-group"><path d="M166.7 121.3c-12.5-12.5-32.8-12.5-45.3 0l-112 112c-12.5 12.5-12.5 32.8 0 45.3l112 112c12.5 12.5 32.8 12.5 45.3 0s12.5-32.8 0-45.3L77.3 256l89.4-89.4c12.5-12.5 12.5-32.8 0-45.3z" class="it brk-l"/><path d="M473.4 121.3c-12.5 12.5-12.5 32.8 0 45.3l89.3 89.4l-89.4 89.4c-12.5 12.5-12.5 32.8 0 45.3s32.8 12.5 45.3 0l112-112c12.5-12.5 12.5-32.8 0-45.3l-112-112c-12.5-12.5-32.8-12.5-45.3 0z" class="it brk-r"/><path d="M392.8 1.2c-17-4.9-34.7 5-39.6 22l-128 448c-4.9 17 5 34.7 22 39.6s34.7-5 39.6-22l128-448c4.9-17-5-34.7-22-39.6z" class="it slsh"/></g></g></svg>