<svg width="100%" height="100%" viewBox="0 0 100 100" stroke-miterlimit="10" style="fill-rule:nonzero;clip-rule:evenodd;stroke-linecap:round;stroke-linejoin:round;" version="1.1" xml:space="preserve" xmlns="http://www.w3.org/2000/svg" xmlns:xlink="http://www.w3.org/1999/xlink"><defs><linearGradient gradientTransform="matrix(29.9179 5.55112e-15 6.66134e-16 29.9179 35.5877 50)" gradientUnits="userSpaceOnUse" id="LinearGradient_Code" x1="0" x2="1" y1="0" y2="0"><stop offset="0" stop-color="#bdb015"/><stop offset="0.994737" stop-color="#d6d433"/></linearGradient></defs>
<style>
  @keyframes left_bracket_f_o {
	0% {
	  fill-opacity: 1;
	  animation-timing-function: step-end }
	15%, 50% {
	  fill-opacity: 0;
	  animation-timing-function: step-end }
	95% {
	  fill-opacity: 1 } }
  @keyframes slash_f_o {
	0% {
	  fill-opacity: 1;
	  animation-timing-function: step-end }
	25%, 50% {
	  fill-opacity: 0;
	  animation-timing-function: step-end }
	85% {
	  fill-opacity: 1 } }
  @keyframes right_bracket_f_o {
	0% {
	  fill-opacity: 1;
	  animation-timing-function: step-end }
	35%, 50% {
	  fill-opacity: 0;
	  animation-timing-function: step-end }
	75% {
	  fill-opacity: 1 } }
  #left_bracket {
	animation: left_bracket_f_o 2000ms linear infinite normal forwards }
  #slash {
	animation: slash_f_o 2000ms linear infinite normal forwards }
  #right_bracket {
	animation: right_bracket_f_o 2000ms linear infinite normal forwards }</style>
<g id="CodeBrackets" fill="#f0f" opacity="1" stroke="none"><path id="right_bracket" class="right_bracket" d="M29.2078 27.2301C28.2575 27.2869 27.3118 27.6368 26.4973 28.2958L3.94938 46.5389C1.35503 48.6378 1.34934 52.7851 3.93754 54.8926L26.4855 73.2532C28.6523 75.0176 31.7544 74.5799 33.4136 72.2755C35.0727 69.9712 34.6612 66.6765 32.4943 64.912L15.0872 50.7346L32.4825 36.6579C34.6545 34.9006 35.0778 31.6042 33.4254 29.2944C32.3926 27.8507 30.7916 27.1353 29.2078 27.2301Z"/><path id="left_bracket" class="left_bracket" d="M70.7922 27.2301C69.2084 27.1353 67.6074 27.8507 66.5746 29.2944C64.9222 31.6042 65.3455 34.9006 67.5175 36.6579L84.9128 50.7346L67.5057 64.912C65.3388 66.6765 64.9272 69.9712 66.5864 72.2755C68.2456 74.5799 71.3477 75.0176 73.5145 73.2532L96.0625 54.8926C98.6507 52.7851 98.645 48.6378 96.0506 46.5389L73.4988 28.2958C72.6842 27.6368 71.7425 27.2869 70.7922 27.2301Z"/><path id="slash" class="slash" fill="url(#LinearGradient_Code)" d="M60.2699 14.647C58.3476 14.7701 56.589 16.09 55.9063 18.1421L35.8716 78.351C34.9613 81.0871 36.313 84.092 38.8858 85.06C41.4587 86.028 44.2803 84.5948 45.1906 81.8586L65.2213 21.6455C66.1316 18.9094 64.7839 15.9088 62.211 14.9407C61.5678 14.6987 60.9106 14.606 60.2699 14.647Z"/></g></svg>