<svg xmlns="http://www.w3.org/2000/svg" xml:space="preserve" viewBox="0 0 100 100"><defs><filter id="a" width="74" height="103.9" x="10.5" y="-2.8" color-interpolation-filters="sRGB" filterUnits="userSpaceOnUse"><feDropShadow dx="0" dy="0" flood-color="#000" flood-opacity=".4" in="SourceGraphic" result="Shadow" stdDeviation="1.5"/></filter><filter id="b" width="71.5" height="100.2" x="11.4" y=".6" color-interpolation-filters="sRGB" filterUnits="userSpaceOnUse"><feDropShadow dx="-.4" dy=".9" flood-color="#000" flood-opacity=".2" in="SourceGraphic" result="Shadow" stdDeviation="1"/></filter><filter id="c" width="54.4" height="60.8" x="11.8" y="40.1" color-interpolation-filters="sRGB" filterUnits="userSpaceOnUse"><feDropShadow dx="0" dy="1" flood-color="#000" flood-opacity=".2" in="SourceGraphic" result="Shadow" stdDeviation="1"/></filter><filter id="d" width="68" height="98.9" x="20.9" y="3.3" color-interpolation-filters="sRGB" filterUnits="userSpaceOnUse"><feDropShadow dx="0" dy="0" flood-color="#000" flood-opacity=".4" in="SourceGraphic" result="Shadow" stdDeviation="1.5"/></filter><filter id="e" width="68" height="98.9" x="20.9" y="3.3" color-interpolation-filters="sRGB" filterUnits="userSpaceOnUse"><feComponentTransfer in="SourceGraphic" result="Alpha"><feFuncA slope=".1" type="linear"/></feComponentTransfer><feDropShadow dx="0" dy="0" flood-color="#000" flood-opacity=".4" in="Alpha" result="Shadow" stdDeviation="1.5"/></filter><filter id="f" width="69.2" height="100.1" x="20.3" y="2.6" color-interpolation-filters="sRGB" filterUnits="userSpaceOnUse"><feDropShadow dx="0" dy="0" flood-color="#000" flood-opacity=".4" in="SourceGraphic" result="Shadow" stdDeviation="1.5"/></filter><filter id="g" width="51.8" height="75.8" x="30.2" y="16.1" color-interpolation-filters="sRGB" filterUnits="userSpaceOnUse"><feDropShadow dx="0" dy="1" flood-color="#000" flood-opacity=".2" in="SourceGraphic" result="Shadow" stdDeviation="1"/></filter><filter id="h" width="37.2" height="45.1" x="27.7" y="24" color-interpolation-filters="sRGB" filterUnits="userSpaceOnUse"><feDropShadow dx="0" dy="0" flood-color="#000" flood-opacity=".4" in="SourceGraphic" result="Shadow" stdDeviation="2"/></filter><filter id="i" width="37.2" height="45.1" x="47.3" y="12.6" color-interpolation-filters="sRGB" filterUnits="userSpaceOnUse"><feDropShadow dx="0" dy="0" flood-color="#000" flood-opacity=".4" in="SourceGraphic" result="Shadow" stdDeviation="2"/></filter><filter id="j" width="37.2" height="45.1" x="27.7" y="48.3" color-interpolation-filters="sRGB" filterUnits="userSpaceOnUse"><feDropShadow dx="0" dy="0" flood-color="#000" flood-opacity=".4" in="SourceGraphic" result="Shadow" stdDeviation="2"/></filter><filter id="k" width="37.2" height="45.1" x="47.3" y="37" color-interpolation-filters="sRGB" filterUnits="userSpaceOnUse"><feDropShadow dx="0" dy="0" flood-color="#000" flood-opacity=".4" in="SourceGraphic" result="Shadow" stdDeviation="2"/></filter><filter id="l" width="34.7" height="32.9" x="28.9" y="59.3" color-interpolation-filters="sRGB" filterUnits="userSpaceOnUse"><feComponentTransfer in="SourceGraphic" result="Alpha"><feFuncA slope=".3" type="linear"/></feComponentTransfer><feDropShadow dx="0" dy="0" flood-color="#000" flood-opacity=".4" in="Alpha" result="Shadow" stdDeviation="1.5"/></filter><filter id="m" width="24.5" height="18.2" x="53.6" y="38.2" color-interpolation-filters="sRGB" filterUnits="userSpaceOnUse"><feComponentTransfer in="SourceGraphic" result="Alpha"><feFuncA slope=".8" type="linear"/></feComponentTransfer><feDropShadow dx="0" dy="0" flood-color="#000" flood-opacity=".4" in="Alpha" result="Shadow" stdDeviation="1.5"/></filter><filter id="n" width="15.1" height="29.1" x="48.5" y="50.6" color-interpolation-filters="sRGB" filterUnits="userSpaceOnUse"><feComponentTransfer in="SourceGraphic" result="Alpha"><feFuncA slope=".8" type="linear"/></feComponentTransfer><feDropShadow dx="0" dy="0" flood-color="#000" flood-opacity=".4" in="Alpha" result="Shadow" stdDeviation="1.5"/></filter><filter id="o" width="15.1" height="29.1" x="48.5" y="26.3" color-interpolation-filters="sRGB" filterUnits="userSpaceOnUse"><feComponentTransfer in="SourceGraphic" result="Alpha"><feFuncA slope=".8" type="linear"/></feComponentTransfer><feDropShadow dx="0" dy="0" flood-color="#000" flood-opacity=".4" in="Alpha" result="Shadow" stdDeviation="1.5"/></filter><filter id="p" width="24.5" height="18.2" x="34" y="49.6" color-interpolation-filters="sRGB" filterUnits="userSpaceOnUse"><feComponentTransfer in="SourceGraphic" result="Alpha"><feFuncA slope=".8" type="linear"/></feComponentTransfer><feDropShadow dx="0" dy="0" flood-color="#000" flood-opacity=".4" in="Alpha" result="Shadow" stdDeviation="1.5"/></filter></defs><path fill="#efefef" d="M80.7 8 71 2.5l-1.4-.8h-.1C66.7.5 63.4.9 59.6 3L29.4 20.5a33.5 33.5 0 0 0-15.1 26.2v34.9c0 4.7 1.6 8 4.2 9.6l10.9 6.2 6.1-10.6 24.1-14a33.5 33.5 0 0 0 15.1-26.1V18.5l6-10.4Z" filter="url(#a)"/><path fill="#e3e8e7" d="M80.7 8 70.2 5.7c-.4-.3-2.6-.3-3-.5l-.8-.3-1.4-.3c-2.7-1-1.7-3.6-5.4-1.5L29.4 20.5a33.5 33.5 0 0 0-15.1 26.2v34.9c0 4.7 1.6 8 4.2 9.6l10.9 6.2 6.1-10.6 24.1-14a33.5 33.5 0 0 0 15.1-26.1V18.5l6-10.4Z" filter="url(#b)"/><path fill="#d7dddc" d="M14.8 41.6c-.3 1.8-.5 3.4-.5 5v35c0 4.7 1.6 8 4.2 9.6l10.9 6.2 6.1-10.6 24.1-14c1.4-.8 2.8-1.8 4-3L14.9 41.6Z" filter="url(#c)"/><path fill="#fff" d="M39.8 26.5a33.5 33.5 0 0 0-15.1 26.2v34.9c0 9.6 6.8 13.5 15 8.7L70 79a33.5 33.5 0 0 0 15.1-26.2v-35c0-9.5-6.8-13.4-15.1-8.6L39.8 26.5Z" filter="url(#d)"/><path fill="#8eacaf" d="M85.1 17.8C85.1 8.2 78.3 4.3 70 9L39.8 26.5a33.5 33.5 0 0 0-15.1 26.2v34.9c0 9.6 6.8 13.5 15 8.7" filter="url(#e)"/><path fill="#fff" d="M33 99c-5.4 0-9-4.5-9-11.4V52.7c0-9.8 7-21.8 15.5-26.7L69.7 8.5c2.4-1.4 4.8-2.1 7-2.1 5.5 0 9 4.5 9 11.4v34.9c0 9.8-6.9 21.8-15.4 26.7L40.1 97a14.2 14.2 0 0 1-7 2.1ZM76.8 7.6c-2 0-4.1.7-6.4 2L40.1 27.1a32.8 32.8 0 0 0-14.8 25.6v34.9c0 6.3 3 10.2 7.8 10.2 2 0 4.1-.7 6.4-2l30.2-17.5a32.8 32.8 0 0 0 14.8-25.6v-35c0-6.2-3-10-7.8-10Z" filter="url(#f)"/><path fill="#b762f9" d="M71.2 17.6a13 13 0 0 0-5.3 1.8A28 28 0 0 0 56 30.1c-2.5-1.6-6-1.5-9.8.7a30.2 30.2 0 0 0-13.6 23.5c0 4.4 1.5 7.4 4 8.8l1.3.5a28.7 28.7 0 0 0-5.3 15.1c0 8.6 6.1 12.1 13.6 7.8A28 28 0 0 0 56 76c2.4 1.6 6 1.5 9.8-.7a30.1 30.1 0 0 0 13.6-23.5c0-5-2.1-8.3-5.3-9.3l1.3-1.7c2.4-4.3 4-9.1 4-13.4 0-6.5-3.5-10.1-8.3-9.7ZM56 51.6c.4.3 1 .4 1.5.6L56 54.4l-1.5-.6 1.5-2.2Z" filter="url(#g)"/><path fill="#607efc" d="M32.7 54.3c0-8.6 6.1-19.2 13.6-23.5 7.4-4.3 13.6-.8 13.6 7.9 0 8.6-6.2 19.2-13.6 23.5-7.5 4.3-13.6.8-13.6-7.9Z" filter="url(#h)"/><path fill="#ffc612" d="M52.3 43c0-8.7 6.1-19.2 13.6-23.6 7.5-4.3 13.6-.7 13.6 7.9s-6.1 19.2-13.6 23.5c-7.5 4.3-13.6.8-13.6-7.8Z" filter="url(#i)"/><path fill="#f28314" d="M32.7 78.7c0-8.6 6.1-19.2 13.6-23.5 7.4-4.3 13.6-.8 13.6 7.8s-6.2 19.2-13.6 23.5c-7.5 4.4-13.6.8-13.6-7.8Z" filter="url(#j)"/><path fill="#b762f9" d="M52.3 67.3c0-8.6 6.1-19.2 13.6-23.5 7.5-4.3 13.6-.8 13.6 7.9 0 8.6-6.1 19.2-13.6 23.5-7.5 4.3-13.6.8-13.6-7.9Z" filter="url(#k)"/><path fill="#ffc612" d="M65.9 19.4c7.5-4.3 13.6-.7 13.6 7.9s-6.1 19.2-13.6 23.5" opacity=".5"/><path fill="#607efc" d="M46.3 62.2c-7.5 4.3-13.6.8-13.6-7.9 0-8.6 6.1-19.2 13.6-23.5" opacity=".3"/><path fill="#f28314" d="M59.9 63c0 8.6-6.2 19.2-13.6 23.5-7.5 4.4-13.6.8-13.6-7.8" filter="url(#l)"/><path fill="#b762f9" d="M79.5 51.7c0 8.6-6.1 19.2-13.6 23.5-7.5 4.3-13.6.8-13.6-7.9" opacity=".6"/><path fill="#ef1682" d="M65.9 43.8a26.7 26.7 0 0 0-8.5 8.4c2.3.9 5.3.5 8.5-1.4C69 49 72 46 74.4 42.4c-2.3-.8-5.3-.4-8.5 1.4Z" filter="url(#m)"/><path fill="#c40c45" d="M56 54.4a27.5 27.5 0 0 0-3.7 13c0 4.1 1.5 7.1 3.8 8.6 2.3-4.2 3.8-8.8 3.8-13 0-4.2-1.5-7.2-3.8-8.6Z" filter="url(#n)"/><path fill="#15ffd2" d="M56 30a27.5 27.5 0 0 0-3.7 13c0 4.2 1.5 7.1 3.8 8.6 2.3-4.1 3.8-8.8 3.8-13 0-4.1-1.5-7.1-3.8-8.6Z" filter="url(#o)"/><path fill="#6d3dd8" d="M46.3 55.2a26.7 26.7 0 0 0-8.6 8.4c2.4.8 5.3.4 8.6-1.4 3.2-1.9 6.2-5 8.5-8.4-2.3-.9-5.3-.5-8.5 1.4Z" filter="url(#p)"/></svg>