<svg xmlns="http://www.w3.org/2000/svg" xmlns:vectornator="http://vectornator.io" xmlns:xlink="http://www.w3.org/1999/xlink" width="100%" height="100%" stroke-miterlimit="10" viewBox="0 0 100 100" style="fill-rule:nonzero;clip-rule:evenodd;stroke-linecap:round;stroke-linejoin:round" version="1.1" xml:space="preserve"><defs><filter id="Filter" width="60.397" height="45.276" x="11.751" y="28.878" color-interpolation-filters="sRGB" filterUnits="userSpaceOnUse"><feDropShadow dx="0" dy="1" flood-color="#000" flood-opacity=".4" in="SourceGraphic" result="Shadow" stdDeviation="1"/></filter><filter id="Filter_2" width="43.741" height="43.751" x="57.759" y="-.485" color-interpolation-filters="sRGB" filterUnits="userSpaceOnUse"><feDropShadow dx="0" dy="1" flood-color="#000" flood-opacity=".4" in="SourceGraphic" result="Shadow" stdDeviation="1"/></filter><filter id="Filter_3" width="39.633" height="39.585" x="45.935" y="15.498" color-interpolation-filters="sRGB" filterUnits="userSpaceOnUse"><feDropShadow dx="0" dy="1" flood-color="#000" flood-opacity=".4" in="SourceGraphic" result="Shadow" stdDeviation="1"/></filter><linearGradient id="LinearGradient" x1="13.318" x2="13.985" y1="74.137" y2="95.1" gradientTransform="matrix(1 0 0 1 0 0)" gradientUnits="userSpaceOnUse"><stop offset="0" stop-color="#ff216c"/><stop offset="1" stop-color="#db003d"/></linearGradient><filter id="Filter_4" width="49.242" height="33.339" x="-1.5" y="69.146" color-interpolation-filters="sRGB" filterUnits="userSpaceOnUse"><feDropShadow dx="0" dy="1" flood-color="#000" flood-opacity=".4" in="SourceGraphic" result="Shadow" stdDeviation="1"/></filter></defs><g layerName="Pipette" opacity="1"><path fill="#01c1ff" fill-rule="nonzero" stroke="none" d="M69.6479 45.1281C69.6479 44.5736 69.4261 44.0449 69.0367 43.6528L56.363 30.9869C55.5505 30.1745 54.23 30.1745 53.4151 30.9869C53.4151 30.9869 17.8751 67.0298 14.2514 70.6534C14.2514 70.6534 14.7698 70.0886 14.2514 70.6534L45.2419 70.6534L69.0367 46.6033C69.4261 46.2087 69.6479 45.6774 69.6479 45.1281Z" filter="url(#Filter)" layerName="path" shadowAngle="1.571" shadowColor="#000000" shadowOffset="1" shadowOpacity=".4" shadowRadius="2"/><path fill="#ff9800" fill-rule="nonzero" stroke="none" d="M78.6309 39.7661C78.0764 39.7661 77.5477 39.5443 77.1557 39.1523L60.8687 22.8653C60.0562 22.0529 60.0562 20.7324 60.8687 19.9148C60.8687 19.9148 75.536 5.25003 75.7733 5.0076C78.3498 2.43108 81.7671 1.01515 85.4011 1.01515C89.0376 1.01515 92.4523 2.43108 95.0211 4.99986C100.326 10.3051 100.326 18.9347 95.0211 24.2425C94.7632 24.4953 80.1062 39.1523 80.1062 39.1523C79.7116 39.5443 79.1828 39.7661 78.6309 39.7661Z" filter="url(#Filter_2)" layerName="path 1" shadowAngle="1.571" shadowColor="#000000" shadowOffset="1" shadowOpacity=".4" shadowRadius="2"/><path fill="#f57f17" fill-rule="nonzero" stroke="none" d="M72.993 51.5836C71.755 51.5836 70.5841 51.0987 69.7098 50.227L49.794 30.3112C48.9197 29.4368 48.4348 28.2685 48.4348 27.028C48.4348 25.79 48.9197 24.6191 49.794 23.7448L55.2256 18.3158C56.9819 16.5594 60.0356 16.5594 61.7971 18.3158L81.7104 38.229C83.5209 40.0421 83.5209 42.99 81.7104 44.798L76.2839 50.227C75.4019 51.1013 74.231 51.5836 72.993 51.5836Z" filter="url(#Filter_3)" layerName="path 2" shadowAngle="1.571" shadowColor="#000000" shadowOffset="1" shadowOpacity=".4" shadowRadius="2"/><path fill="url(#LinearGradient)" fill-rule="nonzero" stroke="none" d="M14.254 70.6509C13.6402 71.3188 12.3274 72.6264 11.8219 73.23C9.08548 76.4848 7.82172 78.8962 7.37296 81.1375C6.97062 83.1466 6.59149 85.0474 1.60867 90.0276C1.49003 90.1489 1.26823 90.3552 1 90.5976L9.38208 98.9848C9.66836 98.7166 9.90047 98.4974 9.98558 98.4097C14.971 93.4191 16.8666 93.0452 18.8757 92.6428C21.8881 92.0419 24.4414 91.1908 29.8962 85.736L45.2419 70.6457L14.254 70.6509L14.254 70.6509Z" filter="url(#Filter_4)" layerName="path 3" shadowAngle="1.571" shadowColor="#000000" shadowOffset="1" shadowOpacity=".4" shadowRadius="2"/></g></svg>