<svg width="100%" height="100%" viewBox="0 0 131 131" stroke-miterlimit="10" style="fill-rule:nonzero;clip-rule:evenodd;stroke-linecap:round;stroke-linejoin:round;" version="1.1" xml:space="preserve" xmlns="http://www.w3.org/2000/svg" xmlns:xlink="http://www.w3.org/1999/xlink"><defs><linearGradient id="LG" gradientTransform="matrix(-0.415508 -50.2764 50.2764 -0.415508 66.5388 42.2972)" gradientUnits="userSpaceOnUse" x1="0" x2="1" y1="0" y2="0"><stop offset="0" stop-color="#ffcd69" stop-opacity="0.6"/><stop offset="1" stop-color="#ffc800" stop-opacity="0.6"/></linearGradient><linearGradient id="LG_2" gradientTransform="matrix(-0.415508 -50.2764 50.2764 -0.415508 66.5388 42.2972)" gradientUnits="userSpaceOnUse" x1="0" x2="1" y1="0" y2="0"><stop offset="0" stop-color="#ffdf00" stop-opacity="0.6"/><stop offset="1" stop-color="#ffcd69" stop-opacity="0.6"/></linearGradient><linearGradient id="LG_3" gradientTransform="matrix(-5.14416 -129.78 129.78 -5.14416 69.6262 132.939)" gradientUnits="userSpaceOnUse" x1="0" x2="1" y1="0" y2="0"><stop offset="0" stop-color="#e41a92" stop-opacity="0.8"/><stop offset="0.490789" stop-color="#ff0098" stop-opacity="0.8"/><stop offset="1" stop-color="#ff0180" stop-opacity="0.8"/></linearGradient><linearGradient id="LG_4" gradientTransform="matrix(-5.14416 -129.78 129.78 -5.14416 69.6262 132.939)" gradientUnits="userSpaceOnUse" x1="0" x2="1" y1="0" y2="0"><stop offset="0" stop-color="#e41a92" stop-opacity="0.8"/><stop offset="0.490789" stop-color="#ff0098" stop-opacity="0.8"/><stop offset="1" stop-color="#ff0180" stop-opacity="0.8"/></linearGradient><linearGradient id="LG_5" gradientTransform="matrix(0 -52.3989 52.3989 0 65.5 49.4279)" gradientUnits="userSpaceOnUse" x1="0" x2="1" y1="0" y2="0"><stop offset="0" stop-color="#feb537" stop-opacity="0.2"/><stop offset="1" stop-color="#fedf41" stop-opacity="0.4"/></linearGradient><linearGradient id="LG_6" gradientTransform="matrix(0 -52.3989 52.3989 0 65.5 143.973)" gradientUnits="userSpaceOnUse" x1="0" x2="1" y1="0" y2="0"><stop offset="0" stop-color="#feb537" stop-opacity="0.2"/><stop offset="1" stop-color="#fedf41" stop-opacity="0.4"/></linearGradient><linearGradient id="LG_7" gradientTransform="matrix(52.3989 2.29043e-06 -2.29043e-06 52.3989 81.6377 65.5657)" gradientUnits="userSpaceOnUse" x1="0" x2="1" y1="0" y2="0"><stop offset="0" stop-color="#feb537" stop-opacity="0.2"/><stop offset="1" stop-color="#fedf41" stop-opacity="0.4"/></linearGradient><linearGradient id="LG_8" gradientTransform="matrix(52.3989 2.29043e-06 -2.29043e-06 52.3989 -12.9077 65.5657)" gradientUnits="userSpaceOnUse" x1="0" x2="1" y1="0" y2="0"><stop offset="0" stop-color="#feb537" stop-opacity="0.2"/><stop offset="1" stop-color="#fedf41" stop-opacity="0.4"/></linearGradient><linearGradient id="LG_9" gradientTransform="matrix(0.491638 -58.5491 -59.4882 -0.483877 64.305 46.2202)" gradientUnits="userSpaceOnUse" x1="0" x2="1" y1="0" y2="0"><stop offset="0" stop-color="#fa0" stop-opacity="0.6"/><stop offset="1" stop-color="#ffe669" stop-opacity="0.6"/></linearGradient><linearGradient id="LG_10" gradientTransform="matrix(0.556049 -67.234 -67.282 -0.555652 64.1464 50.3425)" gradientUnits="userSpaceOnUse" x1="0" x2="1" y1="0" y2="0"><stop offset="0" stop-color="#fa0" stop-opacity="0.6"/><stop offset="1" stop-color="#ffe669" stop-opacity="0.6"/></linearGradient><linearGradient id="LG_11" gradientTransform="matrix(-0.614669 -75.9505 74.3749 -0.62769 67.0292 54.5632)" gradientUnits="userSpaceOnUse" x1="0" x2="1" y1="0" y2="0"><stop offset="0" stop-color="#fa0" stop-opacity="0.6"/><stop offset="1" stop-color="#ffe669" stop-opacity="0.6"/></linearGradient><linearGradient id="LG_12" gradientTransform="matrix(-0.362483 -43.8605 43.8605 -0.362483 66.4082 39.3541)" gradientUnits="userSpaceOnUse" x1="0" x2="1" y1="0" y2="0"><stop offset="0" stop-color="#fa0" stop-opacity="0.6"/><stop offset="1" stop-color="#ffe669" stop-opacity="0.6"/></linearGradient></defs><g><g opacity="1"><g opacity="1"><path fill="url(#LG)" fill-rule="nonzero" opacity="0.42" stroke="none" d="M67.524 1.85933L89.5357 56.6312C90.3833 58.7369 88.1884 60.7593 86.3593 59.5578L65.4986 45.9005L44.6409 59.5608C42.8088 60.7593 40.6169 58.7399 41.4645 56.6342L63.4762 1.86231C64.2376-0.0411481 66.7596-0.0411481 67.524 1.85933Z"/><path fill="url(#LG_2)" fill-rule="nonzero" opacity="1" stroke="none" d="M67.524 1.85933L89.5357 56.6312C90.3833 58.7369 88.1884 60.7593 86.3593 59.5578L65.4986 45.9005L44.6409 59.5608C42.8088 60.7593 40.6169 58.7399 41.4645 56.6342L63.4762 1.86231C64.2376-0.0411481 66.7596-0.0411481 67.524 1.85933Z"/></g><path fill="url(#LG_3)" fill-rule="nonzero" opacity="1" stroke="none" d="M59.0625 12.8125C32.7334 15.9961 12.3125 38.3748 12.3125 65.5625C12.3125 94.9336 36.1289 118.75 65.5 118.75C94.8711 118.75 118.688 94.9336 118.688 65.5625C118.688 38.3748 98.2666 15.9961 71.9375 12.8125L77.2812 26.0937C94.3463 31.1919 106.875 46.8396 106.875 65.5625C106.875 88.407 88.3445 106.938 65.5 106.938C42.6555 106.938 24.125 88.407 24.125 65.5625C24.125 46.8291 36.6702 31.1827 53.75 26.0937L59.0625 12.8125Z"/><g opacity="1"><path fill="url(#LG_4)" fill-rule="nonzero" opacity="0" stroke="none" d="M65.5 12.3838C36.1289 12.3838 12.3182 36.1945 12.3182 65.5657C12.3182 94.9368 36.1289 118.747 65.5 118.747C94.8711 118.747 118.682 94.9368 118.682 65.5657C118.682 36.1945 94.8711 12.3838 65.5 12.3838ZM65.5 106.929C42.6555 106.929 24.1364 88.4102 24.1364 65.5657C24.1364 42.7211 42.6555 24.202 65.5 24.202C88.3445 24.202 106.864 42.7211 106.864 65.5657C106.864 88.4102 88.3445 106.929 65.5 106.929Z"/><g opacity="0.7"><path fill="#ffd500" fill-rule="nonzero" opacity="0.1" stroke="none" d="M127.841 59.6861C127.752 59.6566 127.634 59.6566 127.545 59.6566L98 59.6566C97.6159 59.6566 97.2614 59.7452 96.9068 59.8634C97.2318 61.7247 97.4091 63.6157 97.4091 65.5657C97.4091 67.5157 97.2318 69.4066 96.9068 71.2679C97.2614 71.3861 97.6159 71.4747 98 71.4747L127.545 71.4747C127.634 71.4747 127.752 71.4747 127.841 71.4452C128.048 69.5247 128.136 67.5452 128.136 65.5657C128.136 63.5861 128.048 61.6066 127.841 59.6861ZM65.5 97.4747C63.55 97.4747 61.6591 97.2975 59.7977 96.9725C59.6795 97.327 59.5909 97.6816 59.5909 98.0657L59.5909 127.611C59.5909 127.7 59.5909 127.818 59.6205 127.907C61.5409 128.113 63.5205 128.202 65.5 128.202C67.4795 128.202 69.4591 128.113 71.3795 127.907C71.4091 127.818 71.4091 127.7 71.4091 127.611L71.4091 98.0657C71.4091 97.6816 71.3205 97.327 71.2023 96.9725C69.3409 97.2975 67.45 97.4747 65.5 97.4747ZM33 59.6566L3.45455 59.6566C3.36591 59.6566 3.24773 59.6566 3.15909 59.6861C2.95227 61.6066 2.86364 63.5861 2.86364 65.5657C2.86364 67.5452 2.95227 69.5247 3.15909 71.4452C3.24773 71.4747 3.36591 71.4747 3.45455 71.4747L33 71.4747C33.3841 71.4747 33.7386 71.3861 34.0932 71.2679C33.7682 69.4066 33.5909 67.5157 33.5909 65.5657C33.5909 63.6157 33.7682 61.7247 34.0932 59.8634C33.7386 59.7452 33.3841 59.6566 33 59.6566Z"/><path fill="#ffd500" fill-rule="nonzero" opacity="0.2" stroke="none" d="M125.477 59.6566L99.2705 59.6566C99.5955 61.577 99.7727 63.5566 99.7727 65.5657C99.7727 67.5747 99.5955 69.5543 99.2705 71.4747L125.477 71.4747C125.684 69.5247 125.773 67.5747 125.773 65.5657C125.773 63.5566 125.684 61.6066 125.477 59.6566ZM59.5909 99.3361L59.5909 125.543C61.5409 125.75 63.4909 125.838 65.5 125.838C67.5091 125.838 69.4591 125.75 71.4091 125.543L71.4091 99.3361C69.4886 99.6611 67.5091 99.8384 65.5 99.8384C63.4909 99.8384 61.5114 99.6611 59.5909 99.3361ZM5.52273 59.6566C5.31591 61.6066 5.22727 63.5566 5.22727 65.5657C5.22727 67.5747 5.31591 69.5247 5.52273 71.4747L31.7295 71.4747C31.4045 69.5543 31.2273 67.5747 31.2273 65.5657C31.2273 63.5566 31.4045 61.577 31.7295 59.6566L5.52273 59.6566Z"/><path fill="#ffd500" fill-rule="nonzero" opacity="0.3" stroke="none" d="M123.114 59.6566L101.664 59.6566C101.989 61.577 102.136 63.5566 102.136 65.5657C102.136 67.5747 101.989 69.5543 101.664 71.4747L123.114 71.4747C123.32 69.5247 123.409 67.5747 123.409 65.5657C123.409 63.5566 123.32 61.6066 123.114 59.6566ZM59.5909 101.729L59.5909 123.179C61.5409 123.386 63.4909 123.475 65.5 123.475C67.5091 123.475 69.4591 123.386 71.4091 123.179L71.4091 101.729C69.4886 102.054 67.5091 102.202 65.5 102.202C63.4909 102.202 61.5114 102.054 59.5909 101.729ZM7.88636 59.6566C7.67955 61.6066 7.59091 63.5566 7.59091 65.5657C7.59091 67.5747 7.67955 69.5247 7.88636 71.4747L29.3364 71.4747C29.0114 69.5543 28.8636 67.5747 28.8636 65.5657C28.8636 63.5566 29.0114 61.577 29.3364 59.6566L7.88636 59.6566Z"/><path fill="#ffd500" fill-rule="nonzero" opacity="0.4" stroke="none" d="M120.72 59.6566L104.057 59.6566C104.352 61.577 104.5 63.5566 104.5 65.5657C104.5 67.5747 104.352 69.5543 104.057 71.4747L120.72 71.4747C120.927 69.5247 121.045 67.5747 121.045 65.5657C121.045 63.5566 120.927 61.6066 120.72 59.6566ZM59.5909 104.122L59.5909 120.786C61.5409 120.993 63.4909 121.111 65.5 121.111C67.5091 121.111 69.4591 120.993 71.4091 120.786L71.4091 104.122C69.4886 104.418 67.5091 104.566 65.5 104.566C63.4909 104.566 61.5114 104.418 59.5909 104.122ZM10.2795 59.6566C10.0727 61.6066 9.95455 63.5566 9.95455 65.5657C9.95455 67.5747 10.0727 69.5247 10.2795 71.4747L26.9432 71.4747C26.6477 69.5543 26.5 67.5747 26.5 65.5657C26.5 63.5566 26.6477 61.577 26.9432 59.6566L10.2795 59.6566Z"/></g><g opacity="0.7"><g opacity="0"><path fill="#ffc400" fill-rule="nonzero" opacity="0.05" stroke="none" d="M77.3182 13.7429L77.3182 25.9157C76.9341 25.7975 76.55 25.7088 76.1364 25.5907C75.7523 25.4725 75.3682 25.3838 74.9545 25.2952L73.7727 25.0293C73.3886 24.9407 72.975 24.8816 72.5909 24.8225C70.2864 24.4088 67.9227 24.202 65.5 24.202C63.0773 24.202 60.7136 24.4088 58.4091 24.8225C58.025 24.8816 57.6114 24.9407 57.2273 25.0293L56.0455 25.2952C55.6318 25.3838 55.2477 25.4725 54.8636 25.5907C54.45 25.7088 54.0659 25.7975 53.6818 25.9157L53.6818 13.7429C54.0659 13.6247 54.4795 13.5361 54.8636 13.4475C55.2477 13.3588 55.6614 13.2997 56.0455 13.2407C56.4295 13.152 56.8432 13.0929 57.2273 13.0338L58.4091 12.8566C60.7136 12.5316 63.1068 12.3838 65.5 12.3838C67.8932 12.3838 70.2864 12.5316 72.5909 12.8566L73.7727 13.0338C74.1568 13.0929 74.5705 13.152 74.9545 13.2407C75.3386 13.2997 75.7523 13.3588 76.1364 13.4475C76.5205 13.5361 76.9341 13.6247 77.3182 13.7429Z"/><path fill="#ffc400" fill-rule="nonzero" opacity="0.1" stroke="none" d="M76.1364 13.4475L76.1364 25.5907C75.7523 25.4725 75.3682 25.3838 74.9545 25.2952L73.7727 25.0293C73.3886 24.9407 72.975 24.8816 72.5909 24.8225C70.2864 24.4088 67.9227 24.202 65.5 24.202C63.0773 24.202 60.7136 24.4088 58.4091 24.8225C58.025 24.8816 57.6114 24.9407 57.2273 25.0293L56.0455 25.2952C55.6318 25.3838 55.2477 25.4725 54.8636 25.5907L54.8636 13.4475C55.2477 13.3588 55.6614 13.2997 56.0455 13.2407C56.4295 13.152 56.8432 13.0929 57.2273 13.0338L58.4091 12.8566C60.7136 12.5316 63.1068 12.3838 65.5 12.3838C67.8932 12.3838 70.2864 12.5316 72.5909 12.8566L73.7727 13.0338C74.1568 13.0929 74.5705 13.152 74.9545 13.2407C75.3386 13.2997 75.7523 13.3588 76.1364 13.4475Z"/><path fill="#ffc400" fill-rule="nonzero" opacity="0.2" stroke="none" d="M74.9545 13.2407L74.9545 25.2952L73.7727 25.0293C73.3886 24.9407 72.975 24.8816 72.5909 24.8225C70.2864 24.4088 67.9227 24.202 65.5 24.202C63.0773 24.202 60.7136 24.4088 58.4091 24.8225C58.025 24.8816 57.6114 24.9407 57.2273 25.0293L56.0455 25.2952L56.0455 13.2407C56.4295 13.152 56.8432 13.0929 57.2273 13.0338L58.4091 12.8566C60.7136 12.5316 63.1068 12.3838 65.5 12.3838C67.8932 12.3838 70.2864 12.5316 72.5909 12.8566L73.7727 13.0338C74.1568 13.0929 74.5705 13.152 74.9545 13.2407Z"/><path fill="#ffc400" fill-rule="nonzero" opacity="0.3" stroke="none" d="M73.7727 13.0338L73.7727 25.0293C73.3886 24.9407 72.975 24.8816 72.5909 24.8225C70.2864 24.4088 67.9227 24.202 65.5 24.202C63.0773 24.202 60.7136 24.4088 58.4091 24.8225C58.025 24.8816 57.6114 24.9407 57.2273 25.0293L57.2273 13.0338L58.4091 12.8566C60.7136 12.5316 63.1068 12.3838 65.5 12.3838C67.8932 12.3838 70.2864 12.5316 72.5909 12.8566C72.5909 12.8566 73.7727 13.0338 73.7727 13.0338Z"/><path fill="#ffc400" fill-rule="nonzero" opacity="0.4" stroke="none" d="M72.5909 12.8566L72.5909 24.8225C70.2864 24.4088 67.9227 24.202 65.5 24.202C63.0773 24.202 60.7136 24.4088 58.4091 24.8225L58.4091 12.8566C60.7136 12.5316 63.1068 12.3838 65.5 12.3838C67.8932 12.3838 70.2864 12.5316 72.5909 12.8566Z"/></g><g opacity="1"><path fill="#ffc400" fill-rule="nonzero" opacity="0.05" stroke="none" d="M77.3182 105.216L77.3182 117.388C76.9341 117.507 76.5205 117.595 76.1364 117.684C75.7523 117.772 75.3386 117.832 74.9545 117.891C74.5705 117.979 74.1568 118.038 73.7727 118.097L72.5909 118.275C70.2864 118.6 67.8932 118.747 65.5 118.747C63.1068 118.747 60.7136 118.6 58.4091 118.275L57.2273 118.097C56.8432 118.038 56.4295 117.979 56.0455 117.891C55.6614 117.832 55.2477 117.772 54.8636 117.684C54.4795 117.595 54.0659 117.507 53.6818 117.388L53.6818 105.216C54.0659 105.334 54.45 105.422 54.8636 105.541C55.2477 105.659 55.6318 105.747 56.0455 105.836L57.2273 106.102C57.6114 106.191 58.025 106.25 58.4091 106.309C60.7136 106.722 63.0773 106.929 65.5 106.929C67.9227 106.929 70.2864 106.722 72.5909 106.309C72.975 106.25 73.3886 106.191 73.7727 106.102L74.9545 105.836C75.3682 105.747 75.7523 105.659 76.1364 105.541C76.55 105.422 76.9341 105.334 77.3182 105.216Z"/><path fill="#ffc400" fill-rule="nonzero" opacity="0.1" stroke="none" d="M76.1364 105.541L76.1364 117.684C75.7523 117.772 75.3386 117.832 74.9545 117.891C74.5705 117.979 74.1568 118.038 73.7727 118.097L72.5909 118.275C70.2864 118.6 67.8932 118.747 65.5 118.747C63.1068 118.747 60.7136 118.6 58.4091 118.275L57.2273 118.097C56.8432 118.038 56.4295 117.979 56.0455 117.891C55.6614 117.832 55.2477 117.772 54.8636 117.684L54.8636 105.541C55.2477 105.659 55.6318 105.747 56.0455 105.836L57.2273 106.102C57.6114 106.191 58.025 106.25 58.4091 106.309C60.7136 106.722 63.0773 106.929 65.5 106.929C67.9227 106.929 70.2864 106.722 72.5909 106.309C72.975 106.25 73.3886 106.191 73.7727 106.102L74.9545 105.836C75.3682 105.747 75.7523 105.659 76.1364 105.541Z"/><path fill="#ffc400" fill-rule="nonzero" opacity="0.2" stroke="none" d="M74.9545 105.836L74.9545 117.891C74.5705 117.979 74.1568 118.038 73.7727 118.097L72.5909 118.275C70.2864 118.6 67.8932 118.747 65.5 118.747C63.1068 118.747 60.7136 118.6 58.4091 118.275L57.2273 118.097C56.8432 118.038 56.4295 117.979 56.0455 117.891L56.0455 105.836L57.2273 106.102C57.6114 106.191 58.025 106.25 58.4091 106.309C60.7136 106.722 63.0773 106.929 65.5 106.929C67.9227 106.929 70.2864 106.722 72.5909 106.309C72.975 106.25 73.3886 106.191 73.7727 106.102L74.9545 105.836Z"/><path fill="#ffc400" fill-rule="nonzero" opacity="0.3" stroke="none" d="M73.7727 106.102L73.7727 118.097L72.5909 118.275C70.2864 118.6 67.8932 118.747 65.5 118.747C63.1068 118.747 60.7136 118.6 58.4091 118.275L57.2273 118.097L57.2273 106.102C57.6114 106.191 58.025 106.25 58.4091 106.309C60.7136 106.722 63.0773 106.929 65.5 106.929C67.9227 106.929 70.2864 106.722 72.5909 106.309C72.975 106.25 73.3886 106.191 73.7727 106.102Z"/><path fill="#ffc400" fill-rule="nonzero" opacity="0.4" stroke="none" d="M72.5909 106.309L72.5909 118.275C70.2864 118.6 67.8932 118.747 65.5 118.747C63.1068 118.747 60.7136 118.6 58.4091 118.275L58.4091 106.309C60.7136 106.722 63.0773 106.929 65.5 106.929C67.9227 106.929 70.2864 106.722 72.5909 106.309Z"/></g><g opacity="1"><path fill="#ffc400" fill-rule="nonzero" opacity="0.05" stroke="none" d="M118.682 65.5657C118.682 67.9588 118.534 70.352 118.209 72.6566L118.032 73.8384C117.973 74.2225 117.914 74.6361 117.825 75.0202C117.766 75.4043 117.707 75.8179 117.618 76.202C117.53 76.5861 117.441 76.9997 117.323 77.3838L105.15 77.3838C105.268 76.9997 105.357 76.6157 105.475 76.202C105.593 75.8475 105.682 75.4338 105.77 75.0202C105.859 74.6361 105.948 74.252 106.036 73.8384C106.125 73.4543 106.184 73.0407 106.243 72.6566C106.657 70.352 106.864 67.9884 106.864 65.5657C106.864 63.1429 106.657 60.7793 106.243 58.4747C106.184 58.0907 106.125 57.677 106.036 57.2929L105.77 56.1111C105.682 55.6975 105.593 55.3134 105.475 54.9293C105.357 54.5157 105.268 54.1316 105.15 53.7475L117.323 53.7475C117.441 54.1316 117.53 54.5452 117.618 54.9293C117.707 55.3134 117.766 55.727 117.825 56.1111C117.914 56.4952 117.973 56.9088 118.032 57.2929L118.209 58.4747C118.534 60.7793 118.682 63.1725 118.682 65.5657Z"/><path fill="#ffc400" fill-rule="nonzero" opacity="0.1" stroke="none" d="M118.682 65.5657C118.682 67.9588 118.534 70.352 118.209 72.6566L118.032 73.8384C117.973 74.2225 117.914 74.6361 117.825 75.0202C117.766 75.4043 117.707 75.8179 117.618 76.202L105.475 76.202C105.593 75.8475 105.682 75.4338 105.77 75.0202C105.859 74.6361 105.948 74.252 106.036 73.8384C106.125 73.4543 106.184 73.0407 106.243 72.6566C106.657 70.352 106.864 67.9884 106.864 65.5657C106.864 63.1429 106.657 60.7793 106.243 58.4747C106.184 58.0907 106.125 57.677 106.036 57.2929L105.77 56.1111C105.682 55.6975 105.593 55.3134 105.475 54.9293L117.618 54.9293C117.707 55.3134 117.766 55.727 117.825 56.1111C117.914 56.4952 117.973 56.9088 118.032 57.2929L118.209 58.4747C118.534 60.7793 118.682 63.1725 118.682 65.5657Z"/><path fill="#ffc400" fill-rule="nonzero" opacity="0.2" stroke="none" d="M118.682 65.5657C118.682 67.9588 118.534 70.352 118.209 72.6566L118.032 73.8384C117.973 74.2225 117.914 74.6361 117.825 75.0202L105.77 75.0202C105.859 74.6361 105.948 74.252 106.036 73.8384C106.125 73.4543 106.184 73.0407 106.243 72.6566C106.657 70.352 106.864 67.9884 106.864 65.5657C106.864 63.1429 106.657 60.7793 106.243 58.4747C106.184 58.0907 106.125 57.677 106.036 57.2929L105.77 56.1111L117.825 56.1111C117.914 56.4952 117.973 56.9088 118.032 57.2929L118.209 58.4747C118.534 60.7793 118.682 63.1725 118.682 65.5657Z"/><path fill="#ffc400" fill-rule="nonzero" opacity="0.3" stroke="none" d="M118.682 65.5657C118.682 67.9588 118.534 70.352 118.209 72.6566L118.032 73.8384L106.036 73.8384C106.125 73.4543 106.184 73.0407 106.243 72.6566C106.657 70.352 106.864 67.9884 106.864 65.5657C106.864 63.1429 106.657 60.7793 106.243 58.4747C106.184 58.0907 106.125 57.677 106.036 57.2929L118.032 57.2929L118.209 58.4747C118.534 60.7793 118.682 63.1725 118.682 65.5657Z"/><path fill="#ffc400" fill-rule="nonzero" opacity="0.4" stroke="none" d="M118.682 65.5657C118.682 67.9588 118.534 70.352 118.209 72.6566L106.243 72.6566C106.657 70.352 106.864 67.9884 106.864 65.5657C106.864 63.1429 106.657 60.7793 106.243 58.4747L118.209 58.4747C118.534 60.7793 118.682 63.1725 118.682 65.5657Z"/></g><g opacity="1"><path fill="#ffc400" fill-rule="nonzero" opacity="0.05" stroke="none" d="M25.525 76.202C25.6432 76.6157 25.7318 76.9997 25.85 77.3838L13.6773 77.3838C13.5591 76.9997 13.4705 76.5861 13.3818 76.202C13.2932 75.8179 13.2341 75.4043 13.175 75.0202C13.0864 74.6361 13.0273 74.2225 12.9682 73.8384L12.7909 72.6566C12.4659 70.352 12.3182 67.9588 12.3182 65.5657C12.3182 63.1725 12.4659 60.7793 12.7909 58.4747L12.9682 57.2929C13.0273 56.9088 13.0864 56.4952 13.175 56.1111C13.2341 55.727 13.2932 55.3134 13.3818 54.9293C13.4705 54.5452 13.5591 54.1316 13.6773 53.7475L25.85 53.7475C25.7318 54.1316 25.6432 54.5157 25.525 54.9293C25.4068 55.3134 25.3182 55.6975 25.2295 56.1111L24.9636 57.2929C24.875 57.677 24.8159 58.0907 24.7568 58.4747C24.3432 60.7793 24.1364 63.1429 24.1364 65.5657C24.1364 67.9884 24.3432 70.352 24.7568 72.6566C24.8159 73.0407 24.875 73.4543 24.9636 73.8384L25.2295 75.0202C25.3182 75.4338 25.4068 75.8179 25.525 76.202Z"/><path fill="#ffc400" fill-rule="nonzero" opacity="0.1" stroke="none" d="M25.2295 75.0202C25.3182 75.4338 25.4068 75.8179 25.525 76.202L13.3818 76.202C13.2932 75.8179 13.2341 75.4043 13.175 75.0202C13.0864 74.6361 13.0273 74.2225 12.9682 73.8384L12.7909 72.6566C12.4659 70.352 12.3182 67.9588 12.3182 65.5657C12.3182 63.1725 12.4659 60.7793 12.7909 58.4747L12.9682 57.2929C13.0273 56.9088 13.0864 56.4952 13.175 56.1111C13.2341 55.727 13.2932 55.3134 13.3818 54.9293L25.525 54.9293C25.4068 55.3134 25.3182 55.6975 25.2295 56.1111L24.9636 57.2929C24.875 57.677 24.8159 58.0907 24.7568 58.4747C24.3432 60.7793 24.1364 63.1429 24.1364 65.5657C24.1364 67.9884 24.3432 70.352 24.7568 72.6566C24.8159 73.0407 24.875 73.4543 24.9636 73.8384C24.9636 73.8384 25.2295 75.0202 25.2295 75.0202Z"/><path fill="#ffc400" fill-rule="nonzero" opacity="0.2" stroke="none" d="M24.9636 73.8384L25.2295 75.0202L13.175 75.0202C13.0864 74.6361 13.0273 74.2225 12.9682 73.8384L12.7909 72.6566C12.4659 70.352 12.3182 67.9588 12.3182 65.5657C12.3182 63.1725 12.4659 60.7793 12.7909 58.4747L12.9682 57.2929C13.0273 56.9088 13.0864 56.4952 13.175 56.1111L25.2295 56.1111L24.9636 57.2929C24.875 57.677 24.8159 58.0907 24.7568 58.4747C24.3432 60.7793 24.1364 63.1429 24.1364 65.5657C24.1364 67.9884 24.3432 70.352 24.7568 72.6566C24.8159 73.0407 24.875 73.4543 24.9636 73.8384Z"/><path fill="#ffc400" fill-rule="nonzero" opacity="0.3" stroke="none" d="M24.7568 72.6566C24.8159 73.0407 24.875 73.4543 24.9636 73.8384L12.9682 73.8384L12.7909 72.6566C12.4659 70.352 12.3182 67.9588 12.3182 65.5657C12.3182 63.1725 12.4659 60.7793 12.7909 58.4747L12.9682 57.2929L24.9636 57.2929C24.875 57.677 24.8159 58.0907 24.7568 58.4747C24.3432 60.7793 24.1364 63.1429 24.1364 65.5657C24.1364 67.9884 24.3432 70.352 24.7568 72.6566Z"/><path fill="#ffc400" fill-rule="nonzero" opacity="0.4" stroke="none" d="M24.1364 65.5657C24.1364 67.9884 24.3432 70.352 24.7568 72.6566L12.7909 72.6566C12.4659 70.352 12.3182 67.9588 12.3182 65.5657C12.3182 63.1725 12.4659 60.7793 12.7909 58.4747L24.7568 58.4747C24.3432 60.7793 24.1364 63.1429 24.1364 65.5657Z"/></g></g><g opacity="1"><path fill="url(#LG_5)" fill-rule="nonzero" opacity="0" stroke="none" d="M62.5455 36.0202L68.4545 36.0202C70.0863 36.0202 71.4091 34.6974 71.4091 33.0657L71.4091 3.5202C71.4091 1.88845 70.0863 0.565657 68.4545 0.565657L62.5455 0.565657C60.9137 0.565657 59.5909 1.88845 59.5909 3.5202L59.5909 33.0657C59.5909 34.6974 60.9137 36.0202 62.5455 36.0202Z"/><path fill="url(#LG_6)" fill-rule="nonzero" opacity="1" stroke="none" d="M62.5455 130.566L68.4545 130.566C70.0863 130.566 71.4091 129.243 71.4091 127.611L71.4091 98.0657C71.4091 96.4339 70.0863 95.1111 68.4545 95.1111L62.5455 95.1111C60.9137 95.1111 59.5909 96.4339 59.5909 98.0657L59.5909 127.611C59.5909 129.243 60.9137 130.566 62.5455 130.566Z"/><path fill="url(#LG_7)" fill-rule="nonzero" opacity="1" stroke="none" d="M95.0455 62.6111L95.0455 68.5202C95.0455 70.152 96.3682 71.4747 98 71.4747L127.545 71.4747C129.177 71.4747 130.5 70.152 130.5 68.5202L130.5 62.6111C130.5 60.9794 129.177 59.6566 127.545 59.6566L98 59.6566C96.3682 59.6566 95.0455 60.9794 95.0455 62.6111Z"/><path fill="url(#LG_8)" fill-rule="nonzero" opacity="1" stroke="none" d="M0.5 62.6111L0.5 68.5202C0.5 70.152 1.8228 71.4747 3.45455 71.4747L33 71.4747C34.6318 71.4747 35.9545 70.152 35.9545 68.5202L35.9545 62.6111C35.9545 60.9794 34.6318 59.6566 33 59.6566L3.45455 59.6566C1.8228 59.6566 0.5 60.9794 0.5 62.6111Z"/></g></g><g opacity="0"><path fill="#f50" fill-rule="nonzero" opacity="0.4" stroke="none" d="M57.0877 12.9618L51.6688 26.4496C56.023 25.022 60.6626 24.2279 65.4986 24.2279C70.3316 24.2279 74.9742 25.019 79.3284 26.4436L73.9363 13.0243C71.1762 12.6109 68.3746 12.3313 65.4986 12.3313C62.6404 12.3313 59.8329 12.5514 57.0877 12.9618Z"/><path fill="#f50" fill-rule="nonzero" opacity="0.3" stroke="none" d="M55.0147 13.3395L49.4174 27.2645C54.405 25.3254 59.818 24.2279 65.4986 24.2279C71.1762 24.2279 76.5892 25.3135 81.5739 27.2526L75.9795 13.3276C72.583 12.6852 69.0824 12.3313 65.4986 12.3313C61.9118 12.3313 58.4142 12.7001 55.0147 13.3395Z"/><path fill="#f50" fill-rule="nonzero" opacity="0.2" stroke="none" d="M52.9239 13.7529L47.1124 28.2133C52.7157 25.6644 58.9317 24.2279 65.4986 24.2279C72.0655 24.2279 78.2845 25.6704 83.8878 28.2251L78.0941 13.8035C74.0404 12.8756 69.8379 12.3313 65.4986 12.3313C61.1742 12.3313 56.9687 12.831 52.9239 13.7529Z"/><path fill="#f50" fill-rule="nonzero" opacity="0.1" stroke="none" d="M50.7795 14.3032L44.7123 29.397C50.9164 26.1076 57.98 24.2279 65.4986 24.2279C73.0172 24.2279 80.0838 26.1105 86.2849 29.4029L80.2296 14.3329C75.5304 13.06 70.6052 12.3313 65.4986 12.3313C60.4009 12.3313 55.4757 13.0362 50.7795 14.3032Z"/><path fill="#f50" fill-rule="nonzero" opacity="0.05" stroke="none" d="M48.6025 14.9337L42.2051 30.8543C48.9802 26.6697 56.942 24.2279 65.4986 24.2279C74.0493 24.2279 82.0111 26.6548 88.7832 30.8335L82.4007 14.9486C77.0621 13.2682 71.3934 12.3313 65.4986 12.3313C59.6068 12.3313 53.9411 13.2592 48.6025 14.9337Z"/></g><g opacity="1"><path fill="#ffb300" fill-rule="nonzero" opacity="0.4" stroke="none" d="M57.0877 12.9618L51.6688 26.4496C56.023 25.022 60.6626 24.2279 65.4986 24.2279C70.3316 24.2279 74.9742 25.019 79.3284 26.4436L73.9363 13.0243C71.1762 12.6109 68.3746 12.3313 65.4986 12.3313C62.6404 12.3313 59.8329 12.5514 57.0877 12.9618Z"/><path fill="#ffb300" fill-rule="nonzero" opacity="0.3" stroke="none" d="M55.0147 13.3395L49.4174 27.2645C54.405 25.3254 59.818 24.2279 65.4986 24.2279C71.1762 24.2279 76.5892 25.3135 81.5739 27.2526L75.9795 13.3276C72.583 12.6852 69.0824 12.3313 65.4986 12.3313C61.9118 12.3313 58.4142 12.7001 55.0147 13.3395Z"/><path fill="#ffb300" fill-rule="nonzero" opacity="0.2" stroke="none" d="M52.9239 13.7529L47.1124 28.2133C52.7157 25.6644 58.9317 24.2279 65.4986 24.2279C72.0655 24.2279 78.2845 25.6704 83.8878 28.2251L78.0941 13.8035C74.0404 12.8756 69.8379 12.3313 65.4986 12.3313C61.1742 12.3313 56.9687 12.831 52.9239 13.7529Z"/><path fill="#ffb300" fill-rule="nonzero" opacity="0.1" stroke="none" d="M50.7795 14.3032L44.7123 29.397C50.9164 26.1076 57.98 24.2279 65.4986 24.2279C73.0172 24.2279 80.0838 26.1105 86.2849 29.4029L80.2296 14.3329C75.5304 13.06 70.6052 12.3313 65.4986 12.3313C60.4009 12.3313 55.4757 13.0362 50.7795 14.3032Z"/><path fill="#ffb300" fill-rule="nonzero" opacity="0.05" stroke="none" d="M48.6025 14.9337L42.2051 30.8543C48.9802 26.6697 56.942 24.2279 65.4986 24.2279C74.0493 24.2279 82.0111 26.6548 88.7832 30.8335L82.4007 14.9486C77.0621 13.2682 71.3934 12.3313 65.4986 12.3313C59.6068 12.3313 53.9411 13.2592 48.6025 14.9337Z"/></g><g opacity="0"><g opacity="1"><path fill="#fa0" fill-rule="nonzero" opacity="0.05" stroke="none" d="M48.9883 14.9522L42.6524 30.9857C49.3624 26.7714 57.2478 24.3123 65.7222 24.3123C74.1908 24.3123 82.0761 26.7564 88.7832 30.9648L82.462 14.9671C77.1746 13.2748 71.5604 12.3313 65.7222 12.3313C59.887 12.3313 54.2757 13.2658 48.9883 14.9522Z"/><path fill="#fa0" fill-rule="nonzero" opacity="0.1" stroke="none" d="M50.9023 14.4247L44.8851 29.5453C51.038 26.25 58.0434 24.367 65.5 24.367C72.9566 24.367 79.965 26.253 86.1149 29.5512L80.1095 14.4545C75.4491 13.1793 70.5645 12.4494 65.5 12.4494C60.4443 12.4494 55.5598 13.1555 50.9023 14.4247Z"/><path fill="#fa0" fill-rule="nonzero" opacity="0.2" stroke="none" d="M53.1601 13.7588L47.4578 28.2599C52.9558 25.7038 59.055 24.2633 65.4985 24.2633C71.9421 24.2633 78.0442 25.7098 83.5422 28.2718L77.8574 13.8095C73.8798 12.8789 69.7563 12.3331 65.4985 12.3331C61.2554 12.3331 57.1289 12.8342 53.1601 13.7588Z"/><path fill="#fa0" fill-rule="nonzero" opacity="0.3" stroke="none" d="M55.1932 13.4551L49.7053 27.2645C54.5954 25.3414 59.9026 24.2531 65.4721 24.2531C71.0388 24.2531 76.3459 25.3296 81.2332 27.2527L75.7481 13.4433C72.4181 12.8062 68.9859 12.4552 65.4721 12.4552C61.9554 12.4552 58.5262 12.821 55.1932 13.4551Z"/><path fill="#fa0" fill-rule="nonzero" opacity="0.4" stroke="none" d="M57.104 12.9285L51.7546 26.4785C56.0529 25.0443 60.6331 24.2466 65.4071 24.2466C70.1781 24.2466 74.7612 25.0414 79.0595 26.4726L73.7365 12.9913C71.0119 12.5759 68.2462 12.2951 65.4071 12.2951C62.5856 12.2951 59.814 12.5162 57.104 12.9285Z"/></g><path fill="#fa0" fill-rule="nonzero" opacity="0" stroke="none" d="M74.7434 12.2923L80.7025 27.8551C75.9143 26.2079 70.8121 25.2916 65.4941 25.2916C60.1794 25.2916 55.074 26.2045 50.2858 27.8483L56.2154 12.3644C59.2505 11.8874 62.3315 11.5648 65.4941 11.5648C68.6372 11.5648 71.7246 11.8187 74.7434 12.2923Z"/><path fill="#fa0" fill-rule="nonzero" opacity="0" stroke="none" d="M55.1221 11.5626L48.4359 29.6749C53.8084 27.7578 59.5331 26.6915 65.5 26.6915C71.4633 26.6915 77.1916 27.7538 82.5641 29.6669L75.9109 11.6465C72.5054 11.0914 69.0486 10.7159 65.5 10.7159C61.9734 10.7159 58.5092 11.0115 55.1221 11.5626Z"/></g><g opacity="0.816583"><path fill="url(#LG_9)" fill-rule="nonzero" opacity="0.4" stroke="none" d="M65.5341 11.3745C68.1176 11.3745 70.6492 11.5862 73.1511 11.884L79.437 27.3505C75.002 26.05 70.3985 25.1306 65.5341 25.1306C60.6573 25.1306 56.0393 26.0436 51.5943 27.3505L57.9171 11.884C60.419 11.5862 62.9507 11.3745 65.5341 11.3745Z"/><path fill="url(#LG_10)" fill-rule="nonzero" opacity="0.3" stroke="none" d="M65.5365 10.3279C68.4585 10.3279 71.3218 10.5711 74.1515 10.913L81.2609 28.6738C76.2448 27.1803 71.0382 26.1246 65.5365 26.1246C60.0208 26.1246 54.7977 27.173 49.7704 28.6738L56.9216 10.913C59.7513 10.5711 62.6146 10.3279 65.5365 10.3279Z"/><path fill="url(#LG_11)" fill-rule="nonzero" opacity="0.2" stroke="none" d="M65.4925 9.36091C62.2625 9.36091 59.0974 9.63559 55.9694 10.0218L48.1105 30.0853C53.6554 28.3981 59.4108 27.2056 65.4925 27.2056C71.5898 27.2056 77.3634 28.3898 82.9208 30.0853L75.0156 10.0218C71.8877 9.63559 68.7225 9.36091 65.4925 9.36091Z"/><path fill="url(#LG_12)" fill-rule="nonzero" opacity="0.1" stroke="none" d="M65.502 13.2503C63.5972 13.2503 61.7306 13.409 59.886 13.632L55.2514 25.2184C58.5214 24.2441 61.9155 23.5554 65.502 23.5554C69.0977 23.5554 72.5025 24.2393 75.7798 25.2184L71.118 13.632C69.2734 13.409 67.4068 13.2503 65.502 13.2503Z"/></g></g></g></svg>