<svg xmlns="http://www.w3.org/2000/svg" xmlns:vectornator="http://vectornator.io" xmlns:xlink="http://www.w3.org/1999/xlink" width="100%" height="100%" stroke-miterlimit="10" viewBox="0 0 100 100" style="fill-rule:nonzero;clip-rule:evenodd;stroke-linecap:round;stroke-linejoin:round" version="1.1" xml:space="preserve"><defs><filter id="Filter_CompassSpinning" width="14.5" height="14.5" x="42.596" y="42.997" color-interpolation-filters="sRGB" filterUnits="userSpaceOnUse"><feDropShadow dx="-.154" dy=".247" flood-color="#000" flood-opacity=".43" in="SourceGraphic" result="Shadow" stdDeviation=".5"/></filter><filter id="Filter_CompassSpinning_2" width="104.106" height="104.106" x="-2.206" y="-1.805" color-interpolation-filters="sRGB" filterUnits="userSpaceOnUse"><feDropShadow dx="-.153" dy=".248" flood-color="#000" flood-opacity=".333" in="SourceGraphic" result="Shadow" stdDeviation="1.621"/></filter></defs><g id="Compass.Safari.White" opacity="1"><path id="RedDot" fill="#eb4e3d" fill-rule="nonzero" stroke="none" d="M44 50C44 46.6861 46.6861 44 50 44C53.3139 44 56 46.6861 56 50C56 53.3139 53.3139 56 50 56C46.6861 56 44 53.3139 44 50Z" filter="url(#Filter_CompassSpinning)" shadowAngle="2.129" shadowColor="#000000" shadowOffset=".291" shadowOpacity=".43" shadowRadius="1"><animateTransform id="eosIconsCompass0" attributeName="transform" attributeType="XML" begin="0;eosIconsCompass2.end" dur="1s" from="-90 50 50" to="0 50 50" type="rotate"/><animateTransform id="eosIconsCompass1" attributeName="transform" attributeType="XML" begin="eosIconsCompass0.end" dur="1s" from="0 50 50" to="-90 50 50" type="rotate"/><animateTransform id="eosIconsCompass2" attributeName="transform" attributeType="XML" begin="eosIconsCompass1.end" dur="1s" from="-90 50 50" to="270 50 50" type="rotate"/></path><path id="Compass" fill="#efefef" fill-rule="nonzero" stroke="none" d="M50 2C23.492 2 2 23.492 2 50C2 76.508 23.492 98 50 98C76.508 98 98 76.508 98 50C98 23.492 76.508 2 50 2ZM62 62L29 71L38 38L71 29L62 62Z" filter="url(#Filter_CompassSpinning_2)" shadowAngle="2.125" shadowColor="#000000" shadowOffset=".291" shadowOpacity=".333" shadowRadius="3.242"><animateTransform id="eosIconsCompass0" attributeName="transform" attributeType="XML" begin="0;eosIconsCompass2.end" dur="1s" from="-90 50 50" to="0 50 50" type="rotate"/><animateTransform id="eosIconsCompass1" attributeName="transform" attributeType="XML" begin="eosIconsCompass0.end" dur="1s" from="0 50 50" to="-90 50 50" type="rotate"/><animateTransform id="eosIconsCompass2" attributeName="transform" attributeType="XML" begin="eosIconsCompass1.end" dur="1s" from="-90 50 50" to="270 50 50" type="rotate"/></path></g></svg>