<svg xmlns="http://www.w3.org/2000/svg" xmlns:xlink="http://www.w3.org/1999/xlink" width="100%" height="100%" version="1.1" viewBox="-1.512 -0.379 102.153 102.453" xml:space="preserve"><defs><linearGradient id="LinearGradient_zxcv" x1="4.101" x2="102.53" y1="56.883" y2="55.31" gradientTransform="matrix(1 0 0 1 0 0)" gradientUnits="userSpaceOnUse"><stop offset="0" stop-color="#fff"/><stop offset="0" stop-color="#04006b"/><stop offset=".494" stop-color="#0005ff"/><stop offset="1" stop-color="#0e00af"/></linearGradient><filter id="Filter_zxcv" width="83.953" height="83.953" x="7.588" y="18.121" color-interpolation-filters="sRGB" filterUnits="userSpaceOnUse"><feDropShadow dx="-.436" dy="1.197" flood-color="#000" flood-opacity=".55" in="SourceGraphic" result="Shadow" stdDeviation="2.831"/></filter><filter id="Filter_zxcv_2" width="73.953" height="83.353" x="12.588" y="13.721" color-interpolation-filters="sRGB" filterUnits="userSpaceOnUse"><feDropShadow dx="-.436" dy="1.197" flood-color="#000" flood-opacity=".55" in="SourceGraphic" result="Shadow" stdDeviation=".831"/></filter><filter id="Filter_zxcv_3" width="102.153" height="97.453" x="-1.512" y="-.379" color-interpolation-filters="sRGB" filterUnits="userSpaceOnUse"><feDropShadow dx="-.436" dy="1.197" flood-color="#000" flood-opacity=".55" in="SourceGraphic" result="Shadow" stdDeviation=".831"/></filter></defs><g id="zxcv"><g id="g-12" opacity="1"><path id="zxcv" fill="url(#LinearGradient_zxcv)" stroke="#fff" stroke-linecap="butt" stroke-linejoin="round" stroke-width="4" d="M50 16.6L82.9 35.4L82.9 73L50 91.8L17.1 73L17.1 35.4L50 16.6Z" opacity="1"/><path id="zxcv" fill="none" stroke="#fff" stroke-linecap="butt" stroke-linejoin="round" stroke-width="4" d="M66.45 26L82.9 35.4L82.9 54.2M33.55 26L17.1 35.4L17.1 54.2M33.55 82.4L50 91.8L66.45 82.4" filter="url(#Filter_zxcv)" shadowAngle="1.92" shadowColor="#000000" shadowOffset="1.274" shadowOpacity=".55" shadowRadius="5.661"/><path id="zxcv-37" fill="none" stroke="#fff" stroke-linecap="butt" stroke-linejoin="round" stroke-width="4" d="M50 16.6L82.9 35.4L82.9 73L50 91.8L17.1 73L17.1 35.4L50 16.6Z" filter="url(#Filter_zxcv_2)" shadowAngle="1.92" shadowColor="#000000" shadowOffset="1.274" shadowOpacity=".55" shadowRadius="1.661"/><g id="g" filter="url(#Filter_zxcv_3)" shadowAngle="1.92" shadowColor="#000000" shadowOffset="1.274" shadowOpacity=".55" shadowRadius="1.661"><path id="zxcv" fill="none" stroke="#fff" stroke-linecap="round" stroke-linejoin="round" stroke-width="4" d="M50 2.5L50 16.6" opacity="1"/><path id="zxcv" fill="none" stroke="#fff" stroke-linecap="round" stroke-linejoin="round" stroke-width="4" d="M17.1 35.4L50 54.2L82.9 35.4" opacity="1"/><path id="zxcv" fill="none" stroke="#fff" stroke-linecap="round" stroke-linejoin="round" stroke-width="4" d="M82.9 73L97 80.05M3 80.05L17.1 73" opacity="1"/><path id="zxcv" fill="none" stroke="#fff" stroke-linecap="round" stroke-linejoin="round" stroke-width="4" d="M50 54.2L50 91.8" opacity="1"/></g></g></g></svg>