<svg height="100%" stroke-miterlimit="10" style="fill-rule:nonzero;clip-rule:evenodd;stroke-linecap:round;stroke-linejoin:round;" version="1.1" viewBox="0 0 100 100" width="100%" xml:space="preserve" xmlns="http://www.w3.org/2000/svg" xmlns:vectornator="http://vectornator.io" xmlns:xlink="http://www.w3.org/1999/xlink"><defs><filter color-interpolation-filters="sRGB" filterUnits="userSpaceOnUse" height="56.9538" id="Filter_CSSYellow" width="117" x="-8.5" y="23.2383"><feDropShadow dx="6.12323e-17" dy="1" flood-color="#000000" flood-opacity="0.45" in="SourceGraphic" result="Shadow" stdDeviation="2"/></filter><linearGradient gradientTransform="matrix(1 0 0 1 0 0)" gradientUnits="userSpaceOnUse" id="LinearGradient_CSSYellow" x1="34.6026" x2="65.3974" y1="49.7152" y2="49.7152"><stop offset="1.36544e-07" stop-color="#877800"/><stop offset="0.277975" stop-color="#b9b800"/><stop offset="0.630873" stop-color="#dccb00"/><stop offset="1" stop-color="#ffeb00"/></linearGradient><filter color-interpolation-filters="sRGB" filterUnits="userSpaceOnUse" height="46.9538" id="Filter_CSSYellow_2" width="40.7949" x="29.6026" y="27.2383"><feDropShadow dx="6.12323e-17" dy="1" flood-color="#000000" flood-opacity="0.5" in="SourceGraphic" result="Shadow" stdDeviation="2"/></filter><linearGradient gradientTransform="matrix(1 0 0 1 0 0)" gradientUnits="userSpaceOnUse" id="LinearGradient_CSSYellow_2" x1="1.5" x2="32.2949" y1="49.7152" y2="49.7152"><stop offset="1.36544e-07" stop-color="#877800"/><stop offset="0.277975" stop-color="#b9b800"/><stop offset="0.630873" stop-color="#dccb00"/><stop offset="1" stop-color="#ffeb00"/></linearGradient><filter color-interpolation-filters="sRGB" filterUnits="userSpaceOnUse" height="46.9538" id="Filter_CSSYellow_3" width="40.7949" x="-3.5" y="27.2383"><feDropShadow dx="6.12323e-17" dy="1" flood-color="#000000" flood-opacity="0.5" in="SourceGraphic" result="Shadow" stdDeviation="2"/></filter><linearGradient gradientTransform="matrix(1 0 0 1 0 0)" gradientUnits="userSpaceOnUse" id="LinearGradient_CSSYellow_3" x1="67.7051" x2="98.5" y1="49.7152" y2="49.7152"><stop offset="1.36544e-07" stop-color="#877800"/><stop offset="0.277975" stop-color="#b9b800"/><stop offset="0.630873" stop-color="#dccb00"/><stop offset="1" stop-color="#ffeb00"/></linearGradient><filter color-interpolation-filters="sRGB" filterUnits="userSpaceOnUse" height="46.9538" id="Filter_CSSYellow_4" width="40.7949" x="62.7051" y="27.2383"><feDropShadow dx="6.12323e-17" dy="1" flood-color="#000000" flood-opacity="0.5" in="SourceGraphic" result="Shadow" stdDeviation="2"/></filter></defs><g id="CSSYellow"><g filter="url(#Filter_CSSYellow)" layerName="Group-1" shadowAngle="1.5708" shadowColor="#000000" shadowOffset="1" shadowOpacity="0.45" shadowRadius="4"><path d="M34.6026 68.1921L34.6026 55.8742L43.841 55.8742L43.841 58.9537L56.159 58.9537L56.159 52.7947L34.6026 52.7947L34.6026 31.2383L65.3974 31.2383L65.3974 43.5562L56.159 43.5562L56.159 40.4767L43.841 40.4767L43.841 46.6357L65.3974 46.6357L65.3974 68.1921L34.6026 68.1921Z" fill="url(#LinearGradient_CSSYellow)" fill-rule="nonzero" filter="url(#Filter_CSSYellow_2)" stroke="none" layerName="path" shadowAngle="1.5708" shadowColor="#000000" shadowOffset="1" shadowOpacity="0.5" shadowRadius="4"/><path d="M1.5 68.1921L1.5 31.2383L32.2949 31.2383L32.2949 43.5562L23.0564 43.5562L23.0564 40.4767L10.7385 40.4767L10.7385 58.9537L23.0564 58.9537L23.0564 55.8742L32.2949 55.8742L32.2949 68.1921L1.5 68.1921Z" fill="url(#LinearGradient_CSSYellow_2)" fill-rule="nonzero" filter="url(#Filter_CSSYellow_3)" stroke="none" layerName="path-1" shadowAngle="1.5708" shadowColor="#000000" shadowOffset="1" shadowOpacity="0.5" shadowRadius="4"/><path d="M67.7051 68.1921L67.7051 55.8742L76.9436 55.8742L76.9436 58.9537L89.2615 58.9537L89.2615 52.7947L67.7051 52.7947L67.7051 31.2383L98.5 31.2383L98.5 43.5562L89.2615 43.5562L89.2615 40.4767L76.9436 40.4767L76.9436 46.6357L98.5 46.6357L98.5 68.1921L67.7051 68.1921Z" fill="url(#LinearGradient_CSSYellow_3)" fill-rule="nonzero" filter="url(#Filter_CSSYellow_4)" stroke="none" layerName="path-2" shadowAngle="1.5708" shadowColor="#000000" shadowOffset="1" shadowOpacity="0.5" shadowRadius="4"/></g></g></svg>