<svg width="100%" height="100%" viewBox="0 0 100 100" xml:space="preserve" xmlns="http://www.w3.org/2000/svg" xmlns:vectornator="http://vectornator.io" xmlns:xlink="http://www.w3.org/1999/xlink"><defs><linearGradient gradientTransform="matrix(1 0 0 1 0 -1.77636e-15)" gradientUnits="userSpaceOnUse" id="LinearGradient" x1="13.3801" x2="12.191" y1="12.3088" y2="86.2726"><stop offset="0" stop-color="#0003b3"/><stop offset="1" stop-color="#0004ff"/></linearGradient><filter color-interpolation-filters="sRGB" filterUnits="userSpaceOnUse" height="55.4205" id="Filter" width="106.314" x="-3.91987" y="22.9361"><feDropShadow dx="-0.763026" dy="0.646368" flood-color="#000000" flood-opacity="0.8" in="SourceGraphic" result="Shadow" stdDeviation="1.5"/></filter></defs>
<path d="M70.1869 26.054C69.676 26.0078 69.1437 26.0751 68.6244 26.2415C66.5473 26.9068 65.4278 29.1331 66.0932 31.2102L78.9057 71.2102C80.0778 74.8695 85.2335 74.8695 86.4057 71.2102L99.2182 31.2102C99.8835 29.1332 98.7327 26.9068 96.6557 26.2415C94.5786 25.5761 92.3835 26.6957 91.7182 28.7727L82.6557 57.054L73.5932 28.7727C73.0942 27.2149 71.7196 26.1925 70.1869 26.054ZM14.9994 26.0852C7.07557 26.0852 0.593159 32.2773 0.593156 40.0227L0.593156 60.0227C0.593156 67.7682 7.07557 73.9602 14.9994 73.9602C22.9232 73.9602 29.4057 67.7682 29.4057 60.0227C29.4057 57.8417 27.6492 56.0852 25.4682 56.0852C23.2871 56.0852 21.5307 57.8417 21.5307 60.0227C21.5307 63.323 18.6402 66.0852 14.9994 66.0852C11.3586 66.0852 8.46816 63.3229 8.46816 60.0227L8.46816 40.0227C8.46816 36.7225 11.3586 33.9602 14.9994 33.9602C18.6402 33.9602 21.5307 36.7225 21.5307 40.0227C21.5307 42.2038 23.2871 43.9602 25.4682 43.9602C27.6492 43.9602 29.4057 42.2038 29.4057 40.0227C29.4057 32.2773 22.9232 26.0852 14.9994 26.0852ZM43.8119 26.0852C38.8694 26.0852 34.8744 30.0803 34.8744 35.0227L34.8744 45.0227C34.8744 49.9652 38.8694 53.9602 43.8119 53.9602L53.8119 53.9602C54.3923 53.9602 54.8744 54.4423 54.8744 55.0227L54.8744 65.0227C54.8744 65.6031 54.3923 66.0853 53.8119 66.0852L43.8119 66.0852C43.2315 66.0852 42.7494 65.6031 42.7494 65.0227C42.7494 62.8417 40.9929 61.0853 38.8119 61.0852C36.6309 61.0852 34.8744 62.8417 34.8744 65.0227C34.8744 69.9652 38.8694 73.9602 43.8119 73.9602L53.8119 73.9602C58.7544 73.9602 62.7494 69.9652 62.7494 65.0227L62.7494 55.0227C62.7494 50.0803 58.7544 46.0852 53.8119 46.0852L43.8119 46.0852C43.2315 46.0852 42.7494 45.6031 42.7494 45.0227L42.7494 35.0227C42.7494 34.4423 43.2315 33.9602 43.8119 33.9602L53.8119 33.9602C54.3923 33.9602 54.8744 34.4423 54.8744 35.0227C54.8744 37.2038 56.6309 38.9602 58.8119 38.9602C60.9929 38.9602 62.7494 37.2038 62.7494 35.0227C62.7494 30.0803 58.7544 26.0852 53.8119 26.0852L43.8119 26.0852Z" fill="url(#LinearGradient)" filter="url(#Filter)" layerName="Curve 1" shadowAngle="2.43878" shadowColor="#000000" shadowOffset="1" shadowOpacity="0.8" shadowRadius="3"/></svg>