<svg fill="none" xmlns="http://www.w3.org/2000/svg" viewBox="0 0 512 512"><g clip-path="url(#prefix__clip0_5_17)"><g clip-path="url(#prefix__clip1_5_17)"><path fill-rule="evenodd" clip-rule="evenodd" d="M127.744 34.603A182.172 182.172 0 0073.6 180.18c7.445 94.038 96.128 170.56 176.555 170.56 74.816 0 104.106-65.301 96.874-109.653a92.111 92.111 0 00-20.266-44.224c13.482 7.253 26.538 16.555 38.592 27.733 32.426 30.187 52.053 68.886 55.189 108.8C427.52 421.611 362.24 512 253.077 512c-36.16 0-74.24-9.216-106.24-24.384C60.075 446.656 0 358.336 0 256.043c0-94.528 51.307-177.11 127.744-221.44zM258.901 0c36.182 0 74.262 9.216 106.24 24.384C451.968 65.344 512 153.664 512 255.957c0 94.528-51.307 177.131-127.744 221.44A182.166 182.166 0 00438.4 331.819c-7.445-94.038-96.128-170.56-176.555-170.56-74.816 0-104.106 65.301-96.874 109.653a91.738 91.738 0 0020.33 44.224 186.098 186.098 0 01-38.613-27.733c-32.427-30.187-52.053-68.843-55.232-108.8C84.48 90.389 149.76 0 258.923 0h-.022z" fill="#4285F4"/></g></g><defs><clipPath id="prefix__clip0_5_17"><path fill="#fff" d="M0 0h512v512H0z"/></clipPath><clipPath id="prefix__clip1_5_17"><path fill="#fff" d="M0 0h512v512H0z"/></clipPath></defs></svg>