<?xml version="1.0" encoding="UTF-8" standalone="no"?>
<!DOCTYPE svg PUBLIC "-//W3C//DTD SVG 1.1//EN" "http://www.w3.org/Graphics/SVG/1.1/DTD/svg11.dtd">
<!-- Created with Vectornator (http://vectornator.io/) -->
<svg height="100%" stroke-miterlimit="10" style="fill-rule:nonzero;clip-rule:evenodd;stroke-linecap:round;stroke-linejoin:round;" version="1.1" viewBox="10.4651 0 79.0698 100" width="100%" xml:space="preserve" xmlns="http://www.w3.org/2000/svg" xmlns:vectornator="http://vectornator.io" xmlns:xlink="http://www.w3.org/1999/xlink">
<defs>
<linearGradient gradientTransform="matrix(-43.9396 -13.802 -13.802 43.9396 54.4047 57.9881)" gradientUnits="userSpaceOnUse" id="LinearGradient" x1="0" x2="1" y1="0" y2="0">
<stop offset="0" stop-color="#ababab" stop-opacity="0.82"/>
<stop offset="0.496053" stop-color="#dfdfdf"/>
<stop offset="1" stop-color="#ffffff"/>
</linearGradient>
<linearGradient gradientTransform="matrix(-48.3583 -30.2884 -30.2884 48.3583 93.7936 94.0002)" gradientUnits="userSpaceOnUse" id="LinearGradient_2" x1="0" x2="1" y1="0" y2="0">
<stop offset="0" stop-color="#f44336"/>
<stop offset="1" stop-color="#771811"/>
</linearGradient>
<linearGradient gradientTransform="matrix(-21.5207 -3.16444 3.16444 -21.5207 78.6125 76.7442)" gradientUnits="userSpaceOnUse" id="LinearGradient_3" x1="0" x2="1" y1="0" y2="0">
<stop offset="0" stop-color="#b3b3b3" stop-opacity="0.88"/>
<stop offset="0.614474" stop-color="#cccccc" stop-opacity="0.92"/>
<stop offset="1" stop-color="#ffffff" stop-opacity="0.88"/>
</linearGradient>
<linearGradient gradientTransform="matrix(19.2645 -22.9247 16.5314 13.2287 56.7156 88.8987)" gradientUnits="userSpaceOnUse" id="LinearGradient_4" x1="0" x2="1" y1="0" y2="0">
<stop offset="0" stop-color="#ababab" stop-opacity="0.82"/>
<stop offset="0.496053" stop-color="#dfdfdf"/>
<stop offset="1" stop-color="#ffffff"/>
</linearGradient>
</defs>
<g id="Layer">
<g opacity="1">
<path d="M47.6744 0L19.7674 0C14.6512 0 10.4651 4.18605 10.4651 9.30233L10.4651 79.0698C10.4651 84.186 14.6512 88.3721 19.7674 88.3721L47.6744 88.3721C52.7907 88.3721 56.9767 84.186 56.9767 79.0698L56.9767 9.30233C56.9767 4.18605 52.7907 0 47.6744 0ZM19.7674 79.0698L19.7674 9.30233L47.6744 9.30233L47.6744 79.0698L19.7674 79.0698Z" fill="url(#LinearGradient)" fill-rule="nonzero" opacity="1" stroke="none"/>
<g opacity="1">
<path d="M66.2791 53.4884C79.1229 53.4884 89.5349 63.9004 89.5349 76.7442C89.5349 89.588 79.1229 100 66.2791 100C53.4352 100 43.0233 89.588 43.0233 76.7442C43.0233 63.9004 53.4352 53.4884 66.2791 53.4884Z" fill="url(#LinearGradient_2)" fill-rule="nonzero" opacity="1" stroke="none"/>
<g opacity="1">
<path d="M56.363 71.7617C55.028 70.4267 55.0279 68.2622 56.363 66.9271L56.4616 66.8284C57.7966 65.4933 59.9612 65.4933 61.2963 66.8283L76.1951 81.7266C77.5302 83.0617 77.5302 85.2262 76.1952 86.5613L76.0965 86.66C74.7615 87.995 72.597 87.9951 71.2619 86.66L56.363 71.7617Z" fill="url(#LinearGradient_3)" fill-rule="nonzero" opacity="1" stroke="none"/>
<path d="M61.2963 86.66C59.9612 87.9951 57.7966 87.995 56.4616 86.66L56.363 86.5613C55.0279 85.2262 55.028 83.0617 56.363 81.7266L71.2619 66.8283C72.597 65.4933 74.7615 65.4933 76.0965 66.8284L76.1952 66.9271C77.5302 68.2622 77.5302 70.4267 76.1951 71.7617L61.2963 86.66Z" fill="url(#LinearGradient_4)" fill-rule="nonzero" opacity="1" stroke="none"/>
</g>
</g>
</g>
</g>
</svg>
