<svg xmlns="http://www.w3.org/2000/svg" xmlns:xlink="http://www.w3.org/1999/xlink" width="100%" height="100%" viewBox="0 0 100 100" xml:space="preserve"><defs><linearGradient id="LGdeleteLRa" x1="0" x2="1" y1="0" y2="0" gradientTransform="scale(-110.5301) rotate(39.565 .83 -1.508)" gradientUnits="userSpaceOnUse"><stop offset="0" stop-color="#bf200a" stop-opacity=".9"/><stop offset=".209" stop-color="#d92929" stop-opacity=".96"/><stop offset=".536" stop-color="#d62b4b"/><stop offset=".794" stop-color="#d42c60"/><stop offset=".98" stop-color="#d42c67"/><stop offset="1" stop-color="#d42c67"/></linearGradient><linearGradient id="LGdeleteLRb" x1="0" x2="1" y1="0" y2="0" gradientTransform="matrix(33.4688 -33.3316 -56.3941 -56.2733 36.437 62.79)" gradientUnits="userSpaceOnUse"><stop offset="0" stop-color="snow" stop-opacity=".25"/><stop offset="1" stop-color="#fff" stop-opacity=".9"/></linearGradient><linearGradient id="LGdeleteLRc" x1="0" x2="1" y1="0" y2="0" gradientTransform="matrix(33.4688 -33.3316 -56.3941 -56.2733 36.437 62.79)" gradientUnits="userSpaceOnUse"><stop offset="0" stop-color="snow" stop-opacity=".25"/><stop offset="1" stop-color="#fff" stop-opacity=".9"/></linearGradient><linearGradient id="LGdeleteLRd" x1="0" x2="1" y1="0" y2="0" gradientTransform="matrix(95.2416 -111.221 -181.823 -166.341 2.213 116.831)" gradientUnits="userSpaceOnUse"><stop offset="0" stop-color="snow" stop-opacity=".65"/><stop offset="1" stop-color="#fff" stop-opacity=".8"/></linearGradient><linearGradient id="LGdeleteLRe" x1="0" x2="1" y1="0" y2="0" gradientTransform="matrix(95.2416 -111.221 -181.823 -166.341 2.213 116.831)" gradientUnits="userSpaceOnUse"><stop offset="0" stop-color="snow" stop-opacity=".65"/><stop offset="1" stop-color="#fff" stop-opacity=".8"/></linearGradient><linearGradient id="LGdeleteLRf" x1="0" x2="1" y1="0" y2="0" gradientTransform="matrix(-30.8047 -30.9979 -28.5119 28.4147 64.848 65.818)" gradientUnits="userSpaceOnUse"><stop offset="0" stop-color="#bbb7b7" stop-opacity=".8"/><stop offset="1" stop-color="#fff"/></linearGradient><linearGradient id="LGdeleteLRg" x1="0" x2="1" y1="0" y2="0" gradientTransform="matrix(30.2962 -30.6815 -52.4073 -51.8315 34.742 68.028)" gradientUnits="userSpaceOnUse"><stop offset="0" stop-color="snow" stop-opacity=".5"/><stop offset="1" stop-color="#fff" stop-opacity=".8"/></linearGradient><linearGradient id="LGdeleteLRi" x1="0" x2="1" y1="0" y2="0" gradientTransform="matrix(30.2962 -30.6815 -52.4073 -51.8315 34.742 68.028)" gradientUnits="userSpaceOnUse"><stop offset="0" stop-color="snow" stop-opacity=".5"/><stop offset="1" stop-color="#fff" stop-opacity=".8"/></linearGradient><filter id="FideleteLRh" width="21.975" height="21.975" x="39.064" y="39.074" color-interpolation-filters="sRGB" filterUnits="userSpaceOnUse"><feGaussianBlur in="SourceGraphic" result="Blur" stdDeviation="1.327"/></filter><filter id="FideleteLRj" width="21.975" height="21.975" x="39.064" y="39.074" color-interpolation-filters="sRGB" filterUnits="userSpaceOnUse"><feGaussianBlur in="SourceGraphic" result="Blur" stdDeviation="1.327"/></filter></defs><g fill-rule="nonzero" opacity="1"><path fill="url(#LGdeleteLRa)" d="M29.5938 22.5312C27.2592 22.5312 25.0129 23.4302 23.3125 25.0312L2.21875 44.875C0.799444 46.2118 7.10543e-15 48.0818 7.10543e-15 50.0312C7.10543e-15 51.9807 0.799444 53.8507 2.21875 55.1875L11.875 64.2812L23.3125 75.0312C25.0129 76.6324 27.2592 77.5312 29.5938 77.5312L70.4062 77.5312C72.7408 77.5312 74.9871 76.6323 76.6875 75.0312L97.7812 55.1875C99.2007 53.8507 100 51.9806 100 50.0312C100 48.0818 99.2007 46.2118 97.7812 44.875L76.6875 25.0312C74.9871 23.4301 72.7407 22.5313 70.4062 22.5312L29.5938 22.5312ZM62 32.9688C63.336 32.9139 64.646 33.396 65.625 34.375C67.5831 36.3331 67.4696 39.6554 65.3438 41.7812L57.0938 50L65.3438 58.25C67.4696 60.3758 67.5831 63.6669 65.625 65.625C63.6669 67.5831 60.3446 67.4696 58.2188 65.3438L50 57.125L41.7813 65.3438C39.6554 67.4696 36.3331 67.5831 34.375 65.625C32.4169 63.6669 32.5304 60.3758 34.6563 58.25L42.9063 50L34.6563 41.7812C32.5304 39.6554 32.4169 36.3331 34.375 34.375C35.354 33.396 36.6583 32.9508 38 33C39.3417 33.0492 40.7183 33.6246 41.7813 34.6875L50 42.9062L58.2188 34.6875C59.2817 33.6246 60.664 33.0236 62 32.9688Z" opacity="1"/><g opacity="1"><g opacity="1"><g opacity="1"><path fill="url(#LGdeleteLRb)" d="M42.8978 50.0096L34.6643 58.2431C32.5385 60.369 32.4129 63.6596 34.371 65.6177C36.3291 67.5758 39.6407 67.4711 41.7665 65.3453L50 57.1118L42.8978 50.0096Z" opacity="1"/><path fill="url(#LGdeleteLRc)" d="M62.0046 32.9769C60.6686 33.0318 59.2964 33.611 58.2335 34.6739L50 42.9074L57.1022 50.0096L65.3357 41.7761C67.4615 39.6503 67.5871 36.3178 65.629 34.3597C64.65 33.3806 63.3406 32.922 62.0046 32.9769Z" opacity=".8"/></g><g opacity=".7"><path fill="url(#LGdeleteLRd)" d="M42.8978 50.0096L34.6643 58.2431C32.5385 60.369 32.4129 63.6596 34.371 65.6177C36.3291 67.5758 39.6407 67.4711 41.7665 65.3453L50 57.1118L42.8978 50.0096Z" opacity=".8"/><path fill="url(#LGdeleteLRe)" d="M62.0046 32.9769C60.6686 33.0318 59.2964 33.611 58.2335 34.6739L50 42.9074L57.1022 50.0096L65.3357 41.7761C67.4615 39.6503 67.5871 36.3178 65.629 34.3597C64.65 33.3806 63.3406 32.922 62.0046 32.9769Z" opacity=".9"/></g></g><path fill="url(#LGdeleteLRf)" d="M37.9954 32.9979C36.6537 32.9487 35.35 33.4016 34.371 34.3806C32.4129 36.3387 32.5385 39.6503 34.6643 41.7761L42.8978 50.0096L50 57.1118L58.2335 65.3453C60.3593 67.4711 63.6709 67.5967 65.629 65.6386C67.5871 63.6805 67.4615 60.3689 65.3357 58.2431L57.1022 50.0096L50 42.9074L41.7665 34.6739C40.7036 33.611 39.3371 33.0471 37.9954 32.9979Z" opacity="1"/><path fill="url(#LGdeleteLRg)" d="M50 42.392L42.3824 50.0096L50.1033 57.7305L57.7209 50.1129L50 42.392Z" filter="url(#FideleteLRh)" opacity=".4"/><path fill="url(#LGdeleteLRi)" d="M50 42.392L42.3824 50.0096L50.1033 57.7305L57.7209 50.1129L50 42.392Z" filter="url(#FideleteLRj)" opacity=".466"/></g></g></svg>