<?xml version="1.0" encoding="UTF-8" standalone="no"?>
<svg
   height="100%"
   stroke-miterlimit="10"
   style="fill-rule:nonzero;clip-rule:evenodd;stroke-linecap:round;stroke-linejoin:round;"
   version="1.1"
   viewBox="0  0 100 100"
   width="100%"
   xml:space="preserve"
   id="svg8"
   sodipodi:docname="Dictionary.Translate.File.Type.2 copy.svg"
   inkscape:version="1.3-beta (cedbd6c, 2023-05-28)"
   xmlns:inkscape="http://www.inkscape.org/namespaces/inkscape"
   xmlns:sodipodi="http://sodipodi.sourceforge.net/DTD/sodipodi-0.dtd"
   xmlns="http://www.w3.org/2000/svg"
   xmlns:svg="http://www.w3.org/2000/svg"><sodipodi:namedview
   id="namedview8"
   pagecolor="#505050"
   bordercolor="#ffffff"
   borderopacity="1"
   inkscape:showpageshadow="0"
   inkscape:pageopacity="0"
   inkscape:pagecheckerboard="1"
   inkscape:deskcolor="#505050"
   inkscape:zoom="5.5130182"
   inkscape:cx="45.256517"
   inkscape:cy="32.287214"
   inkscape:window-width="1312"
   inkscape:window-height="781"
   inkscape:window-x="0"
   inkscape:window-y="25"
   inkscape:window-maximized="0"
   inkscape:current-layer="svg8" />&#10;<defs
   id="defs1">&#10;<filter
   color-interpolation-filters="sRGB"
   filterUnits="userSpaceOnUse"
   height="84.235"
   id="Filter"
   width="76.2223"
   x="24.7652"
   y="18.3619">&#10;<feDropShadow
   dx="-0.762474"
   dy="0.846814"
   flood-color="#000000"
   flood-opacity="0.6"
   in="SourceGraphic"
   result="Shadow"
   stdDeviation="1.5" />&#10;</filter>&#10;<filter
   color-interpolation-filters="sRGB"
   filterUnits="userSpaceOnUse"
   height="46.3629"
   id="Filter_2"
   width="42.9926"
   x="51.9367"
   y="35.138">&#10;<feDropShadow
   dx="-0.762474"
   dy="0.846814"
   flood-color="#000000"
   flood-opacity="0.6"
   in="SourceGraphic"
   result="Shadow"
   stdDeviation="1.5" />&#10;</filter>&#10;<filter
   color-interpolation-filters="sRGB"
   filterUnits="userSpaceOnUse"
   height="85.3903"
   id="Filter_3"
   width="76.2223"
   x="-2.51247"
   y="-0.903186">&#10;<feDropShadow
   dx="-0.762474"
   dy="0.846814"
   flood-color="#000000"
   flood-opacity="0.6"
   in="SourceGraphic"
   result="Shadow"
   stdDeviation="1.5" />&#10;</filter>&#10;<filter
   color-interpolation-filters="sRGB"
   filterUnits="userSpaceOnUse"
   height="49.1966"
   id="Filter_4"
   width="44.7461"
   x="5.59893"
   y="17.2647">&#10;<feDropShadow
   dx="-0.641871"
   dy="2.1144"
   flood-color="#000000"
   flood-opacity="0.5"
   in="SourceGraphic"
   result="Shadow"
   stdDeviation="1.5" />&#10;</filter>&#10;</defs>&#10;<g
   id="Layer"
   layerName="Layer">&#10;<g
   opacity="1"
   layerName="Group 4"
   id="g8">&#10;<path
   d="M91.6126 98C95.106 98.0172 97.9586 95.2121 98 91.7189L98 27.5566C97.9642 24.0593 95.1099 21.248 91.6126 21.2651L29.2777 21.2651L54.296 98L91.6126 98Z"
   fill="#00FFA7"
   fill-rule="nonzero"
   opacity="1"
   stroke="none"
   layerName="path"
   id="path1" />&#10;<path
   d="M91.6126 98C95.106 98.0172 97.9586 95.2121 98 91.7189L98 27.5566C97.9642 24.0593 95.1099 21.248 91.6126 21.2651L29.2777 21.2651L54.296 98L91.6126 98Z"
   fill="#00FFA7"
   fill-rule="nonzero"
   filter="url(#Filter)"
   stroke="none"
   layerName="path 6"
   shadowAngle="2.30383"
   shadowColor="#000000"
   shadowOffset="1.1395"
   shadowOpacity="0.6"
   shadowRadius="3"
   id="path2" />&#10;<path
   d="M91.9417 47.8503L91.9417 44.0994L73.8594 44.0994L73.8594 38.0411L67.9897 38.0411L67.9897 44.0994L56.4491 44.0994L56.4491 47.8503L79.4206 47.8503C78.0287 52.1183 75.7871 56.0604 72.8309 59.4389C68.1371 53.888 68.1166 52.0811 68.1166 52.0811L63.2411 52.0811C63.2411 52.0811 63.4434 54.7829 70.0229 62.4971C68.8311 63.7271 67.572 64.89 66.2514 65.9806L67.7531 70.664C67.7531 70.664 70.0126 68.72 72.8514 65.7097C75.6903 68.7954 79.3657 72.4914 84.0937 76.904L87.1794 73.8183C82.1017 69.2103 78.3783 65.5554 75.6457 62.624C79.5719 58.4585 82.3843 53.3702 83.8229 47.8297L91.9417 47.8297L91.9417 47.8503Z"
   fill="#b7fcfe"
   fill-rule="nonzero"
   filter="url(#Filter_2)"
   stroke="none"
   layerName="path 2"
   shadowAngle="2.30383"
   shadowColor="#000000"
   shadowOffset="1.1395"
   shadowOpacity="0.6"
   shadowRadius="3"
   id="path3" />&#10;<path
   d="M 70.712,79.88 54.296,98 48.388362,79.8903 Z"
   fill="#0000ff"
   fill-rule="nonzero"
   opacity="1"
   stroke="none"
   layerName="path 1"
   id="path4"
   sodipodi:nodetypes="cccc" />&#10;<path
   d="M8.38743 2C4.86521 2.01316 2.01316 4.86521 2 8.38743L2 73.5029C2.01129 77.0258 4.86444 79.879 8.38743 79.8903L70.7223 79.8903L45.704 2L8.38743 2Z"
   fill="#1ED1FF"
   fill-rule="nonzero"
   filter="url(#Filter_3)"
   stroke="none"
   layerName="path 3"
   shadowAngle="2.30383"
   shadowColor="#000000"
   shadowOffset="1.1395"
   shadowOpacity="0.6"
   shadowRadius="3"
   id="path5" />&#10;<path
   d="M53.3909 21.2651L91.6126 21.2651C95.1099 21.248 97.9642 24.0593 98 27.5566L98 66.0491L53.3909 21.2651Z"
   fill="#ffffff"
   fill-rule="nonzero"
   opacity="0.25"
   stroke="none"
   layerName="path 4"
   id="path6" />&#10;<path
   d="m 50.33695,83.07764 h 22.248 l -16.4137,18.1201 z"
   fill="#ffffff"
   fill-rule="nonzero"
   opacity="0.100754"
   stroke="none"
   layerName="path 7"
   id="path7"
   sodipodi:nodetypes="cccc" />&#10;<path
   d="M28.6265 21.2651L11.4781 59.6326L14.2385 59.6326L20.663 45.2721L36.6144 45.2721L43.0145 59.6326L45.7505 59.6326L28.6265 21.2651ZM28.6265 27.4309L35.6617 43.1638L21.6157 43.1638L28.6265 27.4309Z"
   fill="#ffffff"
   fill-rule="nonzero"
   filter="url(#Filter_4)"
   stroke="#ffffff"
   stroke-linecap="butt"
   stroke-linejoin="miter"
   stroke-width="1.92871"
   layerName="Curve 1"
   shadowAngle="1.86553"
   shadowColor="#000000"
   shadowOffset="2.20968"
   shadowOpacity="0.5"
   shadowRadius="3"
   id="path8"
   style="fill:#ffffff;fill-opacity:1;stroke-width:2.029;stroke-dasharray:none;stroke:#ffffff;stroke-opacity:1" /></g></g>&#10;</svg>
