<svg xmlns="http://www.w3.org/2000/svg" xmlns:svg="http://www.w3.org/2000/svg" width="100%" height="100%" viewBox="0 0 100 100" xml:space="preserve"><defs><linearGradient id="LG_dl" x1="19" x2="1" y1="1" y2="19" gradientTransform="matrix(1.05556,0,0,1.05556,-2.16667,-2.16667)" gradientUnits="userSpaceOnUse"><stop id="stop1" offset="0" stop-color="#00ff78"/><stop id="stop2" offset="1" stop-color="#02fffd"/></linearGradient><linearGradient id="LG_dc" x1="11.258" x2="11.908" y1="17.484" y2=".837" gradientTransform="matrix(0.95,0,0,0.95,1.01354,1)" gradientUnits="userSpaceOnUse"><stop id="stop3" offset="0" stop-color="#e900ba"/><stop id="stop4" offset=".324" stop-color="#cf00a6"/><stop id="stop5" offset=".738" stop-color="#f0f"/><stop id="stop6" offset="1" stop-color="#f0f"/></linearGradient><linearGradient id="LG_Lc" x1="17.721" x2="7.62" y1="18.568" y2=".923" gradientTransform="matrix(0.95,0,0,0.95,1.01354,1)" gradientUnits="userSpaceOnUse"><stop id="stop7" offset="0" stop-color="#e900ba"/><stop id="stop8" offset=".27" stop-color="#cf00a6"/><stop id="stop9" offset=".855" stop-color="#f0f"/><stop id="stop10" offset="1" stop-color="#f0f"/></linearGradient><linearGradient id="LG_al" x1="7.834" x2="11.085" y1="9.617" y2="9.642" gradientTransform="matrix(0.95,0,0,0.95,0.9911485,0.35710948)" gradientUnits="userSpaceOnUse"><stop id="stop11" offset="0" stop-color="#f0f"/><stop id="stop12" offset=".324" stop-color="#f0f"/><stop id="stop13" offset=".738" stop-color="#e900ba"/><stop id="stop14" offset="1" stop-color="#cf00a6"/></linearGradient><linearGradient id="LG_ap" x1="5.274" x2="12.449" y1="11.235" y2="11.714" gradientTransform="matrix(0.95,0,0,0.95,0.9911485,0.35710948)" gradientUnits="userSpaceOnUse"><stop id="stop15" offset="0" stop-color="#f0f"/><stop id="stop16" offset=".271" stop-color="#f0f"/><stop id="stop17" offset=".693" stop-color="#e900ba"/><stop id="stop18" offset="1" stop-color="#cf00a6"/></linearGradient></defs><g id="downloading" opacity="1" transform="matrix(4.6666667,0,0,4.6666667,1.1045869,1.0001864)"><path id="Circle" fill-opacity="0" d="M 1,10.5 C 1,5.2533 5.2533,1 10.5,1 15.7467,1 20,5.2533 20,10.5 20,15.7467 15.7467,20 10.5,20 5.2533,20 1,15.7467 1,10.5 Z" style="display:inline;fill:url(#LG_dl)"><animate fill="freeze" attributeName="fill-opacity" begin=".3s" dur="5s" repeatCount="indefinite" values="0.025;1;0.025"/></path><g id="arrow" fill="none" stroke-linecap="round" stroke-width="2" opacity="1"><path id="Dotted-Circle" d="M 10.5,1 C 15.7467,1 20,5.25329 20,10.5 20,15.7467 15.7467,20 10.5,20" opacity="1" style="stroke:url(#LG_dc);stroke-dasharray:2,4;stroke-dashoffset:6;stroke-linejoin:miter"><animate attributeName="stroke-dashoffset" dur="0.6s" repeatCount="indefinite" values="6;0"/></path><path id="LeftCurve" d="M 10.5,20 C 5.25329,20 1,15.7467 1,10.5 1,5.25329 5.25329,1 10.5,1" opacity="1" style="stroke:url(#LG_Lc);stroke-dasharray:30;stroke-dashoffset:30;stroke-linejoin:miter"><animate fill="freeze" attributeName="stroke-dashoffset" begin="0.1s" dur="0.3s" values="30;0"/></path><path id="ArrowLine" d="M 10.477608,5.3709995 V 14.343206" opacity="1" style="stroke:url(#LG_al);stroke-dasharray:10;stroke-dashoffset:10;stroke-linejoin:miter"><animate fill="freeze" attributeName="stroke-dashoffset" begin="0.6s" dur="0.3s" values="10;0"/></path><path id="Arrow-head" d="m 10.477608,15.62892 3.6944,-3.6944 m -3.6944,3.6944 -3.6944395,-3.6944" nodetypes="cccc" opacity="1" style="stroke:url(#LG_ap);stroke-dasharray:6;stroke-dashoffset:6stroke-linejoin:miter"><animate fill="freeze" attributeName="stroke-dashoffset" begin="0.9s" dur="0.3s" values="6;0"/></path></g></g></svg>