<svg xmlns="http://www.w3.org/2000/svg" viewBox="0 0 48 48"><path fill="rgba(255, 255, 255, 0)" d="M0 0H48V48H0z"/><g fill="none"><g stroke="currentColor" stroke-linejoin="round" stroke-width="4"><path fill="#2F88FF" d="M24 10l-12 8 12 8 12-8-12-8z"/><path d="M24 10l12 8 5-7-11-7-6 6zm0 0l-12 8-5-7 11-7 6 6zm19 12l-7-4-12 8 7 5 12-9zM5 22l7-4 12 8-7 5-12-9z"/><path stroke-linecap="round" d="M36 28v9l-12 7-12-7v-9"/></g><defs><clipPath id="a"><path fill="#efefef" d="M0 0H48V48H0z"/></clipPath></defs></g></svg>
