<svg xmlns="http://www.w3.org/2000/svg" xmlns:vectornator="http://vectornator.io" xmlns:xlink="http://www.w3.org/1999/xlink" width="100%" height="100%" stroke-miterlimit="10" viewBox="0 0 100 100" style="fill-rule:nonzero;clip-rule:evenodd;stroke-linecap:round;stroke-linejoin:round" version="1.1" xml:space="preserve"><defs><linearGradient id="LinearGradient" x1="2" x2="53.214" y1="72.394" y2="72.394" gradientTransform="matrix(1.01025 0 0 1.01025 -2.02051 0.297898)" gradientUnits="userSpaceOnUse"><stop offset="0" stop-color="#e600b8"/><stop offset=".163" stop-color="#ff02cc"/><stop offset="1" stop-color="#ff0279"/></linearGradient><linearGradient id="LinearGradient_2" x1="9.763" x2="51.238" y1="69.014" y2="69.014" gradientTransform="matrix(1.01029 0 0 1.01029 -1.52241 0.381137)" gradientUnits="userSpaceOnUse"><stop offset="0" stop-color="#8b006f"/><stop offset=".174" stop-color="#a30183"/><stop offset="1" stop-color="#bf015b"/></linearGradient><linearGradient id="LinearGradient_3" x1="27.483" x2="60.143" y1="56.189" y2="56.189" gradientTransform="matrix(1.07019 0 0 1.07019 -3.54266 -2.50627)" gradientUnits="userSpaceOnUse"><stop offset="0" stop-color="#e600b8"/><stop offset=".163" stop-color="#ff02cc"/><stop offset="1" stop-color="#ff0279"/></linearGradient><linearGradient id="LinearGradient_4" x1="31.578" x2="98.863" y1="28.98" y2="28.98" gradientTransform="matrix(3.09312e-16 -1.01029 -1.01029 6.18625e-17 102.021 99.7059)" gradientUnits="userSpaceOnUse"><stop offset="0" stop-color="#3f51b5"/><stop offset=".642" stop-color="#8e3ad9"/></linearGradient><linearGradient id="LinearGradient_5" x1="39.875" x2="107.161" y1="30.396" y2="30.396" gradientTransform="matrix(3.06125e-16 -1.00524 -0.991831 6.07322e-17 101.893 98.8869)" gradientUnits="userSpaceOnUse"><stop offset="0" stop-color="#3f51b5"/><stop offset="1" stop-color="#54009f"/></linearGradient><linearGradient id="LinearGradient_6" x1="36.406" x2="72.514" y1="45.531" y2="45.531" gradientTransform="matrix(5.9269e-17 -0.967936 -0.967936 5.9269e-17 102.397 96.7573)" gradientUnits="userSpaceOnUse"><stop offset="0" stop-color="#3f51b5"/><stop offset="1" stop-color="#8e3ad9"/></linearGradient></defs><clipPath id="ArtboardFrame"><rect width="100" height="98.606" x="0" y=".697"/></clipPath><g id="Layer" clip-path="url(#ArtboardFrame)" layerName="Layer"><g layerName="g" opacity="1"><path fill="url(#LinearGradient)" fill-rule="nonzero" stroke="none" d="M43.2707 90.8365C53.8421 80.2676 54.6228 63.9012 45.0115 54.2925C35.4003 44.6836 19.039 45.4595 8.46752 56.0309C-2.10391 66.6048-2.88222 82.9661 6.7266 92.5798C16.3354 102.184 32.6969 101.405 43.2707 90.8365ZM38.9209 84.7458C31.7125 91.9542 20.6755 92.6016 13.6877 85.6163C6.69992 78.626 7.35215 67.5867 14.5582 60.3807C21.7642 53.1771 32.8011 52.5225 39.7913 59.5103C46.7768 66.5005 46.1245 77.5399 38.9209 84.7458Z" layerName="path" opacity="1"/><path fill="url(#LinearGradient_2)" fill-rule="nonzero" stroke="none" d="M43.3519 83.9304C35.6607 91.5593 24.3556 93.0339 16.4988 87.9624C23.4222 92.3521 32.6632 91.0589 38.9799 84.7982C46.2226 77.6116 46.8757 66.6082 39.8548 59.6391C32.829 52.675 21.7334 53.3277 14.4931 60.507C8.17644 66.7726 6.87266 75.9389 11.2983 82.8063C6.18786 75.0155 7.67442 63.8041 15.368 56.168C24.0607 47.5479 37.3716 46.772 45.0992 54.4348C52.8269 62.1 52.0446 75.3056 43.3519 83.9304Z" layerName="path" opacity="1"/><path fill="url(#LinearGradient_3)" fill-rule="nonzero" stroke="none" d="M29.6873 60.2189L40.7498 71.2813C45.8379 76.3746 54.0904 76.3746 59.1811 71.2813C59.1811 71.2813 62.872 67.593 59.1811 63.9073C55.4954 60.2215 38.9056 43.6317 37.064 41.7901C33.3731 38.1044 29.6899 41.7901 29.6899 41.7901C24.5966 46.8808 24.5966 55.1282 29.6873 60.2189Z" layerName="path" opacity="1"/><path fill="url(#LinearGradient_4)" fill-rule="nonzero" stroke="none" d="M91.5339 43.9679C80.9649 54.5393 64.5986 55.32 54.9899 45.7087C45.381 36.0975 46.1569 19.7362 56.7283 9.16472C67.3021-1.40666 83.6635-2.18496 93.2772 7.42386C102.881 17.0326 102.103 33.3941 91.5339 43.9679ZM85.4432 39.6181C92.6516 32.4097 93.299 21.3727 86.3137 14.3849C79.3234 7.39718 68.2841 8.04941 61.0781 15.2554C53.8745 22.4614 53.2199 33.4983 60.2077 40.4885C67.1979 47.474 78.2372 46.8217 85.4432 39.6181Z" layerName="path" opacity="1"/><path fill="url(#LinearGradient_5)" fill-rule="nonzero" stroke="none" d="M84.8484 43.9247C92.361 36.3105 93.8131 25.1184 88.8189 17.3401C93.1418 24.1944 91.8683 33.3429 85.703 39.5965C78.626 46.7668 67.7904 47.4133 60.9276 40.4626C54.0696 33.507 54.7123 22.5224 61.7822 15.3545C67.9521 9.10108 76.9787 7.81034 83.7415 12.1916C76.0694 7.13239 65.029 8.6041 57.5093 16.2207C49.0207 24.8265 48.2566 38.0042 55.8026 45.6545C63.3508 53.3049 76.3551 52.5304 84.8484 43.9247Z" layerName="path" opacity="1"/><path fill="url(#LinearGradient_6)" fill-rule="nonzero" stroke="none" d="M60.9163 30.3845L71.9787 41.447C77.072 46.5351 77.072 54.7876 71.9787 59.8783C71.9787 59.8783 68.2904 63.5692 64.6047 59.8783C60.9189 56.1926 44.329 39.6028 42.4875 37.7611C38.8018 34.0703 42.4875 30.3871 42.4875 30.3871C47.5782 25.2938 55.8256 25.2938 60.9163 30.3845Z" layerName="path" opacity="1"/></g></g></svg>