<svg xmlns="http://www.w3.org/2000/svg" xmlns:xlink="http://www.w3.org/1999/xlink" width="100%" height="100%" version="1.1" viewBox="0 0 100 100" xml:space="preserve"><defs><filter id="Filter_zxcv" width="105.033" height="105.033" x="-2.517" y="-1.579" color-interpolation-filters="sRGB" filterUnits="userSpaceOnUse"><feDropShadow dx="0" dy=".938" flood-color="#000" flood-opacity=".45" in="SourceGraphic" result="Shadow" stdDeviation="1.407"/></filter><linearGradient id="LinearGradient_zxcv" x1=".009" x2="98.008" y1="49.008" y2="49.008" gradientTransform="matrix(1 0 0 1 0.991464 0.991464)" gradientUnits="userSpaceOnUse"><stop offset=".287" stop-color="#00ff90"/><stop offset="1" stop-color="#02fffd"/></linearGradient></defs><g filter="url(#Filter_zxcv)"><path fill="url(#LinearGradient_zxcv)" d="M89.2 30.4L76.5286 30.4L70.1929 36.7357C68.277 38.6516 65.1753 38.6516 63.2643 36.7357C61.3533 34.8198 61.3484 31.7181 63.2643 29.8071L69.6 23.4714L69.6 10.8C69.6 5.3855 65.2145 1 59.8 1L10.8 1C5.3855 1 1 5.3855 1 10.8L1 59.8C1 65.2145 5.3855 69.6 10.8 69.6L23.4714 69.6L29.8071 63.2643C31.723 61.3484 34.8247 61.3484 36.7357 63.2643C38.6467 65.1802 38.6516 68.2819 36.7357 70.1929L30.4 76.5286L30.4 89.2C30.4 94.6145 34.7855 99 40.2 99L89.2 99C94.6145 99 99 94.6145 99 89.2L99 40.2C99 34.7855 94.6145 30.4 89.2 30.4ZM61.3729 84.3C58.6632 84.3 57.3059 81.0219 59.2218 79.1109L64.9646 73.3681L61.5395 69.943C59.2218 67.6204 59.2218 63.8621 61.5395 61.5444C63.8621 59.2267 67.6204 59.2267 69.9381 61.5444L73.3632 64.9695L79.106 59.2267C81.0219 57.3059 84.3 58.6632 84.3 61.3729L84.3 78.2485C84.3 81.5903 81.5903 84.3 78.2436 84.3L61.3729 84.3ZM15.7 21.7564C15.7 18.4097 18.4097 15.7 21.7564 15.7L38.632 15.7C41.3417 15.7 42.699 18.9781 40.7831 20.8891L35.0354 26.6368L38.4605 30.057C40.7782 32.3747 40.7831 36.1379 38.4605 38.4556C36.1428 40.7782 32.3796 40.7782 30.0619 38.4556L26.6368 35.0354L20.894 40.7782C18.9781 42.6941 15.7 41.3368 15.7 38.6271L15.7 21.7564ZM58.3643 48.5643L48.5643 58.3643C46.6484 60.2802 43.5467 60.2802 41.6357 58.3643L41.6357 58.3643C39.7198 56.4484 39.7198 53.3467 41.6357 51.4357L51.4357 41.6357C53.3516 39.7198 56.4533 39.7198 58.3643 41.6357L58.3643 41.6357C60.2802 43.5467 60.2802 46.6484 58.3643 48.5643Z" opacity="1"/></g></svg>