<svg width="100%" height="100%" viewBox="0 0 131 131" stroke-miterlimit="10" style="fill-rule:nonzero;clip-rule:evenodd;stroke-linecap:round;stroke-linejoin:round;" version="1.1" xml:space="preserve" xmlns="http://www.w3.org/2000/svg" xmlns:xlink="http://www.w3.org/1999/xlink"><defs><linearGradient id="LG" gradientTransform="matrix(59.627 -56.5613 16.5312 25.0896 37.0279 117.919)" gradientUnits="userSpaceOnUse" x1="0" x2="1" y1="0" y2="0"><stop offset="0" stop-color="#fff" stop-opacity="0.8"/><stop offset="1" stop-color="#fff" stop-opacity="0.2"/></linearGradient><linearGradient id="LG_2" gradientTransform="matrix(39.1159 40.8003 -16.6647 11.9627 51.582 24.3765)" gradientUnits="userSpaceOnUse" x1="0" x2="1" y1="0" y2="0"><stop offset="0" stop-color="#fff" stop-opacity="0.44"/><stop offset="1" stop-color="#fff"/></linearGradient></defs><g ><g opacity="1"><path fill="url(#LG)" fill-rule="nonzero" opacity="1" stroke="none" d="M49.4106 108.067C45.7928 104.449 45.7928 98.5836 49.4106 94.9658L85.5285 58.8479C89.1463 55.2301 95.0119 55.2301 98.6297 58.8479L98.7228 58.941C102.341 62.5588 102.341 68.4244 98.7228 72.0422L62.6049 108.16C58.9871 111.778 53.1215 111.778 49.5037 108.16L49.4106 108.067Z"/><path fill="url(#LG_2)" fill-rule="nonzero" opacity="1" stroke="none" d="M49.4903 22.8533C53.1155 19.2281 58.9931 19.2281 62.6183 22.8533L98.7094 58.9444C102.335 62.5696 102.335 68.4472 98.7094 72.0724L98.6431 72.1387C95.0179 75.7639 89.1403 75.7639 85.5151 72.1387L49.424 36.0476C45.7988 32.4224 45.7988 26.5448 49.424 22.9196L49.4903 22.8533Z"/></g></g></svg>