<svg xmlns="http://www.w3.org/2000/svg" xmlns:xlink="http://www.w3.org/1999/xlink" style="fill-rule:nonzero;clip-rule:evenodd;stroke-linecap:round;stroke-linejoin:round" width="100%" height="100%" stroke-miterlimit="10" version="1.1" viewBox="0 0 100 100" xml:space="preserve"><defs><linearGradient id="LG" x1="0" x2="1" y1="0" y2="0" gradientTransform="matrix(-0.840028 -35.1238 35.1238 -0.840028 19.1918 47.2139)" gradientUnits="userSpaceOnUse"><stop offset="0" stop-color="#b3b3b3" stop-opacity=".96"/><stop offset=".526" stop-color="#ccc" stop-opacity=".98"/><stop offset="1" stop-color="#fff"/></linearGradient><linearGradient id="LG_2" x1="0" x2="1" y1="0" y2="0" gradientTransform="matrix(-7.4992 -56.2209 56.2209 -7.4992 44.3629 87.0199)" gradientUnits="userSpaceOnUse"><stop offset="0" stop-color="#b3b3b3" stop-opacity=".96"/><stop offset=".526" stop-color="#ccc" stop-opacity=".98"/><stop offset="1" stop-color="#fff"/></linearGradient><linearGradient id="LG_3" x1="0" x2="1" y1="0" y2="0" gradientTransform="matrix(-90.1182 -36.2469 35.6951 -88.7957 102.367 93.9129)" gradientUnits="userSpaceOnUse"><stop offset="0" stop-color="#00ff73"/><stop offset=".4" stop-color="#0bb751"/><stop offset="1" stop-color="#00813a"/></linearGradient><linearGradient id="LG_4" x1="0" x2="1" y1="0" y2="0" gradientTransform="matrix(-38.72 4.03661 -4.25594 -29.5493 108.051 62.6149)" gradientUnits="userSpaceOnUse"><stop offset="0" stop-color="#b3b3b3" stop-opacity=".96"/><stop offset=".526" stop-color="#ccc" stop-opacity=".98"/><stop offset="1" stop-color="#fff"/></linearGradient><linearGradient id="LG_5" x1="0" x2="1" y1="0" y2="0" gradientTransform="matrix(-2.21931 -33.0844 33.0949 -2.66036 88.2963 93.8204)" gradientUnits="userSpaceOnUse"><stop offset="0" stop-color="#b3b3b3" stop-opacity=".96"/><stop offset=".526" stop-color="#ccc" stop-opacity=".98"/><stop offset="1" stop-color="#fff"/></linearGradient></defs><g id="Layer"><g opacity="1"><path fill="url(#LG)" fill-rule="nonzero" stroke="none" d="M9.34385 10.3748C4.75574 10.3748 0.999999 14.1305 1 18.7186L1 43.7502C1 48.3383 4.75574 52.094 9.34385 52.094L17.6877 52.094L17.6877 43.7502L9.34385 43.7502L9.34385 18.7186L71.9066 18.7186L71.9066 27.0625L80.2505 27.0625L80.2505 18.7186C80.2505 14.1305 76.4947 10.3748 71.9066 10.3748L9.34385 10.3748Z" opacity=".9"/><path fill="url(#LG_2)" fill-rule="nonzero" stroke="none" d="M25.9993 27.0625C21.4112 27.0625 17.6877 30.8182 17.6877 35.4063L17.6877 43.7502L17.6877 52.094L17.6877 60.4379C17.6877 65.026 21.4112 68.7817 25.9993 68.7817L88.5943 68.7817C93.1825 68.7817 96.906 65.026 96.906 60.4379L96.906 35.4063C96.906 30.8182 93.1825 27.0625 88.5943 27.0625L80.2505 27.0625L71.9066 27.0625L25.9993 27.0625ZM25.9993 35.4063L88.5943 35.4063L88.5943 60.4379L25.9993 60.4379L25.9993 35.4063Z" opacity="1"/><path fill="url(#LG_3)" fill-rule="nonzero" stroke="none" d="M78.1565 47.906C66.6385 47.906 57.2807 57.2638 57.2807 68.7817C57.2807 80.2997 66.6385 89.6253 78.1565 89.6252C89.6744 89.6252 99 80.2997 99 68.7817C99 57.2638 89.6744 47.906 78.1565 47.906ZM78.1565 54.4458C80.4601 54.4458 82.3123 56.3302 82.3123 58.6338L82.3123 64.5937L88.3044 64.5937C90.608 64.5937 92.4602 66.4781 92.4602 68.7817C92.4602 71.0853 90.608 72.9375 88.3044 72.9375L82.3123 72.9375L82.3123 78.9297C82.3123 81.2332 80.4601 83.0855 78.1565 83.0855C75.8529 83.0855 73.9685 81.2332 73.9684 78.9297L73.9684 72.9375L68.0085 72.9375C65.705 72.9375 63.8205 71.0853 63.8205 68.7817C63.8205 66.4781 65.705 64.5937 68.0085 64.5937L73.9684 64.5937L73.9684 58.6338C73.9684 56.3302 75.8529 54.4458 78.1565 54.4458Z" opacity="1"/><g opacity="1"><path fill="url(#LG_4)" fill-rule="nonzero" stroke="none" d="M63.8325 68.6439C63.8325 66.4094 65.644 64.598 67.8785 64.598L88.4249 64.598C90.6595 64.598 92.4709 66.4094 92.4709 68.6439L92.4709 68.894C92.4709 71.1285 90.6595 72.94 88.4249 72.94L67.8785 72.94C65.644 72.94 63.8325 71.1285 63.8325 68.894L63.8325 68.6439Z" opacity="1"/><path fill="url(#LG_5)" fill-rule="nonzero" stroke="none" d="M73.9807 58.4981C73.9807 56.2636 75.7922 54.4522 78.0267 54.4522L78.2767 54.4522C80.5113 54.4522 82.3227 56.2636 82.3227 58.4981L82.3227 79.0398C82.3227 81.2743 80.5113 83.0858 78.2767 83.0858L78.0267 83.0858C75.7922 83.0858 73.9807 81.2743 73.9807 79.0398L73.9807 58.4981Z" opacity="1"/></g></g></g></svg>