<svg height="100%" stroke-miterlimit="10" style="fill-rule:nonzero;clip-rule:evenodd;stroke-linecap:round;stroke-linejoin:round;" version="1.1" viewBox="1.29345 2.20731 96.5057 96.5057" width="100%" xml:space="preserve" xmlns="http://www.w3.org/2000/svg" xmlns:vectornator="http://vectornator.io" xmlns:xlink="http://www.w3.org/1999/xlink">
<defs>
<filter color-interpolation-filters="sRGB" filterUnits="userSpaceOnUse" height="96.5057" id="Filter" width="96.5057" x="1.29345" y="2.20731">
<feComponentTransfer in="SourceGraphic" result="Alpha">
<feFuncA slope="0.16" type="linear"/>
</feComponentTransfer>
<feDropShadow dx="-0.453714" dy="0.460145" flood-color="#000000" flood-opacity="0.44" in="Alpha" result="Shadow" stdDeviation="0.974646"/>
<feGaussianBlur in="Shadow" result="Blur" stdDeviation="0.601819"/>
</filter>
<filter color-interpolation-filters="sRGB" filterUnits="userSpaceOnUse" height="95.3429" id="Filter_2" width="95.3429" x="1.87484" y="2.7887">
<feDropShadow dx="-0.453714" dy="0.460145" flood-color="#000000" flood-opacity="0.44" in="SourceGraphic" result="Shadow" stdDeviation="0.974646"/>
</filter>
</defs>
<clipPath id="ArtboardFrame">
<rect height="96.5057" width="96.5057" x="1.29345" y="2.20731"/>
</clipPath>
<g clip-path="url(#ArtboardFrame)" id="Layer" layerName="Layer">
<g opacity="1" layerName="g 1"/>
<g opacity="1" layerName="g 9">
<path d="M8.45781 8.45781L91.5422 8.45781L91.5422 81.1566C91.5422 86.8924 86.8924 91.5422 81.1566 91.5422L18.8434 91.5422C13.1076 91.5422 8.45781 86.8924 8.45781 81.1566C8.45781 81.1566 8.45781 8.45781 8.45781 8.45781Z" fill="#ffffff" fill-rule="nonzero" filter="url(#Filter)" stroke="#ffffff" stroke-linecap="round" stroke-linejoin="round" stroke-width="5.53896" blur="1.20364" layerName="path" shadowAngle="2.34916" shadowColor="#000000" shadowOffset="0.646212" shadowOpacity="0.44" shadowRadius="1.94929"/>
<path d="M44.8072 8.45781L8.45781 8.45781L8.45781 81.1566C8.45781 86.8924 13.1076 91.5422 18.8434 91.5422L81.1566 91.5422C86.8924 91.5422 91.5422 86.8924 91.5422 81.1566L91.5422 55.1928M34.4217 65.5783L91.5422 8.45781M65.5783 8.45781L91.5422 8.45781L91.5422 34.4217" fill="none" filter="url(#Filter_2)" stroke="#ffffff" stroke-linecap="round" stroke-linejoin="round" stroke-width="7.38528" layerName="path" shadowAngle="2.34916" shadowColor="#000000" shadowOffset="0.646212" shadowOpacity="0.44" shadowRadius="1.94929"/>
</g>
</g>
</svg>
