<svg xmlns="http://www.w3.org/2000/svg" xmlns:vectornator="http://vectornator.io" xmlns:xlink="http://www.w3.org/1999/xlink" width="100%" height="100%" viewBox="0 0 100 100" xml:space="preserve"><defs><filter id="LashLine" width="87.759" height="33.518" x="6.695" y="27.925" color-interpolation-filters="sRGB" filterUnits="userSpaceOnUse"><feDropShadow dx="0" dy="0" flood-color="#000" flood-opacity=".5" in="SourceGraphic" result="Shadow" stdDeviation="1.5"/></filter><filter id="FilterToplash" width="107.5" height="49.184" x="-3.75" y="13.606" color-interpolation-filters="sRGB" filterUnits="userSpaceOnUse"><feDropShadow dx="0" dy="0" flood-color="#000" flood-opacity=".5" in="SourceGraphic" result="Shadow" stdDeviation="1.5"/></filter><filter id="FilterBase" width="87.782" height="57.772" x="6.717" y="28.622" color-interpolation-filters="sRGB" filterUnits="userSpaceOnUse"><feDropShadow dx="0" dy="0" flood-color="#000" flood-opacity=".5" in="SourceGraphic" result="Shadow" stdDeviation="1.5"/></filter><radialGradient id="RadialGradient" cx="370.339" cy="321.817" r="307.637" gradientTransform="matrix(0.11064 0 0 0.103421 9.09187 17.9274)" gradientUnits="userSpaceOnUse"><stop offset="0" stop-color="#fff" stop-opacity=".081"/><stop offset=".504" stop-color="#fff"/><stop offset="1" stop-color="#b3b3b3"/></radialGradient><filter id="FilterSchlera" width="70.307" height="36.934" x="15.553" y="39.861" color-interpolation-filters="sRGB" filterUnits="userSpaceOnUse"><feDropShadow dx="0" dy="0" flood-color="#000" flood-opacity=".5" in="SourceGraphic" result="Shadow" stdDeviation="1.5"/></filter><radialGradient id="RadialGradient_Iris" cx="374.927" cy="347.247" r="320.129" gradientTransform="matrix(0.104708 0 0 0.104708 11.6331 13.3673)" gradientUnits="userSpaceOnUse"><stop offset=".228" stop-color="#195a1f"/><stop offset=".488" stop-color="#0f3a14"/><stop offset=".926" stop-color="#3a230f" stop-opacity="0"/></radialGradient><filter id="FilterIris" width="47.611" height="38.104" x="26.9" y="35.486" color-interpolation-filters="sRGB" filterUnits="userSpaceOnUse"><feDropShadow dx="0" dy="0" flood-color="#000" flood-opacity=".5" in="SourceGraphic" result="Shadow" stdDeviation="1.5"/></filter><filter id="FilterPupil" width="34.909" height="33.717" x="33.149" y="34.469" color-interpolation-filters="sRGB" filterUnits="userSpaceOnUse"><feDropShadow dx="0" dy="0" flood-color="#000" flood-opacity=".5" in="SourceGraphic" result="Shadow" stdDeviation="1.5"/></filter><filter id="FilterGlint" width="22.488" height="22.518" x="32.529" y="38.305" color-interpolation-filters="sRGB" filterUnits="userSpaceOnUse"><feDropShadow dx="0" dy="0" flood-color="#000" flood-opacity=".5" in="SourceGraphic" result="Shadow" stdDeviation="1.5"/></filter><filter id="FilterBottomLine" width="86.852" height="34.086" x="7.511" y="49.806" color-interpolation-filters="sRGB" filterUnits="userSpaceOnUse"><feDropShadow dx="0" dy="0" flood-color="#000" flood-opacity=".5" in="SourceGraphic" result="Shadow" stdDeviation="1.5"/></filter><filter id="BottomLashes" width="107.492" height="47.965" x="-3.751" y="49.795" color-interpolation-filters="sRGB" filterUnits="userSpaceOnUse"><feDropShadow dx="0" dy="0" flood-color="#000" flood-opacity=".5" in="SourceGraphic" result="Shadow" stdDeviation="1.5"/></filter><style id="blink">@keyframes eye_open_c_o{0%,23.333333%{opacity:1}16.666667%{opacity:1;animation-timing-function:step-end}20%{opacity:0;animation-timing-function:step-end}}@keyframes eye_closed_f_o{0%,23.333333%{fill-opacity:0}16.666667%{fill-opacity:0;animation-timing-function:step-end}20%{fill-opacity:1;animation-timing-function:step-end}}#prefix__eye_open{animation:eye_open_c_o 6000ms linear infinite normal forwards}#prefix__eye_closed{animation:eye_closed_f_o 6000ms linear infinite normal forwards}</style></defs><g layerName="Eye" opacity="1"><g id="prefix__eye" stroke="none" stroke-width="1" opacity="1"><g id="prefix__eye_open" opacity="1"><path id="prefix__Base" fill="#000" d="M50.9622 32.372C48.4215 32.3685 45.8577 32.5843 43.2318 33.0119C42.6359 33.1091 42.0789 33.3256 41.4912 33.447C40.5645 33.6237 39.6322 33.7713 38.7011 34.0102C37.8475 34.229 37.0455 34.5277 36.2181 34.8037C36.1082 34.8416 35.9949 34.8673 35.8854 34.9061C33.6638 35.6701 31.5885 36.6497 29.5884 37.7474C29.4565 37.8192 29.3102 37.8534 29.1788 37.9266C27.3797 38.9288 25.6979 40.0565 24.0849 41.2543C23.5324 41.6706 23.0726 42.1027 22.5491 42.5341C21.22 43.6162 19.9278 44.7399 18.7351 45.9642C18.1746 46.5399 17.7051 47.1006 17.1992 47.6792C16.1775 48.8418 15.2177 50.0622 14.3067 51.3396C14.1864 51.517 13.9857 51.7016 13.8716 51.8772C13.8027 51.9608 13.0631 52.9943 12.3869 54.0786C12.3806 54.0889 12.3676 54.0939 12.3613 54.1042C12.3379 54.1419 12.3335 54.143 12.3101 54.1809C12.2711 54.2444 12.249 54.2915 12.2078 54.3601C11.614 55.3446 11.0454 56.3398 10.4671 57.3294L10.4671 57.5086L10.4671 57.6366C10.7327 58.0792 11.004 58.5463 11.2606 58.9933C18.9656 72.394 30.3639 80.3652 45.7916 82.3125C52.8238 83.202 59.6753 82.2842 66.2695 79.7528C77.1432 75.5794 85.2045 68.2121 90.6126 57.9182C90.6684 57.8109 90.6109 57.6571 90.6126 57.5086C90.6169 57.5084 90.7406 57.5086 90.7406 57.5086C90.7829 57.421 90.6566 57.2224 90.6126 57.0735C90.4541 56.5364 89.9956 55.8069 89.9471 55.7168C88.3736 52.6348 86.2162 49.7481 83.7525 47.1161C83.7443 47.1073 83.7352 47.0993 83.7269 47.0905C82.6215 45.8693 81.4113 44.7549 80.1689 43.6604C79.1292 42.7445 78.0041 41.8997 76.8668 41.0751C76.4206 40.7479 75.9885 40.4128 75.5357 40.1024C75.1581 39.8491 74.8229 39.5524 74.4351 39.3089C73.9975 39.0339 73.5451 38.8251 73.104 38.5665C72.2579 38.0539 71.4207 37.582 70.5698 37.1331C66.5977 35.0375 62.6138 33.5956 59.1534 33.1399C59.0073 33.1206 58.8643 33.1071 58.7182 33.0887C58.6327 33.073 58.548 33.0527 58.4623 33.0375C57.4993 32.8668 56.495 32.8857 55.5186 32.7815C54.9551 32.7359 54.3916 32.6586 53.8291 32.6279C52.8705 32.5636 51.9335 32.3733 50.9622 32.372Z" filter="url(#Filter_Base)" shadowAngle="1.745" shadowColor="#000000" shadowOffset="0" shadowOpacity=".5" shadowRadius="3"/><path id="prefix__BottomLine" fill="#1f1e1e" d="M89.7274 59.5071C89.789 59.3943 90.5511 58.031 90.6126 57.9182C90.6126 57.9182 89.9376 53.8569 86.7981 53.574C83.2791 53.2569 82.0892 57.3532 82.0892 57.3532C82.0892 57.3532 80.3371 59.9959 79.5016 61.2419C74.7387 68.3451 60.4086 74.611 45.7372 72.896C35.5535 71.7055 27.6418 67.9519 22.0784 61.4678C22.0784 61.4678 20.815 59.896 20.092 58.5158C19.4885 57.3636 19.4034 56.362 19.4068 56.3572C18.4538 56.1947 16.9588 55.7555 15.2721 55.6479C11.3662 55.3987 11.2606 58.9933 11.2606 58.9933C12.1037 60.982 13.5907 62.6336 13.6624 62.7196C20.3122 70.5481 26.198 75.5872 37.4451 78.434C44.2619 80.1611 52.1271 80.6038 58.9351 79.6491C73.7116 77.5704 83.8336 70.0437 89.7274 59.5071Z" opacity="1"/><path id="prefix__LashLine" fill="#000" d="M11.3662 55.3987C11.3042 55.5138 10.2825 57.2648 10.4671 57.6931L19.5004 57.4C19.4349 57.3396 27.9147 39.168 50.6122 39.224C73.3097 39.28 82.0796 57.2773 82.0721 57.2881C83.1206 57.4692 90.7039 57.4531 90.7039 57.4531C90.6628 57.0766 90.4343 55.3607 89.7146 54.1915C89.0096 53.0464 88.2468 51.9741 88.1746 51.8865C81.4786 43.9027 73.1307 31.0294 50.6428 31.7006C28.1549 32.3719 17.3009 44.6533 11.3662 55.3987Z" filter="url(#LashLine)" shadowAngle="1.745" shadowColor="#000000" shadowOffset="0" shadowOpacity=".5" shadowRadius="3"/><path id="prefix__Toplash" fill="#000" d="M64.507 17.3669C63.3494 17.4602 62.2297 18.1699 61.8225 19.675L58.6865 32.0685C57.4584 31.829 65.4745 34.0406 64.7829 33.7745L67.8437 21.2806C68.5222 18.7722 66.4362 17.2112 64.507 17.3669ZM37.763 18.1195C35.8368 17.9631 33.7597 19.5467 34.4263 22.0583L37.487 33.649C36.3037 34.0557 44.7921 32.7811 44.0601 32.8964L40.4224 20.4276C40.0224 18.9206 38.9188 18.2134 37.763 18.1195ZM14.5063 27.7032C12.1152 27.6799 10.4417 31.0613 12.7251 33.5738L22.8105 44.6376C22.5843 44.7835 28.1543 41.2758 28.1543 41.2758L16.8144 28.807L16.7893 28.807C16.416 28.3973 15.9977 28.1059 15.5851 27.929C15.224 27.7741 14.8479 27.7065 14.5063 27.7032ZM85.2298 27.954C84.4453 27.9749 83.6413 28.3142 82.9718 29.1081L73.9652 39.8207C72.7952 39.2769 79.9758 43.6767 79.334 43.1825L87.7887 33.1222C89.7931 30.737 87.5831 27.8914 85.2298 27.954ZM3.61807 45.7164C0.699182 45.1871-1.59127 49.3834 1.41031 51.4114L11.2606 58.9933C10.6332 59.6718 15.3938 52.6877 14.9579 53.0422L4.89756 46.2433C4.46842 45.9541 4.03505 45.7921 3.61807 45.7164ZM96.3689 47.1715C95.9496 47.2449 95.5467 47.4103 95.1145 47.6984L84.9789 54.4722C84.5432 54.1142 90.1712 59.5971 89.5449 58.9128L98.5766 52.9418C101.6 50.9215 99.3038 46.6582 96.3689 47.1715Z" filter="url(#FilterToplash)" shadowAngle="1.745" shadowColor="#000000" shadowOffset="0" shadowOpacity=".5" shadowRadius="3"/><path id="prefix__Schlera" fill="url(#RadialGradient)" d="M31.6348 43.6109C26.7888 46.4324 22.4915 51.8647 19.4068 56.3572C19.2785 56.5434 19.2595 56.9249 19.4056 57.1318C23.4188 67.4716 40.8384 74.7044 55.7366 72.7142C67.6886 71.1177 74.3098 66.7457 80.4158 60.2743C80.6816 59.9927 81.0075 59.5265 81.2858 59.0522C81.4037 58.8511 82.018 57.8037 82.0892 57.3532C82.1775 56.7939 81.9607 56.387 81.8566 56.2373C78.8028 51.9059 74.6347 47.3604 69.9568 44.5764C70.2558 45.4796 71.3208 48.4702 70.4424 53.1311C69.3272 59.0491 65.4291 63.8857 61.7075 66.28C55.3081 70.4004 47.9603 71.5154 39.906 66.2069C31.5552 60.7029 29.0775 52.1865 31.6348 43.6109Z" filter="url(#FilterSchlera)" shadowAngle="1.745" shadowColor="#000000" shadowOffset="0" shadowOpacity=".5" shadowRadius="3"/><path id="prefix__Iris" fill="url(#RadialGradient_Iris)" d="M50.6891 39.2427C49.3704 39.2693 46.4594 39.4784 45.1467 39.7042C40.6242 40.4824 37.5002 40.0952 31.6495 43.6105C31.6495 43.6105 30.5453 47.634 30.6583 50.9592C31.0855 63.5334 44.2143 69.9447 50.5822 69.8383C60.7959 69.6678 69.9416 61.4175 70.7246 50.9592C70.8288 49.5678 70.7477 47.0078 69.9872 44.593C64.2953 40.9935 57.5658 39.1034 50.6891 39.2427Z" filter="url(#FilterIris)" shadowAngle="1.745" shadowColor="#000000" shadowOffset="0" shadowOpacity=".5" shadowRadius="3"/><path id="prefix__Pupil" fill="#000" d="M36.8993 51.3276C36.8993 44.0878 43.0351 38.2189 50.6039 38.2189C58.1727 38.2189 64.3084 44.0878 64.3084 51.3276C64.3084 58.5673 58.1727 64.4363 50.6039 64.4363C43.0351 64.4363 36.8993 58.5673 36.8993 51.3276Z" filter="url(#FilterPupil)" shadowAngle="1.745" shadowColor="#000000" shadowOffset="0" shadowOpacity=".5" shadowRadius="3"/><path id="prefix__Glint" fill="#efefef" d="M43.6646 57.0737C47.5458 57.0161 51.1217 54.3032 51.2633 49.6962C51.3828 45.7884 48.5062 42.1727 43.8814 42.0576C40.0002 41.9603 36.4243 44.7971 36.2827 49.4041C36.1632 53.3075 39.0398 56.8214 43.6646 57.0737Z" filter="url(#FilterGlint)" shadowAngle="1.745" shadowColor="#000000" shadowOffset="0" shadowOpacity=".5" shadowRadius="3"/><path id="prefix__Glint2" fill="#efefef" d="M36.1806 57.412C38.0881 57.6008 39.7354 59.0872 39.6142 61.3661C39.511 63.2991 37.9455 64.9642 35.6649 64.8298C33.7509 64.7174 32.1088 63.1699 32.2301 60.891C32.333 58.9601 33.8943 57.3453 36.1806 57.412Z" opacity="1"/></g></g><path id="prefix__eye_closed" fill="#000" fill-opacity="0" fill-rule="nonzero" stroke="none" d="M86.8125 53.5625C83.2935 53.2454 82.0937 57.3437 82.0938 57.3438C82.0938 57.3438 80.3355 60.0039 79.5 61.25C74.7371 68.3532 60.4214 74.6213 45.75 72.9062C35.5663 71.7158 27.6572 67.9529 22.0938 61.4688C22.0938 61.4688 20.8167 59.9115 20.0938 58.5312C19.4902 57.379 19.4029 56.3486 19.4062 56.3438C18.4533 56.1813 16.968 55.7639 15.2812 55.6562C11.8197 55.4354 11.4387 57.9542 11.375 58.5938C11.3841 58.599 11.2275 58.3506 11.25 58.375L1.40625 65.9375C-1.59533 67.9655 0.706114 72.1544 3.625 71.625C4.04198 71.5494 4.47711 71.4142 4.90625 71.125L14.9688 64.3125C15.0081 64.3445 14.6626 63.8579 14.625 63.7812C16.4763 65.9037 18.367 67.7688 20.2812 69.4688L12.7188 77.7812C10.4354 80.2937 12.1089 83.6795 14.5 83.6562C14.8416 83.6529 15.2327 83.5924 15.5938 83.4375C16.0064 83.2605 16.4079 82.9722 16.7812 82.5625L16.8125 82.5625L25.2812 73.25C28.6489 75.388 32.4194 77.1553 37.3125 78.4062L34.4375 89.3125C33.7709 91.8242 35.8238 93.4064 37.75 93.25C38.9057 93.1561 40.0376 92.4445 40.4375 90.9375L43.7188 79.5938C48.7737 80.2612 54.0254 80.3074 58.7812 79.6562L61.8125 91.6875C62.2196 93.1926 63.3425 93.9066 64.5 94C66.4292 94.1556 68.5223 92.5709 67.8438 90.0625L64.9688 78.4062C69.0245 77.3239 72.6427 75.755 75.875 73.8125L82.9688 82.25C83.6383 83.0439 84.4343 83.3854 85.2188 83.4062C87.572 83.4689 89.7856 80.604 87.7812 78.2188L81 70.1875C83.1534 68.35 85.0401 66.2692 86.7188 64.0312L95.125 69.6562C95.5572 69.9444 95.9557 70.1142 96.375 70.1875C99.31 70.7008 101.585 66.4266 98.5625 64.4062L90.0938 58.8125C90.3254 58.3973 90.5898 57.9709 90.625 57.9062C90.625 57.9062 89.952 53.8454 86.8125 53.5625Z" filter="url(#BottomLashes)" layerName="BottomLashes" opacity="1" shadowAngle="1.745" shadowColor="#000000" shadowOffset="0" shadowOpacity=".5" shadowRadius="3"/></g></svg>