<svg xmlns="http://www.w3.org/2000/svg" xmlns:xlink="http://www.w3.org/1999/xlink" width="100%" height="100%" shape-rendering="geometricPrecision" text-rendering="geometricPrecision" version="1.1" viewBox="0 0 769 769" xml:space="preserve"><defs><radialGradient id="RadialGradient_zxcv" cx="370.339" cy="321.817" r="307.637" gradientTransform="matrix(1 0 0 0.934757 9.4993 26.7517)" gradientUnits="userSpaceOnUse"><stop offset="0" stop-color="#fff" stop-opacity=".081"/><stop offset=".504" stop-color="#fff"/><stop offset="1" stop-color="#b3b3b3"/></radialGradient><radialGradient id="RadialGradient_zxcv_2" cx="374.927" cy="347.247" r="320.129" gradientTransform="matrix(0.946382 0 0 0.946382 32.4677 -14.4641)" gradientUnits="userSpaceOnUse"><stop offset=".228" stop-color="#195a1f"/><stop offset=".488" stop-color="#0f3a14"/><stop offset=".926" stop-color="#3a230f" stop-opacity="0"/></radialGradient><style id="blink">@keyframes eye_open_c_o{0%,23.333333%{opacity:1}16.666667%{opacity:1;animation-timing-function:step-end}20%{opacity:0;animation-timing-function:step-end}}@keyframes eye_closed_f_o{0%,23.333333%{fill-opacity:0}16.666667%{fill-opacity:0;animation-timing-function:step-end}20%{fill-opacity:1;animation-timing-function:step-end}}#prefix__eye_open{animation:eye_open_c_o 6000ms linear infinite normal forwards}#prefix__eye_closed{animation:eye_closed_f_o 6000ms linear infinite normal forwards}</style></defs><g id="prefix__eye" stroke="none" stroke-width="1"><g id="prefix__eye_open" opacity="1"><path id="Back-solid" fill="#000" stroke="none" d="M21.9293 382.965C27.6093 373.245 33.1693 363.405 39.0494 353.765C76.9694 291.765 127.61 242.885 191.09 207.525C230.77 185.405 273.09 170.445 317.97 163.125C365.437 155.395 411.382 155.453 455.739 163.316C505.95 172.217 554.126 191.118 600.17 220.045C663.611 259.885 711.891 314.085 746.291 380.605C747.331 382.645 747.331 386.165 746.291 388.165C697.411 481.205 624.53 547.925 526.25 585.645C466.65 608.525 404.69 616.645 341.13 608.605C201.69 591.005 98.7695 518.925 29.1293 397.805C26.8093 393.765 24.3293 389.765 21.9293 385.765C21.9293 385.765 21.9293 382.965 21.9293 382.965Z" opacity="1"/><path id="prefix__sclera" fill="url(#RadialGradient_zxcv)" stroke="none" d="M213.25 258.888C169.45 284.389 130.61 333.488 102.729 374.093C101.569 375.776 101.398 379.224 102.718 381.094C138.991 474.549 296.435 539.921 431.09 521.933C539.116 507.503 598.961 467.988 654.149 409.497C656.551 406.952 659.497 402.738 662.012 398.451C663.078 396.634 668.63 387.167 669.274 383.095C670.072 378.04 668.112 374.362 667.171 373.009C639.57 333.861 601.897 292.777 559.617 267.614C562.319 275.778 571.945 302.808 564.006 344.934C553.926 398.423 518.694 442.138 485.057 463.779C427.217 501.02 360.805 511.098 288.008 463.118C212.53 413.371 190.136 336.397 213.25 258.888Z" opacity="1"/><path id="prefix__iris_and_outline" fill="url(#RadialGradient_zxcv_2)" stroke="none" d="M385.469 219.406C373.55 219.647 347.24 221.537 335.375 223.578C294.499 230.611 247.245 238.718 212.718 268.25C207.458 291.549 203.403 295.25 204.424 325.304C208.285 438.954 326.948 496.901 384.503 495.94C476.818 494.399 559.48 419.83 566.557 325.304C567.498 312.728 566.765 289.59 559.892 267.764C508.446 235.231 447.623 218.147 385.469 219.406Z" opacity="1"/><path id="prefix__pupil" fill="#000" stroke="none" d="M374.233 213.899C273.672 223.293 267.527 306.52 267.527 323.63C267.527 384.516 320.338 433.897 385.465 433.897C450.593 433.897 503.404 384.516 503.404 323.63C503.404 311.668 492.609 213.224 391.044 213.093L374.233 213.899Z" opacity="1"/><path id="prefix__glint" fill="#efefef" stroke="none" d="M321.979 389.607C357.059 389.087 389.379 364.567 390.659 322.927C391.739 287.607 365.739 254.927 323.939 253.887C288.859 253.007 256.539 278.647 255.259 320.287C254.179 355.567 280.179 387.327 321.979 389.607Z" opacity="1"/></g><path id="prefix__eye_closed" fill="#1f1e1e" fill-opacity="1" stroke="none" d="M29.978 401.948C29.418 400.908 28.818 399.828 28.258 398.788C26.458 395.468 24.538 392.228 22.698 388.948C22.7642 388.529 20.9375 389.386 22.698 385.74C24.1273 382.781 21.0295 389.611 22.698 385.74C22.698 385.74 80.1381 380.86 103.498 383.86C102.906 384.406 102.694 385.927 103.418 388.308C104.283 391.15 106.191 394.904 106.47 395.344C163.004 484.502 292.859 542.629 431.859 524.709C524.419 512.749 584.453 479.38 645.653 420.02C645.653 420.02 655.003 410.378 661.781 400.227C666.196 393.613 669.11 384.969 669.042 384.871C688.962 381.431 723.819 387.42 747.059 383.38C748.838 386.553 744.622 402.292 738.117 412.859C731.745 423.209 724.851 432.901 724.198 433.693C663.678 505.853 599.059 540.949 496.699 567.189C434.659 583.109 372.179 587.189 310.219 578.389C175.738 559.229 83.6181 499.069 29.978 401.948Z" opacity="1"/></g></svg>