<svg xmlns="http://www.w3.org/2000/svg" xmlns:vectornator="http://vectornator.io" xmlns:xlink="http://www.w3.org/1999/xlink" style="fill-rule:nonzero;clip-rule:evenodd;stroke-linecap:round;stroke-linejoin:round" width="100%" height="100%" stroke-miterlimit="10" version="1.1" viewBox="17.293 0 65.414 100" xml:space="preserve"><g id="Layer"><g opacity="1"><path fill="#fff" fill-rule="nonzero" stroke="none" d="M50.2722 11.9896C50.1815 11.9896 50.1815 11.9896 50.0907 11.9896C50 11.9896 50 11.9896 49.9093 11.9896C35.0292 11.9896 26.2281 22.4238 25.8652 42.8386L25.8652 42.8386C23.0525 42.8386 20.6934 40.5703 20.6934 37.6669L20.6934 35.58C20.6934 24.057 26.591 13.3506 36.2994 7.09004L36.9345 6.72711C45.3726 1.28317 56.2605 1.46463 64.5172 7.09004L64.5172 7.09004C73.8626 13.3506 79.3973 23.8755 79.3973 35.1263L79.3973 37.7576C79.3973 40.5703 77.129 42.9293 74.2255 42.9293L74.2255 42.9293C73.9533 22.4238 65.1523 11.9896 50.2722 11.9896Z" opacity="1"/><path fill="#454b54" fill-rule="nonzero" stroke="none" d="M74.3163 45.5606C72.8646 45.5606 71.5943 44.3811 71.5943 42.9293C71.3221 30.0453 67.5113 14.8023 50.2722 14.8023L50.1815 14.8023L50 14.8023C48.5483 14.7116 47.278 13.532 47.3688 12.0803C47.4595 10.6286 48.5483 9.35835 50.0907 9.35835L50.2722 9.35835L50.4537 9.35835C65.6967 9.35835 75.1329 19.6111 76.9475 37.6669L76.9475 35.2171C76.9475 24.8736 71.8665 15.256 63.2469 9.44908C55.8069 4.4588 46.1892 4.36807 38.6585 9.17689L38.0233 9.53982C28.8594 15.1652 23.5061 24.9643 23.5061 35.58L23.5061 37.6669C23.5061 39.0278 24.5949 40.1166 25.9559 40.1166C27.4984 40.1166 28.6779 41.2961 28.6779 42.8386C28.6779 44.3811 27.4984 45.5606 25.9559 45.5606C21.6008 45.5606 18.0622 42.022 18.0622 37.6669L18.0622 35.58C18.0622 23.0589 24.3227 11.5359 34.8477 4.82173L35.4828 4.4588C44.919-1.62027 56.8957-1.4388 66.1504 4.731C76.2217 11.5359 82.21 22.8775 82.21 35.0356L82.21 37.6669C82.21 42.022 78.6714 45.5606 74.3163 45.5606Z" opacity="1"/><path fill="#f4d7cb" fill-rule="nonzero" stroke="none" d="M71.5036 87.4789L58.4381 81.4906L41.5619 81.4906L27.0447 88.1141C24.1413 89.475 21.7822 92.1063 20.6027 95.5541L20.0583 97.278L79.9417 97.278C78.49 92.8321 75.4051 89.2028 71.5036 87.4789" opacity="1"/><path fill="#c6b0a7" fill-rule="nonzero" stroke="none" d="M58.3474 81.4906L41.6526 81.4906L41.6526 83.5774C41.6526 84.5755 42.197 85.4828 43.0136 85.9365C45.917 87.4789 48.3668 87.7511 50 87.7511C51.8146 87.7511 54.2644 87.3882 56.9864 85.9365C57.8937 85.4828 58.3474 84.5755 58.3474 83.5774L58.3474 81.4906" opacity="1"/><path fill="#454b54" fill-rule="nonzero" stroke="none" d="M20.0583 100C19.7861 100 19.5139 99.9093 19.151 99.8185C17.6993 99.3649 16.9734 97.8224 17.4271 96.3707L17.9715 94.6468C19.3325 90.5638 22.2359 87.2975 25.8652 85.6643L40.3824 79.0408C41.7434 78.4057 43.3765 79.0408 44.0117 80.4018C44.6468 81.7628 44.0117 83.396 42.6507 84.0311L28.1335 90.6546C25.8652 91.6526 24.0505 93.8302 23.1432 96.4614L22.5988 98.1854C22.2359 99.2741 21.1471 100 20.0583 100ZM79.9417 100C78.7622 100 77.7641 99.2741 77.4012 98.1854C76.1309 94.4653 73.5904 91.4712 70.4148 90.0194L57.3493 84.1218C55.9883 83.4867 55.3532 81.8535 55.9883 80.4925C56.6235 79.1316 58.2566 78.4964 59.6176 79.1316L72.6831 85.0292C77.2197 87.116 80.849 91.2897 82.5729 96.4614C83.0266 97.9132 82.3007 99.4556 80.849 99.9093C80.5768 99.9093 80.2139 100 79.9417 100Z" opacity="1"/><path fill="#f4d7cb" fill-rule="nonzero" stroke="none" d="M74.0441 43.9274C74.0441 22.7867 65.1523 11.9896 50 11.9896C34.8477 11.9896 25.9559 22.7867 25.9559 43.9274C23.1432 44.1089 24.232 55.3597 27.7706 54.9967C34.8477 75.1393 43.3765 80.4925 50.0907 80.4925C56.8049 80.4925 65.3338 75.1393 72.4109 54.9967C75.768 55.3597 76.8568 44.1089 74.0441 43.9274Z" opacity="1"/><path fill="#70c7ad" fill-rule="nonzero" stroke="none" d="M50 75.9559C43.4673 75.9559 37.116 67.9715 31.9443 53.545L30.7647 50.0972L30.4925 48.1918L30.4925 44.0181L30.4925 43.9274C30.4925 40.0259 33.3052 36.6688 37.116 35.9429C40.6546 35.2171 45.2819 34.582 50 34.6727C54.8995 34.6727 59.4362 35.3078 62.884 36.0337C66.6948 36.7595 69.5075 40.1166 69.5075 44.0181L69.5075 44.1089L69.5075 48.2825L69.2353 50.0972L68.0557 53.545C62.884 67.9715 56.5327 75.9559 50 75.9559Z" opacity="1"/><path fill="#fff" fill-rule="nonzero" stroke="none" d="M74.0441 43.9274C74.0441 22.7867 65.1523 11.9896 50 11.9896C49.5463 11.9896 49.0927 11.9896 48.639 11.9896L48.5483 11.9896C34.394 12.7154 25.9559 17.615 25.9559 38.0298C25.593 38.0298 25.2301 44.1996 24.9579 44.5625C24.9579 44.5625 30.0389 28.8658 50.9073 29.4102C72.4109 30.1361 75.1329 44.0181 74.0441 43.9274Z" opacity="1"/><path fill="#454b54" fill-rule="nonzero" stroke="none" d="M74.0441 46.6494C73.9533 46.6494 73.8626 46.6494 73.8626 46.6494C72.3202 46.5586 71.2314 45.1976 71.3221 43.7459C71.3221 43.4737 71.4128 43.2923 71.4128 43.1108C70.8684 40.661 66.4226 32.7673 50.7259 32.3136C49.1834 32.3136 48.0039 31.0434 48.0946 29.5009C48.0946 27.9585 49.3649 26.8697 50.9073 26.8697C67.6928 27.3234 73.7719 35.58 75.5865 39.0278C76.4031 40.5703 77.5826 43.5645 76.4031 45.3791C75.9495 46.1957 75.0421 46.6494 74.0441 46.6494Z" opacity="1"/><path fill="#454b54" fill-rule="nonzero" stroke="none" d="M50 83.2145C37.8419 83.2145 30.1296 69.4232 25.593 57.265C24.8671 56.9021 24.1413 56.3577 23.5969 55.5411C21.51 52.7284 20.8749 46.7401 22.3266 43.7459C23.0525 42.2942 24.232 41.3869 25.6837 41.2054C27.2262 41.1147 28.4964 42.2035 28.5872 43.7459C28.6779 44.8347 28.0428 45.9235 27.1354 46.3772C26.7725 47.8289 27.2262 51.186 27.952 52.2748C28.9501 52.3655 29.8574 53.0914 30.2203 54.0894C35.6643 69.6047 42.4692 77.7706 49.9093 77.7706C57.3493 77.7706 64.1543 69.6047 69.5982 54.0894C69.9611 53.0914 70.8684 52.3655 71.8665 52.2748C72.5924 51.186 73.046 47.8289 72.6831 46.3772C71.7758 45.9235 71.2314 45.0162 71.2314 43.9274C71.3221 19.7926 59.7084 14.7116 50 14.7116C48.4575 14.7116 47.278 13.532 47.278 11.9896C47.278 10.4471 48.4575 9.26762 50 9.26762C66.604 9.26762 76.3124 21.335 76.7661 42.4757C77.129 42.8386 77.4012 43.2923 77.6734 43.7459C79.0344 46.7401 78.3992 52.7284 76.4031 55.5411C75.8587 56.3577 75.1329 56.9021 74.407 57.265C69.8704 69.4232 62.1581 83.2145 50 83.2145Z" opacity="1"/><path fill="#454b54" fill-rule="nonzero" stroke="none" d="M24.9579 47.3752C24.5042 47.3752 24.0505 47.2845 23.6876 47.0123C22.3266 46.2864 21.873 44.6532 22.5988 43.2923L23.5969 41.4776C24.3227 40.1166 25.9559 39.663 27.3169 40.3888C28.6779 41.1147 29.1316 42.7479 28.4057 44.1089L27.4076 45.9235C26.8632 46.8308 25.9559 47.3752 24.9579 47.3752Z" opacity="1"/><path fill="#f0d6bf" fill-rule="nonzero" stroke="none" d="M50 64.4329C47.2941 64.4329 45.1005 65.4078 45.1005 66.6105C45.1005 67.8131 47.2941 68.7881 50 68.7881C52.7059 68.7881 54.8995 67.8131 54.8995 66.6105C54.8995 65.4078 52.7059 64.4329 50 64.4329Z" opacity="1"/></g></g></svg>