<svg xmlns="http://www.w3.org/2000/svg" xmlns:xlink="http://www.w3.org/1999/xlink" width="100%" height="100%" version="1.1" viewBox="-1.026 -2.655 91.191 104.691" xml:space="preserve"><defs><filter id="Filter_zxcv" width="77.691" height="91.191" x="12.474" y="-2.655" color-interpolation-filters="sRGB" filterUnits="userSpaceOnUse"><feDropShadow dx="-.68" dy=".69" flood-color="#000" flood-opacity=".65" in="SourceGraphic" result="Shadow" stdDeviation="1.938"/></filter><filter id="Filter_zxcv_2" width="91.191" height="104.691" x="-1.026" y="-2.655" color-interpolation-filters="sRGB" filterUnits="userSpaceOnUse"><feDropShadow dx="-.68" dy=".69" flood-color="#000" flood-opacity=".65" in="SourceGraphic" result="Shadow" stdDeviation="1.938"/></filter><filter id="Filter_zxcv_3" width="42.691" height="33.691" x="25.474" y="32.845" color-interpolation-filters="sRGB" filterUnits="userSpaceOnUse"><feDropShadow dx="-.68" dy=".69" flood-color="#000" flood-opacity=".65" in="SourceGraphic" result="Shadow" stdDeviation="1.938"/></filter></defs><g id="zxcv"><g id="g-4" opacity="1"><path id="zxcv" fill="#07b9f8" stroke="#000" stroke-linecap="round" stroke-linejoin="round" stroke-width="5" d="M20.5 80.5L83.5 80.5L83.5 31L58.75 31L58.75 4L20.5 4L20.5 80.5Z" opacity="1"/><path id="zxcv" fill="none" stroke="#000" stroke-linecap="round" stroke-linejoin="round" stroke-width="5" d="M20.5 80.5L83.5 80.5L83.5 31L58.75 31L58.75 4L20.5 4L20.5 80.5Z" filter="url(#Filter_zxcv)" shadowAngle="2.349" shadowColor="#000000" shadowOffset=".969" shadowOpacity=".65" shadowRadius="3.876"/><path id="zxcv" fill="none" stroke="#000" stroke-linecap="round" stroke-linejoin="round" stroke-width="5" d="M58.75 4L83.5 31M7 40L7 94L54.25 94" filter="url(#Filter_zxcv_2)" shadowAngle="2.349" shadowColor="#000000" shadowOffset=".969" shadowOpacity=".65" shadowRadius="3.876"/><path id="zxcv" fill="none" stroke="#efefef" stroke-linecap="round" stroke-linejoin="miter" stroke-width="6" d="M34 40L43 40M34 58L61 58" filter="url(#Filter_zxcv_3)" shadowAngle="2.349" shadowColor="#000000" shadowOffset=".969" shadowOpacity=".65" shadowRadius="3.876"/></g></g></svg>