<svg xmlns="http://www.w3.org/2000/svg" width="100%" height="100%" viewBox="0 0 256 256"><defs><linearGradient id="a" x1="24" x2="24" y1="44.027" y2="13.827" gradientUnits="userSpaceOnUse"><stop offset="0" stop-color="#0035fc" stop-opacity=".529"/><stop offset=".12" stop-color="#1830fc" stop-opacity=".51"/><stop offset=".416" stop-color="#4e66fe" stop-opacity=".561"/><stop offset=".672" stop-color="#8276fe" stop-opacity=".549"/><stop offset=".875" stop-color="#2e00ff" stop-opacity=".039"/><stop offset="1" stop-color="#00ff3a" stop-opacity="0"/></linearGradient><linearGradient id="b" x1="16.92" x2="32.055" y1="-5.789" y2="21.906" gradientUnits="userSpaceOnUse"><stop offset="0" stop-color="#ff00b9" stop-opacity=".51"/><stop offset="1" stop-color="#f0a" stop-opacity=".49"/></linearGradient><linearGradient id="c" x1="23.658" x2="24.734" y1="-5.672" y2="34.633" gradientUnits="userSpaceOnUse"><stop offset="0" stop-color="#f5ebff" stop-opacity=".2"/><stop offset="1" stop-color="#ff0362" stop-opacity="0"/></linearGradient></defs><g fill="none" stroke-miterlimit="10"><path fill="#8311ef" fill-opacity=".569" d="M166.4 117.333v.587l-4.267 5.173-4.266 5.227-4.267 5.173-1.067 1.28c-2.026 2.454-5.066 3.894-8.213 3.894h-32.64c-3.147 0-6.187-1.44-8.213-3.894l-1.067-1.28-4.267-5.173-4.266-5.227-4.267-5.173v-.587c0-12.373 10.027-22.4 22.4-22.4h32c12.373 0 22.4 10.027 22.4 22.4z" opacity=".1"/><path fill="#8311ef" fill-opacity=".569" d="M162.133 117.333v5.76l-4.266 5.227-4.267 5.173-1.067 1.28c-2.026 2.454-5.066 3.894-8.213 3.894h-32.64c-3.147 0-6.187-1.44-8.213-3.894l-1.067-1.28-4.267-5.173-4.266-5.227v-5.76c0-10.026 8.106-18.133 18.133-18.133h32c10.027 0 18.133 8.107 18.133 18.133z" opacity=".2"/><path fill="#8311ef" fill-opacity=".569" d="M157.867 117.333v10.987l-4.267 5.173-1.067 1.28c-2.026 2.454-5.066 3.894-8.213 3.894h-32.64c-3.147 0-6.187-1.44-8.213-3.894l-1.067-1.28-4.267-5.173v-10.987c0-7.626 6.24-13.866 13.867-13.866h32c7.627 0 13.867 6.24 13.867 13.866z" opacity=".3"/><path fill="#8311ef" fill-opacity=".569" d="M153.6 117.333v16.16l-1.067 1.28c-2.026 2.454-5.066 3.894-8.213 3.894h-32.64c-3.147 0-6.187-1.44-8.213-3.894l-1.067-1.28v-16.16c0-5.28 4.32-9.6 9.6-9.6h32c5.28 0 9.6 4.32 9.6 9.6z" opacity=".4"/><path fill="url(#a)" d="M21 21h6a1 1 0 0 1 1 1v21a1 1 0 0 1-1.6.8l-6-4.5a1 1 0 0 1-.4-.8V22a1 1 0 0 1 1-1z" transform="scale(5.33333)"/><path fill="#8311ef" fill-opacity=".569" d="M149.333 117.333v31.36c-1.653.427-3.306.64-5.013.64h-32.64c-1.707 0-3.36-.213-5.013-.64v-31.36c0-2.933 2.4-5.333 5.333-5.333h32c2.933 0 5.333 2.4 5.333 5.333z" opacity=".05"/><path fill="#8311ef" fill-opacity=".569" d="M149.333 117.333v29.174c-1.6.48-3.306.693-5.013.693h-32.64c-1.707 0-3.413-.213-5.013-.693v-29.174c0-2.933 2.4-5.333 5.333-5.333h32c2.933 0 5.333 2.4 5.333 5.333z" opacity=".1"/><path fill="#8311ef" fill-opacity=".569" d="M149.333 117.333v26.987c-1.6.48-3.306.747-5.013.747h-32.64c-1.707 0-3.413-.267-5.013-.747v-26.987c0-2.933 2.4-5.333 5.333-5.333h32c2.933 0 5.333 2.4 5.333 5.333z" opacity=".2"/><path fill="#8311ef" fill-opacity=".569" d="M149.333 117.333v24.747c-1.6.533-3.306.853-5.013.853h-32.64c-1.707 0-3.413-.32-5.013-.853v-24.747c0-2.933 2.4-5.333 5.333-5.333h32c2.933 0 5.333 2.4 5.333 5.333z" opacity=".3"/><path fill="#8311ef" fill-opacity=".569" d="M149.333 117.333v22.4a12.254 12.254 0 0 1-5.013 1.067h-32.64c-1.76 0-3.467-.373-5.013-1.067v-22.4c0-2.933 2.4-5.333 5.333-5.333h32c2.933 0 5.333 2.4 5.333 5.333z" opacity=".4"/><path fill="url(#b)" d="M19.4 25.271 6.456 9.554A2 2 0 0 1 6 8.282V6a2 2 0 0 1 2-2h32a2 2 0 0 1 2 2v2.282c0 .464-.161.913-.456 1.271L28.6 25.271c-.38.462-.946.729-1.544.729h-6.112a1.998 1.998 0 0 1-1.544-.729z" transform="scale(5.33333)"/><path fill="url(#c)" d="M40 4.5c.827 0 1.5.673 1.5 1.5v2.282c0 .347-.121.686-.342.954L28.214 24.954a1.496 1.496 0 0 1-1.158.546h-6.112c-.45 0-.872-.199-1.158-.546L6.842 9.236a1.508 1.508 0 0 1-.342-.954V6c0-.827.673-1.5 1.5-1.5h32m0-.5H8a2 2 0 0 0-2 2v2.282c0 .464.161.913.456 1.271L19.4 25.271c.38.462.946.729 1.544.729h6.112c.598 0 1.164-.267 1.544-.729L41.544 9.554A2 2 0 0 0 42 8.282V6a2 2 0 0 0-2-2z" transform="scale(5.33333)"/></g></svg>