<svg fill="none" xmlns="http://www.w3.org/2000/svg" viewBox="0 0 512 512"><mask id="prefix__a" style="mask-type:luminance" maskUnits="userSpaceOnUse" x="77" y="0" width="359" height="512"><path d="M435.4 0H77v512h358.4V0z" fill="#fff"/></mask><g mask="url(#prefix__a)"><path d="M328.089 193.198c3.173.204 7.598 1.412 12.786 2.165l52.659 34.025-172.142 102.386a98.671 98.671 0 01-21.27 5.135c-2.802.312-6.616.633-11.133.669l-66.122-78.856 138.796-53.876c-.017.018-.045.036-.071.053 14.198-5.33 26.546-8.053 35.6-9.536 10.046-1.644 19.903-3.178 30.913-2.161l-.016-.004z" fill="#FFC400"/><path d="M324.918 62.335a107.203 107.203 0 00-4.036-13.787c-2.759-7.634-8.946-24.216-24.09-39.2A91.95 91.95 0 00285.728 0c-18.502 22.27-35.101 38.342-46.074 48.343-28.797 26.234-75.934 62.638-106.204 90.041-5.251 4.751-15.921 15.493-25.556 31.842-.017.027-.035.053-.053.089v-.026a163.027 163.027 0 00-6.099 11.537c-.33.669-.669 1.41-1.036 2.196a165 165 0 00-2.821 6.456c-3.777 9.188-8.403 20.688-9.92 35.993-1.331 13.35.258 23.931 1.107 28.52.312 1.679.67 3.312 1.053 4.929a91.426 91.426 0 005.349 16.09c10.376 24.064 27.466 37.994 30.35 40.28 18.225 14.403 36.646 18.51 42.521 19.636a96.007 96.007 0 0020.644 1.66.15.15 0 00-.018-.063h.071c-.035-.044-.071-.098-.106-.142a92.355 92.355 0 01-2.875-16.109c-2.046-23.215 5.33-41.101 9.107-50.003 2.858-6.724 9.867-22.511 24.806-36.869 6.964-6.697 14.5-12.098 21.975-17.001 8.107-5.322 15.197-9.465 19.242-12.269.134-.08-.134.08 0 0 .151-.098.402-.258.527-.356 14.197-10.501 42.074-34.19 56.62-72.354 1.714-4.474 3.044-8.867 3.044-8.867 4.564-14.242 9.055-36.252 3.519-61.236l.017.018z" fill="url(#prefix__paint0_linear_9_19)"/><path d="M188.928 337.618a95.903 95.903 0 01-20.644-1.66c-5.876-1.124-24.297-5.232-42.521-19.636-3.643-2.884-29.949-24.322-36.762-61.299-.848-4.589-2.437-15.17-1.107-28.52 1.527-15.304 6.143-26.796 9.92-35.993a164.356 164.356 0 019.956-20.197 63.81 63.81 0 006.313 12.876c7.144 11.17 15.903 17.117 22.699 21.581 2.955 1.938 16.76 10.796 37.654 15.448 14.152 3.152 25.332 2.991 29.118 2.866a112.995 112.995 0 0037.28-7.59c8.839-3.428 15.974-7.643 20.706-10.598-4.054 2.812-11.537 7.205-19.644 12.518-7.474 4.902-15.01 10.304-21.974 17.001-14.94 14.359-21.949 30.145-24.806 36.869-3.786 8.894-11.153 26.787-9.108 50.003a92.346 92.346 0 002.929 16.305l-.009.026z" fill="#FF9100"/><path d="M413.368 330.295c6.322-12.652 9.09-26.001 9.09-26.001.704-3.402 1.714-8.42 2.16-14.662.403-5.59.144-14.688-1.196-21.975-4.268-23.126-21.965-41.859-23.787-43.743 0 0-11.948-12.386-29.547-20.877-2.58-1.242-7.028-3.403-13.233-5.287-6.108-1.856-11.09-2.597-16.028-3.312a152.143 152.143 0 00-12.822-1.313 25.49 25.49 0 013.018.518c2.884.679 4.911 1.705 6.491 2.473 1.474.724 3.705 1.849 6.162 3.938.999.858 2.241 1.92 3.472 3.599 1.01 1.393 2.331 3.581 3.037 6.473 2.125 8.778-3.232 16.957-5.179 19.931-13.805 21.081-88.471 65.031-132.724 110.65-11.268 11.616-19.269 22.011-25.242 35.547-13.484 30.556-8.662 58.852-7.403 65.371 8.17 42.378 38.949 65.325 46.066 70.362 21.698-24.252 40.895-42.762 55.067-55.683 35.876-32.698 82.63-68.843 82.63-68.843s35.905-29.02 49.958-57.156l.01-.01z" fill="url(#prefix__paint1_linear_9_19)"/></g><defs><linearGradient id="prefix__paint0_linear_9_19" x1="117.021" y1="298.512" x2="290.408" y2="6.857" gradientUnits="userSpaceOnUse"><stop stop-color="#F8682F"/><stop offset="1" stop-color="#DD2C00"/></linearGradient><linearGradient id="prefix__paint1_linear_9_19" x1="279.282" y1="217.176" x2="259.455" y2="565.113" gradientUnits="userSpaceOnUse"><stop stop-color="#F8682F"/><stop offset=".567" stop-color="#E92A4E"/><stop offset="1" stop-color="#C447FF"/></linearGradient></defs></svg>