<svg height="100%" stroke-miterlimit="10" style="fill-rule:nonzero;clip-rule:evenodd;stroke-linecap:round;stroke-linejoin:round;" version="1.1" viewBox="0 0 100 100" width="100%" xml:space="preserve" xmlns="http://www.w3.org/2000/svg" xmlns:vectornator="http://vectornator.io" xmlns:xlink="http://www.w3.org/1999/xlink">
<defs>
<filter color-interpolation-filters="sRGB" filterUnits="userSpaceOnUse" height="64.59" id="Filter" width="102.239" x="-1.89024" y="11.5127">
<feDropShadow dx="-0.770573" dy="0.838087" flood-color="#000000" flood-opacity="0.45" in="SourceGraphic" result="Shadow" stdDeviation="1.04787"/>
</filter>
</defs>
<path d="M38.6069 49.0743L29.6034 27.6251L20.3669 49.0743L38.6069 49.0743ZM61.6571 71.3977L37.4206 71.3977L37.4206 66.7177L38.9909 66.6388C40.1435 66.7186 41.2959 66.4814 42.3234 65.9531C42.6319 65.7569 42.8193 65.417 42.8206 65.0514C42.6288 63.3791 42.1425 61.7541 41.384 60.2514L38.6 53.6308L20.2469 53.6308L17.0857 60.9988C16.4475 62.2368 16.0419 63.5813 15.8891 64.9657C15.8891 65.0891 15.8891 65.3737 16.4171 65.792C17.6869 66.4087 19.0902 66.6998 20.5006 66.6388L22.0366 66.752L22.0366 71.3943L2 71.3943L2 66.9028L3.37143 66.6628C4.58581 66.5829 5.7625 66.2087 6.8 65.5726C8.58499 63.4889 9.9579 61.0852 10.8457 58.4891L29.96 13.7943L33.5429 13.7943L52.4411 58.9623C53.2015 61.2814 54.4251 63.4218 56.0377 65.2537C57.2104 66.146 58.6441 66.6279 60.1177 66.6251L61.6743 66.7177L61.6571 71.3977ZM83.7406 62.0308L83.7406 48.368C81.1387 49.3386 78.591 50.4488 76.1086 51.6937C74.3893 52.5566 72.8797 53.7854 71.6857 55.2937C70.8167 56.4891 70.3508 57.9301 70.3554 59.408C70.2969 61.1229 70.8996 62.7947 72.0389 64.0777C72.993 65.2391 74.4102 65.9214 75.9131 65.9428C78.869 65.4952 81.6082 64.1262 83.7406 62.0308ZM72.3131 72.1417C69.5438 72.2136 66.8755 71.0997 64.9794 69.08C63.0354 66.945 62.0095 64.1309 62.1234 61.2457C62.0819 59.3457 62.5749 57.4723 63.5463 55.8388C65.1064 53.5072 67.215 51.5941 69.6869 50.2674C73.6631 48.1131 77.811 46.292 82.088 44.8228L82.088 44.5691C82.356 42.3868 81.8943 40.177 80.7749 38.2846C79.8257 37.2767 78.4688 36.7566 77.0891 36.872C76.0768 36.7996 75.0753 37.1187 74.2914 37.7634C73.7084 38.1968 73.358 38.8749 73.3417 39.6011L73.4206 41.816C73.5008 43.2679 73.0084 44.6934 72.0491 45.7863C71.0875 46.7358 69.787 47.2628 68.4356 47.2506C67.0842 47.2383 65.7935 46.6879 64.8491 45.7211C63.9255 44.6419 63.4464 43.2522 63.5086 41.8331C63.6255 38.8504 65.1233 36.0918 67.5611 34.3691C70.6519 32.0897 74.441 30.9596 78.2754 31.1737C81.2446 31.0715 84.1945 31.6878 86.8743 32.9703C88.7638 33.9669 90.2378 35.6025 91.0331 37.5851C91.7486 40.0316 92.0317 42.5842 91.8697 45.128L91.8697 57.2994C91.8086 59.3 91.867 61.3024 92.0446 63.296C92.0699 63.5329 92.1323 63.7643 92.2297 63.9817C92.5211 63.7143 93.2034 63.2103 95.192 61.2183L98 58.3794L98 65.1234L97.6571 65.5623C94.3726 69.9611 91.2011 72.1006 87.9543 72.1006C86.3035 72.1451 84.7205 71.4436 83.6446 70.1908C83.0439 69.4519 82.6237 68.5833 82.4171 67.6537C80.8829 68.9149 79.2386 70.036 77.504 71.0034C75.8776 71.7575 74.1058 72.146 72.3131 72.1417Z" fill="#ffffff" fill-rule="nonzero" filter="url(#Filter)" stroke="#efefef" stroke-linecap="butt" stroke-linejoin="miter" stroke-width="1" shadowAngle="2.31425" shadowColor="#000000" shadowOffset="1.1385" shadowOpacity="0.45" shadowRadius="2.09574"/>
</svg>