<svg width="100%" height="100%" viewBox="0 0 100 100" xml:space="preserve" xmlns="http://www.w3.org/2000/svg" xmlns:vectornator="http://vectornator.io" xmlns:xlink="http://www.w3.org/1999/xlink">
<defs>
<linearGradient gradientTransform="matrix(0.454575 1.20701e-17 3.04071e-17 0.438971 -8.76456 87.255)" gradientUnits="userSpaceOnUse" id="LinearGradient_lowercaseTypography" x1="234.71" x2="211.455" y1="-75.9195" y2="-86.3626"><stop offset="0" stop-color="#ffea00"/><stop offset="1" stop-color="#d7c502"/></linearGradient>
<linearGradient gradientTransform="matrix(0.454575 1.20701e-17 3.04071e-17 0.438971 -8.76456 87.255)" gradientUnits="userSpaceOnUse" id="LinearGradient_lowercaseTypography_2" x1="239.996" x2="216.344" y1="-111.503" y2="-136.815"><stop offset="0" stop-color="#ffea00"/><stop offset="1" stop-color="#d7c502"/></linearGradient>
<linearGradient gradientTransform="matrix(0.454575 1.20701e-17 3.04071e-17 0.438971 -8.76456 87.255)" gradientUnits="userSpaceOnUse" id="LinearGradient_lowercaseTypography_3" x1="227.377" x2="206.996" y1="-40.5994" y2="-51.6734"><stop offset="0" stop-color="#ffea00"/><stop offset="1" stop-color="#d7c502"/></linearGradient>
<linearGradient gradientTransform="matrix(0.496969 0 0 0.496969 -7.08836 -12.436)" gradientUnits="userSpaceOnUse" id="LinearGradient_lowercaseTypography_4" x1="7.16923" x2="151.628" y1="99.7247" y2="94.7488"><stop offset="0.000568159" stop-color="#00ffb6"/><stop offset="1" stop-color="#00f4ff"/></linearGradient>
<linearGradient gradientTransform="matrix(0.496969 0 0 0.496969 -7.69127 -9.58533)" gradientUnits="userSpaceOnUse" id="LinearGradient_lowercaseTypography_5" x1="21.1151" x2="194.518" y1="169.927" y2="157.297"><stop offset="0" stop-color="#ffffff"/><stop offset="0" stop-color="#ffffff"/><stop offset="0.503947" stop-color="#f2f2f2"/><stop offset="1" stop-color="#cccccc"/></linearGradient>
<linearGradient gradientTransform="matrix(0.496969 0 0 0.496969 -7.69127 -9.58533)" gradientUnits="userSpaceOnUse" id="LinearGradient_lowercaseTypography_6" x1="195.245" x2="215.113" y1="186.245" y2="186.245"><stop offset="0.703947" stop-color="#ffffff"/><stop offset="0.863158" stop-color="#e8e5e5"/><stop offset="1" stop-color="#dddbdb"/></linearGradient>
<linearGradient gradientTransform="matrix(0.496969 0 0 0.496969 -7.69127 -9.58533)" gradientUnits="userSpaceOnUse" id="LinearGradient_lowercaseTypography_7" x1="9.69333" x2="183.096" y1="180.916" y2="168.287"><stop offset="0" stop-color="#ffffff"/><stop offset="0" stop-color="#ffffff"/><stop offset="0.503947" stop-color="#f2f2f2"/><stop offset="1" stop-color="#cccccc"/></linearGradient>
<linearGradient gradientTransform="matrix(0.496969 0 0 0.496969 -7.69127 -9.58533)" gradientUnits="userSpaceOnUse" id="LinearGradient_lowercaseTypography_8" x1="155.239" x2="196.724" y1="117.109" y2="117.109"><stop offset="0" stop-color="#ffffff"/><stop offset="0" stop-color="#ffffff"/><stop offset="0.503947" stop-color="#f2f2f2"/><stop offset="1" stop-color="#cccccc"/></linearGradient>
<linearGradient gradientTransform="matrix(0.496969 0 0 0.496969 -11.2915 -12.2426)" gradientUnits="userSpaceOnUse" id="LinearGradient_lowercaseTypography_9" x1="92.0167" x2="52.8725" y1="102.923" y2="103.247"><stop offset="0" stop-color="#ff00aa"/><stop offset="0.143421" stop-color="#ff00aa"/><stop offset="0.752632" stop-color="#ff0279"/></linearGradient>
<linearGradient gradientTransform="matrix(0.496969 0 0 0.496969 -11.2915 -12.2426)" gradientUnits="userSpaceOnUse" id="LinearGradient_lowercaseTypography_10" x1="199.657" x2="151.047" y1="114.421" y2="113.813"><stop offset="0" stop-color="#ff00aa"/><stop offset="0.143421" stop-color="#ff00aa"/><stop offset="0.752632" stop-color="#ff0279"/></linearGradient>
<radialGradient cx="110.148" cy="-73.5676" gradientTransform="matrix(0.436982 1.19354e-17 2.92303e-17 0.43407 -12.396 84.84)" gradientUnits="userSpaceOnUse" id="RadialGradient_lowercaseTypography" r="96.8788"><stop offset="0" stop-color="#ffea00"/><stop offset="1" stop-color="#d7c502"/></radialGradient>
</defs>
<g id="play-audio_TextLowercaseLetter.Aa.pink" opacity="1">
<g opacity="1" id="g1">
	<path d="M90.0474 61.5595C88.8687 61.4839 87.9685 60.5072 88.0215 59.3669L88.0215 59.3669C88.0744 58.2266 89.0828 57.3385 90.2614 57.4141L90.2614 57.4141C91.4624 57.4699 92.3626 58.4467 92.3087 59.6076L92.3087 59.6076C92.2342 60.747 91.2269 61.6143 90.0474 61.5595L90.0474 61.5595L90.0474 61.5595ZM90.5828 53.2737C89.4071 53.136 88.5751 52.0793 88.7353 50.944L88.7353 50.944C88.8952 49.8087 89.9641 49.0065 91.1388 49.165L91.1388 49.165C92.3144 49.3028 93.1465 50.3594 92.9862 51.4947L92.9862 51.4947C92.8507 52.5689 91.8692 53.3335 90.7755 53.2827L90.7755 53.2827C90.7115 53.2797 90.6471 53.2767 90.5828 53.2737ZM91.9789 44.9658C90.8548 44.6434 90.1988 43.491 90.5287 42.4052L90.5287 42.4052C90.8383 41.2976 92.0496 40.6683 93.1737 40.9906L93.1737 40.9906C94.3193 41.3139 94.9748 42.4663 94.6439 43.5729L94.6439 43.5729L94.6439 43.5729L94.6439 43.5729C94.3646 44.4949 93.4555 45.0967 92.4905 45.0518L92.4905 45.0518C92.3188 45.0438 92.1486 45.0152 91.9789 44.9658Z" fill="url(#LinearGradient_lowercaseTypography)"/>
	<path d="M95.8991 28.589C93.5304 28.479 91.5237 30.2462 91.4174 32.5361C91.3109 34.8261 93.1451 36.7716 95.5137 36.8817C97.8825 36.9918 99.8891 35.2246 99.9956 32.9346C100.102 30.6447 98.2679 28.6991 95.8991 28.589Z" fill="url(#LinearGradient_lowercaseTypography_2)"/>
	<path d="M94.0721 65.375L90.6257 70.1591L86.7014 65.7586" fill="url(#LinearGradient_lowercaseTypography_3)"/></g>
<g opacity="1" id="g2">
	<path d="M65.0496 16.2718C62.1016 13.2753 58.2093 11.5081 53.4802 10.9507C53.0299 10.7706 50.805 10.739 50.165 10.739C42.171 10.739 16.0869 14.2489 16.0869 59.4217C16.0869 75.5285 26.3007 87.1371 40.4282 88.631C44.3696 89.0479 56.1682 88.9204 64.3389 77.9424C68.6828 72.1061 72.0013 63.2033 72.5687 49.6851C73.6174 24.7054 66.8666 18.1174 65.0496 16.2718ZM44.0964 83.3542C44.0964 83.3542 40.4283 83.1006 37.994 77.952C35.6323 72.9564 35.5599 65.2607 35.5599 56.9876C35.5599 33.3623 43.6374 19.8909 51.318 16.9345C57.3665 14.6063 60.2693 18.2554 61.5808 19.6869C64.0629 22.396 68.9576 34.0873 66.3333 52.6153C66.0927 54.3141 65.7889 56.0702 65.4142 57.8823C65.1863 58.9844 64.9383 60.0389 64.6723 61.0477C58.7849 83.3774 44.0964 83.3542 44.0964 83.3542Z" fill="url(#LinearGradient_lowercaseTypography_4)" opacity="0.432161"/>
	<path d="M36.225 88.8245C40.7098 89.0493 54.7064 90.8894 64.3389 77.9424C72.2112 67.3615 72.5154 51.4575 72.5687 49.6851C73.123 31.2579 71.1021 24.9416 67.3985 19.154C61.3442 9.69275 50.991 10.7288 45.9618 10.9324C46.9457 10.8607 55.0849 10.6875 60.8465 16.4652C66.8445 22.48 68.9373 33.3529 68.3656 49.8785C68.0579 58.7752 66.1357 66.0059 64.1366 70.9319C56.4255 89.933 40.1925 88.4204 36.225 88.8245Z" fill="url(#LinearGradient_lowercaseTypography_5)"/>
	<path d="M89.3394 89.6129C92.9073 89.135 96.1752 87.4291 97.7359 84.8507C98.3174 83.8902 99.8249 80.0531 98.9423 77.7856C98.0156 75.4049 94.6571 76.6661 94.6443 76.6661C96.6321 76.761 97.042 78.7625 97.0785 79.0883C97.1195 79.4547 98.4365 86.8576 89.3394 89.6129Z" fill="url(#LinearGradient_lowercaseTypography_6)" opacity="1"/>
	<path d="M52.3002 16.5606C47.4663 17.8133 35.3195 27.8726 35.5599 57.1809C35.6505 68.2252 36.2189 74.3025 37.994 77.952C39.7521 81.5664 41.7193 82.4044 42.7934 83.0147C42.5885 83.0975 35.9828 85.8229 32.9754 76.1995C30.5948 68.5817 30.5807 57.8569 30.553 54.89C30.2703 24.6354 44.3576 14.2888 52.3002 16.5606Z" fill="url(#LinearGradient_lowercaseTypography_7)"/>
	<path d="M69.4576 13.51C69.9234 13.1146 81.4677 18.5607 84.7905 21.5443C88.7877 25.1337 86.891 26.7429 85.9168 30.3113C81.9647 44.7866 82.3433 55.8719 82.3433 55.8719C81.4755 81.9951 86.0199 83.2723 87.3419 83.9561C88.7621 84.6908 90.0742 83.7353 90.0742 83.7353C90.0742 83.7353 89.4273 84.3813 87.9767 81.8109C86.9095 79.9197 85.6154 74.454 85.3732 72.4549C84.5098 65.3305 84.2809 53.3426 85.4625 43.7C86.5442 34.8742 88.9997 28.1085 89.2385 26.856C89.4372 25.8135 89.8348 25.4383 89.1574 24.0219C87.0158 19.5443 80.2003 15.3205 76.1852 13.9044C73.0291 12.7913 72.4149 12.5179 69.4576 13.51Z" fill="url(#LinearGradient_lowercaseTypography_8)" />
	<path d="M60.8465 16.4652C57.8985 13.4687 54.0062 11.7016 49.277 11.1442C48.8268 10.9641 46.6019 10.9324 45.9618 10.9324C37.968 10.9324 11.8837 14.4424 11.8837 59.6151C11.8837 75.7218 22.0975 87.3305 36.225 88.8245C42.2618 89.4628 66.7307 88.8245 68.3656 49.8785C69.4143 24.8987 62.6635 18.3109 60.8465 16.4652ZM33.7909 78.1454C31.9816 74.4722 31.2384 65.4533 31.3568 57.1809C31.6972 33.3967 39.4343 20.0842 47.1149 17.1279C53.1634 14.7997 56.0661 18.4488 57.3776 19.8802C60.0873 22.8378 65.6724 36.5002 61.211 58.0757C60.9832 59.1778 60.7352 60.2324 60.4692 61.2411C57.1289 73.9099 48.7966 81.0095 42.7934 83.0147C40.071 83.924 37.9886 83.087 36.4755 81.7752C35.1743 80.647 34.2943 79.1674 33.7909 78.1454Z" fill="url(#LinearGradient_lowercaseTypography_9)" />
	<path d="M63.0003 52.3127C63.0003 35.1714 67.7399 16.0173 67.9417 15.2092C68.2657 13.9045 69.5896 13.1012 70.8922 13.4371C71.2951 13.5385 81.0774 18.4376 84.7905 21.5443C88.4928 24.6421 87.4537 25.5932 87.2152 26.3064C84.9902 32.9832 83.3304 39.9888 82.4687 52.4782C82.0412 58.4716 82.5725 81.5728 87.3419 83.9561C90.8201 85.6942 92.2028 79.5086 92.2102 79.071C92.232 77.742 93.3154 76.6661 94.6443 76.6661C94.6514 76.6661 94.6563 76.6661 94.6638 76.6661C96 76.6761 97.0785 77.752 97.0785 79.0883C97.0785 81.3384 97.0268 85.305 92.5729 88.2111C90.6388 89.4729 83.4038 92.2228 75.8514 87.1256C61.9747 77.76 63.0003 57.2228 63.0003 52.3127Z" fill="url(#LinearGradient_lowercaseTypography_10)" /></g>
<g opacity="1" id="g3">
	<path d="M37.1564 11.7665L34.7143 0.291551L41.7131 4.75132L37.1564 11.7665ZM29.1777 4.72649C28.7683 4.80622 28.3867 4.98977 28.0869 5.28744C27.7017 5.69138 27.4775 6.25251 27.4775 6.80529C27.4775 7.35809 27.7017 7.88617 28.0869 8.29015C28.4936 8.67281 29.0382 8.91704 29.5947 8.91704C29.8728 8.91715 30.1719 8.85844 30.4287 8.75211C30.6855 8.64578 30.9204 8.48148 31.1344 8.29015C31.5197 7.88617 31.7439 7.35808 31.7439 6.80529C31.7439 6.25251 31.5197 5.69138 31.1344 5.28744C30.9204 5.09606 30.6855 4.93179 30.4287 4.82548C30.0328 4.65539 29.587 4.64676 29.1777 4.72649ZM21.6937 8.24891C21.1532 8.1771 20.5927 8.31648 20.1218 8.67792C19.1801 9.37946 19.0306 10.7121 19.7368 11.6475C20.165 12.2004 20.795 12.4725 21.437 12.4725C21.8865 12.4725 22.3349 12.3411 22.7201 12.0435C22.7201 12.0223 22.7201 12.0105 22.7201 12.0105C23.6619 11.309 23.8434 9.97625 23.1371 9.04083C22.7733 8.58373 22.2341 8.32071 21.6937 8.24891ZM13.8666 14.6173C13.3235 14.6705 12.7976 14.9191 12.4231 15.3762C11.6526 16.2692 11.7915 17.6018 12.7118 18.3459C13.0971 18.6862 13.5882 18.8409 14.0591 18.8409C14.6798 18.8408 15.2991 18.5922 15.7272 18.082C16.4762 17.189 16.3267 15.8446 15.4064 15.0792C14.9569 14.7072 14.4097 14.5641 13.8666 14.6173ZM7.90013 23.1965C7.37312 23.3479 6.90597 23.7092 6.61701 24.2194C6.06054 25.2399 6.43439 26.5161 7.48316 27.0901C7.80415 27.2602 8.16722 27.354 8.50966 27.354C9.25869 27.354 9.99551 26.955 10.4022 26.2322C10.9587 25.2116 10.5635 23.9473 9.53605 23.3944C9.02239 23.1074 8.42713 23.045 7.90013 23.1965ZM6.10376 31.7096C4.99083 31.327 3.78379 31.924 3.37713 33.0295C2.99189 34.1351 3.54725 35.3526 4.6603 35.7353C4.89568 35.8203 5.14122 35.8322 5.39804 35.8343C6.2756 35.8343 7.09792 35.32 7.41891 34.4484C7.80415 33.3429 7.21679 32.1136 6.10376 31.7096ZM3.63376 40.1568C2.47798 39.9016 1.33504 40.6586 1.0996 41.8067C0.864149 42.9548 1.59047 44.0805 2.76765 44.3145C2.89608 44.357 3.06691 44.3804 3.21674 44.3804C4.22268 44.3804 5.08774 43.6639 5.30186 42.6646C5.53724 41.5165 4.81099 40.3904 3.63376 40.1568ZM2.35064 48.6701C1.17345 48.5637 0.115968 49.4145 0.00894546 50.5838C-0.0980769 51.7532 0.767104 52.7873 1.9657 52.8937C2.0299 52.8937 2.09393 52.8937 2.15817 52.8937C3.2497 52.8937 4.1683 52.0519 4.27532 50.9468C4.38233 49.7774 3.52782 48.7764 2.35064 48.6701ZM2.09401 57.1173C0.916829 57.1811 0.0089044 58.1703 0.0731014 59.3611C0.115886 60.4878 1.05589 61.3738 2.19025 61.3738C2.23303 61.3738 2.24366 61.3738 2.28648 61.3738C3.46363 61.31 4.37163 60.3207 4.30739 59.13C4.26461 57.9606 3.27116 57.0534 2.09401 57.1173ZM2.86389 65.6634C1.70811 65.897 0.971049 67.0231 1.22791 68.1712C1.44194 69.1704 2.307 69.887 3.31298 69.887C3.4414 69.887 3.58015 69.8422 3.72999 69.821C4.88572 69.5658 5.63352 68.4613 5.39804 67.3133C5.14122 66.1652 4.01966 65.4082 2.86389 65.6634ZM4.98098 74.2756C3.88945 74.7223 3.34466 75.9417 3.79415 77.0474C4.11519 77.8764 4.94823 78.3673 5.78298 78.3673C6.06126 78.3673 6.32805 78.3412 6.58498 78.2353C7.67645 77.7885 8.22132 76.5478 7.77181 75.4635C7.32242 74.3791 6.07266 73.8506 4.98098 74.2756ZM11.0438 81.4688C10.5033 81.3812 9.95353 81.4918 9.4719 81.8319C8.50884 82.5337 8.28445 83.8444 8.99078 84.8016C9.39748 85.3755 10.0595 85.6947 10.723 85.6924C11.151 85.6924 11.5887 85.573 11.974 85.2965C12.9371 84.6164 13.1401 83.2835 12.4552 82.3269C12.102 81.8484 11.5842 81.5566 11.0438 81.4688ZM16.7857 86.9134C16.2427 87.0011 15.7488 87.293 15.4064 87.7713C14.7215 88.7279 14.9244 90.0396 15.8875 90.741C16.2749 91.0176 16.7105 91.137 17.1386 91.137C17.8021 91.137 18.4641 90.8203 18.8708 90.2461C19.5771 89.2894 19.3527 87.9569 18.3896 87.2763C17.908 86.9363 17.3288 86.8256 16.7857 86.9134ZM36.6948 91.1952C34.3307 91.1952 32.3963 93.1034 32.3963 95.4518C32.3963 97.8001 34.3307 99.7084 36.6948 99.7084C39.0589 99.7084 40.9612 97.8001 40.9612 95.4518C40.9612 93.1034 39.0589 91.1952 36.6948 91.1952ZM26.1204 91.17C25.711 91.0876 25.2975 91.1425 24.9015 91.302C24.6446 91.4083 24.3777 91.573 24.1636 91.7639C23.7785 92.1681 23.5542 92.7075 23.5542 93.2818C23.5542 93.8344 23.7785 94.3838 24.1636 94.7666C24.3777 94.9789 24.6446 95.1223 24.9015 95.2286C25.1583 95.3349 25.4252 95.3936 25.7033 95.3936C26.2599 95.3935 26.8044 95.1703 27.2111 94.7666C27.5963 94.3838 27.8526 93.8344 27.8526 93.2818C27.8526 92.7075 27.5963 92.1681 27.2111 91.7639C26.9114 91.4663 26.5298 91.2524 26.1204 91.17Z" fill="url(#RadialGradient_lowercaseTypography)" /></g></g></svg>