<svg xmlns="http://www.w3.org/2000/svg" xmlns:xlink="http://www.w3.org/1999/xlink" width="100%" height="100%" version="1.1" viewBox="0 0 100 100" xml:space="preserve"><defs><linearGradient id="LinearGradient_UnderlinedLetterU" x1="21.963" x2="22.052" y1="86.291" y2="98.082" gradientTransform="matrix(1 0 0 1 0 0)" gradientUnits="userSpaceOnUse"><stop offset="0" stop-color="#ff0"/><stop offset="1" stop-color="#a48a02"/></linearGradient><filter id="Filter_UnderlinedLetterU" width="100.472" height="15.179" x="-.236" y="84.581" color-interpolation-filters="sRGB" filterUnits="userSpaceOnUse"><feDropShadow dx="0" dy="1" flood-color="#000" flood-opacity=".65" in="SourceGraphic" result="Shadow" stdDeviation="1"/></filter><linearGradient id="LinearGradient_UnderlinedLetterU_2" x1="66.977" x2="66.906" y1="100.202" y2="95.746" gradientTransform="matrix(1 0 0 1 7.77156e-16 0)" gradientUnits="userSpaceOnUse"><stop offset="0" stop-color="#ff0"/><stop offset="1" stop-color="#a48a02"/></linearGradient><filter id="Filter_UnderlinedLetterU_2" width="81.688" height="7" x="9.156" y="94.75" color-interpolation-filters="sRGB" filterUnits="userSpaceOnUse"><feDropShadow dx="0" dy="1" flood-color="#000" flood-opacity=".65" in="SourceGraphic" result="Shadow" stdDeviation="1"/></filter><linearGradient id="LinearGradient_UnderlinedLetterU_3" x1="14.541" x2="81.472" y1="3.651" y2="67.454" gradientTransform="matrix(1 0 0 1 0 0)" gradientUnits="userSpaceOnUse"><stop offset="0" stop-color="#e600b8"/><stop offset=".187" stop-color="#f400c3"/><stop offset=".854" stop-color="#ff0279"/></linearGradient><filter id="Filter_UnderlinedLetterU_3" width="78.268" height="87.426" x="10.161" y="-.004" color-interpolation-filters="sRGB" filterUnits="userSpaceOnUse"><feDropShadow dx="-.705" dy=".709" flood-color="#000" flood-opacity=".65" in="SourceGraphic" result="Shadow" stdDeviation="1"/></filter><linearGradient id="LinearGradient_UnderlinedLetterU_4" x1="17.557" x2="79.939" y1="-1.488" y2="42.287" gradientTransform="matrix(1.21097 0 0 1.21097 -16.255 -0.378973)" gradientUnits="userSpaceOnUse"><stop offset="0" stop-color="#e600b8"/><stop offset=".187" stop-color="#f400c3"/><stop offset=".854" stop-color="#ff0279"/></linearGradient><linearGradient id="LinearGradient_UnderlinedLetterU_5" x1="17.557" x2="79.939" y1="-1.488" y2="42.287" gradientTransform="matrix(1.21097 0 0 1.21097 -4.84203 -0.378973)" gradientUnits="userSpaceOnUse"><stop offset="0" stop-color="#e600b8"/><stop offset=".187" stop-color="#f400c3"/><stop offset=".854" stop-color="#ff0279"/></linearGradient></defs><g id="underlinedLetterU" opacity="1"><path id="zxcv-1" fill="url(#LinearGradient_UnderlinedLetterU)" stroke="none" d="M2.2641 96.2576L46.297 96.26L97.7359 96.2576L97.7359 86.0811L2.2641 86.0811L2.2641 96.2576Z" filter="url(#Filter_UnderlinedLetterU)" shadowAngle="1.571" shadowColor="#000000" shadowOffset="1" shadowOpacity=".65" shadowRadius="2"/><path fill="url(#LinearGradient_UnderlinedLetterU_2)" stroke="none" d="M12.6563 96.25C12.104 96.25 11.6563 96.6977 11.6563 97.25C11.6563 97.8023 12.104 98.25 12.6563 98.25L87.3438 98.25C87.896 98.25 88.3438 97.8023 88.3438 97.25C88.3438 96.6977 87.896 96.25 87.3438 96.25L12.6563 96.25Z" filter="url(#Filter_UnderlinedLetterU_2)" shadowAngle="1.571" shadowColor="#000000" shadowOffset="1" shadowOpacity=".65" shadowRadius="2"/><path id="zxcv" fill="url(#LinearGradient_UnderlinedLetterU_3)" stroke="none" d="M86.634 1.7868L68.317 1.7868L68.317 55.9226C68.317 65.4841 61.3474 74.0381 51.8317 74.9631C40.9102 76.0301 31.683 67.444 31.683 56.7377L31.683 1.7868L13.366 1.7868L13.366 47.5792C13.366 66.6747 28.9767 84.2132 50 84.2132C71.0233 84.2132 86.634 66.6747 86.634 47.5792L86.634 1.7868Z" filter="url(#Filter_UnderlinedLetterU_3)" shadowAngle="2.354" shadowColor="#000000" shadowOffset="1" shadowOpacity=".65" shadowRadius="2"/><path fill="url(#LinearGradient_UnderlinedLetterU_4)" stroke="none" d="M66.4694 0.604941C65.8131 0.604941 65.2963 1.1218 65.2963 1.77807C65.2963 2.43434 65.8131 2.98904 66.4694 2.98904L88.6453 2.98904C89.3016 2.98904 89.8563 2.43434 89.8563 1.77807C89.8563 1.1218 89.3016 0.604941 88.6453 0.604941L66.4694 0.604941Z" opacity="1"/><path fill="url(#LinearGradient_UnderlinedLetterU_5)" stroke="none" d="M11.3547 0.604941C10.6984 0.604941 10.1437 1.1218 10.1437 1.77807C10.1437 2.43434 10.6984 2.98904 11.3547 2.98904L33.5306 2.98904C34.1869 2.98904 34.7037 2.43434 34.7037 1.77807C34.7037 1.1218 34.1869 0.604941 33.5306 0.604941L11.3547 0.604941Z" opacity="1"/></g></svg>