<svg xmlns="http://www.w3.org/2000/svg" xmlns:vectornator="http://vectornator.io" xmlns:xlink="http://www.w3.org/1999/xlink" height="100%" stroke-miterlimit="10" style="fill-rule:nonzero;clip-rule:evenodd;stroke-linecap:round;stroke-linejoin:round" width="100%" version="1.1" viewBox="7.019 8.251 235.962 239.734" xml:space="preserve"><defs><linearGradient id="LinearGradient" x1="119.586" x2="21" y1="115.548" y2="118.167" gradientTransform="matrix(0.887952 7.335e-33 0 0.819196 22.8426 2.79505)" gradientUnits="userSpaceOnUse"><stop offset="0" stop-color="#a100bd"/><stop offset="1" stop-color="#710084"/></linearGradient><filter id="Filter" width="195.472" height="199.984" x="35.039" y="8.251" color-interpolation-filters="sRGB" filterUnits="userSpaceOnUse"><feDropShadow dx="-1.062" dy="3.048" flood-color="#000" flood-opacity=".75" in="SourceGraphic" result="Shadow" stdDeviation="3.106"/></filter><linearGradient id="LinearGradient_2" x1="73.157" x2="23.124" y1="227.19" y2="227.422" gradientTransform="matrix(1.15234 0 0 -0.640492 -19.042 363.784)" gradientUnits="userSpaceOnUse"><stop offset="0" stop-color="#ff9800"/><stop offset="1" stop-color="#9b5c02"/></linearGradient><filter id="Filter_2" width="235.962" height="46.27" x="7.019" y="201.715" color-interpolation-filters="sRGB" filterUnits="userSpaceOnUse"><feDropShadow dx="0" dy="5.253" flood-color="#000" flood-opacity=".7" in="SourceGraphic" result="Shadow" stdDeviation="4.727"/></filter></defs><clipPath id="ArtboardFrame"><rect width="235.962" height="239.734" x="7.019" y="8.251"/></clipPath><g id="Layer" clip-path="url(#ArtboardFrame)" layerName="Layer"><g layerName="Group 6" opacity="1"><path fill="url(#LinearGradient)" fill-rule="nonzero" stroke="none" d="M107.885 12.9662C78.0138 12.9662 52.0918 31.638 44.8441 58.3702L43.8694 61.9671L61.4889 70.0418L63.5034 65.4027C70.826 48.5065 84.9317 40.6347 107.885 40.6347L119.306 40.6347L110.889 72.9146L93.8489 72.9146L88.8505 100.583L104.571 100.583L92.5293 144.124C89.1955 158.728 74.64 174.366 58.2899 174.366L43.8644 174.366L43.8644 197.423L58.2899 197.423C88.8356 197.423 115.582 177.405 121.88 149.828L135.216 100.583L178.823 100.583L183.821 72.9146L141.534 72.9146L149.952 40.6347L218.81 40.6347L223.809 12.9662L107.885 12.9662Z" filter="url(#Filter)" layerName="path 6" shadowAngle="1.906" shadowColor="#000000" shadowOffset="3.228" shadowOpacity=".75" shadowRadius="6.211"/><path fill="url(#LinearGradient_2)" fill-rule="nonzero" stroke="none" d="M18.8378 230.913L231.162 230.913L231.162 208.281L18.8378 208.281L18.8378 230.913Z" filter="url(#Filter_2)" layerName="path 8" shadowAngle="1.571" shadowColor="#000000" shadowOffset="5.253" shadowOpacity=".7" shadowRadius="9.455"/></g></g></svg>