<svg xmlns="http://www.w3.org/2000/svg" xmlns:vectornator="http://vectornator.io" xmlns:xlink="http://www.w3.org/1999/xlink" width="100%" height="100%" viewBox="0 0 100 100" xml:space="preserve"><defs><linearGradient id="LinearGradient" x1="58.121" x2="108.558" y1="57.015" y2="56.968" gradientTransform="matrix(1.0101 0 0 1.0101 -0.505051 -0.505051)" gradientUnits="userSpaceOnUse"><stop offset="0" stop-color="#cc00b9"/><stop offset=".67" stop-color="#a60095"/><stop offset="1" stop-color="#800073"/></linearGradient><filter id="Filter" width="46.835" height="52.16" x="57.137" y="33.528" color-interpolation-filters="sRGB" filterUnits="userSpaceOnUse"><feDropShadow dx="-.755" dy=".569" flood-color="#000" flood-opacity=".65" in="SourceGraphic" result="Shadow" stdDeviation="1.891"/></filter><linearGradient id="LinearGradient_2" x1="13.399" x2="72.725" y1="55.717" y2="56.259" gradientTransform="matrix(1.0101 0 0 1.0101 -0.505051 -0.505051)" gradientUnits="userSpaceOnUse"><stop offset="0" stop-color="#cc00b9"/><stop offset=".67" stop-color="#a60095"/><stop offset="1" stop-color="#800073"/></linearGradient><filter id="Filter_2" width="71.615" height="69.458" x="-5.482" y="15.451" color-interpolation-filters="sRGB" filterUnits="userSpaceOnUse"><feDropShadow dx="-.755" dy=".569" flood-color="#000" flood-opacity=".65" in="SourceGraphic" result="Shadow" stdDeviation="1.891"/></filter></defs><g layerName="Group 6" opacity="1"><path fill="url(#LinearGradient)" d="M85.1465 69.8555L85.1465 55.6233C82.4362 56.6344 79.7822 57.7908 77.1965 59.0876C75.4055 59.9865 73.833 61.2664 72.5893 62.8376C71.684 64.0828 71.1988 65.5838 71.2035 67.1233C71.1426 68.9096 71.7704 70.6511 72.9572 71.9876C73.951 73.1974 75.4273 73.9081 76.9928 73.9304C80.0719 73.4641 82.9253 72.0382 85.1465 69.8555ZM73.2428 80.3876C70.3582 80.4625 67.5787 79.3021 65.6035 77.1983C63.5786 74.9744 62.5099 72.0429 62.6286 69.0376C62.5854 67.0584 63.0989 65.107 64.1107 63.4055C65.7359 60.9767 67.9322 58.9838 70.5072 57.6018C74.6491 55.3578 78.9698 53.4608 83.4249 51.9304L83.4249 51.6662C83.7041 49.3928 83.2232 47.091 82.0572 45.1197C81.0685 44.0699 79.6549 43.5281 78.2179 43.6483C77.1633 43.5729 76.1201 43.9054 75.3035 44.5769C74.6963 45.0283 74.3312 45.7347 74.3142 46.4911L74.3965 48.7983C74.48 50.3107 73.9671 51.7956 72.9679 52.934C71.9662 53.9231 70.6114 54.472 69.2037 54.4593C67.7961 54.4466 66.4515 53.8732 65.4679 52.8662C64.5058 51.742 64.0067 50.2944 64.0714 48.8162C64.1932 45.7091 65.7534 42.8356 68.2928 41.0411C71.5124 38.6668 75.4594 37.4896 79.4535 37.7126C82.5465 37.6061 85.6192 38.2481 88.4107 39.584C90.379 40.6221 91.9143 42.3259 92.7428 44.3911C93.4881 46.9396 93.783 49.5985 93.6142 52.2483L93.6142 64.9269C93.5506 67.0108 93.6114 69.0967 93.7965 71.1733C93.8227 71.42 93.8879 71.6611 93.9893 71.8876C94.2928 71.609 95.0035 71.084 97.0749 69.009L100 66.0518L100 73.0769L99.6428 73.534C96.2214 78.1162 92.9179 80.3448 89.5358 80.3448C87.8162 80.3911 86.1672 79.6604 85.0465 78.3555C84.4208 77.5858 83.983 76.6809 83.7679 75.7126C82.1697 77.0264 80.4569 78.1941 78.65 79.2018C76.9559 79.9874 75.1102 80.392 73.2428 80.3876Z" filter="url(#Filter)" layerName="path 3" shadowAngle="2.496" shadowColor="#000000" shadowOffset=".945" shadowOpacity=".65" shadowRadius="3.782"/><path fill="url(#LinearGradient_2)" d="M38.1321 56.359L28.7535 34.0162L19.1321 56.359L38.1321 56.359ZM62.1428 79.6126L36.8965 79.6126L36.8965 74.7376L38.5321 74.6555C39.7328 74.7385 40.9332 74.4914 42.0035 73.9411C42.3249 73.7368 42.5201 73.3827 42.5214 73.0018C42.3217 71.2599 41.8151 69.5671 41.0249 68.0018L38.1249 61.1055L19.0072 61.1055L15.7142 68.7804C15.0494 70.0699 14.627 71.4705 14.4679 72.9126C14.4679 73.0411 14.4679 73.3376 15.0179 73.7733C16.3405 74.4158 17.8023 74.7189 19.2714 74.6555L20.8714 74.7733L20.8714 79.609L8.88178e-16 79.609L8.88178e-16 74.9304L1.42858 74.6804C2.69355 74.5972 3.91927 74.2074 5 73.5448C6.85936 71.3743 8.28948 68.8704 9.21428 66.1662L29.1249 19.609L32.8572 19.609L52.5428 66.659C53.3349 69.0748 54.6095 71.3044 56.2893 73.2126C57.5109 74.1421 59.0042 74.644 60.5393 74.6411L62.1607 74.7376L62.1428 79.6126Z" filter="url(#Filter_2)" layerName="path 1" shadowAngle="2.496" shadowColor="#000000" shadowOffset=".945" shadowOpacity=".65" shadowRadius="3.782"/></g></svg>