<svg xmlns="http://www.w3.org/2000/svg" xmlns:vectornator="http://vectornator.io" xmlns:xlink="http://www.w3.org/1999/xlink" width="100%" height="100%" viewBox="0 0 100 100" xml:space="preserve"><defs><linearGradient id="LinearGradient" x1="58.121" x2="108.558" y1="57.015" y2="56.968" gradientTransform="matrix(1 0 0 1 1.77636e-15 -1.77636e-15)" gradientUnits="userSpaceOnUse"><stop offset="0" stop-color="#cc00b9"/><stop offset=".67" stop-color="#a60095"/><stop offset="1" stop-color="#800073"/></linearGradient><filter id="Filter" width="47.91" height="53.181" x="56.287" y="32.926" color-interpolation-filters="sRGB" filterUnits="userSpaceOnUse"><feDropShadow dx="-.755" dy=".569" flood-color="#000" flood-opacity=".65" in="SourceGraphic" result="Shadow" stdDeviation="1.891"/></filter><linearGradient id="LinearGradient_2" x1="16.445" x2="71.798" y1="53.547" y2="54.715" gradientTransform="matrix(1 0 0 1 1.77636e-15 -1.77636e-15)" gradientUnits="userSpaceOnUse"><stop offset="0" stop-color="#cc00b9"/><stop offset=".67" stop-color="#a60095"/><stop offset="1" stop-color="#800073"/></linearGradient><filter id="Filter_2" width="72.442" height="70.307" x="-5.707" y="15.03" color-interpolation-filters="sRGB" filterUnits="userSpaceOnUse"><feDropShadow dx="-.755" dy=".569" flood-color="#000" flood-opacity=".65" in="SourceGraphic" result="Shadow" stdDeviation="1.891"/></filter></defs><g layerName="Group 9" opacity="1"><path fill="url(#LinearGradient)" stroke="#0c0c0c" stroke-linecap="square" stroke-linejoin="round" stroke-width="1.449" d="M84.795 69.6569L84.795 55.5671C82.1118 56.568 79.4844 57.7129 76.9245 58.9967C75.1514 59.8866 73.5947 61.1537 72.3634 62.7092C71.4672 63.942 70.9868 65.428 70.9915 66.9521C70.9312 68.7205 71.5527 70.4446 72.7276 71.7677C73.7115 72.9654 75.173 73.669 76.7229 73.6911C79.7712 73.2295 82.596 71.8178 84.795 69.6569ZM73.0104 80.0837C70.1546 80.1579 67.4029 79.0091 65.4475 76.9263C63.4428 74.7246 62.3848 71.8225 62.5023 68.8472C62.4595 66.8878 62.9679 64.9559 63.9696 63.2714C65.5785 60.8669 67.7529 58.894 70.3021 57.5258C74.4026 55.3042 78.6801 53.4262 83.0907 51.9111L83.0907 51.6495C83.3671 49.3989 82.891 47.1201 81.7366 45.1685C80.7578 44.1292 79.3584 43.5928 77.9357 43.7118C76.8917 43.6372 75.8589 43.9663 75.0505 44.6311C74.4493 45.078 74.0879 45.7773 74.0711 46.5262L74.1525 48.8103C74.2352 50.3076 73.7274 51.7776 72.7382 52.9047C71.7465 53.8839 70.4053 54.4273 69.0117 54.4147C67.6181 54.4021 66.287 53.8345 65.3132 52.8375C64.3607 51.7246 63.8666 50.2914 63.9307 48.828C64.0513 45.752 65.5959 42.9072 68.1099 41.1307C71.2973 38.7801 75.2048 37.6147 79.159 37.8355C82.221 37.73 85.263 38.3656 88.0266 39.6882C89.9752 40.7159 91.4952 42.4026 92.3154 44.4472C93.0532 46.9702 93.3452 49.6025 93.1781 52.2258L93.1781 64.7776C93.1151 66.8407 93.1753 68.9057 93.3585 70.9616C93.3845 71.2058 93.449 71.4445 93.5494 71.6687C93.8499 71.3929 94.5535 70.8732 96.6042 68.8189L99.5 65.8913L99.5 72.8461L99.1464 73.2987C95.7592 77.835 92.4887 80.0413 89.1404 80.0413C87.438 80.0872 85.8055 79.3638 84.696 78.0719C84.0766 77.3099 83.6432 76.4141 83.4302 75.4555C81.848 76.7561 80.1523 77.9122 78.3635 78.9098C76.6863 79.6875 74.8591 80.0881 73.0104 80.0837Z" filter="url(#Filter)" layerName="path 3" shadowAngle="2.496" shadowColor="#000000" shadowOffset=".945" shadowOpacity=".65" shadowRadius="3.782"/><path fill="url(#LinearGradient_2)" stroke="#0c0c0c" stroke-linecap="square" stroke-linejoin="round" stroke-width="1.449" d="M38.2508 56.2954L28.966 34.176L19.4408 56.2954L38.2508 56.2954ZM62.0214 79.3165L37.0275 79.3165L37.0275 74.4902L38.6468 74.4089C39.8355 74.4911 41.0239 74.2465 42.0835 73.7017C42.4017 73.4994 42.5949 73.1489 42.5962 72.7718C42.3985 71.0473 41.8969 69.3714 41.1147 67.8218L38.2437 60.9944L19.3171 60.9944L16.0571 68.5926C15.3989 69.8692 14.9807 71.2558 14.8232 72.6835C14.8232 72.8107 14.8232 73.1042 15.3677 73.5356C16.6771 74.1716 18.1243 74.4717 19.5787 74.4089L21.1627 74.5256L21.1627 79.3129L0.5 79.3129L0.5 74.6811L1.91429 74.4336C3.16661 74.3512 4.38008 73.9653 5.45 73.3093C7.29077 71.1605 8.70659 68.6817 9.62214 66.0045L29.3337 19.9129L33.0286 19.9129L52.5174 66.4924C53.3016 68.884 54.5634 71.0913 56.2264 72.9805C57.4358 73.9007 58.9142 74.3976 60.4339 74.3947L62.0391 74.4902L62.0214 79.3165Z" filter="url(#Filter_2)" layerName="path 1" shadowAngle="2.496" shadowColor="#000000" shadowOffset=".945" shadowOpacity=".65" shadowRadius="3.782"/></g></svg>