<svg xmlns="http://www.w3.org/2000/svg" xmlns:xlink="http://www.w3.org/1999/xlink" width="100%" height="100%" stroke-miterlimit="10" version="1.1" viewBox="0 0 100 100" xml:space="preserve" style="fill-rule:nonzero;clip-rule:evenodd;stroke-linecap:round;stroke-linejoin:round"><defs><radialGradient id="RG" cx="0" cy="0" r="1" gradientTransform="matrix(4.00564 70.5623 -70.5623 4.00564 50.5873 53.5051)" gradientUnits="userSpaceOnUse"><stop offset=".253" stop-color="#000001"/><stop offset=".833" stop-color="#3949ab" stop-opacity="0"/></radialGradient><radialGradient id="RG_2" cx="0" cy="0" r="1" gradientTransform="matrix(18.4995 51.6139 -51.6139 18.4995 50 50)" gradientUnits="userSpaceOnUse"><stop offset=".253" stop-color="#000001"/><stop offset=".833" stop-color="#3949ab" stop-opacity="0"/></radialGradient><radialGradient id="RG_3" cx="0" cy="0" r="1" gradientTransform="matrix(29.7805 34.8345 -34.8345 29.7805 63.1615 51.6852)" gradientUnits="userSpaceOnUse"><stop offset=".253" stop-color="#000001"/><stop offset=".833" stop-color="#3949ab" stop-opacity="0"/></radialGradient><radialGradient id="RG_4" cx="0" cy="0" r="1" gradientTransform="matrix(28.0487 37.9072 -37.9072 28.0487 41.1625 48.9636)" gradientUnits="userSpaceOnUse"><stop offset=".253" stop-color="#000001"/><stop offset=".833" stop-color="#3949ab" stop-opacity="0"/></radialGradient></defs><g id="Layer"><g opacity="1"><path fill="#3949ab" fill-rule="nonzero" stroke="none" d="M88.8154 87.76L85.5319 87.76C85.0628 87.76 84.8283 87.76 84.3592 87.76L77.0887 86.8218C71.4599 86.1182 65.5965 86.3528 59.9677 87.76L51.5245 89.8708C50.3518 90.1053 48.9446 90.1053 47.7719 89.8708L39.5632 87.5254C33.9344 86.1182 28.3056 85.8837 22.4422 86.5873L15.1717 87.5254C14.7026 87.5254 14.4681 87.5254 13.999 87.5254L10.9501 87.5254C6.49393 87.5254 2.97592 84.0074 2.97592 79.5513L2.97592 79.5513C2.97592 78.6132 3.21046 77.4405 3.44499 76.5023L3.91406 75.0951C6.2594 69.2318 6.49393 62.6648 4.8522 56.567L3.44499 51.8763C2.97592 50.2345 2.97592 48.8273 3.44499 47.1856L4.14859 45.3093C6.2594 38.9769 6.02487 31.9409 3.67953 25.6085L3.44499 24.9049C3.21046 24.4358 2.97592 23.4977 2.97592 22.5595L2.97592 20.2142C2.97592 15.758 6.49393 12.24 10.9501 12.24L14.2336 12.24C14.7026 12.24 14.9372 12.24 15.4062 12.24L22.6768 13.1782C28.3056 13.8818 34.169 13.6472 39.7978 12.24L48.241 10.1292C49.4137 9.89468 50.8209 9.89468 51.9935 10.1292L60.2022 12.4746C65.831 13.8818 71.4599 14.1163 77.3232 13.4127L84.5938 12.4746C85.0628 12.4746 85.2974 12.4746 85.7664 12.4746L89.0499 12.4746C93.5061 12.4746 97.0241 15.9926 97.0241 20.4487L97.0241 22.7941C97.0241 23.7322 96.7895 24.9049 96.555 25.843L96.3205 26.5466C93.7406 32.879 93.5061 39.6805 95.8514 46.2475L96.555 48.1237C97.0241 49.5309 97.0241 51.1727 96.555 52.8144L95.1478 57.5051C93.5061 63.603 93.7406 70.1699 96.0859 76.0333L96.555 77.4405C97.0241 78.3786 97.0241 79.3168 97.0241 80.4894L97.0241 80.4894C96.7895 84.242 93.2715 87.76 88.8154 87.76Z" opacity="0"/><path fill="#bee2ff" fill-rule="nonzero" stroke="none" d="M82.7175 78.1441L17.048 78.1441C15.6408 78.1441 14.7026 77.2059 14.7026 75.7987L14.7026 24.2013C14.7026 22.7941 15.6408 21.8559 17.048 21.8559L82.7175 21.8559C84.1247 21.8559 85.0628 22.7941 85.0628 24.2013L85.0628 75.7987C85.0628 77.2059 84.1247 78.1441 82.7175 78.1441Z" opacity=".54"/><g opacity="1"><path fill="#3949ab" fill-rule="nonzero" stroke="none" d="M48.25 10.125L39.8125 12.25C34.1837 13.6572 28.3163 13.8911 22.6875 13.1875L15.4063 12.25C14.9372 12.25 14.6878 12.25 14.2188 12.25L10.9375 12.25C6.48135 12.25 2.96875 15.7626 2.96875 20.2188L2.96875 22.5625C2.96875 23.5006 3.20297 24.4372 3.4375 24.9063L3.6875 25.5938C6.03284 31.9262 6.26706 38.9801 4.15625 45.3125L3.4375 47.1875C2.96843 48.8292 2.96843 50.2333 3.4375 51.875L4.84375 56.5625C6.48549 62.6604 6.25159 69.2304 3.90625 75.0938L3.4375 76.5C3.20297 77.4381 2.96875 78.6244 2.96875 79.5625C2.96875 84.0186 6.48135 87.5312 10.9375 87.5312L14 87.5312C14.4691 87.5313 14.6872 87.5312 15.1563 87.5312L22.4375 86.5938C28.3009 85.8901 33.9337 86.124 39.5625 87.5312L47.7813 89.875C48.9539 90.1095 50.3586 90.1095 51.5313 89.875L59.9688 87.75C65.5976 86.3428 71.4649 86.1089 77.0938 86.8125L84.3438 87.75C84.8128 87.75 85.0622 87.75 85.5312 87.75L88.8125 87.75C93.2686 87.75 96.7967 84.2525 97.0312 80.5C97.0313 79.3273 97.0316 78.3756 96.5625 77.4375L96.0938 76.0312C93.7484 70.1679 93.5145 63.5979 95.1562 57.5L96.5625 52.8125C97.0316 51.1708 97.0316 49.5322 96.5625 48.125L95.8437 46.25C93.4984 39.683 93.7326 32.8637 96.3125 26.5313L96.5625 25.8438C96.797 24.9056 97.0312 23.7194 97.0312 22.7813L97.0312 20.4375C97.0312 15.9814 93.5186 12.4688 89.0625 12.4688L85.7812 12.4688C85.3122 12.4688 85.0628 12.4688 84.5938 12.4688L77.3125 13.4063C71.4491 14.1099 65.8163 13.876 60.1875 12.4688L52 10.125C50.8273 9.89047 49.4227 9.89047 48.25 10.125ZM17.0625 21.8438L82.7188 21.8438C84.126 21.8438 85.0625 22.7803 85.0625 24.1875L85.0625 75.8125C85.0625 77.2197 84.126 78.1562 82.7188 78.1562L17.0625 78.1562C15.6553 78.1562 14.6875 77.2197 14.6875 75.8125L14.6875 24.1875C14.6875 22.7803 15.6553 21.8438 17.0625 21.8438Z" opacity="1"/><path fill="#000" fill-rule="nonzero" stroke="none" d="M48.2937 11.1198L40.0667 13.1918C34.5783 14.5639 28.8573 14.792 23.3689 14.1059L16.2693 13.1918C15.8119 13.1918 15.5688 13.1918 15.1114 13.1918L11.9121 13.1918C7.56708 13.1918 4.14211 16.6168 4.14211 20.9617L4.14211 23.247C4.14211 24.1618 4.37048 25.0749 4.59916 25.5323L4.84293 26.2026C7.12975 32.3771 7.35813 39.255 5.29998 45.4294L4.59916 47.2577C4.1418 48.8584 4.1418 50.2274 4.59916 51.8282L5.97033 56.3988C7.57111 62.3445 7.34305 68.7506 5.05622 74.4677L4.59916 75.8389C4.37048 76.7536 4.14211 77.9102 4.14211 78.825C4.14211 83.1699 7.56708 86.5949 11.9121 86.5949L14.8981 86.5949C15.3555 86.5949 15.5682 86.5949 16.0255 86.5949L23.1251 85.6808C28.8422 84.9947 34.3345 85.2228 39.8229 86.5949L47.8366 88.8802C48.98 89.1088 50.3496 89.1089 51.493 88.8802L59.72 86.8082C65.2084 85.4361 70.9294 85.208 76.4178 85.8941L83.4869 86.8082C83.9443 86.8082 84.1874 86.8082 84.6448 86.8082L87.8442 86.8082C92.1892 86.8082 95.6292 83.398 95.8579 79.7391C95.8579 78.5957 95.8582 77.6677 95.4008 76.753L94.9438 75.3818C92.6569 69.6647 92.4289 63.2586 94.0297 57.3129L95.4008 52.7423C95.8582 51.1415 95.8582 49.5439 95.4008 48.1718L94.7 46.3436C92.4132 39.9404 92.6416 33.2912 95.1571 27.1168L95.4008 26.4464C95.6295 25.5317 95.8579 24.375 95.8579 23.4603L95.8579 21.175C95.8579 16.8301 92.4329 13.4051 88.0879 13.4051L84.8886 13.4051C84.4312 13.4051 84.1881 13.4051 83.7307 13.4051L76.6311 14.3192C70.914 15.0053 65.4217 14.7772 59.9333 13.4051L51.9501 11.1198C50.8067 10.8911 49.4371 10.8911 48.2937 11.1198ZM17.8842 22.5462L81.9025 22.5462C83.2746 22.5462 84.1877 23.4594 84.1877 24.8315L84.1877 75.1685C84.1877 76.5406 83.2746 77.4538 81.9025 77.4538L17.8842 77.4538C16.5121 77.4538 15.5685 76.5406 15.5685 75.1685L15.5685 24.8315C15.5685 23.4594 16.5121 22.5462 17.8842 22.5462Z" opacity=".05"/><path fill="#000" fill-rule="nonzero" stroke="none" d="M48.3466 12.3257L40.3747 14.3334C35.0566 15.6629 29.513 15.8839 24.1949 15.2192L17.3155 14.3334C16.8723 14.3334 16.6367 14.3334 16.1935 14.3334L13.0933 14.3334C8.88312 14.3334 5.56438 17.6521 5.56438 21.8624L5.56438 24.0768C5.56438 24.9631 5.78567 25.848 6.00726 26.2912L6.24346 26.9407C8.45936 32.9237 8.68065 39.5883 6.68634 45.5712L6.00726 47.3427C5.56408 48.8939 5.56408 50.2204 6.00726 51.7715L7.3359 56.2003C8.88703 61.9617 8.66604 68.1691 6.45014 73.7088L6.00726 75.0375C5.78567 75.9238 5.56438 77.0446 5.56438 77.931C5.56438 82.1412 8.88312 85.4599 13.0933 85.4599L15.9868 85.4599C16.43 85.4599 16.6361 85.4599 17.0793 85.4599L23.9587 84.5742C29.4984 83.9094 34.8204 84.1304 40.1385 85.4599L47.9037 87.6743C49.0117 87.8959 50.3388 87.8959 51.4467 87.6743L59.4186 85.6666C64.7367 84.3371 70.2803 84.1161 75.5985 84.7808L82.4483 85.6666C82.8915 85.6666 83.1271 85.6666 83.5703 85.6666L86.6705 85.6666C90.8807 85.6666 94.214 82.3622 94.4356 78.8167C94.4356 77.7088 94.4359 76.8096 93.9927 75.9232L93.5499 74.5946C91.3339 69.0548 91.113 62.8474 92.6641 57.0861L93.9927 52.6573C94.4359 51.1061 94.4359 49.558 93.9927 48.2285L93.3137 46.457C91.0977 40.2524 91.319 33.8094 93.7565 27.8265L93.9927 27.1769C94.2143 26.2906 94.4356 25.1698 94.4356 24.2834L94.4356 22.069C94.4356 17.8588 91.1169 14.5401 86.9067 14.5401L83.8065 14.5401C83.3633 14.5401 83.1277 14.5401 82.6845 14.5401L75.8051 15.4258C70.2654 16.0906 64.9434 15.8696 59.6253 14.5401L51.8896 12.3257C50.7817 12.1041 49.4545 12.1041 48.3466 12.3257ZM18.8803 23.3977L80.913 23.3977C82.2426 23.3977 83.1274 24.2825 83.1274 25.6121L83.1274 74.3879C83.1274 75.7175 82.2426 76.6023 80.913 76.6023L18.8803 76.6023C17.5508 76.6023 16.6364 75.7175 16.6364 74.3879L16.6364 25.6121C16.6364 24.2825 17.5508 23.3977 18.8803 23.3977Z" opacity=".1"/><path fill="#000" fill-rule="nonzero" stroke="none" d="M48.4072 13.7063L40.7275 15.6405C35.6042 16.9213 30.2638 17.1342 25.1406 16.4938L18.5133 15.6405C18.0863 15.6405 17.8594 15.6405 17.4324 15.6405L14.4459 15.6405C10.3899 15.6405 7.19282 18.8376 7.19282 22.8935L7.19282 25.0268C7.19282 25.8807 7.406 26.7331 7.61947 27.16L7.84702 27.7858C9.98172 33.5495 10.1949 39.9698 8.27367 45.7335L7.61947 47.4401C7.19253 48.9344 7.19253 50.2123 7.61947 51.7066L8.89942 55.9731C10.3937 61.5233 10.1808 67.5032 8.04612 72.84L7.61947 74.1199C7.406 74.9738 7.19282 76.0535 7.19282 76.9074C7.19283 80.9633 10.3899 84.1604 14.4459 84.1604L17.2333 84.1604C17.6603 84.1604 17.8588 84.1604 18.2857 84.1604L24.913 83.3071C30.2497 82.6667 35.3767 82.8796 40.4999 84.1604L47.9805 86.2937C49.0479 86.5071 50.3264 86.5071 51.3937 86.2937L59.0734 84.3595C64.1967 83.0787 69.5371 82.8658 74.6603 83.5062L81.2592 84.3595C81.6861 84.3595 81.9131 84.3595 82.34 84.3595L85.3266 84.3595C89.3825 84.3595 92.5937 81.1762 92.8072 77.7607C92.8072 76.6933 92.8075 75.8271 92.3805 74.9732L91.9539 73.6933C89.8192 68.3565 89.6063 62.3766 91.1006 56.8264L92.3805 52.5599C92.8075 51.0656 92.8075 49.5742 92.3805 48.2934L91.7263 46.5868C89.5916 40.6097 89.8048 34.4028 92.153 28.6391L92.3805 28.0133C92.594 27.1594 92.8072 26.0798 92.8072 25.2259L92.8072 23.0926C92.8072 19.0367 89.6101 15.8396 85.5541 15.8396L82.5676 15.8396C82.1406 15.8396 81.9137 15.8396 81.4867 15.8396L74.8594 16.6929C69.5227 17.3333 64.3958 17.1204 59.2725 15.8396L51.8204 13.7063C50.753 13.4929 49.4745 13.4929 48.4072 13.7063ZM20.0208 24.3726L79.7801 24.3726C81.061 24.3726 81.9134 25.225 81.9134 26.5058L81.9134 73.4942C81.9134 74.775 81.061 75.6274 79.7801 75.6274L20.0208 75.6274C18.7399 75.6274 17.8591 74.775 17.8591 73.4942L17.8591 26.5058C17.8591 25.225 18.7399 24.3726 20.0208 24.3726Z" opacity=".15"/><path fill="#000" fill-rule="nonzero" stroke="none" d="M48.4681 15.0955L41.0824 16.9556C36.1552 18.1874 31.0192 18.3922 26.0921 17.7763L19.7185 16.9556C19.3079 16.9556 19.0896 16.9556 18.679 16.9556L15.8067 16.9556C11.9061 16.9556 8.83132 20.0304 8.83132 23.9311L8.83132 25.9827C8.83132 26.8039 9.03634 27.6237 9.24164 28.0343L9.46048 28.6361C11.5135 34.1791 11.7185 40.3537 9.87079 45.8968L9.24164 47.5381C8.83104 48.9752 8.83104 50.2042 9.24164 51.6413L10.4726 55.7445C11.9097 61.0822 11.7049 66.8333 9.65196 71.9657L9.24164 73.1967C9.03634 74.0179 8.83132 75.0563 8.83132 75.8775C8.83132 79.7781 11.9061 82.8529 15.8067 82.8529L18.4875 82.8529C18.8981 82.8529 19.089 82.8529 19.4996 82.8529L25.8732 82.0322C31.0057 81.4163 35.9364 81.6211 40.8636 82.8529L48.0578 84.9045C49.0843 85.1098 50.3139 85.1098 51.3404 84.9045L58.7261 83.0444C63.6533 81.8126 68.7893 81.6078 73.7164 82.2237L80.0627 83.0444C80.4733 83.0444 80.6916 83.0444 81.1022 83.0444L83.9744 83.0444C87.8751 83.0444 90.9634 79.9829 91.1687 76.6981C91.1687 75.6716 91.169 74.8385 90.7584 74.0173L90.348 72.7864C88.295 67.6539 88.0903 61.9029 89.5274 56.5651L90.7584 52.4619C91.169 51.0248 91.169 49.5905 90.7584 48.3587L90.1292 46.7174C88.0762 40.9691 88.2812 34.9998 90.5395 29.4567L90.7584 28.8549C90.9637 28.0337 91.1687 26.9953 91.1687 26.1741L91.1687 24.1225C91.1687 20.2219 88.0939 17.1471 84.1933 17.1471L81.321 17.1471C80.9104 17.1471 80.6921 17.1471 80.2815 17.1471L73.9079 17.9678C68.7755 18.5837 63.8448 18.3789 58.9176 17.1471L51.7507 15.0955C50.7242 14.8902 49.4946 14.8902 48.4681 15.0955ZM21.1682 25.3535L78.6403 25.3535C79.8721 25.3535 80.6919 26.1733 80.6919 27.4051L80.6919 72.5949C80.6919 73.8267 79.8721 74.6465 78.6403 74.6465L21.1682 74.6465C19.9365 74.6465 19.0893 73.8267 19.0893 72.5949L19.0893 27.4051C19.0893 26.1733 19.9365 25.3535 21.1682 25.3535Z" opacity=".2"/><g opacity="1"><path fill="url(#RG)" fill-rule="nonzero" stroke="none" d="M48.25 10.125L39.8125 12.25C34.1837 13.6572 28.3163 13.8911 22.6875 13.1875L15.4063 12.25C14.9372 12.25 14.6878 12.25 14.2188 12.25L10.9375 12.25C6.48135 12.25 2.96875 15.7626 2.96875 20.2188L2.96875 22.5625C2.96875 23.5006 3.20297 24.4372 3.4375 24.9063L3.6875 25.5938C6.03284 31.9262 6.26706 38.9801 4.15625 45.3125L3.4375 47.1875C2.96843 48.8292 2.96843 50.2333 3.4375 51.875L4.84375 56.5625C6.48549 62.6604 6.25159 69.2304 3.90625 75.0938L3.4375 76.5C3.20297 77.4381 2.96875 78.6244 2.96875 79.5625C2.96875 84.0186 6.48135 87.5312 10.9375 87.5312L14 87.5312C14.4691 87.5313 14.6872 87.5312 15.1563 87.5312L22.4375 86.5938C28.3009 85.8901 33.9337 86.124 39.5625 87.5312L47.7813 89.875C48.9539 90.1095 50.3586 90.1095 51.5313 89.875L59.9688 87.75C65.5976 86.3428 71.4649 86.1089 77.0938 86.8125L84.3438 87.75C84.8128 87.75 85.0622 87.75 85.5312 87.75L88.8125 87.75C93.2686 87.75 96.7967 84.2525 97.0312 80.5C97.0313 79.3273 97.0316 78.3756 96.5625 77.4375L96.0938 76.0312C93.7484 70.1679 93.5145 63.5979 95.1562 57.5L96.5625 52.8125C97.0316 51.1708 97.0316 49.5322 96.5625 48.125L95.8437 46.25C93.4984 39.683 93.7326 32.8637 96.3125 26.5313L96.5625 25.8438C96.797 24.9056 97.0312 23.7194 97.0312 22.7813L97.0312 20.4375C97.0312 15.9814 93.5186 12.4688 89.0625 12.4688L85.7812 12.4688C85.3122 12.4688 85.0628 12.4688 84.5938 12.4688L77.3125 13.4063C71.4491 14.1099 65.8163 13.876 60.1875 12.4688L52 10.125C50.8273 9.89047 49.4227 9.89047 48.25 10.125ZM17.0625 21.8438L82.7188 21.8438C84.126 21.8438 85.0625 22.7803 85.0625 24.1875L85.0625 75.8125C85.0625 77.2197 84.126 78.1562 82.7188 78.1562L17.0625 78.1562C15.6553 78.1562 14.6875 77.2197 14.6875 75.8125L14.6875 24.1875C14.6875 22.7803 15.6553 21.8438 17.0625 21.8438Z" opacity="1"/><path fill="url(#RG_2)" fill-rule="nonzero" stroke="none" d="M48.25 10.125L39.8125 12.25C34.1837 13.6572 28.3163 13.8911 22.6875 13.1875L15.4063 12.25C14.9372 12.25 14.6878 12.25 14.2188 12.25L14 87.5312C14.4691 87.5313 14.6872 87.5312 15.1563 87.5312L22.4375 86.5938C28.3009 85.8901 33.9337 86.124 39.5625 87.5312L47.7813 89.875C48.9539 90.1095 50.3586 90.1095 51.5313 89.875L59.9688 87.75C65.5976 86.3428 71.4649 86.1089 77.0938 86.8125L84.3438 87.75C84.8128 87.75 85.0622 87.75 85.5312 87.75L85.7812 12.4688C85.3122 12.4688 85.0628 12.4688 84.5938 12.4688L77.3125 13.4063C71.4491 14.1099 65.8163 13.876 60.1875 12.4688L52 10.125C50.8273 9.89047 49.4227 9.89047 48.25 10.125ZM17.0625 21.8438L82.7188 21.8438C84.126 21.8438 85.0625 22.7803 85.0625 24.1875L85.0625 75.8125C85.0625 77.2197 84.126 78.1562 82.7188 78.1562L17.0625 78.1562C15.6553 78.1562 14.6875 77.2197 14.6875 75.8125L14.6875 24.1875C14.6875 22.7803 15.6553 21.8438 17.0625 21.8438Z" opacity="1"/><path fill="url(#RG_3)" fill-rule="nonzero" stroke="none" d="M49.1853 77.6632C72.8522 77.9067 96.8001 77.9126 96.5625 77.4375L96.0938 76.0312C93.7484 70.1679 93.5145 63.5979 95.1562 57.5L96.5625 52.8125C97.0316 51.1708 97.0316 49.5322 96.5625 48.125L95.8437 46.25C93.4984 39.683 93.7326 32.8637 96.3125 26.5313L96.5625 25.8438C96.797 24.9056 97.0312 23.7194 97.0312 22.7813L47.9635 22.6671C47.9635 22.6671 26.1201 77.4259 49.1853 77.6632ZM82.7188 21.8438C84.126 21.8438 85.0625 22.7803 85.0625 24.1875L85.0625 75.8125C85.0625 77.2197 84.126 78.1562 82.7188 78.1563L82.7188 21.8438Z" opacity="1"/><path fill="url(#RG_4)" fill-rule="nonzero" stroke="none" d="M2.96875 22.5625C2.96875 23.5006 3.20297 24.4372 3.4375 24.9063L3.6875 25.5938C6.03284 31.9262 6.26706 38.9801 4.15625 45.3125L3.4375 47.1875C2.96843 48.8292 2.96843 50.2333 3.4375 51.875L4.84375 56.5625C6.48549 62.6604 6.25159 69.2304 3.90625 75.0938L3.4375 76.5C3.38893 76.6943 11.3498 76.9277 20.7467 77.1354C34.2206 77.4332 50.6469 77.6779 50.6469 77.6779L50.9334 22.674L21.2802 22.6051L2.96875 22.5625ZM17.0625 21.8438L17.0625 78.1563C15.6553 78.1562 14.6875 77.2197 14.6875 75.8125L14.6875 24.1875C14.6875 22.7803 15.6553 21.8438 17.0625 21.8438Z" opacity="1"/></g></g><g opacity="1"><g opacity="0"><path fill="#000" fill-rule="nonzero" stroke="none" d="M88.0865 82.7461L11.6789 82.7461C10.0416 82.7461 8.95009 81.6546 8.95009 80.0173L8.95009 19.9827C8.95009 18.3454 10.0416 17.2539 11.6789 17.2539L88.0865 17.2539C89.7238 17.2539 90.8154 18.3454 90.8154 19.9827L90.8154 80.0173C90.8154 81.6546 89.7238 82.7461 88.0865 82.7461Z" opacity=".1"/><path fill="#000" fill-rule="nonzero" stroke="none" d="M86.3364 81.246L13.4291 81.246C11.8668 81.246 10.8252 80.2045 10.8252 78.6422L10.8252 21.3578C10.8252 19.7955 11.8668 18.754 13.4291 18.754L86.3364 18.754C87.8987 18.754 88.9402 19.7955 88.9402 21.3578L88.9402 78.6422C88.9402 80.2045 87.8987 81.246 86.3364 81.246Z" opacity=".15"/><path fill="#000" fill-rule="nonzero" stroke="none" d="M84.7659 79.8998L14.9996 79.8998C13.5046 79.8998 12.5079 78.9032 12.5079 77.4082L12.5079 22.5918C12.5079 21.0968 13.5046 20.1002 14.9996 20.1002L84.7659 20.1002C86.2609 20.1002 87.2575 21.0968 87.2575 22.5918L87.2575 77.4082C87.2575 78.9032 86.2609 79.8998 84.7659 79.8998Z" opacity=".2"/></g><path fill="#bee2ff" fill-rule="nonzero" stroke="none" d="M82.7175 78.1441L17.048 78.1441C15.6408 78.1441 14.7026 77.2059 14.7026 75.7987L14.7026 24.2013C14.7026 22.7941 15.6408 21.8559 17.048 21.8559L82.7175 21.8559C84.1247 21.8559 85.0628 22.7941 85.0628 24.2013L85.0628 75.7987C85.0628 77.2059 84.1247 78.1441 82.7175 78.1441Z" opacity=".22"/></g></g></g></svg>