<svg xmlns="http://www.w3.org/2000/svg" xmlns:xlink="http://www.w3.org/1999/xlink" width="100%" height="100%" version="1.1" viewBox="0 0 100 100" xml:space="preserve"><defs><filter id="Filter_zxcv" width="58.316" height="24.101" x="20.842" y="79.4" color-interpolation-filters="sRGB" filterUnits="userSpaceOnUse"><feDropShadow dx="0" dy="1" flood-color="#000" flood-opacity=".4" in="SourceGraphic" result="Shadow" stdDeviation="1"/></filter><filter id="Filter_zxcv_2" width="18.317" height="10.784" x="40.842" y="92.716" color-interpolation-filters="sRGB" filterUnits="userSpaceOnUse"><feDropShadow dx="0" dy="1" flood-color="#000" flood-opacity=".4" in="SourceGraphic" result="Shadow" stdDeviation="1"/></filter><filter id="Filter_zxcv_3" width="71.583" height="27.196" x="14.209" y="46.107" color-interpolation-filters="sRGB" filterUnits="userSpaceOnUse"><feDropShadow dx="0" dy="1" flood-color="#000" flood-opacity=".4" in="SourceGraphic" result="Shadow" stdDeviation="1"/></filter><filter id="Filter_zxcv_4" width="67.144" height="13.878" x="16.428" y="51.766" color-interpolation-filters="sRGB" filterUnits="userSpaceOnUse"><feDropShadow dx="0" dy="0" flood-color="#000" flood-opacity=".4" in="SourceGraphic" result="Shadow" stdDeviation="1"/></filter><filter id="Filter_zxcv_5" width="58.266" height="93.777" x="20.867" y="3.939" color-interpolation-filters="sRGB" filterUnits="userSpaceOnUse"><feDropShadow dx="0" dy="1" flood-color="#000" flood-opacity=".4" in="SourceGraphic" result="Shadow" stdDeviation="1"/></filter><filter id="Filter_zxcv_6" width="27.194" height="9.439" x="36.403" y="71.741" color-interpolation-filters="sRGB" filterUnits="userSpaceOnUse"><feDropShadow dx="0" dy="0" flood-color="#000" flood-opacity=".4" in="SourceGraphic" result="Shadow" stdDeviation="1"/></filter><filter id="Filter_zxcv_7" width="36.072" height="11.658" x="31.964" y="46.108" color-interpolation-filters="sRGB" filterUnits="userSpaceOnUse"><feDropShadow dx="0" dy="1" flood-color="#000" flood-opacity=".4" in="SourceGraphic" result="Shadow" stdDeviation="1"/></filter><filter id="Filter_zxcv_8" width="67.144" height="100.435" x="16.428" y="-.5" color-interpolation-filters="sRGB" filterUnits="userSpaceOnUse"><feDropShadow dx="0" dy="1" flood-color="#000" flood-opacity=".4" in="SourceGraphic" result="Shadow" stdDeviation="1"/></filter><filter id="Filter_zxcv_9" width="53.438" height="23.63" x="23.281" y="41.729" color-interpolation-filters="sRGB" filterUnits="userSpaceOnUse"><feDropShadow dx="0" dy="1" flood-color="#000" flood-opacity=".4" in="SourceGraphic" result="Shadow" stdDeviation="1"/></filter><filter id="Filter_zxcv_10" width="44.123" height="14.315" x="31.199" y="49.646" color-interpolation-filters="sRGB" filterUnits="userSpaceOnUse"><feDropShadow dx="0" dy="1" flood-color="#000" flood-opacity=".4" in="SourceGraphic" result="Shadow" stdDeviation="1"/></filter><filter id="Filter_zxcv_11" width="56.232" height="26.424" x="21.884" y="40.331" color-interpolation-filters="sRGB" filterUnits="userSpaceOnUse"><feDropShadow dx="0" dy="1" flood-color="#000" flood-opacity=".4" in="SourceGraphic" result="Shadow" stdDeviation="1"/></filter></defs><g id="zxcvGroup-20" opacity="1"><g id="zxcvGroup-18" opacity="1"><path id="zxcv" fill="#f9fcfd" stroke="none" d="M69.9749 80.8995L30.0251 80.8995L23.3422 100L27.781 100L50 100L72.219 100L76.6578 100L69.9749 80.8995Z" filter="url(#Filter_zxcv)" shadowAngle="1.571" shadowColor="#000000" shadowOffset="1" shadowOpacity=".4" shadowRadius="2"/><path id="zxcv-1" fill="#37474f" stroke="none" d="M47.7806 94.216L43.3417 100L56.6583 100L52.2194 94.216L47.7806 94.216Z" filter="url(#Filter_zxcv_2)" shadowAngle="1.571" shadowColor="#000000" shadowOffset="1" shadowOpacity=".4" shadowRadius="2"/><path id="zxcv-2" fill="#ffa726" stroke="none" d="M76.156 53.6382C76.4978 51.9315 77.2968 50.3246 78.442 49.0462C79.3608 48.0186 80.8345 47.173 82.0175 47.8499C83.1538 48.5024 83.2914 50.1049 83.2914 51.4498C83.2914 53.7736 83.2914 56.0973 83.2715 58.4211C83.2604 59.695 83.2404 60.989 82.8742 62.2052C82.4858 63.4903 81.7312 64.6177 80.9677 65.7097C80.3352 66.613 79.6893 67.5074 79.0301 68.393C78.4509 69.1676 77.6208 70.0243 76.7131 69.7513C76.389 69.6536 76.1227 69.4228 75.8674 69.1964C75.3836 68.7703 74.8998 68.3441 74.4159 67.9202L76.156 53.6382ZM23.844 53.6382C23.5022 51.9315 22.7032 50.3246 21.558 49.0462C20.6392 48.0186 19.1655 47.173 17.9825 47.8499C16.8462 48.5024 16.7086 50.1049 16.7086 51.4498C16.7086 53.7736 16.7086 56.0973 16.7285 58.4211C16.7396 59.695 16.7596 60.989 17.1258 62.2052C17.5142 63.4903 18.2688 64.6177 19.0323 65.7097C19.6648 66.613 20.3107 67.5074 20.9699 68.393C21.5491 69.1676 22.3792 70.0243 23.2869 69.7513C23.611 69.6536 23.8773 69.4228 24.1326 69.1964C24.6164 68.7703 25.1002 68.3441 25.5841 67.9202L23.844 53.6382Z" filter="url(#Filter_zxcv_3)" shadowAngle="1.571" shadowColor="#000000" shadowOffset="1" shadowOpacity=".4" shadowRadius="2"/><path id="zxcv-3" fill="#fb8c00" stroke="none" d="M81.072 56.4857C81.072 61.1088 78.8526 63.144 78.8526 63.144L78.8526 58.7052C77.6275 58.7052 76.6332 57.7109 76.6332 56.4857C76.6332 55.2606 77.6275 54.2663 78.8526 54.2663C80.0777 54.2663 81.072 55.2606 81.072 56.4857ZM18.928 56.4857C18.928 61.1088 21.1474 63.144 21.1474 63.144L21.1474 58.7052C22.3725 58.7052 23.3668 57.7109 23.3668 56.4857C23.3668 55.2606 22.3725 54.2663 21.1474 54.2663C19.9223 54.2663 18.928 55.2606 18.928 56.4857Z" filter="url(#Filter_zxcv_4)" shadowAngle="1.571" shadowColor="#000000" shadowOffset="0" shadowOpacity=".4" shadowRadius="2"/><path id="zxcv-4" fill="#ffb74d" stroke="none" d="M45.5611 94.216C38.763 94.216 23.3668 80.7641 23.3668 67.5829L23.3668 23.1943C23.3668 23.1943 24.0149 5.43886 50 5.43886C75.9851 5.43886 76.6332 23.1943 76.6332 23.1943L76.6332 67.5829C76.6332 80.7641 60.9573 94.216 54.4389 94.216L45.5611 94.216Z" filter="url(#Filter_zxcv_5)" shadowAngle="1.571" shadowColor="#000000" shadowOffset="1" shadowOpacity=".4" shadowRadius="2"/><path id="zxcv-5" fill="#fb8c00" stroke="none" d="M38.9029 74.2412L61.0971 74.2412L61.0971 78.68L38.9029 78.68L38.9029 74.2412Z" filter="url(#Filter_zxcv_6)" shadowAngle="1.571" shadowColor="#000000" shadowOffset="0" shadowOpacity=".4" shadowRadius="2"/><path id="zxcv-6" fill="#4e342e" stroke="none" d="M41.1223 50.9372C41.1223 52.7748 39.6308 54.2663 37.7931 54.2663C35.9555 54.2663 34.464 52.7748 34.464 50.9372C34.464 49.0995 35.9555 47.608 37.7931 47.608C39.6308 47.608 41.1223 49.0995 41.1223 50.9372ZM62.2069 47.608C60.3692 47.608 58.8777 49.0995 58.8777 50.9372C58.8777 52.7748 60.3692 54.2663 62.2069 54.2663C64.0445 54.2663 65.536 52.7748 65.536 50.9372C65.536 49.0995 64.0445 47.608 62.2069 47.608Z" filter="url(#Filter_zxcv_7)" shadowAngle="1.571" shadowColor="#000000" shadowOffset="1" shadowOpacity=".4" shadowRadius="2"/><path id="zxcv-7" fill="#cfd8dc" stroke="none" d="M81.072 29.8526C81.072 6.87927 61.5388 1 50 1C38.4612 1 36.6834 7.65829 36.6834 7.65829L42.4562 18.7865C42.7513 18.7754 43.0354 18.7554 43.3417 18.7554L56.6583 18.7554C71.2155 18.7554 73.9832 30.5362 74.4137 36.9303L74.4137 40.9497L74.4137 54.2663L74.4137 63.144L66.81 73.2824C61.1793 67.7405 50 67.5829 50 67.5829C50 67.5829 38.5921 67.1989 33.0236 73.0604L25.5863 63.144L25.5863 54.2663L25.5863 40.9497L25.5863 36.6263C26.0013 30.9534 28.2696 21.4543 38.6099 19.2371L36.6834 7.65829C36.6834 7.65829 18.928 8.86344 18.928 29.8526L18.928 47.608L21.1474 49.8274L21.1474 67.5829C21.1474 74.3987 25.8637 81.2701 31.3524 86.3326C35.769 94.9196 50 96.4355 50 96.4355C50 96.4355 64.4329 94.9018 68.7409 86.1551C74.1785 81.1103 78.8526 74.3166 78.8526 67.5829L78.8526 49.8274L81.072 47.608C81.072 47.608 81.072 39.84 81.072 29.8526ZM50 74.2412C50 74.2412 61.0971 74.2412 61.0971 80.8995C61.0971 80.8995 61.1038 85.3383 56.6583 85.3383C52.2128 85.3383 52.2194 80.8995 52.2194 80.8995L52.2194 78.68L47.7806 78.68L47.7806 80.8995C47.7806 80.8995 47.7872 85.3383 43.3417 85.3383C38.8962 85.3383 38.9029 80.8995 38.9029 80.8995C38.9029 74.1036 50 74.2412 50 74.2412Z" filter="url(#Filter_zxcv_8)" shadowAngle="1.571" shadowColor="#000000" shadowOffset="1" shadowOpacity=".4" shadowRadius="2"/></g><g id="zxcvGroup-19" opacity="1"><g id="Glasses" opacity="1"><path id="zxcv" fill="#fff" stroke="none" d="M35.0961 43.2287C29.9516 43.2287 25.7812 47.3991 25.7812 52.5436C25.7812 57.6881 29.9516 61.8585 35.0961 61.8585C40.2406 61.8585 44.411 57.6881 44.411 52.5436C44.411 47.3991 40.2406 43.2287 35.0961 43.2287ZM64.9039 43.2287C59.7594 43.2287 55.589 47.3991 55.589 52.5436C55.589 57.6881 59.7594 61.8585 64.9039 61.8585C70.0484 61.8585 74.2188 57.6881 74.2188 52.5436C74.2188 47.3991 70.0484 43.2287 64.9039 43.2287Z" filter="url(#Filter_zxcv_9)" shadowAngle="1.571" shadowColor="#000000" shadowOffset="1" shadowOpacity=".4" shadowRadius="2"/><path id="zxcv" fill="#adf9d2" stroke="none" d="M35.0961 60.4613C34.3043 60.4613 33.6989 59.8558 33.6989 59.0641C33.6989 58.2723 34.3043 57.6668 35.0961 57.6668C37.9372 57.6668 40.2193 55.3847 40.2193 52.5436C40.2193 51.7518 40.8248 51.1464 41.6166 51.1464C42.4083 51.1464 43.0138 51.7518 43.0138 52.5436C43.0138 56.9216 39.4741 60.4613 35.0961 60.4613ZM64.9039 60.4613C64.1121 60.4613 63.5067 59.8558 63.5067 59.0641C63.5067 58.2723 64.1121 57.6668 64.9039 57.6668C67.7449 57.6668 70.0271 55.3847 70.0271 52.5436C70.0271 51.7518 70.6326 51.1464 71.4243 51.1464C72.2161 51.1464 72.8216 51.7518 72.8216 52.5436C72.8216 56.9216 69.2819 60.4613 64.9039 60.4613Z" filter="url(#Filter_zxcv_10)" shadowAngle="1.571" shadowColor="#000000" shadowOffset="1" shadowOpacity=".4" shadowRadius="2"/><path id="zxcv" fill="#444b54" stroke="none" d="M64.9039 41.8314C61.0848 41.8314 57.7314 43.8341 55.8218 46.8615C54.5643 44.9519 52.4219 43.6944 50 43.6944C47.5781 43.6944 45.4357 44.9519 44.1782 46.8615C42.2686 43.8341 38.9152 41.8314 35.0961 41.8314C33.2511 41.8314 31.5149 42.2982 29.999 43.12C26.6552 44.9329 24.3839 48.4736 24.3839 52.5436C24.3839 58.4586 29.1811 63.2558 35.0961 63.2558C41.0111 63.2558 45.8083 58.4586 45.8083 52.5436L45.8083 50.6806C45.8083 48.3519 47.6713 46.4889 50 46.4889C52.3287 46.4889 54.1917 48.3519 54.1917 50.6806L54.1917 52.5436C54.1917 58.4586 58.9889 63.2558 64.9039 63.2558C70.8189 63.2558 75.6161 58.4586 75.6161 52.5436C75.6161 46.6286 70.8189 41.8314 64.9039 41.8314ZM35.0961 60.4613C30.7181 60.4613 27.1784 56.9216 27.1784 52.5436C27.1784 48.1656 30.7181 44.6259 35.0961 44.6259C39.4741 44.6259 43.0138 48.1656 43.0138 52.5436C43.0138 56.9216 39.4741 60.4613 35.0961 60.4613ZM64.9039 60.4613C60.5259 60.4613 56.9862 56.9216 56.9862 52.5436C56.9862 48.1656 60.5259 44.6259 64.9039 44.6259C69.2819 44.6259 72.8216 48.1656 72.8216 52.5436C72.8216 56.9216 69.2819 60.4613 64.9039 60.4613Z" filter="url(#Filter_zxcv_11)" shadowAngle="1.571" shadowColor="#000000" shadowOffset="1" shadowOpacity=".4" shadowRadius="2"/></g></g></g></svg>