<svg height="100%" stroke-miterlimit="10" style="fill-rule:nonzero;clip-rule:evenodd;stroke-linecap:round;stroke-linejoin:round;" version="1.1" viewBox="0.190503 -0.322132 98.1229 101.416" width="100%" xml:space="preserve" xmlns="http://www.w3.org/2000/svg" xmlns:vectornator="http://vectornator.io" xmlns:xlink="http://www.w3.org/1999/xlink">
<defs>
<filter color-interpolation-filters="sRGB" filterUnits="userSpaceOnUse" height="95.6656" id="Filter" width="95.6656" x="1.45159" y="2.88654">
<feDropShadow dx="-0.694658" dy="0.719341" flood-color="#000000" flood-opacity="0.4" in="SourceGraphic" result="Shadow" stdDeviation="1.15"/>
</filter>
<filter color-interpolation-filters="sRGB" filterUnits="userSpaceOnUse" height="101.416" id="Filter_2" width="98.1229" x="0.190503" y="-0.322132">
<feDropShadow dx="0.459627" dy="0.385673" flood-color="#000000" flood-opacity="0.4" in="SourceGraphic" result="Shadow" stdDeviation="1.15"/>
</filter>
<filter color-interpolation-filters="sRGB" filterUnits="userSpaceOnUse" height="15.6914" id="Filter_3" width="51.1204" x="2.60588" y="53.7217">
<feDropShadow dx="0.459627" dy="0.385673" flood-color="#000000" flood-opacity="0.4" in="SourceGraphic" result="Shadow" stdDeviation="1.15"/>
</filter>
<filter color-interpolation-filters="sRGB" filterUnits="userSpaceOnUse" height="95.6656" id="Filter_4" width="15.6914" x="41.5755" y="2.1672">
<feDropShadow dx="-0.6" dy="7.34788e-17" flood-color="#000000" flood-opacity="0.4" in="SourceGraphic" result="Shadow" stdDeviation="1.15"/>
</filter>
</defs>
<g opacity="1">
<path d="M12.5143 5.0422L87.4438 5.0422C91.5822 5.0422 94.9368 8.39691 94.9368 12.5352L94.9368 87.4648C94.9368 91.6031 91.5822 94.9578 87.4438 94.9578L12.5143 94.9578C8.37597 94.9578 5.02125 91.6031 5.02125 87.4648L5.02125 12.5352C5.02125 8.39691 8.37597 5.0422 12.5143 5.0422Z" fill="#efefef" fill-rule="nonzero" filter="url(#Filter)" stroke="none" shadowAngle="2.33874" shadowColor="#000000" shadowOffset="1" shadowOpacity="0.4" shadowRadius="2.3"/>
<g filter="url(#Filter_2)" shadowAngle="0.698132" shadowColor="#000000" shadowOffset="0.6" shadowOpacity="0.4" shadowRadius="2.3">
<path d="M50.3916 66.1524L12.5143 66.1524C8.37597 66.1524 5.02125 65.7815 5.02125 65.3239L5.02125 57.0394C5.02125 56.5819 8.37597 56.211 12.5143 56.211L49.6652 56.211L50.3916 66.1524Z" fill="#0000e2" fill-rule="nonzero" filter="url(#Filter_3)" stroke="none" shadowAngle="0.698132" shadowColor="#000000" shadowOffset="0.6" shadowOpacity="0.4" shadowRadius="2.3"/>
<path d="M49.6084 45.0225L87.4857 45.0225C91.624 45.0225 94.9787 44.6516 94.9787 44.194L94.9787 35.9095C94.9787 35.452 91.624 35.0811 87.4857 35.0811L50.3348 35.0811L49.6084 45.0225Z" fill="#ffd401" fill-rule="nonzero" opacity="1" stroke="none"/>
<path d="M45.879 5.0422L54.1635 5.0422C54.6211 5.0422 54.992 8.39691 54.992 12.5352L54.992 87.4648C54.992 91.6031 54.6211 94.9578 54.1635 94.9578L45.879 94.9578C45.4215 94.9578 45.0506 91.6031 45.0506 87.4648L45.0506 12.5352C45.0506 8.39691 45.4215 5.0422 45.879 5.0422Z" fill="#cb010d" fill-rule="nonzero" filter="url(#Filter_4)" stroke="none" shadowAngle="3.14159" shadowColor="#000000" shadowOffset="0.6" shadowOpacity="0.4" shadowRadius="2.3"/>
</g>
</g>
</svg>