<svg xmlns="http://www.w3.org/2000/svg" xmlns:vectornator="http://vectornator.io" xmlns:xlink="http://www.w3.org/1999/xlink" height="100%" stroke-miterlimit="10" style="fill-rule:nonzero;clip-rule:evenodd;stroke-linecap:round;stroke-linejoin:round" width="100%" version="1.1" viewBox="0.191 -0.322 98.123 101.416" xml:space="preserve"><defs><filter id="Filter" width="95.666" height="95.666" x="1.452" y="2.887" color-interpolation-filters="sRGB" filterUnits="userSpaceOnUse"><feDropShadow dx="-.695" dy=".719" flood-color="#000" flood-opacity=".4" in="SourceGraphic" result="Shadow" stdDeviation="1.15"/></filter><filter id="Filter_2" width="98.123" height="101.416" x=".191" y="-.322" color-interpolation-filters="sRGB" filterUnits="userSpaceOnUse"><feDropShadow dx=".46" dy=".386" flood-color="#000" flood-opacity=".4" in="SourceGraphic" result="Shadow" stdDeviation="1.15"/></filter><filter id="Filter_3" width="51.12" height="15.691" x="2.606" y="53.722" color-interpolation-filters="sRGB" filterUnits="userSpaceOnUse"><feDropShadow dx=".46" dy=".386" flood-color="#000" flood-opacity=".4" in="SourceGraphic" result="Shadow" stdDeviation="1.15"/></filter><filter id="Filter_4" width="15.691" height="95.666" x="41.575" y="2.167" color-interpolation-filters="sRGB" filterUnits="userSpaceOnUse"><feDropShadow dx="-.6" dy="0" flood-color="#000" flood-opacity=".4" in="SourceGraphic" result="Shadow" stdDeviation="1.15"/></filter></defs><clipPath id="ArtboardFrame"><rect width="98.123" height="101.416" x=".191" y="-.322"/></clipPath><g id="Layer" clip-path="url(#ArtboardFrame)" layerName="Layer"><g layerName="Group 4" opacity="1"><path fill="#efefef" fill-rule="nonzero" stroke="none" d="M12.5143 5.0422L87.4438 5.0422C91.5822 5.0422 94.9368 8.39691 94.9368 12.5352L94.9368 87.4648C94.9368 91.6031 91.5822 94.9578 87.4438 94.9578L12.5143 94.9578C8.37597 94.9578 5.02125 91.6031 5.02125 87.4648L5.02125 12.5352C5.02125 8.39691 8.37597 5.0422 12.5143 5.0422Z" filter="url(#Filter)" layerName="rect" shadowAngle="2.339" shadowColor="#000000" shadowOffset="1" shadowOpacity=".4" shadowRadius="2.3"/><g filter="url(#Filter_2)" layerName="Group 1" shadowAngle=".698" shadowColor="#000000" shadowOffset=".6" shadowOpacity=".4" shadowRadius="2.3"><path fill="#0000e2" fill-rule="nonzero" stroke="none" d="M50.3916 66.1524L12.5143 66.1524C8.37597 66.1524 5.02125 65.7815 5.02125 65.3239L5.02125 57.0394C5.02125 56.5819 8.37597 56.211 12.5143 56.211L49.6652 56.211L50.3916 66.1524Z" filter="url(#Filter_3)" layerName="rect 6" shadowAngle=".698" shadowColor="#000000" shadowOffset=".6" shadowOpacity=".4" shadowRadius="2.3"/><path fill="#ffd401" fill-rule="nonzero" stroke="none" d="M49.6084 45.0225L87.4857 45.0225C91.624 45.0225 94.9787 44.6516 94.9787 44.194L94.9787 35.9095C94.9787 35.452 91.624 35.0811 87.4857 35.0811L50.3348 35.0811L49.6084 45.0225Z" layerName="rect 6" opacity="1"/><path fill="#cb010d" fill-rule="nonzero" stroke="none" d="M45.879 5.0422L54.1635 5.0422C54.6211 5.0422 54.992 8.39691 54.992 12.5352L54.992 87.4648C54.992 91.6031 54.6211 94.9578 54.1635 94.9578L45.879 94.9578C45.4215 94.9578 45.0506 91.6031 45.0506 87.4648L45.0506 12.5352C45.0506 8.39691 45.4215 5.0422 45.879 5.0422Z" filter="url(#Filter_4)" layerName="rect 5" shadowAngle="3.142" shadowColor="#000000" shadowOffset=".6" shadowOpacity=".4" shadowRadius="2.3"/></g></g></g></svg>