<svg xmlns="http://www.w3.org/2000/svg" xmlns:vectornator="http://vectornator.io" xmlns:xlink="http://www.w3.org/1999/xlink" height="100%" stroke-miterlimit="10" style="fill-rule:nonzero;clip-rule:evenodd;stroke-linecap:round;stroke-linejoin:round" width="100%" version="1.1" viewBox="-2.073 6.898 103.406 87.025" xml:space="preserve"><defs><filter id="Filter" width="103.406" height="87.025" x="-2.073" y="6.898" color-interpolation-filters="sRGB" filterUnits="userSpaceOnUse"><feDropShadow dx="-.37" dy=".411" flood-color="#000" flood-opacity=".73" in="SourceGraphic" result="Shadow" stdDeviation="1.024"/></filter></defs><clipPath id="ArtboardFrame"><rect width="103.406" height="87.025" x="-2.073" y="6.898"/></clipPath><g id="Layer" clip-path="url(#ArtboardFrame)" layerName="Layer"><g layerName="g" opacity="1"><path fill="#ad1457" fill-rule="nonzero" stroke="none" d="M99.1436 32.8741L75.3163 9.04694L24.6836 9.04694L0.85639 32.8741L50 90.9531L99.1436 32.8741Z" filter="url(#Filter)" layerName="path" shadowAngle="2.304" shadowColor="#000000" shadowOffset=".553" shadowOpacity=".73" shadowRadius="2.048"/><path fill="#880e4f" fill-rule="nonzero" stroke="none" d="M27.662 32.8741L0.85639 32.8741L50 90.9531L27.662 32.8741Z" layerName="path" opacity="1"/><path fill="#ff80ab" fill-rule="nonzero" stroke="none" d="M99.1436 32.8741L72.3382 32.8741L75.3163 9.04694L99.1436 32.8741Z" layerName="path" opacity="1"/><path fill="#d81b60" fill-rule="nonzero" stroke="none" d="M27.662 32.8741L24.6836 9.04694L75.3163 9.04694L72.3382 32.8741L50 90.9531L27.662 32.8741Z" layerName="path" opacity="1"/><path fill="#ff4081" fill-rule="nonzero" stroke="none" d="M99.1436 32.8741L72.3382 32.8741L50 90.9531L99.1436 32.8741ZM72.3382 32.8741L48.5109 9.04694L27.662 32.8741L72.3382 32.8741Z" layerName="path" opacity="1"/></g></g></svg>