<svg width="100%" height="100%" viewBox="0 0 100 100" xmlns="http://www.w3.org/2000/svg" xml:space="preserve" stroke-linecap="round" stroke-linejoin="round" stroke-miterlimit="10" clip-rule="evenodd"><defs><linearGradient id="a" x1="23.78" x2="74.093" y1="60.571" y2="60.132" gradientTransform="translate(.039 .039)scale(.99922)" gradientUnits="userSpaceOnUse"><stop offset="0" stop-color="#e60726" stop-opacity=".9"/><stop offset=".437" stop-color="#970000"/><stop offset=".496" stop-color="#8a0101"/><stop offset=".554" stop-color="#8a0101"/><stop offset=".611" stop-color="#8d0000"/><stop offset=".666" stop-color="#960000"/><stop offset="1" stop-color="#ea0621" stop-opacity=".915"/></linearGradient><linearGradient id="c" x1="74.758" x2="29.481" y1="45.294" y2="47.277" gradientUnits="userSpaceOnUse"><stop offset="0" stop-color="#e60726" stop-opacity=".9"/><stop offset=".437" stop-color="#970000"/><stop offset=".496" stop-color="#8a0101"/><stop offset=".554" stop-color="#8a0101"/><stop offset=".611" stop-color="#8d0000"/><stop offset=".666" stop-color="#960000"/><stop offset="1" stop-color="#ea0621" stop-opacity=".915"/></linearGradient><filter id="b" width="79.903" height="101.997" x="9.75" y="-.18" color-interpolation-filters="sRGB" filterUnits="userSpaceOnUse"><feDropShadow dx="-.298" dy=".819" flood-color="#000" flood-opacity=".55" in="SourceGraphic" result="Shadow" stdDeviation="1.252"/></filter><filter id="d" width="65.174" height="94.632" x="17.115" y="5.617" color-interpolation-filters="sRGB" filterUnits="userSpaceOnUse"><feDropShadow dx="-.298" dy=".819" flood-color="#000" flood-opacity=".55" in="SourceGraphic" result="Shadow" stdDeviation="1.252"/></filter></defs><g><path fill="url(#a)" d="M35.26 33.699 24.984 23.442l7.411-7.35 10.23 10.214.02-13.162 14.746.04-.017 13.104 10.26-10.253 7.448 7.45L64.79 33.722 75.806 39.2l-.011 25.858L64.8 70.496l8.166 8.17-7.374 7.454-8.214-8.126.029 8.889-14.83.018.035-8.926-8.102 8.06-7.46-7.383 8.25-8.129-11.044-5.454-.04-25.853z" opacity=".628"/><path fill="#7f0101" fill-opacity=".9" d="M30.955 2.13h38.09c1.951 0 3.825.778 5.206 2.159l10.413 10.413a7.37 7.37 0 0 1 2.159 5.207v60.179a7.37 7.37 0 0 1-2.159 5.206L74.251 95.707a7.36 7.36 0 0 1-5.207 2.162H31.45a7.36 7.36 0 0 1-5.752-2.765L14.794 81.472a7.35 7.35 0 0 1-1.617-4.6V19.91c0-1.952.777-3.826 2.158-5.207L25.75 4.289a7.37 7.37 0 0 1 5.206-2.158m-6.73 73.646L35.27 86.822h29.458l11.047-11.046V24.224L64.729 13.178H35.27L24.224 24.224z" filter="url(#b)"/><path fill="url(#c)" d="m64.729 33.703-7.364-7.364h-14.73l-7.364 7.364v36.823l7.364 7.364h14.73l7.364-7.364zM42.635 26.34l-14.728-14.73 14.728-3.681zm-7.364 7.364L20.542 18.974v22.094zm44.187-14.729-14.73 14.73 14.73 7.364zm-14.73 51.552 14.73 14.729V63.16zM20.543 85.255l14.729-14.73-14.729-7.364zM57.365 7.928l14.729 3.682-14.73 14.729zm0 69.962 14.729 14.73-14.73 3.681zm-14.73 18.411L27.907 92.62 42.635 77.89z" filter="url(#d)"/></g></svg>
