<svg xmlns="http://www.w3.org/2000/svg" xmlns:vectornator="http://vectornator.io" xmlns:xlink="http://www.w3.org/1999/xlink" width="100%" height="100%" viewBox="0 0 100 100" xml:space="preserve"><defs><filter id="Filter" width="70" height="62.083" x="14.61" y="22.335" color-interpolation-filters="sRGB" filterUnits="userSpaceOnUse"><feDropShadow dx="-.39" dy=".46" flood-color="#000" flood-opacity=".5" in="SourceGraphic" result="Shadow" stdDeviation="1.5"/></filter><filter id="Filter_2" width="47.083" height="46.875" x="18.777" y="37.543" color-interpolation-filters="sRGB" filterUnits="userSpaceOnUse"><feDropShadow dx="-.39" dy=".46" flood-color="#000" flood-opacity=".5" in="SourceGraphic" result="Shadow" stdDeviation="1.5"/></filter><filter id="Filter_3" width="107.5" height="61.667" x="-4.14" y="16.502" color-interpolation-filters="sRGB" filterUnits="userSpaceOnUse"><feDropShadow dx="-.39" dy=".46" flood-color="#000" flood-opacity=".5" in="SourceGraphic" result="Shadow" stdDeviation="1.5"/></filter><filter id="Filter_4" width="49.167" height="15.833" x="25.027" y="45.668" color-interpolation-filters="sRGB" filterUnits="userSpaceOnUse"><feDropShadow dx="-.39" dy=".46" flood-color="#000" flood-opacity=".5" in="SourceGraphic" result="Shadow" stdDeviation="1.5"/></filter><filter id="Filter_5" width="40.833" height="15.833" x="29.193" y="45.668" color-interpolation-filters="sRGB" filterUnits="userSpaceOnUse"><feDropShadow dx="-.39" dy=".46" flood-color="#000" flood-opacity=".5" in="SourceGraphic" result="Shadow" stdDeviation="1.5"/></filter></defs><g layerName="Group 1" opacity="1"><path fill="#795548" d="M81.0417 49.7917C80.2083 37.7083 76.25 39.5833 78.75 25.625C73.9583 27.7083 68.75 36.4583 60.4167 36.4583L39.5833 36.4583C31.25 36.4583 26.0417 27.7083 21.25 25.625C23.75 39.375 20 37.7083 18.9583 49.7917C18.75 50.625 18.75 51.25 18.75 52.0833L18.75 63.5417C18.75 75.625 31.25 78.125 31.25 78.125C31.25 78.125 37.5 80.2083 50 80.2083C62.5 80.2083 68.75 78.125 68.75 78.125C68.75 78.125 81.25 76.25 81.25 63.5417L81.25 52.0833C81.25 51.25 81.25 50.625 81.0417 49.7917Z" filter="url(#Filter)" layerName="path" shadowAngle="2.274" shadowColor="#000000" shadowOffset=".603" shadowOpacity=".5" shadowRadius="3"/><path fill="#fff" d="M36.4583 40.8333C43.9583 40.8333 50 46.4583 50 53.3333C50 60.2083 43.9583 65.8333 36.4583 65.8333C28.9583 65.8333 22.9167 60.2083 22.9167 53.3333C22.9167 46.4583 29.1667 40.8333 36.4583 40.8333ZM37.5 67.7083C37.5 73.9583 43.125 80.2083 50 80.2083C56.875 80.2083 62.5 73.9583 62.5 67.7083C62.5 67.7083 56.875 65.625 50 65.625C43.125 65.625 37.5 67.7083 37.5 67.7083Z" filter="url(#Filter_2)" layerName="path 1" shadowAngle="2.274" shadowColor="#000000" shadowOffset=".603" shadowOpacity=".5" shadowRadius="3"/><path fill="#ff9e80" d="M100 19.7917C90 19.7917 82.9167 22.7083 77.7083 26.25C78.125 26.0417 78.3333 25.8333 78.75 25.625C76.25 39.375 80 37.7083 81.0417 49.7917C81.25 50.625 81.25 51.25 81.25 52.0833L81.25 55.2083C102.5 52.9167 94.1667 32.9167 93.75 30.2083C93.3333 27.7083 92.2917 24.5833 100 19.7917ZM21.6667 25.8333C16.4583 22.5 9.58333 19.7917 0 19.7917C7.91667 24.5833 6.875 27.7083 6.25 30.2083C5.83333 32.7083-2.70833 52.7083 18.75 55.2083L18.75 52.0833C18.75 51.25 18.75 50.625 18.9583 49.7917C19.7917 37.7083 23.75 39.5833 21.25 25.625C21.25 25.8333 21.4583 25.8333 21.6667 25.8333ZM62.5 44.7917C57.8976 44.7917 54.1667 48.0563 54.1667 52.0833C54.1667 56.1104 57.8976 59.375 62.5 59.375C67.1024 59.375 70.8333 56.1104 70.8333 52.0833C70.8333 48.0563 67.1024 44.7917 62.5 44.7917ZM37.5 44.7917C32.8976 44.7917 29.1667 48.0563 29.1667 52.0833C29.1667 56.1104 32.8976 59.375 37.5 59.375C42.1024 59.375 45.8333 56.1104 45.8333 52.0833C45.8333 48.0563 42.1024 44.7917 37.5 44.7917ZM54.1667 61.875C54.1667 61.6667 54.1667 61.6667 54.1667 61.4583C54.1667 59.1667 52.2917 57.2917 50 57.2917C47.7083 57.2917 45.8333 59.1667 45.8333 61.4583C45.8333 61.6667 45.8333 61.6667 45.8333 61.875C41.0417 62.7083 37.5 65 37.5 67.7083C37.5 71.25 43.125 73.9583 50 73.9583C56.875 73.9583 62.5 71.25 62.5 67.7083C62.5 65 58.9583 62.7083 54.1667 61.875Z" filter="url(#Filter_3)" layerName="path 2" shadowAngle="2.274" shadowColor="#000000" shadowOffset=".603" shadowOpacity=".5" shadowRadius="3"/><path fill="#fff" d="M62.5 48.9583C67.0833 48.9583 70.8333 53.125 70.8333 53.125C70.8333 53.125 67.0833 57.2917 62.5 57.2917C57.9167 57.2917 54.1667 53.125 54.1667 53.125C54.1667 53.125 57.9167 48.9583 62.5 48.9583ZM37.5 48.9583C32.9167 48.9583 29.1667 53.125 29.1667 53.125C29.1667 53.125 32.9167 57.2917 37.5 57.2917C42.0833 57.2917 45.8333 53.125 45.8333 53.125C45.8333 53.125 42.0833 48.9583 37.5 48.9583Z" filter="url(#Filter_4)" layerName="path 3" shadowAngle="2.274" shadowColor="#000000" shadowOffset=".603" shadowOpacity=".5" shadowRadius="3"/><path fill="#4e342e" d="M66.6667 53.125C66.6667 55.4167 64.7917 57.2917 62.5 57.2917C60.2083 57.2917 58.3333 55.4167 58.3333 53.125C58.3333 50.8333 60.2083 48.9583 62.5 48.9583C64.7917 48.9583 66.6667 50.8333 66.6667 53.125ZM33.3333 53.125C33.3333 55.4167 35.2083 57.2917 37.5 57.2917C39.7917 57.2917 41.6667 55.4167 41.6667 53.125C41.6667 50.8333 39.7917 48.9583 37.5 48.9583C35.2083 48.9583 33.3333 50.8333 33.3333 53.125Z" filter="url(#Filter_5)" layerName="path 4" shadowAngle="2.274" shadowColor="#000000" shadowOffset=".603" shadowOpacity=".5" shadowRadius="3"/></g></svg>