<svg xmlns="http://www.w3.org/2000/svg" xmlns:vectornator="http://vectornator.io" xmlns:xlink="http://www.w3.org/1999/xlink" width="100%" height="100%" stroke-miterlimit="10" version="1.1" viewBox="0 0 100 100" xml:space="preserve" style="fill-rule:nonzero;clip-rule:evenodd;stroke-linecap:round;stroke-linejoin:round"><defs><filter id="Filter" width="37.496" height="37.496" x="30.887" y="-2.5" color-interpolation-filters="sRGB" filterUnits="userSpaceOnUse"><feDropShadow dx="0" dy="0" flood-color="#000" flood-opacity=".4" in="SourceGraphic" result="Shadow" stdDeviation="1"/></filter><filter id="Filter_2" width="91.662" height="28.642" x="4.169" y="74.858" color-interpolation-filters="sRGB" filterUnits="userSpaceOnUse"><feDropShadow dx="0" dy="1" flood-color="#000" flood-opacity=".4" in="SourceGraphic" result="Shadow" stdDeviation="1"/></filter><filter id="Filter_3" width="69.011" height="60.092" x="15.13" y="9.182" color-interpolation-filters="sRGB" filterUnits="userSpaceOnUse"><feDropShadow dx="0" dy="0" flood-color="#000" flood-opacity=".4" in="SourceGraphic" result="Shadow" stdDeviation="1"/></filter><filter id="Filter_4" width="30.294" height="37.496" x="35.217" y="57.077" color-interpolation-filters="sRGB" filterUnits="userSpaceOnUse"><feDropShadow dx="0" dy="0" flood-color="#000" flood-opacity=".4" in="SourceGraphic" result="Shadow" stdDeviation="1"/></filter><filter id="Filter_5" width="53.878" height="27.231" x="23.061" y="74.025" color-interpolation-filters="sRGB" filterUnits="userSpaceOnUse"><feDropShadow dx="0" dy=".699" flood-color="#000" flood-opacity=".4" in="SourceGraphic" result="Shadow" stdDeviation="1"/></filter><filter id="Filter_6" width="56.333" height="16.284" x="21.728" y="42.216" color-interpolation-filters="sRGB" filterUnits="userSpaceOnUse"><feDropShadow dx="0" dy="0" flood-color="#000" flood-opacity=".4" in="SourceGraphic" result="Shadow" stdDeviation="1"/></filter><filter id="Filter_7" width="50.169" height="51.274" x="24.81" y="27.063" color-interpolation-filters="sRGB" filterUnits="userSpaceOnUse"><feDropShadow dx="0" dy="0" flood-color="#000" flood-opacity=".4" in="SourceGraphic" result="Shadow" stdDeviation="1"/></filter><filter id="Filter_8" width="17.164" height="6.839" x="41.055" y="45.079" color-interpolation-filters="sRGB" filterUnits="userSpaceOnUse"><feDropShadow dx="0" dy="1" flood-color="#000" flood-opacity=".4" in="SourceGraphic" result="Shadow" stdDeviation=".5"/></filter><filter id="Filter_9" width="43.254" height="21.589" x="28.009" y="38.95" color-interpolation-filters="sRGB" filterUnits="userSpaceOnUse"><feDropShadow dx="0" dy="0" flood-color="#000" flood-opacity=".4" in="SourceGraphic" result="Shadow" stdDeviation="1.068"/></filter><filter id="Filter_10" width="37.497" height="15.832" x="30.887" y="41.829" color-interpolation-filters="sRGB" filterUnits="userSpaceOnUse"><feDropShadow dx="0" dy="0" flood-color="#000" flood-opacity=".4" in="SourceGraphic" result="Shadow" stdDeviation="1"/></filter><linearGradient id="LinearGradient" x1="30.561" x2="43.434" y1="35.481" y2="50.366" gradientTransform="matrix(-0.780368 0.821352 -0.821352 -0.780368 106.52 50.8854)" gradientUnits="userSpaceOnUse"><stop offset="0" stop-color="#99e6ff"/><stop offset=".514" stop-color="#d3f4ff"/><stop offset="1" stop-color="#fff"/></linearGradient><linearGradient id="LinearGradient_2" x1="30.561" x2="43.434" y1="35.481" y2="50.366" gradientTransform="matrix(-0.780368 0.821352 -0.821352 -0.780368 128.185 50.8853)" gradientUnits="userSpaceOnUse"><stop offset="0" stop-color="#99e6ff"/><stop offset=".514" stop-color="#d3f4ff"/><stop offset="1" stop-color="#fff"/></linearGradient><linearGradient id="LinearGradient_3" x1="30.561" x2="43.434" y1="35.481" y2="50.366" gradientTransform="matrix(1.13296 0 0 1.13296 -7.01207 -0.132958)" gradientUnits="userSpaceOnUse"><stop offset=".207" stop-color="#f7f7f7"/><stop offset=".562" stop-color="#fff"/><stop offset="1" stop-color="#333334" stop-opacity="0"/></linearGradient><linearGradient id="LinearGradient_4" x1="49.683" x2="62.556" y1="35.481" y2="50.366" gradientTransform="matrix(1.13296 0 0 1.13296 -7.01207 -0.132958)" gradientUnits="userSpaceOnUse"><stop offset=".207" stop-color="#f7f7f7"/><stop offset=".562" stop-color="#fff"/><stop offset="1" stop-color="#333334" stop-opacity="0"/></linearGradient><linearGradient id="LinearGradient_5" x1="49.683" x2="62.556" y1="35.481" y2="50.366" gradientTransform="matrix(1.13296 0 0 1.13296 -7.01207 -0.132958)" gradientUnits="userSpaceOnUse"><stop offset="0" stop-color="#76ddff"/><stop offset=".299" stop-color="#baeeff"/><stop offset=".657" stop-color="#fff"/></linearGradient><linearGradient id="LinearGradient_6" x1="49.683" x2="62.556" y1="35.481" y2="50.366" gradientTransform="matrix(1.13296 0 0 1.13296 -28.6764 -0.13298)" gradientUnits="userSpaceOnUse"><stop offset="0" stop-color="#76ddff"/><stop offset=".299" stop-color="#baeeff"/><stop offset=".657" stop-color="#fff"/></linearGradient></defs><g layerName="Gladys" opacity="1"><path fill="#546e7a" fill-rule="nonzero" stroke="none" d="M65.8841 16.2483C65.8841 25.22 58.6049 32.4965 49.6358 32.4965L49.6358 32.4965C40.6641 32.4965 33.3875 25.22 33.3875 16.2483L33.3875 16.2483C33.3875 7.27652 40.6641-7.10543e-15 49.6358-7.10543e-15L49.6358-7.10543e-15C58.6076-7.10543e-15 65.8841 7.27652 65.8841 16.2483L65.8841 16.2483Z" filter="url(#Filter)" layerName="path" shadowAngle="-1.566" shadowColor="#000000" shadowOffset="0" shadowOpacity=".4" shadowRadius="2"/><path fill="#9c27b0" fill-rule="nonzero" stroke="none" d="M63.1351 76.5277C63.1351 76.5277 60.468 86.6575 49.6358 86.6575C38.8036 86.6575 37.4991 76.3576 37.4991 76.3576C37.4991 76.3576 6.2269 85.9388 6.67356 100L33.0378 100L93.331 100C93.4234 83.6666 63.1351 76.5277 63.1351 76.5277Z" filter="url(#Filter_2)" layerName="path 2" shadowAngle="1.571" shadowColor="#000000" shadowOffset="1" shadowOpacity=".4" shadowRadius="2"/><path fill="#78909c" fill-rule="nonzero" stroke="none" d="M49.1096 11.6836C39.9568 11.5704 24.6961 16.2535 19.1068 32.5017C13.5174 48.75 25.0677 61.3941 32.5394 66.7737C30.202 63.6728 28.5537 59.979 27.8331 55.9044C27.8237 55.9019 27.8556 55.9166 27.8462 55.9141C27.4284 55.8023 26.9571 55.6578 26.5584 55.3379C24.5472 53.7243 23.7044 49.7301 24.6955 47.0886C25.1911 45.7678 26.2031 45.0425 27.3101 44.7164L29.8921 47.6196L29.8921 39.7597L59.8949 29.5631L69.8958 38.4144L69.8958 47.6196L72.4777 44.7164C73.5848 45.0425 74.5968 45.7678 75.0924 47.0886C76.0835 49.7301 75.2407 53.7243 73.2295 55.3379C72.8308 55.6578 72.4053 55.7926 71.9875 55.9044C71.987 55.9075 71.9554 55.9013 71.9548 55.9044C71.2342 59.979 69.5859 63.6728 67.2485 66.7737C73.7999 62.8792 86.2685 49.652 79.8641 32.5017C73.7965 16.2535 57.6729 11.7896 49.1096 11.6836Z" filter="url(#Filter_3)" layerName="Curve 1" shadowAngle="1.571" shadowColor="#000000" shadowOffset="0" shadowOpacity=".4" shadowRadius="2"/><g layerName="Group 3" opacity="1"><path fill="#ff9800" fill-rule="nonzero" stroke="none" d="M50.3642 92.0736C37.7174 92.0736 37.7174 75.8253 37.7174 75.8253L37.7174 59.577L63.011 59.577L63.011 75.8253C63.011 75.8253 63.011 92.0736 50.3642 92.0736Z" filter="url(#Filter_4)" layerName="path 3" shadowAngle="1.571" shadowColor="#000000" shadowOffset="0" shadowOpacity=".4" shadowRadius="2"/><path fill="#fce4ec" fill-rule="nonzero" stroke="none" d="M37.6884 75.8253C37.2775 75.9074 31.2704 77.1615 25.5612 80.4668C26.393 82.0846 28.1246 83.3839 30.0907 83.3839C30.1361 83.3839 30.8041 83.3515 31.099 83.3017C31.4393 83.2395 31.767 83.1449 32.0745 83.0205C31.8653 83.1524 31.6661 83.3017 31.4746 83.471C29.39 85.2904 29.1934 88.4389 31.0385 90.4973C31.1066 90.5719 31.2628 90.7412 31.3359 90.8109C33.3046 92.7523 36.5612 92.8269 38.5324 90.8806C38.5702 90.8432 38.6055 90.8084 38.6407 90.7711C38.6231 90.8233 38.6055 90.8731 38.5903 90.9254C37.7837 93.5587 39.2886 96.3364 41.9529 97.1328C42.0436 97.1602 42.2579 97.2174 42.3486 97.2398C45.0532 97.8969 47.8638 96.2667 48.5191 93.5985C48.5317 93.5438 48.5443 93.489 48.5569 93.4367C48.562 93.5139 48.5695 93.591 48.5796 93.6657C48.8821 96.1995 51.1129 98.0562 53.6411 98.0562C53.8377 98.0562 54.0368 98.0463 54.2359 98.0214C57.0036 97.7003 58.9798 95.2263 58.6546 92.4959L58.4605 91.5625C59.2318 93.3397 61.0164 94.5866 63.0985 94.5866C63.6056 94.5866 64.8145 94.4546 65.9821 93.6871C66.5788 93.2948 67.2564 92.5518 67.6548 91.6445C68.0358 90.7766 68.1512 89.7442 68.1303 89.3422C68.1037 88.8309 67.9571 88.1332 67.7186 87.5841C67.6184 87.3534 67.3963 86.9812 67.1634 86.671C66.9456 86.3807 66.7162 86.1473 66.6249 86.0595C67.4214 86.5772 68.3717 86.8833 69.3976 86.8833C72.1804 86.8833 74.4388 84.6532 74.4388 81.9054C74.4388 81.4798 74.3683 81.0741 74.2674 80.6809C74.217 80.4768 74.0003 80.0064 73.9272 79.8048C68.3717 76.7309 62.9819 75.8253 62.9819 75.8253C62.9819 75.8253 60.4165 85.7932 50.334 85.7932C40.2514 85.7932 37.6985 75.8228 37.6884 75.8253Z" filter="url(#Filter_5)" layerName="path 4" shadowAngle="1.571" shadowColor="#000000" shadowOffset=".699" shadowOpacity=".4" shadowRadius="2"/></g><path fill="#ffa726" fill-rule="nonzero" stroke="none" d="M27.2938 44.7164C26.1735 45.043 25.1479 45.7657 24.6465 47.0886C23.6436 49.7344 24.5069 53.7217 26.5421 55.3379C26.9546 55.6655 27.3851 55.7905 27.8167 55.9044L28.7403 56.0005C28.7403 56.0005 27.3919 52.5767 27.3918 51.4434L27.2938 44.7164ZM72.4614 44.7164L72.3634 51.4434C72.3633 52.8066 71.8906 54.5593 71.6856 55.8594C71.6608 56.0167 71.9548 55.9044 71.9548 55.9044C72.3434 55.833 72.8333 55.6655 73.2458 55.3379C75.2811 53.7217 76.1443 49.7344 75.1414 47.0886C74.6399 45.7657 73.5817 45.043 72.4614 44.7164Z" filter="url(#Filter_6)" layerName="Curve 5" shadowAngle="1.571" shadowColor="#000000" shadowOffset="0" shadowOpacity=".4" shadowRadius="2"/><path fill="#ffb74d" fill-rule="nonzero" stroke="none" d="M59.8949 29.5631L29.8921 39.7597L29.8921 44.7872L29.8921 47.6196L27.3101 44.7164L27.4082 51.4434C27.4082 52.9691 27.5856 54.4564 27.8331 55.9044C29.7694 67.2325 38.8757 75.8374 49.8939 75.8374C60.9122 75.8374 70.0184 67.2325 71.9548 55.9044C72.2023 54.4564 72.3813 52.9691 72.3813 51.4434L72.4795 44.7164L69.8958 47.6196L69.8958 44.7872L69.8958 38.4144L59.8949 29.5631Z" filter="url(#Filter_7)" layerName="Curve 1" shadowAngle="1.571" shadowColor="#000000" shadowOffset="0" shadowOpacity=".4" shadowRadius="2"/><g layerName="Group 2" opacity="1"><path fill="#9c27b0" fill-rule="nonzero" stroke="none" d="M45.1262 49.6675L42.3051 47.8302C42.6626 47.4728 45.9123 45.3287 49.6358 45.3287C53.3594 45.3287 56.609 47.4701 56.9692 47.8275L54.14 49.6594C53.3574 48.893 51.8893 47.7428 49.6358 47.7448C47.3824 47.7469 45.9142 48.893 45.1262 49.6675Z" filter="url(#Filter_8)" layerName="path" shadowAngle="1.571" shadowColor="#000000" shadowOffset="1" shadowOpacity=".4" shadowRadius="1"/><path fill="#9c27b0" fill-rule="nonzero" stroke="none" d="M38.8036 41.6207C34.3218 41.6207 30.6795 45.2603 30.6795 49.7448C30.6795 54.2266 34.3218 57.869 38.8036 57.869C43.2855 57.869 46.9278 54.2266 46.9278 49.7448C46.9278 45.2603 43.2855 41.6207 38.8036 41.6207L38.8036 41.6207ZM60.468 41.6207C55.9835 41.6207 52.3439 45.2603 52.3439 49.7448C52.3439 54.2266 55.9835 57.869 60.468 57.869C64.9471 57.869 68.5921 54.2266 68.5921 49.7448C68.5921 45.2603 64.9471 41.6207 60.468 41.6207L60.468 41.6207Z" filter="url(#Filter_9)" layerName="path" shadowAngle="1.571" shadowColor="#000000" shadowOffset="0" shadowOpacity=".4" shadowRadius="2.136"/></g><g filter="url(#Filter_10)" layerName="Group 1" shadowAngle="1.571" shadowColor="#000000" shadowOffset="0" shadowOpacity=".4" shadowRadius="2"><path fill="url(#LinearGradient)" fill-rule="nonzero" stroke="none" d="M42.7301 53.4754C44.7904 51.3068 44.7027 47.8787 42.5342 45.8184C40.3657 43.758 36.9375 43.8458 34.8772 46.0143C32.8169 48.1828 32.9046 51.611 35.0731 53.6713C37.2416 55.7316 40.6698 55.6439 42.7301 53.4754Z" layerName="path 13" opacity="1"/><path fill="url(#LinearGradient_2)" fill-rule="nonzero" stroke="none" d="M64.3945 53.4753C66.4548 51.3068 66.3671 47.8787 64.1986 45.8183C62.03 43.758 58.6019 43.8457 56.5415 46.0143C54.4812 48.1828 54.5689 51.611 56.7375 53.6713C58.906 55.7316 62.3342 55.6439 64.3945 53.4753Z" layerName="path 15" opacity="1"/><path fill="url(#LinearGradient_3)" fill-rule="nonzero" stroke="none" d="M38.8036 44.3287C35.8124 44.3287 33.3875 46.7536 33.3875 49.7448C33.3875 52.736 35.8124 55.1609 38.8036 55.1609C41.7949 55.1609 44.2197 52.736 44.2197 49.7448C44.2197 46.7536 41.7949 44.3287 38.8036 44.3287Z" layerName="path 8" opacity="1"/><path fill="url(#LinearGradient_4)" fill-rule="nonzero" stroke="none" d="M60.468 44.3287C57.4768 44.3287 55.0519 46.7536 55.0519 49.7448C55.0519 52.736 57.4768 55.1609 60.468 55.1609C63.4592 55.1609 65.8841 52.736 65.8841 49.7448C65.8841 46.7536 63.4592 44.3287 60.468 44.3287Z" layerName="path 10" opacity="1"/><path fill="url(#LinearGradient_5)" fill-rule="nonzero" stroke="none" d="M60.468 44.3287C57.4768 44.3287 55.0519 46.7536 55.0519 49.7448C55.0519 52.736 57.4768 55.1609 60.468 55.1609C63.4592 55.1609 65.8841 52.736 65.8841 49.7448C65.8841 46.7536 63.4592 44.3287 60.468 44.3287Z" layerName="path 9" opacity=".761"/><path fill="url(#LinearGradient_6)" fill-rule="nonzero" stroke="none" d="M38.8036 44.3287C35.8124 44.3287 33.3875 46.7536 33.3875 49.7448C33.3875 52.736 35.8124 55.1609 38.8036 55.1609C41.7949 55.1609 44.2197 52.736 44.2197 49.7448C44.2197 46.7536 41.7949 44.3287 38.8036 44.3287Z" layerName="path 16" opacity=".761"/></g></g></svg>