<svg xmlns="http://www.w3.org/2000/svg" width="100%" height="100%" stroke-linecap="round" stroke-linejoin="round" stroke-miterlimit="10" clip-rule="evenodd" viewBox="0 0 100 100" xml:space="preserve"><defs><linearGradient id="a" x1="0" x2="1" y1="0" y2="0" gradientTransform="rotate(-42.976 107.247 6.216)scale(63.6878)" gradientUnits="userSpaceOnUse"><stop offset="0" stop-color="#d42c67" stop-opacity=".65"/><stop offset=".224" stop-color="#ff3557" stop-opacity=".76"/><stop offset=".501" stop-color="#ff2626" stop-opacity=".89"/><stop offset=".7" stop-color="#ff191d" stop-opacity=".7"/><stop offset=".921" stop-color="#ff3348" stop-opacity=".74"/><stop offset="1" stop-color="#d42c67" stop-opacity=".6"/></linearGradient><linearGradient id="b" x1="0" x2="1" y1="0" y2="0" gradientTransform="rotate(-46.312 116.371 44.386)scale(134.0835)" gradientUnits="userSpaceOnUse"><stop offset="0" stop-color="#94acff" stop-opacity=".72"/><stop offset=".276" stop-color="#18abfc" stop-opacity=".78"/><stop offset=".493" stop-color="#4ebdfe" stop-opacity=".86"/><stop offset=".679" stop-color="#76ccfe" stop-opacity=".84"/><stop offset=".878" stop-color="#94acff" stop-opacity=".74"/><stop offset="1" stop-color="#94acff" stop-opacity=".6"/></linearGradient><linearGradient id="d" x1="0" x2="1" y1="0" y2="0" gradientTransform="rotate(-44.69 114.234 33.6)scale(112.2299)" gradientUnits="userSpaceOnUse"><stop offset="0" stop-color="#cc525e" stop-opacity=".9"/><stop offset="1" stop-color="#e62e2e"/></linearGradient><linearGradient id="e" x1="0" x2="1" y1="0" y2="0" gradientTransform="rotate(-44.69 114.234 33.6)scale(112.2299)" gradientUnits="userSpaceOnUse"><stop offset="0" stop-color="#cc525e" stop-opacity=".9"/><stop offset="1" stop-color="#e62e2e"/></linearGradient><linearGradient id="g" x1="0" x2="1" y1="0" y2="0" gradientTransform="rotate(-44.69 114.234 33.6)scale(112.2299)" gradientUnits="userSpaceOnUse"><stop offset="0" stop-color="#cc525e" stop-opacity=".9"/><stop offset="1" stop-color="#e62e2e"/></linearGradient><linearGradient id="h" x1="0" x2="1" y1="0" y2="0" gradientTransform="rotate(-44.69 114.234 33.6)scale(112.2299)" gradientUnits="userSpaceOnUse"><stop offset="0" stop-color="#cc525e" stop-opacity=".9"/><stop offset="1" stop-color="#e62e2e"/></linearGradient><linearGradient id="j" x1="0" x2="1" y1="0" y2="0" gradientTransform="rotate(-44.69 114.234 33.6)scale(112.2299)" gradientUnits="userSpaceOnUse"><stop offset="0" stop-color="#ff8000" stop-opacity=".894"/><stop offset="1" stop-color="#f50"/></linearGradient><linearGradient id="k" x1="0" x2="1" y1="0" y2="0" gradientTransform="rotate(-44.69 114.234 33.6)scale(112.2299)" gradientUnits="userSpaceOnUse"><stop offset="0" stop-color="#ff8000" stop-opacity=".894"/><stop offset="1" stop-color="#f50"/></linearGradient><linearGradient id="l" x1="0" x2="1" y1="0" y2="0" gradientTransform="rotate(-45.866 77.797 -49.224)scale(61.1741)" gradientUnits="userSpaceOnUse"><stop offset="0" stop-color="#ffbf00" stop-opacity=".894"/><stop offset="1" stop-color="#f50"/></linearGradient><linearGradient id="m" x1="0" x2="1" y1="0" y2="0" gradientTransform="rotate(-45.327 100.333 4.256)scale(106.3975)" gradientUnits="userSpaceOnUse"><stop offset="0" stop-color="#ffbf00" stop-opacity=".894"/><stop offset="1" stop-color="#f50"/></linearGradient><filter id="c" width="57.504" height="57.471" x="34.069" y="8.266" color-interpolation-filters="sRGB" filterUnits="userSpaceOnUse"><feGaussianBlur in="SourceGraphic" result="Blur" stdDeviation="2"/></filter><filter id="f" width="65.004" height="64.971" x="30.319" y="4.516" color-interpolation-filters="sRGB" filterUnits="userSpaceOnUse"><feGaussianBlur in="SourceGraphic" result="Blur" stdDeviation="3.5"/></filter><filter id="i" width="57.504" height="57.471" x="34.069" y="8.266" color-interpolation-filters="sRGB" filterUnits="userSpaceOnUse"><feGaussianBlur in="SourceGraphic" result="Blur" stdDeviation="2"/></filter></defs><g><g><g opacity=".81"><path fill="url(#a)" d="M46.234 36.92c-9.209 0-16.65 7.476-16.65 16.685s7.441 16.65 16.65 16.65 16.686-7.441 16.686-16.65c0-1.951-.42-3.798-1.036-5.538L51.308 58.643a7.15 7.15 0 0 1-10.112 0c-4.278-4.278-.936-9.175 0-10.112l10.576-10.576c-1.74-.616-3.587-1.036-5.538-1.036" opacity="1"/><path fill="url(#b)" d="M46.234 8.335C21.24 8.335 1 28.611 1 53.605S21.24 98.84 46.234 98.84s45.27-20.24 45.27-45.234c0-7.263-1.89-14.033-4.93-20.116l-4.11 4.109c-.506.508-1.288.607-1.93.286L74.89 35.06l-2.358 2.358c2.91 4.72 4.681 10.235 4.681 16.186 0 17.103-13.875 30.942-30.978 30.942s-30.942-13.84-30.942-30.942c0-17.103 13.84-30.978 30.942-30.978 5.95 0 11.467 1.772 16.186 4.68l2.358-2.357-2.823-5.646c-.321-.64-.221-1.423.286-1.93l4.11-4.108c-6.084-3.041-12.853-4.93-20.117-4.93" opacity="1"/></g><g filter="url(#c)" opacity=".8"><path fill="url(#d)" d="M51.772 37.955 41.196 48.531c-.936.937-4.278 5.834 0 10.112a7.15 7.15 0 0 0 10.112 0l10.576-10.576a16.58 16.58 0 0 0-10.112-10.112" opacity="1"/><path fill="url(#e)" d="m66.35 13.266-4.109 4.109c-.508.506-.607 1.288-.286 1.93l2.823 5.645-2.358 2.358A30.9 30.9 0 0 1 72.53 37.419l2.358-2.358 5.646 2.823c.64.321 1.423.222 1.93-.286l4.108-4.109A45.14 45.14 0 0 0 66.35 13.266" opacity="1"/></g><g filter="url(#f)" opacity=".81"><path fill="url(#g)" d="M51.772 37.955 41.196 48.531c-.936.937-4.278 5.834 0 10.112a7.15 7.15 0 0 0 10.112 0l10.576-10.576a16.58 16.58 0 0 0-10.112-10.112" opacity="1"/><path fill="url(#h)" d="m66.35 13.266-4.109 4.109c-.508.506-.607 1.288-.286 1.93l2.823 5.645-2.358 2.358A30.9 30.9 0 0 1 72.53 37.419l2.358-2.358 5.646 2.823c.64.321 1.423.222 1.93-.286l4.108-4.109A45.14 45.14 0 0 0 66.35 13.266" opacity="1"/></g><g filter="url(#i)" opacity=".7"><path fill="url(#j)" d="M51.772 37.955 41.196 48.531c-.936.937-4.278 5.834 0 10.112a7.15 7.15 0 0 0 10.112 0l10.576-10.576a16.58 16.58 0 0 0-10.112-10.112" opacity="1"/><path fill="url(#k)" d="m66.35 13.266-4.109 4.109c-.508.506-.607 1.288-.286 1.93l2.823 5.645-2.358 2.358A30.9 30.9 0 0 1 72.53 37.419l2.358-2.358 5.646 2.823c.64.321 1.423.222 1.93-.286l4.108-4.109A45.14 45.14 0 0 0 66.35 13.266" opacity="1"/></g><g opacity=".8"><path fill="url(#l)" d="M79.472 2.032c.182 0 .348.1.43.262l5.704 11.408c.115.23.303.418.534.533l11.407 5.705a.48.48 0 0 1 .257.348.46.46 0 0 1-.133.412L81.626 36.745a.47.47 0 0 1-.548.088l-5.665-2.832a1.19 1.19 0 0 0-1.374.222L50.46 57.805a5.93 5.93 0 0 1-4.213 1.743 5.92 5.92 0 0 1-4.211-1.744c-3.964-3.963-.043-8.38 0-8.422l23.579-23.58a1.19 1.19 0 0 0 .224-1.374l-2.832-5.664a.48.48 0 0 1 .088-.548L79.139 2.17a.47.47 0 0 1 .333-.139m0-1.19c-.44-.001-.863.175-1.174.488L62.253 17.372a1.66 1.66 0 0 0-.312 1.923l2.832 5.664-23.58 23.58c-.935.936-4.277 5.828 0 10.106a7.12 7.12 0 0 0 5.053 2.094c1.83 0 3.659-.698 5.052-2.094l23.58-23.581 5.664 2.832a1.675 1.675 0 0 0 1.925-.312l16.045-16.045a1.665 1.665 0 0 0-.434-2.668l-11.407-5.705L80.966 1.76a1.66 1.66 0 0 0-1.494-.92" opacity=".3"/><path fill="url(#m)" d="m98.078 18.873-11.407-5.702-5.705-11.41a1.668 1.668 0 0 0-2.668-.434L62.253 17.372a1.66 1.66 0 0 0-.312 1.923l2.832 5.664-23.58 23.58c-.935.936-4.277 5.828 0 10.106a7.146 7.146 0 0 0 10.108 0L74.88 35.066l5.664 2.832a1.66 1.66 0 0 0 1.923-.312l16.045-16.045a1.668 1.668 0 0 0-.434-2.668" opacity=".87"/></g><g fill-opacity=".259"><g fill="#e62e2e"><path d="M41.102 59.057a7.127 7.127 0 0 0 10.08 0l12.001-12a18.47 18.47 0 0 0-10.08-10.08l-12 12a7.127 7.127 0 0 0 0 10.08" opacity=".4"/><path d="M41.102 59.057a7.127 7.127 0 0 0 10.08 0L64.53 45.71a20.28 20.28 0 0 0-10.08-10.081L41.101 48.977a7.127 7.127 0 0 0 0 10.08" opacity=".3"/><path d="M41.102 59.057a7.127 7.127 0 0 0 10.08 0l14.681-14.68a22.08 22.08 0 0 0-10.08-10.08l-14.68 14.68a7.127 7.127 0 0 0 0 10.08" opacity=".2"/><path d="M41.102 59.057a7.127 7.127 0 0 0 10.08 0l16.014-16.012a23.9 23.9 0 0 0-10.081-10.081L41.102 48.977a7.127 7.127 0 0 0 0 10.081" opacity=".1"/></g><g fill="#cc525e"><path d="m61.796 19.81 2.824 5.65-3.59 3.59a29.2 29.2 0 0 1 10.081 10.081l3.59-3.59 5.65 2.825c.64.32 1.412.195 1.917-.311l5.543-5.543a47.1 47.1 0 0 0-20.159-20.159l-5.545 5.538a1.67 1.67 0 0 0-.312 1.92" opacity=".4"/><path d="m61.796 19.81 2.824 5.65-4.887 4.887a27.46 27.46 0 0 1 10.081 10.081l4.887-4.887 5.65 2.825c.64.32 1.412.195 1.917-.311l6.874-6.874a48.97 48.97 0 0 0-20.16-20.158l-6.875 6.868a1.67 1.67 0 0 0-.312 1.92" opacity=".3"/><path d="m61.796 19.81 2.824 5.65-6.184 6.185a25.7 25.7 0 0 1 10.08 10.08l6.185-6.184 5.65 2.825c.64.32 1.412.195 1.917-.311l8.192-8.192A50.8 50.8 0 0 0 70.3 9.703l-8.193 8.188a1.67 1.67 0 0 0-.312 1.92" opacity=".2"/><path d="m61.796 19.81 2.824 5.65-7.507 7.508a23.9 23.9 0 0 1 10.08 10.081l7.508-7.508 5.65 2.825c.64.32 1.412.195 1.917-.311l9.497-9.497A52.6 52.6 0 0 0 71.605 8.4l-9.498 9.491a1.67 1.67 0 0 0-.312 1.92" opacity=".1"/></g></g></g></g></svg>