<svg xmlns="http://www.w3.org/2000/svg" width="100%" height="100%" stroke-miterlimit="10" version="1.1" viewBox="0 0 100 100" xml:space="preserve" style="fill-rule:nonzero;clip-rule:evenodd;stroke-linecap:round;stroke-linejoin:round"><defs><linearGradient id="goalBullseyea" x1="0" x2="1" y1="0" y2="0" gradientTransform="rotate(-45.866 77.796 -49.224) scale(61.1741)" gradientUnits="userSpaceOnUse"><stop offset="0" stop-color="#ff66a2" stop-opacity=".9"/><stop offset=".979" stop-color="#ff00f3"/></linearGradient><linearGradient id="goalBullseyeb" x1="0" x2="1" y1="0" y2="0" gradientTransform="rotate(-45.866 77.796 -49.224) scale(61.1741)" gradientUnits="userSpaceOnUse"><stop offset="0" stop-color="#ff66a2" stop-opacity=".9"/><stop offset=".979" stop-color="#ff00f3"/></linearGradient><linearGradient id="goalBullseyec" x1="0" x2="1" y1="0" y2="0" gradientTransform="rotate(-42.976 107.247 6.216) scale(63.6878)" gradientUnits="userSpaceOnUse"><stop offset="0" stop-color="#d42c67" stop-opacity=".65"/><stop offset=".224" stop-color="#ff3557" stop-opacity=".76"/><stop offset=".501" stop-color="#ff2626" stop-opacity=".89"/><stop offset=".7" stop-color="#ff191d" stop-opacity=".7"/><stop offset=".921" stop-color="#ff3348" stop-opacity=".74"/><stop offset="1" stop-color="#d42c67" stop-opacity=".6"/></linearGradient><linearGradient id="goalBullseyed" x1="0" x2="1" y1="0" y2="0" gradientTransform="rotate(-46.312 116.371 44.386) scale(134.0835)" gradientUnits="userSpaceOnUse"><stop offset="0" stop-color="#94acff" stop-opacity=".72"/><stop offset=".276" stop-color="#18abfc" stop-opacity=".78"/><stop offset=".493" stop-color="#4ebdfe" stop-opacity=".86"/><stop offset=".679" stop-color="#76ccfe" stop-opacity=".84"/><stop offset=".878" stop-color="#94acff" stop-opacity=".74"/><stop offset="1" stop-color="#94acff" stop-opacity=".6"/></linearGradient><linearGradient id="goalBullseyef" x1="0" x2="1" y1="0" y2="0" gradientTransform="rotate(-44.69 114.234 33.6) scale(112.2299)" gradientUnits="userSpaceOnUse"><stop offset="0" stop-color="#cc525e" stop-opacity=".9"/><stop offset="1" stop-color="#e62e2e"/></linearGradient><linearGradient id="goalBullseyeg" x1="0" x2="1" y1="0" y2="0" gradientTransform="rotate(-44.69 114.234 33.6) scale(112.2299)" gradientUnits="userSpaceOnUse"><stop offset="0" stop-color="#cc525e" stop-opacity=".9"/><stop offset="1" stop-color="#e62e2e"/></linearGradient><linearGradient id="goalBullseyei" x1="0" x2="1" y1="0" y2="0" gradientTransform="rotate(-44.69 114.234 33.6) scale(112.2299)" gradientUnits="userSpaceOnUse"><stop offset="0" stop-color="#cc525e" stop-opacity=".9"/><stop offset="1" stop-color="#e62e2e"/></linearGradient><linearGradient id="goalBullseyej" x1="0" x2="1" y1="0" y2="0" gradientTransform="rotate(-44.69 114.234 33.6) scale(112.2299)" gradientUnits="userSpaceOnUse"><stop offset="0" stop-color="#cc525e" stop-opacity=".9"/><stop offset="1" stop-color="#e62e2e"/></linearGradient><linearGradient id="goalBullseyel" x1="0" x2="1" y1="0" y2="0" gradientTransform="rotate(-44.69 114.234 33.6) scale(112.2299)" gradientUnits="userSpaceOnUse"><stop offset="0" stop-color="#ff8000" stop-opacity=".894"/><stop offset="1" stop-color="#f50"/></linearGradient><linearGradient id="goalBullseyem" x1="0" x2="1" y1="0" y2="0" gradientTransform="rotate(-44.69 114.234 33.6) scale(112.2299)" gradientUnits="userSpaceOnUse"><stop offset="0" stop-color="#ff8000" stop-opacity=".894"/><stop offset="1" stop-color="#f50"/></linearGradient><linearGradient id="goalBullseyen" x1="0" x2="1" y1="0" y2="0" gradientTransform="rotate(-45.866 77.797 -49.224) scale(61.1741)" gradientUnits="userSpaceOnUse"><stop offset="0" stop-color="#ffbf00" stop-opacity=".894"/><stop offset="1" stop-color="#f50"/></linearGradient><linearGradient id="goalBullseyeo" x1="0" x2="1" y1="0" y2="0" gradientTransform="scale(106.3975) rotate(-45.327 .943 .04)" gradientUnits="userSpaceOnUse"><stop offset="0" stop-color="#ffbf00" stop-opacity=".894"/><stop offset="1" stop-color="#f50"/></linearGradient><filter id="goalBullseyee" width="57.504" height="57.471" x="34.069" y="8.266" color-interpolation-filters="sRGB" filterUnits="userSpaceOnUse"><feGaussianBlur in="SourceGraphic" result="Blur" stdDeviation="2"/></filter><filter id="goalBullseyeh" width="65.004" height="64.971" x="30.319" y="4.516" color-interpolation-filters="sRGB" filterUnits="userSpaceOnUse"><feGaussianBlur in="SourceGraphic" result="Blur" stdDeviation="3.5"/></filter><filter id="goalBullseyek" width="57.504" height="57.471" x="34.069" y="8.266" color-interpolation-filters="sRGB" filterUnits="userSpaceOnUse"><feGaussianBlur in="SourceGraphic" result="Blur" stdDeviation="2"/></filter></defs><g opacity="1"><path fill="#000" fill-rule="nonzero" d="M0 0L100 0L100 0L100 100L100 100L0 100L0 100L0 0L0 0Z" opacity="1"/><g fill-rule="nonzero" opacity="1"><g opacity=".81"><path fill="url(#goalBullseyec)" d="M46.2341 36.9192C37.0253 36.9192 29.584 44.3963 29.584 53.6051C29.584 62.8138 37.0253 70.2552 46.2341 70.2552C55.4429 70.2552 62.92 62.8138 62.92 53.6051C62.92 51.6538 62.4997 49.8072 61.8838 48.0669L51.3078 58.643C48.517 61.4342 43.987 61.4342 41.1962 58.643C36.9181 54.3649 40.2601 49.4675 41.1962 48.5314L51.7723 37.9553C50.032 37.3394 48.1854 36.9192 46.2341 36.9192Z" opacity="1"/><path fill="url(#goalBullseyed)" d="M46.2341 8.33522C21.2398 8.33522 1 28.6108 1 53.6051C1 78.5993 21.2398 98.8392 46.2341 98.8392C71.2284 98.8392 91.504 78.5993 91.504 53.6051C91.504 46.3415 89.6147 39.5724 86.5732 33.4891L82.4643 37.598C81.9579 38.1057 81.1759 38.2053 80.5349 37.8839L74.8895 35.0612L72.5314 37.4194C75.4404 42.1382 77.212 47.6544 77.212 53.6051C77.212 70.7078 63.3369 84.5472 46.2341 84.5472C29.1314 84.5472 15.292 70.7078 15.292 53.6051C15.292 36.5023 29.1314 22.6272 46.2341 22.6272C52.1848 22.6272 57.7009 24.3987 62.4198 27.3078L64.778 24.9496L61.9553 19.3043C61.6339 18.6633 61.7335 17.8813 62.2411 17.3749L66.3501 13.266C60.2668 10.2245 53.4976 8.33522 46.2341 8.33522Z" opacity="1"/></g><g id="blur" filter="url(#goalBullseyee)" opacity=".8"><path fill="url(#goalBullseyef)" d="M51.7723 37.9553L41.1962 48.5314C40.2601 49.4675 36.9181 54.3649 41.1962 58.643C43.987 61.4342 48.517 61.4342 51.3078 58.643L61.8838 48.0669C60.2089 43.3344 56.5047 39.6303 51.7723 37.9553Z" opacity="1"/><path fill="url(#goalBullseyeg)" d="M66.3501 13.266L62.2411 17.3749C61.7335 17.8813 61.6339 18.6633 61.9553 19.3043L64.778 24.9496L62.4198 27.3078C66.5444 29.8506 69.9886 33.2948 72.5314 37.4194L74.8895 35.0612L80.5349 37.8839C81.1759 38.2053 81.9579 38.1057 82.4643 37.598L86.5732 33.4891C82.1903 24.7227 75.1165 17.6488 66.3501 13.266Z" opacity="1"/></g><g filter="url(#goalBullseyeh)" opacity=".81"><path fill="url(#goalBullseyei)" d="M51.7723 37.9553L41.1962 48.5314C40.2601 49.4675 36.9181 54.3649 41.1962 58.643C43.987 61.4342 48.517 61.4342 51.3078 58.643L61.8838 48.0669C60.2089 43.3344 56.5047 39.6303 51.7723 37.9553Z" opacity="1"/><path fill="url(#goalBullseyej)" d="M66.3501 13.266L62.2411 17.3749C61.7335 17.8813 61.6339 18.6633 61.9553 19.3043L64.778 24.9496L62.4198 27.3078C66.5444 29.8506 69.9886 33.2948 72.5314 37.4194L74.8895 35.0612L80.5349 37.8839C81.1759 38.2053 81.9579 38.1057 82.4643 37.598L86.5732 33.4891C82.1903 24.7227 75.1165 17.6488 66.3501 13.266Z" opacity="1"/></g><g filter="url(#goalBullseyek)" opacity=".7"><path fill="url(#goalBullseyel)" d="M51.7723 37.9553L41.1962 48.5314C40.2601 49.4675 36.9181 54.3649 41.1962 58.643C43.987 61.4342 48.517 61.4342 51.3078 58.643L61.8838 48.0669C60.2089 43.3344 56.5047 39.6303 51.7723 37.9553Z" opacity="1"/><path fill="url(#goalBullseyem)" d="M66.3501 13.266L62.2411 17.3749C61.7335 17.8813 61.6339 18.6633 61.9553 19.3043L64.778 24.9496L62.4198 27.3078C66.5444 29.8506 69.9886 33.2948 72.5314 37.4194L74.8895 35.0612L80.5349 37.8839C81.1759 38.2053 81.9579 38.1057 82.4643 37.598L86.5732 33.4891C82.1903 24.7227 75.1165 17.6488 66.3501 13.266Z" opacity="1"/></g><g id="arrow" opacity=".8"><path fill="url(#goalBullseyen)" d="M79.4724 2.03245C79.6536 2.03119 79.8197 2.13273 79.9012 2.29447L85.6061 13.7018C85.7214 13.9328 85.9087 14.1201 86.1397 14.2354L97.547 19.9403C97.6835 20.0084 97.7791 20.1376 97.8043 20.2881C97.8314 20.4391 97.7813 20.5937 97.6709 20.7001L81.6258 36.7453C81.4819 36.891 81.2602 36.9267 81.0779 36.8334L75.4135 34.0012C74.9554 33.7717 74.4019 33.861 74.0391 34.2227L50.4597 57.8045C49.3439 58.9245 47.8269 59.5522 46.246 59.5481C44.6548 59.5481 43.1589 58.9288 42.0346 57.8045C38.071 53.8408 41.9918 49.4246 42.0346 49.3818L65.614 25.8024C65.9766 25.4401 66.0668 24.8866 65.8379 24.428L63.0057 18.7636C62.9147 18.5809 62.9502 18.3606 63.0938 18.2157L79.139 2.17061C79.2271 2.08171 79.3473 2.03193 79.4724 2.03245M79.4724 0.841454C79.0315 0.840845 78.6086 1.01668 78.2981 1.32976L62.253 17.3725C61.7454 17.8789 61.6196 18.6538 61.941 19.2948L64.7732 24.9592L41.1938 48.5385C40.2577 49.4747 36.9157 54.3673 41.1938 58.6453C42.5318 59.9882 44.3503 60.7419 46.246 60.7391C48.0754 60.7391 49.9047 60.0412 51.2982 58.6453L74.8776 35.0636L80.542 37.8958C81.1842 38.2145 81.958 38.089 82.4666 37.5837L98.5117 21.5386C98.8907 21.1601 99.0643 20.6223 98.9784 20.0936C98.8925 19.5649 98.5575 19.1099 98.0782 18.8708L86.6708 13.1659L80.966 1.7609C80.6838 1.19502 80.1048 0.838526 79.4724 0.841454Z" opacity=".3"/><path fill="url(#goalBullseyeo)" d="M98.0782 18.8732L86.6708 13.1707L80.966 1.7609C80.7261 1.28244 80.2711 0.948209 79.7428 0.862362C79.2145 0.776515 78.6771 0.949489 78.2981 1.32738L62.253 17.3725C61.7454 17.8789 61.6196 18.6538 61.941 19.2948L64.7732 24.9592L41.1938 48.5385C40.2577 49.4747 36.9157 54.3673 41.1938 58.6453C43.9846 61.4366 48.5098 61.4366 51.3006 58.6453L74.88 35.066L80.5443 37.8982C81.1853 38.2195 81.9602 38.0938 82.4666 37.5861L98.5117 21.541C98.8896 21.162 99.0626 20.6246 98.9768 20.0963C98.8909 19.568 98.5567 19.113 98.0782 18.8732Z" opacity=".87"/></g><g fill-opacity=".259" opacity="1"><g id="ringfades" fill="#e62e2e" opacity="1"><path d="M41.1021 59.0572C43.8863 61.8414 48.398 61.8414 51.1827 59.0572L63.1832 47.0571C61.3072 42.4832 57.6761 38.8521 53.1022 36.9761L41.1021 48.9766C38.3174 51.7608 38.3174 56.2753 41.1021 59.0577L41.1021 59.0572Z" opacity=".4"/><path d="M41.1021 59.0572C43.8863 61.8414 48.398 61.8414 51.1827 59.0572L64.5303 45.71C62.5008 41.2403 58.919 37.6585 54.4493 35.629L41.1021 48.9766C38.3174 51.7608 38.3174 56.2753 41.1021 59.0577L41.1021 59.0572Z" opacity=".3"/><path d="M41.1021 59.0572C43.8863 61.8414 48.398 61.8414 51.1827 59.0572L65.8632 44.3772C63.7102 39.9944 60.1649 36.4491 55.7822 34.2961L41.1021 48.9766C38.3174 51.7608 38.3174 56.2753 41.1021 59.0577L41.1021 59.0572Z" opacity=".2"/><path d="M41.1021 59.0572C43.8863 61.8414 48.398 61.8414 51.1827 59.0572L67.1956 43.0447C64.9387 38.7374 61.422 35.2206 57.1146 32.9637L41.1016 48.9771C38.317 51.7613 38.317 56.2757 41.1016 59.0581L41.1021 59.0572Z" opacity=".1"/></g><g id="ringfades" fill="#cc525e" opacity="1"><path d="M61.7956 19.8107L64.6203 25.4607L61.0307 29.0503C65.1716 31.5269 68.6348 34.9903 71.1113 39.1313L74.7013 35.5408L80.3508 38.366C80.9901 38.6864 81.7628 38.5611 82.2681 38.055L87.8111 32.512C83.3352 23.8713 76.2929 16.829 67.6522 12.3531L62.107 17.8912C61.6027 18.3982 61.4773 19.1701 61.7951 19.8107L61.7956 19.8107Z" opacity=".4"/><path d="M61.7956 19.8107L64.6203 25.4607L59.7335 30.3475C63.9225 32.7619 67.3999 36.2394 69.8141 40.4285L74.7009 35.5412L80.3508 38.366C80.9901 38.6864 81.7628 38.5611 82.2681 38.055L89.1417 31.1814C84.5699 22.6111 77.5527 15.5941 68.9824 11.0225L62.107 17.8912C61.6027 18.3982 61.4773 19.1701 61.7951 19.8107L61.7956 19.8107Z" opacity=".3"/><path d="M61.7956 19.8107L64.6203 25.4607L58.4363 31.6447C62.6796 33.9875 66.1742 37.4822 68.5169 41.7257L74.7013 35.5412L80.3508 38.366C80.9901 38.6864 81.7628 38.5611 82.2681 38.055L90.4603 29.8628C85.802 21.3569 78.8066 14.3619 70.3005 9.70388L62.1065 17.8912C61.6022 18.3982 61.4768 19.1701 61.7947 19.8107L61.7956 19.8107Z" opacity=".2"/><path d="M61.7956 19.8107L64.6203 25.4607L57.1128 32.9682C61.4202 35.2251 64.9369 38.7418 67.1938 43.0492L74.7013 35.5412L80.3508 38.366C80.9901 38.6864 81.7628 38.5611 82.2681 38.055L91.7647 28.5585C87.0278 20.1119 80.052 13.1362 71.6053 8.39954L62.107 17.8912C61.6027 18.3982 61.4773 19.1701 61.7951 19.8107L61.7956 19.8107Z" opacity=".1"/></g></g></g></g></svg>