<svg fill="none" xmlns="http://www.w3.org/2000/svg" viewBox="0 0 512 512"><path d="M94.421 201.472l-50.773-50.645a149.076 149.076 0 000 210.752l50.773-50.795a77.59 77.59 0 01-22.507-54.645 77.64 77.64 0 0122.507-54.667z" fill="#E8710A"/><path d="M254.869 150.805a149.08 149.08 0 000 210.752l51.734-50.794a77.612 77.612 0 0156.052-125.796 77.609 77.609 0 0152.705 16.505l50.795-50.795a149.04 149.04 0 00-48.26-32.482 149.047 149.047 0 00-114.109-.37 149.058 149.058 0 00-48.469 32.17l-.426.426v.384h-.022zm-14.08 222.955l-37.653-63.019a77.59 77.59 0 01-109.27 0L43.585 361.6a149.098 149.098 0 00194.709 13.952l2.454-1.792M43.584 150.784l50.795 50.688a77.59 77.59 0 01108.757 0l36.843-63.125-2.198-1.686a149.076 149.076 0 00-194.197 14.123z" fill="#F9AB00"/><path d="M466.133 150.805l-50.816 50.667a77.608 77.608 0 01-5.716 103.07 77.612 77.612 0 01-103.041 6.221L254.827 361.6a149.078 149.078 0 00252.322-106.03A149.08 149.08 0 00465.6 150.805h.533z" fill="#E8710A"/></svg>