<svg xmlns="http://www.w3.org/2000/svg" width="100%" height="100%" fill-rule="evenodd" stroke-linejoin="round" stroke-miterlimit="2" clip-rule="evenodd" viewBox="0 0 512 512"><g><g filter="url(#blr1)"><path fill="url(#prefix___Linear1)" d="M12.34 5.953a8.33 8.33 0 01-.247-1.125V3.72a8.251 8.251 0 015.562 2.232H12.34v.001zm-.69 0a8.01 8.01 0 00.257-1.145V3.72a8.251 8.251 0 00-5.562 2.232h5.304l.001.001zm-5.434.187h5.374a7.918 7.918 0 01-.267.696 8.412 8.412 0 01-1.76 2.65L6.216 6.14zm-.263-.187H2.977v.187h2.915a8.44 8.44 0 00-2.357 5.767H0v.186h3.535a8.44 8.44 0 002.357 5.767H2.977v.186h2.976v2.977h.187v-2.915a8.44 8.44 0 005.767 2.357V24h.186v-3.535a8.44 8.44 0 005.767-2.357v2.915h.186v-2.977h2.977v-.186h-2.915a8.44 8.44 0 002.357-5.767H24v-.186h-3.535a8.44 8.44 0 00-2.357-5.767h2.915v-.187h-2.977V2.977h-.186v2.915a8.44 8.44 0 00-5.767-2.357V0h-.186v3.535A8.44 8.44 0 006.14 5.892V2.977h-.187v2.976zm6.14 14.326a8.252 8.252 0 005.562-2.233H12.34a8.33 8.33 0 00-.247 1.126v1.107zm-.186-1.087a8.012 8.012 0 00-.258-1.146H6.345a8.252 8.252 0 005.562 2.233v-1.087zm-8.186-7.285h1.107a8.18 8.18 0 001.125-.247V6.345a8.251 8.251 0 00-2.232 5.562zm1.087.186H3.72a8.251 8.251 0 002.232 5.562v-5.304a8.03 8.03 0 00-1.145-.258h.001zm15.47-.186a8.251 8.251 0 00-2.232-5.562v5.315c.367.108.743.19 1.126.247h1.107-.001zm-1.086.186c-.39.058-.772.144-1.146.258v5.304a8.252 8.252 0 002.233-5.562h-1.087zm-1.332 5.69V12.41a7.918 7.918 0 00-.696.267 8.412 8.412 0 00-2.65 1.76l3.346 3.346zm0-6.18v-5.45l-.012-.013h-5.451c.076.235.162.468.26.696a8.689 8.689 0 001.819 2.688 8.71 8.71 0 002.688 1.82c.228.097.46.183.696.259zM6.14 17.848V12.41c.235.078.468.167.696.267a8.405 8.405 0 012.688 1.799 8.405 8.405 0 011.799 2.688c.1.228.19.46.267.696H6.152l-.012-.012zm0-6.245V6.326l3.29 3.29a8.719 8.719 0 01-2.594 1.728c-.228.097-.46.183-.696.259zm6.257 6.257h5.277l-3.29-3.29a8.719 8.719 0 00-1.728 2.594c-.097.228-.183.46-.259.696zm-2.347-7.81a9.448 9.448 0 01-2.88 1.96 9.14 9.14 0 012.88 1.94 9.14 9.14 0 011.94 2.88 9.448 9.448 0 011.96-2.88 9.14 9.14 0 012.88-1.94 9.448 9.448 0 01-2.88-1.96 9.448 9.448 0 01-1.96-2.88 9.14 9.14 0 01-1.94 2.88z" transform="scale(21.33334)"/></g><path fill="url(#prefix___Linear1)" d="M12.34 5.953a8.33 8.33 0 01-.247-1.125V3.72a8.251 8.251 0 015.562 2.232H12.34v.001zm-.69 0a8.01 8.01 0 00.257-1.145V3.72a8.251 8.251 0 00-5.562 2.232h5.304l.001.001zm-5.434.187h5.374a7.918 7.918 0 01-.267.696 8.412 8.412 0 01-1.76 2.65L6.216 6.14zm-.263-.187H2.977v.187h2.915a8.44 8.44 0 00-2.357 5.767H0v.186h3.535a8.44 8.44 0 002.357 5.767H2.977v.186h2.976v2.977h.187v-2.915a8.44 8.44 0 005.767 2.357V24h.186v-3.535a8.44 8.44 0 005.767-2.357v2.915h.186v-2.977h2.977v-.186h-2.915a8.44 8.44 0 002.357-5.767H24v-.186h-3.535a8.44 8.44 0 00-2.357-5.767h2.915v-.187h-2.977V2.977h-.186v2.915a8.44 8.44 0 00-5.767-2.357V0h-.186v3.535A8.44 8.44 0 006.14 5.892V2.977h-.187v2.976zm6.14 14.326a8.252 8.252 0 005.562-2.233H12.34a8.33 8.33 0 00-.247 1.126v1.107zm-.186-1.087a8.012 8.012 0 00-.258-1.146H6.345a8.252 8.252 0 005.562 2.233v-1.087zm-8.186-7.285h1.107a8.18 8.18 0 001.125-.247V6.345a8.251 8.251 0 00-2.232 5.562zm1.087.186H3.72a8.251 8.251 0 002.232 5.562v-5.304a8.03 8.03 0 00-1.145-.258h.001zm15.47-.186a8.251 8.251 0 00-2.232-5.562v5.315c.367.108.743.19 1.126.247h1.107-.001zm-1.086.186c-.39.058-.772.144-1.146.258v5.304a8.252 8.252 0 002.233-5.562h-1.087zm-1.332 5.69V12.41a7.918 7.918 0 00-.696.267 8.412 8.412 0 00-2.65 1.76l3.346 3.346zm0-6.18v-5.45l-.012-.013h-5.451c.076.235.162.468.26.696a8.689 8.689 0 001.819 2.688 8.71 8.71 0 002.688 1.82c.228.097.46.183.696.259zM6.14 17.848V12.41c.235.078.468.167.696.267a8.405 8.405 0 012.688 1.799 8.405 8.405 0 011.799 2.688c.1.228.19.46.267.696H6.152l-.012-.012zm0-6.245V6.326l3.29 3.29a8.719 8.719 0 01-2.594 1.728c-.228.097-.46.183-.696.259zm6.257 6.257h5.277l-3.29-3.29a8.719 8.719 0 00-1.728 2.594c-.097.228-.183.46-.259.696zm-2.347-7.81a9.448 9.448 0 01-2.88 1.96 9.14 9.14 0 012.88 1.94 9.14 9.14 0 011.94 2.88 9.448 9.448 0 011.96-2.88 9.14 9.14 0 012.88-1.94 9.448 9.448 0 01-2.88-1.96 9.448 9.448 0 01-1.96-2.88 9.14 9.14 0 01-1.94 2.88z" transform="scale(21.33334)"/></g><defs><linearGradient id="prefix___Linear1" x1="0" x2="1" y1="0" y2="0" gradientTransform="rotate(-44.78 24.946 1.957) scale(17.1679)" gradientUnits="userSpaceOnUse"><stop offset="0" stop-color="#446eff"/><stop offset=".37" stop-color="#2e96ff"/><stop offset=".83" stop-color="#b1c5ff"/><stop offset="1" stop-color="#b1c5ff"/></linearGradient><filter id="blr1" width="140%" height="140%" x="-20%" y="-20%"><feGaussianBlur in="SourceGraphic" stdDeviation="7"/></filter></defs></svg>