<?xml version="1.0" encoding="UTF-8" standalone="no"?>
<!DOCTYPE svg PUBLIC "-//W3C//DTD SVG 1.1//EN" "http://www.w3.org/Graphics/SVG/1.1/DTD/svg11.dtd">
<!-- Created with Vectornator (http://vectornator.io/) -->
<svg height="100%" stroke-miterlimit="10" style="fill-rule:nonzero;clip-rule:evenodd;stroke-linecap:round;stroke-linejoin:round;" version="1.1" viewBox="-8.8845 -12.1113 1430.56 1435.34" width="100%" xml:space="preserve" xmlns="http://www.w3.org/2000/svg" xmlns:vectornator="http://vectornator.io" xmlns:xlink="http://www.w3.org/1999/xlink">
<defs>
<filter color-interpolation-filters="sRGB" filterUnits="userSpaceOnUse" height="311.073" id="Filter" width="1385.39" x="-8.8845" y="-12.1113">
<feDropShadow dx="-16.1902" dy="6.36131" flood-color="#000000" flood-opacity="0.75" in="SourceGraphic" result="Shadow" stdDeviation="7.38902"/>
</filter>
<filter color-interpolation-filters="sRGB" filterUnits="userSpaceOnUse" height="453.35" id="Filter_2" width="527.029" x="-8.8845" y="306.086">
<feDropShadow dx="-16.1902" dy="6.36131" flood-color="#000000" flood-opacity="0.75" in="SourceGraphic" result="Shadow" stdDeviation="7.38902"/>
</filter>
<filter color-interpolation-filters="sRGB" filterUnits="userSpaceOnUse" height="134.926" id="Filter_3" width="148.161" x="917.768" y="948.698">
<feDropShadow dx="4.11046" dy="4.20429" flood-color="#000000" flood-opacity="0.75" in="SourceGraphic" result="Shadow" stdDeviation="7.02689"/>
</filter>
<filter color-interpolation-filters="sRGB" filterUnits="userSpaceOnUse" height="238.439" id="Filter_4" width="205.95" x="556.253" y="1184.79">
<feDropShadow dx="-2.07062" dy="5.50314" flood-color="#000000" flood-opacity="0.75" in="SourceGraphic" result="Shadow" stdDeviation="7.02689"/>
</filter>
<filter color-interpolation-filters="sRGB" filterUnits="userSpaceOnUse" height="120.926" id="Filter_5" width="128.603" x="441.694" y="480.633">
<feDropShadow dx="4.11046" dy="4.20429" flood-color="#000000" flood-opacity="0.75" in="SourceGraphic" result="Shadow" stdDeviation="7.02689"/>
</filter>
<filter color-interpolation-filters="sRGB" filterUnits="userSpaceOnUse" height="142.162" id="Filter_6" width="257.397" x="755.908" y="559.943">
<feComponentTransfer in="SourceGraphic" result="Alpha">
<feFuncA slope="0.578744" type="linear"/>
</feComponentTransfer>
<feDropShadow dx="4.11046" dy="4.20429" flood-color="#000000" flood-opacity="0.75" in="Alpha" result="Shadow" stdDeviation="7.02689"/>
</filter>
<filter color-interpolation-filters="sRGB" filterUnits="userSpaceOnUse" height="145.089" id="Filter_7" width="239.762" x="489.391" y="582.68">
<feComponentTransfer in="SourceGraphic" result="Alpha">
<feFuncA slope="0.578744" type="linear"/>
</feComponentTransfer>
<feDropShadow dx="4.11046" dy="4.20429" flood-color="#000000" flood-opacity="0.75" in="Alpha" result="Shadow" stdDeviation="7.02689"/>
</filter>
<filter color-interpolation-filters="sRGB" filterUnits="userSpaceOnUse" height="155.568" id="Filter_8" width="106.009" x="623.036" y="1120.65">
<feDropShadow dx="-2.51895" dy="5.31289" flood-color="#000000" flood-opacity="0.75" in="SourceGraphic" result="Shadow" stdDeviation="7.02689"/>
</filter>
<filter color-interpolation-filters="sRGB" filterUnits="userSpaceOnUse" height="392.364" id="Filter_9" width="165.605" x="680.573" y="1030.7">
<feDropShadow dx="-2.32825" dy="5.39919" flood-color="#000000" flood-opacity="0.75" in="SourceGraphic" result="Shadow" stdDeviation="7.02689"/>
</filter>
<filter color-interpolation-filters="sRGB" filterUnits="userSpaceOnUse" height="1138" id="Filter_10" width="669.535" x="524.468" y="285.227">
<feDropShadow dx="2.65876" dy="5.24432" flood-color="#000000" flood-opacity="0.75" in="SourceGraphic" result="Shadow" stdDeviation="7.02689"/>
</filter>
<filter color-interpolation-filters="sRGB" filterUnits="userSpaceOnUse" height="118.758" id="Filter_11" width="192.25" x="786.671" y="578.574">
<feDropShadow dx="4.11046" dy="4.20429" flood-color="#000000" flood-opacity="0.75" in="SourceGraphic" result="Shadow" stdDeviation="7.02689"/>
</filter>
<filter color-interpolation-filters="sRGB" filterUnits="userSpaceOnUse" height="115.155" id="Filter_12" width="173.625" x="533.691" y="595.234">
<feDropShadow dx="4.11046" dy="4.20429" flood-color="#000000" flood-opacity="0.75" in="SourceGraphic" result="Shadow" stdDeviation="7.02689"/>
</filter>
<linearGradient gradientTransform="matrix(1.64234 0 0 1.64234 -607.509 -850.599)" gradientUnits="userSpaceOnUse" id="LinearGradient" x1="867.994" x2="899.883" y1="923.497" y2="889.412">
<stop offset="0" stop-color="#1559b8"/>
<stop offset="1" stop-color="#261f70"/>
</linearGradient>
<filter color-interpolation-filters="sRGB" filterUnits="userSpaceOnUse" height="110.471" id="Filter_13" width="113.257" x="828.611" y="574.74">
<feDropShadow dx="4.11046" dy="4.20429" flood-color="#000000" flood-opacity="0.75" in="SourceGraphic" result="Shadow" stdDeviation="7.02689"/>
</filter>
<filter color-interpolation-filters="sRGB" filterUnits="userSpaceOnUse" height="52.5426" id="Filter_14" width="51.9502" x="872.861" y="593.491">
<feDropShadow dx="4.11046" dy="4.20429" flood-color="#000000" flood-opacity="0.75" in="SourceGraphic" result="Shadow" stdDeviation="7.02689"/>
</filter>
<linearGradient gradientTransform="matrix(1.64234 0 0 1.64234 -607.509 -850.599)" gradientUnits="userSpaceOnUse" id="LinearGradient_2" x1="718.018" x2="749.907" y1="932.647" y2="898.562">
<stop offset="0" stop-color="#1559b8"/>
<stop offset="1" stop-color="#261f70"/>
</linearGradient>
<filter color-interpolation-filters="sRGB" filterUnits="userSpaceOnUse" height="105.566" id="Filter_15" width="108.17" x="565.144" y="590.813">
<feDropShadow dx="4.11046" dy="4.20429" flood-color="#000000" flood-opacity="0.75" in="SourceGraphic" result="Shadow" stdDeviation="7.02689"/>
</filter>
<filter color-interpolation-filters="sRGB" filterUnits="userSpaceOnUse" height="52.5738" id="Filter_16" width="51.8055" x="607.87" y="608.59">
<feDropShadow dx="4.11046" dy="4.20429" flood-color="#000000" flood-opacity="0.75" in="SourceGraphic" result="Shadow" stdDeviation="7.02689"/>
</filter>
<filter color-interpolation-filters="sRGB" filterUnits="userSpaceOnUse" height="103.952" id="Filter_17" width="201.59" x="786.671" y="561.156">
<feDropShadow dx="4.11046" dy="4.20429" flood-color="#000000" flood-opacity="0.75" in="SourceGraphic" result="Shadow" stdDeviation="7.02689"/>
</filter>
<filter color-interpolation-filters="sRGB" filterUnits="userSpaceOnUse" height="108.965" id="Filter_18" width="173.625" x="533.691" y="588.367">
<feDropShadow dx="4.11046" dy="4.20429" flood-color="#000000" flood-opacity="0.75" in="SourceGraphic" result="Shadow" stdDeviation="7.02689"/>
</filter>
<filter color-interpolation-filters="sRGB" filterUnits="userSpaceOnUse" height="182.757" id="Filter_19" width="754.497" x="477.565" y="550.334">
<feDropShadow dx="4.11046" dy="4.20429" flood-color="#000000" flood-opacity="0.75" in="SourceGraphic" result="Shadow" stdDeviation="7.02689"/>
</filter>
<filter color-interpolation-filters="sRGB" filterUnits="userSpaceOnUse" height="383.094" id="Filter_20" width="446.492" x="877.623" y="1039.9">
<feDropShadow dx="3.08309" dy="5.00665" flood-color="#000000" flood-opacity="0.75" in="SourceGraphic" result="Shadow" stdDeviation="7.02689"/>
</filter>
<filter color-interpolation-filters="sRGB" filterUnits="userSpaceOnUse" height="254.945" id="Filter_21" width="194.056" x="831.52" y="1167.24">
<feDropShadow dx="4.11046" dy="4.20429" flood-color="#000000" flood-opacity="0.75" in="SourceGraphic" result="Shadow" stdDeviation="7.02689"/>
</filter>
<filter color-interpolation-filters="sRGB" filterUnits="userSpaceOnUse" height="371.299" id="Filter_22" width="205.322" x="922.464" y="948.692">
<feDropShadow dx="4.11046" dy="4.20429" flood-color="#000000" flood-opacity="0.75" in="SourceGraphic" result="Shadow" stdDeviation="7.02689"/>
</filter>
<filter color-interpolation-filters="sRGB" filterUnits="userSpaceOnUse" height="145.174" id="Filter_23" width="253.771" x="633.513" y="813.889">
<feDropShadow dx="4.11046" dy="4.20429" flood-color="#000000" flood-opacity="0.75" in="SourceGraphic" result="Shadow" stdDeviation="7.02689"/>
</filter>
<filter color-interpolation-filters="sRGB" filterUnits="userSpaceOnUse" height="86.2339" id="Filter_24" width="214.872" x="650.736" y="831.939">
<feDropShadow dx="4.11046" dy="4.20429" flood-color="#000000" flood-opacity="0.75" in="SourceGraphic" result="Shadow" stdDeviation="7.02689"/>
</filter>
<filter color-interpolation-filters="sRGB" filterUnits="userSpaceOnUse" height="93.325" id="Filter_25" width="224.519" x="783.199" y="463.493">
<feDropShadow dx="1.54822" dy="1.58356" flood-color="#000000" flood-opacity="0.75" in="SourceGraphic" result="Shadow" stdDeviation="7.02689"/>
</filter>
<filter color-interpolation-filters="sRGB" filterUnits="userSpaceOnUse" height="81.5513" id="Filter_26" width="170.91" x="525.818" y="485.45">
<feDropShadow dx="1.54822" dy="1.58356" flood-color="#000000" flood-opacity="0.75" in="SourceGraphic" result="Shadow" stdDeviation="7.02689"/>
</filter>
<filter color-interpolation-filters="sRGB" filterUnits="userSpaceOnUse" height="76.846" id="Filter_27" width="84.2086" x="413.024" y="466.254">
<feDropShadow dx="4.11046" dy="4.20429" flood-color="#000000" flood-opacity="0.75" in="SourceGraphic" result="Shadow" stdDeviation="7.02689"/>
</filter>
<filter color-interpolation-filters="sRGB" filterUnits="userSpaceOnUse" height="82.284" id="Filter_28" width="74.5005" x="668.115" y="718.693">
<feDropShadow dx="0.77411" dy="0.791781" flood-color="#000000" flood-opacity="0.75" in="SourceGraphic" result="Shadow" stdDeviation="7.02689"/>
</filter>
<filter color-interpolation-filters="sRGB" filterUnits="userSpaceOnUse" height="62.8807" id="Filter_29" width="62.9933" x="400.315" y="459.431">
<feDropShadow dx="4.11046" dy="4.20429" flood-color="#000000" flood-opacity="0.75" in="SourceGraphic" result="Shadow" stdDeviation="7.02689"/>
</filter>
<filter color-interpolation-filters="sRGB" filterUnits="userSpaceOnUse" height="62.2354" id="Filter_30" width="59.5512" x="425.371" y="464.124">
<feDropShadow dx="4.11046" dy="4.20429" flood-color="#000000" flood-opacity="0.75" in="SourceGraphic" result="Shadow" stdDeviation="7.02689"/>
</filter>
<filter color-interpolation-filters="sRGB" filterUnits="userSpaceOnUse" height="76.5606" id="Filter_31" width="57.4251" x="869.552" y="767.981">
<feDropShadow dx="0.77411" dy="0.791781" flood-color="#000000" flood-opacity="0.75" in="SourceGraphic" result="Shadow" stdDeviation="7.02689"/>
</filter>
<filter color-interpolation-filters="sRGB" filterUnits="userSpaceOnUse" height="67.0007" id="Filter_32" width="53.2137" x="684.375" y="690.864">
<feDropShadow dx="0.77411" dy="0.791781" flood-color="#000000" flood-opacity="0.75" in="SourceGraphic" result="Shadow" stdDeviation="7.02689"/>
</filter>
<filter color-interpolation-filters="sRGB" filterUnits="userSpaceOnUse" height="53.6937" id="Filter_33" width="50.7099" x="732.175" y="741.851">
<feDropShadow dx="0.77411" dy="0.791781" flood-color="#000000" flood-opacity="0.75" in="SourceGraphic" result="Shadow" stdDeviation="7.02689"/>
</filter>
<filter color-interpolation-filters="sRGB" filterUnits="userSpaceOnUse" height="44.6378" id="Filter_34" width="60.6275" x="847.043" y="380.769">
<feDropShadow dx="4.11046" dy="4.20429" flood-color="#000000" flood-opacity="0.75" in="SourceGraphic" result="Shadow" stdDeviation="7.02689"/>
</filter>
<filter color-interpolation-filters="sRGB" filterUnits="userSpaceOnUse" height="40.8216" id="Filter_35" width="51.2753" x="721.77" y="739.987">
<feDropShadow dx="0.77411" dy="0.791781" flood-color="#000000" flood-opacity="0.75" in="SourceGraphic" result="Shadow" stdDeviation="7.02689"/>
</filter>
<filter color-interpolation-filters="sRGB" filterUnits="userSpaceOnUse" height="44.6943" id="Filter_36" width="40.006" x="1253.82" y="600.59">
<feDropShadow dx="4.11046" dy="4.20429" flood-color="#000000" flood-opacity="0.75" in="SourceGraphic" result="Shadow" stdDeviation="7.02689"/>
</filter>
<filter color-interpolation-filters="sRGB" filterUnits="userSpaceOnUse" height="44.6943" id="Filter_37" width="40.578" x="1251.75" y="605.051">
<feDropShadow dx="4.11046" dy="4.20429" flood-color="#000000" flood-opacity="0.75" in="SourceGraphic" result="Shadow" stdDeviation="7.02689"/>
</filter>
<filter color-interpolation-filters="sRGB" filterUnits="userSpaceOnUse" height="40.6985" id="Filter_38" width="42.145" x="826.649" y="830.199">
<feDropShadow dx="4.11046" dy="4.20429" flood-color="#000000" flood-opacity="0.75" in="SourceGraphic" result="Shadow" stdDeviation="7.02689"/>
</filter>
<filter color-interpolation-filters="sRGB" filterUnits="userSpaceOnUse" height="219.136" id="Filter_39" width="121.323" x="1126.71" y="605.286">
<feDropShadow dx="4.11046" dy="4.20429" flood-color="#000000" flood-opacity="0.75" in="SourceGraphic" result="Shadow" stdDeviation="7.02689"/>
</filter>
<filter color-interpolation-filters="sRGB" filterUnits="userSpaceOnUse" height="1100.01" id="Filter_40" width="908.715" x="512.963" y="160.701">
<feDropShadow dx="4.11046" dy="4.20429" flood-color="#000000" flood-opacity="0.75" in="SourceGraphic" result="Shadow" stdDeviation="7.02689"/>
</filter>
<filter color-interpolation-filters="sRGB" filterUnits="userSpaceOnUse" height="128.449" id="Filter_41" width="516.316" x="657.612" y="176.175">
<feDropShadow dx="5.87683" dy="0.186521" flood-color="#000000" flood-opacity="0.75" in="SourceGraphic" result="Shadow" stdDeviation="7.02689"/>
</filter>
</defs>
<g id="Layer-1" vectornator:layerName="Layer 1">
<g filter="url(#Filter)" vectornator:layerName="Group 1" vectornator:shadowAngle="2.76721" vectornator:shadowColor="#000000" vectornator:shadowOffset="17.3951" vectornator:shadowOpacity="0.75" vectornator:shadowRadius="14.778">
<path d="M859.727 125.498C864.311 130.161 864.158 148.036 865.544 155.084C871.094 183.315 879.395 214.006 881.539 242.361C881.793 245.717 886.74 271.055 888.083 271.207C898.2 272.35 908.503 272.35 918.62 271.207C921.178 270.918 925.659 239.1 926.618 234.225C931.65 208.63 937.572 181.464 942.613 155.823C944.114 148.192 942.031 133.487 947.703 127.717C948.188 128.21 949.15 128.499 949.157 129.196C949.637 175.791 948.441 222.396 949.157 268.988C949.173 270.034 950.311 271.15 951.338 271.207C963.922 271.905 976.543 271.207 989.146 271.207C990.52 271.207 997.122 271.549 997.144 268.988C997.867 181.467 997.865 93.9373 997.144 6.41671C997.135 5.37074 995.99 4.2347 994.962 4.1978C975.101 3.48471 955.204 3.48471 935.343 4.1978C930.866 4.35854 927.414 39.6826 926.618 44.1382C922.022 69.8546 914.586 97.0359 909.895 123.279C908.475 131.227 910.39 147.924 904.079 154.344C897.404 147.554 898.174 129.165 896.081 119.581C891.878 100.344 889.761 80.8084 884.448 61.8895C882.302 54.2488 883.779 45.766 880.812 38.2211C878.836 33.194 876.262 4.24776 872.088 4.1978C851.973 3.95707 831.851 3.71645 811.741 4.1978C809.94 4.2409 810.289 6.24182 810.287 7.15635C810.046 93.6939 809.801 180.231 809.56 266.769C809.555 268.547 809.231 270.998 812.468 271.207C826.738 272.128 841.068 271.445 855.365 271.207C855.984 271.196 858.268 269.54 858.273 268.988C858.753 221.654 857.794 174.312 858.273 126.978C858.28 126.28 859.243 125.991 859.727 125.498Z" fill="#fdfbf9" fill-rule="nonzero" opacity="1" stroke="none"/>
<path d="M628.519 124.019C635.127 130.741 632.32 151.587 635.79 161.001C640.239 173.07 638.602 186.807 642.334 199.462C646.776 214.528 649.262 231.595 651.785 248.278C653.298 258.278 652.281 270.467 663.419 270.467C671.178 270.467 678.926 271.207 686.685 271.207C687.227 271.207 687.716 270.811 688.139 270.467C694.127 265.594 692.978 245.439 694.683 237.923C700.596 211.855 706.548 183.875 710.678 156.563C711.722 149.662 712.158 131.389 717.222 126.238C717.706 126.731 718.669 127.02 718.676 127.717C719.156 175.051 718.196 222.393 718.676 269.727C718.683 270.425 719.448 271.137 720.13 271.207C734.84 272.703 749.732 272.23 764.481 271.207C765.507 271.136 766.654 270.034 766.662 268.988C767.383 181.467 767.383 93.9373 766.662 6.41671C766.654 5.37074 765.509 4.23427 764.481 4.1978C744.378 3.4844 724.238 3.4844 704.134 4.1978C701.3 4.29838 698.42 31.0411 696.864 35.2626C692.862 46.1194 694.157 60.5363 690.32 72.2444C684.949 88.6372 682.401 109.977 678.687 126.978C676.943 134.962 678.911 149.678 672.87 155.823C667.696 152.314 667.837 130.932 666.327 124.019C660.404 96.9069 654.485 68.6448 650.331 41.1796C649.682 36.8875 644.648 4.30574 641.606 4.1978C621.503 3.4844 601.363 3.4844 581.26 4.1978C580.232 4.23427 579.087 5.37074 579.078 6.41671C578.357 93.6908 578.12 180.976 579.078 268.248C579.094 269.643 580.618 271.118 581.987 271.207C596.257 272.128 610.601 271.91 624.884 271.207C625.911 271.156 627.049 270.034 627.065 268.988C627.781 221.164 626.585 173.326 627.065 125.498C627.072 124.801 628.034 124.512 628.519 124.019Z" fill="#fdfbf9" fill-rule="nonzero" opacity="1" stroke="none"/>
<path d="M1269.31 0C1255.42-0.00737445 1239.66 1.29413 1221.81 4.1875C1221.32 4.68059 1220.34 4.99017 1220.34 5.6875C1219.86 93.4564 1219.86 181.231 1220.34 269C1220.34 269.539 1222.63 271.219 1223.25 271.219C1237.3 271.219 1251.4 271.97 1265.43 271.219C1266.46 271.164 1267.6 270.046 1267.62 269C1268.33 234.491 1267.14 199.951 1267.62 165.438C1267.63 164.74 1268.38 164.046 1269.06 163.969C1272.91 163.533 1276.86 163.533 1280.72 163.969C1281.53 164.061 1291.05 188.038 1292.34 191.312C1300.45 211.932 1309.9 230.465 1317.78 250.5C1320.09 256.373 1321.03 263.432 1324.31 269C1325.41 270.865 1325.6 270.443 1327.25 270.469C1342.27 270.708 1357.29 271.689 1372.31 271.219C1377.01 271.072 1371.67 261.754 1370.87 260.125C1365.93 250.079 1361.25 239.054 1357.03 228.313C1351.47 214.168 1345.55 201.203 1338.87 187.625C1334.78 179.307 1333.05 164.698 1326.5 158.031C1337.21 147.131 1353.76 138.167 1357.78 121.812C1359.19 116.053 1362.41 109.483 1363.59 104.063C1372.18 64.7552 1366.53 0.0516211 1269.31 0ZM1283 41.5312C1299.72 41.5677 1319.97 44.4795 1319.97 64.8438C1319.97 85.3556 1325.49 107.227 1308.34 120.312C1300.25 126.485 1284.69 123.281 1276.34 123.281C1275.29 123.281 1266.21 124.734 1266.15 121.812C1265.68 95.9297 1265.45 70.0023 1266.15 44.125C1266.18 43.0794 1267.31 41.9289 1268.34 41.9062C1272.25 41.8201 1277.42 41.5191 1283 41.5312Z" fill="#fdfbf9" fill-rule="nonzero" opacity="1" stroke="none" vectornator:layerName="Curve 2"/>
<path d="M81.0356 1.97889C55.1374 2.86203 26.7511 27.236 26.5053 55.2327C26.0293 109.471 25.7783 163.712 25.7783 217.953C25.7783 263.387 79.3234 279.323 115.208 272.686C144.358 267.294 164.898 239.424 165.376 209.077C165.822 180.727 166.341 152.372 166.103 124.019C166.098 123.414 163.813 121.853 163.194 121.8C143.871 120.162 124.419 122.54 105.029 122.54C104.907 122.54 97.1671 120.492 97.0311 124.019C96.5658 136.09 96.5658 148.19 97.0311 160.261C97.3441 168.38 122.226 155.128 122.479 163.22C122.948 178.251 122.703 193.3 122.479 208.338C122.417 212.452 120.869 220.37 118.116 223.87C108.374 236.258 83.2066 240.856 75.9461 222.391C75.3986 220.998 75.2324 219.452 75.219 217.953C74.7431 164.701 74.492 111.446 74.492 58.1913C74.492 38.5312 102.042 37.4016 112.3 47.8364C120.767 56.45 113.683 82.4353 118.843 82.5993C133.862 83.0768 148.911 83.3041 163.922 82.5993C164.949 82.5511 166.012 81.4224 166.103 80.3804C166.763 72.7671 166.306 65.0918 166.103 57.4517C165.824 46.9499 160.692 36.306 154.47 27.8662C135.349 1.93147 111.5 0.940036 81.0356 1.97889Z" fill="#fdfbf9" fill-rule="nonzero" opacity="1" stroke="none"/>
<path d="M1096.68 2.28125C1093.02 2.53839 1089.38 3.10948 1085.84 4.1875C1077.29 6.79215 1077.92 42.2939 1075.65 52.2812C1068.01 85.9782 1062.8 122.1 1053.12 156.562C1051.98 160.627 1053.05 165.698 1051.68 169.875C1044.04 193.204 1039.61 222.331 1035.68 248.281C1035.18 251.587 1028.44 271.116 1034.22 271.219C1047.54 271.457 1060.9 271.919 1074.22 271.219C1077.82 271.029 1077.44 258.672 1077.84 256.406C1079.38 247.767 1081.6 237.902 1082.93 229.781C1083.91 223.808 1081.14 216.098 1084.4 210.562C1084.76 209.965 1085.16 209.086 1085.84 209.062C1099.65 208.586 1113.47 208.586 1127.28 209.062C1130.47 209.172 1129.55 220.602 1130.93 229.062C1132.73 240.008 1133.22 257.473 1137.47 269C1137.67 269.556 1139.6 271.205 1140.37 271.219C1154.18 271.457 1168 271.453 1181.81 271.219C1182.58 271.206 1183.34 270.87 1184 270.469C1188.22 267.888 1182.78 252.741 1181.81 248.281C1177.43 228.242 1173.1 208.706 1169.47 188.375C1160.47 138.026 1148.59 90.294 1138.93 41.1875C1138 36.4216 1134.99 4.41683 1130.18 4.1875C1119.11 3.65936 1107.69 1.50982 1096.68 2.28125ZM1106.93 75.1875C1116.23 77.9177 1112.18 103.036 1113.47 112.188C1114.51 119.604 1117.52 127.92 1117.84 135.844C1118.25 145.845 1124.7 159.659 1122.18 169.875C1120.86 175.266 1092.62 172.525 1092.4 169.875C1092.01 165.107 1093.68 159.7 1094.56 155.812C1099.02 136.133 1097.09 114.17 1103.31 95.1875C1105.04 89.8935 1101.81 73.6808 1106.93 75.1875Z" fill="#fdfbf9" fill-rule="nonzero" opacity="1" stroke="none" vectornator:layerName="Curve 1"/>
<path d="M209.716 4.1875C208.688 4.20553 207.568 5.36028 207.56 6.40625C206.839 93.9269 206.839 181.479 207.56 269C207.568 270.046 208.689 271.168 209.716 271.219C223.998 271.922 238.34 271.922 252.622 271.219C253.649 271.168 254.788 270.046 254.81 269C255.521 234.491 254.332 199.951 254.81 165.438C254.871 160.973 263.541 163.476 267.903 163.969C269.956 164.201 275.234 178.516 275.903 180.219C284.287 201.541 292.878 221.572 301.341 243.094C304.353 250.756 307.367 265.648 313.685 270.469C316.694 272.765 320.133 270.469 323.153 270.469C335.031 270.469 346.909 271.683 358.778 271.219C359.806 271.179 360.506 269.936 360.966 269C363.472 263.902 352.36 247.055 350.06 242.375C340.897 223.733 328.641 199.626 323.872 180.219C322.242 173.585 313.096 164.119 314.435 157.312C315.154 153.653 328.838 146.355 331.153 144C337.67 137.371 341.813 128.939 345.685 121.062C352.578 107.037 352.247 83.9629 352.247 70.0312C352.247 56.4212 346.748 42.3786 339.153 31.5625C327.634 15.1569 312.028 5.27364 291.872 4.9375C264.488 4.48083 237.099 3.70721 209.716 4.1875ZM277.31 40.3438C285.051 40.1065 292.578 41.1168 297.716 46.3438C312.954 61.8455 315.331 117.066 291.153 122.531C284.378 124.063 253.341 128.008 253.341 119.594C253.341 99.8686 254.091 80.1314 254.091 60.4062C254.091 54.0196 248.439 41.7192 255.528 41.9062C261.593 42.0662 269.568 40.581 277.31 40.3438Z" fill="#fdfbf9" fill-rule="nonzero" opacity="1" stroke="none" vectornator:layerName="Curve 2"/>
<path d="M467.091 3.15625C459.802 3.03524 452.521 3.24211 445.31 4.1875C439.71 4.92159 436.873 39.9709 435.122 47.0938C428.807 72.7916 424.59 98.8565 418.403 124.031C414.411 140.276 414.846 157.093 409.685 172.844C402.216 195.638 397.414 225.088 393.685 249.75C393.294 252.33 388.782 271.124 391.497 271.219C405.061 271.695 418.646 271.457 432.216 271.219C433.669 271.193 436.409 268.003 436.56 266.781C438.538 250.678 437.976 234.146 441.653 217.937C442.006 216.381 442.332 209.138 444.56 209.062C458.608 208.586 472.698 208.586 486.747 209.062C489.875 209.169 487.599 218.849 488.935 226.094C489.457 228.928 492.153 234.291 492.56 237.188C493.571 244.387 491.509 263.055 496.185 269C496.827 269.817 497.345 271.169 498.372 271.219C512.897 271.922 527.472 271.922 541.997 271.219C546.605 270.996 542.032 254.014 541.278 251.969C533.721 231.469 528.801 197.356 524.56 175.781C519.79 151.522 515.277 127.485 509.997 103.312C508.014 94.2359 512.248 102.032 509.278 92.9688C504.723 79.0664 500.434 59.1532 499.091 44.125C498.647 39.1625 492.004 4.38267 488.935 4.1875C481.678 3.72613 474.38 3.27726 467.091 3.15625ZM465.653 75.1875C470.503 78.4764 469.964 91.4332 470.747 97.4062C473.168 115.878 475.442 132.886 478.747 151.375C479.704 156.73 478.614 164.403 480.935 169.125C480.207 169.865 479.772 171.264 478.747 171.344C470.048 172.025 461.259 172.024 452.56 171.344C451.534 171.264 450.595 170.146 450.372 169.125C449.718 166.131 452.053 161.617 452.56 158.781C456.004 139.511 458.757 119.583 461.278 100.344C462.075 94.2655 461.676 79.2338 465.653 75.1875Z" fill="#fdfbf9" fill-rule="nonzero" opacity="1" stroke="none" vectornator:layerName="Curve 2"/>
</g>
<g filter="url(#Filter_2)" vectornator:layerName="Group 2" vectornator:shadowAngle="2.76721" vectornator:shadowColor="#000000" vectornator:shadowOffset="17.3951" vectornator:shadowOpacity="0.75" vectornator:shadowRadius="14.778">
<path d="M236.544 360.452C203.297 364.008 209.338 409.705 244.688 409.705C258.469 409.705 268.84 386.097 262.604 375.793C255.393 363.877 249.538 359.062 236.544 360.452Z" fill="#fdfbf9" fill-rule="nonzero" opacity="1" stroke="none"/>
<path d="M436.081 328.167C418.093 334.112 406.91 352.846 406.738 370.948C406.22 425.314 406.731 479.68 405.925 534.042C405.724 547.62 397.193 568.855 385.581 578.448C378.176 584.567 363.832 577.448 363.581 568.761C363.325 559.879 362.513 551.018 362.769 542.136C363.492 517.055 379.863 492.399 379.863 467.042C379.863 461.226 367.739 448.593 362.769 448.448C353.482 448.178 332.635 450.083 321.238 446.855C318.16 445.983 316.622 439.375 314.738 437.167C312.379 434.403 309.976 431.634 307.394 429.073C302.751 424.47 294.428 426.667 287.863 426.667C274.328 426.667 271.026 446.573 275.644 455.73C276.753 457.929 289.306 467.429 289.488 469.448C290.497 480.708 289.699 492.053 289.488 503.355C289.199 518.81 282.145 580.073 256.894 580.073C254.072 580.073 248.803 573.568 248.769 571.198C248.234 534.06 249.036 496.902 248.769 459.761C248.685 448.125 221.593 439.88 216.175 451.698C215.139 453.957 217.766 456.467 217.8 458.948C218.336 498.24 217.538 537.56 217.8 576.855C217.93 596.273 238.167 607.542 255.269 607.542C297.382 607.542 315.348 532.336 317.175 503.355C317.683 495.296 316.667 487.195 317.175 479.136C317.426 475.162 325.71 477.542 328.581 477.542C334.825 477.542 341.076 477.049 347.3 477.542C351.089 477.843 340.9 504.454 339.956 508.198C334.614 529.386 326.189 552.868 331.019 574.417C339.993 614.457 390.089 616.974 411.644 584.917C418.314 591.53 424.144 601.945 433.613 604.292C445.447 607.226 462.141 610.248 473.519 603.48C492.21 592.361 515.863 564.372 515.863 540.511C515.863 531.785 501.341 522.601 494.706 530.823C491.281 535.069 491.515 541.065 489.8 546.167C485.913 557.729 478.534 571.3 467.831 577.667C457.931 583.557 442.338 579.874 439.331 567.948C436.611 557.161 436.894 543.295 436.894 533.23C436.894 530.112 441.843 525.024 443.394 521.948C449.007 510.818 452.466 497.49 458.05 486.417C474.35 454.095 477.613 404.367 477.613 370.136C477.613 352.402 466.991 331.738 436.081 328.167ZM440.956 353.98C449.188 359.898 453.175 365.243 453.175 373.386C453.175 400.254 450.848 425.204 445.831 450.073C444.106 458.625 443.187 472.896 436.894 479.136C436.351 478.598 435.243 478.303 435.238 477.542C434.97 440.938 435.569 404.331 436.081 367.73C436.166 361.687 436.805 358.096 440.956 353.98Z" fill="#fdfbf9" fill-rule="nonzero" opacity="1" stroke="none" vectornator:layerName="Curve 2"/>
<path d="M146.581 318.261C143.027 318.341 139.807 318.48 137.238 318.48C114.386 318.48 88.872 341.374 74.5188 355.605C37.2703 392.536 22.1968 457.371 26.4876 504.167C28.2616 523.515 29.4154 540.226 34.6126 558.261C46.0133 597.824 87.247 622.676 127.456 606.73C140.089 601.72 151.725 588.354 160.05 578.448C163.717 582.084 161.552 588.652 161.675 593.792C161.837 600.524 162.971 607.263 162.488 613.98C162.394 615.284 135.07 625.103 130.706 627.698C116.73 636.013 99.4792 648.799 94.0813 664.855C86.2105 688.266 90.4922 720.615 116.863 731.073C147.825 743.353 175.894 721.802 185.269 693.917C190.504 678.345 190.204 659.757 192.613 643.042C193.637 635.936 209.625 639.058 210.519 639.011C222.627 638.379 224.363 620.091 224.363 612.386C224.363 601.803 201.889 605.336 195.863 608.323C193.199 605.683 193.425 600.055 193.425 596.23C193.425 571.738 193.206 547.252 193.425 522.761C193.478 516.834 193.887 510.897 194.238 504.98C194.883 494.095 198.644 479.635 183.644 475.917C178.867 474.733 162.091 470.614 160.863 479.948C159.458 490.624 161.109 501.498 160.863 512.261C160.408 532.103 145.013 556.194 131.519 569.573C104.048 596.811 71.668 567.996 64.7376 540.511C59.2625 518.797 59.8626 490.978 59.8626 470.261C59.8626 429.03 104.129 335.307 156.769 348.355C186.693 355.772 164.241 391.8 151.894 404.042C143.635 412.23 130.056 415.355 118.488 415.355C114.49 415.355 108.5 408.506 105.456 414.542C98.461 428.414 105.563 443.534 120.956 445.23C177.541 451.463 239.513 358.976 179.581 323.323C170.967 318.199 157.245 318.022 146.581 318.261ZM160.331 644.292C163.993 644.25 162.14 649.863 161.675 655.167C160.343 670.358 157.486 694.13 142.925 702.792C123.459 714.373 120.591 684.41 122.581 674.542C125.811 658.529 144.581 649.238 158.394 644.667C159.163 644.413 159.808 644.298 160.331 644.292Z" fill="#fdfbf9" fill-rule="nonzero" opacity="1" stroke="none" vectornator:layerName="Curve 2"/>
</g>
<g opacity="1" vectornator:layerName="Group 12">
<path d="M1024.15 962.067C1016.97 961.442 931.224 1008.92 931.224 1008.92C931.224 1008.92 944.029 1053.33 962.729 1061.42C1096.69 1069.37 1025.51 964.684 1024.15 962.067Z" fill="#dfe2e0" fill-rule="nonzero" filter="url(#Filter_3)" stroke="none" vectornator:layerName="Curve 1" vectornator:shadowAngle="0.796683" vectornator:shadowColor="#000000" vectornator:shadowOffset="5.87979" vectornator:shadowOpacity="0.75" vectornator:shadowRadius="14.0538"/>
<path d="M590.016 1316.83C581.605 1336.93 577.701 1372.45 575.891 1400.16L746.707 1400.16C743.99 1382.53 740.922 1362.75 738.771 1349.43C732.921 1313.21 722.814 1276.14 715.741 1239.93C713.042 1226.11 712.826 1211.85 709.66 1198.13C709.357 1196.82 707.148 1196.75 705.815 1196.92C704.104 1197.14 702.565 1198.19 701.179 1199.22C697.833 1201.71 689.989 1208.61 679.917 1217.99C649.254 1246.52 597.941 1297.9 590.016 1316.83Z" fill="#89a963" fill-rule="nonzero" filter="url(#Filter_4)" stroke="none" vectornator:layerName="Curve 6" vectornator:shadowAngle="1.93067" vectornator:shadowColor="#000000" vectornator:shadowOffset="5.87979" vectornator:shadowOpacity="0.75" vectornator:shadowRadius="14.0538"/>
<path d="M467.527 494C465.752 501.986 456.032 518.529 455.151 520.291L548.337 579.784C549.773 580.116 545.273 547.002 545.458 545.653C545.458 545.653 467.657 493.414 467.527 494Z" fill="#ffd82b" fill-rule="nonzero" filter="url(#Filter_5)" stroke="none" vectornator:layerName="Curve 2" vectornator:shadowAngle="0.796683" vectornator:shadowColor="#000000" vectornator:shadowOffset="5.87979" vectornator:shadowOpacity="0.75" vectornator:shadowRadius="14.0538"/>
<g opacity="1" vectornator:layerName="Group 9">
<path d="M769.385 624.869C769.643 628.219 780.045 646.517 783.406 650.999C786.917 655.681 802.071 671.061 822.042 676.616C848.223 683.899 888.639 678.449 897.541 677.236C924.277 673.593 964.991 658.494 977.131 642.307C985.041 631.76 992.817 604.522 991.475 590.427C990.914 584.536 960.317 573.108 929.88 573.309C921.349 573.365 865.726 580.761 856.019 582.961C814.991 592.258 768.243 610.024 769.385 624.869Z" fill="#e4d1b8" fill-rule="nonzero" filter="url(#Filter_6)" stroke="none" vectornator:layerName="Curve 2" vectornator:shadowAngle="0.796683" vectornator:shadowColor="#000000" vectornator:shadowOffset="5.87979" vectornator:shadowOpacity="0.75" vectornator:shadowRadius="14.0538"/>
<path d="M502.966 640.622C503.094 642.284 503.721 653.877 513.269 664.898C516.529 668.661 521.966 680.151 535.741 686.466C553.901 694.791 586.788 705.998 594.792 705.998C599.18 705.998 623.01 700.466 644.607 695.953C663.024 692.105 681.08 682.083 686.438 677.686C695.428 670.309 707.832 651.908 707.467 639.087C707.146 627.787 704.701 623.773 679.157 613.387C653.614 603.001 610.539 598.138 604.767 597.176C600.064 596.392 578.571 593.969 545.869 600.116C518.877 605.19 501.223 617.955 502.966 640.622Z" fill="#e4d1b8" fill-rule="nonzero" filter="url(#Filter_7)" stroke="none" vectornator:layerName="Curve 3" vectornator:shadowAngle="0.796683" vectornator:shadowColor="#000000" vectornator:shadowOffset="5.87979" vectornator:shadowOpacity="0.75" vectornator:shadowRadius="14.0538"/>
</g>
<path d="M703.971 1132.9C698.41 1138.46 692.978 1150.39 689.697 1156.95C683.894 1168.56 648.087 1238.5 643.122 1253.33C657.188 1245.92 696.359 1202.4 713.997 1196.52C707.997 1184.52 707.299 1163.94 706.349 1150.64C706.074 1146.79 706.243 1135.17 703.971 1132.9Z" fill="#bcd2d0" fill-rule="nonzero" filter="url(#Filter_8)" stroke="none" vectornator:layerName="Curve 14" vectornator:shadowAngle="2.01353" vectornator:shadowColor="#000000" vectornator:shadowOffset="5.87979" vectornator:shadowOpacity="0.75" vectornator:shadowRadius="14.0538"/>
<path d="M770.916 1400.1C766.758 1326.69 761.029 1237.25 763.017 1207.28C764.762 1180.95 820.17 1157.69 828.042 1128.43C835.455 1100.88 826.397 1071.39 825.575 1042.87C801.626 1054.28 757.697 1064.81 737.667 1082.2C719.811 1097.71 699.542 1119 700.501 1142.63C704.021 1229.35 727.136 1314.86 744.475 1400.1L770.916 1400.1Z" fill="#dfe2e0" fill-rule="nonzero" filter="url(#Filter_9)" stroke="none" vectornator:layerName="Curve 7" vectornator:shadowAngle="1.97793" vectornator:shadowColor="#000000" vectornator:shadowOffset="5.87979" vectornator:shadowOpacity="0.75" vectornator:shadowRadius="14.0538"/>
<path d="M907.891 297.736C877.285 298.315 845.876 301.889 815.224 310.033C688.483 343.706 722.924 327.368 659.041 367.182C595.156 406.994 573.277 423.57 571.65 427.906C570.269 431.589 553.683 453.7 553.683 453.7C560.71 476.538 558.512 486.094 558.413 489.054C558.01 501.159 543.81 545.818 543.811 545.818C543.811 545.818 544.274 624.071 547.159 626.957C547.159 626.957 542.76 667.562 540.572 701.288C539.578 716.604 539.061 730.545 539.583 738.563C541.588 769.33 546.114 808.411 556.382 831.67C585.152 896.836 617.774 960.424 653.496 1022.05C685.342 1077 778.367 1064 826.45 1044.71C826.993 1072.63 835.254 1101.45 828.042 1128.43C820.482 1156.71 764.17 1178.03 763.017 1207.28C761.25 1252.05 767.133 1346.36 770.916 1400.1L848.06 1400.42C865.691 1363.24 891.445 1308.29 906.409 1275.52C919.795 1246.19 927.518 1214.37 942.257 1185.7C960.857 1149.53 985.973 1117.05 1006.05 1081.67C1009.11 1076.28 1053.04 1048.47 1043.23 1038.86C1030.27 1026.17 962.729 1061.42 962.729 1061.42C962.729 1061.42 955.088 989.934 964.578 983.959C1021.78 947.944 1098.61 866.07 1130.72 814.048C1133.78 809.093 1144.23 692.742 1167.23 628.713C1179.94 593.319 1180.98 405.16 1105.87 331.617C1071.05 297.526 952.784 296.888 907.891 297.736Z" fill="#e0b786" fill-rule="nonzero" filter="url(#Filter_10)" stroke="none" vectornator:layerName="Curve 3" vectornator:shadowAngle="1.10158" vectornator:shadowColor="#000000" vectornator:shadowOffset="5.87979" vectornator:shadowOpacity="0.75" vectornator:shadowRadius="14.0538"/>
<g opacity="1" vectornator:layerName="Group 10">
<path d="M800.128 644.739C813.101 624.28 848.121 602.43 879.068 594.703C910.007 586.978 957.088 597.887 957.088 597.887C959.649 611.794 930.416 668.17 890.192 674.055C825.037 683.587 800.128 644.739 800.128 644.739Z" fill="#fefefe" fill-rule="nonzero" filter="url(#Filter_11)" stroke="none" vectornator:layerName="Curve 1" vectornator:shadowAngle="0.796683" vectornator:shadowColor="#000000" vectornator:shadowOffset="5.87979" vectornator:shadowOpacity="0.75" vectornator:shadowRadius="14.0538"/>
<path d="M547.148 626.957C547.148 626.957 555.745 674.746 587.729 685.515C619.712 696.283 685.639 675.56 685.639 675.56C685.639 675.56 660.599 620.547 627.063 611.556C583.141 599.78 547.148 626.957 547.148 626.957Z" fill="#fefefe" fill-rule="nonzero" filter="url(#Filter_12)" stroke="none" vectornator:layerName="Curve 2" vectornator:shadowAngle="0.796683" vectornator:shadowColor="#000000" vectornator:shadowOffset="5.87979" vectornator:shadowOpacity="0.75" vectornator:shadowRadius="14.0538"/>
<path d="M842.068 625.772C842.068 604.968 859.556 588.103 881.129 588.103C902.702 588.103 920.19 604.968 920.19 625.772C920.19 646.575 902.702 663.44 881.129 663.44C859.556 663.44 842.068 646.575 842.068 625.772Z" fill="url(#LinearGradient)" fill-rule="nonzero" filter="url(#Filter_13)" stroke="none" vectornator:layerName="Oval 3" vectornator:shadowAngle="0.796683" vectornator:shadowColor="#000000" vectornator:shadowOffset="5.87979" vectornator:shadowOpacity="0.75" vectornator:shadowRadius="14.0538"/>
<path d="M889.552 620.226C885.892 616.169 885.241 610.791 888.098 608.213C890.956 605.635 896.239 606.834 899.899 610.89C903.559 614.947 904.21 620.326 901.353 622.903C898.496 625.481 893.213 624.283 889.552 620.226Z" fill="#fefefe" fill-rule="nonzero" filter="url(#Filter_14)" stroke="none" vectornator:layerName="Oval 1" vectornator:shadowAngle="0.796683" vectornator:shadowColor="#000000" vectornator:shadowOffset="5.87979" vectornator:shadowOpacity="0.75" vectornator:shadowRadius="14.0538"/>
<path d="M578.601 639.392C578.601 619.943 594.951 604.176 615.119 604.176C635.287 604.176 651.637 619.943 651.637 639.392C651.637 658.841 635.287 674.608 615.119 674.608C594.951 674.608 578.601 658.841 578.601 639.392Z" fill="url(#LinearGradient_2)" fill-rule="nonzero" filter="url(#Filter_15)" stroke="none" vectornator:layerName="Oval 4" vectornator:shadowAngle="0.796683" vectornator:shadowColor="#000000" vectornator:shadowOffset="5.87979" vectornator:shadowOpacity="0.75" vectornator:shadowRadius="14.0538"/>
<path d="M624.918 634.954C621.133 630.759 620.19 625.442 622.81 623.078C625.431 620.713 630.623 622.197 634.408 626.391C638.192 630.586 639.136 635.903 636.515 638.267C633.894 640.631 628.702 639.148 624.918 634.954Z" fill="#fefefe" fill-rule="nonzero" filter="url(#Filter_16)" stroke="none" vectornator:layerName="Oval 2" vectornator:shadowAngle="0.796683" vectornator:shadowColor="#000000" vectornator:shadowOffset="5.87979" vectornator:shadowOpacity="0.75" vectornator:shadowRadius="14.0538"/>
<path d="M800.128 643.337C818.952 603.327 847.738 583.8 878.686 576.073C909.624 568.348 966.584 591.937 966.584 591.937C963.124 593.363 957.244 598.64 957.244 598.64C943.262 591.937 900.818 590.842 883.103 593.929C844.175 600.711 800.128 643.337 800.128 643.337Z" fill="#000000" fill-rule="nonzero" filter="url(#Filter_17)" stroke="none" vectornator:layerName="Curve 3" vectornator:shadowAngle="0.796683" vectornator:shadowColor="#000000" vectornator:shadowOffset="5.87979" vectornator:shadowOpacity="0.75" vectornator:shadowRadius="14.0538"/>
<path d="M547.148 626.957C547.148 626.957 571.644 606.649 609.777 612.297C652.382 618.606 675.002 657.274 685.639 675.56C679.071 643.337 663.198 613.168 629.663 604.176C585.74 592.4 547.148 626.957 547.148 626.957Z" fill="#000000" fill-rule="nonzero" filter="url(#Filter_18)" stroke="none" vectornator:layerName="Curve 4" vectornator:shadowAngle="0.796683" vectornator:shadowColor="#000000" vectornator:shadowOffset="5.87979" vectornator:shadowOpacity="0.75" vectornator:shadowRadius="14.0538"/>
<path d="M859.691 570.742C846.327 572.899 823.973 579.064 805.957 587.187C781.392 598.264 767.298 605.676 762.413 611.695C756.441 612.755 745.441 604.677 724.373 606.871C710.061 608.362 708.522 613.244 704.88 613.342C700.957 613.448 673.943 586 574.55 583.278C559.35 582.862 516.53 584.431 502.189 600.995C481.277 625.149 495.703 654.389 498.088 659.479C515.467 696.562 561.175 709.176 587.379 710.885C663.746 715.864 696.081 676.537 700.159 670.93C703.061 666.94 709.03 658.996 711.742 649.41C714.664 639.081 713.341 633.941 716.471 627.235C716.471 627.235 721.342 622.879 724.26 622.586C742.767 620.725 750.908 627.128 750.908 627.128C760.925 635.343 767.81 657.882 773.886 663.958C787.075 677.146 803.895 685.802 821.043 690.089C826.022 691.334 851.434 696.019 882.407 692.406C902.512 690.06 941.887 681.563 967.642 668.371C985.912 659.012 995.253 643.374 995.253 643.374C1023.43 632.549 1065.93 630.837 1072.51 629.913C1089.45 627.535 1188.06 618.736 1191.28 618.169C1194.95 617.522 1203.63 618.63 1206.54 614.985C1210.27 610.325 1210.38 600.55 1210.39 594.618C1210.39 587.619 1194.32 592.656 1191.28 593.959C1183.89 597.126 1115.17 607.104 1074.43 610.15C1061.13 611.145 999.598 622.459 999.598 622.459C1002.62 613.166 1003.69 595.197 1002.04 585.564C1001.21 580.685 1001.91 574.194 987.767 569.095C982.278 567.115 964.697 563.844 945.611 563.705C915.529 563.486 879.016 567.622 859.691 570.742ZM929.905 573.322C960.343 573.121 990.939 584.559 991.5 590.45C992.843 604.545 985.028 631.78 977.117 642.328C964.977 658.515 920.223 675.197 893.487 678.839C884.585 680.052 848.213 683.922 822.031 676.639C802.061 671.083 786.895 655.684 783.384 651.002C780.022 646.52 769.642 628.221 769.385 624.871C768.243 610.026 814.985 592.282 856.013 582.984C865.72 580.784 921.375 573.378 929.905 573.322ZM673.996 613.917C689.431 620.03 698.575 625.978 698.896 637.278C699.065 643.226 691.598 706.73 590.304 697.59C565.774 695.377 538.635 683.382 525.045 673.291C503.417 657.229 503.061 641.167 502.967 640.626C500.614 627.095 506.309 608.554 528.075 599.894C548.334 591.834 584.226 593.141 596.002 594.023C624.954 596.19 660.091 608.41 673.996 613.917Z" fill="#1c1814" fill-rule="nonzero" filter="url(#Filter_19)" stroke="none" vectornator:layerName="Curve 3" vectornator:shadowAngle="0.796683" vectornator:shadowColor="#000000" vectornator:shadowOffset="5.87979" vectornator:shadowOpacity="0.75" vectornator:shadowRadius="14.0538"/>
</g>
<path d="M1103.24 1212.66C1102.16 1240.04 1097.36 1267.14 1094.42 1294.39C1090.45 1294.14 1085.83 1295.82 1082.49 1293.64C1054.32 1275.18 1028.4 1253.5 1001.35 1233.43L892.107 1400.42L1303.46 1400.42C1294.06 1276.95 1297.59 1189.35 1287.79 1170.98C1279.11 1154.69 1258.94 1137.04 1243.94 1127.74C1206.45 1104.49 1168.22 1082.41 1129.45 1061.36C1122.3 1057.47 1110.58 1060.1 1106.47 1053.07C1100.89 1043.52 1105.77 1148.46 1103.24 1212.66Z" fill="#89a963" fill-rule="nonzero" filter="url(#Filter_20)" stroke="none" vectornator:layerName="Curve 4" vectornator:shadowAngle="1.01884" vectornator:shadowColor="#000000" vectornator:shadowOffset="5.87979" vectornator:shadowOpacity="0.75" vectornator:shadowRadius="14.0538"/>
<path d="M941.188 1180.61C927.263 1188.12 869.934 1343.48 862.412 1360.26C857.799 1370.55 851.179 1386.02 844.977 1400.42L893.011 1400.42C902.818 1384.5 914.796 1364.98 927.382 1345.12C955.793 1300.28 987.299 1252.45 1003.9 1233.43C982.873 1217.3 960.832 1194.45 941.188 1180.61Z" fill="#dfe2e0" fill-rule="nonzero" filter="url(#Filter_21)" stroke="none" vectornator:layerName="Curve 8" vectornator:shadowAngle="0.796683" vectornator:shadowColor="#000000" vectornator:shadowOffset="5.87979" vectornator:shadowOpacity="0.75" vectornator:shadowRadius="14.0538"/>
<path d="M986.053 1112.34C984.229 1117.35 944.251 1164.01 935.921 1186.22C935.921 1186.22 953.28 1196.91 953.55 1197.11C971.421 1209.86 988.827 1224.8 1004.76 1237.52C1023.22 1252.27 1042.18 1266.39 1061.29 1280.3C1071.43 1287.68 1086.58 1304.49 1095.61 1295.77C1099.64 1291.89 1104.81 1215.73 1105.23 1192.65C1106.29 1135.51 1106.51 1078.34 1105.23 1021.2C1105.17 1018.57 1103.3 1016.02 1101.25 1014.36C1086.46 1002.4 1071.13 991.056 1055.17 980.719C1047.03 975.449 1033.84 961.573 1024.15 962.067C1021.78 978.156 1022.5 1020.64 1012.37 1053.8C1004.96 1078.05 990.357 1104.01 986.053 1112.34Z" fill="#f2f3f1" fill-rule="nonzero" filter="url(#Filter_22)" stroke="none" vectornator:layerName="Curve 5" vectornator:shadowAngle="0.796683" vectornator:shadowColor="#000000" vectornator:shadowOffset="5.87979" vectornator:shadowOpacity="0.75" vectornator:shadowRadius="14.0538"/>
<path d="M862.412 827.457C847.767 831.504 779.787 838.565 761.732 840.452C761.732 840.452 738.802 842.513 717.227 842.513C705.501 842.513 645.538 840.565 646.996 847.852C650.621 865.978 669.185 900.614 689.802 918.733C696.538 924.652 713.718 936.869 733.639 937.277C757.855 937.774 785.196 925.457 790.988 922.052C805.73 913.385 846.497 868.847 852.215 857.412C853.98 853.88 873.013 824.528 862.412 827.457Z" fill="#7c3131" fill-rule="nonzero" filter="url(#Filter_23)" stroke="none" vectornator:layerName="Curve 9" vectornator:shadowAngle="0.796683" vectornator:shadowColor="#000000" vectornator:shadowOffset="5.87979" vectornator:shadowOpacity="0.75" vectornator:shadowRadius="14.0538"/>
<path d="M840.106 845.302C821.345 854.682 748.265 864.125 710.005 865.485C669.686 866.919 664.603 860.037 664.204 861.236C663.737 862.635 677.938 877.315 695.768 887.133C701.222 890.137 709.999 895.867 727.917 896.384C738.429 896.687 759.119 893.1 765.388 891.701C784.429 887.452 799.124 880.031 803.75 877.691C822.585 868.166 837.017 853.673 843.93 848.489C843.023 846.677 843.628 847.55 840.106 845.302Z" fill="#ffffff" fill-rule="nonzero" filter="url(#Filter_24)" stroke="none" vectornator:layerName="Curve 11" vectornator:shadowAngle="0.796683" vectornator:shadowColor="#000000" vectornator:shadowOffset="5.87979" vectornator:shadowOpacity="0.75" vectornator:shadowRadius="14.0538"/>
<path d="M890.454 479.477C862.981 482.224 838.075 499.943 815.887 513.255C811.079 516.14 791.555 528.993 802.503 535.562C812.816 541.749 817.709 532.739 826.084 528.551C847.664 517.761 863.934 505.864 887.905 499.872C905.01 495.595 930.544 497.478 946.539 504.333C950.961 506.228 957.788 505.009 962.472 506.882C968.621 509.341 982.239 514.524 988.603 510.706C983.409 503.782 972.47 500.302 965.022 497.322C947.54 490.33 930.46 480.114 890.454 479.477Z" fill="#7c3131" fill-rule="nonzero" filter="url(#Filter_25)" stroke="none" vectornator:layerName="Curve 12" vectornator:shadowAngle="0.796683" vectornator:shadowColor="#000000" vectornator:shadowOffset="2.21464" vectornator:shadowOpacity="0.75" vectornator:shadowRadius="14.0538"/>
<path d="M541.837 545.759C543.69 547.612 552.749 549.351 553.946 545.759C558.057 533.426 583.699 516.845 597.284 518.354C612.908 520.09 630.659 526.397 643.809 534.287C649.99 537.996 655.582 543.075 662.292 545.759C668.238 548.138 672.153 546.051 676.313 541.298C681.627 535.224 669.127 528 666.115 525.365C652.59 513.529 629.032 507.803 613.217 503.058C601.134 499.433 586.82 502.198 576.89 508.157C572.93 510.533 565.259 516.601 556.495 526.002C547.732 535.402 546.01 541.586 541.837 545.759Z" fill="#7c3131" fill-rule="nonzero" filter="url(#Filter_26)" stroke="none" vectornator:layerName="Curve 13" vectornator:shadowAngle="0.796683" vectornator:shadowColor="#000000" vectornator:shadowOffset="2.21464" vectornator:shadowOpacity="0.75" vectornator:shadowRadius="14.0538"/>
<path d="M426.481 500.509L456.5 521.329C456.5 521.329 465.219 504.887 465.995 501.783C466.925 498.062 472.88 501.909 475.555 499.234C474.366 498.045 443.229 479.617 443.229 479.617C443.229 479.617 462.593 501.821 458.039 500.683C451.829 499.131 438.687 489.255 438.687 489.255C435.641 495.756 430.835 499.116 426.481 500.509Z" fill="#5f583d" fill-rule="nonzero" filter="url(#Filter_27)" stroke="none" vectornator:layerName="Curve 15" vectornator:shadowAngle="0.796683" vectornator:shadowColor="#000000" vectornator:shadowOffset="5.87979" vectornator:shadowOpacity="0.75" vectornator:shadowRadius="14.0538"/>
<path d="M701.806 735.682C698.839 734.179 697.752 741.011 695.432 743.33C691.353 747.41 679.494 750.536 687.785 759.263C693.804 765.6 701.708 774.192 710.091 778.383C712.39 779.532 725.897 787.309 724.112 778.383C722.025 767.946 700.146 765.738 698.619 753.527C697.564 745.084 710.865 740.272 701.806 735.682Z" fill="#a4655f" fill-rule="nonzero" filter="url(#Filter_28)" stroke="none" vectornator:layerName="Curve 16" vectornator:shadowAngle="0.796683" vectornator:shadowColor="#000000" vectornator:shadowOffset="1.10732" vectornator:shadowOpacity="0.75" vectornator:shadowRadius="14.0538"/>
<path d="M427.118 500.509C432.945 499.344 435.492 495.25 437.376 491.939C440.1 487.153 443.162 485.194 440.767 478.008C434.048 475.258 423.744 467.198 416.08 479.155C407.878 491.953 423.921 501.148 427.118 500.509Z" fill="#a4655f" fill-rule="nonzero" filter="url(#Filter_29)" stroke="none" vectornator:layerName="Curve 17" vectornator:shadowAngle="0.796683" vectornator:shadowColor="#000000" vectornator:shadowOffset="5.87979" vectornator:shadowOpacity="0.75" vectornator:shadowRadius="14.0538"/>
<path d="M440.142 477.487C442.899 482.495 438.828 489.712 438.828 489.712C438.828 489.712 442.678 493.094 443.689 493.498C448.618 495.47 454.746 506.383 460.896 504.333C464.146 503.25 463.464 497.308 462.171 494.136C458.854 485.995 448.416 484.597 440.142 477.487Z" fill="#807c69" fill-rule="nonzero" filter="url(#Filter_30)" stroke="none" vectornator:layerName="Curve 19" vectornator:shadowAngle="0.796683" vectornator:shadowColor="#000000" vectornator:shadowOffset="5.87979" vectornator:shadowOpacity="0.75" vectornator:shadowRadius="14.0538"/>
<path d="M891.092 784.756C875.713 789.883 902.573 799.179 903.201 804.513C903.832 809.877 898.454 823.172 904.476 826.183C912.905 817.753 908.565 791.263 891.092 784.756Z" fill="#be9067" fill-rule="nonzero" filter="url(#Filter_31)" stroke="none" vectornator:layerName="Curve 20" vectornator:shadowAngle="0.796683" vectornator:shadowColor="#000000" vectornator:shadowOffset="1.10732" vectornator:shadowOpacity="0.75" vectornator:shadowRadius="14.0538"/>
<path d="M718.376 707.64C711.095 714.921 706.988 727.591 701.168 736.32C702.762 737.913 702.762 737.913 704.355 739.506C709.385 736.153 722.768 712.032 718.376 707.64Z" fill="#be9067" fill-rule="nonzero" filter="url(#Filter_32)" stroke="none" vectornator:layerName="Curve 21" vectornator:shadowAngle="0.796683" vectornator:shadowColor="#000000" vectornator:shadowOffset="1.10732" vectornator:shadowOpacity="0.75" vectornator:shadowRadius="14.0538"/>
<path d="M754.067 758.626C749.996 759.44 751.646 758.497 748.968 761.175C750.878 763.085 754.494 764.048 755.978 766.274C757.834 769.057 756.482 774.492 760.44 776.471C769.548 781.025 761.729 762.457 754.067 758.626Z" fill="#a4655f" fill-rule="nonzero" filter="url(#Filter_33)" stroke="none" vectornator:layerName="Curve 23" vectornator:shadowAngle="0.796683" vectornator:shadowColor="#000000" vectornator:shadowOffset="1.10732" vectornator:shadowOpacity="0.75" vectornator:shadowRadius="14.0538"/>
<path d="M860.5 399.811C862.412 401.723 862.412 401.723 864.324 403.635C870.749 400.423 880.605 401.375 885.993 395.987C881.771 391.766 864.827 395.484 860.5 399.811Z" fill="#a4655f" fill-rule="nonzero" filter="url(#Filter_34)" stroke="none" vectornator:layerName="Curve 24" vectornator:shadowAngle="0.796683" vectornator:shadowColor="#000000" vectornator:shadowOffset="5.87979" vectornator:shadowOpacity="0.75" vectornator:shadowRadius="14.0538"/>
<path d="M748.331 762.45C750.859 760.554 752.722 761.245 754.704 759.263C752.659 757.218 736.562 754.845 738.771 759.263C740.716 763.154 745.575 759.694 748.331 762.45Z" fill="#be9067" fill-rule="nonzero" filter="url(#Filter_35)" stroke="none" vectornator:layerName="Curve 25" vectornator:shadowAngle="0.796683" vectornator:shadowColor="#000000" vectornator:shadowOffset="1.10732" vectornator:shadowOpacity="0.75" vectornator:shadowRadius="14.0538"/>
<path d="M1270.3 613.953C1265.32 616.441 1267.32 620.535 1270.3 623.513C1272.74 621.076 1272.78 616.431 1270.3 613.953Z" fill="#731d17" fill-rule="nonzero" filter="url(#Filter_36)" stroke="none" vectornator:layerName="Curve 26" vectornator:shadowAngle="0.796683" vectornator:shadowColor="#000000" vectornator:shadowOffset="5.87979" vectornator:shadowOpacity="0.75" vectornator:shadowRadius="14.0538"/>
<path d="M1267.75 618.414C1266.29 619.871 1266.16 621.603 1265.2 623.513C1267.87 626.176 1266.57 624.704 1269.03 627.974C1272.14 624.86 1270.23 620.895 1267.75 618.414Z" fill="#b75848" fill-rule="nonzero" filter="url(#Filter_37)" stroke="none" vectornator:layerName="Curve 27" vectornator:shadowAngle="0.796683" vectornator:shadowColor="#000000" vectornator:shadowOffset="5.87979" vectornator:shadowOpacity="0.75" vectornator:shadowRadius="14.0538"/>
<path d="M840.106 845.302C841.699 846.896 841.699 847.533 843.292 849.126C843.911 848.559 846.143 846.282 847.116 845.302C844.386 842.573 843.696 843.431 840.106 845.302Z" fill="#c2736c" fill-rule="nonzero" filter="url(#Filter_38)" stroke="none" vectornator:layerName="Curve 29" vectornator:shadowAngle="0.796683" vectornator:shadowColor="#000000" vectornator:shadowOffset="5.87979" vectornator:shadowOpacity="0.75" vectornator:shadowRadius="14.0538"/>
<path d="M1167.69 796.866C1182.29 789.11 1197.71 775.892 1203.79 767.755C1213.01 755.418 1224.83 732.391 1226.35 696.786C1226.35 696.786 1226.59 644.87 1212.35 629.921C1188.3 604.655 1174.37 629.09 1173 633.773C1165.91 658.016 1149.77 698.259 1146.17 731.673C1142.57 765.137 1140.16 802.651 1140.16 802.651C1141.86 801.015 1143.73 799.18 1145.38 798.778C1145.38 798.778 1153.09 804.621 1167.69 796.866Z" fill="#e0b786" fill-rule="nonzero" filter="url(#Filter_39)" stroke="none" vectornator:layerName="Curve 10" vectornator:shadowAngle="0.796683" vectornator:shadowColor="#000000" vectornator:shadowOffset="5.87979" vectornator:shadowOpacity="0.75" vectornator:shadowRadius="14.0538"/>
<path d="M922.384 174.109C888.257 174.386 854.159 175.975 820.234 179.195C778.733 183.135 738.36 195.681 698.498 207.882C665.628 217.942 634.688 237.213 609.289 260.134C559.467 305.093 539.621 348.692 529.77 415.505C527.8 428.861 523.559 443.797 529.354 455.991C534.352 466.507 548.668 469.027 558.318 475.542C560.23 468.107 556.578 455.115 564.027 453.258C607.043 442.534 603.813 452.381 686.283 435.783C747.241 423.514 817.152 406.962 878.299 395.781C815.996 414.445 795.011 417.871 741.718 442.392C789.036 449.077 839.267 443.092 881.552 437.547C921.152 432.355 959.676 418.396 995.779 401.317C1035.04 382.745 1043.51 382.52 1080.18 359.239C1079.98 360.508 1079.99 361.695 1080 362.838C1079.88 362.859 1079.75 362.851 1079.62 362.872C1071.28 422.232 1087.07 548.629 1090.25 566.308C1095.77 556.619 1095.76 556.585 1101.29 546.895C1104.15 563.147 1099.72 572.273 1107.07 579.423C1114.41 586.573 1118.85 577.459 1130.66 575.513C1129.33 581.897 1117.59 672.504 1123.64 718.392C1131.66 694.795 1141.19 650.73 1151.88 628.214C1158.69 613.85 1163.42 600.626 1169.49 583.091C1169.34 583.87 1169.22 584.658 1169.25 585.479C1169.73 583.642 1170.3 581.816 1170.77 579.977C1170.48 584.069 1170.45 587.319 1170.39 590.635C1169.74 588.864 1169.3 587.138 1169.25 585.479C1156.86 632.24 1139.2 678.018 1133.68 726.039C1126.17 791.276 1131.39 923.073 1131.39 923.074C1131.39 923.074 1157.72 680.181 1172.99 633.786C1175.43 626.365 1181.16 619.775 1188.97 619.979C1189.13 619.983 1189.16 619.923 1189.28 619.909C1197.71 620.185 1208.58 622.299 1212.23 629.806C1222.18 650.29 1225.5 665.51 1226.24 696.661C1248.38 657.193 1248.35 657.197 1270.5 617.729C1259.95 657.041 1253.59 697.745 1238.87 735.694C1212.78 802.974 1172.8 864.463 1148.52 932.417C1134.96 970.363 1125.81 1010.92 1126.1 1051.21C1126.19 1064.62 1138.48 1076.36 1149.56 1083.91C1171.1 1098.6 1198.41 1102.84 1220.98 1115.89C1241.89 1127.97 1261.84 1142.17 1279.29 1158.86C1298.9 1177.64 1292.6 1211.83 1294.13 1238.94C1351.89 1233.58 1382.91 1205.49 1400 1166.78L1400 321.176C1384.55 314.727 1367.39 310.893 1351.13 310.897C1329.76 310.903 1308.74 317.306 1287.39 317.645C1276.6 317.816 1265.96 314.022 1255.27 312.835C1232.06 302.375 1223.61 271.532 1203.89 255.012C1197.13 249.354 1185.51 253.223 1178.42 247.988C1170.79 242.352 1170.21 229.984 1162.5 224.457C1145.51 212.28 1126.17 203.21 1106.41 196.393C1079.94 187.262 1052.66 178.592 1024.71 176.911C990.692 174.866 956.512 173.831 922.384 174.109ZM1079.62 362.872C1079.79 361.664 1080.01 360.448 1080.18 359.239C1078.21 361.336 1078.21 361.398 1076.23 363.495C1077.37 363.312 1078.49 363.058 1079.62 362.872Z" fill="#5a0711" fill-rule="nonzero" filter="url(#Filter_40)" stroke="none" vectornator:layerName="Curve 30" vectornator:shadowAngle="0.796683" vectornator:shadowColor="#000000" vectornator:shadowOffset="5.87979" vectornator:shadowOpacity="0.75" vectornator:shadowRadius="14.0538"/>
<path d="M669.302 285.093C678.749 293.19 708.878 271.227 720.926 267.247C751.073 257.288 783.93 241.842 815.887 236.018C928.202 215.55 1038.24 236.546 1147.93 255.138C1149.21 252.589 1149.21 252.589 1150.48 250.04C1113 231.939 1077.69 211.819 1035.13 202.877C963.873 187.908 888.408 191.662 817.208 209.178C769.941 220.806 711.029 259.942 669.302 285.093Z" fill="#731d17" fill-rule="nonzero" filter="url(#Filter_41)" stroke="none" vectornator:shadowAngle="0.0317278" vectornator:shadowColor="#000000" vectornator:shadowOffset="5.87979" vectornator:shadowOpacity="0.75" vectornator:shadowRadius="14.0538"/>
</g>
</g>
</svg>
