<svg xmlns="http://www.w3.org/2000/svg" xmlns:vectornator="http://vectornator.io" xmlns:xlink="http://www.w3.org/1999/xlink" style="fill-rule:nonzero;clip-rule:evenodd;stroke-linecap:round;stroke-linejoin:round" width="100%" height="100%" stroke-miterlimit="10" version="1.1" viewBox="0 0 100 100" xml:space="preserve"><defs><filter id="Filter" width="102.801" height="75.184" x="-2.64" y="13.391" color-interpolation-filters="sRGB" filterUnits="userSpaceOnUse"><feDropShadow dx="-1.24" dy=".983" flood-color="#000" flood-opacity=".55" in="SourceGraphic" result="Shadow" stdDeviation="2.149"/></filter></defs><g opacity="1"><path fill="#fff" fill-rule="nonzero" stroke="#fff" stroke-linecap="butt" stroke-linejoin="round" stroke-width="4.092" d="M8.03878 24.7471L91.9612 24.7471L91.9612 75.2529L8.03878 75.2529L8.03878 24.7471Z" opacity=".32"/><path fill="#fff" fill-rule="nonzero" stroke="none" d="M3.97248 17.7807L3.97248 82.2193L96.0275 82.2193L96.0275 17.7807L3.97248 17.7807ZM86.822 50L68.411 50L68.411 26.9862L86.822 26.9862L86.822 50ZM59.2055 40.7945L40.7945 40.7945L40.7945 26.9862L59.2055 26.9862L59.2055 40.7945ZM40.7945 50L59.2055 50L59.2055 73.0138L40.7945 73.0138L40.7945 50ZM13.178 26.9862L31.589 26.9862L31.589 73.0138L13.178 73.0138L13.178 26.9862ZM68.411 73.0138L68.411 59.2055L86.822 59.2055L86.822 73.0138L68.411 73.0138Z" filter="url(#Filter)" shadowAngle="2.471" shadowColor="#000000" shadowOffset="1.582" shadowOpacity=".55" shadowRadius="4.298"/></g></svg>