<svg xmlns="http://www.w3.org/2000/svg" xmlns:vectornator="http://vectornator.io" xmlns:xlink="http://www.w3.org/1999/xlink" width="100%" height="100%" viewBox="0 0 100 100" xml:space="preserve"><defs><linearGradient id="LinearGradient" x1="58.269" x2="93.925" y1="64.072" y2="64.008" gradientTransform="matrix(1 0 0 1 0 0)" gradientUnits="userSpaceOnUse"><stop offset="0" stop-color="#0ff"/><stop offset="1" stop-color="#0fd"/></linearGradient><filter id="Filter" width="49.6" height="47.65" x="51.85" y="26.814" color-interpolation-filters="sRGB" filterUnits="userSpaceOnUse"><feDropShadow dx="-.575" dy=".639" flood-color="#000" flood-opacity=".6" in="SourceGraphic" result="Shadow" stdDeviation="2"/></filter><linearGradient id="LinearGradient_2" x1="3.819" x2="39.475" y1="64.072" y2="64.008" gradientTransform="matrix(1 0 0 1 0 0)" gradientUnits="userSpaceOnUse"><stop offset="0" stop-color="#0ff"/><stop offset="1" stop-color="#0fd"/></linearGradient><filter id="Filter_2" width="49.6" height="47.65" x="-2.6" y="26.814" color-interpolation-filters="sRGB" filterUnits="userSpaceOnUse"><feDropShadow dx="-.575" dy=".639" flood-color="#000" flood-opacity=".6" in="SourceGraphic" result="Shadow" stdDeviation="2"/></filter><linearGradient id="LinearGradient_3" x1="-57.078" x2="-13.976" y1="58.949" y2="57.693" gradientTransform="matrix(1 0 0 1 0 0)" gradientUnits="userSpaceOnUse"><stop offset="0" stop-color="#a100bc"/><stop offset="1" stop-color="#da00ff"/></linearGradient><filter id="Filter_3" width="54.55" height="99.1" x="-5.575" y="1.089" color-interpolation-filters="sRGB" filterUnits="userSpaceOnUse"><feDropShadow dx="-.575" dy=".639" flood-color="#000" flood-opacity=".6" in="SourceGraphic" result="Shadow" stdDeviation="2"/></filter><linearGradient id="LinearGradient_4" x1="-1.628" x2="41.474" y1="58.949" y2="57.693" gradientTransform="matrix(1 0 0 1 0 0)" gradientUnits="userSpaceOnUse"><stop offset="0" stop-color="#a100bc"/><stop offset="1" stop-color="#da00ff"/></linearGradient><filter id="Filter_4" width="54.55" height="99.1" x="49.875" y="1.089" color-interpolation-filters="sRGB" filterUnits="userSpaceOnUse"><feDropShadow dx="-.575" dy=".639" flood-color="#000" flood-opacity=".6" in="SourceGraphic" result="Shadow" stdDeviation="2"/></filter></defs><g layerName="Group 16" opacity="1"><path fill="url(#LinearGradient)" d="M92.075 68.825L62.375 68.825C59.6426 68.825 57.425 66.6074 57.425 63.875C57.425 61.1426 59.6426 58.925 62.375 58.925L92.075 58.925C94.8074 58.925 97.025 61.1426 97.025 63.875C97.025 66.6074 94.8074 68.825 92.075 68.825ZM92.075 41.075L62.375 41.075C59.6426 41.075 57.425 38.8574 57.425 36.125C57.425 33.3926 59.6426 31.175 62.375 31.175L92.075 31.175C94.8074 31.175 97.025 33.3926 97.025 36.125C97.025 38.8574 94.8074 41.075 92.075 41.075Z" filter="url(#Filter)" layerName="Curve 1" shadowAngle="2.304" shadowColor="#000000" shadowOffset=".86" shadowOpacity=".6" shadowRadius="4"/><path fill="url(#LinearGradient_2)" d="M37.625 41.075L7.925 41.075C5.1926 41.075 2.975 38.8574 2.975 36.125C2.975 33.3926 5.1926 31.175 7.925 31.175L37.625 31.175C40.3574 31.175 42.575 33.3926 42.575 36.125C42.575 38.8574 40.3574 41.075 37.625 41.075ZM37.625 68.825L7.925 68.825C5.1926 68.825 2.975 66.6074 2.975 63.875C2.975 61.1426 5.1926 58.925 7.925 58.925L37.625 58.925C40.3574 58.925 42.575 61.1426 42.575 63.875C42.575 66.6074 40.3574 68.825 37.625 68.825Z" filter="url(#Filter_2)" layerName="Curve 1" shadowAngle="2.304" shadowColor="#000000" shadowOffset=".86" shadowOpacity=".6" shadowRadius="4"/><path fill="url(#LinearGradient_3)" d="M0 94.55L0 5.45L44.55 5.45L44.55 94.55L0 94.55ZM9.9 84.65L34.65 84.65L34.65 15.35L9.9 15.35L9.9 84.65Z" filter="url(#Filter_3)" layerName="Curve 1" shadowAngle="2.304" shadowColor="#000000" shadowOffset=".86" shadowOpacity=".6" shadowRadius="4"/><path fill="url(#LinearGradient_4)" d="M55.45 94.55L55.45 5.45L100 5.45L100 94.55L55.45 94.55ZM65.35 84.65L90.1 84.65L90.1 15.35L65.35 15.35L65.35 84.65Z" filter="url(#Filter_4)" layerName="Curve 2" shadowAngle="2.304" shadowColor="#000000" shadowOffset=".86" shadowOpacity=".6" shadowRadius="4"/></g></svg>