
<svg
   width="100%"
   height="100%"
   viewBox="0 0 24 24"
   version="1.1"
   id="svg1"
   sodipodi:docname="Grid-Columns-Bar-Chart-Gallery-DashBoard-rounded.svg"
   inkscape:version="1.3-beta (cedbd6c, 2023-05-28)"
   xmlns:inkscape="http://www.inkscape.org/namespaces/inkscape"
   xmlns:sodipodi="http://sodipodi.sourceforge.net/DTD/sodipodi-0.dtd"
   xmlns="http://www.w3.org/2000/svg"
   xmlns:svg="http://www.w3.org/2000/svg">
  <defs
     id="defs1">
    <filter
       style="color-interpolation-filters:sRGB;"
       inkscape:label="Drop Shadow"
       id="filter15"
       x="-0.062222219"
       y="-0.053333331"
       width="1.1155556"
       height="1.1155556">
      <feFlood
         result="flood"
         in="SourceGraphic"
         flood-opacity="0.560784"
         flood-color="rgb(0,0,0)"
         id="feFlood14" />
      <feGaussianBlur
         result="blur"
         in="SourceGraphic"
         stdDeviation="0.500000"
         id="feGaussianBlur14" />
      <feOffset
         result="offset"
         in="blur"
         dx="-0.200000"
         dy="0.200000"
         id="feOffset14" />
      <feComposite
         result="comp1"
         operator="in"
         in="flood"
         in2="offset"
         id="feComposite14" />
      <feComposite
         result="comp2"
         operator="over"
         in="SourceGraphic"
         in2="comp1"
         id="feComposite15" />
    </filter>
  </defs>
  <sodipodi:namedview
     id="namedview1"
     pagecolor="#505050"
     bordercolor="#ffffff"
     borderopacity="1"
     inkscape:showpageshadow="0"
     inkscape:pageopacity="0"
     inkscape:pagecheckerboard="1"
     inkscape:deskcolor="#505050"
     inkscape:zoom="6.1502129"
     inkscape:cx="-12.032104"
     inkscape:cy="14.796236"
     inkscape:window-width="1312"
     inkscape:window-height="585"
     inkscape:window-x="0"
     inkscape:window-y="25"
     inkscape:window-maximized="0"
     inkscape:current-layer="g4" />
  <g
     id="g4"
     style="filter:url(#filter15)">
    <path
       fill="#efefef"
       d="M 0.81811258,12 V 2.0000032 c 0,-0.3541665 0.11927347,-0.6512498 0.35782042,-0.8912497 C 1.4144799,0.86875357 1.7093503,0.74917027 2.0605444,0.7500036 h 7.4545914 c 0.3520221,0 0.6473072,0.11999997 0.8858552,0.3599999 0.238546,0.2399999 0.357405,0.5366665 0.356577,0.8899997 V 12 c 0,0.354167 -0.119273,0.65125 -0.35782,0.89125 -0.238547,0.24 -0.5334181,0.359583 -0.8846122,0.35875 H 2.0605444 C 1.7085221,13.25 1.4132375,13.13 1.1746906,12.89 0.93614359,12.65 0.81728425,12.353333 0.81811258,12 Z"
       id="path1"
       style="display:inline;stroke-width:1.24621;fill:#f9f9f9;fill-opacity:1"
       sodipodi:nodetypes="csscsscsscssc" />
    <path
       fill="#efefef"
       d="m 0.78784209,21.263792 v -4.999999 c 0,-0.354166 0.11999996,-0.651249 0.35999991,-0.891249 0.2399999,-0.24 0.5366664,-0.359584 0.8899997,-0.35875 h 7.4999976 c 0.3541661,0 0.6512497,0.12 0.8912497,0.36 0.239999,0.24 0.359583,0.536666 0.358749,0.889999 v 4.999999 c 0,0.354166 -0.12,0.65125 -0.359999,0.89125 -0.24,0.239999 -0.5366661,0.359583 -0.8899997,0.358749 H 2.0378417 c -0.3541665,0 -0.6512498,-0.12 -0.8912497,-0.359999 -0.23999995,-0.24 -0.35958328,-0.536667 -0.35874991,-0.89 z"
       id="path2"
       sodipodi:nodetypes="csscsscsscssc"
       style="display:inline;fill:#5c14bf;fill-opacity:1;stroke-width:1.25" />
    <path
       fill="#efefef"
       d="M 13.25,21.999997 V 12 c 0,-0.354166 0.12,-0.65125 0.359999,-0.89125 0.24,-0.24 0.536667,-0.359583 0.89,-0.35875 h 7.499998 c 0.354166,0 0.65125,0.12 0.89125,0.36 0.239999,0.24 0.359583,0.536666 0.358749,0.89 v 9.999997 c 0,0.354166 -0.12,0.65125 -0.359999,0.89125 -0.24,0.239999 -0.536667,0.359583 -0.89,0.358749 h -7.499998 c -0.354166,0 -0.65125,-0.12 -0.89125,-0.359999 -0.239999,-0.24 -0.359583,-0.536667 -0.358749,-0.89 z"
       id="path3"
       sodipodi:nodetypes="csscsscsscssc"
       style="display:inline;stroke-width:1.25;fill:#dc2a65;fill-opacity:1" />
    <path
       fill="#efefef"
       d="M 13.25,7.7362063 V 2.7362079 c 0,-0.3541665 0.12,-0.6512498 0.359999,-0.8912497 0.24,-0.2399999 0.536667,-0.3595833 0.89,-0.3587499 h 7.499998 c 0.354166,0 0.65125,0.12 0.89125,0.3599999 0.239999,0.2399999 0.359583,0.5366664 0.358749,0.8899997 v 4.9999984 c 0,0.3541667 -0.12,0.6512497 -0.359999,0.8912497 -0.24,0.24 -0.536667,0.359583 -0.89,0.35875 h -7.499998 c -0.354166,0 -0.65125,-0.12 -0.89125,-0.36 C 13.36875,8.386206 13.249166,8.08954 13.25,7.7362063 Z"
       id="path4"
       sodipodi:nodetypes="csscsscsscssc"
       style="display:inline;fill:#00ffbe;fill-opacity:1;stroke-width:1.25" />
  </g>
</svg>
