<svg xmlns="http://www.w3.org/2000/svg" xmlns:svg="http://www.w3.org/2000/svg" id="svg1" width="100%" height="100%" version="1.1" viewBox="0 0 24 24"><defs id="defs1"><filter style="color-interpolation-filters:sRGB" id="filter15" width="1.116" height="1.116" x="-.062" y="-.053"><feFlood id="feFlood14" flood-color="#000" flood-opacity=".561" in="SourceGraphic" result="flood"/><feGaussianBlur id="feGaussianBlur14" in="SourceGraphic" result="blur" stdDeviation=".5"/><feOffset id="feOffset14" dx="-.2" dy=".2" in="blur" result="offset"/><feComposite id="feComposite14" in="flood" in2="offset" operator="in" result="comp1"/><feComposite id="feComposite15" in="SourceGraphic" in2="comp1" operator="over" result="comp2"/></filter></defs><g id="g4" style="filter:url(#filter15)"><path id="path1" fill="#efefef" d="M 0.81811258,12 V 2.0000032 c 0,-0.3541665 0.11927347,-0.6512498 0.35782042,-0.8912497 C 1.4144799,0.86875357 1.7093503,0.74917027 2.0605444,0.7500036 h 7.4545914 c 0.3520221,0 0.6473072,0.11999997 0.8858552,0.3599999 0.238546,0.2399999 0.357405,0.5366665 0.356577,0.8899997 V 12 c 0,0.354167 -0.119273,0.65125 -0.35782,0.89125 -0.238547,0.24 -0.5334181,0.359583 -0.8846122,0.35875 H 2.0605444 C 1.7085221,13.25 1.4132375,13.13 1.1746906,12.89 0.93614359,12.65 0.81728425,12.353333 0.81811258,12 Z" style="display:inline;stroke-width:1.24621;fill:#f9f9f9;fill-opacity:1"/><path id="path2" fill="#efefef" d="m 0.78784209,21.263792 v -4.999999 c 0,-0.354166 0.11999996,-0.651249 0.35999991,-0.891249 0.2399999,-0.24 0.5366664,-0.359584 0.8899997,-0.35875 h 7.4999976 c 0.3541661,0 0.6512497,0.12 0.8912497,0.36 0.239999,0.24 0.359583,0.536666 0.358749,0.889999 v 4.999999 c 0,0.354166 -0.12,0.65125 -0.359999,0.89125 -0.24,0.239999 -0.5366661,0.359583 -0.8899997,0.358749 H 2.0378417 c -0.3541665,0 -0.6512498,-0.12 -0.8912497,-0.359999 -0.23999995,-0.24 -0.35958328,-0.536667 -0.35874991,-0.89 z" style="display:inline;fill:#5c14bf;fill-opacity:1;stroke-width:1.25"/><path id="path3" fill="#efefef" d="M 13.25,21.999997 V 12 c 0,-0.354166 0.12,-0.65125 0.359999,-0.89125 0.24,-0.24 0.536667,-0.359583 0.89,-0.35875 h 7.499998 c 0.354166,0 0.65125,0.12 0.89125,0.36 0.239999,0.24 0.359583,0.536666 0.358749,0.89 v 9.999997 c 0,0.354166 -0.12,0.65125 -0.359999,0.89125 -0.24,0.239999 -0.536667,0.359583 -0.89,0.358749 h -7.499998 c -0.354166,0 -0.65125,-0.12 -0.89125,-0.359999 -0.239999,-0.24 -0.359583,-0.536667 -0.358749,-0.89 z" style="display:inline;stroke-width:1.25;fill:#dc2a65;fill-opacity:1"/><path id="path4" fill="#efefef" d="M 13.25,7.7362063 V 2.7362079 c 0,-0.3541665 0.12,-0.6512498 0.359999,-0.8912497 0.24,-0.2399999 0.536667,-0.3595833 0.89,-0.3587499 h 7.499998 c 0.354166,0 0.65125,0.12 0.89125,0.3599999 0.239999,0.2399999 0.359583,0.5366664 0.358749,0.8899997 v 4.9999984 c 0,0.3541667 -0.12,0.6512497 -0.359999,0.8912497 -0.24,0.24 -0.536667,0.359583 -0.89,0.35875 h -7.499998 c -0.354166,0 -0.65125,-0.12 -0.89125,-0.36 C 13.36875,8.386206 13.249166,8.08954 13.25,7.7362063 Z" style="display:inline;fill:#00ffbe;fill-opacity:1;stroke-width:1.25"/></g></svg>