<svg xmlns="http://www.w3.org/2000/svg" xmlns:xlink="http://www.w3.org/1999/xlink" width="100%" height="100%" stroke-miterlimit="10" version="1.1" viewBox="0 0 680 680" xml:space="preserve" style="fill-rule:nonzero;clip-rule:evenodd;stroke-linecap:round;stroke-linejoin:round"><defs><filter id="F1" width="55.914" height="83.137" x="131.38" y="239.941" color-interpolation-filters="sRGB" filterUnits="userSpaceOnUse"><feDropShadow dx="0" dy="1.178" flood-color="#000" flood-opacity=".33" in="SourceGraphic" result="Shadow" stdDeviation="1.649"/></filter><filter id="F2" width="58.324" height="84.785" x="491.22" y="238.294" color-interpolation-filters="sRGB" filterUnits="userSpaceOnUse"><feDropShadow dx="0" dy="1.178" flood-color="#000" flood-opacity=".33" in="SourceGraphic" result="Shadow" stdDeviation="1.649"/></filter><filter id="F3" width="287.238" height="244.514" x="195.691" y="194.923" color-interpolation-filters="sRGB" filterUnits="userSpaceOnUse"><feDropShadow dx="0" dy="1.178" flood-color="#000" flood-opacity=".33" in="SourceGraphic" result="Shadow" stdDeviation="1.649"/></filter><filter id="F4" width="35.219" height="34.75" x="309.312" y="312.733" color-interpolation-filters="sRGB" filterUnits="userSpaceOnUse"><feDropShadow dx="0" dy="1.178" flood-color="#000" flood-opacity=".33" in="SourceGraphic" result="Shadow" stdDeviation="1.649"/></filter><filter id="F5" width="31.384" height="35.014" x="336.217" y="312.432" color-interpolation-filters="sRGB" filterUnits="userSpaceOnUse"><feDropShadow dx="0" dy="1.178" flood-color="#000" flood-opacity=".33" in="SourceGraphic" result="Shadow" stdDeviation="1.649"/></filter><filter id="F6" width="41.506" height="19.891" x="302.958" y="393.504" color-interpolation-filters="sRGB" filterUnits="userSpaceOnUse"><feDropShadow dx="0" dy="1.178" flood-color="#000" flood-opacity=".33" in="SourceGraphic" result="Shadow" stdDeviation="1.649"/></filter><filter id="F7" width="39.869" height="19.768" x="336.219" y="393.626" color-interpolation-filters="sRGB" filterUnits="userSpaceOnUse"><feDropShadow dx="0" dy="1.178" flood-color="#000" flood-opacity=".33" in="SourceGraphic" result="Shadow" stdDeviation="1.649"/></filter><filter id="F8" width="473.208" height="143.833" x="104.061" y="542.328" color-interpolation-filters="sRGB" filterUnits="userSpaceOnUse"><feDropShadow dx="0" dy="1.282" flood-color="#000" flood-opacity=".5" in="SourceGraphic" result="Shadow" stdDeviation="2.319"/></filter><filter id="F9" width="162.47" height="128.855" x="109.859" y="546.845" color-interpolation-filters="sRGB" filterUnits="userSpaceOnUse"><feDropShadow dx="0" dy="1.107" flood-color="#000" flood-opacity=".5" in="SourceGraphic" result="Shadow" stdDeviation="2.319"/></filter><filter id="F10" width="162.47" height="128.854" x="409" y="550.227" color-interpolation-filters="sRGB" filterUnits="userSpaceOnUse"><feDropShadow dx="0" dy=".758" flood-color="#000" flood-opacity=".5" in="SourceGraphic" result="Shadow" stdDeviation="2.319"/></filter><filter id="F11" width="101.353" height="142.317" x="120.561" y="461.093" color-interpolation-filters="sRGB" filterUnits="userSpaceOnUse"><feDropShadow dx="0" dy="1.178" flood-color="#000" flood-opacity=".33" in="SourceGraphic" result="Shadow" stdDeviation="1.474"/></filter><filter id="F12" width="84.746" height="156.236" x="125.776" y="422.074" color-interpolation-filters="sRGB" filterUnits="userSpaceOnUse"><feDropShadow dx="0" dy="1.178" flood-color="#000" flood-opacity=".33" in="SourceGraphic" result="Shadow" stdDeviation="1.474"/></filter><filter id="F13" width="98.032" height="107.92" x="455.954" y="496.417" color-interpolation-filters="sRGB" filterUnits="userSpaceOnUse"><feDropShadow dx="0" dy="1.178" flood-color="#000" flood-opacity=".33" in="SourceGraphic" result="Shadow" stdDeviation="1.474"/></filter><filter id="F14" width="64.799" height="35.873" x="488.203" y="453.769" color-interpolation-filters="sRGB" filterUnits="userSpaceOnUse"><feDropShadow dx="0" dy="1.178" flood-color="#000" flood-opacity=".33" in="SourceGraphic" result="Shadow" stdDeviation="1.474"/></filter><filter id="F15" width="53.248" height="53.785" x="490.891" y="412.936" color-interpolation-filters="sRGB" filterUnits="userSpaceOnUse"><feDropShadow dx="0" dy="1.178" flood-color="#000" flood-opacity=".33" in="SourceGraphic" result="Shadow" stdDeviation="1.474"/></filter><filter id="F16" width="57.997" height="49.16" x="478.123" y="509.957" color-interpolation-filters="sRGB" filterUnits="userSpaceOnUse"><feDropShadow dx="0" dy="1.178" flood-color="#000" flood-opacity=".33" in="SourceGraphic" result="Shadow" stdDeviation="1.474"/></filter><filter id="F17" width="52.039" height="64.655" x="470.363" y="517.141" color-interpolation-filters="sRGB" filterUnits="userSpaceOnUse"><feDropShadow dx="0" dy="1.178" flood-color="#000" flood-opacity=".33" in="SourceGraphic" result="Shadow" stdDeviation="1.474"/></filter><filter id="F18" width="63.636" height="27.321" x="485.527" y="492.264" color-interpolation-filters="sRGB" filterUnits="userSpaceOnUse"><feDropShadow dx="0" dy="1.178" flood-color="#000" flood-opacity=".33" in="SourceGraphic" result="Shadow" stdDeviation="1.474"/></filter><filter id="F19" width="67.045" height="22.279" x="486.719" y="480.572" color-interpolation-filters="sRGB" filterUnits="userSpaceOnUse"><feDropShadow dx="0" dy="1.178" flood-color="#000" flood-opacity=".33" in="SourceGraphic" result="Shadow" stdDeviation="1.474"/></filter><filter id="F20" width="58.541" height="24.046" x="483.859" y="502.059" color-interpolation-filters="sRGB" filterUnits="userSpaceOnUse"><feDropShadow dx="0" dy="1.178" flood-color="#000" flood-opacity=".33" in="SourceGraphic" result="Shadow" stdDeviation="1.474"/></filter><filter id="F21" width="57.717" height="20.59" x="489.631" y="447.742" color-interpolation-filters="sRGB" filterUnits="userSpaceOnUse"><feDropShadow dx="0" dy="1.178" flood-color="#000" flood-opacity=".33" in="SourceGraphic" result="Shadow" stdDeviation="1.474"/></filter><filter id="F22" width="30.099" height="23.613" x="475.795" y="536.945" color-interpolation-filters="sRGB" filterUnits="userSpaceOnUse"><feDropShadow dx="0" dy="1.178" flood-color="#000" flood-opacity=".33" in="SourceGraphic" result="Shadow" stdDeviation="1.474"/></filter><filter id="F23" width="43.261" height="22.324" x="492.309" y="431.582" color-interpolation-filters="sRGB" filterUnits="userSpaceOnUse"><feDropShadow dx="0" dy="1.178" flood-color="#000" flood-opacity=".33" in="SourceGraphic" result="Shadow" stdDeviation="1.474"/></filter><filter id="F24" width="52.208" height="35.941" x="479.68" y="509.61" color-interpolation-filters="sRGB" filterUnits="userSpaceOnUse"><feDropShadow dx="0" dy="1.178" flood-color="#000" flood-opacity=".33" in="SourceGraphic" result="Shadow" stdDeviation="1.474"/></filter><filter id="F25" width="27.108" height="17.113" x="493.573" y="421.646" color-interpolation-filters="sRGB" filterUnits="userSpaceOnUse"><feDropShadow dx="0" dy="1.178" flood-color="#000" flood-opacity=".33" in="SourceGraphic" result="Shadow" stdDeviation="1.474"/></filter><filter id="F26" width="395.422" height="522.786" x="166.924" y="230.459" color-interpolation-filters="sRGB" filterUnits="userSpaceOnUse"><feDropShadow dx="0" dy="2.415" flood-color="#000" flood-opacity=".995" in="SourceGraphic" result="Shadow" stdDeviation="5"/></filter><filter id="F27" width="335.684" height="439.372" x="172.774" y="241.189" color-interpolation-filters="sRGB" filterUnits="userSpaceOnUse"><feDropShadow dx="0" dy=".291" flood-color="#000" flood-opacity=".5" in="SourceGraphic" result="Shadow" stdDeviation="1.399"/></filter><filter id="F28" width="41.778" height="75.168" x="384.414" y="390.534" color-interpolation-filters="sRGB" filterUnits="userSpaceOnUse"><feDropShadow dx="0" dy=".291" flood-color="#000" flood-opacity=".33" in="SourceGraphic" result="Shadow" stdDeviation="1.399"/></filter><filter id="F29" width="41.778" height="79.068" x="252.327" y="386.522" color-interpolation-filters="sRGB" filterUnits="userSpaceOnUse"><feDropShadow dx="0" dy=".291" flood-color="#000" flood-opacity=".33" in="SourceGraphic" result="Shadow" stdDeviation="1.399"/></filter><filter id="F30" width="171.559" height="439.599" x="172.401" y="241.189" color-interpolation-filters="sRGB" filterUnits="userSpaceOnUse"><feDropShadow dx="0" dy=".291" flood-color="#000" flood-opacity=".33" in="SourceGraphic" result="Shadow" stdDeviation="1.399"/></filter><filter id="F31" width="91.752" height="46.37" x="236.517" y="633.187" color-interpolation-filters="sRGB" filterUnits="userSpaceOnUse"><feDropShadow dx="0" dy=".291" flood-color="#000" flood-opacity=".33" in="SourceGraphic" result="Shadow" stdDeviation="1.399"/></filter><filter id="F32" width="116.762" height="63.506" x="226.703" y="617.253" color-interpolation-filters="sRGB" filterUnits="userSpaceOnUse"><feDropShadow dx="0" dy=".291" flood-color="#000" flood-opacity=".33" in="SourceGraphic" result="Shadow" stdDeviation="1.399"/></filter><filter id="F33" width="93.378" height="47.594" x="235.913" y="633.156" color-interpolation-filters="sRGB" filterUnits="userSpaceOnUse"><feDropShadow dx="0" dy=".291" flood-color="#000" flood-opacity=".33" in="SourceGraphic" result="Shadow" stdDeviation="1.399"/></filter><filter id="F34" width="143.929" height="37.231" x="200.031" y="564.826" color-interpolation-filters="sRGB" filterUnits="userSpaceOnUse"><feDropShadow dx="0" dy=".291" flood-color="#000" flood-opacity=".33" in="SourceGraphic" result="Shadow" stdDeviation="1.399"/></filter><filter id="F35" width="133.95" height="29.814" x="210.01" y="593.036" color-interpolation-filters="sRGB" filterUnits="userSpaceOnUse"><feDropShadow dx="0" dy=".291" flood-color="#000" flood-opacity=".33" in="SourceGraphic" result="Shadow" stdDeviation="1.399"/></filter><filter id="F36" width="121.948" height="29.515" x="222.409" y="612.106" color-interpolation-filters="sRGB" filterUnits="userSpaceOnUse"><feDropShadow dx="0" dy=".291" flood-color="#000" flood-opacity=".33" in="SourceGraphic" result="Shadow" stdDeviation="1.399"/></filter><filter id="F37" width="151.512" height="48.907" x="194.788" y="449.67" color-interpolation-filters="sRGB" filterUnits="userSpaceOnUse"><feDropShadow dx="0" dy=".291" flood-color="#000" flood-opacity=".33" in="SourceGraphic" result="Shadow" stdDeviation="1.399"/></filter><filter id="F38" width="154.267" height="45.751" x="191.694" y="528.201" color-interpolation-filters="sRGB" filterUnits="userSpaceOnUse"><feDropShadow dx="0" dy=".291" flood-color="#000" flood-opacity=".33" in="SourceGraphic" result="Shadow" stdDeviation="1.399"/></filter><filter id="F39" width="105.345" height="438.938" x="172.406" y="241.563" color-interpolation-filters="sRGB" filterUnits="userSpaceOnUse"><feDropShadow dx="0" dy=".291" flood-color="#000" flood-opacity=".33" in="SourceGraphic" result="Shadow" stdDeviation="1.399"/></filter><filter id="F40" width="146.479" height="49.035" x="199.482" y="489.872" color-interpolation-filters="sRGB" filterUnits="userSpaceOnUse"><feDropShadow dx="0" dy=".291" flood-color="#000" flood-opacity=".33" in="SourceGraphic" result="Shadow" stdDeviation="1.399"/></filter><filter id="F41" width="155.633" height="97.075" x="190.328" y="363.044" color-interpolation-filters="sRGB" filterUnits="userSpaceOnUse"><feDropShadow dx="0" dy=".291" flood-color="#000" flood-opacity=".33" in="SourceGraphic" result="Shadow" stdDeviation="1.399"/></filter><filter id="F42" width="171.557" height="439.599" x="336.967" y="241.189" color-interpolation-filters="sRGB" filterUnits="userSpaceOnUse"><feDropShadow dx="0" dy=".291" flood-color="#000" flood-opacity=".33" in="SourceGraphic" result="Shadow" stdDeviation="1.399"/></filter><filter id="F43" width="91.752" height="46.37" x="352.657" y="633.187" color-interpolation-filters="sRGB" filterUnits="userSpaceOnUse"><feDropShadow dx="0" dy=".291" flood-color="#000" flood-opacity=".33" in="SourceGraphic" result="Shadow" stdDeviation="1.399"/></filter><filter id="F44" width="116.761" height="63.505" x="336.967" y="617.282" color-interpolation-filters="sRGB" filterUnits="userSpaceOnUse"><feDropShadow dx="0" dy=".291" flood-color="#000" flood-opacity=".33" in="SourceGraphic" result="Shadow" stdDeviation="1.399"/></filter><filter id="F45" width="143.927" height="37.231" x="336.967" y="564.826" color-interpolation-filters="sRGB" filterUnits="userSpaceOnUse"><feDropShadow dx="0" dy=".291" flood-color="#000" flood-opacity=".33" in="SourceGraphic" result="Shadow" stdDeviation="1.399"/></filter><filter id="F46" width="133.948" height="29.814" x="336.967" y="593.036" color-interpolation-filters="sRGB" filterUnits="userSpaceOnUse"><feDropShadow dx="0" dy=".291" flood-color="#000" flood-opacity=".33" in="SourceGraphic" result="Shadow" stdDeviation="1.399"/></filter><filter id="F47" width="121.549" height="29.671" x="336.967" y="612.106" color-interpolation-filters="sRGB" filterUnits="userSpaceOnUse"><feDropShadow dx="0" dy=".291" flood-color="#000" flood-opacity=".33" in="SourceGraphic" result="Shadow" stdDeviation="1.399"/></filter><filter id="F48" width="149.171" height="48.907" x="336.967" y="449.67" color-interpolation-filters="sRGB" filterUnits="userSpaceOnUse"><feDropShadow dx="0" dy=".291" flood-color="#000" flood-opacity=".33" in="SourceGraphic" result="Shadow" stdDeviation="1.399"/></filter><filter id="F49" width="151.99" height="45.751" x="337.241" y="528.201" color-interpolation-filters="sRGB" filterUnits="userSpaceOnUse"><feDropShadow dx="0" dy=".291" flood-color="#000" flood-opacity=".33" in="SourceGraphic" result="Shadow" stdDeviation="1.399"/></filter><filter id="F50" width="105.346" height="438.938" x="403.173" y="241.563" color-interpolation-filters="sRGB" filterUnits="userSpaceOnUse"><feDropShadow dx="0" dy=".291" flood-color="#000" flood-opacity=".33" in="SourceGraphic" result="Shadow" stdDeviation="1.399"/></filter><filter id="F51" width="144.476" height="49.035" x="336.967" y="489.872" color-interpolation-filters="sRGB" filterUnits="userSpaceOnUse"><feDropShadow dx="0" dy=".291" flood-color="#000" flood-opacity=".33" in="SourceGraphic" result="Shadow" stdDeviation="1.399"/></filter><filter id="F52" width="153.629" height="97.075" x="336.967" y="363.044" color-interpolation-filters="sRGB" filterUnits="userSpaceOnUse"><feDropShadow dx="0" dy=".291" flood-color="#000" flood-opacity=".33" in="SourceGraphic" result="Shadow" stdDeviation="1.399"/></filter><filter id="F53" width="57.065" height="71.611" x="245.668" y="404.888" color-interpolation-filters="sRGB" filterUnits="userSpaceOnUse"><feDropShadow dx="0" dy="4.091" flood-color="#000" flood-opacity=".33" in="SourceGraphic" result="Shadow" stdDeviation="4.242"/></filter><filter id="F54" width="57.065" height="71.611" x="245.668" y="404.888" color-interpolation-filters="sRGB" filterUnits="userSpaceOnUse"><feDropShadow dx="0" dy="4.091" flood-color="#000" flood-opacity=".33" in="SourceGraphic" result="Shadow" stdDeviation="4.242"/></filter><filter id="F55" width="107.201" height="116.385" x="241.877" y="349.504" color-interpolation-filters="sRGB" filterUnits="userSpaceOnUse"><feDropShadow dx="0" dy="1.178" flood-color="#000" flood-opacity=".33" in="SourceGraphic" result="Shadow" stdDeviation="4.242"/></filter><filter id="F56" width="48.608" height="63.025" x="248.973" y="394.884" color-interpolation-filters="sRGB" filterUnits="userSpaceOnUse"><feDropShadow dx="0" dy=".291" flood-color="#000" flood-opacity=".33" in="SourceGraphic" result="Shadow" stdDeviation="1.399"/></filter><filter id="F57" width="46.58" height="33.828" x="251" y="394.648" color-interpolation-filters="sRGB" filterUnits="userSpaceOnUse"><feDropShadow dx="0" dy=".291" flood-color="#000" flood-opacity=".33" in="SourceGraphic" result="Shadow" stdDeviation="1.399"/></filter><filter id="F58" width="83.721" height="39.492" x="251" y="362.939" color-interpolation-filters="sRGB" filterUnits="userSpaceOnUse"><feDropShadow dx="0" dy=".291" flood-color="#000" flood-opacity=".33" in="SourceGraphic" result="Shadow" stdDeviation="1.399"/></filter><filter id="F59" width="59.593" height="21.638" x="282.403" y="355.747" color-interpolation-filters="sRGB" filterUnits="userSpaceOnUse"><feDropShadow dx="0" dy=".291" flood-color="#000" flood-opacity=".33" in="SourceGraphic" result="Shadow" stdDeviation="1.399"/></filter><filter id="F60" width="56.884" height="70.977" x="378.373" y="405.506" color-interpolation-filters="sRGB" filterUnits="userSpaceOnUse"><feDropShadow dx="0" dy="4.091" flood-color="#000" flood-opacity=".33" in="SourceGraphic" result="Shadow" stdDeviation="4.242"/></filter><filter id="F61" width="56.884" height="70.977" x="378.373" y="405.506" color-interpolation-filters="sRGB" filterUnits="userSpaceOnUse"><feDropShadow dx="0" dy="4.091" flood-color="#000" flood-opacity=".33" in="SourceGraphic" result="Shadow" stdDeviation="4.242"/></filter><filter id="F62" width="107.263" height="116.387" x="331.784" y="349.472" color-interpolation-filters="sRGB" filterUnits="userSpaceOnUse"><feDropShadow dx="0" dy="1.178" flood-color="#000" flood-opacity=".33" in="SourceGraphic" result="Shadow" stdDeviation="4.242"/></filter><filter id="F63" width="48.608" height="63.026" x="383.344" y="394.868" color-interpolation-filters="sRGB" filterUnits="userSpaceOnUse"><feDropShadow dx="0" dy=".291" flood-color="#000" flood-opacity=".33" in="SourceGraphic" result="Shadow" stdDeviation="1.399"/></filter><filter id="F64" width="46.581" height="33.829" x="383.344" y="394.632" color-interpolation-filters="sRGB" filterUnits="userSpaceOnUse"><feDropShadow dx="0" dy=".291" flood-color="#000" flood-opacity=".33" in="SourceGraphic" result="Shadow" stdDeviation="1.399"/></filter><filter id="F65" width="83.721" height="38.601" x="346.204" y="363.816" color-interpolation-filters="sRGB" filterUnits="userSpaceOnUse"><feDropShadow dx="0" dy=".291" flood-color="#000" flood-opacity=".33" in="SourceGraphic" result="Shadow" stdDeviation="1.399"/></filter><filter id="F66" width="59.598" height="21.637" x="338.923" y="355.731" color-interpolation-filters="sRGB" filterUnits="userSpaceOnUse"><feDropShadow dx="0" dy=".291" flood-color="#000" flood-opacity=".33" in="SourceGraphic" result="Shadow" stdDeviation="1.399"/></filter><filter id="F68" width="94.056" height="34.879" x="239.371" y="252.154" color-interpolation-filters="sRGB" filterUnits="userSpaceOnUse"><feDropShadow dx="0" dy="1.178" flood-color="#000" flood-opacity=".33" in="SourceGraphic" result="Shadow" stdDeviation="1.474"/></filter><filter id="F67" width="93.4" height="56.59" x="239.787" y="259.973" color-interpolation-filters="sRGB" filterUnits="userSpaceOnUse"><feDropShadow dx="0" dy="1.2" flood-color="#000" flood-opacity=".33" in="SourceGraphic" result="Shadow" stdDeviation="2.8"/></filter><filter id="F69" width="93.4" height="56.584" x="347.082" y="259.973" color-interpolation-filters="sRGB" filterUnits="userSpaceOnUse"><feDropShadow dx="0" dy="1.2" flood-color="#000" flood-opacity=".33" in="SourceGraphic" result="Shadow" stdDeviation="2.8"/></filter><filter id="F70" width="94.658" height="34.925" x="346.241" y="252.156" color-interpolation-filters="sRGB" filterUnits="userSpaceOnUse"><feDropShadow dx="0" dy="1.178" flood-color="#000" flood-opacity=".33" in="SourceGraphic" result="Shadow" stdDeviation="1.474"/></filter><filter id="F71" width="69.088" height="20.52" x="256.114" y="222.205" color-interpolation-filters="sRGB" filterUnits="userSpaceOnUse"><feDropShadow dx="0" dy="1.178" flood-color="#000" flood-opacity=".33" in="SourceGraphic" result="Shadow" stdDeviation="1.474"/></filter><filter id="F72" width="69.087" height="20.521" x="355.723" y="222.204" color-interpolation-filters="sRGB" filterUnits="userSpaceOnUse"><feDropShadow dx="0" dy="1.178" flood-color="#000" flood-opacity=".33" in="SourceGraphic" result="Shadow" stdDeviation="1.474"/></filter><linearGradient id="LinearGradient" x1="0" x2="1" y1="0" y2="0" gradientTransform="matrix(2.46653 -433.914 445.4 2.40292 341.709 520.482)" gradientUnits="userSpaceOnUse"><stop offset="0" stop-color="#554138"/><stop offset="1" stop-color="#534a47"/></linearGradient><filter id="F73" width="439.933" height="165.348" x="120.496" y="90.669" color-interpolation-filters="sRGB" filterUnits="userSpaceOnUse"><feDropShadow dx="0" dy="1.178" flood-color="#000" flood-opacity=".33" in="SourceGraphic" result="Shadow" stdDeviation="1.474"/></filter><filter id="F74" width="439.983" height="45.3" x="120.484" y="116.051" color-interpolation-filters="sRGB" filterUnits="userSpaceOnUse"><feDropShadow dx="0" dy="1.178" flood-color="#000" flood-opacity=".33" in="SourceGraphic" result="Shadow" stdDeviation="1.474"/></filter><filter id="F75" width="436.056" height="44.554" x="122.434" y="147.099" color-interpolation-filters="sRGB" filterUnits="userSpaceOnUse"><feDropShadow dx="0" dy="1.178" flood-color="#000" flood-opacity=".33" in="SourceGraphic" result="Shadow" stdDeviation="1.474"/></filter><filter id="F76" width="352.467" height="38.739" x="164.29" y="71.209" color-interpolation-filters="sRGB" filterUnits="userSpaceOnUse"><feDropShadow dx="0" dy="1.178" flood-color="#000" flood-opacity=".33" in="SourceGraphic" result="Shadow" stdDeviation="1.474"/></filter><filter id="F77" width="437.306" height="41.384" x="121.809" y="90.609" color-interpolation-filters="sRGB" filterUnits="userSpaceOnUse"><feDropShadow dx="0" dy="1.178" flood-color="#000" flood-opacity=".33" in="SourceGraphic" result="Shadow" stdDeviation="1.474"/></filter><filter id="F78" width="319.867" height="88.527" x="181.294" y="-2.5" color-interpolation-filters="sRGB" filterUnits="userSpaceOnUse"><feDropShadow dx="0" dy="1.178" flood-color="#000" flood-opacity=".33" in="SourceGraphic" result="Shadow" stdDeviation="1.474"/></filter><filter id="F79" width="279.147" height="29.646" x="202.14" y="27.5" color-interpolation-filters="sRGB" filterUnits="userSpaceOnUse"><feDropShadow dx="0" dy="1.178" flood-color="#000" flood-opacity=".33" in="SourceGraphic" result="Shadow" stdDeviation="1.474"/></filter><filter id="F80" width="279.351" height="30.437" x="201.936" y="26.909" color-interpolation-filters="sRGB" filterUnits="userSpaceOnUse"><feDropShadow dx="0" dy="1.178" flood-color="#000" flood-opacity=".33" in="SourceGraphic" result="Shadow" stdDeviation="1.474"/></filter><filter id="F81" width="215.582" height="37.38" x="232.671" y="-2.508" color-interpolation-filters="sRGB" filterUnits="userSpaceOnUse"><feDropShadow dx="0" dy="1.178" flood-color="#000" flood-opacity=".33" in="SourceGraphic" result="Shadow" stdDeviation="1.474"/></filter><filter id="F82" width="108.775" height="22.769" x="334.732" y="192.091" color-interpolation-filters="sRGB" filterUnits="userSpaceOnUse"><feDropShadow dx="0" dy="1.178" flood-color="#000" flood-opacity=".33" in="SourceGraphic" result="Shadow" stdDeviation="1.474"/></filter><filter id="F83" width="97.648" height="22.136" x="430.809" y="213.042" color-interpolation-filters="sRGB" filterUnits="userSpaceOnUse"><feDropShadow dx="0" dy="1.178" flood-color="#000" flood-opacity=".33" in="SourceGraphic" result="Shadow" stdDeviation="1.474"/></filter><filter id="F84" width="92.583" height="28.21" x="434.563" y="227.807" color-interpolation-filters="sRGB" filterUnits="userSpaceOnUse"><feDropShadow dx="0" dy="1.178" flood-color="#000" flood-opacity=".33" in="SourceGraphic" result="Shadow" stdDeviation="1.474"/></filter><filter id="F85" width="97.531" height="26.313" x="430.803" y="194.101" color-interpolation-filters="sRGB" filterUnits="userSpaceOnUse"><feDropShadow dx="0" dy="1.178" flood-color="#000" flood-opacity=".33" in="SourceGraphic" result="Shadow" stdDeviation="1.474"/></filter><filter id="F86" width="120.808" height="22.461" x="223.342" y="192.317" color-interpolation-filters="sRGB" filterUnits="userSpaceOnUse"><feDropShadow dx="0" dy="1.178" flood-color="#000" flood-opacity=".33" in="SourceGraphic" result="Shadow" stdDeviation="1.474"/></filter><filter id="F87" width="368.8" height="22.184" x="155.969" y="180.263" color-interpolation-filters="sRGB" filterUnits="userSpaceOnUse"><feDropShadow dx="0" dy="1.178" flood-color="#000" flood-opacity=".33" in="SourceGraphic" result="Shadow" stdDeviation="1.474"/></filter><filter id="F88" width="97.639" height="22.321" x="152.477" y="212.614" color-interpolation-filters="sRGB" filterUnits="userSpaceOnUse"><feDropShadow dx="0" dy="1.178" flood-color="#000" flood-opacity=".33" in="SourceGraphic" result="Shadow" stdDeviation="1.474"/></filter><filter id="F89" width="97.531" height="26.252" x="152.59" y="194.161" color-interpolation-filters="sRGB" filterUnits="userSpaceOnUse"><feDropShadow dx="0" dy="1.178" flood-color="#000" flood-opacity=".33" in="SourceGraphic" result="Shadow" stdDeviation="1.474"/></filter><filter id="F90" width="92.583" height="28.445" x="153.779" y="227.563" color-interpolation-filters="sRGB" filterUnits="userSpaceOnUse"><feDropShadow dx="0" dy="1.178" flood-color="#000" flood-opacity=".33" in="SourceGraphic" result="Shadow" stdDeviation="1.474"/></filter><filter id="F91" width="436.056" height="44.554" x="122.434" y="147.099" color-interpolation-filters="sRGB" filterUnits="userSpaceOnUse"><feDropShadow dx="0" dy="1.178" flood-color="#000" flood-opacity=".33" in="SourceGraphic" result="Shadow" stdDeviation="1.474"/></filter></defs><g id="Gutenberg" fill-rule="nonzero"><g id="Face and Ears (Last Layer)"><g id="Ears"><g id="EarLeft"><path fill="#dea38b" d="M165.665 300.552C156.017 300.865 149.723 287.72 153.323 278.638C155.101 274.15 158.389 271.059 161.849 269.458C165.264 267.879 168.525 270.041 168.656 270.895C168.776 271.679 166.202 272.191 164.757 273.163C154.668 279.948 155.093 291.834 167.819 296.567C169.14 297.057 167.032 300.508 165.665 300.552Z"/><path fill="#f3b69e" d="M183.171 242.887L165.529 243.131C157.531 243.19 148.348 247.408 143.508 255.259C134.608 269.698 130.675 290.745 144.883 307.493C152.297 317.514 165.618 318.244 177.604 317.611C179.539 292.461 181.321 268.122 183.171 242.887ZM164.341 268.912C166.704 268.894 168.559 270.286 168.659 270.923C168.778 271.707 166.224 272.207 164.779 273.179C154.69 279.964 155.119 291.851 167.845 296.583C169.165 297.076 167.022 300.502 165.654 300.546C156.007 300.859 149.73 287.747 153.329 278.665C155.108 274.179 158.378 271.062 161.838 269.461C162.692 269.067 163.553 268.92 164.341 268.912Z" filter="url(#F1)" shadowAngle="1.571" shadowColor="#000" shadowOffset="1.178" shadowOpacity=".33" shadowRadius="3.298"/><path fill="#dea38b" d="M165.665 300.552C156.017 300.865 149.723 287.72 153.323 278.638C155.101 274.15 158.389 271.059 161.849 269.458C165.264 267.879 168.525 270.041 168.656 270.895C168.776 271.679 166.202 272.191 164.757 273.163C154.668 279.948 155.093 291.834 167.819 296.567C169.14 297.057 167.032 300.508 165.665 300.552Z" opacity=".489"/></g><g id="EarRight" shadowAngle="1.571" shadowColor="#000" shadowOffset="1.178" shadowOpacity=".33" shadowRadius="3.298"><path fill="#d9a28d" d="M516.339 292.806C522.558 285.829 521.655 278.457 508.948 270.551C514.294 266.494 515.812 266.555 520.817 271.037C526.965 276.543 528.392 287.88 523.314 294.008C519.613 298.471 515.386 302.629 506.937 297.641C510.845 295.695 514.297 295.095 516.339 292.806Z"/><path fill="#f3b69e" d="M496.346 241.408C496.409 242.303 495.288 243.378 495.345 244.272C496.899 268.597 498.723 293.919 501.164 317.778C512.02 314.392 525.093 312.775 532.454 307.21C548.706 294.925 547.624 279.543 540.39 262.923C534.535 250.478 509.107 241.52 506.982 241.469C504.087 241.701 500.188 240.909 496.346 241.408ZM514.989 267.617C516.663 267.683 518.305 268.789 520.808 271.03C526.955 276.534 528.388 287.882 523.31 294.008C519.61 298.471 515.37 302.651 506.919 297.664C510.828 295.719 514.325 295.077 516.367 292.788C522.587 285.81 521.627 278.449 508.921 270.541C511.594 268.514 513.316 267.547 514.989 267.617Z" filter="url(#F2)"/><path fill="#d9a28d" d="M516.339 292.806C522.558 285.829 521.655 278.457 508.948 270.551C514.294 266.494 515.812 266.555 520.817 271.037C526.965 276.543 528.392 287.88 523.314 294.008C519.613 298.471 515.386 302.629 506.937 297.641C510.845 295.695 514.297 295.095 516.339 292.806Z" opacity=".523"/></g></g><path id="Base face" fill="#efb198" d="M429.944 404.096C469.538 394.165 476.29 287.354 478.807 250.495C446.585 235.926 444.184 229.518 441.559 198.195L239.733 197.868C242.123 240.186 210.854 248.601 199.845 249.974C199.514 283.358 200.915 388.809 254.689 407.564L340.463 434.136L429.944 404.096Z" filter="url(#F3)" shadowAngle="1.571" shadowColor="#000" shadowOffset="1.178" shadowOpacity=".33" shadowRadius="3.298"/><path id="Left face" fill="#f4b69d" d="M233.665 224.583C235.598 221.506 235.973 217.659 235.634 210.134C235.298 202.611 232.311 194.486 232.311 194.486L340.463 195.333L340.463 430.848C340.463 430.848 284.84 424.001 254.239 402.58C223.64 381.16 220.958 368.728 216.743 345.161C211.672 316.797 206.402 288.466 201.199 260.123C200.334 255.415 199.372 250.725 198.321 245.341C199.038 245.071 200.817 243.703 202.042 243.319C206.761 241.838 213.873 240.504 220.313 236.82C227.331 232.805 232.308 226.742 233.665 224.583Z"/><g id="Right face"><path fill="#f3b399" d="M387.358 413.805C387.358 413.805 387.581 199.195 387.586 191.337C405.145 191.273 423.641 191.285 442.184 191.271C442.504 196.015 441.284 206.167 441.284 206.167C441.284 206.167 439.95 213.588 443.579 220.155C447.208 226.722 455.801 232.437 455.801 232.437C455.801 232.437 463.829 237.327 467.838 238.126C478.232 240.196 482.976 247.435 480.855 256.863C473.603 289.096 461.033 353.965 461.033 353.965C459.118 363.309 457.673 369.628 451.06 379.609C442.973 391.815 396.713 422.712 387.358 413.805Z"/><path fill="#f0ae94" d="M392.671 416.581C392.536 416.551 343.545 426.449 340.463 428.731C340.463 428.731 340.46 239.494 340.463 197.598C351.092 196.966 393.555 197.52 393.555 197.52C393.555 197.52 393.51 397.45 392.671 416.581Z"/></g><g id="Nose" shadowAngle="1.571" shadowColor="#000" shadowOffset="1.178" shadowOpacity=".33" shadowRadius="3.298"><path fill="#f8c4b0" d="M324.675 340.959C319.826 338.246 313.392 332.879 313.436 328.705C313.478 324.52 320.092 319.566 324.892 316.575C327.736 314.805 340.21 316.186 340.342 316.27C340.494 316.37 340.335 334.085 340.342 341.934C340.342 341.934 328.18 342.921 324.675 340.959Z" filter="url(#F4)"/><path fill="#dea58d" d="M340.342 341.949C340.342 334.498 340.338 324.969 340.342 316.216C344.999 315.363 348.696 314.69 352.213 316.658C357.068 319.376 363.517 324.737 363.478 328.912C363.438 333.094 356.809 338.052 352.004 341.042C349.153 342.815 345.212 341.909 340.342 341.949Z" filter="url(#F5)"/></g><g id="Mouth" shadowAngle="1.571" shadowColor="#000" shadowOffset="1.178" shadowOpacity=".33" shadowRadius="3.298"><path fill="#dda28a" d="M340.342 408.094C330.869 407.314 321.235 406.721 312.818 405.224C310.601 404.832 306.604 401.097 307.128 398.905C307.65 396.713 312.338 396.396 314.913 396.456C322.164 396.624 332.186 396.644 340.342 397.224L340.342 408.094Z" filter="url(#F6)"/><path fill="#d69d86" d="M340.342 408.094L340.342 397.224C349.515 396.668 354.98 396.693 363.247 396.574C366.118 396.534 371.239 396.928 371.899 399.142C372.555 401.354 368.187 405.039 365.878 405.426C357.442 406.842 349.827 407.327 340.342 408.094Z" filter="url(#F7)"/></g></g><g id="Dark Blouse" filter="url(#F8)" shadowAngle="1.571" shadowColor="#000" shadowOffset="1.282" shadowOpacity=".5" shadowRadius="5"><path id="Blouse Left" fill="#272223" d="M115.658 578.865C145.809 611.08 219.093 666.469 266.531 668.794C244.606 645.712 235.525 623.734 218.313 599.938C211.57 590.612 201.891 589.529 181.33 575.109C163.613 562.68 149.756 549.632 146.333 551.767C136.367 557.974 126.448 575.04 115.658 578.865Z" filter="url(#F9)" shadowAngle="1.571" shadowColor="#000" shadowOffset="1.107" shadowOpacity=".5" shadowRadius="5"/><path id="Blouse Right" fill="#272223" d="M565.672 582.595C535.52 614.811 462.236 670.199 414.799 672.525C436.723 649.442 445.805 627.464 463.016 603.668C469.761 594.345 479.439 593.26 500 578.841C517.717 566.412 531.573 553.364 534.998 555.499C544.962 561.705 554.881 578.772 565.672 582.595Z" filter="url(#F10)" shadowAngle="1.571" shadowColor="#000" shadowOffset=".758" shadowOpacity=".5" shadowRadius="5"/></g><g id="Light Collar"><g id="Collar Left" shadowAngle="1.571" shadowColor="#000" shadowOffset="1.178" shadowOpacity=".33" shadowRadius="3.3"><path fill="#c0bebf" d="M129.694 506.066C123.779 517.375 128.883 510.999 130.793 513.348C131.356 514.042 130.042 517.662 131.354 517.418C131.354 517.418 133.437 516.735 133.936 517.994C134.196 518.653 133.4 522.078 134.26 524.522C135.045 526.751 136.585 497.278 134.66 498.896C134.231 498.175 134.444 498.579 132.329 495.831C132.155 486.546 134.104 463.303 132.682 463.604C130.567 464.057 129.57 469.318 128.59 471.771C128.178 472.799 126.76 478.438 126.324 480.563C125.034 486.858 121.374 493.742 128.59 486.555C123.317 496.723 123.401 498.296 127.492 497.099C129.462 501.311 124.406 512.443 129.694 506.066ZM137.643 539.935C136.338 542.227 135.538 551.657 141.549 549.85C141.549 549.85 143.667 548.934 144.439 549.986C144.843 550.536 144.623 553.719 146.006 555.781C147.268 557.659 150.04 558.466 152.296 558.279C150.259 561.895 154.477 568.524 161.334 565.669C159.578 571.159 166.079 578.063 170.957 573.407C170.878 582.942 175.879 583.176 182.76 578.948C182.332 586.502 186.703 585.991 189.635 586.942C190.452 587.207 190.482 588.581 191.29 588.876C195.203 590.308 198.334 590.601 201.878 593.067C204.908 595.176 211.46 594.642 212.796 598.546C224.667 598.546 213.425 592.174 213.126 586.942C213.028 585.226 213.321 583.494 213.126 581.784C213.015 580.799 211.114 580.796 210.81 579.852C209.739 576.508 212.135 575.985 209.157 575.017C209.157 569.294 207.34 571.33 206.841 568.248C206.564 566.551 207.035 564.799 206.841 563.091C206.736 562.186 205.825 558.359 203.838 557.931C202.935 557.734 202.146 560.028 200.936 560.506C203.856 549.009 200.29 546.43 199.174 545.344C199.174 546.701 198.23 552.038 196.926 556.7C194.902 563.926 194.116 561.427 193.106 563.748C192.296 565.604 193.429 570.75 190.661 573.446C189.268 571.683 189.671 566.07 189.611 564.268C189.361 556.727 185.032 552.961 183.713 553.459C183.482 553.547 182.807 553.4 181.872 555.565C180.814 558.015 180.701 565.347 180.372 565.669C179.09 564.422 180.12 560.435 177.724 561.478C178.507 558.929 179.165 556.424 178.646 552.763C178.038 548.468 176.943 544.798 174.084 545.039C171.878 545.225 172.037 550.579 169.782 552.775C167.206 551.102 168.675 546.85 167.678 543.249C167.337 542.025 166.765 540.86 166.086 540.181C164.921 539.022 163.443 538.952 162.294 539.971C160.474 541.581 160.498 545.383 159.526 546.328C158.099 544.938 158.584 539.439 158.208 536.182C157.983 534.232 157.072 531.469 155.348 531.253C153.444 531.013 152.256 534.178 151.651 536.618C151.102 538.827 150.688 543.412 150.688 543.412C150.688 543.412 150.321 543.691 149.931 544.071C147.51 542.893 151.313 511.338 142.321 526.667C141.219 528.545 143.435 531.06 141.66 532.79C140.498 531.659 143.084 504.117 136.035 514.419C135.007 513.749 134.767 497.639 131.734 498.623C129.538 499.338 130.679 505.956 130.079 508.293C129.081 512.184 126.845 524.605 131.072 521.51C131.356 523.307 128.61 534.338 133.597 532.236C136.318 532.203 129.462 541.411 137.643 539.935Z" filter="url(#F11)"/><path fill="#fcfafb" d="M180.43 408.407C179.619 411.652 179.818 411.597 178.197 415.151C177.699 416.245 176.465 416.69 175.408 417.718C170.408 422.59 163.067 425.873 157.872 430.934C155.804 432.95 152.131 434.138 153.24 437.381C153.506 438.161 158.759 440.063 163.616 440.974C167.378 441.68 170.958 441.426 171.438 441.894C171.272 442.216 171.272 442.216 171.106 442.538C173.802 445.166 180.199 441.935 182.355 445.44C183.292 446.958 178.818 447.195 177.062 446.728C173.927 445.896 169.046 445.241 166.143 443.827C164.664 443.106 162.793 444.19 161.18 443.827C156.491 442.774 154.209 439.582 148.277 440.605C144.333 441.282 143.036 447.951 140.656 450.269C139.326 451.848 135.928 457.269 134.96 458.21C134.625 457.967 131.695 460.86 132.648 463.565C133.483 465.938 132.862 469.114 133.719 469.614C133.959 469.755 135.723 470.249 136.035 470.257C145.077 470.469 154.124 470.374 163.166 470.581C167.992 470.691 180.024 469.598 183.349 472.838C183.128 473.16 183.085 473.782 182.686 473.803C177.181 474.113 171.658 473.803 166.143 473.803C161.188 473.803 156.042 473.482 151.255 473.482C150.168 473.482 149.337 472.422 148.277 472.192C145.021 471.487 135.475 471.039 132.065 471.87C131.611 471.979 131.111 472.383 131.072 472.838C130.77 476.373 130.707 478.747 130.915 482.286C130.933 482.591 131.425 484.077 131.734 484.119C133.405 484.35 135.011 483.218 136.697 483.151C144.631 482.843 152.581 483.361 160.519 483.151C168.319 482.946 175.567 482.559 184.011 482.186C184.359 482.17 184.692 482.015 185.003 481.861C187.325 480.73 186.678 476.979 186.657 474.448C186.645 472.9 185.71 472.9 184.843 472.402C182.072 470.818 184.011 465.087 184.011 462.199C184.011 458.44 184.044 454.68 184.011 450.921C183.932 442.108 184.002 433.293 183.679 424.488C183.668 424.185 183.238 424.059 183.017 423.842C182.686 424.164 182.686 424.164 182.355 424.488C180.029 422.219 182.871 420.147 181.327 417.37C180.723 416.287 182.277 412.318 180.43 408.407ZM150.262 496.369C152.028 494.647 162.231 495.469 163.827 495.401C168.756 495.191 173.408 493.717 180.701 492.824C183.207 492.515 186.292 492.488 188.312 493.145C188.312 496.198 180.504 495.045 177.724 495.722C168.592 497.949 158.283 498.264 149.269 499.912C145.283 500.643 139.902 499.206 136.035 500.88C134.883 501.313 133.23 513.296 135.373 515.385C137.135 514.524 137.705 511.578 139.674 511.195C142.554 510.634 146.243 511.864 148.939 510.549C151.996 509.061 156.17 510.088 159.195 508.617C162.374 507.065 163.75 507.442 167.798 507.003C171.26 506.629 176.641 505.099 179.709 504.104C182.698 503.134 186.399 503.932 189.304 503.457C191.707 503.068 190.029 498.742 189.967 496.369C189.94 495.357 189.979 493.756 189.751 492.008C189.4 489.31 188.592 486.326 187.319 485.086C186.374 485.547 183.849 485.07 183.017 485.086C178.056 485.175 173.088 485.202 168.129 485.407C160.286 485.733 152.628 487.02 144.637 487.02C140.763 487.02 135.804 486.978 132.065 487.343C131.755 487.372 131.425 487.684 131.403 487.988C131.198 490.881 131.022 493.812 131.403 496.691C131.425 496.859 131.973 495.814 132.329 495.831C132.926 495.862 131.88 498.441 132.088 498.584C132.284 498.713 132.532 497.883 132.726 497.978C136.01 499.579 146.884 494.722 150.262 496.369ZM148.939 545.039C149.269 544.718 149.269 544.718 149.6 544.395C149.736 544.528 150.349 540.268 151.538 536.133C152.156 533.985 152.711 531 153.902 530.534C155.503 529.91 157.89 531.009 159.526 530.213C166.314 526.905 175.143 527.034 181.695 522.478C182.32 522.041 191.785 521.267 191.951 519.897C192.487 515.462 192.71 509.312 191.62 505.069C191.329 503.932 187.155 505.313 186.327 505.714C180.75 508.431 171.966 506.553 166.805 509.906C165.015 511.068 159.658 510.427 157.872 510.549C157.155 510.6 156.697 511.605 156.218 511.839C154.495 512.68 148.223 512.34 146.953 512.484C146.554 512.529 142.436 514.235 142.321 514.74C141.925 516.477 138.016 534.919 142.321 534.082C143.223 533.905 142.38 524.705 145.63 523.12C147.003 522.452 148.244 526.558 148.277 526.988C148.48 529.561 148.277 532.147 148.277 534.724C148.277 537.094 148.608 544.718 148.939 545.039ZM169.452 553.743C172.753 551.598 169.899 547.08 174.084 545.039C176.278 543.971 179.664 544.807 182.025 543.427C184.594 541.924 187.416 540.173 190.296 539.237C191.681 538.788 195.816 538.679 196.252 536.66C196.641 534.86 197.452 531.482 195.59 531.179C195.274 531.128 192.03 532.04 187.862 533.252C180.998 535.249 171.629 538.061 168.7 538.727C172.933 534.599 180.262 533.488 185.664 530.857C187.211 530.103 193.421 531.306 193.936 528.922C194.325 527.122 195.107 523.889 193.274 523.443C190.934 522.873 182.516 525.929 181.062 526.636C180.274 527.021 167.02 530.591 165.813 531.179C163.97 532.078 160.761 530.786 159.526 532.79C158.513 534.436 159.225 535.492 158.864 537.949C158.489 540.51 157.799 543.126 158.203 545.684C158.4 546.933 160.862 547.771 161.18 546.005C161.674 543.285 159.869 538.827 164.82 540.203C165.585 540.416 166.553 542.111 166.553 542.111C169.174 545.516 166.151 550.527 169.452 553.743ZM185.996 545.039C177.44 540.872 179.608 557.805 177.724 561.478C179.001 562.722 177.772 564.103 179.047 565.347C179.378 565.186 180.04 565.347 180.372 565.669C183.399 562.717 179.134 555.082 184.341 552.775C186.941 551.625 197.316 550.303 198.237 546.973C201.521 535.09 186.928 542.316 185.996 545.039Z"/><path fill="#e8e8e8" d="M132.099 488.672C132.258 486.582 136.931 488.027 138.716 488.027C143.02 488.027 147.499 487.705 151.62 487.705C153.453 487.705 154.955 486.414 156.914 486.414C165.483 486.414 173.709 486.28 182.722 486.092C184.092 486.065 186.396 485.964 187.353 485.127C188.288 484.308 187.914 482.772 186.029 480.935C184.218 482.701 164.787 481.404 161.215 481.903C152.914 483.056 144.448 482.229 136.069 482.547C134.812 482.595 133.663 483.753 132.43 483.515C132.123 483.456 131.788 483.173 131.768 482.868C131.562 479.651 131.562 476.416 131.768 473.199C131.851 471.902 136.659 472.877 137.393 472.877C142.253 472.877 147.294 474.167 151.951 474.167C162.512 474.167 173.039 474.489 183.713 474.489C184.252 474.489 186.012 474.842 186.029 473.845C186.056 472.287 179.063 470.272 171.656 470.075C160.083 469.761 148.046 470.245 136.4 469.975C135.869 469.963 134.53 469.335 134.084 469.008C132.61 467.932 133.965 464.856 132.682 463.604C131.963 464.304 130.534 466.089 130.445 467.075C130.034 471.57 130.55 476.101 130.445 480.612C130.435 481.054 129.247 480.246 129.496 484.276C129.744 488.307 131.106 494.799 131.437 496.729C133.201 497.417 131.895 491.349 132.099 488.672ZM190.661 519.937C187.73 522.078 183.883 521.024 180.406 521.872C179.238 522.157 173.408 523.26 173.408 525.726C169.567 523.805 165.745 527.859 162.538 528.64C161.161 528.977 155.64 527.561 153.552 530.182C151.985 532.15 149.645 543.186 149.6 544.395C149.884 544.255 150.633 544.159 150.688 543.412C150.854 541.185 151.651 536.618 151.651 536.618C151.651 536.618 152.508 533.562 153.848 532.09C154.645 531.214 155.362 531.333 156.365 531.752C156.832 531.947 157.748 533.384 158.062 535.469C158.682 539.596 156.274 546.711 159.752 547.063C158.203 545.684 158.462 534.87 160.884 532.509C161.806 531.612 165.126 532.695 166.509 531.541C169.393 529.133 172.072 530.517 175.442 529.287C180.052 527.601 188.682 522.881 193.656 523.762C194.742 523.954 194.652 526.596 194.141 528.25C193.948 528.874 189.147 529.551 185.176 530.6C181.207 531.648 181.619 532.57 177.428 533.154C177.263 533.176 171.179 536.912 170.149 537.343C167.635 538.393 162.858 538.691 161.601 540.826C161.601 540.826 163.12 539.575 164.82 540.203C166.79 540.932 167.327 544.671 167.503 545.912C167.788 547.926 167.552 547.72 167.798 550.437C167.935 551.954 168.556 553.682 169.452 553.743C168.3 549.531 169.515 540.772 170.646 539.831C175.564 535.733 185.05 535.288 188.345 534.121C189.3 533.782 190.604 534.177 191.323 533.476C192.617 534.106 194.121 531.942 195.23 531.267C195.689 530.986 196.492 531.727 196.535 531.814C197.126 532.984 196.545 535.618 195.624 536.7C194.572 537.936 189.799 539.444 189.007 539.597C184.372 540.501 182.637 541.785 177.793 542.51C177.304 542.584 174.794 543.353 173.442 544.552C171.606 546.179 171.372 548.602 171.418 550.022C171.896 550.208 172.081 544.377 174.977 545.32C178.23 546.379 179.214 553.523 177.724 561.478C179.873 559.386 178.446 545.123 185.51 548.563C193.211 544.627 197.932 541.373 198.173 541.906C198.254 542.084 199.174 545.344 198.065 545.119C198.718 546.538 197.855 547.391 197.779 547.492C196.789 548.813 195.032 547.862 192.257 546.565C194.735 551.067 184.153 551.328 182.54 553.893C182.198 554.571 181.634 555.964 181.872 555.565C182.056 555.254 183.015 553.283 183.713 553.459C189.16 554.838 188.861 562.477 189.33 565.669C189.648 567.84 189.025 571.848 190.661 573.446C191.439 573.066 192.266 570.699 192.266 570.699C192.266 570.699 192.876 567.211 192.979 564.42C193.066 562.003 196.253 561.347 198.718 562.175C203.345 563.79 201.837 559.785 203.838 559.862C204.917 559.901 204.927 560.336 205.536 560.806C205.748 560.97 206.552 562.678 206.785 562.265C207.17 561.588 205.36 548.563 201.992 552.43C201.815 543.959 199.534 544.573 198.249 541.972C197.85 541.235 198.366 540.237 198.272 539.597C198.199 539.101 198.562 535.332 197.94 534.121C197.699 533.648 196.966 532.381 196.387 531.656C195.809 530.929 195.124 531.238 195.133 531.063C195.146 530.783 193.982 529.777 193.936 528.922C194.156 528.301 194.738 526.525 194.436 524.421C194.214 522.87 193.196 521 192.819 520.005C192.198 518.377 191.506 519.321 190.661 519.937ZM141.322 533.767C140.604 523.449 140.563 513.561 146.988 513.169C158.472 512.47 169.4 510.188 180.01 507.604C184.207 506.584 187.404 507.876 190.765 504.598C189.837 503.694 190.93 501.669 190.525 500.763C189.836 499.221 177.638 504.026 173.127 504.464C171.5 504.622 172.133 505.594 169.487 506.076C166.839 506.56 164.745 506.042 162.538 506.399C157.412 507.231 152.454 509.632 147.319 509.945C145.46 510.058 138.92 510.612 137.722 512.326C137.48 512.673 137.167 513.755 137.117 513.865C137.014 514.084 137.578 512.946 137.98 512.623C138.391 512.291 138.956 512.076 139.708 512.851C141.454 514.654 136.708 532.352 141.322 533.767ZM153.274 434.842C151.109 435.899 149.007 438.66 147.649 440.644C149.507 442.455 153.768 440.964 156.252 441.933C157.052 442.243 157.106 443.555 157.906 443.868C160.342 444.816 163.771 444.044 166.178 444.511C169.555 445.172 173.726 446.757 177.096 447.414C178.355 447.659 182.524 448.005 184.094 447.4C184.094 447.4 183.847 445.868 183.927 444.531C184.006 443.191 175.977 443.201 174.118 442.901C172.586 442.652 172.036 440.549 171.141 440.321C169.113 439.806 166.949 440.407 164.854 440.321C162.729 440.235 161.929 438.376 160.222 438.066C158.485 437.746 156.4 438.697 154.928 437.743C153.407 436.754 154.403 435.942 153.274 434.842ZM140.69 450.308C140.203 450.844 139.764 451.372 139.36 451.887C137.518 454.24 136.416 456.367 134.995 458.252C137.818 459.959 143.73 457.828 147.36 458.554C148.528 458.787 148.736 460.185 149.905 460.419C153.463 461.132 158.264 459.871 161.735 460.072C166.603 460.352 172.695 461.531 177.555 461.81C179.785 461.94 182.85 462.159 184.014 460.551C184.384 460.042 184.128 459.312 184.157 458.383C184.24 455.477 176.981 458.205 172.869 457.349C168.757 456.491 171.735 455.358 168.376 454.959C165.018 454.556 162.421 455.574 159.434 455.746C156.402 455.921 155.079 454.03 152.621 453.911C150.118 453.786 148.042 455.129 145.059 454.229C142.077 453.327 142.491 448.323 140.69 450.308ZM188.088 510.931C184.679 513.074 180.204 512.02 176.16 512.867C174.803 513.151 175.84 514.345 174.621 514.802C173.024 515.396 170.594 514.609 168.848 515.446C165.379 517.106 159.108 518.854 155.379 519.636C153.776 519.969 145.409 521.64 144.838 523.671C144.838 523.671 146.462 522.365 147.148 524.643C148.406 528.823 148.171 542.402 148.939 545.039C151.778 542.663 150.637 525.863 153.454 523.502C154.527 522.606 158.39 523.69 159.996 522.535C163.353 520.127 166.467 521.51 170.387 520.281C175.748 518.597 184.578 514.426 190.399 515.124C191.339 515.236 192.439 515.005 192.512 513.736L192.339 509.963C192.339 509.963 189.132 510.278 188.088 510.931ZM130.842 499.617C130.815 499.823 131.14 499.065 131.46 498.816C131.781 498.567 132.122 498.623 132.122 498.623C132.122 498.623 132.819 498.615 133.438 500.288C134.034 501.902 134.208 503.63 134.415 505.111C134.729 507.356 133.36 514.526 135.373 515.385C135.411 515.176 135.069 514.948 134.976 514.009C134.844 512.694 134.138 501.779 137.093 501.111C145.305 499.261 148.719 502.42 161.142 499.261C169.68 497.09 168.385 497.833 171.47 497.697C174.901 497.545 178.141 495.761 181.397 495.761C183.152 495.761 189.858 497.17 189.967 494.561C190.011 493.49 190.253 492.412 189.751 492.008C188.036 490.627 182.319 492.815 180.041 492.815C171.709 492.815 165.06 494.797 156.914 494.797C154.786 494.797 153.214 494.789 150.071 495.273C146.928 495.757 144.695 496.446 142.944 496.729C141.225 497.011 135.151 496.461 132.328 497.745C131.637 498.059 130.904 499.115 130.842 499.617ZM157.872 430.934C160.307 431.882 163.834 429.727 166.242 430.198C169.617 430.854 173.79 432.442 177.16 433.099C178.418 433.344 182.347 433.642 183.917 433.04C183.917 433.04 183.911 431.97 183.99 430.631C184.07 429.29 176.04 428.886 174.183 428.586C172.649 428.336 172.1 426.234 171.205 426.005C169.175 425.491 167.814 423.404 164.965 425.492C161.712 427.877 157.872 430.934 157.872 430.934Z" filter="url(#F12)"/></g><g id="Collar Right" shadowAngle="1.571" shadowColor="#000" shadowOffset="1.178" shadowOpacity=".33" shadowRadius="3.3"><path fill="#c0bebf" d="M548.098 498.925C547.34 499.665 544.527 503.756 544.459 504.727C544.243 507.736 545.987 511.62 543.797 513.753C539.515 510.624 540.289 516.205 538.504 517.945C538.004 517.461 538.004 517.461 537.51 516.977C536.461 518 536.193 520.429 534.864 521.166C534.258 521.504 533.371 521.33 532.878 521.813C533.209 522.134 533.209 522.134 533.539 522.455C531.731 525.982 532.6 529.765 530.893 533.094C529.067 536.653 533.236 541.125 530.231 544.052C528.797 542.654 530.699 528.96 524.605 532.126C523.224 532.844 522.454 534.543 520.966 535.027C520.966 537.081 521.796 539.699 520.305 541.152C519.808 540.667 519.808 540.667 519.314 540.185C518.979 540.345 518.979 540.345 518.65 540.506C512.178 534.2 511.094 552.704 510.38 553.4C508.771 551.834 510.783 549.475 509.387 547.919C501.928 539.616 501.862 555.013 499.131 555.013C496.062 555.013 495.092 550.096 490.526 555.656C490.195 555.334 490.195 555.334 489.866 555.013C486.576 558.219 491.834 564.054 488.542 567.259C487.223 565.973 486.979 562.021 486.556 560.17C486.044 557.915 480.332 558.458 479.277 560.17C476.806 564.182 479.725 573.593 476.961 576.285C475.394 574.759 476.698 571.965 476.299 569.839C476.19 569.239 475.04 569.153 474.976 568.55C474.583 564.702 475.186 560.809 474.976 556.946C474.955 556.526 473.952 556.124 473.651 555.978C471.529 558.051 474.455 561.322 472.33 563.392C472.001 563.232 472.001 563.232 471.667 563.071C469.453 565.227 471.995 568.558 470.678 571.13C470.011 572.424 467.632 573.9 467.368 575.32C466.661 579.102 468.905 581.158 465.052 582.41C465.052 586.758 463.398 591.03 461.742 594.658C461.044 596.191 459.154 597.118 459.757 599.172C460.124 600.422 469.042 597.498 469.683 595.626C474.334 595.626 476.714 593.89 480.6 593.049C481.594 592.832 482.489 590.57 483.58 590.146C486.446 589.029 490.008 588.64 492.511 587.245C493.935 586.454 494.575 584.462 496.151 584.022C502.02 582.389 506.054 576.831 511.704 574.997C515.48 573.769 518.887 569.827 521.959 567.259C525.785 564.066 529.422 559.992 532.878 556.624C534.206 555.333 536.556 554.294 537.51 552.432C538.394 550.71 539.841 547.45 541.149 545.665C543.484 542.48 545.465 540.781 546.444 536.962C546.921 535.101 548.803 532.874 549.092 531.482C550.522 524.512 550.363 515.266 550.084 507.952C549.963 504.817 551.421 500.544 548.098 498.925Z" filter="url(#F13)"/><path fill="#e8e8e8" d="M547.437 465.403C545.972 466.831 547.886 468.891 545.782 469.916C542.427 471.551 538.266 469.565 534.533 469.916C526.295 470.693 517.992 470.56 509.72 470.56C507.034 470.56 494.507 470.976 493.836 472.495C493.712 472.779 493.614 474.406 494.498 474.429C502.545 474.636 510.6 474.534 518.65 474.429C527.459 474.316 535.41 472.817 544.459 472.817C544.594 472.817 548.38 472.7 548.428 473.461C548.635 476.68 548.635 479.915 548.428 483.131C548.407 483.435 548.076 483.741 547.769 483.777C540.553 484.557 528.616 484.141 522.289 483.456C521.669 483.387 521.58 482.279 520.966 482.166C520.335 482.048 512.547 481.345 511.372 482.488C506.086 479.913 498.464 483.025 492.842 481.199C492.842 478.931 493.825 476.03 492.182 474.429C489.889 476.664 491.044 482.63 490.526 485.388C490.417 485.986 489.332 486.083 489.204 486.677C489.086 487.224 488.295 493.892 488.21 495.059C488.007 497.952 488.417 500.868 488.21 503.76C488.17 504.365 486.876 504.622 486.556 504.727C486.556 506.125 486.614 507.523 486.556 508.92C486.504 510.212 486.403 511.506 486.226 512.787C485.681 516.768 491.874 514.102 493.836 516.011C493.505 516.493 493.505 516.493 493.175 516.977C494.442 518.211 506.108 518.597 508.726 519.233C511.697 519.956 510.807 523.532 514.615 524.188C515.467 524.333 517.864 522.437 518.65 522.779C521.657 524.081 526.342 523.534 529.568 524.712C531.493 525.414 530.26 531.831 531.554 533.094C533.279 531.414 532.341 528.765 532.56 526.403C532.697 524.937 534.928 521.899 535.855 520.845C533.023 518.083 528.355 521.682 525.269 519.878C522.96 518.529 519.378 517.668 516.556 517.169C512.593 516.466 509.301 516.205 505.747 514.722C503.809 513.912 502.645 514.731 500.566 513.829C499.524 513.379 498.159 512.95 497.145 512.787C495.026 512.443 492.533 513.119 490.526 512.14C488.418 511.114 486.36 505.991 489.536 505.373C490.459 505.194 493.351 506.653 496.357 507.237C500.695 508.081 505.389 508.247 505.747 508.594C506.793 508.088 526.928 512.92 530.231 513.108C530.417 513.12 537.273 512.692 537.84 514.722C538.851 518.328 536.371 524.248 539.163 526.968C541.976 524.231 539.506 519.228 539.827 515.364C539.961 513.764 542.386 513.458 543.465 513.108C541.354 510.022 535.111 512.219 533.87 508.594C531.24 508.594 525.172 509.467 523.283 507.629C523.613 507.306 523.613 507.306 523.944 506.985C522.067 505.153 518.639 506.648 516.004 506.338C509.051 505.527 501.118 503.207 493.505 502.792C492.849 502.759 492.493 502.919 491.852 502.471C489.6 500.906 490.121 499.843 490.526 496.671C490.672 495.541 503.998 495.608 506.08 497.639C509.32 496.057 519.286 498.38 522.953 499.57C529.344 501.648 537.087 499.02 543.465 501.503C544.993 502.1 543.658 503.95 544.789 505.048C546.648 503.24 546.853 502.491 547.437 500.215C547.878 498.497 548.9 497.073 550.278 509.98C550.662 505.693 550.662 499.071 550.744 498.281C551.323 492.77 550.967 481.301 549.753 475.396C549.132 472.375 549.952 467.855 547.437 465.403Z"/><g fill="#fcfafb" shadowAngle="1.571" shadowColor="#000" shadowOffset="1.178" shadowOpacity=".33" shadowRadius="3.3"><path d="M493.175 461.857C490.673 464.293 492.608 468.729 492.511 472.173C492.484 473.146 492.182 474.102 492.182 475.073C492.182 477.329 491.981 479.593 492.182 481.843C492.291 483.056 496.236 482.166 496.815 482.166C501.678 482.166 507.022 481.013 511.372 483.131C512.753 481.785 520.388 482.682 520.966 482.809C521.573 482.946 521.669 484.043 522.289 484.099C529.019 484.694 540.689 485.109 548.098 484.42C548.564 484.378 549.05 483.907 549.092 483.456C549.391 480.029 549.391 476.565 549.092 473.14C548.958 471.642 538.004 472.7 536.449 472.784C534.364 472.897 526.01 474.198 523.935 474.198C512.623 474.198 507.187 473.942 495.159 473.782C494.849 473.779 494.717 473.353 494.498 473.14C494.83 472.656 494.83 472.656 495.159 472.173C498.167 473.637 505.477 471.205 509.056 471.205C521.386 471.205 533.816 470.56 545.782 470.56C550.779 470.56 543.96 456.524 543.134 456.379C539.834 455.795 536.846 457.899 533.87 458.312C525.007 459.547 516.751 459.821 508.394 461.857C504.803 462.734 496.122 464.013 493.175 461.857Z" filter="url(#F14)"/><path d="M498.469 415.444C495.163 418.663 497.484 428.262 497.259 433.896C497.196 435.468 497.594 436.604 496.815 437.362C496.151 436.876 496.151 436.876 495.491 436.394C495.27 436.607 494.843 436.736 494.83 437.037C494.617 441.653 494.83 446.278 494.83 450.898C494.83 451.897 493.291 461.857 497.807 461.857C498.823 461.857 499.131 460.143 500.125 459.923C502.298 459.443 504.828 460.078 506.741 458.955C508.985 457.647 510.561 459.747 512.696 457.665C514.129 458.365 516.162 457.491 517.657 457.344C521.579 456.963 537.656 454.032 539.827 455.09C542.944 452.053 533.585 439.929 530.231 440.585C525.984 441.413 521.731 443.085 517.989 444.452C515.217 445.466 511.344 444.843 508.394 445.42C504.93 446.093 499.738 449.164 496.151 447.997C496.151 445.439 495.604 446.273 496.815 445.096C498.936 447.165 518.151 439.669 519.973 439.295C520.484 439.192 526.485 440.253 527.253 438.005C528.939 433.072 518.323 429.634 516.995 425.756C514.266 425.756 506.171 420.228 505.416 418.021C504.029 418.021 499.298 416.246 498.469 415.444Z" filter="url(#F15)"/><path d="M485.896 512.465C483.77 514.533 484.241 518.966 484.241 521.813C484.241 523.747 483.852 525.717 484.241 527.615C484.572 529.233 490.929 530.379 492.182 530.514C494.058 530.718 494.968 532.503 496.482 533.094C497.939 533.661 500.896 533.286 502.438 533.738C504.413 534.315 505.849 536.145 507.734 536.962C509.186 537.592 514.809 537.155 516.113 538.428C514.141 538.806 507.553 538.744 504.187 537.669C496.942 535.356 486.661 529.943 481.925 531.482C481.925 532.772 481.664 534.085 481.925 535.351C482.209 536.743 497.387 541.731 500.125 543.73C501.993 545.096 504.746 543.706 505.747 546.63C512.191 546.63 506.714 555.731 511.042 554.045C513.02 553.273 510.793 538.35 517.989 540.506C520.122 541.148 518.785 542.893 519.973 544.052C524.289 541.948 521.948 538.279 523.283 534.706C524.441 531.602 528.107 532.597 528.578 535.351C529.034 538.028 527.721 544.187 529.568 545.986C532.689 542.946 532.142 539.311 531.884 534.059C531.823 532.827 532.622 530.691 532.393 528.972C532.121 526.915 530.75 525.326 529.751 524.832C527.284 523.612 525.882 522.698 522.029 523.283C519.735 523.628 519.588 521.626 517.379 521.08C513.611 520.145 509.077 518.673 508.726 518.588C505.224 517.736 496.558 519.126 495.159 515.043C491.143 515.043 488.386 514.892 485.896 512.465Z" filter="url(#F16)"/><path fill="#e8e8e8" d="M485.467 519.649C483.553 521.511 483.05 526.953 482.587 529.549C482.499 530.035 480.703 531.422 480.6 532.126C479.914 536.817 479.275 540.208 478.615 544.697C478.417 546.063 476.421 547.599 476.299 548.886C476.101 551.028 476.585 553.202 476.299 555.334C476.19 556.165 474.383 556.109 474.315 556.946C474.003 560.803 473.919 564.702 474.315 568.55C474.378 569.153 475.531 569.239 475.638 569.839C476.058 572.188 474.899 575.245 476.631 576.932C477.786 576.367 477.095 576.753 478.615 575.641C478.071 574.577 478.348 561.032 480.931 559.525C487.533 555.666 486.296 569.735 488.872 568.227C491.861 566.481 489.595 561.119 489.866 559.202C489.966 558.493 492.208 554.381 493.175 554.045C494.336 553.64 495.943 554.247 496.815 553.4C495.574 552.193 495.969 552.865 495.491 551.467C492.496 551.467 491.246 549.605 488.542 548.886C484.276 547.753 479.774 546.785 480.6 541.152C480.943 538.822 489.814 542.714 490.526 543.407C490.701 543.578 490.945 543.73 491.19 543.73C491.692 543.73 500.328 546.467 500.454 546.63C501.387 547.847 501.862 549.166 501.869 551.571C501.874 553.294 502.246 547.789 504.094 546.953C506.822 545.719 507.882 548.578 508.99 547.497C507.409 545.96 503.401 544.522 501.447 543.73C499.804 543.064 500.131 541.637 498.469 541.152C495.299 540.223 491.23 539.902 488.872 537.607C485.379 539.308 479.727 532.491 483.246 531.805C486.297 531.209 487.058 532.345 489.204 533.738C489.574 533.976 491.896 533.941 492.182 534.059C496.147 535.715 499.824 536.889 504.094 537.93C505.182 538.194 511.749 543.727 512.7 544.009C514.133 544.442 514.334 541.429 515.745 540.932C518.477 539.959 516.781 542.51 518.716 540.623C516.879 538.833 515.124 536.796 512.484 536.348C507.973 535.586 498.749 531.944 492.873 530.06C489.265 528.904 488.82 529.53 485.896 528.581C483.374 527.76 486.532 521.728 485.467 519.649Z" filter="url(#F17)"/><path d="M523.283 508.92C527.22 508.92 530.671 508.982 533.87 510.853C537.979 513.253 540.345 510.158 543.465 514.722C544.438 514.245 543.895 514.474 545.119 514.075C545.119 509.99 546.114 505.702 544.789 501.827C544.024 499.594 530.677 499.247 528.578 499.247C516.992 499.247 502.199 493.433 490.526 495.059C488.442 495.347 489.335 499.196 489.866 501.182C490.658 504.141 497.028 503.303 498.469 503.439C504.193 503.971 510.704 506.247 516.004 506.985C520.027 507.545 522.079 505.396 523.283 508.92Z" filter="url(#F18)"/><path d="M491.852 483.131C489.194 484.205 490.969 488.72 491.19 491.514C491.213 491.817 491.545 492.097 491.852 492.156C503.658 494.457 515.974 493.766 528.245 495.059C530.323 495.276 533.095 497.316 535.524 497.316C537.657 497.316 549.087 499.615 549.422 495.702C549.653 492.982 551.107 489.682 548.76 487.968C546.874 486.588 534.569 487.645 531.554 487.645C527.454 487.645 521.07 487.649 517.326 487.001C514.001 486.421 517.565 485.213 515.01 485.712C509.929 486.7 504.644 485.816 499.461 485.712C497.863 485.677 494.76 486.118 493.505 485.712C492.157 485.273 492.95 482.687 491.852 483.131Z" filter="url(#F19)"/><path d="M516.334 518.91C518.421 517.894 523.478 519.421 524.937 520.845C528.123 519.292 533.039 522.909 536.517 520.2C538.477 518.673 539.79 515.209 537.51 513.431C534.731 511.269 529.067 514.051 525.929 512.14C522.942 510.322 520.031 511.352 516.663 510.529C515.423 510.229 514.449 508.594 513.359 508.594C507.784 508.594 501.808 507.074 496.151 506.338C494.252 506.091 491.185 503.977 488.872 504.727C486.733 505.423 487.804 510.231 487.881 510.529C488.746 513.903 495.013 512.837 497.145 513.431C500.907 514.477 513.96 516.598 516.334 518.91Z" filter="url(#F20)"/><path fill="#e8e8e8" d="M494.83 450.898C492.018 453.638 493.947 458.633 494.166 462.502C494.179 462.738 495.199 463.469 495.491 463.469C504.925 463.469 514.816 462.128 523.566 459.996C530.392 458.333 536.087 459.129 542.805 457.344C545.724 456.571 540.305 450.938 539.738 450.25C538.574 451.386 541.01 453.709 539.495 454.446C537.885 455.229 533.972 454.22 531.884 454.446C527.838 454.883 515.825 458.547 512.696 457.022C509.336 460.295 499.924 456.636 498.469 460.889C493.194 460.889 497.384 453.389 494.83 450.898Z" filter="url(#F21)"/><path d="M480.6 539.538C478.729 539.786 479.72 543.192 479.939 545.018C480.359 548.5 492.49 550.321 494.83 552.11C494.946 552.201 497.227 556.12 499.131 555.656C502.959 554.725 503.258 546.843 499.792 545.34C498.787 544.906 496.793 545.643 495.821 544.697C492.821 541.774 485.272 538.922 480.6 539.538Z" filter="url(#F22)"/><path fill="#e8e8e8" d="M531.884 440.261C531.113 438.756 528.806 436.182 527.253 435.426C526.255 436.402 527.227 437.697 525.929 438.328C523.66 439.433 511.5 439.813 509.72 441.551C510.049 441.874 510.049 441.874 510.38 442.196C507.864 444.645 501.52 442.125 498.469 445.096C497.972 444.775 497.972 444.775 497.476 444.452C498.469 442.518 498.378 436.897 498.137 434.783C498.034 433.887 496.196 433.832 496.151 434.783C495.943 439.397 495.943 444.029 496.151 448.643C496.226 450.276 507.37 446.39 509.387 446.063C514.133 445.293 518.413 444.914 522.953 443.807C524.141 443.519 525.043 441.874 526.261 441.874C528.507 441.874 530.141 441.96 531.884 440.261Z" filter="url(#F23)"/><path fill="#e8e8e8" d="M488.147 512.118C485.861 513.98 485.257 519.42 484.705 522.015C484.598 522.503 481.285 524.957 485.495 524.272C489.143 523.678 490.054 524.813 492.618 526.207C493.06 526.445 495.837 526.41 496.178 526.528C500.92 528.183 505.318 529.358 510.426 530.398C511.725 530.662 522.935 540.687 522.935 540.687C522.935 540.687 522.737 533.459 524.78 533.485C526.349 533.503 528.201 533.645 528.201 533.645C526.004 531.852 523.615 529.263 520.458 528.816C515.065 528.055 504.03 524.412 497.007 522.529C492.691 521.373 492.157 521.997 488.661 521.05C485.644 520.228 489.423 514.197 488.147 512.118Z" filter="url(#F24)"/><path fill="#e8e8e8" d="M497.259 433.896C497.763 433.847 500.555 431.365 500.907 431.274C505.766 429.993 512.195 427.745 516.995 425.756L513.079 424.204C510.519 423.826 508.259 425.699 505.05 426.602C502.502 427.319 498.903 426.986 497.323 427.53L497.259 433.896Z" filter="url(#F25)"/></g></g></g><g id="Beard and mustache"><path id="Beard Base with Shadow" fill="#424141" d="M183.333 244.974C181.417 284.219 176.63 335.721 177.678 393.55C178.569 442.624 185.902 501.643 195.114 546.123C209.77 616.908 253.927 663.241 260.898 669.446C288.265 693.81 323.937 638.685 323.937 638.685L340.463 619.878C340.463 619.878 347.369 627.377 350.498 631.216C374.686 660.887 393.881 686.364 415.2 672.811C451.63 649.653 477.057 579.801 486.705 542.494C511.676 445.97 498.006 248.689 498.006 248.689L478.805 249.547C479.774 251.153 479.68 252.142 479.304 254.09C473.791 282.553 467.314 325.295 457.017 365.258C453.864 377.495 438.748 392.826 424.015 399.573C421.534 383.468 399.912 369.574 393.679 368.188C378.034 364.708 354.676 359.671 352.549 359.448C349.972 359.175 343.787 362.125 341.066 363.594C343.811 366.735 346.071 368.891 347.774 373.465C349.116 377.065 351.402 381.541 354.642 384.878C362.453 392.923 376.313 388.916 385.279 398.065L393.201 412.463C385.853 415.373 362.129 426.151 340.463 425.704C312.111 425.12 285.479 412.685 285.479 412.685C285.479 412.685 291.563 402.285 295.056 398.066C300.982 390.907 319.634 393.392 326.623 384.877C329.369 381.532 330.56 379.069 332.828 373.463C334.509 369.308 338.152 366.092 339.843 363.594C337.963 362.689 331.841 359.327 326.101 359.452C322.048 359.541 291.907 365.014 284.71 368.065C261.809 377.769 255.782 399.525 255.782 399.525C255.782 399.525 249.78 396.254 245.993 393.361C238.09 387.319 230.315 381.611 225.512 369.701C218.798 353.061 216.222 328.284 212.492 308.638C207.895 284.423 203.174 261.887 200.839 249.017L183.333 244.974Z" filter="url(#F26)" shadowAngle="1.571" shadowColor="#000" shadowOffset="4.091" shadowOpacity=".5" shadowRadius="8.485"/><g id="Beard Bottom Layer"><path fill="#424141" d="M202.753 244.454C192.899 245.43 192.899 245.43 183.045 246.404C175.536 331.817 170.635 429.494 188.621 518.181C194.966 549.472 201.696 579.269 215.578 607.533C223.053 622.752 230.717 638.227 241.635 651.322C251.547 663.211 266.15 676.832 277.14 676.772C284.028 676.734 290.987 674.011 298.725 667.876C312.785 656.723 325.241 636.828 340.329 621.125C355.136 637.805 363.682 649.657 378.931 665.771C382.223 669.251 390.439 675.953 400.313 676.532C403.4 676.712 409.078 676.772 414.338 673.677C432.11 663.223 451.818 633.189 457.335 622.902C465.97 606.804 474.242 590.277 479.332 572.804C498.052 508.573 504.961 430.183 504.961 368.464C504.961 358.341 504.953 332.573 503.469 309.17C501.41 276.668 497.684 246.223 497.684 246.223C491.362 245.635 487.863 245.37 478.009 244.394C479.167 245.015 479.024 248.552 479.103 251.282C479.125 252.074 479.1 252.979 478.978 253.719C477.376 263.481 473.13 281.09 469.859 298.118C466.871 313.672 461.864 342.042 458.06 357.198C454.736 370.447 452.109 374.33 445.763 382.466C437.22 393.421 415.461 404.347 403.933 407.973C386.304 414.928 377.52 416.219 340.329 423.585C319.319 419.762 296.912 415.773 276.725 407.973C236.454 396.092 221.686 371.742 219.465 340.146C213.143 310.643 206.572 280.807 201.815 253.78C201.272 250.701 202.44 247.562 202.753 244.454Z" filter="url(#F27)" shadowAngle="1.571" shadowColor="#000" shadowOffset=".291" shadowOpacity=".5" shadowRadius="3"/><path fill="#424141" d="M396.423 424.405C396.423 424.405 396.243 421.771 395.659 418.956C395.223 416.849 392.439 395.158 391.983 393.775C390.784 393.519 389.319 394.711 387.91 395.692C388.297 406.449 389.549 436.146 390.589 446.393C391.293 453.338 419.498 472.586 422.695 454.13C407.206 449.186 395.101 444.061 396.423 424.405Z" filter="url(#F28)" shadowAngle="1.571" shadowColor="#000" shadowOffset=".291" shadowOpacity=".33" shadowRadius="3"/><path fill="#424141" d="M282.096 424.29C281.018 423.083 285.038 393.774 286.536 389.762C287.735 389.507 289.201 390.698 290.608 391.68C290.224 402.436 288.972 436.035 287.93 446.281C287.226 453.226 259.02 472.475 255.824 454.016C271.313 449.074 283.462 442.878 282.096 424.29Z" filter="url(#F29)" shadowAngle="1.571" shadowColor="#000" shadowOffset=".291" shadowOpacity=".33" shadowRadius="3"/></g><g id="Beard Left"><path fill="#56493c" d="M202.869 244.394C201.922 245.268 201.983 246.859 201.922 248.836C201.897 249.644 201.799 250.582 201.797 251.309C201.797 252.468 201.878 253.303 201.954 253.741C203.453 262.251 214.396 311.797 219.467 340.162C223.682 363.73 225.079 380.546 255.964 398.955C255.754 421.397 279.462 422.805 288.945 411.987C307.683 417.3 320.277 419.536 340.463 423.511L340.463 619.551C340.463 619.551 314.81 655.06 297.279 669.551C286.131 678.767 275.417 676.92 274.254 676.713C246.194 671.731 211.064 608.208 198.343 562.769C194.354 550.206 189.73 528.743 184.242 493.124C180.173 466.726 176.492 419.024 176.181 391.954C175.52 382.435 176.111 335.352 176.966 316.78C178.602 281.232 182.037 262.781 183.253 246.205L202.869 244.394Z" filter="url(#F30)" shadowAngle="1.571" shadowColor="#000" shadowOffset=".291" shadowOpacity=".33" shadowRadius="3"/><path fill="#655b53" d="M270.238 671.722C261.437 660.631 248.093 648.588 240.013 636.855C265.04 635.562 300.706 637.384 324.772 637.405C323.121 639.522 286.303 671.294 280.789 675.769C277.999 675.65 270.267 671.793 270.238 671.722Z" filter="url(#F31)" shadowAngle="1.571" shadowColor="#000" shadowOffset=".291" shadowOpacity=".33" shadowRadius="3"/><path fill="#59514a" d="M339.969 620.534C339.969 620.534 227.326 619.522 230.255 624.883C232.973 628.241 243.376 644.662 243.842 645.417C256.784 666.379 270.834 687.592 295.53 671.05C301.227 667.234 315.008 651.031 325.787 637.833C326.049 637.512 339.969 620.534 339.969 620.534Z" filter="url(#F32)" shadowAngle="1.571" shadowColor="#000" shadowOffset=".291" shadowOpacity=".33" shadowRadius="3"/><path id="Curve 3" fill="#59514a" d="M243.841 645.434C256.783 666.395 270.842 687.578 295.538 671.037C301.235 667.22 315.017 651.018 325.795 637.82C325.795 637.82 265.3 636.307 240.106 636.945C237.41 633.751 243.375 644.679 243.841 645.434Z" filter="url(#F33)" shadowAngle="1.571" shadowColor="#000" shadowOffset=".291" shadowOpacity=".33" shadowRadius="3"/><path fill="#605448" d="M213.506 598.27C213.506 598.27 204.399 574.737 203.527 569.355C244.077 569.402 334.578 567.142 340.463 568.428L340.463 598.024C330.765 597.85 250.365 598.012 213.506 598.27Z" filter="url(#F34)" shadowAngle="1.571" shadowColor="#000" shadowOffset=".291" shadowOpacity=".33" shadowRadius="3"/><path fill="#5e5348" d="M213.506 598.27C250.146 597.349 340.463 596.241 340.463 596.241L340.463 616.539C340.463 616.539 232.516 617.232 225.779 619.061C221.76 612.353 217.743 605.642 213.506 598.27Z" filter="url(#F35)" shadowAngle="1.571" shadowColor="#000" shadowOffset=".291" shadowOpacity=".33" shadowRadius="3"/><path fill="#62584f" d="M225.905 618.373C230.855 616.711 298.839 615.569 340.463 615.311L340.861 620.688L340.463 621.041L325.787 637.833C325.787 637.833 265.294 636.31 240.099 636.948C236.085 632.192 225.887 618.814 225.905 618.373Z" filter="url(#F36)" shadowAngle="1.571" shadowColor="#000" shadowOffset=".291" shadowOpacity=".33" shadowRadius="3"/><path fill="#50453d" d="M342.465 455.033C342.465 455.033 208.979 452.922 198.285 452.875C198.592 459.672 202.979 493.077 202.979 493.077L342.804 494.789L342.465 455.033Z" filter="url(#F37)" shadowAngle="1.571" shadowColor="#000" shadowOffset=".291" shadowOpacity=".33" shadowRadius="3"/><path fill="#5a4e43" d="M342.465 531.406L342.465 568.428C342.465 568.428 203.793 570.584 203.688 570.091C201.559 562.649 195.191 535.205 195.191 535.205C197.691 535.213 202.79 535.128 209.639 534.982C247.74 534.168 342.465 531.406 342.465 531.406Z" filter="url(#F38)" shadowAngle="1.571" shadowColor="#000" shadowOffset=".291" shadowOpacity=".33" shadowRadius="3"/><path fill="#41372e" d="M183.17 246.318C183.17 246.318 182.927 248.374 182.816 249.893C182.134 259.143 181.363 268.333 180.58 277.492C179.36 291.74 178.108 305.909 177.115 320.103C177.105 321.653 173.198 382.334 179.462 452.595C180.674 466.178 182.265 480.121 184.339 494.062C185.09 499.106 185.902 504.149 186.783 509.175C191.672 537.075 197.409 563.981 207.155 588.316C238.349 666.201 269.939 676.335 274.254 676.713C259.87 661.581 227.558 626.296 208.807 529.126C206.6 517.692 204.631 505.64 202.896 493.189C201.076 480.15 199.513 466.668 198.2 452.987C191.231 380.328 191.344 302.067 197.846 254.585C198.229 251.79 198.812 244.768 198.812 244.768L183.17 246.318Z" filter="url(#F39)" shadowAngle="1.571" shadowColor="#000" shadowOffset=".291" shadowOpacity=".33" shadowRadius="3"/><path fill="#544a41" d="M342.465 494.789C342.465 494.789 213.674 493.123 202.979 493.077C203.975 499.787 207.88 529.296 210.147 534.858C215.866 536.22 342.465 531.81 342.465 531.81L342.465 494.789Z" filter="url(#F40)" shadowAngle="1.571" shadowColor="#000" shadowOffset=".291" shadowOpacity=".33" shadowRadius="3"/><path fill="#4d4239" d="M340.463 423.511C338.726 422.728 314.499 419.829 288.945 411.987C261.892 403.685 232.796 389.842 225.601 367.112C205.512 361.672 197.26 383.746 193.878 383.73C193.277 393.047 197.947 450.828 198.309 452.898C199.117 452.999 342.465 456.331 342.465 456.331L340.463 423.511Z" filter="url(#F41)" shadowAngle="1.571" shadowColor="#000" shadowOffset=".291" shadowOpacity=".33" shadowRadius="3"/></g><g id="Beard Right"><path fill="#56493c" d="M478.055 244.394C479.003 245.268 478.942 246.859 479.003 248.836C479.027 249.644 479.125 250.582 479.128 251.309C479.128 252.468 479.048 253.303 478.972 253.741C477.472 262.251 466.528 311.797 461.458 340.162C457.243 363.73 455.846 380.546 424.96 398.955C425.171 421.397 401.464 422.805 391.979 411.987C373.243 417.3 360.649 419.536 340.463 423.511L340.463 619.551C340.463 619.551 366.115 655.06 383.646 669.551C394.794 678.767 405.508 676.92 406.67 676.713C434.731 671.731 469.861 608.208 482.581 562.769C486.57 550.206 491.195 528.743 496.683 493.124C500.752 466.726 504.434 419.024 504.745 391.954C505.404 382.435 504.813 335.352 503.959 316.78C502.322 281.232 498.887 262.781 497.671 246.205L478.055 244.394Z" filter="url(#F42)" shadowAngle="1.571" shadowColor="#000" shadowOffset=".291" shadowOpacity=".33" shadowRadius="3"/><path fill="#655b53" d="M410.688 671.722C419.488 660.631 432.832 648.588 440.913 636.855C415.884 635.562 380.22 637.384 356.153 637.405C357.803 639.522 394.622 671.294 400.136 675.769C402.926 675.65 410.657 671.793 410.688 671.722Z" filter="url(#F43)" shadowAngle="1.571" shadowColor="#000" shadowOffset=".291" shadowOpacity=".33" shadowRadius="3"/><path fill="#59514a" d="M340.463 620.563C340.463 620.563 453.105 619.551 450.176 624.911C447.457 628.269 437.055 644.689 436.588 645.446C423.646 666.408 409.598 687.62 384.902 671.077C379.205 667.262 365.422 651.061 354.645 637.862C354.381 637.539 340.463 620.563 340.463 620.563Z" filter="url(#F44)" shadowAngle="1.571" shadowColor="#000" shadowOffset=".291" shadowOpacity=".33" shadowRadius="3"/><path fill="#605448" d="M467.418 598.27C467.418 598.27 476.525 574.737 477.397 569.355C436.847 569.402 346.349 567.142 340.463 568.428L340.463 598.024C350.161 597.85 430.56 598.012 467.418 598.27Z" filter="url(#F45)" shadowAngle="1.571" shadowColor="#000" shadowOffset=".291" shadowOpacity=".33" shadowRadius="3"/><path fill="#5e5348" d="M467.418 598.27C430.779 597.349 340.463 596.241 340.463 596.241L340.463 616.539C340.463 616.539 448.408 617.232 455.146 619.061C459.164 612.353 463.181 605.642 467.418 598.27Z" filter="url(#F46)" shadowAngle="1.571" shadowColor="#000" shadowOffset=".291" shadowOpacity=".33" shadowRadius="3"/><path fill="#62584f" d="M455.019 618.373C450.069 616.711 382.088 615.569 340.463 615.311L340.463 621.041L354.608 637.989C354.608 637.989 415.633 636.31 440.825 636.948C444.841 632.192 455.038 618.814 455.019 618.373Z" filter="url(#F47)" shadowAngle="1.571" shadowColor="#000" shadowOffset=".291" shadowOpacity=".33" shadowRadius="3"/><path fill="#50453d" d="M340.463 455.033C340.463 455.033 471.946 452.922 482.641 452.875C482.333 459.672 477.946 493.077 477.946 493.077L340.463 494.789L340.463 455.033Z" filter="url(#F48)" shadowAngle="1.571" shadowColor="#000" shadowOffset=".291" shadowOpacity=".33" shadowRadius="3"/><path fill="#5a4e43" d="M340.738 531.406L340.738 568.428C340.738 568.428 477.131 570.584 477.238 570.091C479.366 562.649 485.735 535.205 485.735 535.205C483.234 535.213 478.134 535.128 471.285 534.982C433.184 534.168 340.738 531.406 340.738 531.406Z" filter="url(#F49)" shadowAngle="1.571" shadowColor="#000" shadowOffset=".291" shadowOpacity=".33" shadowRadius="3"/><path fill="#41372e" d="M497.755 246.318C497.755 246.318 497.998 248.374 498.11 249.893C498.79 259.143 499.561 268.333 500.345 277.492C501.565 291.74 502.818 305.909 503.812 320.103C503.819 321.653 507.727 382.334 501.462 452.595C500.252 466.178 498.661 480.121 496.586 494.062C495.837 499.106 495.023 504.149 494.141 509.175C489.253 537.075 483.516 563.981 473.77 588.316C442.577 666.201 410.986 676.335 406.67 676.713C421.055 661.581 453.367 626.296 472.118 529.126C474.324 517.692 476.294 505.64 478.03 493.189C479.849 480.15 481.413 466.668 482.724 452.987C489.694 380.328 489.581 302.067 483.078 254.585C482.696 251.79 482.112 244.768 482.112 244.768L497.755 246.318Z" filter="url(#F50)" shadowAngle="1.571" shadowColor="#000" shadowOffset=".291" shadowOpacity=".33" shadowRadius="3"/><path fill="#544a41" d="M340.463 494.789C340.463 494.789 467.251 493.123 477.946 493.077C476.952 499.787 473.045 529.296 470.779 534.858C465.059 536.22 340.463 531.81 340.463 531.81L340.463 494.789Z" filter="url(#F51)" shadowAngle="1.571" shadowColor="#000" shadowOffset=".291" shadowOpacity=".33" shadowRadius="3"/><path fill="#4d4239" d="M340.463 423.511C342.198 422.728 366.425 419.829 391.979 411.987C419.032 403.685 448.13 389.842 455.323 367.112C475.413 361.672 483.666 383.746 487.046 383.73C487.647 393.047 482.977 450.828 482.617 452.898C481.809 452.999 340.738 456.331 340.738 456.331L340.463 423.511Z" filter="url(#F52)" shadowAngle="1.571" shadowColor="#000" shadowOffset=".291" shadowOpacity=".33" shadowRadius="3"/></g><g id="Mustache"><g id="Mustache Left"><path fill="#424141" d="M284.163 424.425C284.803 420.593 286.539 415.136 287.326 411.403L292.127 412.914C291.74 423.669 289.42 436.035 288.379 446.281C287.674 453.226 259.469 472.475 256.274 454.016C271.761 449.074 286.969 442.719 284.163 424.425Z" filter="url(#F53)" shadowAngle="1.571" shadowColor="#000" shadowOffset="4.091" shadowOpacity=".33" shadowRadius="8.485"/><path fill="#453a32" d="M284.163 424.425C284.803 420.593 286.539 415.136 287.326 411.403L292.127 412.914C291.74 423.669 289.42 436.035 288.379 446.281C287.674 453.226 259.469 472.475 256.274 454.016C271.761 449.074 286.969 442.719 284.163 424.425Z" filter="url(#F54)" shadowAngle="1.571" shadowColor="#000" shadowOffset="4.091" shadowOpacity=".33" shadowRadius="8.485"/><path fill="#424141" d="M325.828 358.98C312.663 361.195 298.374 363.855 285.914 367.026C271.949 373.059 257.701 384.658 254.507 398.658C254.315 399.12 252.257 413.009 252.504 426.757C252.74 439.904 255.229 452.89 256.258 454.001C257.015 454.82 267.549 450.693 273.65 446.931C279.75 443.169 282.374 438.429 283.598 434.863C284.736 431.55 285.082 428.275 284.537 424.318C284.196 421.837 287.04 413.286 287.04 413.286L294.108 398.109C299.704 395.473 304.517 391.44 309.687 390.979C321.506 389.926 327.927 383.982 331.209 373.607C332.545 370.507 338.668 364.451 338.467 363.368C335.455 361.011 328.337 358.558 325.828 358.98Z" filter="url(#F55)" shadowAngle="1.571" shadowColor="#000" shadowOffset="1.178" shadowOpacity=".33" shadowRadius="8.485"/><path fill="#615243" d="M254.497 398.644C254.305 399.107 252.243 413.03 252.489 426.777C252.726 439.925 255.245 452.905 256.274 454.016C257.031 454.835 267.572 450.709 273.672 446.946C279.773 443.184 282.403 438.442 283.626 434.875C284.763 431.564 285.09 428.248 284.544 424.29C284.205 421.81 287.058 413.266 287.058 413.266L294.084 398.089C294.084 398.089 255.759 399.863 255.841 398.729C254.497 398.644 255.341 398.819 254.497 398.644Z" filter="url(#F56)" shadowAngle="1.571" shadowColor="#000" shadowOffset=".291" shadowOpacity=".33" shadowRadius="3"/><path fill="#5e5044" d="M294.084 398.089C292.083 402.584 289.369 406.616 286.984 413.167C284.601 419.717 285.198 421.315 284.544 424.29C282.56 424.299 254.552 429.92 254.497 398.644C254.497 398.644 282.94 397.331 294.084 398.089Z" filter="url(#F57)" shadowAngle="1.571" shadowColor="#000" shadowOffset=".291" shadowOpacity=".33" shadowRadius="3"/><path fill="#69594b" d="M294.084 398.089C292.408 398.017 254.497 398.644 254.497 398.644C257.693 384.644 274.498 370.595 285.9 367.039C289.433 365.937 297.884 365.731 305.949 367.119C316.449 368.929 326.904 372.74 331.225 373.597C327.943 383.972 321.509 389.946 309.689 390.998C304.519 391.458 299.68 395.451 294.084 398.089Z" filter="url(#F58)" shadowAngle="1.571" shadowColor="#000" shadowOffset=".291" shadowOpacity=".33" shadowRadius="3"/><path fill="#736152" d="M338.495 363.345C338.698 364.429 332.56 370.495 331.225 373.597C327.614 373.236 311.764 368.68 303.581 367.436C293.13 365.848 290.073 367.513 285.9 367.039C298.36 363.869 312.691 361.215 325.856 359.001C328.364 358.578 335.484 360.99 338.495 363.345Z" filter="url(#F59)" shadowAngle="1.571" shadowColor="#000" shadowOffset=".291" shadowOpacity=".33" shadowRadius="3"/></g><g id="Mustache Right"><path fill="#424141" d="M396.38 424.275C396.38 424.275 396.197 421.642 395.615 418.828C395.178 416.72 393.866 413.403 393.411 412.02L388.979 413.149C389.364 423.907 391.506 436.018 392.546 446.265C393.251 453.208 421.456 472.458 424.652 454.001C409.163 449.057 396.349 442.411 396.38 424.275Z" filter="url(#F60)" shadowAngle="1.571" shadowColor="#000" shadowOffset="4.091" shadowOpacity=".33" shadowRadius="8.485"/><path fill="#453a32" d="M396.38 424.275C396.38 424.275 396.197 421.642 395.615 418.828C395.178 416.72 393.866 413.403 393.411 412.02L388.979 413.149C389.364 423.907 391.506 436.018 392.546 446.265C393.251 453.208 421.456 472.458 424.652 454.001C409.163 449.057 394.653 442.369 396.38 424.275Z" filter="url(#F61)" shadowAngle="1.571" shadowColor="#000" shadowOffset="4.091" shadowOpacity=".33" shadowRadius="8.485"/><g><path fill="#424141" d="M355.035 358.949C352.525 358.528 345.407 360.921 342.395 363.276C342.194 364.36 348.319 370.476 349.653 373.577C352.935 383.952 359.419 389.896 371.238 390.949C376.408 391.409 381.22 395.38 386.816 398.018C388.818 402.513 392.405 408.709 393.885 413.134C395.765 418.749 395.673 421.251 396.326 424.227C395.78 428.183 396.128 431.52 397.264 434.831C398.487 438.397 401.113 443.139 407.212 446.9C413.314 450.663 423.847 454.788 424.604 453.971C425.633 452.86 428.185 439.872 428.421 426.727C428.667 412.979 426.609 399.089 426.418 398.628C423.223 384.628 408.975 373.028 395.011 366.994C382.552 363.825 368.199 361.162 355.035 358.949Z" filter="url(#F62)" shadowAngle="1.571" shadowColor="#000" shadowOffset="1.178" shadowOpacity=".33" shadowRadius="8.485"/><path fill="#615243" d="M426.429 398.629C426.619 399.091 428.682 413.014 428.435 426.762C428.198 439.908 425.68 452.89 424.652 454.001C423.894 454.819 413.354 450.693 407.252 446.93C401.153 443.168 398.522 438.425 397.299 434.859C396.161 431.547 395.835 428.233 396.38 424.275C396.721 421.793 396.325 419.701 393.941 413.151C391.555 406.601 386.84 398.073 386.84 398.073C386.84 398.073 425.584 398.801 426.429 398.629Z" filter="url(#F63)" shadowAngle="1.571" shadowColor="#000" shadowOffset=".291" shadowOpacity=".33" shadowRadius="3"/><path fill="#5e5044" d="M386.84 398.073C388.842 402.569 392.458 408.725 393.941 413.151C395.819 418.767 395.727 421.299 396.38 424.275C398.365 424.284 426.372 429.904 426.429 398.629C426.429 398.629 397.986 397.314 386.84 398.073Z" filter="url(#F64)" shadowAngle="1.571" shadowColor="#000" shadowOffset=".291" shadowOpacity=".33" shadowRadius="3"/><path fill="#69594b" d="M386.84 398.073C388.517 397.999 426.429 398.629 426.429 398.629C423.232 384.628 408.989 373.055 395.025 367.021C386.891 367.789 379.392 368.229 372.64 369.149C364.932 370.2 357.341 372.068 349.701 373.58C352.982 383.955 359.415 389.928 371.236 390.98C376.407 391.441 381.245 395.434 386.84 398.073Z" filter="url(#F65)" shadowAngle="1.571" shadowColor="#000" shadowOffset=".291" shadowOpacity=".33" shadowRadius="3"/><path fill="#736152" d="M342.424 363.33C342.222 364.414 348.364 370.48 349.701 373.58C353.976 373.154 362.565 370.926 372.296 369.438C381.278 368.066 391.455 367.428 395.025 367.021C382.565 363.852 368.234 361.198 355.069 358.985C352.56 358.563 345.435 360.973 342.424 363.33Z" filter="url(#F66)" shadowAngle="1.571" shadowColor="#000" shadowOffset=".291" shadowOpacity=".33" shadowRadius="3"/></g></g></g></g><g id="LeftEye"><path id="Sclera.bottom.layer" fill="#fcfafb" d="M299.17 262.488L279.227 262.481C215.296 262.488 252.693 311.557 287.171 311.699C321.65 311.839 355.915 262.493 299.17 262.488Z" filter="url(#F67)" shadowAngle="1.571" shadowColor="#000" shadowOffset="1.178" shadowOpacity=".33" shadowRadius="5"/><path id="Lowest iris" fill="#99bbd4" d="M310.91 279.376C310.91 271.813 306.748 266.924 300.414 262.965L272.794 262.965C266.866 266.968 262.985 272.107 262.985 279.376C262.985 291.517 273.711 301.364 286.946 301.364C300.18 301.364 310.91 291.517 310.91 279.376Z"/><g fill="#fcfafb"><path id="Sclera.lower middle layer" d="M298.061 262.972C314.822 273.139 308.963 300.217 286.723 299.665C264.485 299.115 257.344 272.947 278.119 262.965C214.188 262.972 252.245 312.036 286.723 312.178C321.2 312.32 354.803 262.977 298.061 262.972Z"/><path id="Sclera.mid.layer" d="M298.061 262.965C314.822 273.132 308.963 300.217 286.723 299.665C264.485 299.115 257.344 272.947 278.119 262.965C213.473 262.481 252.245 312.036 286.723 312.178C321.2 312.32 352.027 262.965 298.061 262.965Z"/><path id="Sclera.top.layer" d="M298.061 262.965C314.822 273.132 308.963 300.217 286.723 299.665C264.485 299.115 257.344 272.947 278.119 262.965C213.473 262.481 252.245 312.036 286.723 312.178C321.2 312.32 357.577 262.965 298.061 262.965Z"/></g><g fill="#99bbd4"><path id="Iris.bottom.layer" d="M262.985 279.554C262.985 271.929 267.155 266.958 273.489 262.965L301.137 262.965C307.065 267 310.91 272.223 310.91 279.554C310.91 291.797 300.182 301.725 286.949 301.725C273.714 301.725 262.985 291.797 262.985 279.554Z"/><path id="Iris.top.layer" d="M309.899 279.376C309.899 271.813 305.912 266.924 299.845 262.965L273.391 262.965C267.716 266.968 263.996 272.107 263.996 279.376C263.996 291.517 274.27 301.364 286.946 301.364C299.621 301.364 309.899 291.517 309.899 279.376Z"/></g><path id="Pupil" fill="#000" d="M299.74 280.569C299.74 273.671 294.011 268.075 286.948 268.075C279.884 268.075 274.156 273.671 274.156 280.569C274.156 287.47 279.884 293.064 286.948 293.064C294.011 293.064 299.74 287.47 299.74 280.569Z"/><path id="Pupil light" fill="#FFF" d="M292.474 270.272C292.474 266.797 289.999 263.98 286.946 263.98C283.895 263.98 281.419 266.797 281.419 270.272C281.419 273.748 283.895 276.566 286.946 276.566C289.999 276.566 292.474 273.748 292.474 270.272Z"/><path id="Upper eyelid" fill="#dda38c" d="M243.501 281.95C239.952 271.659 257.988 253.797 286.891 254.694C315.797 255.591 332.362 268.44 329.402 282.169C309.899 262.481 263.996 256.556 243.501 281.95Z" filter="url(#F68)" shadowAngle="1.571" shadowColor="#000" shadowOffset="1.178" shadowOpacity=".33" shadowRadius="3.3"/></g><g id="RightEye"><path id="Sclera.bottom.layer" fill="#fcfafb" d="M381.021 262.489L400.965 262.481C464.896 262.489 427.497 311.55 393.018 311.693C358.54 311.833 324.275 262.496 381.021 262.489Z" filter="url(#F69)" shadowAngle="1.571" shadowColor="#000" shadowOffset="1.178" shadowOpacity=".33" shadowRadius="3.3"/><path id="Lowest iris" fill="#99bbd4" d="M369.278 279.376C369.278 271.813 373.441 266.924 379.776 262.965L407.396 262.965C413.324 266.968 417.206 272.107 417.206 279.376C417.206 291.516 406.479 301.36 393.244 301.36C380.01 301.36 369.278 291.516 369.278 279.376Z"/><path id="Sclera.lower middle .layer" fill="#fcfafb" d="M382.129 262.972C365.368 273.139 371.228 300.214 393.467 299.662C415.706 299.112 422.846 272.947 402.073 262.965C466.003 262.972 427.945 312.031 393.467 312.172C358.988 312.315 325.385 262.979 382.129 262.972Z"/><path id="Sclera.mid.layer" fill="#fcfafb" d="M382.129 262.965C365.368 273.132 371.228 300.214 393.467 299.662C415.706 299.112 422.846 272.947 402.073 262.965C466.718 262.481 427.945 312.031 393.467 312.172C358.988 312.315 328.163 262.965 382.129 262.965Z"/><path id="Sclera.top.layer" fill="#fcfafb" d="M382.129 262.965C365.368 273.132 371.228 300.214 393.467 299.662C415.706 299.112 422.846 272.947 402.073 262.965C466.718 262.481 427.945 312.031 393.467 312.172C358.988 312.315 322.612 262.965 382.129 262.965Z"/><path id="Iris.bottom .layer" fill="#99bbd4" d="M417.206 279.55C417.206 271.929 413.036 266.958 406.701 262.965L379.052 262.965C373.125 267 369.278 272.223 369.278 279.55C369.278 291.793 380.007 301.72 393.243 301.72C406.477 301.72 417.206 291.793 417.206 279.55Z"/><path id="Iris.top.layer" fill="#99bbd4" d="M370.293 279.376C370.293 271.813 374.278 266.924 380.345 262.965L406.798 262.965C412.474 266.968 416.194 272.107 416.194 279.376C416.194 291.516 405.92 301.36 393.244 301.36C380.568 301.36 370.293 291.516 370.293 279.376Z"/><path id="Pupil" fill="#000" d="M380.451 280.569C380.451 273.671 386.176 268.075 393.243 268.075C400.306 268.075 406.033 273.671 406.033 280.569C406.033 287.467 400.306 293.063 393.243 293.063C386.176 293.063 380.451 287.467 380.451 280.569Z"/><path id="Pupil light" fill="#FFF" d="M387.716 270.272C387.716 266.798 390.192 263.983 393.244 263.983C396.295 263.983 398.77 266.798 398.77 270.272C398.77 273.748 396.295 276.566 393.244 276.566C390.192 276.566 387.716 273.748 387.716 270.272Z"/><path id="Upper eyelid" fill="#dda38c" d="M436.689 281.948C440.605 271.231 422.202 253.801 393.298 254.698C364.393 255.594 345.781 268.491 350.719 282.217C370.223 262.534 416.194 256.559 436.689 281.948Z" filter="url(#F70)" shadowAngle="1.571" shadowColor="#000" shadowOffset="1.178" shadowOpacity=".33" shadowRadius="3.3"/></g><g id="Eyebrows"><path id="Left Eyebrow" fill="#725d4e" d="M288.749 224.747C297.607 224.774 305.61 224.452 313.46 225.36C316.329 225.691 321.549 227.912 321.517 230.866C321.481 233.82 316.299 236.77 313.323 237.179C306.168 238.16 298.79 237.598 290.584 237.809C282.383 237.793 275.031 238.147 267.856 237.209C264.969 236.831 259.764 234.655 259.801 231.698C259.838 228.741 264.997 225.86 268.002 225.383C274.468 224.357 281.206 224.954 288.749 224.747Z" filter="url(#F71)" shadowAngle="1.571" shadowColor="#000" shadowOffset="1.178" shadowOpacity=".33" shadowRadius="3.3"/><path id="Right Eyebrow" fill="#725d4e" d="M392.176 237.826C383.317 237.802 375.316 238.123 367.465 237.214C364.596 236.882 359.376 234.664 359.409 231.709C359.443 228.753 364.626 225.803 367.602 225.395C374.758 224.414 382.136 224.975 390.342 224.765C398.541 224.781 405.893 224.427 413.068 225.367C415.956 225.744 421.16 227.92 421.124 230.875C421.086 233.832 415.929 236.715 412.922 237.191C406.456 238.219 399.719 237.621 392.176 237.826Z" filter="url(#F72)" shadowAngle="1.571" shadowColor="#000" shadowOffset="1.178" shadowOpacity=".33" shadowRadius="3.3"/></g><g id="Hat (first layer)"><path id="Brim Base" fill="url(#LinearGradient)" d="M173.606 93.177C144.22 93.5748 129.656 110.338 125.495 127.126C124.627 130.624 124.181 133.994 124.181 137.366C124.181 141.709 124.907 145.83 126.12 149.617C132.833 170.578 155.343 182.953 163.221 186.614C162.565 189.284 157.157 202.218 156.276 215.809C155.964 220.628 156.216 225.522 157.465 230.071C160.273 240.308 168.065 248.759 185.618 250.55C219.016 253.959 236.058 242.092 242.675 230.071C243.088 229.325 243.47 228.56 243.802 227.816C245.65 223.672 246.362 219.502 246.43 215.565C246.607 205.161 242.238 196.67 242.238 196.67L438.687 196.67C438.687 196.67 434.317 205.146 434.494 215.55C434.562 219.487 435.275 223.672 437.124 227.816C437.455 228.56 437.837 229.569 438.249 230.315C444.868 242.336 461.91 253.959 495.307 250.55C512.861 248.759 520.651 240.552 523.46 230.315C524.709 225.765 524.961 220.37 524.648 215.55C523.767 201.959 518.361 189.284 517.705 186.614C525.581 182.953 548.092 170.578 554.804 149.617C556.017 145.83 556.743 141.709 556.743 137.366C556.743 133.994 556.297 130.624 555.429 127.126C551.269 110.338 536.705 93.5748 507.318 93.177L173.606 93.177Z" filter="url(#F73)" shadowAngle="1.571" shadowColor="#000" shadowOffset="1.178" shadowOpacity=".33" shadowRadius="3.3"/><g id="Hat mid brim and top"><path id="Brim middle and below all hat layers" fill="#383838" d="M555.429 127.126C555.429 127.126 556.605 132.913 556.743 135.594C557.101 142.491 554.804 149.607 554.804 149.607L344.849 156.487L126.12 149.607C126.12 149.607 124.338 144.412 124.181 138.793C124.024 133.172 125.495 127.126 125.495 127.126L344.849 118.559L555.429 127.126Z" filter="url(#F74)" shadowAngle="1.571" shadowColor="#000" shadowOffset="1.178" shadowOpacity=".33" shadowRadius="3.3"/><path id="Brim base trim" fill="#3c3c3c" d="M126.12 149.607L554.804 149.607C554.804 149.607 550.796 162.836 539.948 172.166C531.808 179.165 521.205 184.928 517.705 186.606C506.36 186.684 188.038 186.977 163.221 186.606C159.866 184.916 146.505 179.859 139.088 172.166C129.591 162.317 126.12 149.607 126.12 149.607Z" filter="url(#F75)" shadowAngle="1.571" shadowColor="#000" shadowOffset="1.178" shadowOpacity=".33" shadowRadius="3.3"/><path id="5 and lowest trim of UPPER hat" fill="#1f1b1c" d="M512.95 102.428C512.95 102.428 513.999 100.516 509.917 93.3387C505.833 86.1623 498.878 75.4028 497.44 73.7171L340.463 73.9262L185.126 74.1268C182.155 77.9864 176.303 86.4695 172.366 93.2891C169.556 98.1575 167.976 102.428 167.976 102.428L340.463 105.084L512.95 102.428Z" filter="url(#F76)" shadowAngle="1.571" shadowColor="#000" shadowOffset="1.178" shadowOpacity=".33" shadowRadius="3.3"/><path id="Top of Brim" fill="#3c3c3c" d="M125.495 127.126C129.361 110.037 145.962 93.177 173.944 93.2438C173.944 93.2438 480.755 93.2374 506.391 93.1177C529.479 93.4961 546.3 102.973 553.708 121.38C554.249 122.722 554.953 125.682 555.429 127.126C548.861 127.134 125.495 127.126 125.495 127.126Z" filter="url(#F77)" shadowAngle="1.571" shadowColor="#000" shadowOffset="1.178" shadowOpacity=".33" shadowRadius="3.3"/><path id="4 and bottom of 1-3" fill="#252122" d="M205.826 51.8484C194.984 61.8716 185.645 73.4596 185.126 74.1268C181.138 79.2424 259.371 81.793 341.612 81.0309C418.456 80.3183 499.412 76.7049 497.44 73.7171C494.077 68.6178 483.029 57.2375 477.601 52.283C471.672 46.8702 403.845 0.0373222 340.463 0.00821556C273.596-0.0224004 210.939 47.1213 205.826 51.8484Z" filter="url(#F78)" shadowAngle="1.571" shadowColor="#000" shadowOffset="1.178" shadowOpacity=".33" shadowRadius="3.3"/><path id="3" fill="#2c2829" d="M477.601 52.283L444.568 30.0087L236.357 30.0087C226.375 36.2302 213.018 45.4707 205.826 51.8484L477.601 52.283Z" filter="url(#F79)" shadowAngle="1.571" shadowColor="#000" shadowOffset="1.178" shadowOpacity=".33" shadowRadius="3.3"/><path id="2" fill="#2c2829" d="M236.357 30.0087C227.078 35.1502 215.788 42.6401 205.826 51.8484C204.295 53.2633 211.59 51.8342 220.176 52.0483C242.233 52.5985 289.417 52.2796 340.463 52.0483C388.9 51.8288 438.173 52.0376 462.562 52.0483C473.348 52.053 477.601 52.283 477.601 52.283C468.82 44.4276 457.109 36.864 444.568 30.0087C444.202 29.8094 443.824 29.612 443.43 29.4169C443.43 29.4169 385.998 29.5535 340.463 30.0087C302.974 30.3836 236.512 29.9229 236.357 30.0087Z" filter="url(#F80)" shadowAngle="1.571" shadowColor="#000" shadowOffset="1.178" shadowOpacity=".33" shadowRadius="3.3"/><path id="1 top of hat" fill="#332e2f" d="M444.568 30.0087C413.168 12.2958 375.871-0.369201 340.463 0.00821556C309.152 0.341972 262.474 13.382 236.357 30.0087L444.568 30.0087Z" filter="url(#F81)" shadowAngle="1.571" shadowColor="#000" shadowOffset="1.178" shadowOpacity=".33" shadowRadius="3.3"/></g><g id="Hat bottom brim" shadowAngle="1.571" shadowColor="#000" shadowOffset="1.178" shadowOpacity=".33" shadowRadius="3.3"><g id="Right Hat Brim Flap"><path fill="#70635d" d="M338.418 194.958C338.418 194.958 403.472 194.312 439.821 194.754L438.664 209.99C438.252 210.024 338.418 209.914 338.418 209.914L338.418 194.958Z" filter="url(#F82)"/><path fill="#524d49" d="M434.494 215.55C434.562 219.487 435.275 223.672 437.124 227.816C437.455 228.56 437.837 229.569 438.249 230.315L523.46 230.315C524.709 225.765 524.961 220.37 524.648 215.55L434.494 215.55Z" filter="url(#F83)"/><path fill="#5b544d" d="M438.249 230.315C444.868 242.336 461.91 253.959 495.307 250.55C512.861 248.759 520.651 240.552 523.46 230.315L438.249 230.315Z" filter="url(#F84)"/><path fill="#4d4844" d="M438.687 196.67C438.687 196.67 434.317 205.146 434.494 215.55L524.648 215.55C524.167 208.103 522.505 201.267 521.101 196.609L438.687 196.67Z" filter="url(#F85)"/></g><g id="Left Hat Brim Flap"><path fill="#70635d" d="M340.463 194.825L340.463 209.914L231.251 209.914L227.028 196.619C261.486 196.728 340.463 194.825 340.463 194.825Z" filter="url(#F86)"/><path fill="#524d49" d="M174.044 182.773C171.832 182.754 170.352 182.957 170.352 182.957C164.112 182.729 162.156 190.392 162.156 190.392C162.158 190.392 160.968 192.263 159.655 196.67L242.425 196.67L340.463 197.584L342.465 197.584L438.687 196.67L521.083 196.67C520.319 194.07 518.955 190.392 518.955 190.392C518.955 190.392 517.001 182.729 510.761 182.957C510.761 182.957 509.28 182.754 507.068 182.773C489.694 182.924 346.469 183.846 342.652 183.871C342.652 183.871 340.512 183.871 340.463 183.871C336.638 183.846 191.422 182.924 174.044 182.773Z" filter="url(#F87)"/><path fill="#524d49" d="M156.276 215.809C155.964 220.628 156.275 226.049 157.465 230.071L242.675 230.071C243.088 229.325 243.47 228.56 243.802 227.816C245.65 223.672 246.128 219.566 246.43 215.565L158.347 215.122L156.276 215.809Z" filter="url(#F88)"/><path fill="#4d4844" d="M242.238 196.67C242.238 196.67 246.607 205.146 246.43 215.55L156.276 215.55C156.867 206.429 158.507 201.132 159.818 196.67L242.238 196.67Z" filter="url(#F89)"/><path fill="#5b544d" d="M157.465 230.071C160.273 240.308 168.065 248.759 185.618 250.55C219.016 253.959 236.058 242.092 242.675 230.071L157.465 230.071Z" filter="url(#F90)"/><path fill="#3c3c3c" d="M126.12 149.607L554.804 149.607C554.804 149.607 550.796 162.836 539.948 172.166C531.808 179.165 521.205 184.928 517.705 186.606C506.36 186.684 188.038 186.977 163.221 186.606C159.866 184.916 146.505 179.859 139.088 172.166C129.591 162.317 126.12 149.607 126.12 149.607Z" filter="url(#F91)"/></g></g></g></g></svg>