<?xml version="1.0" encoding="UTF-8" standalone="no"?>
<!DOCTYPE svg PUBLIC "-//W3C//DTD SVG 1.1//EN" "http://www.w3.org/Graphics/SVG/1.1/DTD/svg11.dtd">
<!-- Created with Vectornator (http://vectornator.io/) -->
<svg height="100%" stroke-miterlimit="10" style="fill-rule:nonzero;clip-rule:evenodd;stroke-linecap:round;stroke-linejoin:round;" version="1.1" viewBox="0 0 222 331" width="100%" xml:space="preserve" xmlns="http://www.w3.org/2000/svg" xmlns:vectornator="http://vectornator.io" xmlns:xlink="http://www.w3.org/1999/xlink">
<defs>
<filter color-interpolation-filters="sRGB" filterUnits="userSpaceOnUse" height="43.7286" id="Filter" width="206.755" x="6.65443" y="115.099">
<feDropShadow dx="-2.82391e-06" dy="0.768786" flood-color="#000000" flood-opacity="0.6" in="SourceGraphic" result="Shadow" stdDeviation="1.26879"/>
</filter>
<filter color-interpolation-filters="sRGB" filterUnits="userSpaceOnUse" height="121.802" id="Filter_2" width="144.008" x="38.4317" y="89.3614">
<feDropShadow dx="-2.82391e-06" dy="0.768786" flood-color="#000000" flood-opacity="0.6" in="SourceGraphic" result="Shadow" stdDeviation="1.26879"/>
</filter>
<filter color-interpolation-filters="sRGB" filterUnits="userSpaceOnUse" height="65.7388" id="Filter_3" width="228.212" x="-3.10592" y="268.505">
<feDropShadow dx="-2.82391e-06" dy="0.768786" flood-color="#000000" flood-opacity="0.6" in="SourceGraphic" result="Shadow" stdDeviation="1.26879"/>
</filter>
<filter color-interpolation-filters="sRGB" filterUnits="userSpaceOnUse" height="103.125" id="Filter_4" width="216.941" x="1.13216" y="196.006">
<feDropShadow dx="-2.82391e-06" dy="0.768786" flood-color="#000000" flood-opacity="0.6" in="SourceGraphic" result="Shadow" stdDeviation="1.26879"/>
</filter>
<filter color-interpolation-filters="sRGB" filterUnits="userSpaceOnUse" height="12.5715" id="Filter_5" width="107.862" x="57.0715" y="93.354">
<feDropShadow dx="-6.49713e-06" dy="1.76879" flood-color="#000000" flood-opacity="0.6" in="SourceGraphic" result="Shadow" stdDeviation="1.26879"/>
</filter>
<filter color-interpolation-filters="sRGB" filterUnits="userSpaceOnUse" height="24.1754" id="Filter_6" width="111.389" x="54.8441" y="90.1848">
<feDropShadow dx="-6.49713e-06" dy="1.76879" flood-color="#000000" flood-opacity="0.6" in="SourceGraphic" result="Shadow" stdDeviation="1.26879"/>
</filter>
<filter color-interpolation-filters="sRGB" filterUnits="userSpaceOnUse" height="219.432" id="Filter_7" width="162.626" x="28.8064" y="115.415">
<feDropShadow dx="-2.82391e-06" dy="0.768786" flood-color="#000000" flood-opacity="0.6" in="SourceGraphic" result="Shadow" stdDeviation="1.26879"/>
</filter>
<filter color-interpolation-filters="sRGB" filterUnits="userSpaceOnUse" height="49.668" id="Filter_8" width="176.578" x="21.7647" y="-3.8473">
<feDropShadow dx="-2.82391e-06" dy="-0.768786" flood-color="#000000" flood-opacity="0.6" in="SourceGraphic" result="Shadow" stdDeviation="1.26879"/>
</filter>
<linearGradient gradientTransform="matrix(1 0 0 1 0 0)" gradientUnits="userSpaceOnUse" id="LinearGradient" x1="5.91832" x2="215.457" y1="80.4118" y2="80.4118">
<stop offset="0" stop-color="#553325"/>
<stop offset="1" stop-color="#533d33"/>
</linearGradient>
<filter color-interpolation-filters="sRGB" filterUnits="userSpaceOnUse" height="81.3532" id="Filter_9" width="215.883" x="2.74636" y="40.504">
<feDropShadow dx="-2.82391e-06" dy="0.768786" flood-color="#000000" flood-opacity="0.6" in="SourceGraphic" result="Shadow" stdDeviation="1.26879"/>
</filter>
<linearGradient gradientTransform="matrix(1 0 0 1 4.44089e-16 0)" gradientUnits="userSpaceOnUse" id="LinearGradient_2" x1="113.714" x2="133.045" y1="313.38" y2="-4.74234">
<stop offset="0" stop-color="#554138"/>
<stop offset="1" stop-color="#534a47"/>
</linearGradient>
<filter color-interpolation-filters="sRGB" filterUnits="userSpaceOnUse" height="81.3532" id="Filter_10" width="215.883" x="2.74636" y="38.9664">
<feDropShadow dx="-2.82391e-06" dy="-0.768786" flood-color="#000000" flood-opacity="0.6" in="SourceGraphic" result="Shadow" stdDeviation="1.26879"/>
</filter>
<filter color-interpolation-filters="sRGB" filterUnits="userSpaceOnUse" height="32.5202" id="Filter_11" width="49.5139" x="112.289" y="121.197">
<feDropShadow dx="-1.8366e-06" dy="0.5" flood-color="#000000" flood-opacity="0.6" in="SourceGraphic" result="Shadow" stdDeviation="1.26879"/>
<feGaussianBlur in="Shadow" result="Blur" stdDeviation="0.25"/>
</filter>
<filter color-interpolation-filters="sRGB" filterUnits="userSpaceOnUse" height="27.0416" id="Filter_12" width="31.2439" x="121.424" y="121.441">
<feDropShadow dx="-1.8366e-06" dy="0.5" flood-color="#000000" flood-opacity="0.6" in="SourceGraphic" result="Shadow" stdDeviation="1.26879"/>
<feGaussianBlur in="Shadow" result="Blur" stdDeviation="0.25"/>
</filter>
<filter color-interpolation-filters="sRGB" filterUnits="userSpaceOnUse" height="32.5185" id="Filter_13" width="49.5099" x="112.727" y="121.441">
<feDropShadow dx="-1.8366e-06" dy="0.5" flood-color="#000000" flood-opacity="0.6" in="SourceGraphic" result="Shadow" stdDeviation="1.26879"/>
<feGaussianBlur in="Shadow" result="Blur" stdDeviation="0.25"/>
</filter>
<filter color-interpolation-filters="sRGB" filterUnits="userSpaceOnUse" height="20.8799" id="Filter_14" width="24.9" x="124.595" y="124.113">
<feGaussianBlur in="SourceGraphic" result="Blur" stdDeviation="0.25"/>
</filter>
<filter color-interpolation-filters="sRGB" filterUnits="userSpaceOnUse" height="19" id="Filter_15" width="18.9679" x="127.562" y="124.923">
<feDropShadow dx="-2.82391e-06" dy="0.768786" flood-color="#000000" flood-opacity="0.6" in="SourceGraphic" result="Shadow" stdDeviation="1.26879"/>
</filter>
<filter color-interpolation-filters="sRGB" filterUnits="userSpaceOnUse" height="12.718" id="Filter_16" width="11.7989" x="131.146" y="122.85">
<feDropShadow dx="-2.82391e-06" dy="0.768786" flood-color="#000000" flood-opacity="0.6" in="SourceGraphic" result="Shadow" stdDeviation="1.26879"/>
</filter>
<filter color-interpolation-filters="sRGB" filterUnits="userSpaceOnUse" height="20.2602" id="Filter_17" width="49.153" x="112.742" y="117.878">
<feDropShadow dx="-1.82491e-06" dy="0.496816" flood-color="#000000" flood-opacity="0.6" in="SourceGraphic" result="Shadow" stdDeviation="1.26071"/>
</filter>
<filter color-interpolation-filters="sRGB" filterUnits="userSpaceOnUse" height="32.5239" id="Filter_18" width="49.5139" x="59.835" y="121.196">
<feDropShadow dx="-1.8366e-06" dy="0.5" flood-color="#000000" flood-opacity="0.6" in="SourceGraphic" result="Shadow" stdDeviation="1.26879"/>
<feGaussianBlur in="Shadow" result="Blur" stdDeviation="0.25"/>
</filter>
<filter color-interpolation-filters="sRGB" filterUnits="userSpaceOnUse" height="27.0445" id="Filter_19" width="31.2439" x="68.97" y="121.441">
<feDropShadow dx="-1.8366e-06" dy="0.5" flood-color="#000000" flood-opacity="0.6" in="SourceGraphic" result="Shadow" stdDeviation="1.26879"/>
<feGaussianBlur in="Shadow" result="Blur" stdDeviation="0.25"/>
</filter>
<filter color-interpolation-filters="sRGB" filterUnits="userSpaceOnUse" height="32.5222" id="Filter_20" width="49.5099" x="59.4005" y="121.441">
<feDropShadow dx="-1.8366e-06" dy="0.5" flood-color="#000000" flood-opacity="0.6" in="SourceGraphic" result="Shadow" stdDeviation="1.26879"/>
<feGaussianBlur in="Shadow" result="Blur" stdDeviation="0.25"/>
</filter>
<filter color-interpolation-filters="sRGB" filterUnits="userSpaceOnUse" height="20.8828" id="Filter_21" width="24.9" x="72.142" y="124.113">
<feGaussianBlur in="SourceGraphic" result="Blur" stdDeviation="0.25"/>
</filter>
<filter color-interpolation-filters="sRGB" filterUnits="userSpaceOnUse" height="19.0019" id="Filter_22" width="18.9679" x="75.108" y="124.923">
<feDropShadow dx="-2.82391e-06" dy="0.768786" flood-color="#000000" flood-opacity="0.6" in="SourceGraphic" result="Shadow" stdDeviation="1.26879"/>
</filter>
<filter color-interpolation-filters="sRGB" filterUnits="userSpaceOnUse" height="12.7189" id="Filter_23" width="11.7989" x="78.6925" y="122.849">
<feDropShadow dx="-2.82391e-06" dy="0.768786" flood-color="#000000" flood-opacity="0.6" in="SourceGraphic" result="Shadow" stdDeviation="1.26879"/>
</filter>
<filter color-interpolation-filters="sRGB" filterUnits="userSpaceOnUse" height="20.2367" id="Filter_24" width="49.1195" x="59.7422" y="117.877">
<feDropShadow dx="-1.82491e-06" dy="0.496816" flood-color="#000000" flood-opacity="0.6" in="SourceGraphic" result="Shadow" stdDeviation="1.26071"/>
</filter>
</defs>
<path d="M0 0L222 0L222 331L0 331L0 0Z" fill="#424141" fill-opacity="0" fill-rule="nonzero" opacity="1" stroke="none"/>
<clipPath id="ArtboardFrame">
<rect height="331" width="222" x="0" y="0"/>
</clipPath>
<g clip-path="url(#ArtboardFrame)" id="Gutenberg-Shadowed" layerName="Gutenberg Shadowed">
<g opacity="1" layerName="Gutenberg.Shadowed">
<g opacity="1" layerName="Face">
<g filter="url(#Filter)" layerName="Group 1" shadowAngle="1.5708" shadowColor="#000000" shadowOffset="0.768786" shadowOpacity="0.6" shadowRadius="2.53757">
<path d="M32.0672 154.461C37.2918 139.971 34.6796 130.227 34.6796 117.888C24.1826 117.549 16.0156 119.402 11.1685 129.806C5.34475 142.307 19.6132 157.647 32.0672 154.461Z" fill="#efb198" fill-rule="nonzero" opacity="1" stroke="none" layerName="path"/>
<path d="M188.107 154.098C217.181 154.098 218.518 117.697 186.698 117.502C186.977 129.618 187.514 156.699 188.107 154.098Z" fill="#efb198" fill-rule="nonzero" opacity="1" stroke="none" layerName="path"/>
</g>
<path d="M107.151 174.922C108.175 192.846 102.462 186.581 91.3984 189.9C88.5941 190.742 82.4869 199.891 84.5948 201.695C93.9608 211.981 135.048 204.911 135.457 204.107C141.673 191.917 122.621 189.444 116.156 186.823C113.036 185.325 112.622 180.654 112.517 175.224C130.304 175.028 142.007 178.238 148.898 196.074C168.436 191.187 178.027 135.8 179.268 117.662C163.368 110.492 162.183 107.339 160.888 91.9252L61.2928 91.7646C62.4724 112.589 47.0419 116.73 41.6098 117.405C41.4468 133.834 44.3474 186.168 70.8832 195.397C84.6084 177.671 84.0076 176.035 107.151 174.922Z" fill="#efb198" fill-rule="nonzero" filter="url(#Filter_2)" stroke="none" layerName="path" shadowAngle="1.5708" shadowColor="#000000" shadowOffset="0.768786" shadowOpacity="0.6" shadowRadius="2.53757"/>
</g>
<g filter="url(#Filter_3)" layerName="Group 5" shadowAngle="1.5708" shadowColor="#000000" shadowOffset="0.768786" shadowOpacity="0.6" shadowRadius="2.53757">
<path d="M221.934 286.452C209.833 300.772 165.99 335.062 144.916 328.538C158.145 319.223 160.997 307.729 169.438 295.749C172.766 291.025 177.912 291.428 186.699 285.821C195.485 280.213 199.383 277.301 204.584 273.32C206.372 271.952 218.953 284.427 221.934 286.452Z" fill="#272223" fill-rule="nonzero" opacity="1" stroke="none" layerName="Curve 1"/>
<path d="M0.06605 284.751C14.9446 301.069 51.1082 329.125 74.5174 330.303C63.6979 318.611 59.2163 307.478 50.7231 295.425C47.3949 290.702 42.6195 290.153 32.4734 282.849C23.7304 276.553 16.8924 269.944 15.2027 271.025C10.2852 274.169 5.39061 282.814 0.06605 284.751Z" fill="#272223" fill-rule="nonzero" opacity="1" stroke="none" layerName="path"/>
</g>
<g filter="url(#Filter_4)" layerName="Group 6" shadowAngle="1.5708" shadowColor="#000000" shadowOffset="0.768786" shadowOpacity="0.6" shadowRadius="2.53757">
<g opacity="1" layerName="right">
<path d="M213.462 244.259C213.088 244.634 211.699 246.706 211.666 247.198C211.56 248.722 212.42 250.69 211.339 251.77C209.226 250.185 209.608 253.012 208.727 253.893C208.481 253.648 208.481 253.648 208.237 253.403C207.719 253.921 207.587 255.151 206.931 255.525C206.632 255.696 206.195 255.608 205.951 255.852C206.114 256.015 206.114 256.015 206.278 256.178C205.385 257.964 205.814 259.881 204.971 261.567C204.07 263.369 206.128 265.634 204.645 267.117C203.937 266.409 204.876 259.473 201.869 261.077C201.187 261.44 200.807 262.301 200.073 262.546C200.073 263.586 200.482 264.912 199.747 265.648C199.502 265.403 199.502 265.403 199.257 265.158C199.093 265.24 199.093 265.24 198.93 265.321C195.736 262.127 195.201 271.5 194.849 271.852C194.055 271.059 195.048 269.864 194.359 269.076C190.678 264.87 190.646 272.669 189.298 272.669C187.784 272.669 187.305 270.179 185.052 272.995C184.889 272.832 184.889 272.832 184.726 272.669C183.102 274.293 185.697 277.249 184.073 278.873C183.422 278.221 183.301 276.219 183.093 275.281C182.84 274.139 180.021 274.415 179.501 275.281C178.282 277.314 179.722 282.081 178.358 283.445C177.585 282.671 178.228 281.256 178.031 280.179C177.977 279.876 177.41 279.832 177.378 279.526C177.184 277.577 177.482 275.605 177.378 273.648C177.368 273.436 176.873 273.232 176.725 273.158C175.677 274.208 177.121 275.865 176.072 276.914C175.91 276.832 175.91 276.832 175.746 276.751C174.653 277.843 175.907 279.53 175.257 280.833C174.928 281.488 173.754 282.236 173.624 282.955C173.275 284.871 174.383 285.913 172.481 286.546C172.481 288.75 171.665 290.913 170.848 292.751C170.503 293.527 169.571 293.997 169.868 295.037C170.049 295.671 174.45 294.189 174.767 293.241C177.062 293.241 178.236 292.361 180.154 291.935C180.644 291.826 181.086 290.68 181.624 290.465C183.039 289.899 184.796 289.702 186.032 288.996C186.734 288.595 187.05 287.586 187.828 287.363C190.724 286.536 192.714 283.721 195.502 282.792C197.366 282.17 199.047 280.173 200.563 278.873C202.451 277.255 204.246 275.191 205.951 273.485C206.606 272.831 207.766 272.305 208.237 271.362C208.673 270.49 209.387 268.839 210.033 267.934C211.185 266.321 212.162 265.46 212.646 263.526C212.881 262.583 213.81 261.456 213.952 260.75C214.658 257.22 214.579 252.536 214.442 248.831C214.382 247.243 215.102 245.079 213.462 244.259Z" fill="#c0bebf" fill-rule="nonzero" opacity="1" stroke="none" layerName="path"/>
<path d="M213.135 227.279C212.413 228.003 213.357 229.046 212.319 229.565C210.664 230.393 208.61 229.387 206.768 229.565C202.703 229.958 198.606 229.891 194.523 229.891C193.198 229.891 187.016 230.102 186.685 230.871C186.624 231.015 186.575 231.839 187.012 231.851C190.983 231.956 194.958 231.904 198.93 231.851C203.277 231.794 207.2 231.034 211.666 231.034C211.733 231.034 213.601 230.975 213.625 231.361C213.727 232.991 213.727 234.63 213.625 236.259C213.615 236.413 213.451 236.568 213.299 236.586C209.739 236.981 203.848 236.77 200.726 236.423C200.42 236.388 200.376 235.827 200.073 235.77C199.761 235.71 195.918 235.354 195.339 235.933C192.73 234.629 188.969 236.205 186.195 235.28C186.195 234.132 186.68 232.662 185.869 231.851C184.737 232.983 185.307 236.005 185.052 237.402C184.998 237.705 184.463 237.754 184.399 238.055C184.341 238.332 183.951 241.709 183.909 242.301C183.809 243.766 184.011 245.243 183.909 246.708C183.889 247.014 183.251 247.145 183.093 247.198C183.093 247.906 183.121 248.614 183.093 249.321C183.067 249.976 183.017 250.631 182.93 251.28C182.661 253.297 185.717 251.946 186.685 252.913C186.522 253.158 186.522 253.158 186.359 253.403C186.984 254.028 192.741 254.223 194.033 254.546C195.499 254.912 195.06 256.723 196.939 257.055C197.359 257.129 198.542 256.169 198.93 256.342C200.414 257.001 202.726 256.724 204.318 257.321C205.268 257.677 204.659 260.927 205.298 261.567C206.149 260.716 205.686 259.374 205.794 258.177C205.862 257.435 206.963 255.896 207.421 255.362C206.022 253.963 203.72 255.786 202.196 254.872C201.057 254.189 199.289 253.753 197.897 253.5C195.941 253.144 194.317 253.012 192.563 252.26C191.607 251.85 191.032 252.265 190.006 251.808C189.492 251.58 188.819 251.363 188.318 251.28C187.272 251.106 186.042 251.448 185.052 250.953C184.012 250.433 182.996 247.838 184.563 247.525C185.018 247.434 186.446 248.173 187.929 248.469C190.07 248.897 192.386 248.981 192.563 249.157C193.079 248.9 203.015 251.348 204.645 251.443C204.736 251.449 208.12 251.232 208.4 252.26C208.899 254.087 207.675 257.086 209.053 258.464C210.441 257.077 209.222 254.543 209.38 252.586C209.446 251.776 210.643 251.621 211.176 251.443C210.134 249.88 207.053 250.993 206.441 249.157C205.143 249.157 202.148 249.599 201.216 248.668C201.379 248.504 201.379 248.504 201.543 248.341C200.616 247.414 198.925 248.171 197.624 248.014C194.193 247.603 190.279 246.428 186.522 246.218C186.198 246.201 186.022 246.282 185.706 246.055C184.595 245.262 184.852 244.724 185.052 243.117C185.124 242.545 191.699 242.579 192.727 243.607C194.326 242.806 199.244 243.983 201.053 244.586C204.207 245.638 208.028 244.307 211.176 245.565C211.93 245.867 211.271 246.804 211.829 247.361C212.746 246.444 212.847 246.065 213.135 244.912C213.353 244.042 213.857 243.321 214.538 249.859C214.727 247.687 214.727 244.333 214.768 243.932C215.053 241.141 214.877 235.332 214.278 232.341C213.972 230.81 214.377 228.521 213.135 227.279Z" fill="#e8e8e8" fill-rule="nonzero" opacity="1" stroke="none" layerName="path"/>
<path d="M186.359 225.483C185.125 226.717 186.079 228.964 186.032 230.708C186.018 231.201 185.869 231.685 185.869 232.177C185.869 233.32 185.77 234.467 185.869 235.606C185.923 236.221 187.87 235.77 188.155 235.77C190.555 235.77 193.192 235.186 195.339 236.259C196.02 235.577 199.788 236.031 200.073 236.096C200.373 236.165 200.42 236.721 200.726 236.749C204.047 237.051 209.806 237.261 213.462 236.912C213.692 236.89 213.932 236.652 213.952 236.423C214.1 234.687 214.1 232.933 213.952 231.198C213.886 230.439 208.481 230.975 207.713 231.018C206.684 231.075 202.562 231.734 201.538 231.734C195.956 231.734 193.273 231.604 187.338 231.524C187.185 231.522 187.12 231.306 187.012 231.198C187.175 230.953 187.175 230.953 187.338 230.708C188.822 231.45 192.43 230.218 194.196 230.218C200.28 230.218 206.414 229.891 212.319 229.891C214.785 229.891 211.42 222.782 211.013 222.708C209.384 222.412 207.909 223.478 206.441 223.687C202.067 224.313 197.993 224.452 193.869 225.483C192.097 225.927 187.813 226.575 186.359 225.483Z" fill="#fcfafb" fill-rule="nonzero" opacity="1" stroke="none" layerName="path"/>
<path d="M188.971 201.973C187.34 203.604 188.485 208.466 188.374 211.32C188.343 212.116 188.539 212.691 188.155 213.075C187.828 212.829 187.828 212.829 187.502 212.585C187.393 212.693 187.182 212.758 187.175 212.911C187.071 215.249 187.175 217.592 187.175 219.932C187.175 220.438 186.416 225.483 188.645 225.483C189.146 225.483 189.298 224.615 189.788 224.503C190.861 224.26 192.109 224.581 193.053 224.013C194.161 223.35 194.938 224.414 195.992 223.36C196.699 223.714 197.702 223.271 198.44 223.197C200.375 223.004 208.309 221.519 209.38 222.055C210.918 220.517 206.3 214.376 204.645 214.708C202.549 215.127 200.451 215.974 198.604 216.667C197.236 217.18 195.325 216.865 193.869 217.157C192.16 217.498 189.598 219.053 187.828 218.463C187.828 217.166 187.558 217.589 188.155 216.993C189.202 218.041 198.684 214.244 199.583 214.054C199.835 214.002 202.796 214.54 203.175 213.401C204.008 210.902 198.769 209.161 198.114 207.197C196.767 207.197 192.772 204.397 192.4 203.278C191.715 203.278 189.38 202.38 188.971 201.973Z" fill="#fcfafb" fill-rule="nonzero" opacity="1" stroke="none" layerName="path"/>
<path d="M182.767 251.117C181.718 252.165 181.95 254.41 181.95 255.852C181.95 256.832 181.758 257.83 181.95 258.791C182.114 259.611 185.251 260.191 185.869 260.26C186.795 260.363 187.244 261.267 187.991 261.567C188.71 261.854 190.169 261.664 190.93 261.893C191.904 262.185 192.613 263.112 193.543 263.526C194.26 263.845 197.034 263.624 197.678 264.268C196.705 264.46 193.454 264.429 191.793 263.884C188.218 262.712 183.144 259.971 180.807 260.75C180.807 261.403 180.679 262.069 180.807 262.71C180.948 263.415 188.437 265.942 189.788 266.954C190.71 267.646 192.069 266.942 192.563 268.423C195.742 268.423 193.04 273.033 195.176 272.179C196.152 271.788 195.053 264.229 198.604 265.321C199.657 265.646 198.997 266.53 199.583 267.117C201.713 266.052 200.558 264.193 201.216 262.383C201.788 260.811 203.597 261.315 203.829 262.71C204.054 264.066 203.407 267.186 204.318 268.097C205.858 266.557 205.588 264.716 205.461 262.056C205.431 261.432 205.825 260.35 205.712 259.479C205.577 258.437 204.901 257.632 204.408 257.382C203.191 256.764 202.499 256.301 200.597 256.597C199.466 256.772 199.393 255.758 198.303 255.481C196.444 255.008 194.206 254.262 194.033 254.219C192.305 253.787 188.028 254.492 187.338 252.423C185.356 252.423 183.996 252.347 182.767 251.117Z" fill="#fcfafb" fill-rule="nonzero" opacity="1" stroke="none" layerName="path"/>
<path d="M182.555 254.757C181.611 255.7 181.363 258.456 181.134 259.771C181.091 260.017 180.205 260.72 180.154 261.077C179.815 263.452 179.5 265.17 179.174 267.444C179.076 268.136 178.091 268.914 178.031 269.566C177.934 270.651 178.172 271.752 178.031 272.832C177.977 273.253 177.086 273.225 177.052 273.648C176.898 275.602 176.857 277.577 177.052 279.526C177.083 279.832 177.652 279.876 177.705 280.179C177.912 281.369 177.34 282.917 178.195 283.772C178.765 283.486 178.424 283.681 179.174 283.118C178.906 282.579 179.042 275.719 180.317 274.955C183.575 273 182.964 280.127 184.236 279.363C185.71 278.478 184.592 275.762 184.726 274.791C184.776 274.432 185.882 272.349 186.359 272.179C186.932 271.974 187.725 272.282 188.155 271.852C187.543 271.241 187.738 271.581 187.502 270.873C186.024 270.873 185.407 269.93 184.073 269.566C181.968 268.992 179.746 268.502 180.154 265.648C180.323 264.468 184.7 266.439 185.052 266.791C185.138 266.877 185.258 266.954 185.379 266.954C185.627 266.954 189.889 268.341 189.951 268.423C190.412 269.039 190.646 269.707 190.649 270.925C190.652 271.799 190.835 269.01 191.747 268.587C193.093 267.962 193.616 269.41 194.163 268.862C193.383 268.083 191.405 267.356 190.441 266.954C189.63 266.617 189.792 265.894 188.971 265.648C187.407 265.178 185.399 265.015 184.236 263.853C182.512 264.714 179.723 261.261 181.46 260.914C182.965 260.612 183.341 261.187 184.399 261.893C184.582 262.014 185.728 261.996 185.869 262.056C187.825 262.894 189.64 263.489 191.747 264.016C192.284 264.15 195.525 266.953 195.994 267.096C196.701 267.314 196.8 265.788 197.496 265.536C198.845 265.044 198.007 266.336 198.962 265.38C198.056 264.473 197.19 263.442 195.887 263.215C193.662 262.829 189.109 260.984 186.21 260.03C184.429 259.444 184.21 259.762 182.767 259.281C181.522 258.865 183.081 255.809 182.555 254.757Z" fill="#e8e8e8" fill-rule="nonzero" opacity="1" stroke="none" layerName="path"/>
<path d="M201.216 249.321C203.159 249.321 204.862 249.353 206.441 250.3C208.468 251.517 209.636 249.949 211.176 252.26C211.656 252.019 211.387 252.135 211.992 251.933C211.992 249.864 212.483 247.692 211.829 245.729C211.452 244.598 204.865 244.422 203.829 244.422C198.112 244.422 190.812 241.477 185.052 242.301C184.023 242.447 184.464 244.396 184.726 245.402C185.117 246.901 188.261 246.477 188.971 246.545C191.796 246.815 195.009 247.968 197.624 248.341C199.61 248.625 200.622 247.536 201.216 249.321Z" fill="#fcfafb" fill-rule="nonzero" opacity="1" stroke="none" layerName="path"/>
<path d="M185.706 236.259C184.394 236.803 185.27 239.089 185.379 240.505C185.391 240.658 185.555 240.801 185.706 240.831C191.532 241.996 197.61 241.646 203.665 242.301C204.69 242.411 206.058 243.444 207.257 243.444C208.31 243.444 213.95 244.609 214.115 242.627C214.229 241.249 214.947 239.577 213.789 238.709C212.858 238.01 206.785 238.545 205.298 238.545C203.275 238.545 200.124 238.548 198.277 238.219C196.636 237.925 198.395 237.313 197.134 237.566C194.626 238.067 192.018 237.619 189.461 237.566C188.672 237.549 187.141 237.772 186.522 237.566C185.857 237.344 186.248 236.034 185.706 236.259Z" fill="#fcfafb" fill-rule="nonzero" opacity="1" stroke="none" layerName="path"/>
<path d="M197.787 254.382C198.817 253.868 201.312 254.641 202.032 255.362C203.605 254.576 206.031 256.408 207.747 255.035C208.714 254.262 209.362 252.507 208.237 251.607C206.866 250.511 204.07 251.921 202.522 250.953C201.048 250.032 199.611 250.553 197.95 250.137C197.338 249.985 196.857 249.157 196.319 249.157C193.568 249.157 190.619 248.387 187.828 248.014C186.891 247.889 185.377 246.818 184.236 247.198C183.18 247.55 183.708 249.986 183.746 250.137C184.173 251.846 187.266 251.306 188.318 251.607C190.174 252.137 196.616 253.211 197.787 254.382Z" fill="#fcfafb" fill-rule="nonzero" opacity="1" stroke="none" layerName="path"/>
<path d="M187.175 219.932C185.788 221.32 186.74 223.85 186.848 225.81C186.855 225.929 187.358 226.299 187.502 226.299C192.157 226.299 197.039 225.62 201.356 224.54C204.724 223.698 207.535 224.101 210.85 223.197C212.29 222.805 209.616 219.952 209.337 219.604C208.762 220.179 209.964 221.355 209.217 221.729C208.422 222.125 206.491 221.614 205.461 221.729C203.464 221.95 197.536 223.806 195.992 223.034C194.334 224.692 189.69 222.838 188.971 224.993C186.369 224.993 188.436 221.194 187.175 219.932Z" fill="#e8e8e8" fill-rule="nonzero" opacity="1" stroke="none" layerName="path"/>
<path d="M180.154 264.831C179.231 264.956 179.719 266.682 179.827 267.607C180.035 269.37 186.021 270.293 187.175 271.199C187.233 271.245 188.358 273.23 189.298 272.995C191.187 272.523 191.335 268.531 189.624 267.77C189.128 267.55 188.144 267.923 187.665 267.444C186.184 265.963 182.459 264.519 180.154 264.831Z" fill="#fcfafb" fill-rule="nonzero" opacity="1" stroke="none" layerName="path"/>
<path d="M205.461 214.544C205.08 213.782 203.942 212.478 203.175 212.095C202.683 212.589 203.162 213.245 202.522 213.565C201.402 214.125 195.402 214.317 194.523 215.197C194.686 215.361 194.686 215.361 194.849 215.524C193.608 216.764 190.477 215.488 188.971 216.993C188.726 216.83 188.726 216.83 188.481 216.667C188.971 215.687 188.927 212.84 188.808 211.769C188.757 211.315 187.85 211.287 187.828 211.769C187.725 214.106 187.725 216.452 187.828 218.789C187.865 219.617 193.364 217.648 194.359 217.483C196.701 217.093 198.813 216.901 201.053 216.34C201.64 216.194 202.085 215.361 202.686 215.361C203.794 215.361 204.601 215.405 205.461 214.544Z" fill="#e8e8e8" fill-rule="nonzero" opacity="1" stroke="none" layerName="path"/>
<path d="M183.878 250.942C182.75 251.885 182.452 254.64 182.179 255.955C182.127 256.202 180.492 257.445 182.569 257.098C184.369 256.797 184.819 257.372 186.084 258.078C186.303 258.199 187.673 258.181 187.841 258.241C190.181 259.079 192.351 259.674 194.871 260.201C195.513 260.335 201.045 265.413 201.045 265.413C201.045 265.413 200.947 261.751 201.955 261.764C202.729 261.774 203.643 261.846 203.643 261.846C202.559 260.938 201.38 259.626 199.822 259.4C197.161 259.014 191.716 257.169 188.25 256.215C186.12 255.629 185.857 255.946 184.131 255.466C182.643 255.05 184.507 251.994 183.878 250.942Z" fill="#e8e8e8" fill-rule="nonzero" opacity="1" stroke="none" layerName="path"/>
<path d="M188.374 211.32C188.623 211.295 190.001 210.038 190.174 209.992C192.572 209.343 195.745 208.204 198.114 207.197L196.181 206.411C194.918 206.219 193.802 207.168 192.219 207.625C190.961 207.988 189.186 207.82 188.406 208.095L188.374 211.32Z" fill="#e8e8e8" fill-rule="nonzero" opacity="1" stroke="none" layerName="path"/>
</g>
<g opacity="1" layerName="Group 9">
<path d="M6.99268 247.876C4.07317 253.604 6.59248 250.375 7.53474 251.565C7.81275 251.916 7.16413 253.75 7.81165 253.626C7.81165 253.626 8.83925 253.28 9.08525 253.918C9.21385 254.252 8.82115 255.987 9.24555 257.225C9.63275 258.354 10.3927 243.425 9.44265 244.244C9.23115 243.879 9.33615 244.084 8.29235 242.692C8.20695 237.989 9.16835 226.215 8.46665 226.368C7.42337 226.597 6.93107 229.262 6.44748 230.504C6.24416 231.026 5.54445 233.882 5.32936 234.958C4.6927 238.146 2.88645 241.634 6.44748 237.993C3.84577 243.144 3.88688 243.94 5.90609 243.334C6.87771 245.468 4.3831 251.106 6.99268 247.876ZM10.9146 265.032C10.2712 266.193 9.87635 270.969 12.8421 270.054C12.8421 270.054 13.8874 269.59 14.2685 270.123C14.4678 270.402 14.3594 272.014 15.0419 273.058C15.6644 274.01 17.0324 274.418 18.1456 274.324C17.1402 276.155 19.222 279.513 22.6056 278.067C21.7394 280.848 24.9472 284.345 27.3541 281.986C27.3159 286.816 29.7829 286.935 33.1784 284.793C32.9679 288.619 35.1248 288.36 36.5714 288.842C36.9746 288.977 36.9897 289.673 37.3877 289.822C39.3185 290.547 40.8647 290.696 42.6124 291.945C44.1082 293.013 47.3414 292.743 48.0003 294.72C53.8585 294.72 48.3108 291.493 48.1636 288.842C48.1153 287.973 48.2598 287.096 48.1636 286.23C48.1082 285.731 47.1703 285.729 47.0207 285.251C46.4913 283.557 47.6752 283.292 46.2043 282.802C46.2043 279.903 45.3078 280.934 45.0615 279.373C44.9257 278.513 45.1576 277.626 45.0615 276.761C45.0105 276.302 44.5601 274.364 43.5799 274.147C43.1344 274.048 42.745 275.209 42.148 275.452C43.5887 269.628 41.8292 268.322 41.2782 267.771C41.2782 268.459 40.813 271.163 40.1688 273.524C39.1706 277.184 38.7832 275.918 38.2839 277.094C37.8844 278.034 38.4435 280.64 37.0779 282.006C36.3905 281.114 36.589 278.27 36.5595 277.357C36.4364 273.538 34.2999 271.63 33.6493 271.882C33.5349 271.927 33.2017 271.852 32.7403 272.949C32.2186 274.19 32.163 277.904 31.9998 278.067C31.3684 277.435 31.876 275.416 30.6936 275.944C31.0803 274.653 31.4046 273.384 31.1487 271.53C30.8484 269.354 30.3084 267.495 28.8976 267.617C27.8082 267.711 27.8874 270.423 26.775 271.536C25.5035 270.688 26.2286 268.534 25.7362 266.711C25.5685 266.09 25.2858 265.5 24.9507 265.157C24.3757 264.569 23.6465 264.534 23.0792 265.05C22.1812 265.866 22.1929 267.791 21.7137 268.27C21.0092 267.566 21.2489 264.78 21.0631 263.131C20.9518 262.143 20.5021 260.743 19.6518 260.634C18.7122 260.513 18.1262 262.116 17.8271 263.352C17.5564 264.471 17.3523 266.793 17.3523 266.793C17.3523 266.793 17.1707 266.935 16.9788 267.127C15.784 266.53 17.6606 250.546 13.2236 258.311C12.6794 259.263 13.7728 260.537 12.897 261.413C12.3235 260.84 13.5995 246.889 10.1214 252.107C9.61415 251.768 9.49575 243.607 7.99885 244.106C6.91538 244.468 7.47854 247.82 7.18259 249.004C6.68982 250.975 5.58639 257.267 7.67245 255.699C7.81245 256.609 6.45727 262.197 8.91815 261.132C10.2614 261.115 6.87771 265.78 10.9146 265.032Z" fill="#c0bebf" fill-rule="nonzero" opacity="1" stroke="none" layerName="Curve 4"/>
<path d="M32.0289 198.409C31.6285 200.052 31.7269 200.025 30.9271 201.825C30.6809 202.379 30.0726 202.604 29.5507 203.125C27.0833 205.593 23.461 207.256 20.8973 209.819C19.8768 210.84 18.064 211.442 18.6115 213.085C18.7431 213.48 21.3351 214.444 23.7315 214.905C25.5878 215.262 27.3549 215.134 27.5914 215.371C27.5098 215.534 27.5098 215.534 27.4281 215.697C28.7586 217.028 31.9146 215.392 32.9793 217.167C33.4412 217.936 31.233 218.056 30.3671 217.82C28.8197 217.398 26.4115 217.066 24.9791 216.35C24.2489 215.985 23.3254 216.534 22.53 216.35C20.2156 215.817 19.09 214.2 16.1624 214.718C14.216 215.061 13.5762 218.439 12.4019 219.613C11.7452 220.413 10.0683 223.159 9.59115 223.636C9.42565 223.512 7.97995 224.978 8.44985 226.348C8.86205 227.55 8.55605 229.158 8.97855 229.412C9.09705 229.483 9.96725 229.734 10.1214 229.738C14.5832 229.845 19.0478 229.797 23.5096 229.902C25.8918 229.957 31.8284 229.404 33.4692 231.045C33.3604 231.208 33.3386 231.524 33.1426 231.534C30.426 231.691 27.7002 231.534 24.9791 231.534C22.5339 231.534 19.9938 231.371 17.6319 231.371C17.0958 231.371 16.6857 230.834 16.1624 230.718C14.5556 230.361 9.84485 230.134 8.16215 230.555C7.93815 230.61 7.69155 230.815 7.67245 231.045C7.52323 232.835 7.49214 234.038 7.59465 235.831C7.60335 235.985 7.84655 236.738 7.99885 236.759C8.82315 236.877 9.61615 236.303 10.4479 236.269C14.3633 236.113 18.2864 236.375 22.2035 236.269C26.0528 236.165 29.6291 235.969 33.7957 235.78C33.9676 235.772 34.1316 235.694 34.2856 235.616C35.4313 235.043 35.1121 233.142 35.1019 231.861C35.0956 231.076 34.6344 231.076 34.2062 230.824C32.8393 230.022 33.7957 227.119 33.7957 225.656C33.7957 223.752 33.8121 221.847 33.7957 219.943C33.7576 215.479 33.7917 211.014 33.6325 206.554C33.627 206.4 33.4148 206.337 33.3059 206.227C33.1426 206.39 33.1426 206.39 32.9793 206.554C31.8312 205.405 33.2338 204.356 32.4715 202.949C32.1742 202.4 32.9403 200.39 32.0289 198.409ZM17.1421 242.964C18.0133 242.092 23.0479 242.508 23.8362 242.474C26.2676 242.368 28.5642 241.621 32.163 241.168C33.3992 241.012 34.9217 240.999 35.9183 241.331C35.9183 242.878 32.0661 242.294 30.6936 242.637C26.1873 243.764 21.1003 243.925 16.6522 244.759C14.6847 245.129 12.0297 244.401 10.1214 245.249C9.55275 245.469 8.73695 251.538 9.79495 252.596C10.6644 252.161 10.9455 250.668 11.9173 250.474C13.3383 250.19 15.1586 250.813 16.4889 250.147C17.9977 249.393 20.0576 249.914 21.5504 249.168C23.1189 248.383 23.7979 248.573 25.7955 248.351C27.5043 248.161 30.1596 247.386 31.6732 246.882C33.1477 246.391 34.9743 246.795 36.4081 246.555C37.594 246.358 36.7655 244.166 36.7347 242.964C36.7215 242.452 36.7409 241.641 36.6285 240.755C36.4551 239.389 36.0567 237.877 35.4284 237.249C34.9615 237.483 33.7166 237.241 33.3059 237.249C30.8567 237.294 28.4062 237.308 25.9587 237.412C22.0888 237.577 18.3094 238.229 14.3664 238.229C12.4544 238.229 10.0072 238.207 8.16215 238.392C8.00905 238.407 7.84625 238.565 7.83565 238.719C7.73455 240.184 7.64755 241.669 7.83565 243.127C7.84655 243.212 8.11665 242.683 8.29235 242.692C8.58705 242.707 8.07115 244.014 8.17385 244.086C8.27005 244.152 8.39235 243.731 8.48875 243.779C10.1086 244.59 15.4749 242.13 17.1421 242.964ZM16.4889 267.617C16.6522 267.454 16.6522 267.454 16.8155 267.291C16.8827 267.358 17.185 265.2 17.7717 263.106C18.0767 262.018 18.3504 260.506 18.938 260.27C19.7281 259.954 20.906 260.511 21.7137 260.107C25.063 258.432 29.4205 258.497 32.6529 256.189C32.9619 255.968 37.6326 255.576 37.7142 254.882C37.9784 252.636 38.0882 249.52 37.551 247.371C37.4066 246.795 35.3472 247.494 34.9386 247.698C32.187 249.074 27.8522 248.123 25.3056 249.821C24.4218 250.41 21.7784 250.085 20.8973 250.147C20.5433 250.173 20.3172 250.682 20.081 250.8C19.2305 251.226 16.1359 251.054 15.5094 251.127C15.3119 251.15 13.2805 252.014 13.2236 252.27C13.0282 253.149 11.0986 262.491 13.2236 262.067C13.6685 261.978 13.2527 257.317 14.8563 256.515C15.5338 256.176 16.1457 258.256 16.1624 258.474C16.2626 259.777 16.1624 261.087 16.1624 262.393C16.1624 263.593 16.3257 267.454 16.4889 267.617ZM26.6118 272.026C28.2407 270.939 26.8323 268.651 28.8976 267.617C29.98 267.076 31.6511 267.5 32.8161 266.801C34.0842 266.04 35.4764 265.152 36.8979 264.678C37.5805 264.451 39.6216 264.395 39.8368 263.373C40.0287 262.461 40.4292 260.75 39.5102 260.597C39.3541 260.571 37.7534 261.033 35.6967 261.647C32.3097 262.658 27.6862 264.082 26.2403 264.42C28.3299 262.329 31.9457 261.766 34.6121 260.434C35.3753 260.051 38.4399 260.661 38.6939 259.454C38.8858 258.542 39.2711 256.904 38.3673 256.678C37.2121 256.389 33.0588 257.937 32.3409 258.296C31.9515 258.49 25.4114 260.299 24.8158 260.597C23.9066 261.052 22.323 260.398 21.7137 261.413C21.2132 262.247 21.5649 262.781 21.3871 264.026C21.2017 265.323 20.8613 266.648 21.0606 267.944C21.1578 268.576 22.3724 269.001 22.53 268.107C22.7732 266.729 21.8828 264.471 24.326 265.168C24.7033 265.276 25.1808 266.134 25.1808 266.134C26.4744 267.859 24.9829 270.397 26.6118 272.026ZM34.7754 267.617C30.5537 265.506 31.6237 274.084 30.6936 275.944C31.3231 276.574 30.7171 277.274 31.3466 277.904C31.5099 277.822 31.8365 277.904 31.9998 278.067C33.4943 276.572 31.3891 272.704 33.959 271.536C35.2424 270.953 40.3623 270.283 40.8164 268.597C42.4369 262.578 35.2352 266.238 34.7754 267.617Z" fill="#fcfafb" fill-rule="nonzero" opacity="1" stroke="none" layerName="Curve 3"/>
<path d="M8.17895 239.065C8.25745 238.007 10.5638 238.739 11.4444 238.739C13.5681 238.739 15.7783 238.576 17.812 238.576C18.7169 238.576 19.4576 237.922 20.4243 237.922C24.653 237.922 28.712 237.854 33.1594 237.759C33.836 237.745 34.973 237.694 35.4453 237.269C35.9064 236.855 35.7225 236.077 34.7922 235.147C33.8977 236.041 24.3096 235.384 22.5468 235.637C18.4508 236.221 14.2728 235.802 10.1382 235.963C9.51815 235.988 8.95085 236.574 8.34225 236.453C8.19135 236.423 8.02535 236.28 8.01575 236.126C7.91395 234.496 7.91395 232.858 8.01575 231.228C8.05685 230.571 10.4291 231.065 10.7913 231.065C13.1895 231.065 15.6774 231.718 17.9753 231.718C23.1866 231.718 28.3822 231.881 33.6493 231.881C33.915 231.881 34.7839 232.06 34.7922 231.555C34.8051 230.766 31.3543 229.746 27.6995 229.645C21.988 229.487 16.048 229.732 10.3015 229.595C10.0394 229.589 9.37855 229.271 9.15865 229.105C8.43115 228.56 9.09965 227.002 8.46665 226.368C8.11185 226.723 7.40709 227.626 7.3627 228.126C7.16031 230.403 7.41462 232.698 7.3627 234.983C7.35762 235.207 6.77211 234.798 6.89454 236.839C7.01698 238.88 7.68915 242.169 7.85245 243.147C8.72265 243.495 8.07845 240.422 8.17895 239.065ZM37.0779 254.902C35.6317 255.987 33.7325 255.453 32.0166 255.882C31.4408 256.026 28.5642 256.585 28.5642 257.834C26.6683 256.861 24.7822 258.915 23.1999 259.311C22.52 259.481 19.7958 258.764 18.7656 260.092C17.9921 261.089 16.8374 266.678 16.8155 267.291C16.9551 267.22 17.325 267.171 17.3523 266.793C17.4339 265.665 17.8271 263.352 17.8271 263.352C17.8271 263.352 18.2504 261.804 18.9117 261.058C19.3049 260.615 19.659 260.675 20.1533 260.887C20.3841 260.986 20.8363 261.714 20.9909 262.77C21.2971 264.86 20.1087 268.464 21.8252 268.642C21.0606 267.944 21.188 262.466 22.3835 261.27C22.8383 260.816 24.4771 261.365 25.1592 260.78C26.5827 259.56 27.9041 260.261 29.5675 259.638C31.842 258.784 36.1012 256.393 38.5559 256.84C39.0919 256.937 39.047 258.275 38.7945 259.113C38.6995 259.429 36.3304 259.772 34.3712 260.303C32.4119 260.834 32.6151 261.301 30.5472 261.597C30.4661 261.608 27.4641 263.5 26.9551 263.719C25.7147 264.25 23.3577 264.402 22.7372 265.483C22.7372 265.483 23.4869 264.85 24.326 265.168C25.2978 265.536 25.5632 267.431 25.6499 268.059C25.7905 269.08 25.674 268.975 25.7955 270.351C25.8634 271.12 26.1696 271.995 26.6118 272.026C26.0429 269.892 26.6424 265.456 27.2006 264.979C29.6278 262.904 34.309 262.678 35.9351 262.087C36.4066 261.915 37.0497 262.115 37.4045 261.76C38.0429 262.079 38.7844 260.983 39.3323 260.641C39.5584 260.499 39.9548 260.874 39.9763 260.918C40.2673 261.511 39.9814 262.845 39.527 263.393C39.0073 264.019 36.6528 264.783 36.2616 264.861C33.9743 265.319 33.1175 265.969 30.7277 266.336C30.487 266.374 29.2476 266.763 28.581 267.37C27.6745 268.195 27.559 269.422 27.5818 270.141C27.8175 270.235 27.9085 267.282 29.3383 267.759C30.9439 268.296 31.4285 271.915 30.6936 275.944C31.7539 274.884 31.0496 267.66 34.5358 269.402C38.3361 267.409 40.6655 265.76 40.7847 266.03C40.8241 266.12 41.2782 267.771 40.7314 267.657C41.0535 268.377 40.6276 268.809 40.5901 268.86C40.1014 269.529 39.2349 269.047 37.8652 268.39C39.0879 270.671 33.8659 270.803 33.071 272.102C32.9015 272.445 32.6231 273.151 32.7403 272.949C32.8315 272.792 33.305 271.793 33.6493 271.882C36.3373 272.581 36.1895 276.45 36.4206 278.067C36.5777 279.167 36.2699 281.197 37.0779 282.006C37.4616 281.814 37.8699 280.615 37.8699 280.615C37.8699 280.615 38.1704 278.848 38.2209 277.434C38.2646 276.21 39.8372 275.878 41.0535 276.297C43.3366 277.115 42.5925 275.087 43.5799 275.125C44.1127 275.145 44.1178 275.365 44.4183 275.604C44.5228 275.687 44.919 276.552 45.0346 276.343C45.2245 276 44.3309 269.402 42.669 271.361C42.5817 267.07 41.4555 267.381 40.8226 266.064C40.6251 265.69 40.8795 265.185 40.8333 264.861C40.7973 264.61 40.9766 262.7 40.67 262.087C40.5505 261.847 40.1892 261.205 39.9035 260.838C39.6178 260.47 39.2802 260.627 39.2843 260.538C39.2908 260.396 38.717 259.887 38.6939 259.454C38.8027 259.139 39.0898 258.239 38.9408 257.173C38.831 256.388 38.3287 255.441 38.1421 254.937C37.8368 254.112 37.4947 254.59 37.0779 254.902ZM12.7304 261.907C12.3758 256.681 12.356 251.672 15.5262 251.474C21.1934 251.12 26.5858 249.964 31.8219 248.655C33.8929 248.138 35.47 248.793 37.1292 247.133C36.671 246.675 37.2107 245.649 37.0107 245.19C36.6707 244.409 30.651 246.843 28.4247 247.065C27.6224 247.145 27.9348 247.637 26.6286 247.881C25.3224 248.126 24.2888 247.864 23.1999 248.045C20.6701 248.467 18.2235 249.682 15.6895 249.841C14.772 249.898 11.5449 250.179 10.954 251.047C10.8345 251.223 10.6797 251.771 10.6553 251.826C10.6047 251.938 10.8826 251.361 11.0814 251.197C11.2838 251.029 11.5628 250.92 11.9335 251.313C12.7955 252.226 10.4536 261.191 12.7304 261.907ZM18.6283 211.799C17.5595 212.334 16.5226 213.733 15.8528 214.738C16.7696 215.655 18.8721 214.9 20.0978 215.391C20.4924 215.548 20.5195 216.212 20.9141 216.371C22.1158 216.851 23.808 216.46 24.9959 216.697C26.662 217.031 28.721 217.834 30.3839 218.167C31.0052 218.291 33.0622 218.466 33.8371 218.16C33.8371 218.16 33.7156 217.384 33.7546 216.707C33.7937 216.028 29.8315 216.033 28.9144 215.881C28.158 215.755 27.8868 214.69 27.445 214.574C26.4444 214.313 25.376 214.618 24.3429 214.574C23.2939 214.531 22.8988 213.589 22.0571 213.432C21.1995 213.27 20.1707 213.752 19.4447 213.268C18.6939 212.768 19.1855 212.356 18.6283 211.799ZM12.4187 219.633C12.1785 219.905 11.9615 220.172 11.762 220.433C10.8528 221.624 10.3093 222.702 9.60805 223.657C11.001 224.521 13.9184 223.442 15.7095 223.81C16.2862 223.928 16.3891 224.636 16.9658 224.754C18.7218 225.115 21.0907 224.477 22.8035 224.579C25.2057 224.721 28.2124 225.318 30.61 225.459C31.7111 225.525 33.2234 225.636 33.7979 224.821C33.9802 224.563 33.8544 224.194 33.8677 223.723C33.9092 222.251 30.3275 223.633 28.2979 223.199C26.2684 222.765 27.7384 222.191 26.081 221.989C24.4236 221.785 23.1422 222.3 21.6684 222.387C20.1721 222.476 19.5187 221.518 18.3062 221.458C17.0708 221.395 16.0464 222.075 14.5745 221.619C13.1026 221.162 13.3071 218.627 12.4187 219.633ZM35.8084 250.341C34.1262 251.426 31.9174 250.892 29.9215 251.321C29.2518 251.465 29.7636 252.07 29.1619 252.301C28.374 252.602 27.1747 252.204 26.3135 252.627C24.6015 253.468 21.5073 254.354 19.6669 254.75C18.8762 254.919 14.747 255.765 14.465 256.794C14.465 256.794 15.2671 256.132 15.6053 257.286C16.226 259.403 16.1099 266.281 16.4889 267.617C17.8902 266.413 17.3269 257.904 18.7175 256.708C19.2463 256.254 21.1525 256.803 21.9458 256.218C23.6016 254.998 25.1383 255.699 27.0731 255.076C29.7184 254.223 34.075 252.111 36.9478 252.464C37.412 252.521 37.9545 252.404 37.9906 251.761L37.9062 249.85C37.9062 249.85 36.3229 250.01 35.8084 250.341ZM7.55845 244.61C7.54565 244.714 7.70585 244.33 7.86395 244.204C8.02205 244.078 8.19065 244.106 8.19065 244.106C8.19065 244.106 8.53465 244.102 8.83965 244.949C9.13405 245.767 9.21965 246.642 9.32195 247.392C9.47705 248.53 8.80145 252.162 9.79495 252.596C9.81355 252.491 9.64465 252.375 9.59855 251.899C9.53395 251.233 9.18535 245.704 10.6431 245.367C14.6956 244.429 16.3806 246.029 22.5105 244.429C26.7237 243.33 26.085 243.706 27.6083 243.637C29.2998 243.56 30.8995 242.657 32.5064 242.657C33.3722 242.657 36.6812 243.37 36.7351 242.049C36.7573 241.506 36.8766 240.96 36.6285 240.755C35.7823 240.056 32.9613 241.164 31.8372 241.164C27.7253 241.164 24.4442 242.168 20.4243 242.168C19.3745 242.168 18.5987 242.164 17.0476 242.409C15.4965 242.654 14.3949 243.003 13.5311 243.147C12.6825 243.289 9.68495 243.011 8.29185 243.661C7.95135 243.82 7.58955 244.355 7.55845 244.61ZM20.8973 209.819C22.099 210.299 23.8393 209.208 25.0273 209.446C26.6934 209.779 28.7524 210.583 30.4153 210.916C31.0366 211.04 32.9749 211.191 33.7498 210.886C33.7498 210.886 33.7469 210.344 33.786 209.666C33.8251 208.987 29.8629 208.782 28.9458 208.63C28.1894 208.503 27.9182 207.439 27.4764 207.323C26.4758 207.062 25.8034 206.005 24.3976 207.063C22.792 208.271 20.8973 209.819 20.8973 209.819Z" fill="#e8e8e8" fill-rule="nonzero" opacity="1" stroke="none" layerName="Curve 1"/>
</g>
</g>
<path d="M60.2435 100.813L161.761 100.985L161.761 94.9352L60.2435 94.7572L60.2435 100.813Z" fill="#67534b" fill-rule="nonzero" filter="url(#Filter_5)" stroke="none" layerName="path" shadowAngle="1.5708" shadowColor="#000000" shadowOffset="1.76879" shadowOpacity="0.6" shadowRadius="2.53757"/>
<path d="M59.0129 109.419C59.4734 108.918 61.4523 104.904 61.4659 103.08C61.4861 100.371 61.2097 97.68 61.8616 97.676C95.1423 97.4365 127.231 97.5431 160.363 97.8481C160.811 97.852 160.447 98.8544 160.391 100.18C160.29 102.577 162.205 106.704 162.841 107.395C163.141 107.069 161.449 103.165 161.535 101.941C161.573 101.402 162.148 100.493 162.157 99.9764C162.169 99.2274 161.88 98.5444 161.828 97.9567C161.759 97.2058 161.927 96.598 162.001 96.0689C162.073 95.5436 162.939 94.9013 162.983 94.2895C163.043 93.4428 163.273 91.8038 162.492 91.7985C127.835 91.5624 93.1781 91.5614 58.5213 91.6205C57.7601 91.6218 57.9907 93.58 58.3576 94.1116C59.1193 95.2153 58.2577 96.6872 58.685 97.8481C58.8415 98.2734 59.5911 99.1594 59.6674 99.4494C60.1515 101.29 57.6743 107.964 59.0129 109.419Z" fill="#7d6960" fill-rule="nonzero" filter="url(#Filter_6)" stroke="none" layerName="path 1" shadowAngle="1.5708" shadowColor="#000000" shadowOffset="1.76879" shadowOpacity="0.6" shadowRadius="2.53757"/>
<path d="M34.2879 117.818C31.369 179.195 26.6003 244.935 53.4754 302.256C58.4103 312.782 64.0071 324.916 74.3817 330.162C85.295 335.679 94.6898 308.829 107.476 305.193C125.137 300.17 135.676 335.433 149.069 326.693C167.046 314.962 175.557 283.435 180.319 264.537C192.641 215.645 186.958 118.573 186.913 117.818L179.226 117.818C176.469 135.366 169.147 190.438 149.632 195.318C142.741 177.482 128.981 174.341 111.194 174.537C111.298 179.967 111 183.419 115.507 187.006C119.55 190.224 140.472 191.003 134.257 203.193C133.847 203.997 91.2699 210.64 85.8191 201.162C83.9693 197.945 90.0069 190.903 92.2567 190.224C103.316 186.888 108.687 192.21 107.663 174.287C84.5193 175.399 84.7934 175.498 71.0691 193.224C69.6144 195.102 66.251 192.253 64.3817 190.787C48.3201 178.184 42.8605 137.197 41.9441 117.818L34.2879 117.818Z" fill="#424141" fill-rule="nonzero" filter="url(#Filter_7)" stroke="none" layerName="Beard" shadowAngle="1.5708" shadowColor="#000000" shadowOffset="0.768786" shadowOpacity="0.6" shadowRadius="2.53757"/>
<path d="M195.171 43.4175C190.865 42.8495 189.804 36.4126 187.466 32.7518C181.009 22.6417 174.995 16.6565 164.772 11.1369C132.6-6.23309 44.9772-6.90502 30.0347 37.1107C29.7149 38.0529 27.9567 43.3504 24.9366 43.1326L111.891 42.9184L195.171 43.4175Z" fill="#272223" fill-rule="nonzero" filter="url(#Filter_8)" stroke="none" layerName="hat" shadowAngle="-1.5708" shadowColor="#000000" shadowOffset="0.768786" shadowOpacity="0.6" shadowRadius="2.53757"/>
<g opacity="1" layerName="Group 7">
<path d="M186.894 117.864C209.867 115.373 204.31 103.598 199.574 86.0577C202.785 84.2618 206.317 82.8982 209.229 80.6497C221.187 71.4166 214.626 47.6804 200.552 44.413C196.448 43.4603 192.207 42.9222 187.994 42.9184C160.101 42.8931 29.039 42.9184 29.039 42.9184C11.5165 43.162 7.81585 54.3732 6.68863 59.1094C3.36047 73.0918 11.2441 80.4265 22.1181 86.0577C20.4312 92.948 17.4668 105.328 20.5318 111.112C24.2489 118.127 34.3396 117.894 34.3396 117.894L42.5057 117.916C42.5057 117.916 54.3174 115.955 59.0129 109.419C63.7085 102.883 61.288 91.7712 61.288 91.7712L66.0699 91.5543L153.595 92.0311L160.893 91.924C160.893 91.924 158.361 100.896 162.841 107.395C168.913 116.204 179.165 117.672 179.165 117.672C179.165 117.672 186.898 117.934 186.894 117.864Z" fill="url(#LinearGradient)" fill-rule="nonzero" filter="url(#Filter_9)" stroke="none" layerName="hatBrim" shadowAngle="1.5708" shadowColor="#000000" shadowOffset="0.768786" shadowOpacity="0.6" shadowRadius="2.53757"/>
<path d="M186.894 117.864C209.867 115.373 204.31 103.598 199.574 86.0577C202.785 84.2618 206.317 82.8982 209.229 80.6497C221.187 71.4166 214.626 47.6804 200.552 44.413C196.448 43.4603 192.207 42.9222 187.994 42.9184C160.101 42.8931 29.039 42.9184 29.039 42.9184C11.5165 43.162 7.81585 54.3732 6.68863 59.1094C3.36047 73.0918 11.2441 80.4265 22.1181 86.0577C20.4312 92.948 17.4668 105.328 20.5318 111.112C24.2489 118.127 34.3396 117.894 34.3396 117.894L42.5057 117.916C42.5057 117.916 54.3174 115.955 59.0129 109.419C63.7085 102.883 61.288 91.7712 61.288 91.7712L66.0699 91.5543L153.595 92.0311L160.893 91.924C160.893 91.924 158.361 100.896 162.841 107.395C168.913 116.204 179.165 117.672 179.165 117.672C179.165 117.672 186.898 117.934 186.894 117.864Z" fill="url(#LinearGradient_2)" fill-rule="nonzero" filter="url(#Filter_10)" stroke="none" layerName="hatBrim" shadowAngle="-1.5708" shadowColor="#000000" shadowOffset="0.768786" shadowOpacity="0.6" shadowRadius="2.53757"/>
</g>
<g opacity="1" layerName="Group 8">
<path d="M131.014 124.497L140.856 124.493C172.404 124.497 153.949 149.348 136.935 149.42C119.921 149.491 103.012 124.5 131.014 124.497Z" fill="#fcfafb" fill-rule="nonzero" filter="url(#Filter_11)" stroke="none" blur="0.5" layerName="Schlera 2" shadowAngle="1.5708" shadowColor="#000000" shadowOffset="0.5" shadowOpacity="0.6" shadowRadius="2.53757"/>
<path d="M125.22 133.05C125.22 129.22 127.274 126.743 130.4 124.738L144.03 124.738C146.955 126.765 148.87 129.368 148.87 133.05C148.87 139.2 143.577 144.186 137.046 144.186C130.515 144.186 125.22 139.2 125.22 133.05Z" fill="#99bbd4" fill-rule="nonzero" filter="url(#Filter_12)" stroke="none" blur="0.5" layerName="Top" shadowAngle="1.5708" shadowColor="#000000" shadowOffset="0.5" shadowOpacity="0.6" shadowRadius="2.53757"/>
<path d="M131.561 124.741C123.29 129.891 126.182 143.605 137.156 143.326C148.13 143.047 151.654 129.794 141.403 124.738C172.95 124.741 154.17 149.591 137.156 149.663C120.142 149.735 103.56 124.745 131.561 124.741Z" fill="#fcfafb" fill-rule="nonzero" filter="url(#Filter_13)" stroke="none" blur="0.5" layerName="Schlera" shadowAngle="1.5708" shadowColor="#000000" shadowOffset="0.5" shadowOpacity="0.6" shadowRadius="2.53757"/>
<path d="M131.561 124.738C123.29 129.888 126.182 143.605 137.156 143.326C148.13 143.047 151.654 129.794 141.403 124.738C173.303 124.493 154.17 149.591 137.156 149.663C120.142 149.735 104.931 124.738 131.561 124.738Z" fill="#fcfafb" fill-rule="nonzero" opacity="1" stroke="none" layerName="Schlera 3"/>
<path d="M131.561 124.738C123.29 129.888 126.182 143.605 137.156 143.326C148.13 143.047 151.654 129.794 141.403 124.738C173.303 124.493 154.17 149.591 137.156 149.663C120.142 149.735 102.192 124.738 131.561 124.738Z" fill="#fcfafb" fill-rule="nonzero" opacity="1" stroke="none" layerName="Schlera 5"/>
<path d="M148.87 133.139C148.87 129.278 146.813 126.76 143.687 124.738L130.043 124.738C127.118 126.782 125.22 129.427 125.22 133.139C125.22 139.34 130.514 144.368 137.045 144.368C143.576 144.368 148.87 139.34 148.87 133.139Z" fill="#99bbd4" fill-rule="nonzero" filter="url(#Filter_14)" opacity="1" stroke="none" blur="0.5" layerName="Oval 3"/>
<path d="M125.72 133.05C125.72 129.22 127.687 126.743 130.681 124.738L143.735 124.738C146.536 126.765 148.371 129.368 148.371 133.05C148.371 139.2 143.301 144.186 137.046 144.186C130.791 144.186 125.72 139.2 125.72 133.05Z" fill="#99bbd4" fill-rule="nonzero" opacity="1" stroke="none" layerName="Top"/>
<path d="M130.733 133.655C130.733 130.16 133.559 127.326 137.045 127.326C140.531 127.326 143.357 130.16 143.357 133.655C143.357 137.149 140.531 139.983 137.045 139.983C133.559 139.983 130.733 137.149 130.733 133.655Z" fill="#000000" fill-rule="nonzero" filter="url(#Filter_15)" stroke="none" layerName="pupil" shadowAngle="1.5708" shadowColor="#000000" shadowOffset="0.768786" shadowOpacity="0.6" shadowRadius="2.53757"/>
<path d="M134.318 128.439C134.318 126.68 135.54 125.253 137.046 125.253C138.552 125.253 139.773 126.68 139.773 128.439C139.773 130.2 138.552 131.627 137.046 131.627C135.54 131.627 134.318 130.2 134.318 128.439Z" fill="#ffffff" fill-rule="nonzero" filter="url(#Filter_16)" stroke="none" layerName="Oval 4" shadowAngle="1.5708" shadowColor="#000000" shadowOffset="0.768786" shadowOpacity="0.6" shadowRadius="2.53757"/>
<path d="M158.485 134.353C160.417 128.925 151.336 120.096 137.073 120.55C122.809 121.004 114.6 127.537 116.061 134.49C125.686 124.519 148.371 121.493 158.485 134.353Z" fill="#b18371" fill-rule="nonzero" filter="url(#Filter_17)" stroke="none" layerName="Schlera 4" shadowAngle="1.5708" shadowColor="#000000" shadowOffset="0.496816" shadowOpacity="0.6" shadowRadius="2.52141"/>
</g>
<g opacity="1" layerName="Group 9">
<path d="M90.6236 124.496L80.7819 124.493C49.2339 124.496 67.6887 149.351 84.7026 149.423C101.717 149.494 118.625 124.499 90.6236 124.496Z" fill="#fcfafb" fill-rule="nonzero" filter="url(#Filter_18)" stroke="none" blur="0.5" layerName="Schlera 2" shadowAngle="1.5708" shadowColor="#000000" shadowOffset="0.5" shadowOpacity="0.6" shadowRadius="2.53757"/>
<path d="M96.417 133.05C96.417 129.22 94.363 126.743 91.2373 124.738L77.6073 124.738C74.6828 126.765 72.767 129.368 72.767 133.05C72.767 139.201 78.0606 144.188 84.5915 144.188C91.1222 144.188 96.417 139.201 96.417 133.05Z" fill="#99bbd4" fill-rule="nonzero" filter="url(#Filter_19)" stroke="none" blur="0.5" layerName="Top" shadowAngle="1.5708" shadowColor="#000000" shadowOffset="0.5" shadowOpacity="0.6" shadowRadius="2.53757"/>
<path d="M90.0763 124.741C98.3473 129.891 95.4557 143.607 84.4814 143.328C73.5072 143.049 69.9838 129.794 80.2348 124.738C48.6872 124.741 67.4678 149.594 84.4814 149.666C101.495 149.738 118.077 124.744 90.0763 124.741Z" fill="#fcfafb" fill-rule="nonzero" filter="url(#Filter_20)" stroke="none" blur="0.5" layerName="Schlera" shadowAngle="1.5708" shadowColor="#000000" shadowOffset="0.5" shadowOpacity="0.6" shadowRadius="2.53757"/>
<path d="M90.0763 124.738C98.3473 129.888 95.4557 143.607 84.4814 143.328C73.5072 143.049 69.9838 129.794 80.2348 124.738C48.3346 124.493 67.4678 149.594 84.4814 149.666C101.495 149.738 116.707 124.738 90.0763 124.738Z" fill="#fcfafb" fill-rule="nonzero" opacity="1" stroke="none" layerName="Schlera 3"/>
<path d="M90.0763 124.738C98.3473 129.888 95.4557 143.607 84.4814 143.328C73.5072 143.049 69.9838 129.794 80.2348 124.738C48.3346 124.493 67.4678 149.594 84.4814 149.666C101.495 149.738 119.446 124.738 90.0763 124.738Z" fill="#fcfafb" fill-rule="nonzero" opacity="1" stroke="none" layerName="Schlera 5"/>
<path d="M72.767 133.14C72.767 129.278 74.8246 126.76 77.9502 124.738L91.5949 124.738C94.5194 126.782 96.417 129.427 96.417 133.14C96.417 139.342 91.1233 144.371 84.5925 144.371C78.0618 144.371 72.767 139.342 72.767 133.14Z" fill="#99bbd4" fill-rule="nonzero" filter="url(#Filter_21)" opacity="1" stroke="none" blur="0.5" layerName="Oval 3"/>
<path d="M95.9176 133.05C95.9176 129.22 93.9504 126.743 90.9567 124.738L77.9023 124.738C75.1013 126.765 73.2664 129.368 73.2664 133.05C73.2664 139.201 78.3365 144.188 84.5915 144.188C90.8464 144.188 95.9176 139.201 95.9176 133.05Z" fill="#99bbd4" fill-rule="nonzero" opacity="1" stroke="none" layerName="Top"/>
<path d="M90.904 133.655C90.904 130.16 88.078 127.326 84.592 127.326C81.106 127.326 78.28 130.16 78.28 133.655C78.28 137.15 81.106 139.984 84.592 139.984C88.078 139.984 90.904 137.15 90.904 133.655Z" fill="#000000" fill-rule="nonzero" filter="url(#Filter_22)" stroke="none" layerName="pupil" shadowAngle="1.5708" shadowColor="#000000" shadowOffset="0.768786" shadowOpacity="0.6" shadowRadius="2.53757"/>
<path d="M87.3195 128.439C87.3195 126.679 86.0975 125.252 84.5915 125.252C83.0855 125.252 81.8645 126.679 81.8645 128.439C81.8645 130.2 83.0855 131.627 84.5915 131.627C86.0975 131.627 87.3195 130.2 87.3195 128.439Z" fill="#ffffff" fill-rule="nonzero" filter="url(#Filter_23)" stroke="none" layerName="Oval 4" shadowAngle="1.5708" shadowColor="#000000" shadowOffset="0.768786" shadowOpacity="0.6" shadowRadius="2.53757"/>
<path d="M63.1522 134.354C61.2204 128.925 70.3013 120.094 84.5647 120.548C98.8281 121.003 107.003 127.511 105.542 134.465C95.9176 124.493 73.2664 121.491 63.1522 134.354Z" fill="#b18371" fill-rule="nonzero" filter="url(#Filter_24)" stroke="none" layerName="Schlera 4" shadowAngle="1.5708" shadowColor="#000000" shadowOffset="0.496816" shadowOpacity="0.6" shadowRadius="2.52141"/>
</g>
</g>
</g>
</svg>
