<svg height="100%" stroke-miterlimit="10" style="fill-rule:nonzero;clip-rule:evenodd;stroke-linecap:round;stroke-linejoin:round;" version="1.1" viewBox="36.5379 2.55689 226.924 336.886" width="100%" xml:space="preserve" xmlns="http://www.w3.org/2000/svg" xmlns:vectornator="http://vectornator.io" xmlns:xlink="http://www.w3.org/1999/xlink">
<defs>
<filter color-interpolation-filters="sRGB" filterUnits="userSpaceOnUse" height="26.529" id="Filter" width="42.6132" x="102.277" y="127.848">
<feGaussianBlur in="SourceGraphic" result="Blur" stdDeviation="0.275"/>
</filter>
<filter color-interpolation-filters="sRGB" filterUnits="userSpaceOnUse" height="26.529" id="Filter_2" width="42.6132" x="152.466" y="127.929">
<feGaussianBlur in="SourceGraphic" result="Blur" stdDeviation="0.275"/>
</filter>
</defs>
<g id="Layer-2" layerName="Layer 2">
<g opacity="1" layerName="Group 8">
<g opacity="1" layerName="Group 6">
<path d="M263.462 293.675C251.085 308.321 206.243 343.392 184.689 336.72C198.219 327.192 201.136 315.436 209.77 303.183C213.174 298.352 218.437 298.764 227.424 293.029C236.41 287.293 240.397 284.315 245.717 280.243C247.545 278.844 260.413 291.603 263.462 293.675Z" fill="#272223" fill-rule="nonzero" opacity="1" stroke="none" layerName="Curve 1"/>
<path d="M36.5379 291.935C51.7556 308.625 88.7433 337.32 112.686 338.525C101.62 326.566 97.0362 315.18 88.3495 302.852C84.9454 298.021 80.0612 297.46 69.6839 289.989C60.7416 283.55 53.7478 276.79 52.0196 277.896C46.99 281.112 41.9838 289.954 36.5379 291.935Z" fill="#272223" fill-rule="nonzero" opacity="1" stroke="none"/>
</g>
<g opacity="1" layerName="Group 1">
<path d="M254.797 250.52C254.415 250.903 252.994 253.023 252.96 253.526C252.852 255.085 253.731 257.097 252.626 258.202C250.464 256.581 250.855 259.472 249.954 260.373C249.703 260.123 249.703 260.123 249.453 259.872C248.923 260.402 248.788 261.66 248.117 262.043C247.811 262.218 247.364 262.128 247.115 262.377C247.282 262.544 247.282 262.544 247.449 262.711C246.536 264.537 246.975 266.498 246.113 268.222C245.191 270.065 247.296 272.382 245.779 273.899C245.055 273.175 246.015 266.081 242.94 267.721C242.242 268.093 241.854 268.973 241.103 269.224C241.103 270.287 241.521 271.644 240.769 272.396C240.519 272.146 240.519 272.146 240.268 271.895C240.101 271.979 240.101 271.979 239.934 272.062C236.667 268.795 236.12 278.382 235.76 278.742C234.948 277.931 235.963 276.708 235.259 275.903C231.494 271.601 231.461 279.577 230.082 279.577C228.534 279.577 228.044 277.031 225.74 279.911C225.573 279.744 225.573 279.744 225.406 279.577C223.745 281.238 226.399 284.262 224.738 285.923C224.072 285.256 223.949 283.208 223.736 282.249C223.477 281.081 220.594 281.363 220.062 282.249C218.815 284.328 220.288 289.204 218.893 290.599C218.102 289.807 218.76 288.36 218.559 287.259C218.503 286.949 217.923 286.904 217.891 286.591C217.692 284.597 217.997 282.58 217.891 280.579C217.88 280.362 217.374 280.153 217.223 280.078C216.151 281.151 217.628 282.846 216.555 283.919C216.389 283.835 216.389 283.835 216.222 283.752C215.104 284.869 216.386 286.595 215.721 287.927C215.385 288.597 214.184 289.362 214.051 290.098C213.694 292.057 214.827 293.123 212.882 293.771C212.882 296.025 212.047 298.237 211.212 300.117C210.859 300.911 209.906 301.391 210.21 302.455C210.395 303.104 214.896 301.588 215.22 300.618C217.567 300.618 218.768 299.718 220.73 299.282C221.231 299.171 221.683 297.999 222.233 297.779C223.681 297.2 225.478 296.999 226.742 296.276C227.46 295.866 227.783 294.834 228.579 294.606C231.541 293.76 233.576 290.881 236.428 289.931C238.334 289.295 240.054 287.252 241.604 285.923C243.535 284.268 245.371 282.157 247.115 280.412C247.785 279.743 248.971 279.205 249.453 278.241C249.899 277.349 250.629 275.66 251.29 274.734C252.468 273.085 253.467 272.204 253.962 270.226C254.203 269.262 255.153 268.109 255.298 267.387C256.02 263.776 255.939 258.986 255.799 255.196C255.738 253.572 256.474 251.359 254.797 250.52Z" fill="#c0bebf" fill-rule="nonzero" opacity="1" stroke="none"/>
<path d="M69.4354 193.242C68.2912 194.386 69.1014 196.467 69.1014 198.085C69.1014 199.88 69.9194 205.262 69.1014 207.103C68.8496 207.669 67.2973 208.072 66.7635 208.605C64.2399 211.129 60.535 212.83 57.9129 215.452C56.8692 216.496 55.015 217.112 55.575 218.792C55.8139 219.509 64.2053 220.576 64.7596 221.13C64.6761 221.297 64.6761 221.297 64.5926 221.464C65.9534 222.825 69.1813 221.152 70.2703 222.967C70.7427 223.754 68.4842 223.876 67.5985 223.635C66.0159 223.203 63.5528 222.864 62.0877 222.132C61.3409 221.758 60.3964 222.32 59.5828 222.132C57.2157 221.586 56.0644 219.933 53.0701 220.462C51.0793 220.813 49.9294 224.605 48.7283 225.806C48.2369 225.56 48.5124 225.599 47.8934 225.806C47.8934 226.484 46.7115 230.828 46.2235 231.316C45.8895 231.066 45.8895 231.066 45.5555 230.815C45.0216 231.349 44.846 234.965 45.7225 235.491C45.8437 235.564 46.7337 235.821 46.8914 235.825C51.4549 235.934 56.0213 235.885 60.5848 235.992C63.0212 236.049 69.0931 235.483 70.7713 237.161C70.66 237.328 70.6377 237.651 70.4373 237.662C67.6588 237.822 64.8709 237.662 62.0877 237.662C59.5868 237.662 56.9888 237.495 54.5731 237.495C54.0248 237.495 53.6053 236.946 53.0701 236.827C51.4267 236.462 46.6085 236.23 44.8875 236.66C44.6584 236.717 44.4062 236.926 44.3866 237.161C44.234 238.992 44.2818 240.838 44.3866 242.672C44.3955 242.829 44.5647 242.984 44.7205 243.006C45.5635 243.126 46.3746 242.539 47.2254 242.505C51.23 242.345 55.2425 242.613 59.2489 242.505C63.1859 242.398 66.8437 242.198 71.1053 242.004C71.2811 241.996 71.4488 241.916 71.6063 241.837C72.7781 241.251 72.6982 239.281 72.4412 237.996C72.364 237.61 71.7692 237.519 71.6063 237.161C70.9509 235.719 71.1053 233.146 71.1053 231.65C71.1053 229.702 71.122 227.754 71.1053 225.806C71.0663 221.241 71.1012 216.674 70.9383 212.112C70.9327 211.955 70.7157 211.89 70.6043 211.778C70.4373 211.945 70.4373 211.945 70.2703 212.112C65.6424 207.484 74.1132 197.92 69.4354 193.242Z" fill="#fcfafb" fill-rule="nonzero" opacity="1" stroke="none"/>
<path d="M254.463 233.153C253.724 233.893 254.69 234.96 253.628 235.491C251.935 236.338 249.834 235.309 247.95 235.491C243.793 235.893 239.602 235.825 235.426 235.825C234.071 235.825 227.748 236.04 227.41 236.827C227.347 236.974 227.297 237.817 227.744 237.829C231.806 237.937 235.871 237.883 239.934 237.829C244.38 237.771 248.392 236.994 252.96 236.994C253.029 236.994 254.939 236.933 254.964 237.328C255.068 238.995 255.068 240.671 254.964 242.338C254.954 242.495 254.786 242.654 254.63 242.672C250.989 243.076 244.964 242.86 241.771 242.505C241.458 242.47 241.413 241.896 241.103 241.837C240.784 241.776 236.853 241.412 236.261 242.004C233.593 240.67 229.746 242.282 226.909 241.336C226.909 240.162 227.405 238.659 226.575 237.829C225.417 238.987 226 242.078 225.74 243.507C225.684 243.817 225.137 243.867 225.072 244.175C225.012 244.458 224.613 247.912 224.571 248.517C224.468 250.016 224.675 251.526 224.571 253.025C224.55 253.338 223.898 253.472 223.736 253.526C223.736 254.25 223.765 254.974 223.736 255.697C223.709 256.367 223.658 257.037 223.569 257.701C223.294 259.764 226.42 258.382 227.41 259.371C227.243 259.622 227.243 259.622 227.076 259.872C227.716 260.512 233.604 260.711 234.925 261.041C236.425 261.416 237.177 261.537 239.099 261.876C239.528 261.952 239.537 262.701 239.934 262.878C241.452 263.552 243.816 263.269 245.445 263.88C246.416 264.244 245.793 267.568 246.447 268.222C247.317 267.352 246.67 265.772 246.781 264.548C246.85 263.789 248.15 262.422 248.618 261.876C247.187 260.445 244.833 262.31 243.274 261.375C242.109 260.676 240.69 260.799 239.266 260.54C237.266 260.176 235.216 259.472 233.422 258.703C232.444 258.284 230.964 258.836 229.915 258.369C229.389 258.136 229.592 257.786 229.08 257.701C228.01 257.523 226.752 257.873 225.74 257.367C224.676 256.835 223.637 254.181 225.239 253.86C226.377 253.633 233.115 255.224 233.422 255.53C233.949 255.267 244.112 257.77 245.779 257.868C245.872 257.874 249.333 257.652 249.62 258.703C250.13 260.572 248.878 263.639 250.288 265.049C251.707 263.63 250.46 261.038 250.622 259.037C250.689 258.208 251.914 258.05 252.459 257.868C251.393 256.269 248.242 257.407 247.616 255.53C246.288 255.53 243.225 255.982 242.272 255.029C242.439 254.862 242.439 254.862 242.606 254.695C241.658 253.747 239.929 254.521 238.598 254.361C235.089 253.94 231.086 252.738 227.243 252.524C226.912 252.506 226.732 252.589 226.408 252.357C225.272 251.546 225.535 250.996 225.74 249.352C225.813 248.767 232.538 248.802 233.589 249.853C235.225 249.034 240.255 250.238 242.105 250.854C245.331 251.93 249.239 250.569 252.459 251.856C253.23 252.165 252.556 253.123 253.127 253.693C254.065 252.755 254.168 252.367 254.463 251.188C254.741 250.076 255.923 252.237 256.133 250.186C256.424 247.331 256.244 241.39 255.632 238.33C255.319 236.764 255.733 234.423 254.463 233.153Z" fill="#e8e8e8" fill-rule="nonzero" opacity="1" stroke="none"/>
<path d="M227.076 231.316C225.814 232.578 226.79 234.876 226.742 236.66C226.728 237.164 226.575 237.659 226.575 238.163C226.575 239.332 226.474 240.505 226.575 241.67C226.63 242.299 228.622 241.837 228.913 241.837C231.368 241.837 234.065 241.24 236.261 242.338C236.958 241.64 240.811 242.104 241.103 242.171C241.41 242.241 241.458 242.81 241.771 242.839C245.167 243.148 251.058 243.362 254.797 243.006C255.032 242.983 255.278 242.74 255.298 242.505C255.45 240.73 255.45 238.936 255.298 237.161C255.231 236.385 249.57 236.783 248.785 236.827C247.732 236.886 246.827 237.495 245.779 237.495C240.07 237.495 234.148 237.577 228.078 237.495C227.921 237.493 227.855 237.272 227.744 237.161C227.911 236.911 227.911 236.911 228.078 236.66C229.595 237.419 233.286 236.159 235.092 236.159C241.315 236.159 247.588 235.825 253.628 235.825C256.15 235.825 252.709 228.553 252.292 228.478C250.626 228.175 249.117 229.265 247.616 229.479C243.142 230.119 238.976 230.262 234.758 231.316C232.945 231.77 228.564 232.433 227.076 231.316Z" fill="#fcfafb" fill-rule="nonzero" opacity="1" stroke="none"/>
<path d="M229.748 207.27C227.614 209.404 230.715 216.823 228.913 218.625C228.579 218.374 228.579 218.374 228.245 218.124C228.134 218.235 227.918 218.301 227.911 218.458C227.805 220.849 227.911 223.245 227.911 225.639C227.911 226.156 227.135 231.316 229.414 231.316C229.927 231.316 230.082 230.428 230.583 230.314C231.681 230.065 232.957 230.393 233.923 229.813C235.056 229.134 235.851 230.223 236.929 229.145C237.652 229.507 238.678 229.054 239.433 228.978C241.412 228.781 249.527 227.262 250.622 227.81C252.195 226.237 247.472 219.956 245.779 220.295C243.635 220.724 241.49 221.59 239.6 222.299C238.201 222.824 236.247 222.502 234.758 222.8C233.01 223.149 230.389 224.739 228.579 224.136C228.579 222.809 228.303 223.242 228.913 222.633C229.984 223.704 239.682 219.821 240.602 219.627C240.859 219.573 243.888 220.124 244.276 218.959C245.128 216.403 239.769 214.622 239.099 212.613C237.722 212.613 233.636 209.749 233.255 208.605C232.554 208.605 230.166 207.687 229.748 207.27Z" fill="#fcfafb" fill-rule="nonzero" opacity="1" stroke="none"/>
<path d="M54.0721 249.352C54.9632 248.46 60.1125 248.886 60.9188 248.851C64.4629 248.696 69.8594 246.543 73.2762 247.682C73.2762 249.264 69.3363 248.667 67.9325 249.018C63.3235 250.17 58.1205 250.335 53.5711 251.188C51.5587 251.566 48.8432 250.822 46.8914 251.689C46.7892 251.735 45.4754 258.122 46.5575 259.204C47.4468 258.759 47.7343 257.232 48.7283 257.033C50.1816 256.743 52.0434 257.38 53.4041 256.699C54.9472 255.928 57.0541 256.461 58.5809 255.697C60.1851 254.895 60.8796 255.089 62.9227 254.862C64.6705 254.668 67.3863 253.875 68.9344 253.359C70.4425 252.857 72.3107 253.27 73.7772 253.025C74.9901 252.823 74.1427 250.581 74.1112 249.352C74.0771 248.022 73.8344 244.566 72.7752 243.507C72.2976 243.746 71.0244 243.499 70.6043 243.507C68.0993 243.553 65.5929 243.567 63.0897 243.674C59.1316 243.842 55.266 244.509 51.2332 244.509C49.2776 244.509 46.7746 244.487 44.8875 244.676C44.7309 244.691 44.5644 244.853 44.5535 245.01C44.4501 246.509 44.3612 248.028 44.5535 249.519C44.5938 249.831 44.9399 250.046 45.2215 250.186C46.8783 251.015 52.3669 248.499 54.0721 249.352Z" fill="#fcfafb" fill-rule="nonzero" opacity="1" stroke="none"/>
<path d="M223.402 257.534C222.33 258.606 222.567 260.902 222.567 262.377C222.567 263.379 222.371 264.4 222.567 265.383C222.735 266.222 225.943 266.815 226.575 266.886C227.522 266.991 227.982 267.916 228.746 268.222C229.481 268.516 230.973 268.322 231.752 268.556C232.748 268.854 233.473 269.803 234.424 270.226C235.157 270.552 235.602 270.068 236.261 270.727C233.819 273.168 224.9 266.22 221.398 267.387C221.398 268.055 221.267 268.736 221.398 269.391C221.542 270.112 229.202 272.697 230.583 273.732C231.527 274.44 232.916 273.72 233.422 275.235C236.673 275.235 233.91 279.95 236.094 279.076C237.093 278.676 235.968 270.945 239.6 272.062C240.677 272.394 240.002 273.299 240.602 273.899C242.78 272.81 241.599 270.908 242.272 269.057C242.857 267.449 244.707 267.965 244.944 269.391C245.175 270.778 244.513 273.969 245.445 274.901C247.02 273.326 246.744 271.443 246.614 268.723C246.547 267.322 246.544 265.507 246.113 264.214C245.857 263.445 235.412 260.829 234.925 260.707C233.158 260.265 228.783 260.986 228.078 258.87C226.05 258.87 224.66 258.792 223.402 257.534Z" fill="#fcfafb" fill-rule="nonzero" opacity="1" stroke="none"/>
<path d="M53.0701 274.233C53.2371 274.4 53.2371 274.4 53.4041 274.567C53.5711 274.4 53.5711 274.4 53.7381 274.233C53.9886 274.484 53.9886 274.484 54.2391 274.734C55.1106 273.863 54.1519 267.756 55.909 267.053C56.7171 266.729 57.9218 267.299 58.7479 266.886C62.1736 265.173 66.6304 265.239 69.9364 262.878C70.2525 262.652 75.0296 262.252 75.1131 261.542C75.3833 259.245 75.4956 256.058 74.9461 253.86C74.7985 253.27 72.6921 253.985 72.2742 254.194C69.4599 255.601 65.0263 254.629 62.4217 256.365C61.5177 256.968 58.8141 256.635 57.9129 256.699C57.5508 256.725 57.3196 257.246 57.078 257.367C56.2081 257.802 53.043 257.626 52.4022 257.701C52.2002 257.725 50.1225 258.608 50.0643 258.87C49.8645 259.769 47.8909 269.324 50.0643 268.89C50.5194 268.799 50.0941 264.032 51.7342 263.212C52.4272 262.865 53.053 264.993 53.0701 265.216C53.1726 266.548 53.0701 267.888 53.0701 269.224C53.0701 270.451 53.5708 273.232 53.0701 274.233Z" fill="#fcfafb" fill-rule="nonzero" opacity="1" stroke="none"/>
<path d="M71.6063 227.476C69.9847 229.097 72.3212 235.444 70.9383 236.827C69.3854 235.274 67.0109 235.992 65.0936 235.992C59.2497 235.992 52.9359 235.798 47.0584 235.658C46.7904 235.652 46.1144 235.326 45.8895 235.157C45.1454 234.599 45.8689 233.801 45.2215 233.153C44.8586 233.516 44.098 233.644 44.0526 234.155C43.8456 236.484 44.1057 238.832 44.0526 241.169C44.0474 241.398 43.8856 241.607 43.8856 241.837C43.8856 244.62 43.7786 247.405 43.8856 250.186C43.8916 250.344 44.0734 250.462 44.2196 250.52C45.1096 250.876 45.9099 252.786 46.0565 253.86C46.2151 255.024 45.5601 256.537 46.3905 257.367C47.7776 255.98 45.2367 252.631 47.0584 252.023C51.2333 250.632 56.2286 252.114 60.0838 250.186C61.4788 249.489 63.2016 250.09 64.7596 250.02C66.4897 249.941 68.1258 249.018 69.7694 249.018C70.6549 249.018 73.0109 250.01 73.2762 248.684C73.812 246.005 70.9221 247.515 69.4354 247.515C65.2297 247.515 61.5234 248.517 57.4119 248.517C56.3382 248.517 54.8737 248.216 54.0721 249.018C52.9578 248.46 51.9497 249.371 51.0662 249.519C50.1119 249.678 46.3639 250.016 45.2215 249.853C45.0657 249.83 44.8992 249.676 44.8875 249.519C44.7847 248.131 44.7847 246.732 44.8875 245.344C44.9677 244.262 47.3267 245.01 48.2274 245.01C50.3995 245.01 52.66 244.843 54.7401 244.843C55.6656 244.843 56.4232 244.175 57.4119 244.175C61.737 244.175 65.8885 244.105 70.4373 244.008C71.8049 243.979 74.0332 243.262 72.1073 241.336C71.1924 242.251 61.3858 241.579 59.5828 241.837C55.3934 242.435 51.1202 242.006 46.8914 242.171C46.2572 242.196 45.6769 242.796 45.0545 242.672C44.9001 242.641 44.7304 242.495 44.7205 242.338C44.6164 240.671 44.6164 238.995 44.7205 237.328C44.7626 236.656 47.1889 237.161 47.5594 237.161C50.0122 237.161 52.5568 237.829 54.9071 237.829C60.2372 237.829 65.5512 237.996 70.9383 237.996C71.2101 237.996 72.0988 238.179 72.1073 237.662C72.1611 234.378 72.1016 231.09 71.9403 227.81C71.9325 227.652 71.7176 227.587 71.6063 227.476Z" fill="#e8e8e8" fill-rule="nonzero" opacity="1" stroke="none"/>
<path d="M75.1131 255.029C73.689 256.453 76.0091 260.369 74.4451 261.542C72.9659 262.651 71.0234 262.105 69.2684 262.544C68.6795 262.691 69.1296 263.311 68.6004 263.546C67.9076 263.854 66.8529 263.447 66.0955 263.88C64.5901 264.74 61.8691 265.646 60.2508 266.051C59.5554 266.225 55.5453 266.444 55.241 267.053C54.5405 268.454 56.9823 267.671 57.078 268.389C57.2085 269.368 56.9413 271.425 57.7459 272.229C58.9782 270.997 58.193 269.278 59.4158 268.055C59.8809 267.59 61.5571 268.152 62.2547 267.554C63.7107 266.306 65.0622 267.023 66.7635 266.385C69.0898 265.512 72.9209 263.352 75.4471 263.713C76.281 263.832 75.8924 265.383 75.7811 266.218C75.7365 266.552 72.397 267.037 71.9403 267.22C70.2297 267.904 69.8805 268.086 67.7655 268.389C67.6826 268.4 64.6122 270.336 64.0916 270.56C62.8229 271.103 62.2772 269.869 61.0858 271.061C61.865 271.84 62.4665 271.036 63.4237 271.228C63.85 271.313 63.9993 271.977 64.4256 272.062C67.0858 272.595 70.8754 269.763 73.2762 268.89C73.7585 268.714 74.4162 268.919 74.7791 268.556C75.7015 269.017 75.9351 267.547 76.616 267.888C77.4082 268.284 77.0101 269.805 76.95 270.226C76.8722 270.77 74.0103 271.648 73.6102 271.728C71.2707 272.196 69.5417 273.857 67.0975 274.233C66.3739 274.345 65.4443 274.05 64.9266 274.567C65.7796 275.42 67.2348 274.797 67.5985 276.07C67.9531 277.312 67.5467 280.026 68.4334 280.913C69.5178 279.829 68.5417 273.119 72.1073 274.901C74.0463 272.962 78.5115 270.646 77.952 275.402C77.7585 277.047 71.4012 277.778 70.6043 278.575C70.7157 278.686 70.7839 278.878 70.9383 278.909C73.7238 279.466 72.2237 280.173 73.9442 280.746C73.9442 282.417 73.8749 284.102 74.1112 285.756C74.2719 286.881 73.6186 288.436 74.4451 289.263C74.8375 289.067 75.1872 289.071 75.6141 288.929C75.6141 287.481 75.5624 286.033 75.6141 284.587C75.6588 283.335 77.0771 282.369 77.451 281.247C82.9103 281.247 78.6984 274.616 78.286 271.728C78.2492 271.471 78.4326 269.517 78.119 268.89C77.9532 268.558 77.1621 267.732 77.117 267.387C76.9397 266.027 77.0976 259.853 76.4491 259.204C76.2821 259.288 76.2821 259.288 76.1151 259.371C74.7501 258.006 76.3712 256.287 75.1131 255.029Z" fill="#e8e8e8" fill-rule="nonzero" opacity="1" stroke="none"/>
<path d="M222.567 262.377C221.602 263.342 221.966 265.04 221.732 266.385C221.688 266.637 220.782 267.356 220.73 267.721C220.383 270.15 220.061 271.907 219.728 274.233C219.627 274.941 218.62 275.737 218.559 276.404C218.459 277.513 218.703 278.64 218.559 279.744C218.503 280.175 217.592 280.146 217.557 280.579C217.4 282.577 217.358 284.597 217.557 286.591C217.589 286.904 218.171 286.949 218.225 287.259C218.437 288.476 217.852 290.059 218.726 290.933C219.309 290.641 218.961 290.84 219.728 290.265C219.453 289.713 219.593 282.697 220.897 281.915C224.229 279.916 223.604 287.205 224.905 286.424C226.413 285.519 225.269 282.741 225.406 281.748C225.457 281.381 226.589 279.25 227.076 279.076C227.662 278.867 228.473 279.182 228.913 278.742C228.287 278.117 228.487 278.465 228.245 277.74C226.734 277.74 226.103 276.776 224.738 276.404C222.585 275.817 220.313 275.315 220.73 272.396C220.903 271.19 225.38 273.205 225.74 273.565C225.828 273.653 225.95 273.732 226.074 273.732C226.328 273.732 230.687 275.151 230.75 275.235C231.222 275.865 230.439 276.833 231.251 277.239C232.05 277.639 232.015 275.593 232.587 275.402C233.307 275.162 234.365 275.127 234.925 274.567C234.127 273.77 232.237 274.143 231.251 273.732C230.422 273.387 230.588 272.648 229.748 272.396C228.148 271.916 226.094 271.749 224.905 270.56C223.142 271.441 220.289 267.909 222.066 267.554C223.605 267.246 223.99 267.834 225.072 268.556C225.259 268.68 226.431 268.661 226.575 268.723C228.576 269.58 230.432 270.188 232.587 270.727C233.136 270.864 233.778 271.748 234.257 271.895C234.98 272.118 235.716 271.486 236.428 271.228C237.808 270.725 237.621 271.871 238.598 270.894C237.671 269.966 235.773 270.549 234.591 269.892C231.082 267.942 227.279 267.176 223.402 265.884C222.129 265.459 223.105 263.453 222.567 262.377Z" fill="#e8e8e8" fill-rule="nonzero" opacity="1" stroke="none"/>
<path d="M242.272 255.697C244.259 255.697 246.001 255.73 247.616 256.699C249.689 257.943 250.884 256.34 252.459 258.703C252.95 258.457 252.675 258.575 253.294 258.369C253.294 256.253 253.796 254.031 253.127 252.023C252.741 250.867 246.004 250.687 244.944 250.687C239.097 250.687 231.631 247.675 225.74 248.517C224.687 248.667 225.138 250.66 225.406 251.689C225.806 253.222 229.022 252.789 229.748 252.858C232.637 253.134 235.923 254.313 238.598 254.695C240.629 254.985 241.664 253.872 242.272 255.697Z" fill="#fcfafb" fill-rule="nonzero" opacity="1" stroke="none"/>
<path d="M63.7576 279.076C65.4237 277.965 63.9832 275.624 66.0955 274.567C67.2026 274.014 68.9118 274.447 70.1033 273.732C71.4003 272.954 72.8243 272.046 74.2782 271.561C74.9763 271.329 77.0639 271.271 77.284 270.226C77.4803 269.293 77.8899 267.543 76.95 267.387C76.5275 267.316 71.9455 269.385 71.6063 269.725C69.8691 268.856 65.8505 273.153 63.9246 271.228C66.0618 269.09 70.549 268.583 73.2762 267.22C74.0568 266.829 75.8553 267.452 76.1151 266.218C76.3114 265.285 76.7054 263.61 75.7811 263.379C74.5995 263.083 70.1697 264.348 69.4354 264.715C69.0371 264.914 68.6448 265.717 68.0994 265.717C66.6667 265.717 64.2641 266.05 62.7557 266.385C61.9432 266.565 62.5299 267.082 61.9207 267.387C60.9908 267.852 59.3711 267.183 58.7479 268.222C58.236 269.075 58.5957 269.621 58.4139 270.894C58.2243 272.221 57.8761 273.576 58.0799 274.901C58.1794 275.548 59.4216 275.982 59.5828 275.068C59.8316 273.659 58.9209 271.349 61.4198 272.062C61.8057 272.173 62.1809 272.409 62.4217 272.73C63.7447 274.494 62.0916 277.41 63.7576 279.076Z" fill="#fcfafb" fill-rule="nonzero" opacity="1" stroke="none"/>
<path d="M226.408 242.338C225.067 242.894 225.963 245.232 226.074 246.68C226.086 246.837 226.254 246.983 226.408 247.014C232.367 248.205 238.584 247.847 244.777 248.517C245.825 248.63 247.224 249.686 248.451 249.686C249.528 249.686 255.296 250.878 255.465 248.851C255.582 247.441 256.316 245.731 255.131 244.843C254.179 244.129 247.968 244.676 246.447 244.676C244.378 244.676 241.155 244.679 239.266 244.342C237.588 244.042 239.387 243.416 238.097 243.674C235.532 244.187 232.864 243.729 230.249 243.674C229.442 243.657 227.876 243.885 227.243 243.674C226.563 243.447 226.963 242.108 226.408 242.338Z" fill="#fcfafb" fill-rule="nonzero" opacity="1" stroke="none"/>
<path d="M238.765 260.874C239.818 260.348 242.37 261.139 243.107 261.876C244.715 261.072 247.197 262.946 248.952 261.542C249.941 260.751 250.604 258.956 249.453 258.035C248.051 256.914 245.191 258.357 243.608 257.367C242.1 256.425 240.63 256.957 238.932 256.532C238.306 256.376 237.814 255.53 237.263 255.53C234.45 255.53 231.433 254.742 228.579 254.361C227.62 254.233 226.072 253.137 224.905 253.526C223.825 253.886 224.365 256.377 224.404 256.532C224.841 258.28 228.004 257.728 229.08 258.035C230.978 258.577 237.567 259.676 238.765 260.874Z" fill="#fcfafb" fill-rule="nonzero" opacity="1" stroke="none"/>
<path d="M49.5633 263.546C50.9761 262.133 49.1597 258.238 52.4022 258.035C58.1985 257.673 63.245 256.368 68.6004 255.029C70.7186 254.5 72.7481 255.39 74.4451 253.693C72.3296 251.578 68.5198 253.234 65.5946 253.526C64.7741 253.608 64.4049 254.146 63.7576 254.361C62.7096 254.711 61.3645 254.343 60.2508 254.528C57.6633 254.96 55.161 256.203 52.5692 256.365C51.6308 256.424 48.1037 256.279 47.5594 257.367C47.1587 258.169 48.6688 257.916 48.8953 258.369C49.5545 259.687 48.3914 262.374 49.5633 263.546Z" fill="#e8e8e8" fill-rule="nonzero" opacity="1" stroke="none"/>
<path d="M227.911 225.639C226.492 227.058 227.466 229.646 227.577 231.65C227.584 231.772 228.098 232.151 228.245 232.151C233.006 232.151 237.523 231.251 241.938 230.147C245.383 229.286 248.735 229.903 252.125 228.978C253.598 228.577 251.408 225.995 251.123 225.639C250.535 226.227 251.219 227.094 250.455 227.476C249.642 227.882 247.667 227.359 246.614 227.476C244.571 227.703 238.508 229.601 236.929 228.811C235.233 230.507 230.483 228.611 229.748 230.815C227.087 230.815 229.201 226.929 227.911 225.639Z" fill="#e8e8e8" fill-rule="nonzero" opacity="1" stroke="none"/>
<path d="M72.1073 274.567C67.7894 272.408 68.8838 281.181 67.9325 283.084C68.5763 283.728 67.9565 284.444 68.6004 285.088C68.7674 285.004 68.7674 285.004 68.9344 284.921C69.1014 285.088 69.1014 285.088 69.2684 285.255C70.797 283.726 68.6438 279.77 71.2723 278.575C72.5849 277.979 77.8215 277.294 78.286 275.569C79.9434 269.413 72.5776 273.156 72.1073 274.567Z" fill="#fcfafb" fill-rule="nonzero" opacity="1" stroke="none"/>
<path d="M220.73 271.561C219.786 271.689 220.285 273.454 220.396 274.4C220.608 276.203 226.731 277.147 227.911 278.074C227.97 278.121 229.121 280.151 230.082 279.911C232.014 279.428 232.166 275.345 230.416 274.567C229.908 274.342 228.902 274.723 228.412 274.233C226.897 272.719 223.087 271.242 220.73 271.561Z" fill="#fcfafb" fill-rule="nonzero" opacity="1" stroke="none"/>
<path d="M246.614 220.128C246.224 219.348 245.06 218.015 244.276 217.623C243.772 218.128 244.262 218.799 243.608 219.126C242.462 219.699 236.325 219.896 235.426 220.796C235.593 220.963 235.593 220.963 235.76 221.13C234.491 222.398 231.288 221.093 229.748 222.633C229.497 222.466 229.497 222.466 229.247 222.299C229.748 221.297 229.703 218.385 229.581 217.289C229.529 216.825 228.601 216.797 228.579 217.289C228.473 219.68 228.473 222.079 228.579 224.47C228.617 225.316 234.241 223.303 235.259 223.134C237.654 222.735 239.814 222.538 242.105 221.965C242.706 221.815 243.161 220.963 243.775 220.963C244.909 220.963 245.734 221.008 246.614 220.128Z" fill="#e8e8e8" fill-rule="nonzero" opacity="1" stroke="none"/>
<path d="M55.575 217.456C54.4818 218.003 53.4213 219.434 52.7362 220.462C53.6739 221.4 55.8243 220.628 57.078 221.13C57.4816 221.291 57.5093 221.97 57.9129 222.132C59.142 222.623 60.8727 222.223 62.0877 222.466C63.7918 222.807 65.8977 223.629 67.5985 223.969C68.6274 224.175 70.8902 224.492 70.2703 222.633C69.8435 221.352 67.0335 221.787 66.0955 221.631C65.3219 221.502 65.0445 220.413 64.5926 220.295C63.5692 220.028 62.4765 220.339 61.4198 220.295C60.3469 220.25 59.9428 219.287 59.0819 219.126C58.2048 218.961 57.1525 219.454 56.41 218.959C55.6421 218.447 56.1449 218.026 55.575 217.456Z" fill="#e8e8e8" fill-rule="nonzero" opacity="1" stroke="none"/>
<path d="M47.2254 272.396C47.2254 273.436 48.5734 276.411 49.7303 277.072C50.5506 277.541 50.52 276.314 51.2332 277.74C51.5344 278.343 50.7964 278.719 51.2332 279.243C53.4907 281.952 56.3232 285.023 59.0819 287.092C60.2968 288.003 62.3741 288.619 62.9227 290.265C65.4529 290.265 67.1718 293.374 69.2684 294.272C70.7408 294.903 72.4647 295.783 73.9442 296.276C74.3566 296.414 74.3721 297.126 74.7791 297.278C76.7539 298.019 78.3354 298.172 80.1229 299.449C81.6528 300.542 84.9597 300.266 85.6336 302.288C91.6253 302.288 85.9512 298.987 85.8006 296.276C85.7512 295.387 85.899 294.49 85.8006 293.604C85.7439 293.094 84.7847 293.092 84.6317 292.603C84.0902 290.87 85.3011 290.599 83.7967 290.098C83.7967 287.133 82.8797 288.187 82.6278 286.591C82.4889 285.711 82.7261 284.804 82.6278 283.919C82.5519 283.236 80.8485 282.089 80.6239 281.247C80.4185 280.477 80.6864 279.473 80.1229 278.909C79.5673 279.465 80.2223 280.49 79.4549 280.746C76.6252 281.689 76.8257 280.556 75.6141 283.585C74.9571 285.227 76.3428 287.532 74.9461 288.929C74.6121 288.595 74.6121 288.595 74.2782 288.261C74.7024 287.412 74.4753 286.022 74.4451 285.088C74.3192 281.182 74.4031 277.643 70.1033 279.076C70.1033 280.678 68.5303 282.61 69.4354 284.42C69.2684 284.587 69.2684 284.587 69.1014 284.754C68.4557 284.108 68.8521 283.67 68.2664 283.084C68.9164 281.784 68.5989 273.766 65.7616 274.901C63.0317 275.993 65.5444 276.955 63.9246 278.575C62.6241 277.708 63.8014 273.275 62.4217 271.895C62.2547 271.979 62.2547 271.979 62.0877 272.062C59.2609 269.236 59.4295 274.554 58.7479 275.235C57.2596 273.747 59.4003 271.045 58.0799 269.725C57.9129 269.892 57.9129 269.892 57.7459 270.059C57.3059 269.619 57.5629 268.825 57.4119 268.222C57.0016 266.58 55.1203 267.962 54.7401 268.723C53.9529 270.297 55.0271 272.944 53.9051 274.066C52.6831 273.455 54.6025 257.107 50.0643 265.049C49.5077 266.023 50.626 267.326 49.7303 268.222C49.1437 267.635 50.4488 253.367 46.8914 258.703C46.3726 258.357 46.2515 250.01 44.7205 250.52C43.6123 250.89 44.1883 254.319 43.8856 255.53C43.3816 257.546 44.1015 260.524 44.3866 262.377C44.5298 263.308 44.2016 264.959 44.3866 265.884C44.4985 266.444 45.2661 267.442 45.3885 268.055C45.6412 269.318 45.7052 271.89 47.2254 272.396Z" fill="#c0bebf" fill-rule="nonzero" opacity="1" stroke="none"/>
</g>
<g opacity="1" layerName="Group 7">
<g opacity="1" layerName="Group 1">
<path d="M69.2684 158.675C74.6121 143.855 71.9403 133.889 71.9403 121.269C61.2041 120.922 52.851 122.818 47.8934 133.459C41.9369 146.244 56.5306 161.934 69.2684 158.675Z" fill="#efb198" fill-rule="nonzero" opacity="1" stroke="none"/>
<path d="M229.278 166.837C231.141 164.657 230.143 161.502 230.75 158.842C260.486 158.842 259.969 121.074 227.424 120.874C227.709 133.266 229.278 155.447 229.278 166.837Z" fill="#efb198" fill-rule="nonzero" opacity="1" stroke="none"/>
</g>
<path d="M147.254 179.215C148.301 197.547 142.806 192.105 131.495 195.517C129.194 196.211 123.012 203.418 124.904 206.708C130.479 216.402 174.055 209.594 174.473 208.772C180.831 196.304 158.463 196.451 155.269 192.24C150.497 185.947 150.966 185.054 150.859 179.5C169.051 179.3 183.123 182.515 190.171 200.757C210.154 195.759 218.446 138.578 219.715 120.027C203.193 115.897 200.569 110.646 201.025 94.7141C167.07 94.6593 133.112 94.1176 99.16 94.5498C97.565 94.5701 99.524 107.59 97.6571 110.581C93.167 117.774 87.6757 117.112 80.9578 120.267C80.417 120.521 80.035 121.223 80.0626 121.819C80.9779 141.576 86.5303 183.157 103.001 196.081C104.913 197.581 108.36 200.507 109.847 198.586C123.885 180.456 123.583 180.353 147.254 179.215Z" fill="#efb198" fill-rule="nonzero" opacity="1" stroke="none"/>
<path d="M96.8282 112.607C97.2992 112.095 99.3232 107.989 99.3371 106.124C99.3577 103.353 99.075 100.6 99.7418 100.596C133.781 100.351 166.601 100.46 200.488 100.772C200.946 100.776 200.574 101.801 200.517 103.157C200.413 105.609 202.372 109.83 203.022 110.537C203.329 110.203 201.599 106.21 201.687 104.959C201.726 104.407 202.314 103.478 202.323 102.949C202.335 102.183 202.04 101.484 201.986 100.883C201.916 100.115 202.088 99.4934 202.163 98.9522C202.237 98.415 203.123 97.758 203.168 97.1323C203.229 96.2663 203.464 94.5899 202.665 94.5845C167.219 94.343 131.772 94.342 96.3254 94.4025C95.5468 94.4038 95.7827 96.4066 96.1579 96.9503C96.937 98.0792 96.0558 99.5846 96.4928 100.772C96.6529 101.207 97.4196 102.113 97.4976 102.41C97.9927 104.293 95.4591 111.119 96.8282 112.607Z" fill="#bd8d7a" fill-rule="nonzero" opacity="0.722222" stroke="none"/>
<path d="M143.155 44.5879C114.623 44.6349 86.1033 44.956 57.5926 45.9629C51.1778 46.1894 44.4643 56.3063 43.3114 61.1504C39.9074 75.4515 47.9707 82.9533 59.0926 88.7129C55.2748 104.307 50.6021 120.401 71.5926 121.275C68.695 185.35 63.0657 250.239 91.1551 310.15C96.2025 320.916 101.919 333.317 112.53 338.682C123.692 344.325 133.328 316.869 146.405 313.15C164.469 308.013 175.238 344.058 188.936 335.119C207.322 323.121 216.034 290.886 220.905 271.557C233.557 221.356 229.802 171.034 227.624 121.244C251.12 118.697 245.436 106.653 240.593 88.7129C243.877 86.876 247.489 85.4814 250.468 83.1816C262.698 73.7381 255.988 49.461 241.593 46.1191C237.395 45.1447 233.058 44.7793 228.749 44.7754C200.22 44.7495 171.687 44.5409 143.155 44.5879ZM150.093 94.4629C167.07 94.5511 184.053 94.6855 201.03 94.7129C200.575 110.644 203.196 115.895 219.718 120.025C218.449 138.576 210.17 195.747 190.186 200.744C183.138 182.502 169.066 179.294 150.874 179.494C150.98 185.048 150.508 185.951 155.28 192.244C158.474 196.455 180.825 196.307 174.468 208.775C174.049 209.597 130.48 216.407 124.905 206.713C123.013 203.423 129.198 196.219 131.499 195.525C142.81 192.113 148.296 197.545 147.249 179.213C123.578 180.351 123.88 180.458 109.843 198.588C108.355 200.509 104.911 197.588 102.999 196.088C86.5284 183.164 80.9767 141.563 80.0614 121.807C80.0337 121.21 80.4268 120.529 80.9676 120.275C87.6854 117.121 93.165 117.781 97.6551 110.588C99.522 107.597 97.5601 94.5769 99.1551 94.5566C116.131 94.3405 133.115 94.3746 150.093 94.4629Z" fill="#424141" fill-rule="nonzero" opacity="1" stroke="none" layerName="Curve 1"/>
</g>
<g opacity="1" layerName="Group 5">
<g opacity="1" layerName="Group 2">
<path d="M117.907 128.648C109.448 133.916 112.686 147.764 123.519 147.2C133.849 147.764 138.57 133.819 128.085 128.648C158.588 126.554 139.38 154.21 122.889 153.682C108.339 153.216 89.0486 128.648 117.907 128.648Z" fill="#fcfafb" fill-rule="nonzero" filter="url(#Filter)" opacity="1" stroke="none" blur="0.55" layerName="Curve 2"/>
<path d="M112.686 137.358C112.686 133.78 114.524 130.623 117.321 128.75L129.068 128.654C129.226 128.756 129.381 128.863 129.534 128.973C132.151 130.867 133.849 133.918 133.849 137.358C133.849 143.105 129.112 147.764 123.268 147.764C117.424 147.764 112.686 143.105 112.686 137.358Z" fill="#99bbd4" fill-rule="nonzero" opacity="1" stroke="none" layerName="Oval 3"/>
<path d="M116.812 137.358C116.812 133.783 119.702 130.885 123.268 130.885C126.833 130.885 129.724 133.783 129.724 137.358C129.724 140.933 126.833 143.831 123.268 143.831C119.702 143.831 116.812 140.933 116.812 137.358Z" fill="#313030" fill-rule="nonzero" opacity="1" stroke="none" layerName="Oval 2"/>
<path d="M120.743 132.023C120.743 130.223 121.992 128.763 123.533 128.763C125.073 128.763 126.322 130.223 126.322 132.023C126.322 133.824 125.073 135.284 123.533 135.284C121.992 135.284 120.743 133.824 120.743 132.023Z" fill="#99bbd4" fill-rule="nonzero" opacity="1" stroke="none" layerName="Oval 4"/>
</g>
<g opacity="1" layerName="Group 3">
<path d="M168.096 128.729C159.637 133.997 162.876 147.845 173.708 147.281C184.038 147.845 188.759 133.9 178.274 128.729C208.777 126.635 189.569 154.291 173.078 153.763C158.528 153.297 139.238 128.729 168.096 128.729Z" fill="#fcfafb" fill-rule="nonzero" filter="url(#Filter_2)" opacity="1" stroke="none" blur="0.55" layerName="Curve 2"/>
<path d="M162.876 137.439C162.876 133.861 164.713 130.704 167.51 128.831L179.257 128.735C179.415 128.837 179.571 128.944 179.723 129.054C182.34 130.948 184.038 133.999 184.038 137.439C184.038 143.186 179.301 147.845 173.457 147.845C167.613 147.845 162.876 143.186 162.876 137.439Z" fill="#99bbd4" fill-rule="nonzero" opacity="1" stroke="none" layerName="Oval 3"/>
<path d="M167.001 137.439C167.001 133.864 169.891 130.966 173.457 130.966C177.023 130.966 179.913 133.864 179.913 137.439C179.913 141.014 177.023 143.912 173.457 143.912C169.891 143.912 167.001 141.014 167.001 137.439Z" fill="#313030" fill-rule="nonzero" opacity="1" stroke="none" layerName="Oval 2"/>
<path d="M170.932 132.104C170.932 130.303 172.181 128.844 173.722 128.844C175.263 128.844 176.512 130.303 176.512 132.104C176.512 133.905 175.263 135.365 173.722 135.365C172.181 135.365 170.932 133.905 170.932 132.104Z" fill="#99bbd4" fill-rule="nonzero" opacity="1" stroke="none" layerName="Oval 4"/>
</g>
<g opacity="1" layerName="Group 4">
<path d="M112.686 108.41C111.946 108.442 109.685 108.772 109.514 109.913C109.437 110.425 109.154 113.901 110.849 113.921C120.2 114.03 129.553 113.976 138.904 113.921C139.315 113.918 140.213 112.722 140.24 112.585C140.843 109.57 139.302 108.577 136.9 108.577C128.94 108.577 120.98 108.632 113.02 108.577C112.896 108.576 112.811 108.405 112.686 108.41Z" fill="#655446" fill-rule="nonzero" opacity="1" stroke="none"/>
<path d="M162.283 108.577C161.019 108.581 158.568 108.511 158.275 110.414C158.154 111.202 158.46 113.903 159.945 113.921C169.24 114.03 178.537 113.976 187.833 113.921C189.873 113.909 189.52 109.86 188.334 108.911C188.196 108.801 188.009 108.748 187.833 108.744C185.273 108.692 182.712 108.761 180.151 108.744C174.195 108.705 168.239 108.558 162.283 108.577Z" fill="#655446" fill-rule="nonzero" opacity="1" stroke="none"/>
<path d="M159.866 108.257C160.604 108.995 160.838 108.591 161.703 108.591C169.719 108.591 177.734 108.703 185.75 108.758C186.585 108.764 186.808 108.869 187.42 108.257C186.765 107.602 185.616 107.768 184.748 107.756C177.067 107.647 169.385 107.534 161.703 107.589C161.333 107.592 160.249 107.874 159.866 108.257Z" fill="#bd8d7a" fill-rule="nonzero" opacity="1" stroke="none" layerName="Curve 2"/>
<path d="M111.016 108.41C111.754 109.148 111.988 108.744 112.853 108.744C120.869 108.744 128.885 108.856 136.9 108.911C137.735 108.917 137.958 109.022 138.57 108.41C137.915 107.755 136.767 107.921 135.898 107.909C128.217 107.8 120.535 107.687 112.853 107.742C112.483 107.745 111.399 108.027 111.016 108.41Z" fill="#bd8d7a" fill-rule="nonzero" opacity="1" stroke="none"/>
</g>
</g>
<path d="M236.595 45.2871C232.18 44.7906 230.874 38.4644 228.412 34.7666C221.611 24.5544 215.344 18.5516 204.782 13.1074C170.141-4.74772 74.5206-3.93613 66.346 47.2162C64.5215 47.3865 149.926 45.2036 236.595 45.2871Z" fill="#272223" fill-rule="nonzero" opacity="1" stroke="none"/>
</g>
</g>
</svg>
