<svg xmlns="http://www.w3.org/2000/svg" xmlns:xlink="http://www.w3.org/1999/xlink" width="100%" height="100%" version="1.1" viewBox="0 0 400 400" xml:space="preserve"><defs><filter id="Filter_zxcv" width="16.205" height="24.096" x="293.207" y="156.603" color-interpolation-filters="sRGB" filterUnits="userSpaceOnUse"><feDropShadow dx="0" dy="1" flood-color="#715b52" flood-opacity=".5" in="SourceGraphic" result="Shadow" stdDeviation="1"/></filter><filter id="Filter_zxcv_2" width="33.826" height="50.222" x="286.534" y="141.034" color-interpolation-filters="sRGB" filterUnits="userSpaceOnUse"><feDropShadow dx="0" dy="1" flood-color="#000" flood-opacity=".5" in="SourceGraphic" result="Shadow" stdDeviation="1"/></filter><filter id="Filter_zxcv_3" width="14.418" height="23.707" x="89.075" y="157.375" color-interpolation-filters="sRGB" filterUnits="userSpaceOnUse"><feDropShadow dx="0" dy="1" flood-color="#715b52" flood-opacity=".5" in="SourceGraphic" result="Shadow" stdDeviation="1"/></filter><filter id="Filter_zxcv_4" width="32.439" height="49.249" x="79.408" y="142.008" color-interpolation-filters="sRGB" filterUnits="userSpaceOnUse"><feDropShadow dx="0" dy="1" flood-color="#000" flood-opacity=".5" in="SourceGraphic" result="Shadow" stdDeviation="1"/></filter><filter id="Filter_zxcv_5" width="167.01" height="146.018" x="115.715" y="114.477" color-interpolation-filters="sRGB" filterUnits="userSpaceOnUse"><feDropShadow dx="0" dy=".778" flood-color="#000" flood-opacity=".6" in="SourceGraphic" result="Shadow" stdDeviation="1.284"/></filter><filter id="Filter_zxcv_6" width="33.805" height="20.837" x="181.826" y="184.838" color-interpolation-filters="sRGB" filterUnits="userSpaceOnUse"><feDropShadow dx="0" dy="0" flood-color="#9c7464" flood-opacity=".5" in="SourceGraphic" result="Shadow" stdDeviation=".5"/></filter><filter id="Filter_zxcv_7" width="18.026" height="18.16" x="183.076" y="186.266" color-interpolation-filters="sRGB" filterUnits="userSpaceOnUse"><feDropShadow dx="0" dy="1" flood-color="#9c7464" flood-opacity=".5" in="SourceGraphic" result="Shadow" stdDeviation=".5"/></filter><filter id="Filter_zxcv_8" width="15.818" height="18.316" x="198.563" y="186.088" color-interpolation-filters="sRGB" filterUnits="userSpaceOnUse"><feDropShadow dx="0" dy="1" flood-color="#9c7464" flood-opacity=".5" in="SourceGraphic" result="Shadow" stdDeviation=".5"/></filter><filter id="Filter_zxcv_9" width="42.347" height="11.88" x="178.169" y="232.739" color-interpolation-filters="sRGB" filterUnits="userSpaceOnUse"><feDropShadow dx="0" dy="0" flood-color="#9c7464" flood-opacity=".5" in="SourceGraphic" result="Shadow" stdDeviation=".5"/></filter><filter id="Filter_zxcv_10" width="21.645" height="9.38" x="179.419" y="233.989" color-interpolation-filters="sRGB" filterUnits="userSpaceOnUse"><feDropShadow dx="0" dy="1" flood-color="#9c7464" flood-opacity=".5" in="SourceGraphic" result="Shadow" stdDeviation=".5"/></filter><filter id="Filter_zxcv_11" width="20.702" height="9.307" x="198.564" y="234.062" color-interpolation-filters="sRGB" filterUnits="userSpaceOnUse"><feDropShadow dx="0" dy="1" flood-color="#9c7464" flood-opacity=".5" in="SourceGraphic" result="Shadow" stdDeviation=".5"/></filter><filter id="Filter_zxcv_12" width="265.452" height="77.907" x="67.274" y="323.438" color-interpolation-filters="sRGB" filterUnits="userSpaceOnUse"><feDropShadow dx="0" dy=".778" flood-color="#000" flood-opacity=".6" in="SourceGraphic" result="Shadow" stdDeviation="1.284"/></filter><filter id="Filter_zxcv_13" width="252.072" height="119.311" x="72.218" y="238.872" color-interpolation-filters="sRGB" filterUnits="userSpaceOnUse"><feDropShadow dx="0" dy=".778" flood-color="#000" flood-opacity=".6" in="SourceGraphic" result="Shadow" stdDeviation="1.284"/></filter><filter id="Filter_zxcv_14" width="193.038" height="261.413" x="102.888" y="142.309" color-interpolation-filters="sRGB" filterUnits="userSpaceOnUse"><feComponentTransfer in="SourceGraphic" result="Alpha"><feFuncA slope="0" type="linear"/></feComponentTransfer><feDropShadow dx="0" dy=".778" flood-color="#000" flood-opacity=".6" in="Alpha" result="Shadow" stdDeviation="1.284"/></filter><filter id="Filter_zxcv_15" width="199.195" height="265.467" x="100.374" y="140.177" color-interpolation-filters="sRGB" filterUnits="userSpaceOnUse"><feDropShadow dx="0" dy=".778" flood-color="#000" flood-opacity=".6" in="SourceGraphic" result="Shadow" stdDeviation="2"/></filter><filter id="Filter_zxcv_16" width="30.022" height="50.28" x="222.195" y="229.638" color-interpolation-filters="sRGB" filterUnits="userSpaceOnUse"><feComponentTransfer in="SourceGraphic" result="Alpha"><feFuncA slope="0" type="linear"/></feComponentTransfer><feDropShadow dx="0" dy="2" flood-color="#000" flood-opacity=".7" in="Alpha" result="Shadow" stdDeviation="2"/></filter><filter id="Filter_zxcv_17" width="30.022" height="52.585" x="146.165" y="227.267" color-interpolation-filters="sRGB" filterUnits="userSpaceOnUse"><feComponentTransfer in="SourceGraphic" result="Alpha"><feFuncA slope="0" type="linear"/></feComponentTransfer><feDropShadow dx="0" dy="2" flood-color="#000" flood-opacity=".7" in="Alpha" result="Shadow" stdDeviation="2"/></filter><filter id="Filter_zxcv_18" width="30.637" height="39.778" x="146.424" y="239.074" color-interpolation-filters="sRGB" filterUnits="userSpaceOnUse"><feDropShadow dx="0" dy="1" flood-color="#000" flood-opacity=".5" in="SourceGraphic" result="Shadow" stdDeviation="2"/></filter><filter id="Filter_zxcv_19" width="59.495" height="66.233" x="144.243" y="208.072" color-interpolation-filters="sRGB" filterUnits="userSpaceOnUse"><feDropShadow dx="0" dy="1" flood-color="#000" flood-opacity=".5" in="SourceGraphic" result="Shadow" stdDeviation="2"/></filter><filter id="Filter_zxcv_20" width="30.533" height="39.404" x="222.81" y="239.439" color-interpolation-filters="sRGB" filterUnits="userSpaceOnUse"><feDropShadow dx="0" dy="1" flood-color="#000" flood-opacity=".5" in="SourceGraphic" result="Shadow" stdDeviation="2"/></filter><filter id="Filter_zxcv_21" width="59.531" height="66.233" x="195.994" y="208.054" color-interpolation-filters="sRGB" filterUnits="userSpaceOnUse"><feDropShadow dx="0" dy="1" flood-color="#000" flood-opacity=".5" in="SourceGraphic" result="Shadow" stdDeviation="2"/></filter><filter id="Filter_zxcv_22" width="56.069" height="36.248" x="202.23" y="152.006" color-interpolation-filters="sRGB" filterUnits="userSpaceOnUse"><feDropShadow dx="0" dy=".506" flood-color="#000" flood-opacity=".6" in="SourceGraphic" result="Shadow" stdDeviation="1.284"/><feGaussianBlur in="Shadow" result="Blur" stdDeviation=".15"/></filter><filter id="Filter_zxcv_23" width="35.273" height="30.372" x="212.627" y="152.034" color-interpolation-filters="sRGB" filterUnits="userSpaceOnUse"><feDropShadow dx="0" dy=".506" flood-color="#000" flood-opacity=".6" in="SourceGraphic" result="Shadow" stdDeviation="1.284"/><feGaussianBlur in="Shadow" result="Blur" stdDeviation=".253"/></filter><filter id="Filter_zxcv_24" width="56.064" height="36.245" x="202.741" y="152.292" color-interpolation-filters="sRGB" filterUnits="userSpaceOnUse"><feDropShadow dx="0" dy=".506" flood-color="#000" flood-opacity=".6" in="SourceGraphic" result="Shadow" stdDeviation="1.284"/><feGaussianBlur in="Shadow" result="Blur" stdDeviation=".15"/></filter><filter id="Filter_zxcv_25" width="28.852" height="24.163" x="215.838" y="154.739" color-interpolation-filters="sRGB" filterUnits="userSpaceOnUse"><feGaussianBlur in="SourceGraphic" result="Blur" stdDeviation=".253"/></filter><filter id="Filter_zxcv_26" width="21.147" height="21.185" x="219.69" y="155.957" color-interpolation-filters="sRGB" filterUnits="userSpaceOnUse"><feDropShadow dx="0" dy=".778" flood-color="#000" flood-opacity=".6" in="SourceGraphic" result="Shadow" stdDeviation="1.284"/></filter><filter id="Filter_zxcv_27" width="12.784" height="13.856" x="223.872" y="153.539" color-interpolation-filters="sRGB" filterUnits="userSpaceOnUse"><feDropShadow dx="0" dy=".778" flood-color="#000" flood-opacity=".6" in="SourceGraphic" result="Shadow" stdDeviation="1.284"/></filter><filter id="Filter_zxcv_28" width="56.623" height="22.66" x="202.141" y="147.779" color-interpolation-filters="sRGB" filterUnits="userSpaceOnUse"><feDropShadow dx="0" dy=".503" flood-color="#000" flood-opacity=".65" in="SourceGraphic" result="Shadow" stdDeviation="1.276"/></filter><filter id="Filter_zxcv_29" width="56.069" height="36.251" x="141.046" y="152.006" color-interpolation-filters="sRGB" filterUnits="userSpaceOnUse"><feDropShadow dx="0" dy=".506" flood-color="#000" flood-opacity=".6" in="SourceGraphic" result="Shadow" stdDeviation="1.284"/><feGaussianBlur in="Shadow" result="Blur" stdDeviation=".15"/></filter><filter id="Filter_zxcv_30" width="35.273" height="30.374" x="151.443" y="152.034" color-interpolation-filters="sRGB" filterUnits="userSpaceOnUse"><feDropShadow dx="0" dy=".506" flood-color="#000" flood-opacity=".6" in="SourceGraphic" result="Shadow" stdDeviation="1.284"/><feGaussianBlur in="Shadow" result="Blur" stdDeviation=".253"/></filter><filter id="Filter_zxcv_31" width="56.064" height="36.249" x="140.539" y="152.292" color-interpolation-filters="sRGB" filterUnits="userSpaceOnUse"><feDropShadow dx="0" dy=".506" flood-color="#000" flood-opacity=".6" in="SourceGraphic" result="Shadow" stdDeviation="1.284"/><feGaussianBlur in="Shadow" result="Blur" stdDeviation=".15"/></filter><filter id="Filter_zxcv_32" width="28.852" height="24.166" x="154.654" y="154.739" color-interpolation-filters="sRGB" filterUnits="userSpaceOnUse"><feGaussianBlur in="SourceGraphic" result="Blur" stdDeviation=".253"/></filter><filter id="Filter_zxcv_33" width="21.147" height="21.186" x="158.507" y="155.957" color-interpolation-filters="sRGB" filterUnits="userSpaceOnUse"><feDropShadow dx="0" dy=".778" flood-color="#000" flood-opacity=".6" in="SourceGraphic" result="Shadow" stdDeviation="1.284"/></filter><filter id="Filter_zxcv_34" width="12.784" height="13.857" x="162.688" y="153.538" color-interpolation-filters="sRGB" filterUnits="userSpaceOnUse"><feDropShadow dx="0" dy=".778" flood-color="#000" flood-opacity=".6" in="SourceGraphic" result="Shadow" stdDeviation="1.284"/></filter><filter id="Filter_zxcv_35" width="56.277" height="22.633" x="140.626" y="147.777" color-interpolation-filters="sRGB" filterUnits="userSpaceOnUse"><feDropShadow dx="0" dy=".503" flood-color="#000" flood-opacity=".65" in="SourceGraphic" result="Shadow" stdDeviation="1.276"/></filter><filter id="Filter_zxcv_36" width="97.859" height="12.769" x="150.954" y="132.27" color-interpolation-filters="sRGB" filterUnits="userSpaceOnUse"><feDropShadow dx="0" dy="1" flood-color="#9c7464" flood-opacity=".5" in="SourceGraphic" result="Shadow" stdDeviation=".5"/></filter><filter id="Filter_zxcv_37" width="38.023" height="10.269" x="209.539" y="132.52" color-interpolation-filters="sRGB" filterUnits="userSpaceOnUse"><feDropShadow dx="0" dy="1" flood-color="#9c7464" flood-opacity=".5" in="SourceGraphic" result="Shadow" stdDeviation=".5"/></filter><filter id="Filter_zxcv_38" width="38.023" height="10.269" x="152.204" y="132.52" color-interpolation-filters="sRGB" filterUnits="userSpaceOnUse"><feDropShadow dx="0" dy="1" flood-color="#9c7464" flood-opacity=".5" in="SourceGraphic" result="Shadow" stdDeviation=".5"/></filter><linearGradient id="LinearGradient_zxcv" x1="200.622" x2="201.854" y1="290.772" y2="68.298" gradientTransform="matrix(1.15238 0 0 1.15238 -30.5921 -27.558)" gradientUnits="userSpaceOnUse"><stop offset="0" stop-color="#554138"/><stop offset="1" stop-color="#534a47"/></linearGradient><filter id="Filter_zxcv_39" width="255.407" height="99.76" x="72.18" y="52.842" color-interpolation-filters="sRGB" filterUnits="userSpaceOnUse"><feDropShadow dx="0" dy="1" flood-color="#000" flood-opacity=".6" in="SourceGraphic" result="Shadow" stdDeviation="1.284"/></filter><filter id="Filter_zxcv_40" width="254.014" height="27.409" x="72.884" y="68.55" color-interpolation-filters="sRGB" filterUnits="userSpaceOnUse"><feDropShadow dx="0" dy="1" flood-color="#000" flood-opacity=".4" in="SourceGraphic" result="Shadow" stdDeviation="1"/></filter><filter id="Filter_zxcv_41" width="251.753" height="26.969" x="74.007" y="86.894" color-interpolation-filters="sRGB" filterUnits="userSpaceOnUse"><feDropShadow dx="0" dy="1" flood-color="#000" flood-opacity=".4" in="SourceGraphic" result="Shadow" stdDeviation="1"/></filter><filter id="Filter_zxcv_42" width="252.473" height="25.096" x="73.647" y="52.518" color-interpolation-filters="sRGB" filterUnits="userSpaceOnUse"><feDropShadow dx="0" dy="0" flood-color="#000" flood-opacity=".3" in="SourceGraphic" result="Shadow" stdDeviation="1"/></filter><filter id="Filter_zxcv_43" width="54.463" height="11.223" x="252.759" y="126.106" color-interpolation-filters="sRGB" filterUnits="userSpaceOnUse"><feDropShadow dx="0" dy="0" flood-color="#000" flood-opacity=".3" in="SourceGraphic" result="Shadow" stdDeviation=".5"/></filter><filter id="Filter_zxcv_44" width="51.548" height="14.812" x="254.92" y="134.83" color-interpolation-filters="sRGB" filterUnits="userSpaceOnUse"><feDropShadow dx="0" dy="0" flood-color="#000" flood-opacity=".3" in="SourceGraphic" result="Shadow" stdDeviation=".5"/></filter><filter id="Filter_zxcv_45" width="54.396" height="13.691" x="252.756" y="114.915" color-interpolation-filters="sRGB" filterUnits="userSpaceOnUse"><feDropShadow dx="0" dy="0" flood-color="#000" flood-opacity=".3" in="SourceGraphic" result="Shadow" stdDeviation=".5"/></filter><filter id="Filter_zxcv_46" width="218.04" height="18.752" x="90.809" y="102.99" color-interpolation-filters="sRGB" filterUnits="userSpaceOnUse"><feDropShadow dx="0" dy="0" flood-color="#000" flood-opacity=".4" in="SourceGraphic" result="Shadow" stdDeviation="1"/></filter><filter id="Filter_zxcv_47" width="213.04" height="13.752" x="93.309" y="105.49" color-interpolation-filters="sRGB" filterUnits="userSpaceOnUse"><feDropShadow dx="0" dy="0" flood-color="#000" flood-opacity=".4" in="SourceGraphic" result="Shadow" stdDeviation="1"/></filter><filter id="Filter_zxcv_48" width="54.458" height="11.333" x="92.549" y="125.853" color-interpolation-filters="sRGB" filterUnits="userSpaceOnUse"><feDropShadow dx="0" dy="0" flood-color="#000" flood-opacity=".3" in="SourceGraphic" result="Shadow" stdDeviation=".5"/></filter><filter id="Filter_zxcv_49" width="54.396" height="13.655" x="92.615" y="114.951" color-interpolation-filters="sRGB" filterUnits="userSpaceOnUse"><feDropShadow dx="0" dy="0" flood-color="#000" flood-opacity=".3" in="SourceGraphic" result="Shadow" stdDeviation=".5"/></filter><filter id="Filter_zxcv_50" width="51.548" height="14.951" x="93.299" y="134.686" color-interpolation-filters="sRGB" filterUnits="userSpaceOnUse"><feDropShadow dx="0" dy="0" flood-color="#000" flood-opacity=".3" in="SourceGraphic" result="Shadow" stdDeviation=".5"/></filter><filter id="Filter_zxcv_51" width="251.753" height="26.969" x="74.007" y="86.894" color-interpolation-filters="sRGB" filterUnits="userSpaceOnUse"><feDropShadow dx="0" dy="1" flood-color="#000" flood-opacity=".4" in="SourceGraphic" result="Shadow" stdDeviation="1"/></filter></defs><g id="Gutenberg.Shadowed" opacity="1"><g id="Face" opacity="1"><g id="Ears" opacity="1"><g id="zxcvGroup-13" opacity="1"><path id="zxcv-131" fill="#d9a28d" stroke="none" d="M301.119 173.002C304.699 168.88 304.179 164.524 296.865 159.853C299.942 157.456 300.816 157.492 303.697 160.14C307.236 163.393 308.057 170.092 305.134 173.712C303.004 176.349 300.571 178.806 295.707 175.859C297.957 174.709 299.944 174.355 301.119 173.002Z" filter="url(#Filter_zxcv)" shadowAngle="1.571" shadowColor="#715b52" shadowOffset="1" shadowOpacity=".5" shadowRadius="2"/><path id="zxcv-1" fill="#f3b69e" stroke="none" d="M289.611 142.634C289.647 143.163 289.002 143.798 289.035 144.326C289.929 158.698 290.979 173.66 292.384 187.757C298.633 185.756 306.158 184.801 310.395 181.513C319.75 174.254 319.127 165.166 314.963 155.346C311.593 147.993 296.956 142.7 295.733 142.67C294.067 142.807 291.822 142.339 289.611 142.634ZM300.342 158.119C301.306 158.159 302.251 158.812 303.692 160.136C307.23 163.388 308.055 170.093 305.132 173.712C303.002 176.349 300.561 178.819 295.697 175.873C297.947 174.723 299.96 174.344 301.135 172.992C304.715 168.869 304.163 164.519 296.849 159.847C298.388 158.649 299.379 158.078 300.342 158.119Z" filter="url(#Filter_zxcv_2)" shadowAngle="1.571" shadowColor="#000000" shadowOffset="1" shadowOpacity=".5" shadowRadius="2"/><path id="zxcv-133" fill="#d9a28d" stroke="none" d="M301.119 173.002C304.699 168.88 304.179 164.524 296.865 159.853C299.942 157.456 300.816 157.492 303.697 160.14C307.236 163.393 308.057 170.092 305.134 173.712C303.004 176.349 300.571 178.806 295.707 175.859C297.957 174.709 299.944 174.355 301.119 173.002Z" opacity=".523"/></g><g id="zxcvGroup-15" opacity="1"><path id="zxcv-133" fill="#dea38b" stroke="none" d="M99.2692 177.579C93.7161 177.764 90.0928 169.997 92.165 164.631C93.1886 161.98 95.081 160.153 97.0728 159.207C99.0384 158.274 100.915 159.552 100.991 160.056C101.06 160.519 99.5782 160.822 98.7461 161.396C92.9394 165.405 93.184 172.428 100.509 175.224C101.269 175.514 100.056 177.553 99.2692 177.579Z" filter="url(#Filter_zxcv_3)" shadowAngle="1.571" shadowColor="#715b52" shadowOffset="1" shadowOpacity=".5" shadowRadius="2"/><path id="zxcv-1" fill="#f3b69e" stroke="none" d="M109.346 143.508L99.1911 143.652C94.5869 143.687 89.301 146.179 86.5149 150.818C81.392 159.349 79.1284 171.784 87.3072 181.68C91.5745 187.601 99.2421 188.032 106.141 187.658C107.255 172.798 108.281 158.418 109.346 143.508ZM98.5068 158.885C99.8675 158.874 100.935 159.696 100.992 160.073C101.061 160.536 99.591 160.831 98.7589 161.406C92.9522 165.415 93.1986 172.438 100.524 175.234C101.284 175.525 100.05 177.549 99.2631 177.575C93.71 177.76 90.0966 170.013 92.1688 164.647C93.1924 161.996 95.0746 160.155 97.0664 159.209C97.5578 158.976 98.0533 158.889 98.5068 158.885Z" filter="url(#Filter_zxcv_4)" shadowAngle="1.571" shadowColor="#000000" shadowOffset="1" shadowOpacity=".5" shadowRadius="2"/><path id="zxcv-115" fill="#dea38b" stroke="none" d="M99.2692 177.579C93.7161 177.764 90.0928 169.997 92.165 164.631C93.1886 161.98 95.081 160.153 97.0728 159.207C99.0384 158.274 100.915 159.552 100.991 160.056C101.06 160.519 99.5782 160.822 98.7461 161.396C92.9394 165.405 93.184 172.428 100.509 175.224C101.269 175.514 100.056 177.553 99.2692 177.579Z" opacity=".489"/></g></g><path id="zxcv" fill="#efb198" stroke="none" d="M251.39 238.757C274.18 232.889 278.067 169.781 279.515 148.003C260.968 139.395 259.586 135.609 258.075 117.102L141.903 116.909C143.279 141.912 125.28 146.884 118.943 147.695C118.753 167.42 119.559 229.725 150.512 240.806L199.884 256.506L251.39 238.757Z" filter="url(#Filter_zxcv_5)" shadowAngle="1.571" shadowColor="#000000" shadowOffset=".778" shadowOpacity=".6" shadowRadius="2.569"/><path id="zxcv-98" fill="#f4b69d" stroke="none" d="M138.41 132.693C139.523 130.875 139.739 128.602 139.544 124.156C139.35 119.711 137.631 114.91 137.631 114.91L199.884 115.411L199.884 254.563C199.884 254.563 167.867 250.518 150.253 237.861C132.64 225.205 131.096 217.86 128.67 203.936C125.751 187.177 122.718 170.438 119.723 153.692C119.225 150.91 118.671 148.139 118.066 144.958C118.479 144.798 119.503 143.99 120.208 143.763C122.924 142.888 127.018 142.1 130.725 139.923C134.764 137.551 137.629 133.969 138.41 132.693Z" opacity="1"/><g id="zxcvGroup-1" opacity="1"><path id="zxcv-116" fill="#f3b399" stroke="none" d="M226.877 244.494C226.877 244.494 227.005 117.693 227.008 113.05C237.115 113.012 247.762 113.019 258.435 113.011C258.619 115.814 257.917 121.812 257.917 121.812C257.917 121.812 257.149 126.197 259.238 130.077C261.327 133.957 266.273 137.334 266.273 137.334C266.273 137.334 270.894 140.223 273.202 140.695C279.185 141.918 281.915 146.195 280.694 151.766C276.52 170.81 269.285 209.138 269.285 209.138C268.182 214.658 267.35 218.392 263.544 224.289C258.889 231.501 232.262 249.756 226.877 244.494Z" opacity="1"/><path id="zxcv-128" fill="#f0ae94" stroke="none" d="M229.935 246.134C229.857 246.116 201.658 251.964 199.884 253.312C199.884 253.312 199.882 141.503 199.884 116.749C206.002 116.376 230.444 116.703 230.444 116.703C230.444 116.703 230.418 234.83 229.935 246.134Z" opacity="1"/></g><g id="Nose" filter="url(#Filter_zxcv_6)" shadowAngle="1.571" shadowColor="#9c7464" shadowOffset="0" shadowOpacity=".5" shadowRadius="1"><path id="zxcv-153" fill="#f8c4b0" stroke="none" d="M190.796 201.453C188.005 199.85 184.302 196.679 184.327 194.213C184.351 191.74 188.158 188.813 190.921 187.046C192.558 186 199.738 186.816 199.814 186.866C199.902 186.925 199.81 197.392 199.814 202.029C199.814 202.029 192.814 202.612 190.796 201.453Z" filter="url(#Filter_zxcv_7)" shadowAngle="1.571" shadowColor="#9c7464" shadowOffset="1" shadowOpacity=".5" shadowRadius="1"/><path id="zxcv-163" fill="#dea58d" stroke="none" d="M199.814 202.038C199.814 197.636 199.812 192.005 199.814 186.834C202.495 186.33 204.623 185.932 206.647 187.095C209.442 188.701 213.154 191.868 213.131 194.335C213.108 196.806 209.293 199.735 206.527 201.502C204.886 202.55 202.617 202.014 199.814 202.038Z" filter="url(#Filter_zxcv_8)" shadowAngle="1.571" shadowColor="#9c7464" shadowOffset="1" shadowOpacity=".5" shadowRadius="1"/></g><g id="Mouth" filter="url(#Filter_zxcv_9)" shadowAngle="1.571" shadowColor="#9c7464" shadowOffset="0" shadowOpacity=".5" shadowRadius="1"><path id="zxcv-159" fill="#dda28a" stroke="none" d="M199.814 241.119C194.362 240.658 188.816 240.308 183.971 239.424C182.695 239.192 180.394 236.985 180.696 235.69C180.997 234.395 183.695 234.208 185.177 234.243C189.351 234.342 195.12 234.354 199.814 234.697L199.814 241.119Z" filter="url(#Filter_zxcv_10)" shadowAngle="1.571" shadowColor="#9c7464" shadowOffset="1" shadowOpacity=".5" shadowRadius="1"/><path id="zxcv-160" fill="#d69d86" stroke="none" d="M199.814 241.119L199.814 234.697C205.094 234.368 208.24 234.383 212.999 234.313C214.651 234.289 217.599 234.522 217.978 235.83C218.356 237.137 215.842 239.314 214.513 239.543C209.657 240.38 205.274 240.666 199.814 241.119Z" filter="url(#Filter_zxcv_11)" shadowAngle="1.571" shadowColor="#9c7464" shadowOffset="1" shadowOpacity=".5" shadowRadius="1"/></g></g><g id="Shirt" filter="url(#Filter_zxcv_12)" shadowAngle="1.571" shadowColor="#000000" shadowOffset=".778" shadowOpacity=".6" shadowRadius="2.569"><path id="zxcv-1" fill="#272223" stroke="none" d="M329.515 344.222C312.16 363.256 269.977 395.982 242.672 397.356C255.292 383.718 260.519 370.732 270.426 356.673C274.308 351.164 279.879 350.523 291.714 342.004C301.912 334.66 309.888 326.951 311.859 328.212C317.595 331.879 323.304 341.963 329.515 344.222Z" opacity="1"/><path id="zxcv" fill="#272223" stroke="none" d="M70.4849 342.018C87.8399 361.052 130.023 393.778 157.328 395.152C144.708 381.514 139.481 368.528 129.574 354.469C125.692 348.959 120.121 348.319 108.286 339.799C98.0881 332.455 90.112 324.746 88.141 326.007C82.405 329.675 76.6957 339.758 70.4849 342.018Z" opacity="1"/></g><g id="Collar" filter="url(#Filter_zxcv_13)" shadowAngle="1.571" shadowColor="#000000" shadowOffset=".778" shadowOpacity=".6" shadowRadius="2.569"><g id="right" opacity="1"><path id="zxcv" fill="#c0bebf" stroke="none" d="M319.4 294.786C318.964 295.223 317.344 297.64 317.305 298.214C317.181 299.992 318.185 302.287 316.924 303.547C314.459 301.698 314.905 304.996 313.877 306.024C313.59 305.738 313.59 305.738 313.305 305.452C312.701 306.056 312.547 307.491 311.782 307.927C311.433 308.127 310.923 308.024 310.639 308.309C310.829 308.499 310.829 308.499 311.02 308.689C309.979 310.772 310.479 313.008 309.496 314.975C308.445 317.077 310.845 319.719 309.115 321.449C308.29 320.623 309.385 312.532 305.877 314.403C305.082 314.827 304.639 315.831 303.782 316.117C303.782 317.33 304.26 318.877 303.402 319.735C303.116 319.449 303.116 319.449 302.831 319.164C302.639 319.259 302.639 319.259 302.449 319.354C298.724 315.628 298.1 326.561 297.689 326.972C296.763 326.047 297.921 324.653 297.117 323.734C292.824 318.828 292.786 327.925 291.214 327.925C289.448 327.925 288.889 325.02 286.261 328.305C286.071 328.115 286.071 328.115 285.881 327.925C283.987 329.819 287.014 333.267 285.119 335.161C284.36 334.401 284.219 332.066 283.976 330.972C283.681 329.64 280.393 329.961 279.786 330.972C278.364 333.343 280.044 338.903 278.453 340.494C277.551 339.592 278.301 337.941 278.072 336.685C278.009 336.331 277.347 336.28 277.31 335.923C277.084 333.65 277.431 331.35 277.31 329.067C277.298 328.819 276.721 328.582 276.548 328.495C275.326 329.72 277.01 331.653 275.787 332.876C275.598 332.781 275.598 332.781 275.406 332.686C274.131 333.96 275.594 335.928 274.836 337.448C274.452 338.212 273.083 339.084 272.931 339.923C272.524 342.158 273.816 343.373 271.598 344.112C271.598 346.682 270.646 349.205 269.693 351.349C269.291 352.255 268.203 352.803 268.55 354.016C268.761 354.755 273.895 353.027 274.264 351.921C276.941 351.921 278.311 350.895 280.548 350.398C281.12 350.27 281.635 348.934 282.263 348.683C283.913 348.023 285.963 347.793 287.404 346.969C288.223 346.502 288.592 345.325 289.499 345.065C292.877 344.1 295.199 340.816 298.451 339.733C300.625 339.007 302.586 336.678 304.354 335.161C306.556 333.274 308.65 330.867 310.639 328.877C311.403 328.114 312.756 327.5 313.305 326.4C313.814 325.383 314.647 323.457 315.4 322.402C316.744 320.52 317.884 319.516 318.448 317.26C318.722 316.16 319.806 314.845 319.972 314.022C320.795 309.904 320.703 304.441 320.543 300.119C320.473 298.267 321.313 295.743 319.4 294.786Z" opacity="1"/><path id="zxcv" fill="#e8e8e8" stroke="none" d="M319.019 274.98C318.176 275.824 319.278 277.041 318.067 277.646C316.136 278.612 313.74 277.439 311.592 277.646C306.85 278.105 302.071 278.027 297.309 278.027C295.763 278.027 288.552 278.273 288.166 279.17C288.095 279.338 288.038 280.299 288.547 280.313C293.179 280.435 297.816 280.375 302.449 280.313C307.52 280.246 312.096 279.36 317.305 279.36C317.383 279.36 319.562 279.291 319.59 279.741C319.709 281.643 319.709 283.554 319.59 285.454C319.578 285.634 319.387 285.815 319.21 285.836C315.057 286.297 308.186 286.051 304.544 285.646C304.187 285.605 304.136 284.951 303.782 284.884C303.419 284.814 298.936 284.399 298.26 285.074C295.217 283.553 290.83 285.392 287.594 284.313C287.594 282.973 288.16 281.259 287.214 280.313C285.894 281.633 286.559 285.158 286.261 286.788C286.198 287.141 285.574 287.198 285.5 287.549C285.432 287.873 284.977 291.812 284.928 292.502C284.811 294.211 285.047 295.934 284.928 297.643C284.905 298 284.16 298.152 283.976 298.214C283.976 299.04 284.009 299.866 283.976 300.691C283.946 301.455 283.888 302.219 283.786 302.976C283.472 305.328 287.037 303.753 288.166 304.881C287.976 305.166 287.976 305.166 287.786 305.452C288.515 306.181 295.23 306.409 296.737 306.785C298.447 307.212 297.935 309.325 300.127 309.712C300.617 309.798 301.997 308.678 302.449 308.88C304.18 309.649 306.877 309.326 308.734 310.022C309.842 310.437 309.132 314.228 309.877 314.975C310.87 313.982 310.33 312.417 310.456 311.021C310.535 310.155 311.819 308.36 312.353 307.737C310.722 306.105 308.036 308.232 306.259 307.166C304.93 306.369 302.868 305.86 301.244 305.565C298.963 305.15 297.068 304.996 295.022 304.119C293.907 303.641 293.237 304.125 292.04 303.592C291.44 303.326 290.655 303.073 290.071 302.976C288.851 302.773 287.416 303.172 286.261 302.594C285.048 301.988 283.863 298.961 285.691 298.596C286.222 298.49 287.887 299.352 289.617 299.697C292.114 300.196 294.816 300.294 295.022 300.499C295.624 300.2 307.214 303.055 309.115 303.166C309.222 303.173 313.169 302.92 313.495 304.119C314.077 306.25 312.65 309.748 314.257 311.355C315.876 309.738 314.454 306.782 314.639 304.499C314.716 303.554 316.112 303.373 316.733 303.166C315.518 301.343 311.924 302.641 311.21 300.499C309.696 300.499 306.203 301.015 305.116 299.929C305.306 299.738 305.306 299.738 305.497 299.548C304.416 298.466 302.443 299.349 300.926 299.166C296.924 298.687 292.358 297.316 287.976 297.071C287.598 297.051 287.393 297.146 287.024 296.881C285.728 295.956 286.028 295.328 286.261 293.454C286.345 292.787 294.015 292.826 295.214 294.026C297.079 293.091 302.815 294.464 304.926 295.167C308.605 296.395 313.062 294.842 316.733 296.309C317.613 296.662 316.844 297.755 317.495 298.404C318.565 297.335 318.683 296.893 319.019 295.548C319.273 294.533 319.861 293.692 320.655 301.318C320.876 298.785 320.876 294.872 320.923 294.405C321.256 291.149 321.051 284.373 320.352 280.884C319.995 279.099 320.467 276.429 319.019 274.98Z" opacity="1"/><path id="zxcv" fill="#fcfafb" stroke="none" d="M287.786 272.885C286.346 274.324 287.459 276.945 287.404 278.98C287.388 279.555 287.214 280.119 287.214 280.693C287.214 282.026 287.099 283.364 287.214 284.693C287.277 285.41 289.548 284.884 289.881 284.884C292.68 284.884 295.756 284.203 298.26 285.454C299.055 284.659 303.45 285.189 303.782 285.264C304.132 285.345 304.187 285.993 304.544 286.026C308.418 286.378 315.135 286.623 319.4 286.216C319.668 286.191 319.948 285.913 319.972 285.646C320.144 283.621 320.144 281.575 319.972 279.551C319.895 278.666 313.59 279.291 312.694 279.341C311.494 279.408 306.686 280.176 305.491 280.176C298.98 280.176 295.851 280.025 288.928 279.931C288.749 279.929 288.673 279.677 288.547 279.551C288.738 279.265 288.738 279.265 288.928 278.98C290.659 279.845 294.867 278.408 296.927 278.408C304.024 278.408 311.179 278.027 318.067 278.027C320.943 278.027 317.018 269.734 316.543 269.648C314.643 269.303 312.923 270.546 311.21 270.79C306.108 271.52 301.356 271.682 296.546 272.885C294.479 273.403 289.482 274.159 287.786 272.885Z" opacity="1"/><path id="zxcv" fill="#fcfafb" stroke="none" d="M290.833 245.462C288.93 247.364 290.266 253.035 290.136 256.364C290.1 257.293 290.329 257.964 289.881 258.412C289.499 258.125 289.499 258.125 289.119 257.84C288.992 257.966 288.746 258.042 288.738 258.22C288.616 260.947 288.738 263.68 288.738 266.41C288.738 267 287.852 272.885 290.452 272.885C291.037 272.885 291.214 271.872 291.786 271.742C293.037 271.458 294.493 271.833 295.594 271.17C296.886 270.397 297.793 271.638 299.022 270.408C299.847 270.821 301.017 270.305 301.878 270.218C304.135 269.993 313.389 268.261 314.639 268.886C316.433 267.092 311.046 259.929 309.115 260.316C306.671 260.805 304.223 261.793 302.069 262.601C300.473 263.2 298.244 262.832 296.546 263.173C294.552 263.571 291.564 265.385 289.499 264.696C289.499 263.184 289.184 263.677 289.881 262.982C291.102 264.204 302.162 259.775 303.211 259.554C303.505 259.493 306.959 260.12 307.401 258.792C308.372 255.877 302.261 253.846 301.497 251.555C299.926 251.555 295.266 248.289 294.832 246.984C294.033 246.984 291.31 245.936 290.833 245.462Z" opacity="1"/><path id="zxcv" fill="#fcfafb" stroke="none" d="M283.596 302.786C282.372 304.008 282.643 306.627 282.643 308.309C282.643 309.452 282.419 310.616 282.643 311.737C282.834 312.693 286.493 313.37 287.214 313.45C288.294 313.571 288.818 314.625 289.689 314.975C290.528 315.31 292.23 315.088 293.118 315.355C294.254 315.696 295.081 316.777 296.166 317.26C297.002 317.632 300.238 317.374 300.989 318.126C299.854 318.349 296.062 318.313 294.124 317.678C289.954 316.311 284.036 313.113 281.31 314.022C281.31 314.784 281.16 315.56 281.31 316.308C281.474 317.131 290.21 320.078 291.786 321.259C292.861 322.066 294.446 321.245 295.022 322.972C298.731 322.972 295.579 328.349 298.07 327.353C299.209 326.897 297.927 318.08 302.069 319.354C303.297 319.733 302.527 320.764 303.211 321.449C305.695 320.206 304.348 318.038 305.116 315.927C305.783 314.093 307.893 314.681 308.164 316.308C308.426 317.89 307.671 321.529 308.734 322.592C310.53 320.796 310.215 318.648 310.067 315.545C310.032 314.817 310.492 313.555 310.36 312.539C310.203 311.324 309.414 310.385 308.839 310.093C307.419 309.372 306.612 308.832 304.394 309.178C303.074 309.382 302.989 308.199 301.718 307.876C299.549 307.324 296.939 306.454 296.737 306.404C294.721 305.9 289.733 306.722 288.928 304.309C286.616 304.309 285.029 304.22 283.596 302.786Z" opacity="1"/><path id="zxcv" fill="#e8e8e8" stroke="none" d="M283.349 307.031C282.247 308.131 281.958 311.346 281.691 312.88C281.641 313.167 280.607 313.987 280.548 314.403C280.153 317.174 279.785 319.178 279.405 321.83C279.291 322.637 278.142 323.545 278.072 324.305C277.958 325.571 278.236 326.855 278.072 328.115C278.009 328.606 276.969 328.573 276.93 329.067C276.75 331.346 276.702 333.65 276.93 335.923C276.966 336.28 277.63 336.331 277.691 336.685C277.933 338.073 277.266 339.879 278.263 340.876C278.928 340.542 278.53 340.77 279.405 340.113C279.092 339.484 279.251 331.482 280.738 330.591C284.538 328.311 283.826 336.624 285.309 335.733C287.029 334.701 285.725 331.533 285.881 330.4C285.939 329.981 287.229 327.552 287.786 327.353C288.454 327.114 289.379 327.473 289.881 326.972C289.167 326.259 289.394 326.656 289.119 325.83C287.395 325.83 286.675 324.73 285.119 324.305C282.664 323.636 280.072 323.064 280.548 319.735C280.745 318.359 285.851 320.658 286.261 321.068C286.362 321.169 286.502 321.259 286.643 321.259C286.932 321.259 291.903 322.876 291.976 322.972C292.513 323.691 292.786 324.47 292.79 325.891C292.793 326.91 293.007 323.657 294.071 323.163C295.641 322.434 296.251 324.123 296.889 323.484C295.979 322.576 293.672 321.727 292.547 321.259C291.601 320.865 291.79 320.022 290.833 319.735C289.008 319.187 286.666 318.997 285.309 317.641C283.298 318.646 280.045 314.618 282.071 314.213C283.827 313.861 284.265 314.532 285.5 315.355C285.713 315.496 287.05 315.475 287.214 315.545C289.496 316.523 291.613 317.217 294.071 317.832C294.697 317.988 298.477 321.257 299.024 321.424C299.849 321.679 299.965 319.899 300.777 319.605C302.35 319.031 301.373 320.538 302.487 319.423C301.43 318.365 300.42 317.162 298.9 316.897C296.304 316.447 290.994 314.295 287.612 313.182C285.535 312.499 285.279 312.869 283.596 312.308C282.144 311.823 283.962 308.259 283.349 307.031Z" opacity="1"/><path id="zxcv" fill="#fcfafb" stroke="none" d="M305.116 300.691C307.382 300.691 309.369 300.728 311.21 301.833C313.575 303.252 314.937 301.423 316.733 304.119C317.293 303.838 316.98 303.973 317.685 303.737C317.685 301.324 318.258 298.79 317.495 296.501C317.055 295.181 309.372 294.976 308.164 294.976C301.495 294.976 292.98 291.541 286.261 292.502C285.061 292.672 285.575 294.946 285.881 296.119C286.337 297.868 290.004 297.373 290.833 297.453C294.128 297.768 297.876 299.112 300.926 299.548C303.242 299.879 304.423 298.609 305.116 300.691Z" opacity="1"/><path id="zxcv" fill="#fcfafb" stroke="none" d="M287.024 285.454C285.494 286.089 286.516 288.756 286.643 290.407C286.657 290.586 286.848 290.752 287.024 290.787C293.82 292.146 300.909 291.738 307.972 292.502C309.168 292.63 310.764 293.835 312.162 293.835C313.39 293.835 319.969 295.194 320.162 292.882C320.295 291.275 321.132 289.325 319.781 288.312C318.695 287.497 311.612 288.121 309.877 288.121C307.517 288.121 303.842 288.124 301.687 287.741C299.773 287.398 301.825 286.684 300.354 286.979C297.429 287.563 294.387 287.041 291.404 286.979C290.484 286.959 288.698 287.219 287.976 286.979C287.2 286.72 287.656 285.192 287.024 285.454Z" opacity="1"/><path id="zxcv" fill="#fcfafb" stroke="none" d="M301.116 306.594C302.317 305.994 305.228 306.896 306.068 307.737C307.902 306.82 310.732 308.957 312.734 307.356C313.862 306.454 314.618 304.407 313.305 303.357C311.706 302.079 308.445 303.723 306.639 302.594C304.92 301.52 303.244 302.128 301.306 301.642C300.592 301.465 300.031 300.499 299.404 300.499C296.195 300.499 292.755 299.601 289.499 299.166C288.406 299.02 286.64 297.771 285.309 298.214C284.078 298.625 284.694 301.466 284.738 301.642C285.236 303.636 288.844 303.006 290.071 303.357C292.236 303.975 299.75 305.228 301.116 306.594Z" opacity="1"/><path id="zxcv" fill="#e8e8e8" stroke="none" d="M288.738 266.41C287.12 268.029 288.23 270.98 288.356 273.266C288.364 273.405 288.951 273.837 289.119 273.837C294.549 273.837 300.243 273.045 305.279 271.785C309.208 270.803 312.486 271.273 316.353 270.218C318.033 269.761 314.914 266.433 314.588 266.027C313.918 266.698 315.32 268.07 314.448 268.506C313.521 268.968 311.269 268.372 310.067 268.506C307.738 268.764 300.823 270.929 299.022 270.028C297.088 271.962 291.671 269.8 290.833 272.313C287.797 272.313 290.208 267.882 288.738 266.41Z" opacity="1"/><path id="zxcv" fill="#fcfafb" stroke="none" d="M280.548 318.782C279.471 318.928 280.041 320.941 280.167 322.02C280.409 324.077 287.392 325.153 288.738 326.21C288.805 326.264 290.118 328.579 291.214 328.305C293.417 327.755 293.59 323.098 291.594 322.21C291.016 321.954 289.868 322.389 289.309 321.83C287.582 320.103 283.237 318.418 280.548 318.782Z" opacity="1"/><path id="zxcv" fill="#e8e8e8" stroke="none" d="M310.067 260.125C309.623 259.236 308.295 257.715 307.401 257.268C306.827 257.845 307.386 258.61 306.639 258.983C305.333 259.636 298.334 259.86 297.309 260.887C297.499 261.078 297.499 261.078 297.689 261.268C296.241 262.715 292.589 261.226 290.833 262.982C290.547 262.792 290.547 262.792 290.261 262.601C290.833 261.458 290.781 258.137 290.642 256.888C290.583 256.359 289.525 256.326 289.499 256.888C289.379 259.614 289.379 262.351 289.499 265.077C289.542 266.042 295.957 263.746 297.117 263.553C299.849 263.098 302.313 262.874 304.926 262.22C305.61 262.05 306.129 261.078 306.83 261.078C308.123 261.078 309.064 261.129 310.067 260.125Z" opacity="1"/><path id="zxcv" fill="#e8e8e8" stroke="none" d="M284.892 302.581C283.576 303.681 283.228 306.895 282.91 308.429C282.849 308.717 280.942 310.167 283.365 309.762C285.465 309.411 285.989 310.082 287.465 310.905C287.72 311.046 289.318 311.025 289.514 311.095C292.244 312.073 294.775 312.767 297.715 313.382C298.463 313.538 304.916 319.461 304.916 319.461C304.916 319.461 304.802 315.19 305.978 315.205C306.881 315.216 307.947 315.3 307.947 315.3C306.682 314.241 305.307 312.711 303.49 312.447C300.386 311.997 294.034 309.845 289.992 308.732C287.507 308.049 287.2 308.418 285.187 307.858C283.451 307.373 285.626 303.809 284.892 302.581Z" opacity="1"/><path id="zxcv" fill="#e8e8e8" stroke="none" d="M290.136 256.364C290.427 256.335 292.034 254.869 292.236 254.815C295.033 254.058 298.734 252.73 301.497 251.555L299.243 250.638C297.769 250.414 296.468 251.521 294.621 252.054C293.154 252.478 291.083 252.282 290.173 252.603L290.136 256.364Z" opacity="1"/></g><g id="zxcvGroup-9" opacity="1"><path id="zxcv-4" fill="#c0bebf" stroke="none" d="M78.5645 299.005C75.159 305.687 78.0976 301.92 79.1967 303.308C79.521 303.718 78.7644 305.857 79.5197 305.712C79.5197 305.712 80.7184 305.309 81.0053 306.053C81.1553 306.442 80.6973 308.466 81.1923 309.91C81.644 311.227 82.5304 293.813 81.4222 294.769C81.1755 294.343 81.298 294.582 80.0805 292.958C79.9808 287.472 81.1023 273.739 80.2838 273.917C79.0668 274.184 78.4926 277.293 77.9285 278.742C77.6913 279.35 76.8752 282.682 76.6243 283.937C75.8816 287.656 73.7748 291.724 77.9285 287.477C74.8938 293.485 74.9417 294.414 77.297 293.707C78.4303 296.196 75.5205 302.773 78.5645 299.005ZM83.1392 319.017C82.3887 320.371 81.9281 325.942 85.3875 324.875C85.3875 324.875 86.6068 324.333 87.0513 324.955C87.2838 325.28 87.1573 327.161 87.9534 328.379C88.6796 329.489 90.2753 329.965 91.5737 329.855C90.401 331.991 92.8293 335.908 96.7761 334.221C95.7657 337.465 99.5075 341.544 102.315 338.793C102.27 344.427 105.148 344.565 109.109 342.067C108.863 346.53 111.379 346.228 113.066 346.79C113.537 346.947 113.554 347.759 114.019 347.933C116.271 348.779 118.074 348.952 120.113 350.409C121.858 351.655 125.629 351.34 126.398 353.646C133.231 353.646 126.76 349.882 126.588 346.79C126.532 345.776 126.7 344.753 126.588 343.743C126.524 343.161 125.43 343.159 125.255 342.601C124.638 340.625 126.018 340.316 124.303 339.744C124.303 336.363 123.257 337.566 122.97 335.745C122.811 334.742 123.082 333.707 122.97 332.698C122.91 332.163 122.385 329.902 121.242 329.649C120.722 329.533 120.268 330.888 119.571 331.171C121.252 324.378 119.199 322.854 118.557 322.212C118.557 323.014 118.014 326.168 117.263 328.922C116.098 333.191 115.646 331.715 115.064 333.086C114.598 334.183 115.25 337.223 113.657 338.816C112.855 337.775 113.087 334.458 113.053 333.393C112.909 328.938 110.417 326.713 109.658 327.007C109.525 327.059 109.136 326.972 108.598 328.251C107.989 329.699 107.924 334.031 107.734 334.221C106.997 333.484 107.59 331.129 106.21 331.745C106.661 330.239 107.04 328.759 106.741 326.596C106.391 324.058 105.761 321.89 104.115 322.032C102.845 322.142 102.937 325.305 101.639 326.603C100.156 325.614 101.002 323.102 100.428 320.975C100.232 320.251 99.9024 319.563 99.5115 319.162C98.8408 318.477 97.9903 318.436 97.3285 319.038C96.2811 319.989 96.2947 322.235 95.7357 322.794C94.914 321.972 95.1936 318.723 94.9769 316.799C94.847 315.647 94.3225 314.014 93.3306 313.887C92.2347 313.745 91.5511 315.615 91.2022 317.057C90.8865 318.362 90.6484 321.071 90.6484 321.071C90.6484 321.071 90.4366 321.236 90.2127 321.46C88.8191 320.764 91.008 302.12 85.8325 311.177C85.1977 312.287 86.4731 313.773 85.4515 314.795C84.7826 314.127 86.271 297.854 82.2139 303.94C81.6223 303.545 81.4842 294.026 79.7381 294.608C78.4743 295.03 79.1312 298.94 78.786 300.321C78.2112 302.62 76.9241 309.959 79.3574 308.13C79.5207 309.192 77.9399 315.71 80.8104 314.468C82.3772 314.448 78.4303 319.889 83.1392 319.017Z" opacity="1"/><path id="zxcv-3" fill="#fcfafb" stroke="none" d="M107.768 241.304C107.301 243.221 107.416 243.189 106.483 245.289C106.196 245.935 105.486 246.198 104.877 246.805C101.999 249.684 97.7739 251.624 94.7835 254.614C93.5931 255.805 91.4786 256.507 92.1172 258.423C92.2707 258.884 95.2941 260.008 98.0894 260.546C100.255 260.963 102.316 260.813 102.592 261.09C102.497 261.28 102.497 261.28 102.401 261.47C103.953 263.023 107.635 261.114 108.876 263.185C109.415 264.082 106.84 264.222 105.829 263.946C104.025 263.454 101.215 263.067 99.5447 262.232C98.6929 261.806 97.6157 262.446 96.6879 262.232C93.9883 261.61 92.6753 259.724 89.2604 260.328C86.9901 260.728 86.2438 264.668 84.874 266.038C84.108 266.971 82.152 270.174 81.5954 270.73C81.4024 270.586 79.7161 272.296 80.2642 273.894C80.745 275.296 80.388 277.172 80.8809 277.468C81.0191 277.551 82.0341 277.843 82.2139 277.848C87.4184 277.973 92.6261 277.917 97.8306 278.039C100.609 278.104 107.534 277.458 109.448 279.373C109.321 279.563 109.296 279.931 109.067 279.943C105.898 280.126 102.719 279.943 99.5447 279.943C96.6925 279.943 93.7296 279.753 90.9745 279.753C90.3492 279.753 89.8708 279.127 89.2604 278.991C87.3862 278.575 81.8914 278.31 79.9286 278.801C79.6673 278.865 79.3796 279.104 79.3574 279.373C79.1833 281.461 79.147 282.864 79.2666 284.955C79.2768 285.135 79.5604 286.013 79.7381 286.038C80.6996 286.175 81.6246 285.506 82.5948 285.466C87.1619 285.284 91.738 285.59 96.3071 285.466C100.797 285.345 104.969 285.116 109.829 284.896C110.029 284.886 110.221 284.795 110.4 284.704C111.737 284.036 111.364 281.819 111.352 280.324C111.345 279.409 110.807 279.409 110.308 279.115C108.713 278.179 109.829 274.793 109.829 273.087C109.829 270.866 109.848 268.644 109.829 266.423C109.784 261.216 109.824 256.008 109.638 250.805C109.632 250.626 109.384 250.552 109.257 250.424C109.067 250.614 109.067 250.614 108.876 250.805C107.537 249.465 109.173 248.241 108.284 246.6C107.937 245.96 108.831 243.615 107.768 241.304ZM90.4032 293.276C91.4194 292.258 97.292 292.744 98.2115 292.704C101.048 292.58 103.726 291.709 107.924 291.181C109.366 290.999 111.142 290.983 112.305 291.371C112.305 293.175 107.811 292.494 106.21 292.894C100.954 294.209 95.0202 294.396 89.8318 295.369C87.5368 295.801 84.4399 294.952 82.2139 295.941C81.5506 296.197 80.5991 303.277 81.8332 304.511C82.8473 304.003 83.1752 302.262 84.3088 302.036C85.9663 301.704 88.0896 302.431 89.6413 301.654C91.4012 300.775 93.804 301.382 95.5453 300.512C97.3748 299.596 98.1669 299.818 100.497 299.559C102.49 299.338 105.587 298.434 107.353 297.846C109.073 297.273 111.204 297.744 112.876 297.464C114.259 297.234 113.293 294.678 113.257 293.276C113.242 292.678 113.264 291.732 113.133 290.699C112.931 289.105 112.466 287.342 111.733 286.609C111.189 286.882 109.736 286.6 109.257 286.609C106.401 286.662 103.542 286.678 100.687 286.799C96.1733 286.992 91.7648 287.752 87.1655 287.752C84.9353 287.752 82.0807 287.727 79.9286 287.943C79.75 287.96 79.5601 288.144 79.5477 288.324C79.4298 290.033 79.3283 291.765 79.5477 293.466C79.5604 293.565 79.8755 292.948 80.0805 292.958C80.4242 292.976 79.8224 294.5 79.9422 294.584C80.0544 294.661 80.1971 294.17 80.3095 294.226C82.199 295.172 88.4585 292.303 90.4032 293.276ZM89.6413 322.032C89.8318 321.842 89.8318 321.842 90.0223 321.652C90.1006 321.73 90.4533 319.213 91.1376 316.77C91.4934 315.501 91.8126 313.737 92.498 313.462C93.4196 313.093 94.7936 313.743 95.7357 313.272C99.6425 311.318 104.725 311.394 108.496 308.702C108.856 308.444 114.304 307.987 114.399 307.177C114.708 304.557 114.836 300.923 114.209 298.416C114.041 297.744 111.639 298.56 111.162 298.797C107.952 300.403 102.896 299.293 99.9255 301.274C98.8946 301.961 95.8112 301.582 94.7835 301.654C94.3705 301.684 94.1068 302.278 93.8313 302.416C92.8392 302.913 89.2295 302.712 88.4988 302.797C88.2684 302.824 85.8989 303.832 85.8325 304.13C85.6046 305.156 83.3538 316.053 85.8325 315.558C86.3514 315.454 85.8664 310.018 87.737 309.082C88.5272 308.687 89.241 311.113 89.2604 311.367C89.3773 312.887 89.2604 314.415 89.2604 315.938C89.2604 317.338 89.4509 321.842 89.6413 322.032ZM101.449 327.175C103.349 325.907 101.706 323.238 104.115 322.032C105.378 321.401 107.327 321.895 108.686 321.08C110.165 320.192 111.789 319.157 113.447 318.604C114.244 318.339 116.624 318.274 116.875 317.082C117.099 316.018 117.566 314.022 116.494 313.843C116.312 313.813 114.445 314.352 112.046 315.068C108.095 316.248 102.702 317.909 101.016 318.303C103.453 315.864 107.671 315.207 110.781 313.653C111.671 313.207 115.246 313.918 115.542 312.51C115.766 311.446 116.216 309.536 115.161 309.272C113.814 308.935 108.969 310.741 108.132 311.159C107.678 311.386 100.049 313.496 99.3542 313.843C98.2936 314.374 96.4465 313.611 95.7357 314.795C95.1519 315.768 95.5622 316.391 95.3548 317.843C95.1385 319.356 94.7415 320.902 94.9739 322.413C95.0873 323.151 96.5041 323.646 96.6879 322.603C96.9716 320.996 95.933 318.362 98.7829 319.175C99.223 319.301 99.7799 320.302 99.7799 320.302C101.289 322.314 99.5491 325.275 101.449 327.175ZM110.972 322.032C106.047 319.57 107.295 329.575 106.21 331.745C106.945 332.48 106.238 333.296 106.972 334.031C107.162 333.936 107.543 334.031 107.734 334.221C109.477 332.477 107.022 327.966 110.019 326.603C111.516 325.923 117.488 325.142 118.018 323.175C119.908 316.154 111.508 320.423 110.972 322.032Z" opacity="1"/><path id="zxcv-1" fill="#e8e8e8" stroke="none" d="M79.9482 288.728C80.0397 287.493 82.73 288.347 83.7572 288.347C86.2343 288.347 88.8124 288.157 91.1846 288.157C92.2401 288.157 93.1041 287.394 94.2317 287.394C99.1643 287.394 103.899 287.315 109.087 287.204C109.876 287.188 111.202 287.128 111.753 286.633C112.291 286.15 112.076 285.242 110.991 284.157C109.948 285.2 98.7637 284.434 96.7075 284.729C91.9297 285.41 87.0563 284.921 82.2335 285.109C81.5103 285.138 80.8486 285.822 80.1387 285.681C79.9626 285.646 79.769 285.479 79.7578 285.299C79.6391 283.398 79.6391 281.487 79.7578 279.586C79.8058 278.82 82.5729 279.396 82.9953 279.396C85.7927 279.396 88.6947 280.158 91.3751 280.158C97.4538 280.158 103.514 280.348 109.658 280.348C109.968 280.348 110.981 280.557 110.991 279.968C111.006 279.047 106.981 277.857 102.718 277.74C96.0557 277.555 89.127 277.841 82.424 277.681C82.1183 277.674 81.3474 277.303 81.0909 277.11C80.2424 276.474 81.0221 274.657 80.2838 273.917C79.8699 274.331 79.0478 275.385 78.9961 275.968C78.76 278.624 79.0566 281.301 78.9961 283.966C78.9901 284.227 78.3072 283.75 78.45 286.131C78.5928 288.512 79.3769 292.348 79.5673 293.489C80.5824 293.895 79.8309 290.31 79.9482 288.728ZM113.657 307.201C111.97 308.466 109.755 307.843 107.754 308.344C107.082 308.512 103.726 309.164 103.726 310.621C101.515 309.486 99.315 311.882 97.4693 312.343C96.6763 312.542 93.4986 311.705 92.2969 313.254C91.3947 314.417 90.0478 320.937 90.0223 321.652C90.1851 321.569 90.6166 321.512 90.6484 321.071C90.7436 319.755 91.2022 317.057 91.2022 317.057C91.2022 317.057 91.696 315.251 92.4674 314.381C92.926 313.864 93.339 313.934 93.9156 314.182C94.1848 314.297 94.7123 315.146 94.8926 316.378C95.2498 318.816 93.8636 323.02 95.8658 323.228C94.9739 322.413 95.1225 316.024 96.517 314.629C97.0475 314.099 98.9591 314.739 99.7547 314.057C101.415 312.634 102.957 313.452 104.897 312.725C107.55 311.729 112.518 308.94 115.381 309.461C116.006 309.574 115.954 311.135 115.66 312.112C115.549 312.481 112.785 312.881 110.5 313.501C108.215 314.12 108.452 314.665 106.04 315.01C105.945 315.023 102.443 317.23 101.85 317.485C100.403 318.105 97.6534 318.282 96.9296 319.543C96.9296 319.543 97.8041 318.804 98.7829 319.175C99.9164 319.605 100.226 321.815 100.327 322.548C100.491 323.738 100.355 323.616 100.497 325.221C100.576 326.118 100.933 327.139 101.449 327.175C100.786 324.686 101.485 319.511 102.136 318.955C104.967 316.534 110.427 316.271 112.324 315.581C112.874 315.381 113.624 315.614 114.038 315.2C114.783 315.572 115.648 314.294 116.287 313.895C116.551 313.729 117.013 314.167 117.038 314.218C117.378 314.91 117.044 316.466 116.514 317.105C115.908 317.835 113.161 318.726 112.705 318.817C110.037 319.351 109.038 320.11 106.25 320.538C105.969 320.582 104.524 321.036 103.746 321.744C102.689 322.706 102.554 324.137 102.581 324.976C102.856 325.086 102.962 321.641 104.629 322.198C106.502 322.824 107.068 327.045 106.21 331.745C107.447 330.509 106.626 322.082 110.692 324.114C115.125 321.789 117.842 319.866 117.981 320.181C118.027 320.286 118.557 322.212 117.919 322.079C118.295 322.918 117.798 323.422 117.754 323.482C117.184 324.262 116.173 323.7 114.576 322.934C116.002 325.594 109.911 325.748 108.983 327.263C108.786 327.664 108.461 328.487 108.598 328.251C108.704 328.068 109.256 326.903 109.658 327.007C112.793 327.822 112.621 332.335 112.891 334.221C113.074 335.504 112.715 337.872 113.657 338.816C114.105 338.592 114.581 337.193 114.581 337.193C114.581 337.193 114.932 335.132 114.991 333.483C115.041 332.055 116.876 331.668 118.295 332.157C120.958 333.111 120.09 330.745 121.242 330.79C121.863 330.813 121.869 331.07 122.219 331.348C122.341 331.445 122.804 332.454 122.938 332.21C123.16 331.81 122.118 324.114 120.179 326.399C120.077 321.394 118.764 321.757 118.025 320.22C117.795 319.784 118.092 319.195 118.038 318.817C117.996 318.524 118.205 316.297 117.847 315.581C117.708 315.302 117.286 314.553 116.953 314.125C116.62 313.695 116.226 313.878 116.231 313.775C116.239 313.609 115.569 313.015 115.542 312.51C115.669 312.143 116.004 311.093 115.83 309.85C115.702 308.934 115.116 307.829 114.899 307.241C114.542 306.279 114.143 306.837 113.657 307.201ZM85.2572 315.372C84.8436 309.276 84.8205 303.433 88.5184 303.202C95.1288 302.789 101.419 301.441 107.526 299.914C109.942 299.311 111.782 300.075 113.717 298.138C113.183 297.604 113.812 296.407 113.579 295.872C113.182 294.961 106.161 297.8 103.564 298.059C102.628 298.152 102.992 298.726 101.469 299.011C99.9451 299.297 98.7395 298.991 97.4693 299.202C94.5184 299.694 91.6646 301.112 88.7088 301.297C87.6386 301.364 83.8744 301.691 83.1851 302.704C83.0457 302.909 82.8652 303.548 82.8367 303.613C82.7777 303.743 83.1018 303.07 83.3337 302.879C83.5698 302.683 83.8953 302.556 84.3277 303.014C85.3331 304.079 82.6014 314.536 85.2572 315.372ZM92.1368 256.923C90.8901 257.547 89.6806 259.179 88.8993 260.351C89.9687 261.421 92.4212 260.54 93.8509 261.113C94.3112 261.296 94.3428 262.071 94.8031 262.256C96.2048 262.816 98.1786 262.36 99.5643 262.636C101.508 263.026 103.909 263.963 105.849 264.351C106.574 264.496 108.973 264.7 109.877 264.343C109.877 264.343 109.735 263.438 109.781 262.648C109.826 261.856 105.205 261.862 104.135 261.685C103.253 261.538 102.936 260.295 102.421 260.16C101.254 259.856 100.008 260.211 98.8026 260.16C97.579 260.11 97.1181 259.011 96.1363 258.828C95.136 258.639 93.9359 259.201 93.0891 258.637C92.2133 258.053 92.7867 257.573 92.1368 256.923ZM84.8936 266.061C84.6134 266.378 84.3603 266.69 84.1276 266.994C83.0671 268.384 82.4331 269.641 81.6151 270.755C83.2399 271.763 86.6429 270.504 88.7322 270.933C89.4049 271.071 89.5249 271.897 90.1976 272.035C92.2459 272.456 95.009 271.711 97.0069 271.83C99.809 271.996 103.316 272.692 106.113 272.857C107.397 272.934 109.161 273.063 109.831 272.113C110.044 271.812 109.897 271.381 109.913 270.832C109.961 269.115 105.783 270.727 103.416 270.221C101.049 269.714 102.763 269.045 100.83 268.809C98.8967 268.571 97.402 269.172 95.6829 269.274C93.9376 269.377 93.1754 268.26 91.7611 268.19C90.32 268.116 89.1251 268.91 87.4082 268.378C85.6914 267.845 85.9299 264.888 84.8936 266.061ZM112.176 301.88C110.214 303.146 107.638 302.523 105.31 303.024C104.529 303.191 105.126 303.897 104.424 304.167C103.505 304.518 102.106 304.053 101.101 304.547C99.1042 305.528 95.495 306.561 93.3483 307.023C92.426 307.22 87.6095 308.207 87.2805 309.407C87.2805 309.407 88.2161 308.635 88.6106 309.981C89.3346 312.451 89.1992 320.474 89.6413 322.032C91.2758 320.628 90.6188 310.702 92.2408 309.307C92.8577 308.778 95.0811 309.418 96.0065 308.736C97.9379 307.313 99.7304 308.13 101.987 307.404C105.073 306.409 110.155 303.945 113.506 304.357C114.047 304.423 114.68 304.287 114.722 303.537L114.623 301.308C114.623 301.308 112.777 301.494 112.176 301.88ZM79.2244 295.195C79.2095 295.317 79.3963 294.869 79.5807 294.722C79.7652 294.575 79.9618 294.608 79.9618 294.608C79.9618 294.608 80.3631 294.603 80.7188 295.591C81.0622 296.545 81.1621 297.566 81.2814 298.441C81.4623 299.768 80.6743 304.004 81.8332 304.511C81.8549 304.388 81.6578 304.253 81.6041 303.698C81.5287 302.921 81.1221 296.472 82.8225 296.078C87.5495 294.984 89.515 296.851 96.6652 294.984C101.58 293.702 100.835 294.141 102.611 294.061C104.585 293.971 106.45 292.917 108.325 292.917C109.335 292.917 113.195 293.749 113.257 292.208C113.283 291.575 113.422 290.938 113.133 290.699C112.146 289.883 108.855 291.176 107.544 291.176C102.748 291.176 98.9207 292.347 94.2317 292.347C93.0072 292.347 92.1023 292.342 90.293 292.628C88.4837 292.914 87.1988 293.321 86.1912 293.489C85.2013 293.655 81.7048 293.33 80.0799 294.089C79.6827 294.274 79.2607 294.898 79.2244 295.195ZM94.7835 254.614C96.1852 255.174 98.2151 253.901 99.6009 254.179C101.544 254.567 103.946 255.505 105.886 255.893C106.61 256.038 108.871 256.214 109.775 255.858C109.775 255.858 109.772 255.226 109.817 254.435C109.863 253.643 105.241 253.404 104.172 253.227C103.289 253.079 102.973 251.837 102.458 251.702C101.29 251.398 100.506 250.165 98.8664 251.399C96.9935 252.808 94.7835 254.614 94.7835 254.614Z" opacity="1"/></g></g><g id="Beard" opacity="1"><path id="Beard" fill="#424141" stroke="none" d="M109.439 144.741C108.336 167.929 105.581 198.358 106.184 232.526C106.697 261.521 110.918 296.392 116.22 322.673C124.656 364.495 150.073 391.871 154.086 395.537C169.838 409.932 190.371 377.362 190.371 377.362L199.884 366.25C199.884 366.25 203.859 370.681 205.66 372.949C219.583 390.48 230.632 405.533 242.903 397.525C263.872 383.842 278.508 342.571 284.062 320.528C298.435 263.498 290.566 146.936 290.566 146.936L279.514 147.443C280.072 148.392 280.018 148.976 279.801 150.127C276.628 166.944 272.9 192.198 266.973 215.81C265.158 223.04 256.457 232.098 247.977 236.085C246.549 226.569 234.103 218.36 230.515 217.541C221.51 215.485 208.065 212.509 206.841 212.377C205.357 212.216 201.566 213.959 200 214.827C201.58 216.682 203.112 217.956 204.092 220.659C204.864 222.786 205.77 224.732 208.045 227.402C209.938 229.623 220.519 229.788 225.68 235.194L230.24 243.701C226.011 245.42 212.355 251.788 199.884 251.524C183.564 251.179 168.235 243.832 168.235 243.832C168.235 243.832 170.582 237.865 172.593 235.372C176.004 231.142 181.669 230.397 186.368 228.525C190.917 226.712 192.98 223.255 193.757 220.282C193.931 219.615 197.393 216.216 198.366 214.74C197.284 214.205 194.921 212.306 191.617 212.38C189.284 212.432 171.935 215.666 167.792 217.468C154.61 223.202 151.141 236.056 151.141 236.056C151.141 236.056 147.686 234.124 145.506 232.414C140.957 228.845 136.482 225.472 133.717 218.435C129.853 208.603 128.37 193.964 126.223 182.356C123.577 168.049 120.86 154.734 119.515 147.13L109.439 144.741Z" filter="url(#Filter_zxcv_14)" shadowAngle="1.571" shadowColor="#000000" shadowOffset=".778" shadowOpacity=".6" shadowRadius="2.569"/><g id="Beard-Shadow" opacity="1"><path id="zxcv-2" fill="#424141" stroke="none" d="M120.617 144.434C114.945 145.01 114.945 145.01 109.273 145.586C104.951 196.052 102.13 253.763 112.483 306.163C116.135 324.651 120.009 342.257 127.999 358.956C132.302 367.948 136.713 377.091 142.998 384.829C148.703 391.853 157.109 399.901 163.435 399.866C167.399 399.843 171.405 398.234 175.859 394.609C183.952 388.02 191.122 376.265 199.807 366.987C208.33 376.842 213.249 383.845 222.026 393.366C223.921 395.422 228.65 399.382 234.334 399.724C236.111 399.83 239.379 399.866 242.407 398.037C252.636 391.86 263.98 374.115 267.156 368.037C272.126 358.526 276.888 348.761 279.818 338.437C290.593 300.486 294.57 254.17 294.57 217.704C294.57 211.723 294.565 196.498 293.711 182.671C292.526 163.467 290.381 145.479 290.381 145.479C286.742 145.131 284.728 144.975 279.056 144.398C279.723 144.765 279.64 146.855 279.686 148.468C279.699 148.936 279.684 149.471 279.614 149.908C278.692 155.676 276.248 166.08 274.365 176.141C272.645 185.331 269.763 202.093 267.573 211.048C265.66 218.876 264.148 221.17 260.495 225.977C255.578 232.45 243.053 238.905 236.418 241.048C226.27 245.157 221.214 245.92 199.807 250.272C187.713 248.013 174.816 245.656 163.196 241.048C140.016 234.028 131.515 219.641 130.237 200.973C126.598 183.541 122.815 165.913 120.077 149.944C119.765 148.125 120.437 146.27 120.617 144.434Z" filter="url(#Filter_zxcv_15)" shadowAngle="1.571" shadowColor="#000000" shadowOffset=".778" shadowOpacity=".6" shadowRadius="4"/><path id="zxcv-108" fill="#424141" stroke="none" d="M232.095 250.756C232.095 250.756 231.991 249.2 231.655 247.537C231.404 246.292 229.801 233.476 229.539 232.659C228.849 232.508 228.006 233.212 227.195 233.792C227.417 240.147 228.138 257.694 228.737 263.748C229.142 267.851 245.377 279.224 247.217 268.319C238.301 265.398 231.334 262.37 232.095 250.756Z" filter="url(#Filter_zxcv_16)" shadowAngle="1.571" shadowColor="#000000" shadowOffset="2" shadowOpacity=".7" shadowRadius="4"/><path id="zxcv-108" fill="#424141" stroke="none" d="M166.287 250.689C165.667 249.975 167.981 232.658 168.843 230.288C169.533 230.137 170.377 230.841 171.187 231.421C170.966 237.776 170.245 257.628 169.646 263.682C169.24 267.785 153.005 279.158 151.165 268.252C160.081 265.332 167.074 261.671 166.287 250.689Z" filter="url(#Filter_zxcv_17)" shadowAngle="1.571" shadowColor="#000000" shadowOffset="2" shadowOpacity=".7" shadowRadius="4"/></g><g id="Left-Beard" opacity="1"><path id="zxcv-181" fill="#56493c" stroke="none" d="M120.684 144.398C120.139 144.915 120.174 145.855 120.139 147.023C120.125 147.5 120.068 148.054 120.067 148.484C120.067 149.169 120.113 149.662 120.157 149.921C121.02 154.949 127.319 184.223 130.238 200.982C132.664 214.907 133.468 224.843 151.246 235.719C151.125 248.979 164.771 249.811 170.23 243.419C181.015 246.559 188.265 247.88 199.884 250.228L199.884 366.057C199.884 366.057 185.118 387.037 175.027 395.599C168.61 401.044 162.443 399.953 161.774 399.831C145.622 396.887 125.401 359.355 118.079 332.508C115.783 325.085 113.121 312.404 109.962 291.359C107.62 275.761 105.501 247.577 105.322 231.583C104.942 225.959 105.282 198.14 105.774 187.167C106.716 166.164 108.693 155.262 109.393 145.468L120.684 144.398Z" opacity=".997"/><path id="zxcv-34" fill="#655b53" stroke="none" d="M159.462 396.882C154.396 390.329 146.715 383.213 142.064 376.281C156.47 375.517 176.999 376.593 190.852 376.606C189.902 377.857 168.709 396.629 165.535 399.273C163.929 399.203 159.479 396.924 159.462 396.882Z" opacity="1"/><path id="zxcv-174" fill="#59514a" stroke="none" d="M199.599 366.638C199.599 366.638 134.762 366.04 136.448 369.207C138.012 371.191 144 380.894 144.268 381.34C151.718 393.725 159.805 406.258 174.02 396.485C177.299 394.23 185.232 384.657 191.436 376.859C191.587 376.669 199.599 366.638 199.599 366.638Z" opacity="1"/><path id="zxcv-88" fill="#605448" stroke="none" d="M126.807 353.483C126.807 353.483 121.565 339.579 121.063 336.399C144.404 336.427 196.496 335.091 199.884 335.851L199.884 353.338C194.302 353.235 148.023 353.331 126.807 353.483Z" opacity="1"/><path id="zxcv-89" fill="#5e5348" stroke="none" d="M126.807 353.483C147.897 352.939 199.884 352.284 199.884 352.284L199.884 364.277C199.884 364.277 137.749 364.687 133.871 365.768C131.558 361.804 129.246 357.839 126.807 353.483Z" opacity="1"/><path id="zxcv-180" fill="#62584f" stroke="none" d="M133.944 365.361C136.793 364.379 175.925 363.704 199.884 363.552L200.113 366.729L199.884 366.937L191.436 376.859C191.436 376.859 156.616 375.959 142.114 376.336C139.803 373.526 133.933 365.621 133.944 365.361Z" opacity="1"/><path id="zxcv-179" fill="#50453d" stroke="none" d="M201.036 268.853C201.036 268.853 124.201 267.605 118.045 267.578C118.222 271.594 120.747 291.331 120.747 291.331L201.231 292.342L201.036 268.853Z" opacity="1"/><path id="zxcv-100" fill="#5a4e43" stroke="none" d="M201.036 313.977L201.036 335.851C201.036 335.851 121.216 337.125 121.155 336.834C119.93 332.437 116.264 316.222 116.264 316.222C117.704 316.226 120.639 316.176 124.581 316.09C146.512 315.609 201.036 313.977 201.036 313.977Z" opacity="1"/><path id="zxcv-176" fill="#41372e" stroke="none" d="M109.345 145.535C109.345 145.535 109.205 146.75 109.141 147.647C108.749 153.113 108.305 158.543 107.854 163.954C107.152 172.372 106.431 180.744 105.86 189.131C105.854 190.046 103.605 225.899 107.211 267.412C107.908 275.438 108.824 283.676 110.018 291.913C110.45 294.893 110.918 297.873 111.425 300.842C114.239 317.327 117.541 333.224 123.151 347.602C141.106 393.62 159.29 399.607 161.774 399.831C153.494 390.89 134.895 370.042 124.102 312.63C122.832 305.874 121.698 298.754 120.699 291.397C119.652 283.693 118.752 275.727 117.997 267.644C113.985 224.714 114.05 178.474 117.793 150.42C118.013 148.768 118.349 144.619 118.349 144.619L109.345 145.535Z" opacity="1"/><path id="zxcv-178" fill="#544a41" stroke="none" d="M201.036 292.342C201.036 292.342 126.903 291.358 120.747 291.331C121.32 295.295 123.568 312.731 124.873 316.017C128.165 316.821 201.036 314.216 201.036 314.216L201.036 292.342Z" opacity="1"/><path id="zxcv-178" fill="#4d4239" stroke="none" d="M199.884 250.228C198.884 249.766 184.939 248.053 170.23 243.419C154.658 238.514 137.91 230.335 133.769 216.905C122.205 213.691 117.455 226.733 115.509 226.724C115.163 232.229 117.851 266.368 118.059 267.591C118.524 267.651 201.036 269.62 201.036 269.62L199.884 250.228Z" opacity="1"/></g><g id="Right-Beard" opacity="1"><path id="zxcv-181" fill="#56493c" stroke="none" d="M279.083 144.398C279.628 144.915 279.593 145.855 279.628 147.023C279.642 147.5 279.699 148.054 279.7 148.484C279.7 149.169 279.654 149.662 279.61 149.921C278.747 154.949 272.448 184.223 269.529 200.982C267.103 214.907 266.299 224.843 248.521 235.719C248.642 248.979 234.996 249.811 229.537 243.419C218.752 246.559 211.503 247.88 199.884 250.228L199.884 366.057C199.884 366.057 214.649 387.037 224.74 395.599C231.157 401.044 237.324 399.953 237.993 399.831C254.145 396.887 274.366 359.355 281.688 332.508C283.984 325.085 286.646 312.404 289.805 291.359C292.147 275.761 294.266 247.577 294.445 231.583C294.825 225.959 294.485 198.14 293.993 187.167C293.051 166.164 291.074 155.262 290.374 145.468L279.083 144.398Z" opacity=".997"/><path id="zxcv-34" fill="#655b53" stroke="none" d="M240.306 396.882C245.371 390.329 253.052 383.213 257.703 376.281C243.297 375.517 222.768 376.593 208.915 376.606C209.865 377.857 231.058 396.629 234.232 399.273C235.838 399.203 240.288 396.924 240.306 396.882Z" opacity="1"/><path id="zxcv-174" fill="#59514a" stroke="none" d="M199.884 366.655C199.884 366.655 264.721 366.057 263.035 369.224C261.47 371.208 255.483 380.91 255.214 381.357C247.764 393.742 239.678 406.275 225.463 396.501C222.184 394.247 214.25 384.674 208.047 376.876C207.895 376.685 199.884 366.655 199.884 366.655Z" opacity="1"/><path id="zxcv-88" fill="#605448" stroke="none" d="M272.96 353.483C272.96 353.483 278.202 339.579 278.704 336.399C255.363 336.427 203.272 335.091 199.884 335.851L199.884 353.338C205.466 353.235 251.744 353.331 272.96 353.483Z" opacity="1"/><path id="zxcv-89" fill="#5e5348" stroke="none" d="M272.96 353.483C251.87 352.939 199.884 352.284 199.884 352.284L199.884 364.277C199.884 364.277 262.018 364.687 265.896 365.768C268.209 361.804 270.521 357.839 272.96 353.483Z" opacity="1"/><path id="zxcv-180" fill="#62584f" stroke="none" d="M265.823 365.361C262.974 364.379 223.843 363.704 199.884 363.552L199.884 366.937L208.026 376.951C208.026 376.951 243.152 375.959 257.653 376.336C259.964 373.526 265.834 365.621 265.823 365.361Z" opacity="1"/><path id="zxcv-179" fill="#50453d" stroke="none" d="M199.884 268.853C199.884 268.853 275.566 267.605 281.722 267.578C281.545 271.594 279.02 291.331 279.02 291.331L199.884 292.342L199.884 268.853Z" opacity="1"/><path id="zxcv-100" fill="#5a4e43" stroke="none" d="M200.042 313.977L200.042 335.851C200.042 335.851 278.551 337.125 278.612 336.834C279.837 332.437 283.503 316.222 283.503 316.222C282.064 316.226 279.128 316.176 275.186 316.09C253.255 315.609 200.042 313.977 200.042 313.977Z" opacity="1"/><path id="zxcv-176" fill="#41372e" stroke="none" d="M290.422 145.535C290.422 145.535 290.562 146.75 290.626 147.647C291.018 153.113 291.462 158.543 291.913 163.954C292.615 172.372 293.336 180.744 293.908 189.131C293.913 190.046 296.162 225.899 292.556 267.412C291.859 275.438 290.943 283.676 289.749 291.913C289.318 294.893 288.85 297.873 288.342 300.842C285.528 317.327 282.226 333.224 276.616 347.602C258.661 393.62 240.477 399.607 237.993 399.831C246.273 390.89 264.872 370.042 275.665 312.63C276.935 305.874 278.069 298.754 279.068 291.397C280.115 283.693 281.015 275.727 281.77 267.644C285.782 224.714 285.717 178.474 281.974 150.42C281.754 148.768 281.418 144.619 281.418 144.619L290.422 145.535Z" opacity="1"/><path id="zxcv-178" fill="#544a41" stroke="none" d="M199.884 292.342C199.884 292.342 272.864 291.358 279.02 291.331C278.448 295.295 276.199 312.731 274.894 316.017C271.602 316.821 199.884 314.216 199.884 314.216L199.884 292.342Z" opacity="1"/><path id="zxcv-178" fill="#4d4239" stroke="none" d="M199.884 250.228C200.883 249.766 214.828 248.053 229.537 243.419C245.109 238.514 261.857 230.335 265.998 216.905C277.562 213.691 282.312 226.733 284.258 226.724C284.604 232.229 281.916 266.368 281.708 267.591C281.243 267.651 200.042 269.62 200.042 269.62L199.884 250.228Z" opacity="1"/></g><g id="Mustache" opacity="1"><g id="Left-Mustache" opacity="1"><path id="zxcv-108" fill="#424141" stroke="none" d="M167.477 250.768C167.846 248.504 168.845 245.28 169.298 243.074L172.061 243.967C171.839 250.322 170.503 257.628 169.904 263.682C169.498 267.785 153.263 279.158 151.424 268.252C160.339 265.332 169.092 261.577 167.477 250.768Z" filter="url(#Filter_zxcv_18)" shadowAngle="1.571" shadowColor="#000000" shadowOffset="1" shadowOpacity=".5" shadowRadius="4"/><path id="zxcv-179" fill="#453a32" stroke="none" d="M167.477 250.768C167.846 248.504 168.845 245.28 169.298 243.074L172.061 243.967C171.839 250.322 170.503 257.628 169.904 263.682C169.498 267.785 153.263 279.158 151.424 268.252C160.339 265.332 169.092 261.577 167.477 250.768Z" opacity="1"/><path id="zxcv-3" fill="#424141" stroke="none" d="M191.46 212.101C183.882 213.409 175.657 214.981 168.485 216.854C160.447 220.419 152.246 227.272 150.407 235.544C150.297 235.817 149.112 244.023 149.254 252.146C149.39 259.914 150.823 267.587 151.415 268.243C151.851 268.727 157.914 266.289 161.426 264.066C164.937 261.843 166.448 259.042 167.152 256.935C167.807 254.978 168.006 253.043 167.692 250.705C167.496 249.239 169.133 244.187 169.133 244.187L173.202 235.22C176.423 233.662 179.193 231.279 182.169 231.007C188.972 230.385 192.668 226.873 194.557 220.743C195.326 218.911 198.851 215.333 198.735 214.693C197.001 213.301 192.904 211.851 191.46 212.101Z" filter="url(#Filter_zxcv_19)" shadowAngle="1.571" shadowColor="#000000" shadowOffset="1" shadowOpacity=".5" shadowRadius="4"/><path id="zxcv-177" fill="#615243" stroke="none" d="M150.401 235.536C150.291 235.809 149.104 244.036 149.246 252.158C149.382 259.926 150.832 267.596 151.424 268.252C151.86 268.736 157.927 266.298 161.439 264.075C164.95 261.852 166.464 259.05 167.168 256.943C167.823 254.986 168.011 253.027 167.697 250.689C167.501 249.223 169.144 244.175 169.144 244.175L173.188 235.208C173.188 235.208 151.128 236.256 151.175 235.586C150.401 235.536 150.887 235.639 150.401 235.536Z" opacity=".996"/><path id="zxcv-103" fill="#5e5044" stroke="none" d="M173.188 235.208C172.036 237.864 170.474 240.246 169.101 244.117C167.729 247.987 168.073 248.931 167.697 250.689C166.555 250.694 150.433 254.015 150.401 235.536C150.401 235.536 166.773 234.76 173.188 235.208Z" opacity=".996"/><path id="zxcv-150" fill="#69594b" stroke="none" d="M173.188 235.208C172.223 235.165 150.401 235.536 150.401 235.536C152.241 227.264 161.914 218.963 168.477 216.862C170.511 216.211 175.375 216.089 180.017 216.91C186.061 217.979 192.079 220.231 194.566 220.737C192.677 226.867 188.974 230.396 182.17 231.018C179.194 231.29 176.409 233.649 173.188 235.208Z" opacity=".996"/><path id="zxcv-154" fill="#736152" stroke="none" d="M198.751 214.68C198.868 215.32 195.335 218.904 194.566 220.737C192.488 220.524 183.364 217.832 178.654 217.097C172.639 216.159 170.879 217.142 168.477 216.862C175.649 214.989 183.898 213.421 191.476 212.113C192.92 211.863 197.018 213.288 198.751 214.68Z" opacity=".996"/></g><g id="Right-Mustache" opacity="1"><path id="zxcv-179" fill="#424141" stroke="none" d="M232.07 250.68C232.07 250.68 231.965 249.124 231.63 247.461C231.378 246.216 230.623 244.256 230.361 243.439L227.81 244.106C228.032 250.462 229.264 257.618 229.863 263.672C230.269 267.775 246.504 279.148 248.343 268.243C239.428 265.322 232.052 261.395 232.07 250.68Z" filter="url(#Filter_zxcv_20)" shadowAngle="1.571" shadowColor="#000000" shadowOffset="1" shadowOpacity=".5" shadowRadius="4"/><path id="zxcv-180" fill="#453a32" stroke="none" d="M232.07 250.68C232.07 250.68 231.965 249.124 231.63 247.461C231.378 246.216 230.623 244.256 230.361 243.439L227.81 244.106C228.032 250.462 229.264 257.618 229.863 263.672C230.269 267.775 246.504 279.148 248.343 268.243C239.428 265.322 231.076 261.37 232.07 250.68Z" opacity="1"/><g id="zxcvGroup-1" opacity="1"><path id="zxcv-1" fill="#424141" stroke="none" d="M208.271 212.082C206.827 211.833 202.73 213.247 200.996 214.639C200.88 215.279 204.406 218.893 205.174 220.725C207.063 226.855 210.795 230.367 217.598 230.989C220.574 231.261 223.344 233.607 226.565 235.166C227.717 237.822 229.782 241.482 230.634 244.097C231.716 247.415 231.663 248.893 232.039 250.651C231.725 252.989 231.925 254.96 232.579 256.917C233.283 259.024 234.794 261.825 238.305 264.047C241.817 266.271 247.88 268.708 248.316 268.225C248.908 267.569 250.377 259.895 250.513 252.128C250.655 244.005 249.47 235.799 249.36 235.526C247.521 227.254 239.32 220.401 231.282 216.836C224.111 214.963 215.849 213.39 208.271 212.082Z" filter="url(#Filter_zxcv_21)" shadowAngle="1.571" shadowColor="#000000" shadowOffset="1" shadowOpacity=".5" shadowRadius="4"/><path id="zxcv-177" fill="#615243" stroke="none" d="M249.366 235.527C249.476 235.8 250.663 244.026 250.521 252.149C250.385 259.916 248.935 267.587 248.343 268.243C247.907 268.726 241.84 266.289 238.328 264.065C234.817 261.842 233.303 259.04 232.599 256.933C231.944 254.976 231.756 253.018 232.07 250.68C232.266 249.213 232.038 247.977 230.666 244.107C229.293 240.237 226.579 235.198 226.579 235.198C226.579 235.198 248.88 235.629 249.366 235.527Z" opacity="1"/><path id="zxcv-103" fill="#5e5044" stroke="none" d="M226.579 235.198C227.731 237.855 229.813 241.492 230.666 244.107C231.747 247.425 231.694 248.921 232.07 250.68C233.213 250.685 249.334 254.005 249.366 235.527C249.366 235.527 232.994 234.75 226.579 235.198Z" opacity="1"/><path id="zxcv-150" fill="#69594b" stroke="none" d="M226.579 235.198C227.544 235.155 249.366 235.527 249.366 235.527C247.526 227.254 239.328 220.417 231.29 216.852C226.608 217.305 222.292 217.565 218.405 218.109C213.968 218.73 209.599 219.833 205.201 220.727C207.09 226.857 210.793 230.386 217.597 231.008C220.573 231.28 223.358 233.639 226.579 235.198Z" opacity="1"/><path id="zxcv-154" fill="#736152" stroke="none" d="M201.013 214.671C200.896 215.311 204.432 218.895 205.201 220.727C207.662 220.475 212.606 219.159 218.207 218.28C223.377 217.469 229.235 217.092 231.29 216.852C224.118 214.979 215.869 213.411 208.291 212.103C206.847 211.854 202.746 213.278 201.013 214.671Z" opacity="1"/></g></g></g></g><g id="Eye-Right" opacity="1"><path id="Schlera-2" fill="#fcfafb" stroke="none" d="M223.229 155.09L234.709 155.085C271.508 155.09 249.981 184.077 230.135 184.161C210.289 184.244 190.566 155.094 223.229 155.09Z" blur=".3" filter="url(#Filter_zxcv_22)" shadowAngle="1.571" shadowColor="#000000" shadowOffset=".506" shadowOpacity=".6" shadowRadius="2.569"/><path id="Top" fill="#99bbd4" stroke="none" d="M216.47 165.067C216.47 160.599 218.866 157.71 222.513 155.371L238.411 155.371C241.823 157.736 244.057 160.772 244.057 165.067C244.057 172.24 237.883 178.056 230.265 178.056C222.647 178.056 216.47 172.24 216.47 165.067Z" blur=".506" filter="url(#Filter_zxcv_23)" shadowAngle="1.571" shadowColor="#000000" shadowOffset=".506" shadowOpacity=".6" shadowRadius="2.569"/><path id="Schlera" fill="#fcfafb" stroke="none" d="M223.867 155.375C214.219 161.382 217.592 177.379 230.393 177.053C243.194 176.728 247.304 161.269 235.347 155.371C272.145 155.375 250.239 184.361 230.393 184.445C210.547 184.529 191.205 155.379 223.867 155.375Z" blur=".3" filter="url(#Filter_zxcv_24)" shadowAngle="1.571" shadowColor="#000000" shadowOffset=".506" shadowOpacity=".6" shadowRadius="2.569"/><path id="Schlera-3" fill="#fcfafb" stroke="none" d="M223.867 155.371C214.219 161.378 217.592 177.379 230.393 177.053C243.194 176.728 247.304 161.269 235.347 155.371C272.557 155.085 250.239 184.361 230.393 184.445C210.547 184.529 192.804 155.371 223.867 155.371Z" opacity="1"/><path id="Schlera-5" fill="#fcfafb" stroke="none" d="M223.867 155.371C214.219 161.378 217.592 177.379 230.393 177.053C243.194 176.728 247.304 161.269 235.347 155.371C272.557 155.085 250.239 184.361 230.393 184.445C210.547 184.529 189.609 155.371 223.867 155.371Z" opacity="1"/><path id="Oval-3" fill="#99bbd4" stroke="none" d="M244.057 165.17C244.057 160.667 241.657 157.73 238.011 155.371L222.096 155.371C218.684 157.755 216.47 160.841 216.47 165.17C216.47 172.404 222.646 178.269 230.264 178.269C237.882 178.269 244.057 172.404 244.057 165.17Z" blur=".506" filter="url(#Filter_zxcv_25)" opacity="1"/><path id="Top" fill="#99bbd4" stroke="none" d="M217.054 165.067C217.054 160.599 219.348 157.71 222.84 155.371L238.067 155.371C241.334 157.736 243.475 160.772 243.475 165.067C243.475 172.24 237.561 178.056 230.265 178.056C222.969 178.056 217.054 172.24 217.054 165.067Z" opacity="1"/><path id="pupil" fill="#000" stroke="none" d="M222.901 165.772C222.901 161.696 226.197 158.39 230.264 158.39C234.33 158.39 237.626 161.696 237.626 165.772C237.626 169.848 234.33 173.154 230.264 173.154C226.197 173.154 222.901 169.848 222.901 165.772Z" filter="url(#Filter_zxcv_26)" shadowAngle="1.571" shadowColor="#000000" shadowOffset=".778" shadowOpacity=".6" shadowRadius="2.569"/><path id="Oval-4" fill="#fff" stroke="none" d="M227.083 159.688C227.083 157.636 228.508 155.972 230.265 155.972C232.021 155.972 233.446 157.636 233.446 159.688C233.446 161.742 232.021 163.407 230.265 163.407C228.508 163.407 227.083 161.742 227.083 159.688Z" filter="url(#Filter_zxcv_27)" shadowAngle="1.571" shadowColor="#000000" shadowOffset=".778" shadowOpacity=".6" shadowRadius="2.569"/><path id="Schlera-4" fill="#dda38c" stroke="none" d="M255.272 166.587C257.526 160.255 246.933 149.956 230.296 150.486C213.658 151.016 202.945 158.636 205.787 166.746C217.014 155.116 243.475 151.586 255.272 166.587Z" filter="url(#Filter_zxcv_28)" shadowAngle="1.571" shadowColor="#000000" shadowOffset=".503" shadowOpacity=".65" shadowRadius="2.552"/></g><g id="Eye-Left" opacity="1"><path id="Schlera-2" fill="#fcfafb" stroke="none" d="M176.115 155.089L164.636 155.085C127.837 155.089 149.363 184.081 169.209 184.165C189.055 184.248 208.778 155.092 176.115 155.089Z" blur=".3" filter="url(#Filter_zxcv_29)" shadowAngle="1.571" shadowColor="#000000" shadowOffset=".506" shadowOpacity=".6" shadowRadius="2.569"/><path id="Top" fill="#99bbd4" stroke="none" d="M182.873 165.067C182.873 160.599 180.477 157.71 176.831 155.371L160.933 155.371C157.521 157.736 155.287 160.772 155.287 165.067C155.287 172.241 161.461 178.059 169.079 178.059C176.697 178.059 182.873 172.241 182.873 165.067Z" blur=".506" filter="url(#Filter_zxcv_30)" shadowAngle="1.571" shadowColor="#000000" shadowOffset=".506" shadowOpacity=".6" shadowRadius="2.569"/><path id="Schlera" fill="#fcfafb" stroke="none" d="M175.477 155.375C185.125 161.382 181.752 177.381 168.951 177.055C156.15 176.73 152.04 161.269 163.998 155.371C127.199 155.375 149.105 184.364 168.951 184.448C188.796 184.532 208.138 155.378 175.477 155.375Z" blur=".3" filter="url(#Filter_zxcv_31)" shadowAngle="1.571" shadowColor="#000000" shadowOffset=".506" shadowOpacity=".6" shadowRadius="2.569"/><path id="Schlera-3" fill="#fcfafb" stroke="none" d="M175.477 155.371C185.125 161.378 181.752 177.381 168.951 177.055C156.15 176.73 152.04 161.269 163.998 155.371C126.788 155.085 149.105 184.364 168.951 184.448C188.796 184.532 206.54 155.371 175.477 155.371Z" opacity="1"/><path id="Schlera-5" fill="#fcfafb" stroke="none" d="M175.477 155.371C185.125 161.378 181.752 177.381 168.951 177.055C156.15 176.73 152.04 161.269 163.998 155.371C126.788 155.085 149.105 184.364 168.951 184.448C188.796 184.532 209.735 155.371 175.477 155.371Z" opacity="1"/><path id="Oval-3" fill="#99bbd4" stroke="none" d="M155.287 165.172C155.287 160.667 157.687 157.73 161.333 155.371L177.248 155.371C180.66 157.755 182.873 160.841 182.873 165.172C182.873 172.406 176.698 178.272 169.081 178.272C161.463 178.272 155.287 172.406 155.287 165.172Z" blur=".506" filter="url(#Filter_zxcv_32)" opacity="1"/><path id="Top" fill="#99bbd4" stroke="none" d="M182.291 165.067C182.291 160.599 179.996 157.71 176.504 155.371L161.277 155.371C158.01 157.736 155.869 160.772 155.869 165.067C155.869 172.241 161.783 178.059 169.079 178.059C176.375 178.059 182.291 172.241 182.291 165.067Z" opacity="1"/><path id="pupil" fill="#000" stroke="none" d="M176.443 165.772C176.443 161.696 173.146 158.39 169.08 158.39C165.014 158.39 161.717 161.696 161.717 165.772C161.717 169.849 165.014 173.155 169.08 173.155C173.146 173.155 176.443 169.849 176.443 165.772Z" filter="url(#Filter_zxcv_33)" shadowAngle="1.571" shadowColor="#000000" shadowOffset=".778" shadowOpacity=".6" shadowRadius="2.569"/><path id="Oval-4" fill="#fff" stroke="none" d="M172.261 159.688C172.261 157.635 170.836 155.971 169.079 155.971C167.323 155.971 165.898 157.635 165.898 159.688C165.898 161.742 167.323 163.407 169.079 163.407C170.836 163.407 172.261 161.742 172.261 159.688Z" filter="url(#Filter_zxcv_34)" shadowAngle="1.571" shadowColor="#000000" shadowOffset=".778" shadowOpacity=".6" shadowRadius="2.569"/><path id="Schlera-4" fill="#dda38c" stroke="none" d="M144.072 166.588C142.029 160.508 152.411 149.954 169.048 150.484C185.686 151.014 195.221 158.606 193.517 166.717C182.291 155.085 155.869 151.584 144.072 166.588Z" filter="url(#Filter_zxcv_35)" shadowAngle="1.571" shadowColor="#000000" shadowOffset=".503" shadowOpacity=".65" shadowRadius="2.552"/></g><g id="Eyebrows" filter="url(#Filter_zxcv_36)" shadowAngle="1.571" shadowColor="#9c7464" shadowOffset="1" shadowOpacity=".5" shadowRadius="1"><path id="zxcv-162" fill="#725d4e" stroke="none" d="M229.65 140.518C224.551 140.503 219.945 140.693 215.426 140.156C213.775 139.96 210.77 138.649 210.789 136.903C210.809 135.157 213.792 133.414 215.505 133.173C219.624 132.593 223.871 132.925 228.594 132.801C233.314 132.81 237.546 132.601 241.676 133.156C243.338 133.379 246.334 134.665 246.313 136.411C246.291 138.158 243.322 139.861 241.592 140.143C237.87 140.75 233.992 140.396 229.65 140.518Z" filter="url(#Filter_zxcv_37)" shadowAngle="1.571" shadowColor="#9c7464" shadowOffset="1" shadowOpacity=".5" shadowRadius="1"/><path id="zxcv-163" fill="#725d4e" stroke="none" d="M170.117 132.79C175.216 132.806 179.822 132.616 184.341 133.152C185.992 133.348 188.997 134.66 188.978 136.405C188.958 138.151 185.975 139.894 184.262 140.135C180.143 140.715 175.897 140.383 171.173 140.508C166.453 140.498 162.221 140.707 158.091 140.153C156.429 139.93 153.433 138.644 153.454 136.897C153.476 135.15 156.445 133.448 158.175 133.166C161.897 132.559 165.775 132.912 170.117 132.79Z" filter="url(#Filter_zxcv_38)" shadowAngle="1.571" shadowColor="#9c7464" shadowOffset="1" shadowOpacity=".5" shadowRadius="1"/></g><g id="Hat" opacity="1"><path id="brim" fill="url(#LinearGradient_zxcv)" stroke="none" d="M103.84 55.0531C86.9251 55.2882 78.5422 65.1922 76.1469 75.1117C75.6479 77.1784 75.3907 79.1695 75.3907 81.1617C75.3907 83.7273 75.809 86.1623 76.507 88.4C80.3706 100.785 93.3276 108.096 97.862 110.259C97.4843 111.837 94.3716 119.479 93.8647 127.509C93.685 130.356 93.8304 133.248 94.549 135.936C96.1657 141.984 100.651 146.977 110.754 148.036C129.978 150.05 139.788 143.038 143.597 135.936C143.834 135.495 144.054 135.043 144.245 134.603C145.309 132.155 145.719 129.691 145.758 127.365C145.86 121.218 143.345 116.201 143.345 116.201L256.422 116.201C256.422 116.201 253.907 121.209 254.009 127.356C254.048 129.682 254.458 132.155 255.522 134.603C255.713 135.043 255.933 135.639 256.17 136.08C259.98 143.182 269.789 150.05 289.013 148.036C299.117 146.977 303.601 142.128 305.218 136.08C305.937 133.392 306.082 130.204 305.902 127.356C305.395 119.326 302.283 111.837 301.905 110.259C306.439 108.096 319.396 100.785 323.26 88.4C323.958 86.1623 324.376 83.7273 324.376 81.1617C324.376 79.1695 324.119 77.1784 323.62 75.1117C321.225 65.1922 312.842 55.2882 295.927 55.0531L103.84 55.0531Z" filter="url(#Filter_zxcv_39)" shadowAngle="1.571" shadowColor="#000000" shadowOffset="1" shadowOpacity=".6" shadowRadius="2.569"/><g id="Hat" opacity="1"><path id="hat-8" fill="#383838" stroke="none" d="M323.62 75.1117C323.62 75.1117 324.296 78.5306 324.376 80.1146C324.582 84.1896 323.26 88.3943 323.26 88.3943L202.408 92.4595L76.507 88.3943C76.507 88.3943 75.4807 85.3249 75.3907 82.0042C75.3006 78.6836 76.1469 75.1117 76.1469 75.1117L202.408 70.05L323.62 75.1117Z" filter="url(#Filter_zxcv_40)" shadowAngle="1.571" shadowColor="#000000" shadowOffset="1" shadowOpacity=".4" shadowRadius="2"/><path id="zxcv-12" fill="#3c3c3c" stroke="none" d="M76.507 88.3943L323.26 88.3943C323.26 88.3943 320.953 96.2105 314.708 101.723C310.023 105.858 303.92 109.263 301.905 110.255C295.375 110.301 112.147 110.474 97.862 110.255C95.9311 109.256 88.2409 106.268 83.971 101.723C78.505 95.9041 76.507 88.3943 76.507 88.3943Z" filter="url(#Filter_zxcv_41)" shadowAngle="1.571" shadowColor="#000000" shadowOffset="1" shadowOpacity=".4" shadowRadius="2"/><path id="hat-5" fill="#1f1b1c" stroke="none" d="M299.168 60.5182C299.168 60.5182 299.772 59.3889 297.422 55.1487C295.072 50.9085 291.068 44.5512 290.241 43.5552L199.884 43.6787L110.471 43.7972C108.761 46.0777 105.392 51.0899 103.126 55.1192C101.509 57.9958 100.599 60.5182 100.599 60.5182L199.884 62.0882L299.168 60.5182Z" opacity="1"/><path id="zxcv-11" fill="#3c3c3c" stroke="none" d="M76.1469 75.1117C78.3724 65.0148 87.928 55.0531 104.034 55.0926C104.034 55.0926 280.637 55.0885 295.393 55.0181C308.683 55.2417 318.365 60.841 322.629 71.7167C322.94 72.5095 323.345 74.2577 323.62 75.1117C319.839 75.1161 76.1469 75.1117 76.1469 75.1117Z" filter="url(#Filter_zxcv_42)" shadowAngle="1.571" shadowColor="#000000" shadowOffset="0" shadowOpacity=".3" shadowRadius="2"/><path id="hat" fill="#252122" stroke="none" d="M122.386 30.6342C116.145 36.5563 110.77 43.403 110.471 43.7972C108.176 46.8198 153.207 48.3265 200.545 47.8762C244.777 47.4554 291.376 45.3205 290.241 43.5552C288.305 40.5423 281.946 33.8183 278.821 30.891C275.408 27.6929 236.367 0.0220176 199.884 0.00485446C161.395-0.0132517 125.329 27.8412 122.386 30.6342Z" opacity="1"/><path id="hat-1" fill="#2c2829" stroke="none" d="M278.821 30.891L259.807 17.7304L139.96 17.7304C134.214 21.4063 126.526 26.866 122.386 30.6342L278.821 30.891Z" opacity="1"/><path id="hat-7" fill="#2c2829" stroke="none" d="M139.96 17.7304C134.619 20.7682 128.12 25.1936 122.386 30.6342C121.505 31.4702 125.704 30.6258 130.646 30.7523C143.342 31.0774 170.501 30.889 199.884 30.7523C227.764 30.6226 256.126 30.746 270.165 30.7523C276.373 30.7551 278.821 30.891 278.821 30.891C273.767 26.2497 267.026 21.7808 259.807 17.7304C259.597 17.6126 259.379 17.496 259.152 17.3807C259.152 17.3807 226.094 17.4615 199.884 17.7304C178.305 17.9519 140.049 17.6797 139.96 17.7304Z" opacity="1"/><path id="hat-2" fill="#332e2f" stroke="none" d="M259.807 17.7304C241.733 7.26486 220.265-0.218148 199.884 0.00485446C181.861 0.202038 154.993 7.90665 139.96 17.7304L259.807 17.7304Z" opacity="1"/></g><g id="Hat-brim" opacity="1"><g id="Hat-brimRight" opacity="1"><path id="Hat-trim" fill="#70635d" stroke="none" d="M198.707 115.189C198.707 115.189 236.152 114.808 257.075 115.069L256.409 124.071C256.172 124.091 198.707 124.026 198.707 124.026L198.707 115.189Z" opacity="1"/><path id="zxcv-15" fill="#524d49" stroke="none" d="M254.009 127.356C254.048 129.682 254.458 132.155 255.522 134.603C255.713 135.043 255.933 135.639 256.17 136.08L305.218 136.08C305.937 133.392 306.082 130.204 305.902 127.356L254.009 127.356Z" filter="url(#Filter_zxcv_43)" shadowAngle="1.571" shadowColor="#000000" shadowOffset="0" shadowOpacity=".3" shadowRadius="1"/><path id="zxcv-18" fill="#5b544d" stroke="none" d="M256.17 136.08C259.98 143.182 269.789 150.05 289.013 148.036C299.117 146.977 303.601 142.128 305.218 136.08L256.17 136.08Z" filter="url(#Filter_zxcv_44)" shadowAngle="1.571" shadowColor="#000000" shadowOffset="0" shadowOpacity=".3" shadowRadius="1"/><path id="zxcv-12" fill="#4d4844" stroke="none" d="M256.422 116.201C256.422 116.201 253.907 121.209 254.009 127.356L305.902 127.356C305.625 122.956 304.668 118.917 303.86 116.165L256.422 116.201Z" filter="url(#Filter_zxcv_45)" shadowAngle="1.571" shadowColor="#000000" shadowOffset="0" shadowOpacity=".3" shadowRadius="1"/></g><g id="Hat-brimLeft" opacity="1"><path id="Hat-trim" fill="#70635d" stroke="none" d="M199.884 115.111L199.884 124.026L137.021 124.026C137.021 124.026 134.59 116.171 134.59 116.171C154.424 116.235 199.884 115.111 199.884 115.111Z" opacity="1"/><g id="zxcvGroup-1" filter="url(#Filter_zxcv_46)" shadowAngle="1.571" shadowColor="#000000" shadowOffset="0" shadowOpacity=".4" shadowRadius="2"><path id="zxcv-1" fill="#524d49" stroke="none" d="M104.092 107.99C102.819 107.979 101.967 108.099 101.967 108.099C98.3748 107.964 97.2498 112.492 97.2498 112.492C97.2499 112.492 96.5652 113.597 95.8094 116.201C95.8094 116.201 143.453 116.201 143.453 116.201L199.884 116.741L201.036 116.741L256.422 116.201C256.422 116.201 303.85 116.201 303.85 116.201C303.41 114.665 302.625 112.492 302.625 112.492C302.625 112.492 301.5 107.964 297.908 108.099C297.908 108.099 297.056 107.979 295.783 107.99C285.782 108.079 203.341 108.624 201.144 108.639C201.144 108.639 199.912 108.639 199.884 108.639C197.682 108.624 114.095 108.079 104.092 107.99Z" filter="url(#Filter_zxcv_47)" shadowAngle="1.571" shadowColor="#000000" shadowOffset="0" shadowOpacity=".4" shadowRadius="2"/></g><path id="zxcv-10" fill="#524d49" stroke="none" d="M93.8647 127.509C93.685 130.356 93.8643 133.559 94.549 135.936L143.597 135.936C143.834 135.495 144.054 135.043 144.245 134.603C145.309 132.155 145.584 129.729 145.758 127.365L95.0565 127.103L93.8647 127.509Z" filter="url(#Filter_zxcv_48)" shadowAngle="1.571" shadowColor="#000000" shadowOffset="0" shadowOpacity=".3" shadowRadius="1"/><path id="zxcv-17" fill="#4d4844" stroke="none" d="M143.345 116.201C143.345 116.201 145.86 121.209 145.758 127.356L93.8648 127.356C94.2049 121.967 95.149 118.837 95.9034 116.201L143.345 116.201Z" filter="url(#Filter_zxcv_49)" shadowAngle="1.571" shadowColor="#000000" shadowOffset="0" shadowOpacity=".3" shadowRadius="1"/><path id="zxcv-17" fill="#5b544d" stroke="none" d="M94.549 135.936C96.1657 141.984 100.651 146.977 110.754 148.036C129.978 150.05 139.788 143.038 143.597 135.936L94.549 135.936Z" filter="url(#Filter_zxcv_50)" shadowAngle="1.571" shadowColor="#000000" shadowOffset="0" shadowOpacity=".3" shadowRadius="1"/></g><path id="zxcv-13" fill="#3c3c3c" stroke="none" d="M76.507 88.3943L323.26 88.3943C323.26 88.3943 320.953 96.2105 314.708 101.723C310.023 105.858 303.92 109.263 301.905 110.255C295.375 110.301 112.147 110.474 97.862 110.255C95.9311 109.256 88.2409 106.268 83.971 101.723C78.505 95.9041 76.507 88.3943 76.507 88.3943Z" filter="url(#Filter_zxcv_51)" shadowAngle="1.571" shadowColor="#000000" shadowOffset="1" shadowOpacity=".4" shadowRadius="2"/></g></g></g></svg>