<?xml version="1.0" encoding="UTF-8" standalone="no"?>
<!DOCTYPE svg PUBLIC "-//W3C//DTD SVG 1.1//EN" "http://www.w3.org/Graphics/SVG/1.1/DTD/svg11.dtd">
<!-- Created with Vectornator (http://vectornator.io/) -->
<svg height="100%" stroke-miterlimit="10" style="fill-rule:nonzero;clip-rule:evenodd;stroke-linecap:round;stroke-linejoin:round;" version="1.1" viewBox="0 0 222 331" width="100%" xml:space="preserve" xmlns="http://www.w3.org/2000/svg" xmlns:vectornator="http://vectornator.io" xmlns:xlink="http://www.w3.org/1999/xlink">
<defs>
<filter color-interpolation-filters="sRGB" filterUnits="userSpaceOnUse" height="45.8537" id="Filter" width="206.255" x="6.65443" y="112.974">
<feDropShadow dx="-2.82391e-06" dy="0.768786" flood-color="#000000" flood-opacity="0.6" in="SourceGraphic" result="Shadow" stdDeviation="1.26879"/>
</filter>
<linearGradient gradientTransform="matrix(1 0 0 1 0 -2.7049e-14)" gradientUnits="userSpaceOnUse" id="LinearGradient" x1="211.539" x2="9.83931" y1="134.271" y2="136.604">
<stop offset="0" stop-color="#efb198" stop-opacity="0"/>
<stop offset="0.598684" stop-color="#efb198"/>
<stop offset="1" stop-color="#b98a77"/>
</linearGradient>
<filter color-interpolation-filters="sRGB" filterUnits="userSpaceOnUse" height="121.802" id="Filter_2" width="144.008" x="38.4317" y="89.3614">
<feDropShadow dx="-2.82391e-06" dy="0.768786" flood-color="#000000" flood-opacity="0.6" in="SourceGraphic" result="Shadow" stdDeviation="1.26879"/>
</filter>
<linearGradient gradientTransform="matrix(-1 -1.22465e-16 0 1 220.872 0)" gradientUnits="userSpaceOnUse" id="LinearGradient_2" x1="211.539" x2="9.83931" y1="134.271" y2="136.604">
<stop offset="0" stop-color="#efb198" stop-opacity="0"/>
<stop offset="0.598684" stop-color="#efb198"/>
<stop offset="1" stop-color="#b98a77"/>
</linearGradient>
<filter color-interpolation-filters="sRGB" filterUnits="userSpaceOnUse" height="121.802" id="Filter_3" width="144.008" x="38.4317" y="89.3614">
<feDropShadow dx="-2.82391e-06" dy="0.768786" flood-color="#000000" flood-opacity="0.6" in="SourceGraphic" result="Shadow" stdDeviation="1.26879"/>
</filter>
<radialGradient cx="108.724" cy="154.631" gradientTransform="matrix(-1.0506 -1.28662e-16 0 1.0506 226.46 -7.56452)" gradientUnits="userSpaceOnUse" id="RadialGradient" r="220.615">
<stop offset="0" stop-color="#ffbea3"/>
<stop offset="0.251316" stop-color="#dea48d"/>
<stop offset="0.668421" stop-color="#efb198" stop-opacity="0"/>
</radialGradient>
<filter color-interpolation-filters="sRGB" filterUnits="userSpaceOnUse" height="127.965" id="Filter_4" width="151.295" x="34.7882" y="86.3187">
<feComponentTransfer in="SourceGraphic" result="Alpha">
<feFuncA slope="0.896465" type="linear"/>
</feComponentTransfer>
<feDropShadow dx="-2.9668e-06" dy="0.807687" flood-color="#000000" flood-opacity="0.6" in="Alpha" result="Shadow" stdDeviation="1.33299"/>
</filter>
<filter color-interpolation-filters="sRGB" filterUnits="userSpaceOnUse" height="65.7388" id="Filter_5" width="228.212" x="-3.10592" y="268.505">
<feDropShadow dx="-2.82391e-06" dy="0.768786" flood-color="#000000" flood-opacity="0.6" in="SourceGraphic" result="Shadow" stdDeviation="1.26879"/>
</filter>
<filter color-interpolation-filters="sRGB" filterUnits="userSpaceOnUse" height="109.435" id="Filter_6" width="224.764" x="-2.20031" y="193.366">
<feDropShadow dx="-2.82391e-06" dy="0.768786" flood-color="#000000" flood-opacity="0.6" in="SourceGraphic" result="Shadow" stdDeviation="1.26879"/>
</filter>
<linearGradient gradientTransform="matrix(-1 -1.22465e-16 0 1 220.742 -0.981767)" gradientUnits="userSpaceOnUse" id="LinearGradient_3" x1="34.6858" x2="-2.26135" y1="275.668" y2="273.598">
<stop offset="0" stop-color="#c0bebf"/>
<stop offset="1" stop-color="#a5a5a5"/>
</linearGradient>
<filter color-interpolation-filters="sRGB" filterUnits="userSpaceOnUse" height="77.8714" id="Filter_7" width="52.6628" x="166.729" y="220.007">
<feDropShadow dx="-2.9668e-06" dy="0.807687" flood-color="#000000" flood-opacity="0.6" in="SourceGraphic" result="Shadow" stdDeviation="1.33299"/>
</filter>
<filter color-interpolation-filters="sRGB" filterUnits="userSpaceOnUse" height="82.0693" id="Filter_8" width="44.8471" x="172.35" y="203.096">
<feDropShadow dx="-2.9668e-06" dy="0.807687" flood-color="#000000" flood-opacity="0.6" in="SourceGraphic" result="Shadow" stdDeviation="1.33299"/>
</filter>
<linearGradient gradientTransform="matrix(1 0 0 1 -1.06581e-14 0)" gradientUnits="userSpaceOnUse" id="LinearGradient_4" x1="34.6858" x2="-2.26135" y1="275.668" y2="273.598">
<stop offset="0" stop-color="#c0bebf"/>
<stop offset="1" stop-color="#a5a5a5"/>
</linearGradient>
<filter color-interpolation-filters="sRGB" filterUnits="userSpaceOnUse" height="75.0184" id="Filter_9" width="53.0418" x="0.971653" y="223.842">
<feDropShadow dx="-2.9668e-06" dy="0.807687" flood-color="#000000" flood-opacity="0.6" in="SourceGraphic" result="Shadow" stdDeviation="1.33299"/>
</filter>
<filter color-interpolation-filters="sRGB" filterUnits="userSpaceOnUse" height="82.0693" id="Filter_10" width="44.8471" x="3.54524" y="204.077">
<feDropShadow dx="-2.9668e-06" dy="0.807687" flood-color="#000000" flood-opacity="0.6" in="SourceGraphic" result="Shadow" stdDeviation="1.33299"/>
</filter>
<filter color-interpolation-filters="sRGB" filterUnits="userSpaceOnUse" height="12.5715" id="Filter_11" width="107.862" x="57.0715" y="93.354">
<feDropShadow dx="-6.49713e-06" dy="1.76879" flood-color="#000000" flood-opacity="0.6" in="SourceGraphic" result="Shadow" stdDeviation="1.26879"/>
</filter>
<filter color-interpolation-filters="sRGB" filterUnits="userSpaceOnUse" height="24.1754" id="Filter_12" width="111.389" x="54.8441" y="90.1848">
<feDropShadow dx="-6.49713e-06" dy="1.76879" flood-color="#000000" flood-opacity="0.6" in="SourceGraphic" result="Shadow" stdDeviation="1.26879"/>
</filter>
<linearGradient gradientTransform="matrix(1 0 0 1 0 -5.40609e-14)" gradientUnits="userSpaceOnUse" id="LinearGradient_5" x1="31.9784" x2="188.26" y1="224.362" y2="224.362">
<stop offset="0" stop-color="#424141" stop-opacity="0"/>
<stop offset="0.506579" stop-color="#343434"/>
<stop offset="1" stop-color="#2a2a2a"/>
</linearGradient>
<filter color-interpolation-filters="sRGB" filterUnits="userSpaceOnUse" height="221.873" id="Filter_13" width="162.626" x="28.8064" y="112.974">
<feDropShadow dx="-2.82391e-06" dy="0.768786" flood-color="#000000" flood-opacity="0.6" in="SourceGraphic" result="Shadow" stdDeviation="1.26879"/>
</filter>
<linearGradient gradientTransform="matrix(-1 -1.22465e-16 0 1 220.238 -2.70894e-14)" gradientUnits="userSpaceOnUse" id="LinearGradient_6" x1="31.9784" x2="188.26" y1="224.362" y2="224.362">
<stop offset="0" stop-color="#424141" stop-opacity="0"/>
<stop offset="0.506579" stop-color="#343434"/>
<stop offset="1" stop-color="#2a2a2a"/>
</linearGradient>
<filter color-interpolation-filters="sRGB" filterUnits="userSpaceOnUse" height="221.873" id="Filter_14" width="162.606" x="28.8262" y="112.974">
<feDropShadow dx="-2.82391e-06" dy="0.768786" flood-color="#000000" flood-opacity="0.6" in="SourceGraphic" result="Shadow" stdDeviation="1.26879"/>
</filter>
<linearGradient gradientTransform="matrix(1 0 0 1 0 0)" gradientUnits="userSpaceOnUse" id="LinearGradient_7" x1="24.9367" x2="195.171" y1="21.7555" y2="21.7555">
<stop offset="0" stop-color="#272223"/>
<stop offset="1" stop-color="#000000"/>
</linearGradient>
<filter color-interpolation-filters="sRGB" filterUnits="userSpaceOnUse" height="49.668" id="Filter_15" width="176.578" x="21.7647" y="-3.8473">
<feDropShadow dx="-2.82391e-06" dy="-0.768786" flood-color="#000000" flood-opacity="0.6" in="SourceGraphic" result="Shadow" stdDeviation="1.26879"/>
</filter>
<radialGradient cx="108.263" cy="-72.9829" gradientTransform="matrix(1 0 0 1 2.22045e-15 3.55271e-15)" gradientUnits="userSpaceOnUse" id="RadialGradient_2" r="166.732">
<stop offset="0" stop-color="#4f4f4f"/>
<stop offset="0.127632" stop-color="#3e3e3e"/>
<stop offset="1" stop-color="#000000" stop-opacity="0"/>
</radialGradient>
<filter color-interpolation-filters="sRGB" filterUnits="userSpaceOnUse" height="49.668" id="Filter_16" width="176.578" x="21.7647" y="-3.8473">
<feDropShadow dx="-2.82391e-06" dy="-0.768786" flood-color="#000000" flood-opacity="0.6" in="SourceGraphic" result="Shadow" stdDeviation="1.26879"/>
</filter>
<linearGradient gradientTransform="matrix(-1 -1.22465e-16 0 1 221.375 -2.71107e-14)" gradientUnits="userSpaceOnUse" id="LinearGradient_8" x1="207.202" x2="16.9616" y1="64.656" y2="65.6005">
<stop offset="0.00789474" stop-color="#554138" stop-opacity="0"/>
<stop offset="0.715789" stop-color="#554138"/>
<stop offset="1" stop-color="#493830"/>
</linearGradient>
<filter color-interpolation-filters="sRGB" filterUnits="userSpaceOnUse" height="81.3532" id="Filter_17" width="215.883" x="2.74636" y="38.9664">
<feDropShadow dx="-2.82391e-06" dy="-0.768786" flood-color="#000000" flood-opacity="0.6" in="SourceGraphic" result="Shadow" stdDeviation="1.26879"/>
</filter>
<linearGradient gradientTransform="matrix(1 0 0 1 0 0)" gradientUnits="userSpaceOnUse" id="LinearGradient_9" x1="207.202" x2="16.9616" y1="64.656" y2="65.6005">
<stop offset="0.00789474" stop-color="#554138" stop-opacity="0"/>
<stop offset="0.715789" stop-color="#554138"/>
<stop offset="1" stop-color="#493830"/>
</linearGradient>
<filter color-interpolation-filters="sRGB" filterUnits="userSpaceOnUse" height="81.3532" id="Filter_18" width="215.883" x="2.74636" y="38.9664">
<feDropShadow dx="-2.82391e-06" dy="-0.768786" flood-color="#000000" flood-opacity="0.6" in="SourceGraphic" result="Shadow" stdDeviation="1.26879"/>
</filter>
<radialGradient cx="55.0757" cy="49.0712" gradientTransform="matrix(0.735063 -3.33186e-18 -8.97e-18 0.735063 97.1844 96.6141)" gradientUnits="userSpaceOnUse" id="RadialGradient_3" r="15.3117">
<stop offset="0.435526" stop-color="#ffffff"/>
<stop offset="1" stop-color="#d2d2c7"/>
</radialGradient>
<radialGradient cx="54.7783" cy="48.0191" gradientTransform="matrix(0.735063 -3.33186e-18 -8.97e-18 0.735063 97.4052 97.3883)" gradientUnits="userSpaceOnUse" id="RadialGradient_4" r="29.5064">
<stop offset="0.435526" stop-color="#ffffff"/>
<stop offset="1" stop-color="#d2d2c7"/>
</radialGradient>
<radialGradient cx="55.0882" cy="48.0179" gradientTransform="matrix(0.735063 -3.33186e-18 -8.97e-18 0.735063 97.4052 97.3883)" gradientUnits="userSpaceOnUse" id="RadialGradient_5" r="24.4089">
<stop offset="0.435526" stop-color="#ffffff"/>
<stop offset="1" stop-color="#d2d2c7"/>
</radialGradient>
<radialGradient cx="54.2543" cy="48.0179" gradientTransform="matrix(0.735063 -3.33186e-18 -8.97e-18 0.735063 97.4052 97.3883)" gradientUnits="userSpaceOnUse" id="RadialGradient_6" r="29.5064">
<stop offset="0.435526" stop-color="#ffffff"/>
<stop offset="1" stop-color="#d2d2c7"/>
</radialGradient>
<filter color-interpolation-filters="sRGB" filterUnits="userSpaceOnUse" height="34.5263" id="Filter_19" width="50.047" x="112.525" y="119.683">
<feDropShadow dx="-2.55095e-06" dy="0.694476" flood-color="#000000" flood-opacity="0.6" in="SourceGraphic" result="Shadow" stdDeviation="1.76228"/>
</filter>
<radialGradient cx="54.3307" cy="49.3582" gradientTransform="matrix(0.697695 5.66993e-19 3.19331e-18 0.743781 99.6611 96.5066)" gradientUnits="userSpaceOnUse" id="RadialGradient_7" r="25.6709">
<stop offset="0.227632" stop-color="#5a3619"/>
<stop offset="0.380263" stop-color="#3a230f"/>
<stop offset="0.75" stop-color="#3a230f" stop-opacity="0"/>
</radialGradient>
<radialGradient cx="54.3019" cy="48.0733" gradientTransform="matrix(3.33531e-17 0.726899 -0.838872 4.85989e-17 178.57 93.3643)" gradientUnits="userSpaceOnUse" id="RadialGradient_8" r="13.3847">
<stop offset="0.0105263" stop-color="#4d2909" stop-opacity="0.8"/>
<stop offset="0.510526" stop-color="#67340a" stop-opacity="0.8"/>
<stop offset="0.734211" stop-color="#4a2507" stop-opacity="0.8"/>
<stop offset="0.936842" stop-color="#4a2507" stop-opacity="0"/>
</radialGradient>
<radialGradient cx="54.7303" cy="49.0589" gradientTransform="matrix(1.1969e-16 0.632879 -0.746859 1.67203e-16 174.072 98.4727)" gradientUnits="userSpaceOnUse" id="RadialGradient_9" r="25.217">
<stop offset="0" stop-color="#4a2507" stop-opacity="0.8"/>
<stop offset="0.161842" stop-color="#4d2909" stop-opacity="0.8"/>
<stop offset="0.311842" stop-color="#67340a" stop-opacity="0.8"/>
<stop offset="0.7" stop-color="#4d2909" stop-opacity="0"/>
</radialGradient>
<radialGradient cx="54.3307" cy="49.3582" gradientTransform="matrix(0.697695 5.66993e-19 3.19331e-18 0.743781 99.6611 96.5066)" gradientUnits="userSpaceOnUse" id="RadialGradient_10" r="25.6709">
<stop offset="0.227632" stop-color="#5a3619"/>
<stop offset="0.380263" stop-color="#3a230f"/>
<stop offset="0.75" stop-color="#3a230f" stop-opacity="0"/>
</radialGradient>
<radialGradient cx="54.5701" cy="48.6044" gradientTransform="matrix(0.746519 2.15267e-18 4.1453e-18 0.756016 97.0083 95.9086)" gradientUnits="userSpaceOnUse" id="RadialGradient_11" r="27.7343">
<stop offset="0.35" stop-color="#5a3619" stop-opacity="0"/>
<stop offset="0.527632" stop-color="#fffcfa"/>
<stop offset="0.681579" stop-color="#f7f3ef"/>
<stop offset="0.771053" stop-color="#3a230f" stop-opacity="0"/>
</radialGradient>
<radialGradient cx="56.649" cy="42.2702" gradientTransform="matrix(0.471188 2.12731e-18 -1.69088e-18 0.469816 111.968 110.317)" gradientUnits="userSpaceOnUse" id="RadialGradient_12" r="11.3175">
<stop offset="0" stop-color="#000000"/>
<stop offset="1" stop-color="#272727"/>
</radialGradient>
<filter color-interpolation-filters="sRGB" filterUnits="userSpaceOnUse" height="17.1244" id="Filter_20" width="17.1262" x="129.006" y="124.992">
<feDropShadow dx="-2.55095e-06" dy="0.694476" flood-color="#000000" flood-opacity="0.6" in="SourceGraphic" result="Shadow" stdDeviation="1.76228"/>
</filter>
<radialGradient cx="55.1433" cy="34.1332" gradientTransform="matrix(0.694358 -3.65673e-20 -1.48171e-18 0.948472 99.9816 90.4327)" gradientUnits="userSpaceOnUse" id="RadialGradient_13" r="54.3411">
<stop offset="0.264474" stop-color="#b18371"/>
<stop offset="1" stop-color="#80685a"/>
</radialGradient>
<filter color-interpolation-filters="sRGB" filterUnits="userSpaceOnUse" height="30.4536" id="Filter_21" width="50.0738" x="112.284" y="111.662">
<feDropShadow dx="-2.55095e-06" dy="0.694476" flood-color="#000000" flood-opacity="0.6" in="SourceGraphic" result="Shadow" stdDeviation="1.76228"/>
</filter>
<radialGradient cx="55.0757" cy="49.0712" gradientTransform="matrix(-0.735063 -9.33511e-17 8.97e-18 0.735063 124.507 96.6141)" gradientUnits="userSpaceOnUse" id="RadialGradient_14" r="15.3117">
<stop offset="0.435526" stop-color="#ffffff"/>
<stop offset="1" stop-color="#d2d2c7"/>
</radialGradient>
<radialGradient cx="54.7783" cy="48.0191" gradientTransform="matrix(-0.735063 -9.33511e-17 8.97e-18 0.735063 124.286 97.3883)" gradientUnits="userSpaceOnUse" id="RadialGradient_15" r="29.5064">
<stop offset="0.435526" stop-color="#ffffff"/>
<stop offset="1" stop-color="#d2d2c7"/>
</radialGradient>
<radialGradient cx="55.0882" cy="48.0179" gradientTransform="matrix(-0.735063 -9.33511e-17 8.97e-18 0.735063 124.286 97.3883)" gradientUnits="userSpaceOnUse" id="RadialGradient_16" r="24.4089">
<stop offset="0.435526" stop-color="#ffffff"/>
<stop offset="1" stop-color="#d2d2c7"/>
</radialGradient>
<radialGradient cx="54.2543" cy="48.0179" gradientTransform="matrix(-0.735063 -9.33511e-17 8.97e-18 0.735063 124.286 97.3883)" gradientUnits="userSpaceOnUse" id="RadialGradient_17" r="29.5064">
<stop offset="0.435526" stop-color="#ffffff"/>
<stop offset="1" stop-color="#d2d2c7"/>
</radialGradient>
<filter color-interpolation-filters="sRGB" filterUnits="userSpaceOnUse" height="34.5263" id="Filter_22" width="49.7446" x="59.4215" y="119.683">
<feDropShadow dx="-2.55095e-06" dy="0.694476" flood-color="#000000" flood-opacity="0.6" in="SourceGraphic" result="Shadow" stdDeviation="1.76228"/>
</filter>
<radialGradient cx="54.3307" cy="49.3582" gradientTransform="matrix(-0.697695 -8.4876e-17 -3.19331e-18 0.743781 122.03 96.5066)" gradientUnits="userSpaceOnUse" id="RadialGradient_18" r="25.6709">
<stop offset="0.227632" stop-color="#5a3619"/>
<stop offset="0.380263" stop-color="#3a230f"/>
<stop offset="0.75" stop-color="#3a230f" stop-opacity="0"/>
</radialGradient>
<radialGradient cx="54.3019" cy="48.0733" gradientTransform="matrix(-3.33531e-17 0.726899 0.838872 1.51331e-16 43.1217 93.3643)" gradientUnits="userSpaceOnUse" id="RadialGradient_19" r="13.3847">
<stop offset="0.0105263" stop-color="#4d2909" stop-opacity="0.8"/>
<stop offset="0.510526" stop-color="#67340a" stop-opacity="0.8"/>
<stop offset="0.734211" stop-color="#4a2507" stop-opacity="0.8"/>
<stop offset="0.936842" stop-color="#4a2507" stop-opacity="0"/>
</radialGradient>
<radialGradient cx="54.7303" cy="49.0589" gradientTransform="matrix(-1.1969e-16 0.632879 0.746859 2.58667e-16 47.6189 98.4727)" gradientUnits="userSpaceOnUse" id="RadialGradient_20" r="25.217">
<stop offset="0" stop-color="#4a2507" stop-opacity="0.8"/>
<stop offset="0.161842" stop-color="#4d2909" stop-opacity="0.8"/>
<stop offset="0.311842" stop-color="#67340a" stop-opacity="0.8"/>
<stop offset="0.7" stop-color="#4d2909" stop-opacity="0"/>
</radialGradient>
<radialGradient cx="54.3307" cy="49.3582" gradientTransform="matrix(-0.697695 -8.4876e-17 -3.19331e-18 0.743781 122.03 96.5066)" gradientUnits="userSpaceOnUse" id="RadialGradient_21" r="25.6709">
<stop offset="0.227632" stop-color="#5a3619"/>
<stop offset="0.380263" stop-color="#3a230f"/>
<stop offset="0.75" stop-color="#3a230f" stop-opacity="0"/>
</radialGradient>
<radialGradient cx="54.5701" cy="48.6044" gradientTransform="matrix(-0.746519 -8.92695e-17 -4.1453e-18 0.756016 124.683 95.9086)" gradientUnits="userSpaceOnUse" id="RadialGradient_22" r="27.7343">
<stop offset="0.35" stop-color="#5a3619" stop-opacity="0"/>
<stop offset="0.527632" stop-color="#fffcfa"/>
<stop offset="0.681579" stop-color="#f7f3ef"/>
<stop offset="0.771053" stop-color="#3a230f" stop-opacity="0"/>
</radialGradient>
<radialGradient cx="56.649" cy="42.2702" gradientTransform="matrix(-0.471188 -5.55766e-17 1.69088e-18 0.469816 109.723 110.317)" gradientUnits="userSpaceOnUse" id="RadialGradient_23" r="11.3175">
<stop offset="0" stop-color="#000000"/>
<stop offset="1" stop-color="#272727"/>
</radialGradient>
<filter color-interpolation-filters="sRGB" filterUnits="userSpaceOnUse" height="17.1244" id="Filter_23" width="17.1262" x="75.5589" y="124.992">
<feDropShadow dx="-2.55095e-06" dy="0.694476" flood-color="#000000" flood-opacity="0.6" in="SourceGraphic" result="Shadow" stdDeviation="1.76228"/>
</filter>
<radialGradient cx="55.1433" cy="34.1332" gradientTransform="matrix(-0.694358 -8.50709e-17 1.48171e-18 0.948472 121.71 90.4327)" gradientUnits="userSpaceOnUse" id="RadialGradient_24" r="54.3411">
<stop offset="0.264474" stop-color="#b18371"/>
<stop offset="1" stop-color="#80685a"/>
</radialGradient>
</defs>
<path d="M0 0L222 0L222 331L0 331L0 0Z" fill="#424141" fill-opacity="0" fill-rule="nonzero" opacity="1" stroke="none"/>
<clipPath id="ArtboardFrame">
<rect height="331" width="222" x="0" y="0"/>
</clipPath>
<g clip-path="url(#ArtboardFrame)" id="Gutenberg-Shadowed" vectornator:layerName="Gutenberg Shadowed">
<g opacity="1" vectornator:layerName="Gutenberg.Shadowed">
<g opacity="1" vectornator:layerName="Face">
<g filter="url(#Filter)" vectornator:layerName="Group 1" vectornator:shadowAngle="1.5708" vectornator:shadowColor="#000000" vectornator:shadowOffset="0.768786" vectornator:shadowOpacity="0.6" vectornator:shadowRadius="2.53757">
<path d="M32.0672 154.461C37.2918 139.971 34.6796 130.227 34.6796 117.888C24.1826 117.549 16.0156 119.402 11.1685 129.806C5.34475 142.307 19.6132 157.647 32.0672 154.461Z" fill="#efb198" fill-rule="nonzero" opacity="1" stroke="none" vectornator:layerName="path"/>
<path d="M188.107 154.098C217.181 154.098 217.503 115.572 185.683 115.377C185.962 127.493 187.514 156.699 188.107 154.098Z" fill="#efb198" fill-rule="nonzero" opacity="1" stroke="none" vectornator:layerName="path"/>
</g>
<path d="M113.721 174.922C112.697 192.846 118.41 186.581 129.473 189.9C132.277 190.742 138.385 199.891 136.277 201.695C126.911 211.981 85.8237 204.911 85.4147 204.107C79.1987 191.917 98.2507 189.444 104.716 186.823C107.836 185.325 108.25 180.654 108.355 175.224C90.5677 175.028 78.8647 178.238 71.9737 196.074C52.4357 191.187 42.8447 135.8 41.6037 117.662C57.5037 110.492 58.6887 107.339 59.9837 91.9252L159.579 91.7646C158.399 112.589 173.83 116.73 179.262 117.405C179.425 133.834 176.524 186.168 149.988 195.397C136.263 177.671 136.864 176.035 113.721 174.922Z" fill="url(#LinearGradient)" fill-rule="nonzero" filter="url(#Filter_2)" stroke="none" vectornator:layerName="path" vectornator:shadowAngle="1.5708" vectornator:shadowColor="#000000" vectornator:shadowOffset="0.768786" vectornator:shadowOpacity="0.6" vectornator:shadowRadius="2.53757"/>
<path d="M113.721 174.922C112.697 192.846 118.41 186.581 129.473 189.9C132.277 190.742 138.385 199.891 136.277 201.695C126.911 211.981 85.8237 204.911 85.4147 204.107C79.1987 191.917 98.2507 189.444 104.716 186.823C107.836 185.325 108.25 180.654 108.355 175.224C90.5677 175.028 78.8647 178.238 71.9737 196.074C52.4357 191.187 42.8447 135.8 41.6037 117.662C57.5037 110.492 58.6887 107.339 59.9837 91.9252L159.579 91.7646C158.399 112.589 173.83 116.73 179.262 117.405C179.425 133.834 176.524 186.168 149.988 195.397C136.263 177.671 136.864 176.035 113.721 174.922Z" fill="url(#LinearGradient_2)" fill-rule="nonzero" filter="url(#Filter_3)" stroke="none" vectornator:layerName="path" vectornator:shadowAngle="1.5708" vectornator:shadowColor="#000000" vectornator:shadowOffset="0.768786" vectornator:shadowOpacity="0.6" vectornator:shadowRadius="2.53757"/>
<path d="M113.887 176.209C112.811 195.04 118.813 188.458 130.436 191.945C133.383 192.83 139.799 202.442 137.584 204.337C127.744 215.143 84.5783 207.716 84.1486 206.871C77.6181 194.064 97.6341 191.466 104.426 188.712C107.704 187.139 108.139 182.231 108.249 176.526C89.5623 176.321 77.2672 179.693 70.0275 198.431C49.5008 193.297 39.4245 135.108 38.1207 116.052C54.8253 108.519 56.0702 105.206 57.4308 89.0122L162.065 88.8435C160.826 110.722 177.037 115.073 182.744 115.782C182.916 133.042 179.868 188.024 151.99 197.72C137.57 179.097 138.201 177.378 113.887 176.209Z" fill="url(#RadialGradient)" fill-rule="nonzero" filter="url(#Filter_4)" stroke="none" vectornator:layerName="path" vectornator:shadowAngle="1.5708" vectornator:shadowColor="#000000" vectornator:shadowOffset="0.807687" vectornator:shadowOpacity="0.6" vectornator:shadowRadius="2.66597"/>
</g>
<g filter="url(#Filter_5)" vectornator:layerName="Group 5" vectornator:shadowAngle="1.5708" vectornator:shadowColor="#000000" vectornator:shadowOffset="0.768786" vectornator:shadowOpacity="0.6" vectornator:shadowRadius="2.53757">
<path d="M221.934 286.452C209.833 300.772 165.99 335.062 144.916 328.538C158.145 319.223 160.997 307.729 169.438 295.749C172.766 291.025 177.912 291.428 186.699 285.821C195.485 280.213 199.383 277.301 204.584 273.32C206.372 271.952 218.953 284.427 221.934 286.452Z" fill="#272223" fill-rule="nonzero" opacity="1" stroke="none" vectornator:layerName="Curve 1"/>
<path d="M0.06605 284.751C14.9446 301.069 51.1082 329.125 74.5174 330.303C63.6979 318.611 59.2164 307.478 50.7232 295.425C47.3949 290.702 42.6196 290.153 32.4734 282.849C23.7304 276.553 16.8924 269.944 15.2027 271.025C10.2852 274.169 5.39061 282.814 0.06605 284.751Z" fill="#272223" fill-rule="nonzero" opacity="1" stroke="none" vectornator:layerName="path"/>
</g>
<g filter="url(#Filter_6)" vectornator:layerName="Group 6" vectornator:shadowAngle="1.5708" vectornator:shadowColor="#000000" vectornator:shadowOffset="0.768786" vectornator:shadowOpacity="0.6" vectornator:shadowRadius="2.53757">
<g opacity="1" vectornator:layerName="Group 5">
<path d="M213.75 246.895C216.669 252.623 214.15 249.394 213.207 250.584C212.929 250.935 213.578 252.769 212.931 252.645C212.931 252.645 211.903 252.299 211.657 252.937C211.528 253.271 211.921 255.006 211.497 256.244C211.109 257.373 210.349 242.444 211.3 243.263C211.511 242.898 211.406 243.103 212.45 241.711C212.535 237.008 210.635 223.01 211.18 222.542C211.417 222.339 213.207 225.236 213.207 225.236C214.932 229.204 215.71 233.377 215.76 233.744C216.026 235.696 214.989 232.911 214.76 232.935C214.661 232.945 215.047 234.294 215.15 234.809C215.585 236.987 216.4 241.984 215.905 241.796C215.324 241.575 214.295 237.012 214.295 237.012C214.719 238.784 214.981 239.814 215.266 240.867C215.618 242.163 215.494 245.177 215.434 245.513C215.239 246.597 213.865 242.375 213.865 242.375C213.865 245.153 216.359 250.125 213.75 246.895ZM209.828 264.051C210.471 265.212 210.866 269.988 207.9 269.073C207.9 269.073 206.855 268.609 206.474 269.142C206.274 269.421 206.383 271.033 205.7 272.077C205.078 273.029 203.71 273.437 202.597 273.343C203.602 275.174 201.52 278.532 198.137 277.086C199.003 279.867 195.795 283.364 193.388 281.005C193.426 285.835 190.959 285.954 187.564 283.812C187.774 287.638 185.617 287.379 184.171 287.861C183.768 287.996 183.752 288.692 183.354 288.841C181.424 289.566 179.877 289.715 178.13 290.964C176.634 292.032 173.401 291.762 172.742 293.739C166.884 293.739 172.431 290.512 172.579 287.861C172.627 286.992 172.482 286.115 172.579 285.249C172.634 284.75 173.572 284.748 173.721 284.27C174.251 282.576 173.067 282.311 174.538 281.821C174.538 278.922 175.434 279.953 175.681 278.392C175.816 277.532 175.585 276.645 175.681 275.78C175.732 275.321 176.182 273.383 177.162 273.166C177.608 273.067 177.997 274.228 178.594 274.471C177.153 268.647 178.913 267.341 179.464 266.79C179.464 267.478 179.929 270.182 180.573 272.543C181.572 276.203 181.959 274.937 182.458 276.113C182.858 277.053 182.299 279.659 183.664 281.025C184.352 280.133 184.153 277.289 184.183 276.376C184.306 272.557 186.442 270.649 187.093 270.901C187.207 270.946 187.54 270.871 188.002 271.968C188.524 273.209 188.579 276.923 188.742 277.086C189.374 276.454 188.866 274.435 190.049 274.963C189.662 273.672 189.338 272.403 189.593 270.549C189.894 268.373 190.434 266.514 191.845 266.636C192.934 266.73 192.855 269.442 193.967 270.555C195.239 269.707 194.514 267.553 195.006 265.73C195.174 265.109 195.456 264.519 195.791 264.176C196.366 263.588 197.096 263.553 197.663 264.069C198.561 264.885 198.549 266.81 199.028 267.289C199.733 266.585 199.493 263.799 199.679 262.15C199.79 261.162 200.24 259.762 201.09 259.653C202.03 259.532 202.616 261.135 202.915 262.371C203.186 263.49 203.39 265.812 203.39 265.812C203.39 265.812 203.571 265.954 203.763 266.146C204.958 265.549 203.082 249.565 207.519 257.33C208.063 258.282 206.969 259.556 207.845 260.432C208.419 259.859 207.143 245.908 210.621 251.126C211.128 250.787 211.246 242.626 212.743 243.125C213.827 243.487 213.264 246.839 213.56 248.023C214.052 249.994 215.156 256.286 213.07 254.718C212.93 255.628 214.285 261.216 211.824 260.151C210.481 260.134 213.865 264.799 209.828 264.051Z" fill="url(#LinearGradient_3)" fill-rule="nonzero" filter="url(#Filter_7)" stroke="none" vectornator:layerName="Curve 4" vectornator:shadowAngle="1.5708" vectornator:shadowColor="#000000" vectornator:shadowOffset="0.807687" vectornator:shadowOpacity="0.6" vectornator:shadowRadius="2.66597"/>
<path d="M186.496 195.769C188.364 196.812 191.637 200.984 192.159 201.505C194.626 203.973 197.281 206.275 199.845 208.838C200.865 209.859 202.678 210.461 202.131 212.104C201.999 212.499 199.407 213.463 197.011 213.924C195.154 214.281 193.387 214.153 193.151 214.39C193.232 214.553 193.232 214.553 193.314 214.716C191.984 216.047 188.828 214.411 187.763 216.186C187.301 216.955 189.509 217.075 190.375 216.839C191.922 216.417 194.331 216.085 195.763 215.369C196.493 215.004 197.417 215.553 198.212 215.369C200.527 214.836 201.652 213.219 204.58 213.737C206.526 214.08 207.166 217.458 208.34 218.632C208.997 219.432 210.674 222.178 211.151 222.655C211.317 222.531 212.762 223.997 212.292 225.367C211.88 226.569 212.186 228.177 211.764 228.431C211.645 228.502 210.775 228.753 210.621 228.757C206.159 228.864 201.694 228.816 197.233 228.921C194.85 228.976 188.914 228.423 187.273 230.064C187.382 230.227 187.404 230.543 187.6 230.553C190.316 230.71 193.042 230.553 195.763 230.553C198.208 230.553 200.748 230.39 203.11 230.39C203.646 230.39 204.056 229.853 204.58 229.737C206.187 229.38 210.897 229.153 212.58 229.574C212.804 229.629 213.051 229.834 213.07 230.064C213.219 231.854 213.25 233.057 213.148 234.85C213.139 235.004 212.896 235.757 212.743 235.778C211.919 235.896 211.126 235.322 210.294 235.288C206.379 235.132 202.456 235.394 198.539 235.288C194.689 235.184 191.113 234.988 186.946 234.799C186.775 234.791 186.611 234.713 186.457 234.635C185.311 234.062 183.294 232.13 183.304 230.849C183.31 230.064 184.66 226.848 184.66 225.385C184.66 223.481 183.379 220.183 183.395 218.279C183.433 213.815 185.346 205.456 185.509 205.62C186.657 204.471 184.894 203.514 185.657 202.107C185.954 201.558 185.584 197.75 186.496 195.769ZM203.6 241.983C202.729 241.111 197.694 241.527 196.906 241.493C194.475 241.387 192.178 240.64 188.579 240.187C187.343 240.031 185.82 240.018 184.824 240.35C184.824 241.897 188.676 241.313 190.049 241.656C194.555 242.783 199.642 242.944 204.09 243.778C206.057 244.148 208.712 243.42 210.621 244.268C211.189 244.488 212.005 250.557 210.947 251.615C210.078 251.18 209.797 249.687 208.825 249.493C207.404 249.209 205.584 249.832 204.253 249.166C202.744 248.412 200.685 248.933 199.192 248.187C197.623 247.402 196.944 247.592 194.947 247.37C193.238 247.18 190.583 246.405 189.069 245.901C187.594 245.41 185.768 245.814 184.334 245.574C183.148 245.377 183.977 243.185 184.007 241.983C184.021 241.471 184.001 240.66 184.114 239.774C184.287 238.408 184.685 236.896 185.314 236.268C185.781 236.502 187.026 236.26 187.436 236.268C189.885 236.313 192.336 236.327 194.783 236.431C198.653 236.596 202.433 237.248 206.376 237.248C208.288 237.248 210.735 237.226 212.58 237.411C212.733 237.426 212.896 237.584 212.907 237.738C213.008 239.203 213.095 240.688 212.907 242.146C212.896 242.231 212.626 241.702 212.45 241.711C212.155 241.726 212.671 243.033 212.568 243.105C212.472 243.171 212.35 242.75 212.253 242.798C210.634 243.609 205.267 241.149 203.6 241.983ZM204.253 266.636C204.09 266.473 204.09 266.473 203.927 266.31C203.859 266.377 203.557 264.219 202.97 262.125C202.665 261.037 202.392 259.525 201.804 259.289C201.014 258.973 199.836 259.53 199.028 259.126C195.679 257.451 191.322 257.516 188.089 255.208C187.78 254.987 183.11 254.595 183.028 253.901C182.764 251.655 182.654 248.539 183.191 246.39C183.336 245.814 185.395 246.513 185.804 246.717C188.555 248.093 192.89 247.142 195.437 248.84C196.32 249.429 198.964 249.104 199.845 249.166C200.199 249.192 200.425 249.701 200.661 249.819C201.512 250.245 204.606 250.073 205.233 250.146C205.43 250.169 207.462 251.033 207.519 251.289C207.714 252.168 209.644 261.51 207.519 261.086C207.074 260.997 207.489 256.336 205.886 255.534C205.208 255.195 204.596 257.275 204.58 257.493C204.48 258.796 204.58 260.106 204.58 261.412C204.58 262.612 204.416 266.473 204.253 266.636ZM194.13 271.045C192.501 269.958 193.91 267.67 191.845 266.636C190.762 266.095 189.091 266.519 187.926 265.82C186.658 265.059 185.266 264.171 183.844 263.697C183.162 263.47 181.121 263.414 180.905 262.392C180.713 261.48 180.313 259.769 181.232 259.616C181.388 259.59 182.989 260.052 185.045 260.666C188.432 261.677 193.056 263.101 194.502 263.439C192.412 261.348 188.796 260.785 186.13 259.453C185.367 259.07 182.302 259.68 182.048 258.473C181.856 257.561 181.471 255.923 182.375 255.697C183.53 255.408 187.683 256.956 188.401 257.315C188.791 257.509 195.331 259.318 195.926 259.616C196.836 260.071 198.419 259.417 199.028 260.432C199.529 261.266 199.177 261.8 199.355 263.045C199.54 264.342 199.881 265.667 199.682 266.963C199.584 267.595 198.37 268.02 198.212 267.126C197.969 265.748 198.859 263.49 196.416 264.187C196.039 264.295 195.561 265.153 195.561 265.153C194.268 266.878 195.759 269.416 194.13 271.045ZM185.967 266.636C190.188 264.525 189.118 273.103 190.049 274.963C189.419 275.593 190.025 276.293 189.396 276.923C189.232 276.841 188.906 276.923 188.742 277.086C187.248 275.591 189.353 271.723 186.783 270.555C185.5 269.972 180.38 269.302 179.926 267.616C178.305 261.597 185.507 265.257 185.967 266.636Z" fill="#fcfafb" fill-rule="nonzero" opacity="1" stroke="none" vectornator:layerName="Curve 3"/>
<path d="M212.563 238.084C212.485 237.026 210.178 237.758 209.298 237.758C207.174 237.758 204.964 237.595 202.93 237.595C202.025 237.595 201.285 236.941 200.318 236.941C196.089 236.941 192.03 236.873 187.583 236.778C186.906 236.764 185.769 236.713 185.297 236.288C184.836 235.874 185.02 235.096 185.95 234.166C186.844 235.06 196.433 234.403 198.195 234.656C202.291 235.24 206.469 234.821 210.604 234.982C211.224 235.007 211.791 235.593 212.4 235.472C212.551 235.442 212.717 235.299 212.726 235.145C212.828 233.515 212.828 231.877 212.726 230.247C212.685 229.59 210.313 230.084 209.951 230.084C207.553 230.084 205.065 230.737 202.767 230.737C197.556 230.737 192.36 230.9 187.093 230.9C186.827 230.9 183.394 231.126 183.34 230.623C183.041 227.841 189.388 228.765 193.043 228.664C198.754 228.506 204.694 228.751 210.441 228.614C210.703 228.608 211.364 228.29 211.584 228.124C212.311 227.579 211.643 226.021 212.276 225.387C212.63 225.742 213.335 226.645 213.38 227.145C213.582 229.422 213.328 231.717 213.38 234.002C213.385 234.226 213.97 233.817 213.848 235.858C213.725 237.899 213.053 241.188 212.89 242.166C212.02 242.514 212.664 239.441 212.563 238.084ZM183.664 253.921C185.11 255.006 187.01 254.472 188.726 254.901C189.301 255.045 192.178 255.604 192.178 256.853C194.074 255.88 195.96 257.934 197.542 258.33C198.222 258.5 200.946 257.783 201.977 259.111C202.75 260.108 203.905 265.697 203.927 266.31C203.787 266.239 203.417 266.19 203.39 265.812C203.308 264.684 202.915 262.371 202.915 262.371C202.915 262.371 202.492 260.823 201.83 260.077C201.437 259.634 201.083 259.694 200.589 259.906C200.358 260.005 199.906 260.733 199.751 261.789C199.445 263.879 200.633 267.483 198.917 267.661C199.682 266.963 199.554 261.485 198.359 260.289C197.904 259.835 196.265 260.384 195.583 259.799C194.159 258.579 192.838 259.28 191.175 258.657C188.9 257.803 184.641 255.412 182.186 255.859C181.65 255.956 181.695 257.294 181.948 258.132C182.043 258.448 184.412 258.791 186.371 259.322C188.33 259.853 188.127 260.32 190.195 260.616C190.276 260.627 193.278 262.519 193.787 262.738C195.027 263.269 197.384 263.421 198.005 264.502C198.005 264.502 197.255 263.869 196.416 264.187C195.444 264.555 195.179 266.45 195.092 267.078C194.952 268.099 195.068 267.994 194.947 269.37C194.879 270.139 194.573 271.014 194.13 271.045C194.699 268.911 194.1 264.475 193.542 263.998C191.114 261.923 186.433 261.697 184.807 261.106C184.336 260.934 183.692 261.134 183.338 260.779C182.699 261.098 181.958 260.002 181.41 259.66C181.184 259.518 180.787 259.893 180.766 259.937C180.475 260.53 180.761 261.864 181.215 262.412C181.735 263.038 184.089 263.802 184.481 263.88C186.768 264.338 187.625 264.988 190.014 265.355C190.255 265.393 191.495 265.782 192.161 266.389C193.068 267.214 193.183 268.441 193.16 269.16C192.925 269.254 192.834 266.301 191.404 266.778C189.798 267.315 189.314 270.934 190.049 274.963C188.988 273.903 189.693 266.679 186.206 268.421C182.406 266.428 180.077 264.779 179.957 265.049C179.918 265.139 179.464 266.79 180.011 266.676C179.689 267.396 180.115 267.828 180.152 267.879C180.641 268.548 181.507 268.066 182.877 267.409C181.654 269.69 186.876 269.822 187.671 271.121C187.841 271.464 188.119 272.17 188.002 271.968C187.911 271.811 187.437 270.812 187.093 270.901C184.405 271.6 184.553 275.469 184.322 277.086C184.164 278.186 184.472 280.216 183.664 281.025C183.281 280.833 182.872 279.634 182.872 279.634C182.872 279.634 182.572 277.867 182.521 276.453C182.478 275.229 180.905 274.897 179.689 275.316C177.406 276.134 178.15 274.106 177.162 274.144C176.629 274.164 176.624 274.384 176.324 274.623C176.219 274.706 175.823 275.571 175.708 275.362C175.518 275.019 176.411 268.421 178.073 270.38C178.16 266.089 179.287 266.4 179.92 265.083C180.117 264.709 179.863 264.204 179.909 263.88C179.945 263.629 179.766 261.719 180.072 261.106C180.192 260.866 180.553 260.224 180.839 259.857C181.124 259.489 181.462 259.646 181.458 259.557C181.451 259.415 182.025 258.906 182.048 258.473C181.939 258.158 181.652 257.258 181.801 256.192C181.911 255.407 182.413 254.46 182.6 253.956C182.905 253.131 183.247 253.609 183.664 253.921ZM208.012 260.926C208.366 255.7 208.386 250.691 205.216 250.493C199.549 250.139 194.156 248.983 188.92 247.674C186.849 247.157 184.524 247.838 182.865 246.178C183.323 245.72 183.531 244.668 183.731 244.209C184.071 243.428 190.091 245.862 192.317 246.084C193.12 246.164 192.807 246.656 194.114 246.9C195.42 247.145 196.453 246.883 197.542 247.064C200.072 247.486 202.519 248.701 205.053 248.86C205.97 248.917 209.197 249.198 209.788 250.066C209.908 250.242 210.062 250.79 210.087 250.845C210.137 250.957 209.86 250.38 209.661 250.216C209.458 250.048 209.179 249.939 208.809 250.332C207.947 251.245 210.289 260.21 208.012 260.926ZM202.114 210.818C203.183 211.353 204.22 212.752 204.889 213.757C203.973 214.674 201.87 213.919 200.644 214.41C200.25 214.567 200.223 215.231 199.828 215.39C198.626 215.87 196.934 215.479 195.746 215.716C194.08 216.05 192.021 216.853 190.358 217.186C189.737 217.31 184.661 217.733 183.886 217.427C183.886 217.427 184.008 216.651 183.969 215.974C183.93 215.295 190.911 215.052 191.828 214.9C192.584 214.774 192.855 213.709 193.297 213.593C194.298 213.332 195.366 213.637 196.399 213.593C197.448 213.55 197.843 212.608 198.685 212.451C199.543 212.289 200.571 212.771 201.297 212.287C202.048 211.787 201.557 211.375 202.114 210.818ZM208.323 218.652C208.564 218.924 208.781 219.191 208.98 219.452C209.889 220.643 210.433 221.721 211.134 222.676C209.741 223.54 206.824 222.461 205.033 222.829C204.456 222.947 204.353 223.655 203.776 223.773C202.02 224.134 199.651 223.496 197.939 223.598C195.536 223.74 192.53 224.337 190.132 224.478C189.031 224.544 184.5 224.903 183.925 224.088C183.743 223.83 183.869 223.461 183.856 222.99C183.814 221.518 190.415 222.652 192.444 222.218C194.474 221.784 193.004 221.21 194.661 221.008C196.319 220.804 197.6 221.319 199.074 221.406C200.57 221.495 201.223 220.537 202.436 220.477C203.671 220.414 204.696 221.094 206.168 220.638C207.64 220.181 207.435 217.646 208.323 218.652ZM184.934 249.36C186.616 250.445 188.825 249.911 190.821 250.34C191.49 250.484 190.979 251.089 191.58 251.32C192.368 251.621 193.567 251.223 194.429 251.646C196.141 252.487 199.235 253.373 201.075 253.769C201.866 253.938 205.995 254.784 206.277 255.813C206.277 255.813 205.475 255.151 205.137 256.305C204.516 258.422 204.632 265.3 204.253 266.636C202.852 265.432 203.415 256.923 202.025 255.727C201.496 255.273 199.59 255.822 198.796 255.237C197.141 254.017 195.604 254.718 193.669 254.095C191.024 253.242 186.667 251.13 183.794 251.483C183.33 251.54 182.788 251.423 182.752 250.78L182.836 248.869C182.836 248.869 184.419 249.029 184.934 249.36ZM213.184 243.629C213.197 243.733 213.036 243.349 212.878 243.223C212.72 243.097 212.552 243.125 212.552 243.125C212.552 243.125 212.208 243.121 211.903 243.968C211.608 244.786 211.523 245.661 211.42 246.411C211.265 247.549 211.941 251.181 210.947 251.615C210.929 251.51 211.098 251.394 211.144 250.918C211.208 250.252 211.557 244.723 210.099 244.386C206.047 243.448 204.362 245.048 198.232 243.448C194.018 242.349 194.657 242.725 193.134 242.656C191.442 242.579 189.843 241.676 188.236 241.676C187.37 241.676 184.061 242.389 184.007 241.068C183.985 240.525 183.866 239.979 184.114 239.774C184.96 239.075 187.781 240.183 188.905 240.183C193.017 240.183 196.298 241.187 200.318 241.187C201.368 241.187 202.143 241.183 203.695 241.428C205.246 241.673 206.347 242.022 207.211 242.166C208.06 242.308 211.057 242.03 212.45 242.68C212.791 242.839 213.153 243.374 213.184 243.629ZM199.845 208.838C198.643 209.318 196.903 208.227 195.715 208.465C194.049 208.798 191.99 209.602 190.327 209.935C189.706 210.059 184.748 210.458 183.973 210.153C183.973 210.153 183.976 209.611 183.937 208.933C183.898 208.254 190.879 207.801 191.796 207.649C192.553 207.522 192.824 206.458 193.266 206.342C194.266 206.081 194.939 205.024 196.345 206.082C197.95 207.29 199.845 208.838 199.845 208.838Z" fill="#e8e8e8" fill-rule="nonzero" filter="url(#Filter_8)" stroke="none" vectornator:layerName="Curve 1" vectornator:shadowAngle="1.5708" vectornator:shadowColor="#000000" vectornator:shadowOffset="0.807687" vectornator:shadowOpacity="0.6" vectornator:shadowRadius="2.66597"/>
</g>
<g opacity="1" vectornator:layerName="Group 9">
<path d="M6.99268 247.876C4.07317 253.604 6.59248 250.375 7.53474 251.565C7.81275 251.916 7.16413 253.75 7.81165 253.626C7.81165 253.626 8.83925 253.28 9.08525 253.918C9.21385 254.252 8.82115 255.987 9.24555 257.225C9.63275 258.354 10.3927 243.425 9.44265 244.244C9.23115 243.879 9.33615 244.084 8.29235 242.692C8.20695 237.989 9.16835 226.215 8.46665 226.368C7.42337 226.597 6.93107 229.262 6.44748 230.504C6.24416 231.026 5.54445 233.882 5.32936 234.958C4.6927 238.146 2.88645 241.634 6.44748 237.993C3.84577 243.144 3.88688 243.94 5.90609 243.334C6.87771 245.468 4.3831 251.106 6.99268 247.876ZM10.9146 265.032C10.2712 266.193 9.87635 270.969 12.8421 270.054C12.8421 270.054 13.8874 269.59 14.2685 270.123C14.4678 270.402 14.3594 272.014 15.0419 273.058C15.6644 274.01 17.0324 274.418 18.1456 274.324C17.1402 276.155 19.222 279.513 22.6056 278.067C21.7394 280.848 24.9472 284.345 27.3541 281.986C27.3159 286.816 29.7829 286.935 33.1784 284.793C32.9679 288.619 35.1248 288.36 36.5714 288.842C36.9746 288.977 36.9897 289.673 37.3877 289.822C39.3185 290.547 40.8647 290.696 42.6124 291.945C44.1082 293.013 47.3414 292.743 48.0003 294.72C53.8585 294.72 48.3108 291.493 48.1636 288.842C48.1153 287.973 48.2599 287.096 48.1636 286.23C48.1082 285.731 47.1703 285.729 47.0207 285.251C46.4913 283.557 47.6753 283.292 46.2044 282.802C46.2044 279.903 45.3079 280.934 45.0615 279.373C44.9257 278.513 45.1576 277.626 45.0615 276.761C45.0105 276.302 44.5601 274.364 43.5799 274.147C43.1344 274.048 42.745 275.209 42.148 275.452C43.5888 269.628 41.8293 268.322 41.2782 267.771C41.2782 268.459 40.8131 271.163 40.1688 273.524C39.1706 277.184 38.7832 275.918 38.284 277.094C37.8844 278.034 38.4435 280.64 37.0779 282.006C36.3905 281.114 36.589 278.27 36.5596 277.357C36.4364 273.538 34.2999 271.63 33.6493 271.882C33.5349 271.927 33.2017 271.852 32.7403 272.949C32.2186 274.19 32.163 277.904 31.9998 278.067C31.3684 277.435 31.876 275.416 30.6936 275.944C31.0803 274.653 31.4046 273.384 31.1487 271.53C30.8484 269.354 30.3084 267.495 28.8976 267.617C27.8082 267.711 27.8874 270.423 26.775 271.536C25.5035 270.688 26.2286 268.534 25.7362 266.711C25.5685 266.09 25.2858 265.5 24.9507 265.157C24.3757 264.569 23.6465 264.534 23.0792 265.05C22.1812 265.866 22.1929 267.791 21.7137 268.27C21.0092 267.566 21.2489 264.78 21.0631 263.131C20.9518 262.143 20.5022 260.743 19.6518 260.634C18.7122 260.513 18.1262 262.116 17.8271 263.352C17.5564 264.471 17.3523 266.793 17.3523 266.793C17.3523 266.793 17.1707 266.935 16.9788 267.127C15.784 266.53 17.6606 250.546 13.2236 258.311C12.6794 259.263 13.7728 260.537 12.897 261.413C12.3235 260.84 13.5995 246.889 10.1214 252.107C9.61415 251.768 9.49575 243.607 7.99885 244.106C6.91538 244.468 7.47854 247.82 7.18259 249.004C6.68982 250.975 5.58639 257.267 7.67245 255.699C7.81245 256.609 6.45727 262.197 8.91815 261.132C10.2614 261.115 6.87771 265.78 10.9146 265.032Z" fill="url(#LinearGradient_4)" fill-rule="nonzero" filter="url(#Filter_9)" stroke="none" vectornator:layerName="Curve 4" vectornator:shadowAngle="1.5708" vectornator:shadowColor="#000000" vectornator:shadowOffset="0.807687" vectornator:shadowOpacity="0.6" vectornator:shadowRadius="2.66597"/>
<path d="M32.0289 198.409C31.6285 200.052 31.7269 200.025 30.9271 201.825C30.6809 202.379 30.0726 202.604 29.5507 203.125C27.0833 205.593 23.4611 207.256 20.8973 209.819C19.8768 210.84 18.064 211.442 18.6115 213.085C18.7431 213.48 21.3351 214.444 23.7315 214.905C25.5878 215.262 27.3549 215.134 27.5914 215.371C27.5099 215.534 27.5099 215.534 27.4281 215.697C28.7586 217.028 31.9146 215.392 32.9793 217.167C33.4412 217.936 31.233 218.056 30.3671 217.82C28.8197 217.398 26.4115 217.066 24.9791 216.35C24.2489 215.985 23.3254 216.534 22.53 216.35C20.2156 215.817 19.09 214.2 16.1624 214.718C14.216 215.061 13.5762 218.439 12.4019 219.613C11.7452 220.413 10.0683 223.159 9.59115 223.636C9.42565 223.512 7.97995 224.978 8.44985 226.348C8.86205 227.55 8.55605 229.158 8.97855 229.412C9.09705 229.483 9.96725 229.734 10.1214 229.738C14.5832 229.845 19.0478 229.797 23.5096 229.902C25.8918 229.957 31.8284 229.404 33.4692 231.045C33.3604 231.208 33.3386 231.524 33.1426 231.534C30.426 231.691 27.7002 231.534 24.9791 231.534C22.5339 231.534 19.9938 231.371 17.6319 231.371C17.0958 231.371 16.6857 230.834 16.1624 230.718C14.5556 230.361 9.84485 230.134 8.16215 230.555C7.93815 230.61 7.69155 230.815 7.67245 231.045C7.52323 232.835 7.49214 234.038 7.59465 235.831C7.60335 235.985 7.84655 236.738 7.99885 236.759C8.82315 236.877 9.61615 236.303 10.4479 236.269C14.3633 236.113 18.2864 236.375 22.2035 236.269C26.0528 236.165 29.6291 235.969 33.7957 235.78C33.9676 235.772 34.1316 235.694 34.2856 235.616C35.4313 235.043 35.1121 233.142 35.1019 231.861C35.0956 231.076 34.6344 231.076 34.2062 230.824C32.8393 230.022 33.7957 227.119 33.7957 225.656C33.7957 223.752 33.8121 221.847 33.7957 219.943C33.7576 215.479 33.7917 211.014 33.6325 206.554C33.627 206.4 33.4148 206.337 33.3059 206.227C33.1426 206.39 33.1426 206.39 32.9793 206.554C31.8312 205.405 33.2338 204.356 32.4715 202.949C32.1742 202.4 32.9403 200.39 32.0289 198.409ZM17.1421 242.964C18.0133 242.092 23.048 242.508 23.8362 242.474C26.2676 242.368 28.5642 241.621 32.163 241.168C33.3992 241.012 34.9217 240.999 35.9183 241.331C35.9183 242.878 32.0661 242.294 30.6936 242.637C26.1873 243.764 21.1003 243.925 16.6522 244.759C14.6847 245.129 12.0297 244.401 10.1214 245.249C9.55275 245.469 8.73695 251.538 9.79495 252.596C10.6644 252.161 10.9455 250.668 11.9173 250.474C13.3383 250.19 15.1586 250.813 16.4889 250.147C17.9977 249.393 20.0576 249.914 21.5504 249.168C23.1189 248.383 23.798 248.573 25.7955 248.351C27.5043 248.161 30.1596 247.386 31.6732 246.882C33.1477 246.391 34.9743 246.795 36.4081 246.555C37.594 246.358 36.7655 244.166 36.7347 242.964C36.7215 242.452 36.7409 241.641 36.6285 240.755C36.4552 239.389 36.0567 237.877 35.4284 237.249C34.9615 237.483 33.7166 237.241 33.3059 237.249C30.8567 237.294 28.4062 237.308 25.9587 237.412C22.0888 237.577 18.3094 238.229 14.3664 238.229C12.4544 238.229 10.0072 238.207 8.16215 238.392C8.00905 238.407 7.84625 238.565 7.83565 238.719C7.73455 240.184 7.64755 241.669 7.83565 243.127C7.84655 243.212 8.11665 242.683 8.29235 242.692C8.58705 242.707 8.07115 244.014 8.17385 244.086C8.27005 244.152 8.39235 243.731 8.48875 243.779C10.1086 244.59 15.4749 242.13 17.1421 242.964ZM16.4889 267.617C16.6522 267.454 16.6522 267.454 16.8155 267.291C16.8827 267.358 17.185 265.2 17.7717 263.106C18.0767 262.018 18.3504 260.506 18.938 260.27C19.7281 259.954 20.906 260.511 21.7137 260.107C25.063 258.432 29.4205 258.497 32.6529 256.189C32.9619 255.968 37.6326 255.576 37.7142 254.882C37.9784 252.636 38.0882 249.52 37.5511 247.371C37.4066 246.795 35.3472 247.494 34.9386 247.698C32.187 249.074 27.8522 248.123 25.3056 249.821C24.4218 250.41 21.7784 250.085 20.8973 250.147C20.5433 250.173 20.3172 250.682 20.081 250.8C19.2305 251.226 16.1359 251.054 15.5094 251.127C15.3119 251.15 13.2805 252.014 13.2236 252.27C13.0282 253.149 11.0986 262.491 13.2236 262.067C13.6685 261.978 13.2527 257.317 14.8563 256.515C15.5338 256.176 16.1457 258.256 16.1624 258.474C16.2626 259.777 16.1624 261.087 16.1624 262.393C16.1624 263.593 16.3257 267.454 16.4889 267.617ZM26.6118 272.026C28.2407 270.939 26.8323 268.651 28.8976 267.617C29.98 267.076 31.6511 267.5 32.8161 266.801C34.0842 266.04 35.4764 265.152 36.8979 264.678C37.5805 264.451 39.6216 264.395 39.8368 263.373C40.0288 262.461 40.4292 260.75 39.5102 260.597C39.3542 260.571 37.7534 261.033 35.6967 261.647C32.3097 262.658 27.6862 264.082 26.2403 264.42C28.3299 262.329 31.9457 261.766 34.6121 260.434C35.3753 260.051 38.4399 260.661 38.694 259.454C38.8859 258.542 39.2711 256.904 38.3673 256.678C37.2121 256.389 33.0588 257.937 32.3409 258.296C31.9515 258.49 25.4114 260.299 24.8158 260.597C23.9066 261.052 22.323 260.398 21.7137 261.413C21.2132 262.247 21.5649 262.781 21.3871 264.026C21.2017 265.323 20.8613 266.648 21.0606 267.944C21.1578 268.576 22.3724 269.001 22.53 268.107C22.7732 266.729 21.8828 264.471 24.326 265.168C24.7034 265.276 25.1808 266.134 25.1808 266.134C26.4744 267.859 24.9829 270.397 26.6118 272.026ZM34.7754 267.617C30.5537 265.506 31.6237 274.084 30.6936 275.944C31.3231 276.574 30.7171 277.274 31.3466 277.904C31.5099 277.822 31.8365 277.904 31.9998 278.067C33.4943 276.572 31.3891 272.704 33.959 271.536C35.2424 270.953 40.3623 270.283 40.8165 268.597C42.4369 262.578 35.2352 266.238 34.7754 267.617Z" fill="#fcfafb" fill-rule="nonzero" opacity="1" stroke="none" vectornator:layerName="Curve 3"/>
<path d="M8.17895 239.065C8.25745 238.007 10.5638 238.739 11.4444 238.739C13.5681 238.739 15.7783 238.576 17.812 238.576C18.7169 238.576 19.4576 237.922 20.4243 237.922C24.653 237.922 28.712 237.854 33.1594 237.759C33.836 237.745 34.973 237.694 35.4453 237.269C35.9064 236.855 35.7225 236.077 34.7922 235.147C33.8977 236.041 24.3096 235.384 22.5468 235.637C18.4508 236.221 14.2728 235.802 10.1382 235.963C9.51815 235.988 8.95085 236.574 8.34225 236.453C8.19135 236.423 8.02535 236.28 8.01575 236.126C7.91395 234.496 7.91395 232.858 8.01575 231.228C8.05685 230.571 10.4291 231.065 10.7913 231.065C13.1895 231.065 15.6774 231.718 17.9753 231.718C23.1867 231.718 28.3822 231.881 33.6493 231.881C33.915 231.881 34.7839 232.06 34.7922 231.555C34.8051 230.766 31.3543 229.746 27.6995 229.645C21.988 229.487 16.048 229.732 10.3015 229.595C10.0394 229.589 9.37855 229.271 9.15865 229.105C8.43115 228.56 9.09965 227.002 8.46665 226.368C8.11185 226.723 7.40709 227.626 7.3627 228.126C7.16031 230.403 7.41462 232.698 7.3627 234.983C7.35762 235.207 6.77211 234.798 6.89454 236.839C7.01698 238.88 7.68915 242.169 7.85245 243.147C8.72265 243.495 8.07845 240.422 8.17895 239.065ZM37.0779 254.902C35.6317 255.987 33.7325 255.453 32.0166 255.882C31.4408 256.026 28.5642 256.585 28.5642 257.834C26.6683 256.861 24.7822 258.915 23.1999 259.311C22.52 259.481 19.7958 258.764 18.7656 260.092C17.9921 261.089 16.8374 266.678 16.8155 267.291C16.9551 267.22 17.325 267.171 17.3523 266.793C17.4339 265.665 17.8271 263.352 17.8271 263.352C17.8271 263.352 18.2504 261.804 18.9117 261.058C19.3049 260.615 19.659 260.675 20.1533 260.887C20.3841 260.986 20.8363 261.714 20.9909 262.77C21.2971 264.86 20.1087 268.464 21.8252 268.642C21.0606 267.944 21.188 262.466 22.3835 261.27C22.8383 260.816 24.4771 261.365 25.1593 260.78C26.5827 259.56 27.9041 260.261 29.5675 259.638C31.842 258.784 36.1012 256.393 38.5559 256.84C39.0919 256.937 39.047 258.275 38.7945 259.113C38.6995 259.429 36.3304 259.772 34.3712 260.303C32.4119 260.834 32.6151 261.301 30.5472 261.597C30.4661 261.608 27.4641 263.5 26.9551 263.719C25.7147 264.25 23.3577 264.402 22.7372 265.483C22.7372 265.483 23.4869 264.85 24.326 265.168C25.2978 265.536 25.5632 267.431 25.6499 268.059C25.7905 269.08 25.674 268.975 25.7955 270.351C25.8635 271.12 26.1696 271.995 26.6118 272.026C26.0429 269.892 26.6424 265.456 27.2006 264.979C29.6278 262.904 34.309 262.678 35.9351 262.087C36.4066 261.915 37.0497 262.115 37.4046 261.76C38.0429 262.079 38.7844 260.983 39.3323 260.641C39.5584 260.499 39.9548 260.874 39.9763 260.918C40.2673 261.511 39.9814 262.845 39.5271 263.393C39.0074 264.019 36.6529 264.783 36.2617 264.861C33.9743 265.319 33.1175 265.969 30.7277 266.336C30.487 266.374 29.2476 266.763 28.581 267.37C27.6745 268.195 27.559 269.422 27.5818 270.141C27.8175 270.235 27.9085 267.282 29.3383 267.759C30.9439 268.296 31.4285 271.915 30.6936 275.944C31.7539 274.884 31.0496 267.66 34.5358 269.402C38.3362 267.409 40.6655 265.76 40.7848 266.03C40.8242 266.12 41.2782 267.771 40.7314 267.657C41.0536 268.377 40.6276 268.809 40.5901 268.86C40.1014 269.529 39.2349 269.047 37.8653 268.39C39.0879 270.671 33.8659 270.803 33.071 272.102C32.9015 272.445 32.6231 273.151 32.7403 272.949C32.8315 272.792 33.305 271.793 33.6493 271.882C36.3373 272.581 36.1895 276.45 36.4206 278.067C36.5777 279.167 36.2699 281.197 37.0779 282.006C37.4616 281.814 37.8699 280.615 37.8699 280.615C37.8699 280.615 38.1704 278.848 38.2209 277.434C38.2646 276.21 39.8372 275.878 41.0536 276.297C43.3366 277.115 42.5925 275.087 43.5799 275.125C44.1128 275.145 44.1179 275.365 44.4184 275.604C44.5229 275.687 44.919 276.552 45.0346 276.343C45.2245 276 44.331 269.402 42.669 271.361C42.5817 267.07 41.4555 267.381 40.8226 266.064C40.6251 265.69 40.8795 265.185 40.8333 264.861C40.7973 264.61 40.9766 262.7 40.6701 262.087C40.5505 261.847 40.1892 261.205 39.9035 260.838C39.6179 260.47 39.2802 260.627 39.2843 260.538C39.2908 260.396 38.7171 259.887 38.694 259.454C38.8028 259.139 39.0898 258.239 38.9408 257.173C38.8311 256.388 38.3287 255.441 38.1421 254.937C37.8368 254.112 37.4947 254.59 37.0779 254.902ZM12.7304 261.907C12.3758 256.681 12.356 251.672 15.5262 251.474C21.1934 251.12 26.5858 249.964 31.8219 248.655C33.8929 248.138 35.47 248.793 37.1292 247.133C36.671 246.675 37.2107 245.649 37.0108 245.19C36.6707 244.409 30.651 246.843 28.4247 247.065C27.6224 247.145 27.9348 247.637 26.6286 247.881C25.3224 248.126 24.2888 247.864 23.1999 248.045C20.6701 248.467 18.2235 249.682 15.6895 249.841C14.772 249.898 11.5449 250.179 10.954 251.047C10.8345 251.223 10.6797 251.771 10.6553 251.826C10.6047 251.938 10.8826 251.361 11.0814 251.197C11.2838 251.029 11.5628 250.92 11.9335 251.313C12.7955 252.226 10.4536 261.191 12.7304 261.907ZM18.6283 211.799C17.5595 212.334 16.5226 213.733 15.8528 214.738C16.7696 215.655 18.8721 214.9 20.0978 215.391C20.4924 215.548 20.5195 216.212 20.9141 216.371C22.1158 216.851 23.808 216.46 24.9959 216.697C26.662 217.031 28.721 217.834 30.3839 218.167C31.0052 218.291 33.0622 218.466 33.8371 218.16C33.8371 218.16 33.7156 217.384 33.7546 216.707C33.7937 216.028 29.8315 216.033 28.9144 215.881C28.158 215.755 27.8868 214.69 27.445 214.574C26.4444 214.313 25.376 214.618 24.3429 214.574C23.2939 214.531 22.8988 213.589 22.0571 213.432C21.1995 213.27 20.1707 213.752 19.4447 213.268C18.6939 212.768 19.1855 212.356 18.6283 211.799ZM12.4187 219.633C12.1785 219.905 11.9615 220.172 11.762 220.433C10.8528 221.624 10.3093 222.702 9.60805 223.657C11.001 224.521 13.9184 223.442 15.7095 223.81C16.2862 223.928 16.3891 224.636 16.9658 224.754C18.7218 225.115 21.0907 224.477 22.8035 224.579C25.2057 224.721 28.2124 225.318 30.61 225.459C31.7111 225.525 33.2234 225.636 33.7979 224.821C33.9802 224.563 33.8544 224.194 33.8677 223.723C33.9092 222.251 30.3275 223.633 28.298 223.199C26.2684 222.765 27.7385 222.191 26.081 221.989C24.4236 221.785 23.1422 222.3 21.6684 222.387C20.1721 222.476 19.5187 221.518 18.3062 221.458C17.0708 221.395 16.0464 222.075 14.5745 221.619C13.1026 221.162 13.3071 218.627 12.4187 219.633ZM35.8084 250.341C34.1262 251.426 31.9174 250.892 29.9215 251.321C29.2518 251.465 29.7636 252.07 29.1619 252.301C28.374 252.602 27.1747 252.204 26.3135 252.627C24.6015 253.468 21.5073 254.354 19.6669 254.75C18.8762 254.919 14.747 255.765 14.465 256.794C14.465 256.794 15.2671 256.132 15.6053 257.286C16.226 259.403 16.1099 266.281 16.4889 267.617C17.8902 266.413 17.3269 257.904 18.7175 256.708C19.2463 256.254 21.1525 256.803 21.9458 256.218C23.6016 254.998 25.1383 255.699 27.0731 255.076C29.7184 254.223 34.075 252.111 36.9478 252.464C37.412 252.521 37.9545 252.404 37.9906 251.761L37.9062 249.85C37.9062 249.85 36.3229 250.01 35.8084 250.341ZM7.55845 244.61C7.54565 244.714 7.70585 244.33 7.86395 244.204C8.02205 244.078 8.19065 244.106 8.19065 244.106C8.19065 244.106 8.53465 244.102 8.83965 244.949C9.13405 245.767 9.21965 246.642 9.32195 247.392C9.47705 248.53 8.80145 252.162 9.79495 252.596C9.81355 252.491 9.64465 252.375 9.59855 251.899C9.53395 251.233 9.18535 245.704 10.6431 245.367C14.6956 244.429 16.3806 246.029 22.5105 244.429C26.7237 243.33 26.085 243.706 27.6083 243.637C29.2998 243.56 30.8995 242.657 32.5064 242.657C33.3722 242.657 36.6813 243.37 36.7352 242.049C36.7574 241.506 36.8766 240.96 36.6285 240.755C35.7823 240.056 32.9613 241.164 31.8372 241.164C27.7253 241.164 24.4442 242.168 20.4243 242.168C19.3745 242.168 18.5987 242.164 17.0476 242.409C15.4965 242.654 14.3949 243.003 13.5311 243.147C12.6825 243.289 9.68495 243.011 8.29185 243.661C7.95135 243.82 7.58955 244.355 7.55845 244.61ZM20.8973 209.819C22.099 210.299 23.8393 209.208 25.0273 209.446C26.6934 209.779 28.7524 210.583 30.4153 210.916C31.0366 211.04 32.9749 211.191 33.7498 210.886C33.7498 210.886 33.7469 210.344 33.786 209.666C33.8251 208.987 29.8629 208.782 28.9458 208.63C28.1894 208.503 27.9182 207.439 27.4764 207.323C26.4758 207.062 25.8034 206.005 24.3976 207.063C22.792 208.271 20.8973 209.819 20.8973 209.819Z" fill="#e8e8e8" fill-rule="nonzero" filter="url(#Filter_10)" stroke="none" vectornator:layerName="Curve 1" vectornator:shadowAngle="1.5708" vectornator:shadowColor="#000000" vectornator:shadowOffset="0.807687" vectornator:shadowOpacity="0.6" vectornator:shadowRadius="2.66597"/>
</g>
</g>
<path d="M60.2435 100.813L161.761 100.985L161.761 94.9352L60.2435 94.7572L60.2435 100.813Z" fill="#67534b" fill-rule="nonzero" filter="url(#Filter_11)" stroke="none" vectornator:layerName="path" vectornator:shadowAngle="1.5708" vectornator:shadowColor="#000000" vectornator:shadowOffset="1.76879" vectornator:shadowOpacity="0.6" vectornator:shadowRadius="2.53757"/>
<path d="M59.0129 109.419C59.4734 108.918 61.4523 104.904 61.4659 103.08C61.4861 100.371 61.2097 97.68 61.8616 97.676C95.1423 97.4365 127.231 97.5431 160.363 97.8481C160.811 97.852 160.447 98.8544 160.391 100.18C160.29 102.577 162.205 106.704 162.841 107.395C163.141 107.069 161.449 103.165 161.535 101.941C161.573 101.402 162.148 100.493 162.157 99.9764C162.169 99.2274 161.88 98.5444 161.828 97.9567C161.759 97.2058 161.927 96.598 162.001 96.0689C162.073 95.5436 162.939 94.9013 162.983 94.2895C163.043 93.4428 163.273 91.8038 162.492 91.7985C127.835 91.5624 93.1781 91.5614 58.5213 91.6205C57.7601 91.6218 57.9907 93.58 58.3576 94.1116C59.1193 95.2153 58.2577 96.6872 58.685 97.8481C58.8415 98.2734 59.5911 99.1594 59.6675 99.4494C60.1515 101.29 57.6744 107.964 59.0129 109.419Z" fill="#7d6960" fill-rule="nonzero" filter="url(#Filter_12)" stroke="none" vectornator:layerName="path 1" vectornator:shadowAngle="1.5708" vectornator:shadowColor="#000000" vectornator:shadowOffset="1.76879" vectornator:shadowOpacity="0.6" vectornator:shadowRadius="2.53757"/>
<path d="M185.95 115.377C188.869 176.754 193.638 244.935 166.763 302.256C161.828 312.782 156.231 324.916 145.857 330.162C134.943 335.679 125.549 308.829 112.762 305.193C95.1015 300.17 84.5625 335.433 71.1695 326.693C53.1925 314.962 44.6815 283.435 39.9195 264.537C27.5975 215.645 33.2805 118.573 33.3255 117.818L41.0125 117.818C43.7695 135.366 51.0915 190.438 70.6065 195.318C77.4975 177.482 91.2575 174.341 109.044 174.537C108.94 179.967 109.238 183.419 104.731 187.006C100.688 190.224 79.7665 191.003 85.9815 203.193C86.3915 203.997 128.968 210.64 134.419 201.162C136.269 197.945 130.231 190.903 127.982 190.224C116.922 186.888 111.551 192.21 112.575 174.287C135.719 175.399 135.445 175.498 149.169 193.224C150.624 195.102 153.987 192.253 155.857 190.787C171.918 178.184 177.378 134.756 178.294 115.377L185.95 115.377Z" fill="url(#LinearGradient_5)" fill-rule="nonzero" filter="url(#Filter_13)" stroke="none" vectornator:layerName="Beard" vectornator:shadowAngle="1.5708" vectornator:shadowColor="#000000" vectornator:shadowOffset="0.768786" vectornator:shadowOpacity="0.6" vectornator:shadowRadius="2.53757"/>
<path d="M185.95 117.818C188.869 179.195 193.638 244.935 166.763 302.256C161.828 312.782 156.231 324.916 145.857 330.162C134.943 335.679 125.549 308.829 112.762 305.193C95.1015 300.17 84.5625 335.433 71.1695 326.693C53.1925 314.962 44.6815 283.435 39.9195 264.537C27.5975 215.645 33.3179 116.132 33.3629 115.377L41.2327 117.012C43.9897 134.56 51.0915 190.438 70.6065 195.318C77.4975 177.482 91.2575 174.341 109.044 174.537C108.94 179.967 109.238 183.419 104.731 187.006C100.688 190.224 79.7665 191.003 85.9815 203.193C86.3915 203.997 128.968 210.64 134.419 201.162C136.269 197.945 130.231 190.903 127.982 190.224C116.922 186.888 111.551 192.21 112.575 174.287C135.719 175.399 135.445 175.498 149.169 193.224C150.624 195.102 153.987 192.253 155.857 190.787C171.918 178.184 177.378 137.197 178.294 117.818L185.95 117.818Z" fill="url(#LinearGradient_6)" fill-rule="nonzero" filter="url(#Filter_14)" stroke="none" vectornator:layerName="Beard" vectornator:shadowAngle="1.5708" vectornator:shadowColor="#000000" vectornator:shadowOffset="0.768786" vectornator:shadowOpacity="0.6" vectornator:shadowRadius="2.53757"/>
<path d="M195.171 43.4175C190.865 42.8495 189.804 36.4126 187.466 32.7518C181.009 22.6417 174.995 16.6565 164.772 11.1369C132.6-6.23309 44.9772-6.90502 30.0347 37.1107C29.7149 38.0529 27.9568 43.3504 24.9367 43.1326L111.891 42.9184L195.171 43.4175Z" fill="url(#LinearGradient_7)" fill-rule="nonzero" filter="url(#Filter_15)" stroke="none" vectornator:layerName="hat" vectornator:shadowAngle="-1.5708" vectornator:shadowColor="#000000" vectornator:shadowOffset="0.768786" vectornator:shadowOpacity="0.6" vectornator:shadowRadius="2.53757"/>
<path d="M195.171 43.4175C190.865 42.8495 189.804 36.4126 187.466 32.7518C181.009 22.6417 174.995 16.6565 164.772 11.1369C132.6-6.23309 44.9772-6.90502 30.0347 37.1107C29.7149 38.0529 27.9568 43.3504 24.9367 43.1326L111.891 42.9184L195.171 43.4175Z" fill="url(#RadialGradient_2)" fill-rule="nonzero" filter="url(#Filter_16)" stroke="none" vectornator:layerName="hat" vectornator:shadowAngle="-1.5708" vectornator:shadowColor="#000000" vectornator:shadowOffset="0.768786" vectornator:shadowOpacity="0.6" vectornator:shadowRadius="2.53757"/>
<g opacity="1" vectornator:layerName="Group 7">
<path d="M186.894 117.864C209.867 115.373 204.31 103.598 199.574 86.0577C202.785 84.2618 206.317 82.8982 209.229 80.6497C221.187 71.4166 214.626 47.6804 200.552 44.413C196.448 43.4603 192.207 42.9222 187.994 42.9184C160.101 42.8931 29.0391 42.9184 29.0391 42.9184C11.5165 43.162 7.81585 54.3732 6.68863 59.1094C3.36047 73.0918 11.2441 80.4265 22.1182 86.0577C20.4312 92.948 17.4668 105.328 20.5318 111.112C24.2489 118.127 34.3397 117.894 34.3397 117.894L42.5057 117.916C42.5057 117.916 54.3175 115.955 59.0129 109.419C63.7086 102.883 61.288 91.7712 61.288 91.7712L66.07 91.5543L153.595 92.0311L160.893 91.924C160.893 91.924 158.361 100.896 162.841 107.395C168.913 116.204 179.165 117.672 179.165 117.672C179.165 117.672 186.898 117.934 186.894 117.864Z" fill="url(#LinearGradient_8)" fill-rule="nonzero" filter="url(#Filter_17)" stroke="none" vectornator:layerName="hatBrim" vectornator:shadowAngle="-1.5708" vectornator:shadowColor="#000000" vectornator:shadowOffset="0.768786" vectornator:shadowOpacity="0.6" vectornator:shadowRadius="2.53757"/>
<path d="M186.894 117.864C209.867 115.373 204.31 103.598 199.574 86.0577C202.785 84.2618 206.317 82.8982 209.229 80.6497C221.187 71.4166 214.626 47.6804 200.552 44.413C196.448 43.4603 192.207 42.9222 187.994 42.9184C160.101 42.8931 29.039 42.9184 29.039 42.9184C11.5165 43.162 7.81585 54.3732 6.68863 59.1094C3.36047 73.0918 11.2441 80.4265 22.1181 86.0577C20.4312 92.948 17.4668 105.328 20.5318 111.112C24.2489 118.127 34.3396 117.894 34.3396 117.894L42.5057 117.916C42.5057 117.916 54.3174 115.955 59.0129 109.419C63.7085 102.883 61.288 91.7712 61.288 91.7712L66.0699 91.5543L153.595 92.0311L160.893 91.924C160.893 91.924 158.361 100.896 162.841 107.395C168.913 116.204 179.165 117.672 179.165 117.672C179.165 117.672 186.898 117.934 186.894 117.864Z" fill="url(#LinearGradient_9)" fill-rule="nonzero" filter="url(#Filter_18)" stroke="none" vectornator:layerName="hatBrim" vectornator:shadowAngle="-1.5708" vectornator:shadowColor="#000000" vectornator:shadowOffset="0.768786" vectornator:shadowOpacity="0.6" vectornator:shadowRadius="2.53757"/>
</g>
<g opacity="1" vectornator:layerName="Group 1">
<path d="M143.321 123.497L133.208 123.494C128.426 123.494 124.244 123.141 122.047 124.998C120.728 126.113 122.231 127.572 121.415 128.703C119.221 131.745 116.984 137.259 116.984 137.259C118.849 143.904 127.781 149.069 137.237 149.109C146.771 149.149 155.956 143.766 157.943 136.934C157.943 136.934 158.003 129.186 153.865 125.301C151.909 123.464 147.981 123.497 143.321 123.497Z" fill="url(#RadialGradient_3)" fill-rule="nonzero" opacity="1" stroke="none" vectornator:layerName="Schlera 2"/>
<path d="M143.207 123.497C151.705 128.789 148.734 142.882 137.458 142.596C127.478 142.342 123.495 131.644 130.014 125.586C130.86 124.8 131.884 124.091 133.094 123.494C131.762 123.494 130.491 123.513 129.294 123.56C124.034 123.765 123.905 125.603 122.307 127.787C119.983 130.964 116.831 136.327 116.831 136.327C119.008 143.295 128.044 149.069 137.458 149.108C147.149 149.149 156.368 144.173 158.089 136.878C158.089 136.878 156.268 132.49 155.851 130.696C155.442 128.942 156.834 128.187 155.526 126.3C153.825 123.849 149.112 123.498 143.207 123.497Z" fill="url(#RadialGradient_4)" fill-rule="nonzero" opacity="1" stroke="none" vectornator:layerName="Schlera"/>
<path d="M143.592 123.495C152.09 128.787 149.119 142.883 137.843 142.597C126.567 142.31 122.947 128.69 133.48 123.495C127.087 123.446 122.09 123.612 119.88 125.936C118.721 127.154 121.933 127.45 121.38 128.703C120.382 130.965 116.903 136.362 116.903 136.362C118.961 143.319 128.356 149.069 137.843 149.109C147.394 149.15 156.351 143.784 158.086 136.952C158.086 136.952 155.707 130.29 155.614 130.045C154.887 128.118 155.649 127.147 153.555 125.24C151.644 123.499 147.947 123.495 143.592 123.495Z" fill="url(#RadialGradient_5)" fill-rule="nonzero" opacity="1" stroke="none" vectornator:layerName="Schlera 3"/>
<path d="M142.979 123.495C151.477 128.787 148.506 142.883 137.23 142.597C125.954 142.31 122.334 128.69 132.867 123.495C128.281 123.46 124.147 122.916 122.039 124.777C121.129 125.581 123.04 126.77 123.04 126.77L116.931 136.701C118.431 143.654 127.443 149.068 137.23 149.109C147.075 149.151 156.519 144.143 158.166 136.826C158.166 136.826 154.731 131.702 151.013 128.31C147.427 125.039 143.566 123.495 142.979 123.495Z" fill="url(#RadialGradient_6)" fill-rule="nonzero" filter="url(#Filter_19)" stroke="none" vectornator:layerName="Schlera 5" vectornator:shadowAngle="1.5708" vectornator:shadowColor="#000000" vectornator:shadowOffset="0.694476" vectornator:shadowOpacity="0.6" vectornator:shadowRadius="3.52457"/>
<path d="M148.615 132.751C148.615 127.608 144.529 122.408 137.569 122.573C130.61 122.739 126.524 127.608 126.524 132.751C126.524 137.894 130.498 142.998 137.569 143.146C144.639 143.294 148.615 137.894 148.615 132.751Z" fill="url(#RadialGradient_7)" fill-rule="nonzero" opacity="1" stroke="none" vectornator:layerName="Top 5"/>
<path d="M137.691 144.367C143.492 144.367 149.357 140.11 149.17 132.859C148.984 125.608 143.492 121.351 137.691 121.351C131.891 121.351 126.135 125.492 125.967 132.859C125.8 140.225 131.891 144.367 137.691 144.367Z" fill="url(#RadialGradient_8)" fill-rule="nonzero" opacity="1" stroke="none" vectornator:layerName="Top 4"/>
<path d="M137.678 142.879C142.842 142.879 148.064 139.172 147.898 132.859C147.732 126.546 142.842 122.84 137.678 122.84C132.514 122.84 127.389 126.445 127.24 132.859C127.091 139.272 132.514 142.879 137.678 142.879Z" fill="url(#RadialGradient_9)" fill-rule="nonzero" opacity="1" stroke="none" vectornator:layerName="Top 3"/>
<path d="M148.615 132.751C148.615 127.608 144.529 122.408 137.569 122.573C130.61 122.739 126.524 127.608 126.524 132.751C126.524 137.894 130.498 142.998 137.569 143.146C144.639 143.294 148.615 137.894 148.615 132.751Z" fill="url(#RadialGradient_10)" fill-rule="nonzero" opacity="1" stroke="none" vectornator:layerName="Top 7"/>
<path d="M149.388 132.749C149.388 127.521 145.016 122.236 137.569 122.404C130.123 122.572 125.751 127.521 125.751 132.749C125.751 137.977 130.004 143.164 137.569 143.315C145.134 143.466 149.388 137.977 149.388 132.749Z" fill="url(#RadialGradient_11)" fill-rule="nonzero" opacity="1" stroke="none" vectornator:layerName="Top 6"/>
<path d="M141.727 132.859C141.727 130.564 139.865 128.703 137.569 128.703C135.273 128.703 133.412 130.564 133.412 132.859C133.412 135.155 135.273 137.016 137.569 137.016C139.865 137.016 141.727 135.155 141.727 132.859Z" fill="url(#RadialGradient_12)" fill-rule="nonzero" filter="url(#Filter_20)" stroke="none" vectornator:layerName="pupil" vectornator:shadowAngle="1.5708" vectornator:shadowColor="#000000" vectornator:shadowOffset="0.694476" vectornator:shadowOpacity="0.6" vectornator:shadowRadius="3.52457"/>
<path d="M140.616 126.769C140.616 124.961 139.36 123.494 137.813 123.494C136.265 123.494 135.011 124.961 135.011 126.769C135.011 128.578 136.265 130.045 137.813 130.045C139.36 130.045 140.616 128.578 140.616 126.769Z" fill="#ffffff" fill-rule="nonzero" opacity="1" stroke="none" vectornator:layerName="Oval 4"/>
<path d="M133.446 127.59C133.446 125.02 135.23 122.937 137.429 122.937C139.628 122.937 141.41 125.02 141.41 127.59C141.41 130.161 139.628 132.244 137.429 132.244C135.23 132.244 133.446 130.161 133.446 127.59Z" fill="#ffffff" fill-rule="nonzero" opacity="1" stroke="none" vectornator:layerName="Oval 4"/>
<path d="M116.691 137.016C116.622 131.656 120.037 116.325 137.813 115.408C154.686 114.538 158.166 130.226 157.943 137.016C153.603 130.874 144.895 126.653 137.589 126.77C128.422 126.916 122.218 129.775 116.691 137.016Z" fill="url(#RadialGradient_13)" fill-rule="nonzero" filter="url(#Filter_21)" stroke="none" vectornator:layerName="Schlera 4" vectornator:shadowAngle="1.5708" vectornator:shadowColor="#000000" vectornator:shadowOffset="0.694476" vectornator:shadowOpacity="0.6" vectornator:shadowRadius="3.52457"/>
</g>
<g opacity="1" vectornator:layerName="Group 1">
<path d="M78.3708 123.497L88.4832 123.494C93.2648 123.494 97.4472 123.141 99.6439 124.998C100.963 126.113 99.4602 127.572 100.276 128.703C102.47 131.745 104.707 137.259 104.707 137.259C102.843 143.904 93.9108 149.069 84.4547 149.109C74.9204 149.149 65.7352 143.766 63.7483 136.934C63.7483 136.934 63.6886 129.186 67.826 125.301C69.7825 123.464 73.7103 123.497 78.3708 123.497Z" fill="url(#RadialGradient_14)" fill-rule="nonzero" opacity="1" stroke="none" vectornator:layerName="Schlera 2"/>
<path d="M78.4846 123.497C69.986 128.789 72.9572 142.882 84.2334 142.596C94.2136 142.342 98.1966 131.644 91.6774 125.586C90.8309 124.8 89.8074 124.091 88.5969 123.494C89.9296 123.494 91.2 123.513 92.3976 123.56C97.6574 123.765 97.7864 125.603 99.3843 127.787C101.709 130.964 104.86 136.327 104.86 136.327C102.683 143.295 93.6472 149.069 84.2334 149.108C74.5425 149.149 65.5699 144.249 63.8484 136.955C63.8484 136.955 68.3994 127.096 70.9493 125.96C72.5947 125.227 75.303 123.498 78.4846 123.497Z" fill="url(#RadialGradient_15)" fill-rule="nonzero" opacity="1" stroke="none" vectornator:layerName="Schlera"/>
<path d="M78.0994 123.495C69.6008 128.787 72.572 142.883 83.8482 142.597C95.1243 142.31 98.7447 128.69 88.2117 123.495C94.6047 123.446 99.6011 123.612 101.812 125.936C102.97 127.154 99.7583 127.45 100.311 128.703C101.309 130.965 104.788 136.362 104.788 136.362C102.73 143.319 93.3351 149.069 83.8482 149.109C74.2977 149.15 65.5944 143.829 63.8593 136.997C63.8593 136.997 65.9847 130.29 66.0774 130.045C66.8044 128.118 66.0423 127.147 68.1359 125.24C70.0474 123.499 73.7445 123.495 78.0994 123.495Z" fill="url(#RadialGradient_16)" fill-rule="nonzero" opacity="1" stroke="none" vectornator:layerName="Schlera 3"/>
<path d="M78.7124 123.495C70.2138 128.787 73.185 142.883 84.4612 142.597C95.7373 142.31 99.3577 128.69 88.8247 123.495C93.4102 123.46 97.5442 122.916 99.6519 124.777C100.562 125.581 98.6509 126.77 98.6509 126.77L104.76 136.701C103.261 143.654 94.2484 149.068 84.4612 149.109C74.6166 149.151 65.4743 143.99 63.8272 136.673C63.8272 136.673 68.0124 129.598 71.9821 125.979C75.2545 122.995 78.0603 123.495 78.7124 123.495Z" fill="url(#RadialGradient_17)" fill-rule="nonzero" filter="url(#Filter_22)" stroke="none" vectornator:layerName="Schlera 5" vectornator:shadowAngle="1.5708" vectornator:shadowColor="#000000" vectornator:shadowOffset="0.694476" vectornator:shadowOpacity="0.6" vectornator:shadowRadius="3.52457"/>
<path d="M73.0764 132.751C73.0763 127.608 77.1624 122.408 84.122 122.573C91.0816 122.739 95.1675 127.608 95.1676 132.751C95.1677 137.894 91.1928 142.998 84.1225 143.146C77.0521 143.294 73.0765 137.894 73.0764 132.751Z" fill="url(#RadialGradient_18)" fill-rule="nonzero" opacity="1" stroke="none" vectornator:layerName="Top 5"/>
<path d="M83.9999 144.367C78.1992 144.367 72.3346 140.11 72.5211 132.859C72.7076 125.608 78.1992 121.351 83.9999 121.351C89.8006 121.351 95.5565 125.492 95.7239 132.859C95.8912 140.225 89.8006 144.367 83.9999 144.367Z" fill="url(#RadialGradient_19)" fill-rule="nonzero" opacity="1" stroke="none" vectornator:layerName="Top 4"/>
<path d="M84.0133 142.879C78.8489 142.879 73.6275 139.172 73.7936 132.859C73.9597 126.546 78.8489 122.84 84.0133 122.84C89.1777 122.84 94.3023 126.445 94.4513 132.859C94.6002 139.272 89.1777 142.879 84.0133 142.879Z" fill="url(#RadialGradient_20)" fill-rule="nonzero" opacity="1" stroke="none" vectornator:layerName="Top 3"/>
<path d="M73.0764 132.751C73.0763 127.608 77.1624 122.408 84.122 122.573C91.0816 122.739 95.1675 127.608 95.1676 132.751C95.1677 137.894 91.1928 142.998 84.1225 143.146C77.0521 143.294 73.0765 137.894 73.0764 132.751Z" fill="url(#RadialGradient_21)" fill-rule="nonzero" opacity="1" stroke="none" vectornator:layerName="Top 7"/>
<path d="M72.3035 132.749C72.3033 127.521 76.6754 122.236 84.122 122.404C91.5686 122.572 95.9404 127.521 95.9405 132.749C95.9407 137.977 91.6876 143.164 84.1225 143.315C76.5574 143.466 72.3036 137.977 72.3035 132.749Z" fill="url(#RadialGradient_22)" fill-rule="nonzero" opacity="1" stroke="none" vectornator:layerName="Top 6"/>
<path d="M79.9646 132.859C79.9646 130.564 81.8259 128.703 84.122 128.703C86.4181 128.703 88.2794 130.564 88.2794 132.859C88.2794 135.155 86.4181 137.016 84.122 137.016C81.8259 137.016 79.9646 135.155 79.9646 132.859Z" fill="url(#RadialGradient_23)" fill-rule="nonzero" filter="url(#Filter_23)" stroke="none" vectornator:layerName="pupil" vectornator:shadowAngle="1.5708" vectornator:shadowColor="#000000" vectornator:shadowOffset="0.694476" vectornator:shadowOpacity="0.6" vectornator:shadowRadius="3.52457"/>
<path d="M79.8963 126.769C79.8963 124.199 81.6803 122.116 83.8789 122.116C86.0775 122.116 87.86 124.199 87.86 126.769C87.86 129.34 86.0775 131.423 83.8789 131.423C81.6803 131.423 79.8963 129.34 79.8963 126.769Z" fill="#ffffff" fill-rule="nonzero" opacity="1" stroke="none" vectornator:layerName="Oval 4"/>
<path d="M105 137.016C105.069 131.656 101.654 116.325 83.8782 115.408C67.005 114.538 63.7483 132.244 63.7486 137.016C68.0881 130.874 76.7966 126.653 84.1019 126.77C93.2688 126.916 99.4728 129.775 105 137.016Z" fill="url(#RadialGradient_24)" fill-rule="nonzero" opacity="1" stroke="none" vectornator:layerName="Schlera 4"/>
</g>
</g>
</g>
</svg>
