<svg xmlns="http://www.w3.org/2000/svg" xmlns:vectornator="http://vectornator.io" xmlns:xlink="http://www.w3.org/1999/xlink" style="fill-rule:nonzero;clip-rule:evenodd;stroke-linecap:round;stroke-linejoin:round" width="100%" height="100%" stroke-miterlimit="10" version="1.1" viewBox="0 0 100 100" xml:space="preserve"><defs><filter id="Filter" width="106.17" height="73.063" x="-3.085" y="14.427" color-interpolation-filters="sRGB" filterUnits="userSpaceOnUse"><feDropShadow dx="0" dy=".958" flood-color="#000" flood-opacity=".59" in="SourceGraphic" result="Shadow" stdDeviation="1.995"/></filter></defs><g filter="url(#Filter)" shadowAngle="1.571" shadowColor="#000000" shadowOffset=".958" shadowOpacity=".59" shadowRadius="3.99"><path fill="#9f7dcc" fill-rule="nonzero" stroke="none" d="M69.9623 37.0217C68.9094 25.139 65.4499 18.5208 50.4084 18.5208C35.5174 18.5208 31.9075 25.139 30.8546 37.0217C30.8546 37.0217 38.2249 34.7655 50.4084 34.7655C62.592 34.9159 69.9623 37.0217 69.9623 37.0217" opacity="1"/><path fill="#856daa" fill-rule="nonzero" stroke="none" d="M50.4084 18.5208C35.5174 18.5208 31.9075 25.139 30.8546 37.0217C30.8546 37.0217 38.2249 34.7655 50.4084 34.7655C62.592 34.9159 45.5952 26.4927 50.4084 18.5208" opacity="1"/><path fill="#fff652" fill-rule="nonzero" stroke="none" d="M71.4665 36.7209C71.4665 36.7209 63.4945 34.3143 50.5589 34.3143C37.4728 34.3143 29.6513 36.7209 29.6513 36.7209C29.3504 39.4284 29.3504 42.1358 29.3504 44.9937C29.3504 46.6482 29.3504 48.3028 29.5008 49.9574C29.5008 49.9574 38.3753 47.7011 50.7093 47.7011C63.0433 47.7011 71.9177 49.9574 71.9177 49.9574C72.0681 48.3028 72.0681 46.6482 72.0681 44.9937C71.7673 42.1358 71.6169 39.4284 71.4665 36.7209" opacity="1"/><path fill="#ddd243" fill-rule="nonzero" stroke="none" d="M55.8234 34.4647C55.8234 34.4647 52.9655 34.1639 50.4084 34.1639C37.3224 34.1639 29.5008 36.7209 29.5008 36.7209C29.2 39.4284 29.2 42.1358 29.2 44.9937C29.2 46.6482 29.2 48.3028 29.3504 49.9574C29.3504 49.9574 38.2249 47.7011 50.5589 47.7011C62.8928 47.7011 60.1854 41.2333 58.5308 40.9325C55.2217 40.3308 55.9738 37.1721 55.8234 34.4647" opacity="1"/><path fill="#9f7dcc" fill-rule="nonzero" stroke="none" d="M50.7093 41.6846C70.564 38.9771 86.5079 45.5953 97.1873 53.7177C104.257 58.9822 68.6086 43.0383 44.2415 65.9013C20.9272 87.7114-2.53742 84.8535 4.23123 68.7592C10.2478 54.4698 25.8909 45.1441 50.7093 41.6846" opacity="1"/><path fill="#856daa" fill-rule="nonzero" stroke="none" d="M71.7673 42.2862C71.7673 42.2862 54.62 40.9325 36.1191 59.4335C13.4065 81.8452-1.78535 77.9344 7.38993 63.1938C16.5652 48.3028 45.1439 36.4201 71.7673 42.2862Z" opacity="1"/><path fill="#99cff6" fill-rule="nonzero" stroke="none" d="M31.4562 43.0383C36.7207 40.03 39.8794 36.4201 39.2778 33.863C38.6761 31.1556 34.4645 30.1027 28.7488 30.7043C29.2 24.0861 28.2975 19.2728 25.8909 18.5208C23.6347 17.9191 20.476 21.529 17.9189 27.5456C13.1057 23.9357 9.04449 22.5819 7.23951 24.5373C5.58495 26.4927 6.63786 31.306 9.79656 36.7209C4.53205 39.7292 1.37335 43.3391 1.97501 45.8962C2.57667 48.6036 6.78827 49.6565 12.504 49.0549C12.0528 55.6731 12.9553 60.4864 15.3619 61.2384C17.6181 61.8401 20.7768 58.2302 23.3339 52.2136C28.1471 55.8235 32.2083 57.1773 34.0133 55.2219C35.6678 53.2665 34.4645 48.4532 31.4562 43.0383" opacity="1"/><path fill="#75b7ea" fill-rule="nonzero" stroke="none" d="M51.0101 35.668C50.8597 33.2614 46.9489 31.306 41.3836 30.7043C42.7373 24.8382 42.5869 20.3257 40.4811 19.2728C38.3753 18.2199 34.9158 20.9274 31.6066 25.7406C27.5455 21.529 23.7851 19.5737 21.8297 21.0778C19.8743 22.4315 20.3256 26.944 22.5818 32.5093C17.1669 34.1639 13.5569 36.7209 13.7073 39.1275C13.8577 41.5342 17.7685 43.4895 23.3339 44.0912C21.9801 49.9574 22.1305 54.4698 24.2363 55.5227C26.3421 56.5756 29.8017 53.8681 33.1108 49.0549C37.172 53.2665 40.9323 55.2219 42.8877 53.7177C44.8431 52.2136 44.3919 47.8516 42.1357 42.2862C47.5506 40.6317 51.1605 38.225 51.0101 35.668" opacity="1"/><g opacity="1"><path fill="#cdecfc" fill-rule="nonzero" stroke="none" d="M50.4084 28.5985C49.6564 26.7935 46.0464 26.7935 41.6844 28.2977C41.0828 23.334 39.729 19.8745 37.7736 19.8745C35.8182 19.8745 34.0133 23.1836 32.6595 28.1473C28.4479 26.3423 24.9884 26.1919 23.9355 27.9969C22.8826 29.8018 24.3868 33.1109 27.6959 36.5705C23.9355 39.8796 21.9801 43.0383 22.7322 44.9937C23.4843 46.7987 27.0942 46.7987 31.4562 45.2945C32.0579 50.2582 33.4116 53.7177 35.367 53.7177C37.3224 53.7177 39.1274 50.4086 40.4811 45.4449C44.6927 47.2499 48.1522 47.4003 49.3555 45.5953C50.4084 43.7904 48.9043 40.4813 45.5952 37.0217C49.2051 33.7126 51.3109 30.5539 50.4084 28.5985" opacity=".3"/><path fill="#cdecfc" fill-rule="nonzero" stroke="none" d="M32.5091 32.9605C31.7571 31.306 28.7488 31.306 24.9884 32.6597C24.5372 28.2977 23.3339 25.4398 21.6793 25.2894C20.0247 25.2894 18.3702 28.1473 17.3173 32.3589C13.7073 30.8547 10.699 30.7043 9.79656 32.2085C8.89407 33.7126 10.2478 36.5705 12.9553 39.5788C9.64614 42.5871 7.84117 45.2945 8.59324 46.9491C9.34531 48.4532 12.3536 48.4532 16.114 47.2499C16.5652 51.4615 17.9189 54.4698 19.4231 54.4698C21.0776 54.4698 22.7322 51.6119 23.7851 47.4003C27.395 48.9045 30.4033 49.0549 31.3058 47.5507C32.2083 46.0466 30.8546 43.1887 28.1471 40.1804C31.4562 37.3226 33.2612 34.4647 32.5091 32.9605" opacity=".3"/></g></g></svg>