<svg width="100%" height="100%" viewBox="0 0 100 100" stroke-miterlimit="10" style="fill-rule:nonzero;clip-rule:evenodd;stroke-linecap:round;stroke-linejoin:round;" version="1.1" xml:space="preserve" xmlns="http://www.w3.org/2000/svg" xmlns:vectornator="http://vectornator.io" xmlns:xlink="http://www.w3.org/1999/xlink">
<defs><filter color-interpolation-filters="sRGB" filterUnits="userSpaceOnUse" height="93.647" id="Filter_HighlighterOne" width="90.0387" x="12.485" y="-1.82294">
<feDropShadow dx="-0" dy="0" flood-color="#000000" flood-opacity="0.5" in="SourceGraphic" result="Shadow" stdDeviation="1.08661"/></filter><filter color-interpolation-filters="sRGB" filterUnits="userSpaceOnUse" height="32.6498" id="Filter_HighlighterOne_2" width="39.4189" x="-1.03896" y="69.4337">
<feDropShadow dx="-0.775187" dy="1.09467" flood-color="#000000" flood-opacity="0.5" in="SourceGraphic" result="Shadow" stdDeviation="1.08661"/></filter><filter color-interpolation-filters="sRGB" filterUnits="userSpaceOnUse" height="21.0831" id="Filter_HighlighterOne_3" width="24.4172" x="14.2053" y="69.1568">
<feDropShadow dx="-0.627965" dy="0.886776" flood-color="#000000" flood-opacity="0.5" in="SourceGraphic" result="Shadow" stdDeviation="0.543303"/></filter><filter color-interpolation-filters="sRGB" filterUnits="userSpaceOnUse" height="48.6102" id="Filter_HighlighterOne_4" width="51.9728" x="32.3853" y="19.1932">
<feDropShadow dx="-0" dy="0" flood-color="#000000" flood-opacity="0.5" in="SourceGraphic" result="Shadow" stdDeviation="1.11256"/></filter></defs><g opacity="1" id="Highlighter"><path d="M62.1335 1.65487L34.1605 33.3746L25.2908 60.0604L15.9794 70.3181L37.0013 88.3513L46.3128 78.0936L71.1998 65.3844L99.0386 33.3131L62.1335 1.65487Z" fill="#ebebeb" fill-rule="nonzero" filter="url(#Filter_HighlighterOne)"  stroke="#dfdfdf" stroke-linecap="butt" stroke-linejoin="miter" stroke-width="1.08661" shadowAngle="2.18697" shadowColor="#000000" shadowOffset="0" shadowOpacity="0.5" shadowRadius="2.17321"/><path d="M26.3521 98.2723L2.45274 88.718L17.7843 71.0555L36.4386 86.6522L26.3521 98.2723Z" fill="#e8ff00" fill-rule="nonzero" filter="url(#Filter_HighlighterOne_2)" stroke="none" shadowAngle="2.18697" shadowColor="#000000" shadowOffset="1.34135" shadowOpacity="0.5" shadowRadius="2.17321"/><path d="M16.7348 70.1716L37.3488 87.4515" fill="none" filter="url(#Filter_HighlighterOne_3)"  stroke="#dfdfdf" stroke-linecap="butt" stroke-linejoin="miter" stroke-width="1.08661" shadowAngle="2.18697" shadowColor="#000000" shadowOffset="1.08661" shadowOpacity="0.5" shadowRadius="1.08661"/><path d="M62.1335 1.65487L34.2946 33.7262L25.2908 60.0604L15.9794 70.3181L37.0013 88.3513L46.3128 78.0936L71.1998 65.3844L99.0386 33.3131L62.1335 1.65487Z" fill="none" opacity="1"  stroke="#dfdfdf" stroke-linecap="butt" stroke-linejoin="miter" stroke-width="1.08661" /><path d="M35.1668 33.7456L45.6206 21.9746L81.5767 52.9746L70.9802 65.022L35.1668 33.7456Z" fill="#c8dc00" fill-rule="nonzero" filter="url(#Filter_HighlighterOne_4)" stroke="none" shadowAngle="1.93389" shadowColor="#000000" shadowOffset="0" shadowOpacity="0.5" shadowRadius="2.22513"/><path d="M33.9883 32.7238L44.4421 20.9528L82.206 53.558L71.6095 65.6054L33.9883 32.7238Z" fill="#c8dc00" fill-rule="nonzero" opacity="1" stroke="none"/></g>
</svg>
