<svg width="100%" height="100%" viewBox="0 0 100 100" stroke-miterlimit="10" style="fill-rule:nonzero;clip-rule:evenodd;stroke-linecap:round;stroke-linejoin:round;" version="1.1" xml:space="preserve" xmlns="http://www.w3.org/2000/svg" xmlns:vectornator="http://vectornator.io" xmlns:xlink="http://www.w3.org/1999/xlink">
<defs>
<filter color-interpolation-filters="sRGB" filterUnits="userSpaceOnUse" height="32.5693" id="Filter" width="103.281" x="-1.281" y="34.6079">
<feDropShadow dx="-2.03775e-06" dy="0.554762" flood-color="#000000" flood-opacity="0.46" in="SourceGraphic" result="Shadow" stdDeviation="1"/>
</filter>
<linearGradient gradientTransform="matrix(1.16081 2.40478e-32 0 1.16081 -9.43795 -7.70285)" gradientUnits="userSpaceOnUse" id="LinearGradient" x1="78.0129" x2="93.8462" y1="50" y2="50">
<stop offset="0" stop-color="#00ff73"/>
<stop offset="0.289474" stop-color="#00d863"/>
<stop offset="1" stop-color="#047d3b"/>
</linearGradient>
<linearGradient gradientTransform="matrix(1.16081 2.40478e-32 0 1.16081 -8.09761 -7.70285)" gradientUnits="userSpaceOnUse" id="LinearGradient_2" x1="49.7783" x2="75.5074" y1="50" y2="50">
<stop offset="0" stop-color="#00ff73"/>
<stop offset="0.289474" stop-color="#00d863"/>
<stop offset="1" stop-color="#047d3b"/>
</linearGradient>
<linearGradient gradientTransform="matrix(1.16081 2.40478e-32 0 1.16081 -6.89657 -7.70285)" gradientUnits="userSpaceOnUse" id="LinearGradient_3" x1="27.91" x2="47.7017" y1="50" y2="50">
<stop offset="0" stop-color="#00ff73"/>
<stop offset="0.289474" stop-color="#00d863"/>
<stop offset="1" stop-color="#047d3b"/>
</linearGradient>
<linearGradient gradientTransform="matrix(1.16081 2.40478e-32 0 1.16081 -5.92439 -7.70285)" gradientUnits="userSpaceOnUse" id="LinearGradient_4" x1="6.15378" x2="25.9454" y1="50" y2="50">
<stop offset="0" stop-color="#00ff73"/>
<stop offset="0.289474" stop-color="#00d863"/>
<stop offset="1" stop-color="#047d3b"/>
</linearGradient>
</defs>
<g filter="url(#Filter)" layerName="Group 1" shadowAngle="1.5708" shadowColor="#000000" shadowOffset="0.554762" shadowOpacity="0.46" shadowRadius="2">
<path d="M99.5 64.1225L99.5 57.2302L88.0128 57.2302L88.0128 36.5532L81.1205 36.5532L81.1205 64.1225L99.5 64.1225Z" fill="url(#LinearGradient)" fill-rule="nonzero" opacity="1" stroke="none" layerName="path"/>
<path d="M79.5524 36.5532L49.6857 36.5532L49.6857 64.1225L56.578 64.1225L56.578 43.9342L56.578 43.4455L61.1729 43.4455L61.1729 59.5276L68.0652 59.5276C68.0652 59.5276 68.0652 47.8689 68.0652 43.8369C68.0652 39.8049 68.0652 43.3995 68.0652 43.3995L72.6601 43.3995L72.6601 64.1225L79.5524 64.1225L79.5524 36.5532Z" fill="url(#LinearGradient_2)" fill-rule="nonzero" opacity="1" stroke="none" layerName="path 2"/>
<path d="M48.4762 36.5532L25.5017 36.5532L25.5017 43.4455L33.5428 43.4455L33.5428 64.1225L40.4351 64.1225L40.4351 43.8806L40.4351 43.4455L48.4762 43.4455L48.4762 36.5532Z" fill="url(#LinearGradient_3)" fill-rule="nonzero" opacity="1" stroke="none" layerName="path 3"/>
<path d="M17.3011 36.5532L24.1934 36.5532L24.1934 64.1225L17.3011 64.1225L17.3011 52.6353L8.11133 52.6353L8.11133 53.0672L8.11133 64.1225L1.219 64.1225L1.219 36.5532L8.11133 36.5532L8.11133 45.7429L16.5693 45.7429L17.3011 45.7429L17.3011 36.5532Z" fill="url(#LinearGradient_4)" fill-rule="nonzero" opacity="1" stroke="none" layerName="path 1"/>
</g>
</svg>