<svg width="100%" height="100%" viewBox="0 0 1000 1000" xmlns="http://www.w3.org/2000/svg" xml:space="preserve"><defs><linearGradient id="a" x1="27.91" x2="47.702" y1="50" y2="50" gradientTransform="matrix(11.4185 0 0 11.7056 -59.98 -99.023)" gradientUnits="userSpaceOnUse"><stop offset="0" stop-color="#00ff73"/><stop offset=".289" stop-color="#00d863"/><stop offset="1" stop-color="#047d3b"/></linearGradient><linearGradient id="c" x1="49.778" x2="75.507" y1="50" y2="50" gradientTransform="matrix(11.4185 0 0 11.7056 -61.398 -99.028)" gradientUnits="userSpaceOnUse"><stop offset="0" stop-color="#00ff73"/><stop offset=".289" stop-color="#00d863"/><stop offset="1" stop-color="#047d3b"/></linearGradient><linearGradient id="e" x1="78.013" x2="93.846" y1="50" y2="50" gradientTransform="matrix(11.4185 0 0 11.7055 -71.584 -99.025)" gradientUnits="userSpaceOnUse"><stop offset="0" stop-color="#00ff73"/><stop offset=".289" stop-color="#00d863"/><stop offset="1" stop-color="#047d3b"/></linearGradient><linearGradient id="g" x1="6.154" x2="25.945" y1="50" y2="50" gradientTransform="matrix(11.4185 0 0 11.7055 -70.267 -98.025)" gradientUnits="userSpaceOnUse"><stop offset="0" stop-color="#00ff73"/><stop offset=".289" stop-color="#00d863"/><stop offset="1" stop-color="#047d3b"/></linearGradient><filter id="b" width="298.491" height="368" x="225.759" y="310.001" color-interpolation-filters="sRGB" filterUnits="userSpaceOnUse"><feDropShadow dx="0" dy="-6" flood-color="#000" flood-opacity=".49" in="SourceGraphic" result="Shadow" stdDeviation="12.5"/></filter><filter id="d" width="356.29" height="367.997" x="475.75" y="309.999" color-interpolation-filters="sRGB" filterUnits="userSpaceOnUse"><feDropShadow dx="0" dy="-6" flood-color="#000" flood-opacity=".49" in="SourceGraphic" result="Shadow" stdDeviation="12.5"/></filter><filter id="f" width="243.293" height="367.996" x="787.957" y="309.999" color-interpolation-filters="sRGB" filterUnits="userSpaceOnUse"><feDropShadow dx="0" dy="-6" flood-color="#000" flood-opacity=".49" in="SourceGraphic" result="Shadow" stdDeviation="12.5"/></filter><filter id="h" width="306.438" height="368" x="-31.25" y="309.999" color-interpolation-filters="sRGB" filterUnits="userSpaceOnUse"><feDropShadow dx="0" dy="-6" flood-color="#000" flood-opacity=".49" in="SourceGraphic" result="Shadow" stdDeviation="12.5"/></filter></defs><path fill="url(#a)" d="M493 347.251H257.009v69.502l84.096.004v235.994h67.797V416.757l84.098-.004z" filter="url(#b)"/><path fill="url(#c)" d="M800.79 347.249H507v305.497h67.798V416.751h45.198l.009 162.173 67.789-.002V416.287h45.198v236.459h67.798z" filter="url(#d)"/><path fill="url(#e)" d="M1000 652.744v-69.497H895V347.249h-75.793v305.495z" filter="url(#f)"/><path fill="url(#g)" d="M0 347.249v305.5h68.563l-.313-124.656h106.844l-.125 124.656h68.593V528.093l.376-67.657h-.376V347.249h-68.374l.281 113.187H68.063l.53-113.187z" filter="url(#h)"/></svg>