<svg xmlns="http://www.w3.org/2000/svg" xmlns:xlink="http://www.w3.org/1999/xlink" width="100%" height="100%" version="1.1" viewBox="0 0 100 100" xml:space="preserve"><defs><filter id="Filter_zxcv" width="103.281" height="32.569" x="-1.281" y="34.608" color-interpolation-filters="sRGB" filterUnits="userSpaceOnUse"><feDropShadow dx="0" dy=".555" flood-color="#000" flood-opacity=".46" in="SourceGraphic" result="Shadow" stdDeviation="1"/></filter><linearGradient id="LinearGradient_zxcv" x1="78.013" x2="93.846" y1="50" y2="50" gradientTransform="matrix(1.16081 2.40478e-32 0 1.16081 -9.43795 -7.70285)" gradientUnits="userSpaceOnUse"><stop offset="0" stop-color="#00ff73"/><stop offset=".289" stop-color="#00d863"/><stop offset="1" stop-color="#047d3b"/></linearGradient><linearGradient id="LinearGradient_zxcv_2" x1="49.778" x2="75.507" y1="50" y2="50" gradientTransform="matrix(1.16081 2.40478e-32 0 1.16081 -8.09761 -7.70285)" gradientUnits="userSpaceOnUse"><stop offset="0" stop-color="#00ff73"/><stop offset=".289" stop-color="#00d863"/><stop offset="1" stop-color="#047d3b"/></linearGradient><linearGradient id="LinearGradient_zxcv_3" x1="27.91" x2="47.702" y1="50" y2="50" gradientTransform="matrix(1.16081 2.40478e-32 0 1.16081 -6.89657 -7.70285)" gradientUnits="userSpaceOnUse"><stop offset="0" stop-color="#00ff73"/><stop offset=".289" stop-color="#00d863"/><stop offset="1" stop-color="#047d3b"/></linearGradient><linearGradient id="LinearGradient_zxcv_4" x1="6.154" x2="25.945" y1="50" y2="50" gradientTransform="matrix(1.16081 2.40478e-32 0 1.16081 -5.92439 -7.70285)" gradientUnits="userSpaceOnUse"><stop offset="0" stop-color="#00ff73"/><stop offset=".289" stop-color="#00d863"/><stop offset="1" stop-color="#047d3b"/></linearGradient></defs><g id="zxcvGroup-1" filter="url(#Filter_zxcv)" shadowAngle="1.571" shadowColor="#000000" shadowOffset=".555" shadowOpacity=".46" shadowRadius="2"><path id="zxcv" fill="url(#LinearGradient_zxcv)" stroke="none" d="M99.5 64.1225L99.5 57.2302L88.0128 57.2302L88.0128 36.5532L81.1205 36.5532L81.1205 64.1225L99.5 64.1225Z" opacity="1"/><path id="zxcv-2" fill="url(#LinearGradient_zxcv_2)" stroke="none" d="M79.5524 36.5532L49.6857 36.5532L49.6857 64.1225L56.578 64.1225L56.578 43.9342L56.578 43.4455L61.1729 43.4455L61.1729 59.5276L68.0652 59.5276C68.0652 59.5276 68.0652 47.8689 68.0652 43.8369C68.0652 39.8049 68.0652 43.3995 68.0652 43.3995L72.6601 43.3995L72.6601 64.1225L79.5524 64.1225L79.5524 36.5532Z" opacity="1"/><path id="zxcv-3" fill="url(#LinearGradient_zxcv_3)" stroke="none" d="M48.4762 36.5532L25.5017 36.5532L25.5017 43.4455L33.5428 43.4455L33.5428 64.1225L40.4351 64.1225L40.4351 43.8806L40.4351 43.4455L48.4762 43.4455L48.4762 36.5532Z" opacity="1"/><path id="zxcv-1" fill="url(#LinearGradient_zxcv_4)" stroke="none" d="M17.3011 36.5532L24.1934 36.5532L24.1934 64.1225L17.3011 64.1225L17.3011 52.6353L8.11133 52.6353L8.11133 53.0672L8.11133 64.1225L1.219 64.1225L1.219 36.5532L8.11133 36.5532L8.11133 45.7429L16.5693 45.7429L17.3011 45.7429L17.3011 36.5532Z" opacity="1"/></g></svg>