<svg height="100%" stroke-miterlimit="10" style="fill-rule:nonzero;clip-rule:evenodd;stroke-linecap:round;stroke-linejoin:round;" version="1.1" viewBox="0 0 100 100" width="100%" xml:space="preserve" xmlns="http://www.w3.org/2000/svg" xmlns:vectornator="http://vectornator.io" xmlns:xlink="http://www.w3.org/1999/xlink">
<defs>
<radialGradient cx="48.0829" cy="62.4611" gradientTransform="matrix(1 0 0 1 0 0)" gradientUnits="userSpaceOnUse" id="RadialGradient" r="63.1772">
<stop offset="0.410794" stop-color="#c800ff"/>
<stop offset="0.625329" stop-color="#ffcc02"/>
<stop offset="0.832214" stop-color="#890eca"/>
<stop offset="1" stop-color="#55037e"/>
</radialGradient>
<filter color-interpolation-filters="sRGB" filterUnits="userSpaceOnUse" height="29.2618" id="Filter" width="98.9901" x="0.69541" y="36.2496">
<feDropShadow dx="-0.809528" dy="0.880455" flood-color="#000000" flood-opacity="0.45" in="SourceGraphic" result="Shadow" stdDeviation="0.598025"/>
</filter>
</defs>
<clipPath id="ArtboardFrame">
<rect height="29.2618" width="98.9901" x="0.69541" y="36.2496"/>
</clipPath>
<g clip-path="url(#ArtboardFrame)" id="Layer" layerName="Layer">
<path d="M3.5 37.3642L3.5 37.9519C3.5 43.9577 3.5 56.0425 3.5 62.0481L3.5 62.6358L4.22272 62.6358C5.71166 62.6358 8.6359 62.6358 10.1249 62.6358L10.968 62.6358L10.968 62.0481C10.968 59.802 10.968 56.3471 10.968 53.0365C12.529 53.0365 13.7514 53.0365 15.3043 53.0365C15.3043 56.3471 15.3043 59.802 15.3043 62.0481L15.3043 62.6358L16.027 62.6358C17.496 62.6358 20.4601 62.6358 21.9292 62.6358L22.6518 62.6358L22.6518 62.0481C22.6518 56.0425 22.6518 43.9575 22.6518 37.9519L22.6518 37.3642L21.9292 37.3642C20.4601 37.3642 17.496 37.3642 16.027 37.3642L15.3043 37.3642L15.3043 37.9519C15.3043 40.198 15.3043 43.6529 15.3043 46.9635C13.7514 46.9635 12.529 46.9635 10.968 46.9635C10.968 43.6529 10.968 40.198 10.968 37.9519L10.968 37.3642L10.1249 37.3642C8.6359 37.3642 5.71166 37.3642 4.22272 37.3642L3.5 37.3642ZM27.1084 37.3642L27.1084 37.9519C27.1084 39.1466 27.1084 41.5569 27.1084 42.7516L27.1084 43.4372L27.8313 43.4372C29.1262 43.4372 31.1798 43.4372 33.0105 43.4372C33.0105 49.2112 33.0105 57.3983 33.0105 62.0481L33.0105 62.6358L33.7334 62.6358C35.2222 62.6358 38.2671 62.6358 39.7559 62.6358L40.4787 62.6358L40.4787 62.0481C40.4787 57.3983 40.4787 49.2112 40.4787 43.4372C42.2595 43.4372 44.2727 43.4372 45.5376 43.4372L46.3808 43.4372L46.3808 42.7516C46.3808 41.5569 46.3808 39.1466 46.3808 37.9519L46.3808 37.3642L45.5376 37.3642C41.1105 37.3642 32.2584 37.3642 27.8313 37.3642L27.1084 37.3642ZM59.3532 37.3642C54.0428 37.3642 49.7171 40.8694 49.7171 45.2005C49.7171 49.414 49.7171 57.8345 49.7171 62.0481L49.7171 62.6358L50.4397 62.6358C51.9288 62.6358 54.9734 62.6358 56.4624 62.6358L57.185 62.6358L57.185 62.0481C57.185 57.8345 57.185 49.414 57.185 45.2005C57.185 44.2207 58.1484 43.4372 59.3532 43.4372C60.5577 43.4372 61.5213 44.2207 61.5213 45.2005L61.5213 45.7882C61.5213 50.1282 61.5213 57.9814 61.5213 62.0481L61.5213 62.6358L62.2439 62.6358C63.733 62.6358 66.7776 62.6358 68.2666 62.6358L68.9892 62.6358L68.9892 62.0481C68.9892 57.8345 68.9892 49.414 68.9892 45.2005C68.9892 44.2207 69.9526 43.4372 71.1574 43.4372C72.3621 43.4372 73.3255 44.2207 73.3255 45.2005C73.3255 49.414 73.3255 57.8345 73.3255 62.0481L73.3255 62.6358L74.1687 62.6358C75.6379 62.6358 78.4813 62.6358 79.9505 62.6358L80.7935 62.6358L80.7935 62.0481C80.7935 57.8345 80.7935 49.414 80.7935 45.2005C80.7935 40.8766 76.4743 37.3642 71.1574 37.3642C68.8712 37.3642 66.9099 38.2378 65.2553 39.3232C63.6007 38.2378 61.6391 37.3642 59.3532 37.3642ZM85.1297 37.3642L85.1297 37.9519C85.1297 43.9575 85.1297 56.0425 85.1297 62.0481L85.1297 62.6358L85.9729 62.6358C88.9309 62.6358 94.8192 62.6358 97.7771 62.6358L98.5 62.6358L98.5 62.0481C98.5 60.8372 98.5 58.3614 98.5 57.1505L98.5 56.5628L97.7771 56.5628C96.4705 56.5628 94.1853 56.5628 92.5979 56.5628C92.5979 51.6388 92.5979 42.6001 92.5979 37.9519L92.5979 37.3642L91.875 37.3642C90.4059 37.3642 87.4421 37.3642 85.9729 37.3642L85.1297 37.3642Z" fill="url(#RadialGradient)" fill-rule="nonzero" filter="url(#Filter)" stroke="#ffcc02" stroke-linecap="butt" stroke-linejoin="miter" stroke-width="1" layerName="Curve 3" shadowAngle="2.31425" shadowColor="#000000" shadowOffset="1.19605" shadowOpacity="0.45" shadowRadius="1.19605"/>
</g>
</svg>
