<svg xmlns="http://www.w3.org/2000/svg" xmlns:vectornator="http://vectornator.io" xmlns:xlink="http://www.w3.org/1999/xlink" style="fill-rule:nonzero;clip-rule:evenodd;stroke-linecap:round;stroke-linejoin:round" width="100%" height="100%" stroke-miterlimit="10" version="1.1" viewBox="0 0 100 100" xml:space="preserve"><g id="Image-Photos-Picture-Pixel.yelllow2" layerName="Image-Photos-Picture-Pixel.yelllow"><path fill="#b5c600" fill-rule="nonzero" stroke="none" stroke-linecap="butt" stroke-linejoin="miter" d="M100 12.5L100 87.5L0 87.5L0 12.5L100 12.5ZM93.75 18.75L6.25 18.75L6.25 43.75L18.75 43.75L18.75 56.25L6.25 56.25L6.25 81.25L56.25 81.25L56.25 68.75L68.75 68.75L68.75 81.25L81.25 81.25L81.25 68.75L93.75 68.75L93.75 18.75ZM31.25 43.75L18.75 43.75L18.75 31.25L31.25 31.25L31.25 43.75ZM31.25 56.25L31.25 43.75L43.75 43.75L43.75 56.25L31.25 56.25ZM56.25 56.25L56.25 68.75L43.75 68.75L43.75 56.25L56.25 56.25ZM81.25 56.25L81.25 68.75L68.75 68.75L68.75 56.25L81.25 56.25ZM81.25 43.75L68.75 43.75L68.75 31.25L81.25 31.25L81.25 43.75Z" layerName="path"/></g></svg>