<svg xmlns="http://www.w3.org/2000/svg" xmlns:vectornator="http://vectornator.io" xmlns:xlink="http://www.w3.org/1999/xlink" height="100%" stroke-miterlimit="10" style="fill-rule:nonzero;clip-rule:evenodd;stroke-linecap:round;stroke-linejoin:round" width="100%" version="1.1" viewBox="-0.771 1.668 100.8 98.139" xml:space="preserve"><defs><linearGradient id="LinearGradient" x1="-3.078" x2="19.378" y1="-3.382" y2="22.434" gradientTransform="matrix(5.15522 0 0 5.15522 3.49308 -8.20919)" gradientUnits="userSpaceOnUse"><stop offset="0" stop-color="#fff"/><stop offset=".278" stop-color="#fff"/><stop offset=".631" stop-color="#bababa"/><stop offset="1" stop-color="#bababa"/></linearGradient><filter id="Filter" width="100.8" height="79.959" x="-.771" y="19.848" color-interpolation-filters="sRGB" filterUnits="userSpaceOnUse"><feDropShadow dx="-.371" dy="1.018" flood-color="#000" flood-opacity=".55" in="SourceGraphic" result="Shadow" stdDeviation="1.557"/></filter><linearGradient id="LinearGradient_2" x1="23.919" x2="8.516" y1="13.943" y2="-.651" gradientTransform="matrix(4.85599 0 0 4.85599 -0.462316 2.61665)" gradientUnits="userSpaceOnUse"><stop offset=".167" stop-color="#fff"/><stop offset=".5" stop-color="#fff"/><stop offset=".86" stop-color="#bebebe"/><stop offset="1" stop-color="#bebebe"/></linearGradient><filter id="Filter_2" width="51.649" height="51.649" x="45.488" y="1.668" color-interpolation-filters="sRGB" filterUnits="userSpaceOnUse"><feDropShadow dx="-.443" dy="1.218" flood-color="#000" flood-opacity=".55" in="SourceGraphic" result="Shadow" stdDeviation="1.862"/></filter></defs><clipPath id="ArtboardFrame"><rect width="100.8" height="98.139" x="-.771" y="1.668"/></clipPath><g id="Layer" clip-path="url(#ArtboardFrame)" layerName="Layer"><g layerName="Group 1" opacity="1"><path fill="url(#LinearGradient)" fill-rule="nonzero" stroke="none" d="M85.9765 79.4295L13.8035 79.4295L31.8468 56.231L44.7348 71.6966L63.0931 47.9641L66.9201 53.5007L72.0172 59.7697L78.7824 56.802L68.058 32.8937L50.9554 22.7221L13.8035 22.7221C8.10921 22.7221 3.49308 27.3382 3.49308 33.0325L3.49308 84.5847C3.49308 90.279 8.10921 94.8951 13.8035 94.8951L85.9765 94.8951C91.6708 94.8951 96.287 90.279 96.287 84.5847L96.5069 47.3653L62.4908 47.3274L85.9765 79.4295Z" filter="url(#Filter)" layerName="path" shadowAngle="1.92" shadowColor="#000000" shadowOffset="1.084" shadowOpacity=".55" shadowRadius="3.114"/><path fill="url(#LinearGradient_2)" fill-rule="nonzero" stroke="none" d="M77.2335 22.0406L77.2335 5.10488L67.5215 5.10488L67.5215 22.0406L50.5858 22.0406L50.5858 31.7526L67.5215 31.7526L67.5215 47.4442L77.2335 47.4442L77.2335 31.7526L92.9251 31.7526L92.9251 22.0406L77.2335 22.0406Z" filter="url(#Filter_2)" layerName="path 1" shadowAngle="1.92" shadowColor="#000000" shadowOffset="1.296" shadowOpacity=".55" shadowRadius="3.724"/></g></g></svg>