<svg xmlns="http://www.w3.org/2000/svg" xmlns:vectornator="http://vectornator.io" xmlns:xlink="http://www.w3.org/1999/xlink" style="fill-rule:nonzero;clip-rule:evenodd;stroke-linecap:round;stroke-linejoin:round" width="100%" height="100%" stroke-miterlimit="10" version="1.1" viewBox="0 0 100 100" xml:space="preserve"><defs><filter id="Filter" width="101.742" height="76.243" x="-2.214" y="12.943" color-interpolation-filters="sRGB" filterUnits="userSpaceOnUse"><feDropShadow dx="-1.343" dy="1.065" flood-color="#000" flood-opacity=".55" in="SourceGraphic" result="Shadow" stdDeviation="1.809"/></filter><filter id="Filter_2" width="94.859" height="65.346" x="2.296" y="18.264" color-interpolation-filters="sRGB" filterUnits="userSpaceOnUse"><feDropShadow dx="-.64" dy=".507" flood-color="#000" flood-opacity=".55" in="SourceGraphic" result="Shadow" stdDeviation="1.497"/></filter></defs><g opacity="1"><path fill="#00ffa7" fill-rule="nonzero" stroke="none" d="M96.3493 16.4001L96.3493 83.5999L3.65073 83.5999L3.65073 16.4001L96.3493 16.4001" filter="url(#Filter)" shadowAngle="2.471" shadowColor="#000000" shadowOffset="1.714" shadowOpacity=".55" shadowRadius="3.617"/><path fill="#fff" fill-rule="nonzero" stroke="none" d="M81.1332 21.6805C77.0954 20.8284 73.042 23.0595 71.6019 26.9268C70.1617 30.7941 71.7685 35.133 75.3802 37.1295C78.9918 39.126 83.5207 38.1789 86.0296 34.9024C88.5385 31.6259 88.2719 27.0067 85.4027 24.0407C84.2451 22.8479 82.7589 22.0264 81.1332 21.6805M57.9445 65.4704C51.0648 55.9035 44.1826 46.3378 37.2978 36.7734L6.68006 79.3587L47.9735 79.3587C51.2971 74.7318 54.6233 70.1062 57.9521 65.4818M72.8935 49.9381C65.8395 59.7424 58.788 69.548 51.7391 79.3549L94.0516 79.3549C87.0027 69.548 79.95 59.7424 72.8935 49.9381Z" filter="url(#Filter_2)" shadowAngle="2.471" shadowColor="#000000" shadowOffset=".817" shadowOpacity=".55" shadowRadius="2.995"/></g></svg>