<svg height="100%" stroke-miterlimit="10" style="fill-rule:nonzero;clip-rule:evenodd;stroke-linecap:round;stroke-linejoin:round;" version="1.1" viewBox="0 0 100 100" width="100%" xml:space="preserve" xmlns="http://www.w3.org/2000/svg" xmlns:vectornator="http://vectornator.io" xmlns:xlink="http://www.w3.org/1999/xlink">
<defs>
<filter color-interpolation-filters="sRGB" filterUnits="userSpaceOnUse" height="81.6277" id="Filter" width="98.4434" x="1.50199" y="16.9278">
<feDropShadow dx="0.723682" dy="0.862451" flood-color="#000000" flood-opacity="0.5" in="SourceGraphic" result="Shadow" stdDeviation="1.65001"/>
</filter>
<filter color-interpolation-filters="sRGB" filterUnits="userSpaceOnUse" height="84.6851" id="Filter_2" width="101.501" x="-0.0267134" y="15.3991">
<feDropShadow dx="0.723682" dy="0.862451" flood-color="#000000" flood-opacity="0.5" in="SourceGraphic" result="Shadow" stdDeviation="1.65001"/>
</filter>
<linearGradient gradientTransform="matrix(1.07864 -5.83426e-18 -5.83426e-18 1.07864 -3.93176 -3.93176)" gradientUnits="userSpaceOnUse" id="LinearGradient" x1="45.6306" x2="45.4169" y1="30.4572" y2="91.8017">
<stop offset="0" stop-color="#0080da"/>
<stop offset="0.557895" stop-color="#ffffff"/>
<stop offset="1" stop-color="#00417e"/>
</linearGradient>
<filter color-interpolation-filters="sRGB" filterUnits="userSpaceOnUse" height="64.812" id="Filter_3" width="81.6277" x="9.90984" y="25.3356">
<feDropShadow dx="0.723682" dy="0.862451" flood-color="#000000" flood-opacity="0.5" in="SourceGraphic" result="Shadow" stdDeviation="1.65001"/>
</filter>
<filter color-interpolation-filters="sRGB" filterUnits="userSpaceOnUse" height="66.3407" id="Filter_4" width="83.1564" x="9.14549" y="24.5713">
<feDropShadow dx="0.723682" dy="0.862451" flood-color="#000000" flood-opacity="0.5" in="SourceGraphic" result="Shadow" stdDeviation="1.65001"/>
</filter>
<filter color-interpolation-filters="sRGB" filterUnits="userSpaceOnUse" height="20.4797" id="Filter_5" width="20.4797" x="25.1968" y="31.4504">
<feDropShadow dx="0.723682" dy="0.862451" flood-color="#000000" flood-opacity="0.5" in="SourceGraphic" result="Shadow" stdDeviation="1.65001"/>
</filter>
<filter color-interpolation-filters="sRGB" filterUnits="userSpaceOnUse" height="22.0084" id="Filter_6" width="22.0084" x="24.4325" y="30.6861">
<feDropShadow dx="0.723682" dy="0.862451" flood-color="#000000" flood-opacity="0.5" in="SourceGraphic" result="Shadow" stdDeviation="1.65001"/>
</filter>
<filter color-interpolation-filters="sRGB" filterUnits="userSpaceOnUse" height="50.5917" id="Filter_7" width="66.5104" x="23.2166" y="38.3998">
<feDropShadow dx="-1.08686" dy="-0.293718" flood-color="#000000" flood-opacity="0.5" in="SourceGraphic" result="Shadow" stdDeviation="1.65001"/>
</filter>
<filter color-interpolation-filters="sRGB" filterUnits="userSpaceOnUse" height="52.1207" id="Filter_8" width="68.7132" x="23.5887" y="38.7912">
<feDropShadow dx="0.723682" dy="0.862451" flood-color="#000000" flood-opacity="0.5" in="SourceGraphic" result="Shadow" stdDeviation="1.65001"/>
</filter>
<filter color-interpolation-filters="sRGB" filterUnits="userSpaceOnUse" height="39.5474" id="Filter_9" width="34.2838" x="9.90831" y="50.6001">
<feDropShadow dx="0.723682" dy="0.862451" flood-color="#000000" flood-opacity="0.5" in="SourceGraphic" result="Shadow" stdDeviation="1.65001"/>
</filter>
<filter color-interpolation-filters="sRGB" filterUnits="userSpaceOnUse" height="41.0747" id="Filter_10" width="35.9853" x="7.3273" y="48.6811">
<feDropShadow dx="-1.08686" dy="-0.293718" flood-color="#000000" flood-opacity="0.5" in="SourceGraphic" result="Shadow" stdDeviation="1.65001"/>
</filter>
<filter color-interpolation-filters="sRGB" filterUnits="userSpaceOnUse" height="47.7657" id="Filter_11" width="28.1705" x="63.7002" y="39.3964">
<feDropShadow dx="0.723682" dy="0.862451" flood-color="#000000" flood-opacity="0.5" in="SourceGraphic" result="Shadow" stdDeviation="1.65001"/>
</filter>
<filter color-interpolation-filters="sRGB" filterUnits="userSpaceOnUse" height="87.9412" id="Filter_12" width="48.3601" x="44.3056" y="1.64076">
<feDropShadow dx="0.723682" dy="0.862451" flood-color="#000000" flood-opacity="0.5" in="SourceGraphic" result="Shadow" stdDeviation="1.65001"/>
</filter>
<filter color-interpolation-filters="sRGB" filterUnits="userSpaceOnUse" height="21.1478" id="Filter_13" width="40.3631" x="30.6937" y="3.83893">
<feDropShadow dx="0.723682" dy="0.862451" flood-color="#000000" flood-opacity="0.5" in="SourceGraphic" result="Shadow" stdDeviation="1.65001"/>
</filter>
</defs>
<clipPath id="ArtboardFrame">
<rect height="98.4434" width="101.501" x="-0.0267134" y="1.64076"/>
</clipPath>
<g clip-path="url(#ArtboardFrame)" id="Layer" layerName="Layer">
<g opacity="1" layerName="Group 10">
<path d="M91.3972 93.568L8.60126 93.568C6.55891 93.568 4.90333 91.9124 4.90333 89.87L4.90333 23.8883C4.90333 21.8459 6.55891 20.1903 8.60126 20.1903L91.3987 20.1903C93.4411 20.1903 95.0967 21.8459 95.0967 23.8883L95.0967 89.87C95.0967 91.9124 93.4411 93.568 91.3972 93.568Z" fill="#fcba7f" fill-rule="nonzero" filter="url(#Filter)" stroke="none" layerName="path" shadowAngle="0.872665" shadowColor="#000000" shadowOffset="1.12585" shadowOpacity="0.5" shadowRadius="3.30002"/>
<path d="M91.3987 95.0967L8.60126 95.0967C5.71966 95.0967 3.37463 92.7516 3.37463 89.87L3.37463 23.8883C3.37463 21.0067 5.71966 18.6616 8.60126 18.6616L91.3987 18.6616C94.2803 18.6616 96.6254 21.0067 96.6254 23.8883L96.6254 89.87C96.6254 92.7516 94.2803 95.0967 91.3987 95.0967ZM8.60126 21.719C7.40581 21.719 6.43203 22.6928 6.43203 23.8883L6.43203 89.87C6.43203 91.0655 7.40581 92.0393 8.60126 92.0393L91.3987 92.0393C92.5942 92.0393 93.568 91.0655 93.568 89.87L93.568 23.8883C93.568 22.6928 92.5942 21.719 91.3987 21.719L8.60126 21.719Z" fill="#1f212b" fill-rule="nonzero" filter="url(#Filter_2)" stroke="none" layerName="path 1" shadowAngle="0.872665" shadowColor="#000000" shadowOffset="1.12585" shadowOpacity="0.5" shadowRadius="3.30002"/>
<path d="M13.3112 28.5982L86.6888 28.5982L86.6888 85.1601L13.3112 85.1601L13.3112 28.5982Z" fill="url(#LinearGradient)" fill-rule="nonzero" filter="url(#Filter_3)" stroke="none" layerName="path 2" shadowAngle="0.872665" shadowColor="#000000" shadowOffset="1.12585" shadowOpacity="0.5" shadowRadius="3.30002"/>
<path d="M87.4532 85.9245L12.5468 85.9245L12.5468 27.8338L87.4532 27.8338L87.4532 85.9245ZM14.0755 84.3958L85.9245 84.3958L85.9245 29.3625L14.0755 29.3625L14.0755 84.3958Z" fill="#1f212b" fill-rule="nonzero" filter="url(#Filter_4)" stroke="none" layerName="path 3" shadowAngle="0.872665" shadowColor="#000000" shadowOffset="1.12585" shadowOpacity="0.5" shadowRadius="3.30002"/>
<path d="M34.713 34.713C31.3359 34.713 28.5982 37.4507 28.5982 40.8278C28.5982 44.2049 31.3359 46.9426 34.713 46.9426C38.0901 46.9426 40.8278 44.2049 40.8278 40.8278C40.8278 37.4507 38.0901 34.713 34.713 34.713Z" fill="#f9e65c" fill-rule="nonzero" filter="url(#Filter_5)" stroke="none" layerName="path 4" shadowAngle="0.872665" shadowColor="#000000" shadowOffset="1.12585" shadowOpacity="0.5" shadowRadius="3.30002"/>
<path d="M34.713 47.7069C30.9203 47.7069 27.8338 44.6205 27.8338 40.8278C27.8338 37.0351 30.9203 33.9486 34.713 33.9486C38.5057 33.9486 41.5921 37.0351 41.5921 40.8278C41.5921 44.6205 38.5057 47.7069 34.713 47.7069ZM34.713 35.4773C31.7626 35.4773 29.3625 37.8774 29.3625 40.8278C29.3625 43.7782 31.7626 46.1782 34.713 46.1782C37.6634 46.1782 40.0634 43.7782 40.0634 40.8278C40.0634 37.8774 37.6619 35.4773 34.713 35.4773Z" fill="#1f212b" fill-rule="nonzero" filter="url(#Filter_6)" stroke="none" layerName="path 5" shadowAngle="0.872665" shadowColor="#000000" shadowOffset="1.12585" shadowOpacity="0.5" shadowRadius="3.30002"/>
<path d="M28.4285 85.1601L56.5994 43.451C57.165 42.6164 58.4201 42.6057 58.9995 43.4312L86.6888 82.7723L86.6888 85.1601L28.4285 85.1601Z" fill="#00a7a7" fill-rule="nonzero" filter="url(#Filter_7)" stroke="none" layerName="path 6" shadowAngle="3.40553" shadowColor="#000000" shadowOffset="1.12585" shadowOpacity="0.5" shadowRadius="3.30002"/>
<path d="M87.4532 85.9245L26.99 85.9245L55.965 43.023C56.3747 42.4207 57.055 42.0599 57.7887 42.0553C57.7948 42.0538 57.7994 42.0538 57.8055 42.0538C58.5332 42.0538 59.212 42.4039 59.6232 42.9924L87.4516 82.5292L87.4516 85.9245L87.4532 85.9245ZM29.8685 84.3958L85.9245 84.3958L85.9245 83.0138L58.3727 43.8714C58.2443 43.688 58.0379 43.5825 57.8055 43.5825C57.804 43.5825 57.8025 43.5825 57.8025 43.5825C57.5655 43.5856 57.3576 43.6926 57.2292 43.8806L29.8685 84.3958Z" fill="#1f212b" fill-rule="nonzero" filter="url(#Filter_8)" stroke="none" layerName="path 7" shadowAngle="0.872665" shadowColor="#000000" shadowOffset="1.12585" shadowOpacity="0.5" shadowRadius="3.30002"/>
<path d="M13.4625 68.4071L26.0881 54.499C26.909 53.5955 28.3781 53.6643 29.1042 54.6411L39.3434 68.4071L28.427 85.1601L13.3097 85.1601L13.4625 68.4071Z" fill="#00a7a7" fill-rule="nonzero" filter="url(#Filter_9)" stroke="none" layerName="path 8" shadowAngle="0.872665" shadowColor="#000000" shadowOffset="1.12585" shadowOpacity="0.5" shadowRadius="3.30002"/>
<path d="M28.8443 85.9245L12.5392 85.9245L12.7012 68.109L25.5224 53.9853C26.0682 53.383 26.8356 53.0727 27.6733 53.1017C28.4897 53.1415 29.2357 53.5374 29.7187 54.1871L40.2744 68.3796L28.8443 85.9245ZM14.0832 84.3958L28.0142 84.3958L38.4124 68.4361L28.4927 55.0982C28.2833 54.8154 27.9577 54.6457 27.5999 54.6274C27.2453 54.5999 26.8922 54.7497 26.6552 55.0111L14.2253 68.7052L14.0832 84.3958Z" fill="#1f212b" fill-rule="nonzero" filter="url(#Filter_10)" stroke="none" layerName="path 9" shadowAngle="3.40553" shadowColor="#000000" shadowOffset="1.12585" shadowOpacity="0.5" shadowRadius="3.30002"/>
<path d="M67.1016 54.3644L76.604 43.1881C77.243 42.4375 78.4185 42.4941 78.9811 43.3028L86.6873 54.3644L87.0221 82.1746L67.1016 54.3644Z" fill="#00a7a7" fill-rule="nonzero" filter="url(#Filter_11)" stroke="none" layerName="path 10" shadowAngle="0.872665" shadowColor="#000000" shadowOffset="1.12585" shadowOpacity="0.5" shadowRadius="3.30002"/>
<path d="M87.817 84.5945L66.1324 54.3232L76.0215 42.6928C76.4802 42.1532 77.1665 41.8826 77.8575 41.8964C78.5653 41.93 79.2028 42.2831 79.6094 42.8656L87.4501 54.1183L87.817 84.5945ZM68.0708 54.4042L86.2287 79.7546L85.9275 54.609L78.3559 43.7415C78.2229 43.5519 78.015 43.4358 77.7841 43.4251C77.5533 43.4205 77.3362 43.5091 77.1864 43.6849L68.0708 54.4042ZM50 9.48943C48.7358 9.48943 47.7069 8.46062 47.7069 7.19638C47.7069 5.93215 48.7358 4.90333 50 4.90333C51.2642 4.90333 52.2931 5.93215 52.2931 7.19638C52.2931 8.46062 51.2642 9.48943 50 9.48943ZM50 6.43203C49.5796 6.43203 49.2356 6.77599 49.2356 7.19638C49.2356 7.61677 49.5796 7.96073 50 7.96073C50.4204 7.96073 50.7644 7.61677 50.7644 7.19638C50.7644 6.77599 50.4204 6.43203 50 6.43203Z" fill="#1f212b" fill-rule="nonzero" filter="url(#Filter_12)" stroke="none" layerName="path 11" shadowAngle="0.872665" shadowColor="#000000" shadowOffset="1.12585" shadowOpacity="0.5" shadowRadius="3.30002"/>
<path d="M34.8597 19.9992C34.6396 19.9992 34.4241 19.9045 34.2712 19.7241C34.0021 19.3985 34.0465 18.9169 34.369 18.6463L48.031 7.27587C48.3566 7.00988 48.8367 7.05268 49.1088 7.37371C49.3778 7.69932 49.3335 8.18086 49.0109 8.45144L35.3489 19.8219C35.2068 19.9412 35.034 19.9992 34.8597 19.9992ZM65.4429 19.9992C65.2702 19.9992 65.0959 19.9412 64.9537 19.8234L51.2933 8.45297C50.9692 8.18239 50.9264 7.70085 51.1954 7.37524C51.4691 7.05268 51.9491 7.01141 52.2732 7.2774L65.9336 18.6479C66.2577 18.9185 66.3005 19.4 66.0315 19.7256C65.8786 19.906 65.6631 19.9992 65.4429 19.9992Z" fill="#1f212b" fill-rule="nonzero" filter="url(#Filter_13)" stroke="none" layerName="path 12" shadowAngle="0.872665" shadowColor="#000000" shadowOffset="1.12585" shadowOpacity="0.5" shadowRadius="3.30002"/>
</g>
</g>
</svg>
