<svg xmlns="http://www.w3.org/2000/svg" xmlns:vectornator="http://vectornator.io" xmlns:xlink="http://www.w3.org/1999/xlink" style="fill-rule:nonzero;clip-rule:evenodd;stroke-linecap:round;stroke-linejoin:round" width="100%" height="100%" stroke-miterlimit="10" version="1.1" viewBox="1.357 2.238 99.49 97.286" xml:space="preserve"><defs><filter id="Filter" width="97.286" height="97.286" x="1.357" y="2.238" color-interpolation-filters="sRGB" filterUnits="userSpaceOnUse"><feComponentTransfer in="SourceGraphic" result="Alpha"><feFuncA slope=".601" type="linear"/></feComponentTransfer><feDropShadow dx="0" dy=".881" flood-color="#000" flood-opacity=".5" in="Alpha" result="Shadow" stdDeviation="1.101"/></filter><filter id="Filter_2" width="93.43" height="64.556" x="2.185" y="34.388" color-interpolation-filters="sRGB" filterUnits="userSpaceOnUse"><feComponentTransfer in="SourceGraphic" result="Alpha"><feFuncA slope=".95" type="linear"/></feComponentTransfer><feDropShadow dx=".828" dy=".301" flood-color="#000" flood-opacity=".6" in="Alpha" result="Shadow" stdDeviation="1.101"/></filter><filter id="Filter_3" width="49.602" height="54.021" x="51.245" y="42.059" color-interpolation-filters="sRGB" filterUnits="userSpaceOnUse"><feComponentTransfer in="SourceGraphic" result="Alpha"><feFuncA slope=".902" type="linear"/></feComponentTransfer><feDropShadow dx=".828" dy=".301" flood-color="#000" flood-opacity=".6" in="Alpha" result="Shadow" stdDeviation="1.652"/></filter></defs><g opacity="1"><path fill="#00f" fill-rule="nonzero" stroke="none" d="M82.1227 4.11056L17.8773 4.11056C10.2834 4.13294 4.13294 10.2834 4.11056 17.8773L4.11056 58.5354L21.9159 40.73C27.3649 35.5439 35.9242 35.5439 41.3732 40.73L54.5485 53.978L58.6235 49.9031C64.0076 44.5488 72.7055 44.5488 78.0896 49.9031L95.8894 67.7128L95.8894 17.8773C95.8671 10.2834 89.7166 4.13294 82.1227 4.11056ZM41.3732 40.73C35.9242 35.5439 27.3649 35.5439 21.9159 40.73L4.11056 58.5354L4.11056 82.1227C4.13294 89.7166 10.2834 95.8671 17.8773 95.8894L82.1216 95.8894C85.8619 95.8872 89.4403 94.3632 92.0336 91.668L41.3732 40.73ZM95.8894 67.704L78.0885 49.9031C72.7044 44.5488 64.0065 44.5488 58.6224 49.9031L54.5474 53.978L92.016 91.6482C94.5031 89.1013 95.8936 85.6815 95.8894 82.1216L95.8894 67.7029L95.8894 67.704Z" filter="url(#Filter)" shadowAngle="1.571" shadowColor="#000000" shadowOffset=".881" shadowOpacity=".5" shadowRadius="2.203"/><path fill="#00f" fill-rule="nonzero" stroke="none" d="M82.1227 4.11056L17.8773 4.11056C10.2834 4.13294 4.13294 10.2834 4.11056 17.8773L4.11056 58.5354L21.9159 40.73C27.3649 35.5439 35.9242 35.5439 41.3732 40.73L54.5485 53.978L58.6235 49.9031C64.0076 44.5488 72.7055 44.5488 78.0896 49.9031L95.8894 67.7128L95.8894 17.8773C95.8671 10.2834 89.7166 4.13294 82.1227 4.11056Z" opacity=".348"/><path fill="#fff" fill-rule="nonzero" stroke="none" d="M41.3732 40.73C35.9242 35.5439 27.3649 35.5439 21.9159 40.73L4.11056 58.5354L4.11056 82.1227C4.13294 89.7166 10.2834 95.8671 17.8773 95.8894L82.1216 95.8894C85.8619 95.8872 89.4403 94.3632 92.0336 91.668L41.3732 40.73Z" filter="url(#Filter_2)" shadowAngle=".349" shadowColor="#000000" shadowOffset=".881" shadowOpacity=".6" shadowRadius="2.203"/><path fill="#844ed0" fill-rule="nonzero" stroke="none" d="M95.8894 67.704L78.0885 49.9031C72.7044 44.5488 64.0065 44.5488 58.6224 49.9031L54.5474 53.978L92.016 91.6482C94.5031 89.1013 95.8936 85.6815 95.8894 82.1216L95.8894 67.7029L95.8894 67.704Z" filter="url(#Filter_3)" shadowAngle=".349" shadowColor="#000000" shadowOffset=".881" shadowOpacity=".6" shadowRadius="3.304"/></g></svg>