<svg xmlns="http://www.w3.org/2000/svg" xmlns:vectornator="http://vectornator.io" xmlns:xlink="http://www.w3.org/1999/xlink" height="100%" stroke-miterlimit="10" style="fill-rule:nonzero;clip-rule:evenodd;stroke-linecap:round;stroke-linejoin:round" width="100%" version="1.1" viewBox="0 0 100 100" xml:space="preserve"><defs><filter id="Filter" width="100.412" height="74.402" x="-1.558" y="13.87" color-interpolation-filters="sRGB" filterUnits="userSpaceOnUse"><feDropShadow dx="-1.352" dy="1.071" flood-color="#000" flood-opacity=".55" in="SourceGraphic" result="Shadow" stdDeviation="1.355"/></filter><filter id="Filter_2" width="100.412" height="58.796" x="-.785" y="28.864" color-interpolation-filters="sRGB" filterUnits="userSpaceOnUse"><feDropShadow dx="-.579" dy=".459" flood-color="#000" flood-opacity=".55" in="SourceGraphic" result="Shadow" stdDeviation="1.355"/></filter></defs><clipPath id="ArtboardFrame"><rect width="101.185" height="74.402" x="-1.558" y="13.87"/></clipPath><g id="Layer" clip-path="url(#ArtboardFrame)" layerName="Layer"><g layerName="Group 9" opacity="1"><path fill="#00ffa7" fill-rule="nonzero" stroke="none" d="M3.18201 16.187L96.818 16.187L96.818 83.813L3.18201 83.813L3.18201 16.187Z" filter="url(#Filter)" layerName="path 1" shadowAngle="2.471" shadowColor="#000000" shadowOffset="1.725" shadowOpacity=".55" shadowRadius="2.711"/><path fill="#fff" fill-rule="evenodd" stroke="none" d="M3.18201 83.813L36.995 50L50 63.005L78.611 34.394L96.818 52.601L96.818 83.813L3.18201 83.813ZM51.3005 31.793C54.8917 31.793 57.803 34.7043 57.803 38.2955C57.803 41.8867 54.8917 44.798 51.3005 44.798C47.7093 44.798 44.798 41.8867 44.798 38.2955C44.798 34.7043 47.7093 31.793 51.3005 31.793Z" filter="url(#Filter_2)" layerName="path 1" shadowAngle="2.471" shadowColor="#000000" shadowOffset=".739" shadowOpacity=".55" shadowRadius="2.711"/></g></g></svg>