<svg height="100%" stroke-miterlimit="10" style="fill-rule:nonzero;clip-rule:evenodd;stroke-linecap:round;stroke-linejoin:round;" version="1.1" viewBox="0 0 100 100" width="100%" xml:space="preserve" xmlns="http://www.w3.org/2000/svg" xmlns:vectornator="http://vectornator.io" xmlns:xlink="http://www.w3.org/1999/xlink">
<defs>
<radialGradient cx="45.0793" cy="47.8128" gradientTransform="matrix(0.835708 0 0 0.828593 12.3843 10.3519)" gradientUnits="userSpaceOnUse" id="RadialGradient" r="72.6592">
<stop offset="0" stop-color="#ffffff"/>
<stop offset="0.755263" stop-color="#c3c3c3"/>
<stop offset="1" stop-color="#979797"/>
</radialGradient>
<filter color-interpolation-filters="sRGB" filterUnits="userSpaceOnUse" height="69.7088" id="Filter" width="94.8812" x="2.37148" y="15.7892">
<feDropShadow dx="-0.245462" dy="0.674384" flood-color="#000000" flood-opacity="0.72" in="SourceGraphic" result="Shadow" stdDeviation="1.28325"/>
</filter>
<linearGradient gradientTransform="matrix(1 0 0 1 0 0)" gradientUnits="userSpaceOnUse" id="LinearGradient" x1="1.99259" x2="98.0074" y1="50" y2="50">
<stop offset="0" stop-color="#19068f"/>
<stop offset="1" stop-color="#021df3"/>
</linearGradient>
<filter color-interpolation-filters="sRGB" filterUnits="userSpaceOnUse" height="78.4274" id="Filter_2" width="102.431" x="-1.46101" y="11.4607">
<feDropShadow dx="-0.245462" dy="0.674384" flood-color="#000000" flood-opacity="0.72" in="SourceGraphic" result="Shadow" stdDeviation="1.28325"/>
</filter>
</defs>
<clipPath id="ArtboardFrame">
<rect height="78.4274" width="102.431" x="-1.46101" y="11.4607"/>
</clipPath>
<g clip-path="url(#ArtboardFrame)" id="Layer" layerName="Layer">
<g opacity="1" layerName="Group 10">
<path d="M5.82507 18.3229L94.29 18.3229L94.29 81.6155L5.82507 81.6155L5.82507 18.3229Z" fill="url(#RadialGradient)" fill-rule="nonzero" filter="url(#Filter)" stroke="none" layerName="Rectangle 1" shadowAngle="1.91987" shadowColor="#000000" shadowOffset="0.717666" shadowOpacity="0.72" shadowRadius="2.56651"/>
<path d="M98.0074 13.9944L98.0074 86.0056L1.99259 86.0056L1.99259 13.9944L98.0074 13.9944ZM92.0065 19.9954L7.99352 19.9954L7.99352 43.9991L19.9954 43.9991L19.9954 56.0009L7.99352 56.0009L7.99352 80.0046L56.0009 80.0046L56.0009 68.0028L68.0028 68.0028L68.0028 80.0046L80.0046 80.0046L80.0046 68.0028L92.0065 68.0028L92.0065 19.9954ZM31.9972 43.9991L19.9954 43.9991L19.9954 31.9972L31.9972 31.9972L31.9972 43.9991ZM31.9972 56.0009L31.9972 43.9991L43.9991 43.9991L43.9991 56.0009L31.9972 56.0009ZM56.0009 56.0009L56.0009 68.0028L43.9991 68.0028L43.9991 56.0009L56.0009 56.0009ZM80.0046 56.0009L80.0046 68.0028L68.0028 68.0028L68.0028 56.0009L80.0046 56.0009ZM80.0046 43.9991L68.0028 43.9991L68.0028 31.9972L80.0046 31.9972L80.0046 43.9991Z" fill="url(#LinearGradient)" fill-rule="nonzero" filter="url(#Filter_2)" stroke="none" layerName="path 5" shadowAngle="1.91987" shadowColor="#000000" shadowOffset="0.717666" shadowOpacity="0.72" shadowRadius="2.56651"/>
</g>
</g>
</svg>
