<svg xmlns="http://www.w3.org/2000/svg" xmlns:vectornator="http://vectornator.io" xmlns:xlink="http://www.w3.org/1999/xlink" height="100%" stroke-miterlimit="10" style="fill-rule:nonzero;clip-rule:evenodd;stroke-linecap:round;stroke-linejoin:round" width="100%" version="1.1" viewBox="0 0 100 100" xml:space="preserve"><defs><radialGradient id="RadialGradient" cx="45.079" cy="47.813" r="72.659" gradientTransform="matrix(0.835708 0 0 0.828593 12.3843 10.3519)" gradientUnits="userSpaceOnUse"><stop offset="0" stop-color="#fff"/><stop offset=".755" stop-color="#c3c3c3"/><stop offset="1" stop-color="#979797"/></radialGradient><filter id="Filter" width="94.881" height="69.709" x="2.371" y="15.789" color-interpolation-filters="sRGB" filterUnits="userSpaceOnUse"><feDropShadow dx="-.245" dy=".674" flood-color="#000" flood-opacity=".72" in="SourceGraphic" result="Shadow" stdDeviation="1.283"/></filter><filter id="Filter_2" width="100.738" height="77.158" x="-.615" y="12.096" color-interpolation-filters="sRGB" filterUnits="userSpaceOnUse"><feDropShadow dx="-.245" dy=".674" flood-color="#000" flood-opacity=".68" in="SourceGraphic" result="Shadow" stdDeviation="1.283"/></filter></defs><clipPath id="ArtboardFrame"><rect width="100.738" height="77.158" x="-.615" y="12.096"/></clipPath><g id="Layer" clip-path="url(#ArtboardFrame)" layerName="Layer"><g layerName="Group 11" opacity="1"><path fill="url(#RadialGradient)" fill-rule="nonzero" stroke="none" d="M5.82507 18.3229L94.29 18.3229L94.29 81.6155L5.82507 81.6155L5.82507 18.3229Z" filter="url(#Filter)" layerName="Rectangle 1" shadowAngle="1.92" shadowColor="#000000" shadowOffset=".718" shadowOpacity=".72" shadowRadius="2.567"/><path fill="#b5c600" fill-rule="nonzero" stroke="none" d="M97.1609 14.6293L97.1609 85.3707L2.83909 85.3707L2.83909 14.6293L97.1609 14.6293ZM91.2658 20.5244L8.7342 20.5244L8.7342 44.1049L20.5244 44.1049L20.5244 55.8951L8.7342 55.8951L8.7342 79.4756L55.8951 79.4756L55.8951 67.6853L67.6853 67.6853L67.6853 79.4756L79.4756 79.4756L79.4756 67.6853L91.2658 67.6853L91.2658 20.5244ZM32.3147 44.1049L20.5244 44.1049L20.5244 32.3147L32.3147 32.3147L32.3147 44.1049ZM32.3147 55.8951L32.3147 44.1049L44.1049 44.1049L44.1049 55.8951L32.3147 55.8951ZM55.8951 55.8951L55.8951 67.6853L44.1049 67.6853L44.1049 55.8951L55.8951 55.8951ZM79.4756 55.8951L79.4756 67.6853L67.6853 67.6853L67.6853 55.8951L79.4756 55.8951ZM79.4756 44.1049L67.6853 44.1049L67.6853 32.3147L79.4756 32.3147L79.4756 44.1049Z" filter="url(#Filter_2)" layerName="path 4" shadowAngle="1.92" shadowColor="#000000" shadowOffset=".718" shadowOpacity=".68" shadowRadius="2.567"/></g></g></svg>