<svg xmlns="http://www.w3.org/2000/svg" xmlns:vectornator="http://vectornator.io" xmlns:xlink="http://www.w3.org/1999/xlink" height="100%" stroke-miterlimit="10" style="fill-rule:nonzero;clip-rule:evenodd;stroke-linecap:round;stroke-linejoin:round" width="100%" version="1.1" viewBox="0 0 100 100" xml:space="preserve"><defs><linearGradient id="LinearGradient" x1=".088" x2=".248" y1="101.248" y2="-2.228" gradientTransform="matrix(1 0 0 1 0 0)" gradientUnits="userSpaceOnUse"><stop offset="0" stop-color="#0c0058"/><stop offset="1" stop-color="#000ab0"/></linearGradient><filter id="Filter" width="102.679" height="76.669" x="-2.683" y="12.73" color-interpolation-filters="sRGB" filterUnits="userSpaceOnUse"><feDropShadow dx="-1.343" dy="1.065" flood-color="#000" flood-opacity=".55" in="SourceGraphic" result="Shadow" stdDeviation="1.809"/></filter><linearGradient id="LinearGradient_2" x1="-2.074" x2="6.031" y1="17.758" y2="126.66" gradientTransform="matrix(1 0 0 1 0 0)" gradientUnits="userSpaceOnUse"><stop offset=".013" stop-color="#ff6e6e"/><stop offset="1" stop-color="#fc5757"/></linearGradient><filter id="Filter_2" width="102.679" height="61.063" x="-2.683" y="28.336" color-interpolation-filters="sRGB" filterUnits="userSpaceOnUse"><feDropShadow dx="-1.343" dy="1.065" flood-color="#000" flood-opacity=".55" in="SourceGraphic" result="Shadow" stdDeviation="1.809"/></filter></defs><clipPath id="ArtboardFrame"><rect width="102.679" height="76.669" x="-2.683" y="12.73"/></clipPath><g id="Layer" clip-path="url(#ArtboardFrame)" layerName="Layer"><g layerName="Group 11" opacity="1"><path fill="url(#LinearGradient)" fill-rule="nonzero" stroke="none" d="M3.18201 16.187L96.818 16.187L96.818 83.813L3.18201 83.813L3.18201 16.187Z" filter="url(#Filter)" layerName="path 1" shadowAngle="2.471" shadowColor="#000000" shadowOffset="1.714" shadowOpacity=".55" shadowRadius="3.617"/><path fill="url(#LinearGradient_2)" fill-rule="evenodd" stroke="none" d="M3.18201 83.813L36.995 50L50 63.005L78.611 34.394L96.818 52.601L96.818 83.813L3.18201 83.813ZM51.3005 31.793C54.8917 31.793 57.803 34.7043 57.803 38.2955C57.803 41.8867 54.8917 44.798 51.3005 44.798C47.7093 44.798 44.798 41.8867 44.798 38.2955C44.798 34.7043 47.7093 31.793 51.3005 31.793Z" filter="url(#Filter_2)" layerName="path 1" shadowAngle="2.471" shadowColor="#000000" shadowOffset="1.714" shadowOpacity=".55" shadowRadius="3.617"/></g></g></svg>