<svg height="100%" stroke-miterlimit="10" style="fill-rule:nonzero;clip-rule:evenodd;stroke-linecap:round;stroke-linejoin:round;" version="1.1" viewBox="0 0 100 100" width="100%" xml:space="preserve" xmlns="http://www.w3.org/2000/svg" xmlns:vectornator="http://vectornator.io" xmlns:xlink="http://www.w3.org/1999/xlink">
<defs>
<filter color-interpolation-filters="sRGB" filterUnits="userSpaceOnUse" height="74.4023" id="Filter" width="100.412" x="-1.55784" y="13.8703">
<feDropShadow dx="-1.35171" dy="1.07148" flood-color="#000000" flood-opacity="0.55" in="SourceGraphic" result="Shadow" stdDeviation="1.35526"/>
</filter>
<filter color-interpolation-filters="sRGB" filterUnits="userSpaceOnUse" height="58.7963" id="Filter_2" width="100.412" x="-0.785434" y="28.8641">
<feDropShadow dx="-0.579305" dy="0.459205" flood-color="#000000" flood-opacity="0.55" in="SourceGraphic" result="Shadow" stdDeviation="1.35526"/>
</filter>
</defs>
<clipPath id="ArtboardFrame">
<rect height="74.4023" width="101.185" x="-1.55784" y="13.8703"/>
</clipPath>
<g clip-path="url(#ArtboardFrame)" id="Layer" layerName="Layer">
<g opacity="1" layerName="Group 9">
<path d="M3.18201 16.187L96.818 16.187L96.818 83.813L3.18201 83.813L3.18201 16.187Z" fill="#ff6e6e" fill-rule="nonzero" filter="url(#Filter)" stroke="none" layerName="path 1" shadowAngle="2.47133" shadowColor="#000000" shadowOffset="1.72487" shadowOpacity="0.55" shadowRadius="2.71051"/>
<path d="M3.18201 83.813L36.995 50L50 63.005L78.611 34.394L96.818 52.601L96.818 83.813L3.18201 83.813ZM51.3005 31.793C54.8917 31.793 57.803 34.7043 57.803 38.2955C57.803 41.8867 54.8917 44.798 51.3005 44.798C47.7093 44.798 44.798 41.8867 44.798 38.2955C44.798 34.7043 47.7093 31.793 51.3005 31.793Z" fill="#ffffff" fill-rule="evenodd" filter="url(#Filter_2)" stroke="none" layerName="path 1" shadowAngle="2.47133" shadowColor="#000000" shadowOffset="0.739231" shadowOpacity="0.55" shadowRadius="2.71051"/>
</g>
</g>
</svg>
