<svg xmlns="http://www.w3.org/2000/svg" xmlns:vectornator="http://vectornator.io" xmlns:xlink="http://www.w3.org/1999/xlink" height="100%" stroke-miterlimit="10" style="fill-rule:nonzero;clip-rule:evenodd;stroke-linecap:round;stroke-linejoin:round" width="100%" version="1.1" viewBox="0 0 100 100" xml:space="preserve"><defs><filter id="Filter" width="90.682" height="102.454" x=".236" y="-.03" color-interpolation-filters="sRGB" filterUnits="userSpaceOnUse"><feDropShadow dx="-.436" dy="1.197" flood-color="#000" flood-opacity=".55" in="SourceGraphic" result="Shadow" stdDeviation="1.831"/></filter><linearGradient id="LinearGradient" x1="50.255" x2="72.146" y1="59.969" y2="59.538" gradientTransform="matrix(1.46258 0 0 1.46258 -19.3277 -24.1776)" gradientUnits="userSpaceOnUse"><stop offset="0" stop-color="#dcdcdc"/><stop offset="1" stop-color="#363636"/></linearGradient><radialGradient id="RadialGradient" cx="51.911" cy="20.137" r="60.353" gradientTransform="matrix(1 0 0 1 0.975183 1.63075)" gradientUnits="userSpaceOnUse"><stop offset="0" stop-color="#c1c1c1"/><stop offset="1" stop-color="#000"/></radialGradient><radialGradient id="RadialGradient_2" cx="40.279" cy="15.078" r="36.424" gradientTransform="matrix(1 0 0 1 0.975183 1.63075)" gradientUnits="userSpaceOnUse"><stop offset="0" stop-color="#cecbcb"/><stop offset="1" stop-color="#6c6c6c"/></radialGradient><linearGradient id="LinearGradient_2" x1="26.457" x2="49.275" y1="59.432" y2="59.432" gradientTransform="matrix(1.46258 0 0 1.46258 -19.3277 -24.1776)" gradientUnits="userSpaceOnUse"><stop offset="0" stop-color="#363636"/><stop offset="1" stop-color="#dcdcdc"/></linearGradient><linearGradient id="LinearGradient_3" x1="25.655" x2="28.64" y1="38.798" y2="38.024" gradientTransform="matrix(1.46258 0 0 1.46258 -19.3277 -24.1776)" gradientUnits="userSpaceOnUse"><stop offset="0" stop-color="#363636"/><stop offset="1" stop-color="#dcdcdc"/></linearGradient><linearGradient id="LinearGradient_4" x1="69.765" x2="72.268" y1="39.158" y2="39.587" gradientTransform="matrix(1.46258 0 0 1.46258 -19.3277 -24.1776)" gradientUnits="userSpaceOnUse"><stop offset="0" stop-color="#dcdcdc"/><stop offset="1" stop-color="#363636"/></linearGradient><linearGradient id="LinearGradient_5" x1="70.975" x2="49.328" y1="57.524" y2="57.563" gradientTransform="matrix(1.46258 0 0 1.46258 -19.3277 -24.1776)" gradientUnits="userSpaceOnUse"><stop offset="0" stop-color="#fff"/><stop offset="0" stop-color="#340045"/><stop offset=".494" stop-color="#bc00ff"/><stop offset="1" stop-color="#580081"/></linearGradient><linearGradient id="LinearGradient_6" x1="29.958" x2="49.383" y1="43.09" y2="43.09" gradientTransform="matrix(1.46258 0 0 1.46258 -19.3277 -24.1776)" gradientUnits="userSpaceOnUse"><stop offset="0" stop-color="#fff"/><stop offset="0" stop-color="#340045"/><stop offset=".494" stop-color="#bc00ff"/><stop offset="1" stop-color="#580081"/></linearGradient><linearGradient id="LinearGradient_7" x1="39.335" x2="59.328" y1="56.563" y2="57.136" gradientTransform="matrix(1.46258 0 0 1.46258 -17.0526 -27.4391)" gradientUnits="userSpaceOnUse"><stop offset="0" stop-color="#fff"/><stop offset="0" stop-color="#340045"/><stop offset=".494" stop-color="#bc00ff"/><stop offset="1" stop-color="#660094"/></linearGradient><linearGradient id="LinearGradient_8" x1="41.131" x2="50.863" y1="58.343" y2="58.343" gradientTransform="matrix(1.46258 0 0 1.46258 -17.0526 -27.4391)" gradientUnits="userSpaceOnUse"><stop offset="0" stop-color="#fff"/><stop offset="0" stop-color="#340045"/><stop offset=".494" stop-color="#bc00ff"/><stop offset="1" stop-color="#7800af"/></linearGradient><linearGradient id="LinearGradient_9" x1="37.783" x2="49.606" y1="55.588" y2="56.564" gradientTransform="matrix(1.46258 0 0 1.46258 -17.0526 -27.4391)" gradientUnits="userSpaceOnUse"><stop offset="0" stop-color="#fff"/><stop offset="0" stop-color="#340045"/><stop offset=".494" stop-color="#bc00ff"/><stop offset="1" stop-color="#660094"/></linearGradient><linearGradient id="LinearGradient_10" x1="49.057" x2="52.793" y1="64.284" y2="64.284" gradientTransform="matrix(1.46258 0 0 1.46258 -17.0526 -27.4391)" gradientUnits="userSpaceOnUse"><stop offset="0" stop-color="#fff"/><stop offset="0" stop-color="#51006b"/><stop offset=".494" stop-color="#bc00ff"/><stop offset="1" stop-color="#7800af"/></linearGradient></defs><clipPath id="ArtboardFrame"><rect width="90.682" height="102.454" x=".236" y="-.03"/></clipPath><g id="Layer" clip-path="url(#ArtboardFrame)" layerName="Layer"><g filter="url(#Filter)" layerName="Group 6" shadowAngle="1.92" shadowColor="#000000" shadowOffset="1.274" shadowOpacity=".55" shadowRadius="3.661"><path fill="url(#LinearGradient)" fill-rule="evenodd" stroke="none" d="M19.3679 33.2203L25.5755 89.8046C25.5755 92.4309 27.6978 94.5532 30.324 94.5532L75.236 94.5532C77.8623 94.5532 79.9846 92.4309 79.9846 89.8046L86.1921 33.2203C86.1921 30.594 19.3679 30.594 19.3679 33.2203Z" layerName="path 3" opacity="1"/><path fill="url(#RadialGradient)" fill-rule="evenodd" stroke="none" d="M52.7668 3.34967L52.7668 8.46959C82.5047 8.46959 83.4332 35.1303 83.4332 35.1303L86.2187 33.2468C86.1921 33.2203 87.3328 3.34967 52.7668 3.34967Z" layerName="path 4" opacity="1"/><path fill="url(#RadialGradient_2)" fill-rule="evenodd" stroke="none" d="M52.7668 3.34967C18.2007 3.34967 19.3679 33.2468 19.3679 33.2468L22.1534 35.1303C22.1534 35.1303 23.0288 8.46959 52.7668 8.46959L52.7668 3.34967Z" layerName="path 5" opacity="1"/><path fill="url(#LinearGradient_2)" fill-rule="nonzero" stroke="none" d="M52.6341 30.9389C40.2986 30.9389 28.0692 31.6286 22.4717 32.3448L19.3679 33.2468L25.5755 89.8046C25.5755 92.4309 27.6978 94.5532 30.324 94.5532L52.7403 94.5532L52.6341 30.9389Z" layerName="path 6" opacity="1"/><path fill="url(#LinearGradient_3)" fill-rule="evenodd" stroke="none" d="M22.4983 30.1695L19.6332 30.1695C19.1823 30.1695 18.8374 30.7797 18.8374 31.549L18.8374 33.91C18.8374 34.6793 19.1823 35.2895 19.6332 35.2895L22.4983 35.2895C22.9492 35.2895 23.2941 34.6793 23.2941 33.91L23.2941 31.549C23.2941 30.8062 22.9492 30.1695 22.4983 30.1695Z" layerName="path 7" opacity="1"/><path fill="url(#LinearGradient_4)" fill-rule="evenodd" stroke="none" d="M85.9799 30.1695L83.1149 30.1695C82.6639 30.1695 82.319 30.7797 82.319 31.549L82.319 33.91C82.319 34.6793 82.6904 35.2895 83.1149 35.2895L85.9799 35.2895C86.4309 35.2895 86.7758 34.6793 86.7758 33.91L86.7758 31.549C86.8023 30.8062 86.4309 30.1695 85.9799 30.1695Z" layerName="path 8" opacity="1"/><path fill="url(#LinearGradient_5)" fill-rule="evenodd" stroke="none" d="M24.4879 32.1326C24.4879 32.1326 34.1706 57.7587 45.2328 41.1522C45.2328 41.1522 49.3977 36.1118 53.8014 41.3909C58.1785 46.67 57.1439 53.1163 57.9663 56.2997C58.603 58.7137 63.7229 64.1255 65.3676 53.4081C67.4633 39.9319 71.7343 41.0195 74.0423 42.5847C76.3502 44.1498 79.1357 43.2214 80.0907 38.7381C81.0457 34.2549 81.311 32.0796 81.311 32.0796C81.311 32.0796 51.4138 29.5063 24.4879 32.1326Z" layerName="path 9" opacity="1"/><path fill="url(#LinearGradient_6)" fill-rule="evenodd" stroke="none" d="M24.4879 32.1326C24.4879 32.1326 34.1706 57.7587 45.2328 41.1522C45.2328 41.1522 48.761 36.8811 52.7137 40.3033L52.8994 30.9389C45.0471 30.9919 32.7646 31.3368 24.4879 32.1326Z" layerName="path 10" opacity="1"/><g layerName="g 4" opacity="1"><path fill="#e79e2d" fill-rule="nonzero" stroke="none" d="M47.7201 54.285L9.65228 92.3528C11.1644 93.8649 12.7561 95.2974 14.4273 96.6503L33.0766 74.2872C35.3049 75.03 37.6924 74.6586 39.5494 72.7751L50.5851 61.7394C53.4236 58.9009 50.5586 57.1235 47.7201 54.285Z" layerName="path" opacity="1"/><path fill="#d68a28" fill-rule="nonzero" stroke="none" d="M40.2657 51.42L29.23 62.4557C27.373 64.3126 26.9751 66.7001 27.7179 68.9285L5.24862 87.4981C6.62808 89.1694 8.11365 90.7876 9.65228 92.3263L47.7201 54.2585C44.8816 51.4465 43.1307 48.5815 40.2657 51.42Z" layerName="path" opacity="1"/><path fill="#cdcccb" fill-rule="nonzero" stroke="none" d="M48.118 53.9136C45.2795 51.0751 43.1307 48.5815 40.2922 51.4465L29.2565 62.4822C27.9036 63.8351 38.223 74.128 39.5759 72.8016L50.6116 61.7659C53.4236 58.9009 50.9565 56.7521 48.118 53.9136Z" layerName="path" opacity="1"/><path fill="#aaa" fill-rule="nonzero" stroke="none" d="M40.2657 51.42L29.23 62.4557C28.5668 63.1189 30.7951 66.0369 33.3684 68.6102L48.118 53.9136C45.2529 51.0486 43.1307 48.5815 40.2657 51.42Z" layerName="path" opacity="1"/><path fill="#b2b2b2" fill-rule="nonzero" stroke="none" d="M29.9197 72.2445C28.0362 70.361 27.373 67.9735 27.373 67.9735L21.4573 73.9954C20.741 74.7116 27.32 81.2375 28.0362 80.5213L34.005 74.5525C34.005 74.5525 31.8297 74.128 29.9197 72.2445Z" layerName="path" opacity="1"/><path fill="#8d9091" fill-rule="nonzero" stroke="none" d="M27.373 67.9735L21.4573 73.9954C21.0859 74.3668 22.4653 76.1441 24.1631 77.8419L29.8136 72.1384C28.0097 70.2814 27.373 67.9735 27.373 67.9735Z" layerName="path" opacity="1"/><path fill="#3d4040" fill-rule="nonzero" stroke="none" d="M40.4514 48.6345L33.8193 57.8928C32.4664 59.2458 42.7858 69.5386 44.1388 68.2122L47.3221 65.9308L40.4514 48.6345Z" layerName="path" opacity="1"/><path fill="#343433" fill-rule="nonzero" stroke="none" d="M40.4146 48.7759L33.8193 57.8928C33.1561 58.556 35.3049 61.3945 37.8516 63.9412L51.0626 50.9955C47.5609 47.4938 40.4146 48.7759 40.4146 48.7759Z" layerName="path" opacity="1"/><path fill="url(#LinearGradient_7)" fill-rule="nonzero" stroke="none" d="M43.0511 45.0603L40.8604 48.0905L40.6525 49.2962L42.494 57.7142L47.3221 65.9113L56.9783 58.961C59.8169 56.1225 45.8896 42.2218 43.0511 45.0603Z" layerName="path" opacity="1"/><path fill="url(#LinearGradient_8)" fill-rule="nonzero" stroke="none" d="M52.1502 49.8814L43.1042 58.7683L47.2956 65.9043L56.9518 58.9539C58.3843 57.548 55.6254 53.3565 52.1502 49.8814Z" layerName="path" opacity="1"/><g layerName="g" opacity="1"><path fill="#1d1e1e" fill-rule="nonzero" stroke="none" d="M41.2472 52.2158L36.1008 58.9009C35.9151 59.1396 35.9681 59.458 36.2069 59.6437C36.313 59.7233 36.4191 59.7498 36.5252 59.7498C36.6844 59.7498 36.8435 59.6702 36.9497 59.5376L41.539 53.5422L41.2472 52.2158Z" layerName="path" opacity="1"/><path fill="#2e2f2f" fill-rule="nonzero" stroke="none" d="M45.5713 62.9862L42.6267 65.2411C42.3879 65.4268 42.3614 65.7451 42.5206 65.9839C42.6267 66.1165 42.7858 66.1961 42.945 66.1961C43.0511 66.1961 43.1838 66.1696 43.2633 66.09L46.1018 63.9147L45.5713 62.9862ZM43.8204 60.0151L40.4248 63.0923C40.2126 63.278 40.1861 63.6229 40.3983 63.8351C40.5044 63.9412 40.6371 64.0208 40.7962 64.0208C40.9289 64.0208 41.0615 63.9678 41.1676 63.8882L44.3775 60.9436L43.8204 60.0151Z" layerName="path" opacity="1"/><path fill="#1d1e1e" fill-rule="nonzero" stroke="none" d="M42.4675 57.7071L42.2022 56.5134L38.17 60.917C37.9843 61.1293 37.9843 61.4741 38.1965 61.6598C38.3026 61.7659 38.4352 61.7925 38.5679 61.7925C38.7005 61.7925 38.8597 61.7394 38.9658 61.6068L42.494 57.7337L42.4675 57.7071Z" layerName="path" opacity="1"/></g><path fill="url(#LinearGradient_9)" fill-rule="nonzero" stroke="none" d="M46.0753 46.8041C45.8366 46.6184 45.5182 46.6715 45.3325 46.9102L41.2472 52.2158L41.539 53.5688L46.1549 47.5469C46.3671 47.3347 46.3141 46.9898 46.0753 46.8041ZM55.3867 56.1154C55.201 55.8767 54.8826 55.8502 54.6439 56.0093L45.5713 62.9597L46.1284 63.8882L55.3071 56.8582C55.5193 56.6991 55.5724 56.3542 55.3867 56.1154ZM52.8134 52.5342C52.6277 52.3219 52.2829 52.2954 52.0707 52.5076L43.8204 60.0151L44.3775 60.9436L52.7869 53.2769C52.9991 53.0912 53.0257 52.7464 52.8134 52.5342ZM49.5505 49.2447C49.3383 49.059 48.9934 49.059 48.8077 49.2712L42.2287 56.4868L42.494 57.6806L42.5206 57.7337L49.6035 49.9875C49.7892 49.7752 49.7627 49.4569 49.5505 49.2447Z" layerName="path" opacity="1"/><path fill="url(#LinearGradient_10)" fill-rule="nonzero" stroke="none" d="M57.4293 61.7925C57.4293 61.7925 54.6969 66.7267 54.6969 68.6367C54.6969 70.1488 55.9172 71.3691 57.4293 71.3691C58.9414 71.3691 60.1617 70.1488 60.1617 68.6367C60.1882 66.8858 57.4293 61.7925 57.4293 61.7925Z" layerName="path" opacity="1"/></g></g></g></svg>