<svg xmlns="http://www.w3.org/2000/svg" xmlns:xlink="http://www.w3.org/1999/xlink" width="100%" height="100%" version="1.1" viewBox="0 0 100 100" xml:space="preserve"><defs><linearGradient id="LinearGradient_MANUALBook" x1="118.515" x2="110.356" y1="-114.104" y2="156.955" gradientTransform="matrix(1 0 0 1 0 0)" gradientUnits="userSpaceOnUse"><stop offset="0" stop-color="#020211"/><stop offset="0" stop-color="#000"/><stop offset="1" stop-color="#b60101"/></linearGradient><filter id="Filter_MANUALBook" width="92.5" height="64.643" x="3.75" y="19.75" color-interpolation-filters="sRGB" filterUnits="userSpaceOnUse"><feDropShadow dx="0" dy="1" flood-color="#000" flood-opacity=".65" in="SourceGraphic" result="Shadow" stdDeviation=".5"/></filter><linearGradient id="LinearGradient_MANUALBook_2" x1="118.515" x2="110.356" y1="-114.104" y2="156.955" gradientTransform="matrix(1 0 0 1 0 0)" gradientUnits="userSpaceOnUse"><stop offset="0" stop-color="#020211"/><stop offset="0" stop-color="#000"/><stop offset="1" stop-color="#b60101"/></linearGradient><filter id="Filter_MANUALBook_2" width="92.5" height="64.643" x="3.75" y="18.75" color-interpolation-filters="sRGB" filterUnits="userSpaceOnUse"><feDropShadow dx="0" dy="0" flood-color="#000" flood-opacity=".65" in="SourceGraphic" result="Shadow" stdDeviation=".5"/></filter><radialGradient id="RadialGradient_MANUALBook" cx="49.956" cy="51.028" r="77.43" gradientTransform="matrix(1 8.11196e-20 5.21221e-19 1 0 1.77636e-15)" gradientUnits="userSpaceOnUse"><stop offset="0" stop-color="#000"/><stop offset=".8" stop-color="#b60101"/><stop offset="1" stop-color="#020211"/></radialGradient><filter id="Filter_MANUALBook_3" width="23.929" height="23.929" x="38.036" y="64.75" color-interpolation-filters="sRGB" filterUnits="userSpaceOnUse"><feDropShadow dx="0" dy="1" flood-color="#000" flood-opacity=".65" in="SourceGraphic" result="Shadow" stdDeviation=".5"/></filter><linearGradient id="LinearGradient_MANUALBook_3" x1="47.849" x2="48.096" y1="76.537" y2="65.339" gradientTransform="matrix(1 0 0 1 -8.88178e-16 0)" gradientUnits="userSpaceOnUse"><stop offset="0" stop-color="#020211"/><stop offset="0" stop-color="#000"/><stop offset="1" stop-color="#b60101"/></linearGradient><filter id="Filter_MANUALBook_4" width="15.357" height="15.357" x="41.895" y="68.941" color-interpolation-filters="sRGB" filterUnits="userSpaceOnUse"><feDropShadow dx="-.426" dy=".905" flood-color="#000" flood-opacity=".65" in="SourceGraphic" result="Shadow" stdDeviation=".5"/></filter><filter id="Filter_MANUALBook_5" width="82.143" height="60.714" x="8.929" y="18.5" color-interpolation-filters="sRGB" filterUnits="userSpaceOnUse"><feDropShadow dx="0" dy="1" flood-color="#000" flood-opacity=".65" in="SourceGraphic" result="Shadow" stdDeviation="1"/></filter><filter id="Filter_MANUALBook_6" width="73.571" height="67.643" x="13.214" y="13.571" color-interpolation-filters="sRGB" filterUnits="userSpaceOnUse"><feDropShadow dx="0" dy="3" flood-color="#000" flood-opacity=".65" in="SourceGraphic" result="Shadow" stdDeviation="1"/></filter><linearGradient id="LinearGradient_MANUALBook_4" x1="44.48" x2="74.165" y1="42.327" y2="41.897" gradientTransform="matrix(1 0 0 1 -3.55271e-15 0)" gradientUnits="userSpaceOnUse"><stop offset="0" stop-color="#020211"/><stop offset="0" stop-color="#000"/><stop offset="1" stop-color="#5e5e5e"/></linearGradient><filter id="Filter_MANUALBook_7" width="11.429" height="39.286" x="62.5" y="21.786" color-interpolation-filters="sRGB" filterUnits="userSpaceOnUse"><feDropShadow dx="0" dy="0" flood-color="#000" flood-opacity=".88" in="SourceGraphic" result="Shadow" stdDeviation="1"/></filter><linearGradient id="LinearGradient_MANUALBook_5" x1="44.48" x2="74.165" y1="42.327" y2="41.897" gradientTransform="matrix(0.999966 -0.00820419 0.00820419 0.999966 -0.337592 0.561037)" gradientUnits="userSpaceOnUse"><stop offset="0" stop-color="#020211"/><stop offset="0" stop-color="#000"/><stop offset="1" stop-color="#5e5e5e"/></linearGradient><filter id="Filter_MANUALBook_8" width="9.361" height="37.201" x="63.441" y="22.841" color-interpolation-filters="sRGB" filterUnits="userSpaceOnUse"><feDropShadow dx="0" dy="0" flood-color="#000" flood-opacity=".88" in="SourceGraphic" result="Shadow" stdDeviation=".5"/></filter></defs><g id="Instructions"><g id="zxcvGroup-1" opacity="1"><path id="zxcv" fill="url(#LinearGradient_MANUALBook)" stroke="none" d="M5 20L95 20L95 82.1429L5 82.1429L5 20Z" filter="url(#Filter_MANUALBook)" shadowAngle="1.571" shadowColor="#000000" shadowOffset="1" shadowOpacity=".65" shadowRadius="1"/><path id="zxcv-7" fill="url(#LinearGradient_MANUALBook_2)" stroke="none" d="M5 20L95 20L95 82.1429L5 82.1429L5 20Z" filter="url(#Filter_MANUALBook_2)" shadowAngle="4.571" shadowColor="#000000" shadowOffset="0" shadowOpacity=".65" shadowRadius="1"/><path id="zxcv-1" fill="url(#RadialGradient_MANUALBook)" stroke="none" d="M50 65C44.0827 65 39.2857 69.7969 39.2857 75.7143C39.2857 81.6316 44.0827 86.4286 50 86.4286C55.9173 86.4286 60.7143 81.6316 60.7143 75.7143C60.7143 69.7969 55.9173 65 50 65Z" filter="url(#Filter_MANUALBook_3)" shadowAngle="1.571" shadowColor="#000000" shadowOffset="1" shadowOpacity=".65" shadowRadius="1"/><path id="zxcv-2" fill="url(#LinearGradient_MANUALBook_3)" stroke="none" d="M50 69.2857C46.4496 69.2857 43.5714 72.1639 43.5714 75.7143C43.5714 79.2647 46.4496 82.1429 50 82.1429C53.5504 82.1429 56.4286 79.2647 56.4286 75.7143C56.4286 72.1639 53.5504 69.2857 50 69.2857Z" filter="url(#Filter_MANUALBook_4)" shadowAngle="2.011" shadowColor="#000000" shadowOffset="1" shadowOpacity=".65" shadowRadius="1"/><path id="zxcv-3" fill="#cfd8dc" stroke="none" d="M84.2857 13.5714L52.1429 20L47.8571 20L15.7143 13.5714L11.4286 24.2857L11.4286 75.7143L88.5714 75.7143L88.5714 24.2857L84.2857 13.5714Z" opacity="1"/><path id="zxcv-4" fill="#b0bec5" stroke="none" d="M15.7143 69.2857L47.8571 69.2857L47.8571 75.7143L52.1429 75.7143L52.1429 69.2857L84.2857 69.2857L88.5714 75.7143L11.4286 75.7143L15.7143 69.2857ZM52.1429 20L47.8571 20L47.8571 75.7143L52.1429 75.7143L52.1429 20Z" filter="url(#Filter_MANUALBook_5)" shadowAngle="1.571" shadowColor="#000000" shadowOffset="1" shadowOpacity=".65" shadowRadius="2"/><path id="zxcv-5" fill="#eceff1" stroke="none" d="M84.2857 69.2857C84.2857 69.2857 52.1429 69.2857 52.1429 75.7143C52.1429 75.7143 52.1429 26.4286 52.1429 20C52.1429 13.5714 84.2857 13.5714 84.2857 13.5714L84.2857 69.2857ZM15.7143 69.2857C15.7143 69.2857 47.8571 69.2857 47.8571 75.7143C47.8571 75.7143 47.8571 26.4286 47.8571 20C47.8571 13.5714 15.7143 13.5714 15.7143 13.5714L15.7143 69.2857Z" filter="url(#Filter_MANUALBook_6)" shadowAngle="1.571" shadowColor="#000000" shadowOffset="3" shadowOpacity=".65" shadowRadius="2"/><path id="zxcv-8" fill="url(#LinearGradient_MANUALBook_4)" stroke="none" d="M71.2143 58.5714L65.2143 58.5714L65.2143 35L71.2143 35L71.2143 58.5714ZM71.4286 27.5C71.4286 25.7857 69.9286 24.2857 68.2143 24.2857C66.5 24.2857 65 25.7857 65 27.5C65 29.2143 66.5 30.7143 68.2143 30.7143C69.9286 30.7143 71.4286 29.2143 71.4286 27.5" filter="url(#Filter_MANUALBook_7)" shadowAngle="1.571" shadowColor="#000000" shadowOffset="0" shadowOpacity=".88" shadowRadius="2"/><path id="zxcv-6" fill="url(#LinearGradient_MANUALBook_5)" stroke="#282828" stroke-linecap="butt" stroke-linejoin="miter" stroke-width=".39" d="M71.3548 58.5462L65.355 58.5955L65.1616 35.0248L71.1614 34.9756L71.3548 58.5462ZM71.3142 27.4741C71.3001 25.7599 69.7879 24.2722 68.0736 24.2863C66.3594 24.3004 64.8718 25.8126 64.8858 27.5268C64.8999 29.2411 66.4122 30.7287 68.1264 30.7146C69.8406 30.7006 71.3283 29.1883 71.3142 27.4741" filter="url(#Filter_MANUALBook_8)" shadowAngle="1.571" shadowColor="#000000" shadowOffset="0" shadowOpacity=".88" shadowRadius="1"/></g></g></svg>