<svg width="100%" height="100%" xmlns="http://www.w3.org/2000/svg" shape-rendering="geometricPrecision" text-rendering="geometricPrecision" image-rendering="optimizeQuality" fill-rule="evenodd" clip-rule="evenodd"><path fill="#241f1f" d="M520.5 102.5a1890.079 1890.079 0 0 1 113 25 2.428 2.428 0 0 0-2 .5 447.693 447.693 0 0 0 50 10.5 1589.939 1589.939 0 0 1-2 46.5 1267.875 1267.875 0 0 0 2.5 40.5 147.738 147.738 0 0 0 7.5 28c4.695-.323 9.361.177 14 1.5 8.987 10.128 15.82 21.628 20.5 34.5a667.291 667.291 0 0 0 16.5 43c20.475-10.872 42.142-14.039 65-9.5a798.194 798.194 0 0 0 64 10c14.7.309 29.367-.358 44-2-2.536-.186-4.869-.686-7-1.5 11.166-.6 22.333-1.267 33.5-2 10.662-.126 20.829 2.041 30.5 6.5 4.743 2.565 7.743 6.398 9 11.5v3h-4a890.39 890.39 0 0 1-118-9.5 522.237 522.237 0 0 0-87-1 144.39 144.39 0 0 0-36 10c-.198 39.229-15.365 71.396-45.5 96.5a1023.71 1023.71 0 0 0-1 73c.172-6.513.672-12.847 1.5-19v20c-1.512 10.4.155 20.4 5 30a1263.054 1263.054 0 0 1 48 12c1.226-.02 2.226-.353 3-1 38.436 11.885 73.769 29.551 106 53 .473 1.406 1.473 2.073 3 2a306.546 306.546 0 0 1 40 32 78.504 78.504 0 0 0 10.5 13 605.087 605.087 0 0 1 21.5 20 458.272 458.272 0 0 1 41.5 50 1899.498 1899.498 0 0 1 55.5 84v45a22.784 22.784 0 0 1-4-5c0-.667-.33-1-1-1-.83-2.985-2.16-5.651-4-8a521.45 521.45 0 0 0-15-27 1495.699 1495.699 0 0 0-36-64 549.095 549.095 0 0 0-50-74c-27.09-36.545-61.423-64.045-103-82.5a490.645 490.645 0 0 0-83-32 199.01 199.01 0 0 0-29.5.5 65.419 65.419 0 0 1-13.5-1.5 1569.002 1569.002 0 0 0-140-41c-34.95-7.511-70.284-10.511-106-9a206.032 206.032 0 0 0-31 9 51.825 51.825 0 0 1-10.5 1.5c-102.867-23.572-195.033-2.072-276.5 64.5-27.927 23.077-51.26 49.91-70 80.5-13.083 18.828-23.583 39.162-31.5 61a186.127 186.127 0 0 0-5.5 18c-1.574 3.407-2.574 7.073-3 11-1.602 3.739-2.602 7.739-3 12-1.844 5.733-2.844 11.733-3 18-1.456 5.434-2.29 11.1-2.5 17-.2 1.82-1.034 3.153-2.5 4v-99a319.935 319.935 0 0 1 27.5-39 1262.586 1262.586 0 0 1 51.5-52c3.713-2.672 6.38-5.672 8-9 5.03-6.025 10.03-12.025 15-18 2.591-.754 4.424-2.421 5.5-5 10.506-19.343 17.006-40.009 19.5-62-.007-1.869-.34-3.536-1-5 .997-5.308 1.997-10.641 3-16 1.511-1.976 2.344-4.309 2.5-7 .5-10.328.666-20.661.5-31a629.77 629.77 0 0 0-1-43 177.774 177.774 0 0 0-5.5-37 375.9 375.9 0 0 1-19.5-44.5 1640.555 1640.555 0 0 1-106-12.5v-13c9.326.5 18.66.833 28 1-2.131.814-4.464 1.314-7 1.5a1872.49 1872.49 0 0 1 80 6.5l6-1a1595.542 1595.542 0 0 1 23.5-48 427.485 427.485 0 0 1 21-28 3275.907 3275.907 0 0 1 32-69c11.316-21.97 24.983-42.303 41-61 31.947-31.63 70.447-44.796 115.5-39.5A3183.44 3183.44 0 0 1 518 103.5c1.07-.028 1.903-.361 2.5-1z"/><path fill="#f3b756" d="M293.5 98.5a74168.836 74168.836 0 0 0 184 15.5c64.171 6.027 127.171 17.86 189 35.5a778.924 778.924 0 0 1 5.5 68c-.24 78.334-.573 156.667-1 235a851.427 851.427 0 0 0 6.5 83l-3 1a3054.277 3054.277 0 0 0-214-31.5c-65.684-7.237-131.351-7.237-197 0a205.099 205.099 0 0 0-20 3.5l-1-5.5c1.986-34.825 3.819-69.659 5.5-104.5a1616.475 1616.475 0 0 1 27-228 949.57 949.57 0 0 1 18.5-72z"/><path fill="#f2b756" d="M258.5 121.5a932.694 932.694 0 0 1-5.5 78 7374.208 7374.208 0 0 0-22 190 2208.858 2208.858 0 0 0-6 119c-27.459 21.488-57.626 38.488-90.5 51a595.896 595.896 0 0 1 4.5-118c1.071-10.036 3.405-19.702 7-29 12.054 8.898 25.554 12.065 40.5 9.5 14.437-18.629 22.604-39.796 24.5-63.5 1.844-51.295-8.656-99.961-31.5-146a1118.107 1118.107 0 0 1 44.5-64c9.967-11.154 21.467-20.154 34.5-27z"/><path fill="#252020" d="M428.5 195.5l-42-2c20.05-4.495 40.383-6.495 61-6a650.015 650.015 0 0 1 134 19.5 2846.743 2846.743 0 0 1 82 22 225.577 225.577 0 0 1-46-2 2706.32 2706.32 0 0 1-81-17 137.317 137.317 0 0 0-36-2.5c24.775 34.96 25.275 70.294 1.5 106-17.866 22.287-40.7 30.454-68.5 24.5-15.057-5.715-27.223-15.215-36.5-28.5-5.073-51.381 15.761-87.548 62.5-108.5-9.968-3.666-20.302-5.5-31-5.5z"/><path fill="#4c3d2b" d="M386.5 193.5l42 2c-16.003.167-32.003 0-48-.5a20.093 20.093 0 0 1 6-1.5z"/><path fill="#de2425" d="M473.5 216.5c11.846 0 19.679 5.667 23.5 17 7.45 23.042 8.45 46.375 3 70-16.065 16.055-34.899 20.222-56.5 12.5-17.052-6.385-28.718-18.052-35-35a17.842 17.842 0 0 0 4.5-5.5 91.966 91.966 0 0 0 3-23c1.266-9.105 6.433-13.105 15.5-12-6.855 37.598 8.478 58.432 46 62.5 8.783-11.405 14.45-24.239 17-38.5-1.838-6.675-5.004-12.675-9.5-18a196.154 196.154 0 0 1-24.5-22.5c4.102-3.046 8.435-5.546 13-7.5z"/><path fill="#f1b656" d="M442.5 252.5c7.674-.166 15.341 0 23 .5 14.745 1.375 19.578 8.875 14.5 22.5-3.806 4.811-8.473 8.478-14 11l-6.5-6.5c-7.794-2.799-13.294-7.965-16.5-15.5a72.367 72.367 0 0 1-.5-12z"/><path fill="#ba2025" d="M176.5 252.5h4c9.045 36.448 12.545 73.448 10.5 111a191.14 191.14 0 0 1-5.5 36c-31.915-.411-50.415-16.411-55.5-48-3.593-34.894 6.907-64.727 31.5-89.5a89.397 89.397 0 0 1 15-9.5z"/><path fill="#252020" d="M577.5 254.5c20.09-2.78 36.923 3.22 50.5 18 9.253 12.368 10.92 25.701 5 40-5.775 11.7-13.609 21.867-23.5 30.5-16.766 2.557-32.432-.443-47-9a712.39 712.39 0 0 0-21.5-13.5c-2.698-23.251 4.469-42.751 21.5-58.5 4.813-3.073 9.813-5.573 15-7.5z"/><path fill="#dc2425" d="M587.5 258.5c13.05-.289 24.216 4.044 33.5 13 4.884 7.992 6.717 16.659 5.5 26-3.214-.94-6.214-2.44-9-4.5a497.884 497.884 0 0 0-30-34.5z"/><path fill="#b92025" d="M699.5 270.5c1.871.359 3.371 1.359 4.5 3 10.699 16.762 17.032 35.095 19 55 3.378 27.366-.955 53.366-13 78-6.277 10.446-15.11 17.78-26.5 22a653.692 653.692 0 0 1-.5-93c1.283-22.8 6.783-44.466 16.5-65z"/><path fill="#de2425" d="M570.5 275.5c2.357-.163 4.69.003 7 .5 1.536 1.599 2.036 3.433 1.5 5.5-5.26 4.864-6.927 10.864-5 18 2.158 7.821 5.992 14.655 11.5 20.5-10.784 2.854-18.617-.646-23.5-10.5-2.748-6.074-4.081-12.407-4-19 2.931-6.092 7.098-11.092 12.5-15z"/><path fill="#edb355" d="M586.5 285.5c17.309-1.197 24.642 6.636 22 23.5-18.195 2.306-25.528-5.528-22-23.5z"/><path fill="#0e0704" d="M520.5 102.5c-.597.639-1.43.972-2.5 1A3183.44 3183.44 0 0 0 339.5 80c-45.053-5.296-83.553 7.87-115.5 39.5-16.017 18.697-29.684 39.03-41 61a3275.907 3275.907 0 0 0-32 69 427.485 427.485 0 0 0-21 28 1595.542 1595.542 0 0 0-23.5 48l-6 1a1872.49 1872.49 0 0 0-80-6.5c2.536-.186 4.869-.686 7-1.5a3384.806 3384.806 0 0 1 72.5 6l5.5-1a578.373 578.373 0 0 1 24.5-50l20-26c14.777-36.555 32.444-71.555 53-105 32.248-48.204 77.414-69.704 135.5-64.5a769.913 769.913 0 0 1 58 6 2974.31 2974.31 0 0 0 88 12c12.04 2.062 24.04 4.229 36 6.5z" opacity=".569"/><path fill="#0c0503" d="M633.5 127.5a837.589 837.589 0 0 1 47 9.5c1.791.415 3.124 1.415 4 3a448.642 448.642 0 0 0 .5 89.5 117.49 117.49 0 0 0 6.5 23c6.998-2.39 12.831-.723 17.5 5 6.951 9.563 12.617 19.896 17 31a3094.317 3094.317 0 0 0 15.5 42c13.04-7.762 27.207-11.429 42.5-11a444.79 444.79 0 0 1 28.5 2.5 1058.172 1058.172 0 0 0 52 9c14.107.897 28.107.397 42-1.5 2.131.814 4.464 1.314 7 1.5a331.645 331.645 0 0 1-44 2 798.194 798.194 0 0 1-64-10c-22.858-4.539-44.525-1.372-65 9.5a667.291 667.291 0 0 1-16.5-43c-4.68-12.872-11.513-24.372-20.5-34.5-4.639-1.323-9.305-1.823-14-1.5a147.738 147.738 0 0 1-7.5-28 1267.875 1267.875 0 0 1-2.5-40.5c.894-15.493 1.56-30.993 2-46.5a447.693 447.693 0 0 1-50-10.5 2.428 2.428 0 0 1 2-.5z" opacity=".537"/><path fill="#060301" d="M-.5 330.5a1640.555 1640.555 0 0 0 106 12.5 375.9 375.9 0 0 0 19.5 44.5 177.774 177.774 0 0 1 5.5 37h-1a446.69 446.69 0 0 0-5.5-33 1088.146 1088.146 0 0 1-20.5-47.5 1104.071 1104.071 0 0 1-104-11.5v-2z" opacity=".473"/><path fill="#120802" d="M975.5 348.5l-5 2a453.894 453.894 0 0 1-70-5 4.933 4.933 0 0 0-2.5 1c-44.217-8.074-88.717-9.908-133.5-5.5a112.235 112.235 0 0 0-28 8c-.098 39.694-15.598 71.86-46.5 96.5a2613.39 2613.39 0 0 1-.5 53 177.566 177.566 0 0 0-1.5 19 1023.71 1023.71 0 0 1 1-73c30.135-25.104 45.302-57.271 45.5-96.5a144.39 144.39 0 0 1 36-10 522.237 522.237 0 0 1 87 1 890.39 890.39 0 0 0 118 9.5z" opacity=".52"/><path fill="#592f0c" d="M979.5 345.5c1.301 1.384 1.301 2.884 0 4.5a40.914 40.914 0 0 1-9 .5l5-2h4v-3z" opacity=".047"/><path fill="#252020" d="M298.5 354.5c1.43 2.244 3.43 4.077 6 5.5a522.147 522.147 0 0 1 84 9 3392.177 3392.177 0 0 0 143 29 267.587 267.587 0 0 0 26 2.5 422.633 422.633 0 0 1 48-1.5c13.596.957 24.263 6.957 32 18-49.406 2.8-98.406-.534-147-10a5846.27 5846.27 0 0 0-163-31 246.882 246.882 0 0 0-33-3.5 98.432 98.432 0 0 1 .5-14 20.673 20.673 0 0 1 3.5-4z"/><path fill="#88511d" d="M129.5 424.5h1a629.77 629.77 0 0 1 1 43h-1a894.784 894.784 0 0 0-1-43z" opacity=".122"/><path fill="#a97716" d="M130.5 467.5h1c.166 10.339 0 20.672-.5 31-.156 2.691-.989 5.024-2.5 7a635.01 635.01 0 0 0 2-38z" opacity=".396"/><path fill="#fdc10e" d="M913.5 679.5c-.206 2.049-1.039 2.383-2.5 1l-1.5 1.5a133.498 133.498 0 0 0-16 3.5c-2.392-.708-4.559-.042-6.5 2a4.933 4.933 0 0 0-2.5-1 71.088 71.088 0 0 0-9 3 4.933 4.933 0 0 1-2.5-1c-1.171 1.393-2.671 2.227-4.5 2.5-3.86.105-7.526.938-11 2.5-1.806-1.359-3.306-1.025-4.5 1a426.674 426.674 0 0 0-8 0 9.258 9.258 0 0 0-2.5 2 48.144 48.144 0 0 1-9 0 7.293 7.293 0 0 0-3 2 80.851 80.851 0 0 0-8.5 0c-5.001 1.233-9.668 2.566-14 4l-5-1a54.186 54.186 0 0 0-13.5 4c-2.292-1.524-4.292-1.191-6 1a57.782 57.782 0 0 1-12.5 0c-2.085 1.545-4.252 1.878-6.5 1-1.003 2.042-2.337 2.375-4 1a66.678 66.678 0 0 0-5.5 2c-4.799-.512-9.465-.512-14 0-2.899.477-5.566 1.477-8 3-2.37-.628-4.703-.961-7-1a201.497 201.497 0 0 0-18.5 4 95.943 95.943 0 0 0-17 0 122.515 122.515 0 0 1-12 1.5 4.457 4.457 0 0 1-2 1.5c-2.568-.69-5.068-1.023-7.5-1-2.758 1.573-5.592 1.907-8.5 1a82.62 82.62 0 0 0-16 3 99.109 99.109 0 0 1-11.5-1 7.297 7.297 0 0 0-3.5 2 68.862 68.862 0 0 1-12.5-1 69.408 69.408 0 0 0-10.5 2c-3.676-1.265-7.342-.932-11 1a77.264 77.264 0 0 0-12-1l-7 2a391.994 391.994 0 0 1-39.5-1 37.138 37.138 0 0 1-4.5 2 676.613 676.613 0 0 0-50 0 326.915 326.915 0 0 1-12-2c-17.628.434-35.294.434-53 0-5.636-1.582-11.303-1.916-17-1l-8-2c-5.667-.335-11.167-.002-16.5 1a11.295 11.295 0 0 0-4-2 129.01 129.01 0 0 0-19 0l-1.5-1.5c-4.72-.221-9.387-.721-14-1.5-3.745 1.123-7.412.79-11-1a56.328 56.328 0 0 0-6.5 1c-6.64-2.347-13.473-3.014-20.5-2a37.234 37.234 0 0 1-10.5-3c-2.492 1.666-4.659 1.333-6.5-1-2.225.601-4.391.934-6.5 1-2.016-2.251-4.349-2.584-7-1-4.736-2.053-9.57-2.72-14.5-2l-4-2c-3.633-.15-7.3-.15-11 0-3.137-1.898-6.304-2.231-9.5-1a20.812 20.812 0 0 1-7.5-3 82.962 82.962 0 0 0-11.5 0c-.739-1.074-1.739-1.741-3-2-2.721-.388-5.554-.388-8.5 0-1.708-2.191-3.708-2.524-6-1-4.734-2.073-9.734-3.406-15-4-3.213-.437-6.546-.437-10 0-2.489-2.092-5.156-2.758-8-2a584.308 584.308 0 0 1-14.5-4c-2.017 1.206-3.851.873-5.5-1-3.064.861-5.898.194-8.5-2a3.647 3.647 0 0 1-1.5 1 300.715 300.715 0 0 1-19-5c-3.003-.803-6.17-.803-9.5 0-4.78-1.86-9.28-3.526-13.5-5-.793.431-1.627.765-2.5 1a164.313 164.313 0 0 0-11.5-4 28.146 28.146 0 0 1-6.5 0 14.815 14.815 0 0 1-5.5-3l-2 1c-3.636-1.418-6.97-3.084-10-5 18.74-30.59 42.073-57.423 70-80.5 81.467-66.572 173.633-88.072 276.5-64.5a51.825 51.825 0 0 0 10.5-1.5 206.032 206.032 0 0 1 31-9c35.716-1.511 71.05 1.489 106 9a1569.002 1569.002 0 0 1 140 41 65.419 65.419 0 0 0 13.5 1.5 199.01 199.01 0 0 1 29.5-.5 490.645 490.645 0 0 1 83 32c41.577 18.455 75.91 45.955 103 82.5z"/><path fill="#150d03" d="M689.5 518.5a87.092 87.092 0 0 0 6 28.5 684.785 684.785 0 0 1 50 12.5c-.774.647-1.774.98-3 1a1263.054 1263.054 0 0 0-48-12c-4.845-9.6-6.512-19.6-5-30z" opacity=".565"/><path fill="#1f1004" d="M125.5 521.5c.66 1.464.993 3.131 1 5-2.494 21.991-8.994 42.657-19.5 62-1.076 2.579-2.909 4.246-5.5 5a224.81 224.81 0 0 0 13.5-25 341.716 341.716 0 0 0 10.5-47z" opacity=".786"/><path fill="#885004" d="M851.5 612.5c1.527-.073 2.527.594 3 2-1.527.073-2.527-.594-3-2z" opacity=".09"/><path fill="#4d2908" d="M86.5 611.5c-1.62 3.328-4.287 6.328-8 9 1.93-3.6 4.597-6.6 8-9z" opacity=".353"/><path fill="#45270d" d="M894.5 646.5a373.142 373.142 0 0 1 32 33 605.087 605.087 0 0 0-21.5-20 78.504 78.504 0 0 1-10.5-13z"/><path fill="#fbc00e" d="M50.5 669.5c3.03 1.916 6.364 3.582 10 5l2-1a14.815 14.815 0 0 0 5.5 3c2.125.251 4.292.251 6.5 0a164.313 164.313 0 0 1 11.5 4 11.462 11.462 0 0 0 2.5-1c4.22 1.474 8.72 3.14 13.5 5 3.33-.803 6.497-.803 9.5 0 6.38 1.9 12.713 3.567 19 5a3.647 3.647 0 0 0 1.5-1c2.602 2.194 5.436 2.861 8.5 2 1.649 1.873 3.483 2.206 5.5 1a584.308 584.308 0 0 0 14.5 4c2.844-.758 5.511-.092 8 2 3.454-.437 6.787-.437 10 0 5.266.594 10.266 1.927 15 4 2.292-1.524 4.292-1.191 6 1 2.946-.388 5.779-.388 8.5 0 1.261.259 2.261.926 3 2 3.867-.266 7.7-.266 11.5 0a20.812 20.812 0 0 0 7.5 3c3.196-1.231 6.363-.898 9.5 1 3.7-.15 7.367-.15 11 0l4 2c4.93-.72 9.764-.053 14.5 2 2.651-1.584 4.984-1.251 7 1 2.109-.066 4.275-.399 6.5-1 1.841 2.333 4.008 2.666 6.5 1a37.234 37.234 0 0 0 10.5 3c7.027-1.014 13.86-.347 20.5 2a56.328 56.328 0 0 1 6.5-1c3.588 1.79 7.255 2.123 11 1 4.613.779 9.28 1.279 14 1.5l1.5 1.5a129.01 129.01 0 0 1 19 0 11.295 11.295 0 0 1 4 2c5.333-1.002 10.833-1.335 16.5-1l8 2c5.697-.916 11.364-.582 17 1 17.706.434 35.372.434 53 0 3.973.739 7.973 1.405 12 2a676.613 676.613 0 0 1 50 0 37.138 37.138 0 0 0 4.5-2 391.994 391.994 0 0 0 39.5 1l7-2c4.07.025 8.07.358 12 1 3.658-1.932 7.324-2.265 11-1a69.408 69.408 0 0 1 10.5-2 68.862 68.862 0 0 0 12.5 1 7.297 7.297 0 0 1 3.5-2c3.861.561 7.694.894 11.5 1a82.62 82.62 0 0 1 16-3c2.908.907 5.742.573 8.5-1 2.432-.023 4.932.31 7.5 1a4.457 4.457 0 0 0 2-1.5c4.029-.303 8.029-.803 12-1.5a95.943 95.943 0 0 1 17 0 201.497 201.497 0 0 1 18.5-4c2.297.039 4.63.372 7 1 2.434-1.523 5.101-2.523 8-3 4.535-.512 9.201-.512 14 0a66.678 66.678 0 0 1 5.5-2c1.663 1.375 2.997 1.042 4-1 2.248.878 4.415.545 6.5-1 4.209.452 8.376.452 12.5 0 1.708-2.191 3.708-2.524 6-1a54.186 54.186 0 0 1 13.5-4l5 1c4.332-1.434 8.999-2.767 14-4a80.851 80.851 0 0 1 8.5 0 7.293 7.293 0 0 1 3-2c3.052.281 6.052.281 9 0a9.258 9.258 0 0 1 2.5-2c2.679-.025 5.346-.025 8 0 1.194-2.025 2.694-2.359 4.5-1 3.474-1.562 7.14-2.395 11-2.5 1.829-.273 3.329-1.107 4.5-2.5a4.933 4.933 0 0 0 2.5 1 71.088 71.088 0 0 1 9-3 4.933 4.933 0 0 1 2.5 1c1.941-2.042 4.108-2.708 6.5-2a133.498 133.498 0 0 1 16-3.5l1.5-1.5c1.461 1.383 2.294 1.049 2.5-1a549.095 549.095 0 0 1 50 74c.107 1.879-.393 2.212-1.5 1-118.605 27.294-237.771 43.627-357.5 49a951.823 951.823 0 0 0-40 3 798.034 798.034 0 0 0-27.5-1 261.002 261.002 0 0 1-42.5 2l-17-2c-14.999.247-29.999.58-45 1a7867.047 7867.047 0 0 0-68-5 68.162 68.162 0 0 0-11.5 1 120.104 120.104 0 0 0-20.5-3 12.906 12.906 0 0 0-4 1 2130.054 2130.054 0 0 1-43-5c-39.366-3.233-79.199-8.233-119.5-15-1.587 1.227-2.921.894-4-1l-1 1a4398.485 4398.485 0 0 1-147.5-28v-4a186.127 186.127 0 0 1 5.5-18c7.917-21.838 18.417-42.172 31.5-61z"/><path fill="#f7bc0e" d="M13.5 748.5v4a4398.485 4398.485 0 0 0 147.5 28l1-1c1.079 1.894 2.413 2.227 4 1 40.301 6.767 80.134 11.767 119.5 15a2130.054 2130.054 0 0 0 43 5 12.906 12.906 0 0 1 4-1 120.104 120.104 0 0 1 20.5 3 68.162 68.162 0 0 1 11.5-1 7867.047 7867.047 0 0 1 68 5 3905.66 3905.66 0 0 1 45-1l17 2a261.002 261.002 0 0 0 42.5-2c8.967.168 18.134.501 27.5 1a951.823 951.823 0 0 1 40-3c119.729-5.373 238.895-21.706 357.5-49 1.107 1.212 1.607.879 1.5-1a1495.699 1495.699 0 0 1 36 64c-8.002 1.979-16.335 4.312-25 7l-2-1c-38.43 8.632-77.43 15.799-117 21.5-.825 1.688-1.825 1.855-3 .5a53.793 53.793 0 0 1-16 2c-16.628-13.408-35.628-18.241-57-14.5-16.717 3.35-29.05 12.517-37 27.5a392.51 392.51 0 0 0-32 4 11.25 11.25 0 0 0-3.5-1 119.456 119.456 0 0 0-20.5 3c-4.085-1.211-8.085-.878-12 1a108.166 108.166 0 0 0-10.5-1 109.636 109.636 0 0 1-6.5 2c-2.553-.445-5.22-.445-8 0-22.341-31.516-52.007-41.016-89-28.5a175.46 175.46 0 0 0-22 12c-2.154 1.32-3.654 3.153-4.5 5.5a50.5 50.5 0 0 0-1.5 15 110.383 110.383 0 0 0-11 2 2608.826 2608.826 0 0 0-93-1c-4.797-17.298-15.463-29.464-32-36.5-18.601-6.934-37.601-8.267-57-4-6.812 10.936-11.145 22.769-13 35.5-70.925-4.603-142.258-12.269-214-23a64.349 64.349 0 0 0-10.5 0 233.055 233.055 0 0 0-12-4 59.199 59.199 0 0 1-10.5 0 615.803 615.803 0 0 0-21-5c-1.663 1.375-2.997 1.042-4-1l-2 1a603.53 603.53 0 0 1-40-7c.638-9.395-.029-18.395-2-27v-43c.426-3.927 1.426-7.593 3-11z"/><path fill="#f1b80d" d="M10.5 759.5v43a400.505 400.505 0 0 0 4.5 67c.318 1.561 1.15 2.728 2.5 3.5 101.846 16.411 204.679 27.578 308.5 33.5a4.934 4.934 0 0 0 .5-3c.85 8.512 1.683 17.179 2.5 26 11.92 13.877 26.753 23.044 44.5 27.5 23.648 1.254 40.481-8.912 50.5-30.5 7.974-17.201 9.474-34.868 4.5-53 30.831-.221 61.831.112 93 1a110.383 110.383 0 0 1 11-2c.357 32.246 10.69 60.746 31 85.5 23.463 1.939 46.463-.394 69-7 9.914-3.622 18.914-8.789 27-15.5 4.479-23.589 1.145-45.922-10-67 2.78-.445 5.447-.445 8 0a109.636 109.636 0 0 0 6.5-2c3.461.157 6.961.491 10.5 1 3.915-1.878 7.915-2.211 12-1a119.456 119.456 0 0 1 20.5-3 11.25 11.25 0 0 1 3.5 1 392.51 392.51 0 0 1 32-4c-11.188 33.965-6.021 65.299 15.5 94 23.91 25.477 49.076 26.644 75.5 3.5 7.872-6.847 13.705-15.013 17.5-24.5 4.222-15.741 5.555-31.741 4-48-2.712-14.422-8.879-27.089-18.5-38a53.793 53.793 0 0 0 16-2c1.175 1.355 2.175 1.188 3-.5 39.57-5.701 78.57-12.868 117-21.5l2 1c8.665-2.688 16.998-5.021 25-7a521.45 521.45 0 0 1 15 27c-5.93 62.062-34.931 109.896-87 143.5-26.645 15.21-55.312 22.88-86 23-110.167.17-220.333.33-330.5.5-116.51.15-233.01-.35-349.5-1.5C93.555 999.716 46.388 962.883 20 899.5c-8.834-23.163-12.834-47.163-12-72-.5-18.664-.667-37.33-.5-56 .398-4.261 1.398-8.261 3-12z"/><path fill="#f4ba0d" d="M10.5 802.5c1.971 8.605 2.638 17.605 2 27a603.53 603.53 0 0 0 40 7l2-1c1.003 2.042 2.337 2.375 4 1a615.803 615.803 0 0 1 21 5c3.467.311 6.967.311 10.5 0a233.055 233.055 0 0 1 12 4 64.349 64.349 0 0 1 10.5 0c71.742 10.731 143.075 18.397 214 23v35a4.934 4.934 0 0 1-.5 3c-103.821-5.922-206.654-17.089-308.5-33.5-1.35-.772-2.182-1.939-2.5-3.5a400.505 400.505 0 0 1-4.5-67z"/><path fill="#d8a50b" d="M4.5 789.5c-7.8 48.582-.3 94.582 22.5 138 25.243 40.204 60.743 67.371 106.5 81.5a927.088 927.088 0 0 0 39 6c225.667.67 451.333.67 677 0 75.696-5.6 128.196-43.435 157.5-113.5a201.549 201.549 0 0 0 11.5-49c.67 0 1 .333 1 1-6.03 56.585-32.033 101.418-78 134.5-26.047 17.35-54.714 27.35-86 30-229.667.67-459.333.67-689 0-67.192-7.89-116.359-41.724-147.5-101.5a287.492 287.492 0 0 1-18-63c-.198 1.882-.698 3.548-1.5 5v-48c1.466-.847 2.3-2.18 2.5-4 .21-5.9 1.044-11.566 2.5-17z"/><path fill="#231f1f" d="M428.5 873.5c4.974 18.132 3.474 35.799-4.5 53-10.019 21.588-26.852 31.754-50.5 30.5-17.747-4.456-32.58-13.623-44.5-27.5-.817-8.821-1.65-17.488-2.5-26v-35c1.855-12.731 6.188-24.564 13-35.5 19.399-4.267 38.399-2.934 57 4 16.537 7.036 27.203 19.202 32 36.5z"/><path fill="#221e1e" d="M836.5 847.5c9.621 10.911 15.788 23.578 18.5 38 1.555 16.259.222 32.259-4 48-3.795 9.487-9.628 17.653-17.5 24.5-26.424 23.144-51.59 21.977-75.5-3.5-21.521-28.701-26.688-60.035-15.5-94 7.95-14.983 20.283-24.15 37-27.5 21.372-3.741 40.372 1.092 57 14.5z"/><path fill="#231f1e" d="M649.5 868.5c11.145 21.078 14.479 43.411 10 67-8.086 6.711-17.086 11.878-27 15.5-22.537 6.606-45.537 8.939-69 7-20.31-24.754-30.643-53.254-31-85.5a50.5 50.5 0 0 1 1.5-15c.846-2.347 2.346-4.18 4.5-5.5a175.46 175.46 0 0 1 22-12c36.993-12.516 66.659-3.016 89 28.5z"/><path fill="#ce9d0b" d="M1019.5 853.5a22.784 22.784 0 0 0 4 5v165H-.5v-165c.802-1.452 1.302-3.118 1.5-5a287.492 287.492 0 0 0 18 63c31.141 59.776 80.308 93.61 147.5 101.5 229.667.67 459.333.67 689 0 31.286-2.65 59.953-12.65 86-30 45.967-33.082 71.97-77.915 78-134.5z"/><path fill="#e7b00c" d="M7.5 771.5c-.167 18.67 0 37.336.5 56-.834 24.837 3.166 48.837 12 72 26.388 63.383 73.555 100.216 141.5 110.5 116.49 1.15 232.99 1.65 349.5 1.5 110.167-.17 220.333-.33 330.5-.5 30.688-.12 59.355-7.79 86-23 52.069-33.604 81.07-81.438 87-143.5 1.84 2.349 3.17 5.015 4 8a201.549 201.549 0 0 1-11.5 49c-29.304 70.065-81.804 107.9-157.5 113.5-225.667.67-451.333.67-677 0a927.088 927.088 0 0 1-39-6C87.743 994.871 52.243 967.704 27 927.5c-22.8-43.418-30.3-89.418-22.5-138 .156-6.267 1.156-12.267 3-18z"/><path fill="#9e8460" d="M790.5 850.5c20.123-2.92 35.956 3.747 47.5 20 4.233 7.833 5.9 16.166 5 25-10.071 14.409-22.905 25.575-38.5 33.5-13.947 4.497-27.947 4.664-42 .5.169-6.681 2.336-12.681 6.5-18 .667-3 .667-6 0-9-1.388-1.054-2.888-1.22-4.5-.5a100.657 100.657 0 0 1-9 10c-3.267 1.82-6.6 1.986-10 .5-2.714-33.609 12.286-54.275 45-62z"/><path fill="#9f8561" d="M577.5 849.5c19.306-2.956 35.139 3.044 47.5 18 10.554 21.736 4.054 35.902-19.5 42.5-10.466 2.482-20.966 2.982-31.5 1.5a160.03 160.03 0 0 0-22-31 72.698 72.698 0 0 1-6.5-13.5c9.166-8.686 19.833-14.519 32-17.5z"/><path fill="#9f8560" d="M383.5 848.5c17.918.409 26.084 9.409 24.5 27a96.003 96.003 0 0 0-5 25 56.927 56.927 0 0 1-17 3 234.768 234.768 0 0 0-34.5-2 112.97 112.97 0 0 0-.5-15 312.858 312.858 0 0 1-6-19 30.485 30.485 0 0 1 0-11 262.815 262.815 0 0 0 38.5-8z"/><path fill="#9d835f" d="M423.5 906.5c1.248.834 1.915 2.167 2 4-.401 4.703-1.901 9.036-4.5 13a214.41 214.41 0 0 0-11.5 16c-15.186 2.999-30.186 2.166-45-2.5-11.434-4.261-17.767-12.428-19-24.5a2819.329 2819.329 0 0 0 28 3.5c13.229.938 26.229-.396 39-4 4.038-1.352 7.705-3.186 11-5.5z"/><path fill="#9d835e" d="M642.5 906.5c.666 4.655.999 9.488 1 14.5-.03 5.25-.696 10.25-2 15-23.407 9.094-47.407 11.428-72 7-8.562-3.289-11.729-9.455-9.5-18.5a32.5 32.5 0 0 1 3-7c10.06 10.559 22.227 14.059 36.5 10.5 16.323-3.495 30.656-10.661 43-21.5z"/><path fill="#9c825d" d="M836.5 923.5c1.143 2.568.976 5.235-.5 8-7.948 14.244-20.115 22.744-36.5 25.5-12.683 2.394-24.35.061-35-7-3.098-2.428-5.431-5.428-7-9a576.316 576.316 0 0 0 27 3.5c20.153-.422 37.486-7.422 52-21z"/></svg>