<?xml version="1.0" encoding="UTF-8" standalone="no"?>
<!DOCTYPE svg PUBLIC "-//W3C//DTD SVG 1.1//EN" "http://www.w3.org/Graphics/SVG/1.1/DTD/svg11.dtd">
<!-- Created with Vectornator (http://vectornator.io/) -->
<svg height="100%" stroke-miterlimit="10" style="fill-rule:nonzero;clip-rule:evenodd;stroke-linecap:round;stroke-linejoin:round;" version="1.1" viewBox="0 0 300 300" width="100%" xml:space="preserve" xmlns="http://www.w3.org/2000/svg" xmlns:vectornator="http://vectornator.io" xmlns:xlink="http://www.w3.org/1999/xlink">
<defs>
<linearGradient gradientTransform="matrix(151.423 102.36 -102.36 151.423 138.146 119.294)" gradientUnits="userSpaceOnUse" id="LinearGradient" x1="0" x2="1" y1="0" y2="0">
<stop offset="0" stop-color="#ffffff"/>
<stop offset="1" stop-color="#595959" stop-opacity="0.275779"/>
</linearGradient>
<linearGradient gradientTransform="matrix(189.668 51.2012 -51.2012 189.668 152.669 193.803)" gradientUnits="userSpaceOnUse" id="LinearGradient_2" x1="0" x2="1" y1="0" y2="0">
<stop offset="0" stop-color="#ffffff"/>
<stop offset="0.997368" stop-color="#595959" stop-opacity="0.270983"/>
</linearGradient>
</defs>
<g id="Layer">
<g opacity="1">
<path d="M222.092 5.08263C218.814 4.91701 215.422 5.03314 211.932 5.36881C207.943 5.75243 203.855 6.38177 199.626 7.44366C139.079 22.646 94.9416 129.13 119.923 204.984C124.786 219.75 134.869 242.588 138.323 245.856C126.697 252.394 114.395 255.854 102.537 255.854C77.7038 255.854 54.7601 237.469 46.3733 211.351C62.2687 221.836 79.1155 229.194 95.0963 231.599C106.832 233.124 115.548 224.506 116.346 212.997C117.177 203.623 110.883 194.711 101.106 193.179C83.297 190.16 62.9872 178.731 51.5246 165.633C44.394 157.504 37.0047 153.613 27.6995 153.613C12.9189 153.613 4.80464 164.476 4.80463 184.235C4.80463 250.732 45.253 295.437 101.75 295.061C120.259 295.061 140.743 286.682 160.96 274.291C172.893 285.722 187.32 293.772 204.276 293.772C236.603 293.772 270.249 265.431 291.921 223.729C293.435 220.881 294.14 217.671 294.14 214.285C294.14 204.951 286.919 197.113 277.683 197.113C269.574 197.113 265.292 202.082 259.94 212.925C246.548 238.589 226.855 253.097 208.482 253.097C208.482 253.097 203.912 252.55 198.029 247.795L207.424 235.177C207.447 235.15 207.424 235.177 207.424 235.177C257.421 174.916 285.648 89.7903 269.956 42.1437C263.859 23.6283 251.081 11.3969 234.091 6.91241C230.293 5.90983 226.284 5.29445 222.092 5.08263ZM212.576 42.3585C216.577 43.1016 220.084 46.6897 222.592 54.3066C234.991 91.9529 211.842 163.414 173.726 213.598C173.726 213.598 169.566 199.811 167.358 193.107C157.957 164.563 160.383 128.798 172.009 95.6605C182.076 66.9654 197.926 45.1379 208.426 42.5013C209.856 42.1424 211.242 42.1105 212.576 42.3585Z" fill="url(#LinearGradient)" fill-rule="nonzero" opacity="1" stroke="none"/>
<path d="M222.306 5.01108C219.028 4.84547 215.636 4.9616 212.146 5.29727C208.158 5.68089 204.07 6.31023 199.84 7.37211C139.294 22.5745 94.9416 129.13 119.923 204.984C121.539 209.89 127.748 228.62 138.323 245.856C147.269 260.435 160.96 274.291 160.96 274.291C172.893 285.722 187.32 293.772 204.276 293.772C236.603 293.772 271.305 263.675 292.979 221.973C294.492 219.126 295.198 215.916 295.195 212.529C295.195 203.196 287.977 195.358 278.741 195.358C270.631 195.358 266.348 200.327 260.997 211.17C247.606 236.833 226.855 253.097 208.482 253.097C207.146 253.097 203.058 251.508 198.029 247.795C193.421 244.393 188.023 239.207 183.232 231.825C173.216 216.389 168.817 199.945 167.358 193.107C157.751 148.085 161.44 127.043 173.066 93.9052C183.071 65.3875 197.926 45.3573 208.426 42.5013C212.588 33.6809 217.262 25.6442 222.807 18.9627C226.652 14.3289 230.892 10.6185 235.328 7.37211C231.257 6.06642 226.942 5.24529 222.306 5.01108Z" fill="url(#LinearGradient_2)" fill-rule="nonzero" opacity="1" stroke="none"/>
</g>
</g>
</svg>
