<svg viewBox="0 0 128 128" xmlns="http://www.w3.org/2000/svg"><path d="M127.5 87.1c0 3.5-2.84 6.34-6.34 6.34H8.25c-3.5 0-6.34-2.84-6.34-6.34V39.25c0-3.5 2.84-6.34 6.34-6.34h112.9c3.5 0 6.34 2.84 6.34 6.34v48z" fill="none" stroke="#435b60" stroke-linecap="round" stroke-linejoin="round" stroke-width="2"/><path d="M126 85.67c0 3.5-2.84 6.34-6.34 6.34H7.25c-3.5 0-6.34-2.84-6.34-6.34V38.4c0-3.5 2.84-6.34 6.34-6.34h112.9c3.5 0 6.34 2.84 6.34 6.34v27.27z" fill="none" stroke="#78a3ad" stroke-linecap="round" stroke-linejoin="round" stroke-width="2"/><path d="M16.72 55.88c0 1.08-.88 1.96-1.96 1.96H8.89c-1.08 0-1.96-.88-1.96-1.96v-5.87c0-1.08.88-1.96 1.96-1.96h5.87c1.08 0 1.96.88 1.96 1.96zm12.91 0c0 1.08-.88 1.96-1.96 1.96H21.8c-1.08 0-1.96-.88-1.96-1.96v-5.87c0-1.08.88-1.96 1.96-1.96h5.87c1.08 0 1.96.88 1.96 1.96zm12.9 0c0 1.08-.88 1.96-1.96 1.96H34.7c-1.08 0-1.96-.88-1.96-1.96v-5.87c0-1.08.88-1.96 1.96-1.96h5.87c1.08 0 1.96.88 1.96 1.96zm12.9 0c0 1.08-.88 1.96-1.96 1.96H47.6c-1.08 0-1.96-.88-1.96-1.96v-5.87c0-1.08.88-1.96 1.96-1.96h5.87c1.08 0 1.96.88 1.96 1.96zm12.91 0c0 1.08-.88 1.96-1.96 1.96h-5.87c-1.08 0-1.96-.88-1.96-1.96v-5.87c0-1.08.88-1.96 1.96-1.96h5.87c1.08 0 1.96.88 1.96 1.96zm12.9 0c0 1.08-.88 1.96-1.96 1.96h-5.87c-1.08 0-1.96-.88-1.96-1.96v-5.87c0-1.08.88-1.96 1.96-1.96h5.87c1.08 0 1.96.88 1.96 1.96zm12.91 0c0 1.08-.88 1.96-1.96 1.96h-5.87c-1.08 0-1.96-.88-1.96-1.96v-5.87c0-1.08.88-1.96 1.96-1.96h5.87c1.08 0 1.96.88 1.96 1.96zm12.9 0c0 1.08-.88 1.96-1.96 1.96h-5.87c-1.08 0-1.96-.88-1.96-1.96v-5.87c0-1.08.88-1.96 1.96-1.96h5.87c1.08 0 1.96.88 1.96 1.96zm12.9 0c0 1.08-.88 1.96-1.96 1.96h-5.87c-1.08 0-1.96-.88-1.96-1.96v-5.87c0-1.08.88-1.96 1.96-1.96H118c1.08 0 1.96.88 1.96 1.96v5.87zM16.72 69.65c0 1.08-.88 1.96-1.96 1.96H8.89c-1.08 0-1.96-.88-1.96-1.96v-5.87c0-1.08.88-1.96 1.96-1.96h5.87c1.08 0 1.96.88 1.96 1.96zm12.91 0c0 1.08-.88 1.96-1.96 1.96H21.8c-1.08 0-1.96-.88-1.96-1.96v-5.87c0-1.08.88-1.96 1.96-1.96h5.87c1.08 0 1.96.88 1.96 1.96zm12.9 0c0 1.08-.88 1.96-1.96 1.96H34.7c-1.08 0-1.96-.88-1.96-1.96v-5.87c0-1.08.88-1.96 1.96-1.96h5.87c1.08 0 1.96.88 1.96 1.96zm12.9 0c0 1.08-.88 1.96-1.96 1.96H47.6c-1.08 0-1.96-.88-1.96-1.96v-5.87c0-1.08.88-1.96 1.96-1.96h5.87c1.08 0 1.96.88 1.96 1.96zm12.91 0c0 1.08-.88 1.96-1.96 1.96h-5.87c-1.08 0-1.96-.88-1.96-1.96v-5.87c0-1.08.88-1.96 1.96-1.96h5.87c1.08 0 1.96.88 1.96 1.96zm12.9 0c0 1.08-.88 1.96-1.96 1.96h-5.87c-1.08 0-1.96-.88-1.96-1.96v-5.87c0-1.08.88-1.96 1.96-1.96h5.87c1.08 0 1.96.88 1.96 1.96zm12.91 0c0 1.08-.88 1.96-1.96 1.96h-5.87c-1.08 0-1.96-.88-1.96-1.96v-5.87c0-1.08.88-1.96 1.96-1.96h5.87c1.08 0 1.96.88 1.96 1.96zm25.8 0c0 1.08-.88 1.96-1.96 1.96H99.22c-1.08 0-1.96-.88-1.96-1.96v-5.87c0-1.08.88-1.96 1.96-1.96H118c1.08 0 1.96.88 1.96 1.96v5.87zM16.72 83.43c0 1.08-.88 1.96-1.96 1.96H8.89c-1.08 0-1.96-.88-1.96-1.96v-5.87c0-1.08.88-1.96 1.96-1.96h5.87c1.08 0 1.96.88 1.96 1.96zm12.91 0c0 1.08-.88 1.96-1.96 1.96H21.8c-1.08 0-1.96-.88-1.96-1.96v-5.87c0-1.08.88-1.96 1.96-1.96h5.87c1.08 0 1.96.88 1.96 1.96zm64.52 0c0 1.08-.88 1.96-1.96 1.96H34.7c-1.08 0-1.96-.88-1.96-1.96v-5.87c0-1.08.88-1.96 1.96-1.96h57.49c1.08 0 1.96.88 1.96 1.96zm12.9 0c0 1.08-.88 1.96-1.96 1.96h-5.87c-1.08 0-1.96-.88-1.96-1.96v-5.87c0-1.08.88-1.96 1.96-1.96h5.87c1.08 0 1.96.88 1.96 1.96zm12.9 0c0 1.08-.88 1.96-1.96 1.96h-5.87c-1.08 0-1.96-.88-1.96-1.96v-5.87c0-1.08.88-1.96 1.96-1.96H118c1.08 0 1.96.88 1.96 1.96v5.87zM16.72 42.17c0 1.08-.88 1.96-1.96 1.96H8.89c-1.08 0-1.96-.88-1.96-1.96v-1.96c0-1.08.88-1.96 1.96-1.96h5.87c1.08 0 1.96.88 1.96 1.96zm12.91 0c0 1.08-.88 1.96-1.96 1.96H21.8c-1.08 0-1.96-.88-1.96-1.96v-1.96c0-1.08.88-1.96 1.96-1.96h5.87c1.08 0 1.96.88 1.96 1.96zm12.9 0c0 1.08-.88 1.96-1.96 1.96H34.7c-1.08 0-1.96-.88-1.96-1.96v-1.96c0-1.08.88-1.96 1.96-1.9" fill="#333939"/><path d="M15.94 55.1c0 1.08-.88 1.96-1.96 1.96H8.11c-1.08 0-1.96-.88-1.96-1.96v-5.87c0-1.08.88-1.96 1.96-1.96h5.87c1.08 0 1.96.88 1.96 1.96zm12.9 0c0 1.08-.88 1.96-1.96 1.96h-5.87c-1.08 0-1.96-.88-1.96-1.96v-5.87c0-1.08.88-1.96 1.96-1.96h5.87c1.08 0 1.96.88 1.96 1.96zm12.91 0c0 1.08-.88 1.96-1.96 1.96h-5.87c-1.08 0-1.96-.88-1.96-1.96v-5.87c0-1.08.88-1.96 1.96-1.96h5.87c1.08 0 1.96.88 1.96 1.96zm12.9 0c0 1.08-.88 1.96-1.96 1.96h-5.87c-1.08 0-1.96-.88-1.96-1.96v-5.87c0-1.08.88-1.96 1.96-1.96h5.87c1.08 0 1.96.88 1.96 1.96zm12.91 0c0 1.08-.88 1.96-1.96 1.96h-5.87c-1.08 0-1.96-.88-1.96-1.96v-5.87c0-1.08.88-1.96 1.96-1.96h5.87c1.08 0 1.96.88 1.96 1.96zm12.9 0c0 1.08-.88 1.96-1.96 1.96h-5.87c-1.08 0-1.96-.88-1.96-1.96v-5.87c0-1.08.88-1.96 1.96-1.96h5.87c1.08 0 1.96.88 1.96 1.96zm12.9 0c0 1.08-.88 1.96-1.96 1.96h-5.87c-1.08 0-1.96-.88-1.96-1.96v-5.87c0-1.08.88-1.96 1.96-1.96h5.87c1.08 0 1.96.88 1.96 1.96zm12.91 0c0 1.08-.88 1.96-1.96 1.96h-5.87c-1.08 0-1.96-.88-1.96-1.96v-5.87c0-1.08.88-1.96 1.96-1.96h5.87c1.08 0 1.96.88 1.96 1.96zm12.9 0c0 1.08-.88 1.96-1.96 1.96h-5.87c-1.08 0-1.96-.88-1.96-1.96v-5.87c0-1.08.88-1.96 1.96-1.96h5.87c1.08 0 1.96.88 1.96 1.96zM15.94 68.87c0 1.08-.88 1.96-1.96 1.96H8.11c-1.08 0-1.96-.88-1.96-1.96V63c0-1.08.88-1.96 1.96-1.96h5.87c1.08 0 1.96.88 1.96 1.96zm12.9 0c0 1.08-.88 1.96-1.96 1.96h-5.87c-1.08 0-1.96-.88-1.96-1.96V63c0-1.08.88-1.96 1.96-1.96h5.87c1.08 0 1.96.88 1.96 1.96zm12.91 0c0 1.08-.88 1.96-1.96 1.96h-5.87c-1.08 0-1.96-.88-1.96-1.96V63c0-1.08.88-1.96 1.96-1.96h5.87c1.08 0 1.96.88 1.96 1.96zm12.9 0c0 1.08-.88 1.96-1.96 1.96h-5.87c-1.08 0-1.96-.88-1.96-1.96V63c0-1.08.88-1.96 1.96-1.96h5.87c1.08 0 1.96.88 1.96 1.96zm12.91 0c0 1.08-.88 1.96-1.96 1.96h-5.87c-1.08 0-1.96-.88-1.96-1.96V63c0-1.08.88-1.96 1.96-1.96h5.87c1.08 0 1.96.88 1.96 1.96zm12.9 0c0 1.08-.88 1.96-1.96 1.96h-5.87c-1.08 0-1.96-.88-1.96-1.96V63c0-1.08.88-1.96 1.96-1.96h5.87c1.08 0 1.96.88 1.96 1.96zm12.9 0c0 1.08-.88 1.96-1.96 1.96h-5.87c-1.08 0-1.96-.88-1.96-1.96V63c0-1.08.88-1.96 1.96-1.96h5.87c1.08 0 1.96.88 1.96 1.96zm25.81 0c0 1.08-.88 1.96-1.96 1.96H98.44c-1.08 0-1.96-.88-1.96-1.96V63c0-1.08.88-1.96 1.96-1.96h18.78c1.08 0 1.96.88 1.96 1.96v5.87zM15.94 82.65c0 1.08-.88 1.96-1.96 1.96H8.11c-1.08 0-1.96-.88-1.96-1.96v-5.87c0-1.08.88-1.96 1.96-1.96h5.87c1.08 0 1.96.88 1.96 1.96zm12.9 0c0 1.08-.88 1.96-1.96 1.96h-5.87c-1.08 0-1.96-.88-1.96-1.96v-5.87c0-1.08.88-1.96 1.96-1.96h5.87c1.08 0 1.96.88 1.96 1.96zm64.52 0c0 1.08-.88 1.96-1.96 1.96H33.92c-1.08 0-1.96-.88-1.96-1.96v-5.87c0-1.08.88-1.96 1.96-1.96h57.49c1.08 0 1.96.88 1.96 1.96v5.87zm12.91 0c0 1.08-.88 1.96-1.96 1.96h-5.87c-1.08 0-1.96-.88-1.96-1.96v-5.87c0-1.08.88-1.96 1.96-1.96h5.87c1.08 0 1.96.88 1.96 1.96zm12.9 0c0 1.08-.88 1.96-1.96 1.96h-5.87c-1.08 0-1.96-.88-1.96-1.96v-5.87c0-1.08.88-1.96 1.96-1.96h5.87c1.08 0 1.96.88 1.96 1.96zM15.94 41.39c0 1.08-.88 1.96-1.96 1.96H8.11c-1.08 0-1.96-.88-1.96-1.96v-1.96c0-1.08.88-1.96 1.96-1.96h5.87c1.08 0 1.96.88 1.96 1.96zm12.9 0c0 1.08-.88 1.96-1.96 1.96h-5.87c-1.08 0-1.96-.88-1.96-1.96v-1.96c0-1.08.88-1.96 1.96-1.96h5.87c1.08 0 1.96.88 1.96 1.96zm12.91 0c0 1.08-.88 1.96-1.96 1.96h-5.87c-1.08 0-1.96-.88-1.96-1.96v-1.96c0-1.08.88-1.96 1.96-1.96h5.87c1.08 0 1.96.88 1.96 1.96zm12.9 0c0 1.08-.88 1.96-1.96 1.96h-5.87c-1.08 0-1.96-.88-1.96-1.96v-1.96c0-1.08.88-1.96 1.96-1.96h5.87c1.08 0 1.96.88 1.96 1.96zm12.91 0c0 1.08-.88 1.96-1.96 1.96h-5.87c-1.08 0-1.96-.88-1.96-1.96v-1.96c0-1.08.88-1.96 1.96-1.96h5.87c1.08 0 1.96.88 1.96 1.96zm12.9 0c0 1.08-.88 1.96-1.96 1.96h-5.87c-1.08 0-1.96-.88-1.96-1.96v-1.96c0-1.08.88-1.96 1.96-1.96h5.87c1.08 0 1.96.88 1.96 1.96zm12.9 0c0 1.08-.88 1.96-1.96 1.96h-5.87c-1.08 0-1.96-.88-1.96-1.96v-1.96c0-1.08.88-1.96 1.96-1.96h5.87c1.08 0 1.96.88 1.96 1.96zm12.91 0c0 1.08-.88 1.96-1.96 1.96h-5.87c-1.08 0-1.96-.88-1.96-1.96v-1.96c0-1.08.88-1.96 1.96-1.96h5.87c1.08 0 1.96.88 1.96 1.96zm12.9 0c0 1.08-.88 1.96-1.96 1.96h-5.87c-1.08 0-1.96-.88-1.96-1.96v-1.96c0-1.08.88-1.96 1.96-1.96h5.87c1.08 0 1.96.88 1.96 1.96z" fill="#efefef"/></svg>