<svg height="100%" stroke-miterlimit="10" style="fill-rule:nonzero;clip-rule:evenodd;stroke-linecap:round;stroke-linejoin:round;" version="1.1" viewBox="-0.0787331 1.28699 98.8491 98.8491" width="100%" xml:space="preserve" xmlns="http://www.w3.org/2000/svg" xmlns:vectornator="http://vectornator.io" xmlns:xlink="http://www.w3.org/1999/xlink">
<defs>
<filter color-interpolation-filters="sRGB" filterUnits="userSpaceOnUse" height="98.8491" id="Filter" width="98.8491" x="-0.0787331" y="1.28699">
<feDropShadow dx="-0.6542" dy="0.711518" flood-color="#000000" flood-opacity="0.45" in="SourceGraphic" result="Shadow" stdDeviation="0.977806"/>
</filter>
</defs>
<clipPath id="ArtboardFrame">
<rect height="98.8491" width="98.8491" x="-0.0787331" y="1.28699"/>
</clipPath>
<g clip-path="url(#ArtboardFrame)" id="Layer" layerName="Layer">
<g opacity="1" layerName="Group 3">
<path d="M12.416 59.396L87.584 59.396L87.584 12.416L12.416 12.416L12.416 59.396ZM73.49 17.114L82.886 17.114L82.886 26.51L73.49 26.51L73.49 17.114ZM73.49 31.208L82.886 31.208L82.886 40.604L73.49 40.604L73.49 31.208ZM59.396 17.114L68.792 17.114L68.792 26.51L59.396 26.51L59.396 17.114ZM59.396 31.208L68.792 31.208L68.792 40.604L59.396 40.604L59.396 31.208ZM45.302 17.114L54.698 17.114L54.698 26.51L45.302 26.51L45.302 17.114ZM45.302 31.208L54.698 31.208L54.698 40.604L45.302 40.604L45.302 31.208ZM31.208 17.114L40.604 17.114L40.604 26.51L31.208 26.51L31.208 17.114ZM31.208 31.208L40.604 31.208L40.604 40.604L31.208 40.604L31.208 31.208ZM31.208 45.302L68.792 45.302L68.792 54.698L31.208 54.698L31.208 45.302ZM17.114 17.114L26.51 17.114L26.51 26.51L17.114 26.51L17.114 17.114ZM17.114 31.208L26.51 31.208L26.51 40.604L17.114 40.604L17.114 31.208Z" fill="#FFCC02" fill-opacity="0.315511" fill-rule="nonzero" opacity="1" stroke="none" layerName="path 4"/>
<path d="M87.584 3.01998L12.416 3.01998C7.24818 3.01998 3.06696 7.24818 3.06696 12.416L3.01998 59.396C3.01998 64.5638 7.24818 68.792 12.416 68.792L87.584 68.792C92.7518 68.792 96.98 64.5638 96.98 59.396L96.98 12.416C96.98 7.24818 92.7518 3.01998 87.584 3.01998ZM87.584 59.396L12.416 59.396L12.416 12.416L87.584 12.416L87.584 59.396ZM45.302 17.114L54.698 17.114L54.698 26.51L45.302 26.51L45.302 17.114ZM45.302 31.208L54.698 31.208L54.698 40.604L45.302 40.604L45.302 31.208ZM31.208 17.114L40.604 17.114L40.604 26.51L31.208 26.51L31.208 17.114ZM31.208 31.208L40.604 31.208L40.604 40.604L31.208 40.604L31.208 31.208ZM17.114 31.208L26.51 31.208L26.51 40.604L17.114 40.604L17.114 31.208ZM17.114 17.114L26.51 17.114L26.51 26.51L17.114 26.51L17.114 17.114ZM31.208 45.302L68.792 45.302L68.792 54.698L31.208 54.698L31.208 45.302ZM59.396 31.208L68.792 31.208L68.792 40.604L59.396 40.604L59.396 31.208ZM59.396 17.114L68.792 17.114L68.792 26.51L59.396 26.51L59.396 17.114ZM73.49 31.208L82.886 31.208L82.886 40.604L73.49 40.604L73.49 31.208ZM73.49 17.114L82.886 17.114L82.886 26.51L73.49 26.51L73.49 17.114ZM50 96.98L68.792 78.188L31.208 78.188L50 96.98Z" fill="#FFCC02" fill-rule="nonzero" filter="url(#Filter)" stroke="none" layerName="path 5" shadowAngle="2.31425" shadowColor="#000000" shadowOffset="0.966559" shadowOpacity="0.45" shadowRadius="1.95561"/>
</g>
</g>
</svg>
