<svg xmlns="http://www.w3.org/2000/svg" xmlns:xlink="http://www.w3.org/1999/xlink" id="Letter-H-Blue" width="100%" height="100%" stroke-miterlimit="10" viewBox="0 0 100 100" style="fill-rule:nonzero;clip-rule:evenodd;stroke-linecap:round;stroke-linejoin:round" version="1.1" xml:space="preserve"><defs><filter id="Filter_LetterHBlue" width="80.663" height="91.508" x="16.937" y="-.726" color-interpolation-filters="sRGB" filterUnits="userSpaceOnUse"><feDropShadow dx="0" dy="1.097" flood-color="#000" flood-opacity=".5" in="SourceGraphic" result="Shadow" stdDeviation="2.194"/></filter><linearGradient id="LinearGradient_LetterHBlue" x1="63.684" x2="26.678" y1="44.939" y2="32.705" gradientTransform="matrix(1.02313 -1.0548e-32 0 1.02313 4.49841 1.73036)" gradientUnits="userSpaceOnUse"><stop offset=".167" stop-color="#fff"/><stop offset=".5" stop-color="#fff"/><stop offset=".86" stop-color="#bebebe"/><stop offset="1" stop-color="#a9a9a9"/></linearGradient><filter id="Filter_LetterHBlue_2" width="94.316" height="103.193" x="2.472" y="-.56" color-interpolation-filters="sRGB" filterUnits="userSpaceOnUse"><feDropShadow dx="-.375" dy="1.031" flood-color="#000" flood-opacity=".5" in="SourceGraphic" result="Shadow" stdDeviation="1.645"/></filter><linearGradient id="LinearGradient_LetterHBlue_2" x1="79.362" x2="25.15" y1="57.309" y2="-15.481" gradientTransform="matrix(1.02313 -1.0548e-32 0 1.02313 4.49841 1.73036)" gradientUnits="userSpaceOnUse"><stop offset="0" stop-color="#bebebe" stop-opacity="0"/><stop offset=".005" stop-color="#fff" stop-opacity="0"/><stop offset=".009" stop-color="#fff" stop-opacity="0"/><stop offset=".717" stop-color="#a9a9a9"/><stop offset="1" stop-color="#828181"/></linearGradient><linearGradient id="LinearGradient_LetterHBlue_3" x1="30.272" x2="-19.423" y1="119.223" y2="52.641" gradientTransform="matrix(1.02313 -1.0548e-32 0 1.02313 4.49841 1.73036)" gradientUnits="userSpaceOnUse"><stop offset="0" stop-color="#fff"/><stop offset="0" stop-color="#fff"/><stop offset=".466" stop-color="#6f6f6f"/><stop offset=".858" stop-color="#e1e1e1"/></linearGradient><linearGradient id="LinearGradient_LetterHBlue_4" x1="204.439" x2="-22.438" y1="252.306" y2="110.574" gradientTransform="matrix(1.02313 -1.0548e-32 0 1.02313 4.49841 1.73036)" gradientUnits="userSpaceOnUse"><stop offset="0" stop-color="#908d8d" stop-opacity="0"/><stop offset=".325" stop-color="#908d8d"/><stop offset=".555" stop-color="#c3c3c3" stop-opacity="0"/><stop offset=".804" stop-color="#7d7d7d"/><stop offset="1" stop-color="#fff" stop-opacity="0"/></linearGradient><linearGradient id="LinearGradient_LetterHBlue_5" x1="76.551" x2="60.637" y1="19.715" y2="-9.021" gradientTransform="matrix(1.02313 -1.0548e-32 0 1.02313 4.27438 1.73036)" gradientUnits="userSpaceOnUse"><stop offset="0" stop-color="#9d7e7e" stop-opacity="0"/><stop offset=".101" stop-color="#c3a2cd" stop-opacity="0"/><stop offset=".309" stop-color="#acacac"/><stop offset=".668" stop-color="#838383" stop-opacity=".848"/><stop offset="1" stop-color="#676767" stop-opacity="0"/></linearGradient><linearGradient id="LinearGradient_LetterHBlue_6" x1="38.901" x2="-21.443" y1="110.999" y2="52.027" gradientTransform="matrix(1.02313 -1.0548e-32 0 1.02313 48.6349 1.71987)" gradientUnits="userSpaceOnUse"><stop offset="0" stop-color="#fff"/><stop offset="0" stop-color="#fff"/><stop offset=".466" stop-color="#6f6f6f"/><stop offset=".858" stop-color="#e1e1e1"/></linearGradient></defs><g id="LetterHBlue"><g id="LetterHBlueGroup-2" opacity="1"><path id="LetterHBlue" fill="#1e00da" stroke="none" d="M26.4784 3.6609C25.0566 3.6609 24.0342 3.99011 23.3981 4.62577C22.7621 5.26143 22.5032 6.197 22.4763 7.67566L22.4211 80.1582C22.4211 81.5791 22.7505 82.601 23.3865 83.2366C24.0226 83.8722 25.0451 84.2014 26.4668 84.2014L43.8446 84.2014C45.2663 84.2014 46.2887 83.8722 46.9247 83.2366C47.5608 82.6009 47.8902 81.5791 47.8902 80.1582L47.8902 55.2552L66.6472 55.2552L66.5594 80.1548C66.5594 81.5757 66.7919 82.5423 67.5094 83.2307C68.2473 83.9386 69.1834 84.1981 70.6051 84.1981L88.0706 84.2014C89.4923 84.2014 90.5148 83.8722 91.1508 83.2366C91.7869 82.6009 92.1163 81.5791 92.1163 80.1582L91.9366 7.67566C91.9366 6.25477 91.5897 5.26143 90.9536 4.62577C90.3176 3.99011 89.2951 3.6609 87.8734 3.6609L70.3632 3.6609C68.9415 3.6609 68.1454 3.99265 67.5094 4.62831C66.8733 5.26397 66.5903 6.25477 66.5903 7.67566L66.569 31.9299L47.8121 31.9299L47.9018 7.70418C47.9018 6.28329 47.5724 5.26143 46.9363 4.62577C46.3003 3.99011 45.2778 3.6609 43.8561 3.6609L26.4784 3.6609ZM34.558 13.5359L35.6613 13.5359L35.6613 43.2632L78.7381 43.2632L78.7381 13.5359L79.8874 13.5359L79.8874 74.0933L78.7381 74.0933L78.7381 44.3659L35.6613 44.3659L35.6613 74.0933L34.558 74.0933L34.558 13.5359Z" filter="url(#Filter_LetterHBlue)" shadowAngle="1.571" shadowColor="#000" shadowOffset="1.097" shadowOpacity=".5" shadowRadius="4.387"/><path id="LetterHBlue" fill="url(#LinearGradient_LetterHBlue)" stroke="none" d="M26.4993 2.52237C25.7537 2.52238 25.0999 2.63353 24.4661 2.81992C23.8324 3.0063 23.3015 3.26557 22.9288 3.56378L8.49774 15.7137C7.97586 16.161 7.61808 16.7287 7.35714 17.3998C7.09619 18.0707 6.96041 18.9101 6.96041 19.8793L6.96041 92.332C6.96042 94.1214 7.33049 95.4297 8.1506 96.2497C8.97069 97.0698 10.279 97.4895 12.0683 97.4895L29.4252 97.4895C30.1708 97.4895 30.8743 97.366 31.508 97.1424C32.1419 96.9187 32.5984 96.6472 32.8966 96.3489L47.4269 84.2982C47.9487 83.8509 48.3561 83.2832 48.617 82.6121C48.878 81.9411 49.0137 81.1018 49.0137 80.1326L49.0137 68.6274L50.9974 68.6274L50.9974 92.332C50.9974 94.1214 51.4171 95.4297 52.2372 96.2497C53.0572 97.0698 54.3655 97.4895 56.1549 97.4895L73.4622 97.4895C74.2078 97.4895 74.9113 97.366 75.545 97.1424C76.1787 96.9187 76.6353 96.6472 76.9336 96.3489L91.4638 84.2982C91.9857 83.8509 92.393 83.2832 92.6539 82.6121C92.9149 81.9411 93.0507 81.1018 93.0507 80.1326L93.0507 7.67986C93.0507 5.89055 92.631 4.58225 91.811 3.76216C90.9908 2.94204 89.6826 2.52237 87.8932 2.52237L70.5859 2.52237C69.8403 2.52238 69.1368 2.63353 68.5031 2.81992C67.8694 3.0063 67.3881 3.26557 67.0154 3.56378L52.5843 15.7137C52.0625 16.161 51.6551 16.7287 51.3942 17.3998C51.1332 18.0707 50.9974 18.9101 50.9974 19.8793L50.9937 30.8317L49.0137 30.839L49.0137 7.67986C49.0137 5.89055 48.5941 4.58225 47.7739 3.76216C46.9539 2.94204 45.6456 2.52237 43.8563 2.52237L26.4993 2.52237ZM26.4993 3.66296L43.8563 3.66296C45.2728 3.66296 46.2972 3.97149 46.9309 4.6052C47.5647 5.23892 47.8732 6.26332 47.8732 7.67986L47.8732 31.9299L50.8875 31.9299L52.3457 31.9299L66.569 31.9299L66.569 7.67986C66.569 6.26333 66.8776 5.23892 67.5113 4.6052C68.145 3.97149 69.1694 3.66296 70.5859 3.66296L87.8932 3.66296C89.3097 3.66296 90.3342 3.97149 90.9679 4.6052C91.6016 5.23892 91.9598 6.26332 91.9598 7.67986L91.9598 80.1326C91.9598 81.5492 91.6017 82.5735 90.9679 83.2073C90.3341 83.841 89.3097 84.1991 87.8932 84.1991L70.5859 84.1991C69.1694 84.1991 68.145 83.841 67.5113 83.2073C66.8776 82.5735 66.569 81.5491 66.569 80.1326L66.569 55.3369L47.8732 55.3369L47.8732 80.1326C47.8732 81.5492 47.5646 82.5735 46.9309 83.2073C46.2971 83.841 45.2728 84.1991 43.8563 84.1991L26.4993 84.1991C25.0828 84.1991 24.0584 83.841 23.4247 83.2073C22.791 82.5735 22.4825 81.5491 22.4825 80.1326L22.4825 7.67986C22.4824 6.26333 22.791 5.23892 23.4247 4.6052C24.0584 3.97149 25.0828 3.66296 26.4993 3.66296Z" filter="url(#Filter_LetterHBlue_2)" shadowAngle="1.92" shadowColor="#000" shadowOffset="1.097" shadowOpacity=".5" shadowRadius="3.29"/><g id="LetterHBlueGroup-1" opacity=".775"><path id="LetterHBlue" fill="url(#LinearGradient_LetterHBlue_2)" stroke="none" d="M26.4993 2.52237C25.7537 2.52238 25.0999 2.63353 24.4661 2.81992C23.8324 3.0063 23.3015 3.26557 22.9288 3.56378L8.49774 15.7137C7.97586 16.161 7.61808 16.7287 7.35714 17.3998C7.09619 18.0707 6.96041 18.9101 6.96041 19.8793L6.96041 92.332C6.96042 94.1214 7.33049 95.4297 8.1506 96.2497C8.97069 97.0698 10.279 97.4895 12.0683 97.4895L29.4252 97.4895C30.1708 97.4895 30.8743 97.366 31.508 97.1424C32.1419 96.9187 32.5984 96.6472 32.8966 96.3489L47.4269 84.2982C47.9487 83.8509 48.3561 83.2832 48.617 82.6121C48.878 81.9411 49.0137 81.1018 49.0137 80.1326L49.0137 68.6274L50.9974 68.6274L50.9974 92.332C50.9974 94.1214 51.4171 95.4297 52.2372 96.2497C53.0572 97.0698 54.3655 97.4895 56.1549 97.4895L73.4622 97.4895C74.2078 97.4895 74.9113 97.366 75.545 97.1424C76.1787 96.9187 76.6353 96.6472 76.9336 96.3489L91.4638 84.2982C91.9857 83.8509 92.393 83.2832 92.6539 82.6121C92.9149 81.9411 93.0507 81.1018 93.0507 80.1326L93.0507 7.67986C93.0507 5.89055 92.631 4.58225 91.811 3.76216C90.9908 2.94204 89.6826 2.52237 87.8932 2.52237L70.5859 2.52237C69.8403 2.52238 69.1368 2.63353 68.5031 2.81992C67.8694 3.0063 67.3881 3.26557 67.0154 3.56378L52.5843 15.7137C52.0625 16.161 51.6551 16.7287 51.3942 17.3998C51.1332 18.0707 50.9974 18.9101 50.9974 19.8793L50.9974 30.8317L49.0137 30.839L49.0137 7.67986C49.0137 5.89055 48.5941 4.58225 47.7739 3.76216C46.9539 2.94204 45.6456 2.52237 43.8563 2.52237L26.4993 2.52237ZM26.4993 3.66296L43.8563 3.66296C45.2728 3.66296 46.2972 3.97149 46.9309 4.6052C47.5647 5.23892 47.8732 6.26332 47.8732 7.67986L47.8732 31.9299L66.569 31.9299L66.569 7.67986C66.569 6.26333 66.8776 5.23892 67.5113 4.6052C68.145 3.97149 69.1694 3.66296 70.5859 3.66296L87.8932 3.66296C89.3097 3.66296 90.3342 3.97149 90.9679 4.6052C91.6016 5.23892 91.9598 6.26332 91.9598 7.67986L91.9598 80.1326C91.9598 81.5492 91.6017 82.5735 90.9679 83.2073C90.3341 83.841 89.3097 84.1991 87.8932 84.1991L70.5859 84.1991C69.1694 84.1991 68.145 83.841 67.5113 83.2073C66.8776 82.5735 66.569 81.5491 66.569 80.1326L66.569 55.3369L47.8732 55.3369L47.8732 80.1326C47.8732 81.5492 47.5646 82.5735 46.9309 83.2073C46.2971 83.841 45.2728 84.1991 43.8563 84.1991L26.4993 84.1991C25.0828 84.1991 24.0584 83.841 23.4247 83.2073C22.791 82.5735 22.4825 81.5491 22.4825 80.1326L22.4825 7.67986C22.4824 6.26333 22.791 5.23892 23.4247 4.6052C24.0584 3.97149 25.0828 3.66296 26.4993 3.66296Z" opacity=".447"/><path id="LetterHBlue-3" fill="url(#LinearGradient_LetterHBlue_3)" stroke="none" d="M26.491 2.5C25.7455 2.50001 25.0932 2.6522 24.4595 2.83859C23.8257 3.02498 23.2843 3.26595 22.9116 3.56415L8.49715 15.7052C7.97527 16.1525 7.59714 16.7271 7.33625 17.3982C7.0753 18.0691 6.94932 18.8959 6.94929 19.8651L6.94929 92.3243C6.9493 94.1137 7.33841 95.4223 8.15856 96.2424C8.97864 97.0625 10.2874 97.5 12.0766 97.5L29.4417 97.5C30.1872 97.5 30.8879 97.3851 31.5216 97.1614C32.1554 96.9377 32.5777 96.6373 32.876 96.3391L47.4355 84.2948C47.9573 83.8475 48.3355 83.2729 48.5964 82.6018C48.8574 81.9309 49.0317 81.1042 49.0318 80.1349L49.0137 68.6274L49.2349 55.3088L47.8732 55.3369L47.8709 80.1349C47.8709 81.5516 47.5856 82.5969 46.9518 83.2307C46.3181 83.8644 45.2725 84.1981 43.8561 84.1981L26.491 84.1981C25.0745 84.1981 24.0774 83.8644 23.4437 83.2307C22.81 82.5969 22.4763 81.5514 22.4763 80.1349L22.4763 7.67566C22.4762 6.25913 22.81 5.26203 23.4437 4.62831C24.0774 3.99459 25.0745 3.66088 26.491 3.6609L43.8561 3.6609C45.2726 3.6609 46.3181 3.99459 46.9518 4.62831C47.5857 5.26202 47.8708 6.25913 47.8709 7.67566L47.8709 10.8198L47.8709 16.1405L47.8709 26.3467L47.8709 31.9094L50.1927 31.9094C50.4136 31.5575 50.5676 31.1731 50.8215 30.8452L49.0318 30.8452L49.0318 20.4939L49.0318 13.5285L49.0318 7.67566C49.0318 5.88635 48.5943 4.57776 47.7741 3.75764C46.9541 2.93752 45.6454 2.50001 43.8561 2.5L26.491 2.5Z" opacity=".437"/><path id="LetterHBlue-2" fill="url(#LinearGradient_LetterHBlue_4)" stroke="none" d="M70.6051 2.5C69.8595 2.50001 69.1589 2.65221 68.5252 2.83859C67.8914 3.02498 67.3984 3.26595 67.0257 3.56415L52.5628 15.7052C52.041 16.1525 51.6628 16.7271 51.4019 17.3982C51.1409 18.0691 51.015 18.8959 51.015 19.8651L50.9937 30.8317L49.0137 30.839L48.9356 13.6828L47.881 9.93978L47.8732 31.9299L55.9073 31.9304L66.569 31.9299L66.5903 7.67566C66.5903 6.25913 66.8756 5.26203 67.5094 4.62831C68.1431 3.99459 69.1886 3.66089 70.6051 3.6609L87.8734 3.6609C89.2899 3.6609 90.3354 3.99459 90.9691 4.62831C91.6028 5.26202 91.9366 6.25912 91.9366 7.67566L91.9366 80.1349C91.9366 81.5516 91.6029 82.5969 90.9691 83.2307C90.3353 83.8644 89.2899 84.1981 87.8734 84.1981L70.6051 84.1981C69.1886 84.1981 68.145 83.841 67.5113 83.2073C66.8776 82.5735 66.5903 81.5514 66.5903 80.1349L66.5903 55.3208L50.9937 55.2724L47.8732 55.3369L47.867 68.6274L51.015 68.6227L51.015 92.3243C51.015 94.1137 51.4041 95.4223 52.2242 96.2424C53.0443 97.0625 54.3529 97.5 56.1423 97.5L73.459 97.5C74.2045 97.5 74.9052 97.3851 75.5389 97.1614C76.1726 96.9377 76.6434 96.6373 76.9417 96.3391L91.4529 84.2948C91.9748 83.8475 92.4012 83.2729 92.6621 82.6018C92.9231 81.9309 93.0491 81.1042 93.0491 80.1349L93.0491 7.67566C93.0491 5.88635 92.6115 4.57775 91.7914 3.75764C90.9713 2.93752 89.6627 2.5 87.8734 2.5L70.6051 2.5Z" opacity=".583"/><path id="LetterHBlue-4" fill="url(#LinearGradient_LetterHBlue_5)" stroke="none" d="M70.3632 2.5C69.6177 2.50001 68.917 2.65218 68.2833 2.83859C67.6496 3.02498 67.1563 3.26595 66.7838 3.56415L52.6112 15.7052C52.0894 16.1525 51.7112 16.7271 51.4503 17.3982C51.1893 18.0691 51.0634 18.8959 51.0633 19.8651L50.9937 30.8317L49.0137 30.839L47.8732 31.9299L47.8732 31.9299L66.569 31.9299L66.5903 7.67566C66.5903 6.25913 66.8756 5.26203 67.5094 4.62831C68.1431 3.99459 68.9469 3.66087 70.3632 3.6609L87.8734 3.6609C87.7345 3.29779 87.9906 2.86994 87.8734 2.5L70.3632 2.5Z" opacity="1"/><path id="LetterHBlue-1" fill="url(#LinearGradient_LetterHBlue_6)" stroke="none" d="M70.6051 2.5C69.8595 2.50001 69.2073 2.65219 68.5735 2.83859C67.9398 3.02498 67.3983 3.26595 67.0257 3.56415L66.0672 4.37144L65.8959 4.5157L52.6112 15.7052C52.0893 16.1525 51.7112 16.7271 51.4503 17.3982C51.1894 18.0691 51.0634 18.8959 51.0633 19.8651L50.9937 30.8317L50.8875 31.9299L66.569 31.9299L66.5903 7.67566C66.5902 6.25913 66.924 5.26203 67.5577 4.62831C68.1915 3.99459 69.1886 3.66088 70.6051 3.6609L87.9702 3.6609C89.3867 3.6609 90.3354 3.99459 90.9691 4.62831C91.603 5.26202 89.7595 2.50002 87.9702 2.5L70.6051 2.5ZM50.9937 55.2724L47.8732 55.3369L47.867 68.6274L51.0186 68.5078L51.0633 92.3243C51.0634 94.1137 51.4525 95.4223 52.2726 96.2424C53.0927 97.0625 54.4015 97.5 56.1906 97.5L73.5557 97.5C74.3013 97.5 75.0019 97.3851 75.6356 97.1614C76.2695 96.9377 76.6918 96.6373 76.99 96.3391L91.5496 84.2948C92.0714 83.8475 91.9849 80.1349 91.9849 80.1349C91.9849 81.5516 91.6029 82.5969 90.9691 83.2307C90.3354 83.8644 89.3865 84.1982 87.9702 84.1981L70.6051 84.1981C69.1886 84.1981 68.1915 83.8644 67.5577 83.2307C66.924 82.5969 66.5903 81.5514 66.5903 80.1349L66.5903 55.3208L50.9937 55.2724Z" opacity=".475"/></g></g></g></svg>