<svg xmlns="http://www.w3.org/2000/svg" xmlns:vectornator="http://vectornator.io" xmlns:xlink="http://www.w3.org/1999/xlink" style="fill-rule:nonzero;clip-rule:evenodd;stroke-linecap:round;stroke-linejoin:round" width="100%" height="100%" stroke-miterlimit="10" version="1.1" viewBox="2.615 -6.19 94.77 104.19" xml:space="preserve"><defs><radialGradient id="RadialGradient" cx="50.261" cy="44.877" r="27.501" gradientTransform="matrix(1.12376 0 0 1.12376 -6.18789 -6.16628)" gradientUnits="userSpaceOnUse"><stop offset="0" stop-color="#ffec04"/><stop offset=".445" stop-color="#fc0"/><stop offset=".562" stop-color="#ffb502"/><stop offset="1" stop-color="#f4f4f2"/></radialGradient><radialGradient id="RadialGradient_2" cx="55.399" cy="76.832" r="21.649" gradientTransform="matrix(1.14612 0 0 1.12376 -7.22 -6.16628)" gradientUnits="userSpaceOnUse"><stop offset="0" stop-color="#9fa8da"/><stop offset="1" stop-color="#000"/></radialGradient><radialGradient id="RadialGradient_3" cx="52.593" cy="75.684" r="18.794" gradientTransform="matrix(1.14516 0 0 1.12153 -7.17169 -6.00318)" gradientUnits="userSpaceOnUse"><stop offset=".009" stop-color="#021df3"/><stop offset="1" stop-color="#050025"/></radialGradient><filter id="Filter" width="44.16" height="55.097" x="28.228" y="24.888" color-interpolation-filters="sRGB" filterUnits="userSpaceOnUse"><feDropShadow dx=".061" dy="-.914" flood-color="#fff" flood-opacity=".8" in="SourceGraphic" result="Shadow" stdDeviation="2.747"/></filter><filter id="Filter_2" width="94.77" height="83.391" x="2.615" y="-6.19" color-interpolation-filters="sRGB" filterUnits="userSpaceOnUse"><feDropShadow dx="0" dy="0" flood-color="#ffd9a7" flood-opacity=".6" in="SourceGraphic" result="Shadow" stdDeviation="3.204"/></filter><filter id="Filter_3" width="93.06" height="81.682" x="3.47" y="-5.335" color-interpolation-filters="sRGB" filterUnits="userSpaceOnUse"><feDropShadow dx="0" dy="0" flood-color="#fff" flood-opacity=".8" in="SourceGraphic" result="Shadow" stdDeviation="2.934"/></filter></defs><g id="Lightbulb" layerName="Lightbulb"><g layerName="Group 1" opacity="1"><path fill="url(#RadialGradient)" fill-rule="nonzero" stroke="none" d="M80.6543 41.2904C80.6543 24.4828 66.9027 10.7312 50.0951 10.7312C33.2875 10.7312 19.5359 24.4828 19.5359 41.2904C19.5359 52.2044 25.2112 61.5904 33.7241 67.0475C35.6886 69.4485 36.9983 72.5045 36.9983 75.5604L36.9983 76.2152L63.1919 76.2152L63.1919 75.9969C63.1919 72.7227 64.2833 69.6668 66.2478 67.2657C74.979 61.8087 80.6543 52.2044 80.6543 41.2904Z" layerName="path" opacity="1"/><path fill="url(#RadialGradient_2)" fill-rule="nonzero" stroke="none" d="M54.6356 93.6776L45.7306 93.6776C40.8329 93.6776 36.8257 89.7486 36.8257 84.9464L36.8257 74.0324L63.5406 74.0324L63.5406 84.9464C63.5406 89.7486 59.5333 93.6776 54.6356 93.6776" layerName="path 1" opacity="1"/><path fill="url(#RadialGradient_3)" fill-rule="nonzero" stroke="none" d="M56.4113 93.4252C55.744 96.0394 53.0748 98 50.1831 98C47.2914 98 44.6222 96.0394 43.9549 93.4252C44.3998 93.643 45.0671 93.643 45.7344 93.643L54.6318 93.643C55.2992 93.643 55.9665 93.643 56.4113 93.4252ZM63.5293 84.9291L37.5103 88.2692C37.1098 89.5673 39.2712 92.0937 41.2526 92.5024L62.1947 89.5039C63.0844 88.1968 63.5293 86.6719 63.5293 84.9291M36.8369 79.9186L36.8369 84.2756L63.5293 80.5722L63.5293 76.2152L36.8369 79.9186Z" layerName="path 2" opacity="1"/><path fill="#fffffd" fill-rule="nonzero" stroke="none" d="M64.5016 37.3614L57.9532 32.9958C57.2983 32.5592 56.2069 32.5592 55.5521 32.9958L50.0951 36.4882L44.8564 32.9958C44.2015 32.5592 43.1101 32.5592 42.4553 32.9958L35.9069 37.3614C35.4703 37.7979 35.0338 38.2345 35.0338 38.8893C35.0338 39.5442 35.0338 40.199 35.4703 40.6356L43.765 50.8947L43.765 74.0324L48.1306 74.0324L48.1306 50.0216C48.1306 49.585 47.9123 49.1485 47.694 48.7119L40.4908 39.7624L43.765 37.5796L49.0037 41.0721C49.6585 41.5087 50.7499 41.5087 51.4048 41.0721L56.6435 37.5796L59.9177 39.7624L52.7145 48.7119C52.4962 49.1485 52.2779 49.585 52.2779 50.0216L52.2779 74.0324L56.6435 74.0324L56.6435 50.8947L64.9381 40.6356C65.3747 40.199 65.593 39.5442 65.3747 38.8893C65.1564 38.2345 64.9381 37.5796 64.5016 37.3614Z" filter="url(#Filter)" layerName="path 3" shadowAngle="-1.504" shadowColor="#ffffff" shadowOffset=".916" shadowOpacity=".8" shadowRadius="5.493"/><path fill="#fffe9b" fill-rule="nonzero" stroke="#ffb90a" stroke-linecap="butt" stroke-linejoin="miter" stroke-width=".1" d="M21.5004 68.3571C20.6273 67.484 20.6273 66.1743 21.5004 65.3012L21.5004 65.3012C22.3735 64.4281 23.6832 64.4281 24.5563 65.3012L24.5563 65.3012C25.4294 66.1743 25.4294 67.484 24.338 68.3571L24.338 68.3571C23.9015 68.7937 23.4649 69.012 22.8101 69.012L22.8101 69.012C22.5918 69.012 21.937 68.7937 21.5004 68.3571ZM75.6339 68.3571C74.7607 67.484 74.7607 66.1743 75.6339 65.3012L75.6339 65.3012C76.507 64.4281 77.8167 64.4281 78.6898 65.0829L78.6898 65.0829C79.5629 65.9561 79.5629 67.2657 78.6898 68.1389L78.6898 68.1389C78.2532 68.5754 77.5984 68.7937 77.1618 68.7937L77.1618 68.7937C76.507 69.012 76.0704 68.7937 75.6339 68.3571ZM16.0434 60.9356C15.3886 59.8442 15.8251 58.5345 16.9165 57.8797L16.9165 57.8797C18.0079 57.2248 19.3176 57.6614 19.9724 58.7528L19.9724 58.7528C20.6273 59.8442 20.1907 61.1539 19.0993 61.8087L19.0993 61.8087C18.6628 62.027 18.4445 62.027 18.0079 62.027L18.0079 62.027C17.1348 62.027 16.48 61.5904 16.0434 60.9356ZM81.0909 61.8087C79.9995 61.1539 79.7812 59.8442 80.2177 58.7528L80.2177 58.7528C80.8726 57.6614 82.1823 57.2248 83.2737 57.8797L83.2737 57.8797C84.3651 58.5345 84.5833 59.8442 84.1468 60.9356L84.1468 60.9356L84.1468 60.9356L84.1468 60.9356C83.7102 61.5904 83.0554 62.027 82.1823 62.027L82.1823 62.027C81.7457 62.027 81.5274 61.8087 81.0909 61.8087ZM12.5509 52.641C12.1144 51.5496 12.7692 50.2399 14.0789 50.0216L14.0789 50.0216C15.1703 49.585 16.48 50.2399 16.6982 51.5496L16.6982 51.5496C16.9165 52.641 16.48 53.9506 15.1703 54.1689L15.1703 54.1689C14.952 54.1689 14.7337 54.1689 14.5154 54.1689L14.5154 54.1689C13.6423 54.1689 12.7692 53.5141 12.5509 52.641ZM85.0199 53.9506C83.9285 53.5141 83.2737 52.4227 83.4919 51.3313L83.4919 51.3313C83.9285 50.2399 85.0199 49.585 86.3296 49.8033L86.3296 49.8033C87.421 50.0216 88.0758 51.3313 87.8575 52.4227L87.8575 52.4227C87.6393 53.2958 86.7661 53.9506 85.6747 53.9506L85.6747 53.9506C85.4565 54.1689 85.2382 54.1689 85.0199 53.9506ZM10.8047 43.6915C10.8047 43.6915 10.8047 43.4732 10.8047 43.6915L10.8047 43.6915C10.8047 43.4732 10.8047 43.4732 10.8047 43.6915L10.8047 43.6915L10.8047 43.6915L10.8047 43.6915C10.8047 42.3818 11.6778 41.2904 12.9875 41.2904L12.9875 41.2904C14.2972 41.2904 15.1703 42.1635 15.3886 43.2549L15.3886 43.2549L15.3886 43.2549L15.3886 43.2549L15.3886 43.2549L15.3886 43.2549C15.3886 44.3463 14.5154 45.4377 13.424 45.656L13.424 45.656C13.424 45.656 13.424 45.656 13.2058 45.656L13.2058 45.656C11.8961 45.656 11.023 44.7829 10.8047 43.6915ZM86.9844 45.656C85.6747 45.656 84.8016 44.5646 84.8016 43.2549L84.8016 43.2549C84.8016 42.1635 85.893 41.0721 87.2027 41.2904L87.2027 41.2904C88.2941 41.2904 89.3855 42.3818 89.1672 43.6915L89.1672 43.6915C89.1672 44.7829 88.2941 45.656 86.9844 45.656L86.9844 45.656L86.9844 45.656ZM84.5833 35.1786C84.3651 34.0872 85.2382 32.7775 86.3296 32.5592L86.3296 32.5592C87.421 32.3409 88.7307 33.214 88.9489 34.3054L88.9489 34.3054L88.9489 34.3054L88.9489 34.3054C89.1672 35.6151 88.2941 36.7065 87.2027 36.9248L87.2027 36.9248C86.9844 36.9248 86.9844 36.9248 86.7661 36.9248L86.7661 36.9248C85.6747 36.9248 84.5833 36.27 84.5833 35.1786ZM13.2058 36.9248C12.1144 36.7065 11.2412 35.6151 11.4595 34.3054L11.4595 34.3054C11.6778 33.214 12.7692 32.3409 13.8606 32.5592L13.8606 32.5592C15.1703 32.7775 15.8251 33.8689 15.6068 35.1786L15.6068 35.1786C15.3886 36.27 14.5154 36.9248 13.424 36.9248L13.424 36.9248L13.2058 36.9248ZM82.1823 27.5388C81.7457 26.4474 82.1823 25.1377 83.2737 24.7011L83.2737 24.7011C84.3651 24.2646 85.6747 24.7011 86.1113 25.7925L86.1113 25.7925C86.5479 26.8839 86.1113 28.1936 85.0199 28.6302L85.0199 28.6302C84.8016 28.6302 84.3651 28.8484 84.1468 28.8484L84.1468 28.8484C83.2737 28.8484 82.6188 28.1936 82.1823 27.5388ZM15.1703 28.4119C14.0789 27.9753 13.6423 26.6656 14.0789 25.5742L14.0789 25.5742C14.5154 24.4828 15.8251 24.0463 16.9165 24.4828L16.9165 24.4828C18.0079 24.9194 18.4445 26.2291 18.0079 27.3205L18.0079 27.3205C17.5714 28.1936 16.9165 28.6302 16.0434 28.6302L16.0434 28.6302C15.8251 28.6302 15.3886 28.6302 15.1703 28.4119ZM78.0349 20.3355C77.3801 19.4624 77.5984 18.1527 78.4715 17.2796L78.4715 17.2796C79.3446 16.6248 80.8726 16.843 81.5274 17.7162L81.5274 17.7162C82.1823 18.5893 81.964 20.1172 81.0909 20.7721L81.0909 20.7721C80.6543 20.9904 80.2177 21.2086 79.7812 21.2086L79.7812 21.2086C79.1263 21.2086 78.4715 20.9904 78.0349 20.3355ZM19.0993 20.7721C18.2262 20.1172 18.0079 18.8076 18.6628 17.7162L18.6628 17.7162C19.3176 16.843 20.8456 16.6248 21.7187 17.2796L21.7187 17.2796C22.5918 17.9344 22.8101 19.4624 22.1552 20.3355L22.1552 20.3355C21.7187 20.9904 21.0638 21.2086 20.409 21.2086L20.409 21.2086C19.9724 21.2086 19.5359 21.2086 19.0993 20.7721ZM72.5779 14.6602C71.7048 13.7871 71.4865 12.4774 72.3597 11.6043L72.3597 11.6043C73.2328 10.7312 74.5425 10.5129 75.4156 11.386L75.4156 11.386C76.2887 12.2592 76.507 13.5688 75.6339 14.442L75.6339 14.442C75.1973 14.8785 74.5425 15.0968 73.8876 15.0968L73.8876 15.0968C73.4511 15.0968 73.0145 14.8785 72.5779 14.6602ZM24.5563 14.2237C23.6832 13.3506 23.9015 12.0409 24.7746 11.1678L24.7746 11.1678L24.7746 11.1678L24.7746 11.1678C25.6477 10.2946 27.1757 10.5129 27.8305 11.386L27.8305 11.386C28.7036 12.2592 28.4854 13.5688 27.6122 14.442L27.6122 14.442C27.1757 14.8785 26.7391 15.0968 26.3026 15.0968L26.3026 15.0968C25.6477 15.0968 24.9929 14.6602 24.5563 14.2237ZM65.8113 10.0764L65.8113 10.0764C64.7199 9.6398 64.2833 8.11184 64.9381 7.23872L64.9381 7.23872C65.593 6.14732 66.6844 5.71076 67.7758 6.3656L67.7758 6.3656L67.7758 6.3656L67.7758 6.3656C68.8672 7.02044 69.3037 8.33012 68.6489 9.20324L68.6489 9.20324C68.2123 10.0764 67.5575 10.5129 66.6844 10.5129L66.6844 10.5129C66.4661 10.2946 66.0295 10.2946 65.8113 10.0764ZM31.5413 8.98496C31.1047 7.89356 31.5413 6.58388 32.6327 6.14732L32.6327 6.14732L32.6327 6.14732L32.6327 6.14732C33.7241 5.49248 35.0338 5.92904 35.4703 7.02044L35.4703 7.02044C36.1252 8.11184 35.4703 9.42152 34.5972 9.85808L34.5972 9.85808C34.3789 10.0764 33.9424 10.0764 33.5058 10.0764L33.5058 10.0764C32.6327 10.2946 31.9778 9.85808 31.5413 8.98496ZM58.1715 7.23872C57.0801 7.02044 56.2069 5.71076 56.4252 4.61936L56.4252 4.61936C56.6435 3.52796 57.9532 2.65484 59.0446 2.87312L59.0446 2.87312L59.0446 2.87312L59.0446 2.87312C60.136 3.0914 61.0091 4.40108 60.5725 5.49248L60.5725 5.49248C60.3543 6.58388 59.4811 7.23872 58.3897 7.23872L58.3897 7.23872C58.608 7.457 58.3897 7.23872 58.1715 7.23872ZM39.3994 5.71076C39.1811 4.61936 39.8359 3.30968 41.1456 3.0914L41.1456 3.0914C42.237 2.87312 43.5467 3.52796 43.765 4.61936L43.765 4.61936C43.9833 5.71076 43.3284 7.02044 42.237 7.23872L42.237 7.23872C42.0187 7.23872 41.8005 7.23872 41.8005 7.23872L41.8005 7.23872C40.4908 7.23872 39.6177 6.58388 39.3994 5.71076ZM47.9123 4.1828C47.9123 2.87312 48.7854 2 50.0951 2L50.0951 2L50.0951 2L50.0951 2C51.1865 2 52.2779 2.87312 52.2779 4.1828L52.2779 4.1828C52.2779 5.2742 51.1865 6.3656 50.0951 6.3656L50.0951 6.3656C49.0037 6.3656 47.9123 5.2742 47.9123 4.1828Z" filter="url(#Filter_2)" layerName="path 4" shadowAngle="-1.504" shadowColor="#ffd9a7" shadowOffset="0" shadowOpacity=".6" shadowRadius="6.409"/><path fill="#fffe9b" fill-rule="nonzero" stroke="none" d="M21.5004 68.3571C20.6273 67.484 20.6273 66.1743 21.5004 65.3012L21.5004 65.3012C22.3735 64.4281 23.6832 64.4281 24.5563 65.3012L24.5563 65.3012C25.4294 66.1743 25.4294 67.484 24.338 68.3571L24.338 68.3571C23.9015 68.7937 23.4649 69.012 22.8101 69.012L22.8101 69.012C22.5918 69.012 21.937 68.7937 21.5004 68.3571ZM75.6339 68.3571C74.7607 67.484 74.7607 66.1743 75.6339 65.3012L75.6339 65.3012C76.507 64.4281 77.8167 64.4281 78.6898 65.0829L78.6898 65.0829C79.5629 65.9561 79.5629 67.2657 78.6898 68.1389L78.6898 68.1389C78.2532 68.5754 77.5984 68.7937 77.1618 68.7937L77.1618 68.7937C76.507 69.012 76.0704 68.7937 75.6339 68.3571ZM16.0434 60.9356C15.3886 59.8442 15.8251 58.5345 16.9165 57.8797L16.9165 57.8797C18.0079 57.2248 19.3176 57.6614 19.9724 58.7528L19.9724 58.7528C20.6273 59.8442 20.1907 61.1539 19.0993 61.8087L19.0993 61.8087C18.6628 62.027 18.4445 62.027 18.0079 62.027L18.0079 62.027C17.1348 62.027 16.48 61.5904 16.0434 60.9356ZM81.0909 61.8087C79.9995 61.1539 79.7812 59.8442 80.2177 58.7528L80.2177 58.7528C80.8726 57.6614 82.1823 57.2248 83.2737 57.8797L83.2737 57.8797C84.3651 58.5345 84.5833 59.8442 84.1468 60.9356L84.1468 60.9356L84.1468 60.9356L84.1468 60.9356C83.7102 61.5904 83.0554 62.027 82.1823 62.027L82.1823 62.027C81.7457 62.027 81.5274 61.8087 81.0909 61.8087ZM12.5509 52.641C12.1144 51.5496 12.7692 50.2399 14.0789 50.0216L14.0789 50.0216C15.1703 49.585 16.48 50.2399 16.6982 51.5496L16.6982 51.5496C16.9165 52.641 16.48 53.9506 15.1703 54.1689L15.1703 54.1689C14.952 54.1689 14.7337 54.1689 14.5154 54.1689L14.5154 54.1689C13.6423 54.1689 12.7692 53.5141 12.5509 52.641ZM85.0199 53.9506C83.9285 53.5141 83.2737 52.4227 83.4919 51.3313L83.4919 51.3313C83.9285 50.2399 85.0199 49.585 86.3296 49.8033L86.3296 49.8033C87.421 50.0216 88.0758 51.3313 87.8575 52.4227L87.8575 52.4227C87.6393 53.2958 86.7661 53.9506 85.6747 53.9506L85.6747 53.9506C85.4565 54.1689 85.2382 54.1689 85.0199 53.9506ZM10.8047 43.6915C10.8047 43.6915 10.8047 43.4732 10.8047 43.6915L10.8047 43.6915C10.8047 43.4732 10.8047 43.4732 10.8047 43.6915L10.8047 43.6915L10.8047 43.6915L10.8047 43.6915C10.8047 42.3818 11.6778 41.2904 12.9875 41.2904L12.9875 41.2904C14.2972 41.2904 15.1703 42.1635 15.3886 43.2549L15.3886 43.2549L15.3886 43.2549L15.3886 43.2549L15.3886 43.2549L15.3886 43.2549C15.3886 44.3463 14.5154 45.4377 13.424 45.656L13.424 45.656C13.424 45.656 13.424 45.656 13.2058 45.656L13.2058 45.656C11.8961 45.656 11.023 44.7829 10.8047 43.6915ZM86.9844 45.656C85.6747 45.656 84.8016 44.5646 84.8016 43.2549L84.8016 43.2549C84.8016 42.1635 85.893 41.0721 87.2027 41.2904L87.2027 41.2904C88.2941 41.2904 89.3855 42.3818 89.1672 43.6915L89.1672 43.6915C89.1672 44.7829 88.2941 45.656 86.9844 45.656L86.9844 45.656L86.9844 45.656ZM84.5833 35.1786C84.3651 34.0872 85.2382 32.7775 86.3296 32.5592L86.3296 32.5592C87.421 32.3409 88.7307 33.214 88.9489 34.3054L88.9489 34.3054L88.9489 34.3054L88.9489 34.3054C89.1672 35.6151 88.2941 36.7065 87.2027 36.9248L87.2027 36.9248C86.9844 36.9248 86.9844 36.9248 86.7661 36.9248L86.7661 36.9248C85.6747 36.9248 84.5833 36.27 84.5833 35.1786ZM13.2058 36.9248C12.1144 36.7065 11.2412 35.6151 11.4595 34.3054L11.4595 34.3054C11.6778 33.214 12.7692 32.3409 13.8606 32.5592L13.8606 32.5592C15.1703 32.7775 15.8251 33.8689 15.6068 35.1786L15.6068 35.1786C15.3886 36.27 14.5154 36.9248 13.424 36.9248L13.424 36.9248L13.2058 36.9248ZM82.1823 27.5388C81.7457 26.4474 82.1823 25.1377 83.2737 24.7011L83.2737 24.7011C84.3651 24.2646 85.6747 24.7011 86.1113 25.7925L86.1113 25.7925C86.5479 26.8839 86.1113 28.1936 85.0199 28.6302L85.0199 28.6302C84.8016 28.6302 84.3651 28.8484 84.1468 28.8484L84.1468 28.8484C83.2737 28.8484 82.6188 28.1936 82.1823 27.5388ZM15.1703 28.4119C14.0789 27.9753 13.6423 26.6656 14.0789 25.5742L14.0789 25.5742C14.5154 24.4828 15.8251 24.0463 16.9165 24.4828L16.9165 24.4828C18.0079 24.9194 18.4445 26.2291 18.0079 27.3205L18.0079 27.3205C17.5714 28.1936 16.9165 28.6302 16.0434 28.6302L16.0434 28.6302C15.8251 28.6302 15.3886 28.6302 15.1703 28.4119ZM78.0349 20.3355C77.3801 19.4624 77.5984 18.1527 78.4715 17.2796L78.4715 17.2796C79.3446 16.6248 80.8726 16.843 81.5274 17.7162L81.5274 17.7162C82.1823 18.5893 81.964 20.1172 81.0909 20.7721L81.0909 20.7721C80.6543 20.9904 80.2177 21.2086 79.7812 21.2086L79.7812 21.2086C79.1263 21.2086 78.4715 20.9904 78.0349 20.3355ZM19.0993 20.7721C18.2262 20.1172 18.0079 18.8076 18.6628 17.7162L18.6628 17.7162C19.3176 16.843 20.8456 16.6248 21.7187 17.2796L21.7187 17.2796C22.5918 17.9344 22.8101 19.4624 22.1552 20.3355L22.1552 20.3355C21.7187 20.9904 21.0638 21.2086 20.409 21.2086L20.409 21.2086C19.9724 21.2086 19.5359 21.2086 19.0993 20.7721ZM72.5779 14.6602C71.7048 13.7871 71.4865 12.4774 72.3597 11.6043L72.3597 11.6043C73.2328 10.7312 74.5425 10.5129 75.4156 11.386L75.4156 11.386C76.2887 12.2592 76.507 13.5688 75.6339 14.442L75.6339 14.442C75.1973 14.8785 74.5425 15.0968 73.8876 15.0968L73.8876 15.0968C73.4511 15.0968 73.0145 14.8785 72.5779 14.6602ZM24.5563 14.2237C23.6832 13.3506 23.9015 12.0409 24.7746 11.1678L24.7746 11.1678L24.7746 11.1678L24.7746 11.1678C25.6477 10.2946 27.1757 10.5129 27.8305 11.386L27.8305 11.386C28.7036 12.2592 28.4854 13.5688 27.6122 14.442L27.6122 14.442C27.1757 14.8785 26.7391 15.0968 26.3026 15.0968L26.3026 15.0968C25.6477 15.0968 24.9929 14.6602 24.5563 14.2237ZM65.8113 10.0764L65.8113 10.0764C64.7199 9.6398 64.2833 8.11184 64.9381 7.23872L64.9381 7.23872C65.593 6.14732 66.6844 5.71076 67.7758 6.3656L67.7758 6.3656L67.7758 6.3656L67.7758 6.3656C68.8672 7.02044 69.3037 8.33012 68.6489 9.20324L68.6489 9.20324C68.2123 10.0764 67.5575 10.5129 66.6844 10.5129L66.6844 10.5129C66.4661 10.2946 66.0295 10.2946 65.8113 10.0764ZM31.5413 8.98496C31.1047 7.89356 31.5413 6.58388 32.6327 6.14732L32.6327 6.14732L32.6327 6.14732L32.6327 6.14732C33.7241 5.49248 35.0338 5.92904 35.4703 7.02044L35.4703 7.02044C36.1252 8.11184 35.4703 9.42152 34.5972 9.85808L34.5972 9.85808C34.3789 10.0764 33.9424 10.0764 33.5058 10.0764L33.5058 10.0764C32.6327 10.2946 31.9778 9.85808 31.5413 8.98496ZM58.1715 7.23872C57.0801 7.02044 56.2069 5.71076 56.4252 4.61936L56.4252 4.61936C56.6435 3.52796 57.9532 2.65484 59.0446 2.87312L59.0446 2.87312L59.0446 2.87312L59.0446 2.87312C60.136 3.0914 61.0091 4.40108 60.5725 5.49248L60.5725 5.49248C60.3543 6.58388 59.4811 7.23872 58.3897 7.23872L58.3897 7.23872C58.608 7.457 58.3897 7.23872 58.1715 7.23872ZM39.3994 5.71076C39.1811 4.61936 39.8359 3.30968 41.1456 3.0914L41.1456 3.0914C42.237 2.87312 43.5467 3.52796 43.765 4.61936L43.765 4.61936C43.9833 5.71076 43.3284 7.02044 42.237 7.23872L42.237 7.23872C42.0187 7.23872 41.8005 7.23872 41.8005 7.23872L41.8005 7.23872C40.4908 7.23872 39.6177 6.58388 39.3994 5.71076ZM47.9123 4.1828C47.9123 2.87312 48.7854 2 50.0951 2L50.0951 2L50.0951 2L50.0951 2C51.1865 2 52.2779 2.87312 52.2779 4.1828L52.2779 4.1828C52.2779 5.2742 51.1865 6.3656 50.0951 6.3656L50.0951 6.3656C49.0037 6.3656 47.9123 5.2742 47.9123 4.1828Z" filter="url(#Filter_3)" layerName="path 4" shadowAngle="-1.504" shadowColor="#ffffff" shadowOffset="0" shadowOpacity=".8" shadowRadius="5.868"/></g></g></svg>