<svg width="100%" height="100%" viewBox="0 0 100 100" stroke-miterlimit="10" style="fill-rule:nonzero;clip-rule:evenodd;stroke-linecap:round;stroke-linejoin:round;" version="1.1" xml:space="preserve" xmlns="http://www.w3.org/2000/svg" xmlns:xlink="http://www.w3.org/1999/xlink">
<defs>
<filter color-interpolation-filters="sRGB" filterUnits="userSpaceOnUse" height="106.447" id="sh1" width="106.488" x="-2.80199" y="-2.0088"><feDropShadow dx="0.442053" dy="1.21453" flood-color="#000" flood-opacity="0.71" in="SourceGraphic" result="Shadow" stdDeviation="1.49762"/></filter>
<filter color-interpolation-filters="sRGB" filterUnits="userSpaceOnUse" height="101.479" id="sh2" width="100.081" x="3.59335" y="2.69184"><feDropShadow dx="0.442053" dy="1.21453" flood-color="#000" flood-opacity="0.71" in="SourceGraphic" result="Shadow" stdDeviation="1.49762"/></filter>
<filter color-interpolation-filters="sRGB" filterUnits="userSpaceOnUse" height="30.9939" id="sh3" width="30.2947" x="23.5114" y="24.0617"><feDropShadow dx="0.442053" dy="1.21453" flood-color="#000" flood-opacity="0.71" in="SourceGraphic" result="Shadow" stdDeviation="1.49762"/></filter>
<filter color-interpolation-filters="sRGB" filterUnits="userSpaceOnUse" height="31.0131" id="sh4" width="30.2737" x="46.3723" y="48.1743"><feDropShadow dx="0.442053" dy="1.21453" flood-color="#000" flood-opacity="0.71" in="SourceGraphic" result="Shadow" stdDeviation="1.49762"/></filter>
</defs>
<g>
<g opacity="1"><path opacity="1" d="M7.21633 6.78858C16.1508-1.74962 31.3729-0.692844 41.8703 9.19108L47.0937 14.4553C57.0401 25.2567 57.6704 40.2629 48.7357 48.7978C39.7362 57.4016 24.227 56.1273 14.1606 45.9435L9.16734 40.8686C-0.899046 30.6848-1.78976 15.3918 7.21633 6.78858ZM16.9902 16.6849C12.8303 20.6603 13.2496 27.7499 17.927 32.4819L22.9406 37.5364C27.618 42.2683 34.8221 42.9031 38.9851 38.9248C43.1885 34.9078 42.7946 27.7492 38.104 22.6527L33.2767 17.7847C28.4328 13.2323 21.1967 12.665 16.9902 16.6849ZM51.2061 51.2683C60.1375 42.733 75.3422 43.8072 85.8397 53.6912L91.0631 58.9554C101.01 69.76 101.657 84.7423 92.7255 93.2775C83.7226 101.881 68.2133 100.603 58.1504 90.4232L53.1134 85.3454C43.047 75.1616 42.2 59.8715 51.2061 51.2683ZM60.9567 61.1413C56.7937 65.1197 57.2191 72.2034 61.8934 76.9382L66.91 82.0365C71.5874 86.7684 78.7714 87.3802 82.9312 83.4016C87.1376 79.3817 86.7843 72.2289 82.0937 67.1324L77.2665 62.2643C72.4222 57.7056 65.1632 57.1214 60.9567 61.1413Z" fill="#1976d2" fill-rule="nonzero" filter="url(#sh1)" stroke="none" stroke-linecap="butt" stroke-linejoin="miter" stroke-width="1"/>
<path opacity="1" d="M48.9253 40.0939L38.581 29.1318C36.1032 26.5137 31.973 26.3998 29.3515 28.8775C26.7366 31.3553 26.6228 35.4888 29.0973 38.1036L39.7678 49.3775L48.9253 40.0939Z" fill="#01fbff" fill-rule="nonzero" filter="url(#sh3)" stroke="none" stroke-linecap="butt" stroke-linejoin="miter" stroke-width="1"/>
<path opacity="1" d="M50.369 60.6774L60.6778 71.6729C63.1471 74.299 67.2769 74.4262 69.9064 71.957C72.5293 69.4877 72.6565 65.3546 70.1904 62.7318L59.5565 51.4233L50.369 60.6774Z" fill="#01fbff" fill-rule="nonzero" filter="url(#sh4)" stroke="none" stroke-linecap="butt" stroke-linejoin="miter" stroke-width="1"/>
<path opacity="1" d="M93.1389 6.24994L7.93883 92.515C7.22986 93.2328 7.21221 94.4135 7.8994 95.1523L10.6849 98.1466C11.3721 98.8853 12.5041 98.9023 13.2132 98.1846L98.4456 11.9192C99.1548 11.2015 99.1707 10.0226 98.4812 9.28606L95.671 6.28388C94.9815 5.54731 93.8479 5.5321 93.1389 6.24994Z" fill="#c00000" fill-rule="nonzero" filter="url(#sh2)" stroke="none" stroke-linecap="butt" stroke-linejoin="miter" stroke-width="1"/>
</g></g>
</svg>