<svg width="100%" height="100%" viewBox="0 0 100 100" xml:space="preserve" xmlns="http://www.w3.org/2000/svg" xmlns:vectornator="http://vectornator.io" xmlns:xlink="http://www.w3.org/1999/xlink">
<defs>
<linearGradient gradientTransform="matrix(0.976659 0 0 0.976659 1.16705 1.16705)" gradientUnits="userSpaceOnUse" id="LinearGradient" x1="50.897" x2="74.5675" y1="76.2578" y2="-6.23841">
<stop offset="0" stop-color="#fffd00"/>
<stop offset="1" stop-color="#fffd00"/>
</linearGradient>
<filter color-interpolation-filters="sRGB" filterUnits="userSpaceOnUse" height="104.227" id="Filter" width="90.75" x="4.62498" y="-1.17857">
<feDropShadow dx="5.72524e-17" dy="0.935003" flood-color="#000000" flood-opacity="0.6" in="SourceGraphic" result="Shadow" stdDeviation="1.4025"/>
</filter>
<filter color-interpolation-filters="sRGB" filterUnits="userSpaceOnUse" height="41.8438" id="Filter_2" width="36.4827" x="31.7586" y="30.0355">
<feDropShadow dx="5.86207e-17" dy="0.957349" flood-color="#000000" flood-opacity="0.6" in="SourceGraphic" result="Shadow" stdDeviation="1.43602"/>
</filter>
</defs>
<g opacity="1" layerName="Group 15">
<path d="M27.0265 2.86769C23.892 2.97563 20.7477 3.94164 17.9929 5.8581L16.3108 7.01066C12.8274 9.40324 10.4817 13.1195 9.80046 17.2902C9.11936 21.461 10.1561 25.7195 12.6974 29.0961L24.3787 44.6089C28.7548 50.2572 36.2343 52.4943 43.0065 50.2159L43.8475 51.3373C39.5138 56.8474 39.4241 64.5979 43.6606 70.1831L59.1111 90.6487C64.6047 97.7185 74.6697 99.2381 82.0064 94.1064L83.6885 92.9538C87.1707 90.5639 89.5147 86.8419 90.1989 82.6743C90.8832 78.5067 89.8371 74.2462 87.302 70.8684L71.8827 50.4028C67.3488 44.5511 59.512 42.3619 52.6007 45.0138L51.9466 44.1728C56.6906 38.675 56.9542 30.5859 52.5696 24.7974L40.9194 9.34692C37.4825 4.93441 32.2506 2.6878 27.0265 2.86769ZM29.3627 8.22551C32.1097 8.64496 34.6985 10.0731 36.5273 12.4308L48.2086 27.8812C50.8242 31.3266 50.9995 36.0585 48.6447 39.6871L39.5488 45.6057C35.4809 46.3322 31.3562 44.7354 28.8332 41.4627L17.1519 26.0122C15.4516 23.7595 14.7644 20.9167 15.2206 18.1313C15.6768 15.3459 17.2513 12.8708 19.5816 11.2782L21.2637 10.0945C23.7128 8.3901 26.6158 7.80607 29.3627 8.22551ZM59.2046 49.2191C62.4048 49.3815 65.4433 50.9241 67.4593 53.5489L82.8786 74.0457C84.5576 76.2934 85.2643 79.1272 84.81 81.8956C84.3557 84.664 82.7893 87.1242 80.4801 88.7174L78.8291 89.87C73.9349 93.2894 67.1937 92.2825 63.5344 87.5649L48.1151 67.0992C45.6846 63.8728 45.3834 59.5146 47.3364 55.9786L55.9649 49.5306C57.0361 49.2665 58.1378 49.1649 59.2046 49.2191Z" fill="url(#LinearGradient)" filter="url(#Filter)" stroke="#fffc00" stroke-linecap="butt" stroke-linejoin="round" stroke-width="2.92998" layerName="Curve 1" shadowAngle="1.5708" shadowColor="#000000" shadowOffset="0.935003" shadowOpacity="0.6" shadowRadius="2.80501"/>
<path d="M62.2536 66.0834C64.3322 64.479 65.5029 60.8808 63.9107 58.7908L45.1702 34.1923C43.5778 32.1023 39.8264 32.3102 37.7451 33.9166C35.6685 35.5236 34.4977 39.1218 36.088 41.2092L54.8285 65.8077C56.4208 67.8978 60.1723 67.6898 62.2536 66.0834Z" fill="#01fbff" filter="url(#Filter_2)" layerName="path 1" shadowAngle="1.5708" shadowColor="#000000" shadowOffset="0.957349" shadowOpacity="0.6" shadowRadius="2.87205"/>
</g>
</svg>