<svg width="100%" height="100%" viewBox="0 0 100 100" stroke-miterlimit="10" style="fill-rule:nonzero;clip-rule:evenodd;stroke-linecap:round;stroke-linejoin:round;" version="1.1" xml:space="preserve" xmlns="http://www.w3.org/2000/svg" xmlns:xlink="http://www.w3.org/1999/xlink">
<defs>
<filter color-interpolation-filters="sRGB" filterUnits="userSpaceOnUse" height="105.447" id="Filter_Link.Broken.SlashMark.Pink.Blue" width="105.488" x="-2.6314" y="-1.43577"><feDropShadow dx="0.112647" dy="1.28756" flood-color="#000000" flood-opacity="0.71" in="SourceGraphic" result="Shadow" stdDeviation="1.49762"/></filter>
<filter color-interpolation-filters="sRGB" filterUnits="userSpaceOnUse" height="53.6162" id="Filter_Link.Broken.SlashMark.Pink.Blue_2" width="53.3221" x="23.4516" y="24.4795">
<feDropShadow dx="0.112647" dy="1.28756" flood-color="#000" flood-opacity="0.71" in="SourceGraphic" result="Shadow" stdDeviation="1.49762"/></filter>
<filter color-interpolation-filters="sRGB" filterUnits="userSpaceOnUse" height="29.8055" id="Filter_Link.Broken.SlashMark.Pink.Blue_3" width="29.0909" x="46.8108" y="49.865">
<feDropShadow dx="0.191743" dy="2.19163" flood-color="#000" flood-opacity="0.71" in="SourceGraphic" result="Shadow" stdDeviation="1.5"/></filter>
<filter color-interpolation-filters="sRGB" filterUnits="userSpaceOnUse" height="29.8055" id="Filter_Link.Broken.SlashMark.Pink.Blue_4" width="29.0909" x="23.7701" y="25.519">
<feDropShadow dx="0.191743" dy="2.19163" flood-color="#000" flood-opacity="0.71" in="SourceGraphic" result="Shadow" stdDeviation="1.5"/></filter>
<filter color-interpolation-filters="sRGB" filterUnits="userSpaceOnUse" height="98.5039" id="Filter_Link.Broken.SlashMark.Pink.Blue_5" width="96.5935" x="3.92239" y="3.73137">
<feDropShadow dx="0.0809852" dy="0.925665" flood-color="#000" flood-opacity="0.71" in="SourceGraphic" result="Shadow" stdDeviation="1.05175"/></filter>
</defs>
<g opacity="1">
<path opacity="1" d="M7.21633 6.78858C16.1508-1.74962 31.3729-0.692844 41.8703 9.19108L47.0937 14.4553C57.0401 25.2567 57.6704 40.2629 48.7357 48.7978C39.7362 57.4016 24.227 56.1273 14.1606 45.9435L9.16734 40.8686C-0.899046 30.6848-1.78976 15.3918 7.21633 6.78858ZM16.9902 16.6849C12.8303 20.6603 13.2496 27.7499 17.927 32.4819L22.9406 37.5364C27.618 42.2683 34.8221 42.9031 38.9851 38.9248C43.1885 34.9078 42.7946 27.7492 38.104 22.6527L33.2767 17.7847C28.4328 13.2323 21.1967 12.665 16.9902 16.6849ZM51.2061 51.2683C60.1375 42.733 75.3422 43.8072 85.8397 53.6912L91.0631 58.9554C101.01 69.76 101.657 84.7423 92.7255 93.2775C83.7226 101.881 68.2133 100.603 58.1504 90.4232L53.1134 85.3454C43.047 75.1616 42.2 59.8715 51.2061 51.2683ZM60.9567 61.1413C56.7937 65.1197 57.2191 72.2034 61.8934 76.9382L66.91 82.0365C71.5874 86.7684 78.7714 87.3802 82.9312 83.4016C87.1376 79.3817 86.7843 72.2289 82.0937 67.1324L77.2665 62.2643C72.4222 57.7056 65.1632 57.1214 60.9567 61.1413Z" fill="#f0f" fill-rule="nonzero" filter="url(#Filter_Link.Broken.SlashMark.Pink.Blue)" stroke="none"/>
<path opacity="1" d="M50.369 60.6774L60.6778 71.6729C63.1471 74.299 67.2769 74.4262 69.9064 71.957C72.5293 69.4877 72.6565 65.3546 70.1904 62.7318L59.5565 51.4233L50.369 60.6774Z" fill="#01fbff" fill-rule="nonzero" filter="url(#Filter_Link.Broken.SlashMark.Pink.Blue_3)" stroke="none" shadowAngle="1.48353" shadowColor="#000" shadowOffset="2.2" shadowOpacity="0.71" shadowRadius="3"/>
<path opacity="1" d="M48.9192 40.1288L38.6104 29.1333C36.1411 26.5072 32.0113 26.38 29.3818 28.8492C26.7589 31.3185 26.6317 35.4516 29.0978 38.0744L39.7317 49.3828L48.9192 40.1288Z" fill="#01fbff" fill-rule="nonzero" filter="url(#Filter_Link.Broken.SlashMark.Pink.Blue_4)" stroke="none" shadowAngle="1.48353" shadowColor="#000" shadowOffset="2.2" shadowOpacity="0.71" shadowRadius="3"/>
<path opacity="1" d="M91.943 5.96754L7.01013 92.4957C6.30338 93.2157 6.28938 94.3965 6.97885 95.1331L9.77364 98.1188C10.4631 98.8554 11.5951 98.8689 12.302 98.149L97.2672 11.6204C97.9741 10.9005 97.9864 9.72157 97.2946 8.98712L94.4752 5.99365C93.7834 5.25921 92.6497 5.24751 91.943 5.96754Z" fill="#c00000" fill-rule="nonzero" filter="url(#Filter_Link.Broken.SlashMark.Pink.Blue_5)" stroke="none" shadowAngle="1.48353" shadowColor="#000" shadowOffset="0.929201" shadowOpacity="0.71" shadowRadius="2.10349"/>
</g>
</svg>