<svg xmlns="http://www.w3.org/2000/svg" width="100%" height="100%" fill="none" viewBox="0 0 32 32"><g filter="url(#filter0_i_18_23511)"><path stroke="#C2C2C6" stroke-width="2.75" d="M10.9531 14.1406V8.57812C10.9531 5.80807 13.1987 3.5625 15.9688 3.5625C18.7388 3.5625 20.9844 5.80807 20.9844 8.57812V14.1406"/></g><path stroke="url(#paint0_radial_18_23511)" stroke-width="2.75" d="M10.9531 14.1406V8.57812C10.9531 5.80807 13.1987 3.5625 15.9688 3.5625C18.7388 3.5625 20.9844 5.80807 20.9844 8.57812V14.1406"/><g filter="url(#filter1_f_18_23511)"><path stroke="url(#paint1_radial_18_23511)" d="M11.3438 14.1406V8.38093C11.3438 5.51268 13.6383 3.1875 16.4687 3.1875C19.2992 3.1875 21.5937 5.51268 21.5937 8.38093V14.1406"/><path stroke="url(#paint2_radial_18_23511)" d="M11.3438 14.1406V8.38093C11.3438 5.51268 13.6383 3.1875 16.4687 3.1875C19.2992 3.1875 21.5937 5.51268 21.5937 8.38093V14.1406"/></g><g filter="url(#filter2_iiii_18_23511)"><rect width="21.938" height="18.844" x="5.031" y="11.125" fill="url(#paint3_linear_18_23511)" rx="3"/></g><rect width="21.938" height="18.844" x="5.031" y="11.125" fill="url(#paint4_radial_18_23511)" rx="3"/><rect width="21.938" height="18.844" x="5.031" y="11.125" fill="url(#paint5_linear_18_23511)" rx="3"/><rect width="21.938" height="18.844" x="5.031" y="11.125" fill="url(#paint6_radial_18_23511)" rx="3"/><g filter="url(#filter3_f_18_23511)"><path stroke="url(#paint7_linear_18_23511)" stroke-width="1.75" d="M17.3984 20.4619C18.1176 19.9977 18.5938 19.1892 18.5938 18.2695C18.5938 16.8295 17.4264 15.6621 15.9863 15.6621C14.5463 15.6621 13.3789 16.8295 13.3789 18.2695C13.3789 19.2008 13.8671 20.018 14.6016 20.4793V23.7735C14.6016 24.5458 15.2277 25.1719 16 25.1719C16.7723 25.1719 17.3984 24.5458 17.3984 23.7735V20.4619Z"/><path stroke="url(#paint8_linear_18_23511)" stroke-width="1.75" d="M17.3984 20.4619C18.1176 19.9977 18.5938 19.1892 18.5938 18.2695C18.5938 16.8295 17.4264 15.6621 15.9863 15.6621C14.5463 15.6621 13.3789 16.8295 13.3789 18.2695C13.3789 19.2008 13.8671 20.018 14.6016 20.4793V23.7735C14.6016 24.5458 15.2277 25.1719 16 25.1719C16.7723 25.1719 17.3984 24.5458 17.3984 23.7735V20.4619Z"/></g><path fill="url(#paint9_radial_18_23511)" d="M17.3984 20.4619C18.1176 19.9977 18.5938 19.1892 18.5938 18.2695C18.5938 16.8295 17.4264 15.6621 15.9863 15.6621C14.5463 15.6621 13.3789 16.8295 13.3789 18.2695C13.3789 19.2008 13.8671 20.018 14.6016 20.4793V23.7735C14.6016 24.5458 15.2277 25.1719 16 25.1719C16.7723 25.1719 17.3984 24.5458 17.3984 23.7735V20.4619Z"/><defs><filter id="filter0_i_18_23511" width="13.781" height="11.953" x="9.578" y="2.188" color-interpolation-filters="sRGB" filterUnits="userSpaceOnUse"><feFlood flood-opacity="0" result="BackgroundImageFix"/><feBlend in="SourceGraphic" in2="BackgroundImageFix" mode="normal" result="shape"/><feColorMatrix in="SourceAlpha" result="hardAlpha" type="matrix" values="0 0 0 0 0 0 0 0 0 0 0 0 0 0 0 0 0 0 127 0"/><feOffset dx="1"/><feGaussianBlur stdDeviation=".5"/><feComposite in2="hardAlpha" k2="-1" k3="1" operator="arithmetic"/><feColorMatrix type="matrix" values="0 0 0 0 0.560784 0 0 0 0 0.556863 0 0 0 0 0.576471 0 0 0 1 0"/><feBlend in2="shape" mode="normal" result="effect1_innerShadow_18_23511"/></filter><filter id="filter1_f_18_23511" width="12.75" height="12.953" x="10.094" y="1.938" color-interpolation-filters="sRGB" filterUnits="userSpaceOnUse"><feFlood flood-opacity="0" result="BackgroundImageFix"/><feBlend in="SourceGraphic" in2="BackgroundImageFix" mode="normal" result="shape"/><feGaussianBlur result="effect1_foregroundBlur_18_23511" stdDeviation=".375"/></filter><filter id="filter2_iiii_18_23511" width="23.438" height="20.344" x="4.281" y="10.375" color-interpolation-filters="sRGB" filterUnits="userSpaceOnUse"><feFlood flood-opacity="0" result="BackgroundImageFix"/><feBlend in="SourceGraphic" in2="BackgroundImageFix" mode="normal" result="shape"/><feColorMatrix in="SourceAlpha" result="hardAlpha" type="matrix" values="0 0 0 0 0 0 0 0 0 0 0 0 0 0 0 0 0 0 127 0"/><feOffset dy="-.75"/><feGaussianBlur stdDeviation=".375"/><feComposite in2="hardAlpha" k2="-1" k3="1" operator="arithmetic"/><feColorMatrix type="matrix" values="0 0 0 0 0.898039 0 0 0 0 0.364706 0 0 0 0 0.423529 0 0 0 1 0"/><feBlend in2="shape" mode="normal" result="effect1_innerShadow_18_23511"/><feColorMatrix in="SourceAlpha" result="hardAlpha" type="matrix" values="0 0 0 0 0 0 0 0 0 0 0 0 0 0 0 0 0 0 127 0"/><feOffset dx="-1"/><feGaussianBlur stdDeviation=".375"/><feComposite in2="hardAlpha" k2="-1" k3="1" operator="arithmetic"/><feColorMatrix type="matrix" values="0 0 0 0 1 0 0 0 0 0.772549 0 0 0 0 0.364706 0 0 0 1 0"/><feBlend in2="effect1_innerShadow_18_23511" mode="normal" result="effect2_innerShadow_18_23511"/><feColorMatrix in="SourceAlpha" result="hardAlpha" type="matrix" values="0 0 0 0 0 0 0 0 0 0 0 0 0 0 0 0 0 0 127 0"/><feOffset dy="1"/><feGaussianBlur stdDeviation=".375"/><feComposite in2="hardAlpha" k2="-1" k3="1" operator="arithmetic"/><feColorMatrix type="matrix" values="0 0 0 0 1 0 0 0 0 0.843137 0 0 0 0 0.266667 0 0 0 1 0"/><feBlend in2="effect2_innerShadow_18_23511" mode="normal" result="effect3_innerShadow_18_23511"/><feColorMatrix in="SourceAlpha" result="hardAlpha" type="matrix" values="0 0 0 0 0 0 0 0 0 0 0 0 0 0 0 0 0 0 127 0"/><feOffset dx=".75"/><feGaussianBlur stdDeviation=".375"/><feComposite in2="hardAlpha" k2="-1" k3="1" operator="arithmetic"/><feColorMatrix type="matrix" values="0 0 0 0 0.729412 0 0 0 0 0.478431 0 0 0 0 0.207843 0 0 0 1 0"/><feBlend in2="effect3_innerShadow_18_23511" mode="normal" result="effect4_innerShadow_18_23511"/></filter><filter id="filter3_f_18_23511" width="7.965" height="12.26" x="12.004" y="14.287" color-interpolation-filters="sRGB" filterUnits="userSpaceOnUse"><feFlood flood-opacity="0" result="BackgroundImageFix"/><feBlend in="SourceGraphic" in2="BackgroundImageFix" mode="normal" result="shape"/><feGaussianBlur result="effect1_foregroundBlur_18_23511" stdDeviation=".25"/></filter><radialGradient id="paint0_radial_18_23511" cx="0" cy="0" r="1" gradientTransform="translate(15.9687 7.65625) rotate(-90) scale(4.84375 5.28858)" gradientUnits="userSpaceOnUse"><stop offset=".531" stop-color="#AB83C0"/><stop offset="1" stop-color="#CBBBDC" stop-opacity="0"/></radialGradient><radialGradient id="paint1_radial_18_23511" cx="0" cy="0" r="1" gradientTransform="translate(21.8993 4.59375) rotate(136.74) scale(5.24397 7.20331)" gradientUnits="userSpaceOnUse"><stop offset=".216" stop-color="#EDECF3"/><stop offset="1" stop-color="#EDECF3" stop-opacity="0"/></radialGradient><radialGradient id="paint2_radial_18_23511" cx="0" cy="0" r="1" gradientTransform="translate(12.5505 12.6562) rotate(-90) scale(7.125 5.16319)" gradientUnits="userSpaceOnUse"><stop stop-color="#EDECF3"/><stop offset="1" stop-color="#EDECF3" stop-opacity="0"/></radialGradient><linearGradient id="paint3_linear_18_23511" x1="10.156" x2="17.094" y1="14.188" y2="29.969" gradientUnits="userSpaceOnUse"><stop stop-color="#FFC74E"/><stop offset="1" stop-color="#F7864E"/></linearGradient><radialGradient id="paint4_radial_18_23511" cx="0" cy="0" r="1" gradientTransform="translate(26.4063 29.9687) rotate(-132.274) scale(3.25195 7.57598)" gradientUnits="userSpaceOnUse"><stop stop-color="#FF8650"/><stop offset="1" stop-color="#FF8650" stop-opacity="0"/></radialGradient><linearGradient id="paint5_linear_18_23511" x1="16" x2="16" y1="10.813" y2="12.313" gradientUnits="userSpaceOnUse"><stop stop-color="#F3D04E"/><stop offset="1" stop-color="#F3D04E" stop-opacity="0"/></linearGradient><radialGradient id="paint6_radial_18_23511" cx="0" cy="0" r="1" gradientTransform="translate(26.6562 11.125) rotate(126.254) scale(2.32513 5.25171)" gradientUnits="userSpaceOnUse"><stop stop-color="#FFF760"/><stop offset="1" stop-color="#FFF760" stop-opacity="0"/></radialGradient><linearGradient id="paint7_linear_18_23511" x1="19.125" x2="15.25" y1="21.75" y2="21.75" gradientUnits="userSpaceOnUse"><stop offset=".331" stop-color="#D98A40"/><stop offset="1" stop-color="#D98A40" stop-opacity="0"/></linearGradient><linearGradient id="paint8_linear_18_23511" x1="12.875" x2="15.594" y1="20.813" y2="20.813" gradientUnits="userSpaceOnUse"><stop stop-color="#FFCD63"/><stop offset="1" stop-color="#FFCD63" stop-opacity="0"/></linearGradient><radialGradient id="paint9_radial_18_23511" cx="0" cy="0" r="1" gradientTransform="translate(13.3789 18.6875) rotate(34.0609) scale(5.69121 7.82719)" gradientUnits="userSpaceOnUse"><stop offset=".217" stop-color="#564F80"/><stop offset="1" stop-color="#473154"/></radialGradient></defs></svg>