<svg width="100%" height="100%" viewBox="0 0 696 452" stroke-miterlimit="10" style="fill-rule:nonzero;clip-rule:evenodd;stroke-linecap:round;stroke-linejoin:round;" version="1.1" xml:space="preserve" xmlns="http://www.w3.org/2000/svg" xmlns:xlink="http://www.w3.org/1999/xlink"><defs><linearGradient id="LG" gradientTransform="matrix(390.21 20.5168 19.7522 -366.371 6.8877 179.275)" gradientUnits="userSpaceOnUse" x1="0" x2="1" y1="0" y2="0"><stop offset="0" stop-color="#fff"/><stop offset="0.497368" stop-color="#7c7c7c" stop-opacity="0.66"/><stop offset="1" stop-color="#4d4d4d" stop-opacity="0.2"/></linearGradient><linearGradient id="LG_2" gradientTransform="matrix(381.855 20.5168 19.3293 -366.371 6.80446 179.275)" gradientUnits="userSpaceOnUse" x1="0" x2="1" y1="0" y2="0"><stop offset="0" stop-color="#fff"/><stop offset="0.497368" stop-color="#7c7c7c" stop-opacity="0.66"/><stop offset="1" stop-color="#4d4d4d" stop-opacity="0.2"/></linearGradient><linearGradient id="LG_3" gradientTransform="matrix(406.861 21.1864 20.5951 -378.327 -6.37643 171.295)" gradientUnits="userSpaceOnUse" x1="0" x2="1" y1="0" y2="0"><stop offset="0" stop-color="#e6e6e6"/><stop offset="0.507895" stop-color="#808080" stop-opacity="0.5"/><stop offset="1" stop-color="#4d4d4d" stop-opacity="0.35"/></linearGradient><linearGradient id="LG_4" gradientTransform="matrix(387.531 21.1259 19.6167 -377.248 328.117 195.515)" gradientUnits="userSpaceOnUse" x1="0" x2="1" y1="0" y2="0"><stop offset="0" stop-color="#fff" stop-opacity="0.8"/><stop offset="0.497368" stop-color="#7c7c7c" stop-opacity="0.66"/><stop offset="1" stop-color="#4d4d4d" stop-opacity="0.2"/></linearGradient><linearGradient id="LG_5" gradientTransform="matrix(389.099 20.797 19.696 -371.375 331.025 196.081)" gradientUnits="userSpaceOnUse" x1="0" x2="1" y1="0" y2="0"><stop offset="0" stop-color="#fff" stop-opacity="0.8"/><stop offset="0.497368" stop-color="#7c7c7c" stop-opacity="0.66"/><stop offset="1" stop-color="#4d4d4d" stop-opacity="0.2"/></linearGradient><linearGradient id="LG_6" gradientTransform="matrix(386.672 21.1199 19.5732 -377.141 327.873 195.526)" gradientUnits="userSpaceOnUse" x1="0" x2="1" y1="0" y2="0"><stop offset="0" stop-color="#fff" stop-opacity="0.8"/><stop offset="0.497368" stop-color="#7c7c7c" stop-opacity="0.66"/><stop offset="1" stop-color="#4d4d4d" stop-opacity="0.2"/></linearGradient><linearGradient id="LG_7" gradientTransform="matrix(403.307 21.835 20.4152 -389.91 321.447 194.295)" gradientUnits="userSpaceOnUse" x1="0" x2="1" y1="0" y2="0"><stop offset="0" stop-color="#e6e6e6" stop-opacity="0.8"/><stop offset="0.477632" stop-color="#808080" stop-opacity="0.5"/><stop offset="1" stop-color="#333" stop-opacity="0.2"/></linearGradient><linearGradient id="LG_8" gradientTransform="matrix(400.55 21.214 20.2757 -378.82 324.639 195.364)" gradientUnits="userSpaceOnUse" x1="0" x2="1" y1="0" y2="0"><stop offset="0" stop-color="#e6e6e6" stop-opacity="0.8"/><stop offset="0.477632" stop-color="#808080" stop-opacity="0.5"/><stop offset="1" stop-color="#333" stop-opacity="0.2"/></linearGradient><linearGradient id="LG_9" gradientTransform="matrix(386.899 21.106 19.5847 -376.893 320.848 186.907)" gradientUnits="userSpaceOnUse" x1="0" x2="1" y1="0" y2="0"><stop offset="0" stop-color="#fff" stop-opacity="0.8"/><stop offset="0.497368" stop-color="#7c7c7c" stop-opacity="0.66"/><stop offset="1" stop-color="#4d4d4d" stop-opacity="0.2"/></linearGradient></defs><g ><g opacity="1"><g opacity="1"><g opacity="1"><path fill="url(#LG)" fill-rule="nonzero" opacity="0.3" stroke="none" d="M189.306 28.0989C109.249 28.0989 50.3449 64.8945 16.5052 128.651C13.3599 134.577 15.5517 141.855 21.4911 145.198L77.3969 176.668C83.7648 180.252 91.9275 177.933 95.3005 171.58C115.299 133.915 145.018 108.014 179.783 108.014C200.852 108.014 216.8 113.909 227.423 123.436C237.989 132.913 244.404 146.806 244.404 165.843L244.404 205.785L142.303 205.785C99.0103 205.785 64.2707 217.376 40.1209 236.906C15.9342 256.466 2.99999 283.709 3 312.684C3 379.435 64.7762 420.195 142.303 420.195C185.427 420.195 225.656 408.761 267.841 386.791C281.336 402.497 299.887 417.357 323.167 423.468C327.556 424.62 332.246 423.439 335.505 420.361L381.88 376.552C388.306 370.482 386.543 360.053 378.453 356.303C353.305 344.647 341.944 328.89 341.944 309.594L341.944 159.677C341.944 118.869 326.152 85.2541 298.507 62.3902C270.994 39.6352 232.863 28.0989 189.306 28.0989ZM143.568 280.763L244.404 280.763L244.404 314.523C214.053 330.17 181.617 339.661 147.379 339.661C115.854 339.661 104.35 323.693 104.35 311.448C104.35 303.08 107.145 295.77 112.723 290.455C118.266 285.173 127.631 280.763 143.568 280.763Z"/><path fill="url(#LG_2)" fill-rule="nonzero" opacity="0.502513" stroke="none" d="M185.317 28.0989C106.974 28.0989 49.3312 64.8945 16.216 128.651C13.1381 134.577 15.283 141.855 21.0952 145.198L75.804 176.668C82.0355 180.252 90.0234 177.933 93.3242 171.58C112.894 133.915 141.977 108.014 175.998 108.014C196.616 108.014 212.223 113.909 222.618 123.436C232.958 132.913 239.236 146.806 239.236 165.843L239.236 205.785L139.321 205.785C96.9546 205.785 62.9588 217.376 39.3261 236.906C15.6573 256.466 2.99999 283.709 3 312.684C3 379.435 63.4535 420.195 139.321 420.195C181.521 420.195 220.889 408.761 262.17 386.791C275.377 402.497 293.53 417.357 316.312 423.468C320.607 424.62 325.197 423.439 328.386 420.361L373.768 376.552C380.056 370.482 378.331 360.053 370.414 356.303C345.805 344.647 334.687 328.89 334.687 309.594L334.687 159.677C334.687 118.869 319.233 85.2541 292.18 62.3902C265.256 39.6352 227.941 28.0989 185.317 28.0989ZM140.559 280.763L239.236 280.763L239.236 314.523C209.535 330.17 177.792 339.661 144.288 339.661C113.437 339.661 102.18 323.693 102.18 311.448C102.18 303.08 104.915 295.77 110.373 290.455C115.798 285.173 124.963 280.763 140.559 280.763Z"/><path fill="url(#LG_3)" fill-rule="nonzero" opacity="0.296482" stroke="none" d="M190.543 28.0989C109.395 28.0989 50.5341 64.6205 16.3327 128.438C14.693 131.498 15.8399 135.256 18.9363 136.982L77.2277 169.47C80.5476 171.321 84.8031 170.124 86.5615 166.843C107.917 127.009 140.631 97.7167 180.614 97.7167C203.852 97.7167 222.271 104.182 234.847 115.352C247.393 126.497 254.706 142.743 254.706 163.881L254.706 211.583L141.535 211.583C97.6026 211.583 63.015 223.22 39.2886 242.223C15.5429 261.241 3.00001 287.494 3 315.515C3 379.604 62.6988 420.077 141.535 420.076C186.868 420.076 229.048 407.793 274.139 383.782C287.857 400.8 307.423 417.323 331.869 423.677C334.157 424.272 336.602 423.663 338.301 422.073L386.655 376.843C390.005 373.709 389.086 368.32 384.868 366.384C357.185 353.676 342.981 335.346 342.981 312.323L342.981 157.514C342.981 117.013 327.302 84.2877 300.056 61.9708C272.878 39.71 234.778 28.0989 190.543 28.0989ZM142.853 276.094L254.706 276.094L254.706 321.251C221.304 338.884 185.19 349.829 146.827 349.829C111.514 349.829 95.2572 331.391 95.2572 314.238C95.2572 304.184 98.6988 294.829 105.995 287.944C113.273 281.076 124.94 276.094 142.853 276.094Z"/></g><g opacity="1"><path fill="url(#LG_4)" fill-rule="nonzero" opacity="0.15" stroke="none" d="M339.245 39.8475C335.833 39.8475 333.067 42.6132 333.067 46.0248L333.067 115.33C333.067 118.741 335.833 121.507 339.245 121.507L516.288 121.507L326.944 371.992C325.201 374.297 324.259 377.107 324.259 379.996L324.259 410.63C324.259 417.959 330.2 423.901 337.53 423.901L675.362 423.901C682.691 423.901 688.633 417.959 688.633 410.63L688.633 355.513C688.633 348.183 682.691 342.242 675.362 342.242L470.062 342.242L662.62 86.6512C664.355 84.3491 665.293 81.545 665.293 78.6627L665.293 53.1188C665.293 45.7893 659.351 39.8475 652.022 39.8475L339.245 39.8475Z"/><path fill="url(#LG_5)" fill-rule="nonzero" opacity="0.15" stroke="none" d="M342.077 42.8372C338.719 42.8372 335.996 45.5597 335.996 48.9182L335.996 117.144C335.996 120.503 338.719 123.225 342.077 123.225L519.958 123.225L329.87 369.781C328.108 372.067 327.152 374.873 327.152 377.759L327.152 407.847C327.152 415.062 333.001 420.911 340.216 420.911L679.935 420.911C687.151 420.911 693 415.062 693 407.847L693 353.588C693 346.373 687.151 340.523 679.935 340.523L473.545 340.523L666.859 88.9418C668.614 86.6582 669.565 83.8588 669.565 80.9788L669.565 55.9018C669.565 48.6864 663.716 42.8372 656.501 42.8372L342.077 42.8372Z"/><path fill="url(#LG_6)" fill-rule="nonzero" opacity="0.2" stroke="none" d="M347.978 39.9021C340.435 39.9021 334.32 46.0171 334.32 53.5604L334.32 107.88C334.32 115.423 340.435 121.538 347.978 121.538L515.628 121.538L326.78 371.85C324.992 374.221 324.024 377.11 324.024 380.079L324.024 410.185C324.024 417.73 330.14 423.847 337.685 423.847L673.929 423.847C681.474 423.847 687.59 417.73 687.59 410.185L687.59 355.872C687.59 348.327 681.474 342.21 673.929 342.21L469.504 342.21L661.559 86.7947C663.339 84.4267 664.302 81.5442 664.302 78.5815L664.302 53.5635C664.302 46.0185 658.186 39.9021 650.641 39.9021L347.978 39.9021Z"/><path fill="url(#LG_7)" fill-rule="nonzero" opacity="0.15" stroke="none" d="M348.473 40.0568C344.801 40.0568 341.824 43.0334 341.824 46.7051L341.824 104.5C341.824 108.172 344.801 111.148 348.473 111.148L530.705 111.148L325.444 380.829C324.563 381.987 324.086 383.401 324.086 384.856L324.086 417.044C324.086 420.715 327.063 423.692 330.734 423.692L683.336 423.692C687.007 423.692 689.984 420.715 689.984 417.043L689.984 359.249C689.984 355.577 687.007 352.601 683.336 352.601L455.76 352.6L664.341 77.649C665.219 76.4923 665.694 75.0803 665.694 73.6285L665.694 46.7051C665.694 43.0334 662.717 40.0568 659.045 40.0568L348.473 40.0568Z"/><path fill="url(#LG_8)" fill-rule="nonzero" opacity="0.15" stroke="none" d="M351.337 45.5124C347.769 45.5124 344.877 48.4043 344.877 51.9716L344.877 108.123C344.877 111.69 347.769 114.582 351.337 114.582L532.467 114.582L328.622 376.576C327.739 377.711 327.26 379.107 327.26 380.544L327.26 411.777C327.26 415.344 330.152 418.236 333.719 418.236L684.198 418.236C687.765 418.236 690.657 415.344 690.657 411.777L690.657 355.626C690.657 352.059 687.765 349.167 684.198 349.167L458.034 349.167L665.177 82.0516C666.056 80.9184 666.533 79.525 666.533 78.091L666.533 51.9717C666.533 48.4043 663.641 45.5124 660.074 45.5124L351.337 45.5124Z"/><path fill="url(#LG_9)" fill-rule="nonzero" opacity="0.3" stroke="none" d="M346.33 44.2533C342.506 44.2533 339.405 47.3538 339.405 51.1784L339.405 108.612C339.405 112.438 342.507 115.539 346.333 115.539L526.684 115.539L331.165 374.38C330.256 375.582 329.765 377.048 329.765 378.555L329.765 410.713C329.765 414.539 332.866 417.641 336.693 417.641L676.406 417.64C680.232 417.64 683.334 414.539 683.334 410.713L683.334 353.285C683.334 349.457 680.231 346.355 676.403 346.355L459.933 346.355L658.638 82.4285C659.543 81.2273 660.032 79.7646 660.032 78.2611L660.032 51.181C660.032 47.355 656.93 44.2533 653.104 44.2533L346.33 44.2533Z"/></g></g></g></g></svg>