<svg width="100%" height="100%" viewBox="0 0 100 100" stroke-miterlimit="10" style="fill-rule:nonzero;clip-rule:evenodd;stroke-linecap:round;stroke-linejoin:round;" version="1.1" xml:space="preserve" xmlns="http://www.w3.org/2000/svg" xmlns:xlink="http://www.w3.org/1999/xlink">
<defs/>
<g id="Layer">
<g opacity="1">
<g opacity="1">
<g opacity="1">
	<path fill="#462b29" fill-rule="nonzero" opacity="0" stroke="none" d="M74.1961 69.308L73.7043 69.1417L72.8846 68.8092C71.0813 67.9777 58.786 63.8207 58.786 63.8207C57.9663 63.6544 57.3105 62.9892 56.9827 62.1578C56.6548 60.6613 56.4908 59.1647 56.6548 57.6682C54.5236 58.6659 52.3924 59.331 50.2612 59.8299C47.4743 60.1624 42.3922 56.3379 42.3922 56.3379C42.3922 56.3379 42.2283 60.9939 42.0644 61.9916C41.7365 62.823 41.0807 63.4881 40.0971 63.8207L28.2936 67.8115C27.1461 68.144 25.9985 68.6429 25.0149 69.1417C22.5558 70.8046 20.7525 73.4651 20.0968 76.2919L20.0968 76.2919C20.0968 76.6245 19.9329 76.957 19.9329 77.2896C19.7689 77.9547 19.441 90.2597 19.441 91.0911C23.3755 96.0796 35.4797 99.5 51.5456 99.5C58.5949 99.5 74.8518 93.7516 79.9339 90.5922C79.2781 76.1256 80.5896 71.3034 74.1961 69.308Z"/>
	<path fill="#dda983" fill-rule="nonzero" opacity="1" stroke="none" d="M73.0504 70.1582L72.5816 70.0019L71.8002 69.6893C70.0812 68.908 58.3606 65.0011 58.3606 65.0011C57.5793 64.8449 56.9542 64.2198 56.6416 63.4384C56.3291 62.0319 56.1728 60.6255 56.3291 59.219C54.2975 60.1566 52.266 60.7817 50.2344 61.2506C47.5778 61.5631 42.7333 57.9688 42.7333 57.9688C42.7333 57.9688 42.577 62.3445 42.4207 63.2821C42.1082 64.0635 41.4831 64.6886 40.5454 65.0011L29.2937 68.7517C28.1998 69.0642 27.1059 69.5331 26.1682 70.0019C23.8241 71.5646 22.1051 74.065 21.48 76.7217L21.48 76.7217C21.48 77.0342 21.3238 77.3468 21.3238 77.6593C21.1675 78.2844 20.8549 89.8487 20.8549 90.63C24.6055 95.3182 36.0276 98.4884 51.3425 98.4884C58.0622 98.4884 73.6755 93.1304 78.52 90.1612C77.8949 76.5654 79.1451 72.0335 73.0504 70.1582Z"/>
	<path fill="#462b29" fill-rule="nonzero" opacity="1" stroke="none" d="M42.3874 56.3231C42.3874 56.3231 42.213 61.0094 42.0491 62.0071C41.7212 62.8385 41.0704 63.5016 40.0867 63.8341L28.2788 67.8265C27.1312 68.1591 26.0144 68.6472 25.0308 69.146C22.5717 70.8088 20.7468 73.4581 20.091 76.2849C20.091 76.6175 19.9219 76.9674 19.9219 77.2999C19.7579 77.9651 19.4482 90.2726 19.4482 91.1041C23.3827 96.0925 35.4905 99.4948 51.5563 99.4948C58.6056 99.4948 74.8607 93.7559 79.9428 90.5965C79.287 76.1299 80.5846 71.3106 74.1911 69.3152L73.7174 69.146L72.8716 68.8077C71.0682 67.9763 58.7968 63.8341 58.7968 63.8341C57.9771 63.6678 57.2976 62.9739 56.9697 62.1424C56.6419 60.6459 56.5013 59.1729 56.6652 57.6764C54.534 58.6741 52.4019 59.3429 50.2707 59.8418C47.4837 60.1743 42.3874 56.323 42.3874 56.3231ZM42.7258 57.9809C42.7258 57.9809 47.5802 61.5753 50.2368 61.2628C52.2684 60.7939 54.2953 60.1704 56.3269 59.2327C56.1706 60.6392 56.3188 62.0217 56.6314 63.4281C56.944 64.2095 57.5755 64.8282 58.3569 64.9845C58.3569 64.9845 70.0699 68.906 71.7889 69.6873L72.567 69.9919L73.0407 70.161C79.1354 72.0363 77.8967 76.5609 78.5218 90.1567C73.6773 93.1259 58.0731 98.4798 51.3533 98.4798C36.0385 98.4798 24.6198 95.3186 20.8692 90.6304C20.8692 89.849 21.1528 78.2972 21.3091 77.6721C21.3091 77.3595 21.4782 77.0373 21.4782 76.7247C22.1033 74.0681 23.837 71.5546 26.1811 69.9919C27.1187 69.523 28.1999 69.0526 29.2938 68.74L40.5604 64.9845C41.498 64.6719 42.1087 64.0742 42.4213 63.2928C42.5775 62.3551 42.7258 57.9809 42.7258 57.9809Z"/>
<g opacity="1">
	<path fill="#c68a61" fill-rule="nonzero" opacity="0.43" stroke="none" d="M50.0781 98.2875C49.9219 98.2875 49.7656 98.1312 49.6093 97.9749L49.2968 88.2859C49.2968 88.1297 49.453 87.8171 49.6093 87.8171C49.9219 87.8171 50.0781 87.9734 50.0781 88.1297L50.3907 97.8186C50.547 97.9749 50.3907 98.2875 50.0781 98.2875L50.0781 98.2875Z"/>
	<path fill="#e1e0d8" fill-rule="nonzero" opacity="1" stroke="none" d="M37.1074 65.9388L49.9219 95.9433L60.7048 65.6262L67.8934 68.1266L70.0812 94.6932C70.0812 94.6932 49.9219 103.757 28.8249 95.4745L29.6063 68.4392L37.1074 65.9388Z"/>
</g>
</g>
<g opacity="1">
<g opacity="1">
	<path fill="#fbcd59" fill-rule="nonzero" opacity="1" stroke="none" d="M66.3306 22.3384C66.9557 23.7448 67.4245 25.3076 68.2059 26.714C69.6124 29.0582 72.7378 29.8395 75.0819 28.4331C75.2382 28.2768 75.3945 28.2768 75.5508 28.1205C75.8633 27.808 76.1759 27.6517 76.4884 27.3391C77.1135 27.4954 77.7386 27.808 78.2074 27.9642C80.0827 28.9019 80.8641 31.0897 79.9264 32.965C79.6139 33.4338 79.6139 33.9026 79.9264 34.3715C81.8017 37.3407 81.0204 41.0912 78.0511 42.9665C77.7386 43.1228 77.4261 43.2791 77.1135 43.4353C76.801 43.5916 76.6447 43.5916 76.3321 43.7479C76.6447 43.1228 76.801 42.3414 76.9572 41.5601C77.1135 39.9973 76.6447 38.4346 75.707 37.3407C74.1443 35.1528 71.4876 34.0589 68.831 34.3715C68.3622 34.5277 67.8934 34.684 67.5808 34.8403L64.6116 36.403C64.6116 36.0905 64.6116 35.9342 64.6116 35.6217C65.2367 31.246 65.7055 26.8703 66.3306 22.4947C66.1743 22.4947 66.3306 22.3384 66.3306 22.3384Z"/>
	<path fill="#f4bd40" fill-rule="nonzero" opacity="1" stroke="none" d="M67.4245 34.8403C67.8934 34.5277 68.2059 34.3715 68.6747 34.3715C71.3314 34.0589 73.988 35.1528 75.5508 37.3407C76.4884 38.5909 76.9572 40.1536 76.6447 41.7163C76.4884 42.4977 76.3321 43.1228 76.0196 43.9042C75.0819 45.6232 73.3629 46.8734 71.3314 47.3422C71.6439 46.4045 71.4876 45.3106 71.0188 44.373C69.9249 42.4977 67.5808 41.7163 65.5492 42.654L67.112 36.0905L67.4245 34.8403ZM34.2945 45.4669C34.4508 46.092 34.7633 46.8734 34.7633 47.4985C35.0759 48.7487 35.8572 49.9988 36.7949 50.9365C37.5762 51.7179 37.8888 52.6555 38.0451 53.5931C38.2013 55.4684 41.3268 55.9372 41.6394 57.8125C39.2952 61.4068 33.8257 58.9065 32.1066 57.0312C29.9188 54.8433 29.2937 51.4053 30.7002 48.5924L29.9188 48.1236C30.8565 48.5924 31.3253 47.9673 31.7941 47.3422C32.2629 46.4045 33.2006 45.7795 34.2945 45.4669ZM21.48 40.6224C21.6363 40.3099 21.9489 39.9973 22.1051 39.6848C22.8865 37.3407 26.6371 35.9342 28.8249 36.403L29.7625 36.7156C29.9188 37.4969 30.0751 38.2783 30.2314 39.0597L30.3876 39.841C29.9188 39.9973 29.45 39.9973 29.1374 40.1536C27.1059 40.935 26.012 43.2791 26.7933 45.3106C27.2622 46.092 27.731 46.7171 28.1998 47.4985C24.9181 47.811 21.9489 45.3106 21.6363 42.0289L21.6363 41.8726C21.48 41.4038 21.48 40.935 21.48 40.6224ZM66.1743 50.9365C67.5808 52.6555 67.2683 55.3122 65.5492 56.7186C65.2367 57.0312 64.9241 57.1874 64.4553 57.3437C62.7363 58.2814 60.7048 57.9688 59.142 56.7186C58.9857 56.5623 58.8295 56.2498 58.6732 55.9372C58.9857 54.2182 59.142 52.4992 59.4546 50.9365C59.6108 50.9365 59.6108 50.9365 59.7671 51.0928C60.861 51.8741 62.1112 52.1867 63.3614 51.8741C64.4553 51.5616 65.2367 51.249 66.1743 50.9365ZM38.9827 8.43001C38.3576 9.05511 37.8888 9.6802 37.2637 10.3053C36.6386 10.7741 35.7009 10.9304 34.9196 10.4616C34.1382 10.149 33.5131 9.36765 33.5131 8.43001C33.3568 7.02355 34.4508 5.77336 35.8572 5.61708C36.1698 5.61708 36.4823 5.61708 36.6386 5.61708C36.0135 4.36689 34.7633 3.7418 33.3568 3.58552C34.607 2.17906 36.6386 1.55396 38.5139 2.02278C39.4515 2.49161 40.2329 2.96043 41.0143 3.58552L41.6394 4.67944C40.7017 4.36689 39.6078 4.67944 38.8264 5.46081C38.3576 6.55472 38.3576 7.64864 38.9827 8.43001Z"/>
	<path fill="#fbcd59" fill-rule="nonzero" opacity="1" stroke="none" d="M66.1743 50.9365C65.393 51.249 64.4553 51.5616 63.674 51.7179C62.4238 52.0304 61.0173 51.7179 60.0797 50.9365C59.9234 50.9365 59.9234 50.7802 59.7671 50.7802C59.6108 49.9988 60.3922 49.53 60.861 49.0612C61.6424 48.1236 62.4238 47.1859 63.0489 46.2483C63.2051 46.092 63.2051 45.9357 63.2051 45.7795C63.2051 44.5293 64.1428 43.4353 65.2367 43.1228C65.5492 43.2791 65.7055 43.5916 66.0181 43.7479C67.112 44.5293 67.7371 45.6232 67.7371 47.0296C67.7371 47.9673 67.4245 48.7487 67.2683 49.6863L68.5184 49.6863C68.2059 49.6863 67.8934 49.8426 67.5808 49.8426C66.6432 50.1551 66.3306 50.3114 66.1743 50.9365ZM28.0435 47.4985C27.5747 46.8734 27.1059 46.092 26.6371 45.3106C25.8557 43.2791 26.9496 40.935 28.9812 40.1536C29.45 39.9973 29.7625 39.841 30.2314 39.841C30.5439 40.7787 30.7002 41.7163 31.0127 42.654C31.169 43.1228 31.4816 43.5916 31.9504 43.9042C32.5755 44.373 33.2006 44.5293 33.8257 44.9981C33.9819 45.1544 33.9819 45.4669 33.9819 45.6232C32.888 45.9357 32.1066 46.5608 31.4816 47.4985C31.0127 48.1236 30.5439 48.7487 29.6063 48.2798L28.0435 47.4985Z"/>
	<path fill="#fbcd59" fill-rule="nonzero" opacity="1" stroke="none" d="M68.2059 49.9988L66.9557 49.9988C67.112 49.0612 67.2683 48.1236 67.4245 47.3422C67.4245 46.092 66.7994 44.8418 65.7055 44.0604C65.393 43.9042 65.2367 43.5916 64.9241 43.4353L65.5492 42.4977C67.5808 41.5601 69.9249 42.3414 71.0188 44.2167C71.4876 45.1544 71.6439 46.092 71.3314 47.1859C71.1751 48.7487 69.7686 49.8426 68.2059 49.9988Z"/>
</g>
<g opacity="1">
	<path fill="#472b29" fill-rule="nonzero" opacity="1" stroke="none" d="M67.1338 33.5007C67.2966 31.2686 67.9478 28.7176 68.1106 27.6016L66.4826 22.659C64.5289 20.2675 63.2265 18.0354 60.4588 16.2816C57.3656 14.3684 53.4583 15.4844 50.0394 14.6873C41.4108 12.6146 33.5962 21.0647 30.8285 29.0365L30.8285 29.1959C31.1541 30.6308 31.3169 32.0658 31.3169 33.5007C29.0377 33.5007 27.7352 34.7762 28.5493 37.1677C28.5493 37.1677 29.5261 40.9942 30.0145 42.9074C30.1773 44.0234 31.1541 44.6612 32.2937 44.6612C32.2937 45.9367 32.4074 45.7169 32.4074 46.9924C32.4074 48.4273 32.733 50.0217 33.7098 51.1377C35.9891 54.3265 47.711 61.8199 50.4787 61.5011C55.0372 61.5011 64.1542 53.8481 66.4335 50.0217C66.9219 49.2245 67.0847 48.4273 67.0847 47.4707C67.0847 46.0358 66.971 45.9367 66.971 44.3423C67.9478 44.1829 68.599 43.3857 68.599 42.4291C69.2503 40.5158 70.0643 36.6894 70.0643 36.6894C71.2039 34.6167 69.4131 33.5007 67.1338 33.5007Z"/>
	<path fill="#edbc94" fill-rule="nonzero" opacity="1" stroke="none" d="M66.3306 33.1213C66.4869 30.9334 67.112 28.4331 67.2683 27.3391L65.7055 22.4947C63.8302 20.1505 62.58 17.9627 59.9234 16.2437C56.9542 14.3684 53.2036 15.4623 49.9219 14.681C41.6394 12.6494 34.1382 20.9319 31.4816 28.7456L31.4816 28.9019C31.7941 30.3083 31.9504 31.7148 31.9504 33.1213C29.7625 33.1213 28.5124 34.3715 29.2937 36.7156C29.2937 36.7156 30.2314 40.4661 30.7002 42.3414C30.8565 43.4353 31.7941 44.0604 32.888 44.0604C32.888 45.3106 32.9971 45.0952 32.9971 46.3454C32.9971 47.7519 33.3097 49.3146 34.2473 50.4086C36.4351 53.534 47.6869 60.8789 50.3435 60.5664C54.7192 60.5664 63.4705 53.0652 65.6584 49.3146C66.1272 48.5333 66.2834 47.7519 66.2834 46.8143C66.2834 45.4078 66.1743 45.3106 66.1743 43.7479C67.112 43.5916 67.7371 42.8102 67.7371 41.8726C68.3622 39.9973 69.1435 36.2467 69.1435 36.2467C70.2375 34.2152 68.5184 33.1213 66.3306 33.1213Z"/>
	<path fill="#ef8f70" fill-rule="nonzero" opacity="0.22" stroke="none" d="M39.139 40.4661C37.3265 40.4661 35.8572 41.9354 35.8572 43.7479C35.8572 45.5604 37.3265 47.0296 39.139 47.0296C40.9514 47.0296 42.4207 45.5604 42.4207 43.7479C42.4207 41.9354 40.9514 40.4661 39.139 40.4661ZM60.861 40.4661C59.0486 40.4661 57.5793 41.9354 57.5793 43.7479C57.5793 45.5604 59.0486 47.0296 60.861 47.0296C62.6735 47.0296 64.1428 45.5604 64.1428 43.7479C64.1428 41.9354 62.6735 40.4661 60.861 40.4661Z"/>
	<path fill="#c59420" fill-rule="nonzero" opacity="1" stroke="none" d="M46.1713 28.1205L46.9527 26.5578C43.6709 25.7764 40.0766 25.9327 36.7949 26.8703L37.7325 28.2768C40.5454 27.4954 43.3584 27.4954 46.1713 28.1205ZM62.4238 28.1205L63.2051 26.5578C59.9234 25.7764 56.3291 25.9327 53.0473 26.8703L53.985 28.2768C56.7979 27.4954 59.6108 27.4954 62.4238 28.1205Z"/>
</g>
<g opacity="1">
	<path fill="#fbcd59" fill-rule="nonzero" opacity="1" stroke="none" d="M21.48 40.6224C19.4485 38.9034 18.8234 35.9342 20.0736 33.4338C20.3861 33.1213 20.3861 32.6525 20.0736 32.1836C18.1983 29.527 18.8234 25.7764 21.48 23.9011L21.6363 23.7448C22.4177 23.276 23.3553 22.9635 24.1367 22.6509C24.6055 22.4947 24.6055 22.3384 24.4492 21.8696C23.5116 20.3068 23.199 18.4315 23.5116 16.7125C23.8241 14.8372 24.6055 13.1182 26.012 11.868C26.3245 11.5555 26.4808 11.0867 26.4808 10.4616C26.3245 7.49237 28.1998 4.83571 31.0127 4.05434C31.7941 3.89807 32.5755 3.7418 33.3568 3.58552C34.7633 3.58552 35.8572 4.36689 36.6386 5.61708C35.2321 5.30453 33.8257 6.0859 33.5131 7.49237C33.5131 7.80492 33.3568 7.96119 33.5131 8.27374C33.5131 9.21138 34.1382 9.99275 34.9196 10.3053C35.5447 10.7741 36.4823 10.7741 37.2637 10.149C37.8888 9.52393 38.5139 8.89883 38.9827 8.27374C39.2952 7.96119 39.4515 7.64864 39.7641 7.33609L43.0458 3.89807C44.4523 2.64788 45.8587 1.71024 47.5778 1.08514C49.6093 0.460046 51.7971 0.303772 53.8287 0.772594C56.4854 1.39769 58.8295 2.96043 60.3922 5.30453C61.0173 6.24218 61.6424 7.33609 62.1112 8.43001C63.9865 7.64864 66.1743 7.96119 67.5808 9.52393C68.831 10.6178 69.2998 12.3369 69.1435 13.8996C68.5184 13.7433 68.0496 14.0559 67.4245 13.8996C64.9241 13.4308 62.2675 13.1182 59.9234 14.3684C59.7671 14.0559 58.9857 14.8372 58.8295 14.681C57.423 12.8057 55.5477 11.2429 53.5162 10.4616C51.1721 9.52393 49.453 8.43001 47.1089 9.05511C43.8272 9.83647 41.7956 12.3369 40.2329 15.1498C39.139 17.1813 37.5762 18.7441 35.5447 19.5255C33.3568 20.4631 25.8557 21.4007 27.4184 24.3699C28.6686 26.4015 30.5439 27.9642 32.7317 28.9019C32.888 29.9958 32.888 31.246 32.888 32.3399C32.888 34.3715 32.888 36.403 33.2006 38.4346L29.9188 36.5593L28.8249 36.403C26.6371 35.9342 22.8865 37.3407 22.1051 39.6848C21.9489 39.9973 21.7926 40.3099 21.48 40.6224Z"/>
	<path fill="#f4bd40" fill-rule="nonzero" opacity="1" stroke="none" d="M29.9188 28.5893C28.0435 27.808 26.6371 26.2452 25.6994 24.5262C24.1367 21.7133 23.9804 18.2753 25.5431 15.3061C25.5431 15.1498 25.8557 14.9935 26.012 14.9935C26.1682 14.9935 26.3245 15.1498 26.4808 15.3061C26.9496 16.2437 27.4184 17.1813 28.0435 17.9627C29.45 19.9943 32.1066 20.6194 34.2945 19.6817C36.326 18.7441 38.0451 17.1813 39.139 15.3061C40.858 12.4931 42.7333 9.99275 46.1713 9.21138C48.5154 8.58628 51.0158 8.58628 53.3599 9.52393C55.5477 10.4616 57.5793 12.0243 58.9857 13.8996L59.6108 14.681C61.9549 13.4308 64.6116 12.962 67.112 13.4308C67.7371 13.587 68.3622 13.8996 69.1435 14.0559C69.9249 14.681 70.7063 15.4623 71.3314 16.2437C71.8002 17.0251 72.1127 17.9627 72.269 18.9004C72.269 20.4631 73.5192 21.557 74.9257 21.557L74.9257 21.557C76.3321 21.7133 77.5823 20.7756 77.7386 19.3692C77.7386 19.2129 77.7386 19.2129 77.8949 19.0566C80.239 21.8696 77.4261 27.1829 75.707 27.9642C73.3629 29.6832 70.0812 29.2144 68.3622 26.8703C68.2059 26.714 68.2059 26.714 68.2059 26.5578C67.2683 25.6201 66.7994 25.1513 65.7055 23.9011C64.6116 22.6509 63.5177 21.7133 62.2675 20.7756C60.0797 20.7756 58.8295 21.0882 57.7356 22.6509L57.2667 22.8072C57.423 20.6194 56.0165 19.2129 54.2975 17.9627C51.0158 15.7749 47.1089 19.0566 47.1089 19.0566C45.8587 20.4631 44.9211 21.8696 43.9835 23.4323C42.4207 25.4639 40.5454 27.3391 38.3576 28.7456C36.4823 29.3707 34.607 29.6832 32.5755 29.3707C31.4816 29.2144 30.7002 28.9019 29.9188 28.5893Z"/>
	<path fill="#e0a825" fill-rule="nonzero" opacity="1" stroke="none" d="M34.2945 29.9958C33.9819 29.9958 33.5131 29.9958 33.2006 29.9958C28.9812 29.3707 25.8557 25.7764 24.6055 22.3384C24.6055 22.1821 24.6055 21.8696 24.9181 21.8696C25.0743 21.8696 25.3869 21.8696 25.3869 22.1821C26.4808 25.3076 29.2937 28.7456 33.2006 29.3707C35.7009 29.6832 39.4515 28.9019 43.3584 23.1197C45.8587 18.4315 49.453 16.2437 53.0473 17.1813C55.3914 17.8064 57.1105 19.838 57.423 22.0258C58.6732 21.0882 59.7671 20.4631 60.861 20.6194C62.8926 20.7756 64.6116 22.6509 66.3306 24.6825C68.831 27.6517 71.3314 30.6209 75.5508 27.9642C77.2698 26.714 79.3013 24.3699 77.5823 19.9943L77.5823 19.838L77.5823 19.838L77.5823 19.838L77.5823 19.838L77.5823 19.838L77.5823 19.838L77.5823 19.838L77.5823 19.838C77.5823 19.6817 77.7386 19.3692 78.0511 19.3692C78.2074 19.3692 78.3637 19.5255 78.3637 19.6817C79.9264 23.4323 79.1451 26.4015 76.0196 28.7456C71.1751 31.7148 68.3622 28.2768 65.8618 25.3076C64.2991 23.4323 62.7363 21.7133 61.0173 21.557C59.9234 21.557 58.8295 22.0258 57.7356 23.276C57.7356 23.4323 57.5793 23.5886 57.2667 23.5886C57.1105 23.5886 56.9542 23.4323 56.9542 23.1197L56.9542 22.9635C56.9542 22.9635 56.9542 22.9635 56.9542 22.8072C56.9542 20.6194 55.3914 18.5878 53.2036 17.9627C50.0781 17.0251 46.7964 19.2129 44.4523 23.5886C40.5454 28.7456 36.9511 29.9958 34.2945 29.9958Z"/>
	<path fill="#ce942b" fill-rule="nonzero" opacity="1" stroke="none" d="M37.8888 60.3129C35.5447 60.3129 33.0443 58.9065 31.6378 57.5C29.2937 55.3122 28.8249 51.8741 30.0751 49.0612L29.7625 48.9049L28.1998 48.2798L28.1998 48.2798C24.6055 48.4361 21.48 45.7795 21.1675 42.1852L21.1675 41.0912C18.9796 39.216 18.5108 36.0905 19.761 33.4338C19.9173 33.1213 19.9173 32.965 19.761 32.8087L19.6047 32.6525C18.6671 31.246 18.3546 29.527 18.6671 27.808C18.9796 26.089 20.0736 24.6825 21.48 23.7448C22.2614 23.276 23.199 22.8072 24.1367 22.6509C23.199 20.9319 22.8865 19.0566 23.199 17.0251C23.5116 14.9935 24.4492 13.1182 25.8557 11.868C26.012 11.7118 26.1682 11.3992 26.1682 11.0867C26.012 7.80492 28.0435 4.99199 31.0127 4.05434C31.7941 3.89807 32.4192 3.7418 33.2006 3.7418C34.607 2.17906 36.7949 1.55396 38.8264 2.17906C39.7641 2.64788 40.7017 3.27297 41.4831 3.89807L41.6394 4.05434L42.1082 4.83571L42.577 4.36689C43.9835 3.1167 45.5462 2.17906 47.4215 1.39769C49.6093 0.61632 51.7971 0.460046 53.985 1.08514C56.7979 1.71024 59.2983 3.42925 61.0173 5.77336C61.4861 6.39845 61.7987 7.17982 62.2675 7.80492C62.4238 7.96119 62.4238 8.27374 62.58 8.43001C64.4553 7.80492 66.6432 8.27374 68.0496 9.83647C69.2998 10.9304 69.9249 12.6494 69.7686 14.3684C70.55 14.9935 71.1751 15.6186 71.8002 16.4C72.4253 17.3376 72.7378 18.4315 72.8941 19.3692C72.8941 20.6194 73.8318 21.557 74.9257 21.557C76.0196 21.7133 76.9572 20.9319 77.1135 19.9943C77.1135 19.838 77.2698 19.6817 77.4261 19.5255C77.5823 19.5255 77.8949 19.5255 78.0511 19.6817C78.2074 19.838 78.3637 19.9943 78.52 20.1505C79.4576 21.4007 79.9264 22.9635 79.6139 24.5262C79.4576 25.7764 78.8325 26.8703 78.0511 27.808C78.2074 27.808 78.3637 27.9642 78.3637 27.9642C80.5515 29.0582 81.3329 31.5585 80.239 33.7464C80.0827 34.0589 80.0827 34.3715 80.239 34.5277C80.3953 34.8403 80.7078 35.1528 80.8641 35.6217C81.6454 37.3407 81.6454 39.216 80.8641 40.7787C80.239 42.4977 78.8325 43.7479 77.2698 44.5293C77.1135 44.6855 76.801 44.6855 76.6447 44.8418C75.5508 46.5608 73.988 47.811 71.9565 48.2798C71.4876 49.8426 69.9249 51.0928 68.2059 51.249C67.8934 51.249 67.5808 51.4053 67.2683 51.4053C66.9557 51.4053 66.7994 51.4053 66.7994 51.5616C66.9557 51.8741 67.2683 52.1867 67.2683 52.4992C68.2059 54.8433 67.112 57.6563 64.6116 58.5939C63.3614 59.3753 61.7987 59.5315 60.3922 58.9065C60.0797 58.1251 60.0797 57.6563 60.0797 57.5C60.2359 57.1874 60.5485 57.0312 60.861 57.1874C61.9549 57.6563 63.2051 57.5 64.2991 56.8749C66.1743 56.0935 67.112 54.062 66.3306 52.1867C66.1743 51.8741 66.0181 51.5616 65.7055 51.249C65.5492 51.0928 65.5492 50.9365 65.5492 50.7802C65.7055 50.1551 66.0181 49.53 67.2683 49.53C67.5808 49.53 67.7371 49.53 68.0496 49.3737C69.4561 49.2175 70.55 48.2798 71.0188 46.8734C71.0188 46.7171 71.1751 46.5608 71.4876 46.4045C73.3629 45.9357 74.9257 44.8418 75.8633 43.1228C75.8633 42.9665 76.0196 42.9665 76.1759 42.8102C76.4884 42.8102 76.6447 42.654 76.801 42.4977C79.7702 41.2475 81.0204 37.9658 79.7702 34.9966C79.6139 34.684 79.4576 34.3715 79.3013 34.2152C78.8325 33.5901 78.8325 32.8087 79.3013 32.1836C80.0827 30.6209 79.4576 28.7456 77.7386 27.9642C77.4261 27.808 76.9572 27.6517 76.6447 27.4954C76.4884 27.4954 76.3321 27.3391 76.3321 27.0266C76.3321 26.8703 76.3321 26.5578 76.4884 26.5578C77.5823 25.7764 78.2074 24.6825 78.3637 23.4323C78.52 22.3384 78.2074 21.0882 77.5823 20.1505C76.9572 21.2445 75.8633 21.8696 74.6131 21.7133C72.8941 21.7133 71.4876 20.3068 71.4876 18.4315C71.3314 17.6502 71.0188 16.7125 70.55 15.9312C69.9249 15.3061 69.2998 14.5247 68.5184 14.0559C68.3622 13.8996 68.3622 13.7433 68.3622 13.587C68.5184 12.1806 68.0496 10.6178 66.9557 9.6802C65.7055 8.43001 63.8302 7.96119 62.1112 8.74256C61.7987 8.89883 61.4861 8.74256 61.3299 8.43001C61.1736 8.11746 60.861 7.64864 60.7048 7.33609C60.3922 6.711 60.0797 5.92963 59.6108 5.30453C58.2044 3.1167 55.8603 1.55396 53.3599 1.08514C51.3283 0.61632 49.2968 0.772594 47.4215 1.39769C45.8587 2.02278 44.296 2.96043 43.0458 4.05434L39.9203 7.49237C39.7641 7.64864 39.6078 7.80492 39.4515 7.96119C39.2952 8.11746 39.2952 8.27374 39.139 8.43001C38.9827 8.58628 38.8264 8.58628 38.6701 8.58628C38.5139 8.58628 38.3576 8.43001 38.2013 8.27374C37.42 7.17982 37.42 5.77336 38.2013 4.67944C38.8264 4.05434 39.6078 3.58552 40.5454 3.58552L40.5454 3.58552C39.7641 3.1167 38.9827 2.49161 38.2013 2.17906C36.6386 1.71024 34.7633 2.33533 33.6694 3.58552C33.5131 3.7418 33.5131 3.7418 33.3568 3.7418C32.5755 3.7418 31.7941 3.89807 31.169 4.05434C28.6686 4.83571 26.9496 7.17982 27.1059 9.99275C27.1059 10.6178 26.9496 11.2429 26.4808 11.7118C25.2306 12.962 24.293 14.5247 24.1367 16.2437C23.8241 17.9627 24.1367 19.6817 24.9181 21.0882C25.0743 21.2445 25.2306 21.7133 25.0743 22.0258C24.9181 22.3384 24.6055 22.4947 24.293 22.6509C23.3553 22.8072 22.5739 23.276 21.7926 23.5886C19.2922 25.1513 18.6671 28.5893 20.2298 30.9334L20.3861 31.0897C20.8549 31.7148 20.8549 32.3399 20.3861 32.965C19.2922 35.1528 19.761 37.8095 21.7926 39.3722C21.9489 39.5285 21.9489 39.6848 21.9489 39.841L21.9489 41.0912C22.1051 44.0604 24.7618 46.4045 27.731 46.092L27.8873 46.092C28.0435 46.092 28.0435 46.092 28.1998 46.092L30.8565 47.3422C31.0127 47.3422 31.0127 47.4985 31.169 47.6547C31.169 47.811 31.169 47.9673 31.169 48.1236C29.7625 50.6239 30.2314 53.7494 32.2629 55.781C33.6694 57.1874 37.5762 59.5315 40.3892 57.5C40.7017 57.3437 41.0143 57.3437 41.1705 57.6563C41.3268 57.9688 41.3268 58.2814 41.0143 58.4376C40.0766 60.0004 38.9827 60.3129 37.8888 60.3129ZM41.0143 5.30453C40.3892 5.30453 39.9203 5.46081 39.4515 5.92963C39.139 6.39845 39.139 6.86727 39.139 7.49237C39.2952 7.33609 39.2952 7.33609 39.4515 7.17982L41.1705 5.30453C41.0143 5.30453 41.0143 5.30453 41.0143 5.30453Z"/>
<g opacity="1">
	<path fill="#e1e0d8" fill-rule="nonzero" opacity="1" stroke="none" d="M66.9557 42.8102C66.2652 42.8102 65.7055 43.37 65.7055 44.0604C65.7055 44.7509 66.2652 45.3106 66.9557 45.3106C67.6462 45.3106 68.2059 44.7509 68.2059 44.0604C68.2059 43.37 67.6462 42.8102 66.9557 42.8102Z"/>
	<path fill="#e1e0d8" fill-rule="nonzero" opacity="1" stroke="none" d="M31.9504 42.4977C31.2599 42.4977 30.7002 43.0574 30.7002 43.7479C30.7002 44.4384 31.2599 44.9981 31.9504 44.9981C32.6408 44.9981 33.2006 44.4384 33.2006 43.7479C33.2006 43.0574 32.6408 42.4977 31.9504 42.4977Z"/>
</g>
</g>
</g>
</g>
<g opacity="1">
<g opacity="1">
	<path fill="#6d1b18" fill-rule="nonzero" opacity="1" stroke="none" d="M45.0923 51.0928C45.0923 51.249 44.9361 51.5616 44.9361 51.8741C44.9361 53.9057 47.1239 55.4684 49.9368 55.4684C52.7498 55.4684 54.9376 53.9057 54.9376 51.8741C54.9376 51.5616 54.9376 51.4053 54.7813 51.0928L45.0923 51.0928Z"/>
	<path fill="#ee3e54" fill-rule="nonzero" opacity="1" stroke="none" d="M52.5935 54.9996C51.0308 53.9057 48.8429 53.9057 47.2802 54.9996C48.9992 55.6247 50.8745 55.6247 52.5935 54.9996Z"/>
	<path fill="#ee3e54" fill-rule="nonzero" opacity="1" stroke="none" d="M55.2983 51.2009C52.1499 48.6953 47.742 48.6953 44.5936 51.2009C48.0569 52.6326 51.835 52.6326 55.2983 51.2009Z"/>
	<path fill="#fdfcef" fill-rule="nonzero" opacity="1" stroke="none" d="M44.8579 51.0928L44.8579 51.5928C44.8579 51.9679 46.0122 52.343 47.1665 52.343L52.7071 52.343C54.0923 52.343 55.0157 51.9679 55.0157 51.5928L55.0157 51.0928L44.8579 51.0928Z"/>
	<path fill="#472b29" fill-rule="nonzero" opacity="1" stroke="none" d="M49.9368 55.781C46.9676 55.781 44.6235 54.062 44.6235 51.8741C44.6235 51.5616 44.6235 51.4053 44.7798 51.0928C44.7798 50.9365 44.9361 50.9365 45.0923 50.9365L54.9376 50.9365C55.0939 50.9365 55.2501 51.0928 55.2501 51.0928C55.2501 51.4053 55.4064 51.5616 55.4064 51.8741C55.2501 54.062 52.906 55.781 49.9368 55.781ZM45.4049 51.4053C45.4049 51.5616 45.4049 51.7179 45.4049 51.8741C45.4049 53.7494 47.4365 55.1559 50.0931 55.1559C52.7498 55.1559 54.7813 53.5931 54.7813 51.8741C54.7813 51.7179 54.7813 51.5616 54.7813 51.5616L45.4049 51.5616L45.4049 51.4053Z"/>
</g>
	<path fill="#000" fill-rule="nonzero" opacity="1" stroke="none" d="M61.0959 31.5585C62.1011 31.5585 63.1063 32.0979 63.5084 32.9968C63.3074 32.9968 63.3074 32.9968 63.1063 32.9968C62.1011 33.1765 61.498 33.8956 61.699 34.7945C61.9001 35.5136 62.3021 35.8732 63.1063 36.053C63.3074 36.053 63.7094 36.053 63.9105 35.8732C63.7094 37.1316 62.5032 38.0305 61.0959 38.2103C59.0854 37.8507 57.8792 35.8732 58.2813 34.0754C58.6834 32.817 59.6886 31.9181 61.0959 31.5585L61.0959 31.5585ZM38.9812 31.5585C39.7853 31.5585 40.5895 31.9181 41.1926 32.6372C40.9916 32.6372 40.7905 32.6372 40.5895 32.6372C39.5843 32.6372 38.9812 33.3563 38.9812 34.0754C38.9812 34.9743 39.7853 35.5136 40.5895 35.5136C41.1926 35.5136 41.5947 35.3339 41.7958 34.7945C41.9968 36.4125 40.7905 37.8507 38.9812 38.0305C36.9707 37.671 35.7645 35.6934 36.1666 33.8956C36.5686 32.817 37.7749 31.9181 38.9812 31.5585L38.9812 31.5585Z"/>
	<path fill="#472b29" fill-rule="nonzero" opacity="1" stroke="none" d="M55.5959 46.8734C55.2507 46.8734 54.9708 47.1532 54.9708 47.4985C54.9708 47.8437 55.2507 48.1236 55.5959 48.1236C55.9411 48.1236 56.221 47.8437 56.221 47.4985C56.221 47.1532 55.9411 46.8734 55.5959 46.8734Z"/>
</g>
	<path fill="#472b29" fill-rule="nonzero" opacity="0" stroke="none" d="M49.7656 44.3339C51.0158 44.3339 52.1097 43.8651 52.8911 42.9275C52.8911 42.7712 52.8911 42.7712 52.8911 42.6149L52.8911 42.6149C52.7348 42.4586 52.7348 42.4586 52.5785 42.6149L52.5785 42.6149C51.0158 44.0214 48.5154 44.0214 46.9527 42.6149C46.9527 42.6149 46.7964 42.4586 46.7964 42.6149L46.6401 42.6149C46.6401 42.7712 46.6401 42.7712 46.6401 42.9275C47.4215 43.7088 48.5154 44.3339 49.7656 44.3339Z"/>
</g>
</g>
</svg>