<svg width="100%" height="100%" viewBox="0 0 100 100" xml:space="preserve" xmlns="http://www.w3.org/2000/svg" xmlns:xlink="http://www.w3.org/1999/xlink"><defs><filter color-interpolation-filters="sRGB" filterUnits="userSpaceOnUse" height="74.1876" id="Filter_zxcv" width="103.875" x="-2.61194" y="13.49"><feDropShadow dx="-0.674438" dy="0.583818" flood-color="#000000" flood-opacity="0.5" in="SourceGraphic" result="Shadow" stdDeviation="1.5"/></filter></defs><path id="zxcv" shadowAngle="2.42809" shadowColor="#000000" shadowOffset="0.892026" shadowOpacity="0.5" shadowRadius="3" fill="#ffffff" filter="url(#Filter_zxcv)" d="M5.65625 16.6562C3.5419 16.6562 1.8125 18.2767 1.8125 20.25L1.8125 50L1.8125 79.7812C1.8125 81.7545 3.5419 83.3469 5.65625 83.3438L48.4688 83.2812L94.3438 83.1875C96.4581 83.1838 98.1875 81.5983 98.1875 79.625L98.1875 49.9375L98.1875 20.25C98.1875 18.2767 96.4581 16.6562 94.3438 16.6562L48.4375 16.6562L5.65625 16.6562ZM8.34375 27.2188L32.38 46.5938L57.2188 27.2188L57.2188 72.7812L47.625 72.7812L47.625 45.7188L32.38 58.5938L17.8125 45.5625L17.9375 72.7812L8.34375 72.7812L8.34375 27.2188ZM74.5 32.25L83.125 32.25L83.125 55.5312L93.6562 55.5312L78.8125 70.7812L63.9375 55.5312L74.5 55.5312L74.5 32.25Z"/></svg>
