<svg width="100%" height="100%" viewBox="0 0 100 100" stroke-miterlimit="10" style="fill-rule:nonzero;clip-rule:evenodd;stroke-linecap:round;stroke-linejoin:round;" version="1.1" xml:space="preserve" xmlns="http://www.w3.org/2000/svg" xmlns:xlink="http://www.w3.org/1999/xlink"><defs><linearGradient id="LG" gradientTransform="matrix(-41.7133 -37.2495 41.0543 -41.7133 73.606 86.6289)" gradientUnits="userSpaceOnUse" x1="0" x2="1" y1="0" y2="0"><stop offset="0" stop-color="#c7c7c7"/><stop offset="1" stop-color="#fff"/></linearGradient><linearGradient id="LG2" gradientTransform="matrix(-57.5788 -30.8411 30.8411 -57.5788 88.9727 80.1737)" gradientUnits="userSpaceOnUse" x1="0" x2="1" y1="0" y2="0"><stop offset="0" stop-color="#04e4ee"/><stop offset="1" stop-color="#00ffee"/></linearGradient><linearGradient id="LG3" gradientTransform="matrix(-57.5788 -30.8411 30.8411 -57.5788 88.9727 80.1737)" gradientUnits="userSpaceOnUse" x1="0" x2="1" y1="0" y2="0"><stop offset="0" stop-color="#00ffee"/><stop offset="1" stop-color="#04e4ee"/></linearGradient></defs><g id="markdown"><g opacity="1"><g opacity="1" fill="none" stroke="#006" stroke-linecap="butt" stroke-linejoin="round"><path opacity="0.4" stroke-width="1.8372" d="M18.618 35.7355L18.618 64.2645L27.1767 64.2645L27.1767 45.2756L35.7355 56.5988L44.2942 45.2727L44.2942 64.2645L52.8529 64.2645L52.8529 35.7355L44.2942 35.7355L35.7355 47.1471L27.1767 35.7355L18.618 35.7355ZM67.1175 35.7355L67.1175 50L58.5587 50L71.3968 64.2645L84.2349 50L75.6762 50L75.6762 35.7355L67.1175 35.7355Z"/><path opacity="0.35" stroke-width="3.6744" d="M18.618 35.7355L18.618 64.2645L27.1767 64.2645L27.1767 45.2756L35.7355 56.5988L44.2942 45.2727L44.2942 64.2645L52.8529 64.2645L52.8529 35.7355L44.2942 35.7355L35.7355 47.1471L27.1767 35.7355L18.618 35.7355ZM67.1175 35.7355L67.1175 50L58.5587 50L71.3968 64.2645L84.2349 50L75.6762 50L75.6762 35.7355L67.1175 35.7355Z"/><path opacity="0.25" stroke-width="5.5116" d="M18.618 35.7355L18.618 64.2645L27.1767 64.2645L27.1767 45.2756L35.7355 56.5988L44.2942 45.2727L44.2942 64.2645L52.8529 64.2645L52.8529 35.7355L44.2942 35.7355L35.7355 47.1471L27.1767 35.7355L18.618 35.7355ZM67.1175 35.7355L67.1175 50L58.5587 50L71.3968 64.2645L84.2349 50L75.6762 50L75.6762 35.7355L67.1175 35.7355Z"/><path opacity="0.15" stroke-width="7.3488" d="M18.618 35.7355L18.618 64.2645L27.1767 64.2645L27.1767 45.2756L35.7355 56.5988L44.2942 45.2727L44.2942 64.2645L52.8529 64.2645L52.8529 35.7355L44.2942 35.7355L35.7355 47.1471L27.1767 35.7355L18.618 35.7355ZM67.1175 35.7355L67.1175 50L58.5587 50L71.3968 64.2645L84.2349 50L75.6762 50L75.6762 35.7355L67.1175 35.7355Z"/></g><path fill="#00FF88" fill-rule="nonzero" opacity=".75" stroke="none" d="M18.618 35.7355L18.618 64.2645L27.1767 64.2645L27.1767 45.2756L35.7355 56.5988L44.2942 45.2727L44.2942 64.2645L52.8529 64.2645L52.8529 35.7355L44.2942 35.7355L35.7355 47.1471L27.1767 35.7355L18.618 35.7355ZM67.1175 35.7355L67.1175 50L58.5587 50L71.3968 64.2645L84.2349 50L75.6762 50L75.6762 35.7355L67.1175 35.7355Z"/><path fill="url(#LG2)" fill-rule="nonzero" opacity=".8" stroke="none" d="M18.618 35.7355L18.618 64.2645L27.1767 64.2645L27.1767 45.2756L35.7355 56.5988L44.2942 45.2727L44.2942 64.2645L52.8529 64.2645L52.8529 35.7355L44.2942 35.7355L35.7355 47.1471L27.1767 35.7355L18.618 35.7355ZM67.1175 35.7355L67.1175 50L58.5587 50L71.3968 64.2645L84.2349 50L75.6762 50L75.6762 35.7355L67.1175 35.7355Z"/><g opacity="1" fill="none" stroke="#006" stroke-linecap="butt" stroke-linejoin="round"><path opacity="0.4" stroke-width="1.8372" d="M12.5556 21.4709C8.11929 21.4709 4.35345 25.0485 4.35345 29.4961L4.35345 70.5039C4.35345 74.9544 8.11929 78.5291 12.5556 78.5291L87.4444 78.5291C91.8807 78.5291 95.6465 74.9515 95.6465 70.5039L95.6465 29.4961C95.6465 25.0513 91.8807 21.4709 87.4444 21.4709L12.5556 21.4709ZM12.5556 27.1767L87.4444 27.1767C88.9165 27.1767 89.9407 28.2694 89.9407 29.4961L89.9407 70.5039C89.9407 71.7306 88.9137 72.8233 87.4444 72.8233L12.5556 72.8233C11.0835 72.8233 10.0593 71.7306 10.0593 70.5039L10.0593 29.4961C10.0593 28.2694 11.0863 27.1796 12.5556 27.1796L12.5556 27.1767Z"/><path opacity="0.3" stroke-width="3.6744" d="M12.5556 21.4709C8.11929 21.4709 4.35345 25.0485 4.35345 29.4961L4.35345 70.5039C4.35345 74.9544 8.11929 78.5291 12.5556 78.5291L87.4444 78.5291C91.8807 78.5291 95.6465 74.9515 95.6465 70.5039L95.6465 29.4961C95.6465 25.0513 91.8807 21.4709 87.4444 21.4709L12.5556 21.4709ZM12.5556 27.1767L87.4444 27.1767C88.9165 27.1767 89.9407 28.2694 89.9407 29.4961L89.9407 70.5039C89.9407 71.7306 88.9137 72.8233 87.4444 72.8233L12.5556 72.8233C11.0835 72.8233 10.0593 71.7306 10.0593 70.5039L10.0593 29.4961C10.0593 28.2694 11.0863 27.1796 12.5556 27.1796L12.5556 27.1767Z"/><path opacity="0.25" stroke-width="5.5116" d="M12.5556 21.4709C8.11929 21.4709 4.35345 25.0485 4.35345 29.4961L4.35345 70.5039C4.35345 74.9544 8.11929 78.5291 12.5556 78.5291L87.4444 78.5291C91.8807 78.5291 95.6465 74.9515 95.6465 70.5039L95.6465 29.4961C95.6465 25.0513 91.8807 21.4709 87.4444 21.4709L12.5556 21.4709ZM12.5556 27.1767L87.4444 27.1767C88.9165 27.1767 89.9407 28.2694 89.9407 29.4961L89.9407 70.5039C89.9407 71.7306 88.9137 72.8233 87.4444 72.8233L12.5556 72.8233C11.0835 72.8233 10.0593 71.7306 10.0593 70.5039L10.0593 29.4961C10.0593 28.2694 11.0863 27.1796 12.5556 27.1796L12.5556 27.1767Z"/><path opacity="0.15" stroke-width="7.3488" d="M12.5556 21.4709C8.11929 21.4709 4.35345 25.0485 4.35345 29.4961L4.35345 70.5039C4.35345 74.9544 8.11929 78.5291 12.5556 78.5291L87.4444 78.5291C91.8807 78.5291 95.6465 74.9515 95.6465 70.5039L95.6465 29.4961C95.6465 25.0513 91.8807 21.4709 87.4444 21.4709L12.5556 21.4709ZM12.5556 27.1767L87.4444 27.1767C88.9165 27.1767 89.9407 28.2694 89.9407 29.4961L89.9407 70.5039C89.9407 71.7306 88.9137 72.8233 87.4444 72.8233L12.5556 72.8233C11.0835 72.8233 10.0593 71.7306 10.0593 70.5039L10.0593 29.4961C10.0593 28.2694 11.0863 27.1796 12.5556 27.1796L12.5556 27.1767Z"/></g><path fill="url(#LG3)" fill-rule="nonzero" opacity="1" stroke="none" d="M12.5556 21.4709C8.11929 21.4709 4.35345 25.0485 4.35345 29.4961L4.35345 70.5039C4.35345 74.9544 8.11929 78.5291 12.5556 78.5291L87.4444 78.5291C91.8807 78.5291 95.6465 74.9515 95.6465 70.5039L95.6465 29.4961C95.6465 25.0513 91.8807 21.4709 87.4444 21.4709L12.5556 21.4709ZM12.5556 27.1767L87.4444 27.1767C88.9165 27.1767 89.9407 28.2694 89.9407 29.4961L89.9407 70.5039C89.9407 71.7306 88.9137 72.8233 87.4444 72.8233L12.5556 72.8233C11.0835 72.8233 10.0593 71.7306 10.0593 70.5039L10.0593 29.4961C10.0593 28.2694 11.0863 27.1796 12.5556 27.1796L12.5556 27.1767Z"/></g></g></svg>