<svg xmlns="http://www.w3.org/2000/svg" xmlns:vectornator="http://vectornator.io" xmlns:xlink="http://www.w3.org/1999/xlink" width="100%" height="100%" viewBox="0 0 100 100" xml:space="preserve"><defs><filter id="Filter" width="10.547" height="10.547" x="28.396" y="12.008" color-interpolation-filters="sRGB" filterUnits="userSpaceOnUse"><feDropShadow dx="0" dy=".86" flood-color="#000" flood-opacity=".8" in="SourceGraphic" result="Shadow" stdDeviation="1.021"/></filter><filter id="Filter_2" width="10.547" height="21.434" x="28.396" y="20.173" color-interpolation-filters="sRGB" filterUnits="userSpaceOnUse"><feDropShadow dx="0" dy=".86" flood-color="#000" flood-opacity=".8" in="SourceGraphic" result="Shadow" stdDeviation="1.021"/></filter><filter id="Filter_3" width="10.547" height="10.547" x="28.396" y="41.947" color-interpolation-filters="sRGB" filterUnits="userSpaceOnUse"><feDropShadow dx="0" dy=".86" flood-color="#000" flood-opacity=".8" in="SourceGraphic" result="Shadow" stdDeviation="1.021"/></filter><filter id="Filter_4" width="10.547" height="10.547" x="28.396" y="55.556" color-interpolation-filters="sRGB" filterUnits="userSpaceOnUse"><feDropShadow dx="0" dy=".86" flood-color="#000" flood-opacity=".8" in="SourceGraphic" result="Shadow" stdDeviation="1.021"/></filter><filter id="Filter_5" width="10.547" height="10.547" x="28.396" y="71.887" color-interpolation-filters="sRGB" filterUnits="userSpaceOnUse"><feDropShadow dx="0" dy=".86" flood-color="#000" flood-opacity=".8" in="SourceGraphic" result="Shadow" stdDeviation="1.021"/></filter><filter id="Filter_6" width="54.096" height="29.599" x="6.622" y="-1.601" color-interpolation-filters="sRGB" filterUnits="userSpaceOnUse"><feDropShadow dx="0" dy=".86" flood-color="#000" flood-opacity=".8" in="SourceGraphic" result="Shadow" stdDeviation="1.021"/></filter><filter id="Filter_7" width="10.547" height="21.434" x="6.622" y="25.617" color-interpolation-filters="sRGB" filterUnits="userSpaceOnUse"><feDropShadow dx="0" dy=".86" flood-color="#000" flood-opacity=".8" in="SourceGraphic" result="Shadow" stdDeviation="1.021"/></filter><filter id="Filter_8" width="10.547" height="10.547" x="6.622" y="47.391" color-interpolation-filters="sRGB" filterUnits="userSpaceOnUse"><feDropShadow dx="0" dy=".86" flood-color="#000" flood-opacity=".8" in="SourceGraphic" result="Shadow" stdDeviation="1.021"/></filter><filter id="Filter_9" width="10.547" height="10.547" x="6.622" y="61" color-interpolation-filters="sRGB" filterUnits="userSpaceOnUse"><feDropShadow dx="0" dy=".86" flood-color="#000" flood-opacity=".8" in="SourceGraphic" result="Shadow" stdDeviation="1.021"/></filter><filter id="Filter_10" width="10.547" height="10.547" x="6.622" y="77.331" color-interpolation-filters="sRGB" filterUnits="userSpaceOnUse"><feDropShadow dx="0" dy=".86" flood-color="#000" flood-opacity=".8" in="SourceGraphic" result="Shadow" stdDeviation="1.021"/></filter><filter id="Filter_11" width="21.434" height="21.434" x="6.622" y="-1.601" color-interpolation-filters="sRGB" filterUnits="userSpaceOnUse"><feDropShadow dx="0" dy=".86" flood-color="#000" flood-opacity=".8" in="SourceGraphic" result="Shadow" stdDeviation="1.021"/></filter><filter id="Filter_12" width="10.547" height="10.547" x="17.509" y="6.564" color-interpolation-filters="sRGB" filterUnits="userSpaceOnUse"><feDropShadow dx="0" dy=".86" flood-color="#000" flood-opacity=".8" in="SourceGraphic" result="Shadow" stdDeviation="1.021"/></filter><filter id="Filter_13" width="10.547" height="10.547" x="17.509" y="17.451" color-interpolation-filters="sRGB" filterUnits="userSpaceOnUse"><feDropShadow dx="0" dy=".86" flood-color="#000" flood-opacity=".8" in="SourceGraphic" result="Shadow" stdDeviation="1.021"/></filter><filter id="Filter_14" width="10.547" height="10.547" x="17.509" y="28.338" color-interpolation-filters="sRGB" filterUnits="userSpaceOnUse"><feDropShadow dx="0" dy=".86" flood-color="#000" flood-opacity=".8" in="SourceGraphic" result="Shadow" stdDeviation="1.021"/></filter><filter id="Filter_15" width="10.547" height="10.547" x="17.509" y="44.669" color-interpolation-filters="sRGB" filterUnits="userSpaceOnUse"><feDropShadow dx="0" dy=".86" flood-color="#000" flood-opacity=".8" in="SourceGraphic" result="Shadow" stdDeviation="1.021"/></filter><filter id="Filter_16" width="10.547" height="10.547" x="39.283" y="6.564" color-interpolation-filters="sRGB" filterUnits="userSpaceOnUse"><feDropShadow dx="0" dy=".86" flood-color="#000" flood-opacity=".8" in="SourceGraphic" result="Shadow" stdDeviation="1.021"/></filter><filter id="Filter_17" width="10.547" height="21.434" x="39.283" y="14.73" color-interpolation-filters="sRGB" filterUnits="userSpaceOnUse"><feDropShadow dx="0" dy=".86" flood-color="#000" flood-opacity=".8" in="SourceGraphic" result="Shadow" stdDeviation="1.021"/></filter><filter id="Filter_18" width="10.547" height="10.547" x="39.283" y="36.504" color-interpolation-filters="sRGB" filterUnits="userSpaceOnUse"><feDropShadow dx="0" dy=".86" flood-color="#000" flood-opacity=".8" in="SourceGraphic" result="Shadow" stdDeviation="1.021"/></filter><filter id="Filter_19" width="10.547" height="10.547" x="39.283" y="50.113" color-interpolation-filters="sRGB" filterUnits="userSpaceOnUse"><feDropShadow dx="0" dy=".86" flood-color="#000" flood-opacity=".8" in="SourceGraphic" result="Shadow" stdDeviation="1.021"/></filter><filter id="Filter_20" width="10.547" height="10.547" x="39.283" y="66.444" color-interpolation-filters="sRGB" filterUnits="userSpaceOnUse"><feDropShadow dx="0" dy=".86" flood-color="#000" flood-opacity=".8" in="SourceGraphic" result="Shadow" stdDeviation="1.021"/></filter><filter id="Filter_21" width="21.434" height="32.321" x="39.283" y="-1.601" color-interpolation-filters="sRGB" filterUnits="userSpaceOnUse"><feDropShadow dx="0" dy=".86" flood-color="#000" flood-opacity=".8" in="SourceGraphic" result="Shadow" stdDeviation="1.021"/></filter><filter id="Filter_22" width="10.547" height="21.434" x="50.17" y="28.338" color-interpolation-filters="sRGB" filterUnits="userSpaceOnUse"><feDropShadow dx="0" dy=".86" flood-color="#000" flood-opacity=".8" in="SourceGraphic" result="Shadow" stdDeviation="1.021"/></filter><filter id="Filter_23" width="10.547" height="10.547" x="50.17" y="50.113" color-interpolation-filters="sRGB" filterUnits="userSpaceOnUse"><feDropShadow dx="0" dy=".86" flood-color="#000" flood-opacity=".8" in="SourceGraphic" result="Shadow" stdDeviation="1.021"/></filter><filter id="Filter_24" width="10.547" height="10.547" x="50.17" y="63.722" color-interpolation-filters="sRGB" filterUnits="userSpaceOnUse"><feDropShadow dx="0" dy=".86" flood-color="#000" flood-opacity=".8" in="SourceGraphic" result="Shadow" stdDeviation="1.021"/></filter><filter id="Filter_25" width="10.547" height="10.547" x="50.17" y="80.052" color-interpolation-filters="sRGB" filterUnits="userSpaceOnUse"><feDropShadow dx="0" dy=".86" flood-color="#000" flood-opacity=".8" in="SourceGraphic" result="Shadow" stdDeviation="1.021"/></filter><filter id="Filter_26" width="43.208" height="24.156" x="50.17" y="3.842" color-interpolation-filters="sRGB" filterUnits="userSpaceOnUse"><feDropShadow dx="0" dy=".86" flood-color="#000" flood-opacity=".8" in="SourceGraphic" result="Shadow" stdDeviation="1.021"/></filter><filter id="Filter_27" width="10.547" height="21.434" x="82.832" y="25.617" color-interpolation-filters="sRGB" filterUnits="userSpaceOnUse"><feDropShadow dx="0" dy=".86" flood-color="#000" flood-opacity=".8" in="SourceGraphic" result="Shadow" stdDeviation="1.021"/></filter><filter id="Filter_28" width="10.547" height="10.547" x="82.832" y="47.391" color-interpolation-filters="sRGB" filterUnits="userSpaceOnUse"><feDropShadow dx="0" dy=".86" flood-color="#000" flood-opacity=".8" in="SourceGraphic" result="Shadow" stdDeviation="1.021"/></filter><filter id="Filter_29" width="10.547" height="10.547" x="82.832" y="61" color-interpolation-filters="sRGB" filterUnits="userSpaceOnUse"><feDropShadow dx="0" dy=".86" flood-color="#000" flood-opacity=".8" in="SourceGraphic" result="Shadow" stdDeviation="1.021"/></filter><filter id="Filter_30" width="10.547" height="10.547" x="82.832" y="77.331" color-interpolation-filters="sRGB" filterUnits="userSpaceOnUse"><feDropShadow dx="0" dy=".86" flood-color="#000" flood-opacity=".8" in="SourceGraphic" result="Shadow" stdDeviation="1.021"/></filter><filter id="Filter_31" width="21.434" height="21.434" x="71.944" y="-1.601" color-interpolation-filters="sRGB" filterUnits="userSpaceOnUse"><feDropShadow dx="0" dy=".86" flood-color="#000" flood-opacity=".8" in="SourceGraphic" result="Shadow" stdDeviation="1.021"/></filter><filter id="Filter_32" width="10.547" height="21.434" x="71.944" y="17.451" color-interpolation-filters="sRGB" filterUnits="userSpaceOnUse"><feDropShadow dx="0" dy=".86" flood-color="#000" flood-opacity=".8" in="SourceGraphic" result="Shadow" stdDeviation="1.021"/></filter><filter id="Filter_33" width="10.547" height="10.547" x="71.944" y="39.226" color-interpolation-filters="sRGB" filterUnits="userSpaceOnUse"><feDropShadow dx="0" dy=".86" flood-color="#000" flood-opacity=".8" in="SourceGraphic" result="Shadow" stdDeviation="1.021"/></filter><filter id="Filter_34" width="10.547" height="10.547" x="71.944" y="52.835" color-interpolation-filters="sRGB" filterUnits="userSpaceOnUse"><feDropShadow dx="0" dy=".86" flood-color="#000" flood-opacity=".8" in="SourceGraphic" result="Shadow" stdDeviation="1.021"/></filter><filter id="Filter_35" width="10.547" height="10.547" x="71.944" y="69.165" color-interpolation-filters="sRGB" filterUnits="userSpaceOnUse"><feDropShadow dx="0" dy=".86" flood-color="#000" flood-opacity=".8" in="SourceGraphic" result="Shadow" stdDeviation="1.021"/></filter><filter id="Filter_36" width="10.547" height="13.269" x="71.944" y="-1.601" color-interpolation-filters="sRGB" filterUnits="userSpaceOnUse"><feDropShadow dx="0" dy=".86" flood-color="#000" flood-opacity=".8" in="SourceGraphic" result="Shadow" stdDeviation="1.021"/></filter><filter id="Filter_37" width="10.547" height="10.547" x="61.057" y="6.564" color-interpolation-filters="sRGB" filterUnits="userSpaceOnUse"><feDropShadow dx="0" dy=".86" flood-color="#000" flood-opacity=".8" in="SourceGraphic" result="Shadow" stdDeviation="1.021"/></filter><filter id="Filter_38" width="10.547" height="10.547" x="61.057" y="-1.601" color-interpolation-filters="sRGB" filterUnits="userSpaceOnUse"><feDropShadow dx="0" dy=".86" flood-color="#000" flood-opacity=".8" in="SourceGraphic" result="Shadow" stdDeviation="1.021"/></filter><filter id="Filter_39" width="10.547" height="10.547" x="61.057" y="14.73" color-interpolation-filters="sRGB" filterUnits="userSpaceOnUse"><feDropShadow dx="0" dy=".86" flood-color="#000" flood-opacity=".8" in="SourceGraphic" result="Shadow" stdDeviation="1.021"/></filter><filter id="Filter_40" width="10.547" height="10.547" x="61.057" y="28.338" color-interpolation-filters="sRGB" filterUnits="userSpaceOnUse"><feDropShadow dx="0" dy=".86" flood-color="#000" flood-opacity=".8" in="SourceGraphic" result="Shadow" stdDeviation="1.021"/></filter><filter id="Filter_41" width="18.202" height="18.202" x="24.568" y="6.46" color-interpolation-filters="sRGB" filterUnits="userSpaceOnUse"><feDropShadow dx="0" dy="-.86" flood-color="#06f109" flood-opacity=".8" in="SourceGraphic" result="Shadow" stdDeviation="2.552"/></filter><filter id="Filter_42" width="18.202" height="29.089" x="24.568" y="14.626" color-interpolation-filters="sRGB" filterUnits="userSpaceOnUse"><feDropShadow dx="0" dy="-.86" flood-color="#06f109" flood-opacity=".8" in="SourceGraphic" result="Shadow" stdDeviation="2.552"/></filter><filter id="Filter_43" width="18.202" height="18.202" x="24.568" y="36.4" color-interpolation-filters="sRGB" filterUnits="userSpaceOnUse"><feDropShadow dx="0" dy="-.86" flood-color="#06f109" flood-opacity=".8" in="SourceGraphic" result="Shadow" stdDeviation="2.552"/></filter><filter id="Filter_44" width="18.202" height="18.202" x="24.568" y="50.009" color-interpolation-filters="sRGB" filterUnits="userSpaceOnUse"><feDropShadow dx="0" dy="-.86" flood-color="#06f109" flood-opacity=".8" in="SourceGraphic" result="Shadow" stdDeviation="2.552"/></filter><filter id="Filter_45" width="18.202" height="18.202" x="24.568" y="66.34" color-interpolation-filters="sRGB" filterUnits="userSpaceOnUse"><feDropShadow dx="0" dy="-.86" flood-color="#06f109" flood-opacity=".8" in="SourceGraphic" result="Shadow" stdDeviation="2.552"/></filter><filter id="Filter_46" width="61.751" height="37.255" x="2.794" y="-7.148" color-interpolation-filters="sRGB" filterUnits="userSpaceOnUse"><feDropShadow dx="0" dy="-.86" flood-color="#06f109" flood-opacity=".8" in="SourceGraphic" result="Shadow" stdDeviation="2.552"/></filter><filter id="Filter_47" width="18.202" height="29.089" x="2.794" y="20.069" color-interpolation-filters="sRGB" filterUnits="userSpaceOnUse"><feDropShadow dx="0" dy="-.86" flood-color="#06f109" flood-opacity=".8" in="SourceGraphic" result="Shadow" stdDeviation="2.552"/></filter><filter id="Filter_48" width="18.202" height="18.202" x="2.794" y="41.844" color-interpolation-filters="sRGB" filterUnits="userSpaceOnUse"><feDropShadow dx="0" dy="-.86" flood-color="#06f109" flood-opacity=".8" in="SourceGraphic" result="Shadow" stdDeviation="2.552"/></filter><filter id="Filter_49" width="18.202" height="18.202" x="2.794" y="55.453" color-interpolation-filters="sRGB" filterUnits="userSpaceOnUse"><feDropShadow dx="0" dy="-.86" flood-color="#06f109" flood-opacity=".8" in="SourceGraphic" result="Shadow" stdDeviation="2.552"/></filter><filter id="Filter_50" width="18.202" height="18.202" x="2.794" y="71.783" color-interpolation-filters="sRGB" filterUnits="userSpaceOnUse"><feDropShadow dx="0" dy="-.86" flood-color="#06f109" flood-opacity=".8" in="SourceGraphic" result="Shadow" stdDeviation="2.552"/></filter><filter id="Filter_51" width="29.089" height="29.089" x="2.794" y="-7.148" color-interpolation-filters="sRGB" filterUnits="userSpaceOnUse"><feDropShadow dx="0" dy="-.86" flood-color="#06f109" flood-opacity=".8" in="SourceGraphic" result="Shadow" stdDeviation="2.552"/></filter><filter id="Filter_52" width="18.202" height="18.202" x="13.681" y="1.017" color-interpolation-filters="sRGB" filterUnits="userSpaceOnUse"><feDropShadow dx="0" dy="-.86" flood-color="#06f109" flood-opacity=".8" in="SourceGraphic" result="Shadow" stdDeviation="2.552"/></filter><filter id="Filter_53" width="18.202" height="18.202" x="13.681" y="11.904" color-interpolation-filters="sRGB" filterUnits="userSpaceOnUse"><feDropShadow dx="0" dy="-.86" flood-color="#06f109" flood-opacity=".8" in="SourceGraphic" result="Shadow" stdDeviation="2.552"/></filter><filter id="Filter_54" width="18.202" height="18.202" x="13.681" y="22.791" color-interpolation-filters="sRGB" filterUnits="userSpaceOnUse"><feDropShadow dx="0" dy="-.86" flood-color="#06f109" flood-opacity=".8" in="SourceGraphic" result="Shadow" stdDeviation="2.552"/></filter><filter id="Filter_55" width="18.202" height="18.202" x="13.681" y="39.122" color-interpolation-filters="sRGB" filterUnits="userSpaceOnUse"><feDropShadow dx="0" dy="-.86" flood-color="#06f109" flood-opacity=".8" in="SourceGraphic" result="Shadow" stdDeviation="2.552"/></filter><filter id="Filter_56" width="18.202" height="18.202" x="35.456" y="1.017" color-interpolation-filters="sRGB" filterUnits="userSpaceOnUse"><feDropShadow dx="0" dy="-.86" flood-color="#06f109" flood-opacity=".8" in="SourceGraphic" result="Shadow" stdDeviation="2.552"/></filter><filter id="Filter_57" width="18.202" height="29.089" x="35.456" y="9.182" color-interpolation-filters="sRGB" filterUnits="userSpaceOnUse"><feDropShadow dx="0" dy="-.86" flood-color="#06f109" flood-opacity=".8" in="SourceGraphic" result="Shadow" stdDeviation="2.552"/></filter><filter id="Filter_58" width="18.202" height="18.202" x="35.456" y="30.957" color-interpolation-filters="sRGB" filterUnits="userSpaceOnUse"><feDropShadow dx="0" dy="-.86" flood-color="#06f109" flood-opacity=".8" in="SourceGraphic" result="Shadow" stdDeviation="2.552"/></filter><filter id="Filter_59" width="18.202" height="18.202" x="35.456" y="44.566" color-interpolation-filters="sRGB" filterUnits="userSpaceOnUse"><feDropShadow dx="0" dy="-.86" flood-color="#06f109" flood-opacity=".8" in="SourceGraphic" result="Shadow" stdDeviation="2.552"/></filter><filter id="Filter_60" width="18.202" height="18.202" x="35.456" y="60.896" color-interpolation-filters="sRGB" filterUnits="userSpaceOnUse"><feDropShadow dx="0" dy="-.86" flood-color="#06f109" flood-opacity=".8" in="SourceGraphic" result="Shadow" stdDeviation="2.552"/></filter><filter id="Filter_61" width="29.089" height="39.976" x="35.456" y="-7.148" color-interpolation-filters="sRGB" filterUnits="userSpaceOnUse"><feDropShadow dx="0" dy="-.86" flood-color="#06f109" flood-opacity=".8" in="SourceGraphic" result="Shadow" stdDeviation="2.552"/></filter><filter id="Filter_62" width="18.202" height="29.089" x="46.343" y="22.791" color-interpolation-filters="sRGB" filterUnits="userSpaceOnUse"><feDropShadow dx="0" dy="-.86" flood-color="#06f109" flood-opacity=".8" in="SourceGraphic" result="Shadow" stdDeviation="2.552"/></filter><filter id="Filter_63" width="18.202" height="18.202" x="46.343" y="44.566" color-interpolation-filters="sRGB" filterUnits="userSpaceOnUse"><feDropShadow dx="0" dy="-.86" flood-color="#06f109" flood-opacity=".8" in="SourceGraphic" result="Shadow" stdDeviation="2.552"/></filter><filter id="Filter_64" width="18.202" height="18.202" x="46.343" y="58.174" color-interpolation-filters="sRGB" filterUnits="userSpaceOnUse"><feDropShadow dx="0" dy="-.86" flood-color="#06f109" flood-opacity=".8" in="SourceGraphic" result="Shadow" stdDeviation="2.552"/></filter><filter id="Filter_65" width="18.202" height="18.202" x="46.343" y="74.505" color-interpolation-filters="sRGB" filterUnits="userSpaceOnUse"><feDropShadow dx="0" dy="-.86" flood-color="#06f109" flood-opacity=".8" in="SourceGraphic" result="Shadow" stdDeviation="2.552"/></filter><filter id="Filter_66" width="50.863" height="31.811" x="46.343" y="-1.705" color-interpolation-filters="sRGB" filterUnits="userSpaceOnUse"><feDropShadow dx="0" dy="-.86" flood-color="#06f109" flood-opacity=".8" in="SourceGraphic" result="Shadow" stdDeviation="2.552"/></filter><filter id="Filter_67" width="18.202" height="29.089" x="79.004" y="20.069" color-interpolation-filters="sRGB" filterUnits="userSpaceOnUse"><feDropShadow dx="0" dy="-.86" flood-color="#06f109" flood-opacity=".8" in="SourceGraphic" result="Shadow" stdDeviation="2.552"/></filter><filter id="Filter_68" width="18.202" height="18.202" x="79.004" y="41.844" color-interpolation-filters="sRGB" filterUnits="userSpaceOnUse"><feDropShadow dx="0" dy="-.86" flood-color="#06f109" flood-opacity=".8" in="SourceGraphic" result="Shadow" stdDeviation="2.552"/></filter><filter id="Filter_69" width="18.202" height="18.202" x="79.004" y="55.453" color-interpolation-filters="sRGB" filterUnits="userSpaceOnUse"><feDropShadow dx="0" dy="-.86" flood-color="#06f109" flood-opacity=".8" in="SourceGraphic" result="Shadow" stdDeviation="2.552"/></filter><filter id="Filter_70" width="18.202" height="18.202" x="79.004" y="71.783" color-interpolation-filters="sRGB" filterUnits="userSpaceOnUse"><feDropShadow dx="0" dy="-.86" flood-color="#06f109" flood-opacity=".8" in="SourceGraphic" result="Shadow" stdDeviation="2.552"/></filter><filter id="Filter_71" width="29.089" height="29.089" x="68.117" y="-7.148" color-interpolation-filters="sRGB" filterUnits="userSpaceOnUse"><feDropShadow dx="0" dy="-.86" flood-color="#06f109" flood-opacity=".8" in="SourceGraphic" result="Shadow" stdDeviation="2.552"/></filter><filter id="Filter_72" width="18.202" height="29.089" x="68.117" y="11.904" color-interpolation-filters="sRGB" filterUnits="userSpaceOnUse"><feDropShadow dx="0" dy="-.86" flood-color="#06f109" flood-opacity=".8" in="SourceGraphic" result="Shadow" stdDeviation="2.552"/></filter><filter id="Filter_73" width="18.202" height="18.202" x="68.117" y="33.678" color-interpolation-filters="sRGB" filterUnits="userSpaceOnUse"><feDropShadow dx="0" dy="-.86" flood-color="#06f109" flood-opacity=".8" in="SourceGraphic" result="Shadow" stdDeviation="2.552"/></filter><filter id="Filter_74" width="18.202" height="18.202" x="68.117" y="47.287" color-interpolation-filters="sRGB" filterUnits="userSpaceOnUse"><feDropShadow dx="0" dy="-.86" flood-color="#06f109" flood-opacity=".8" in="SourceGraphic" result="Shadow" stdDeviation="2.552"/></filter><filter id="Filter_75" width="18.202" height="18.202" x="68.117" y="63.618" color-interpolation-filters="sRGB" filterUnits="userSpaceOnUse"><feDropShadow dx="0" dy="-.86" flood-color="#06f109" flood-opacity=".8" in="SourceGraphic" result="Shadow" stdDeviation="2.552"/></filter><filter id="Filter_76" width="18.202" height="20.924" x="68.117" y="-7.148" color-interpolation-filters="sRGB" filterUnits="userSpaceOnUse"><feDropShadow dx="0" dy="-.86" flood-color="#06f109" flood-opacity=".8" in="SourceGraphic" result="Shadow" stdDeviation="2.552"/></filter><filter id="Filter_77" width="18.202" height="18.202" x="57.23" y="1.017" color-interpolation-filters="sRGB" filterUnits="userSpaceOnUse"><feDropShadow dx="0" dy="-.86" flood-color="#06f109" flood-opacity=".8" in="SourceGraphic" result="Shadow" stdDeviation="2.552"/></filter><filter id="Filter_78" width="18.202" height="18.202" x="57.23" y="-7.148" color-interpolation-filters="sRGB" filterUnits="userSpaceOnUse"><feDropShadow dx="0" dy="-.86" flood-color="#06f109" flood-opacity=".8" in="SourceGraphic" result="Shadow" stdDeviation="2.552"/></filter><filter id="Filter_79" width="18.202" height="18.202" x="57.23" y="9.182" color-interpolation-filters="sRGB" filterUnits="userSpaceOnUse"><feDropShadow dx="0" dy="-.86" flood-color="#06f109" flood-opacity=".8" in="SourceGraphic" result="Shadow" stdDeviation="2.552"/></filter><filter id="Filter_80" width="18.202" height="18.202" x="57.23" y="22.791" color-interpolation-filters="sRGB" filterUnits="userSpaceOnUse"><feDropShadow dx="0" dy="-.86" flood-color="#06f109" flood-opacity=".8" in="SourceGraphic" result="Shadow" stdDeviation="2.552"/></filter></defs><clipPath id="ArtboardFrame"><rect width="94.412" height="99.856" x="2.794" y="-7.148"/></clipPath><g id="Layer" clip-path="url(#ArtboardFrame)" layerName="Layer"><path fill="#8bc34a" d="M30.9475 13.6996L36.3911 13.6996L36.3911 19.1431L30.9475 19.1431L30.9475 13.6996Z" filter="url(#Filter)" layerName="path 16" shadowAngle="1.571" shadowColor="#000000" shadowOffset=".86" shadowOpacity=".8" shadowRadius="2.041"/><path fill="#64dd17" d="M30.9475 21.8649L36.3911 21.8649L36.3911 27.3085L30.9475 27.3085L30.9475 21.8649ZM30.9475 32.7521L36.3911 32.7521L36.3911 38.1956L30.9475 38.1956L30.9475 32.7521Z" filter="url(#Filter_2)" layerName="path 17" shadowAngle="1.571" shadowColor="#000000" shadowOffset=".86" shadowOpacity=".8" shadowRadius="2.041"/><path fill="#76ff03" d="M30.9475 43.6392L36.3911 43.6392L36.3911 49.0828L30.9475 49.0828L30.9475 43.6392Z" filter="url(#Filter_3)" layerName="path 18" shadowAngle="1.571" shadowColor="#000000" shadowOffset=".86" shadowOpacity=".8" shadowRadius="2.041"/><path fill="#b2ff59" d="M30.9475 57.2482L36.3911 57.2482L36.3911 62.6917L30.9475 62.6917L30.9475 57.2482Z" filter="url(#Filter_4)" layerName="path 19" shadowAngle="1.571" shadowColor="#000000" shadowOffset=".86" shadowOpacity=".8" shadowRadius="2.041"/><path fill="#ccff90" d="M30.9475 73.5789L36.3911 73.5789L36.3911 79.0224L30.9475 79.0224L30.9475 73.5789Z" filter="url(#Filter_5)" layerName="path 20" shadowAngle="1.571" shadowColor="#000000" shadowOffset=".86" shadowOpacity=".8" shadowRadius="2.041"/><path fill="#8bc34a" d="M30.9475 5.53421L36.3911 5.53421L36.3911 10.9778L30.9475 10.9778L30.9475 5.53421ZM30.9475 0.0906318L36.3911 0.0906318L36.3911 2.81242L30.9475 2.81242L30.9475 0.0906318ZM52.7218 0.0906318L58.1654 0.0906318L58.1654 2.81242L52.7218 2.81242L52.7218 0.0906318ZM9.1732 19.1431L14.6168 19.1431L14.6168 24.5867L9.1732 24.5867L9.1732 19.1431Z" filter="url(#Filter_6)" layerName="path 21" shadowAngle="1.571" shadowColor="#000000" shadowOffset=".86" shadowOpacity=".8" shadowRadius="2.041"/><path fill="#64dd17" d="M9.1732 27.3085L14.6168 27.3085L14.6168 32.7521L9.1732 32.7521L9.1732 27.3085ZM9.1732 38.1956L14.6168 38.1956L14.6168 43.6392L9.1732 43.6392L9.1732 38.1956Z" filter="url(#Filter_7)" layerName="path 22" shadowAngle="1.571" shadowColor="#000000" shadowOffset=".86" shadowOpacity=".8" shadowRadius="2.041"/><path fill="#76ff03" d="M9.1732 49.0828L14.6168 49.0828L14.6168 54.5264L9.1732 54.5264L9.1732 49.0828Z" filter="url(#Filter_8)" layerName="path 23" shadowAngle="1.571" shadowColor="#000000" shadowOffset=".86" shadowOpacity=".8" shadowRadius="2.041"/><path fill="#b2ff59" d="M9.1732 62.6917L14.6168 62.6917L14.6168 68.1353L9.1732 68.1353L9.1732 62.6917Z" filter="url(#Filter_9)" layerName="path 24" shadowAngle="1.571" shadowColor="#000000" shadowOffset=".86" shadowOpacity=".8" shadowRadius="2.041"/><path fill="#ccff90" d="M9.1732 79.0224L14.6168 79.0224L14.6168 84.466L9.1732 84.466L9.1732 79.0224Z" filter="url(#Filter_10)" layerName="path 25" shadowAngle="1.571" shadowColor="#000000" shadowOffset=".86" shadowOpacity=".8" shadowRadius="2.041"/><path fill="#8bc34a" d="M9.1732 10.9778L14.6168 10.9778L14.6168 16.4214L9.1732 16.4214L9.1732 10.9778ZM20.0603 0.0906318L25.5039 0.0906318L25.5039 5.53421L20.0603 5.53421L20.0603 0.0906318ZM9.1732 0.0906318L14.6168 0.0906318L14.6168 8.25599L9.1732 8.25599L9.1732 0.0906318Z" filter="url(#Filter_11)" layerName="path 26" shadowAngle="1.571" shadowColor="#000000" shadowOffset=".86" shadowOpacity=".8" shadowRadius="2.041"/><path fill="#64dd17" d="M20.0603 8.25599L25.5039 8.25599L25.5039 13.6996L20.0603 13.6996L20.0603 8.25599Z" filter="url(#Filter_12)" layerName="path 27" shadowAngle="1.571" shadowColor="#000000" shadowOffset=".86" shadowOpacity=".8" shadowRadius="2.041"/><path fill="#76ff03" d="M20.0603 19.1431L25.5039 19.1431L25.5039 24.5867L20.0603 24.5867L20.0603 19.1431Z" filter="url(#Filter_13)" layerName="path 28" shadowAngle="1.571" shadowColor="#000000" shadowOffset=".86" shadowOpacity=".8" shadowRadius="2.041"/><path fill="#b2ff59" d="M20.0603 30.0303L25.5039 30.0303L25.5039 35.4739L20.0603 35.4739L20.0603 30.0303Z" filter="url(#Filter_14)" layerName="path 29" shadowAngle="1.571" shadowColor="#000000" shadowOffset=".86" shadowOpacity=".8" shadowRadius="2.041"/><path fill="#ccff90" d="M20.0603 46.361L25.5039 46.361L25.5039 51.8046L20.0603 51.8046L20.0603 46.361Z" filter="url(#Filter_15)" layerName="path 30" shadowAngle="1.571" shadowColor="#000000" shadowOffset=".86" shadowOpacity=".8" shadowRadius="2.041"/><path fill="#8bc34a" d="M41.8346 8.25599L47.2782 8.25599L47.2782 13.6996L41.8346 13.6996L41.8346 8.25599Z" filter="url(#Filter_16)" layerName="path 31" shadowAngle="1.571" shadowColor="#000000" shadowOffset=".86" shadowOpacity=".8" shadowRadius="2.041"/><path fill="#64dd17" d="M41.8346 16.4214L47.2782 16.4214L47.2782 21.8649L41.8346 21.8649L41.8346 16.4214ZM41.8346 27.3085L47.2782 27.3085L47.2782 32.7521L41.8346 32.7521L41.8346 27.3085Z" filter="url(#Filter_17)" layerName="path 32" shadowAngle="1.571" shadowColor="#000000" shadowOffset=".86" shadowOpacity=".8" shadowRadius="2.041"/><path fill="#76ff03" d="M41.8346 38.1956L47.2782 38.1956L47.2782 43.6392L41.8346 43.6392L41.8346 38.1956Z" filter="url(#Filter_18)" layerName="path 33" shadowAngle="1.571" shadowColor="#000000" shadowOffset=".86" shadowOpacity=".8" shadowRadius="2.041"/><path fill="#b2ff59" d="M41.8346 51.8046L47.2782 51.8046L47.2782 57.2482L41.8346 57.2482L41.8346 51.8046Z" filter="url(#Filter_19)" layerName="path 34" shadowAngle="1.571" shadowColor="#000000" shadowOffset=".86" shadowOpacity=".8" shadowRadius="2.041"/><path fill="#ccff90" d="M41.8346 68.1353L47.2782 68.1353L47.2782 73.5789L41.8346 73.5789L41.8346 68.1353Z" filter="url(#Filter_20)" layerName="path 35" shadowAngle="1.571" shadowColor="#000000" shadowOffset=".86" shadowOpacity=".8" shadowRadius="2.041"/><path fill="#8bc34a" d="M41.8346 0.0906318L47.2782 0.0906318L47.2782 5.53421L41.8346 5.53421L41.8346 0.0906318ZM52.7218 21.8649L58.1654 21.8649L58.1654 27.3085L52.7218 27.3085L52.7218 21.8649Z" filter="url(#Filter_21)" layerName="path 36" shadowAngle="1.571" shadowColor="#000000" shadowOffset=".86" shadowOpacity=".8" shadowRadius="2.041"/><path fill="#64dd17" d="M52.7218 30.0303L58.1654 30.0303L58.1654 35.4739L52.7218 35.4739L52.7218 30.0303ZM52.7218 40.9174L58.1654 40.9174L58.1654 46.361L52.7218 46.361L52.7218 40.9174Z" filter="url(#Filter_22)" layerName="path 37" shadowAngle="1.571" shadowColor="#000000" shadowOffset=".86" shadowOpacity=".8" shadowRadius="2.041"/><path fill="#76ff03" d="M52.7218 51.8046L58.1654 51.8046L58.1654 57.2482L52.7218 57.2482L52.7218 51.8046Z" filter="url(#Filter_23)" layerName="path 38" shadowAngle="1.571" shadowColor="#000000" shadowOffset=".86" shadowOpacity=".8" shadowRadius="2.041"/><path fill="#b2ff59" d="M52.7218 65.4135L58.1654 65.4135L58.1654 70.8571L52.7218 70.8571L52.7218 65.4135Z" filter="url(#Filter_24)" layerName="path 39" shadowAngle="1.571" shadowColor="#000000" shadowOffset=".86" shadowOpacity=".8" shadowRadius="2.041"/><path fill="#ccff90" d="M52.7218 81.7442L58.1654 81.7442L58.1654 87.1878L52.7218 87.1878L52.7218 81.7442Z" filter="url(#Filter_25)" layerName="path 40" shadowAngle="1.571" shadowColor="#000000" shadowOffset=".86" shadowOpacity=".8" shadowRadius="2.041"/><path fill="#8bc34a" d="M52.7218 13.6996L58.1654 13.6996L58.1654 19.1431L52.7218 19.1431L52.7218 13.6996ZM52.7218 5.53421L58.1654 5.53421L58.1654 10.9778L52.7218 10.9778L52.7218 5.53421ZM85.3832 19.1431L90.8268 19.1431L90.8268 24.5867L85.3832 24.5867L85.3832 19.1431Z" filter="url(#Filter_26)" layerName="path 41" shadowAngle="1.571" shadowColor="#000000" shadowOffset=".86" shadowOpacity=".8" shadowRadius="2.041"/><path fill="#64dd17" d="M85.3832 27.3085L90.8268 27.3085L90.8268 32.7521L85.3832 32.7521L85.3832 27.3085ZM85.3832 38.1956L90.8268 38.1956L90.8268 43.6392L85.3832 43.6392L85.3832 38.1956Z" filter="url(#Filter_27)" layerName="path 42" shadowAngle="1.571" shadowColor="#000000" shadowOffset=".86" shadowOpacity=".8" shadowRadius="2.041"/><path fill="#76ff03" d="M85.3832 49.0828L90.8268 49.0828L90.8268 54.5264L85.3832 54.5264L85.3832 49.0828Z" filter="url(#Filter_28)" layerName="path 43" shadowAngle="1.571" shadowColor="#000000" shadowOffset=".86" shadowOpacity=".8" shadowRadius="2.041"/><path fill="#b2ff59" d="M85.3832 62.6917L90.8268 62.6917L90.8268 68.1353L85.3832 68.1353L85.3832 62.6917Z" filter="url(#Filter_29)" layerName="path 44" shadowAngle="1.571" shadowColor="#000000" shadowOffset=".86" shadowOpacity=".8" shadowRadius="2.041"/><path fill="#ccff90" d="M85.3832 79.0224L90.8268 79.0224L90.8268 84.466L85.3832 84.466L85.3832 79.0224Z" filter="url(#Filter_30)" layerName="path 45" shadowAngle="1.571" shadowColor="#000000" shadowOffset=".86" shadowOpacity=".8" shadowRadius="2.041"/><path fill="#8bc34a" d="M85.3832 10.9778L90.8268 10.9778L90.8268 16.4214L85.3832 16.4214L85.3832 10.9778ZM85.3832 0.0906318L90.8268 0.0906318L90.8268 8.25599L85.3832 8.25599L85.3832 0.0906318ZM74.4961 10.9778L79.9397 10.9778L79.9397 16.4214L74.4961 16.4214L74.4961 10.9778Z" filter="url(#Filter_31)" layerName="path 46" shadowAngle="1.571" shadowColor="#000000" shadowOffset=".86" shadowOpacity=".8" shadowRadius="2.041"/><path fill="#64dd17" d="M74.4961 19.1431L79.9397 19.1431L79.9397 24.5867L74.4961 24.5867L74.4961 19.1431ZM74.4961 30.0303L79.9397 30.0303L79.9397 35.4739L74.4961 35.4739L74.4961 30.0303Z" filter="url(#Filter_32)" layerName="path 47" shadowAngle="1.571" shadowColor="#000000" shadowOffset=".86" shadowOpacity=".8" shadowRadius="2.041"/><path fill="#76ff03" d="M74.4961 40.9174L79.9397 40.9174L79.9397 46.361L74.4961 46.361L74.4961 40.9174Z" filter="url(#Filter_33)" layerName="path 48" shadowAngle="1.571" shadowColor="#000000" shadowOffset=".86" shadowOpacity=".8" shadowRadius="2.041"/><path fill="#b2ff59" d="M74.4961 54.5264L79.9397 54.5264L79.9397 59.9699L74.4961 59.9699L74.4961 54.5264Z" filter="url(#Filter_34)" layerName="path 49" shadowAngle="1.571" shadowColor="#000000" shadowOffset=".86" shadowOpacity=".8" shadowRadius="2.041"/><path fill="#ccff90" d="M74.4961 70.8571L79.9397 70.8571L79.9397 76.3007L74.4961 76.3007L74.4961 70.8571Z" filter="url(#Filter_35)" layerName="path 50" shadowAngle="1.571" shadowColor="#000000" shadowOffset=".86" shadowOpacity=".8" shadowRadius="2.041"/><path fill="#8bc34a" d="M74.4961 0.0906318L79.9397 0.0906318L79.9397 8.25599L74.4961 8.25599L74.4961 0.0906318Z" filter="url(#Filter_36)" layerName="path 51" shadowAngle="1.571" shadowColor="#000000" shadowOffset=".86" shadowOpacity=".8" shadowRadius="2.041"/><path fill="#76ff03" d="M63.6089 8.25599L69.0525 8.25599L69.0525 13.6996L63.6089 13.6996L63.6089 8.25599Z" filter="url(#Filter_37)" layerName="path 52" shadowAngle="1.571" shadowColor="#000000" shadowOffset=".86" shadowOpacity=".8" shadowRadius="2.041"/><path fill="#8bc34a" d="M63.6089 0.0906318L69.0525 0.0906318L69.0525 5.53421L63.6089 5.53421L63.6089 0.0906318Z" filter="url(#Filter_38)" layerName="path 53" shadowAngle="1.571" shadowColor="#000000" shadowOffset=".86" shadowOpacity=".8" shadowRadius="2.041"/><path fill="#b2ff59" d="M63.6089 16.4214L69.0525 16.4214L69.0525 21.8649L63.6089 21.8649L63.6089 16.4214Z" filter="url(#Filter_39)" layerName="path 54" shadowAngle="1.571" shadowColor="#000000" shadowOffset=".86" shadowOpacity=".8" shadowRadius="2.041"/><path fill="#ccff90" d="M63.6089 30.0303L69.0525 30.0303L69.0525 35.4739L63.6089 35.4739L63.6089 30.0303Z" filter="url(#Filter_40)" layerName="path 55" shadowAngle="1.571" shadowColor="#000000" shadowOffset=".86" shadowOpacity=".8" shadowRadius="2.041"/><path fill="#8bc34a" d="M30.9475 13.6996L36.3911 13.6996L36.3911 19.1431L30.9475 19.1431L30.9475 13.6996Z" filter="url(#Filter_41)" layerName="path 16" shadowAngle="-1.571" shadowColor="#06f109" shadowOffset=".86" shadowOpacity=".8" shadowRadius="5.103"/><path fill="#64dd17" d="M30.9475 21.8649L36.3911 21.8649L36.3911 27.3085L30.9475 27.3085L30.9475 21.8649ZM30.9475 32.7521L36.3911 32.7521L36.3911 38.1956L30.9475 38.1956L30.9475 32.7521Z" filter="url(#Filter_42)" layerName="path 17" shadowAngle="-1.571" shadowColor="#06f109" shadowOffset=".86" shadowOpacity=".8" shadowRadius="5.103"/><path fill="#76ff03" d="M30.9475 43.6392L36.3911 43.6392L36.3911 49.0828L30.9475 49.0828L30.9475 43.6392Z" filter="url(#Filter_43)" layerName="path 18" shadowAngle="-1.571" shadowColor="#06f109" shadowOffset=".86" shadowOpacity=".8" shadowRadius="5.103"/><path fill="#b2ff59" d="M30.9475 57.2482L36.3911 57.2482L36.3911 62.6917L30.9475 62.6917L30.9475 57.2482Z" filter="url(#Filter_44)" layerName="path 19" shadowAngle="-1.571" shadowColor="#06f109" shadowOffset=".86" shadowOpacity=".8" shadowRadius="5.103"/><path fill="#ccff90" d="M30.9475 73.5789L36.3911 73.5789L36.3911 79.0224L30.9475 79.0224L30.9475 73.5789Z" filter="url(#Filter_45)" layerName="path 20" shadowAngle="-1.571" shadowColor="#06f109" shadowOffset=".86" shadowOpacity=".8" shadowRadius="5.103"/><path fill="#8bc34a" d="M30.9475 5.53421L36.3911 5.53421L36.3911 10.9778L30.9475 10.9778L30.9475 5.53421ZM30.9475 0.0906318L36.3911 0.0906318L36.3911 2.81242L30.9475 2.81242L30.9475 0.0906318ZM52.7218 0.0906318L58.1654 0.0906318L58.1654 2.81242L52.7218 2.81242L52.7218 0.0906318ZM9.1732 19.1431L14.6168 19.1431L14.6168 24.5867L9.1732 24.5867L9.1732 19.1431Z" filter="url(#Filter_46)" layerName="path 21" shadowAngle="-1.571" shadowColor="#06f109" shadowOffset=".86" shadowOpacity=".8" shadowRadius="5.103"/><path fill="#64dd17" d="M9.1732 27.3085L14.6168 27.3085L14.6168 32.7521L9.1732 32.7521L9.1732 27.3085ZM9.1732 38.1956L14.6168 38.1956L14.6168 43.6392L9.1732 43.6392L9.1732 38.1956Z" filter="url(#Filter_47)" layerName="path 22" shadowAngle="-1.571" shadowColor="#06f109" shadowOffset=".86" shadowOpacity=".8" shadowRadius="5.103"/><path fill="#76ff03" d="M9.1732 49.0828L14.6168 49.0828L14.6168 54.5264L9.1732 54.5264L9.1732 49.0828Z" filter="url(#Filter_48)" layerName="path 23" shadowAngle="-1.571" shadowColor="#06f109" shadowOffset=".86" shadowOpacity=".8" shadowRadius="5.103"/><path fill="#b2ff59" d="M9.1732 62.6917L14.6168 62.6917L14.6168 68.1353L9.1732 68.1353L9.1732 62.6917Z" filter="url(#Filter_49)" layerName="path 24" shadowAngle="-1.571" shadowColor="#06f109" shadowOffset=".86" shadowOpacity=".8" shadowRadius="5.103"/><path fill="#ccff90" d="M9.1732 79.0224L14.6168 79.0224L14.6168 84.466L9.1732 84.466L9.1732 79.0224Z" filter="url(#Filter_50)" layerName="path 25" shadowAngle="-1.571" shadowColor="#06f109" shadowOffset=".86" shadowOpacity=".8" shadowRadius="5.103"/><path fill="#8bc34a" d="M9.1732 10.9778L14.6168 10.9778L14.6168 16.4214L9.1732 16.4214L9.1732 10.9778ZM20.0603 0.0906318L25.5039 0.0906318L25.5039 5.53421L20.0603 5.53421L20.0603 0.0906318ZM9.1732 0.0906318L14.6168 0.0906318L14.6168 8.25599L9.1732 8.25599L9.1732 0.0906318Z" filter="url(#Filter_51)" layerName="path 26" shadowAngle="-1.571" shadowColor="#06f109" shadowOffset=".86" shadowOpacity=".8" shadowRadius="5.103"/><path fill="#64dd17" d="M20.0603 8.25599L25.5039 8.25599L25.5039 13.6996L20.0603 13.6996L20.0603 8.25599Z" filter="url(#Filter_52)" layerName="path 27" shadowAngle="-1.571" shadowColor="#06f109" shadowOffset=".86" shadowOpacity=".8" shadowRadius="5.103"/><path fill="#76ff03" d="M20.0603 19.1431L25.5039 19.1431L25.5039 24.5867L20.0603 24.5867L20.0603 19.1431Z" filter="url(#Filter_53)" layerName="path 28" shadowAngle="-1.571" shadowColor="#06f109" shadowOffset=".86" shadowOpacity=".8" shadowRadius="5.103"/><path fill="#b2ff59" d="M20.0603 30.0303L25.5039 30.0303L25.5039 35.4739L20.0603 35.4739L20.0603 30.0303Z" filter="url(#Filter_54)" layerName="path 29" shadowAngle="-1.571" shadowColor="#06f109" shadowOffset=".86" shadowOpacity=".8" shadowRadius="5.103"/><path fill="#ccff90" d="M20.0603 46.361L25.5039 46.361L25.5039 51.8046L20.0603 51.8046L20.0603 46.361Z" filter="url(#Filter_55)" layerName="path 30" shadowAngle="-1.571" shadowColor="#06f109" shadowOffset=".86" shadowOpacity=".8" shadowRadius="5.103"/><path fill="#8bc34a" d="M41.8346 8.25599L47.2782 8.25599L47.2782 13.6996L41.8346 13.6996L41.8346 8.25599Z" filter="url(#Filter_56)" layerName="path 31" shadowAngle="-1.571" shadowColor="#06f109" shadowOffset=".86" shadowOpacity=".8" shadowRadius="5.103"/><path fill="#64dd17" d="M41.8346 16.4214L47.2782 16.4214L47.2782 21.8649L41.8346 21.8649L41.8346 16.4214ZM41.8346 27.3085L47.2782 27.3085L47.2782 32.7521L41.8346 32.7521L41.8346 27.3085Z" filter="url(#Filter_57)" layerName="path 32" shadowAngle="-1.571" shadowColor="#06f109" shadowOffset=".86" shadowOpacity=".8" shadowRadius="5.103"/><path fill="#76ff03" d="M41.8346 38.1956L47.2782 38.1956L47.2782 43.6392L41.8346 43.6392L41.8346 38.1956Z" filter="url(#Filter_58)" layerName="path 33" shadowAngle="-1.571" shadowColor="#06f109" shadowOffset=".86" shadowOpacity=".8" shadowRadius="5.103"/><path fill="#b2ff59" d="M41.8346 51.8046L47.2782 51.8046L47.2782 57.2482L41.8346 57.2482L41.8346 51.8046Z" filter="url(#Filter_59)" layerName="path 34" shadowAngle="-1.571" shadowColor="#06f109" shadowOffset=".86" shadowOpacity=".8" shadowRadius="5.103"/><path fill="#ccff90" d="M41.8346 68.1353L47.2782 68.1353L47.2782 73.5789L41.8346 73.5789L41.8346 68.1353Z" filter="url(#Filter_60)" layerName="path 35" shadowAngle="-1.571" shadowColor="#06f109" shadowOffset=".86" shadowOpacity=".8" shadowRadius="5.103"/><path fill="#8bc34a" d="M41.8346 0.0906318L47.2782 0.0906318L47.2782 5.53421L41.8346 5.53421L41.8346 0.0906318ZM52.7218 21.8649L58.1654 21.8649L58.1654 27.3085L52.7218 27.3085L52.7218 21.8649Z" filter="url(#Filter_61)" layerName="path 36" shadowAngle="-1.571" shadowColor="#06f109" shadowOffset=".86" shadowOpacity=".8" shadowRadius="5.103"/><path fill="#64dd17" d="M52.7218 30.0303L58.1654 30.0303L58.1654 35.4739L52.7218 35.4739L52.7218 30.0303ZM52.7218 40.9174L58.1654 40.9174L58.1654 46.361L52.7218 46.361L52.7218 40.9174Z" filter="url(#Filter_62)" layerName="path 37" shadowAngle="-1.571" shadowColor="#06f109" shadowOffset=".86" shadowOpacity=".8" shadowRadius="5.103"/><path fill="#76ff03" d="M52.7218 51.8046L58.1654 51.8046L58.1654 57.2482L52.7218 57.2482L52.7218 51.8046Z" filter="url(#Filter_63)" layerName="path 38" shadowAngle="-1.571" shadowColor="#06f109" shadowOffset=".86" shadowOpacity=".8" shadowRadius="5.103"/><path fill="#b2ff59" d="M52.7218 65.4135L58.1654 65.4135L58.1654 70.8571L52.7218 70.8571L52.7218 65.4135Z" filter="url(#Filter_64)" layerName="path 39" shadowAngle="-1.571" shadowColor="#06f109" shadowOffset=".86" shadowOpacity=".8" shadowRadius="5.103"/><path fill="#ccff90" d="M52.7218 81.7442L58.1654 81.7442L58.1654 87.1878L52.7218 87.1878L52.7218 81.7442Z" filter="url(#Filter_65)" layerName="path 40" shadowAngle="-1.571" shadowColor="#06f109" shadowOffset=".86" shadowOpacity=".8" shadowRadius="5.103"/><path fill="#8bc34a" d="M52.7218 13.6996L58.1654 13.6996L58.1654 19.1431L52.7218 19.1431L52.7218 13.6996ZM52.7218 5.53421L58.1654 5.53421L58.1654 10.9778L52.7218 10.9778L52.7218 5.53421ZM85.3832 19.1431L90.8268 19.1431L90.8268 24.5867L85.3832 24.5867L85.3832 19.1431Z" filter="url(#Filter_66)" layerName="path 41" shadowAngle="-1.571" shadowColor="#06f109" shadowOffset=".86" shadowOpacity=".8" shadowRadius="5.103"/><path fill="#64dd17" d="M85.3832 27.3085L90.8268 27.3085L90.8268 32.7521L85.3832 32.7521L85.3832 27.3085ZM85.3832 38.1956L90.8268 38.1956L90.8268 43.6392L85.3832 43.6392L85.3832 38.1956Z" filter="url(#Filter_67)" layerName="path 42" shadowAngle="-1.571" shadowColor="#06f109" shadowOffset=".86" shadowOpacity=".8" shadowRadius="5.103"/><path fill="#76ff03" d="M85.3832 49.0828L90.8268 49.0828L90.8268 54.5264L85.3832 54.5264L85.3832 49.0828Z" filter="url(#Filter_68)" layerName="path 43" shadowAngle="-1.571" shadowColor="#06f109" shadowOffset=".86" shadowOpacity=".8" shadowRadius="5.103"/><path fill="#b2ff59" d="M85.3832 62.6917L90.8268 62.6917L90.8268 68.1353L85.3832 68.1353L85.3832 62.6917Z" filter="url(#Filter_69)" layerName="path 44" shadowAngle="-1.571" shadowColor="#06f109" shadowOffset=".86" shadowOpacity=".8" shadowRadius="5.103"/><path fill="#ccff90" d="M85.3832 79.0224L90.8268 79.0224L90.8268 84.466L85.3832 84.466L85.3832 79.0224Z" filter="url(#Filter_70)" layerName="path 45" shadowAngle="-1.571" shadowColor="#06f109" shadowOffset=".86" shadowOpacity=".8" shadowRadius="5.103"/><path fill="#8bc34a" d="M85.3832 10.9778L90.8268 10.9778L90.8268 16.4214L85.3832 16.4214L85.3832 10.9778ZM85.3832 0.0906318L90.8268 0.0906318L90.8268 8.25599L85.3832 8.25599L85.3832 0.0906318ZM74.4961 10.9778L79.9397 10.9778L79.9397 16.4214L74.4961 16.4214L74.4961 10.9778Z" filter="url(#Filter_71)" layerName="path 46" shadowAngle="-1.571" shadowColor="#06f109" shadowOffset=".86" shadowOpacity=".8" shadowRadius="5.103"/><path fill="#64dd17" d="M74.4961 19.1431L79.9397 19.1431L79.9397 24.5867L74.4961 24.5867L74.4961 19.1431ZM74.4961 30.0303L79.9397 30.0303L79.9397 35.4739L74.4961 35.4739L74.4961 30.0303Z" filter="url(#Filter_72)" layerName="path 47" shadowAngle="-1.571" shadowColor="#06f109" shadowOffset=".86" shadowOpacity=".8" shadowRadius="5.103"/><path fill="#76ff03" d="M74.4961 40.9174L79.9397 40.9174L79.9397 46.361L74.4961 46.361L74.4961 40.9174Z" filter="url(#Filter_73)" layerName="path 48" shadowAngle="-1.571" shadowColor="#06f109" shadowOffset=".86" shadowOpacity=".8" shadowRadius="5.103"/><path fill="#b2ff59" d="M74.4961 54.5264L79.9397 54.5264L79.9397 59.9699L74.4961 59.9699L74.4961 54.5264Z" filter="url(#Filter_74)" layerName="path 49" shadowAngle="-1.571" shadowColor="#06f109" shadowOffset=".86" shadowOpacity=".8" shadowRadius="5.103"/><path fill="#ccff90" d="M74.4961 70.8571L79.9397 70.8571L79.9397 76.3007L74.4961 76.3007L74.4961 70.8571Z" filter="url(#Filter_75)" layerName="path 50" shadowAngle="-1.571" shadowColor="#06f109" shadowOffset=".86" shadowOpacity=".8" shadowRadius="5.103"/><path fill="#8bc34a" d="M74.4961 0.0906318L79.9397 0.0906318L79.9397 8.25599L74.4961 8.25599L74.4961 0.0906318Z" filter="url(#Filter_76)" layerName="path 51" shadowAngle="-1.571" shadowColor="#06f109" shadowOffset=".86" shadowOpacity=".8" shadowRadius="5.103"/><path fill="#76ff03" d="M63.6089 8.25599L69.0525 8.25599L69.0525 13.6996L63.6089 13.6996L63.6089 8.25599Z" filter="url(#Filter_77)" layerName="path 52" shadowAngle="-1.571" shadowColor="#06f109" shadowOffset=".86" shadowOpacity=".8" shadowRadius="5.103"/><path fill="#8bc34a" d="M63.6089 0.0906318L69.0525 0.0906318L69.0525 5.53421L63.6089 5.53421L63.6089 0.0906318Z" filter="url(#Filter_78)" layerName="path 53" shadowAngle="-1.571" shadowColor="#06f109" shadowOffset=".86" shadowOpacity=".8" shadowRadius="5.103"/><path fill="#b2ff59" d="M63.6089 16.4214L69.0525 16.4214L69.0525 21.8649L63.6089 21.8649L63.6089 16.4214Z" filter="url(#Filter_79)" layerName="path 54" shadowAngle="-1.571" shadowColor="#06f109" shadowOffset=".86" shadowOpacity=".8" shadowRadius="5.103"/><path fill="#ccff90" d="M63.6089 30.0303L69.0525 30.0303L69.0525 35.4739L63.6089 35.4739L63.6089 30.0303Z" filter="url(#Filter_80)" layerName="path 55" shadowAngle="-1.571" shadowColor="#06f109" shadowOffset=".86" shadowOpacity=".8" shadowRadius="5.103"/></g></svg>