<svg width="100%" height="100%" viewBox="0 0 100 100" version="1.1" xml:space="preserve" xmlns="http://www.w3.org/2000/svg" xmlns:xlink="http://www.w3.org/1999/xlink"><path fill="#efefef" d="M2 50C2 34.896 14.2442 22.6519 29.3481 22.6519C44.4521 22.6519 56.6963 34.896 56.6963 50C56.6963 65.104 44.4521 77.3481 29.3481 77.3481C14.2442 77.3481 2 65.104 2 50ZM59.8539 49.8454C59.8539 35.8015 65.3964 24.4184 72.2362 24.4184C79.076 24.4184 84.6185 35.8015 84.6185 49.8454C84.6185 63.8894 79.076 75.2725 72.2362 75.2725C65.3909 75.2725 59.8539 63.8894 59.8539 49.8454ZM88.3062 49.8454C88.3062 37.1485 90.4757 26.8639 93.1531 26.8639C95.8305 26.8639 98 37.154 98 49.8454C98 62.5369 95.8305 72.8269 93.1531 72.8269C90.4757 72.8269 88.3062 62.5369 88.3062 49.8454Z"/></svg>