<svg height="100%" viewBox="0 0 100 100" width="100%" xml:space="preserve" xmlns="http://www.w3.org/2000/svg" xmlns:xlink="http://www.w3.org/1999/xlink"><defs><linearGradient gradientTransform="matrix(1 0 0 1 0 0)" gradientUnits="userSpaceOnUse" id="LinearGradient" x1="45.9831" x2="90.4887" y1="34.1354" y2="80.4618"><stop offset="0" stop-color="#26c6da"/><stop offset="1" stop-color="#00f1d5"/></linearGradient><filter color-interpolation-filters="sRGB" filterUnits="userSpaceOnUse" height="78.4497" id="Filter" width="60.1359" x="38.1841" y="26.9153"><feDropShadow dx="-3.67321e-06" dy="1" flood-color="#000000" flood-opacity="0.65" in="SourceGraphic" result="Shadow" stdDeviation="2"/></filter><linearGradient gradientTransform="matrix(1 0 0 1 5.32907e-15 0)" gradientUnits="userSpaceOnUse" id="LinearGradient_2" x1="11.9749" x2="51.2231" y1="95.2901" y2="5.98748"><stop offset="0" stop-color="#475ac9"/><stop offset="1" stop-color="#0536cc"/></linearGradient><filter color-interpolation-filters="sRGB" filterUnits="userSpaceOnUse" height="108.73" id="Filter_2" width="77.6875" x="1.67999" y="-3.365"><feDropShadow dx="-3.67321e-06" dy="1" flood-color="#000000" flood-opacity="0.65" in="SourceGraphic" result="Shadow" stdDeviation="2"/></filter></defs><path d="M93.32 99.365C42.7729 99.365 42.719 62.9455 43.3163 30.9937L56.7561 31.0377C56.7561 31.0377 49.9946 37.0207 49.9946 37.055C49.9946 37.0893 43.1841 30.9153 43.1841 30.9153L56.7463 31.0132C56.3203 66.1818 57.2163 84.365 93.32 84.365L93.32 99.365Z" fill="url(#LinearGradient)" filter="url(#Filter)"/><path d="M49.9925 0.635L25.6175 31.092L42.7737 31.092L42.7737 49.3108C42.7737 73.3799 42.7837 84.365 6.67999 84.365L6.67999 99.365C55.5436 99.365 57.1258 74.9218 57.18 51.717L57.2112 51.717L57.2112 31.092L74.3675 31.092L49.9925 0.635Z" fill="url(#LinearGradient_2)" filter="url(#Filter_2)"/></svg>
