<svg xmlns="http://www.w3.org/2000/svg" width="100%" height="100%" baseProfile="basic" viewBox="0 0 48 48"><defs><linearGradient id="LG" x1="24" x2="24" y1="47.239" y2="33.995" gradientUnits="userSpaceOnUse"><stop offset="0" stop-color="#962aff"/><stop offset=".781" stop-color="#be85ff"/><stop offset="1" stop-color="#c99fff"/></linearGradient><linearGradient id="LG2" x1="24" x2="24" y1="38.583" y2="19.119" gradientUnits="userSpaceOnUse"><stop offset="0" stop-color="#4eaefe" stop-opacity=".2"/><stop offset="1" stop-color="#41a2fe" stop-opacity=".4"/></linearGradient><linearGradient id="LG3" x1="24" x2="24" y1="39.996" y2="11.655" gradientUnits="userSpaceOnUse"><stop offset="0" stop-color="#fff" stop-opacity=".2"/><stop offset="1" stop-color="#71b5ff" stop-opacity=".4"/></linearGradient><linearGradient id="LG4" x1="24" x2="24" y1="35.955" y2="4.373" gradientUnits="userSpaceOnUse"><stop offset="0" stop-color="#962aff"/><stop offset=".781" stop-color="#be85ff"/><stop offset="1" stop-color="#c99fff"/></linearGradient><linearGradient id="LG5" x1="24" x2="24" y1="30.058" y2="-2.963" gradientUnits="userSpaceOnUse"><stop offset="0" stop-color="#962aff"/><stop offset=".781" stop-color="#be85ff"/><stop offset="1" stop-color="#c99fff"/></linearGradient></defs><g><g fill="#904AFF"><path d="M30.2,32.07v4.4c-0.26,0.09-0.53,0.17-0.8,0.23c-0.26,0.07-0.53,0.13-0.8,0.17	c-0.26,0.04-0.53,0.08-0.8,0.1C27.54,36.99,27.27,37,27,37h-6c-0.27,0-0.54-0.01-0.8-0.03c-0.27-0.02-0.54-0.06-0.8-0.1	c-0.27-0.04-0.54-0.1-0.8-0.17c-0.27-0.06-0.54-0.14-0.8-0.23v-4.4c0.25,0.17,0.52,0.31,0.8,0.43c0.26,0.11,0.52,0.21,0.8,0.28	c0.26,0.08,0.53,0.13,0.8,0.16C20.46,32.98,20.73,33,21,33h6c0.27,0,0.54-0.02,0.8-0.06c0.27-0.03,0.54-0.08,0.8-0.16	c0.28-0.07,0.54-0.17,0.8-0.28C29.68,32.38,29.95,32.24,30.2,32.07z" opacity=".1"/><path d="M29.4,32.5v4.2c-0.26,0.07-0.53,0.13-0.8,0.17c-0.26,0.04-0.53,0.08-0.8,0.1	C27.54,36.99,27.27,37,27,37h-6c-0.27,0-0.54-0.01-0.8-0.03c-0.27-0.02-0.54-0.06-0.8-0.1c-0.27-0.04-0.54-0.1-0.8-0.17v-4.2	c0.26,0.11,0.52,0.21,0.8,0.28c0.26,0.08,0.53,0.13,0.8,0.16C20.46,32.98,20.73,33,21,33h6c0.27,0,0.54-0.02,0.8-0.06	c0.27-0.03,0.54-0.08,0.8-0.16C28.88,32.71,29.14,32.61,29.4,32.5z" opacity=".2"/><path d="M28.6,32.78v4.09c-0.26,0.04-0.53,0.08-0.8,0.1C27.54,36.99,27.27,37,27,37h-6	c-0.27,0-0.54-0.01-0.8-0.03c-0.27-0.02-0.54-0.06-0.8-0.1v-4.09c0.26,0.08,0.53,0.13,0.8,0.16C20.46,32.98,20.73,33,21,33h6	c0.27,0,0.54-0.02,0.8-0.06C28.07,32.91,28.34,32.86,28.6,32.78z" opacity=".3"/><path d="M27.8,32.94v4.03C27.54,36.99,27.27,37,27,37h-6c-0.27,0-0.54-0.01-0.8-0.03v-4.03	C20.46,32.98,20.73,33,21,33h6C27.27,33,27.54,32.98,27.8,32.94z" opacity=".4"/><path fill="url(#LG)" d="M30,42h-3v-9h-6v9h-3c-1.105,0-2,0.895-2,2c0,1.105,0.895,2,2,2h12c1.105,0,2-0.895,2-2	C32,42.895,31.105,42,30,42z"/><rect width="6" height="6" x="21" y="33" opacity=".05"/><rect width="6" height="5.6" x="21" y="33" opacity=".1"/><rect width="6" height="5.2" x="21" y="33" opacity=".2"/><rect width="6" height="4.8" x="21" y="33" opacity=".3"/><rect width="6" height="4.4" x="21" y="33" opacity=".4"/></g><path fill="url(#LG2)" d="M39,21h-2v-2c0-1.105-0.895-2-2-2c-1.105,0-2,0.895-2,2v8c0,3.314-2.686,6-6,6h-6	c-3.314,0-6-2.686-6-6v-8c0-1.105-0.895-2-2-2c-1.105,0-2,0.895-2,2v2H9c-0.828,0-1.5,0.672-1.5,1.5S8.172,24,9,24h2v3	c0,5.523,4.477,10,10,10h6c5.523,0,10-4.477,10-10v-3h2c0.828,0,1.5-0.672,1.5-1.5S39.828,21,39,21z"/><g fill="#3D59FC"><path fill="url(#LG3)" d="M39,21h-2v-2c0-1.105-0.895-2-2-2v0.5c0.827,0,1.5,0.673,1.5,1.5v2c0,0.276,0.224,0.5,0.5,0.5	h2c0.551,0,1,0.449,1,1s-0.449,1-1,1h-2c-0.276,0-0.5,0.224-0.5,0.5v3c0,5.238-4.262,9.5-9.5,9.5h-6c-5.238,0-9.5-4.262-9.5-9.5v-3	c0-0.276-0.224-0.5-0.5-0.5H9c-0.551,0-1-0.449-1-1s0.449-1,1-1h2c0.276,0,0.5-0.224,0.5-0.5v-2c0-0.827,0.673-1.5,1.5-1.5V17	c-1.105,0-2,0.895-2,2v2H9c-0.828,0-1.5,0.672-1.5,1.5S8.172,24,9,24h2v3c0,5.523,4.477,10,10,10h6c5.523,0,10-4.477,10-10v-3h2	c0.828,0,1.5-0.672,1.5-1.5S39.828,21,39,21z"/><path d="M35,17v10c0,4.41-3.59,8-8,8h-6c-4.41,0-8-3.59-8-8V17c0.14,0,0.27,0.01,0.4,0.04	c0.14,0.03,0.27,0.07,0.4,0.13c0.14,0.06,0.28,0.14,0.4,0.23c0.15,0.12,0.29,0.26,0.4,0.41C14.86,18.14,15,18.56,15,19v8	c0,3.31,2.69,6,6,6h6c3.31,0,6-2.69,6-6v-8c0-0.44,0.14-0.86,0.4-1.19c0.11-0.15,0.25-0.29,0.4-0.41c0.12-0.09,0.26-0.17,0.4-0.23	c0.13-0.06,0.26-0.1,0.4-0.13C34.73,17.01,34.86,17,35,17z" opacity=".05"/><path d="M34.6,17.04V27c0,4.19-3.41,7.6-7.6,7.6h-6c-4.19,0-7.6-3.41-7.6-7.6v-9.96	c0.14,0.03,0.27,0.07,0.4,0.13c0.14,0.06,0.28,0.14,0.4,0.23c0.15,0.12,0.29,0.26,0.4,0.41C14.86,18.14,15,18.56,15,19v8	c0,3.31,2.69,6,6,6h6c3.31,0,6-2.69,6-6v-8c0-0.44,0.14-0.86,0.4-1.19c0.11-0.15,0.25-0.29,0.4-0.41c0.12-0.09,0.26-0.17,0.4-0.23	C34.33,17.11,34.46,17.07,34.6,17.04z" opacity=".1"/><path d="M34.2,17.17V27c0,3.97-3.23,7.2-7.2,7.2h-6c-3.97,0-7.2-3.23-7.2-7.2v-9.83	c0.14,0.06,0.28,0.14,0.4,0.23c0.15,0.12,0.29,0.26,0.4,0.41C14.86,18.14,15,18.56,15,19v8c0,3.31,2.69,6,6,6h6c3.31,0,6-2.69,6-6	v-8c0-0.44,0.14-0.86,0.4-1.19c0.11-0.15,0.25-0.29,0.4-0.41C33.92,17.31,34.06,17.23,34.2,17.17z" opacity=".2"/><path d="M33.8,17.4V27c0,3.75-3.05,6.8-6.8,6.8h-6c-3.75,0-6.8-3.05-6.8-6.8v-9.6	c0.15,0.12,0.29,0.26,0.4,0.41C14.86,18.14,15,18.56,15,19v8c0,3.31,2.69,6,6,6h6c3.31,0,6-2.69,6-6v-8c0-0.44,0.14-0.86,0.4-1.19	C33.51,17.66,33.65,17.52,33.8,17.4z" opacity=".3"/><path d="M33.4,17.81V27c0,3.53-2.87,6.4-6.4,6.4h-6c-3.53,0-6.4-2.87-6.4-6.4v-9.19	C14.86,18.14,15,18.56,15,19v8c0,3.31,2.69,6,6,6h6c3.31,0,6-2.69,6-6v-8C33,18.56,33.14,18.14,33.4,17.81z" opacity=".4"/></g><path fill="url(#LG4)" d="M15,11v16c0,3.314,2.686,6,6,6h6c3.314,0,6-2.686,6-6V11c0-4.971-4.029-9-9-9S15,6.029,15,11z"/><path fill="url(#LG5)" d="M28.5,12H33v3h-4.5c-0.828,0-1.5-0.672-1.5-1.5v0C27,12.672,27.672,12,28.5,12z M15,15h4.5	c0.828,0,1.5-0.672,1.5-1.5v0c0-0.828-0.672-1.5-1.5-1.5H15V15z M28.5,21H33v-3h-4.5c-0.828,0-1.5,0.672-1.5,1.5v0	C27,20.328,27.672,21,28.5,21z M15,21h4.5c0.828,0,1.5-0.672,1.5-1.5v0c0-0.828-0.672-1.5-1.5-1.5H15V21z M28.5,27H33v-3h-4.5	c-0.828,0-1.5,0.672-1.5,1.5v0C27,26.328,27.672,27,28.5,27z M15,27h4.5c0.828,0,1.5-0.672,1.5-1.5v0c0-0.828-0.672-1.5-1.5-1.5H15	V27z"/></g></svg>