<svg width="100%" height="100%" viewBox="0 0 100 100" stroke-miterlimit="10" style="fill-rule:nonzero;clip-rule:evenodd;stroke-linecap:round;stroke-linejoin:round;" version="1.1" xml:space="preserve" xmlns="http://www.w3.org/2000/svg" xmlns:xlink="http://www.w3.org/1999/xlink"><defs><linearGradient id="LG_PinkMoon" gradientTransform="matrix(25.0229 -83.7123 83.7123 25.0229 44.6134 95.2839)" gradientUnits="userSpaceOnUse" x1="0" x2="1" y1="0" y2="0"><stop offset="0" stop-color="#9d12ee"/><stop offset="1" stop-color="#e50cf0"/></linearGradient><filter id="Fi_PinkMoon" color-interpolation-filters="sRGB" filterUnits="userSpaceOnUse" height="99.6307" width="85.6065" x="7.19676" y="0.635668"><feDropShadow dx="-1.65674e-06" dy="0.451035" flood-color="#000" flood-opacity="0.66" in="SourceGraphic" result="Shadow" stdDeviation="0.932787"/></filter></defs><g><path fill="url(#LG_PinkMoon)" fill-rule="nonzero" filter="url(#Fi_PinkMoon)" stroke="none" shadowAngle="1.5708" shadowColor="#000" shadowOffset="0.451035" shadowOpacity="0.66" shadowRadius="1.86557" d="M49.244 6.19372C48.0263 7.86812 47.4174 9.61863 47.4174 11.4452C47.4174 13.2719 47.8741 15.5551 48.7874 18.2951C49.7007 21.035 50.1574 24.6121 50.1574 29.0265C50.1574 33.4408 49.244 38.0834 47.4174 42.9544C46.5594 45.2424 45.8164 47.6018 44.0027 50.4607C41.9553 53.6882 38.8101 57.3506 37.5993 58.4807C36.4185 59.5828 32.5436 62.8888 28.4015 65.0399C24.5346 67.048 20.412 67.9313 18.6482 68.2988C18.0379 68.4259 14.9817 69.231 12.7945 70.9404C11.1062 72.26 10.1487 74.4313 9.90788 75.2974C9.28013 77.5552 9.57052 79.883 9.79736 80.6864C10.5101 83.2107 12.2737 85.4655 13.6053 86.7766C16.8414 89.9626 19.5255 91.1426 22.1527 92.5396C26.9718 95.102 31.9129 95.9262 34.2543 96.4422C37.1391 97.0781 41.4427 97.5136 45.5936 97.4818C48.0736 97.4628 52.695 97.1875 56.8591 96.037C60.5978 95.0041 63.943 93.1373 65.4553 92.2732C68.6519 90.4465 71.6201 88.2394 74.3601 85.6517C77.1 83.0639 79.1549 80.8568 80.5249 79.0302C81.8949 77.2035 83.1887 75.1486 84.4065 72.8653C84.6273 72.4513 86.8865 68.294 88.3657 63.336C89.845 58.378 89.9721 57.0168 90.3236 53.0332C91.1798 43.3293 88.0422 34.6821 87.8314 34.0497C87.2877 32.4186 84.3752 25.671 81.3515 21.2881C79.8515 19.1139 77.6987 16.0272 74.3285 12.9141C70.6567 9.52238 65.7521 6.15347 64.0853 5.28041C60.8887 3.60601 58.4533 2.6927 56.7789 2.54048C55.9249 2.46285 54.1648 2.54081 52.6148 3.28749C51.1256 4.00488 49.8407 5.37327 49.244 6.19372Z"/></g></svg>