<svg xmlns="http://www.w3.org/2000/svg" xmlns:xlink="http://www.w3.org/1999/xlink" width="100%" height="100%" stroke-miterlimit="10" version="1.1" viewBox="0 0 100 100" xml:space="preserve" style="fill-rule:nonzero;clip-rule:evenodd;stroke-linecap:round;stroke-linejoin:round"><defs><linearGradient id="LG" x1="0" x2="1" y1="0" y2="0" gradientTransform="matrix(23.2571 -77.805 77.805 23.2571 45.0646 91.4428)" gradientUnits="userSpaceOnUse"><stop offset="0" stop-color="#9d12ee"/><stop offset="1" stop-color="#e50cf0"/></linearGradient></defs><g style="fill:none;stroke:#010033;stroke-linecap:butt;stroke-linejoin:round"><path stroke-width="3" d="M49.3684 8.63939C45.6472 12.2252 48.8477 15.7222 49.899 24.2903C50.9916 33.1949 48.9791 41.997 44.497 49.7826C37.1113 62.6118 12.669 65.0888 12.4592 75.3212C12.2855 83.7872 22.9668 88.8862 29.4562 91.0596C47.8188 97.2097 66.5034 91.5306 78.4419 76.336C91.6564 59.5175 90.1898 34.0298 75.9321 18.2932C69.3233 10.9988 55.8129 2.42933 49.3684 8.63939Z" opacity=".4"/><path stroke-width="6" d="M49.3684 8.63939C45.6472 12.2252 48.8477 15.7222 49.899 24.2903C50.9916 33.1949 48.9791 41.997 44.497 49.7826C37.1113 62.6118 12.669 65.0888 12.4592 75.3212C12.2855 83.7872 22.9668 88.8862 29.4562 91.0596C47.8188 97.2097 66.5034 91.5306 78.4419 76.336C91.6564 59.5175 90.1898 34.0298 75.9321 18.2932C69.3233 10.9988 55.8129 2.42933 49.3684 8.63939Z" opacity=".3"/><path stroke-width="9" d="M49.3684 8.63939C45.6472 12.2252 48.8477 15.7222 49.899 24.2903C50.9916 33.1949 48.9791 41.997 44.497 49.7826C37.1113 62.6118 12.669 65.0888 12.4592 75.3212C12.2855 83.7872 22.9668 88.8862 29.4562 91.0596C47.8188 97.2097 66.5034 91.5306 78.4419 76.336C91.6564 59.5175 90.1898 34.0298 75.9321 18.2932C69.3233 10.9988 55.8129 2.42933 49.3684 8.63939Z" opacity=".2"/><path stroke-width="12" d="M49.3684 8.63939C45.6472 12.2252 48.8477 15.7222 49.899 24.2903C50.9916 33.1949 48.9791 41.997 44.497 49.7826C37.1113 62.6118 12.669 65.0888 12.4592 75.3212C12.2855 83.7872 22.9668 88.8862 29.4562 91.0596C47.8188 97.2097 66.5034 91.5306 78.4419 76.336C91.6564 59.5175 90.1898 34.0298 75.9321 18.2932C69.3233 10.9988 55.8129 2.42933 49.3684 8.63939Z" opacity=".1"/></g><path fill="url(#LG)" d="M49.3684 8.63939C45.6472 12.2252 48.8477 15.7222 49.899 24.2903C50.9916 33.1949 48.9791 41.997 44.497 49.7826C37.1113 62.6118 12.669 65.0888 12.4592 75.3212C12.2855 83.7872 22.9668 88.8862 29.4562 91.0596C47.8188 97.2097 66.5034 91.5306 78.4419 76.336C91.6564 59.5175 90.1898 34.0298 75.9321 18.2932C69.3233 10.9988 55.8129 2.42933 49.3684 8.63939Z"/></svg>