<svg xmlns="http://www.w3.org/2000/svg" xmlns:vectornator="http://vectornator.io" xmlns:xlink="http://www.w3.org/1999/xlink" height="100%" stroke-miterlimit="10" style="fill-rule:nonzero;clip-rule:evenodd;stroke-linecap:round;stroke-linejoin:round" width="100%" version="1.1" viewBox="0 0 48 48" xml:space="preserve"><defs><linearGradient id="LinearGradient" x1="0" x2="1" y1="0" y2="0" gradientTransform="matrix(14.2553 -8.39051 8.91402 13.7889 17.0095 28.9202)" gradientUnits="userSpaceOnUse"><stop offset="0" stop-color="#ff2800"/><stop offset=".352" stop-color="red"/><stop offset=".687" stop-color="#fa002a"/><stop offset="1" stop-color="#ff004f"/></linearGradient></defs><g id="Untitled" vectornator:layerName="Untitled"><g opacity="1" vectornator:layerName="Group 1"><path fill="url(#LinearGradient)" fill-rule="nonzero" stroke="none" d="M24 4.65625C18.599 4.65625 13.5394 6.88905 9.8125 10.8125C8.84128 11.8349 8.86391 13.4866 9.84375 14.5C10.8236 15.5134 12.4038 15.5224 13.375 14.5C16.173 11.5544 19.9454 9.875 24 9.875C29.427 9.875 34.1824 12.8677 36.8125 17.375L33.5312 18.125C32.5866 18.3344 31.9867 19.2956 32.1875 20.2812C32.2513 20.5944 32.4197 20.8869 32.625 21.125L39.7812 27.125C39.7813 27.125 40.596 27.8482 41.3125 27.75C42.029 27.6518 42.6562 26.75 42.6562 26.75L46.9062 17.9375C47.2047 16.9792 46.6997 15.9676 45.7812 15.6562C45.4893 15.5573 45.1752 15.5272 44.875 15.5937L41.9375 16.25C38.67 9.3764 31.8516 4.65625 24 4.65625ZM6.6875 20.25C5.97102 20.3482 5.34375 21.25 5.34375 21.25L1.09375 30.0625C0.795328 31.0208 1.30029 32.0324 2.21875 32.3437C2.51067 32.4427 2.82477 32.4728 3.125 32.4062L6.0625 31.75C9.33005 38.6236 16.1484 43.3437 24 43.3437C29.401 43.3437 34.4606 41.111 38.1875 37.1875C39.1587 36.1651 39.1361 34.5134 38.1562 33.5C37.1764 32.4866 35.5962 32.4776 34.625 33.5C31.827 36.4456 28.0546 38.125 24 38.125C18.573 38.125 13.8176 35.1323 11.1875 30.625L14.4688 29.875C15.4134 29.6656 16.0133 28.7044 15.8125 27.7187C15.7487 27.4056 15.5803 27.1131 15.375 26.875L8.21875 20.875C8.21875 20.875 7.40398 20.1518 6.6875 20.25Z" opacity="1" vectornator:layerName="Curve 1"/></g></g></svg>