<svg xmlns="http://www.w3.org/2000/svg" xmlns:xlink="http://www.w3.org/1999/xlink" width="100%" height="100%" viewBox="0 0 48 48"><style>@keyframes Combined-Shape_t{0%{transform:translate(23.989469px,23.996749px) rotate(0deg) translate(-23.989469px,-23.996749px)}}</style><title>stat48_navigation_refresh</title><g fill="#efefef"><path id="Combined-Shape" d="M13.7222,30.2257C15.828,33.6841,19.6338,35.9935,23.9789,35.9935C27.2252,35.9935,30.2616,34.7011,32.5018,32.441C33.2794,31.6565,34.5457,31.6509,35.3302,32.4285C36.1147,33.2061,36.1203,34.4724,35.3427,35.2569C32.3588,38.2673,28.3032,39.9935,23.9789,39.9935C17.6926,39.9935,12.253,36.3681,9.63686,31.0941L7.2661,31.598C7.02572,31.6491,6.77612,31.636,6.5424,31.5601C5.80704,31.3212,5.40461,30.5313,5.64354,29.796L8.51222,20.9671L8.51222,20.9671C8.58816,20.7334,8.72429,20.5238,8.90692,20.3593C9.48152,19.8419,10.3667,19.8883,10.8841,20.4629L17.0958,27.3617C17.2602,27.5444,17.3737,27.7671,17.4248,28.0074C17.5856,28.7637,17.1028,29.5072,16.3465,29.6679L13.7222,30.2257ZM34.2568,17.7678C32.1509,14.3094,28.3451,12,24,12C20.7537,12,17.7174,13.2924,15.4771,15.5525C14.6995,16.337,13.4332,16.3426,12.6487,15.565C11.8642,14.7874,11.8586,13.5211,12.6362,12.7366C15.6202,9.7262,19.6757,8,24,8C30.2864,8,35.726,11.6254,38.3421,16.8994L40.7128,16.3955C40.9532,16.3444,41.2028,16.3575,41.4365,16.4334C42.1719,16.6723,42.5743,17.4622,42.3354,18.1975L39.4667,27.0264L39.4667,27.0264C39.3908,27.2601,39.2546,27.4697,39.072,27.6342C38.4974,28.1515,37.6122,28.1052,37.0948,27.5306L30.8831,20.6318C30.7187,20.4491,30.6052,20.2264,30.5541,19.9861C30.3934,19.2298,30.8762,18.4863,31.6325,18.3256L31.6325,18.3256L34.2568,17.7678Z" transform="translate(23.9895,23.9967) translate(-23.9895,-23.9967)" style="animation:Combined-Shape_t 1s linear infinite both"/></g></svg>