<svg
   width="100%"
   height="100%"
   viewBox="0 0 48 48"
   version="1.1"
   id="svg1"
   xmlns="http://www.w3.org/2000/svg"
   xmlns:svg="http://www.w3.org/2000/svg">
  <defs
     id="defs1" />
  <namedview
     id="namedview1"
     pagecolor="#505050"
     bordercolor="#ffffff"
     borderopacity="1"
     showpageshadow="0"
     pageopacity="0"
     pagecheckerboard="1"
     deskcolor="#505050"
     zoom="8.6619018"
     cx="20.492036"
     cy="19.683899"
     current-layer="g1" />
  <style
     id="style1">&#10;@keyframes Combined-Shape_t { 0% { transform: translate(7.9px,0px); animation-timing-function: cubic-bezier(0.42,0,0.58,1); } 33.3333% { transform: translate(-5.9px,0px); animation-timing-function: cubic-bezier(0.42,0,0.58,1); } 100% { transform: translate(7.9px,0px); } }&#10;    </style>
  <title
     id="title1">&#10;stat48_navigation_arrow_left</title>
  <g
     fill="#efefef"
     id="g1">
    <path
       id="Combined-Shape"
       d="M 18.9698,24 31.4849,11.4849 c 0.8201,-0.8201 0.8201,-2.14972 0,-2.96982 -0.8201,-0.82011 -2.1497,-0.82011 -2.9698,0 l -14,14.00002 C 14.105,22.9251 13.9,23.4626 13.9,24 c 0,0.5374 0.205,1.0749 0.6151,1.4849 l 14,14 c 0.8201,0.8201 2.1497,0.8201 2.9698,0 0.8201,-0.8201 0.8201,-2.1497 0,-2.9698 z"
       transform="translate(7.9)"
       style="animation:Combined-Shape_t 1s linear infinite both"
       label="Combined-Shape" />
    <path
       id="path1"
       d="m 26.8698,24 12.5151,12.5151 c 0.8201,0.8201 0.8201,2.14972 0,2.96982 -0.8201,0.82011 -2.1497,0.82011 -2.9698,0 l -14,-14.00002 C 22.005,25.0749 21.8,24.5374 21.8,24 c 0,-0.02974 5.0698,0 5.0698,0 z"
       label="Combined-Shape"
       nodetypes="cssccsc"
       style="animation:Combined-Shape_t 1s linear infinite both" />
    <path
       id="path2"
       d="M 26.8698,24 39.3849,11.4849 c 0.8201,-0.8201 0.8201,-2.14972 0,-2.9698196 -0.8201,-0.82011 -2.1497,-0.82011 -2.9698,0 l -14,14.0000196 C 22.005,22.9251 21.8,23.4626 21.8,24 c 0,0.02974 5.0698,0 5.0698,0 z"
       label="Combined-Shape"
       nodetypes="cssccsc"
       style="animation:Combined-Shape_t 1s linear infinite both" />
  </g>
</svg>
