<?xml version="1.0" encoding="UTF-8" standalone="no"?>
<!DOCTYPE svg PUBLIC "-//W3C//DTD SVG 1.1//EN" "http://www.w3.org/Graphics/SVG/1.1/DTD/svg11.dtd">
<!-- Created with Vectornator (http://vectornator.io/) -->
<svg height="100%" stroke-miterlimit="10" style="fill-rule:nonzero;clip-rule:evenodd;stroke-linecap:round;stroke-linejoin:round;" version="1.1" viewBox="0 0 128 128" width="100%" xml:space="preserve" xmlns="http://www.w3.org/2000/svg" xmlns:vectornator="http://vectornator.io" xmlns:xlink="http://www.w3.org/1999/xlink">
<defs>
<linearGradient gradientTransform="matrix(-90.9096 -0.0755263 -0.0677314 102.168 101.085 64.0755)" gradientUnits="userSpaceOnUse" id="LinearGradient" x1="0" x2="1" y1="0" y2="0">
<stop offset="0" stop-color="#7b7b7b" stop-opacity="0.348832"/>
<stop offset="1" stop-color="#ffffff"/>
</linearGradient>
<linearGradient gradientTransform="matrix(110.51 100.114 -57.7741 110.51 3.39344 7.00981)" gradientUnits="userSpaceOnUse" id="LinearGradient_2" x1="0" x2="1" y1="0" y2="0">
<stop offset="0" stop-color="#7b7b7b" stop-opacity="0.348832"/>
<stop offset="1" stop-color="#ffffff"/>
</linearGradient>
</defs>
<g id="Layer">
<g opacity="1">
<path d="M92.6939 53.5945C97.7122 53.5945 101.78 58.2532 101.78 64C101.78 69.7468 97.7122 74.4055 92.6939 74.4055L35.3061 74.4055C30.2878 74.4055 26.2197 69.7468 26.2197 64C26.2197 58.2532 30.2878 53.5945 35.3061 53.5945L92.6939 53.5945Z" fill="url(#LinearGradient)" fill-rule="nonzero" opacity="1" stroke="none"/>
<path d="M64 1C29.0113 1 0.630854 29.1834 0.630859 64C0.630859 98.8166 29.0113 127 64 127C98.9887 127 127.369 98.8166 127.369 64C127.369 29.1834 98.9887 1 64 1ZM64 18.9648C89.069 18.9648 109.343 39.1566 109.343 64C109.343 88.8434 89.069 109.035 64 109.035C38.931 109.035 18.6572 88.8434 18.6572 64C18.6572 39.1566 38.931 18.9648 64 18.9648Z" fill="url(#LinearGradient_2)" fill-rule="nonzero" opacity="1" stroke="none"/>
</g>
</g>
</svg>
