<?xml version="1.0" encoding="UTF-8" standalone="no"?>
<!DOCTYPE svg PUBLIC "-//W3C//DTD SVG 1.1//EN" "http://www.w3.org/Graphics/SVG/1.1/DTD/svg11.dtd">
<!-- Created with Vectornator (http://vectornator.io/) -->
<svg height="100%" stroke-miterlimit="10" style="fill-rule:nonzero;clip-rule:evenodd;stroke-linecap:round;stroke-linejoin:round;" version="1.1" viewBox="0 0 128 128" width="100%" xml:space="preserve" xmlns="http://www.w3.org/2000/svg" xmlns:vectornator="http://vectornator.io" xmlns:xlink="http://www.w3.org/1999/xlink">
<defs>
<linearGradient gradientTransform="matrix(-25.1548 109.385 -111.462 -24.6863 78.7653 -4.3768)" gradientUnits="userSpaceOnUse" id="LinearGradient" x1="0" x2="1" y1="0" y2="0">
<stop offset="0" stop-color="#7b7b7b" stop-opacity="0.249352"/>
<stop offset="1" stop-color="#dddddd" stop-opacity="0.8"/>
</linearGradient>
</defs>
<g id="Layer">
<g opacity="1">
<path d="M64 1C28.9375 0.999994 0.506435 29.2116 0.506435 64C0.506427 98.7884 28.9375 127 64 127C99.0625 127 127.494 98.7884 127.494 64C127.494 29.2116 99.0625 1 64 1ZM30.1556 53.2826L97.8444 53.2826C103.763 53.2826 108.562 58.0809 108.562 64C108.562 69.9191 103.764 74.7174 97.8444 74.7174L30.1556 74.7174C24.2365 74.7174 19.4382 69.9191 19.4382 64C19.4382 58.0809 24.2365 53.2826 30.1556 53.2826Z" fill="url(#LinearGradient)" fill-rule="nonzero" opacity="0.821608" stroke="none"/>
</g>
</g>
</svg>
