<svg height="100%" stroke-miterlimit="10" style="fill-rule:nonzero;clip-rule:evenodd;stroke-linecap:round;stroke-linejoin:round;" version="1.1" viewBox="0 0 150 150" width="100%" xml:space="preserve" xmlns="http://www.w3.org/2000/svg" xmlns:vectornator="http://vectornator.io" xmlns:xlink="http://www.w3.org/1999/xlink"><defs><filter color-interpolation-filters="sRGB" filterUnits="userSpaceOnUse" height="130.348" id="Filter" width="130.341" x="8.69772" y="10.919"><feDropShadow dx="-1.13183" dy="1.09299" flood-color="#000000" flood-opacity="0.5" in="SourceGraphic" result="Shadow" stdDeviation="2.06818"/></filter><filter color-interpolation-filters="sRGB" filterUnits="userSpaceOnUse" height="17.1281" id="Filter_2" width="20.5764" x="37.2807" y="72.1466"><feDropShadow dx="-0.576419" dy="0.556642" flood-color="#000000" flood-opacity="0.4" in="SourceGraphic" result="Shadow" stdDeviation="0"/></filter><filter color-interpolation-filters="sRGB" filterUnits="userSpaceOnUse" height="13.9852" id="Filter_3" width="17.1478" x="40.7093" y="72.1466"><feDropShadow dx="-0.576419" dy="0.556642" flood-color="#000000" flood-opacity="0.4" in="SourceGraphic" result="Shadow" stdDeviation="0"/></filter></defs><g id="Layer-6" vectornator:layerName="Layer-6"><g opacity="1"><path d="M133.429 15.3179C132.457 14.8322 131.286 14.9179 130.429 15.5751L120.714 22.8608L111 15.5751C109.971 14.8036 108.6 14.8036 107.571 15.5751L97.8571 22.8608L88.1429 15.5751C87.1143 14.8036 85.7429 14.8036 84.7143 15.5751L75 22.8608L65.2857 15.5751C64.2571 14.8036 62.8857 14.8036 61.8571 15.5751L52.1429 22.8608L42.4286 15.5751C41.4 14.8036 40.0286 14.8036 39 15.5751L29.2857 22.8608L19.5714 15.5751C18.7143 14.9179 17.5429 14.8322 16.5714 15.3179C15.6 15.8036 15 16.7751 15 17.8608L15 126.689C15 131.29 18.6 135.003 23.0571 135.003L103.571 135.003C104.343 135.003 105.057 134.689 105.6 134.175L134.171 105.604C134.686 105.061 135 104.347 135 103.575L135 17.8608C135 16.7751 134.4 15.8036 133.429 15.3179ZM29.2857 37.8609L120.714 37.8609L120.714 49.2895L29.2857 49.2895L29.2857 37.8609ZM77.8571 69.2895L77.8571 63.5752L120.714 63.5752L120.714 69.2895L77.8571 69.2895ZM120.714 75.0038L120.714 80.7181L77.8571 80.7181L77.8571 75.0038L120.714 75.0038ZM66.4286 115.003L29.2857 115.003L29.2857 109.289L66.4286 109.289L66.4286 115.003ZM66.4286 97.8606L29.2857 97.8606L29.2857 63.5752L66.4286 63.5752L66.4286 97.8606ZM95 115.003L77.8571 115.003L77.8571 109.289L95 109.289L95 115.003ZM95 103.575L77.8571 103.575L77.8571 97.8606L95 97.8606L95 103.575ZM77.8571 92.1466L77.8571 86.4324L120.714 86.4324L120.714 92.1466L77.8571 92.1466ZM103.571 128.118L103.571 103.575L128.114 103.575L103.571 128.118Z" fill="#e7e7e7" fill-rule="nonzero" filter="url(#Filter)" stroke="none" vectornator:layerName="path" vectornator:shadowAngle="2.37365" vectornator:shadowColor="#000000" vectornator:shadowOffset="1.57343" vectornator:shadowOpacity="0.5" vectornator:shadowRadius="4.13636"/><path d="M37.8571 75.5752L37.8571 85.5752L41.2857 88.7181L54.4286 88.7181L57.8571 85.5752L57.8571 82.1466L57.8571 78.7181L54.4286 78.7181L51.2857 78.7181L47.8571 82.1466L54.4286 82.1466L54.4286 85.5752L44.4286 85.5752L41.2857 85.5752L41.2857 75.5752L41.2857 72.1466L37.8571 75.5752Z" fill="#595959" fill-rule="nonzero" filter="url(#Filter_2)" stroke="none" vectornator:layerName="path" vectornator:shadowAngle="2.37365" vectornator:shadowColor="#000000" vectornator:shadowOffset="0.801317" vectornator:shadowOpacity="0.4" vectornator:shadowRadius="0"/><path d="M44.4286 85.5752L47.8571 82.1466L47.8571 75.5752L57.8571 75.5752L54.4286 72.1466L44.4286 72.1466L41.2857 75.5752L44.4286 75.5752L44.4286 85.5752Z" fill="#5b5b5b" fill-rule="nonzero" filter="url(#Filter_3)" stroke="none" vectornator:layerName="path" vectornator:shadowAngle="2.37365" vectornator:shadowColor="#000000" vectornator:shadowOffset="0.801317" vectornator:shadowOpacity="0.4" vectornator:shadowRadius="0"/></g></g></svg>