<svg xmlns="http://www.w3.org/2000/svg" xmlns:vectornator="http://vectornator.io" xmlns:xlink="http://www.w3.org/1999/xlink" width="100%" height="100%" viewBox="0 0 100 100" xml:space="preserve"><defs><linearGradient id="LinearGradient" x1="84.594" x2="63.749" y1="72.557" y2="49.699" gradientTransform="matrix(1.031 0 0 1.031 0.858712 -13.6336)" gradientUnits="userSpaceOnUse"><stop offset="0" stop-color="#e6e6e6"/><stop offset=".37" stop-color="#dedede"/><stop offset=".73" stop-color="#d9d9d9"/><stop offset="1" stop-color="#ccc"/></linearGradient><linearGradient id="LinearGradient_2" x1="84.594" x2="63.749" y1="72.557" y2="49.699" gradientTransform="matrix(2.24723 0 0 1.031 -116.685 30.5529)" gradientUnits="userSpaceOnUse"><stop offset="0" stop-color="#e6e6e6"/><stop offset=".37" stop-color="#dedede"/><stop offset=".73" stop-color="#d9d9d9"/><stop offset="1" stop-color="#ccc"/></linearGradient><radialGradient id="RadialGradient" cx="35.5" cy="73.343" r="25.371" gradientTransform="matrix(1.13104 0 0 1.13104 -3.45193 -21.917)" gradientUnits="userSpaceOnUse"><stop offset="0" stop-color="#292929"/><stop offset=".571" stop-color="#4d4e54"/><stop offset="1" stop-color="#333334" stop-opacity="0"/></radialGradient><linearGradient id="LinearGradient_3" x1="36.589" x2="28.222" y1="49.219" y2="54.521" gradientTransform="matrix(1.13104 0 0 1.13104 -3.45193 -21.917)" gradientUnits="userSpaceOnUse"><stop offset="0" stop-color="#292929"/><stop offset=".686" stop-color="#4d4e54"/><stop offset="1" stop-color="#333334" stop-opacity="0"/></linearGradient><linearGradient id="LinearGradient_4" x1="15.467" x2="38.004" y1="75.508" y2="75.609" gradientTransform="matrix(1.13104 0 0 1.13104 -3.45193 -21.917)" gradientUnits="userSpaceOnUse"><stop offset="0" stop-color="#323333"/><stop offset=".305" stop-color="#333" stop-opacity=".86"/><stop offset=".604" stop-color="#333" stop-opacity=".7"/><stop offset=".809" stop-color="#333" stop-opacity="0"/><stop offset="1" stop-color="#333334" stop-opacity="0"/></linearGradient></defs><path fill="#676c6e" d="M79.225 100L1.86517e-14 100L1.86517e-14 0L0.999064 0L7.45544 5.21814L15.7035 0L17.4924 0L23.9515 5.21814L32.1995 0L34.0312 0L40.4476 5.21814L48.6956 0L50.5118 0L56.9436 5.21814L65.1917 0L66.9806 0L73.4397 5.21814L81.6877 0L83.4913 0L89.9358 5.21814L98.113 0L100 0L98.5509 80.7656L80.7546 99.1641L79.225 100Z" layerName="path" opacity=".8"/><path fill="#f0faff" d="M80.7546 99.1251L1.02361 99.1251L1.02361 0L9.27164 5.21814L17.5197 0L25.7677 5.21814L34.0157 0L42.2638 5.21814L50.5118 0L58.7598 5.21814L67.0079 0L75.2559 5.21814L83.5039 0L91.752 5.21814L100 0L100 79.8907L80.7546 99.1251Z" layerName="path" opacity="1"/><g layerName="Group 5" opacity="1"><g layerName="Group 4" opacity="1"><path fill="#676c6e" d="M56.0465 32.4526L56.0465 39.5223L92.0478 39.5223L92.0478 32.4526L56.0465 32.4526ZM56.0465 43.4074L56.0465 50.4456L92.0478 50.4456L92.0478 43.4074L56.0465 43.4074ZM56.05 54.4099L56.0465 61.28L92.05 61.28L92.05 54.4099L56.05 54.4099ZM56.05 65.4267L56.05 72.4649L87.1534 72.4649L87.1534 65.4267L56.05 65.4267Z" layerName="path" opacity=".8"/><path fill="url(#LinearGradient)" d="M58.3078 32.4179L93.0493 32.4179L93.0478 37.9166L58.3078 37.9166L58.3078 32.4179ZM58.3063 43.4152L93.0478 43.4152L93.0478 48.914L58.3063 48.914L58.3063 43.4152ZM58.3078 54.4126L93.0493 54.4126L93.0478 59.9113L58.31 59.9113L58.3078 54.4126ZM58.31 65.41L88.1534 65.41L88.1504 70.9087L58.31 70.9087L58.31 65.41Z" layerName="path" opacity="1"/></g><g layerName="Group 3" opacity="1"><path fill="#676c6e" d="M6.55 76.6057L6.55 83.41L85.5676 83.41L85.5676 76.6057L6.55 76.6057ZM6.55 87.615L6.55 94.2172L83.783 94.2172L85.5827 93.2914L85.5387 87.615L6.55 87.615Z" layerName="path" opacity=".8"/><path fill="url(#LinearGradient_2)" d="M7.66146 76.6057L85.5676 76.6045L85.5655 82.1031L7.66146 82.1031L7.66146 76.6057ZM7.66146 87.6018L85.5655 87.6018L85.5655 93.1005L7.66146 93.1005L7.66146 87.6018Z" layerName="path" opacity="1"/></g><g layerName="Group 2" opacity="1"><path fill="#676c6e" d="M5.47911 11.9507L94.4791 11.9507L94.4757 24.555L5.47911 24.555L5.47911 11.9507Z" layerName="path" opacity=".8"/><path fill="#29b6f6" d="M50.025 11.94L94.525 11.94L94.525 22.9374L50.025 22.9374L50.025 11.94Z" layerName="path" opacity="1"/><path fill="#3f51b5" d="M5.47667 11.94L49.975 11.94L49.975 22.9374L5.475 22.9374L5.47667 11.94Z" layerName="path" opacity="1"/></g><path fill="#676c6e" d="M6.55 27.4198L52.4089 27.4198L52.4089 72.4929L6.55 72.4929L6.55 27.4198Z" layerName="path" opacity=".8"/><path fill="#3f51b5" d="M8.1688 27.4179L52.4089 27.4179L52.4089 70.9087L8.1688 70.9087L8.1688 27.4179Z" layerName="path" opacity="1"/><g layerName="Group 1" opacity="1"><path fill="url(#RadialGradient)" d="M20.6573 29.0058C20.3408 29.0058 20.034 29.0405 19.765 29.12C19.4959 29.199 19.2973 29.3163 19.1387 29.4426L13.0079 34.6053C12.7861 34.7954 12.6252 35.0414 12.5147 35.327C12.4035 35.6117 12.3434 35.9592 12.3434 36.3703L12.3434 67.1379C12.344 67.8977 12.5268 68.4413 12.8754 68.7894C13.2235 69.138 13.7665 69.3208 14.5264 69.3208L21.6443 69.3208C21.9606 69.3208 22.2674 69.2643 22.5365 69.1689C22.8056 69.0741 22.9981 68.9728 23.1244 68.8464L29.2936 63.7219C29.5153 63.5318 29.6762 63.2852 29.7868 63.0004C29.8979 62.7155 29.9575 62.3681 29.9575 61.9563L29.9575 60.2101L31.0015 61.4819L31.0015 67.1379C31.0015 67.8977 31.185 68.4413 31.533 68.7894C31.8817 69.138 32.4246 69.3208 33.1844 69.3208L40.3023 69.3208C40.6188 69.3208 40.9249 69.2643 41.194 69.1689C41.4636 69.0741 41.6561 68.9728 41.7825 68.8464L47.9517 63.7219C48.1728 63.5318 48.3343 63.2852 48.4449 63.0004C48.5554 62.7155 48.6155 62.3681 48.6155 61.9563L48.6155 31.1888C48.6155 30.429 48.4516 29.886 48.1035 29.5374C47.7549 29.1894 47.1924 29.0058 46.4333 29.0058L39.3154 29.0058C38.9989 29.0058 38.711 29.0405 38.4419 29.12C38.1728 29.199 37.9549 29.3163 37.7969 29.4426L32.0456 34.2257L28.7809 30.4296C28.306 29.9231 27.8322 29.5695 27.3573 29.3479C26.8829 29.1262 26.2889 29.0058 25.5922 29.0058L20.6573 29.0058ZM20.6573 29.4803L25.5922 29.4803C26.1936 29.4803 26.7025 29.5756 27.1294 29.7651C27.5571 29.9552 27.9895 30.2966 28.4013 30.7715L37.6068 41.3054L37.6068 31.1888C37.6068 30.5875 37.7361 30.1484 38.0052 29.8793C38.2749 29.6102 38.714 29.4803 39.3154 29.4803L46.4333 29.4803C47.0346 29.4803 47.4737 29.6102 47.7427 29.8793C48.0118 30.1484 48.1412 30.5875 48.1412 31.1888L48.1412 61.9563C48.1412 62.5582 48.0118 62.9967 47.7427 63.2664C47.4737 63.5349 47.0346 63.6649 46.4333 63.6649L39.3154 63.6649C38.7135 63.6649 38.2749 63.5354 38.0052 63.2664C37.7361 62.9973 37.6068 62.5575 37.6068 61.9563L37.6068 56.1103L29.4831 46.2974L29.4831 61.9563C29.4831 62.5582 29.3537 62.9967 29.0847 63.2664C28.8156 63.5349 28.3764 63.6649 27.7751 63.6649L20.6573 63.6649C20.056 63.6649 19.6168 63.5354 19.3477 63.2664C19.0786 62.9973 18.9493 62.5575 18.9493 61.9563L18.9493 31.1888C18.9493 30.5875 19.0786 30.1484 19.3477 29.8793C19.6168 29.6102 20.056 29.4803 20.6573 29.4803ZM24.4911 33.7131C24.3647 33.7131 24.2383 33.7514 24.112 33.8461C23.9851 33.9408 23.9219 34.0927 23.9219 34.2828L23.9219 59.3937L24.3963 59.3937L24.3963 34.3776C24.3963 34.346 24.4188 34.3144 24.4346 34.2828C24.4504 34.2512 24.4595 34.2257 24.4911 34.2257C24.5232 34.2257 24.5766 34.2512 24.624 34.2828C24.6714 34.3144 24.7066 34.346 24.7382 34.3776L42.6936 54.4971L42.6936 59.3937L43.168 59.3937L43.168 33.7514L42.6936 33.7514L42.6936 53.7949L25.2126 34.131C25.0541 33.9724 24.9277 33.8716 24.833 33.8084C24.7382 33.7447 24.618 33.7131 24.4911 33.7131Z" layerName="path" opacity="1"/><path fill="url(#LinearGradient_3)" d="M20.6573 29.0058C20.3408 29.0058 20.034 29.0405 19.765 29.12C19.4959 29.199 19.2973 29.3163 19.1387 29.4426L13.0079 34.6053C12.7861 34.7954 12.6252 35.0414 12.5147 35.327C12.4035 35.6117 12.3434 35.9592 12.3434 36.3703L12.3434 67.1379C12.344 67.8977 12.5268 68.4413 12.8754 68.7894C13.2235 69.138 13.7665 69.3208 14.5264 69.3208L21.6443 69.3208C21.9606 69.3208 22.2674 69.2643 22.5365 69.1689C22.8056 69.0741 22.9981 68.9728 23.1244 68.8464L29.2936 63.7219C29.5153 63.5318 29.6762 63.2852 29.7868 63.0004C29.8979 62.7155 29.9575 62.3681 29.9575 61.9563L29.9575 60.2101L31.0015 61.4819L31.0015 67.1379C31.0015 67.8977 31.185 68.4413 31.533 68.7894C31.8817 69.138 32.4246 69.3208 33.1844 69.3208L40.3023 69.3208C40.6188 69.3208 40.9249 69.2643 41.194 69.1689C41.4636 69.0741 41.6561 68.9728 41.7825 68.8464L47.9517 63.7219C48.1728 63.5318 48.3343 63.2852 48.4449 63.0004C48.5554 62.7155 48.6155 62.3681 48.6155 61.9563L48.6155 31.1888C48.6155 30.429 48.4516 29.886 48.1035 29.5374C47.7549 29.1894 47.1924 29.0058 46.4333 29.0058L39.3154 29.0058C38.9989 29.0058 38.711 29.0405 38.4419 29.12C38.1728 29.199 37.9549 29.3163 37.7969 29.4426L32.0456 34.2257L28.7809 30.4296C28.306 29.9231 27.8322 29.5695 27.3573 29.3479C26.8829 29.1262 26.2889 29.0058 25.5922 29.0058L20.6573 29.0058ZM20.6573 29.4803L25.5922 29.4803C26.1936 29.4803 26.7025 29.5756 27.1294 29.7651C27.5571 29.9552 27.9895 30.2966 28.4013 30.7715L37.6068 41.3054L37.6068 31.1888C37.6068 30.5875 37.7361 30.1484 38.0052 29.8793C38.2749 29.6102 38.714 29.4803 39.3154 29.4803L46.4333 29.4803C47.0346 29.4803 47.4737 29.6102 47.7427 29.8793C48.0118 30.1484 48.1412 30.5875 48.1412 31.1888L48.1412 61.9563C48.1412 62.5582 48.0118 62.9967 47.7427 63.2664C47.4737 63.5349 47.0346 63.6649 46.4333 63.6649L39.3154 63.6649C38.7135 63.6649 38.2749 63.5354 38.0052 63.2664C37.7361 62.9973 37.6068 62.5575 37.6068 61.9563L37.6068 56.1103L29.4831 46.2974L29.4831 61.9563C29.4831 62.5582 29.3537 62.9967 29.0847 63.2664C28.8156 63.5349 28.3764 63.6649 27.7751 63.6649L20.6573 63.6649C20.056 63.6649 19.6168 63.5354 19.3477 63.2664C19.0786 62.9973 18.9493 62.5575 18.9493 61.9563L18.9493 31.1888C18.9493 30.5875 19.0786 30.1484 19.3477 29.8793C19.6168 29.6102 20.056 29.4803 20.6573 29.4803ZM24.4911 33.7131C24.3647 33.7131 24.2383 33.7514 24.112 33.8461C23.9851 33.9408 23.9219 34.0927 23.9219 34.2828L23.9219 59.3937L24.3963 59.3937L24.3963 34.3776C24.3963 34.346 24.4188 34.3144 24.4346 34.2828C24.4504 34.2512 24.4595 34.2257 24.4911 34.2257C24.5232 34.2257 24.5766 34.2512 24.624 34.2828C24.6714 34.3144 24.7066 34.346 24.7382 34.3776L42.6936 54.4971L42.6936 59.3937L43.168 59.3937L43.168 33.7514L42.6936 33.7514L42.6936 53.7949L25.2126 34.131C25.0541 33.9724 24.9277 33.8716 24.833 33.8084C24.7382 33.7447 24.618 33.7131 24.4911 33.7131Z" layerName="path" opacity="1"/><path fill="url(#LinearGradient_4)" d="M20.6573 29.0058C20.3408 29.0058 20.034 29.0405 19.765 29.12C19.4959 29.199 19.2973 29.3163 19.1387 29.4426L13.0079 34.6053C12.7861 34.7954 12.6252 35.0414 12.5147 35.327C12.4035 35.6117 12.3434 35.9592 12.3434 36.3703L12.3434 67.1379C12.344 67.8977 12.5268 68.4413 12.8754 68.7894C13.2235 69.138 13.7665 69.3208 14.5264 69.3208L21.6443 69.3208C21.9606 69.3208 22.2674 69.2643 22.5365 69.1689C22.8056 69.0741 22.9981 68.9728 23.1244 68.8464L29.2936 63.7219C29.5153 63.5318 29.6762 63.2852 29.7868 63.0004C29.8979 62.7155 29.9575 62.3681 29.9575 61.9563L29.9575 60.2101L31.0015 61.4819L31.0015 67.1379C31.0015 67.8977 31.185 68.4413 31.533 68.7894C31.8817 69.138 32.4246 69.3208 33.1844 69.3208L40.3023 69.3208C40.6188 69.3208 40.9249 69.2643 41.194 69.1689C41.4636 69.0741 41.6561 68.9728 41.7825 68.8464L47.9517 63.7219C48.1728 63.5318 48.3343 63.2852 48.4449 63.0004C48.5554 62.7155 48.6155 62.3681 48.6155 61.9563L48.6155 31.1888C48.6155 30.429 48.4516 29.886 48.1035 29.5374C47.7549 29.1894 47.1924 29.0058 46.4333 29.0058L39.3154 29.0058C38.9989 29.0058 38.711 29.0405 38.4419 29.12C38.1728 29.199 37.9549 29.3163 37.7969 29.4426L32.0456 34.2257L28.7809 30.4296C28.306 29.9231 27.8322 29.5695 27.3573 29.3479C26.8829 29.1262 26.2889 29.0058 25.5922 29.0058L20.6573 29.0058ZM20.6573 29.4803L25.5922 29.4803C26.1936 29.4803 26.7025 29.5756 27.1294 29.7651C27.5571 29.9552 27.9895 30.2966 28.4013 30.7715L37.6068 41.3054L37.6068 31.1888C37.6068 30.5875 37.7361 30.1484 38.0052 29.8793C38.2749 29.6102 38.714 29.4803 39.3154 29.4803L46.4333 29.4803C47.0346 29.4803 47.4737 29.6102 47.7427 29.8793C48.0118 30.1484 48.1412 30.5875 48.1412 31.1888L48.1412 61.9563C48.1412 62.5582 48.0118 62.9967 47.7427 63.2664C47.4737 63.5349 47.0346 63.6649 46.4333 63.6649L39.3154 63.6649C38.7135 63.6649 38.2749 63.5354 38.0052 63.2664C37.7361 62.9973 37.6068 62.5575 37.6068 61.9563L37.6068 56.1103L29.4831 46.2974L29.4831 61.9563C29.4831 62.5582 29.3537 62.9967 29.0847 63.2664C28.8156 63.5349 28.3764 63.6649 27.7751 63.6649L20.6573 63.6649C20.056 63.6649 19.6168 63.5354 19.3477 63.2664C19.0786 62.9973 18.9493 62.5575 18.9493 61.9563L18.9493 31.1888C18.9493 30.5875 19.0786 30.1484 19.3477 29.8793C19.6168 29.6102 20.056 29.4803 20.6573 29.4803ZM24.4911 33.7131C24.3647 33.7131 24.2383 33.7514 24.112 33.8461C23.9851 33.9408 23.9219 34.0927 23.9219 34.2828L23.9219 59.3937L24.3963 59.3937L24.3963 34.3776C24.3963 34.346 24.4188 34.3144 24.4346 34.2828C24.4504 34.2512 24.4595 34.2257 24.4911 34.2257C24.5232 34.2257 24.5766 34.2512 24.624 34.2828C24.6714 34.3144 24.7066 34.346 24.7382 34.3776L42.6936 54.4971L42.6936 59.3937L43.168 59.3937L43.168 33.7514L42.6936 33.7514L42.6936 53.7949L25.2126 34.131C25.0541 33.9724 24.9277 33.8716 24.833 33.8084C24.7382 33.7447 24.618 33.7131 24.4911 33.7131Z" layerName="path" opacity="1"/><path fill="#fff" d="M20.7128 29.5203C20.1121 29.5203 19.6716 29.6445 19.4029 29.9133C19.1342 30.182 19.01 30.6224 19.01 31.2231L19.01 61.9458C19.01 62.5465 19.1342 62.9869 19.4029 63.2557C19.6716 63.5244 20.1121 63.6487 20.7128 63.6487L27.8295 63.6487C28.4301 63.6487 28.8561 63.5244 29.1247 63.2557C29.3935 62.987 29.5323 62.5465 29.5323 61.9458L29.5323 46.3007L37.6386 56.1098L37.6386 61.9458C37.6386 62.5465 37.7775 62.9869 38.0461 63.2557C38.3148 63.5244 38.7554 63.6487 39.356 63.6487L46.4581 63.6487C47.0587 63.6487 47.4993 63.5244 47.7679 63.2557C48.0367 62.987 48.1755 62.5465 48.1755 61.9458L48.1755 31.2231C48.1755 30.6224 48.0367 30.182 47.7679 29.9133C47.4993 29.6445 47.0588 29.5203 46.4581 29.5203L39.356 29.5203C38.7554 29.5203 38.3148 29.6445 38.0461 29.9133C37.7775 30.182 37.6386 30.6224 37.6386 31.2231L37.6386 41.3233L28.4407 30.801C28.0298 30.3269 27.6159 29.9865 27.1891 29.7968C26.7624 29.6072 26.2471 29.5203 25.6465 29.5203L20.7128 29.5203ZM24.5549 33.7409C24.6814 33.7409 24.7948 33.765 24.8896 33.8282C24.9845 33.8914 25.11 34.0049 25.268 34.1629L42.7179 53.7959L42.7179 33.7845L43.1835 33.7845L43.1835 59.3844L42.7179 59.3844L42.7179 54.5089L24.7878 34.3958C24.7561 34.3642 24.7188 34.3401 24.6713 34.3085C24.6239 34.2769 24.5865 34.2502 24.5549 34.2502C24.5233 34.2502 24.498 34.2769 24.4822 34.3085C24.4664 34.3401 24.453 34.3642 24.453 34.3958L24.453 59.3844L23.9873 59.3844L23.9873 34.3085C23.9873 34.1188 24.0501 33.9667 24.1765 33.8718C24.3029 33.7771 24.4284 33.7409 24.5549 33.7409Z" layerName="path" opacity="1"/></g></g><path fill="#676c6e" d="M79.2485 78.7019L100.024 78.7019L100 79.9L80.7546 99.1251L79.2431 99.1251L79.2485 78.7019Z" layerName="path" opacity=".7"/><path fill="#7796a6" d="M80.7546 79.9L100 79.9L80.7546 99.1641L80.7546 79.9Z" layerName="path" opacity="1"/></svg>