<svg width="100%" height="100%" viewBox="0 0 100 100" stroke-miterlimit="10" style="fill-rule:nonzero;clip-rule:evenodd;stroke-linecap:round;stroke-linejoin:round;" version="1.1" xml:space="preserve" xmlns="http://www.w3.org/2000/svg" xmlns:xlink="http://www.w3.org/1999/xlink"><defs><linearGradient id="LG_NYT" gradientTransform="matrix(22.6944 99.0518 -99.0518 22.6944 41.8442 -1.41711)" gradientUnits="userSpaceOnUse" x1="0" x2="1" y1="0" y2="0"><stop offset="0" stop-color="#fff"/><stop offset="1" stop-color="#cecece"/></linearGradient></defs><g fill-rule="nonzero"><g fill="#000" opacity="0.6"><path fill-opacity="0.1" d="M68.2987 0.287372C67.3322 0.287372 66.5425 1.07704 66.5425 2.04353L66.5425 3.57618C66.5425 4.54268 67.3322 5.33235 68.2987 5.33234C70.4384 5.33234 72.2226 5.73853 73.3117 6.35411C74.3404 6.93554 74.7937 7.60201 74.8124 8.68501C74.7561 9.71275 74.2629 10.6756 73.4713 11.3352C72.6718 12.0015 71.6288 12.3054 70.5976 12.1654C70.5811 12.1632 70.5823 12.1672 70.5657 12.1654C64.8899 11.559 59.3174 10.2022 53.9939 8.1422C53.9891 8.14033 53.9668 8.14402 53.962 8.1422C48.0125 5.90039 41.8071 4.46104 35.4744 3.89548C35.4458 3.89293 35.4073 3.89662 35.3786 3.89548C30.3842 3.69638 25.5119 5.51481 21.8722 8.94045C18.2324 12.3662 16.1325 17.1304 16.029 22.1276C15.9527 27.7854 19.3635 32.8479 24.5862 34.9635C17.4788 41.9044 12.9246 51.3545 12.4208 61.7849C12.4194 61.8146 12.4208 61.819 12.4208 61.8488C12.4787 82.7244 29.3841 99.6601 50.2581 99.718C59.6909 99.8467 68.7929 96.1843 75.5149 89.5642C82.2445 82.9366 86.045 73.8803 86.0518 64.4351C86.0525 63.4681 85.2627 62.6789 84.2957 62.6789L83.242 62.6789C82.5331 62.6789 81.9157 63.1092 81.6455 63.7646C79.4946 68.9816 75.989 73.4799 71.5875 76.9517L71.5875 60.1245L79.2177 53.9309C79.6224 53.6024 79.8574 53.109 79.8574 52.5878L79.8574 52.057C79.8574 51.5537 79.6394 51.0751 79.2596 50.7448L72.1303 44.5426L72.1303 31.547C76.0197 31.3017 79.7406 29.7493 82.5714 27.0129C85.8429 23.8505 87.6482 19.492 87.5845 14.9433C87.5845 9.1503 84.7264 5.293 80.8472 3.09723C77.0281 0.935475 72.3408 0.287377 68.2987 0.287372ZM29.9505 23.3729C33.5649 23.7698 37.1365 24.4986 40.6471 25.4164C35.8346 26.9241 31.4603 29.2508 27.6515 32.2814C27.5872 31.6994 27.3584 31.1471 26.7894 30.8765C25.4607 30.2444 24.6275 28.8968 24.682 27.428C24.6824 27.4171 24.6815 27.407 24.682 27.3961C25.0712 24.8705 27.3942 23.0803 29.9505 23.3729ZM45.6602 26.981C46.6344 27.3107 47.6369 27.5367 48.5977 27.907C48.6456 27.9254 48.7082 27.9567 48.7574 27.9708C50.8791 28.5809 53.0295 29.0534 55.1754 29.5673L34.8039 38.5078C37.4446 34.5921 40.9144 31.2678 44.9896 28.801C45.6335 28.4113 45.8017 27.6876 45.6602 26.981ZM57.8575 30.2379C60.7381 30.8709 63.628 31.3751 66.5425 31.8344L66.5425 45.5644L59.4241 51.757C59.0374 52.0934 58.8154 52.5808 58.8154 53.0934L58.8154 53.5999C58.8154 54.1032 59.0334 54.5818 59.4131 54.9122L66.5425 61.1144L66.5425 81.3262C63.1233 83.0793 59.3441 83.996 55.4947 83.8167C55.4369 83.814 55.3928 83.8137 55.335 83.8167C49.0819 84.1455 43.0729 81.8694 38.4439 77.75L57.2277 68.5817C57.828 68.2887 58.2087 67.6792 58.2087 67.0113L58.2087 30.9084C58.2087 30.6224 57.9739 30.4703 57.8575 30.2379ZM39.7211 42.3394L39.2422 70.5657L35.4425 72.4496C32.166 67.3355 30.522 61.3599 30.8765 55.2711C30.8787 55.2327 30.8768 55.182 30.8765 55.1434C30.851 51.9133 31.327 48.7078 32.1856 45.5963L39.7211 42.3394Z"/><path fill-opacity="0.1" d="M68.2987 0.542813C67.4702 0.542813 66.7979 1.2151 66.7979 2.04353L66.7979 3.57618C66.7979 4.40461 67.4702 5.07691 68.2987 5.0769C70.4642 5.0769 72.2941 5.48325 73.4394 6.13059C74.5522 6.75956 75.0679 7.52661 75.0679 8.74887C75.0001 9.83449 74.4682 10.8292 73.631 11.5268C72.7775 12.2379 71.6664 12.5703 70.5657 12.4208C70.5516 12.4189 70.548 12.4223 70.5338 12.4208C64.8362 11.8121 59.242 10.4337 53.8981 8.36571C53.894 8.36411 53.8704 8.36727 53.8662 8.36571C47.9379 6.13189 41.7526 4.71447 35.4425 4.15092C35.418 4.14873 35.4032 4.1519 35.3786 4.15092C30.4513 3.95449 25.6227 5.75239 22.0318 9.13203C18.441 12.5117 16.3866 17.1975 16.2844 22.1276C16.2081 27.7925 19.6685 32.9014 24.9694 34.8997C24.98 34.9037 24.9907 34.896 25.0013 34.8997C17.7936 41.8176 13.1828 51.2978 12.6763 61.7849C12.6751 61.8104 12.6762 61.8233 12.6763 61.8488C12.7338 82.5867 29.5215 99.405 50.2581 99.4625C59.624 99.5903 68.649 95.9458 75.3233 89.3726C82.0052 82.792 85.7897 73.8135 85.7964 64.4351C85.797 63.6063 85.1245 62.9344 84.2957 62.9344L83.242 62.9344C82.6344 62.9344 82.1005 63.2986 81.869 63.8604C79.6426 69.2607 75.9734 73.8985 71.364 77.4307L71.364 59.9649L79.0552 53.7168C79.4011 53.4358 79.602 53.0139 79.602 52.5683L79.6019 52.0478C79.6019 51.6184 79.4156 51.2101 79.0912 50.9288L71.8748 44.6703L71.8748 31.2916C75.7912 31.1017 79.5348 29.6034 82.3799 26.8533C85.6017 23.7389 87.3917 19.4229 87.329 14.9433C87.329 9.24125 84.5325 5.47906 80.7195 3.32074C76.958 1.19157 72.3158 0.542807 68.2987 0.542813ZM29.9824 23.1175C33.8526 23.5425 37.664 24.3967 41.4134 25.4164C36.1861 26.9506 31.454 29.4772 27.3961 32.7923C27.5402 32.1282 27.3041 31.4056 26.6617 31.1C25.2538 30.4302 24.4153 28.9824 24.4585 27.428C24.8362 24.7337 27.2693 22.8069 29.9824 23.1175ZM45.4047 26.6617C46.4959 27.0252 47.619 27.2694 48.6935 27.6835C48.7345 27.6993 48.779 27.7032 48.8212 27.7154C51.2228 28.4059 53.6371 29.0002 56.0694 29.5673C55.9892 29.5878 55.9251 29.5006 55.8459 29.5354L34.1334 39.1145C36.8474 34.8523 40.4742 31.214 44.83 28.5775C45.4888 28.1787 45.732 27.3548 45.4047 26.6617ZM57.3785 29.8866C60.4992 30.5841 63.6372 31.1818 66.7979 31.6747L66.7979 45.6921L59.5929 51.9366C59.2613 52.224 59.0708 52.6412 59.0708 53.08L59.0708 53.6092C59.0708 54.0386 59.2572 54.4469 59.5816 54.7282L66.7979 60.9866L66.7979 81.4858C63.3076 83.3039 59.4358 84.2557 55.4947 84.0722C55.4452 84.0699 55.3845 84.0696 55.335 84.0722C48.8832 84.4114 42.677 82.0208 37.965 77.6861L57.1086 68.354C57.6254 68.1021 57.9533 67.5775 57.9533 67.0026L57.9533 30.9084C57.9533 30.4644 57.6676 30.1552 57.3785 29.8866ZM39.9447 41.9882L39.4657 70.7254L35.3467 72.7689C31.9657 67.5735 30.2594 61.45 30.621 55.2392C30.6229 55.2063 30.6213 55.1765 30.621 55.1434C30.595 51.8446 31.0728 48.5793 31.9621 45.4047L39.9447 41.9882Z"/><path fill-opacity="0.15" d="M68.2987 0.798255C67.6083 0.798255 67.0534 1.35318 67.0534 2.04353L67.0534 3.57618C67.0534 4.26654 67.6083 4.85338 68.2987 4.85339C70.49 4.85339 72.3656 5.22798 73.5671 5.90708C74.7415 6.57088 75.2914 7.42955 75.2914 8.74887C75.2204 9.90477 74.6818 10.9757 73.7906 11.7184C72.8833 12.4744 71.704 12.8352 70.5338 12.6763C70.522 12.6747 70.5137 12.6776 70.5018 12.6763C64.7824 12.0652 59.1667 10.697 53.8024 8.62115C47.8952 6.39531 41.6981 4.96789 35.4106 4.40637C35.3901 4.40454 35.3672 4.40719 35.3467 4.40637C30.4865 4.21261 25.7654 5.98998 22.2234 9.32361C18.6814 12.6573 16.6087 17.2646 16.5079 22.1276C16.433 27.6872 19.8628 32.715 25.0652 34.6762C25.2364 34.7407 25.4035 34.6874 25.5761 34.6762C18.1713 41.5801 13.4129 51.1616 12.8998 61.7849C12.8988 61.8061 12.8997 61.8275 12.8998 61.8488C12.9569 82.449 29.659 99.15 50.2581 99.2071C59.5571 99.3339 68.537 95.7392 75.1636 89.2129C81.7979 82.6793 85.5342 73.7465 85.541 64.4351C85.5415 63.7444 84.9864 63.1898 84.2957 63.1898L83.242 63.1898C82.7357 63.1898 82.2855 63.4881 82.0925 63.9562C79.7833 69.5573 75.95 74.3494 71.1085 77.9416L71.1085 59.8691L78.8929 53.5272C79.1799 53.2934 79.3465 52.9428 79.3465 52.5725L79.3465 52.0654C79.3465 51.711 79.1928 51.3739 78.9252 51.1416L71.6194 44.798L71.6194 31.0681C75.5641 30.9373 79.3599 29.4266 82.2202 26.6617C85.3922 23.5954 87.1351 19.3537 87.0736 14.9433C87.0736 9.33219 84.3387 5.66513 80.5918 3.54425C76.8878 1.44767 72.2908 0.798269 68.2987 0.798255ZM30.0144 22.8939C34.1701 23.3503 38.2294 24.2773 42.2436 25.4164C36.4933 26.9795 31.3012 29.7375 26.9491 33.4309L27.1407 33.0158C27.4536 32.3898 27.198 31.6242 26.5659 31.3235C25.0647 30.6094 24.1202 29.0859 24.1711 27.428C24.5462 24.5756 27.1512 22.5663 30.0144 22.8939ZM44.9258 26.2466C46.2068 26.6624 47.5308 26.975 48.7893 27.46C48.8235 27.4731 48.8499 27.4818 48.8851 27.4919C54.8552 29.2084 60.915 30.5034 67.0534 31.4512L67.0534 45.8198L59.7609 52.121C59.4849 52.3594 59.3263 52.7061 59.3263 53.0708L59.3263 53.5916C59.3263 53.946 59.48 54.283 59.7476 54.5154L67.0534 60.8589L67.0534 81.6455C63.4903 83.5319 59.4984 84.5156 55.4627 84.3276C55.4215 84.3257 55.3762 84.3254 55.335 84.3276C48.6954 84.6767 42.3389 82.1608 37.5499 77.6223L56.9979 68.1378C57.4262 67.9289 57.6978 67.4942 57.6978 67.0177L57.6978 30.9146C57.6978 30.0147 56.7733 29.4114 55.9496 29.7738L33.5586 39.6254C36.3273 35.0555 40.1007 31.1712 44.7023 28.3859C45.2594 28.0487 45.4724 27.34 45.1812 26.7575L44.9258 26.2466ZM40.2001 41.605L39.7211 70.885L35.2509 73.1201C31.7445 67.8348 29.9959 61.59 30.3656 55.2392C30.3672 55.2117 30.3658 55.1709 30.3656 55.1434C30.3391 51.7872 30.8245 48.4406 31.7386 45.2131L40.2001 41.605Z"/><path fill-opacity="0.2" d="M68.2987 1.0537C67.7464 1.0537 67.3088 1.49124 67.3088 2.04353L67.3088 3.57618C67.3088 4.12847 67.7464 4.59795 68.2987 4.59795C70.5158 4.59795 72.4053 4.97271 73.6629 5.68357C74.8989 6.38219 75.5468 7.33246 75.5468 8.74887C75.4726 9.97485 74.8954 11.1224 73.9503 11.91C72.9891 12.7109 71.7416 13.0682 70.5018 12.8998C70.4924 12.8985 70.4794 12.9008 70.4699 12.8998C64.7287 12.2864 59.0914 10.9284 53.7066 8.84466C47.8206 6.62681 41.6437 5.22133 35.3786 4.66181C35.3623 4.66035 35.3631 4.66245 35.3467 4.66181C30.5535 4.47072 25.8761 6.19563 22.3831 9.48326C18.89 12.7709 16.8628 17.3317 16.7633 22.1276C16.6898 27.5818 20.0571 32.4967 25.161 34.4207C25.6405 34.6015 26.1771 34.4001 26.4063 33.9418L26.9171 32.92C27.1675 32.4192 26.9438 31.8195 26.4382 31.5789C24.8462 30.8216 23.8603 29.1863 23.9157 27.428C23.9173 27.415 23.9146 27.4092 23.9157 27.3961C24.3079 24.4076 27.047 22.2952 30.0463 22.6385C34.4911 23.1266 38.8255 24.1187 43.1057 25.3845C26.1909 29.5968 13.9971 44.3875 13.1552 61.8168C13.1544 61.8338 13.1552 61.8318 13.1552 61.8488C13.212 82.3113 29.7965 98.8949 50.2581 98.9516C59.5017 99.0862 68.3855 95.5081 74.9721 89.0213C81.5587 82.5346 85.2788 73.6797 85.2855 64.4351C85.2859 63.8825 84.8483 63.4453 84.2957 63.4453L83.242 63.4453C82.8369 63.4453 82.5023 63.6775 82.3479 64.0519C79.9574 69.8502 75.9245 74.7739 70.8531 78.4205L70.8531 59.7414L78.7267 53.3718C78.9572 53.1854 79.0911 52.9049 79.0911 52.6085L79.0911 52.0255C79.0911 51.7443 78.9685 51.4771 78.7555 51.2935L71.364 44.9258L71.364 30.8126C75.3347 30.7424 79.1544 29.2485 82.0286 26.4701C85.151 23.4518 86.9106 19.2846 86.8501 14.9433C86.8501 9.42314 84.1448 5.81926 80.4641 3.73583C76.8177 1.67184 72.2659 1.05369 68.2987 1.0537ZM44.4468 25.8315C45.9151 26.2959 47.4141 26.6499 48.8532 27.2045C48.8805 27.215 48.9208 27.2284 48.949 27.2364C54.9711 28.9679 61.1155 30.2798 67.3088 31.2277L67.3088 45.9475L59.9283 52.3058C59.7083 52.4954 59.5817 52.7714 59.5817 53.0618L59.5817 53.6488C59.5817 53.9393 59.7083 54.2153 59.9283 54.4049L67.3088 60.7631L67.3088 81.8051C63.6731 83.761 59.5936 84.7754 55.4627 84.5831C55.4297 84.5815 55.3999 84.5813 55.3669 84.5831C48.5257 84.9427 41.9364 82.3217 37.0709 77.5584L56.8791 67.9099C57.2237 67.7421 57.4424 67.3923 57.4424 67.0089L57.4424 30.9101C57.4424 30.19 56.7022 29.7075 56.0434 29.9981L32.9839 40.1682C35.7977 35.2734 39.7178 31.1022 44.5745 28.1624C45.0203 27.8926 45.1907 27.3193 44.9577 26.8533L44.4468 25.8315ZM40.4555 41.2219L39.9766 71.0127L35.1551 73.4394C31.5432 68.0747 29.7334 61.6794 30.1102 55.2073C30.1114 55.1853 30.1103 55.1654 30.1102 55.1434C30.0832 51.7299 30.576 48.3338 31.5151 45.0535L40.4555 41.2219Z"/><path fill-opacity="0.3" d="M68.2987 1.40493C67.9507 1.40493 67.6601 1.69559 67.6601 2.04353L67.6601 3.57618C67.6601 3.92412 67.9507 4.21479 68.2987 4.21478C70.554 4.21478 72.5136 4.60639 73.8545 5.36427C75.1817 6.11443 75.93 7.18878 75.93 8.74887C75.859 10.0905 75.2386 11.3366 74.2057 12.1973C73.1648 13.0647 71.7806 13.4653 70.438 13.283C64.6645 12.6661 58.9939 11.2914 53.5788 9.19589C47.7242 6.98985 41.5784 5.56958 35.3467 5.01304C35.3364 5.01212 35.3251 5.01345 35.3148 5.01304C30.6209 4.82592 26.0592 6.5511 22.6385 9.77064C19.2178 12.9902 17.2439 17.4311 17.1465 22.1276C17.1465 22.1291 17.1465 22.158 17.1465 22.1595C17.0751 27.4579 20.3306 32.2324 25.2887 34.1014C25.5908 34.2153 25.9107 34.0709 26.055 33.7821L26.5978 32.7604C26.7556 32.4448 26.5971 32.0498 26.2785 31.8983C24.552 31.0769 23.5022 29.3032 23.5645 27.3961C23.5655 27.3879 23.5638 27.3724 23.5645 27.3642C23.5649 27.3535 23.564 27.3429 23.5645 27.3322C23.9969 24.1589 26.8881 21.8902 30.0782 22.2553C36.5573 22.9669 42.9308 24.5096 49.0128 26.8533C49.03 26.8599 49.027 26.8801 49.0448 26.8852C55.1553 28.6421 61.3735 29.9923 67.6601 30.9403L67.6601 46.1072L60.152 52.6248C60.0128 52.7456 59.9329 52.9208 59.9329 53.105L59.9329 53.6057C59.9329 53.7899 60.0129 53.9651 60.152 54.0858L67.6601 60.6035L67.6601 82.0606C63.9199 84.1166 59.6987 85.1331 55.4308 84.9343C55.41 84.9333 55.3877 84.9332 55.3669 84.9343C48.2513 85.3084 41.4005 82.5308 36.4323 77.4626L56.7024 67.5989C56.9207 67.4927 57.0592 67.2712 57.0592 67.0284L57.0592 30.9403C57.0592 30.4801 56.5864 30.1482 56.1652 30.3337L32.1218 40.9345C34.9818 35.566 39.1599 31.0046 44.383 27.8431C44.6638 27.6731 44.7852 27.3065 44.6384 27.0129L44.1275 25.9912C43.9962 25.7285 43.6785 25.6026 43.3931 25.6719C26.5189 29.7685 14.3761 44.473 13.5384 61.8168C13.5379 61.8275 13.5384 61.838 13.5384 61.8488C13.5946 82.1075 29.9999 98.5123 50.2581 98.5685C59.4026 98.7016 68.2006 95.1832 74.7166 88.7659C81.2327 82.3487 84.9277 73.5806 84.9343 64.4351C84.9345 64.087 84.6438 63.7965 84.2957 63.7965L83.242 63.7965C82.9868 63.7965 82.7645 63.9757 82.6672 64.2116C80.1542 70.3071 75.8932 75.4674 70.4699 79.1868L70.4699 59.5817L78.5059 53.0759C78.6539 52.9561 78.7398 52.7759 78.7398 52.5856L78.7398 52.0687C78.7398 51.8937 78.6639 51.7273 78.5318 51.6126L71.0127 45.0854L71.0127 30.4933C75.0181 30.5156 78.8804 29.011 81.7732 26.2147C84.822 23.2675 86.5258 19.1823 86.4669 14.9433C86.4669 9.55773 83.8553 6.11508 80.2725 4.08706C76.7113 2.0713 72.2289 1.40493 68.2987 1.40493ZM40.8706 40.6471L40.3597 71.2362L35.0274 73.9184C31.2512 68.4344 29.3713 61.833 29.7589 55.1754C29.7597 55.1615 29.759 55.1573 29.7589 55.1434C29.7312 51.6279 30.2097 48.1397 31.1958 44.7661L40.8706 40.6471Z"/><path fill-opacity="0.3" d="M68.2987 1.6923C68.1054 1.6923 67.9474 1.85023 67.9474 2.04353L67.9474 3.57618C67.9474 3.76948 68.1054 3.9274 68.2987 3.92741C70.5829 3.92741 72.5785 4.31539 73.9822 5.10883C75.3784 5.89799 76.2173 7.08006 76.2173 8.74887C76.1428 10.1691 75.4587 11.5097 74.3654 12.4208C73.264 13.3385 71.8265 13.7632 70.406 13.5703C64.6081 12.9508 58.921 11.5557 53.4831 9.45133C47.6522 7.25424 41.5531 5.85469 35.3467 5.30041C35.341 5.2999 35.3205 5.30063 35.3148 5.30041C30.696 5.11628 26.196 6.79422 22.8301 9.96222C19.4641 13.1302 17.5297 17.5382 17.4339 22.1595C17.3641 27.3399 20.5368 31.9866 25.3845 33.8141C25.5523 33.8773 25.7513 33.8148 25.8315 33.6544L26.3424 32.6326C26.43 32.4574 26.3597 32.2379 26.1827 32.1537C24.335 31.2747 23.1832 29.3764 23.2771 27.3322C23.7137 23.9899 26.7571 21.6161 30.1102 21.9999C36.6132 22.7141 43.0041 24.2454 49.1086 26.5978C49.1182 26.6015 49.1307 26.6269 49.1405 26.6298C55.3116 28.4041 61.597 29.7373 67.9474 30.6849L67.9474 46.2349L60.3502 52.8107C60.2677 52.882 60.2203 52.9857 60.2203 53.0948L60.2203 53.5982C60.2203 53.6979 60.2635 53.7927 60.3387 53.8581L67.9474 60.4758L67.9474 82.2521C64.1303 84.3821 59.8 85.4252 55.4308 85.2217C55.4192 85.2211 55.4104 85.2211 55.3989 85.2217C48.0702 85.5916 40.9955 82.707 35.9534 77.3988L56.6064 67.3436C56.7272 67.2848 56.8038 67.1623 56.8038 67.028L56.8038 30.9084C56.8038 30.6557 56.5242 30.4873 56.2929 30.5891L31.4512 41.5412C34.3305 35.793 38.7438 30.9556 44.2552 27.6196C44.4112 27.5252 44.4645 27.3038 44.383 27.1407L43.8721 26.1189C43.7991 25.973 43.6155 25.8888 43.457 25.9273C26.7035 29.9946 14.6575 44.629 13.8258 61.8488C13.8815 81.9533 30.1539 98.2573 50.2581 98.313C59.3277 98.445 68.0624 94.9391 74.525 88.5743C80.9877 82.2097 84.6404 73.5057 84.6469 64.4351C84.647 64.2417 84.4891 64.0838 84.2957 64.0839L83.242 64.0839C83.1002 64.0839 82.9767 64.1763 82.9227 64.3074C80.324 70.6106 75.8852 75.9316 70.2145 79.6977L70.2145 59.454L78.3294 52.8406C78.4073 52.7772 78.4525 52.6821 78.4525 52.5816L78.4525 52.0588C78.4525 51.9591 78.4093 51.8643 78.3341 51.7989L70.7254 45.1812L70.7254 30.206C74.7577 30.3036 78.6737 28.834 81.5816 26.0231C84.5823 23.1224 86.2462 19.1163 86.1796 14.9433C86.1796 9.65959 83.6535 6.29666 80.1448 4.31057C76.648 2.3313 72.2009 1.69231 68.2987 1.6923ZM41.1261 40.232L40.6152 71.4278L34.8997 74.3015C30.9875 68.724 29.0752 61.9825 29.4716 55.1754C29.472 55.1676 29.4716 55.1511 29.4716 55.1434C29.4433 51.5661 29.959 48.0049 30.9723 44.5745L41.1261 40.232Z"/><path fill-opacity="0.3" d="M68.2987 1.88388C68.2158 1.88388 68.139 1.96068 68.139 2.04353L68.139 3.57618C68.139 3.65902 68.2158 3.73583 68.2987 3.73583C70.6036 3.73583 72.6612 4.13033 74.11 4.94918C75.5554 5.7662 76.4089 7.00238 76.4089 8.74887C76.3399 10.237 75.6376 11.6268 74.4931 12.5805C73.3487 13.5341 71.8503 13.9624 70.3741 13.7619C64.5588 13.1406 58.8735 11.7536 53.4192 9.64291C47.6052 7.4522 41.5031 6.04465 35.3148 5.49199C30.7497 5.31 26.2847 6.9907 22.9578 10.1219C19.6309 13.2531 17.7202 17.5919 17.6255 22.1595C17.5568 27.2556 20.6794 31.8247 25.4484 33.6225C25.5203 33.6496 25.6055 33.6274 25.6399 33.5586L26.1508 32.5369C26.1884 32.4617 26.1628 32.3814 26.087 32.3453C24.1665 31.4317 22.9879 29.4568 23.0855 27.3322C23.521 23.8646 26.6698 21.379 30.1421 21.7764C36.6623 22.4925 43.0519 24.0476 49.1725 26.4063C49.1766 26.4078 49.1683 26.437 49.1725 26.4382C55.397 28.2279 61.7322 29.5779 68.139 30.5253L68.139 46.3307L60.4705 52.9767C60.4333 53.009 60.4119 53.0558 60.4119 53.105L60.4119 53.6108C60.4119 53.6543 60.4429 53.6781 60.4758 53.7066L68.139 60.348L68.139 82.3799C64.2675 84.5625 59.8718 85.6201 55.4308 85.4132C55.4258 85.413 55.4038 85.413 55.3989 85.4132C47.9109 85.7792 40.6636 82.8582 35.5702 77.3668L56.5164 67.1492C56.568 67.124 56.5803 67.0788 56.5803 67.0215L56.5803 30.9084C56.5803 30.8001 56.4879 30.7371 56.3887 30.7807L31.0361 41.9243C33.9226 35.9357 38.4663 30.874 44.1594 27.428C44.2263 27.3876 44.2263 27.3064 44.1914 27.2364L43.6805 26.2147C43.6492 26.1521 43.5888 26.1024 43.5208 26.1189C26.8536 30.1653 14.8448 44.7175 14.0173 61.8488C14.0728 81.8431 30.2639 98.0341 50.2581 98.0895C59.2742 98.2208 67.9728 94.7418 74.3973 88.4147C80.8218 82.0876 84.4169 73.4521 84.4234 64.4351C84.4235 64.3522 84.3785 64.2754 84.2957 64.2755L83.242 64.2755C83.1812 64.2755 83.1374 64.3151 83.1143 64.3712C80.4469 70.841 75.8637 76.347 69.991 80.1448L69.991 59.3582L78.197 52.6848C78.2321 52.6563 78.2609 52.6342 78.2609 52.589L78.2609 52.0462C78.2609 52.0027 78.2299 51.9789 78.197 51.9504L70.5018 45.277L70.5018 30.0463C74.5696 30.2138 78.5239 28.6957 81.4539 25.8634C84.4148 23.0012 86.0537 19.061 85.988 14.9433C85.988 9.73235 83.5048 6.45827 80.049 4.50216C76.5983 2.54895 72.181 1.88388 68.2987 1.88388ZM41.3496 39.9127L40.8387 71.5555L34.8358 74.557C30.8244 68.9127 28.8774 62.0904 29.28 55.1754C29.2802 55.1721 29.28 55.1467 29.28 55.1434C29.2513 51.5127 29.7745 47.9258 30.8126 44.4468L41.3496 39.9127Z"/></g><path fill="url(#LG_NYT)" d="M85.836 14.9348C85.836 4.62198 76.0388 2.04379 68.3042 2.04379L68.3042 3.59071C72.945 3.59071 76.5544 5.13762 76.5544 8.74709C76.4835 10.2772 75.7728 11.7072 74.596 12.6878C73.4193 13.6684 71.8847 14.1096 70.3668 13.9035C64.5384 13.2807 58.8173 11.8938 53.3507 9.77837C47.5691 7.54105 41.4782 6.20472 35.3034 5.65326C30.7786 5.47288 26.3714 7.11983 23.0739 10.2234C19.7763 13.327 17.8655 17.6263 17.7717 22.1537C17.7038 27.1865 20.7964 31.7223 25.5062 33.4978L26.0218 32.4665C24.0468 31.527 22.8276 29.4949 22.928 27.31C23.3737 23.7608 26.593 21.2314 30.1469 21.6381C36.68 22.3556 43.0928 23.9155 49.2255 26.2788C55.3037 28.621 61.8597 29.4569 68.3042 30.4039L68.3042 46.3887L60.5696 53.0921L60.5696 53.6077L68.3042 60.311L68.3042 82.4835C64.3867 84.7142 59.9164 85.787 55.4133 85.5773C47.8105 85.2232 40.4333 82.9494 35.3034 77.3271L56.4445 67.0143L56.4445 30.9196L30.6626 42.2636C33.5482 36.0589 38.2152 30.8534 44.0692 27.31L43.5536 26.2788C26.9511 30.3095 14.9864 44.7931 14.1621 61.8579C14.2173 81.7696 30.3452 97.8975 50.2569 97.9527C59.2328 98.0833 67.8866 94.6107 74.2825 88.3117C80.6784 82.0128 84.2826 73.413 84.2891 64.4361L83.2577 64.4361C80.5437 71.0191 75.8611 76.6022 69.8511 80.4209L69.8511 59.2797L78.1013 52.5764L78.1013 52.0607L70.3668 45.3574L70.3668 29.8883C74.4385 30.0915 78.4124 28.5989 81.3436 25.7655C84.2747 22.932 85.9011 19.011 85.836 14.9348ZM40.9754 71.655L34.7877 74.7489C30.7108 69.0588 28.7088 62.1426 29.1157 55.1546C29.0867 51.4881 29.6081 47.8379 30.6626 44.3262L41.491 39.6854L40.9754 71.655Z"/></g></svg>