<svg xmlns="http://www.w3.org/2000/svg" xmlns:vectornator="http://vectornator.io" xml:space="preserve" stroke-linecap="round" stroke-linejoin="round" stroke-miterlimit="10" clip-rule="evenodd" viewBox="0 0 100 100"><defs><filter id="b" width="101.365" height="101.057" x="-.682" y="-.528" color-interpolation-filters="sRGB" filterUnits="userSpaceOnUse"><feDropShadow dx="0" dy="0" flood-color="#000" flood-opacity=".55" in="SourceGraphic" result="Shadow" stdDeviation="2"/></filter></defs><clipPath id="a"><path d="M0 0h100v100H0z"/></clipPath><g vectornator:layerName="Omnivore" clip-path="url(#a)"><path vectornator:layerName="Square" fill="#fedd91" d="M.7 23.988C.7 11.016 11.218.5 24.19.5H75.81C88.783.5 99.3 11.016 99.3 23.988v52.024C99.3 88.984 88.783 99.5 75.811 99.5H24.188C11.218 99.5.702 88.984.702 76.012V23.988Z"/><path vectornator:layerName="M" vectornator:shadowAngle="1.571" vectornator:shadowColor="#000000" vectornator:shadowOffset="0" vectornator:shadowOpacity=".55" vectornator:shadowRadius="4" fill="#4d4a44" d="M49.812 4.472C24.67 4.472 4.318 24.857 4.318 50c0 25.143 20.351 45.528 45.494 45.528 1.218 0 2.422-.121 3.609-.236.086-2.424.305-4.76.674-7.014-1.4.17-2.836.303-4.283.303-21.321 0-38.58-17.26-38.58-38.581s17.259-38.615 38.58-38.615c20.523 0 37.252 16.04 38.48 36.254-.029.994-.06 3.508-.06 3.508-.164 6.797-5.013 12.205-10.53 12.073-3.096-.074-5.377-1.884-7.15-4.654-1.384-2.164-2.196-4.91-2.124-7.892.052-2.128.267-7.45.371-10.825l.034-2.968c-.146-.604-1.402-2.95-4.283-3.878-1.89-.609-3.926-.29-4.924.843-2.23 2.533-9.004 12.85-9.004 12.849 0 0-7.585-9.466-9.477-11.905-1.2-1.546-3.414-2.275-5.396-2.023-2.333.296-4.446 1.742-4.688 3.844 0 0-.198 19.542-.303 29.307h6.711l.303-25.024s4.79 7.456 7.285 10.893c2.39 3.294 7.453 3.49 10.117.102 2.803-3.563 7.319-10.691 7.319-10.691s-.497 6.245-.371 11.534c.029 1.416.191 2.79.472 4.114 1.822 8.604 8.659 14.937 16.694 14.772 9.27-.192 16.606-10.863 16.39-21.483-.075-2.831-.424-5.703-.452-6.07-2.918-22.328-22.29-39.593-45.414-39.593Z" filter="url(#b)"/></g></svg>