<svg xmlns="http://www.w3.org/2000/svg" stroke-linecap="round" stroke-linejoin="round" stroke-miterlimit="10" clip-rule="evenodd" viewBox="0 0 100 100" xml:space="preserve"><defs><filter id="a" width="102.642" height="103.091" x="-1.761" y="-1.128" color-interpolation-filters="sRGB" filterUnits="userSpaceOnUse"><feDropShadow dx="-.44" dy=".418" flood-color="#000" flood-opacity=".44" in="SourceGraphic" result="Shadow" stdDeviation="1.561"/></filter></defs><path fill="#e8e8e8" stroke="#e8e8e8" stroke-linecap="butt" stroke-width="2.839" d="M42.61 4.404c-2.62.42-5.03.996-7.232 1.73-2.201.734-4.874 1.991-8.019 3.773-3.144 1.782-5.974 3.826-8.49 6.132-2.515 2.306-4.507 4.455-5.974 6.446-1.468 1.992-2.883 4.35-4.246 7.076-1.362 2.725-2.41 5.398-3.144 8.018-.734 2.62-1.206 5.922-1.415 9.905-.21 3.983-.053 7.495.472 10.535a45.684 45.684 0 0 0 2.515 8.962c1.153 2.934 2.463 5.555 3.93 7.86 1.468 2.307 3.303 4.613 5.504 6.919 2.2 2.306 4.402 4.245 6.603 5.817a46.109 46.109 0 0 0 6.918 4.088 46.537 46.537 0 0 0 7.547 2.83 41.666 41.666 0 0 0 8.176 1.415l4.245.315v-3.46c0-2.305-1.782-3.668-5.346-4.087a36.361 36.361 0 0 1-10.377-2.83c-3.354-1.468-5.765-2.726-7.232-3.774-1.468-1.048-3.092-2.463-4.874-4.245-1.782-1.782-3.564-4.088-5.346-6.918s-3.04-5.24-3.773-7.232a39.569 39.569 0 0 1-1.73-6.29c-.419-2.2-.576-5.03-.471-8.49.104-3.459.68-6.918 1.73-10.377 1.047-3.459 2.515-6.655 4.401-9.59 1.887-2.935 4.245-5.66 7.076-8.176 2.83-2.516 5.607-4.455 8.333-5.818 2.725-1.362 5.66-2.41 8.804-3.144 3.145-.734 6.813-.996 11.006-.786 4.193.21 7.495.681 9.905 1.415 2.411.734 5.346 2.149 8.805 4.245 3.46 2.096 5.975 3.93 7.547 5.503 1.572 1.572 2.883 3.092 3.93 4.56a39.883 39.883 0 0 1 2.673 4.245c.734 1.362 1.52 3.301 2.359 5.817.838 2.516 1.363 5.712 1.572 9.59.21 3.879 0 7.024-.629 9.434-.629 2.411-1.624 4.298-2.987 5.66-1.363 1.363-2.516 2.202-3.459 2.516-.943.315-2.096.472-3.459.472s-2.463-.157-3.302-.472a7.851 7.851 0 0 1-2.358-1.415c-.734-.629-1.415-1.625-2.044-2.987-.629-1.363-.944-5.084-.944-11.163 0-6.08-.157-9.591-.471-10.534-.315-.944-.734-1.677-1.258-2.202-.524-.524-1.467-.995-2.83-1.415-1.363-.419-2.725-.367-4.088.158-1.362.524-3.406 2.882-6.132 7.075-2.725 4.193-4.35 6.341-4.874 6.446-.524.105-2.2-1.992-5.031-6.289-2.83-4.297-4.717-6.708-5.66-7.232-.944-.525-2.096-.734-3.46-.63-1.362.105-2.462.472-3.3 1.101-.84.63-1.468 1.363-1.888 2.201-.419.839-.629 6.185-.629 16.038v14.779h6.918V42.453l3.46 5.031c2.305 3.355 3.773 5.294 4.402 5.818s1.415.943 2.358 1.258c.944.314 2.096.419 3.46.314 1.362-.105 2.358-.314 2.986-.629.63-.314 2.306-2.358 5.032-6.132l4.088-5.66V50c0 5.031.21 8.333.629 9.905.419 1.572 1.1 3.092 2.043 4.56.944 1.467 1.835 2.568 2.673 3.302.839.733 2.359 1.52 4.56 2.358 2.201.838 4.088 1.258 5.66 1.258s3.25-.262 5.031-.786c1.782-.524 3.669-1.625 5.66-3.302 1.992-1.677 3.355-3.197 4.088-4.56a20.261 20.261 0 0 0 1.73-4.402c.42-1.572.734-4.245.943-8.018.21-3.774.053-7.076-.471-9.906-.525-2.83-1.363-5.66-2.516-8.49s-2.411-5.293-3.774-7.39c-1.362-2.096-3.092-4.245-5.188-6.446a44.127 44.127 0 0 0-6.76-5.817c-2.412-1.678-5.399-3.25-8.963-4.717-3.564-1.468-6.865-2.463-9.905-2.987-3.04-.525-5.765-.787-8.176-.787-2.41 0-4.926.21-7.547.63Z" filter="url(#a)"/></svg>