<svg xmlns="http://www.w3.org/2000/svg" xmlns:xlink="http://www.w3.org/1999/xlink" width="100%" height="100%" version="1.1" viewBox="0 0 100 100" xml:space="preserve"><defs><filter id="Filter_Omnivore" width="94.147" height="94.364" x="3.051" y="3.988" color-interpolation-filters="sRGB" filterUnits="userSpaceOnUse"><feDropShadow dx="0" dy=".175" flood-color="#000" flood-opacity=".333" in="SourceGraphic" result="Shadow" stdDeviation="1.999"/></filter></defs><g id="Omnivore" opacity="1"><path id="OmnivoreRectangle-1" fill="#fedd91" stroke="none" d="M0.700945 23.9876C0.700945 11.0158 11.2167 0.5 24.1885 0.5L75.8115 0.5C88.7833 0.5 99.2991 11.0158 99.2991 23.9876L99.2991 76.0124C99.2991 88.9842 88.7833 99.5 75.8115 99.5L24.1885 99.5C11.2167 99.5 0.700945 88.9842 0.700945 76.0124L0.700945 23.9876Z" opacity="1"/><path id="Omnivore-1" fill="#4d4a44" stroke="none" d="M50.2336 8.81036C26.9355 8.81036 8.04856 27.6973 8.04857 50.9954C8.04857 74.2935 26.9355 93.1804 50.2336 93.1804C51.362 93.1804 52.4649 93.0833 53.5649 92.9771C53.6447 90.7303 53.8414 88.5711 54.1835 86.4824C52.8852 86.6412 51.5743 86.7651 50.2336 86.7652C30.4767 86.7652 14.4638 70.7523 14.4638 50.9954C14.4638 31.2385 30.4767 15.2256 50.2336 15.2256C69.2507 15.2256 84.7508 30.0732 85.8885 48.8039C85.7605 53.2477 84.6095 57.8678 81.4615 61.0159C79.5934 62.884 72.7839 64.3025 69.1435 58.9128C66.1544 54.4874 69.3588 45.0908 67.8534 38.8541C67.7183 38.2947 66.5469 36.1177 63.877 35.2577C62.1257 34.6936 60.2335 34.9673 59.3086 36.0177C57.2417 38.3649 52.4396 45.5514 50.9582 47.9291C47.6639 43.5743 43.9284 39.1608 42.1748 36.9013C41.0629 35.4687 39.0364 34.7951 37.1999 35.028C35.0378 35.3022 33.0675 36.6495 32.8435 38.5979C31.7912 47.7538 32.6581 56.6949 32.5608 65.7433C35.6712 65.7433 35.6712 65.7433 38.7816 65.7433C38.923 54.15 38.923 54.15 39.0644 42.5566C40.1869 45.9242 43.4943 49.4802 45.8065 52.6655C48.0219 55.7172 52.7126 55.8757 55.182 52.7361C57.7786 49.4349 59.2519 45.5558 61.9683 42.8394C61.9683 47.6377 61.0711 55.2512 62.5339 60.3708C64.9831 68.9433 73.1852 72.5234 81.3996 69.4281C81.7736 69.2872 86.4295 67.0806 89.2198 62.1292C91.923 57.3324 92.5822 53.1041 92.0121 45.4903C89.308 24.8008 71.6606 8.81036 50.2336 8.81036Z" filter="url(#Filter_Omnivore)" shadowAngle="1.571" shadowColor="#000000" shadowOffset=".175" shadowOpacity=".333" shadowRadius="3.998"/></g></svg>