<svg width="100%" height="100%" viewBox="0 0 100 100" stroke-miterlimit="10" style="fill-rule:nonzero;clip-rule:evenodd;stroke-linecap:round;stroke-linejoin:round;" version="1.1" xml:space="preserve" xmlns="http://www.w3.org/2000/svg" xmlns:vectornator="http://vectornator.io" xmlns:xlink="http://www.w3.org/1999/xlink">
<defs>
<linearGradient gradientTransform="matrix(1.55619 0 0 1.55619 -39.0708 -32.1914)" gradientUnits="userSpaceOnUse" id="LinearGradient" x1="41.3226" x2="72.4455" y1="50.7491" y2="33.6215">
<stop offset="0" stop-color="#ffffff"/>
<stop offset="0.350069" stop-color="#ffffff"/>
<stop offset="0.657269" stop-color="#ffffff"/>
<stop offset="0.888995" stop-color="#c0c0c0"/>
<stop offset="1" stop-color="#8c8c8c"/>
</linearGradient>
<filter color-interpolation-filters="sRGB" filterUnits="userSpaceOnUse" height="90.6689" id="Filter" width="74.4826" x="21.6492" y="-1.21059">
<feDropShadow dx="-0.417945" dy="0.435136" flood-color="#000000" flood-opacity="0.55" in="SourceGraphic" result="Shadow" stdDeviation="1.5"/>
</filter>
<linearGradient gradientTransform="matrix(1.0335 6.83022e-33 0 1.0335 -7.23244 -7.81505)" gradientUnits="userSpaceOnUse" id="LinearGradient_2" x1="-23.6736" x2="118.709" y1="60.2529" y2="54.5295">
<stop offset="0" stop-color="#ffffff"/>
<stop offset="0.365363" stop-color="#ffffff"/>
<stop offset="0.731145" stop-color="#c0c0c0"/>
<stop offset="1" stop-color="#8c8c8c"/>
</linearGradient>
<filter color-interpolation-filters="sRGB" filterUnits="userSpaceOnUse" height="103.123" id="Filter_2" width="89.0535" x="7.26689" y="-0.994721">
<feDropShadow dx="-0.20636" dy="0.566954" flood-color="#000000" flood-opacity="0.55" in="SourceGraphic" result="Shadow" stdDeviation="1.02467"/>
</filter>
<linearGradient gradientTransform="matrix(1.05544 -1.08811e-32 0 1.05544 -91.9667 5.6505)" gradientUnits="userSpaceOnUse" id="LinearGradient_3" x1="121.625" x2="69.3167" y1="114.223" y2="54.2358">
<stop offset="0" stop-color="#ffffff"/>
<stop offset="0" stop-color="#ffffff"/>
<stop offset="0.465789" stop-color="#6f6f6f"/>
<stop offset="0.857895" stop-color="#e1e1e1"/>
</linearGradient>
</defs>
<g opacity="1" layerName="Group 1">
<path d="M52.0598 23.6915L52.0545 41.1675C52.0545 41.1675 62.955 41.52 65.2214 40.7571C65.8898 40.5321 66.3226 40.0992 66.3854 40.0427C66.7547 39.7111 67.0744 39.2148 67.2137 38.9548C68.209 37.0968 68.1169 29.8541 67.5917 27.3863C67.4093 26.5301 67.0593 25.7341 66.8131 25.4112C65.9464 24.2743 65.1017 24.0622 64.642 23.8798C63.3675 23.374 52.0598 23.6915 52.0598 23.6915Z" fill="url(#LinearGradient)" fill-rule="nonzero" opacity="1" stroke="none" layerName="Curve 1"/>
<path d="M48.1271 85.2731L29.9848 85.2731C28.5361 85.2731 27.4459 84.9399 26.7977 84.2918C26.1496 83.6437 25.8172 82.5513 25.8172 81.1025L26.0678 6.27503C26.0678 4.82627 26.4002 3.73374 27.0483 3.08561C27.6964 2.43748 28.4402 2.10427 30.9316 2.10427L65.5798 2.12746C75.9498 2.12746 83.2017 4.21838 87.0142 8.33589C90.8267 12.4534 92.7998 17.9924 92.7998 24.6261L92.7998 39.3953C92.7998 46.0291 91.1826 51.3123 87.0142 55.6857C82.9971 59.9003 75.6577 61.9172 65.2877 61.9172L52.2941 61.9376L52.2941 81.1061C52.2941 82.5549 51.9618 83.6446 51.3137 84.2927C50.6656 84.9409 49.5759 85.2731 48.1271 85.2731ZM64.4566 51.9232C68.0403 51.9232 70.9569 51.542 73.2063 50.7795C75.4556 50.017 77.1903 48.9685 78.4103 47.6342C79.6303 46.2998 80.4691 44.6985 80.9266 42.8304C81.3841 40.9623 81.6128 38.9226 81.6128 36.7113L81.6128 28.2475C81.6128 26.0363 81.3841 23.9775 80.9266 22.0713C80.4691 20.165 79.6303 18.5257 78.4103 17.1532C77.1903 15.7806 75.4556 14.6941 73.2063 13.8935C70.9569 13.0928 68.0403 12.6925 64.4566 12.6925L39.7515 12.6925L39.7515 74.4552L40.8953 74.4552L40.8953 51.9232L64.4566 51.9232ZM40.8953 50.7795L40.8953 13.8363L64.4566 13.8363C67.8116 13.8363 70.5375 14.1985 72.6344 14.9228C74.7313 15.6472 76.3516 16.6575 77.4953 17.9538C78.6391 19.25 79.4207 20.775 79.84 22.5288C80.2594 24.2825 80.4691 26.1888 80.4691 28.2475L80.4691 36.7113C80.4691 38.7701 80.2594 40.6573 79.84 42.3729C79.4207 44.0885 78.6391 45.5754 77.4953 46.8335C76.3516 48.0917 74.7313 49.0638 72.6344 49.7501C70.5375 50.4363 67.8116 50.7795 64.4566 50.7795L40.8953 50.7795ZM52.6759 23.7869L52.6759 41.0576L62.9697 41.0576C65.1809 41.0576 65.8763 40.5391 66.5625 39.3953C67.2488 38.2516 67.5921 36.9187 67.5921 35.47L67.5921 29.3366C67.5921 27.8878 67.2488 26.555 66.5625 25.4112C65.8763 24.2675 65.1809 23.7869 62.9697 23.7869L52.6759 23.7869Z" fill="#0013ff" fill-rule="nonzero" filter="url(#Filter)" stroke="none" shadowAngle="2.33605" shadowColor="#000000" shadowOffset="0.603342" shadowOpacity="0.55" shadowRadius="3"/>
<path d="M30.2331 1C29.4634 1 28.7302 1.10162 28.076 1.29412C27.4218 1.48647 26.9411 1.72161 26.5562 2.02942L11.6527 14.6288C11.114 15.0905 10.6966 15.6519 10.4272 16.3447C10.1577 17.0373 10.0349 17.8934 10.0349 18.8939L10.0349 93.7054C10.0349 95.5526 10.463 96.8788 11.3096 97.7255C12.1562 98.572 13.4825 99 15.3296 99L33.2236 99C33.9933 99 34.7264 98.8878 35.3806 98.6569C36.0349 98.4259 36.4946 98.1804 36.8024 97.8725L51.8039 85.3712C52.3427 84.9095 52.7602 84.3481 53.0296 83.6553C53.299 82.9627 53.4217 82.1066 53.4217 81.1061L53.4217 75.5664C57.8088 75.4123 61.5592 74.8404 64.5992 73.8015C67.6394 72.7624 70.0778 71.3977 72.0021 69.7814L87.0526 57.3292C89.5925 55.1742 91.3572 52.5744 92.3963 49.5342C93.4353 46.4941 93.9651 43.1296 93.9651 39.4352L93.9651 24.6789C93.9651 21.2153 93.5265 17.9947 92.6414 15.07C91.7562 12.1453 90.2371 9.6473 88.082 7.56931C85.927 5.49117 83.0011 3.87024 79.3067 2.71586C75.6123 1.56132 71.0444 1 65.5798 1L30.2331 1ZM30.2331 2.12746L65.5798 2.12746C76.0472 2.12746 83.2043 4.24653 87.0526 8.40265C90.9009 12.5588 92.7884 17.9827 92.7884 24.6789L92.7884 39.4352C92.7884 46.1313 90.9009 51.5553 87.0526 55.7114C83.2043 59.8675 76.0472 61.9376 65.5798 61.9376L52.2941 61.9376L52.2941 81.1061C52.2941 82.5685 51.9678 83.6385 51.3137 84.2927C50.6595 84.947 49.5895 85.2731 48.1271 85.2731L30.2331 85.2731C28.7707 85.2731 27.7007 84.947 27.0464 84.2927C26.3922 83.6385 26.066 82.5685 26.066 81.1061L26.066 6.29463C26.066 4.83228 26.3922 3.76224 27.0464 3.10802C27.7007 2.4538 28.7707 2.12746 30.2331 2.12746Z" fill="url(#LinearGradient_2)" fill-rule="nonzero" filter="url(#Filter_2)" stroke="none" layerName="Curve 5" shadowAngle="1.91987" shadowColor="#000000" shadowOffset="0.603342" shadowOpacity="0.55" shadowRadius="2.04934"/>
<path d="M30.2331 1C29.4634 1 28.7302 1.10162 28.076 1.29412C27.4218 1.48647 26.9411 1.72161 26.5562 2.02942L11.6527 14.6288C11.114 15.0905 10.6966 15.6519 10.4272 16.3447C10.1577 17.0373 10.0349 17.8934 10.0349 18.8939L10.0349 93.7054C10.0349 95.5526 10.463 96.8788 11.3096 97.7255C12.1562 98.572 13.4825 99 15.3296 99L33.2236 99C33.9933 99 34.7264 98.8878 35.3806 98.6569C36.0349 98.4259 36.4946 98.1804 36.8024 97.8725L51.8039 85.3712C52.3427 84.9095 52.7602 84.3481 53.0296 83.6553C53.299 82.9627 53.4217 82.1066 53.4217 81.1061L53.4217 75.5664C57.8088 75.4123 61.5592 74.8404 64.5992 73.8015C67.6394 72.7624 70.0778 71.3977 72.0021 69.7814L87.0526 57.3292C89.5925 55.1742 91.3572 52.5744 92.3963 49.5342C93.4353 46.4941 93.9651 43.1296 93.9651 39.4352L93.9651 24.6789C93.9651 21.2153 93.5265 17.9947 92.6414 15.07C91.7562 12.1453 90.2371 9.6473 88.082 7.56931C85.927 5.49117 83.0011 3.87024 79.3067 2.71586C75.6123 1.56132 71.0444 1 65.5798 1L30.2331 1ZM30.2331 2.12746L65.5798 2.12746C76.0472 2.12746 83.2043 4.24653 87.0526 8.40265C90.9009 12.5588 92.7884 17.9827 92.7884 24.6789L92.7884 39.4352C92.7884 46.1313 90.9009 51.5553 87.0526 55.7114C83.2043 59.8675 76.0472 61.9376 65.5798 61.9376L52.2941 61.9376L52.2941 81.1061C52.2941 82.5685 51.9678 83.6385 51.3137 84.2927C50.6595 84.947 49.5895 85.2731 48.1271 85.2731L30.2331 85.2731C28.7707 85.2731 27.7007 84.947 27.0464 84.2927C26.3922 83.6385 26.066 82.5685 26.066 81.1061L26.066 6.29463C26.066 4.83228 26.3922 3.76224 27.0464 3.10802C27.7007 2.4538 28.7707 2.12746 30.2331 2.12746Z" fill="url(#LinearGradient_3)" fill-rule="nonzero" opacity="0.437102" stroke="none" layerName="Curve 4"/>
</g>
</svg>
