<svg xmlns="http://www.w3.org/2000/svg" xmlns:xlink="http://www.w3.org/1999/xlink" width="100%" height="100%" viewBox="0 0 100 100" xml:space="preserve"><defs><linearGradient id="LGBrush" x1="0" x2="1" y1="0" y2="0" gradientTransform="matrix(301.765 282.417 -282.417 301.765 -35.1701 -26.3778)" gradientUnits="userSpaceOnUse"><stop offset="0" stop-color="#e606a6" stop-opacity=".55"/><stop offset="1" stop-color="#ff00ec" stop-opacity="0"/></linearGradient><linearGradient id="LGBrush2" x1="0" x2="1" y1="0" y2="0" gradientTransform="matrix(29.0315 -32.7188 32.7188 29.0315 17.7158 79.4091)" gradientUnits="userSpaceOnUse"><stop offset="0" stop-color="#e6062d" stop-opacity=".55"/><stop offset="1" stop-color="#ff00ec" stop-opacity="0"/></linearGradient><linearGradient id="LGBrush3" x1="0" x2="1" y1="0" y2="0" gradientTransform="matrix(-10.4736 11.49 -11.49 -10.4736 52.5016 45.682)" gradientUnits="userSpaceOnUse"><stop offset="0" stop-color="#e6064d"/><stop offset="1" stop-color="#470015" stop-opacity=".935"/></linearGradient><linearGradient id="LGBrush4" x1="0" x2="1" y1="0" y2="0" gradientTransform="matrix(-10.0662 11.8574 -11.8574 -10.0662 52.5016 45.682)" gradientUnits="userSpaceOnUse"><stop offset="0" stop-color="#e6062d" stop-opacity=".55"/><stop offset="1" stop-color="#ff00ec" stop-opacity="0"/></linearGradient><linearGradient id="LGBrush5" x1="0" x2="1" y1="0" y2="0" gradientTransform="matrix(-20.014 29.33 29.33 20.014 29.3208 15.0036)" gradientUnits="userSpaceOnUse"><stop offset="0" stop-color="#fdffff" stop-opacity=".85"/><stop offset="1" stop-color="#545454" stop-opacity=".65"/></linearGradient><linearGradient id="LGBrush6" x1="0" x2="1" y1="0" y2="0" gradientTransform="matrix(-57.7857 44.7098 44.7098 57.7857 30.3792 9.85372)" gradientUnits="userSpaceOnUse"><stop offset="0" stop-color="#fdffff" stop-opacity=".292"/><stop offset=".462" stop-color="#545454" stop-opacity=".2"/></linearGradient><linearGradient id="LGBrush7" x1="0" x2="1" y1="0" y2="0" gradientTransform="matrix(-21.864 18.7924 18.7924 21.864 27.0957 20.5938)" gradientUnits="userSpaceOnUse"><stop offset="0" stop-color="#1a1a1a" stop-opacity=".022"/><stop offset="1" stop-color="#545454" stop-opacity=".5"/></linearGradient><linearGradient id="LGBrush8" x1="0" x2="1" y1="0" y2="0" gradientTransform="matrix(-27.761 20.0573 20.0573 27.761 39.0521 19.0719)" gradientUnits="userSpaceOnUse"><stop offset="0" stop-color="#fff"/><stop offset="1" stop-color="#333" stop-opacity=".1"/></linearGradient></defs><g id="ZXCV"><g opacity="1"><g opacity="1"><path fill="url(#LGBrush)" stroke="none" d="M41.0561 33.8494C40.0024 37.4761 37.7917 40.853 34.6411 43.2452C33.1686 44.3622 31.5734 45.2006 29.918 45.7795C74.7046 86.9977 93.1786 102.936 98.1723 97.5103C103.163 92.0887 85.7691 75.0112 41.0561 33.8494Z" opacity="0"/><path fill="url(#LGBrush2)" stroke="none" d="M41.0415 33.8494C39.9878 37.4761 37.777 40.853 34.6264 43.2452C33.1539 44.3622 31.5587 45.2006 29.9033 45.7795C74.69 86.9977 93.164 102.936 98.1577 97.5103C103.148 92.0887 85.7544 75.0112 41.0415 33.8494Z" opacity="0"/><path fill="url(#LGBrush3)" stroke="none" d="M41.0561 33.8494C40.0024 37.4761 37.7917 40.853 34.6411 43.2452C33.1686 44.3622 31.5734 45.2006 29.918 45.7795C74.7046 86.9977 93.1786 102.936 98.1723 97.5103C103.163 92.0887 85.7691 75.0112 41.0561 33.8494Z" opacity=".986"/><path fill="url(#LGBrush4)" stroke="none" d="M41.0561 33.8494C40.0024 37.4761 37.7917 40.853 34.6411 43.2452C33.1686 44.3622 31.5734 45.2006 29.918 45.7795C74.7046 86.9977 93.1786 102.936 98.1723 97.5103C103.163 92.0887 85.7691 75.0112 41.0561 33.8494Z" opacity="0"/></g><g opacity="1"><path fill="#fdffff" fill-opacity=".85" stroke="none" d="M1.69468 1.46463C1.26996 1.44649 0.915161 2.07612 1.01789 2.811C1.90621 9.16518 5.56835 33.3893 10.5433 39.9477C15.1683 46.0449 23.0635 48.1769 29.918 45.7795C31.5734 45.2006 33.1686 44.3622 34.6411 43.2452C37.7917 40.853 40.0024 37.4761 41.0561 33.8494C42.5321 28.7692 41.7265 23.2019 37.9458 19.1474C28.8851 9.43063 8.70222 9.51922 2.12666 1.72382C1.98316 1.5537 1.83626 1.47067 1.69468 1.46463Z" opacity=".1"/><path fill="url(#LGBrush5)" stroke="none" d="M1.69468 1.46463C1.26996 1.44649 0.915161 2.07612 1.01789 2.811C1.90621 9.16518 5.56835 33.3893 10.5433 39.9477C15.1683 46.0449 23.0635 48.1769 29.918 45.7795C31.5734 45.2006 33.1686 44.3622 34.6411 43.2452C37.7917 40.853 40.0024 37.4761 41.0561 33.8494C42.5321 28.7692 41.7265 23.2019 37.9458 19.1474C28.8851 9.43063 8.70222 9.51922 2.12666 1.72382C1.98316 1.5537 1.83626 1.47067 1.69468 1.46463Z" opacity=".7"/><path fill="url(#LGBrush6)" stroke="none" d="M1.69468 1.46463C1.26996 1.44649 0.915161 2.07612 1.01789 2.811C1.90621 9.16518 5.56835 33.3893 10.5433 39.9477C15.1683 46.0449 23.0635 48.1769 29.918 45.7795C31.5734 45.2006 33.1686 44.3622 34.6411 43.2452C37.7917 40.853 40.0024 37.4761 41.0561 33.8494C42.5321 28.7692 41.7265 23.2019 37.9458 19.1474C28.8851 9.43063 8.70222 9.51922 2.12666 1.72382C1.98316 1.5537 1.83626 1.47067 1.69468 1.46463Z" opacity=".5"/><path fill="url(#LGBrush7)" stroke="none" d="M1.69468 1.46463C1.26996 1.44649 0.915161 2.07612 1.01789 2.811C1.90621 9.16518 5.56835 33.3893 10.5433 39.9477C15.1683 46.0449 23.0635 48.1769 29.918 45.7795C31.5734 45.2006 33.1686 44.3622 34.6411 43.2452C37.7917 40.853 40.0024 37.4761 41.0561 33.8494C42.5321 28.7692 41.7265 23.2019 37.9458 19.1474C28.8851 9.43063 8.70222 9.51922 2.12666 1.72382C1.98316 1.5537 1.83626 1.47067 1.69468 1.46463Z" opacity=".5"/></g><path fill="url(#LGBrush8)" stroke="none" d="M1.69468 1.46463C1.26996 1.44649 0.915161 2.07612 1.01789 2.811C1.90621 9.16518 5.56835 33.3893 10.5433 39.9477C15.1683 46.0449 23.0635 48.1769 29.918 45.7795C31.5734 45.2006 33.1686 44.3622 34.6411 43.2452C37.7917 40.853 40.0024 37.4761 41.0561 33.8494C42.5321 28.7692 41.7265 23.2019 37.9458 19.1474C28.8851 9.43063 8.70222 9.51922 2.12666 1.72382C1.98316 1.5537 1.83626 1.47067 1.69468 1.46463Z" opacity="1"/></g></g></svg>