<svg xmlns="http://www.w3.org/2000/svg" xml:space="preserve" viewBox="0 0 100 100"><defs><linearGradient id="a" x1="19.5" x2="96.9" y1="43" y2="43" gradientTransform="matrix(1 0 0 1 -2.4 -2.4)" gradientUnits="userSpaceOnUse"><stop offset=".2" stop-color="#0a43ff"/><stop offset=".9" stop-color="#090075"/><stop offset="1" stop-color="#07004d"/></linearGradient><linearGradient id="c" x1="96.6" x2="-11.7" y1="108.5" y2="49.4" gradientTransform="matrix(1 0 0 1 -2.4 -2.4)" gradientUnits="userSpaceOnUse"><stop offset="0" stop-color="#f60aff"/><stop offset=".5" stop-color="#ff02cc"/><stop offset="1" stop-color="#ff0245"/></linearGradient><filter id="b" width="89" height="86.5" x="14.1" y=".5" color-interpolation-filters="sRGB" filterUnits="userSpaceOnUse"><feDropShadow dx="0" dy="1" flood-color="#000" flood-opacity=".7" in="SourceGraphic" result="Shadow" stdDeviation="1.6"/></filter><filter id="d" width="88.9" height="86.5" x="-3" y="15.2" color-interpolation-filters="sRGB" filterUnits="userSpaceOnUse"><feDropShadow dx="0" dy="1" flood-color="#000" flood-opacity=".7" in="SourceGraphic" result="Shadow" stdDeviation="1.6"/></filter></defs><path fill="url(#a)" d="m18 19.8 51.6-16a9.8 9.8 0 0 1 12.3 6.4l16.8 54a9.8 9.8 0 0 1-6.5 12.3l-17.6 5.4L18 20Z" filter="url(#b)"/><path fill="url(#c)" d="M10.7 18h61.4c5.4 0 9.8 4.5 9.8 9.9v59c0 5.4-4.4 9.8-9.8 9.8H10.7A9.8 9.8 0 0 1 1 86.8V28c0-5.4 4.4-9.8 9.8-9.8Zm2.5 17.3a5 5 0 1 0 0-9.8 5 5 0 0 0 0 9.8Z" filter="url(#d)"/></svg>