<svg xmlns="http://www.w3.org/2000/svg" width="100%" height="100%" fill="none" viewBox="0 0 32 32"><g filter="url(#filter0_iii_18_23209)"><path fill="#DDD7E9" d="M5.35522 11.7813C5.35522 9.48239 7.21884 7.61877 9.51772 7.61877C11.8166 7.61877 13.6802 9.48239 13.6802 11.7813L13.6802 23.5781L13.6802 23.5938C13.6802 23.597 13.6802 23.6003 13.6802 23.6035C13.6665 26.7278 11.1296 29.2563 8.0021 29.2563C4.86616 29.2563 2.32397 26.7141 2.32397 23.5781V14.9531C2.32397 14.4837 2.70453 14.1031 3.17397 14.1031C3.64342 14.1031 4.02397 14.4837 4.02397 14.9531V23.5781C4.02397 25.7752 5.80504 27.5563 8.0021 27.5563C10.1992 27.5563 11.9802 25.7752 11.9802 23.5781V11.7813C11.9802 10.4213 10.8777 9.31877 9.51772 9.31877C8.15772 9.31877 7.05522 10.4213 7.05522 11.7813V21.7969C7.05522 22.3026 7.46516 22.7125 7.97085 22.7125C8.47654 22.7125 8.88647 22.3026 8.88647 21.7969V15.0469C8.88647 14.5775 9.26703 14.1969 9.73647 14.1969C10.2059 14.1969 10.5865 14.5775 10.5865 15.0469V21.7969C10.5865 23.2415 9.41542 24.4125 7.97085 24.4125C6.53841 24.4125 5.37491 23.261 5.35547 21.8332L5.35522 21.8125V11.7813Z"/></g><path fill="url(#paint0_radial_18_23209)" d="M5.35522 11.7813C5.35522 9.48239 7.21884 7.61877 9.51772 7.61877C11.8166 7.61877 13.6802 9.48239 13.6802 11.7813L13.6802 23.5781L13.6802 23.5938C13.6802 23.597 13.6802 23.6003 13.6802 23.6035C13.6665 26.7278 11.1296 29.2563 8.0021 29.2563C4.86616 29.2563 2.32397 26.7141 2.32397 23.5781V14.9531C2.32397 14.4837 2.70453 14.1031 3.17397 14.1031C3.64342 14.1031 4.02397 14.4837 4.02397 14.9531V23.5781C4.02397 25.7752 5.80504 27.5563 8.0021 27.5563C10.1992 27.5563 11.9802 25.7752 11.9802 23.5781V11.7813C11.9802 10.4213 10.8777 9.31877 9.51772 9.31877C8.15772 9.31877 7.05522 10.4213 7.05522 11.7813V21.7969C7.05522 22.3026 7.46516 22.7125 7.97085 22.7125C8.47654 22.7125 8.88647 22.3026 8.88647 21.7969V15.0469C8.88647 14.5775 9.26703 14.1969 9.73647 14.1969C10.2059 14.1969 10.5865 14.5775 10.5865 15.0469V21.7969C10.5865 23.2415 9.41542 24.4125 7.97085 24.4125C6.53841 24.4125 5.37491 23.261 5.35547 21.8332L5.35522 21.8125V11.7813Z"/><path fill="url(#paint1_radial_18_23209)" d="M5.35522 11.7813C5.35522 9.48239 7.21884 7.61877 9.51772 7.61877C11.8166 7.61877 13.6802 9.48239 13.6802 11.7813L13.6802 23.5781L13.6802 23.5938C13.6802 23.597 13.6802 23.6003 13.6802 23.6035C13.6665 26.7278 11.1296 29.2563 8.0021 29.2563C4.86616 29.2563 2.32397 26.7141 2.32397 23.5781V14.9531C2.32397 14.4837 2.70453 14.1031 3.17397 14.1031C3.64342 14.1031 4.02397 14.4837 4.02397 14.9531V23.5781C4.02397 25.7752 5.80504 27.5563 8.0021 27.5563C10.1992 27.5563 11.9802 25.7752 11.9802 23.5781V11.7813C11.9802 10.4213 10.8777 9.31877 9.51772 9.31877C8.15772 9.31877 7.05522 10.4213 7.05522 11.7813V21.7969C7.05522 22.3026 7.46516 22.7125 7.97085 22.7125C8.47654 22.7125 8.88647 22.3026 8.88647 21.7969V15.0469C8.88647 14.5775 9.26703 14.1969 9.73647 14.1969C10.2059 14.1969 10.5865 14.5775 10.5865 15.0469V21.7969C10.5865 23.2415 9.41542 24.4125 7.97085 24.4125C6.53841 24.4125 5.37491 23.261 5.35547 21.8332L5.35522 21.8125V11.7813Z"/><path fill="url(#paint2_radial_18_23209)" d="M5.35522 11.7813C5.35522 9.48239 7.21884 7.61877 9.51772 7.61877C11.8166 7.61877 13.6802 9.48239 13.6802 11.7813L13.6802 23.5781L13.6802 23.5938C13.6802 23.597 13.6802 23.6003 13.6802 23.6035C13.6665 26.7278 11.1296 29.2563 8.0021 29.2563C4.86616 29.2563 2.32397 26.7141 2.32397 23.5781V14.9531C2.32397 14.4837 2.70453 14.1031 3.17397 14.1031C3.64342 14.1031 4.02397 14.4837 4.02397 14.9531V23.5781C4.02397 25.7752 5.80504 27.5563 8.0021 27.5563C10.1992 27.5563 11.9802 25.7752 11.9802 23.5781V11.7813C11.9802 10.4213 10.8777 9.31877 9.51772 9.31877C8.15772 9.31877 7.05522 10.4213 7.05522 11.7813V21.7969C7.05522 22.3026 7.46516 22.7125 7.97085 22.7125C8.47654 22.7125 8.88647 22.3026 8.88647 21.7969V15.0469C8.88647 14.5775 9.26703 14.1969 9.73647 14.1969C10.2059 14.1969 10.5865 14.5775 10.5865 15.0469V21.7969C10.5865 23.2415 9.41542 24.4125 7.97085 24.4125C6.53841 24.4125 5.37491 23.261 5.35547 21.8332L5.35522 21.8125V11.7813Z"/><path fill="url(#paint3_radial_18_23209)" d="M5.35522 11.7813C5.35522 9.48239 7.21884 7.61877 9.51772 7.61877C11.8166 7.61877 13.6802 9.48239 13.6802 11.7813L13.6802 23.5781L13.6802 23.5938C13.6802 23.597 13.6802 23.6003 13.6802 23.6035C13.6665 26.7278 11.1296 29.2563 8.0021 29.2563C4.86616 29.2563 2.32397 26.7141 2.32397 23.5781V14.9531C2.32397 14.4837 2.70453 14.1031 3.17397 14.1031C3.64342 14.1031 4.02397 14.4837 4.02397 14.9531V23.5781C4.02397 25.7752 5.80504 27.5563 8.0021 27.5563C10.1992 27.5563 11.9802 25.7752 11.9802 23.5781V11.7813C11.9802 10.4213 10.8777 9.31877 9.51772 9.31877C8.15772 9.31877 7.05522 10.4213 7.05522 11.7813V21.7969C7.05522 22.3026 7.46516 22.7125 7.97085 22.7125C8.47654 22.7125 8.88647 22.3026 8.88647 21.7969V15.0469C8.88647 14.5775 9.26703 14.1969 9.73647 14.1969C10.2059 14.1969 10.5865 14.5775 10.5865 15.0469V21.7969C10.5865 23.2415 9.41542 24.4125 7.97085 24.4125C6.53841 24.4125 5.37491 23.261 5.35547 21.8332L5.35522 21.8125V11.7813Z"/><g filter="url(#filter1_f_18_23209)"><path stroke="#E1DEEA" stroke-linecap="round" stroke-width=".25" d="M6.46051 21.8125V11.7812C6.46051 9.95181 7.94208 8.46875 9.7697 8.46875C11.5973 8.46875 13.0789 9.95181 13.0789 11.7812M13.0789 23.5937V15.9844"/></g><g filter="url(#filter2_f_18_23209)"><path stroke="#E1DEEA" stroke-linecap="round" stroke-width=".25" d="M6.46051 21.7969C6.46051 22.772 7.25022 23.5625 8.22437 23.5625C9.19852 23.5625 9.98823 22.772 9.98823 21.7969V15.0469"/></g><g filter="url(#filter3_f_18_23209)"><path stroke="#E1DEEA" stroke-linecap="round" stroke-width=".25" d="M13.0788 23.5781C13.0788 26.2446 10.9194 28.4062 8.25555 28.4062C5.59171 28.4062 3.43225 26.2446 3.43225 23.5781V14.9531"/></g><g filter="url(#filter4_f_18_23209)"><path stroke="#E1DEEA" stroke-linecap="round" stroke-width=".25" d="M15.6993 7.7334L25.7305 7.7334C27.56 7.7334 29.043 9.21497 29.043 11.0426C29.043 12.8702 27.56 14.3518 25.7305 14.3518L13.918 14.3518"/></g><g filter="url(#filter5_f_18_23209)"><path stroke="#E1DEEA" stroke-linecap="round" stroke-width=".25" d="M15.7149 7.7334C14.7398 7.7334 13.9493 8.5231 13.9493 9.49726C13.9493 10.4714 14.7398 11.2611 15.7149 11.2611L22.4649 11.2611"/></g><g filter="url(#filter6_iii_18_23209)"><path fill="#DDD7E9" d="M29.8803 10.7906C29.8803 8.49173 28.0167 6.62811 25.7178 6.62811L15.6865 6.62811L15.6658 6.62836C14.238 6.6478 13.0865 7.8113 13.0865 9.24374C13.0865 9.41353 13.1027 9.57954 13.1336 9.74032C13.3007 10.0367 13.4325 10.3556 13.5233 10.6914C13.992 11.3954 14.7929 11.8594 15.7022 11.8594H22.4522C22.9216 11.8594 23.3022 11.4788 23.3022 11.0094C23.3022 10.5399 22.9216 10.1594 22.4522 10.1594L15.7022 10.1594C15.1965 10.1594 14.7865 9.74942 14.7865 9.24374C14.7865 8.73805 15.1965 8.32811 15.7022 8.32811L25.7178 8.32811C27.0778 8.32811 28.1803 9.43061 28.1803 10.7906C28.1803 12.1506 27.0778 13.2531 25.7178 13.2531L13.9209 13.2531C11.7515 13.2531 9.98766 11.5166 9.94363 9.3577C9.80128 9.33211 9.65468 9.31874 9.50496 9.31874C9.04892 9.31874 8.62183 9.44272 8.25555 9.65879C8.45236 12.6074 10.9001 14.94 13.8956 14.9531L13.9053 14.9531L25.7178 14.9531C28.0167 14.9531 29.8803 13.0895 29.8803 10.7906Z"/><path fill="#DDD7E9" d="M8.44882 7.7539C8.78609 7.6657 9.14004 7.61874 9.50496 7.61874C9.7668 7.61874 10.023 7.64292 10.2714 7.68916C10.8841 6.28127 12.2875 5.29686 13.9209 5.29686L22.5459 5.29686C23.0154 5.29686 23.3959 4.91631 23.3959 4.44686C23.3959 3.97742 23.0154 3.59686 22.5459 3.59686H13.9209C11.3118 3.59686 9.11377 5.35658 8.44882 7.7539Z"/></g><path fill="url(#paint4_radial_18_23209)" d="M29.8803 10.7906C29.8803 8.49173 28.0167 6.62811 25.7178 6.62811L15.6865 6.62811L15.6658 6.62836C14.238 6.6478 13.0865 7.8113 13.0865 9.24374C13.0865 9.41353 13.1027 9.57954 13.1336 9.74032C13.3007 10.0367 13.4325 10.3556 13.5233 10.6914C13.992 11.3954 14.7929 11.8594 15.7022 11.8594H22.4522C22.9216 11.8594 23.3022 11.4788 23.3022 11.0094C23.3022 10.5399 22.9216 10.1594 22.4522 10.1594L15.7022 10.1594C15.1965 10.1594 14.7865 9.74942 14.7865 9.24374C14.7865 8.73805 15.1965 8.32811 15.7022 8.32811L25.7178 8.32811C27.0778 8.32811 28.1803 9.43061 28.1803 10.7906C28.1803 12.1506 27.0778 13.2531 25.7178 13.2531L13.9209 13.2531C11.7515 13.2531 9.98766 11.5166 9.94363 9.3577C9.80128 9.33211 9.65468 9.31874 9.50496 9.31874C9.04892 9.31874 8.62183 9.44272 8.25555 9.65879C8.45236 12.6074 10.9001 14.94 13.8956 14.9531L13.9053 14.9531L25.7178 14.9531C28.0167 14.9531 29.8803 13.0895 29.8803 10.7906Z"/><path fill="url(#paint5_linear_18_23209)" d="M29.8803 10.7906C29.8803 8.49173 28.0167 6.62811 25.7178 6.62811L15.6865 6.62811L15.6658 6.62836C14.238 6.6478 13.0865 7.8113 13.0865 9.24374C13.0865 9.41353 13.1027 9.57954 13.1336 9.74032C13.3007 10.0367 13.4325 10.3556 13.5233 10.6914C13.992 11.3954 14.7929 11.8594 15.7022 11.8594H22.4522C22.9216 11.8594 23.3022 11.4788 23.3022 11.0094C23.3022 10.5399 22.9216 10.1594 22.4522 10.1594L15.7022 10.1594C15.1965 10.1594 14.7865 9.74942 14.7865 9.24374C14.7865 8.73805 15.1965 8.32811 15.7022 8.32811L25.7178 8.32811C27.0778 8.32811 28.1803 9.43061 28.1803 10.7906C28.1803 12.1506 27.0778 13.2531 25.7178 13.2531L13.9209 13.2531C11.7515 13.2531 9.98766 11.5166 9.94363 9.3577C9.80128 9.33211 9.65468 9.31874 9.50496 9.31874C9.04892 9.31874 8.62183 9.44272 8.25555 9.65879C8.45236 12.6074 10.9001 14.94 13.8956 14.9531L13.9053 14.9531L25.7178 14.9531C28.0167 14.9531 29.8803 13.0895 29.8803 10.7906Z"/><path fill="url(#paint6_radial_18_23209)" d="M29.8803 10.7906C29.8803 8.49173 28.0167 6.62811 25.7178 6.62811L15.6865 6.62811L15.6658 6.62836C14.238 6.6478 13.0865 7.8113 13.0865 9.24374C13.0865 9.41353 13.1027 9.57954 13.1336 9.74032C13.3007 10.0367 13.4325 10.3556 13.5233 10.6914C13.992 11.3954 14.7929 11.8594 15.7022 11.8594H22.4522C22.9216 11.8594 23.3022 11.4788 23.3022 11.0094C23.3022 10.5399 22.9216 10.1594 22.4522 10.1594L15.7022 10.1594C15.1965 10.1594 14.7865 9.74942 14.7865 9.24374C14.7865 8.73805 15.1965 8.32811 15.7022 8.32811L25.7178 8.32811C27.0778 8.32811 28.1803 9.43061 28.1803 10.7906C28.1803 12.1506 27.0778 13.2531 25.7178 13.2531L13.9209 13.2531C11.7515 13.2531 9.98766 11.5166 9.94363 9.3577C9.80128 9.33211 9.65468 9.31874 9.50496 9.31874C9.04892 9.31874 8.62183 9.44272 8.25555 9.65879C8.45236 12.6074 10.9001 14.94 13.8956 14.9531L13.9053 14.9531L25.7178 14.9531C28.0167 14.9531 29.8803 13.0895 29.8803 10.7906Z"/><path fill="url(#paint7_radial_18_23209)" d="M29.8803 10.7906C29.8803 8.49173 28.0167 6.62811 25.7178 6.62811L15.6865 6.62811L15.6658 6.62836C14.238 6.6478 13.0865 7.8113 13.0865 9.24374C13.0865 9.41353 13.1027 9.57954 13.1336 9.74032C13.3007 10.0367 13.4325 10.3556 13.5233 10.6914C13.992 11.3954 14.7929 11.8594 15.7022 11.8594H22.4522C22.9216 11.8594 23.3022 11.4788 23.3022 11.0094C23.3022 10.5399 22.9216 10.1594 22.4522 10.1594L15.7022 10.1594C15.1965 10.1594 14.7865 9.74942 14.7865 9.24374C14.7865 8.73805 15.1965 8.32811 15.7022 8.32811L25.7178 8.32811C27.0778 8.32811 28.1803 9.43061 28.1803 10.7906C28.1803 12.1506 27.0778 13.2531 25.7178 13.2531L13.9209 13.2531C11.7515 13.2531 9.98766 11.5166 9.94363 9.3577C9.80128 9.33211 9.65468 9.31874 9.50496 9.31874C9.04892 9.31874 8.62183 9.44272 8.25555 9.65879C8.45236 12.6074 10.9001 14.94 13.8956 14.9531L13.9053 14.9531L25.7178 14.9531C28.0167 14.9531 29.8803 13.0895 29.8803 10.7906Z"/><path fill="url(#paint8_radial_18_23209)" d="M8.44882 7.7539C8.78609 7.6657 9.14004 7.61874 9.50496 7.61874C9.7668 7.61874 10.023 7.64292 10.2714 7.68916C10.8841 6.28127 12.2875 5.29686 13.9209 5.29686L22.5459 5.29686C23.0154 5.29686 23.3959 4.91631 23.3959 4.44686C23.3959 3.97742 23.0154 3.59686 22.5459 3.59686H13.9209C11.3118 3.59686 9.11377 5.35658 8.44882 7.7539Z"/><path fill="url(#paint9_linear_18_23209)" d="M8.44882 7.7539C8.78609 7.6657 9.14004 7.61874 9.50496 7.61874C9.7668 7.61874 10.023 7.64292 10.2714 7.68916C10.8841 6.28127 12.2875 5.29686 13.9209 5.29686L22.5459 5.29686C23.0154 5.29686 23.3959 4.91631 23.3959 4.44686C23.3959 3.97742 23.0154 3.59686 22.5459 3.59686H13.9209C11.3118 3.59686 9.11377 5.35658 8.44882 7.7539Z"/><path fill="url(#paint10_radial_18_23209)" d="M8.44882 7.7539C8.78609 7.6657 9.14004 7.61874 9.50496 7.61874C9.7668 7.61874 10.023 7.64292 10.2714 7.68916C10.8841 6.28127 12.2875 5.29686 13.9209 5.29686L22.5459 5.29686C23.0154 5.29686 23.3959 4.91631 23.3959 4.44686C23.3959 3.97742 23.0154 3.59686 22.5459 3.59686H13.9209C11.3118 3.59686 9.11377 5.35658 8.44882 7.7539Z"/><path fill="url(#paint11_radial_18_23209)" d="M8.44882 7.7539C8.78609 7.6657 9.14004 7.61874 9.50496 7.61874C9.7668 7.61874 10.023 7.64292 10.2714 7.68916C10.8841 6.28127 12.2875 5.29686 13.9209 5.29686L22.5459 5.29686C23.0154 5.29686 23.3959 4.91631 23.3959 4.44686C23.3959 3.97742 23.0154 3.59686 22.5459 3.59686H13.9209C11.3118 3.59686 9.11377 5.35658 8.44882 7.7539Z"/><g filter="url(#filter7_f_18_23209)"><path stroke="url(#paint12_linear_18_23209)" stroke-linecap="round" stroke-width=".25" d="M14.0954 14.0983C11.6343 14.0983 9.60569 12.2 9.32609 9.75342M22.674 4.25L14.0954 4.25C12.183 4.25 10.5317 5.39626 9.75928 7.05529"/></g><g filter="url(#filter8_f_18_23209)"><path stroke="url(#paint13_linear_18_23209)" stroke-linecap="round" stroke-width=".25" d="M21.3012 14.3518H25.8279C27.7794 14.3518 29.3614 12.7698 29.3614 10.8183C29.3614 8.86674 27.7794 7.28473 25.8279 7.28473H21.3012"/></g><defs><filter id="filter0_iii_18_23209" width="12.106" height="22.288" x="2.324" y="7.119" color-interpolation-filters="sRGB" filterUnits="userSpaceOnUse"><feFlood flood-opacity="0" result="BackgroundImageFix"/><feBlend in="SourceGraphic" in2="BackgroundImageFix" mode="normal" result="shape"/><feColorMatrix in="SourceAlpha" result="hardAlpha" type="matrix" values="0 0 0 0 0 0 0 0 0 0 0 0 0 0 0 0 0 0 127 0"/><feOffset dx=".75" dy="-.5"/><feGaussianBlur stdDeviation="1"/><feComposite in2="hardAlpha" k2="-1" k3="1" operator="arithmetic"/><feColorMatrix type="matrix" values="0 0 0 0 0.760784 0 0 0 0 0.717647 0 0 0 0 0.819608 0 0 0 1 0"/><feBlend in2="shape" mode="normal" result="effect1_innerShadow_18_23209"/><feColorMatrix in="SourceAlpha" result="hardAlpha" type="matrix" values="0 0 0 0 0 0 0 0 0 0 0 0 0 0 0 0 0 0 127 0"/><feOffset dx=".3" dy="-.15"/><feGaussianBlur stdDeviation=".5"/><feComposite in2="hardAlpha" k2="-1" k3="1" operator="arithmetic"/><feColorMatrix type="matrix" values="0 0 0 0 0.627451 0 0 0 0 0.6 0 0 0 0 0.678431 0 0 0 1 0"/><feBlend in2="effect1_innerShadow_18_23209" mode="normal" result="effect2_innerShadow_18_23209"/><feColorMatrix in="SourceAlpha" result="hardAlpha" type="matrix" values="0 0 0 0 0 0 0 0 0 0 0 0 0 0 0 0 0 0 127 0"/><feOffset dx=".15" dy=".15"/><feGaussianBlur stdDeviation=".15"/><feComposite in2="hardAlpha" k2="-1" k3="1" operator="arithmetic"/><feColorMatrix type="matrix" values="0 0 0 0 0.847059 0 0 0 0 0.843137 0 0 0 0 0.862745 0 0 0 1 0"/><feBlend in2="effect2_innerShadow_18_23209" mode="normal" result="effect3_innerShadow_18_23209"/></filter><filter id="filter1_f_18_23209" width="7.868" height="16.375" x="5.836" y="7.844" color-interpolation-filters="sRGB" filterUnits="userSpaceOnUse"><feFlood flood-opacity="0" result="BackgroundImageFix"/><feBlend in="SourceGraphic" in2="BackgroundImageFix" mode="normal" result="shape"/><feGaussianBlur result="effect1_foregroundBlur_18_23209" stdDeviation=".25"/></filter><filter id="filter2_f_18_23209" width="4.778" height="9.766" x="5.836" y="14.422" color-interpolation-filters="sRGB" filterUnits="userSpaceOnUse"><feFlood flood-opacity="0" result="BackgroundImageFix"/><feBlend in="SourceGraphic" in2="BackgroundImageFix" mode="normal" result="shape"/><feGaussianBlur result="effect1_foregroundBlur_18_23209" stdDeviation=".25"/></filter><filter id="filter3_f_18_23209" width="10.897" height="14.703" x="2.807" y="14.328" color-interpolation-filters="sRGB" filterUnits="userSpaceOnUse"><feFlood flood-opacity="0" result="BackgroundImageFix"/><feBlend in="SourceGraphic" in2="BackgroundImageFix" mode="normal" result="shape"/><feGaussianBlur result="effect1_foregroundBlur_18_23209" stdDeviation=".25"/></filter><filter id="filter4_f_18_23209" width="16.375" height="7.868" x="13.293" y="7.108" color-interpolation-filters="sRGB" filterUnits="userSpaceOnUse"><feFlood flood-opacity="0" result="BackgroundImageFix"/><feBlend in="SourceGraphic" in2="BackgroundImageFix" mode="normal" result="shape"/><feGaussianBlur result="effect1_foregroundBlur_18_23209" stdDeviation=".25"/></filter><filter id="filter5_f_18_23209" width="9.766" height="4.778" x="13.324" y="7.108" color-interpolation-filters="sRGB" filterUnits="userSpaceOnUse"><feFlood flood-opacity="0" result="BackgroundImageFix"/><feBlend in="SourceGraphic" in2="BackgroundImageFix" mode="normal" result="shape"/><feGaussianBlur result="effect1_foregroundBlur_18_23209" stdDeviation=".25"/></filter><filter id="filter6_iii_18_23209" width="22.375" height="12.006" x="8.256" y="3.097" color-interpolation-filters="sRGB" filterUnits="userSpaceOnUse"><feFlood flood-opacity="0" result="BackgroundImageFix"/><feBlend in="SourceGraphic" in2="BackgroundImageFix" mode="normal" result="shape"/><feColorMatrix in="SourceAlpha" result="hardAlpha" type="matrix" values="0 0 0 0 0 0 0 0 0 0 0 0 0 0 0 0 0 0 127 0"/><feOffset dx=".75" dy="-.5"/><feGaussianBlur stdDeviation="1"/><feComposite in2="hardAlpha" k2="-1" k3="1" operator="arithmetic"/><feColorMatrix type="matrix" values="0 0 0 0 0.760784 0 0 0 0 0.717647 0 0 0 0 0.819608 0 0 0 1 0"/><feBlend in2="shape" mode="normal" result="effect1_innerShadow_18_23209"/><feColorMatrix in="SourceAlpha" result="hardAlpha" type="matrix" values="0 0 0 0 0 0 0 0 0 0 0 0 0 0 0 0 0 0 127 0"/><feOffset dx=".3" dy="-.15"/><feGaussianBlur stdDeviation=".5"/><feComposite in2="hardAlpha" k2="-1" k3="1" operator="arithmetic"/><feColorMatrix type="matrix" values="0 0 0 0 0.627451 0 0 0 0 0.6 0 0 0 0 0.678431 0 0 0 1 0"/><feBlend in2="effect1_innerShadow_18_23209" mode="normal" result="effect2_innerShadow_18_23209"/><feColorMatrix in="SourceAlpha" result="hardAlpha" type="matrix" values="0 0 0 0 0 0 0 0 0 0 0 0 0 0 0 0 0 0 127 0"/><feOffset dx=".15" dy=".15"/><feGaussianBlur stdDeviation=".15"/><feComposite in2="hardAlpha" k2="-1" k3="1" operator="arithmetic"/><feColorMatrix type="matrix" values="0 0 0 0 0.847059 0 0 0 0 0.843137 0 0 0 0 0.862745 0 0 0 1 0"/><feBlend in2="effect2_innerShadow_18_23209" mode="normal" result="effect3_innerShadow_18_23209"/></filter><filter id="filter7_f_18_23209" width="14.598" height="11.098" x="8.701" y="3.625" color-interpolation-filters="sRGB" filterUnits="userSpaceOnUse"><feFlood flood-opacity="0" result="BackgroundImageFix"/><feBlend in="SourceGraphic" in2="BackgroundImageFix" mode="normal" result="shape"/><feGaussianBlur result="effect1_foregroundBlur_18_23209" stdDeviation=".25"/></filter><filter id="filter8_f_18_23209" width="9.31" height="8.317" x="20.676" y="6.66" color-interpolation-filters="sRGB" filterUnits="userSpaceOnUse"><feFlood flood-opacity="0" result="BackgroundImageFix"/><feBlend in="SourceGraphic" in2="BackgroundImageFix" mode="normal" result="shape"/><feGaussianBlur result="effect1_foregroundBlur_18_23209" stdDeviation=".25"/></filter><radialGradient id="paint0_radial_18_23209" cx="0" cy="0" r="1" gradientTransform="translate(8.00211 15.375) rotate(90) scale(14.375 10.2353)" gradientUnits="userSpaceOnUse"><stop offset=".878" stop-color="#8F7AA8" stop-opacity="0"/><stop offset="1" stop-color="#8F7AA8"/></radialGradient><radialGradient id="paint1_radial_18_23209" cx="0" cy="0" r="1" gradientTransform="translate(9.54895 10.625) rotate(-90) scale(2.34375 2.86458)" gradientUnits="userSpaceOnUse"><stop offset=".167" stop-color="#A18DBA"/><stop offset="1" stop-color="#A18DBA" stop-opacity="0"/></radialGradient><radialGradient id="paint2_radial_18_23209" cx="0" cy="0" r="1" gradientTransform="translate(12.0177 16.625) rotate(90) scale(8.375 1.14204)" gradientUnits="userSpaceOnUse"><stop stop-color="#A7A1B3"/><stop offset="1" stop-color="#A7A1B3" stop-opacity="0"/></radialGradient><radialGradient id="paint3_radial_18_23209" cx="0" cy="0" r="1" gradientTransform="translate(12.6271 14.625) rotate(21.9339) scale(2.5098 1.14921)" gradientUnits="userSpaceOnUse"><stop offset=".136" stop-color="#9787AC"/><stop offset="1" stop-color="#ADA6B9" stop-opacity="0"/></radialGradient><radialGradient id="paint4_radial_18_23209" cx="0" cy="0" r="1" gradientTransform="translate(9.17395 9.27499) rotate(74.6786) scale(0.946133 5.34308)" gradientUnits="userSpaceOnUse"><stop stop-color="#8C7CA1"/><stop offset="1" stop-color="#B1AABD" stop-opacity="0"/></radialGradient><linearGradient id="paint5_linear_18_23209" x1="21.799" x2="21.799" y1="15.313" y2="14.094" gradientUnits="userSpaceOnUse"><stop stop-color="#9783B0"/><stop offset="1" stop-color="#AEA2BE" stop-opacity="0"/></linearGradient><radialGradient id="paint6_radial_18_23209" cx="0" cy="0" r="1" gradientTransform="translate(19.0679 12.1562) rotate(-90) scale(1.0625 9.57477)" gradientUnits="userSpaceOnUse"><stop offset=".176" stop-color="#9D8BB4"/><stop offset="1" stop-color="#C3B9D2" stop-opacity="0"/></radialGradient><radialGradient id="paint7_radial_18_23209" cx="0" cy="0" r="1" gradientTransform="translate(19.0679 5.6875) rotate(-90) scale(1.1875 9.63727)" gradientUnits="userSpaceOnUse"><stop offset=".176" stop-color="#9D8BB4"/><stop offset="1" stop-color="#C3B9D2" stop-opacity="0"/></radialGradient><radialGradient id="paint8_radial_18_23209" cx="0" cy="0" r="1" gradientTransform="translate(9.17395 9.27499) rotate(74.6786) scale(0.946133 5.34308)" gradientUnits="userSpaceOnUse"><stop stop-color="#8C7CA1"/><stop offset="1" stop-color="#B1AABD" stop-opacity="0"/></radialGradient><linearGradient id="paint9_linear_18_23209" x1="21.799" x2="21.799" y1="15.313" y2="14.094" gradientUnits="userSpaceOnUse"><stop stop-color="#9783B0"/><stop offset="1" stop-color="#AEA2BE" stop-opacity="0"/></linearGradient><radialGradient id="paint10_radial_18_23209" cx="0" cy="0" r="1" gradientTransform="translate(19.0679 12.1562) rotate(-90) scale(1.0625 9.57477)" gradientUnits="userSpaceOnUse"><stop offset=".176" stop-color="#9D8BB4"/><stop offset="1" stop-color="#C3B9D2" stop-opacity="0"/></radialGradient><radialGradient id="paint11_radial_18_23209" cx="0" cy="0" r="1" gradientTransform="translate(19.0679 5.6875) rotate(-90) scale(1.1875 9.63727)" gradientUnits="userSpaceOnUse"><stop offset=".176" stop-color="#9D8BB4"/><stop offset="1" stop-color="#C3B9D2" stop-opacity="0"/></radialGradient><linearGradient id="paint12_linear_18_23209" x1="22.674" x2="7.83" y1="9.174" y2="13.125" gradientUnits="userSpaceOnUse"><stop stop-color="#F3F1FA"/><stop offset="1" stop-color="#F3F1FA" stop-opacity="0"/></linearGradient><linearGradient id="paint13_linear_18_23209" x1="29.58" x2="25.149" y1="8.813" y2="11.421" gradientUnits="userSpaceOnUse"><stop stop-color="#F3F1FA"/><stop offset="1" stop-color="#F3F1FA" stop-opacity="0"/></linearGradient></defs></svg>