<svg height="100%" stroke-miterlimit="10" style="fill-rule:nonzero;clip-rule:evenodd;stroke-linecap:round;stroke-linejoin:round;" version="1.1" viewBox="-1.97605 -1.89767 96.7749 104.77" width="100%" xml:space="preserve" xmlns="http://www.w3.org/2000/svg" xmlns:vectornator="http://vectornator.io" xmlns:xlink="http://www.w3.org/1999/xlink">
<defs>
<linearGradient gradientTransform="matrix(1.10701 0 0 1.11037 -20.0988 -20.0533)" gradientUnits="userSpaceOnUse" id="LinearGradient" x1="18.156" x2="101.268" y1="63.09" y2="63.09">
<stop offset="0.167105" stop-color="#ffffff"/>
<stop offset="0.500452" stop-color="#ffffff"/>
<stop offset="0.860017" stop-color="#bebebe"/>
<stop offset="1" stop-color="#a9a9a9"/>
</linearGradient>
<filter color-interpolation-filters="sRGB" filterUnits="userSpaceOnUse" height="104.77" id="Filter" width="96.7749" x="-1.97605" y="-1.89767">
<feDropShadow dx="0.408785" dy="0.487171" flood-color="#000000" flood-opacity="0.6" in="SourceGraphic" result="Shadow" stdDeviation="0.953936"/>
</filter>
</defs>
<g id="Layer" layerName="Layer">
<path d="M0.157397 1.42109e-14L0.157397 77.723C19.7782 49.3745 52.7329 29.4195 86.5081 24.3549L44.1264 1.42109e-14L0.157397 1.42109e-14ZM64.546 33.9467C38.2419 43.3395 14.3229 61.6749 0.000209862 85.149L0.000209862 92.2222C23.7302 68.754 58.132 55.0942 91.1587 55.3321L64.546 33.9465L64.546 33.9467ZM69.9101 61.0343C43.6316 65.59 18.0796 78.6321 0 97.8323L0 99.9998L12.3642 99.9998C36.2675 86.1952 65.0745 79.9339 92.0052 82.9884L69.9101 61.0341L69.9101 61.0343ZM69.4373 86.4964C52.6227 87.735 35.7687 92.3814 20.6213 100L76.5327 100L69.4373 86.4964Z" fill="url(#LinearGradient)" fill-rule="nonzero" filter="url(#Filter)" stroke="none" layerName="path 1" shadowAngle="0.872665" shadowColor="#000000" shadowOffset="0.635957" shadowOpacity="0.6" shadowRadius="1.90787"/>
</g>
</svg>
