<svg xmlns="http://www.w3.org/2000/svg" xmlns:vectornator="http://vectornator.io" xmlns:xlink="http://www.w3.org/1999/xlink" style="fill-rule:nonzero;clip-rule:evenodd;stroke-linecap:round;stroke-linejoin:round" width="100%" height="100%" stroke-miterlimit="10" version="1.1" viewBox="-1.48 -1.063 101.19 103.762" xml:space="preserve"><defs><filter id="Filter" width="101.19" height="103.753" x="-1.48" y="-1.054" color-interpolation-filters="sRGB" filterUnits="userSpaceOnUse"><feDropShadow dx="-.885" dy=".666" flood-color="#000" flood-opacity=".25" in="SourceGraphic" result="Shadow" stdDeviation="1.476"/></filter><filter id="Filter_2" width="76.488" height="88.829" x="23.219" y="13.566" color-interpolation-filters="sRGB" filterUnits="userSpaceOnUse"><feDropShadow dx="-.885" dy=".666" flood-color="#000" flood-opacity=".6" in="SourceGraphic" result="Shadow" stdDeviation="1.476"/></filter><filter id="Filter_3" width="51.806" height="32.291" x="-1.454" y="70.393" color-interpolation-filters="sRGB" filterUnits="userSpaceOnUse"><feDropShadow dx="-.885" dy=".666" flood-color="#000" flood-opacity=".2" in="SourceGraphic" result="Shadow" stdDeviation="1.476"/></filter><filter id="Filter_4" width="51.828" height="91.114" x="-1.477" y="-1.063" color-interpolation-filters="sRGB" filterUnits="userSpaceOnUse"><feDropShadow dx="-.885" dy=".666" flood-color="#000" flood-opacity=".25" in="SourceGraphic" result="Shadow" stdDeviation="1.476"/></filter></defs><g id="Layer" vectornator:layerName="Layer"><g opacity="1" vectornator:layerName="Group 1"><path fill="#7986cb" fill-rule="nonzero" stroke="none" d="M25.3125 1.96875C13.044 1.96875 3.09375 7.49669 3.09375 14.3125L3.09375 16.5938L3.09375 83.4062L3.09375 85.6875C3.09375 78.8717 13.044 73.375 25.3125 73.375C26.1536 73.375 26.9643 73.4496 27.7812 73.5L27.7812 16.5938L47.5625 16.5938L47.5625 14.3125C47.5625 7.49668 37.581 1.96875 25.3125 1.96875ZM47.5625 16.5938L47.5625 83.4062L47.5625 85.6875C47.5625 79.339 38.8799 74.1854 27.7812 73.5L27.7812 73.5312C38.8854 74.2212 47.5625 79.4644 47.5625 85.875C47.5625 91.8558 40.0251 96.8279 30 98.0312L96.9062 98.0312L96.9062 16.5938L47.5625 16.5938ZM27.7812 16.5938L27.7812 73.5C38.8799 74.1854 47.5625 79.339 47.5625 85.6875L47.5625 83.4062L47.5625 16.5938L27.7812 16.5938ZM27.7812 73.5312L27.7812 98.0312L30 98.0312C40.0251 96.8279 47.5625 91.8558 47.5625 85.875C47.5625 79.4644 38.8854 74.2212 27.7812 73.5312ZM25.3438 73.4062C13.0753 73.4062 3.125 78.9955 3.125 85.875C3.125 92.7545 13.0753 98.3438 25.3438 98.3438C26.9464 98.3438 28.4936 98.2121 30 98.0312L27.7812 98.0312L27.7812 73.5312C26.969 73.4808 26.18 73.4062 25.3438 73.4062Z" filter="url(#Filter)" vectornator:layerName="Curve 1" vectornator:shadowAngle="2.496" vectornator:shadowColor="#000000" vectornator:shadowOffset="1.108" vectornator:shadowOpacity=".25" vectornator:shadowRadius="2.951"/><path fill="#9fa8da" fill-rule="nonzero" stroke="none" d="M96.903 98.0404L27.7927 98.0404L27.7927 16.589L96.903 16.589L96.903 98.0404Z" filter="url(#Filter_2)" vectornator:layerName="path" vectornator:shadowAngle="2.496" vectornator:shadowColor="#000000" vectornator:shadowOffset="1.108" vectornator:shadowOpacity=".6" vectornator:shadowRadius="2.951"/><path fill="#7986cb" fill-rule="nonzero" stroke="none" d="M57.4114 98.0404L27.7927 98.0404L27.7927 16.589L57.4114 16.589L57.4114 98.0404Z" opacity="1" vectornator:layerName="path 1"/><path fill="#7986cb" fill-rule="nonzero" stroke="none" d="M25.3335 73.4162C13.065 73.4162 3.11944 78.9932 3.11944 85.8727C3.11944 92.7522 13.065 98.3292 25.3335 98.3292C37.6019 98.3292 47.5475 92.7522 47.5475 85.8727C47.5475 78.9932 37.6019 73.4162 25.3335 73.4162Z" filter="url(#Filter_3)" vectornator:layerName="path 4" vectornator:shadowAngle="2.496" vectornator:shadowColor="#000000" vectornator:shadowOffset="1.108" vectornator:shadowOpacity=".2" vectornator:shadowRadius="2.951"/><path fill="#c5cae9" fill-rule="nonzero" stroke="none" d="M25.3222 1.95962C13.0538 1.95962 3.09701 7.50141 3.09701 14.3172L3.09701 16.592L3.09701 83.4214L3.09701 85.6962C3.09701 78.8804 13.0538 73.3693 25.3222 73.3693C37.5907 73.3693 47.5475 78.8804 47.5475 85.6962L47.5475 83.4214L47.5475 16.592L47.5475 14.3172C47.5475 7.50141 37.5907 1.95962 25.3222 1.95962Z" filter="url(#Filter_4)" vectornator:layerName="Curve 1" vectornator:shadowAngle="2.496" vectornator:shadowColor="#000000" vectornator:shadowOffset="1.108" vectornator:shadowOpacity=".25" vectornator:shadowRadius="2.951"/></g></g></svg>