<svg width="100%" height="100%" viewBox="0 0 22 22" xmlns="http://www.w3.org/2000/svg" xml:space="preserve"><defs><linearGradient id="h" x1="0" x2="1" y1="0" y2="0" gradientTransform="rotate(124.8 38.936 32.986)scale(93.3)" gradientUnits="userSpaceOnUse" spreadMethod="pad"><stop offset="0" stop-color="#900"/><stop offset=".2" stop-color="#a80000"/><stop offset=".4" stop-color="#c70017"/><stop offset=".7" stop-color="#fe1f1f"/><stop offset="1" stop-color="#fc3d3d"/></linearGradient><linearGradient id="d" x1="7.834" x2="11.085" y1="9.617" y2="9.642" gradientTransform="matrix(.95 0 0 .95 1.014 1)" gradientUnits="userSpaceOnUse"><stop offset="0" stop-color="#ccc"/><stop offset=".262" stop-color="#dedede"/><stop offset=".676" stop-color="#faf8f8"/><stop offset="1" stop-color="#fff"/></linearGradient><linearGradient id="c" x1="7.834" x2="11.085" y1="9.617" y2="9.642" gradientTransform="matrix(.95 0 0 .95 1.014 1)" gradientUnits="userSpaceOnUse"><stop offset="0" stop-color="#ccc"/><stop offset=".262" stop-color="#dedede"/><stop offset=".676" stop-color="#faf8f8"/><stop offset="1" stop-color="#fff"/></linearGradient><linearGradient id="m" x1="11.258" x2="11.908" y1="17.484" y2=".837" gradientTransform="matrix(.95 0 0 .95 .492 .5)" gradientUnits="userSpaceOnUse"><stop offset="0" stop-color="#fefefe"/><stop offset=".324" stop-color="#faf8f8"/><stop offset=".738" stop-color="#dedede"/><stop offset="1" stop-color="#ccc"/></linearGradient><linearGradient id="n" x1="17.721" x2="7.62" y1="18.568" y2=".923" gradientTransform="matrix(.95 0 0 .95 .492 .5)" gradientUnits="userSpaceOnUse"><stop offset="0" stop-color="#fefefe"/><stop offset=".27" stop-color="#faf8f8"/><stop offset=".855" stop-color="#dedede"/><stop offset="1" stop-color="#ccc"/></linearGradient><linearGradient id="e" x1="7.834" x2="11.085" y1="9.617" y2="9.642" gradientTransform="matrix(.95 0 0 .95 1.014 1)" gradientUnits="userSpaceOnUse"><stop offset="0" stop-color="#fefefe"/><stop offset=".324" stop-color="#faf4f2"/><stop offset=".738" stop-color="#dedede"/><stop offset="1" stop-color="#ccc"/></linearGradient><linearGradient id="p" x1="5.249" x2="9.459" y1="9.341" y2="9.421" gradientTransform="translate(1.458 1.375)scale(.76564)" gradientUnits="userSpaceOnUse" href="#c"/><linearGradient id="q" x1="13.67" x2="17.88" y1="9.617" y2="9.642" gradientTransform="translate(1.458 1.375)scale(.76564)" gradientUnits="userSpaceOnUse" href="#d"/><linearGradient id="o" x1="7.834" x2="11.085" y1="9.617" y2="9.642" gradientTransform="matrix(.95 0 0 .95 .491 .6)" gradientUnits="userSpaceOnUse" href="#e"/><linearGradient id="f" x1="0" x2="1" y1="0" y2="0" gradientTransform="rotate(124.8 39.02 34.143)scale(93.3)" gradientUnits="userSpaceOnUse"><stop offset="0" stop-color="#6d0000"/><stop offset=".275" stop-color="#900"/><stop offset=".531" stop-color="#a80000"/><stop offset=".785" stop-color="#c70017"/><stop offset="1" stop-color="#fe1f1f"/></linearGradient><linearGradient id="j" x1="20.999" x2="3.609" y1="-2.647" y2="25.841" gradientTransform="translate(-1.658 -1.658)scale(1.10526)" gradientUnits="userSpaceOnUse" href="#f"/><linearGradient id="k" x1="-.067" x2=".243" y1="-.016" y2="-.043" gradientTransform="matrix(117.00322 272.75846 -364.42237 87.57316 31.34 28.698)" gradientUnits="userSpaceOnUse" href="#f"/><linearGradient id="i" x1="20.401" x2="-2.368" y1="-4.625" y2="30.636" gradientUnits="userSpaceOnUse" href="#h"/><filter id="l" width="1.254" height="1.34" x="-.127" y="-.17" color-interpolation-filters="sRGB"><feGaussianBlur result="fbSourceGraphic" stdDeviation="5"/><feGaussianBlur in="SourceGraphic" result="result1" stdDeviation=".01"/><feComposite in="fbSourceGraphic" in2="result1" k2=".5" k3=".5" operator="arithmetic" result="result2"/><feBlend in2="fbSourceGraphic" result="result3"/></filter></defs><g stroke-width="4.328" transform="matrix(.19987 0 0 .26704 1.02 -2.352)"><circle cx="10.5" cy="10.5" r="10.5" fill="url(#i)" fill-rule="evenodd" paint-order="stroke fill markers" transform="matrix(4.5267 0 0 3.3881 2.403 14.425)"/><circle cx="10.5" cy="10.5" r="10.5" fill="url(#j)" fill-rule="evenodd" paint-order="stroke fill markers" style="mix-blend-mode:luminosity" transform="matrix(4.5267 0 0 3.3881 2.403 14.425)"/><path fill="url(#k)" d="M38.856 15.49A47.53 35.575 0 0 0 3.164 43.998a153 153 0 0 0-.575 7.928 47.53 35.575 0 0 0 1.07 5.777H33.4a9.315 6.96 0 1 0 0-13.917h-1.698a7.79 5.821 0 1 1 0-11.514H52.03c6.775 0 12.192-4.182 12.192-9.244 0-3.5-2.696-6.594-6.525-8.12a47.53 35.575 0 0 0-3.925-.357c-5.293.269-10.295.592-14.915.94m0 0A47.53 35.575 0 0 0 3.164 43.998a153 153 0 0 0-.575 7.928 47.53 35.575 0 0 0 1.07 5.777H33.4a9.315 6.96 0 1 0 0-13.917h-1.698a7.79 5.821 0 1 1 0-11.514H52.03c6.775 0 12.192-4.182 12.192-9.244 0-3.5-2.696-6.594-6.525-8.12a47.53 35.575 0 0 0-3.925-.357c-5.293.269-10.295.592-14.915.94m14.738 69.886A47.53 35.575 0 0 0 96.73 55.923c.243-2.48.464-5.142.655-7.968a47.53 35.575 0 0 0-.124-1.217H64.858a6.666 6.666 0 1 0 0 13.188h2.608a6.667 6.667 0 1 1 0 13.334H56.883a6.666 6.666 0 0 0-3.289 12.116m0 0A47.53 35.575 0 0 0 96.73 55.923c.243-2.48.464-5.142.655-7.968a47.53 35.575 0 0 0-.124-1.217H64.858a6.666 6.666 0 1 0 0 13.188h2.608a6.667 6.667 0 1 1 0 13.334H56.883a6.666 6.666 0 0 0-3.289 12.116" filter="url(#l)" style="mix-blend-mode:luminosity"/></g><g fill="none" stroke-linecap="round" stroke-width="2"><path stroke="url(#m)" stroke-dasharray="2 4" stroke-dashoffset="6" d="M10.5 1a9.5 9.5 0 0 1 0 19" transform="translate(.522 .5)"><animate attributeName="stroke-dashoffset" dur="0.6s" repeatCount="indefinite" values="6;0"/></path><path stroke="url(#n)" stroke-dasharray="30" stroke-dashoffset="30" d="M10.5 20a9.5 9.5 0 0 1 0-19" transform="translate(.522 .5)"><animate fill="freeze" attributeName="stroke-dashoffset" begin="0.1s" dur="0.3s" values="30;0"/></path><g stroke="url(#o)" stroke-dasharray="32" stroke-dashoffset="32" stroke-linejoin="round" stroke-width="1.612" transform="translate(.187 .259)"><path stroke="url(#p)" d="M6.806 5.806h1.612v9.671H6.806Z"><animate fill="freeze" attributeName="stroke-dashoffset" begin="0.5s" dur="0.4s" values="32;0"/></path><path stroke="url(#q)" d="M13.253 5.806h1.612v9.671h-1.612z"><animate fill="freeze" attributeName="stroke-dashoffset" begin="0.5s" dur="0.4s" values="32;0"/></path></g></g></svg>