<svg width="100%" height="100%" viewBox="0 0 22 22" xmlns="http://www.w3.org/2000/svg" xml:space="preserve"><defs><linearGradient id="f" x1="0" x2="1" y1="0" y2="0" gradientTransform="rotate(72.2 .657 6.033)scale(76.5)" gradientUnits="userSpaceOnUse" spreadMethod="pad"><stop offset="0" stop-color="#900"/><stop offset=".4" stop-color="#c70017"/><stop offset="1" stop-color="#da0303"/></linearGradient><linearGradient id="d" x1="7.834" x2="11.085" y1="9.617" y2="9.642" gradientTransform="matrix(.95 0 0 .95 1.014 1)" gradientUnits="userSpaceOnUse"><stop offset="0" stop-color="#ccc"/><stop offset=".262" stop-color="#dedede"/><stop offset=".676" stop-color="#faf8f8"/><stop offset="1" stop-color="#fff"/></linearGradient><linearGradient id="b" x1="7.834" x2="11.085" y1="9.617" y2="9.642" gradientTransform="matrix(.95 0 0 .95 1.014 1)" gradientUnits="userSpaceOnUse"><stop offset="0" stop-color="#ccc"/><stop offset=".262" stop-color="#dedede"/><stop offset=".676" stop-color="#faf8f8"/><stop offset="1" stop-color="#fff"/></linearGradient><linearGradient id="a" x1="11.587" x2="11.587" y1="21.579" y2="-.526" gradientTransform="matrix(.95 0 0 .95 .492 .5)" gradientUnits="userSpaceOnUse"><stop offset="0" stop-color="#fff"/><stop offset=".324" stop-color="#ede5e5"/><stop offset=".738" stop-color="#d2d2d2"/><stop offset="1" stop-color="#c2c2c2"/></linearGradient><linearGradient id="i" x1="13.345" x2="9.69" y1="20.123" y2=".454" gradientTransform="matrix(.95 0 0 .95 .492 .5)" gradientUnits="userSpaceOnUse" href="#a"><stop offset="0" stop-color="#fff"/><stop offset=".27" stop-color="#ede3e3"/><stop offset=".855" stop-color="#d1d1d1"/><stop offset="1" stop-color="#c2c2c2"/></linearGradient><linearGradient id="e" x1="7.834" x2="11.085" y1="9.617" y2="9.642" gradientTransform="matrix(.95 0 0 .95 1.014 1)" gradientUnits="userSpaceOnUse"><stop offset="0" stop-color="#fefefe"/><stop offset=".324" stop-color="#faf4f2"/><stop offset=".738" stop-color="#dedede"/><stop offset="1" stop-color="#ccc"/></linearGradient><linearGradient id="k" x1="5.249" x2="9.459" y1="9.341" y2="9.421" gradientTransform="translate(1.458 1.375)scale(.76564)" gradientUnits="userSpaceOnUse" href="#b"/><linearGradient id="p" x1="13.67" x2="17.88" y1="9.617" y2="9.642" gradientTransform="translate(1.458 1.375)scale(.76564)" gradientUnits="userSpaceOnUse" href="#d"/><linearGradient id="j" x1="7.834" x2="11.085" y1="9.617" y2="9.642" gradientTransform="matrix(.95 0 0 .95 .491 .6)" gradientUnits="userSpaceOnUse" href="#e"/><linearGradient id="g" x1="45.039" x2="71.165" y1="10.68" y2="86.448" gradientUnits="userSpaceOnUse" href="#f"/><linearGradient id="h" x1="13.148" x2="9.69" y1="20.179" y2=".454" gradientTransform="matrix(.95 0 0 .95 .492 .5)" gradientUnits="userSpaceOnUse" href="#a"/></defs><path fill="url(#g)" fill-rule="evenodd" stroke-width="4.328" d="M97.963 50c0 19.854-21.504 35.95-48.03 35.95C23.405 85.95 1.901 69.854 1.901 50c0-5.778 1.82-11.237 5.056-16.074 3.295-4.924 8.056-9.204 13.855-12.518 4.671-2.669 10.016-4.712 15.81-5.96a62.5 62.5 0 0 1 9.403-1.28 65 65 0 0 1 3.906-.118c26.527 0 48.031 16.096 48.031 35.95" paint-order="stroke fill markers" transform="matrix(.19987 0 0 .26704 1.02 -2.352)"/><g fill="none" stroke-linecap="round" stroke-width="2"><path stroke="url(#h)" stroke-dasharray="2 4" stroke-dashoffset="6" d="M10.5 1a9.5 9.5 0 0 1 0 19" transform="translate(.522 .5)"><animate attributeName="stroke-dashoffset" dur="0.6s" repeatCount="indefinite" values="6;0"/></path><path stroke="url(#i)" stroke-dasharray="30" stroke-dashoffset="30" d="M10.5 20a9.5 9.5 0 0 1 0-19" transform="translate(.522 .5)"><animate fill="freeze" attributeName="stroke-dashoffset" begin="0.1s" dur="0.3s" values="30;0"/></path><g stroke="url(#j)" stroke-dasharray="32" stroke-dashoffset="32" stroke-linejoin="round" stroke-width="1.612" transform="translate(.187 .259)"><path stroke="url(#k)" d="M6.806 5.806h1.612v9.671H6.806Z"><animate fill="freeze" attributeName="stroke-dashoffset" begin="0.5s" dur="0.4s" values="32;0"/></path><path stroke="url(#p)" d="M13.253 5.806h1.612v9.671h-1.612z"><animate fill="freeze" attributeName="stroke-dashoffset" begin="0.5s" dur="0.4s" values="32;0"/></path></g></g></svg>