<svg width="100%" height="100%" viewBox="0 0 690 690" stroke-miterlimit="10" style="fill-rule:nonzero;clip-rule:evenodd;stroke-linecap:round;stroke-linejoin:round;" version="1.1" xml:space="preserve" xmlns="http://www.w3.org/2000/svg" xmlns:xlink="http://www.w3.org/1999/xlink"><defs><linearGradient id="LG" gradientTransform="matrix(456.269 -287.627 -371.07 -480.602 -5.25742 334.629)" gradientUnits="userSpaceOnUse" x1="0" x2="1" y1="0" y2="0"><stop offset="0" stop-color="#7b7b7b" stop-opacity="0.0486722"/><stop offset="1" stop-color="#fff"/></linearGradient><linearGradient id="LG2" gradientTransform="matrix(-9.61295 -417.641 -438.421 9.20771 492.289 812.05)" gradientUnits="userSpaceOnUse" x1="0" x2="1" y1="0" y2="0"><stop offset="0" stop-color="#7b7b7b" stop-opacity="0.0486722"/><stop offset="1" stop-color="#fff"/></linearGradient></defs><g id="Layer"><g opacity="1"><g opacity="1"><path fill="url(#LG)" fill-rule="nonzero" opacity="1" stroke="none" d="M343.088 334.643C373.394 334.99 401.52 327.839 427.465 313.19C453.411 298.541 474.389 278.534 490.401 253.169C506.413 227.803 514.602 199.155 514.967 167.223C515.327 135.803 507.789 107.549 492.355 82.463C476.92 57.3765 456.398 37.5332 430.787 22.9329C405.176 8.33268 377.218 0.859155 346.912 0.512346C316.606 0.165538 288.482 7.12504 262.541 21.3908C236.6 35.6566 215.627 55.2167 199.621 80.0711C183.615 104.926 175.433 132.935 175.077 164.1C174.714 195.776 182.247 224.413 197.676 250.01C213.105 275.608 233.621 296.026 259.224 311.265C284.827 326.504 312.782 334.296 343.088 334.643Z"/><path fill="url(#LG2)" fill-rule="nonzero" opacity="1" stroke="none" d="M104.157 689.5L585.46 689.5C615.86 689.5 637.128 685.221 649.263 676.663C661.398 668.105 667.465 655.395 667.465 638.534C667.465 614.009 659.993 588.079 645.048 560.744C630.103 533.409 608.644 507.798 580.67 483.912C552.696 460.025 518.846 440.61 479.121 425.665C439.396 410.72 394.625 403.248 344.808 403.248C295.248 403.248 250.604 410.72 210.879 425.665C171.154 440.61 137.24 460.025 109.139 483.912C81.0372 507.798 59.5778 533.409 44.7606 560.744C29.9435 588.079 22.5349 614.009 22.5349 638.534C22.5349 655.395 28.6022 668.105 40.737 676.663C52.8718 685.221 74.0118 689.5 104.157 689.5Z"/></g></g></g></svg>