<svg xmlns="http://www.w3.org/2000/svg" xmlns:xlink="http://www.w3.org/1999/xlink" width="100%" height="100%" viewBox="0 0 100 100" xml:space="preserve"><defs><filter id="Filter_zxcv" width="99.555" height="52.28" x=".222" y="57.252" color-interpolation-filters="sRGB" filterUnits="userSpaceOnUse"><feGaussianBlur in="SourceGraphic" result="Blur" stdDeviation="3.813"/></filter><linearGradient id="LinearGradient_zxcv" x1="20.293" x2="28.782" y1="66.437" y2="70.817" gradientTransform="matrix(1 0 0 1 0 0)" gradientUnits="userSpaceOnUse"><stop offset="0" stop-color="#b0bec5"/><stop offset="1" stop-color="#fff"/></linearGradient><filter id="Filter_zxcv_2" width="34.241" height="50.877" x="6.005" y="47.444" color-interpolation-filters="sRGB" filterUnits="userSpaceOnUse"><feDropShadow dx="0" dy="0" flood-color="#000" flood-opacity=".4" in="SourceGraphic" result="Shadow" stdDeviation="1.5"/></filter><linearGradient id="LinearGradient_zxcv_2" x1="43.768" x2="64.15" y1="15.583" y2="27.289" gradientTransform="matrix(1 0 0 1 0 0)" gradientUnits="userSpaceOnUse"><stop offset="0" stop-color="#d83300"/><stop offset="1" stop-color="#922900"/></linearGradient><filter id="Filter_zxcv_3" width="42.249" height="49.779" x="24.229" y="2.33" color-interpolation-filters="sRGB" filterUnits="userSpaceOnUse"><feDropShadow dx="0" dy="0" flood-color="#000" flood-opacity=".4" in="SourceGraphic" result="Shadow" stdDeviation="1.5"/></filter><linearGradient id="LinearGradient_zxcv_3" x1="67.821" x2="12.092" y1="31.988" y2="23.107" gradientTransform="matrix(1 0 0 1 0 0)" gradientUnits="userSpaceOnUse"><stop offset="0" stop-color="#ff3d00"/><stop offset="1" stop-color="#ff5d02"/></linearGradient><filter id="Filter_zxcv_4" width="64.519" height="74.106" x="8.667" y="-3.75" color-interpolation-filters="sRGB" filterUnits="userSpaceOnUse"><feDropShadow dx="0" dy="0" flood-color="#000" flood-opacity=".4" in="SourceGraphic" result="Shadow" stdDeviation="1.5"/></filter></defs><g opacity="1"><g opacity="1"><path fill="#161616" d="M78.2014 66.7852L74.9895 67.5133C73.2243 67.9009 72.3377 69.7169 72.953 71.5575L73.0816 71.9798L51.3221 74.0345L51.699 75.0763C50.0581 70.6414 50.1643 67.1025 44.0813 66.9344L37.0601 68.1514L42.8012 80.9315L13.4186 88.2493L9.75521 92.5997L15.6588 94.9093L45.6847 88.3869L50.217 100L54.1391 99.3728C58.4419 98.4235 60.6839 94.1089 59.3754 89.6299L59.6297 90.3994L82.5498 83.1737L82.7173 83.6368C83.3325 85.4774 85.3043 86.6491 87.0687 86.2591L90.2448 85.5652L78.2014 66.7852Z" filter="url(#Filter_zxcv)" opacity=".75"/><path fill="url(#LinearGradient_zxcv)" d="M9.75521 86.5757L10.5406 94.5709L17.6177 90.7744L36.4966 55.3886L28.6355 51.1941L9.75521 86.5757Z" filter="url(#Filter_zxcv_2)"/><path fill="url(#LinearGradient_zxcv_2)" d="M27.9786 37.8714L47.6343 48.3591L62.7275 13.496L48.8286 6.08003L27.9786 37.8714Z" filter="url(#Filter_zxcv_3)"/><path fill="url(#LinearGradient_zxcv_3)" d="M69.4363 12.5849L67.337 16.5162C66.1807 18.6865 63.4801 19.5079 61.3091 18.3495L45.5868 9.96055C43.4158 8.80218 42.5944 6.10159 43.7534 3.93272L45.85-1.06581e-14L69.4363 12.5849ZM12.4168 47.1454L14.5134 43.2127C17.4107 37.7859 24.1569 35.7341 29.5851 38.6286L46.4055 47.6034C51.8322 50.5008 53.8841 57.2469 50.9895 62.6752L48.8901 66.6064L12.4168 47.1454Z" filter="url(#Filter_zxcv_4)"/></g></g></svg>