<svg width="100%" height="100%" viewBox="0 0 100 100" xmlns="http://www.w3.org/2000/svg" xml:space="preserve" stroke-miterlimit="10" style="fill-rule:nonzero;clip-rule:evenodd;stroke-linecap:round;stroke-linejoin:round"><defs><radialGradient id="a" cx="0" cy="0" r="1" gradientTransform="matrix(-28.1159 40.9931 -30.5366 -20.9441 71.904 47.85)" gradientUnits="userSpaceOnUse"><stop offset="0" stop-color="#ffe143"/><stop offset="1" stop-color="#ffe143" stop-opacity="0"/></radialGradient><radialGradient id="b" cx="0" cy="0" r="1" gradientTransform="matrix(-8.47768 -9.97993 8.88624 -7.54862 82.42 32.075)" gradientUnits="userSpaceOnUse"><stop offset="0" stop-color="#e98a5b"/><stop offset="1" stop-color="#e98a5b" stop-opacity="0"/></radialGradient><radialGradient id="c" cx="0" cy="0" r="1" gradientTransform="matrix(-10.0873 4.93627 -5.77823 -11.8079 88 16.085)" gradientUnits="userSpaceOnUse"><stop offset="0" stop-color="#ffe848"/><stop offset="1" stop-color="#ffe848" stop-opacity="0"/></radialGradient><radialGradient id="d" cx="0" cy="0" r="1" gradientTransform="matrix(5.33967 5.86061 -30.1571 27.4765 58.575 13.399)" gradientUnits="userSpaceOnUse"><stop offset="0" stop-color="#d29a3e"/><stop offset="1" stop-color="#d29a3e" stop-opacity="0"/></radialGradient><radialGradient id="e" cx="0" cy="0" r="1" gradientTransform="matrix(3.77684 0 0 11.0701 55.32 23.557)" gradientUnits="userSpaceOnUse"><stop offset="0" stop-color="#d48002"/><stop offset="1" stop-color="#d48002" stop-opacity="0"/></radialGradient><radialGradient id="g" cx="0" cy="0" r="1" gradientTransform="matrix(16.1493 19.2749 -16.7454 14.0299 7.523 25.641)" gradientUnits="userSpaceOnUse"><stop offset=".563" stop-color="#f8832e" stop-opacity="0"/><stop offset=".941" stop-color="#e17a24"/><stop offset=".959" stop-color="#e17a24"/></radialGradient><radialGradient id="h" cx="0" cy="0" r="1" gradientTransform="matrix(0 21.9214 -9.95698 0 18.585 26.458)" gradientUnits="userSpaceOnUse"><stop offset="0" stop-color="#ffcd30"/><stop offset="1" stop-color="#ffcd30" stop-opacity="0"/></radialGradient><radialGradient id="j" cx="0" cy="0" r="1" gradientTransform="matrix(0 26.381 -17.2738 0 30.789 24.428)" gradientUnits="userSpaceOnUse"><stop offset=".637" stop-color="#f8832e" stop-opacity="0"/><stop offset="1" stop-color="#e6802b"/></radialGradient><radialGradient id="k" cx="0" cy="0" r="1" gradientTransform="matrix(-6.21468 0 0 -24.1612 34.114 20.628)" gradientUnits="userSpaceOnUse"><stop offset="0" stop-color="#ffcd30"/><stop offset="1" stop-color="#ffcd30" stop-opacity="0"/></radialGradient><radialGradient id="l" cx="0" cy="0" r="1" gradientTransform="matrix(0 26.4272 -17.5466 0 47.081 23.979)" gradientUnits="userSpaceOnUse"><stop offset=".637" stop-color="#ef833b" stop-opacity="0"/><stop offset="1" stop-color="#ef833b"/></radialGradient><radialGradient id="m" cx="0" cy="0" r="1" gradientTransform="matrix(0 27.2342 -13.2045 0 54.431 25.22)" gradientUnits="userSpaceOnUse"><stop offset="0" stop-color="#ffe740"/><stop offset="1" stop-color="#ffe740" stop-opacity="0"/></radialGradient><radialGradient id="o" cx="0" cy="0" r="1" gradientTransform="matrix(-9.44347 8.4776 -7.90171 -8.80196 92.507 41.303)" gradientUnits="userSpaceOnUse"><stop offset="0" stop-color="#ffe848"/><stop offset="1" stop-color="#ffe848" stop-opacity="0"/></radialGradient><radialGradient id="p" cx="0" cy="0" r="1" gradientTransform="matrix(5.34005 2.30891 -8.15788 18.8675 69.127 49.611)" gradientUnits="userSpaceOnUse"><stop offset=".345" stop-color="#ffdd43"/><stop offset=".941" stop-color="#ffdd43" stop-opacity=".05"/><stop offset="1" stop-color="#ffdd43" stop-opacity="0"/></radialGradient><linearGradient id="f" x1="0" x2="1" y1="0" y2="0" gradientTransform="translate(7.425 36.842) scale(9.32076)" gradientUnits="userSpaceOnUse"><stop offset="0" stop-color="#eda042"/><stop offset="1" stop-color="#eda042" stop-opacity="0"/></linearGradient><linearGradient id="i" x1="0" x2="1" y1="0" y2="0" gradientTransform="translate(23.238 36.091) scale(9.08292)" gradientUnits="userSpaceOnUse"><stop offset="0" stop-color="#eda042"/><stop offset="1" stop-color="#eda042" stop-opacity="0"/></linearGradient><linearGradient id="n" x1="0" x2="1" y1="0" y2="0" gradientTransform="rotate(103.473 22.237 55.046) scale(21.18694)" gradientUnits="userSpaceOnUse"><stop offset="0" stop-color="#eca60f"/><stop offset="1" stop-color="#eca60f" stop-opacity="0"/></linearGradient></defs><path fill="#ffb943" d="M92.652 42.396c-3.178-4.741-9.336-5.88-14.443-1.444-1.162 1.01-2.412 2.227-3.421 2.868-1.174.746-2.02.712-2.02-1.336V32.261c.232-4.23 2.733-5.365 6.808-3.972 5.8 1.47 10.46-3.182 11.322-7.144.674-3.095-.022-8.058-5.313-10.574-10.883-4.693-24.294-.67-29.377 11.003l-10.903 7.704H5.56V51.01c0 25.48 13.147 40.335 34.517 40.335 10.76 0 18.324-4.133 26.42-11.392 4.323-3.879 7.96-7.914 13.931-13.469 6.706-7.324 18.518-14.7 12.225-24.088Z"/><path fill="url(#a)" d="M92.652 42.396c-3.178-4.741-9.336-5.88-14.443-1.444-2.513 2.183-5.441 5.342-5.441 1.532V32.261c.232-4.23 2.733-5.365 6.808-3.972 5.8 1.47 10.46-3.182 11.322-7.144.674-3.095-.022-8.058-5.313-10.574-10.883-4.693-24.294-.67-29.377 11.003l-10.903 7.704H5.56V51.01c0 25.48 13.147 40.335 34.517 40.335 10.76 0 18.324-4.133 26.42-11.392 4.323-3.879 7.96-7.914 13.931-13.469 6.706-7.324 18.518-14.7 12.225-24.088Z"/><path fill="url(#b)" d="M92.652 42.396c-3.178-4.741-9.336-5.88-14.443-1.444-2.513 2.183-5.441 5.342-5.441 1.532V32.261c.232-4.23 2.733-5.365 6.808-3.972 5.8 1.47 10.46-3.182 11.322-7.144.674-3.095-.022-8.058-5.313-10.574-10.883-4.693-24.294-.67-29.377 11.003l-10.903 7.704H5.56V51.01c0 25.48 13.147 40.335 34.517 40.335 10.76 0 18.324-4.133 26.42-11.392 4.323-3.879 7.96-7.914 13.931-13.469 6.706-7.324 18.518-14.7 12.225-24.088Z"/><path fill="url(#c)" d="M92.652 42.396c-3.178-4.741-9.336-5.88-14.443-1.444-2.513 2.183-5.441 5.342-5.441 1.532V32.261c.232-4.23 2.733-5.365 6.808-3.972 5.8 1.47 10.46-3.182 11.322-7.144.674-3.095-.022-8.058-5.313-10.574-10.883-4.693-24.294-.67-29.377 11.003l-10.903 7.704H5.56V51.01c0 25.48 13.147 40.335 34.517 40.335 10.76 0 18.324-4.133 26.42-11.392 4.323-3.879 7.96-7.914 13.931-13.469 6.706-7.324 18.518-14.7 12.225-24.088Z"/><path fill="url(#d)" d="M92.652 42.396c-3.178-4.741-9.336-5.88-14.443-1.444-2.513 2.183-5.441 5.342-5.441 1.532V32.261c.232-4.23 2.733-5.365 6.808-3.972 5.8 1.47 10.46-3.182 11.322-7.144.674-3.095-.022-8.058-5.313-10.574-10.883-4.693-24.294-.67-29.377 11.003l-10.903 7.704H5.56V51.01c0 25.48 13.147 40.335 34.517 40.335 10.76 0 18.324-4.133 26.42-11.392 4.323-3.879 7.96-7.914 13.931-13.469 6.706-7.324 18.518-14.7 12.225-24.088Z"/><path fill="url(#e)" d="M92.652 42.396c-3.178-4.741-9.336-5.88-14.443-1.444-2.513 2.183-5.441 5.342-5.441 1.532V32.261c.232-4.23 2.733-5.365 6.808-3.972 5.8 1.47 10.46-3.182 11.322-7.144.674-3.095-.022-8.058-5.313-10.574-10.883-4.693-24.294-.67-29.377 11.003l-10.903 7.704H5.56V51.01c0 25.48 13.147 40.335 34.517 40.335 10.76 0 18.324-4.133 26.42-11.392 4.323-3.879 7.96-7.914 13.931-13.469 6.706-7.324 18.518-14.7 12.225-24.088Z"/><g fill="#bd5717"><path d="M41.212 25.117c-4.845 0-8.788 3.916-8.788 8.725v9.818c0 4.81 3.944 8.725 8.788 8.725S50 48.47 50 43.66v-9.818c0-4.84-3.944-8.725-8.788-8.725Z"/><path d="M28.644 26.449c-4.607 0-8.359 3.724-8.359 8.3v9.337c0 4.575 3.752 8.3 8.36 8.3 4.607 0 8.358-3.725 8.358-8.3v-9.338c0-4.604-3.751-8.3-8.359-8.3Z"/><path d="M17.621 27.06c-4.154 0-7.535 3.358-7.535 7.482v8.418c0 4.124 3.381 7.482 7.535 7.482s7.536-3.358 7.536-7.482v-8.418c0-4.15-3.382-7.482-7.536-7.482Z"/></g><path fill="#fbb726" d="M15.173 18.893c-5.302 0-9.614 3.931-9.614 8.765v11.956c0 4.834 4.312 8.766 9.614 8.766 5.302 0 9.614-3.932 9.614-8.766V27.658c0-4.834-4.312-8.765-9.614-8.765Z"/><path fill="url(#f)" d="M15.173 18.893c-5.302 0-9.614 3.931-9.614 8.765v11.956c0 4.834 4.312 8.766 9.614 8.766 5.302 0 9.614-3.932 9.614-8.766V27.658c0-4.834-4.312-8.765-9.614-8.765Z"/><path fill="url(#g)" d="M15.173 18.893c-5.302 0-9.614 3.931-9.614 8.765v11.956c0 4.834 4.312 8.766 9.614 8.766 5.302 0 9.614-3.932 9.614-8.766V27.658c0-4.834-4.312-8.765-9.614-8.765Z"/><path fill="url(#h)" d="M15.173 18.893c-5.302 0-9.614 3.931-9.614 8.765v11.956c0 4.834 4.312 8.766 9.614 8.766 5.302 0 9.614-3.932 9.614-8.766V27.658c0-4.834-4.312-8.765-9.614-8.765Z"/><path fill="#bf6f03" d="M21.55 22.074c.697 0 1.263.565 1.263 1.263V43.3a1.264 1.264 0 0 1-2.527 0V23.337c0-.698.565-1.263 1.263-1.263Z"/><path fill="#fbb726" d="M30.789 15.884c-5.167 0-9.369 4.062-9.369 9.056v15.083c0 4.994 4.202 9.056 9.369 9.056 5.166 0 9.368-4.062 9.368-9.056V24.907c0-4.994-4.202-9.023-9.368-9.023Z"/><path fill="url(#i)" d="M30.789 15.884c-5.167 0-9.369 4.062-9.369 9.056v15.083c0 4.994 4.202 9.056 9.369 9.056 5.166 0 9.368-4.062 9.368-9.056V24.907c0-4.994-4.202-9.023-9.368-9.023Z"/><path fill="url(#j)" d="M30.789 15.884c-5.167 0-9.369 4.062-9.369 9.056v15.083c0 4.994 4.202 9.056 9.369 9.056 5.166 0 9.368-4.062 9.368-9.056V24.907c0-4.994-4.202-9.023-9.368-9.023Z"/><path fill="url(#k)" d="M30.789 15.884c-5.167 0-9.369 4.062-9.369 9.056v15.083c0 4.994 4.202 9.056 9.369 9.056 5.166 0 9.368-4.062 9.368-9.056V24.907c0-4.994-4.202-9.023-9.368-9.023Z"/><path fill="#bf6f03" d="M37.848 20.733c.698 0 1.264.565 1.264 1.263V43.3a1.264 1.264 0 1 1-2.527 0V21.996c0-.698.566-1.263 1.263-1.263Z"/><path fill="#e9a31e" d="M47.081 15.42c-5.246 0-9.517 4.24-9.517 9.448v14.357c0 5.208 4.271 9.448 9.517 9.448 5.246 0 9.517-4.24 9.517-9.449V24.868c0-5.241-4.27-9.448-9.517-9.448Z"/><path fill="url(#l)" d="M47.081 15.42c-5.246 0-9.517 4.24-9.517 9.448v14.357c0 5.208 4.271 9.448 9.517 9.448 5.246 0 9.517-4.24 9.517-9.449V24.868c0-5.241-4.27-9.448-9.517-9.448Z"/><path fill="url(#m)" d="M47.081 15.42c-5.246 0-9.517 4.24-9.517 9.448v14.357c0 5.208 4.271 9.448 9.517 9.448 5.246 0 9.517-4.24 9.517-9.449V24.868c0-5.241-4.27-9.448-9.517-9.448Z"/><path fill="url(#n)" d="M86.156 38.219c-2.575-.323-5.384.5-7.937 2.718-.307.267-.625.563-.938.844-.869.78-1.697 1.465-2.437 1.938-.546.348-1.053.61-1.406.5l-6.094 21.25c.003-.003.188-.103.219-.125.323-.235 1.92-1.346 4.28-.813 3.066.693 7.018 3.404 8.594 1.938 1.34-1.464 2.875-2.923 4.438-4.406.65-.618 1.263-1.25 1.906-1.876a54.93 54.93 0 0 0 3.469-3.718c.88-1.026 1.7-2.063 2.344-3.125.17-.282.382-.56.531-.844.146-.28.251-.562.375-.844.29-.666.508-1.347.656-2.031a8.8 8.8 0 0 0 .156-1.063 8.485 8.485 0 0 0-.062-2c-.05-.342-.06-.683-.156-1.03a10.418 10.418 0 0 0-1.438-3.126c-1.589-2.37-3.925-3.864-6.5-4.187Z"/><path fill="url(#o)" d="M78.21 40.952c5.106-4.436 11.264-3.297 14.442 1.444 5.035 7.511-1.52 13.734-7.777 19.674-1.563 1.484-3.107 2.95-4.448 4.414-2.92 2.716-5.281 5.07-7.438 7.218-2.254 2.246-4.284 4.269-6.494 6.25a69.642 69.642 0 0 1-4.384 3.643l11.313-39.362c.833.259 2.345-1.099 3.854-2.453.313-.281.625-.562.931-.828Z"/><path fill="url(#p)" d="M78.219 40.938c-.307.266-.625.562-.938.843-.869.78-1.697 1.465-2.437 1.938-.546.348-1.053.61-1.406.5l-6.094 21.25c.003-.003.188-.103.219-.125.478-.574 4.146-5.03 6.718-10.844 2.742-6.2 5.202-14.66 3.938-13.563Z"/></svg>