<svg width="100%" height="100%" viewBox="0 0 100 100" stroke-miterlimit="10" style="fill-rule:nonzero;clip-rule:evenodd;stroke-linecap:round;stroke-linejoin:round;" version="1.1" xml:space="preserve" xmlns="http://www.w3.org/2000/svg" xmlns:xlink="http://www.w3.org/1999/xlink"><g id="Pinterest" fill-rule="nonzero"><g id="Pinterest"><path id="Square" fill="#a30000" stroke="#c80001" d="M3.08128 24.6391C3.08128 12.6881 12.7694 3 24.7203 3L75.2797 3C87.2306 3 96.9187 12.6881 96.9187 24.6391L96.9187 75.3609C96.9187 87.3119 87.2306 97 75.2797 97L24.7203 97C12.7694 97 3.08128 87.3119 3.08128 75.3609L3.08128 24.6391Z"/><g id="P"><path id="Shadow" fill="#5b0b0b" stroke="#5b0b0b" blur="4.69012" d="M30.1215 67.0887C31.8053 68.8714 34.9906 67.0462 35.1649 64.7393C35.445 61.0323 34.0769 61.902 34.0637 54.4214C34.0503 46.7982 41.2554 41.9533 49.9549 40.8474C65.7439 38.8402 72.7256 45.3396 75.6991 54.0815C77.7275 60.0447 75.902 69.7312 71.6457 75.1069C67.9671 79.753 62.0109 80.5253 60.7012 80.7394C58.2639 81.1379 55.3661 80.102 54.4127 79.4079C52.7595 78.2041 49.9549 75.9873 49.7696 73.5176C49.7594 73.4749 56.961 57.7254 51.6289 51.1057C50.2646 49.412 48.1451 45.7174 45.7485 45.2727C43.4657 44.8491 42.2121 49.2288 41.8766 49.7064C38.8724 53.9832 34.455 69.0175 33.7253 73.2089C33.5678 74.1136 32.9489 76.4332 33.0728 79.4262C33.1312 80.836 33.8873 86.8049 34.4219 86.8049C34.4422 86.8049 38.3349 86.9217 41.3739 83.8703C44.8996 80.3302 45.9356 78.6497 46.9632 74.9954C45.9712 76.6919 49.6795 91.2018 59.2601 90.839C62.0603 90.7329 71.824 90.8457 78.7451 80.6035C85.8205 70.1328 85.2006 56.3212 84.7081 54.4214C81.3451 41.4478 75.0137 33.6033 57.0107 31.5066C41.5631 29.7075 32.4346 38.4882 29.3839 42.7867C27.2637 45.7742 25.4943 51.3341 26.0631 56.7623C26.5767 61.6627 29.2916 66.5867 30.1215 67.0887Z"/><path fill="#fdfafa" stroke="#fdfbfb" d="M51.5216 19.9552C42.3573 20.2505 33.3832 26.9249 30.2167 29.8922C24.5465 35.2056 22.9085 43.6507 22.7977 46.7982C22.5437 54.0127 27.9758 58.2298 27.9758 58.4452C29.5438 60.0131 32.5099 58.4078 32.6722 56.3788C32.933 53.1183 31.0646 50.2378 30.7936 46.986C30.109 38.7698 35.1152 30.9091 42.8164 27.7309C47.6168 25.7497 53.9749 25.0378 59.249 26.6893C66.0777 28.8275 71.3682 34.5359 72.0015 42.5152C72.1958 44.9627 71.8697 49.7194 70.589 53.531C69.8185 55.8242 67.536 59.6079 64.5593 62.2795C62.9357 63.7366 60.6654 65.5573 58.0347 65.9636C55.7651 66.314 53.0673 65.4008 52.1795 64.7903C49.8357 63.1783 48.0196 60.5844 47.8193 59.4896L49.2374 54.3531C49.2374 54.3531 53.3668 43.6498 49.9549 37.9235C48.4298 35.3639 45.0628 38.0871 43.741 39.5825C40.2236 43.5617 38.1884 54.4906 38.2686 57.3799C38.4138 62.6079 41.9899 68.7576 44.9589 71.0399C49.7524 74.7249 56.379 77.8845 65.6076 72.9443C71.0658 70.0226 73.4736 62.7929 73.6247 62.3902C72.327 61.9576 70.8068 64.7384 70.619 64.5505C72.5567 61.8376 74.3056 59.6124 75.785 56.5666C76.1206 55.8757 80.7917 49.7419 79.993 39.0082C79.7799 36.1441 76.0969 29.149 70.6804 25.281C64.5412 20.897 56.3435 19.7999 51.5216 19.9552Z"/><path fill="#e3dfe0" stroke="#e3dfe0" d="M50 51.8233C50.7717 48.9607 55.2531 38.4108 50 36.0984C46.9026 34.7349 42.8117 35.5683 40.5064 38.6681C37.7088 42.4297 36.9266 46.7982 36.8811 50.4591C36.8685 51.4744 36.7042 56.2551 37.4641 58.6926C37.4641 58.6926 34.3641 70.6955 33.6846 74.3821C33.538 75.1778 32.9619 77.2187 33.0773 79.8513C33.1316 81.0912 33.8371 86.3417 34.335 86.3417C34.3538 86.3417 36.8121 85.0853 39.0236 82.224C41.1062 79.5294 43.4465 73.898 44.3959 70.6906C44.3959 70.6906 48.081 58.9417 50 51.8233Z"/><path fill="#c6c2c3" stroke="#c6c2c3" d="M51.5216 19.9552C42.3573 20.2505 33.3832 26.9249 30.2167 29.8922C24.5465 35.2056 22.9085 43.6507 22.7977 46.7982C22.5437 54.0127 27.9758 58.2298 27.9758 58.4452C29.5438 60.0131 32.5099 58.4078 32.6722 56.3788C32.933 53.1183 31.0646 50.2378 30.7936 46.986C30.109 38.7698 35.1152 30.9091 42.8164 27.7309C47.6168 25.7497 53.9749 25.0378 59.249 26.6893C66.0777 28.8275 71.3682 34.5359 72.0015 42.5152C72.1958 44.9627 71.8697 49.7194 70.589 53.531C69.8185 55.8242 67.536 59.6079 64.5593 62.2795C62.9357 63.7366 60.6654 65.5573 58.0347 65.9636C55.7651 66.314 53.0673 65.4008 52.1795 64.7903C49.8357 63.1783 48.0196 60.5844 47.8193 59.4896L49.2374 54.3531C49.2374 54.3531 53.3668 43.6498 49.9549 37.9235C48.4298 35.3639 45.0628 38.0871 43.741 39.5825C40.2236 43.5617 38.1884 54.4906 38.2686 57.3799C38.4138 62.6079 41.9899 68.7576 44.9589 71.0399C49.7524 74.7249 56.379 77.8845 65.6076 72.9443C71.0658 70.0226 73.4736 62.7929 73.6247 62.3902C72.327 61.9576 70.8068 64.7384 70.619 64.5505C72.5567 61.8376 74.3056 59.6124 75.785 56.5666C76.1206 55.8757 80.7917 49.7419 79.993 39.0082C79.7799 36.1441 76.0969 29.149 70.6804 25.281C64.5412 20.897 56.3435 19.7999 51.5216 19.9552Z"/><path fill="#bdbdbe" stroke="#bdbdbe" d="M44.2463 70.5727C46.7004 72.3256 61.6429 72.5488 69.853 66.0477C77.0328 60.3623 81.5153 43.2795 81.0449 46.7982C80.6178 49.9936 79.517 56.7627 74.3534 64.6776C72.9683 66.8007 69.3769 71.4243 64.8351 73.3887C61.1176 74.9966 54.1651 76.8282 48.1385 73.3169C47.15 72.7409 44.1826 70.5641 44.1826 70.5641C44.1826 70.5641 43.2238 72.7638 44.2463 70.5727Z"/><path fill="#a49ea0" stroke="#a49ea0" d="M34.3555 86.6819C34.3555 86.6819 43.6357 74.6626 42.0396 74.5637C41.689 74.542 35.4555 84.4055 34.9593 83.1C33.3767 78.9362 36.1809 76.0623 36.5232 75.4461C37.1169 74.3775 38.9911 70.2464 38.563 68.6514C37.4386 64.4634 36.9592 58.6346 36.9592 58.6346C36.9592 58.6346 38.3098 62.9755 40.5213 66.6964C41.8143 68.8721 44.1169 70.8756 44.7231 71.5701C44.6852 71.709 42.9312 75.9707 42.4551 77.0706C39.852 83.084 35.0061 86.7383 34.3555 86.6819Z"/><path fill="#fbf8f8" stroke="#fbf8f8" d="M21.9644 42.5714C22.8164 36.6081 24.8294 31.7554 28.9151 27.2612C29.154 26.9984 33.8443 22.1545 39.1862 19.978C46.5415 16.9811 54.0746 17.3049 55.027 17.3049C67.8174 18.9037 80.4376 27.4302 81.2876 42.459C81.2876 45.4112 81.2584 54.35 76.28 62.48C72.3307 68.9293 66.9229 72.91 62.8318 74.3404C51.7865 78.202 44.7359 70.962 44.7359 70.962C44.7359 70.962 38.8338 67.7159 37.4119 58.2958C34.7381 40.5812 43.0265 33.7227 48.6391 35.5861C54.4654 37.5203 51.2344 42.5483 49.4513 43.4342C48.8388 43.7385 48.0659 44.3007 47.4085 45.2692C46.6878 46.331 46.1058 47.881 46.0263 50.1148C45.9436 52.4363 46.4035 55.4962 47.814 59.5139C49.2057 63.4778 56.9995 72.1624 69.6522 63.4415C78.2231 57.5339 78.867 39.0025 71.421 29.6683C66.3259 23.2812 52.5171 18.6024 42.1268 23.5491C34.7986 27.038 29.3982 33.0781 27.694 41.0311C26.0419 48.7414 27.9758 58.4233 27.9758 58.4452C26.3471 57.5145 24.1984 54.2578 23.2194 51.344C21.8443 47.2513 21.9644 43.2847 21.9644 42.5714Z"/><path fill="#e3dfe0" stroke="#e3dfe0" d="M46.1978 45.4832C47.5094 41.1112 51.9572 42.7604 49.2035 44.8257C49.2504 44.3091 49.2504 44.3091 49.2974 43.7925C45.4572 43.0245 47.5445 61.0319 47.8811 59.7676C48.7169 56.6273 49.3918 53.8377 50.7534 49.6444C52.1551 45.3278 51.8692 37.5979 48.8532 36.4835C46.7767 35.7163 42.1023 38.7385 39.615 46.3375C35.3885 59.2494 39.915 66.6789 45.0063 70.9466C47.8813 73.3565 61.6658 78.6989 69.2184 66.4556C64.3241 70.2545 55.0463 71.1701 49.9549 66.6429C41.3409 58.9836 45.7232 47.0651 46.1978 45.4832Z"/><path fill="#fff" stroke="#fff" d="M65.6612 63.6315C66.9422 62.803 69.459 60.7328 71.2337 57.9765C73.127 55.036 74.2529 51.3863 74.68 50.0002C74.6914 49.9632 74.378 55.1085 72.1222 58.5188C69.8664 61.9292 65.6568 63.6417 65.6568 63.6417L65.6612 63.6315Z"/><path fill="none" stroke="#fff" d="M47.8532 45.5882C51.0757 44.4638 49.9549 40.7736 47.6823 43.8724C44.142 48.6998 46.312 57.3564 47.8955 60.0554"/><path fill="#fff" stroke="#fff" d="M49.4119 42.4722C49.3102 42.4529 49.2002 42.4547 49.0831 42.4783C48.6113 42.5735 48.0755 43.0233 47.5216 43.8127C45.8823 46.1486 45.3201 49.4722 45.6665 53.2452C45.9409 56.2341 46.8065 59.3246 47.7212 60.9539C47.7773 61.0538 47.9014 61.0892 47.9971 61.0305C48.0928 60.9719 48.1237 60.8422 48.0675 60.7422C47.1847 59.1696 46.3378 56.1368 46.0686 53.2054C45.7308 49.5255 46.2731 46.3003 47.8444 44.0612C48.3442 43.349 48.806 42.9607 49.1594 42.8894C49.409 42.839 49.5715 42.9619 49.632 43.2268C49.7039 43.5412 49.6045 43.9749 49.3385 44.3802C49.0188 44.8672 48.4935 45.2724 47.7857 45.5305C47.681 45.5687 47.6259 45.6879 47.6625 45.7974C47.699 45.9068 47.816 45.9644 47.9208 45.9262C49.4248 45.3778 50.2489 44.1192 50.0224 43.1286C49.9407 42.7715 49.7168 42.5301 49.4119 42.4722Z"/><path fill="#fff" stroke="none" d="M47.2441 58.6353C47.948 56.3427 51.0516 48.1826 51.0296 42.6606C51.0095 37.5945 48.9282 36.3817 48.9282 36.3817C49.4346 36.4456 51.8553 37.3538 51.6456 41.9825C51.4124 47.1292 48.018 57.2658 47.814 60.0554L47.2441 58.6353Z"/><path fill="#fff" stroke="none" d="M50.492 20.4779C48.2831 20.4514 46.1509 20.6818 44.1079 21.1618C41.8952 21.6816 37.7263 23.4336 34.2058 26.6602C31.3895 29.2414 28.893 33.4516 28.85 33.6585C28.8049 33.8749 32.009 29.6292 35.2418 27.0722C38.9648 24.1274 42.8771 22.7769 44.4043 22.4181C50.6424 20.9525 56.3034 21.4834 64.0035 23.775C64.345 23.8766 66.3769 24.5631 66.0547 24.4111C60.5825 21.8303 55.3517 20.5362 50.492 20.4779Z"/><path fill="#fff" opacity="0.828308" stroke="none" d="M31.8338 33.6665C29.4605 37.6759 28.7057 42.9853 29.2252 46.7512C29.7813 50.7824 31.2567 53.3852 31.3655 53.6074C31.4792 53.8398 30.7286 50.6538 30.2862 46.1746C30.0908 44.197 30.7082 37.9514 33.2667 34.4214C34.04 33.3544 34.8426 32.3848 35.6689 31.503C39.2471 27.6845 43.271 25.5125 47.2949 24.2169C47.6509 24.1023 49.8264 23.4975 49.4513 23.5527C45.8604 24.0805 41.0666 25.548 37.3546 28.0412C34.4808 29.9713 32.233 32.9919 31.8338 33.6665Z"/></g></g></g></svg>