<svg xmlns="http://www.w3.org/2000/svg" xmlns:xlink="http://www.w3.org/1999/xlink" width="100%" height="100%" version="1.1" viewBox="0 0 100 100" xml:space="preserve"><defs><filter id="Filter_Polaroid" width="100.907" height="102.903" x="2.529" y=".033" color-interpolation-filters="sRGB" filterUnits="userSpaceOnUse"><feDropShadow dx="4.281" dy="5.004" flood-color="#000" flood-opacity=".4" in="SourceGraphic" result="Shadow" stdDeviation="2.397"/></filter><linearGradient id="LinearGradient_Polaroid" x1="0" x2="1" y1="0" y2="0" gradientTransform="matrix(93.4842 0.741747 -0.741747 93.4842 -41.323 -4.60356)" gradientUnits="userSpaceOnUse"><stop offset="0" stop-color="#50e6fe"/><stop offset="1" stop-color="#00b1ff"/></linearGradient><linearGradient id="LinearGradient_Polaroid_2" x1="0" x2="1" y1="0" y2="0" gradientTransform="matrix(-3.1904 69.7763 -212.51 -1.04755 59.7619 -6.74818)" gradientUnits="userSpaceOnUse"><stop offset="0" stop-color="#de82f9"/><stop offset=".282" stop-color="#e488ff"/><stop offset=".475" stop-color="#fff" stop-opacity="0"/><stop offset="1" stop-color="#fff" stop-opacity="0"/></linearGradient><filter id="Filter_Polaroid_2" width="80.405" height="24.824" x="7.637" y="39.756" color-interpolation-filters="sRGB" filterUnits="userSpaceOnUse"><feDropShadow dx=".282" dy="-.092" flood-color="#000" flood-opacity=".333" in="SourceGraphic" result="Shadow" stdDeviation=".445"/></filter><filter id="Filter_Polaroid_3" width="11.977" height="16.292" x="76.067" y="58.528" color-interpolation-filters="sRGB" filterUnits="userSpaceOnUse"><feDropShadow dx=".282" dy="-.092" flood-color="#000" flood-opacity=".333" in="SourceGraphic" result="Shadow" stdDeviation=".445"/></filter><filter id="Filter_Polaroid_4" width="13.262" height="11.728" x="35.561" y="52.422" color-interpolation-filters="sRGB" filterUnits="userSpaceOnUse"><feDropShadow dx=".282" dy="-.092" flood-color="#000" flood-opacity=".23" in="SourceGraphic" result="Shadow" stdDeviation=".62"/></filter><filter id="Filter_Polaroid_5" width="16.671" height="15.397" x="21.404" y="50.232" color-interpolation-filters="sRGB" filterUnits="userSpaceOnUse"><feDropShadow dx=".282" dy="-.092" flood-color="#000" flood-opacity=".23" in="SourceGraphic" result="Shadow" stdDeviation=".62"/></filter><filter id="Filter_Polaroid_6" width="15.519" height="13.644" x="41.207" y="51.017" color-interpolation-filters="sRGB" filterUnits="userSpaceOnUse"><feDropShadow dx=".282" dy="-.092" flood-color="#000" flood-opacity=".23" in="SourceGraphic" result="Shadow" stdDeviation=".62"/></filter><filter id="Filter_Polaroid_7" width="14.97" height="13.647" x="71.973" y="59.283" color-interpolation-filters="sRGB" filterUnits="userSpaceOnUse"><feDropShadow dx=".282" dy="-.092" flood-color="#000" flood-opacity=".23" in="SourceGraphic" result="Shadow" stdDeviation=".62"/></filter><filter id="Filter_Polaroid_8" width="15.519" height="13.644" x="51.484" y="53.188" color-interpolation-filters="sRGB" filterUnits="userSpaceOnUse"><feDropShadow dx=".282" dy="-.092" flood-color="#000" flood-opacity=".23" in="SourceGraphic" result="Shadow" stdDeviation=".62"/></filter><filter id="Filter_Polaroid_9" width="19.659" height="17.159" x="59.758" y="51.845" color-interpolation-filters="sRGB" filterUnits="userSpaceOnUse"><feDropShadow dx=".282" dy="-.092" flood-color="#000" flood-opacity=".23" in="SourceGraphic" result="Shadow" stdDeviation=".62"/></filter><filter id="Filter_Polaroid_10" width="13.258" height="11.733" x="26.189" y="46.324" color-interpolation-filters="sRGB" filterUnits="userSpaceOnUse"><feDropShadow dx=".282" dy="-.092" flood-color="#000" flood-opacity=".23" in="SourceGraphic" result="Shadow" stdDeviation=".62"/></filter><filter id="Filter_Polaroid_11" width="17.187" height="15.397" x="12.106" y="43.917" color-interpolation-filters="sRGB" filterUnits="userSpaceOnUse"><feDropShadow dx=".282" dy="-.092" flood-color="#000" flood-opacity=".23" in="SourceGraphic" result="Shadow" stdDeviation=".62"/></filter><filter id="Filter_Polaroid_12" width="15.515" height="13.65" x="30.765" y="46.131" color-interpolation-filters="sRGB" filterUnits="userSpaceOnUse"><feDropShadow dx=".282" dy="-.092" flood-color="#000" flood-opacity=".23" in="SourceGraphic" result="Shadow" stdDeviation=".62"/></filter><filter id="Filter_Polaroid_13" width="15.037" height="13.632" x="62.282" y="41.488" color-interpolation-filters="sRGB" filterUnits="userSpaceOnUse"><feDropShadow dx=".282" dy="-.092" flood-color="#000" flood-opacity=".23" in="SourceGraphic" result="Shadow" stdDeviation=".62"/></filter><filter id="Filter_Polaroid_14" width="15.515" height="15.045" x="41.224" y="45.165" color-interpolation-filters="sRGB" filterUnits="userSpaceOnUse"><feDropShadow dx=".282" dy="-.092" flood-color="#000" flood-opacity=".23" in="SourceGraphic" result="Shadow" stdDeviation=".62"/></filter><filter id="Filter_Polaroid_15" width="19.653" height="17.166" x="48.477" y="46.191" color-interpolation-filters="sRGB" filterUnits="userSpaceOnUse"><feDropShadow dx=".282" dy="-.092" flood-color="#000" flood-opacity=".23" in="SourceGraphic" result="Shadow" stdDeviation=".62"/></filter><filter id="Filter_Polaroid_16" width="18.489" height="18.636" x="9.924" y="30.789" color-interpolation-filters="sRGB" filterUnits="userSpaceOnUse"><feDropShadow dx=".282" dy="-.092" flood-color="#000" flood-opacity=".23" in="SourceGraphic" result="Shadow" stdDeviation=".445"/></filter><filter id="Filter_Polaroid_17" width="26.651" height="21.921" x="58.712" y="29.789" color-interpolation-filters="sRGB" filterUnits="userSpaceOnUse"><feDropShadow dx=".282" dy="-.092" flood-color="#000" flood-opacity=".23" in="SourceGraphic" result="Shadow" stdDeviation=".445"/></filter><filter id="Filter_Polaroid_18" width="18.489" height="16.292" x="36.318" y="29.789" color-interpolation-filters="sRGB" filterUnits="userSpaceOnUse"><feDropShadow dx=".282" dy="-.092" flood-color="#000" flood-opacity=".23" in="SourceGraphic" result="Shadow" stdDeviation=".445"/></filter><filter id="Filter_Polaroid_19" width="12.388" height="10.854" x="41.535" y="44.407" color-interpolation-filters="sRGB" filterUnits="userSpaceOnUse"><feDropShadow dx=".282" dy="-.092" flood-color="#000" flood-opacity=".23" in="SourceGraphic" result="Shadow" stdDeviation=".445"/></filter><filter id="Filter_Polaroid_20" width="14.645" height="12.77" x="43.18" y="43.001" color-interpolation-filters="sRGB" filterUnits="userSpaceOnUse"><feDropShadow dx=".282" dy="-.092" flood-color="#000" flood-opacity=".23" in="SourceGraphic" result="Shadow" stdDeviation=".445"/></filter><filter id="Filter_Polaroid_21" width="14.095" height="12.773" x="73.947" y="51.267" color-interpolation-filters="sRGB" filterUnits="userSpaceOnUse"><feDropShadow dx=".282" dy="-.092" flood-color="#000" flood-opacity=".23" in="SourceGraphic" result="Shadow" stdDeviation=".445"/></filter><filter id="Filter_Polaroid_22" width="14.645" height="12.77" x="53.458" y="45.172" color-interpolation-filters="sRGB" filterUnits="userSpaceOnUse"><feDropShadow dx=".282" dy="-.092" flood-color="#000" flood-opacity=".23" in="SourceGraphic" result="Shadow" stdDeviation=".445"/></filter><filter id="Filter_Polaroid_23" width="17.622" height="15.826" x="70.496" y="36.976" color-interpolation-filters="sRGB" filterUnits="userSpaceOnUse"><feDropShadow dx=".282" dy="-.092" flood-color="#000" flood-opacity=".23" in="SourceGraphic" result="Shadow" stdDeviation=".474"/></filter><filter id="Filter_Polaroid_24" width="47.703" height="37.16" x="40.534" y="42.553" color-interpolation-filters="sRGB" filterUnits="userSpaceOnUse"><feDropShadow dx=".282" dy="-.092" flood-color="#000" flood-opacity=".45" in="SourceGraphic" result="Shadow" stdDeviation=".5"/></filter><filter id="Filter_Polaroid_25" width="18.776" height="16.296" x="64.736" y="44.824" color-interpolation-filters="sRGB" filterUnits="userSpaceOnUse"><feDropShadow dx=".282" dy="-.092" flood-color="#000" flood-opacity=".23" in="SourceGraphic" result="Shadow" stdDeviation=".445"/></filter><filter id="Filter_Polaroid_26" width="18.634" height="16.438" x="30.245" y="32.481" color-interpolation-filters="sRGB" filterUnits="userSpaceOnUse"><feDropShadow dx=".282" dy="-.092" flood-color="#000" flood-opacity=".23" in="SourceGraphic" result="Shadow" stdDeviation=".474"/></filter><filter id="Filter_Polaroid_27" width="15.679" height="13.882" x="20.928" y="36.08" color-interpolation-filters="sRGB" filterUnits="userSpaceOnUse"><feDropShadow dx=".282" dy="-.092" flood-color="#000" flood-opacity=".23" in="SourceGraphic" result="Shadow" stdDeviation=".474"/></filter><filter id="Filter_Polaroid_28" width="15.797" height="14.523" x="30.377" y="41.216" color-interpolation-filters="sRGB" filterUnits="userSpaceOnUse"><feDropShadow dx=".282" dy="-.092" flood-color="#000" flood-opacity=".23" in="SourceGraphic" result="Shadow" stdDeviation=".445"/></filter><filter id="Filter_Polaroid_29" width="21.345" height="17.941" x="45.087" y="34.802" color-interpolation-filters="sRGB" filterUnits="userSpaceOnUse"><feDropShadow dx=".282" dy="-.092" flood-color="#000" flood-opacity=".23" in="SourceGraphic" result="Shadow" stdDeviation=".474"/></filter><filter id="Filter_Polaroid_30" width="15.679" height="13.882" x="33.116" y="36.481" color-interpolation-filters="sRGB" filterUnits="userSpaceOnUse"><feDropShadow dx=".282" dy="-.092" flood-color="#000" flood-opacity=".23" in="SourceGraphic" result="Shadow" stdDeviation=".474"/></filter><filter id="Filter_Polaroid_31" width="13.213" height="16.438" x="74.901" y="42.835" color-interpolation-filters="sRGB" filterUnits="userSpaceOnUse"><feDropShadow dx=".282" dy="-.092" flood-color="#000" flood-opacity=".23" in="SourceGraphic" result="Shadow" stdDeviation=".474"/></filter><filter id="Filter_Polaroid_32" width="15.935" height="14.666" x="4.162" y="43.768" color-interpolation-filters="sRGB" filterUnits="userSpaceOnUse"><feDropShadow dx=".282" dy="-.092" flood-color="#000" flood-opacity=".15" in="SourceGraphic" result="Shadow" stdDeviation=".474"/></filter><filter id="Filter_Polaroid_33" width="18.924" height="16.438" x="42.532" y="40.704" color-interpolation-filters="sRGB" filterUnits="userSpaceOnUse"><feDropShadow dx=".282" dy="-.092" flood-color="#000" flood-opacity=".15" in="SourceGraphic" result="Shadow" stdDeviation=".474"/></filter><filter id="Filter_Polaroid_34" width="14.786" height="12.921" x="23.819" y="42.281" color-interpolation-filters="sRGB" filterUnits="userSpaceOnUse"><feDropShadow dx=".282" dy="-.092" flood-color="#000" flood-opacity=".15" in="SourceGraphic" result="Shadow" stdDeviation=".474"/></filter><filter id="Filter_Polaroid_35" width="12.53" height="11.004" x="19.244" y="43.005" color-interpolation-filters="sRGB" filterUnits="userSpaceOnUse"><feDropShadow dx=".282" dy="-.092" flood-color="#000" flood-opacity=".15" in="SourceGraphic" result="Shadow" stdDeviation=".474"/></filter><filter id="Filter_Polaroid_36" width="12.524" height="11.011" x="52.506" y="24.076" color-interpolation-filters="sRGB" filterUnits="userSpaceOnUse"><feDropShadow dx=".282" dy="-.092" flood-color="#000" flood-opacity=".15" in="SourceGraphic" result="Shadow" stdDeviation=".474"/></filter><filter id="Filter_Polaroid_37" width="16.53" height="14.032" x="55.303" y="47.016" color-interpolation-filters="sRGB" filterUnits="userSpaceOnUse"><feDropShadow dx=".282" dy="-.092" flood-color="#000" flood-opacity=".15" in="SourceGraphic" result="Shadow" stdDeviation=".474"/></filter><filter id="Filter_Polaroid_38" width="76.781" height="28.874" x="18.078" y="50.92" color-interpolation-filters="sRGB" filterUnits="userSpaceOnUse"><feDropShadow dx=".448" dy="-.146" flood-color="#000" flood-opacity=".45" in="SourceGraphic" result="Shadow" stdDeviation=".5"/></filter><filter id="Filter_Polaroid_39" width="44.5" height="33.64" x="9.726" y="46.08" color-interpolation-filters="sRGB" filterUnits="userSpaceOnUse"><feDropShadow dx=".282" dy="-.092" flood-color="#000" flood-opacity=".45" in="SourceGraphic" result="Shadow" stdDeviation=".5"/></filter><filter id="Filter_Polaroid_40" width="70.719" height="33.469" x="9.782" y="46.19" color-interpolation-filters="sRGB" filterUnits="userSpaceOnUse"><feDropShadow dx=".282" dy="-.092" flood-color="#000" flood-opacity=".45" in="SourceGraphic" result="Shadow" stdDeviation=".5"/></filter><filter id="Filter_Polaroid_41" width="94.5" height="96.501" x="1.451" y="-1.782" color-interpolation-filters="sRGB" filterUnits="userSpaceOnUse"><feDropShadow dx="0" dy="0" flood-color="#000" flood-opacity=".25" in="SourceGraphic" result="Shadow" stdDeviation="1.115"/></filter><linearGradient id="LinearGradient_Polaroid_3" x1="0" x2="1" y1="0" y2="0" gradientTransform="matrix(61.8534 -34.295 86.7496 61.8534 25.308 87.9734)" gradientUnits="userSpaceOnUse"><stop offset="0" stop-color="#110e3f" stop-opacity=".5"/><stop offset="1" stop-color="#110e3f" stop-opacity="0"/></linearGradient><linearGradient id="LinearGradient_Polaroid_4" x1="0" x2="1" y1="0" y2="0" gradientTransform="matrix(7.63378 10.1402 -10.1402 7.63378 57.3955 49.6134)" gradientUnits="userSpaceOnUse"><stop offset="0" stop-color="#ff1744"/><stop offset="1" stop-color="#6e0d0d"/></linearGradient><linearGradient id="LinearGradient_Polaroid_5" x1="0" x2="1" y1="0" y2="0" gradientTransform="matrix(11.7004 21.0743 -21.0743 11.7004 30.7631 65.8253)" gradientUnits="userSpaceOnUse"><stop offset=".141" stop-color="#fff"/><stop offset=".489" stop-color="#fff" stop-opacity=".9"/><stop offset=".85" stop-color="#b3b3b3"/><stop offset="1" stop-color="#969696"/></linearGradient><linearGradient id="LinearGradient_Polaroid_6" x1="0" x2="1" y1="0" y2="0" gradientTransform="matrix(5.05197 6.26575 -6.26575 5.05197 27.6228 78.617)" gradientUnits="userSpaceOnUse"><stop offset="0" stop-color="#fff"/><stop offset="1" stop-color="#5b5b5b"/></linearGradient></defs><g id="Polaroid-4"><g id="Frame-Sky"><path id="cloud" fill="#f9e6ff" d="M10.755 40.9957L10.755 78.5051L86.6473 78.5051L86.6473 50.3731C86.6473 50.3731 68.8306 40.2905 56.8325 40.9957C44.8344 41.701 44.9279 75.5762 22.9483 56.9139C14.1672 49.4581 10.755 40.9957 10.755 40.9957Z"/><path id="FrameBase" fill="#fff" d="M10.755 7.76683L86.6473 7.76683L86.6473 78.5051L10.755 78.5051L10.755 7.76683Z"/><path id="cloud" fill="#e190f9" d="M10.755 7.76683L86.6473 7.76683L86.6473 78.5051L10.755 78.5051L10.755 7.76683Z"/><path id="FrsmeBaseHigher" fill="#e1e7ea" d="M4.24155 1.02282L93.1614 1.02282L93.1614 91.9389L4.24155 91.9389L4.24155 1.02282Z" filter="url(#Filter_Polaroid)" shadowAngle=".863" shadowColor="#000" shadowOffset="6.585" shadowOpacity=".4" shadowRadius="4.795"/><path id="cloud" fill="#90caf9" d="M10.755 7.68279L86.6473 7.68279L86.6473 78.0129L10.755 78.0129L10.755 7.68279Z"/><path id="cloud-19" fill="url(#LinearGradient_Polaroid)" d="M8.677 5.10549L91.316 5.10549L91.316 81.6878L8.677 81.6878L8.677 5.10549Z"/><path id="cloud" fill="url(#LinearGradient_Polaroid_2)" d="M11.1887 7.76683L86.2136 7.76683C86.4531 7.76683 86.6473 7.83059 86.6473 7.90924L86.6473 29.3412L86.6473 30.8509C86.6473 30.9296 86.4531 30.9933 86.2136 30.9933L78.5381 30.9933L11.1887 30.9933C10.9492 30.9933 10.755 30.9296 10.755 30.8509L10.755 7.90924C10.755 7.83059 10.9492 7.76683 11.1887 7.76683Z"/></g><path id="cloud" fill="#f9e6ff" d="M38.4593 44.9139C34.7917 45.1424 31.9787 47.8992 32.1764 51.0714C32.374 54.2436 35.5074 56.63 39.175 56.4015C42.8425 56.173 45.6555 53.4161 45.4579 50.244C45.2602 47.0718 42.1268 44.6854 38.4593 44.9139ZM16.2339 44.2716C13.5801 44.4369 8.14602 47.2185 8.48362 53.0225C8.82122 58.8264 14.6006 60.8155 17.2544 60.6502C22.4835 60.3244 26.4941 56.3938 26.2123 51.871C25.9305 47.3482 21.4631 43.9458 16.2339 44.2716ZM41.9333 42.6705C37.4512 42.9497 34.0135 46.3188 34.255 50.1955C34.4966 54.0722 38.3258 56.9885 42.8079 56.7093C47.29 56.43 50.7277 53.0609 50.4862 49.1842C50.2447 45.3075 46.4154 42.3912 41.9333 42.6705ZM86.6473 49.8561C85.7816 49.6469 84.0492 49.4421 83.0943 49.5016C78.6118 49.7808 75.1745 53.1495 75.416 57.0266C75.6576 60.9036 79.4864 63.8196 83.9689 63.5404C84.9239 63.4809 85.8142 63.2563 86.6473 62.9413L86.6473 49.8561ZM55.605 44.1676C51.1229 44.4468 47.6852 47.8159 47.9268 51.6926C48.1683 55.5693 51.9976 58.4856 56.4797 58.2064C60.9618 57.9271 64.3995 54.558 64.1579 50.6813C63.9164 46.8046 60.0871 43.8883 55.605 44.1676ZM68.9852 40.9851C63.0091 41.3574 58.4255 45.8495 58.7475 51.0184C59.0696 56.1874 64.1753 60.0758 70.1514 59.7035C76.1276 59.3311 80.7111 54.839 80.3891 49.6701C80.0671 44.5011 74.9614 40.6127 68.9852 40.9851Z" filter="url(#Filter_Polaroid_2)" shadowAngle="5.969" shadowColor="#000" shadowOffset=".296" shadowOpacity=".333" shadowRadius=".89"/><path id="cloud" fill="#f9e6ff" d="M83.9684 59.7328C80.064 59.7328 76.8988 62.8816 76.8988 66.7658C76.8988 70.65 80.064 73.7988 83.9684 73.7988C84.918 73.7988 85.8227 73.6791 86.65 73.3413L86.65 60.2182C85.849 59.9049 84.8812 59.7328 83.9684 59.7328Z" filter="url(#Filter_Polaroid_3)" shadowAngle="5.969" shadowColor="#000" shadowOffset=".296" shadowOpacity=".333" shadowRadius=".89"/><path id="cloud-1" fill="#f9e6ff" d="M42.0733 54.069C39.2687 53.9565 36.9223 55.7944 36.8325 58.1742C36.7428 60.5539 38.9437 62.5744 41.7483 62.6869C44.553 62.7995 46.8994 60.9615 46.9891 58.5818C47.0789 56.202 44.878 54.1816 42.0733 54.069Z" filter="url(#Filter_Polaroid_4)" shadowAngle="5.969" shadowColor="#000" shadowOffset=".296" shadowOpacity=".23" shadowRadius="1.24"/><path id="cloud-2" fill="#f9e6ff" d="M29.2305 51.8761C27.2011 51.7946 22.8607 53.4489 22.6783 57.8011C22.4958 62.1534 26.7377 64.0818 28.7671 64.1632C32.7659 64.3237 36.1114 61.7032 36.2393 58.3102C36.3673 54.9172 33.2293 52.0365 29.2305 51.8761Z" filter="url(#Filter_Polaroid_5)" shadowAngle="5.969" shadowColor="#000" shadowOffset=".296" shadowOpacity=".23" shadowRadius="1.24"/><path id="cloud-3" fill="#f9e6ff" d="M48.8833 52.6647C45.4558 52.5272 42.5883 54.7733 42.4786 57.6816C42.3689 60.5899 45.0586 63.059 48.4861 63.1965C51.9137 63.3341 54.7812 61.088 54.8909 58.1797C55.0006 55.2714 52.3109 52.8023 48.8833 52.6647Z" filter="url(#Filter_Polaroid_6)" shadowAngle="5.969" shadowColor="#000" shadowOffset=".296" shadowOpacity=".23" shadowRadius="1.24"/><path id="cloud-4" fill="#f9e6ff" d="M79.6493 60.9312C76.685 60.7898 73.3542 63.0395 73.2446 65.948C73.1349 68.8566 76.2878 71.3217 79.2521 71.463C82.2164 71.6043 85.3027 70.0501 85.1019 66.5133C84.9525 63.8816 82.6136 61.0725 79.6493 60.9312Z" filter="url(#Filter_Polaroid_7)" shadowAngle="5.969" shadowColor="#000" shadowOffset=".296" shadowOpacity=".23" shadowRadius="1.24"/><path id="cloud-5" fill="#f9e6ff" d="M59.1607 54.8351C55.7332 54.6976 52.8657 56.9437 52.756 59.852C52.6463 62.7603 55.336 65.2294 58.7635 65.3669C62.1911 65.5045 65.0586 63.2583 65.1683 60.3501C65.278 57.4418 62.5883 54.9726 59.1607 54.8351Z" filter="url(#Filter_Polaroid_8)" shadowAngle="5.969" shadowColor="#000" shadowOffset=".296" shadowOpacity=".23" shadowRadius="1.24"/><path id="cloud-6" fill="#f9e6ff" d="M69.5705 53.4949C65.0004 53.3115 61.1771 56.3063 61.0308 60.184C60.8846 64.0617 64.4708 67.3539 69.0409 67.5373C73.611 67.7207 77.4343 64.7259 77.5806 60.8481C77.7268 56.9704 74.1406 53.6783 69.5705 53.4949Z" filter="url(#Filter_Polaroid_9)" shadowAngle="5.969" shadowColor="#000" shadowOffset=".296" shadowOpacity=".23" shadowRadius="1.24"/><path id="cloud-7" fill="#f9e6ff" d="M32.1996 56.5811C29.4007 56.3684 27.2828 54.2712 27.469 51.8971C27.6552 49.5229 30.0751 47.7708 32.874 47.9835C35.6729 48.1963 37.7908 50.2934 37.6046 52.6676C37.4183 55.0417 34.9984 56.7939 32.1996 56.5811Z" filter="url(#Filter_Polaroid_10)" shadowAngle="5.969" shadowColor="#000" shadowOffset=".296" shadowOpacity=".23" shadowRadius="1.24"/><path id="cloud-8" fill="#f9e6ff" d="M19.7649 57.8534C17.657 57.8109 13.272 55.8949 13.3764 51.5391C13.4808 47.1834 18.0054 45.517 20.1132 45.5596C24.2667 45.6432 27.5557 48.4631 27.4596 51.8581C27.3634 55.2529 23.9184 57.9371 19.7649 57.8534Z" filter="url(#Filter_Polaroid_11)" shadowAngle="5.969" shadowColor="#000" shadowOffset=".296" shadowOpacity=".23" shadowRadius="1.24"/><path id="cloud-9" fill="#f9e6ff" d="M37.8282 58.3012C34.4077 58.0412 31.8194 55.4783 32.047 52.5768C32.2746 49.6754 35.2319 47.5341 38.6524 47.7941C42.0728 48.0542 44.6612 50.617 44.4336 53.5185C44.206 56.4199 41.2486 58.5612 37.8282 58.3012Z" filter="url(#Filter_Polaroid_12)" shadowAngle="5.969" shadowColor="#000" shadowOffset=".296" shadowOpacity=".23" shadowRadius="1.24"/><path id="cloud-10" fill="#f9e6ff" d="M69.344 53.6505C66.3833 53.4478 63.3353 50.8279 63.5629 47.9262C63.7905 45.0245 67.2075 42.9408 70.1683 43.1435C73.129 43.3461 76.0147 45.247 75.406 48.7369C74.9531 51.3335 72.3048 53.8532 69.344 53.6505Z" filter="url(#Filter_Polaroid_13)" shadowAngle="5.969" shadowColor="#000" shadowOffset=".296" shadowOpacity=".23" shadowRadius="1.24"/><path id="cloud-11" fill="#f9e6ff" d="M48.2877 58.7265C44.8672 58.4321 42.2789 55.5304 42.5065 52.2454C42.7341 48.9604 45.6914 46.5361 49.1119 46.8304C52.5323 47.1249 55.1207 50.0265 54.8931 53.3116C54.6655 56.5965 51.7081 59.0209 48.2877 58.7265Z" filter="url(#Filter_Polaroid_14)" shadowAngle="5.969" shadowColor="#000" shadowOffset=".296" shadowOpacity=".23" shadowRadius="1.24"/><path id="cloud-12" fill="#f9e6ff" d="M57.4724 61.8705C52.9118 61.5238 49.4607 58.1067 49.7642 54.2381C50.0677 50.3695 54.0108 47.5144 58.5714 47.8611C63.132 48.2078 66.5831 51.625 66.2796 55.4936C65.9762 59.3622 62.033 62.2172 57.4724 61.8705Z" filter="url(#Filter_Polaroid_15)" shadowAngle="5.969" shadowColor="#000" shadowOffset=".296" shadowOpacity=".23" shadowRadius="1.24"/><g id="CloudS"><path id="cloud" fill="#f9e6ff" d="M17.5311 31.9933C14.8722 31.9933 12.4761 32.9451 10.755 34.4689L10.755 45.9304C12.4761 47.4518 14.8722 48.4036 17.5311 48.4036C22.7704 48.4036 27.0177 44.7301 27.0177 40.1985C27.0177 35.6669 22.7704 31.9933 17.5311 31.9933Z" filter="url(#Filter_Polaroid_16)" shadowAngle="5.969" shadowColor="#000" shadowOffset=".296" shadowOpacity=".23" shadowRadius=".89"/><path id="cloud" fill="#f9e6ff" d="M71.7557 30.9933C65.0107 30.9933 59.5429 35.4022 59.5429 40.8407C59.5429 46.2793 65.0107 50.6881 71.7557 50.6881C78.5006 50.6881 83.9684 46.2793 83.9684 40.8407C83.9684 35.4022 78.5006 30.9933 71.7557 30.9933Z" filter="url(#Filter_Polaroid_17)" shadowAngle="5.969" shadowColor="#000" shadowOffset=".296" shadowOpacity=".23" shadowRadius=".89"/><path id="cloud" fill="#f9e6ff" d="M45.2803 30.9933C40.7895 30.9933 37.149 34.1421 37.149 38.0263C37.149 41.9105 40.7895 45.0593 45.2803 45.0593C49.7711 45.0593 53.4116 41.9105 53.4116 38.0263C53.4116 34.1421 49.7711 30.9933 45.2803 30.9933Z" filter="url(#Filter_Polaroid_18)" shadowAngle="5.969" shadowColor="#000" shadowOffset=".296" shadowOpacity=".23" shadowRadius=".89"/></g><path id="cloud-13" fill="#f9e6ff" d="M47.6095 45.6163C44.8048 45.5037 42.4584 47.3417 42.3687 49.7214C42.2789 52.1012 44.4798 54.1216 47.2845 54.2342C50.0891 54.3467 52.4355 52.5088 52.5253 50.129C52.615 47.7492 50.4142 45.7288 47.6095 45.6163Z" filter="url(#Filter_Polaroid_19)" shadowAngle="5.969" shadowColor="#000" shadowOffset=".296" shadowOpacity=".23" shadowRadius=".89"/><path id="cloud-15" fill="#f9e6ff" d="M50.4195 44.212C46.9919 44.0744 44.1244 46.3206 44.0147 49.2288C43.905 52.1371 46.5947 54.6063 50.0223 54.7438C53.4498 54.8813 56.3173 52.6352 56.427 49.7269C56.5367 46.8186 53.847 44.3495 50.4195 44.212Z" filter="url(#Filter_Polaroid_20)" shadowAngle="5.969" shadowColor="#000" shadowOffset=".296" shadowOpacity=".23" shadowRadius=".89"/><path id="cloud-16" fill="#f9e6ff" d="M81.1854 52.4784C78.2211 52.3371 74.8904 54.5867 74.7807 57.4953C74.671 60.4038 77.8239 62.8689 80.7882 63.0102C83.7526 63.1516 86.8388 61.5974 86.638 58.0605C86.4886 55.4289 84.1498 52.6197 81.1854 52.4784Z" filter="url(#Filter_Polaroid_21)" shadowAngle="5.969" shadowColor="#000" shadowOffset=".296" shadowOpacity=".23" shadowRadius=".89"/><path id="cloud-17" fill="#f9e6ff" d="M60.6969 46.3824C57.2693 46.2448 54.4018 48.4909 54.2921 51.3992C54.1824 54.3075 56.8721 56.7766 60.2997 56.9142C63.7272 57.0517 66.5947 54.8056 66.7044 51.8973C66.8141 48.989 64.1244 46.5199 60.6969 46.3824Z" filter="url(#Filter_Polaroid_22)" shadowAngle="5.969" shadowColor="#000" shadowOffset=".296" shadowOpacity=".23" shadowRadius=".89"/><path id="cloud-1" fill="#f9e6ff" d="M79.7571 38.2532C75.1415 38.2532 71.3998 41.265 71.3998 44.9801C71.3998 48.6954 75.1415 51.7071 79.7571 51.7071C82.6115 51.7071 85.1424 50.5552 86.65 48.7974L86.65 41.1084C85.1373 39.3813 82.5819 38.2532 79.7571 38.2532Z" filter="url(#Filter_Polaroid_23)" shadowAngle="5.969" shadowColor="#000" shadowOffset=".296" shadowOpacity=".23" shadowRadius=".949"/><path id="Mountain" fill="#0d47a1" stroke="#000" stroke-linecap="butt" stroke-linejoin="miter" stroke-opacity=".6" stroke-width=".11" d="M67.8372 43.9645L54.6807 54.6284L41.5579 64.7695L41.5579 78.5L86.65 78.5L86.65 57.5312L82.4068 54.6284L69.1127 44.8981L67.8372 43.9645Z" filter="url(#Filter_Polaroid_24)" shadowAngle="5.969" shadowColor="#000" shadowOffset=".296" shadowOpacity=".45" shadowRadius="1"/><path id="cloud-18" fill="#f9e6ff" d="M73.2298 46.0638C68.6726 46.4512 65.2521 49.899 65.5901 53.7647C65.928 57.6305 69.8965 60.4502 74.4538 60.0629C79.0111 59.6754 82.4316 56.2277 82.0936 52.362C81.7557 48.4962 77.7872 45.6765 73.2298 46.0638Z" filter="url(#Filter_Polaroid_25)" shadowAngle="5.969" shadowColor="#000" shadowOffset=".296" shadowOpacity=".23" shadowRadius=".89"/><g id="Clouds"><path id="cloud" fill="#f9e6ff" d="M39.2803 33.7586C34.7895 33.7586 31.149 36.9074 31.149 40.7916C31.149 44.6759 34.7895 47.8247 39.2803 47.8247C43.7711 47.8247 47.4116 44.6759 47.4116 40.7916C47.4116 36.9074 43.7711 33.7586 39.2803 33.7586Z" filter="url(#Filter_Polaroid_26)" shadowAngle="5.969" shadowColor="#000" shadowOffset=".296" shadowOpacity=".23" shadowRadius=".949"/><path id="cloud" fill="#f9e6ff" d="M28.486 37.3576C24.8113 37.3576 21.8324 39.9341 21.8324 43.1125C21.8324 46.2908 24.8113 48.8674 28.486 48.8674C32.1607 48.8674 35.1396 46.2908 35.1396 43.1125C35.1396 39.9341 32.1607 37.3576 28.486 37.3576Z" filter="url(#Filter_Polaroid_27)" shadowAngle="5.969" shadowColor="#000" shadowOffset=".296" shadowOpacity=".23" shadowRadius=".949"/></g><path id="cloud-14" fill="#f9e6ff" d="M37.7666 42.4233C35.7372 42.3419 31.3968 43.9962 31.2144 48.3484C31.0319 52.7006 35.2738 54.629 37.3032 54.7105C41.3021 54.8709 44.6475 52.2505 44.7755 48.8574C44.9034 45.4644 41.7655 42.5838 37.7666 42.4233Z" filter="url(#Filter_Polaroid_28)" shadowAngle="5.969" shadowColor="#000" shadowOffset=".296" shadowOpacity=".23" shadowRadius=".89"/><g id="Clouds-12"><path id="cloud" fill="#f9e6ff" d="M55.4772 36.0795C50.238 36.0795 45.9907 39.5646 45.9907 43.8639C45.9907 48.1631 50.238 51.6483 55.4772 51.6483C60.7165 51.6483 64.9638 48.1631 64.9638 43.8639C64.9638 39.5646 60.7165 36.0795 55.4772 36.0795Z" filter="url(#Filter_Polaroid_29)" shadowAngle="5.969" shadowColor="#000" shadowOffset=".296" shadowOpacity=".23" shadowRadius=".949"/><path id="cloud" fill="#f9e6ff" d="M40.6735 37.7582C36.9988 37.7582 34.0199 40.3348 34.0199 43.5131C34.0199 46.6915 36.9988 49.268 40.6735 49.268C44.3482 49.268 47.3271 46.6915 47.3271 43.5131C47.3271 40.3348 44.3482 37.7582 40.6735 37.7582Z" filter="url(#Filter_Polaroid_30)" shadowAngle="5.969" shadowColor="#000" shadowOffset=".296" shadowOpacity=".23" shadowRadius=".949"/><path id="cloud" fill="#f9e6ff" d="M86.6473 44.5438C85.7962 44.2813 84.8937 44.1125 83.9369 44.1125C79.4457 44.1125 75.8056 47.2609 75.8056 51.1455C75.8056 55.0301 79.4457 58.1785 83.9369 58.1785C84.8937 58.1785 85.7962 58.0097 86.6473 57.7471L86.6473 44.5438Z" filter="url(#Filter_Polaroid_31)" shadowAngle="5.969" shadowColor="#000" shadowOffset=".296" shadowOpacity=".23" shadowRadius=".949"/></g><g id="Clouds-11"><path id="cloud" fill="#f9e6ff" d="M10.9063 45.0703C8.88114 45.2242 4.76134 47.3696 5.08376 51.7137C5.40618 56.0579 9.84273 57.4824 11.8679 57.3285C15.8585 57.0251 18.8782 54.0351 18.6126 50.6501C18.3471 47.2651 14.8969 44.7669 10.9063 45.0703Z" filter="url(#Filter_Polaroid_32)" shadowAngle="5.969" shadowColor="#000" shadowOffset=".296" shadowOpacity=".15" shadowRadius=".949"/><path id="cloud" fill="#f9e6ff" d="M51.1627 42.01C46.6021 42.3567 43.151 45.7739 43.4544 49.6425C43.546 50.8092 43.9685 51.8837 44.6392 52.806C46.1925 54.9419 49.0764 56.2615 52.2616 56.0194C56.8222 55.6727 60.2733 52.2556 59.9699 48.387C59.6664 44.5184 55.7233 41.6633 51.1627 42.01Z" filter="url(#Filter_Polaroid_33)" shadowAngle="5.969" shadowColor="#000" shadowOffset=".296" shadowOpacity=".15" shadowRadius=".949"/><path id="cloud" fill="#f9e6ff" d="M30.5184 43.5794C27.0979 43.8394 24.5096 46.4023 24.7372 49.3037C24.9648 52.2051 27.9222 54.3464 31.3426 54.0864C34.7631 53.8264 37.3514 51.2635 37.1238 48.3621C36.8962 45.4607 33.9389 43.3194 30.5184 43.5794Z" filter="url(#Filter_Polaroid_34)" shadowAngle="5.969" shadowColor="#000" shadowOffset=".296" shadowOpacity=".15" shadowRadius=".949"/><path id="cloud" fill="#f9e6ff" d="M24.8898 44.2994C22.0909 44.5122 19.973 46.6093 20.1592 48.9835C20.3455 51.3576 22.7654 53.1098 25.5642 52.897C28.3631 52.6843 30.481 50.5871 30.2948 48.213C30.1086 45.8388 27.6887 44.0867 24.8898 44.2994Z" filter="url(#Filter_Polaroid_35)" shadowAngle="5.969" shadowColor="#000" shadowOffset=".296" shadowOpacity=".15" shadowRadius=".949"/><path id="cloud-1" fill="#f9e6ff" d="M58.855 25.3774C56.0589 25.1306 53.6272 26.854 53.4236 29.2268C53.22 31.5995 55.3215 33.723 58.1176 33.9698C60.9137 34.2166 63.3454 32.4931 63.549 30.1204C63.7527 27.7477 61.6511 25.6242 58.855 25.3774Z" filter="url(#Filter_Polaroid_36)" shadowAngle="5.969" shadowColor="#000" shadowOffset=".296" shadowOpacity=".15" shadowRadius=".949"/><path id="cloud" fill="#f9e6ff" d="M62.7233 48.3391C59.2345 48.7632 55.7952 51.8656 56.2476 55.058C56.7 58.2505 60.8727 60.3231 64.3615 59.8991C67.8503 59.475 71.143 57.1786 70.2028 53.3617C69.5032 50.5217 66.2121 47.9152 62.7233 48.3391Z" filter="url(#Filter_Polaroid_37)" shadowAngle="5.969" shadowColor="#000" shadowOffset=".296" shadowOpacity=".15" shadowRadius=".949"/></g><path id="Mountain-Made" fill="#0d47a1" d="M18.8802 78.69L93.1614 78.69L55.4773 52.3162L18.8802 78.69Z" filter="url(#Filter_Polaroid_38)" shadowAngle="5.969" shadowColor="#000" shadowOffset=".471" shadowOpacity=".45" shadowRadius="1"/><path id="Mountain-2" fill="#0d47a1" stroke="#000" stroke-linecap="butt" stroke-linejoin="miter" stroke-opacity=".6" stroke-width=".11" d="M10.75 47.5312L10.75 78.5L52.5279 78.506L10.75 47.5312Z" filter="url(#Filter_Polaroid_39)" shadowAngle="5.969" shadowColor="#000" shadowOffset=".296" shadowOpacity=".45" shadowRadius="1"/><path id="Mountain" fill="#1565c0" d="M35.1562 47.5312L22.9375 57.0938L20.1432 59.1787L10.75 66.1875L10.75 78.5L50.3797 78.5L78.9688 78.5L48.6875 57.0938L36.3408 48.3684L35.1562 47.5312Z" filter="url(#Filter_Polaroid_40)" shadowAngle="5.969" shadowColor="#000" shadowOffset=".296" shadowOpacity=".45" shadowRadius="1"/><path id="Frame" fill="#e1e7ea" d="M4.23966 1.00622L4.23966 91.9305L93.1633 91.9305L93.1633 1.00622L4.23966 1.00622ZM10.7589 7.69792L86.6441 7.69792L86.6441 78.0297L10.7589 78.0297L10.7589 7.69792Z" filter="url(#Filter_Polaroid_41)" shadowAngle=".863" shadowColor="#000" shadowOffset="0" shadowOpacity=".25" shadowRadius="2.231"/><g id="PolaroidGroup-1"><path id="Shadow" fill="url(#LinearGradient_Polaroid_3)" d="M84.328 53.2242C83.6828 53.1939 83.0204 53.3178 82.4907 53.5955L41.1174 74.0186C38.5188 73.6461 35.7323 73.9252 33.5712 75.112C29.983 77.0825 24.8438 86.4375 24.8438 86.4375C24.8438 86.4375 41.3024 85.2517 44.8906 83.2812C47.2408 81.9906 48.0721 80.0906 47.581 78.2889L85.7716 55.9473C86.8312 55.3902 86.942 54.409 86.0341 53.7606C85.5789 53.4356 84.9732 53.2546 84.328 53.2242Z"/><path id="Handle" fill="url(#LinearGradient_Polaroid_4)" d="M38.8752 68.787L79.7376 36.6805C80.7468 35.8389 82.2666 35.9514 83.1337 36.936C83.9984 37.9183 83.8804 39.3976 82.8712 40.2415L44.9279 75.5762L38.8752 68.787Z"/><g id="BrushHead"><path id="Brush-Base1" fill="#fff" stroke="#8e90a5" stroke-linecap="butt" stroke-linejoin="miter" stroke-width=".1" d="M43.9393 81.6725C41.0195 84.2227 29.1509 85.8934 25.7553 86.326C25.1764 86.3997 30.5895 73.1172 34.0071 70.1322C37.4248 67.1473 41.7403 66.6628 44.7253 70.0805C47.7075 73.4981 47.357 78.6876 43.9393 81.6725Z"/><path id="BrushBasr-2" fill="#fff" d="M43.9521 81.6605C40.5345 84.6455 24.8566 86.4255 24.8566 86.4255C24.8566 86.4255 29.7284 72.2675 33.146 69.2825C36.5637 66.2976 41.7531 66.6508 44.7381 70.0685C47.7203 73.4861 47.3698 78.6756 43.9521 81.6605Z"/><path id="Brush" fill="url(#LinearGradient_Polaroid_5)" d="M43.9521 81.6605C40.5345 84.6455 24.8566 86.4255 24.8566 86.4255C24.8566 86.4255 29.7284 72.2675 33.146 69.2825C36.5637 66.2976 41.7531 66.6508 44.7381 70.0685C47.7203 73.4861 47.3698 78.6756 43.9521 81.6605Z"/><path id="BrushGradiant" fill="url(#LinearGradient_Polaroid_6)" d="M43.9521 81.6605C41.2548 84.0164 30.9207 85.6217 26.6843 86.1937C25.553 86.3464 24.8566 86.4255 24.8566 86.4255C24.8566 86.4255 29.7284 72.2675 33.146 69.2825C36.5637 66.2976 41.7531 66.6508 44.7381 70.0685C47.7203 73.4861 47.3698 78.6756 43.9521 81.6605Z" opacity=".288"/></g></g></g></svg>