<svg xmlns="http://www.w3.org/2000/svg" xmlns:vectornator="http://vectornator.io" xmlns:xlink="http://www.w3.org/1999/xlink" width="100%" height="100%" stroke-miterlimit="10" version="1.1" viewBox="0 0 100 100" xml:space="preserve" style="fill-rule:nonzero;clip-rule:evenodd;stroke-linecap:round;stroke-linejoin:round"><defs><linearGradient id="LinearGradient_Polaroid" x1="0" x2="100" y1="50" y2="50" gradientTransform="matrix(1 0 0 1 0 0)" gradientUnits="userSpaceOnUse"><stop offset=".167" stop-color="#fff" stop-opacity="0"/><stop offset=".5" stop-color="#fff" stop-opacity="0"/><stop offset=".86" stop-color="#bebebe" stop-opacity="0"/><stop offset="1" stop-color="#a9a9a9" stop-opacity="0"/></linearGradient><linearGradient id="LinearGradient_Polaroid_2" x1="9.716" x2="100.85" y1="42.534" y2="43.257" gradientTransform="matrix(1.02579 0 0 1.02579 -1.28973 -0.234821)" gradientUnits="userSpaceOnUse"><stop offset="0" stop-color="#50e6fe"/><stop offset="1" stop-color="#00b1ff"/></linearGradient><linearGradient id="LinearGradient_Polaroid_3" x1="61.505" x2="84.523" y1="42.534" y2="42.534" gradientTransform="matrix(1.02579 0 0 1.02579 -1.28973 -0.234821)" gradientUnits="userSpaceOnUse"><stop offset="0" stop-color="#f1c2ff"/><stop offset="1" stop-color="#ee7fff"/></linearGradient><filter id="Filter_Polaroid" width="30.465" height="27.276" x="58.375" y="30.589" color-interpolation-filters="sRGB" filterUnits="userSpaceOnUse"><feDropShadow dx="0" dy=".831" flood-color="#000" flood-opacity=".6" in="SourceGraphic" result="Shadow" stdDeviation="1.371"/></filter><linearGradient id="LinearGradient_Polaroid_4" x1="49.997" x2="67.26" y1="42.534" y2="42.534" gradientTransform="matrix(1.02579 0 0 1.02579 -1.28973 -0.234821)" gradientUnits="userSpaceOnUse"><stop offset="0" stop-color="#f1c2ff"/><stop offset="1" stop-color="#ee7fff"/></linearGradient><filter id="Filter_Polaroid_2" width="24.562" height="22.17" x="46.57" y="33.142" color-interpolation-filters="sRGB" filterUnits="userSpaceOnUse"><feDropShadow dx="0" dy=".831" flood-color="#000" flood-opacity=".6" in="SourceGraphic" result="Shadow" stdDeviation="1.371"/></filter><linearGradient id="LinearGradient_Polaroid_5" x1="35.611" x2="52.874" y1="40.046" y2="40.046" gradientTransform="matrix(1.02579 0 0 1.02579 -1.28973 -0.234821)" gradientUnits="userSpaceOnUse"><stop offset="0" stop-color="#f1c2ff"/><stop offset="1" stop-color="#ee7fff"/></linearGradient><filter id="Filter_Polaroid_3" width="24.562" height="22.17" x="31.813" y="30.589" color-interpolation-filters="sRGB" filterUnits="userSpaceOnUse"><feDropShadow dx="0" dy=".831" flood-color="#000" flood-opacity=".6" in="SourceGraphic" result="Shadow" stdDeviation="1.371"/></filter><linearGradient id="LinearGradient_Polaroid_6" x1="78.768" x2="90.277" y1="50" y2="50" gradientTransform="matrix(1.02579 0 0 1.02579 -1.28973 -0.234821)" gradientUnits="userSpaceOnUse"><stop offset="0" stop-color="#f1c2ff"/><stop offset="1" stop-color="#ee7fff"/></linearGradient><filter id="Filter_Polaroid_4" width="18.659" height="22.17" x="76.084" y="40.8" color-interpolation-filters="sRGB" filterUnits="userSpaceOnUse"><feDropShadow dx="0" dy=".831" flood-color="#000" flood-opacity=".6" in="SourceGraphic" result="Shadow" stdDeviation="1.371"/></filter><linearGradient id="LinearGradient_Polaroid_7" x1="33.351" x2="47.477" y1="40.837" y2="40.837" gradientTransform="matrix(1.02579 0 0 1.02579 -1.28973 -0.234821)" gradientUnits="userSpaceOnUse"><stop offset="0" stop-color="#f1c2ff"/><stop offset="1" stop-color="#ee7fff"/></linearGradient><filter id="Filter_Polaroid_5" width="21.344" height="19.387" x="29.494" y="32.792" color-interpolation-filters="sRGB" filterUnits="userSpaceOnUse"><feDropShadow dx="0" dy=".831" flood-color="#000" flood-opacity=".6" in="SourceGraphic" result="Shadow" stdDeviation="1.371"/></filter><linearGradient id="LinearGradient_Polaroid_8" x1="22.436" x2="39.7" y1="34.946" y2="34.946" gradientTransform="matrix(1.02579 0 0 1.02579 -1.28973 -0.234821)" gradientUnits="userSpaceOnUse"><stop offset="0" stop-color="#f1c2ff"/><stop offset="1" stop-color="#ee7fff"/></linearGradient><filter id="Filter_Polaroid_6" width="24.562" height="22.17" x="18.299" y="25.358" color-interpolation-filters="sRGB" filterUnits="userSpaceOnUse"><feDropShadow dx="0" dy=".831" flood-color="#000" flood-opacity=".6" in="SourceGraphic" result="Shadow" stdDeviation="1.371"/></filter><linearGradient id="LinearGradient_Polaroid_9" x1="9.716" x2="26.979" y1="41.29" y2="41.29" gradientTransform="matrix(1.02579 0 0 1.02579 -1.28973 -0.234821)" gradientUnits="userSpaceOnUse"><stop offset="0" stop-color="#f1c2ff"/><stop offset="1" stop-color="#ee7fff"/></linearGradient><filter id="Filter_Polaroid_7" width="24.562" height="24.723" x="5.25" y="30.589" color-interpolation-filters="sRGB" filterUnits="userSpaceOnUse"><feDropShadow dx="0" dy=".831" flood-color="#000" flood-opacity=".6" in="SourceGraphic" result="Shadow" stdDeviation="1.371"/></filter><linearGradient id="LinearGradient_Polaroid_10" x1="48.131" x2="65.11" y1="48.789" y2="48.789" gradientTransform="matrix(1.02579 0 0 1.02579 -1.28973 -0.234821)" gradientUnits="userSpaceOnUse"><stop offset="0" stop-color="#f1c2ff"/><stop offset="1" stop-color="#ee7fff"/></linearGradient><filter id="Filter_Polaroid_8" width="22.474" height="20.121" x="45.554" y="40.365" color-interpolation-filters="sRGB" filterUnits="userSpaceOnUse"><feDropShadow dx="0" dy=".613" flood-color="#000" flood-opacity=".6" in="SourceGraphic" result="Shadow" stdDeviation="1.011"/></filter><linearGradient id="LinearGradient_Polaroid_11" x1="39.641" x2="52.376" y1="48.789" y2="48.789" gradientTransform="matrix(1.02579 0 0 1.02579 -1.28973 -0.234821)" gradientUnits="userSpaceOnUse"><stop offset="0" stop-color="#f1c2ff"/><stop offset="1" stop-color="#ee7fff"/></linearGradient><filter id="Filter_Polaroid_9" width="18.119" height="16.355" x="36.846" y="42.248" color-interpolation-filters="sRGB" filterUnits="userSpaceOnUse"><feDropShadow dx="0" dy=".613" flood-color="#000" flood-opacity=".6" in="SourceGraphic" result="Shadow" stdDeviation="1.011"/></filter><linearGradient id="LinearGradient_Polaroid_12" x1="29.028" x2="41.763" y1="46.953" y2="46.953" gradientTransform="matrix(1.02579 0 0 1.02579 -1.28973 -0.234821)" gradientUnits="userSpaceOnUse"><stop offset="0" stop-color="#f1c2ff"/><stop offset="1" stop-color="#ee7fff"/></linearGradient><filter id="Filter_Polaroid_10" width="18.119" height="16.355" x="25.959" y="40.365" color-interpolation-filters="sRGB" filterUnits="userSpaceOnUse"><feDropShadow dx="0" dy=".613" flood-color="#000" flood-opacity=".6" in="SourceGraphic" result="Shadow" stdDeviation="1.011"/></filter><linearGradient id="LinearGradient_Polaroid_13" x1="60.865" x2="69.355" y1="54.296" y2="54.296" gradientTransform="matrix(1.02579 0 0 1.02579 -1.28973 -0.234821)" gradientUnits="userSpaceOnUse"><stop offset="0" stop-color="#f1c2ff"/><stop offset="1" stop-color="#ee7fff"/></linearGradient><filter id="Filter_Polaroid_11" width="13.765" height="16.355" x="58.618" y="47.897" color-interpolation-filters="sRGB" filterUnits="userSpaceOnUse"><feDropShadow dx="0" dy=".613" flood-color="#000" flood-opacity=".6" in="SourceGraphic" result="Shadow" stdDeviation="1.011"/></filter><linearGradient id="LinearGradient_Polaroid_14" x1="27.361" x2="37.782" y1="47.536" y2="47.536" gradientTransform="matrix(1.02579 0 0 1.02579 -1.28973 -0.234821)" gradientUnits="userSpaceOnUse"><stop offset="0" stop-color="#f1c2ff"/><stop offset="1" stop-color="#ee7fff"/></linearGradient><filter id="Filter_Polaroid_12" width="15.745" height="14.302" x="24.249" y="41.99" color-interpolation-filters="sRGB" filterUnits="userSpaceOnUse"><feDropShadow dx="0" dy=".613" flood-color="#000" flood-opacity=".6" in="SourceGraphic" result="Shadow" stdDeviation="1.011"/></filter><linearGradient id="LinearGradient_Polaroid_15" x1="19.31" x2="32.045" y1="43.191" y2="43.191" gradientTransform="matrix(1.02579 0 0 1.02579 -1.28973 -0.234821)" gradientUnits="userSpaceOnUse"><stop offset="0" stop-color="#f1c2ff"/><stop offset="1" stop-color="#ee7fff"/></linearGradient><filter id="Filter_Polaroid_13" width="18.119" height="16.355" x="15.99" y="36.505" color-interpolation-filters="sRGB" filterUnits="userSpaceOnUse"><feDropShadow dx="0" dy=".613" flood-color="#000" flood-opacity=".6" in="SourceGraphic" result="Shadow" stdDeviation="1.011"/></filter><linearGradient id="LinearGradient_Polaroid_16" x1="9.926" x2="22.661" y1="47.871" y2="47.871" gradientTransform="matrix(1.02579 0 0 1.02579 -1.28973 -0.234821)" gradientUnits="userSpaceOnUse"><stop offset="0" stop-color="#f1c2ff"/><stop offset="1" stop-color="#ee7fff"/></linearGradient><filter id="Filter_Polaroid_14" width="18.119" height="18.238" x="6.364" y="40.365" color-interpolation-filters="sRGB" filterUnits="userSpaceOnUse"><feDropShadow dx="0" dy=".613" flood-color="#000" flood-opacity=".6" in="SourceGraphic" result="Shadow" stdDeviation="1.011"/></filter><linearGradient id="LinearGradient_Polaroid_17" x1="69.203" x2="86.183" y1="51.598" y2="51.598" gradientTransform="matrix(1.02579 0 0 1.02579 -1.28973 -0.234821)" gradientUnits="userSpaceOnUse"><stop offset="0" stop-color="#f1c2ff"/><stop offset="1" stop-color="#ee7fff"/></linearGradient><filter id="Filter_Polaroid_15" width="22.474" height="20.121" x="67.17" y="43.246" color-interpolation-filters="sRGB" filterUnits="userSpaceOnUse"><feDropShadow dx="0" dy=".613" flood-color="#000" flood-opacity=".6" in="SourceGraphic" result="Shadow" stdDeviation="1.011"/></filter><linearGradient id="LinearGradient_Polaroid_18" x1="60.713" x2="73.448" y1="51.598" y2="51.598" gradientTransform="matrix(1.02579 0 0 1.02579 -1.28973 -0.234821)" gradientUnits="userSpaceOnUse"><stop offset="0" stop-color="#f1c2ff"/><stop offset="1" stop-color="#ee7fff"/></linearGradient><filter id="Filter_Polaroid_16" width="18.119" height="16.355" x="58.461" y="45.129" color-interpolation-filters="sRGB" filterUnits="userSpaceOnUse"><feDropShadow dx="0" dy=".613" flood-color="#000" flood-opacity=".6" in="SourceGraphic" result="Shadow" stdDeviation="1.011"/></filter><linearGradient id="LinearGradient_Polaroid_19" x1="50.101" x2="62.835" y1="49.762" y2="49.762" gradientTransform="matrix(1.02579 0 0 1.02579 -1.28973 -0.234821)" gradientUnits="userSpaceOnUse"><stop offset="0" stop-color="#f1c2ff"/><stop offset="1" stop-color="#ee7fff"/></linearGradient><filter id="Filter_Polaroid_17" width="18.119" height="16.355" x="47.575" y="43.246" color-interpolation-filters="sRGB" filterUnits="userSpaceOnUse"><feDropShadow dx="0" dy=".613" flood-color="#000" flood-opacity=".6" in="SourceGraphic" result="Shadow" stdDeviation="1.011"/></filter><linearGradient id="LinearGradient_Polaroid_20" x1="81.938" x2="90.428" y1="57.105" y2="57.105" gradientTransform="matrix(1.02579 0 0 1.02579 -1.28973 -0.234821)" gradientUnits="userSpaceOnUse"><stop offset="0" stop-color="#f1c2ff"/><stop offset="1" stop-color="#ee7fff"/></linearGradient><filter id="Filter_Polaroid_18" width="13.765" height="16.355" x="80.234" y="50.779" color-interpolation-filters="sRGB" filterUnits="userSpaceOnUse"><feDropShadow dx="0" dy=".613" flood-color="#000" flood-opacity=".6" in="SourceGraphic" result="Shadow" stdDeviation="1.011"/></filter><linearGradient id="LinearGradient_Polaroid_21" x1="48.016" x2="58.437" y1="52.501" y2="52.501" gradientTransform="matrix(1.02579 0 0 1.02579 -1.28973 -0.234821)" gradientUnits="userSpaceOnUse"><stop offset="0" stop-color="#f1c2ff"/><stop offset="1" stop-color="#ee7fff"/></linearGradient><filter id="Filter_Polaroid_19" width="15.745" height="14.302" x="45.437" y="47.082" color-interpolation-filters="sRGB" filterUnits="userSpaceOnUse"><feDropShadow dx="0" dy=".613" flood-color="#000" flood-opacity=".6" in="SourceGraphic" result="Shadow" stdDeviation="1.011"/></filter><linearGradient id="LinearGradient_Polaroid_22" x1="66.189" x2="91.746" y1="49.448" y2="49.448" gradientTransform="matrix(1.02579 0 0 1.02579 -1.28973 -0.234821)" gradientUnits="userSpaceOnUse"><stop offset="0" stop-color="#f1c2ff"/><stop offset="1" stop-color="#ee7fff"/></linearGradient><filter id="Filter_Polaroid_20" width="34.319" height="38.124" x="62.555" y="31.426" color-interpolation-filters="sRGB" filterUnits="userSpaceOnUse"><feGaussianBlur in="SourceGraphic" result="Blur" stdDeviation="1.621"/></filter><linearGradient id="LinearGradient_Polaroid_23" x1="85.043" x2="24.515" y1="86.047" y2="54.147" gradientTransform="matrix(1.02579 0 0 1.02579 -1.28973 -0.234821)" gradientUnits="userSpaceOnUse"><stop offset="0" stop-color="#333fb5"/><stop offset="1" stop-color="#251585"/></linearGradient><linearGradient id="LinearGradient_Polaroid_24" x1="49.274" x2="90.461" y1="65.737" y2="65.737" gradientTransform="matrix(1.02579 0 0 1.02579 -1.28973 -0.234821)" gradientUnits="userSpaceOnUse"><stop offset="0" stop-color="#333fb5"/><stop offset="1" stop-color="#251585"/></linearGradient><filter id="Filter_Polaroid_21" width="58.959" height="48.239" x="40.806" y="37.275" color-interpolation-filters="sRGB" filterUnits="userSpaceOnUse"><feGaussianBlur in="SourceGraphic" result="Blur" stdDeviation="1.621"/></filter><filter id="Filter_Polaroid_22" width="104.437" height="106" x="-1.812" y="-4.083" color-interpolation-filters="sRGB" filterUnits="userSpaceOnUse"><feDropShadow dx=".399" dy=".917" flood-color="#000" flood-opacity=".5" in="SourceGraphic" result="Shadow" stdDeviation="2"/></filter><filter id="Filter_Polaroid_23" width="35.136" height="29.649" x="20.685" y="66.855" color-interpolation-filters="sRGB" filterUnits="userSpaceOnUse"><feGaussianBlur in="SourceGraphic" result="Blur" stdDeviation="1.621"/></filter><linearGradient id="LinearGradient_Polaroid_25" x1="37.462" x2="46.732" y1="37.846" y2="40.75" gradientTransform="matrix(1.02579 0 0 1.02579 -1.28973 -0.234821)" gradientUnits="userSpaceOnUse"><stop offset="0" stop-color="#ff1744"/><stop offset="1" stop-color="#9c283e"/></linearGradient><linearGradient id="LinearGradient_Polaroid_26" x1="42.689" x2="53.645" y1="59.288" y2="84.907" gradientTransform="matrix(0.948365 -0.616758 0.619861 0.953137 -52.82 22.4857)" gradientUnits="userSpaceOnUse"><stop offset=".167" stop-color="#fff"/><stop offset=".5" stop-color="#fff"/><stop offset=".86" stop-color="#bebebe"/><stop offset="1" stop-color="#a9a9a9"/></linearGradient></defs><path fill="url(#LinearGradient_Polaroid)" fill-rule="nonzero" stroke="none" d="M0 0L100 0L100 100L0 100L0 0Z" opacity="1"/><g id="Polaroid-1"><g id="PolaroidGroup-12" opacity="1"><path id="Polaroid-12" fill="url(#LinearGradient_Polaroid_2)" fill-rule="nonzero" stroke="none" d="M8.677 5.10549L91.316 5.10549L91.316 81.6878L8.677 81.6878L8.677 5.10549Z" opacity="1"/><g id="PolaroidGroup-6" opacity="1"><path id="Polaroid-5" fill="url(#LinearGradient_Polaroid_3)" fill-rule="nonzero" stroke="none" d="M73.6077 33.1857C67.0876 33.1857 61.802 37.7573 61.802 43.3967C61.802 49.036 67.0876 53.6077 73.6077 53.6077C80.1277 53.6077 85.4132 49.036 85.4132 43.3967C85.4132 37.7573 80.1277 33.1857 73.6077 33.1857Z" filter="url(#Filter_Polaroid)" shadowAngle="1.571" shadowColor="#000000" shadowOffset=".831" shadowOpacity=".6" shadowRadius="2.741"/><path id="Polaroid-7" fill="url(#LinearGradient_Polaroid_4)" fill-rule="nonzero" stroke="none" d="M58.8507 35.7384C53.9607 35.7384 49.9965 39.1671 49.9965 43.3967C49.9965 47.6262 53.9607 51.0549 58.8507 51.0549C63.7407 51.0549 67.7049 47.6262 67.7049 43.3967C67.7049 39.1671 63.7407 35.7384 58.8507 35.7384Z" filter="url(#Filter_Polaroid_2)" shadowAngle="1.571" shadowColor="#000000" shadowOffset=".831" shadowOpacity=".6" shadowRadius="2.741"/><path id="Polaroid-4" fill="url(#LinearGradient_Polaroid_5)" fill-rule="nonzero" stroke="none" d="M44.0937 33.1857C39.2037 33.1857 35.2396 36.6144 35.2396 40.8439C35.2396 45.0735 39.2037 48.5022 44.0937 48.5022C48.9837 48.5022 52.9479 45.0735 52.9479 40.8439C52.9479 36.6144 48.9837 33.1857 44.0937 33.1857Z" filter="url(#Filter_Polaroid_3)" shadowAngle="1.571" shadowColor="#000000" shadowOffset=".831" shadowOpacity=".6" shadowRadius="2.741"/><path id="Polaroid-6" fill="url(#LinearGradient_Polaroid_6)" fill-rule="nonzero" stroke="none" d="M91.316 43.8664C90.3893 43.5805 89.4064 43.3967 88.3646 43.3967C83.4742 43.3967 79.5104 46.8251 79.5104 51.0549C79.5104 55.2848 83.4742 58.7132 88.3646 58.7132C89.4064 58.7132 90.3893 58.5293 91.316 58.2434L91.316 43.8664Z" filter="url(#Filter_Polaroid_4)" shadowAngle="1.571" shadowColor="#000000" shadowOffset=".831" shadowOpacity=".6" shadowRadius="2.741"/><path id="Polaroid-4" fill="url(#LinearGradient_Polaroid_7)" fill-rule="nonzero" stroke="none" d="M40.1663 35.3886C36.1649 35.3886 32.9211 38.1942 32.9211 41.6551C32.9211 45.116 36.1649 47.9217 40.1663 47.9217C44.1676 47.9217 47.4114 45.116 47.4114 41.6551C47.4114 38.1942 44.1676 35.3886 40.1663 35.3886Z" filter="url(#Filter_Polaroid_5)" shadowAngle="1.571" shadowColor="#000000" shadowOffset=".831" shadowOpacity=".6" shadowRadius="2.741"/><path id="Polaroid-2" fill="url(#LinearGradient_Polaroid_8)" fill-rule="nonzero" stroke="none" d="M30.5797 27.9544C25.6896 27.9544 21.7255 31.3831 21.7255 35.6127C21.7255 39.8422 25.6896 43.2709 30.5797 43.2709C35.4697 43.2709 39.4339 39.8422 39.4339 35.6127C39.4339 31.3831 35.4697 27.9544 30.5797 27.9544Z" filter="url(#Filter_Polaroid_6)" shadowAngle="1.571" shadowColor="#000000" shadowOffset=".831" shadowOpacity=".6" shadowRadius="2.741"/><path id="Polaroid-4" fill="url(#LinearGradient_Polaroid_9)" fill-rule="nonzero" stroke="none" d="M16.0554 33.1857C13.1602 33.1857 10.5511 34.2222 8.677 35.8814L8.677 48.3617C10.5511 50.0185 13.1602 51.0549 16.0554 51.0549C21.7605 51.0549 26.3853 47.0547 26.3853 42.1203C26.3853 37.1858 21.7605 33.1857 16.0554 33.1857Z" filter="url(#Filter_Polaroid_7)" shadowAngle="1.571" shadowColor="#000000" shadowOffset=".831" shadowOpacity=".6" shadowRadius="2.741"/></g><path id="Polaroid-20" fill="#0d47a1" fill-rule="nonzero" stroke="none" d="M49.9965 58.7132L57.375 53.6077L91.316 76.5824L91.316 82.2238L82.4618 82.2238L49.9965 58.7132Z" opacity="1"/><g id="PolaroidGroup-7" opacity="1"><path id="Polaroid-5" fill="url(#LinearGradient_Polaroid_10)" fill-rule="nonzero" stroke="none" d="M56.7913 42.2798C51.9815 42.2798 48.0824 45.6523 48.0824 49.8124C48.0824 53.9725 51.9815 57.345 56.7913 57.345C61.6011 57.345 65.5002 53.9725 65.5002 49.8124C65.5002 45.6523 61.6011 42.2798 56.7913 42.2798Z" filter="url(#Filter_Polaroid_8)" shadowAngle="1.571" shadowColor="#000000" shadowOffset=".613" shadowOpacity=".6" shadowRadius="2.022"/><path id="Polaroid-7" fill="url(#LinearGradient_Polaroid_11)" fill-rule="nonzero" stroke="none" d="M45.9051 44.163C42.2978 44.163 39.3735 46.6923 39.3735 49.8124C39.3735 52.9325 42.2978 55.4619 45.9051 55.4619C49.5125 55.4619 52.4369 52.9325 52.4369 49.8124C52.4369 46.6923 49.5125 44.163 45.9051 44.163Z" filter="url(#Filter_Polaroid_9)" shadowAngle="1.571" shadowColor="#000000" shadowOffset=".613" shadowOpacity=".6" shadowRadius="2.022"/><path id="Polaroid-4" fill="url(#LinearGradient_Polaroid_12)" fill-rule="nonzero" stroke="none" d="M35.0191 42.2798C31.4117 42.2798 28.4874 44.8092 28.4874 47.9293C28.4874 51.0494 31.4117 53.5787 35.0191 53.5787C38.6264 53.5787 41.5507 51.0494 41.5507 47.9293C41.5507 44.8092 38.6264 42.2798 35.0191 42.2798Z" filter="url(#Filter_Polaroid_10)" shadowAngle="1.571" shadowColor="#000000" shadowOffset=".613" shadowOpacity=".6" shadowRadius="2.022"/><path id="Polaroid-6" fill="url(#LinearGradient_Polaroid_13)" fill-rule="nonzero" stroke="none" d="M69.8546 50.1589C69.171 49.948 68.4459 49.8124 67.6774 49.8124C64.0698 49.8124 61.1457 52.3415 61.1457 55.4619C61.1457 58.5822 64.0698 61.1113 67.6774 61.1113C68.4459 61.1113 69.171 60.9757 69.8546 60.7648L69.8546 50.1589Z" filter="url(#Filter_Polaroid_11)" shadowAngle="1.571" shadowColor="#000000" shadowOffset=".613" shadowOpacity=".6" shadowRadius="2.022"/><path id="Polaroid-4" fill="url(#LinearGradient_Polaroid_14)" fill-rule="nonzero" stroke="none" d="M32.1218 43.9049C29.17 43.9049 26.7771 45.9746 26.7771 48.5277C26.7771 51.0808 29.17 53.1505 32.1218 53.1505C35.0735 53.1505 37.4665 51.0808 37.4665 48.5277C37.4665 45.9746 35.0735 43.9049 32.1218 43.9049Z" filter="url(#Filter_Polaroid_12)" shadowAngle="1.571" shadowColor="#000000" shadowOffset=".613" shadowOpacity=".6" shadowRadius="2.022"/><path id="Polaroid-2" fill="url(#LinearGradient_Polaroid_15)" fill-rule="nonzero" stroke="none" d="M25.0498 38.4208C21.4425 38.4208 18.5182 40.9501 18.5182 44.0702C18.5182 47.1903 21.4425 49.7197 25.0498 49.7197C28.6571 49.7197 31.5815 47.1903 31.5815 44.0702C31.5815 40.9501 28.6571 38.4208 25.0498 38.4208Z" filter="url(#Filter_Polaroid_13)" shadowAngle="1.571" shadowColor="#000000" shadowOffset=".613" shadowOpacity=".6" shadowRadius="2.022"/><path id="Polaroid-4" fill="url(#LinearGradient_Polaroid_16)" fill-rule="nonzero" stroke="none" d="M14.3354 42.2798C12.1996 42.2798 10.2749 43.0444 8.89235 44.2685L8.89235 53.4751C10.2749 54.6973 12.1996 55.4619 14.3354 55.4619C18.544 55.4619 21.9557 52.511 21.9557 48.8709C21.9557 45.2307 18.544 42.2798 14.3354 42.2798Z" filter="url(#Filter_Polaroid_14)" shadowAngle="1.571" shadowColor="#000000" shadowOffset=".613" shadowOpacity=".6" shadowRadius="2.022"/></g><g id="PolaroidGroup-8" opacity="1"><path id="Polaroid-5" fill="url(#LinearGradient_Polaroid_17)" fill-rule="nonzero" stroke="none" d="M78.4071 45.1612C73.5972 45.1612 69.6981 48.5337 69.6981 52.6938C69.6981 56.8539 73.5972 60.2264 78.4071 60.2264C83.2169 60.2264 87.116 56.8539 87.116 52.6938C87.116 48.5337 83.2169 45.1612 78.4071 45.1612Z" filter="url(#Filter_Polaroid_15)" shadowAngle="1.571" shadowColor="#000000" shadowOffset=".613" shadowOpacity=".6" shadowRadius="2.022"/><path id="Polaroid-7" fill="url(#LinearGradient_Polaroid_18)" fill-rule="nonzero" stroke="none" d="M67.5209 47.0443C63.9136 47.0443 60.9893 49.5737 60.9893 52.6938C60.9893 55.8139 63.9136 58.3432 67.5209 58.3432C71.1283 58.3432 74.0527 55.8139 74.0527 52.6938C74.0527 49.5737 71.1283 47.0443 67.5209 47.0443Z" filter="url(#Filter_Polaroid_16)" shadowAngle="1.571" shadowColor="#000000" shadowOffset=".613" shadowOpacity=".6" shadowRadius="2.022"/><path id="Polaroid-4" fill="url(#LinearGradient_Polaroid_19)" fill-rule="nonzero" stroke="none" d="M56.6348 45.1612C53.0275 45.1612 50.1032 47.6905 50.1032 50.8106C50.1032 53.9308 53.0275 56.4601 56.6348 56.4601C60.2421 56.4601 63.1665 53.9308 63.1665 50.8106C63.1665 47.6905 60.2421 45.1612 56.6348 45.1612Z" filter="url(#Filter_Polaroid_17)" shadowAngle="1.571" shadowColor="#000000" shadowOffset=".613" shadowOpacity=".6" shadowRadius="2.022"/><path id="Polaroid-6" fill="url(#LinearGradient_Polaroid_20)" fill-rule="nonzero" stroke="none" d="M91.4704 53.0403C90.7868 52.8294 90.0617 52.6938 89.2932 52.6938C85.6856 52.6938 82.7615 55.2229 82.7615 58.3432C82.7615 61.4636 85.6856 63.9927 89.2932 63.9927C90.0617 63.9927 90.7868 63.8571 91.4704 63.6462L91.4704 53.0403Z" filter="url(#Filter_Polaroid_18)" shadowAngle="1.571" shadowColor="#000000" shadowOffset=".613" shadowOpacity=".6" shadowRadius="2.022"/><path id="Polaroid-4" fill="url(#LinearGradient_Polaroid_21)" fill-rule="nonzero" stroke="none" d="M53.3097 48.9971C50.3579 48.9971 47.965 51.0668 47.965 53.6199C47.965 56.173 50.3579 58.2427 53.3097 58.2427C56.2614 58.2427 58.6544 56.173 58.6544 53.6199C58.6544 51.0668 56.2614 48.9971 53.3097 48.9971Z" filter="url(#Filter_Polaroid_19)" shadowAngle="1.571" shadowColor="#000000" shadowOffset=".613" shadowOpacity=".6" shadowRadius="2.022"/></g><path id="Polaroid-1" fill="#0d47a1" fill-rule="nonzero" stroke="none" d="M8.67294 48.5022L8.67294 68.9242L21.9542 58.7132L8.67294 48.5022Z" opacity="1"/><path id="Polaroid-1" fill="#0d47a1" fill-rule="nonzero" stroke="none" d="M58.8985 63.8948L47.1808 74.8644L44.7091 80.7641L55.3282 80.7641L66.5882 70.2554L58.8985 63.8948Z" opacity="1"/><path id="Polaroid-26" fill="#1565c0" fill-rule="nonzero" stroke="none" d="M66.5566 59.8928L75.2433 65.7494L91.316 76.5856L91.316 82.3046L57.1381 82.3046L53.984 82.3046L50.9896 82.3046L47.1421 82.3046C47.2147 82.2238 48.4306 80.2224 47.7669 77.182L66.5566 59.8928Z" opacity="1"/><path id="Polaroid-25" fill="url(#LinearGradient_Polaroid_22)" fill-rule="nonzero" stroke="none" d="M92.8224 49.1178L92.8224 35.4778L66.6064 59.7919L74.931 65.4995L92.8224 49.1178Z" blur="3.241" filter="url(#Filter_Polaroid_20)" opacity=".5"/><path id="Polaroid-19" fill="url(#LinearGradient_Polaroid_23)" fill-rule="nonzero" stroke="none" d="M8.677 82.3046L8.677 48.5022L22.6087 59.2127L35.2396 48.5022L49.6229 58.2808L55.8314 52.1648L91.4032 76.0562L91.316 82.3046L8.677 82.3046Z" opacity="1"/><path id="Polaroid-27" fill="#0d47a1" fill-rule="nonzero" stroke="none" d="M66.3813 59.704L91.316 76.5824L91.316 82.2238L82.4618 82.2238L59.8417 65.8472L66.3813 59.704Z" opacity="1"/><path id="Polaroid-23" fill="#ff1744" fill-rule="nonzero" stroke="none" d="M39.5772 71.6913L93.0061 28.6775C94.0757 27.7611 95.6865 27.8836 96.6055 28.9558C97.522 30.0254 97.3968 31.6362 96.3272 32.5552L45.9922 79.0841L39.5772 71.6913Z" opacity="0"/><path id="Polaroid-23" fill="url(#LinearGradient_Polaroid_24)" fill-rule="nonzero" stroke="none" d="M55.795 52.0916L91.5049 76.048L91.3131 82.3046L82.5971 82.3046L49.2555 58.4394L55.795 52.0916Z" opacity="1"/><path id="Polaroid-10" fill="#ffccfb" fill-rule="nonzero" stroke="none" d="M2.77421 0L97.2188 0L97.2188 94.579L2.77421 94.579L2.77421 0Z" opacity=".1"/><path id="Polaroid-24" fill="#110e3f" fill-opacity=".5" fill-rule="nonzero" stroke="none" d="M44.8575 72.7713L46.7442 71.5141L91.5776 41.7941C92.7704 40.9645 94.4109 41.2665 95.243 42.4733C96.0727 43.6772 95.7775 45.3263 94.5844 46.1585L49.6906 81.4629C49.6906 81.4629 50.1377 78.2029 48.9294 76.03C47.7212 73.8571 44.8575 72.7713 44.8575 72.7713Z" blur="3.241" filter="url(#Filter_Polaroid_21)" opacity=".722"/><path id="Polaroid-1" fill="#e1e7ea" fill-rule="nonzero" stroke="none" d="M2.78857 0L2.78857 96L97.2258 96L97.2258 0L2.78857 0ZM8.68689 4.88289L91.3275 4.88289L91.3275 77.3124L8.68689 77.3124L8.68689 4.88289Z" filter="url(#Filter_Polaroid_22)" shadowAngle="1.16" shadowColor="#000000" shadowOffset="1" shadowOpacity=".5" shadowRadius="4"/><path id="Polaroid-24" fill="#110e3f" fill-opacity=".5" fill-rule="nonzero" stroke="none" d="M47.6734 89.0598C43.3092 92.2469 24.736 92.4526 24.736 92.4526C24.736 92.4526 32.1598 75.9273 36.524 72.7403C40.8882 69.5533 46.9216 70.6255 50.0015 75.1316C53.0783 79.6373 52.0376 85.8728 47.6734 89.0598Z" blur="3.241" filter="url(#Filter_Polaroid_23)" opacity=".722"/><g id="PolaroidGroup-5" opacity="1"><path id="Polaroid-24" fill="url(#LinearGradient_Polaroid_25)" fill-rule="nonzero" stroke="none" d="M27.0499 65.6072L45.6396 10.5763C46.069 9.17142 47.5592 8.35285 48.972 8.7509C50.381 9.14831 51.1749 10.6104 50.747 12.0176L36.8606 68.3071L27.0499 65.6072Z" opacity="1"/><path id="Polaroid-24" fill="url(#LinearGradient_Polaroid_26)" fill-rule="nonzero" stroke="none" d="M40.2655 75.2039C38.789 80.4615 24.1773 92.5268 24.1773 92.5268C24.1773 92.5268 19.7657 75.0125 21.2422 69.7549C22.7187 64.4973 28.1754 61.4572 33.4292 62.9608C38.6802 64.4662 41.742 69.9463 40.2655 75.2039Z" opacity="1"/></g></g></g></svg>