<svg xmlns="http://www.w3.org/2000/svg" xmlns:vectornator="http://vectornator.io" xmlns:xlink="http://www.w3.org/1999/xlink" style="fill-rule:nonzero;clip-rule:evenodd;stroke-linecap:round;stroke-linejoin:round" width="100%" height="100%" stroke-miterlimit="10" version="1.1" viewBox="0 0 630 630" xml:space="preserve"><g id="Layer-2" vectornator:layerName="Layer 2"><g opacity="1"><path fill="#14bbe9" fill-rule="nonzero" stroke="none" d="M509.016 215.534C497.102 179.18 477.566 154.059 447.556 127.521C422.303 105.19 371.052 79.9185 318.796 78.759C263.64 77.5352 207.414 101.658 181.403 125.099C150.94 152.553 133.517 173.673 120.402 209.415C107.575 244.371 108.36 258.644 108.36 258.644C108.36 258.644 104.043 296.79 114.063 331C124.084 365.211 130.002 380.998 149.337 405.669C204.498 476.054 316.75 549.651 316.75 549.651C316.75 549.651 435.521 474.8 486.227 402.464C533.804 334.589 521.309 264.519 521.309 264.519L521.309 263.981C521.309 263.981 521.309 253.043 509.016 215.534Z" opacity="1"/><path fill="#325fff" fill-rule="nonzero" stroke="none" d="M316.903 550.58C363.374 550.58 401.382 557.809 468.967 553.198C502.524 550.909 542.801 536.6 579.278 500.015C599.873 479.359 611.143 442.367 614.301 406.292C617.459 370.217 607.567 348.145 603.899 339.615C595.281 319.573 587.531 312.105 579.047 301.135C555.799 271.073 520.526 261.052 520.526 261.052C520.526 261.052 493.651 250.889 464.39 251.949C435.129 253.009 419.725 258.566 403.483 265.293C383.083 273.742 365.013 285.775 353.761 299.529C316.997 344.468 316.903 395.057 316.903 395.057C316.903 395.057 316.903 501.938 316.903 550.58Z" opacity="1" vectornator:blendMode="color" vectornator:layerName="path"/><path fill="#00fff7" fill-rule="nonzero" stroke="none" d="M316.94 550.455C224.765 550.455 99.0336 573.465 39.7921 483.915C32.3126 472.606 26.042 460.001 22.0272 447.038C17.7589 433.255 15.5729 405.396 17.5411 381.302C18.9997 363.446 23.493 348.145 27.1611 339.615C35.779 319.573 43.5292 312.105 52.0127 301.135C75.261 271.073 108.36 258.644 108.36 258.644C108.36 258.644 153.548 250.072 176.271 252.327C194.146 254.1 211.142 257.804 227.577 265.293C262.918 281.396 275.653 299.529 275.653 299.529C275.653 299.529 290.798 315.958 301.134 339.86C311.47 363.763 316.997 395.14 316.997 395.14C316.997 395.14 316.94 514.661 316.94 550.455Z" opacity="1" vectornator:blendMode="color" vectornator:layerName="path"/><path fill="#14bbe9" fill-rule="nonzero" stroke="none" d="M509.016 215.534C497.102 179.18 477.566 154.059 447.556 127.521C422.303 105.19 371.052 79.9185 318.796 78.759C263.64 77.5352 207.414 101.658 181.403 125.099C150.94 152.553 133.517 173.673 120.402 209.415C107.575 244.371 108.36 258.644 108.36 258.644C108.36 258.644 104.043 296.79 114.063 331C124.084 365.211 130.002 380.998 149.337 405.669C204.498 476.054 316.75 549.651 316.75 549.651C316.75 549.651 435.521 474.8 486.227 402.464C533.804 334.589 521.309 264.519 521.309 264.519L521.309 263.981C521.309 263.981 521.309 253.043 509.016 215.534Z" opacity="1"/><path fill="#325fff" fill-rule="nonzero" stroke="none" d="M316.903 550.58C363.374 550.58 401.382 557.809 468.967 553.198C502.524 550.909 542.801 536.6 579.278 500.015C599.873 479.359 611.143 442.367 614.301 406.292C617.459 370.217 607.567 348.145 603.899 339.615C595.281 319.573 587.531 312.105 579.047 301.135C555.799 271.073 520.526 261.052 520.526 261.052C520.526 261.052 493.651 250.889 464.39 251.949C435.129 253.009 419.725 258.566 403.483 265.293C383.083 273.742 365.013 285.775 353.761 299.529C316.997 344.468 316.903 395.057 316.903 395.057C316.903 395.057 316.903 501.938 316.903 550.58Z" opacity="1" vectornator:layerName="path"/><path fill="#00e6ff" fill-rule="nonzero" stroke="none" d="M316.94 550.455C224.765 550.455 99.0336 573.465 39.7921 483.915C32.3126 472.606 26.042 460.001 22.0272 447.038C17.7589 433.255 15.5729 405.396 17.5411 381.302C18.9997 363.446 23.493 348.145 27.1611 339.615C35.779 319.573 43.5292 312.105 52.0127 301.135C75.261 271.073 108.36 258.644 108.36 258.644C108.36 258.644 153.548 250.072 176.271 252.327C194.146 254.1 211.142 257.804 227.577 265.293C262.918 281.396 275.653 299.529 275.653 299.529C275.653 299.529 290.798 315.958 301.134 339.86C311.47 363.763 316.997 395.14 316.997 395.14C316.997 395.14 316.94 514.661 316.94 550.455Z" opacity="1" vectornator:blendMode="overlay" vectornator:layerName="path"/><path fill="#00c7dd" fill-rule="nonzero" stroke="#00fff4" stroke-linecap="butt" stroke-linejoin="round" stroke-width=".16" d="M108.36 258.508C107.402 266.068 102.254 282.534 103.88 302.533C105.507 322.533 107.517 323.315 111.266 339.742C113.955 351.522 119.319 366.836 129.813 384.69C154.94 427.441 214.789 477.296 214.789 477.296C214.789 477.296 243.431 501.346 266.992 519.785C290.554 538.223 316.903 549.651 316.903 549.651C317.21 518.396 316.369 400.807 316.369 400.807C316.369 400.807 315.579 383.599 314.48 378.894C300.433 318.769 275.636 299.53 275.653 299.529C258.337 276.446 222.803 259.334 186.839 252.022C140.081 242.514 108.419 258.223 108.36 258.508Z" opacity="0"/><path fill="#6a8bff" fill-rule="nonzero" stroke="#6a8bff" stroke-linecap="butt" stroke-linejoin="round" stroke-width=".25" d="M520.548 262.154C520.59 268.114 523.806 280.829 522.2 300.829C520.594 320.828 518.608 321.61 514.906 338.037C512.25 349.817 506.952 365.131 496.588 382.985C471.771 425.737 412.661 475.592 412.661 475.592C412.661 475.592 384.373 499.642 361.103 518.08C337.833 536.518 316.603 550.447 316.603 550.447C316.412 530.716 317.146 430.107 316.603 413.824C317.052 413.535 316.64 392.605 317.683 383.811C318.009 381.061 323.998 352.741 332.244 334.497C340.49 316.253 351.655 302.751 351.943 302.432C351.927 302.431 351.909 302.432 351.893 302.432C368.995 279.349 407.24 259.824 443.085 254.372C483.724 248.19 520.49 261.869 520.548 262.154Z" opacity="1"/><path fill="#2e8cb4" fill-rule="nonzero" stroke="none" d="M353.761 299.529L275.653 299.529C283.04 310.956 291.255 315.44 301.563 337.91C311.871 360.379 316.885 389.408 316.885 389.408C316.885 389.408 321.319 361.634 330.538 339.164C339.757 316.694 353.761 299.529 353.761 299.529Z" opacity=".5" vectornator:layerName="path"/></g><path fill="#00f2ff" fill-rule="nonzero" stroke="#00f2ff" stroke-linecap="butt" stroke-linejoin="round" stroke-width=".25" d="M108.867 258.309C107.293 265.305 107.347 278.588 108.953 298.588C110.559 318.587 112.545 319.369 116.248 335.796C118.903 347.577 124.201 362.89 134.565 380.744C159.382 423.496 218.492 473.351 218.492 473.351C218.492 473.351 246.78 497.401 270.05 515.839C293.32 534.277 316.57 550.447 316.57 550.447C316.761 530.716 316.027 421.08 316.57 404.797C316.57 404.797 316.385 398.58 315.863 391.412C315.646 388.435 315.306 384.703 315 382.122C314.674 379.372 307.156 350.5 298.909 332.256C290.663 314.012 279.498 300.51 279.21 300.191C279.226 300.19 279.244 300.191 279.26 300.191C262.158 277.108 223.913 257.583 188.068 252.131C147.429 245.949 108.924 258.023 108.867 258.309Z" opacity="1" vectornator:layerName="Curve 1"/></g></svg>