<svg xmlns="http://www.w3.org/2000/svg" width="100%" height="100%" stroke-linecap="round" stroke-linejoin="round" stroke-miterlimit="10" clip-rule="evenodd" viewBox="0 0 630 630"><g><path fill="#1128a8" d="M308.416 230.435c-1.33.602-107.449 48.709-96.37 66.571 7.522 12.126-167.096 50.49-149.615 93.116 28.484 69.456 254.3 164.798 254.3 164.798l249.393-203.067-257.708-121.418z"/><path fill="#3f6cff" d="M494.909 234.309l-42.71 15.287c-25.391 2.717-50.328 14.107-72.096 29.541-9.881 7.004-15.034 12.943-12.395 14.202.684.326 25.409.466 54.95.362 43.603-.15 58.762 4.042 62.852 5.113 4.09 1.069 19.118 1.716 21.329 1.549 2.212-.168 5.875.674 8.16 1.859 2.845 1.476 4.819 1.609 6.198.465.084-.07.127.008.206-.051l-6.92 36.306s2.831 6.417-1.24 17.559c-4.097 11.216-15.717 25.541-15.855 25.823-.624 1.279 15.494.974 17.198.671 14.897-2.649 61.531 13.41 73.129 48.133 11.598 34.723-1.795 61.34-24.686 89.656-4.457 5.513-12.301 12.012-21.174 17.869 38.939-20.834 69.268-60.479 77.88-102.929 1.448-7.134 1.893-15.704 1.395-20.864-.27-2.797-3.332-11.59-7.127-15.08-7.179-6.603-21.691-82.477-21.691-82.477s-36.396-34.33-55.105-29.851c-13.076 3.13-12.383 1.638-12.395.723v-.207c.033-10.453.5-16.81 0-24.324-.282-4.236-.15-3.264-.413-5.785-.41-3.92-1.18-9.295-3.615-10.948-3.254-2.208-25.875-12.602-25.875-12.602zm46.946 304.344c-1.762.942-3.42 2.08-5.216 2.944-15.264 7.334-29.454 11.248-46.274 13.53-2.688.365-13 .556-21.33.827 19.689-.501 34.963-1.226 39.974-2.273 10.582-2.209 22.461-8.174 32.846-15.028z"/><path fill="#3a7fff" d="M455.711 250.423c-4.09 0-5.764.328-3.718.723 2.046.393 5.39.393 7.436 0 2.046-.395.372-.723-3.718-.723zm25.926-.207c-6.926.278-6.921.302-.31 1.033 5.361.593 5.986.967 3.305 2.066-2.94 1.204-2.969 1.393-.31 1.497 1.939.075 2.561.831 1.756 2.169-.939 1.564-.6 1.564 1.395-.051 1.71-1.385 2.825-1.542 3.202-.413.319.957 2.338 2.064 4.493 2.479 2.155.416 28.384 13.248 28.921 11.93.438-1.071.239 9.812.31 18.902.115 14.897 36.461-4.338 57.532 23.705 21.071 28.042 15.695 73.083 27.32 84.129 11.626 11.047 11.74 17.321 11.93 18.851.085.68-.162 8.907-.103 8.728.235-.719.957-15.998.723-26.546-.623-28.014-3.553-40.461-14.874-63.626-9.565-19.574-24.55-38.33-41.109-51.439-20.63-16.329-56.198-32.269-65.899-29.541-3.031.853-3.256.701-1.239-.826 1.974-1.496 1.393-1.77-2.944-1.239-2.995.368-5.833.087-6.301-.672-.468-.757-3.989-1.288-7.798-1.136z"/><path fill="#3a63ff" d="M367.863 290.034c-.34-.679-2.512 1.467-9.967 9.09-10.685 10.922-23.15 28.256-21.846 30.367.487.788-2.37 2.19-1.808 3.099.562.909-2.795 2.038-1.291 2.995 1.096.696 92.496 3.512 92.496 3.512s88.579-2.156 90.017.052c1.294 1.988 1.481 1.787.878-1.085-.42-2.001 4.08-3.667 4.08-3.667s4.235-25.314 4.235-31.245c0-2.752-1.701-1.941-3.357-.568-1.557 1.294-3.293 1.2-6.301-.362-2.285-1.185-5.948-2.027-8.16-1.859-2.211.167-7.374-.583-11.465-1.652-4.09-1.071-8.313-1.658-9.399-1.292-1.086.367-3.689-.266-5.784-1.446-2.892-1.627-16.946-2.215-58.359-2.324-40.957-.109-54.435-.601-54.124-2.065.159-.75.268-1.323.155-1.55zm166.71 90.844c-.293.069-.861.381-1.601.981-2.306 1.869-7.088 1.938-13.634.206-.909-.239-3.041.188-4.752.93-1.847.802-4.359.601-6.146-.516-1.656-1.033-3.399-1.285-3.873-.517-.474.767-2.546 1.211-4.648.981-2.932-.322-4.64 1.075-7.334 5.991-2.928 5.35-3.065 6.215-.774 5.113 1.509-.725 4.968-1.225 7.695-1.084 2.727.14 5.888-.466 7.024-1.343 1.361-1.051 2.908-.904 4.493.413 1.323 1.097 3.183 1.516 4.131.93.949-.587 1.704-.459 1.705.309 0 .767 1.487 1.395 3.305 1.395s3.305-.949 3.305-2.118c0-2.482 2.662-2.808 4.08-.516.537.869 2.075 1.132 3.409.62 1.333-.511 2.427-.235 2.427.619 0 2.395 6.682 1.368 8.366-1.291 1.202-1.9 1.528-1.764 1.55.723.021 2.592.412 2.74 2.53.982 2.084-1.731 2.92-1.591 4.648.774 1.156 1.58 14.894 10.514 16.992 9.709 1.084-.416 2.449.802 3.047 2.686.598 1.882 1.836 3.409 2.737 3.409.902 0 1.195-.929.62-2.066-.576-1.136.096-.639 1.497 1.084 1.402 1.726 2.132 3.77 1.653 4.545-.479.775-.185 1.394.671 1.394.858 0 1.997 1.513 2.479 3.357.483 1.843 1.833 3.145 3.047 2.892 1.215-.254 1.976.589 1.705 1.86-.273 1.271.693 5.218 2.117 8.779 1.425 3.562 2.109 7.275 1.498 8.264-.622 1.006-.392 1.316.568.723 2.322-1.435 3.668 6.149 1.704 9.657-1.008 1.805-.996 3.394.103 4.493 1.053 1.053 1.191 3.159.31 5.475-.785 2.064-.99 4.174-.465 4.699.528.526.004 2.087-1.136 3.461-1.14 1.373-1.631 3.639-1.084 5.061.545 1.423.318 2.168-.517 1.652-.836-.517-2.052-.095-2.685.93-.633 1.026-.117 2.512 1.136 3.305 1.649 1.046 1.702 1.48.206 1.498-1.135.013-2.065 1.359-2.065 2.995 0 4.029-3.124 6.824-6.404 5.785-2.319-.736-2.342-.578-.207.929 6.672 4.705-40.825 41.902-55.518 43.485-2.654.284-5.823 1.496-7.075 2.686-1.253 1.188-3.255 1.797-4.442 1.342-1.188-.456-2.413-.042-2.737.93-.327.982-4.836 1.756-10.123 1.756-6.104 0-10.396.844-11.93 2.376-1.313 1.315-2.375 1.594-2.375.619 0-2.94-4.661-1.97-5.475 1.137-.637 2.442-.797 2.38-.981-.414-.18-2.745-.454-2.885-1.756-.826-1.495 2.36-14.92 3.706-14.925 1.498 0-.531-1.104-.93-2.427-.93-1.324 0-2.017.584-1.55 1.343.468.757-.337 1.394-1.807 1.394-1.6 0-2.204-.769-1.498-1.91.73-1.179.454-1.451-.723-.723-3.257 2.012-8.521 2.52-8.521.826 0-1.012-1.081-1.049-2.893-.103-1.589.831-27.766 1.581-58.152 1.652-53.344.126-55.356.251-58.617 3.512-3.376 3.376-3.362 3.351 53.608 3.202 31.334-.081 65.888-.804 76.796-1.601 10.907-.797 21.997-1.441 24.634-1.446 2.638-.005 7.1-.75 9.916-1.653 4.31-1.381 11.457-2.312 25.771-3.305 1.996-.137 2.035-.424.258-1.549-1.676-1.063-1.381-1.639 1.24-2.324 2.333-.61 3.1-.261 2.324 1.033-.63 1.051.233.795 1.911-.569 1.677-1.363 3.114-2.253 3.201-1.962.394 1.311 9.245-3.089 9.245-4.596 0-.932.794-1.705 1.756-1.705s1.25.768.671 1.705c-1.527 2.47 17.739-8.292 25.151-14.048 10.186-7.909 26.949-25.901 27.992-30.057.53-2.112 1.614-3.446 2.427-2.944.812.502 1.485-1.537 1.498-4.545.02-4.346.441-4.965 1.859-2.995 1.471 2.046 1.558 1.94.723-.62-.555-1.705-.148-4.135.878-5.371 1.026-1.236 1.425-3.382.878-4.803-.545-1.423-.337-2.198.465-1.704.803.496 1.511-.75 1.549-2.789.04-2.038.389-6.506.826-9.916.437-3.408.11-6.197-.723-6.197-.832 0-1.51-1.302-1.497-2.892.021-2.473.284-2.532 1.652-.413 1.283 1.984 1.631 2.046 1.653.206.013-1.262-1.302-3.285-2.892-4.493-1.767-1.34-2.087-2.241-.826-2.272 1.137-.03 2.065-.846 2.065-1.808 0-.962-.836-1.251-1.859-.62-1.292.8-1.628-.695-1.136-4.906.473-4.049.053-5.795-1.188-5.319-1.021.391-2.786-.813-3.925-2.634-1.69-2.711-1.633-3.081.155-2.066 1.76 1 1.766.809.103-.981-1.135-1.225-2.065-3.247-2.065-4.493 0-2.696-4.004-6.972-6.508-6.972-.973 0-1.756-1.86-1.756-4.132 0-3.029-.88-4.132-3.305-4.132-1.836 0-3.305-1.102-3.305-2.479 0-1.363-.783-2.478-1.756-2.479-.975 0-2.943-1.135-4.338-2.53-1.455-1.454-9.524-7.65-10.433-8.212-.908-.562-1.652-.238-1.652.723 0 .962-1.302 1.769-2.892 1.756-2.296-.02-2.435-.347-.62-1.497 2.664-1.688-3.397-3.4-13.376-3.771-3.935-.147-5.752-.857-5.061-2.014.296-.495.293-.689 0-.619z"/><path fill="#0bacdf" d="M313.529 390.328c-.455 0-.032 10.33-.155 22.827-.124 12.499-.563 20.865-.982 18.592-1.112-6.047-3.9-9.047-5.835-6.3-1.194 1.692-1.663 1.734-2.324.103-1.304-3.213-4.336-2.429-3.202.826.923 2.653.782 2.63-1.343-.103-1.707-2.196-2.513-2.415-3.047-.826-.595 1.766-1.174 1.76-3.306 0-1.933-1.594-2.892-1.625-3.77-.207-.861 1.395-1.577 1.276-2.634-.361-1.216-1.888-1.669-1.844-2.892.051-1.226 1.902-1.618 1.902-2.375 0-.637-1.6-.889-1.674-.982-.206-.071 1.137-1.32 2.066-2.737 2.065-1.416 0-2.172-.637-1.704-1.394.468-.759-1.341-1.343-4.028-1.343-2.687 0-4.893.771-4.907 1.756-.014.983-.758.692-1.652-.671-1.379-2.099-1.893-2.109-3.151-.155-.97 1.505-2.546 1.83-4.544.981-4.362-1.854-15.52-2.335-14.461-.62 1.321 2.137-3.31 1.752-5.526-.464-1.448-1.448-2.561-1.397-4.493.206-1.729 1.436-2.531 1.518-2.531.258 0-2.133-3.613-1.78-5.267.517-.651.904-2.323.562-4.029-.827-2.627-2.14-2.793-2.069-1.704.827 1.195 3.181 1.199 3.181-2.427 0-2.013-1.767-3.144-2.272-2.479-1.136 1.49 2.548-1.631 2.8-3.202.258-.79-1.278-1.587-1.154-2.686.413-1.223 1.744-1.776 1.761-2.427.155-1.264-3.115-4.403-2.457-3.202.671.823 2.145.595 2.306-1.188.827-1.241-1.03-2.728-1.402-3.305-.827-.575.577-2.103.153-3.409-.929-1.785-1.483-2.676-1.488-3.563-.052-.861 1.395-1.578 1.276-2.634-.361-1.216-1.888-1.669-1.844-2.892.051-1.226 1.902-1.619 1.902-2.376 0-.636-1.6-.889-1.674-.981-.206-.071 1.137-1.321 2.066-2.737 2.065-1.547 0-2.112-.75-1.395-1.91.82-1.328.277-1.607-1.756-.827-1.627.625-3.966.313-5.216-.723-1.248-1.036-2.272-1.482-2.272-.981 0 .982 53.436 50.875 88.777 82.89 21.82 19.766 21.843 19.769 36.978 20.09 14.208.299 15.185.086 16.165-3.254.61-2.08 1.416 1.933 1.963 9.658.514 7.271 1.072-21.547 1.239-64.04.165-42.492-.94-77.364-1.394-77.364z"/><path fill="#0db5e2" d="M120.635 350.923c-.225-.051-.406.147-.413.568-.028 1.703.584 12.841 6.094 22.621 4.502 7.991 14.03 15.042 14.667 15.286 1.502.577 2.092 1.886 1.394 3.099-.657 1.142-.615 1.528.104.878.72-.649 2.637-.469 4.286.413 2.268 1.213 3.422.902 4.7-1.291 1.568-2.694 1.708-2.68 1.756.31.038 2.507.472 2.782 2.014 1.24 2.661-2.661 95.964 1.541 97.506 0 2.66-2.661 46.564-.84 49.32-1.188 2.876-.366 4.582.033 4.029.929-.531.86.196 1.107 1.601.568 1.406-.54 2.071-1.799 1.446-2.84-.623-1.041.114-.885 1.652.361 2.418 1.962 2.789 1.885 2.789-.516 0-5.976-1.211-18.412-4.493-27.269-3.619-9.768-7.496-10.609-11.827-11.052-6.838-.699-47.906-.799-51.025 1.55-1.135.854-2.065.896-2.065.103 0-1.818-115.705-1.559-117.751-1.394-2.046.163-4.29-.55-4.958-1.55-.334-.499-.602-.775-.826-.826zm191.602 190.208c-.168 1.621-2.033 3-4.441 3.305-4.128.523-4.136.517-.155 5.475 4.902 6.105 6.359 4.952 5.526-4.39-.352-3.958-.771-5.92-.93-4.39z"/><path fill="#0ebee5" d="M282.593 313.894s-76.816 9.708-95.233 9.812c-18.37.104-33.477 1.356-48.753 1.085-8.819-.157-17.701-.078-27.32-2.892l-28.714 5.887c8.505 18.488 15.564 24.535 31.245 40.696 21.442-18.869 92.767-13.204 98.59-12.859 25.426 1.506 88.455 9.732 96.214 7.333-2.422-6.421-9.746-21.882-11.878-25.719-5.044-9.079-14.151-23.343-14.151-23.343z"/><path fill="#27cfeb" d="M310.637 71.937c-5.033-.13-8.479-.066-8.883.31-.288.27-6.453.988-13.686 1.601-7.236.615-13.789 1.537-14.564 2.014-.774.48-3.817 1.223-6.714 1.653-6.164.912-29.852 8.388-35.842 11.31-2.272 1.11-7.478 3.576-11.568 5.526-20.754 9.898-40.296 24.269-57.016 41.884-17.867 18.824-26.677 31.376-36.306 51.697-3.178 6.707-8.305 19.021-9.193 21.123.417-.817.823-1.51.826-.93.004.668.052 1.136.052 1.136s4.447-6.601 6.972-11.827c5.245-10.859 19.695-34.724 23.033-38.062 1.232-1.231 2.221-2.757 2.221-3.408 0-2.311 25.934-28.192 35.635-35.584 5.419-4.13 10.557-8.125 11.465-8.831 7.774-6.047 34.535-20.297 38.114-20.297.582 0 3.809-1.177 7.127-2.633 10.709-4.699 12.414-5.262 24.635-8.057 32.334-7.396 88.53-5.35 111.914 4.08 1.818.732 6.03 2.52 9.348 3.977 3.319 1.456 6.545 2.634 7.127 2.633 3.58 0 30.288 14.25 38.062 20.297.909.706 6.099 4.701 11.517 8.831 9.701 7.392 35.583 33.273 35.584 35.584 0 .651 1.041 2.177 2.272 3.408 3.338 3.338 17.737 27.203 22.982 38.062 2.525 5.226 4.978 9.503 5.423 9.503 3.269 0-8.967-26.16-19.625-41.987-8.835-13.122-10.089-14.643-23.447-28.715-16.72-17.615-36.262-31.986-57.016-41.884-4.09-1.95-9.296-4.417-11.569-5.526-5.989-2.922-29.677-10.398-35.841-11.31-2.897-.43-5.871-1.153-6.611-1.601-2.233-1.356-31.331-3.586-46.428-3.977zM117.743 209.261c.006-.94-.392-.782-1.136.31a4.971 4.971 0 0 0-.052.103c-.058.089-.092.053-.155.155-1.577 2.552-7.422 24.393-6.662 25.151.406.407 1.852 1.574 2.427-1.033.575-2.606 1.472-9.123 3.15-14.564 1.608-5.208 2.418-8.715 2.428-10.122zm394.412-.258c-.077.272.088.934.516 2.066.686 1.818 2.584 7.767 4.235 13.221 1.65 5.453 3.081 8.918 3.151 7.695.205-3.613-5.06-20.774-6.921-22.569-.587-.566-.905-.685-.981-.413zm-356.04 41.212c-7.57.106-14.903.589-20.193 1.447-4.545.737-13.52 2.953-19.987 4.957-11.76 3.646-13.841 5.217-13.841 5.217s5.583 9.461 8.677 6.662c1.76-1.592 11.496 9.079 14.667 5.784 2.515-2.613 12.139-1.233 14.667-.775 2.403.437 22.405.451 30.264-4.906 8.75-5.965 31.148-1.887 35.635-1.239 7.575 1.092 15.69-5.569 15.7-5.836.05-1.431-29.326-8.33-38.785-9.864-6.854-1.113-17.042-1.583-26.804-1.447z"/><path fill="#159cf1" d="M301.185 71.834c-2.237 0-4.476.106-9.347.62-9.742 1.027-9.515 1.352-20.193 3.615-19.922 4.222-34.707 9.835-40.697 12.756-2.272 1.11-7.478 3.576-11.568 5.526-20.754 9.898-40.297 24.269-57.016 41.884-17.867 18.824-26.677 31.376-36.306 51.697-3.178 6.707-8.305 19.021-9.193 21.123.417-.817.823-1.51.826-.93.004.668.051 1.137.052 1.136 0 0 4.447-6.601 6.972-11.827 5.245-10.859 19.695-34.724 23.033-38.062 1.232-1.231 2.221-2.757 2.221-3.408 0-2.311 25.934-28.192 35.635-35.584 5.419-4.13 10.557-8.125 11.465-8.831 7.774-6.047 34.535-20.297 38.114-20.297.582 0 3.809-1.177 7.127-2.633 10.709-4.699 12.414-5.262 24.635-8.057 32.334-7.396 87.704-2.612 111.088 6.817 1.818.732 6.855-.216 10.174 1.24 3.319 1.456 6.545 2.634 7.127 2.633 3.58 0 44.161 24.998 49.579 29.128 9.701 7.392 35.583 33.273 35.584 35.584 0 .651 1.041 2.177 2.272 3.408 3.338 3.338 17.737 27.203 22.982 38.062 2.525 5.226 4.978 9.503 5.423 9.503 3.269 0-8.967-26.16-19.625-41.987-8.835-13.122-10.09-14.643-23.447-28.715-16.72-17.615-23.137-20.942-40.283-32.794-17.146-11.853-42.504-20.194-42.504-20.194l-28.25-7.333s-25.079-4.01-46.428-3.977c-4.953.008-7.214-.102-9.452-.103zM117.743 209.261c.006-.94-.392-.782-1.136.31a4.971 4.971 0 0 0-.052.103c-.058.089-.091.053-.155.155-1.577 2.552-7.422 24.392-6.662 25.151.406.407 1.852 1.574 2.427-1.033.575-2.606 1.472-9.123 3.15-14.564 1.608-5.208 2.418-8.715 2.428-10.122zm394.412-.258c-.077.272.089.934.516 2.066.686 1.818 2.585 7.767 4.235 13.221 1.65 5.453 3.081 8.918 3.151 7.695.205-3.613-5.059-20.775-6.921-22.569-.587-.566-.904-.685-.981-.413z"/><path fill="#0cb3e1" d="M314.252 503.844l.516 22.052-58.1-19.573c0 .255 13.279 9.344 17.972 19.883 6.408 14.392 4.751 31.4 4.751 31.4l36.926-.31-2.065-53.452z"/><path fill="#2ed6ed" d="M103.024 261.577c-.983.02-6.27 2.309-11.723 5.113-15.767 8.108-28.957 18.303-43.072 33.26-20.711 21.943-34.311 49.511-38.889 78.913-2.391 15.358-.98 50.215 2.53 62.955 17.01 61.723 67.898 106.283 129.991 113.825 10.222 1.242 42.096 2.805 93.012 2.479 49.425-.317 81.238-.981 81.238-.981l-9.606-8.573S137.822 394.821 139.124 394.821c1.659 0 .865-2.145-2.634-7.23-8.419-12.235-20.832-40.113-25.254-56.655-4.815-18.005 6.079-18.614 7.178-31.864.488-5.869-14.23-37.518-15.39-37.495z"/><path fill="#28d1eb" d="M246.7 511.745c-3.145 0-3.652.453-2.272 2.118.98 1.181 2.828 2.169 4.08 2.169 1.252 0 2.272-.988 2.272-2.169 0-1.182-1.847-2.118-4.08-2.118zm-43.175-1.497c-.577-.068-1.065.118-1.343.568-1.152 1.862-9.244 3.579-9.244 1.962 0-.631-1.116-1.136-2.479-1.136-1.364 0-2.479.847-2.479 1.911 0 2.064 11.17 2.26 14.409.258 1.003-.62 2.112-.219 2.479.878.461 1.387 1.034 1.458 1.807.207.612-.989.033-2.663-1.239-3.719-.678-.563-1.334-.861-1.911-.929zm-51.283-6.972c-.338.017-.27.396.155 1.084.78 1.261-.159 1.622-2.841 1.136-2.616-.474-3.976.077-3.977 1.55 0 1.236.759 1.771 1.705 1.187 2.917-1.803 9.296-1.987 9.296-.258 0 .901.744 1.182 1.652.62.909-.562 1.653-1.832 1.653-2.841 0-1.006-.459-1.348-1.033-.774-.575.573-2.53.245-4.338-.723-1.206-.646-1.935-1-2.272-.981zm26.648 8.366c-4.085-.147-7.436.396-7.437 1.239 0 .845 2.046 1.434 4.545 1.292 2.499-.144 5.568.006 6.817.361 1.25.355 2.556-.072 2.892-.981.343-.924-2.66-1.761-6.817-1.911zm48.908-31.968c-.454 0 1.719 2.603 4.803 5.784 3.084 3.181 6.001 5.785 6.456 5.784.454 0-1.719-2.603-4.803-5.784-3.084-3.181-6.001-5.785-6.456-5.784z"/><path fill="#28d1eb" d="M91.765 386.816c-13.889.426-27.668 2.855-36.46 9.348-23.448 17.314-11.828 68.791-11.828 68.791s5.434 24.996 27.269 43.278c21.834 18.283 42.486 26.286 60.063 29.851 29.246 5.932 48.248 2.812 74.369 2.531 9.753-.105 20.518.187 33.156 1.497a469.5 469.5 0 0 1 24.531 3.202 461.258 461.258 0 0 1 21.278 3.874c20.375 4.196 32.639 8.211 32.639 8.211l-36.254-29.437c-7.68-7.516-29.312-26.802-27.269-23.499.944 1.526-97.828-3.189-135.413-11.413-37.585-8.225-29.911-13.919-25.048-17.766 17.636-13.949 116.46-12.463 116.46-11.62s-68.101-70.437-69.824-71.838c-1.079-.876-24.52-5.72-47.669-5.01z"/><path fill="#28d1eb" d="M76.375 511.126c-1.298-.064-2.427.411-2.427 1.446 0 1.675 5.045 3.942 6.197 2.788.417-.414.239-1.561-.361-2.53-.66-1.067-2.11-1.641-3.409-1.704z"/><path fill="#2c60ff" d="M499.196 380.413l-8.521 9.606c-9.857 10.652-8.181 9.643-23.654 25.254s-19.544 19.887-39.302 39.25c-29.515 28.928-30.813 30.674-56.189 53.246-25.377 22.572-38.183 37.57-55.57 49.476 55.082-.312 96.028-.661 158.343-.568 64.179.095 75.546-23.919 95.13-40.18 11.212-9.309 29.06-26.089 32.433-43.072 3.314-16.684-7.698-33.556-14.564-46.119-2.826-5.171-7.175-11.2-11.672-16.371-7.067-8.127-14.202-14.409-14.202-14.409s-13.278-9.681-27.113-13.531c-13.836-3.85-24.407-2.066-35.119-2.582z"/><path fill="#3f6cff" fill-rule="evenodd" d="M452.181 249.607c-25.391 2.717-50.288 14.104-72.057 29.538-9.881 7.004-15.06 12.915-12.421 14.175.684.325 25.414.509 54.955.405 43.603-.151 58.761 4.017 62.852 5.088 4.09 1.069 19.109 1.704 21.32 1.537 2.212-.169 5.89.666 8.176 1.851 2.844 1.476 4.794 1.629 6.173.486 1.439-1.197 2.234-.823 2.786 1.307.426 1.639.801-5.573.834-16.026.034-10.453.503-16.835.003-24.349-.282-4.236-.131-3.251-.394-5.771-.41-3.921-1.192-9.283-3.627-10.936-3.254-2.208-25.889-12.604-25.889-12.604m19.572 104.636s2.839 6.423-1.231 17.565c-4.097 11.215-15.69 25.518-15.828 25.8-.624 1.279 15.466.987 17.17.684 14.896-2.648 61.544 13.426 73.142 48.149 11.598 34.723-1.802 61.346-24.694 89.662-9.673 11.965-34.382 28.791-54.007 32.889-19.625 4.099-194.016 3.246-192.802 3.437 4.054.637 157.097.296 174.146-2.016 16.82-2.282 30.997-6.193 46.261-13.527 41.497-19.942 74.116-61.48 83.118-105.85 1.447-7.135 1.899-15.729 1.401-20.889-.27-2.797-3.348-11.562-7.143-15.052-7.179-6.603-14.372-31.853-14.372-31.853s-26.307-45.89-45.016-41.411c-16.944 4.056-33.671 7.894-35.888 7.79"/><path fill="#0bacdf" d="M313.58 391.309s-134.816 26.35-151.732 24.377c28.828 28.702 35.411 34.312 62.025 59.443 26.614 25.131 51.186 43.569 57.687 45.964 6.949 2.56 13.015 3.977 13.015 3.977s19.99 2.128 20.813 7.746l-.155-101.327-.207-4.441-1.342-32.898-.104-2.841z"/><path fill="#2e4eff" d="M505.393 239.216c-3.402.557-6.748 1.342-10.277 1.652-5.959.524-11.802.35-17.508-.361l-25.409 9.089c-25.391 2.717-50.328 14.107-72.096 29.541-9.881 7.004-15.034 12.943-12.395 14.202.684.326 71.156-7.891 107.473 3.254 36.317 11.146 29.176 39.237 37.804 41.316 11.045 2.662 11.316-31.107 11.62-34.447.615-6.758 1.033-34.631.259-43.64-.287-3.334-2.589-7.572-2.583-11.104-.413-.765-.907-1.406-1.497-1.807-1.799-1.221-8.849-4.611-15.391-7.695zm9.555 110.571c-2.037 9.856-17.821 33.073-17.56 32.537.138-.282 11.758-14.607 15.855-25.823.918-2.513 1.377-4.701 1.705-6.714z"/><path fill="#0fc2e7" d="M195.83 254.347c-14.916 1.149-20.696 16.292-34.654 17.146-16.042.982-40.242-12.243-57.842-9.812.524 21.915 2.739 42.485 6.197 64.143 89.775-.323 89.795-.349 179.57-.672-19.838-36.171-45.249-63.554-87.848-68.016 6.454.62-5.423-2.789-5.423-2.789z"/><path fill="#149cf1" d="M311.928 75.036c-.455.11-7.892.787-16.527 1.446-8.635.661-21.277 2.465-28.095 4.028-12.581 2.884-14.322 3.453-25.047 8.16-3.319 1.456-6.494 2.634-7.076 2.634-3.579 0-30.339 14.25-38.114 20.297-.909.705-6.097 4.649-11.516 8.779-9.701 7.392-35.584 33.325-35.584 35.635 0 .651-.989 2.178-2.221 3.409-5.822 5.822-23.653 34.234-29.385 48.236-1.029 2.511-3.512 9.963-3.512 10.846 0 1.505-.181 3.148-.93 2.685-.749-.463-4.338 11.878-4.338 11.878s-1.316 8.251-2.169 12.912c-.853 4.66-2.211 10.413-1.756 9.089.903-2.627 13.958-9.522 27.062-12.085 2.983-.583 6.473-4.545 8.47-5.836 1.998-1.29 3.857-2.249 4.131-2.117.276.132 1.632-.139 2.996-.62 1.363-.482 5.389-1.083 8.934-1.343 3.648-.266 7.01-1.54 7.747-2.943.717-1.364 2.54-5.082 4.08-8.264 14.551-30.068 24.429-43.767 43.33-59.959 6.442-5.52 23.493-15.968 32.588-19.987 12.039-5.321 13.155-5.706 22.31-8.211 22.275-6.092 26.669-6.715 47.927-6.714 21.291 0 25.925.63 47.926 6.714 24.453 6.761 48.221 20.589 65.228 37.907 13.276 13.515 20.644 24.716 33.001 50.25 1.54 3.182 3.363 6.9 4.08 8.264.737 1.403 4.1 2.677 7.747 2.943 3.545.26 7.571.926 8.934 1.498 1.364.57 2.85 1.129 3.305 1.24.455.11 2.314 1.015 4.132 2.014 1.818.998 6.467 2.356 10.329 2.995 3.862.64 4.902 2.981 9.348 4.235 4.445 1.254 6.805.935 8.211 1.601 1.419.673 6.611 8.78 6.611 8.78s-.708-4.009-1.291-8.78c-1.235-10.094-4.778-26.048-5.165-25.668-1.186 1.164-1.794-5.391-3.408-9.812-1.614-4.421-1.88-4.197-3.047-7.85-1.15-3.599-2.833-.53-5.371-5.784-5.266-10.901-19.741-34.769-23.086-38.114-1.231-1.231-2.22-2.758-2.22-3.409 0-2.31-25.883-28.242-35.584-35.635-5.419-4.13-10.607-8.074-11.517-8.779-7.774-6.047-34.534-20.297-38.114-20.297-.581 0-3.757-1.178-7.075-2.634-10.707-4.698-12.465-5.273-24.634-8.056-9.652-2.207-48.31-6.39-51.645-5.578z"/><path fill="#1a8de1" stroke="#1a8de1" stroke-width="1.653" d="M324.374 126.681c-9.855-.24-20.204-.124-25.771.361-9.952.866-35.604 7.031-43.795 10.536-28.605 12.243-44.949 23.86-61.664 43.692-7.243 8.595-14.85 21.334-24.169 40.592-1.541 3.182-59.575 24.779-61.819 29.851-1.23 2.78-1.859 8.573-1.86 8.573 0 0 6.358-2.123 12.189-3.925 24.282-7.499 57.2-7.674 82.528-.878 4.925 1.322 13.893 3.667 13.893 3.667s5.656 2.375 7.178 1.394c1.304-.837 46.152 29.849 95.905 29.077 49.753-.773 99.99-30.918 103.135-32.175 24.407-9.769 64.2-11.19 92.186-2.479 5.616 1.748 12.343 4.855 12.343 4.854 0 0-.19-1.843-.516-4.234-.327-2.392-.878-5.475-.878-5.475s-4.477-5.841-9.503-7.953c-3.025-1.271-22.119-5.046-34.912-10.381s-20.519-16.924-21.226-18.385c-14.552-30.068-20.762-35.246-39.663-51.439-5.375-4.604-22.439-15.319-30.109-18.902-12.432-5.807-18.485-8.908-40.49-14.564-3.765-.967-13.127-1.567-22.982-1.807z"/><path fill="#2e4eff" d="M522.333 325.463c-.62-.622-50.523 11.207-100.449 11.207-42.161 0-85.628-8.883-85.628-8.883l-4.235 7.85s-3.689 7.677-5.732 12.601c-7.736 18.642-8.807 33.806-11.724 53.452-2.916 19.647-.432 82.65-.361 119.094.011 5.486 1.498 36.409 1.498 36.409s.778 1.308 17.817-13.427c22.528-19.483 60.327-56.437 70.702-66.261 33.294-31.523 44.001-42.297 44.001-42.297s28.594-30.139 40.8-43.227c12.206-13.088 7.73-8.824 8.005-9.141 8.206-9.484 13.644-20.372 16.733-26.287 4.803-9.198 10.099-29.565 8.573-31.09z"/><path fill="#0cb3e1" d="M133.236 383.253s22.05 35.395 37.804 38.733c45.472 9.637 142.127 8.883 142.127 8.883s.66-37.988.465-40.231c-84.267-.707-180.396-7.385-180.396-7.385z"/><path fill="#1538f9" d="M471.876 248.873c-4.302-.341-24.732.563-44.621 6.198-19.89 5.634-28.271 11.933-36.823 17.456-8.741 5.644-12.829 7.85-21.639 15.545-8.115 7.087-18.607 18.417-28.353 32.484-9.746 14.067-12.344 23.912-12.344 23.912s185.637 38.516 193.772-12.705c1.044-6.574 2.606-23.681 3.15-38.992.611-17.187.155-32.381.155-32.381s-11.993-5.588-26.339-8.263c-13.576-2.532-20.053-2.706-26.958-3.254z"/></g><clipPath id="a"><path d="M0 0H630V630H0z"/></clipPath></svg>