<svg width="100%" height="100%" viewBox="0 0 24 24" stroke-miterlimit="10" style="fill-rule:nonzero;clip-rule:evenodd;stroke-linecap:round;stroke-linejoin:round;" version="1.1" xml:space="preserve" xmlns="http://www.w3.org/2000/svg" xmlns:vectornator="http://vectornator.io" xmlns:xlink="http://www.w3.org/1999/xlink">
<defs/>
<g id="Reddit">
<g id="earscircles" fill="#ffe100" fill-opacity="0">
<circle id="left-ear-circle" cx="7.24" cy="12.81" r="3.45">
<set attributeName="fill-opacity" begin="1s" to="1"/>
<animate fill="freeze" attributeName="cx" begin="1s" dur="0.2s" values="7.24;3.94"/>
</circle>
<circle id="right-ear-circle" cx="16.76" cy="12.81" r="3.45">
<set attributeName="fill-opacity" begin="1s" to="1"/>
<animate fill="freeze" attributeName="cx" begin="1s" dur="0.2s" values="16.76;20.06"/>
</circle>
</g>
<g id="EarL" opacity="0" fill="#f00" fill-opacity="0" stroke="#rgba(255, 0, 0, 0.5)" stroke-dasharray="20.75,20.25,20.75,20.25" stroke-linecap="round" stroke-linejoin="round" stroke-width="0.988829">
<path id="LeftEar" d="M0.5 12.8138C0.5 10.9283 2.02854 9.39975 3.9141 9.39975C5.79965 9.39975 7.32819 10.9283 7.32819 12.8138C7.32819 14.6994 5.79965 16.2279 3.9141 16.2279C2.02854 16.2279 0.5 14.6994 0.5 12.8138Z">
<animate fill="freeze" attributeName="fill-opacity" begin="1.2s" dur="0.4s" values="0;.5"/>
<animate fill="freeze" attributeName="stroke-dashoffset" begin="1s" dur="0.2s" values="20.75;20.25"/>
</path>
</g>
<g id="EarR" opacity="0" fill="#f00" fill-opacity="0" stroke="rgba(255, 0, 0, 0.5)" stroke-dasharray="20.75,20.25,20.75,20.25" stroke-linecap="round" stroke-linejoin="round" stroke-width="0.988829">
<path id="RightEar" d="M16.6718 12.8138C16.6718 10.9283 18.2004 9.39975 20.0859 9.39975C21.9715 9.39975 23.5 10.9283 23.5 12.8138C23.5 14.6994 21.9715 16.2279 20.0859 16.2279C18.2004 16.2279 16.6718 14.6994 16.6718 12.8138Z">
<animate fill="freeze" attributeName="fill-opacity" begin="1.2s" dur="0.4s" values="0;.5"/>
<animate fill="freeze" attributeName="stroke-dashoffset" begin="1s" dur="0.2s" values="20.75;20.25"/>
<animate fill="freeze" attributeName="stroke-dashoffset" dur="1s" values="20.75;20.25"/>
</path>
</g>
<g id="Face-Outlines" fill="none" fill-opacity="0" stroke="#ffe100" stroke-dasharray="52.0" stroke-linecap="round" stroke-linejoin="round" stroke-width="2" >
<path id="FaceOutlineshadow" d="M2.13524 16.1925C2.13524 12.5899 6.55184 9.66945 12 9.66945C17.4482 9.66945 21.8648 12.5899 21.8648 16.1925C21.8648 19.7951 17.4482 22.7156 12 22.7156C6.55184 22.7156 2.13524 19.7951 2.13524 16.1925Z">
<animate fill="freeze" attributeName="stroke-dashoffset" dur="0.6s" values="52;0"/>
<animate fill="freeze" attributeName="fill-opacity" begin="0.6s" dur="0.4s" values="0;1"/>
</path>
<path id="FaceOutline" d="M2.13524 16.1925C2.13524 12.5899 6.55184 9.66945 12 9.66945C17.4482 9.66945 21.8648 12.5899 21.8648 16.1925C21.8648 19.7951 17.4482 22.7156 12 22.7156C6.55184 22.7156 2.13524 19.7951 2.13524 16.1925Z">
<animate fill="freeze" attributeName="stroke-dashoffset" dur="0.6s" values="52;0"/>
<animate fill="freeze" attributeName="fill-opacity" begin="0.6s" dur="0.4s" values="0;1"/>
</path>
</g>
<g id="MouthBehindFace" fill="yellow" fill-opacity="0" stroke="#000000" stroke-dasharray="11.0" stroke-linecap="round" stroke-linejoin="miter" stroke-width="0.927858">
<path d="M6.9515 19.6329C6.9515 19.6329 8.29586 21.1488 12 21.1488C15.6898 21.1488 17.0485 19.6329 17.0485 19.6329">
<animate fill="freeze" attributeName="stroke-dashoffset" begin="0.9s" dur="0.2s" values="11;11"/>
</path>
</g>
<g id="EyesBehindFace" fill="#000000" fill-opacity="0" stroke="none">
<path id="LeftEye" d="M4.62032 14.4784C4.62032 13.2067 5.65122 12.1758 6.92289 12.1758C8.19457 12.1758 9.22547 13.2067 9.22547 14.4784C9.22547 15.7501 8.19457 16.781 6.92289 16.781C5.65122 16.781 4.62032 15.7501 4.62032 14.4784Z">
<animate fill="freeze" attributeName="fill-opacity" begin="19s" dur="1s" values="0;1"/>
</path>
<path id="RightEye" d="M14.7745 14.4784C14.7745 13.2067 15.8054 12.1758 17.0771 12.1758C18.3488 12.1758 19.3797 13.2067 19.3797 14.4784C19.3797 15.7501 18.3488 16.781 17.0771 16.781C15.8054 16.781 14.7745 15.7501 14.7745 14.4784Z">
<animate fill="freeze" attributeName="fill-opacity" begin="1.9s" dur="1s" values="0;1"/>
</path>
</g>
<g id="Face-Face.holes" fill="#ffe100" fill-opacity="0">
<path id="Face.holes" d="M12 9.65625C6.55184 9.65625 2.125 12.5849 2.125 16.1875C2.125 19.7901 6.55184 22.7188 12 22.7188C17.4482 22.7187 21.875 19.7901 21.875 16.1875C21.875 12.5849 17.4482 9.65625 12 9.65625ZM6.9375 12.1875C8.20918 12.1875 9.21875 13.1971 9.21875 14.4688C9.21875 15.7404 8.20918 16.7813 6.9375 16.7812C5.66582 16.7812 4.625 15.7404 4.625 14.4688C4.625 13.1971 5.66582 12.1875 6.9375 12.1875ZM17.0625 12.1875C18.3342 12.1875 19.375 13.1971 19.375 14.4688C19.375 15.7404 18.3342 16.7813 17.0625 16.7812C15.7908 16.7812 14.7812 15.7404 14.7812 14.4688C14.7812 13.1971 15.7908 12.1875 17.0625 12.1875ZM16.7188 19.25C16.9251 19.0665 17.254 19.1061 17.4375 19.3125C17.621 19.5189 17.5814 19.8165 17.375 20C16.1685 21.0725 14.0389 21.6562 12 21.6562C9.97534 21.6562 7.62486 21.0311 6.59375 20C6.39849 19.8047 6.39849 19.4765 6.59375 19.2812C6.78901 19.086 7.11724 19.086 7.3125 19.2812C8.11491 20.0837 10.2152 20.6562 12 20.6562C13.8171 20.6563 15.7285 20.1302 16.7188 19.25Z">
<animate fill="freeze" attributeName="fill-opacity" begin="0.6s" dur="0.4s" values="0;1"/>
</path>
</g>
<g id="Smile" opacity="0">
<path id="Smile" fill="none" stroke="#000000" stroke-dasharray="52.0" stroke-linecap="round" stroke-linejoin="round" stroke-width="1" d="M17.0485 19.6329C15.8145 20.7297 13.6119 21.1488 12 21.1488C10.3881 21.1488 7.97605 20.6574 6.9515 19.6329">
</path>
</g>
<g id="MouthMouth" fill="none" opacity="1" stroke="#000000" stroke-dasharray="11.0" stroke-linecap="round" stroke-linejoin="miter" stroke-width="0.927858">
<path id="Mouth" d="M6.9515 19.6329C6.9515 19.6329 8.29586 21.1488 12 21.1488C15.6898 21.1488 17.0485 19.6329 17.0485 19.6329">
</path>
</g>
<g id="Eyes2" fill="#000000" fill-opacity="0" stroke="none">
<path id="LeftEye" d="M4.62032 14.4784C4.62032 13.2067 5.65122 12.1758 6.92289 12.1758C8.19457 12.1758 9.22547 13.2067 9.22547 14.4784C9.22547 15.7501 8.19457 16.781 6.92289 16.781C5.65122 16.781 4.62032 15.7501 4.62032 14.4784Z">
<set attributeName="fill-opacity" begin="0.9s" to="1"/>
</path>
<path id="RightEye" d="M14.7745 14.4784C14.7745 13.2067 15.8054 12.1758 17.0771 12.1758C18.3488 12.1758 19.3797 13.2067 19.3797 14.4784C19.3797 15.7501 18.3488 16.781 17.0771 16.781C15.8054 16.781 14.7745 15.7501 14.7745 14.4784Z">
<set attributeName="fill-opacity" begin="0.9s" to="1"/>
</path>
</g>
<g id="MouthTop" fill="none" opacity="0" stroke="#000000" stroke-dasharray="11.0" stroke-linecap="round" stroke-linejoin="miter" stroke-width="0.927858">
<path id="Mouth1" d="M6.9515 19.6329C6.9515 19.6329 8.29586 21.1488 12 21.1488C15.6898 21.1488 17.0485 19.6329 17.0485 19.6329">
</path>
</g>
<g id="AntennaBalltop" fill="#efefef" fill-opacity="0" fill-rule="nonzero" stroke="none">
<circle id="antennae-ball" cx="18.45" cy="4.23" r="1.61">
<set id="antennaeBallDraw" attributeName="fill-opacity" begin="1.6s" to="1"/>
<animate id="antennaeBallSpin" attributeName="cx" begin="1.4s" dur="6s" repeatCount="indefinite" values="18.45;5.75;18.45"/>
</circle>
</g>
<path id="AntennaBar" fill="none" stroke="#00ff00" stroke-dasharray="12" stroke-dashoffset="12" stroke-linecap="round" stroke-linejoin="round" stroke-width="0.8" d="M12 8.75L13.18 3.11L18.21 4.18">
<animate id="antennaeBarDraw" fill="freeze" attributeName="stroke-dashoffset" begin="1.4s" dur="0.2s" values="12;0"/>
<animate id="antennaeBarSpin" attributeName="d" begin="1.4s" dur="6s" repeatCount="indefinite" values="M12 8.75L13.18 3.11L18.21 4.18;M12 8.75L12 2L12 4.18;M12 8.75L10.82 3.11L5.79 4.18;M12 8.75L12 2L12 4.18;M12 8.75L13.18 3.11L18.21 4.18"/>
</path>
</g>
</svg>
