<svg height="100%" viewBox="0 0 100 100" width="100%" xml:space="preserve" xmlns="http://www.w3.org/2000/svg" xmlns:xlink="http://www.w3.org/1999/xlink"><defs><filter color-interpolation-filters="sRGB" filterUnits="userSpaceOnUse" height="107.861" id="Filter" width="83.8849" x="8.05756" y="-2.88233"><feDropShadow dx="-3.85005e-06" dy="1.04814" flood-color="#000000" flood-opacity="0.65" in="SourceGraphic" result="Shadow" stdDeviation="1.57222"/></filter><linearGradient gradientTransform="matrix(1 0 0 1 2.98051 0.00945021)" gradientUnits="userSpaceOnUse" id="LinearGradient" x1="9.0076" x2="42.3125" y1="83.3532" y2="83.3532"><stop offset="0.426316" stop-color="#ffffff"/><stop offset="1" stop-color="#d9d9d9"/></linearGradient><linearGradient gradientTransform="matrix(1 0 0 1 -2.97117 6.67275e-05)" gradientUnits="userSpaceOnUse" id="LinearGradient_2" x1="31.6117" x2="90.9831" y1="30.9711" y2="30.9711"><stop offset="0.426316" stop-color="#ffffff"/><stop offset="1" stop-color="#d9d9d9"/></linearGradient></defs><g filter="url(#Filter)"><path d="M28.8868 66.7282C26.025 66.6742 23.0613 67.351 20.293 68.947C9.21981 75.3307 9.21981 91.3757 20.293 97.7595C31.366 104.143 45.293 96.121 45.293 83.3532C45.293 73.7776 37.4724 66.89 28.8868 66.7282ZM28.7618 74.2907C33.4427 74.3789 37.7305 78.1323 37.7305 83.3532C37.7305 90.3142 30.1426 94.7089 24.1055 91.2282C18.0682 87.7478 18.0682 78.9899 24.1055 75.5095C25.6147 74.6392 27.2014 74.2613 28.7618 74.2907Z" fill="url(#LinearGradient)" opacity="1"/><path d="M52.0626 6.67275e-05L52.0626 21.1009L34.7765 10.5339L28.6406 20.9733L46.7096 31.0073L28.6406 40.8969L34.7487 51.5306L52.0626 40.9191L52.0626 61.9424L64.3955 61.9424L64.3955 40.9191L81.8149 51.5806L88.0119 40.8969L69.8651 31.0073L88.0119 20.9733L81.837 10.5339L64.3955 21.1009L64.3955 6.67275e-05L52.0626 6.67275e-05Z" fill="url(#LinearGradient_2)" opacity="1"/></g></svg>
