<svg xmlns="http://www.w3.org/2000/svg" xmlns:xlink="http://www.w3.org/1999/xlink" width="100%" height="100%" viewBox="0 0 100 100" xml:space="preserve"><defs><linearGradient id="LinearGradient" x1="-5.01" x2="23.001" y1="1.841" y2="97.853" gradientTransform="matrix(1 0 0 1 4.3297 0)" gradientUnits="userSpaceOnUse"><stop offset=".287" stop-color="#00ff90"/><stop offset="1" stop-color="#02fffd"/></linearGradient><filter id="Filter" width="35.478" height="106.054" x="-3.027" y="-3.834" color-interpolation-filters="sRGB" filterUnits="userSpaceOnUse"><feDropShadow dx="0" dy="-.807" flood-color="#000" flood-opacity=".65" in="SourceGraphic" result="Shadow" stdDeviation="1.211"/></filter><linearGradient id="LinearGradient_2" x1="102.658" x2="73.344" y1="103.1" y2="-4.651" gradientTransform="matrix(1 0 0 1 -4.3297 0)" gradientUnits="userSpaceOnUse"><stop offset=".287" stop-color="#00ff90"/><stop offset="1" stop-color="#02fffd"/></linearGradient><filter id="Filter_2" width="35.478" height="106.054" x="67.549" y="-3.834" color-interpolation-filters="sRGB" filterUnits="userSpaceOnUse"><feDropShadow dx="0" dy="-.807" flood-color="#000" flood-opacity=".65" in="SourceGraphic" result="Shadow" stdDeviation="1.211"/></filter><linearGradient id="LinearGradient_3" x1="107.324" x2="22.646" y1="28.623" y2="31.715" gradientTransform="matrix(0.69761 7.2577e-33 0 0.668656 25.8236 4.86519)" gradientUnits="userSpaceOnUse"><stop offset=".426" stop-color="#fff"/><stop offset="1" stop-color="#c2c2c2"/></linearGradient><filter id="Filter_3" width="48.118" height="48.118" x="44.526" y=".622" color-interpolation-filters="sRGB" filterUnits="userSpaceOnUse"><feDropShadow dx="0" dy="-.893" flood-color="#000" flood-opacity=".44" in="SourceGraphic" result="Shadow" stdDeviation="1.34"/></filter><linearGradient id="LinearGradient_4" x1="94.907" x2="34.37" y1="78.999" y2="79.884" gradientTransform="matrix(0.81919 -3.62234e-18 1.93691e-17 0.780864 -5.75686 26.9534)" gradientUnits="userSpaceOnUse"><stop offset=".426" stop-color="#fff"/><stop offset="1" stop-color="#d9d9d9"/></linearGradient><filter id="Filter_4" width="32.501" height="30.881" x="28.83" y="65.621" color-interpolation-filters="sRGB" filterUnits="userSpaceOnUse"><feDropShadow dx="0" dy="-.893" flood-color="#000" flood-opacity=".44" in="SourceGraphic" result="Shadow" stdDeviation="1.34"/></filter><linearGradient id="LinearGradient_5" x1="30.544" x2="18.932" y1="48.24" y2="53.124" gradientTransform="matrix(0.944787 0.0894528 -0.0386157 1.17233 -2.00716 -12.2537)" gradientUnits="userSpaceOnUse"><stop offset="0" stop-color="#ec0062"/><stop offset="1" stop-color="#a60146"/></linearGradient><filter id="Filter_5" width="48.005" height="106.82" x="-3.358" y="-4.243" color-interpolation-filters="sRGB" filterUnits="userSpaceOnUse"><feDropShadow dx="0" dy="-.893" flood-color="#000" flood-opacity=".44" in="SourceGraphic" result="Shadow" stdDeviation="1.34"/></filter></defs><path fill="url(#LinearGradient)" d="M17.4178 0C-5.72344 29.3056-5.80563 70.4992 17.1712 99.8908L29.4235 100L26.486 97.0625C3.16702 70.0213 3.16702 29.9787 26.486 2.9375L29.4235 0L17.4178 0Z" filter="url(#Filter)"/><path fill="url(#LinearGradient_2)" d="M70.5765 0L73.514 2.9375C96.833 29.9787 96.833 70.0213 73.514 97.0625L70.5765 100L82.6652 100C105.719 70.7058 105.778 29.3491 82.8412 0L70.5765 0Z" filter="url(#Filter_2)"/><path fill="url(#LinearGradient_3)" d="M64.2156 4.86519L64.2156 18.9743L52.1567 11.9087L47.8762 18.8891L60.4813 25.5983L47.8762 32.211L52.1374 39.3213L64.2156 32.226L64.2156 46.2832L72.8192 46.2832L72.8192 32.226L84.9712 39.3548L89.2943 32.211L76.6349 25.5983L89.2943 18.8891L84.9866 11.9087L72.8192 18.9743L72.8192 4.86519L64.2156 4.86519Z" filter="url(#Filter_3)"/><path fill="url(#LinearGradient_4)" d="M45.2569 69.8662C43.0396 69.827 40.7582 70.3344 38.6134 71.4937C30.0353 76.1297 30.0353 87.7814 38.6134 92.4178C47.1916 97.054 57.9807 91.2285 57.9807 81.9557C57.9807 75.0012 51.9081 69.9838 45.2569 69.8662Z" filter="url(#Filter_4)"/><path fill="url(#LinearGradient_5)" d="M-0.00839399 0L31.5403 100L41.2969 100.121L9.55487 0L-0.00839399 0Z" filter="url(#Filter_5)"/></svg>