<svg height="100%" stroke-miterlimit="10" style="fill-rule:nonzero;clip-rule:evenodd;stroke-linecap:round;stroke-linejoin:round;" version="1.1" viewBox="0 0 100 100" width="100%" xml:space="preserve" xmlns="http://www.w3.org/2000/svg" xmlns:vectornator="http://vectornator.io" xmlns:xlink="http://www.w3.org/1999/xlink">
<defs>
<filter color-interpolation-filters="sRGB" filterUnits="userSpaceOnUse" height="37.8864" id="Filter" width="38.027" x="20.4709" y="64.3856">
<feDropShadow dx="-2.19927" dy="2.35476" flood-color="#000000" flood-opacity="0.5" in="SourceGraphic" result="Shadow" stdDeviation="3.01287"/>
</filter>
<filter color-interpolation-filters="sRGB" filterUnits="userSpaceOnUse" height="47.543" id="Filter_2" width="46.4519" x="33.1783" y="3.04809">
<feDropShadow dx="-2.19927" dy="2.35476" flood-color="#000000" flood-opacity="0.5" in="SourceGraphic" result="Shadow" stdDeviation="3.01287"/>
</filter>
<filter color-interpolation-filters="sRGB" filterUnits="userSpaceOnUse" height="106.524" id="Filter_3" width="32.6641" x="67.6641" y="-1.14648">
<feDropShadow dx="-1.97567" dy="2.11535" flood-color="#000000" flood-opacity="0.5" in="SourceGraphic" result="Shadow" stdDeviation="3.1206"/>
</filter>
<filter color-interpolation-filters="sRGB" filterUnits="userSpaceOnUse" height="106.524" id="Filter_4" width="34.9211" x="-4.27955" y="-1.14649">
<feDropShadow dx="-1.97567" dy="2.11535" flood-color="#000000" flood-opacity="0.5" in="SourceGraphic" result="Shadow" stdDeviation="3.1206"/>
</filter>
</defs>
<g id="Layer-1" layerName="Layer 1">
<g opacity="1" layerName="g 3">
<path d="M41.7975 72.7294C40.3682 72.7027 38.8974 73.0488 37.5148 73.8394C31.9848 77.0013 31.9848 84.948 37.5148 88.1101C43.0448 91.2723 50 87.299 50 80.9748C50 76.2316 46.0853 72.8096 41.7975 72.7294Z" fill="none" filter="url(#Filter)" stroke="#00ffa7" stroke-linecap="butt" stroke-linejoin="round" stroke-width="6.32998" layerName="path" shadowAngle="2.32206" shadowColor="#000000" shadowOffset="3.22206" shadowOpacity="0.5" shadowRadius="6.02574"/>
<path d="M55.29 8.2255L55.29 19.287L46.1535 13.7504L42.9098 19.2228L52.4602 24.4852L42.9098 29.6659L46.1362 35.2433L55.29 29.6835L55.29 40.7042C55.2897 40.7042 61.8124 40.7042 61.8124 40.7042L61.8124 29.6835L71.0187 35.2667L74.2974 29.6659L64.7002 24.4852L74.2974 19.2228L71.0302 13.7504L61.8124 19.287L61.8124 8.2255L55.29 8.2255Z" fill="#00ffa7" fill-rule="nonzero" filter="url(#Filter_2)" stroke="none" layerName="path" shadowAngle="2.32206" shadowColor="#000000" shadowOffset="3.22206" shadowOpacity="0.5" shadowRadius="6.02574"/>
</g>
<g opacity="1" layerName="Group 1">
<path d="M78.7228 4.54402C78.0313 4.46539 77.4413 5.46332 77.4413 6.72354C77.4413 7.75202 77.8457 8.57856 78.3905 8.85171C80.3092 9.81397 81.9918 13.623 81.9918 18.9619C81.9918 18.9619 81.9918 31.375 81.9918 35.5138C81.9918 42.057 85.4051 47.9308 87.68 50C85.4051 52.0694 81.9918 57.9433 81.9918 64.4864C81.9918 68.6252 81.9918 81.0384 81.9918 81.0384C81.9918 86.3772 80.3092 90.19 78.3905 91.1542C77.8457 91.4275 77.4413 92.2482 77.4413 93.2767C77.4413 94.537 78.0313 95.5329 78.7228 95.4562C83.9536 94.8706 88.8176 90.6091 88.8176 81.0384C88.8176 81.0384 88.8176 68.6252 88.8176 64.4864C88.8176 58.7607 91.4307 53.5521 93.6078 52.3395C94.124 52.0497 94.5024 51.2569 94.5024 50.2739L94.5024 49.538C94.5024 48.6667 94.1717 47.9532 93.7101 47.7236C91.5136 46.6228 88.8176 41.3327 88.8176 35.5138C88.8176 31.375 88.8176 18.9619 88.8176 18.9619C88.8176 9.39124 83.9536 5.12965 78.7228 4.54402Z" fill="blue" fill-rule="nonzero" filter="url(#Filter_3)" stroke="none" layerName="path" shadowAngle="2.32206" shadowColor="#000000" shadowOffset="2.89447" shadowOpacity="0.5" shadowRadius="6.24121"/>
<path d="M23.365 4.54381C17.4421 5.12943 11.9346 9.39102 11.9346 18.9617C11.9346 18.9617 11.9346 31.3748 11.9346 35.5134C11.9346 41.2394 8.97571 46.4557 6.51075 47.6664C5.92608 47.9561 5.49763 48.7488 5.49763 49.7317L5.49763 50.462C5.49763 51.3333 5.87211 52.0466 6.39497 52.2765C8.88181 53.3772 11.9346 58.6672 11.9346 64.4862C11.9346 68.625 11.9346 81.0382 11.9346 81.0382C11.9346 90.6087 17.4421 94.8704 23.365 95.456C24.1479 95.5346 24.8157 94.5368 24.8157 93.2765C24.8157 92.248 24.3582 91.4215 23.7413 91.1484C21.5687 90.1861 19.6634 86.377 19.6634 81.0382C19.6634 81.0382 19.6634 68.625 19.6634 64.4862C19.6634 57.9431 15.7984 52.0692 13.2227 49.9998C15.7984 47.9306 19.6634 42.0568 19.6634 35.5134C19.6634 31.3748 19.6634 18.9617 19.6634 18.9617C19.6634 13.6228 21.5687 9.81582 23.7413 8.8515C24.3582 8.57835 24.8157 7.7518 24.8157 6.72334C24.8157 5.4631 24.1479 4.46724 23.365 4.54381Z" fill="blue" fill-rule="nonzero" filter="url(#Filter_4)" stroke="none" layerName="path" shadowAngle="2.32206" shadowColor="#000000" shadowOffset="2.89447" shadowOpacity="0.5" shadowRadius="6.24121"/>
</g>
</g>
</svg>
