<svg xmlns="http://www.w3.org/2000/svg" xmlns:xlink="http://www.w3.org/1999/xlink" width="100%" height="100%" viewBox="0 0 100 100" xml:space="preserve"><defs><linearGradient id="LinearGradient" x1="7.646" x2="22.712" y1="-10.757" y2="114.105" gradientTransform="matrix(1 0 0 1 0 0)" gradientUnits="userSpaceOnUse"><stop offset="0" stop-color="#ff0ad6"/><stop offset=".243" stop-color="#ff02c0"/><stop offset="1" stop-color="#ff0080"/></linearGradient><filter id="Filter" width="31.007" height="107.164" x="-3.425" y="-2.627" color-interpolation-filters="sRGB" filterUnits="userSpaceOnUse"><feDropShadow dx="0" dy=".955" flood-color="#000" flood-opacity=".65" in="SourceGraphic" result="Shadow" stdDeviation="1.433"/></filter><linearGradient id="LinearGradient_2" x1="96.597" x2="78.023" y1="109.771" y2="-19.425" gradientTransform="matrix(1 0 0 1 0 0)" gradientUnits="userSpaceOnUse"><stop offset="0" stop-color="#ff0ad6"/><stop offset=".243" stop-color="#ff02c0"/><stop offset="1" stop-color="#ff0080"/></linearGradient><filter id="Filter_2" width="31.076" height="107.164" x="72.348" y="-2.627" color-interpolation-filters="sRGB" filterUnits="userSpaceOnUse"><feDropShadow dx="0" dy=".955" flood-color="#000" flood-opacity=".65" in="SourceGraphic" result="Shadow" stdDeviation="1.433"/></filter><linearGradient id="LinearGradient_3" x1="9.008" x2="42.313" y1="83.353" y2="83.353" gradientTransform="matrix(0.866581 3.95513e-33 0 0.897675 12.9598 8.06728)" gradientUnits="userSpaceOnUse"><stop offset="0" stop-color="#ffea00"/><stop offset="1" stop-color="#cfbe02"/></linearGradient><filter id="Filter_3" width="35.714" height="36.723" x="17.339" y="65.444" color-interpolation-filters="sRGB" filterUnits="userSpaceOnUse"><feDropShadow dx="0" dy=".914" flood-color="#000" flood-opacity=".65" in="SourceGraphic" result="Shadow" stdDeviation="1.371"/></filter><linearGradient id="LinearGradient_4" x1="31.612" x2="90.983" y1="30.971" y2="30.971" gradientTransform="matrix(0.803038 1.66861e-33 0 0.820088 9.52425 2.1738)" gradientUnits="userSpaceOnUse"><stop offset="0" stop-color="#ffea00"/><stop offset="1" stop-color="#cfbe02"/></linearGradient><filter id="Filter_4" width="54.53" height="57.651" x="31.483" y="-.339" color-interpolation-filters="sRGB" filterUnits="userSpaceOnUse"><feDropShadow dx="0" dy=".914" flood-color="#000" flood-opacity=".65" in="SourceGraphic" result="Shadow" stdDeviation="1.371"/></filter></defs><path fill="url(#LinearGradient)" d="M20.5045 0.00885926C19.6722 0.0705589 18.8506 0.463781 18.2625 1.14776C-5.87761 29.2226-5.87761 70.7849 18.2625 98.8598C19.4387 100.228 21.4991 100.39 22.8631 99.2102C24.2271 98.0305 24.3887 95.9642 23.2125 94.5962C1.18304 68.976 1.18304 31.0316 23.2125 5.41135C24.3887 4.04338 24.2271 1.97699 22.8631 0.79733C22.1811 0.2075 21.3369-0.0528404 20.5045 0.00885926Z" filter="url(#Filter)"/><path fill="url(#LinearGradient_2)" d="M79.4363 0.00885926C78.6015-0.0528405 77.7548 0.2075 77.0708 0.79733C75.7029 1.97699 75.5407 4.04338 76.7204 5.41135C98.814 31.0316 98.814 68.976 76.7204 94.5962C75.5408 95.9642 75.7029 98.0306 77.0708 99.2102C78.4388 100.39 80.5052 100.228 81.6849 98.8598C105.895 70.7849 105.895 29.2226 81.6849 1.14776C81.095 0.463781 80.271 0.070559 79.4363 0.00885926Z" filter="url(#Filter_2)"/><path fill="url(#LinearGradient_3)" d="M35.4097 67.959C32.9296 67.9105 30.3614 68.5181 27.9624 69.9507C18.3666 75.6813 18.3666 90.0845 27.9624 95.815C37.5581 101.545 49.627 94.3442 49.627 82.8829C49.627 74.2871 42.8497 68.1042 35.4097 67.959ZM35.3013 74.7477C39.3577 74.8269 43.0734 78.1962 43.0734 82.8829C43.0734 89.1316 36.498 93.0765 31.2663 89.952C26.0345 86.8278 26.0345 78.966 31.2663 75.8418C32.5741 75.0605 33.9492 74.7212 35.3013 74.7477Z" filter="url(#Filter_3)"/><path fill="url(#LinearGradient_4)" d="M53.7184 2.1738L53.7184 19.4783L39.837 10.8124L34.9096 19.3737L49.4197 27.6024L34.9096 35.7127L39.8148 44.4333L53.7184 35.7311L53.7184 52.9719L63.6222 52.9719L63.6222 35.7311L77.6107 44.4744L82.5871 35.7127L68.0145 27.6024L82.5871 19.3737L77.6284 10.8124L63.6222 19.4783L63.6222 2.1738L53.7184 2.1738Z" filter="url(#Filter_4)"/></svg>