<svg xmlns="http://www.w3.org/2000/svg" xmlns:xlink="http://www.w3.org/1999/xlink" width="100%" height="100%" viewBox="0 0 100 100" xml:space="preserve"><defs><linearGradient id="LinearGradient" x1="-15.484" x2="37.514" y1="88.016" y2="87.978" gradientTransform="matrix(-1 -1.22465e-16 0 1 99.9998 1.77636e-15)" gradientUnits="userSpaceOnUse"><stop offset=".287" stop-color="#00ff90"/><stop offset="1" stop-color="#02fffd"/></linearGradient><filter id="Filter" width="34.75" height="107.5" x="69" y="-4.75" color-interpolation-filters="sRGB" filterUnits="userSpaceOnUse"><feDropShadow dx="0" dy="-1" flood-color="#000" flood-opacity=".45" in="SourceGraphic" result="Shadow" stdDeviation="1.5"/></filter><linearGradient id="LinearGradient_2" x1="-15.484" x2="37.514" y1="88.016" y2="87.978" gradientTransform="matrix(1 -3.22981e-22 0 1 -0.000212426 -1.5883e-15)" gradientUnits="userSpaceOnUse"><stop offset=".287" stop-color="#00ff90"/><stop offset="1" stop-color="#02fffd"/></linearGradient><filter id="Filter_2" width="34.75" height="107.5" x="-3.75" y="-4.75" color-interpolation-filters="sRGB" filterUnits="userSpaceOnUse"><feDropShadow dx="0" dy="-1" flood-color="#000" flood-opacity=".45" in="SourceGraphic" result="Shadow" stdDeviation="1.5"/></filter><linearGradient id="LinearGradient_3" x1="94.907" x2="34.37" y1="78.999" y2="79.884" gradientTransform="matrix(0.833729 -3.81322e-18 1.97128e-17 0.822016 -20.7574 26.1137)" gradientUnits="userSpaceOnUse"><stop offset=".426" stop-color="#fff"/><stop offset="1" stop-color="#d9d9d9"/></linearGradient><filter id="Filter_3" width="34.567" height="33.764" x="13.698" y="66.024" color-interpolation-filters="sRGB" filterUnits="userSpaceOnUse"><feDropShadow dx="0" dy="-1.108" flood-color="#000" flood-opacity=".45" in="SourceGraphic" result="Shadow" stdDeviation="1.662"/></filter><linearGradient id="LinearGradient_4" x1="112.173" x2="43.048" y1="54.962" y2="27.55" gradientTransform="matrix(0.790979 8.22908e-33 0 0.75815 10.1817 3.25882)" gradientUnits="userSpaceOnUse"><stop offset="0" stop-color="#ff0ac2"/><stop offset=".391" stop-color="#ff02b3"/><stop offset="1" stop-color="#ff0280"/></linearGradient><filter id="Filter_4" width="55.27" height="55.27" x="31.032" y="-2.003" color-interpolation-filters="sRGB" filterUnits="userSpaceOnUse"><feDropShadow dx="0" dy="-1.108" flood-color="#000" flood-opacity=".44" in="SourceGraphic" result="Shadow" stdDeviation="1.662"/></filter></defs><path fill="url(#LinearGradient)" d="M72.7498-2.22045e-15L72.7498 7.87301C72.7498 8.77157 73.4782 9.5 74.3768 9.5L88.8728 9.5C89.7713 9.5 90.4998 10.2284 90.4998 11.127L90.4998 88.873C90.4998 89.7716 89.7713 90.5 88.8728 90.5L74.3768 90.5C73.4782 90.5 72.7498 91.2284 72.7498 92.127L72.7498 98.373C72.7498 99.2716 73.4782 100 74.3768 100L98.3728 100C99.2713 100 99.9998 99.2716 99.9998 98.373L99.9998 1.77636e-15" filter="url(#Filter)"/><path fill="url(#LinearGradient_2)" d="M27.2498-2.24794e-15L27.2498 7.87301C27.2498 8.77157 26.5214 9.5 25.6228 9.5L11.1268 9.5C10.2283 9.5 9.49979 10.2284 9.49979 11.127L9.49979 88.873C9.49979 89.7716 10.2283 90.5 11.1268 90.5L25.6228 90.5C26.5214 90.5 27.2498 91.2284 27.2498 92.127L27.2498 98.373C27.2498 99.2716 26.5214 100 25.6228 100L1.62679 100C0.728288 100-0.000212426 99.2716-0.000212426 98.373L-0.000212426-1.5883e-15" filter="url(#Filter_2)"/><path fill="url(#LinearGradient_3)" d="M31.1618 71.2879C28.9052 71.2467 26.5833 71.7808 24.4005 73.0012C15.67 77.8816 15.67 90.1473 24.4005 95.0281C33.1309 99.9088 44.1114 93.776 44.1114 84.0146C44.1114 76.6935 37.9311 71.4117 31.1618 71.2879Z" filter="url(#Filter_3)"/><path fill="url(#LinearGradient_4)" d="M53.7122 3.25882L53.7122 19.2563L40.0393 11.245L35.1859 19.1597L49.4781 26.7669L35.1859 34.2646L40.0173 42.3266L53.7122 34.2816L53.7122 50.2203L63.4672 50.2203L63.4672 34.2816L77.2457 42.3646L82.1473 34.2646L67.7936 26.7669L82.1473 19.1597L77.2631 11.245L63.4672 19.2563L63.4672 3.25882L53.7122 3.25882Z" filter="url(#Filter_4)"/></svg>