<svg height="100%" viewBox="0 0 100 100" width="100%" xml:space="preserve" xmlns="http://www.w3.org/2000/svg" xmlns:xlink="http://www.w3.org/1999/xlink"><defs><linearGradient gradientTransform="matrix(-1 -1.22465e-16 0 1 99.9998 1.77636e-15)" gradientUnits="userSpaceOnUse" id="LinearGradient" x1="-15.4836" x2="37.5141" y1="88.0156" y2="87.9779"><stop offset="0.286842" stop-color="#00ff90"/><stop offset="1" stop-color="#02fffd"/></linearGradient><filter color-interpolation-filters="sRGB" filterUnits="userSpaceOnUse" height="107.5" id="Filter" width="34.75" x="68.9998" y="-4.75"><feDropShadow dx="6.12323e-17" dy="-1" flood-color="#000000" flood-opacity="0.45" in="SourceGraphic" result="Shadow" stdDeviation="1.5"/></filter><linearGradient gradientTransform="matrix(1 -3.22981e-22 0 1 -0.000212426 -1.5883e-15)" gradientUnits="userSpaceOnUse" id="LinearGradient_2" x1="-15.4836" x2="37.5141" y1="88.0156" y2="87.9779"><stop offset="0.286842" stop-color="#00ff90"/><stop offset="1" stop-color="#02fffd"/></linearGradient><filter color-interpolation-filters="sRGB" filterUnits="userSpaceOnUse" height="107.5" id="Filter_2" width="34.75" x="-3.75021" y="-4.75"><feDropShadow dx="6.12323e-17" dy="-1" flood-color="#000000" flood-opacity="0.45" in="SourceGraphic" result="Shadow" stdDeviation="1.5"/></filter><linearGradient gradientTransform="matrix(0.752601 -3.44217e-18 1.77946e-17 0.742028 0.984265 25.8638)" gradientUnits="userSpaceOnUse" id="LinearGradient_3" x1="94.9071" x2="34.3699" y1="78.9995" y2="79.8842"><stop offset="0.426316" stop-color="#ffffff"/><stop offset="1" stop-color="#d9d9d9"/></linearGradient><filter color-interpolation-filters="sRGB" filterUnits="userSpaceOnUse" height="30.4785" id="Filter_3" width="31.2036" x="32.0872" y="61.8902"><feDropShadow dx="6.12323e-17" dy="-1" flood-color="#000000" flood-opacity="0.45" in="SourceGraphic" result="Shadow" stdDeviation="1.5"/></filter><linearGradient gradientTransform="matrix(0.88029 0.015156 0.112039 1.40322 -6.12991 -22.2578)" gradientUnits="userSpaceOnUse" id="LinearGradient_4" x1="30.5437" x2="18.9323" y1="48.2405" y2="53.1244"><stop offset="0" stop-color="#ec0014"/><stop offset="1" stop-color="#a60101"/></linearGradient><filter color-interpolation-filters="sRGB" filterUnits="userSpaceOnUse" height="107.912" id="Filter_4" width="52.7775" x="-3.75" y="-4.75"><feDropShadow dx="6.12323e-17" dy="-1" flood-color="#000000" flood-opacity="0.44" in="SourceGraphic" result="Shadow" stdDeviation="1.5"/></filter><linearGradient gradientTransform="matrix(0.714011 7.42833e-33 0 0.684376 20.3253 4.94846)" gradientUnits="userSpaceOnUse" id="LinearGradient_5" x1="112.173" x2="43.0477" y1="54.9615" y2="27.5501"><stop offset="0" stop-color="#ff0ac2"/><stop offset="0.390789" stop-color="#ff02b3"/><stop offset="1" stop-color="#ff0280"/></linearGradient><filter color-interpolation-filters="sRGB" filterUnits="userSpaceOnUse" height="49.8918" id="Filter_5" width="49.8918" x="39.1464" y="0.19846"><feDropShadow dx="6.12323e-17" dy="-1" flood-color="#000000" flood-opacity="0.44" in="SourceGraphic" result="Shadow" stdDeviation="1.5"/></filter></defs><path d="M72.7498-2.22045e-15L72.7498 7.87301C72.7498 8.77157 73.4782 9.5 74.3768 9.5L88.8728 9.5C89.7713 9.5 90.4998 10.2284 90.4998 11.127L90.4998 88.873C90.4998 89.7716 89.7713 90.5 88.8728 90.5L74.3768 90.5C73.4782 90.5 72.7498 91.2284 72.7498 92.127L72.7498 98.373C72.7498 99.2716 73.4782 100 74.3768 100L98.3728 100C99.2713 100 99.9998 99.2716 99.9998 98.373L99.9998 1.77636e-15" fill="url(#LinearGradient)" filter="url(#Filter)"/><path d="M27.2498-2.24794e-15L27.2498 7.87301C27.2498 8.77157 26.5214 9.5 25.6228 9.5L11.1268 9.5C10.2283 9.5 9.49979 10.2284 9.49979 11.127L9.49979 88.873C9.49979 89.7716 10.2283 90.5 11.1268 90.5L25.6228 90.5C26.5214 90.5 27.2498 91.2284 27.2498 92.127L27.2498 98.373C27.2498 99.2716 26.5214 100 25.6228 100L1.62679 100C0.728288 100-0.000212426 99.2716-0.000212426 98.373L-0.000212426-1.5883e-15" fill="url(#LinearGradient_2)" filter="url(#Filter_2)"/><path d="M47.8513 66.6422C45.8143 66.605 43.7183 67.0872 41.7479 68.1888C33.867 72.5943 33.867 83.6665 41.7479 88.0723C49.6288 92.4781 59.5408 86.9421 59.5408 78.1305C59.5408 71.5218 53.9619 66.754 47.8513 66.6422Z" fill="url(#LinearGradient_3)" filter="url(#Filter_3)"/><path d="M0 0L36.0481 100.402L45.2775 100.412L9.15485-2.22045e-15L0 0Z" fill="url(#LinearGradient_4)" filter="url(#Filter_4)"/><path d="M59.62 4.94846L59.62 19.3893L47.2775 12.1575L42.8964 19.3021L55.7978 26.169L42.8964 32.9372L47.2577 40.2147L59.62 32.9525L59.62 47.3402L68.4257 47.3402L68.4257 32.9525L80.8635 40.2489L85.2881 32.9372L72.3311 26.169L85.2881 19.3021L80.8792 12.1575L68.4257 19.3893L68.4257 4.94846L59.62 4.94846Z" fill="url(#LinearGradient_5)" filter="url(#Filter_5)"/></svg>
