<svg xmlns="http://www.w3.org/2000/svg" xmlns:xlink="http://www.w3.org/1999/xlink" height="100%" stroke-miterlimit="10" style="fill-rule:nonzero;clip-rule:evenodd;stroke-linecap:round;stroke-linejoin:round" width="100%" version="1.1" viewBox="0 0 100 100" xml:space="preserve"><defs><linearGradient id="LinearGradient" x1="91.78" x2="49.642" y1="21.694" y2="22.068" gradientTransform="matrix(1.75723 0 0 1.73744 -38.6085 -13.9871)" gradientUnits="userSpaceOnUse"><stop offset=".426" stop-color="#fff"/><stop offset="1" stop-color="#d9d9d9"/></linearGradient><filter id="Filter" width="56.216" height="57.318" x="48.052" y="-3.13" color-interpolation-filters="sRGB" filterUnits="userSpaceOnUse"><feDropShadow dx="0" dy="1.138" flood-color="#000" flood-opacity=".45" in="SourceGraphic" result="Shadow" stdDeviation="1.707"/></filter><linearGradient id="LinearGradient_2" x1="94.907" x2="34.37" y1="78.999" y2="79.884" gradientTransform="matrix(0.899085 -4.11215e-18 2.12581e-17 0.886453 5.38421 21.5234)" gradientUnits="userSpaceOnUse"><stop offset=".426" stop-color="#fff"/><stop offset="1" stop-color="#d9d9d9"/></linearGradient><filter id="Filter_2" width="34.508" height="33.642" x="43.925" y="67.966" color-interpolation-filters="sRGB" filterUnits="userSpaceOnUse"><feDropShadow dx="0" dy=".826" flood-color="#000" flood-opacity=".45" in="SourceGraphic" result="Shadow" stdDeviation="1.238"/></filter><linearGradient id="LinearGradient_3" x1="30.544" x2="18.932" y1="48.24" y2="53.124" gradientTransform="matrix(1.03295 0.0928992 -0.0676023 1.0071 1.69938 -3.86743)" gradientUnits="userSpaceOnUse"><stop offset="0" stop-color="#ec0062"/><stop offset="1" stop-color="#a60146"/></linearGradient><filter id="Filter_3" width="50.721" height="106.703" x="-.193" y="-2.416" color-interpolation-filters="sRGB" filterUnits="userSpaceOnUse"><feDropShadow dx="0" dy=".935" flood-color="#000" flood-opacity=".45" in="SourceGraphic" result="Shadow" stdDeviation="1.403"/></filter></defs><path fill="url(#LinearGradient)" d="M71.1271 0L71.1271 16.6136L57.2485 8.29804L52.3211 16.5172L66.8285 24.4208L52.3211 32.202L57.2222 40.5789L71.1271 32.2284L71.1271 48.7807C71.1267 48.7807 81.0349 48.7807 81.0349 48.7807L81.0349 32.2284L95.0196 40.614L100 32.202L85.4216 24.4208L100 16.5172L95.0371 8.29804L81.0349 16.6136L81.0349 0L71.1271 0Z" filter="url(#Filter)"/><path fill="url(#LinearGradient_2)" d="M61.3733 70.2388C58.9398 70.1943 56.4359 70.7704 54.0819 72.0864C44.6672 77.3493 44.6672 90.5766 54.0819 95.8399C63.4967 101.103 75.338 94.4898 75.338 83.9631C75.338 76.0682 68.6732 70.3723 61.3733 70.2388Z" filter="url(#Filter_2)"/><path fill="url(#LinearGradient_3)" d="M8.57275 0.170213C7.92106 0.123745 7.25899 0.187432 6.60851 0.405161C4.00659 1.27608 2.66431 4.0613 3.62534 6.62754L37.2763 96.5023C38.2373 99.0686 41.1248 100.455 43.7267 99.5837C46.3286 98.7128 47.6709 95.9276 46.7099 93.3614L13.0589 3.48657C12.3382 1.56189 10.5278 0.309617 8.57275 0.170213Z" filter="url(#Filter_3)"/></svg>