<svg xmlns="http://www.w3.org/2000/svg" xmlns:xlink="http://www.w3.org/1999/xlink" width="100%" height="100%" viewBox="0 0 100 100" xml:space="preserve"><defs><linearGradient id="LinearGradient" x1="-5.01" x2="23.001" y1="1.841" y2="97.853" gradientTransform="matrix(1 0 0 1 4.3297 0)" gradientUnits="userSpaceOnUse"><stop offset=".287" stop-color="#00ff90"/><stop offset="1" stop-color="#02fffd"/></linearGradient><filter id="Filter" width="36.091" height="106.668" x="-3.334" y="-4.223" color-interpolation-filters="sRGB" filterUnits="userSpaceOnUse"><feDropShadow dx="0" dy="-.889" flood-color="#000" flood-opacity=".44" in="SourceGraphic" result="Shadow" stdDeviation="1.334"/></filter><linearGradient id="LinearGradient_2" x1="102.658" x2="73.344" y1="103.1" y2="-4.651" gradientTransform="matrix(1 0 0 1 -4.3297 0)" gradientUnits="userSpaceOnUse"><stop offset=".287" stop-color="#00ff90"/><stop offset="1" stop-color="#02fffd"/></linearGradient><filter id="Filter_2" width="36.091" height="106.668" x="67.243" y="-4.223" color-interpolation-filters="sRGB" filterUnits="userSpaceOnUse"><feDropShadow dx="0" dy="-.889" flood-color="#000" flood-opacity=".44" in="SourceGraphic" result="Shadow" stdDeviation="1.334"/></filter><filter id="Filter_3" width="73.474" height="102.789" x="29.86" y="-4.223" color-interpolation-filters="sRGB" filterUnits="userSpaceOnUse"><feDropShadow dx="0" dy="-.889" flood-color="#000" flood-opacity=".44" in="SourceGraphic" result="Shadow" stdDeviation="1.334"/></filter><linearGradient id="LinearGradient_3" x1="112.173" x2="43.048" y1="54.962" y2="27.55" gradientTransform="matrix(0.795329 8.27434e-33 0 0.762319 27.6386 3.93212e-10)" gradientUnits="userSpaceOnUse"><stop offset="0" stop-color="#ff0ac2"/><stop offset=".391" stop-color="#ff02b3"/><stop offset="1" stop-color="#ff0280"/></linearGradient><linearGradient id="LinearGradient_4" x1="94.907" x2="34.37" y1="78.999" y2="79.884" gradientTransform="matrix(0.815307 -3.60516e-18 1.92772e-17 0.777164 -4.56337 29.3474)" gradientUnits="userSpaceOnUse"><stop offset=".426" stop-color="#fff"/><stop offset="1" stop-color="#d9d9d9"/></linearGradient><linearGradient id="LinearGradient_5" x1="30.544" x2="18.932" y1="48.24" y2="53.124" gradientTransform="matrix(0.986069 0.166408 -0.130417 1.2291 -1.16162 -17.1643)" gradientUnits="userSpaceOnUse"><stop offset="0" stop-color="#ec0014"/><stop offset="1" stop-color="#a60101"/></linearGradient><filter id="Filter_4" width="40.63" height="107.026" x="-2.479" y="-4.45" color-interpolation-filters="sRGB" filterUnits="userSpaceOnUse"><feDropShadow dx="0" dy="-.937" flood-color="#000" flood-opacity=".44" in="SourceGraphic" result="Shadow" stdDeviation="1.405"/></filter></defs><path fill="url(#LinearGradient)" d="M17.4178 0C-5.72344 29.3056-5.80563 70.4992 17.1712 99.8908L29.4235 100L26.486 97.0625C3.16702 70.0213 3.16702 29.9787 26.486 2.9375L29.4235 0L17.4178 0Z" filter="url(#Filter)"/><path fill="url(#LinearGradient_2)" d="M70.5765 0L73.514 2.9375C96.833 29.9787 96.833 70.0213 73.514 97.0625L70.5765 100L82.6652 100C105.719 70.7058 105.778 29.3491 82.8412 0L70.5765 0Z" filter="url(#Filter_2)"/><g filter="url(#Filter_3)"><path fill="url(#LinearGradient_3)" d="M71.4085 0L71.4085 16.0855L57.6603 8.0301L52.7803 15.9883L67.1511 23.6373L52.7803 31.1763L57.6383 39.2826L71.4085 31.1933L71.4085 47.2197L81.2171 47.2197L81.2171 31.1933L95.0714 39.3208L100 31.1763L85.5673 23.6373L100 15.9883L95.0889 8.0301L81.2171 16.0855L81.2171 0L71.4085 0Z" opacity="1"/><path fill="url(#LinearGradient_4)" d="M46.2086 72.0568C44.0019 72.0178 41.7313 72.5228 39.5966 73.6766C31.0592 78.2907 31.0592 89.8871 39.5966 94.5016C48.1342 99.1155 58.8721 93.3179 58.8721 84.089C58.8721 77.1675 52.8283 72.1739 46.2086 72.0568Z" opacity="1"/></g><path fill="url(#LinearGradient_5)" d="M1.03412 0L24.7047 100L34.6378 100L10.8451 0L1.03412 0Z" filter="url(#Filter_4)"/></svg>