<svg height="100%" stroke-miterlimit="10" style="fill-rule:nonzero;clip-rule:evenodd;stroke-linecap:round;stroke-linejoin:round;" version="1.1" viewBox="0 0 100 100" width="100%" xml:space="preserve" xmlns="http://www.w3.org/2000/svg" xmlns:vectornator="http://vectornator.io" xmlns:xlink="http://www.w3.org/1999/xlink">
<defs/>
<clipPath id="ArtboardFrame">
<rect height="100" width="100" x="0" y="0"/>
</clipPath>
<g clip-path="url(#ArtboardFrame)" id="Regex-Dot-All-Magnifying-Glass" layerName="Regex-Dot-All Magnifying-Glass">
<path d="M12.6334 12.6612C-4.21114 29.5058-4.21114 56.7045 12.6334 73.5491C28.37 89.2856 53.1311 90.2229 70.0697 76.5692C70.0463 76.8778 69.933 77.1623 69.9618 77.486C70.0941 78.9693 70.8061 80.5306 72.0381 81.7735L87.9208 97.8718C90.385 100.357 94.054 100.717 96.1182 98.6808L98.653 96.146C100.717 94.1069 100.365 90.4881 97.8979 88.0025L82.0153 71.9042C80.4772 70.3528 78.4964 69.7155 76.7032 69.8818C90.192 52.9353 89.3007 28.225 73.6291 12.5534C56.7845-4.29118 29.4779-4.1832 12.6334 12.6612ZM18.2152 18.2431C31.9456 4.51272 54.2089 4.51258 67.9394 18.2431C81.67 31.9736 81.6967 54.2638 67.9664 67.9942C54.2359 81.7247 31.9458 81.6978 18.2152 67.9672C4.48476 54.2367 4.48476 31.9736 18.2152 18.2431Z" fill="#efefef" fill-rule="nonzero" opacity="1" stroke="none" layerName="Magnifying-Glass"/>
<path d="M47.8207 11L47.8207 21.1875L39.4145 16.0938L36.4457 21.125L45.227 25.9688L36.4457 30.75L39.4145 35.875L47.8207 30.75L47.8207 40.9063L53.8207 40.9063L53.8207 30.75L62.2895 35.9063L65.2895 30.75L56.477 25.9688L65.2895 21.125L62.2895 16.0938L53.8207 21.1875L53.8207 11L47.8207 11ZM32.85 54.4242C26.6616 54.4574 22.3438 59.725 22.3438 64.9213C22.3438 70.1176 26.6385 75.3438 32.85 75.3438C39.0615 75.3438 43.3 70.0763 43.3 64.88C43.3 59.6837 39.0384 54.391 32.85 54.4242ZM32.85 60.6993C35.2832 60.7507 37.0391 62.7893 37.0391 64.88C37.0391 66.9707 35.1761 68.9733 32.85 69.0621C30.5239 69.1509 28.6562 66.9707 28.6562 64.88C28.6562 62.7893 30.4168 60.6478 32.85 60.6993Z" fill="#efefef" fill-rule="nonzero" opacity="1" stroke="none" layerName="Regex-Dot-All"/>
</g>
</svg>
