<svg xmlns="http://www.w3.org/2000/svg" xmlns:xlink="http://www.w3.org/1999/xlink" height="100%" stroke-miterlimit="10" style="fill-rule:nonzero;clip-rule:evenodd;stroke-linecap:round;stroke-linejoin:round" width="100%" version="1.1" viewBox="0 0 100 100" xml:space="preserve"><defs><linearGradient id="LinearGradient" x1="-15.484" x2="37.514" y1="88.016" y2="87.978" gradientTransform="matrix(1 0 0 1 0 0)" gradientUnits="userSpaceOnUse"><stop offset=".287" stop-color="#00ff90"/><stop offset="1" stop-color="#02fffd"/></linearGradient><filter id="Filter" width="37.096" height="105.846" x="-3.059" y="-2.156" color-interpolation-filters="sRGB" filterUnits="userSpaceOnUse"><feDropShadow dx="-.135" dy=".768" flood-color="#000" flood-opacity=".45" in="SourceGraphic" result="Shadow" stdDeviation="1.169"/></filter><linearGradient id="LinearGradient_2" x1="-15.484" x2="37.514" y1="88.016" y2="87.978" gradientTransform="matrix(-1 -1.22465e-16 0 1 100 0)" gradientUnits="userSpaceOnUse"><stop offset=".287" stop-color="#00ff90"/><stop offset="1" stop-color="#02fffd"/></linearGradient><filter id="Filter_2" width="37.096" height="105.846" x="65.691" y="-2.156" color-interpolation-filters="sRGB" filterUnits="userSpaceOnUse"><feDropShadow dx="-.135" dy=".768" flood-color="#000" flood-opacity=".45" in="SourceGraphic" result="Shadow" stdDeviation="1.169"/></filter><linearGradient id="LinearGradient_3" x1="91.78" x2="49.642" y1="21.694" y2="22.068" gradientTransform="matrix(1.6229 1.43706e-32 0 1.60462 -33.9783 -7.96936)" gradientUnits="userSpaceOnUse"><stop offset=".426" stop-color="#fff"/><stop offset="1" stop-color="#d9d9d9"/></linearGradient><filter id="Filter_3" width="50.961" height="51.978" x="46.376" y="2.395" color-interpolation-filters="sRGB" filterUnits="userSpaceOnUse"><feDropShadow dx="-.16" dy=".91" flood-color="#000" flood-opacity=".45" in="SourceGraphic" result="Shadow" stdDeviation="1.385"/></filter><linearGradient id="LinearGradient_4" x1="94.907" x2="34.37" y1="78.999" y2="79.884" gradientTransform="matrix(0.752601 -3.44217e-18 1.77946e-17 0.742028 7.61125 23.2752)" gradientUnits="userSpaceOnUse"><stop offset=".426" stop-color="#fff"/><stop offset="1" stop-color="#d9d9d9"/></linearGradient><filter id="Filter_4" width="30.497" height="29.772" x="38.91" y="61.547" color-interpolation-filters="sRGB" filterUnits="userSpaceOnUse"><feDropShadow dx="-.157" dy=".892" flood-color="#000" flood-opacity=".45" in="SourceGraphic" result="Shadow" stdDeviation="1.359"/></filter><linearGradient id="LinearGradient_5" x1="30.544" x2="18.932" y1="48.24" y2="53.124" gradientTransform="matrix(0.929096 0.0835591 -0.0608056 0.905845 3.94176 4.72934)" gradientUnits="userSpaceOnUse"><stop offset="0" stop-color="#ffea00"/><stop offset="1" stop-color="#cfbe02"/></linearGradient><filter id="Filter_5" width="46.058" height="96.412" x="1.865" y="5.861" color-interpolation-filters="sRGB" filterUnits="userSpaceOnUse"><feDropShadow dx="-.156" dy=".886" flood-color="#000" flood-opacity=".45" in="SourceGraphic" result="Shadow" stdDeviation="1.349"/></filter></defs><path fill="url(#LinearGradient)" d="M31.25 0L31.25 7.87301C31.25 8.77157 30.5215 9.5 29.623 9.5L11.127 9.5C10.2284 9.5 9.5 10.2284 9.5 11.127L9.5 88.873C9.5 89.7716 10.2284 90.5 11.127 90.5L29.623 90.5C30.5215 90.5 31.25 91.2284 31.25 92.127L31.25 98.373C31.25 99.2716 30.5215 100 29.623 100L1.62699 100C0.72843 100 0 99.2716 0 98.373L0 0" filter="url(#Filter)"/><path fill="url(#LinearGradient_2)" d="M68.75-3.82702e-15L68.75 7.87301C68.75 8.77157 69.4784 9.5 70.377 9.5L88.873 9.5C89.7715 9.5 90.5 10.2284 90.5 11.127L90.5 88.873C90.5 89.7716 89.7715 90.5 88.873 90.5L70.377 90.5C69.4784 90.5 68.75 91.2284 68.75 92.127L68.75 98.373C68.75 99.2716 69.4784 100 70.377 100L98.373 100C99.2715 100 100 99.2716 100 98.373L100 0" filter="url(#Filter_2)"/><g opacity="1"><path fill="url(#LinearGradient_3)" d="M67.3683 4.94846L67.3683 20.292L54.5507 12.6121L50 20.203L63.3984 27.5024L50 34.6887L54.5264 42.4252L67.3683 34.7131L67.3683 50C67.368 50 76.5187 50 76.5187 50L76.5187 34.7131L89.4343 42.4576L94.034 34.6887L80.57 27.5024L94.034 20.203L89.4505 12.6121L76.5187 20.292L76.5187 4.94846L67.3683 4.94846Z" filter="url(#Filter_3)"/><path fill="url(#LinearGradient_4)" d="M54.4783 64.0536C52.4413 64.0164 50.3453 64.4986 48.3749 65.6002C40.494 70.0057 40.494 81.0779 48.3749 85.4837C56.2558 89.8895 66.1678 84.3535 66.1678 75.5419C66.1678 68.9332 60.5889 64.1654 54.4783 64.0536Z" filter="url(#Filter_4)"/><path fill="url(#LinearGradient_5)" d="M10.1241 8.36104C9.53791 8.31924 8.94241 8.37653 8.35733 8.57236C6.017 9.35572 4.80968 11.8609 5.67408 14.1691L35.9418 95.0079C36.8062 97.3162 39.4033 98.5629 41.7437 97.7795C44.084 96.9962 45.2913 94.491 44.4269 92.1828L14.1592 11.344C13.5109 9.6128 11.8826 8.48643 10.1241 8.36104Z" filter="url(#Filter_5)"/></g></svg>