<svg xmlns="http://www.w3.org/2000/svg" xmlns:vectornator="http://vectornator.io" xmlns:xlink="http://www.w3.org/1999/xlink" height="100%" stroke-miterlimit="10" style="fill-rule:nonzero;clip-rule:evenodd;stroke-linecap:round;stroke-linejoin:round" width="100%" version="1.1" viewBox="0 0 100 100" xml:space="preserve"><defs><filter id="Filter" width="31.001" height="18.665" x="34.042" y="56.272" color-interpolation-filters="sRGB" filterUnits="userSpaceOnUse"><feDropShadow dx="-.457" dy=".761" flood-color="#000" flood-opacity=".55" in="SourceGraphic" result="Shadow" stdDeviation="1.252"/></filter><filter id="Filter_2" width="100.28" height="45.846" x="-.597" y="19.178" color-interpolation-filters="sRGB" filterUnits="userSpaceOnUse"><feDropShadow dx="-.457" dy=".761" flood-color="#000" flood-opacity=".55" in="SourceGraphic" result="Shadow" stdDeviation="1.252"/></filter><filter id="Filter_3" width="90.383" height="55.743" x="4.351" y="26.601" color-interpolation-filters="sRGB" filterUnits="userSpaceOnUse"><feDropShadow dx="-.457" dy=".761" flood-color="#000" flood-opacity=".55" in="SourceGraphic" result="Shadow" stdDeviation="1.252"/></filter><filter id="Filter_4" width="60.692" height="18.63" x="19.197" y="43.92" color-interpolation-filters="sRGB" filterUnits="userSpaceOnUse"><feDropShadow dx="-.457" dy=".761" flood-color="#000" flood-opacity=".55" in="SourceGraphic" result="Shadow" stdDeviation="1.252"/></filter></defs><clipPath id="ArtboardFrame"><rect width="100.28" height="63.166" x="-.597" y="19.178"/></clipPath><g id="Layer" clip-path="url(#ArtboardFrame)" layerName="Layer"><g layerName="Group 8" opacity="1"><path fill="#0c0058" fill-rule="evenodd" stroke="none" d="M37.7154 58.64L37.6288 71.0459L62.3712 71.0459L62.2747 58.64L37.7154 58.64Z" filter="url(#Filter)" layerName="path" shadowAngle="2.112" shadowColor="#000000" shadowOffset=".888" shadowOpacity=".55" shadowRadius="2.503"/><path fill="#0c0058" fill-rule="evenodd" stroke="none" d="M79.6785 28.9393L79.6909 21.5463L20.3091 21.5463L20.3215 28.9393L79.6785 28.9393ZM92.062 43.8144L97.0105 43.8144L97.0105 61.1341L92.062 61.1341L92.062 43.8144ZM2.98948 43.8144L7.93795 43.8144L7.93795 61.1341L2.98948 61.1341L2.98948 43.8144Z" filter="url(#Filter_2)" layerName="path" shadowAngle="2.112" shadowColor="#000000" shadowOffset=".888" shadowOpacity=".55" shadowRadius="2.503"/><path fill="#ff6e6e" fill-rule="evenodd" stroke="none" d="M64.8454 78.4537L57.5588 64.3877C53.553 56.6557 46.4247 56.6557 42.409 64.3877L34.5187 78.4537L7.93795 78.4537L7.93795 28.969L92.062 28.969L92.062 78.4537L64.8454 78.4537Z" filter="url(#Filter_3)" layerName="path" shadowAngle="2.112" shadowColor="#000000" shadowOffset=".888" shadowOpacity=".55" shadowRadius="2.503"/><path fill="#0c0058" fill-rule="evenodd" stroke="none" d="M28.969 46.2886C32.3852 46.2886 35.1546 49.058 35.1546 52.4742C35.1546 55.8904 32.3852 58.6598 28.969 58.6598C25.5528 58.6598 22.7834 55.8904 22.7834 52.4742C22.7834 49.058 25.5528 46.2886 28.969 46.2886ZM71.031 46.2886C74.4472 46.2886 77.2166 49.058 77.2166 52.4742C77.2166 55.8904 74.4472 58.6598 71.031 58.6598C67.6148 58.6598 64.8454 55.8904 64.8454 52.4742C64.8454 49.058 67.6148 46.2886 71.031 46.2886Z" filter="url(#Filter_4)" layerName="path 3" shadowAngle="2.112" shadowColor="#000000" shadowOffset=".888" shadowOpacity=".55" shadowRadius="2.503"/></g></g></svg>