<svg xmlns="http://www.w3.org/2000/svg" xmlns:vectornator="http://vectornator.io" xmlns:xlink="http://www.w3.org/1999/xlink" height="100%" stroke-miterlimit="10" style="fill-rule:nonzero;clip-rule:evenodd;stroke-linecap:round;stroke-linejoin:round" width="100%" version="1.1" viewBox="0 0 100 100" xml:space="preserve"><defs><linearGradient id="LinearGradient" x1="4.151" x2="96.76" y1="94.453" y2="4.867" gradientTransform="matrix(1 0 0 1 0 0)" gradientUnits="userSpaceOnUse"><stop offset="0" stop-color="#e600b8"/><stop offset=".163" stop-color="#ff02cc"/><stop offset="1" stop-color="#ff0279"/></linearGradient><filter id="Filter" width="111.857" height="111.857" x="-4.298" y="-9.56" color-interpolation-filters="sRGB" filterUnits="userSpaceOnUse"><feGaussianBlur in="SourceGraphic" result="Blur" stdDeviation="5"/></filter><radialGradient id="RadialGradient" cx="5.222" cy="94.049" r="127.499" gradientTransform="matrix(1 0 0 1 0 3.55271e-15)" gradientUnits="userSpaceOnUse"><stop offset="0" stop-color="#e600b8"/><stop offset=".163" stop-color="#ff02cc"/><stop offset="1" stop-color="#ff0279"/></radialGradient><filter id="Filter_2" width="111" height="111" x="-5.798" y="-4.681" color-interpolation-filters="sRGB" filterUnits="userSpaceOnUse"><feDropShadow dx="-.298" dy=".819" flood-color="#4f0252" flood-opacity=".75" in="SourceGraphic" result="Shadow" stdDeviation="3"/></filter></defs><g id="Layer" layerName="Layer"><g layerName="g 1" opacity="1"><path fill="url(#LinearGradient)" fill-rule="nonzero" stroke="none" d="M95.0596 89.7974L8.2025 89.7974L8.2025 2.94032C56.1724 2.94032 95.0596 41.8275 95.0596 89.7974Z" blur="10" filter="url(#Filter)" layerName="path" opacity=".4"/><path fill="url(#RadialGradient)" fill-rule="nonzero" stroke="none" d="M98 93.4285C98 95.953 95.953 98 93.4285 98C90.9035 98 88.8569 95.953 88.8569 93.4285C88.8569 48.0569 51.943 11.1429 6.57141 11.1429C4.04669 11.1429 2 9.09613 2 6.57141C2 4.04669 4.04669 2 6.57141 2C56.9826 2 98 43.0172 98 93.4285ZM6.57141 43.1428C4.04669 43.1428 2 45.1894 2 47.7144C2 50.2389 4.04669 52.2855 6.57141 52.2855C29.2835 52.3108 47.6891 70.7164 47.7144 93.4285C47.7144 95.953 49.761 98 52.2855 98C54.8104 98 56.857 95.953 56.857 93.4285C56.8256 65.6694 34.3303 43.1742 6.57141 43.1428ZM8.85714 84.2854C5.07003 84.2854 2 87.3555 2 91.1429C2 94.9299 5.07003 98 8.85714 98C12.6442 98 15.7143 94.9299 15.7143 91.1429C15.7143 87.3555 12.6442 84.2854 8.85714 84.2854Z" filter="url(#Filter_2)" layerName="path" shadowAngle="1.92" shadowColor="#4f0252" shadowOffset=".871" shadowOpacity=".75" shadowRadius="6"/></g></g></svg>