<svg xmlns="http://www.w3.org/2000/svg" xmlns:xlink="http://www.w3.org/1999/xlink" style="fill-rule:nonzero;clip-rule:evenodd;stroke-linecap:round;stroke-linejoin:round" width="100%" height="100%" stroke-miterlimit="10" version="1.1" viewBox="0 0 256 256" xml:space="preserve"><defs><filter id="Filter" width="260.941" height="260.941" x="-5.042" y="-.509" color-interpolation-filters="sRGB" filterUnits="userSpaceOnUse"><feDropShadow dx="-2.572" dy="1.962" flood-color="#000" flood-opacity=".6" in="SourceGraphic" result="Shadow" stdDeviation="5.103"/></filter></defs><g opacity="1"><path fill="#f0f" fill-rule="nonzero" stroke="none" d="M238.502 230.502L25.4981 230.502L25.4981 17.4981C143.137 17.4981 238.502 112.863 238.502 230.502Z" opacity=".2"/><path fill="#f0f" fill-rule="nonzero" stroke="none" d="M245.713 234.502C245.713 240.693 240.693 245.713 234.502 245.713C228.31 245.713 223.291 240.693 223.291 234.502C223.291 123.235 132.765 32.7089 21.4981 32.7089C15.3066 32.7089 10.2874 27.6896 10.2874 21.4981C10.2874 15.3066 15.3066 10.2874 21.4981 10.2874C145.124 10.2874 245.713 110.876 245.713 234.502ZM21.4981 111.184C15.3066 111.184 10.2874 116.203 10.2874 122.395C10.2874 128.586 15.3066 133.605 21.4981 133.605C77.1961 133.667 122.333 178.804 122.395 234.502C122.395 240.693 127.414 245.713 133.605 245.713C139.797 245.713 144.816 240.693 144.816 234.502C144.739 166.427 89.5727 111.261 21.4981 111.184ZM27.1035 212.08C17.8162 212.08 10.2874 219.609 10.2874 228.897C10.2874 238.184 17.8162 245.713 27.1035 245.713C36.3908 245.713 43.9196 238.184 43.9196 228.897C43.9196 219.609 36.3908 212.08 27.1035 212.08Z" filter="url(#Filter)"/></g></svg>