<svg width="100%" height="100%" viewBox="0 0 100 100" xml:space="preserve" xmlns="http://www.w3.org/2000/svg" xmlns:xlink="http://www.w3.org/1999/xlink">
<defs>
<filter color-interpolation-filters="sRGB" filterUnits="userSpaceOnUse" height="81.7139" id="Filter" width="50.3473" x="3.40271" y="21.4518">
<feDropShadow dx="0" dy="0" flood-color="#000000" flood-opacity="0.4" in="SourceGraphic" result="Shadow" stdDeviation="1.5"/>
</filter>
<filter color-interpolation-filters="sRGB" filterUnits="userSpaceOnUse" height="81.7139" id="Filter_2" width="50.3473" x="3.40271" y="21.4518">
<feDropShadow dx="0" dy="0" flood-color="#000000" flood-opacity="0.4" in="SourceGraphic" result="Shadow" stdDeviation="1.5"/>
</filter>
<filter color-interpolation-filters="sRGB" filterUnits="userSpaceOnUse" height="35.6824" id="Filter_3" width="32.3762" x="5.98159" y="26.0699">
<feDropShadow dx="0" dy="0" flood-color="#000000" flood-opacity="0.4" in="SourceGraphic" result="Shadow" stdDeviation="1.5"/>
</filter>
<filter color-interpolation-filters="sRGB" filterUnits="userSpaceOnUse" height="28.3218" id="Filter_4" width="19.5667" x="31.6013" y="40.7888">
<feDropShadow dx="0" dy="0" flood-color="#000000" flood-opacity="0.4" in="SourceGraphic" result="Shadow" stdDeviation="1.5"/>
</filter>
<filter color-interpolation-filters="sRGB" filterUnits="userSpaceOnUse" height="21.4553" id="Filter_5" width="19.5667" x="31.6013" y="47.6553">
<feDropShadow dx="0" dy="0" flood-color="#000000" flood-opacity="0.4" in="SourceGraphic" result="Shadow" stdDeviation="1.5"/>
</filter>
<filter color-interpolation-filters="sRGB" filterUnits="userSpaceOnUse" height="28.3233" id="Filter_6" width="19.5675" x="5.98159" y="40.7888">
<feDropShadow dx="0" dy="0" flood-color="#000000" flood-opacity="0.4" in="SourceGraphic" result="Shadow" stdDeviation="1.5"/>
</filter>
<filter color-interpolation-filters="sRGB" filterUnits="userSpaceOnUse" height="28.3233" id="Filter_7" width="19.5667" x="18.7911" y="48.1479">
<feDropShadow dx="0" dy="0" flood-color="#000000" flood-opacity="0.4" in="SourceGraphic" result="Shadow" stdDeviation="1.5"/>
</filter>
<filter color-interpolation-filters="sRGB" filterUnits="userSpaceOnUse" height="28.8121" id="Filter_8" width="32.377" x="18.7911" y="55.0167">
<feDropShadow dx="0" dy="0" flood-color="#000000" flood-opacity="0.4" in="SourceGraphic" result="Shadow" stdDeviation="1.5"/>
</filter>
<filter color-interpolation-filters="sRGB" filterUnits="userSpaceOnUse" height="28.3233" id="Filter_9" width="19.5675" x="5.98159" y="55.507">
<feDropShadow dx="0" dy="0" flood-color="#000000" flood-opacity="0.4" in="SourceGraphic" result="Shadow" stdDeviation="1.5"/>
</filter>
<filter color-interpolation-filters="sRGB" filterUnits="userSpaceOnUse" height="36.1719" id="Filter_10" width="45.1864" x="5.98159" y="62.3757">
<feDropShadow dx="0" dy="0" flood-color="#000000" flood-opacity="0.4" in="SourceGraphic" result="Shadow" stdDeviation="1.5"/>
</filter>
<filter color-interpolation-filters="sRGB" filterUnits="userSpaceOnUse" height="81.7139" id="Filter_11" width="50.3473" x="46.25" y="21.4518">
<feDropShadow dx="0" dy="0" flood-color="#000000" flood-opacity="0.4" in="SourceGraphic" result="Shadow" stdDeviation="1.5"/>
</filter>
<filter color-interpolation-filters="sRGB" filterUnits="userSpaceOnUse" height="81.7139" id="Filter_12" width="50.3473" x="46.25" y="21.4518">
<feDropShadow dx="0" dy="0" flood-color="#000000" flood-opacity="0.4" in="SourceGraphic" result="Shadow" stdDeviation="1.5"/>
</filter>
<filter color-interpolation-filters="sRGB" filterUnits="userSpaceOnUse" height="35.6824" id="Filter_13" width="32.3762" x="61.6422" y="26.0699">
<feDropShadow dx="0" dy="0" flood-color="#000000" flood-opacity="0.4" in="SourceGraphic" result="Shadow" stdDeviation="1.5"/>
</filter>
<filter color-interpolation-filters="sRGB" filterUnits="userSpaceOnUse" height="28.3218" id="Filter_14" width="19.5667" x="48.8327" y="40.7888">
<feDropShadow dx="0" dy="0" flood-color="#000000" flood-opacity="0.4" in="SourceGraphic" result="Shadow" stdDeviation="1.5"/>
</filter>
<filter color-interpolation-filters="sRGB" filterUnits="userSpaceOnUse" height="21.3542" id="Filter_15" width="19.5667" x="48.8327" y="40.7888">
<feDropShadow dx="0" dy="0" flood-color="#000000" flood-opacity="0.4" in="SourceGraphic" result="Shadow" stdDeviation="1.5"/>
</filter>
<filter color-interpolation-filters="sRGB" filterUnits="userSpaceOnUse" height="28.3233" id="Filter_16" width="19.5667" x="74.4517" y="40.7888">
<feDropShadow dx="0" dy="0" flood-color="#000000" flood-opacity="0.4" in="SourceGraphic" result="Shadow" stdDeviation="1.5"/>
</filter>
<filter color-interpolation-filters="sRGB" filterUnits="userSpaceOnUse" height="28.3233" id="Filter_17" width="19.5667" x="61.6422" y="48.1479">
<feDropShadow dx="0" dy="0" flood-color="#000000" flood-opacity="0.4" in="SourceGraphic" result="Shadow" stdDeviation="1.5"/>
</filter>
<filter color-interpolation-filters="sRGB" filterUnits="userSpaceOnUse" height="21.3542" id="Filter_18" width="19.5667" x="61.6422" y="48.1479">
<feDropShadow dx="0" dy="0" flood-color="#000000" flood-opacity="0.4" in="SourceGraphic" result="Shadow" stdDeviation="1.5"/>
</filter>
<filter color-interpolation-filters="sRGB" filterUnits="userSpaceOnUse" height="28.3218" id="Filter_19" width="19.5667" x="48.8327" y="55.507">
<feDropShadow dx="0" dy="0" flood-color="#000000" flood-opacity="0.4" in="SourceGraphic" result="Shadow" stdDeviation="1.5"/>
</filter>
<filter color-interpolation-filters="sRGB" filterUnits="userSpaceOnUse" height="28.3233" id="Filter_20" width="19.5667" x="74.4517" y="55.507">
<feDropShadow dx="0" dy="0" flood-color="#000000" flood-opacity="0.4" in="SourceGraphic" result="Shadow" stdDeviation="1.5"/>
</filter>
<filter color-interpolation-filters="sRGB" filterUnits="userSpaceOnUse" height="21.3565" id="Filter_21" width="19.5667" x="74.4517" y="55.507">
<feDropShadow dx="0" dy="0" flood-color="#000000" flood-opacity="0.4" in="SourceGraphic" result="Shadow" stdDeviation="1.5"/>
</filter>
<filter color-interpolation-filters="sRGB" filterUnits="userSpaceOnUse" height="28.3225" id="Filter_22" width="19.5667" x="61.6422" y="62.8668">
<feDropShadow dx="0" dy="0" flood-color="#000000" flood-opacity="0.4" in="SourceGraphic" result="Shadow" stdDeviation="1.5"/>
</filter>
<filter color-interpolation-filters="sRGB" filterUnits="userSpaceOnUse" height="28.3218" id="Filter_23" width="19.5667" x="48.8327" y="70.2259">
<feDropShadow dx="0" dy="0" flood-color="#000000" flood-opacity="0.4" in="SourceGraphic" result="Shadow" stdDeviation="1.5"/>
</filter>
<filter color-interpolation-filters="sRGB" filterUnits="userSpaceOnUse" height="56.9759" id="Filter_24" width="93.1946" x="3.40271" y="-3.16572">
<feDropShadow dx="0" dy="0" flood-color="#000000" flood-opacity="0.4" in="SourceGraphic" result="Shadow" stdDeviation="1.5"/>
</filter>
<filter color-interpolation-filters="sRGB" filterUnits="userSpaceOnUse" height="32.238" id="Filter_25" width="93.1946" x="3.40271" y="21.5723">
<feDropShadow dx="0" dy="0" flood-color="#000000" flood-opacity="0.4" in="SourceGraphic" result="Shadow" stdDeviation="1.5"/>
</filter>
<filter color-interpolation-filters="sRGB" filterUnits="userSpaceOnUse" height="21.4414" id="Filter_26" width="31.5655" x="8.69251" y="14.5699">
<feDropShadow dx="0" dy="0" flood-color="#000000" flood-opacity="0.4" in="SourceGraphic" result="Shadow" stdDeviation="1.5"/>
</filter>
<filter color-interpolation-filters="sRGB" filterUnits="userSpaceOnUse" height="21.4453" id="Filter_27" width="31.5647" x="21.4696" y="21.983">
<feDropShadow dx="0" dy="0" flood-color="#000000" flood-opacity="0.4" in="SourceGraphic" result="Shadow" stdDeviation="1.5"/>
</filter>
<filter color-interpolation-filters="sRGB" filterUnits="userSpaceOnUse" height="21.4445" id="Filter_28" width="31.567" x="34.2466" y="29.3969">
<feDropShadow dx="0" dy="0" flood-color="#000000" flood-opacity="0.4" in="SourceGraphic" result="Shadow" stdDeviation="1.5"/>
</filter>
<filter color-interpolation-filters="sRGB" filterUnits="userSpaceOnUse" height="21.4445" id="Filter_29" width="19.5845" x="46.2292" y="29.3969">
<feDropShadow dx="0" dy="0" flood-color="#000000" flood-opacity="0.4" in="SourceGraphic" result="Shadow" stdDeviation="1.5"/>
</filter>
<filter color-interpolation-filters="sRGB" filterUnits="userSpaceOnUse" height="21.4453" id="Filter_30" width="31.5678" x="21.4364" y="7.21004">
<feDropShadow dx="0" dy="0" flood-color="#000000" flood-opacity="0.4" in="SourceGraphic" result="Shadow" stdDeviation="1.5"/>
</filter>
<filter color-interpolation-filters="sRGB" filterUnits="userSpaceOnUse" height="21.4422" id="Filter_31" width="31.567" x="34.2165" y="14.6239">
<feDropShadow dx="0" dy="0" flood-color="#000000" flood-opacity="0.4" in="SourceGraphic" result="Shadow" stdDeviation="1.5"/>
</filter>
<filter color-interpolation-filters="sRGB" filterUnits="userSpaceOnUse" height="28.8584" id="Filter_32" width="32.3592" x="46.199" y="14.6239">
<feDropShadow dx="0" dy="0" flood-color="#000000" flood-opacity="0.4" in="SourceGraphic" result="Shadow" stdDeviation="1.5"/>
</filter>
<filter color-interpolation-filters="sRGB" filterUnits="userSpaceOnUse" height="21.4422" id="Filter_33" width="31.5639" x="34.1864" y="-0.149046">
<feDropShadow dx="0" dy="0" flood-color="#000000" flood-opacity="0.4" in="SourceGraphic" result="Shadow" stdDeviation="1.5"/>
</filter>
<filter color-interpolation-filters="sRGB" filterUnits="userSpaceOnUse" height="21.4422" id="Filter_34" width="19.5845" x="46.1658" y="-0.149046">
<feDropShadow dx="0" dy="0" flood-color="#000000" flood-opacity="0.4" in="SourceGraphic" result="Shadow" stdDeviation="1.5"/>
</filter>
<filter color-interpolation-filters="sRGB" filterUnits="userSpaceOnUse" height="28.8584" id="Filter_35" width="44.3448" x="46.9627" y="7.26486">
<feDropShadow dx="0" dy="0" flood-color="#000000" flood-opacity="0.4" in="SourceGraphic" result="Shadow" stdDeviation="1.5"/>
</filter>
</defs>
<g opacity="1">
<path d="M7.15271 25.2018L50 49.9398L50 99.4157L7.15271 74.6777L7.15271 25.2018Z" fill="#184d6b" filter="url(#Filter)"/>
<path d="M7.15271 25.2018L50 49.9398L50 99.4157" fill="#0d3c51" filter="url(#Filter_2)"/>
<path d="M9.73159 29.8199L9.73159 43.6771L21.7991 50.6432L21.7991 36.6894L9.73159 29.8199ZM22.5411 37.1797L22.5411 51.0346L34.6078 58.0023L34.6078 44.0477L22.5411 37.1797Z" fill="#55f7ff" filter="url(#Filter_3)"/>
<path d="M35.3513 44.5388L35.3513 58.393L47.418 65.3606L47.418 51.4053L35.3513 44.5388Z" fill="#0cdcf2" filter="url(#Filter_4)"/>
<path d="M35.3513 58.393L47.418 65.3606L47.418 51.4053" fill="#0daace" filter="url(#Filter_5)"/>
<g opacity="1">
<path d="M9.73159 44.5388L9.73159 58.3945L21.7991 65.3621L21.7991 51.4068L9.73159 44.5388Z" fill="#55f7ff" filter="url(#Filter_6)"/>
<path d="M22.5411 51.8979L22.5411 65.752L34.6078 72.7212L34.6078 58.7667L22.5411 51.8979Z" fill="#0cdcf2" filter="url(#Filter_7)"/>
<path d="M22.5411 65.752L34.6078 72.7212L34.6078 58.7667M35.3513 59.257L35.3513 73.1119L47.418 80.0787L47.418 66.1242L35.3513 59.257Z" fill="#0daace" filter="url(#Filter_8)"/>
</g>
<g opacity="1">
<path d="M9.73159 59.257L9.73159 73.1134L21.7991 80.0803L21.7991 66.1257L9.73159 59.257Z" fill="#0cdcf2" filter="url(#Filter_9)"/>
<path d="M9.73159 73.1134L21.7991 80.0803L21.7991 66.1257M22.5411 66.6168L22.5411 80.471L34.6078 87.4394L34.6078 73.4848L22.5411 66.6168ZM35.3513 73.9759L35.3513 87.8301L47.418 94.7977L47.418 80.8424L35.3513 73.9759Z" fill="#0daace" filter="url(#Filter_10)"/>
</g>
<g opacity="1">
<path d="M92.8473 25.2018L50 49.9398L50 99.4157L92.8473 74.6777L92.8473 25.2018Z" fill="#010405" filter="url(#Filter_11)"/>
<path d="M92.8473 25.2018L50 49.9398L50 99.4157" fill="#142a33" filter="url(#Filter_12)"/>
<path d="M90.2684 29.8199L90.2684 43.6771L78.2017 50.6432L78.2017 36.6894L90.2684 29.8199ZM77.4589 37.1797L77.4589 51.0346L65.3922 58.0023L65.3922 44.0477L77.4589 37.1797Z" fill="#841547" filter="url(#Filter_13)"/>
<path d="M64.6494 44.5388L64.6494 58.393L52.5827 65.3606L52.5827 51.4053L64.6494 44.5388Z" fill="#f40b64" filter="url(#Filter_14)"/>
<path d="M52.5827 51.4053L64.6494 44.5388L64.6494 58.393" fill="#b50d4d" filter="url(#Filter_15)"/>
<g opacity="1">
<path d="M90.2684 44.5388L90.2684 58.3945L78.2017 65.3621L78.2017 51.4068L90.2684 44.5388Z" fill="#841547" filter="url(#Filter_16)"/>
<path d="M77.4589 51.8979L77.4589 65.752L65.3922 72.7212L65.3922 58.7667L77.4589 51.8979Z" fill="#db0f53" filter="url(#Filter_17)"/>
<path d="M65.3922 58.7667L77.4589 51.8979L77.4589 65.752" fill="#b50d4d" filter="url(#Filter_18)"/>
<path d="M64.6494 59.257L64.6494 73.1119L52.5827 80.0787L52.5827 66.1242L64.6494 59.257Z" fill="#f40b64" filter="url(#Filter_19)"/>
</g>
<g opacity="1">
<path d="M90.2684 59.257L90.2684 73.1134L78.2017 80.0803L78.2017 66.1257L90.2684 59.257Z" fill="#b50d4d" filter="url(#Filter_20)"/>
<path d="M78.2017 66.1257L90.2684 59.257L90.2684 73.1134" fill="#841547" filter="url(#Filter_21)"/>
<path d="M77.4589 66.6168L77.4589 80.471L65.3922 87.4394L65.3922 73.4848L77.4589 66.6168Z" fill="#b50d4d" filter="url(#Filter_22)"/>
<path d="M64.6494 73.9759L64.6494 87.8301L52.5827 94.7977L52.5827 80.8424L64.6494 73.9759Z" fill="#db0f53" filter="url(#Filter_23)"/>
</g>
</g>
<g opacity="1">
<path d="M7.15271 25.3223L50 50.0602L92.8473 25.3223L50 0.584279L7.15271 25.3223Z" fill="#547689" filter="url(#Filter_24)"/>
<path d="M7.15271 25.3223L50 50.0602L92.8473 25.3223" fill="#496375" filter="url(#Filter_25)"/>
<path d="M12.4425 25.2466L24.4405 18.3199L36.508 25.286L24.4227 32.2613L12.4425 25.2466Z" fill="#fffefa" filter="url(#Filter_26)"/>
<path d="M25.2196 32.6605L37.2168 25.733L49.2842 32.6999L37.199 39.6783L25.2196 32.6605Z" fill="#fffadc" filter="url(#Filter_27)"/>
<path d="M37.9966 40.0744L49.9969 33.1469L62.0636 40.1161L49.9792 47.0914L37.9966 40.0744Z" fill="#e2dcbf" filter="url(#Filter_28)"/>
<path d="M49.9969 33.1469L62.0636 40.1161L49.9792 47.0914" fill="#cec7aa" filter="url(#Filter_29)"/>
<g opacity="1">
<path d="M25.1864 17.8875L37.1867 10.96L49.2541 17.9269L37.1689 24.9053L25.1864 17.8875Z" fill="#fffefa" filter="url(#Filter_30)"/>
<path d="M37.9665 25.3014L49.9637 18.3739L62.0335 25.34L49.949 32.3161L37.9665 25.3014Z" fill="#fffadc" filter="url(#Filter_31)"/>
<path d="M49.9637 18.3739L62.0335 25.34L49.949 32.3161M50.7459 32.7145L62.7408 25.7878L74.8082 32.757L62.723 39.7323L50.7459 32.7145Z" fill="#e2dcbf" filter="url(#Filter_32)"/>
</g>
<g opacity="1">
<path d="M37.9364 10.5284L49.9336 3.60095L62.0003 10.5678L49.9158 17.5431L37.9364 10.5284Z" fill="#fffefa" filter="url(#Filter_33)"/>
<path d="M49.9336 3.60095L62.0003 10.5678L49.9158 17.5431" fill="#fffadc" filter="url(#Filter_34)"/>
<path d="M50.7127 17.9416L62.7107 11.0149L74.7774 17.9809L62.6921 24.9594L50.7127 17.9416ZM63.4897 25.3555L75.49 18.428L87.5575 25.3979L75.4715 32.3733L63.4897 25.3555Z" fill="#e2dcbf" filter="url(#Filter_35)"/>
</g>
</g>
</g>
</svg>