<svg xmlns="http://www.w3.org/2000/svg" xmlns:xlink="http://www.w3.org/1999/xlink" width="100%" height="100%" viewBox="0 0 100 100" xml:space="preserve"><defs><filter id="a" width="50.347" height="81.714" x="3.403" y="21.452" color-interpolation-filters="sRGB" filterUnits="userSpaceOnUse"><feDropShadow dx="0" dy="0" flood-color="#000" flood-opacity=".4" in="SourceGraphic" result="Shadow" stdDeviation="1.5"/></filter><filter id="b" width="50.347" height="81.714" x="3.403" y="21.452" color-interpolation-filters="sRGB" filterUnits="userSpaceOnUse"><feDropShadow dx="0" dy="0" flood-color="#000" flood-opacity=".4" in="SourceGraphic" result="Shadow" stdDeviation="1.5"/></filter><filter id="c" width="32.376" height="35.682" x="5.982" y="26.07" color-interpolation-filters="sRGB" filterUnits="userSpaceOnUse"><feDropShadow dx="0" dy="0" flood-color="#000" flood-opacity=".4" in="SourceGraphic" result="Shadow" stdDeviation="1.5"/></filter><filter id="d" width="19.567" height="28.322" x="31.601" y="40.789" color-interpolation-filters="sRGB" filterUnits="userSpaceOnUse"><feDropShadow dx="0" dy="0" flood-color="#000" flood-opacity=".4" in="SourceGraphic" result="Shadow" stdDeviation="1.5"/></filter><filter id="e" width="19.567" height="21.455" x="31.601" y="47.655" color-interpolation-filters="sRGB" filterUnits="userSpaceOnUse"><feDropShadow dx="0" dy="0" flood-color="#000" flood-opacity=".4" in="SourceGraphic" result="Shadow" stdDeviation="1.5"/></filter><filter id="f" width="19.567" height="28.323" x="5.982" y="40.789" color-interpolation-filters="sRGB" filterUnits="userSpaceOnUse"><feDropShadow dx="0" dy="0" flood-color="#000" flood-opacity=".4" in="SourceGraphic" result="Shadow" stdDeviation="1.5"/></filter><filter id="g" width="19.567" height="28.323" x="18.791" y="48.148" color-interpolation-filters="sRGB" filterUnits="userSpaceOnUse"><feDropShadow dx="0" dy="0" flood-color="#000" flood-opacity=".4" in="SourceGraphic" result="Shadow" stdDeviation="1.5"/></filter><filter id="h" width="32.377" height="28.812" x="18.791" y="55.017" color-interpolation-filters="sRGB" filterUnits="userSpaceOnUse"><feDropShadow dx="0" dy="0" flood-color="#000" flood-opacity=".4" in="SourceGraphic" result="Shadow" stdDeviation="1.5"/></filter><filter id="i" width="19.567" height="28.323" x="5.982" y="55.507" color-interpolation-filters="sRGB" filterUnits="userSpaceOnUse"><feDropShadow dx="0" dy="0" flood-color="#000" flood-opacity=".4" in="SourceGraphic" result="Shadow" stdDeviation="1.5"/></filter><filter id="j" width="45.186" height="36.172" x="5.982" y="62.376" color-interpolation-filters="sRGB" filterUnits="userSpaceOnUse"><feDropShadow dx="0" dy="0" flood-color="#000" flood-opacity=".4" in="SourceGraphic" result="Shadow" stdDeviation="1.5"/></filter><filter id="k" width="50.347" height="81.714" x="46.25" y="21.452" color-interpolation-filters="sRGB" filterUnits="userSpaceOnUse"><feDropShadow dx="0" dy="0" flood-color="#000" flood-opacity=".4" in="SourceGraphic" result="Shadow" stdDeviation="1.5"/></filter><filter id="l" width="50.347" height="81.714" x="46.25" y="21.452" color-interpolation-filters="sRGB" filterUnits="userSpaceOnUse"><feDropShadow dx="0" dy="0" flood-color="#000" flood-opacity=".4" in="SourceGraphic" result="Shadow" stdDeviation="1.5"/></filter><filter id="m" width="32.376" height="35.682" x="61.642" y="26.07" color-interpolation-filters="sRGB" filterUnits="userSpaceOnUse"><feDropShadow dx="0" dy="0" flood-color="#000" flood-opacity=".4" in="SourceGraphic" result="Shadow" stdDeviation="1.5"/></filter><filter id="n" width="19.567" height="28.322" x="48.833" y="40.789" color-interpolation-filters="sRGB" filterUnits="userSpaceOnUse"><feDropShadow dx="0" dy="0" flood-color="#000" flood-opacity=".4" in="SourceGraphic" result="Shadow" stdDeviation="1.5"/></filter><filter id="o" width="19.567" height="21.354" x="48.833" y="40.789" color-interpolation-filters="sRGB" filterUnits="userSpaceOnUse"><feDropShadow dx="0" dy="0" flood-color="#000" flood-opacity=".4" in="SourceGraphic" result="Shadow" stdDeviation="1.5"/></filter><filter id="p" width="19.567" height="28.323" x="74.452" y="40.789" color-interpolation-filters="sRGB" filterUnits="userSpaceOnUse"><feDropShadow dx="0" dy="0" flood-color="#000" flood-opacity=".4" in="SourceGraphic" result="Shadow" stdDeviation="1.5"/></filter><filter id="q" width="19.567" height="28.323" x="61.642" y="48.148" color-interpolation-filters="sRGB" filterUnits="userSpaceOnUse"><feDropShadow dx="0" dy="0" flood-color="#000" flood-opacity=".4" in="SourceGraphic" result="Shadow" stdDeviation="1.5"/></filter><filter id="r" width="19.567" height="21.354" x="61.642" y="48.148" color-interpolation-filters="sRGB" filterUnits="userSpaceOnUse"><feDropShadow dx="0" dy="0" flood-color="#000" flood-opacity=".4" in="SourceGraphic" result="Shadow" stdDeviation="1.5"/></filter><filter id="s" width="19.567" height="28.322" x="48.833" y="55.507" color-interpolation-filters="sRGB" filterUnits="userSpaceOnUse"><feDropShadow dx="0" dy="0" flood-color="#000" flood-opacity=".4" in="SourceGraphic" result="Shadow" stdDeviation="1.5"/></filter><filter id="t" width="19.567" height="28.323" x="74.452" y="55.507" color-interpolation-filters="sRGB" filterUnits="userSpaceOnUse"><feDropShadow dx="0" dy="0" flood-color="#000" flood-opacity=".4" in="SourceGraphic" result="Shadow" stdDeviation="1.5"/></filter><filter id="u" width="19.567" height="21.357" x="74.452" y="55.507" color-interpolation-filters="sRGB" filterUnits="userSpaceOnUse"><feDropShadow dx="0" dy="0" flood-color="#000" flood-opacity=".4" in="SourceGraphic" result="Shadow" stdDeviation="1.5"/></filter><filter id="v" width="19.567" height="28.323" x="61.642" y="62.867" color-interpolation-filters="sRGB" filterUnits="userSpaceOnUse"><feDropShadow dx="0" dy="0" flood-color="#000" flood-opacity=".4" in="SourceGraphic" result="Shadow" stdDeviation="1.5"/></filter><filter id="w" width="19.567" height="28.322" x="48.833" y="70.226" color-interpolation-filters="sRGB" filterUnits="userSpaceOnUse"><feDropShadow dx="0" dy="0" flood-color="#000" flood-opacity=".4" in="SourceGraphic" result="Shadow" stdDeviation="1.5"/></filter><filter id="x" width="93.195" height="56.976" x="3.403" y="-3.166" color-interpolation-filters="sRGB" filterUnits="userSpaceOnUse"><feDropShadow dx="0" dy="0" flood-color="#000" flood-opacity=".4" in="SourceGraphic" result="Shadow" stdDeviation="1.5"/></filter><filter id="y" width="93.195" height="32.238" x="3.403" y="21.572" color-interpolation-filters="sRGB" filterUnits="userSpaceOnUse"><feDropShadow dx="0" dy="0" flood-color="#000" flood-opacity=".4" in="SourceGraphic" result="Shadow" stdDeviation="1.5"/></filter><filter id="z" width="31.566" height="21.441" x="8.693" y="14.57" color-interpolation-filters="sRGB" filterUnits="userSpaceOnUse"><feDropShadow dx="0" dy="0" flood-color="#000" flood-opacity=".4" in="SourceGraphic" result="Shadow" stdDeviation="1.5"/></filter><filter id="A" width="31.565" height="21.445" x="21.47" y="21.983" color-interpolation-filters="sRGB" filterUnits="userSpaceOnUse"><feDropShadow dx="0" dy="0" flood-color="#000" flood-opacity=".4" in="SourceGraphic" result="Shadow" stdDeviation="1.5"/></filter><filter id="B" width="31.567" height="21.445" x="34.247" y="29.397" color-interpolation-filters="sRGB" filterUnits="userSpaceOnUse"><feDropShadow dx="0" dy="0" flood-color="#000" flood-opacity=".4" in="SourceGraphic" result="Shadow" stdDeviation="1.5"/></filter><filter id="C" width="19.584" height="21.445" x="46.229" y="29.397" color-interpolation-filters="sRGB" filterUnits="userSpaceOnUse"><feDropShadow dx="0" dy="0" flood-color="#000" flood-opacity=".4" in="SourceGraphic" result="Shadow" stdDeviation="1.5"/></filter><filter id="D" width="31.568" height="21.445" x="21.436" y="7.21" color-interpolation-filters="sRGB" filterUnits="userSpaceOnUse"><feDropShadow dx="0" dy="0" flood-color="#000" flood-opacity=".4" in="SourceGraphic" result="Shadow" stdDeviation="1.5"/></filter><filter id="E" width="31.567" height="21.442" x="34.217" y="14.624" color-interpolation-filters="sRGB" filterUnits="userSpaceOnUse"><feDropShadow dx="0" dy="0" flood-color="#000" flood-opacity=".4" in="SourceGraphic" result="Shadow" stdDeviation="1.5"/></filter><filter id="F" width="32.359" height="28.858" x="46.199" y="14.624" color-interpolation-filters="sRGB" filterUnits="userSpaceOnUse"><feDropShadow dx="0" dy="0" flood-color="#000" flood-opacity=".4" in="SourceGraphic" result="Shadow" stdDeviation="1.5"/></filter><filter id="G" width="31.564" height="21.442" x="34.186" y="-.149" color-interpolation-filters="sRGB" filterUnits="userSpaceOnUse"><feDropShadow dx="0" dy="0" flood-color="#000" flood-opacity=".4" in="SourceGraphic" result="Shadow" stdDeviation="1.5"/></filter><filter id="H" width="19.584" height="21.442" x="46.166" y="-.149" color-interpolation-filters="sRGB" filterUnits="userSpaceOnUse"><feDropShadow dx="0" dy="0" flood-color="#000" flood-opacity=".4" in="SourceGraphic" result="Shadow" stdDeviation="1.5"/></filter><filter id="I" width="44.345" height="28.858" x="46.963" y="7.265" color-interpolation-filters="sRGB" filterUnits="userSpaceOnUse"><feDropShadow dx="0" dy="0" flood-color="#000" flood-opacity=".4" in="SourceGraphic" result="Shadow" stdDeviation="1.5"/></filter></defs><path fill="#184d6b" d="M7.153 25.202 50 49.94v49.476L7.153 74.678z" filter="url(#a)"/><path fill="#0d3c51" d="M7.153 25.202 50 49.94v49.476" filter="url(#b)"/><path fill="#55f7ff" d="M9.732 29.82v13.857l12.067 6.966V36.69zm12.81 7.36v13.855l12.066 6.967V44.048z" filter="url(#c)"/><path fill="#0cdcf2" d="M35.351 44.539v13.854l12.067 6.968V51.405z" filter="url(#d)"/><path fill="#0daace" d="m35.351 58.393 12.067 6.968V51.405" filter="url(#e)"/><path fill="#55f7ff" d="M9.732 44.539v13.856l12.067 6.967V51.407z" filter="url(#f)"/><path fill="#0cdcf2" d="M22.541 51.898v13.854l12.067 6.97V58.766z" filter="url(#g)"/><path fill="#0daace" d="m22.541 65.752 12.067 6.97V58.766m.743.49v13.855l12.067 6.967V66.124z" filter="url(#h)"/><path fill="#0cdcf2" d="M9.732 59.257v13.856l12.067 6.967V66.126z" filter="url(#i)"/><path fill="#0daace" d="m9.732 73.113 12.067 6.967V66.126m.742.49v13.855l12.067 6.968V73.485zm12.81 7.36V87.83l12.067 6.968V80.842z" filter="url(#j)"/><path fill="#010405" d="M92.847 25.202 50 49.94v49.476l42.847-24.738z" filter="url(#k)"/><path fill="#142a33" d="M92.847 25.202 50 49.94v49.476" filter="url(#l)"/><path fill="#841547" d="M90.268 29.82v13.857l-12.066 6.966V36.69zm-12.81 7.36v13.855l-12.066 6.967V44.048z" filter="url(#m)"/><path fill="#f40b64" d="M64.65 44.539v13.854l-12.067 6.968V51.405z" filter="url(#n)"/><path fill="#b50d4d" d="m52.583 51.405 12.066-6.866v13.854" filter="url(#o)"/><path fill="#841547" d="M90.268 44.539v13.856l-12.066 6.967V51.407z" filter="url(#p)"/><path fill="#db0f53" d="M77.459 51.898v13.854l-12.067 6.97V58.766z" filter="url(#q)"/><path fill="#b50d4d" d="m65.392 58.767 12.067-6.87v13.855" filter="url(#r)"/><path fill="#f40b64" d="M64.65 59.257v13.855l-12.067 6.967V66.124z" filter="url(#s)"/><path fill="#b50d4d" d="M90.268 59.257v13.856L78.202 80.08V66.126z" filter="url(#t)"/><path fill="#841547" d="m78.202 66.126 12.066-6.869v13.856" filter="url(#u)"/><path fill="#b50d4d" d="M77.459 66.617V80.47l-12.067 6.968V73.485z" filter="url(#v)"/><path fill="#db0f53" d="M64.65 73.976V87.83l-12.067 6.968V80.842z" filter="url(#w)"/><path fill="#547689" d="M7.153 25.322 50 50.06l42.847-24.738L50 .584z" filter="url(#x)"/><path fill="#496375" d="M7.153 25.322 50 50.06l42.847-24.738" filter="url(#y)"/><path fill="#fffefa" d="M12.443 25.247 24.44 18.32l12.067 6.966-12.085 6.975z" filter="url(#z)"/><path fill="#fffadc" d="m25.22 32.66 11.997-6.927L49.284 32.7 37.2 39.678z" filter="url(#A)"/><path fill="#e2dcbf" d="m37.997 40.074 12-6.927 12.067 6.97-12.085 6.974z" filter="url(#B)"/><path fill="#cec7aa" d="m49.997 33.147 12.067 6.97-12.085 6.974" filter="url(#C)"/><path fill="#fffefa" d="m25.186 17.888 12-6.928 12.068 6.967-12.085 6.978z" filter="url(#D)"/><path fill="#fffadc" d="m37.967 25.301 11.997-6.927 12.07 6.966-12.085 6.976z" filter="url(#E)"/><path fill="#e2dcbf" d="m49.964 18.374 12.07 6.966-12.085 6.976m.797.398 11.995-6.926 12.067 6.969-12.085 6.975z" filter="url(#F)"/><path fill="#fffefa" d="m37.936 10.528 11.998-6.927L62 10.568l-12.084 6.975z" filter="url(#G)"/><path fill="#fffadc" d="M49.934 3.601 62 10.568l-12.084 6.975" filter="url(#H)"/><path fill="#e2dcbf" d="m50.713 17.942 11.998-6.927 12.066 6.966-12.085 6.978zm12.777 7.413 12-6.927 12.068 6.97-12.086 6.975z" filter="url(#I)"/></svg>