<svg xmlns="http://www.w3.org/2000/svg" xmlns:xlink="http://www.w3.org/1999/xlink" width="100%" height="100%" viewBox="0 0 100 100" xml:space="preserve"><defs><filter id="Filter" width="50.347" height="81.714" x="3.403" y="21.452" color-interpolation-filters="sRGB" filterUnits="userSpaceOnUse"><feDropShadow dx="0" dy="0" flood-color="#000" flood-opacity=".4" in="SourceGraphic" result="Shadow" stdDeviation="1.5"/></filter><filter id="Filter_2" width="50.347" height="81.714" x="3.403" y="21.452" color-interpolation-filters="sRGB" filterUnits="userSpaceOnUse"><feDropShadow dx="0" dy="0" flood-color="#000" flood-opacity=".4" in="SourceGraphic" result="Shadow" stdDeviation="1.5"/></filter><filter id="Filter_3" width="32.376" height="35.682" x="5.982" y="26.07" color-interpolation-filters="sRGB" filterUnits="userSpaceOnUse"><feDropShadow dx="0" dy="0" flood-color="#000" flood-opacity=".4" in="SourceGraphic" result="Shadow" stdDeviation="1.5"/></filter><filter id="Filter_4" width="19.567" height="28.322" x="31.601" y="40.789" color-interpolation-filters="sRGB" filterUnits="userSpaceOnUse"><feDropShadow dx="0" dy="0" flood-color="#000" flood-opacity=".4" in="SourceGraphic" result="Shadow" stdDeviation="1.5"/></filter><filter id="Filter_5" width="19.567" height="21.455" x="31.601" y="47.655" color-interpolation-filters="sRGB" filterUnits="userSpaceOnUse"><feDropShadow dx="0" dy="0" flood-color="#000" flood-opacity=".4" in="SourceGraphic" result="Shadow" stdDeviation="1.5"/></filter><filter id="Filter_6" width="19.567" height="28.323" x="5.982" y="40.789" color-interpolation-filters="sRGB" filterUnits="userSpaceOnUse"><feDropShadow dx="0" dy="0" flood-color="#000" flood-opacity=".4" in="SourceGraphic" result="Shadow" stdDeviation="1.5"/></filter><filter id="Filter_7" width="19.567" height="28.323" x="18.791" y="48.148" color-interpolation-filters="sRGB" filterUnits="userSpaceOnUse"><feDropShadow dx="0" dy="0" flood-color="#000" flood-opacity=".4" in="SourceGraphic" result="Shadow" stdDeviation="1.5"/></filter><filter id="Filter_8" width="32.377" height="28.812" x="18.791" y="55.017" color-interpolation-filters="sRGB" filterUnits="userSpaceOnUse"><feDropShadow dx="0" dy="0" flood-color="#000" flood-opacity=".4" in="SourceGraphic" result="Shadow" stdDeviation="1.5"/></filter><filter id="Filter_9" width="19.567" height="28.323" x="5.982" y="55.507" color-interpolation-filters="sRGB" filterUnits="userSpaceOnUse"><feDropShadow dx="0" dy="0" flood-color="#000" flood-opacity=".4" in="SourceGraphic" result="Shadow" stdDeviation="1.5"/></filter><filter id="Filter_10" width="45.186" height="36.172" x="5.982" y="62.376" color-interpolation-filters="sRGB" filterUnits="userSpaceOnUse"><feDropShadow dx="0" dy="0" flood-color="#000" flood-opacity=".4" in="SourceGraphic" result="Shadow" stdDeviation="1.5"/></filter><filter id="Filter_11" width="50.347" height="81.714" x="46.25" y="21.452" color-interpolation-filters="sRGB" filterUnits="userSpaceOnUse"><feDropShadow dx="0" dy="0" flood-color="#000" flood-opacity=".4" in="SourceGraphic" result="Shadow" stdDeviation="1.5"/></filter><filter id="Filter_12" width="50.347" height="81.714" x="46.25" y="21.452" color-interpolation-filters="sRGB" filterUnits="userSpaceOnUse"><feDropShadow dx="0" dy="0" flood-color="#000" flood-opacity=".4" in="SourceGraphic" result="Shadow" stdDeviation="1.5"/></filter><filter id="Filter_13" width="32.376" height="35.682" x="61.642" y="26.07" color-interpolation-filters="sRGB" filterUnits="userSpaceOnUse"><feDropShadow dx="0" dy="0" flood-color="#000" flood-opacity=".4" in="SourceGraphic" result="Shadow" stdDeviation="1.5"/></filter><filter id="Filter_14" width="19.567" height="28.322" x="48.833" y="40.789" color-interpolation-filters="sRGB" filterUnits="userSpaceOnUse"><feDropShadow dx="0" dy="0" flood-color="#000" flood-opacity=".4" in="SourceGraphic" result="Shadow" stdDeviation="1.5"/></filter><filter id="Filter_15" width="19.567" height="21.354" x="48.833" y="40.789" color-interpolation-filters="sRGB" filterUnits="userSpaceOnUse"><feDropShadow dx="0" dy="0" flood-color="#000" flood-opacity=".4" in="SourceGraphic" result="Shadow" stdDeviation="1.5"/></filter><filter id="Filter_16" width="19.567" height="28.323" x="74.452" y="40.789" color-interpolation-filters="sRGB" filterUnits="userSpaceOnUse"><feDropShadow dx="0" dy="0" flood-color="#000" flood-opacity=".4" in="SourceGraphic" result="Shadow" stdDeviation="1.5"/></filter><filter id="Filter_17" width="19.567" height="28.323" x="61.642" y="48.148" color-interpolation-filters="sRGB" filterUnits="userSpaceOnUse"><feDropShadow dx="0" dy="0" flood-color="#000" flood-opacity=".4" in="SourceGraphic" result="Shadow" stdDeviation="1.5"/></filter><filter id="Filter_18" width="19.567" height="21.354" x="61.642" y="48.148" color-interpolation-filters="sRGB" filterUnits="userSpaceOnUse"><feDropShadow dx="0" dy="0" flood-color="#000" flood-opacity=".4" in="SourceGraphic" result="Shadow" stdDeviation="1.5"/></filter><filter id="Filter_19" width="19.567" height="28.322" x="48.833" y="55.507" color-interpolation-filters="sRGB" filterUnits="userSpaceOnUse"><feDropShadow dx="0" dy="0" flood-color="#000" flood-opacity=".4" in="SourceGraphic" result="Shadow" stdDeviation="1.5"/></filter><filter id="Filter_20" width="19.567" height="28.323" x="74.452" y="55.507" color-interpolation-filters="sRGB" filterUnits="userSpaceOnUse"><feDropShadow dx="0" dy="0" flood-color="#000" flood-opacity=".4" in="SourceGraphic" result="Shadow" stdDeviation="1.5"/></filter><filter id="Filter_21" width="19.567" height="21.357" x="74.452" y="55.507" color-interpolation-filters="sRGB" filterUnits="userSpaceOnUse"><feDropShadow dx="0" dy="0" flood-color="#000" flood-opacity=".4" in="SourceGraphic" result="Shadow" stdDeviation="1.5"/></filter><filter id="Filter_22" width="19.567" height="28.323" x="61.642" y="62.867" color-interpolation-filters="sRGB" filterUnits="userSpaceOnUse"><feDropShadow dx="0" dy="0" flood-color="#000" flood-opacity=".4" in="SourceGraphic" result="Shadow" stdDeviation="1.5"/></filter><filter id="Filter_23" width="19.567" height="28.322" x="48.833" y="70.226" color-interpolation-filters="sRGB" filterUnits="userSpaceOnUse"><feDropShadow dx="0" dy="0" flood-color="#000" flood-opacity=".4" in="SourceGraphic" result="Shadow" stdDeviation="1.5"/></filter><filter id="Filter_24" width="93.195" height="56.976" x="3.403" y="-3.166" color-interpolation-filters="sRGB" filterUnits="userSpaceOnUse"><feDropShadow dx="0" dy="0" flood-color="#000" flood-opacity=".4" in="SourceGraphic" result="Shadow" stdDeviation="1.5"/></filter><filter id="Filter_25" width="93.195" height="32.238" x="3.403" y="21.572" color-interpolation-filters="sRGB" filterUnits="userSpaceOnUse"><feDropShadow dx="0" dy="0" flood-color="#000" flood-opacity=".4" in="SourceGraphic" result="Shadow" stdDeviation="1.5"/></filter><filter id="Filter_26" width="31.566" height="21.441" x="8.693" y="14.57" color-interpolation-filters="sRGB" filterUnits="userSpaceOnUse"><feDropShadow dx="0" dy="0" flood-color="#000" flood-opacity=".4" in="SourceGraphic" result="Shadow" stdDeviation="1.5"/></filter><filter id="Filter_27" width="31.565" height="21.445" x="21.47" y="21.983" color-interpolation-filters="sRGB" filterUnits="userSpaceOnUse"><feDropShadow dx="0" dy="0" flood-color="#000" flood-opacity=".4" in="SourceGraphic" result="Shadow" stdDeviation="1.5"/></filter><filter id="Filter_28" width="31.567" height="21.445" x="34.247" y="29.397" color-interpolation-filters="sRGB" filterUnits="userSpaceOnUse"><feDropShadow dx="0" dy="0" flood-color="#000" flood-opacity=".4" in="SourceGraphic" result="Shadow" stdDeviation="1.5"/></filter><filter id="Filter_29" width="19.584" height="21.445" x="46.229" y="29.397" color-interpolation-filters="sRGB" filterUnits="userSpaceOnUse"><feDropShadow dx="0" dy="0" flood-color="#000" flood-opacity=".4" in="SourceGraphic" result="Shadow" stdDeviation="1.5"/></filter><filter id="Filter_30" width="31.568" height="21.445" x="21.436" y="7.21" color-interpolation-filters="sRGB" filterUnits="userSpaceOnUse"><feDropShadow dx="0" dy="0" flood-color="#000" flood-opacity=".4" in="SourceGraphic" result="Shadow" stdDeviation="1.5"/></filter><filter id="Filter_31" width="31.567" height="21.442" x="34.217" y="14.624" color-interpolation-filters="sRGB" filterUnits="userSpaceOnUse"><feDropShadow dx="0" dy="0" flood-color="#000" flood-opacity=".4" in="SourceGraphic" result="Shadow" stdDeviation="1.5"/></filter><filter id="Filter_32" width="32.359" height="28.858" x="46.199" y="14.624" color-interpolation-filters="sRGB" filterUnits="userSpaceOnUse"><feDropShadow dx="0" dy="0" flood-color="#000" flood-opacity=".4" in="SourceGraphic" result="Shadow" stdDeviation="1.5"/></filter><filter id="Filter_33" width="31.564" height="21.442" x="34.186" y="-.149" color-interpolation-filters="sRGB" filterUnits="userSpaceOnUse"><feDropShadow dx="0" dy="0" flood-color="#000" flood-opacity=".4" in="SourceGraphic" result="Shadow" stdDeviation="1.5"/></filter><filter id="Filter_34" width="19.584" height="21.442" x="46.166" y="-.149" color-interpolation-filters="sRGB" filterUnits="userSpaceOnUse"><feDropShadow dx="0" dy="0" flood-color="#000" flood-opacity=".4" in="SourceGraphic" result="Shadow" stdDeviation="1.5"/></filter><filter id="Filter_35" width="44.345" height="28.858" x="46.963" y="7.265" color-interpolation-filters="sRGB" filterUnits="userSpaceOnUse"><feDropShadow dx="0" dy="0" flood-color="#000" flood-opacity=".4" in="SourceGraphic" result="Shadow" stdDeviation="1.5"/></filter></defs><g opacity="1"><path fill="#184d6b" d="M7.15271 25.2018L50 49.9398L50 99.4157L7.15271 74.6777L7.15271 25.2018Z" filter="url(#Filter)"/><path fill="#0d3c51" d="M7.15271 25.2018L50 49.9398L50 99.4157" filter="url(#Filter_2)"/><path fill="#55f7ff" d="M9.73159 29.8199L9.73159 43.6771L21.7991 50.6432L21.7991 36.6894L9.73159 29.8199ZM22.5411 37.1797L22.5411 51.0346L34.6078 58.0023L34.6078 44.0477L22.5411 37.1797Z" filter="url(#Filter_3)"/><path fill="#0cdcf2" d="M35.3513 44.5388L35.3513 58.393L47.418 65.3606L47.418 51.4053L35.3513 44.5388Z" filter="url(#Filter_4)"/><path fill="#0daace" d="M35.3513 58.393L47.418 65.3606L47.418 51.4053" filter="url(#Filter_5)"/><g opacity="1"><path fill="#55f7ff" d="M9.73159 44.5388L9.73159 58.3945L21.7991 65.3621L21.7991 51.4068L9.73159 44.5388Z" filter="url(#Filter_6)"/><path fill="#0cdcf2" d="M22.5411 51.8979L22.5411 65.752L34.6078 72.7212L34.6078 58.7667L22.5411 51.8979Z" filter="url(#Filter_7)"/><path fill="#0daace" d="M22.5411 65.752L34.6078 72.7212L34.6078 58.7667M35.3513 59.257L35.3513 73.1119L47.418 80.0787L47.418 66.1242L35.3513 59.257Z" filter="url(#Filter_8)"/></g><g opacity="1"><path fill="#0cdcf2" d="M9.73159 59.257L9.73159 73.1134L21.7991 80.0803L21.7991 66.1257L9.73159 59.257Z" filter="url(#Filter_9)"/><path fill="#0daace" d="M9.73159 73.1134L21.7991 80.0803L21.7991 66.1257M22.5411 66.6168L22.5411 80.471L34.6078 87.4394L34.6078 73.4848L22.5411 66.6168ZM35.3513 73.9759L35.3513 87.8301L47.418 94.7977L47.418 80.8424L35.3513 73.9759Z" filter="url(#Filter_10)"/></g><g opacity="1"><path fill="#010405" d="M92.8473 25.2018L50 49.9398L50 99.4157L92.8473 74.6777L92.8473 25.2018Z" filter="url(#Filter_11)"/><path fill="#142a33" d="M92.8473 25.2018L50 49.9398L50 99.4157" filter="url(#Filter_12)"/><path fill="#841547" d="M90.2684 29.8199L90.2684 43.6771L78.2017 50.6432L78.2017 36.6894L90.2684 29.8199ZM77.4589 37.1797L77.4589 51.0346L65.3922 58.0023L65.3922 44.0477L77.4589 37.1797Z" filter="url(#Filter_13)"/><path fill="#f40b64" d="M64.6494 44.5388L64.6494 58.393L52.5827 65.3606L52.5827 51.4053L64.6494 44.5388Z" filter="url(#Filter_14)"/><path fill="#b50d4d" d="M52.5827 51.4053L64.6494 44.5388L64.6494 58.393" filter="url(#Filter_15)"/><g opacity="1"><path fill="#841547" d="M90.2684 44.5388L90.2684 58.3945L78.2017 65.3621L78.2017 51.4068L90.2684 44.5388Z" filter="url(#Filter_16)"/><path fill="#db0f53" d="M77.4589 51.8979L77.4589 65.752L65.3922 72.7212L65.3922 58.7667L77.4589 51.8979Z" filter="url(#Filter_17)"/><path fill="#b50d4d" d="M65.3922 58.7667L77.4589 51.8979L77.4589 65.752" filter="url(#Filter_18)"/><path fill="#f40b64" d="M64.6494 59.257L64.6494 73.1119L52.5827 80.0787L52.5827 66.1242L64.6494 59.257Z" filter="url(#Filter_19)"/></g><g opacity="1"><path fill="#b50d4d" d="M90.2684 59.257L90.2684 73.1134L78.2017 80.0803L78.2017 66.1257L90.2684 59.257Z" filter="url(#Filter_20)"/><path fill="#841547" d="M78.2017 66.1257L90.2684 59.257L90.2684 73.1134" filter="url(#Filter_21)"/><path fill="#b50d4d" d="M77.4589 66.6168L77.4589 80.471L65.3922 87.4394L65.3922 73.4848L77.4589 66.6168Z" filter="url(#Filter_22)"/><path fill="#db0f53" d="M64.6494 73.9759L64.6494 87.8301L52.5827 94.7977L52.5827 80.8424L64.6494 73.9759Z" filter="url(#Filter_23)"/></g></g><g opacity="1"><path fill="#547689" d="M7.15271 25.3223L50 50.0602L92.8473 25.3223L50 0.584279L7.15271 25.3223Z" filter="url(#Filter_24)"/><path fill="#496375" d="M7.15271 25.3223L50 50.0602L92.8473 25.3223" filter="url(#Filter_25)"/><path fill="#fffefa" d="M12.4425 25.2466L24.4405 18.3199L36.508 25.286L24.4227 32.2613L12.4425 25.2466Z" filter="url(#Filter_26)"/><path fill="#fffadc" d="M25.2196 32.6605L37.2168 25.733L49.2842 32.6999L37.199 39.6783L25.2196 32.6605Z" filter="url(#Filter_27)"/><path fill="#e2dcbf" d="M37.9966 40.0744L49.9969 33.1469L62.0636 40.1161L49.9792 47.0914L37.9966 40.0744Z" filter="url(#Filter_28)"/><path fill="#cec7aa" d="M49.9969 33.1469L62.0636 40.1161L49.9792 47.0914" filter="url(#Filter_29)"/><g opacity="1"><path fill="#fffefa" d="M25.1864 17.8875L37.1867 10.96L49.2541 17.9269L37.1689 24.9053L25.1864 17.8875Z" filter="url(#Filter_30)"/><path fill="#fffadc" d="M37.9665 25.3014L49.9637 18.3739L62.0335 25.34L49.949 32.3161L37.9665 25.3014Z" filter="url(#Filter_31)"/><path fill="#e2dcbf" d="M49.9637 18.3739L62.0335 25.34L49.949 32.3161M50.7459 32.7145L62.7408 25.7878L74.8082 32.757L62.723 39.7323L50.7459 32.7145Z" filter="url(#Filter_32)"/></g><g opacity="1"><path fill="#fffefa" d="M37.9364 10.5284L49.9336 3.60095L62.0003 10.5678L49.9158 17.5431L37.9364 10.5284Z" filter="url(#Filter_33)"/><path fill="#fffadc" d="M49.9336 3.60095L62.0003 10.5678L49.9158 17.5431" filter="url(#Filter_34)"/><path fill="#e2dcbf" d="M50.7127 17.9416L62.7107 11.0149L74.7774 17.9809L62.6921 24.9594L50.7127 17.9416ZM63.4897 25.3555L75.49 18.428L87.5575 25.3979L75.4715 32.3733L63.4897 25.3555Z" filter="url(#Filter_35)"/></g></g></g></svg>