<svg xmlns="http://www.w3.org/2000/svg" xmlns:xlink="http://www.w3.org/1999/xlink" width="100%" height="100%" version="1.1" viewBox="0 0 100 100" xml:space="preserve"><g id="Scissors"><g id="topblue" opacity="1"><path id="topblue" fill="#4700ea" d="M19.1146 15.3208C12.4144 15.9729 7.49907 21.8051 8.13602 28.3472C8.70528 34.066 13.544 38.7094 20.7162 39.4678C26.8462 41.0385 32.4392 42.9341 38.0991 50.0979L46.7693 56.7018L72.4206 71.7637C72.6248 71.8905 77.3712 74.6663 82.8332 74.154L82.8363 74.1537C85.8185 73.874 89.997 72.4065 91.9051 69.0699L48.24 42.4782L46.2108 41.2462C46.2108 41.2462 35.6036 35.7648 30.4404 33.6299C31.9614 31.3683 32.6525 28.6722 32.4001 25.9843C31.763 19.4423 25.8148 14.668 19.1146 15.3208ZM19.3669 20.8759C19.9481 20.8199 20.54 20.848 21.1246 20.9593C24.5101 21.6041 26.916 24.8385 26.4979 28.1829C26.08 31.5266 22.9973 33.7141 19.6125 33.0687C16.2278 32.4238 13.8222 29.1905 14.2394 25.8467C14.5747 23.1596 16.6626 21.1356 19.3669 20.8759Z"/><path id="darkblue" fill="#0400ac" d="M38.0991 50.0979C40.9503 52.3544 43.8563 54.5261 46.7693 56.7018L53.4888 60.5694L65.6376 53.0732L48.24 42.4782L38.0991 50.0979Z"/><animateTransform id="c" attributeName="transform" attributeType="XML" begin="0;d.end" dur="0.5s" from="-20 50 50" to="5 50 50" type="rotate"/><animateTransform id="d" attributeName="transform" attributeType="XML" begin="c.end" dur="0.5s" from="5 50 50" to="-20 50 50" type="rotate"/></g><g id="bottomgreen"><path id="bottomgreen" fill="#00e1ff" d="M82.2457 25.8148C76.68 25.5013 71.9991 28.0123 71.8394 28.1144L39.023 47.5893C33.2019 56.5739 29.0039 58.3321 22.6307 60.3563C20.8673 60.7026 17.9846 60.8811 14.9418 62.2804C11.9473 63.6575 8.57226 67.2128 8.18811 72.1206C7.70462 78.5336 12.9183 84.1551 19.8334 84.6767C26.7485 85.1981 32.7463 80.4221 33.23 74.0091C33.4412 71.1616 32.5171 68.3295 30.6331 66.051C30.7649 65.9756 31.0581 65.8035 31.4832 65.6088C33.2936 64.7966 42.8701 60.2113 42.8701 60.2113C44.4078 59.282 46.088 58.2618 47.8703 57.176C51.5795 54.9163 55.7306 52.3726 59.959 49.7735C75.2793 40.3562 91.6139 30.211 91.6139 30.211C89.7813 27.2396 85.2873 25.9861 82.2457 25.8148ZM48.194 47.523C49.2488 47.5812 50.0553 48.4986 49.9953 49.5721C49.9352 50.6457 49.0317 51.469 47.9769 51.4108C46.9222 51.3525 46.1156 50.4351 46.1756 49.3616C46.2356 48.288 47.1392 47.4647 48.194 47.523ZM21.4711 66.8924C24.2624 67.0993 26.4655 69.044 26.8812 71.6681C27.3986 74.9334 25.0064 78.1397 21.5383 78.8294C18.0711 79.519 14.8409 77.4324 14.3225 74.1683C13.8039 70.9028 16.1955 67.6956 19.6639 67.0052C20.2628 66.8859 20.8713 66.848 21.4711 66.8924Z"/><animateTransform id="a" attributeName="transform" attributeType="XML" begin="0;b.end" dur="0.5s" from="20 50 50" to="-10 50 50" type="rotate"/><animateTransform id="b" attributeName="transform" attributeType="XML" begin="a.end" dur="0.5s" from="-10 50 50" to="20 50 50" type="rotate"/></g></g></svg>