<svg width="100%" height="100%" viewBox="-0.172522 0.501317 100.013 94.7876" version="1.1" xml:space="preserve" xmlns="http://www.w3.org/2000/svg" xmlns:xlink="http://www.w3.org/1999/xlink"><defs><linearGradient gradientTransform="matrix(-14.9991 -34.3844 33.9264 -17.1062 67.2452 79.2984)" gradientUnits="userSpaceOnUse" id="LG" x1="0" x2="1" y1="0" y2="0"><stop offset="0" stop-color="#fff"/><stop offset="1" stop-color="#595959" stop-opacity="0.275779"/></linearGradient><linearGradient gradientTransform="matrix(-16.5135 -42.5052 42.0202 -19.0588 89.8973 93.6001)" gradientUnits="userSpaceOnUse" id="LG_2" x1="0" x2="1" y1="0" y2="0"><stop offset="0" stop-color="#fff"/><stop offset="1" stop-color="#595959" stop-opacity="0.275779"/></linearGradient><linearGradient gradientTransform="matrix(-10.0977 -38.0902 37.8437 -12.2407 62.3439 83.0042)" gradientUnits="userSpaceOnUse" id="LG_3" x1="0" x2="1" y1="0" y2="0"><stop offset="0" stop-color="#fff"/><stop offset="1" stop-color="#595959" stop-opacity="0.275779"/></linearGradient><linearGradient gradientTransform="matrix(-82.2231 43.8184 -42.9784 -82.026 76.3305 10.0315)" gradientUnits="userSpaceOnUse" id="LG_4" x1="0" x2="1" y1="0" y2="0"><stop offset="0" stop-color="#4d4d4d" stop-opacity="0.53"/><stop offset="0.200877" stop-color="#979797" stop-opacity="0.726764"/><stop offset="0.479825" stop-color="#fff"/><stop offset="0.719298" stop-color="#eaeaea" stop-opacity="0.845644"/><stop offset="1" stop-color="#878787" stop-opacity="0.185372"/></linearGradient><linearGradient gradientTransform="matrix(56.8261 -59.5152 58.4769 54.2975 1.73055 99.8945)" gradientUnits="userSpaceOnUse" id="LG_5" x1="0" x2="1" y1="0" y2="0"><stop offset="0" stop-color="#4d4d4d" stop-opacity="0.53"/><stop offset="0.200877" stop-color="#979797" stop-opacity="0.726764"/><stop offset="0.479825" stop-color="#fff"/><stop offset="0.719298" stop-color="#eaeaea" stop-opacity="0.845644"/><stop offset="1" stop-color="#878787" stop-opacity="0.185372"/></linearGradient><linearGradient gradientTransform="matrix(21.4261 -31.4126 30.7575 21.1821 27.6255 23.7069)" gradientUnits="userSpaceOnUse" id="LG_6" x1="0" x2="1" y1="0" y2="0"><stop offset="0" stop-color="#fff"/><stop offset="1" stop-color="#878787" stop-opacity="0.3"/></linearGradient><linearGradient gradientTransform="matrix(88.0636 -35.485 27.3552 107.924 20.2905 60.8279)" gradientUnits="userSpaceOnUse" id="LG_7" x1="0" x2="1" y1="0" y2="0"><stop offset="0" stop-color="#fff"/><stop offset="1" stop-color="#595959" stop-opacity="0.275779"/></linearGradient><linearGradient gradientTransform="matrix(-44.0298 -12.7819 21.1416 -49.7038 69.4688 82.4002)" gradientUnits="userSpaceOnUse" id="LG_8" x1="0" x2="1" y1="0" y2="0"><stop offset="0" stop-color="#fff"/><stop offset="1" stop-color="#595959" stop-opacity="0.275779"/></linearGradient></defs><g id="ZXCV"><g opacity="1"><path fill="url(#LG)" opacity="1" stroke="none" d="M70.7976 53.0653C68.869 53.3594 67.3303 53.6681 67.3304 53.6681C50.7725 57.2879 34.2425 68.1355 30.0784 78.4581C28.4642 82.4729 28.8084 86.3053 30.9264 89.3747C31.4002 90.0611 31.9624 90.7078 32.6097 91.3103C33.1166 91.7818 33.6817 92.2243 34.2946 92.6393C34.99 93.1093 35.7453 93.5499 36.5761 93.9367C43.2814 97.0645 42.2525 87.6918 40.1846 86.7276C39.9025 86.5958 39.6757 86.4227 39.4924 86.1975C38.9509 85.5298 38.8889 84.4369 39.5544 82.7868C42.8426 74.6291 59.3003 63.6637 69.8922 62.0526C70.1345 61.3685 70.3453 60.7491 70.4673 60.0504C70.9549 57.2586 71.1533 54.2551 70.7976 53.0653Z"/><path fill="url(#LG_2)" opacity="1" stroke="none" d="M79.9787 61.688C80.0037 61.692 80.0286 61.696 80.0535 61.6999C82.8261 62.1393 85.5032 62.4902 87.1968 64.2984C94.9439 72.569 83.7714 79.728 82.7692 86.7261C82.4342 89.0657 83.4255 90.7581 84.9312 92.0164C87.3235 94.0155 90.1591 93.2426 92.9372 89.8402C102.286 78.3898 102.029 65.2263 92.8391 57.6561C89.8454 55.1544 83.8218 52.5869 80.347 53.2301C80.4325 54.6007 80.4479 56.9963 80.3396 58.9324C80.2715 60.1485 80.1519 61.1667 79.9787 61.688Z"/><path fill="url(#LG_3)" opacity="1" stroke="none" d="M79.1576 52.8506C78.3584 52.6717 77.1485 52.5051 75.5214 52.5612C74.4856 52.5969 72.9254 52.7608 71.7684 54.9946C71.204 56.0841 70.6937 58.8204 70.4677 60.0478C70.0243 62.4556 68.2329 65.7778 68.0034 66.3462C65.5093 72.5308 60.0879 78.3619 53.549 82.4971C47.8886 86.0795 42.2525 87.6918 40.1846 86.7276C39.9025 86.5958 39.6757 86.4228 39.4924 86.1975C39.076 85.684 38.9546 84.9158 39.2181 83.8394C38.1977 84.2844 37.1475 84.7018 36.0324 85.057C34.1277 85.6637 32.0517 86.1171 29.593 86.5784C29.9005 87.5598 30.3257 88.5043 30.9264 89.3747C31.4002 90.0611 31.9624 90.7078 32.6097 91.3103C33.1166 91.7818 33.6817 92.2243 34.2946 92.6393C34.99 93.1093 35.7453 93.5499 36.5761 93.9367C48.5052 99.5014 70.6122 87.134 77.2363 70.696C78.5238 67.4944 80.005 62.9138 79.9795 61.6771L80.3478 53.2191C80.3478 53.2191 79.9568 53.0295 79.1576 52.8506Z"/><path fill="url(#LG_4)" opacity="1" stroke="none" d="M64.5708 1.21151C58.5843-1.1733 57.7125 9.4025 59.3283 12.0113C59.5479 12.6075 59.3845 13.3806 58.6821 14.4076C57.885 15.5732 56.6768 16.916 55.0462 18.4301C53.4156 19.9442 51.5549 21.5535 49.4696 23.2576C48.3103 24.2051 47.1086 25.1462 45.9219 26.0868C44.9741 26.8379 44.0454 27.5888 43.085 28.3416C39.8425 30.9253 36.7868 33.3512 33.9187 35.6032C33.1 36.246 26.3464 41.8063 26.3464 41.8063L30.2233 49.6966C30.924 49.0517 31.9566 48.15 32.9679 47.3099C34.5396 46.0041 36.5528 44.3825 38.997 42.4483C41.4413 40.514 44.3953 38.1539 47.8734 35.3982C49.3082 34.2597 50.3819 33.3427 51.7041 32.2702C54.1286 30.3034 56.6679 28.2587 58.7098 26.511C61.8651 23.8103 64.4216 21.3137 66.3832 19.0061C68.3448 16.6984 69.5834 14.5148 70.1125 12.4539C70.6283 10.4424 71.5094 3.97562 64.5708 1.21151Z"/><path fill="url(#LG_5)" opacity="1" stroke="none" d="M26.3464 41.8063C25.0719 42.8833 23.9075 43.8822 23.1753 44.5274C21.3914 46.0991 20.0416 47.7701 19.102 49.5824C18.5153 50.714 18.1651 51.9356 18.0585 53.2276C18.054 53.282 18.0429 53.3365 18.0393 53.3913C18.0377 53.416 18.0433 53.4428 18.0419 53.4676C17.9493 54.1361 17.9861 54.8266 18.125 55.5291C18.1298 55.5657 18.1249 55.5993 18.13 55.6361C18.1303 55.6198 18.1367 55.6078 18.1372 55.5917C18.3468 56.6067 18.7405 57.6357 19.3008 58.6031C19.8873 59.6541 20.6274 60.462 21.4929 61.0919C22.0391 61.4895 22.6671 61.8197 23.3194 62.0571C23.3257 62.0595 27.9685 54.2971 27.9685 54.2971C27.7079 53.8007 27.6496 53.2505 27.8495 52.6849C27.9484 52.4051 28.3546 51.4417 30.2233 49.6966L26.3464 41.8063Z"/><path fill="url(#LG_6)" opacity="1" stroke="none" d="M62.3491 0.602681C59.4119 0.284117 54.7613 0.764466 52.2959 1.37568C47.913 2.46229 42.3655 4.57487 35.6378 7.7163C34.6251 8.18917 33.3329 8.86356 32.2511 9.38655C26.7366 12.0527 23.1068 13.8413 15.8413 17.7686C15.5636 17.9186 14.3116 18.6161 14.0309 18.7684C13.5259 19.0424 13.0159 19.32 12.5008 19.6013C11.2014 20.3218 10.0573 20.9431 9.04998 21.481C8.04272 22.0189 7.17106 22.5037 6.42969 22.9046C5.6884 23.3053 5.04989 23.6355 4.54277 23.9167C4.03565 24.1979 3.63418 24.4409 3.34198 24.6236C2.10298 25.414 1.21723 26.3327 0.654326 27.3787C0.0914021 28.4248-0.179994 29.4602-0.172366 30.5206C-0.164736 31.5811 0.0484225 32.5299 0.512156 33.3477C0.578001 33.4638 0.673213 33.5648 0.759292 33.6686C0.861435 33.7919 0.95518 33.9195 1.05754 34.0434C1.47641 34.5501 1.96489 35.0156 2.60394 35.3953C3.53065 35.9461 4.60267 36.2551 5.79872 36.3258C6.99483 36.3964 8.19819 36.1436 9.43822 35.5387C9.74824 35.3874 10.1697 35.1572 10.6767 34.8759C11.1839 34.5948 11.7899 34.2584 12.5223 33.8419C13.2548 33.4254 14.1201 32.924 15.1061 32.3669C15.2015 32.3129 15.337 32.2407 15.4351 32.1854C16.2951 31.7005 17.2487 31.1704 18.3091 30.5832C18.3771 30.5456 18.4296 30.5158 18.4985 30.4776C24.5729 27.0472 28.4813 24.7903 33.4661 22.0468C35.7714 20.778 37.4504 19.9619 39.4754 18.8928C41.8292 17.6501 44.4832 16.1897 46.461 15.2152C50.1405 13.4023 53.0708 12.1885 55.2572 11.5446C57.4437 10.9007 59.299 11.9307 59.3287 12.0112C59.1653 11.8447 58.4563 10.1901 58.6382 7.56753C58.6783 6.98812 58.7987 5.93608 58.9558 5.29828C59.7627 2.02075 61.511 0.0173773 64.5701 1.21509C64.118 0.906674 63.3281 0.708869 62.3491 0.602681Z"/><path fill="url(#LG_7)" opacity="1" stroke="none" d="M64.0723 41.5546C62.3926 41.9392 59.1745 43.1429 56.502 44.2266C53.6213 45.483 50.3359 46.9753 46.6364 48.7165C43.1451 50.3838 40.255 51.6905 37.9572 52.6338C35.6593 53.5772 33.8146 54.2324 32.4407 54.6015C31.0669 54.9705 30.0534 55.1121 29.3694 55.0261C28.6989 54.942 28.2219 54.7221 27.9685 54.2971L23.3194 62.0571C23.9414 62.2823 24.6225 62.391 25.3505 62.4566C26.538 62.5634 27.8565 62.5185 29.3129 62.3062C31.1811 62.0339 33.2674 61.4908 35.5724 60.6947C38.5658 59.6605 41.937 58.3227 45.6841 56.6697C46.3816 56.362 48.0333 55.5844 49.734 54.789C49.8441 54.742 49.8847 54.7585 50.0024 54.7038C51.5369 53.9907 52.5383 53.4874 53.745 52.9171C55.3947 52.1326 56.9459 51.3995 58.3996 50.7254C60.4792 49.7217 61.8809 49.2484 62.8385 48.984C60.6084 49.3262 60.4281 42.2984 64.0723 41.5546Z"/><path fill="url(#LG_8)" opacity="1" stroke="none" d="M70.4599 41.2231C68.5892 40.9566 66.4641 41.0608 64.0723 41.5546C60.452 42.2783 60.5485 49.2852 62.8385 48.984C72.7548 47.6796 71.1089 55.6806 70.4673 60.0504C70.3954 60.441 70.2156 61.1307 69.8922 62.0526C69.4973 63.1786 68.8881 64.651 67.9995 66.348C64.8871 72.292 57.7317 79.852 53.549 82.4971C47.8886 86.0795 42.2525 87.6918 40.1846 86.7276C39.9025 86.5958 39.6757 86.4228 39.4924 86.1975C39.076 85.684 38.9546 84.9158 39.2181 83.8394C38.1977 84.2844 37.1475 84.7019 36.0324 85.057C34.1277 85.6637 32.0517 86.1171 29.593 86.5784C29.9005 87.5598 30.3257 88.5044 30.9264 89.3747C31.4002 90.0611 31.9624 90.7078 32.6097 91.3103C33.1166 91.7818 33.6817 92.2243 34.2946 92.6393C34.99 93.1093 35.7453 93.5499 36.5761 93.9367C48.5052 99.5014 70.6122 87.134 77.2363 70.696C78.5238 67.4944 79.2757 66.0691 80.0535 61.6999C80.8314 57.3307 80.3478 53.2191 80.3478 53.2191C80.3478 53.2191 80.3261 53.2157 80.3259 53.2155C80.3257 53.2141 80.3273 53.2096 80.3271 53.2082C79.348 46.1639 76.0719 42.0226 70.4599 41.2231Z"/></g></g></svg>