<svg xmlns="http://www.w3.org/2000/svg" xmlns:xlink="http://www.w3.org/1999/xlink" width="100%" height="100%" version="1.1" viewBox="0 0 512 512" xml:space="preserve"><defs><linearGradient id="LG" x1="0" x2="1" y1="0" y2="0" gradientTransform="matrix(-76.4683 -175.299 172.964 -87.2111 343.71 401.724)" gradientUnits="userSpaceOnUse"><stop offset="0" stop-color="#fff"/><stop offset="1" stop-color="#595959" stop-opacity=".276"/></linearGradient><linearGradient id="LG_2" x1="0" x2="1" y1="0" y2="0" gradientTransform="matrix(-84.1891 -216.7 214.227 -97.1657 459.195 474.637)" gradientUnits="userSpaceOnUse"><stop offset="0" stop-color="#fff"/><stop offset="1" stop-color="#595959" stop-opacity=".276"/></linearGradient><linearGradient id="LG_3" x1="0" x2="1" y1="0" y2="0" gradientTransform="matrix(-51.4802 -194.192 192.935 -62.4057 318.722 420.617)" gradientUnits="userSpaceOnUse"><stop offset="0" stop-color="#fff"/><stop offset="1" stop-color="#595959" stop-opacity=".276"/></linearGradient><linearGradient id="LG_4" x1="0" x2="1" y1="0" y2="0" gradientTransform="matrix(-419.19 223.395 -219.113 -418.185 390.028 48.5867)" gradientUnits="userSpaceOnUse"><stop offset="0" stop-color="#4d4d4d" stop-opacity=".53"/><stop offset=".201" stop-color="#979797" stop-opacity=".727"/><stop offset=".48" stop-color="#fff"/><stop offset=".719" stop-color="#eaeaea" stop-opacity=".846"/><stop offset="1" stop-color="#878787" stop-opacity=".185"/></linearGradient><linearGradient id="LG_5" x1="0" x2="1" y1="0" y2="0" gradientTransform="matrix(289.711 -303.421 298.127 276.82 9.70227 506.727)" gradientUnits="userSpaceOnUse"><stop offset="0" stop-color="#4d4d4d" stop-opacity=".53"/><stop offset=".201" stop-color="#979797" stop-opacity=".727"/><stop offset=".48" stop-color="#fff"/><stop offset=".719" stop-color="#eaeaea" stop-opacity=".846"/><stop offset="1" stop-color="#878787" stop-opacity=".185"/></linearGradient><linearGradient id="LG_6" x1="0" x2="1" y1="0" y2="0" gradientTransform="matrix(109.235 -160.148 156.808 107.991 141.72 118.307)" gradientUnits="userSpaceOnUse"><stop offset="0" stop-color="#fff"/><stop offset="1" stop-color="#878787" stop-opacity=".3"/></linearGradient><linearGradient id="LG_7" x1="0" x2="1" y1="0" y2="0" gradientTransform="matrix(448.967 -180.91 139.462 550.219 104.325 307.557)" gradientUnits="userSpaceOnUse"><stop offset="0" stop-color="#fff"/><stop offset="1" stop-color="#595959" stop-opacity=".276"/></linearGradient><linearGradient id="LG_8" x1="0" x2="1" y1="0" y2="0" gradientTransform="matrix(-224.473 -65.165 107.784 -253.4 355.046 417.537)" gradientUnits="userSpaceOnUse"><stop offset="0" stop-color="#fff"/><stop offset="1" stop-color="#595959" stop-opacity=".276"/></linearGradient><linearGradient id="LG_9" x1="0" x2="1" y1="0" y2="0" gradientTransform="matrix(-101.918 -291.759 288.887 -119.054 369.159 518.184)" gradientUnits="userSpaceOnUse"><stop offset="0" stop-color="#fff"/><stop offset="1" stop-color="#595959" stop-opacity=".276"/></linearGradient><linearGradient id="LG_10" x1="0" x2="1" y1="0" y2="0" gradientTransform="matrix(-76.4683 -175.299 172.964 -87.2111 313.491 490.255)" gradientUnits="userSpaceOnUse"><stop offset="0" stop-color="#fff"/><stop offset="1" stop-color="#595959" stop-opacity=".276"/></linearGradient><filter id="F" width="91.921" height="157.015" x="128.493" y="335.774" color-interpolation-filters="sRGB" filterUnits="userSpaceOnUse"><feGaussianBlur in="SourceGraphic" result="Blur" stdDeviation="8.29"/></filter><linearGradient id="LG_11" x1="0" x2="1" y1="0" y2="0" gradientTransform="matrix(-224.473 -65.165 107.784 -253.4 355.046 417.537)" gradientUnits="userSpaceOnUse"><stop offset="0" stop-color="#fff"/><stop offset="1" stop-color="#595959" stop-opacity=".276"/></linearGradient><filter id="F_2" width="56.294" height="54.68" x="148.139" y="421.263" color-interpolation-filters="sRGB" filterUnits="userSpaceOnUse"><feGaussianBlur in="SourceGraphic" result="Blur" stdDeviation="1.445"/></filter><linearGradient id="LG_12" x1="0" x2="1" y1="0" y2="0" gradientTransform="matrix(-179.765 171.634 171.634 179.765 202.227 336.62)" gradientUnits="userSpaceOnUse"><stop offset="0" stop-color="#fff"/><stop offset="1" stop-color="#666" stop-opacity=".5"/></linearGradient><linearGradient id="LG_13" x1="0" x2="1" y1="0" y2="0" gradientTransform="matrix(-101.918 -291.759 288.887 -119.054 369.159 518.184)" gradientUnits="userSpaceOnUse"><stop offset="0" stop-color="#fff"/><stop offset="1" stop-color="#595959" stop-opacity=".276"/></linearGradient><linearGradient id="LG_14" x1="0" x2="1" y1="0" y2="0" gradientTransform="matrix(-76.4683 -175.299 172.964 -87.2111 343.71 401.724)" gradientUnits="userSpaceOnUse"><stop offset="0" stop-color="#fff"/><stop offset="1" stop-color="#595959" stop-opacity=".276"/></linearGradient><linearGradient id="LG_15" x1="0" x2="1" y1="0" y2="0" gradientTransform="matrix(-179.765 171.634 171.634 179.765 202.227 336.62)" gradientUnits="userSpaceOnUse"><stop offset="0" stop-color="#fff"/><stop offset="1" stop-color="#666" stop-opacity=".5"/></linearGradient></defs><g><g opacity="1"><g opacity="1"><path fill="url(#LG)" stroke="none" d="M361.82 267.982C351.988 269.481 344.143 271.055 344.144 271.055C259.728 289.51 175.455 344.813 154.226 397.44C145.996 417.908 147.751 437.447 158.549 453.095C160.964 456.594 163.83 459.891 167.131 462.963C169.715 465.367 172.596 467.623 175.721 469.738C179.266 472.135 183.116 474.381 187.352 476.353C221.537 492.299 216.291 444.515 205.749 439.599C204.311 438.927 203.155 438.045 202.22 436.897C199.459 433.493 199.143 427.921 202.536 419.508C219.3 377.919 303.204 322.015 357.204 313.801C358.44 310.314 359.514 307.155 360.136 303.593C362.622 289.36 363.634 274.048 361.82 267.982Z" opacity="0"/><path fill="url(#LG_2)" stroke="none" d="M408.627 311.942C408.755 311.963 408.882 311.983 409.009 312.003C423.144 314.243 436.793 316.032 445.427 325.251C484.923 367.416 427.964 403.914 422.854 439.592C421.146 451.52 426.2 460.148 433.876 466.563C446.073 476.755 460.529 472.814 474.693 455.468C522.356 397.092 521.044 329.981 474.192 291.387C458.93 278.633 428.22 265.543 410.505 268.822C410.941 275.81 411.02 288.023 410.467 297.894C410.12 304.094 409.511 309.285 408.627 311.942Z" opacity="1"/><path fill="url(#LG_3)" stroke="none" d="M404.441 266.888C400.367 265.975 394.198 265.126 385.903 265.412C380.623 265.594 372.668 266.43 366.77 277.818C363.892 283.372 361.291 297.323 360.139 303.58C357.878 315.856 348.745 332.793 347.575 335.691C334.86 367.221 307.22 396.95 273.883 418.031C245.025 436.295 216.291 444.515 205.749 439.599C204.311 438.927 203.155 438.045 202.22 436.897C200.097 434.279 199.478 430.362 200.821 424.875C200.135 425.174 199.445 425.471 198.753 425.765C198.753 425.765 197.13 438.522 191.938 450.781C187.388 461.524 179.132 471.939 179.786 472.331C182.168 473.759 184.684 475.111 187.352 476.353C248.169 504.723 360.875 441.671 394.646 357.867C401.21 341.545 408.762 318.192 408.631 311.887L410.509 268.766C410.509 268.766 408.516 267.8 404.441 266.888Z" opacity="1"/><path fill="url(#LG_4)" stroke="none" d="M330.075 3.6207C299.554-8.53752 295.11 45.38 303.347 58.68C304.467 61.7196 303.634 65.6614 300.053 70.8971C295.989 76.8398 289.83 83.6854 281.517 91.4046C273.203 99.1238 263.717 107.328 253.086 116.016C247.176 120.847 241.049 125.645 234.999 130.44C230.167 134.269 225.432 138.097 220.536 141.936C204.005 155.107 188.426 167.475 173.804 178.957C169.63 182.234 135.199 210.581 135.199 210.581L154.964 250.807C158.536 247.52 163.801 242.923 168.957 238.64C176.97 231.983 187.233 223.715 199.694 213.854C212.156 203.993 227.216 191.96 244.948 177.912C252.263 172.107 257.737 167.432 264.478 161.964C276.838 151.937 289.784 141.513 300.194 132.603C316.281 118.834 329.314 106.106 339.315 94.341C349.316 82.5759 355.63 71.4439 358.328 60.9369C360.957 50.6817 365.449 17.7127 330.075 3.6207Z" opacity="1"/><path fill="url(#LG_5)" stroke="none" d="M135.199 210.581C128.701 216.072 122.765 221.165 119.032 224.454C109.937 232.467 103.056 240.986 98.2656 250.226C95.2743 255.995 93.4892 262.223 92.9457 268.809C92.9227 269.087 92.8662 269.365 92.8477 269.644C92.8394 269.77 92.8681 269.907 92.8607 270.033C92.3889 273.441 92.5762 276.962 93.2845 280.543C93.3088 280.73 93.284 280.901 93.3101 281.088C93.3117 281.005 93.344 280.944 93.3469 280.862C94.4154 286.037 96.4227 291.283 99.279 296.215C102.269 301.573 106.042 305.692 110.455 308.903C113.24 310.93 116.441 312.614 119.767 313.824C119.799 313.836 143.469 274.262 143.469 274.262C142.14 271.731 141.843 268.926 142.862 266.043C143.366 264.616 145.437 259.704 154.964 250.807L135.199 210.581Z" opacity="1"/><path fill="url(#LG_6)" stroke="none" d="M318.748 0.516775C303.774-1.10733 280.064 1.34159 267.495 4.45766C245.15 9.99746 216.867 20.7678 182.568 36.7835C177.405 39.1943 170.818 42.6324 165.302 45.2988C137.188 58.8915 118.683 68.01 81.6416 88.032C80.2261 88.7971 73.8431 92.3531 72.4119 93.1295C69.8375 94.5262 67.2374 95.9414 64.6112 97.3754C57.9864 101.049 52.1538 104.216 47.0182 106.959C41.883 109.701 37.4391 112.173 33.6594 114.216C29.8802 116.259 26.6249 117.943 24.0395 119.377C21.4541 120.81 19.4073 122.049 17.9177 122.98C11.601 127.01 7.08525 131.693 4.21544 137.026C1.34554 142.36-0.038091 147.638 0.000797165 153.045C0.0396975 158.451 1.12642 163.288 3.49063 167.458C3.82632 168.05 4.31173 168.564 4.75058 169.094C5.27133 169.722 5.74926 170.373 6.27112 171.004C8.40662 173.588 10.897 175.961 14.155 177.897C18.8796 180.705 24.3449 182.28 30.4426 182.641C36.5407 183.001 42.6756 181.712 48.9975 178.628C50.5781 177.857 52.7267 176.683 55.3118 175.249C57.8972 173.815 60.9867 172.1 64.7209 169.977C68.455 167.854 72.8668 165.297 77.8935 162.457C78.3801 162.182 79.0707 161.814 79.571 161.532C83.9554 159.06 88.8171 156.357 94.2233 153.364C94.5699 153.172 94.8375 153.02 95.189 152.825C126.157 135.337 146.083 123.83 171.497 109.844C183.25 103.375 191.809 99.2139 202.133 93.7634C214.133 87.4281 227.664 79.9827 237.747 75.0143C256.506 65.7716 271.445 59.5835 282.592 56.3007C293.739 53.0181 303.198 58.2692 303.349 58.6795C302.516 57.8311 298.902 49.3952 299.829 36.025C300.034 33.0711 300.648 27.7076 301.448 24.4559C305.562 7.74639 314.475-2.46723 330.071 3.63896C327.766 2.06659 323.739 1.05814 318.748 0.516775Z" opacity="1"/><path fill="url(#LG_7)" stroke="none" d="M327.533 209.298C318.97 211.259 302.563 217.396 288.938 222.921C274.252 229.326 257.502 236.934 238.641 245.811C220.842 254.311 206.108 260.973 194.393 265.782C182.678 270.592 173.273 273.932 166.269 275.814C159.265 277.695 154.098 278.417 150.611 277.979C147.192 277.55 144.76 276.429 143.469 274.262L119.767 313.824C122.938 314.972 126.41 315.526 130.122 315.861C136.176 316.405 142.898 316.176 150.323 315.094C159.847 313.706 170.484 310.937 182.235 306.878C197.496 301.606 214.683 294.785 233.786 286.358C237.343 284.789 245.763 280.825 254.434 276.77C254.995 276.53 255.202 276.614 255.802 276.335C263.625 272.7 268.731 270.134 274.883 267.226C283.293 263.227 291.202 259.49 298.613 256.053C309.215 250.936 316.361 248.523 321.243 247.175C309.874 248.919 308.955 213.09 327.533 209.298Z" opacity="1"/><path fill="url(#LG_8)" stroke="none" d="M360.099 207.608C350.562 206.249 339.727 206.781 327.533 209.298C309.076 212.988 309.568 248.71 321.243 247.175C371.798 240.525 363.408 281.315 360.136 303.593C359.77 305.585 358.853 309.101 357.204 313.801C355.191 319.542 352.085 327.048 347.555 335.7C331.687 366.004 295.207 404.546 273.883 418.031C245.025 436.295 216.291 444.515 205.749 439.599C204.311 438.927 203.155 438.045 202.22 436.897C200.097 434.279 199.478 430.362 200.821 424.875C195.619 427.143 190.265 429.272 184.58 431.082C174.87 434.175 164.286 436.487 151.751 438.839C153.319 443.842 155.486 448.658 158.549 453.095C160.964 456.594 163.83 459.891 167.131 462.963C169.715 465.367 172.596 467.623 175.721 469.738C177.033 470.625 178.387 471.492 179.786 472.331C182.169 473.76 184.684 475.111 187.352 476.353C248.169 504.723 360.875 441.671 394.646 357.867C401.21 341.545 405.043 334.278 409.009 312.003C412.975 289.728 410.509 268.766 410.509 268.766C410.509 268.766 410.399 268.749 410.397 268.748C410.396 268.74 410.405 268.718 410.404 268.71C405.412 232.797 388.71 211.684 360.099 207.608Z" opacity="1"/><path fill="url(#LG_9)" stroke="none" d="M361.812 267.969C351.98 269.468 344.156 271.062 344.156 271.062C281.727 284.71 219.456 318.532 182.625 356.5C186.235 361.839 189.339 367.521 191.938 373.562C197.105 385.576 199.687 398.49 199.688 412.312C199.688 425.876 197.105 438.703 191.938 450.781C188.638 458.494 184.402 465.535 179.438 472.063C181.94 473.582 184.523 475.031 187.344 476.344C221.529 492.29 216.293 444.51 205.75 439.594C204.312 438.922 203.153 438.054 202.219 436.906C199.458 433.502 199.139 427.912 202.531 419.5C219.295 377.91 303.219 322.026 357.219 313.812C358.454 310.325 359.503 307.156 360.125 303.594C362.611 289.361 363.626 274.035 361.812 267.969Z" opacity="1"/><path fill="url(#LG_10)" stroke="none" d="M182.625 356.5C169.654 369.872 159.748 383.731 154.219 397.437C153.97 398.055 153.824 398.665 153.594 399.281C155.955 399.822 158.001 400.875 159.656 402.531C162.111 404.986 163.344 408.214 163.344 412.219C163.344 416.224 162.111 419.452 159.656 421.906C157.202 424.361 153.973 425.562 149.969 425.562L149.219 425.562C149.756 435.52 152.88 444.86 158.563 453.094C160.978 456.593 163.825 459.897 167.125 462.969C169.709 465.373 172.594 467.634 175.719 469.75C176.903 470.55 178.182 471.3 179.438 472.062C184.402 465.535 188.638 458.494 191.938 450.781C197.105 438.703 199.688 425.876 199.688 412.312C199.687 398.49 197.105 385.576 191.938 373.562C189.339 367.521 186.235 361.839 182.625 356.5Z" filter="url(#F)" opacity="1"/><path fill="url(#LG_11)" stroke="none" d="M200.821 424.875C195.619 427.143 190.265 429.272 184.58 431.082C174.87 434.175 164.286 436.487 151.751 438.839C153.319 443.842 155.486 448.658 158.549 453.095C160.964 456.594 163.83 459.891 167.131 462.963C169.715 465.367 172.596 467.623 175.721 469.738C177.033 470.625 178.387 471.492 179.786 472.331C179.786 472.331 187.259 461.015 191.938 450.781C197.343 438.958 200.101 427.816 200.821 424.875Z" filter="url(#F_2)" opacity="0"/></g><g opacity="1"><path fill="url(#LG_12)" stroke="none" d="M99.9063 312.312C86.3423 312.313 73.516 314.924 61.4375 320.156C49.3594 325.388 38.7343 332.639 29.5625 341.875C20.3907 351.112 13.1694 361.766 7.9375 373.844C2.7056 385.922 0.09375 398.749 0.09375 412.312C0.0937513 425.876 2.67666 438.703 7.84375 450.781C13.0108 462.859 20.2032 473.484 29.375 482.656C38.5468 491.828 49.1719 499.018 61.25 504.25C73.3285 509.482 86.2131 512.094 99.9062 512.094C104.575 512.094 109.138 511.784 113.594 511.188C122.328 510.017 130.649 507.714 138.562 504.25C150.511 499.018 161.078 491.828 170.312 482.656C173.651 479.341 176.628 475.757 179.438 472.062C178.182 471.3 176.903 470.55 175.719 469.75C172.594 467.634 169.709 465.373 167.125 462.969C163.825 459.897 160.978 456.593 158.562 453.094C152.88 444.86 149.756 435.52 149.219 425.562L113.375 425.562L113.25 425.562L113.25 462.094C113.25 466.098 112.048 469.327 109.594 471.781C107.139 474.235 103.911 475.469 99.9062 475.469C95.9016 475.469 92.6732 474.235 90.2187 471.781C87.7643 469.327 86.5312 466.098 86.5312 462.094L86.5313 425.562L50 425.562C45.9957 425.562 42.767 424.361 40.3125 421.906C37.8584 419.452 36.625 416.223 36.625 412.219C36.625 408.214 37.8584 404.986 40.3125 402.531C42.7669 400.077 45.9957 398.844 50 398.844L86.5313 398.844L86.5313 398.75L86.5313 362.125C86.5312 358.121 87.7643 354.892 90.2188 352.438C92.6732 349.983 95.9016 348.75 99.9063 348.75C103.911 348.75 107.139 349.983 109.594 352.438C112.048 354.892 113.25 358.121 113.25 362.125L113.25 398.75L113.25 398.844L113.375 398.844L149.969 398.844C151.272 398.844 152.455 399.021 153.594 399.281C153.824 398.665 153.97 398.055 154.219 397.437C159.748 383.731 169.654 369.872 182.625 356.5C179.057 351.223 174.996 346.279 170.438 341.688C161.264 332.451 150.672 325.23 138.656 320.062C126.644 314.895 113.728 312.312 99.9063 312.312Z" opacity="0"/><path fill="url(#LG_13)" stroke="none" d="M200.625 425.437C199.954 425.553 199.411 425.709 198.688 425.812C197.53 434.447 195.353 442.797 191.938 450.781C188.638 458.494 184.402 465.535 179.438 472.062C181.94 473.582 184.523 475.031 187.344 476.344C221.529 492.29 216.293 444.51 205.75 439.594C204.312 438.922 203.153 438.054 202.219 436.906C200.171 434.381 199.467 430.628 200.625 425.437Z" opacity="0"/><path fill="url(#LG_14)" stroke="none" d="M153.594 399.281C150.21 408.335 148.766 417.168 149.219 425.562L149.969 425.562C153.973 425.562 157.202 424.361 159.656 421.906C162.111 419.452 163.344 416.224 163.344 412.219C163.344 408.214 162.111 404.986 159.656 402.531C158.001 400.875 155.955 399.822 153.594 399.281Z" opacity="1"/></g><path fill="url(#LG_15)" stroke="none" d="M99.9063 312.312C113.728 312.312 126.644 314.895 138.656 320.062C150.672 325.23 161.264 332.451 170.438 341.688C179.608 350.924 186.77 361.549 191.938 373.562C197.105 385.576 199.688 398.49 199.688 412.312C199.688 425.876 197.105 438.703 191.938 450.781C186.77 462.859 179.551 473.485 170.313 482.656C161.078 491.828 150.511 499.018 138.563 504.25C130.649 507.714 122.328 510.017 113.594 511.188C109.138 511.784 104.575 512.094 99.9063 512.094C86.2131 512.094 73.3285 509.482 61.25 504.25C49.1719 499.018 38.5468 491.828 29.375 482.656C20.2032 473.484 13.0108 462.859 7.84375 450.781C2.67666 438.703 0.0937513 425.876 0.09375 412.312C0.09375 398.749 2.7056 385.922 7.9375 373.844C13.1694 361.766 20.3907 351.112 29.5625 341.875C38.7343 332.639 49.3594 325.388 61.4375 320.156C73.516 314.924 86.3423 312.313 99.9063 312.312ZM99.9063 348.75C95.9016 348.75 92.6732 349.983 90.2188 352.438C87.7643 354.892 86.5313 358.121 86.5313 362.125L86.5313 398.75L86.5313 398.844L50 398.844C45.9957 398.844 42.7669 400.077 40.3125 402.531C37.8584 404.986 36.625 408.214 36.625 412.219C36.625 416.223 37.8584 419.452 40.3125 421.906C42.767 424.361 45.9957 425.562 50 425.562L86.5313 425.562L86.5313 462.094C86.5313 466.098 87.7643 469.327 90.2188 471.781C92.6732 474.235 95.9016 475.469 99.9063 475.469C103.911 475.469 107.139 474.235 109.594 471.781C112.048 469.327 113.25 466.098 113.25 462.094L113.25 425.562L113.375 425.562L149.969 425.562C153.973 425.562 157.202 424.361 159.656 421.906C162.111 419.452 163.344 416.223 163.344 412.219C163.344 408.214 162.111 404.986 159.656 402.531C157.202 400.077 153.973 398.844 149.969 398.844L113.375 398.844L113.25 398.844L113.25 398.75L113.25 362.125C113.25 358.121 112.048 354.892 109.594 352.438C107.139 349.983 103.911 348.75 99.9063 348.75Z" opacity="1"/></g></g></svg>