<svg width="100%" height="100%" viewBox="0 0 100 100" xml:space="preserve" xmlns="http://www.w3.org/2000/svg" xmlns:vectornator="http://vectornator.io" xmlns:xlink="http://www.w3.org/1999/xlink"><defs><filter color-interpolation-filters="sRGB" filterUnits="userSpaceOnUse" height="103.949" id="Filter" width="66.9014" x="16.5493" y="-1.5"><feDropShadow dx="6.12323e-17" dy="1" flood-color="#000000" flood-opacity="0.44" in="SourceGraphic" result="Shadow" stdDeviation="1"/></filter><radialGradient cx="50.1817" cy="66.1088" gradientTransform="matrix(1.0324 5.67065e-33 0 -1.05541 -1.62091 102.865)" gradientUnits="userSpaceOnUse" id="RadialGradient" r="36.8181"><stop offset="0" stop-color="#ffffff"/><stop offset="0.542105" stop-color="#ffffff"/><stop offset="0.790789" stop-color="#d9d9d9"/><stop offset="1" stop-color="#cccccc"/></radialGradient><radialGradient cx="50.2533" cy="65.3112" gradientTransform="matrix(1.0324 5.67065e-33 0 -1.05541 -1.62091 102.865)" gradientUnits="userSpaceOnUse" id="RadialGradient_2" r="37.65"><stop offset="0" stop-color="#ffffff"/><stop offset="0.542105" stop-color="#ffffff"/><stop offset="0.790789" stop-color="#d9d9d9"/><stop offset="1" stop-color="#cccccc"/></radialGradient><radialGradient cx="50.1534" cy="31.8456" gradientTransform="matrix(1.0324 5.65852e-33 0 -1.05315 -1.62091 102.644)" gradientUnits="userSpaceOnUse" id="RadialGradient_3" r="34.1002"><stop offset="0" stop-color="#ffffff"/><stop offset="0.542105" stop-color="#ffffff"/><stop offset="0.790789" stop-color="#d9d9d9"/><stop offset="1" stop-color="#cccccc"/></radialGradient><linearGradient gradientTransform="matrix(1.03243 5.65852e-33 0 -1.05315 -1.62271 102.695)" gradientUnits="userSpaceOnUse" id="LinearGradient" x1="50.5368" x2="50.3576" y1="4.23414" y2="54.7697"><stop offset="0" stop-color="#ececec" stop-opacity="0"/><stop offset="0.492105" stop-color="#f2f2f2" stop-opacity="0.492105"/><stop offset="1" stop-color="#f2f2f2"/></linearGradient><radialGradient cx="49.365" cy="98.0699" gradientTransform="matrix(1 0 0 1.02009 -0.000699756 -1.01846)" gradientUnits="userSpaceOnUse" id="RadialGradient_4" r="98.4968"><stop offset="0" stop-color="#ffffff" stop-opacity="0"/><stop offset="0.832895" stop-color="#e6e6e6" stop-opacity="0.793584"/></radialGradient><linearGradient gradientTransform="matrix(1 0 0 1.02009 -2.1684e-19 -6.01337)" gradientUnits="userSpaceOnUse" id="LinearGradient_2" x1="35.2759" x2="64.7227" y1="47.3153" y2="47.3153"><stop offset="0" stop-color="#e91e63"/><stop offset="1" stop-color="#ff01aa"/></linearGradient><filter color-interpolation-filters="sRGB" filterUnits="userSpaceOnUse" height="62.2935" id="Filter_ArrowsCombined" width="31.8395" x="34.0799" y="3.53814"><feDropShadow dx="0" dy="0" flood-color="#000000" flood-opacity="0.44" in="SourceGraphic" result="Shadow" stdDeviation="0.47841"/></filter><linearGradient gradientTransform="matrix(1 0 0 1.02009 0 -6.01337)" gradientUnits="userSpaceOnUse" id="LinearGradient_Up" x1="35.2766" x2="64.7234" y1="32.4778" y2="32.4778"><stop offset="0" stop-color="#e91e63"/><stop offset="1" stop-color="#ff01aa"/></linearGradient><filter color-interpolation-filters="sRGB" filterUnits="userSpaceOnUse" height="47.1579" id="Filter_Up" width="31.8388" x="34.0806" y="3.53814"><feDropShadow dx="0" dy="0" flood-color="#000000" flood-opacity="0.44" in="SourceGraphic" result="Shadow" stdDeviation="0.47841"/></filter><linearGradient gradientTransform="matrix(1 0 0 1.02009 -2.1684e-19 -6.01337)" gradientUnits="userSpaceOnUse" id="LinearGradient_Down" x1="35.2759" x2="64.7227" y1="47.3153" y2="47.3153"><stop offset="0" stop-color="#e91e63"/><stop offset="1" stop-color="#ff01aa"/></linearGradient><filter color-interpolation-filters="sRGB" filterUnits="userSpaceOnUse" height="47.1578" id="Filter_Down" width="31.8388" x="34.0799" y="18.6738"><feDropShadow dx="0" dy="0" flood-color="#000000" flood-opacity="0.44" in="SourceGraphic" result="Shadow" stdDeviation="0.47841"/></filter></defs><g id="Mouse"><path d="M50 3.98452e-09C50 3.98452e-09 19.635-0.009912 19.0493 31.2371L19.0493 41.6494L19.0493 67.7119C19.635 98.9589 47.4677 98.949 47.4677 98.949L52.5323 98.949C52.5323 98.949 80.9507 98.959 80.9507 67.7119L80.9507 41.6494L80.9507 31.2371C80.9507-0.009912 50 3.98452e-09 50 3.98452e-09Z" fill="#ffffff" filter="url(#Filter)" shadowAngle="1.5708" shadowColor="#000000" shadowOffset="1" shadowOpacity="0.44" shadowRadius="2"/><path d="M49.9993 0.001638C49.9993 0.001638 46.9798 0.001638 46.1313 0.075144C40.5735 0.55662 19.5585 4.19186 19.0506 31.6385L19.0506 42.1826L49.9993 42.1842L49.9993 0.001638Z" fill="url(#RadialGradient)" /><path d="M80.948 42.1826L80.948 31.6402C80.948 3.97218 59.2133 0.50118 53.76 0.065742C52.9777 0.003279 49.9993 0.003279 49.9993 0.003279L49.9993 42.1826L80.948 42.1826Z" fill="url(#RadialGradient_2)" /><path d="M80.9506 42.0907L80.9506 67.9371C80.9506 95.0585 59.215 98.4609 53.7615 98.8878C52.9792 98.949 50.0006 98.949 50.0006 98.949C50.0006 98.949 46.981 98.949 46.1325 98.8769C40.5744 98.405 19.5586 94.8416 19.0506 67.9371L19.0506 42.0939L50.0006 42.0923L80.9506 42.0907Z" fill="url(#RadialGradient_3)" /><path d="M49.9243 0.164853L49.9243 42.1825L19.1243 42.1825L19.1243 42.5294L80.8743 42.5294L80.8743 42.1825L50.2243 42.1825L50.2243 0.164853L49.9243 0.164853Z" fill="#d6d6d6" /><path d="M80.9493 42.3356L80.9506 67.9881C80.9917 97.5721 57.355 98.6575 53.7609 98.9388C52.9786 99 50 99 50 99C50 99 46.9803 99 46.1317 98.9279C40.5735 98.456 19.5572 94.8926 19.0493 67.9881L19.0493 42.3356L80.9493 42.3356Z" fill="url(#LinearGradient)" /><path d="M80.9506 42.0907L80.9506 67.9371C80.9506 95.0585 59.215 98.4609 53.7615 98.8878C52.9792 98.949 50.0006 98.949 50.0006 98.949C50.0006 98.949 46.981 98.949 46.1325 98.8769C40.5744 98.405 19.5586 94.8416 19.0506 67.9371L19.0506 42.0939L50.0006 42.0923L80.9506 42.0907Z" fill="url(#RadialGradient_4)" /><path opacity="0" d="M47.2286 19.7533L35.2766 19.7533L49.9999 4.73416L64.7233 19.7533L52.7714 19.7533L52.7714 34.4807L64.7234 34.4807L50 49.5L35.2767 34.4807L47.2286 34.4807L47.2286 19.7533ZM47.2279 34.8889L35.2759 34.8889L49.9992 19.8698L64.7226 34.8889L52.7707 34.8889L52.7707 49.6163L64.7227 49.6163L49.9993 64.6356L35.276 49.6163L47.2279 49.6163L47.2279 34.8889Z" fill="url(#LinearGradient_ArrowsCombined)" filter="url(#Filter_ArrowsCombined)" id="ArrowsCombined" shadowAngle="1.5708" shadowColor="#000000" shadowOffset="0" shadowOpacity="0.44" shadowRadius="0.956819"/>

<g id="Arrows"><path d="M47.2286 19.7533L35.2766 19.7533L49.9999 4.73416L64.7233 19.7533L52.7714 19.7533L52.7714 34.4807L64.7234 34.4807L50 49.5L35.2767 34.4807L47.2286 34.4807L47.2286 19.7533Z" fill="url(#LinearGradient_Up)" filter="url(#Filter_ArrowsCombined)" id="Up" shadowAngle="1.5708" shadowColor="#000000" shadowOffset="0" shadowOpacity="0.44" shadowRadius="0.956819"><animate id="animated" attributeName="d" dur="3s" repeatCount="indefinite" values="M47.2286 19.7533L35.2766 19.7533L49.9999 4.73416L64.7233 19.7533L52.7714 19.7533L52.7714 34.4807L64.7234 34.4807L50 49.5L35.2767 34.4807L47.2286 34.4807L47.2286 19.7533Z;M47.2279 34.8889L35.2759 34.8889L49.9992 19.8698L64.7226 34.8889L52.7707 34.8889L52.7707 49.6163L64.7227 49.6163L49.9993 64.6356L35.276 49.6163L47.2279 49.6163L47.2279 34.8889Z;M47.2286 19.7533L35.2766 19.7533L49.9999 4.73416L64.7233 19.7533L52.7714 19.7533L52.7714 34.4807L64.7234 34.4807L50 49.5L35.2767 34.4807L47.2286 34.4807L47.2286 19.7533Z" fill="url(#LinearGradient_ArrowsCombined)" filter="url(#Filter_ArrowsCombined)" shadowAngle="1.5708" shadowColor="#000000" shadowOffset="0" shadowOpacity="0.44" shadowRadius="0.956819"/></path><path opacity="0" d="M47.2279 34.8889L35.2759 34.8889L49.9992 19.8698L64.7226 34.8889L52.7707 34.8889L52.7707 49.6163L64.7227 49.6163L49.9993 64.6356L35.276 49.6163L47.2279 49.6163L47.2279 34.8889Z" fill="url(#LinearGradient_Down)" filter="url(#Filter_Down)" id="Down" shadowAngle="1.5708" shadowColor="#000000" shadowOffset="0" shadowOpacity="0.44" shadowRadius="0.956819"/></g></g></svg>