<svg height="100%" viewBox="0 0 100 100" width="100%" xml:space="preserve" xmlns="http://www.w3.org/2000/svg" xmlns:vectornator="http://vectornator.io" xmlns:xlink="http://www.w3.org/1999/xlink"><defs><filter color-interpolation-filters="sRGB" filterUnits="userSpaceOnUse" height="64.9014" id="Filter_ArrowsCombined" width="34.4475" x="32.7759" y="3.23416"><feDropShadow dx="6.12323e-17" dy="1" flood-color="#000000" flood-opacity="0.44" in="SourceGraphic" result="Shadow" stdDeviation="1"/></filter><radialGradient cx="50.1817" cy="66.1088" gradientTransform="matrix(1.0324 5.67065e-33 0 -1.05541 -1.62091 103.365)" gradientUnits="userSpaceOnUse" id="RadialGradient" r="36.8181"><stop offset="0" stop-color="#ffffff"/><stop offset="0.542105" stop-color="#ffffff"/><stop offset="0.790789" stop-color="#d9d9d9"/><stop offset="1" stop-color="#cccccc"/></radialGradient><radialGradient cx="50.2533" cy="65.3112" gradientTransform="matrix(1.0324 5.67065e-33 0 -1.05541 -1.62091 103.365)" gradientUnits="userSpaceOnUse" id="RadialGradient_2" r="37.65"><stop offset="0" stop-color="#ffffff"/><stop offset="0.542105" stop-color="#ffffff"/><stop offset="0.790789" stop-color="#d9d9d9"/><stop offset="1" stop-color="#cccccc"/></radialGradient><radialGradient cx="50.1534" cy="31.8456" gradientTransform="matrix(1.0324 5.65852e-33 0 -1.05315 -1.62091 103.144)" gradientUnits="userSpaceOnUse" id="RadialGradient_3" r="34.1002"><stop offset="0" stop-color="#ffffff"/><stop offset="0.542105" stop-color="#ffffff"/><stop offset="0.790789" stop-color="#d9d9d9"/><stop offset="1" stop-color="#cccccc"/></radialGradient><linearGradient gradientTransform="matrix(1.03243 5.65852e-33 0 -1.05315 -1.62271 103.195)" gradientUnits="userSpaceOnUse" id="LinearGradient" x1="50.5368" x2="50.3576" y1="4.23414" y2="54.7697"><stop offset="0" stop-color="#ececec" stop-opacity="0"/><stop offset="0.492105" stop-color="#f2f2f2" stop-opacity="0.492105"/><stop offset="1" stop-color="#f2f2f2"/></linearGradient><radialGradient cx="49.365" cy="98.0699" gradientTransform="matrix(1 0 0 1.02009 -0.000699756 -0.518457)" gradientUnits="userSpaceOnUse" id="RadialGradient_4" r="98.4968"><stop offset="0" stop-color="#ffffff" stop-opacity="0"/><stop offset="0.832895" stop-color="#e6e6e6" stop-opacity="0.793584"/></radialGradient><linearGradient gradientTransform="matrix(1 0 0 1.02009 0 -5.51337)" gradientUnits="userSpaceOnUse" id="LinearGradient_Up" x1="35.2766" x2="64.7234" y1="32.4778" y2="32.4778"><stop offset="0" stop-color="#e91e63"/><stop offset="1" stop-color="#ff01aa"/></linearGradient><filter color-interpolation-filters="sRGB" filterUnits="userSpaceOnUse" height="49.7658" id="Filter_Up" width="34.4467" x="32.7766" y="3.73416"><feDropShadow dx="6.12323e-17" dy="1" flood-color="#000000" flood-opacity="0.44" in="SourceGraphic" result="Shadow" stdDeviation="1"/></filter></defs><g opacity="1" layerName="Mouse"><path d="M50 0.5C50 0.5 19.635 0.490088 19.0493 31.7371L19.0493 42.1494L19.0493 68.2119C19.635 99.4589 47.4677 99.449 47.4677 99.449L52.5323 99.449C52.5323 99.449 80.9507 99.459 80.9507 68.2119L80.9507 42.1494L80.9507 31.7371C80.9507 0.490088 50 0.5 50 0.5Z" fill="#ffffff" layerName="Curve 1"/><path d="M49.9993 0.501638C49.9993 0.501638 46.9798 0.501638 46.1313 0.575144C40.5735 1.05662 19.5585 4.69186 19.0506 32.1385L19.0506 42.6826L49.9993 42.6842L49.9993 0.501638Z" fill="url(#RadialGradient)" layerName="path 7"/><path d="M80.948 42.6826L80.948 32.1402C80.948 4.47218 59.2133 1.00118 53.76 0.565742C52.9777 0.503279 49.9993 0.503279 49.9993 0.503279L49.9993 42.6826L80.948 42.6826Z" fill="url(#RadialGradient_2)" layerName="path 10"/><path d="M80.9506 42.5907L80.9506 68.4371C80.9506 95.5585 59.215 98.9609 53.7615 99.3878C52.9792 99.449 50.0006 99.449 50.0006 99.449C50.0006 99.449 46.981 99.449 46.1325 99.3769C40.5744 98.905 19.5586 95.3416 19.0506 68.4371L19.0506 42.5939L50.0006 42.5923L80.9506 42.5907Z" fill="url(#RadialGradient_3)" layerName="path 1"/><path d="M49.9243 0.664853L49.9243 42.6825L19.1243 42.6825L19.1243 43.0294L80.8743 43.0294L80.8743 42.6825L50.2243 42.6825L50.2243 0.664853L49.9243 0.664853Z" fill="#d6d6d6" layerName="Curve 7"/><path d="M80.9493 42.8356L80.9506 68.4881C80.9917 98.0721 57.355 99.1575 53.7609 99.4388C52.9786 99.5 50 99.5 50 99.5C50 99.5 46.9803 99.5 46.1317 99.4279C40.5735 98.956 19.5572 95.3926 19.0493 68.4881L19.0493 42.8356L80.9493 42.8356Z" fill="url(#LinearGradient)" layerName="path 8"/><path d="M80.9506 42.5907L80.9506 68.4371C80.9506 95.5585 59.215 98.9609 53.7615 99.3878C52.9792 99.449 50.0006 99.449 50.0006 99.449C50.0006 99.449 46.981 99.449 46.1325 99.3769C40.5744 98.905 19.5586 95.3416 19.0506 68.4371L19.0506 42.5939L50.0006 42.5923L80.9506 42.5907Z" fill="url(#RadialGradient_4)" layerName="path 11"/><g opacity="1" layerName="Arrows"><path d="M47.2286 20.2533L35.2766 20.2533L49.9999 5.23416L64.7233 20.2533L52.7714 20.2533L52.7714 34.9807L64.7234 34.9807L50 50L35.2767 34.9807L47.2286 34.9807L47.2286 20.2533Z" fill="url(#LinearGradient_Up)" filter="url(#Filter_ArrowsCombined)" layerName="Up" shadowAngle="1.5708" shadowColor="#000000" shadowOffset="1" shadowOpacity="0.44" shadowRadius="2"><animate attributeName="d" dur="3s" repeatCount="indefinite" values="M47.2286 20.2533L35.2766 20.2533L49.9999 5.23416L64.7233 20.2533L52.7714 20.2533L52.7714 34.9807L64.7234 34.9807L50 50L35.2767 34.9807L47.2286 34.9807L47.2286 20.2533Z;M47.2279 35.3889L35.2759 35.3889L49.9992 20.3698L64.7226 35.3889L52.7707 35.3889L52.7707 50.1163L64.7227 50.1163L49.9993 65.1356L35.276 50.1163L47.2279 50.1163L47.2279 35.3889Z;M47.2286 20.2533L35.2766 20.2533L49.9999 5.23416L64.7233 20.2533L52.7714 20.2533L52.7714 34.9807L64.7234 34.9807L50 50L35.2767 34.9807L47.2286 34.9807L47.2286 20.2533Z" /></path></g></g></svg>
