<svg width="100%" height="100%" viewBox="0 0 100 100" version="1.1" xml:space="preserve" xmlns="http://www.w3.org/2000/svg" xmlns:xlink="http://www.w3.org/1999/xlink">
 <defs>
<linearGradient gradientTransform="matrix(-0.946749 76.6602 -76.6602 -0.946749 78.0828 41.8459)" gradientUnits="userSpaceOnUse" id="LG" x1="0" x2="1" y1="0" y2="0"><stop offset="0" stop-color="#108390"/><stop offset="0.256" stop-color="#85ffe0"/><stop offset="1" stop-color="#0fb779"/></linearGradient>
 <linearGradient gradientTransform="matrix(-67.5526 -67.5526 67.5526 -67.5526 79.5441 78.9273)" gradientUnits="userSpaceOnUse" id="LG2" x1="0" x2="1" y1="0" y2="0"><stop offset="0" stop-color="#216f8d" stop-opacity="0.56078"/><stop offset="0.992105" stop-color="#dcf0ff" stop-opacity="0.332627"/></linearGradient>
 <linearGradient gradientTransform="matrix(66.6128 42.4944 -42.4944 66.6128 5.92842 18.1468)" gradientUnits="userSpaceOnUse" id="LG3" x1="0" x2="1" y1="0" y2="0"><stop offset="0" stop-color="#41788d" stop-opacity="0.455471"/><stop offset="0.989474" stop-color="#cbcbff" stop-opacity="0.260468"/></linearGradient>
 </defs>
 <g id="search magnifying glass">
 <g id="blur" style="opacity:1;fill:#0fb7b7;">
<path fill-rule="nonzero" opacity="0.1" stroke="none" d="M52.5275 77.568C58.3078 75.73 63.5108 72.6043 67.796 68.5238C72.0813 64.4433 75.4488 59.4081 77.5556 53.7511L75.9989 52.1944C72.6339 48.8294 68.213 47.1469 63.7895 47.1469C59.3661 47.1469 54.9452 48.8294 51.5777 52.1969C48.2102 55.5644 46.5276 59.9854 46.5276 64.4088C46.5276 68.8322 48.2102 73.2531 51.5777 76.6206L52.5275 77.568Z"/>
	<path fill-rule="nonzero" opacity="0.2" stroke="none" d="M53.3219 53.9386C50.4354 56.8251 48.9922 60.6145 48.9922 64.4063C48.9922 68.1981 50.4354 71.9875 53.3219 74.874L54.8958 76.4479C59.7535 74.7309 64.1448 72.0023 67.8084 68.5139C71.4719 65.0255 74.4052 60.7797 76.3468 56.0307L74.2547 53.9386C71.3683 51.0547 67.5789 49.6114 63.7895 49.6114C60.0002 49.6114 56.2083 51.0522 53.3219 53.9386Z"/>
	<path fill-rule="nonzero" opacity="0.3" stroke="none" d="M55.0661 55.6828C52.6607 58.0882 51.4568 61.246 51.4568 64.4063C51.4568 67.5666 52.6607 70.7219 55.0661 73.1298L57.2642 75.3279C61.1991 73.7317 64.7788 71.3979 67.8207 68.5041C70.8626 65.6102 73.3617 62.1539 75.1379 58.3127L72.5105 55.6853C70.1052 53.2799 66.9474 52.0785 63.7895 52.0785C60.6317 52.0785 57.4739 53.2775 55.0661 55.6828Z"/>
	<path fill-rule="nonzero" opacity="0.4" stroke="none" d="M56.8103 57.427C54.8835 59.3538 53.9214 61.8776 53.9214 64.4038C53.9214 66.9301 54.8835 69.4563 56.8103 71.3806L59.6326 74.2054C62.6448 72.7301 65.4129 70.791 67.833 68.4893C70.2532 66.1875 72.3181 63.5206 73.9291 60.5873L70.7663 57.4246C68.842 55.5003 66.3158 54.5381 63.7895 54.5381C61.2633 54.5381 58.737 55.5027 56.8103 57.427Z"/>
	<path fill-rule="nonzero" opacity="0.5" stroke="none" d="M62.0034 73.0878C64.093 71.731 66.0494 70.1915 67.8454 68.4819C69.6414 66.7722 71.277 64.8972 72.7202 62.8718L69.0221 59.1737C67.5765 57.728 65.6818 57.0052 63.7895 57.0052C61.8973 57.0052 60.0002 57.728 58.5569 59.1737L58.5569 59.1737C57.1113 60.6194 56.3884 62.5141 56.3884 64.4063C56.3884 66.2985 57.1113 68.1957 58.5569 69.6389L62.0034 73.0878Z"/>
 </g>
<path fill="url(#LG)" fill-rule="nonzero" opacity="1" stroke="none" d="M96.7147 97.3315L96.7147 97.3315C93.8233 100.223 89.1384 100.223 86.247 97.3315L58.5545 69.6389C55.6631 66.7475 55.6631 62.0626 58.5545 59.1712L58.5545 59.1712C61.4458 56.2799 66.1308 56.2799 69.0221 59.1712L96.7147 86.8638C99.6061 89.7552 99.6061 94.4401 96.7147 97.3315Z"/>
 <g id="handle-fade" style="opacity:1;fill:#0fb7b1;">
<path fill-rule="nonzero" opacity="0.1" stroke="none" d="M69.0221 59.1712C66.1308 56.2799 61.4458 56.2799 58.5545 59.1712L58.5545 59.1712C55.6631 62.0626 55.6631 66.7475 58.5545 69.6389L67.3322 78.4166C71.4078 75.5721 74.985 72.0887 77.9775 68.1266L69.0221 59.1712Z"/>
	<path fill-rule="nonzero" opacity="0.15" stroke="none" d="M69.0221 59.1712C66.1308 56.2799 61.4458 56.2799 58.5545 59.1712L58.5545 59.1712C55.6631 62.0626 55.6631 66.7475 58.5545 69.6389L66.2665 77.3509C70.3617 74.5335 73.9513 71.0501 76.9216 67.0732L69.0221 59.1712Z"/>
	<path fill-rule="nonzero" opacity="0.2" stroke="none" d="M69.0221 59.1712C66.1308 56.2799 61.4458 56.2799 58.5545 59.1712L58.5545 59.1712C55.6631 62.0626 55.6631 66.7475 58.5545 69.6389L65.2032 76.2876C69.3207 73.4974 72.9176 70.0164 75.8682 66.0197L69.0221 59.1712Z"/>
	<path fill-rule="nonzero" opacity="0.25" stroke="none" d="M69.0221 59.1712C66.1308 56.2799 61.4458 56.2799 58.5545 59.1712L58.5545 59.1712C55.6631 62.0626 55.6631 66.7475 58.5545 69.6389L64.1399 75.2243C68.2796 72.4612 71.8839 68.9802 74.8148 64.9663L69.0221 59.1712Z"/>
	<path fill-rule="nonzero" opacity="0.3" stroke="none" d="M69.0221 59.1712C66.1308 56.2799 61.4458 56.2799 58.5545 59.1712L58.5545 59.1712C55.6631 62.0626 55.6631 66.7475 58.5545 69.6389L63.0766 74.161C67.236 71.425 70.8527 67.944 73.7638 63.9129L69.0221 59.1712Z"/>
	<path fill-rule="nonzero" opacity="0.35" stroke="none" d="M69.0221 59.1712C66.1308 56.2799 61.4458 56.2799 58.5545 59.1712L58.5545 59.1712C55.6631 62.0626 55.6631 66.7475 58.5545 69.6389L62.0108 73.0952C66.1924 70.3839 69.8165 66.9079 72.7079 62.8595L69.0221 59.1712Z"/>
 </g>
 <g id="handle-fade 1" style="opacity:1;fill:#30d2d2;">
<path fill-rule="nonzero" opacity="0.1" stroke="none" d="M86.247 97.3315C89.1384 100.223 93.8233 100.223 96.7147 97.3315L96.7147 97.3315C99.6061 94.4401 99.6061 89.7552 96.7147 86.8638L87.937 78.0861C83.8614 80.9306 80.2842 84.414 77.2917 88.3761L86.247 97.3315Z"/>
	<path fill-rule="nonzero" opacity="0.15" stroke="none" d="M86.247 97.3315C89.1384 100.223 93.8233 100.223 96.7147 97.3315L96.7147 97.3315C99.6061 94.4401 99.6061 89.7552 96.7147 86.8638L89.0027 79.1518C84.9074 81.9692 81.3179 85.4527 78.3476 89.4295L86.247 97.3315Z"/>
	<path fill-rule="nonzero" opacity="0.2" stroke="none" d="M86.247 97.3315C89.1384 100.223 93.8233 100.223 96.7147 97.3315L96.7147 97.3315C99.6061 94.4401 99.6061 89.7552 96.7147 86.8638L90.066 80.2151C85.9485 83.0053 82.3516 86.4863 79.401 90.483L86.247 97.3315Z"/>
	<path fill-rule="nonzero" opacity="0.25" stroke="none" d="M86.247 97.3315C89.1384 100.223 93.8233 100.223 96.7147 97.3315L96.7147 97.3315C99.6061 94.4401 99.6061 89.7552 96.7147 86.8638L91.1293 81.2784C86.9896 84.0415 83.3853 87.5225 80.4544 91.5364L86.247 97.3315Z"/>
	<path fill-rule="nonzero" opacity="0.3" stroke="none" d="M86.247 97.3315C89.1384 100.223 93.8233 100.223 96.7147 97.3315L96.7147 97.3315C99.6061 94.4401 99.6061 89.7552 96.7147 86.8638L92.1926 82.3417C88.0332 85.0777 84.4165 88.5587 81.5054 92.5898L86.247 97.3315Z"/>
	<path fill-rule="nonzero" opacity="0.35" stroke="none" d="M86.247 97.3315C89.1384 100.223 93.8233 100.223 96.7147 97.3315L96.7147 97.3315C99.6061 94.4401 99.6061 89.7552 96.7147 86.8638L93.2584 83.4075C89.0767 86.1188 85.4527 89.5948 82.5613 93.6432L86.247 97.3315Z"/>
 </g>
 <g id="lens">
<path id="ZXCVcircle" fill="url(#LG2)" fill-rule="nonzero" opacity="1" stroke="none" blendMode="overlay" d="M1.11676 39.9727C1.11676 18.1725 18.7893 0.5 40.5895 0.5C62.3896 0.5 80.0622 18.1725 80.0622 39.9727C80.0622 61.7729 62.3896 79.4454 40.5895 79.4454C18.7893 79.4454 1.11676 61.7729 1.11676 39.9727Z"/>
	<path fill="url(#LG3)" fill-rule="nonzero" opacity="1" stroke="none" d="M29.9085 3.25551C50.1551-2.63417 71.417 9.04519 77.3067 29.2918C83.1963 49.5383 71.517 70.8002 51.2704 76.6899C31.0238 82.5796 9.76195 70.9002 3.87227 50.6536C-2.01741 30.4071 9.66195 9.14519 29.9085 3.25551M29.564 2.07108C8.63044 8.1606-3.40167 30.0647 2.68784 50.9982C8.77736 71.9317 30.6814 83.9638 51.6149 77.8743C72.5485 71.7848 84.5806 49.8807 78.4911 28.9472C72.4016 8.01367 50.4975-4.01843 29.564 2.07108Z"/>
 </g>
 </g>
</svg>