<svg width="100%" height="100%" viewBox="0 0 100 100" version="1.1" xml:space="preserve" xmlns="http://www.w3.org/2000/svg" xmlns:xlink="http://www.w3.org/1999/xlink">
 <defs>
<linearGradient gradientTransform="matrix(-67.549 -67.549 67.549 -67.549 79.5451 78.9283)" gradientUnits="userSpaceOnUse" id="LG" x1="0" x2="1" y1="0" y2="0"><stop offset="0" stop-color="#8d3a21" stop-opacity="0.56078"/><stop offset="1" stop-color="#ffe2dc" stop-opacity="0.332627"/></linearGradient>
 <linearGradient gradientTransform="matrix(47.6151 57.5266 -57.5266 47.6151 19.3777 10.1431)" gradientUnits="userSpaceOnUse" id="LG2" x1="0" x2="1" y1="0" y2="0"><stop offset="0" stop-color="#8d5241" stop-opacity="0.455471"/><stop offset="0.984211" stop-color="#fff5cb" stop-opacity="0.260468"/></linearGradient>
 </defs>
 <g opacity="1" id="search.magnifying.glass">
 <g style="opacity:1;fill:#b7980f;" id="blur">
<path fill-rule="nonzero" opacity="0.1" stroke="none" d="M52.53 77.569C58.31 75.7311 63.5127 72.6056 67.7976 68.5253C72.0827 64.445 75.45 59.4101 77.5567 53.7534L76.0001 52.1968C72.6353 48.832 68.2146 47.1496 63.7914 47.1496C59.3682 47.1496 54.9475 48.832 51.5802 52.1993C48.2129 55.5666 46.5304 59.9874 46.5304 64.4105C46.5304 68.8337 48.2129 73.2544 51.5802 76.6217L52.53 77.569Z"/>
	<path fill-rule="nonzero" opacity="0.2" stroke="none" d="M53.3243 53.9409C50.438 56.8273 48.9948 60.6165 48.9948 64.408C48.9948 68.1996 50.438 71.9888 53.3243 74.8752L54.8981 76.449C59.7556 74.7321 64.1466 72.0036 67.81 68.5154C71.4733 65.0272 74.4065 60.7816 76.348 56.0329L74.256 53.9409C71.3698 51.0572 67.5806 49.6139 63.7914 49.6139C60.0023 49.6139 56.2106 51.0547 53.3243 53.9409Z"/>
	<path fill-rule="nonzero" opacity="0.3" stroke="none" d="M55.0684 55.685C52.6632 58.0903 51.4593 61.2479 51.4593 64.408C51.4593 67.5682 52.6632 70.7233 55.0684 73.1311L57.2664 75.3291C61.2011 73.733 64.7806 71.3993 67.8223 68.5056C70.8641 65.6119 73.363 62.1558 75.1392 58.3148L72.5119 55.6875C70.1067 53.2822 66.9491 52.0809 63.7914 52.0809C60.6337 52.0809 57.4761 53.2798 55.0684 55.685Z"/>
	<path fill-rule="nonzero" opacity="0.4" stroke="none" d="M56.8125 57.4291C54.8858 59.3558 53.9238 61.8795 53.9238 64.4055C53.9238 66.9317 54.8858 69.4578 56.8125 71.382L59.6347 74.2066C62.6467 72.7314 65.4147 70.7924 67.8346 68.4908C70.2547 66.1892 72.3195 63.5224 73.9304 60.5893L70.7678 57.4267C68.8436 55.5025 66.3175 54.5404 63.7914 54.5404C61.2653 54.5404 58.7391 55.5049 56.8125 57.4291Z"/>
	<path fill-rule="nonzero" opacity="0.5" stroke="none" d="M62.0054 73.0891C64.0948 71.7324 66.0511 70.1929 67.847 68.4834C69.6429 66.7738 71.2785 64.8989 72.7216 62.8736L69.0237 59.1757C67.5782 57.7301 65.6836 57.0073 63.7914 57.0073C61.8993 57.0073 60.0023 57.7301 58.559 59.1757L58.559 59.1757C57.1135 60.6214 56.3907 62.516 56.3907 64.408C56.3907 66.3001 57.1135 68.1972 58.559 69.6404L62.0054 73.0891Z"/>
 </g>
<path fill="#ecd046" fill-rule="nonzero" opacity="1" stroke="none" d="M96.7148 97.3315L96.7148 97.3315C93.8236 100.223 89.1389 100.223 86.2477 97.3315L58.5566 69.6404C55.6654 66.7491 55.6654 62.0645 58.5566 59.1732L58.5566 59.1732C61.4478 56.2821 66.1325 56.2821 69.0237 59.1732L96.7148 86.8644C99.606 89.7556 99.606 94.4402 96.7148 97.3315Z"/>
 <g style="opacity:1;fill:#b79e0f;" id="handle-fade">
<path fill-rule="nonzero" opacity="0.1" stroke="none" d="M69.0237 59.1732C66.1325 56.2821 61.4478 56.2821 58.5566 59.1732L58.5566 59.1732C55.66543 62.0645 55.6654 66.7491 58.5566 69.6404L67.3339 78.4176C71.4093 75.5733 74.9863 72.09 77.9786 68.1282L69.0237 59.1732Z"/>
	<path fill-rule="nonzero" opacity="0.15" stroke="none" d="M69.0237 59.1732C66.1325 56.2821 61.4478 56.2821 58.5566 59.1732L58.5566 59.1732C55.6654 62.0645 55.6654 66.7491 58.5566 69.6404L66.2682 77.352C70.3632 74.5347 73.9526 71.0515 76.9228 67.0748L69.0237 59.1732Z"/>
	<path fill-rule="nonzero" opacity="0.2" stroke="none" d="M69.0237 59.1732C66.1325 56.2821 61.4478 56.2821 58.5566 59.1732L58.5566 59.1732C55.6654 62.0645 55.6654 66.7491 58.5566 69.6404L65.205 76.2887C69.3223 73.4987 72.919 70.0178 75.8694 66.0214L69.0237 59.1732Z"/>
	<path fill-rule="nonzero" opacity="0.25" stroke="none" d="M69.0237 59.1732C66.1325 56.2821 61.4478 56.2821 58.5566 59.1732L58.5566 59.1732C55.6654 62.0645 55.6654 66.7491 58.5566 69.6404L64.1417 75.2255C68.2812 72.4625 71.8853 68.9817 74.8161 64.968L69.0237 59.1732Z"/>
	<path fill-rule="nonzero" opacity="0.3" stroke="none" d="M69.0237 59.1732C66.1325 56.2821 61.4478 56.2821 58.5566 59.1732L58.5566 59.1732C55.6654 62.0645 55.6654 66.7491 58.5566 69.6404L63.0785 74.1622C67.2377 71.4264 70.8542 67.9456 73.7651 63.9147L69.0237 59.1732Z"/>
	<path fill-rule="nonzero" opacity="0.35" stroke="none" d="M69.0237 59.1732C66.1325 56.2821 61.4478 56.2821 58.5566 59.1732L58.5566 59.1732C55.6654 62.0645 55.6654 66.7491 58.5566 69.6404L62.0128 73.0965C66.1941 70.3853 69.818 66.9095 72.7093 62.8613L69.0237 59.1732Z"/>
 </g>
 <g style="opacity:1;fill:#d2b730;" id="handle-fade 1">
<path fill-rule="nonzero" opacity="0.1" stroke="none" d="M86.2477 97.3315C89.1389 100.223 93.8236 100.223 96.7148 97.3315L96.7148 97.3315C99.606 94.4402 99.606 89.7556 96.7148 86.8644L87.9376 78.0871C83.8622 80.9315 80.2852 84.4147 77.2928 88.3766L86.2477 97.3315Z"/>
	<path fill-rule="nonzero" opacity="0.15" stroke="none" d="M86.2477 97.3315C89.1389 100.223 93.8236 100.223 96.7148 97.3315L96.7148 97.3315C99.606 94.4402 99.606 89.7556 96.7148 86.8644L89.0032 79.1528C84.9081 81.97 81.3188 85.4533 78.3487 89.4299L86.2477 97.3315Z"/>
	<path fill-rule="nonzero" opacity="0.2" stroke="none" d="M86.2477 97.3315C89.1389 100.223 93.8236 100.223 96.7148 97.3315L96.7148 97.3315C99.606 94.4402 99.606 89.7556 96.7148 86.8644L90.0665 80.216C85.9492 83.0061 82.3525 86.4869 79.402 90.4834L86.2477 97.3315Z"/>
	<path fill-rule="nonzero" opacity="0.25" stroke="none" d="M86.2477 97.3315C89.1389 100.223 93.8236 100.223 96.7148 97.3315L96.7148 97.3315C99.606 94.4402 99.606 89.7556 96.7148 86.8644L91.1297 81.2792C86.9902 84.0422 83.3861 87.523 80.4554 91.5367L86.2477 97.3315Z"/>
	<path fill-rule="nonzero" opacity="0.3" stroke="none" d="M86.2477 97.3315C89.1389 100.223 93.8236 100.223 96.7148 97.3315L96.7148 97.3315C99.606 94.4402 99.606 89.7556 96.7148 86.8644L92.1929 82.3425C88.0338 85.0783 84.4173 88.5592 81.5063 92.59L86.2477 97.3315Z"/>
	<path fill-rule="nonzero" opacity="0.35" stroke="none" d="M86.2477 97.3315C89.1389 100.223 93.8236 100.223 96.7148 97.3315L96.7148 97.3315C99.606 94.4402 99.606 89.7556 96.7148 86.8644L93.2587 83.4082C89.0772 86.1194 85.4534 89.5952 82.5622 93.6434L86.2477 97.3315Z"/>
 </g>
 <g opacity="1" id="lens">
<path id="ZXCVcircle" fill="url(#LG)" fill-rule="nonzero" opacity="1" stroke="none" blendMode="overlay" d="M1.12197 39.9758C1.12197 18.1767 18.7936 0.505164 40.5926 0.505164C62.3915 0.505164 80.0632 18.1767 80.0632 39.9758C80.0632 61.7748 62.3915 79.4463 40.5926 79.4463C18.7936 79.4463 1.12197 61.7748 1.12197 39.9758Z"/>
	<path fill="url(#LG2)" fill-rule="nonzero" opacity="1" stroke="none" d="M19.8104 7.87933C37.5089-3.58031 61.2292 1.49498 72.6889 19.1936C84.1487 36.8922 79.0733 60.6125 61.3748 72.0722C43.6762 83.5319 19.9559 78.4565 8.49614 60.758C-2.96356 43.0594 2.11177 19.3391 19.8104 7.87933M19.1399 6.84397C0.840862 18.6926-4.38776 43.1292 7.46077 61.4283C19.3093 79.7274 43.7461 84.9561 62.0452 73.1075C80.3443 61.259 85.5729 36.8223 73.7243 18.5232C61.8758 0.224096 37.439-5.00451 19.1399 6.84397Z"/>
 </g>
 </g>
</svg>