<svg xmlns="http://www.w3.org/2000/svg" xmlns:xlink="http://www.w3.org/1999/xlink" width="100%" height="100%" version="1.1" viewBox="0 0 100 100" xml:space="preserve"><defs><linearGradient id="LinearGradient_zxcv" x1="52.822" x2="52.822" y1="41.958" y2="112.413" gradientTransform="matrix(1 0 0 1 0 0)" gradientUnits="userSpaceOnUse"><stop offset="0" stop-color="#00ff90"/><stop offset=".737" stop-color="#02fffd"/></linearGradient><filter id="Filter_zxcv" width="103.033" height="103.033" x="-1.517" y="-.579" color-interpolation-filters="sRGB" filterUnits="userSpaceOnUse"><feDropShadow dx="0" dy=".938" flood-color="#000" flood-opacity=".45" in="SourceGraphic" result="Shadow" stdDeviation="1.407"/></filter><linearGradient id="LinearGradient_zxcv_2" x1="0" x2="100" y1="22.833" y2="22.833" gradientTransform="matrix(1 0 0 1 0 0)" gradientUnits="userSpaceOnUse"><stop offset="0" stop-color="#ff00fd"/><stop offset=".357" stop-color="#cc00cb"/><stop offset=".714" stop-color="#bf00be"/><stop offset="1" stop-color="#af00ae"/></linearGradient><filter id="Filter_zxcv_2" width="107.033" height="48.7" x="-3.517" y="-.579" color-interpolation-filters="sRGB" filterUnits="userSpaceOnUse"><feDropShadow dx="0" dy=".938" flood-color="#000" flood-opacity=".45" in="SourceGraphic" result="Shadow" stdDeviation="1.407"/></filter></defs><g opacity="1"><path fill="url(#LinearGradient_zxcv)" d="M2 2L2 98L98 98L98 2L2 2ZM12.6562 12.6562L87.3438 12.6562L87.3438 31.3438L12.6562 31.3438L12.6562 12.6562ZM12.6562 42L44.6562 42L44.6562 58L12.6562 58L12.6562 42ZM55.3438 42L87.3438 42L87.3438 58L55.3438 58L55.3438 42ZM12.6562 68.6562L44.6562 68.6562L44.6562 87.3438L12.6562 87.3438L12.6562 68.6562ZM55.3438 68.6562L87.3438 68.6562L87.3438 87.3438L55.3438 87.3438L55.3438 68.6562Z" filter="url(#Filter_zxcv)"/><path fill="url(#LinearGradient_zxcv_2)" d="M86 14L86 31L13 31L13 14L86 14M100 2L0 2L0 43.6667L100 43.6667L100 2L100 2Z" filter="url(#Filter_zxcv_2)"/></g></svg>