<svg height="100%" stroke-miterlimit="10" style="fill-rule:nonzero;clip-rule:evenodd;stroke-linecap:round;stroke-linejoin:round;" version="1.1" viewBox="-1.2331 0.650473 101.062 100.593" width="100%" xml:space="preserve" xmlns="http://www.w3.org/2000/svg" xmlns:vectornator="http://vectornator.io" xmlns:xlink="http://www.w3.org/1999/xlink">
<defs>
<linearGradient gradientTransform="matrix(0.938783 0 0 0.938783 3.99962 3.99962)" gradientUnits="userSpaceOnUse" id="LinearGradient" x1="47.9512" x2="2.68017" y1="49.6826" y2="48.4374">
<stop offset="0" stop-color="#ffffff"/>
<stop offset="0.295377" stop-color="#ffffff"/>
<stop offset="1" stop-color="#7c808a"/>
</linearGradient>
<filter color-interpolation-filters="sRGB" filterUnits="userSpaceOnUse" height="100.123" id="Filter" width="100.123" x="-0.763705" y="0.650473">
<feDropShadow dx="-0.702113" dy="0.712066" flood-color="#000000" flood-opacity="0.65" in="SourceGraphic" result="Shadow" stdDeviation="2"/>
</filter>
<linearGradient gradientTransform="matrix(0.938783 0 0 0.938783 3.99962 3.99962)" gradientUnits="userSpaceOnUse" id="LinearGradient_2" x1="87.869" x2="-36.0636" y1="14.6058" y2="10.5897">
<stop offset="0.23553" stop-color="#b007a0"/>
<stop offset="0.909762" stop-color="#2f003b"/>
<stop offset="1" stop-color="#29002e"/>
</linearGradient>
<filter color-interpolation-filters="sRGB" filterUnits="userSpaceOnUse" height="40.9798" id="Filter_2" width="100.123" x="-0.763705" y="0.650473">
<feDropShadow dx="-0.702113" dy="0.712066" flood-color="#000000" flood-opacity="0.65" in="SourceGraphic" result="Shadow" stdDeviation="2"/>
</filter>
<filter color-interpolation-filters="sRGB" filterUnits="userSpaceOnUse" height="86.2761" id="Filter_3" width="101.062" x="-1.2331" y="14.9669">
<feDropShadow dx="-0.702113" dy="0.712066" flood-color="#000000" flood-opacity="0.65" in="SourceGraphic" result="Shadow" stdDeviation="2"/>
</filter>
<filter color-interpolation-filters="sRGB" filterUnits="userSpaceOnUse" height="48.2554" id="Filter_4" width="101.062" x="-1.2331" y="33.9773">
<feDropShadow dx="-0.702113" dy="0.712066" flood-color="#000000" flood-opacity="0.65" in="SourceGraphic" result="Shadow" stdDeviation="2"/>
</filter>
<filter color-interpolation-filters="sRGB" filterUnits="userSpaceOnUse" height="40.9798" id="Filter_5" width="100.123" x="-0.763705" y="0.650473">
<feDropShadow dx="-0.702113" dy="0.712066" flood-color="#000000" flood-opacity="0.65" in="SourceGraphic" result="Shadow" stdDeviation="2"/>
</filter>
</defs>
<clipPath id="ArtboardFrame">
<rect height="100.593" width="101.062" x="-1.2331" y="0.650473"/>
</clipPath>
<g clip-path="url(#ArtboardFrame)" id="Layer" layerName="Layer">
<path d="M92.2452 19.7242L92.2452 79.5717C92.2452 86.5717 73.332 92.2452 50 92.2452C26.668 92.2452 7.75476 86.5717 7.75476 79.5717L7.75476 20.663M7.75476 20.4283C7.75476 13.4289 26.6686 7.75476 50 7.75476C73.3314 7.75476 92.2452 13.4289 92.2452 20.4283" fill="url(#LinearGradient)" fill-rule="nonzero" filter="url(#Filter)" stroke="#040087" stroke-linecap="round" stroke-linejoin="round" stroke-width="5.6327" layerName="Curve 2" shadowAngle="2.34916" shadowColor="#000000" shadowOffset="1" shadowOpacity="0.65" shadowRadius="4"/>
<path d="M7.75476 20.4283C7.75476 13.4289 26.6686 7.75476 50 7.75476C73.3314 7.75476 92.2452 13.4289 92.2452 20.4283C92.2452 27.4278 73.3314 33.1019 50 33.1019C26.6686 33.1019 7.75476 27.4278 7.75476 20.4283Z" fill="url(#LinearGradient_2)" fill-rule="nonzero" filter="url(#Filter_2)" stroke="#040087" stroke-linecap="round" stroke-linejoin="round" stroke-width="5.6327" layerName="ellipse" shadowAngle="2.34916" shadowColor="#000000" shadowOffset="1" shadowOpacity="0.65" shadowRadius="4"/>
<path d="M92.2452 22.5406L92.2452 79.5717C92.2452 86.5717 73.332 92.2452 50 92.2452C26.668 92.2452 7.75476 86.5717 7.75476 79.5717L7.75476 22.5406" fill="none" filter="url(#Filter_3)" stroke="#040087" stroke-linecap="round" stroke-linejoin="round" stroke-width="6.57148" layerName="path" shadowAngle="2.34916" shadowColor="#000000" shadowOffset="1" shadowOpacity="0.65" shadowRadius="4"/>
<path d="M92.2452 60.5613C92.2452 67.5613 73.332 73.2349 50 73.2349C26.668 73.2349 7.75476 67.5613 7.75476 60.5613M92.2452 41.551C92.2452 48.551 73.332 54.2245 50 54.2245C26.668 54.2245 7.75476 48.551 7.75476 41.551" fill="none" filter="url(#Filter_4)" stroke="#040087" stroke-linecap="round" stroke-linejoin="round" stroke-width="6.57148" layerName="path" shadowAngle="2.34916" shadowColor="#000000" shadowOffset="1" shadowOpacity="0.65" shadowRadius="4"/>
<path d="M7.75476 20.4283C7.75476 13.4289 26.6686 7.75476 50 7.75476C73.3314 7.75476 92.2452 13.4289 92.2452 20.4283C92.2452 27.4278 73.3314 33.1019 50 33.1019C26.6686 33.1019 7.75476 27.4278 7.75476 20.4283Z" fill="none" filter="url(#Filter_5)" stroke="#040087" stroke-linecap="round" stroke-linejoin="round" stroke-width="5.6327" layerName="ellipse" shadowAngle="2.34916" shadowColor="#000000" shadowOffset="1" shadowOpacity="0.65" shadowRadius="4"/>
</g>
</svg>
