<svg xmlns="http://www.w3.org/2000/svg" xmlns:vectornator="http://vectornator.io" xmlns:xlink="http://www.w3.org/1999/xlink" height="100%" stroke-miterlimit="10" style="fill-rule:nonzero;clip-rule:evenodd;stroke-linecap:round;stroke-linejoin:round" width="100%" version="1.1" viewBox="-0.353 6.472 102.185 88.961" xml:space="preserve"><defs><radialGradient id="RadialGradient" cx="39.278" cy="50" r="72.61" gradientTransform="matrix(1.02749 0 0 1.02749 -0.0225864 -1.29023)" gradientUnits="userSpaceOnUse"><stop offset="0" stop-color="#fff"/><stop offset="1" stop-color="#c3c3c3"/><stop offset="1" stop-color="#979797"/></radialGradient><filter id="Filter" width="80.161" height="88.961" x="-.353" y="6.472" color-interpolation-filters="sRGB" filterUnits="userSpaceOnUse"><feDropShadow dx="-.608" dy=".869" flood-color="#000" flood-opacity=".55" in="SourceGraphic" result="Shadow" stdDeviation="1.495"/></filter><linearGradient id="LinearGradient" x1="7.131" x2="71.434" y1="24.279" y2="24.279" gradientTransform="matrix(1.02749 0 0 1.02749 -0.0225864 -1.29023)" gradientUnits="userSpaceOnUse"><stop offset="0" stop-color="#07eff8"/><stop offset="1" stop-color="#c5ff76"/></linearGradient><filter id="Filter_2" width="80.151" height="88.961" x="-.344" y="6.472" color-interpolation-filters="sRGB" filterUnits="userSpaceOnUse"><feDropShadow dx="-.608" dy=".869" flood-color="#000" flood-opacity=".55" in="SourceGraphic" result="Shadow" stdDeviation="1.495"/></filter><linearGradient id="LinearGradient_2" x1="41.111" x2="95.293" y1="84.104" y2="69.841" gradientTransform="matrix(1.02749 0 0 1.02749 -0.0225864 -1.29023)" gradientUnits="userSpaceOnUse"><stop offset="0" stop-color="#07eff8"/><stop offset="1" stop-color="#c5ff76"/></linearGradient><filter id="Filter_3" width="39.719" height="26.417" x="52.97" y="53.201" color-interpolation-filters="sRGB" filterUnits="userSpaceOnUse"><feDropShadow dx="-.546" dy=".909" flood-color="#000" flood-opacity=".55" in="SourceGraphic" result="Shadow" stdDeviation="1.495"/></filter><filter id="Filter_4" width="58.128" height="58.128" x="43.703" y="37.305" color-interpolation-filters="sRGB" filterUnits="userSpaceOnUse"><feDropShadow dx="-.608" dy=".869" flood-color="#000" flood-opacity=".55" in="SourceGraphic" result="Shadow" stdDeviation="1.495"/></filter></defs><clipPath id="ArtboardFrame"><rect width="102.185" height="88.961" x="-.353" y="6.472"/></clipPath><g id="Layer" clip-path="url(#ArtboardFrame)" layerName="Layer"><g layerName="Group 9" opacity="1"><path fill="url(#RadialGradient)" fill-rule="nonzero" stroke="#863bcc" stroke-linecap="round" stroke-linejoin="round" stroke-width="6.607" d="M73.3754 23.6557L73.3754 43.477C67.1203 43.4698 61.1586 46.1294 56.9854 50.7889C53.3512 54.8264 51.3438 60.0684 51.3518 65.5007C51.3544 73.4367 55.6224 80.7589 62.5266 84.6722C56.6639 86.4451 48.8807 87.5243 40.3399 87.5243C22.0956 87.5243 7.30448 82.5932 7.30448 76.5125L7.30448 23.6557M7.29502 23.7958C7.29502 17.7151 22.0956 12.6439 40.3399 12.6439C58.5843 12.6439 73.3754 17.575 73.3754 23.6557" filter="url(#Filter)" layerName="Curve 1" shadowAngle="2.182" shadowColor="#000000" shadowOffset="1.06" shadowOpacity=".55" shadowRadius="2.989"/><path fill="url(#LinearGradient)" fill-rule="nonzero" stroke="#863bcc" stroke-linecap="round" stroke-linejoin="round" stroke-width="6.607" d="M73.3754 23.6557C73.3754 29.7365 58.5843 34.6676 40.3399 34.6676C22.0956 34.6676 7.30448 29.7365 7.30448 23.6557C7.30448 17.575 22.0956 12.6439 40.3399 12.6439C58.5843 12.6439 73.3754 17.575 73.3754 23.6557Z" layerName="path" opacity="1"/><path fill="none" stroke="#863bcc" stroke-linecap="round" stroke-linejoin="round" stroke-width="6.607" d="M73.3754 23.6557L73.3754 43.477C67.1203 43.4698 61.1586 46.1294 56.9854 50.7889C53.3512 54.8264 51.3438 60.0684 51.3518 65.5007C51.3544 73.4367 55.6224 80.7589 62.5266 84.6722C56.6639 86.4451 48.8807 87.5243 40.3399 87.5243C22.0956 87.5243 7.30448 82.5932 7.30448 76.5125L7.30448 23.6557M7.30448 58.8936C7.30448 64.9743 22.0956 69.9054 40.3399 69.9054C44.3196 69.9054 48.1363 69.6719 51.6689 69.2403M7.30448 41.2747C7.30448 47.3554 22.0956 52.2865 40.3399 52.2865C46.4097 52.2865 52.0984 51.7403 56.9854 50.7889M73.3754 23.6557C73.3754 29.7365 58.5843 34.6676 40.3399 34.6676C22.0956 34.6676 7.30448 29.7365 7.30448 23.6557C7.30448 17.575 22.0956 12.6439 40.3399 12.6439C58.5843 12.6439 73.3754 17.575 73.3754 23.6557Z" filter="url(#Filter_2)" layerName="Curve 1" shadowAngle="2.182" shadowColor="#000000" shadowOffset="1.06" shadowOpacity=".55" shadowRadius="2.989"/><path fill="url(#LinearGradient_2)" fill-rule="nonzero" stroke="#863bcc" stroke-linecap="round" stroke-linejoin="round" stroke-width="6.607" d="M95.399 65.5007C95.399 77.6643 85.5391 87.5243 73.3754 87.5243C69.4332 87.5243 65.7288 86.4892 62.5266 84.6722C55.6224 80.7589 51.3544 73.4367 51.3518 65.5007C51.3518 59.845 53.4836 54.6871 56.9854 50.7889C61.1586 46.1294 67.1203 43.4698 73.3754 43.477C85.5391 43.477 95.399 53.337 95.399 65.5007Z" layerName="path" opacity="1"/><path fill="none" stroke="#fc0d1b" stroke-linecap="round" stroke-linejoin="round" stroke-width="6.651" d="M80.0263 59.3542L86.1728 65.5007L80.0263 71.6471M66.7244 71.6471L60.578 65.5007L66.7244 59.3542" filter="url(#Filter_3)" layerName="path" shadowAngle="2.112" shadowColor="#000000" shadowOffset="1.06" shadowOpacity=".55" shadowRadius="2.989"/><path fill="none" stroke="#863bcc" stroke-linecap="round" stroke-linejoin="round" stroke-width="6.607" d="M95.399 65.5007C95.399 77.6643 85.5391 87.5243 73.3754 87.5243C69.4332 87.5243 65.7288 86.4892 62.5266 84.6722C55.6224 80.7589 51.3544 73.4367 51.3518 65.5007C51.3518 59.845 53.4836 54.6871 56.9854 50.7889C61.1586 46.1294 67.1203 43.4698 73.3754 43.477C85.5391 43.477 95.399 53.337 95.399 65.5007Z" filter="url(#Filter_4)" layerName="path 4" shadowAngle="2.182" shadowColor="#000000" shadowOffset="1.06" shadowOpacity=".55" shadowRadius="2.989"/></g></g></svg>