<svg height="100%" stroke-miterlimit="10" style="fill-rule:nonzero;clip-rule:evenodd;stroke-linecap:round;stroke-linejoin:round;" version="1.1" viewBox="0 0 100 100" width="100%" xml:space="preserve" xmlns="http://www.w3.org/2000/svg" xmlns:vectornator="http://vectornator.io" xmlns:xlink="http://www.w3.org/1999/xlink">
<defs>
<filter color-interpolation-filters="sRGB" filterUnits="userSpaceOnUse" height="97.3432" id="Filter" width="57.4969" x="21.2515" y="1.32841">
<feDropShadow dx="-0" dy="0" flood-color="#000000" flood-opacity="0.69" in="SourceGraphic" result="Shadow" stdDeviation="0.431821"/>
</filter>
<filter color-interpolation-filters="sRGB" filterUnits="userSpaceOnUse" height="97.0549" id="Filter_2" width="57.2087" x="21.3957" y="1.47256">
<feDropShadow dx="-0" dy="0" flood-color="#000000" flood-opacity="0.69" in="SourceGraphic" result="Shadow" stdDeviation="0.431821"/>
</filter>
</defs>
<g id="Layer-4" layerName="Layer 4">
<g filter="url(#Filter)" shadowAngle="2.37142" shadowColor="#000000" shadowOffset="0" shadowOpacity="0.69" shadowRadius="0.863642">
<path d="M75.7191 50.5526C75.7191 46.4266 64.2042 43.0823 50 43.0823C35.7958 43.0823 24.2822 46.4266 24.2822 50.5526L24.2822 64.6494C24.2822 68.7753 35.7972 72.1196 50 72.1196C64.2042 72.1196 75.7178 68.7753 75.7178 64.6494L75.7191 50.5526L75.7191 50.5526Z" fill="#8f9eb6" fill-rule="nonzero" opacity="1" stroke="none" layerName="path"/>
<path d="M50 43.0823C35.7957 43.0823 24.2809 46.4269 24.2809 50.5526C24.2809 54.6783 35.7957 58.0228 50 58.0228C64.2043 58.0228 75.7191 54.6783 75.7191 50.5526C75.7191 46.4269 64.2043 43.0823 50 43.0823Z" fill="#abb7c9" fill-rule="nonzero" opacity="1" stroke="none" layerName="path"/>
<path d="M50 43.0823C35.7957 43.0823 24.2809 46.4269 24.2809 50.5526C24.2809 54.6783 35.7957 58.0228 50 58.0228C64.2043 58.0228 75.7191 54.6783 75.7191 50.5526C75.7191 46.4269 64.2043 43.0823 50 43.0823Z" fill="#ffffff" fill-rule="nonzero" opacity="1" stroke="none" layerName="path"/>
<path d="M75.7191 30.015C75.7191 25.889 64.2042 22.5447 50 22.5447C35.7958 22.5447 24.2822 25.889 24.2822 30.015L24.2822 44.1118C24.2822 48.2377 35.7972 51.582 50 51.582C64.2042 51.582 75.7178 48.2377 75.7178 44.1118L75.7191 30.015L75.7191 30.015Z" fill="#8f9eb6" fill-rule="nonzero" opacity="1" stroke="none" layerName="path"/>
<path d="M64.9336 36.0965C60.7237 36.9705 55.5683 37.4838 50 37.4838C35.7958 37.4838 24.2809 34.1395 24.2809 30.0136C24.2809 25.8876 35.7958 22.5434 50 22.5434C64.2042 22.5434 75.7191 25.8876 75.7191 30.0136C75.7191 31.5605 74.0993 32.9973 71.3262 34.1905" fill="#abb7c9" fill-rule="nonzero" opacity="1" stroke="none" layerName="path"/>
<path d="M64.9336 36.0965C60.7237 36.9705 55.5683 37.4838 50 37.4838C35.7958 37.4838 24.2809 34.1395 24.2809 30.0136C24.2809 25.8876 35.7958 22.5434 50 22.5434C64.2042 22.5434 75.7191 25.8876 75.7191 30.0136C75.7191 31.5605 74.0993 32.9973 71.3262 34.1905" fill="#ffffff" fill-rule="nonzero" opacity="1" stroke="none" layerName="path"/>
<path d="M75.7191 10.76C75.7191 6.63403 64.2042 3.28977 50 3.28977C35.7958 3.28977 24.2822 6.63403 24.2822 10.76L24.2822 24.8568C24.2822 28.9828 35.7972 32.327 50 32.327C64.2042 32.327 75.7178 28.9828 75.7178 24.8568L75.7191 10.76L75.7191 10.76Z" fill="#8f9eb6" fill-rule="nonzero" opacity="1" stroke="none" layerName="path"/>
<path d="M27.6031 14.4346C25.4892 13.3501 24.2822 12.0963 24.2822 10.76C24.2822 6.63403 35.7972 3.28977 50.0014 3.28977C64.2055 3.28977 75.7205 6.63403 75.7205 10.76C75.7205 14.886 64.2055 18.2302 50.0014 18.2302C43.083 18.2302 36.8032 17.4375 32.1805 16.1466" fill="#abb7c9" fill-rule="nonzero" opacity="1" stroke="none" layerName="path"/>
<path d="M27.6031 14.4346C25.4892 13.3501 24.2822 12.0963 24.2822 10.76C24.2822 6.63403 35.7972 3.28977 50.0014 3.28977C64.2055 3.28977 75.7205 6.63403 75.7205 10.76C75.7205 14.886 64.2055 18.2302 50.0014 18.2302C43.083 18.2302 36.8032 17.4375 32.1805 16.1466" fill="#ffffff" fill-rule="nonzero" opacity="1" stroke="none" layerName="path"/>
<path d="M76.8367 91.9457L54.0599 91.9457C53.7558 89.8442 52.1015 88.1913 50.0014 87.8872L50.0014 81.2881C50.9799 81.1739 51.8497 80.794 52.4786 80.1637C53.0938 79.5472 53.4447 78.7297 53.442 77.9259L53.442 73.7752C65.5625 73.3032 76.838 70.3346 76.838 65.0719L76.838 51.1168C76.838 49.8988 76.2022 48.8116 75.1219 47.8414C76.2187 46.8656 76.838 45.7619 76.838 44.5329L76.838 30.5765C76.838 29.6186 76.4444 28.7406 75.7604 27.9355C76.4527 27.1262 76.838 26.2413 76.838 25.2779L76.838 11.3229C76.838 5.5647 63.3371 2.55211 50.0014 2.55211C36.6656 2.55211 23.1647 5.5647 23.1647 11.3229L23.1647 25.2793C23.1647 26.2454 23.5528 27.1331 24.2478 27.9423C23.5638 28.7461 23.1647 29.62 23.1647 30.5765L23.1647 44.5329C23.1647 45.6504 23.6781 46.6633 24.5946 47.5716C23.6877 48.4208 23.1647 49.3621 23.1647 50.3998C23.1647 50.5209 23.1799 50.6406 23.1936 50.7604C23.1812 50.8787 23.1647 50.9957 23.1647 51.1168L23.1647 65.0719C23.1647 70.1351 33.6021 73.0747 45.1887 73.7105L45.2396 77.8929C45.2107 78.7558 45.5052 79.532 46.0901 80.1362C46.6943 80.7596 47.5819 81.145 48.6265 81.2757L48.6265 87.8844C46.525 88.1886 44.8721 89.8428 44.568 91.9429L23.1633 91.9429C22.7835 91.9429 22.4752 92.2512 22.4752 92.6311C22.4752 93.0109 22.7835 93.3192 23.1633 93.3192L44.5652 93.3192C44.9024 95.6478 46.8925 97.4479 49.3119 97.4479C51.7313 97.4479 53.7213 95.6478 54.0585 93.3192L76.8367 93.3192C77.2165 93.3192 77.5248 93.0109 77.5248 92.6311C77.5248 92.2512 77.2165 91.9457 76.8367 91.9457ZM25.9158 25.2793L25.9158 14.7208C26.3232 15.0016 26.7732 15.2754 27.2879 15.5397C27.6292 15.7145 28.0421 15.5796 28.2141 15.2424C28.3875 14.9039 28.2541 14.4896 27.9169 14.3162C27.0719 13.8827 26.4058 13.4258 25.9158 12.9661L25.9158 11.3256C25.9158 8.8718 35.2976 5.30734 50 5.30734C64.7024 5.30734 74.0842 8.8718 74.0842 11.3256L74.0842 12.9675C71.2436 15.614 62.1453 18.0375 50 18.0375C43.383 18.0375 37.1212 17.3068 32.3649 15.9787C32.0016 15.8741 31.619 16.0888 31.5171 16.4562C31.4153 16.8223 31.6286 17.2022 31.9947 17.304C36.8679 18.6637 43.2619 19.4138 50 19.4138C59.6034 19.4138 69.6596 17.805 74.0842 14.7635L74.0842 25.2821C74.0842 27.7359 64.7024 31.3017 50 31.3017C35.2976 31.3017 25.9158 27.7331 25.9158 25.2793ZM65.6079 36.4489C65.5295 36.0759 65.1634 35.8364 64.7946 35.9149C60.4649 36.8136 55.3481 37.2884 50 37.2884C37.8547 37.2884 28.7564 34.8648 25.9158 32.2183L25.9158 30.5765C25.9158 30.2806 26.0713 29.9668 26.3397 29.6461C31.1153 32.5486 40.5948 34.0501 50 34.0501C59.4011 34.0501 68.8779 32.55 73.6548 29.6502C73.9259 29.9695 74.0842 30.2819 74.0842 30.5778L74.0842 32.2279C73.4112 32.8569 72.3942 33.4748 71.0551 34.0515C70.7055 34.2015 70.5445 34.6061 70.6945 34.9556C70.8445 35.3052 71.2533 35.4635 71.5987 35.3162C72.5841 34.8923 73.4016 34.4423 74.0856 33.973L74.0856 44.5329C74.0856 46.9867 64.7037 50.5526 50.0014 50.5526C35.299 50.5526 25.9172 46.9881 25.9172 44.5329L25.9172 34.0143C30.3418 37.0558 40.398 38.6646 50.0014 38.6646C55.4416 38.6646 60.6548 38.1802 65.0753 37.2622C65.4469 37.1852 65.6864 36.8205 65.6079 36.4489ZM25.9158 51.1168C25.9158 50.5828 26.381 49.9952 27.2356 49.4034C32.2383 51.977 41.1522 53.305 50 53.305C58.8465 53.305 67.7617 51.977 72.7644 49.4034C73.4649 49.8878 73.8695 50.3668 74.0044 50.8182C73.1841 53.9574 63.289 57.281 49.3119 57.281C37.8478 57.281 29.139 55.0432 25.9158 52.5068L25.9158 51.1168ZM25.9158 65.0719L25.9158 54.2464C30.5001 57.1324 40.1131 58.6572 49.3119 58.6572C59.569 58.6572 70.3436 56.7621 74.0842 53.1977L74.0842 65.0719C74.0842 67.5257 64.7024 71.0915 50 71.0915C35.2976 71.0915 25.9158 67.5257 25.9158 65.0719ZM46.6131 77.9081L46.5677 74.0532L52.0644 74.0532L52.0644 77.9259C52.0657 78.3691 51.8621 78.8301 51.5029 79.1893C51.0074 79.6862 50.2615 79.9614 49.4027 79.9614C48.3912 79.9614 47.5654 79.6834 47.0782 79.1797C46.7535 78.8466 46.5966 78.4283 46.6131 77.9081ZM49.3119 96.0744C47.4154 96.0744 45.8713 94.5303 45.8713 92.6338C45.8713 90.7374 47.4154 89.1932 49.3119 89.1932C51.2083 89.1932 52.7525 90.7374 52.7525 92.6338C52.7525 94.5303 51.2097 96.0744 49.3119 96.0744Z" fill="#1f212b" fill-rule="nonzero" opacity="1" stroke="#1f212b" stroke-linecap="butt" stroke-linejoin="round" stroke-width="0.288282" layerName="path"/>
<path d="M49.1921 88.6331C46.9613 88.6331 45.1529 90.4415 45.1529 92.6723C45.1529 94.9032 46.9613 96.7116 49.1921 96.7116C51.423 96.7116 53.2314 94.9032 53.2314 92.6723C53.2314 90.4415 51.423 88.6331 49.1921 88.6331Z" fill="#8f9eb6" fill-rule="nonzero" opacity="1" stroke="none" layerName="path"/>
<path d="M46.1121 73.372L46.163 77.9232C46.1121 79.5554 47.4292 80.6578 49.4289 80.6578C51.4285 80.6578 52.5804 79.254 52.5763 77.9315L52.5763 73.3733L46.1121 73.3733L46.1121 73.372Z" fill="#33d85f" fill-rule="nonzero" opacity="1" stroke="none" layerName="path"/>
<path d="M66.6263 36.7214C66.6841 36.7214 66.7433 36.7145 66.8025 36.698L67.4383 36.5246C67.8044 36.4213 68.0163 36.0401 67.9145 35.6754C67.8113 35.3107 67.4342 35.0988 67.0654 35.1992L66.4516 35.3671C66.0841 35.4635 65.8653 35.8406 65.9616 36.208C66.0428 36.5163 66.3222 36.7214 66.6263 36.7214ZM30.0941 15.4888L29.6688 15.3429C29.3083 15.2163 28.9174 15.4034 28.7908 15.7612C28.6642 16.1204 28.8513 16.5127 29.2092 16.6393L29.6523 16.792C29.7253 16.8168 29.7996 16.8278 29.8725 16.8278C30.1588 16.8278 30.4271 16.6475 30.5248 16.3599C30.6473 16.0007 30.4547 15.6099 30.0941 15.4888Z" fill="#1f212b" fill-rule="nonzero" opacity="1" stroke="none" layerName="path"/>
</g>
<path d="M76.8367 91.9457L54.0599 91.9457C53.7558 89.8442 52.1015 88.1913 50.0014 87.8872L50.0014 81.2881C50.9799 81.1739 51.8497 80.794 52.4786 80.1637C53.0938 79.5472 53.4447 78.7297 53.442 77.9259L53.442 73.7752C65.5625 73.3032 76.838 70.3346 76.838 65.0719L76.838 51.1168C76.838 49.8988 76.2022 48.8116 75.1219 47.8414C76.2187 46.8656 76.838 45.7619 76.838 44.5329L76.838 30.5765C76.838 29.6186 76.4444 28.7406 75.7604 27.9355C76.4527 27.1262 76.838 26.2413 76.838 25.2779L76.838 11.3229C76.838 5.5647 63.3371 2.55211 50.0014 2.55211C36.6656 2.55211 23.1647 5.5647 23.1647 11.3229L23.1647 25.2793C23.1647 26.2454 23.5528 27.1331 24.2478 27.9423C23.5638 28.7461 23.1647 29.62 23.1647 30.5765L23.1647 44.5329C23.1647 45.6504 23.6781 46.6633 24.5946 47.5716C23.6877 48.4208 23.1647 49.3621 23.1647 50.3998C23.1647 50.5209 23.1799 50.6406 23.1936 50.7604C23.1812 50.8787 23.1647 50.9957 23.1647 51.1168L23.1647 65.0719C23.1647 70.1351 33.6021 73.0747 45.1887 73.7105L45.2396 77.8929C45.2107 78.7558 45.5052 79.532 46.0901 80.1362C46.6943 80.7596 47.5819 81.145 48.6265 81.2757L48.6265 87.8844C46.525 88.1886 44.8721 89.8428 44.568 91.9429L23.1633 91.9429C22.7835 91.9429 22.4752 92.2512 22.4752 92.6311C22.4752 93.0109 22.7835 93.3192 23.1633 93.3192L44.5652 93.3192C44.9024 95.6478 46.8925 97.4479 49.3119 97.4479C51.7313 97.4479 53.7213 95.6478 54.0585 93.3192L76.8367 93.3192C77.2165 93.3192 77.5248 93.0109 77.5248 92.6311C77.5248 92.2512 77.2165 91.9457 76.8367 91.9457ZM25.9158 25.2793L25.9158 14.7208C26.3232 15.0016 26.7732 15.2754 27.2879 15.5397C27.6292 15.7145 28.0421 15.5796 28.2141 15.2424C28.3875 14.9039 28.2541 14.4896 27.9169 14.3162C27.0719 13.8827 26.4058 13.4258 25.9158 12.9661L25.9158 11.3256C25.9158 8.8718 35.2976 5.30734 50 5.30734C64.7024 5.30734 74.0842 8.8718 74.0842 11.3256L74.0842 12.9675C71.2436 15.614 62.1453 18.0375 50 18.0375C43.383 18.0375 37.1212 17.3068 32.3649 15.9787C32.0016 15.8741 31.619 16.0888 31.5171 16.4562C31.4153 16.8223 31.6286 17.2022 31.9947 17.304C36.8679 18.6637 43.2619 19.4138 50 19.4138C59.6034 19.4138 69.6596 17.805 74.0842 14.7635L74.0842 25.2821C74.0842 27.7359 64.7024 31.3017 50 31.3017C35.2976 31.3017 25.9158 27.7331 25.9158 25.2793ZM65.6079 36.4489C65.5295 36.0759 65.1634 35.8364 64.7946 35.9149C60.4649 36.8136 55.3481 37.2884 50 37.2884C37.8547 37.2884 28.7564 34.8648 25.9158 32.2183L25.9158 30.5765C25.9158 30.2806 26.0713 29.9668 26.3397 29.6461C31.1153 32.5486 40.5948 34.0501 50 34.0501C59.4011 34.0501 68.8779 32.55 73.6548 29.6502C73.9259 29.9695 74.0842 30.2819 74.0842 30.5778L74.0842 32.2279C73.4112 32.8569 72.3942 33.4748 71.0551 34.0515C70.7055 34.2015 70.5445 34.6061 70.6945 34.9556C70.8445 35.3052 71.2533 35.4635 71.5987 35.3162C72.5841 34.8923 73.4016 34.4423 74.0856 33.973L74.0856 44.5329C74.0856 46.9867 64.7037 50.5526 50.0014 50.5526C35.299 50.5526 25.9172 46.9881 25.9172 44.5329L25.9172 34.0143C30.3418 37.0558 40.398 38.6646 50.0014 38.6646C55.4416 38.6646 60.6548 38.1802 65.0753 37.2622C65.4469 37.1852 65.6864 36.8205 65.6079 36.4489ZM25.9158 51.1168C25.9158 50.5828 26.381 49.9952 27.2356 49.4034C32.2383 51.977 41.1522 53.305 50 53.305C58.8465 53.305 67.7617 51.977 72.7644 49.4034C73.4649 49.8878 73.8695 50.3668 74.0044 50.8182C73.1841 53.9574 63.289 57.281 49.3119 57.281C37.8478 57.281 29.139 55.0432 25.9158 52.5068L25.9158 51.1168ZM25.9158 65.0719L25.9158 54.2464C30.5001 57.1324 40.1131 58.6572 49.3119 58.6572C59.569 58.6572 70.3436 56.7621 74.0842 53.1977L74.0842 65.0719C74.0842 67.5257 64.7024 71.0915 50 71.0915C35.2976 71.0915 25.9158 67.5257 25.9158 65.0719ZM46.6131 77.9081L46.5677 74.0532L52.0644 74.0532L52.0644 77.9259C52.0657 78.3691 51.8621 78.8301 51.5029 79.1893C51.0074 79.6862 50.2615 79.9614 49.4027 79.9614C48.3912 79.9614 47.5654 79.6834 47.0782 79.1797C46.7535 78.8466 46.5966 78.4283 46.6131 77.9081ZM49.3119 96.0744C47.4154 96.0744 45.8713 94.5303 45.8713 92.6338C45.8713 90.7374 47.4154 89.1932 49.3119 89.1932C51.2083 89.1932 52.7525 90.7374 52.7525 92.6338C52.7525 94.5303 51.2097 96.0744 49.3119 96.0744Z" fill="#1f212b" fill-rule="nonzero" filter="url(#Filter_2)" stroke="none" layerName="path" shadowAngle="2.37142" shadowColor="#000000" shadowOffset="0" shadowOpacity="0.69" shadowRadius="0.863642"/>
</g>
</svg>
