<svg xmlns="http://www.w3.org/2000/svg" xmlns:vectornator="http://vectornator.io" xmlns:xlink="http://www.w3.org/1999/xlink" style="fill-rule:nonzero;clip-rule:evenodd;stroke-linecap:round;stroke-linejoin:round" width="100%" height="100%" stroke-miterlimit="10" version="1.1" viewBox="-1.233 0.65 101.062 100.593" xml:space="preserve"><defs><linearGradient id="LinearGradient" x1="47.951" x2="2.68" y1="49.683" y2="48.437" gradientTransform="matrix(0.938783 0 0 0.938783 3.99962 3.99962)" gradientUnits="userSpaceOnUse"><stop offset="0" stop-color="#fff"/><stop offset=".295" stop-color="#fff"/><stop offset="1" stop-color="#7c808a"/></linearGradient><filter id="Filter" width="100.123" height="100.123" x="-.764" y=".65" color-interpolation-filters="sRGB" filterUnits="userSpaceOnUse"><feDropShadow dx="-.702" dy=".712" flood-color="#000" flood-opacity=".65" in="SourceGraphic" result="Shadow" stdDeviation="2"/></filter><linearGradient id="LinearGradient_2" x1="87.869" x2="-36.064" y1="14.606" y2="10.59" gradientTransform="matrix(0.938783 0 0 0.938783 3.99962 3.99962)" gradientUnits="userSpaceOnUse"><stop offset=".236" stop-color="#b007a0"/><stop offset=".91" stop-color="#2f003b"/><stop offset="1" stop-color="#29002e"/></linearGradient><filter id="Filter_2" width="100.123" height="40.98" x="-.764" y=".65" color-interpolation-filters="sRGB" filterUnits="userSpaceOnUse"><feDropShadow dx="-.702" dy=".712" flood-color="#000" flood-opacity=".65" in="SourceGraphic" result="Shadow" stdDeviation="2"/></filter><filter id="Filter_3" width="101.062" height="86.276" x="-1.233" y="14.967" color-interpolation-filters="sRGB" filterUnits="userSpaceOnUse"><feDropShadow dx="-.702" dy=".712" flood-color="#000" flood-opacity=".65" in="SourceGraphic" result="Shadow" stdDeviation="2"/></filter><filter id="Filter_4" width="101.062" height="48.255" x="-1.233" y="33.977" color-interpolation-filters="sRGB" filterUnits="userSpaceOnUse"><feDropShadow dx="-.702" dy=".712" flood-color="#000" flood-opacity=".65" in="SourceGraphic" result="Shadow" stdDeviation="2"/></filter><filter id="Filter_5" width="100.123" height="40.98" x="-.764" y=".65" color-interpolation-filters="sRGB" filterUnits="userSpaceOnUse"><feDropShadow dx="-.702" dy=".712" flood-color="#000" flood-opacity=".65" in="SourceGraphic" result="Shadow" stdDeviation="2"/></filter></defs><path fill="url(#LinearGradient)" fill-rule="nonzero" stroke="#040087" stroke-linecap="round" stroke-linejoin="round" stroke-width="5.633" d="M92.2452 19.7242L92.2452 79.5717C92.2452 86.5717 73.332 92.2452 50 92.2452C26.668 92.2452 7.75476 86.5717 7.75476 79.5717L7.75476 20.663M7.75476 20.4283C7.75476 13.4289 26.6686 7.75476 50 7.75476C73.3314 7.75476 92.2452 13.4289 92.2452 20.4283" filter="url(#Filter)" shadowAngle="2.349" shadowColor="#000000" shadowOffset="1" shadowOpacity=".65" shadowRadius="4"/><path fill="url(#LinearGradient_2)" fill-rule="nonzero" stroke="#040087" stroke-linecap="round" stroke-linejoin="round" stroke-width="5.633" d="M7.75476 20.4283C7.75476 13.4289 26.6686 7.75476 50 7.75476C73.3314 7.75476 92.2452 13.4289 92.2452 20.4283C92.2452 27.4278 73.3314 33.1019 50 33.1019C26.6686 33.1019 7.75476 27.4278 7.75476 20.4283Z" filter="url(#Filter_2)" shadowAngle="2.349" shadowColor="#000000" shadowOffset="1" shadowOpacity=".65" shadowRadius="4"/><path fill="none" stroke="#040087" stroke-linecap="round" stroke-linejoin="round" stroke-width="6.571" d="M92.2452 22.5406L92.2452 79.5717C92.2452 86.5717 73.332 92.2452 50 92.2452C26.668 92.2452 7.75476 86.5717 7.75476 79.5717L7.75476 22.5406" filter="url(#Filter_3)" shadowAngle="2.349" shadowColor="#000000" shadowOffset="1" shadowOpacity=".65" shadowRadius="4"/><path fill="none" stroke="#040087" stroke-linecap="round" stroke-linejoin="round" stroke-width="6.571" d="M92.2452 60.5613C92.2452 67.5613 73.332 73.2349 50 73.2349C26.668 73.2349 7.75476 67.5613 7.75476 60.5613M92.2452 41.551C92.2452 48.551 73.332 54.2245 50 54.2245C26.668 54.2245 7.75476 48.551 7.75476 41.551" filter="url(#Filter_4)" shadowAngle="2.349" shadowColor="#000000" shadowOffset="1" shadowOpacity=".65" shadowRadius="4"/><path fill="none" stroke="#040087" stroke-linecap="round" stroke-linejoin="round" stroke-width="5.633" d="M7.75476 20.4283C7.75476 13.4289 26.6686 7.75476 50 7.75476C73.3314 7.75476 92.2452 13.4289 92.2452 20.4283C92.2452 27.4278 73.3314 33.1019 50 33.1019C26.6686 33.1019 7.75476 27.4278 7.75476 20.4283Z" filter="url(#Filter_5)" shadowAngle="2.349" shadowColor="#000000" shadowOffset="1" shadowOpacity=".65" shadowRadius="4"/></svg>