
<svg
   viewBox="0 0 48 48"
   version="1.1"
   id="svg4"
   sodipodi:docname="Server-Data-Two-Dark-gray.2.svg"
   inkscape:version="1.3-beta (cedbd6c, 2023-05-28)"
   xmlns:inkscape="http://www.inkscape.org/namespaces/inkscape"
   xmlns:sodipodi="http://sodipodi.sourceforge.net/DTD/sodipodi-0.dtd"
   xmlns="http://www.w3.org/2000/svg"
   xmlns:svg="http://www.w3.org/2000/svg">
  <defs
     id="defs4">
    <filter
       style="color-interpolation-filters:sRGB;"
       inkscape:label="Drop Shadow"
       id="filter25"
       x="-0.086000001"
       y="-0.08820513"
       width="1.1795"
       height="1.1866667">
      <feFlood
         result="flood"
         in="SourceGraphic"
         flood-opacity="0.498039"
         flood-color="rgb(0,0,0)"
         id="feFlood24" />
      <feGaussianBlur
         result="blur"
         in="SourceGraphic"
         stdDeviation="0.600000"
         id="feGaussianBlur24" />
      <feOffset
         result="offset"
         in="blur"
         dx="0.300000"
         dy="0.400000"
         id="feOffset24" />
      <feComposite
         result="comp1"
         operator="in"
         in="flood"
         in2="offset"
         id="feComposite24" />
      <feComposite
         result="comp2"
         operator="over"
         in="SourceGraphic"
         in2="comp1"
         id="feComposite25" />
    </filter>
  </defs>
  <sodipodi:namedview
     id="namedview4"
     pagecolor="#505050"
     bordercolor="#ffffff"
     borderopacity="1"
     inkscape:showpageshadow="0"
     inkscape:pageopacity="0"
     inkscape:pagecheckerboard="1"
     inkscape:deskcolor="#505050"
     inkscape:zoom="4.9166667"
     inkscape:cx="-8.8474576"
     inkscape:cy="24"
     inkscape:window-width="1312"
     inkscape:window-height="449"
     inkscape:window-x="0"
     inkscape:window-y="25"
     inkscape:window-maximized="0"
     inkscape:current-layer="g4" />
  <g
     fill="none"
     stroke="#232423"
     stroke-linecap="round"
     stroke-linejoin="round"
     stroke-width="4"
     id="g4"
     style="filter:url(#filter25)">
    <path
       stroke="#232423"
       fill="#efefef"
       d="M 10.77,24.5 C 6.62,25.6 4,27.208 4,29 c 0,3.314 8.954,6 20,6 11.046,0 20,-2.686 20,-6 0,-1.792 -2.619,-3.4 -6.77,-4.5"
       id="path2"
       style="display:inline;stroke:#0f122e;stroke-opacity:1"
       inkscape:label="white2" />
    <path
       stroke="#232423"
       fill="#863bcc"
       d="M 10.77,33.5 C 6.62,34.6 4,36.208 4,38 c 0,3.314 8.954,6 20,6 11.046,0 20,-2.686 20,-6 0,-1.792 -2.619,-3.4 -6.77,-4.5 C 33.704,34.433 29.072,35 24,35 18.928,35 14.296,34.433 10.77,33.5 Z"
       id="path6"
       style="display:inline;fill:#efefef;fill-opacity:1;stroke:#0f122e;stroke-opacity:1"
       inkscape:label="white" />
    <path
       stroke="#232423"
       fill="#863bcc"
       d="M 10.77,15.5 C 6.62,16.6 4,18.208 4,20 c 0,3.314 8.954,6 20,6 11.046,0 20,-2.686 20,-6 0,-1.792 -2.619,-3.4 -6.77,-4.5 C 33.704,16.433 29.072,17 24,17 18.928,17 14.296,16.433 10.77,15.5 Z"
       id="path4"
       style="display:inline;stroke:#0f122e;stroke-opacity:1;fill:#ff00ff"
       inkscape:label="purp" />
    <ellipse
       cx="24"
       cy="11"
       rx="20"
       ry="6"
       id="ellipse6"
       style="display:inline;fill:#efefef;fill-opacity:1;stroke:#0f122e;stroke-opacity:1" />
  </g>
</svg>
