<svg xmlns="http://www.w3.org/2000/svg" xmlns:vectornator="http://vectornator.io" xmlns:xlink="http://www.w3.org/1999/xlink" height="100%" stroke-miterlimit="10" style="fill-rule:nonzero;clip-rule:evenodd;stroke-linecap:round;stroke-linejoin:round" width="100%" version="1.1" viewBox="0 0 100 100" xml:space="preserve"><defs><filter id="Filter" width="17.582" height="17.369" x="32.569" y="33.118" color-interpolation-filters="sRGB" filterUnits="userSpaceOnUse"><feDropShadow dx="-.579" dy=".826" flood-color="#000" flood-opacity=".55" in="SourceGraphic" result="Shadow" stdDeviation="1.422"/></filter><filter id="Filter_2" width="17.582" height="17.369" x="49.044" y="51.022" color-interpolation-filters="sRGB" filterUnits="userSpaceOnUse"><feDropShadow dx="-.579" dy=".826" flood-color="#000" flood-opacity=".55" in="SourceGraphic" result="Shadow" stdDeviation="1.422"/></filter><linearGradient id="LinearGradient" x1="-107.435" x2="79.793" y1="-10.4" y2="50" gradientTransform="matrix(1 0 0 1 0 0)" gradientUnits="userSpaceOnUse"><stop offset="0" stop-color="#19068f"/><stop offset="1" stop-color="#021df3"/></linearGradient><filter id="Filter_3" width="66.696" height="101.886" x="16.073" y="-.116" color-interpolation-filters="sRGB" filterUnits="userSpaceOnUse"><feDropShadow dx="-.579" dy=".826" flood-color="#000" flood-opacity=".55" in="SourceGraphic" result="Shadow" stdDeviation="1.422"/></filter></defs><clipPath id="ArtboardFrame"><rect width="66.696" height="101.886" x="16.073" y="-.116"/></clipPath><g id="Layer" clip-path="url(#ArtboardFrame)" layerName="Layer"><g layerName="Group 10" opacity="1"><path fill="#ffca00" fill-rule="nonzero" stroke="none" d="M36.7031 35.8466L47.1744 35.8466L47.1744 46.1051L36.7031 46.1051L36.7031 35.8466Z" filter="url(#Filter)" layerName="path 4" shadowAngle="2.182" shadowColor="#000000" shadowOffset="1.009" shadowOpacity=".55" shadowRadius="2.844"/><path fill="#e70488" fill-rule="nonzero" stroke="none" d="M53.1777 53.7513L63.6491 53.7513L63.6491 64.0098L53.1777 64.0098L53.1777 53.7513Z" filter="url(#Filter_2)" layerName="path 6" shadowAngle="2.182" shadowColor="#000000" shadowOffset="1.009" shadowOpacity=".55" shadowRadius="2.844"/><path fill="url(#LinearGradient)" fill-rule="nonzero" stroke="none" d="M36.8473 8.21497L47.2051 8.21497L47.2051 29.7228L36.8473 29.7228L36.8473 8.21497ZM36.8473 52.395L47.2051 52.395L47.2051 73.902L36.8473 73.902L36.8473 52.395ZM20.2072 25.8959L30.565 25.8959L30.565 97.3875L20.2072 97.3875L20.2072 25.8959ZM53.1433 70.1402L63.5011 70.1402L63.5011 91.6472L53.1433 91.6472L53.1433 70.1402ZM53.1433 25.9213L63.5011 25.9213L63.5011 47.4292L53.1433 47.4292L53.1433 25.9213ZM69.435 2.61246L79.7928 2.61246L79.7928 74.1041L69.435 74.1041L69.435 2.61246Z" filter="url(#Filter_3)" layerName="Curve 1" shadowAngle="2.182" shadowColor="#000000" shadowOffset="1.009" shadowOpacity=".55" shadowRadius="2.844"/></g></g></svg>