<?xml version="1.0" encoding="UTF-8" standalone="no"?>
<!DOCTYPE svg PUBLIC "-//W3C//DTD SVG 1.1//EN" "http://www.w3.org/Graphics/SVG/1.1/DTD/svg11.dtd">
<!-- Created with Vectornator (http://vectornator.io/) -->
<svg height="100%" stroke-miterlimit="10" style="fill-rule:nonzero;clip-rule:evenodd;stroke-linecap:round;stroke-linejoin:round;" version="1.1" viewBox="-3.00063 -3.26611 103.001 103.315" width="100%" xml:space="preserve" xmlns="http://www.w3.org/2000/svg" xmlns:vectornator="http://vectornator.io" xmlns:xlink="http://www.w3.org/1999/xlink">
<defs>
<radialGradient cx="67.7543" cy="65.1667" gradientTransform="matrix(1 0 0 1 0 0)" gradientUnits="userSpaceOnUse" id="RadialGradient" r="76.4542">
<stop offset="0.167105" stop-color="#ffffff"/>
<stop offset="0.500452" stop-color="#ffffff"/>
<stop offset="0.860017" stop-color="#bebebe"/>
<stop offset="1" stop-color="#a9a9a9"/>
</radialGradient>
<linearGradient gradientTransform="matrix(1.11111 -2.46158e-33 0 1.11111 -5.3144 -3.04096)" gradientUnits="userSpaceOnUse" id="LinearGradient" x1="5.21704" x2="59.0916" y1="31.089" y2="31.089">
<stop offset="1.36544e-07" stop-color="#877800"/>
<stop offset="0.277975" stop-color="#b9b800"/>
<stop offset="0.630873" stop-color="#dccb00"/>
<stop offset="1" stop-color="#ffeb00"/>
</linearGradient>
<linearGradient gradientTransform="matrix(1.11111 -2.46158e-33 0 1.11111 -5.3144 -3.04096)" gradientUnits="userSpaceOnUse" id="LinearGradient_2" x1="34.9601" x2="58.7903" y1="24.2234" y2="24.2234">
<stop offset="1.36544e-07" stop-color="#877800"/>
<stop offset="0.277975" stop-color="#b9b800"/>
<stop offset="0.630873" stop-color="#dccb00"/>
<stop offset="1" stop-color="#ffeb00"/>
</linearGradient>
<linearGradient gradientTransform="matrix(1.11111 -2.46158e-33 0 1.11111 -5.3144 -3.04096)" gradientUnits="userSpaceOnUse" id="LinearGradient_3" x1="45.8334" x2="66.0696" y1="24.3928" y2="24.3928">
<stop offset="1.36544e-07" stop-color="#877800"/>
<stop offset="0.277975" stop-color="#b9b800"/>
<stop offset="0.630873" stop-color="#dccb00"/>
<stop offset="1" stop-color="#ffeb00"/>
</linearGradient>
<linearGradient gradientTransform="matrix(1.11111 -2.46158e-33 0 1.11111 -5.3144 -3.04096)" gradientUnits="userSpaceOnUse" id="LinearGradient_4" x1="26.3997" x2="47.4193" y1="25.4765" y2="25.4765">
<stop offset="1.36544e-07" stop-color="#877800"/>
<stop offset="0.277975" stop-color="#b9b800"/>
<stop offset="0.630873" stop-color="#dccb00"/>
<stop offset="1" stop-color="#ffeb00"/>
</linearGradient>
<linearGradient gradientTransform="matrix(1.11111 -2.46158e-33 0 1.11111 -5.3144 -3.04096)" gradientUnits="userSpaceOnUse" id="LinearGradient_5" x1="20.3571" x2="36.9534" y1="32.8573" y2="32.8573">
<stop offset="1.36544e-07" stop-color="#877800"/>
<stop offset="0.277975" stop-color="#b9b800"/>
<stop offset="0.630873" stop-color="#dccb00"/>
<stop offset="1" stop-color="#ffeb00"/>
</linearGradient>
<linearGradient gradientTransform="matrix(1.11111 -2.46158e-33 0 1.11111 -5.3144 -3.04096)" gradientUnits="userSpaceOnUse" id="LinearGradient_6" x1="17.2749" x2="36.6648" y1="43.2016" y2="43.2016">
<stop offset="1.36544e-07" stop-color="#877800"/>
<stop offset="0.277975" stop-color="#b9b800"/>
<stop offset="0.630873" stop-color="#dccb00"/>
<stop offset="1" stop-color="#ffeb00"/>
</linearGradient>
<linearGradient gradientTransform="matrix(1.11111 -2.46158e-33 0 1.11111 -5.3144 -3.04096)" gradientUnits="userSpaceOnUse" id="LinearGradient_7" x1="70.0402" x2="94.783" y1="32.8092" y2="32.8092">
<stop offset="1.36544e-07" stop-color="#877800"/>
<stop offset="0.277975" stop-color="#b9b800"/>
<stop offset="0.630873" stop-color="#dccb00"/>
<stop offset="1" stop-color="#ffeb00"/>
</linearGradient>
<linearGradient gradientTransform="matrix(1.11111 -2.46158e-33 0 1.11111 -5.3144 -3.04096)" gradientUnits="userSpaceOnUse" id="LinearGradient_8" x1="17.3714" x2="36.034" y1="51.5592" y2="51.5592">
<stop offset="1.36544e-07" stop-color="#877800"/>
<stop offset="0.277975" stop-color="#b9b800"/>
<stop offset="0.630873" stop-color="#dccb00"/>
<stop offset="1" stop-color="#ffeb00"/>
</linearGradient>
<linearGradient gradientTransform="matrix(1.11252 -2.44792e-33 0 1.10495 -5.40328 -2.72739)" gradientUnits="userSpaceOnUse" id="LinearGradient_9" x1="43.8958" x2="89.2861" y1="64.4966" y2="64.4966">
<stop offset="1.36544e-07" stop-color="#877800"/>
<stop offset="0.277975" stop-color="#b9b800"/>
<stop offset="0.630873" stop-color="#dccb00"/>
<stop offset="1" stop-color="#ffeb00"/>
</linearGradient>
<linearGradient gradientTransform="matrix(1.11111 -2.46158e-33 0 1.11111 -5.3144 -3.04096)" gradientUnits="userSpaceOnUse" id="LinearGradient_10" x1="31.9373" x2="37.0981" y1="80.4619" y2="80.4619">
<stop offset="1.36544e-07" stop-color="#877800"/>
<stop offset="0.277975" stop-color="#b9b800"/>
<stop offset="0.630873" stop-color="#dccb00"/>
<stop offset="1" stop-color="#ffeb00"/>
</linearGradient>
<filter color-interpolation-filters="sRGB" filterUnits="userSpaceOnUse" height="70.4064" id="Filter" width="72.288" x="-3.00063" y="-3.26611">
<feGaussianBlur in="SourceGraphic" result="Blur" stdDeviation="1.55347"/>
</filter>
<linearGradient gradientTransform="matrix(1.11111 -2.46158e-33 0 1.11111 -5.3144 -3.04096)" gradientUnits="userSpaceOnUse" id="LinearGradient_11" x1="70.0402" x2="94.783" y1="32.8092" y2="32.8092">
<stop offset="1.36544e-07" stop-color="#877800"/>
<stop offset="0.277975" stop-color="#b9b800"/>
<stop offset="0.630873" stop-color="#dccb00"/>
<stop offset="1" stop-color="#ffeb00"/>
</linearGradient>
<linearGradient gradientTransform="matrix(1.10752 0 0 1.1043 -5.13135 -2.7002)" gradientUnits="userSpaceOnUse" id="LinearGradient_12" x1="46.2948" x2="89.5693" y1="66.3492" y2="42.0617">
<stop offset="0.663568" stop-color="#00ffed"/>
<stop offset="1" stop-color="#00ffbf"/>
</linearGradient>
<linearGradient gradientTransform="matrix(1.01441 0 0 1.01659 -0.011063 0.296185)" gradientUnits="userSpaceOnUse" id="LinearGradient_13" x1="0.767554" x2="72.4347" y1="36.1107" y2="36.1107">
<stop offset="0" stop-color="#ff00fd"/>
<stop offset="0.356579" stop-color="#cc00cb"/>
<stop offset="0.714474" stop-color="#bf00be"/>
<stop offset="1" stop-color="#af00ae"/>
</linearGradient>
<linearGradient gradientTransform="matrix(1.12529 0.188241 -0.192125 1.14852 1.9982 -9.18892)" gradientUnits="userSpaceOnUse" id="LinearGradient_14" x1="5.21704" x2="58.1069" y1="31.089" y2="31.6063">
<stop offset="1.36544e-07" stop-color="#877800"/>
<stop offset="0.277975" stop-color="#b9b800"/>
<stop offset="0.630873" stop-color="#dccb00"/>
<stop offset="1" stop-color="#ffeb00"/>
</linearGradient>
</defs>
<g id="Layer" vectornator:layerName="Layer">
<g opacity="1" vectornator:layerName="Group 7">
<path d="M35.9221 100.049L30.8707 95.8343L30.2746 94.2536L30.0073 73.0348C28.7438 73.1322 16.7499 69.3566 10.5857 62.1888C9.62964 61.077 1.51544 52.4286 0.972867 38.5526C0.404146 24.0079 7.16608 14.2803 14.4051 8.38893C20.3304 3.56671 28.8047 0.521423 35.1951 0.311141C42.6397 0.0661728 48.9408 1.7549 53.9557 4.46322C69.5816 12.902 72.3933 27.9476 72.9126 30.815L89.8978 31.081C93.056 31.0729 94.5251 30.6997 96.2643 32.3692L100 35.9907L100 100L35.9221 100.049Z" fill="url(#RadialGradient)" fill-rule="nonzero" opacity="1" stroke="none" vectornator:layerName="Curve 16"/>
<g opacity="1" vectornator:layerName="Group 6">
<path d="M35.1018 2.23266e-16L36.5488 0C45.2857 0.271168 52.9313 3.26329 59.4855 8.97642C59.7744 9.26511 60.06 9.55096 60.343 9.83387C60.2846 9.90702 60.2128 9.92492 60.1286 9.88746C52.5003 5.20348 44.2474 3.52433 35.3698 4.84995C25.6106 6.58682 17.831 11.4368 12.0311 19.3998C6.65032 27.2771 4.72106 35.9408 6.2433 45.3912C7.44764 51.9975 10.2879 57.7674 14.7642 62.701C14.8333 62.784 14.869 62.8735 14.8714 62.9689C14.7906 63.0241 14.7102 63.0155 14.6302 62.9421C5.88478 56.2337 1.16881 47.3466 0.482315 36.2808L0.482315 33.6549C1.1336 23.0181 5.56377 14.3453 13.7728 7.63666C20.042 2.7926 27.1517 0.247053 35.1018 2.23266e-16Z" fill="url(#LinearGradient)" fill-rule="evenodd" opacity="0" stroke="none" vectornator:layerName="path"/>
<path d="M38.9068 12.433C39.0833 12.4201 39.2441 12.4647 39.3891 12.567C46.2021 20.0054 53.0349 27.4277 59.8875 34.8339C60.0145 34.9598 60.0413 35.1026 59.9678 35.2626C57.789 35.3248 55.609 35.3337 53.4298 35.2894C52.9207 34.8517 52.4473 34.3783 52.0096 33.8692C45.8833 27.1532 39.7383 20.4544 33.5745 13.7728C33.4632 13.5059 33.5615 13.3541 33.8692 13.3173C35.5327 12.8882 37.2119 12.5935 38.9068 12.433Z" fill="url(#LinearGradient_2)" fill-rule="evenodd" opacity="0.985" stroke="none" vectornator:layerName="path"/>
<path d="M45.6592 12.8081C52.5663 13.9789 58.2203 17.2658 62.6206 22.6688C65.3917 26.1579 67.1961 30.1058 68.0332 34.5123C68.0913 34.7397 68.1095 34.9754 68.0868 35.209C68.0466 35.2426 68.0014 35.2697 67.9528 35.2894C67.3457 35.3251 66.7379 35.3251 66.1308 35.2894C66.0595 35.2536 65.9877 35.218 65.9164 35.1822C59.1916 27.8321 52.4481 20.4991 45.686 13.1833C45.5968 13.0608 45.5879 12.9357 45.6592 12.8081Z" fill="url(#LinearGradient_3)" fill-rule="evenodd" opacity="0.986" stroke="none" vectornator:layerName="path"/>
<path d="M28.7781 15.2197C28.9293 15.2062 29.0721 15.233 29.2069 15.3001C35.2417 21.8417 41.2706 28.3886 47.2937 34.9411C47.4086 35.0694 47.3997 35.1855 47.2669 35.2894C44.6945 35.3251 42.1222 35.3251 39.5498 35.2894C39.2952 35.1421 39.0719 34.9546 38.88 34.7267C33.9615 29.3389 29.0311 23.962 24.089 18.5959C24.0192 18.496 24.0013 18.3888 24.0354 18.2744C25.5075 17.0964 27.0968 16.0728 28.7781 15.2197Z" fill="url(#LinearGradient_4)" fill-rule="evenodd" opacity="0.987" stroke="none" vectornator:layerName="path"/>
<path d="M20.686 21.3826C20.7829 21.3822 20.8722 21.4089 20.9539 21.463L35.6109 37.4062C35.6628 37.501 35.7076 37.5995 35.7449 37.701C35.6037 38.0171 35.5046 38.3505 35.4502 38.6924C35.441 40.9612 35.4142 43.23 35.3698 45.4984C35.2854 45.559 35.1961 45.568 35.1018 45.5252C29.1846 39.0819 23.2539 32.651 17.3098 26.2326C17.2885 26.0589 17.3331 25.8892 17.4437 25.7235C18.3744 24.1594 19.4551 22.7125 20.686 21.3826Z" fill="url(#LinearGradient_5)" fill-rule="evenodd" opacity="0.986" stroke="none" vectornator:layerName="path"/>
<path d="M15.2733 30.4394C15.3459 30.4309 15.4194 30.4401 15.4877 30.4662L35.2894 51.9829L35.3966 52.1972C35.4409 54.6109 35.432 57.0225 35.3698 59.4319C35.2854 59.4925 35.1961 59.5016 35.1018 59.4587L14.1211 36.6559C14.0055 36.5053 13.9233 36.3317 13.88 36.1468C14.1226 34.1849 14.5871 32.2825 15.2733 30.4394Z" fill="url(#LinearGradient_6)" fill-rule="evenodd" opacity="0.985" stroke="none" vectornator:layerName="path"/>
<path d="M100 35.7449L100 35.9057C99.7933 35.8193 99.5776 35.7563 99.3569 35.7181C99.3049 35.6239 99.2422 35.5971 99.1693 35.6377C98.8945 35.5504 98.6175 35.47 98.3387 35.3966L73.955 35.343C73.8569 35.3283 73.7765 35.2837 73.7138 35.209C73.671 35.0632 73.6088 34.9293 73.5263 34.8071C73.5541 34.7773 73.5728 34.7401 73.5798 34.6999C73.49 34.3249 73.4007 33.9497 73.3119 33.5745C73.1747 33.1441 73.0322 32.7332 72.8832 32.3419C72.9437 32.2875 72.926 32.2517 72.8296 32.2347C72.8542 32.2125 72.8719 32.1857 72.8832 32.1543C72.724 31.7405 72.5991 31.3386 72.508 30.9486C79.7251 30.9128 86.9416 30.9128 94.1586 30.9486C94.8682 31.0891 95.5113 31.3749 96.0879 31.806C97.4007 33.1102 98.7048 34.4232 100 35.7449Z" fill="url(#LinearGradient_7)" fill-rule="evenodd" opacity="0" stroke="none" vectornator:layerName="path"/>
<path d="M14.0407 42.9796C14.1523 42.9781 14.2506 43.0139 14.3355 43.0868L34.6999 65.2733C34.7385 65.3596 34.7296 65.44 34.6731 65.5145C34.2703 65.5118 33.8773 65.44 33.4941 65.3001C25.4243 62.8569 19.5919 57.828 15.9968 50.2144C15.0106 47.9848 14.3407 45.6626 13.9871 43.2476C13.9915 43.1561 14.0096 43.0658 14.0407 42.9796Z" fill="url(#LinearGradient_8)" fill-rule="evenodd" opacity="0.982" stroke="none" vectornator:layerName="path"/>
</g>
<path d="M43.7329 43.4099L93.624 43.5318L93.715 93.5568C93.715 93.5568 56.248 93.6174 43.7141 93.5642L43.5793 93.3442C43.5793 93.3442 43.435 51.9316 43.4617 43.6774C43.4987 43.5788 43.6446 43.4534 43.7329 43.4099Z" fill="url(#LinearGradient_9)" fill-rule="evenodd" opacity="0.998" stroke="none" vectornator:layerName="path 2"/>
<path d="M36.1766 99.9263L35.9785 99.9834C34.4247 98.6717 33.2678 97.8123 31.7313 96.4803C30.5731 95.7259 30.3674 95.0151 30.1983 94.1586C30.1625 87.0311 30.0642 80.1508 30.0999 73.0233C30.124 73.0096 31.1144 73.2572 32.2046 73.3888C33.6862 73.5676 35.4447 73.7143 35.4447 73.7143L35.4603 97.2033C35.4791 97.5297 35.5109 98.1827 35.5989 98.4975C35.7306 98.8132 35.8146 99.2393 36.1766 99.9263Z" fill="url(#LinearGradient_10)" fill-rule="evenodd" opacity="0.983" stroke="none" vectornator:layerName="path 3"/>
<path d="M40.927 0.788871C32.789 0.0357195 25.2221 1.76644 18.2075 5.97398C8.97545 11.8611 3.33731 20.2433 1.30686 31.1458L0.972334 33.8352C0.250845 45.3504 3.90089 55.1301 11.9564 63.1673C12.0285 63.2533 12.1103 63.2808 12.1998 63.234C12.2096 63.1352 12.189 63.0285 12.1292 62.9339C8.19878 57.2711 6.05577 50.9725 5.67639 43.9972C5.33821 34.0443 8.43133 25.3269 14.9297 17.8742C21.8665 10.386 30.4163 6.36452 40.5903 5.80852C49.8125 5.56542 58.0103 8.34313 65.1868 14.1479C65.2678 14.1973 65.3347 14.2066 65.4037 14.1385C65.1515 13.8105 64.8875 13.4667 64.6301 13.1319C58.681 6.40049 51.2877 2.36196 42.414 0.973828L40.927 0.788871Z" fill="#303030" fill-rule="nonzero" filter="url(#Filter)" opacity="0.970851" stroke="none" vectornator:blur="3.10694" vectornator:layerName="Curve 16"/>
<path d="M99.7335 35.834C99.9692 36.0762 99.9769 36.2409 99.9769 36.2409C99.4293 35.7396 98.0803 35.5006 97.1435 35.4344L73.458 34.8099C73.4046 34.8019 73.2997 33.6702 73.1776 32.6347C73.0757 31.7708 72.954 30.9924 72.9126 30.815C80.1296 30.7793 85.839 31.0372 93.056 31.0729C93.9363 31.0803 94.8743 31.0697 96.2643 32.3692C97.5772 33.6734 99.7335 35.834 99.7335 35.834Z" fill="url(#LinearGradient_11)" fill-rule="evenodd" opacity="0.784188" stroke="none" vectornator:layerName="path 5"/>
<path d="M43.7036 43.4733C43.6158 43.5167 43.5674 43.5818 43.5305 43.6803C43.4772 60.2847 43.4762 76.8813 43.5651 93.4772C43.6051 93.5107 43.6551 93.5268 43.7036 93.5462C52.01 93.5553 60.3165 93.5717 68.6229 93.5808C76.9694 93.5898 85.3081 93.5741 93.646 93.5117C93.6797 93.4718 93.6955 93.4227 93.7152 93.3737C93.7243 85.0915 93.7408 76.8092 93.7499 68.527C93.7589 60.2048 93.7432 51.8903 93.6806 43.5768C93.6406 43.5434 93.5906 43.5273 93.5422 43.5078C76.9293 43.4811 60.3164 43.4644 43.7036 43.4733Z" fill="url(#LinearGradient_12)" fill-rule="nonzero" opacity="0.983" stroke="none" vectornator:layerName="Curve 16"/>
<path d="M0.767554 37.0058C0.767554 16.7317 17.042 0.296185 37.1176 0.296185C39.7888 0.296185 42.3927 0.565519 44.8999 1.1178C52.5619 2.80552 59.3209 6.95513 64.3386 12.6765C65.7375 14.2716 67.001 15.9905 68.111 17.815C70.115 21.1088 71.6186 24.7464 72.5149 28.6199C72.9837 30.646 73.2864 32.7365 73.4076 34.8762C73.4475 35.5809 73.4677 36.291 73.4677 37.0058C73.4677 57.28 57.1932 73.7155 37.1176 73.7155C17.042 73.7155 0.767554 57.28 0.767554 37.0058Z" fill="url(#LinearGradient_13)" fill-rule="nonzero" opacity="0.461344" stroke="none" vectornator:layerName="Oval 2"/>
<path d="M42.4045 0.801577L43.8699 1.04671C52.6715 2.80719 59.8973 7.19533 65.5474 14.2112C65.79 14.5585 66.0298 14.9024 66.2675 15.2428C66.1957 15.3085 66.1199 15.3148 66.0411 15.2618C59.1254 9.12782 51.0574 5.99396 41.8373 5.86019C31.6532 6.00216 22.9357 9.69739 15.6848 16.9459C8.87329 24.1767 5.42133 32.8053 5.32891 42.8317C5.40632 49.8644 7.28518 56.3098 10.9655 62.1678C11.0211 62.2653 11.0418 62.3639 11.0277 62.4629C10.9364 62.5063 10.8565 62.4838 10.7881 62.3943C3.09102 53.9784-0.148462 43.9932 1.06969 32.4386L1.52374 29.7243C4.02258 18.8397 10.0089 10.6255 19.4827 5.08182C26.6696 1.13681 34.3102-0.289933 42.4045 0.801577Z" fill="url(#LinearGradient_14)" fill-rule="evenodd" opacity="0.640868" stroke="none" vectornator:layerName="path 4"/>
</g>
</g>
</svg>
