<svg xmlns="http://www.w3.org/2000/svg" xmlns:xlink="http://www.w3.org/1999/xlink" width="48" height="48" viewBox="0 0 48 48"><style>@keyframes a0_t{0%,46.6666%,70%{transform:translate(12px,24px) scale(1,1);animation-timing-function:cubic-bezier(.42,0,.58,1)}53.3333%{transform:translate(12px,24px) scale(1.1,1.1);animation-timing-function:cubic-bezier(.42,0,.58,1)}63.3333%{transform:translate(12px,24px) scale(.9,.9);animation-timing-function:cubic-bezier(.42,0,.58,1)}}@keyframes a1_t{0%,33.3333%,53.3333%{transform:translate(34px,10px) scale(1,1);animation-timing-function:cubic-bezier(.42,0,.58,1)}43.3333%{transform:translate(34px,10px) scale(1.1,1.1);animation-timing-function:cubic-bezier(.42,0,.58,1)}}@keyframes a2_do{0%{stroke-dashoffset:-12px}}@keyframes a3_t{0%,43.3333%,63.3333%{transform:translate(34px,38px) scale(1,1);animation-timing-function:cubic-bezier(.42,0,.58,1)}53.3333%{transform:translate(34px,38px) scale(1.1,1.1);animation-timing-function:cubic-bezier(.42,0,.58,1)}}@keyframes a4_do{0%{stroke-dashoffset:-16px}}</style><title>B_element_share</title><path style="animation:a0_t 1s linear infinite both" fill="#efefef" fill-rule="evenodd" stroke="none" d="M0,6C3.31371,6,6,3.31371,6,0C6,-3.31371,3.31371,-6,0,-6C-3.31371,-6,-6,-3.31371,-6,0C-6,3.31371,-3.31371,6,0,6zM0,2C1.10457,2,2,1.10457,2,0C2,-1.10457,1.10457,-2,0,-2C-1.10457,-2,-2,-1.10457,-2,0C-2,1.10457,-1.10457,2,0,2z" transform="translate(12,24)"/><path style="animation:a1_t 1s linear infinite both" fill="#efefef" fill-rule="evenodd" stroke="none" d="M0,6C3.31371,6,6,3.31371,6,0C6,-3.31371,3.31371,-6,0,-6C-3.31371,-6,-6,-3.31371,-6,0C-6,3.31371,-3.31371,6,0,6zM0,2C1.10457,2,2,1.10457,2,0C2,-1.10457,1.10457,-2,0,-2C-1.10457,-2,-2,-1.10457,-2,0C-2,1.10457,-1.10457,2,0,2z" transform="translate(34,10)"/><path fill="none" stroke="#efefef" stroke-linecap="round" stroke-linejoin="round" stroke-width="4" d="M0,0" transform="translate(30,12)"/><path style="animation:a2_do 1s linear infinite both" fill="none" stroke="#efefef" stroke-dasharray="12 7" stroke-dashoffset="-12" stroke-linecap="round" stroke-linejoin="round" stroke-width="4" d="M0,0L0,17" transform="translate(30,12) rotate(55)"/><path style="animation:a3_t 1s linear infinite both" fill="#efefef" fill-rule="evenodd" stroke="none" d="M0,6C3.31371,6,6,3.31371,6,0C6,-3.31371,3.31371,-6,0,-6C-3.31371,-6,-6,-3.31371,-6,0C-6,3.31371,-3.31371,6,0,6zM0,2C1.10457,2,2,1.10457,2,0C2,-1.10457,1.10457,-2,0,-2C-1.10457,-2,-2,-1.10457,-2,0C-2,1.10457,-1.10457,2,0,2z" transform="translate(34,38)"/><path style="animation:a4_do 1s linear infinite both" fill="none" stroke="#efefef" stroke-dasharray="12 7" stroke-dashoffset="-16" stroke-linecap="round" stroke-linejoin="round" stroke-width="4" d="M0,0L0,17" transform="translate(30,36) rotate(125)"/></svg>