<svg xmlns="http://www.w3.org/2000/svg" xmlns:xlink="http://www.w3.org/1999/xlink" width="100%" height="100%" viewBox="0 0 128 128" xml:space="preserve"><defs><linearGradient id="a" x1="0" x2="1" y1="0" y2="0" gradientTransform="matrix(-10.1555 -79.0433 -59.0842 7.97844 54.565 130.85)" gradientUnits="userSpaceOnUse"><stop offset="0" stop-color="#fff"/><stop offset="1" stop-color="#b3b3b3" stop-opacity=".6"/></linearGradient><linearGradient id="b" x1="0" x2="1" y1="0" y2="0" gradientTransform="matrix(.20848 -97.7732 91.5675 -8.18182 64.668 89.06)" gradientUnits="userSpaceOnUse"><stop offset="0" stop-color="#fff"/><stop offset=".981" stop-color="#fff" stop-opacity=".462"/></linearGradient><linearGradient id="d" x1="0" x2="1" y1="0" y2="0" gradientTransform="matrix(1.28818 -70.2368 65.8763 -4.81156 62.812 86.583)" gradientUnits="userSpaceOnUse"><stop offset="0" stop-color="#fff"/><stop offset=".981" stop-color="#fff" stop-opacity=".462"/></linearGradient><linearGradient id="f" x1="0" x2="1" y1="0" y2="0" gradientTransform="matrix(-.66463 -24.9314 25.9504 .22014 64.257 46.18)" gradientUnits="userSpaceOnUse"><stop offset="0" stop-color="#fff"/><stop offset="1" stop-color="#b3b3b3" stop-opacity=".7"/></linearGradient><linearGradient id="g" x1="0" x2="1" y1="0" y2="0" gradientTransform="matrix(27.2269 -25.6365 -18.4228 -20.1052 39.82 30.082)" gradientUnits="userSpaceOnUse"><stop offset="0" stop-color="#fff"/><stop offset="1" stop-color="#b3b3b3" stop-opacity=".6"/></linearGradient><linearGradient id="h" x1="0" x2="1" y1="0" y2="0" gradientTransform="matrix(24.3244 24.39 18.0237 -17.4943 67.578 11.25)" gradientUnits="userSpaceOnUse"><stop offset="0" stop-color="#fff"/><stop offset="1" stop-color="#b3b3b3" stop-opacity=".6"/></linearGradient><filter id="c" width="29.677" height="61.683" x="49.161" y="36.996" color-interpolation-filters="sRGB" filterUnits="userSpaceOnUse"><feGaussianBlur in="SourceGraphic" result="Blur" stdDeviation="3"/></filter><filter id="e" width="26.972" height="58.978" x="50.514" y="38.349" color-interpolation-filters="sRGB" filterUnits="userSpaceOnUse"><feGaussianBlur in="SourceGraphic" result="Blur" stdDeviation="2.459"/></filter></defs><g fill-rule="nonzero" opacity="1"><path fill="url(#a)" d="M37.502 46.9555C32.667 46.9555 29.0339 48.2652 26.6164 50.8591C24.1989 53.4531 22.9998 57.3474 22.9998 62.5352L22.9998 111.61C22.9998 116.797 24.1989 120.692 26.6164 123.286C29.0339 125.88 32.667 127.189 37.502 127.189L90.498 127.189C95.333 127.189 98.966 125.896 101.384 123.286C103.801 120.675 105 116.764 105 111.61L105 62.5352C105 57.3809 103.801 53.5046 101.384 50.894C98.9661 48.2833 95.333 46.9555 90.498 46.9555L70.8393 46.9555L57.1607 46.9555L37.502 46.9555Z" opacity="1"/><path fill="url(#b)" d="M56.6614 44.4965L56.6614 65.7439L56.6614 84.4554C56.6614 88.1504 60.27 91.1793 64 91.1793C67.7299 91.1793 71.3386 88.1504 71.3386 84.4554L71.3386 65.7439L71.3386 44.4965L56.6614 44.4965Z" blendMode="luminosity" blur="6" filter="url(#c)" opacity=".642"/><path fill="url(#d)" d="M56.6614 44.4965L56.6614 65.7439L56.6614 84.4554C56.6614 88.1504 60.27 91.1793 64 91.1793C67.7299 91.1793 71.3386 88.1504 71.3386 84.4554L71.3386 65.7439L71.3386 44.4965L56.6614 44.4965Z" blendMode="lighten" blur="4.918" filter="url(#e)" opacity="1"/><g opacity="1"><path fill="url(#f)" d="M64 17.9084L56.6614 25.1702L56.6614 43.8817L56.6614 46.9555L71.3386 46.9555L71.3386 43.8817L71.3386 25.1702L64 17.9084Z" opacity="1"/><path fill="url(#g)" d="M41.3112 37.5896C43.0469 37.59 44.7967 36.9224 46.1263 35.6058L56.6618 25.1667L67.9869 13.9571C68.2133 13.7329 68.3186 13.4518 68.507 13.2059C70.561 10.5239 70.4545 6.7145 67.9869 4.26905C65.3288 1.63469 61.0353 1.63582 58.376 4.26905L36.5153 25.9178C33.8204 28.5863 33.8215 32.9361 36.5153 35.6058C37.8444 36.923 39.5755 37.5893 41.3112 37.5896Z" opacity="1"/><path fill="url(#h)" d="M86.6696 37.5704C88.4053 37.5704 90.1553 36.9227 91.4847 35.6058C94.179 32.9367 94.179 28.5869 91.4847 25.9178L68.141 2.78599C65.4823 0.152178 61.1888 0.152146 58.53 2.78599C55.8357 5.45511 55.8357 9.8049 58.53 12.474L64 17.9055L71.3382 25.1667L81.8737 35.6058C83.2031 36.9227 84.9338 37.5704 86.6696 37.5704Z" opacity="1"/></g></g></svg>