<svg width="100%" height="100%" viewBox="9 9 50 50" version="1.1" id="svg5" xmlns="http://www.w3.org/2000/svg" xmlns:svg="http://www.w3.org/2000/svg">
<rect x="9" y="9" width="50" height="50" fill="#0000"/>
<defs>
<radialGradient id="RG0" cx="0" cy="0" r="1" gradientUnits="userSpaceOnUse" gradientTransform="matrix(-159.061,0,0,-159.061,708.507,158.72)"><stop stop-color="#1F7DF1" id="stop852" /><stop offset="0.73" stop-color="#1F7DF1" stop-opacity="0" id="stop854" /></radialGradient>
<radialGradient id="RG1" cx="0" cy="0" r="1" gradientUnits="userSpaceOnUse" gradientTransform="matrix(-67.345537,-104.76063,141.13076,-90.726129,581.932,226.081)"><stop stop-color="#00ffee" id="stop857" /><stop offset="0.27" stop-color="#00ffee" stop-opacity="0.67" id="stop859" /><stop offset="0.58" stop-color="#00ffee" stop-opacity="0.31" id="stop861" /><stop offset="0.81" stop-color="#00CCFF" stop-opacity="0.09" id="stop863" /><stop offset="0.93" stop-color="#00ffee" stop-opacity="0" id="stop865" /></radialGradient>
<radialGradient id="RG2" cx="0" cy="0" r="1" gradientUnits="userSpaceOnUse" gradientTransform="matrix(159.061,0,0,159.061,567.493,94.8907)"><stop offset="0.17" stop-color="#FF3575" id="stop868" /><stop offset="0.22" stop-color="#FF3575" stop-opacity="0.96" id="stop870" /><stop offset="0.31" stop-color="#FF3575" stop-opacity="0.84" id="stop872" /><stop offset="0.42" stop-color="#FF3575" stop-opacity="0.65" id="stop874" /><stop offset="0.56" stop-color="#FF3575" stop-opacity="0.38" id="stop876" /><stop offset="0.72" stop-color="#FF3575" stop-opacity="0.04" id="stop878" /><stop offset="0.74" stop-color="#FF3575" stop-opacity="0" id="stop880" /></radialGradient>
<radialGradient id="RG3" cx="0" cy="0" r="1" gradientUnits="userSpaceOnUse" gradientTransform="matrix(67.345902,104.7604,-141.13044,90.726622,649.89,41.4739)"><stop stop-color="#FF00A1" id="stop883" /><stop offset="0.02" stop-color="#FF00A1" stop-opacity="0.96" id="stop885" /><stop offset="0.16" stop-color="#FF00A1" stop-opacity="0.71" id="stop887" /><stop offset="0.29" stop-color="#FF00A1" stop-opacity="0.49" id="stop889" /><stop offset="0.43" stop-color="#FF00A1" stop-opacity="0.32" id="stop891" /><stop offset="0.56" stop-color="#FF00A1" stop-opacity="0.18" id="stop893" /><stop offset="0.68" stop-color="#FF00A1" stop-opacity="0.08" id="stop895" /><stop offset="0.8" stop-color="#FF00A1" stop-opacity="0.02" id="stop897" /><stop offset="0.9" stop-color="#FF00A1" stop-opacity="0" id="stop899" /></radialGradient>
<radialGradient id="RG4" cx="0" cy="0" r="1" gradientUnits="userSpaceOnUse" gradientTransform="matrix(0,128,-128,0,128,128)"><stop stop-color="#283E51" id="stop902" /><stop offset="1" stop-color="#1B1432" id="stop904" /></radialGradient>
<linearGradient id="LG5" x1="116.5" y1="144.5" x2="35" y2="181.5" gradientUnits="userSpaceOnUse"><stop stop-color="#FC683E" id="stop907" /><stop offset="1" stop-color="#C70064" id="stop909" /></linearGradient>
<linearGradient id="LG6" x1="141.146" y1="137.548" x2="220.37399" y2="178.01401" gradientUnits="userSpaceOnUse"><stop stop-color="#1EDAFF" id="stop912" /><stop offset="1" stop-color="#1A70FF" id="stop914" /></linearGradient>
<linearGradient id="LG7" x1="127.532" y1="29" x2="127.532" y2="119.209" gradientUnits="userSpaceOnUse"><stop stop-color="#00A377" id="stop917" /><stop offset="1" stop-color="#00FF72" id="stop919" /></linearGradient>
</defs>
<g label="g1" groupmode="layer" id="l1" transform="translate(-122.82601,-82.207047)">
	<g style="fill:none" id="g1" transform="matrix(0.26458333,0,0,0.26458333,-12.111493,82.207047)">
		<path id="bottomBlue" fill="url(#RG0)" d="m 710.128,171.008 -50.645,41.003 c -6.078,4.922 -13.662,7.608 -21.483,7.608 -7.821,0 -15.405,-2.686 -21.483,-7.608 l -50.645,-41.003 c -1.978,-1.6 -3.573,-3.622 -4.669,-5.918 -1.096,-2.295 -1.665,-4.807 -1.665,-7.351 0,-2.544 0.569,-5.056 1.665,-7.352 1.096,-2.296 2.691,-4.318 4.669,-5.918 l 50.645,-41.024 c 6.078,-4.922 13.662,-7.6079 21.483,-7.6079 7.821,0 15.405,2.6859 21.483,7.6079 l 50.645,41.024 c 1.978,1.6 3.573,3.622 4.669,5.918 1.096,2.296 1.665,4.808 1.665,7.352 0,2.544 -0.569,5.056 -1.665,7.351 -1.096,2.296 -2.691,4.318 -4.669,5.918 z" />
		<path fill="url(#RG1)" id="bottomGreen" d="m 565.872,144.469 50.645,-41.024 c 6.078,-4.922 13.662,-7.6079 21.483,-7.6079 7.821,0 15.405,2.6859 21.483,7.6079 l 50.645,41.024 c 1.978,1.6 3.573,3.622 4.669,5.918 1.096,2.296 1.665,4.808 1.665,7.352 0,2.544 -0.569,5.056 -1.665,7.351 -1.096,2.296 -2.691,4.318 -4.669,5.918 l -50.645,41.003 c -6.078,4.922 -13.662,7.608 -21.483,7.608 -7.821,0 -15.405,-2.686 -21.483,-7.608 l -50.645,-41.003 c -1.978,-1.6 -3.573,-3.622 -4.669,-5.918 -1.096,-2.295 -1.665,-4.807 -1.665,-7.351 0,-2.544 0.569,-5.056 1.665,-7.352 1.096,-2.296 2.691,-4.318 4.669,-5.918 z" />
		<path fill="url(#RG2)" id="topLowerLeftOrange" d="m 565.872,82.6027 50.645,-41.024 c 6.078,-4.9224 13.662,-7.6083 21.483,-7.6083 7.821,0 15.405,2.6859 21.483,7.6083 l 50.645,41.024 c 1.978,1.5998 3.573,3.6217 4.669,5.9176 1.096,2.2959 1.665,4.8077 1.665,7.3517 0,2.544 -0.569,5.056 -1.665,7.352 -1.096,2.296 -2.691,4.317 -4.669,5.917 l -50.645,41.003 c -6.078,4.922 -13.662,7.608 -21.483,7.608 -7.821,0 -15.405,-2.686 -21.483,-7.608 l -50.645,-41.003 c -1.978,-1.6 -3.573,-3.621 -4.669,-5.917 -1.096,-2.296 -1.665,-4.808 -1.665,-7.352 0,-2.544 0.569,-5.0558 1.665,-7.3517 1.096,-2.2959 2.691,-4.3178 4.669,-5.9176 z" />
		<path fill="url(#RG3)" id="topUpperPink" d="m 710.128,109.141 -50.645,41.003 c -6.078,4.922 -13.662,7.608 -21.483,7.608 -7.821,0 -15.405,-2.686 -21.483,-7.608 l -50.645,-41.003 c -1.978,-1.6 -3.573,-3.621 -4.669,-5.917 -1.096,-2.296 -1.665,-4.808 -1.665,-7.352 0,-2.544 0.569,-5.0558 1.665,-7.3517 1.096,-2.2959 2.691,-4.3178 4.669,-5.9176 l 50.645,-41.024 c 6.078,-4.9224 13.662,-7.6083 21.483,-7.6083 7.821,0 15.405,2.6859 21.483,7.6083 l 50.645,41.024 c 1.978,1.5998 3.573,3.6217 4.669,5.9176 1.096,2.2959 1.665,4.8077 1.665,7.3517 0,2.544 -0.569,5.056 -1.665,7.352 -1.096,2.296 -2.691,4.317 -4.669,5.917 z" />
	</g>
</g>
</svg>