<svg xmlns="http://www.w3.org/2000/svg" xmlns:svg="http://www.w3.org/2000/svg" id="svg5" width="100%" height="100%" version="1.1" viewBox="0 0 67 67"><defs><radialGradient id="RG0" cx="0" cy="0" r="1" gradientTransform="matrix(-159.061,0,0,-159.061,708.507,158.72)" gradientUnits="userSpaceOnUse"><stop id="stop852" stop-color="#1F7DF1"/><stop id="stop854" offset=".73" stop-color="#1F7DF1" stop-opacity="0"/></radialGradient><radialGradient id="RG1" cx="0" cy="0" r="1" gradientTransform="matrix(-67.345537,-104.76063,141.13076,-90.726129,581.932,226.081)" gradientUnits="userSpaceOnUse"><stop id="stop857" stop-color="#0fe"/><stop id="stop859" offset=".27" stop-color="#0fe" stop-opacity=".67"/><stop id="stop861" offset=".58" stop-color="#0fe" stop-opacity=".31"/><stop id="stop863" offset=".81" stop-color="#0CF" stop-opacity=".09"/><stop id="stop865" offset=".93" stop-color="#0fe" stop-opacity="0"/></radialGradient><radialGradient id="RG2" cx="0" cy="0" r="1" gradientTransform="matrix(159.061,0,0,159.061,567.493,94.8907)" gradientUnits="userSpaceOnUse"><stop id="stop868" offset=".17" stop-color="#FF3575"/><stop id="stop870" offset=".22" stop-color="#FF3575" stop-opacity=".96"/><stop id="stop872" offset=".31" stop-color="#FF3575" stop-opacity=".84"/><stop id="stop874" offset=".42" stop-color="#FF3575" stop-opacity=".65"/><stop id="stop876" offset=".56" stop-color="#FF3575" stop-opacity=".38"/><stop id="stop878" offset=".72" stop-color="#FF3575" stop-opacity=".04"/><stop id="stop880" offset=".74" stop-color="#FF3575" stop-opacity="0"/></radialGradient><radialGradient id="RG3" cx="0" cy="0" r="1" gradientTransform="matrix(67.345902,104.7604,-141.13044,90.726622,649.89,41.4739)" gradientUnits="userSpaceOnUse"><stop id="stop883" stop-color="#FF00A1"/><stop id="stop885" offset=".02" stop-color="#FF00A1" stop-opacity=".96"/><stop id="stop887" offset=".16" stop-color="#FF00A1" stop-opacity=".71"/><stop id="stop889" offset=".29" stop-color="#FF00A1" stop-opacity=".49"/><stop id="stop891" offset=".43" stop-color="#FF00A1" stop-opacity=".32"/><stop id="stop893" offset=".56" stop-color="#FF00A1" stop-opacity=".18"/><stop id="stop895" offset=".68" stop-color="#FF00A1" stop-opacity=".08"/><stop id="stop897" offset=".8" stop-color="#FF00A1" stop-opacity=".02"/><stop id="stop899" offset=".9" stop-color="#FF00A1" stop-opacity="0"/></radialGradient><radialGradient id="RG4" cx="0" cy="0" r="1" gradientTransform="matrix(0,128,-128,0,128,128)" gradientUnits="userSpaceOnUse"><stop id="stop902" stop-color="#283E51"/><stop id="stop904" offset="1" stop-color="#1B1432"/></radialGradient><linearGradient id="LG5" x1="116.5" x2="35" y1="144.5" y2="181.5" gradientUnits="userSpaceOnUse"><stop id="stop907" stop-color="#FC683E"/><stop id="stop909" offset="1" stop-color="#C70064"/></linearGradient><linearGradient id="LG6" x1="141.146" x2="220.374" y1="137.548" y2="178.014" gradientUnits="userSpaceOnUse"><stop id="stop912" stop-color="#1EDAFF"/><stop id="stop914" offset="1" stop-color="#1A70FF"/></linearGradient><linearGradient id="LG7" x1="127.532" x2="127.532" y1="29" y2="119.209" gradientUnits="userSpaceOnUse"><stop id="stop917" stop-color="#00A377"/><stop id="stop919" offset="1" stop-color="#00FF72"/></linearGradient></defs><g id="l1" groupmode="layer" label="g1" transform="translate(-122.82601,-82.207047)"><g style="fill:none" id="g1" transform="matrix(0.26458333,0,0,0.26458333,-12.111493,82.207047)"><path id="bottomBlue" fill="url(#RG0)" d="m 710.128,171.008 -50.645,41.003 c -6.078,4.922 -13.662,7.608 -21.483,7.608 -7.821,0 -15.405,-2.686 -21.483,-7.608 l -50.645,-41.003 c -1.978,-1.6 -3.573,-3.622 -4.669,-5.918 -1.096,-2.295 -1.665,-4.807 -1.665,-7.351 0,-2.544 0.569,-5.056 1.665,-7.352 1.096,-2.296 2.691,-4.318 4.669,-5.918 l 50.645,-41.024 c 6.078,-4.922 13.662,-7.6079 21.483,-7.6079 7.821,0 15.405,2.6859 21.483,7.6079 l 50.645,41.024 c 1.978,1.6 3.573,3.622 4.669,5.918 1.096,2.296 1.665,4.808 1.665,7.352 0,2.544 -0.569,5.056 -1.665,7.351 -1.096,2.296 -2.691,4.318 -4.669,5.918 z"/><path id="bottomGreen" fill="url(#RG1)" d="m 565.872,144.469 50.645,-41.024 c 6.078,-4.922 13.662,-7.6079 21.483,-7.6079 7.821,0 15.405,2.6859 21.483,7.6079 l 50.645,41.024 c 1.978,1.6 3.573,3.622 4.669,5.918 1.096,2.296 1.665,4.808 1.665,7.352 0,2.544 -0.569,5.056 -1.665,7.351 -1.096,2.296 -2.691,4.318 -4.669,5.918 l -50.645,41.003 c -6.078,4.922 -13.662,7.608 -21.483,7.608 -7.821,0 -15.405,-2.686 -21.483,-7.608 l -50.645,-41.003 c -1.978,-1.6 -3.573,-3.622 -4.669,-5.918 -1.096,-2.295 -1.665,-4.807 -1.665,-7.351 0,-2.544 0.569,-5.056 1.665,-7.352 1.096,-2.296 2.691,-4.318 4.669,-5.918 z"/><path id="topLowerLeftOrange" fill="url(#RG2)" d="m 565.872,82.6027 50.645,-41.024 c 6.078,-4.9224 13.662,-7.6083 21.483,-7.6083 7.821,0 15.405,2.6859 21.483,7.6083 l 50.645,41.024 c 1.978,1.5998 3.573,3.6217 4.669,5.9176 1.096,2.2959 1.665,4.8077 1.665,7.3517 0,2.544 -0.569,5.056 -1.665,7.352 -1.096,2.296 -2.691,4.317 -4.669,5.917 l -50.645,41.003 c -6.078,4.922 -13.662,7.608 -21.483,7.608 -7.821,0 -15.405,-2.686 -21.483,-7.608 l -50.645,-41.003 c -1.978,-1.6 -3.573,-3.621 -4.669,-5.917 -1.096,-2.296 -1.665,-4.808 -1.665,-7.352 0,-2.544 0.569,-5.0558 1.665,-7.3517 1.096,-2.2959 2.691,-4.3178 4.669,-5.9176 z"/><path id="topUpperPink" fill="url(#RG3)" d="m 710.128,109.141 -50.645,41.003 c -6.078,4.922 -13.662,7.608 -21.483,7.608 -7.821,0 -15.405,-2.686 -21.483,-7.608 l -50.645,-41.003 c -1.978,-1.6 -3.573,-3.621 -4.669,-5.917 -1.096,-2.296 -1.665,-4.808 -1.665,-7.352 0,-2.544 0.569,-5.0558 1.665,-7.3517 1.096,-2.2959 2.691,-4.3178 4.669,-5.9176 l 50.645,-41.024 c 6.078,-4.9224 13.662,-7.6083 21.483,-7.6083 7.821,0 15.405,2.6859 21.483,7.6083 l 50.645,41.024 c 1.978,1.5998 3.573,3.6217 4.669,5.9176 1.096,2.2959 1.665,4.8077 1.665,7.3517 0,2.544 -0.569,5.056 -1.665,7.352 -1.096,2.296 -2.691,4.317 -4.669,5.917 z"/></g></g></svg>