<svg xmlns="http://www.w3.org/2000/svg" xmlns:xlink="http://www.w3.org/1999/xlink" width="100%" height="100%" stroke-miterlimit="10" class="size-6" version="1.1" viewBox="0 0 750 750" xml:space="preserve"><defs><linearGradient id="g1" x1="0" x2="1" y1="0" y2="0" gradientTransform="matrix(-232.873 230.336 -312.454 -171.67 727.865 16.5388)" gradientUnits="userSpaceOnUse"><stop offset="0" stop-color="#d7d7d7"/><stop offset="1" stop-color="#595959" stop-opacity="0"/></linearGradient><linearGradient id="g2" x1="0" x2="1" y1="0" y2="0" gradientTransform="matrix(6.25117 313.544 -425.327 4.60825 349.526 -49.1351)" gradientUnits="userSpaceOnUse"><stop offset="0" stop-color="#d7d7d7"/><stop offset="1" stop-color="#595959" stop-opacity="0"/></linearGradient><linearGradient id="g3" x1="0" x2="1" y1="0" y2="0" gradientTransform="matrix(-317.554 -0.986551 1.33827 -234.095 780.803 415.012)" gradientUnits="userSpaceOnUse"><stop offset="0" stop-color="#d7d7d7"/><stop offset="1" stop-color="#595959" stop-opacity="0"/></linearGradient><linearGradient id="g4" x1="0" x2="1" y1="0" y2="0" gradientTransform="matrix(-512.567 471.937 640.19 377.855 572.274 247.22)" gradientUnits="userSpaceOnUse"><stop offset="0" stop-color="#d7d7d7"/><stop offset="1" stop-color="#595959" stop-opacity="0"/></linearGradient></defs><g fill-rule="nonzero" stroke="none" opacity="1"><path fill="url(#g1)" d="M172.214 181.198C172.214 102.874 235.708 39.3804 314.032 39.3804L560.206 39.3804C638.53 39.3804 702.024 102.874 702.024 181.198L702.024 436.668C702.024 514.992 638.53 578.486 560.206 578.486L314.032 578.486C235.708 578.486 172.214 514.992 172.214 436.668L172.214 181.198Z"/><path fill="url(#g2)" d="M172.214 181.198C172.214 102.874 235.708 39.3804 314.032 39.3804L560.206 39.3804C638.53 39.3804 702.024 102.874 702.024 181.198L702.024 436.668C702.024 514.992 638.53 578.486 560.206 578.486L314.032 578.486C235.708 578.486 172.214 514.992 172.214 436.668L172.214 181.198Z"/><path fill="url(#g3)" d="M172.214 181.198C172.214 102.874 235.708 39.3804 314.032 39.3804L560.206 39.3804C638.53 39.3804 702.024 102.874 702.024 181.198L702.024 436.668C702.024 514.992 638.53 578.486 560.206 578.486L314.032 578.486C235.708 578.486 172.214 514.992 172.214 436.668L172.214 181.198Z"/><path fill="url(#g4)" d="M577.786 313.332C577.786 235.008 514.292 171.514 435.968 171.514L189.794 171.514C111.47 171.514 47.9757 235.008 47.9757 313.332L47.9757 568.802C47.9757 647.126 111.47 710.62 189.794 710.62L435.968 710.62C514.292 710.62 577.786 647.126 577.786 568.802L577.786 313.332Z"/></g></svg>