<svg width="100%" height="100%" viewBox="0 0 750 750" stroke-miterlimit="10" version="1.1" xml:space="preserve" xmlns="http://www.w3.org/2000/svg" xmlns:xlink="http://www.w3.org/1999/xlink"><defs><linearGradient id="LG1" gradientTransform="matrix(-512.567 471.937 640.19 377.855 531.945 285.695)" gradientUnits="userSpaceOnUse" x1="0" x2="1" y1="0" y2="0"><stop offset="0" stop-color="#d7d7d7"/><stop offset="1" stop-color="#595959" stop-opacity="0"/></linearGradient><linearGradient id="LG2" gradientTransform="matrix(1.02844 273.375 -370.838 0.758149 383.479 -64.6105)" gradientUnits="userSpaceOnUse" x1="0" x2="1" y1="0" y2="0"><stop offset="0" stop-color="#d7d7d7"/><stop offset="1" stop-color="#595959" stop-opacity="0"/></linearGradient><linearGradient id="LG3" gradientTransform="matrix(-322.554 316.316 -429.087 -237.781 728.351 13.0186)" gradientUnits="userSpaceOnUse" x1="0" x2="1" y1="0" y2="0"><stop offset="0" stop-color="#d7d7d7"/><stop offset="1" stop-color="#595959" stop-opacity="0"/></linearGradient><linearGradient id="LG4" gradientTransform="matrix(-337.622 1.36466 -1.85118 -248.889 821.132 376.537)" gradientUnits="userSpaceOnUse" x1="0" x2="1" y1="0" y2="0"><stop offset="0" stop-color="#d7d7d7"/><stop offset="1" stop-color="#595959" stop-opacity="0"/></linearGradient></defs><g fill-rule="nonzero" opacity="1" stroke="none"><path fill="url(#LG1)" d="M537.457 351.807C537.457 273.484 473.963 209.989 395.639 209.989L149.464 209.989C71.1404 209.989 7.64639 273.484 7.64639 351.807L7.64639 607.277C7.64639 685.601 71.1404 749.095 149.464 749.095L395.639 749.095C473.963 749.095 537.457 685.601 537.457 607.277L537.457 351.807Z"/><path fill="url(#LG2)" d="M212.543 142.723C212.543 64.3993 276.037 0.905233 354.361 0.905233L600.536 0.905233C678.86 0.905233 742.354 64.3993 742.354 142.723L742.354 398.193C742.354 476.516 678.86 540.011 600.536 540.011L354.361 540.011C276.037 540.011 212.543 476.516 212.543 398.193L212.543 142.723Z"/><path fill="url(#LG3)" d="M212.543 142.723C212.543 64.3993 276.037 0.905233 354.361 0.905233L600.536 0.905233C678.86 0.905233 742.354 64.3993 742.354 142.723L742.354 398.193C742.354 476.516 678.86 540.011 600.536 540.011L354.361 540.011C276.037 540.011 212.543 476.516 212.543 398.193L212.543 142.723Z"/><path fill="url(#LG4)" d="M212.543 142.723C212.543 64.3993 276.037 0.905233 354.361 0.905233L600.536 0.905233C678.86 0.905233 742.354 64.3993 742.354 142.723L742.354 398.193C742.354 476.516 678.86 540.011 600.536 540.011L354.361 540.011C276.037 540.011 212.543 476.516 212.543 398.193L212.543 142.723Z"/></g></svg>