<?xml version="1.0" encoding="UTF-8" standalone="no"?>
<!DOCTYPE svg PUBLIC "-//W3C//DTD SVG 1.1//EN" "http://www.w3.org/Graphics/SVG/1.1/DTD/svg11.dtd">
<!-- Created with Vectornator (http://vectornator.io/) -->
<svg height="100%" stroke-miterlimit="10" style="fill-rule:nonzero;clip-rule:evenodd;stroke-linecap:round;stroke-linejoin:round;" version="1.1" viewBox="0 0 750 750" width="100%" xml:space="preserve" xmlns="http://www.w3.org/2000/svg" xmlns:vectornator="http://vectornator.io" xmlns:xlink="http://www.w3.org/1999/xlink">
<defs>
<linearGradient gradientTransform="matrix(-259.575 150.793 -204.553 -191.354 786.074 43.0778)" gradientUnits="userSpaceOnUse" id="LinearGradient" x1="0" x2="1" y1="0" y2="0">
<stop offset="0" stop-color="#d7d7d7"/>
<stop offset="1" stop-color="#595959" stop-opacity="0"/>
</linearGradient>
<linearGradient gradientTransform="matrix(0.575463 336.729 -456.778 0.424222 349.526 -49.1351)" gradientUnits="userSpaceOnUse" id="LinearGradient_2" x1="0" x2="1" y1="0" y2="0">
<stop offset="0" stop-color="#d7d7d7"/>
<stop offset="1" stop-color="#595959" stop-opacity="0"/>
</linearGradient>
<linearGradient gradientTransform="matrix(-304.511 5.32718 -7.2264 -224.48 780.803 415.012)" gradientUnits="userSpaceOnUse" id="LinearGradient_3" x1="0" x2="1" y1="0" y2="0">
<stop offset="0" stop-color="#d7d7d7"/>
<stop offset="1" stop-color="#595959" stop-opacity="0"/>
</linearGradient>
<linearGradient gradientTransform="matrix(-512.567 471.937 640.19 377.855 572.274 247.22)" gradientUnits="userSpaceOnUse" id="LinearGradient_4" x1="0" x2="1" y1="0" y2="0">
<stop offset="0" stop-color="#d7d7d7"/>
<stop offset="1" stop-color="#595959" stop-opacity="0"/>
</linearGradient>
</defs>
<g id="Layer">
<g opacity="1">
<path d="M172.214 181.198C172.214 102.874 235.708 39.3804 314.032 39.3804L560.206 39.3804C638.53 39.3804 702.024 102.874 702.024 181.198L702.024 436.668C702.024 514.992 638.53 578.486 560.206 578.486L314.032 578.486C235.708 578.486 172.214 514.992 172.214 436.668L172.214 181.198Z" fill="url(#LinearGradient)" fill-rule="nonzero" opacity="1" stroke="none"/>
<path d="M172.214 181.198C172.214 102.874 235.708 39.3804 314.032 39.3804L560.206 39.3804C638.53 39.3804 702.024 102.874 702.024 181.198L702.024 436.668C702.024 514.992 638.53 578.486 560.206 578.486L314.032 578.486C235.708 578.486 172.214 514.992 172.214 436.668L172.214 181.198Z" fill="url(#LinearGradient_2)" fill-rule="nonzero" opacity="1" stroke="none"/>
<path d="M172.214 181.198C172.214 102.874 235.708 39.3804 314.032 39.3804L560.206 39.3804C638.53 39.3804 702.024 102.874 702.024 181.198L702.024 436.668C702.024 514.992 638.53 578.486 560.206 578.486L314.032 578.486C235.708 578.486 172.214 514.992 172.214 436.668L172.214 181.198Z" fill="url(#LinearGradient_3)" fill-rule="nonzero" opacity="1" stroke="none"/>
<path d="M577.786 313.332C577.786 235.008 514.292 171.514 435.968 171.514L189.794 171.514C111.47 171.514 47.9757 235.008 47.9757 313.332L47.9757 568.802C47.9757 647.126 111.47 710.62 189.794 710.62L435.968 710.62C514.292 710.62 577.786 647.126 577.786 568.802L577.786 313.332Z" fill="url(#LinearGradient_4)" fill-rule="nonzero" opacity="1" stroke="none"/>
</g>
</g>
</svg>
