<svg xmlns="http://www.w3.org/2000/svg" xmlns:xlink="http://www.w3.org/1999/xlink" width="100%" height="100%" stroke-miterlimit="10" version="1.1" viewBox="0.182 0.251 33.239 31.691" xml:space="preserve"><defs><filter id="Filter_SVGVectorText" width="32.842" height="30.036" x=".268" y="1.143" color-interpolation-filters="sRGB" filterUnits="userSpaceOnUse"><feDropShadow dx="-.621" dy="1.784" flood-color="#000" flood-opacity=".6" in="SourceGraphic" result="Shadow" stdDeviation=".914"/></filter><filter id="Filter_SVGVectorText_2" width="32.842" height="30.036" x=".578" y=".251" color-interpolation-filters="sRGB" filterUnits="userSpaceOnUse"><feDropShadow dx="-.311" dy=".892" flood-color="#000" flood-opacity=".6" in="SourceGraphic" result="Shadow" stdDeviation=".914"/></filter><radialGradient id="RadialGradient_SVGVectorText" cx="16" cy="21.483" r="12.488" gradientTransform="matrix(1 0 0 1 0 0)" gradientUnits="userSpaceOnUse"><stop offset="0" stop-color="#fff"/><stop offset=".755" stop-color="#e6e4e4"/><stop offset="1" stop-color="#c7c3c3"/></radialGradient><filter id="Filter_SVGVectorText_3" width="30.247" height="19.481" x=".182" y="12.461" color-interpolation-filters="sRGB" filterUnits="userSpaceOnUse"><feDropShadow dx="-.695" dy=".719" flood-color="#000" flood-opacity=".6" in="SourceGraphic" result="Shadow" stdDeviation="1.054"/></filter></defs><g id="SVGVectorText"><g id="SVGVectorText-2" opacity="1"><path id="SVGVectorText-74" fill="none" stroke="#9c27b0" stroke-linecap="round" stroke-linejoin="round" stroke-width="1.889" d="M23.8787 25.8234L30.5026 14.0331L23.9335 2.58774L10.7413 2.93092L4.11736 14.7212L10.6866 26.1666L23.8787 25.8234Z" filter="url(#Filter_SVGVectorText)" shadowAngle="1.906" shadowColor="#000000" shadowOffset="1.889" shadowOpacity=".6" shadowRadius="1.827"/><path id="SVGVectorText-75" fill="none" stroke="#9c27b0" stroke-linecap="round" stroke-linejoin="round" stroke-width="1.889" d="M30.5026 14.0331L22.3689 15.8899L23.9335 2.58774L13.3865 10.8434L10.6464 3.09979M23.8474 25.8791L22.1444 15.7637L10.6866 26.1666L13.3865 10.8434L4.11736 14.7212M21.9198 15.6375L13.162 10.7173" filter="url(#Filter_SVGVectorText_2)" shadowAngle="1.906" shadowColor="#000000" shadowOffset=".944" shadowOpacity=".6" shadowRadius="1.827"/></g><path id="SVGVectorText" fill="url(#RadialGradient_SVGVectorText)" fill-rule="nonzero" stroke="none" d="M4.73454 21.4816C3.40767 20.1479 3.14063 18.0898 4.08317 16.4616C5.02571 14.8334 6.9434 14.04 8.76078 14.5264C10.5782 15.0128 11.8432 16.658 11.8464 18.5393L9.40315 18.5393C9.39809 17.7639 8.87491 17.0876 8.12558 16.888C7.37624 16.6883 6.58595 17.0146 6.1957 17.6847C5.80545 18.3548 5.9117 19.2032 6.45516 19.7564C6.7845 20.0701 7.21863 20.2504 7.67335 20.2623C8.76609 20.3156 9.80643 20.7466 10.6168 21.4816C11.9482 22.8137 12.219 24.8739 11.2771 26.5049C10.3352 28.1358 8.41532 28.9309 6.5961 28.4433C4.77689 27.9558 3.51187 26.3073 3.51175 24.4239L5.95503 24.4239C5.95747 25.2009 6.48037 25.8798 7.23099 26.0806C7.98161 26.2814 8.77367 25.9542 9.16374 25.2822C9.55381 24.6102 9.44508 23.7602 8.89844 23.2079C8.55207 22.9208 8.12708 22.7449 7.67909 22.7032C6.59261 22.6196 5.56111 22.1917 4.73454 21.4816ZM20.1639 14.3777L17.2205 28.5877L14.7829 28.5877L11.8464 14.3777L14.2782 14.3777L15.9989 22.6998L17.7195 14.3777L20.1639 14.3777ZM24.3266 20.2634L28.4882 20.2634L28.4882 24.425C28.4882 26.7237 26.6248 28.5872 24.3261 28.5872C22.0274 28.5872 20.1639 26.7237 20.1639 24.425L20.1639 18.5393C20.1639 16.2406 22.0274 14.3772 24.3261 14.3772C26.6248 14.3772 28.4882 16.2406 28.4882 18.5393L26.0507 18.5393C26.0507 17.5875 25.2791 16.8159 24.3272 16.8159C23.3754 16.8159 22.6037 17.5875 22.6037 18.5393L22.6037 24.4239C22.6037 25.3757 23.3754 26.1473 24.3272 26.1473C25.2791 26.1473 26.0507 25.3757 26.0507 24.4239L26.0507 22.7032L24.3301 22.7032L24.3301 20.2634L24.3266 20.2634Z" filter="url(#Filter_SVGVectorText_3)" shadowAngle="2.339" shadowColor="#000000" shadowOffset="1" shadowOpacity=".6" shadowRadius="2.108"/></g></svg>