<svg xmlns="http://www.w3.org/2000/svg" xmlns:vectornator="http://vectornator.io" xmlns:xlink="http://www.w3.org/1999/xlink" height="100%" stroke-miterlimit="10" style="fill-rule:nonzero;clip-rule:evenodd;stroke-linecap:round;stroke-linejoin:round" width="100%" version="1.1" viewBox="1.583 2.84 96.835 94.329" xml:space="preserve"><defs><filter id="Filter_SVGVVECTORMUSTARD" width="94.409" height="92.292" x="2.233" y="4.877" color-interpolation-filters="sRGB" filterUnits="userSpaceOnUse"><feDropShadow dx="-.318" dy=".914" flood-color="#000" flood-opacity=".5" in="SourceGraphic" result="Shadow" stdDeviation="1.5"/></filter><filter id="Filter_SVGVVECTORMUSTARD_2" width="96.835" height="94.32" x="1.583" y="2.84" color-interpolation-filters="sRGB" filterUnits="userSpaceOnUse"><feDropShadow dx="0" dy="0" flood-color="#000" flood-opacity=".5" in="SourceGraphic" result="Shadow" stdDeviation=".967"/></filter></defs><g id="Layer-39" layerName="Layer-39"><g layerName="Group-4" opacity="1"><path fill="#cddc39" fill-rule="nonzero" stroke="none" d="M60.6653 92.4742L9.45921 85.1134C7.51775 84.8343 6.05985 82.9144 6.33514 80.9993L14.5594 23.7869C14.7315 22.59 15.6316 21.4977 16.7055 20.9191L46.2948 8.0695C47.6114 7.52578 48.5822 7.66532 49.7612 8.07913L78.8939 22.5288C79.8303 22.9077 80.4551 23.7305 80.8028 24.7578L92.973 60.7134C93.529 62.015 93.0799 63.4164 91.9371 64.4737L63.8184 91.2172C62.9527 92.07 61.8787 92.6486 60.6653 92.4742ZM14.1318 78.4552L59.7562 85.0137L85.0007 61.0333L74.3246 28.4688L47.9664 15.3953L21.5646 26.7485L14.1318 78.4552Z" filter="url(#Filter_SVGVVECTORMUSTARD)" layerName="path-45" shadowAngle="1.906" shadowColor="#000000" shadowOffset=".967" shadowOpacity=".5" shadowRadius="3"/><path fill="#827717" fill-rule="nonzero" stroke="none" d="M67.1779 88.5238C66.5929 92.5933 62.9907 95.2518 58.8651 94.6587C54.7395 94.0657 52.0319 90.5002 52.6169 86.4307C53.2019 82.3612 56.8041 79.7027 60.9297 80.2958C65.0554 80.8888 67.7629 84.4543 67.1779 88.5238ZM18.6413 81.5467C18.0563 85.6162 14.4541 88.2747 10.3285 87.6816C6.20291 87.0886 3.49537 83.5231 4.08037 79.4536C4.66536 75.3841 8.26758 72.7256 12.3932 73.3187C16.5188 73.9117 19.2263 77.4772 18.6413 81.5467ZM26.9 24.0949C26.315 28.1644 22.7128 30.8228 18.5872 30.2298C14.4616 29.6367 11.7541 26.0712 12.3391 22.0017C12.924 17.9322 16.5263 15.2738 20.6519 15.8668C24.7775 16.4599 27.485 20.0254 26.9 24.0949ZM55.6598 13.5693C55.0748 17.6388 51.4726 20.2973 47.347 19.7042C43.2214 19.1112 40.5138 15.5457 41.0988 11.4762C41.6838 7.40667 45.286 4.74821 49.4117 5.34126C53.5373 5.93432 56.2448 9.49981 55.6598 13.5693ZM83.7494 24.9371C83.1644 29.0066 79.5622 31.665 75.4366 31.072C71.311 30.4789 68.6034 26.9134 69.1884 22.8439C69.7734 18.7744 73.3757 16.116 77.5013 16.709C81.6269 17.3021 84.3344 20.8676 83.7494 24.9371ZM95.9196 60.8926C95.3346 64.9621 91.7324 67.6206 87.6068 67.0275C83.4812 66.4345 80.7737 62.869 81.3587 58.7995C81.9437 54.73 85.5459 52.0715 89.6715 52.6646C93.7971 53.2576 96.5046 56.8231 95.9196 60.8926Z" filter="url(#Filter_SVGVVECTORMUSTARD_2)" layerName="path-46" shadowAngle="1.906" shadowColor="#000000" shadowOffset="0" shadowOpacity=".5" shadowRadius="1.935"/></g></g></svg>