<svg width="100%" height="100%" viewBox="0.0002075 0.0002075 102.242 102.242" stroke-miterlimit="10" version="1.1" xml:space="preserve" xmlns="http://www.w3.org/2000/svg" xmlns:xlink="http://www.w3.org/1999/xlink"><defs>
<radialGradient cx="46.1611" cy="68.4494" gradientTransform="matrix(1 0 0 1 -0.51983 -0.99959)" gradientUnits="userSpaceOnUse" id="RadialGradient_SVGVectorYellow" r="94.6277">
<stop offset="0" stop-color="#ffd505"/>
<stop offset="0.246625" stop-color="#F5EC00"/>
<stop offset="0.590035" stop-color="#F5EC00"/>
<stop offset="1" stop-color="#99801a"/>
</radialGradient><filter color-interpolation-filters="sRGB" filterUnits="userSpaceOnUse" height="85.925" id="Filter_SVGVectorYellow" width="84.6645" x="8.50971" y="8.22792">
<feComponentTransfer in="SourceGraphic" result="Alpha">
<feFuncA slope="0.822158" type="linear"/>
</feComponentTransfer>
<feDropShadow dx="-0.732197" dy="0.758214" flood-color="#000000" flood-opacity="0.6" in="Alpha" result="Shadow" stdDeviation="1.05404"/></filter>
<radialGradient cx="25.1681" cy="79.3204" gradientTransform="matrix(1.05404 0 0 1.05404 -1.58085 -1.58085)" gradientUnits="userSpaceOnUse" id="RadialGradient_SVGVectorYellow_2" r="111.566">
<stop offset="0" stop-color="#aa1044"/>
<stop offset="0.651316" stop-color="#77167b"/>
<stop offset="0.869737" stop-color="#5b1a99"/>
<stop offset="0.988158" stop-color="#2e1fc9"/>
<stop offset="1" stop-color="#0a24ef"/>
</radialGradient><filter color-interpolation-filters="sRGB" filterUnits="userSpaceOnUse" height="90.3207" id="Filter_SVGVectorYellow_2" width="90.2814" x="5.25382" y="6.71738">
<feDropShadow dx="-0.732197" dy="0.758214" flood-color="#000000" flood-opacity="0.6" in="SourceGraphic" result="Shadow" stdDeviation="1.05404"/></filter>
<radialGradient cx="42.1594" cy="58.6236" gradientTransform="matrix(1.05404 0 0 1.05404 -1.58085 -1.58085)" gradientUnits="userSpaceOnUse" id="RadialGradient_SVGVectorYellow_3" r="55.5558">
<stop offset="0" stop-color="#ffffff"/>
<stop offset="0.755263" stop-color="#dcdbdb"/>
<stop offset="1" stop-color="#a2a2a2"/>
</radialGradient><filter color-interpolation-filters="sRGB" filterUnits="userSpaceOnUse" height="102.242" id="Filter_SVGVectorYellow_3" width="102.242" x="0.0002075" y="0.0002075">
<feDropShadow dx="-0" dy="0" flood-color="#000000" flood-opacity="0.6" in="SourceGraphic" result="Shadow" stdDeviation="1.05404"/></filter></defs>
<g id="SVGVectorYellow">
<g opacity="1" id="SVGVectorYellow-2"><path d="M14.6951 46.0073L11.877 89.6945L63.0321 90.7596L91.2713 54.2152L70.9913 21.9936L38.8102 10.1048L14.6951 46.0073Z" fill="url(#RadialGradient_SVGVectorYellow)" fill-rule="nonzero" filter="url(#Filter_SVGVectorYellow)" stroke="none" id="SVGVectorYellow-2" shadowAngle="2.33874" shadowColor="#000000" shadowOffset="1.05404" shadowOpacity="0.6" shadowRadius="2.10807"/><path d="M38.3408 8.69602C37.8998 8.83824 37.5256 9.14483 37.2538 9.55242L13.011 45.9167C12.8161 46.209 12.6804 46.555 12.6486 46.9049L8.63014 91.3391C8.51791 92.5736 9.46566 93.6448 10.7053 93.6448L63.2424 93.6448C63.893 93.6448 64.5229 93.3348 64.9223 92.8213C65.8062 91.685 92.2998 57.5934 93.1837 56.4571C93.7268 55.7588 93.7842 54.8027 93.3154 54.0525L73.124 21.7068C72.8785 21.3139 72.5038 21.013 72.07 20.8504L39.7242 8.72895C39.2656 8.55695 38.7818 8.55379 38.3408 8.69602ZM39.823 13.2745L69.896 24.5395L88.9346 55.0407C86.5701 58.0808 64.0615 87.0204 62.1884 89.4287L13.011 89.4287L16.8319 47.7942L39.823 13.2745Z" fill="url(#RadialGradient_SVGVectorYellow_2)" fill-rule="nonzero" filter="url(#Filter_SVGVectorYellow_2)" stroke="none" id="SVGVectorYellow-1" shadowAngle="2.33874" shadowColor="#000000" shadowOffset="1.05404" shadowOpacity="0.6" shadowRadius="2.10807"/><path d="M10.7162 83.4448C6.25327 83.4448 2.6353 87.0628 2.6353 91.5258C2.6353 95.9887 6.25327 99.6067 10.7162 99.6067C15.1792 99.6067 18.7972 95.9887 18.7972 91.5258C18.7972 87.0628 15.1792 83.4448 10.7162 83.4448ZM14.7567 38.9996C10.2937 38.9996 6.67578 42.6175 6.67578 47.0805C6.67578 51.5435 10.2937 55.1615 14.7567 55.1615C19.2197 55.1615 22.8377 51.5435 22.8377 47.0805C22.8377 42.6175 19.2197 38.9996 14.7567 38.9996ZM38.9996 2.6353C34.5366 2.6353 30.9186 6.25327 30.9186 10.7162C30.9186 15.1792 34.5366 18.7972 38.9996 18.7972C43.4626 18.7972 47.0805 15.1792 47.0805 10.7162C47.0805 6.25327 43.4626 2.6353 38.9996 2.6353ZM71.3234 14.7567C66.8604 14.7567 63.2424 18.3747 63.2424 22.8377C63.2424 27.3007 66.8604 30.9186 71.3234 30.9186C75.7864 30.9186 79.4043 27.3007 79.4043 22.8377C79.4043 18.3747 75.7864 14.7567 71.3234 14.7567ZM91.5258 47.0805C87.0628 47.0805 83.4448 50.6985 83.4448 55.1615C83.4448 59.6245 87.0628 63.2424 91.5258 63.2424C95.9887 63.2424 99.6067 59.6245 99.6067 55.1615C99.6067 50.6985 95.9887 47.0805 91.5258 47.0805ZM63.2424 83.4448C58.7794 83.4448 55.1615 87.0628 55.1615 91.5258C55.1615 95.9887 58.7794 99.6067 63.2424 99.6067C67.7054 99.6067 71.3234 95.9887 71.3234 91.5258C71.3234 87.0628 67.7054 83.4448 63.2424 83.4448Z" fill="url(#RadialGradient_SVGVectorYellow_3)" fill-rule="nonzero" filter="url(#Filter_SVGVectorYellow_3)" stroke="none" id="SVGVectorYellow-37" shadowAngle="2.33874" shadowColor="#000000" shadowOffset="0" shadowOpacity="0.6" shadowRadius="2.10807"/>
</g>
</g></svg>