<svg xmlns="http://www.w3.org/2000/svg" xmlns:vectornator="http://vectornator.io" xmlns:xlink="http://www.w3.org/1999/xlink" style="fill-rule:nonzero;clip-rule:evenodd;stroke-linecap:round;stroke-linejoin:round" width="100%" height="100%" stroke-miterlimit="10" version="1.1" viewBox="-0.247 0.943 99.965 99.997" xml:space="preserve"><defs><filter id="Filter_SVGVECTORGREEN" width="99.93" height="99.997" x="-.213" y=".943" color-interpolation-filters="sRGB" filterUnits="userSpaceOnUse"><feDropShadow dx="-.329" dy=".944" flood-color="#000" flood-opacity=".6" in="SourceGraphic" result="Shadow" stdDeviation=".967"/></filter><filter id="Filter_SVGVECTORGREEN_2" width="88.981" height="69.837" x="-.247" y="31.026" color-interpolation-filters="sRGB" filterUnits="userSpaceOnUse"><feDropShadow dx="-.329" dy=".944" flood-color="#000" flood-opacity=".6" in="SourceGraphic" result="Shadow" stdDeviation=".967"/></filter><filter id="Filter_SVGVECTORGREEN_3" width="99.837" height="99.837" x="-.247" y="1.026" color-interpolation-filters="sRGB" filterUnits="userSpaceOnUse"><feDropShadow dx="-.329" dy=".944" flood-color="#000" flood-opacity=".6" in="SourceGraphic" result="Shadow" stdDeviation=".967"/></filter></defs><g id="Layer-1" layerName="Layer-1"><g layerName="Group-1" opacity="1"><path fill="none" stroke="#0ce453" stroke-linecap="butt" stroke-linejoin="miter" stroke-width="4.93" d="M84.1438 20.4875L56.6563 5L25.4 10.5875L5 35L5 65.8925L25.4 89.7313L56.6563 95L84.1438 79.2313L95 49.805L84.1438 20.4875Z" filter="url(#Filter_SVGVECTORGREEN)" layerName="path-71" shadowAngle="1.906" shadowColor="#000000" shadowOffset="1" shadowOpacity=".6" shadowRadius="1.935"/><path fill="none" stroke="#0ce453" stroke-linecap="round" stroke-linejoin="round" stroke-width="5" d="M5 35L31.25 68.75L25.4 89.7313M84.1438 79.2313L72.5 61.25L31.25 68.75L56.6563 95" filter="url(#Filter_SVGVECTORGREEN_2)" layerName="path-72" shadowAngle="1.906" shadowColor="#000000" shadowOffset="1" shadowOpacity=".6" shadowRadius="1.935"/><path fill="none" stroke="#4dff87" stroke-linecap="round" stroke-linejoin="round" stroke-width="5" d="M95 50L72.5 61.25L56.6563 95M56.6563 5L46.25 35L25.4 10.5875L5 35L46.25 35L31.25 68.75L5 65.8925M72.5 61.25L46.25 35L84.1438 20.4875L72.5 61.25" filter="url(#Filter_SVGVECTORGREEN_3)" layerName="path-73" shadowAngle="1.906" shadowColor="#000000" shadowOffset="1" shadowOpacity=".6" shadowRadius="1.935"/></g></g></svg>