<svg height="100%" stroke-miterlimit="10" style="fill-rule:nonzero;clip-rule:evenodd;stroke-linecap:round;stroke-linejoin:round;" version="1.1" viewBox="0.214686 1.4935 98.9534 98.95" width="100%" xml:space="preserve" xmlns="http://www.w3.org/2000/svg" xmlns:vectornator="http://vectornator.io" xmlns:xlink="http://www.w3.org/1999/xlink">
<defs>
<filter color-interpolation-filters="sRGB" filterUnits="userSpaceOnUse" height="98.95" id="Filter" width="98.9534" x="0.214686" y="1.4935">
<feDropShadow dx="-0.328934" dy="0.944353" flood-color="#000000" flood-opacity="0.5" in="SourceGraphic" result="Shadow" stdDeviation="0.967373"/>
</filter>
<filter color-interpolation-filters="sRGB" filterUnits="userSpaceOnUse" height="98.7401" id="Filter_2" width="95.015" x="0.994848" y="1.63188">
<feDropShadow dx="-0" dy="0" flood-color="#000000" flood-opacity="0.5" in="SourceGraphic" result="Shadow" stdDeviation="0.967373"/>
</filter>
<filter color-interpolation-filters="sRGB" filterUnits="userSpaceOnUse" height="89.5869" id="Filter_3" width="86.7744" x="6.61282" y="5.21079">
<feDropShadow dx="-0" dy="0" flood-color="#000000" flood-opacity="0.5" in="SourceGraphic" result="Shadow" stdDeviation="0.967373"/>
</filter>
<filter color-interpolation-filters="sRGB" filterUnits="userSpaceOnUse" height="16.9583" id="Filter_4" width="11.3305" x="17.0823" y="74.4278">
<feDropShadow dx="-0" dy="0" flood-color="#000000" flood-opacity="0.5" in="SourceGraphic" result="Shadow" stdDeviation="0.967373"/>
</filter>
</defs>
<g id="Layer-25" layerName="Layer 25">
<g opacity="1" layerName="Group 1">
<path d="M85.955 21.792L65.3548 6.58766L39.7372 5L17.2386 17.5325L5 40.2069L6.90828 65.8231L22.3573 86.2489L46.4408 95L71.5142 89.2962L89.6169 70.9489L95 45.7855L85.955 21.792Z" fill="none" filter="url(#Filter)" stroke="#827717" stroke-linecap="butt" stroke-linejoin="miter" stroke-width="4" layerName="path 78" shadowAngle="1.90597" shadowColor="#000000" shadowOffset="1" shadowOpacity="0.5" shadowRadius="1.93475"/>
<path d="M40.9381 58.8481L54.0542 45.9697M39.6584 34.5509L53.6155 39.9495M52.6086 22.1577L57.0777 37.8753M72.8094 30.7583L63.2792 37.9541M77.7073 47.3478L63.7109 43.5678M65.03 65.8625L59.7791 46.8022M42.8 66.1395L59.9703 70.9531M81.8234 54.043L70.3766 67.7005M73.2945 71.6L89.8264 70.4328M68.5555 78.627L71.4172 89.1641M61.0109 77.7172L53.2062 84.0903M39.1888 70.565L46.0527 80.8391M34.063 38.8963L35.3792 58.7778M15.2277 52.0503L35.6816 64.3227M21.3631 74.5503L35.6816 64.3227M16.8617 60.1362L20.3773 69.9153M42.7438 83.8948L26.3525 76.6864M17.0755 26.4777L15.2136 47.9314M28.3353 37.7108L18.05 50.1153M18.8375 19.888L27.2595 27.7939M45.7545 18.9542L36.2961 28.272M69.3148 22.6527L54.5028 16.1023M83.3169 42.9505L79.4342 30.3842M41.7327 14.2616L24.2291 17.4495M56.4575 87.0828L70.1164 88.513M86.7144 54.5816L89.5339 70.0433M11.4772 58.1577L7.08125 65.8498M6.41328 42.5173L11.2845 48.245M67.5711 10.2355L75.9903 22.1633M56.1467 10.812L63.6716 7.05031M43.4131 8.83766L47.9581 11.4758M42.0519 88.1403L25.0686 86.5611M90.5914 46.8148L87.0167 48.4489M83.2944 23.443L80.7336 24.7241M47.0877 92.3858L46.1005 94.9536M16.0925 70.9053L8.83906 67.3883" fill="#cede35" fill-rule="nonzero" filter="url(#Filter_2)" stroke="#e5d446" stroke-dasharray="0.0,26.109504643460703,0.0,26.109504643460703" stroke-linecap="round" stroke-linejoin="miter" stroke-width="6" layerName="path 76" shadowAngle="1.90597" shadowColor="#000000" shadowOffset="0" shadowOpacity="0.5" shadowRadius="1.93475"/>
<path d="M66.875 69.6917C65.3217 69.6917 64.0625 70.9509 64.0625 72.5042C64.0625 74.0575 65.3217 75.3167 66.875 75.3167C68.4283 75.3167 69.6875 74.0575 69.6875 72.5042C69.6875 70.9509 68.4283 69.6917 66.875 69.6917ZM50 83.7542C48.4467 83.7542 47.1875 85.0134 47.1875 86.5667C47.1875 88.12 48.4467 89.3792 50 89.3792C51.5533 89.3792 52.8125 88.12 52.8125 86.5667C52.8125 85.0134 51.5533 83.7542 50 83.7542ZM21.875 71.098C20.3217 71.098 19.0625 72.3572 19.0625 73.9105C19.0625 75.4638 20.3217 76.723 21.875 76.723C23.4283 76.723 24.6875 75.4638 24.6875 73.9105C24.6875 72.3572 23.4283 71.098 21.875 71.098ZM35.9375 61.2542C34.3842 61.2542 33.125 62.5134 33.125 64.0667C33.125 65.62 34.3842 66.8792 35.9375 66.8792C37.4908 66.8792 38.75 65.62 38.75 64.0667C38.75 62.5134 37.4908 61.2542 35.9375 61.2542ZM85.1562 45.7855C83.6029 45.7855 82.3438 47.0447 82.3438 48.598C82.3438 50.1513 83.6029 51.4105 85.1562 51.4105C86.7096 51.4105 87.9688 50.1513 87.9688 48.598C87.9688 47.0447 86.7096 45.7855 85.1562 45.7855ZM58.4375 38.7542C56.8842 38.7542 55.625 40.0134 55.625 41.5667C55.625 43.12 56.8842 44.3792 58.4375 44.3792C59.9908 44.3792 61.25 43.12 61.25 41.5667C61.25 40.0134 59.9908 38.7542 58.4375 38.7542ZM14.8438 50.0042C13.2904 50.0042 12.0313 51.2634 12.0313 52.8167C12.0313 54.37 13.2904 55.6292 14.8438 55.6292C16.3971 55.6292 17.6562 54.37 17.6562 52.8167C17.6562 51.2634 16.3971 50.0042 14.8438 50.0042ZM33.125 28.9105C31.5717 28.9105 30.3125 30.1697 30.3125 31.723C30.3125 33.2763 31.5717 34.5355 33.125 34.5355C34.6783 34.5355 35.9375 33.2763 35.9375 31.723C35.9375 30.1697 34.6783 28.9105 33.125 28.9105ZM50 10.6292C48.4467 10.6292 47.1875 11.8884 47.1875 13.4417C47.1875 14.995 48.4467 16.2542 50 16.2542C51.5533 16.2542 52.8125 14.995 52.8125 13.4417C52.8125 11.8884 51.5533 10.6292 50 10.6292ZM78.125 23.2855C76.5717 23.2855 75.3125 24.5447 75.3125 26.098C75.3125 27.6513 76.5717 28.9105 78.125 28.9105C79.6783 28.9105 80.9375 27.6513 80.9375 26.098C80.9375 24.5447 79.6783 23.2855 78.125 23.2855Z" fill="#cede35" fill-rule="nonzero" filter="url(#Filter_3)" stroke="#cede35" stroke-dasharray="0.0,26.109504643460703,0.0,26.109504643460703" stroke-linecap="round" stroke-linejoin="miter" stroke-width="6" layerName="path 77" shadowAngle="1.90597" shadowColor="#000000" shadowOffset="0" shadowOpacity="0.5" shadowRadius="1.93475"/>
<path d="M22.5008 79.8463L22.9944 85.9677" fill="none" filter="url(#Filter_4)" stroke="#cede35" stroke-dasharray="0.0,26.109504643460703,0.0,26.109504643460703" stroke-linecap="round" stroke-linejoin="miter" stroke-width="6" layerName="path 79" shadowAngle="1.90597" shadowColor="#000000" shadowOffset="0" shadowOpacity="0.5" shadowRadius="1.93475"/>
</g>
</g>
</svg>
