<svg xmlns="http://www.w3.org/2000/svg" xmlns:vectornator="http://vectornator.io" xmlns:xlink="http://www.w3.org/1999/xlink" style="fill-rule:nonzero;clip-rule:evenodd;stroke-linecap:round;stroke-linejoin:round" width="100%" height="100%" stroke-miterlimit="10" version="1.1" viewBox="0 0 101.63 94.974" xml:space="preserve"><defs><linearGradient id="LinearGradient" x1="6.099" x2="97.099" y1="46.866" y2="46.866" gradientTransform="matrix(1 0 0 1 0 0)" gradientUnits="userSpaceOnUse"><stop offset="0" stop-color="#009159"/><stop offset=".063" stop-color="#00a55c"/><stop offset=".494" stop-color="#00ff82"/><stop offset="1" stop-color="#00af5a"/></linearGradient><filter id="Filter" width="101.63" height="94.974" x="0" y="0" color-interpolation-filters="sRGB" filterUnits="userSpaceOnUse"><feDropShadow dx="-.784" dy=".621" flood-color="#000" flood-opacity=".55" in="SourceGraphic" result="Shadow" stdDeviation="1.526"/></filter><filter id="Filter_2" width="101.63" height="94.974" x="0" y="0" color-interpolation-filters="sRGB" filterUnits="userSpaceOnUse"><feDropShadow dx="-.784" dy=".621" flood-color="#000" flood-opacity=".55" in="SourceGraphic" result="Shadow" stdDeviation="1.526"/></filter></defs><g opacity="1"><path fill="url(#LinearGradient)" fill-rule="nonzero" stroke="#000" stroke-linecap="round" stroke-linejoin="round" stroke-width="3" d="M6.09876 4.69391L36.4321 4.69391L36.4321 32.8086L6.09876 32.8086L6.09876 4.69391ZM36.4321 4.69391L66.7655 4.69391L66.7655 32.8086L36.4321 32.8086L36.4321 4.69391ZM36.4321 32.8086L66.7655 32.8086L66.7655 60.9232L36.4321 60.9232L36.4321 32.8086ZM36.4321 60.9232L66.7655 60.9232L66.7655 89.0379L36.4321 89.0379L36.4321 60.9232ZM66.7655 4.69391L97.0988 4.69391L97.0988 32.8086L66.7655 32.8086L66.7655 4.69391Z" filter="url(#Filter)" shadowAngle="2.471" shadowColor="#000000" shadowOffset="1" shadowOpacity=".55" shadowRadius="3.052"/><path fill="none" stroke="#000" stroke-linecap="round" stroke-linejoin="round" stroke-width="3" d="M6.09876 4.69391L36.4321 4.69391L36.4321 32.8086L6.09876 32.8086L6.09876 4.69391ZM36.4321 4.69391L66.7655 4.69391L66.7655 32.8086L36.4321 32.8086L36.4321 4.69391ZM36.4321 32.8086L66.7655 32.8086L66.7655 60.9232L36.4321 60.9232L36.4321 32.8086ZM36.4321 60.9232L66.7655 60.9232L66.7655 89.0379L36.4321 89.0379L36.4321 60.9232ZM66.7655 4.69391L97.0988 4.69391L97.0988 32.8086L66.7655 32.8086L66.7655 4.69391Z" filter="url(#Filter_2)" shadowAngle="2.471" shadowColor="#000000" shadowOffset="1" shadowOpacity=".55" shadowRadius="3.052"/></g></svg>