<svg height="100%" stroke-miterlimit="10" style="fill-rule:nonzero;clip-rule:evenodd;stroke-linecap:round;stroke-linejoin:round;" version="1.1" viewBox="0 0 100 100" width="100%" xml:space="preserve" xmlns="http://www.w3.org/2000/svg" xmlns:vectornator="http://vectornator.io" xmlns:xlink="http://www.w3.org/1999/xlink">
<defs>
<radialGradient cx="10.0249" cy="10.4444" gradientTransform="matrix(5.69537 0 0 -5.05069 -6.95365 102.82)" gradientUnits="userSpaceOnUse" id="RadialGradient" r="16.0472">
<stop offset="0" stop-color="#2622ff"/>
<stop offset="0.246625" stop-color="#1817ff"/>
<stop offset="0.590035" stop-color="#0002ca"/>
<stop offset="1" stop-color="#0400bf"/>
</radialGradient>
<radialGradient cx="10.0249" cy="10.4444" gradientTransform="matrix(5.69537 0 0 5.05069 -6.95365 -1.48721)" gradientUnits="userSpaceOnUse" id="RadialGradient_2" r="16.0472">
<stop offset="0.763158" stop-color="#ffffff"/>
<stop offset="0.882895" stop-color="#c3c3c3"/>
<stop offset="1" stop-color="#979797"/>
</radialGradient>
<filter color-interpolation-filters="sRGB" filterUnits="userSpaceOnUse" height="83.2097" id="Filter" width="103.626" x="-1.81292" y="13.9796">
<feDropShadow dx="-5.56118e-06" dy="1.51399" flood-color="#000000" flood-opacity="0.7" in="SourceGraphic" result="Shadow" stdDeviation="2.5"/>
</filter>
<radialGradient cx="50.3949" cy="60.6477" gradientTransform="matrix(1.38855 0 0 1.25333 -19.4277 -25.1039)" gradientUnits="userSpaceOnUse" id="RadialGradient_3" r="28.614">
<stop offset="0" stop-color="#2622ff"/>
<stop offset="0.246625" stop-color="#1817ff"/>
<stop offset="0.590035" stop-color="#0002ca"/>
<stop offset="1" stop-color="#0400bf"/>
</radialGradient>
<filter color-interpolation-filters="sRGB" filterUnits="userSpaceOnUse" height="57.9565" id="Filter_2" width="70.7009" x="14.6495" y="26.4353">
<feDropShadow dx="-4.93351e-06" dy="1.34311" flood-color="#000000" flood-opacity="0.7" in="SourceGraphic" result="Shadow" stdDeviation="2.01467"/>
</filter>
</defs>
<g id="Layer-4-copy" layerName="Layer 4 copy">
<g opacity="1" layerName="Group 1">
<path d="M10.1324 82.6171C7 82.6171 4.43709 80.3443 4.43709 77.5664L4.43709 16.9581C4.43709 14.1297 7 11.9074 10.1324 11.9074L89.8676 11.9074C93 11.9074 95.5629 14.1297 95.5629 16.9581L95.5629 77.5664C95.5629 80.3443 93 82.6171 89.8676 82.6171L10.1324 82.6171Z" fill="url(#RadialGradient)" fill-rule="nonzero" opacity="1" stroke="none" layerName="path 1"/>
<path d="M10.1324 18.7156C7 18.7156 4.43709 20.9884 4.43709 23.7663L4.43709 84.3746C4.43709 87.203 7 89.4253 10.1324 89.4253L89.8676 89.4253C93 89.4253 95.5629 87.203 95.5629 84.3746L95.5629 23.7663C95.5629 20.9884 93 18.7156 89.8676 18.7156L10.1324 18.7156Z" fill="url(#RadialGradient_2)" fill-rule="nonzero" filter="url(#Filter)" stroke="none" layerName="path 1" shadowAngle="1.5708" shadowColor="#000000" shadowOffset="1.51399" shadowOpacity="0.7" shadowRadius="5"/>
<path d="M19.6862 30.1289L19.6862 43.8097L42.4215 43.8097L42.4215 78.012L57.5785 78.012L57.5785 43.8097L80.3138 43.8097L80.3138 30.1289L19.6862 30.1289Z" fill="url(#RadialGradient_3)" fill-rule="nonzero" filter="url(#Filter_2)" stroke="none" layerName="Curve 2" shadowAngle="1.5708" shadowColor="#000000" shadowOffset="1.34311" shadowOpacity="0.7" shadowRadius="4.02933"/>
</g>
</g>
</svg>
