<svg xmlns="http://www.w3.org/2000/svg" xmlns:vectornator="http://vectornator.io" xmlns:xlink="http://www.w3.org/1999/xlink" style="fill-rule:nonzero;clip-rule:evenodd;stroke-linecap:round;stroke-linejoin:round" width="100%" height="100%" stroke-miterlimit="10" version="1.1" viewBox="0 0 100 100" xml:space="preserve"><defs><radialGradient id="RadialGradient" cx="10.025" cy="10.444" r="16.047" gradientTransform="matrix(5.69537 0 0 -5.05069 -6.95365 102.82)" gradientUnits="userSpaceOnUse"><stop offset="0" stop-color="#2622ff"/><stop offset=".247" stop-color="#1817ff"/><stop offset=".59" stop-color="#0002ca"/><stop offset="1" stop-color="#0400bf"/></radialGradient><radialGradient id="RadialGradient_2" cx="10.025" cy="10.444" r="16.047" gradientTransform="matrix(5.69537 0 0 5.05069 -6.95365 -1.48721)" gradientUnits="userSpaceOnUse"><stop offset=".763" stop-color="#fff"/><stop offset=".883" stop-color="#c3c3c3"/><stop offset="1" stop-color="#979797"/></radialGradient><filter id="Filter" width="103.626" height="83.21" x="-1.813" y="13.98" color-interpolation-filters="sRGB" filterUnits="userSpaceOnUse"><feDropShadow dx="0" dy="1.514" flood-color="#000" flood-opacity=".7" in="SourceGraphic" result="Shadow" stdDeviation="2.5"/></filter><radialGradient id="RadialGradient_3" cx="50.395" cy="60.648" r="28.614" gradientTransform="matrix(1.38855 0 0 1.25333 -19.4277 -25.1039)" gradientUnits="userSpaceOnUse"><stop offset="0" stop-color="#2622ff"/><stop offset=".247" stop-color="#1817ff"/><stop offset=".59" stop-color="#0002ca"/><stop offset="1" stop-color="#0400bf"/></radialGradient><filter id="Filter_2" width="70.701" height="57.956" x="14.649" y="26.435" color-interpolation-filters="sRGB" filterUnits="userSpaceOnUse"><feDropShadow dx="0" dy="1.343" flood-color="#000" flood-opacity=".7" in="SourceGraphic" result="Shadow" stdDeviation="2.015"/></filter></defs><g id="Layer-4-copy" layerName="Layer 4 copy"><g layerName="Group 1" opacity="1"><path fill="url(#RadialGradient)" fill-rule="nonzero" stroke="none" d="M10.1324 82.6171C7 82.6171 4.43709 80.3443 4.43709 77.5664L4.43709 16.9581C4.43709 14.1297 7 11.9074 10.1324 11.9074L89.8676 11.9074C93 11.9074 95.5629 14.1297 95.5629 16.9581L95.5629 77.5664C95.5629 80.3443 93 82.6171 89.8676 82.6171L10.1324 82.6171Z" layerName="path 1" opacity="1"/><path fill="url(#RadialGradient_2)" fill-rule="nonzero" stroke="none" d="M10.1324 18.7156C7 18.7156 4.43709 20.9884 4.43709 23.7663L4.43709 84.3746C4.43709 87.203 7 89.4253 10.1324 89.4253L89.8676 89.4253C93 89.4253 95.5629 87.203 95.5629 84.3746L95.5629 23.7663C95.5629 20.9884 93 18.7156 89.8676 18.7156L10.1324 18.7156Z" filter="url(#Filter)" layerName="path 1" shadowAngle="1.571" shadowColor="#000000" shadowOffset="1.514" shadowOpacity=".7" shadowRadius="5"/><path fill="url(#RadialGradient_3)" fill-rule="nonzero" stroke="none" d="M19.6862 30.1289L19.6862 43.8097L42.4215 43.8097L42.4215 78.012L57.5785 78.012L57.5785 43.8097L80.3138 43.8097L80.3138 30.1289L19.6862 30.1289Z" filter="url(#Filter_2)" layerName="Curve 2" shadowAngle="1.571" shadowColor="#000000" shadowOffset="1.343" shadowOpacity=".7" shadowRadius="4.029"/></g></g></svg>