<svg xmlns="http://www.w3.org/2000/svg" xmlns:vectornator="http://vectornator.io" xmlns:xlink="http://www.w3.org/1999/xlink" width="100%" height="100%" stroke-miterlimit="10" viewBox="0 0 100 100" style="fill-rule:nonzero;clip-rule:evenodd;stroke-linecap:round;stroke-linejoin:round" version="1.1" xml:space="preserve"><defs><linearGradient id="LinearGradient" x1="1.469" x2="70.719" y1="50" y2="50" gradientTransform="matrix(1.02584 0 0 1.02584 -0.506706 -1.29212)" gradientUnits="userSpaceOnUse"><stop offset="0" stop-color="#0003b3"/><stop offset="1" stop-color="#0004ff"/></linearGradient><filter id="Filter" width="78.54" height="87.259" x="-3.533" y="6.993" color-interpolation-filters="sRGB" filterUnits="userSpaceOnUse"><feDropShadow dx="-.783" dy=".623" flood-color="#000" flood-opacity=".55" in="SourceGraphic" result="Shadow" stdDeviation="1.5"/></filter><linearGradient id="LinearGradient_2" x1="81.957" x2="99" y1="50" y2="50" gradientTransform="matrix(1.02584 0 0 1.02584 -2.55839 -1.29212)" gradientUnits="userSpaceOnUse"><stop offset="0" stop-color="#cc00b9"/><stop offset=".67" stop-color="#a60095"/><stop offset="1" stop-color="#800073"/></linearGradient><filter id="Filter_2" width="24.984" height="94.92" x="76.984" y="3.163" color-interpolation-filters="sRGB" filterUnits="userSpaceOnUse"><feDropShadow dx="-.783" dy=".623" flood-color="#000" flood-opacity=".55" in="SourceGraphic" result="Shadow" stdDeviation="1.5"/></filter></defs><g layerName="Group 1" opacity="1"><g layerName="Table of Content" opacity="1"><path fill="url(#LinearGradient)" fill-rule="nonzero" stroke="none" d="M5.90481 80.0379C3.18634 80.0379 1 82.2563 1 84.9748C1 87.6933 3.18634 89.8796 5.90481 89.8796L67.1027 89.8796C69.8212 89.8796 72.0396 87.6933 72.0396 84.9748C72.0396 82.2563 69.8212 80.0379 67.1027 80.0379L5.90481 80.0379ZM5.90481 45.0631C3.18634 45.0631 1 47.2815 1 50C1 52.7185 3.18634 54.9369 5.90481 54.9369L67.1027 54.9369C69.8212 54.9369 72.0396 52.7185 72.0396 50C72.0396 47.2815 69.8212 45.0631 67.1027 45.0631L5.90481 45.0631ZM5.90481 10.1204C3.18634 10.1204 1 12.3067 1 15.0252C1 17.7437 3.18634 19.9621 5.90481 19.9621L67.1027 19.9621C69.8212 19.9621 72.0396 17.7437 72.0396 15.0252C72.0396 12.3067 69.8212 10.1204 67.1027 10.1204L5.90481 10.1204Z" filter="url(#Filter)" layerName="Curve 1" shadowAngle="2.47" shadowColor="#000000" shadowOffset="1" shadowOpacity=".55" shadowRadius="3"/><path fill="url(#LinearGradient_2)" fill-rule="nonzero" stroke="none" d="M83.3392 6.2902L97.1769 6.2902C98.1838 6.2902 99 7.10641 99 8.11327L99 21.951C99 22.9579 98.1838 23.7741 97.1769 23.7741L83.3392 23.7741C82.3323 23.7741 81.5161 22.9579 81.5161 21.951L81.5161 8.11327C81.5161 7.10641 82.3323 6.2902 83.3392 6.2902ZM83.3392 41.258L97.1769 41.258C98.1838 41.258 99 42.0743 99 43.0811L99 56.9189C99 57.9257 98.1838 58.742 97.1769 58.742L83.3392 58.742C82.3323 58.742 81.5161 57.9257 81.5161 56.9189L81.5161 43.0811C81.5161 42.0743 82.3323 41.258 83.3392 41.258ZM83.3392 76.2259L97.1769 76.2259C98.1838 76.2259 99 77.0421 99 78.049L99 91.8867C99 92.8936 98.1838 93.7098 97.1769 93.7098L83.3392 93.7098C82.3323 93.7098 81.5161 92.8936 81.5161 91.8867L81.5161 78.049C81.5161 77.0421 82.3323 76.2259 83.3392 76.2259Z" filter="url(#Filter_2)" layerName="path" shadowAngle="2.47" shadowColor="#000000" shadowOffset="1" shadowOpacity=".55" shadowRadius="3"/></g></g></svg>