<svg height="100%" stroke-miterlimit="10" style="fill-rule:nonzero;clip-rule:evenodd;stroke-linecap:round;stroke-linejoin:round;" version="1.1" viewBox="0 0 100 100" width="100%" xml:space="preserve" xmlns="http://www.w3.org/2000/svg" xmlns:vectornator="http://vectornator.io" xmlns:xlink="http://www.w3.org/1999/xlink">
<defs>
<filter color-interpolation-filters="sRGB" filterUnits="userSpaceOnUse" height="78.2987" id="Filter" width="104.372" x="-3.42339" y="12.0881">
<feDropShadow dx="-1.23744" dy="1.23743" flood-color="#000000" flood-opacity="0.55" in="SourceGraphic" result="Shadow" stdDeviation="2.27438"/>
</filter>
<filter color-interpolation-filters="sRGB" filterUnits="userSpaceOnUse" height="58.8533" id="Filter_2" width="57.7771" x="6.19086" y="21.993">
<feDropShadow dx="-1.41969" dy="1.41967" flood-color="#000000" flood-opacity="0.55" in="SourceGraphic" result="Shadow" stdDeviation="2.60934"/>
</filter>
</defs>
<clipPath id="ArtboardFrame">
<rect height="78.2987" width="104.372" x="-3.42339" y="12.0881"/>
</clipPath>
<g clip-path="url(#ArtboardFrame)" id="Layer" layerName="Layer">
<g opacity="1" layerName="Group 9">
<path d="M92.119 83.4634L7.88097 83.4634C6.71852 83.4652 5.60318 83.0042 4.78121 82.1822C3.95924 81.3602 3.49824 80.2449 3.50001 79.0824L3.50001 20.9176C3.49824 19.7551 3.95924 18.6398 4.78121 17.8178C5.60318 16.9958 6.71852 16.5348 7.88097 16.5366L92.119 16.5366C93.2815 16.5348 94.3968 16.9958 95.2188 17.8178C96.0408 18.6398 96.5018 19.7551 96.5 20.9176L96.5 79.0957C96.4991 80.2561 96.0368 81.3686 95.2151 82.1879C94.3933 83.0071 93.2794 83.466 92.119 83.4634Z" fill="#ffe7ac" fill-rule="nonzero" filter="url(#Filter)" stroke="none" layerName="path 1" shadowAngle="2.3562" shadowColor="#000000" shadowOffset="1.75" shadowOpacity="0.55" shadowRadius="4.54876"/>
<path d="M14.1339 37.9988C15.8971 36.8493 17.839 36.0007 19.8803 35.4877L19.8803 29.6765C20.775 29.1546 21.7245 28.7329 22.7116 28.419C24.3554 27.8319 26.0474 27.3895 27.7682 27.0967L30.2146 27.0967L30.2146 36.2079L39.6801 36.2079L39.6801 40.8644L30.2146 40.8644L30.2146 59.3382C30.0409 61.4434 30.4219 63.5574 31.3197 65.4694C32.1599 66.6582 33.5701 67.3088 35.0198 67.1766C35.9877 67.1673 36.9544 67.1062 37.9158 66.9937C38.9331 66.8857 39.9336 66.6554 40.8957 66.3078L41.3987 68.6703C40.8246 69.2026 40.1842 69.6586 39.4934 70.0269C38.5741 70.5514 37.6162 71.0049 36.6279 71.3835C35.487 71.8369 34.3106 72.195 33.1107 72.4543C31.8016 72.7405 30.4648 72.8811 29.1248 72.8734C26.5693 73.0809 24.045 72.1994 22.1743 70.4461C20.451 68.2077 19.6346 65.4021 19.8879 62.5886L19.8879 40.8301L14.1339 40.8301L14.1339 37.9988ZM46.6802 66.9784C46.6173 65.4242 47.2138 63.9158 48.3226 62.8249C49.5127 61.7408 51.0852 61.1746 52.6933 61.2511C54.3212 61.1803 55.9129 61.7446 57.1327 62.8249C58.2827 63.8939 58.9124 65.4092 58.8589 66.9784C58.9301 68.5409 58.2965 70.0528 57.1327 71.0977C55.897 72.1455 54.3121 72.6897 52.6933 72.6219C51.0933 72.704 49.5246 72.157 48.3226 71.0977C47.2147 70.0204 46.6175 68.5225 46.6802 66.9784Z" fill="#000000" fill-rule="nonzero" filter="url(#Filter_2)" stroke="none" layerName="path 2" shadowAngle="2.3562" shadowColor="#000000" shadowOffset="2.00773" shadowOpacity="0.55" shadowRadius="5.21869"/>
</g>
</g>
</svg>
