<svg xmlns="http://www.w3.org/2000/svg" xmlns:xlink="http://www.w3.org/1999/xlink" width="100%" height="100%" version="1.1" viewBox="0 0 100 100" xml:space="preserve"><defs><filter id="Filter_Template.T.SVG" width="95.584" height="81.657" x="2.208" y="11.171" color-interpolation-filters="sRGB" filterUnits="userSpaceOnUse"><feDropShadow dx="0" dy="2" flood-color="#000" flood-opacity=".45" in="SourceGraphic" result="Shadow" stdDeviation="1.94"/></filter><filter id="Filter_Template.T.SVG_2" width="97.906" height="83.978" x="1.047" y="10.011" color-interpolation-filters="sRGB" filterUnits="userSpaceOnUse"><feDropShadow dx="0" dy="2" flood-color="#000" flood-opacity=".45" in="SourceGraphic" result="Shadow" stdDeviation="1.94"/></filter><filter id="Filter_Template.T.SVG_3" width="42.197" height="46.839" x="10.332" y="37.865" color-interpolation-filters="sRGB" filterUnits="userSpaceOnUse"><feDropShadow dx="0" dy="2" flood-color="#000" flood-opacity=".45" in="SourceGraphic" result="Shadow" stdDeviation="1.94"/></filter><filter id="Filter_Template.T.SVG_4" width="79.336" height="23.627" x="10.332" y="19.296" color-interpolation-filters="sRGB" filterUnits="userSpaceOnUse"><feDropShadow dx="0" dy="2" flood-color="#000" flood-opacity=".45" in="SourceGraphic" result="Shadow" stdDeviation="1.94"/></filter><filter id="Filter_Template.T.SVG_5" width="42.197" height="46.839" x="47.471" y="37.865" color-interpolation-filters="sRGB" filterUnits="userSpaceOnUse"><feDropShadow dx="0" dy="2" flood-color="#000" flood-opacity=".45" in="SourceGraphic" result="Shadow" stdDeviation="1.94"/></filter></defs><g id="zxcv-1"><g id="zxcvGroup-1" opacity="1"><path id="zxcv" fill="#fff" stroke="none" d="M7.05778 14.0214L92.9422 14.0214L92.9422 85.9786L7.05778 85.9786L7.05778 14.0214Z" filter="url(#Filter_Template.T.SVG)" shadowAngle="1.571" shadowColor="#000000" shadowOffset="2" shadowOpacity=".45" shadowRadius="3.88"/><path id="zxcv-1" fill="#4788c7" stroke="none" d="M91.7816 15.182L91.7816 84.818L8.21838 84.818L8.21838 15.182L91.7816 15.182M94.1028 12.8608L5.89718 12.8608L5.89718 87.1392L94.1028 87.1392L94.1028 12.8608L94.1028 12.8608Z" filter="url(#Filter_Template.T.SVG_2)" shadowAngle="1.571" shadowColor="#000000" shadowOffset="2" shadowOpacity=".45" shadowRadius="3.88"/><path id="zxcv-2" fill="#f1065e" stroke="none" d="M15.182 40.7152L47.6788 40.7152L47.6788 77.8544L15.182 77.8544L15.182 40.7152Z" filter="url(#Filter_Template.T.SVG_3)" shadowAngle="1.571" shadowColor="#000000" shadowOffset="2" shadowOpacity=".45" shadowRadius="3.88"/><path id="zxcv-3" fill="#02f4a7" stroke="none" d="M15.182 36.0728L84.818 36.0728L84.818 22.1456L15.182 22.1456L15.182 36.0728Z" filter="url(#Filter_Template.T.SVG_4)" shadowAngle="1.571" shadowColor="#000000" shadowOffset="2" shadowOpacity=".45" shadowRadius="3.88"/></g><path id="zxcv-2" fill="#c213df" stroke="none" d="M52.3212 40.7152L84.818 40.7152L84.818 77.8544L52.3212 77.8544L52.3212 40.7152Z" filter="url(#Filter_Template.T.SVG_5)" shadowAngle="1.571" shadowColor="#000000" shadowOffset="2" shadowOpacity=".45" shadowRadius="3.88"/></g></svg>