<svg xmlns="http://www.w3.org/2000/svg" xmlns:vectornator="http://vectornator.io" xmlns:xlink="http://www.w3.org/1999/xlink" width="100%" height="100%" stroke-miterlimit="10" viewBox="-4.278 -2.127 106.99 106.5" style="fill-rule:nonzero;clip-rule:evenodd;stroke-linecap:round;stroke-linejoin:round" version="1.1" xml:space="preserve"><defs><filter id="Filter" width="106.99" height="106.5" x="-4.278" y="-2.127" color-interpolation-filters="sRGB" filterUnits="userSpaceOnUse"><feDropShadow dx="-.783" dy=".623" flood-color="#000" flood-opacity=".55" in="SourceGraphic" result="Shadow" stdDeviation="1.5"/></filter><linearGradient id="LinearGradient" x1="36.656" x2="98.75" y1="51" y2="51" gradientTransform="matrix(1.0102 0 0 1.0102 -0.0126531 -1.02041)" gradientUnits="userSpaceOnUse"><stop offset="0" stop-color="#7600ff"/><stop offset="1" stop-color="#4000a0"/></linearGradient><linearGradient id="LinearGradient_2" x1="23.823" x2="36.831" y1="88.232" y2="88.232" gradientTransform="matrix(2.46896 0 0 2.46896 -58.5644 -146.896)" gradientUnits="userSpaceOnUse"><stop offset="0" stop-color="#cc00b9"/><stop offset=".67" stop-color="#a60095"/><stop offset="1" stop-color="#800073"/></linearGradient><linearGradient id="LinearGradient_3" x1="26.029" x2="34.626" y1="69.846" y2="69.846" gradientTransform="matrix(2.64218 0 0 2.64218 -64.6398 -160.669)" gradientUnits="userSpaceOnUse"><stop offset="0" stop-color="#cc00b9"/><stop offset=".67" stop-color="#a60095"/><stop offset="1" stop-color="#800073"/></linearGradient></defs><g filter="url(#Filter)" layerName="Serif" shadowAngle="2.47" shadowColor="#000000" shadowOffset="1" shadowOpacity=".55" shadowRadius="3"><path fill="url(#LinearGradient)" fill-rule="nonzero" stroke="none" d="M76.0683 1C48.9795 1 49.3926 21.867 49.3926 21.867L49.3926 38.0619L48.5718 38.0619L38.9433 38.0619L37.0176 50.5L48.4456 50.5L49.3926 50.5L49.3926 90.5647L36.678 92.3427L36.6799 99.9881L86.5176 100L86.5176 92.3427L67.9551 90.1808L67.9551 50.5L86.3914 50.5L89.422 40.7136L90.369 38.0619L86.6439 38.0619L67.9551 38.0619L67.9551 18.9311C67.9551 18.9311 69.1555 13.375 74.1426 13.375C75.3894 13.375 76.391 13.666 77.2048 14.1011C78.0187 14.5361 78.6372 15.131 79.099 15.7111C79.8675 16.6767 80.0223 16.8555 80.3301 18.205C80.6379 19.5546 80.4545 21.0835 80.4248 22.1511C80.4199 22.3296 80.3301 22.5931 80.3301 22.5931L94.7887 20.5096L97.8193 20.1307L99.745 20.0045C99.745 20.0045 99.0606 19.6708 99.0821 18.7733C99.0906 18.4147 98.9862 17.9511 98.9242 17.479C98.956 12.9952 97.2027 1 76.0683 1Z" layerName="F" opacity="1"/><g layerName="I" opacity="1"><path fill="url(#LinearGradient_2)" fill-rule="nonzero" stroke="none" d="M32.3702 99.9881L1.63233 99.9881L1.63233 92.1559L7.94787 90.9028C8.98927 90.6939 9.74848 89.7471 9.74848 88.6471L9.74848 55.2716C9.74848 54.2342 9.07661 53.3292 8.11584 53.0577L0.255 50.8368L2.67372 41.8907L26.8475 41.8907L26.8475 89.3642C26.8475 90.4711 27.6067 91.4179 28.6548 91.6198L32.3702 92.3439C32.3702 92.3439 32.3702 100.35 32.3702 99.9881Z" layerName="path" opacity="1"/><path fill="url(#LinearGradient_3)" fill-rule="nonzero" stroke="none" d="M26.8475 23.8774C26.8475 18.0958 21.7628 13.4089 15.4905 13.4089C9.21819 13.4089 4.13349 18.0958 4.13349 23.8774C4.13349 29.659 9.21819 34.3459 15.4905 34.3459C21.7628 34.3459 26.8475 29.659 26.8475 23.8774Z" layerName="Oval 2" opacity="1"/></g></g></svg>