<svg xmlns="http://www.w3.org/2000/svg" xmlns:vectornator="http://vectornator.io" xmlns:xlink="http://www.w3.org/1999/xlink" width="100%" height="100%" stroke-miterlimit="10" viewBox="0 0 100 100" style="fill-rule:nonzero;clip-rule:evenodd;stroke-linecap:round;stroke-linejoin:round" version="1.1" xml:space="preserve"><defs><linearGradient id="LinearGradient" x1="35.032" x2="80.856" y1="87.23" y2="87.209" gradientTransform="matrix(1 0 0 1 -38.2754 -40)" gradientUnits="userSpaceOnUse"><stop offset=".291" stop-color="#ff503d"/><stop offset="1" stop-color="#ff1900"/></linearGradient><filter id="Filter" width="34.4" height="103" x="12.413" y="-.5" color-interpolation-filters="sRGB" filterUnits="userSpaceOnUse"><feDropShadow dx="0" dy="1" flood-color="#000" flood-opacity=".4" in="SourceGraphic" result="Shadow" stdDeviation="1"/></filter><linearGradient id="LinearGradient_2" x1="24.166" x2="45.241" y1="59.201" y2="90.475" gradientTransform="matrix(1 0 0 1 -38.2754 -40)" gradientUnits="userSpaceOnUse"><stop offset=".291" stop-color="#ff503d"/><stop offset="1" stop-color="#ff1900"/></linearGradient><filter id="Filter_2" width="37.667" height="15.889" x="1.525" y="21.278" color-interpolation-filters="sRGB" filterUnits="userSpaceOnUse"><feDropShadow dx="0" dy="1" flood-color="#000" flood-opacity=".4" in="SourceGraphic" result="Shadow" stdDeviation="1"/></filter><linearGradient id="LinearGradient_3" x1="71.135" x2="126.144" y1="90.417" y2="90" gradientTransform="matrix(1 0 0 1 -30.169 -40)" gradientUnits="userSpaceOnUse"><stop offset=".291" stop-color="#ff503d"/><stop offset="1" stop-color="#ff1900"/></linearGradient><filter id="Filter_3" width="34.4" height="103" x="64.075" y="-.5" color-interpolation-filters="sRGB" filterUnits="userSpaceOnUse"><feDropShadow dx="0" dy="1" flood-color="#000" flood-opacity=".4" in="SourceGraphic" result="Shadow" stdDeviation="1"/></filter><linearGradient id="LinearGradient_4" x1="67.721" x2="88.796" y1="59.201" y2="90.475" gradientTransform="matrix(1 0 0 1 -30.169 -40)" gradientUnits="userSpaceOnUse"><stop offset=".291" stop-color="#ff503d"/><stop offset="1" stop-color="#ff1900"/></linearGradient><filter id="Filter_4" width="37.667" height="15.889" x="53.187" y="21.278" color-interpolation-filters="sRGB" filterUnits="userSpaceOnUse"><feDropShadow dx="0" dy="1" flood-color="#000" flood-opacity=".4" in="SourceGraphic" result="Shadow" stdDeviation="1"/></filter></defs><g layerName="lowercase" opacity="1"><path fill="url(#LinearGradient)" fill-rule="nonzero" stroke="none" d="M31.2468 99L29.6134 99C21.4468 97.9111 14.9134 91.3778 14.9134 82.6667L14.9134 1L25.8023 1L25.8023 82.6667C25.8023 85.3889 27.9801 88.1111 31.2468 88.1111L32.3357 88.1111C35.0579 88.1111 37.7801 87.5667 39.9579 86.4778L44.3134 96.2778C40.5023 97.9111 36.1468 99 31.2468 99Z" filter="url(#Filter)" layerName="path" shadowAngle="1.571" shadowColor="#000000" shadowOffset="1" shadowOpacity=".4" shadowRadius="2"/><path fill="url(#LinearGradient_2)" fill-rule="nonzero" stroke="none" d="M4.02455 22.7778L36.6912 22.7778L36.6912 33.6667L4.02455 33.6667L4.02455 22.7778Z" filter="url(#Filter_2)" layerName="path 3" shadowAngle="1.571" shadowColor="#000000" shadowOffset="1" shadowOpacity=".4" shadowRadius="2"/><path fill="url(#LinearGradient_3)" fill-rule="nonzero" stroke="none" d="M82.9088 99L81.2754 99C73.1088 98.4556 66.5754 91.3778 66.5754 82.6667L66.5754 1L77.4643 1L77.4643 82.6667C77.4643 85.3889 79.6421 88.1111 82.9088 88.1111L83.9977 88.1111C86.7199 88.1111 89.4421 87.5667 91.6199 86.4778L95.9754 96.2778C92.1643 97.9111 87.8088 99 82.9088 99Z" filter="url(#Filter_3)" layerName="path 4" shadowAngle="1.571" shadowColor="#000000" shadowOffset="1" shadowOpacity=".4" shadowRadius="2"/><path fill="url(#LinearGradient_4)" fill-rule="nonzero" stroke="none" d="M55.6866 22.7778L88.3532 22.7778L88.3532 33.6667L55.6866 33.6667L55.6866 22.7778Z" filter="url(#Filter_4)" layerName="path 2" shadowAngle="1.571" shadowColor="#000000" shadowOffset="1" shadowOpacity=".4" shadowRadius="2"/></g></svg>