<svg xmlns="http://www.w3.org/2000/svg" xmlns:xlink="http://www.w3.org/1999/xlink" width="100%" height="100%" stroke-miterlimit="10" viewBox="0 0 100 100" style="fill-rule:nonzero;clip-rule:evenodd;stroke-linecap:round;stroke-linejoin:round" version="1.1" xml:space="preserve"><style>@keyframes line-bin1-lid{0%,20%,80%{transform:rotate(0)}40%,60%{transform:rotate(-40deg)}}.line-bin1{animation:line-bin1-lid 4s infinite;transform-origin:24px 48px}@media (prefers-reduced-motion:reduce){.line-bin1{animation:none}}</style><g id="Layer" class="Layer"><path fill="url(#LinearGradient)" fill-rule="nonzero" stroke="none" d="M28 48L72 48L72 94C72 96.2091 70.2091 98 68 98L32 98C29.7909 98 28 96.2091 28 94L28 48Z" class="bin-fill" opacity="1"/><path fill="none" stroke="#8d8d8d" stroke-linecap="round" stroke-linejoin="round" stroke-width="1" d="M28 48L72 48L72 94C72 96.2091 70.2091 98 68 98L32 98C29.7909 98 28 96.2091 28 94L28 48Z" class="bin-outline" opacity="1"/></g><g class="line-bin1" opacity="1"><path fill="url(#LinearGradient_2)" fill-rule="nonzero" stroke="none" d="M39 33L60 33C61.1046 33 62 33.8954 62 35L62 44C62 45.1046 61.1046 46 60 46L39 46C37.8954 46 37 45.1046 37 44L37 35C37 33.8954 37.8954 33 39 33Z" class="lid-handle-fill" opacity="1"/><path fill="none" stroke="#9a9a9a" stroke-linecap="round" stroke-linejoin="round" stroke-width=".75" d="M39.5285 33.6075L59.6043 33.6075C60.6603 33.6075 61.5163 34.4522 61.5163 35.4942L61.5163 43.9842C61.5163 45.0262 60.6603 45.4266 59.6043 45.4266L39.5285 45.4266C38.4725 45.4266 37.6165 45.0262 37.6165 43.9842L37.6165 35.4942C37.6165 34.4522 38.4725 33.6075 39.5285 33.6075Z" class="lid-handle-outline" opacity=".672"/><path fill="url(#LinearGradient_3)" fill-rule="nonzero" stroke="none" d="M26 42L73 42C74.1046 42 75 42.8954 75 44L75 48C75 49.1046 74.1046 50 73 50L26 50C24.8954 50 24 49.1046 24 48L24 44C24 42.8954 24.8954 42 26 42Z" class="lid-base-fill" opacity="1"/><path fill="none" stroke="#9a9a9a" stroke-linecap="round" stroke-linejoin="round" stroke-width=".75" d="M26 42L73 42C74.1046 42 75 42.8954 75 44L75 48C75 49.1046 74.1046 50 73 50L26 50C24.8954 50 24 49.1046 24 48L24 44C24 42.8954 24.8954 42 26 42Z" class="lid-base-outline" opacity="1"/></g><path fill="url(#LinearGradient_4)" fill-rule="nonzero" stroke="none" d="M50 53.3125C48.5161 53.3125 47.3125 54.5161 47.3125 56L47.3125 90C47.3125 91.4839 48.5161 92.6875 50 92.6875C51.4839 92.6875 52.6875 91.4839 52.6875 90L52.6875 56C52.6875 54.5161 51.4839 53.3125 50 53.3125Z" class="stroke-line-right" opacity="1"/><path fill="url(#LinearGradient_5)" fill-rule="nonzero" stroke="none" d="M59.9321 53.3125C58.4481 53.3125 57.2446 54.5161 57.2446 56L57.2446 90C57.2446 91.4839 58.4481 92.6875 59.9321 92.6875C61.416 92.6875 62.6195 91.4839 62.6196 90L62.6196 56C62.6196 54.5161 61.416 53.3125 59.9321 53.3125Z" class="stroke-line-middle" opacity="1"/><path fill="url(#LinearGradient_6)" fill-rule="nonzero" stroke="none" d="M40.0035 53.3125C38.5196 53.3125 37.316 54.5161 37.316 56L37.316 90C37.316 91.4839 38.5196 92.6875 40.0035 92.6875C41.4874 92.6875 42.691 91.4839 42.691 90L42.691 56C42.691 54.5161 41.4874 53.3125 40.0035 53.3125Z" class="stroke-line-left" opacity="1"/><defs><linearGradient id="LinearGradient" x1="28.5" x2="72.5" y1="57.5" y2="57.5" gradientTransform="matrix(1 0 0 1 -0.5 15.5)" gradientUnits="userSpaceOnUse"><stop offset="0" stop-color="#7a7a7a"/><stop offset=".496" stop-color="#fff"/><stop offset=".496" stop-color="#fff"/><stop offset="1" stop-color="#7a7a7a"/></linearGradient><linearGradient id="LinearGradient_2" x1="37.5" x2="62.5" y1="24" y2="24" gradientTransform="matrix(1 0 0 1 -0.5 15.5)" gradientUnits="userSpaceOnUse"><stop offset="0" stop-color="#7a7a7a"/><stop offset=".496" stop-color="#fff"/><stop offset=".496" stop-color="#fff"/><stop offset="1" stop-color="#7a7a7a"/></linearGradient><linearGradient id="LinearGradient_3" x1="24.5" x2="75.5" y1="30.5" y2="30.5" gradientTransform="matrix(1 0 0 1 -0.5 15.5)" gradientUnits="userSpaceOnUse"><stop offset="0" stop-color="#7a7a7a"/><stop offset=".496" stop-color="#fff"/><stop offset=".496" stop-color="#fff"/><stop offset="1" stop-color="#7a7a7a"/></linearGradient><linearGradient id="LinearGradient_4" x1="45.356" x2="53.779" y1="64.438" y2="64.529" gradientTransform="matrix(1 0 0 1 -0.496501 15.5)" gradientUnits="userSpaceOnUse"><stop offset="0" stop-color="#7a7a7a"/><stop offset=".496" stop-color="#fff"/><stop offset=".496" stop-color="#fff"/><stop offset="1" stop-color="#7a7a7a"/></linearGradient><linearGradient id="LinearGradient_5" x1="55.288" x2="63.712" y1="64.438" y2="64.529" gradientTransform="matrix(1 0 0 1 -0.496501 15.5)" gradientUnits="userSpaceOnUse"><stop offset="0" stop-color="#7a7a7a"/><stop offset=".496" stop-color="#fff"/><stop offset=".496" stop-color="#fff"/><stop offset="1" stop-color="#7a7a7a"/></linearGradient><linearGradient id="LinearGradient_6" x1="35.359" x2="43.783" y1="64.438" y2="64.529" gradientTransform="matrix(1 0 0 1 -0.496501 15.5)" gradientUnits="userSpaceOnUse"><stop offset="0" stop-color="#7a7a7a"/><stop offset=".496" stop-color="#fff"/><stop offset=".496" stop-color="#fff"/><stop offset="1" stop-color="#7a7a7a"/></linearGradient></defs></svg>