<svg xmlns="http://www.w3.org/2000/svg" xmlns:xlink="http://www.w3.org/1999/xlink" style="fill-rule:nonzero;clip-rule:evenodd;stroke-linecap:round;stroke-linejoin:round" width="100%" height="100%" stroke-miterlimit="10" version="1.1" viewBox="0 0 100 100" xml:space="preserve"><defs><filter id="Filter" width="60.75" height="62.75" x="19.625" y="44.884" color-interpolation-filters="sRGB" filterUnits="userSpaceOnUse"><feDropShadow dx="0" dy="3.259" flood-color="#000" flood-opacity=".51" in="SourceGraphic" result="Shadow" stdDeviation="2.15"/></filter><filter id="Filter_2" width="56.38" height="57.288" x="21.104" y="44.493" color-interpolation-filters="sRGB" filterUnits="userSpaceOnUse"><feDropShadow dx="-.207" dy=".156" flood-color="#000" flood-opacity=".71" in="SourceGraphic" result="Shadow" stdDeviation=".65"/></filter><filter id="Filter_3" width="43.69" height="40.85" x="28.911" y="55.541" color-interpolation-filters="sRGB" filterUnits="userSpaceOnUse"><feDropShadow dx="-.207" dy=".156" flood-color="#000" flood-opacity=".71" in="SourceGraphic" result="Shadow" stdDeviation=".65"/></filter><filter id="Filter_4" width="33.25" height="33.23" x="33.168" y="55.541" color-interpolation-filters="sRGB" filterUnits="userSpaceOnUse"><feDropShadow dx="-.207" dy=".156" flood-color="#000" flood-opacity=".71" in="SourceGraphic" result="Shadow" stdDeviation=".65"/></filter><filter id="Filter_5" width="33.25" height="33.232" x="33.168" y="55.54" color-interpolation-filters="sRGB" filterUnits="userSpaceOnUse"><feDropShadow dx="-.207" dy=".156" flood-color="#000" flood-opacity=".71" in="SourceGraphic" result="Shadow" stdDeviation=".65"/></filter><filter id="Filter_6" width="68.25" height="19.25" x="15.875" y="34.134" color-interpolation-filters="sRGB" filterUnits="userSpaceOnUse"><feDropShadow dx="0" dy="2.259" flood-color="#000" flood-opacity=".51" in="SourceGraphic" result="Shadow" stdDeviation="1.65"/></filter><filter id="Filter_7" width="65.25" height="21.25" x="17.168" y="28.531" color-interpolation-filters="sRGB" filterUnits="userSpaceOnUse"><feDropShadow dx="-.207" dy=".156" flood-color="#000" flood-opacity=".71" in="SourceGraphic" result="Shadow" stdDeviation=".65"/></filter></defs><style id="lid animation">@keyframes base-and-handle-lid{0%,20%,80%{transform:rotate(0)}40%,60%{transform:rotate(-40deg)}}.base-and-handle{animation:base-and-handle-lid 4s infinite;transform-origin:24px 48px}@media (prefers-reduced-motion:reduce){.base-and-handle{animation:none}}</style><path fill="none" fill-rule="nonzero" stroke="none" d="M0 0L100 0L100 100L0 100L0 0Z" opacity="0"/><clipPath id="ArtboardFrame"><rect width="100" height="100" x="0" y="0"/></clipPath><g id="TRASHCAN" clip-path="url(#ArtboardFrame)" opacity="1"><g id="bin" opacity="1"><path id="bin-fill" fill="#8195da" fill-rule="nonzero" stroke="none" d="M25 47L28.645 94.383C28.845 96.988 31.017 99 33.63 99L66.37 99C68.983 99 71.155 96.988 71.355 94.383L75 47" filter="url(#Filter)" opacity="1"/><path id="bin-outline" fill="#000" fill-rule="nonzero" stroke="none" d="M23 48L24.074 48L27.648 94.46C27.887 97.566 30.515 100 33.63 100L66.37 100C69.486 100 72.114 97.566 72.352 94.46L75.926 48C75.926 48 20.794 48 23 48ZM70.358 94.307C70.199 96.378 68.447 98 66.37 98L33.63 98C31.553 98 29.801 96.378 29.642 94.307L26.08 48L28.085 48L30.432 78.546C30.452 78.809 30.671 79.008 30.93 79.008C30.943 79.008 30.956 79.008 30.969 79.007C31.244 78.986 31.45 78.745 31.429 78.47L29.088 48L70.912 48L70.651 51.392C70.63 51.667 70.836 51.908 71.111 51.929C71.124 51.93 71.137 51.93 71.15 51.93C71.409 51.93 71.628 51.731 71.648 51.469L71.915 48L73.92 48L70.358 94.307ZM75.9679 48.0359L76.066 46.1978L23.9651 45.9618L24.0971 48.0424C22.9941 48.0424 75.9679 48.0359 75.9679 48.0359Z" filter="url(#Filter_2)" opacity="1"/><path id="bin-accents" fill="#000" fill-rule="nonzero" stroke="none" d="M31.204 82.053C30.929 82.074 30.723 82.315 30.744 82.59L31.632 94.148C31.652 94.411 31.871 94.61 32.13 94.61C32.143 94.61 32.156 94.61 32.169 94.609C32.444 94.588 32.65 94.347 32.629 94.072L31.74 82.514C31.719 82.238 31.477 82.028 31.204 82.053ZM70.721 57.012C70.445 56.988 70.205 57.197 70.184 57.472L68.415 80.491C68.394 80.766 68.6 81.007 68.875 81.028C68.888 81.029 68.901 81.029 68.914 81.029C69.173 81.029 69.392 80.83 69.412 80.567L71.181 57.548C71.202 57.274 70.996 57.033 70.721 57.012Z" filter="url(#Filter_3)" opacity="1"/></g><g id="X" opacity="1"><path id="x-fill-red" fill="#f10924" fill-rule="nonzero" stroke="none" d="M64.41 83.58C64.79 83.95 65 84.46 65 84.99C65 85.52 64.79 86.03 64.41 86.4C64.04 86.78 63.53 86.99 63 86.99C62.47 86.99 61.96 86.78 61.59 86.4L50 74.82L38.41 86.4C37.66 87.16 36.34 87.16 35.59 86.4C35.21 86.03 35 85.52 35 84.99C35 84.46 35.21 83.95 35.59 83.58L47.17 71.99L35.59 60.4C35.21 60.03 35 59.52 35 58.99C35 58.46 35.21 57.95 35.59 57.58C36.34 56.82 37.66 56.82 38.41 57.58L50 69.16L61.59 57.58C62.34 56.82 63.66 56.82 64.41 57.58C64.79 57.95 65 58.46 65 58.99C65 59.52 64.79 60.03 64.41 60.4L52.83 71.99L64.41 83.58Z" filter="url(#Filter_4)" opacity="1"/><path id="x-outline" fill="#000" fill-rule="nonzero" stroke="none" d="M65 58.99C65 58.456 64.792 57.954 64.414 57.576C63.658 56.82 62.342 56.82 61.586 57.576L50 69.162L38.414 57.576C37.658 56.82 36.342 56.82 35.586 57.576C35.208 57.954 35 58.456 35 58.99C35 59.524 35.208 60.026 35.586 60.404L47.172 71.99L35.586 83.576C35.208 83.954 35 84.456 35 84.99C35 85.524 35.208 86.026 35.586 86.404C36.342 87.16 37.658 87.16 38.414 86.404L50 74.819L61.586 86.405C61.964 86.783 62.466 86.991 63 86.991C63.534 86.991 64.036 86.783 64.414 86.405C64.792 86.027 65 85.525 65 84.99C65 84.455 64.792 83.954 64.414 83.576L52.828 71.99L64.414 60.404C64.792 60.027 65 59.525 65 58.99ZM63.707 59.698L51.768 71.637C51.573 71.832 51.573 72.149 51.768 72.344L63.707 84.283C64.097 84.673 64.097 85.307 63.707 85.697C63.329 86.074 62.671 86.074 62.293 85.697L50.354 73.758C50.256 73.66 50.128 73.612 50 73.612C49.872 73.612 49.744 73.661 49.646 73.758L37.707 85.698C37.329 86.075 36.671 86.075 36.293 85.698C35.903 85.308 35.903 84.674 36.293 84.284L48.232 72.345C48.427 72.15 48.427 71.833 48.232 71.638L36.293 59.698C35.903 59.308 35.903 58.674 36.293 58.284C36.683 57.893 37.317 57.893 37.707 58.284L49.646 70.223C49.841 70.418 50.158 70.418 50.353 70.223L62.292 58.284C62.682 57.893 63.316 57.893 63.706 58.284C64.097 58.673 64.097 59.308 63.707 59.698Z" filter="url(#Filter_5)" opacity="1"/></g><g id="base-and-handle" class="base-and-handle" opacity="1"><path id="lid-outline" fill="#a4a4ff" fill-rule="nonzero" stroke="none" d="M77 41L73 41L71.165 37.942C70.442 36.737 69.14 36 67.735 36L32.265 36C30.86 36 29.558 36.737 28.835 37.942L27 41L23 41C21.343 41 20 42.343 20 44C20 45.657 21.343 47 23 47L77 47C78.657 47 80 45.657 80 44C80 42.343 78.657 41 77 41Z" filter="url(#Filter_6)" opacity="1"/><path id="lid-fill" fill="#000" fill-rule="nonzero" stroke="none" d="M77 40L73.566 40L72.022 37.427C71.125 35.93 69.481 35 67.735 35L57 35L57 33C57 31.346 55.654 30 54 30L46 30C44.346 30 43 31.346 43 33L43 35L32.265 35C30.519 35 28.876 35.93 27.978 37.427L26.434 40L23 40C20.794 40 19 41.794 19 44C19 46.206 20.794 48 23 48L24.074 48L75.926 48L77 48C79.206 48 81 46.206 81 44C81 41.794 79.206 40 77 40ZM45 33C45 32.449 45.449 32 46 32L54 32C54.551 32 55 32.449 55 33L55 35L45 35L45 33ZM26.08 48L28.085 48L29.088 48L70.912 48L71.915 48L73.92 48L26.08 48ZM77 46L23 46C21.897 46 21 45.103 21 44C21 42.897 21.897 42 23 42L25.5 42L27 42L61.5 42C61.776 42 62 41.776 62 41.5C62 41.224 61.776 41 61.5 41L28.166 41L29.692 38.457C30.231 37.558 31.217 37 32.265 37L67.736 37C68.784 37 69.769 37.558 70.308 38.457L71.834 41L68.5 41C68.224 41 68 41.224 68 41.5C68 41.776 68.224 42 68.5 42L73 42L73.5 42L77 42C78.103 42 79 42.897 79 44C79 45.103 78.103 46 77 46Z" filter="url(#Filter_7)" opacity="1"/></g></g></svg>