<svg xmlns="http://www.w3.org/2000/svg" xmlns:vectornator="http://vectornator.io" xmlns:xlink="http://www.w3.org/1999/xlink" width="100%" height="100%" viewBox="0 0 100 100" xml:space="preserve"><defs><filter id="Filter" width="101.921" height="101.921" x="-.961" y="-.961" color-interpolation-filters="sRGB" filterUnits="userSpaceOnUse"><feDropShadow dx="0" dy="0" flood-color="#000" flood-opacity=".55" in="SourceGraphic" result="Shadow" stdDeviation="1.5"/></filter><filter id="Filter_2" width="76.277" height="41.562" x="11.127" y="29.761" color-interpolation-filters="sRGB" filterUnits="userSpaceOnUse"><feDropShadow dx="-.735" dy=".542" flood-color="#000" flood-opacity=".55" in="SourceGraphic" result="Shadow" stdDeviation="1.369"/></filter><filter id="Filter_3" width="76.603" height="76.601" x="10.964" y="12.242" color-interpolation-filters="sRGB" filterUnits="userSpaceOnUse"><feDropShadow dx="-.735" dy=".542" flood-color="#000" flood-opacity=".55" in="SourceGraphic" result="Shadow" stdDeviation="1.369"/></filter></defs><g id="Layer" layerName="Layer"><g layerName="Group 12" opacity="1"><path fill="#9c27b0" d="M2.78926 13.2805C2.78926 7.51033 7.51033 2.78926 13.2805 2.78926L86.7195 2.78926C92.4897 2.78926 97.2107 7.51033 97.2107 13.2805L97.2107 86.7195C97.2107 92.4897 92.4897 97.2107 86.7195 97.2107L13.2805 97.2107C7.51033 97.2107 2.78926 92.4897 2.78926 86.7195L2.78926 13.2805Z" filter="url(#Filter)" layerName="path" shadowAngle="-1.571" shadowColor="#000000" shadowOffset="0" shadowOpacity=".55" shadowRadius="3"/><path fill="#fff" d="M15.285 58.6787L84.715 58.6787L84.715 67.3575L15.285 67.3575L15.285 58.6787ZM15.285 32.6425L84.715 32.6425L84.715 41.3213L15.285 41.3213L15.285 32.6425Z" filter="url(#Filter_2)" layerName="path 1" shadowAngle="2.506" shadowColor="#000000" shadowOffset=".913" shadowOpacity=".55" shadowRadius="2.739"/><path fill="#e1bee7" d="M15.122 21.2599L21.2587 15.123L84.878 78.7401L78.7413 84.877L15.122 21.2599Z" filter="url(#Filter_3)" layerName="path 2" shadowAngle="2.506" shadowColor="#000000" shadowOffset=".913" shadowOpacity=".55" shadowRadius="2.739"/></g></g></svg>