<svg width="100%" height="100%" viewBox="0 0 100 100" xml:space="preserve" xmlns="http://www.w3.org/2000/svg" xmlns:vectornator="http://vectornator.io" xmlns:xlink="http://www.w3.org/1999/xlink">
<defs>
<filter color-interpolation-filters="sRGB" filterUnits="userSpaceOnUse" height="23.2387" id="Filter" width="96.2752" x="1.39359" y="5.54877">
<feDropShadow dx="-0.46881" dy="1.28804" flood-color="#000000" flood-opacity="0.55" in="SourceGraphic" result="Shadow" stdDeviation="1.37071"/>
</filter>
<filter color-interpolation-filters="sRGB" filterUnits="userSpaceOnUse" height="100.566" id="Filter_2" width="105.277" x="-3.10714" y="1.00528">
<feDropShadow dx="-0.46881" dy="1.28804" flood-color="#000000" flood-opacity="0.55" in="SourceGraphic" result="Shadow" stdDeviation="1.37071"/>
</filter>
<filter color-interpolation-filters="sRGB" filterUnits="userSpaceOnUse" height="55.023" id="Filter_3" width="60.2368" x="19.8816" y="30.2603">
<feDropShadow dx="8.27826e-17" dy="1.35194" flood-color="#000000" flood-opacity="0.55" in="SourceGraphic" result="Shadow" stdDeviation="2.02791"/>
</filter>
<filter color-interpolation-filters="sRGB" filterUnits="userSpaceOnUse" height="54.4952" id="Filter_4" width="20.2863" x="72.2828" y="31.2333">
<feDropShadow dx="6.12323e-17" dy="1" flood-color="#000000" flood-opacity="0.55" in="SourceGraphic" result="Shadow" stdDeviation="1.5"/>
</filter>
<filter color-interpolation-filters="sRGB" filterUnits="userSpaceOnUse" height="54.5004" id="Filter_5" width="20.2863" x="7.43094" y="31.2281">
<feDropShadow dx="6.12323e-17" dy="1" flood-color="#000000" flood-opacity="0.55" in="SourceGraphic" result="Shadow" stdDeviation="1.5"/>
</filter>
</defs>
<g opacity="1" layerName="Group 4">
<path d="M1.04642 4.78662L96.9536 4.78662L96.9536 95.2134L1.04642 95.2134L1.04642 4.78662Z" fill="#ffffff" fill-opacity="0.117698" opacity="1" layerName="path"/>
<path d="M5.77187 7.6875L94.2281 7.6875C94.4947 7.6875 94.7108 7.9179 94.7108 8.20211L94.7108 23.5581C94.7108 23.8423 94.4947 24.0727 94.2281 24.0727L5.77187 24.0727C5.50528 24.0727 5.28917 23.8423 5.28917 23.5581L5.28917 8.20211C5.28917 7.9179 5.50528 7.6875 5.77187 7.6875Z" fill="#69e4fd" fill-opacity="0.977788" filter="url(#Filter)" layerName="path 2" shadowAngle="1.91986" shadowColor="#000000" shadowOffset="1.37071" shadowOpacity="0.55" shadowRadius="2.74142"/>
<path d="M93.8805 9.85072L93.8805 86.888C93.8805 88.6875 92.4217 90.1462 90.6222 90.1462L9.38119 90.1462C7.58173 90.1462 6.12297 88.6875 6.12297 86.888L6.12297 13.1089C6.12297 11.3095 7.58173 9.85072 9.38119 9.85072L93.8805 9.85072M99.2116 3.14401L0.78844 3.14401L0.78844 96.856L99.2116 96.856L99.2116 3.14401L99.2116 3.14401Z" fill="#4788c7" filter="url(#Filter_2)" layerName="path 1" shadowAngle="1.91986" shadowColor="#000000" shadowOffset="1.37071" shadowOpacity="0.55" shadowRadius="2.74142"/>
<g opacity="1" layerName="Group 1">
<path d="M75.0486 40.3995C75.0486 42.8993 74.3016 44.8898 72.8015 46.3645C71.3013 47.8393 69.4712 48.5799 67.3112 48.5799C66.0164 48.5799 64.7403 48.408 63.4829 48.0641C62.2317 47.7202 61.1424 47.3764 60.2211 47.0325C59.7916 47.3499 59.1567 48.0377 58.3226 49.1024C57.4822 50.1671 56.5423 51.4567 55.4841 52.9777C56.4489 57.3754 57.2332 60.4968 57.8308 62.3485C58.4222 64.1936 58.9886 66.0717 59.524 67.9697C59.9846 69.4775 60.6631 70.6612 61.547 71.5143C62.4434 72.3674 63.844 72.7907 65.7674 72.7907C66.4708 72.7907 67.3485 72.6518 68.4005 72.3608C69.4587 72.0765 70.324 71.7855 70.9963 71.5011L70.0999 75.3963C67.4232 76.6131 65.0889 77.4926 63.097 78.0349C61.0988 78.5904 59.3185 78.8615 57.7499 78.8615C56.6107 78.8615 55.4965 78.7425 54.3823 78.5177C53.2742 78.2862 52.2596 77.8696 51.3508 77.2678C50.3548 76.6329 49.5082 75.8459 48.8173 74.9069C48.1326 73.9546 47.5412 72.632 47.0557 70.939C46.7258 69.8809 46.427 68.6707 46.1593 67.3216C45.8854 65.9725 45.6115 64.7755 45.3376 63.7439C44.5533 64.9872 43.9868 65.8998 43.6382 66.5016C43.2834 67.11 42.773 67.9565 42.1007 69.0476C39.9656 72.5195 38.1106 74.9928 36.542 76.4742C34.9733 77.9555 33.0934 78.6896 30.9085 78.6896C29.2589 78.6896 27.8584 78.101 26.6943 76.9239C25.5303 75.7467 24.9514 74.2125 24.9514 72.3211C24.9514 69.7618 25.6984 67.7515 27.1985 66.2635C28.7049 64.7888 30.535 64.0481 32.7075 64.0481C34.0022 64.0481 35.2472 64.2134 36.4424 64.5441C37.6375 64.8747 38.758 65.2385 39.81 65.6419C40.2146 65.2914 40.8495 64.6234 41.7023 63.6116C42.5551 62.613 43.4764 61.3632 44.4786 59.8686C43.576 56.0263 42.8477 53.1232 42.275 51.1723C41.6961 49.2214 41.1172 47.2838 40.5196 45.3593C40.0341 43.8251 39.3307 42.6347 38.4094 41.8015C37.4944 40.955 36.1125 40.5384 34.2761 40.5384C33.4607 40.5384 32.5581 40.6905 31.5559 40.9881C30.5537 41.2923 29.7196 41.57 29.0473 41.8279L29.9374 37.9328C32.3713 36.7755 34.6683 35.9025 36.8408 35.3272C39.0194 34.7452 40.8371 34.4609 42.2937 34.4609C43.6196 34.4609 44.7525 34.5667 45.6987 34.7651C46.6386 34.9635 47.6408 35.3933 48.6866 36.0546C49.6576 36.6829 50.5042 37.4831 51.2201 38.442C51.9359 39.4009 52.5273 40.7169 52.9817 42.3834C53.3178 43.5341 53.6166 44.7245 53.8905 45.9545C54.1644 47.1978 54.3947 48.2559 54.5877 49.1421C55.1541 48.2228 55.7455 47.2772 56.3493 46.2984C56.9531 45.3197 57.476 44.46 57.9055 43.7127C59.9908 40.2408 61.852 37.7476 63.5016 36.2398C65.145 34.7254 67.0062 33.9781 69.0853 33.9781C70.7846 33.9781 72.2039 34.5733 73.343 35.7637C74.4822 36.9606 75.0486 38.5081 75.0486 40.3995Z" fill="#ffffff" filter="url(#Filter_3)" layerName="path 6" shadowAngle="1.5708" shadowColor="#000000" shadowOffset="1.35194" shadowOpacity="0.55" shadowRadius="4.05583"/>
<path d="M82.0599 55.99C82.0599 61.3637 81.4843 66.0481 80.3379 70.0431C79.661 72.4088 78.2014 76.1009 76.0328 80.9785L81.4015 80.9785C83.9154 76.4351 85.6513 72.8683 86.5077 70.4086C88.0501 66.0951 88.8191 61.1861 88.8191 55.6871C88.8191 53.5877 88.6533 51.4048 88.3172 49.1331C87.9811 46.8667 87.4193 44.5689 86.632 42.2502C86.0104 40.3754 85.4303 38.8975 84.9008 37.8269C84.5831 37.195 83.8694 35.8581 82.8472 33.9833L77.2944 33.9833C78.5652 36.9339 79.5137 39.3884 80.0708 41.2475C81.3969 45.7021 82.0599 50.6215 82.0599 55.99Z" fill="#54ff6a" filter="url(#Filter_4)" layerName="path 1" shadowAngle="1.5708" shadowColor="#000000" shadowOffset="1" shadowOpacity="0.55" shadowRadius="3"/>
<path d="M17.9447 55.99C17.9447 61.3637 18.5203 66.0481 19.6667 70.0431C20.3436 72.4088 21.7986 76.1009 23.9672 80.9785L18.5985 80.9785C16.0846 76.4351 14.3487 72.8683 13.4923 70.4086C11.9499 66.0951 11.1809 61.1861 11.1809 55.6871C11.1809 53.5877 11.3467 51.4048 11.6828 49.1331C12.0189 46.8667 12.5807 44.5689 13.368 42.2502C13.9896 40.3754 14.5697 38.8975 15.0992 37.8269C15.4215 37.1898 16.1306 35.8529 17.1574 33.9781L22.7102 33.9781C21.4394 36.9287 20.4909 39.3832 19.9338 41.2423C18.6077 45.7021 17.9447 50.6215 17.9447 55.99Z" fill="#54ff6a" filter="url(#Filter_5)" layerName="path 3" shadowAngle="1.5708" shadowColor="#000000" shadowOffset="1" shadowOpacity="0.55" shadowRadius="3"/>
</g>
</g>
</svg>