<svg fill="none" xmlns="http://www.w3.org/2000/svg" viewBox="0 0 447 512"><path d="M442.811 309.089a21.14 21.14 0 00-27.458-4.393L223.151 445.827v6.041a19.769 19.769 0 110 39.264 20.322 20.322 0 0012.356-4.118l203.459-150.193a20.868 20.868 0 003.845-27.732z" fill="#669DF6"/><path d="M223.151 491.132a19.768 19.768 0 010-39.264v-6.041L30.949 304.696a20.87 20.87 0 00-27.458 4.393 20.32 20.32 0 004.393 27.458l203.46 150.192a20.045 20.045 0 0012.081 4.119l-.274.274z" fill="#AECBFA"/><path d="M223.151 431.275a40.36 40.36 0 00-39.587 48.237 40.367 40.367 0 0031.713 31.712 40.356 40.356 0 0041.434-17.162 40.366 40.366 0 00-5.02-50.965 40.362 40.362 0 00-28.54-11.822zm0 59.857a19.767 19.767 0 01-13.879-33.845 19.768 19.768 0 0133.648 14.351 19.495 19.495 0 01-19.769 19.494z" fill="#4285F4"/><path d="M58.406 95.47a20.868 20.868 0 01-20.593-20.593v-51.62a20.868 20.868 0 1141.46 0v51.62a20.868 20.868 0 01-20.867 20.594zM57.857 278.062c11.525 0 20.868-9.342 20.868-20.867s-9.343-20.868-20.868-20.868c-11.525 0-20.868 9.343-20.868 20.868 0 11.525 9.343 20.867 20.868 20.867zM57.857 217.382c11.525 0 20.868-9.343 20.868-20.868 0-11.525-9.343-20.868-20.868-20.868-11.525 0-20.868 9.343-20.868 20.868 0 11.525 9.343 20.868 20.868 20.868zM57.857 156.426c11.525 0 20.868-9.343 20.868-20.868 0-11.525-9.343-20.867-20.868-20.867-11.525 0-20.868 9.342-20.868 20.867s9.343 20.868 20.868 20.868z" fill="#AECBFA"/><path d="M387.896 155.876a20.865 20.865 0 01-20.593-20.867v-51.62a20.592 20.592 0 1141.186 0v51.62a20.595 20.595 0 01-20.593 20.867zM388.445 278.337c11.524 0 20.867-9.343 20.867-20.867 0-11.525-9.343-20.868-20.867-20.868-11.525 0-20.868 9.343-20.868 20.868 0 11.524 9.343 20.867 20.868 20.867zM388.445 216.558c11.524 0 20.867-9.343 20.867-20.868 0-11.525-9.343-20.867-20.867-20.867-11.525 0-20.868 9.342-20.868 20.867s9.343 20.868 20.868 20.868zM388.445 44.125c11.524 0 20.867-9.343 20.867-20.867 0-11.525-9.343-20.868-20.867-20.868-11.525 0-20.868 9.343-20.868 20.867 0 11.525 9.343 20.868 20.868 20.868z" fill="#4285F4"/><path d="M223.151 339.568a20.87 20.87 0 01-20.593-20.593v-52.444a20.867 20.867 0 0141.461 0v51.895a20.874 20.874 0 01-20.868 21.142zM223.151 400.248c11.525 0 20.868-9.342 20.868-20.867s-9.343-20.868-20.868-20.868c-11.525 0-20.868 9.343-20.868 20.868 0 11.525 9.343 20.867 20.868 20.867zM223.151 226.992c11.525 0 20.868-9.343 20.868-20.868 0-11.525-9.343-20.867-20.868-20.867-11.525 0-20.868 9.342-20.868 20.867s9.343 20.868 20.868 20.868zM223.151 166.036c11.525 0 20.868-9.342 20.868-20.867s-9.343-20.868-20.868-20.868c-11.525 0-20.868 9.343-20.868 20.868 0 11.525 9.343 20.867 20.868 20.867z" fill="#669DF6"/><path d="M305.523 217.107a20.872 20.872 0 01-14.483-6.11 20.872 20.872 0 01-6.11-14.483v-51.62a20.87 20.87 0 0129.266-21.432 20.865 20.865 0 0112.195 21.432v51.62a20.87 20.87 0 01-20.868 20.593zM305.798 104.806c11.525 0 20.867-9.343 20.867-20.868 0-11.525-9.342-20.867-20.867-20.867s-20.868 9.342-20.868 20.867 9.343 20.868 20.868 20.868zM305.798 338.194c11.525 0 20.867-9.343 20.867-20.867 0-11.525-9.342-20.868-20.867-20.868s-20.868 9.343-20.868 20.868c0 11.524 9.343 20.867 20.868 20.867zM305.798 277.239c11.525 0 20.867-9.342 20.867-20.867s-9.342-20.868-20.867-20.868-20.868 9.343-20.868 20.868c0 11.525 9.343 20.867 20.868 20.867z" fill="#4285F4"/><path d="M140.504 338.194c11.525 0 20.868-9.343 20.868-20.867 0-11.525-9.343-20.868-20.868-20.868-11.525 0-20.868 9.343-20.868 20.868 0 11.524 9.343 20.867 20.868 20.867zM140.504 166.036c11.525 0 20.868-9.342 20.868-20.867s-9.343-20.868-20.868-20.868c-11.525 0-20.868 9.343-20.868 20.868 0 11.525 9.343 20.867 20.868 20.867zM140.504 104.806c11.525 0 20.868-9.343 20.868-20.868 0-11.525-9.343-20.867-20.868-20.867-11.525 0-20.868 9.342-20.868 20.867s9.343 20.868 20.868 20.868zM140.779 277.239a20.867 20.867 0 01-20.868-20.044v-52.169a20.594 20.594 0 0141.186 0v52.169a20.594 20.594 0 01-20.318 20.044z" fill="#AECBFA"/></svg>