<svg viewBox="0 0 32 32" xmlns="http://www.w3.org/2000/svg" xmlns:xlink="http://www.w3.org/1999/xlink" fill="currentColor" width="100%" height="100%"><linearGradient id="g" gradientUnits="userSpaceOnUse" x1="16" x2="16" y1="26.813" y2="29.953"><stop offset="0" stop-color="#302243"></stop><stop offset="1" stop-color="#2f2243"></stop></linearGradient><linearGradient id="h" gradientUnits="userSpaceOnUse" x1="16" x2="16" y1="9.969" y2="26.875"><stop offset="0" stop-color="#635ea6"></stop><stop offset=".974" stop-color="#553e71"></stop></linearGradient><linearGradient id="i" gradientUnits="userSpaceOnUse" x1="16" x2="16" y1="16.156" y2="23.063"><stop offset="0" stop-color="#dfdbe3"></stop><stop offset="1" stop-color="#dfdbe5"></stop></linearGradient><linearGradient id="a"><stop offset="0" stop-color="#b1aeb4"></stop><stop offset="1" stop-color="#b0adb4"></stop></linearGradient><linearGradient id="j" gradientUnits="userSpaceOnUse" x1="15.656" x2="18.555" xlink:href="#a" y1="18.52" y2="18.52"></linearGradient><linearGradient id="k" gradientUnits="userSpaceOnUse" x1="15.656" x2="18.555" xlink:href="#a" y1="20.48" y2="20.48"></linearGradient><linearGradient id="b"><stop offset=".13" stop-color="#746882"></stop><stop offset="1" stop-color="#d7d3db" stop-opacity="0"></stop></linearGradient><linearGradient id="q" gradientUnits="userSpaceOnUse" x1="23.946" x2="23.946" xlink:href="#b" y1="14.734" y2="15.828"></linearGradient><linearGradient id="t" gradientUnits="userSpaceOnUse" x1="8.054" x2="8.054" xlink:href="#b" y1="14.734" y2="15.828"></linearGradient><linearGradient id="c"><stop offset="0" stop-color="#53416e"></stop><stop offset="1" stop-color="#402b5d"></stop></linearGradient><linearGradient id="u" gradientUnits="userSpaceOnUse" x1="22.312" x2="20.547" xlink:href="#c" y1="18.984" y2="18.984"></linearGradient><linearGradient id="x" gradientUnits="userSpaceOnUse" x1="8.865" x2="12.419" xlink:href="#c" y1="18.984" y2="18.984"></linearGradient><linearGradient id="d"><stop offset="0" stop-color="#676072"></stop><stop offset="1" stop-color="#8f8996"></stop></linearGradient><linearGradient id="A" gradientUnits="userSpaceOnUse" x1="21.016" x2="22.301" xlink:href="#d" y1="20.77" y2="20.77"></linearGradient><linearGradient id="B" gradientUnits="userSpaceOnUse" x1="10.984" x2="8.474" xlink:href="#d" y1="20.77" y2="19.009"></linearGradient><linearGradient id="E" gradientUnits="userSpaceOnUse" x1="10.984" x2="10.139" y1="19.71" y2="19.726"><stop offset="0" stop-color="#67636c"></stop><stop offset="1" stop-color="#9b999f" stop-opacity="0"></stop></linearGradient><linearGradient id="F" gradientUnits="userSpaceOnUse" x1="25.406" x2="26.877" y1="23.063" y2="20.063"><stop offset="0" stop-color="#a9a6ae"></stop><stop offset="1" stop-color="#8d8a92"></stop></linearGradient><linearGradient id="G" gradientUnits="userSpaceOnUse" x1="6.08" x2="6.08" y1="19.203" y2="23.063"><stop offset="0" stop-color="#544d61"></stop><stop offset="1" stop-color="#67626e"></stop></linearGradient><linearGradient id="I" gradientUnits="userSpaceOnUse" x1="14.734" x2="15.906" y1="12.56" y2="13.516"><stop offset="0" stop-color="#676198"></stop><stop offset="1" stop-color="#676198" stop-opacity="0"></stop></linearGradient><radialGradient id="l" cx="0" cy="0" gradientTransform="matrix(4.4375 0 0 6.69528 24.594 19.906)" gradientUnits="userSpaceOnUse" r="1"><stop offset=".651" stop-color="#3b2b52"></stop><stop offset="1" stop-color="#100523"></stop></radialGradient><radialGradient id="m" cx="0" cy="0" gradientTransform="matrix(.3912 -8.44331 12.73923 .59023 5.312 22.856)" gradientUnits="userSpaceOnUse" r="1"><stop offset="0" stop-color="#3b2b52"></stop><stop offset=".688" stop-color="#38294f"></stop><stop offset="1" stop-color="#100523"></stop></radialGradient><radialGradient id="n" cx="0" cy="0" gradientTransform="matrix(-3.25996 2.02118 -2.44735 -3.94733 8.148 20.346)" gradientUnits="userSpaceOnUse" r="1"><stop offset=".52" stop-color="#1a0f2a"></stop><stop offset="1" stop-color="#1a0f2a" stop-opacity="0"></stop></radialGradient><linearGradient id="e"><stop offset="0" stop-color="#d4d0d8"></stop><stop offset="1" stop-color="#d6d2da"></stop></linearGradient><radialGradient id="p" cx="0" cy="0" gradientTransform="matrix(-3.31253 5.74998 -4.13211 -2.38049 26.25 17.312)" gradientUnits="userSpaceOnUse" r="1" xlink:href="#e"></radialGradient><radialGradient id="s" cx="0" cy="0" gradientTransform="matrix(3.3125 5.75 -4.13213 2.38046 5.75 17.313)" gradientUnits="userSpaceOnUse" r="1" xlink:href="#e"></radialGradient><linearGradient id="f"><stop offset=".825" stop-color="#4d3968" stop-opacity="0"></stop><stop offset=".977" stop-color="#291745"></stop></linearGradient><radialGradient id="v" cx="0" cy="0" gradientTransform="matrix(2.51795 -4.54111 3.8475 2.13336 20.334 20.215)" gradientUnits="userSpaceOnUse" r="1" xlink:href="#f"></radialGradient><radialGradient id="w" cx="0" cy="0" gradientTransform="matrix(0 1.27139 -1.45069 0 21.302 19.792)" gradientUnits="userSpaceOnUse" r="1"><stop offset="0" stop-color="#493466"></stop><stop offset="1" stop-color="#493466" stop-opacity="0"></stop></radialGradient><radialGradient id="y" cx="0" cy="0" gradientTransform="matrix(-2.51791 -4.54113 3.84752 -2.13333 11.666 20.215)" gradientUnits="userSpaceOnUse" r="1" xlink:href="#f"></radialGradient><radialGradient id="z" cx="0" cy="0" gradientTransform="matrix(0 1.82558 -1.98125 0 10.772 19.384)" gradientUnits="userSpaceOnUse" r="1"><stop offset=".46" stop-color="#2e2043"></stop><stop offset="1" stop-color="#4a3666" stop-opacity="0"></stop></radialGradient><filter id="o" color-interpolation-filters="sRGB" filterUnits="userSpaceOnUse" height="8.156" width="5.861" x="21.016" y="14.906"><feFlood flood-opacity="0" result="BackgroundImageFix"></feFlood><feBlend in="SourceGraphic" in2="BackgroundImageFix" result="shape"></feBlend><feColorMatrix in="SourceAlpha" result="hardAlpha" values="0 0 0 0 0 0 0 0 0 0 0 0 0 0 0 0 0 0 127 0"></feColorMatrix><feOffset dx="-.02" dy="-.02"></feOffset><feComposite in2="hardAlpha" k2="-1" k3="1" operator="arithmetic"></feComposite><feColorMatrix values="0 0 0 0 0.866667 0 0 0 0 0.854902 0 0 0 0 0.886275 0 0 0 1 0"></feColorMatrix><feBlend in2="shape" result="effect1_innerShadow_18_20365"></feBlend></filter><filter id="r" color-interpolation-filters="sRGB" filterUnits="userSpaceOnUse" height="8.156" width="5.861" x="5.123" y="14.906"><feFlood flood-opacity="0" result="BackgroundImageFix"></feFlood><feBlend in="SourceGraphic" in2="BackgroundImageFix" result="shape"></feBlend><feColorMatrix in="SourceAlpha" result="hardAlpha" values="0 0 0 0 0 0 0 0 0 0 0 0 0 0 0 0 0 0 127 0"></feColorMatrix><feOffset dx=".02" dy="-.02"></feOffset><feComposite in2="hardAlpha" k2="-1" k3="1" operator="arithmetic"></feComposite><feColorMatrix values="0 0 0 0 0.866667 0 0 0 0 0.854902 0 0 0 0 0.886275 0 0 0 1 0"></feColorMatrix><feBlend in2="shape" result="effect1_innerShadow_18_20365"></feBlend></filter><filter id="C" color-interpolation-filters="sRGB" filterUnits="userSpaceOnUse" height="3.133" width="1.691" x="21.016" y="17.438"><feFlood flood-opacity="0" result="BackgroundImageFix"></feFlood><feBlend in="SourceGraphic" in2="BackgroundImageFix" result="shape"></feBlend><feColorMatrix in="SourceAlpha" result="hardAlpha" values="0 0 0 0 0 0 0 0 0 0 0 0 0 0 0 0 0 0 127 0"></feColorMatrix><feOffset dx="-.02" dy="-.02"></feOffset><feComposite in2="hardAlpha" k2="-1" k3="1" operator="arithmetic"></feComposite><feColorMatrix values="0 0 0 0 0.66741 0 0 0 0 0.636158 0 0 0 0 0.69085 0 0 0 1 0"></feColorMatrix><feBlend in2="shape" result="effect1_innerShadow_18_20365"></feBlend></filter><filter id="D" color-interpolation-filters="sRGB" filterUnits="userSpaceOnUse" height="3.133" width="1.691" x="9.293" y="17.438"><feFlood flood-opacity="0" result="BackgroundImageFix"></feFlood><feBlend in="SourceGraphic" in2="BackgroundImageFix" result="shape"></feBlend><feColorMatrix in="SourceAlpha" result="hardAlpha" values="0 0 0 0 0 0 0 0 0 0 0 0 0 0 0 0 0 0 127 0"></feColorMatrix><feOffset dx=".02" dy="-.02"></feOffset><feComposite in2="hardAlpha" k2="-1" k3="1" operator="arithmetic"></feComposite><feColorMatrix values="0 0 0 0 0.66741 0 0 0 0 0.636158 0 0 0 0 0.69085 0 0 0 1 0"></feColorMatrix><feBlend in2="shape" result="effect1_innerShadow_18_20365"></feBlend></filter><filter id="H" color-interpolation-filters="sRGB" filterUnits="userSpaceOnUse" height="2.426" width="3.399" x="14.305" y="11.347"><feFlood flood-opacity="0" result="BackgroundImageFix"></feFlood><feBlend in="SourceGraphic" in2="BackgroundImageFix" result="shape"></feBlend><feColorMatrix in="SourceAlpha" result="hardAlpha" values="0 0 0 0 0 0 0 0 0 0 0 0 0 0 0 0 0 0 127 0"></feColorMatrix><feOffset dx="-.1"></feOffset><feGaussianBlur stdDeviation=".05"></feGaussianBlur><feComposite in2="hardAlpha" k2="-1" k3="1" operator="arithmetic"></feComposite><feColorMatrix values="0 0 0 0 0.152941 0 0 0 0 0.117647 0 0 0 0 0.196078 0 0 0 1 0"></feColorMatrix><feBlend in2="shape" result="effect1_innerShadow_18_20365"></feBlend><feColorMatrix in="SourceAlpha" result="hardAlpha" values="0 0 0 0 0 0 0 0 0 0 0 0 0 0 0 0 0 0 127 0"></feColorMatrix><feOffset dx=".1"></feOffset><feGaussianBlur stdDeviation=".05"></feGaussianBlur><feComposite in2="hardAlpha" k2="-1" k3="1" operator="arithmetic"></feComposite><feColorMatrix values="0 0 0 0 0.262745 0 0 0 0 0.211765 0 0 0 0 0.321569 0 0 0 1 0"></feColorMatrix><feBlend in2="effect1_innerShadow_18_20365" result="effect2_innerShadow_18_20365"></feBlend></filter><g fill="none"><rect fill="url(#g)" height="16.906" rx="3" width="28.125" x="1.938" y="13.047"></rect><rect fill="url(#h)" height="16.906" rx="3" width="28.125" x="1.938" y="9.969"></rect><rect fill="url(#i)" height="8.156" rx="1" width="8.188" x="11.906" y="14.906"></rect><path d="M20.094 16.469h-8.188v-.563a1 1 0 0 1 1-1h6.188a1 1 0 0 1 1 1z" fill="#f13861"></path><rect fill="url(#j)" height=".93" rx=".465" width="5.109" x="13.445" y="18.055"></rect><rect fill="#58bad0" fill-opacity=".55" height=".93" rx=".465" width="5.109" x="13.445" y="20.016"></rect><rect fill="#b0adb4" height=".93" rx=".465" width="5.109" x="13.445" y="20.016"></rect><rect fill="url(#k)" height=".93" rx=".465" width="5.109" x="13.445" y="20.016"></rect><rect fill="#473a5a" height="8.156" rx="1" width="6.953" x="21.016" y="14.852"></rect><rect fill="#473a5a" height="8.156" rx="1" width="6.953" x="4.031" y="14.852"></rect><rect fill="url(#l)" height="8.156" rx="1" width="6.953" x="21.016" y="14.906"></rect><path d="M10.984 15.906a1 1 0 0 0-1-1H5.031a1 1 0 0 0-1 1v6.156a1 1 0 0 0 1 1h4.953a1 1 0 0 0 1-1z" fill="url(#m)"></path><path d="M10.984 15.906a1 1 0 0 0-1-1H5.031a1 1 0 0 0-1 1v6.156a1 1 0 0 0 1 1h4.953a1 1 0 0 0 1-1z" fill="url(#n)"></path><g filter="url(#o)"><path d="M24.964 23.063a5.292 5.292 0 0 0 1.913-4.079c0-1.64-.744-3.105-1.913-4.078h-2.948a1 1 0 0 0-1 1v6.156a1 1 0 0 0 1 1h2.948z" fill="url(#p)"></path><path d="M24.964 23.063a5.292 5.292 0 0 0 1.913-4.079c0-1.64-.744-3.105-1.913-4.078h-2.948a1 1 0 0 0-1 1v6.156a1 1 0 0 0 1 1h2.948z" fill="url(#q)"></path></g><g filter="url(#r)"><path d="M7.036 23.063a5.292 5.292 0 0 1-1.913-4.079c0-1.64.744-3.105 1.913-4.078h2.948a1 1 0 0 1 1 1v6.156a1 1 0 0 1-1 1H7.036z" fill="url(#s)"></path><path d="M7.036 23.063a5.292 5.292 0 0 1-1.913-4.079c0-1.64.744-3.105 1.913-4.078h2.948a1 1 0 0 1 1 1v6.156a1 1 0 0 1-1 1H7.036z" fill="url(#t)"></path></g><path d="M21.187 15.346a.996.996 0 0 0-.171.56v6.156c0 .208.063.4.17.56a3.64 3.64 0 0 0 0-7.276z" fill="url(#u)"></path><path d="M21.187 15.346a.996.996 0 0 0-.171.56v6.156c0 .208.063.4.17.56a3.64 3.64 0 0 0 0-7.276z" fill="url(#v)"></path><path d="M21.187 15.346a.996.996 0 0 0-.171.56v6.156c0 .208.063.4.17.56a3.64 3.64 0 0 0 0-7.276z" fill="url(#w)"></path><path d="M10.813 15.346c.108.16.171.353.171.56v6.156c0 .208-.063.4-.17.56a3.64 3.64 0 0 1 0-7.276z" fill="url(#x)"></path><path d="M10.813 15.346c.108.16.171.353.171.56v6.156c0 .208-.063.4-.17.56a3.64 3.64 0 0 1 0-7.276z" fill="url(#y)"></path><path d="M10.813 15.346c.108.16.171.353.171.56v6.156c0 .208-.063.4-.17.56a3.64 3.64 0 0 1 0-7.276z" fill="url(#z)"></path><path d="M21.016 20.765v-3.123a1.566 1.566 0 1 1 0 3.123z" fill="url(#A)"></path><path d="M10.984 20.765v-3.123a1.566 1.566 0 1 0 0 3.123z" fill="url(#B)"></path><path d="M21.016 20.565v-3.123a1.568 1.568 0 1 1 0 3.123z" fill="#9a989e" filter="url(#C)"></path><g filter="url(#D)"><path d="M10.984 20.565v-3.123a1.568 1.568 0 1 0 0 3.123z" fill="#9a989e"></path><path d="M10.984 20.565v-3.123a1.568 1.568 0 1 0 0 3.123z" fill="url(#E)"></path></g><path d="M25.43 23.063h-.466a5.292 5.292 0 0 0 1.909-3.86c.002.073.004.146.004.219 0 1.41-.55 2.69-1.447 3.64z" fill="url(#F)"></path><path d="M6.57 23.063h.466a5.292 5.292 0 0 1-1.909-3.86 5.285 5.285 0 0 0 1.443 3.86z" fill="url(#G)"></path><path d="M15.76 11.477l-1.31 1.905a.25.25 0 0 0 .205.392h2.699a.25.25 0 0 0 .206-.392l-1.305-1.904a.3.3 0 0 0-.495 0z" fill="#504060" filter="url(#H)"></path><path d="M15.74 11.463l-1.311 1.905a.275.275 0 0 0 .226.43h2.699a.275.275 0 0 0 .227-.43l-1.305-1.905a.325.325 0 0 0-.536 0z" stroke="url(#I)" stroke-width=".05"></path></g></svg>