<svg xmlns="http://www.w3.org/2000/svg" xmlns:xlink="http://www.w3.org/1999/xlink" width="100%" height="100%" stroke-miterlimit="10" version="1.1" viewBox="0 0 100 100" xml:space="preserve"><defs><linearGradient id="LGw3" x1="27.659" x2="27.659" y1="74.856" y2="14.389" gradientTransform="matrix(1 0 0 1 0 0)" gradientUnits="userSpaceOnUse"><stop offset="0" stop-color="#04aa6d"/><stop offset="1" stop-color="#00ff8a"/></linearGradient><linearGradient id="LGw32" x1="2.497" x2="2.593" y1="81.53" y2="98.815" gradientTransform="matrix(1 0 0 1 0 0)" gradientUnits="userSpaceOnUse"><stop offset="0" stop-color="#00e941"/><stop offset="1" stop-color="#00ff8c" stop-opacity="0"/></linearGradient><linearGradient id="LGw33" x1="16.15" x2="16.246" y1="81.53" y2="98.815" gradientTransform="matrix(1 0 0 1 0 0)" gradientUnits="userSpaceOnUse"><stop offset="0" stop-color="#00e941"/><stop offset="1" stop-color="#00ff8c" stop-opacity="0"/></linearGradient><linearGradient id="LGw34" x1="32.138" x2="32.312" y1="74.545" y2="100.771" gradientTransform="matrix(1 0 0 1 0 0)" gradientUnits="userSpaceOnUse"><stop offset="0" stop-color="#00e941"/><stop offset="1" stop-color="#00ff8c" stop-opacity="0"/></linearGradient><linearGradient id="LGw35" x1="48.585" x2="48.68" y1="81.53" y2="98.815" gradientTransform="matrix(1 0 0 1 0 0)" gradientUnits="userSpaceOnUse"><stop offset="0" stop-color="#00e941"/><stop offset="1" stop-color="#00ff8c" stop-opacity="0"/></linearGradient><linearGradient id="LGw36" x1="65.77" x2="65.866" y1="81.53" y2="98.815" gradientTransform="matrix(1 0 0 1 0 0)" gradientUnits="userSpaceOnUse"><stop offset="0" stop-color="#00e941"/><stop offset="1" stop-color="#00ff8c" stop-opacity="0"/></linearGradient><linearGradient id="LGw37" x1="83.814" x2="83.8" y1="74.545" y2="97.252" gradientTransform="matrix(1 0 0 1 0 0)" gradientUnits="userSpaceOnUse"><stop offset="0" stop-color="#00e941"/><stop offset="1" stop-color="#00ff8c" stop-opacity="0"/></linearGradient><linearGradient id="LGw38" x1="90.82" x2="90.916" y1="81.53" y2="98.815" gradientTransform="matrix(1 0 0 1 0 0)" gradientUnits="userSpaceOnUse"><stop offset="0" stop-color="#00e941"/><stop offset="1" stop-color="#00ff8c" stop-opacity="0"/></linearGradient></defs><g id="w3" fill-rule="nonzero" stroke="none" opacity="1"><path fill="#04d964" d="M84.2312 22.8144C84.2312 22.8144 86.7462 25.509 90.2594 25.509C93.0337 25.509 95.0497 23.8324 95.0497 21.5369C95.0497 18.7226 92.4747 17.4252 89.3609 17.4252L87.5247 17.4252L86.427 14.9501L91.2973 9.18166C92.3352 7.94413 93.2132 7.16569 93.2132 7.16569C93.2132 7.16569 92.435 7.20561 90.8581 7.20561L82.9339 7.20561L82.9339 3.05391L99.1614 3.05391L99.1614 6.08783L92.6544 13.6128C96.3272 14.1317 99.9198 16.7465 99.9198 21.3573C99.9198 25.8882 96.4868 30.0798 90.5587 30.0798C84.9099 30.0798 81.7763 26.527 81.7763 26.527L84.2312 22.8144Z"/><path fill="url(#LGw3)" d="M52.5745 28.4234L74.0117 66.587L84.5904 47.7249L64.351 11.6969L40.798 11.6969L31.0375 29.0821L21.2772 11.6969L0.0995509 11.6969L30.9179 66.587L31.0375 66.3874L31.1575 66.587L52.5745 28.4234Z"/><path fill="url(#LGw32)" d="M0.319121 92.4546L3.45284 92.4546C3.45284 93.3728 4.25125 94.2511 5.66843 94.2511C6.98579 94.2511 7.86403 93.5923 7.86403 92.714C7.86403 91.9556 7.28518 91.6162 6.28718 91.3968L4.49078 90.9375C1.45684 90.1392 0.678401 88.5224 0.678401 86.806C0.678401 84.7101 2.75426 82.7939 5.68839 82.7939C8.08358 82.7939 10.7982 84.0115 10.7582 87.0056L7.58458 87.0056C7.58458 86.0873 6.74626 85.5084 5.78818 85.5084C4.75025 85.5084 4.0317 86.1072 4.0317 86.9455C4.0317 87.6443 4.69037 88.0435 5.46882 88.223L7.6245 88.8019C10.6584 89.5804 11.1974 91.4765 11.1974 92.714C11.1974 95.4486 8.46282 96.9456 5.72831 96.9456C3.0736 96.9456 0.379 95.3287 0.319121 92.4546Z"/><path fill="url(#LGw33)" d="M13.9721 89.8596C13.9721 85.5884 17.4053 82.7939 21.2975 82.7939C23.6328 82.7939 25.529 83.8318 26.7666 85.3888L24.4113 87.265C23.7127 86.4267 22.575 85.9076 21.3574 85.9076C19.022 85.9076 17.3454 87.5842 17.3454 89.8596C17.3454 92.1152 19.022 93.8318 21.3574 93.8318C22.575 93.8318 23.7127 93.313 24.4113 92.4747L26.7666 94.3509C25.529 95.9076 23.6328 96.9456 21.2975 96.9456C17.4053 96.9456 13.9721 94.1312 13.9721 89.8596Z"/><path fill="url(#LGw34)" d="M42.894 89.0417L42.894 96.5866L39.5407 96.5866L39.5407 89.2813C39.5407 87.1255 38.2434 85.9679 36.7464 85.9679C35.2093 85.9679 33.3132 86.8661 33.3132 89.4809L33.3132 96.6067L29.9599 96.6067L29.9599 75.8083L33.3331 75.8083L33.3331 85.1696C33.9919 83.5327 36.1675 82.7743 37.5048 82.7743C40.9778 82.7941 42.894 85.1296 42.894 89.0417Z"/><path fill="url(#LGw35)" d="M46.4069 89.8596C46.4069 85.5884 49.7202 82.7939 53.5523 82.7939C57.3848 82.7939 60.738 85.5884 60.738 89.8596C60.738 94.1312 57.3848 96.9456 53.5523 96.9456C49.7202 96.9456 46.4069 94.1312 46.4069 89.8596ZM57.3649 89.8596C57.3649 87.5445 55.6282 85.9076 53.5523 85.9076C51.4765 85.9076 49.78 87.5445 49.78 89.8596C49.78 92.215 51.4765 93.8318 53.5523 93.8318C55.6282 93.8318 57.3649 92.215 57.3649 89.8596Z"/><path fill="url(#LGw36)" d="M63.5926 89.8596C63.5926 85.5884 66.906 82.7939 70.7384 82.7939C74.5705 82.7939 77.9238 85.5884 77.9238 89.8596C77.9238 94.1312 74.5705 96.9456 70.7384 96.9456C66.9258 96.9456 63.5926 94.1312 63.5926 89.8596ZM74.5507 89.8596C74.5507 87.5445 72.8142 85.9076 70.7384 85.9076C68.6623 85.9076 66.9658 87.5445 66.9658 89.8596C66.9658 92.215 68.6623 93.8318 70.7384 93.8318C72.834 93.8318 74.5507 92.215 74.5507 89.8596Z"/><path fill="url(#LGw37)" d="M81.6363 96.6067L81.6363 75.8083L84.9896 75.8083L84.9896 96.6067L81.6363 96.6067Z"/><path fill="url(#LGw38)" d="M88.6425 92.4546L91.7761 92.4546C91.7761 93.3728 92.5747 94.2511 93.9917 94.2511C95.3092 94.2511 96.1874 93.5923 96.1874 92.714C96.1874 91.9556 95.6085 91.6162 94.6106 91.3968L92.8143 90.9375C89.7802 90.1392 89.0017 88.5224 89.0017 86.806C89.0017 84.7101 91.0776 82.7939 94.0118 82.7939C96.4069 82.7939 99.1214 84.0115 99.0817 87.0056L95.8881 87.0056C95.8881 86.0873 95.0497 85.5084 94.0915 85.5084C93.0536 85.5084 92.3352 86.1072 92.3352 86.9455C92.3352 87.6443 92.9938 88.0435 93.7723 88.223L95.928 88.8019C98.9618 89.5804 99.5008 91.4765 99.5008 92.714C99.5008 95.4486 96.7664 96.9456 94.0317 96.9456C91.3769 96.9456 88.7024 95.3287 88.6425 92.4546Z"/></g></svg>