<svg xmlns="http://www.w3.org/2000/svg" xmlns:vectornator="http://vectornator.io" xmlns:xlink="http://www.w3.org/1999/xlink" width="100%" height="100%" viewBox="0 0 100 100" xml:space="preserve"><defs><filter id="Filter" width="110" height="94" x="-5" y="3" color-interpolation-filters="sRGB" filterUnits="userSpaceOnUse"><feDropShadow dx="0" dy="1" flood-color="#000" flood-opacity=".44" in="SourceGraphic" result="Shadow" stdDeviation="1"/></filter><linearGradient id="LinearGradient" x1="19.667" x2="80.333" y1="50" y2="50" gradientTransform="matrix(1 0 0 1 0 0)" gradientUnits="userSpaceOnUse"><stop offset="0" stop-color="#1d00d5"/><stop offset="1" stop-color="#213aff"/></linearGradient><filter id="Filter_2" width="65.667" height="37.667" x="17.167" y="30.167" color-interpolation-filters="sRGB" filterUnits="userSpaceOnUse"><feDropShadow dx="0" dy="-1" flood-color="#000" flood-opacity=".44" in="SourceGraphic" result="Shadow" stdDeviation="1"/></filter><linearGradient id="LinearGradient_2" x1="102.057" x2="67.729" y1="11.587" y2="12.233" gradientTransform="matrix(1 0 0 1 0 0)" gradientUnits="userSpaceOnUse"><stop offset="0" stop-color="#b0bec5"/><stop offset="1" stop-color="#5c6367"/></linearGradient><filter id="Filter_3" width="24.667" height="89" x="77.833" y="4.5" color-interpolation-filters="sRGB" filterUnits="userSpaceOnUse"><feDropShadow dx="0" dy="-1" flood-color="#000" flood-opacity=".44" in="SourceGraphic" result="Shadow" stdDeviation="1"/></filter><linearGradient id="LinearGradient_3" x1="-2.732" x2="29.44" y1="13.676" y2="13.835" gradientTransform="matrix(1 0 0 1 0 0)" gradientUnits="userSpaceOnUse"><stop offset="0" stop-color="#b0bec5"/><stop offset="1" stop-color="#5c6367"/></linearGradient><filter id="Filter_4" width="24.667" height="89" x="-2.5" y="4.5" color-interpolation-filters="sRGB" filterUnits="userSpaceOnUse"><feDropShadow dx="0" dy="-1" flood-color="#000" flood-opacity=".44" in="SourceGraphic" result="Shadow" stdDeviation="1"/></filter></defs><clipPath id="ArtboardFrame"><rect width="110" height="94" x="-5" y="3"/></clipPath><g id="Layer" clip-path="url(#ArtboardFrame)" layerName="Layer"><g filter="url(#Filter)" layerName="Whitespace" shadowAngle="1.571" shadowColor="#000000" shadowOffset="1" shadowOpacity=".44" shadowRadius="2"><path fill="url(#LinearGradient)" d="M80.3333 50L61.6667 33.6667L61.6667 45.3333L38.3333 45.3333L38.3333 33.6667L19.6667 50L38.3333 66.3333L38.3333 54.6667L61.6667 54.6667L61.6667 66.3333L80.3333 50Z" filter="url(#Filter_2)" layerName="path" shadowAngle="-1.571" shadowColor="#000000" shadowOffset="1" shadowOpacity=".44" shadowRadius="2"/><path fill="url(#LinearGradient_2)" d="M100 92L80.3333 92L80.3333 8L100 8L100 17.33L89.6667 17.33L89.6667 82.6667L100 82.6667L100 92Z" filter="url(#Filter_3)" layerName="path 1" shadowAngle="-1.571" shadowColor="#000000" shadowOffset="1" shadowOpacity=".44" shadowRadius="2"/><path fill="url(#LinearGradient_3)" d="M19.6667 92L-7.10543e-15 92L-7.10543e-15 82.6667L10.3333 82.6667L10.3333 17.3333L-7.10543e-15 17.3333L-7.10543e-15 8L19.6667 8L19.6667 92Z" filter="url(#Filter_4)" layerName="path 1" shadowAngle="-1.571" shadowColor="#000000" shadowOffset="1" shadowOpacity=".44" shadowRadius="2"/></g></g></svg>