<svg xmlns="http://www.w3.org/2000/svg" xmlns:xlink="http://www.w3.org/1999/xlink" width="100%" height="100%" stroke-miterlimit="10" style="fill-rule:nonzero;clip-rule:evenodd;stroke-linecap:round;stroke-linejoin:round" version="1.1" viewBox="0 0 50 50" xml:space="preserve"><defs><filter id="Filter" width="46.906" height="47.188" x="1.563" y="1.406" color-interpolation-filters="sRGB" filterUnits="userSpaceOnUse"><feDropShadow dx="0" dy="0" flood-color="#000" flood-opacity=".4" in="SourceGraphic" result="Shadow" stdDeviation=".5"/></filter><filter id="Filter_2" width="47.367" height="47.602" x="1.315" y="1.199" color-interpolation-filters="sRGB" filterUnits="userSpaceOnUse"><feDropShadow dx="0" dy="0" flood-color="#000" flood-opacity=".4" in="SourceGraphic" result="Shadow" stdDeviation=".5"/></filter></defs><g id="Layer-9"><g opacity="1"><path fill="#e4caa6" fill-rule="nonzero" stroke="none" d="M3.06508 2.94897L14.1844 2.94897L14.1844 47.051L3.06508 47.051L3.06508 2.94897M19.3922 28.988L30.6523 28.988L30.6523 47.051L19.3922 47.051L19.3922 28.988M19.3922 2.94897L30.6523 2.94897L30.6523 23.7802L19.3922 23.7802L19.3922 2.94897M35.8132 2.94897L46.9325 2.94897L46.9325 47.051L35.8132 47.051L35.8132 2.94897" opacity="1"/><path fill="#ccb79a" fill-rule="nonzero" stroke="#101010" stroke-linecap="butt" stroke-linejoin="miter" stroke-opacity=".8" stroke-width=".5" d="M4.90625 2.90625C4.97428 3.39325 5.02994 3.86097 5.09375 4.34375C5.29409 5.86105 5.47404 7.37582 5.6875 8.90625C5.8944 10.4189 6.1056 10.875 6.3125 10.875C6.48093 10.875 6.64406 10.5918 6.8125 10.2812C6.98093 9.97066 7.14407 9.65625 7.3125 9.65625C7.5194 9.65625 7.7306 10.1119 7.9375 11.625C8.26592 13.9709 8.59367 14.9666 8.6875 17.4062C8.78133 20.5028 8.51542 23.6066 8.75 26.6562C8.98459 29.8466 9.81259 32.8877 9.71875 36.125C9.67183 37.814 9.39076 38.0297 9.25 39.7188C9.23733 39.8717 9.2286 39.9907 9.21875 40.0625C9.25863 41.9218 9.33043 43.7969 9.375 45.6562C9.38579 46.1099 9.3978 46.5466 9.40625 47L11.2812 47C11.2944 46.5444 11.3069 46.1077 11.3125 45.6562C11.4054 38.111 10.4765 31.2443 10.3438 29.0312C10.0153 23.4017 9.64109 17.8331 9.125 12.25C8.42453 4.59032 7.38261 10.2178 6.5625 4.34375C6.50338 3.9215 6.46302 3.45706 6.40625 2.90625L4.90625 2.90625ZM35.875 2.90625C35.7455 5.23756 35.5653 10.0236 35.7188 11.25C36.0941 14.3465 36.6247 17.3096 36.9062 20.5C37.5213 27.6872 36.7036 30.8681 37.2188 36.0938C37.3323 37.247 37.5096 38.4898 37.7812 39.9062C38.1969 42.0607 38.764 43.8148 39.3125 45.6562C39.4448 46.1006 39.5911 46.5346 39.7188 47L41.4375 47C41.3793 46.5172 41.3119 46.0823 41.25 45.6562C40.8611 42.9787 40.397 41.3218 39.75 39.5C39.7101 39.3926 39.6644 39.3437 39.625 39.3438C39.504 39.3437 39.3943 39.7857 39.2812 40.2188C39.1682 40.6513 39.0645 41.0625 38.9688 41.0625C38.9317 41.0625 38.9083 40.9972 38.875 40.8438C38.5935 39.4836 38.5001 39.2197 38.4062 37.625C38.1717 32.4641 38.8908 27.1609 38.6562 22C38.5286 19.5702 37.8132 17.1982 37.625 14.8125C37.5373 13.6977 36.5309 11.522 36.4375 12.0625C36.3441 12.603 36.2722 13.125 36.2188 13.125C36.1873 13.125 36.1652 12.9497 36.1562 12.4688C36.0155 6.79178 36.5621 8.8178 36.4688 2.90625L35.875 2.90625ZM8.59375 2.9375C8.65052 3.41183 8.72073 3.88021 8.78125 4.34375C9.17066 7.31876 9.63145 10.048 10.2812 11.875C10.3099 11.9524 10.3468 11.9687 10.375 11.9688C10.5078 11.9688 10.6261 11.2293 10.75 10.4688C10.8739 9.70869 10.9915 8.9375 11.0938 8.9375C11.12 8.9375 11.1631 8.98209 11.1875 9.09375C11.469 10.4543 11.5624 10.7486 11.6562 12.3438C11.8908 17.5046 12.1716 14.4016 12.4062 19.5625C12.5343 21.9928 12.6244 24.4268 12.8125 26.8125C12.9007 27.9272 13.0216 29.0342 13.1562 30.125C13.4078 32.3043 13.748 37.8486 13.8561 40.0832C13.9825 40.087 13.9715 36.8301 14.0625 36.9062C14.132 36.3705 14.0306 34.5983 14.1165 33.9577C14.2025 33.3171 14.1958 33.4809 13.8833 30.1918C13.5708 26.9027 13.4378 24.3779 13.1562 21.1875C12.5412 14.0003 13.3276 16.378 12.8125 13.1562C12.699 12.445 12.5212 11.4477 12.25 10.0312C11.8381 7.89512 11.2942 6.16789 10.75 4.34375C10.613 3.88443 10.4761 3.41887 10.3438 2.9375L8.59375 2.9375ZM19.4062 2.9375L19.4062 8.53125C19.7816 6.56073 20.0937 4.72035 20.0938 2.9375L19.4062 2.9375ZM22.4375 2.9375C22.4281 3.40526 22.4112 3.87318 22.375 4.34375C22.2328 6.18571 21.9118 8.04964 21.6875 9.84375C20.4423 19.0953 21.404 14.5201 20.9062 22.375C20.879 22.8052 20.8486 23.2717 20.8125 23.7812L22.0625 23.7812C22.0616 23.3163 22.0714 22.8456 22.0625 22.375C22.0489 21.6576 22.0313 20.9298 22.0312 20.25C21.806 9.53977 22.2115 13.676 23.2812 4.34375C23.3268 3.94636 23.3896 3.54181 23.4375 3.09375C23.4375 3.04683 23.4375 2.98442 23.4375 2.9375L22.4375 2.9375ZM25.1562 2.9375C25.1478 3.40667 25.1363 3.87458 25.125 4.34375C25.0809 6.18478 25.0399 8.03397 25 9.875C25.0099 9.9496 25.0185 10.0625 25.0312 10.2188C25.0575 10.5326 25.0917 10.6562 25.125 10.6562C25.1818 10.6562 25.2221 10.3155 25.2812 9.96875C25.3404 9.6225 25.3995 9.28125 25.4375 9.28125C25.46 9.28125 25.4916 9.40487 25.5 9.71875C25.5938 12.956 24.7345 11.8096 24.5 15C24.2903 17.7282 24.4908 19.7894 24.4688 22.375C24.4664 22.6795 24.4786 22.9911 24.4688 23.3125C24.4688 23.4533 24.4532 23.578 24.4062 23.7188L25.25 23.7188C25.2885 23.2543 25.3389 22.8184 25.375 22.375C25.6471 19.0134 25.8556 16.1898 26.0625 12.625C26.1507 10.5123 27.0013 10.9774 27.0312 4.34375C27.0331 3.90648 27.0374 3.43951 27.0312 2.9375L25.1562 2.9375ZM29.3438 2.9375C29.203 8.80213 29.797 6.85428 29.6562 12.5312C29.6473 12.9995 29.6253 13.1563 29.5938 13.1562C29.5398 13.1562 29.4721 12.6309 29.375 12.0938C29.3347 11.8718 29.2941 11.6527 29.25 11.4688C29.1876 11.207 29.1273 11.0313 29.0625 11.0312C29.0001 11.0312 28.9341 11.1877 28.875 11.625C28.4527 15.0504 28.2657 17.6843 28.125 21.25C28.1044 21.6253 28.0831 21.9996 28.0625 22.375C28.0367 22.8442 27.9951 23.3121 27.9688 23.7812L28.625 23.7812C28.6405 23.3121 28.6701 22.8442 28.6875 22.375C28.7222 21.4367 28.7501 20.5008 28.8125 19.5625C28.9242 18.2971 28.9331 17.4807 29.125 16.1562C29.3169 14.8318 29.3166 13.3005 29.5938 14.25C30.0511 15.8161 30.4106 13.6857 30.4688 11.3438C30.6212 10.1108 30.4654 6.79016 30.5625 6.78125C30.3847 4.59398 29.9802 5.21625 29.9375 2.9375L29.3438 2.9375ZM45.5312 2.9375C45.5312 4.72035 45.859 6.60757 46.2812 8.625C46.4971 9.83311 46.6397 9.90625 46.75 9.90625C46.758 9.90625 46.7737 9.90672 46.7812 9.90625C46.7888 9.90578 46.8055 9.90625 46.8125 9.90625C46.9124 9.90625 46.9466 10.0035 46.9688 11.3125L46.9688 5.75C46.8749 4.81166 46.828 3.87584 46.875 2.9375L45.5312 2.9375ZM38.7812 3C38.7672 3.48418 38.7556 3.92009 38.75 4.34375C38.6651 10.9792 39.7739 12.6827 39.9062 14.8438C40.2347 20.4738 40.421 23.8856 40.9375 29.4688C41.6427 37.1833 42.6771 38.7266 43.5 45.6562C43.553 46.102 43.6052 46.5693 43.6562 47.0625L45.1562 47.0625C45.0906 46.591 45.0307 46.1235 44.9688 45.6562C44.7661 44.123 44.5596 42.5772 44.3438 41.0312C43.5926 35.542 42.8445 36.9581 42.0938 31.4688C41.7653 29.1229 41.4381 26.721 41.3438 24.2812C41.2499 21.1847 41.6721 18.1434 41.4375 15.0938C41.2029 11.9034 40.2192 12.9404 40.3125 9.75C40.3214 9.43612 40.3524 9.3125 40.375 9.3125C40.413 9.3125 40.4722 9.65328 40.5312 10C40.5904 10.3462 40.6307 10.6875 40.6875 10.6875C40.7208 10.6875 40.755 10.5951 40.7812 10.2812C40.7939 10.1283 40.8026 10.0093 40.8125 9.9375C40.7726 8.07818 40.732 6.20355 40.6875 4.34375C40.6767 3.89006 40.6647 3.45369 40.6562 3L38.7812 3ZM41.8125 3.28125C42.893 12.7092 43.8818 10.444 43.6562 21.1875C43.5624 27.0521 43.3115 33.3392 45 38.4062C45.1558 38.8928 45.3506 39.1342 45.5312 39.3125L45.5312 31.0938C43.5246 21.6052 46.8138 21.5523 45.25 9.78125C45.0229 7.96275 43.7952 5.32292 43.6562 3.46875L41.8125 3.28125ZM3.6875 9.375C3.5688 9.375 3.45617 9.88922 3.375 10.4062C3.29383 10.9233 3.24474 11.4688 3.1875 11.4688C3.16404 11.4688 3.14564 11.3636 3.125 11.1562L3.125 11.9688C3.16629 12.1198 3.20872 12.1562 3.25 12.1562C3.34853 12.1562 3.43272 11.8267 3.53125 11.4688C3.62978 11.1108 3.71397 10.75 3.8125 10.75C3.85519 10.75 3.92606 10.8045 3.96875 10.9688C4.16393 11.7776 4.31908 12.5679 4.46875 13.3125C6.55281 23.6657 4.54906 28.2506 6.125 40.1562C6.34833 41.9443 6.63864 43.8316 6.78125 45.6562C6.81831 46.1296 6.86516 46.5986 6.875 47.0625L7.84375 47.0625C7.84375 47.0156 7.84375 46.9531 7.84375 46.9062C7.79777 46.4741 7.76237 46.0682 7.71875 45.6562C6.64482 35.5968 6.22609 31.2129 6.40625 20.5312C6.50008 14.6666 6.72028 16.692 5.03125 11.625C4.86235 11.0967 4.66486 10.8747 4.46875 10.6875C4.22947 10.459 3.99266 10.2954 3.8125 9.625C3.76371 9.46595 3.73019 9.37499 3.6875 9.375ZM20.4375 29C20.3205 29.9362 20.5583 30.6962 20.4062 31.375C20.2535 32.0569 19.7116 32.6379 19.5 33.5312C19.4531 33.672 19.4532 33.7655 19.4062 33.9062L19.4062 40.25C19.7347 39.124 20.1872 39.4853 20.5625 38.4062C20.6451 38.1656 20.7384 37.9533 20.8125 37.7188C21.5772 35.2889 21.8972 33.1044 22 30.4062C22.0174 29.953 22.0251 29.4861 22.0312 29L20.4375 29ZM24.0938 29C24.036 29.4635 23.9673 29.9333 23.9062 30.4062C23.8185 31.0823 23.7357 31.7438 23.625 32.4062C22.8274 37.8955 22.0632 35.542 21.3125 41.0312C21.1366 42.2914 20.9767 43.5347 20.8125 44.7812C20.7135 45.53 20.6194 46.3053 20.5312 47.0625L22.0312 47.0625C22.0824 46.5652 22.1345 46.0981 22.1875 45.6562C23.0109 38.7951 24.0315 38.1194 24.7812 30.4062C24.8282 29.9371 24.875 29.4692 24.875 29L24.0938 29ZM27.8438 29C27.8222 29.4879 27.8047 29.9535 27.7812 30.4062C27.6518 32.913 27.4942 34.9538 27.375 37.6562C27.2812 39.2514 27.1878 39.5457 26.9062 40.9062C26.872 41.07 26.8207 41.125 26.7812 41.125C26.6818 41.125 26.5855 40.6859 26.4688 40.25C26.3519 39.8137 26.2357 39.4062 26.125 39.4062C26.0893 39.4062 26.0337 39.4252 26 39.5312C25.3563 41.3422 24.8678 43.0064 24.5 45.6562C24.439 46.0959 24.366 46.562 24.3125 47.0625L26.0625 47.0625C26.1854 46.5811 26.3033 46.116 26.4375 45.6562C26.97 43.8326 27.5568 42.1045 27.9688 39.9688C28.9193 34.7398 28.6749 35.3705 28.5938 30.4062C28.5877 29.9807 28.5974 29.5151 28.5938 29L27.8438 29ZM3.0625 40.0938L3.0625 44.2812C3.15633 45.2196 3.20316 46.1553 3.15625 47.0938L4.53125 47.0938C4.53125 45.3109 4.2035 43.4237 3.78125 41.4062C3.6541 40.6847 3.5257 40.4688 3.4375 40.4688C3.36337 40.4688 3.30067 40.6217 3.25 40.7812C3.19933 40.9408 3.15549 41.125 3.125 41.125C3.08747 41.125 3.07517 40.8594 3.0625 40.0938ZM11.5097 30.6795C11.2082 31.3138 12.4304 37.9085 12.6967 40.0164C13.0152 42.5367 13.0683 45.6925 13.1128 46.4531C13.1946 47.8499 13.7657 45.8011 13.7657 45.8011C13.7657 45.8011 14.1246 43.1054 14.0621 42.3397C13.9996 41.5741 14.0562 41.2454 14.0312 41.0312C14.0272 40.9967 14.2826 39.2679 13.9029 37.4795C13.2068 34.2001 11.8113 30.0453 11.5097 30.6795ZM30.6562 41.9062C30.4686 43.2199 28.8128 45.7021 28.5312 46.7812L30.5312 46.7812L30.6562 41.9062Z" filter="url(#Filter)"/><path fill="none" stroke="#e2ba82" stroke-linecap="round" stroke-linejoin="round" stroke-width="1" d="M3.06508 2.94897L14.1844 2.94897L14.1844 47.051L3.06508 47.051L3.06508 2.94897M19.3922 28.988L30.6523 28.988L30.6523 47.051L19.3922 47.051L19.3922 28.988M19.3922 2.94897L30.6523 2.94897L30.6523 23.7802L19.3922 23.7802L19.3922 2.94897M35.8132 2.94897L46.9325 2.94897L46.9325 47.051L35.8132 47.051L35.8132 2.94897" filter="url(#Filter_2)"/></g></g></svg>