<svg width="100%" height="100%" stroke-miterlimit="10" style="fill-rule:nonzero;clip-rule:evenodd;stroke-linecap:round;stroke-linejoin:round;" version="1.1" viewBox="0 0 50 50" xml:space="preserve" xmlns="http://www.w3.org/2000/svg" xmlns:xlink="http://www.w3.org/1999/xlink">
<defs>
	<filter id="Fi" color-interpolation-filters="sRGB" filterUnits="userSpaceOnUse" height="47.1563" width="15.3567" x="31.1754" y="1.4375"><feDropShadow dx="-0" dy="0" flood-color="#000" flood-opacity="0.4" in="SourceGraphic" result="Shadow" stdDeviation="0.5"/></filter>
	<filter id="Fi_2" color-interpolation-filters="sRGB" filterUnits="userSpaceOnUse" height="47.6021" width="15.6496" x="31.093" y="1.23022"><feDropShadow dx="-0" dy="0" flood-color="#000" flood-opacity="0.4" in="SourceGraphic" result="Shadow" stdDeviation="0.5"/></filter>
	<filter id="Fi_3" color-interpolation-filters="sRGB" filterUnits="userSpaceOnUse" height="21.5951" width="14.25" x="17.882" y="27.0024"><feDropShadow dx="-0" dy="0" flood-color="#000" flood-opacity="0.4" in="SourceGraphic" result="Shadow" stdDeviation="0.5"/></filter>
	<filter id="Fi_4" color-interpolation-filters="sRGB" filterUnits="userSpaceOnUse" height="22.0956" width="14.7601" x="17.618" y="26.74"><feDropShadow dx="-0" dy="0" flood-color="#000" flood-opacity="0.4" in="SourceGraphic" result="Shadow" stdDeviation="0.5"/></filter>
	<filter id="Fi_5" color-interpolation-filters="sRGB" filterUnits="userSpaceOnUse" height="47.1756" width="14.8762" x="3.64566" y="1.375"><feDropShadow dx="-0" dy="0" flood-color="#000" flood-opacity="0.4" in="SourceGraphic" result="Shadow" stdDeviation="0.5"/></filter>
	<filter id="Fi_6" color-interpolation-filters="sRGB" filterUnits="userSpaceOnUse" height="47.5901" width="15.391" x="3.39842" y="1.16771"><feDropShadow dx="-0" dy="0" flood-color="#000" flood-opacity="0.4" in="SourceGraphic" result="Shadow" stdDeviation="0.5"/></filter>
	<filter id="Fi_7" color-interpolation-filters="sRGB" filterUnits="userSpaceOnUse" height="26.0667" width="14.1734" x="17.882" y="1.44897"><feDropShadow dx="-0" dy="0" flood-color="#000" flood-opacity="0.4" in="SourceGraphic" result="Shadow" stdDeviation="0.5"/></filter>
	<filter id="Fi_8" color-interpolation-filters="sRGB" filterUnits="userSpaceOnUse" height="26.5527" width="14.7601" x="17.618" y="1.21167"><feDropShadow dx="-0" dy="0" flood-color="#000" flood-opacity="0.4" in="SourceGraphic" result="Shadow" stdDeviation="0.5"/></filter>
</defs>
<g id="Layer-9">
<g opacity="1">
	<path fill="#e4caa6" fill-rule="nonzero" opacity="1" stroke="none" d="M32.8422 2.96875L32.8422 47.0938L44.9979 47.0938L44.9979 2.96875L32.8422 2.96875Z"/>
	<path fill="#ccb79a" fill-rule="nonzero" filter="url(#Fi)" stroke="#101010" stroke-linecap="butt" stroke-linejoin="miter" d="M32.9105 2.9375C32.769 5.26881 32.5721 10.0548 32.7398 11.2812C33.1499 14.3778 33.7297 17.3409 34.0373 20.5312C34.7094 27.7185 33.8159 30.8994 34.3787 36.125C34.5028 37.2782 34.6966 38.5211 34.9934 39.9375C35.4476 42.0919 36.0672 43.846 36.6665 45.6875C36.811 46.1318 36.9709 46.5658 37.1104 47.0312L38.9884 47.0312C38.9248 46.5485 38.8511 46.1135 38.7835 45.6875C38.3585 43.0099 37.8514 41.353 37.1445 39.5312C37.1009 39.4238 37.051 39.375 37.0079 39.375C36.8757 39.375 36.7559 39.817 36.6323 40.25C36.5088 40.6826 36.3955 41.0938 36.2909 41.0938C36.2504 41.0937 36.2248 41.0284 36.1884 40.875C35.8809 39.5149 35.7787 39.251 35.6763 37.6562C35.4199 32.4954 36.2057 27.1921 35.9494 22.0312C35.81 19.6014 35.0282 17.2295 34.8226 14.8438C34.7268 13.729 33.6271 11.5533 33.5251 12.0938C33.4231 12.6342 33.3445 13.1562 33.2861 13.1562C33.2517 13.1562 33.2275 12.9809 33.2178 12.5C33.064 6.82303 33.6613 8.84905 33.5592 2.9375L32.9105 2.9375ZM43.4614 2.96875C43.4614 4.7516 43.8195 6.63882 44.2809 8.65625C44.5167 9.86436 44.6726 9.9375 44.7931 9.9375C44.8018 9.9375 44.819 9.93797 44.8272 9.9375C44.8354 9.93703 44.8538 9.9375 44.8614 9.9375C44.9705 9.9375 45.0079 10.0348 45.0321 11.3438L45.0321 5.78125C44.9296 4.84291 44.8783 3.90709 44.9296 2.96875L43.4614 2.96875ZM36.086 3.03125C36.0706 3.51543 36.058 3.95134 36.0519 4.375C35.9591 11.0105 37.1706 12.714 37.3152 14.875C37.6741 20.505 37.8777 23.9169 38.442 29.5C39.2125 37.2146 40.3428 38.7578 41.242 45.6875C41.2999 46.1332 41.3569 46.6006 41.4127 47.0938L43.0517 47.0938C42.9799 46.6222 42.9145 46.1548 42.8468 45.6875C42.6253 44.1542 42.3997 42.6084 42.1639 41.0625C41.3431 35.5732 40.5257 36.9893 39.7054 31.5C39.3466 29.1542 38.989 26.7522 38.8859 24.3125C38.7834 21.216 39.2447 18.1746 38.9884 15.125C38.732 11.9346 37.6572 12.9716 37.7591 9.78125C37.7689 9.46737 37.8028 9.34375 37.8274 9.34375C37.8689 9.34375 37.9336 9.68453 37.9981 10.0312C38.0627 10.3775 38.1068 10.7188 38.1689 10.7188C38.2053 10.7188 38.2426 10.6264 38.2713 10.3125C38.2851 10.1596 38.2947 10.0405 38.3055 9.96875C38.2619 8.10943 38.2175 6.2348 38.1689 4.375C38.1571 3.92131 38.144 3.48494 38.1347 3.03125L36.086 3.03125ZM39.3981 3.3125C40.5787 12.7405 41.6592 10.4752 41.4127 21.2188C41.3101 27.0834 41.0359 33.3705 42.8809 38.4375C43.0511 38.924 43.264 39.1655 43.4614 39.3438L43.4614 31.125C41.2688 21.6365 44.8628 21.5835 43.1541 9.8125C42.906 7.994 41.5645 5.35417 41.4127 3.5L39.3981 3.3125Z" stroke-opacity="0.8" stroke-width="0.5"/>
	<path fill="none" filter="url(#Fi_2)" stroke="#e2ba82" stroke-linecap="round" stroke-linejoin="round" stroke-width="1" d="M32.843 2.98022L44.9925 2.98022L44.9925 47.0823L32.843 47.0823L32.843 2.98022"/>
</g>
<g opacity="1">
	<path fill="#e4caa6" fill-rule="nonzero" opacity="1" stroke="none" d="M19.382 28.5024L19.382 47.0975L30.632 47.0975L30.632 28.5024L19.382 28.5024Z"/>
	<path fill="#ccb79a" fill-rule="nonzero" filter="url(#Fi_3)" stroke="#101010" stroke-linecap="butt" stroke-linejoin="miter" d="M20.4133 28.5024C20.2962 29.4663 20.5341 30.2486 20.382 30.9474C20.2293 31.6494 19.6874 32.2476 19.4758 33.1673C19.4288 33.3122 19.4289 33.4084 19.382 33.5533L19.382 40.0841C19.7104 38.9249 20.1629 39.2969 20.5383 38.186C20.6208 37.9382 20.7141 37.7197 20.7883 37.4782C21.553 34.9768 21.873 32.7279 21.9758 29.9501C21.9931 29.4835 22.0009 29.0028 22.007 28.5024L20.4133 28.5024ZM24.0695 28.5024C24.0118 28.9796 23.9431 29.4632 23.882 29.9501C23.7943 30.6461 23.7114 31.3271 23.6008 32.0091C22.8032 37.6602 22.0389 35.2373 21.2883 40.8884C21.1123 42.1857 20.9525 43.4656 20.7883 44.749C20.6893 45.5198 20.5952 46.318 20.507 47.0975L22.007 47.0975C22.0582 46.5855 22.1103 46.1046 22.1633 45.6498C22.9867 38.5863 24.0073 37.8907 24.757 29.9501C24.8039 29.4671 24.8508 28.9855 24.8508 28.5024L24.0695 28.5024ZM27.8195 28.5024C27.7979 29.0047 27.7805 29.484 27.757 29.9501C27.6275 32.5308 27.4699 34.6318 27.3508 37.4139C27.2569 39.0561 27.1636 39.359 26.882 40.7597C26.8478 40.9283 26.7964 40.9849 26.757 40.9849C26.6575 40.9849 26.5613 40.5328 26.4445 40.0841C26.3277 39.6349 26.2115 39.2155 26.1008 39.2155C26.0651 39.2155 26.0095 39.235 25.9758 39.3442C25.3321 41.2086 24.8436 42.9219 24.4758 45.6498C24.4148 46.1023 24.3418 46.5822 24.2883 47.0975L26.0383 47.0975C26.1612 46.6019 26.279 46.123 26.4133 45.6498C26.9458 43.7723 27.5325 41.9933 27.9445 39.7946C28.8951 34.4115 28.6507 35.0608 28.5695 29.9501C28.5634 29.512 28.5732 29.0327 28.5695 28.5024L27.8195 28.5024ZM30.632 41.7892C30.4443 43.1416 28.7885 45.6969 28.507 46.8079L30.507 46.8079L30.632 41.7892Z" stroke-opacity="0.8" stroke-width="0.5"/>
	<path fill="none" filter="url(#Fi_4)" stroke="#e2ba82" stroke-linecap="round" stroke-linejoin="round" stroke-width="1" d="M19.368 28.49L30.6281 28.49L30.6281 47.0857L19.368 47.0857L19.368 28.49"/>
</g>
<g opacity="1">
	<path fill="#e4caa6" fill-rule="nonzero" opacity="1" stroke="none" d="M5.14566 2.90624L5.14566 47.0193L17.0427 47.0193L17.0427 2.90624L5.14566 2.90624Z"/>
	<path fill="#ccb79a" fill-rule="nonzero" filter="url(#Fi_5)" stroke="#101010" stroke-linecap="butt" stroke-linejoin="miter" d="M7.11736 2.875C7.19011 3.36187 7.24964 3.82947 7.31787 4.31211C7.53211 5.829 7.72455 7.34336 7.95283 8.87338C8.17409 10.3856 8.39995 10.8416 8.6212 10.8416C8.80132 10.8416 8.97577 10.5585 9.1559 10.248C9.33602 9.9375 9.51048 9.62318 9.6906 9.62318C9.91186 9.62318 10.1377 10.0787 10.359 11.5914C10.7102 13.9366 11.0607 14.9321 11.161 17.3711C11.2614 20.4668 10.977 23.5698 11.2279 26.6186C11.4787 29.8081 12.3642 32.8484 12.2638 36.0848C12.2137 37.7733 11.9131 37.989 11.7626 39.6775C11.749 39.8305 11.7397 39.9494 11.7291 40.0212C11.7718 41.88 11.8486 43.7546 11.8962 45.6134C11.9078 46.067 11.9206 46.5036 11.9296 46.9568L13.9348 46.9568C13.9488 46.5014 13.9622 46.0647 13.9682 45.6134C14.0675 38.0703 13.0742 31.2054 12.9322 28.9929C12.581 23.3649 12.1808 17.7978 11.6289 12.2162C10.8798 4.55861 9.76558 10.1845 8.88855 4.31211C8.82533 3.88997 8.78217 3.42566 8.72146 2.875L7.11736 2.875ZM11.0608 2.90624C11.1215 3.38044 11.1966 3.8487 11.2613 4.31211C11.6777 7.28631 12.1705 10.0149 12.8654 11.8413C12.896 11.9187 12.9355 11.935 12.9656 11.9351C13.1076 11.9351 13.2342 11.1958 13.3667 10.4355C13.4991 9.6756 13.6249 8.90462 13.7343 8.90462C13.7624 8.90462 13.8084 8.9492 13.8345 9.06083C14.1356 10.4211 14.2355 10.7152 14.3358 12.3099C14.5867 17.4694 14.887 14.3672 15.1378 19.5267C15.2748 21.9564 15.3711 24.3897 15.5723 26.7748C15.6666 27.8892 15.7959 28.9959 15.9399 30.0864C16.1068 31.4388 16.2497 33.9233 16.4078 36.2722C15.619 33.2714 14.4528 30.0902 14.1687 30.6487C13.8462 31.2828 15.1538 37.8826 15.4386 39.99C15.7791 42.5095 15.8589 45.6341 15.9065 46.3945C15.9939 47.7909 16.6083 45.7697 16.6083 45.7697C16.6083 45.7697 16.9759 43.0673 16.909 42.3018C16.8422 41.5364 16.9023 41.2038 16.8756 40.9897C16.8727 40.9661 16.825 39.6391 16.7754 38.5529C16.8037 37.7032 16.8575 36.8255 16.909 36.8658C16.9834 36.3302 16.884 34.5696 16.9759 33.9291C17.0678 33.2887 17.0427 33.437 16.7085 30.1489C16.3743 26.8607 16.2409 24.3408 15.9399 21.1513C15.2821 13.966 16.1232 16.3432 15.5723 13.1222C15.4509 12.4112 15.2608 11.4141 14.9707 9.99807C14.5302 7.86252 13.9487 6.13575 13.3667 4.31211C13.2201 3.85292 13.0737 3.38748 12.9322 2.90624L11.0608 2.90624ZM5.81403 9.342C5.6871 9.342 5.56665 9.85609 5.47985 10.373C5.39305 10.8899 5.34055 11.4352 5.27933 11.4352C5.25425 11.4352 5.23457 11.3301 5.2125 11.1228L5.2125 11.9351C5.25665 12.0861 5.30203 12.1225 5.34617 12.1225C5.45153 12.1225 5.54158 11.7931 5.64694 11.4352C5.7523 11.0773 5.84234 10.7166 5.94771 10.7166C5.99337 10.7166 6.06915 10.7712 6.1148 10.9353C6.32352 11.744 6.48945 12.5341 6.6495 13.2784C8.87818 23.6288 6.73538 28.2125 8.42069 40.1149C8.65951 41.9025 8.96998 43.7893 9.12248 45.6134C9.16212 46.0867 9.21221 46.5555 9.22274 47.0193L10.2587 47.0193C10.2587 46.9724 10.2587 46.9099 10.2587 46.8631C10.2095 46.4311 10.1717 46.0253 10.125 45.6134C8.97658 35.5567 8.52879 31.174 8.72146 20.4952C8.8218 14.6322 9.05728 16.6571 7.25104 11.5914C7.07041 11.0632 6.85922 10.8413 6.6495 10.6541C6.39362 10.4257 6.14037 10.2622 5.94771 9.59193C5.89553 9.43293 5.85969 9.34199 5.81403 9.342ZM5.14566 40.0524L5.14566 44.2388C5.24601 45.1769 5.29608 46.1124 5.24592 47.0506L6.71634 47.0506C6.71634 45.2682 6.36585 43.3815 5.91429 41.3646C5.77832 40.6432 5.64101 40.4273 5.54668 40.4273C5.46741 40.4273 5.40036 40.5803 5.34617 40.7398C5.29198 40.8992 5.2451 41.0834 5.2125 41.0834C5.17236 41.0834 5.15921 40.8179 5.14566 40.0524Z" stroke-opacity="0.8" stroke-width="0.5"/>
	<path fill="none" filter="url(#Fi_6)" stroke="#e2ba82" stroke-linecap="round" stroke-linejoin="round" stroke-width="1" d="M5.14842 2.91771L17.0394 2.91771L17.0394 47.0078L5.14842 47.0078L5.14842 2.91771"/>
</g>
<g opacity="1">
	<path fill="#e4caa6" fill-rule="nonzero" opacity="1" stroke="none" d="M19.382 2.94897L19.382 26.0156L30.632 26.0156L30.632 2.94897L19.382 2.94897Z"/>
	<path fill="#ccb79a" fill-rule="nonzero" filter="url(#Fi_7)" stroke="#101010" stroke-linecap="butt" stroke-linejoin="miter" d="M19.382 2.94897L19.382 9.13928C19.7573 6.95861 20.0695 4.92196 20.0695 2.94897L19.382 2.94897ZM22.4133 2.94897C22.4039 3.46662 22.3869 3.98444 22.3508 4.5052C22.2086 6.5436 21.8876 8.6063 21.6633 10.5917C20.4181 20.83 21.3798 15.7669 20.882 24.4594C20.8548 24.9355 20.8244 25.4518 20.7883 26.0156L22.0383 26.0156C22.0373 25.5011 22.0472 24.9802 22.0383 24.4594C22.0247 23.6655 22.0071 22.8601 22.007 22.1078C21.7818 10.2553 22.1873 14.8327 23.257 4.5052C23.3025 4.06543 23.3654 3.61773 23.4133 3.12189C23.4133 3.06997 23.4133 3.0009 23.4133 2.94897L22.4133 2.94897ZM25.132 2.94897C25.1236 3.46818 25.1121 3.98598 25.1008 4.5052C25.0567 6.54256 25.0156 8.58897 24.9758 10.6263C24.9856 10.7089 24.9943 10.8338 25.007 11.0067C25.0333 11.3541 25.0674 11.4909 25.1008 11.4909C25.1575 11.4909 25.1978 11.1138 25.257 10.7301C25.3161 10.3469 25.3753 9.96926 25.4133 9.96926C25.4358 9.96926 25.4674 10.1061 25.4758 10.4534C25.5696 14.0359 24.7103 12.7673 24.4758 16.2979C24.266 19.3171 24.4665 21.5981 24.4445 24.4594C24.4422 24.7964 24.4543 25.1412 24.4445 25.4969C24.4445 25.6526 24.4289 25.7907 24.382 25.9465L25.2258 25.9465C25.2642 25.4324 25.3147 24.9501 25.3508 24.4594C25.6229 20.7393 25.8314 17.6145 26.0383 13.6696C26.1265 11.3316 26.9771 11.8462 27.007 4.5052C27.0089 4.0213 27.0131 3.50452 27.007 2.94897L25.132 2.94897ZM29.3195 2.94897C29.1788 9.43905 29.7728 7.28347 29.632 13.5659C29.6231 14.084 29.601 14.2575 29.5695 14.2575C29.5156 14.2575 29.4479 13.6762 29.3508 13.0817C29.3104 12.8361 29.2699 12.5936 29.2258 12.39C29.1634 12.1003 29.1031 11.9059 29.0383 11.9059C28.9759 11.9059 28.9098 12.0791 28.8508 12.563C28.4285 16.3537 28.2415 19.2685 28.1008 23.2144C28.0801 23.6298 28.0589 24.044 28.0383 24.4594C28.0125 24.9786 27.9709 25.4964 27.9445 26.0156L28.6008 26.0156C28.6162 25.4964 28.6459 24.9786 28.6633 24.4594C28.698 23.421 28.7259 22.3854 28.7883 21.347C28.8999 19.9467 28.9089 19.0431 29.1008 17.5775C29.2926 16.1118 29.2924 14.4171 29.5695 15.4679C30.0268 17.2011 30.3864 14.8434 30.4445 12.2517C30.597 10.8872 30.4412 7.21251 30.5383 7.20264C30.3604 4.78211 29.956 5.47074 29.9133 2.94897L29.3195 2.94897Z" stroke-opacity="0.8" stroke-width="0.5"/>
	<path fill="none" filter="url(#Fi_8)" stroke="#e2ba82" stroke-linecap="round" stroke-linejoin="round" stroke-width="1" d="M19.368 2.96167L30.6281 2.96167L30.6281 26.0144L19.368 26.0144L19.368 2.96167"/>
</g>
</g>
</svg>