<svg xmlns="http://www.w3.org/2000/svg" xmlns:xlink="http://www.w3.org/1999/xlink" width="100%" height="100%" viewBox="0 0 100 100" xml:space="preserve"><defs><linearGradient id="LG" x1="0" x2="1" y1="0" y2="0" gradientTransform="matrix(-84.3949 -88.9352 88.9352 -84.3949 89.8556 97.7364)" gradientUnits="userSpaceOnUse"><stop offset="0" stop-color="#bf200a" stop-opacity=".9"/><stop offset=".209" stop-color="#d92929" stop-opacity=".96"/><stop offset=".536" stop-color="#d62b4b"/><stop offset=".794" stop-color="#d42c60"/><stop offset=".98" stop-color="#d42c67"/><stop offset="1" stop-color="#d42c67"/></linearGradient><linearGradient id="LG_2" x1="0" x2="1" y1="0" y2="0" gradientTransform="matrix(49.9227 -49.7181 -84.1185 -83.9382 29.7691 69.0626)" gradientUnits="userSpaceOnUse"><stop offset="0" stop-color="snow" stop-opacity=".25"/><stop offset="1" stop-color="#fff" stop-opacity=".9"/></linearGradient><linearGradient id="LG_3" x1="0" x2="1" y1="0" y2="0" gradientTransform="matrix(49.9227 -49.7181 -84.1185 -83.9382 29.7691 69.0626)" gradientUnits="userSpaceOnUse"><stop offset="0" stop-color="snow" stop-opacity=".25"/><stop offset="1" stop-color="#fff" stop-opacity=".9"/></linearGradient><linearGradient id="LG_4" x1="0" x2="1" y1="0" y2="0" gradientTransform="matrix(142.064 -165.899 -271.211 -248.117 -21.2805 149.672)" gradientUnits="userSpaceOnUse"><stop offset="0" stop-color="snow" stop-opacity=".65"/><stop offset="1" stop-color="#fff" stop-opacity=".8"/></linearGradient><linearGradient id="LG_5" x1="0" x2="1" y1="0" y2="0" gradientTransform="matrix(142.064 -165.899 -271.211 -248.117 -21.2805 149.672)" gradientUnits="userSpaceOnUse"><stop offset="0" stop-color="snow" stop-opacity=".65"/><stop offset="1" stop-color="#fff" stop-opacity=".8"/></linearGradient><linearGradient id="LG_6" x1="0" x2="1" y1="0" y2="0" gradientTransform="matrix(-45.9488 -46.237 -42.5288 42.3838 72.148 73.5806)" gradientUnits="userSpaceOnUse"><stop offset="0" stop-color="#bbb7b7" stop-opacity=".8"/><stop offset="1" stop-color="#fff"/></linearGradient><linearGradient id="LG_7" x1="0" x2="1" y1="0" y2="0" gradientTransform="matrix(45.1903 -45.7651 -78.1716 -77.3127 27.2403 76.8769)" gradientUnits="userSpaceOnUse"><stop offset="0" stop-color="snow" stop-opacity=".5"/><stop offset="1" stop-color="#fff" stop-opacity=".8"/></linearGradient><filter id="Fi" width="32.879" height="32.879" x="33.637" y="33.637" color-interpolation-filters="sRGB" filterUnits="userSpaceOnUse"><feGaussianBlur in="SourceGraphic" result="Blur" stdDeviation="2"/></filter></defs><g fill-rule="nonzero" stroke="none" opacity="1"><path fill="url(#LG)" d="M13.5938 5.5C9.12427 5.5 5.5 9.12427 5.5 13.5938L5.5 86.4062C5.5 90.8757 9.12427 94.5 13.5938 94.5L86.4062 94.5C90.8757 94.5 94.5 90.8757 94.5 86.4062L94.5 13.5938C94.5 9.12427 90.8757 5.5 86.4062 5.5L13.5938 5.5ZM67.9062 24.5938C69.899 24.5119 71.8521 25.1959 73.3125 26.6563C76.2332 29.577 76.0459 34.5479 72.875 37.7188L60.5938 50L72.875 62.2813C76.0459 65.4521 76.2332 70.3918 73.3125 73.3125C70.3918 76.2332 65.4522 76.0459 62.2813 72.875L50 60.5938L37.7188 72.875C34.5479 76.0459 29.6082 76.202 26.6875 73.2812C23.7668 70.3605 23.9541 65.4522 27.125 62.2813L39.4063 50L27.125 37.7188C23.9541 34.5479 23.7668 29.6082 26.6875 26.6875C28.1479 25.2271 30.0925 24.5516 32.0938 24.625C34.095 24.6984 36.1333 25.5396 37.7188 27.125L50 39.4063L62.2813 27.125C63.8667 25.5396 65.9135 24.6756 67.9062 24.5938Z"/><path fill="url(#LG_2)" d="M39.4063 50L27.125 62.2813C23.9541 65.4522 23.7668 70.3605 26.6875 73.2812C29.6082 76.202 34.5479 76.0459 37.7188 72.875L50 60.5938L39.4063 50Z"/><path fill="url(#LG_3)" d="M67.9063 24.5938C65.9135 24.6756 63.8667 25.5396 62.2813 27.125L50 39.4063L60.5938 50L72.875 37.7188C76.0459 34.5479 76.2332 29.577 73.3125 26.6563C71.8521 25.1959 69.899 24.5119 67.9063 24.5938Z" opacity=".8"/><path fill="url(#LG_4)" d="M39.4063 50L27.125 62.2813C23.9541 65.4522 23.7668 70.3605 26.6875 73.2812C29.6082 76.202 34.5479 76.0459 37.7188 72.875L50 60.5938L39.4063 50Z" opacity=".4"/><path fill="url(#LG_5)" d="M67.9063 24.5938C65.9135 24.6756 63.8667 25.5396 62.2813 27.125L50 39.4063L60.5938 50L72.875 37.7188C76.0459 34.5479 76.2332 29.577 73.3125 26.6563C71.8521 25.1959 69.899 24.5119 67.9063 24.5938Z" opacity=".4"/><path fill="url(#LG_6)" d="M32.0938 24.625C30.0925 24.5516 28.1479 25.2271 26.6875 26.6875C23.7668 29.6082 23.9541 34.5479 27.125 37.7188L39.4062 50L50 60.5938L62.2812 72.875C65.4522 76.0459 70.3918 76.2332 73.3125 73.3125C76.2332 70.3918 76.0459 65.4521 72.875 62.2812L60.5938 50L50 39.4062L37.7188 27.125C36.1333 25.5396 34.095 24.6984 32.0938 24.625Z" opacity=".959"/><path fill="url(#LG_7)" d="M50 38.6374L38.6374 50L50.154 61.5166L61.5166 50.154L50 38.6374Z" filter="url(#Fi)" opacity=".466"/></g></svg>