<svg viewBox="0 0 100 100" xmlns="http://www.w3.org/2000/svg" xml:space="preserve" width="100%" height="100%" stroke-miterlimit="10" style="fill-rule:nonzero;clip-rule:evenodd;stroke-linecap:round;stroke-linejoin:round" version="1.1" viewbox="0 0 100 100"><defs><linearGradient id="a" x1="0" x2="1" y1="0" y2="0" gradientTransform="rotate(-133.499 69.21 31.232) scale(135.9572)" gradientUnits="userSpaceOnUse"><stop offset="0" stop-color="#bf200a" stop-opacity=".9"/><stop offset=".209" stop-color="#d92929" stop-opacity=".96"/><stop offset=".536" stop-color="#d62b4b"/><stop offset=".794" stop-color="#d42c60"/><stop offset=".98" stop-color="#d42c67"/><stop offset="1" stop-color="#d42c67"/></linearGradient><linearGradient id="b" x1="0" x2="1" y1="0" y2="0" gradientTransform="matrix(55.3595 -55.1326 -93.2794 -93.0795 27.566 71.139)" gradientUnits="userSpaceOnUse"><stop offset="0" stop-color="snow" stop-opacity=".25"/><stop offset="1" stop-color="#fff" stop-opacity=".9"/></linearGradient><linearGradient id="c" x1="0" x2="1" y1="0" y2="0" gradientTransform="matrix(55.3595 -55.1326 -93.2794 -93.0795 27.566 71.139)" gradientUnits="userSpaceOnUse"><stop offset="0" stop-color="snow" stop-opacity=".25"/><stop offset="1" stop-color="#fff" stop-opacity=".9"/></linearGradient><linearGradient id="d" x1="0" x2="1" y1="0" y2="0" gradientTransform="matrix(157.536 -183.966 -300.747 -275.138 -29.043 160.527)" gradientUnits="userSpaceOnUse"><stop offset="0" stop-color="snow" stop-opacity=".65"/><stop offset="1" stop-color="#fff" stop-opacity=".8"/></linearGradient><linearGradient id="e" x1="0" x2="1" y1="0" y2="0" gradientTransform="matrix(157.536 -183.966 -300.747 -275.138 -29.043 160.527)" gradientUnits="userSpaceOnUse"><stop offset="0" stop-color="snow" stop-opacity=".65"/><stop offset="1" stop-color="#fff" stop-opacity=".8"/></linearGradient><linearGradient id="f" x1="0" x2="1" y1="0" y2="0" gradientTransform="matrix(-50.9528 -51.2725 -47.1604 46.9996 74.56 76.149)" gradientUnits="userSpaceOnUse"><stop offset="0" stop-color="#bbb7b7" stop-opacity=".8"/><stop offset="1" stop-color="#fff"/></linearGradient><linearGradient id="g" x1="0" x2="1" y1="0" y2="0" gradientTransform="matrix(-50.9528 -51.2725 -47.1604 46.9996 74.56 76.149)" gradientUnits="userSpaceOnUse"><stop offset="0" stop-color="#bbb7b7" stop-opacity=".9"/><stop offset="1" stop-color="#fff"/></linearGradient><linearGradient id="h" x1="0" x2="1" y1="0" y2="0" gradientTransform="matrix(50.1118 -50.7491 -86.6849 -85.7325 24.762 79.804)" gradientUnits="userSpaceOnUse"><stop offset="0" stop-color="snow" stop-opacity=".5"/><stop offset="1" stop-color="#fff" stop-opacity=".8"/></linearGradient><linearGradient id="j" x1="0" x2="1" y1="0" y2="0" gradientTransform="matrix(50.1118 -50.7491 -86.6849 -85.7325 24.762 79.804)" gradientUnits="userSpaceOnUse"><stop offset="0" stop-color="snow" stop-opacity=".5"/><stop offset="1" stop-color="#fff" stop-opacity=".8"/></linearGradient><filter id="i" width="36.46" height="36.46" x="31.855" y="31.855" color-interpolation-filters="sRGB" filterUnits="userSpaceOnUse"><feGaussianBlur in="SourceGraphic" result="Blur" stdDeviation="2.218"/></filter><filter id="k" width="36.46" height="36.46" x="31.855" y="31.855" color-interpolation-filters="sRGB" filterUnits="userSpaceOnUse"><feGaussianBlur in="SourceGraphic" result="Blur" stdDeviation="2.218"/></filter></defs><g fill-rule="nonzero" opacity="1"><path fill="#000" opacity="0" d="M0 7.10543e-15L100 7.10543e-15L100 100L0 100L0 7.10543e-15Z"/><g opacity="1"><path fill="url(#a)" opacity="1" d="M9.62892 0.653717C4.67269 0.653717 0.653715 4.67269 0.653717 9.62892L0.653717 90.3711C0.653717 95.3273 4.67269 99.3463 9.62892 99.3463L90.3711 99.3463C95.3273 99.3463 99.3463 95.3273 99.3463 90.3711L99.3463 9.62892C99.3463 4.67269 95.3273 0.653715 90.3711 0.653717L9.62892 0.653717ZM69.8563 21.8269C72.0661 21.7361 74.232 22.4946 75.8514 24.114C79.0901 27.3528 78.8824 32.865 75.3662 36.3813L61.7475 50L75.3662 63.6187C78.8824 67.135 79.0902 72.6125 75.8514 75.8514C72.6126 79.0901 67.135 78.8824 63.6187 75.3662L50 61.7475L36.3813 75.3662C32.865 78.8824 27.3875 79.0555 24.1486 75.8167C20.9099 72.5779 21.1176 67.135 24.6338 63.6187L38.2525 50L24.6338 36.3813C21.1176 32.865 20.9098 27.3874 24.1486 24.1486C25.768 22.5293 27.9244 21.7801 30.1437 21.8615C32.3629 21.9429 34.6232 22.8757 36.3813 24.6338L50 38.2525L63.6187 24.6338C65.3769 22.8757 67.6465 21.9177 69.8563 21.8269Z"/><g opacity="1"><g opacity="1"><path fill="url(#b)" opacity="1" d="M38.2525 50L24.6338 63.6187C21.1176 67.135 20.9099 72.5779 24.1486 75.8167C27.3875 79.0555 32.865 78.8824 36.3813 75.3662L50 61.7475L38.2525 50Z"/><path fill="url(#c)" opacity=".8" d="M69.8563 21.8269C67.6465 21.9177 65.3769 22.8757 63.6187 24.6338L50 38.2525L61.7475 50L75.3662 36.3813C78.8824 32.865 79.0901 27.3528 75.8514 24.114C74.232 22.4946 72.0661 21.7361 69.8563 21.8269Z"/></g><g opacity=".7"><path fill="url(#d)" opacity=".8" d="M38.2525 50L24.6338 63.6187C21.1176 67.135 20.9099 72.5779 24.1486 75.8167C27.3875 79.0555 32.865 78.8824 36.3813 75.3662L50 61.7475L38.2525 50Z"/><path fill="url(#e)" opacity=".9" d="M69.8563 21.8269C67.6465 21.9177 65.3769 22.8757 63.6187 24.6338L50 38.2525L61.7475 50L75.3662 36.3813C78.8824 32.865 79.0901 27.3528 75.8514 24.114C74.232 22.4946 72.0661 21.7361 69.8563 21.8269Z"/></g></g><path fill="url(#f)" opacity="1" d="M30.1437 21.8615C27.9244 21.7801 25.768 22.5293 24.1486 24.1486C20.9098 27.3874 21.1176 32.865 24.6338 36.3813L38.2525 50L50 61.7475L63.6187 75.3662C67.135 78.8824 72.6126 79.0901 75.8514 75.8514C79.0902 72.6125 78.8824 67.135 75.3662 63.6187L61.7475 50L50 38.2525L36.3813 24.6338C34.6232 22.8757 32.3629 21.9429 30.1437 21.8615Z"/><path fill="url(#h)" d="M50 37.4L37.4 50L50.1708 62.7708L62.7708 50.1708L50 37.4Z" filter="url(#i)" opacity=".4"/><path fill="url(#j)" d="M50 37.4L37.4 50L50.1708 62.7708L62.7708 50.1708L50 37.4Z" filter="url(#k)" opacity=".466"/></g></g></svg>