<svg width="100%" height="100%" viewBox="0 0 100 100" stroke-miterlimit="10" style="fill-rule:nonzero;clip-rule:evenodd;stroke-linecap:round;stroke-linejoin:round;" version="1.1" xml:space="preserve" xmlns="http://www.w3.org/2000/svg" xmlns:vectornator="http://vectornator.io" xmlns:xlink="http://www.w3.org/1999/xlink">
<defs><linearGradient gradientTransform="matrix(0.044921 -35.7266 35.7266 0.044921 22.5308 53.0123)" gradientUnits="userSpaceOnUse" id="LinearGradient_Code" x1="0" x2="1" y1="0" y2="0"><stop offset="0" stop-color="#d07777"/><stop offset="1" stop-color="#fdd8d8"/></linearGradient><linearGradient gradientTransform="matrix(-0.518976 -45.8657 45.8657 -0.518976 54.0916 81.7071)" gradientUnits="userSpaceOnUse" id="LinearGradient_Code_2" x1="0" x2="1" y1="0" y2="0"><stop offset="0" stop-color="#8a0202"/><stop offset="1" stop-color="#e10303"/></linearGradient></defs><g id="Code-1"><path id="Oval-1" d="M12.4413 82.3087C12.4413 81.214 29.2569 80.3265 50 80.3265C70.7431 80.3265 87.5587 81.214 87.5587 82.3087C87.5587 82.6764 87.4682 84.4499 84.1611 84.7451C77.6242 85.3286 63.7625 84.4386 50 85.0086C38.5013 85.4849 25.9017 85.4202 19.0132 84.9957C13.3912 84.6492 12.4413 82.8006 12.4413 82.3087Z" fill="#000000" fill-rule="nonzero" opacity="1" stroke="none"/><g opacity="1" id="CodeGroup-1"><path id="Code" d="M6.80524 17.5056C6.22376 17.9606 5.09742 19.0955 4.67632 19.6507C3.84429 20.7476 3.04962 22.2404 2.64292 23.4703C1.97379 25.4941 1.24396 30.0573 0.931456 34.1714C0.725899 36.8772 0.305569 40.8566 0.304305 43.6931C0.303672 45.0383 0.297954 47.8586 0.78783 48.0822C2.66832 48.9402 4.67508 50.6158 6.7498 51.3061C8.2214 51.7958 15.3607 50.7738 19.691 51.3061C21.0447 51.4726 60.2339 50.0286 60.2515 50C60.2882 49.9408 77.8141 48.3005 87.5587 43.2351C94.3994 39.6791 93.3833 31.7599 97.1154 33.0385C97.5617 33.1913 98.7106 34.9651 99.2624 34.3943C99.5901 34.0547 98.3634 31.5819 98.9284 31.3636C98.973 31.3189 98.5982 29.3784 98.3766 28.0617C97.9893 25.7572 97.7394 24.1855 97.3477 23.1454C95.814 19.0716 92.7887 16.2492 88.6063 15.3779C86.824 15.0066 79.3314 14.375 73.2657 14.1194C65.9607 13.8116 52.8634 14.1015 38.9555 14.2322C38.9555 14.2322 21.4857 14.5832 12.1803 15.6795C9.01569 16.0524 7.22295 17.1787 6.80524 17.5056Z" fill="url(#LinearGradient_Code)" fill-rule="nonzero" opacity="1" stroke="none"/><path id="Code-2" d="M11.201 81.7225C11.201 81.7552 11.0395 81.904 10.8422 82.0527C10.2595 82.4922 9.80029 83.0704 9.6802 83.5161C9.58521 83.8683 9.69382 84.137 10.0655 84.471C10.4239 84.793 10.7444 84.9544 11.5435 85.2162C15.8829 86.6381 29.0515 86.6902 49.4744 85.3662C51.2739 85.2501 53.996 85.1101 56.4907 85.0065C58.9445 84.9042 67.8761 84.9042 70.3967 85.0059C72.6887 85.0981 75.7191 85.2476 77.0971 85.3361C77.6533 85.3719 78.7626 85.4415 79.5624 85.4918C80.3622 85.542 81.9266 85.6443 83.0391 85.7197C85.7379 85.9023 88.5247 85.9193 89.1964 85.7561C89.7859 85.6129 90.1375 85.4541 90.3396 85.2388C90.4759 85.0931 90.4972 85.0128 90.496 84.6493C90.4941 84.2757 90.4621 84.1684 90.2147 83.6975C90.0251 83.3372 89.7652 82.9837 89.4011 82.5933C89.1067 82.2769 88.8348 82.0069 88.7972 81.9931C88.7589 81.9793 88.713 81.946 88.6948 81.919C88.6773 81.8914 88.4067 81.9065 88.0947 81.9523C87.782 81.9981 86.7788 82.1161 85.8648 82.2141C84.203 82.393 84.203 82.393 84.6713 82.6284C85.2043 82.8965 85.4724 83.1702 85.4724 83.4471C85.4724 83.8099 85.1384 83.9895 84.1132 84.1784C83.3109 84.3266 78.3934 84.3511 73.1583 84.2331C63.7264 84.0202 57.2003 84.0366 49.8853 84.2908C34.1256 84.8389 22.4691 84.6568 17.3323 83.7829C15.7915 83.5205 14.926 83.1759 15.0919 82.8908C15.1783 82.7427 15.7915 82.4288 15.9951 82.4288C16.4559 82.4288 15.9044 82.339 14.4185 82.172C12.3453 81.9391 11.9392 81.877 11.3116 81.6949C11.2507 81.6773 11.201 81.6899 11.201 81.7225" fill="#121212" fill-rule="nonzero" opacity="1" stroke="none"/><path id="Code-1" d="M36.4444 13.7331C27.602 13.8681 14.0595 14.9199 14.0595 14.9199C14.0595 14.9199 11.3754 15.2648 10.3393 15.6054C6.48349 16.8727 3.3922 19.9932 2.08727 23.9354C1.46714 25.809 0.780027 29.8203 0.443094 33.5347C0.0723213 37.6219 0.00182059 40.0595 0.00182059 48.7899C0.00182059 57.3117 0.0742046 59.9456 0.410888 63.6686C0.738656 67.2925 1.39495 71.2728 1.97364 73.1466C3.31027 77.4743 6.80178 80.853 11.0871 81.9661C11.9759 82.1965 12.2234 82.2354 14.2773 82.4665C15.7531 82.6328 83.5878 82.6874 85.4887 82.4809C88.4287 82.162 89.4752 81.9083 91.1125 81.1192C93.2815 80.0739 95.0317 78.544 96.3488 76.5433C97.6226 74.6077 98.177 72.9572 98.8123 69.211C99.4169 65.6471 99.7169 62.2546 99.9247 56.6373C99.9994 54.603 100.03 42.8342 99.9624 42.0412C99.9373 41.7477 99.9015 40.8154 99.8827 39.9695C99.7621 34.5728 99.2436 29.7386 98.3358 25.5617C97.6251 22.2916 95.9615 19.5952 93.4478 17.6394C91.9888 16.5043 90.1193 15.6341 88.3 15.2438C87.627 15.0994 86.2458 14.9367 83.7171 14.7041C77.6363 14.1447 71.6089 13.8619 62.9059 13.7279C58.3999 13.6584 41.1094 13.6619 36.4444 13.7331M38.9555 14.2322C36.4522 14.2557 33.7543 14.2942 32.9601 14.3176C28.1257 14.4605 25.1789 14.5841 22.2877 14.7652C18.4625 15.005 13.4475 15.4586 12.1803 15.6795C10.2449 16.0169 8.3533 16.8744 6.71854 18.1553C6.14103 18.6077 5.02238 19.7363 4.60414 20.2883C3.77778 21.3791 2.98853 22.8634 2.58461 24.0864C1.92003 26.0989 1.19518 30.6365 0.884805 34.7275C0.680648 37.4181 0.536697 41.2802 0.535442 44.1008C0.534814 45.4384 0.534814 45.4384 1.02135 45.6607C2.88902 46.514 5.34927 47.4783 7.40986 48.1648C9.35858 48.814 12.5749 49.5457 12.5582 49.5726L14.005 49.8819C14.005 49.8819 15.3888 50.1355 16.6769 50.3135C17.965 50.4915 18.6418 50.5634 21.0325 50.6259C23.4232 50.6884 26.2068 50.5894 26.2396 50.5634C26.2724 50.5376 27.2203 50.5176 27.2203 50.5176C27.2203 50.5176 29.2733 50.5177 30.8126 50.2259C31.516 50.0925 31.6766 50.0425 31.6686 49.9595C31.6393 49.6569 31.6801 48.6817 31.7203 48.7219C31.7462 48.7478 31.7848 52.4463 31.8062 56.9407C31.8483 65.8066 31.8335 65.4487 32.1969 66.4118C32.9561 68.4235 34.963 69.3042 37.1177 68.5711C37.8111 68.3353 37.016 68.7839 48.8432 61.9545C50.8459 60.7981 54.2218 58.8493 56.3453 57.6236C64.7528 52.7712 65.8665 52.125 66.139 51.9418C66.2941 51.8373 66.6494 51.5205 66.9281 51.2376C67.4643 50.6937 67.8836 49.9812 68.018 49.3863C68.1134 48.9652 68.0977 48.0815 67.9885 47.6602C67.7367 46.6955 66.8754 45.6448 65.7937 44.9845C65.483 44.7949 62.3699 42.9901 58.876 40.974C55.3821 38.9579 52.5378 37.2851 52.5553 37.2568C52.6174 37.1565 54.5046 35.7761 55.3408 35.2193C59.9224 32.1692 64.9839 30.1248 70.5354 29.0819C78.9082 27.5091 88.477 28.3413 97.4638 31.4238C98.1701 31.6662 98.7627 31.8504 98.7803 31.833C98.8242 31.7886 98.5574 29.7275 98.3371 28.4182C97.9522 26.1266 97.6126 24.6673 97.2234 23.633C95.7003 19.5821 92.2651 16.6067 88.1116 15.7402C86.3419 15.371 78.8178 14.7692 72.7936 14.515C65.5388 14.2089 52.7686 14.1022 38.9555 14.2322M0 48.7899C0 52.1737 0.00759625 53.5488 0.0168875 51.8456C0.0261788 50.1425 0.0261788 47.374 0.0168875 45.6933C0.00759625 44.0127 0 45.4062 0 48.7899" fill="url(#LinearGradient_Code_2)" fill-rule="evenodd" opacity="1" stroke="none"/><g opacity="1" id="CodeGroup-1"><path id="Code-2" d="M30.898 28.9283L30.898 67.8161C30.898 70.7786 34.1683 72.5734 36.669 70.9851L67.2213 51.5431C69.5416 50.0674 69.5416 46.6845 67.2213 45.2088L36.669 25.7593C34.1683 24.1673 30.898 25.9658 30.898 28.9283Z" fill="#ffffff" fill-rule="nonzero" opacity="1" stroke="none"/><path id="Code-3" fill="#f2f1f1" fill-rule="nonzero" opacity="1" stroke="none" d="M53.4906 36.6607C53.4124 36.6956 53.3052 36.7368 53.2238 36.7724C51.948 38.2376 51.0887 39.1295 50.0342 40.0178C45.1004 44.1744 40.8793 46.9616 36.4195 48.6537C34.9343 49.2172 33.5979 49.5885 31.087 50.1947C31.0518 50.2032 30.9898 50.2178 30.9567 50.2258L30.9567 68.5504C30.9567 71.5456 34.2636 73.3602 36.7918 71.7544L67.6802 52.0977C70.0263 50.6058 70.0263 47.1856 67.6802 45.6938L53.4906 36.6607Z"/></g></g></g>
</svg>