<svg xmlns="http://www.w3.org/2000/svg" xml:space="preserve" viewBox="0 0 100 100"><defs><linearGradient id="a" x1="0" x2="1" y1="0" y2="0" gradientTransform="matrix(-85.7 -85.9 -74.3 99 80.5 105.5)" gradientUnits="userSpaceOnUse"><stop offset="0" stop-color="red"/><stop offset=".2" stop-color="#fe1f1f"/><stop offset=".4" stop-color="#fc3d3d"/><stop offset=".7" stop-color="#f04141"/><stop offset="1" stop-color="#fb5151"/></linearGradient><linearGradient id="b" x1="0" x2="1" y1="0" y2="0" gradientTransform="matrix(-14.8 -27.4 29.9 -16.2 90.9 93.2)" gradientUnits="userSpaceOnUse"><stop offset="0" stop-color="#1da700"/><stop offset="1" stop-color="#00bd1d"/></linearGradient><linearGradient id="d" x1="0" x2="1" y1="0" y2="0" gradientTransform="matrix(14.4 6.7 -6.7 14.4 79.3 78.3)" gradientUnits="userSpaceOnUse"><stop offset="0" stop-color="#fff"/><stop offset="1" stop-color="#b8b8b8"/></linearGradient><radialGradient id="e" cx="0" cy="0" r="1" gradientTransform="matrix(2.2 -.5 1.3 2.1 92.7 70.4)" gradientUnits="userSpaceOnUse"><stop offset="0" stop-color="#00dd0f"/><stop offset="1" stop-color="#ff77b1" stop-opacity="0"/></radialGradient><radialGradient id="f" cx="0" cy="0" r="1" gradientTransform="matrix(-2.4 2 -2 -2.4 85.6 71.4)" gradientUnits="userSpaceOnUse"><stop offset="0" stop-color="#fefefe"/><stop offset="1" stop-color="#b8b8b8" stop-opacity="0"/></radialGradient><filter id="c" width="37.7" height="37.8" x="64.6" y="60.6" color-interpolation-filters="sRGB" filterUnits="userSpaceOnUse"><feDropShadow dx="0" dy="0" flood-color="#000" flood-opacity=".4" in="SourceGraphic" result="Shadow" stdDeviation="1.3"/></filter></defs><path fill="url(#a)" d="M79.6 9.8A212.6 212.6 0 0 0 40.2 8c-2.5.1-8.7 1.3-14.7 1.4C6.5 9.8 2.8 24.6 2.7 26a186.2 186.2 0 0 0-.8 40c.3 4.6.8 8.6 1.3 11.9.5 3 1.8 5.6 3.7 7.6 1.7 2 4 3.2 6.5 3.6A183.9 183.9 0 0 0 39.7 92a216.7 216.7 0 0 0 44-2.4c.9-.2 5.1-.5 8-2.9 2.4-2 4.3-5.2 4.9-8.8A191.9 191.9 0 0 0 98.8 50c-.1-3.8.1-13.6-.2-16.8-1.2-11.6-2-19.8-19-23.4Z"/><path fill="#e40512" d="M98.6 33.2 77.8 54A541 541 0 0 1 6.6 85.3S9 88 13.4 89c2.5.7 7.2 1.3 13 1.9a272.2 272.2 0 0 0 32.4 1c6 0 21.7-1.8 24.8-2.4 6.6-1.3 11-3.4 13-11.7 1.4-6.4 1-11 1.7-17.3a179.6 179.6 0 0 0 .3-27.4Z"/><path fill="#fe5067" d="M44.6 7.8 1.2 50C1.6 60.1 3 74.5 3 74.5s3.6 2.7 11.6-3.3c5-3.7 59.4-62 59.4-62-2.9-.3-8.4-.9-13.4-1.2-6.3-.3-13.8-.2-16-.2Z"/><path fill="#ff637b" d="M44.6 7.8c-4.7 0-14.9.7-22.4 1.5-11.2 1.3-19 9.4-19.8 21.3C2 35.8 1.6 42.8 1.3 50L44.5 7.8Z"/><path fill="#f5293d" d="M74 9.1s-31.7 33.7-38 40C29 56.4 22.9 64 14.7 70.3 6.3 76.7 3 74.5 3 74.5c.1 1.7 1.2 7.7 3.6 10.8 0 0 42-2.3 42.8-2.8l49.2-49.3c-2.4-15.2-2.3-21-24.6-24Z"/><path fill="#d6000c" d="m49.4 82.5 9.4 9.6 24.8-2.5c4.2-.5 7.3-2.3 8-2.9 2.3-1.7 4.3-5.6 5-8.8L77.8 54 49.4 82.5Z"/><g fill="#fff"><path d="M17.4 41c0-.3.4-.6.9-.6l55.4.3c.4 0 .8.3.8.7v5.2c0 .4-.4.7-.9.7L18.3 47c-.5 0-.9-.3-.9-.7V41ZM17.4 54c0-.5.3-.8.8-.8l45.6.3c.5 0 .9.3.9.7v5.2c0 .4-.5.7-1 .7l-45.5-.3c-.5 0-.9-.3-.9-.7V54ZM17.3 66.2c0-.4.4-.7.8-.7l40.7.2c.5 0 .9.3.9.7v5.2c0 .4-.4.7-.9.7l-40.7-.2c-.5 0-.8-.3-.8-.7v-5.2ZM17.5 28.4c0-.4.4-.7.9-.7l63.5.4c.5 0 .8.3.8.7V34c0 .4-.4.7-.8.7l-63.6-.4c-.4 0-.8-.3-.8-.7v-5.2Z"/></g><path fill="url(#b)" d="M90.9 93.2A15.5 15.5 0 1 1 76 65.8a15.5 15.5 0 0 1 14.8 27.4Z" filter="url(#c)"/><path fill="url(#d)" d="M81.8 69.9c-.5 0-.8.3-.8.7V77h-6.4c-.4 0-.8.4-.8.8v3.4c0 .4.4.7.8.7H81v6.4c0 .4.3.8.8.8H85c.4 0 .8-.4.8-.8V82h6.4c.4 0 .7-.3.7-.7v-3.4c0-.4-.3-.8-.7-.8h-6.4v-6.4c0-.4-.4-.7-.8-.7h-3.3Z"/><path fill="url(#e)" d="M70.2 71.2a15.5 15.5 0 1 1 26.4 16.6 15.5 15.5 0 0 1-26.4-16.6Z"/><path fill="url(#f)" d="M81.8 69.9c-.5 0-.8.3-.8.7V77h-6.4c-.4 0-.8.4-.8.8v3.4c0 .4.4.7.8.7H81v6.4c0 .4.3.8.8.8H85c.4 0 .8-.4.8-.8V82h6.4c.4 0 .7-.3.7-.7v-3.4c0-.4-.3-.8-.7-.8h-6.4v-6.4c0-.4-.4-.7-.8-.7h-3.3Z"/></svg>