<svg width="100%" height="100%" xmlns="http://www.w3.org/2000/svg" xml:space="preserve" stroke-miterlimit="10" viewBox="0 0 100 100">
   <defs>
      <linearGradient id="a" x1="0" x2="1" y1="0" y2="0" gradientTransform="matrix(.71833 52.578 -47.6279 .71833 50.546 5.537)" gradientUnits="userSpaceOnUse"><stop offset="0" stop-color="#db6569"/><stop offset="1" stop-color="#db6569" stop-opacity="0"/></linearGradient>
      <linearGradient id="b" x1="0" x2="1" y1="0" y2="0" gradientTransform="matrix(18.7387 -28.6379 37.7764 24.9704 13.024 101.841)" gradientUnits="userSpaceOnUse"><stop offset="0" stop-color="#d82428"/><stop offset="1" stop-color="#d82428" stop-opacity="0"/></linearGradient>
      <linearGradient id="c" x1="0" x2="1" y1="0" y2="0" gradientTransform="scale(-67.84975)rotate(89.6 .258 -1.433)" gradientUnits="userSpaceOnUse"><stop offset="0" stop-color="#31995f"/><stop offset=".093" stop-color="#329e62"/><stop offset=".666" stop-color="#22ec79"/><stop offset="1" stop-color="#00ff70"/></linearGradient>
      <linearGradient id="e" x1="0" x2="1" y1="0" y2="0" gradientTransform="matrix(.1012 22.246 -20.7237 -.0316 78.911 60.214)" gradientUnits="userSpaceOnUse"><stop offset=".02" stop-color="#c7ffe0"/><stop offset="1" stop-color="#65db9a" stop-opacity="0"/></linearGradient>
      <linearGradient id="f" x1="0" x2="1" y1="0" y2="0" gradientTransform="matrix(21.1508 -25.9834 18.3668 16.8748 53.314 112.41)" gradientUnits="userSpaceOnUse"><stop offset=".02" stop-color="#c7ffe0"/><stop offset="1" stop-color="#65db9a" stop-opacity="0"/></linearGradient>
      <filter id="d" width="50.178" height="50.178" x="54.011" y="55.039" color-interpolation-filters="sRGB" filterUnits="userSpaceOnUse"><feDropShadow dx="0" dy="1.156" flood-color="#000" flood-opacity=".55" in="SourceGraphic" result="Shadow" stdDeviation="1.824"/></filter>
      <filter id="g" height="33.071" x="62.564" y="63.593" color-interpolation-filters="sRGB" filterUnits="userSpaceOnUse"><feDropShadow dx="0" dy="1.156" flood-color="#000" flood-opacity=".55" in="SourceGraphic" result="Shadow" stdDeviation="1.824"/></filter>
   </defs>
      <path fill="#911618" d="M50 99.5C22.775 99.5.5 77.225.5 50S22.775.5 50 .5 99.5 22.775 99.5 50 77.225 99.5 50 99.5"/>
      <path fill="url(#a)" d="M17.256 30.59c0-13.62 14.694-24.66 32.819-24.66s32.818 11.04 32.818 24.66S68.2 55.25 50.075 55.25c-18.126 0-32.819-11.04-32.819-24.66"/>
      <path fill="url(#b)" d="M25.953 86.228C16.145 79.658 3.673 65.62 8.741 60.4c5.4-5.56 12.734 7.3 24.304 14.858s25.4 9.644 21.977 15.375c-2.664 4.46-19.261 2.166-29.069-4.405"/>
      <path fill="#741315" d="M35.3 38.818c-3.999 0-7.24 2.968-7.24 6.63v15.165c0 3.662 3.241 6.63 7.24 6.63h31.587c3.998 0 7.24-2.968 7.24-6.63V45.447c0-3.661-3.242-6.63-7.24-6.63zm18.495 11.55a.836.836 0 0 1-.021 1.474l-8.443 4.36a.836.836 0 0 1-1.22-.743l.003-9.023a.836.836 0 0 1 1.24-.732z" opacity=".869"/>
      <path fill="#e7e6e8" stroke="#e8e6e6" stroke-linecap="round" stroke-linejoin="round" d="M35.817 35.432a6.807 6.807 0 0 0-6.808 6.807v15.574a6.807 6.807 0 0 0 6.808 6.807h29.704a6.807 6.807 0 0 0 6.808-6.807V42.239a6.807 6.807 0 0 0-6.808-6.807zm9.451 5.933c.215-.004.438.049.646.17l6.39 3.7 6.39 3.701a1.251 1.251 0 0 1 0 2.167l-6.403 3.681-6.396 3.688c-.835.48-1.875-.127-1.874-1.09L44.028 50l.006-7.382c.001-.722.59-1.243 1.234-1.253"/>
      <path fill="url(#c)" d="M79.1 58.444c-11.338 0-20.528 9.19-20.528 20.528S67.762 99.5 79.1 99.5s20.528-9.19 20.528-20.528-9.19-20.528-20.528-20.528" filter="url(#d)"/>
      <path fill="url(#e)" d="M63.337 71.308c0-6.2 7.057-11.225 15.763-11.225s15.763 5.026 15.763 11.225c0 6.2-7.058 11.226-15.763 11.226s-15.763-5.026-15.763-11.226"/>
      <path fill="url(#f)" d="M91.415 93.237c-5.58 7.272-16.7 8.107-24.835 1.865-8.136-6.243-10.207-17.2-4.627-24.472s16.7-8.107 24.836-1.865c8.135 6.243 10.207 17.2 4.626 24.472"/>
      <path fill="#FFF" filter="url(#g)" d="M87.653 82.393H70.546a3.43 3.43 0 0 1-3.421-3.421 3.43 3.43 0 0 1 3.421-3.421h17.107a3.43 3.43 0 0 1 3.421 3.42 3.43 3.43 0 0 1-3.42 3.422M82.521 70.42v17.106a3.43 3.43 0 0 1-3.421 3.422 3.43 3.43 0 0 1-3.422-3.422V70.42a3.43 3.43 0 0 1 3.422-3.422 3.43 3.43 0 0 1 3.421 3.422"/></svg>