<svg height="100%" stroke-miterlimit="10" style="fill-rule:nonzero;clip-rule:evenodd;stroke-linecap:round;stroke-linejoin:round;" version="1.1" viewBox="0 0 100 100" width="100%" xml:space="preserve" xmlns="http://www.w3.org/2000/svg" xmlns:xlink="http://www.w3.org/1999/xlink">
<defs>
	<linearGradient gradientTransform="matrix(0.0433533 -34.4798 34.4798 0.0433533 22.4311 48.8894)" gradientUnits="userSpaceOnUse" id="LinearGradient" x1="0" x2="1" y1="0" y2="0"><stop offset="0" stop-color="#d07777"/><stop offset="1" stop-color="#fdd8d8"/></linearGradient>
	<linearGradient gradientTransform="matrix(-0.500864 -44.265 44.265 -0.500864 52.8905 76.5828)" gradientUnits="userSpaceOnUse" id="LinearGradient_2" x1="0" x2="1" y1="0" y2="0"><stop offset="0" stop-color="#8a0202"/><stop offset="1" stop-color="#e10303"/></linearGradient>
	<filter color-interpolation-filters="sRGB" filterUnits="userSpaceOnUse" height="41.209" id="Filter" width="41.209" x="60.7876" y="51.1487"><feDropShadow dx="-0.191459" dy="0.410533" flood-color="#000" flood-opacity="0.45" in="SourceGraphic" result="Shadow" stdDeviation="1.14986"/></filter>
	<linearGradient gradientTransform="matrix(-0.409216 -58.5996 58.5996 -0.409216 82.2037 101.637)" gradientUnits="userSpaceOnUse" id="LinearGradient_3" x1="0" x2="1" y1="0" y2="0"><stop offset="0" stop-color="#31995f"/><stop offset="0.093" stop-color="#329e62"/><stop offset="0.665789" stop-color="#22ec79"/><stop offset="1" stop-color="#00ff70"/></linearGradient>
	<linearGradient gradientTransform="matrix(0.0873992 19.2136 -17.8988 -0.027294 81.4208 55.1418)" gradientUnits="userSpaceOnUse" id="LinearGradient_4" x1="0" x2="1" y1="0" y2="0"><stop offset="0.0201754" stop-color="#c7ffe0"/><stop offset="1" stop-color="#65db9a" stop-opacity="0"/></linearGradient>
	<linearGradient gradientTransform="matrix(18.2677 -22.4416 15.8632 14.5746 59.3127 100.223)" gradientUnits="userSpaceOnUse" id="LinearGradient_5" x1="0" x2="1" y1="0" y2="0"><stop offset="0.0201754" stop-color="#c7ffe0"/><stop offset="1" stop-color="#65db9a" stop-opacity="0"/></linearGradient>
	<filter color-interpolation-filters="sRGB" filterUnits="userSpaceOnUse" height="26.4341" id="Filter_2" width="26.4341" x="68.1198" y="58.7265"><feDropShadow dx="-0.24666" dy="0.60094" flood-color="#000" flood-opacity="0.45" in="SourceGraphic" result="Shadow" stdDeviation="1.14986"/></filter>
</defs>
<g opacity="1">
	<path d="M12.6938 77.1634C12.6938 76.1069 28.9225 75.2503 48.9417 75.2503C68.9609 75.2503 85.1896 76.1069 85.1896 77.1634C85.1896 77.5182 85.1023 79.2298 81.9106 79.5147C75.6018 80.0779 62.2239 79.2189 48.9417 79.769C37.8443 80.2287 25.6844 80.1663 19.0363 79.7566C13.6105 79.4222 12.6938 77.6381 12.6938 77.1634Z" fill="#000" fill-opacity="0.95" fill-rule="nonzero" opacity="1"/>
	<path d="M11.4967 76.5976C11.4967 76.6292 11.3409 76.7728 11.1505 76.9163C10.5881 77.3405 10.1449 77.8985 10.029 78.3286C9.93734 78.6685 10.0422 78.9279 10.4009 79.2502C10.7468 79.561 11.0561 79.7167 11.8273 79.9694C16.0152 81.3417 28.7243 81.392 48.4344 80.1142C50.1711 80.0021 52.7982 79.867 55.2059 79.767C57.574 79.6683 66.1939 79.6683 68.6265 79.7664C70.8386 79.8554 73.7632 79.9997 75.0931 80.0851C75.6299 80.1197 76.7005 80.1868 77.4724 80.2354C78.2443 80.2838 79.7541 80.3826 80.8277 80.4553C83.4324 80.6316 86.1219 80.648 86.7702 80.4905C87.3391 80.3523 87.6784 80.199 87.8735 79.9912C88.005 79.8506 88.0256 79.7731 88.0244 79.4223C88.0226 79.0617 87.9917 78.9582 87.7529 78.5037C87.5699 78.156 87.3191 77.8148 86.9677 77.438C86.6836 77.1327 86.4212 76.8721 86.3849 76.8588C86.3479 76.8455 86.3036 76.8133 86.2861 76.7873C86.2692 76.7606 86.008 76.7752 85.7069 76.8194C85.4051 76.8636 84.4369 76.9775 83.5548 77.0721C81.951 77.2447 81.951 77.2447 82.403 77.4719C82.9174 77.7307 83.1761 77.9948 83.1761 78.262C83.1761 78.6122 82.8538 78.7855 81.8644 78.9678C81.0901 79.1108 76.3442 79.1345 71.2918 79.0206C62.189 78.8151 55.8907 78.831 48.831 79.0763C33.6213 79.6053 22.3716 79.4295 17.4141 78.5861C15.927 78.3329 15.0917 78.0003 15.2518 77.7252C15.3352 77.5822 15.927 77.2793 16.1235 77.2793C16.5682 77.2793 16.036 77.1926 14.6019 77.0314C12.6011 76.8067 12.2092 76.7467 11.6035 76.571C11.5447 76.554 11.4967 76.5662 11.4967 76.5976" fill="#121212" fill-opacity="0.95" fill-rule="nonzero" opacity="1"/>
	<path d="M7.25439 14.6219C6.6932 15.061 5.60617 16.1563 5.19976 16.6921C4.39677 17.7507 3.62984 19.1914 3.23733 20.3784C2.59155 22.3316 1.88719 26.7355 1.58559 30.706C1.38721 33.3174 0.98155 37.1579 0.98033 39.8954C0.979719 41.1937 0.974201 43.9156 1.44698 44.1314C3.26184 44.9594 5.19857 46.5765 7.20088 47.2427C8.62112 47.7153 15.5113 46.729 19.6904 47.2427C20.9969 47.4034 58.8184 46.0098 58.8354 45.9822C58.8708 45.9251 75.7851 44.342 85.1896 39.4534C91.7916 36.0215 90.8109 28.3787 94.4128 29.6127C94.8435 29.7601 95.9523 31.472 96.4849 30.9211C96.8011 30.5934 95.6172 28.2069 96.1625 27.9962C96.2056 27.9531 95.8438 26.0803 95.63 24.8096C95.2562 22.5855 95.015 21.0686 94.637 20.0648C93.1568 16.1332 90.2371 13.4093 86.2006 12.5684C84.4805 12.2101 77.2494 11.6005 71.3954 11.3538C64.3454 11.0568 51.7051 11.3366 38.2826 11.4627C38.2826 11.4627 21.4225 11.8014 12.4419 12.8595C9.38769 13.2194 7.65752 14.3064 7.25439 14.6219Z" fill="url(#LinearGradient)" fill-rule="nonzero" opacity="1"/>
	<path d="M35.8592 10.981C27.3254 11.1113 14.2555 12.1264 14.2555 12.1264C14.2555 12.1264 11.6651 12.4593 10.6651 12.788C6.94387 14.011 3.96046 17.0226 2.70107 20.8273C2.10258 22.6355 1.43945 26.5068 1.11428 30.0915C0.756442 34.0361 0.688402 36.3886 0.688402 44.8144C0.688402 53.0387 0.75826 55.5807 1.08319 59.1738C1.39952 62.6712 2.03291 66.5126 2.59141 68.321C3.88139 72.4977 7.25105 75.7585 11.3868 76.8327C12.2446 77.0551 12.4835 77.0926 14.4657 77.3157C15.89 77.4762 81.3573 77.5289 83.1918 77.3296C86.0292 77.0218 87.0392 76.7769 88.6194 76.0154C90.7127 75.0066 92.4018 73.5301 93.6729 71.5992C94.9023 69.7311 95.4373 68.1382 96.0505 64.5228C96.634 61.0832 96.9235 57.8091 97.124 52.3879C97.1961 50.4246 97.2257 39.0665 97.1604 38.3012C97.1362 38.0179 97.1017 37.1182 97.0835 36.3018C96.9671 31.0934 96.4667 26.4279 95.5906 22.3968C94.9047 19.2408 93.2992 16.6385 90.8732 14.751C89.4651 13.6555 87.6608 12.8157 85.905 12.439C85.2555 12.2996 83.9225 12.1426 81.4821 11.9181C75.6135 11.3782 69.7964 11.1053 61.3972 10.976C57.0484 10.9089 40.3614 10.9123 35.8592 10.981M38.2826 11.4627C35.8667 11.4854 33.2629 11.5225 32.4965 11.5451C27.8308 11.683 24.9868 11.8023 22.1965 11.9771C18.5048 12.2085 13.6648 12.6463 12.4419 12.8595C10.574 13.1851 8.74842 14.0127 7.17071 15.2489C6.61336 15.6855 5.53375 16.7747 5.1301 17.3074C4.33258 18.3602 3.57088 19.7927 3.18105 20.973C2.53967 22.9153 1.84011 27.2945 1.54057 31.2427C1.34354 33.8394 1.20461 37.5667 1.2034 40.2889C1.20279 41.5798 1.20279 41.5798 1.67235 41.7944C3.47484 42.6179 5.84923 43.5485 7.83791 44.2111C9.71862 44.8376 12.8227 45.5438 12.8066 45.5697L14.2029 45.8682C14.2029 45.8682 15.5384 46.113 16.7815 46.2848C18.0247 46.4566 18.6779 46.526 20.9851 46.5863C23.2924 46.6466 25.9788 46.5511 26.0105 46.526C26.0422 46.5011 26.957 46.4818 26.957 46.4818C26.957 46.4818 28.9383 46.4819 30.4239 46.2002C31.1028 46.0715 31.2578 46.0232 31.25 45.9431C31.2218 45.6511 31.2611 44.7099 31.2999 44.7487C31.3249 44.7737 31.3622 48.3431 31.3828 52.6807C31.4235 61.2372 31.4092 60.8918 31.7599 61.8213C32.4926 63.7628 34.4295 64.6127 36.509 63.9052C37.1782 63.6776 36.4108 64.1106 47.8253 57.5195C49.7581 56.4035 53.0161 54.5227 55.0655 53.3398C63.1796 48.6567 64.2545 48.0331 64.5174 47.8563C64.6671 47.7554 65.01 47.4497 65.279 47.1766C65.7965 46.6517 66.2012 45.9641 66.3309 45.3899C66.4229 44.9835 66.4078 44.1307 66.3024 43.7241C66.0594 42.793 65.2281 41.779 64.1842 41.1418C63.8843 40.9588 60.8799 39.217 57.5079 37.2712C54.1359 35.3255 51.3909 33.7111 51.4078 33.6838C51.4677 33.587 53.2891 32.2547 54.0961 31.7174C58.5178 28.7737 63.4027 26.8007 68.7604 25.7941C76.841 24.2762 86.0759 25.0794 94.749 28.0543C95.4307 28.2883 96.0026 28.466 96.0196 28.4492C96.0619 28.4064 95.8045 26.4172 95.5918 25.1536C95.2204 22.942 94.8926 21.5336 94.517 20.5354C93.0471 16.6259 89.7318 13.7543 85.7232 12.9181C84.0153 12.5617 76.7538 11.981 70.9398 11.7356C63.9382 11.4402 51.6137 11.3372 38.2826 11.4627M0.686645 44.8144C0.686645 48.0801 0.693976 49.4072 0.702943 47.7634C0.71191 46.1197 0.71191 43.4479 0.702943 41.8258C0.693976 40.2039 0.686645 41.5487 0.686645 44.8144" fill="url(#LinearGradient_2)" fill-rule="evenodd" opacity="1"/>
<g opacity="1">
	<path d="M30.5063 25.6459L30.5063 63.1766C30.5063 66.0357 33.6625 67.7678 36.0759 66.235L65.562 47.4715C67.8013 46.0473 67.8013 42.7824 65.562 41.3582L36.0759 22.5875C33.6625 21.0511 30.5063 22.7868 30.5063 25.6459Z" fill="#FFF" fill-rule="nonzero" opacity="1"/>
	<path d="M52.3105 33.1085C52.235 33.1421 52.1315 33.1819 52.053 33.2163C50.8217 34.6303 49.9924 35.4911 48.9747 36.3484C44.2131 40.3599 40.1393 43.0499 35.8351 44.6829C34.4018 45.2267 33.112 45.5851 30.6887 46.1701C30.6548 46.1783 30.5949 46.1924 30.563 46.2001L30.563 63.8852C30.563 66.7759 33.7545 68.5272 36.1944 66.9774L66.0049 48.0067C68.2691 46.5669 68.2691 43.266 66.0049 41.8263L52.3105 33.1085Z" fill="#f2f1f1" fill-rule="nonzero" opacity="1"/>
</g>
</g>
<g opacity="1">
<g filter="url(#Filter)" shadowAngle="2.00718" shadowColor="#000" shadowOffset="0.452983" shadowOpacity="0.45" shadowRadius="2.29972">
	<path d="M81.5835 53.6128C71.7916 53.6128 63.8537 61.5507 63.8537 71.3426C63.8537 81.1346 71.7916 89.0725 81.5835 89.0725C91.3755 89.0725 99.3134 81.1346 99.3134 71.3426C99.3134 61.5507 91.3755 53.6128 81.5835 53.6128Z" fill="url(#LinearGradient_3)" fill-rule="nonzero" opacity="1"/>
	<path d="M67.9691 64.7237C67.9691 59.3693 74.0645 55.0286 81.5835 55.0286C89.1026 55.0286 95.198 59.3693 95.198 64.7237C95.198 70.0782 89.1026 74.4188 81.5835 74.4188C74.0645 74.4188 67.9691 70.0782 67.9691 64.7237Z" fill="url(#LinearGradient_4)" fill-rule="nonzero" opacity="1"/>
	<path d="M92.2202 83.6632C87.4004 89.9439 77.797 90.6651 70.7704 85.2736C63.7437 79.8818 61.9547 70.4191 66.7744 64.1378C71.5942 57.8566 81.1976 57.1356 88.2243 62.5274C95.2509 67.9192 97.04 77.3819 92.2202 83.6632Z" fill="url(#LinearGradient_5)" fill-rule="nonzero" opacity="1"/>
</g>
	<path d="M88.9709 74.2976L74.1961 74.2976C72.5708 74.2976 71.2411 72.9679 71.2411 71.3426L71.2411 71.3426C71.2411 69.7174 72.5708 68.3877 74.1961 68.3877L88.9709 68.3877C90.5962 68.3877 91.9259 69.7174 91.9259 71.3426L91.9259 71.3426C91.9259 72.9679 90.5962 74.2976 88.9709 74.2976ZM84.5385 63.9552L84.5385 78.7301C84.5385 80.3553 83.2088 81.685 81.5835 81.685L81.5835 81.685C79.9583 81.685 78.6285 80.3553 78.6285 78.7301L78.6285 63.9552C78.6285 62.3299 79.9583 61.0002 81.5835 61.0002L81.5835 61.0002C83.2088 61.0002 84.5385 62.3299 84.5385 63.9552Z" fill="#FFF" fill-rule="nonzero" filter="url(#Filter_2)" shadowAngle="1.96028" shadowColor="#000" shadowOffset="0.649592" shadowOpacity="0.45" shadowRadius="2.29972"/>
</g></svg>