<svg xmlns="http://www.w3.org/2000/svg" xml:space="preserve" viewBox="0 0 100 100"><path fill="#fe5067" d="M96.6 77.9c-1 5.9-5.1 10.4-10.2 11.2A184.4 184.4 0 0 1 60.8 92a212.7 212.7 0 0 1-47.4-2.8c-1.6-.2-3.1-.9-4.5-1.8-.8-.6-1.6-1.2-2.3-2-1.7-2-3-4.5-3.4-7.4A152 152 0 0 1 1.5 60a210 210 0 0 1 1.7-38c.5-3 1.8-5.6 3.7-7.6 1.7-2 4-3.2 6.5-3.6A184 184 0 0 1 39.7 8 216.8 216.8 0 0 1 86.3 11c5.2.8 9.3 5.3 10.3 11.2A191.9 191.9 0 0 1 98.8 50a260.3 260.3 0 0 1-2.2 27.9Z"/><path fill="#e40512" stroke="#e40512" stroke-linecap="round" stroke-linejoin="round" d="m98.6 33.2-20 20.2-5-4.4c.8 2.2-.6 4-2.2 5.1-9.2 6.1-20.1 12.5-26.8 17.1a6 6 0 0 1-5 1l-.2.2 10 10.1c-1 .5-23.4 1.1-33.3 2l-9.5.8S9 88 13.4 89c2.5.7 7.2 1.3 13 1.9a272.2 272.2 0 0 0 47.8.4 65 65 0 0 0 12.2-2.3c2.3-.7 8.3-2.9 10.2-11.2 1.4-6.4 1-11 1.7-17.3a179.6 179.6 0 0 0 .3-27.4Z"/><path fill="#fe5067" stroke="#fe5067" stroke-linecap="round" stroke-linejoin="round" d="M44.6 7.8 1.2 50C1.6 60.1 3 74.5 3 74.5s6.4-.4 11.6-4.2c9.6-7.4 21-20.6 21.5-21.1V32.6c0-3.4 5-5.6 7.5-4.1 2.7 1.5 5.6 3.4 8.5 5.2L74 9.1c-2.9-.2-8.4-.8-13.4-1-6.3-.4-13.8-.3-16-.3Z"/><path fill="#f92d44" stroke="#f92d44" stroke-linecap="round" stroke-linejoin="round" d="M52.1 33.7a787 787 0 0 1 19 12.3 6 6 0 0 1 2.6 2.9l4 5.2 20.9-21c-3.9-20-2.3-20.9-24.6-24 0 0-15.7 18.3-21.9 24.6Z"/><path fill="#ff637b" stroke="#ff637b" stroke-linecap="round" stroke-linejoin="round" d="M44.6 7.8c-11 0-24.3 1.3-31.2 3A14.7 14.7 0 0 0 3.2 22.2c-.5 3.1-1.4 15-2 27.9L44.6 7.8Z"/><path fill="#f5293d" stroke="#f5293d" stroke-linecap="round" stroke-linejoin="round" d="m36 49.2-21.4 21C11.5 73.3 3 74.6 3 74.6c.1 1.7 1.2 7.7 3.6 10.8 0 0 42-2.3 42.8-2.8-1.2-1.8-5.6-6.4-8.5-10-2.7 0-4.9-2-4.8-5.5.2-6.2 0-12 0-17.8Z"/><path fill="#d6000c" d="m41 72.5 7.7 8.5 1.7 1.9 8.7 9.4 14-.5c6-.6 22.8-1.5 23.5-14L77.8 54.2l-4.1-5.2-32.8 23.6Z"/><path fill="#e8e7e7" stroke="#e8e7e7" stroke-linecap="round" stroke-linejoin="round" d="M44.6 71.2c-4.2 3-8.6 1-8.5-4.2.3-11.9 0-22.5 0-34.4 0-3.4 5-5.5 7.4-4.1 9 5 19.8 12.2 27.7 17.5 4.8 3.2 2.5 6.6.2 8.1-9.2 6.1-20.1 12.5-26.8 17.1Z"/></svg>