<?xml version="1.0" encoding="UTF-8" standalone="no"?>
<!DOCTYPE svg PUBLIC "-//W3C//DTD SVG 1.1//EN" "http://www.w3.org/Graphics/SVG/1.1/DTD/svg11.dtd">
<!-- Created with Vectornator (http://vectornator.io/) -->
<svg height="100%" stroke-miterlimit="10" style="fill-rule:nonzero;clip-rule:evenodd;stroke-linecap:round;stroke-linejoin:round;" version="1.1" viewBox="3 32.8457 250 190.309" width="100%" xml:space="preserve" xmlns="http://www.w3.org/2000/svg" xmlns:vectornator="http://vectornator.io" xmlns:xlink="http://www.w3.org/1999/xlink">
<defs>
<linearGradient gradientTransform="matrix(178.736 -178.141 -172.104 -185.006 106.691 258.359)" gradientUnits="userSpaceOnUse" id="LinearGradient" x1="0" x2="1" y1="0" y2="0">
<stop offset="0" stop-color="#ffffff"/>
<stop offset="1" stop-color="#808080" stop-opacity="0.138113"/>
</linearGradient>
<linearGradient gradientTransform="matrix(275.18 138.741 138.741 -275.18 10.5863 109.936)" gradientUnits="userSpaceOnUse" id="LinearGradient_2" x1="0" x2="1" y1="0" y2="0">
<stop offset="0" stop-color="#ffffff"/>
<stop offset="1" stop-color="#808080" stop-opacity="0.138113"/>
</linearGradient>
<linearGradient gradientTransform="matrix(88.0245 -177.319 -171.471 -91.4171 126.92 221.043)" gradientUnits="userSpaceOnUse" id="LinearGradient_3" x1="0" x2="1" y1="0" y2="0">
<stop offset="0" stop-color="#ffffff"/>
<stop offset="1" stop-color="#808080" stop-opacity="0.138113"/>
</linearGradient>
<filter color-interpolation-filters="sRGB" filterUnits="userSpaceOnUse" height="67.5676" id="Filter" width="92.4326" x="129.919" y="119.417">
<feGaussianBlur in="SourceGraphic" result="Blur" stdDeviation="5.27638"/>
</filter>
<linearGradient gradientTransform="matrix(88.0245 -177.319 -171.471 -91.4171 126.92 221.043)" gradientUnits="userSpaceOnUse" id="LinearGradient_4" x1="0" x2="1" y1="0" y2="0">
<stop offset="0" stop-color="#ffffff"/>
<stop offset="1" stop-color="#808080" stop-opacity="0.138113"/>
</linearGradient>
</defs>
<g id="Layer">
<g opacity="1">
<g opacity="1">
<path d="M228.268 132.608C232.61 132.608 236.347 133.113 239.489 134.11C242.637 135.095 245.178 136.579 247.131 138.549C247.137 138.555 247.126 138.577 247.131 138.583C251.027 142.524 253 148.84 253 157.607C253 157.642 253 157.671 253 157.707L253 197.424L253 197.524C253 197.918 252.943 198.242 252.935 198.626C252.896 200.386 252.818 202.109 252.613 203.665C252.365 205.547 252.007 207.288 251.517 208.872C251.162 210.03 250.678 211.011 250.195 212.009C250.02 212.369 249.903 212.805 249.711 213.144C249.699 213.164 249.69 213.19 249.679 213.211C248.954 214.478 248.092 215.605 247.131 216.582C247.125 216.588 247.137 216.609 247.131 216.615C246.165 217.59 245.034 218.452 243.778 219.185C239.954 221.416 234.804 222.523 228.268 222.523L207.116 222.523L167.842 222.523C159.159 222.523 152.854 220.557 148.946 216.582C145.039 212.607 143.11 206.204 143.11 197.424L143.11 181.37L143.11 173.794L153.235 173.794L153.235 197.758C153.235 198.034 153.355 198.22 153.622 198.359C153.889 198.497 154.191 198.497 154.525 198.359L194.992 180.836C199.867 178.693 203.336 176.383 205.407 173.894C206.362 172.746 207.093 171.39 207.664 169.889C207.783 169.59 207.849 169.291 207.954 168.988C208.439 167.458 208.801 165.813 208.921 163.948C208.951 163.486 208.925 163.183 208.752 162.841C208.611 162.586 208.293 162.33 208.293 162.33L208.625 158.526L208.981 147.999L209.159 132.608L228.268 132.608Z" fill="url(#LinearGradient)" fill-rule="nonzero" opacity="1" stroke="none"/>
<path d="M104.095 32.8457C107.69 32.8457 110.657 34.1271 112.973 36.6505C115.289 39.1739 116.444 42.1719 116.444 45.6286L116.444 85.8464L183.763 85.8464C192.751 85.8464 199.244 87.8133 203.288 91.7539C207.332 95.6945 209.362 102.096 209.362 110.945C209.362 110.945 209.327 132.672 208.981 147.999C208.887 152.172 208.625 158.526 208.625 158.526C208.625 158.526 208.378 162.065 208.225 162.586C207.167 166.199 205.723 167.63 203.822 169.186C201.921 170.741 199.61 171.896 196.913 172.657C194.217 173.417 191.158 173.792 187.702 173.792L183.47 173.792L116.444 173.792L116.444 211.006C116.444 214.531 115.321 217.435 113.04 219.717C110.759 221.998 107.855 223.155 104.329 223.154C101.771 223.154 99.3653 222.592 97.1531 221.486C94.9408 220.379 92.5996 218.694 90.1108 216.412L8.30675 139.148C6.30187 137.281 4.89506 135.376 4.13478 133.44C3.3743 131.505 3.0002 129.726 3 128.067C3 126.269 3.37434 124.428 4.13478 122.526C4.89525 120.625 6.30167 118.719 8.30675 116.852L90.1108 40.3218C92.8761 37.6948 95.2482 35.7898 97.2532 34.6146C99.2581 33.4393 101.537 32.8457 104.095 32.8457Z" fill="url(#LinearGradient_2)" fill-rule="nonzero" opacity="1" stroke="none"/>
<path d="M209.161 132.608C209.104 139.167 209.137 141.629 208.994 147.994C208.826 155.455 208.573 161.397 208.226 162.58C207.706 164.356 207.072 165.589 206.357 166.585C205.618 167.614 204.787 168.397 203.821 169.188C201.919 170.744 199.608 171.899 196.912 172.659C194.216 173.42 191.157 173.794 187.7 173.794L183.461 173.794L153.59 173.794L143.11 173.794L143.11 157.707C143.11 148.927 145.107 142.558 149.151 138.583C153.195 134.607 159.722 132.608 168.709 132.608L209.161 132.608Z" fill="url(#LinearGradient_3)" fill-rule="nonzero" filter="url(#Filter)" opacity="1" stroke="none"/>
<path d="M209.161 132.608C209.104 139.167 209.137 141.629 208.994 147.994C208.826 155.455 208.573 161.397 208.226 162.58C207.706 164.356 207.072 165.589 206.357 166.585C205.618 167.614 204.787 168.397 203.821 169.188C201.919 170.744 199.608 171.899 196.912 172.659C194.216 173.42 191.157 173.794 187.7 173.794L183.461 173.794L153.59 173.794L143.11 173.794L143.11 157.707C143.11 148.927 145.107 142.558 149.151 138.583C153.195 134.607 159.722 132.608 168.709 132.608L209.161 132.608Z" fill="url(#LinearGradient_4)" fill-rule="nonzero" opacity="0" stroke="none"/>
</g>
</g>
</g>
</svg>
