<svg xmlns="http://www.w3.org/2000/svg" xml:space="preserve" width="100%" height="100%" viewBox="0 0 100 100"><defs><linearGradient id="a" x1="18.68" x2="53.665" y1="105.488" y2="95.383" gradientUnits="userSpaceOnUse"><stop offset="0" stop-color="#fff"/><stop offset=".324" stop-color="#fff"/><stop offset=".738" stop-color="#dedede"/><stop offset="1" stop-color="#ccc"/></linearGradient><linearGradient id="b" x1="19.758" x2="485.031" y1="325.405" y2="294.895" gradientTransform="translate(.137 .109) scale(.07196)" gradientUnits="userSpaceOnUse"><stop offset="0"/><stop offset="1" stop-color="#171717"/></linearGradient><linearGradient id="c" x1=".127" x2="24.048" y1="76.817" y2="76.817" gradientUnits="userSpaceOnUse"><stop offset=".155" stop-color="#fff"/><stop offset=".713" stop-color="#e6e6e6"/><stop offset="1" stop-color="#ccc"/></linearGradient><linearGradient id="d" x1="13.41" x2="42.924" y1="55.171" y2="55.171" gradientUnits="userSpaceOnUse"><stop offset=".155" stop-color="#fff"/><stop offset=".713" stop-color="#e6e6e6"/><stop offset="1" stop-color="#ccc"/></linearGradient><linearGradient id="e" x1="6.096" x2="-4.789" y1="83.57" y2="91.374" gradientUnits="userSpaceOnUse"><stop offset="0" stop-color="#02103d"/><stop offset=".493" stop-color="#080063"/><stop offset="1" stop-color="#0b0078"/></linearGradient><linearGradient id="f" x1="448.813" x2="609.228" y1="795.03" y2="795.03" gradientTransform="translate(-18.211 .055) scale(.07138)" gradientUnits="userSpaceOnUse"><stop offset="0" stop-color="#e10512"/><stop offset="1" stop-color="#a70101"/></linearGradient><linearGradient id="g" x1="472.895" x2="515.001" y1="800.867" y2="777.92" gradientTransform="translate(-18.21 .054) scale(.07138)" gradientUnits="userSpaceOnUse"><stop offset="0" stop-color="#e10512"/><stop offset="1" stop-color="#8c0101"/></linearGradient><linearGradient id="h" x1="0" x2="43.03" y1="53.938" y2="53.938" gradientUnits="userSpaceOnUse"><stop offset="0" stop-color="#230175"/><stop offset="1" stop-color="#00003e"/></linearGradient><linearGradient id="i" x1="250.601" x2="238.451" y1="1002.44" y2="467.697" gradientTransform="translate(.137 .109) scale(.07196)" gradientUnits="userSpaceOnUse"><stop offset="0" stop-color="#230175"/><stop offset="1" stop-color="#00003e"/></linearGradient><linearGradient id="j" x1="482.973" x2="1128.04" y1="715.489" y2="4.359" gradientTransform="translate(-18.21 .054) scale(.07138)" gradientUnits="userSpaceOnUse"><stop offset="0" stop-color="#f00513"/><stop offset="1" stop-color="#aa040e"/></linearGradient><linearGradient id="k" x1="537.949" x2="531.498" y1="20.06" y2="526.502" gradientTransform="translate(-18.21 .054) scale(.07138)" gradientUnits="userSpaceOnUse"><stop offset=".378" stop-color="#c94f56"/><stop offset="1" stop-color="#973b41"/></linearGradient><linearGradient id="l" x1="836.018" x2="832.722" y1="463.198" y2="995.69" gradientTransform="translate(-18.21 .054) scale(.07138)" gradientUnits="userSpaceOnUse"><stop offset=".504" stop-color="#e0848a"/><stop offset="1" stop-color="#b66b70"/></linearGradient><linearGradient id="m" x1="367.904" x2="238.451" y1="380.197" y2="467.697" gradientTransform="translate(.137 .109) scale(.07196)" gradientUnits="userSpaceOnUse"><stop offset="0" stop-color="#230175"/><stop offset="1" stop-color="#00003e"/></linearGradient></defs><path fill="url(#a)" d="M27.457 100c10.738.024 10.738-.024 21.476 0-.024-.073-.024.074-.048 0-.563 0-4.426-1.162-7.534-3.473-3.84-2.856-7.057-7.47-7.806-9.344-.785-1.96-1.155-4.193-1.316-6.282-.07-.923-.011-1.853-.097-2.775-.005-.058-.088-.09-.146-.098-.498-.072-1.242.755-1.46.974-1.124 1.124-1.295 3.596-1.413 5.016a62.649 62.649 0 0 0-.098 1.51c-.041.746-.07 1.493-.097 2.24-.031.877-.06 1.753-.098 2.63-.101 2.393-.258 4.814-.779 7.158-.158.714-.255 1.786-.584 2.444Z"/><path fill="url(#b)" d="M0 0v33.809s26.175.081 39.194.049c.068 0 .14-.078.146-.146.022-.323.721-6.8-3.944-18.98-2.264-5.914-7.498-10.42-12.44-13.638C22.448.763 21.51.315 20.772 0 20.486-.122 0 0 0 0Z"/><path fill="url(#c)" d="M18.399 64.051c-.236-.236-.196-1.155-.244-1.51-.184-1.384-.137-3.055-.535-4.382-.029-.096-1.074-.039-1.413-.292-1.26-.946-1.028-2.91-.39-4.189-.343-.344-1.178.738-1.363.877-.242.181-.947-.438-1.217-.438-.131 0-1.764 1.238-1.997 1.412.425.85 1.481.47 2.289.536.046.003.077.056.097.097.138.275-.267 1.446-.292 1.753-.09 1.136-.074 2.015-.097 3.263-.056 2.962.176 5.956.34 8.912.053.941.093 1.883.147 2.824.02.342.164.688.097 1.023-.009.045-.051.096-.097.098-.811.03-1.623 0-2.435 0h-.098l-7.593.002c.106.142-.023.31-.184.534 0 0-.277.34-.577.592-.222.187-.294.315-.807.446-.22.055-.723.078-1.094.05a48.5 48.5 0 0 1-.803-.064c-.024.925.028.875.004 1.8.721.24 1.75.532 2.524.629.264.033.977-.11 2.03 0 0 0-.17.732.022 1.42.351 1.263 1.562 2.083 2.465 2.685 1.645 1.097 3.429 1.861 4.939 3.155.496.426 1.191.968 1.363 1.656.21.838.472 1.738.616 2.604.57 3.42-1.006 7.437-2.515 10.456 3.604.016 10.888.041 10.909 0 .205-.411.288-1.31.438-1.761.605-1.816 1.12-3.457 1.12-5.406 0-1.276-.722-2.867-1.071-4.091-.632-2.21-1.06-4.48-1.559-6.72-.366-1.647-.672-3.309-.974-4.968-.063-.347-.46-1.464-.243-1.754.083-.11-.159.005-.159.005S18.707 63.743 18.4 64.05Z"/><path fill="url(#d)" d="M16.25 35.031c-.405-.017-.78.154-1.063.625-.8 1.336-1.314 4.043-1.624 5.594-.117.585-.26 1.24-.032 1.813.6 1.497 2.188 1.385 2.188 3.25 0 1.202-.664 2.43-1.25 3.406-.134.222-.633.836-.438 1.031.12.12.57.178.75.25.389.155.75.344 1.188.344.359 0 .827-.306 1.156-.438.61-.244 1.324-.281 1.969-.281 1.696 0 3.59 2.652 4.468 3.75.294.367 1.658 1.962 1.594 2.406-.262 1.833-2.82 4.517-4.093 5.282-.587.351-1.42.482-1.97.874-.385.276-.378.817-.687 1.126.309-.309 1.625 11.25 1.625 11.25s.24-.111.157 0c.083-.111.716-.18.875-.22a18.502 18.502 0 0 0 2.343-.78c2.5-1 4.88-2.359 7.032-4.032 4.71-3.664 7.546-8.242 8.812-13.937.35-1.573.684-3.14 1-4.719.148-.739.166-1.8.5-2.469.116-.231.621-.21.844-.343.342-.206.763-.639 1-.876.114-.114.306-.244.312-.406.03-.746.015-1.472 0-2.218-.013-.683-.53-1.707-.937-2.25-2.132-2.843-4.907-3.551-8.438-3.594-2.386-.03-4.77-.033-7.156-.063-.507-.006-1.06-.079-1.563-.156a12.34 12.34 0 0 1-5.343-2.188c-.689-.491-1.295-1.092-2-1.562-.388-.258-.814-.452-1.219-.469Z"/><path fill="url(#e)" d="M0 77.314V100h11.543s.647-1.361.866-1.907c.64-1.603 1.295-3.206 1.607-4.92.069-.38.355-1.398.097-1.655-.342.171-.45.754-.681 1.022-.49.573-.827 1.099-1.413 1.656-.091.088-.168.219-.292.244-1.64.328-1.89-1.703-2.045-2.874-.312-2.339-.492-4.763-1.12-6.964l-.575-1.886c-1.069-.565-1.99-1.375-2.606-2.057-1.006-1.112-.722-2.454-.764-2.485-.215-.16-1.455-.12-1.753-.146-.983-.082-1.956-.41-2.864-.714Z"/><path fill="#020025" d="M13.4 63.264s-.003-.739-.017-1.258c-.007-.244.013-.495-.049-.73-.023-.09-.185-.104-.195-.195-.063-.616.292-1.413-.146-1.85l-.146.145c-.218-.145-1.796-.979-1.802-1.023-.006-.052.04-.773-.048-.973-.118-.265-.402-.416-.293-.78.092-.306.354-.458.536-.73l.098.097c.097-.073.164.07.262-.004-.172-.171-.183-.226-.262-.385.404-.405 1.341-1.225 1.899-1.364.334-.084.891.578 1.217.438.272-.116.49-.538.73-.73-.997-.998-1.275-1.607-1.217-3.117.002-.046.065-.065.098-.097-.502-.502-1.272-.2-1.997-.146-.125.009-.41.229-.536.292-1.806.903-3.347 3.093-4.55 4.697-.174.232-.53.728-.612 1-.112.373.465 1.867 1.796 3.337 1.34 1.481 3.437 2.939 3.736 3.04a8.223 8.223 0 0 0 1.498.336Z"/><path d="M7.921 82.68c1.546 5.01 1.154 6.634 1.663 9.179.235 1.173.496 3.021 2.143 2.678.214-.044 1.888-1.136 2.49-2.517 0-.874-.193-3.396-.815-5.2-.382-1.107-1.463-1.864-2.015-2.256-1.347-.955-2.158-1.195-3.466-1.884ZM0 64.782v9.155c3.744.082 7.361.247 11.191.195.07 0 .098-.097.146-.146-.412-.413-1.16-.364-1.655-.584-.661-.294-1.167-.837-1.782-1.205-3.09-1.854-5.412-4.927-7.9-7.415Z"/><path fill="#fcfcfc" d="M18.302 54.117c-.514.17-.908.196-.974.535-.025.125.13.338.148.551.023.298-.06.831.238.85.73.046 1.22.027 1.951.012.291-.006.519-.324.682-.487-.248-.497-1.41-1.168-2.046-1.461Z"/><path fill="url(#f)" d="M18.49 50.524a3.429 3.429 0 0 0-1.31.232c-.493.197-1.014.489-1.56.489-.42 0-1.233-.399-1.605-.585-.3.3-.162.84-.147 1.265.027.788.925 1.912 1.267 2.045.065.026.779-.725 1.235.292.138.305.59.468.956.391.13-.114.84-.437 1.023-.437.32 0 1.032.734 1.316.923 1.07.714 2.282 1.264 3.31 1.95-.897 1.794-2.276 1.303-4.09 1.411-.23.014-.478 1.101-.487 1.267-.05.888-.155 2.57.584 3.31.576-.288 1.281-.493 1.852-.778 1.495-.748 2.703-2.188 3.553-3.605.296-.494.963-1.502.878-2.094-.023-.161-.395-.54-.488-.68-.653-.98-1.409-1.898-2.19-2.777-.678-.762-1.626-2.146-2.777-2.434a5.641 5.641 0 0 0-1.32-.185Z"/><path fill="url(#g)" d="M15.672 53.825c-.664 1.327-.681 2.971.39 4.041.256.258 1.143.454 1.412.293.039-.024.11-1.182.097-1.606-.003-.125-.008-.151-.012-.241-.004-.097-.008-.205-.014-.318a8.412 8.412 0 0 0-.07-.791c-.033-.22-.365-1.78-.652-2.144-.264-.336-.927.462-1.151.766Z"/><path d="M20.347 55.48c-.227.227-.33.426-.633.439-.328.013-1.7.237-2.158.402 0 0 .01.489-.01.948-.02.46-.073.89-.073.89.037 1.453.344 2.894.536 4.334.063.466.017 1.624.341 1.948.289-.192.5-1.048.682-1.412-.298-.298-.358-.913-.438-1.315-.152-.76-.24-1.527-.049-2.289.037-.148.214-.817.39-.828.745-.047 1.493.014 2.24 0 .539-.01 1.987-1.07 1.899-1.51-.033-.163-2.409-1.289-2.727-1.607Z"/><path fill="#0b0a1b" d="M11.412 55.851c-.09-.657-1.234.303-1.316.958-.12.942.621 2.32.621 2.32s1.803.066 2.081.345c.073-.049-.727 1.739-.654 1.69.505.505 1.226.81 1.228.764.031-.812-.05-2.373-.038-3.185.013-.81.06-1.922.438-2.678-.448-.449-1.265-.081-1.899-.098a1.187 1.187 0 0 1-.461-.116Z"/><path fill="#1f1e2b" d="M9.639 78.679s2.766 1.222 3.5 1.59l.098-.098c-.648-.648-1.194-1.285-2.094-1.51-.427-.106-1.504.018-1.504.018Z"/><path fill="#e10512" d="M9.78 78.71c-.073-.143-2.961-1.261-4.14-1.85-.317-.16-1.128-.736-1.461-.536-.951.57 1.08 2.197 1.315 2.337.903.543 2.254 1.132 3.311.78.407-.136.598-.543.974-.73ZM0 73.882v1.711c.71.064 1.973.241 2.62-.243.08-.06 1.445-1.201.877-1.364-.344-.098-.714-.037-1.071-.049-.747-.023-1.68-.04-2.426-.055Z"/><path fill="url(#h)" d="M39.242 33.702 0 33.8v31.059s1.908 2.123 1.987 2.202c1.016 1.016 3.328 3.62 5.498 5.324 1.522 1.195 3.162 1.8 3.432 1.74 0 0 1.947.062 2.758.046.053-.001.18-.109.195-.145.141-.354-.078-1.46-.098-1.851-.018-.39-.03-.78-.048-1.17-.098-2.012-.213-4.024-.293-6.038-.033-.85.052-1.858-.194-1.899-.439-.073-1.02-.074-1.461-.244-.168-.064-.833-.602-.833-.602s-2.348-2.019-3.083-3.49c-.338-.675-.91-1.295-.753-2.166.095-.518.58-.95.923-1.36 1.005-1.206 2.23-3.889 3.648-4.362.72-.24 1.108-.068 2.143-.146.416-.03.827-1.134 1.023-1.46.479-.8 1.291-3.246.73-3.994-.536-.715-1.77-1.24-1.996-2.143-.423-1.692.507-3.82.974-5.454.166-.584.313-1.456.681-1.948.757-1.01 1.673-.385 2.484.195 1.688 1.205 3.098 2.443 5.114 3.02 3.446.984 7.056.589 10.616.632.43.005 3.715-.062 6.243 1.472 1.809 1.097 2.414 2.815 3.308 4.006.078-4.997.105-8.325-1.057-10.012-.683-.909-1.61-1.212-2.699-1.31Z"/><path fill="#1f1e2b" d="M18.399 44.523c-.351.012-2.03 1.642-1.266 1.948.25.1.585-.767.828-.828.777-.194 1.043.39 1.802.39.422 0 .438-.706.243-.926-.504-.567-.835-.61-1.607-.584Z"/><path d="M12.75 44.62c-.423.025-1.136 1.115-.536 1.315.715.238 1.135-.523 1.802-.34.346.094.681.99 1.023.876.39-.13-.391-1.414-.536-1.558-.5-.501-.919-.341-1.753-.293Z"/><path d="M23.085 49.529c0-.27.223-.489.498-.489s.497.219.497.489-.222.488-.497.488a.493.493 0 0 1-.498-.488Z" opacity=".978"/><path fill="url(#i)" d="m39.34 33.712-16.54.031s-1.985 4.594.03 5.17c3.447.985 7.057.59 10.617.633.239.003 1.36-.016 2.741.229 1.106.196 2.379.561 3.502 1.243 1.809 1.097 2.414 2.815 3.308 4.006.078-4.997.105-8.325-1.057-10.012-.683-.909-1.514-1.203-2.601-1.3Z"/><path fill="url(#j)" d="M20.444 0c.006.018 1.639.677 2.76 1.327 3.23 1.874 8.99 7.244 12.065 13.605 3.828 7.92 3.98 19.05 3.98 19.05s1.072-.141 2.557-.015c.62.053 2.379.023 3.118 1.603.718 1.533.762 4.73.762 4.73l-.228 30.992h16.78s-2.77-28.677-7.973-46.047C50.207 11.699 43.113 5.747 42.602 5.237 41.45 4.083 36.83.002 36.564 0c-5.373-.032-10.747 0-16.12 0Z"/><path fill="url(#k)" d="M18.593 0c.006.017 1.13.484 2.13 1 2.986 1.54 9.169 7.435 12.205 13.932 3.702 7.92 3.85 19.05 3.85 19.05l2.471-.015c0-.047-.161-11.132-3.98-19.035C32.31 8.812 26.93 3.574 23.202 1.327 21.86.517 20.451.02 20.444 0h-1.851Z"/><path fill="url(#l)" d="M40.78 33.915c-.844-.012-1.335.049-1.432.06.657.047 2.23.078 2.917 1.595.694 1.534.736 4.731.736 4.731l-.218 30.99h2.676l.228-30.99s-.045-3.197-.763-4.73c-.74-1.58-2.497-1.552-3.118-1.604a14.771 14.771 0 0 0-1.026-.052Z"/><path fill="url(#m)" d="m39.34 33.712-16.54.031s-1.985 4.594.03 5.17c3.447.985 7.057.59 10.617.633.239.003 1.36-.016 2.741.229 1.106.196 2.379.561 3.502 1.243 1.809 1.097 2.414 2.815 3.308 4.006.078-4.997.105-8.325-1.057-10.012-.683-.909-1.514-1.203-2.601-1.3Z"/></svg>