<svg xmlns="http://www.w3.org/2000/svg" xml:space="preserve" width="100%" height="100%" viewBox="0 0 100 100"><defs><linearGradient id="a" x1="234.71" x2="211.455" y1="-75.919" y2="-86.363" gradientTransform="matrix(.45458 0 0 .43897 -8.765 87.255)" gradientUnits="userSpaceOnUse"><stop offset="0" stop-color="#ffea00"/><stop offset="1" stop-color="#d7c502"/></linearGradient><linearGradient id="b" x1="239.996" x2="216.344" y1="-111.503" y2="-136.815" gradientTransform="matrix(.45458 0 0 .43897 -8.765 87.255)" gradientUnits="userSpaceOnUse"><stop offset="0" stop-color="#ffea00"/><stop offset="1" stop-color="#d7c502"/></linearGradient><linearGradient id="c" x1="227.377" x2="206.996" y1="-40.599" y2="-51.673" gradientTransform="matrix(.45458 0 0 .43897 -8.765 87.255)" gradientUnits="userSpaceOnUse"><stop offset="0" stop-color="#ffea00"/><stop offset="1" stop-color="#d7c502"/></linearGradient><linearGradient id="d" x1="7.169" x2="151.628" y1="99.725" y2="94.749" gradientTransform="translate(-7.088 -12.436) scale(.49697)" gradientUnits="userSpaceOnUse"><stop offset=".001" stop-color="#00ffb6"/><stop offset="1" stop-color="#00f4ff"/></linearGradient><linearGradient id="e" x1="21.115" x2="194.518" y1="169.927" y2="157.297" gradientTransform="translate(-7.691 -9.585) scale(.49697)" gradientUnits="userSpaceOnUse"><stop offset="0" stop-color="#fff"/><stop offset="0" stop-color="#fff"/><stop offset=".504" stop-color="#f2f2f2"/><stop offset="1" stop-color="#ccc"/></linearGradient><linearGradient id="f" x1="195.245" x2="215.113" y1="186.245" y2="186.245" gradientTransform="translate(-7.691 -9.585) scale(.49697)" gradientUnits="userSpaceOnUse"><stop offset=".704" stop-color="#fff"/><stop offset=".863" stop-color="#e8e5e5"/><stop offset="1" stop-color="#dddbdb"/></linearGradient><linearGradient id="g" x1="9.693" x2="183.096" y1="180.916" y2="168.287" gradientTransform="translate(-7.691 -9.585) scale(.49697)" gradientUnits="userSpaceOnUse"><stop offset="0" stop-color="#fff"/><stop offset="0" stop-color="#fff"/><stop offset=".504" stop-color="#f2f2f2"/><stop offset="1" stop-color="#ccc"/></linearGradient><linearGradient id="i" x1="155.239" x2="196.724" y1="117.109" y2="117.109" gradientTransform="translate(-7.691 -9.585) scale(.49697)" gradientUnits="userSpaceOnUse"><stop offset="0" stop-color="#fff"/><stop offset="0" stop-color="#fff"/><stop offset=".504" stop-color="#f2f2f2"/><stop offset="1" stop-color="#ccc"/></linearGradient><linearGradient id="k" x1="92.017" x2="52.873" y1="102.923" y2="103.247" gradientTransform="translate(-11.291 -12.243) scale(.49697)" gradientUnits="userSpaceOnUse"><stop offset="0" stop-color="#f0a"/><stop offset=".143" stop-color="#f0a"/><stop offset=".753" stop-color="#ff0279"/></linearGradient><linearGradient id="m" x1="199.657" x2="151.047" y1="114.421" y2="113.813" gradientTransform="translate(-11.291 -12.243) scale(.49697)" gradientUnits="userSpaceOnUse"><stop offset="0" stop-color="#f0a"/><stop offset=".143" stop-color="#f0a"/><stop offset=".753" stop-color="#ff0279"/></linearGradient><filter id="h" width="29.616" height="75.038" x="26.617" y="12.327" color-interpolation-filters="sRGB" filterUnits="userSpaceOnUse"><feDropShadow dx="0" dy="0" flood-color="#000" flood-opacity=".6" in="SourceGraphic" result="Shadow" stdDeviation="1.573"/></filter><filter id="j" width="28.481" height="79.2" x="65.525" y="8.966" color-interpolation-filters="sRGB" filterUnits="userSpaceOnUse"><feDropShadow dx="0" dy="0" flood-color="#000" flood-opacity=".6" in="SourceGraphic" result="Shadow" stdDeviation="1.573"/></filter><filter id="l" width="64.456" height="85.873" x="8.617" y="6.189" color-interpolation-filters="sRGB" filterUnits="userSpaceOnUse"><feDropShadow dx=".665" dy="-.811" flood-color="#000" flood-opacity=".6" in="SourceGraphic" result="Shadow" stdDeviation="1.573"/></filter><filter id="n" width="41.96" height="84.595" x="59.716" y="8.618" color-interpolation-filters="sRGB" filterUnits="userSpaceOnUse"><feDropShadow dx=".665" dy="-.811" flood-color="#000" flood-opacity=".6" in="SourceGraphic" result="Shadow" stdDeviation="1.573"/></filter><filter id="p" width="48.692" height="106.396" x="-2.66" y="-3.619" color-interpolation-filters="sRGB" filterUnits="userSpaceOnUse"><feDropShadow dx=".83" dy="-.421" flood-color="#000" flood-opacity=".6" in="SourceGraphic" result="Shadow" stdDeviation="1.396"/></filter><radialGradient id="o" cx="110.148" cy="-73.568" r="96.879" gradientTransform="matrix(.43698 0 0 .43407 -12.396 84.84)" gradientUnits="userSpaceOnUse"><stop offset="0" stop-color="#ffea00"/><stop offset="1" stop-color="#d7c502"/></radialGradient></defs><path fill="url(#a)" d="M90.047 61.56c-1.178-.076-2.078-1.053-2.025-2.193.052-1.14 1.06-2.028 2.24-1.953 1.2.056 2.1 1.033 2.047 2.194-.075 1.139-1.082 2.006-2.262 1.952Zm.536-8.286c-1.176-.138-2.008-1.195-1.848-2.33.16-1.135 1.23-1.938 2.404-1.779 1.175.138 2.008 1.194 1.847 2.33-.135 1.074-1.117 1.839-2.21 1.788l-.193-.01Zm1.396-8.308c-1.124-.323-1.78-1.475-1.45-2.56.31-1.108 1.52-1.738 2.645-1.415 1.145.323 1.8 1.475 1.47 2.582-.28.922-1.189 1.524-2.154 1.479a2.187 2.187 0 0 1-.511-.086Z"/><path fill="url(#b)" d="M95.9 28.589c-2.37-.11-4.376 1.657-4.483 3.947-.106 2.29 1.728 4.236 4.097 4.346 2.368.11 4.375-1.657 4.482-3.947.106-2.29-1.728-4.236-4.097-4.346Z"/><path fill="url(#c)" d="m94.072 65.375-3.446 4.784-3.925-4.4"/><path fill="url(#d)" d="M65.05 16.272c-2.948-2.997-6.84-4.764-11.57-5.321-.45-.18-2.675-.212-3.315-.212-7.994 0-34.078 3.51-34.078 48.683 0 16.106 10.214 27.715 24.341 29.209 3.942.417 15.74.29 23.91-10.689 4.345-5.836 7.663-14.739 8.23-28.257 1.05-24.98-5.701-31.568-7.518-33.413ZM44.096 83.354s-3.668-.253-6.102-5.402c-2.362-4.996-2.434-12.691-2.434-20.964 0-23.626 8.077-37.097 15.758-40.053 6.049-2.329 8.951 1.32 10.263 2.752 2.482 2.709 7.377 14.4 4.752 32.928a84.595 84.595 0 0 1-.919 5.267 60.337 60.337 0 0 1-.742 3.166c-5.887 22.33-20.576 22.306-20.576 22.306Z" opacity=".432"/><path fill="url(#e)" d="M36.225 88.825c4.485.224 18.481 2.064 28.114-10.883 7.872-10.58 8.176-26.484 8.23-28.257.554-18.427-1.467-24.743-5.17-30.531-6.055-9.461-16.408-8.425-21.437-8.222.984-.071 9.123-.245 14.884 5.533 5.998 6.015 8.091 16.888 7.52 33.414-.308 8.896-2.23 16.127-4.23 21.053-7.71 19.001-23.943 17.488-27.911 17.892Z"/><path fill="url(#f)" d="M89.34 89.613c3.567-.478 6.835-2.184 8.396-4.762.581-.96 2.089-4.798 1.206-7.065-.926-2.381-4.285-1.12-4.298-1.12 1.988.095 2.398 2.097 2.434 2.422.041.367 1.358 7.77-7.739 10.525Z"/><path fill="url(#g)" d="M52.3 16.56c-4.834 1.253-16.98 11.313-16.74 40.62.09 11.045.659 17.122 2.434 20.772 1.758 3.614 3.725 4.452 4.8 5.063-.205.082-6.811 2.808-9.819-6.816-2.38-7.617-2.394-18.342-2.422-21.309C30.27 24.635 44.358 14.289 52.3 16.56Z" filter="url(#h)"/><path fill="url(#i)" d="M69.458 13.51c.465-.395 12.01 5.05 15.332 8.034 3.998 3.59 2.101 5.199 1.127 8.767-3.952 14.476-3.574 25.56-3.574 25.56-.868 26.124 3.677 27.401 4.999 28.085 1.42.735 2.732-.22 2.732-.22s-.647.645-2.097-1.925c-1.068-1.891-2.362-7.357-2.604-9.356-.863-7.124-1.092-19.112.09-28.755 1.081-8.826 3.537-15.592 3.776-16.844.198-1.043.596-1.418-.082-2.834-2.141-4.478-8.957-8.701-12.972-10.118-3.156-1.113-3.77-1.386-6.727-.394Z" filter="url(#j)"/><path fill="url(#k)" d="M60.846 16.465c-2.947-2.996-6.84-4.763-11.569-5.32-.45-.18-2.675-.213-3.315-.213-7.994 0-34.078 3.51-34.078 48.683 0 16.107 10.213 27.715 24.341 29.21 6.037.638 30.506 0 32.14-38.947 1.05-24.98-5.701-31.567-7.518-33.413Zm-27.055 61.68c-1.81-3.673-2.553-12.692-2.434-20.964.34-23.784 8.077-37.097 15.758-40.053 6.048-2.328 8.951 1.32 10.263 2.752 2.71 2.958 8.294 16.62 3.833 38.196a60.214 60.214 0 0 1-.742 3.165C57.13 73.91 48.797 81.01 42.793 83.015c-2.722.909-4.804.072-6.318-1.24-1.3-1.128-2.18-2.608-2.684-3.63Z" filter="url(#l)"/><path fill="url(#m)" d="M63 52.313c0-17.142 4.74-36.296 4.942-37.104a2.425 2.425 0 0 1 2.95-1.772c.403.102 10.185 5 13.898 8.107 3.703 3.098 2.664 4.05 2.425 4.762-2.225 6.677-3.885 13.683-4.746 26.172-.428 5.994.104 29.095 4.873 31.478 3.478 1.738 4.86-4.447 4.868-4.885a2.443 2.443 0 0 1 2.434-2.405h.02a2.424 2.424 0 0 1 2.415 2.422c0 2.25-.052 6.217-4.506 9.123-1.934 1.262-9.17 4.012-16.722-1.085-13.876-9.366-12.85-29.903-12.85-34.813Z" filter="url(#n)"/><path fill="url(#o)" d="M37.156 11.767 34.714.292l7 4.46-4.558 7.015Zm-7.978-7.04c-.41.08-.791.263-1.091.56a2.24 2.24 0 0 0-.61 1.518c0 .553.225 1.081.61 1.485.407.383.951.627 1.508.627.278 0 .577-.059.834-.165.257-.106.491-.27.705-.462.386-.404.61-.932.61-1.485 0-.552-.224-1.114-.61-1.518a2.524 2.524 0 0 0-.705-.462c-.396-.17-.842-.178-1.251-.099Zm-7.484 3.522a2.11 2.11 0 0 0-1.572.429c-.942.701-1.091 2.034-.385 2.97a2.125 2.125 0 0 0 1.7.825c.45 0 .898-.132 1.283-.43v-.032a2.113 2.113 0 0 0 .417-2.97c-.364-.457-.903-.72-1.443-.792Zm-7.827 6.368a2.115 2.115 0 0 0-1.444.76c-.77.892-.632 2.225.289 2.969.385.34.876.495 1.347.495.62 0 1.24-.249 1.668-.759.75-.893.6-2.237-.32-3.003a2.065 2.065 0 0 0-1.54-.462ZM7.9 23.197a2.172 2.172 0 0 0-1.283 1.022c-.556 1.02-.183 2.297.866 2.871.321.17.684.264 1.027.264.749 0 1.486-.399 1.892-1.122.557-1.02.162-2.285-.866-2.838a2.153 2.153 0 0 0-1.636-.197ZM6.104 31.71c-1.113-.383-2.32.214-2.727 1.32-.385 1.105.17 2.323 1.283 2.705.236.085.481.097.738.1.878 0 1.7-.515 2.02-1.387a2.17 2.17 0 0 0-1.314-2.738Zm-2.47 8.447a2.13 2.13 0 0 0-2.534 1.65 2.113 2.113 0 0 0 1.668 2.508c.128.042.299.065.449.065 1.006 0 1.87-.716 2.085-1.715a2.113 2.113 0 0 0-1.668-2.508ZM2.35 48.67c-1.178-.106-2.235.744-2.342 1.914a2.13 2.13 0 0 0 1.957 2.31h.192c1.092 0 2.01-.842 2.117-1.947.107-1.17-.747-2.17-1.924-2.277Zm-.257 8.447a2.127 2.127 0 0 0-2.02 2.244c.042 1.127.982 2.013 2.116 2.013h.096a2.127 2.127 0 0 0 2.021-2.244 2.095 2.095 0 0 0-2.213-2.013Zm.77 8.546a2.091 2.091 0 0 0-1.636 2.508c.214 1 1.079 1.716 2.085 1.716.128 0 .267-.045.417-.066 1.156-.255 1.904-1.36 1.668-2.508-.257-1.148-1.378-1.905-2.534-1.65Zm2.117 8.613c-1.092.446-1.636 1.666-1.187 2.771.321.83 1.154 1.32 1.989 1.32.278 0 .545-.026.802-.132 1.091-.447 1.636-1.687 1.187-2.772a2.177 2.177 0 0 0-2.791-1.187Zm6.063 7.193a2.098 2.098 0 0 0-1.572.363c-.963.702-1.188 2.012-.481 2.97a2.126 2.126 0 0 0 1.732.89c.428 0 .866-.119 1.251-.395.963-.68 1.166-2.013.481-2.97a2.19 2.19 0 0 0-1.411-.858Zm5.742 5.444a2.091 2.091 0 0 0-1.38.858 2.122 2.122 0 0 0 1.733 3.366c.663 0 1.325-.317 1.732-.89a2.1 2.1 0 0 0-.481-2.97 2.173 2.173 0 0 0-1.604-.364Zm19.909 4.282c-2.364 0-4.299 1.908-4.299 4.257 0 2.348 1.935 4.256 4.299 4.256a4.258 4.258 0 0 0 4.266-4.256 4.258 4.258 0 0 0-4.266-4.257ZM26.12 91.17a2.116 2.116 0 0 0-1.219.132 2.693 2.693 0 0 0-.737.462c-.386.404-.61.944-.61 1.518 0 .552.225 1.102.61 1.485.214.212.48.355.737.462.257.106.524.165.802.165a2.15 2.15 0 0 0 1.508-.627c.385-.383.642-.933.642-1.485 0-.575-.257-1.114-.642-1.518a2.174 2.174 0 0 0-1.09-.594Z" filter="url(#p)"/></svg>