<svg xmlns="http://www.w3.org/2000/svg" xmlns:xlink="http://www.w3.org/1999/xlink" xml:space="preserve" width="100%" height="100%" viewBox="0 0 400 400"><defs><path id="d" fill="#d9a28d" d="M301.119 173.002c3.58-4.122 3.06-8.478-4.254-13.149 3.077-2.397 3.951-2.361 6.832.287 3.539 3.253 4.36 9.952 1.437 13.572-2.13 2.637-4.563 5.094-9.427 2.147 2.25-1.15 4.237-1.504 5.412-2.857Z" filter="url(#a)"/><path id="f" fill="#dea38b" d="M99.27 177.579c-5.554.185-9.177-7.582-7.105-12.948 1.024-2.651 2.916-4.478 4.908-5.424 1.965-.933 3.842.345 3.918.849.069.463-1.413.766-2.245 1.34-5.807 4.009-5.562 11.032 1.763 13.828.76.29-.453 2.329-1.24 2.355Z" filter="url(#b)"/><path id="S" fill="#3c3c3c" d="M76.507 88.394H323.26s-2.307 7.816-8.552 13.329c-4.685 4.135-10.788 7.54-12.803 8.532-6.53.046-189.758.219-204.043 0-1.93-.999-9.621-3.987-13.891-8.532-5.466-5.819-7.464-13.329-7.464-13.329Z" filter="url(#c)"/></defs><defs><filter id="a" width="16.205" height="24.096" x="293.207" y="156.603" color-interpolation-filters="sRGB" filterUnits="userSpaceOnUse"><feDropShadow dx="0" dy="1" flood-color="#715b52" flood-opacity=".5" in="SourceGraphic" result="Shadow" stdDeviation="1"/></filter><filter id="e" width="33.826" height="50.222" x="286.534" y="141.034" color-interpolation-filters="sRGB" filterUnits="userSpaceOnUse"><feDropShadow dx="0" dy="1" flood-color="#000" flood-opacity=".5" in="SourceGraphic" result="Shadow" stdDeviation="1"/></filter><filter id="b" width="14.418" height="23.707" x="89.075" y="157.375" color-interpolation-filters="sRGB" filterUnits="userSpaceOnUse"><feDropShadow dx="0" dy="1" flood-color="#715b52" flood-opacity=".5" in="SourceGraphic" result="Shadow" stdDeviation="1"/></filter><filter id="g" width="32.439" height="49.249" x="79.408" y="142.008" color-interpolation-filters="sRGB" filterUnits="userSpaceOnUse"><feDropShadow dx="0" dy="1" flood-color="#000" flood-opacity=".5" in="SourceGraphic" result="Shadow" stdDeviation="1"/></filter><filter id="h" width="167.01" height="146.018" x="115.715" y="114.477" color-interpolation-filters="sRGB" filterUnits="userSpaceOnUse"><feDropShadow dx="0" dy=".778" flood-color="#000" flood-opacity=".6" in="SourceGraphic" result="Shadow" stdDeviation="1.284"/></filter><filter id="i" width="33.805" height="20.837" x="181.826" y="184.838" color-interpolation-filters="sRGB" filterUnits="userSpaceOnUse"><feDropShadow dx="0" dy="0" flood-color="#9c7464" flood-opacity=".5" in="SourceGraphic" result="Shadow" stdDeviation=".5"/></filter><filter id="j" width="18.026" height="18.16" x="183.076" y="186.266" color-interpolation-filters="sRGB" filterUnits="userSpaceOnUse"><feDropShadow dx="0" dy="1" flood-color="#9c7464" flood-opacity=".5" in="SourceGraphic" result="Shadow" stdDeviation=".5"/></filter><filter id="k" width="15.818" height="18.316" x="198.563" y="186.088" color-interpolation-filters="sRGB" filterUnits="userSpaceOnUse"><feDropShadow dx="0" dy="1" flood-color="#9c7464" flood-opacity=".5" in="SourceGraphic" result="Shadow" stdDeviation=".5"/></filter><filter id="l" width="42.347" height="11.88" x="178.169" y="232.739" color-interpolation-filters="sRGB" filterUnits="userSpaceOnUse"><feDropShadow dx="0" dy="0" flood-color="#9c7464" flood-opacity=".5" in="SourceGraphic" result="Shadow" stdDeviation=".5"/></filter><filter id="m" width="21.645" height="9.38" x="179.419" y="233.989" color-interpolation-filters="sRGB" filterUnits="userSpaceOnUse"><feDropShadow dx="0" dy="1" flood-color="#9c7464" flood-opacity=".5" in="SourceGraphic" result="Shadow" stdDeviation=".5"/></filter><filter id="n" width="20.702" height="9.307" x="198.564" y="234.062" color-interpolation-filters="sRGB" filterUnits="userSpaceOnUse"><feDropShadow dx="0" dy="1" flood-color="#9c7464" flood-opacity=".5" in="SourceGraphic" result="Shadow" stdDeviation=".5"/></filter><filter id="o" width="265.452" height="77.907" x="67.274" y="323.438" color-interpolation-filters="sRGB" filterUnits="userSpaceOnUse"><feDropShadow dx="0" dy=".778" flood-color="#000" flood-opacity=".6" in="SourceGraphic" result="Shadow" stdDeviation="1.284"/></filter><filter id="p" width="252.072" height="119.311" x="72.218" y="238.872" color-interpolation-filters="sRGB" filterUnits="userSpaceOnUse"><feDropShadow dx="0" dy=".778" flood-color="#000" flood-opacity=".6" in="SourceGraphic" result="Shadow" stdDeviation="1.284"/></filter><filter id="q" width="193.038" height="261.413" x="102.888" y="142.309" color-interpolation-filters="sRGB" filterUnits="userSpaceOnUse"><feComponentTransfer in="SourceGraphic" result="Alpha"><feFuncA slope="0" type="linear"/></feComponentTransfer><feDropShadow dx="0" dy=".778" flood-color="#000" flood-opacity=".6" in="Alpha" result="Shadow" stdDeviation="1.284"/></filter><filter id="r" width="199.195" height="265.467" x="100.374" y="140.177" color-interpolation-filters="sRGB" filterUnits="userSpaceOnUse"><feDropShadow dx="0" dy=".778" flood-color="#000" flood-opacity=".6" in="SourceGraphic" result="Shadow" stdDeviation="2"/></filter><filter id="s" width="30.022" height="50.28" x="222.195" y="229.638" color-interpolation-filters="sRGB" filterUnits="userSpaceOnUse"><feComponentTransfer in="SourceGraphic" result="Alpha"><feFuncA slope="0" type="linear"/></feComponentTransfer><feDropShadow dx="0" dy="2" flood-color="#000" flood-opacity=".7" in="Alpha" result="Shadow" stdDeviation="2"/></filter><filter id="t" width="30.022" height="52.585" x="146.165" y="227.267" color-interpolation-filters="sRGB" filterUnits="userSpaceOnUse"><feComponentTransfer in="SourceGraphic" result="Alpha"><feFuncA slope="0" type="linear"/></feComponentTransfer><feDropShadow dx="0" dy="2" flood-color="#000" flood-opacity=".7" in="Alpha" result="Shadow" stdDeviation="2"/></filter><filter id="u" width="30.637" height="39.778" x="146.424" y="239.074" color-interpolation-filters="sRGB" filterUnits="userSpaceOnUse"><feDropShadow dx="0" dy="1" flood-color="#000" flood-opacity=".5" in="SourceGraphic" result="Shadow" stdDeviation="2"/></filter><filter id="v" width="59.495" height="66.233" x="144.243" y="208.072" color-interpolation-filters="sRGB" filterUnits="userSpaceOnUse"><feDropShadow dx="0" dy="1" flood-color="#000" flood-opacity=".5" in="SourceGraphic" result="Shadow" stdDeviation="2"/></filter><filter id="w" width="30.533" height="39.404" x="222.81" y="239.439" color-interpolation-filters="sRGB" filterUnits="userSpaceOnUse"><feDropShadow dx="0" dy="1" flood-color="#000" flood-opacity=".5" in="SourceGraphic" result="Shadow" stdDeviation="2"/></filter><filter id="x" width="59.531" height="66.233" x="195.994" y="208.054" color-interpolation-filters="sRGB" filterUnits="userSpaceOnUse"><feDropShadow dx="0" dy="1" flood-color="#000" flood-opacity=".5" in="SourceGraphic" result="Shadow" stdDeviation="2"/></filter><filter id="y" width="56.069" height="36.248" x="202.23" y="152.006" color-interpolation-filters="sRGB" filterUnits="userSpaceOnUse"><feDropShadow dx="0" dy=".506" flood-color="#000" flood-opacity=".6" in="SourceGraphic" result="Shadow" stdDeviation="1.284"/><feGaussianBlur in="Shadow" result="Blur" stdDeviation=".15"/></filter><filter id="z" width="35.273" height="30.372" x="212.627" y="152.034" color-interpolation-filters="sRGB" filterUnits="userSpaceOnUse"><feDropShadow dx="0" dy=".506" flood-color="#000" flood-opacity=".6" in="SourceGraphic" result="Shadow" stdDeviation="1.284"/><feGaussianBlur in="Shadow" result="Blur" stdDeviation=".253"/></filter><filter id="A" width="56.064" height="36.245" x="202.741" y="152.292" color-interpolation-filters="sRGB" filterUnits="userSpaceOnUse"><feDropShadow dx="0" dy=".506" flood-color="#000" flood-opacity=".6" in="SourceGraphic" result="Shadow" stdDeviation="1.284"/><feGaussianBlur in="Shadow" result="Blur" stdDeviation=".15"/></filter><filter id="B" width="28.852" height="24.163" x="215.838" y="154.739" color-interpolation-filters="sRGB" filterUnits="userSpaceOnUse"><feGaussianBlur in="SourceGraphic" result="Blur" stdDeviation=".253"/></filter><filter id="C" width="21.147" height="21.185" x="219.69" y="155.957" color-interpolation-filters="sRGB" filterUnits="userSpaceOnUse"><feDropShadow dx="0" dy=".778" flood-color="#000" flood-opacity=".6" in="SourceGraphic" result="Shadow" stdDeviation="1.284"/></filter><filter id="D" width="12.784" height="13.856" x="223.872" y="153.539" color-interpolation-filters="sRGB" filterUnits="userSpaceOnUse"><feDropShadow dx="0" dy=".778" flood-color="#000" flood-opacity=".6" in="SourceGraphic" result="Shadow" stdDeviation="1.284"/></filter><filter id="E" width="56.623" height="22.66" x="202.141" y="147.779" color-interpolation-filters="sRGB" filterUnits="userSpaceOnUse"><feDropShadow dx="0" dy=".503" flood-color="#000" flood-opacity=".65" in="SourceGraphic" result="Shadow" stdDeviation="1.276"/></filter><filter id="F" width="56.069" height="36.251" x="141.046" y="152.006" color-interpolation-filters="sRGB" filterUnits="userSpaceOnUse"><feDropShadow dx="0" dy=".506" flood-color="#000" flood-opacity=".6" in="SourceGraphic" result="Shadow" stdDeviation="1.284"/><feGaussianBlur in="Shadow" result="Blur" stdDeviation=".15"/></filter><filter id="G" width="35.273" height="30.374" x="151.443" y="152.034" color-interpolation-filters="sRGB" filterUnits="userSpaceOnUse"><feDropShadow dx="0" dy=".506" flood-color="#000" flood-opacity=".6" in="SourceGraphic" result="Shadow" stdDeviation="1.284"/><feGaussianBlur in="Shadow" result="Blur" stdDeviation=".253"/></filter><filter id="H" width="56.064" height="36.249" x="140.539" y="152.292" color-interpolation-filters="sRGB" filterUnits="userSpaceOnUse"><feDropShadow dx="0" dy=".506" flood-color="#000" flood-opacity=".6" in="SourceGraphic" result="Shadow" stdDeviation="1.284"/><feGaussianBlur in="Shadow" result="Blur" stdDeviation=".15"/></filter><filter id="I" width="28.852" height="24.166" x="154.654" y="154.739" color-interpolation-filters="sRGB" filterUnits="userSpaceOnUse"><feGaussianBlur in="SourceGraphic" result="Blur" stdDeviation=".253"/></filter><filter id="J" width="21.147" height="21.186" x="158.507" y="155.957" color-interpolation-filters="sRGB" filterUnits="userSpaceOnUse"><feDropShadow dx="0" dy=".778" flood-color="#000" flood-opacity=".6" in="SourceGraphic" result="Shadow" stdDeviation="1.284"/></filter><filter id="K" width="12.784" height="13.857" x="162.688" y="153.538" color-interpolation-filters="sRGB" filterUnits="userSpaceOnUse"><feDropShadow dx="0" dy=".778" flood-color="#000" flood-opacity=".6" in="SourceGraphic" result="Shadow" stdDeviation="1.284"/></filter><filter id="L" width="56.277" height="22.633" x="140.626" y="147.777" color-interpolation-filters="sRGB" filterUnits="userSpaceOnUse"><feDropShadow dx="0" dy=".503" flood-color="#000" flood-opacity=".65" in="SourceGraphic" result="Shadow" stdDeviation="1.276"/></filter><filter id="M" width="97.859" height="12.769" x="150.954" y="132.27" color-interpolation-filters="sRGB" filterUnits="userSpaceOnUse"><feDropShadow dx="0" dy="1" flood-color="#9c7464" flood-opacity=".5" in="SourceGraphic" result="Shadow" stdDeviation=".5"/></filter><filter id="N" width="38.023" height="10.269" x="209.539" y="132.52" color-interpolation-filters="sRGB" filterUnits="userSpaceOnUse"><feDropShadow dx="0" dy="1" flood-color="#9c7464" flood-opacity=".5" in="SourceGraphic" result="Shadow" stdDeviation=".5"/></filter><filter id="O" width="38.023" height="10.269" x="152.204" y="132.52" color-interpolation-filters="sRGB" filterUnits="userSpaceOnUse"><feDropShadow dx="0" dy="1" flood-color="#9c7464" flood-opacity=".5" in="SourceGraphic" result="Shadow" stdDeviation=".5"/></filter><filter id="Q" width="255.407" height="99.76" x="72.18" y="52.842" color-interpolation-filters="sRGB" filterUnits="userSpaceOnUse"><feDropShadow dx="0" dy="1" flood-color="#000" flood-opacity=".6" in="SourceGraphic" result="Shadow" stdDeviation="1.284"/></filter><filter id="R" width="254.014" height="27.409" x="72.884" y="68.55" color-interpolation-filters="sRGB" filterUnits="userSpaceOnUse"><feDropShadow dx="0" dy="1" flood-color="#000" flood-opacity=".4" in="SourceGraphic" result="Shadow" stdDeviation="1"/></filter><filter id="c" width="251.753" height="26.969" x="74.007" y="86.894" color-interpolation-filters="sRGB" filterUnits="userSpaceOnUse"><feDropShadow dx="0" dy="1" flood-color="#000" flood-opacity=".4" in="SourceGraphic" result="Shadow" stdDeviation="1"/></filter><filter id="T" width="252.473" height="25.096" x="73.647" y="52.518" color-interpolation-filters="sRGB" filterUnits="userSpaceOnUse"><feDropShadow dx="0" dy="0" flood-color="#000" flood-opacity=".3" in="SourceGraphic" result="Shadow" stdDeviation="1"/></filter><filter id="U" width="54.463" height="11.223" x="252.759" y="126.106" color-interpolation-filters="sRGB" filterUnits="userSpaceOnUse"><feDropShadow dx="0" dy="0" flood-color="#000" flood-opacity=".3" in="SourceGraphic" result="Shadow" stdDeviation=".5"/></filter><filter id="V" width="51.548" height="14.812" x="254.92" y="134.83" color-interpolation-filters="sRGB" filterUnits="userSpaceOnUse"><feDropShadow dx="0" dy="0" flood-color="#000" flood-opacity=".3" in="SourceGraphic" result="Shadow" stdDeviation=".5"/></filter><filter id="W" width="54.396" height="13.691" x="252.756" y="114.915" color-interpolation-filters="sRGB" filterUnits="userSpaceOnUse"><feDropShadow dx="0" dy="0" flood-color="#000" flood-opacity=".3" in="SourceGraphic" result="Shadow" stdDeviation=".5"/></filter><filter id="X" width="218.04" height="18.752" x="90.809" y="102.99" color-interpolation-filters="sRGB" filterUnits="userSpaceOnUse"><feDropShadow dx="0" dy="0" flood-color="#000" flood-opacity=".4" in="SourceGraphic" result="Shadow" stdDeviation="1"/></filter><filter id="Y" width="213.04" height="13.752" x="93.309" y="105.49" color-interpolation-filters="sRGB" filterUnits="userSpaceOnUse"><feDropShadow dx="0" dy="0" flood-color="#000" flood-opacity=".4" in="SourceGraphic" result="Shadow" stdDeviation="1"/></filter><filter id="Z" width="54.458" height="11.333" x="92.549" y="125.853" color-interpolation-filters="sRGB" filterUnits="userSpaceOnUse"><feDropShadow dx="0" dy="0" flood-color="#000" flood-opacity=".3" in="SourceGraphic" result="Shadow" stdDeviation=".5"/></filter><filter id="aa" width="54.396" height="13.655" x="92.615" y="114.951" color-interpolation-filters="sRGB" filterUnits="userSpaceOnUse"><feDropShadow dx="0" dy="0" flood-color="#000" flood-opacity=".3" in="SourceGraphic" result="Shadow" stdDeviation=".5"/></filter><filter id="ab" width="51.548" height="14.951" x="93.299" y="134.686" color-interpolation-filters="sRGB" filterUnits="userSpaceOnUse"><feDropShadow dx="0" dy="0" flood-color="#000" flood-opacity=".3" in="SourceGraphic" result="Shadow" stdDeviation=".5"/></filter><filter id="ac" width="251.753" height="26.969" x="74.007" y="86.894" color-interpolation-filters="sRGB" filterUnits="userSpaceOnUse"><feDropShadow dx="0" dy="1" flood-color="#000" flood-opacity=".4" in="SourceGraphic" result="Shadow" stdDeviation="1"/></filter><linearGradient id="P" x1="200.622" x2="201.854" y1="290.772" y2="68.298" gradientTransform="translate(-30.592 -27.558) scale(1.15238)" gradientUnits="userSpaceOnUse"><stop offset="0" stop-color="#554138"/><stop offset="1" stop-color="#534a47"/></linearGradient></defs><use xlink:href="#d" filter="url(#a)"/><path fill="#f3b69e" d="M289.611 142.634c.036.529-.609 1.164-.576 1.692.894 14.372 1.944 29.334 3.349 43.431 6.249-2.001 13.774-2.956 18.011-6.244 9.355-7.259 8.732-16.347 4.568-26.167-3.37-7.353-18.007-12.646-19.23-12.676-1.666.137-3.911-.331-6.122-.036Zm10.731 15.485c.964.04 1.909.693 3.35 2.017 3.538 3.252 4.363 9.957 1.44 13.576-2.13 2.637-4.571 5.107-9.435 2.161 2.25-1.15 4.263-1.529 5.438-2.881 3.58-4.123 3.028-8.473-4.286-13.145 1.539-1.198 2.53-1.769 3.493-1.728Z" filter="url(#e)"/><use xlink:href="#d" opacity=".523"/><use xlink:href="#f" filter="url(#b)"/><path fill="#f3b69e" d="m109.346 143.508-10.155.144c-4.604.035-9.89 2.527-12.676 7.166-5.123 8.531-7.387 20.966.792 30.862 4.267 5.921 11.935 6.352 18.834 5.978 1.114-14.86 2.14-29.24 3.205-44.15Zm-10.84 15.377c1.362-.011 2.429.811 2.486 1.188.069.463-1.401.758-2.233 1.333-5.807 4.009-5.56 11.032 1.765 13.828.76.291-.474 2.315-1.26 2.341-5.554.185-9.167-7.562-7.095-12.928 1.023-2.651 2.906-4.492 4.897-5.438.492-.233.987-.32 1.44-.324Z" filter="url(#g)"/><use xlink:href="#f" opacity=".489"/><path fill="#efb198" d="M251.39 238.757c22.79-5.868 26.677-68.976 28.125-90.754-18.547-8.608-19.929-12.394-21.44-30.901l-116.172-.193c1.376 25.003-16.623 29.975-22.96 30.786-.19 19.725.616 82.03 31.569 93.111l49.372 15.7 51.506-17.749Z" filter="url(#h)"/><path fill="#f4b69d" d="M138.41 132.693c1.113-1.818 1.329-4.091 1.134-8.537-.194-4.445-1.913-9.246-1.913-9.246l62.253.501v139.152s-32.017-4.045-49.631-16.702c-17.613-12.656-19.157-20.001-21.583-33.925-2.919-16.759-5.952-33.498-8.947-50.244-.498-2.782-1.052-5.553-1.657-8.734.413-.16 1.437-.968 2.142-1.195 2.716-.875 6.81-1.663 10.517-3.84 4.039-2.372 6.904-5.954 7.685-7.23Z"/><path fill="#f3b399" d="M226.877 244.494s.128-126.801.131-131.444c10.107-.038 20.754-.031 31.427-.039.184 2.803-.518 8.801-.518 8.801s-.768 4.385 1.321 8.265c2.089 3.88 7.035 7.257 7.035 7.257s4.621 2.889 6.929 3.361c5.983 1.223 8.713 5.5 7.492 11.071-4.174 19.044-11.409 57.372-11.409 57.372-1.103 5.52-1.935 9.254-5.741 15.151-4.655 7.212-31.282 25.467-36.667 20.205Z"/><path fill="#f0ae94" d="M229.935 246.134c-.078-.018-28.277 5.83-30.051 7.178 0 0-.002-111.809 0-136.563 6.118-.373 30.56-.046 30.56-.046s-.026 118.127-.509 129.431Z"/><g filter="url(#i)"><path fill="#f8c4b0" d="M190.796 201.453c-2.791-1.603-6.494-4.774-6.469-7.24.024-2.473 3.831-5.4 6.594-7.167 1.637-1.046 8.817-.23 8.893-.18.088.059-.004 10.526 0 15.163 0 0-7 .583-9.018-.576Z" filter="url(#j)"/><path fill="#dea58d" d="M199.814 202.038c0-4.402-.002-10.033 0-15.204 2.681-.504 4.809-.902 6.833.261 2.795 1.606 6.507 4.773 6.484 7.24-.023 2.471-3.838 5.4-6.604 7.167-1.641 1.048-3.91.512-6.713.536Z" filter="url(#k)"/></g><g filter="url(#l)"><path fill="#dda28a" d="M199.814 241.119c-5.452-.461-10.998-.811-15.843-1.695-1.276-.232-3.577-2.439-3.275-3.734.301-1.295 2.999-1.482 4.481-1.447 4.174.099 9.943.111 14.637.454v6.422Z" filter="url(#m)"/><path fill="#d69d86" d="M199.814 241.119v-6.422c5.28-.329 8.426-.314 13.185-.384 1.652-.024 4.6.209 4.979 1.517.378 1.307-2.136 3.484-3.465 3.713-4.856.837-9.239 1.123-14.699 1.576Z" filter="url(#n)"/></g><g fill="#272223" filter="url(#o)"><path d="M329.515 344.222c-17.355 19.034-59.538 51.76-86.843 53.134 12.62-13.638 17.847-26.624 27.754-40.683 3.882-5.509 9.453-6.15 21.288-14.669 10.198-7.344 18.174-15.053 20.145-13.792 5.736 3.667 11.445 13.751 17.656 16.01Zm-259.03-2.204c17.355 19.034 59.538 51.76 86.843 53.134-12.62-13.638-17.847-26.624-27.754-40.683-3.882-5.51-9.453-6.15-21.288-14.67-10.198-7.344-18.174-15.053-20.145-13.792-5.736 3.668-11.445 13.751-17.656 16.011Z"/></g><g filter="url(#p)"><path fill="#c0bebf" d="M319.4 294.786c-.436.437-2.056 2.854-2.095 3.428-.124 1.778.88 4.073-.381 5.333-2.465-1.849-2.019 1.449-3.047 2.477l-.572-.572c-.604.604-.758 2.039-1.523 2.475-.349.2-.859.097-1.143.382l.381.38c-1.041 2.083-.541 4.319-1.524 6.286-1.051 2.102 1.349 4.744-.381 6.474-.825-.826.27-8.917-3.238-7.046-.795.424-1.238 1.428-2.095 1.714 0 1.213.478 2.76-.38 3.618l-.571-.571-.382.19c-3.725-3.726-4.349 7.207-4.76 7.618-.926-.925.232-2.319-.572-3.238-4.293-4.906-4.331 4.191-5.903 4.191-1.766 0-2.325-2.905-4.953.38l-.38-.38c-1.894 1.894 1.133 5.342-.762 7.236-.759-.76-.9-3.095-1.143-4.189-.295-1.332-3.583-1.011-4.19 0-1.422 2.371.258 7.931-1.333 9.522-.902-.902-.152-2.553-.381-3.809-.063-.354-.725-.405-.762-.762-.226-2.273.121-4.573 0-6.856-.012-.248-.589-.485-.762-.572-1.222 1.225.462 3.158-.761 4.381l-.381-.19c-1.275 1.274.188 3.242-.57 4.762-.384.764-1.753 1.636-1.905 2.475-.407 2.235.885 3.45-1.333 4.189 0 2.57-.952 5.093-1.905 7.237-.402.906-1.49 1.454-1.143 2.667.211.739 5.345-.989 5.714-2.095 2.677 0 4.047-1.026 6.284-1.523.572-.128 1.087-1.464 1.715-1.715 1.65-.66 3.7-.89 5.141-1.714.819-.467 1.188-1.644 2.095-1.904 3.378-.965 5.7-4.249 8.952-5.332 2.174-.726 4.135-3.055 5.903-4.572 2.202-1.887 4.296-4.294 6.285-6.284.764-.763 2.117-1.377 2.666-2.477.509-1.017 1.342-2.943 2.095-3.998 1.344-1.882 2.484-2.886 3.048-5.142.274-1.1 1.358-2.415 1.524-3.238.823-4.118.731-9.581.571-13.903-.07-1.852.77-4.376-1.143-5.333Z"/><path fill="#e8e8e8" d="M319.019 274.98c-.843.844.259 2.061-.952 2.666-1.931.966-4.327-.207-6.475 0-4.742.459-9.521.381-14.283.381-1.546 0-8.757.246-9.143 1.143-.071.168-.128 1.129.381 1.143 4.632.122 9.269.062 13.902 0 5.071-.067 9.647-.953 14.856-.953.078 0 2.257-.069 2.285.381a45.757 45.757 0 0 1 0 5.713c-.012.18-.203.361-.38.382-4.153.461-11.024.215-14.666-.19-.357-.041-.408-.695-.762-.762-.363-.07-4.846-.485-5.522.19-3.043-1.521-7.43.318-10.666-.761 0-1.34.566-3.054-.38-4-1.32 1.32-.655 4.845-.953 6.475-.063.353-.687.41-.761.761-.068.324-.523 4.263-.572 4.953-.117 1.709.119 3.432 0 5.141-.023.357-.768.509-.952.571 0 .826.033 1.652 0 2.477-.03.764-.088 1.528-.19 2.285-.314 2.352 3.251.777 4.38 1.905l-.38.571c.729.729 7.444.957 8.951 1.333 1.71.427 1.198 2.54 3.39 2.927.49.086 1.87-1.034 2.322-.832 1.731.769 4.428.446 6.285 1.142 1.108.415.398 4.206 1.143 4.953.993-.993.453-2.558.579-3.954.079-.866 1.363-2.661 1.897-3.284-1.631-1.632-4.317.495-6.094-.571-1.329-.797-3.391-1.306-5.015-1.601-2.281-.415-4.176-.569-6.222-1.446-1.115-.478-1.785.006-2.982-.527-.6-.266-1.385-.519-1.969-.616-1.22-.203-2.655.196-3.81-.382-1.213-.606-2.398-3.633-.57-3.998.531-.106 2.196.756 3.926 1.101 2.497.499 5.199.597 5.405.802.602-.299 12.192 2.556 14.093 2.667.107.007 4.054-.246 4.38.953.582 2.131-.845 5.629.762 7.236 1.619-1.617.197-4.573.382-6.856.077-.945 1.473-1.126 2.094-1.333-1.215-1.823-4.809-.525-5.523-2.667-1.514 0-5.007.516-6.094-.57l.381-.381c-1.081-1.082-3.054-.199-4.571-.382-4.002-.479-8.568-1.85-12.95-2.095-.378-.02-.583.075-.952-.19-1.296-.925-.996-1.553-.763-3.427.084-.667 7.754-.628 8.953.572 1.865-.935 7.601.438 9.712 1.141 3.679 1.228 8.136-.325 11.807 1.142.88.353.111 1.446.762 2.095 1.07-1.069 1.188-1.511 1.524-2.856.254-1.015.842-1.856 1.636 5.77.221-2.533.221-6.446.268-6.913.333-3.256.128-10.032-.571-13.521-.357-1.785.115-4.455-1.333-5.904Z"/><path fill="#fcfafb" d="M287.786 272.885c-1.44 1.439-.327 4.06-.382 6.095-.016.575-.19 1.139-.19 1.713 0 1.333-.115 2.671 0 4 .063.717 2.334.191 2.667.191 2.799 0 5.875-.681 8.379.57.795-.795 5.19-.265 5.522-.19.35.081.405.729.762.762 3.874.352 10.591.597 14.856.19.268-.025.548-.303.572-.57a36.062 36.062 0 0 0 0-6.095c-.077-.885-6.382-.26-7.278-.21-1.2.067-6.008.835-7.203.835-6.511 0-9.64-.151-16.563-.245-.179-.002-.255-.254-.381-.38l.381-.571c1.731.865 5.939-.572 7.999-.572 7.097 0 14.252-.381 21.14-.381 2.876 0-1.049-8.293-1.524-8.379-1.9-.345-3.62.898-5.333 1.142-5.102.73-9.854.892-14.664 2.095-2.067.518-7.064 1.274-8.76 0Z"/><path fill="#fcfafb" d="M290.833 245.462c-1.903 1.902-.567 7.573-.697 10.902-.036.929.193 1.6-.255 2.048l-.762-.572c-.127.126-.373.202-.381.38-.122 2.727 0 5.46 0 8.19 0 .59-.886 6.475 1.714 6.475.585 0 .762-1.013 1.334-1.143 1.251-.284 2.707.091 3.808-.572 1.292-.773 2.199.468 3.428-.762.825.413 1.995-.103 2.856-.19 2.257-.225 11.511-1.957 12.761-1.332 1.794-1.794-3.593-8.957-5.524-8.57-2.444.489-4.892 1.477-7.046 2.285-1.596.599-3.825.231-5.523.572-1.994.398-4.982 2.212-7.047 1.523 0-1.512-.315-1.019.382-1.714 1.221 1.222 12.281-3.207 13.33-3.428.294-.061 3.748.566 4.19-.762.971-2.915-5.14-4.946-5.904-7.237-1.571 0-6.231-3.266-6.665-4.571-.799 0-3.522-1.048-3.999-1.522Zm-7.237 57.324c-1.224 1.222-.953 3.841-.953 5.523 0 1.143-.224 2.307 0 3.428.191.956 3.85 1.633 4.571 1.713 1.08.121 1.604 1.175 2.475 1.525.839.335 2.541.113 3.429.38 1.136.341 1.963 1.422 3.048 1.905.836.372 4.072.114 4.823.866-1.135.223-4.927.187-6.865-.448-4.17-1.367-10.088-4.565-12.814-3.656 0 .762-.15 1.538 0 2.286.164.823 8.9 3.77 10.476 4.951 1.075.807 2.66-.014 3.236 1.713 3.709 0 .557 5.377 3.048 4.381 1.139-.456-.143-9.273 3.999-7.999 1.228.379.458 1.41 1.142 2.095 2.484-1.243 1.137-3.411 1.905-5.522.667-1.834 2.777-1.246 3.048.381.262 1.582-.493 5.221.57 6.284 1.796-1.796 1.481-3.944 1.333-7.047-.035-.728.425-1.99.293-3.006-.157-1.215-.946-2.154-1.521-2.446-1.42-.721-2.227-1.261-4.445-.915-1.32.204-1.405-.979-2.676-1.302-2.169-.552-4.779-1.422-4.981-1.472-2.016-.504-7.004.318-7.809-2.095-2.312 0-3.899-.089-5.332-1.523Z"/><path fill="#e8e8e8" d="M283.349 307.031c-1.102 1.1-1.391 4.315-1.658 5.849-.05.287-1.084 1.107-1.143 1.523-.395 2.771-.763 4.775-1.143 7.427-.114.807-1.263 1.715-1.333 2.475-.114 1.266.164 2.55 0 3.81-.063.491-1.103.458-1.142.952-.18 2.279-.228 4.583 0 6.856.036.357.7.408.761.762.242 1.388-.425 3.194.572 4.191.665-.334.267-.106 1.142-.763-.313-.629-.154-8.631 1.333-9.522 3.8-2.28 3.088 6.033 4.571 5.142 1.72-1.032.416-4.2.572-5.333.058-.419 1.348-2.848 1.905-3.047.668-.239 1.593.12 2.095-.381-.714-.713-.487-.316-.762-1.142-1.724 0-2.444-1.1-4-1.525-2.455-.669-5.047-1.241-4.571-4.57.197-1.376 5.303.923 5.713 1.333.101.101.241.191.382.191.289 0 5.26 1.617 5.333 1.713.537.719.81 1.498.814 2.919.003 1.019.217-2.234 1.281-2.728 1.57-.729 2.18.96 2.818.321-.91-.908-3.217-1.757-4.342-2.225-.946-.394-.757-1.237-1.714-1.524-1.825-.548-4.167-.738-5.524-2.094-2.011 1.005-5.264-3.023-3.238-3.428 1.756-.352 2.194.319 3.429 1.142.213.141 1.55.12 1.714.19 2.282.978 4.399 1.672 6.857 2.287.626.156 4.406 3.425 4.953 3.592.825.255.941-1.525 1.753-1.819 1.573-.574.596.933 1.71-.182-1.057-1.058-2.067-2.261-3.587-2.526-2.596-.45-7.906-2.602-11.288-3.715-2.077-.683-2.333-.313-4.016-.874-1.452-.485.366-4.049-.247-5.277Z"/><path fill="#fcfafb" d="M305.116 300.691c2.266 0 4.253.037 6.094 1.142 2.365 1.419 3.727-.41 5.523 2.286.56-.281.247-.146.952-.382 0-2.413.573-4.947-.19-7.236-.44-1.32-8.123-1.525-9.331-1.525-6.669 0-15.184-3.435-21.903-2.474-1.2.17-.686 2.444-.38 3.617.456 1.749 4.123 1.254 4.952 1.334 3.295.315 7.043 1.659 10.093 2.095 2.316.331 3.497-.939 4.19 1.143Zm-18.092-15.237c-1.53.635-.508 3.302-.381 4.953.014.179.205.345.381.38 6.796 1.359 13.885.951 20.948 1.715 1.196.128 2.792 1.333 4.19 1.333 1.228 0 7.807 1.359 8-.953.133-1.607.97-3.557-.381-4.57-1.086-.815-8.169-.191-9.904-.191-2.36 0-6.035.003-8.19-.38-1.914-.343.138-1.057-1.333-.762-2.925.584-5.967.062-8.95 0-.92-.02-2.706.24-3.428 0-.776-.259-.32-1.787-.952-1.525Z"/><path fill="#fcfafb" d="M301.116 306.594c1.201-.6 4.112.302 4.952 1.143 1.834-.917 4.664 1.22 6.666-.381 1.128-.902 1.884-2.949.571-3.999-1.599-1.278-4.86.366-6.666-.763-1.719-1.074-3.395-.466-5.333-.952-.714-.177-1.275-1.143-1.902-1.143-3.209 0-6.649-.898-9.905-1.333-1.093-.146-2.859-1.395-4.19-.952-1.231.411-.615 3.252-.571 3.428.498 1.994 4.106 1.364 5.333 1.715 2.165.618 9.679 1.871 11.045 3.237Z"/><path fill="#e8e8e8" d="M288.738 266.41c-1.618 1.619-.508 4.57-.382 6.856.008.139.595.571.763.571 5.43 0 11.124-.792 16.16-2.052 3.929-.982 7.207-.512 11.074-1.567 1.68-.457-1.439-3.785-1.765-4.191-.67.671.732 2.043-.14 2.479-.927.462-3.179-.134-4.381 0-2.329.258-9.244 2.423-11.045 1.522-1.934 1.934-7.351-.228-8.189 2.285-3.036 0-.625-4.431-2.095-5.903Z"/><path fill="#fcfafb" d="M280.548 318.782c-1.077.146-.507 2.159-.381 3.238.242 2.057 7.225 3.133 8.571 4.19.067.054 1.38 2.369 2.476 2.095 2.203-.55 2.376-5.207.38-6.095-.578-.256-1.726.179-2.285-.38-1.727-1.727-6.072-3.412-8.761-3.048Z"/><path fill="#e8e8e8" d="M310.067 260.125c-.444-.889-1.772-2.41-2.666-2.857-.574.577-.015 1.342-.762 1.715-1.306.653-8.305.877-9.33 1.904l.38.381c-1.448 1.447-5.1-.042-6.856 1.714l-.572-.381c.572-1.143.52-4.464.381-5.713-.059-.529-1.117-.562-1.143 0a93.184 93.184 0 0 0 0 8.189c.043.965 6.458-1.331 7.618-1.524 2.732-.455 5.196-.679 7.809-1.333.684-.17 1.203-1.142 1.904-1.142 1.293 0 2.234.051 3.237-.953Zm-25.175 42.456c-1.316 1.1-1.664 4.314-1.982 5.848-.061.288-1.968 1.738.455 1.333 2.1-.351 2.624.32 4.1 1.143.255.141 1.853.12 2.049.19 2.73.978 5.261 1.672 8.201 2.287.748.156 7.201 6.079 7.201 6.079s-.114-4.271 1.062-4.256c.903.011 1.969.095 1.969.095-1.265-1.059-2.64-2.589-4.457-2.853-3.104-.45-9.456-2.602-13.498-3.715-2.485-.683-2.792-.314-4.805-.874-1.736-.485.439-4.049-.295-5.277Z"/><path fill="#e8e8e8" d="M290.136 256.364c.291-.029 1.898-1.495 2.1-1.549 2.797-.757 6.498-2.085 9.261-3.26l-2.254-.917c-1.474-.224-2.775.883-4.622 1.416-1.467.424-3.538.228-4.448.549l-.037 3.761Z"/><path fill="#c0bebf" d="M78.564 299.005c-3.405 6.682-.466 2.915.633 4.303.324.41-.433 2.549.323 2.404 0 0 1.198-.403 1.485.341.15.389-.308 2.413.187 3.857.452 1.317 1.338-16.097.23-15.141-.246-.426-.124-.187-1.341-1.811-.1-5.486 1.021-19.219.203-19.041-1.217.267-1.791 3.376-2.356 4.825-.237.608-1.053 3.94-1.304 5.195-.742 3.719-2.85 7.787 1.305 3.54-3.035 6.008-2.987 6.937-.632 6.23 1.133 2.489-1.776 9.066 1.267 5.298Zm4.575 20.012c-.75 1.354-1.21 6.925 2.249 5.858 0 0 1.219-.542 1.663.08.233.325.106 2.206.902 3.424.727 1.11 2.322 1.586 3.62 1.476-1.172 2.136 1.256 6.053 5.203 4.366-1.01 3.244 2.731 7.323 5.539 4.572-.045 5.634 2.833 5.772 6.794 3.274-.246 4.463 2.27 4.161 3.957 4.723.471.157.488.969.953 1.143 2.252.846 4.055 1.019 6.094 2.476 1.745 1.246 5.516.931 6.285 3.237 6.833 0 .362-3.764.19-6.856-.056-1.014.112-2.037 0-3.047-.064-.582-1.158-.584-1.333-1.142-.617-1.976.763-2.285-.952-2.857 0-3.381-1.046-2.178-1.333-3.999-.159-1.003.112-2.038 0-3.047-.06-.535-.585-2.796-1.728-3.049-.52-.116-.974 1.239-1.671 1.522 1.681-6.793-.372-8.317-1.014-8.959 0 .802-.543 3.956-1.294 6.71-1.165 4.269-1.617 2.793-2.199 4.164-.466 1.097.186 4.137-1.407 5.73-.802-1.041-.57-4.358-.604-5.423-.144-4.455-2.636-6.68-3.395-6.386-.133.052-.522-.035-1.06 1.244-.609 1.448-.674 5.78-.864 5.97-.737-.737-.144-3.092-1.524-2.476.451-1.506.83-2.986.531-5.149-.35-2.538-.98-4.706-2.626-4.564-1.27.11-1.178 3.273-2.476 4.571-1.483-.989-.637-3.501-1.211-5.628-.196-.724-.526-1.412-.916-1.813-.671-.685-1.522-.726-2.183-.124-1.048.951-1.034 3.197-1.593 3.756-.822-.822-.542-4.071-.76-5.995-.129-1.152-.653-2.785-1.645-2.912-1.096-.142-1.78 1.728-2.129 3.17-.316 1.305-.554 4.014-.554 4.014s-.211.165-.435.389c-1.394-.696.795-19.34-4.38-10.283-.635 1.11.64 2.596-.382 3.618-.668-.668.82-16.941-3.237-10.855-.592-.395-.73-9.914-2.476-9.332-1.264.422-.607 4.332-.952 5.713-.575 2.299-1.862 9.638.571 7.809.164 1.062-1.417 7.58 1.453 6.338 1.567-.02-2.38 5.421 2.33 4.549Z"/><path fill="#fcfafb" d="M107.768 241.304c-.467 1.917-.352 1.885-1.285 3.985-.287.646-.997.909-1.606 1.516-2.878 2.879-7.103 4.819-10.093 7.809-1.19 1.191-3.305 1.893-2.667 3.809.154.461 3.177 1.585 5.972 2.123 2.166.417 4.227.267 4.503.544l-.191.38c1.552 1.553 5.234-.356 6.475 1.715.539.897-2.036 1.037-3.047.761-1.804-.492-4.614-.879-6.284-1.714-.852-.426-1.93.214-2.857 0-2.7-.622-4.013-2.508-7.428-1.904-2.27.4-3.016 4.34-4.386 5.71-.766.933-2.722 4.136-3.279 4.692-.193-.144-1.879 1.566-1.33 3.164.48 1.402.123 3.278.616 3.574.138.083 1.153.375 1.333.38 5.204.125 10.412.069 15.617.191 2.778.065 9.703-.581 11.617 1.334-.127.19-.152.558-.381.57-3.169.183-6.348 0-9.522 0-2.853 0-5.815-.19-8.57-.19-.626 0-1.104-.626-1.715-.762-1.874-.416-7.369-.681-9.331-.19-.262.064-.55.303-.572.572-.174 2.088-.21 3.491-.09 5.582.01.18.293 1.058.471 1.083.962.137 1.887-.532 2.857-.572 4.567-.182 9.143.124 13.712 0 4.49-.121 8.662-.35 13.522-.57.2-.01.392-.101.571-.192 1.337-.668.964-2.885.952-4.38-.007-.915-.545-.915-1.044-1.209-1.595-.936-.479-4.322-.479-6.028 0-2.221.019-4.443 0-6.664-.045-5.207-.005-10.415-.191-15.618-.006-.179-.254-.253-.381-.381l-.381.381c-1.339-1.34.297-2.564-.592-4.205-.347-.64.547-2.985-.516-5.296Zm-17.365 51.972c1.016-1.018 6.889-.532 7.808-.572 2.837-.124 5.515-.995 9.713-1.523 1.442-.182 3.218-.198 4.381.19 0 1.804-4.494 1.123-6.095 1.523-5.256 1.315-11.19 1.502-16.378 2.475-2.295.432-5.392-.417-7.618.572-.663.256-1.615 7.336-.38 8.57 1.013-.508 1.341-2.249 2.475-2.475 1.657-.332 3.78.395 5.332-.382 1.76-.879 4.163-.272 5.904-1.142 1.83-.916 2.622-.694 4.952-.953 1.993-.221 5.09-1.125 6.856-1.713 1.72-.573 3.851-.102 5.523-.382 1.383-.23.417-2.786.381-4.188-.015-.598.007-1.544-.124-2.577-.202-1.594-.667-3.357-1.4-4.09-.544.273-1.997-.009-2.476 0-2.856.053-5.715.069-8.57.19-4.514.193-8.922.953-13.522.953-2.23 0-5.084-.025-7.236.191-.179.017-.369.201-.381.381-.118 1.709-.22 3.441 0 5.142.012.099.328-.518.532-.508.344.018-.258 1.542-.138 1.626.112.077.255-.414.368-.358 1.889.946 8.148-1.923 10.093-.95Zm-.762 28.756.381-.38c.079.078.431-2.439 1.116-4.882.355-1.269.675-3.033 1.36-3.308.922-.369 2.296.281 3.238-.19 3.906-1.954 8.989-1.878 12.76-4.57.36-.258 5.808-.715 5.903-1.525.309-2.62.437-6.254-.19-8.761-.168-.672-2.57.144-3.047.381-3.21 1.606-8.266.496-11.237 2.477-1.03.687-4.114.308-5.141.38-.413.03-.677.624-.953.762-.992.497-4.602.296-5.332.381-.23.027-2.6 1.035-2.666 1.333-.228 1.026-2.48 11.923 0 11.428.518-.104.033-5.54 1.904-6.476.79-.395 1.504 2.031 1.523 2.285.117 1.52 0 3.048 0 4.571 0 1.4.19 5.904.381 6.094Zm11.808 5.143c1.9-1.268.257-3.937 2.666-5.143 1.263-.631 3.212-.137 4.571-.952 1.479-.888 3.103-1.923 4.761-2.476.797-.265 3.177-.33 3.428-1.522.224-1.064.691-3.06-.381-3.239-.182-.03-2.049.509-4.448 1.225-3.951 1.18-9.344 2.841-11.03 3.235 2.437-2.439 6.655-3.096 9.765-4.65.89-.446 4.465.265 4.761-1.143.224-1.064.674-2.974-.381-3.238-1.347-.337-6.192 1.469-7.029 1.887-.454.227-8.083 2.337-8.778 2.684-1.06.531-2.907-.232-3.618.952-.584.973-.174 1.596-.381 3.048-.217 1.513-.614 3.059-.381 4.57.113.738 1.53 1.233 1.714.19.284-1.607-.755-4.241 2.095-3.428.44.126.997 1.127.997 1.127 1.509 2.012-.23 4.973 1.669 6.873Zm9.523-5.143c-4.925-2.462-3.677 7.543-4.762 9.713.735.735.028 1.551.762 2.286.19-.095.571 0 .762.19 1.743-1.744-.712-6.255 2.285-7.618 1.497-.68 7.469-1.461 7.999-3.428 1.89-7.021-6.51-2.752-7.046-1.143Z"/><path fill="#e8e8e8" d="M79.948 288.728c.092-1.235 2.782-.381 3.81-.381 2.476 0 5.054-.19 7.427-.19 1.055 0 1.92-.763 3.047-.763 4.932 0 9.667-.079 14.855-.19.789-.016 2.115-.076 2.666-.571.538-.483.323-1.391-.762-2.476-1.043 1.043-12.227.277-14.284.572-4.777.681-9.65.192-14.473.38-.724.029-1.385.713-2.095.572-.176-.035-.37-.202-.381-.382a45.872 45.872 0 0 1 0-5.713c.048-.766 2.815-.19 3.237-.19 2.798 0 5.7.762 8.38.762 6.079 0 12.139.19 18.283.19.31 0 1.323.209 1.333-.38.015-.921-4.01-2.111-8.273-2.228-6.662-.185-13.591.101-20.294-.059-.306-.007-1.077-.378-1.333-.571-.849-.636-.069-2.453-.807-3.193-.414.414-1.236 1.468-1.288 2.051-.236 2.656.06 5.333 0 7.998-.006.261-.689-.216-.546 2.165.143 2.381.927 6.217 1.117 7.358 1.015.406.264-3.179.381-4.761Zm33.709 18.473c-1.687 1.265-3.902.642-5.903 1.143-.672.168-4.028.82-4.028 2.277-2.211-1.135-4.411 1.261-6.257 1.722-.793.199-3.97-.638-5.172.911-.902 1.163-2.25 7.683-2.275 8.398.163-.083.595-.14.626-.581.096-1.316.554-4.014.554-4.014s.494-1.806 1.265-2.676c.459-.517.872-.447 1.449-.199.269.115.796.964.977 2.196.357 2.438-1.03 6.642.973 6.85-.892-.815-.743-7.204.651-8.599.53-.53 2.442.11 3.238-.572 1.66-1.423 3.202-.605 5.142-1.332 2.653-.996 7.621-3.785 10.484-3.264.625.113.573 1.674.279 2.651-.111.369-2.875.769-5.16 1.389-2.285.619-2.048 1.164-4.46 1.509-.095.013-3.597 2.22-4.19 2.475-1.447.62-4.197.797-4.92 2.058 0 0 .874-.739 1.853-.368 1.133.43 1.443 2.64 1.544 3.373.164 1.19.028 1.068.17 2.673.079.897.436 1.918.952 1.954-.663-2.489.036-7.664.687-8.22 2.831-2.421 8.291-2.684 10.188-3.374.55-.2 1.3.033 1.714-.381.745.372 1.61-.906 2.249-1.305.264-.166.726.272.751.323.34.692.006 2.248-.524 2.887-.606.73-3.353 1.621-3.809 1.712-2.668.534-3.667 1.293-6.455 1.721-.281.044-1.726.498-2.504 1.206-1.057.962-1.192 2.393-1.165 3.232.275.11.381-3.335 2.048-2.778 1.873.626 2.439 4.847 1.581 9.547 1.237-1.236.416-9.663 4.482-7.631 4.433-2.325 7.15-4.248 7.289-3.933.046.105.576 2.031-.062 1.898.376.839-.121 1.343-.165 1.403-.57.78-1.581.218-3.178-.548 1.426 2.66-4.665 2.814-5.593 4.329-.197.401-.522 1.224-.385.988.106-.183.658-1.348 1.06-1.244 3.135.815 2.963 5.328 3.233 7.214.183 1.283-.176 3.651.766 4.595.448-.224.924-1.623.924-1.623s.351-2.061.41-3.71c.05-1.428 1.885-1.815 3.304-1.326 2.663.954 1.795-1.412 2.947-1.367.621.023.627.28.977.558.122.097.585 1.106.719.862.222-.4-.82-8.096-2.759-5.811-.102-5.005-1.415-4.642-2.154-6.179-.23-.436.067-1.025.013-1.403-.042-.293.167-2.52-.191-3.236-.139-.279-.561-1.028-.894-1.456-.333-.43-.727-.247-.722-.35.008-.166-.662-.76-.689-1.265.127-.367.462-1.417.288-2.66-.128-.916-.714-2.021-.931-2.609-.357-.962-.756-.404-1.242-.04Zm-28.4 8.171c-.413-6.096-.437-11.939 3.261-12.17 6.61-.413 12.901-1.761 19.008-3.288 2.416-.603 4.256.161 6.191-1.776-.534-.534.095-1.731-.138-2.266-.397-.911-7.418 1.928-10.015 2.187-.936.093-.572.667-2.095.952-1.524.286-2.73-.02-4 .191-2.95.492-5.804 1.91-8.76 2.095-1.07.067-4.835.394-5.524 1.407-.14.205-.32.844-.348.909-.06.13.265-.543.497-.734.236-.196.561-.323.994.135 1.005 1.065-1.727 11.522.93 12.358Zm6.88-58.449c-1.247.624-2.456 2.256-3.238 3.428 1.07 1.07 3.522.189 4.952.762.46.183.492.958.952 1.143 1.402.56 3.376.104 4.761.38 1.944.39 4.345 1.327 6.285 1.715.725.145 3.124.349 4.028-.008 0 0-.142-.905-.096-1.695.045-.792-4.576-.786-5.646-.963-.882-.147-1.199-1.39-1.714-1.525-1.167-.304-2.413.051-3.618 0-1.224-.05-1.685-1.149-2.667-1.332-1-.189-2.2.373-3.047-.191-.876-.584-.302-1.064-.952-1.714Zm-7.243 9.138c-.28.317-.534.629-.766.933-1.06 1.39-1.695 2.647-2.513 3.761 1.625 1.008 5.028-.251 7.117.178.673.138.793.964 1.466 1.102 2.048.421 4.811-.324 6.809-.205 2.802.166 6.309.862 9.106 1.027 1.284.077 3.048.206 3.718-.744.213-.301.066-.732.082-1.281.048-1.717-4.13-.105-6.497-.611-2.367-.507-.653-1.176-2.586-1.412-1.933-.238-3.428.363-5.147.465-1.745.103-2.508-1.014-3.922-1.084-1.441-.074-2.636.72-4.353.188-1.717-.533-1.478-3.49-2.514-2.317Zm27.282 35.819c-1.962 1.266-4.538.643-6.866 1.144-.781.167-.184.873-.886 1.143-.919.351-2.318-.114-3.323.38-1.997.981-5.606 2.014-7.753 2.476-.922.197-5.739 1.184-6.067 2.384 0 0 .935-.772 1.33.574.724 2.47.588 10.493 1.03 12.051 1.635-1.404.978-11.33 2.6-12.725.617-.529 2.84.111 3.766-.571 1.93-1.423 3.723-.606 5.98-1.332 3.086-.995 8.168-3.459 11.519-3.047.541.066 1.174-.07 1.216-.82l-.099-2.229s-1.846.186-2.447.572Zm-32.952-6.685c-.014.122.172-.326.357-.473.184-.147.38-.114.38-.114s.402-.005.758.983c.343.954.443 1.975.562 2.85.181 1.327-.607 5.563.552 6.07.022-.123-.175-.258-.229-.813-.075-.777-.482-7.226 1.219-7.62 4.727-1.094 6.692.773 13.842-1.094 4.915-1.282 4.17-.843 5.946-.923 1.974-.09 3.839-1.144 5.714-1.144 1.01 0 4.87.832 4.932-.709.026-.633.165-1.27-.124-1.509-.987-.816-4.278.477-5.589.477-4.796 0-8.623 1.171-13.312 1.171-1.225 0-2.13-.005-3.939.281-1.81.286-3.094.693-4.102.861-.99.166-4.486-.159-6.111.6-.397.185-.82.809-.856 1.106Zm15.56-40.581c1.401.56 3.431-.713 4.817-.435 1.943.388 4.345 1.326 6.285 1.714.724.145 2.985.321 3.889-.035 0 0-.003-.632.042-1.423.046-.792-4.576-1.031-5.645-1.208-.883-.148-1.199-1.39-1.714-1.525-1.168-.304-1.952-1.537-3.592-.303a153.306 153.306 0 0 0-4.082 3.215Z"/></g><path fill="#424141" d="M109.439 144.741c-1.103 23.188-3.858 53.617-3.255 87.785.513 28.995 4.734 63.866 10.036 90.147 8.436 41.822 33.853 69.198 37.866 72.864 15.752 14.395 36.285-18.175 36.285-18.175l9.513-11.112s3.975 4.431 5.776 6.699c13.923 17.531 24.972 32.584 37.243 24.576 20.969-13.683 35.605-54.954 41.159-76.997 14.373-57.03 6.504-173.592 6.504-173.592l-11.052.507c.558.949.504 1.533.287 2.684-3.173 16.817-6.901 42.071-12.828 65.683-1.815 7.23-10.516 16.288-18.996 20.275-1.428-9.516-13.874-17.725-17.462-18.544-9.005-2.056-22.45-5.032-23.674-5.164-1.484-.161-5.275 1.582-6.841 2.45 1.58 1.855 3.112 3.129 4.092 5.832.772 2.127 1.678 4.073 3.953 6.743 1.893 2.221 12.474 2.386 17.635 7.792l4.56 8.507c-4.229 1.719-17.885 8.087-30.356 7.823-16.32-.345-31.649-7.692-31.649-7.692s2.347-5.967 4.358-8.46c3.411-4.23 9.076-4.975 13.775-6.847 4.549-1.813 6.612-5.27 7.389-8.243.174-.667 3.636-4.066 4.609-5.542-1.082-.535-3.445-2.434-6.749-2.36-2.333.052-19.682 3.286-23.825 5.088-13.182 5.734-16.651 18.588-16.651 18.588s-3.455-1.932-5.635-3.642c-4.549-3.569-9.024-6.942-11.789-13.979-3.864-9.832-5.347-24.471-7.494-36.079-2.646-14.307-5.363-27.622-6.708-35.226l-10.076-2.389Z" filter="url(#q)"/><g fill="#424141"><path d="m120.617 144.434-11.344 1.152c-4.322 50.466-7.143 108.177 3.21 160.577 3.652 18.488 7.526 36.094 15.516 52.793 4.303 8.992 8.714 18.135 14.999 25.873 5.705 7.024 14.111 15.072 20.437 15.037 3.964-.023 7.97-1.632 12.424-5.257 8.093-6.589 15.263-18.344 23.948-27.622 8.523 9.855 13.442 16.858 22.219 26.379 1.895 2.056 6.624 6.016 12.308 6.358 1.777.106 5.045.142 8.073-1.687 10.229-6.177 21.573-23.922 24.749-30 4.97-9.511 9.732-19.276 12.662-29.6 10.775-37.951 14.752-84.267 14.752-120.733 0-5.981-.005-21.206-.859-35.033-1.185-19.204-3.33-37.192-3.33-37.192-3.639-.348-5.653-.504-11.325-1.081.667.367.584 2.457.63 4.07a8.22 8.22 0 0 1-.072 1.44c-.922 5.768-3.366 16.172-5.249 26.233-1.72 9.19-4.602 25.952-6.792 34.907-1.913 7.828-3.425 10.122-7.078 14.929-4.917 6.473-17.442 12.928-24.077 15.071-10.148 4.109-15.204 4.872-36.611 9.224-12.094-2.259-24.991-4.616-36.611-9.224-23.18-7.02-31.681-21.407-32.959-40.075-3.639-17.432-7.422-35.06-10.16-51.029-.312-1.819.36-3.674.54-5.51Z" filter="url(#r)"/><path d="M232.095 250.756s-.104-1.556-.44-3.219c-.251-1.245-1.854-14.061-2.116-14.878-.69-.151-1.533.553-2.344 1.133.222 6.355.943 23.902 1.542 29.956.405 4.103 16.64 15.476 18.48 4.571-8.916-2.921-15.883-5.949-15.122-17.563Z" filter="url(#s)"/><path d="M166.287 250.689c-.62-.714 1.694-18.031 2.556-20.401.69-.151 1.534.553 2.344 1.133-.221 6.355-.942 26.207-1.541 32.261-.406 4.103-16.641 15.476-18.481 4.57 8.916-2.92 15.909-6.581 15.122-17.563Z" filter="url(#t)"/></g><path fill="#56493c" d="M120.684 144.398c-.545.517-.51 1.457-.545 2.625-.014.477-.071 1.031-.072 1.461 0 .685.046 1.178.09 1.437.863 5.028 7.162 34.302 10.081 51.061 2.426 13.925 3.23 23.861 21.008 34.737-.121 13.26 13.525 14.092 18.984 7.7 10.785 3.14 18.035 4.461 29.654 6.809v115.829s-14.766 20.98-24.857 29.542c-6.417 5.445-12.584 4.354-13.253 4.232-16.152-2.944-36.373-40.476-43.695-67.323-2.296-7.423-4.958-20.104-8.117-41.149-2.342-15.598-4.461-43.782-4.64-59.776-.38-5.624-.04-33.443.452-44.416.942-21.003 2.919-31.905 3.619-41.699l11.291-1.07Z" opacity=".997"/><path fill="#655b53" d="M159.462 396.882c-5.066-6.553-12.747-13.669-17.398-20.601 14.406-.764 34.935.312 48.788.325-.95 1.251-22.143 20.023-25.317 22.667-1.606-.07-6.056-2.349-6.073-2.391Z"/><path fill="#59514a" d="M199.599 366.638s-64.837-.598-63.151 2.569c1.564 1.984 7.552 11.687 7.82 12.133 7.45 12.385 15.537 24.918 29.752 15.145 3.279-2.255 11.212-11.828 17.416-19.626l8.163-10.221Z"/><path fill="#605448" d="M126.807 353.483s-5.242-13.904-5.744-17.084c23.341.028 75.433-1.308 78.821-.548v17.487c-5.582-.103-51.861-.007-73.077.145Z"/><path fill="#5e5348" d="M126.807 353.483c21.09-.544 73.077-1.199 73.077-1.199v11.993s-62.135.41-66.013 1.491c-2.313-3.964-4.625-7.929-7.064-12.285Z"/><path fill="#62584f" d="M133.944 365.361c2.849-.982 41.981-1.657 65.94-1.809l.229 3.177-.229.208-8.448 9.922s-34.82-.9-49.322-.523c-2.311-2.81-8.181-10.715-8.17-10.975Z"/><path fill="#50453d" d="M201.036 268.853s-76.835-1.248-82.991-1.275c.177 4.016 2.702 23.753 2.702 23.753l80.484 1.011-.195-23.489Z"/><path fill="#5a4e43" d="M201.036 313.977v21.874s-79.82 1.274-79.881.983c-1.225-4.397-4.891-20.612-4.891-20.612 1.44.004 4.375-.046 8.317-.132 21.931-.481 76.455-2.113 76.455-2.113Z"/><path fill="#41372e" d="M109.345 145.535s-.14 1.215-.204 2.112c-.392 5.466-.836 10.896-1.287 16.307-.702 8.418-1.423 16.79-1.994 25.177-.006.915-2.255 36.768 1.351 78.281.697 8.026 1.613 16.264 2.807 24.501.432 2.98.9 5.96 1.407 8.929 2.814 16.485 6.116 32.382 11.726 46.76 17.955 46.018 36.139 52.005 38.623 52.229-8.28-8.941-26.879-29.789-37.672-87.201-1.27-6.756-2.404-13.876-3.403-21.233a572.133 572.133 0 0 1-2.702-23.753c-4.012-42.93-3.947-89.17-.204-117.224.22-1.652.556-5.801.556-5.801l-9.004.916Z"/><path fill="#544a41" d="M201.036 292.342s-74.133-.984-80.289-1.011c.573 3.964 2.821 21.4 4.126 24.686 3.292.804 76.163-1.801 76.163-1.801v-21.874Z"/><path fill="#4d4239" d="M199.884 250.228c-1-.462-14.945-2.175-29.654-6.809-15.572-4.905-32.32-13.084-36.461-26.514-11.564-3.214-16.314 9.828-18.26 9.819-.346 5.505 2.342 39.644 2.55 40.867.465.06 82.977 2.029 82.977 2.029l-1.152-19.392Z"/><path fill="#56493c" d="M279.083 144.398c.545.517.51 1.457.545 2.625.014.477.071 1.031.072 1.461 0 .685-.046 1.178-.09 1.437-.863 5.028-7.162 34.302-10.081 51.061-2.426 13.925-3.23 23.861-21.008 34.737.121 13.26-13.525 14.092-18.984 7.7-10.785 3.14-18.034 4.461-29.653 6.809v115.829s14.765 20.98 24.856 29.542c6.417 5.445 12.584 4.354 13.253 4.232 16.152-2.944 36.373-40.476 43.695-67.323 2.296-7.423 4.958-20.104 8.117-41.149 2.342-15.598 4.461-43.782 4.64-59.776.38-5.624.04-33.443-.452-44.416-.942-21.003-2.919-31.905-3.619-41.699l-11.291-1.07Z" opacity=".997"/><path fill="#655b53" d="M240.306 396.882c5.065-6.553 12.746-13.669 17.397-20.601-14.406-.764-34.935.312-48.788.325.95 1.251 22.143 20.023 25.317 22.667 1.606-.07 6.056-2.349 6.074-2.391Z"/><path fill="#59514a" d="M199.884 366.655s64.837-.598 63.151 2.569c-1.565 1.984-7.552 11.686-7.821 12.133-7.45 12.385-15.536 24.918-29.751 15.144-3.279-2.254-11.213-11.827-17.416-19.625l-8.163-10.221Z"/><path fill="#605448" d="M272.96 353.483s5.242-13.904 5.744-17.084c-23.341.028-75.432-1.308-78.82-.548v17.487c5.582-.103 51.86-.007 73.076.145Z"/><path fill="#5e5348" d="M272.96 353.483c-21.09-.544-73.076-1.199-73.076-1.199v11.993s62.134.41 66.012 1.491c2.313-3.964 4.625-7.929 7.064-12.285Z"/><path fill="#62584f" d="M265.823 365.361c-2.849-.982-41.98-1.657-65.939-1.809v3.385l8.142 10.014s35.126-.992 49.627-.615c2.311-2.81 8.181-10.715 8.17-10.975Z"/><path fill="#50453d" d="M199.884 268.853s75.682-1.248 81.838-1.275c-.177 4.016-2.702 23.753-2.702 23.753l-79.136 1.011v-23.489Z"/><path fill="#5a4e43" d="M200.042 313.977v21.874s78.509 1.274 78.57.983c1.225-4.397 4.891-20.612 4.891-20.612-1.439.004-4.375-.046-8.317-.132-21.931-.481-75.144-2.113-75.144-2.113Z"/><path fill="#41372e" d="M290.422 145.535s.14 1.215.204 2.112c.392 5.466.836 10.896 1.287 16.307.702 8.418 1.423 16.79 1.995 25.177.005.915 2.254 36.768-1.352 78.281-.697 8.026-1.613 16.264-2.807 24.501-.431 2.98-.899 5.96-1.407 8.929-2.814 16.485-6.116 32.382-11.726 46.76-17.955 46.018-36.139 52.005-38.623 52.229 8.28-8.941 26.879-29.789 37.672-87.201 1.27-6.756 2.404-13.876 3.403-21.233a572.133 572.133 0 0 0 2.702-23.753c4.012-42.93 3.947-89.17.204-117.224-.22-1.652-.556-5.801-.556-5.801l9.004.916Z"/><path fill="#544a41" d="M199.884 292.342s72.98-.984 79.136-1.011c-.572 3.964-2.821 21.4-4.126 24.686-3.292.804-75.01-1.801-75.01-1.801v-21.874Z"/><path fill="#4d4239" d="M199.884 250.228c.999-.462 14.944-2.175 29.653-6.809 15.572-4.905 32.32-13.084 36.461-26.514 11.564-3.214 16.314 9.828 18.26 9.819.346 5.505-2.342 39.644-2.55 40.867-.465.06-81.666 2.029-81.666 2.029l-.158-19.392Z"/><path fill="#424141" d="M167.477 250.768c.369-2.264 1.368-5.488 1.821-7.694l2.763.893c-.222 6.355-1.558 13.661-2.157 19.715-.406 4.103-16.641 15.476-18.48 4.57 8.915-2.92 17.668-6.675 16.053-17.484Z" filter="url(#u)"/><path fill="#453a32" d="M167.477 250.768c.369-2.264 1.368-5.488 1.821-7.694l2.763.893c-.222 6.355-1.558 13.661-2.157 19.715-.406 4.103-16.641 15.476-18.48 4.57 8.915-2.92 17.668-6.675 16.053-17.484Z"/><path fill="#424141" d="M191.46 212.101c-7.578 1.308-15.803 2.88-22.975 4.753-8.038 3.565-16.239 10.418-18.078 18.69-.11.273-1.295 8.479-1.153 16.602.136 7.768 1.569 15.441 2.161 16.097.436.484 6.499-1.954 10.011-4.177 3.511-2.223 5.022-5.024 5.726-7.131.655-1.957.854-3.892.54-6.23-.196-1.466 1.441-6.518 1.441-6.518l4.069-8.967c3.221-1.558 5.991-3.941 8.967-4.213 6.803-.622 10.499-4.134 12.388-10.264.769-1.832 4.294-5.41 4.178-6.05-1.734-1.392-5.831-2.842-7.275-2.592Z" filter="url(#v)"/><path fill="#615243" d="M150.401 235.536c-.11.273-1.297 8.5-1.155 16.622.136 7.768 1.586 15.438 2.178 16.094.436.484 6.503-1.954 10.015-4.177 3.511-2.223 5.025-5.025 5.729-7.132.655-1.957.843-3.916.529-6.254-.196-1.466 1.447-6.514 1.447-6.514l4.044-8.967s-22.06 1.048-22.013.378c-.774-.05-.288.053-.774-.05Z" opacity=".996"/><path fill="#5e5044" d="M173.188 235.208c-1.152 2.656-2.714 5.038-4.087 8.909-1.372 3.87-1.028 4.814-1.404 6.572-1.142.005-17.264 3.326-17.296-15.153 0 0 16.372-.776 22.787-.328Z" opacity=".996"/><path fill="#69594b" d="M173.188 235.208c-.965-.043-22.787.328-22.787.328 1.84-8.272 11.513-16.573 18.076-18.674 2.034-.651 6.898-.773 11.54.048 6.044 1.069 12.062 3.321 14.549 3.827-1.889 6.13-5.592 9.659-12.396 10.281-2.976.272-5.761 2.631-8.982 4.19Z" opacity=".996"/><path fill="#736152" d="M198.751 214.68c.117.64-3.416 4.224-4.185 6.057-2.078-.213-11.202-2.905-15.912-3.64-6.015-.938-7.775.045-10.177-.235 7.172-1.873 15.421-3.441 22.999-4.749 1.444-.25 5.542 1.175 7.275 2.567Z" opacity=".996"/><path fill="#424141" d="M232.07 250.68s-.105-1.556-.44-3.219c-.252-1.245-1.007-3.205-1.269-4.022l-2.551.667c.222 6.356 1.454 13.512 2.053 19.566.406 4.103 16.641 15.476 18.48 4.571-8.915-2.921-16.291-6.848-16.273-17.563Z" filter="url(#w)"/><path fill="#453a32" d="M232.07 250.68s-.105-1.556-.44-3.219c-.252-1.245-1.007-3.205-1.269-4.022l-2.551.667c.222 6.356 1.454 13.512 2.053 19.566.406 4.103 16.641 15.476 18.48 4.571-8.915-2.921-17.267-6.873-16.273-17.563Z"/><path fill="#424141" d="M208.271 212.082c-1.444-.249-5.541 1.165-7.275 2.557-.116.64 3.41 4.254 4.178 6.086 1.889 6.13 5.621 9.642 12.424 10.264 2.976.272 5.746 2.618 8.967 4.177 1.152 2.656 3.217 6.316 4.069 8.931 1.082 3.318 1.029 4.796 1.405 6.554-.314 2.338-.114 4.309.54 6.266.704 2.107 2.215 4.908 5.726 7.13 3.512 2.224 9.575 4.661 10.011 4.178.592-.656 2.061-8.33 2.197-16.097.142-8.123-1.043-16.329-1.153-16.602-1.839-8.272-10.04-15.125-18.078-18.69-7.171-1.873-15.433-3.446-23.011-4.754Z" filter="url(#x)"/><path fill="#615243" d="M249.366 235.527c.11.273 1.297 8.499 1.155 16.622-.136 7.767-1.586 15.438-2.178 16.094-.436.483-6.503-1.954-10.015-4.178-3.511-2.223-5.025-5.025-5.729-7.132-.655-1.957-.843-3.915-.529-6.253.196-1.467-.032-2.703-1.404-6.573-1.373-3.87-4.087-8.909-4.087-8.909s22.301.431 22.787.329Z"/><path fill="#5e5044" d="M226.579 235.198c1.152 2.657 3.234 6.294 4.087 8.909 1.081 3.318 1.028 4.814 1.404 6.573 1.143.005 17.264 3.325 17.296-15.153 0 0-16.372-.777-22.787-.329Z"/><path fill="#69594b" d="M226.579 235.198c.965-.043 22.787.329 22.787.329-1.84-8.273-10.038-15.11-18.076-18.675-4.682.453-8.998.713-12.885 1.257-4.437.621-8.806 1.724-13.204 2.618 1.889 6.13 5.592 9.659 12.396 10.281 2.976.272 5.761 2.631 8.982 4.19Z"/><path fill="#736152" d="M201.013 214.671c-.117.64 3.419 4.224 4.188 6.056 2.461-.252 7.405-1.568 13.006-2.447 5.17-.811 11.028-1.188 13.083-1.428-7.172-1.873-15.421-3.441-22.999-4.749-1.444-.249-5.545 1.175-7.278 2.568Z"/><path fill="#fcfafb" d="m223.229 155.09 11.48-.005c36.799.005 15.272 28.992-4.574 29.076-19.846.083-39.569-29.067-6.906-29.071Z" filter="url(#y)"/><path fill="#99bbd4" d="M216.47 165.067c0-4.468 2.396-7.357 6.043-9.696h15.898c3.412 2.365 5.646 5.401 5.646 9.696 0 7.173-6.174 12.989-13.792 12.989-7.618 0-13.795-5.816-13.795-12.989Z" filter="url(#z)"/><path fill="#fcfafb" d="M223.867 155.375c-9.648 6.007-6.275 22.004 6.526 21.678 12.801-.325 16.911-15.784 4.954-21.682 36.798.004 14.892 28.99-4.954 29.074-19.846.084-39.188-29.066-6.526-29.07Z" filter="url(#A)"/><path fill="#fcfafb" d="M223.867 155.371c-9.648 6.007-6.275 22.008 6.526 21.682 12.801-.325 16.911-15.784 4.954-21.682 37.21-.286 14.892 28.99-4.954 29.074-19.846.084-37.589-29.074-6.526-29.074Z"/><path fill="#fcfafb" d="M223.867 155.371c-9.648 6.007-6.275 22.008 6.526 21.682 12.801-.325 16.911-15.784 4.954-21.682 37.21-.286 14.892 28.99-4.954 29.074-19.846.084-40.784-29.074-6.526-29.074Z"/><path fill="#99bbd4" d="M244.057 165.17c0-4.503-2.4-7.44-6.046-9.799h-15.915c-3.412 2.384-5.626 5.47-5.626 9.799 0 7.234 6.176 13.099 13.794 13.099s13.793-5.865 13.793-13.099Z" filter="url(#B)"/><path fill="#99bbd4" d="M217.054 165.067c0-4.468 2.294-7.357 5.786-9.696h15.227c3.267 2.365 5.408 5.401 5.408 9.696 0 7.173-5.914 12.989-13.21 12.989-7.296 0-13.211-5.816-13.211-12.989Z"/><path d="M222.901 165.772c0-4.076 3.296-7.382 7.363-7.382 4.066 0 7.362 3.306 7.362 7.382s-3.296 7.382-7.362 7.382c-4.067 0-7.363-3.306-7.363-7.382Z" filter="url(#C)"/><path fill="#fff" d="M227.083 159.688c0-2.052 1.425-3.716 3.182-3.716 1.756 0 3.181 1.664 3.181 3.716 0 2.054-1.425 3.719-3.181 3.719-1.757 0-3.182-1.665-3.182-3.719Z" filter="url(#D)"/><path fill="#dda38c" d="M255.272 166.587c2.254-6.332-8.339-16.631-24.976-16.101-16.638.53-27.351 8.15-24.509 16.26 11.227-11.63 37.688-15.16 49.485-.159Z" filter="url(#E)"/><path fill="#fcfafb" d="m176.115 155.089-11.479-.004c-36.799.004-15.273 28.996 4.573 29.08 19.846.083 39.569-29.073 6.906-29.076Z" filter="url(#F)"/><path fill="#99bbd4" d="M182.873 165.067c0-4.468-2.396-7.357-6.042-9.696h-15.898c-3.412 2.365-5.646 5.401-5.646 9.696 0 7.174 6.174 12.992 13.792 12.992 7.618 0 13.794-5.818 13.794-12.992Z" filter="url(#G)"/><path fill="#fcfafb" d="M175.477 155.375c9.648 6.007 6.275 22.006-6.526 21.68-12.801-.325-16.911-15.786-4.953-21.684-36.799.004-14.893 28.993 4.953 29.077 19.845.084 39.187-29.07 6.526-29.073Z" filter="url(#H)"/><path fill="#fcfafb" d="M175.477 155.371c9.648 6.007 6.275 22.01-6.526 21.684-12.801-.325-16.911-15.786-4.953-21.684-37.21-.286-14.893 28.993 4.953 29.077 19.845.084 37.589-29.077 6.526-29.077Z"/><path fill="#fcfafb" d="M175.477 155.371c9.648 6.007 6.275 22.01-6.526 21.684-12.801-.325-16.911-15.786-4.953-21.684-37.21-.286-14.893 28.993 4.953 29.077 19.845.084 40.784-29.077 6.526-29.077Z"/><path fill="#99bbd4" d="M155.287 165.172c0-4.505 2.4-7.442 6.046-9.801h15.915c3.412 2.384 5.625 5.47 5.625 9.801 0 7.234-6.175 13.1-13.792 13.1-7.618 0-13.794-5.866-13.794-13.1Z" filter="url(#I)"/><path fill="#99bbd4" d="M182.291 165.067c0-4.468-2.295-7.357-5.787-9.696h-15.227c-3.267 2.365-5.408 5.401-5.408 9.696 0 7.174 5.914 12.992 13.21 12.992 7.296 0 13.212-5.818 13.212-12.992Z"/><path d="M176.443 165.772c0-4.076-3.297-7.382-7.363-7.382-4.066 0-7.363 3.306-7.363 7.382 0 4.077 3.297 7.383 7.363 7.383 4.066 0 7.363-3.306 7.363-7.383Z" filter="url(#J)"/><path fill="#fff" d="M172.261 159.688c0-2.053-1.425-3.717-3.182-3.717-1.756 0-3.181 1.664-3.181 3.717 0 2.054 1.425 3.719 3.181 3.719 1.757 0 3.182-1.665 3.182-3.719Z" filter="url(#K)"/><path fill="#dda38c" d="M144.072 166.588c-2.043-6.08 8.339-16.634 24.976-16.104 16.638.53 26.173 8.122 24.469 16.233-11.226-11.632-37.648-15.133-49.445-.129Z" filter="url(#L)"/><g fill="#725d4e" filter="url(#M)"><path d="M229.65 140.518c-5.099-.015-9.705.175-14.224-.362-1.651-.196-4.656-1.507-4.637-3.253.02-1.746 3.003-3.489 4.716-3.73 4.119-.58 8.366-.248 13.089-.372 4.72.009 8.952-.2 13.082.355 1.662.223 4.658 1.509 4.637 3.255-.022 1.747-2.991 3.45-4.721 3.732-3.722.607-7.6.253-11.942.375Z" filter="url(#N)"/><path d="M170.117 132.79c5.099.016 9.705-.174 14.224.362 1.651.196 4.656 1.508 4.637 3.253-.02 1.746-3.003 3.489-4.716 3.73-4.119.58-8.365.248-13.089.373-4.72-.01-8.952.199-13.082-.355-1.662-.223-4.658-1.509-4.637-3.256.022-1.747 2.991-3.449 4.721-3.731 3.722-.607 7.6-.254 11.942-.376Z" filter="url(#O)"/></g><path fill="url(#P)" d="M103.84 55.053c-16.915.235-25.298 10.14-27.693 20.059-.5 2.066-.756 4.058-.756 6.05 0 2.565.418 5 1.116 7.238 3.864 12.385 16.82 19.696 21.355 21.859-.378 1.578-3.49 9.22-3.997 17.25-.18 2.847-.035 5.739.684 8.427 1.617 6.048 6.102 11.041 16.205 12.1 19.224 2.014 29.034-4.998 32.843-12.1.237-.441.457-.893.648-1.333 1.064-2.448 1.474-4.912 1.513-7.238.102-6.147-2.413-11.164-2.413-11.164h113.077s-2.515 5.008-2.413 11.155c.039 2.326.449 4.799 1.513 7.247.191.44.411 1.036.648 1.477 3.81 7.102 13.619 13.97 32.843 11.956 10.104-1.059 14.588-5.908 16.205-11.956.719-2.688.864-5.876.684-8.724-.507-8.03-3.619-15.519-3.997-17.097 4.534-2.163 17.491-9.474 21.355-21.859a24.294 24.294 0 0 0 1.116-7.238c0-1.993-.257-3.984-.756-6.05-2.395-9.92-10.778-19.824-27.693-20.059H103.84Z" filter="url(#Q)"/><path fill="#383838" d="M323.62 75.112s.676 3.419.756 5.003c.206 4.075-1.116 8.28-1.116 8.28L202.408 92.46 76.507 88.394s-1.026-3.07-1.116-6.39c-.09-3.32.756-6.892.756-6.892l126.261-5.062 121.212 5.062Z" filter="url(#R)"/><use xlink:href="#S" filter="url(#c)"/><path fill="#1f1b1c" d="M299.168 60.518s.604-1.13-1.746-5.37-6.354-10.597-7.181-11.593l-90.357.124-89.413.118c-1.71 2.28-5.079 7.293-7.345 11.322-1.617 2.877-2.527 5.4-2.527 5.4l99.285 1.57 99.284-1.57Z"/><path fill="#3c3c3c" d="M76.147 75.112c2.225-10.097 11.781-20.059 27.887-20.02 0 0 176.603-.003 191.359-.074 13.29.224 22.972 5.823 27.236 16.699.311.793.716 2.54.991 3.395-3.781.004-247.473 0-247.473 0Z" filter="url(#T)"/><path fill="#252122" d="M122.386 30.634c-6.241 5.922-11.616 12.769-11.915 13.163-2.295 3.023 42.736 4.53 90.074 4.08 44.232-.422 90.831-2.556 89.696-4.322-1.936-3.013-8.295-9.737-11.42-12.664C275.408 27.693 236.367.022 199.884.005c-38.489-.018-74.555 27.836-77.498 30.63Z"/><path fill="#2c2829" d="m278.821 30.891-19.014-13.16H139.96c-5.746 3.675-13.434 9.135-17.574 12.903l156.435.257Z"/><path fill="#2c2829" d="M139.96 17.73c-5.341 3.038-11.84 7.464-17.574 12.904-.881.836 3.318-.008 8.26.118 12.696.325 39.855.137 69.238 0 27.88-.13 56.242-.006 70.281 0 6.208.003 8.656.139 8.656.139-5.054-4.641-11.795-9.11-19.014-13.16-.21-.118-.428-.235-.655-.35 0 0-33.058.08-59.268.35-21.579.22-59.835-.051-59.924 0Z"/><path fill="#332e2f" d="M259.807 17.73C241.733 7.265 220.265-.218 199.884.005c-18.023.197-44.891 7.902-59.924 17.725h119.847Z"/><path fill="#70635d" d="M198.707 115.189s37.445-.381 58.368-.12l-.666 9.002c-.237.02-57.702-.045-57.702-.045v-8.837Z"/><path fill="#524d49" d="M254.009 127.356c.039 2.326.449 4.799 1.513 7.247.191.44.411 1.036.648 1.477h49.048c.719-2.688.864-5.876.684-8.724h-51.893Z" filter="url(#U)"/><path fill="#5b544d" d="M256.17 136.08c3.81 7.102 13.619 13.97 32.843 11.956 10.104-1.059 14.588-5.908 16.205-11.956H256.17Z" filter="url(#V)"/><path fill="#4d4844" d="M256.422 116.201s-2.515 5.008-2.413 11.155h51.893c-.277-4.4-1.234-8.439-2.042-11.191l-47.438.036Z" filter="url(#W)"/><path fill="#70635d" d="M199.884 115.111v8.915h-62.863l-2.431-7.855c19.834.064 65.294-1.06 65.294-1.06Z"/><g filter="url(#X)"><path fill="#524d49" d="M104.092 107.99c-1.273-.011-2.125.109-2.125.109-3.592-.135-4.717 4.393-4.717 4.393s-.685 1.105-1.44 3.709h47.643l56.431.54h1.152l55.386-.54h47.428c-.44-1.536-1.225-3.709-1.225-3.709s-1.125-4.528-4.717-4.393c0 0-.852-.12-2.125-.109-10.001.089-92.442.634-94.639.649h-1.26c-2.202-.015-85.789-.56-95.792-.649Z" filter="url(#Y)"/></g><path fill="#524d49" d="M93.865 127.509c-.18 2.847 0 6.05.684 8.427h49.048c.237-.441.457-.893.648-1.333 1.064-2.448 1.339-4.874 1.513-7.238l-50.702-.262-1.191.406Z" filter="url(#Z)"/><path fill="#4d4844" d="M143.345 116.201s2.515 5.008 2.413 11.155H93.865c.34-5.389 1.284-8.519 2.038-11.155h47.442Z" filter="url(#aa)"/><path fill="#5b544d" d="M94.549 135.936c1.617 6.048 6.102 11.041 16.205 12.1 19.224 2.014 29.034-4.998 32.843-12.1H94.549Z" filter="url(#ab)"/><use xlink:href="#S" filter="url(#ac)"/></svg>
