<svg xmlns="http://www.w3.org/2000/svg" xml:space="preserve" stroke-linecap="round" stroke-linejoin="round" stroke-miterlimit="10" clip-rule="evenodd" width="100%" height="100%" viewBox="-5.539 -9.62 110.368 112.346"><defs><filter id="c" width="30.25" height="23.643" x="35.046" y="75.044" color-interpolation-filters="sRGB" filterUnits="userSpaceOnUse"><feDropShadow dx="0" dy="1.084" flood-color="#000" flood-opacity=".55" in="SourceGraphic" result="Shadow" stdDeviation="1.057"/></filter><filter id="e" width="30.229" height="25.643" x="35.057" y="77.084" color-interpolation-filters="sRGB" filterUnits="userSpaceOnUse"><feDropShadow dx="0" dy="1.084" flood-color="#000" flood-opacity=".55" in="SourceGraphic" result="Shadow" stdDeviation="1.057"/></filter><filter id="f" width="42.853" height="53.074" x="28.868" y="29.782" color-interpolation-filters="sRGB" filterUnits="userSpaceOnUse"><feDropShadow dx=".064" dy="-.959" flood-color="#fff" flood-opacity=".8" in="SourceGraphic" result="Shadow" stdDeviation="2.884"/></filter><filter id="g" width="108.453" height="97.82" x="-4.226" y="-8.307" color-interpolation-filters="sRGB" filterUnits="userSpaceOnUse"><feDropShadow dx="0" dy="0" flood-color="#ffd9a7" flood-opacity=".6" in="SourceGraphic" result="Shadow" stdDeviation="3.365"/><feGaussianBlur in="Shadow" result="Blur" stdDeviation="3.675"/></filter><filter id="h" width="110.368" height="100.445" x="-5.539" y="-9.62" color-interpolation-filters="sRGB" filterUnits="userSpaceOnUse"><feGaussianBlur in="SourceGraphic" result="Blur" stdDeviation=".525"/></filter><filter id="i" width="64.434" height="95.491" x="39.082" y="-6.812" color-interpolation-filters="sRGB" filterUnits="userSpaceOnUse"><feDropShadow dx="0" dy="0" flood-color="#fff" flood-opacity=".8" in="SourceGraphic" result="Shadow" stdDeviation="3.081"/><feGaussianBlur in="Shadow" result="Blur" stdDeviation="3.675"/></filter><filter id="j" width="39.281" height="39.281" x="30.448" y="-8.307" color-interpolation-filters="sRGB" filterUnits="userSpaceOnUse"><feDropShadow dx="0" dy="0" flood-color="#ffd9a7" flood-opacity=".6" in="SourceGraphic" result="Shadow" stdDeviation="3.365"/><feGaussianBlur in="Shadow" result="Blur" stdDeviation="3.675"/></filter><filter id="k" width="63.459" height="62.835" x="-1.645" y="-7.326" color-interpolation-filters="sRGB" filterUnits="userSpaceOnUse"><feDropShadow dx="0" dy="0" flood-color="#ffd9a7" flood-opacity=".6" in="SourceGraphic" result="Shadow" stdDeviation="3.365"/><feGaussianBlur in="Shadow" result="Blur" stdDeviation="3.675"/></filter><filter id="l" width="48.64" height="69.296" x="-4.226" y="20.217" color-interpolation-filters="sRGB" filterUnits="userSpaceOnUse"><feDropShadow dx="0" dy="0" flood-color="#ffd9a7" flood-opacity=".6" in="SourceGraphic" result="Shadow" stdDeviation="3.365"/><feGaussianBlur in="Shadow" result="Blur" stdDeviation="3.675"/></filter><radialGradient id="a" cx="50.261" cy="44.877" r="27.501" gradientTransform="translate(-2.504 1.663) scale(1.05009)" gradientUnits="userSpaceOnUse"><stop offset="0" stop-color="#ffec04"/><stop offset=".445" stop-color="#fc0"/><stop offset=".562" stop-color="#ffb502"/><stop offset="1" stop-color="#f4f4f2"/></radialGradient><radialGradient id="b" cx="55.399" cy="76.832" r="21.649" gradientTransform="matrix(1.07098 0 0 1.05009 -3.469 1.663)" gradientUnits="userSpaceOnUse"><stop offset="0" stop-color="#9fa8da"/><stop offset=".491" stop-color="#9fa8da"/><stop offset="1"/></radialGradient><radialGradient id="d" cx="52.593" cy="75.684" r="18.794" gradientTransform="matrix(1.07008 0 0 1.04801 -3.424 1.815)" gradientUnits="userSpaceOnUse"><stop offset=".009" stop-color="#021df3"/><stop offset="1" stop-color="#050025"/></radialGradient></defs><path fill="url(#a)" d="M78.645 46.008c0-15.705-12.85-28.556-28.556-28.556-15.706 0-28.556 12.85-28.556 28.556 0 10.199 5.303 18.97 13.258 24.069 1.836 2.243 3.06 5.099 3.06 7.954v.612h24.476v-.204c0-3.06 1.02-5.915 2.856-8.158 8.158-5.1 13.462-14.074 13.462-24.273Z"/><path fill="url(#b)" d="M54.332 94.961H46.01c-4.576 0-8.32-3.671-8.32-8.159V76.604h24.963v10.198c0 4.487-3.745 8.159-8.321 8.159" filter="url(#c)"/><path fill="url(#d)" d="M55.991 94.725C55.367 97.168 52.873 99 50.171 99c-2.702 0-5.196-1.832-5.82-4.275.416.204 1.04.204 1.663.204h8.314c.624 0 1.247 0 1.663-.204Zm6.651-7.939L38.33 89.907c-.374 1.213 1.645 3.574 3.497 3.956l19.57-2.802c.83-1.221 1.246-2.646 1.246-4.275M37.7 82.104v4.071l24.942-3.46v-4.072L37.7 82.104Z" filter="url(#e)"/><path fill="#fffffd" d="m63.55 42.337-6.118-4.08c-.612-.408-1.632-.408-2.244 0l-5.1 3.264-4.894-3.264c-.612-.408-1.632-.408-2.244 0l-6.12 4.08c-.407.408-.815.816-.815 1.427 0 .612 0 1.224.408 1.632l7.75 9.587v21.62h4.08V54.168c0-.408-.204-.816-.408-1.224l-6.73-8.362 3.059-2.04 4.895 3.263c.612.408 1.632.408 2.244 0l4.895-3.263 3.06 2.04-6.732 8.362c-.203.408-.407.816-.407 1.224v22.437h4.079V54.983l7.75-9.587c.409-.408.613-1.02.409-1.632-.204-.611-.408-1.223-.816-1.427Z" filter="url(#f)"/><path fill="#fffe9b" d="M23.369 71.3c-.816-.815-.816-2.04 0-2.855.816-.816 2.04-.816 2.855 0 .816.816.816 2.04-.204 2.856-.407.407-.816.611-1.427.611-.204 0-.816-.204-1.224-.612Zm50.584 0c-.816-.815-.816-2.04 0-2.855a2.184 2.184 0 0 1 2.856-.204c.816.816.816 2.04 0 2.856-.408.407-1.02.611-1.428.611-.612.204-1.02 0-1.428-.407ZM18.27 64.367c-.612-1.02-.204-2.244.816-2.856 1.02-.612 2.243-.204 2.855.816.612 1.02.204 2.244-.816 2.855-.408.204-.612.204-1.02.204-.816 0-1.428-.408-1.835-1.02Zm60.783.815c-1.02-.611-1.224-1.835-.816-2.855.612-1.02 1.836-1.428 2.855-.816 1.02.612 1.224 1.836.816 2.855-.408.612-1.02 1.02-1.835 1.02-.408 0-.612-.204-1.02-.204Zm-64.047-8.566c-.408-1.02.204-2.244 1.428-2.448 1.02-.408 2.243.204 2.447 1.428.204 1.02-.204 2.243-1.427 2.447h-.612c-.816 0-1.632-.611-1.836-1.427Zm67.718 1.223c-1.02-.407-1.632-1.427-1.428-2.447.408-1.02 1.428-1.632 2.652-1.428 1.02.204 1.632 1.428 1.428 2.448-.204.816-1.02 1.427-2.04 1.427-.204.204-.408.204-.612 0Zm-69.35-9.586s0-.204 0 0c0-.204 0-.204 0 0 0-1.224.816-2.244 2.04-2.244 1.224 0 2.04.816 2.244 1.836 0 1.02-.816 2.04-1.836 2.244h-.204c-1.224 0-2.04-.816-2.244-1.836Zm71.186 1.836c-1.224 0-2.04-1.02-2.04-2.244 0-1.02 1.02-2.04 2.244-1.836 1.02 0 2.04 1.02 1.836 2.244 0 1.02-.816 1.836-2.04 1.836Zm-2.244-9.79c-.204-1.02.612-2.245 1.632-2.449 1.02-.203 2.244.612 2.448 1.632.204 1.224-.612 2.244-1.632 2.448h-.408c-1.02 0-2.04-.612-2.04-1.632Zm-66.698 1.63c-1.02-.203-1.836-1.223-1.632-2.447.204-1.02 1.224-1.836 2.244-1.632 1.224.204 1.836 1.224 1.632 2.448-.204 1.02-1.02 1.632-2.04 1.632h-.204Zm64.455-8.77c-.408-1.02 0-2.244 1.02-2.652 1.02-.407 2.243 0 2.65 1.02.409 1.02 0 2.244-1.019 2.652-.204 0-.612.204-.816.204-.816 0-1.428-.612-1.835-1.224Zm-62.62.816c-1.02-.408-1.427-1.632-1.02-2.652.409-1.02 1.633-1.427 2.652-1.02 1.02.409 1.428 1.632 1.02 2.652-.408.816-1.02 1.224-1.835 1.224-.204 0-.612 0-.816-.204Zm58.744-7.547c-.612-.816-.408-2.04.408-2.855.816-.612 2.244-.409 2.856.408.612.815.407 2.243-.408 2.855-.408.204-.816.408-1.224.408-.612 0-1.224-.204-1.632-.816Zm-55.072.408c-.816-.612-1.02-1.836-.408-2.855.612-.817 2.04-1.02 2.856-.409.816.612 1.02 2.04.408 2.856-.408.612-1.02.816-1.632.816-.408 0-.816 0-1.224-.408Zm49.973-5.711c-.816-.816-1.02-2.04-.204-2.856.816-.816 2.04-1.02 2.855-.204.816.816 1.02 2.04.204 2.856-.408.408-1.02.612-1.631.612-.408 0-.816-.204-1.224-.408Zm-44.874-.408c-.816-.816-.611-2.04.204-2.856.816-.816 2.244-.612 2.856.204.816.816.612 2.04-.204 2.856-.408.408-.816.612-1.224.612-.612 0-1.224-.408-1.632-.816Zm38.55-3.875c-1.02-.408-1.427-1.836-.815-2.652.612-1.02 1.632-1.428 2.651-.816 1.02.612 1.428 1.836.816 2.652-.408.816-1.02 1.223-1.835 1.223-.204-.204-.612-.204-.816-.407Zm-32.023-1.02c-.408-1.02 0-2.244 1.02-2.652 1.02-.612 2.244-.204 2.652.816.612 1.02 0 2.244-.816 2.652-.204.204-.612.204-1.02.204-.816.203-1.428-.204-1.836-1.02Zm24.885-1.632c-1.02-.204-1.836-1.428-1.632-2.448.204-1.02 1.428-1.835 2.448-1.631 1.02.204 1.835 1.427 1.427 2.447-.203 1.02-1.02 1.632-2.04 1.632.205.204 0 0-.203 0Zm-17.542-1.43c-.204-1.02.408-2.243 1.632-2.447 1.02-.204 2.244.408 2.448 1.427.204 1.02-.408 2.244-1.428 2.448h-.408c-1.224 0-2.04-.612-2.244-1.428Zm7.955-1.428c0-1.223.816-2.04 2.04-2.04 1.02 0 2.04.817 2.04 2.04 0 1.02-1.02 2.04-2.04 2.04s-2.04-1.02-2.04-2.04Z" filter="url(#g)"/><g fill="#fffe9b" filter="url(#h)" opacity=".813"><path d="M73.953 71.3c-.816-.815-.816-2.04 0-2.855a2.184 2.184 0 0 1 2.856-.204c.816.816.816 2.04 0 2.856-.408.407-1.02.611-1.428.611-.612.204-1.02 0-1.428-.407Zm5.1-6.119c-1.02-.611-1.224-1.835-.816-2.855.612-1.02 1.836-1.428 2.855-.816 1.02.612 1.224 1.836.816 2.855-.408.612-1.02 1.02-1.835 1.02-.408 0-.612-.204-1.02-.204Zm3.671-7.343c-1.02-.407-1.632-1.427-1.428-2.447.408-1.02 1.428-1.632 2.652-1.428 1.02.204 1.632 1.428 1.428 2.448-.204.816-1.02 1.427-2.04 1.427-.204.204-.408.204-.612 0Zm1.836-7.75c-1.224 0-2.04-1.02-2.04-2.244 0-1.02 1.02-2.04 2.244-1.836 1.02 0 2.04 1.02 1.836 2.244 0 1.02-.816 1.836-2.04 1.836Zm-2.244-9.79c-.204-1.02.612-2.245 1.632-2.449 1.02-.203 2.244.612 2.448 1.632.204 1.224-.612 2.244-1.632 2.448h-.408c-1.02 0-2.04-.612-2.04-1.632Zm-2.243-7.14c-.408-1.02 0-2.244 1.02-2.652 1.02-.407 2.243 0 2.65 1.02.409 1.02 0 2.244-1.019 2.652-.204 0-.612.204-.816.204-.816 0-1.428-.612-1.835-1.224Zm-3.876-6.73c-.612-.817-.408-2.04.408-2.857.816-.611 2.244-.408 2.856.409.612.815.407 2.243-.408 2.855-.408.204-.816.408-1.224.408-.612 0-1.224-.204-1.632-.816Zm-5.1-5.304c-.815-.816-1.019-2.04-.203-2.856.816-.816 2.04-1.02 2.855-.204.816.816 1.02 2.04.204 2.856-.408.408-1.02.612-1.631.612-.408 0-.816-.204-1.224-.408Zm-6.322-4.283c-1.02-.408-1.428-1.836-.816-2.652.612-1.02 1.632-1.428 2.651-.816 1.02.612 1.428 1.836.816 2.652-.408.816-1.02 1.223-1.835 1.223-.204-.204-.612-.204-.816-.407Zm-7.14-2.652c-1.02-.204-1.835-1.428-1.631-2.448.204-1.02 1.428-1.835 2.448-1.631 1.02.204 1.835 1.427 1.427 2.447-.203 1.02-1.02 1.632-2.04 1.632.205.204 0 0-.203 0Z" filter="url(#i)"/><path d="M48.05 11.333c0-1.223.815-2.04 2.039-2.04 1.02 0 2.04.817 2.04 2.04 0 1.02-1.02 2.04-2.04 2.04s-2.04-1.02-2.04-2.04Z" filter="url(#j)"/><path d="M16.23 37.85c1.224.203-1.02-.205 0 0Zm1.224-3.876c-1.02-.408-1.428-1.632-1.02-2.652.408-1.02 1.632-1.427 2.651-1.02 1.02.409 1.428 1.632 1.02 2.652-.408.816-1.02 1.224-1.835 1.224-.204 0-.612 0-.816-.204Zm3.671-7.139c-.816-.612-1.02-1.836-.408-2.855.612-.817 2.04-1.02 2.856-.409.816.612 1.02 2.04.408 2.856-.408.612-1.02.816-1.632.816-.408 0-.816 0-1.224-.408Zm5.1-6.12c-.817-.815-.613-2.039.203-2.855.816-.816 2.244-.612 2.856.204.816.816.612 2.04-.204 2.856-.408.408-.816.612-1.224.612-.612 0-1.224-.408-1.632-.816Zm6.526-4.894c-.408-1.02 0-2.244 1.02-2.652 1.02-.612 2.244-.204 2.652.816.612 1.02 0 2.244-.816 2.652-.204.204-.612.204-1.02.204-.816.203-1.428-.204-1.836-1.02Zm7.343-3.06c-.204-1.02.408-2.243 1.632-2.447 1.02-.204 2.244.408 2.448 1.427.204 1.02-.408 2.244-1.428 2.448h-.408c-1.224 0-2.04-.612-2.244-1.428Z" filter="url(#k)"/><path d="M23.369 71.3c-.816-.815-.816-2.04 0-2.855.816-.816 2.04-.816 2.855 0 .816.816.816 2.04-.204 2.856-.407.407-.816.611-1.427.611-.204 0-.816-.204-1.224-.612Zm-5.1-6.934c-.611-1.02-.203-2.244.817-2.856 1.02-.612 2.243-.204 2.855.816.612 1.02.204 2.244-.816 2.855-.408.204-.612.204-1.02.204-.816 0-1.428-.408-1.835-1.02Zm-3.263-7.751c-.408-1.02.204-2.244 1.428-2.448 1.02-.408 2.243.204 2.447 1.428.204 1.02-.204 2.243-1.427 2.447h-.612c-.816 0-1.632-.611-1.836-1.427Zm-1.632-8.363s0-.204 0 0c0-.204 0-.204 0 0 0-1.224.816-2.244 2.04-2.244 1.224 0 2.04.816 2.244 1.836 0 1.02-.816 2.04-1.836 2.244h-.204c-1.224 0-2.04-.816-2.244-1.836Zm2.244-6.323c-1.02-.204-1.836-1.224-1.632-2.448.204-1.02 1.224-1.836 2.244-1.632 1.224.204 1.836 1.224 1.632 2.448-.204 1.02-1.02 1.632-2.04 1.632h-.204Z" filter="url(#l)"/></g></svg>