<svg xmlns="http://www.w3.org/2000/svg" xmlns:vectornator="http://vectornator.io" xml:space="preserve" stroke-linecap="round" stroke-linejoin="round" stroke-miterlimit="10" clip-rule="evenodd" width="100%" height="100%" viewBox="0 0 500 500"><defs><linearGradient id="a" x1="0" x2="1" y1="0" y2="0" gradientTransform="matrix(171.8 -130 127.9 174.6 35.9 144)" gradientUnits="userSpaceOnUse"><stop offset="0" stop-color="#1a1a1a"/><stop offset=".5" stop-color="#666"/><stop offset="1" stop-color="#fff"/></linearGradient><linearGradient id="b" x1="0" x2="1" y1="0" y2="0" gradientTransform="matrix(321.6 -259.6 251.4 332.2 146.6 305)" gradientUnits="userSpaceOnUse"><stop offset="0" stop-color="#1a1a1a"/><stop offset=".5" stop-color="#666"/><stop offset="1" stop-color="#fff"/></linearGradient><linearGradient id="c" x1="0" x2="1" y1="0" y2="0" gradientTransform="translate(2.6 247.4) scale(491.7)" gradientUnits="userSpaceOnUse"><stop offset="0" stop-color="#adabab"/><stop offset="1" stop-color="#4a4a4a"/></linearGradient><linearGradient id="d" x1="0" x2="1" y1="0" y2="0" gradientTransform="matrix(438 0 0 438 57 249.6)" gradientUnits="userSpaceOnUse"><stop offset="0" stop-color="#444"/><stop offset="0" stop-color="#4b4b4b"/><stop offset=".2" stop-color="#838383"/><stop offset=".9" stop-color="#cbcaca"/></linearGradient><linearGradient id="f" x1="0" x2="1" y1="0" y2="0" gradientTransform="matrix(9 -38.3 38.3 9 83.3 134.6)" gradientUnits="userSpaceOnUse"><stop offset="0" stop-color="#eaeaea"/><stop offset="1" stop-color="#fff"/></linearGradient><linearGradient id="h" x1="0" x2="1" y1="0" y2="0" gradientTransform="rotate(-82.6 160.4 95) scale(74)" gradientUnits="userSpaceOnUse"><stop offset="0" stop-color="#eaeaea"/><stop offset="1" stop-color="#fff"/></linearGradient><linearGradient id="j" x1="0" x2="1" y1="0" y2="0" gradientTransform="rotate(-50.1 130.7 -86.8) scale(52.7)" gradientUnits="userSpaceOnUse"><stop offset="0" stop-color="#eaeaea"/><stop offset="1" stop-color="#fff"/></linearGradient><linearGradient id="l" x1="0" x2="1" y1="0" y2="0" gradientTransform="matrix(-56 -309.2 309.2 -56 213.1 462.5)" gradientUnits="userSpaceOnUse"><stop offset="0" stop-color="#eaeaea"/><stop offset="1" stop-color="#fff"/></linearGradient><linearGradient id="n" x1="0" x2="1" y1="0" y2="0" gradientTransform="rotate(-106.5 369 79.8) scale(312.6)" gradientUnits="userSpaceOnUse"><stop offset="0" stop-color="#eaeaea"/><stop offset="1" stop-color="#fff"/></linearGradient><linearGradient id="s" x1="0" x2="1" y1="0" y2="0" gradientTransform="scale(14) rotate(-82.2 21.3 19.2)" gradientUnits="userSpaceOnUse"><stop offset="0" stop-color="#eaeaea"/><stop offset="1" stop-color="#fff"/></linearGradient><linearGradient id="u" x1="0" x2="1" y1="0" y2="0" gradientTransform="scale(14) rotate(-82.2 39.6 28.7)" gradientUnits="userSpaceOnUse"><stop offset="0" stop-color="#eaeaea"/><stop offset="1" stop-color="#fff"/></linearGradient><filter id="e" width="32.1" height="46.8" x="457.7" y="191.3" color-interpolation-filters="sRGB" filterUnits="userSpaceOnUse"><feDropShadow dx="-.2" dy="1.8" flood-color="#000" flood-opacity=".3" in="SourceGraphic" result="Shadow" stdDeviation="1.4"/></filter><filter id="g" width="31.3" height="24.5" x="50.7" y="97.5" color-interpolation-filters="sRGB" filterUnits="userSpaceOnUse"><feDropShadow dx="-.1" dy=".7" flood-color="#000" flood-opacity=".3" in="SourceGraphic" result="Shadow" stdDeviation=".9"/></filter><filter id="i" width="27" height="48.5" x="25.2" y="177.7" color-interpolation-filters="sRGB" filterUnits="userSpaceOnUse"><feDropShadow dx="-.1" dy=".7" flood-color="#000" flood-opacity=".3" in="SourceGraphic" result="Shadow" stdDeviation=".9"/></filter><filter id="k" width="29" height="26.3" x="96.5" y="29.3" color-interpolation-filters="sRGB" filterUnits="userSpaceOnUse"><feDropShadow dx="-.1" dy=".7" flood-color="#000" flood-opacity=".3" in="SourceGraphic" result="Shadow" stdDeviation=".6"/></filter><filter id="m" width="114.6" height="229.6" x="121.2" y="190.1" color-interpolation-filters="sRGB" filterUnits="userSpaceOnUse"><feDropShadow dx="-.2" dy=".7" flood-color="#000" flood-opacity=".3" in="SourceGraphic" result="Shadow" stdDeviation=".9"/></filter><filter id="o" width="124.6" height="245.1" x="269.1" y="128.4" color-interpolation-filters="sRGB" filterUnits="userSpaceOnUse"><feDropShadow dx="-.1" dy="1" flood-color="#000" flood-opacity=".3" in="SourceGraphic" result="Shadow" stdDeviation="1.4"/></filter><filter id="p" width="40.6" height="42.4" x="349.1" y="35.8" color-interpolation-filters="sRGB" filterUnits="userSpaceOnUse"><feDropShadow dx="0" dy="1.8" flood-color="#000" flood-opacity=".3" in="SourceGraphic" result="Shadow" stdDeviation="1.2"/></filter><filter id="q" width="32.6" height="44.9" x="451.7" y="298.5" color-interpolation-filters="sRGB" filterUnits="userSpaceOnUse"><feDropShadow dx="-.2" dy="1.8" flood-color="#000" flood-opacity=".3" in="SourceGraphic" result="Shadow" stdDeviation="1.4"/></filter><filter id="r" width="28.5" height="37.7" x="413.3" y="114.9" color-interpolation-filters="sRGB" filterUnits="userSpaceOnUse"><feDropShadow dx="-.3" dy="1.8" flood-color="#000" flood-opacity=".3" in="SourceGraphic" result="Shadow" stdDeviation="1.2"/></filter><filter id="t" width="43.4" height="41" x="23" y="288.4" color-interpolation-filters="sRGB" filterUnits="userSpaceOnUse"><feDropShadow dx="-.1" dy=".7" flood-color="#000" flood-opacity=".3" in="SourceGraphic" result="Shadow" stdDeviation=".9"/></filter><filter id="v" width="50.5" height="44.7" x="41" y="362.8" color-interpolation-filters="sRGB" filterUnits="userSpaceOnUse"><feDropShadow dx="-.1" dy=".7" flood-color="#000" flood-opacity=".3" in="SourceGraphic" result="Shadow" stdDeviation=".9"/></filter></defs><g vectornator:layerName="Untitled"><g vectornator:layerName="Group 3"><g vectornator:layerName="Group 1"><path vectornator:layerName="path" fill="#ebebeb" d="M15.3 237.6c0-92 41-171 104.8-208.2a335 335 0 0 1 33.4-16.8l.9 13.5c-6.8 7-15.3 9.2-22.9 17.2-22.4 24-41.6 54.3-25.3 54.3 10.6 0 21.5 34.4 48.9 24 24.3-9.3 65-19.5 94-37 2.7-1.6 9.1-10.6.8-12.1-10-1.9-22.7 7.3-32 1.6-9.4-5.7-5.4-24.5-5.4-24.5s13.5.5 27.8-4.9c25.7-9.6-.8-14-.8-14s10.7-6.7 17.4-6c13.2 1.1.5 18.4 4.9 18 6.3-.7 19.4-6.2 27.2-7.5 16.4-2.7 60.3 7 72.8 3.8 9.3-2.4-10.6-18.2-9.4-17.7 12.4 5.6 27.5 16.1 38.8 23.6 11.8 7.9 21.1 18.4 31 27.4 12.3 11 16.5 28.6 25.1 41.5 23.8 35.4 40.6 72.5 40.6 124.8 0 137.6-97.2 235.3-234.8 235.3-137.6 0-237.8-98.7-237.8-236.3Z"/><path vectornator:layerName="path" fill="url(#a)" d="M96.1 70.7c.5-3 9-8.4 10-10.6-.5-.2-.7-3.4-5.2-3.3-8.2 0-11 5-12.4 7.8-5 10.3-12.1 20-22 16.8a71.2 71.2 0 0 0-18.1 25.7c-.4 1.6 7.5-8.1 8.2-6.5 1.4 3-2.7 12.6-5.8 17-2.6 3.7-6.2 9.5-9.6 11.6-.7.4-1.5-5.2-2.5-3.9-6 8.5-13.8 21.5-13.6 30.7.2 5.2 7.8 6.9 14.2-.1 2.6-2.9-.2-13.4 2.5-16.2 1.7-1.7 6.3-4.5 10.1-5.2 3.7-.7 12.6 1.2 12 5-1 7-11 13.2-6.7 16 6 4 21.5 4.3 30.7-1-4.4-14.3 7.6-39.8 18-43 3.5-1.1 6.3 4 10.8 2.8 2.7-.8 3.6-2.4 5-3.8-.8-.8 4.2-4 5-7 1.4-4.4 1.1-10.4 0-11.4-1.5-1.5-8 1.5-12 3-3.3 1.3-6.2 2.4-7 1.8-2-1.5-2.2-3.5-1.9-5.6.8-4.8 3.4-10.6 12-22-6.3 1-22.2 5.2-21.7 1.4Z"/><path vectornator:layerName="path" fill="url(#b)" d="M153 12.6a349 349 0 0 0-25.3 12.7c-2.7 1.4-5.2 3-8 4.2-6.7 6-11.4 8.8-16.7 13.7 1-2.1 0-2.2-1.8-1.1 2.1-1.4 3.3-1.8 2.3.4 5.2-4.8 9.2-7 16-13.1C45 72.8 2 145.6 2 238.3c.3-3.2 4.2 5 4.7 6.7-.1-19.7 2.9-23.5.8-30.7-.4-1.3-1.7 1.3-1.8 1.2-2-2.7.7-25.7 3.8-29.6.2-.3.3-1.7.5-1.7 1-.5 2 7.1 2.4 6 4.4-8.4 6.7-22 8-28.5 1.6-7.7-3.7-5-3.3-6.6a1 1 0 0 1 1.1-.7c1.5 0 3.8 2.6 2.8 7.2-1.7 8.6-4.6 24.3-9.3 31.3-.7 1-1.5-8.2-2.2-7-3.5 6-4 19.6-3.6 28.2.4-.4 1.7-3 2-2 2.7 6.8-1 24.8-.8 35.6a28.7 28.7 0 0 1-5.1-9.4C2 264.9 7.3 290 15 314a37 37 0 0 1-.7-9.6c.7 19.2 12 41 24.7 43.6 2.2.5-3.3-6.4-6.4-12.3 3.8 6.6 13 17 3.9 13.1-6.4-2.6-12.3-9.7-16.4-18a249 249 0 0 0 151 142.9c-2.2-1.5-5-2.5-6.5-4.6-2.9-4 17.3 2.5 23.9 2.2 2.8-.1-2.5-5-5.6-7.5 3.4 1.8 11.3 6.1 10 8.5-2.4 3.9-29.2-7.7-24.2-1.6 1.7 2 4.9 3.2 7.8 4.5 4 1.3 7.9 2.7 12 3.8 14.1 2.6 31.3 2.9 41.1 5.6-9-1.9-22-2-34.1-3.4a250 250 0 0 0 56.4 6.9c10 0 19.8-.7 29.7-1.9 7.7-1.6 17-2.3 21.6-4.9 2.4-1.3-6.8-1.3-4-3.2.4-.3 2.2-.6 2.8-.8 8.4-3.9 32.7-7 40.7-13.7 1-.8-5.7-.5-4.7-1.5 7.3-7.3 30.4-15.1 39.5-16.8 2.3-.5-6.8 6.6-9.2 8.1 2-2.5 9.9-7.6 7.9-7.2a171 171 0 0 0-33.4 13.7c-5 2.7 5.4 1.2 3.6 2.8-9.2 8.1-33.5 11.2-44.4 14.6-2.9.9 6.3 2.1 4.4 3.7-1.7 1.4-10.7 2.8-19 4.3 40-5.8 76-21.3 106.7-44-8.3 4.5-17.8 10-21 11.5l-.2.2c-1.8.8-1-.2 8-7.1a61 61 0 0 0-7.8 7c.7 0 15-9.7 23.5-13.7 3.8-3 7.3-6.2 11-9.3 1.4-5.3 5-9.7 8.7-14.3 6-8 17-12 23.8-22 1.3-1.7 2.7-6.3 1.7-6.5-1-.3-9.7 9.3-14.3 14.3 4-5.2 13-16.7 16.2-16.5.2 0 .3.2.5.3 1.2 1-1.3 7-4.2 10.2-7.2 7.8-14.4 11.3-22.6 21-3.2 3.5-7.1 8.6-9.2 13a242 242 0 0 0 53.6-66.1c-5.8 6.6-8.6 8.7 2-11-9.6 20-7 16.7-1.7 10.2 1.9-3.5 8.5-12 8.5-12 6.9-11.7 17.1-37.8 21.6-55.5 1.5-6-3-5.8-1.9-12 .1-1.6 0-3 .3-4.4 2-13.2 10.6-.1 7.4-47.6-3.8-4.8-6-32.9-4.6-36.6-.6-5.6-2.4-12.3-3.6-17.1-4 3.3-12-29-15.9-32.3-1 .9-11.9 16.5-10 23.8 1.5 6.5 7.8 7.8 7.9 11.1 0 6.7-9.7 21.4-17.6 16.2 5.4-1.5 13.5-9 13.8-14.1.3-3.9-7.6-7-8-13.2-.7-8 6.5-17.5 14-23-3-8.5 10.5 14.5-3.2-13.7l-4.7-8.6c-1.6-3.3-7.8-9.3-9.1-9 1 21.8-11.4 1-13-1.4-1.8-2.7-4.3-17.6-3.1-14.6.1.4 1.8 1.2 2 2.3a33 33 0 0 0 4.7 10.6c4.4 7.3 8.8 11.3 8.7 11.7l-.9 4.1c-3.9 1.3-23.7-27.7-16.7-29.1 1.8-.4 4.3 2.7 4.3 2.7 2.3 1.4 6.6 1.6 6.2 0-1.6-5.7-4.1-8.5-4.5-9.5-4.8-5.6-9.7-11-15.5-17.3-1.5-1.6 1 0 2.3-1.6.5-.6.7-1.4-.2-2.4-.7-1-4.6-4.7-4.8-4.9-1.5 2-15.3 14-14.7 16.6 1.6 7.3 10.2 5.5 12.7 13.5 2.4 7.3-10.2 11.2-16.3 8.5 11-3.2 15.8-5.4 13-9.3-3.1-4-12.4-6.5-12.4-13 0-3.6 6.2-10 11.1-11.9-4.2-4-26.3-25.2-15.2-22.4 0 0-16.5-13.4-20.7-14.2 0 0-1.3 2.6-2.1 2.1-4.6-2.8-4-2.7-11.8-7.6-3.7-2.4-14-8.3-14-8.3-3.1-1.9-6.1-2.9-7.6-2.9-2.2 0-7.5 2.4-7.2 4.4.6 3.7 14 12.7 9.9 13.6-2 .4-15-.3-15-.3-2.2-9.3-10.7-12-18-10.2a35 35 0 0 0-14 5.5c6 10 18.4 22 23.7 20.7 2-.5 4-4.9 6.4-6.6 2.3-1.7 6-.3 5-.1-1.3.2-2.8 1.7-5 3.9s-3.4 5.4-6.6 5.3c-8.3-.3-23.5-23.2-23.5-23.2a69 69 0 0 1-15.5 6.1c-7.8 1.3-14.6.4-22.7-.2-4-.3 3-5-4-9a34.1 34.1 0 0 0-19.2 2.7l-3.6 2.1c3 6.5 9 5 5 8.1-1.3 1.1 2.5 3.4-4.1 5.9-3.7 1.4-6.5 1.6-9.8 2.3 2.5-.2 5-.2 7.6-1-5.2 2-10 2.4-14.6 2.6-3.7.5-6.9-1.3-10.6-1.1 0 0-4.6 21 4.8 26.8 5 .3 10.1-7 17.3-8.8h1.4c1.3 0 2.6.5 3.9 1-7.1-.3-11.3 6.2-17.5 8.3-1.4.5-2.3.2-3.2 0 9 3.8 24.4-7.2 27.7 1.7 4.6 12.6 5 8.6 1.7 8.5-27.5-.9-69.8 27.8-94.2 37.2-14.7 5.6-24.5-1.8-32.2-10-1.5 1.6-3.3 3-5.8 3.7-4.5 1.2-7.7-3.5-11.2-2.4-10.3 3.2-20.3 28-16 42.4-9.1 5.3-28.3 6.8-34.4.8-3.7-3.7 6.1-8.8 7.2-15.9.6-3.8-7.7-5.4-11.4-4.7-3.8.7-7 3-8.6 4.7-2.7 2.9-.2 13.2-2.5 16.3-6.4 9-15.9 5.3-16 0-.3-9.2 7.7-23.6 14.6-33 1-1.4 2 4.8 2.7 4.3 3.4-2.1 6.4-7.4 8.9-11.4 2.8-4.7 6.1-11.4 5.1-14.1-.6-1.7-7.9 8-8 6.4 0-.4.8-1.3.8-1.7 1.2-7.8 12-22 17.8-27 9.8 3.1 17.1-6.6 22.2-17 1.1-2.4 6.8-4.4 10.9-4.6h1.7c1.6.1 2 .7 1.7 1.4 2.8 1.5-8.3 7-9.7 12.8v.5c2.1 1.8 10-.2 16.1-1.3l1-1.2c-4.7.8-8 1.2-12.9 2.2-9.3 0 14.8-14.5 5.2-15-13.9-1-16.9 6.9-20.6 13.3-2.5 4.9-5.5 9.2-15 8l.5-.5c6.5-7.8 13-15.7 20-23.2-4.1 3-3.3 1.9-.8-.8-1.7 1.9-1.7 2.4 2-.3-5.6 7.2-14.6 16.3-21.2 24.3 8.6 1.2 11.7-2.8 14.5-7.5 3.3-6.5 5.7-14.3 20.4-13.5 11.7.6-13.4 14.9-4.8 14.9 5-1 15-1.3 19.7-2.1 8.6-8.2 17.3-20 16.6-29.7.8-3-15.5 9.5-15 6.2l.2-.3c1.2-6.9 12.7-15.6 17.2-17.6 3-1.3 2.5 1.6 4.5.3a63.5 63.5 0 0 0 12.8-11.9c-7.4 3.7-10.3 2-10.2 1.1 3.7-3.3 9.8-6.1 10.5-6.6v-.1Zm186.6 32.1c7.6 0 18.8 10.4 19.8 17.3.7 5.4-7 4.9-13 2.5 6.3 0 11.3 1.6 9.8-2.8-1.8-5.5-10.1-13.2-16.6-17Zm2.6 17.3c1 0 2 .3 3.1 1-2.5 1-4.8.6-3.6 5 3.5 11.5 10.5 24.2 21.7 29.6-12.6 13.1-31.3 10.2-45.5 11.1 21.8-3.4 25.2-.9 40-10.3-8.9-3-20-25.8-20-30.6-.1-3 1.5-6 4.3-5.8Zm47.4 22c2.9.2 5.6 1 7.8 2.3-17.7-3.3-31.6 12.2-34.1 9.6-1.9-2 14-12 26.3-11.8Zm1.7 3c20-.8 2.5 17.7 21 19.2-22.4 3.2-5.2-16.7-21-19.1ZM299 89.5c4.1-.1 8.2.2 12.2 1-17.7-1.6-42.5 6.5-39.8 12.8 2.5 5.9 18.9 8.9 12.7 14.6-9.2 8.4-12 10.9-53 11.8 27.5-3 42.8-3.9 49-12.4 2.9-3.9-9.6-7.5-12.4-11.2-5.8-7.4 12.6-16 31.3-16.6Zm2 2.4h2.5c6 0 10.8 1.7 9.4 5.2-6.6 16.5.4 12.4 27.6 13.3-30 1.7-33.2 2.8-34.3-4-.5-3.4 4-9.4 2-11.2-3.7-3.6-11-1.7-19.5-.5 3.3-1.6 8-2.6 12.4-2.8Zm63.5 8.1c3.6.1 19.7 16.2 19.5 28.3-.1 7.1-5.6 6.3-12.2 4.2 8 .7 7.7.3 7.8-4.7.4-12.8-17.9-24.8-15.6-27.6.2-.2.3-.2.5-.2Zm-142.3 30.6c4.3 0 4.1.3 5.3.3 10.7 12.2 15 24 13.7 29.5-3.4 14.4-9.3 13.8-15.8 12.2-11.8-2.8-26.3-4-27.4 12-.8 11.6 5.8 25.2 17 25-18.1 1.4-18.6-12.1-20.4-22.4-2.7-15.2 12.5-20 25.4-16.4 13.4 3.7 16.1-1.6 16.5-10 .4-9.7-4.2-21.1-11.5-27.7 0 .1-2.3-2.1-9-2.2 2.8 0 4.7-.3 6.2-.3Zm143.2 1.3c1.3 0 2.5.1 3.8.3-7.2.2-12 1.5-12.3 6.4a27.4 27.4 0 0 0 17.3 28.2c-13.5 3.5-22.9-16-22.2-27 .4-5 4-7.4 10.2-7.8 1 0 2-.2 3.2-.1Zm-149.8.3c2.1 0 4.2.2 6.2.6-4.4-.1-8.8.2-13.2 1-1.6.2-3.3.7-5 1a150 150 0 0 0-33 11.5c-5.8 2.9 13.8 10.5 7.4 18.2-9.8 12-43.8 14-50.3 7.8-6-5.7 11.6-17.7 7.8-20.2-8.6-5.7-22-2-40.7 5.3a51 51 0 0 1-2.4 33.8c-7.3 14.3-13.5 9.9-19.8 5.4-5.8-4.1-9.2 1.7-10 7-1.1 8.2-2.6 28.1 9.7 15.3 4.3-4.4 12.4-2.5 14.7 2.8 3.9 9.2 9.9 26.6 4 39 17-4.5 44-8.3 55.4-1 6.4 4 2 10.4-6.6 19.4 5.9-8 12.5-15 5.3-17.8-5.3-2.1-19.7-8.4-56.7 1.7 7.4-14 3-25-2.5-41-1.3-3.7-8.4-5.7-13-1.7-11.5 10.2-14-2.4-12.3-15.3 1.3-9.4 6.7-14.5 12.8-9.8 11.5 9 16.6-1.7 18-6 3.8-11.8 3-14.6.9-32 18.9-8 36.4-12 44.6-7 6.4 4-16 20-4 23.2 11.2 3 36.6 1 45-11 3-4.3-12.4-14.1-9-16 5.9-2.9 20.8-8.5 34.7-11.5 1.7-.4 3.3-.9 5-1.2 2.3-.3 5-1.5 7-1.5Zm151.7 2.8c3.8 0 7.4.8 11.9 1.6-7.2 1.3-9.7.8-15.8-1.3 1.3-.3 2.6-.3 4-.3Zm-314.8 3c5.3 0 10.4 1.8 8.3 4.4-3.3 4-9.7 10.5-7.2 16.4 1.6 3.8 24 6.6 36.7-1 .9 13.6 1.3 33-7.2 38.5-4.3 2.8-9.2-5.2-14.5-5.3-9-.2-17 28.8-4 35.3 4.7 2.4 7.2-4.5 15.2-6.4 6.6-1.6 12.7 32.9 7.6 40.1-10.2 14.6-43.7 3.3-46.1-2.5-1.6-3.9 9.3-11.8 5-16-7-7-18-10.5-23-5.6-6 6 4.2 18.7-.6 22.7-3 2.6-10.7-1-14.3-8 .3-11.5 3.5-48.6-1.9-38.7 0-3.9.1-7.7.5-11.5-.2 2.7-.2 5.7-.2 9.9 5.5-10 3 27.7 2.5 39 2.7 5.7 9.7 10 12.8 7.4 4.7-3.9-5.8-16.2.2-22.1 4.8-4.7 20.6-1.8 26.2 6.6 3.2 5-7.8 12.9-5.2 16 5.2 6 34 13.8 41.5 2.3 4.8-7.2-.7-39-5-38.2-8 1.3-10.8 8.6-15.6 6.6-13.8-5.8-7.3-39.6 4-39.1 5.3.2 10 8.4 14.3 5.6 8.4-5.4 7.4-21.5 6.5-35-11.5 6.8-33.7 6.1-36.6-.6-2.6-5.7 3.3-12 6.5-16 3.3-4-8.9-4.3-13.6-1.7-4 2.3 0 11.5-3 16.5-1 2-3.3 3-5.2 4.4a13 13 0 0 0 3.3-3.8c2.8-5 .2-14.5 3.7-17.7 1.9-1.7 5.2-2.5 8.4-2.5Zm337 13.6h1.5c.6 0 1 0 1.6.2-7.7.4-15.7 16.4-18.1 12.5-1.3-2.1 7-11.8 15-12.7Zm2 3c5.9-.8 26.2 25.2 19.8 38.4-9 18.8-39.9 17.3-54 20 3.2-2.8 40.6-4.8 49-18.6 9-14.6-16-39-15.7-39.3.2-.3.5-.5.9-.5ZM22 160.2c4.4 4.7 10 5.2 14.2 2.3-4.5 3-9.6 4.3-13.6 0-2 12-7.7 35.6-11.5 34-.1 0 0-.4-.2-.4 3.9 1 9-23.7 11.1-36ZM211.6 173c5 0 12 3.4 23.3 2.2-9.5 4.5-22.5-1.3-27.9-1 1.4-1 2.9-1.2 4.6-1.2Zm232.4 0c1.8 0 3.3.1 4.7.6-21.4 5-21.7 11.2-32.6 16.2-2.9-3.3 15.7-16.5 28-16.8Zm3.5 3.2c8.8 2-3.5 23.7 8.5 21.4-16 9.1-4-13-8.5-21.4Zm-99.7 12.3c2.6 0 5.3.3 7.8.8-16.6-1.2-48.2 8.9-50.5 18.4-1.2 5.1 22 11.2 14.7 17.9-19.5 17.6-47 15.7-60.8 15.6.8-4 32 2.4 54.8-14.9 9-6.7-13.2-9.8-13-16.6.2-10.9 27.6-21.5 47-21.2Zm3.3 4.1c5.9 0 7.6 2.3 1.3 13-4.6 7.8 6.1 10.2 11 10.4-4.6.3-23 1.4-16.8-9.9 7.7-14.3 4.5-12.6-9.8-12.5 5.6-.2 10.8-1 14.3-1Zm-115.8 1.8c2.7-.1 5.4.3 8 1.4-16.1-2.2-25.6 14.4-32.4 10.3 6.7-1.7 13.8-11.4 24.4-11.8Zm176.3 3.2c1.4 15.7 1 32.1 15.1 37.8-12.3 8.3-25.7-33.3-15.1-37.8Zm-174.3.4h.8c7.9 1.4 22.1 26.6 17.4 38.5-1 2.7-2.6 3.8-3 4.9-23.3-.9-65.8 9-74.5 17.1-7.7 7.2 14.8 12.7 10.8 18.5-7.3 10.5-40.6 11.8-49 4.7 14.6 5.4 38.2 3.7 46.2-4.7 4.3-4.5-20.4-11-7.7-20.9 8.9-6.8 52.8-17.2 70.8-16.9 6.9-15.7-6.1-32.2-12.6-41l.8-.2Zm205.5 17.7c1 0 1.9.3 2.8 1-7.7 0-12 20-20.1 15.8 2.7-.7 10.4-16.5 17.3-16.8Zm1 3c7.3 1.7 12 16.4 8.3 27.9-2.1 6.6-16.9.6-20.5 8.6-5.2 11.1-3.2 37.5 2.1 38.9 5.3-5.8 28.2-23.3 35.4-25.6 7.3-2.2-1.7 16-.1 23 .6 2.6 11.3-8.7 16.8-16.7-3.1 7-18.6 22.9-20.3 19.8-1.6-3.1 5.8-22.7 4-23.9-3.3-2.1-35.4 26-39.3 30.3-13.8 14.8-51.2 22.2-49 17.7 3.5-2.4 32.7-4.9 48.6-21.2-11.8-11.4-4.4-41.2-2.3-43.7 6.8-8.2 14.5-6.1 20.1-6.6 5.6-20.5-5.4-23.6-3.7-28.5ZM30.2 235c3 .1 6.3 1.5 9.3 3.3 11.2 6.9-.8 9.4.6 18.7 1.8 11.2 30.4 14.7 43.9 10.8-5.7 18 0 45.4 20.4 38.4-24.5 9.5-27.5-21.3-23-36.5-7.2 2-39.8 1-43-13.5-1.3-6 8.6-10.8 2.2-16-5-4-13.8-7-16-1-2.1 5.9 7.4 15.1 2.3 19.5a9.6 9.6 0 0 1-8.1 2.2c-.3 0-.6 0-1-.2-4.1-1-7.7-4-8.8-6.5 3.2 4 6.2 5.9 8.9 6.5l.9.2c2.5.3 4.8-.5 6.7-2.7 3.8-4.2-3.8-14.6-2.2-19 1.2-3.2 3.9-4.3 6.9-4.2Zm209.7 8.8c4.7-.2 9.6.2 11 .5-1 16.2-7.8 38.3 16.7 44-32.7.2-21-36.4-20.6-43.4-2.3-.7-5.9-.4-11.6-.6l4.5-.5ZM7.6 252.4c-1.4 11 .4 19.1 1.6 26 .3 1.1.6 2.4 1 3.3 1.4 3.8 5-4.6 9.1 5.3 3.2 7.8 7.3 21 2 27 3-7.5-.2-22.4-4.2-27.9-3.8-5.2-4 1.9-6-.5-.5-.6-.6-2.9-1-3.9-.1-.4-.4-.2-.5-.8 0-.7-.3-1.7-.4-2.5-2.1-8.1-3.1-20-1.6-26Zm109.8 7.5c3.5 0 7 0 10.4.2-22.6.5-28 1.9-38.5 5.8-3.4 12.9-4.8 32 5.6 37.6 4.1 2.2 11.2-7 20.3-6.9 17.6.3 22.8 27.7 12.6 35.1 7.4-11.8 1.4-30.5-10.9-33-7.3-1.6-14.1 8.9-21.7 6.4-14.3-4.8-11.7-24.8-7.1-40 8-3.8 18.7-5 29.3-5.2Zm10.3 0h6c5.6.1 9.2 1 10.5 4.2 1.8 4.4-7.3 10.4-7.8 16s4.8 6.2 20.4 9.1c-15.4-2-17.2-.2-23.2-4.8-6.7-5.2 6.6-14.3 6.7-19.6 0-3.6-2.5-4-12.6-4.9ZM295.3 271c1.8 0 3.6.3 5.3.8-15-.6-25.1 18.6-35.7 13 11.8-1.6 18.7-13.9 30.4-13.8Zm-40.9.8c.5-.2 2 3.3 4.6 6.3 2.5 3 6.3 5.6 5.7 5.8-1.3.5-6-1.7-8.4-4.7-2.5-3-2.9-7-1.9-7.4Zm43 2.4h.7c3.4.2 11.3 8 11.2 16-.1 19.3-8.3 17.8-22.1 16.4-17-1.7-20.8 5-22.6 19.6-.7 5.3-3.8 13 5.9 26-9.4-.3-68.6 8.6-72 16.2-2.8 6 16.7 10.3 13.2 14-9 9.3-44.7 9.6-48.3 2.8 19 2.8 40.6.2 43.2-3.6 2-3-16.4-5.6-12.8-14.1 3.1-7.5 52.1-15.3 69.2-17.7-6.5-9.3-4.1-15.3-3.7-23.6 1.1-23.6 19.8-23.2 34.3-21.4 13.6 1.6 10-10.3 10.1-15.1.2-8.3-7.5-12.5-7.2-14.3.2-.6.5-1.1 1-1.2Zm-278 22.7c1.3 0 2.8 7.3 1 13.5-1.3 4.3-5.3-11.3-8.4-8.2 0-4.8 3.2-.3 4.8 2.9 4.3 8.4 4.5 3 2.7-8.2Zm358.7.2c3.7 0 6.6.6 8.2 2-16.3-1.2-46.4 9-53.6 18.8-4 5.5 16.8 10.4 12 15.2-17.2 17.4-59 20-68.1 18.7-.2-3.8 37.1 1.3 62.3-17.4 5.8-4.3-15.9-8.7-13-14.7 5.3-10.8 36.1-22.6 52.2-22.6Zm57.7.8c7.3 9 7.3 23.9 2 32-7.3 11-19 1.4-26.5 13.8-5 8.3-6.1 17.4 1.8 22.7-14.9 2.2-11.6-15.2-6.3-24.2 7.5-12.7 20.5-4.7 27.6-13.4 8-10-4.5-25.5 1.4-31Zm-55 2.3c1.3-.2 3.4 2.3 2.9 3.5-2.1 5-6.5 9.4-6.9 14-.1 1.6 1 3.8 3.8 4.5-7.1 1.1-9.2.5-9.2-2.9-.1-5.4 5-7 8.2-17.8.3-.8.7-1.2 1.1-1.3Zm-263.7.6c10.1 1.9 15 26.6 6.4 30.5-7.5 3.2-22-9.4-26.9-3.6-7.9 9.3-2.7 27.7 6.3 38.2-18 3.8-35.7-3-45.2-12-.8-.8 0-2.4.4-3.7v-.7c1.1-3.2 3-6.6.7-8-6.6-4.1-22.5-15.1-27.5-10.6-.4.4-.3.9-.1 1.6-.5-1.3-1-2.5-.7-3.4 1.5-5.5 25 4.8 29.2 11.3 2.3 3.5-.8 6.3-1.6 9 0 .3.1.6 0 .8-.1 1 .2 2 .8 2.7 8 9.4 27.8 13.2 40 12-8.6-8.3-14-31.4-3.5-40.5 7-6.1 22.6 8 25.6 5 5.7-5.8 4.5-16.2-4-28.6Zm-17.3 27.3.6.2c-5.2-.6-4.1 32.3 5.8 33.9 9.8 1.5 52.2-5.6 64 7.5-18-10.5-61.8-2.3-66-5.3-9.7-7.3-10-35.9-4.4-36.3ZM36 331.7c-3.8 3.8 10.9 13.4 6.4 20 1.3-4.8-14.3-20.1-6.4-20Zm17.4 8.7c10 3.6-3.8 7.4 5.2 17.5-11.7-8-1.8-14-5.1-17.5Zm383.1 6.7c.6 0 1.2 0 1.8.2-9.5 3.4-16.7 12.6-24.7 18.5 6.5-6.7 14.2-18.9 23-18.7Zm-1.8 3c2.3 0 6.6 13.8.8 24 6.3-3.2 17-15 23.3-19.6-10.2 9.2-16.3 17.4-27.1 24.6-2.7 7.4-12.3 22-5.6 24-8.1 1-2.3-8.4 1.9-20.4-7.4 7.5-33.5 20.6-43.4 21 14-5.7 37.3-15.6 46.5-26.3 7-11.2 0-24.2 3.1-27.2l.5-.1Zm-160.2 4.2c.5-.1 1 0 1.3.3 6.6 8.3 12.8 16.6 12.5 21.4-.6 7.5-6.5 16.8-18.3 14.7-7.7-1.4-26.7-2.8-28.5 7.4-1.3 7 2 13 9.5 18-6.5 1.9-16-6.8-15-17.9.7-7.4 12.6-11.8 21-11 12.6 1.4 24.4 8.1 26-10.5.2-2.7-6-12.8-10.6-19-.6-.7.8-3 2.1-3.4Zm-165.9 13.5c1.3-1.5 19.2 19.5 12.4 28 1.8-12.7-13.7-26.4-12.4-28Zm49.5.2c9 .5 9.2 5.5 4.2 10.2-3 2.6-6.8 4 .3 10-11.3-3.4-11-6-4.2-12.2 2.7-2.5 4-4.4-.3-8Zm-53.8.6c4.6 3.6 19.2 21.9 12.3 28.8-6 6.2-21.2-10.4-27-6.4-.8.6-1 1.6-1 2.8l.6 2c1.3 4.3 5.9 10.7 11.2 16.4a41 41 0 0 1-11.2-16.5c-.3-.6-.5-1.3-.5-1.9-.3-1.2-1.7-3.3-1.3-3.9 4.8-6.4 24.2 10.2 26.5 5.2 3.8-8.1-10.7-27.4-9.6-26.5ZM389 387.9c1.2 0 2.2-.2 3.2 0-18 2.1-46 16.6-48.4 20.4-1.6 2.5 12.2 5 10 7.2-10.7 10.6-37 16.8-56.8 18.3 3.5-3 39.2-5.3 50.1-16.4 2.5-2.6-7.7-4.1-8.6-7-1.7-5.9 33.7-22.3 50.5-22.5Zm-.3 2.3c4.3 1.9-12.2 14-5.4 15-16.4 8.5 3.5-15.8 5.4-15Zm-297.5 4.4c11 15.6 10.5 18.6 22.3 16 11.7-2.5 31 14.1 31.7 26.4-4-14.4-25.3-27.2-31.5-24.5-10.6 4.6-18.7-5.6-22.5-17.9ZM280.2 405c3-.3 6 .2 8.8 1.4-16.7-1.5-27 10.5-34.7 8.1 8.5-2.8 17-8.8 25.9-9.5Zm3.4 4.2c4.4-.6 12 8.7 13.2 14.3.7 3-.4 6.9-2.8 10-1.8 0-2.7.8-4.5-.1 1.6-2.7 3.1-4.8 2.5-8.2-.8-7.5-5.4-10.6-10-15 .5-.6 1-.9 1.6-1Zm-159.7 7.2c38.7 30.8 8.9 35-27.9 9.9 51.9 23.4 50.8 15.3 28-9.9Zm159.4 17.4c2.5 0 5 0 7.5.2-26.6 4.8-47.6 6.6-65 13-4.1 1.5 15.8 6.2 11.2 8.5-9.5 4.6-33.7 3.3-42 .6a99 99 0 0 0 36.5-.8c3.7-.7-17-7.4-10.4-9.7 9.6-3.4 42.5-10.8 62.2-11.8Zm7.5 3.3h1.2a14 14 0 0 0-3 10.8c.4 5.6 3 6.4 8.5 8.7-8 1.8-13.7-2-13.8-7.4 0-4.9.5-11.8 7-12Zm-150.5 6.5c2.4 0 4 9.8 14 16.7-8.6-3.7-17.9-15-14.6-16.6l.6-.1Zm4.7.9c3.7 6.6 11.5 15.6 21.5 15.5 14.4-.1 23.4 2.1 29.5 9.6-6.7-6.8-18-8.4-26.9-7.9-13.4.8-19-5.6-24.1-17.2Zm183.3 0c1.2 0 2.2.1 3 .6-14.8 1.5-25.5 12.8-32.3 10 5-.3 21-10.6 29.3-10.6Zm-138.1 2.2c14.2 2-2.8 5.2 2.3 11.1-13.5-3.2 3.5-7-2.3-11.1Zm138 1.2c3.5.3 5.3 3.7 3.7 6.3a16.8 16.8 0 0 1-13.5 7.5c-9.4.5-16 1.2-20.2 5.7-3.9 4.2-2.2 7.6-1 10.5-14 1.8-38.3 3.9-46.2 6.1-.9.3-1.9 1-1 1.6-2-.5-4-1-2.7-1.3 8.3-1.8 31.9-5.2 44-6.9-2-6.4 1.8-10.9 7.9-14 6.6-3.2 12.3-2.7 19.6-3 7.3-.2 12.4-8.7 5.3-11.4a8.4 8.4 0 0 1 4-1Z"/></g><g vectornator:layerName="Group 2"><g vectornator:layerName="g" stroke-linecap="butt" stroke-linejoin="miter" stroke-width=".1"><path vectornator:layerName="path" fill="#a5a5a5" stroke="#a5a5a5" d="M136 109.2c17.7.9 28.5-3.9 39.5-8.4-19.6-14.2 32.4-21.1 17.7-3.4 13.5 1.1 24.2-7 37-10.4 5-1.3 15.3-1.3 20.5-3.4-.3 12.6-13.6 8.2-22.3 6-10.6-2.5-10.8 33.2-.7 40-19.7-2-44.5 7.4-57.7 13.2-10.8 4.8 10.2 14.7 6.5 18.1a52 52 0 0 1-36 11c-2.9-.3-2.7-2.4 2.5-8.6 3.7-4.5 5.6-7.9-.3-12.4a22.3 22.3 0 0 0-10.3-4.8c-5.7-1.3-16-.5-33.7 6 3-19.2 7.7-24.8 11.2-28.9 3.3-3.9 8-1.6 14.4-.7 6.7.9 10.6-7 11.6-13.3Z"/><path vectornator:layerName="path" fill="#fff" stroke="#fff" d="M156 12s-12 6.4-11.7 7.2c.5 1.6 11.5-4.6 12.1-3.2 1 2.3-14.2 16.1-16.6 16.4-1.9.2-1.8-2.8-4.4-1.4-5.6 2.9-16.6 13.6-15.7 15.5 1.3 2.6 13.8-8.3 13.4-4.4a42.2 42.2 0 0 1-9.4 20.4c-18 20-20.6 30-16 34.4 1.5 1.5 7-1.9 7-1.9 6-17.2 21-23 24-39 .7-3.6 0-3.6-3.6-9.8 0 0 3.8-3.4 6.1-4.8 2.5-1.5 2.3 1.5 4.8.7 5.2-1.6 9.4-6.5 13-11.1 3.7-4.7 1.1-5.6 1.3-7.2.1-1.6 1.2.2 0-2.6L156 12Zm185.3 8.6c.1 2.5-.2 5 .2 7.4.4 1.9 5.8 4.7 9.7 6.2 3.1-.3 6.4-2.8 5.5-4.4-.8-1.5-8.2-3.4-15.4-9.2ZM239.4 31.7c-.2 1.6.2 8.5 1 12.7 3.7-1.7 9.5-4.4 9-6.1-.5-2.5-8.6-4.7-10-6.6Zm144 1.1-1.5 2.2c1.5 1.2 3 1.5 3.6 1 .6-.7-1.6-2.2-2.1-3.2Zm18 13.9c-1.1.1-1.5 1.2.4 4 2.6-3 .4-.4 3-3.2-.8-.4-2.4-1-3.5-.8ZM426.4 66l-3.5 3.5c3.4 3.7 7 3 7.5 2.3.9-1-1-2.9-4-5.8Zm-188.2.6c-4.3 0-10.2 7-16 8.5-5 1.3-7.5-3.9-10.8-7.1 1.2 7.4 3 14.6 9.8 16.2 6.4 1.5 13.5-8 19.7-8 3.7 0 7.7 6.5 9.5 8.6 1-10.5-4.3-18.4-12.2-18.2ZM127 90.4c-.5 10 1.7 20.3-7.6 25.4-5.1 2.8-9.2-2.3-12.8-2-8.9 1-19.3 26.8-15.4 40.8 5.8-1.9.3-.1 7-2.5 2.3-12.3 5.3-24 12.9-30.4 3.9-3.3 14 2.9 18.7-1 5.8-4.8 11.4-20.6-2.8-30.3Zm12.9 59c2.9 4-7.3 13-8 16.8-.9 3.7 3 5.4 7 5.4-3.2-2.1 5-8.3 7.1-14 .9-2.3-.6-4.5-6.1-8.1Z"/></g><path vectornator:layerName="path" fill="#cbcaca" stroke="#a5a5a5" stroke-linecap="butt" stroke-linejoin="miter" stroke-width=".1" d="M486 272.3c5-7.4-2.2-8.8-1.3-14A82.3 82.3 0 0 1 498 231c-3.1-.7-6-34.4-4.6-36.6-2.1 1.2-.6 23.3 3 36.6a97.5 97.5 0 0 0-12.7 27.2c-.5 6.1 5.1 8.5 2.4 14Z"/><g vectornator:layerName="Group 1"><path vectornator:layerName="path" d="M326.5 22.9c-2.2 0-4.9.2-8.3.7 22.4-3 4.2 16.2 33 10.6-22.3 1.7-9.5-11.1-24.7-11.3Zm-69.6 1.7c-2 .1-3 1.1-5 1.5a24 24 0 0 1 10.1 0c4.6 1.7-3.1 4.8 4 9 3 1.8 13.5 1.7 23 0-9.4 1.2-19.4 0-21.5-.7-3.6-1.3 1.1-7.8-3.3-9.2-2-.6-4.6-.8-7.3-.6Zm46.6 5.3c-1 3.7 13.6 22 24.2 22.4 3.2 0 4.5-3.3 6.7-5.5 2.2-2.1 3.8-3.6 5-3.9 1-.1-2.6-1.5-5 .2-2.3 1.7-4.4 6-6.3 6.5-7 1.7-20.8-16.9-24.6-19.7Zm36.2 14.6c6.5 3.8 14.9 11.4 16.7 16.8 1.5 4.4-3.6 2.8-9.8 2.8 6 2.4 13.7 3 13-2.5-1-6.8-12.2-17.1-19.9-17.1Zm61.7.3c3 2.6-3 0-2.6 2.2.5 3.6 11.7 13.5 21.1 22.6-4.9 1.7-11 7.7-11 11.3 0 6.4 9.2 9 12.3 13 2.9 3.8-1.9 6-13 9.2 6.2 2.6 18.8-1.2 16.4-8.5-2.6-7.9-11-6.1-12.8-13.3-.6-2.8 8.6-9.6 10.2-10.2 10.4 7.8 25.4 24.6 24.3 28.4-.4 1.3-5-3.4-7.5-2-4.3 2.3 11.6 26.7 16.7 29 1.8.7 3-12 1.5-12-3-.1-.2 9.7-2 8.8-2-1-14.3-16.8-14-22.6 0-2 7.8 2.5 7.6-.3-.2-4.6-14.8-21.3-26.8-31.4-15-14.4-18.2-17.3-18.8-19.2l2-2.3c0-.2-.2-.3-.3-.3h-.2c-.4-.5-2.2-1.6-3-2.4Zm-59 16.8c-2.8 0-4.4 2.8-4.4 5.8.1 4.8 11.2 27.3 20.1 30.4-14.8 9.4-18.2 6.8-40 10.2 14.1-.9 32.8 2 45.5-11-11.2-5.4-18.2-18-21.7-29.4-1.3-4.3 1-4 3.6-4.9-.9-.7-2-1-3.1-1ZM235 65.4c-7.2 1.8-12.3 9-17.3 8.7 1.4 1 2.9 1.2 5.1.5 6.2-2 10.4-8.6 17.5-8.3-1.3-.5-2.6-.9-4-1h-1.3Zm-121 6c-4.6 0-18.5 4.4-21.2 2 0 4.2 14.3-.5 19.3-.6-4.5 8.4-13.4 19.1-7.2 25.7 3.2 3.4 12.8-5 18.1-6.2 4.1-1 3 3.8 3 8.6-.2 5-1.1 11.1-9.4 13.4-4.5 1.2-7.3-4-10.9-2.8-10.3 3.2-22.3 28.7-17.9 43-9.2 5.3-24.6 5-30.7 1-4.3-2.8 5.6-9 6.7-16 .6-3.8-8.3-5.7-12-5-3.8.7-8.4 3.5-10 5.2-2.8 2.8 0 13.3-2.6 16.2-6.4 7-14 5.3-14.2.1-.2-9.2 7.6-22.2 13.6-30.7 1-1.3 1.8 4.3 2.5 4 3.4-2.2 7-8 9.6-11.8 3.1-4.3 7.2-13.9 5.8-17-.7-1.5-8.6 8.2-8.2 6.6-.1.5-.8 1.3-.8 1.7 0 1.7 7.3-8 8-6.4 1 2.8-2.4 9.4-5.2 14-2.5 4-5.5 9.3-8.9 11.4-.7.4-1.7-5.7-2.6-4.3-7 9.3-15 23.7-14.7 32.8.2 5.2 9.6 8.8 16 0 2.3-3-.2-13.4 2.5-16.2 1.7-1.7 4.8-4 8.6-4.6 3.7-.7 12 .8 11.4 4.6-1.1 7-10.9 12.1-7.2 15.8 6 6 25.2 4.5 34.4-.8-4.3-14.3 5.6-38.9 16-42 3.5-1.2 6.6 3.5 11.1 2.3 8.3-2.3 10.3-10.6 10.5-15.6 0-4.8 1.3-10.6-2.8-9.7-5.3 1.3-14.3 11.4-18.4 7.5-6.7-6.2 3.2-17.8 7.8-26.2Zm275.6 12.2c-12.4-.3-28.1 9.8-26.3 11.7 2.6 2.6 16.4-12.8 34.1-9.5-2.3-1.4-5-2.2-7.8-2.2Zm1.7 3c15.8 2.4-1.4 22 21 19-18.5-1.6-1-20-21-19Zm-92.2 2.3c-18.7.6-37 9.1-31.3 16.5 2.9 3.6 15.3 7.2 12.5 11-6.2 8.5-21.6 9.5-49 12.4 41-1 43.8-3.4 52.9-11.7 6.2-5.7-10.1-8.7-12.6-14.5-2.7-6.3 22-14.3 39.7-12.8-4-.7-8-1-12.2-1Zm2 2.3c-4.2.3-9 1.2-12.2 2.8 8.4-1.2 15.7-3 19.4.5 2 1.8-2.5 7.8-2 11.2 1 6.7 4.3 5.6 34.3 3.9-27.2-.9-34.2 3.2-27.6-13.2 1.4-3.5-3.4-5.1-9.3-5.2h-2.5Zm63.5 8.1c-.2 0-.4 0-.5.2-2.3 2.7 16 14.7 15.6 27.4-.2 5 0 5.4-7.8 4.7 6.5 2 12 2.9 12.1-4.2.2-12-15.9-28-19.4-28Zm94 18c5.9 9.1 10.4 13.8 15.3 27.7-7.4 5.4-14.6 14.7-14 22.7.4 6 8.3 9.3 8 13-.2 5.1-8.4 12.7-13.8 14 8 5.3 17.7-9.3 17.6-16 0-3.3-6.3-4.6-8-11-1.7-7.2 9.8-18.7 10.8-19.6 4.4 3.8 10.6 44.2 14.8 26.8-1.1 2.9-2.2 3.2-3.3 1.8 1.1 1.3 2.2 1 3.3-1.8a239 239 0 0 0-10.3-30.1l.3-.3c-.3-.8 0-1.5-1-2.7-2.7 2-1.9 1.3-3.3 2.7a55.2 55.2 0 0 0-16.4-27.1Zm-236.2 12.4-6.1.3c6.6 0 8.8 2.3 8.9 2.2a37 37 0 0 1 11.5 27.4c-.4 8.4-3.1 13.7-16.5 10-13-3.6-28.1 1.2-25.4 16.3 1.8 10.2 2.3 23.6 20.4 22.3-11.2.1-17.8-13.4-17-25 1.2-15.7 15.6-14.6 27.4-11.8 6.5 1.5 12.4 2.2 15.8-12.1 1.3-5.4-3-17.2-13.7-29.3-1.2 0-1-.3-5.3-.3Zm143 1.2-3.2.2c-6.2.4-9.8 2.8-10.1 7.6-.7 11 8.6 30.4 22.1 27a27.2 27.2 0 0 1-17.3-28c.3-5 5.2-6.2 12.3-6.5l-3.7-.3ZM204 134a174 174 0 0 0-34.5 11.5c-3.6 1.8 11.9 11.6 8.8 16-8.4 11.8-33.7 13.8-45 10.8-12-3.2 10.5-19 4-23-8.1-5.1-25.6-1.1-44.5 7 2 17.2 3 20-.9 31.7-1.4 4.2-6.4 14.8-17.9 6-6.1-4.8-11.5.3-12.8 9.6-1.8 12.8.8 25.3 12.3 15.3 4.6-4 11.7-2 13 1.7 5.4 15.8 9.8 26.7 2.4 40.6 37-10 51.4-3.7 56.7-1.7 7.2 2.8.6 9.8-5.3 17.8 8.6-9 13-15.3 6.6-19.3-11.4-7.3-38.3-3.5-55.3 1 5.8-12.3-.2-29.6-4-38.7-2.3-5.3-10.5-7.2-14.7-2.8-12.3 12.7-10.8-7-9.7-15.3.8-5.2 4.1-11 10-6.8 6.3 4.4 12.4 8.7 19.8-5.5 5.3-10.1 4.7-22 2.3-33.5 18.7-7.3 32-10.9 40.7-5.3 3.8 2.5-13.9 14.4-7.8 20.1 6.5 6.2 40.4 4 50.3-7.8 6.4-7.6-13.2-15.2-7.5-18 7.5-3.7 20.2-8.7 33-11.4Zm163.6.2c-1.3 0-2.6 0-4 .3 6.1 2 8.6 2.5 15.8 1.2-4.4-.7-8-1.6-11.8-1.5ZM53 137c-3.2 0-6.5.7-8.4 2.4-3.5 3.2-.9 12.5-3.7 17.6-1 1.6-2 2.8-3.3 3.7 1.9-1.3 4.1-2.3 5.3-4.3 2.8-5-1.1-14.1 3-16.4 4.7-2.6 16.8-2.3 13.5 1.7-3.2 4-9 10.2-6.5 16 3 6.6 25 7.2 36.6.5.9 13.3 1.8 29.3-6.6 34.8-4.2 2.7-9-5.4-14.1-5.6-11.4-.5-18 33-4 38.8 4.7 2 7.4-5.3 15.5-6.6 4.3-.7 9.7 30.8 5 38-7.6 11.4-36.3 3.6-41.5-2.3-2.6-3 8.4-11 5.2-16-5.6-8.3-21.4-11.2-26.2-6.5-6 5.9 4.6 18.2-.1 22-3.1 2.5-10.2-1.6-12.8-7.3.5-11.2 3-48.6-2.5-38.8l.1-9.8c-.3 3.8-.5 7.6-.4 11.4 5.4-9.8 2.2 27 1.9 38.4 3.5 7 11.2 10.5 14.3 8 4.7-4-5.4-16.7.6-22.6 4.9-4.8 15.9-1.3 22.9 5.6 4.3 4.2-6.5 12-5 15.9 2.4 5.8 36 17 46.1 2.5 5-7.2-1-41.5-7.6-39.9-8 2-10.6 8.8-15.3 6.4-12.8-6.4-5-35.2 4-35 5.3 0 10.3 8 14.5 5.2 8.6-5.5 8.1-24.7 7.2-38.3-12.6 7.6-35 4.9-36.6 1.1-2.5-5.8 3.9-12.3 7.2-16.3 2-2.6-3-4.4-8.3-4.4Zm336.6 13.5c-8 .8-16.3 10.5-15 12.6 2.4 3.8 10.4-12 18-12.5l-1.5-.1h-1.5Zm2 3c-.4 0-.7.1-1 .4-.2.3 24.8 24.6 15.8 39-8.4 13.7-45.7 15.7-49 18.5 14.2-2.7 45-1.2 54-19.8 6.4-13.1-14-39-19.8-38.2Zm-369 5.5c-2 12.1-7.2 36.7-11 35.7 0 0 0 .4.2.5 3.8 1.5 9.4-21.8 11.5-33.8 4 4.2 9 2.9 13.5 0-4.2 2.8-9.8 2.3-14.1-2.4ZM212 172c-1.7 0-3.2.2-4.5 1.2 5.3-.3 18.4 5.4 27.8 1-11.2 1.1-18.2-2.2-23.3-2.2Zm232.2 0c-12.3.3-30.8 13.4-27.9 16.7 10.8-5 11.2-11.1 32.6-16a12 12 0 0 0-4.7-.7Zm3.4 3.1c4.5 8.3-7.4 30.4 8.6 21.3-12 2.3.2-19.2-8.6-21.3ZM348 187.3c-19.4-.3-46.8 10.2-47 21-.2 6.7 22 9.8 13 16.5-22.8 17.2-54 10.8-54.8 14.8 14 .1 41.3 2 60.8-15.5 7.3-6.6-16-12.7-14.7-17.8 2.3-9.4 33.9-19.4 50.5-18.2-2.6-.5-5.2-.8-7.8-.8Zm3.3 4c-3.6 0-8.7.8-14.4 1 14.3-.1 17.6-1.7 9.9 12.5-6.1 11.2 12.1 10 16.8 9.8-5-.2-15.7-2.6-11-10.3 6.2-10.7 4.5-12.9-1.3-13Zm-115.7 1.8c-10.6.3-17.6 10-24.3 11.7 6.7 4 16.2-12.5 32.2-10.3-2.5-1-5.2-1.5-8-1.4Zm176 3.2c-10.5 4.5 2.9 45.8 15.2 37.6-14-5.7-13.7-22-15.1-37.6Zm-174 .4-.8.1c6.4 8.8 19.5 25.2 12.6 40.8-18-.3-61.9 10-70.7 16.8-12.7 9.9 12 16.3 7.6 20.8-8 8.3-31.5 10-46 4.6 8.3 7.1 41.6 5.8 48.8-4.6 4-5.8-18.5-11.3-10.7-18.4 8.6-8 51-17.9 74.4-17 .4-1 2-2.2 3-4.8 4.7-11.8-9.5-37-17.4-38.3a3 3 0 0 0-.8 0Zm205.2 17.6c-6.8.3-14.5 16-17.2 16.6 8 4.3 12.4-15.7 20-15.7-.8-.6-1.7-1-2.8-1Zm1.1 3c-1.6 4.8 9.4 8 3.8 28.3-5.6.4-13.4-1.6-20.1 6.5-2.1 2.5-9.5 32 2.3 43.5-15.9 16.1-45 18.6-48.6 21-2.2 4.5 35.2-3 49-17.6 3.9-4.2 36-32.2 39.2-30 1.8 1.1-5.6 20.5-4 23.6 1.7 3 17.2-12.7 20.3-19.6-5.5 8-16.2 19.1-16.8 16.5-1.6-6.9 7.4-25 .2-22.8-7.3 2.3-30 19.7-35.4 25.4-5.3-1.4-7.3-27.6-2.2-38.6 3.7-7.9 18.4-2 20.6-8.6 3.7-11.4-1-26-8.3-27.7ZM30.6 233.5c-3-.1-5.7 1-6.9 4.2-1.6 4.3 6 14.6 2.2 18.8-2 2.2-4.2 3-6.7 2.7 2.6.3 5.4.1 8.1-2.2 5.1-4.4-4.4-13.6-2.3-19.3 2.2-6.1 11-3.1 16 1 6.4 5-3.5 9.9-2.2 15.8 2.6 11.4 21 13.3 33.2 13-13.8.2-30.1-3.8-31.4-12.2-1.5-9.3 10.5-11.7-.7-18.6-3-1.8-6.3-3.1-9.3-3.2Zm41.4 34c3.3 0 8.2.8 9.7.4-4.4 15-1.5 45.7 23 36.3-20.4 7-26-20.3-20.4-38.2-3.3 1-7.7 1.5-12.3 1.6Zm168-25.3c-1.5 0-3 .3-4.4.5 5.7.2 9.3-.2 11.6.6-.4 6.9-12 43.3 20.6 43.1-24.5-5.7-17.7-27.6-16.7-43.7-1.5-.3-6.3-.7-11-.5Zm-122.2 15.9a75.7 75.7 0 0 0-29.3 5.1c-4.5 15.1-7.1 35 7.2 39.7 7.5 2.5 14.4-7.9 21.6-6.4 12.3 2.6 18.3 21.1 11 32.9 10.1-7.3 5-34.6-12.7-34.9-9-.1-16.1 9-20.2 6.9-10.4-5.6-9-24.6-5.6-37.4 10.4-3.9 15.9-5.2 38.4-5.8-3.4-.1-7-.2-10.4-.1Zm10.3 0c10 .9 12.6 1.2 12.6 4.8 0 5.3-13.4 14.4-6.7 19.5 6 4.6 7.8 2.9 23.2 4.8-15.6-3-20.9-3.5-20.4-9 .5-5.7 9.6-11.5 7.8-16-1.3-3-5-4-10.4-4.1H128Zm368.6 8.7c-6.9 5.8-7 19.3-4.5 27.7a268 268 0 0 0 4-20c.3-2.6.2-5.2.5-7.7Zm-201.2 2.3c-11.7 0-18.6 12-30.4 13.7 10.7 5.6 20.7-13.5 35.7-12.9-1.7-.5-3.5-.8-5.3-.8Zm-40.8.8c-1 .4-.6 4.3 1.9 7.3 2.4 3 7 5.2 8.4 4.7.6-.2-3.2-2.8-5.8-5.8-2.6-3-4-6.4-4.5-6.2Zm43 2.3c-.5.2-.8.7-1 1.3-.3 1.8 7.4 6 7.2 14.2 0 4.8 3.5 16.5-10.1 15-14.4-1.8-33.1-2.3-34.3 21.3-.4 8.1-2.7 14 3.8 23.3-17 2.5-66 10.1-69.2 17.6-3.5 8.5 14.9 11 12.8 14-2.6 3.8-24.1 6.4-43.1 3.6 3.5 6.8 39.3 6.5 48.2-2.8 3.5-3.6-16-7.9-13.2-13.9 3.5-7.6 62.5-16.4 72-16.1-9.7-12.9-6.6-20.5-6-25.7 1.9-14.6 5.6-21.2 22.6-19.5 13.8 1.4 22 2.8 22.1-16.4 0-7.8-7.8-15.7-11.2-15.8h-.6Zm-287 7.5c.4 1 .4 3.3.9 4 2 2.3 2.3-4.8 6 .4 4 5.5 7.2 20.3 4.3 27.7 5.2-6 1.1-19-2-26.8-4-9.8-7.8-1.5-9.2-5.3ZM20 295c1.8 11 1.7 16.6-2.6 8.1-1.7-3.1-4.9-7.6-4.9-2.8 3.1-3.1 7.2 12.4 8.4 8.1 1.9-6 .3-13.4-.9-13.4Zm358.2.2c-16 0-46.8 11.8-52 22.4-3 6 18.7 10.4 13 14.7-25.3 18.5-62.6 13.5-62.4 17.2 9.2 1.3 50.9-1.3 68-18.5 4.9-4.8-15.9-9.7-12-15 7.3-9.8 37.3-20 53.7-18.8-1.7-1.4-4.6-2-8.3-2Zm57.6.8c-5.8 5.4 6.6 20.8-1.4 30.7-7 8.7-20 .7-27.5 13.3-5.3 8.9-8.5 26.2 6.3 24-8-5.2-6.8-14.3-1.8-22.6 7.4-12.2 19.2-2.7 26.5-13.7a29 29 0 0 0-2-31.7Zm-55 2.3c-.4 0-.8.5-1 1.3-3.3 10.7-8.4 12.3-8.3 17.7 0 3.3 2.1 4 9.2 2.8-2.8-.6-3.9-2.8-3.7-4.4.3-4.5 4.7-9 6.8-14 .5-1.1-1.5-3.6-3-3.4Zm-263.3.6c8.4 12.3 9.6 22.6 3.9 28.4-3 3-18.6-11-25.6-5-10.4 9-5 32 3.6 40.3-12.3 1.2-32-2.7-40-12-.6-.7-1-1.7-.8-2.6-.3 1.3-1.2 2.8-.4 3.6 9.5 9 27.2 15.7 45.1 12-9-10.5-14.1-28.8-6.2-38 4.8-5.7 19.4 6.8 26.8 3.5 8.7-3.8 3.7-28.3-6.4-30.2Zm-102.6 3.6c-1.8 14.9 9.1 38.7 22 44 9.2 3.9 0-6.4-3.8-13 3.1 6 8.6 12.8 6.4 12.3-12.7-2.6-24-24.3-24.6-43.3Zm20.7 23c-2.5-.2-4.2.1-4.5 1.5-.3.9.1 2 .6 3.4-.2-.8-.2-1.2.1-1.6 5-4.5 20.9 6.4 27.5 10.5 2.3 1.4.5 4.8-.7 8 .8-2.8 3.9-5.6 1.6-9.1-3.2-4.9-17.2-11.8-24.6-12.6Zm64.6.5c-5.5.4-5.2 28.8 4.5 36 4.1 3 48-5.1 66 5.3-12-13-54.3-6-64.1-7.5-9.9-1.5-11-34.2-5.8-33.6l-.6-.2Zm-63.7 3.6c-7.9-.2 7.7 15 6.4 19.8 4.5-6.5-10.1-16-6.4-19.8Zm17.5 8.6c3.3 3.5-6.6 9.4 5.1 17.4-9-10 4.8-13.8-5.1-17.4Zm382.6 6.7c-8.7-.2-16.5 11.8-22.9 18.5 8-5.8 15.2-15 24.6-18.4l-1.7-.1Zm-1.9 3h-.4c-3.1 3 4 16-3.1 27-9.2 10.7-32.5 20.5-46.4 26.2 9.8-.4 35.8-13.4 43.3-20.9-4.2 11.9-10 21.3-2 20.3-6.7-2.1 3-16.5 5.7-23.9 10.7-7 16.8-15.2 27-24.4-6.3 4.7-17 16.3-23.3 19.5 5.8-10.1 1.6-23.8-.8-23.9Zm-159.9 4.1c-1.3.5-2.8 2.7-2.2 3.5 4.7 6 10.8 16 10.6 18.8-1.5 18.5-13.4 11.7-25.8 10.4-8.5-.9-20.4 3.6-21 11-1.1 10.9 8.4 19.6 14.9 17.7-7.5-5-10.8-10.9-9.5-18 1.8-10 20.8-8.6 28.5-7.2 11.8 2 17.7-7.2 18.2-14.7.3-4.7-5.8-13-12.4-21.2-.4-.4-.9-.4-1.3-.3Zm-165.7 13.4c-1.4 1.6 14.1 15.2 12.3 27.9 6.8-8.5-11-29.4-12.3-27.9Zm49.4.2c4.3 3.6 3 5.4.3 8-6.8 6-7 8.7 4.2 12-7.1-5.8-3.2-7.2-.3-9.9 5-4.6 4.7-9.6-4.2-10.1Zm-53.8.6c-1-.8 13.5 18.2 9.7 26.3-2.3 5-21.7-11.4-26.5-5.1-.4.6 1 2.6 1.3 3.9-.1-1.2 0-2.3.9-2.8 5.7-4 20.9 12.4 27 6.4 6.9-7-7.8-25-12.4-28.7Zm339 16.2c-3.1-.2-12.1 11.3-16.1 16.4 4.5-5 13.2-14.5 14.3-14.2 1 .2-.4 4.7-1.7 6.5-7 9.8-17.8 13.8-23.8 21.8-4.4 5.4-9.5 10.3-9.8 17 .8-4.8 7-11.9 10.9-16.2 8.2-9.6 15.3-13.1 22.5-20.9 3-3.2 5.4-9.2 4.2-10-.1-.2-.2-.4-.4-.4Zm-54.4 3c-16.8.2-52.2 16.5-50.5 22.2.9 3 11 4.5 8.6 7-11 11.1-46.6 13.4-50 16.4 19.8-1.5 46-7.7 56.7-18.2 2.2-2.2-11.6-4.7-10-7.2 2.4-3.7 30.4-18.1 48.3-20.2-1-.2-2 0-3.1 0Zm-.3 2.3c-2-.8-21.9 23.3-5.5 14.8-6.8-.9 9.7-13 5.5-14.8ZM91.8 392c3.8 12.2 11.8 22.3 22.4 17.7 6.2-2.7 27.5 10 31.5 24.3-.6-12.1-20-28.7-31.6-26.2-11.9 2.6-11.4-.4-22.3-15.8Zm188.6 10.2c-8.8.7-17.4 6.7-25.8 9.5 7.7 2.4 18-9.6 34.7-8a19.3 19.3 0 0 0-8.9-1.5Zm3.4 4.2c-.6.1-1 .4-1.5 1 4.5 4.4 9.1 7.5 10 15 .6 3.3-1 5.3-2.5 8 1.8 1 2.6.1 4.5.2 2.4-3.1 3.5-7 2.8-10-1.3-5.6-8.8-14.8-13.3-14.2Zm-159.4 7.2c22.8 25 24 33-28 9.8 36.8 24.9 66.5 20.8 28-9.8ZM283.5 431a308 308 0 0 0-62.1 11.7c-6.5 2.3 14 9 10.4 9.6a99.4 99.4 0 0 1-36.4.8c8.2 2.7 32.4 4 41.9-.6 4.6-2.3-15.3-7-11.2-8.4 17.4-6.4 38.4-8.1 64.9-13-2.5-.2-5-.2-7.5-.1Zm7.5 3.3c-6.5.3-7 7-7 12 0 5.3 5.8 9.1 13.7 7.3-5.5-2.3-8-3-8.4-8.6-.3-5 .4-6.9 3-10.7H291Zm-150.3 6.3-.6.2c-3.2 1.5 6 12.8 14.6 16.5-10-7-11.6-16.5-14-16.7Zm4.7 1c5.2 11.5 10.7 17.9 24.1 17.1 9-.5 20.2 1 26.8 7.8-6-7.4-15-9.7-29.4-9.5-10 .1-17.8-8.8-21.5-15.4Zm183.1 0c-8.2 0-24.3 10.2-29.2 10.6 6.7 2.7 17.4-8.5 32.2-10-.8-.5-1.8-.6-3-.6Zm49 .8c-9 1.6-32 9.4-39.3 16.6-1 1 5.6.8 4.7 1.6-8 6.5-32.3 9.7-40.7 13.5 10.9-3.4 35.2-6.4 44.4-14.4 1.8-1.6-8.7-.1-3.6-2.9a171.4 171.4 0 0 1 33.3-13.5c2-.5-5.9 4.6-7.9 7.2 2.5-1.5 11.6-8.6 9.2-8.1ZM302.3 474c-.6.3-2.4.5-2.8.8-2.8 1.9 6.5 2 4 3.3-6.5 3.5-24.6 2.2-30.3 7.1 4.5-2.4 30.6-5.1 33.5-7.4 2-1.6-7.2-2.9-4.4-3.8Zm-111.7-30.3c5.8 4-11.1 7.8 2.4 11-5.1-5.9 11.8-9-2.3-11Zm137.9 1.2c-1.2 0-2.6.4-4 1.1 7 2.6 1.9 11.1-5.4 11.4-7.2.2-13-.3-19.6 3-6 3-9.9 7.4-7.8 13.8-12.2 1.6-35.8 5-44 6.8-1.3.3.6.8 2.6 1.3-.8-.5.2-1.3 1-1.6 8-2.2 32.3-4.3 46.2-6-1.2-3-2.8-6.3 1-10.5 4.2-4.4 10.8-5.1 20.2-5.6 5.3-.3 10.6-2.8 13.5-7.5 1.6-2.6-.2-6-3.7-6.2Zm-145.2 15.7c3.2 2.5 8.5 7.4 5.6 7.5-6.5.3-26.7-6-23.8-2.2 11.1 15 46.3 11.6 65 15.5-15.8-4.4-51-1.8-61-14-4.9-6 21.9 5.6 24.2 1.6 1.4-2.3-6.5-6.6-10-8.4Z"/><path vectornator:layerName="path" fill="#0c0c0c" d="M339.7 44.5c6.5 3.8 14.9 11.4 16.7 16.8.7 2.2-.2 2.8-2 3-1.9.1-4.7-.2-7.8-.2 3 1.2 6.4 2 9 1.7 2.6-.2 4.3-1.5 4-4.2-1-6.8-12.2-17.1-19.9-17.1Zm2.7 17.1c-2.8 0-4.4 2.8-4.4 5.8 0 2.4 2.8 9.3 6.7 15.9 2 3.3 4.3 6.6 6.6 9.2 2.3 2.6 4.6 4.5 6.8 5.3-14.8 9.4-18.2 6.8-40 10.2 7-.4 15.3.1 23.4-.9 8-1 15.8-3.6 22-10.1-11.1-5.4-18.1-18-21.6-29.4-1.3-4.3 1-4 3.6-4.9-.9-.7-2-1-3.1-1Zm47.3 22c-12.4-.3-28.1 9.8-26.3 11.7.7.6 2 .2 3.9-.8 5.8-3 17-11.2 30.2-8.7-2.3-1.4-5-2.2-7.8-2.2Zm1.7 3c15.8 2.4-1.4 22 21 19-4.6-.4-6.9-1.9-8.2-3.8-3.8-5.8 2.2-16-12.8-15.2Zm-92.2 2.3c-18.7.6-37 9.1-31.3 16.5 2.9 3.6 15.3 7.2 12.5 11-6.2 8.5-21.6 9.5-49 12.4a193 193 0 0 0 38.4-3.2c7-1.7 10-4.3 14.5-8.5 6.2-5.7-10.1-8.7-12.6-14.5-2.7-6.3 22-14.3 39.7-12.8-4-.7-8-1-12.2-1Zm2 2.3c-4.2.3-9 1.2-12.2 2.8 8.4-1.2 15.7-3 19.4.5 2 1.8-2.5 7.8-2 11.2 1 6.7 4.3 5.6 34.3 3.9-27.2-.9-34.2 3.2-27.6-13.2 1.4-3.5-3.4-5.1-9.3-5.2h-2.5Zm63.5 8.1c-.2 0-.4 0-.5.2-2.3 2.7 16 14.7 15.6 27.4-.2 5 0 5.4-7.8 4.7 6.5 2 12 2.9 12.1-4.2.2-12-15.9-28-19.4-28Zm.9 31.6-3.3.2c-6.2.4-9.8 2.8-10.1 7.6-.7 11 8.6 30.4 22.1 27a27.2 27.2 0 0 1-17.3-28c.3-5 5.2-6.2 12.3-6.5l-3.7-.3Zm-161.7 3a174 174 0 0 0-34.5 11.5c-3.6 1.8 11.9 11.6 8.8 16-8.4 11.8-33.7 13.8-45 10.8-12-3.2 10.5-19 4-23-8.1-5.1-25.6-1.1-44.5 7 2 17.2 3 20-.9 31.7-1.4 4.2-6.4 14.8-17.9 6-6.1-4.8-11.5.3-12.8 9.6-1.8 12.8.8 25.3 12.3 15.3 4.6-4 11.7-2 13 1.7 5.4 15.8 9.8 26.7 2.4 40.6 37-10 51.4-3.7 56.7-1.7 7.2 2.8.6 9.8-5.3 17.8 8.6-9 13-15.3 6.6-19.3-11.4-7.3-38.3-3.5-55.3 1 5.8-12.3-.2-29.6-4-38.7-2.3-5.3-10.5-7.2-14.7-2.8-12.3 12.7-10.8-7-9.7-15.3.8-5.2 4.1-11 10-6.8 4.7 3.3 9.4 6.5 14.5 2 1.7-1.5 3.5-4 5.3-7.5 5.3-10.1 4.7-22 2.3-33.5 18.7-7.3 32-10.9 40.7-5.3 3.8 2.5-13.9 14.4-7.8 20.1 6.5 6.2 40.4 4 50.3-7.8 3.2-3.8 0-7.7-3.4-10.9-1.7-1.6-3.5-3-4.4-4.2-1-1.2-1.1-2.2.3-3 7.5-3.6 20.2-8.6 33-11.3Zm163.6.2c-1.3 0-2.6 0-4 .3 6.1 2 8.6 2.5 15.8 1.2-4.4-.7-8-1.6-11.8-1.5Zm24.1 19.4c-.4 0-.7.2-1 .5-.2.3 24.8 24.6 15.8 39-8.4 13.7-45.7 15.7-49 18.5 14.2-2.7 45-1.2 54-19.8 6.4-13.1-14-39-19.8-38.2ZM211.9 172c-1.7 0-3.2.2-4.5 1.2 5.3-.3 18.4 5.4 27.8 1-11.2 1.1-18.2-2.2-23.3-2.2Zm232.2 0c-12.3.3-30.8 13.4-27.9 16.7 10.8-5 11.2-11.1 32.6-16a12 12 0 0 0-4.7-.7ZM348 187.3c-19.4-.3-46.8 10.2-47 21-.2 6.7 22 9.8 13 16.5-22.8 17.2-54 10.8-54.8 14.8 14 .1 41.3 2 60.8-15.5 7.3-6.6-16-12.7-14.7-17.8 2.3-9.4 33.9-19.4 50.5-18.2-2.6-.5-5.2-.8-7.8-.8Zm-112.4 5.8c-10.6.3-17.6 10-24.3 11.7 6.7 4 16.2-12.5 32.2-10.3-2.5-1-5.2-1.5-8-1.4Zm207.2 21.2c-6.8.3-14.5 16-17.2 16.6 8 4.3 12.4-15.7 20-15.7-.8-.6-1.7-1-2.8-1Zm1.1 3c-1.6 4.8 9.4 8 3.8 28.3-5.6.4-13.4-1.6-20.1 6.5-2.1 2.5-9.5 32 2.3 43.5-15.9 16.1-45 18.6-48.6 21-2.2 4.5 35.2-3 49-17.6 3.9-4.2 36-32.2 39.2-30 1.8 1.1-5.6 20.5-4 23.6 1.7 3 17.2-12.7 20.3-19.6-5.5 8-16.2 19.1-16.8 16.5-1.6-6.9 7.4-25 .2-22.8-7.3 2.3-30 19.7-35.4 25.4-5.3-1.4-7.3-27.6-2.2-38.6 3.7-7.9 18.4-2 20.6-8.6 3.7-11.4-1-26-8.3-27.7Zm-326 40.9a75.8 75.8 0 0 0-29.4 5.1c-4.5 15.1-7.1 35 7.2 39.7 7.5 2.5 14.4-7.9 21.6-6.4 12.3 2.6 18.3 21.1 11 32.9 10.1-7.3 5-34.6-12.7-34.9-9-.1-16.1 9-20.2 6.9-10.4-5.6-9-24.6-5.6-37.4 10.4-3.9 15.9-5.2 38.4-5.8-3.4-.1-7-.2-10.4-.1Zm10.2 0c10 .9 12.6 1.2 12.6 4.8 0 5.3-13.4 14.4-6.7 19.5 6 4.6 7.8 2.9 23.2 4.8-15.6-3-20.9-3.5-20.4-9 .5-5.7 9.6-11.5 7.8-16-1.3-3-5-4-10.4-4.1H128Zm167.4 11c-11.7 0-18.6 12-30.4 13.7 10.7 5.6 20.7-13.5 35.7-12.9-1.7-.5-3.5-.8-5.3-.8ZM10.7 279.8c.4 1 .4 3.3.9 4 2 2.3 2.3-4.8 6 .4 4 5.5 7.2 20.3 4.3 27.7 5.2-6 1.1-19-2-26.8-3-7.4-5.8-4.5-7.7-4.2-.6.1-1.2-.1-1.5-1ZM20 295c1.4 8.3 1.6 13.5-.1 12-.6-.5-1.5-1.8-2.5-3.9-1.7-3.1-4.9-7.6-4.9-2.8 3.1-3.1 7.2 12.4 8.4 8.1 1.9-6 .3-13.4-.9-13.4Zm358.2.2c-16 0-46.8 11.8-52 22.4-3 6 18.7 10.4 13 14.7-25.3 18.5-62.6 13.5-62.4 17.2 9.2 1.3 50.9-1.3 68-18.5 4.9-4.8-15.9-9.7-12-15.1 7.3-9.7 37.3-19.9 53.7-18.7-1.7-1.4-4.6-2-8.3-2ZM35.6 325.5c-2.5-.3-4.2 0-4.5 1.4-.3.9.1 2 .6 3.4-.2-.8-.2-1.2.1-1.6 5-4.5 20.9 6.4 27.5 10.5 2.3 1.4.5 4.8-.7 7.9.8-2.7 3.9-5.5 1.6-9-3.2-4.9-17.2-11.8-24.6-12.6Zm64.6.4c-5.5.4-5.2 28.8 4.5 36 4.1 3 48-5.1 66 5.3-12-13-54.3-6-64.1-7.5-9.9-1.5-11-34.2-5.8-33.6l-.6-.2Zm-63.7 3.6c-7.9-.2 7.7 15 6.4 19.8 4.5-6.5-10.1-16-6.4-19.8Zm17.5 8.6c3.3 3.5-6.6 9.4 5.1 17.4-2.2-2.5-3-4.5-3.1-6.4-.4-5.4 5.4-8.3-2-11Zm55.1 27.2c-1 1.2 7.4 9.2 10.9 18.4 1.2 3 1.9 6.3 1.4 9.5 6.8-8.5-11-29.3-12.3-27.9Zm49.4.2c4.3 3.6 3 5.4.3 8-6.8 6-7 8.7 4.2 12-3.6-2.9-4.4-4.7-4-6.2.5-1.4 2.2-2.4 3.7-3.7 5-4.6 4.7-9.6-4.2-10.1Zm-53.8.6c-1-.8 13.5 18.2 9.7 26.3-.6 1.3-2.3 1.2-4.5.5s-5-2.2-7.8-3.6c-5.7-2.7-11.8-5.2-14.2-2-.4.6 1 2.6 1.3 3.9-.1-1.2 0-2.3.9-2.8 5.7-4 20.9 12.4 27 6.4 6.9-7-7.8-25-12.4-28.7ZM91.8 392c3.8 12.2 11.8 22.3 22.4 17.7 6.2-2.7 27.5 10 31.5 24.3-.6-12.1-20-28.7-31.6-26.2-11.9 2.6-11.4-.4-22.3-15.8Zm32.6 21.6c11.4 12.5 17.3 20.8 14 23-1.7 1.2-5.7.8-12.5-1.3-6.8-2.2-16.5-6-29.4-11.9 36.7 25 66.4 20.8 27.9-9.8ZM283.5 431a308 308 0 0 0-62.1 11.7c-6.5 2.3 14 9 10.4 9.6a99.4 99.4 0 0 1-36.4.8c8.2 2.7 32.4 4 41.9-.6 4.6-2.3-15.3-7-11.2-8.4 17.4-6.4 38.4-8.1 64.9-13-2.5-.1-5-.2-7.5-.1Zm7.5 3.3c-6.5.3-7 7-7 12 0 5.3 5.8 9.1 13.7 7.3-2.7-1.2-4.7-2-6-3.1-1.4-1.2-2.2-2.7-2.4-5.5-.3-5 .4-6.9 3-10.7H291Zm-150.3 6.4-.6.1c-3.2 1.5 6 12.8 14.6 16.5-5-3.5-7.8-7.6-9.8-10.9-2-3.3-3-5.7-4.2-5.7Zm4.7.9c5.2 11.5 10.7 17.9 24.1 17.1 9-.5 20.2 1 26.8 7.8-3-3.7-6.7-6.2-11.5-7.6-4.8-1.5-10.7-2-18-1.9-9.9.1-17.7-8.8-21.4-15.4Zm183.1 0c-8.2 0-24.3 10.2-29.2 10.6 1.6.6 3.5.5 5.7-.2 6.6-2 15.4-8.7 26.5-9.8-.8-.5-1.8-.6-3-.6Zm49 .8c-9 1.6-32 9.4-39.3 16.6-1 1 5.6.8 4.7 1.6-8 6.5-32.3 9.7-40.7 13.5 5.4-1.7 14.2-3.2 22.8-5.4 8.5-2.2 17-5 21.6-9 1.8-1.6-8.7 0-3.6-2.9a171.4 171.4 0 0 1 33.3-13.5c2-.5-5.9 4.6-7.9 7.2 2.5-1.5 11.6-8.6 9.2-8.1Zm-187 1.4c5.8 4.1-11.1 7.8 2.4 11-1.3-1.4-1.1-2.7-.5-3.9 2-3.4 8.8-5.6-1.9-7.1Zm137.9 1.2c-1.2 0-2.6.4-4 1.1 7 2.6 1.9 11.1-5.4 11.4-7.2.2-13-.3-19.6 3-6 3-9.9 7.4-7.8 13.8-12.2 1.6-35.8 5-44 6.8-1.3.3.6.8 2.6 1.3-.8-.5.2-1.3 1-1.6 8-2.2 32.3-4.3 46.2-6-1.2-3-2.8-6.3 1-10.5 4.2-4.4 10.8-5.1 20.2-5.6 5.3-.2 10.6-2.8 13.5-7.5 1.6-2.6-.2-6-3.7-6.2Z"/><path vectornator:layerName="path" fill="url(#c)" d="M182.2 258.2c-6 4.8 7.1 8.5 9.7 13 2.5 4.5-6 9.3-5.9 9.3.3 0 9.7-5.7 7.3-10-2.4-4.3-15-8.2-11-12.3ZM155.3 11.9l-1.4.6c-.1.2-7 3.2-10.8 6.7-.2.8 2.7 2.6 10-1A63.7 63.7 0 0 1 140.4 30c-2 1.2-1.5-1.7-4.4-.4-4.5 2-16.6 10.9-17.4 17.8-.4 3.2 13.8-7 13-4.2-.9 3.7-6.8 19-17.5 26.6-9.6 1.7-10.1 1.6-16.7 2.9-8.6 0 16.4-14.2 4.8-14.8-14.7-.7-17 7-20.4 13.5 3.8-6.3 6.7-14.1 20.6-13.3 9.6.6-14.6 15-5.2 15l17.2-3A54.8 54.8 0 0 0 132 42.9c.6-3-13.8 7.5-13.3 4.2 1-6 13-15.1 17.4-17.1 2.5-1.2 2.1 1.8 4.1.6 4.7-2.8 12.6-10.9 14-13.2-7.4 3.7-10.7 2.6-10.6 1.8 3.6-3.3 11-6.8 11.7-7.3ZM81.8 71.5c-2.8 4.7-6 8.7-14.6 7.5 6.6-7.9 15.5-17 21.2-24.2-3.7 2.7-3.8 2.2-2 .3-2.6 2.6-3.3 3.8.8.7-7 7.7-13.8 15.5-20.4 23.5 9.4 1.2 12.4-3 15-7.8Zm71.7-59-6.4 2.3c-9.2 4.6-17.8 10-27.2 14.4-6.7 6-10.7 8.4-16 13.2 1-2.2-.1-2-2.3-.6 1.9-1 2.8-1 1.9 1.1 5.2-4.8 9.9-7.5 16.6-13.5 9.4-4.4 18-9.7 27.2-14.4l6.2-2.4Zm202.7 6.7c7.2 4 17.2 11.2 25.7 15.8-4.7-3.1-14-10-25.7-15.8Zm-29.8 3.6a48 48 0 0 0-8.2.9c22.4-3 4.2 16.1 33 10.5-22.3 1.7-9.6-11.2-24.8-11.4ZM257 24.6a34 34 0 0 0-16.6 5c3.8-2.6 16.6-5.3 21.8-3.4 4.6 1.6-3.3 4.6 3.9 8.9 2.9 1.7 13.6 1.7 23 0a65.8 65.8 0 0 1-21.5-.8c-3.6-1.2 1-7.7-3.3-9.1-2-.6-4.6-.7-7.3-.6Zm46.6 5.3c-1 3.7 13.6 22.1 24.2 22.5 3.2 0 4.6-3.4 6.8-5.6 2.2-2.2 3.6-3.6 4.9-3.8 1-.2-2.6-1.6-5 .1-2.2 1.7-4.4 6-6.3 6.5-7 1.7-20.8-17-24.6-19.7Zm-64 .8c-.1.3-.2.5 0 .7v-.7Zm144 2c0 .2 1.1 1 1.8 1.8-.3-.6-.7-1.2-1.3-1.6 2-.4 15.7 10.3 17.4 11.9 3 2.5-3 0-2.7 2.2.5 3.6 11.8 13.5 21.2 22.5-4.9 1.7-11 7.8-11 11.4 0 6.4 9.3 9 12.3 13 3 3.8-1.9 6-13 9.1 6.2 2.7 18.7-1.1 16.4-8.4-2.6-8-11-6.1-12.7-13.3-.6-2.7 8.5-9.7 10-10.2 10.5 7.7 25.6 24.6 24.4 28.3-.4 1.3-5-3.3-7.5-2-4.3 2.5 11.7 26.8 16.7 29 1.8.8 3-12 1.5-12-3 0-.3 9.9-2 9-2-1-14.4-17-14.1-22.7.1-2 7.9 2.5 7.7-.3-.2-4.6-14.9-21.2-26.8-31.4-17.3-16.4-22.4-20.6-21.4-22 1-1.3 5.2 1.3 4.3.1A83.6 83.6 0 0 0 385 33c-1-.3-1.5-.3-1.5-.2Zm1.8 1.8c.4.7.4 1.3.3 1.7V36c.4-.5.2-1-.3-1.6Zm.3 1.7c-.3.2-.6.3-1 .3l.3.1c.4.2.5 0 .7-.4Zm-45.9 8.3c6.5 3.8 14.8 11.4 16.6 16.8 1.5 4.3-3.5 2.8-9.8 2.8 6 2.4 13.9 3 13-2.4-.9-6.8-12.1-17.2-19.8-17.2ZM238.2 46c-8.6 2.8-16.2 1.2-25.5 1.8v1.2c8.2-.6 16.1.6 25.5-3Zm-25.7 3.7c-.8 5.4-1.8 10.9-1.6 14.7 0-4 1.1-10.6 1.6-14.7ZM99.1 58.8c-4 .2-9.8 2.3-11 4.8-5 10.2-12.2 19.8-22 16.7-6.2 5.2-18.8 21.2-18.6 28.5 0 1.6 7.3-8 8-6.3 1 2.7-2.3 9.4-5.2 14-2.4 4-5.4 9.1-8.9 11.3-.6.4-1.5-5.7-2.5-4.4-6.9 9.4-14.9 23.7-14.6 32.9.1 5.2 9.5 8.8 16 0 2.2-3.1-.3-13.4 2.4-16.2 2.4-2.4 5.4-4 8.6-4.6 3.7-.7 12 .8 11.4 4.6-1 7-10.8 12.1-7.1 15.7 6 6 25.1 4.6 34.3-.7-4.4-14.3 5.6-39 15.9-42 3.5-1.2 6.8 3.4 11.3 2.2 8.3-2.3 10.2-10.4 10.3-15.4.1-4.8 1.3-10.7-2.8-9.7-5.3 1.2-14.3 11.2-18.4 7.4-6.6-6.3 3.3-17.7 7.8-26.1-4.5 0-18.5 4.3-21.2 2 0 4.1 14.4-.6 19.4-.6-4.6 8.4-13.4 19-7.2 25.7 3.2 3.4 12.9-5 18.2-6.2 4.1-1 3 3.7 2.8 8.4-.1 5-1 11.2-9.4 13.5-4.5 1.3-7.3-3.9-10.8-2.8-10.3 3.2-22.3 28.7-18 43-9.2 5.3-24.5 5-30.6 1-4.3-2.8 5.6-9 6.7-16 .6-3.9-8.2-5.6-12-5-3.7.7-8.4 3.5-10 5.1-2.8 2.8 0 13.4-2.6 16.2-6.5 7-14 5.5-14.2.3-.2-9.2 7.6-22.2 13.6-30.7 1-1.4 1.8 4.2 2.5 3.8 3.5-2.1 6.9-8 9.6-11.7 3-4.4 7-13.8 5.7-16.9-.7-1.6-8.5 8-8.1 6.4a71 71 0 0 1 18.1-25.6c9.8 3 17-6.6 22.1-16.9 1.3-2.7 8.6-5 12.6-4.6.7 0 1 .1 1.3.3.3-.7-.1-1.2-1.7-1.3-.5 0-1-.2-1.7-.1Zm3.4 1.4c-.8 2.2-9 7-10 11.8-.2.6 0 1.1.3 1.5V73c1.4-5.8 12.5-11.3 9.7-12.8Zm240 1.4c-2.9 0-4.6 2.9-4.5 5.9 0 4.7 11.2 27.3 20 30.3-14.8 9.4-18.1 6.8-40 10.2 14.2-.9 32.9 2 45.5-11-11.2-5.4-18-18-21.5-29.4-1.3-4.3 1-3.9 3.6-4.8a5.8 5.8 0 0 0-3.2-1.2Zm-131.6 3.5c0 1.1.2 2 .5 2.4l.4.3c-.3-.4-.6-.9-.7-1.4L211 65Zm25.6.2-1.4.1c-7.1 1.8-12.3 9-17.3 8.7-2-2.1-3.2-3.2-4.2-4.1 4.1 4.7 5.3 5.9 9.4 4.5 6.1-2 10.3-8.4 17.3-8.1.5 0 .9 0 1.2.2-1.6-.7-3.3-1.3-5-1.3ZM62.4 78.8l-.1.2 2.3.9c-4 4.4-18.2 17.8-18.3 28.4 0 1 .3 1.5.7 1.9.7.7 2.3-.8 6.2-4.8 0 0 .9-1 1-.1.1 3-9 16.4-11 18.8-1.2 1.3-1.4 1.3-1.8.2-.9-2.5-1.2-3.7-1.7-3.6-1 .3-8 9.5-13 20.8-1.8 3.7-3.1 7.6-4.2 11.6-.8-.6-2.6-2.1-3.4-2.4l-.2.8c1.3.5 2.4 1.1 4 3.4a80.6 80.6 0 0 1 16.6-33.4c.9-1 1.8 5.3 2.8 4.2 5.1-5.5 12.5-17.9 12.3-20.7-.2-2.7-5.3 4.6-7 4.9-.2 0-1-.3-1-.8-.7-8.4 9.9-20.4 18.5-29.2l-2.7-1.1Zm327.3 4.9c-12.4-.3-28.1 9.7-26.3 11.6 2.6 2.6 16.4-12.9 34.1-9.6-2.2-1.3-5-2-7.8-2Zm1.7 2.9c15.8 2.5-1.4 22.2 21 19-18.5-1.5-1-20-21-19Zm-92.1 2.3c-18.8.6-37.1 9.1-31.3 16.5 2.8 3.6 15.2 7.3 12.5 11-6.3 8.6-21.7 9.5-49.2 12.4 41-1 44-3.3 53-11.7 6.3-5.7-10.1-8.7-12.6-14.5-2.8-6.3 22-14.4 39.6-12.9a54 54 0 0 0-12-.8Zm4.5 2.3h-2.6c-4.3.3-8.9 1.3-12.2 2.9 8.5-1.2 15.7-3 19.4.4 1.9 1.8-2.5 7.8-2 11.2 1.1 6.7 4.3 5.5 34.3 3.8-27.2-.8-34 3.4-27.5-13.1 1.3-3.4-3.4-5.2-9.4-5.2Zm60.9 8.1c-.2 0-.4 0-.5.2-2.4 2.8 16 14.8 15.6 27.4-.2 5 0 5.4-7.8 4.7 6.5 2 12 2.9 12-4.2.2-12-15.7-28-19.3-28Zm94 18c5.9 9 10.3 13.8 15.2 27.7-7.4 5.4-14.5 14.7-13.9 22.7.5 6 8.3 9.3 8 13.1-.2 5-8.4 12.5-13.8 14 8 5.2 17.6-9.3 17.6-16 0-3.3-6.4-4.7-8-11.1-1.8-7.2 9.7-18.8 10.8-19.7 4.4 3.8 10.8 45 15 26.8-4.5 12.1-8.4-17.5-13.6-27.4 2.4-1.5 1.3-1 3.5-3-.3-.7 0-1.4-1.1-2.6-2.7 2-2 1.2-3.4 2.6a55.1 55.1 0 0 0-16.3-27Zm-180.2 7.3c-22.7 5.9-29 5.6-44.1 6.5 15.4 2.2 27-1 44.1-6.5Zm-56 5.2c-1.4 0-3.4 0-6.2.2 6.6 0 8.9 2.2 9 2.1a37 37 0 0 1 11.6 27.4c-.4 8.5-3.3 13.7-16.7 10-12.9-3.5-28 1.3-25.3 16.3 1.8 10.2 2.2 23.7 20.3 22.3-11.1.2-17.8-13.3-17-24.9 1.2-15.8 15.7-14.6 27.5-11.8 6.4 1.5 12.3 2.3 15.7-12 1.3-5.5-2.9-17.4-13.7-29.4-1.1 0-.8-.3-5.2-.2Zm143 1.1-3.2.2c-6.2.4-9.8 2.8-10.1 7.7-.7 11 8.7 30.2 22.2 26.8-13.5-6-18-16.6-17.4-28 .2-5 5.2-6.1 12.4-6.3l-3.8-.3Zm-149.6.4c-15.9.3-39 10.3-46.5 14.1-3.6 1.8 12 11.6 8.9 15.9-8.4 11.8-33.7 13.9-45 10.8-12-3.2 10.5-19 4-23-8.2-5-25.7-1-44.6 7 2 17.3 2.9 20-1 31.8-1.3 4.2-6.3 14.8-17.8 5.9-6-4.8-11.5.3-12.8 9.7-1.8 12.8.8 25.3 12.3 15.3 4.5-4 11.7-2 13 1.7 5.5 15.8 10 26.7 2.5 40.6 37-10 51.3-3.7 56.7-1.7 7.1 2.8.5 9.8-5.4 17.8 8.6-9 13-15.3 6.5-19.3-11.4-7.2-38.3-3.5-55.3 1.1 5.8-12.4-.1-29.7-4-38.8-2.3-5.3-10.4-7.2-14.7-2.8-12.3 12.7-10.7-7-9.5-15.2.7-5.2 4-11.1 10-7 6.2 4.4 12.3 8.8 19.6-5.4 5.3-10.2 4.8-22 2.4-33.5 18.7-7.4 32-11 40.7-5.3 3.8 2.5-13.9 14.3-7.8 20 6.4 6.2 40.4 4.2 50.3-7.7 6.4-7.6-13.1-15.3-7.4-18.1 11-5.5 33.4-14 51.2-13.4-2-.4-4.2-.6-6.3-.5Zm151.6 2.7a20 20 0 0 0-3.9.4c6 2 8.5 2.5 15.7 1.2-4.5-.7-8-1.7-11.8-1.6ZM53 137c-3.1 0-6.4.8-8.3 2.5-3.5 3.2-.9 12.6-3.7 17.6-4 7.2-12.3 8.4-18.3 2-2 12.1-7.2 36.8-11 35.8 0 0 0 .3.2.3 3.8 1.6 9.4-21.7 11.5-33.7 5.9 6.3 15.5 2 19.5-5 2.9-5-1-14.2 3-16.4 4.8-2.6 17-2.3 13.7 1.7-3.3 4-9.2 10.3-6.7 16 3 6.6 25.2 7.2 36.7.5.9 13.3 1.9 29.4-6.6 34.8-4.1 2.7-8.9-5.4-14-5.6-11.4-.5-18 33-4.2 38.8 4.8 2 7.5-5.4 15.5-6.6 4.4-.7 9.9 30.8 5.1 38-7.5 11.4-36.3 3.5-41.5-2.4-2.6-3 8.4-10.8 5.1-15.8-5.5-8.3-21.3-11.3-26-6.6-6 5.8 4.5 18.1-.2 22-3 2.5-10.1-1.7-12.8-7.3.5-11.2 3-48.6-2.5-38.8 0-4.2-.1-7.1.1-9.8-.3 3.8-.5 7.5-.4 11.3 5.4-9.8 2.3 27.2 2 38.6 3.5 6.9 11 10.4 14.2 7.8 4.7-4-5.4-16.5.6-22.5 4.9-4.8 15.9-1.3 22.8 5.6 4.3 4.2-6.4 12-4.8 15.8 2.3 5.8 35.9 17 46 2.5 5-7.1-1-41.3-7.6-39.8-8 2-10.6 8.8-15.3 6.5-12.8-6.4-5-35.3 4-35.2 5.3.1 10.4 8.1 14.6 5.4 8.5-5.6 8-24.8 7.2-38.4-12.7 7.6-35 4.8-36.7 1-2.5-5.8 3.8-12.2 7.1-16.2 2-2.6-3-4.4-8.3-4.4Zm336.7 13.5c-7.9.9-16.3 10.5-15 12.6 2.4 3.8 10.5-12 18.1-12.4l-1.6-.2h-1.5Zm-370.8 2.8a1 1 0 0 0-1 .8c-.5 1.5 4.8-1 3.2 6.6-1.3 6.4-3.6 20-8 28.4-.5 1-1.4-6.6-2.4-6.2-3.3 1.3-6.5 28.4-4.3 31.2 0 0 1.3-2.6 1.6-1.3 2.1 7.2-.7 11-.6 30.5-.5-1.7-4.4-9.7-4.7-6.6 0 1 2.9 7 5.1 9.4-.3-10.7 3.5-28.6.8-35.4-.4-.8-1.6 1.6-2 2-.4-8.5 0-22 3.6-28 .7-1.2 1.5 8 2.2 7 4.7-7 7.5-22.6 9.2-31.2 1-4.5-1.2-7-2.7-7.2Zm372.9.1c-.4.1-.8.3-1 .6-.3.3 24.6 24.6 15.6 39.1-8.4 13.7-45.6 15.7-48.8 18.4 14.1-2.6 44.9-1.2 54-19.8 6.3-13-14-39-19.8-38.3Zm-179.8 18.4a7 7 0 0 0-4.6 1.3c5.3-.3 18.5 5.5 28 1-11.3 1.1-18.4-2.2-23.4-2.3Zm232.1.1c-12.2.3-30.7 13.4-27.8 16.7 10.9-5 11.2-11 32.6-16-1.4-.6-3-.7-4.8-.7Zm3.5 3.2c4.5 8.3-7.5 30.2 8.5 21.2-12 2.2.3-19.1-8.5-21.2Zm-99.4 12.2a80.6 80.6 0 0 0-31 6.4c-9.2 4-16 9.3-16.2 14.6-.2 6.7 22.1 9.8 13.1 16.6-22.8 17-54 10.7-54.8 14.7 13.9.1 41.4 1.9 60.8-15.6 7.4-6.6-15.9-12.5-14.7-17.6 2.4-9.5 33.9-19.5 50.5-18.3-2.5-.5-5.1-.8-7.7-.8Zm-338.5 1c-1 3.3-1.7 6.8-2 10.3.2-2.6.8-5 1.8-8 .2 1 .6 2.2 1.2 3.2-.7-1.6-.7-4.4-1-5.6Zm341.6 3c-3.5 0-8.6.8-14.2 1 14.3-.2 17.5-1.7 9.8 12.5-6.1 11.2 12.2 10 16.8 9.7-4.9-.2-15.6-2.4-11-10.2 6.2-10.7 4.5-12.9-1.4-13ZM235.6 193c-10.6.4-17.6 10-24.3 11.8 6.8 4 16.2-12.6 32.2-10.4-2.5-1-5.2-1.5-8-1.4Zm176 3.4c-10.5 4.5 2.9 45.7 15.2 37.5-14-5.7-13.7-22-15.1-37.5Zm-174 .3-.7.1c6.4 8.8 19.3 25.2 12.5 40.8-18-.4-61.9 10-70.7 16.8-12.7 9.9 12 16.2 7.6 20.7-8 8.4-31.6 10-46 4.8 8.3 7 41.6 5.6 48.8-4.8 4-5.8-18.5-11.1-10.7-18.3 8.6-8 51-17.8 74.4-17 .4-1 2-2.2 3-4.8 4.7-11.8-9.5-36.9-17.4-38.3h-.8ZM443 214.2c-6.9.3-14.6 16.1-17.3 16.8 8 4.2 12.4-15.8 20-15.8-.8-.7-1.8-1-2.7-1Zm1 3c-1.6 4.9 9.3 8 3.7 28.3-5.5.5-13.2-1.6-20 6.5-2 2.6-9.5 32.2 2.3 43.6-15.9 16.2-45 18.6-48.6 21-2.2 4.5 35.2-3 49-17.6 3.9-4.2 36-32.1 39.2-30 1.8 1.2-5.6 20.5-4 23.6 1.7 3 17.2-12.8 20.3-19.7-5.5 8-16.1 19.2-16.7 16.5-1.6-6.8 7.3-25 0-22.7-7.2 2.2-30 19.7-35.3 25.5-5.3-1.5-7.4-27.7-2.2-38.7 3.6-8 18.4-2 20.6-8.6 3.7-11.4-1-26-8.3-27.8ZM30.6 233.6c-3-.1-5.7 1-6.9 4.2-1.6 4.3 6 14.6 2.2 18.8-4.1 4.6-9.6 4.3-16.4-4 1.8 4.2 10.2 10.9 17.8 4.4 5.1-4.3-4.4-13.4-2.3-19.2 2.2-6.1 11-3.1 16 .9 6.4 5.1-3.4 10-2 16 3.1 14.3 35.5 15.1 42.6 13.2-4.3 15-1.4 45.9 23 36.4-20.3 7-25.9-20.3-20.2-38.2-13.5 3.8-42.1.4-43.8-10.8-1.5-9.2 10.6-11.7-.6-18.5-3-1.8-6.4-3.2-9.4-3.2Zm257.8 7c-1.6.1-5.4.7-8.4.9-4 .2-21 .7-21 1.2-.4 1 15.6-.3 19.5-.4a40.8 40.8 0 0 0 9.9-1.8Zm-48.3 1.8c-1.6 0-3 .2-4.5.4 5.7.2 9.3-.2 11.6.5-.1 2.3-1.4 7.5-2 13.6-1.4 12.9.3 29.7 22.5 29.6-24.5-5.7-17.6-27.6-16.6-43.7-1.5-.2-6.2-.6-11-.4Zm-232 8.2c-2 7.8-.3 28.4 3.5 33 2 2.4 2.3-4.6 6.1.6 4 5.5 7 20.3 4.2 27.7 5.2-6 1.2-19-2-26.8-4.4-10.8-8.7.9-9.8-6.1-1-7.2-3.5-16.3-2-28.4Zm126 7.5-6 .1c10 1 12.7 1.3 12.7 4.8 0 5.3-13.5 14.4-6.8 19.5 6 4.6 7.8 2.8 23.2 4.8-15.7-3-21-3.5-20.4-9 .5-5.7 9.6-11.6 7.8-16-1.3-3.1-5-4-10.5-4.2Zm-16.3.1a76.2 76.2 0 0 0-29.3 5.1c-4.5 15.1-7.2 35 7.2 39.7 7.5 2.5 14.4-7.9 21.7-6.4 12.2 2.5 18.2 21 10.9 32.8 10.1-7.3 5-34.5-12.6-34.7-9.1-.2-16.2 9-20.3 6.8-10.4-5.5-9-24.6-5.6-37.4 10.4-3.9 15.9-5.2 38.5-5.8h-10.5Zm378.9 8.6c-8 4-8.4 19.6-4.5 28.2-2.5-8.4-2.5-22.3 4.5-28.2Zm-201.2 2.4c-11.7 0-18.6 12-30.4 13.7 10.6 5.5 20.6-13.4 35.7-12.8-1.7-.6-3.5-.9-5.3-.9Zm-40.8.8c-1 .4-.5 4.2 2 7.3 2.4 3 6.9 5.1 8.2 4.6.6-.2-3-2.6-5.6-5.6-2.6-3-4.1-6.5-4.6-6.3Zm43 2.4c-.5 0-.8.5-1 1.2-.3 1.7 7.4 6 7.2 14.2 0 4.8 3.4 16.5-10.2 14.9-14.4-1.7-33-2.2-34.2 21.3-.4 8.2-2.7 14.1 3.8 23.4-17 2.4-66 10.2-69.2 17.7-3.5 8.5 14.8 11 12.8 14-2.6 3.8-24.2 6.2-43.2 3.5 3.6 6.8 39.4 6.4 48.3-2.8 3.5-3.7-15.9-7.9-13.2-13.8 3.5-7.7 62.6-16.5 72-16.2-9.7-12.9-6.7-20.6-6-25.8 1.9-14.6 5.6-21 22.6-19.4 13.8 1.4 22 2.8 22-16.4.1-7.8-7.7-15.6-11.1-15.8h-.6ZM20 295c1.8 11 1.6 16.4-2.7 8-1.6-3.1-4.8-7.6-4.8-2.8 3-3.1 7.2 12.4 8.5 8.2 1.8-6.2.2-13.4-1-13.4Zm358.2 0c-16 .1-46.7 12-52 22.6-3 6 18.6 10.3 12.8 14.6-25.1 18.5-62.4 13.5-62.2 17.2 9.2 1.3 50.8-1.2 68-18.4 4.8-4.8-15.8-9.9-11.8-15.3 7.2-9.7 37-19.9 53.4-18.7-1.6-1.4-4.5-2-8.2-2Zm57.7.8c-5.9 5.5 6.6 20.8-1.4 30.7-7 8.7-20 .8-27.6 13.5-5.3 8.8-8.5 26.1 6.4 24-8-5.3-6.9-14.4-1.9-22.7 7.5-12.3 19.2-2.8 26.5-13.7a29 29 0 0 0-2-31.8Zm-55 2.4c-.5.1-.9.5-1 1.2-3.3 10.8-8.5 12.5-8.3 17.9 0 3.3 2 4 9 2.8-2.7-.6-3.7-3-3.6-4.5.3-4.6 4.7-9 6.8-14 .5-1.1-1.5-3.6-2.9-3.4Zm-263.4.6c8.4 12.2 9.5 22.6 3.8 28.4-3 3-18.4-11.1-25.4-5-10.4 9-5.2 32 3.5 40.4-12.3 1.2-32-2.8-40-12-3.4-4 4-7.5.8-12.5-4.2-6.4-27.7-16.7-29.1-11.3-.2 1 0 2.2.5 3.5-.2-.8-.1-1.3.3-1.6 5-4.6 20.8 6.3 27.4 10.4 3.4 2.2-4 9.5-1.1 12.3 9.5 9 27.3 15.8 45.2 12-9-10.4-14.2-28.7-6.3-38 4.8-5.7 19.4 7 26.8 3.7 8.7-3.8 3.8-28.5-6.4-30.3Zm-102.7 3.7C13 317.4 24 341 37 346.5c9 3.8-.1-6.6-4-13.2 3.2 6 8.7 12.8 6.5 12.3-12.7-2.6-24-24.1-24.7-43.1Zm268 4.1c-1.3 0-2.3.2-2.2.4 0 1 14.6 2.4 14.5 1.1 0-1-8.2-1.6-12.2-1.5ZM100.3 326c-2.6.2-4 6.9-3.4 14.6.5 8.2 3 17.5 8 21.2 4 3 47.9-5 65.9 5.5-11.9-13-54.3-6-64.2-7.5-9.8-1.5-10.9-34.3-5.7-33.7-.2 0-.4-.2-.6-.1Zm-63.7 3.4c-7.9-.1 7.6 15.2 6.3 20 4.6-6.6-10-16.3-6.3-20Zm17.5 8.7c3.3 3.6-6.7 9.4 5 17.4-9-10 5-13.7-5-17.4Zm382.7 6.7c-8.8-.2-16.5 11.8-23 18.4 8-5.8 15.2-14.8 24.7-18.2-.6-.2-1.2-.2-1.7-.2Zm-2 2.9c-.2 0-.3 0-.4.2-3.2 3 3.9 15.8-3.2 26.9-9.2 10.6-32.4 20.5-46.3 26.2 9.9-.4 35.9-13.5 43.3-21-4.1 12-10.1 21.5-2 20.4-6.7-2 3-16.4 5.7-23.8 10.7-7.1 16.8-15.3 27-24.4-6.3 4.6-17 16.3-23.3 19.4 5.8-10 1.5-23.9-.8-23.9Zm29.1 2.2c-15.6 28.8-5 15.5 6.8.6-11 10-21 29-6.8-.6Zm-189 2c-1.3.5-2.7 2.8-2.2 3.5 4.7 6.1 11 16 10.7 18.8-1.5 18.5-13.5 11.8-26 10.5-8.5-1-20.3 3.5-21 10.8-1 11 8.6 19.6 15 17.7-7.5-4.9-10.8-10.7-9.5-17.8 1.8-10 20.7-8.7 28.4-7.3 11.9 2.2 17.8-7.3 18.3-14.7.3-4.8-5.9-13-12.5-21.1-.3-.5-.8-.5-1.2-.4ZM109 365.3c-1.3 1.6 14.2 15.1 12.3 27.8 6.8-8.5-11-29.3-12.3-27.8Zm49.4.1c4.4 3.7 3.2 5.5.4 8-6.8 6-7 8.7 4.2 12.1-7.1-5.9-3.2-7.2-.3-9.9 5-4.6 4.7-9.7-4.3-10.2Zm-53.7.8c-1-.9 13.5 18.2 9.7 26.3-2.4 5-21.7-11.6-26.5-5.2-2.2 3 5.6 16.1 12.9 22.1-7.9-8.4-14.5-18.5-10.8-21 5.8-4 21 12.4 27 6.4 6.9-7-7.7-25-12.3-28.6Zm339 16.2c-3.2-.3-12 11.2-16 16.3 4.5-5 13.2-14.4 14.3-14.2 1 .3-.6 4.8-1.9 6.6-6.9 9.8-17.6 13.7-23.7 21.7-4.4 5.4-9.5 10.4-9.9 17 .9-4.7 7-11.8 11-16.1 8.1-9.6 15.3-13.2 22.5-21 3-3.2 5.4-9.2 4.3-10.1a.9.9 0 0 0-.6-.2Zm-54.4 2.8c-16.8.2-52.2 16.7-50.5 22.4 1 3 11.1 4.4 8.6 7-10.9 11-46.7 13.3-50.1 16.2 19.8-1.5 46-7.5 56.7-18.1 2.2-2.1-11.5-4.7-10-7.2 2.4-3.7 30.5-18 48.3-20.2l-3-.1Zm-.4 2.4c-2-.8-21.8 23.3-5.4 14.8-6.8-1 9.7-13 5.4-14.8Zm-297 4.3c3.7 12.3 11.8 22.5 22.4 17.9 6.1-2.7 27.4 10 31.4 24.2-.7-12.1-20-28.7-31.7-26.2-11.8 2.6-11.2-.4-22.1-15.9Zm-25.1 9c-2.1.2 7.6 7.3 12.5 13.3.7 1-4.8-3-6.2-3.2 1.3 1.3 9.7 6.4 8.8 4.6-2-3.8-14.6-12.8-12.6-12.6 3.8.5 34.1 15.4 26.6 18 10.3-2.7-19.8-16.8-27.5-19.6-.8-.3-1.3-.5-1.6-.4Zm213.6 1.4c-8.9.7-17.3 6.6-25.8 9.4 7.7 2.4 17.9-9.5 34.7-8a19.4 19.4 0 0 0-9-1.4Zm3.4 4c-.6.2-1.2.6-1.6 1 4.5 4.5 9.2 7.5 10 15 .6 3.3-1 5.4-2.5 8.1 1.8 1 2.7.2 4.6.2 2.4-3.1 3.5-7 2.8-10-1.3-5.5-8.8-14.9-13.3-14.2Zm-159.4 7.4c22.8 25 24 32.9-27.9 9.7 36.8 24.8 66.4 20.9 27.9-9.7Zm-31.8 2.6h-.5c-1.3.6-1.5 4.3 1.6 5.7.8-2 .2-5.4-1-5.7ZM283.5 431a308 308 0 0 0-62.2 11.6c-6.5 2.3 14.1 8.8 10.5 9.6a99.2 99.2 0 0 1-36.5.8c8.3 2.7 32.4 4 41.9-.6 4.7-2.3-15.3-7-11.2-8.4 17.5-6.3 38.5-8.1 65-13-2.5-.1-5-.2-7.5 0Zm118.3 2.5c-8.7 1.3-44.5 29.1-20.8 9.4-29.3 22.3 16.6-9.1 22.2-9.3-.5-.2-1-.2-1.4-.1ZM291 434c-6.5.3-7.1 7.2-7 12 0 5.4 5.8 9.2 13.7 7.4-5.4-2.3-8-3.1-8.4-8.6-.4-5.1.4-7 3-10.8H291Zm-137.8 3.6c-4.4 0-7 .2-7 .5.5 1.8 37.6-.3 56.3 7.1-9-6.2-36.4-7.7-49.3-7.6Zm-12.5 2.8-.6.1c-3.2 1.6 6 13 14.7 16.7-10-7-11.7-16.7-14.1-16.8Zm4.6 1c5.2 11.5 10.8 18 24.2 17.2 8.9-.5 20.2 1 26.8 7.7-6-7.4-15-9.7-29.4-9.6-10 .1-17.8-8.7-21.6-15.3Zm183.2 0c-8.3 0-24.3 10.1-29.2 10.6 6.7 2.6 17.3-8.4 32.1-10-.8-.4-1.7-.6-2.9-.6Zm49.1.8c-9 1.6-32.1 9.5-39.4 16.7-1 1 5.6.7 4.7 1.5-8.6 7-37.2 10-43.4 14.3-2.8 1.9 6.4 2 4 3.3-6.5 3.6-24.7 2.2-30.4 7.1 4.5-2.5 30.6-5 33.4-7.4 2-1.6-7.2-2.9-4.3-3.8 10.9-3.4 35.2-6.4 44.5-14.5 1.8-1.6-8.7 0-3.6-2.8a170.5 170.5 0 0 1 33.2-13.5c2-.4-5.9 4.7-7.9 7.2 2.5-1.5 11.6-8.6 9.2-8.1Zm-187 1.4c5.8 4.1-11.2 7.7 2.4 11-5.1-6 11.8-9-2.4-11Zm137.8 1.3c-1.2 0-2.5.2-4 1 7 2.6 1.9 11.1-5.4 11.4-7.2.2-13-.3-19.6 3-6 3-10 7.4-7.9 13.7-12.1 1.7-35.7 5-44 6.9-1.2.2.7.8 2.6 1.3-.8-.6.2-1.3 1.1-1.6 7.9-2.2 32.2-4.3 46.1-6-1.2-3-2.7-6.3 1.2-10.5 4.1-4.4 10.8-5 20.1-5.5 5.3-.3 10.6-3 13.5-7.6 1.6-2.7-.2-5.9-3.7-6.1Zm-145.1 15.6c3.1 2.5 8.3 7.4 5.5 7.5-6.5.3-26.7-6-23.8-2.1 11.1 15 46.2 11.4 65 15.3-15.8-4.4-51-1.7-61-13.8-5-6 21.8 5.5 24.2 1.6 1.3-2.3-6.5-6.7-10-8.5Z"/><path vectornator:layerName="path" fill="url(#d)" d="M349.6 16.8c-3.8 1.4-5.4 1.3-7.2 3.4 1.1 1.4 4.4 2.7 6.1 3.7 13.2 7.2 10.7 6.5 5.1 11.6 10.5-5.1 2.6-7.5-4.8-11.6-3.4-2-3.2-1.9-5.7-3.7 1.7-1.4 3.6-2.3 6.5-3.4Zm-44.4 12c-.3 0-.1.3-1 .4 4.3 4 18.2 22.9 25 18.7-7.9.5-16.5-12.3-24-19Zm80.3 4.9c1.6 2.2 1.3 2.8.5 3.4 4 .6.6-2.5-.5-3.4Zm-44.7 10c6.3 1.8 11 5.1 15 10 3.2 3.8 5.5 8.2 3.4 11.6 6.2-3.4 1.4-8-3-12.8a26.4 26.4 0 0 0-15.4-8.7Zm-2.4 1c-2 1.9-4.9 5-4.1 5.7 2 1.8 4.2-2.1 4-5.8Zm5.1 19.4c-1.6 0 0 7.2 2.8 12.7a51.2 51.2 0 0 0 15.2 18.5c-.1-.8.3-1.5.8-2C351 83 352.2 80.5 347.7 74.1c-4.4-6.4-1.7-9-3.9-10l-.3-.1Zm87.8 5.9c1.2 3.2-1.9 3-4 3.2 12.7 12.4 21 22.2 21.9 27.5-.8-7.7-13.1-19.4-20-26.7 3.6-.4 2.8-3.4 2.1-4Zm-9 2.3c-9.1 6-11.7 8.2-7.2 12.3-3.1-3.7 1.1-7.9 7.1-12.3Zm-24.6 14c9 3.5 2.6 17 9.7 15.7-5-2.8 2-12.7-9.7-15.7Zm-12.8.6c-16.7 5.3-24.7 16-33.6 19 4.2-1.2 9.4-4.1 13.7-7.6 6 3.4 10.8 8.4 14 14.5 3.5 7 9.4 16.7 1.8 21.5 10-4.8 7-12.1 1.3-21.6-3.5-5.8-9-11.3-14-15.8 5.5-3.7 10-6.3 16.8-10Zm33.2.2c9.6 6.6 9.7 11.8 1 17.5 12.8-7.4 7-12-1-17.5Zm-106.7 3.5c9.3 6.5-6.5 16.5 5.1 17.2-6.5-4 9.5-14.2-5-17.2Zm-86.4.6c-6.8 20.7-2 31.2 5 39.5 6 7.1 18 24.5 8 38.3-7.3 10-22.3-3.6-32.9 3.4-9.9 6.5-7.9 20.6-.2 30 13 15.7 27.8-13.7 37-5.1 16.7 15.3 18.5 33.3 12.1 43.2-2.6 4-4.6 18.9-3.1 27.7 1.4 9 6.4 11.9 14.9 17.3 10.1 6.5 21.2-8.9 31.8-13.1 9.2-3.7 23.7 27 4 34.2 21.6 2.8 15.3-40-3.8-36.2-13.8 2.7-22.2 18.7-34.4 13-14.7-7-12.4-28.2-9.2-40.8 31.6-3.3 56.9.3 72-19.5 5-6.4-21-13.8-15.3-18.3 6-4.8 23-11.4 23.3-11.4-11.4 2-16.3 2.3-26.1 11-7 6 18.5 12.6 13.6 18.4-14.1 16.7-40.9 18.4-64 17 3.9-15.9 2.7-27.4-11.7-41.8-11.6-11.6-27.6 14-36 6.7-10.7-9.3-10.7-23.5-6.2-29.8 7.5-10.4 26 6 37.8-5.1 9.8-9.2-2.5-27-7.8-38.6 6.6-.9 14.6-1.7 22.5-2.9-9.7 1-19.4.8-25.2 1-6.9-13.2-10-22.3-6-38.1Zm65.8 1.5c-7.5 2.4-7.3 1.4-15.4 5.7-11 6 14.7 10.3 10.6 17.4-3 5.1-8.7 8.2-15.7 10.2a44.6 44.6 0 0 0 17.5-6.5c11-9.2-22-16.6-10.5-21.4 4.5-1.9 6.9-3.1 13.5-5.4ZM270.4 126Zm171.1-25.4c-1.4 0 3.3 10 5.8 13.2 2 2.4 7.2 9.4 7.6 8.5.2-.6-4.8-6.4-7.3-9.6-2.7-3.6-5.3-12-6-12Zm17 17.3c.3 6.5-.2 6.1-1.3 8 3 1.4 2.6-4.7 1.3-8Zm4.9 2.3Zm7.4 12c1.4 3.2 2.8 6.7 4.2 11 .8-.4-1.1-5.2-4.2-11ZM360 134.4c-4.2 1-3 20.4 11.7 27.5-17.6-14.5-6.4-26-10.7-27.4a2 2 0 0 0-1 0Zm117.2 13h-.2l4.5 14.4c1.2 4.5 3.8 15.8 6.8 13.8-3 1-5.3-9.2-6.6-14.3-1-4.1-2.6-8.2-4.5-14Zm-2.7 1.5c-2.4 2-5.2 5.6-5.7 6.2-4.3 5.6-5.9 10.1-3.6 14.5-1.5-3.3 1.2-9.6 3.8-13 2.5-3.5 3.7-5 5.5-7.7Zm-77.7 2.8c-.6 0-1 .1-1 .8-.1 2.4 18.7 18.1 17.3 36 2.2-1.8 1-1.2 2.4-2.4 1-15.5-14.6-33.6-18.7-34.4Zm-8.5 2.7c-2.4.1-11 9.2-9.6 9.8 1.4.6 11.7-8.3 10-9.6l-.4-.2Zm77.2 15.8c.5.8 1 1.7 1.8 2.5 5.7 5.7 5.1 6.2 4 10.2a24 24 0 0 1-6.3 9.8c9.9-9.5 9.7-15 1-22l-.5-.5Zm-15 3.6-.6.1c-1.1.4 3 1.1 2.3 9.1-.3 4-1.6 9.3-.3 11.3.9-.3.1-.6 1-.4-1.6-4.3.3-7.6.6-11 .5-5.9-1.4-8.9-3-9.1Zm-9.8 1.4c-2.4.3-12.4 5.7-28 17.2-.7 25.5 6.1 39.2 11.4 37.5 1.5-.5-7.6-5-8.8-35.8 20.8-16.5 26.1-17.6 26-18.8h-.6Zm49 2c-.4.1-1.3 1.5-.7 2.4 1.3 2 .6-2 .7-2.4Zm-137.2 11.5c-4.3.3-9.3 1.7-13.1 2.7 7.5-.9 17.6-2.1 17.8 1.8.3 5.6-7.6 14.1-4.1 17.2 9 8 40.7 2.4 54.1-9 0-.7 1-3 .5-3.2-7.1 7.4-38.7 20.6-51.5 13-4.7-2.8 7.7-12.6 5.8-18.2-1.3-3.7-5.1-4.6-9.5-4.3Zm141.5 8.2-.2 1c0-.5 0-.7.2-1Zm.2 10.8a857.5 857.5 0 0 1 .7 9.5l-.2-3.4c0-1.4-.3-3.7-.5-6Zm-46.1 8.2h-.1c-.5 1.5 5.4 9.5 5.7 17.3.7 16-5.8 15.7-4.5 16.9 1.3 1.2 7.7-4.9 7.3-16.7-.4-9.3-7.4-17.6-8.4-17.5Zm-6.1 2.6c-4.3 3.8-8 9-11.5 13.6 6.3-2.9 9-8.2 11.5-13.6Zm54 4.9Zm-1.6 13.2c-2.9 7-6.3 11.8-9 19.4-1.8 5.2 2.9 8.2 2.9 10.8 0 1.3-.3 2.7-1 4.3l1.3-2.6c1-2-1.6-4.7-2.7-8.5-1.3-4.3 6.1-15.7 8.5-23.4ZM442 249.5c-2.4.1-4.7.5-4.7 1 .1 1 9.7 1.2 9.6 0 0-.8-2.5-1-4.9-1Zm-6.3 1.2c-5.6-.3-6.8 14-6.7 20.4 0 7.5 1.2 19 4.6 20.6.4-.7 2-1.7 2.4-2.5-5-4-3.8-11.7-4.3-17.6-.7-7 5-20.8 4-20.9Zm38.1 16.6c-1.8.4-.2 4.6-2 10-1.3 4.4-4 10.5-1.6 11.6-.2-3.9 2.2-8.6 3.3-13.2 1.2-4.6 2.1-8.8.3-8.4Zm21.8 1.5c-3.7 3-5.8 14.5-3.6 21.8-1.5-8 .2-18.4 3.6-21.8Zm-30.2 2.6a242.8 242.8 0 0 0-29.5 23c11.6 17.7 6.1 35.3-8.1 42.2 20.5-7 20.4-34.8 11.4-43.6 6.4-6.4 23.7-18.6 26.2-21.6ZM85.7 295.2c5.1 8.9 10.3 10.7 16 9.3 6.6-1.5 13.1-7.9 17.5-5.8 7.9 3.7 13.2 19.7 7.2 28.6-6.1 9.2-18.3-5.3-27.6-2.5-9.3 2.7-2.6 33.3 5.5 39a55.7 55.7 0 0 1-47-12C61 362.8 90 372 104.8 365.2c8.9 8.4 19 24.7 12.2 29.9-6.5 5-22.6-9.1-26.7-5.3C88 392 99 410.4 107 412.7c5.4 1.6 10.7-3.7 18.2 2.7-6-7.4-9.4-4.2-16.6-4.1-9.8 0-19.4-19-17.3-21 3.7-3.5 20 13.7 28 5.6 6.6-6.8-6-22-11.7-31.1 22-.8 52.7-4.7 51 7.8 2.5-2.4 2.6-4.3-1.2-7.7 14.4.6 8.7 9.6 3 13.3-4 2.6 3.2 7.6 6.4 8.7 12 4.3 37.2 3.5 50-5.5 3.7-2.5-18-12.3-15-14.1 17-10.3 48.6-11.8 68.2-15.8-17.7 1.6-51.8 4.8-69.9 14.6-4 2.2 17.2 10.7 13.4 14.3-5.5 5.2-20.6 7.8-33 7.4-12.5-.4-23-4.6-17.7-8.4 27.5-19.4-25.5-17.5-56.3-16-10.5-5.8-14.6-35-7.6-37.2 8.7-2.7 22.3 11.6 30 1.3 6.6-9 1.1-27.1-11-30.3-5.5-1.5-11.4 4.6-16.7 6.2-7 2-11.4-3.3-15.4-8.2Zm347 1.8c-11 13.6-30 19.7-39.8 21.7 22.1-3 33.3-13.6 40.6-19.8.3-2.6-.3-1.4-.7-1.9Zm-48.8 1c5.5 2.5-8 17.2-5.8 17.5 2 .3 15.2-15 5.8-17.6Zm-13.1 2.3C358 303 345 306.6 336.2 314c-9.4 7.8 17.5 10.7 10 17.6-18.2 16.5-45.1 17.5-69.3 20.2 8 10.3 14.7 17 11 28.3-6 18-30.6 1.5-42.7 11.6-7.1 6-1.3 17.8 7.8 20.2-5.4-4.2-13.7-13.2-7.3-18.7 11.2-9.7 38.8 4.6 45.8-11.5 3.2-7.2-6.7-22.7-10.4-28.3 24.4-1.8 51.3-7.4 69-23 4.7-4-19.6-10-12.7-15.4 11-8.4 28.4-13.4 33.4-14.7Zm-95.3 6.8c-1.4-.2-2.9 1.2-4.3 3.4 1.3-1.4 2.7-2.6 4.3-3.4Zm-4.5 3.8c-8.6 10-8.6 30.8 2.7 38.9-10.6-10.7-7.6-30.6-2.7-39Zm146.4 25.8c-8 3-13 20.8-5.4 25.6 1.2-4.5-4.1-13.3 5.4-25.6Zm21.1 9.7c-.2 0-.4.1-.5.3-2.2 2.7 4.7 11.7-1.7 24.2 8.7-5 5-24.7 2.2-24.5Zm27.6 2.5c-.6-.3-5.7 11-8.7 15.9a75.7 75.7 0 0 0 8.7-16Zm-34.2.4c-5.7 4-11.3 10.5-17.2 14.6 9-4.3 12.8-10.4 17.2-14.6Zm28 3.4c-9 7.5-18 17.7-27.8 24.1-2.4 6.4-10.9 19.8-6.2 22.4-1.8-3.4 3.3-15.5 7-22 8.5-7.2 21-18 27-24.5ZM427 381.5c-12 9.8-21.6 14-40.5 21.2 13.8-4.6 25.2-8 40-19.9.2-.7 0-.4.5-1.3Zm18.2.2c-.6 0 3 5.2-12.2 18.2 11-7.4 15.9-17.6 12.2-18.2Zm-53.4 4.5a6 6 0 0 0-1.2.3c4.7-.5-6 10-8 14.5 4.8-4 14.4-15.8 9.2-14.8Zm49.1 0c-2 .8-12.9 12.4-12.8 12.6a80.5 80.5 0 0 0 12.8-12.6Zm-54.7 1.8c-10.4 3-33.4 9.2-40.5 17.5-1.9 2.2 12 4.6 9.3 7.2-14.2 14-47 18.6-60.5 19-4.1 7.5-8 18.5 2.8 20.5-7.6-4.2-3.1-13-1.3-18.7 9.3-1.9 48.6-5.7 62-21.4 3.1-3.7-12.4-3.3-10.8-6 4-6.4 25.7-13.5 39-18Zm-99.2 17c15.9 14 11.5 20.8 9.2 25l6.2-3.3c1.9-9.2-7.8-18.7-15.4-21.7Zm-6.3.4c-9 .7-15 7.7-27.4 9.3 14.1.4 19.4-7.1 29.1-9.3h-1.7Zm143 2.8c-1.6 0-11.1 10.8-16 19.5 6.8-10.5 16.4-18.4 16.1-19.2 0-.1 0-.3-.2-.3ZM286.6 434c-20 1.8-45.3 5.6-59.7 10.3-3.1 1 15 6.6 12 8a76.5 76.5 0 0 1-39.3 2.8c11.4 2.4 33.8 3.5 41.8-2.2 2.7-1.8-16.2-7.6-13-8.5a664 664 0 0 1 58.2-10.4Zm94.5 7.3a59 59 0 0 0-10.8 9c.2.6 11.5-8.3 10.8-9Zm-50.3 3-2.3.1c6.2 2 7 6.7-2.8 13-4 2.7-18.3 1-25.4 5.7-5.1 3.4-4.5 10.8-2.2 10 1.6-.7-.6-5.6 3.4-8.9 8.5-6.8 19.2-2.3 27.8-7.3 5.9-3.4 11.9-12.7 1.5-12.6Zm-134.7.1c5.5 2.3-5.5 6.9-2 9.2.2-1.8 12.7-5.5 2-9.2Zm128 0c-1-.2-6.1 2-11.4 4.6a35.7 35.7 0 0 1-9.7 3.8c-2.8.2-4 .2-4 .5 1.7 1.2 11-1.8 17.1-4.7 5.8-2.8 8.2-3.6 8.3-4l-.2-.2Zm48.3.6c-10.3 2.7-22 8.4-30.3 12.7-2.2 1.1 5.8 0 4.8 1.7-4.2 6.7-45.2 14-45 15.4 0 .7 4.8 1.2 5.2 2.3.6 1.9-5.6 2.8-9 3.5 4.7.3 13-3.3 10.5-3.9-2.6-.6-3.9-1.8-4.2-2.4-.8-1.3 36.4-7.1 45.2-15 1.1-1.1-5.7-1.4-4.9-2.2 2.9-2.6 26-11.3 27.7-12.1Zm-178.1 8.7s-.1.1 0 .2l2.4.5-2.4-.7Zm-6.7 8.3c3.5 2.1 8.6 7.2 5.8 8-6.7 2.2-18.6-3.6-23.8-3.7-2.7 0 4.2 5 7.5 6.3-1.9-1-7.8-5.5-6.3-5.4 5.5.3 18.3 5.8 24.9 3.6 4-1.3-2.7-6.2-8-8.8ZM272 478c-13.3 1.5-25.2 3-21 4-.5-1 9.7-2.6 21-4Zm-74.2.6c12.1 1.4 25.5 3 25.7 2.7-.2-.4-13.8-1.5-25.7-2.7Zm32 3.6c-1 0-1.9 1-1.7 1 .6.2 3.4-.5 2.8-.8-.3-.2-.7-.3-1.1-.2Zm30.8.2c2.5 1.3-1.7 2-8.4 2.4 6.6-.3 12.8-.8 8.4-2.4Z"/><path vectornator:layerName="path" fill="#c4c4c4" d="M110.7 73.3c-4.5 0-18.4 4.3-21 2 0 4.1 14.1-.6 19.1-.6-4.5 8.3-11.2 18.2-5 24.8 3.2 3.3 13.7-5.6 19-6.8 4-1 3.1 5.2 3 10-.1 5-1.2 8.2-9.4 10.5-4.5 1.2-7.3-3.9-10.8-2.8-10.3 3.2-25.3 31.2-21 45.3-9 5.3-24.4 5-30.4 1.1-4.3-2.8 5.6-9 6.7-16 .6-3.7-8.3-5.5-12-4.9-3.7.7-8.3 3.5-10 5.1-2.7 2.8 0 13.3-2.5 16.1-6.3 7-13.9 5.4-14 .2-.3-9.1 7.4-22 13.4-30.5 1-1.3 1.8 4.3 2.5 3.9 3.4-2.2 7-7.9 9.6-11.6 3-4.4 7-13.8 5.7-16.9-.7-1.6-8.6 8-8.2 6.5 0 .5-.8 1.3-.8 1.7 0 1.6 7.3-8 8-6.3 1 2.7-2.4 9.3-5.2 13.9-2.4 4-5.4 9.1-8.8 11.3-.7.4-1.6-5.7-2.6-4.4-6.9 9.4-14.8 23.6-14.6 32.7.2 5.2 9.6 8.7 16 0 2.2-3-.3-13.3 2.4-16.1 1.7-1.7 4.8-4 8.5-4.6 3.7-.7 12 .8 11.3 4.6-1 7-10.7 12-7 15.6 6 6 25 4.5 34-.8-4.3-14.1 8.7-41.2 19-44.4 3.5-1 6.7 3.6 11.1 2.4a13.8 13.8 0 0 0 10.9-13.5c.1-4.7 1.7-11.8-2.4-10.8-5.5.9-16 12.4-20.2 8.5-6.6-6.2 1.2-16.9 5.7-25.2ZM218.3 131l-6 .3c6.5.1 8.7 2.3 8.8 2.2a36.7 36.7 0 0 1 11.4 27.2c-.3 8.4-3 13.6-16.4 10-12.8-3.6-27.9 1.2-25.2 16.2 1.8 10 2.3 23.4 20.3 22-11.1.2-17.7-13.2-16.9-24.7 1.2-15.6 15.5-14.5 27.3-11.7 6.3 1.5 12.2 2.2 15.6-12 1.3-5.5-3-17.2-13.6-29.2-1.2 0-1-.3-5.3-.3Zm-17.8 5.4a173 173 0 0 0-34.3 11.5c-3.5 1.8 11.8 11.5 8.8 15.7-8.4 11.8-33.5 13.9-44.7 10.9-11.9-3.2 10.4-19 4-23-8.1-5-25.5-1-44.2 7 2 17.2 2.9 20-1 31.6-1.3 4.1-3.2 13.9-14.6 5-6-4.7-11.4.4-12.6 9.6C60 217.6 62.6 230 74 220c4.5-4 8.4-1.2 9.7 2.5 5.4 15.7 9.8 26.6 2.4 40.4 36.8-10 51-3.8 56.3-1.7 7.1 2.7.6 9.7-5.2 17.6 8.5-8.9 12.8-15.2 6.5-19.2-11.4-7.2-38-3.4-55 1.1 5.8-12.3-.1-29.4-4-38.5-2.2-5.3-7.1-8-11.3-3.6-12.3 12.6-10.8-7-9.6-15.2.7-5.1 4-10.9 9.9-6.8 6.2 4.4 9.1 9.5 16.4-4.6a50 50 0 0 0 2.4-33.2c18.5-7.3 31.8-10.8 40.3-5.3 3.9 2.5-13.7 14.3-7.7 20 6.4 6 40.1 4 50-7.7 6.3-7.7-13.2-15.2-7.5-18 7.4-3.7 20-8.6 32.8-11.3ZM51.1 139c-3.2 0-6.5.7-8.4 2.4-3.4 3.2-.9 12.5-3.7 17.5-.8 1.5-2 2.7-3.2 3.7 1.8-1.3 4-2.3 5.2-4.3 2.8-5-1.1-14 3-16.2 4.6-2.6 16.7-2.3 13.4 1.7-3.2 3.9-9 10-6.5 15.7 3 6.6 25 7.3 36.4.7.9 13.2 1.8 29-6.5 34.4-4.2 2.7-9-5.3-14.1-5.5-11.3-.5-17.8 32.8-4 38.5 4.8 2 7.4-5.2 15.4-6.5 4.3-.7 9.7 30.6 5 37.7-7.5 11.3-36 3.6-41.2-2.3-2.6-3 8.4-10.9 5.2-15.8-5.6-8.3-21.3-11.1-26-6.5-6 5.8 4.5 18-.2 21.8-3 2.5-10-1.6-12.7-7.2.6-11.2 3-48.3-2.4-38.5 0-4.2-.1-7.1.1-9.8-.3 3.5-.5 7.2-.5 11.3 5.4-9.7 2.2 27 1.9 38.2 3.5 6.8 11.1 10.4 14.2 7.9 4.8-3.9-5.3-16.5.6-22.4C27 230.6 38 234 45 240.9c4.3 4.2-6.5 12-5 15.8 2.4 5.8 35.7 16.9 45.8 2.5 5-7.1-1-41.2-7.6-39.6-8 2-10.4 8.7-15.1 6.3-12.8-6.3-5-35 4-34.8 5.2.1 10.2 8 14.4 5.3 8.4-5.5 8-24.6 7-38-12.5 7.5-34.7 4.7-36.2 1-2.5-5.8 3.8-12.2 7-16.2 2.1-2.5-2.9-4.4-8.1-4.3Zm-31.2 21.5c-2 12-7.2 36.4-11 35.4.1 0 0 .4.2.4 3.7 1.6 9.4-21.6 11.4-33.5 4 4.2 9 2.9 13.5 0-4.3 2.8-9.8 2.3-14.1-2.3ZM207.8 173c-1.7 0-3.2.3-4.5 1.3 5.3-.4 18.3 5.3 27.7 1-11.2 1-18.2-2.2-23.2-2.3Zm23.5 21c-10.5.4-17.5 10-24.1 11.7 6.7 4 16-12.4 32-10.2-2.5-1-5.2-1.5-7.9-1.4Zm2 3.6-.8.2c6.4 8.7 19.4 25 12.6 40.5-17.9-.3-61.5 10-70.2 16.7-12.7 9.8 11.8 16.1 7.5 20.6-8 8.3-31.3 9.9-45.8 4.6 8.3 7 41.4 5.7 48.6-4.6 4-5.8-18.4-11.2-10.7-18.3 8.6-7.9 50.8-17.7 74-16.8.3-1 1.8-2.2 3-4.8 4.5-11.7-9.6-36.7-17.4-38a3 3 0 0 0-.8 0ZM27.8 234.3c-3-.1-5.6 1-6.8 4.2-1.6 4.3 5.9 14.5 2.1 18.7-1.9 2.1-4.1 3-6.6 2.6 2.6.4 5.3.1 8-2.2 5.1-4.3-4.4-13.4-2.3-19.1 2.2-6.1 11-3 16 .9 6.3 5.1-3.5 10-2.2 15.8 2.5 11.2 20.8 13.2 33 13-13.8 0-30-4-31.3-12.3-1.5-9.1 10.5-11.6-.6-18.4a20 20 0 0 0-9.3-3.2Zm41.1 33.9c3.2 0 8.1.7 9.6.3-4.3 15-1.4 45.4 22.9 36-20.3 6.9-25.9-20.1-20.3-37.9-3.3 1-7.6 1.5-12.2 1.6Zm166.9-25.3-4.5.5c5.7.2 9.3-.1 11.6.6-.4 6.9 2.9 15.4 3.9-.6-1.5-.2-6.3-.6-11-.5Zm-121.4 15.8c-10.5.2-21 1.4-29.1 5.1-4.5 15-7.1 34.8 7.1 39.5 7.5 2.4 14.3-7.9 21.5-6.4 12.2 2.5 18.1 21 10.8 32.7 10.1-7.3 5-34.4-12.5-34.7-9-.1-16 9-20 6.8-10.4-5.5-9-24.4-5.7-37.1 10.4-3.8 15.8-5.2 38.2-5.7-3.4-.2-6.9-.2-10.3-.2Zm10.2 0c10 1 12.6 1.3 12.5 4.8 0 5.3-13.3 14.3-6.6 19.4 6 4.5 7.7 2.8 23 4.7-15.5-2.8-20.8-3.4-20.3-9 .6-5.5 9.6-11.4 7.8-15.7-1.3-3.1-5-4-10.4-4.2h-6ZM8 280.2c.4 1 .4 3.3 1 3.9 1.9 2.3 2.2-4.7 6 .5 3.9 5.4 7 20.1 4.1 27.5 5.2-6 1.2-19-2-26.6-4-9.8-7.7-1.6-9.1-5.3Zm9.3 15c1.8 11 1.6 16.4-2.7 8-1.6-3-4.8-7.5-4.8-2.7 3-3.1 7.1 12.3 8.4 8 1.8-6 .3-13.3-1-13.3Zm96.8 3.9c8.3 12.1 9.5 22.4 3.8 28.1-2.9 3-18.4-11-25.3-5-10.4 9-5 31.8 3.5 40.1-12.2 1.2-31.7-2.7-39.7-11.9-.6-.7-1-1.6-.8-2.6-.3 1.3-1.3 2.8-.5 3.6a52 52 0 0 0 44.9 11.9c-9-10.4-14-28.6-6.2-37.8 4.8-5.6 19.2 6.8 26.6 3.6 8.7-3.8 3.7-28.2-6.3-30Zm-102 3.5c-1.7 14.8 9.2 38.5 22 43.8 9 3.8 0-6.4-3.9-13 3.2 5.9 8.6 12.7 6.4 12.2-12.6-2.5-23.7-24.1-24.4-43Zm20.6 23c-2.4-.4-4.1 0-4.5 1.3-.2 1 .2 2.1.7 3.4-.2-.7-.3-1.2.1-1.5 5-4.5 20.7 6.3 27.2 10.3 2.3 1.5.5 4.8-.6 8 .8-2.8 3.9-5.6 1.6-9-3.2-4.9-17.1-11.7-24.5-12.6Zm64.2.4c-5.4.4-5.2 28.5 4.5 35.7 4 3 11.6-.7 1.8-2.1-9.7-1.5-10.8-34-5.7-33.4l-.6-.2Zm-63.3 3.6c-7.8-.2 7.7 14.9 6.4 19.6 4.5-6.5-10-16-6.3-19.6ZM51 338c3.3 3.5-6.6 9.3 5 17.3-8.8-10 4.8-13.7-5-17.3Z"/></g><g vectornator:layerName="g"><path vectornator:layerName="Curve 11" fill="#fff" d="m297.6 40.4-3 .1c-.3 5-1.6 7.3-3.2 10.7-1.7 4-2.8 5.2-5.1 9.1l1.2.7.6.8.8.7c2.4-2.5 4.8-6.8 5.5-8.5l8.8 14.2 2.6-2-10-16.7c.5-2.6 1.6-4.8 1.8-9ZM267.4 44l-3 1.4 2 6.2-7.2 4-.2 14.6 3.6-2.5V57l13.5-7.3c2.1 13.2 3 16.2-9.2 36.4.7 1 1.5 2.7 3 4a50.1 50.1 0 0 0 8.5-44.7l-8.8 4.5-2.2-6Z"/><path vectornator:layerName="Curve 10" vectornator:shadowAngle="1.7" vectornator:shadowColor="#000000" vectornator:shadowOffset="1.8" vectornator:shadowOpacity=".3" vectornator:shadowRadius="2.8" fill="#fff" d="M479.4 193a11.2 11.2 0 0 0-4.9 1.3c-.6.5-.9.9-.8 1.2 0 .2.4.3 1.1.3l2.2.1c.7.1 1.8 0 2 .7l.2.5 4.6 17.8c.5 3 1.6 8.6 2 8.4.5-.3.9-1.6.6-3.5l-1.3-7.2-3.3-12.8-1.7-6.2c0-.3-.3-.5-.7-.6Zm-5 9.5c-1.5-.3-3 .7-4.4 1.6l-.1.5c.1-.3.2-.7.1-1.1 0-.2-.3-.3-.8-.2-.3 0-.7.2-1 .4 0 0-.2 0-.2.2v.1c0 .1 0 .2.3.3l.3.4v.6l-.8.7-.6.7c-2.5 2.6-4 7.7-2.9 10 1.2 2.5 3.7 3.7 7.8.4a17 17 0 0 0 4-5c1-1.8 1.3-3.8 1.1-5.8-.1-1.7-1.4-3.5-2.8-3.8Zm-2.2 2.5c2.5-.9 3.4 1.5 3.5 2.6.1 1.7-.5 3.7-1.6 5.1-1.6 2-5.4 6-7.8 2.2-1-1.5 0-5 2.8-7.8a8.8 8.8 0 0 1 3-2.1Zm9.4 6-3.2 3.5c-1.5 1.5-3.4 3.5-5.6 5.5-2.3 2-4.4 3.9-5.9 4.8a39.9 39.9 0 0 1-5.4 3v.4c0 .5.9.6 2.4.5 1.5-.2 2.5-.4 3-.7l1.1-1.2 1-1.1 3.8-3.1 1.2 5.4.4 1.6.7 2.1c.3.7.6 1.1.8 1 .5-.2.6-1 .5-2.4 0-1.5-.2-2.7-.4-3.7-.3-1-.2-1.7-.4-2.4l-.9-3.3 7.4-8.3-.5-1.5Z" filter="url(#e)"/><path vectornator:layerName="Curve 21" vectornator:shadowAngle="1.7" vectornator:shadowColor="#000000" vectornator:shadowOffset=".7" vectornator:shadowOpacity=".3" vectornator:shadowRadius="1.8" fill="url(#f)" d="m77 99.1-5 2.5 1.8 3.3-4.6 9.8c-.7 1.4-3.2 2-4.8 2.1-1.6.1-1.9-1.2-1.3-2.3l6-12-2.2-1.6-5.2 1.3-8.6 16.7 1.5.3s3.2-2.5 4.2-4.2c1.6-3-1-2.2-1.9-1.5l5.6-10.6 3.8-.9 1 1-5.4 11.3c-.5 1-.8 3 .2 3.4 1.8.8 7.4-.5 8.7-3.3l4.5-9.7-1.8-3.1 2.1-1 1.2 1.5 3-1.9-1.6.1-1.1-1.2Z" filter="url(#g)"/><path vectornator:layerName="Curve 22" vectornator:shadowAngle="1.7" vectornator:shadowColor="#000000" vectornator:shadowOffset=".7" vectornator:shadowOpacity=".3" vectornator:shadowRadius="1.8" fill="url(#h)" d="M38 179.3c-1.8.1-3.6.2-5.3 2.3-.8 1-1.2 1.8-1.6 3.9-.3 1.8.8 5.7 4.8 5.6 1 0 1.2-1.3 1.4-3.2-1 0-1.8-.2-2.4-.4-.7-.3-1.1-.9-1.1-1.4-.1-.9.2-1.7.8-2.3 2-2.3 7.2-.4 10 2.3 2.2 2 4.3 4.1 5.4 4-3.2-3.4-7.6-11-12-10.8Zm3.7 12.8-8.1.2c-.8.8-1.8 1.4-2.4 2.3-1.2 1.8-1.3 5-.9 9 .4-4.2 1.5-5.8 3-6.6.7-.4 2.7-.2 5.1 0 .6 5-.5 6.6-1.4 8.2l-5.4-.3-1.5 3.6 1.1.2c-.5.9-3.4 6.5-3.7 9.9 1.3-.7 11.6-.4 17 4.7.6-8.7 1.4-12 3.6-18.4h-2a30 30 0 0 1 3.6-12.6l-5.7.2-1.6 4.3c4.9 2.3 2.4 6 2.3 8.2l-6.1.1c1.8-3.4 1.2-7.8 1.1-8.3l2-4.7Zm-8.5 16.5c1 0 9.2-.2 10.8 2.3.1 3.2-.5 6.9-.4 9.7-2-2-8-6.7-13.3-6 .4-1.5 1.5-4.9 2.9-6Z" filter="url(#i)"/><path vectornator:layerName="Curve 20" vectornator:shadowAngle="1.7" vectornator:shadowColor="#000000" vectornator:shadowOffset=".7" vectornator:shadowOpacity=".3" vectornator:shadowRadius="1.3" fill="url(#j)" d="m124 30.3-1.9.3a236.4 236.4 0 0 0-23.9 22.8l2.4-.4c5-5.5 10-11 15.8-16.1 1-.4 4.3-1.6 4.8-1.1.1 0-3.2 3.4-5.9 6l2.6-.5c2-2.2 6.9-6.4 6-6.9-.8-.3-3.1.4-3.6.5-.6 0-1.7.5-2.5.7l6.3-5.3Z" filter="url(#k)"/><path vectornator:layerName="Curve 17" vectornator:shadowAngle="1.9" vectornator:shadowColor="#000000" vectornator:shadowOffset=".7" vectornator:shadowOpacity=".3" vectornator:shadowRadius="1.7" fill="url(#l)" d="M162 191.6c-3 0-6.5.2-9.8.7-6.7.9-12.3 3.3-16.1 6.7-3.8 3.3-6.2 8.3-5.7 12.2.5 3.6 1.8 7 5 9 3.4 1.8 5.7 2.6 9.4 2.6l.1 2.2-4.3.8c-2 .2-3.3.1-4.3-.2-.9-.3-2-1.5-2.6-2.5l-2.3.1.7 6.5 19-2.7-.1-5.7c-6.3-.8-7.5-2.5-9.4-4a12.3 12.3 0 0 1-3.7-7c-.5-3.6 1.2-8.4 4-11 2.6-2.5 5.2-3.7 10.2-4.8 3-.7 8.8-1 12 .8 1.5.7 5.2 3.6 5.8 7.8.9 6.3-2 12.7-11 17l.3 5.5 21-3-.9-7-1.9.1c-.4.9-1.7 2.7-2.2 3.5-.5.7-1.3 1.3-3.4 1.6l-6.3.9v-2.3a23 23 0 0 0 10-6.4 15 15 0 0 0 2.5-10.7c-.5-4-3-7-7.6-9.1-2.2-1-5.1-1.5-8.3-1.6Zm-34 2h-1.4l-1.1.5c-.5.3-1 .8-1 1.4-.2.5-.1 1 .2 1.4.4.6 1 .9 1.6 1h1l.7-.2c.6 0 .8.5.6 1.3-.2 1-.8 1.7-1.7 2.2-1 .5-2 1-3 1.3l-.2 1c4.2-.9 6.7-2.7 7.4-5.6.2-1 0-1.8-.6-2.7-.5-.9-1.5-1.5-2.6-1.6Zm68 99.7-4 2.4-16.7 1.9-5.8-1c.5 2.6 2.3 13.8 6.8 32.5l-4.9.1-2.4-.9 2.7 2.6c2.2-.6 4.4-1 6.6-1.3l38.1-4.4-7-2.6-4.4 2.8-6.6-28.8 3.3-1.4-5.7-2Zm-2.9 3.1 1.7 9-18.3 2-2-8.9 18.6-2Zm-45 .6-.8.5c2.9 1.9 4.7 3.4 5.5 4.5.8 1.2 1.6 1.2 2.7.2 1.2-1.1 1.4-2 .7-2.5s-3.4-1.4-8-2.7Zm11 5.7-1.7 1.7-18 1.8 2.4 1c1.8-.5 3.6-.9 5.5-1l9.5-1a37 37 0 0 1-7.8 9.5c-3 2.7-6.4 5.1-10 7.1l.8.4c5-2.5 9.2-4.9 12.4-7.2.9 9.2 1.3 14.7 1.3 16.8l4-1.9c-.3-1.8-.9-6.7-1.6-14.6 3.9 1.4 6.4 2.6 7.6 3.7 1.3 1 2.3 1.3 3 .4.6-.8.8-1.6.5-2.2-.2-.7-2.4-1.5-6.7-2.3 2-1.4 4-3 6-4.6l2.3-.6-5-1.6c-.8 2.3-2.4 4.6-4.4 6.7l-3.5-.6-.1-1.6c1.8-2.3 3.6-4.5 5.3-6.9l3-1.1-4.7-1.9Zm35.9 3.5 1.9 9.1-18.6 2.1-1.7-9 18.4-2.2Zm2.2 9.9 2.1 10.3-18.7 2.2-2.1-10.3 18.7-2.2Zm21 72.4c-1.1 0-2.3.1-3.4.3 3 .6 4.5.5 5.7 2.8.2.5-.4 1.2-1.3 1.7-1 .6-4.7 1.7-6.3 1.8 0 0-23.4 2-33.6 2.4H168s2.7-2.5.3-4.5c-2.4-2-8.3-1.1-9.5-1-3.3.6-.9 2-.1 2.3.9.4 2.2.4 2.9.4 1.7-.1 2.1-.4 2.7-.5h2.2c.3.1.2.6.2 1-.3 1.8-2.3 2.3-2.3 3.8 0 1 1.3 1.9 2.3 1.8 8.5 0 15.7-.4 25.2-.8 7.8-.3 18.2-1.5 23.8-.3 6 1.3 13.6 3.7 13.8 6.5.1 1.3-.7 2.4-2 3.3a19 19 0 0 1-8.3 2.8c-2.7.1-11.5-.2-13.3-.8-1.7-.6-5.1-.7-6-1.7-.7 1-2.1 1.1-3.8 2-1.7.8-6.1 2-9 2.2-2.5.1-9-.2-10.8-.9-1.8-.6-2.7-1.4-2.8-2.4-.1-1.7 13.6-2.3 10.1 1.4 1.6.5 2.8.6 3.5 0 3-2.6-2.3-4.7-7-5a27 27 0 0 0-7.8.7c-2 .6-2.5 2-2.4 3.3.1 1.8 1.8 2.7 4.5 4.1a35 35 0 0 0 26.7-2.4 53.2 53.2 0 0 0 17 2.4c6.2-.2 9.9-1.5 12.6-3.2 2.5-1.6 3.4-3.3 3.3-5.2-.1-1.9-1.9-3.1-4.5-4.6-2.6-1.5-8-3.3-12.2-4 4-1.6 7.6-3.3 7.3-6.5-.2-2-3-3.2-6.3-3.2Zm-56.5 4.2c.7 0 2 0 2 .3s-1.4.6-2.1.6c-.7 0-1.8-.3-1.8-.5 0-.3 1.1-.4 1.9-.4Z" filter="url(#m)"/><path vectornator:layerName="Curve 14" fill="#cacaca" d="M340.4 130.8a48.4 48.4 0 0 0-6.4 2.3 51.5 51.5 0 0 1-7 1.8c-.3 0-.4.4-.3.8.1.3.3.5.6.4 2.8-.7 4.4-.4 4.8 1 .2.6.1 1.3 0 2l-5 22.2-11.4-8.7 3.6-9.3c1-2.2 1.8-3.7 2.7-4.5.8-.8 2-1.5 3.6-2 .4-.2.6-.5.5-1-.1-.3-.3-.4-.6-.3a65.9 65.9 0 0 0-6.7 2.3 62.6 62.6 0 0 1-7 1.9c-.2 0-.3.1-.4.3 0 .1-.1.3 0 .4 0 .4.3.6.5.5 2.8-.8 4.4-.5 4.8.8.2.6 0 1.3-.3 2.3l-2.8 7-6.4-4.8c-.9-.7-1.4-1.2-1.5-1.6-.3-1 1-2 3.6-3 .2 0 .3-.2.2-.6-.1-.4-.4-.5-.7-.4a80.5 80.5 0 0 0-8 2.7l-3.6 1c-1.2.2-2.5.6-3.9 1-.3.1-.4.3-.2.7 0 .2.1.3.3.4h.4c1.7-.4 3-.4 3.9-.2 1 .3 2.3 1.1 4 2.5l9.7 7.6-4.4 11.5-18.8-15.7c-.5-.4-.8-.8-.9-1.1-.2-.7 0-1.4.7-2 .7-.7 1.7-1.2 3-1.7.3 0 .3-.3.2-.7-.1-.4-.4-.5-.7-.4a111.3 111.3 0 0 0-9.1 3 75 75 0 0 0-8.4 2.3c-.3.1-.4.4-.3.8l.3.3h.5c2-.4 3.6-.5 4.9-.3 1.2.3 2.5 1 4 2.3l22.9 19.4c.2.2.5.2 1 0 .3 0 .6-.2.8-.5l6.3-15.7 12.7 9.9c.3.1.6.2 1 0 .4-.1.7-.3.7-.6l7.2-28.7c.5-2 1.2-3.3 2-4.2.8-.8 2-1.5 3.4-2.1.2 0 .4-.2.5-.4v-.5c0-.4-.2-.5-.5-.4ZM358 234c-.8-.2-1.7-.1-2.6.2-1.1.3-2 .8-2.6 1.4-.6.6-1.4 1.7-2.3 3.4-1.3 2.4-3.9 4.2-7.7 5.3-3.8 1.2-7 1.2-9.4 0-1.7-.9-3-1.4-3.9-1.5a6 6 0 0 0-2.8.2c-1 .3-1.8.8-2.3 1.4-.6.6-.8 1.2-.6 1.7.3 1.3 2.1 2 5.3 2 3 0 7.8-.9 14-2.8 6.2-2 10.6-3.8 13.1-5.6 2.6-1.8 3.7-3.4 3.3-4.7-.2-.5-.7-.8-1.5-1Zm15 4.5-19.8 7 .3.8c3.3-.7 5.5-1.5 6 .2l-24.3 29.8-4.4-19.9c-.6-2 5.6-4.3 8-5.5l-.2-.8-23.3 7.3.3.8c3.4-.8 7.4-1 7.6.4l5.2 23.6c.2 1.2-2.1 2.4-6.7 4.6l.2.7 21.9-6.6-.3-.8c-2.4.5-5.6.8-6.9.6l24.6-30.7 4 18.8c.7 2.2-1.7 3.7-5.6 5.6l.2.9 19.5-7.5-.3-.7c-3.6.8-6 1.3-6.2.6l-5.3-23.4c-.5-1.7 2.3-3.3 5.8-5l-.2-.8Zm13 105c-4.4.3-13.5 5.1-18.3 6.7-5.4 1.8-16.5 6.4-19.2 6.2-2-.1-1.2-1.5 0-3.1-3.8 1.3-8 5.8-8.6 8-.8 2.5 3.7 3 7.2 2.2 3.3-.6 24.6-9.3 38-14.4.3 8.1.5 8.6.6 20 1.5-.4 3.4-.6 4.4-2 .5-.9.2-1.8.2-3 0-8 .7-19.1-2.7-20.5-.4-.1-.9-.2-1.5-.1Z"/><path vectornator:layerName="Curve 15" vectornator:shadowAngle="1.7" vectornator:shadowColor="#000000" vectornator:shadowOffset="1" vectornator:shadowOpacity=".3" vectornator:shadowRadius="2.7" fill="url(#n)" d="M340.4 130.8a48.4 48.4 0 0 0-6.4 2.3 51.5 51.5 0 0 1-7 1.8c-.3 0-.4.4-.3.8.1.3.3.5.6.4 2.8-.7 4.4-.4 4.8 1 .2.6.1 1.3 0 2l-5 22.2-11.4-8.7 3.6-9.3c1-2.2 1.8-3.7 2.7-4.5.8-.8 2-1.5 3.6-2 .4-.2.6-.5.5-1-.1-.3-.3-.4-.6-.3a65.9 65.9 0 0 0-6.7 2.3 62.6 62.6 0 0 1-7 1.9c-.2 0-.3.1-.4.3 0 .1-.1.3 0 .4 0 .4.3.6.5.5 2.8-.8 4.4-.5 4.8.8.2.6 0 1.3-.3 2.3l-2.8 7-6.4-4.8c-.9-.7-1.4-1.2-1.5-1.6-.3-1 1-2 3.6-3 .2 0 .3-.2.2-.6-.1-.4-.4-.5-.7-.4a80.5 80.5 0 0 0-8 2.7l-3.6 1c-1.2.2-2.5.6-3.9 1-.3.1-.4.3-.2.7 0 .2.1.3.3.4h.4c1.7-.4 3-.4 3.9-.2 1 .3 2.3 1.1 4 2.5l9.7 7.6-4.4 11.5-18.8-15.7c-.5-.4-.8-.8-.9-1.1-.2-.7 0-1.4.7-2 .7-.7 1.7-1.2 3-1.7.3 0 .3-.3.2-.7-.1-.4-.4-.5-.7-.4a111.3 111.3 0 0 0-9.1 3 75 75 0 0 0-8.4 2.3c-.3.1-.4.4-.3.8l.3.3h.5c2-.4 3.6-.5 4.9-.3 1.2.3 2.5 1 4 2.3l22.9 19.4c.2.2.5.2 1 0 .3 0 .6-.2.8-.5l6.3-15.7 12.7 9.9c.3.1.6.2 1 0 .4-.1.7-.3.7-.6l7.2-28.7c.5-2 1.2-3.3 2-4.2.8-.8 2-1.5 3.4-2.1.2 0 .4-.2.5-.4v-.5c0-.4-.2-.5-.5-.4ZM358 234c-.8-.2-1.7-.1-2.6.2-1.1.3-2 .8-2.6 1.4-.6.6-1.4 1.7-2.3 3.4-1.3 2.4-3.9 4.2-7.7 5.3-3.8 1.2-7 1.2-9.4 0-1.7-.9-3-1.4-3.9-1.5a6 6 0 0 0-2.8.2c-1 .3-1.8.8-2.3 1.4-.6.6-.8 1.2-.6 1.7.3 1.3 2.1 2 5.3 2 3 0 7.8-.9 14-2.8 6.2-2 10.6-3.8 13.1-5.6 2.6-1.8 3.7-3.4 3.3-4.7-.2-.5-.7-.8-1.5-1Zm15 4.5-19.8 7 .3.8c3.3-.7 5.5-1.5 6 .2l-24.3 29.8-4.4-19.9c-.6-2 5.6-4.3 8-5.5l-.2-.8-23.3 7.3.3.8c3.4-.8 7.4-1 7.6.4l5.2 23.6c.2 1.2-2.1 2.4-6.7 4.6l.2.7 21.9-6.6-.3-.8c-2.4.5-5.6.8-6.9.6l24.6-30.7 4 18.8c.7 2.2-1.7 3.7-5.6 5.6l.2.9 19.5-7.5-.3-.7c-3.6.8-6 1.3-6.2.6l-5.3-23.4c-.5-1.7 2.3-3.3 5.8-5l-.2-.8Zm13 105c-4.4.3-13.5 5.1-18.3 6.7-5.4 1.8-16.5 6.4-19.2 6.2-2-.1-1.2-1.5 0-3.1-3.8 1.3-8 5.8-8.6 8-.8 2.5 3.7 3 7.2 2.2 3.3-.6 24.6-9.3 38-14.4.3 8.1.5 8.6.6 20 1.5-.4 3.4-.6 4.4-2 .5-.9.2-1.8.2-3 0-8 .7-19.1-2.7-20.5-.4-.1-.9-.2-1.5-.1Z" filter="url(#o)"/><path vectornator:layerName="Curve 7" vectornator:shadowAngle="1.6" vectornator:shadowColor="#000000" vectornator:shadowOffset="1.8" vectornator:shadowOpacity=".3" vectornator:shadowRadius="2.4" fill="#fff" d="M371.7 37c-6.3 1.5-15.5 4.1-19.5 5.2 1.3 2.8 15 4.5 22 8.1 0 2.4 3.3 18.4 12.4 23.1-7.8-16.5-10.1-20.7.1-22.3-3-1.6-3.8-3-5.8-2.4-4.5 1.2-11-3.6-13.9-4.8 3-1.1 7-2.2 9-2.4.4 0 4.4 1.6 4.9 1.5-.8-1.6-8-6.2-9.2-6Z" filter="url(#p)"/><path vectornator:layerName="Curve 4" vectornator:shadowAngle="1.7" vectornator:shadowColor="#000000" vectornator:shadowOffset="1.8" vectornator:shadowOpacity=".3" vectornator:shadowRadius="2.8" fill="#fff" d="M476 300.2c-.4.1-.8.4-1.2.7-7.3 6.1-18.7 18-19.4 25.7l4.3-4c1.5-4.2 5.5-8.7 8.2-11.7 2-2.2 3.9-4 5.6-4.8 1.6-.8 2.5-.1 2.6 1.4l-.7 8.1c-3.3 5-6.2 10.3-8.6 15.8-.3-3.7 2.2-11.8-.7-11.4-1.8.2-4.6 3.2-5.9 4.8-1.6 2.2-2.3 5.6-1.7 6.3.4.5 3.3-.2 5-3.3l-.3 10.3 4-4.4c2.5-5.2 6.9-14.2 7.8-14.8-.5 3.2-.5 6 1 3.5 2-3 4.5-7.5 5-10.7.3-3-.2-3-2.7-.7 0-4.6.8-7 .3-9-.3-1-.8-1.6-1.5-1.8a2 2 0 0 0-1.1 0Zm3.3 12.7c.5.4-.2 2.3-.5 3-.5 1-1 2.2-1.3 2-.4-.3-.2-2 .4-3.1.3-.8 1-2.3 1.4-1.9Zm-15.6 10.6c.2 0 .3.3.3.7 0 1.3-.6 2.3-1.6 3.2-1 1-1.8 1.5-1.9.6-.1-1.3.4-2 1.6-3.3.5-.7 1.3-1.5 1.6-1.2Z" filter="url(#q)"/><path vectornator:layerName="Curve 1" vectornator:shadowAngle="1.7" vectornator:shadowColor="#000000" vectornator:shadowOffset="1.8" vectornator:shadowOpacity=".3" vectornator:shadowRadius="2.4" fill="#fff" d="M429 116.1c-1.2 0-2.7.9-3.7 1.6-1.3 1-2.7 2-2.7 4 0 1.5 2.5 5.9 6 6.2 1.9.2 4.4-1.5 5.3-1.3 1.8.6 2.8 3.3.1 7-1.6 2.1-3.6 4-5.5 4.7a10 10 0 0 1-6 1c-1.7-.5-3.1-2.3-3.9-4.2-.6-3.6-2-3.4-2-1.7.2 1.8.7 3.5 1.3 5.2 1 2.3 2.5 3.7 4.5 4.2 1.8.4 3.9.6 6.5-.5 4-1.6 7.7-4.1 8.9-7.4 1.7-4.7-1.2-11-4.9-10.9-1.8.1-4 1.6-5.1 1.1-3.3-1.4-2.7-2.8-2.4-3.7.5-1.4 3.8-2.3 5.3-2.5.2-2.2-.6-2.9-1.8-2.8Zm6 23.4-.8 3.8 4.5.4.4-4-4.2-.2Zm-6.5 3.8-.3 4 4.5.4.3-4-4.5-.4Z" filter="url(#r)"/><path vectornator:layerName="path" vectornator:shadowAngle="1.7" vectornator:shadowColor="#000000" vectornator:shadowOffset=".7" vectornator:shadowOpacity=".3" vectornator:shadowRadius="1.8" fill="url(#s)" d="M46.8 290c-3.6.4-4.8 3.4-2.7 8.8a60.2 60.2 0 0 1-18.6-6c-1.4 3.7 8.9 5.8 13.7 8l.7 5.6a11 11 0 0 0-2.1-2c-2.1-1.6-3.9-2.7-5.8-2.7-1.2 0-1.9-.1-2.5.7-2.1 2.5-1 6.1 2.2 9 3.2 3 7.5 4.4 9.4 2.4h.1c.7 2.8 1.4 5.8 3 8.5.3.4 2.3 2 2.2 1.6-2.4-11.6-3.1-14.4-3.9-22.2 1 .2 2.2.6 4.8 1 1.2 7.1.4 2.6 3.7 19.3l4.2 4.5c-2-11.7-3.6-14.9-4.3-23.2 1.1.7 2.1.6 3.1 1.2 0-.1.7-1.7-.4-3.2-10.7-2.1-10.4-15.5 9-1.6.1 0 3.2-1.3.7-3-7-4.8-13-7-16.5-6.6Zm-14.5 15c1 0 2.8.8 4 1.8 2 1.7 4 4 2.4 5.2-1.5 1.2-3.9-.7-5.7-2.5-1.7-1.9-2.8-3.3-1.5-4.4l.8-.1Z" filter="url(#t)"/><path vectornator:layerName="path" vectornator:shadowAngle="1.7" vectornator:shadowColor="#000000" vectornator:shadowOffset=".7" vectornator:shadowOpacity=".3" vectornator:shadowRadius="1.8" fill="url(#u)" d="M43.4 364.4c6.7 2.6 10 10.8 11.4 12.6l6.9 3.8-5.6-11.3c2.4-.3 19.4 8.2 26.7 16.4 6 6.5 8.8 13.6 4.5 18.3-.5.5-3 .6-3.5-1 1.7-2 2.5-5.1 1.2-8.7-1.4-3.6-4.3-8-6.4-9.8a60.4 60.4 0 0 0-16.8-9.7c3 7.2 6.6 14.1 10.6 20.8-4-3.4-5.7-7.5-8.3-10.6l-7.1-4c.7 1 2.6 4.7 3.7 6.9-2.6-3.3-4-5.8-7-10.8-1.4-2.2-2.4-4.4-4.2-6.6-1.5-2-3.5-3.6-4-3.8-.3 0-2.2 0-2.1-2.5Z" filter="url(#v)"/></g></g></g></g></svg>