<svg width="100%" height="100%" viewBox="0 0 100 100" stroke-miterlimit="10" style="fill-rule:nonzero;clip-rule:evenodd;stroke-linecap:round;stroke-linejoin:round;" version="1.1" xml:space="preserve" xmlns="http://www.w3.org/2000/svg" xmlns:xlink="http://www.w3.org/1999/xlink">
<defs>
	<linearGradient id="LG" gradientTransform="matrix(46.1174 0 0 46.1174 26.9413 49.9986)" gradientUnits="userSpaceOnUse" x1="0" x2="1" y1="0" y2="0"><stop offset="0" stop-color="#ff1aa0"/><stop offset="0.5" stop-color="#ff0095"/><stop offset="1" stop-color="#ff01aa"/></linearGradient>
	<linearGradient id="LG_2" gradientTransform="matrix(-73.6134 -73.6108 73.6108 -73.6134 88.2459 88.2168)" gradientUnits="userSpaceOnUse" x1="0" x2="1" y1="0" y2="0"><stop offset="0" stop-color="#00d5ff"/><stop offset="1" stop-color="#00e7ff"/></linearGradient>
	<filter color-interpolation-filters="sRGB" filterUnits="userSpaceOnUse" height="41.375" id="Filter" width="41.375" x="29.3125" y="29.3125"><feGaussianBlur in="SourceGraphic" result="Blur" stdDeviation="1"/></filter>
	<filter color-interpolation-filters="sRGB" filterUnits="userSpaceOnUse" height="39.1602" id="Filter_2" width="39.1602" x="41.1434" y="19.6974"><feGaussianBlur in="SourceGraphic" result="Blur" stdDeviation="1"/></filter>
	<filter color-interpolation-filters="sRGB" filterUnits="userSpaceOnUse" height="39.1602" id="Filter_3" width="39.1601" x="19.6447" y="41.1962"><feGaussianBlur in="SourceGraphic" result="Blur" stdDeviation="1"/></filter>
</defs>
<g id="Layer">
<g opacity="1">
	<path fill="url(#LG)" fill-rule="nonzero" opacity="0.8" stroke="none" d="M70.8943 39.5521L39.5535 70.8929C36.6676 73.7788 31.9916 73.7788 29.1057 70.8929C26.2199 68.007 26.2199 63.331 29.1057 60.4451L60.4465 29.1043C63.3324 26.2185 68.0084 26.2185 70.8943 29.1043C73.7801 31.9902 73.7801 36.6687 70.8943 39.5521Z"/>
	<path fill="url(#LG_2)" fill-rule="nonzero" opacity="1" stroke="none" d="M74.375 1C68.0735 0.999692 61.7777 3.41101 56.9688 8.21875L50 15.1875C42.2193 22.9682 40.843 34.6014 45.6562 43.875L57.7188 31.8125C57.8997 29.5627 58.7167 27.3458 60.4375 25.625L67.4062 18.6562C71.2524 14.8101 77.4976 14.8101 81.3438 18.6562C85.1899 22.5024 85.1899 28.7476 81.3438 32.5938L74.375 39.5625C72.6542 41.2833 70.4373 42.1003 68.1875 42.2812L56.125 54.3438C65.3974 59.1533 77.0345 57.778 84.8125 50L91.7812 43.0312C101.397 33.4158 101.397 17.8342 91.7812 8.21875C86.9735 3.40978 80.6765 1.00031 74.375 1ZM32.4688 42.7812C26.2039 42.8062 19.9694 45.2193 15.1875 50L8.21875 56.9688C-1.39673 66.5842-1.39673 82.1658 8.21875 91.7812C17.8342 101.397 33.4158 101.397 43.0312 91.7812L50 84.8125C57.7818 77.0307 59.1578 65.3972 54.3438 56.125L42.2812 68.1875C42.1003 70.437 41.2833 72.6542 39.5625 74.375L32.5938 81.3438C28.7476 85.1899 22.5024 85.1899 18.6562 81.3438C14.8101 77.4976 14.8101 71.2524 18.6562 67.4062L25.625 60.4375C27.3458 58.7167 29.5627 57.8997 31.8125 57.7188L43.875 45.6562C40.2998 43.8001 36.4001 42.7656 32.4688 42.7812Z"/>
	<path fill="#d400f9" d="M57.7188 31.8125L45.6562 43.875C46.7578 45.9973 48.0833 48.0503 49.8438 49.8438C48.0507 48.0828 45.997 46.758 43.875 45.6562L31.8125 57.7188C34.5911 57.4952 37.4371 58.3121 39.5625 60.4375C41.6879 62.5642 42.5048 65.4093 42.2812 68.1875L54.3438 56.125C53.2368 53.9929 51.8973 51.9557 50.125 50.1562L50.1562 50.125C51.958 51.8991 53.9903 53.2365 56.125 54.3438L68.1875 42.2812C65.4088 42.5048 62.5629 41.6879 60.4375 39.5625C58.3121 37.4371 57.4952 34.5911 57.7188 31.8125Z" fill-opacity="0.65" fill-rule="nonzero" filter="url(#Filter)" opacity="1" stroke="none"/>
<g filter="url(#Filter_2)" opacity="1">
	<path fill="#d200f9" d="M60.449 25.625L63.8766 22.1974C61.3477 22.5668 58.9076 23.6847 56.9648 25.625L43.6434 38.9464C44.722 42.9945 46.8248 46.8259 50.0012 49.9998C53.1777 53.1738 57.0066 55.2791 61.0547 56.3576L74.376 43.0363C76.3188 41.0935 77.4343 38.6558 77.8036 36.1245L74.376 39.5521C70.5298 43.3983 64.2927 43.3983 60.4465 39.5521C56.6028 35.7059 56.6028 29.4712 60.449 25.625Z" fill-opacity="0.558205" fill-rule="nonzero" opacity="0.05" stroke="none"/>
	<path fill="#d200f9" d="M60.449 25.625L62.5863 23.4877C60.7863 23.9974 59.0775 24.906 57.6641 26.3194L43.9562 40.0273C45.1061 43.6741 47.1104 47.109 50.0012 49.9998C52.892 52.8906 56.327 54.895 59.9713 56.0474L73.6792 42.3395C75.0926 40.9261 76.0036 39.2172 76.5109 37.4172L74.3736 39.5546C70.5274 43.4007 64.2902 43.4007 60.4441 39.5546C56.6028 35.7059 56.6028 29.4712 60.449 25.625Z" fill-opacity="0.558205" fill-rule="nonzero" opacity="0.1" stroke="none"/>
	<path fill="#d200f9" d="M60.449 25.625L60.8208 25.2532C59.9417 25.7211 59.0996 26.28 58.3584 27.0187L44.3132 41.064C45.5074 44.3192 47.3862 47.3848 50.0012 49.9998C52.6162 52.6149 55.6819 54.4936 58.9396 55.6854L72.9848 41.6402C73.726 40.899 74.2825 40.0569 74.7503 39.1778L74.3785 39.5496C70.5323 43.3958 64.2952 43.3958 60.449 39.5496C56.6028 35.7059 56.6028 29.4712 60.449 25.625Z" fill-opacity="0.558205" fill-rule="nonzero" opacity="0.2" stroke="none"/>
	<path fill="#d200f9" d="M60.449 39.5521C57.3292 36.4323 56.785 31.7563 58.7278 28.0406L44.6949 42.0735C45.8965 44.9545 47.6571 47.6557 50.0012 49.9998C52.3454 52.344 55.0466 54.1046 57.9275 55.3062L71.9605 41.2733C68.2448 43.2161 63.5688 42.6744 60.449 39.5521Z" fill-opacity="0.558205" fill-rule="nonzero" opacity="0.3" stroke="none"/>
	<path fill="#d200f9" d="M60.449 39.5521C57.9374 37.0405 57.0977 33.5144 57.866 30.2937L45.1356 43.024C46.3151 45.5455 47.9181 47.9167 50.0012 49.9998C52.0819 52.0805 54.4556 53.686 56.9746 54.8655L69.705 42.1351C66.4867 42.9058 62.9606 42.0662 60.449 39.5521Z" fill-opacity="0.558205" fill-rule="nonzero" opacity="0.4" stroke="none"/>
</g>
<g filter="url(#Filter_3)" opacity="1">
	<path fill="#d200f9" d="M25.5723 60.5018L22.1447 63.9294C22.514 61.4005 23.6319 58.9603 25.5723 57.0175L38.8936 43.6962C42.9417 44.7747 46.7731 46.8776 49.9471 50.054C53.121 53.2304 55.2263 57.0594 56.3048 61.1075L42.9835 74.4288C41.0407 76.3716 38.603 77.4871 36.0717 77.8564L39.4993 74.4288C43.3455 70.5826 43.3455 64.3455 39.4993 60.4993C35.6531 56.6531 29.4184 56.6531 25.5723 60.5018Z" fill-opacity="0.558205" fill-rule="nonzero" opacity="0.05" stroke="none"/>
	<path fill="#d200f9" d="M25.5723 60.5018L23.4349 62.6391C23.9446 60.8391 24.8532 59.1302 26.2666 57.7169L39.9745 44.0089C43.6213 45.1613 47.0563 47.1657 49.9446 50.0565C52.8354 52.9473 54.8397 56.3823 55.9921 60.0265L42.2842 73.7344C40.8708 75.1478 39.162 76.0589 37.362 76.5661L39.4993 74.4288C43.3455 70.5826 43.3455 64.3455 39.4993 60.4993C35.6531 56.6531 29.4184 56.6531 25.5723 60.5018Z" fill-opacity="0.558205" fill-rule="nonzero" opacity="0.1" stroke="none"/>
	<path fill="#d200f9" d="M25.5723 60.5018L25.2004 60.8736C25.6683 59.9945 26.2272 59.1524 26.9659 58.4112L41.0112 44.366C44.2713 45.5578 47.3345 47.4365 49.9495 50.0516C52.5645 52.6666 54.4433 55.7322 55.6351 58.9899L41.5898 73.0351C40.8487 73.7763 40.0066 74.3328 39.1275 74.8006L39.4993 74.4288C43.3455 70.5826 43.3455 64.3455 39.4993 60.4993C35.6531 56.6531 29.4184 56.6531 25.5723 60.5018Z" fill-opacity="0.558205" fill-rule="nonzero" opacity="0.2" stroke="none"/>
	<path fill="#d200f9" d="M39.4993 60.5018C36.3795 57.382 31.7035 56.8378 27.9878 58.7806L42.0208 44.7477C44.9017 45.9493 47.6029 47.7099 49.9471 50.054C52.2912 52.3982 54.0518 55.0994 55.2534 57.9803L41.2205 72.0133C43.1657 68.2976 42.6216 63.6216 39.4993 60.5018Z" fill-opacity="0.558205" fill-rule="nonzero" opacity="0.3" stroke="none"/>
	<path fill="#d200f9" d="M39.4184 60.5682C41.93 63.0798 42.7697 66.6058 42.0014 69.8266L54.7318 57.0962C53.5523 54.5748 51.9493 52.2036 49.8662 50.1204C47.7855 48.0397 45.4118 46.4343 42.8928 45.2548L30.1624 57.9852C33.3807 57.2144 36.9068 58.0541 39.4184 60.5682Z" fill-opacity="0.558205" fill-rule="nonzero" opacity="0.4" stroke="none"/>
	<path fill="#d200f9" d="M39.4993 60.5018C36.9877 57.9902 33.4616 57.1505 30.2409 57.9188L42.9712 45.1884C45.4927 46.3679 47.8639 47.9709 49.9446 50.054C52.0253 52.1347 53.6307 54.5084 54.8102 57.0274L42.0799 69.7577C42.853 66.537 42.0134 63.0134 39.4993 60.5018Z" fill-opacity="0.558205" fill-rule="nonzero" opacity="0.4" stroke="none"/>
</g>
</g>
</g>
</svg>