<svg width="100%" height="100%" viewBox="0 0 100 100"  stroke-miterlimit="10" style="fill-rule:nonzero;clip-rule:evenodd;stroke-linecap:round;stroke-linejoin:round;" version="1.1" xml:space="preserve" xmlns="http://www.w3.org/2000/svg" xmlns:xlink="http://www.w3.org/1999/xlink">
<defs>
	<linearGradient id="LGLinkB" gradientTransform="matrix(46.1174 0 0 46.1174 26.9412 50.0021)" gradientUnits="userSpaceOnUse" x1="0" x2="1" y1="0" y2="0"><stop offset="0" stop-color="#ff1aa0"/><stop offset="0.5" stop-color="#ff0095"/><stop offset="1" stop-color="#ff01aa"/></linearGradient>
	<linearGradient id="LGLinkB2" gradientTransform="matrix(-73.6134 -73.6108 73.6108 -73.6134 88.2458 88.2203)" gradientUnits="userSpaceOnUse" x1="0" x2="1" y1="0" y2="0"><stop offset="0" stop-color="#00d5ff"/><stop offset="1" stop-color="#00e7ff"/></linearGradient>
	<filter color-interpolation-filters="sRGB" filterUnits="userSpaceOnUse" height="39.1602" id="FiLinkB" width="39.1602" x="41.1433" y="19.7009"><feGaussianBlur in="SourceGraphic" result="Blur" stdDeviation="1"/></filter>
	<filter color-interpolation-filters="sRGB" filterUnits="userSpaceOnUse" height="39.1602" id="FiLinkB2" width="39.1601" x="19.6446" y="41.1997"><feGaussianBlur in="SourceGraphic" result="Blur" stdDeviation="1"/></filter>
	<filter color-interpolation-filters="sRGB" filterUnits="userSpaceOnUse" height="41.375" id="FiLinkB3" width="41.375" x="29.3124" y="29.316"><feGaussianBlur in="SourceGraphic" result="Blur" stdDeviation="1"/></filter>
</defs>
<g id="LinkB" stroke="none" fill-rule="nonzero">
<g opacity="1">
	<path fill="url(#LGLinkB)" opacity="0.8" d="M70.8942 39.5556L39.5534 70.8964C36.6675 73.7823 31.9915 73.7823 29.1056 70.8964C26.2198 68.0105 26.2198 63.3345 29.1056 60.4486L60.4464 29.1078C63.3323 26.222 68.0083 26.222 70.8942 29.1078C73.78 31.9937 73.78 36.6722 70.8942 39.5556Z"/>
	<path fill="url(#LGLinkB2)" opacity="1" d="M74.3749 1.00347C68.0734 1.00317 61.7776 3.41448 56.9687 8.22222L49.9999 15.191C42.2192 22.9717 40.8429 34.6049 45.6561 43.8785L57.7187 31.816C57.8996 29.5662 58.7166 27.3493 60.4374 25.6285L67.4061 18.6597C71.2523 14.8136 77.4975 14.8136 81.3437 18.6597C85.1898 22.5059 85.1898 28.7511 81.3437 32.5973L74.3749 39.566C72.6541 41.2868 70.4372 42.1038 68.1874 42.2847L56.1249 54.3473C65.3973 59.1568 77.0344 57.7815 84.8124 50.0035L91.7811 43.0347C101.397 33.4193 101.397 17.8377 91.7811 8.22222C86.9734 3.41325 80.6764 1.00378 74.3749 1.00347ZM32.4687 42.7847C26.2038 42.8097 19.9693 45.2228 15.1874 50.0035L8.21865 56.9723C-1.39682 66.5877-1.39682 82.1693 8.21865 91.7847C17.8341 101.4 33.4157 101.4 43.0311 91.7847L49.9999 84.816C57.7817 77.0342 59.1577 65.4007 54.3437 56.1285L42.2811 68.191C42.1002 70.4405 41.2832 72.6577 39.5624 74.3785L32.5937 81.3473C28.7475 85.1934 22.5023 85.1934 18.6561 81.3473C14.81 77.5011 14.81 71.2559 18.6561 67.4097L25.6249 60.441C27.3457 58.7202 29.5626 57.9032 31.8124 57.7223L43.8749 45.6597C40.2997 43.8036 36.4 42.7691 32.4687 42.7847Z"/>
<g fill="#7e00f9" fill-opacity="0.558205"  filter="url(#FiLinkB)" opacity="1">
	<path opacity="0.05" d="M60.4489 25.6285L63.8765 22.2009C61.3476 22.5703 58.9075 23.6882 56.9647 25.6285L43.6433 38.9499C44.7219 42.998 46.8247 46.8294 50.0011 50.0033C53.1776 53.1773 57.0065 55.2826 61.0546 56.3611L74.3759 43.0398C76.3187 41.097 77.4342 38.6593 77.8035 36.128L74.3759 39.5556C70.5297 43.4018 64.2926 43.4018 60.4464 39.5556C56.6027 35.7094 56.6027 29.4747 60.4489 25.6285Z"/>
	<path opacity="0.1" d="M60.4489 25.6285L62.5862 23.4912C60.7862 24.0009 59.0774 24.9095 57.664 26.3229L43.9561 40.0308C45.106 43.6776 47.1103 47.1125 50.0011 50.0033C52.8919 52.8941 56.3269 54.8985 59.9712 56.0509L73.6791 42.343C75.0925 40.9296 76.0035 39.2207 76.5108 37.4207L74.3735 39.5581C70.5273 43.4042 64.2901 43.4042 60.444 39.5581C56.6027 35.7094 56.6027 29.4747 60.4489 25.6285Z"/>
	<path opacity="0.2" d="M60.4489 25.6285L60.8207 25.2567C59.9416 25.7246 59.0995 26.2835 58.3583 27.0222L44.3131 41.0675C45.5073 44.3227 47.3861 47.3883 50.0011 50.0033C52.6161 52.6184 55.6818 54.4971 58.9395 55.6889L72.9847 41.6437C73.7259 40.9025 74.2824 40.0604 74.7502 39.1813L74.3784 39.5531C70.5322 43.3993 64.2951 43.3993 60.4489 39.5531C56.6027 35.7094 56.6027 29.4747 60.4489 25.6285Z"/>
	<path opacity="0.3" d="M60.4489 39.5556C57.3291 36.4358 56.7849 31.7598 58.7277 28.0441L44.6948 42.077C45.8964 44.958 47.657 47.6592 50.0011 50.0033C52.3453 52.3475 55.0465 54.1081 57.9274 55.3097L71.9604 41.2768C68.2447 43.2196 63.5687 42.6779 60.4489 39.5556Z"/>
	<path opacity="0.4" d="M60.4489 39.5556C57.9373 37.044 57.0976 33.5179 57.8659 30.2972L45.1355 43.0275C46.315 45.549 47.918 47.9202 50.0011 50.0033C52.0818 52.084 54.4555 53.6895 56.9745 54.869L69.7049 42.1386C66.4866 42.9093 62.9605 42.0697 60.4489 39.5556Z"/>
</g>
<g fill="#7e00f9" fill-opacity="0.558205" filter="url(#FiLinkB2)" opacity="1">
	<path opacity="0.05" d="M25.5722 60.5053L22.1446 63.9329C22.5139 61.404 23.6318 58.9638 25.5722 57.021L38.8935 43.6997C42.9416 44.7782 46.773 46.8811 49.947 50.0575C53.1209 53.2339 55.2262 57.0629 56.3047 61.111L42.9834 74.4323C41.0406 76.3751 38.6029 77.4906 36.0716 77.8599L39.4992 74.4323C43.3454 70.5861 43.3454 64.349 39.4992 60.5028C35.653 56.6566 29.4183 56.6566 25.5722 60.5053Z"/>
	<path opacity="0.1" d="M25.5722 60.5053L23.4348 62.6426C23.9445 60.8426 24.8531 59.1337 26.2665 57.7204L39.9744 44.0124C43.6212 45.1648 47.0562 47.1692 49.9445 50.06C52.8353 52.9508 54.8396 56.3858 55.992 60.03L42.2841 73.7379C40.8707 75.1513 39.1619 76.0624 37.3619 76.5696L39.4992 74.4323C43.3454 70.5861 43.3454 64.349 39.4992 60.5028C35.653 56.6566 29.4183 56.6566 25.5722 60.5053Z"/>
	<path opacity="0.2" d="M25.5722 60.5053L25.2003 60.8771C25.6682 59.998 26.2271 59.1559 26.9658 58.4147L41.0111 44.3695C44.2712 45.5613 47.3344 47.44 49.9494 50.0551C52.5644 52.6701 54.4432 55.7357 55.635 58.9934L41.5897 73.0386C40.8486 73.7798 40.0065 74.3363 39.1274 74.8041L39.4992 74.4323C43.3454 70.5861 43.3454 64.349 39.4992 60.5028C35.653 56.6566 29.4183 56.6566 25.5722 60.5053Z"/>
	<path opacity="0.3" d="M39.4992 60.5053C36.3794 57.3855 31.7034 56.8413 27.9877 58.7841L42.0207 44.7512C44.9016 45.9528 47.6028 47.7134 49.947 50.0575C52.2911 52.4017 54.0517 55.1029 55.2533 57.9838L41.2204 72.0168C43.1656 68.3011 42.6215 63.6251 39.4992 60.5053Z"/>
	<path opacity="0.4" d="M39.4183 60.5717C41.9299 63.0833 42.7696 66.6093 42.0013 69.8301L54.7317 57.0997C53.5522 54.5783 51.9492 52.2071 49.8661 50.1239C47.7854 48.0432 45.4117 46.4378 42.8927 45.2583L30.1623 57.9887C33.3806 57.2179 36.9067 58.0576 39.4183 60.5717Z"/>
	<path opacity="0.4" d="M39.4992 60.5053C36.9876 57.9937 33.4615 57.154 30.2408 57.9223L42.9711 45.1919C45.4926 46.3714 47.8638 47.9744 49.9445 50.0575C52.0252 52.1382 53.6306 54.5119 54.8101 57.0309L42.0798 69.7612C42.8529 66.5405 42.0133 63.0169 39.4992 60.5053Z"/>
</g>
	<path fill="#ba00f9" fill-opacity="0.65" filter="url(#FiLinkB3)" opacity="1" d="M57.7187 31.816L45.6561 43.8785C46.7577 46.0008 48.0832 48.0538 49.8437 49.8473C48.0506 48.0863 45.9969 46.7615 43.8749 45.6597L31.8124 57.7223C34.591 57.4987 37.437 58.3156 39.5624 60.441C41.6878 62.5677 42.5047 65.4128 42.2811 68.191L54.3437 56.1285C53.2367 53.9964 51.8972 51.9592 50.1249 50.1597L50.1561 50.1285C51.9579 51.9026 53.9902 53.24 56.1249 54.3473L68.1874 42.2847C65.4087 42.5083 62.5628 41.6914 60.4374 39.566C58.312 37.4406 57.4951 34.5946 57.7187 31.816Z"/>
</g>
</g>
</svg>