<svg xmlns="http://www.w3.org/2000/svg" xmlns:xlink="http://www.w3.org/1999/xlink" viewBox="0,0,256,256" width="100%" height="100%" fill-rule="nonzero"><defs><linearGradient x1="36" y1="34.136" x2="36" y2="-3.957" gradientUnits="userSpaceOnUse" id="color-1"><stop offset="0" stop-color="#0071fc"></stop><stop offset="0.12" stop-color="#187bfc"></stop><stop offset="0.416" stop-color="#2c88ff" stop-opacity="0.61961"></stop><stop offset="0.672" stop-color="#72d7ff"></stop><stop offset="0.875" stop-color="#7ccbff"></stop><stop offset="1" stop-color="#9cd9ff"></stop></linearGradient><linearGradient x1="11.665" y1="42.374" x2="31.29" y2="18.807" gradientUnits="userSpaceOnUse" id="color-2"><stop offset="0" stop-color="#9c9c9c" stop-opacity="0.6"></stop><stop offset="1" stop-color="#ededed" stop-opacity="0.4"></stop></linearGradient><linearGradient x1="37.192" y1="18.622" x2="5.432" y2="43.045" gradientUnits="userSpaceOnUse" id="color-3"><stop offset="0" stop-color="#dcdcdc" stop-opacity="0.2"></stop><stop offset="1" stop-color="#e3e3e3" stop-opacity="0.4"></stop></linearGradient></defs><rect x="0" y="0" width="256" height="256" fill="#000"/><g fill="none" fill-rule="nonzero" stroke="none" stroke-width="1" stroke-linecap="butt" stroke-linejoin="miter" stroke-miterlimit="10" stroke-dasharray="" stroke-dashoffset="0" style="mix-blend-mode: normal"><g transform="scale(5.33333,5.33333)"><path d="M42,32.11v0.2c-0.01,0.31 -0.04,0.61 -0.08,0.91c-0.05,0.33 -0.12,0.65 -0.21,0.96c-1.73,0.66 -3.6,1.02 -5.53,1.02c-0.33,0 -0.67,-0.01 -1,-0.03c-7.56,-0.49 -13.86,-6.79 -14.35,-14.34c-0.15,-2.38 0.25,-4.69 1.11,-6.79c0.28,0.02 0.55,0.05 0.82,0.1c0.27,0.03 0.54,0.08 0.8,0.14c0.27,0.06 0.54,0.13 0.8,0.21c4.43,1.33 7.71,5.2 8.05,9.86c0.48,-0.08 0.97,-0.14 1.48,-0.14c4.25,0 7.73,3.18 8.08,7.22c0.02,0.23 0.03,0.45 0.03,0.68z" fill="#0093ff" opacity="0.1"></path><path d="M42,32.11v0.2c-0.01,0.31 -0.04,0.61 -0.08,0.91c-1.78,0.77 -3.72,1.18 -5.74,1.18c-0.32,0 -0.64,-0.01 -0.96,-0.03c-7.16,-0.46 -13.13,-6.43 -13.59,-13.59c-0.15,-2.33 0.26,-4.6 1.13,-6.64c0.27,0.03 0.54,0.08 0.8,0.14c0.27,0.06 0.54,0.13 0.8,0.21c4.43,1.33 7.71,5.2 8.05,9.86c0.48,-0.08 0.97,-0.14 1.48,-0.14c4.25,0 7.73,3.18 8.08,7.22c0.02,0.23 0.03,0.45 0.03,0.68z" fill="#0093ff" opacity="0.2"></path><path d="M42,32.11v0.2c-1.78,0.83 -3.76,1.29 -5.82,1.29c-0.3,0 -0.6,-0.01 -0.91,-0.03c-6.77,-0.44 -12.41,-6.08 -12.84,-12.84c-0.15,-2.27 0.27,-4.48 1.13,-6.45c0.27,0.06 0.54,0.13 0.8,0.21c4.43,1.33 7.71,5.2 8.05,9.86c0.48,-0.08 0.97,-0.14 1.48,-0.14c4.25,0 7.73,3.18 8.08,7.22c0.02,0.23 0.03,0.45 0.03,0.68z" fill="#0093ff" opacity="0.3"></path><path d="M41.97,31.43c-1.76,0.88 -3.73,1.37 -5.79,1.37c-0.28,0 -0.57,-0.01 -0.86,-0.03c-6.37,-0.41 -11.68,-5.72 -12.09,-12.09c-0.14,-2.18 0.27,-4.3 1.13,-6.19c4.43,1.33 7.71,5.2 8.05,9.86c0.48,-0.08 0.97,-0.14 1.48,-0.14c4.25,0 7.73,3.18 8.08,7.22z" fill="#0093ff" opacity="0.4"></path><path d="M42.028,22.149c-4.186,-0.616 -7.561,-3.992 -8.177,-8.177c-0.244,-1.655 -0.064,-3.24 0.441,-4.673c0.261,-0.74 -0.411,-1.462 -1.171,-1.266c-5.492,1.42 -9.482,6.574 -9.095,12.594c0.388,6.02 5.327,10.96 11.347,11.347c6.02,0.388 11.174,-3.602 12.594,-9.094c0.196,-0.76 -0.526,-1.432 -1.266,-1.171c-1.433,0.504 -3.018,0.683 -4.673,0.44z" fill="url(#color-1)"></path><path d="M43.63,29.45c-0.11,0.09 -0.23,0.18 -0.35,0.26c-0.12,0.09 -0.23,0.17 -0.35,0.24c-0.11,0.08 -0.23,0.16 -0.35,0.23c-0.11,0.07 -0.23,0.14 -0.36,0.22c-1.99,1.14 -4.35,1.73 -6.85,1.57c-6.02,-0.38 -10.96,-5.32 -11.34,-11.34c-0.15,-2.26 0.32,-4.39 1.25,-6.25c0.06,-0.13 0.13,-0.25 0.19,-0.36c0.06,-0.12 0.13,-0.23 0.19,-0.34c0.07,-0.12 0.14,-0.22 0.21,-0.33c0.06,-0.11 0.13,-0.22 0.21,-0.33c3.94,1.61 7.05,5.03 8.03,9.19c4.53,0.1 8.35,3.13 9.52,7.24z" fill="#0093ff" opacity="0.05"></path><path d="M43.28,29.71c-0.12,0.09 -0.23,0.17 -0.35,0.24c-0.11,0.08 -0.23,0.16 -0.35,0.23c-0.11,0.07 -0.23,0.14 -0.36,0.22c-1.99,1.14 -4.35,1.73 -6.85,1.57c-6.02,-0.38 -10.96,-5.32 -11.34,-11.34c-0.15,-2.26 0.32,-4.39 1.25,-6.25c0.06,-0.13 0.13,-0.25 0.19,-0.36c0.06,-0.12 0.13,-0.23 0.19,-0.34c0.07,-0.12 0.14,-0.22 0.21,-0.33c3.96,1.59 7.04,5.04 7.91,9.26h0.11c4.5,0 8.3,3.02 9.39,7.1z" fill="#0093ff" opacity="0.1"></path><path d="M42.93,29.95c-0.11,0.08 -0.23,0.16 -0.35,0.23c-0.11,0.07 -0.23,0.14 -0.36,0.22c-1.99,1.14 -4.35,1.73 -6.85,1.57c-6.02,-0.38 -10.96,-5.32 -11.34,-11.34c-0.15,-2.26 0.32,-4.39 1.25,-6.25c0.06,-0.13 0.13,-0.25 0.19,-0.36c0.06,-0.12 0.13,-0.23 0.19,-0.34c3.99,1.56 7.04,5.05 7.8,9.34c0.14,0 0.28,-0.01 0.43,-0.01c4.37,0 8.05,2.96 9.04,6.94z" fill="#0093ff" opacity="0.2"></path><path d="M42.58,30.18c-0.11,0.07 -0.23,0.14 -0.36,0.22c-1.99,1.14 -4.35,1.73 -6.85,1.57c-6.02,-0.38 -10.96,-5.32 -11.34,-11.34c-0.15,-2.26 0.32,-4.39 1.25,-6.25c0.06,-0.13 0.13,-0.25 0.19,-0.36c4.01,1.53 7.01,5.07 7.65,9.43c0.26,-0.03 0.52,-0.04 0.77,-0.04c4.23,0 7.79,2.9 8.69,6.77z" fill="#0093ff" opacity="0.3"></path><path d="M42.22,30.4c-1.99,1.14 -4.35,1.73 -6.85,1.57c-6.02,-0.38 -10.96,-5.32 -11.34,-11.34c-0.15,-2.26 0.32,-4.39 1.25,-6.25c4.02,1.54 7.01,5.15 7.49,9.51c0.38,-0.05 0.76,-0.08 1.12,-0.08c4.09,0 7.52,2.83 8.33,6.59z" fill="#0093ff" opacity="0.4"></path><path d="M33.886,24.214c-0.504,0 -0.995,0.051 -1.473,0.136c-0.419,-5.782 -5.362,-10.35 -11.413,-10.35c-4.998,0 -9.236,3.119 -10.801,7.461c-0.217,-0.014 -0.433,-0.032 -0.654,-0.032c-5.271,0 -9.545,4.157 -9.545,9.285c0,5.128 4.274,9.286 9.545,9.286c0,0 24.18,0 24.341,0c4.481,0 8.114,-3.534 8.114,-7.893c0,-4.359 -3.633,-7.893 -8.114,-7.893z" fill="url(#color-2)"></path><path d="M21,14.5c5.718,0 10.513,4.343 10.915,9.887c0.01,0.141 0.08,0.272 0.192,0.359c0.088,0.069 0.197,0.105 0.307,0.105c0.029,0 0.059,-0.003 0.088,-0.008c0.484,-0.086 0.937,-0.128 1.385,-0.128c4.198,0 7.614,3.316 7.614,7.393c0,4.077 -3.416,7.392 -7.615,7.392h-24.341c-4.988,0 -9.045,-3.941 -9.045,-8.786c0,-4.844 4.058,-8.786 9.045,-8.786c0.173,0 0.343,0.012 0.512,0.024l0.108,0.007c0.011,0.001 0.022,0.001 0.033,0.001c0.209,0 0.398,-0.131 0.47,-0.33c1.538,-4.265 5.69,-7.13 10.332,-7.13M21,14c-4.998,0 -9.236,3.119 -10.801,7.461c-0.217,-0.014 -0.433,-0.032 -0.654,-0.032c-5.271,0 -9.545,4.157 -9.545,9.285c0,5.129 4.274,9.286 9.545,9.286c0,0 24.18,0 24.341,0c4.481,0 8.114,-3.534 8.114,-7.893c0,-4.359 -3.633,-7.893 -8.114,-7.893c-0.504,0 -0.995,0.051 -1.473,0.136c-0.419,-5.782 -5.362,-10.35 -11.413,-10.35z" fill="url(#color-3)"></path></g></g></svg>