<svg xmlns="http://www.w3.org/2000/svg" width="100%" height="100%" viewBox="0 0 256 256"><defs><linearGradient id="a" x1="36" x2="36" y1="34.136" y2="-3.957" gradientUnits="userSpaceOnUse"><stop offset="0" stop-color="#0071fc"/><stop offset=".12" stop-color="#187bfc"/><stop offset=".416" stop-color="#2c88ff" stop-opacity=".62"/><stop offset=".672" stop-color="#72d7ff"/><stop offset=".875" stop-color="#7ccbff"/><stop offset="1" stop-color="#9cd9ff"/></linearGradient><linearGradient id="b" x1="11.665" x2="31.29" y1="42.374" y2="18.807" gradientUnits="userSpaceOnUse"><stop offset="0" stop-color="#9c9c9c" stop-opacity=".6"/><stop offset="1" stop-color="#ededed" stop-opacity=".4"/></linearGradient><linearGradient id="c" x1="37.192" x2="5.432" y1="18.622" y2="43.045" gradientUnits="userSpaceOnUse"><stop offset="0" stop-color="#dcdcdc" stop-opacity=".2"/><stop offset="1" stop-color="#e3e3e3" stop-opacity=".4"/></linearGradient></defs><rect x="0" y="0" width="256" height="256" fill="#000"/><g fill="none" stroke-miterlimit="10" style="mix-blend-mode:normal" text-anchor="none"><path fill="#0093ff" d="M224 171.253v1.067a48.258 48.258 0 0 1-.427 4.853 39.644 39.644 0 0 1-1.12 5.12 82.704 82.704 0 0 1-29.493 5.44c-1.76 0-3.573-.053-5.333-.16-40.32-2.613-73.92-36.213-76.534-76.48-.8-12.693 1.334-25.013 5.92-36.213 1.494.107 2.934.267 4.374.533 1.44.16 2.88.427 4.266.747 1.44.32 2.88.693 4.267 1.12 23.627 7.093 41.12 27.733 42.933 52.587 2.56-.427 5.174-.747 7.894-.747 22.666 0 41.226 16.96 43.093 38.507.107 1.226.16 2.4.16 3.626z" opacity=".1"/><path fill="#0093ff" d="M224 171.253v1.067a48.258 48.258 0 0 1-.427 4.853c-9.493 4.107-19.84 6.294-30.613 6.294a82.06 82.06 0 0 1-5.12-.16c-38.187-2.454-70.027-34.294-72.48-72.48-.8-12.427 1.387-24.534 6.027-35.414 1.44.16 2.88.427 4.266.747 1.44.32 2.88.693 4.267 1.12 23.627 7.093 41.12 27.733 42.933 52.587 2.56-.427 5.174-.747 7.894-.747 22.666 0 41.226 16.96 43.093 38.507.107 1.226.16 2.4.16 3.626z" opacity=".2"/><path fill="#0093ff" d="M224 171.253v1.067a73.4 73.4 0 0 1-35.893 6.72c-36.107-2.347-66.187-32.427-68.48-68.48-.8-12.107 1.44-23.893 6.026-34.4 1.44.32 2.88.693 4.267 1.12 23.627 7.093 41.12 27.733 42.933 52.587 2.56-.427 5.174-.747 7.894-.747 22.666 0 41.226 16.96 43.093 38.507.107 1.226.16 2.4.16 3.626z" opacity=".3"/><path fill="#0093ff" d="M223.84 167.627a68.923 68.923 0 0 1-30.88 7.306c-1.493 0-3.04-.053-4.587-.16-33.973-2.186-62.293-30.506-64.48-64.48-.746-11.626 1.44-22.933 6.027-33.013 23.627 7.093 41.12 27.733 42.933 52.587 2.56-.427 5.174-.747 7.894-.747 22.666 0 41.226 16.96 43.093 38.507z" opacity=".4"/><path fill="url(#a)" d="M42.028 22.149c-4.186-.616-7.561-3.992-8.177-8.177a9.719 9.719 0 0 1 .441-4.673c.261-.74-.411-1.462-1.171-1.266-5.492 1.42-9.482 6.574-9.095 12.594.388 6.02 5.327 10.96 11.347 11.347 6.02.388 11.174-3.602 12.594-9.094.196-.76-.526-1.432-1.266-1.171a9.743 9.743 0 0 1-4.673.44z" transform="scale(5.33333)"/><path fill="#0093ff" d="M232.693 157.067c-.586.48-1.226.96-1.866 1.386-.64.48-1.227.907-1.867 1.28a22.53 22.53 0 0 1-1.867 1.227c-.586.373-1.226.747-1.92 1.173-10.613 6.08-23.2 9.227-36.533 8.374-32.107-2.027-58.453-28.374-60.48-60.48-.8-12.054 1.707-23.414 6.667-33.334.32-.693.693-1.333 1.013-1.92.32-.64.693-1.226 1.013-1.813.374-.64.747-1.173 1.12-1.76a16.13 16.13 0 0 1 1.12-1.76c21.014 8.587 37.6 26.827 42.827 49.013 24.16.534 44.533 16.694 50.773 38.614z" opacity=".05"/><path fill="#0093ff" d="M230.827 158.453c-.64.48-1.227.907-1.867 1.28a22.53 22.53 0 0 1-1.867 1.227c-.586.373-1.226.747-1.92 1.173-10.613 6.08-23.2 9.227-36.533 8.374-32.107-2.027-58.453-28.374-60.48-60.48-.8-12.054 1.707-23.414 6.667-33.334.32-.693.693-1.333 1.013-1.92.32-.64.693-1.226 1.013-1.813.374-.64.747-1.173 1.12-1.76 21.12 8.48 37.547 26.88 42.187 49.387h.587c24 0 44.266 16.106 50.08 37.866z" opacity=".1"/><path fill="#0093ff" d="M228.96 159.733a22.53 22.53 0 0 1-1.867 1.227c-.586.373-1.226.747-1.92 1.173-10.613 6.08-23.2 9.227-36.533 8.374-32.107-2.027-58.453-28.374-60.48-60.48-.8-12.054 1.707-23.414 6.667-33.334.32-.693.693-1.333 1.013-1.92.32-.64.693-1.226 1.013-1.813 21.28 8.32 37.547 26.933 41.6 49.813.747 0 1.494-.053 2.294-.053 23.306 0 42.933 15.787 48.213 37.013z" opacity=".2"/><path fill="#0093ff" d="M227.093 160.96c-.586.373-1.226.747-1.92 1.173-10.613 6.08-23.2 9.227-36.533 8.374-32.107-2.027-58.453-28.374-60.48-60.48-.8-12.054 1.707-23.414 6.667-33.334.32-.693.693-1.333 1.013-1.92 21.387 8.16 37.387 27.04 40.8 50.294a35.924 35.924 0 0 1 4.107-.214c22.56 0 41.546 15.467 46.346 36.107z" opacity=".3"/><path fill="#0093ff" d="M225.173 162.133c-10.613 6.08-23.2 9.227-36.533 8.374-32.107-2.027-58.453-28.374-60.48-60.48-.8-12.054 1.707-23.414 6.667-33.334 21.44 8.214 37.386 27.467 39.946 50.72 2.027-.266 4.054-.426 5.974-.426 21.813 0 40.106 15.093 44.426 35.146z" opacity=".4"/><path fill="url(#b)" d="M33.886 24.214c-.504 0-.995.051-1.473.136C31.994 18.568 27.051 14 21 14c-4.998 0-9.236 3.119-10.801 7.461-.217-.014-.433-.032-.654-.032C4.274 21.429 0 25.586 0 30.714S4.274 40 9.545 40h24.341C38.367 40 42 36.466 42 32.107s-3.633-7.893-8.114-7.893z" transform="scale(5.33333)"/><path fill="url(#c)" d="M21 14.5c5.718 0 10.513 4.343 10.915 9.887a.5.5 0 0 0 .587.456 7.845 7.845 0 0 1 1.385-.128c4.198 0 7.614 3.316 7.614 7.393S38.085 39.5 33.886 39.5H9.545C4.557 39.5.5 35.559.5 30.714c0-4.844 4.058-8.786 9.045-8.786.173 0 .343.012.512.024l.108.007a.5.5 0 0 0 .503-.329c1.538-4.265 5.69-7.13 10.332-7.13m0-.5c-4.998 0-9.236 3.119-10.801 7.461-.217-.014-.433-.032-.654-.032C4.274 21.429 0 25.586 0 30.714 0 35.843 4.274 40 9.545 40h24.341C38.367 40 42 36.466 42 32.107s-3.633-7.893-8.114-7.893c-.504 0-.995.051-1.473.136C31.994 18.568 27.051 14 21 14z" transform="scale(5.33333)"/></g></svg>