<svg width="100%" height="100%" viewBox="0 0 100 100" stroke-miterlimit="10" style="fill-rule:nonzero;clip-rule:evenodd;stroke-linecap:round;stroke-linejoin:round;" version="1.1" xml:space="preserve" xmlns="http://www.w3.org/2000/svg" xmlns:xlink="http://www.w3.org/1999/xlink"><defs>	<linearGradient id="LG" gradientTransform="matrix(51.1584 34.5822 -34.5822 51.1584 46.1749 39.6141)" gradientUnits="userSpaceOnUse" x1="0" x2="1" y1="0" y2="0"><stop offset="0" stop-color="#fff" stop-opacity="0.7"/><stop offset="1" stop-color="#595959" stop-opacity="0.2"/></linearGradient>	<linearGradient id="LG_2" gradientTransform="matrix(36.6283 29.6024 -29.6024 36.6283 7.44624 59.8666)" gradientUnits="userSpaceOnUse" x1="0" x2="1" y1="0" y2="0"><stop offset="0" stop-color="#fff" stop-opacity="0.7"/><stop offset="1" stop-color="#595959" stop-opacity="0.275779"/></linearGradient>	<linearGradient id="LG_3" gradientTransform="matrix(51.1584 34.5822 -34.5822 51.1584 46.1749 39.6141)" gradientUnits="userSpaceOnUse" x1="0" x2="1" y1="0" y2="0"><stop offset="0" stop-color="#fff"/><stop offset="1" stop-color="#595959" stop-opacity="0.275779"/></linearGradient>	<linearGradient id="LG_4" gradientTransform="matrix(51.1584 34.5822 -34.5822 51.1584 46.1749 39.6141)" gradientUnits="userSpaceOnUse" x1="0" x2="1" y1="0" y2="0"><stop offset="0" stop-color="#fff" stop-opacity="0.9"/><stop offset="1" stop-color="#595959" stop-opacity="0.4"/></linearGradient>	<linearGradient id="LG_5" gradientTransform="matrix(29.9302 -8.32419 8.32419 29.9302 5.66948 70.444)" gradientUnits="userSpaceOnUse" x1="0" x2="1" y1="0" y2="0"><stop offset="0" stop-color="#fff"/><stop offset="1" stop-color="#595959" stop-opacity="0.275779"/></linearGradient>	<linearGradient id="LG_6" gradientTransform="matrix(51.1584 34.5822 -34.5822 51.1584 46.1749 39.6141)" gradientUnits="userSpaceOnUse" x1="0" x2="1" y1="0" y2="0"><stop offset="0" stop-color="#fff"/><stop offset="1" stop-color="#595959" stop-opacity="0.275779"/></linearGradient>	<linearGradient id="LG_7" gradientTransform="matrix(83.7165 29.4448 -29.4448 83.7165 13.6168 44.7515)" gradientUnits="userSpaceOnUse" x1="0" x2="1" y1="0" y2="0"><stop offset="0" stop-color="#fff"/><stop offset="1" stop-color="#595959" stop-opacity="0.275779"/></linearGradient>	<linearGradient id="LG_8" gradientTransform="matrix(80.3685 -8.67791 8.67791 80.3685 45.1239 49.8302)" gradientUnits="userSpaceOnUse" x1="0" x2="1" y1="0" y2="0"><stop offset="0" stop-color="#fff"/><stop offset="0.693421" stop-color="#595959" stop-opacity="0"/></linearGradient></defs><g id="Layer"><g opacity="1">	<path fill="url(#LG)" fill-rule="nonzero" opacity="0.541457" stroke="none" d="M72.844 1.01511C72.2706 1.03458 71.6889 1.07116 71.0994 1.12785C69.752 1.25746 68.3731 1.46153 66.9444 1.82033C46.4889 6.95647 31.5834 42.9295 40.0234 68.5567C40.3069 69.4175 42.117 75.6599 46.2074 82.3044C47.805 84.8995 49.7155 87.5503 52.0694 89.9754C52.728 90.6539 53.3717 91.2624 54.0073 91.8382C61.8924 98.9813 67.8697 98.559 68.5119 98.559C79.4334 98.559 90.8058 88.9911 98.1278 74.9018C98.6393 73.9395 98.8741 72.8456 98.8739 71.7024C98.8739 68.5488 96.4381 65.9102 93.318 65.9102C90.5782 65.9102 89.1302 67.5869 87.3218 71.2515C82.7977 79.9214 76.1472 84.822 69.9398 84.822C69.9398 84.822 68.3972 84.6299 66.413 83.0291L69.5802 78.7668C86.4716 58.4076 96.0106 29.647 90.7091 13.5496C88.6489 7.2942 84.328 3.1636 78.5879 1.64855C78.5861 1.64809 78.5843 1.64902 78.5825 1.64855C77.2991 1.3097 75.9513 1.09208 74.5349 1.02048C73.9813 0.992509 73.4173 0.995651 72.844 1.01511ZM70.6323 13.5658C70.8686 13.5611 71.0995 13.583 71.3248 13.6248C71.3259 13.625 71.3291 13.6246 71.3302 13.6248C72.6773 13.8807 73.8617 15.0902 74.7067 17.6563C78.8487 30.2324 70.8184 54.5414 58.1891 71.4769C58.1891 71.4769 56.7931 66.8179 56.0472 64.5521C52.8711 54.9086 53.6924 42.8304 57.62 31.6348C61.0212 21.9401 66.3656 14.553 69.913 13.6624C70.1546 13.6017 70.3961 13.5704 70.6323 13.5658Z"/>	<path fill="url(#LG_2)" fill-rule="nonzero" opacity="0.590704" stroke="none" d="M8.8615 51.2069C3.86784 51.2069 1.12605 54.8822 1.12605 61.5566C1.12605 84.0232 14.7892 99.126 33.8769 98.9992C40.0735 98.9992 47.2316 95.967 54.0073 91.8382C53.3717 91.2624 52.728 90.6539 52.0694 89.9754C49.7154 87.5503 47.805 84.8995 46.2074 82.3044C42.3616 84.4063 38.0385 85.7507 34.1453 85.7507C25.7553 85.7507 18.0026 79.5375 15.169 70.7146C15.5203 68.4621 15.4751 65.1086 14.804 61.0198C14.3053 57.9818 13.1709 55.1107 11.363 53.1233C10.6399 52.3285 9.79303 51.675 8.8615 51.2069Z"/>	<path fill="url(#LG_3)" fill-rule="nonzero" opacity="0.541457" stroke="none" d="M8.8615 51.2069C3.86784 51.2069 1.12605 54.8822 1.12605 61.5566C1.12605 84.0232 14.7892 99.126 33.8769 98.9992C40.0735 98.9992 47.2316 95.967 54.0073 91.8382C53.3717 91.2624 52.728 90.6539 52.0694 89.9754C49.7154 87.5503 47.805 84.8995 46.2074 82.3044C42.3616 84.4063 38.0385 85.7507 34.1453 85.7507C25.7553 85.7507 18.0026 79.5375 15.169 70.7146C15.5203 68.4621 15.4751 65.1086 14.804 61.0198C14.3053 57.9818 13.1709 55.1107 11.363 53.1233C10.6399 52.3285 9.79303 51.675 8.8615 51.2069Z"/>	<path fill="url(#LG_4)" fill-rule="nonzero" opacity="0.541457" stroke="none" d="M78.5879 1.64855C83.7524 3.021 72.4123 13.8001 71.3302 13.6248C72.6773 13.8807 73.8617 15.0902 74.7067 17.6563C78.8487 30.2324 70.8184 54.5414 58.1891 71.4769C58.1891 71.4769 59.8813 75.4984 61.936 78.3857C63.9907 81.2729 66.4076 83.0237 66.4076 83.0237C66.4098 83.0255 66.4108 83.0273 66.413 83.0291L69.5802 78.7668C86.4716 58.4076 96.0106 29.647 90.7091 13.5496C88.6489 7.2942 84.328 3.1636 78.5879 1.64855Z"/>	<path fill="url(#LG_5)" fill-rule="nonzero" opacity="1" stroke="none" d="M15.1694 70.7164C20.5396 74.2579 21.7039 75.2452 27.1032 76.0583C31.0682 76.573 34.0127 73.6619 34.2821 69.7736C34.5632 66.607 32.4364 63.5952 29.1335 63.0767C23.1168 62.0566 20.7824 59.6948 16.9097 55.2694C14.5007 52.5224 12.0043 51.2095 8.86044 51.2095C9.83003 51.6985 10.6576 52.3528 11.3632 53.1254C13.2621 55.2044 14.2784 58.1403 14.8046 61.019C15.7062 65.9515 15.1694 70.7164 15.1694 70.7164Z"/>	<path fill="url(#LG_6)" fill-rule="nonzero" opacity="0.541457" stroke="none" d="M72.844 1.01511C72.2706 1.03458 71.6889 1.07116 71.0994 1.12785C69.752 1.25746 68.3731 1.46153 66.9444 1.82033C46.4889 6.95647 31.5834 42.9295 40.0234 68.5567C40.3069 69.4175 42.117 75.6599 46.2074 82.3044C47.805 84.8995 49.7155 87.5503 52.0694 89.9754C52.728 90.6539 53.3717 91.2624 54.0073 91.8382C61.8924 98.9813 67.8697 98.559 68.5119 98.559C79.4334 98.559 90.8058 88.9911 98.1278 74.9018C98.6393 73.9395 98.8741 72.8456 98.8739 71.7024C98.8739 68.5488 96.4381 65.9102 93.318 65.9102C90.5782 65.9102 89.1302 67.5869 87.3218 71.2515C82.7977 79.9214 76.1472 84.822 69.9398 84.822C69.9398 84.822 68.395 84.6294 66.4076 83.0237C66.4076 83.0237 63.9907 81.2729 61.936 78.3857C59.8813 75.4984 58.1891 71.4769 58.1891 71.4769C58.1891 71.4769 56.7931 66.8179 56.0472 64.5521C52.8711 54.9086 53.6924 42.8304 57.62 31.6348C61.0212 21.9401 66.3656 14.553 69.913 13.6624C70.3962 13.541 70.8743 13.5413 71.3248 13.6248C72.3878 13.8223 83.7652 3.01645 78.5825 1.64855C77.2991 1.3097 75.9513 1.09208 74.5349 1.02048C73.9813 0.992509 73.4174 0.995651 72.844 1.01511Z"/>	<path fill="url(#LG_7)" fill-rule="nonzero" opacity="0.541457" stroke="none" d="M72.844 1.01511C72.2706 1.03458 71.6889 1.07116 71.0994 1.12785C69.752 1.25746 68.3731 1.46153 66.9444 1.82033C46.4889 6.95647 31.5834 42.9295 40.0234 68.5567C40.3069 69.4175 42.117 75.6599 46.2074 82.3044C47.805 84.8995 49.7155 87.5503 52.0694 89.9754C52.728 90.6539 53.3717 91.2624 54.0073 91.8382C61.8924 98.9813 67.8697 98.559 68.5119 98.559C79.4334 98.559 90.8058 88.9911 98.1278 74.9018C98.6393 73.9395 98.8741 72.8456 98.8739 71.7024C98.8739 68.5488 96.4381 65.9102 93.318 65.9102C90.5782 65.9102 89.1302 67.5869 87.3218 71.2515C82.7977 79.9214 76.1472 84.822 69.9398 84.822C69.9398 84.822 68.395 84.6294 66.4076 83.0237C66.4076 83.0237 63.9907 81.2729 61.936 78.3857C59.8813 75.4984 58.1891 71.4769 58.1891 71.4769C58.1891 71.4769 56.7931 66.8179 56.0472 64.5521C52.8711 54.9086 53.6924 42.8304 57.62 31.6348C61.0212 21.9401 66.3656 14.553 69.913 13.6624C70.3962 13.541 70.8743 13.5413 71.3248 13.6248C72.3878 13.8223 83.7652 3.01645 78.5825 1.64855C77.2991 1.3097 75.9513 1.09208 74.5349 1.02048C73.9813 0.992509 73.4174 0.995651 72.844 1.01511Z"/>	<path fill="url(#LG_8)" fill-rule="nonzero" opacity="0.64" stroke="none" d="M72.844 1.01511C72.2706 1.03458 71.6889 1.07116 71.0994 1.12785C69.752 1.25746 68.3731 1.46153 66.9444 1.82033C46.4889 6.95647 31.5834 42.9295 40.0234 68.5567C40.3069 69.4175 42.117 75.6599 46.2074 82.3044C47.805 84.8995 49.7155 87.5503 52.0694 89.9754C52.728 90.6539 53.3717 91.2624 54.0073 91.8382C61.8924 98.9813 67.8697 98.559 68.5119 98.559C79.4334 98.559 90.8058 88.9911 98.1278 74.9018C98.6393 73.9395 98.8741 72.8456 98.8739 71.7024C98.8739 68.5488 96.4381 65.9102 93.318 65.9102C90.5782 65.9102 89.1302 67.5869 87.3218 71.2515C82.7977 79.9214 76.1472 84.822 69.9398 84.822C69.9398 84.822 68.395 84.6294 66.4076 83.0237C66.4076 83.0237 63.9907 81.2729 61.936 78.3857C59.8813 75.4984 58.1891 71.4769 58.1891 71.4769C58.1891 71.4769 56.7931 66.8179 56.0472 64.5521C52.8711 54.9086 53.6924 42.8304 57.62 31.6348C61.0212 21.9401 66.3656 14.553 69.913 13.6624C70.3962 13.541 70.8743 13.5413 71.3248 13.6248C72.3878 13.8223 83.7652 3.01645 78.5825 1.64855C77.2991 1.3097 75.9513 1.09208 74.5349 1.02048C73.9813 0.992509 73.4174 0.995651 72.844 1.01511Z"/></g></g></svg>