<svg xmlns="http://www.w3.org/2000/svg" xmlns:xlink="http://www.w3.org/1999/xlink" viewBox="0,0,256,256" width="100px" height="100px" fill-rule="nonzero"><defs><linearGradient x1="29.351" y1="9.078" x2="19.505" y2="33.924" gradientUnits="userSpaceOnUse" id="color-1"><stop offset="0" stop-color="#009cfc" stop-opacity="0.94118"></stop><stop offset="0.275" stop-color="#26b3fd" stop-opacity="0.94902"></stop><stop offset="0.885" stop-color="#84edff" stop-opacity="0.94902"></stop><stop offset="1" stop-color="#97f8ff" stop-opacity="0.96863"></stop></linearGradient><linearGradient x1="17" y1="23.044" x2="17" y2="47.044" gradientUnits="userSpaceOnUse" id="color-2"><stop offset="0" stop-color="#daa3ff" stop-opacity="0.56863"></stop><stop offset="1" stop-color="#b46cff" stop-opacity="0.47843"></stop></linearGradient><linearGradient x1="17" y1="47.891" x2="17" y2="23.891" gradientUnits="userSpaceOnUse" id="color-3"><stop offset="0" stop-color="#e1a6ff" stop-opacity="0"></stop><stop offset="1" stop-color="#f5ebff" stop-opacity="0.01961"></stop></linearGradient></defs><g fill="none" fill-rule="nonzero" stroke="none" stroke-width="1" stroke-linecap="butt" stroke-linejoin="miter" stroke-miterlimit="10" stroke-dasharray="" stroke-dashoffset="0" font-family="none" font-weight="none" font-size="none" text-anchor="none" style="mix-blend-mode: normal"><g transform="scale(5.33333,5.33333)"><path d="M15.675,42.556c1.037,-5.299 2.444,-9.401 4.279,-13.556h-3.829c-2.326,5.667 -3.388,10.422 -4.96,18.177z" fill-opacity="0.92157" fill="#247dff" opacity="0.4"></path><path d="M11.409,48l4.958,-5.081c1.132,-5.784 2.543,-9.74 4.411,-13.919h-5.455c-2.324,5.721 -3.31,10.237 -5.091,19c0.3,0 0.702,0 1.177,0z" fill-opacity="0.92157" fill="#247dff" opacity="0.3"></path><path d="M9.472,47.972c0.074,0.007 0.138,0.028 0.216,0.028c0.25,0 1.319,0 2.769,0l4.603,-4.717c1.22,-6.232 2.646,-10.106 4.537,-14.283h-7.08c-2.268,5.639 -3.217,9.958 -5.045,18.972z" fill-opacity="0.92157" fill="#247dff" opacity="0.2"></path><path d="M22.41,29h-8.694c-2.213,5.551 -3.155,9.782 -4.979,18.802c0.281,0.114 0.589,0.198 0.951,0.198c0.307,0 1.846,0 3.817,0l4.248,-4.354c1.302,-6.645 2.747,-10.489 4.657,-14.646z" fill-opacity="0.92157" fill="#247dff" opacity="0.1"></path><path d="M38.992,0c-5.98,0 -13.03,3.296 -17.607,8.354c-0.271,1.455 -0.516,3.947 0.093,6.934c-1.045,-1.132 -1.76,-2.948 -2.171,-4.242c-2.86,4.4 -3.823,9.725 -1.186,15.24c-2.972,6.271 -4.376,11.941 -5.716,18.546l2.577,-2.639c1.093,-5.588 2.82,-10.575 5.074,-15.259c10.156,-0.671 15.645,-7.745 17.869,-15.49l-4.658,-1.193l5.117,-0.607c0.735,-3.325 0.904,-6.687 0.608,-9.644z" fill="url(#color-1)"></path><path d="M12.405,44.832l2.577,-2.639c0.964,-4.931 2.424,-9.393 4.302,-13.592h-2.201c-2.282,5.38 -3.504,10.447 -4.678,16.231z" fill-opacity="0.92157" fill="#247dff" opacity="0.4"></path><path d="M12.405,44.832l2.577,-2.639c0.995,-5.089 2.521,-9.676 4.488,-13.992h-2.207c-2.392,5.528 -3.656,10.705 -4.858,16.631z" fill-opacity="0.92157" fill="#247dff" opacity="0.3"></path><path d="M12.405,44.832l2.577,-2.639c1.026,-5.246 2.617,-9.959 4.673,-14.392h-2.213c-2.506,5.679 -3.806,10.963 -5.037,17.031z" fill-opacity="0.92157" fill="#247dff" opacity="0.2"></path><path d="M12.405,44.832l2.577,-2.639c1.057,-5.404 2.712,-10.243 4.858,-14.792h-2.219c-2.623,5.832 -3.956,11.221 -5.216,17.431z" fill-opacity="0.92157" fill="#247dff" opacity="0.1"></path><path d="M12.405,44.832l2.577,-2.639c1.087,-5.562 2.805,-10.528 5.044,-15.192h-2.226c-2.744,5.987 -4.106,11.479 -5.395,17.831z" fill-opacity="0.92157" fill="#247dff" opacity="0.05"></path><path d="M24,33.1v-3.1c0,-0.552 -0.448,-1 -1,-1h-12c-0.552,0 -1,0.448 -1,1v3.1c-2.836,0.526 -5,3.21 -5,5.9c0,3 2,7.002 2,7.002c0,0 0.75,1.998 2.688,1.998c0.951,0 13.674,0 14.625,0c1.937,0 2.687,-1.998 2.687,-1.998c0,0 2,-4.002 2,-7.002c0,-2.691 -2.164,-5.374 -5,-5.9z" fill="url(#color-2)"></path><path d="M23,29.5c0.276,0 0.5,0.224 0.5,0.5v3.1c0,0.241 0.172,0.448 0.409,0.492c2.531,0.469 4.591,2.895 4.591,5.408c0,2.845 -1.928,6.74 -1.947,6.779c-0.007,0.014 -0.014,0.031 -0.02,0.046c-0.026,0.068 -0.661,1.676 -2.22,1.676h-14.625c-1.559,0 -2.194,-1.607 -2.22,-1.674c-0.006,-0.016 -0.013,-0.032 -0.021,-0.048c-0.019,-0.039 -1.947,-3.934 -1.947,-6.779c0,-2.513 2.06,-4.939 4.591,-5.409c0.237,-0.044 0.409,-0.251 0.409,-0.492v-3.099c0,-0.276 0.224,-0.5 0.5,-0.5h12M23,29h-12c-0.552,0 -1,0.448 -1,1v3.1c-2.836,0.526 -5,3.21 -5,5.9c0,3 2,7.002 2,7.002c0,0 0.75,1.998 2.688,1.998c0.951,0 13.674,0 14.625,0c1.937,0 2.687,-1.998 2.687,-1.998c0,0 2,-4.002 2,-7.002c0,-2.691 -2.164,-5.374 -5,-5.9v-3.1c0,-0.552 -0.448,-1 -1,-1z" fill="url(#color-3)"></path><path d="M24.99,46c0.563,-1.115 2.01,-4.492 2.01,-6.778c0,-0.74 -0.262,-1.522 -0.708,-2.222h-18.584c-0.446,0.7 -0.708,1.482 -0.708,2.222c0,2.3 1.446,5.666 2.009,6.778z" fill-opacity="0.50196" fill="#a800ff" opacity="0.2"></path></g></g></svg>