<svg xmlns="http://www.w3.org/2000/svg" xmlns:vectornator="http://vectornator.io" xml:space="preserve" width="100%" height="100%" stroke-miterlimit="10" style="fill-rule:nonzero;clip-rule:evenodd;stroke-linecap:round;stroke-linejoin:round" version="1.1" viewBox="0 0 71 57"><defs><linearGradient id="b" x1="0" x2="1" y1="0" y2="0" gradientTransform="rotate(-58.858 116.576 8.047) scale(106.3108)" gradientUnits="userSpaceOnUse"><stop offset="0" stop-color="#fff"/><stop offset="1" stop-color="#666" stop-opacity=".5"/></linearGradient><linearGradient id="c" x1="0" x2="1" y1="0" y2="0" gradientTransform="scale(43.7925) rotate(-45.764 .965 2.056)" gradientUnits="userSpaceOnUse"><stop offset="0" stop-color="#fff"/><stop offset="1" stop-color="#666" stop-opacity=".5"/></linearGradient><linearGradient id="d" x1="0" x2="1" y1="0" y2="0" gradientTransform="matrix(55.6321 -69.1913 69.1744 55.6395 50.622 109.212)" gradientUnits="userSpaceOnUse"><stop offset="0" stop-color="#fff"/><stop offset="1" stop-color="#666" stop-opacity=".5"/></linearGradient><linearGradient id="e" x1="0" x2="1" y1="0" y2="0" gradientTransform="translate(30.732 64.075) scale(66.5358)" gradientUnits="userSpaceOnUse"><stop offset="0" stop-color="#fff"/><stop offset="1" stop-color="#666" stop-opacity=".5"/></linearGradient><linearGradient id="f" x1="0" x2="1" y1="0" y2="0" gradientTransform="translate(7.887 22.788) scale(67.1106)" gradientUnits="userSpaceOnUse"><stop offset="0" stop-color="#fff"/><stop offset="1" stop-color="#666" stop-opacity=".5"/></linearGradient><linearGradient id="g" x1="0" x2="1" y1="0" y2="0" gradientTransform="matrix(131.627 15.2443 -15.1108 130.474 .719 68.357)" gradientUnits="userSpaceOnUse"><stop offset="0" stop-color="#fff"/><stop offset="1" stop-color="#666" stop-opacity=".5"/></linearGradient><linearGradient id="h" x1="0" x2="1" y1="0" y2="0" gradientTransform="matrix(131.627 15.2443 -15.1108 130.474 .719 68.357)" gradientUnits="userSpaceOnUse"><stop offset="0" stop-color="#fff"/><stop offset="1" stop-color="#666" stop-opacity=".5"/></linearGradient><linearGradient id="i" x1="0" x2="1" y1="0" y2="0" gradientTransform="matrix(131.627 15.2443 -15.1108 130.474 .719 68.357)" gradientUnits="userSpaceOnUse"><stop offset="0" stop-color="#fff"/><stop offset="1" stop-color="#666" stop-opacity=".5"/></linearGradient><linearGradient id="j" x1="0" x2="1" y1="0" y2="0" gradientTransform="rotate(-131.717 50.457 51.772) scale(59.9012)" gradientUnits="userSpaceOnUse"><stop offset="0" stop-color="#fff"/><stop offset="1" stop-color="#666" stop-opacity=".5"/></linearGradient><linearGradient id="k" x1="0" x2="1" y1="0" y2="0" gradientTransform="scale(-45.7588) rotate(51.893 2.288 -2.264)" gradientUnits="userSpaceOnUse"><stop offset="0" stop-color="#fff"/><stop offset="1" stop-color="#666" stop-opacity=".5"/></linearGradient><linearGradient id="l" x1="0" x2="1" y1="0" y2="0" gradientTransform="matrix(38.5837 -39.1176 38.775 38.2458 50.167 102.567)" gradientUnits="userSpaceOnUse"><stop offset="0" stop-color="#fff"/><stop offset="1" stop-color="#666" stop-opacity=".5"/></linearGradient><linearGradient id="m" x1="0" x2="1" y1="0" y2="0" gradientTransform="rotate(-58.858 53.831 -3.696) scale(62.6919)" gradientUnits="userSpaceOnUse"><stop offset="0" stop-color="#fff"/><stop offset="1" stop-color="#666" stop-opacity=".5"/></linearGradient><linearGradient id="o" x1="0" x2="1" y1="0" y2="0" gradientTransform="matrix(40.6902 -44.0162 47.7254 39.2503 30.806 40.034)" gradientUnits="userSpaceOnUse"><stop offset="0" stop-color="#fff"/><stop offset="1" stop-color="#666" stop-opacity=".5"/></linearGradient><linearGradient id="t" x1="0" x2="1" y1="0" y2="0" gradientTransform="scale(28.01) rotate(-51.028 2.2 .65)" gradientUnits="userSpaceOnUse"><stop offset="0" stop-color="#fff"/><stop offset="1" stop-color="#666" stop-opacity=".5"/></linearGradient><linearGradient id="u" x1="0" x2="1" y1="0" y2="0" gradientTransform="matrix(34.7927 -32.2833 32.0005 34.4879 29.86 48.672)" gradientUnits="userSpaceOnUse"><stop offset="0" stop-color="#fff"/><stop offset="1" stop-color="#666" stop-opacity=".5"/></linearGradient><filter id="n" width="8.348" height="9.324" x="20.526" y="38.361" color-interpolation-filters="sRGB" filterUnits="userSpaceOnUse"><feGaussianBlur in="SourceGraphic" result="Blur" stdDeviation="1.5"/></filter><filter id="p" width="13.277" height="20.693" x="21.423" y="33.738" color-interpolation-filters="sRGB" filterUnits="userSpaceOnUse"><feGaussianBlur in="SourceGraphic" result="Blur" stdDeviation="1.503"/></filter><filter id="q" width="14.718" height="22.513" x="20.346" y="32.508" color-interpolation-filters="sRGB" filterUnits="userSpaceOnUse"><feGaussianBlur in="SourceGraphic" result="Blur" stdDeviation="2"/></filter><filter id="r" width="20.578" height="14.289" x="3.596" y="25.1" color-interpolation-filters="sRGB" filterUnits="userSpaceOnUse"><feGaussianBlur in="SourceGraphic" result="Blur" stdDeviation="2"/></filter><filter id="s" width="20.578" height="14.289" x="3.596" y="25.1" color-interpolation-filters="sRGB" filterUnits="userSpaceOnUse"><feGaussianBlur in="SourceGraphic" result="Blur" stdDeviation="2"/></filter></defs><clipPath id="a"><path d="M0 0H71V57H0z"/></clipPath><g vectornator:layerName="pencil.tip.crop.circle.badge.minus@3x"><g vectornator:layerName="Group 4" clip-path="url(#a)" opacity="1"><path vectornator:blur="3" vectornator:layerName="Curve 4" fill="url(#m)" fill-rule="nonzero" d="M24.2758 42.1108C24.4255 42.7436 24.6397 43.3615 24.9761 43.9352C25.005 43.7938 25.1235 43.7078 25.1235 43.5482C25.1235 43.0086 24.9567 42.5705 24.626 42.2398C24.5374 42.1512 24.3794 42.1756 24.2758 42.1108Z" filter="url(#n)" opacity="1"/><path vectornator:blur="3.007" vectornator:layerName="Curve 6" fill="url(#o)" fill-rule="nonzero" d="M28.1659 37.496C27.7282 38.0843 27.2774 38.6799 26.9222 39.2453C25.8697 40.9211 25.2874 42.5098 25.1842 44.0343C25.1652 44.3144 25.263 44.584 25.2835 44.8596C25.3752 44.9374 25.5352 44.9422 25.6083 45.0394C25.8812 45.4023 25.9751 45.8362 25.8877 46.3352C25.8619 46.4828 25.731 46.5419 25.6796 46.6676C25.9197 47.2584 26.1946 47.8463 26.6301 48.4146C27.418 49.4769 28.3823 50.2092 29.4974 50.6726C30.0729 49.5986 30.5419 48.4544 30.7634 47.1884C31.062 45.4823 30.9818 43.8251 30.5492 42.1983C30.1166 40.5716 29.3896 39.0811 28.3696 37.7248C28.3078 37.6427 28.2294 37.5765 28.1659 37.496Z" filter="url(#p)" opacity="1"/><path vectornator:blur="4" vectornator:layerName="Curve 3" fill="#fff" fill-rule="nonzero" d="M28.5536 37.5079C27.8818 38.4802 27.0907 39.5021 26.6187 40.4011C25.7953 41.9694 25.3684 43.4465 25.3471 44.8239C25.3258 46.2013 25.798 47.4868 26.7661 48.6754C27.2238 49.2558 27.7536 49.6671 28.3141 50.0207C28.5485 49.605 28.8018 49.2109 28.9959 48.7675C29.7009 47.1575 30.0648 45.4148 30.0648 43.5523C30.0648 41.7073 29.7009 39.9646 28.9959 38.3371C28.8688 38.0437 28.698 37.7886 28.5536 37.5079Z" filter="url(#q)" opacity="1"/><path vectornator:blur="4" vectornator:layerName="Curve 10" fill="#fff" fill-rule="nonzero" d="M16.6121 30.0997C14.7845 30.0997 13.0613 30.4636 11.4338 31.1685C10.4033 31.6149 9.47276 32.2048 8.59583 32.8639C9.0311 33.3586 9.55332 33.7647 10.2544 34.0433C11.0189 34.3472 11.8517 34.4471 12.7606 34.3566C13.6695 34.2662 14.5544 33.9297 15.4143 33.3246C15.6293 33.1734 15.9144 32.9526 16.262 32.6797C16.6095 32.4067 17.0328 32.0681 17.5335 31.6661C17.9991 31.2923 18.5578 30.8494 19.1737 30.3577C18.3438 30.1978 17.4879 30.0997 16.6121 30.0997Z" filter="url(#r)" opacity="1"/><path vectornator:blur="4" vectornator:layerName="Curve 2" fill="#fff" fill-rule="nonzero" d="M16.6121 30.0997C14.7845 30.0997 13.0613 30.4636 11.4338 31.1685C10.4033 31.6149 9.47276 32.2048 8.59583 32.8639C9.0311 33.3586 9.55332 33.7647 10.2544 34.0433C11.0189 34.3472 11.8517 34.4471 12.7606 34.3566C13.6695 34.2662 14.5544 33.9297 15.4143 33.3246C15.6293 33.1734 15.9144 32.9526 16.262 32.6797C16.6095 32.4067 17.0328 32.0681 17.5335 31.6661C17.9991 31.2923 18.5578 30.8494 19.1737 30.3577C18.3438 30.1978 17.4879 30.0997 16.6121 30.0997Z" filter="url(#s)" opacity="1"/><path vectornator:layerName="Curve 7" fill="url(#t)" fill-rule="nonzero" d="M16.6097 30.1074C14.782 30.1074 13.0545 30.4598 11.427 31.1648C9.79951 31.8697 8.36349 32.8401 7.11894 34.076C5.8744 35.3118 4.89965 36.7435 4.1947 38.371C3.48974 39.9984 3.13727 41.726 3.13727 43.5537C3.13727 45.4161 3.48539 47.1568 4.18164 48.7755C4.87789 50.3943 5.84829 51.8216 7.09284 53.0575C8.33738 54.2933 9.76905 55.2594 11.3878 55.9556C13.0066 56.6519 14.7472 57 16.6097 57C18.4374 57 20.1649 56.6519 21.7924 55.9556C23.4199 55.2594 24.8516 54.289 26.0874 53.0444C27.3232 51.7999 28.2936 50.3726 28.9986 48.7625C29.7035 47.1524 30.056 45.4161 30.056 43.5537C30.056 41.7086 29.7035 39.9723 28.9986 38.3449C28.2936 36.7174 27.3232 35.2857 26.0874 34.0499C24.8516 32.814 23.4199 31.848 21.7924 31.1517C20.1649 30.4555 18.4374 30.1074 16.6097 30.1074ZM25.1214 43.5537C25.1214 44.0933 24.956 44.5284 24.6253 44.8591C24.2946 45.1899 23.8594 45.3552 23.3198 45.3552L18.3851 45.3552L14.782 45.3552L9.84737 45.3552C9.30778 45.3552 8.87262 45.1899 8.54191 44.8591C8.21119 44.5284 8.04583 44.0933 8.04583 43.5537C8.04583 43.0141 8.21119 42.5789 8.54191 42.2482C8.87262 41.9175 9.30778 41.7521 9.84737 41.7521L14.782 41.7521L18.3851 41.7521L23.3198 41.7521C23.8594 41.7521 24.2946 41.9175 24.6253 42.2482C24.956 42.5789 25.1214 43.0141 25.1214 43.5537Z" opacity="1"/><path vectornator:layerName="Curve 1" fill="url(#u)" fill-rule="nonzero" d="M50.8703 0.0063394C49.0936 0.0666402 47.0168 0.600229 44.6415 1.6096C41.4744 2.95542 37.5482 5.21465 32.8659 8.3912C28.1835 11.5678 22.4858 15.7474 15.7828 20.9408C14.8923 21.6402 14.0984 22.2572 13.4056 22.7837C12.7128 23.3102 12.1274 23.7746 11.6181 24.1658C11.1087 24.557 10.6756 24.888 10.3281 25.1609C9.98054 25.4338 9.71497 25.6515 9.51724 25.8243C8.68065 26.5691 8.10003 27.3638 7.80341 28.22C7.50679 29.0762 7.42924 29.9093 7.56384 30.7078C7.69844 31.5063 7.99996 32.1925 8.4484 32.7534C8.48563 32.7999 8.55642 32.8192 8.59583 32.8639C9.47276 32.2048 10.4033 31.6149 11.4338 31.1685C13.0613 30.4636 14.7845 30.0997 16.6121 30.0997C17.4879 30.0997 18.3438 30.1978 19.1737 30.3577C19.2201 30.3206 19.2553 30.3033 19.3026 30.2656C19.9771 29.7271 20.7558 29.105 21.6246 28.4227C25.7801 25.1069 29.5576 22.1153 32.9764 19.4482C36.3953 16.781 39.3832 14.5491 41.9326 12.7403C44.4819 10.9314 46.5384 9.65536 48.106 8.90719C49.6736 8.15903 50.6927 8.05102 51.1651 8.57548C51.5318 8.98983 51.4945 9.6834 51.0361 10.6579C50.5777 11.6324 49.8129 12.7851 48.7694 14.1224C47.726 15.4597 46.52 16.8994 45.1575 18.4346C43.795 19.9699 42.4148 21.5035 40.9927 23.0417C38.8659 25.379 36.852 27.5598 34.9667 29.6021C33.0814 31.6444 31.4228 33.5603 29.991 35.3518C29.38 36.1163 29.0539 36.784 28.5536 37.5079C28.698 37.7886 28.8688 38.0437 28.9959 38.3371C29.7009 39.9646 30.0648 41.7073 30.0648 43.5523C30.0648 45.4148 29.7009 47.1575 28.9959 48.7675C28.8018 49.2109 28.5485 49.605 28.3141 50.0207C29.3136 50.6512 30.4523 50.9593 31.7786 50.8684C33.8486 50.7264 36.3449 49.8862 39.2605 48.3253C42.176 46.7644 45.5594 44.6687 49.396 42.0596C51.5435 40.5664 53.4921 39.2384 55.2378 38.0607C56.9834 36.883 58.4294 36.0306 59.5868 35.4992C60.7443 34.9678 61.5132 34.95 61.8904 35.4439C62.1858 35.7913 62.2133 36.2642 61.9641 36.8813C61.7149 37.4983 61.2567 38.2616 60.6188 39.1664C59.9809 40.0712 59.2195 41.1111 58.3337 42.2808C57.4936 43.397 56.6611 44.5187 55.809 45.6532C54.9569 46.7876 54.2353 47.9251 53.6714 49.044C53.1074 50.1628 52.8101 51.245 52.7684 52.2873C52.7266 53.3296 53.0794 54.3259 53.8188 55.2727C54.8536 56.5669 56.4788 57.0388 58.7207 56.6917C60.9626 56.3446 64.0691 54.5062 67.1685 52.125C67.7115 51.6986 67.6296 51.6918 67.7874 51.1816C67.9452 50.6714 67.8559 50.2125 67.511 49.7811C67.1833 49.3712 66.7679 49.1539 66.2763 49.1361C65.7847 49.1183 65.2796 49.2903 64.8474 49.6122C63.3314 50.7675 62.0769 51.635 60.969 52.2505C59.861 52.8659 58.9656 53.2454 58.2969 53.393C57.6281 53.5407 57.1954 53.486 56.9885 53.2272C56.7447 52.9445 56.7695 52.4778 57.0622 51.8266C57.3548 51.1755 57.8784 50.305 58.647 49.2098C59.4156 48.1147 60.4005 46.7419 61.5955 45.1187C62.7209 43.5854 63.7055 42.1901 64.544 40.9171C65.3826 39.6441 66.0115 38.4728 66.4422 37.3973C66.8728 36.3217 67.0566 35.3227 66.9766 34.3935C66.8966 33.4643 66.4881 32.568 65.7787 31.703C64.8451 30.5575 63.7693 29.8915 62.5538 29.7311C61.3382 29.5708 59.9551 29.8178 58.389 30.4683C56.8229 31.1187 55.0237 32.0867 53.0079 33.3799C50.9922 34.6732 48.7072 36.2114 46.1342 37.9686C43.7088 39.645 41.6863 40.9617 40.0713 41.9491C38.4563 42.9364 37.1538 43.6619 36.1645 44.1052C35.1753 44.5484 34.4231 44.7696 33.8978 44.787C33.3726 44.8045 32.9783 44.6652 32.7369 44.3632C32.4804 44.0203 32.3971 43.6342 32.4789 43.1838C32.5607 42.7333 32.8539 42.1299 33.3634 41.3962C33.8729 40.6625 34.6425 39.713 35.6669 38.5398C36.6914 37.3667 38.0058 35.9058 39.6106 34.1539C41.2154 32.4021 43.169 30.2731 45.4524 27.7777C48.1206 24.8572 50.4634 22.1949 52.5104 19.7799C54.5573 17.3648 56.1791 15.1763 57.3754 13.201C58.5718 11.2257 59.2548 9.41872 59.4026 7.8015C59.5504 6.18428 59.0735 4.70216 57.9652 3.36028C56.4601 1.52229 54.6501 0.439887 52.5472 0.0984807C52.0215 0.0131289 51.4625-0.0137582 50.8703 0.0063394Z" opacity="1"/></g></g></svg>