<svg xmlns="http://www.w3.org/2000/svg" xml:space="preserve" width="100%" height="100%" viewBox="0 0 512 512"><defs><linearGradient id="a" x1="0" x2="1" y1="0" y2="0" gradientTransform="matrix(-84.1891 -216.7 214.227 -97.1657 459.195 474.637)" gradientUnits="userSpaceOnUse"><stop offset="0" stop-color="#fff"/><stop offset="1" stop-color="#595959" stop-opacity=".276"/></linearGradient><linearGradient id="b" x1="0" x2="1" y1="0" y2="0" gradientTransform="matrix(-51.4802 -194.192 192.935 -62.4057 318.722 420.617)" gradientUnits="userSpaceOnUse"><stop offset="0" stop-color="#fff"/><stop offset="1" stop-color="#595959" stop-opacity=".276"/></linearGradient><linearGradient id="c" x1="0" x2="1" y1="0" y2="0" gradientTransform="matrix(-419.19 223.395 -219.113 -418.185 390.028 48.587)" gradientUnits="userSpaceOnUse"><stop offset="0" stop-color="#4d4d4d" stop-opacity=".53"/><stop offset=".201" stop-color="#979797" stop-opacity=".727"/><stop offset=".48" stop-color="#fff"/><stop offset=".719" stop-color="#eaeaea" stop-opacity=".846"/><stop offset="1" stop-color="#878787" stop-opacity=".185"/></linearGradient><linearGradient id="d" x1="0" x2="1" y1="0" y2="0" gradientTransform="matrix(289.711 -303.421 298.127 276.82 9.702 506.727)" gradientUnits="userSpaceOnUse"><stop offset="0" stop-color="#4d4d4d" stop-opacity=".53"/><stop offset=".201" stop-color="#979797" stop-opacity=".727"/><stop offset=".48" stop-color="#fff"/><stop offset=".719" stop-color="#eaeaea" stop-opacity=".846"/><stop offset="1" stop-color="#878787" stop-opacity=".185"/></linearGradient><linearGradient id="e" x1="0" x2="1" y1="0" y2="0" gradientTransform="matrix(109.235 -160.148 156.808 107.991 141.72 118.307)" gradientUnits="userSpaceOnUse"><stop offset="0" stop-color="#fff"/><stop offset="1" stop-color="#878787" stop-opacity=".3"/></linearGradient><linearGradient id="f" x1="0" x2="1" y1="0" y2="0" gradientTransform="matrix(448.967 -180.91 139.462 550.219 104.325 307.557)" gradientUnits="userSpaceOnUse"><stop offset="0" stop-color="#fff"/><stop offset="1" stop-color="#595959" stop-opacity=".276"/></linearGradient><linearGradient id="g" x1="0" x2="1" y1="0" y2="0" gradientTransform="matrix(-224.473 -65.165 107.784 -253.4 355.046 417.537)" gradientUnits="userSpaceOnUse"><stop offset="0" stop-color="#fff"/><stop offset="1" stop-color="#595959" stop-opacity=".276"/></linearGradient><linearGradient id="h" x1="0" x2="1" y1="0" y2="0" gradientTransform="matrix(-101.918 -291.759 288.887 -119.054 369.159 518.184)" gradientUnits="userSpaceOnUse"><stop offset="0" stop-color="#fff"/><stop offset="1" stop-color="#595959" stop-opacity=".276"/></linearGradient><linearGradient id="i" x1="0" x2="1" y1="0" y2="0" gradientTransform="matrix(-76.4683 -175.299 172.964 -87.2111 313.491 490.255)" gradientUnits="userSpaceOnUse"><stop offset="0" stop-color="#fff"/><stop offset="1" stop-color="#595959" stop-opacity=".276"/></linearGradient><linearGradient id="k" x1="0" x2="1" y1="0" y2="0" gradientTransform="matrix(-76.4683 -175.299 172.964 -87.2111 343.71 401.724)" gradientUnits="userSpaceOnUse"><stop offset="0" stop-color="#fff"/><stop offset="1" stop-color="#595959" stop-opacity=".276"/></linearGradient><linearGradient id="l" x1="0" x2="1" y1="0" y2="0" gradientTransform="scale(-248.543 248.543) rotate(43.674 -2.097 -.338)" gradientUnits="userSpaceOnUse"><stop offset="0" stop-color="#fff"/><stop offset="1" stop-color="#666" stop-opacity=".5"/></linearGradient><filter id="j" width="91.921" height="157.015" x="128.493" y="335.774" color-interpolation-filters="sRGB" filterUnits="userSpaceOnUse"><feGaussianBlur in="SourceGraphic" result="Blur" stdDeviation="8.29"/></filter></defs><rect x="0" y="0" width="512" height="512" fill="#000"/><path fill="url(#a)" d="m408.627 311.942.382.061c14.135 2.24 27.784 4.029 36.418 13.248 39.496 42.165-17.463 78.663-22.573 114.341-1.708 11.928 3.346 20.556 11.022 26.971 12.197 10.192 26.653 6.251 40.817-11.095 47.663-58.376 46.351-125.487-.501-164.081-15.262-12.754-45.972-25.844-63.687-22.565.436 6.988.515 19.201-.038 29.072-.347 6.2-.956 11.391-1.84 14.048Z"/><path fill="url(#b)" d="M404.441 266.888c-4.074-.913-10.243-1.762-18.538-1.476-5.28.182-13.235 1.018-19.133 12.406-2.878 5.554-5.479 19.505-6.631 25.762-2.261 12.276-11.394 29.213-12.564 32.111-12.715 31.53-40.355 61.259-73.692 82.34-28.858 18.264-57.592 26.484-68.134 21.568-1.438-.672-2.594-1.554-3.529-2.702-2.123-2.618-2.742-6.535-1.399-12.022-.686.299-1.376.596-2.068.89 0 0-1.623 12.757-6.815 25.016-4.55 10.743-12.806 21.158-12.152 21.55a82.033 82.033 0 0 0 7.566 4.022c60.817 28.37 173.523-34.682 207.294-118.486 6.564-16.322 14.116-39.675 13.985-45.98l1.878-43.121s-1.993-.966-6.068-1.878Z"/><path fill="url(#c)" d="M330.075 3.62c-30.521-12.158-34.965 41.76-26.728 55.06 1.12 3.04.287 6.981-3.294 12.217-4.064 5.943-10.223 12.788-18.536 20.508-8.314 7.719-17.8 15.923-28.431 24.611-5.91 4.831-12.037 9.629-18.087 14.424-4.832 3.829-9.567 7.657-14.463 11.496-16.531 13.171-32.11 25.539-46.732 37.021-4.174 3.277-38.605 31.624-38.605 31.624l19.765 40.226c3.572-3.287 8.837-7.884 13.993-12.167 8.013-6.657 18.276-14.925 30.737-24.786 12.462-9.861 27.522-21.894 45.254-35.942 7.315-5.805 12.789-10.48 19.53-15.948 12.36-10.027 25.306-20.451 35.716-29.361 16.087-13.769 29.12-26.497 39.121-38.262 10.001-11.765 16.315-22.897 19.013-33.404 2.629-10.255 7.121-43.224-28.253-57.316Z"/><path fill="url(#d)" d="M135.199 210.581c-6.498 5.491-12.434 10.584-16.167 13.873-9.095 8.013-15.976 16.532-20.766 25.772-2.992 5.769-4.777 11.997-5.32 18.583-.023.278-.08.556-.098.835-.009.126.02.263.013.389-.472 3.408-.285 6.929.423 10.51.025.187 0 .358.026.545.002-.083.034-.144.037-.226 1.068 5.175 3.076 10.421 5.932 15.353 2.99 5.358 6.763 9.477 11.176 12.688 2.785 2.027 5.986 3.711 9.312 4.921.032.012 23.702-39.562 23.702-39.562-1.329-2.531-1.626-5.336-.607-8.219.504-1.427 2.575-6.339 12.102-15.236l-19.765-40.226Z"/><path fill="url(#e)" d="M318.748.517c-14.974-1.624-38.684.825-51.253 3.94-22.345 5.54-50.628 16.31-84.927 32.326-5.163 2.411-11.75 5.85-17.266 8.516-28.114 13.593-46.619 22.711-83.66 42.733-1.416.765-7.799 4.321-9.23 5.097a3287.552 3287.552 0 0 0-7.8 4.246 1270.752 1270.752 0 0 1-17.594 9.584c-5.135 2.742-9.579 5.214-13.359 7.257-3.779 2.043-7.034 3.727-9.62 5.161a134.374 134.374 0 0 0-6.121 3.603c-6.317 4.03-10.833 8.713-13.703 14.046-2.87 5.334-4.253 10.612-4.214 16.019.039 5.406 1.125 10.243 3.49 14.413.335.592.82 1.106 1.26 1.636.52.628.998 1.279 1.52 1.91 2.136 2.584 4.626 4.957 7.884 6.893 4.725 2.808 10.19 4.383 16.288 4.744 6.098.36 12.233-.929 18.555-4.013 1.58-.771 3.729-1.945 6.314-3.379a972.294 972.294 0 0 0 9.409-5.272c3.734-2.123 8.146-4.68 13.172-7.52.487-.275 1.178-.643 1.678-.925 4.384-2.472 9.246-5.175 14.652-8.168.347-.192.615-.344.966-.539 30.968-17.488 50.894-28.995 76.308-42.981 11.753-6.469 20.312-10.63 30.636-16.08 12-6.336 25.531-13.781 35.614-18.75 18.759-9.242 33.698-15.43 44.845-18.713 11.147-3.283 20.606 1.968 20.757 2.378-.833-.848-4.447-9.284-3.52-22.654.205-2.954.819-8.317 1.619-11.57 4.114-16.709 13.027-26.922 28.623-20.816-2.305-1.572-6.332-2.58-11.323-3.122Z"/><path fill="url(#f)" d="M327.533 209.298c-8.563 1.961-24.97 8.098-38.595 13.623-14.686 6.405-31.436 14.013-50.297 22.89-17.799 8.5-32.533 15.162-44.248 19.971-11.715 4.81-21.12 8.15-28.124 10.032-7.004 1.881-12.171 2.603-15.658 2.165-3.419-.429-5.851-1.55-7.142-3.717l-23.702 39.562c3.171 1.148 6.643 1.702 10.355 2.037 6.054.544 12.776.315 20.201-.767 9.524-1.388 20.161-4.157 31.912-8.216 15.261-5.272 32.448-12.093 51.551-20.52 3.557-1.569 11.977-5.533 20.648-9.588.561-.24.768-.156 1.368-.435 7.823-3.635 12.929-6.201 19.081-9.109 8.41-3.999 16.319-7.736 23.73-11.173 10.602-5.117 17.748-7.53 22.63-8.878-11.369 1.744-12.288-34.085 6.29-37.877Z"/><path fill="url(#g)" d="M360.099 207.608c-9.537-1.359-20.372-.827-32.566 1.69-18.457 3.69-17.965 39.412-6.29 37.877 50.555-6.65 42.165 34.14 38.893 56.418-.366 1.992-1.283 5.508-2.932 10.208-2.013 5.741-5.119 13.247-9.649 21.899-15.868 30.304-52.348 68.846-73.672 82.331-28.858 18.264-57.592 26.484-68.134 21.568-1.438-.672-2.594-1.554-3.529-2.702-2.123-2.618-2.742-6.535-1.399-12.022-5.202 2.268-10.556 4.397-16.241 6.207-9.71 3.093-20.294 5.405-32.829 7.757 1.568 5.003 3.735 9.819 6.798 14.256 2.415 3.499 5.281 6.796 8.582 9.868 2.584 2.404 5.465 4.66 8.59 6.775a88.823 88.823 0 0 0 4.065 2.593 81.92 81.92 0 0 0 7.566 4.022c60.817 28.37 173.523-34.682 207.294-118.486 6.564-16.322 10.397-23.589 14.363-45.864 3.966-22.275 1.5-43.237 1.5-43.237l-.112-.018c-.001-.008.008-.03.007-.038-4.992-35.913-21.694-57.026-50.305-61.102Z"/><path fill="url(#h)" d="M361.812 267.969c-9.832 1.499-17.656 3.093-17.656 3.093-62.429 13.648-124.7 47.47-161.531 85.438a103.147 103.147 0 0 1 9.313 17.062c5.167 12.014 7.749 24.928 7.75 38.75 0 13.564-2.583 26.391-7.75 38.469-3.3 7.713-7.536 14.754-12.5 21.282 2.502 1.519 5.085 2.968 7.906 4.281 34.185 15.946 28.949-31.834 18.406-36.75-1.438-.672-2.597-1.54-3.531-2.688-2.761-3.404-3.08-8.994.312-17.406 16.764-41.59 100.688-97.474 154.688-105.688 1.235-3.487 2.284-6.656 2.906-10.218 2.486-14.233 3.501-29.559 1.687-35.625Z"/><path fill="url(#i)" d="M182.625 356.5c-12.971 13.372-22.877 27.231-28.406 40.937-.249.618-.395 1.228-.625 1.844 2.361.541 4.407 1.594 6.062 3.25 2.455 2.455 3.688 5.683 3.688 9.688 0 4.005-1.233 7.233-3.688 9.687-2.454 2.455-5.683 3.656-9.687 3.656h-.75c.537 9.958 3.661 19.298 9.344 27.532a60.205 60.205 0 0 0 8.562 9.875c2.584 2.404 5.469 4.665 8.594 6.781 1.184.8 2.463 1.55 3.719 2.312 4.964-6.527 9.2-13.568 12.5-21.281 5.167-12.078 7.75-24.905 7.75-38.469-.001-13.822-2.583-26.736-7.75-38.75a103.147 103.147 0 0 0-9.313-17.062Z" filter="url(#j)"/><path fill="url(#k)" d="M153.594 399.281c-3.384 9.054-4.828 17.887-4.375 26.281h.75c4.004 0 7.233-1.201 9.687-3.656 2.455-2.454 3.688-5.682 3.688-9.687 0-4.005-1.233-7.233-3.688-9.688-1.655-1.656-3.701-2.709-6.062-3.25Z"/><path fill="url(#l)" d="M99.906 312.312c13.822 0 26.738 2.583 38.75 7.75 12.016 5.168 22.608 12.389 31.782 21.626 9.17 9.236 16.332 19.861 21.5 31.874 5.167 12.014 7.75 24.928 7.75 38.75 0 13.564-2.583 26.391-7.75 38.469-5.168 12.078-12.387 22.704-21.625 31.875-9.235 9.172-19.802 16.362-31.75 21.594-7.914 3.464-16.235 5.767-24.969 6.938-4.456.596-9.019.906-13.688.906-13.693 0-26.578-2.612-38.656-7.844s-22.703-12.422-31.875-21.594-16.364-19.797-21.531-31.875c-5.167-12.078-7.75-24.905-7.75-38.469 0-13.563 2.612-26.39 7.843-38.468 5.232-12.078 12.454-22.732 21.625-31.969 9.172-9.236 19.797-16.487 31.875-21.719 12.079-5.232 24.905-7.843 38.47-7.844Zm0 36.438c-4.004 0-7.233 1.233-9.687 3.688-2.455 2.454-3.688 5.683-3.688 9.687v36.719H50c-4.004 0-7.233 1.233-9.688 3.687-2.454 2.455-3.687 5.683-3.687 9.688 0 4.004 1.233 7.233 3.688 9.687 2.454 2.455 5.683 3.656 9.687 3.656h36.531v36.532c0 4.004 1.233 7.233 3.688 9.687 2.454 2.454 5.683 3.688 9.687 3.688 4.005 0 7.233-1.234 9.688-3.688 2.454-2.454 3.656-5.683 3.656-9.687v-36.532h36.719c4.004 0 7.233-1.201 9.687-3.656 2.455-2.454 3.688-5.683 3.688-9.687 0-4.005-1.233-7.233-3.688-9.688-2.454-2.454-5.683-3.687-9.687-3.687H113.25v-36.719c0-4.004-1.202-7.233-3.656-9.687-2.455-2.455-5.683-3.688-9.688-3.688Z"/></svg>