<svg xmlns="http://www.w3.org/2000/svg" xml:space="preserve" width="100%" height="100%" stroke-miterlimit="10" style="fill-rule:nonzero;clip-rule:evenodd;stroke-linecap:round;stroke-linejoin:round" version="1.1" viewBox="34.031 57.959 352.25 306.257"><defs><linearGradient id="a" x1="0" x2="1" y1="0" y2="0" gradientTransform="matrix(-172.013 95.7076 -3671.4 59.9148 220.128 154.499)" gradientUnits="userSpaceOnUse"><stop offset="0" stop-color="#fff"/><stop offset=".73" stop-color="#969696" stop-opacity=".492"/><stop offset="1" stop-color="#595959" stop-opacity=".2"/></linearGradient><linearGradient id="b" x1="0" x2="1" y1="0" y2="0" gradientTransform="matrix(-85.7855 30.6936 -1397.1 -92.3488 197.991 166.518)" gradientUnits="userSpaceOnUse"><stop offset="0" stop-color="#fff"/><stop offset=".73" stop-color="#969696" stop-opacity=".492"/><stop offset="1" stop-color="#595959" stop-opacity=".2"/></linearGradient><linearGradient id="c" x1="0" x2="1" y1="0" y2="0" gradientTransform="matrix(-199.07 0 0 -199.07 309.035 211.505)" gradientUnits="userSpaceOnUse"><stop offset="0" stop-color="#fff"/><stop offset="1" stop-color="#595959" stop-opacity=".2"/></linearGradient><linearGradient id="d" x1="0" x2="1" y1="0" y2="0" gradientTransform="matrix(13.4771 91.4373 -312.524 304.258 224.231 142.177)" gradientUnits="userSpaceOnUse"><stop offset="0" stop-color="#fff"/><stop offset=".73" stop-color="#969696" stop-opacity=".492"/><stop offset="1" stop-color="#595959" stop-opacity=".2"/></linearGradient><linearGradient id="e" x1="0" x2="1" y1="0" y2="0" gradientTransform="matrix(-57.1863 -24.7778 270.394 -396.477 218.724 274.529)" gradientUnits="userSpaceOnUse"><stop offset="0" stop-color="#fff"/><stop offset=".73" stop-color="#969696" stop-opacity=".492"/><stop offset="1" stop-color="#595959" stop-opacity=".2"/></linearGradient></defs><g fill-rule="nonzero" opacity="1"><path fill="url(#a)" d="M210.156 243.769C255.215 243.769 297.493 241.459 328.906 237.394C344.556 235.369 357.183 232.952 366.156 230.207C371.174 228.671 375.178 227.024 378.25 225.082C383.085 222.024 386.281 217.956 386.281 212.3C386.281 206.645 383.085 202.545 378.25 199.488C375.178 197.545 371.174 195.898 366.156 194.363C357.183 191.617 344.556 189.201 328.906 187.175C297.493 183.11 255.215 180.8 210.156 180.8C165.098 180.8 122.819 183.11 91.4063 187.175C75.756 189.201 63.1612 191.617 54.1875 194.363C49.1695 195.898 45.1346 197.545 42.0625 199.488C37.2274 202.545 34.0313 206.645 34.0313 212.3C34.0313 217.956 37.2274 222.024 42.0625 225.082C45.1347 227.024 49.1695 228.671 54.1875 230.207C63.1611 232.952 75.756 235.369 91.4063 237.394C122.819 241.459 165.098 243.769 210.156 243.769ZM210.156 223.769C165.903 223.769 124.458 221.527 93.9688 217.582C81.9133 216.021 72.5584 214.201 65.0938 212.3C72.5589 210.4 81.9109 208.548 93.9688 206.988C124.458 203.042 165.903 200.8 210.156 200.8C254.41 200.8 295.854 203.042 326.344 206.988C338.402 208.548 347.754 210.4 355.219 212.3C347.754 214.201 338.399 216.021 326.344 217.582C295.854 221.527 254.41 223.769 210.156 223.769Z" opacity="1"/><path fill="url(#b)" d="M210.156 243.769C255.215 243.769 297.493 241.459 328.906 237.394C344.556 235.369 357.183 232.952 366.156 230.207C371.174 228.671 375.178 227.024 378.25 225.082C383.085 222.024 386.281 217.956 386.281 212.3C386.281 206.645 383.085 202.545 378.25 199.488C375.178 197.545 371.174 195.898 366.156 194.363C357.183 191.617 344.556 189.201 328.906 187.175C297.493 183.11 255.215 180.8 210.156 180.8C165.098 180.8 122.819 183.11 91.4063 187.175C75.756 189.201 63.1612 191.617 54.1875 194.363C49.1695 195.898 45.1346 197.545 42.0625 199.488C37.2274 202.545 34.0313 206.645 34.0313 212.3C34.0313 217.956 37.2274 222.024 42.0625 225.082C45.1347 227.024 49.1695 228.671 54.1875 230.207C63.1611 232.952 75.756 235.369 91.4063 237.394C122.819 241.459 165.098 243.769 210.156 243.769ZM210.156 223.769C165.903 223.769 124.458 221.527 93.9688 217.582C81.9133 216.021 72.5584 214.201 65.0938 212.3C72.5589 210.4 81.9109 208.548 93.9688 206.988C124.458 203.042 165.903 200.8 210.156 200.8C254.41 200.8 295.854 203.042 326.344 206.988C338.402 208.548 347.754 210.4 355.219 212.3C347.754 214.201 338.399 216.021 326.344 217.582C295.854 221.527 254.41 223.769 210.156 223.769Z" opacity="1"/><path fill="url(#c)" d="M294.875 364.019C297.409 364.099 299.91 363.469 302.313 361.988C307.117 359.025 308.937 354.181 309.031 348.457C309.091 344.796 308.412 340.472 307.094 335.363C304.736 326.226 300.156 314.166 293.656 299.707C280.612 270.686 260.344 233.318 236.594 194.8C212.843 156.283 188.573 121.362 168.5 96.6753C158.499 84.3749 149.73 74.8845 142.625 68.6753C138.652 65.2031 135.11 62.6716 131.813 61.0815C126.656 58.5949 121.492 58.0254 116.688 60.9878C111.883 63.9501 110.063 68.826 109.969 74.5503C109.909 78.2109 110.588 82.5036 111.906 87.6128C114.264 96.7496 118.844 108.841 125.344 123.3C138.388 152.321 158.656 189.689 182.406 228.207C206.157 266.724 230.427 301.613 250.5 326.3C260.501 338.601 269.27 348.122 276.375 354.332C280.348 357.804 283.89 360.335 287.188 361.925C289.766 363.169 292.341 363.94 294.875 364.019ZM286.313 336.05C280.653 330.663 273.946 323.441 266.031 313.707C246.553 289.75 222.761 255.531 199.438 217.707C176.114 179.882 156.221 143.243 143.563 115.082C138.421 103.643 134.96 94.431 132.688 86.9565C138.347 92.3441 145.054 99.5658 152.969 109.3C172.447 133.257 196.239 167.476 219.563 205.3C242.886 243.125 262.779 279.732 275.438 307.894C280.583 319.342 284.04 328.573 286.313 336.05Z" opacity=".391"/><path fill="url(#e)" d="M124.887 363.858C127.425 363.775 130 362.991 132.584 361.735C135.867 360.139 139.425 357.603 143.398 354.126C150.51 347.903 159.28 338.373 169.334 326.052C189.517 301.315 213.969 266.362 237.95 227.787C261.931 189.212 282.47 151.803 295.721 122.757C302.322 108.289 306.975 96.1977 309.408 87.0663C310.768 81.9642 311.487 77.6631 311.465 74.0126C311.431 68.2677 309.655 63.3853 304.837 60.3898C300.019 57.3944 294.878 57.9682 289.711 60.4801C286.428 62.0763 282.87 64.6436 278.897 68.1205C271.785 74.3434 263.015 83.8425 252.962 96.164C232.778 120.901 208.295 155.853 184.314 194.428C160.333 233.003 139.826 270.444 126.574 299.49C119.973 313.958 115.32 326.018 112.887 335.149C111.528 340.251 110.809 344.552 110.83 348.203C110.864 353.948 112.64 358.83 117.458 361.826C119.868 363.323 122.35 363.942 124.887 363.858ZM133.823 335.459C136.174 328.035 139.636 319.011 144.757 307.788C157.623 279.586 177.742 242.896 201.299 205.002C224.857 167.108 248.841 132.843 268.438 108.825C276.256 99.2428 282.847 92.0893 288.472 86.6937C286.123 94.1253 282.671 103.208 277.538 114.459C264.672 142.661 244.522 179.35 220.965 217.244C197.407 255.138 173.423 289.403 153.826 313.421C146.028 322.978 139.44 330.066 133.823 335.459Z" opacity="1"/></g></svg>