<svg xmlns="http://www.w3.org/2000/svg" xml:space="preserve" width="100%" height="100%" stroke-miterlimit="10" style="fill-rule:nonzero;clip-rule:evenodd;stroke-linecap:round;stroke-linejoin:round" version="1.1" viewBox="0 0 360 360"><defs><linearGradient id="b" x1="0" x2="1" y1="0" y2="0" gradientTransform="matrix(136.488 25.1667 94.7424 -279.672 127.576 154.738)" gradientUnits="userSpaceOnUse"><stop offset=".176" stop-color="#fff"/><stop offset=".554" stop-color="#969696" stop-opacity=".39"/><stop offset="1" stop-color="#595959" stop-opacity=".05"/></linearGradient><linearGradient id="c" x1="0" x2="1" y1="0" y2="0" gradientTransform="matrix(78.6036 -72.6635 -119.702 -191.159 137.246 208.281)" gradientUnits="userSpaceOnUse"><stop offset=".176" stop-color="#fff"/><stop offset=".554" stop-color="#969696" stop-opacity=".39"/><stop offset="1" stop-color="#595959" stop-opacity="0"/></linearGradient><linearGradient id="e" x1="0" x2="1" y1="0" y2="0" gradientTransform="matrix(30.727 -76.6984 277.984 18.9427 152.775 206.313)" gradientUnits="userSpaceOnUse"><stop offset="0" stop-color="#fff"/><stop offset=".617" stop-color="#969696" stop-opacity=".492"/><stop offset="1" stop-color="#595959" stop-opacity="0"/></linearGradient><radialGradient id="a" cx="0" cy="0" r="1" gradientTransform="matrix(221.034 -138.47 131.05 233.549 107.966 198.2)" gradientUnits="userSpaceOnUse"><stop offset="0" stop-color="#fff" stop-opacity=".8"/><stop offset=".714" stop-color="#969696" stop-opacity=".29"/><stop offset="1" stop-color="#595959" stop-opacity="0"/></radialGradient><radialGradient id="d" cx="0" cy="0" r="1" gradientTransform="matrix(221.034 -138.47 131.05 233.549 107.337 198.215)" gradientUnits="userSpaceOnUse"><stop offset="0" stop-color="#fff" stop-opacity=".8"/><stop offset=".714" stop-color="#969696" stop-opacity=".29"/><stop offset="1" stop-color="#595959" stop-opacity="0"/></radialGradient></defs><rect x="0" y="0" width="400" height="400" fill="#000"/><g fill-rule="nonzero" stroke="none"><path fill="url(#a)" d="M182.062 45.25C118.278 45.25 64.2472 87.6018 45.5312 146.125C42.4505 155.758 40.4355 165.86 39.375 176.25C39.3612 176.385 40.5335 176.259 40.4375 176.188C41.4672 176.952 42.7058 177.735 44.4062 178.625C51.0973 182.127 61.5182 185.54 74.75 188.469C102.894 194.699 141.341 198.312 182.5 198.312C223.659 198.312 262.137 194.699 290.281 188.469C303.513 185.54 313.934 182.127 320.625 178.625C322.325 177.735 323.564 176.952 324.594 176.188C324.554 176.158 324.478 176.124 324.438 176.094C324.53 176.112 324.597 176.137 324.688 176.156C323.602 165.658 321.548 155.441 318.406 145.719C299.567 87.4113 245.696 45.25 182.062 45.25ZM39.0937 203.812C45.3507 278.59 106.919 337.344 182.062 337.344C257.071 337.344 318.555 278.804 325 204.219C317.027 207.468 307.295 210.337 295.969 212.844C265.815 219.519 225.452 223.312 182.5 223.312C139.548 223.313 99.2157 219.519 69.0625 212.844C57.2759 210.235 47.2383 207.225 39.0937 203.812Z" opacity=".5"/><path fill="url(#b)" d="M125.31 353.845C79.8978 335.809 76.6353 250.773 111.394 163.254C146.153 75.7353 206.87 16.1095 252.282 34.1455C297.695 52.1816 300.957 137.217 266.198 224.736C231.439 312.255 170.723 371.881 125.31 353.845ZM135.051 329.319C146.737 333.96 164.615 326.708 184.395 307.282C206.072 285.994 226.829 253.132 241.934 215.1C257.039 177.067 264.472 138.949 263.308 108.589C262.246 80.8856 254.227 63.3127 242.541 58.6718C230.856 54.0308 212.935 61.3012 193.155 80.727C171.478 102.016 150.763 134.858 135.658 172.891C120.553 210.924 113.078 249.06 114.242 279.42C115.304 307.124 123.366 324.678 135.051 329.319Z" opacity=".8"/><path fill="url(#c)" d="M286.101 327.517C246.474 356.105 173.175 313.333 118.258 237.213C63.3418 161.093 45.8698 78.0441 85.4968 49.4555C125.124 20.867 198.424 63.6389 253.34 139.759C308.256 215.88 325.728 298.928 286.101 327.517ZM270.712 306.185C280.908 298.828 284.434 279.891 278.741 252.835C272.502 223.184 256.032 188.113 232.167 155.034C208.303 121.955 180.235 95.2913 154.065 80.0198C130.186 66.0846 111.083 63.4311 100.886 70.7874C90.6898 78.1437 87.1569 97.1273 92.8498 124.183C99.0887 153.834 115.566 188.859 139.431 221.938C163.296 255.017 191.356 281.727 217.526 296.998C241.405 310.933 260.515 313.541 270.712 306.185Z" opacity=".9"/><path fill="url(#e)" d="M318.406 145.719C323.044 160.074 325.259 181.167 324.719 176.188L324.594 176.188C323.564 176.952 322.326 177.735 320.625 178.625C313.934 182.127 303.513 185.54 290.281 188.469C262.137 194.699 223.659 198.312 182.5 198.312C141.341 198.313 102.894 194.699 74.75 188.469C61.5182 185.54 51.0973 182.127 44.4062 178.625C42.7058 177.735 41.4672 176.952 40.4375 176.188C40.4375 176.188 39.5668 175.635 39.4062 175.531C40.495 165.39 42.52 155.541 45.5312 146.125C40.5968 147.873 36.091 149.71 32.3125 151.688C20.509 157.865 13.25 165.708 13.25 176.188C13.25 186.667 20.509 194.479 32.3125 200.656C34.3799 201.738 36.6744 202.799 39.0938 203.813C47.2383 207.225 57.2759 210.235 69.0625 212.844C99.2158 219.519 139.548 223.313 182.5 223.312C225.452 223.312 265.815 219.519 295.969 212.844C307.295 210.337 317.027 207.469 325 204.219C327.789 203.082 330.379 201.881 332.719 200.656C344.522 194.479 351.75 186.667 351.75 176.188C351.75 165.708 344.522 157.865 332.719 151.688C328.654 149.56 323.805 147.58 318.406 145.719Z" opacity="1"/></g></svg>