<svg xmlns="http://www.w3.org/2000/svg" width="100" height="100" viewBox="0 0 256 256"><defs><linearGradient id="a" x1="23.228" x2="23.228" y1="39.126" y2="9.567" gradientUnits="userSpaceOnUse"><stop offset="0" stop-color="#ff3d9a" stop-opacity=".98"/><stop offset=".447" stop-color="#ff0289"/><stop offset="1" stop-color="#ff0175"/></linearGradient><linearGradient id="b" x1="7.452" x2="31.418" y1="20.021" y2="8.842" gradientUnits="userSpaceOnUse"><stop offset="0" stop-color="#ffd801" stop-opacity=".631"/><stop offset="1" stop-color="#ffbe11" stop-opacity=".612"/></linearGradient><linearGradient id="c" x1="22.052" x2="30.592" y1="16.25" y2="5.897" gradientUnits="userSpaceOnUse"><stop offset="0" stop-color="#fff" stop-opacity="0"/><stop offset="1" stop-color="#ffbe11" stop-opacity=".612"/></linearGradient></defs><g fill="none" stroke-miterlimit="10" font-family="none" font-size="none" font-weight="none" style="mix-blend-mode:normal" text-anchor="none"><path fill="url(#a)" d="M11.929 5.037h25.527C36 5.037 35 6.161 35 7.545v31.877c0 1.564-1.715 2.523-3.047 1.704l-8.905-5.475a2 2 0 0 0-2.095 0l-8.905 5.475C10.715 41.945 9 40.987 9 39.422V7.966a2.93 2.93 0 0 1 2.929-2.929z" transform="scale(5.33333)"/><path fill="#ff0175" d="M176 96.133V26.864h26.667v69.269z" opacity=".1"/><path fill="#ff0175" d="M170.667 96.133V26.864h31.002c-2.41 4.256-3.002 9.317-3.002 13.376v55.893z" opacity=".2"/><path fill="#ff0175" d="M165.333 96.133V26.864h35.339c-4.827 3.184-6.005 9.312-6.005 13.376v55.893z" opacity=".3"/><path fill="#ff0175" d="M160 96.133V26.864h39.68c-7.237 2.112-9.013 9.317-9.013 13.376v55.893z" opacity=".4"/><path fill="#ff0175" d="M154.667 96.133V26.864h44.016c-9.654 1.04-12.016 9.312-12.016 13.376v55.893z" opacity=".5"/><path fill="#e80082" d="M64 26.864h135.765c-7.765 0-13.098 5.995-13.098 13.376v71.877h-96C75.963 112.117 64 100.165 64 85.477c0 0-.016-43.045 0-43.002z" opacity=".05"/><path fill="#e80082" d="M64 26.864h135.765c-7.765 0-13.098 5.995-13.098 13.376v69.21h-96c-13.232 0-24-10.757-24-23.978 0 0-.016-42.976 0-42.939 0-1.642-1.232-15.669-2.667-15.669z" opacity=".1"/><path fill="#e80082" d="M64 26.864h135.765c-7.765 0-13.098 5.995-13.098 13.376v66.55h-96c-11.76 0-21.334-9.569-21.334-21.313 0 0-.01-42.906 0-42.874 0-3.291-2.458-15.739-5.333-15.739z" opacity=".2"/><path fill="#e80082" d="M64 26.864h135.765c-7.765 0-13.098 5.995-13.098 13.376v63.883h-96C80.384 104.123 72 95.749 72 85.472c0 0-.01-42.837 0-42.816 0-4.928-3.69-15.792-8-15.792z" opacity=".3"/><path fill="#e80082" d="M64 26.864h135.765c-7.765 0-13.098 5.995-13.098 13.376v61.221h-96c-8.811 0-16-7.184-16-15.984 0 0-.006-42.768 0-42.752 0-6.576-4.918-15.861-10.667-15.861z" opacity=".4"/><path fill="#e80082" d="M64 26.864h135.765c-7.765 0-13.098 5.995-13.098 13.376v58.555h-96c-7.34 0-13.334-5.99-13.334-13.323 0 0-.005-42.699 0-42.688 0-8.219-6.149-15.92-13.333-15.92z" opacity=".5"/><path fill="#e80082" d="M90.667 96.133C84.8 96.133 80 91.34 80 85.477V42.848c0-9.861-7.376-15.984-16-15.984h135.765c-7.765 0-13.098 5.995-13.098 13.376v55.893z"/><path fill="url(#b)" d="M17 18h22c1.1 0 2-.9 2-2V7.417A2.417 2.417 0 0 0 38.583 5H12c1.617 0 3 1.149 3 3v8c0 1.1.9 2 2 2z" transform="scale(5.33333)"/><path fill="url(#c)" d="M39 17.5H17c-.827 0-1.5-.673-1.5-1.5V8c0-1.008-.364-1.879-.979-2.5h24.062A1.92 1.92 0 0 1 40.5 7.417V16c0 .827-.673 1.5-1.5 1.5zm0 .5c1.1 0 2-.9 2-2V7.417A2.417 2.417 0 0 0 38.583 5H12c1.617 0 3 1.149 3 3v8c0 1.1.9 2 2 2h22z" transform="scale(5.33333)"/></g></svg>