<svg xmlns="http://www.w3.org/2000/svg" xmlns:xlink="http://www.w3.org/1999/xlink" viewBox="0,0,256,256" width="100px" height="100px" fill-rule="nonzero"><defs><linearGradient x1="23.228" y1="39.126" x2="23.228" y2="9.567" gradientUnits="userSpaceOnUse" id="color-1"><stop offset="0" stop-color="#ff3d9a" stop-opacity="0.8902"></stop><stop offset="0.447" stop-color="#ff0289" stop-opacity="0.81961"></stop><stop offset="1" stop-color="#ff0293" stop-opacity="0.8902"></stop></linearGradient><linearGradient x1="7.452" y1="20.021" x2="31.418" y2="8.842" gradientUnits="userSpaceOnUse" id="color-2"><stop offset="0" stop-color="#ffd801" stop-opacity="0.63137"></stop><stop offset="1" stop-color="#ffbe11" stop-opacity="0.61176"></stop></linearGradient><linearGradient x1="22.052" y1="16.25" x2="30.592" y2="5.897" gradientUnits="userSpaceOnUse" id="color-3"><stop offset="0" stop-color="#ffffff" stop-opacity="0"></stop><stop offset="1" stop-color="#ffbe11" stop-opacity="0.61176"></stop></linearGradient></defs><g fill="none" fill-rule="nonzero" stroke="none" stroke-width="1" stroke-linecap="butt" stroke-linejoin="miter" stroke-miterlimit="10" stroke-dasharray="" stroke-dashoffset="0" font-family="none" font-weight="none" font-size="none" text-anchor="none" style="mix-blend-mode: normal"><g transform="scale(5.33333,5.33333)"><path d="M11.929,5.037h25.527c-1.456,0 -2.456,1.124 -2.456,2.508v31.877c0,1.564 -1.715,2.523 -3.047,1.704l-8.905,-5.475c-0.642,-0.395 -1.453,-0.395 -2.095,0l-8.905,5.475c-1.333,0.819 -3.048,-0.139 -3.048,-1.704v-31.456c0,-1.618 1.312,-2.929 2.929,-2.929z" fill="url(#color-1)"></path><path d="M33,18.025v-12.988h5c0,0.999 0,1.747 0,2.508v10.48z" fill-opacity="0.8902" fill="#ff0293" opacity="0.1"></path><path d="M32,18.025v-12.988h5.813c-0.452,0.798 -0.563,1.747 -0.563,2.508v10.48z" fill-opacity="0.8902" fill="#ff0293" opacity="0.2"></path><path d="M31,18.025v-12.988h6.626c-0.905,0.597 -1.126,1.746 -1.126,2.508v10.48z" fill-opacity="0.8902" fill="#ff0293" opacity="0.3"></path><path d="M30,18.025v-12.988h7.44c-1.357,0.396 -1.69,1.747 -1.69,2.508v10.48z" fill-opacity="0.8902" fill="#ff0293" opacity="0.4"></path><path d="M29,18.025v-12.988h8.253c-1.81,0.195 -2.253,1.746 -2.253,2.508v10.48z" fill-opacity="0.8902" fill="#ff0293" opacity="0.5"></path><path d="M12,5.037h25.456c-1.456,0 -2.456,1.124 -2.456,2.508v13.477h-18c-2.757,0 -5,-2.241 -5,-4.995c0,0 -0.003,-8.071 0,-8.063z" fill="#dc0064" opacity="0.05"></path><path d="M12,5.037h25.456c-1.456,0 -2.456,1.124 -2.456,2.508v12.977h-18c-2.481,0 -4.5,-2.017 -4.5,-4.496c0,0 -0.003,-8.058 0,-8.051c0,-0.308 -0.231,-2.938 -0.5,-2.938z" fill="#dc0064" opacity="0.1"></path><path d="M12,5.037h25.456c-1.456,0 -2.456,1.124 -2.456,2.508v12.478h-18c-2.205,0 -4,-1.794 -4,-3.996c0,0 -0.002,-8.045 0,-8.039c0,-0.617 -0.461,-2.951 -1,-2.951z" fill="#dc0064" opacity="0.2"></path><path d="M12,5.037h25.456c-1.456,0 -2.456,1.124 -2.456,2.508v11.978h-18c-1.928,0 -3.5,-1.57 -3.5,-3.497c0,0 -0.002,-8.032 0,-8.028c0,-0.924 -0.692,-2.961 -1.5,-2.961z" fill="#dc0064" opacity="0.3"></path><path d="M12,5.037h25.456c-1.456,0 -2.456,1.124 -2.456,2.508v11.479h-18c-1.652,0 -3,-1.347 -3,-2.997c0,0 -0.001,-8.019 0,-8.016c0,-1.233 -0.922,-2.974 -2,-2.974z" fill="#dc0064" opacity="0.4"></path><path d="M12,5.037h25.456c-1.456,0 -2.456,1.124 -2.456,2.508v10.979h-18c-1.376,0 -2.5,-1.123 -2.5,-2.498c0,0 -0.001,-8.006 0,-8.004c0,-1.541 -1.153,-2.985 -2.5,-2.985z" fill="#dc0064" opacity="0.5"></path><path d="M17,18.025c-1.1,0 -2,-0.899 -2,-1.998v-7.993c0,-1.849 -1.383,-2.997 -3,-2.997h25.456c-1.456,0 -2.456,1.124 -2.456,2.508v10.48z" fill="#dc0064"></path><path d="M17,18h22c1.1,0 2,-0.9 2,-2v-8.583c0,-1.335 -1.082,-2.417 -2.417,-2.417h-26.583c1.617,0 3,1.149 3,3v8c0,1.1 0.9,2 2,2z" fill="url(#color-2)"></path><path d="M39,17.5h-22c-0.827,0 -1.5,-0.673 -1.5,-1.5v-8c0,-1.008 -0.364,-1.879 -0.979,-2.5h24.062c1.057,0 1.917,0.86 1.917,1.917v8.583c0,0.827 -0.673,1.5 -1.5,1.5zM39,18c1.1,0 2,-0.9 2,-2v-8.583c0,-1.335 -1.082,-2.417 -2.417,-2.417h-26.583c1.617,0 3,1.149 3,3v8c0,1.1 0.9,2 2,2h22z" fill="url(#color-3)"></path></g></g></svg>