<svg width="100%" height="100%" xmlns="http://www.w3.org/2000/svg" fill="none" viewBox="0 0 100 100"><style>.line-link1 {animation:line-link1-move 1.6s infinite;} @keyframes line-link1-move { 0%{transform: translate3d(-7px, 7px, 0);} 50%{transform: translate3d(7px, -7px, 0);} 100%{transform: translate3d(-7px, 7px, 0);}} @media (prefers-reduced-motion: reduce) { .line-link1 {animation: none;}}</style><g filter="url(#blr1)"><path stroke="#aaaD" stroke-linecap="round" stroke-width="6" d="M75 53.43V85a4 4 0 0 1-4 4H15a4 4 0 0 1-4-4V30a4 4 0 0 1 4-4h33.947" class="stroke1" style="animation-duration:1.6s"/></g><path stroke="#FFFFFFF1" stroke-linecap="round" stroke-width="6" d="M75 53.43V85a4 4 0 0 1-4 4H15a4 4 0 0 1-4-4V30a4 4 0 0 1 4-4h33.947" class="stroke1" style="animation-duration:1.6s"/><path class="line-link1 stroke2" d="M41.4189 60.5462L87.8576 14.1076M87.8576 14.1076L87.9405 51.184M87.8576 14.1076L51.1765 14.42" stroke="#00FFA7" stroke-width="8.0px" stroke-linecap="round" style="animation-duration: 1.6s;"></path><defs><filter id="blr1" x="-20%" y="-20%" width="140%" height="140%"><feGaussianBlur in="SourceGraphic" stdDeviation="3" /></filter></defs></svg>