<svg xmlns="http://www.w3.org/2000/svg" xmlns:xlink="http://www.w3.org/1999/xlink" id="books" width="100%" height="100%" shape-rendering="geometricPrecision" text-rendering="geometricPrecision" viewBox="0 0 769 769"><defs><path id="book1_pages1" fill="#efefef" d="m325.7 572.1-1.3 4.4a19.6 19.6 0 0 0-.4 11l.7 3.5h-.8l-29.5-5.3-34-6-8.8-1.7a7.4 7.4 0 0 1-5-3.3c-2.6-3.8-2.4-9.4.6-13 1.7-2 3.8-3 6.4-2.5l12.2 2.2L285 565l21.4 3.8 18.3 3.3 1 .1z"/><path id="book1_pages2" fill="#efefef" d="M332.3 591.4a14.2 14.2 0 0 1 3.6-20.9l10.2-6.4 52.4-32.4 1.5-1c-.8 3.3-1.4 6.4-1.2 9.6.3 3.2 1.2 6.3 2.6 9.3l-69 41.8z"/></defs><g style="animation:book_group_animation__to 3000ms linear infinite normal forwards" transform="translate(-900 -1400)"><g id="book_group"><g style="animation:book1_animation__to 3000ms linear infinite normal forwards" transform="matrix(4 0 0 4 0 -312.2)"><g id="book1" stroke="none" stroke-width="1"><path id="book1_cover1" fill="#D90368" d="m325.7 572.1-1-.2a11683 11683 0 0 1-39.7-7l-19.2-3.5-12.2-2.2c-2.6-.5-4.7.5-6.4 2.5-3 3.5-3.2 9.2-.6 13 1.2 1.7 2.8 3 5 3.3l8.8 1.7 34 6 29.5 5.2.8.1-.7-3.5c-1-3.7-.8-7.4.4-11l1.3-4.4z"/><path id="book1_cover2" fill="#D90368" d="m332.3 591.4 69.1-41.8c-1.4-3-2.3-6-2.6-9.3-.2-3.2.4-6.3 1.2-9.5l-1.5.9-52.4 32.5c-3.4 2-6.8 4.1-10.1 6.3a14.2 14.2 0 0 0-3.7 20.9z"/><path id="book1_cover3" fill="#D90368" d="m327.4 601.7-6-1L300 597l-21.7-3.9-21.2-3.8-8.7-1.6c-4.3-1-7.6-3.4-10-7.1a22.7 22.7 0 0 1-3.5-15.1c.5-3.3 1.6-6.4 3.6-9.1a21.8 21.8 0 0 1 6.8-6.2 60048.9 60048.9 0 0 0 69.7-40.3c3-1.7 6.2-2.3 9.7-1.8l16.5 2.2 16.7 2.2 15.3 2 16.4 2.2 16.2 2.1c1.1.2 2.2.2 3.3.5 2 .4 3 1.8 2 3.8-.1.5-.5 1-.8 1.3a32 32 0 0 0-3.7 5.9 17.5 17.5 0 0 0-1 14l.8 2.2a3 3 0 0 0 2.6 2.2c1 .2 1.6.8 2 1.6.4.5.5 1.1.3 1.8-.3.7-.7 1.4-1.4 1.9l-2.2 1.5-69.2 42.9a20.5 20.5 0 0 1-7.6 3l-3.5.4z"/><use xlink:href="#book1_pages1"/><use xlink:href="#book1_pages2"/></g></g><g style="animation:book2_animation__to 3000ms linear infinite normal forwards" transform="matrix(4 0 0 4 0 -432.2)"><g id="book2" stroke="none" stroke-width="1"><path id="book2_cover1" fill="#FF0064" d="m325.7 572.1-1-.2a11683 11683 0 0 1-39.7-7l-19.2-3.5-12.2-2.2c-2.6-.5-4.7.5-6.4 2.5-3 3.5-3.2 9.2-.6 13 1.2 1.7 2.8 3 5 3.3l8.8 1.7 34 6 29.5 5.2.8.1-.7-3.5c-1-3.7-.8-7.4.4-11l1.3-4.4z"/><path id="book2_cover2" fill="#FF0064" d="m332.3 591.4 69.1-41.8c-1.4-3-2.3-6-2.6-9.3-.2-3.2.4-6.3 1.2-9.5l-1.5.9-52.4 32.5c-3.4 2-6.8 4.1-10.1 6.3a14.2 14.2 0 0 0-3.7 20.9z"/><path id="book2_cover3" fill="#FF0064" d="m327.4 601.7-6-1L300 597l-21.7-3.9-21.2-3.8-8.7-1.6c-4.3-1-7.6-3.4-10-7.1a22.7 22.7 0 0 1-3.5-15.1c.5-3.3 1.6-6.4 3.6-9.1a21.8 21.8 0 0 1 6.8-6.2 60048.9 60048.9 0 0 0 69.7-40.3c3-1.7 6.2-2.3 9.7-1.8l16.5 2.2 16.7 2.2 15.3 2 16.4 2.2 16.2 2.1c1.1.2 2.2.2 3.3.5 2 .4 3 1.8 2 3.8-.1.5-.5 1-.8 1.3a32 32 0 0 0-3.7 5.9 17.5 17.5 0 0 0-1 14l.8 2.2a3 3 0 0 0 2.6 2.2c1 .2 1.6.8 2 1.6.4.5.5 1.1.3 1.8-.3.7-.7 1.4-1.4 1.9l-2.2 1.5-69.2 42.9a20.5 20.5 0 0 1-7.6 3l-3.5.4z"/><use xlink:href="#book1_pages1" id="book2_pages1"/><use xlink:href="#book1_pages2" id="book2_pages2"/></g></g><g style="animation:book3_animation__to 3000ms linear infinite normal forwards" transform="matrix(4 0 0 4 0 -552.2)"><g id="book3" stroke="none" stroke-width="1"><path id="book3_cover1" fill="#FF2C7F" d="m325.7 572.1-1-.2a11683 11683 0 0 1-39.7-7l-19.2-3.5-12.2-2.2c-2.6-.5-4.7.5-6.4 2.5-3 3.5-3.2 9.2-.6 13 1.2 1.7 2.8 3 5 3.3l8.8 1.7 34 6 29.5 5.2.8.1-.7-3.5c-1-3.7-.8-7.4.4-11l1.3-4.4z"/><path id="book3_cover2" fill="#FF2C7F" d="m332.3 591.4 69.1-41.8c-1.4-3-2.3-6-2.6-9.3-.2-3.2.4-6.3 1.2-9.5l-1.5.9-52.4 32.5c-3.4 2-6.8 4.1-10.1 6.3a14.2 14.2 0 0 0-3.7 20.9z"/><path id="book3_cover3" fill="#FF2C7F" d="m327.4 601.7-6-1L300 597l-21.7-3.9-21.2-3.8-8.7-1.6c-4.3-1-7.6-3.4-10-7.1a22.7 22.7 0 0 1-3.5-15.1c.5-3.3 1.6-6.4 3.6-9.1a21.8 21.8 0 0 1 6.8-6.2 60048.9 60048.9 0 0 0 69.7-40.3c3-1.7 6.2-2.3 9.7-1.8l16.5 2.2 16.7 2.2 15.3 2 16.4 2.2 16.2 2.1c1.1.2 2.2.2 3.3.5 2 .4 3 1.8 2 3.8-.1.5-.5 1-.8 1.3a32 32 0 0 0-3.7 5.9 17.5 17.5 0 0 0-1 14l.8 2.2a3 3 0 0 0 2.6 2.2c1 .2 1.6.8 2 1.6.4.5.5 1.1.3 1.8-.3.7-.7 1.4-1.4 1.9l-2.2 1.5-69.2 42.9a20.5 20.5 0 0 1-7.6 3l-3.5.4z"/><use xlink:href="#book1_pages1" id="book3_pages1"/><use xlink:href="#book1_pages2" id="book3_pages2"/></g></g></g></g></svg>