<svg xmlns="http://www.w3.org/2000/svg" xmlns:xlink="http://www.w3.org/1999/xlink" width="100%" height="100%" viewBox="-0.5 -0.5 25 25" xml:space="preserve"><defs><linearGradient id="LinearGradient_OVAL" x1="-.607" x2="21.867" y1="5.781" y2="20.005" gradientTransform="matrix(1.17391 0 0 1.17391 -2.12129 -2.08672)" gradientUnits="userSpaceOnUse"><stop offset="0" stop-color="#00ff78"/><stop offset="1" stop-color="#02fffd"/></linearGradient></defs><g id="ArrowSpinningRing"><path id="OVAL" fill="url(#LinearGradient_OVAL)" fill-opacity="0" d="M1.40043 12.0002C1.40043 6.16518 6.13061 1.435 11.9656 1.435C17.8006 1.435 22.5307 6.16518 22.5307 12.0002C22.5307 17.8351 17.8006 22.5653 11.9656 22.5653C6.13061 22.5653 1.40043 17.8351 1.40043 12.0002Z"><animate fill="freeze" attributeName="fill-opacity" begin="1.1s" dur="5s" repeatCount="indefinite" values="0.2;1;0.2"/></path><g id="ArrowSpin" fill="none" stroke="#f0f" stroke-linecap="round" stroke-width="2.363"><path id="RightDotted" fill="none" stroke-dasharray="2 4" stroke-dashoffset="6" stroke-linejoin="miter" d="M12 1C18.0751 1 23 5.92487 23 12C23 18.0751 18.0751 23 12 23"><animate attributeName="stroke-dashoffset" dur="0.9s" repeatCount="indefinite" values="6;0"/></path><path id="LeftBend" fill="none" stroke-dasharray="34" stroke-dashoffset="34" stroke-linejoin="miter" d="M12 23C5.92487 23 1 18.0751 1 12C1 5.92487 5.92487 1 12 1"><animate fill="freeze" attributeName="stroke-dashoffset" begin="0.3s" dur="0.7s" values="34;0"/></path><path id="Arrowline" fill="none" stroke-dasharray="11.5" stroke-dashoffset="11.5" stroke-linejoin="round" d="M11.9654 6.09214L11.97 17.2827"><animate fill="freeze" attributeName="stroke-dashoffset" begin="0.8s" dur="0.6s" values="11;0"/></path></g><g id="arrowhead" stroke="#f0f" stroke-linecap="round" stroke-linejoin="round" stroke-width="2.363"><path id="LeftWing" fill="none" stroke-dasharray="6" stroke-dashoffset="6" d="M11.9656 17.2827L7.85691 13.1741"><animate fill="freeze" attributeName="stroke-dashoffset" begin="1.4s" dur="0.6s" values="6;0"/></path><path id="RightWing" fill="none" stroke-dasharray="6" stroke-dashoffset="6" d="M11.9656 17.2827L15.9656 13.1741"><animate fill="freeze" attributeName="stroke-dashoffset" begin="1.4s" dur="0.6s" values="6;0"/></path></g></g></svg>