<svg xmlns="http://www.w3.org/2000/svg" xmlns:xlink="http://www.w3.org/1999/xlink" width="100%" height="100%" viewBox="0 0 100 100" xml:space="preserve"><defs><filter id="Filter_Background" width="107.5" height="70.144" x="-3.75" y="13.923" color-interpolation-filters="sRGB" filterUnits="userSpaceOnUse"><feDropShadow dx="0" dy="-1" flood-color="#000" flood-opacity=".5" in="SourceGraphic" result="Shadow" stdDeviation="1.5"/></filter><radialGradient id="RadialGradient_Schlera" cx="48.828" cy="42.913" r="56.089" gradientTransform="matrix(1.08598 0 0 1.08598 -4.27177 -4.30412)" gradientUnits="userSpaceOnUse"><stop offset="0" stop-color="#fff"/><stop offset=".238" stop-color="#fff"/><stop offset="1" stop-color="#999"/></radialGradient><filter id="Filter_Schlera" width="85.778" height="43.987" x="6.588" y="29.85" color-interpolation-filters="sRGB" filterUnits="userSpaceOnUse"><feDropShadow dx="-.669" dy=".743" flood-color="#000" flood-opacity=".5" in="SourceGraphic" result="Shadow" stdDeviation="1.5"/></filter><radialGradient id="RadialGradient_2Iris" cx="374.307" cy="346.767" r="320.129" gradientTransform="matrix(0.12783 0 0 0.12783 2.42344 -3.88888)" gradientUnits="userSpaceOnUse"><stop offset=".228" stop-color="#195a1f"/><stop offset=".488" stop-color="#0f3a14"/><stop offset=".926" stop-color="#3a230f" stop-opacity="0"/></radialGradient><radialGradient id="RadialGradient_Iris" cx="50.169" cy="39.155" r="52.646" gradientTransform="matrix(0.741148 0 0 0.889893 14.5767 0.472381)" gradientUnits="userSpaceOnUse"><stop offset=".041" stop-color="#00bd11"/><stop offset=".701" stop-color="#014009"/><stop offset=".926" stop-color="#3a230f" stop-opacity="0"/></radialGradient><filter id="Filter_Iris" width="57.734" height="45.67" x="20.589" y="24.204" color-interpolation-filters="sRGB" filterUnits="userSpaceOnUse"><feDropShadow dx="-.669" dy=".743" flood-color="#000" flood-opacity=".5" in="SourceGraphic" result="Shadow" stdDeviation="1.5"/></filter><filter id="Filter_Pupil" width="40.77" height="41.033" x="28.946" y="19.9" color-interpolation-filters="sRGB" filterUnits="userSpaceOnUse"><feDropShadow dx="-.669" dy=".743" flood-color="#000" flood-opacity=".5" in="SourceGraphic" result="Shadow" stdDeviation="1.5"/></filter><filter id="Filter_Outline" width="107.484" height="70.153" x="-3.734" y="14.923" color-interpolation-filters="sRGB" filterUnits="userSpaceOnUse"><feDropShadow dx="0" dy="0" flood-color="#000" flood-opacity=".5" in="SourceGraphic" result="Shadow" stdDeviation="1.5"/></filter><filter id="Filter_Glint" width="26.181" height="26.219" x="27.753" y="28.973" color-interpolation-filters="sRGB" filterUnits="userSpaceOnUse"><feDropShadow dx="-.669" dy=".743" flood-color="#000" flood-opacity=".5" in="SourceGraphic" result="Shadow" stdDeviation="1.5"/></filter><filter id="Filter_BottomLineInside" width="107.5" height="35.476" x="-3.75" y="45.123" color-interpolation-filters="sRGB" filterUnits="userSpaceOnUse"><feDropShadow dx="0" dy="0" flood-color="#000" flood-opacity=".5" in="SourceGraphic" result="Shadow" stdDeviation="1.5"/></filter><filter id="Filter_BottomLine" width="107.5" height="35.476" x="-4.419" y="45.866" color-interpolation-filters="sRGB" filterUnits="userSpaceOnUse"><feDropShadow dx="-.669" dy=".743" flood-color="#000" flood-opacity=".5" in="SourceGraphic" result="Shadow" stdDeviation="1.5"/></filter><style id="blink">@keyframes eye_open_c_o{0%,23.333333%{opacity:1}16.666667%{opacity:1;animation-timing-function:step-end}20%{opacity:0;animation-timing-function:step-end}}@keyframes eye_closed_f_o{0%,23.333333%{fill-opacity:0}16.666667%{fill-opacity:0;animation-timing-function:step-end}20%{fill-opacity:1;animation-timing-function:step-end}}#prefix__eye_open{animation:eye_open_c_o 6000ms linear infinite normal forwards}#prefix__eye_closed{animation:eye_closed_f_o 6000ms linear infinite normal forwards}</style></defs><g id="prefix__eye" stroke="none" stroke-width="1" opacity="1"><g id="prefix__eye_open" opacity="1"><path id="prefix__Background" fill="#000" d="M1.42109e-14 49.7834C0.783295 48.4429 1.55004 47.086 2.36093 45.7566C7.59025 37.2065 14.5738 30.4658 23.328 25.5895C28.8 22.539 34.6361 20.476 40.8252 19.4665C47.3711 18.4005 53.7071 18.4085 59.8241 19.4929C66.7484 20.7204 73.3921 23.3269 79.7418 27.316C88.4905 32.8101 95.1485 40.2845 99.8924 49.4579C100.036 49.7392 100.036 50.2247 99.8924 50.5005C93.1517 63.3311 83.1011 72.532 69.5479 77.7338C61.3288 80.889 52.7843 82.0088 44.0191 80.9C24.7897 78.4729 10.5966 68.5328 0.992909 51.8299C0.672972 51.2727 0.33097 50.7211 1.42109e-14 50.1695L1.42109e-14 49.7834Z" filter="url(#Filter_Background)" shadowAngle="-1.571" shadowColor="#000000" shadowOffset="1" shadowOpacity=".5" shadowRadius="3"/><path id="prefix__Schlera" fill="url(#RadialGradient_Schlera)" d="M26.1697 32.8569C20.22 36.4084 14.9335 43.0386 11.1356 48.5697C10.9756 48.8018 10.9536 49.262 11.1356 49.5199C16.1378 62.4077 37.872 71.4125 56.4415 68.9319C71.3387 66.9419 79.5777 61.5227 87.1883 53.4566C87.5196 53.1056 87.9275 52.5206 88.2743 51.9294C88.4213 51.6788 89.1697 50.3529 89.2585 49.7914C89.3685 49.0943 89.1167 48.5866 88.987 48.4C85.1807 43.0013 79.9871 37.345 74.1566 33.875C74.9727 35.8554 75.2425 38.0409 75.2425 40.2891C75.2425 54.0928 63.7959 65.3685 49.9934 65.3685C36.191 65.3685 25.0158 54.1946 25.0158 40.3909C25.0158 37.7673 25.7702 35.3159 26.1697 32.8569Z" filter="url(#Filter_Schlera)" shadowAngle="2.304" shadowColor="#000000" shadowOffset="1" shadowOpacity=".5" shadowRadius="3"/><path id="prefix__Iris" fill="url(#RadialGradient_Iris)" d="M25.0084 40.3874C25.0084 37.7522 25.774 35.2974 26.172 32.8273C26.172 32.8273 33.3507 27.2203 49.9999 27.2113C66.6491 27.2024 74.0904 33.713 74.0904 33.713C74.9617 35.7379 75.2426 37.9715 75.2426 40.283C75.2426 54.0867 63.8023 65.3813 49.9999 65.3813C36.1974 65.3813 25.0084 54.1911 25.0084 40.3874Z" filter="url(#Filter_Iris)" shadowAngle="2.304" shadowColor="#000000" shadowOffset="1" shadowOpacity=".5" shadowRadius="3"/><path id="prefix__Pupil" fill="#000" d="M33.3653 39.6736C33.3653 30.4136 40.8129 22.9068 50 22.9068C59.1871 22.9068 66.6347 30.4136 66.6347 39.6736C66.6347 48.9336 59.1871 56.4404 50 56.4404C40.8129 56.4404 33.3653 48.9336 33.3653 39.6736Z" filter="url(#Filter_Pupil)" shadowAngle="2.304" shadowColor="#000000" shadowOffset="1" shadowOpacity=".5" shadowRadius="3"/><path id="prefix__Glint" fill="#efefef" d="M41.3781 50.6993C46.2158 50.6276 50.6728 47.2462 50.8493 41.5039C50.9983 36.6331 47.4128 32.1264 41.6484 31.983C36.8107 31.8616 32.3536 35.3975 32.1771 41.1398C32.0282 46.0051 35.6137 50.3849 41.3781 50.6993Z" filter="url(#Filter_Glint)" shadowAngle="2.304" shadowColor="#000000" shadowOffset="1" shadowOpacity=".5" shadowRadius="3"/></g><path id="prefix__eye_closed" fill="#242323" fill-opacity="0" stroke="none" d="M98.8908 51.9026C98.9679 51.7592 99.0506 51.6104 99.1278 51.4671C99.3759 51.0095 99.6406 50.5629 99.8942 50.1108C99.885 50.0531 100.137 50.1712 99.8942 49.6687C99.6972 49.2608 100.124 50.2022 99.8942 49.6687C99.8942 49.6687 92.4818 48.5508 89.2621 48.9643C89.3437 49.0396 89.25 49.6718 89.1502 50C89.031 50.3917 88.6037 51.3105 88.5613 51.3685C79.6468 63.5845 62.1138 71.0911 43.7102 68.9123C30.936 67.3999 21.0118 62.6312 14.033 54.3934C14.033 54.3934 13.0584 52.9285 12.1242 51.5294C11.5156 50.6178 11.0439 49.0619 11.0532 49.0484C8.30768 48.5742 3.20314 50.5568 2.13163e-14 50C2.13163e-14 50 0.524678 51.0017 1.42125 52.4582C2.2995 53.8847 3.38622 55.8746 3.47622 55.9838C11.8176 65.9295 20.455 71.0609 34.5632 74.6776C43.1141 76.8718 51.7256 77.4341 60.2655 76.2212C78.8008 73.5804 91.4976 65.2887 98.8908 51.9026Z" opacity="1"/></g></svg>