<svg viewBox="0 0 100 100" width="100%" height="100%" xmlns="http://www.w3.org/2000/svg" xmlns:svg="http://www.w3.org/2000/svg">
<g id="gear" fill-rule="evenodd" transform="matrix(2.5749998,0,0,2.5749998,-11.799995,-11.799995)">
<g id="innercircle">
 <ellipse id="innercircle" style="display:inline;opacity:1;fill:#fc5b5b;fill-opacity:1;fill-rule:evenodd;stroke:#ff5c5c;stroke-width:3.53708765;stroke-linecap:round;stroke-linejoin:round;stroke-miterlimit:3.1;stroke-dasharray:none;stroke-dashoffset:39.2;stroke-opacity:1;paint-order:stroke fill markers;" cx="24" cy="24" rx="3.9188318" ry="3.9188316" />
</g>
<g id="outercogs">
 <path id="outercogs" style="color:#000000;display:inline;fill:#ff5151;stroke-linecap:round;stroke-linejoin:round;stroke-miterlimit:3.1;stroke-dashoffset:39.2;-inkscape-stroke:none;paint-order:stroke fill markers" d="m 20.909132,5.4563092 -1.922785,6.1301578 c -0.03426,0.01393 -0.06828,0.02827 -0.102397,0.04248 l 0.02503,-0.02503 -5.780492,-2.954339 -4.478914,4.478914 2.929308,5.725122 -6.1225728,1.977397 v 6.338744 l 6.1187808,1.977397 -2.925516,5.724364 4.478914,4.478914 5.725122,-2.929309 1.977397,6.122574 h 6.338744 l 1.99636,-6.180978 h -0.02882 c 0.0319,-0.01335 0.06379,-0.02661 0.09557,-0.0402 l 5.693265,2.974818 4.371208,-4.371208 -2.974818,-5.693265 c 0.03119,-0.07294 0.06109,-0.146369 0.09102,-0.219963 l 6.130159,-1.922027 v -6.181736 l -6.130159,-1.922027 c -0.02993,-0.07359 -0.05982,-0.147019 -0.09102,-0.219963 l 2.974818,-5.693265 -4.371208,-4.3712084 -5.693265,2.9748184 c -0.07294,-0.03119 -0.146369,-0.06109 -0.219963,-0.09102 L 27.090868,5.4563092 Z M 24,15.089957 C 28.947466,15.090029 32.90997,19.052534 32.910043,24 32.90997,28.947466 28.947466,32.909971 24,32.910043 19.052535,32.90997 15.09003,28.947465 15.089957,24 15.09003,19.052535 19.052535,15.09003 24,15.089957 Z">
 <animateTransform attributeName="transform" attributeType="XML" dur="6s" from="0 24 24" to="-360 24 24" type="rotate" repeatCount="indefinite" />
 </path>
</g>
<g id="middlecircle">
 <circle id="middleciircle" cx="24" cy="24" r="10.416293" style="display:inline;opacity:1;fill:none;fill-opacity:1;fill-rule:evenodd;stroke:#1c0071;stroke-width:3.42641;stroke-linecap:square;stroke-miterlimit:3.1;stroke-dasharray:none;stroke-dashoffset:39.2;stroke-opacity:1;paint-order:stroke fill markers;"/>
</g>
<g id="spokes">
 <path id="spokes" style="display:inline;opacity:1;fill:#3800b2;fill-opacity:1;fill-rule:nonzero;stroke:none;stroke-width:1.54073;stroke-linecap:round;stroke-linejoin:round;stroke-dasharray:none;stroke-opacity:1;" d="m 24,12.807008 c -0.354696,0 -0.70418,0.02168 -1.051274,0.05385 -0.137838,0.01324 -0.274067,0.03361 -0.411105,0.05158 -0.14384,0.01889 -0.286712,0.04139 -0.42855,0.06599 v 10.076608 l -8.725728,5.047027 c 0.449081,1.197125 1.082758,2.304845 1.886377,3.272907 l 8.725729,-5.0402 8.734831,5.0402 c 0.80382,-0.968062 1.437256,-2.075782 1.886377,-3.272907 L 25.890928,23.066414 V 12.978428 c -0.141837,-0.02459 -0.284711,-0.04707 -0.428549,-0.06599 -0.137039,-0.01797 -0.272067,-0.03927 -0.411105,-0.05158 C 24.70418,12.828701 24.354498,12.807008 24,12.807008 Z">
 <animateTransform attributeName="transform" attributeType="XML" dur="5s" from="0 24 24" repeatCount="indefinite" to="360 24 24" type="rotate" />
 </path>
</g>
</g>
</svg>