<svg width="100%" height="100%" viewBox="0 0 500 500" xmlns="http://www.w3.org/2000/svg" id="search" shape-rendering="geometricPrecision" text-rendering="geometricPrecision" version="1.1">
<defs>
<filter color-interpolation-filters="sRGB" filterUnits="userSpaceOnUse" height="134.382" id="blur" width="174.605" x="181.701" y="69.9306"><feGaussianBlur in="SourceGraphic" result="Blur" stdDeviation="5.02815"/></filter>
<filter color-interpolation-filters="sRGB" filterUnits="userSpaceOnUse" height="272.733" id="blur_2" width="271.124" x="127.844" y="43.1333"><feGaussianBlur in="SourceGraphic" result="Blur" stdDeviation="5.01071"/></filter>
<linearGradient gradientTransform="matrix(65.8182 -0.363639 0.363639 65.8182 228.917 406.156)" gradientUnits="userSpaceOnUse" id="LinearGradient" x1="0" x2="1" y1="0" y2="0"><stop offset="0.1" stop-color="#491e70"/><stop offset="1" stop-color="#8e3ad9" stop-opacity="0"/></linearGradient>
<style id="pan">@keyframes magnifying_glass_animation__tr{0%,to{transform:translate(250px,450px) rotate(0deg)}25%{transform:translate(250px,450px) rotate(-17deg)}75%{transform:translate(250px,450px) rotate(17deg)}}#magnifying_glass_animation{animation:magnifying_glass_animation__tr 4000ms linear infinite normal forwards}</style>
</defs>
<g id="magnifying_glass_top" transform="translate(-15.7 -4.3)">
 <g id="magnifying_glass_animation" transform="translate(250 450)">
  <g id="magnifying_glass" transform="translate(-250 -450)" stroke-width="1">
<g id="magnifying.glass">
<path id="Main" fill="#8e3ad9" d="M263.125 12.4375C175.098 12.4375 103.938 84.7619 103.938 173.781C103.938 255.053 163.315 322.23 240.625 333.344C230.431 342.914 231.257 360.782 231.219 380.531C231.187 397.373 231.157 414.066 231.125 430.906C231.066 462.145 230.358 479.126 262.969 479.125C295.579 479.123 294.846 462.267 294.906 431.031C294.938 414.191 294.968 397.497 295 380.656C295.037 361.039 295.298 343.609 286.344 333.25C363.307 321.824 422.344 254.801 422.344 173.781C422.344 84.762 351.152 12.4375 263.125 12.4375ZM263.125 66.6875C320.982 66.6875 368.062 114.538 368.062 173.781C368.062 233.025 320.983 280.875 263.125 280.875C205.266 280.875 158.187 233.025 158.188 173.781C158.188 114.538 205.267 66.6875 263.125 66.6875Z"/>
<g id="glass" fill="#fff">
<path id="glass" fill="#0bb5fe" opacity="0.787467" d="M188.136 97.169C146.544 139.186 146.406 207.45 187.827 249.64C229.248 291.83 296.544 291.97 338.135 249.953C379.727 207.935 379.865 139.671 338.444 97.481C297.023 55.2914 229.727 55.1512 188.136 97.169Z"/>
<path filter="url(#blur)" blur="10.0563" d="M342.765 174.749C339.709 186.224 330.354 193.641 321.87 191.316C313.387 188.991 308.987 177.804 312.042 166.329C315.097 154.855 324.453 147.437 332.936 149.762C341.421 152.088 345.821 163.274 342.765 174.749ZM206.849 106.91C227.039 87.92 247.829 80.42 272.069 82.99C281.579 84 287.709 91.25 286.789 100.12C285.879 108.9 278.189 114.58 268.759 113.75C249.059 112 233.979 119.58 223.619 136.47C217.699 146.13 206.049 147.82 198.629 140.09C194.089 135.36 192.769 128.13 196.239 122.39C200.039 116.09 204.549 110.22 206.849 106.91Z"/>
<path id="shine" d="M342.765 174.749C339.709 186.224 330.354 193.641 321.87 191.316C313.387 188.991 308.987 177.804 312.042 166.329C315.097 154.855 324.453 147.437 332.936 149.762C341.421 152.088 345.821 163.274 342.765 174.749ZM206.849 106.91C227.039 87.92 247.829 80.42 272.069 82.99C281.579 84 287.709 91.25 286.789 100.12C285.879 108.9 278.189 114.58 268.759 113.75C249.059 112 233.979 119.58 223.619 136.47C217.699 146.13 206.049 147.82 198.629 140.09C194.089 135.36 192.769 128.13 196.239 122.39C200.039 116.09 204.549 110.22 206.849 106.91Z"/>
</g>
<g fill="#3e284d">
<path id="RimShadow" fill="#000" filter="url(#blur_2)" opacity="0.452862" stroke="#000" stroke-linecap="butt" stroke-linejoin="round" stroke-width="8.20151" blur="10.0214" d="M263.406 59.7609C197.72 59.7609 144.472 113.372 144.472 179.5C144.472 245.628 197.72 299.239 263.406 299.239C329.092 299.239 382.341 245.628 382.341 179.5C382.341 113.372 329.092 59.7609 263.406 59.7609ZM263.128 68.3335C320.31 68.3335 366.681 112.396 366.681 166.749C366.681 221.103 320.31 265.165 263.128 265.165C205.945 265.165 159.606 221.103 159.606 166.749C159.606 112.396 205.945 68.3335 263.128 68.3335Z"/>
<path id="rim" d="M263.406 58.5938C197.08 58.5938 143.312 112.727 143.312 179.5C143.313 246.273 197.08 300.406 263.406 300.406C329.733 300.406 383.5 246.273 383.5 179.5C383.5 112.727 329.733 58.5938 263.406 58.5938ZM263.125 67.25C320.865 67.25 367.688 111.742 367.688 166.625C367.688 221.508 320.865 266 263.125 266C205.385 266 158.594 221.508 158.594 166.625C158.594 111.742 205.385 67.25 263.125 67.25Z"/>
<path id="HandleGradient" fill="url(#LinearGradient)" d="M286.406 333.219C278.786 334.353 271.058 335.156 263.125 335.156C255.463 335.156 247.995 334.403 240.625 333.344C231.127 341.42 231.254 361.562 231.219 380.125C231.187 397.032 231.157 413.813 231.125 430.719C231.066 462.078 230.358 479.126 262.969 479.125C295.579 479.123 294.846 462.2 294.906 430.844C294.938 413.938 294.968 397.187 295 380.281C295.037 360.637 295.002 344.358 286.406 333.219Z"/>
<path id="Bar" d="M287.152 330.968C279.255 332.19 271.232 333.031 262.996 333.031C254.986 333.031 247.185 332.218 239.496 331.062C226.079 332.115 224.409 341.847 237.871 342.656C244.445 344.265 281.151 344.473 288.183 342.718C301.612 341.954 300.444 332.114 287.152 330.968Z"/>
</g></g>
</g></g></g>
</svg>
