<svg id="music" width="100%" height="100%" viewBox="0 0 100 100" version="1.1" xmlns:xlink="http://www.w3.org/1999/xlink" xmlns="http://www.w3.org/2000/svg" xmlns:svg="http://www.w3.org/2000/svg">
<defs><linearGradient id="linearGradient_music19"><stop style="stop-color:#a00038;stop-opacity:0.5;" offset="0" id="stop18" /><stop style="stop-color:#D5004A;stop-opacity:0.5;" offset="1" id="stop19" /></linearGradient><linearGradient id="linearGradient5-1"><stop style="stop-color:#a00038;stop-opacity:1;" offset="0" id="stop16" /><stop style="stop-color:#D5004A;stop-opacity:1;" offset="1" id="stop17" /></linearGradient><linearGradient id="linearGradient5-3"><stop style="stop-color:#a00038;stop-opacity:1;" offset="0" id="stop13" /><stop style="stop-color:#D5004A;stop-opacity:1;" offset="1" id="stop14" /></linearGradient><linearGradient id="linearGradient_music5"><stop style="stop-color:#000040;stop-opacity:1;" offset="0" id="stop9" /><stop style="stop-color:#0000ba;stop-opacity:1;" offset="0.32251477" id="stop10" /><stop style="stop-color:#0000b9;stop-opacity:1;" offset="0.73867202" id="stop11" /><stop style="stop-color:#000067;stop-opacity:1;" offset="1" id="stop12" /></linearGradient><linearGradient id="linearGradient5-2"><stop style="stop-color:#a00038;stop-opacity:1;" offset="0" id="stop6" /><stop style="stop-color:#D5004A;stop-opacity:1;" offset="1" id="stop8" /></linearGradient><radialGradient collect="always" xlink:href="#linearGradient5-3" id="radialGradient_music8" cx="485.86334" cy="732.41187" fx="485.86334" fy="732.41187" r="14.209717" gradientTransform="matrix(1.1147742,-0.60231279,0.44845913,0.83001837,-384.21221,417.12095)" gradientUnits="userSpaceOnUse" spreadMethod="reflect" /><radialGradient collect="always" xlink:href="#linearGradient_music19" id="radialGradient_music16" cx="0.0082151974" cy="-0.12859391" fx="0.0082151974" fy="-0.12859391" r="84.176796" gradientTransform="matrix(0.80103805,-0.84125862,0.48839541,0.46504526,0.06443919,-0.06188081)" gradientUnits="userSpaceOnUse" /><radialGradient collect="always" xlink:href="#linearGradient_music19" id="radialGradient_music14" gradientUnits="userSpaceOnUse" gradientTransform="matrix(0.80103805,-0.84125862,0.48839541,0.46504526,0.06443919,-0.06188081)" cx="0.0082151974" cy="-0.12859391" fx="0.0082151974" fy="-0.12859391" r="84.176796" /></defs>
<style id="music_sheet">
    @keyframes music_scale_animation__to{0%{transform:translate(384.5px,381.686597px)}53.333333%{transform:translate(384.499988px,381.686597px)}80%,to{transform:translate(-391.450012px,381.686597px)}}@keyframes music_scale_group_c_o{0%,80%,to{opacity:0}3.333333%,53.333333%{opacity:1}}@keyframes music_note1_animation__to{0%,3.333333%{transform:translate(1184.185608px,170.944336px)}53.333333%,to{transform:translate(-375.814392px,170.944336px)}}@keyframes music_note2_animation__to{0%,3.333333%{transform:translate(1484.185672px,240.944358px)}53.333333%,to{transform:translate(-85.814328px,240.944358px)}}@keyframes music_note3_animation__to{0%,3.333333%{transform:translate(355.236704px,413.795165px)}53.333333%,to{transform:translate(-1204.763296px,413.795165px)}}@keyframes music_note4_animation__to{0%,3.333333%{transform:translate(1915.236704px,413.796324px)}53.333333%,to{transform:translate(355.236704px,413.796324px)}}@keyframes music_note5_animation__to{0%,3.333333%{transform:translate(927.667693px,294.367107px)}53.333333%,to{transform:translate(-632.332307px,294.367107px)}}#music_scale_animation{animation:music_scale_animation__to 15000ms linear infinite normal forwards}#music_scale_group{animation:music_scale_group_c_o 15000ms linear infinite normal forwards}#music_note1_animation{animation:music_note1_animation__to 15000ms linear infinite normal forwards}#music_note2_animation{animation:music_note2_animation__to 15000ms linear infinite normal forwards}#music_note3_animation{animation:music_note3_animation__to 15000ms linear infinite normal forwards}#music_note4_animation{animation:music_note4_animation__to 15000ms linear infinite normal forwards}#music_note5_animation{animation:music_note5_animation__to 15000ms linear infinite normal forwards}</style><g id="g2" transform="matrix(0.13035661,0,0,0.13035661,0.58008692,1.527248e-6)"><path id="background" d="m 392.49,676.01 v 72.19 c 0,11.03 -8.32,21.11 -19.18,23.18 -1.61,0.31 -3.27,0.48 -4.9,0.48 -47.97,0.03 -95.93,0.02 -143.9,0.02 -11.76,0 -22.02,-9.02 -23.56,-20.72 a 23.27,23.27 0 0 1 -0.23,-3.12 c -0.01,-48.09 -0.01,-96.18 -0.01,-144.26 0,-11.03 8.32,-21.12 19.18,-23.18 1.61,-0.31 3.27,-0.48 4.9,-0.48 48.01,-0.02 96.02,-0.02 144.02,-0.02 11.03,0 21.13,8.33 23.18,19.18 0.3,1.61 0.48,3.27 0.48,4.9 0.03,23.94 0.02,47.89 0.02,71.83 z" transform="matrix(4,0,0,4,-801.294,-2320.4)" fill="rgba(0,0,0,0.9)" stroke="none" stroke-width="1" /><g id="g1" transform="matrix(1.1670537,0,0,1.1670537,-64.462357,-50.105583)" style="display:inline"><g id="music_scale_animation" transform="translate(384.5,381.687)"><g id="music_scale_group" transform="matrix(4,0,0,4,-1183.966,-2696.457)" opacity="0" fill="#cdcdcd" fill-rule="evenodd" stroke="#cdcdcd" stroke-width="0.2"><rect id="music_scale_line1" width="192.99699" height="3.8340001" rx="0" ry="1.2079999" transform="translate(200.132,740.555)" x="0" y="0" /><rect id="music_scale_line2" width="192.99699" height="3.8340001" rx="0" ry="1.2079999" transform="translate(198.854,705.727)" x="0" y="0" /><rect id="music_scale_line3" width="192.99699" height="3.8340001" rx="0" ry="1.2079999" transform="translate(199.493,672.176)" x="0" y="0" /><rect id="music_scale_line4" width="192.99699" height="3.8340001" rx="0" ry="1.2079999" transform="translate(199.707,603.839)" x="0" y="0" /><rect id="music_scale_line5" width="192.99699" height="3.8340001" rx="0" ry="1.2079999" transform="translate(199.388,637.07)" x="0" y="0" /></g></g><g id="music_note1_animation" transform="translate(1146.882,171.71083)"><g id="music_note1_group" transform="matrix(4,0,0,4,-1945.3,-2929.162)" stroke="none"><path id="path4" d="m 485.40347,718.25235 c -6.25508,1.13351 -11.42915,4.06016 -14.99601,9.43956 -1.75077,2.64558 -2.599,5.58042 -2.13029,8.74818 0.70247,4.71159 3.6973,7.62188 8.05478,8.98107 7.40117,2.30809 15.00411,1.78682 21.34417,-3.62503 6.68697,-5.70799 7.21333,-12.56712 4.03701,-17.96028 -3.22495,-5.47569 -12.92769,-6.19487 -16.30966,-5.5835 z" opacity="1" fill="#808080" fill-rule="evenodd" stroke="none" stroke-width="0.754145" nodetypes="ccccssc" style="display:inline;fill:none;fill-opacity:1;stroke:#D5004A;stroke-width:7.16113;stroke-linecap:round;stroke-linejoin:round;stroke-miterlimit:15;stroke-dasharray:none;stroke-opacity:1"  /><path id="path2" d="m 484.84593,721.13298 c -4.32703,0.6885 -8.50866,3.62934 -10.79289,6.81138 -2.28421,3.18209 -2.87864,7.02295 -2.17101,9.3088 0.70761,2.28579 2.83736,4.98317 7.15314,6.11112 4.3157,1.12792 12.10517,0.62921 16.89122,-4.04101 5.04769,-4.92599 4.95583,-10.46486 2.27257,-14.59171 -2.51279,-3.86464 -8.80046,-4.32299 -13.35303,-3.59858 z" opacity="1" fill="#808080" fill-rule="evenodd" stroke="none" stroke-width="0.754145" nodetypes="szzzsas" style="display:inline;opacity:0.5;fill:url(#radialGradient_music8);stroke:none;stroke-width:5.43701;stroke-linecap:round;stroke-linejoin:round;stroke-miterlimit:15;stroke-dasharray:none;stroke-opacity:0.937046"  /></g></g><g id="music_note2_animation" transform="translate(1374.4133,240.944)"><path id="path3" d="m -1.6205214,-56.558274 c -25.0203196,4.53404 -45.7165996,16.24064 -59.9840396,37.75824 -7.00308,10.5823205 -10.396,22.3216805 -8.52116,34.99272 2.80988,18.84636 14.7892,30.48752 32.21912,35.92428 29.6046796,9.23236 60.01644,7.14728 85.37668,-14.50012 26.74788,-22.83196 28.85332,-50.26848 16.14804,-71.84112 -12.8998,-21.90276 -51.71076,-24.77948 -65.2386404,-22.334 z" opacity="1" fill="#808080" fill-rule="evenodd" stroke="none" stroke-width="0.754145" nodetypes="ccccssc" style="display:inline;opacity:1;mix-blend-mode:normal;fill:url(#radialGradient_music16);stroke:#D5004A;stroke-width:27.1085;stroke-linecap:round;stroke-linejoin:round;stroke-miterlimit:15;stroke-dasharray:none;stroke-opacity:1"  /></g><g id="music_note3_animation" transform="translate(355.237,413.795)"><path id="path8" d="m -1.6205214,-56.558274 c -25.0203196,4.53404 -45.7165996,16.24064 -59.9840396,37.75824 -7.00308,10.5823205 -10.396,22.3216805 -8.52116,34.99272 2.80988,18.84636 14.7892,30.48752 32.21912,35.92428 29.6046796,9.23236 60.01644,7.14728 85.37668,-14.50012 26.74788,-22.83196 28.85332,-50.26848 16.14804,-71.84112 -12.8998,-21.90276 -51.71076,-24.77948 -65.2386404,-22.334 z" opacity="1" fill="#808080" fill-rule="evenodd" stroke="none" stroke-width="0.754145" nodetypes="ccccssc" style="display:inline;opacity:1;mix-blend-mode:normal;fill:url(#radialGradient_music14);stroke:#D5004A;stroke-width:27.1085;stroke-linecap:round;stroke-linejoin:round;stroke-miterlimit:15;stroke-dasharray:none;stroke-opacity:1"  transform="translate(-443.35822,-172.851)" /><path id="music_note3" d="m 243.024,708.27 c -4.18,-1.82 -8.36,-1.85 -12.55,-1.09 -7.75,1.41 -14.16,5.05 -18.58,11.74 -2.17,3.29 -3.22,6.94 -2.64,10.88 0.87,5.86 4.58,9.48 9.98,11.17 9.17,2.87 17.71,1.18 25.25,-4.71 5.17,-4.03 7.81,-9.35 7.75,-16.1 -0.14,-14.62 -0.01,-29.24 -0.05,-43.85 -0.01,-2.75 1.13,-4.73 3.43,-6.09 0.78,-0.46 1.62,-0.85 2.48,-1.12 14.65,-4.62 29.3,-9.21 43.96,-13.8 0.71,-0.22 1.47,-0.39 2.21,-0.44 1.93,-0.14 2.99,0.79 3.17,2.72 0.03,0.35 0.04,0.71 0.04,1.07 0.01,11.64 0.01,23.28 0.01,34.92 0,0.37 -0.04,0.75 -0.06,1.22 -4.34,-1.84 -8.71,-2.13 -13.14,-1.47 -7.91,1.19 -14.47,4.73 -18.91,11.56 -2.76,4.25 -3.67,8.89 -1.75,13.75 1.89,4.77 5.7,7.53 10.48,8.78 10.08,2.62 19.06,0.29 26.67,-6.8 4,-3.73 5.98,-8.36 5.94,-14.01 -0.13,-20.54 -0.05,-41.07 -0.05,-61.61 0,-4.41 0.02,-8.82 -0.01,-13.23 -0.03,-3.79 -2.55,-6.99 -6.3,-7.56 -1.74,-0.26 -3.65,-0.04 -5.38,0.38 -3.08,0.74 -6.08,1.8 -9.12,2.73 -13.86,4.24 -27.71,8.49 -41.57,12.7 -6.63,2.01 -11.42,8.95 -11.35,15.41 0.19,17.16 0.07,34.32 0.08,51.48 0.01,0.37 0.01,0.77 0.01,1.37 z" transform="matrix(4,0,0,4,-1051.622,-2732.85)" fill="#D5004A" stroke="none" stroke-width="1"  /></g><g id="music_note4_animation" transform="translate(1915.237,413.796)"><path id="path24" style="display:inline;opacity:1;fill:#D5004A;fill-opacity:1"  d="M 621.98026 -333.6445 C 615.38472 -334.87053 597.18523 -328.82442 554.34831 -314.36143 C 527.82834 -306.32144 508.65939 -278.56492 508.93939 -252.72495 C 509.69939 -184.08502 509.22034 -115.45204 509.26034 -46.812109 C 509.30034 -45.33211 509.29886 -43.73017 509.29886 -41.330172 C 492.57888 -48.610165 475.86126 -48.722339 459.10127 -45.682342 C 428.10125 -40.042347 402.46056 -25.492801 384.78058 1.2671723 C 376.10059 14.427159 371.8947 29.028887 374.2147 44.788871 C 377.69469 68.228848 392.54169 82.718858 414.14168 89.478852 C 450.8217 100.95884 484.9803 94.192263 515.14027 70.632287 C 535.82025 54.512303 546.37182 33.235552 546.13182 6.2355786 C 545.57183 -52.244363 546.09925 -110.72078 545.93925 -169.16072 C 545.89925 -180.16071 550.46336 -188.08774 559.66335 -193.52774 C 562.78335 -195.36773 566.13449 -196.92829 569.57449 -198.00829 C 643.51435 -235.66025 633.09854 -206.72671 618.46258 -272.35465 C 611.7126 -309.37711 632.97283 -331.6011 621.98026 -333.6445 z M 184.46522 -236.48455 C 179.05585 -236.59705 173.46617 -235.79313 168.27618 -234.53314 C 155.95619 -231.57314 143.94983 -227.32777 131.78985 -223.60778 C 76.349901 -206.64779 20.948657 -189.64677 -34.491288 -172.80678 C -61.011261 -164.76679 -80.167372 -137.01028 -79.887373 -111.1703 C -79.127373 -42.530371 -79.606416 26.115445 -79.566416 94.755376 C -79.526416 96.235375 -79.527901 97.824477 -79.527901 100.22447 C -96.247885 92.944482 -112.96551 92.832308 -129.72549 95.872305 C -160.72546 101.5123 -186.3662 116.07468 -204.04618 142.83466 C -212.72617 155.99464 -216.93206 170.59637 -214.61207 186.35636 C -211.13207 209.79633 -196.28506 224.2735 -174.68508 231.0335 C -138.00512 242.51349 -103.84646 235.74691 -73.686493 212.18693 C -53.006514 196.06695 -42.442097 174.7902 -42.682097 147.79023 C -43.242097 89.310284 -42.72751 30.833869 -42.887509 -27.606073 C -42.927509 -38.606062 -38.363401 -46.533094 -29.16341 -51.973089 C -26.043413 -53.813087 -22.692271 -55.373642 -19.252274 -56.453641 C 39.347667 -74.933623 97.953421 -93.285336 156.59336 -111.64532 C 159.43336 -112.52532 162.47893 -113.20416 165.43892 -113.40416 C 173.15892 -113.96416 177.39029 -110.25015 178.11029 -102.53015 C 178.23029 -101.13016 178.27718 -99.695012 178.27718 -98.255013 C 178.31718 -51.69506 178.3157 -5.1347062 178.3157 41.425247 C 178.3157 42.905246 178.15177 44.423788 178.07177 46.303786 C 160.71179 38.943793 143.23192 37.783866 125.51194 40.423863 C 93.871969 45.183858 67.628896 59.3473 49.868914 86.667273 C 38.828925 103.66726 35.19207 122.22639 42.872062 141.66638 C 50.432055 160.74636 65.668998 171.79186 84.788979 176.79185 C 125.10894 187.27184 161.03494 177.94755 191.47491 149.58758 C 207.4749 134.6676 215.39853 116.14856 215.23853 93.54858 C 214.71853 11.388662 215.03312 -70.734727 215.03312 -152.89464 C 215.03312 -170.53463 215.1146 -188.17397 214.9946 -205.81395 C 214.8746 -220.97393 204.79309 -233.76805 189.7931 -236.04805 C 188.0531 -236.30805 186.26835 -236.44705 184.46522 -236.48455 z " transform="translate(-4.763564e-5)" /></g><g id="music_note5_animation" transform="translate(917.15093,294.367)"><path id="music_note5" d="m -58.349498,78.102 c -16.720003,-7.28 -33.440003,-7.4 -50.200012,-4.36 -31.00005,5.64 -56.64009,20.2 -74.32008,46.96 -8.68,13.16 -12.88,27.76 -10.56,43.52 3.48,23.44 18.32,37.92 39.92001,44.68 36.68006,11.48 70.840079,4.72 101.000083,-18.84 20.68,-16.12 31.24,-37.4 31,-64.4 -0.56,-58.48 -0.04,-116.96 -0.2,-175.4 -0.04,-11 4.52,-18.92 13.7199999,-24.36 3.1199994,-1.84 6.4799985,-3.4 9.9199981,-4.48 73.939946,-37.652 63.519966,-8.72 48.883985,-74.348 -10.799984,-59.236 50.111924,-80.58 -64.119983,-42.012 -26.52,8.04 -45.680001,35.8 -45.400001,61.64 0.76,68.64 0.28,137.28 0.32,205.92 0.04,1.48 0.04,3.08 0.04,5.48 z" fill="#D5004A" stroke="none" stroke-width="4"  /></g></g><g id="g25" transform="matrix(1.1670537,0,0,1.1670537,1005.9021,293.43652)"  style="display:inline" /></g>
</svg>