<svg width="100%" height="100%" viewBox="0 0 769 769" xmlns="http://www.w3.org/2000/svg" shape-rendering="geometricPrecision" text-rendering="geometricPrecision"><style>@keyframes slider_f_o{0%,35%{fill-opacity:1;animation-timing-function:step-end}19%,65%{fill-opacity:0;animation-timing-function:step-end}}@keyframes play_animation__to{0%{transform:translate(.194403px,0)}19%,35%{transform:translate(40.194403px,0)}65%,82%{transform:translate(107.694403px,0)}}@keyframes pause_animation_c_o{0%,35%,82%{opacity:0;animation-timing-function:step-end}19%,65%{opacity:1;animation-timing-function:step-end}}@keyframes rewind_animation_c_o{0%{opacity:0;animation-timing-function:step-end}82%{opacity:1;animation-timing-function:step-end}}#slider{animation:slider_f_o 10000ms linear infinite normal forwards}#play_animation{animation:play_animation__to 10000ms linear infinite normal forwards}</style><g style="stroke-width:1px;"><path id="player_frame" style="fill:#999;" d="M115.482 61.8596C85.9456 61.8596 62 85.8052 62 115.342L62 653.659C62 683.195 85.9456 707.14 115.482 707.14L653.518 707.14C683.055 707.141 707 683.195 707 653.659L707 115.342C707 85.8052 683.055 61.8596 653.518 61.8596L115.482 61.8596ZM102.587 102.541L666.226 102.541L666.226 505.014L102.587 505.014C102.588 505.014 102.587 102.541 102.587 102.541Z"/><g id="player" transform="matrix(4 0 0 4 -889.218 -2342.924)"><path id="player_window" name="screen" style="fill:#3e4451;stroke:#000;" d="M247.76 712.17H388.8V611.46H247.76v100.71z"/><path id="slider" name="playTriangle" style="fill:#ff0;" d="M288.05 661.76c0-10.14-.01-20.27.01-30.41 0-.83.09-1.68.31-2.47.82-2.87 3.2-4.22 6.08-3.42.9.25 1.78.63 2.59 1.09 17.57 10.02 35.12 20.05 52.68 30.09.5.29.99.6 1.44.96 3.23 2.54 3.27 5.94.01 8.42-1.33 1.01-2.83 1.78-4.29 2.62-16.51 9.44-33.02 18.88-49.54 28.31-.64.36-1.28.73-1.96.98-3.97 1.5-7.29-.73-7.33-4.97-.05-5.78-.01-11.55-.01-17.33.01-4.63.01-9.25.01-13.87z"/><path id="slider_bar" style="fill:#ddd;stroke:#88888880;" d="M373.92 742.96H262.77c-3.04 0-5.53-2.49-5.53-5.53s2.49-5.53 5.53-5.53h111.16c3.04 0 5.53 2.49 5.53 5.53s-2.49 5.53-5.54 5.53z"/><g id="play_animation" transform="translate(.194)"><path id="play" name="switch" style="fill:#fff;stroke:#99999980;" d="M265.53 752.59c-4.63 0-8.42-3.79-8.42-8.42V730.7c0-4.63 3.79-8.42 8.42-8.42s8.42 3.79 8.42 8.42v13.47c0 4.63-3.79 8.42-8.42 8.42z"/></g></g></g></svg>