<svg width="100%" height="100%" viewBox="0 0 100 100" xmlns="http://www.w3.org/2000/svg">
<g id="TRASHCAN"><g id="bin"><path id="bin-fill" d="M25 47L28.645 94.383C28.845 96.988 31.017 99 33.63 99L66.37 99C68.983 99 71.155 96.988 71.355 94.383L75 47" fill="#800000" fill-rule="nonzero"/><path id="bin-outline" d="M23 48L24.074 48L27.648 94.46C27.887 97.566 30.515 100 33.63 100L66.37 100C69.486 100 72.114 97.566 72.352 94.46L75.926 48C75.926 48 20.794 48 23 48ZM70.358 94.307C70.199 96.378 68.447 98 66.37 98L33.63 98C31.553 98 29.801 96.378 29.642 94.307L26.08 48L28.085 48L30.432 78.546C30.452 78.809 30.671 79.008 30.93 79.008C30.943 79.008 30.956 79.008 30.969 79.007C31.244 78.986 31.45 78.745 31.429 78.47L29.088 48L70.912 48L70.651 51.392C70.63 51.667 70.836 51.908 71.111 51.929C71.124 51.93 71.137 51.93 71.15 51.93C71.409 51.93 71.628 51.731 71.648 51.469L71.915 48L73.92 48L70.358 94.307ZM75.9679 48.0359L76.066 46.1978L23.9651 45.9618L24.0971 48.0424C22.9941 48.0424 75.9679 48.0359 75.9679 48.0359Z" fill="#000" fill-rule="nonzero"/><path id="bin-accents" d="M31.204 82.053C30.929 82.074 30.723 82.315 30.744 82.59L31.632 94.148C31.652 94.411 31.871 94.61 32.13 94.61C32.143 94.61 32.156 94.61 32.169 94.609C32.444 94.588 32.65 94.347 32.629 94.072L31.74 82.514C31.719 82.238 31.477 82.028 31.204 82.053ZM70.721 57.012C70.445 56.988 70.205 57.197 70.184 57.472L68.415 80.491C68.394 80.766 68.6 81.007 68.875 81.028C68.888 81.029 68.901 81.029 68.914 81.029C69.173 81.029 69.392 80.83 69.412 80.567L71.181 57.548C71.202 57.274 70.996 57.033 70.721 57.012Z" fill="#000" fill-rule="nonzero"/></g><g id="base-and-handle"><path id="lid-fill" d="M77 41L73 41L71.165 37.942C70.442 36.737 69.14 36 67.735 36L32.265 36C30.86 36 29.558 36.737 28.835 37.942L27 41L23 41C21.343 41 20 42.343 20 44C20 45.657 21.343 47 23 47L77 47C78.657 47 80 45.657 80 44C80 42.343 78.657 41 77 41Z" fill="#950002" fill-rule="nonzero"/><path id="lid-outline" d="M77 40L73.566 40L72.022 37.427C71.125 35.93 69.481 35 67.735 35L57 35L57 33C57 31.346 55.654 30 54 30L46 30C44.346 30 43 31.346 43 33L43 35L32.265 35C30.519 35 28.876 35.93 27.978 37.427L26.434 40L23 40C20.794 40 19 41.794 19 44C19 46.206 20.794 48 23 48L24.074 48L75.926 48L77 48C79.206 48 81 46.206 81 44C81 41.794 79.206 40 77 40ZM45 33C45 32.449 45.449 32 46 32L54 32C54.551 32 55 32.449 55 33L55 35L45 35L45 33ZM26.08 48L28.085 48L29.088 48L70.912 48L71.915 48L73.92 48L26.08 48ZM77 46L23 46C21.897 46 21 45.103 21 44C21 42.897 21.897 42 23 42L25.5 42L27 42L61.5 42C61.776 42 62 41.776 62 41.5C62 41.224 61.776 41 61.5 41L28.166 41L29.692 38.457C30.231 37.558 31.217 37 32.265 37L67.736 37C68.784 37 69.769 37.558 70.308 38.457L71.834 41L68.5 41C68.224 41 68 41.224 68 41.5C68 41.776 68.224 42 68.5 42L73 42L73.5 42L77 42C78.103 42 79 42.897 79 44C79 45.103 78.103 46 77 46Z" fill="#000" fill-rule="nonzero"/><animateTransform id="a" attributeName="transform" attributeType="XML" begin="0;b.end+3s" from="0 23 50" to="-35 23 50" dur="1s" type="rotate"/><animateTransform id="b" attributeName="transform" attributeType="XML" begin="a.end" from="-35 23 50" to="0 23 50" dur="1s" type="rotate"/></g></g></svg>