<svg width="100%" height="100%" viewBox="0 0 100 100" stroke-miterlimit="10" style="fill-rule:nonzero;clip-rule:evenodd;stroke-linecap:round;stroke-linejoin:round;" version="1.1" xml:space="preserve" id="svg56" sodipodi:docname="Trashcan-Bin-Round-Red-Animated-loop copy.svg" inkscape:version="1.3-beta (cedbd6c, 2023-05-28)" xmlns:inkscape="http://www.inkscape.org/namespaces/inkscape" xmlns:sodipodi="http://sodipodi.sourceforge.net/DTD/sodipodi-0.dtd" xmlns="http://www.w3.org/2000/svg" xmlns:svg="http://www.w3.org/2000/svg"><sodipodi:namedview id="namedview56" pagecolor="#505050" bordercolor="#efefef" borderopacity="1" inkscape:showpageshadow="0" inkscape:pageopacity="0" inkscape:pagecheckerboard="1" inkscape:deskcolor="#505050" inkscape:zoom="3.3563724" inkscape:cx="33.22039" inkscape:cy="52.884477" inkscape:window-width="1211" inkscape:window-height="750" inkscape:window-x="85" inkscape:window-y="25" inkscape:window-maximized="0" inkscape:current-layer="svg56" />
<style id="style1">
      .line-bin1 {animation:line-bin1-lid 4s infinite; transform-origin: 24px 48px;}
     @keyframes line-bin1-lid {
         0%{transform: rotate(0);}
         20%{transform: rotate(0);}
         40%{transform: rotate(-40deg);}
         60%{transform: rotate(-40deg);}
         80%{transform: rotate(0);}
         100%{transform: rotate(0);}
     }
     @media (prefers-reduced-motion: reduce) {
         .line-bin1 {
             animation: none;
         }
     }
    </style>
    <clipPath id="ArtboardFrame"><rect height="65.5" width="51.75" x="23.625" y="33" id="rect1" /></clipPath> <g id="g56" transform="matrix(1.1351102,0,0,1.1351102,-6.75551,-11.808361)" style="display:inline"><g clip-path="url(#ArtboardFrame)" id="Layer" class="Layer"><path d="m 27.999998,48 h 44 v 46 c 0,2.2091 -1.7909,4 -4,4 h -36 c -2.2091,0 -4,-1.7909 -4,-4 z" fill="url(#LinearGradient)" fill-rule="nonzero" opacity="1" stroke="none" class="bin-fill" id="path1" style="fill:url(#LinearGradient);filter:url(#filter88)" /> <path d="m 27.999998,48 h 44 v 46 c 0,2.2091 -1.7909,4 -4,4 h -36 c -2.2091,0 -4,-1.7909 -4,-4 z" fill="none" opacity="1" stroke="#5b0202" stroke-linecap="round" stroke-linejoin="round" stroke-width="1" class="bin-outline" id="path2" /></g><g opacity="1" class="line-bin1" id="g6" transform="translate(0.49999829)"> <path d="m 39,34.339866 h 21 c 1.1046,0 2,0.8954 2,2 v 9 c 0,1.1046 -0.8954,2 -2,2 H 39 c -1.1046,0 -2,-0.8954 -2,-2 v -9 c 0,-1.1046 0.8954,-2 2,-2 z" fill="url(#LinearGradient_2)" fill-rule="nonzero" opacity="1" stroke="none" class="lid-handle-fill" id="path3" style="fill:url(#LinearGradient_2);filter:url(#filter92)" /><path d="m 39.224305,34.406556 h 20.551388 c 1.081016,0 1.957295,0.882436 1.957295,1.970988 v 8.869285 c 0,1.088551 -0.876279,1.506839 -1.957295,1.506839 H 39.224305 c -1.081016,0 -1.957294,-0.418288 -1.957294,-1.506839 v -8.869285 c 0,-1.088552 0.876278,-1.970988 1.957294,-1.970988 z" fill="none" opacity="0.671717" stroke="#5b0202" stroke-linecap="round" stroke-linejoin="round" stroke-width="0.775597" class="lid-handle-outline" id="path4" style="opacity:1" /> <path d="m 26,42 h 47 c 1.1046,0 2,0.8954 2,2 v 4 c 0,1.1046 -0.8954,2 -2,2 H 26 c -1.1046,0 -2,-0.8954 -2,-2 v -4 c 0,-1.1046 0.8954,-2 2,-2 z" fill="url(#LinearGradient_3)" fill-rule="nonzero" opacity="1" stroke="none" class="lid-base-fill" id="path5" style="fill:url(#LinearGradient_3);filter:url(#filter94)" /><path d="m 26,42 h 47 c 1.1046,0 2,0.8954 2,2 v 4 c 0,1.1046 -0.8954,2 -2,2 H 26 c -1.1046,0 -2,-0.8954 -2,-2 v -4 c 0,-1.1046 0.8954,-2 2,-2 z" fill="none" opacity="1" stroke="#5b0202" stroke-linecap="round" stroke-linejoin="round" stroke-width="0.75" class="lid-base-outline" id="path6" /></g><path d="m 49.9678,53.3125 c -1.4839,0 -2.6875,1.2036 -2.6875,2.6875 v 34 c 0,1.4839 1.2036,2.6875 2.6875,2.6875 1.4839,0 2.6875,-1.2036 2.6875,-2.6875 V 56 c 0,-1.4839 -1.2036,-2.6875 -2.6875,-2.6875 z" fill="url(#LinearGradient_4)" fill-rule="nonzero" opacity="1" stroke="none" class="stroke-line-right" id="path7" style="fill:url(#LinearGradient_4)" /><path d="m 59.9321,53.3125 c -1.484,0 -2.6875,1.2036 -2.6875,2.6875 v 34 c 0,1.4839 1.2035,2.6875 2.6875,2.6875 1.4839,0 2.6874,-1.2036 2.6875,-2.6875 V 56 c 0,-1.4839 -1.2036,-2.6875 -2.6875,-2.6875 z" fill="url(#LinearGradient_5)" fill-rule="nonzero" opacity="1" stroke="none" class="stroke-line-middle" id="path8" style="fill:url(#LinearGradient_5)" /><path d="m 40.0035,53.3125 c -1.4839,0 -2.6875,1.2036 -2.6875,2.6875 v 34 c 0,1.4839 1.2036,2.6875 2.6875,2.6875 1.4839,0 2.6875,-1.2036 2.6875,-2.6875 V 56 c 0,-1.4839 -1.2036,-2.6875 -2.6875,-2.6875 z" fill="url(#LinearGradient_6)" fill-rule="nonzero" opacity="1" stroke="none" class="stroke-line-left" id="path9" style="fill:url(#LinearGradient_6)" /></g> <defs id="defs56"><linearGradient gradientTransform="translate(-0.50000144,15.5)" gradientUnits="userSpaceOnUse" id="LinearGradient" x1="28.5" x2="72.5" y1="57.5" y2="57.5"> <stop offset="0" stop-color="#760002" id="stop9" /> <stop offset="0.413158" stop-color="#ba0004" id="stop10" /> <stop offset="0.453947" stop-color="#ba0004" id="stop11" /> <stop offset="0.476316" stop-color="#ba0004" id="stop12" /> <stop offset="0.494737" stop-color="#ba0004" id="stop13" /> <stop offset="0.535526" stop-color="#ba0004" id="stop14" /> <stop offset="0.557895" stop-color="#ba0004" id="stop15" /> <stop offset="0.586842" stop-color="#ba0004" id="stop16" /> <stop offset="0.627632" stop-color="#ba0004" id="stop17" /> <stop offset="1" stop-color="#760002" id="stop18" /></linearGradient><linearGradient gradientTransform="translate(-0.49999933,16.839866)" gradientUnits="userSpaceOnUse" id="LinearGradient_2" x1="37.5" x2="62.5" y1="24" y2="24"> <stop offset="0" stop-color="#760002" id="stop19" /> <stop offset="0.413158" stop-color="#ba0004" id="stop20" /> <stop offset="0.453947" stop-color="#ba0004" id="stop21" /> <stop offset="0.476316" stop-color="#ba0004" id="stop22" /> <stop offset="0.494737" stop-color="#ba0004" id="stop23" /> <stop offset="0.535526" stop-color="#ba0004" id="stop24" /> <stop offset="0.557895" stop-color="#ba0004" id="stop25" /> <stop offset="0.586842" stop-color="#ba0004" id="stop26" /> <stop offset="0.627632" stop-color="#ba0004" id="stop27" /> <stop offset="1" stop-color="#760002" id="stop28" /></linearGradient><linearGradient gradientTransform="translate(-0.5,15.5)" gradientUnits="userSpaceOnUse" id="LinearGradient_3" x1="24.5" x2="75.5" y1="30.5" y2="30.5"> <stop offset="0" stop-color="#760002" id="stop29" /> <stop offset="0.413158" stop-color="#ba0004" id="stop30" /> <stop offset="0.453947" stop-color="#ba0004" id="stop31" /> <stop offset="0.476316" stop-color="#ba0004" id="stop32" /> <stop offset="0.494737" stop-color="#ba0004" id="stop33" /> <stop offset="0.535526" stop-color="#ba0004" id="stop34" /> <stop offset="0.557895" stop-color="#ba0004" id="stop35" /> <stop offset="0.586842" stop-color="#ba0004" id="stop36" /> <stop offset="0.627632" stop-color="#ba0004" id="stop37" /> <stop offset="1" stop-color="#760002" id="stop38" /></linearGradient><linearGradient gradientTransform="translate(9.4678,15.5)" gradientUnits="userSpaceOnUse" id="LinearGradient_4" x1="38.3711" x2="42.9176" y1="64.6636" y2="64.6927"> <stop offset="0" stop-color="#ba0004" id="stop39" /> <stop offset="0" stop-color="#ba0004" id="stop40" /> <stop offset="0" stop-color="#ba0004" id="stop41" /> <stop offset="0.00921053" stop-color="#ba0004" id="stop42" /> <stop offset="0.227632" stop-color="#ba0004" id="stop43" /> <stop offset="1" stop-color="#760104" id="stop44" /></linearGradient> <linearGradient gradientTransform="translate(19.4321,15.5)" gradientUnits="userSpaceOnUse" id="LinearGradient_5" x1="38.3711" x2="42.9176" y1="64.6636" y2="64.6927"> <stop offset="0" stop-color="#ba0004" id="stop45" /> <stop offset="0" stop-color="#ba0004" id="stop46" /> <stop offset="0" stop-color="#ba0004" id="stop47" /> <stop offset="0.00921053" stop-color="#ba0004" id="stop48" /> <stop offset="0.227632" stop-color="#ba0004" id="stop49" /> <stop offset="1" stop-color="#760104" id="stop50" /></linearGradient> <linearGradient gradientTransform="translate(-0.496501,15.5)" gradientUnits="userSpaceOnUse" id="LinearGradient_6" x1="38.3711" x2="42.9176" y1="64.6636" y2="64.6927"> <stop offset="0" stop-color="#ba0004" id="stop51" /> <stop offset="0" stop-color="#ba0004" id="stop52" /> <stop offset="0" stop-color="#ba0004" id="stop53" /> <stop offset="0.00921053" stop-color="#ba0004" id="stop54" /> <stop offset="0.227632" stop-color="#ba0004" id="stop55" /> <stop offset="1" stop-color="#760104" id="stop56" /></linearGradient><filter style="color-interpolation-filters:sRGB;" inkscape:label="Drop Shadow" id="filter88" x="-0.043636364" y="-0.038400001" width="1.0872727" height="1.0768"><feFlood result="flood" in="SourceGraphic" flood-opacity="0.972549" flood-color="rgb(0,0,0)" id="feFlood87" /><feGaussianBlur result="blur" in="SourceGraphic" stdDeviation="0.400000" id="feGaussianBlur87" /><feOffset result="offset" in="blur" dx="-0.000000" dy="-0.000000" id="feOffset87" /><feComposite result="comp1" operator="in" in="offset" in2="flood" id="feComposite87" /><feComposite result="fbSourceGraphic" operator="over" in="SourceGraphic" in2="comp1" id="feComposite88" /><feColorMatrix result="fbSourceGraphicAlpha" in="fbSourceGraphic" values="0 0 0 -1 0 0 0 0 -1 0 0 0 0 -1 0 0 0 0 1 0" id="feColorMatrix88" /><feFlood id="feFlood88" result="flood" in="fbSourceGraphic" flood-opacity="0.972549" flood-color="rgb(0,0,0)" /><feGaussianBlur id="feGaussianBlur88" result="blur" in="fbSourceGraphic" stdDeviation="0.400000" /><feOffset id="feOffset88" result="offset" in="blur" dx="-0.000000" dy="-0.000000" /><feComposite id="feComposite89" result="comp1" operator="in" in="offset" in2="flood" /><feComposite id="feComposite90" result="comp2" operator="over" in="fbSourceGraphic" in2="comp1" /></filter><filter style="color-interpolation-filters:sRGB;" inkscape:label="Drop Shadow" id="filter92" x="-0.038400001" y="-0.073846155" width="1.0768" height="1.1476923"><feFlood result="flood" in="SourceGraphic" flood-opacity="0.972549" flood-color="rgb(0,0,0)" id="feFlood90" /><feGaussianBlur result="blur" in="SourceGraphic" stdDeviation="0.400000" id="feGaussianBlur90" /><feOffset result="offset" in="blur" dx="-0.000000" dy="-0.000000" id="feOffset90" /><feComposite result="comp1" operator="in" in="offset" in2="flood" id="feComposite91" /><feComposite result="comp2" operator="over" in="SourceGraphic" in2="comp1" id="feComposite92" /></filter><filter style="color-interpolation-filters:sRGB;" inkscape:label="Drop Shadow" id="filter94" x="-0.01882353" y="-0.12" width="1.0376471" height="1.24"><feFlood result="flood" in="SourceGraphic" flood-opacity="0.972549" flood-color="rgb(0,0,0)" id="feFlood92" /><feGaussianBlur result="blur" in="SourceGraphic" stdDeviation="0.400000" id="feGaussianBlur92" /><feOffset result="offset" in="blur" dx="-0.000000" dy="-0.000000" id="feOffset92" /><feComposite result="comp1" operator="in" in="offset" in2="flood" id="feComposite93" /><feComposite result="comp2" operator="over" in="SourceGraphic" in2="comp1" id="feComposite94" /></filter></defs></svg> 