<svg xmlns="http://www.w3.org/2000/svg" xml:space="preserve" stroke-miterlimit="10" style="fill-rule:nonzero;clip-rule:evenodd;stroke-linecap:round;stroke-linejoin:round" width="100%" height="100%" viewBox="0 0 100 100"><defs><linearGradient id="LGBold3a" x1="0" x2="1" y1="0" y2="0" gradientTransform="matrix(-12.2235 70.5679 -38.6936 -18.9615 32.106 20.441)" gradientUnits="userSpaceOnUse"><stop offset="0" stop-color="#f2f2f2" stop-opacity=".8"/><stop offset="1" stop-color="#757575" stop-opacity=".5"/></linearGradient><linearGradient id="LGBold3b" x1="0" x2="1" y1="0" y2="0" gradientTransform="matrix(-12.2235 70.5679 -38.6936 -18.9615 32.106 20.441)" gradientUnits="userSpaceOnUse"><stop offset="0" stop-color="#f2f2f2" stop-opacity=".8"/><stop offset="1" stop-color="#757575" stop-opacity=".5"/></linearGradient><linearGradient id="LGBold3c" x1="0" x2="1" y1="0" y2="0" gradientTransform="matrix(-23.9529 76.9767 -86.6924 -26.976 47.483 1.816)" gradientUnits="userSpaceOnUse"><stop offset="0" stop-color="#f2f2f2"/><stop offset="1" stop-color="#999" stop-opacity="0"/></linearGradient><linearGradient id="LGBold3d" x1="0" x2="1" y1="0" y2="0" gradientTransform="matrix(11.7685 46.9993 -51.1471 7.51997 65.347 54.587)" gradientUnits="userSpaceOnUse"><stop offset="0" stop-color="#f2f2f2"/><stop offset="1" stop-color="#999" stop-opacity="0"/></linearGradient><linearGradient id="LGBold3e" x1="0" x2="1" y1="0" y2="0" gradientTransform="matrix(-26.5448 85.3062 -96.0732 -29.895 49.092 -4.48)" gradientUnits="userSpaceOnUse"><stop offset="0" stop-color="#f2f2f2"/><stop offset="1" stop-color="#999" stop-opacity=".2"/></linearGradient><filter id="FiBold3f" width="19.027" height="12.688" x="23.052" y="54.187" color-interpolation-filters="sRGB" filterUnits="userSpaceOnUse"><feGaussianBlur in="SourceGraphic" result="Blur" stdDeviation="1"/></filter></defs><rect x="0" y="0" width="100" height="100" fill="#00000000"/><path fill="url(#LGBold3a)" d="M28.406 22.75a1.302 1.302 0 0 0-1.312 1.281l-.469 25.032c-.018.65-.044 1.309-.063 1.968-.12 4.407-.198 8.178-.312 12.594 3.571-1.95 8.058-4.273 12.656-6.625.116-2.455.236-5.009.375-8l1.094-24.813a1.328 1.328 0 0 0-1.313-1.375l-10.656-.062Z" opacity=".6"/><path fill="url(#LGBold3b)" d="M38.719 72.906a159.536 159.536 0 0 1-12.813 4.156c-.02.87-.045 2.197-.062 3-.064 2.97-.342 4.726 1.75 6.938 6.006-2.762 10.893-1.13 11.093-8.906.045-1.725.04-3.459.032-5.188Z" opacity=".6"/><path fill="#eee" fill-opacity=".8" d="M52.844 1.625C36.17 2.585 16.7 6.917 7.219 20.031-2.996 34.161-3.282 56.567 22.5 49.688c-2.94-19.537.535-32.854 22.594-38.782 8.766-2.355 30.111-5.573 35.031 5.906 3.95 9.216-10.955 20.838-15.75 24.782C57.42 47.314 47.945 52.376 38.906 57c-4.598 2.352-9.085 4.675-12.656 6.625-.598.326-1.573.78-2.125 1.094 1.979-1.121 5.294-1.908 10.469-2.625 9.79-1.356 20.382-2.74 30.812-2.25 8.621-5.364 16.55-11.577 23.469-18.688 27.716-28.482-5.673-41.28-36.031-39.531Z" opacity=".1"/><path fill="url(#LGBold3c)" d="M52.844 1.625C36.17 2.585 16.7 6.917 7.219 20.031-2.996 34.161-3.282 56.567 22.5 49.688c-2.94-19.537.535-32.854 22.594-38.782 8.766-2.355 30.111-5.573 35.031 5.906 3.95 9.216-10.955 20.838-15.75 24.782C57.42 47.314 47.945 52.376 38.906 57c-4.598 2.352-9.085 4.675-12.656 6.625-.598.326-1.573.78-2.125 1.094 1.979-1.121 5.294-1.908 10.469-2.625 9.79-1.356 20.382-2.74 30.812-2.25 8.621-5.364 16.55-11.577 23.469-18.688 27.716-28.482-5.673-41.28-36.031-39.531Z"/><path fill="url(#LGBold3d)" d="M58.219 59.594c-8.053.261-16.087 1.456-23.625 2.5-5.175.716-8.49 1.504-10.469 2.625-.668.38-1.184.807-1.563 1.281-.184.231-.248.501-.375.75-.142.285-.334.555-.406.875-.23.917-.11 1.914.094 2.906.158.906.525 2.026.875 3.156a329.93 329.93 0 0 1 1.219 3.97c.612-.182 1.316-.405 1.937-.594C36.552 73.82 48.39 69.575 59.97 68.5c2.676-.248 18.6-1.226 17.843 5.688-.76 6.947-20.652 9.639-24.156 10.312-10.226 1.965-21.006 2.252-30.906 5.125-4.244 1.231-3.532 4.062-3.25 6.594 13.216 2.325 25.39 2.244 38.375.094C66.06 94.957 72.501 93.144 80.031 90 94.99 83.752 104.87 70.375 82 62.594c-5.377-1.83-10.961-2.486-16.594-2.75-2.399-.113-4.782-.328-7.187-.25Z"/><path fill="url(#LGBold3e)" d="M39.578 56.687c-5.096 2.607-10.068 5.181-14.026 7.342-.003.121.004.225 0 .346 2.218-.784 5.025-1.459 9.247-2.043 1.516-.21 3.127-.411 4.675-.624.023-.83-.04-1.666 0-2.493.033-.694.068-1.753.104-2.528Z" filter="url(#LGBold3FiBold3f)"/></svg>