<svg xmlns="http://www.w3.org/2000/svg" xmlns:xlink="http://www.w3.org/1999/xlink" xml:space="preserve" stroke-miterlimit="10" style="fill-rule:nonzero;clip-rule:evenodd;stroke-linecap:round;stroke-linejoin:round" viewBox="0 0 100 100"><defs><path id="c" d="M71.353 38.92V11.184h6.41V38.92h-6.41Z" opacity=".1"/><path id="d" d="M71.353 38.92V11.184h6.011c-.965 1.704-1.202 3.73-1.202 5.356v22.382h-4.809Z" opacity=".2"/><path id="e" d="M71.353 11.183h5.612c-1.933 1.275-2.405 3.729-2.405 5.356v22.382h-3.207V11.183Z" opacity=".3"/><path id="f" d="M71.353 11.183h5.215c-2.898.845-3.61 3.73-3.61 5.356v22.382h-1.605V11.183Z" opacity=".4"/></defs><defs><linearGradient id="a" x1="0" x2="1" y1="0" y2="0" gradientTransform="rotate(-42.778 114.658 24.124) scale(93.1422)" gradientUnits="userSpaceOnUse"><stop offset="0" stop-color="#fff" stop-opacity=".4"/><stop offset=".516" stop-color="#ffd000" stop-opacity=".4"/><stop offset="1" stop-color="#ffd300" stop-opacity=".719"/></linearGradient><linearGradient id="b" x1="0" x2="1" y1="0" y2="0" gradientTransform="scale(-112.68253 112.68253) rotate(-87.532 .207 .633)" gradientUnits="userSpaceOnUse"><stop offset="0" stop-color="#ff005b"/><stop offset=".479" stop-color="#ff1a8c"/><stop offset="1" stop-color="#ff01bb"/></linearGradient><linearGradient id="g" x1="0" x2="1" y1="0" y2="0" gradientTransform="rotate(-42.778 114.658 24.124) scale(93.1422)" gradientUnits="userSpaceOnUse"><stop offset="0" stop-color="#fff" stop-opacity=".4"/><stop offset=".516" stop-color="#ffd000" stop-opacity=".4"/><stop offset="1" stop-color="#ffd300" stop-opacity=".719"/></linearGradient></defs><path fill="url(#a)" d="M32.915 38.867h46.984a4.284 4.284 0 0 0 4.272-4.27V16.265a5.162 5.162 0 0 0-5.162-5.162H22.236c3.454 0 6.407 2.454 6.407 6.407v17.085a4.284 4.284 0 0 0 4.272 4.272Z"/><path fill="url(#b)" d="M22.085 11.183h54.517c-3.11 0-5.245 2.4-5.245 5.356v68.079c0 3.34-3.663 5.388-6.508 3.639L45.831 76.564a4.271 4.271 0 0 0-4.474 0L22.339 88.257c-2.847 1.749-6.51-.297-6.51-3.64V17.439a6.256 6.256 0 0 1 6.256-6.255Z"/><g fill="#ff016b"><use xlink:href="#c" opacity=".1"/><use xlink:href="#d" opacity=".2"/><use xlink:href="#e" opacity=".3"/><use xlink:href="#f" opacity=".4"/><use xlink:href="#c" opacity=".1"/><use xlink:href="#d" opacity=".2"/><use xlink:href="#e" opacity=".3"/><use xlink:href="#f" opacity=".4"/></g><g fill="#e8005d" fill-opacity=".839"><path d="M22.236 11.183h54.366c-3.11 0-5.245 2.4-5.245 5.356v28.782H32.915c-5.888 0-10.679-4.786-10.679-10.667 0 0-.006-17.237 0-17.22v-6.251Z" opacity=".05"/><path d="M22.236 11.183h54.366c-3.11 0-5.245 2.4-5.245 5.356v27.715H32.915c-5.299 0-9.61-4.308-9.61-9.602 0 0-.007-17.21 0-17.195 0-.657-.494-6.274-1.069-6.274Z" opacity=".1"/><path d="M22.236 11.183h54.366c-3.11 0-5.245 2.4-5.245 5.356v26.649H32.915c-4.71 0-8.543-3.832-8.543-8.534 0 0-.004-17.182 0-17.169 0-1.317-.985-6.302-2.136-6.302Z" opacity=".2"/><path d="M22.236 11.183h54.366c-3.11 0-5.245 2.4-5.245 5.356V42.12H32.915c-4.118 0-7.475-3.353-7.475-7.468 0 0-.004-17.154 0-17.146 0-1.973-1.478-6.323-3.204-6.323Z" opacity=".3"/><path d="M22.236 11.183h54.366c-3.11 0-5.245 2.4-5.245 5.356v24.515H32.915c-3.528 0-6.407-2.876-6.407-6.4 0 0-.002-17.126 0-17.12 0-2.633-1.97-6.351-4.272-6.351Z" opacity=".4"/><path d="M22.236 11.183h54.366c-3.11 0-5.245 2.4-5.245 5.356v23.448H32.915c-2.939 0-5.34-2.399-5.34-5.335 0 0-.002-17.099 0-17.094 0-3.291-2.462-6.375-5.339-6.375Z" opacity=".5"/></g><path fill="url(#g)" d="M32.915 38.867h46.984a4.284 4.284 0 0 0 4.272-4.27V16.265a5.162 5.162 0 0 0-5.162-5.162H22.236c3.454 0 6.407 2.454 6.407 6.407v17.085a4.284 4.284 0 0 0 4.272 4.272Z" opacity=".818"/></svg>