<svg xmlns="http://www.w3.org/2000/svg" viewBox="0 0 48 48" id="chat"><style>@keyframes Combined-Shape_t{0%,23.4042%{transform:translate(-.073261px,-1.452231px);animation-timing-function:cubic-bezier(0,0,.58,1)}10.6382%{transform:translate(-.073261px,.547769px);animation-timing-function:cubic-bezier(0,0,.58,1)}14.8936%{transform:translate(-.073261px,-3.452231px);animation-timing-function:cubic-bezier(0,0,.58,1)}to{transform:translate(-.073261px,-1.452231px)}}@keyframes a0_t{0%{transform:translate(15.466739px,21.547769px);animation-timing-function:cubic-bezier(.42,0,.58,1)}10.6382%{transform:translate(15.466739px,15.547769px);animation-timing-function:cubic-bezier(.42,0,.58,1)}29.7872%{transform:translate(15.466739px,21.547769px);animation-timing-function:cubic-bezier(0,0,.58,1)}to{transform:translate(15.466739px,21.547769px)}}@keyframes a1_t{0%{transform:translate(24.0762px,21.547769px);animation-timing-function:cubic-bezier(.42,0,.58,1)}10.6382%{transform:translate(24.0762px,15.547769px);animation-timing-function:cubic-bezier(.42,0,.58,1)}29.7872%{transform:translate(24.0762px,21.547769px);animation-timing-function:cubic-bezier(0,0,.58,1)}to{transform:translate(24.0762px,21.547769px)}}@keyframes a2_t{0%{transform:translate(33.25px,21.547769px);animation-timing-function:cubic-bezier(.42,0,.58,1)}10.6382%{transform:translate(33.25px,15.547769px);animation-timing-function:cubic-bezier(.42,0,.58,1)}29.7872%{transform:translate(33.25px,21.547769px);animation-timing-function:cubic-bezier(0,0,.58,1)}to{transform:translate(33.25px,21.547769px)}}</style><g fill="#efefef"><path id="Combined-Shape" d="M7.187 44.766a4 4 0 0 1-4.17-6.352c1.942-2.444 3.295-4.32 4.027-5.552C5.07 29.924 4 26.535 4 23 4 12.454 13.448 4 25 4c11.551 0 21 8.454 21 19s-9.449 19-21 19c-2.807 0-5.54-.5-8.074-1.454-2.63 1.777-5.877 3.18-9.739 4.22zm10.275-8.319A18.78 18.78 0 0 0 25 38c9.435 0 17-6.768 17-15S34.435 8 25 8C15.565 8 8 14.768 8 23c0 3.06 1.04 5.983 2.965 8.461l.716.923-.452 1.077c-.646 1.54-2.317 3.966-5.082 7.443 3.87-1.043 6.97-2.457 9.309-4.221l.934-.706 1.072.47Z" style="animation:Combined-Shape_t 1.567s linear infinite both" transform="translate(-.073 -1.452)"/><circle r="3" fill="#FF2C7F" style="animation:a0_t 1.567s linear .2s infinite both" transform="translate(15.467 21.548)"/><circle r="3" fill="#E8F118" style="animation:a1_t 1.567s linear .3s infinite both" transform="translate(24.076 21.548)"/><circle r="3" fill="#00FFD3" style="animation:a2_t 1.567s linear .4s infinite both" transform="translate(33.25 21.548)"/></g></svg>