<svg width="100%" height="100%" viewBox="-5 -5 110 110" xmlns="http://www.w3.org/2000/svg" xml:space="preserve" stroke-miterlimit="10" style="fill-rule:nonzero;clip-rule:evenodd;stroke-linecap:round;stroke-linejoin:round" version="1.1"><style>@keyframes Combined-Shape_t{0%,23.4042%{transform:translate(-.073261px,-4.452231px);animation-timing-function:cubic-bezier(0,0,.58,1)}10.6382%{transform:translate(-.073261px,4.547769px);animation-timing-function:cubic-bezier(0,0,.58,1)}14.8936%{transform:translate(-.073261px,-12.452231px);animation-timing-function:cubic-bezier(0,0,.58,1)}to{transform:translate(-.073261px,-4.452231px)}}@keyframes a1_t{0%{transform:translate(34.466739px,41.547769px);animation-timing-function:cubic-bezier(.42,0,.58,1)}10.6382%{transform:translate(34.466739px,29.547769px);animation-timing-function:cubic-bezier(.42,0,.58,1)}29.7872%{transform:translate(34.466739px,41.547769px);animation-timing-function:cubic-bezier(0,0,.58,1)}to{transform:translate(34.466739px,41.547769px)}}@keyframes a2_t{0%{transform:translate(52.0762px,41.547769px);animation-timing-function:cubic-bezier(.42,0,.58,1)}10.6382%{transform:translate(52.0762px,29.547769px);animation-timing-function:cubic-bezier(.42,0,.58,1)}29.7872%{transform:translate(52.0762px,41.547769px);animation-timing-function:cubic-bezier(0,0,.58,1)}to{transform:translate(52.0762px,41.547769px)}}@keyframes a3_t{0%{transform:translate(70.25px,41.547769px);animation-timing-function:cubic-bezier(.42,0,.58,1)}10.6382%{transform:translate(70.25px,15.547769px);animation-timing-function:cubic-bezier(.42,0,.58,1)}29.7872%{transform:translate(70.25px,41.547769px);animation-timing-function:cubic-bezier(0,0,.58,1)}to{transform:translate(70.25px,41.547769px)}}</style><rect x="-10" y="-10" width="120" height="120" fill="#00000000"/><g fill="#efefef"><g transform="translate(-.073 4)"><path id="Combined-Shape" d="M11.8759 95.8613C8.1109 96.874 4.12106 95.3559 1.98139 92.0967C-0.158278 88.8374 0.035425 84.5729 2.46176 81.521C6.84601 76.0035 9.90054 71.7682 11.5531 68.9869C7.09661 62.3541 4.68098 54.7031 4.68098 46.7225C4.68098 22.9139 26.0107 3.82815 52.0905 3.82815C78.168 3.82815 99.5 22.9139 99.5 46.7225C99.5 70.5311 78.168 89.6168 52.0905 89.6168C45.7534 89.6168 39.5834 88.488 33.8627 86.3342C27.9252 90.346 20.5948 93.5134 11.8759 95.8613ZM35.0727 77.0804C40.4425 79.4113 46.2367 80.6051 52.0905 80.5864C73.3909 80.5864 90.4696 65.307 90.4696 46.7225C90.4696 28.1379 73.3909 12.8585 52.0905 12.8585C30.7901 12.8585 13.7114 28.1379 13.7114 46.7225C13.7114 53.6307 16.0593 60.2297 20.4051 65.824L22.0216 67.9077L21.0011 70.3392C19.5427 73.8159 15.7703 79.2928 9.52804 87.1425C18.2649 84.7878 25.2635 81.5955 30.544 77.6131L32.6526 76.0193C32.6526 76.0193 35.0727 77.0804 35.0727 77.0804Z" style="animation:Combined-Shape_t 1.567s linear infinite both"/></g><g fill-rule="nonzero" stroke="none" transform="translate(-.073 4)"><circle r="6.775" fill="#FF2C7F" style="animation:a1_t 1.567s linear .2s infinite both"/><circle r="6.775" fill="#E8F118" style="animation:a2_t 1.567s linear .3s infinite both"/><circle r="6.775" fill="#00FFD3" style="animation:a3_t 1.567s linear .4s infinite both"/></g></g></svg>