<?xml version="1.0" encoding="UTF-8" standalone="no"?>
<!DOCTYPE svg PUBLIC "-//W3C//DTD SVG 1.1//EN" "http://www.w3.org/Graphics/SVG/1.1/DTD/svg11.dtd">
<!-- Created with Vectornator (http://vectornator.io/) -->
<svg height="100%" stroke-miterlimit="10" style="fill-rule:nonzero;clip-rule:evenodd;stroke-linecap:round;stroke-linejoin:round;" version="1.1" viewBox="0 0 700 700" width="100%" xml:space="preserve" xmlns="http://www.w3.org/2000/svg" xmlns:vectornator="http://vectornator.io" xmlns:xlink="http://www.w3.org/1999/xlink">
<defs>
<linearGradient gradientTransform="matrix(399.634 589.568 -589.568 399.634 181.525 48.0675)" gradientUnits="userSpaceOnUse" id="LinearGradient" x1="0" x2="1" y1="0" y2="0">
<stop offset="0" stop-color="#ffffff"/>
<stop offset="1" stop-color="#999999" stop-opacity="0.7"/>
</linearGradient>
<linearGradient gradientTransform="matrix(399.634 589.568 -589.568 399.634 181.525 48.0675)" gradientUnits="userSpaceOnUse" id="LinearGradient_2" x1="0" x2="1" y1="0" y2="0">
<stop offset="0" stop-color="#ffffff"/>
<stop offset="1" stop-color="#999999" stop-opacity="0.7"/>
</linearGradient>
<linearGradient gradientTransform="matrix(331.475 537.967 -537.967 331.475 249.684 99.6683)" gradientUnits="userSpaceOnUse" id="LinearGradient_3" x1="0" x2="1" y1="0" y2="0">
<stop offset="0" stop-color="#ffffff"/>
<stop offset="1" stop-color="#888888" stop-opacity="0.295608"/>
</linearGradient>
<radialGradient cx="0" cy="0" gradientTransform="matrix(341.714 276.53 -249.055 377.422 265.842 191.178)" gradientUnits="userSpaceOnUse" id="RadialGradient" r="1">
<stop offset="0.164474" stop-color="#ffffff"/>
<stop offset="0.371053" stop-color="#ffffff" stop-opacity="0.812847"/>
<stop offset="0.502632" stop-color="#ffffff" stop-opacity="0.623859"/>
<stop offset="1" stop-color="#ffffff" stop-opacity="0"/>
</radialGradient>
<filter color-interpolation-filters="sRGB" filterUnits="userSpaceOnUse" height="694.302" id="Filter" width="830.215" x="-71.186" y="-19.3467">
<feDropShadow dx="-4.88641" dy="18.9383" flood-color="#000000" flood-opacity="0.29" in="SourceGraphic" result="Shadow" stdDeviation="27.6795"/>
</filter>
</defs>
<g id="Layer">
<g opacity="0.8">
<path d="M318.176 586.445C320.217 586.649 322.257 586.802 324.298 586.904C326.339 587.006 328.277 587.057 330.113 587.057C374.189 587.057 415.101 582.364 452.851 572.978C490.6 563.591 524.524 550.379 554.622 533.341C584.719 516.302 610.379 496.152 631.6 472.89C652.822 449.628 669.044 424.173 680.267 396.524C691.489 368.875 697.101 339.746 697.101 309.139C697.101 270.573 688.174 234.507 670.319 200.94C652.465 167.374 627.672 137.837 595.942 112.331C564.212 86.8241 527.33 66.878 485.295 52.4924C443.26 38.1067 398.165 30.9139 350.009 30.9139C301.852 30.9139 256.757 38.1067 214.722 52.4924C172.687 66.878 135.805 86.8241 104.075 112.331C72.3449 137.837 47.5525 167.374 29.698 200.94C11.8434 234.507 2.91618 270.573 2.91618 309.139C2.91618 341.787 9.2928 372.854 22.046 402.339C34.7993 431.825 53.0619 458.709 76.834 482.991C100.606 507.273 128.816 528.188 161.465 545.737C243.779 578.694 290.247 583.199 318.176 586.445Z" fill="url(#LinearGradient)" fill-rule="nonzero" opacity="0.517677" stroke="none"/>
<path d="M124.123 669.086C133.305 669.086 145.344 666.842 160.24 662.353C175.136 657.863 191.205 651.895 208.447 644.447C225.69 636.999 242.728 628.684 259.563 619.502C276.397 610.319 291.344 601.137 304.403 591.955C307.056 589.914 309.504 588.486 311.749 587.67C313.993 586.853 316.136 586.445 318.176 586.445C320.217 586.649 322.257 586.802 324.298 586.904C326.339 587.006 328.277 587.057 330.113 587.057C374.189 587.057 415.101 582.364 452.851 572.978C490.6 563.591 524.524 550.379 554.622 533.341C584.719 516.302 610.379 496.152 631.6 472.89C652.822 449.628 669.044 424.173 680.267 396.524C691.489 368.875 697.101 339.746 697.101 309.139C697.101 270.573 688.174 234.507 670.319 200.94C652.465 167.374 627.672 137.837 595.942 112.331C564.212 86.8241 527.33 66.878 485.295 52.4924C443.26 38.1067 398.165 30.9139 350.009 30.9139C301.852 30.9139 256.757 38.1067 214.722 52.4924C172.687 66.878 135.805 86.8241 104.075 112.331C72.3449 137.837 47.5525 167.374 29.698 200.94C11.8434 234.507 2.91618 270.573 2.91618 309.139C2.91618 341.787 9.2928 372.854 22.046 402.339C34.7993 431.825 53.0619 458.709 76.834 482.991C100.606 507.273 128.816 528.188 161.465 545.737C163.709 546.961 165.188 548.645 165.903 550.787C166.617 552.93 166.362 555.225 165.137 557.674C159.424 567.06 152.69 576.702 144.936 586.598C137.182 596.495 129.683 605.728 122.44 614.298C115.196 622.869 109.635 629.704 105.758 634.806C99.8408 642.356 98.4635 649.956 101.626 657.608C104.789 665.26 112.288 669.086 124.123 669.086Z" fill="url(#LinearGradient_2)" fill-rule="nonzero" opacity="0" stroke="none"/>
<path d="M124.123 669.086C133.305 669.086 145.344 666.842 160.24 662.353C175.136 657.863 191.205 651.895 208.447 644.447C225.69 636.999 242.728 628.684 259.563 619.502C276.397 610.319 291.344 601.137 304.403 591.955C307.056 589.914 309.504 588.486 311.749 587.67C313.993 586.853 316.136 586.445 318.176 586.445C320.217 586.649 322.257 586.802 324.298 586.904C326.339 587.006 328.277 587.057 330.113 587.057C374.189 587.057 415.101 582.364 452.851 572.978C490.6 563.591 524.524 550.379 554.622 533.341C584.719 516.302 610.379 496.152 631.6 472.89C652.822 449.628 669.044 424.173 680.267 396.524C691.489 368.875 697.101 339.746 697.101 309.139C697.101 270.573 688.174 234.507 670.319 200.94C652.465 167.374 627.672 137.837 595.942 112.331C564.212 86.8241 527.33 66.878 485.295 52.4924C443.26 38.1067 398.165 30.9139 350.009 30.9139C301.852 30.9139 256.757 38.1067 214.722 52.4924C172.687 66.878 135.805 86.8241 104.075 112.331C72.3449 137.837 47.5525 167.374 29.698 200.94C11.8434 234.507 2.91618 270.573 2.91618 309.139C2.91618 341.787 9.2928 372.854 22.046 402.339C34.7993 431.825 53.0619 458.709 76.834 482.991C100.606 507.273 128.816 528.188 161.465 545.737C163.709 546.961 165.188 548.645 165.903 550.787C166.617 552.93 166.362 555.225 165.137 557.674C159.424 567.06 152.69 576.702 144.936 586.598C137.182 596.495 129.683 605.728 122.44 614.298C115.196 622.869 109.635 629.704 105.758 634.806C99.8408 642.356 98.4635 649.956 101.626 657.608C104.789 665.26 112.288 669.086 124.123 669.086Z" fill="url(#LinearGradient_3)" fill-rule="nonzero" opacity="0.864428" stroke="none"/>
<path d="M2.91649 313.135C1.02185 159.645 154.347 33.3052 345.378 30.9472C536.408 28.5891 692.805 151.106 694.7 304.596C696.594 458.086 543.269 584.426 352.239 586.784C161.208 589.142 4.81114 466.626 2.91649 313.135Z" fill="url(#RadialGradient)" fill-rule="nonzero" filter="url(#Filter)" stroke="none"/>
</g>
</g>
</svg>
