<svg viewBox="0 0 100 100" width="100%" height="100%" xmlns="http://www.w3.org/2000/svg" xmlns:xlink="http://www.w3.org/1999/xlink" xml:space="preserve" stroke-miterlimit="10" style="fill-rule:nonzero;clip-rule:evenodd;stroke-linecap:round;stroke-linejoin:round"><defs><linearGradient id="LG" gradientTransform="matrix(-94.5409 -99.6271 99.6271 -94.5409 94.9969 121.504)" gradientUnits="userSpaceOnUse" x1="0" x2="1" y1="0" y2="0"><stop offset="0" stop-color="#bf200a" stop-opacity="0.9"/><stop offset="0.209211" stop-color="#d92929" stop-opacity="0.96"/><stop offset="0.535526" stop-color="#d62b4b"/><stop offset="0.794" stop-color="#d42c60"/><stop offset="0.980263" stop-color="#d42c67"/><stop offset="1" stop-color="#d42c67"/></linearGradient><linearGradient id="LG_2" gradientTransform="matrix(38.5987 -38.4405 -65.0378 -64.8984 43.513 64.9184)" gradientUnits="userSpaceOnUse" x1="0" x2="1" y1="0" y2="0"><stop offset="0" stop-color="#fffafa" stop-opacity="0.25"/><stop offset="1" stop-color="#fff" stop-opacity="0.9"/></linearGradient><linearGradient id="LG_3" gradientTransform="matrix(38.5987 -38.4405 -65.0378 -64.8984 43.513 64.9184)" gradientUnits="userSpaceOnUse" x1="0" x2="1" y1="0" y2="0"><stop offset="0" stop-color="#fffafa" stop-opacity="0.25"/><stop offset="1" stop-color="#fff" stop-opacity="0.9"/></linearGradient><linearGradient id="LG_4" gradientTransform="matrix(109.84 -128.268 -209.692 -191.836 4.04297 127.243)" gradientUnits="userSpaceOnUse" x1="0" x2="1" y1="0" y2="0"><stop offset="0" stop-color="#fffafa" stop-opacity="0.65"/><stop offset="1" stop-color="#fff" stop-opacity="0.8"/></linearGradient><linearGradient id="LG_5" gradientTransform="matrix(109.84 -128.268 -209.692 -191.836 4.04297 127.243)" gradientUnits="userSpaceOnUse" x1="0" x2="1" y1="0" y2="0"><stop offset="0" stop-color="#fffafa" stop-opacity="0.65"/><stop offset="1" stop-color="#fff" stop-opacity="0.8"/></linearGradient><linearGradient id="LG_6" gradientTransform="matrix(-35.5262 -35.7491 -32.882 32.7699 76.2791 68.4116)" gradientUnits="userSpaceOnUse" x1="0" x2="1" y1="0" y2="0"><stop offset="0" stop-color="#bbb7b7" stop-opacity="0.8"/><stop offset="1" stop-color="#fff"/></linearGradient><linearGradient id="LG_7" gradientTransform="matrix(34.9398 -35.3842 -60.4399 -59.7758 41.5578 70.9602)" gradientUnits="userSpaceOnUse" x1="0" x2="1" y1="0" y2="0"><stop offset="0" stop-color="#fffafa" stop-opacity="0.5"/><stop offset="1" stop-color="#fff" stop-opacity="0.8"/></linearGradient><filter id="Fi" color-interpolation-filters="sRGB" filterUnits="userSpaceOnUse" height="25.3431" width="25.3431" x="46.5429" y="37.5678"><feGaussianBlur in="SourceGraphic" result="Blur" stdDeviation="1.53072"/></filter><linearGradient id="LG_8" gradientTransform="matrix(34.9398 -35.3842 -60.4399 -59.7758 41.5578 70.9602)" gradientUnits="userSpaceOnUse" x1="0" x2="1" y1="0" y2="0"><stop offset="0" stop-color="#fffafa" stop-opacity="0.5"/><stop offset="1" stop-color="#fff" stop-opacity="0.8"/></linearGradient><filter id="Fi_2" color-interpolation-filters="sRGB" filterUnits="userSpaceOnUse" height="25.3431" width="25.3431" x="46.5429" y="37.5678"><feGaussianBlur in="SourceGraphic" result="Blur" stdDeviation="1.53072"/></filter></defs><g id="backspace" fill-rule="nonzero" stroke="none"><g opacity="1"><g opacity="1"><path fill="url(#LG)" d="M34.7522 18.1786C32.0509 18.1786 29.4591 19.1985 27.4914 21.0513L3.08865 44.0335C1.44631 45.5803 0.5 47.7442 0.5 50C0.5 52.2558 1.44631 54.4196 3.08865 55.9665L27.4914 78.9487C29.4591 80.8014 32.0508 81.8214 34.7522 81.8214L94.1964 81.8214C97.1258 81.8214 99.5 79.4471 99.5 76.5179L99.5 23.4821C99.5 20.5529 97.1258 18.1786 94.1964 18.1786L34.7522 18.1786ZM73.0137 30.522C74.5545 30.4587 76.0517 31.0029 77.1808 32.132C79.439 34.3902 79.2852 38.2355 76.8335 40.6872L67.3313 50.1894L76.8335 59.6601C79.2852 62.1117 79.439 65.957 77.1808 68.2152C74.9226 70.4734 71.1089 70.3196 68.6572 67.868L59.155 58.3658L49.6527 67.868C47.2011 70.3196 43.3874 70.4419 41.1291 68.1837C38.8709 65.9255 39.0248 62.1117 41.4764 59.6601L50.9786 50.1894L41.4764 40.6872C39.0248 38.2355 38.8709 34.4218 41.1291 32.1636C42.2582 31.0345 43.7489 30.4968 45.2962 30.5536C46.8436 30.6103 48.4269 31.2535 49.6527 32.4793L59.155 41.9815L68.6572 32.4793C69.883 31.2535 71.4729 30.5853 73.0137 30.522Z"/></g><g opacity="1"><path fill="url(#LG_2)" d="M50.9641 50.1798L41.4686 59.6753C39.017 62.127 38.8722 65.922 41.1304 68.1802C43.3886 70.4384 47.2078 70.3177 49.6594 67.8661L59.1549 58.3706L50.9641 50.1798Z"/><path fill="url(#LG_3)" opacity="0.8" d="M72.9995 30.5365C71.4587 30.5998 69.8762 31.2678 68.6504 32.4936L59.1549 41.9891L67.3457 50.1798L76.8411 40.6843C79.2928 38.2327 79.4376 34.3894 77.1794 32.1312C76.0503 31.0021 74.5402 30.4732 72.9995 30.5365Z"/><g opacity="0.7"><path fill="url(#LG_4)" opacity="0.8" d="M50.9641 50.1798L41.4686 59.6753C39.017 62.127 38.8722 65.922 41.1304 68.1802C43.3886 70.4384 47.2078 70.3177 49.6594 67.8661L59.1549 58.3706L50.9641 50.1798Z"/><path fill="url(#LG_5)" opacity="0.9" d="M72.9995 30.5365C71.4587 30.5998 69.8762 31.2678 68.6504 32.4936L59.1549 41.9891L67.3457 50.1798L76.8411 40.6843C79.2928 38.2327 79.4376 34.3894 77.1794 32.1312C76.0503 31.0021 74.5402 30.4732 72.9995 30.5365Z"/></g><path fill="url(#LG_6)" d="M45.3103 30.5607C43.763 30.5039 42.2595 31.0262 41.1304 32.1553C38.8722 34.4135 39.017 38.2327 41.4686 40.6843L50.9641 50.1798L59.1549 58.3706L68.6504 67.8661C71.102 70.3177 74.9212 70.4625 77.1794 68.2043C79.4376 65.9461 79.2928 62.127 76.8411 59.6753L67.3457 50.1798L59.1549 41.9891L49.6594 32.4936C48.4336 31.2678 46.8577 30.6174 45.3103 30.5607Z"/><path fill="url(#LG_7)" filter="url(#Fi)" opacity="0.4" d="M59.1549 41.3946L50.3697 50.1798L59.274 59.0841L68.0592 50.2989L59.1549 41.3946Z"/><path fill="url(#LG_8)" filter="url(#Fi_2)" opacity="0.466281" d="M59.1549 41.3946L50.3697 50.1798L59.274 59.0841L68.0592 50.2989L59.1549 41.3946Z"/></g></g></g></svg>