<svg xmlns="http://www.w3.org/2000/svg" xmlns:xlink="http://www.w3.org/1999/xlink" style="fill-rule:nonzero;clip-rule:evenodd;stroke-linecap:round;stroke-linejoin:round" width="100%" height="100%" stroke-miterlimit="10" viewBox="0 0 100 100" xml:space="preserve"><style>@keyframes paper_t{0%{transform:translate(24px,0) scale(1,1) translate(-24px,0);animation-timing-function:cubic-bezier(.42,0,.58,1)}25%{transform:translate(24px,0) scale(1,1) translate(-24px,-2px);animation-timing-function:cubic-bezier(.42,0,.58,1)}50%{transform:translate(24px,2px) scale(1,1) translate(-24px,0);animation-timing-function:cubic-bezier(.42,0,.58,1)}75%{transform:translate(24px,-2px) scale(1,1) translate(-24px,0);animation-timing-function:cubic-bezier(.42,0,.58,1)}82%{transform:translate(24px,2px) scale(1,1) translate(-24px,1px);animation-timing-function:cubic-bezier(.42,0,.58,1)}}@keyframes lines_t{0%{transform:translate(24px,0) scale(1,1) translate(-24px,0);animation-timing-function:cubic-bezier(.42,0,.58,1)}25%{transform:translate(24px,0) scale(1,1) translate(-24px,-1px);animation-timing-function:cubic-bezier(.42,0,.58,1)}50%{transform:translate(24px,1px) scale(1,1) translate(-24px,0);animation-timing-function:cubic-bezier(.42,0,.58,1)}75%{transform:translate(24px,-1px) scale(1,1) translate(-24px,0);animation-timing-function:cubic-bezier(.42,0,.58,1)}82%{transform:translate(24px,1px) scale(1,1) translate(-24px,1px);animation-timing-function:cubic-bezier(.42,0,.58,1)}}@keyframes top_do{0%,85%{stroke-dashoffset:8px}6.6667%,83.3333%{stroke-dashoffset:0}}@keyframes middle_do{0%,10%,85%{stroke-dashoffset:12px}26.6667%,83.3333%{stroke-dashoffset:0}}@keyframes bottom_do{0%,26.6667%,85%{stroke-dashoffset:8px}38.3333%,83.3333%{stroke-dashoffset:0}}</style><g><g id="note-glyph" transform="matrix(2.0315789,0,0,2.0315789,1.2421064,1.2421064)"><g id="note-glyph" opacity="1"><path style="animation:paper_t 2s linear infinite both" id="note-glyph" fill="#fff" d="M14,4L28.8284,4L40,15.1716L40,38C40,41.3137,37.3137,44,34,44L14,44C10.6863,44,8,41.3137,8,38L8,10C8,6.68629,10.6863,4,14,4zM28,8.82843L27.1716,8L14,8C12.8954,8,12,8.89543,12,10L12,38C12,39.1046,12.8954,40,14,40L34,40C35.1046,40,36,39.1046,36,38L36,16.8284L35.1716,16L30,16C28.8954,16,28,15.1046,28,14L28,8.82843Z" transform="translate(12,12) translate(-12,0)"/></g><g style="animation:lines_t 2s linear infinite both"><g fill="none" stroke-linecap="round" stroke-linejoin="round" stroke-width="4"><path style="animation:top_do 2s linear infinite both" stroke="#f0f" stroke-dasharray="8 8" stroke-dashoffset="8" d="M0,0L8,0" repeatCount="indefinite" transform="translate(12,12) translate(-12,0) translate(-1, 0) translate(16,16) translate(2,0)"/><path style="animation:middle_do 2s linear infinite both" stroke="#ffea00" stroke-dasharray="12 12" stroke-dashoffset="12" d="M0,0L12,0" repeatCount="indefinite" transform="translate(12,12) translate(-12,0) translate(-1, 0) translate(16,24) translate(2,0)"/><path style="animation:bottom_do 2s linear infinite both" stroke="#D5004A" stroke-dasharray="8 8" stroke-dashoffset="8" d="M0,0L8,0" repeatCount="indefinite" transform="translate(12,12) translate(-12,0) translate(-1, 0) translate(16,32) translate(2,0)"/></g></g></g></g></svg>