<svg width="100%" height="100%" viewBox="0 0 100 100" xmlns="http://www.w3.org/2000/svg" xmlns:xlink="http://www.w3.org/1999/xlink" xml:space="preserve">
<defs><linearGradient id="LGdl1" x1="0" x2="1" y1="0" y2="0" gradientTransform="matrix(1.15377 43.7493 -45.5369 -.3993 50.027 23.779)" gradientUnits="userSpaceOnUse"><stop offset="0" stop-color="#fff" stop-opacity=".9"/><stop offset=".997" stop-color="#b3b3b3" stop-opacity=".3"/></linearGradient><linearGradient id="LGdl2" x1="0" x2="1" y1="0" y2="0" gradientTransform="matrix(-19.749 18.5954 13.363 14.5833 67.538 50.577)" gradientUnits="userSpaceOnUse"><stop offset="0" stop-color="#fff"/><stop offset="1" stop-color="#b3b3b3" stop-opacity=".6"/></linearGradient><linearGradient id="LGdl3" x1="0" x2="1" y1="0" y2="0" gradientTransform="matrix(-19.749 18.5954 13.363 14.5833 67.538 50.577)" gradientUnits="userSpaceOnUse"><stop offset="0" stop-color="#fff" stop-opacity=".92"/><stop offset=".57" stop-color="#efefef" stop-opacity=".7"/><stop offset="1" stop-color="#b3b3b3" stop-opacity="0"/></linearGradient><linearGradient id="LGdl4" x1="0" x2="1" y1="0" y2="0" gradientTransform="matrix(-17.6437 -17.6913 -13.0735 12.6895 47.405 64.237)" gradientUnits="userSpaceOnUse"><stop offset="0" stop-color="#fff"/><stop offset="1" stop-color="#b3b3b3" stop-opacity=".6"/></linearGradient><linearGradient id="LGdl5" x1="0" x2="1" y1="0" y2="0" gradientTransform="matrix(-.89247 -69.9953 -48.2198 1.06238 33.043 96.797)" gradientUnits="userSpaceOnUse"><stop offset="0" stop-color="#fff"/><stop offset=".666" stop-color="#b3b3b3" stop-opacity=".4"/><stop offset="1" stop-color="#b3b3b3" stop-opacity=".2"/></linearGradient><linearGradient id="LGDLg" x1="0" x2="1" y1="0" y2="0" gradientTransform="matrix(-.89247 -69.9953 -48.2198 1.06238 33.043 96.797)" gradientUnits="userSpaceOnUse"><stop offset="0" stop-color="#fff"/><stop offset=".666" stop-color="#b3b3b3" stop-opacity=".4"/><stop offset="1" stop-color="#b3b3b3" stop-opacity=".2"/></linearGradient><filter id="Fidlf" width="71.557" height="75.87" x="14.222" y="24.811" color-interpolation-filters="sRGB" filterUnits="userSpaceOnUse"><feComponentTransfer in="SourceGraphic" result="Alpha"><feFuncA slope=".3" type="linear"/></feComponentTransfer><feDropShadow dx="0" dy="0" flood-color="#fff" flood-opacity=".2" in="Alpha" result="Shadow" stdDeviation=".5"/></filter><filter id="Fidlh" width="74.057" height="78.37" x="12.972" y="23.561" color-interpolation-filters="sRGB" filterUnits="userSpaceOnUse"><feComponentTransfer in="SourceGraphic" result="Alpha"><feFuncA slope=".4" type="linear"/></feComponentTransfer><feDropShadow dx="0" dy="0" flood-color="#fff" flood-opacity=".4" in="Alpha" result="Shadow" stdDeviation="1"/></filter></defs>
<path fill="url(#LGdl1)" d="M50 .569c-2.94 0-5.313 2.404-5.313 5.343V54.131L50 59.413l5.313-5.282V5.912C55.313 2.972 52.94.57 50 .57Z" opacity=".7"/><path fill="url(#LGdl3)" d="M66.457 45.13a4.963 4.963 0 0 0-3.492 1.44l-7.642 7.572-8.215 8.13c-.164.163-.24.367-.377.546-1.49 1.945-1.413 4.708.377 6.482a4.956 4.956 0 0 0 6.971 0l15.857-15.703a4.944 4.944 0 0 0 0-7.027 4.93 4.93 0 0 0-3.479-1.44Z" opacity=".7"/><path fill="url(#LGdl4)" d="M33.557 45.145c-1.26 0-2.529.47-3.493 1.425a4.944 4.944 0 0 0 0 7.027l16.932 16.779a4.956 4.956 0 0 0 6.972 0 4.944 4.944 0 0 0 0-7.028L50 59.409l-5.323-5.266-7.642-7.572a4.916 4.916 0 0 0-3.478-1.425Z"/><path fill="url(#LGdl5)" d="M27.685 26.061c-4.072 0-7.132 1.198-9.168 3.57-2.036 2.372-3.045 5.933-3.045 10.677v44.877c0 4.743 1.01 8.305 3.045 10.677 2.036 2.372 5.096 3.57 9.168 3.57h44.63c4.072 0 7.132-1.183 9.168-3.57 2.036-2.387 3.045-5.964 3.045-10.677V40.308c0-4.713-1.01-8.258-3.045-10.645-2.036-2.388-5.096-3.602-9.167-3.602H27.685Z" filter="url(#Fidlf)"/><path fill="url(#LGDLg)" d="M27.685 26.061c-4.072 0-7.132 1.198-9.168 3.57-2.036 2.372-3.045 5.933-3.045 10.677v44.877c0 4.743 1.01 8.305 3.045 10.677 2.036 2.372 5.096 3.57 9.168 3.57h44.63c4.072 0 7.132-1.183 9.168-3.57 2.036-2.387 3.045-5.964 3.045-10.677V40.308c0-4.713-1.01-8.258-3.045-10.645-2.036-2.388-5.096-3.602-9.167-3.602H27.685Z" filter="url(#Fidlh)"/></svg>