<svg width="100%" height="100%" xmlns="http://www.w3.org/2000/svg" xmlns:xlink="http://www.w3.org/1999/xlink" viewBox="0 0 48 48" ><defs><style>.cls-1 {fill: url(#linear-gradient-2);} .cls-2 {fill: url(#linear-gradient-51);} .cls-3 {fill: url(#linear-gradient-17);} .cls-4 {fill: url(#linear-gradient-43);} .cls-5 {fill: url(#linear-gradient-15);} .cls-6 {fill: url(#linear-gradient-58);} .cls-7 {fill: url(#linear-gradient-18);} .cls-8 {fill: url(#linear-gradient-56);} .cls-9 {fill: url(#linear-gradient-40);} .cls-10 {fill: url(#linear-gradient-52);} .cls-11 {fill: url(#linear-gradient-28);} .cls-12 {fill: url(#linear-gradient-14);} .cls-13 {fill: url(#linear-gradient-36);} .cls-14 {fill: url(#linear-gradient-20);} .cls-15 {fill: url(#linear-gradient-6);} .cls-16 {fill: url(#linear-gradient-53);} .cls-17 {fill: url(#linear-gradient-60);} .cls-18 {fill: url(#linear-gradient-35);} .cls-19 {fill: url(#linear-gradient-48);} .cls-20 {fill: url(#linear-gradient-32);} .cls-21 {fill: url(#linear-gradient-11);} .cls-22 {fill: url(#linear-gradient-50);} .cls-23 {fill: url(#linear-gradient-39);} .cls-24 {fill: url(#linear-gradient-10);} .cls-25 {fill: url(#linear-gradient-59);} .cls-26 {fill: url(#linear-gradient-49);} .cls-27 {fill: url(#linear-gradient-37);} .cls-28 {fill: url(#linear-gradient-16);} .cls-29 {fill: url(#linear-gradient-31);} .cls-30 {fill: url(#linear-gradient-41);} .cls-31 {fill: url(#linear-gradient-21);} .cls-32 {fill: url(#linear-gradient-25);} .cls-33 {fill: url(#linear-gradient-5);} .cls-34 {fill: url(#linear-gradient-54);} .cls-35 {fill: url(#linear-gradient-45);} .cls-36 {fill: url(#linear-gradient-55);} .cls-37 {fill: url(#linear-gradient-34);} .cls-38 {fill: url(#linear-gradient-7);} .cls-39 {fill: url(#linear-gradient-24);} .cls-40 {fill: url(#linear-gradient-9);} .cls-41 {fill: url(#linear-gradient-22);} .cls-42 {fill: url(#linear-gradient-42);} .cls-43 {fill: url(#linear-gradient-3);} .cls-44 {fill: url(#linear-gradient);} .cls-45 {fill: url(#linear-gradient-27);} .cls-46 {fill: url(#linear-gradient-33);} .cls-47 {fill: url(#linear-gradient-38);} .cls-48 {fill: url(#linear-gradient-29);} .cls-49 {fill: url(#linear-gradient-30);} .cls-50 {fill: url(#linear-gradient-23);} .cls-51 {fill: url(#linear-gradient-19);} .cls-52 {fill: url(#linear-gradient-4);} .cls-53 {fill: url(#linear-gradient-8);} .cls-54 {fill: url(#linear-gradient-44);} .cls-55 {fill: url(#linear-gradient-57);} .cls-56 {fill: url(#linear-gradient-47);} .cls-57 {fill: url(#linear-gradient-46);} .cls-58 {fill: url(#linear-gradient-12);} .cls-59 {fill: url(#linear-gradient-13);} .cls-60 {fill: url(#linear-gradient-26);}</style><linearGradient id="linear-gradient" x1="24" y1="15.36" x2="24" y2="35.84" gradientUnits="userSpaceOnUse"><stop offset="0" stop-color="#f2fcff"/><stop offset=".55" stop-color="#c1f3f9"/><stop offset=".97" stop-color="#baccfd"/></linearGradient><linearGradient id="linear-gradient-2" x1="24" y1="14.97" x2="24" y2="36.41" gradientUnits="userSpaceOnUse"><stop offset="0" stop-color="#effbff"/><stop offset=".55" stop-color="#b3f0f8"/><stop offset=".97" stop-color="#abc1fd"/></linearGradient><linearGradient id="linear-gradient-3" x1="24" y1="14.61" x2="24" y2="36.96" gradientUnits="userSpaceOnUse"><stop offset="0" stop-color="#ecfbff"/><stop offset=".55" stop-color="#a5edf7"/><stop offset=".97" stop-color="#9bb5fc"/></linearGradient><linearGradient id="linear-gradient-4" x1="24" y1="14.27" x2="24" y2="37.48" gradientUnits="userSpaceOnUse"><stop offset="0" stop-color="#eafaff"/><stop offset=".55" stop-color="#98ebf5"/><stop offset=".97" stop-color="#8caafc"/></linearGradient><linearGradient id="linear-gradient-5" x1="24" y1="13.97" x2="24" y2="37.97" gradientUnits="userSpaceOnUse"><stop offset="0" stop-color="#e7f9ff"/><stop offset=".55" stop-color="#8ae8f4"/><stop offset=".97" stop-color="#7c9ffc"/></linearGradient><linearGradient id="linear-gradient-6" x1="24" y1="13.69" x2="24" y2="38.43" gradientUnits="userSpaceOnUse"><stop offset="0" stop-color="#e4f9fe"/><stop offset=".55" stop-color="#7ce5f3"/><stop offset=".97" stop-color="#6d93fb"/></linearGradient><linearGradient id="linear-gradient-7" x1="24" y1="13.44" x2="24" y2="38.86" gradientUnits="userSpaceOnUse"><stop offset="0" stop-color="#e1f8fe"/><stop offset=".55" stop-color="#6ee2f2"/><stop offset=".97" stop-color="#5d88fb"/></linearGradient><linearGradient id="linear-gradient-8" x1="24" y1="13.21" x2="24" y2="39.26" gradientUnits="userSpaceOnUse"><stop offset="0" stop-color="#dff7fe"/><stop offset=".55" stop-color="#61e0f0"/><stop offset=".97" stop-color="#4e7dfb"/></linearGradient><linearGradient id="linear-gradient-9" x1="24" y1="13.02" x2="24" y2="39.63" gradientUnits="userSpaceOnUse"><stop offset="0" stop-color="#dcf7fe"/><stop offset=".55" stop-color="#53ddef"/><stop offset=".97" stop-color="#3e71fa"/></linearGradient><linearGradient id="linear-gradient-10" x1="24" y1="12.85" x2="24" y2="39.98" gradientUnits="userSpaceOnUse"><stop offset="0" stop-color="#d9f6fe"/><stop offset=".55" stop-color="#45daee"/><stop offset=".97" stop-color="#2f66fa"/></linearGradient><linearGradient id="linear-gradient-11" x1="24" y1="4.68" x2="24" y2="19.5" xlink:href="#linear-gradient"/><linearGradient id="linear-gradient-12" x1="24" y1="4.39" x2="24" y2="19.65" xlink:href="#linear-gradient-2"/><linearGradient id="linear-gradient-13" x1="24" y1="4.12" x2="24" y2="19.79" xlink:href="#linear-gradient-3"/><linearGradient id="linear-gradient-14" x1="24" y1="3.87" x2="24" y2="19.93" xlink:href="#linear-gradient-4"/><linearGradient id="linear-gradient-15" x1="24" y1="3.64" x2="24" y2="20.06" xlink:href="#linear-gradient-5"/><linearGradient id="linear-gradient-16" y1="3.43" x2="24" y2="20.18" xlink:href="#linear-gradient-6"/><linearGradient id="linear-gradient-17" y1="3.24" x2="24" y2="20.3" xlink:href="#linear-gradient-7"/><linearGradient id="linear-gradient-18" y1="3.07" x2="24" y2="20.41" xlink:href="#linear-gradient-8"/><linearGradient id="linear-gradient-19" y1="2.93" x2="24" y2="20.51" xlink:href="#linear-gradient-9"/><linearGradient id="linear-gradient-20" y1="2.8" x2="24" y2="20.61" xlink:href="#linear-gradient-10"/><linearGradient id="linear-gradient-21" x1="6.51" y1="2.15" x2="19.59" y2="19.44" xlink:href="#linear-gradient"/><linearGradient id="linear-gradient-22" x1="6.45" y1="2.09" x2="19.6" y2="19.48" xlink:href="#linear-gradient-2"/><linearGradient id="linear-gradient-23" x1="6.4" y1="2.05" x2="19.61" y2="19.52" xlink:href="#linear-gradient-3"/><linearGradient id="linear-gradient-24" x1="6.36" y1="2.02" x2="19.62" y2="19.55" xlink:href="#linear-gradient-4"/><linearGradient id="linear-gradient-25" x1="6.32" y1="2" x2="19.62" y2="19.57" xlink:href="#linear-gradient-5"/><linearGradient id="linear-gradient-26" x1="6.3" y1="1.98" x2="19.61" y2="19.58" xlink:href="#linear-gradient-6"/><linearGradient id="linear-gradient-27" x1="6.28" y1="1.98" x2="19.6" y2="19.58" xlink:href="#linear-gradient-7"/><linearGradient id="linear-gradient-28" x1="6.27" y1="1.99" x2="19.58" y2="19.58" xlink:href="#linear-gradient-8"/><linearGradient id="linear-gradient-29" x1="6.27" y1="2.02" x2="19.55" y2="19.56" xlink:href="#linear-gradient-9"/><linearGradient id="linear-gradient-30" x1="6.28" y1="2.05" x2="19.51" y2="19.54" xlink:href="#linear-gradient-10"/><linearGradient id="linear-gradient-31" x1="42.78" y1="1.56" x2="28.68" y2="18.41" xlink:href="#linear-gradient"/><linearGradient id="linear-gradient-32" x1="42.84" y1="1.5" x2="28.67" y2="18.45" xlink:href="#linear-gradient-2"/><linearGradient id="linear-gradient-33" x1="42.9" y1="1.45" x2="28.66" y2="18.48" xlink:href="#linear-gradient-3"/><linearGradient id="linear-gradient-34" x1="42.95" y1="1.41" x2="28.65" y2="18.5" xlink:href="#linear-gradient-4"/><linearGradient id="linear-gradient-35" x1="42.99" y1="1.38" x2="28.65" y2="18.52" xlink:href="#linear-gradient-5"/><linearGradient id="linear-gradient-36" x1="43.02" y1="1.36" x2="28.66" y2="18.53" xlink:href="#linear-gradient-6"/><linearGradient id="linear-gradient-37" x1="43.04" y1="1.36" x2="28.67" y2="18.53" xlink:href="#linear-gradient-7"/><linearGradient id="linear-gradient-38" x1="43.05" y1="1.36" x2="28.69" y2="18.53" xlink:href="#linear-gradient-8"/><linearGradient id="linear-gradient-39" x1="43.05" y1="1.38" x2="28.71" y2="18.51" xlink:href="#linear-gradient-9"/><linearGradient id="linear-gradient-40" x1="43.04" y1="1.4" x2="28.74" y2="18.5" xlink:href="#linear-gradient-10"/><linearGradient id="linear-gradient-41" x1="3.51" y1="35.02" x2="21.07" y2="17.75" xlink:href="#linear-gradient"/><linearGradient id="linear-gradient-42" x1="3.44" y1="35.09" x2="21.1" y2="17.72" xlink:href="#linear-gradient-2"/><linearGradient id="linear-gradient-43" x1="3.37" y1="35.16" x2="21.13" y2="17.69" xlink:href="#linear-gradient-3"/><linearGradient id="linear-gradient-44" x1="3.32" y1="35.22" x2="21.15" y2="17.68" xlink:href="#linear-gradient-4"/><linearGradient id="linear-gradient-45" x1="3.27" y1="35.27" x2="21.17" y2="17.67" xlink:href="#linear-gradient-5"/><linearGradient id="linear-gradient-46" x1="3.23" y1="35.31" x2="21.17" y2="17.66" xlink:href="#linear-gradient-6"/><linearGradient id="linear-gradient-47" x1="3.2" y1="35.35" x2="21.17" y2="17.66" xlink:href="#linear-gradient-7"/><linearGradient id="linear-gradient-48" x1="3.18" y1="35.37" x2="21.16" y2="17.67" xlink:href="#linear-gradient-8"/><linearGradient id="linear-gradient-49" x1="3.14" y1="35.36" x2="21.13" y2="17.67" xlink:href="#linear-gradient-9"/><linearGradient id="linear-gradient-50" x1="3.1" y1="35.32" x2="21.07" y2="17.65" xlink:href="#linear-gradient-10"/><linearGradient id="linear-gradient-51" x1="41.35" y1="33.12" x2="28.53" y2="18.44" xlink:href="#linear-gradient"/><linearGradient id="linear-gradient-52" x1="41.41" y1="33.17" x2="28.51" y2="18.4" xlink:href="#linear-gradient-2"/><linearGradient id="linear-gradient-53" x1="41.46" y1="33.22" x2="28.5" y2="18.37" xlink:href="#linear-gradient-3"/><linearGradient id="linear-gradient-54" x1="41.51" y1="33.25" x2="28.49" y2="18.35" xlink:href="#linear-gradient-4"/><linearGradient id="linear-gradient-55" x1="41.54" y1="33.28" x2="28.49" y2="18.34" xlink:href="#linear-gradient-5"/><linearGradient id="linear-gradient-56" x1="41.57" y1="33.29" x2="28.49" y2="18.33" xlink:href="#linear-gradient-6"/><linearGradient id="linear-gradient-57" x1="41.59" y1="33.3" x2="28.5" y2="18.32" xlink:href="#linear-gradient-7"/><linearGradient id="linear-gradient-58" x1="41.6" y1="33.3" x2="28.52" y2="18.33" xlink:href="#linear-gradient-8"/><linearGradient id="linear-gradient-59" x1="41.61" y1="33.29" x2="28.55" y2="18.34" xlink:href="#linear-gradient-9"/><linearGradient id="linear-gradient-60" x1="41.6" y1="33.27" x2="28.58" y2="18.36" xlink:href="#linear-gradient-10"/></defs><g><path class="cls-44" d="m35.52,35.19l-10.86,7.24c-.4.26-.91.26-1.31,0l-10.86-7.24c-.33-.22-.52-.59-.52-.98v-15.82h24.08v15.82c0,.39-.2.76-.52.98Z"/><path class="cls-1" d="m12.18,34.09v-15.49h23.64v15.49c0,.39-.19.75-.52.97l-10.65,7.1c-.39.26-.9.26-1.29,0l-10.65-7.1c-.32-.22-.52-.58-.52-.97Z"/><path class="cls-43" d="m12.4,33.98v-15.16h23.19v15.16c0,.38-.19.74-.51.96l-10.44,6.96c-.39.26-.89.26-1.28,0l-10.44-6.96c-.32-.21-.51-.57-.51-.96Z"/><path class="cls-52" d="m12.63,33.87v-14.82h22.75v14.82c0,.38-.19.74-.51.95l-10.24,6.82c-.38.25-.88.25-1.26,0l-10.24-6.82c-.32-.21-.51-.57-.51-.95Z"/><path class="cls-33" d="m12.85,33.76v-14.49h22.3v14.49c0,.38-.19.73-.5.94l-10.03,6.69c-.38.25-.87.25-1.25,0l-10.03-6.69c-.31-.21-.5-.56-.5-.94Z"/><path class="cls-15" d="m13.07,33.65v-14.16h21.86v14.16c0,.37-.19.72-.49.92l-9.82,6.55c-.37.25-.86.25-1.23,0l-9.82-6.55c-.31-.21-.49-.55-.49-.92Z"/><path class="cls-38" d="m13.29,33.54v-13.82h21.41v13.82c0,.37-.18.71-.49.91l-9.61,6.41c-.37.25-.85.25-1.22,0l-9.61-6.41c-.31-.2-.49-.55-.49-.91Z"/><path class="cls-53" d="m13.52,33.42v-13.49h20.97v13.49c0,.36-.18.7-.48.9l-9.4,6.27c-.36.24-.84.24-1.2,0l-9.4-6.27c-.3-.2-.48-.54-.48-.9Z"/><path class="cls-40" d="m13.74,33.31v-13.15h20.52v13.15c0,.36-.18.69-.48.89l-9.19,6.13c-.36.24-.83.24-1.19,0l-9.19-6.13c-.3-.2-.48-.53-.48-.89Z"/><path class="cls-24" d="m13.96,33.2v-12.82h20.08v12.82c0,.35-.18.68-.47.88l-8.98,5.99c-.35.24-.82.24-1.17,0l-8.98-5.99c-.29-.2-.47-.53-.47-.88Z"/></g><g><polygon class="cls-21" points="36.04 18.38 24 25.2 11.96 18.38 24 11.56 36.04 18.38"/><polygon class="cls-58" points="12.19 18.38 24 11.69 35.81 18.38 24 25.08 12.19 18.38"/><polygon class="cls-59" points="12.41 18.38 24 11.81 35.59 18.38 24 24.95 12.41 18.38"/><polygon class="cls-12" points="12.64 18.38 24 11.94 35.36 18.38 24 24.82 12.64 18.38"/><polygon class="cls-5" points="12.86 18.38 24 12.07 35.14 18.38 24 24.69 12.86 18.38"/><polygon class="cls-28" points="13.09 18.38 24 12.2 34.91 18.38 24 24.57 13.09 18.38"/><polygon class="cls-3" points="13.31 18.38 24 12.32 34.69 18.38 24 24.44 13.31 18.38"/><polygon class="cls-7" points="13.54 18.38 24 12.45 34.46 18.38 24 24.31 13.54 18.38"/><polygon class="cls-51" points="13.76 18.38 24 12.58 34.24 18.38 24 24.18 13.76 18.38"/><polygon class="cls-14" points="13.99 18.38 24 12.71 34.01 18.38 24 24.05 13.99 18.38"/></g><g><path class="cls-31" d="m11.96,18.38l-7.79-5.67c-.48-.35-.44-1.09.09-1.37l10.85-5.95c.28-.15.63-.13.89.07l8.01,6.1-12.04,6.82Z"/><path class="cls-41" d="m4.36,11.41l10.78-5.91c.26-.14.57-.12.8.06l7.85,5.98-11.83,6.7-7.69-5.59c-.44-.32-.4-.98.08-1.24Z"/><path class="cls-50" d="m4.46,11.48l10.71-5.88c.23-.13.51-.1.72.05l7.7,5.87-11.62,6.59-7.59-5.52c-.39-.29-.35-.88.07-1.12Z"/><path class="cls-39" d="m4.56,11.55l10.65-5.84c.2-.11.45-.09.64.05l7.55,5.75-11.41,6.47-7.48-5.44c-.35-.25-.31-.78.06-.99Z"/><path class="cls-32" d="m4.66,11.63l10.58-5.8c.18-.1.39-.08.55.04l7.4,5.64-11.21,6.35-7.38-5.37c-.3-.22-.27-.68.05-.86Z"/><path class="cls-60" d="m4.76,11.7l10.51-5.76c.15-.08.33-.07.47.04l7.25,5.52-11,6.23-7.28-5.29c-.26-.19-.23-.58.05-.73Z"/><path class="cls-45" d="m4.87,11.77l10.44-5.73c.12-.07.28-.06.39.03l7.1,5.41-10.79,6.11-7.18-5.22c-.21-.15-.19-.48.04-.6Z"/><path class="cls-11" d="m4.97,11.84l10.37-5.69c.1-.05.22-.04.31.02l6.94,5.29-10.58,5.99-7.07-5.14c-.17-.12-.15-.37.03-.47Z"/><path class="cls-48" d="m5.07,11.91l10.31-5.65c.07-.04.16-.03.22.02l6.79,5.17-10.37,5.88-6.97-5.07c-.12-.09-.11-.27.02-.35Z"/><path class="cls-49" d="m5.17,11.98l10.24-5.61s.1-.02.14.01l6.64,5.06-10.16,5.76-6.87-5c-.08-.06-.07-.17.01-.22Z"/></g><g><path class="cls-29" d="m36.04,18.38l7.79-5.67c.48-.35.44-1.09-.09-1.37l-10.85-5.95c-.28-.15-.63-.13-.89.07l-8.01,6.1,12.04,6.82Z"/><path class="cls-20" d="m24.2,11.54l7.85-5.98c.23-.18.55-.2.8-.06l10.78,5.91c.47.26.52.93.08,1.24l-7.69,5.59-11.83-6.7Z"/><path class="cls-46" d="m24.4,11.53l7.7-5.87c.21-.16.49-.18.72-.05l10.71,5.88c.43.23.46.83.07,1.12l-7.59,5.52-11.62-6.59Z"/><path class="cls-37" d="m24.6,11.52l7.55-5.75c.18-.14.43-.16.64-.05l10.65,5.84c.38.21.41.74.06.99l-7.48,5.44-11.41-6.47Z"/><path class="cls-18" d="m24.81,11.5l7.4-5.64c.16-.12.38-.14.55-.04l10.58,5.8c.33.18.36.64.05.86l-7.38,5.37-11.21-6.35Z"/><path class="cls-13" d="m25.01,11.49l7.25-5.52c.14-.1.32-.12.47-.04l10.51,5.76c.28.15.3.54.05.73l-7.28,5.29-11-6.23Z"/><path class="cls-27" d="m25.21,11.48l7.1-5.41c.11-.09.26-.1.39-.03l10.44,5.73c.23.13.25.45.04.6l-7.18,5.22-10.79-6.11Z"/><path class="cls-47" d="m25.41,11.46l6.94-5.29c.09-.07.21-.08.31-.02l10.37,5.69c.18.1.2.35.03.47l-7.07,5.14-10.58-5.99Z"/><path class="cls-23" d="m25.61,11.45l6.79-5.17c.06-.05.15-.06.22-.02l10.31,5.65c.13.07.14.26.02.35l-6.97,5.07-10.37-5.88Z"/><path class="cls-9" d="m25.81,11.44l6.64-5.06s.1-.03.14-.01l10.24,5.61c.08.05.09.16.01.22l-6.87,5-10.16-5.76Z"/></g><g><path class="cls-30" d="m11.96,18.38l-7.79,5.67c-.48.35-.44,1.09.09,1.37l10.85,5.95c.28.15.63.13.89-.07l8.01-6.1-12.04-6.82Z"/><path class="cls-42" d="m11.97,18.51l11.83,6.7-7.81,5.95c-.18.14-.46.21-.67.16-.06-.01-.12-.03-.18-.06l-10.8-5.92c-.47-.26-.39-.99.04-1.3l7.59-5.52Z"/><path class="cls-4" d="m11.97,18.65l11.62,6.59-7.61,5.79c-.16.12-.45.22-.64.18-.06-.01-.12-.02-.18-.06l-10.75-5.9c-.41-.22-.22-.96.16-1.23l7.4-5.38Z"/><path class="cls-54" d="m11.98,18.78l11.41,6.47-7.4,5.64c-.13.1-.45.23-.61.21-.06,0-.12-.02-.17-.05l-10.71-5.87c-.35-.19-.04-.93.28-1.16l7.2-5.24Z"/><path class="cls-35" d="m11.99,18.91l11.21,6.35-7.2,5.49c-.11.09-.45.24-.58.23-.05,0-.11,0-.17-.04l-10.66-5.84c-.29-.16.14-.9.4-1.09l7-5.09Z"/><path class="cls-57" d="m12,19.04l11,6.23-7,5.34c-.09.07-.45.28-.55.25-.05,0-.11,0-.16-.03l-10.61-5.82c-.23-.13.31-.87.53-1.02l6.8-4.95Z"/><path class="cls-56" d="m12,19.17l10.79,6.11-6.8,5.18c-.07.05-.45.29-.53.27-.05.01-.11,0-.16-.02l-10.56-5.79c-.17-.1.49-.83.65-.95l6.61-4.81Z"/><path class="cls-19" d="m12.01,19.3l10.58,6-6.6,5.03s-.44.3-.5.29c-.05.02-.1.02-.15,0l-10.51-5.76c-.12-.06.66-.8.77-.88l6.41-4.66Z"/><path class="cls-26" d="m12.02,19.44l10.37,5.88-6.4,4.88s-.44.32-.47.31c-.04.03-.1.03-.14,0l-10.46-5.74c-.06-.03.84-.77.9-.81l6.21-4.52Z"/><path class="cls-22" d="m4.99,24.68l7.03-5.12,10.16,5.76-6.64,5.06s-.1.03-.14.01l-10.42-5.71Z"/></g><g><path class="cls-2" d="m36.04,18.38l7.79,5.67c.48.35.44,1.09-.09,1.37l-10.85,5.95c-.28.15-.63.13-.89-.07l-8.01-6.1,12.04-6.82Z"/><path class="cls-10" d="m36.03,18.51l7.69,5.59c.44.32.4.98-.08,1.24l-10.78,5.91c-.26.14-.57.12-.8-.06l-7.85-5.98,11.83-6.7Z"/><path class="cls-16" d="m36.03,18.65l7.59,5.52c.39.29.35.88-.07,1.12l-10.71,5.88c-.23.13-.51.1-.72-.05l-7.7-5.87,11.62-6.59Z"/><path class="cls-34" d="m36.02,18.78l7.48,5.44c.35.25.31.78-.06.99l-10.65,5.84c-.2.11-.45.09-.64-.05l-7.55-5.75,11.41-6.47Z"/><path class="cls-36" d="m36.01,18.91l7.38,5.37c.3.22.27.68-.05.86l-10.58,5.8c-.18.1-.39.08-.55-.04l-7.4-5.64,11.21-6.35Z"/><path class="cls-8" d="m36,19.04l7.28,5.29c.26.19.23.58-.05.73l-10.51,5.76c-.15.08-.33.07-.47-.04l-7.25-5.52,11-6.23Z"/><path class="cls-55" d="m36,19.17l7.18,5.22c.21.15.19.48-.04.6l-10.44,5.73c-.12.07-.28.06-.39-.03l-7.1-5.41,10.79-6.11Z"/><path class="cls-6" d="m35.99,19.3l7.07,5.14c.17.12.15.37-.03.47l-10.37,5.69c-.1.05-.22.04-.31-.02l-6.94-5.29,10.58-6Z"/><path class="cls-25" d="m35.98,19.44l6.97,5.07c.12.09.11.27-.02.35l-10.31,5.65c-.07.04-.16.03-.22-.02l-6.79-5.17,10.37-5.88Z"/><path class="cls-17" d="m25.81,25.33l10.16-5.76,6.87,5c.08.06.07.17-.01.22l-10.24,5.61s-.1.02-.14-.01l-6.64-5.06Z"/></g></svg>