<svg height="100%" viewBox="0 0 100 100" width="100%" xml:space="preserve" xmlns="http://www.w3.org/2000/svg" xmlns:xlink="http://www.w3.org/1999/xlink"><defs><filter color-interpolation-filters="sRGB" filterUnits="userSpaceOnUse" height="105.401" id="Filter" width="105.411" x="-2.70544" y="-1.65241"><feDropShadow dx="-3.85005e-06" dy="1.04814" flood-color="#000000" flood-opacity="0.65" in="SourceGraphic" result="Shadow" stdDeviation="1.57222"/></filter></defs><g filter="url(#Filter)"><path d="M98.7749 50.3073C98.7749 57.4309 97.8774 62.5547 95.863 66.92C95.5533 67.5882 94.8924 67.9833 94.1998 67.9833C93.9437 67.9833 93.6828 67.9297 93.434 67.815C92.5171 67.3907 92.1171 66.3054 92.539 65.386C93.6194 63.0448 94.3339 60.4012 94.729 57.2236C96.541 53.0557 97.7653 48.5831 98.3506 43.9056C98.6261 46.02 98.7749 48.1587 98.7749 50.3073ZM90.2003 77.0554C90.4076 78.0431 89.7759 79.0137 88.7858 79.221C88.6614 79.2479 88.5322 79.2601 88.4078 79.2601C87.5615 79.2601 86.8007 78.6699 86.6202 77.8066C86.0812 75.2434 85.813 73.0096 85.7057 70.9513C87.0128 69.5441 88.2346 68.0613 89.3711 66.5079C89.1833 69.5563 89.3077 72.8193 90.2003 77.0554ZM19.1109 75.541C19.2499 78.5601 19.4694 81.7573 19.8108 85.1765C19.9132 86.1812 19.1791 87.0787 18.1744 87.1787C18.1134 87.186 18.05 87.1884 17.989 87.1884C17.0623 87.1884 16.2648 86.4836 16.1722 85.5423C15.6844 80.6623 15.4259 76.1872 15.3284 72.0901C16.5282 73.3022 17.7891 74.4557 19.1109 75.541ZM84.3595 83.2718C84.6692 84.2351 84.14 85.2642 83.1791 85.574C82.9913 85.6325 82.8036 85.6618 82.6182 85.6618C81.8451 85.6618 81.1281 85.1691 80.8769 84.3936C80.0014 81.6769 79.36 79.2527 78.8845 77.0384C79.9917 76.2214 81.0647 75.3678 82.0988 74.463C82.5572 77.014 83.2718 79.8941 84.3595 83.2718ZM29.4975 91.5391C29.7877 92.5049 29.239 93.5243 28.2708 93.8169C28.0976 93.8681 27.9196 93.8925 27.7465 93.8925C26.9612 93.8925 26.232 93.3828 25.9954 92.5878C24.6639 88.1468 23.8225 83.3767 23.3299 78.6089C24.6151 79.4503 25.9393 80.2356 27.305 80.955C27.7879 84.5936 28.4927 88.1834 29.4975 91.5391ZM39.4305 95.4289C39.7597 96.3849 39.2525 97.4263 38.2989 97.7555C38.1014 97.8238 37.8989 97.8555 37.7014 97.8555C36.943 97.8555 36.2333 97.3799 35.9723 96.6239C34.5115 92.3878 33.3921 87.9371 32.58 83.3181C33.8799 83.8156 35.1993 84.2692 36.5503 84.657C37.2893 88.3785 38.2404 91.9806 39.4305 95.4289ZM71.3268 91.8952C71.756 92.8097 71.3658 93.8998 70.4513 94.3291C70.2001 94.4461 69.9343 94.5022 69.6734 94.5022C68.9881 94.5022 68.3296 94.1145 68.0174 93.4511C66.5347 90.3027 65.4153 87.2713 64.5593 84.3619C65.7348 83.9937 66.8761 83.5498 68.0126 83.0986C68.8222 85.9178 69.8928 88.8492 71.3268 91.8952ZM64.1862 94.6583C64.6032 95.5777 64.1984 96.6629 63.279 97.08C63.0327 97.1921 62.7766 97.2434 62.523 97.2434C61.8279 97.2434 61.1621 96.8458 60.8573 96.1728C59.2575 92.6585 58.0332 89.2614 57.0943 86.0007C58.3161 85.8227 59.5306 85.6203 60.7232 85.3545C61.5987 88.3444 62.7278 91.4538 64.1862 94.6583ZM47.7881 96.2557C48.1661 97.1921 47.7149 98.2579 46.7784 98.6383C46.5516 98.7261 46.3199 98.77 46.0931 98.77C45.3688 98.77 44.6835 98.3384 44.3958 97.6262C42.6545 93.317 41.5083 89.1614 40.7498 85.674C42.0326 85.9203 43.33 86.1251 44.647 86.269C45.3615 89.2931 46.3638 92.7341 47.7881 96.2557ZM52.1656 90.3295C53.1313 90.0076 54.1605 90.5295 54.48 91.4855L56.1066 96.363C56.4261 97.3214 55.9066 98.3579 54.9507 98.6773C54.7556 98.7408 54.5605 98.77 54.3702 98.77C53.6045 98.77 52.8899 98.2847 52.6363 97.5189L51.0096 92.6415C50.6902 91.683 51.2072 90.6466 52.1656 90.3295ZM73.0803 78.3894C73.9753 78.187 74.8313 78.704 75.1483 79.5356C75.18 79.621 75.2361 79.6917 75.2581 79.7844L75.319 80.0405C75.9897 82.7499 78.1968 88.281 78.2187 88.3371C78.5943 89.2735 78.1382 90.3393 77.1993 90.7148C76.9774 90.8051 76.7457 90.8465 76.5213 90.8465C75.797 90.8465 75.1093 90.4124 74.824 89.6979C74.7337 89.4711 72.7047 84.379 71.8877 81.3476C71.8512 81.2086 71.8024 81.0501 71.7682 80.9208L71.6853 80.5672C71.4707 79.5795 72.095 78.604 73.0803 78.3894ZM7.14882 66.0835C7.18784 65.0739 7.99994 64.2715 9.04616 64.3252C9.06811 64.3252 9.08762 64.3398 9.10957 64.3398C10.0875 64.413 10.8411 65.2348 10.8045 66.2201C10.7972 66.3835 10.7972 66.5591 10.7899 66.7225C10.7191 68.7661 10.6752 70.9049 10.6752 73.1608C10.6752 74.1704 9.85582 74.9898 8.84618 74.9898C7.83654 74.9898 7.01713 74.1704 7.01713 73.1608C7.01713 70.6781 7.0659 68.315 7.14882 66.0835Z" fill="#c62828" opacity="1"/><path d="M1.66896 44.0397C1.98843 41.5278 2.47862 39.0671 3.16391 36.6771C3.79554 38.8671 4.57106 40.9913 5.48803 43.0447C5.10759 45.4176 4.88566 47.8393 4.88566 50.3073L4.88566 50.6048C4.88566 51.4779 4.25891 52.1754 3.43949 52.3558C3.31023 52.3851 3.19074 52.4339 3.05417 52.4339C2.04453 52.4339 1.22511 51.6144 1.22511 50.6048L1.22511 50.3073C1.22511 48.1831 1.40557 46.098 1.66896 44.0397ZM94.5168 43.0349C95.4241 41.0035 96.1947 38.9013 96.8215 36.7332C96.8654 36.8259 96.9312 36.9015 96.9605 37.0039C97.5921 39.2646 98.0506 41.5693 98.353 43.9031C97.7677 48.5782 96.5434 53.0533 94.7315 57.2211C94.99 55.1653 95.1168 52.8875 95.1168 50.3073C95.1168 47.8612 94.8997 45.4322 94.5168 43.0349ZM11.3922 57.1748C11.3044 58.1235 10.507 58.8356 9.57293 58.8356C9.51684 58.8356 9.45831 58.8331 9.40222 58.8283C8.39502 58.7356 7.65608 57.843 7.75119 56.8382C8.0292 53.8532 8.35844 51.2755 8.69498 49.0245C9.65097 50.5512 10.6777 52.0266 11.7922 53.4313C11.6507 54.6092 11.5166 55.8505 11.3922 57.1748ZM86.3739 60.2647C86.6031 58.56 86.8275 56.8065 86.986 54.9116C88.3761 53.2923 89.6637 51.5901 90.8368 49.7976C90.8392 49.9659 90.8514 50.1317 90.8514 50.2975C90.8514 54.4166 90.4198 57.6357 90.0003 60.75C89.7369 62.7059 89.493 64.5642 89.3735 66.5054C88.2371 68.0613 87.0153 69.5417 85.7081 70.9488C85.4911 66.9468 85.9154 63.6594 86.3739 60.2647ZM15.66 57.7918C16.7623 58.8868 17.9159 59.9281 19.1206 60.9134C18.9011 65.1031 18.8548 69.9782 19.1133 75.5385C17.7915 74.4557 16.5307 73.2998 15.3308 72.0877C15.1942 66.6103 15.3528 61.8499 15.66 57.7918ZM77.9383 63.1156C79.3552 62.123 80.7038 61.05 82.0061 59.9159C81.4208 64.0813 80.9867 68.2686 82.1012 74.463C81.0672 75.3678 79.9941 76.2214 78.8869 77.0384C77.6285 71.1854 77.5944 66.8834 77.9383 63.1156ZM22.8275 63.674C24.0005 64.4618 25.215 65.1934 26.4588 65.8811C26.393 70.6879 26.6246 75.8702 27.3026 80.9574C25.9369 80.238 24.6127 79.4527 23.3274 78.6114C22.7958 73.4802 22.6763 68.3711 22.8275 63.674ZM73.7778 71.339C73.7778 72.3487 72.9583 73.1632 71.9487 73.1632C71.9487 73.1632 71.9463 73.1632 71.9438 73.1632C70.9342 73.1608 70.1172 72.3413 70.1196 71.3293C70.1221 69.9343 70.1416 68.7052 70.166 67.5419C71.4292 66.9663 72.6706 66.3542 73.8729 65.6787C73.8192 67.3005 73.7851 69.1539 73.7778 71.339ZM34.8115 69.5002C35.009 74.7533 35.587 79.8161 36.5503 84.6546C35.1993 84.2668 33.8799 83.8132 32.58 83.3157C31.7265 78.4504 31.2363 73.3851 31.1095 68.1443C32.3142 68.6515 33.558 69.0881 34.8115 69.5002ZM65.8445 69.2612C65.9738 73.4412 66.564 78.0821 68.0101 83.1011C66.8737 83.5522 65.7323 83.9985 64.5569 84.3644C63.0644 79.2844 62.4132 74.5923 62.2205 70.3391C63.4472 70.0197 64.6569 69.6685 65.8445 69.2612ZM58.1747 71.2049C58.4795 75.4922 59.2233 80.2477 60.7232 85.3545C59.5306 85.6227 58.3186 85.8227 57.0943 86.0007C55.6091 80.8477 54.858 76.0507 54.5361 71.7121C55.7676 71.6 56.9724 71.4097 58.1747 71.2049ZM41.0522 74.385C42.0936 74.3143 42.9252 75.0947 42.9862 76.1019C42.991 76.1653 43.2691 80.4258 44.6494 86.2666C43.3325 86.1227 42.0351 85.9178 40.7523 85.6715C39.5939 80.3355 39.35 76.5701 39.3354 76.3165C39.2744 75.3117 40.0426 74.446 41.0522 74.385ZM50.5585 71.9146C50.7999 75.5507 51.2657 79.4478 52.0973 83.462C52.3022 84.4521 51.6657 85.4179 50.6755 85.6227C50.5512 85.6496 50.4268 85.6618 50.3024 85.6618C49.4537 85.6618 48.6928 85.0667 48.5148 84.2034C47.6173 79.8624 47.1174 75.6678 46.8687 71.7853C47.9076 71.8512 48.9416 71.9438 50 71.9438C50.1878 71.9438 50.3707 71.917 50.5585 71.9146Z" fill="#c2185b" opacity="1"/><path d="M5.48559 43.0447C4.56863 40.9913 3.79067 38.8671 3.16147 36.6771C3.89065 34.1335 4.80275 31.6631 5.91481 29.2999C6.58791 30.7266 7.32685 32.1142 8.12919 33.4604C6.91714 36.5162 6.01968 39.7207 5.48559 43.0447ZM94.7095 35.7358C95.5826 35.4895 96.4508 35.9431 96.8239 36.7332C96.1971 38.9013 95.4265 41.0035 94.5193 43.0349C94.2461 41.3327 93.9023 39.6451 93.4414 37.9892C93.1658 37.0161 93.7364 36.0065 94.7095 35.7358ZM11.0874 37.8575C11.9751 39.033 12.9116 40.1621 13.8993 41.2522C13.4627 43.0106 12.5409 47.1637 11.7922 53.4313C10.6777 52.0242 9.65097 50.5487 8.69498 49.0245C9.46806 43.8446 10.2777 40.5816 10.5826 39.4597C10.7313 38.9135 10.9216 38.3916 11.0874 37.8575ZM86.0812 41.2742C87.0762 40.1767 88.0225 39.0378 88.915 37.8526C90.1247 41.679 90.7831 45.7029 90.8319 49.8C89.6613 51.5925 88.3736 53.2947 86.9811 54.9141C87.1055 53.4776 87.1909 51.9705 87.1909 50.3C87.1909 47.2271 86.8055 44.1982 86.0812 41.2742ZM20.6375 47.4174C20.0473 50.5585 19.423 55.0677 19.1182 60.9134C17.9159 59.9281 16.7623 58.8868 15.6576 57.7918C16.0966 51.9705 16.8306 47.6222 17.4428 44.7811C18.4719 45.7054 19.5352 46.5833 20.6375 47.4174ZM79.2649 50.3C79.2649 49.3854 79.2088 48.4855 79.1284 47.5905C80.2746 46.7345 81.3793 45.8322 82.4451 44.8811C82.7353 46.6492 82.9231 48.449 82.9231 50.2975C82.9231 53.4996 82.5304 56.2334 82.1524 58.8746C82.1036 59.2209 82.0524 59.5672 82.0061 59.9135C80.7062 61.0475 79.3552 62.1206 77.9383 63.1131C78.0895 61.4572 78.3114 59.9013 78.5309 58.3576C78.9089 55.7286 79.2649 53.2411 79.2649 50.3ZM27.5489 51.8095C26.9709 55.5555 26.532 60.4647 26.4588 65.8811C25.215 65.1958 24.0005 64.4642 22.8275 63.674C23.0007 58.2966 23.5152 53.485 24.1615 49.8512C25.2638 50.5438 26.3881 51.2047 27.5489 51.8095ZM71.2732 52.3753C72.5462 51.7559 73.7875 51.0852 74.9947 50.3634C74.9898 52.6851 74.7996 54.3775 74.5752 56.3285C74.3216 58.5454 74.0216 61.1792 73.8729 65.6763C72.6706 66.3542 71.4292 66.9663 70.166 67.5395C70.2879 61.6694 70.644 58.5039 70.9415 55.9091C71.0854 54.6604 71.2049 53.5654 71.2732 52.3753ZM31.0997 62.1376C31.1924 58.8185 31.4192 56.0578 31.6899 53.7264C32.8507 54.1971 34.0238 54.6385 35.2261 55.0214C35.009 57.0699 34.831 59.4428 34.753 62.2401C34.6847 64.7008 34.7164 67.1151 34.8066 69.5002C33.5531 69.0905 32.3118 68.6515 31.1046 68.1443C31.0607 66.164 31.0436 64.1667 31.0997 62.1376ZM62.9546 55.831C62.9668 55.7189 62.979 55.6189 62.9912 55.5067C64.2837 55.1506 65.5494 54.736 66.7981 54.2776C66.7298 54.9214 66.6713 55.5384 66.5908 56.2407C66.1859 59.8257 65.6909 64.2081 65.847 69.2588C64.6593 69.666 63.4497 70.0197 62.223 70.3367C61.9645 64.6739 62.5059 59.7842 62.9546 55.831ZM54.8336 57.0675C56.0969 56.9431 57.3357 56.7309 58.5697 56.5139C58.1625 60.3183 57.7552 65.3129 58.1747 71.2073C56.9724 71.4097 55.7676 71.6024 54.5361 71.717C54.1044 65.9201 54.4385 60.9573 54.8336 57.0675ZM42.3789 66.7688C42.374 67.776 41.5571 68.5906 40.5499 68.5906C40.5474 68.5906 40.545 68.5906 40.5425 68.5906C39.5305 68.5857 38.7159 67.7638 38.7208 66.7542C38.7379 63.3253 39.0232 59.5233 39.4354 56.1334C40.623 56.3968 41.8326 56.587 43.0496 56.7626C42.6789 59.833 42.396 63.3741 42.3789 66.7688ZM47.0199 57.1602C48.01 57.2211 48.9928 57.3114 50 57.3114C50.2341 57.3114 50.4609 57.2797 50.695 57.2772C50.3756 60.9963 50.1707 66.1006 50.556 71.917C50.3707 71.917 50.1878 71.9438 50 71.9438C48.9416 71.9438 47.9076 71.8512 46.8687 71.7853C46.498 65.9933 46.6979 60.9305 47.0199 57.1602Z" fill="#d81b60" opacity="1"/><path d="M13.4554 23.6908C11.2971 26.6978 9.50952 29.9755 8.12919 33.458C7.32685 32.1118 6.58791 30.7242 5.91481 29.2975C7.33904 26.271 9.09006 23.4299 11.0801 20.7741C11.8361 21.7764 12.6238 22.7519 13.4554 23.6908ZM93.6072 28.3001L93.6828 28.4488C94.134 29.3511 93.6925 30.2949 92.7902 30.7485C92.5634 30.8632 92.3171 30.9144 92.0708 30.9144C91.3416 30.9144 90.6002 30.4559 90.2612 29.7828C89.176 27.6294 87.9225 25.6052 86.5495 23.6908C87.3786 22.7519 88.1639 21.7813 88.9199 20.779C90.6685 23.1177 92.2561 25.6174 93.6072 28.3001ZM19.2084 29.2755C16.9501 32.6264 15.2064 36.3845 14.1066 40.4523C14.0627 40.6084 13.9895 40.8962 13.9017 41.2522C12.914 40.1621 11.9775 39.033 11.0898 37.8575C12.3482 33.8604 14.1626 30.1511 16.4673 26.8222C17.355 27.666 18.2549 28.5 19.2084 29.2755ZM80.7818 29.2829C81.7329 28.5073 82.6353 27.6733 83.5254 26.8295C85.8544 30.212 87.6737 33.9262 88.915 37.8502C88.02 39.0354 87.0762 40.1743 86.0812 41.2717C85.0228 36.9893 83.2279 32.9288 80.7818 29.2829ZM22.6446 31.8484C23.6542 32.5337 24.7127 33.1507 25.7735 33.7604C23.9176 36.5406 22.4934 39.6427 21.6252 43.0203C21.3813 43.9056 21.018 45.3883 20.6375 47.4174C19.5352 46.5833 18.4719 45.7054 17.4428 44.7835C17.7086 43.5568 17.95 42.5813 18.1329 41.918C19.0694 38.2818 20.6204 34.9017 22.6446 31.8484ZM77.3578 31.8435C79.9161 35.6968 81.6671 40.1255 82.4451 44.8811C81.3793 45.8322 80.2746 46.7345 79.1284 47.5905C78.6674 42.4984 76.9359 37.7721 74.2387 33.7506C75.2971 33.1434 76.3531 32.5288 77.3578 31.8435ZM25.8028 43.3081C26.1271 42.3497 27.1709 41.84 28.1245 42.1668C29.0804 42.4935 29.5926 43.5324 29.2658 44.4884C28.7707 45.9395 28.3513 47.5052 28.0147 49.144C27.8513 49.939 27.6977 50.8487 27.5489 51.8095C26.3881 51.2047 25.2663 50.5438 24.1615 49.8512C24.2493 49.3537 24.3395 48.8587 24.4322 48.4075C24.798 46.6199 25.2589 44.903 25.8028 43.3081ZM66.92 37.1624C68.1028 36.7235 69.2636 36.2504 70.4001 35.726C73.2851 39.8499 74.9971 44.8713 74.9971 50.3C74.9971 50.3219 74.9947 50.3414 74.9947 50.3634C73.7851 51.0877 72.5462 51.7559 71.2732 52.3753C71.3122 51.7266 71.339 51.056 71.339 50.3C71.339 45.3566 69.6782 40.8108 66.92 37.1624ZM37.2332 38.494C38.6769 38.8842 40.1426 39.2134 41.6351 39.4719C39.3793 41.1888 37.6282 43.5568 36.7966 46.3151C36.5869 46.9808 35.7772 49.8415 35.231 55.0214C34.0287 54.6385 32.8532 54.1971 31.6948 53.7264C32.2508 48.9635 33.0117 46.1614 33.3141 45.2006C34.0823 42.6423 35.4602 40.3792 37.2332 38.494ZM50 40.8498C55.0433 40.8498 59.1453 45.0884 59.1453 50.3C59.1453 51.3925 58.9819 52.8265 58.777 54.6434C58.7112 55.2262 58.6405 55.8579 58.5697 56.5114C57.3357 56.7309 56.0993 56.9407 54.8336 57.065C54.936 56.0505 55.0433 55.0921 55.1409 54.2288C55.3335 52.5265 55.4872 51.1828 55.4872 50.2975C55.4872 47.1028 53.0265 44.5055 50 44.5055C47.5222 44.5055 46.0151 45.5883 44.625 48.3709C44.247 49.1269 43.5642 52.4875 43.0496 56.7553C41.8326 56.5822 40.623 56.3895 39.4354 56.1261C39.9694 51.7169 40.7133 48.0075 41.3522 46.7321C42.6155 44.2104 44.886 40.8498 50 40.8498Z" fill="#ec407a" opacity="1"/><path d="M50.0488 48.8099C51.0389 49.005 51.6852 49.9659 51.4901 50.956C51.4779 51.0145 51.0292 53.3972 50.695 57.2748C50.4609 57.2797 50.2341 57.3114 50 57.3114C48.9928 57.3114 48.01 57.2211 47.0199 57.1602C47.3686 53.0777 47.8515 50.5073 47.9027 50.2512C48.0929 49.2635 49.0489 48.6148 50.0488 48.8099ZM60.7329 39.111C60.8475 39.0208 60.9792 38.9818 61.106 38.9208C61.306 38.8354 61.5353 38.7842 61.7572 38.7525C62.3327 38.7184 62.9156 38.9232 63.3034 39.4085C65.7323 42.4814 67.0712 46.3492 67.0712 50.3C67.0712 51.4584 66.9468 52.8216 66.7956 54.28C65.547 54.7385 64.2837 55.1506 62.9888 55.5091C63.218 53.4679 63.4131 51.6876 63.4131 50.3C63.4131 47.1247 62.3839 44.1446 60.4329 41.679C59.8062 40.8888 59.9428 39.7378 60.7329 39.111Z" fill="#ec407a" opacity="1"/><path d="M13.4554 23.6908C12.6262 22.7495 11.8361 21.7764 11.0801 20.7741C13.4481 17.611 16.1819 14.7406 19.245 12.2312C20.2229 13.0262 21.2374 13.7773 22.2764 14.4968C18.9133 17.1379 15.9429 20.2278 13.4554 23.6908ZM77.7383 14.4894C78.7723 13.7724 79.7844 13.0238 80.7599 12.2287C83.7864 14.7114 86.5202 17.5793 88.915 20.779C88.159 21.7788 87.3738 22.7519 86.5446 23.6908C84.0327 20.1839 81.0623 17.0989 77.7383 14.4894ZM19.2084 29.2755C18.2573 28.5 17.3574 27.666 16.4673 26.8222C19.1304 22.9738 22.4251 19.6425 26.171 16.9282C27.3733 17.6037 28.6122 18.2134 29.8755 18.7865C25.6808 21.5106 22.0398 25.0736 19.2084 29.2755ZM32.563 22.1105C33.4165 21.5716 34.5457 21.8252 35.0871 22.6812C35.626 23.5347 35.37 24.6639 34.5164 25.2053C30.9949 27.4294 28.0537 30.3486 25.7759 33.7628C24.7127 33.1532 23.6567 32.5361 22.647 31.8509C25.2077 27.9781 28.5488 24.6444 32.563 22.1105ZM77.3578 31.8435C76.3506 32.5264 75.2971 33.1434 74.2387 33.7506C70.6635 28.4195 65.4031 24.3444 59.2453 22.2666C61.2231 21.8862 63.157 21.3886 65.0422 20.779C70.0148 23.3689 74.2606 27.1807 77.3578 31.8435ZM30.4461 34.5359C35.2212 28.4732 42.3497 24.998 50 24.998C58.421 24.998 65.8665 29.2463 70.4001 35.726C69.2636 36.2504 68.1028 36.7259 66.92 37.1624C63.0156 32.0021 56.8943 28.6561 50 28.6561C43.4764 28.6561 37.399 31.6241 33.3214 36.7991C33.2166 36.9308 33.08 37.0186 32.9483 37.1137C32.2996 37.5868 31.4119 37.6209 30.751 37.1039C30.3779 36.8088 30.1633 36.3967 30.0925 35.9626C30.012 35.4724 30.1145 34.9554 30.4461 34.5359Z" fill="#e040fb" opacity="1"/><path d="M50 32.9239C51.873 32.9239 53.7142 33.2312 55.4628 33.8336L55.8091 33.9555C56.7578 34.3018 57.2479 35.3505 56.9016 36.2991C56.5553 37.2502 55.5018 37.738 54.558 37.3917L54.2849 37.2941C52.907 36.8235 51.4681 36.582 50 36.582C46.9467 36.582 44.0104 37.6648 41.6327 39.4719C40.1402 39.2134 38.6745 38.8842 37.2307 38.494C40.4669 35.0529 45.0567 32.9239 50 32.9239ZM71.1878 17.2208C71.7756 16.4039 72.9169 16.2185 73.7412 16.8062C73.7851 16.838 73.8265 16.8721 73.868 16.9038C77.6676 19.6669 80.9135 23.0372 83.523 26.8295C82.6328 27.6733 81.7329 28.5073 80.7794 29.2829C78.3309 25.6321 75.241 22.3983 71.6 19.7742C71.1439 19.445 70.9074 18.9475 70.8683 18.428C70.8415 18.011 70.9269 17.5842 71.1878 17.2208Z" fill="#e040fb" opacity="1"/><path d="M43.2617 3.50289C43.4471 4.49546 42.7886 5.44901 41.7961 5.63436C34.4603 6.9903 27.8391 10.1241 22.2739 14.4992C21.235 13.7798 20.2205 13.0286 19.2426 12.2336C25.415 7.17808 32.8556 3.56874 41.1303 2.03721C42.1253 1.83967 43.0813 2.50789 43.2617 3.50289ZM50.5853 4.8881C49.5757 4.87591 48.766 4.04673 48.7806 3.03466C48.7928 2.03233 49.6098 1.22998 50.6097 1.22998C50.617 1.22998 50.6243 1.22998 50.6341 1.22998C61.845 1.37387 72.373 5.34659 80.7623 12.2287C79.7868 13.0213 78.7747 13.77 77.7407 14.4894C70.1123 8.495 60.65 5.01735 50.5853 4.8881ZM50 9.14615C55.1848 9.14615 60.2403 10.1119 65.0251 12.019C65.964 12.3921 66.4201 13.4579 66.0469 14.3968C65.6714 15.3357 64.6081 15.7893 63.6692 15.4186C59.3184 13.6822 54.7214 12.8043 50 12.8043C42.6789 12.8043 35.7358 14.9772 29.873 18.7865C28.6098 18.2134 27.3709 17.6037 26.1686 16.9282C32.9532 12.0141 41.2205 9.14615 50 9.14615Z" fill="#d500f9" opacity="1"/><path d="M50 20.7302C47.471 20.7302 44.964 21.0545 42.5423 21.6984C41.5595 21.9593 40.5621 21.3765 40.306 20.3985C40.0499 19.4206 40.6279 18.4207 41.6058 18.1622C44.3299 17.4379 47.154 17.0721 50 17.0721C55.4213 17.0721 60.5281 18.4256 65.0446 20.779C63.1595 21.3911 61.2255 21.8886 59.2477 22.2666C56.3359 21.2838 53.2338 20.7302 50 20.7302Z" fill="#d500f9" opacity="1"/></g></svg>
