<svg width="100%" height="100%" xmlns="http://www.w3.org/2000/svg" viewBox="0 0 728 728"><path fill="none" fill-opacity="0" stroke="#C2C3C5" stroke-opacity=".06" stroke-width=".3" d="M246 35c.99-.56 2.11-.53 3-1 2.44-1.9 6.08-2.5 8-5-5.16-.39-8.34 3.18-11 6Z"/><path fill="none" fill-opacity="0" stroke="#BABBBD" stroke-width=".3" d="M249 34c-2.36 1.84-4.62 3.7-5 7-.61 10.28 3.58 22.36 2 34s1.06 24.99-.33 36.67c-1.39 11.68-.99 24.35-.67 36.33.32 11.98-.97 22.89-.99 34.01-.02 11.12 1.61 23.15.99 34.99-.62 11.84.27 24.96 0 37s.11 24.96 0 37 .01 25.16 0 37-.09 24.61 0 36 2.39 23.59 2.78 34.22c.39 10.63 4.92 19.09 9.47 27.53 4.56 8.44 9.49 14.11 16.5 20.5 7.02 6.38 13.74 10.29 21 16 7.26 5.72 13.7 9.09 20.15 15.85 6.45 6.76 11.37 14.04 13.43 23.57 2.05 9.53-1.04 20.43-3.11 30.55-2.07 10.12-2 23.01-3.22 33.78-1.22 10.77.86 19.02-.78 29.22-1.64 10.2 1.09 19.92-.22 30.78s-.48 24.19-.22 35.22c.26 11.04-1.35 24.38-.78 35.78.57 11.4-1.63 20.49 0 31h63c-.34-9.7-.03-21.61 0-32s-1.19-18.23-1.93-27.08c-.75-8.85 2.82-18.54.6-27.59-2.22-9.05-.03-16.91-.07-25.07-.04-8.17-4.52-17.31-3.4-25.51 1.12-8.19-.74-18.62-2.18-26.78-1.43-8.15-4.32-19.43-4.26-26.22-6.17-5.22-3.51-17.81-3.56-25-.05-7.18 2.46-14.95 7.11-21.44 4.64-6.5 12.43-11.46 17.61-17.39 5.18-5.94 13.99-8.54 20.33-13.67 6.34-5.14 15.55-7.56 21.98-13.02s13.4-9.17 19.52-15.48c6.12-6.31 11.46-10.52 15.17-18.83 3.71-8.31 6.89-17.8 7.08-27.92.19-10.12-1.4-22.78-.33-32.67 1.07-9.89-2.38-20.64-.67-31.33 1.71-10.69-.24-18.34.78-28.22 1.02-9.89-.83-23.65-.78-33.78.05-10.13 2.72-22.79 1-33-1.72-10.21 1.43-19.92 0-31-1.43-11.08.46-21.8 0-33s-.3-20.94 0-32c.3-11.06-.36-21.27 1-32 1.36-10.73-2.48-22.32.33-32.67 2.81-10.35 1.05-20.6 2.67-30.33-1.94-.43-2.97-1.83-5-2 .26-1.39 2.05-.78 3-1-2.02-.84-1.86-.11-4 0-2.24.12-3.39-.42-5-1-.39.21-1.54.14-2 0-1.05.9-3.05 2.41-5 4-7.99 12.09 1.12 28.09-1.33 42.67-2.45 14.58.36 31.44-.67 46.33-1.03 14.89-.56 29.82-.22 44.22.34 14.4-1.35 29.95.2 44.8 1.54 14.86-2.71 32.33-1.97 46.99.74 14.66 1.25 28.5 0 42-1.26 13.49 2.9 34.42-.01 46.99-2.91 12.57 5.45 36.63-8 41-2.48.81-5.42 1.33-8 2-5.91 1.53-18.95 2.18-21 6 4.01-1.81 13.19-1.05 17-2-6.62 2.36-15.05 4.69-21 3-6.74-2.24-5.04-15.88-6-23-.96-7.13-.78-19.77-1.98-28.02-1.19-8.26 1.45-18.15-.02-26.98-1.47-8.83.91-20.76 0-30-.91-9.24-1.28-17.68 0-27 1.27-9.32-2.01-19.65-1-29 1.01-9.35 1.41-17.84.22-27.22-1.18-9.38.48-18.74-.22-27.78-.69-9.05.13-18.06.35-26.69.23-8.64-.5-18.92-.35-28.31.15-9.39-.26-19.45 0-29s1.49-19.13 1-29c-.49-9.87.49-20.11 0-30-.42-1.4-3-4.06-4-5-.47-.44-1.39-.86-2-1-2.65-.09-6.71 2.73-10 2 .24-1.67 2.85-.17 3-2-2.12.15-4.06.19-6 1-.1-.11-2.9 6.33-3 7 .15 7.16-.57 12.89-1 20-.43 7.11.6 14.05 1 21 .4 6.95-1.56 13.79-1 21 .56 7.21-.26 14.76 0 22s-.14 14.78 0 22c.14 7.22-.1 13.78 0 21 .1 7.22-.13 14.74 0 22s-.24 14.76 0 22-.52 14.84 0 22-1.14 15.03 0 22c1.14 6.97.18 12.86 0 20-.18 7.14.06 13.89 0 21-.06 7.11.33 14.47-.78 21.22-1.11 6.75.26 15.08-.22 21.78-.48 6.7.49 15.77 0 22s.82 16.97 0 22c-.82 5.03 1.49 17.83-3 19-.47.12-1.62-.21-2 0-1.13.63.06 1.48-2 2 1.01.2 3.59 1.62 4 3h-36c-10.22-1.83-5.65-23.06-7.98-33.02-2.33-9.96-.65-27.14-2.02-38.98-1.37-11.84.92-28.25 0-41s1.07-27.94 0-41c-1.07-13.06.13-26.04 0-39s.01-26.24 0-39c-.01-12.76-.79-26.42-.33-38.67s-2.11-21.19.31-33.35c2.41-12.17-4.27-26.81 0-39 4.26-12.19 3.59-21.91-3.98-31.98-1.26-1.68-7.09-3.27-10.97-.97-3.89 2.29-7.74 1.09-8.03 5.97-.03.5 0 1 0 1 2.86-1.61 6.06-4.05 9.03-4.97 2.96-.93 11.58-1.1 6.97-.03 2.43 4.62 7.54 10.49 4.02 16.02-3.51 5.53-.19 12.86-4.79 17.21-4.61 4.35-6.56-7.02-7.21-11.25-.64-4.24-3.23-12.67-5.02-16.98-.93.62-1.63.86-2 2 1.78 6.9-.23 13.87 1 21 1.23 7.13-.53 15.58 0 23s-.17 15.46 0 23c.17 7.54.07 15.42 0 23s-.95 13.61 0 21c.94 7.4-.42 15.47 0 23 .42 7.53-.18 15.43 0 23s-.07 15.46 0 23c.07 7.54.01 14.47 0 22-.01 7.53.08 15.47 0 23-.08 7.53.21 15.57 0 23s.63 15.57-.33 22.67c-.96 7.1-.75 15.25-.67 22.33.08 7.08-.2 16.52 0 23s-2.1 16.65-1 22c1.1 5.35-.98 19.76-2 19-.32-.24-1 0-1 0-.26.7-.67 2.48-1 3-2.01 3.16-4.97.57-8 1v-3s-.53.12-1 0c-2.8-.71-5.25-1.1-8 0 2.27-2.13-1.89-1.91-2-4-4.54-1.1-8.99-5.01-13-5-.88 0-2.34.38-3 1-.26.24-.65.95-1 1-8.7 1.26-2.55-16.97-4-24-1.45-7.03-.41-21.42-1-30-.59-8.58-1.72-20.64-1-30s-1.15-20.64 0-30 .09-19.45 0-29 .03-18.91 0-29 .01-19.84 0-30 0-20.8 0-31-.01-20.83 0-31c.01-10.17-.03-19.88 0-30 .03-10.12-.08-20.97 0-31 .08-10.03 3.2-18.08 1-28-.29-.5-2.54-2.59-3-3-2.4-2.16-6.79-1.93-8-5 0 0-.5.04-1 0-1.92 2.5-5.56 3.1-8 5m219 29c.89-8.32-5.99-13.6-5.66-21.68.33-8.07 19.78-6.51 15.35 1.37C473.27 50.58 479.4 61.9 468 63M258 52c-8.9-6.48 5.36-10.92 0 0m140 314c9.04 10.9 4.31 27.5 15 37 10.38 2.62 21.49-2.18 31.68-6.32 10.18-4.14 19.74-8.84 21.32-20.68 13.23 7.01 2.92 23.2-4.75 32.25-7.67 9.04-17.94 15.11-28.94 20.06-11.01 4.94-21.22 9.36-32.99 14.01-11.77 4.66-23.91 9.55-36.99 10.01-13.08.46-24.05-.16-35.55-4.11-11.51-3.94-24.43-8.62-34.81-14.19-10.37-5.58-20.69-11.74-27.72-21.28-7.03-9.53-15.24-27.79-4.25-34.75 1.08 5.06 4.5 9.06 6 14 7.75.33 17 6.06 25.08 8.92 8.08 2.86 21.67 7.91 27.17-1.67 5.5-9.59-.97-20.62 8.75-28.25 9.62 10.52 4.09 26.38 12 38 14.34-1.02 33.84 6.99 46.75-1.25 12.9-8.25 2.3-32.44 12.25-41.75Z"/><path fill="none" fill-opacity="0" stroke="#C2C3C5" stroke-opacity=".11" stroke-width=".3" d="M266 34c-.14-.31-.48-3.7 0-3-2.47-.53-5.05-1.05-8-2 1.21 3.07 5.6 2.84 8 5Z"/><path fill="none" fill-opacity="0" stroke="#A4A5A7" stroke-opacity=".09" stroke-width=".3" d="M389 31c-.92 1.3.1 1.61 0 2 .58-.48 1.33-.72 2-1 1.94-.81 3.88-.85 6-1 2.02-.14 5.03-.46 7 0 .61.14 1.53.56 2 1-.81-.87-1.97-2.65-3-3-4.81-.38-10.84-.14-14 2Z"/><path fill="none" fill-opacity="0" stroke="#BABBBD" stroke-opacity=".27" stroke-width=".3" d="M406 32c1 .94 3.58 3.6 4 5-.07-1.47-2.05-3.84 1-3-.25-.25 0-1 0-1-.34-3.48-5.31-3.79-8-4 1.03.35 2.19 2.13 3 3Z"/><path fill="none" fill-opacity="0" stroke="#A4A5A7" stroke-opacity=".98" stroke-width=".3" d="M333 31c7.57 10.07 8.24 19.79 3.98 31.98-4.27 12.19 2.41 26.83 0 39-2.42 12.16.15 21.1-.31 33.35-.46 12.25.32 25.91.33 38.67.01 12.76-.13 26.04 0 39s-1.07 25.94 0 39c1.07 13.06-.92 28.25 0 41s-1.37 29.16 0 41-.31 29.02 2.02 38.98c2.33 9.96-2.24 31.19 7.98 33.02.63-.02 4.89-2.86 6-3-.98 0-2.03-.1-3 0-2.17.23-2.25 1.04-4 0-7.34-4.39-1.03-19.07-4-27-2.96-7.94-.34-20.49-1-30-.66-9.51.31-21.96 0-32s.13-20.71 0-31 .05-21.63 0-32c-.05-10.37 0-20.63 0-31 0-10.37-.05-20.61 0-31s.29-21.03-.93-31.07c-1.21-10.04 1.36-19.85.93-29.93-.43-10.08-1.57-20.22-.01-30.01 1.57-9.78-2.36-19.58-1.99-28.99.37-9.41 4.14-20.08 3-29-.51-2.07-1.81-3.24-3-5 1.63-2.49 2.06 2.06 3 0-3.13-3.13-5.92-2.78-9-4Z"/><path fill="none" fill-opacity="0" stroke="#C2C3C5" stroke-opacity=".14" stroke-width=".3" d="M464 32c.5-.48-.62 2.43-1 3 1.95-1.59 3.95-3.1 5-4-1.6-.5-2.19.3-4 1Z"/><path fill="none" fill-opacity="0" stroke="#D8D9DB" stroke-opacity=".01" stroke-width=".3" d="M470 31c1.61.58 2.76 1.12 5 1-1.52-.19-1.64-2.76-5-1Z"/><path fill="none" fill-opacity="0" stroke="#BABBBD" stroke-opacity=".3" stroke-width=".3" d="M266 34c.46.41 2.71 2.5 3 3-.39-1.75-.4-.69 0-2-.08.27 1-2.67 1-2-1.65-1.18-1.96-1.57-4-2-.48-.7-.14 2.69 0 3Z"/><path fill="none" fill-opacity="0" stroke="#C2C3C5" stroke-opacity=".62" stroke-width=".3" d="M314 37c-.1 1.54.77 1.11 1 2 .37-1.14 1.07-1.38 2-2 4.43-2.92 7.95-3.83 13-5 4.61-1.07-4.01-.9-6.97.03-2.97.92-6.17 3.36-9.03 4.97Z"/><path fill="none" fill-opacity="0" stroke="#8F9092" stroke-opacity=".97" stroke-width=".3" d="M385 37c.06 8.31.46 16.81 0 26-.46 9.19.21 18.63 0 28-.21 9.37.12 19.56 0 29-.12 9.44.1 18.53 0 28-.1 9.47.15 19.53 0 29-.15 9.47.3 18.56 0 28-.3 9.44.64 19.63 0 29-.64 9.37 1.07 18.07 1 27-.07 8.93-1.62 18.71-1 28 .62 9.29.16 18.07-.98 27.02-1.13 8.96 1.31 20.09-.02 28.98s2.53 19.6 0 28c-2.53 8.4 2.45 20.23-1 28 4.49-1.17 2.18-13.97 3-19 .82-5.03-.49-15.77 0-22s-.48-15.3 0-22c.48-6.7-.89-15.03.22-21.78 1.11-6.75.72-14.11.78-21.22.06-7.11-.18-13.86 0-21 .18-7.14 1.14-13.03 0-20-1.14-6.97.52-14.84 0-22s.24-14.76 0-22 .13-14.74 0-22 .1-14.78 0-22c-.1-7.22.14-13.78 0-21-.14-7.22.26-14.76 0-22s.56-14.79 0-22c-.56-7.21 1.4-14.05 1-21-.4-6.95-1.43-13.89-1-21 .43-7.11 1.15-12.84 1-20-.04-2-1.6-3.87 1-6 .1-.39-.92-.7 0-2-2.87 1.94-3.24 3.25-4 6Z"/><path fill="none" fill-opacity="0" stroke="#C2C3C5" stroke-opacity=".73" stroke-width=".3" d="M404 31c-1.97-.46-4.98-.14-7 0-.15 1.83-2.76.33-3 2 3.29.73 7.35-2.09 10-2Z"/><path fill="none" fill-opacity="0" stroke="#D8D9DB" stroke-width=".3" d="M317 37c1.79 4.31 4.38 12.74 5.02 16.98.65 4.23 2.6 15.6 7.21 11.25 4.6-4.35 1.28-11.68 4.79-17.21 3.52-5.53-1.59-11.4-4.02-16.02-5.05 1.17-8.57 2.08-13 5Z"/><path fill="none" fill-opacity="0" stroke="#A4A5A7" stroke-opacity=".45" stroke-width=".3" d="M389 33c-2.6 2.13-1.04 4-1 6 .1-.67 2.9-7.11 3-7-.67.28-1.42.52-2 1Z"/><path fill="none" fill-opacity="0" stroke="#A4A5A7" stroke-opacity=".98" stroke-width=".3" d="M455 41c.27-.56 1.31-1.7 2-2 1.67 13.5 1.21 28.72 1 43-.21 14.28.79 29.79 0 44s-1.5 28.48-1 43-.67 29.55 0 44-.98 29-1 43c-.02 14 1.96 28.14 0 42s2.41 30.62 0 44c-2.41 13.38 5.3 31.97-2 43-.41.61-1.63 1.4-2 2-.33.54-.78 2.81-1 3 13.45-4.37 5.09-28.43 8-41s-1.25-33.5.01-46.99c1.25-13.5.74-27.34 0-42s3.51-32.13 1.97-46.99c-1.55-14.85.14-30.4-.2-44.8-.34-14.4-.81-29.33.22-44.22s-1.78-31.75.67-46.33c2.45-14.58-6.66-30.58 1.33-42.67.38-.57 1.5-3.48 1-3-5.22 2.02-7.81 3.18-9 9Z"/><path fill="none" fill-opacity="0" stroke="#BABBBD" stroke-opacity=".15" stroke-width=".3" d="M481 35c.48.1 1 0 1 0 .24-1.91-1.58-2.41-3-3-.95.22-2.74-.39-3 1 2.03.17 3.06 1.57 5 2Z"/><path fill="none" fill-opacity="0" stroke="#7C7F7E" stroke-opacity=".97" stroke-width=".3" d="M269 35c1.75 5.37 3.25 11.98 1.67 18.67-1.58 6.69-.38 13.44.33 20.33.71 6.89-.42 14.14-1 21-.58 6.86 1.41 13.91 1 21-.41 7.09.14 14.84 0 22s-.03 14.9 0 22-.22 15.11 0 22c.22 6.89 1.94 14.15 1 21s-2.05 12.76-.67 19.67c1.38 6.91.24 13.34-.33 20.33-.56 6.99 1.14 13.91 1 21-.14 7.09-1.19 13.85-1 21 .19 7.15-.31 14.93 0 22s-.64 15.2 0 22c.64 6.8-1.25 14.99-1 21s1.93 14.82 2 20c.07 5.18-2.52 18.31 2 20 .35-.05.74-.76 1-1-6.67-7.18-.54-23.64-2-34s.15-24.82 0-36-.73-23.77-1-35 1.4-22.65.01-34.01 1.89-23.2.99-34.99c-.9-11.79.34-23.34-1-35s1.56-22.64.07-34.07.64-24.23-.07-35.93.51-24.23 0-36 .28-23.56 1-35c-.43-1.6 1.37-2.46 1-4-2.23 2.39-3.23-1.45-4-2 0-.67-1.08 2.27-1 2Z"/><path fill="none" fill-opacity="0" stroke="#8F9092" stroke-width=".3" d="M410 37c.49 9.89-.49 20.13 0 30 .49 9.87-.74 19.45-1 29s.15 19.61 0 29 .58 19.67.35 28.31c-.22 8.63-1.04 17.64-.35 26.69.7 9.04-.96 18.4.22 27.78 1.19 9.38.79 17.87-.22 27.22-1.01 9.35 2.27 19.68 1 29-1.28 9.32-.91 17.76 0 27 .91 9.24-1.47 21.17 0 30 1.47 8.83-1.17 18.72.02 26.98 1.2 8.25 1.02 20.89 1.98 28.02.96 7.12-.74 20.76 6 23 .25.08.74-.89 1-1-5.92-.75-3.38-16.63-4-23-.62-6.37.26-19.26-1.33-26.67s1.26-17.01.33-25.33c-.93-8.32-1.23-18.14-1-27 .23-8.86-.24-18.02 0-27s.01-18.39-.93-27.07c-.93-8.69 1.18-18.22.93-26.93-.25-8.71-2.08-17.36-1-26s.57-17.21 0-26 2.4-17.38 1-26c-1.4-8.62-1.17-17.8-.22-26.22.95-8.42-.63-17.59-.78-25.78-.15-8.19 1.18-20.64 0-28-1.18-7.36 2.8-19.26-1-23-3.05-.84-1.07 1.53-1 3Z"/><path fill="none" fill-opacity="0" stroke="#7C7F7E" stroke-opacity=".95" stroke-width=".3" d="M411 34c3.8 3.74-.18 15.64 1 23 1.18 7.36-.15 19.81 0 28 .15 8.19 1.73 17.36.78 25.78-.95 8.42-1.18 17.6.22 26.22 1.4 8.62-1.57 17.21-1 26 .57 8.79 1.08 17.36 0 26s.75 17.29 1 26-1.86 18.24-.93 26.93c.94 8.68 1.17 18.09.93 27.07-.24 8.98.23 18.14 0 27s.07 18.68 1 27c.93 8.32-1.92 17.92-.33 25.33 1.59 7.41.71 20.3 1.33 26.67.62 6.37-1.92 22.25 4 23 .42-.18 1.5 0 2 0-.32-2.73-.8-6.14-1-8-1.42-3.03-5.23-7.96-4-16 1.23-8.04-.45-16.28-.93-24.07-.48-7.79.01-15.92-.07-23.93s-.14-16.91 0-25-.09-15.15-.99-23.01c-.91-7.86.54-17-.01-24.99-.55-7.99.56-15.98 0-24s1.06-16.82-.33-24.67c-1.39-7.85-.06-14.4.33-22.33.38-7.93-.2-16.96 0-25s-.14-15.93 0-24-.18-16.96 0-25-1.52-14.96-1-23-.63-17.11 0-25c.63-7.89-2.08-16.83 2-23-.64-1.53-2.85-3.1-4-4 0 0-.25.75 0 1Z"/><path fill="none" fill-opacity="0" stroke="#A4A5A7" stroke-opacity=".49" stroke-width=".3" d="M246 35c-2.56 1.45-4.63 4.67-5 6-.4-2.51 2.89 3.21 3 4 0-1.3-.15-2.71 0-4 .38-3.3 2.64-5.16 5-7-.89.47-2.01.44-3 1Z"/><path fill="none" fill-opacity="0" stroke="#8F9092" stroke-opacity=".26" stroke-width=".3" d="M342 40c.31 1.27.89 4.19 1 5 .08-1.91.79-3.73 1-5 .08-1.72-.32-3.32-2-5-.94 2.06-1.37-2.49-3 0 1.19 1.76 2.49 2.93 3 5Z"/><path fill="none" fill-opacity="0" stroke="#8F9092" stroke-width=".3" d="M269 37c2.2 9.92-.92 17.97-1 28-.08 10.03.03 20.88 0 31-.03 10.12.01 19.83 0 30-.01 10.17 0 20.8 0 31s-.01 20.84 0 31-.03 19.91 0 30-.09 19.45 0 29 1.15 19.64 0 29 .72 20.64 0 30 .41 21.42 1 30c.59 8.58-.45 22.97 1 30 1.45 7.03-4.7 25.26 4 24-4.52-1.69-1.93-14.82-2-20-.07-5.18-1.75-13.99-2-20s1.64-14.2 1-21c-.64-6.8.31-14.93 0-22s.19-14.85 0-22 .86-13.91 1-21-1.56-14.01-1-21c.57-6.99 1.71-13.42.33-20.33-1.38-6.91-.27-12.82.67-19.67.94-6.85-.78-14.11-1-21-.22-6.89.03-14.9 0-22s-.14-14.84 0-22-.41-14.91 0-22-1.58-14.14-1-21c.58-6.86 1.71-14.11 1-21-.71-6.89-1.91-13.64-.33-20.33 1.58-6.69.08-13.3-1.67-18.67-.4 1.31-.39.25 0 2Z"/><path fill="none" fill-opacity="0" stroke="#A4A5A7" stroke-opacity=".99" stroke-width=".3" d="M311 40c.1-.22 1.73-1.09 2-1 1.99.62 1 8.18 1 10 0 57.84.41 115.22-1 173s4.18 116.72-1 174c1.02.76 3.1-13.65 2-19s1.2-15.52 1-22c-.2-6.48.08-15.92 0-23s-.29-15.23.67-22.33c.96-7.1.12-15.24.33-22.67.21-7.43-.08-15.47 0-23 .08-7.53-.01-15.47 0-23 .01-7.53.07-14.46 0-22-.07-7.54.18-15.43 0-23s.42-15.47 0-23c-.42-7.53.94-15.6 0-23-.95-7.39-.07-13.42 0-21s.17-15.46 0-23c-.17-7.54.53-15.58 0-23s1.23-15.87 0-23c-1.23-7.13.78-14.1-1-21-.23-.89-1.1-.46-1-2 0 0-.03-.5 0-1-2.19-1.79-2.75 2.32-3 4Z"/><path fill="none" fill-opacity="0" stroke="#A4A5A7" stroke-width=".3" d="M383 728h13c1.33-6.31-1.87-12.92-1-19 .87-6.08.04-11.03.02-17.02-.01-6-1.12-11.46-1.02-17.98.1-6.52-.75-13.06-.02-19.02.73-5.97-.57-12.41.02-18.98s-.87-12.09-.98-18.03c-.11-5.94-.33-14.25-1.02-19.97-.68-5.72.98-12.96 0-19-.98-6.04.13-11.91-1-18s-1.99-12.94-2-19c-.01-6.06-2.77-9.38-2.98-16.02-.2-6.65-2.96-11.89-.03-18.99 2.93-7.09-.09-7.18 6.26-14.74 6.35-7.56 14.26-12.88 21.98-19.02 7.72-6.14 16.87-10.94 25-17 8.13-6.06 14.67-13.05 21.52-20.48 6.86-7.42 12.29-16.73 15.24-26.76 2.96-10.03 5.07-25.51 4.01-35.99-1.06-10.48.69-12.48 0-21s.79-13.41 0-21 .99-13.28.98-20.02c-.02-6.74-1.77-11.39-.2-18.2 1.57-6.81-.38-13.58.22-20.78.6-7.2-.36-13.28 0-21 .36-7.72-.35-12.27 0-21s-.58-10.11 0-21-1.13-24.86-.02-34.03c1.11-9.16-1.04-13.29.02-20.97s-2.8-13.19-1-20c1.8-6.81.05-13.01.02-19.02-.02-6.02 1.33-11.44.98-17.98-.35-6.54-.35-14.86 0-21 .35-6.14-1.7-15.21.93-20.07 2.63-4.87-2.1-15.98 2.07-18.93-.63-.66-.8-1.82-2-2 0 0-.52.1-1 0-1.62 9.73.14 19.98-2.67 30.33-2.81 10.35 1.03 21.94-.33 32.67s-.7 20.94-1 32c-.3 11.06-.46 20.8 0 32s-1.43 21.92 0 33c1.43 11.08-1.72 20.79 0 31s-.95 22.87-1 33c-.05 10.13 1.8 23.89.78 33.78-1.02 9.88.93 17.53-.78 28.22-1.71 10.69 1.74 21.44.67 31.33-1.07 9.89.52 22.55.33 32.67-.19 10.12-3.37 19.61-7.08 27.92-3.71 8.31-9.05 12.52-15.17 18.83-6.12 6.31-13.09 10.02-19.52 15.48-6.43 5.46-15.64 7.88-21.98 13.02-6.34 5.13-15.15 7.73-20.33 13.67-5.18 5.93-12.97 10.89-17.61 17.39-4.65 6.49-7.16 14.26-7.11 21.44.05 7.19-2.61 19.78 3.8 24.25-.3 7.54 2.59 18.82 4.02 26.97 1.44 8.16 3.3 18.59 2.18 26.78-1.12 8.2 3.36 17.34 3.4 25.51.04 8.16-2.15 16.02.07 25.07 2.22 9.05-1.35 18.74-.6 27.59.74 8.85 1.96 16.69 1.93 27.08-.03 10.39-.34 22.3 0 32Z"/><path fill="none" fill-opacity="0" stroke="#D8D9DB" stroke-width=".3" d="M468 63c11.4-1.1 5.27-12.42 9.69-20.31 4.43-7.88-15.02-9.44-15.35-1.37-.33 8.08 6.55 13.36 5.66 21.68Z"/><path fill="none" fill-opacity="0" stroke="#7C7F7E" stroke-opacity=".55" stroke-width=".3" d="M384 51c.34 5.55-1.35 13.39-.67 18.67.68 5.28 2.24 14.61.67 19.33-1.57 4.72 1.43 15.98-3 18 0 0-.11.52 0 1 2.53 11.05.56 23.75 0 35 .15 2.61.23 6.41 0 9 .09 3.31.66 7.4 1 11 1.68 17.93.66 38.86-1 56 0 16.12.29 34.07 0 50s.8 33.66 0 49c-.8 15.34 1.49 31.66-.2 45.75-1.68 14.1 3.13 24.35.2 37.25.38-.21 1.53.12 2 0 3.45-7.77-1.53-19.6 1-28 2.53-8.4-1.33-19.11 0-28s-1.11-20.02.02-28.98c1.14-8.95 1.6-17.73.98-27.02-.62-9.29.93-19.07 1-28 .07-8.93-1.64-17.63-1-27 .64-9.37-.3-19.56 0-29 .3-9.44-.15-18.53 0-28 .15-9.47-.1-19.53 0-29 .1-9.47-.12-18.56 0-28 .12-9.44-.21-19.63 0-29 .21-9.37-.46-18.81 0-28 .46-9.19.06-17.69 0-26-1.53 5.56-1.3 9.04-1 14Z"/><path fill="none" fill-opacity="0" stroke="#676869" stroke-opacity=".67" stroke-width=".3" d="M420 390c-3.04-28.42-1-56.21-1-87-2.21-22.81-2.41-50.27 0-73v-5c-.39-3.68-2.64-10.44 0-14v-1c-2.79-3.77-1-14.07-1-19v-1c0-4.74.61-10.01 1-14 0-21.16-1-39.21-1-60-3.66-22.53-3.47-49.48-3-73 .04-2.21.94-3.74 0-6-4.08 6.17-1.37 15.11-2 23-.63 7.89.52 16.96 0 25s1.18 14.96 1 23c-.18 8.04.14 16.93 0 25s.2 15.96 0 24 .38 17.07 0 25c-.39 7.93-1.72 14.48-.33 22.33 1.39 7.85-.23 16.65.33 24.67.56 8.02-.55 16.01 0 24 .55 7.99-.9 17.13.01 24.99.9 7.86 1.13 14.92.99 23.01-.14 8.09-.08 16.99 0 25 .08 8.01-.41 16.14.07 23.93.48 7.79 2.16 16.03.93 24.07s2.58 12.97 4 16Z"/><path fill="none" fill-opacity="0" stroke="#8F9092" stroke-width=".3" d="M396 728h6c-.87-23.61-1.96-48.85-2-73-.04-24.15-3.87-49.88-2-74 1.87-24.12-10.53-52.59-6.07-75.07 4.45-22.48 28.48-26.74 43.32-40.68 14.84-13.95 30.38-23.13 39.06-43.94 8.67-20.82 7.47-51.42 9.69-74.31v-19c-.4-4.09-1.77-8.84 0-13v-2c0-23.51-.27-48.65 0-72s-1.69-47.23-1-70c.69-22.77-1.7-43.69 0-66 1.7-22.31-3.45-46.65 2-67-.25-.24-.76-.75-1-1-4.17 2.95.56 14.06-2.07 18.93-2.63 4.86-.58 13.93-.93 20.07-.35 6.14-.35 14.46 0 21 .35 6.54-1 11.96-.98 17.98.03 6.01 1.78 12.21-.02 19.02-1.8 6.81 2.06 12.32 1 20s1.09 11.81-.02 20.97c-1.11 9.17.6 23.14.02 34.03s.35 12.27 0 21 .36 13.28 0 21c-.36 7.72.6 13.8 0 21-.6 7.2 1.35 13.97-.22 20.78-1.57 6.81.18 11.46.2 18.2.01 6.74-1.77 12.43-.98 20.02s-.69 12.48 0 21-1.06 10.52 0 21-1.05 25.96-4.01 35.99c-2.95 10.03-8.38 19.34-15.24 26.76-6.85 7.43-13.39 14.42-21.52 20.48-8.13 6.06-17.28 10.86-25 17-7.72 6.14-15.63 11.46-21.98 19.02-6.35 7.56-3.33 7.65-6.26 14.74-2.93 7.1-.17 12.34.03 18.99.21 6.64 2.97 9.96 2.98 16.02.01 6.06.87 12.91 2 19s.02 11.96 1 18c.98 6.04-.68 13.28 0 19 .69 5.72.91 14.03 1.02 19.97.11 5.94 1.57 11.46.98 18.03-.59 6.57.71 13.01-.02 18.98-.73 5.96.12 12.5.02 19.02-.1 6.52 1.01 11.98 1.02 17.98.02 5.99.85 10.94-.02 17.02s2.33 12.69 1 19Z"/><path fill="none" fill-opacity="0" stroke="#7C7F7E" stroke-opacity=".98" stroke-width=".3" d="M484 313c5.38-12.67-1.09-29.82 1-44s-1.64-30.45 0-45-1.86-30.77-1-45c.86-14.23-.04-28.83 0-43 .04-14.17.31-28.41.33-42.67.02-14.26-.75-28.8 1.67-42.33.17-2.53 1.3-9.48 1-11-.62-1.08-1.14-1.18-2-2-5.45 20.35-.3 44.69-2 67-1.7 22.31.69 43.23 0 66-.69 22.77 1.27 46.65 1 70s0 48.49 0 72Z"/><path fill="none" fill-opacity="0" stroke="#676869" stroke-opacity=".67" stroke-width=".3" d="M275 389c.66-.62 2.12-1 3-1 2.26-3.02-2.04-10.96-.66-15.32 1.38-4.36-.4-10.52-.27-15.61.14-5.08 1.16-9.68.6-15.4-.56-5.72.7-8.98.31-15.65-.39-6.66.12-7.02-.19-15.79s-.15-21.75-.12-30.56c.03-8.81.09-8.85.32-15.66.24-6.81-.5-8.93-.01-14.99.48-6.05-1.2-9.56-.19-15.79 1-6.23-1.52-8.06-.72-15.16.81-7.09-.53-6.6.15-15.85s.11-21.54.71-31.14c.6-9.61-.31-5.62-.58-15.39-.27-9.76 1.4-20.71-.35-30.69-4.61-26.21-3.02-56.08-3-83 0-2.8-.69-1.82-1-3-.72 11.44-1.51 23.23-1 35s-.71 24.3 0 36-1.42 24.5.07 35.93-1.41 22.41-.07 34.07c1.34 11.66.1 23.21 1 35s-2.38 23.63-.99 34.99c1.39 11.36-.28 22.78-.01 34.01.27 11.23.85 23.82 1 35 .15 11.18-1.46 25.64 0 36s-4.67 26.82 2 34Z"/><path fill="none" fill-opacity="0" stroke="#7C7F7E" stroke-opacity=".79" stroke-width=".3" d="M311 40c-1.42 9.75-.71 20.06 0 29 2.1 26.47-.79 53.44 0 80 .79 26.56 0 53.41 0 80 0 55.33-.01 110.67 0 166v1s.68-.24 1 0c5.18-57.28-.41-116.22 1-174s1-115.16 1-173c-.06-.62-.58-9.55-1-10-.27-.09-1.9.78-2 1Z"/><path fill="none" fill-opacity="0" stroke="#8F9092" stroke-opacity=".72" stroke-width=".3" d="M314 49c0-1.82.99-9.38-1-10 .42.45.94 9.38 1 10Z"/><path fill="none" fill-opacity="0" stroke="#7C7F7E" stroke-opacity=".58" stroke-width=".3" d="M455 41c-2.25 4.7-.53 10.43-1 16s-.62 12.47-1 18c1.39 9.64 2.54 22.99 2 35-.54 12.01.29 24.13-1 36-1.29 11.87 1.15 25.07 0 37s-1.11 24.58 0 36c1.2-59.68 2.81-120 3-180-.69.3-1.73 1.44-2 2Z"/><path fill="none" fill-opacity="0" stroke="#8F9092" stroke-opacity=".98" stroke-width=".3" d="M454 219c-.18 8.99 0 18.01 0 27 0 11.38.28 22.61 0 34s.72 23.67 0 35c-.72 11.33 1.63 23.95 0 35s3.63 24.63 0 35c7.3-11.03-.41-29.62 2-43 2.41-13.38-1.96-30.14 0-44s-.02-28 0-42 1.67-28.55 1-43c-.67-14.45.5-29.48 0-44s.21-28.79 1-43-.21-29.72 0-44c.21-14.28.67-29.5-1-43-.19 60-1.8 120.32-3 180Z"/><path fill="none" fill-opacity="0" stroke="#7C7F7E" stroke-opacity=".41" stroke-width=".3" d="M241 41c-2.32 8.34-.48 17.72-1 26 .88 4.31-.07 12.92-1 19 .1 2.08.43 2.15 0 4 .76 8.64 1 18.66 1 28 0-.04 1 0 1 0 0-22.4.54-46.54 3-68v-5c-.11-.79-3.4-6.51-3-4Z"/><path fill="none" fill-opacity="0" stroke="#8F9092" stroke-width=".3" d="M346 403c-5.11-4.9 1.22-17.24-1.98-24.02-3.19-6.79-.12-18.01-1.02-25.98-.9-7.97.56-17.61 0-26s.61-18.52 0-27 2.22-16.54 1-25c-1.22-8.46-1.11-17.23-1-26 .11-8.77-.09-17.23 0-26s-.13-18.29 0-27-.27-17.43 0-26-1.56-17.64-1-26 2.36-16.61 1-25c-1.36-8.39-.78-16.66 0-25s-3.36-15.62-2-24c1.36-8.38 1.65-16.23 2-25-.11-.81-.69-3.73-1-5 1.14 8.92-2.63 19.59-3 29-.37 9.41 3.56 19.21 1.99 28.99-1.56 9.79-.42 19.93.01 30.01.43 10.08-2.14 19.89-.93 29.93 1.22 10.04.98 20.68.93 31.07-.05 10.39 0 20.63 0 31 0 10.37-.05 20.63 0 31 .05 10.37-.13 21.71 0 32s-.31 20.96 0 31-.66 22.49 0 32c.66 9.51-1.96 22.06 1 30 2.97 7.93-3.34 22.61 4 27Z"/><path fill="none" fill-opacity="0" stroke="#676869" stroke-opacity=".65" stroke-width=".3" d="M343 45c-.35 8.77-.64 16.62-2 25-1.36 8.38 2.78 15.66 2 24-.78 8.34-1.36 16.61 0 25s-.44 16.64-1 25 1.27 17.43 1 26 .13 17.29 0 26 .09 18.23 0 27 .11 17.23 0 26-.22 17.54 1 26-1.61 16.52-1 25c.61 8.48-.56 18.61 0 27s-.9 18.03 0 26c.9 7.97-2.17 19.19 1.02 25.98 3.2 6.78-3.13 19.12 1.98 24.02 1.75 1.04 1.83.23 4 0-.25-.27 0-1 0-1-4.63-1.69-.02-13.78-1.02-18.98-1.01-5.19-.3-14.64-.77-20.79-.46-6.15.52-13.37-.01-19.98-.54-6.62-.2-16.8-.2-24.25v-11c0-45.5 1.55-93.85.02-134.98C346.5 130.9 352.27 88.82 346 48c-.56-1.71-2.35-3.29-2-7 0 0-.02-.5 0-1-.21 1.27-.92 3.09-1 5Z"/><path fill="none" fill-opacity="0" stroke="#535456" stroke-opacity=".72" stroke-width=".3" d="M486 51c-1.53 22.48.75 46.07 0 69s.17 44.02 0 67c-.17 22.98-.7 48.29 0 71s.42 45.86 0 68 .24 49.4-1 70-6.29 37.68-18.3 52.7c-12.01 15.02-22.32 23.31-37.78 33.22s-34.07 19.24-26.14 40.3c7.92 21.07 2.67 43.36 5.22 65.78s-.44 47.21 1 70 1.93 45.86 2 69l5 1c-.83-34.15-1.97-69.13-2.34-104.32-.37-35.2-2.54-76.51-1.66-109.68 9.78-3.81 19.02-9.03 27.08-15.92 8.06-6.88 16.92-12.25 24.15-21.85 7.23-9.6 10.73-14.74 15.8-26.2 5.06-11.47 5.97-18.99 7.66-30.34 1.7-11.34 2.98-29.56 3.31-41.69.33-12.13 1.43-25.4.65-37.31-.79-11.91.27-25.8.33-37.67.05-11.86-.2-24.13 0-36 .19-11.86-.41-23.97 0-35.99.4-12.02-.67-24.32-.65-36.36.03-12.03-.16-28.9-.11-41.45.05-12.54 1.28-23.48.45-35.55-.84-12.06.75-27.41-.69-38.65-1.45-11.24 2.88-28.81-2.98-39.02.3 1.52-.83 8.47-1 11m-75 545v19c-1.63-5.26-1.69-13.81 0-19Z"/><path fill="none" fill-opacity="0" stroke="#A4A5A7" stroke-width=".3" d="M244 45v5c0 25.97-.44 51.25-1 77s.32 53.37 0 79c-.32 25.63.3 52.87 0 78-.3 25.13.62 54.14 1 78s-.13 48.75 9.92 68.08c10.05 19.32 23.77 27.09 39.31 39.69 15.54 12.6 32.43 25.37 26.38 46.98-6.06 21.61-4.88 49.93-5.61 73.25-.73 23.32.19 43.19-.6 64.74-.79 21.56-.49 51.78-.4 73.26h7c-1.63-10.51.57-19.6 0-31-.57-11.4 1.04-24.74.78-35.78-.26-11.03-1.09-24.36.22-35.22s-1.42-20.58.22-30.78c1.64-10.2-.44-18.45.78-29.22s1.15-23.66 3.22-33.78c2.07-10.12 5.16-21.02 3.11-30.55-2.06-9.53-6.98-16.81-13.43-23.57-6.45-6.76-12.89-10.13-20.15-15.85-7.26-5.71-13.98-9.62-21-16-7.01-6.39-11.94-12.06-16.5-20.5-4.55-8.44-9.08-16.9-9.47-27.53-.39-10.63-2.69-22.83-2.78-34.22-.09-11.39-.01-24.16 0-36s-.11-24.96 0-37-.27-24.96 0-37-.62-25.16 0-37-1.01-23.87-.99-34.99c.02-11.12 1.31-22.03.99-34.01-.32-11.98-.72-24.65.67-36.33 1.39-11.68-1.25-25.03.33-36.67s-2.61-23.72-2-34c-.15 1.29 0 2.7 0 4Z"/><path fill="none" fill-opacity="0" stroke="#535456" stroke-opacity=".1" stroke-width=".3" d="M346 48c-.37-2.39-1.16-5.07-2-7-.35 3.71 1.44 5.29 2 7Z"/><path fill="none" fill-opacity="0" stroke="#535456" stroke-opacity=".18" stroke-width=".3" d="M277 125c-1.23-24.55 3.67-57.86-3-83-.02 26.92-1.61 56.79 3 83ZM418 116c0-24.73 1.37-50.21-3-73-.47 23.52-.66 50.47 3 73Z"/><path fill="none" fill-opacity="0" stroke="#F5F6F8" stroke-width=".3" d="M258 52c5.36-10.92-8.9-6.48 0 0Z"/><path fill="none" fill-opacity="0" stroke="#8F9092" stroke-width=".3" d="M241 118c0 25.39-.15 51.71 0 77s-.38 53.15 0 78-1.03 53.04.33 76.67c1.36 23.63 1.09 50.93 6 72 4.91 21.08 20.82 30.25 33.37 43.63 12.55 13.38 38.01 20.69 35.3 42.7-2.71 22.01-6.54 41.53-5.99 65.01.54 23.48.35 53.54-.01 77.99-.36 24.45-1.81 51.96-1 77h4c-.09-21.48-.39-51.7.4-73.26.79-21.55-.13-41.42.6-64.74.73-23.32-.45-51.64 5.61-73.25 6.05-21.61-10.84-34.38-26.38-46.98-15.54-12.6-29.26-20.37-39.31-39.69-10.05-19.33-9.54-44.22-9.92-68.08-.38-23.86-1.3-52.87-1-78 .3-25.13-.32-52.37 0-78 .32-25.63-.56-53.25 0-79s1-51.03 1-77c-2.46 21.46-3 45.6-3 68Z"/><path fill="none" fill-opacity="0" stroke="#676869" stroke-opacity=".16" stroke-width=".3" d="M381 107c4.43-2.02 1.43-13.28 3-18 1.57-4.72.01-14.05-.67-19.33-.68-5.28 1.01-13.12.67-18.67-1.52 8.02-2.02 19.81-2.02 28.97S381 97.14 381 107Z"/><path fill="none" fill-opacity="0" stroke="#676869" stroke-width=".3" d="M484 313v34c0 19.82.93 46.46-3.32 64.68-4.26 18.22-12.7 30.14-25.93 43.07s-22.91 20.05-38.83 30.17c-15.93 10.11-24.5 24.35-17.92 44.08 6.57 19.74 3.54 42.51 5 64 1.46 21.49.51 45.24 1.99 67.01 1.48 21.76.04 45.03 1.01 66.99l5 1c-.07-24.14-.56-47.21-2-70s1.55-47.58-1-70 2.7-44.71-5.22-65.78c-7.93-21.06 10.68-30.39 26.14-40.3 15.46-9.91 25.77-18.2 37.78-33.22 12.01-15.02 17.06-32.1 18.3-52.7 1.24-20.6.58-47.86 1-70 .42-22.14.7-45.29 0-68s-.17-48.02 0-71c.17-22.98-.75-44.07 0-67s-1.53-46.52 0-69c-2.42 13.53-1.65 28.07-1.67 42.33-.02 14.26-.29 28.5-.33 42.67-.04 14.17.86 28.77 0 43s2.64 30.45 1 45c-1.64 14.55 2.09 30.82 0 45s4.38 31.33-1 44Z"/><path fill="none" fill-opacity="0" stroke="#676869" stroke-opacity=".13" stroke-width=".3" d="M240 67c-.4 6.26-1.32 12.16-1 19 .93-6.08 1.88-14.69 1-19ZM309 111c.12 4.15.04 10.96 0 15 1.54 17.49 1.13 36.13.8 53.75-.33 17.62.57 37.79.2 55.25.24-1.88.85-4.73 1-6 0-26.59.79-53.44 0-80-.79-26.56 2.1-53.53 0-80-.25 13.99-1.05 28.09-2 42Z"/><path fill="none" fill-opacity="0" stroke="#676869" stroke-opacity=".15" stroke-width=".3" d="M452 272c1.48-7.69 1.25-18.29 2-26 0-8.99-.18-18.01 0-27-1.11-11.42-1.15-24.07 0-36s-1.29-25.13 0-37c1.29-11.87.46-23.99 1-36 .54-12.01-.61-25.36-2-35-2.46 36.09 1.41 61.55-1 95s2.71 67.86 0 102Z"/><path fill="none" fill-opacity="0" stroke="#676869" stroke-opacity=".49" stroke-width=".3" d="M239 92c0 4.32.18 8.68 0 13-1.02 24.74 1.64 49.9-1 75 .06 1.87.1 4.74 0 7 1.13 6.87.24 12.99 0 20 .17 2.6.17 6.46 0 9 .09 1.8.05 2.51 0 4 .25 2.79.26 6.26 0 9 0 9.18.94 19.02 0 27 .12 2.4-.05 4.77 0 7 2.79 14.36-.2 29.2.67 44.33.86 15.12-.29 26.23.33 41.67.62 15.44.56 34.79.99 49.99.44 15.2 2.84 25.91 5.01 39.01.94-.57 1.82-1.15 3-1-.38 2.39.89 7.81 3 4 6.16 14.39 18.06 25.63 30.75 35.25 12.7 9.62 32.75 19.67 27.25 39.75 7.97-27.39-18.33-34.89-36.75-52.25C253.83 446.4 241.83 426.46 242 399c.17-27.46-2.91-60.88-2-91 .91-30.12-.34-64.14 0-95s0-63.94 0-95c0-9.34-.24-19.36-1-28-.11.47 0 1.5 0 2Z"/><path fill="none" fill-opacity="0" stroke="#D8D9DB" stroke-opacity=".01" stroke-width=".3" d="M381 191c0-9.18.98-19.65 1-28-.34-3.6-.91-7.69-1-11-.08-2.97-.15-6.03 0-9 .56-11.25 2.53-23.95 0-35-4.51 6.1.14 20.03-1 28-1.14 7.97-.16 19.77 0 28s-2.05 19.84 1 27Z"/><path fill="none" fill-opacity="0" stroke="#7C7F7E" stroke-opacity=".78" stroke-width=".3" d="M309 516c-.22 2.75-.84 5.1-1 8-.2 3.66.15 7.34 0 11-1.98-.47.11-3.6-2-4-.02.34-.95.77-1 1 .93 24.35-.73 48.72 0 73 .12 4.11-.27 7.63 0 12 1.55 20.16.92 42.11 1 63-1.39-.26-.78-2.05-1-3-.21 4.92-.33 11.93-1 17 .06 1.56.12 4.45 0 6 .35 3.97.22 8.62 1 13 .78 4.35 1.5 9.96 1 15h3c-.81-25.04.64-52.55 1-77 .36-24.45.55-54.51.01-77.99-.55-23.48 3.28-43 5.99-65.01 2.71-22.01-22.75-29.32-35.3-42.7-12.55-13.38-28.46-22.55-33.37-43.63-4.91-21.07-4.64-48.37-6-72-1.36-23.63.05-51.82-.33-76.67s.15-52.71 0-78 0-51.61 0-77c0 0-1-.04-1 0 0 31.06.34 64.14 0 95s.91 64.88 0 95c-.91 30.12 2.17 63.54 2 91-.17 27.46 11.83 47.4 30.25 64.75 18.42 17.36 44.72 24.86 36.75 52.25Z"/><path fill="none" fill-opacity="0" stroke="#676869" stroke-opacity=".04" stroke-width=".3" d="M381 152c.23-2.59.15-6.39 0-9-.15 2.97-.08 6.03 0 9Z"/><path fill="none" fill-opacity="0" stroke="#676869" stroke-opacity=".05" stroke-width=".3" d="M381 191v28c1.66-17.14 2.68-38.07 1-56-.02 8.35-1 18.82-1 28Z"/><path fill="none" fill-opacity="0" stroke="#535456" stroke-opacity=".02" stroke-width=".3" d="M418 190c2.22-3 1-10.01 1-14-.39 3.99-1 9.26-1 14Z"/><path fill="none" fill-opacity="0" stroke="#535456" stroke-opacity=".02" stroke-width=".3" d="M419 210c0-4.94 1.79-15.23-1-19 0 4.93-1.79 15.23 1 19Z"/><path fill="none" fill-opacity="0" stroke="#676869" stroke-opacity=".01" stroke-width=".3" d="M238 216c.17-2.54.17-6.4 0-9-.1 2.97-.14 6.04 0 9Z"/><path fill="none" fill-opacity="0" stroke="#535456" stroke-opacity=".03" stroke-width=".3" d="M419 225v-14c-2.64 3.56-.39 10.32 0 14Z"/><path fill="none" fill-opacity="0" stroke="#676869" stroke-opacity=".01" stroke-width=".3" d="M238 229c.26-2.74.25-6.21 0-9-.1 2.99 0 6.01 0 9Z"/><path fill="none" fill-opacity="0" stroke="#7C7F7E" stroke-opacity=".21" stroke-width=".3" d="M310 235c-1.87 14.91-2.65 34.03-1 48 .51 4.3 1.67 9.99 1 15-2.39 17.85-1 40.06-1 61 0 4.84-.99 10.98-1 15 .77 8.19 1.31 15.83 0 24 1.37-.43 1.23-2.66 3-3-.01-55.33 0-110.67 0-166-.15 1.27-.76 4.12-1 6Z"/><path fill="none" fill-opacity="0" stroke="#535456" stroke-opacity=".04" stroke-width=".3" d="M419 303v-73c-2.41 22.73-2.21 50.19 0 73Z"/><path fill="none" fill-opacity="0" stroke="#7C7F7E" stroke-opacity=".37" stroke-width=".3" d="M452 272c-.85 10.7-1 20.49-1 32 0 19.29.74 38.73 0 58-.17 4.5-.15 7.63 0 12 .15 4.44 1.11 9.99-2 13-.64.62-1.27 1.53-2 2 1.36-.72 4.97-1.97 5-2 .37-.6 1.59-1.39 2-2 3.63-10.37-1.63-23.95 0-35s-.72-23.67 0-35c.72-11.33-.28-23.61 0-35s0-22.62 0-34c-.75 7.71-.52 18.31-2 26Z"/><path fill="none" fill-opacity="0" stroke="#676869" stroke-opacity=".04" stroke-width=".3" d="M310 298c.67-5.01-.49-10.7-1-15-.16 4.9 1.1 10.54 1 15Z"/><path fill="none" fill-opacity="0" stroke="#7C7F7E" stroke-width=".3" d="M484 328v-13c-1.77 4.16-.4 8.91 0 13ZM402 728h4c-.97-22.96.47-46.23-1.01-67.99-1.48-21.77-.53-45.52-1.99-67.01-1.46-21.49 1.57-44.26-5-64-6.58-19.73 1.99-33.97 17.92-44.08 15.92-10.12 25.6-17.24 38.83-30.17 13.23-12.93 21.67-24.85 25.93-43.07 4.25-18.22 3.32-44.86 3.32-64.68-2.22 22.89-1.02 53.49-9.69 74.31-8.68 20.81-24.22 29.99-39.06 43.94-14.84 13.94-38.87 18.2-43.32 40.68-4.46 22.48 7.94 50.95 6.07 75.07-1.87 24.12 1.96 49.85 2 74 .04 24.15 1.13 49.39 2 73Z"/><path fill="none" fill-opacity="0" stroke="#D8D9DB" stroke-width=".3" d="M398 366c-9.95 9.31.65 33.5-12.25 41.75-12.91 8.24-32.41.23-46.75 1.25-7.91-11.62-2.38-27.48-12-38-9.72 7.63-3.25 18.66-8.75 28.25-5.5 9.58-19.09 4.53-27.17 1.67-8.08-2.86-17.33-8.59-25.08-8.92-1.5-4.94-4.92-8.94-6-14-10.99 6.96-2.78 25.22 4.25 34.75 7.03 9.54 17.35 15.7 27.72 21.28 10.38 5.57 23.3 10.25 34.81 14.19 11.5 3.95 22.47 4.57 35.55 4.11 13.08-.46 25.22-5.35 36.99-10.01 11.77-4.65 21.98-9.07 32.99-14.01 11-4.95 21.27-11.02 28.94-20.06 7.67-9.05 17.98-25.24 4.75-32.25-1.58 11.84-11.14 16.54-21.32 20.68-10.19 4.14-21.3 8.94-31.68 6.32-10.69-9.5-5.96-26.1-15-37Z"/><path fill="none" fill-opacity="0" stroke="#A4A5A7" stroke-opacity=".08" stroke-width=".3" d="M447 389c-.92.6-3.1 2.55-4 3 2.58-.67 5.52-1.19 8-2 .22-.19.67-2.46 1-3-.03.03-3.64 1.28-5 2Z"/><path fill="none" fill-opacity="0" stroke="#C2C3C5" stroke-opacity=".14" stroke-width=".3" d="M291 393c.11 2.09 4.27 1.87 2 4 2.75-1.1 5.2-.71 8 0-3.76-3.02-6.99-3.27-10-4Z"/><path fill="none" fill-opacity="0" stroke="#A4A5A7" stroke-opacity=".13" stroke-width=".3" d="M308 398c-.65.2-2.32.11-3 0 .88.35 3.6 2.03 5 1 .33-.52.74-2.3 1-3v-1c-1.77.34-1.63 2.57-3 3Z"/><path fill="none" fill-opacity="0" stroke="#BABBBD" stroke-opacity=".64" stroke-width=".3" d="M422 398h-1c-.5 0-1.58-.18-2 0-.26.11-.75 1.08-1 1 5.95 1.69 14.38-.64 21-3-3.81.95-12.99.19-17 2Z"/><path fill="none" fill-opacity="0" stroke="#BABBBD" stroke-opacity=".39" stroke-width=".3" d="M310 399c-1.4 1.03-4.12-.65-5-1-1.24-.2-1.64-.99-3-1v3c3.03-.43 5.99 2.16 8-1Z"/><path fill="none" fill-opacity="0" stroke="#C2C3C5" stroke-opacity=".51" stroke-width=".3" d="M347 406h36c-.41-1.38-2.99-2.8-4-3-1.45.37-3.5 0-5 0h-1c-3.71 2.75-11.25.4-15 0h-5c-1.11.14-5.37 2.98-6 3Z"/><path fill="none" fill-opacity="0" stroke="#A4A5A7" stroke-opacity=".03" stroke-width=".3" d="M373 403h-15c3.75.4 11.29 2.75 15 0Z"/><path fill="none" fill-opacity="0" stroke="#535456" stroke-opacity=".78" stroke-width=".3" d="M245 438c8.51 28.4 30.99 54.2 58 69 1.99 8.63 1.66 16.16 2 25 .05-.23.98-.66 1-1 .21-3.36 1.53-5.4 2-7 .16-2.9.78-5.25 1-8 5.5-20.08-14.55-30.13-27.25-39.75-12.69-9.62-24.59-20.86-30.75-35.25-2.11 3.81-3.38-1.61-3-4-1.18-.15-2.06.43-3 1Z"/><path fill="none" fill-opacity="0" stroke="#676869" stroke-opacity=".65" stroke-width=".3" d="M306 531c2.11.4.02 3.53 2 4 .15-3.66-.2-7.34 0-11-.47 1.6-1.79 3.64-2 7Z"/><path fill="none" fill-opacity="0" stroke="#676869" stroke-opacity=".91" stroke-width=".3" d="M411 596c-1.69 5.19-1.63 13.74 0 19v-19Z"/><path fill="none" fill-opacity="0" stroke="#676869" stroke-opacity=".08" stroke-width=".3" d="M305 619c0 20.63.79 39.2 0 58 .22.95-.39 2.74 1 3-.08-20.89.55-42.84-1-63 .03.5 0 1.5 0 2Z"/><path fill="none" fill-opacity="0" stroke="#676869" stroke-opacity=".24" stroke-width=".3" d="M304 720c.11 1.89 1.99 5.39 1 8h1c.5-5.04-.22-10.65-1-15-.05 1.89-.74 4.87-1 7Z"/><path fill="none" fill-opacity="0" stroke="#7C7F7E" stroke-opacity=".03" stroke-width=".3" d="M304 728h1c.99-2.61-.89-6.11-1-8-.33 2.7-1.88 5.54 0 8Z"/><path fill="#C2C3C5" fill-opacity=".06" d="M246 35c.99-.56 2.11-.53 3-1 2.44-1.9 6.08-2.5 8-5-5.16-.39-8.34 3.18-11 6Z"/><path fill="#BABBBD" d="M249 34c-2.36 1.84-4.62 3.7-5 7-.61 10.28 3.58 22.36 2 34s1.06 24.99-.33 36.67c-1.39 11.68-.99 24.35-.67 36.33.32 11.98-.97 22.89-.99 34.01-.02 11.12 1.61 23.15.99 34.99-.62 11.84.27 24.96 0 37s.11 24.96 0 37 .01 25.16 0 37-.09 24.61 0 36 2.39 23.59 2.78 34.22c.39 10.63 4.92 19.09 9.47 27.53 4.56 8.44 9.49 14.11 16.5 20.5 7.02 6.38 13.74 10.29 21 16 7.26 5.72 13.7 9.09 20.15 15.85 6.45 6.76 11.37 14.04 13.43 23.57 2.05 9.53-1.04 20.43-3.11 30.55-2.07 10.12-2 23.01-3.22 33.78-1.22 10.77.86 19.02-.78 29.22-1.64 10.2 1.09 19.92-.22 30.78s-.48 24.19-.22 35.22c.26 11.04-1.35 24.38-.78 35.78.57 11.4-1.63 20.49 0 31h63c-.34-9.7-.03-21.61 0-32s-1.19-18.23-1.93-27.08c-.75-8.85 2.82-18.54.6-27.59-2.22-9.05-.03-16.91-.07-25.07-.04-8.17-4.52-17.31-3.4-25.51 1.12-8.19-.74-18.62-2.18-26.78-1.43-8.15-4.32-19.43-4.26-26.22-6.17-5.22-3.51-17.81-3.56-25-.05-7.18 2.46-14.95 7.11-21.44 4.64-6.5 12.43-11.46 17.61-17.39 5.18-5.94 13.99-8.54 20.33-13.67 6.34-5.14 15.55-7.56 21.98-13.02s13.4-9.17 19.52-15.48c6.12-6.31 11.46-10.52 15.17-18.83 3.71-8.31 6.89-17.8 7.08-27.92.19-10.12-1.4-22.78-.33-32.67 1.07-9.89-2.38-20.64-.67-31.33 1.71-10.69-.24-18.34.78-28.22 1.02-9.89-.83-23.65-.78-33.78.05-10.13 2.72-22.79 1-33-1.72-10.21 1.43-19.92 0-31-1.43-11.08.46-21.8 0-33s-.3-20.94 0-32c.3-11.06-.36-21.27 1-32 1.36-10.73-2.48-22.32.33-32.67 2.81-10.35 1.05-20.6 2.67-30.33-1.94-.43-2.97-1.83-5-2 .26-1.39 2.05-.78 3-1-2.02-.84-1.86-.11-4 0-2.24.12-3.39-.42-5-1-.39.21-1.54.14-2 0-1.05.9-3.05 2.41-5 4-7.99 12.09 1.12 28.09-1.33 42.67-2.45 14.58.36 31.44-.67 46.33-1.03 14.89-.56 29.82-.22 44.22.34 14.4-1.35 29.95.2 44.8 1.54 14.86-2.71 32.33-1.97 46.99.74 14.66 1.25 28.5 0 42-1.26 13.49 2.9 34.42-.01 46.99-2.91 12.57 5.45 36.63-8 41-2.48.81-5.42 1.33-8 2-5.91 1.53-18.95 2.18-21 6 4.01-1.81 13.19-1.05 17-2-6.62 2.36-15.05 4.69-21 3-6.74-2.24-5.04-15.88-6-23-.96-7.13-.78-19.77-1.98-28.02-1.19-8.26 1.45-18.15-.02-26.98-1.47-8.83.91-20.76 0-30-.91-9.24-1.28-17.68 0-27 1.27-9.32-2.01-19.65-1-29 1.01-9.35 1.41-17.84.22-27.22-1.18-9.38.48-18.74-.22-27.78-.69-9.05.13-18.06.35-26.69.23-8.64-.5-18.92-.35-28.31.15-9.39-.26-19.45 0-29s1.49-19.13 1-29c-.49-9.87.49-20.11 0-30-.42-1.4-3-4.06-4-5-.47-.44-1.39-.86-2-1-2.65-.09-6.71 2.73-10 2 .24-1.67 2.85-.17 3-2-2.12.15-4.06.19-6 1-.1-.11-2.9 6.33-3 7 .15 7.16-.57 12.89-1 20-.43 7.11.6 14.05 1 21 .4 6.95-1.56 13.79-1 21 .56 7.21-.26 14.76 0 22s-.14 14.78 0 22c.14 7.22-.1 13.78 0 21 .1 7.22-.13 14.74 0 22s-.24 14.76 0 22-.52 14.84 0 22-1.14 15.03 0 22c1.14 6.97.18 12.86 0 20-.18 7.14.06 13.89 0 21-.06 7.11.33 14.47-.78 21.22-1.11 6.75.26 15.08-.22 21.78-.48 6.7.49 15.77 0 22s.82 16.97 0 22c-.82 5.03 1.49 17.83-3 19-.47.12-1.62-.21-2 0-1.13.63.06 1.48-2 2 1.01.2 3.59 1.62 4 3h-36c-10.22-1.83-5.65-23.06-7.98-33.02-2.33-9.96-.65-27.14-2.02-38.98-1.37-11.84.92-28.25 0-41s1.07-27.94 0-41c-1.07-13.06.13-26.04 0-39s.01-26.24 0-39c-.01-12.76-.79-26.42-.33-38.67s-2.11-21.19.31-33.35c2.41-12.17-4.27-26.81 0-39 4.26-12.19 3.59-21.91-3.98-31.98-1.26-1.68-7.09-3.27-10.97-.97-3.89 2.29-7.74 1.09-8.03 5.97-.03.5 0 1 0 1 2.86-1.61 6.06-4.05 9.03-4.97 2.96-.93 11.58-1.1 6.97-.03 2.43 4.62 7.54 10.49 4.02 16.02-3.51 5.53-.19 12.86-4.79 17.21-4.61 4.35-6.56-7.02-7.21-11.25-.64-4.24-3.23-12.67-5.02-16.98-.93.62-1.63.86-2 2 1.78 6.9-.23 13.87 1 21 1.23 7.13-.53 15.58 0 23s-.17 15.46 0 23c.17 7.54.07 15.42 0 23s-.95 13.61 0 21c.94 7.4-.42 15.47 0 23 .42 7.53-.18 15.43 0 23s-.07 15.46 0 23c.07 7.54.01 14.47 0 22-.01 7.53.08 15.47 0 23-.08 7.53.21 15.57 0 23s.63 15.57-.33 22.67c-.96 7.1-.75 15.25-.67 22.33.08 7.08-.2 16.52 0 23s-2.1 16.65-1 22c1.1 5.35-.98 19.76-2 19-.32-.24-1 0-1 0-.26.7-.67 2.48-1 3-2.01 3.16-4.97.57-8 1v-3s-.53.12-1 0c-2.8-.71-5.25-1.1-8 0 2.27-2.13-1.89-1.91-2-4-4.54-1.1-8.99-5.01-13-5-.88 0-2.34.38-3 1-.26.24-.65.95-1 1-8.7 1.26-2.55-16.97-4-24-1.45-7.03-.41-21.42-1-30-.59-8.58-1.72-20.64-1-30s-1.15-20.64 0-30 .09-19.45 0-29 .03-18.91 0-29 .01-19.84 0-30 0-20.8 0-31-.01-20.83 0-31c.01-10.17-.03-19.88 0-30 .03-10.12-.08-20.97 0-31 .08-10.03 3.2-18.08 1-28-.29-.5-2.54-2.59-3-3-2.4-2.16-6.79-1.93-8-5 0 0-.5.04-1 0-1.92 2.5-5.56 3.1-8 5m219 29c.89-8.32-5.99-13.6-5.66-21.68.33-8.07 19.78-6.51 15.35 1.37C473.27 50.58 479.4 61.9 468 63M258 52c-8.9-6.48 5.36-10.92 0 0m140 314c9.04 10.9 4.31 27.5 15 37 10.38 2.62 21.49-2.18 31.68-6.32 10.18-4.14 19.74-8.84 21.32-20.68 13.23 7.01 2.92 23.2-4.75 32.25-7.67 9.04-17.94 15.11-28.94 20.06-11.01 4.94-21.22 9.36-32.99 14.01-11.77 4.66-23.91 9.55-36.99 10.01-13.08.46-24.05-.16-35.55-4.11-11.51-3.94-24.43-8.62-34.81-14.19-10.37-5.58-20.69-11.74-27.72-21.28-7.03-9.53-15.24-27.79-4.25-34.75 1.08 5.06 4.5 9.06 6 14 7.75.33 17 6.06 25.08 8.92 8.08 2.86 21.67 7.91 27.17-1.67 5.5-9.59-.97-20.62 8.75-28.25 9.62 10.52 4.09 26.38 12 38 14.34-1.02 33.84 6.99 46.75-1.25 12.9-8.25 2.3-32.44 12.25-41.75Z"/><path fill="#C2C3C5" fill-opacity=".11" d="M266 34c-.14-.31-.48-3.7 0-3-2.47-.53-5.05-1.05-8-2 1.21 3.07 5.6 2.84 8 5Z"/><path fill="#A4A5A7" fill-opacity=".09" d="M389 31c-.92 1.3.1 1.61 0 2 .58-.48 1.33-.72 2-1 1.94-.81 3.88-.85 6-1 2.02-.14 5.03-.46 7 0 .61.14 1.53.56 2 1-.81-.87-1.97-2.65-3-3-4.81-.38-10.84-.14-14 2Z"/><path fill="#BABBBD" fill-opacity=".27" d="M406 32c1 .94 3.58 3.6 4 5-.07-1.47-2.05-3.84 1-3-.25-.25 0-1 0-1-.34-3.48-5.31-3.79-8-4 1.03.35 2.19 2.13 3 3Z"/><path fill="#A4A5A7" fill-opacity=".98" d="M333 31c7.57 10.07 8.24 19.79 3.98 31.98-4.27 12.19 2.41 26.83 0 39-2.42 12.16.15 21.1-.31 33.35-.46 12.25.32 25.91.33 38.67.01 12.76-.13 26.04 0 39s-1.07 25.94 0 39c1.07 13.06-.92 28.25 0 41s-1.37 29.16 0 41-.31 29.02 2.02 38.98c2.33 9.96-2.24 31.19 7.98 33.02.63-.02 4.89-2.86 6-3-.98 0-2.03-.1-3 0-2.17.23-2.25 1.04-4 0-7.34-4.39-1.03-19.07-4-27-2.96-7.94-.34-20.49-1-30-.66-9.51.31-21.96 0-32s.13-20.71 0-31 .05-21.63 0-32c-.05-10.37 0-20.63 0-31 0-10.37-.05-20.61 0-31s.29-21.03-.93-31.07c-1.21-10.04 1.36-19.85.93-29.93-.43-10.08-1.57-20.22-.01-30.01 1.57-9.78-2.36-19.58-1.99-28.99.37-9.41 4.14-20.08 3-29-.51-2.07-1.81-3.24-3-5 1.63-2.49 2.06 2.06 3 0-3.13-3.13-5.92-2.78-9-4Z"/><path fill="#C2C3C5" fill-opacity=".14" d="M464 32c.5-.48-.62 2.43-1 3 1.95-1.59 3.95-3.1 5-4-1.6-.5-2.19.3-4 1Z"/><path fill="#D8D9DB" fill-opacity=".01" d="M470 31c1.61.58 2.76 1.12 5 1-1.52-.19-1.64-2.76-5-1Z"/><path fill="#BABBBD" fill-opacity=".3" d="M266 34c.46.41 2.71 2.5 3 3-.39-1.75-.4-.69 0-2-.08.27 1-2.67 1-2-1.65-1.18-1.96-1.57-4-2-.48-.7-.14 2.69 0 3Z"/><path fill="#C2C3C5" fill-opacity=".62" d="M314 37c-.1 1.54.77 1.11 1 2 .37-1.14 1.07-1.38 2-2 4.43-2.92 7.95-3.83 13-5 4.61-1.07-4.01-.9-6.97.03-2.97.92-6.17 3.36-9.03 4.97Z"/><path fill="#8F9092" fill-opacity=".97" d="M385 37c.06 8.31.46 16.81 0 26-.46 9.19.21 18.63 0 28-.21 9.37.12 19.56 0 29-.12 9.44.1 18.53 0 28-.1 9.47.15 19.53 0 29-.15 9.47.3 18.56 0 28-.3 9.44.64 19.63 0 29-.64 9.37 1.07 18.07 1 27-.07 8.93-1.62 18.71-1 28 .62 9.29.16 18.07-.98 27.02-1.13 8.96 1.31 20.09-.02 28.98s2.53 19.6 0 28c-2.53 8.4 2.45 20.23-1 28 4.49-1.17 2.18-13.97 3-19 .82-5.03-.49-15.77 0-22s-.48-15.3 0-22c.48-6.7-.89-15.03.22-21.78 1.11-6.75.72-14.11.78-21.22.06-7.11-.18-13.86 0-21 .18-7.14 1.14-13.03 0-20-1.14-6.97.52-14.84 0-22s.24-14.76 0-22 .13-14.74 0-22 .1-14.78 0-22c-.1-7.22.14-13.78 0-21-.14-7.22.26-14.76 0-22s.56-14.79 0-22c-.56-7.21 1.4-14.05 1-21-.4-6.95-1.43-13.89-1-21 .43-7.11 1.15-12.84 1-20-.04-2-1.6-3.87 1-6 .1-.39-.92-.7 0-2-2.87 1.94-3.24 3.25-4 6Z"/><path fill="#C2C3C5" fill-opacity=".73" d="M404 31c-1.97-.46-4.98-.14-7 0-.15 1.83-2.76.33-3 2 3.29.73 7.35-2.09 10-2Z"/><path fill="#D8D9DB" d="M317 37c1.79 4.31 4.38 12.74 5.02 16.98.65 4.23 2.6 15.6 7.21 11.25 4.6-4.35 1.28-11.68 4.79-17.21 3.52-5.53-1.59-11.4-4.02-16.02-5.05 1.17-8.57 2.08-13 5Z"/><path fill="#A4A5A7" fill-opacity=".45" d="M389 33c-2.6 2.13-1.04 4-1 6 .1-.67 2.9-7.11 3-7-.67.28-1.42.52-2 1Z"/><path fill="#A4A5A7" fill-opacity=".98" d="M455 41c.27-.56 1.31-1.7 2-2 1.67 13.5 1.21 28.72 1 43-.21 14.28.79 29.79 0 44s-1.5 28.48-1 43-.67 29.55 0 44-.98 29-1 43c-.02 14 1.96 28.14 0 42s2.41 30.62 0 44c-2.41 13.38 5.3 31.97-2 43-.41.61-1.63 1.4-2 2-.33.54-.78 2.81-1 3 13.45-4.37 5.09-28.43 8-41s-1.25-33.5.01-46.99c1.25-13.5.74-27.34 0-42s3.51-32.13 1.97-46.99c-1.55-14.85.14-30.4-.2-44.8-.34-14.4-.81-29.33.22-44.22s-1.78-31.75.67-46.33c2.45-14.58-6.66-30.58 1.33-42.67.38-.57 1.5-3.48 1-3-5.22 2.02-7.81 3.18-9 9Z"/><path fill="#BABBBD" fill-opacity=".15" d="M481 35c.48.1 1 0 1 0 .24-1.91-1.58-2.41-3-3-.95.22-2.74-.39-3 1 2.03.17 3.06 1.57 5 2Z"/><path fill="#7C7F7E" fill-opacity=".97" d="M269 35c1.75 5.37 3.25 11.98 1.67 18.67-1.58 6.69-.38 13.44.33 20.33.71 6.89-.42 14.14-1 21-.58 6.86 1.41 13.91 1 21-.41 7.09.14 14.84 0 22s-.03 14.9 0 22-.22 15.11 0 22c.22 6.89 1.94 14.15 1 21s-2.05 12.76-.67 19.67c1.38 6.91.24 13.34-.33 20.33-.56 6.99 1.14 13.91 1 21-.14 7.09-1.19 13.85-1 21 .19 7.15-.31 14.93 0 22s-.64 15.2 0 22c.64 6.8-1.25 14.99-1 21s1.93 14.82 2 20c.07 5.18-2.52 18.31 2 20 .35-.05.74-.76 1-1-6.67-7.18-.54-23.64-2-34s.15-24.82 0-36-.73-23.77-1-35 1.4-22.65.01-34.01 1.89-23.2.99-34.99c-.9-11.79.34-23.34-1-35s1.56-22.64.07-34.07.64-24.23-.07-35.93.51-24.23 0-36 .28-23.56 1-35c-.43-1.6 1.37-2.46 1-4-2.23 2.39-3.23-1.45-4-2 0-.67-1.08 2.27-1 2Z"/><path fill="#8F9092" d="M410 37c.49 9.89-.49 20.13 0 30 .49 9.87-.74 19.45-1 29s.15 19.61 0 29 .58 19.67.35 28.31c-.22 8.63-1.04 17.64-.35 26.69.7 9.04-.96 18.4.22 27.78 1.19 9.38.79 17.87-.22 27.22-1.01 9.35 2.27 19.68 1 29-1.28 9.32-.91 17.76 0 27 .91 9.24-1.47 21.17 0 30 1.47 8.83-1.17 18.72.02 26.98 1.2 8.25 1.02 20.89 1.98 28.02.96 7.12-.74 20.76 6 23 .25.08.74-.89 1-1-5.92-.75-3.38-16.63-4-23-.62-6.37.26-19.26-1.33-26.67s1.26-17.01.33-25.33c-.93-8.32-1.23-18.14-1-27 .23-8.86-.24-18.02 0-27s.01-18.39-.93-27.07c-.93-8.69 1.18-18.22.93-26.93-.25-8.71-2.08-17.36-1-26s.57-17.21 0-26 2.4-17.38 1-26c-1.4-8.62-1.17-17.8-.22-26.22.95-8.42-.63-17.59-.78-25.78-.15-8.19 1.18-20.64 0-28-1.18-7.36 2.8-19.26-1-23-3.05-.84-1.07 1.53-1 3Z"/><path fill="#7C7F7E" fill-opacity=".95" d="M411 34c3.8 3.74-.18 15.64 1 23 1.18 7.36-.15 19.81 0 28 .15 8.19 1.73 17.36.78 25.78-.95 8.42-1.18 17.6.22 26.22 1.4 8.62-1.57 17.21-1 26 .57 8.79 1.08 17.36 0 26s.75 17.29 1 26-1.86 18.24-.93 26.93c.94 8.68 1.17 18.09.93 27.07-.24 8.98.23 18.14 0 27s.07 18.68 1 27c.93 8.32-1.92 17.92-.33 25.33 1.59 7.41.71 20.3 1.33 26.67.62 6.37-1.92 22.25 4 23 .42-.18 1.5 0 2 0-.32-2.73-.8-6.14-1-8-1.42-3.03-5.23-7.96-4-16 1.23-8.04-.45-16.28-.93-24.07-.48-7.79.01-15.92-.07-23.93s-.14-16.91 0-25-.09-15.15-.99-23.01c-.91-7.86.54-17-.01-24.99-.55-7.99.56-15.98 0-24s1.06-16.82-.33-24.67c-1.39-7.85-.06-14.4.33-22.33.38-7.93-.2-16.96 0-25s-.14-15.93 0-24-.18-16.96 0-25-1.52-14.96-1-23-.63-17.11 0-25c.63-7.89-2.08-16.83 2-23-.64-1.53-2.85-3.1-4-4 0 0-.25.75 0 1Z"/><path fill="#A4A5A7" fill-opacity=".49" d="M246 35c-2.56 1.45-4.63 4.67-5 6-.4-2.51 2.89 3.21 3 4 0-1.3-.15-2.71 0-4 .38-3.3 2.64-5.16 5-7-.89.47-2.01.44-3 1Z"/><path fill="#8F9092" fill-opacity=".26" d="M342 40c.31 1.27.89 4.19 1 5 .08-1.91.79-3.73 1-5 .08-1.72-.32-3.32-2-5-.94 2.06-1.37-2.49-3 0 1.19 1.76 2.49 2.93 3 5Z"/><path fill="#8F9092" d="M269 37c2.2 9.92-.92 17.97-1 28-.08 10.03.03 20.88 0 31-.03 10.12.01 19.83 0 30-.01 10.17 0 20.8 0 31s-.01 20.84 0 31-.03 19.91 0 30-.09 19.45 0 29 1.15 19.64 0 29 .72 20.64 0 30 .41 21.42 1 30c.59 8.58-.45 22.97 1 30 1.45 7.03-4.7 25.26 4 24-4.52-1.69-1.93-14.82-2-20-.07-5.18-1.75-13.99-2-20s1.64-14.2 1-21c-.64-6.8.31-14.93 0-22s.19-14.85 0-22 .86-13.91 1-21-1.56-14.01-1-21c.57-6.99 1.71-13.42.33-20.33-1.38-6.91-.27-12.82.67-19.67.94-6.85-.78-14.11-1-21-.22-6.89.03-14.9 0-22s-.14-14.84 0-22-.41-14.91 0-22-1.58-14.14-1-21c.58-6.86 1.71-14.11 1-21-.71-6.89-1.91-13.64-.33-20.33 1.58-6.69.08-13.3-1.67-18.67-.4 1.31-.39.25 0 2Z"/><path fill="#A4A5A7" fill-opacity=".99" d="M311 40c.1-.22 1.73-1.09 2-1 1.99.62 1 8.18 1 10 0 57.84.41 115.22-1 173s4.18 116.72-1 174c1.02.76 3.1-13.65 2-19s1.2-15.52 1-22c-.2-6.48.08-15.92 0-23s-.29-15.23.67-22.33c.96-7.1.12-15.24.33-22.67.21-7.43-.08-15.47 0-23 .08-7.53-.01-15.47 0-23 .01-7.53.07-14.46 0-22-.07-7.54.18-15.43 0-23s.42-15.47 0-23c-.42-7.53.94-15.6 0-23-.95-7.39-.07-13.42 0-21s.17-15.46 0-23c-.17-7.54.53-15.58 0-23s1.23-15.87 0-23c-1.23-7.13.78-14.1-1-21-.23-.89-1.1-.46-1-2 0 0-.03-.5 0-1-2.19-1.79-2.75 2.32-3 4Z"/><path fill="#A4A5A7" d="M383 728h13c1.33-6.31-1.87-12.92-1-19 .87-6.08.04-11.03.02-17.02-.01-6-1.12-11.46-1.02-17.98.1-6.52-.75-13.06-.02-19.02.73-5.97-.57-12.41.02-18.98s-.87-12.09-.98-18.03c-.11-5.94-.33-14.25-1.02-19.97-.68-5.72.98-12.96 0-19-.98-6.04.13-11.91-1-18s-1.99-12.94-2-19c-.01-6.06-2.77-9.38-2.98-16.02-.2-6.65-2.96-11.89-.03-18.99 2.93-7.09-.09-7.18 6.26-14.74 6.35-7.56 14.26-12.88 21.98-19.02 7.72-6.14 16.87-10.94 25-17 8.13-6.06 14.67-13.05 21.52-20.48 6.86-7.42 12.29-16.73 15.24-26.76 2.96-10.03 5.07-25.51 4.01-35.99-1.06-10.48.69-12.48 0-21s.79-13.41 0-21 .99-13.28.98-20.02c-.02-6.74-1.77-11.39-.2-18.2 1.57-6.81-.38-13.58.22-20.78.6-7.2-.36-13.28 0-21 .36-7.72-.35-12.27 0-21s-.58-10.11 0-21-1.13-24.86-.02-34.03c1.11-9.16-1.04-13.29.02-20.97s-2.8-13.19-1-20c1.8-6.81.05-13.01.02-19.02-.02-6.02 1.33-11.44.98-17.98-.35-6.54-.35-14.86 0-21 .35-6.14-1.7-15.21.93-20.07 2.63-4.87-2.1-15.98 2.07-18.93-.63-.66-.8-1.82-2-2 0 0-.52.1-1 0-1.62 9.73.14 19.98-2.67 30.33-2.81 10.35 1.03 21.94-.33 32.67s-.7 20.94-1 32c-.3 11.06-.46 20.8 0 32s-1.43 21.92 0 33c1.43 11.08-1.72 20.79 0 31s-.95 22.87-1 33c-.05 10.13 1.8 23.89.78 33.78-1.02 9.88.93 17.53-.78 28.22-1.71 10.69 1.74 21.44.67 31.33-1.07 9.89.52 22.55.33 32.67-.19 10.12-3.37 19.61-7.08 27.92-3.71 8.31-9.05 12.52-15.17 18.83-6.12 6.31-13.09 10.02-19.52 15.48-6.43 5.46-15.64 7.88-21.98 13.02-6.34 5.13-15.15 7.73-20.33 13.67-5.18 5.93-12.97 10.89-17.61 17.39-4.65 6.49-7.16 14.26-7.11 21.44.05 7.19-2.61 19.78 3.8 24.25-.3 7.54 2.59 18.82 4.02 26.97 1.44 8.16 3.3 18.59 2.18 26.78-1.12 8.2 3.36 17.34 3.4 25.51.04 8.16-2.15 16.02.07 25.07 2.22 9.05-1.35 18.74-.6 27.59.74 8.85 1.96 16.69 1.93 27.08-.03 10.39-.34 22.3 0 32Z"/><path fill="#D8D9DB" d="M468 63c11.4-1.1 5.27-12.42 9.69-20.31 4.43-7.88-15.02-9.44-15.35-1.37-.33 8.08 6.55 13.36 5.66 21.68Z"/><path fill="#7C7F7E" fill-opacity=".55" d="M384 51c.34 5.55-1.35 13.39-.67 18.67.68 5.28 2.24 14.61.67 19.33-1.57 4.72 1.43 15.98-3 18 0 0-.11.52 0 1 2.53 11.05.56 23.75 0 35 .15 2.61.23 6.41 0 9 .09 3.31.66 7.4 1 11 1.68 17.93.66 38.86-1 56 0 16.12.29 34.07 0 50s.8 33.66 0 49c-.8 15.34 1.49 31.66-.2 45.75-1.68 14.1 3.13 24.35.2 37.25.38-.21 1.53.12 2 0 3.45-7.77-1.53-19.6 1-28 2.53-8.4-1.33-19.11 0-28s-1.11-20.02.02-28.98c1.14-8.95 1.6-17.73.98-27.02-.62-9.29.93-19.07 1-28 .07-8.93-1.64-17.63-1-27 .64-9.37-.3-19.56 0-29 .3-9.44-.15-18.53 0-28 .15-9.47-.1-19.53 0-29 .1-9.47-.12-18.56 0-28 .12-9.44-.21-19.63 0-29 .21-9.37-.46-18.81 0-28 .46-9.19.06-17.69 0-26-1.53 5.56-1.3 9.04-1 14Z"/><path fill="#676869" fill-opacity=".67" d="M420 390c-3.04-28.42-1-56.21-1-87-2.21-22.81-2.41-50.27 0-73v-5c-.39-3.68-2.64-10.44 0-14v-1c-2.79-3.77-1-14.07-1-19v-1c0-4.74.61-10.01 1-14 0-21.16-1-39.21-1-60-3.66-22.53-3.47-49.48-3-73 .04-2.21.94-3.74 0-6-4.08 6.17-1.37 15.11-2 23-.63 7.89.52 16.96 0 25s1.18 14.96 1 23c-.18 8.04.14 16.93 0 25s.2 15.96 0 24 .38 17.07 0 25c-.39 7.93-1.72 14.48-.33 22.33 1.39 7.85-.23 16.65.33 24.67.56 8.02-.55 16.01 0 24 .55 7.99-.9 17.13.01 24.99.9 7.86 1.13 14.92.99 23.01-.14 8.09-.08 16.99 0 25 .08 8.01-.41 16.14.07 23.93.48 7.79 2.16 16.03.93 24.07s2.58 12.97 4 16Z"/><path fill="#8F9092" d="M396 728h6c-.87-23.61-1.96-48.85-2-73-.04-24.15-3.87-49.88-2-74 1.87-24.12-10.53-52.59-6.07-75.07 4.45-22.48 28.48-26.74 43.32-40.68 14.84-13.95 30.38-23.13 39.06-43.94 8.67-20.82 7.47-51.42 9.69-74.31v-19c-.4-4.09-1.77-8.84 0-13v-2c0-23.51-.27-48.65 0-72s-1.69-47.23-1-70c.69-22.77-1.7-43.69 0-66 1.7-22.31-3.45-46.65 2-67-.25-.24-.76-.75-1-1-4.17 2.95.56 14.06-2.07 18.93-2.63 4.86-.58 13.93-.93 20.07-.35 6.14-.35 14.46 0 21 .35 6.54-1 11.96-.98 17.98.03 6.01 1.78 12.21-.02 19.02-1.8 6.81 2.06 12.32 1 20s1.09 11.81-.02 20.97c-1.11 9.17.6 23.14.02 34.03s.35 12.27 0 21 .36 13.28 0 21c-.36 7.72.6 13.8 0 21-.6 7.2 1.35 13.97-.22 20.78-1.57 6.81.18 11.46.2 18.2.01 6.74-1.77 12.43-.98 20.02s-.69 12.48 0 21-1.06 10.52 0 21-1.05 25.96-4.01 35.99c-2.95 10.03-8.38 19.34-15.24 26.76-6.85 7.43-13.39 14.42-21.52 20.48-8.13 6.06-17.28 10.86-25 17-7.72 6.14-15.63 11.46-21.98 19.02-6.35 7.56-3.33 7.65-6.26 14.74-2.93 7.1-.17 12.34.03 18.99.21 6.64 2.97 9.96 2.98 16.02.01 6.06.87 12.91 2 19s.02 11.96 1 18c.98 6.04-.68 13.28 0 19 .69 5.72.91 14.03 1.02 19.97.11 5.94 1.57 11.46.98 18.03-.59 6.57.71 13.01-.02 18.98-.73 5.96.12 12.5.02 19.02-.1 6.52 1.01 11.98 1.02 17.98.02 5.99.85 10.94-.02 17.02s2.33 12.69 1 19Z"/><path fill="#7C7F7E" fill-opacity=".98" d="M484 313c5.38-12.67-1.09-29.82 1-44s-1.64-30.45 0-45-1.86-30.77-1-45c.86-14.23-.04-28.83 0-43 .04-14.17.31-28.41.33-42.67.02-14.26-.75-28.8 1.67-42.33.17-2.53 1.3-9.48 1-11-.62-1.08-1.14-1.18-2-2-5.45 20.35-.3 44.69-2 67-1.7 22.31.69 43.23 0 66-.69 22.77 1.27 46.65 1 70s0 48.49 0 72Z"/><path fill="#676869" fill-opacity=".67" d="M275 389c.66-.62 2.12-1 3-1 2.26-3.02-2.04-10.96-.66-15.32 1.38-4.36-.4-10.52-.27-15.61.14-5.08 1.16-9.68.6-15.4-.56-5.72.7-8.98.31-15.65-.39-6.66.12-7.02-.19-15.79s-.15-21.75-.12-30.56c.03-8.81.09-8.85.32-15.66.24-6.81-.5-8.93-.01-14.99.48-6.05-1.2-9.56-.19-15.79 1-6.23-1.52-8.06-.72-15.16.81-7.09-.53-6.6.15-15.85s.11-21.54.71-31.14c.6-9.61-.31-5.62-.58-15.39-.27-9.76 1.4-20.71-.35-30.69-4.61-26.21-3.02-56.08-3-83 0-2.8-.69-1.82-1-3-.72 11.44-1.51 23.23-1 35s-.71 24.3 0 36-1.42 24.5.07 35.93-1.41 22.41-.07 34.07c1.34 11.66.1 23.21 1 35s-2.38 23.63-.99 34.99c1.39 11.36-.28 22.78-.01 34.01.27 11.23.85 23.82 1 35 .15 11.18-1.46 25.64 0 36s-4.67 26.82 2 34Z"/><path fill="#7C7F7E" fill-opacity=".79" d="M311 40c-1.42 9.75-.71 20.06 0 29 2.1 26.47-.79 53.44 0 80 .79 26.56 0 53.41 0 80 0 55.33-.01 110.67 0 166v1s.68-.24 1 0c5.18-57.28-.41-116.22 1-174s1-115.16 1-173c-.06-.62-.58-9.55-1-10-.27-.09-1.9.78-2 1Z"/><path fill="#8F9092" fill-opacity=".72" d="M314 49c0-1.82.99-9.38-1-10 .42.45.94 9.38 1 10Z"/><path fill="#7C7F7E" fill-opacity=".58" d="M455 41c-2.25 4.7-.53 10.43-1 16s-.62 12.47-1 18c1.39 9.64 2.54 22.99 2 35-.54 12.01.29 24.13-1 36-1.29 11.87 1.15 25.07 0 37s-1.11 24.58 0 36c1.2-59.68 2.81-120 3-180-.69.3-1.73 1.44-2 2Z"/><path fill="#8F9092" fill-opacity=".98" d="M454 219c-.18 8.99 0 18.01 0 27 0 11.38.28 22.61 0 34s.72 23.67 0 35c-.72 11.33 1.63 23.95 0 35s3.63 24.63 0 35c7.3-11.03-.41-29.62 2-43 2.41-13.38-1.96-30.14 0-44s-.02-28 0-42 1.67-28.55 1-43c-.67-14.45.5-29.48 0-44s.21-28.79 1-43-.21-29.72 0-44c.21-14.28.67-29.5-1-43-.19 60-1.8 120.32-3 180Z"/><path fill="#7C7F7E" fill-opacity=".41" d="M241 41c-2.32 8.34-.48 17.72-1 26 .88 4.31-.07 12.92-1 19 .1 2.08.43 2.15 0 4 .76 8.64 1 18.66 1 28 0-.04 1 0 1 0 0-22.4.54-46.54 3-68v-5c-.11-.79-3.4-6.51-3-4Z"/><path fill="#8F9092" d="M346 403c-5.11-4.9 1.22-17.24-1.98-24.02-3.19-6.79-.12-18.01-1.02-25.98-.9-7.97.56-17.61 0-26s.61-18.52 0-27 2.22-16.54 1-25c-1.22-8.46-1.11-17.23-1-26 .11-8.77-.09-17.23 0-26s-.13-18.29 0-27-.27-17.43 0-26-1.56-17.64-1-26 2.36-16.61 1-25c-1.36-8.39-.78-16.66 0-25s-3.36-15.62-2-24c1.36-8.38 1.65-16.23 2-25-.11-.81-.69-3.73-1-5 1.14 8.92-2.63 19.59-3 29-.37 9.41 3.56 19.21 1.99 28.99-1.56 9.79-.42 19.93.01 30.01.43 10.08-2.14 19.89-.93 29.93 1.22 10.04.98 20.68.93 31.07-.05 10.39 0 20.63 0 31 0 10.37-.05 20.63 0 31 .05 10.37-.13 21.71 0 32s-.31 20.96 0 31-.66 22.49 0 32c.66 9.51-1.96 22.06 1 30 2.97 7.93-3.34 22.61 4 27Z"/><path fill="#676869" fill-opacity=".65" d="M343 45c-.35 8.77-.64 16.62-2 25-1.36 8.38 2.78 15.66 2 24-.78 8.34-1.36 16.61 0 25s-.44 16.64-1 25 1.27 17.43 1 26 .13 17.29 0 26 .09 18.23 0 27 .11 17.23 0 26-.22 17.54 1 26-1.61 16.52-1 25c.61 8.48-.56 18.61 0 27s-.9 18.03 0 26c.9 7.97-2.17 19.19 1.02 25.98 3.2 6.78-3.13 19.12 1.98 24.02 1.75 1.04 1.83.23 4 0-.25-.27 0-1 0-1-4.63-1.69-.02-13.78-1.02-18.98-1.01-5.19-.3-14.64-.77-20.79-.46-6.15.52-13.37-.01-19.98-.54-6.62-.2-16.8-.2-24.25v-11c0-45.5 1.55-93.85.02-134.98C346.5 130.9 352.27 88.82 346 48c-.56-1.71-2.35-3.29-2-7 0 0-.02-.5 0-1-.21 1.27-.92 3.09-1 5Z"/><path fill="#535456" fill-opacity=".72" d="M486 51c-1.53 22.48.75 46.07 0 69s.17 44.02 0 67c-.17 22.98-.7 48.29 0 71s.42 45.86 0 68 .24 49.4-1 70-6.29 37.68-18.3 52.7c-12.01 15.02-22.32 23.31-37.78 33.22s-34.07 19.24-26.14 40.3c7.92 21.07 2.67 43.36 5.22 65.78s-.44 47.21 1 70 1.93 45.86 2 69l5 1c-.83-34.15-1.97-69.13-2.34-104.32-.37-35.2-2.54-76.51-1.66-109.68 9.78-3.81 19.02-9.03 27.08-15.92 8.06-6.88 16.92-12.25 24.15-21.85 7.23-9.6 10.73-14.74 15.8-26.2 5.06-11.47 5.97-18.99 7.66-30.34 1.7-11.34 2.98-29.56 3.31-41.69.33-12.13 1.43-25.4.65-37.31-.79-11.91.27-25.8.33-37.67.05-11.86-.2-24.13 0-36 .19-11.86-.41-23.97 0-35.99.4-12.02-.67-24.32-.65-36.36.03-12.03-.16-28.9-.11-41.45.05-12.54 1.28-23.48.45-35.55-.84-12.06.75-27.41-.69-38.65-1.45-11.24 2.88-28.81-2.98-39.02.3 1.52-.83 8.47-1 11m-75 545v19c-1.63-5.26-1.69-13.81 0-19Z"/><path fill="#A4A5A7" d="M244 45v5c0 25.97-.44 51.25-1 77s.32 53.37 0 79c-.32 25.63.3 52.87 0 78-.3 25.13.62 54.14 1 78s-.13 48.75 9.92 68.08c10.05 19.32 23.77 27.09 39.31 39.69 15.54 12.6 32.43 25.37 26.38 46.98-6.06 21.61-4.88 49.93-5.61 73.25-.73 23.32.19 43.19-.6 64.74-.79 21.56-.49 51.78-.4 73.26h7c-1.63-10.51.57-19.6 0-31-.57-11.4 1.04-24.74.78-35.78-.26-11.03-1.09-24.36.22-35.22s-1.42-20.58.22-30.78c1.64-10.2-.44-18.45.78-29.22s1.15-23.66 3.22-33.78c2.07-10.12 5.16-21.02 3.11-30.55-2.06-9.53-6.98-16.81-13.43-23.57-6.45-6.76-12.89-10.13-20.15-15.85-7.26-5.71-13.98-9.62-21-16-7.01-6.39-11.94-12.06-16.5-20.5-4.55-8.44-9.08-16.9-9.47-27.53-.39-10.63-2.69-22.83-2.78-34.22-.09-11.39-.01-24.16 0-36s-.11-24.96 0-37-.27-24.96 0-37-.62-25.16 0-37-1.01-23.87-.99-34.99c.02-11.12 1.31-22.03.99-34.01-.32-11.98-.72-24.65.67-36.33 1.39-11.68-1.25-25.03.33-36.67s-2.61-23.72-2-34c-.15 1.29 0 2.7 0 4Z"/><path fill="#535456" fill-opacity=".1" d="M346 48c-.37-2.39-1.16-5.07-2-7-.35 3.71 1.44 5.29 2 7Z"/><path fill="#535456" fill-opacity=".18" d="M277 125c-1.23-24.55 3.67-57.86-3-83-.02 26.92-1.61 56.79 3 83ZM418 116c0-24.73 1.37-50.21-3-73-.47 23.52-.66 50.47 3 73Z"/><path fill="#F5F6F8" d="M258 52c5.36-10.92-8.9-6.48 0 0Z"/><path fill="#8F9092" d="M241 118c0 25.39-.15 51.71 0 77s-.38 53.15 0 78-1.03 53.04.33 76.67c1.36 23.63 1.09 50.93 6 72 4.91 21.08 20.82 30.25 33.37 43.63 12.55 13.38 38.01 20.69 35.3 42.7-2.71 22.01-6.54 41.53-5.99 65.01.54 23.48.35 53.54-.01 77.99-.36 24.45-1.81 51.96-1 77h4c-.09-21.48-.39-51.7.4-73.26.79-21.55-.13-41.42.6-64.74.73-23.32-.45-51.64 5.61-73.25 6.05-21.61-10.84-34.38-26.38-46.98-15.54-12.6-29.26-20.37-39.31-39.69-10.05-19.33-9.54-44.22-9.92-68.08-.38-23.86-1.3-52.87-1-78 .3-25.13-.32-52.37 0-78 .32-25.63-.56-53.25 0-79s1-51.03 1-77c-2.46 21.46-3 45.6-3 68Z"/><path fill="#676869" fill-opacity=".16" d="M381 107c4.43-2.02 1.43-13.28 3-18 1.57-4.72.01-14.05-.67-19.33-.68-5.28 1.01-13.12.67-18.67-1.52 8.02-2.02 19.81-2.02 28.97S381 97.14 381 107Z"/><path fill="#676869" d="M484 313v34c0 19.82.93 46.46-3.32 64.68-4.26 18.22-12.7 30.14-25.93 43.07s-22.91 20.05-38.83 30.17c-15.93 10.11-24.5 24.35-17.92 44.08 6.57 19.74 3.54 42.51 5 64 1.46 21.49.51 45.24 1.99 67.01 1.48 21.76.04 45.03 1.01 66.99l5 1c-.07-24.14-.56-47.21-2-70s1.55-47.58-1-70 2.7-44.71-5.22-65.78c-7.93-21.06 10.68-30.39 26.14-40.3 15.46-9.91 25.77-18.2 37.78-33.22 12.01-15.02 17.06-32.1 18.3-52.7 1.24-20.6.58-47.86 1-70 .42-22.14.7-45.29 0-68s-.17-48.02 0-71c.17-22.98-.75-44.07 0-67s-1.53-46.52 0-69c-2.42 13.53-1.65 28.07-1.67 42.33-.02 14.26-.29 28.5-.33 42.67-.04 14.17.86 28.77 0 43s2.64 30.45 1 45c-1.64 14.55 2.09 30.82 0 45s4.38 31.33-1 44Z"/><path fill="#676869" fill-opacity=".13" d="M240 67c-.4 6.26-1.32 12.16-1 19 .93-6.08 1.88-14.69 1-19ZM309 111c.12 4.15.04 10.96 0 15 1.54 17.49 1.13 36.13.8 53.75-.33 17.62.57 37.79.2 55.25.24-1.88.85-4.73 1-6 0-26.59.79-53.44 0-80-.79-26.56 2.1-53.53 0-80-.25 13.99-1.05 28.09-2 42Z"/><path fill="#676869" fill-opacity=".15" d="M452 272c1.48-7.69 1.25-18.29 2-26 0-8.99-.18-18.01 0-27-1.11-11.42-1.15-24.07 0-36s-1.29-25.13 0-37c1.29-11.87.46-23.99 1-36 .54-12.01-.61-25.36-2-35-2.46 36.09 1.41 61.55-1 95s2.71 67.86 0 102Z"/><path fill="#676869" fill-opacity=".49" d="M239 92c0 4.32.18 8.68 0 13-1.02 24.74 1.64 49.9-1 75 .06 1.87.1 4.74 0 7 1.13 6.87.24 12.99 0 20 .17 2.6.17 6.46 0 9 .09 1.8.05 2.51 0 4 .25 2.79.26 6.26 0 9 0 9.18.94 19.02 0 27 .12 2.4-.05 4.77 0 7 2.79 14.36-.2 29.2.67 44.33.86 15.12-.29 26.23.33 41.67.62 15.44.56 34.79.99 49.99.44 15.2 2.84 25.91 5.01 39.01.94-.57 1.82-1.15 3-1-.38 2.39.89 7.81 3 4 6.16 14.39 18.06 25.63 30.75 35.25 12.7 9.62 32.75 19.67 27.25 39.75 7.97-27.39-18.33-34.89-36.75-52.25C253.83 446.4 241.83 426.46 242 399c.17-27.46-2.91-60.88-2-91 .91-30.12-.34-64.14 0-95s0-63.94 0-95c0-9.34-.24-19.36-1-28-.11.47 0 1.5 0 2Z"/><path fill="#D8D9DB" fill-opacity=".01" d="M381 191c0-9.18.98-19.65 1-28-.34-3.6-.91-7.69-1-11-.08-2.97-.15-6.03 0-9 .56-11.25 2.53-23.95 0-35-4.51 6.1.14 20.03-1 28-1.14 7.97-.16 19.77 0 28s-2.05 19.84 1 27Z"/><path fill="#7C7F7E" fill-opacity=".78" d="M309 516c-.22 2.75-.84 5.1-1 8-.2 3.66.15 7.34 0 11-1.98-.47.11-3.6-2-4-.02.34-.95.77-1 1 .93 24.35-.73 48.72 0 73 .12 4.11-.27 7.63 0 12 1.55 20.16.92 42.11 1 63-1.39-.26-.78-2.05-1-3-.21 4.92-.33 11.93-1 17 .06 1.56.12 4.45 0 6 .35 3.97.22 8.62 1 13 .78 4.35 1.5 9.96 1 15h3c-.81-25.04.64-52.55 1-77 .36-24.45.55-54.51.01-77.99-.55-23.48 3.28-43 5.99-65.01 2.71-22.01-22.75-29.32-35.3-42.7-12.55-13.38-28.46-22.55-33.37-43.63-4.91-21.07-4.64-48.37-6-72-1.36-23.63.05-51.82-.33-76.67s.15-52.71 0-78 0-51.61 0-77c0 0-1-.04-1 0 0 31.06.34 64.14 0 95s.91 64.88 0 95c-.91 30.12 2.17 63.54 2 91-.17 27.46 11.83 47.4 30.25 64.75 18.42 17.36 44.72 24.86 36.75 52.25Z"/><path fill="#676869" fill-opacity=".04" d="M381 152c.23-2.59.15-6.39 0-9-.15 2.97-.08 6.03 0 9Z"/><path fill="#676869" fill-opacity=".05" d="M381 191v28c1.66-17.14 2.68-38.07 1-56-.02 8.35-1 18.82-1 28Z"/><path fill="#535456" fill-opacity=".02" d="M418 190c2.22-3 1-10.01 1-14-.39 3.99-1 9.26-1 14Z"/><path fill="#535456" fill-opacity=".02" d="M419 210c0-4.94 1.79-15.23-1-19 0 4.93-1.79 15.23 1 19Z"/><path fill="#676869" fill-opacity=".01" d="M238 216c.17-2.54.17-6.4 0-9-.1 2.97-.14 6.04 0 9Z"/><path fill="#535456" fill-opacity=".03" d="M419 225v-14c-2.64 3.56-.39 10.32 0 14Z"/><path fill="#676869" fill-opacity=".01" d="M238 229c.26-2.74.25-6.21 0-9-.1 2.99 0 6.01 0 9Z"/><path fill="#7C7F7E" fill-opacity=".21" d="M310 235c-1.87 14.91-2.65 34.03-1 48 .51 4.3 1.67 9.99 1 15-2.39 17.85-1 40.06-1 61 0 4.84-.99 10.98-1 15 .77 8.19 1.31 15.83 0 24 1.37-.43 1.23-2.66 3-3-.01-55.33 0-110.67 0-166-.15 1.27-.76 4.12-1 6Z"/><path fill="#535456" fill-opacity=".04" d="M419 303v-73c-2.41 22.73-2.21 50.19 0 73Z"/><path fill="#7C7F7E" fill-opacity=".37" d="M452 272c-.85 10.7-1 20.49-1 32 0 19.29.74 38.73 0 58-.17 4.5-.15 7.63 0 12 .15 4.44 1.11 9.99-2 13-.64.62-1.27 1.53-2 2 1.36-.72 4.97-1.97 5-2 .37-.6 1.59-1.39 2-2 3.63-10.37-1.63-23.95 0-35s-.72-23.67 0-35c.72-11.33-.28-23.61 0-35s0-22.62 0-34c-.75 7.71-.52 18.31-2 26Z"/><path fill="#676869" fill-opacity=".04" d="M310 298c.67-5.01-.49-10.7-1-15-.16 4.9 1.1 10.54 1 15Z"/><path fill="#7C7F7E" d="M484 328v-13c-1.77 4.16-.4 8.91 0 13ZM402 728h4c-.97-22.96.47-46.23-1.01-67.99-1.48-21.77-.53-45.52-1.99-67.01-1.46-21.49 1.57-44.26-5-64-6.58-19.73 1.99-33.97 17.92-44.08 15.92-10.12 25.6-17.24 38.83-30.17 13.23-12.93 21.67-24.85 25.93-43.07 4.25-18.22 3.32-44.86 3.32-64.68-2.22 22.89-1.02 53.49-9.69 74.31-8.68 20.81-24.22 29.99-39.06 43.94-14.84 13.94-38.87 18.2-43.32 40.68-4.46 22.48 7.94 50.95 6.07 75.07-1.87 24.12 1.96 49.85 2 74 .04 24.15 1.13 49.39 2 73Z"/><path fill="#D8D9DB" d="M398 366c-9.95 9.31.65 33.5-12.25 41.75-12.91 8.24-32.41.23-46.75 1.25-7.91-11.62-2.38-27.48-12-38-9.72 7.63-3.25 18.66-8.75 28.25-5.5 9.58-19.09 4.53-27.17 1.67-8.08-2.86-17.33-8.59-25.08-8.92-1.5-4.94-4.92-8.94-6-14-10.99 6.96-2.78 25.22 4.25 34.75 7.03 9.54 17.35 15.7 27.72 21.28 10.38 5.57 23.3 10.25 34.81 14.19 11.5 3.95 22.47 4.57 35.55 4.11 13.08-.46 25.22-5.35 36.99-10.01 11.77-4.65 21.98-9.07 32.99-14.01 11-4.95 21.27-11.02 28.94-20.06 7.67-9.05 17.98-25.24 4.75-32.25-1.58 11.84-11.14 16.54-21.32 20.68-10.19 4.14-21.3 8.94-31.68 6.32-10.69-9.5-5.96-26.1-15-37Z"/><path fill="#A4A5A7" fill-opacity=".08" d="M447 389c-.92.6-3.1 2.55-4 3 2.58-.67 5.52-1.19 8-2 .22-.19.67-2.46 1-3-.03.03-3.64 1.28-5 2Z"/><path fill="#C2C3C5" fill-opacity=".14" d="M291 393c.11 2.09 4.27 1.87 2 4 2.75-1.1 5.2-.71 8 0-3.76-3.02-6.99-3.27-10-4Z"/><path fill="#A4A5A7" fill-opacity=".13" d="M308 398c-.65.2-2.32.11-3 0 .88.35 3.6 2.03 5 1 .33-.52.74-2.3 1-3v-1c-1.77.34-1.63 2.57-3 3Z"/><path fill="#BABBBD" fill-opacity=".64" d="M422 398h-1c-.5 0-1.58-.18-2 0-.26.11-.75 1.08-1 1 5.95 1.69 14.38-.64 21-3-3.81.95-12.99.19-17 2Z"/><path fill="#BABBBD" fill-opacity=".39" d="M310 399c-1.4 1.03-4.12-.65-5-1-1.24-.2-1.64-.99-3-1v3c3.03-.43 5.99 2.16 8-1Z"/><path fill="#C2C3C5" fill-opacity=".51" d="M347 406h36c-.41-1.38-2.99-2.8-4-3-1.45.37-3.5 0-5 0h-1c-3.71 2.75-11.25.4-15 0h-5c-1.11.14-5.37 2.98-6 3Z"/><path fill="#A4A5A7" fill-opacity=".03" d="M373 403h-15c3.75.4 11.29 2.75 15 0Z"/><path fill="#535456" fill-opacity=".78" d="M245 438c8.51 28.4 30.99 54.2 58 69 1.99 8.63 1.66 16.16 2 25 .05-.23.98-.66 1-1 .21-3.36 1.53-5.4 2-7 .16-2.9.78-5.25 1-8 5.5-20.08-14.55-30.13-27.25-39.75-12.69-9.62-24.59-20.86-30.75-35.25-2.11 3.81-3.38-1.61-3-4-1.18-.15-2.06.43-3 1Z"/><path fill="#676869" fill-opacity=".65" d="M306 531c2.11.4.02 3.53 2 4 .15-3.66-.2-7.34 0-11-.47 1.6-1.79 3.64-2 7Z"/><path fill="#676869" fill-opacity=".91" d="M411 596c-1.69 5.19-1.63 13.74 0 19v-19Z"/><path fill="#676869" fill-opacity=".08" d="M305 619c0 20.63.79 39.2 0 58 .22.95-.39 2.74 1 3-.08-20.89.55-42.84-1-63 .03.5 0 1.5 0 2Z"/><path fill="#676869" fill-opacity=".24" d="M304 720c.11 1.89 1.99 5.39 1 8h1c.5-5.04-.22-10.65-1-15-.05 1.89-.74 4.87-1 7Z"/><path fill="#7C7F7E" fill-opacity=".03" d="M304 728h1c.99-2.61-.89-6.11-1-8-.33 2.7-1.88 5.54 0 8Z"/></svg>