<svg width="100%" height="100%" xmlns="http://www.w3.org/2000/svg" viewBox="0 0 728 728"><path fill="none" fill-opacity="0" stroke="#C6C6C6" stroke-opacity=".05" stroke-width=".3" d="M246 35c5.63-4.54 15.4-5.81 21-1h1c.55-.1 1.4-1.28 2-1-6.71-4.79-17.18-5.32-24 2Z"/><path fill="none" fill-opacity="0" stroke="#C3C3C3" stroke-opacity=".15" stroke-width=".3" d="M311 40c1.17-1.84 1.8-.07 2 1 .41-2.1 2.95-4.83 5-6 2.09-1.59 6.44-2.25 9-3 1.5-.44 2.87-1.26 5-1 .49.06 1 0 1 0 2.12-2.51-12.15-2.41-14.7.29-2.55 2.69-6.51 3.31-7.3 8.71Z"/><path fill="none" fill-opacity="0" stroke="#A8A8A8" stroke-opacity=".11" stroke-width=".3" d="M383 47c.19.41 1.88.74 2 1 .17-4.51.56-7.51 3-11 4.64-6.62 13.43-8.24 20-4 1.75 1.13 2.76 2.47 4 4 .24.3 1.93 1.73 2 2 .03-.47 1-2.11 1-2-.6-2.83-5.14-3.13-5-7-14.63-4.24-28 .88-27 17Z"/><path fill="none" fill-opacity="0" stroke="#B7B7B7" stroke-opacity=".35" stroke-width=".3" d="M333 31s-.51.06-1 0c-.27 2.1 1.71 2.03 3 3 1.85 1.4 5.3 3.68 6 6-.1-1.36.24-3.41-2-5 1.63-2.49 2.06 2.06 3 0-2.11-2.11-5.97-5.3-9-4Z"/><path fill="none" fill-opacity="0" stroke="#C3C3C3" stroke-opacity=".09" stroke-width=".3" d="M455 41c.21-1.27 4.6-5.35 6-6 1.14-.53 2.74-.64 4-1 4.87-1.37 11.27-1.54 16 1 1.16.62 3.2 2.08 4 3-5.04-6.32-10.76-7.56-15.75-6.24-4.99 1.32-16.33.33-14.25 9.24Z"/><path fill="none" fill-opacity="0" stroke="#B2B2B2" stroke-opacity=".55" stroke-width=".3" d="M246 35c-1.7 1.38-1.89 2.48-3 4-.31 1.55-.32 4.46 0 6 0-.01 1 0 1 0 0-1.3-.15-2.71 0-4 1.11-9.57 15.16-9.42 22-7 .44.16 1 0 1 0-5.6-4.81-15.37-3.54-21 1Z"/><path fill="none" fill-opacity="0" stroke="silver" stroke-width=".3" d="M327 32c12 .44 5.42 13.39 6.07 20.07.65 6.68-8.13 19.99-9.33 9.19-1.19-10.8-7.04-14.75-6.74-24.26-4.43 4.87-1.44 11.59-1.07 18.07.36 6.48-.12 15.01.07 21.93s-.26 14.92 0 22-.49 14.92 0 22-.71 13.3-.98 20.02c-.26 6.73 1.65 13.83.98 20.98-.67 7.15.3 14.78 0 22-.3 7.22.13 14.79 0 22-.13 7.21.04 13.78 0 21-.04 7.22-.03 14.75 0 22s-.11 14.77 0 22-.26 14.85 0 22-.25 13.25-.99 20.01c-.75 6.75.34 15.34-.01 21.99-.35 6.65.21 15.9 0 22s-1.98 15.91-1 21-.8 18.9-2 18c-.32-.24-1 0-1 0 .36 1.58-.27 3.4 0 5-7-.7-13.11-4.65-20-6-4.99-1.54-9.97-3.6-15-5-.46-.13-1.5 0-2 0-9.6.01-1.88-19.87-4-28-2.12-8.13-.24-22.41-1.93-32.07-1.68-9.67 1.29-23.46-.07-33.93-1.36-10.47 1.93-22.47 1-33-.93-10.53-1.41-20.06-1-31 .41-10.94-.2-22.86 0-34s-.13-22.8 0-34-.15-22.81 0-34c.15-11.19-.26-22.93 0-34s-.55-23.22 0-34c.55-10.78 4.77-18.65-2-28-6.84-2.42-20.89-2.57-22 7-.61 10.28 3.58 22.36 2 34s1.06 24.99-.33 36.67c-1.39 11.68-.99 24.35-.67 36.33.32 11.98-.97 22.89-.99 34.01-.02 11.12 1.61 23.15.99 34.99-.62 11.84.27 24.96 0 37s.11 24.96 0 37 .01 25.16 0 37-.09 24.61 0 36 2.39 23.59 2.78 34.22c.39 10.63 4.92 19.09 9.47 27.53 4.56 8.44 9.49 14.11 16.5 20.5 7.02 6.38 13.74 10.29 21 16 7.26 5.72 13.7 9.09 20.15 15.85 6.45 6.76 11.37 14.04 13.43 23.57 2.05 9.53-1.04 20.43-3.11 30.55-2.07 10.12-2 23.01-3.22 33.78-1.22 10.77.86 19.02-.78 29.22-1.64 10.2 1.09 19.92-.22 30.78s-.48 24.19-.22 35.22c.26 11.04-1.35 24.38-.78 35.78.57 11.4-1.63 20.49 0 31h63c-.34-9.7-.03-21.61 0-32s-1.19-18.23-1.93-27.08c-.75-8.85 2.82-18.54.6-27.59-2.22-9.05-.03-16.91-.07-25.07-.04-8.17-4.52-17.31-3.4-25.51 1.12-8.19-.74-18.62-2.18-26.78-1.43-8.15-4.32-19.43-4.26-26.22-6.34-5.31-3.3-17.7-3.56-25-.27-7.29 2.87-14.75 7.11-21.44 4.23-6.7 12.39-10.47 17.44-16.56 5.05-6.09 13.96-9.49 20.5-14.5 6.53-5.01 15.01-7.2 21.45-12.55 6.44-5.36 13.55-9.23 19.55-15.45 6-6.22 11.78-10.34 15.5-18.5 3.73-8.16 6.84-17.88 7.25-27.75.41-9.87-1.38-22.24 0-32 1.37-9.77-3.29-21.45-1-32s-.87-18.23.01-28.01c.87-9.78.75-22.74-.01-32.99-.76-10.25 2.87-22.63 1-33-1.87-10.37 1.05-19.87 0-31-1.05-11.13-.23-20.82 0-32s-1.1-22.01 0-33c1.09-10.99-1.38-20.47.99-31.01 2.38-10.53-3.26-22.73-.01-33.01 3.24-10.29-.12-21.45 4.02-30.98-.12-.24-.88-1.93-1-2-4.73-2.54-11.13-2.37-16-1-11.09 5.04-1.28 22.3-3 34s-.31 29.5-.01 42.01c.3 12.5-1.64 28.42-1.77 41.21-.12 12.79.77 24.65 0 38-.77 13.35.26 27.61-.15 40.85-.41 13.25-1.87 29.99-1.07 42.93.8 12.94 1.51 23.29.99 36.01-.52 12.72.65 31.23-.99 42.99-1.64 11.76 4.02 30.99-6 38-6.57 4.6-18.14 7.67-26 9-2.56.43-5.16 1.6-8 1-.35-.08-.97-.65-1-1-7.18-7.02-5.36-18.81-6-29-.64-10.19-2.93-23.25-2-34 .93-10.75-.82-21.47 0-33 .82-11.53-2.12-23.01-.22-34.22 1.9-11.21-2.33-23.61-.78-34.78 1.55-11.17.25-21.82 0-33s-.03-22.8 0-34 1.32-20.78 0-32c-1.32-11.22 1.13-24.18 0-35s3.29-24.95 1-35 5.37-25.3-2.59-31.75c-5.98-4.49-14.77-2.87-19.41 3.75-4.86 16.23 1.57 34.05-.33 50.67-1.9 16.62-.29 35.1-.67 52.33-.38 17.23.07 35.65 0 53s-.18 36.85 0 54 .67 33.7 0 51c-.67 17.3-.29 34.92-1 52s3.34 36.29-3 51c.19.18.06 2.7 0 3-.72 3.47-12.88 2.48-17 2-4.12-.48-15 1.83-19 0-10.08-1.81-5.72-22.14-7.93-32.07-2.21-9.94-.7-27.25-2.07-38.93-1.37-11.68.78-27.35 0-40-.78-12.65.74-28 0-41s-.37-26.22 0-39c.37-12.78-.59-25.56 0-38 .59-12.44-1.56-27.18 0-39 1.55-11.82-3.64-21.56-1-33 2.64-11.44-1.43-27.59 0-39s8.92-23.12-1-32c-1.29-.97-3.27-.9-3-3-2.13-.26-3.5.56-5 1m141 31c.89-8.32-5.99-13.6-5.66-21.68.33-8.07 19.78-6.51 15.35 1.37C473.27 50.58 479.4 61.9 468 63M258 52c-8.9-6.48 5.36-10.92 0 0m140 314c9.04 10.9 4.31 27.5 15 37 10.38 2.62 21.49-2.18 31.68-6.32 10.18-4.14 19.74-8.84 21.32-20.68 13.23 7.01 2.92 23.2-4.75 32.25-7.67 9.04-17.94 15.11-28.94 20.06-11.01 4.94-21.22 9.36-32.99 14.01-11.77 4.66-23.91 9.55-36.99 10.01-13.08.46-24.05-.16-35.55-4.11-11.51-3.94-24.43-8.62-34.81-14.19-10.37-5.58-20.69-11.74-27.72-21.28-7.03-9.53-15.24-27.79-4.25-34.75 1.08 5.06 4.5 9.06 6 14 7.75.33 17 6.06 25.08 8.92 8.08 2.86 21.67 7.91 27.17-1.67 5.5-9.59-.97-20.62 8.75-28.25 9.62 10.52 4.09 26.38 12 38 14.34-1.02 33.84 6.99 46.75-1.25 12.9-8.25 2.3-32.44 12.25-41.75Z"/><path fill="none" fill-opacity="0" stroke="#DADADA" stroke-width=".3" d="M318 35c-.53.4-.61 1.57-1 2-.3 9.51 5.55 13.46 6.74 24.26 1.2 10.8 9.98-2.51 9.33-9.19C332.42 45.39 339 32.44 327 32c-2.56.75-6.91 1.41-9 3Z"/><path fill="none" fill-opacity="0" stroke="#8A8A8A" stroke-opacity=".23" stroke-width=".3" d="M268 34c1.58 1.48 2.07 3.36 3 5 .76 1.34 2.71 3.59 3 5 0-.5-.12-1.53 0-2 1.49-3.21-2.01-3.68 0-7-2.23 2.39-3.23-1.45-4-2-.6-.28-1.45.9-2 1Z"/><path fill="none" fill-opacity="0" stroke="#9A9A9A" stroke-width=".3" d="M418 399c-.05-.5 0-1 0-1-.58-.87-.84-.68-1-2-5.28-12.95-.59-29.79-3-44s.87-29.09-1-44 1.35-31.83 0-47c-1.35-15.17.16-29.91 0-45s-.87-29.08-.99-44.01c-.12-14.92 1.19-30.19-.01-44.99s2.34-30.3 0-45 3.33-31.52 0-45c-1.24-1.53-2.25-2.87-4-4 7.37 6.7-.29 21.95 2 32s-2.13 24.18-1 35-1.32 23.78 0 35c1.32 11.22.03 20.8 0 32s-.25 22.82 0 34 1.55 21.83 0 33c-1.55 11.17 2.68 23.57.78 34.78-1.9 11.21 1.04 22.69.22 34.22-.82 11.53.93 22.25 0 33s1.36 23.81 2 34c.64 10.19-1.18 21.98 6 29ZM274 390c-5.02-2.47-1.65-16.24-2-22-.35-5.76-2.91-15.23-2-22 .91-6.77 1.13-15.37 1-23-.13-7.63-.14-17.22 0-25 .14-7.78-.7-16.08.33-23.67 1.03-7.59.91-14.82-.31-22.35-1.21-7.54 1.25-15.45.98-22.98-.27-7.53-2.39-16.29-1-24 1.39-7.71.89-14.25 0-22-.88-7.75.5-16.11 0-24-.5-7.89.46-16.04 0-24-.46-7.96.7-17.12 0-25-.7-7.88-1.47-14.2-.01-22.01 1.46-7.81-.93-15.26-.99-22.99-.05-7.73 1-16.09 1-24 0-.5.08-1.51 0-2-.93-1.64-1.42-3.52-3-5h-1s-.56.16-1 0c6.77 9.35 2.55 17.22 2 28-.55 10.78.26 22.93 0 34s.15 22.81 0 34c-.15 11.19.13 22.8 0 34s.2 22.86 0 34 .41 23.06 0 34c-.41 10.94.07 20.47 1 31 .93 10.53-2.36 22.53-1 33 1.36 10.47-1.61 24.26.07 33.93 1.69 9.66-.19 23.94 1.93 32.07 2.12 8.13-5.6 28.01 4 28Z"/><path fill="none" fill-opacity="0" stroke="#A5A5A5" stroke-width=".3" d="M347 406c-.47-.22-.75-1.64-1-2-7.81-11.21-2.77-28.08-5-42-2.23-13.92 1.11-32.15 0-47-1.11-14.85.74-31.75 0-47s.87-31.63 0-47c-.87-15.37 1.58-31.71 0-47s1.31-29.94 0-45c-1.31-15.06 2.21-30.15 0-45-2.21-14.85 1.13-28.59 0-44-.7-2.32-4.15-4.6-6-6 9.92 8.88 2.43 20.59 1 32-1.43 11.41 2.64 27.56 0 39-2.64 11.44 2.55 21.18 1 33-1.56 11.82.59 26.56 0 39-.59 12.44.37 25.22 0 38-.37 12.78-.74 26 0 39s-.78 28.35 0 41c.78 12.65-1.37 28.32 0 40s-.14 28.99 2.07 38.93c2.21 9.93-2.15 30.26 7.93 32.07Z"/><path fill="none" fill-opacity="0" stroke="#8D8D8D" stroke-opacity=".98" stroke-width=".3" d="M341 40c1.13 15.41-2.21 29.15 0 44 2.21 14.85-1.31 29.94 0 45 1.31 15.06-1.58 29.71 0 45s-.87 31.63 0 47c.87 15.37-.74 31.75 0 47s-1.11 32.15 0 47c1.11 14.85-2.23 33.08 0 47 2.23 13.92-2.81 30.79 5 42 .52.43 1.34.86 2 1-.04 0 0-1 0-1-.58-.87-.84-.68-1-2-.2-.24-1 0-1 0-4.93-4.77 1.11-17.11-1.99-24.01-3.1-6.9-.25-17.85-1.01-25.99-.76-8.14.37-18.47 0-27-.37-8.53.22-18.4 0-27-.22-8.6 2.11-17.06.67-25.67-1.44-8.61-.42-17.44-.67-26.33-.25-8.89.18-18.1 0-27-.18-8.9.24-18.16 0-27s.46-18.33 0-27c-.46-8.67-1.64-16.65-.07-25.07 1.57-8.43-.6-17.96-.92-25.94-.32-7.97 1.03-18.23.66-25.66s-4.5-18.07-.89-24.55S339.03 43.86 343 40c.26-.25 1 0 1 0 .5-1.6-.52-3.52-2-5-.94 2.06-1.37-2.49-3 0 2.24 1.59 1.9 3.64 2 5Z"/><path fill="none" fill-opacity="0" stroke="#ABABAB" stroke-opacity=".99" stroke-width=".3" d="M461 35c-7.51 4.46-2.04 14.13-3 22-.96 7.87.33 19.34 0 28s-.06 19.01 0 28c.06 8.99-.98 17.95-1 27-.02 9.05-.01 17.85 0 27 .01 9.15-.03 18.78 0 28 .03 9.22-.09 18.79 0 28s.23 18.17-.99 27.01 1.46 17.17.99 25.99c-.47 8.82-.79 18.18-1 27-.21 8.82.6 19.58 0 28-.6 8.42 1.38 20.58 0 28-1.38 7.42 3.95 21.84-2 26 .02-.05-.74-.88-1-1-.41-.19-1 0-1 0 0 .91.19 2.11 0 3-.13.58-1.6 2.69-2 3 .89-.33 4.75-.85 3 0 10.02-7.01 4.36-26.24 6-38 1.64-11.76.47-30.27.99-42.99.52-12.72-.19-23.07-.99-36.01-.8-12.94.66-29.68 1.07-42.93.41-13.24-.62-27.5.15-40.85.77-13.35-.12-25.21 0-38 .13-12.79 2.07-28.71 1.77-41.21-.3-12.51-1.71-30.31.01-42.01s-8.09-28.96 3-34c-1.26.36-2.86.47-4 1Z"/><path fill="none" fill-opacity="0" stroke="#9E9E9E" stroke-width=".3" d="M313 41c-.23 1.19-.05 2.79 0 4 2.26 52.28 1.16 105.43 0 158-1.16 52.57 3.99 107.41-1 159 0 11.18 1.01 22.87 0 34 1.2.9 2.98-12.91 2-18s.79-14.9 1-21c.21-6.1-.35-15.35 0-22s-.74-15.24.01-21.99c.74-6.76 1.25-12.86.99-20.01-.26-7.15.11-14.77 0-22s.03-14.75 0-22-.04-14.78 0-22c.04-7.22-.13-13.79 0-21 .13-7.21-.3-14.78 0-22 .3-7.22-.67-14.85 0-22s-1.24-14.25-.98-20.98c.27-6.72 1.47-12.94.98-20.02s.26-14.92 0-22 .19-15.08 0-22 .29-15.45-.07-21.93c-.37-6.48-3.36-13.2 1.07-18.07.39-.43.47-1.6 1-2-2.05 1.17-4.59 3.9-5 6Z"/><path fill="none" fill-opacity="0" stroke="#8E8E8E" stroke-opacity=".96" stroke-width=".3" d="M455 41c.19.8.86 1.24 1 2 .09.48 0 1.5 0 2 3.81 8.95.88 25.78 0 35v7c0 6.72 1.44 16.25-1 22v54c0 16.23.47 33.58-1 49v109c0 10.21 1.14 21.94 0 32-1.14 10.06 3.05 22.49 0 32 5.95-4.16.62-18.58 2-26 1.38-7.42-.6-19.58 0-28 .6-8.42-.21-19.18 0-28s.53-18.18 1-27-2.21-17.15-.99-25.99 1.08-17.8.99-27.01c-.09-9.21.03-18.78 0-28-.03-9.22.01-18.85 0-28-.01-9.15-.02-17.95 0-27s1.06-18.01 1-27c-.06-8.99-.33-19.34 0-28s-.96-20.13 0-28c.96-7.87-4.51-17.54 3-22-1.4.65-5.79 4.73-6 6Z"/><path fill="none" fill-opacity="0" stroke="#999" stroke-width=".3" d="M482 37c5.84 11.67-3.43 27.65-1 41 2.43 13.35-.72 27.16-.07 40.07.64 12.92-.84 28.22.07 41.93.91 13.71-.9 22.48 0 36s-.26 30.01 0 44c.26 13.99.2 30.01 0 44-.2 13.99-1.42 27.25-1 41 .42 13.75-.79 30.8 0 44s-.7 26.58-3.78 38.22-7.98 20.11-15.47 28.53c-7.48 8.42-13.97 14.48-22.83 21.17-8.86 6.69-17.56 10.84-26.15 17.85-8.59 7.01-16.12 11.89-22.07 21.93-5.96 10.03-4.87 25.73-2.7 37.3 2.17 11.57 4.03 24.77 4.78 37.22s.8 26.09 1.22 38.78c.42 12.69 2.36 27.47 1.78 40.22-.58 12.75-.99 25.79.82 38.52 1.81 12.74-2.12 25.59.4 39.26h6c-.87-23.61-1.96-48.85-2-73-.04-24.15-3.87-49.88-2-74 1.87-24.12-10.53-52.59-6.07-75.07 4.45-22.48 28.48-26.74 43.32-40.68 14.84-13.95 30.38-23.13 39.06-43.94 8.67-20.82 7.47-51.42 9.69-74.31 0-11.66-.99-22.77 0-34 1.37-15.54-.99-31.43 0-47s-.93-32.07-.78-47.22c.15-15.15.24-30.78-.22-45.78-.46-15 1.11-29.12.32-43.68-.78-14.55 2.4-30.56.68-45.32-1.72-14.76 1.9-30.22 2-44-.07-.32-.82-1.79-1-2-.8-.92-2.84-2.38-4-3 .12.07.88 1.76 1 2Z"/><path fill="none" fill-opacity="0" stroke="#DCDCDC" stroke-width=".3" d="M468 63c11.4-1.1 5.27-12.42 9.69-20.31 4.43-7.88-15.02-9.44-15.35-1.37-.33 8.08 6.55 13.36 5.66 21.68Z"/><path fill="none" fill-opacity="0" stroke="#999" stroke-opacity=".98" stroke-width=".3" d="M385 48c-2.1 55.01 1.78 112.17 0 167s3.24 108.89-2 163c0 7.56.68 15.47 0 23 6.34-14.71 2.29-33.92 3-51s.33-34.7 1-52c.67-17.3.18-33.85 0-51s-.07-36.65 0-54-.38-35.77 0-53c.38-17.23-1.23-35.71.67-52.33 1.9-16.62-4.53-34.44.33-50.67-2.44 3.49-2.83 6.49-3 11Z"/><path fill="none" fill-opacity="0" stroke="#828282" stroke-opacity=".99" stroke-width=".3" d="M417 396c-.44-3.54 0-7.43 0-11-1.3-13.46-1.2-26.94-2-41-.8-14.06.42-29.7 0-44s-.81-28.58-1-43c-.19-14.42.63-29.67 0-44-.63-14.33-.88-27.58 0-42 .88-14.42-1.29-29.74 0-44 1.29-14.26-2.5-29.32-1-43s-4.12-30.94 1-43c-.01-.5-.04-1.5 0-2-.07-.27-1.76-1.7-2-2 3.33 13.48-2.34 30.3 0 45s-1.2 30.2 0 45-.11 30.07.01 44.99c.12 14.93.83 28.92.99 44.01.16 15.09-1.35 29.83 0 45 1.35 15.17-1.87 32.09 0 47 1.87 14.91-1.41 29.79 1 44s-2.28 31.05 3 44Z"/><path fill="none" fill-opacity="0" stroke="#5C5C5C" stroke-opacity=".16" stroke-width=".3" d="M414 39c-.04.5-.01 1.5 0 2 .13 4.94 1 9.79 1 15 .71 7.33 1 15.97 1 24v7c.73 7.66 1 16.65 1 25v177c0-.04 1 0 1 0 0-32.67-.02-65.33 0-98v-1c0-8.87-.83-18.18 0-27 1.33-14.13.69-25.04 0-39s1.31-33.19 0-47c-1.31-13.81 1.91-27.95-3-40 0-.11-.97 1.53-1 2Z"/><path fill="none" fill-opacity="0" stroke="#AFAFAF" stroke-width=".3" d="M383 728h13c-2.52-13.67 1.41-26.52-.4-39.26-1.81-12.73-1.4-25.77-.82-38.52.58-12.75-1.36-27.53-1.78-40.22-.42-12.69-.47-26.33-1.22-38.78-.75-12.45-2.61-25.65-4.78-37.22-2.17-11.57-3.26-27.27 2.7-37.3 5.95-10.04 13.48-14.92 22.07-21.93s17.29-11.16 26.15-17.85c8.86-6.69 15.35-12.75 22.83-21.17 7.49-8.42 12.39-16.89 15.47-28.53S480.79 382.2 480 369c-.79-13.2.42-30.25 0-44s.8-27.01 1-41c.2-13.99.26-30.01 0-44-.26-13.99.9-30.48 0-44s.91-22.29 0-36 .57-29.01-.07-41.93c-.65-12.91 2.5-26.72.07-40.07-2.43-13.35 6.84-29.33 1-41-4.14 9.53-.78 20.69-4.02 30.98-3.25 10.28 2.39 22.48.01 33.01-2.37 10.54.1 20.02-.99 31.01-1.1 10.99.23 21.82 0 33s-1.05 20.87 0 32c1.05 11.13-1.87 20.63 0 31 1.87 10.37-1.76 22.75-1 33s.88 23.21.01 32.99c-.88 9.78 2.28 17.46-.01 28.01-2.29 10.55 2.37 22.23 1 32-1.38 9.76.41 22.13 0 32-.41 9.87-3.52 19.59-7.25 27.75-3.72 8.16-9.5 12.28-15.5 18.5-6 6.22-13.11 10.09-19.55 15.45-6.44 5.35-14.92 7.54-21.45 12.55-6.54 5.01-15.45 8.41-20.5 14.5-5.05 6.09-13.21 9.86-17.44 16.56-4.24 6.69-7.38 14.15-7.11 21.44.26 7.3-2.78 19.69 3.8 24.25-.3 7.54 2.59 18.82 4.02 26.97 1.44 8.16 3.3 18.59 2.18 26.78-1.12 8.2 3.36 17.34 3.4 25.51.04 8.16-2.15 16.02.07 25.07 2.22 9.05-1.35 18.74-.6 27.59.74 8.85 1.96 16.69 1.93 27.08-.03 10.39-.34 22.3 0 32Z"/><path fill="none" fill-opacity="0" stroke="#595959" stroke-opacity=".22" stroke-width=".3" d="M486 40c.19.88 0 2.09 0 3 .58 2.66 1 5.73 1 9 .64 6.61.63 14.46 0 21v17c.42 4.39 1 9.93 1 15 .01-.07 1 0 1 0V95c0-1.99-.11-4.01 0-6 .46-8.24 1.13-16.67.93-24.93-.21-8.26.07-19.8-4.93-26.07.18.21.93 1.68 1 2Z"/><path fill="none" fill-opacity="0" stroke="#A0A0A0" stroke-opacity=".06" stroke-width=".3" d="M240 67c1.8-6.55 2.07-15.76 3-22-.32-1.54-.31-4.45 0-6-5.22 7.14-2.71 17.7-3 28Z"/><path fill="none" fill-opacity="0" stroke="#686868" stroke-opacity=".73" stroke-width=".3" d="M271 41c.37 1.22.9 2.25 1 4 1.18 6.62 2 13.58 2 21 0-.04 1 0 1 0v-3c0-6.6-1-12.42-1-19-.29-1.41-2.24-3.66-3-5 .08.49 0 1.5 0 2Z"/><path fill="none" fill-opacity="0" stroke="#8B8B8B" stroke-opacity=".15" stroke-width=".3" d="M311 40c-2.72 18.64-.57 32.85-2 51-1.43 18.15.65 39.2.33 55.33-.32 16.12-1.78 27.73.67 40.67.66 3.46.66 9.54 0 13-.81 4.28-.81 3.7 0 8 .66 3.46.66 9.54 0 13-.7 3.72-1.48 6.97-2 9-.51 2.02 1.99 4.26 2 5 .5-2.27.24-4.12 1-6V71c2.28 5.42.37 12.82 1 19 .58-6.02 1-13.29 1-20-.52-5.37-1.12-11.93-1-18 .05-2.51.75-5.18 1-7-.05-1.21-.23-2.81 0-4-.2-1.07-.83-2.84-2-1Z"/><path fill="none" fill-opacity="0" stroke="#717171" stroke-opacity=".98" stroke-width=".3" d="M346 402c-3.09-34 1.16-68.84 0-103s0-68.8 0-103v-53c-2.4-24.76 1.45-51.66-1-77-.63-6.56 1.14-19.82-2-26-3.97 3.86 2.39 17.3-1.22 23.78-3.61 6.48.52 17.12.89 24.55s-.98 17.69-.66 25.66c.32 7.98 2.49 17.51.92 25.94-1.57 8.42-.39 16.4.07 25.07.46 8.67-.24 18.16 0 27s-.18 18.1 0 27c.18 8.9-.25 18.11 0 27s-.77 17.72.67 26.33-.89 17.07-.67 25.67c.22 8.6-.37 18.47 0 27 .37 8.53-.76 18.86 0 27s-2.09 19.09 1.01 25.99c3.1 6.9-2.94 19.24 1.99 24.01Z"/><path fill="none" fill-opacity="0" stroke="#7E7E7E" stroke-opacity=".1" stroke-width=".3" d="M345 66c.12-.98-.1-2.01 0-3 2.33 18.76.34 39.49 1 59 2.29 23.66 1 49.56 1 74 0 22.75-.47 45.22 0 68s-1.22 46.24 0 69c1.22 22.76-2.78 46.41 0 69 .16 1.32.42 1.13 1 2-.51-.07 1.89-.99 2-1 .24-.2 0-1 0-1-4.28-1.56-.66-16.96-1.21-22.77-.55-5.81-.91-16.03-.72-23.16.2-7.12.21-15.92-.07-24.07s1-17.81.01-25.99c-.99-8.19 1.19-15.54.66-23.34-.54-7.8.23-15.77.26-23.6.02-7.82-.95-15.17-.92-23.06.03-7.9 1.07-15.48.66-23.34-.41-7.86.09-15.56.26-23.59.17-8.04-.24-17.76.07-26.08.31-8.32-.6-18.69-.78-26.78-.18-8.09.87-15.13.76-23.2-.12-8.06-2.2-15.6-1.77-23.79.44-8.19.29-15.23-.21-24.23s.69-17.34-3-25c0 0-.74-.25-1 0 3.14 6.18 1.37 19.44 2 26Z"/><path fill="none" fill-opacity="0" stroke="#848484" stroke-width=".3" d="M484 313c5.7-28-1.49-59.95 1-89 2.49-29.05-2.92-59.51-1-88 1.92-28.49-2.92-57.55 2-85 .18-2.64 0-5.35 0-8 0-.91.19-2.12 0-3-.1 13.78-3.72 29.24-2 44 1.72 14.76-1.46 30.77-.68 45.32.79 14.56-.78 28.68-.32 43.68s.37 30.63.22 45.78c-.15 15.15 1.77 31.65.78 47.22s1.37 31.46 0 47Z"/><path fill="none" fill-opacity="0" stroke="#A4A4A4" stroke-width=".3" d="M244 45c0 26.19-.27 52.1-1 78s.41 53.21 0 79 .37 53.68 0 79 .57 53.99 1 78c.43 24.01-.38 50.04 9.31 69.69 9.68 19.66 23.23 27.63 38.77 40.23 15.55 12.59 33.73 25.57 27.72 47.33-6 21.75-5.17 49.3-5.8 72.75-.63 23.45.15 44.1-.6 65.74-.75 21.65-.51 51.71-.4 73.26h7c-1.63-10.51.57-19.6 0-31-.57-11.4 1.04-24.74.78-35.78-.26-11.03-1.09-24.36.22-35.22s-1.42-20.58.22-30.78c1.64-10.2-.44-18.45.78-29.22s1.15-23.66 3.22-33.78c2.07-10.12 5.16-21.02 3.11-30.55-2.06-9.53-6.98-16.81-13.43-23.57-6.45-6.76-12.89-10.13-20.15-15.85-7.26-5.71-13.98-9.62-21-16-7.01-6.39-11.94-12.06-16.5-20.5-4.55-8.44-9.08-16.9-9.47-27.53-.39-10.63-2.69-22.83-2.78-34.22-.09-11.39-.01-24.16 0-36s-.11-24.96 0-37-.27-24.96 0-37-.62-25.16 0-37-1.01-23.87-.99-34.99c.02-11.12 1.31-22.03.99-34.01-.32-11.98-.72-24.65.67-36.33 1.39-11.68-1.25-25.03.33-36.67s-2.61-23.72-2-34c-.15 1.29 0 2.7 0 4Z"/><path fill="none" fill-opacity="0" stroke="#868686" stroke-width=".3" d="M274 390c.5 0 1.54-.13 2 0-.22-.13 0-1 0-1-.25-.25-1 0-1 0-5.13-1.53-1.04-15.34-2-21s.45-17.24 0-24c-.45-6.76.19-15.75 0-23s.08-16.69 0-24c-.08-7.31-2.26-14.58-1-22 1.26-7.42 1.55-14.76.22-22.22-1.33-7.47.64-14.26.78-21.78.14-7.52-.43-16.35 0-24 .43-7.65-.64-14.64-.98-22.02-.33-7.39-.79-16.56-.02-23.98.77-7.42.67-13.34 0-21-.66-7.66.34-16.23 0-24s.22-15.16 0-23 .25-16.09 0-24 .46-16.08 0-24c-.1-1.75-.63-2.78-1-4 0 7.91-1.05 16.27-1 24 .06 7.73 2.45 15.18.99 22.99-1.46 7.81-.69 14.13.01 22.01.7 7.88-.46 17.04 0 25 .46 7.96-.5 16.11 0 24 .5 7.89-.88 16.25 0 24 .89 7.75 1.39 14.29 0 22-1.39 7.71.73 16.47 1 24 .27 7.53-2.19 15.44-.98 22.98 1.22 7.53 1.34 14.76.31 22.35-1.03 7.59-.19 15.89-.33 23.67-.14 7.78-.13 17.37 0 25 .13 7.63-.09 16.23-1 23s1.65 16.24 2 22c.35 5.76-3.02 19.53 2 22Z"/><path fill="none" fill-opacity="0" stroke="#6D6D6D" stroke-opacity=".96" stroke-width=".3" d="M417 385v-79c-3.24-33.45-1-69.72-1-104V80c-.7-7.33-1-15.97-1-24 0-5.21-.87-10.06-1-15-5.12 12.06.5 29.32-1 43s2.29 28.74 1 43c-1.29 14.26.88 29.58 0 44-.88 14.42-.63 27.67 0 42 .63 14.33-.19 29.58 0 44 .19 14.42.58 28.7 1 43 .42 14.3-.8 29.94 0 44 .8 14.06.7 27.54 2 41Z"/><path fill="none" fill-opacity="0" stroke="#5E5E5E" stroke-opacity=".11" stroke-width=".3" d="M274 44c0 6.58 1 12.4 1 19 1.25 12.89 1 27.39 1 41v42c0 40.31 1.38 80.7 0 121s3.63 81.84 0 122c.15-.3 1.67-1.01 2-1 2.84-9.92-1.61-23.27-.02-33.98 1.59-10.7-1.34-22.13.02-33.02 1.36-10.89-1.6-22.84-.78-33.78.82-10.94.33-22.53.12-33.54-.21-11.01 1-22.53.59-33.6-.41-11.08-.36-22.93 0-34.01.36-11.08-1.3-20.32-.71-31.85.59-11.52-.19-21.49-.21-33.21-.02-11.72.02-25.82-.01-39.01-.03-13.19.73-28.35-3-40-.12.47 0 1.5 0 2Z"/><path fill="none" fill-opacity="0" stroke="#7F7F7F" stroke-opacity=".07" stroke-width=".3" d="M452 272c.03-.13 1 0 1 0-1.57-17.34 0-35.58 0-53 0-9 .2-18.76 1-27v-81c0-8.68.23-18.09 1-26 0-7.69.33-16.07 1-23V45c0-.5.09-1.52 0-2-1.63 6.79-1.82 15.76-2.07 23.93-.25 8.16-1.54 17.95-.93 26.07.61 8.12-.76 17.09-.78 24.78-.02 7.68.22 13.6-.15 21.14-.36 7.54 1.07 13.75.53 21.34-.55 7.58-.73 17.73-.6 25.74.13 8.01-.79 16.4-.66 23.32.12 6.92.11 15.05.45 21.45.34 6.4-1.09 17.62-.53 23.48.56 5.87-2.93 13.15.74 17.75Z"/><path fill="none" fill-opacity="0" stroke="#5B5B5B" stroke-opacity=".97" stroke-width=".3" d="M486 51c-1.53 22.48.75 46.07 0 69s.17 44.02 0 67c-.17 22.98-.7 48.29 0 71s.42 45.86 0 68 .24 49.4-1 70-6.29 37.68-18.3 52.7c-12.01 15.02-22.32 23.31-37.78 33.22s-34.07 19.24-26.14 40.3c7.92 21.07 2.67 43.36 5.22 65.78s-.44 47.21 1 70 1.93 45.86 2 69l2 1v-16c0-18.77-1.75-37.92 0-56v-14c-.74-7.66-1-16.65-1-25v-13c-.27-2.75-1-6.58-1-10-.54-5.62-1.65-10.77-2-17-.35-6.24.3-13.51 0-20s.46-13.38 0-20c-.46-6.62.93-13.27 0-20s9.38-6.34 8-6c4.51-2.6 8.59-5.27 13-8 16.52-12.79 28.29-29.18 42-44 1.74-2.53 2.83-4.29 4-7 4.52-10.48 4.78-23.06 9-33 0-.5.02-1.5 0-2-.27-6.92 1.38-15.58 2-22 0-9.27 1-18.47 1-28V112c-.65-6.68-1-14.63-1-22V52c0-3.27-.42-6.34-1-9 0 2.65.18 5.36 0 8Z"/><path fill="none" fill-opacity="0" stroke="#F4F4F4" stroke-width=".3" d="M258 52c5.36-10.92-8.9-6.48 0 0Z"/><path fill="none" fill-opacity="0" stroke="#7A7A7A" stroke-opacity=".47" stroke-width=".3" d="M240 67c-1.19 4.32-.57 3.86 0 8 .57 4.16 0 8.8 0 13v51c0-.04 1 0 1 0 0-31.45 1.65-62.84 2-94-.93 6.24-1.2 15.45-3 22Z"/><path fill="none" fill-opacity="0" stroke="#8A8A8A" stroke-opacity=".99" stroke-width=".3" d="M241 139v211c.84 8.64 1 18.66 1 28 0 11.25-.91 23.15 1 34 .93 5.27 2.37 10.67 3 16 2.86 8.82 9.04 16.41 14.77 24.23s12.7 12.21 20.46 18.54c7.76 6.33 12.26 10.74 21.52 17.48 9.27 6.74 9.12 17.89 6.25 27.75-.22 2.75-.84 5.1-1 8-2.05 37.74 2.57 77.08-1 114 1.27 14.07 0 28.86 0 43v47h6c-.11-21.55-.35-51.61.4-73.26.75-21.64-.03-42.29.6-65.74.63-23.45-.2-51 5.8-72.75 6.01-21.76-12.17-34.74-27.72-47.33-15.54-12.6-29.09-20.57-38.77-40.23-9.69-19.65-8.88-45.68-9.31-69.69-.43-24.01-1.37-52.68-1-78 .37-25.32-.41-53.21 0-79s-.73-53.1 0-79 1-51.81 1-78c0 0-1-.01-1 0-.35 31.16-2 62.55-2 94Z"/><path fill="none" fill-opacity="0" stroke="#6F6F6F" stroke-opacity=".98" stroke-width=".3" d="M275 389c-3.66-40.07 1.36-80.7 0-121s0-81.61 0-122v-45c-2.31-10.52-1-23.67-1-35 0-7.42-.82-14.38-2-21 .46 7.92-.25 16.09 0 24s-.22 16.16 0 24-.34 15.23 0 23-.66 16.34 0 24c.67 7.66.77 13.58 0 21s-.31 16.59.02 23.98c.34 7.38 1.41 14.37.98 22.02-.43 7.65.14 16.48 0 24s-2.11 14.31-.78 21.78c1.33 7.46 1.04 14.8-.22 22.22-1.26 7.42.92 14.69 1 22 .08 7.31-.19 16.75 0 24s-.45 16.24 0 23c.45 6.76-.96 18.34 0 24s-3.13 19.47 2 21Z"/><path fill="none" fill-opacity="0" stroke="#888" stroke-opacity=".97" stroke-width=".3" d="M312 52c.41 5.33 1 11.98 1 18 0 6.71-.42 13.98-1 20v272c4.99-51.59-.16-106.43 1-159 1.16-52.57 2.26-105.72 0-158-.25 1.82-.95 4.49-1 7Z"/><path fill="none" fill-opacity="0" stroke="#858585" stroke-opacity=".72" stroke-width=".3" d="M456 62v18c.88-9.22 3.81-26.05 0-35v17Z"/><path fill="none" fill-opacity="0" stroke="#848484" stroke-opacity=".92" stroke-width=".3" d="M384 51c.98 5.97 0 12.94 0 19v56c0 20.49.9 42.34-1 62v190c5.24-54.11.22-108.17 2-163s-2.1-111.99 0-167c-.12-.26-1.81-.59-2-1 .1 1.6.77 2.62 1 4Z"/><path fill="none" fill-opacity="0" stroke="#909090" stroke-opacity=".06" stroke-width=".3" d="M381 108c.93 26.99 2.37 56.11 0 83-.81 9.2-.48 20.14-.21 28.77.26 8.63-.73 15.51-.12 23.56.6 8.05-1.29 17.23-.6 25.6.7 8.36-.15 15.96.27 24.39.42 8.43-.1 17.32.65 25.67.76 8.35-2.08 17.48-.77 25.79 1.31 8.3-1.52 17.23-.21 25.21 1.31 7.99-3.57 22.24-.01 30.01.06.13 1.84 1.18 2 1-2.67-29.79 0-61.08 0-91 0-33.88-.66-68.16 0-102s-2.19-69.06 1-102V91c0-7.03.39-14.72 1-21 0-6.06.98-13.03 0-19-.19 3.9-3.6 9.58-2.33 14.33s-.63 11.6.04 15.37c.68 3.76-1.83 8.16-.77 13.22 1.05 5.05-.15 7.85.06 14.08Z"/><path fill="none" fill-opacity="0" stroke="#737373" stroke-width=".3" d="M484 313c-.99 11.23 0 22.34 0 34 0 19.82.93 46.46-3.32 64.68-4.26 18.22-12.7 30.14-25.93 43.07s-22.91 20.05-38.83 30.17c-15.93 10.11-24.5 24.35-17.92 44.08 6.57 19.74 3.54 42.51 5 64 1.46 21.49.51 45.24 1.99 67.01 1.48 21.76.04 45.03 1.01 66.99l5 1c-.07-24.14-.56-47.21-2-70s1.55-47.58-1-70 2.7-44.71-5.22-65.78c-7.93-21.06 10.68-30.39 26.14-40.3 15.46-9.91 25.77-18.2 37.78-33.22 12.01-15.02 17.06-32.1 18.3-52.7 1.24-20.6.58-47.86 1-70 .42-22.14.7-45.29 0-68s-.17-48.02 0-71c.17-22.98-.75-44.07 0-67s-1.53-46.52 0-69c-4.92 27.45-.08 56.51-2 85-1.92 28.49 3.49 58.95 1 88-2.49 29.05 4.7 61-1 89Z"/><path fill="none" fill-opacity="0" stroke="#7A7A7A" stroke-opacity=".57" stroke-width=".3" d="M313 70c0-6.02-.59-12.67-1-18-.12 6.07.48 12.63 1 18Z"/><path fill="none" fill-opacity="0" stroke="#575757" stroke-opacity=".37" stroke-width=".3" d="M487 73c.63-6.54.64-14.39 0-21v21Z"/><path fill="none" fill-opacity="0" stroke="#5F5F5F" stroke-opacity=".68" stroke-width=".3" d="M416 80c0-8.03-.29-16.67-1-24 0 8.03.3 16.67 1 24Z"/><path fill="none" fill-opacity="0" stroke="#7C7C7C" stroke-opacity=".53" stroke-width=".3" d="M455 85v2c.34.23 1 0 1 0V62c-.67 6.93-1 15.31-1 23Z"/><path fill="none" fill-opacity="0" stroke="#5C5C5C" stroke-opacity=".28" stroke-width=".3" d="M275 66v38c.27.25 1 0 1 0 0-13.61.25-28.11-1-41v3Z"/><path fill="none" fill-opacity="0" stroke="#606060" stroke-opacity=".67" stroke-width=".3" d="M345 66c2.45 25.34-1.4 52.24 1 77v-21c-.66-19.51 1.33-40.24-1-59-.1.99.12 2.02 0 3Z"/><path fill="none" fill-opacity="0" stroke="#616161" stroke-opacity=".85" stroke-width=".3" d="M275 101V66s-1-.04-1 0c0 11.33-1.31 24.48 1 35Z"/><path fill="none" fill-opacity="0" stroke="#757575" stroke-opacity=".52" stroke-width=".3" d="M383 91c0-.04 1 0 1 0V70c-.61 6.28-1 13.97-1 21Z"/><path fill="none" fill-opacity="0" stroke="#797979" stroke-opacity=".37" stroke-width=".3" d="M311 116c0-.04 1 0 1 0V90c-.63-6.18 1.28-13.58-1-19v45Z"/><path fill="none" fill-opacity="0" stroke="#ADADAD" stroke-opacity=".02" stroke-width=".3" d="M240 88c0-4.2.57-8.84 0-13-.16 2.29-4.96 11.67 0 13Z"/><path fill="none" fill-opacity="0" stroke="#717171" stroke-opacity=".22" stroke-width=".3" d="M454 111c0-.04 1 0 1 0V85c-.77 7.91-1 17.32-1 26Z"/><path fill="none" fill-opacity="0" stroke="#5C5C5C" stroke-opacity=".39" stroke-width=".3" d="M416 112c0-.04 1 0 1 0 0-8.35-.27-17.34-1-25v25Z"/><path fill="none" fill-opacity="0" stroke="#7E7E7E" stroke-opacity=".75" stroke-width=".3" d="M455 109c2.44-5.75 1-15.28 1-22 0 0-.66.23-1 0v22Z"/><path fill="none" fill-opacity="0" stroke="#939393" stroke-opacity=".11" stroke-width=".3" d="M240 368c-.01-16.67 0-33.33 0-50V89c-6.42 2.33.76 18.7-1.22 25.78-1.98 7.07.02 22.32-.78 31.22-.8 8.9 1 21.5.98 29.98-.03 8.47-2.55 13.94-1.95 21.99.59 8.06.69 12.16.96 22.02.28 9.86-1.2 11.76-.66 23.34.54 11.58.26 27.81.67 39.67.41 11.86.05 17.97 0 29-.05 11.03-.67 21.7.98 30.98 1.64 9.28-4.73 17.25 1.02 25.02Z"/><path fill="none" fill-opacity="0" stroke="#C5C5C5" stroke-opacity=".01" stroke-width=".3" d="M489 95c.14.46.81 1.16 1 2-.11-2.35-.86-6.95-1-8-.11 1.99 0 4.01 0 6Z"/><path fill="none" fill-opacity="0" stroke="#5B5B5B" stroke-opacity=".8" stroke-width=".3" d="M488 112v-7c0-5.07-.58-10.61-1-15 0 7.37.35 15.32 1 22Z"/><path fill="none" fill-opacity="0" stroke="#7A7A7A" stroke-opacity=".67" stroke-width=".3" d="M383 106v20c0-.04 1 0 1 0V91s-1-.04-1 0v15Z"/><path fill="none" fill-opacity="0" stroke="#696969" stroke-opacity=".1" stroke-width=".3" d="M489 105v262c0 4.3-.29 8.71 0 13 2.03-18.06 2.13-37.71 1.34-56.32-.79-18.61 1.56-36.96.65-55.67-.9-18.71.82-38.4 0-57-.81-18.6.67-38.35-.32-57.34-.99-18.98 3.58-38.17-.67-56.67-.19-.84-.86-1.54-1-2v10Z"/><path fill="none" fill-opacity="0" stroke="#616161" stroke-opacity=".5" stroke-width=".3" d="M275 146c0-.04 1 0 1 0v-42s-.73.25-1 0v42Z"/><path fill="none" fill-opacity="0" stroke="#595959" stroke-opacity=".44" stroke-width=".3" d="M488 112v59c0-.04 1 0 1 0v-66s-.99-.07-1 0v7Z"/><path fill="none" fill-opacity="0" stroke="#787878" stroke-opacity=".27" stroke-width=".3" d="M382 310c0-.04 1 0 1 0V106c-3.19 32.94-.34 68.16-1 102-.66 33.84 0 68.12 0 102Z"/><path fill="none" fill-opacity="0" stroke="#757575" stroke-opacity=".46" stroke-width=".3" d="M454 139c0-.04 1 0 1 0v-28s-1-.04-1 0v28Z"/><path fill="none" fill-opacity="0" stroke="#626262" stroke-opacity=".54" stroke-width=".3" d="M416 147c0-.04 1 0 1 0v-35s-1-.04-1 0v35Z"/><path fill="none" fill-opacity="0" stroke="#7A7A7A" stroke-opacity=".58" stroke-width=".3" d="M311 170c0-.04 1 0 1 0v-54s-1-.04-1 0v54Z"/><path fill="none" fill-opacity="0" stroke="#606060" stroke-opacity=".34" stroke-width=".3" d="M346 143v53c0-.04 1 0 1 0 0-24.44 1.29-50.34-1-74v21Z"/><path fill="none" fill-opacity="0" stroke="#7A7A7A" stroke-opacity=".81" stroke-width=".3" d="M383 188c1.9-19.66 1-41.51 1-62 0 0-1-.04-1 0v62Z"/><path fill="none" fill-opacity="0" stroke="#7A7A7A" stroke-opacity=".68" stroke-width=".3" d="M240 318c0-.04 1 0 1 0V139s-1-.04-1 0v179Z"/><path fill="none" fill-opacity="0" stroke="#7C7C7C" stroke-opacity=".65" stroke-width=".3" d="M454 163c0-.04 1 0 1 0v-24s-1-.04-1 0v24Z"/><path fill="none" fill-opacity="0" stroke="#656565" stroke-opacity=".63" stroke-width=".3" d="M275 389s.75-.25 1 0c3.63-40.16-1.38-81.7 0-122s0-80.69 0-121c0 0-1-.04-1 0 0 40.39-1.36 81.7 0 122s-3.66 80.93 0 121Z"/><path fill="none" fill-opacity="0" stroke="#616161" stroke-opacity=".67" stroke-width=".3" d="M416 202c0-.04 1 0 1 0v-55s-1-.04-1 0v55Z"/><path fill="none" fill-opacity="0" stroke="#535353" stroke-opacity=".02" stroke-width=".3" d="M418 190c4.2-5.66.02-20.71 0-27-.83 8.82 0 18.13 0 27Z"/><path fill="none" fill-opacity="0" stroke="#7D7D7D" stroke-opacity=".82" stroke-width=".3" d="M454 192v20c1.47-15.42 1-32.77 1-49 0 0-1-.04-1 0v29Z"/><path fill="none" fill-opacity="0" stroke="#7C7C7C" stroke-opacity=".71" stroke-width=".3" d="M311 227c.34-.23 1 0 1 0v-57s-1-.04-1 0v57Z"/><path fill="none" fill-opacity="0" stroke="#5A5A5A" stroke-opacity=".59" stroke-width=".3" d="M488 314c0-.04 1 0 1 0V171s-1-.04-1 0v143Z"/><path fill="none" fill-opacity="0" stroke="#A2A2A2" stroke-opacity=".02" stroke-width=".3" d="M310 200c.66-3.46.66-9.54 0-13 .01.78-1.26 2.57-1.78 4.78-.52 2.2 1.8 6.94 1.78 8.22Z"/><path fill="none" fill-opacity="0" stroke="#6B6B6B" stroke-opacity=".04" stroke-width=".3" d="M418 289v49c0 3.68.77 10.15 1 11-.29-10.18.85-19 .01-28.99-.84-9.99.88-21.08-.01-32.01s1.13-25.39 0-36 2.72-21.75.6-31.26c-2.13-9.5 3.88-22.33-1.6-29.74-.02 32.67 0 65.33 0 98Z"/><path fill="none" fill-opacity="0" stroke="#767676" stroke-opacity=".3" stroke-width=".3" d="M453 219c0-.04 1 0 1 0v-27c-.8 8.24-1 18-1 27Z"/><path fill="none" fill-opacity="0" stroke="#656565" stroke-opacity=".51" stroke-width=".3" d="M346 402s.8-.24 1 0c-2.78-22.59 1.22-46.24 0-69-1.22-22.76.47-46.22 0-69s0-45.25 0-68c0 0-1-.04-1 0 0 34.2-1.16 68.84 0 103s-3.09 69 0 103Z"/><path fill="none" fill-opacity="0" stroke="#626262" stroke-opacity=".78" stroke-width=".3" d="M417 306V202s-1-.04-1 0c0 34.28-2.24 70.55 1 104Z"/><path fill="none" fill-opacity="0" stroke="#AAA" stroke-opacity=".02" stroke-width=".3" d="M310 221c.66-3.46.66-9.54 0-13 0-.07-1.3 2.57-1.78 4.78-.48 2.2 1.8 6.95 1.78 8.22Z"/><path fill="none" fill-opacity="0" stroke="#797979" stroke-opacity=".47" stroke-width=".3" d="M453 272c0-.04 1 0 1 0v-53s-1-.04-1 0c0 17.42-1.57 35.66 0 53Z"/><path fill="none" fill-opacity="0" stroke="#838383" stroke-opacity=".82" stroke-width=".3" d="M311 229c0 55.33-.01 110.67 0 166v1s.68-.24 1 0c1.01-11.13 0-22.82 0-34V227s-.66-.23-1 0v2Z"/><path fill="none" fill-opacity="0" stroke="#868686" stroke-opacity=".32" stroke-width=".3" d="M310 235c-1.94 8.73-1.56 13.76 0 22 1.17 6.16 0 13.71 0 20v70c0 7.24-.99 17.01 0 24 .99 6.99-2.96 18.65 1 24-.01-55.33 0-110.67 0-166-.76 1.88-.5 3.73-1 6Z"/><path fill="none" fill-opacity="0" stroke="#9E9E9E" stroke-opacity=".02" stroke-width=".3" d="M310 277c0-6.29 1.17-13.84 0-20 .05 3.04-5.31 17.58 0 20Z"/><path fill="none" fill-opacity="0" stroke="#757675" stroke-opacity=".18" stroke-width=".3" d="M452 293c.43 12.63 0 25.36 0 38 0-.04 1 0 1 0v-10c0-16.11 1.43-32.96 0-49 0 0-.97-.13-1 0-1.87 6.94-.24 13.82 0 21Z"/><path fill="none" fill-opacity="0" stroke="#797A79" stroke-opacity=".67" stroke-width=".3" d="M453 321c0-.04 1 0 1 0v-49s-1-.04-1 0c1.43 16.04 0 32.89 0 49Z"/><path fill="none" fill-opacity="0" stroke="#969696" stroke-opacity=".03" stroke-width=".3" d="M310 298v-20c-2.79.99-2.65 17.86 0 20Z"/><path fill="none" fill-opacity="0" stroke="#656565" stroke-opacity=".33" stroke-width=".3" d="M417 306v32c0-.04 1 0 1 0v-49s-1-.04-1 0v17Z"/><path fill="none" fill-opacity="0" stroke="#8B8B8B" stroke-opacity=".04" stroke-width=".3" d="M451 304c1.27 18.63 1.48 39.38 0 58-.55 6.98 1.63 21.73-4 26 .41-.12 4.02 1 5-1 .19-.89 0-2.09 0-3v-53c0-12.64.43-25.37 0-38-.5 3.86-1.29 6.75-1 11Z"/><path fill="none" fill-opacity="0" stroke="#7D7D7D" stroke-opacity=".04" stroke-width=".3" d="M309 341c.17 1.99.85 4.66 1 6v-48c-3.63 1.16-.37 15.79-1.21 20.77-.85 4.98-.28 15.4.21 21.23Z"/><path fill="none" fill-opacity="0" stroke="#7F7F7F" stroke-opacity=".38" stroke-width=".3" d="M382 401c0 .02 1 0 1 0 .68-7.53 0-15.44 0-23v-68s-1-.04-1 0c0 29.92-2.67 61.21 0 91Z"/><path fill="none" fill-opacity="0" stroke="#595959" stroke-opacity=".46" stroke-width=".3" d="M488 367c0-.04 1 0 1 0v-53s-1-.04-1 0v53Z"/><path fill="none" fill-opacity="0" stroke="#767676" stroke-opacity=".45" stroke-width=".3" d="M240 368v1c0 14.03.29 29.17 2 43 .04.13 1 0 1 0-1.91-10.85-1-22.75-1-34-.84-8.64-1-18.66-1-28v-32s-1-.04-1 0c0 16.67-.01 33.33 0 50Z"/><path fill="none" fill-opacity="0" stroke="gray" stroke-opacity=".84" stroke-width=".3" d="M453 331c0 17.07-2.43 36.13 0 53 .26.12 1.02.95 1 1 3.05-9.51-1.14-21.94 0-32 1.14-10.06 0-21.79 0-32 0 0-1-.04-1 0v10Z"/><path fill="none" fill-opacity="0" stroke="#7C7C7C" stroke-opacity=".32" stroke-width=".3" d="M452 384s.59-.19 1 0c-2.43-16.87 0-35.93 0-53 0 0-1-.04-1 0v53Z"/><path fill="none" fill-opacity="0" stroke="#7C7C7C" stroke-opacity=".41" stroke-width=".3" d="M417 373c0-.04 1 0 1 0v-22c2.2.74-.31 4.33 2 5 .11-2.37-.95-5.38-1-7-.23-.85-1-7.32-1-11 0 0-1-.04-1 0v35Z"/><path fill="none" fill-opacity="0" stroke="#BBB" stroke-opacity=".08" stroke-width=".3" d="M284 390c.24.15 4.48 3.93 7 5 6.89 1.35 13 5.3 20 6-.27-1.6.36-3.42 0-5v-1c-3.96-5.35-.01-17.01-1-24-.99-6.99 0-16.76 0-24-.15-1.34-.83-4.01-1-6-1.74 17.25-.25 37.5-1 56-8.61-1.14-15.67-4.87-24-7Z"/><path fill="none" fill-opacity="0" stroke="#888" stroke-width=".3" d="M402 728h4c-.97-22.96.47-46.23-1.01-67.99-1.48-21.77-.53-45.52-1.99-67.01-1.46-21.49 1.57-44.26-5-64-6.58-19.73 1.99-33.97 17.92-44.08 15.92-10.12 25.6-17.24 38.83-30.17 13.23-12.93 21.67-24.85 25.93-43.07 4.25-18.22 3.32-44.86 3.32-64.68-2.22 22.89-1.02 53.49-9.69 74.31-8.68 20.81-24.22 29.99-39.06 43.94-14.84 13.94-38.87 18.2-43.32 40.68-4.46 22.48 7.94 50.95 6.07 75.07-1.87 24.12 1.96 49.85 2 74 .04 24.15 1.13 49.39 2 73Z"/><path fill="none" fill-opacity="0" stroke="#7B7B7B" stroke-opacity=".83" stroke-width=".3" d="M242 378c0-9.34-.16-19.36-1-28 0 9.34.16 19.36 1 28Z"/><path fill="none" fill-opacity="0" stroke="#6E6E6E" stroke-opacity=".16" stroke-width=".3" d="M418 373c0 6.02.6 12.74 1 18 .05-2.66-.16-5.35 0-8 .55-9.19.56-17.82 1-27-2.31-.67.2-4.26-2-5v22Z"/><path fill="none" fill-opacity="0" stroke="#E4E4E4" stroke-width=".3" d="M398 366c-9.95 9.31.65 33.5-12.25 41.75-12.91 8.24-32.41.23-46.75 1.25-7.91-11.62-2.38-27.48-12-38-9.72 7.63-3.25 18.66-8.75 28.25-5.5 9.58-19.09 4.53-27.17 1.67-8.08-2.86-17.33-8.59-25.08-8.92-1.5-4.94-4.92-8.94-6-14-10.99 6.96-2.78 25.22 4.25 34.75 7.03 9.54 17.35 15.7 27.72 21.28 10.38 5.57 23.3 10.25 34.81 14.19 11.5 3.95 22.47 4.57 35.55 4.11 13.08-.46 25.22-5.35 36.99-10.01 11.77-4.65 21.98-9.07 32.99-14.01 11-4.95 21.27-11.02 28.94-20.06 7.67-9.05 17.98-25.24 4.75-32.25-1.58 11.84-11.14 16.54-21.32 20.68-10.19 4.14-21.3 8.94-31.68 6.32-10.69-9.5-5.96-26.1-15-37Z"/><path fill="none" fill-opacity="0" stroke="#595959" stroke-opacity=".26" stroke-width=".3" d="M487 395c0 3.33.07 6.67 0 10 .47-3.93 1.31-10.15 2-14 .75-4.17.28-6.88 0-11-.29-4.29 0-8.7 0-13 0 0-1-.04-1 0 0 9.53-1 18.73-1 28Z"/><path fill="none" fill-opacity="0" stroke="#7F7F7F" stroke-opacity=".07" stroke-width=".3" d="M243 423c.09-.48.06-1.51 0-2-.35-2.98-.61-5.89-1-9-1.71-13.83-2-28.97-2-43-4.2 1.48-.56 13.59-.93 17.92-.36 4.34 1.85 14.07.91 19.05-.94 4.99 2.17 12.57 3.02 17.03Z"/><path fill="none" fill-opacity="0" stroke="#787878" stroke-opacity=".66" stroke-width=".3" d="M417 385c0 3.57-.44 7.46 0 11 .16 1.32.42 1.13 1 2 1.41-1.9.95-4.46 1-7-.4-5.26-1-11.98-1-18 0 0-1-.04-1 0v12Z"/><path fill="none" fill-opacity="0" stroke="#9A9A9A" stroke-opacity=".07" stroke-width=".3" d="M419 391c-.05 2.54.41 5.1-1 7 0 0-.05.5 0 1 .03.35.65.92 1 1 3.16-.68 6.32-3.54 7-4-1.74.02-3.6-.21-5 1 .57-4.76-1.79-11.5-2-14-.16 2.65.05 5.34 0 8Z"/><path fill="none" fill-opacity="0" stroke="#C7C7C7" stroke-opacity=".16" stroke-width=".3" d="M447 388c-7.32 2.21-16.6 7.76-21 8-.68.46-3.84 3.32-7 4 2.84.6 5.44-.57 8-1 7.46-2.11 15.4-6.15 23-9 .4-.31 1.87-2.42 2-3-.98 2-4.59.88-5 1Z"/><path fill="none" fill-opacity="0" stroke="#BBB" stroke-opacity=".31" stroke-width=".3" d="M276 389s-.22.87 0 1c5.03 1.4 10.01 3.46 15 5-2.52-1.07-6.76-4.85-7-5-1.52-.39-4.62-1.97-6-2-.33-.01-1.85.7-2 1Z"/><path fill="none" fill-opacity="0" stroke="#BFBFBF" stroke-opacity=".7" stroke-width=".3" d="M450 390c-7.6 2.85-15.54 6.89-23 9 7.86-1.33 19.43-4.4 26-9 1.75-.85-2.11-.33-3 0Z"/><path fill="none" fill-opacity="0" stroke="#5C5C5C" stroke-opacity=".1" stroke-width=".3" d="M487 405c-.09 4.54-.91 8.19-2 12 .02.5 0 1.5 0 2 0 2.56-.39 5.47 0 8-.01.1 1.67-4.38 2.07-7.93.41-3.55 1.25-10.06 1.93-14.07.68-4.01-.19-10.48 0-14-.69 3.85-1.53 10.07-2 14Z"/><path fill="none" fill-opacity="0" stroke="#5A5A5A" stroke-opacity=".68" stroke-width=".3" d="M485 417c1.09-3.81 1.91-7.46 2-12 .07-3.33 0-6.67 0-10-.62 6.42-2.27 15.08-2 22Z"/><path fill="none" fill-opacity="0" stroke="#B7B7B7" stroke-opacity=".04" stroke-width=".3" d="M374 403c-7.9.81-16.12-.97-24 0-.11.01-2.51.93-2 1 11.24-1.02 22.74.76 34 0v-3c-.16.18-1.94-.87-2-1-1.41.45-3.02 2.69-6 3Z"/><path fill="none" fill-opacity="0" stroke="#BFBFBF" stroke-opacity=".34" stroke-width=".3" d="M348 404s-.04 1 0 1c4.13.88 14.18.29 18 0 3.82-.29 15.29 2.14 17-1 .06-.3.19-2.82 0-3 0 0-1 .02-1 0v3c-11.26.76-22.76-1.02-34 0Z"/><path fill="none" fill-opacity="0" stroke="#C2C2C2" stroke-opacity=".82" stroke-width=".3" d="M347 406c4 1.83 14.88-.48 19 0 4.12.48 16.28 1.47 17-2-1.71 3.14-13.18.71-17 1-3.82.29-13.87.88-18 0-.66-.14-1.48-.57-2-1 .25.36.53 1.78 1 2Z"/><path fill="none" fill-opacity="0" stroke="#6C6C6C" stroke-opacity=".68" stroke-width=".3" d="M243 421c.64 2.6 2.28 6.46 3 9-.02-.5.06-1.51 0-2-.63-5.33-2.07-10.73-3-16 0 0-.96.13-1 0 .39 3.11.65 6.02 1 9Z"/><path fill="none" fill-opacity="0" stroke="#5E5E5E" stroke-opacity=".52" stroke-width=".3" d="M476 452c.69-1.04 2.38-1.94 3-3 0 0-.09-.52 0-1 .97-5.18 6.84-16.34 7-18-.08-1.03-.83-1.91-1-3-.39-2.53 0-5.44 0-8-4.22 9.94-4.48 22.52-9 33Z"/><path fill="none" fill-opacity="0" stroke="#656565" stroke-opacity=".27" stroke-width=".3" d="M243 423c-.93 4.99.46 7.66 2 11-.12-.25 2 4.72 2 7 2.47-1.39-.85-3.9 0-6-.35-1.76-.93-3.08-1-5-.72-2.54-2.36-6.4-3-9 .06.49.09 1.52 0 2Z"/><path fill="none" fill-opacity="0" stroke="#6C6C6C" stroke-width=".3" d="M246 430c.07 1.92.65 3.24 1 5 .49 1.39 1.44 3.33 2 5 7.43 14.9 17.96 25.28 32.25 35.75 14.28 10.48 29.42 19.23 27.75 40.25 2.87-9.86 3.02-21.01-6.25-27.75-9.26-6.74-13.76-11.15-21.52-17.48s-14.73-10.72-20.46-18.54c-5.73-7.82-11.91-15.41-14.77-24.23.06.49-.02 1.5 0 2Z"/><path fill="none" fill-opacity="0" stroke="#6B6B6B" stroke-opacity=".07" stroke-width=".3" d="M479 448c2.16.78 2.55-4.32 3.67-7.33 1.13-3 3.6-7.2 3.33-10.67-.16 1.66-6.03 12.82-7 18Z"/><path fill="none" fill-opacity="0" stroke="#5F5F5F" stroke-opacity=".49" stroke-width=".3" d="M245 434c1.77 6.08 1.89 11.21 5 15 5.38 6.57 8.49 16.09 14.25 22.75S276.6 484.07 282 491c.33.17.73.83 1 1 6.3 4 14.43 9.13 19 15 .35.13.76.73 1 1 .96 1.12 2.74 3.73 3 5-.97-10.62-14.21-14.47-21.25-21.75-7.03-7.28-14.75-13.41-21.05-21.95-6.31-8.53-11.31-19.2-14.7-29.3-.56-1.67-1.51-3.61-2-5-.85 2.1 2.47 4.61 0 6 0-2.28-2.12-7.25-2-7Z"/><path fill="none" fill-opacity="0" stroke="#5A5A5A" stroke-opacity=".98" stroke-width=".3" d="M306 513c.33 3.6 0 7.38 0 11 0-.04 1 0 1 0h1c.16-2.9.78-5.25 1-8 1.67-21.02-13.47-29.77-27.75-40.25C266.96 465.28 256.43 454.9 249 440c3.39 10.1 8.39 20.77 14.7 29.3 6.3 8.54 14.02 14.67 21.05 21.95 7.04 7.28 20.28 11.13 21.25 21.75Z"/><path fill="none" fill-opacity="0" stroke="#696969" stroke-opacity=".07" stroke-width=".3" d="M282 491c-5.4-6.93-11.99-12.59-17.75-19.25S255.38 455.57 250 449c7.58 16.65 15.1 33.58 32 42Z"/><path fill="none" fill-opacity="0" stroke="#5F5F5F" stroke-opacity=".08" stroke-width=".3" d="M476 452c-1.17 2.71-2.26 4.47-4 7-11.81 17.22-23.73 32.69-42 44-4.41 2.73-8.49 5.4-13 8-6.97 4.01-7 5.61-7 14 4.41-1.37.22-7.58 2-11 7.65-1.16 13.64-7.21 19.75-10.81 6.11-3.59 13.44-8.68 19.5-14.94 6.06-6.27 12.91-12.76 16.97-20.02 4.07-7.27 9.13-9.16 10.78-19.23-.62 1.06-2.31 1.96-3 3Z"/><path fill="none" fill-opacity="0" stroke="#5B5B5B" stroke-opacity=".58" stroke-width=".3" d="M430 503c18.27-11.31 30.19-26.78 42-44-13.71 14.82-25.48 31.21-42 44Z"/><path fill="none" fill-opacity="0" stroke="#6B6B6B" stroke-opacity=".08" stroke-width=".3" d="M302 507c-4.57-5.87-12.7-11-19-15-.71 5.44 7.81 4.96 9 11 4.48-.56 6.11 2.52 10 4Z"/><path fill="none" fill-opacity="0" stroke="#818181" stroke-opacity=".05" stroke-width=".3" d="M306 546c.67-7.19 0-14.77 0-22 0-3.62.33-7.4 0-11-.26-1.27-2.04-3.88-3-5 2.09 5.74 1.78 11.61 1.07 17.93-.7 6.31 1.91 13.9 1.93 20.07Z"/><path fill="none" fill-opacity="0" stroke="#5B5B5B" stroke-opacity=".65" stroke-width=".3" d="M411 594v-14c0-18.27-1-35.86-1-54v-1c0-8.39.03-9.99 7-14 1.38-.34-8.93-.73-8 6 .93 6.73-.46 13.38 0 20 .46 6.62-.3 13.51 0 20s-.35 13.76 0 20c.35 6.23 1.46 11.38 2 17Z"/><path fill="none" fill-opacity="0" stroke="#7A7A7A" stroke-opacity=".18" stroke-width=".3" d="M306 546c-.79 8.46-1.46 14.29 0 22 1.48 7.82.75 19.06 0 27-.3 3.23-1.25 6.39-1 10 .73 10.74 1 21.9 1 33 0-.04 1 0 1 0 1.69-18.65 0-38.26 0-57 0-18.74 1.68-38.35 0-57 0 0-1-.04-1 0 0 7.23.67 14.81 0 22Z"/><path fill="none" fill-opacity="0" stroke="#7A7A7A" stroke-opacity=".82" stroke-width=".3" d="M307 638c3.57-36.92-1.05-76.26 1-114h-1c1.68 18.65 0 38.26 0 57 0 18.74 1.69 38.35 0 57Z"/><path fill="none" fill-opacity="0" stroke="#6E6E6E" stroke-opacity=".05" stroke-width=".3" d="M411 580c.71 7.33 1 15.97 1 24v13c.05.23.89.65 1 1-.4-6.31.51-16.31.35-23.31-.15-6.99.75-15.1-1.15-21.44-1.91-6.35 1.8-16.96-.2-23.25-2-6.29 3.36-22.57-2-24 0 18.14 1 35.73 1 54Z"/><path fill="none" fill-opacity="0" stroke="#A0A0A0" stroke-opacity=".02" stroke-width=".3" d="M306 595c.75-7.94 1.48-19.18 0-27 0 .02-2.55 4.31-1.35 6.31 1.19 1.99-.35 4.56.28 6.62.63 2.06-1.14 5 .07 7.07 1.21 2.07 1 5.63 1 7Z"/><path fill="none" fill-opacity="0" stroke="#5A5A5A" stroke-opacity=".23" stroke-width=".3" d="M411 594c0 3.42.73 7.25 1 10 0-8.03-.29-16.67-1-24v14Z"/><path fill="none" fill-opacity="0" stroke="#A3A3A3" stroke-opacity=".05" stroke-width=".3" d="M305 689c.36-2.77.79-6.85 1-9-.01-14 0-28 0-42 0-11.1-.27-22.26-1-33-2.58 26.69.59 55.57 0 84Z"/><path fill="none" fill-opacity="0" stroke="#5C5C5C" stroke-opacity=".18" stroke-width=".3" d="M413 642c0-2.31-.17-4.7 0-7 .44-5.78 1.74-11.24 0-17-.11-.35-.95-.77-1-1 0 8.35.26 17.34 1 25Z"/><path fill="none" fill-opacity="0" stroke="#818181" stroke-opacity=".05" stroke-width=".3" d="M413 642v18c.15 1.13.85 3.3 1 5 .2-9.87-.01-20.18-1-30-.17 2.3 0 4.69 0 7Z"/><path fill="none" fill-opacity="0" stroke="#787878" stroke-opacity=".42" stroke-width=".3" d="M306 680v1c.25.25 1 0 1 0 0-14.14 1.27-28.93 0-43 0 0-1-.04-1 0 0 14-.01 28 0 42Z"/><path fill="none" fill-opacity="0" stroke="#5D5D5D" stroke-opacity=".6" stroke-width=".3" d="M413 712c.17-1.75.95-4.6 1-7 .15-7.33 0-14.67 0-22 0 0 .22-.62 0-1-3.01-5.26-1-15.93-1-22v-4c-1.75 18.08 0 37.23 0 56Z"/><path fill="none" fill-opacity="0" stroke="#585858" stroke-opacity=".18" stroke-width=".3" d="M414 682c2.72-3.49.39-12.48 0-17-.15-1.7-.85-3.87-1-5 0 6.07-2.01 16.74 1 22Z"/><path fill="none" fill-opacity="0" stroke="#8E8E8E" stroke-opacity=".19" stroke-width=".3" d="M305 689c-.65 4.98-1.09 7.22 0 13 1.59 8.36-1.19 17.56 0 26h1c0-15.67-.01-31.33 0-47v-1c-.21 2.15-.64 6.23-1 9Z"/><path fill="none" fill-opacity="0" stroke="#7B7B7B" stroke-opacity=".69" stroke-width=".3" d="M306 728h1v-47s-.75.25-1 0c-.01 15.67 0 31.33 0 47Z"/><path fill="none" fill-opacity="0" stroke="#606060" stroke-opacity=".07" stroke-width=".3" d="M414 705c0 .01 1 0 1 0 1.83-1.77.86-19.49-1-22 0 7.33.15 14.67 0 22Z"/><path fill="none" fill-opacity="0" stroke="#9A9A9A" stroke-opacity=".02" stroke-width=".3" d="M303 728h2c-1.19-8.44 1.59-17.64 0-26 .36 6.1-3.43 17.32-2 26Z"/><path fill="none" fill-opacity="0" stroke="#606060" stroke-opacity=".38" stroke-width=".3" d="M413 712v16h2c.47-6.71 2.3-15.04 0-23 0 0-1 .01-1 0-.05 2.4-.83 5.25-1 7Z"/><path fill="#C6C6C6" fill-opacity=".05" d="M246 35c5.63-4.54 15.4-5.81 21-1h1c.55-.1 1.4-1.28 2-1-6.71-4.79-17.18-5.32-24 2Z"/><path fill="#C3C3C3" fill-opacity=".15" d="M311 40c1.17-1.84 1.8-.07 2 1 .41-2.1 2.95-4.83 5-6 2.09-1.59 6.44-2.25 9-3 1.5-.44 2.87-1.26 5-1 .49.06 1 0 1 0 2.12-2.51-12.15-2.41-14.7.29-2.55 2.69-6.51 3.31-7.3 8.71Z"/><path fill="#A8A8A8" fill-opacity=".11" d="M383 47c.19.41 1.88.74 2 1 .17-4.51.56-7.51 3-11 4.64-6.62 13.43-8.24 20-4 1.75 1.13 2.76 2.47 4 4 .24.3 1.93 1.73 2 2 .03-.47 1-2.11 1-2-.6-2.83-5.14-3.13-5-7-14.63-4.24-28 .88-27 17Z"/><path fill="#B7B7B7" fill-opacity=".35" d="M333 31s-.51.06-1 0c-.27 2.1 1.71 2.03 3 3 1.85 1.4 5.3 3.68 6 6-.1-1.36.24-3.41-2-5 1.63-2.49 2.06 2.06 3 0-2.11-2.11-5.97-5.3-9-4Z"/><path fill="#C3C3C3" fill-opacity=".09" d="M455 41c.21-1.27 4.6-5.35 6-6 1.14-.53 2.74-.64 4-1 4.87-1.37 11.27-1.54 16 1 1.16.62 3.2 2.08 4 3-5.04-6.32-10.76-7.56-15.75-6.24-4.99 1.32-16.33.33-14.25 9.24Z"/><path fill="#B2B2B2" fill-opacity=".55" d="M246 35c-1.7 1.38-1.89 2.48-3 4-.31 1.55-.32 4.46 0 6 0-.01 1 0 1 0 0-1.3-.15-2.71 0-4 1.11-9.57 15.16-9.42 22-7 .44.16 1 0 1 0-5.6-4.81-15.37-3.54-21 1Z"/><path fill="silver" d="M327 32c12 .44 5.42 13.39 6.07 20.07.65 6.68-8.13 19.99-9.33 9.19-1.19-10.8-7.04-14.75-6.74-24.26-4.43 4.87-1.44 11.59-1.07 18.07.36 6.48-.12 15.01.07 21.93s-.26 14.92 0 22-.49 14.92 0 22-.71 13.3-.98 20.02c-.26 6.73 1.65 13.83.98 20.98-.67 7.15.3 14.78 0 22-.3 7.22.13 14.79 0 22-.13 7.21.04 13.78 0 21-.04 7.22-.03 14.75 0 22s-.11 14.77 0 22-.26 14.85 0 22-.25 13.25-.99 20.01c-.75 6.75.34 15.34-.01 21.99-.35 6.65.21 15.9 0 22s-1.98 15.91-1 21-.8 18.9-2 18c-.32-.24-1 0-1 0 .36 1.58-.27 3.4 0 5-7-.7-13.11-4.65-20-6-4.99-1.54-9.97-3.6-15-5-.46-.13-1.5 0-2 0-9.6.01-1.88-19.87-4-28-2.12-8.13-.24-22.41-1.93-32.07-1.68-9.67 1.29-23.46-.07-33.93-1.36-10.47 1.93-22.47 1-33-.93-10.53-1.41-20.06-1-31 .41-10.94-.2-22.86 0-34s-.13-22.8 0-34-.15-22.81 0-34c.15-11.19-.26-22.93 0-34s-.55-23.22 0-34c.55-10.78 4.77-18.65-2-28-6.84-2.42-20.89-2.57-22 7-.61 10.28 3.58 22.36 2 34s1.06 24.99-.33 36.67c-1.39 11.68-.99 24.35-.67 36.33.32 11.98-.97 22.89-.99 34.01-.02 11.12 1.61 23.15.99 34.99-.62 11.84.27 24.96 0 37s.11 24.96 0 37 .01 25.16 0 37-.09 24.61 0 36 2.39 23.59 2.78 34.22c.39 10.63 4.92 19.09 9.47 27.53 4.56 8.44 9.49 14.11 16.5 20.5 7.02 6.38 13.74 10.29 21 16 7.26 5.72 13.7 9.09 20.15 15.85 6.45 6.76 11.37 14.04 13.43 23.57 2.05 9.53-1.04 20.43-3.11 30.55-2.07 10.12-2 23.01-3.22 33.78-1.22 10.77.86 19.02-.78 29.22-1.64 10.2 1.09 19.92-.22 30.78s-.48 24.19-.22 35.22c.26 11.04-1.35 24.38-.78 35.78.57 11.4-1.63 20.49 0 31h63c-.34-9.7-.03-21.61 0-32s-1.19-18.23-1.93-27.08c-.75-8.85 2.82-18.54.6-27.59-2.22-9.05-.03-16.91-.07-25.07-.04-8.17-4.52-17.31-3.4-25.51 1.12-8.19-.74-18.62-2.18-26.78-1.43-8.15-4.32-19.43-4.26-26.22-6.34-5.31-3.3-17.7-3.56-25-.27-7.29 2.87-14.75 7.11-21.44 4.23-6.7 12.39-10.47 17.44-16.56 5.05-6.09 13.96-9.49 20.5-14.5 6.53-5.01 15.01-7.2 21.45-12.55 6.44-5.36 13.55-9.23 19.55-15.45 6-6.22 11.78-10.34 15.5-18.5 3.73-8.16 6.84-17.88 7.25-27.75.41-9.87-1.38-22.24 0-32 1.37-9.77-3.29-21.45-1-32s-.87-18.23.01-28.01c.87-9.78.75-22.74-.01-32.99-.76-10.25 2.87-22.63 1-33-1.87-10.37 1.05-19.87 0-31-1.05-11.13-.23-20.82 0-32s-1.1-22.01 0-33c1.09-10.99-1.38-20.47.99-31.01 2.38-10.53-3.26-22.73-.01-33.01 3.24-10.29-.12-21.45 4.02-30.98-.12-.24-.88-1.93-1-2-4.73-2.54-11.13-2.37-16-1-11.09 5.04-1.28 22.3-3 34s-.31 29.5-.01 42.01c.3 12.5-1.64 28.42-1.77 41.21-.12 12.79.77 24.65 0 38-.77 13.35.26 27.61-.15 40.85-.41 13.25-1.87 29.99-1.07 42.93.8 12.94 1.51 23.29.99 36.01-.52 12.72.65 31.23-.99 42.99-1.64 11.76 4.02 30.99-6 38-6.57 4.6-18.14 7.67-26 9-2.56.43-5.16 1.6-8 1-.35-.08-.97-.65-1-1-7.18-7.02-5.36-18.81-6-29-.64-10.19-2.93-23.25-2-34 .93-10.75-.82-21.47 0-33 .82-11.53-2.12-23.01-.22-34.22 1.9-11.21-2.33-23.61-.78-34.78 1.55-11.17.25-21.82 0-33s-.03-22.8 0-34 1.32-20.78 0-32c-1.32-11.22 1.13-24.18 0-35s3.29-24.95 1-35 5.37-25.3-2.59-31.75c-5.98-4.49-14.77-2.87-19.41 3.75-4.86 16.23 1.57 34.05-.33 50.67-1.9 16.62-.29 35.1-.67 52.33-.38 17.23.07 35.65 0 53s-.18 36.85 0 54 .67 33.7 0 51c-.67 17.3-.29 34.92-1 52s3.34 36.29-3 51c.19.18.06 2.7 0 3-.72 3.47-12.88 2.48-17 2-4.12-.48-15 1.83-19 0-10.08-1.81-5.72-22.14-7.93-32.07-2.21-9.94-.7-27.25-2.07-38.93-1.37-11.68.78-27.35 0-40-.78-12.65.74-28 0-41s-.37-26.22 0-39c.37-12.78-.59-25.56 0-38 .59-12.44-1.56-27.18 0-39 1.55-11.82-3.64-21.56-1-33 2.64-11.44-1.43-27.59 0-39s8.92-23.12-1-32c-1.29-.97-3.27-.9-3-3-2.13-.26-3.5.56-5 1Z"/><path fill="#DADADA" d="M318 35c-.53.4-.61 1.57-1 2-.3 9.51 5.55 13.46 6.74 24.26 1.2 10.8 9.98-2.51 9.33-9.19C332.42 45.39 339 32.44 327 32c-2.56.75-6.91 1.41-9 3Z"/><path fill="#8A8A8A" fill-opacity=".23" d="M268 34c1.58 1.48 2.07 3.36 3 5 .76 1.34 2.71 3.59 3 5 0-.5-.12-1.53 0-2 1.49-3.21-2.01-3.68 0-7-2.23 2.39-3.23-1.45-4-2-.6-.28-1.45.9-2 1Z"/><path fill="#9A9A9A" d="M418 399c-.05-.5 0-1 0-1-.58-.87-.84-.68-1-2-5.28-12.95-.59-29.79-3-44s.87-29.09-1-44 1.35-31.83 0-47c-1.35-15.17.16-29.91 0-45s-.87-29.08-.99-44.01c-.12-14.92 1.19-30.19-.01-44.99s2.34-30.3 0-45 3.33-31.52 0-45c-1.24-1.53-2.25-2.87-4-4 7.37 6.7-.29 21.95 2 32s-2.13 24.18-1 35-1.32 23.78 0 35c1.32 11.22.03 20.8 0 32s-.25 22.82 0 34 1.55 21.83 0 33c-1.55 11.17 2.68 23.57.78 34.78-1.9 11.21 1.04 22.69.22 34.22-.82 11.53.93 22.25 0 33s1.36 23.81 2 34c.64 10.19-1.18 21.98 6 29ZM274 390c-5.02-2.47-1.65-16.24-2-22-.35-5.76-2.91-15.23-2-22 .91-6.77 1.13-15.37 1-23-.13-7.63-.14-17.22 0-25 .14-7.78-.7-16.08.33-23.67 1.03-7.59.91-14.82-.31-22.35-1.21-7.54 1.25-15.45.98-22.98-.27-7.53-2.39-16.29-1-24 1.39-7.71.89-14.25 0-22-.88-7.75.5-16.11 0-24-.5-7.89.46-16.04 0-24-.46-7.96.7-17.12 0-25-.7-7.88-1.47-14.2-.01-22.01 1.46-7.81-.93-15.26-.99-22.99-.05-7.73 1-16.09 1-24 0-.5.08-1.51 0-2-.93-1.64-1.42-3.52-3-5h-1s-.56.16-1 0c6.77 9.35 2.55 17.22 2 28-.55 10.78.26 22.93 0 34s.15 22.81 0 34c-.15 11.19.13 22.8 0 34s.2 22.86 0 34 .41 23.06 0 34c-.41 10.94.07 20.47 1 31 .93 10.53-2.36 22.53-1 33 1.36 10.47-1.61 24.26.07 33.93 1.69 9.66-.19 23.94 1.93 32.07 2.12 8.13-5.6 28.01 4 28Z"/><path fill="#A5A5A5" d="M347 406c-.47-.22-.75-1.64-1-2-7.81-11.21-2.77-28.08-5-42-2.23-13.92 1.11-32.15 0-47-1.11-14.85.74-31.75 0-47s.87-31.63 0-47c-.87-15.37 1.58-31.71 0-47s1.31-29.94 0-45c-1.31-15.06 2.21-30.15 0-45-2.21-14.85 1.13-28.59 0-44-.7-2.32-4.15-4.6-6-6 9.92 8.88 2.43 20.59 1 32-1.43 11.41 2.64 27.56 0 39-2.64 11.44 2.55 21.18 1 33-1.56 11.82.59 26.56 0 39-.59 12.44.37 25.22 0 38-.37 12.78-.74 26 0 39s-.78 28.35 0 41c.78 12.65-1.37 28.32 0 40s-.14 28.99 2.07 38.93c2.21 9.93-2.15 30.26 7.93 32.07Z"/><path fill="#8D8D8D" fill-opacity=".98" d="M341 40c1.13 15.41-2.21 29.15 0 44 2.21 14.85-1.31 29.94 0 45 1.31 15.06-1.58 29.71 0 45s-.87 31.63 0 47c.87 15.37-.74 31.75 0 47s-1.11 32.15 0 47c1.11 14.85-2.23 33.08 0 47 2.23 13.92-2.81 30.79 5 42 .52.43 1.34.86 2 1-.04 0 0-1 0-1-.58-.87-.84-.68-1-2-.2-.24-1 0-1 0-4.93-4.77 1.11-17.11-1.99-24.01-3.1-6.9-.25-17.85-1.01-25.99-.76-8.14.37-18.47 0-27-.37-8.53.22-18.4 0-27-.22-8.6 2.11-17.06.67-25.67-1.44-8.61-.42-17.44-.67-26.33-.25-8.89.18-18.1 0-27-.18-8.9.24-18.16 0-27s.46-18.33 0-27c-.46-8.67-1.64-16.65-.07-25.07 1.57-8.43-.6-17.96-.92-25.94-.32-7.97 1.03-18.23.66-25.66s-4.5-18.07-.89-24.55S339.03 43.86 343 40c.26-.25 1 0 1 0 .5-1.6-.52-3.52-2-5-.94 2.06-1.37-2.49-3 0 2.24 1.59 1.9 3.64 2 5Z"/><path fill="#ABABAB" fill-opacity=".99" d="M461 35c-7.51 4.46-2.04 14.13-3 22-.96 7.87.33 19.34 0 28s-.06 19.01 0 28c.06 8.99-.98 17.95-1 27-.02 9.05-.01 17.85 0 27 .01 9.15-.03 18.78 0 28 .03 9.22-.09 18.79 0 28s.23 18.17-.99 27.01 1.46 17.17.99 25.99c-.47 8.82-.79 18.18-1 27-.21 8.82.6 19.58 0 28-.6 8.42 1.38 20.58 0 28-1.38 7.42 3.95 21.84-2 26 .02-.05-.74-.88-1-1-.41-.19-1 0-1 0 0 .91.19 2.11 0 3-.13.58-1.6 2.69-2 3 .89-.33 4.75-.85 3 0 10.02-7.01 4.36-26.24 6-38 1.64-11.76.47-30.27.99-42.99.52-12.72-.19-23.07-.99-36.01-.8-12.94.66-29.68 1.07-42.93.41-13.24-.62-27.5.15-40.85.77-13.35-.12-25.21 0-38 .13-12.79 2.07-28.71 1.77-41.21-.3-12.51-1.71-30.31.01-42.01s-8.09-28.96 3-34c-1.26.36-2.86.47-4 1Z"/><path fill="#9E9E9E" d="M313 41c-.23 1.19-.05 2.79 0 4 2.26 52.28 1.16 105.43 0 158-1.16 52.57 3.99 107.41-1 159 0 11.18 1.01 22.87 0 34 1.2.9 2.98-12.91 2-18s.79-14.9 1-21c.21-6.1-.35-15.35 0-22s-.74-15.24.01-21.99c.74-6.76 1.25-12.86.99-20.01-.26-7.15.11-14.77 0-22s.03-14.75 0-22-.04-14.78 0-22c.04-7.22-.13-13.79 0-21 .13-7.21-.3-14.78 0-22 .3-7.22-.67-14.85 0-22s-1.24-14.25-.98-20.98c.27-6.72 1.47-12.94.98-20.02s.26-14.92 0-22 .19-15.08 0-22 .29-15.45-.07-21.93c-.37-6.48-3.36-13.2 1.07-18.07.39-.43.47-1.6 1-2-2.05 1.17-4.59 3.9-5 6Z"/><path fill="#8E8E8E" fill-opacity=".96" d="M455 41c.19.8.86 1.24 1 2 .09.48 0 1.5 0 2 3.81 8.95.88 25.78 0 35v7c0 6.72 1.44 16.25-1 22v54c0 16.23.47 33.58-1 49v109c0 10.21 1.14 21.94 0 32-1.14 10.06 3.05 22.49 0 32 5.95-4.16.62-18.58 2-26 1.38-7.42-.6-19.58 0-28 .6-8.42-.21-19.18 0-28s.53-18.18 1-27-2.21-17.15-.99-25.99 1.08-17.8.99-27.01c-.09-9.21.03-18.78 0-28-.03-9.22.01-18.85 0-28-.01-9.15-.02-17.95 0-27s1.06-18.01 1-27c-.06-8.99-.33-19.34 0-28s-.96-20.13 0-28c.96-7.87-4.51-17.54 3-22-1.4.65-5.79 4.73-6 6Z"/><path fill="#999" d="M482 37c5.84 11.67-3.43 27.65-1 41 2.43 13.35-.72 27.16-.07 40.07.64 12.92-.84 28.22.07 41.93.91 13.71-.9 22.48 0 36s-.26 30.01 0 44c.26 13.99.2 30.01 0 44-.2 13.99-1.42 27.25-1 41 .42 13.75-.79 30.8 0 44s-.7 26.58-3.78 38.22-7.98 20.11-15.47 28.53c-7.48 8.42-13.97 14.48-22.83 21.17-8.86 6.69-17.56 10.84-26.15 17.85-8.59 7.01-16.12 11.89-22.07 21.93-5.96 10.03-4.87 25.73-2.7 37.3 2.17 11.57 4.03 24.77 4.78 37.22s.8 26.09 1.22 38.78c.42 12.69 2.36 27.47 1.78 40.22-.58 12.75-.99 25.79.82 38.52 1.81 12.74-2.12 25.59.4 39.26h6c-.87-23.61-1.96-48.85-2-73-.04-24.15-3.87-49.88-2-74 1.87-24.12-10.53-52.59-6.07-75.07 4.45-22.48 28.48-26.74 43.32-40.68 14.84-13.95 30.38-23.13 39.06-43.94 8.67-20.82 7.47-51.42 9.69-74.31 0-11.66-.99-22.77 0-34 1.37-15.54-.99-31.43 0-47s-.93-32.07-.78-47.22c.15-15.15.24-30.78-.22-45.78-.46-15 1.11-29.12.32-43.68-.78-14.55 2.4-30.56.68-45.32-1.72-14.76 1.9-30.22 2-44-.07-.32-.82-1.79-1-2-.8-.92-2.84-2.38-4-3 .12.07.88 1.76 1 2Z"/><path fill="#DCDCDC" d="M468 63c11.4-1.1 5.27-12.42 9.69-20.31 4.43-7.88-15.02-9.44-15.35-1.37-.33 8.08 6.55 13.36 5.66 21.68Z"/><path fill="#999" fill-opacity=".98" d="M385 48c-2.1 55.01 1.78 112.17 0 167s3.24 108.89-2 163c0 7.56.68 15.47 0 23 6.34-14.71 2.29-33.92 3-51s.33-34.7 1-52c.67-17.3.18-33.85 0-51s-.07-36.65 0-54-.38-35.77 0-53c.38-17.23-1.23-35.71.67-52.33 1.9-16.62-4.53-34.44.33-50.67-2.44 3.49-2.83 6.49-3 11Z"/><path fill="#828282" fill-opacity=".99" d="M417 396c-.44-3.54 0-7.43 0-11-1.3-13.46-1.2-26.94-2-41-.8-14.06.42-29.7 0-44s-.81-28.58-1-43c-.19-14.42.63-29.67 0-44-.63-14.33-.88-27.58 0-42 .88-14.42-1.29-29.74 0-44 1.29-14.26-2.5-29.32-1-43s-4.12-30.94 1-43c-.01-.5-.04-1.5 0-2-.07-.27-1.76-1.7-2-2 3.33 13.48-2.34 30.3 0 45s-1.2 30.2 0 45-.11 30.07.01 44.99c.12 14.93.83 28.92.99 44.01.16 15.09-1.35 29.83 0 45 1.35 15.17-1.87 32.09 0 47 1.87 14.91-1.41 29.79 1 44s-2.28 31.05 3 44Z"/><path fill="#5C5C5C" fill-opacity=".16" d="M414 39c-.04.5-.01 1.5 0 2 .13 4.94 1 9.79 1 15 .71 7.33 1 15.97 1 24v7c.73 7.66 1 16.65 1 25v177c0-.04 1 0 1 0 0-32.67-.02-65.33 0-98v-1c0-8.87-.83-18.18 0-27 1.33-14.13.69-25.04 0-39s1.31-33.19 0-47c-1.31-13.81 1.91-27.95-3-40 0-.11-.97 1.53-1 2Z"/><path fill="#AFAFAF" d="M383 728h13c-2.52-13.67 1.41-26.52-.4-39.26-1.81-12.73-1.4-25.77-.82-38.52.58-12.75-1.36-27.53-1.78-40.22-.42-12.69-.47-26.33-1.22-38.78-.75-12.45-2.61-25.65-4.78-37.22-2.17-11.57-3.26-27.27 2.7-37.3 5.95-10.04 13.48-14.92 22.07-21.93s17.29-11.16 26.15-17.85c8.86-6.69 15.35-12.75 22.83-21.17 7.49-8.42 12.39-16.89 15.47-28.53S480.79 382.2 480 369c-.79-13.2.42-30.25 0-44s.8-27.01 1-41c.2-13.99.26-30.01 0-44-.26-13.99.9-30.48 0-44s.91-22.29 0-36 .57-29.01-.07-41.93c-.65-12.91 2.5-26.72.07-40.07-2.43-13.35 6.84-29.33 1-41-4.14 9.53-.78 20.69-4.02 30.98-3.25 10.28 2.39 22.48.01 33.01-2.37 10.54.1 20.02-.99 31.01-1.1 10.99.23 21.82 0 33s-1.05 20.87 0 32c1.05 11.13-1.87 20.63 0 31 1.87 10.37-1.76 22.75-1 33s.88 23.21.01 32.99c-.88 9.78 2.28 17.46-.01 28.01-2.29 10.55 2.37 22.23 1 32-1.38 9.76.41 22.13 0 32-.41 9.87-3.52 19.59-7.25 27.75-3.72 8.16-9.5 12.28-15.5 18.5-6 6.22-13.11 10.09-19.55 15.45-6.44 5.35-14.92 7.54-21.45 12.55-6.54 5.01-15.45 8.41-20.5 14.5-5.05 6.09-13.21 9.86-17.44 16.56-4.24 6.69-7.38 14.15-7.11 21.44.26 7.3-2.78 19.69 3.8 24.25-.3 7.54 2.59 18.82 4.02 26.97 1.44 8.16 3.3 18.59 2.18 26.78-1.12 8.2 3.36 17.34 3.4 25.51.04 8.16-2.15 16.02.07 25.07 2.22 9.05-1.35 18.74-.6 27.59.74 8.85 1.96 16.69 1.93 27.08-.03 10.39-.34 22.3 0 32Z"/><path fill="#595959" fill-opacity=".22" d="M486 40c.19.88 0 2.09 0 3 .58 2.66 1 5.73 1 9 .64 6.61.63 14.46 0 21v17c.42 4.39 1 9.93 1 15 .01-.07 1 0 1 0V95c0-1.99-.11-4.01 0-6 .46-8.24 1.13-16.67.93-24.93-.21-8.26.07-19.8-4.93-26.07.18.21.93 1.68 1 2Z"/><path fill="#A0A0A0" fill-opacity=".06" d="M240 67c1.8-6.55 2.07-15.76 3-22-.32-1.54-.31-4.45 0-6-5.22 7.14-2.71 17.7-3 28Z"/><path fill="#686868" fill-opacity=".73" d="M271 41c.37 1.22.9 2.25 1 4 1.18 6.62 2 13.58 2 21 0-.04 1 0 1 0v-3c0-6.6-1-12.42-1-19-.29-1.41-2.24-3.66-3-5 .08.49 0 1.5 0 2Z"/><path fill="#8B8B8B" fill-opacity=".15" d="M311 40c-2.72 18.64-.57 32.85-2 51-1.43 18.15.65 39.2.33 55.33-.32 16.12-1.78 27.73.67 40.67.66 3.46.66 9.54 0 13-.81 4.28-.81 3.7 0 8 .66 3.46.66 9.54 0 13-.7 3.72-1.48 6.97-2 9-.51 2.02 1.99 4.26 2 5 .5-2.27.24-4.12 1-6V71c2.28 5.42.37 12.82 1 19 .58-6.02 1-13.29 1-20-.52-5.37-1.12-11.93-1-18 .05-2.51.75-5.18 1-7-.05-1.21-.23-2.81 0-4-.2-1.07-.83-2.84-2-1Z"/><path fill="#717171" fill-opacity=".98" d="M346 402c-3.09-34 1.16-68.84 0-103s0-68.8 0-103v-53c-2.4-24.76 1.45-51.66-1-77-.63-6.56 1.14-19.82-2-26-3.97 3.86 2.39 17.3-1.22 23.78-3.61 6.48.52 17.12.89 24.55s-.98 17.69-.66 25.66c.32 7.98 2.49 17.51.92 25.94-1.57 8.42-.39 16.4.07 25.07.46 8.67-.24 18.16 0 27s-.18 18.1 0 27c.18 8.9-.25 18.11 0 27s-.77 17.72.67 26.33-.89 17.07-.67 25.67c.22 8.6-.37 18.47 0 27 .37 8.53-.76 18.86 0 27s-2.09 19.09 1.01 25.99c3.1 6.9-2.94 19.24 1.99 24.01Z"/><path fill="#7E7E7E" fill-opacity=".1" d="M345 66c.12-.98-.1-2.01 0-3 2.33 18.76.34 39.49 1 59 2.29 23.66 1 49.56 1 74 0 22.75-.47 45.22 0 68s-1.22 46.24 0 69c1.22 22.76-2.78 46.41 0 69 .16 1.32.42 1.13 1 2-.51-.07 1.89-.99 2-1 .24-.2 0-1 0-1-4.28-1.56-.66-16.96-1.21-22.77-.55-5.81-.91-16.03-.72-23.16.2-7.12.21-15.92-.07-24.07s1-17.81.01-25.99c-.99-8.19 1.19-15.54.66-23.34-.54-7.8.23-15.77.26-23.6.02-7.82-.95-15.17-.92-23.06.03-7.9 1.07-15.48.66-23.34-.41-7.86.09-15.56.26-23.59.17-8.04-.24-17.76.07-26.08.31-8.32-.6-18.69-.78-26.78-.18-8.09.87-15.13.76-23.2-.12-8.06-2.2-15.6-1.77-23.79.44-8.19.29-15.23-.21-24.23s.69-17.34-3-25c0 0-.74-.25-1 0 3.14 6.18 1.37 19.44 2 26Z"/><path fill="#848484" d="M484 313c5.7-28-1.49-59.95 1-89 2.49-29.05-2.92-59.51-1-88 1.92-28.49-2.92-57.55 2-85 .18-2.64 0-5.35 0-8 0-.91.19-2.12 0-3-.1 13.78-3.72 29.24-2 44 1.72 14.76-1.46 30.77-.68 45.32.79 14.56-.78 28.68-.32 43.68s.37 30.63.22 45.78c-.15 15.15 1.77 31.65.78 47.22s1.37 31.46 0 47Z"/><path fill="#A4A4A4" d="M244 45c0 26.19-.27 52.1-1 78s.41 53.21 0 79 .37 53.68 0 79 .57 53.99 1 78c.43 24.01-.38 50.04 9.31 69.69 9.68 19.66 23.23 27.63 38.77 40.23 15.55 12.59 33.73 25.57 27.72 47.33-6 21.75-5.17 49.3-5.8 72.75-.63 23.45.15 44.1-.6 65.74-.75 21.65-.51 51.71-.4 73.26h7c-1.63-10.51.57-19.6 0-31-.57-11.4 1.04-24.74.78-35.78-.26-11.03-1.09-24.36.22-35.22s-1.42-20.58.22-30.78c1.64-10.2-.44-18.45.78-29.22s1.15-23.66 3.22-33.78c2.07-10.12 5.16-21.02 3.11-30.55-2.06-9.53-6.98-16.81-13.43-23.57-6.45-6.76-12.89-10.13-20.15-15.85-7.26-5.71-13.98-9.62-21-16-7.01-6.39-11.94-12.06-16.5-20.5-4.55-8.44-9.08-16.9-9.47-27.53-.39-10.63-2.69-22.83-2.78-34.22-.09-11.39-.01-24.16 0-36s-.11-24.96 0-37-.27-24.96 0-37-.62-25.16 0-37-1.01-23.87-.99-34.99c.02-11.12 1.31-22.03.99-34.01-.32-11.98-.72-24.65.67-36.33 1.39-11.68-1.25-25.03.33-36.67s-2.61-23.72-2-34c-.15 1.29 0 2.7 0 4Z"/><path fill="#868686" d="M274 390c.5 0 1.54-.13 2 0-.22-.13 0-1 0-1-.25-.25-1 0-1 0-5.13-1.53-1.04-15.34-2-21s.45-17.24 0-24c-.45-6.76.19-15.75 0-23s.08-16.69 0-24c-.08-7.31-2.26-14.58-1-22 1.26-7.42 1.55-14.76.22-22.22-1.33-7.47.64-14.26.78-21.78.14-7.52-.43-16.35 0-24 .43-7.65-.64-14.64-.98-22.02-.33-7.39-.79-16.56-.02-23.98.77-7.42.67-13.34 0-21-.66-7.66.34-16.23 0-24s.22-15.16 0-23 .25-16.09 0-24 .46-16.08 0-24c-.1-1.75-.63-2.78-1-4 0 7.91-1.05 16.27-1 24 .06 7.73 2.45 15.18.99 22.99-1.46 7.81-.69 14.13.01 22.01.7 7.88-.46 17.04 0 25 .46 7.96-.5 16.11 0 24 .5 7.89-.88 16.25 0 24 .89 7.75 1.39 14.29 0 22-1.39 7.71.73 16.47 1 24 .27 7.53-2.19 15.44-.98 22.98 1.22 7.53 1.34 14.76.31 22.35-1.03 7.59-.19 15.89-.33 23.67-.14 7.78-.13 17.37 0 25 .13 7.63-.09 16.23-1 23s1.65 16.24 2 22c.35 5.76-3.02 19.53 2 22Z"/><path fill="#6D6D6D" fill-opacity=".96" d="M417 385v-79c-3.24-33.45-1-69.72-1-104V80c-.7-7.33-1-15.97-1-24 0-5.21-.87-10.06-1-15-5.12 12.06.5 29.32-1 43s2.29 28.74 1 43c-1.29 14.26.88 29.58 0 44-.88 14.42-.63 27.67 0 42 .63 14.33-.19 29.58 0 44 .19 14.42.58 28.7 1 43 .42 14.3-.8 29.94 0 44 .8 14.06.7 27.54 2 41Z"/><path fill="#5E5E5E" fill-opacity=".11" d="M274 44c0 6.58 1 12.4 1 19 1.25 12.89 1 27.39 1 41v42c0 40.31 1.38 80.7 0 121s3.63 81.84 0 122c.15-.3 1.67-1.01 2-1 2.84-9.92-1.61-23.27-.02-33.98 1.59-10.7-1.34-22.13.02-33.02 1.36-10.89-1.6-22.84-.78-33.78.82-10.94.33-22.53.12-33.54-.21-11.01 1-22.53.59-33.6-.41-11.08-.36-22.93 0-34.01.36-11.08-1.3-20.32-.71-31.85.59-11.52-.19-21.49-.21-33.21-.02-11.72.02-25.82-.01-39.01-.03-13.19.73-28.35-3-40-.12.47 0 1.5 0 2Z"/><path fill="#7F7F7F" fill-opacity=".07" d="M452 272c.03-.13 1 0 1 0-1.57-17.34 0-35.58 0-53 0-9 .2-18.76 1-27v-81c0-8.68.23-18.09 1-26 0-7.69.33-16.07 1-23V45c0-.5.09-1.52 0-2-1.63 6.79-1.82 15.76-2.07 23.93-.25 8.16-1.54 17.95-.93 26.07.61 8.12-.76 17.09-.78 24.78-.02 7.68.22 13.6-.15 21.14-.36 7.54 1.07 13.75.53 21.34-.55 7.58-.73 17.73-.6 25.74.13 8.01-.79 16.4-.66 23.32.12 6.92.11 15.05.45 21.45.34 6.4-1.09 17.62-.53 23.48.56 5.87-2.93 13.15.74 17.75Z"/><path fill="#5B5B5B" fill-opacity=".97" d="M486 51c-1.53 22.48.75 46.07 0 69s.17 44.02 0 67c-.17 22.98-.7 48.29 0 71s.42 45.86 0 68 .24 49.4-1 70-6.29 37.68-18.3 52.7c-12.01 15.02-22.32 23.31-37.78 33.22s-34.07 19.24-26.14 40.3c7.92 21.07 2.67 43.36 5.22 65.78s-.44 47.21 1 70 1.93 45.86 2 69l2 1v-16c0-18.77-1.75-37.92 0-56v-14c-.74-7.66-1-16.65-1-25v-13c-.27-2.75-1-6.58-1-10-.54-5.62-1.65-10.77-2-17-.35-6.24.3-13.51 0-20s.46-13.38 0-20c-.46-6.62.93-13.27 0-20s9.38-6.34 8-6c4.51-2.6 8.59-5.27 13-8 16.52-12.79 28.29-29.18 42-44 1.74-2.53 2.83-4.29 4-7 4.52-10.48 4.78-23.06 9-33 0-.5.02-1.5 0-2-.27-6.92 1.38-15.58 2-22 0-9.27 1-18.47 1-28V112c-.65-6.68-1-14.63-1-22V52c0-3.27-.42-6.34-1-9 0 2.65.18 5.36 0 8Z"/><path fill="#F4F4F4" d="M258 52c5.36-10.92-8.9-6.48 0 0Z"/><path fill="#7A7A7A" fill-opacity=".47" d="M240 67c-1.19 4.32-.57 3.86 0 8 .57 4.16 0 8.8 0 13v51c0-.04 1 0 1 0 0-31.45 1.65-62.84 2-94-.93 6.24-1.2 15.45-3 22Z"/><path fill="#8A8A8A" fill-opacity=".99" d="M241 139v211c.84 8.64 1 18.66 1 28 0 11.25-.91 23.15 1 34 .93 5.27 2.37 10.67 3 16 2.86 8.82 9.04 16.41 14.77 24.23s12.7 12.21 20.46 18.54c7.76 6.33 12.26 10.74 21.52 17.48 9.27 6.74 9.12 17.89 6.25 27.75-.22 2.75-.84 5.1-1 8-2.05 37.74 2.57 77.08-1 114 1.27 14.07 0 28.86 0 43v47h6c-.11-21.55-.35-51.61.4-73.26.75-21.64-.03-42.29.6-65.74.63-23.45-.2-51 5.8-72.75 6.01-21.76-12.17-34.74-27.72-47.33-15.54-12.6-29.09-20.57-38.77-40.23-9.69-19.65-8.88-45.68-9.31-69.69-.43-24.01-1.37-52.68-1-78 .37-25.32-.41-53.21 0-79s-.73-53.1 0-79 1-51.81 1-78c0 0-1-.01-1 0-.35 31.16-2 62.55-2 94Z"/><path fill="#6F6F6F" fill-opacity=".98" d="M275 389c-3.66-40.07 1.36-80.7 0-121s0-81.61 0-122v-45c-2.31-10.52-1-23.67-1-35 0-7.42-.82-14.38-2-21 .46 7.92-.25 16.09 0 24s-.22 16.16 0 24-.34 15.23 0 23-.66 16.34 0 24c.67 7.66.77 13.58 0 21s-.31 16.59.02 23.98c.34 7.38 1.41 14.37.98 22.02-.43 7.65.14 16.48 0 24s-2.11 14.31-.78 21.78c1.33 7.46 1.04 14.8-.22 22.22-1.26 7.42.92 14.69 1 22 .08 7.31-.19 16.75 0 24s-.45 16.24 0 23c.45 6.76-.96 18.34 0 24s-3.13 19.47 2 21Z"/><path fill="#888" fill-opacity=".97" d="M312 52c.41 5.33 1 11.98 1 18 0 6.71-.42 13.98-1 20v272c4.99-51.59-.16-106.43 1-159 1.16-52.57 2.26-105.72 0-158-.25 1.82-.95 4.49-1 7Z"/><path fill="#858585" fill-opacity=".72" d="M456 62v18c.88-9.22 3.81-26.05 0-35v17Z"/><path fill="#848484" fill-opacity=".92" d="M384 51c.98 5.97 0 12.94 0 19v56c0 20.49.9 42.34-1 62v190c5.24-54.11.22-108.17 2-163s-2.1-111.99 0-167c-.12-.26-1.81-.59-2-1 .1 1.6.77 2.62 1 4Z"/><path fill="#909090" fill-opacity=".06" d="M381 108c.93 26.99 2.37 56.11 0 83-.81 9.2-.48 20.14-.21 28.77.26 8.63-.73 15.51-.12 23.56.6 8.05-1.29 17.23-.6 25.6.7 8.36-.15 15.96.27 24.39.42 8.43-.1 17.32.65 25.67.76 8.35-2.08 17.48-.77 25.79 1.31 8.3-1.52 17.23-.21 25.21 1.31 7.99-3.57 22.24-.01 30.01.06.13 1.84 1.18 2 1-2.67-29.79 0-61.08 0-91 0-33.88-.66-68.16 0-102s-2.19-69.06 1-102V91c0-7.03.39-14.72 1-21 0-6.06.98-13.03 0-19-.19 3.9-3.6 9.58-2.33 14.33s-.63 11.6.04 15.37c.68 3.76-1.83 8.16-.77 13.22 1.05 5.05-.15 7.85.06 14.08Z"/><path fill="#737373" d="M484 313c-.99 11.23 0 22.34 0 34 0 19.82.93 46.46-3.32 64.68-4.26 18.22-12.7 30.14-25.93 43.07s-22.91 20.05-38.83 30.17c-15.93 10.11-24.5 24.35-17.92 44.08 6.57 19.74 3.54 42.51 5 64 1.46 21.49.51 45.24 1.99 67.01 1.48 21.76.04 45.03 1.01 66.99l5 1c-.07-24.14-.56-47.21-2-70s1.55-47.58-1-70 2.7-44.71-5.22-65.78c-7.93-21.06 10.68-30.39 26.14-40.3 15.46-9.91 25.77-18.2 37.78-33.22 12.01-15.02 17.06-32.1 18.3-52.7 1.24-20.6.58-47.86 1-70 .42-22.14.7-45.29 0-68s-.17-48.02 0-71c.17-22.98-.75-44.07 0-67s-1.53-46.52 0-69c-4.92 27.45-.08 56.51-2 85-1.92 28.49 3.49 58.95 1 88-2.49 29.05 4.7 61-1 89Z"/><path fill="#7A7A7A" fill-opacity=".57" d="M313 70c0-6.02-.59-12.67-1-18-.12 6.07.48 12.63 1 18Z"/><path fill="#575757" fill-opacity=".37" d="M487 73c.63-6.54.64-14.39 0-21v21Z"/><path fill="#5F5F5F" fill-opacity=".68" d="M416 80c0-8.03-.29-16.67-1-24 0 8.03.3 16.67 1 24Z"/><path fill="#7C7C7C" fill-opacity=".53" d="M455 85v2c.34.23 1 0 1 0V62c-.67 6.93-1 15.31-1 23Z"/><path fill="#5C5C5C" fill-opacity=".28" d="M275 66v38c.27.25 1 0 1 0 0-13.61.25-28.11-1-41v3Z"/><path fill="#606060" fill-opacity=".67" d="M345 66c2.45 25.34-1.4 52.24 1 77v-21c-.66-19.51 1.33-40.24-1-59-.1.99.12 2.02 0 3Z"/><path fill="#616161" fill-opacity=".85" d="M275 101V66s-1-.04-1 0c0 11.33-1.31 24.48 1 35Z"/><path fill="#757575" fill-opacity=".52" d="M383 91c0-.04 1 0 1 0V70c-.61 6.28-1 13.97-1 21Z"/><path fill="#797979" fill-opacity=".37" d="M311 116c0-.04 1 0 1 0V90c-.63-6.18 1.28-13.58-1-19v45Z"/><path fill="#ADADAD" fill-opacity=".02" d="M240 88c0-4.2.57-8.84 0-13-.16 2.29-4.96 11.67 0 13Z"/><path fill="#717171" fill-opacity=".22" d="M454 111c0-.04 1 0 1 0V85c-.77 7.91-1 17.32-1 26Z"/><path fill="#5C5C5C" fill-opacity=".39" d="M416 112c0-.04 1 0 1 0 0-8.35-.27-17.34-1-25v25Z"/><path fill="#7E7E7E" fill-opacity=".75" d="M455 109c2.44-5.75 1-15.28 1-22 0 0-.66.23-1 0v22Z"/><path fill="#939393" fill-opacity=".11" d="M240 368c-.01-16.67 0-33.33 0-50V89c-6.42 2.33.76 18.7-1.22 25.78-1.98 7.07.02 22.32-.78 31.22-.8 8.9 1 21.5.98 29.98-.03 8.47-2.55 13.94-1.95 21.99.59 8.06.69 12.16.96 22.02.28 9.86-1.2 11.76-.66 23.34.54 11.58.26 27.81.67 39.67.41 11.86.05 17.97 0 29-.05 11.03-.67 21.7.98 30.98 1.64 9.28-4.73 17.25 1.02 25.02Z"/><path fill="#C5C5C5" fill-opacity=".01" d="M489 95c.14.46.81 1.16 1 2-.11-2.35-.86-6.95-1-8-.11 1.99 0 4.01 0 6Z"/><path fill="#5B5B5B" fill-opacity=".8" d="M488 112v-7c0-5.07-.58-10.61-1-15 0 7.37.35 15.32 1 22Z"/><path fill="#7A7A7A" fill-opacity=".67" d="M383 106v20c0-.04 1 0 1 0V91s-1-.04-1 0v15Z"/><path fill="#696969" fill-opacity=".1" d="M489 105v262c0 4.3-.29 8.71 0 13 2.03-18.06 2.13-37.71 1.34-56.32-.79-18.61 1.56-36.96.65-55.67-.9-18.71.82-38.4 0-57-.81-18.6.67-38.35-.32-57.34-.99-18.98 3.58-38.17-.67-56.67-.19-.84-.86-1.54-1-2v10Z"/><path fill="#616161" fill-opacity=".5" d="M275 146c0-.04 1 0 1 0v-42s-.73.25-1 0v42Z"/><path fill="#595959" fill-opacity=".44" d="M488 112v59c0-.04 1 0 1 0v-66s-.99-.07-1 0v7Z"/><path fill="#787878" fill-opacity=".27" d="M382 310c0-.04 1 0 1 0V106c-3.19 32.94-.34 68.16-1 102-.66 33.84 0 68.12 0 102Z"/><path fill="#757575" fill-opacity=".46" d="M454 139c0-.04 1 0 1 0v-28s-1-.04-1 0v28Z"/><path fill="#626262" fill-opacity=".54" d="M416 147c0-.04 1 0 1 0v-35s-1-.04-1 0v35Z"/><path fill="#7A7A7A" fill-opacity=".58" d="M311 170c0-.04 1 0 1 0v-54s-1-.04-1 0v54Z"/><path fill="#606060" fill-opacity=".34" d="M346 143v53c0-.04 1 0 1 0 0-24.44 1.29-50.34-1-74v21Z"/><path fill="#7A7A7A" fill-opacity=".81" d="M383 188c1.9-19.66 1-41.51 1-62 0 0-1-.04-1 0v62Z"/><path fill="#7A7A7A" fill-opacity=".68" d="M240 318c0-.04 1 0 1 0V139s-1-.04-1 0v179Z"/><path fill="#7C7C7C" fill-opacity=".65" d="M454 163c0-.04 1 0 1 0v-24s-1-.04-1 0v24Z"/><path fill="#656565" fill-opacity=".63" d="M275 389s.75-.25 1 0c3.63-40.16-1.38-81.7 0-122s0-80.69 0-121c0 0-1-.04-1 0 0 40.39-1.36 81.7 0 122s-3.66 80.93 0 121Z"/><path fill="#616161" fill-opacity=".67" d="M416 202c0-.04 1 0 1 0v-55s-1-.04-1 0v55Z"/><path fill="#535353" fill-opacity=".02" d="M418 190c4.2-5.66.02-20.71 0-27-.83 8.82 0 18.13 0 27Z"/><path fill="#7D7D7D" fill-opacity=".82" d="M454 192v20c1.47-15.42 1-32.77 1-49 0 0-1-.04-1 0v29Z"/><path fill="#7C7C7C" fill-opacity=".71" d="M311 227c.34-.23 1 0 1 0v-57s-1-.04-1 0v57Z"/><path fill="#5A5A5A" fill-opacity=".59" d="M488 314c0-.04 1 0 1 0V171s-1-.04-1 0v143Z"/><path fill="#A2A2A2" fill-opacity=".02" d="M310 200c.66-3.46.66-9.54 0-13 .01.78-1.26 2.57-1.78 4.78-.52 2.2 1.8 6.94 1.78 8.22Z"/><path fill="#6B6B6B" fill-opacity=".04" d="M418 289v49c0 3.68.77 10.15 1 11-.29-10.18.85-19 .01-28.99-.84-9.99.88-21.08-.01-32.01s1.13-25.39 0-36 2.72-21.75.6-31.26c-2.13-9.5 3.88-22.33-1.6-29.74-.02 32.67 0 65.33 0 98Z"/><path fill="#767676" fill-opacity=".3" d="M453 219c0-.04 1 0 1 0v-27c-.8 8.24-1 18-1 27Z"/><path fill="#656565" fill-opacity=".51" d="M346 402s.8-.24 1 0c-2.78-22.59 1.22-46.24 0-69-1.22-22.76.47-46.22 0-69s0-45.25 0-68c0 0-1-.04-1 0 0 34.2-1.16 68.84 0 103s-3.09 69 0 103Z"/><path fill="#626262" fill-opacity=".78" d="M417 306V202s-1-.04-1 0c0 34.28-2.24 70.55 1 104Z"/><path fill="#AAA" fill-opacity=".02" d="M310 221c.66-3.46.66-9.54 0-13 0-.07-1.3 2.57-1.78 4.78-.48 2.2 1.8 6.95 1.78 8.22Z"/><path fill="#797979" fill-opacity=".47" d="M453 272c0-.04 1 0 1 0v-53s-1-.04-1 0c0 17.42-1.57 35.66 0 53Z"/><path fill="#838383" fill-opacity=".82" d="M311 229c0 55.33-.01 110.67 0 166v1s.68-.24 1 0c1.01-11.13 0-22.82 0-34V227s-.66-.23-1 0v2Z"/><path fill="#868686" fill-opacity=".32" d="M310 235c-1.94 8.73-1.56 13.76 0 22 1.17 6.16 0 13.71 0 20v70c0 7.24-.99 17.01 0 24 .99 6.99-2.96 18.65 1 24-.01-55.33 0-110.67 0-166-.76 1.88-.5 3.73-1 6Z"/><path fill="#9E9E9E" fill-opacity=".02" d="M310 277c0-6.29 1.17-13.84 0-20 .05 3.04-5.31 17.58 0 20Z"/><path fill="#757675" fill-opacity=".18" d="M452 293c.43 12.63 0 25.36 0 38 0-.04 1 0 1 0v-10c0-16.11 1.43-32.96 0-49 0 0-.97-.13-1 0-1.87 6.94-.24 13.82 0 21Z"/><path fill="#797A79" fill-opacity=".67" d="M453 321c0-.04 1 0 1 0v-49s-1-.04-1 0c1.43 16.04 0 32.89 0 49Z"/><path fill="#969696" fill-opacity=".03" d="M310 298v-20c-2.79.99-2.65 17.86 0 20Z"/><path fill="#656565" fill-opacity=".33" d="M417 306v32c0-.04 1 0 1 0v-49s-1-.04-1 0v17Z"/><path fill="#8B8B8B" fill-opacity=".04" d="M451 304c1.27 18.63 1.48 39.38 0 58-.55 6.98 1.63 21.73-4 26 .41-.12 4.02 1 5-1 .19-.89 0-2.09 0-3v-53c0-12.64.43-25.37 0-38-.5 3.86-1.29 6.75-1 11Z"/><path fill="#7D7D7D" fill-opacity=".04" d="M309 341c.17 1.99.85 4.66 1 6v-48c-3.63 1.16-.37 15.79-1.21 20.77-.85 4.98-.28 15.4.21 21.23Z"/><path fill="#7F7F7F" fill-opacity=".38" d="M382 401c0 .02 1 0 1 0 .68-7.53 0-15.44 0-23v-68s-1-.04-1 0c0 29.92-2.67 61.21 0 91Z"/><path fill="#595959" fill-opacity=".46" d="M488 367c0-.04 1 0 1 0v-53s-1-.04-1 0v53Z"/><path fill="#767676" fill-opacity=".45" d="M240 368v1c0 14.03.29 29.17 2 43 .04.13 1 0 1 0-1.91-10.85-1-22.75-1-34-.84-8.64-1-18.66-1-28v-32s-1-.04-1 0c0 16.67-.01 33.33 0 50Z"/><path fill="gray" fill-opacity=".84" d="M453 331c0 17.07-2.43 36.13 0 53 .26.12 1.02.95 1 1 3.05-9.51-1.14-21.94 0-32 1.14-10.06 0-21.79 0-32 0 0-1-.04-1 0v10Z"/><path fill="#7C7C7C" fill-opacity=".32" d="M452 384s.59-.19 1 0c-2.43-16.87 0-35.93 0-53 0 0-1-.04-1 0v53Z"/><path fill="#7C7C7C" fill-opacity=".41" d="M417 373c0-.04 1 0 1 0v-22c2.2.74-.31 4.33 2 5 .11-2.37-.95-5.38-1-7-.23-.85-1-7.32-1-11 0 0-1-.04-1 0v35Z"/><path fill="#BBB" fill-opacity=".08" d="M284 390c.24.15 4.48 3.93 7 5 6.89 1.35 13 5.3 20 6-.27-1.6.36-3.42 0-5v-1c-3.96-5.35-.01-17.01-1-24-.99-6.99 0-16.76 0-24-.15-1.34-.83-4.01-1-6-1.74 17.25-.25 37.5-1 56-8.61-1.14-15.67-4.87-24-7Z"/><path fill="#888" d="M402 728h4c-.97-22.96.47-46.23-1.01-67.99-1.48-21.77-.53-45.52-1.99-67.01-1.46-21.49 1.57-44.26-5-64-6.58-19.73 1.99-33.97 17.92-44.08 15.92-10.12 25.6-17.24 38.83-30.17 13.23-12.93 21.67-24.85 25.93-43.07 4.25-18.22 3.32-44.86 3.32-64.68-2.22 22.89-1.02 53.49-9.69 74.31-8.68 20.81-24.22 29.99-39.06 43.94-14.84 13.94-38.87 18.2-43.32 40.68-4.46 22.48 7.94 50.95 6.07 75.07-1.87 24.12 1.96 49.85 2 74 .04 24.15 1.13 49.39 2 73Z"/><path fill="#7B7B7B" fill-opacity=".83" d="M242 378c0-9.34-.16-19.36-1-28 0 9.34.16 19.36 1 28Z"/><path fill="#6E6E6E" fill-opacity=".16" d="M418 373c0 6.02.6 12.74 1 18 .05-2.66-.16-5.35 0-8 .55-9.19.56-17.82 1-27-2.31-.67.2-4.26-2-5v22Z"/><path fill="#E4E4E4" d="M398 366c-9.95 9.31.65 33.5-12.25 41.75-12.91 8.24-32.41.23-46.75 1.25-7.91-11.62-2.38-27.48-12-38-9.72 7.63-3.25 18.66-8.75 28.25-5.5 9.58-19.09 4.53-27.17 1.67-8.08-2.86-17.33-8.59-25.08-8.92-1.5-4.94-4.92-8.94-6-14-10.99 6.96-2.78 25.22 4.25 34.75 7.03 9.54 17.35 15.7 27.72 21.28 10.38 5.57 23.3 10.25 34.81 14.19 11.5 3.95 22.47 4.57 35.55 4.11 13.08-.46 25.22-5.35 36.99-10.01 11.77-4.65 21.98-9.07 32.99-14.01 11-4.95 21.27-11.02 28.94-20.06 7.67-9.05 17.98-25.24 4.75-32.25-1.58 11.84-11.14 16.54-21.32 20.68-10.19 4.14-21.3 8.94-31.68 6.32-10.69-9.5-5.96-26.1-15-37Z"/><path fill="#595959" fill-opacity=".26" d="M487 395c0 3.33.07 6.67 0 10 .47-3.93 1.31-10.15 2-14 .75-4.17.28-6.88 0-11-.29-4.29 0-8.7 0-13 0 0-1-.04-1 0 0 9.53-1 18.73-1 28Z"/><path fill="#7F7F7F" fill-opacity=".07" d="M243 423c.09-.48.06-1.51 0-2-.35-2.98-.61-5.89-1-9-1.71-13.83-2-28.97-2-43-4.2 1.48-.56 13.59-.93 17.92-.36 4.34 1.85 14.07.91 19.05-.94 4.99 2.17 12.57 3.02 17.03Z"/><path fill="#787878" fill-opacity=".66" d="M417 385c0 3.57-.44 7.46 0 11 .16 1.32.42 1.13 1 2 1.41-1.9.95-4.46 1-7-.4-5.26-1-11.98-1-18 0 0-1-.04-1 0v12Z"/><path fill="#9A9A9A" fill-opacity=".07" d="M419 391c-.05 2.54.41 5.1-1 7 0 0-.05.5 0 1 .03.35.65.92 1 1 3.16-.68 6.32-3.54 7-4-1.74.02-3.6-.21-5 1 .57-4.76-1.79-11.5-2-14-.16 2.65.05 5.34 0 8Z"/><path fill="#C7C7C7" fill-opacity=".16" d="M447 388c-7.32 2.21-16.6 7.76-21 8-.68.46-3.84 3.32-7 4 2.84.6 5.44-.57 8-1 7.46-2.11 15.4-6.15 23-9 .4-.31 1.87-2.42 2-3-.98 2-4.59.88-5 1Z"/><path fill="#BBB" fill-opacity=".31" d="M276 389s-.22.87 0 1c5.03 1.4 10.01 3.46 15 5-2.52-1.07-6.76-4.85-7-5-1.52-.39-4.62-1.97-6-2-.33-.01-1.85.7-2 1Z"/><path fill="#BFBFBF" fill-opacity=".7" d="M450 390c-7.6 2.85-15.54 6.89-23 9 7.86-1.33 19.43-4.4 26-9 1.75-.85-2.11-.33-3 0Z"/><path fill="#5C5C5C" fill-opacity=".1" d="M487 405c-.09 4.54-.91 8.19-2 12 .02.5 0 1.5 0 2 0 2.56-.39 5.47 0 8-.01.1 1.67-4.38 2.07-7.93.41-3.55 1.25-10.06 1.93-14.07.68-4.01-.19-10.48 0-14-.69 3.85-1.53 10.07-2 14Z"/><path fill="#5A5A5A" fill-opacity=".68" d="M485 417c1.09-3.81 1.91-7.46 2-12 .07-3.33 0-6.67 0-10-.62 6.42-2.27 15.08-2 22Z"/><path fill="#B7B7B7" fill-opacity=".04" d="M374 403c-7.9.81-16.12-.97-24 0-.11.01-2.51.93-2 1 11.24-1.02 22.74.76 34 0v-3c-.16.18-1.94-.87-2-1-1.41.45-3.02 2.69-6 3Z"/><path fill="#BFBFBF" fill-opacity=".34" d="M348 404s-.04 1 0 1c4.13.88 14.18.29 18 0 3.82-.29 15.29 2.14 17-1 .06-.3.19-2.82 0-3 0 0-1 .02-1 0v3c-11.26.76-22.76-1.02-34 0Z"/><path fill="#C2C2C2" fill-opacity=".82" d="M347 406c4 1.83 14.88-.48 19 0 4.12.48 16.28 1.47 17-2-1.71 3.14-13.18.71-17 1-3.82.29-13.87.88-18 0-.66-.14-1.48-.57-2-1 .25.36.53 1.78 1 2Z"/><path fill="#6C6C6C" fill-opacity=".68" d="M243 421c.64 2.6 2.28 6.46 3 9-.02-.5.06-1.51 0-2-.63-5.33-2.07-10.73-3-16 0 0-.96.13-1 0 .39 3.11.65 6.02 1 9Z"/><path fill="#5E5E5E" fill-opacity=".52" d="M476 452c.69-1.04 2.38-1.94 3-3 0 0-.09-.52 0-1 .97-5.18 6.84-16.34 7-18-.08-1.03-.83-1.91-1-3-.39-2.53 0-5.44 0-8-4.22 9.94-4.48 22.52-9 33Z"/><path fill="#656565" fill-opacity=".27" d="M243 423c-.93 4.99.46 7.66 2 11-.12-.25 2 4.72 2 7 2.47-1.39-.85-3.9 0-6-.35-1.76-.93-3.08-1-5-.72-2.54-2.36-6.4-3-9 .06.49.09 1.52 0 2Z"/><path fill="#6C6C6C" d="M246 430c.07 1.92.65 3.24 1 5 .49 1.39 1.44 3.33 2 5 7.43 14.9 17.96 25.28 32.25 35.75 14.28 10.48 29.42 19.23 27.75 40.25 2.87-9.86 3.02-21.01-6.25-27.75-9.26-6.74-13.76-11.15-21.52-17.48s-14.73-10.72-20.46-18.54c-5.73-7.82-11.91-15.41-14.77-24.23.06.49-.02 1.5 0 2Z"/><path fill="#6B6B6B" fill-opacity=".07" d="M479 448c2.16.78 2.55-4.32 3.67-7.33 1.13-3 3.6-7.2 3.33-10.67-.16 1.66-6.03 12.82-7 18Z"/><path fill="#5F5F5F" fill-opacity=".49" d="M245 434c1.77 6.08 1.89 11.21 5 15 5.38 6.57 8.49 16.09 14.25 22.75S276.6 484.07 282 491c.33.17.73.83 1 1 6.3 4 14.43 9.13 19 15 .35.13.76.73 1 1 .96 1.12 2.74 3.73 3 5-.97-10.62-14.21-14.47-21.25-21.75-7.03-7.28-14.75-13.41-21.05-21.95-6.31-8.53-11.31-19.2-14.7-29.3-.56-1.67-1.51-3.61-2-5-.85 2.1 2.47 4.61 0 6 0-2.28-2.12-7.25-2-7Z"/><path fill="#5A5A5A" fill-opacity=".98" d="M306 513c.33 3.6 0 7.38 0 11 0-.04 1 0 1 0h1c.16-2.9.78-5.25 1-8 1.67-21.02-13.47-29.77-27.75-40.25C266.96 465.28 256.43 454.9 249 440c3.39 10.1 8.39 20.77 14.7 29.3 6.3 8.54 14.02 14.67 21.05 21.95 7.04 7.28 20.28 11.13 21.25 21.75Z"/><path fill="#696969" fill-opacity=".07" d="M282 491c-5.4-6.93-11.99-12.59-17.75-19.25S255.38 455.57 250 449c7.58 16.65 15.1 33.58 32 42Z"/><path fill="#5F5F5F" fill-opacity=".08" d="M476 452c-1.17 2.71-2.26 4.47-4 7-11.81 17.22-23.73 32.69-42 44-4.41 2.73-8.49 5.4-13 8-6.97 4.01-7 5.61-7 14 4.41-1.37.22-7.58 2-11 7.65-1.16 13.64-7.21 19.75-10.81 6.11-3.59 13.44-8.68 19.5-14.94 6.06-6.27 12.91-12.76 16.97-20.02 4.07-7.27 9.13-9.16 10.78-19.23-.62 1.06-2.31 1.96-3 3Z"/><path fill="#5B5B5B" fill-opacity=".58" d="M430 503c18.27-11.31 30.19-26.78 42-44-13.71 14.82-25.48 31.21-42 44Z"/><path fill="#6B6B6B" fill-opacity=".08" d="M302 507c-4.57-5.87-12.7-11-19-15-.71 5.44 7.81 4.96 9 11 4.48-.56 6.11 2.52 10 4Z"/><path fill="#818181" fill-opacity=".05" d="M306 546c.67-7.19 0-14.77 0-22 0-3.62.33-7.4 0-11-.26-1.27-2.04-3.88-3-5 2.09 5.74 1.78 11.61 1.07 17.93-.7 6.31 1.91 13.9 1.93 20.07Z"/><path fill="#5B5B5B" fill-opacity=".65" d="M411 594v-14c0-18.27-1-35.86-1-54v-1c0-8.39.03-9.99 7-14 1.38-.34-8.93-.73-8 6 .93 6.73-.46 13.38 0 20 .46 6.62-.3 13.51 0 20s-.35 13.76 0 20c.35 6.23 1.46 11.38 2 17Z"/><path fill="#7A7A7A" fill-opacity=".18" d="M306 546c-.79 8.46-1.46 14.29 0 22 1.48 7.82.75 19.06 0 27-.3 3.23-1.25 6.39-1 10 .73 10.74 1 21.9 1 33 0-.04 1 0 1 0 1.69-18.65 0-38.26 0-57 0-18.74 1.68-38.35 0-57 0 0-1-.04-1 0 0 7.23.67 14.81 0 22Z"/><path fill="#7A7A7A" fill-opacity=".82" d="M307 638c3.57-36.92-1.05-76.26 1-114h-1c1.68 18.65 0 38.26 0 57 0 18.74 1.69 38.35 0 57Z"/><path fill="#6E6E6E" fill-opacity=".05" d="M411 580c.71 7.33 1 15.97 1 24v13c.05.23.89.65 1 1-.4-6.31.51-16.31.35-23.31-.15-6.99.75-15.1-1.15-21.44-1.91-6.35 1.8-16.96-.2-23.25-2-6.29 3.36-22.57-2-24 0 18.14 1 35.73 1 54Z"/><path fill="#A0A0A0" fill-opacity=".02" d="M306 595c.75-7.94 1.48-19.18 0-27 0 .02-2.55 4.31-1.35 6.31 1.19 1.99-.35 4.56.28 6.62.63 2.06-1.14 5 .07 7.07 1.21 2.07 1 5.63 1 7Z"/><path fill="#5A5A5A" fill-opacity=".23" d="M411 594c0 3.42.73 7.25 1 10 0-8.03-.29-16.67-1-24v14Z"/><path fill="#A3A3A3" fill-opacity=".05" d="M305 689c.36-2.77.79-6.85 1-9-.01-14 0-28 0-42 0-11.1-.27-22.26-1-33-2.58 26.69.59 55.57 0 84Z"/><path fill="#5C5C5C" fill-opacity=".18" d="M413 642c0-2.31-.17-4.7 0-7 .44-5.78 1.74-11.24 0-17-.11-.35-.95-.77-1-1 0 8.35.26 17.34 1 25Z"/><path fill="#818181" fill-opacity=".05" d="M413 642v18c.15 1.13.85 3.3 1 5 .2-9.87-.01-20.18-1-30-.17 2.3 0 4.69 0 7Z"/><path fill="#787878" fill-opacity=".42" d="M306 680v1c.25.25 1 0 1 0 0-14.14 1.27-28.93 0-43 0 0-1-.04-1 0 0 14-.01 28 0 42Z"/><path fill="#5D5D5D" fill-opacity=".6" d="M413 712c.17-1.75.95-4.6 1-7 .15-7.33 0-14.67 0-22 0 0 .22-.62 0-1-3.01-5.26-1-15.93-1-22v-4c-1.75 18.08 0 37.23 0 56Z"/><path fill="#585858" fill-opacity=".18" d="M414 682c2.72-3.49.39-12.48 0-17-.15-1.7-.85-3.87-1-5 0 6.07-2.01 16.74 1 22Z"/><path fill="#8E8E8E" fill-opacity=".19" d="M305 689c-.65 4.98-1.09 7.22 0 13 1.59 8.36-1.19 17.56 0 26h1c0-15.67-.01-31.33 0-47v-1c-.21 2.15-.64 6.23-1 9Z"/><path fill="#7B7B7B" fill-opacity=".69" d="M306 728h1v-47s-.75.25-1 0c-.01 15.67 0 31.33 0 47Z"/><path fill="#606060" fill-opacity=".07" d="M414 705c0 .01 1 0 1 0 1.83-1.77.86-19.49-1-22 0 7.33.15 14.67 0 22Z"/><path fill="#9A9A9A" fill-opacity=".02" d="M303 728h2c-1.19-8.44 1.59-17.64 0-26 .36 6.1-3.43 17.32-2 26Z"/><path fill="#606060" fill-opacity=".38" d="M413 712v16h2c.47-6.71 2.3-15.04 0-23 0 0-1 .01-1 0-.05 2.4-.83 5.25-1 7Z"/></svg>