<svg width="100%" height="100%" viewBox="0 0 100 100" stroke-miterlimit="10" style="fill-rule:nonzero;clip-rule:evenodd;stroke-linecap:round;stroke-linejoin:round;" version="1.1" xml:space="preserve" xmlns="http://www.w3.org/2000/svg" xmlns:xlink="http://www.w3.org/1999/xlink">
<defs/>
<g id="github">
<g opacity="1">
	<path fill="none" opacity="1" stroke="#00f" d="M37.5803 77.4233C32.7227 74.222 25.0364 74.8019 20.5829 75.052C16.483 75.2817 8.56091 77.4074 6.62663 72.1766" stroke-dasharray="48.36565096952909" stroke-linecap="round" stroke-linejoin="round" stroke-width="9.67313"/>
<g opacity="1">
	<path fill="#00f" fill-rule="nonzero" opacity="1" stroke="none" d="M70.387 27.0835L70.387 27.0835C75.4819 27.0835 79.6122 31.2137 79.6122 36.3086L79.6122 29.8354C79.6122 34.9303 75.4819 39.0605 70.387 39.0605L70.387 39.0605C65.2921 39.0605 61.1618 34.9303 61.1618 29.8354L61.1618 36.3086C61.1618 31.2137 65.2921 27.0835 70.387 27.0835Z"/>
	<path fill="#00f" fill-rule="nonzero" opacity="1" stroke="none" d="M42.1952 27.0835L42.1952 27.0835C47.293 27.0835 51.4257 31.2161 51.4257 36.314L51.4257 29.83C51.4257 34.9279 47.293 39.0605 42.1952 39.0605L42.1952 39.0605C37.0973 39.0605 32.9647 34.9279 32.9647 29.83L32.9647 36.314C32.9647 31.2161 37.0973 27.0835 42.1952 27.0835Z"/>
</g>
	<path fill="#00f" fill-opacity="0" fill-rule="nonzero" opacity="1" stroke="none" d="M71.6088 11.3075C69.7332 10.8234 65.168 8.8892 57.0991 8.8892C49.0303 8.8892 44.4653 10.8234 42.5894 11.3075C40.0481 9.25015 33.2186 4.05263 25.6615 4.05263C23.9989 8.8892 24.2768 14.786 25.6615 18.5623C22.034 23.3989 20.8249 28.2355 20.8249 35.4903C20.8249 46.0703 23.1611 52.8158 28.0797 57.2548C32.9984 61.6938 38.2912 63.9046 45.0077 64.5097C41.8612 67.1118 42.5894 73.5749 42.5894 76.6011L42.5894 95.9474L71.6088 95.9474L71.6088 76.6011C71.6088 73.5749 72.3372 67.1118 69.1905 64.5097C75.9071 63.9046 81.1997 61.6938 86.1185 57.2548C91.0373 52.8158 93.3734 46.0703 93.3734 35.4903C93.3734 28.2355 92.1642 23.3989 88.5368 18.5623C89.9215 14.786 90.1996 8.8892 88.5368 4.05263C80.9797 4.05263 74.1504 9.25015 71.6088 11.3075Z"/>
	<path id="body-outline" fill="none" opacity="1" stroke="#00f" stroke-dasharray="67.75,0.0,67.75,67.75,0.0,67.75" stroke-linecap="round" stroke-linejoin="round" stroke-width="9.67313" d="M57.0991 8.8892C65.168 8.8892 69.7332 10.8234 71.6088 11.3075C74.1504 9.25015 80.9797 4.05263 88.5368 4.05263C90.1996 8.8892 89.9215 14.786 88.5368 18.5623C92.1642 23.3989 93.3734 28.2355 93.3734 35.4903C93.3734 46.0703 91.0373 52.8158 86.1185 57.2548C81.1997 61.6938 75.9071 63.9046 69.1905 64.5097C72.3372 67.1118 71.6088 73.5749 71.6088 76.6011C71.6088 80.1105 71.6088 91.1108 71.6088 91.1108M57.0991 8.8892C49.0303 8.8892 44.4653 10.8234 42.5894 11.3075C40.0481 9.25015 33.2186 4.05263 25.6615 4.05263C23.9989 8.8892 24.2768 14.786 25.6615 18.5623C22.034 23.3989 20.8249 28.2355 20.8249 35.4903C20.8249 46.0703 23.161 52.8158 28.0797 57.2548C32.9985 61.6938 38.2912 63.9046 45.0077 64.5097C41.8612 67.1118 42.5894 73.5749 42.5894 76.6011C42.5894 80.1105 42.5894 91.1108 42.5894 91.1108" />
</g>
</g>
</svg>