<svg viewBox="0 0 100 100" width="100%" height="100%" stroke-miterlimit="10" style="fill-rule:nonzero;clip-rule:evenodd;stroke-linecap:round;stroke-linejoin:round;" version="1.1" xml:space="preserve" xmlns="http://www.w3.org/2000/svg" xmlns:xlink="http://www.w3.org/1999/xlink">
<defs/>
<g id="Layer">
	<g opacity="1">
		<g id="tail" fill="none" opacity="1" stroke-linecap="round" stroke-linejoin="round" stroke-width="9.3028">
			<path stroke="#00f" stroke-dasharray="46.5139828660207" d="M36.428 76.0539C31.7562 72.9751 24.3638 73.5328 20.0807 73.7733C16.1376 73.9942 8.51849 76.0386 6.65819 71.0079"/>
			<path stroke="#94e92f" stroke-dasharray="46.5139828660207" d="M36.428 76.0539C27.3586 71.754 24.7654 75.8958 17.788 71.0972C10.8107 66.2982 13.1701 59.185 8.51849 56.8592"/>
			<path stroke="#ff22f0" stroke-dasharray="46.5139828660207" d="M36.428 76.0539C31.7562 72.9751 27.4171 73.6914 22.4732 73.5309C15.0074 73.2886 10.721 69.0473 6.65819 69.7557"/>
			<path stroke="#00f" stroke-dasharray="46.5139828660207" d="M36.428 76.0539C31.7562 72.9751 24.3638 73.5328 20.0807 73.7733C16.1376 73.9942 8.51849 76.0386 6.65819 71.0079"/>
		</g>
		<g opacity="1">
			<path fill="#00f" fill-rule="nonzero" opacity="1" stroke="none" d="M67.9799 27.6395L67.9799 27.6395C72.8799 27.6395 76.8522 31.6117 76.8522 36.5118L76.8522 30.2861C76.8522 35.1861 72.8799 39.1584 67.9799 39.1584L67.9799 39.1584C63.0798 39.1584 59.1076 35.1861 59.1076 30.2861L59.1076 36.5118C59.1076 31.6117 63.0798 27.6395 67.9799 27.6395Z"/>
			<path fill="#00f" fill-rule="nonzero" opacity="1" stroke="none" d="M40.8663 27.6395L40.8663 27.6395C45.7692 27.6395 49.7438 31.614 49.7438 36.5169L49.7438 30.2809C49.7438 35.1838 45.7692 39.1584 40.8663 39.1584L40.8663 39.1584C35.9634 39.1584 31.9889 35.1838 31.9889 30.2809L31.9889 36.5169C31.9889 31.614 35.9634 27.6395 40.8663 27.6395Z"/>
		</g>
	<path fill="#00f" fill-opacity="0" fill-rule="nonzero" opacity="0" stroke="none" d="M69.155 12.4669C67.3511 12.0013 62.9605 10.1411 55.2002 10.1411C47.44 10.1411 43.0496 12.0013 41.2455 12.4669C38.8013 10.4882 32.2331 5.48949 24.965 5.48949C23.366 10.1411 23.6333 15.8123 24.965 19.4442C21.4763 24.0958 20.3134 28.7474 20.3134 35.7247C20.3134 45.9001 22.5602 52.3876 27.2908 56.6569C32.0213 60.9261 37.1117 63.0523 43.5713 63.6342C40.5452 66.1368 41.2455 72.3527 41.2455 75.2632L41.2455 93.8695L69.155 93.8695L69.155 75.2632C69.155 72.3527 69.8555 66.1368 66.8292 63.6342C73.2888 63.0523 78.3791 60.9261 83.1097 56.6569C87.8404 52.3876 90.0871 45.9001 90.0871 35.7247C90.0871 28.7474 88.9242 24.0958 85.4355 19.4442C86.7673 15.8123 87.0347 10.1411 85.4355 5.48949C78.1674 5.48949 71.5994 10.4882 69.155 12.4669Z"/>
		<g fill="none" opacity="1" stroke="#00f" stroke-stroke-linecap="round" stroke-linejoin="round" stroke-width="9.3028">
			<path dasharray="139.5419485980621" d="M55.2002 10.1411C62.9605 10.1411 67.3511 12.0013 69.155 12.4669C71.5994 10.4882 78.1674 5.48949 85.4355 5.48949C87.0347 10.1411 86.7673 15.8123 85.4355 19.4442C88.9242 24.0958 90.0871 28.7474 90.0871 35.7247C90.0871 45.9001 87.8404 52.3876 83.1097 56.6569C78.3791 60.9261 73.2888 63.0523 66.8292 63.6342C69.8555 66.1368 69.155 72.3527 69.155 75.2632C69.155 78.6384 69.155 89.2179 69.155 89.2179M55.2002 10.1411C47.44 10.1411 43.0496 12.0013 41.2455 12.4669C38.8013 10.4882 32.2331 5.48949 24.965 5.48949C23.366 10.1411 23.6333 15.8123 24.965 19.4442C21.4763 24.0958 20.3134 28.7474 20.3134 35.7247C20.3134 45.9001 22.5602 52.3876 27.2908 56.6569C32.0214 60.9261 37.1117 63.0523 43.5713 63.6342C40.5452 66.1368 41.2455 72.3527 41.2455 75.2632C41.2455 78.6384 41.2455 89.2179 41.2455 89.2179" />
		</g>
	</g>
</g>
</svg>