<svg width="100%" height="100%" viewBox="0 0 100 100" stroke-miterlimit="10" style="fill-rule:nonzero;clip-rule:evenodd;stroke-linecap:round;stroke-linejoin:round;" version="1.1" xml:space="preserve" xmlns="http://www.w3.org/2000/svg" xmlns:xlink="http://www.w3.org/1999/xlink"><defs/><g opacity="1">	<g id="eyes" opacity="1" fill="#00f" stroke="">		<rect height="11.52" width="17.74" x="32.77" y="27.64" rx="9.57">			<animate attributeName="height" dur="11s" keyTimes="0;0.45;0.46;0.51;0.52;1" repeatCount="indefinite" values=".0001;.0001;11.52;11.52;.0001;.0001"></animate>			<animate attributeName="y" dur="11s" keyTimes="0;0.45;0.46;0.51;0.52;1" repeatCount="indefinite" values="33.4;33.4;27.64;27.64;33.4;33.4"></animate></rect>		<rect height="11.52" width="17.74" x="59.89" y="27.64" rx="9.57">			<animate attributeName="height" dur="11s" keyTimes="0;0.45;0.46;0.51;0.52;1" repeatCount="indefinite" values=".0001;.0001;11.52;11.52;.0001;.0001"></animate>			<animate attributeName="y" dur="11s" keyTimes="0;0.45;0.46;0.51;0.52;1" repeatCount="indefinite" values="33.4;33.4;27.64;27.64;33.4;33.4"></animate></rect>	</g>		<g id="fillBody">			<path fill="#00f" fill-opacity="0" d="M69.155 12.4669C67.3511 12.0013 62.9605 10.1411 55.2002 10.1411C47.44 10.1411 43.0496 12.0013 41.2455 12.4669C38.8013 10.4882 32.2331 5.48949 24.965 5.48949C23.366 10.1411 23.6333 15.8123 24.965 19.4442C21.4763 24.0958 20.3134 28.7474 20.3134 35.7247C20.3134 45.9001 22.5602 52.3876 27.2908 56.6569C32.0213 60.9261 37.1117 63.0523 43.5713 63.6342C40.5452 66.1368 41.2455 72.3527 41.2455 75.2632L41.2455 91.8695L69.155 91.8695L69.155 75.2632C69.155 72.3527 69.8555 66.1368 66.8292 63.6342C73.2888 63.0523 78.3791 60.9261 83.1097 56.6569C87.8404 52.3876 90.0871 45.9001 90.0871 35.7247C90.0871 28.7474 88.9242 24.0958 85.4355 19.4442C86.7673 15.8123 87.0347 10.1411 85.4355 5.48949C78.1674 5.48949 71.5994 10.4882 69.155 12.4669Z">			<animate fill="freeze" attributeName="fill-opacity" begin="2.0s" dur="2.15s" values="0;0.4"/></path>	</g>	<g id="body" opacity="1" fill="none" stroke="#00f" stroke-linecap="round" stroke-linejoin="round" stroke-width="9.3028">		<path stroke-dasharray="141.35" d="M55.1984 10.1409C62.9583 10.1409 67.3487 12.001 69.1526 12.4666C71.5969 10.488 78.1646 5.48949 85.4325 5.48949C87.0316 10.1409 86.7641 15.8119 85.4325 19.4437C88.921 24.0951 90.0839 28.7465 90.0839 35.7236C90.0839 45.8985 87.8372 52.3858 83.1068 56.6549C78.3763 60.9239 73.2863 63.0501 66.8269 63.632C69.8531 66.1344 69.1526 72.3501 69.1526 75.2605C69.1526 78.6355 69.1526 89.2147 69.1526 89.2147M55.1984 10.1409C47.4384 10.1409 43.0482 12.001 41.2442 12.4666C38.8001 10.488 32.2321 5.48949 24.9643 5.48949C23.3654 10.1409 23.6326 15.8119 24.9643 19.4437C21.4757 24.0951 20.3129 28.7465 20.3129 35.7236C20.3129 45.8985 22.5595 52.3858 27.29 56.6549C32.0204 60.9239 37.1105 63.0501 43.5699 63.632C40.5439 66.1344 41.2442 72.3501 41.2442 75.2605C41.2442 78.6355 41.2442 89.2147 41.2442 89.2147">			<animate fill="freeze" attributeName="stroke-dashoffset" dur="1.2s" values="141.35;0"></animate></path>	</g><g id="Tail" opacity="1" fill="none" stroke="#00f" stroke-linecap="round" stroke-linejoin="round" stroke-width="9.3028">	<path id="Tail down" stroke-dasharray="46.5139828660207" stroke-dashoffset="46.5139828660207" d="M36.428 76.0539C31.7562 72.9751 24.3638 73.5328 20.0807 73.7733C16.1376 73.9942 8.51849 76.0386 6.65819 71.0079">	<animate id="drawtail" fill="freeze" attributeName="stroke-dashoffset" begin="1.1s" dur="0.8s" values="46.5139828660207;0"></animate>	<animate id="Tailup" attributeName="d" dur="3s" repeatCount="indefinite" values="M36.428 76.0539C31.7562 72.9751 24.3638 73.5328 20.0807 73.7733C16.1376 73.9942 8.51849 76.0386 6.65819 71.0079;M36.428 76.0539C27.3586 71.754 24.7654 75.8958 17.788 71.0972C10.8107 66.2982 13.1701 59.185 8.51849 56.8592;M36.428 76.0539C31.7562 72.9751 27.4171 73.6914 22.4732 73.5309C15.0074 73.2886 10.721 69.0473 6.65819 69.7557;M36.428 76.0539C31.7562 72.9751 24.3638 73.5328 20.0807 73.7733C16.1376 73.9942 8.51849 76.0386 6.65819 71.0079"></animate></path>	</g></g></svg>