<svg width="100%" height="100%" viewBox="0 0 100 100" stroke-miterlimit="10" style="fill-rule:nonzero;clip-rule:evenodd;stroke-linecap:round;stroke-linejoin:round;" version="1.1" xml:space="preserve" xmlns="http://www.w3.org/2000/svg" xmlns:xlink="http://www.w3.org/1999/xlink"><defs><linearGradient id="goalBullseyea" x1="0" x2="1" y1="0" y2="0" gradientTransform="rotate(-45.866 77.796 -49.224) scale(61.1741)" gradientUnits="userSpaceOnUse"><stop offset="0" stop-color="#ff66a2" stop-opacity=".9"/><stop offset=".979" stop-color="#ff00f3"/></linearGradient><linearGradient id="goalBullseyeb" x1="0" x2="1" y1="0" y2="0" gradientTransform="rotate(-45.866 77.796 -49.224) scale(61.1741)" gradientUnits="userSpaceOnUse"><stop offset="0" stop-color="#ff66a2" stop-opacity=".9"/><stop offset=".979" stop-color="#ff00f3"/></linearGradient><linearGradient id="goalBullseyec" x1="0" x2="1" y1="0" y2="0" gradientTransform="rotate(-44.69 114.234 33.6) scale(112.2299)" gradientUnits="userSpaceOnUse"><stop offset="0" stop-color="#94acff" stop-opacity=".72"/><stop offset=".276" stop-color="#18abfc" stop-opacity=".78"/><stop offset=".493" stop-color="#4ebdfe" stop-opacity=".86"/><stop offset=".679" stop-color="#76ccfe" stop-opacity=".84"/><stop offset=".878" stop-color="#94acff" stop-opacity=".74"/><stop offset="1" stop-color="#94acff" stop-opacity=".6"/></linearGradient><linearGradient id="goalBullseyed" x1="0" x2="1" y1="0" y2="0" gradientTransform="rotate(-46.312 116.371 44.386) scale(134.0835)" gradientUnits="userSpaceOnUse"><stop offset="0" stop-color="#94acff" stop-opacity=".72"/><stop offset=".276" stop-color="#18abfc" stop-opacity=".78"/><stop offset=".493" stop-color="#4ebdfe" stop-opacity=".86"/><stop offset=".679" stop-color="#76ccfe" stop-opacity=".84"/><stop offset=".878" stop-color="#94acff" stop-opacity=".74"/><stop offset="1" stop-color="#94acff" stop-opacity=".6"/></linearGradient><linearGradient id="goalBullseyef" x1="0" x2="1" y1="0" y2="0" gradientTransform="rotate(-44.69 114.234 33.6) scale(112.2299)" gradientUnits="userSpaceOnUse"><stop offset="0" stop-color="#94acff" stop-opacity=".72"/><stop offset=".276" stop-color="#18abfc" stop-opacity=".78"/><stop offset=".493" stop-color="#4ebdfe" stop-opacity=".86"/><stop offset=".679" stop-color="#76ccfe" stop-opacity=".84"/><stop offset=".878" stop-color="#94acff" stop-opacity=".74"/><stop offset="1" stop-color="#94acff" stop-opacity=".6"/></linearGradient><linearGradient id="goalBullseyeg" x1="0" x2="1" y1="0" y2="0" gradientTransform="rotate(-44.69 114.234 33.6) scale(112.2299)" gradientUnits="userSpaceOnUse"><stop offset="0" stop-color="#94acff" stop-opacity=".72"/><stop offset=".276" stop-color="#18abfc" stop-opacity=".78"/><stop offset=".493" stop-color="#4ebdfe" stop-opacity=".86"/><stop offset=".679" stop-color="#76ccfe" stop-opacity=".84"/><stop offset=".878" stop-color="#94acff" stop-opacity=".74"/><stop offset="1" stop-color="#94acff" stop-opacity=".6"/></linearGradient><linearGradient id="goalBullseyei" x1="0" x2="1" y1="0" y2="0" gradientTransform="rotate(-44.69 114.234 33.6) scale(112.2299)" gradientUnits="userSpaceOnUse"><stop offset="0" stop-color="#ff66a2" stop-opacity=".9"/><stop offset=".979" stop-color="#ff00f3"/></linearGradient><linearGradient id="goalBullseyej" x1="0" x2="1" y1="0" y2="0" gradientTransform="rotate(-44.69 114.234 33.6) scale(112.2299)" gradientUnits="userSpaceOnUse"><stop offset="0" stop-color="#ff66a2" stop-opacity=".9"/><stop offset=".979" stop-color="#ff00f3"/></linearGradient><linearGradient id="goalBullseyel" x1="0" x2="1" y1="0" y2="0" gradientTransform="rotate(-44.69 114.234 33.6) scale(112.2299)" gradientUnits="userSpaceOnUse"><stop offset="0" stop-color="#af66ff" stop-opacity=".9"/><stop offset=".979" stop-color="#6d00ff"/></linearGradient><linearGradient id="goalBullseyem" x1="0" x2="1" y1="0" y2="0" gradientTransform="rotate(-44.69 114.234 33.6) scale(112.2299)" gradientUnits="userSpaceOnUse"><stop offset="0" stop-color="#af66ff" stop-opacity=".9"/><stop offset=".979" stop-color="#6d00ff"/></linearGradient><linearGradient id="goalBullseyen" x1="0" x2="1" y1="0" y2="0" gradientTransform="rotate(-45.866 77.797 -49.224) scale(61.1741)" gradientUnits="userSpaceOnUse"><stop offset="0" stop-color="#af66ff" stop-opacity=".6"/><stop offset="1" stop-color="#6d00ff" stop-opacity=".7"/></linearGradient><linearGradient id="goalBullseyeo" x1="0" x2="1" y1="0" y2="0" gradientTransform="scale(106.3975) rotate(-45.327 .943 .04)" gradientUnits="userSpaceOnUse"><stop offset="0" stop-color="#ff66a2" stop-opacity=".9"/><stop offset=".979" stop-color="#ff00f3"/></linearGradient><filter id="goalBullseyee" width="57.504" height="57.471" x="34.069" y="8.266" color-interpolation-filters="sRGB" filterUnits="userSpaceOnUse"><feGaussianBlur in="SourceGraphic" result="Blur" stdDeviation="2"/></filter><filter id="goalBullseyeh" width="57.504" height="57.471" x="34.069" y="8.266" color-interpolation-filters="sRGB" filterUnits="userSpaceOnUse"><feGaussianBlur in="SourceGraphic" result="Blur" stdDeviation="2"/></filter><filter id="goalBullseyek" width="65.004" height="64.971" x="30.319" y="4.516" color-interpolation-filters="sRGB" filterUnits="userSpaceOnUse"><feGaussianBlur in="SourceGraphic" result="Blur" stdDeviation="3.5"/></filter></defs><path opacity="0" d="M0 0h100v100H0V0Z"/><g opacity=".8"><path fill="url(#goalBullseyec)" opacity="1" d="M46.234 36.92c-9.209 0-16.65 7.476-16.65 16.685s7.441 16.65 16.65 16.65 16.686-7.441 16.686-16.65c0-1.951-.42-3.798-1.036-5.538L51.308 58.643a7.152 7.152 0 0 1-10.112 0c-4.278-4.278-.936-9.175 0-10.112l10.576-10.576c-1.74-.616-3.587-1.036-5.538-1.036Z"/><path fill="url(#goalBullseyed)" opacity="1" d="M46.234 8.335C21.24 8.335 1 28.611 1 53.605 1 78.6 21.24 98.84 46.234 98.84c24.994 0 45.27-20.24 45.27-45.234 0-7.263-1.89-14.033-4.93-20.116l-4.11 4.109c-.506.508-1.288.607-1.93.286L74.89 35.06l-2.358 2.358c2.91 4.72 4.681 10.235 4.681 16.186 0 17.103-13.875 30.942-30.978 30.942s-30.942-13.84-30.942-30.942c0-17.103 13.84-30.978 30.942-30.978 5.95 0 11.467 1.772 16.186 4.68l2.358-2.357-2.823-5.646c-.321-.64-.221-1.423.286-1.93l4.11-4.108c-6.084-3.041-12.853-4.93-20.117-4.93Z"/></g><g filter="url(#goalBullseyeh)" opacity=".7"><path fill="url(#goalBullseyei)" opacity="1" d="M51.772 37.955 41.196 48.531c-.936.937-4.278 5.834 0 10.112a7.152 7.152 0 0 0 10.112 0l10.576-10.576a16.575 16.575 0 0 0-10.112-10.112Z"/><path fill="url(#goalBullseyej)" opacity="1" d="m66.35 13.266-4.109 4.109c-.508.506-.607 1.288-.286 1.93l2.823 5.645-2.358 2.358A30.89 30.89 0 0 1 72.53 37.419l2.358-2.358 5.646 2.823c.64.321 1.423.222 1.93-.286l4.108-4.109A45.143 45.143 0 0 0 66.35 13.266Z"/></g><g filter="url(#goalBullseyek)" opacity=".81"><path fill="url(#goalBullseyel)" opacity="1" d="M51.772 37.955 41.196 48.531c-.936.937-4.278 5.834 0 10.112a7.152 7.152 0 0 0 10.112 0l10.576-10.576a16.575 16.575 0 0 0-10.112-10.112Z"/><path fill="url(#goalBullseyem)" opacity="1" d="m66.35 13.266-4.109 4.109c-.508.506-.607 1.288-.286 1.93l2.823 5.645-2.358 2.358A30.89 30.89 0 0 1 72.53 37.419l2.358-2.358 5.646 2.823c.64.321 1.423.222 1.93-.286l4.108-4.109A45.143 45.143 0 0 0 66.35 13.266Z"/></g><g opacity=".8"><path fill="url(#goalBullseyen)" opacity=".3" d="M79.472 2.032c.182 0 .348.1.43.262l5.704 11.408c.115.23.303.418.534.533l11.407 5.705a.476.476 0 0 1 .257.348.46.46 0 0 1-.133.412L81.626 36.745a.47.47 0 0 1-.548.088l-5.665-2.832a1.191 1.191 0 0 0-1.374.222L50.46 57.804a5.926 5.926 0 0 1-4.213 1.744 5.917 5.917 0 0 1-4.211-1.744c-3.964-3.963-.043-8.38 0-8.422l23.579-23.58a1.19 1.19 0 0 0 .224-1.374l-2.832-5.664a.477.477 0 0 1 .088-.548L79.139 2.17a.467.467 0 0 1 .333-.139m0-1.19c-.44-.001-.863.175-1.174.488L62.253 17.372a1.663 1.663 0 0 0-.312 1.923l2.832 5.664-23.58 23.58c-.935.936-4.277 5.828 0 10.106a7.117 7.117 0 0 0 5.053 2.094c1.83 0 3.659-.698 5.052-2.094l23.58-23.581 5.664 2.832a1.675 1.675 0 0 0 1.925-.312l16.045-16.045a1.665 1.665 0 0 0-.434-2.668l-11.407-5.705L80.966 1.76a1.66 1.66 0 0 0-1.494-.92Z"/><path fill="url(#goalBullseyeo)" opacity="1" d="m98.078 18.873-11.407-5.702-5.705-11.41a1.668 1.668 0 0 0-2.668-.434L62.253 17.372a1.663 1.663 0 0 0-.312 1.923l2.832 5.664-23.58 23.58c-.935.936-4.277 5.828 0 10.106a7.146 7.146 0 0 0 10.108 0L74.88 35.066l5.664 2.832a1.663 1.663 0 0 0 1.923-.312l16.045-16.045a1.668 1.668 0 0 0-.434-2.668Z"/></g><g fill="#2da3ff" fill-opacity=".259"><path opacity=".4" d="M41.102 59.057a7.127 7.127 0 0 0 10.08 0l12.001-12a18.473 18.473 0 0 0-10.08-10.08l-12 12a7.127 7.127 0 0 0 0 10.08Z"/><path opacity=".3" d="M41.102 59.057a7.127 7.127 0 0 0 10.08 0L64.53 45.71a20.28 20.28 0 0 0-10.08-10.081L41.101 48.977a7.127 7.127 0 0 0 0 10.08Z"/><path opacity=".2" d="M41.102 59.057a7.127 7.127 0 0 0 10.08 0l14.681-14.68a22.077 22.077 0 0 0-10.08-10.08l-14.68 14.68a7.127 7.127 0 0 0 0 10.08Z"/><path opacity=".1" d="M41.102 59.057a7.127 7.127 0 0 0 10.08 0l16.014-16.012a23.908 23.908 0 0 0-10.081-10.081L41.102 48.977a7.127 7.127 0 0 0 0 10.081Z"/><path opacity=".4" d="m61.796 19.81 2.824 5.65-3.59 3.59a29.224 29.224 0 0 1 10.081 10.081l3.59-3.59 5.65 2.825c.64.32 1.412.195 1.917-.311l5.543-5.543a47.102 47.102 0 0 0-20.159-20.159l-5.545 5.538a1.67 1.67 0 0 0-.312 1.92Z"/><path opacity=".3" d="m61.796 19.81 2.824 5.65-4.887 4.887a27.463 27.463 0 0 1 10.081 10.081l4.887-4.887 5.65 2.825c.64.32 1.412.195 1.917-.311l6.874-6.874a48.97 48.97 0 0 0-20.16-20.159l-6.875 6.87a1.67 1.67 0 0 0-.312 1.919Z"/><path opacity=".2" d="m61.796 19.81 2.824 5.65-6.184 6.185a25.709 25.709 0 0 1 10.08 10.08l6.185-6.184 5.65 2.825c.64.32 1.412.195 1.917-.311l8.192-8.192A50.809 50.809 0 0 0 70.3 9.703l-8.194 8.188a1.67 1.67 0 0 0-.311 1.92Z"/><path opacity=".1" d="m61.796 19.81 2.824 5.65-7.507 7.508a23.907 23.907 0 0 1 10.08 10.081l7.508-7.508 5.65 2.825c.64.32 1.412.195 1.917-.311l9.497-9.497A52.623 52.623 0 0 0 71.605 8.4l-9.498 9.491a1.67 1.67 0 0 0-.312 1.92Z"/></g></svg>