<svg width="100%" height="100%" viewBox="0 0 48 48" xmlns="http://www.w3.org/2000/svg" xmlns:xlink="http://www.w3.org/1999/xlink" baseProfile="basic"><defs><linearGradient id="a" x1="24" x2="24" y1="49.884" y2="-27.138" gradientUnits="userSpaceOnUse"><stop offset="0" stop-color="#962aff"/><stop offset=".137" stop-color="#9f3eff"/><stop offset=".535" stop-color="#b572ff"/><stop offset=".835" stop-color="#c493ff"/><stop offset="1" stop-color="#c99fff"/></linearGradient><linearGradient id="b" x1="24" x2="24" y1="60.882" y2="-1.191" gradientUnits="userSpaceOnUse"><stop offset="0" stop-color="#4eaefe" stop-opacity=".2"/><stop offset="1" stop-color="#41a2fe" stop-opacity=".4"/></linearGradient></defs><path fill="#904aff" opacity=".1" d="M29,20h-0.6v8H29c0.07,0,0.14-0.01,0.2-0.02v-7.96C29.14,20.01,29.07,20,29,20z M45,20	H35c-0.07,0-0.14,0.01-0.2,0.02v7.96C34.86,27.99,34.93,28,35,28h10c0.07,0,0.14-0.01,0.2-0.02v-7.96C45.14,20.01,45.07,20,45,20z M19,20c-0.07,0-0.14,0.01-0.2,0.02v7.96C18.86,27.99,18.93,28,19,28h10c0.07,0,0.14-0.01,0.2-0.02v-7.96	C29.14,20.01,29.07,20,29,20H19z M27.54,36.46c-0.23-0.22-0.48-0.43-0.74-0.61C26,35.32,25.04,35,24,35s-2,0.32-2.8,0.85	c-0.26,0.18-0.51,0.39-0.74,0.61c-0.22,0.23-0.43,0.48-0.61,0.74C19.32,38,19,38.96,19,40c0,1.04,0.32,2,0.85,2.8	c0.2,0.29,0.43,0.56,0.68,0.8c0.32,0.31,0.69,0.58,1.09,0.8C22.33,44.78,23.14,45,24,45s1.67-0.22,2.38-0.6	c0.4-0.22,0.77-0.49,1.09-0.8c0.25-0.24,0.48-0.51,0.68-0.8C28.68,42,29,41.04,29,40c0-1.04-0.32-2-0.85-2.8	C27.97,36.94,27.76,36.69,27.54,36.46z M20.46,11.54c0.23,0.22,0.48,0.43,0.74,0.61C22,12.68,22.96,13,24,13s2-0.32,2.8-0.85	c0.26-0.18,0.51-0.39,0.74-0.61c0.22-0.23,0.43-0.48,0.61-0.74C28.68,10,29,9.04,29,8c0-1.04-0.32-2-0.85-2.8	c-0.2-0.29-0.43-0.56-0.68-0.8c-0.32-0.31-0.69-0.58-1.09-0.8C25.67,3.22,24.86,3,24,3s-1.67,0.22-2.38,0.6	c-0.4,0.22-0.77,0.49-1.09,0.8c-0.25,0.24-0.48,0.51-0.68,0.8C19.32,6,19,6.96,19,8c0,1.04,0.32,2,0.85,2.8	C20.03,11.06,20.24,11.31,20.46,11.54z M3,20c-0.07,0-0.14,0.01-0.2,0.02v7.96C2.86,27.99,2.93,28,3,28h10	c0.07,0,0.14-0.01,0.2-0.02v-7.96C13.14,20.01,13.07,20,13,20H3z"/><path fill="#904aff" opacity=".2" d="M35.6,20v8h8.8v-8H35.6z M27.54,36.46c-0.23-0.22-0.48-0.43-0.74-0.61	C26,35.32,25.04,35,24,35s-2,0.32-2.8,0.85c-0.26,0.18-0.51,0.39-0.74,0.61c-0.22,0.23-0.43,0.48-0.61,0.74C19.32,38,19,38.96,19,40	c0,1.04,0.32,2,0.85,2.8c0.2,0.29,0.43,0.56,0.68,0.8c0.32,0.31,0.69,0.58,1.09,0.8h4.76c0.4-0.22,0.77-0.49,1.09-0.8	c0.25-0.24,0.48-0.51,0.68-0.8C28.68,42,29,41.04,29,40c0-1.04-0.32-2-0.85-2.8C27.97,36.94,27.76,36.69,27.54,36.46z M27.47,4.4	c-0.32-0.31-0.69-0.58-1.09-0.8h-4.76c-0.4,0.22-0.77,0.49-1.09,0.8c-0.25,0.24-0.48,0.51-0.68,0.8C19.32,6,19,6.96,19,8	c0,1.04,0.32,2,0.85,2.8c0.18,0.26,0.39,0.51,0.61,0.74c0.23,0.22,0.48,0.43,0.74,0.61C22,12.68,22.96,13,24,13s2-0.32,2.8-0.85	c0.26-0.18,0.51-0.39,0.74-0.61c0.22-0.23,0.43-0.48,0.61-0.74C28.68,10,29,9.04,29,8c0-1.04-0.32-2-0.85-2.8	C27.95,4.91,27.72,4.64,27.47,4.4z M28.4,28v-8h-8.8v8H28.4z M3.6,20v8h8.8v-8H3.6z"/><path fill="#904aff" opacity=".3" d="M36.4,20v8h7.2v-8H36.4z M27.54,36.46c-0.23-0.22-0.48-0.43-0.74-0.61	C26,35.32,25.04,35,24,35s-2,0.32-2.8,0.85c-0.26,0.18-0.51,0.39-0.74,0.61c-0.22,0.23-0.43,0.48-0.61,0.74C19.32,38,19,38.96,19,40	c0,1.04,0.32,2,0.85,2.8c0.2,0.29,0.43,0.56,0.68,0.8h6.94c0.25-0.24,0.48-0.51,0.68-0.8C28.68,42,29,41.04,29,40	c0-1.04-0.32-2-0.85-2.8C27.97,36.94,27.76,36.69,27.54,36.46z M27.47,4.4h-6.94c-0.25,0.24-0.48,0.51-0.68,0.8	C19.32,6,19,6.96,19,8c0,1.04,0.32,2,0.85,2.8c0.18,0.26,0.39,0.51,0.61,0.74c0.23,0.22,0.48,0.43,0.74,0.61	C22,12.68,22.96,13,24,13s2-0.32,2.8-0.85c0.26-0.18,0.51-0.39,0.74-0.61c0.22-0.23,0.43-0.48,0.61-0.74C28.68,10,29,9.04,29,8	c0-1.04-0.32-2-0.85-2.8C27.95,4.91,27.72,4.64,27.47,4.4z M27.6,28v-8h-7.2v8H27.6z M4.4,20v8h7.2v-8H4.4z"/><path fill="#904aff" opacity=".4" d="M37.2,20v8h5.6v-8H37.2z M19.85,5.2C19.32,6,19,6.96,19,8c0,1.04,0.32,2,0.85,2.8h1.35	v1.35C22,12.68,22.96,13,24,13s2-0.32,2.8-0.85V10.8h1.35C28.68,10,29,9.04,29,8c0-1.04-0.32-2-0.85-2.8H19.85z M26.8,37.2v-1.35	C26,35.32,25.04,35,24,35s-2,0.32-2.8,0.85v1.35h-1.35C19.32,38,19,38.96,19,40c0,1.04,0.32,2,0.85,2.8h8.3C28.68,42,29,41.04,29,40	c0-1.04-0.32-2-0.85-2.8H26.8z M26.8,20h-5.6v8h5.6V20z M5.2,28h5.6v-8H5.2V28z"/><path fill="url(#a)" d="M42,38V10c0-2.209-1.791-4-4-4H10c-2.209,0-4,1.791-4,4v28c0,2.209,1.791,4,4,4h28	C40.209,42,42,40.209,42,38z M38,38H26V10h12V38z M10,10h12v28H10V10z"/><path fill="#904aff" opacity=".05" d="M30.71,6H17.29C17.1,6.63,17,7.31,17,8s0.1,1.37,0.29,2H22v4.71	C22.63,14.9,23.31,15,24,15s1.37-0.1,2-0.29V10h4.71C30.9,9.37,31,8.69,31,8S30.9,6.63,30.71,6z M38,18v12h4V18H38z M22,30h4V18h-4	V30z M6,30h4V18H6V30z M30.71,38H26v-4.71C25.37,33.1,24.69,33,24,33s-1.37,0.1-2,0.29V38h-4.71C17.1,38.63,17,39.31,17,40	s0.1,1.37,0.29,2h13.42C30.9,41.37,31,40.69,31,40S30.9,38.63,30.71,38z"/><path fill="#904aff" opacity=".1" d="M30.29,6H17.71c-0.2,0.63-0.31,1.3-0.31,2s0.11,1.37,0.31,2H22v4.29	c0.63,0.2,1.3,0.31,2,0.31s1.37-0.11,2-0.31V10h4.29c0.2-0.63,0.31-1.3,0.31-2S30.49,6.63,30.29,6z M6,18.4v11.2h4V18.4H6z M22,18.4	v11.2h4V18.4H22z M38,18.4v11.2h4V18.4H38z M30.29,38H26v-4.29c-0.63-0.2-1.3-0.31-2-0.31s-1.37,0.11-2,0.31V38h-4.29	c-0.2,0.63-0.31,1.3-0.31,2s0.11,1.37,0.31,2h12.58c0.2-0.63,0.31-1.3,0.31-2S30.49,38.63,30.29,38z"/><path fill="#904aff" opacity=".2" d="M29.86,6H18.14c-0.22,0.62-0.34,1.3-0.34,2s0.12,1.38,0.34,2H22v3.86	c0.62,0.22,1.3,0.34,2,0.34s1.38-0.12,2-0.34V10h3.86c0.22-0.62,0.34-1.3,0.34-2S30.08,6.62,29.86,6z M6,18.8v10.4h4V18.8H6z M22,18.8v10.4h4V18.8H22z M38,18.8v10.4h4V18.8H38z M29.86,38H26v-3.86c-0.62-0.22-1.3-0.34-2-0.34s-1.38,0.12-2,0.34V38h-3.86	c-0.22,0.62-0.34,1.3-0.34,2s0.12,1.38,0.34,2h11.72c0.22-0.62,0.34-1.3,0.34-2S30.08,38.62,29.86,38z"/><path fill="#904aff" opacity=".3" d="M29.44,6H18.56c-0.23,0.62-0.36,1.3-0.36,2s0.13,1.38,0.36,2H22v3.44	c0.62,0.23,1.3,0.36,2,0.36s1.38-0.13,2-0.36V10h3.44c0.23-0.62,0.36-1.3,0.36-2S29.67,6.62,29.44,6z M6,19.2v9.6h4v-9.6H6z M22,19.2v9.6h4v-9.6H22z M38,19.2v9.6h4v-9.6H38z M29.44,38H26v-3.44c-0.62-0.23-1.3-0.36-2-0.36s-1.38,0.13-2,0.36V38h-3.44	c-0.23,0.62-0.36,1.3-0.36,2s0.13,1.38,0.36,2h10.88c0.23-0.62,0.36-1.3,0.36-2S29.67,38.62,29.44,38z"/><path fill="#904aff" opacity=".4" d="M29.02,6H18.98c-0.24,0.62-0.38,1.29-0.38,2c0,0.71,0.14,1.38,0.38,2H22v3.02	c0.62,0.24,1.29,0.38,2,0.38s1.38-0.14,2-0.38V10h3.02c0.24-0.62,0.38-1.29,0.38-2C29.4,7.29,29.26,6.62,29.02,6z M6,19.6v8.8h4	v-8.8H6z M22,19.6v8.8h4v-8.8H22z M38,19.6v8.8h4v-8.8H38z M29.02,38H26v-3.02c-0.62-0.24-1.29-0.38-2-0.38s-1.38,0.14-2,0.38V38	h-3.02c-0.24,0.62-0.38,1.29-0.38,2c0,0.71,0.14,1.38,0.38,2h10.04c0.24-0.62,0.38-1.29,0.38-2C29.4,39.29,29.26,38.62,29.02,38z"/><path fill="url(#b)" d="M29,8c0,2.761-2.239,5-5,5s-5-2.239-5-5s2.239-5,5-5S29,5.239,29,8z M24,35	c-2.761,0-5,2.239-5,5s2.239,5,5,5s5-2.239,5-5S26.761,35,24,35z M19,28h10c0.552,0,1-0.448,1-1v-6c0-0.552-0.448-1-1-1H19	c-0.552,0-1,0.448-1,1v6C18,27.552,18.448,28,19,28z M34,27v-6c0-0.552,0.448-1,1-1h10c0.552,0,1,0.448,1,1v6c0,0.552-0.448,1-1,1	H35C34.448,28,34,27.552,34,27z M2,27v-6c0-0.552,0.448-1,1-1h10c0.552,0,1,0.448,1,1v6c0,0.552-0.448,1-1,1H3	C2.448,28,2,27.552,2,27z"/></svg>