<svg width="100%" height="100%" viewBox="0 0 100 100" stroke-miterlimit="10" style="fill-rule:nonzero;clip-rule:evenodd;stroke-linecap:round;stroke-linejoin:round;" version="1.1" xml:space="preserve" xmlns="http://www.w3.org/2000/svg" xmlns:xlink="http://www.w3.org/1999/xlink">
<defs>
	<filter color-interpolation-filters="sRGB" filterUnits="userSpaceOnUse" height="40.4102" id="FiLinkA" width="40.4102" x="19.0716" y="19.0724"><feGaussianBlur in="SourceGraphic" result="Blur" stdDeviation="1.25"/></filter>
	<filter color-interpolation-filters="sRGB" filterUnits="userSpaceOnUse" height="40.4102" id="FiLinkA2" width="40.4101" x="40.5704" y="40.5712"><feGaussianBlur in="SourceGraphic" result="Blur" stdDeviation="1.25"/></filter>
	<filter color-interpolation-filters="sRGB" filterUnits="userSpaceOnUse" height="43.375" id="FiLinkA3" width="43.375" x="28.3127" y="28.3125"><feGaussianBlur in="SourceGraphic" result="Blur" stdDeviation="1.4"/></filter>
</defs>
<g id="Layer">
<g opacity="1">
	<path fill="#004eff" fill-rule="nonzero" opacity="0.814158" stroke="none" d="M29.1059 39.5521L60.4467 70.8929C63.3326 73.7788 68.0086 73.7788 70.8945 70.8929C73.7803 68.007 73.7803 63.331 70.8945 60.4451L39.5537 29.1043C36.6678 26.2185 31.9918 26.2185 29.1059 29.1043C26.2201 31.9902 26.2201 36.6687 29.1059 39.5521Z"/>
	<path fill="#ff00bf" fill-rule="nonzero" opacity="1" stroke="none" d="M25.6252 1C31.9267 0.999692 38.2225 3.41101 43.0314 8.21875L50.0002 15.1875C57.7809 22.9682 59.1572 34.6014 54.344 43.875L42.2814 31.8125C42.1005 29.5627 41.2835 27.3458 39.5627 25.625L32.594 18.6562C28.7478 14.8101 22.5026 14.8101 18.6564 18.6562C14.8103 22.5024 14.8103 28.7476 18.6564 32.5938L25.6252 39.5625C27.346 41.2833 29.5629 42.1003 31.8127 42.2812L43.8752 54.3438C34.6028 59.1533 22.9657 57.778 15.1877 50L8.21899 43.0312C-1.39681 33.4158-1.39681 17.8342 8.21899 8.21875C13.0267 3.40978 19.3237 1.00031 25.6252 1ZM67.5314 42.7812C73.7963 42.8062 80.0308 45.2193 84.8127 50L91.7814 56.9688C101.397 66.5842 101.397 82.1658 91.7814 91.7812C82.166 101.397 66.5844 101.397 56.969 91.7812L50.0002 84.8125C42.2184 77.0307 40.8424 65.3972 45.6564 56.125L57.719 68.1875C57.8999 70.437 58.7169 72.6542 60.4377 74.375L67.4064 81.3438C71.2526 85.1899 77.4978 85.1899 81.344 81.3438C85.1901 77.4976 85.1901 71.2524 81.344 67.4062L74.3752 60.4375C72.6544 58.7167 70.4375 57.8997 68.1877 57.7188L56.1252 45.6562C59.7004 43.8001 63.6001 42.7656 67.5314 42.7812Z"/>
<g id="blur" opacity="1">
<g id="blurupper" filter="url(#FiLinkA)" opacity="1">
	<path fill="#b300ff" fill-opacity="0.65" fill-rule="nonzero" opacity="0.05" stroke="none" d="M39.5512 25.625L36.1236 22.1974C38.6525 22.5668 41.0926 23.6847 43.0354 25.625L56.3568 38.9464C55.2782 42.9945 53.1754 46.8259 49.999 49.9998C46.8225 53.1738 42.9936 55.2791 38.9455 56.3576L25.6242 43.0363C23.6814 41.0935 22.5659 38.6558 22.1966 36.1245L25.6242 39.5521C29.4704 43.3983 35.7075 43.3983 39.5537 39.5521C43.3974 35.7059 43.3974 29.4712 39.5512 25.625Z"/>
	<path fill="#b300ff" fill-opacity="0.65" fill-rule="nonzero" opacity="0.1" stroke="none" d="M39.5512 25.625L37.4139 23.4877C39.2139 23.9974 40.9227 24.906 42.3361 26.3194L56.044 40.0273C54.8941 43.6741 52.8898 47.109 49.999 49.9998C47.1082 52.8906 43.6732 54.895 40.0289 56.0474L26.321 42.3395C24.9076 40.9261 23.9966 39.2172 23.4893 37.4172L25.6266 39.5546C29.4728 43.4007 35.71 43.4007 39.5561 39.5546C43.3974 35.7059 43.3974 29.4712 39.5512 25.625Z"/>
	<path fill="#b300ff" fill-opacity="0.65" fill-rule="nonzero" opacity="0.2" stroke="none" d="M39.5512 25.625L39.1794 25.2532C40.0585 25.7211 40.9006 26.28 41.6418 27.0187L55.687 41.064C54.4928 44.3192 52.614 47.3848 49.999 49.9998C47.384 52.6149 44.3183 54.4936 41.0606 55.6854L27.0154 41.6402C26.2742 40.899 25.7177 40.0569 25.2499 39.1778L25.6217 39.5496C29.4679 43.3958 35.705 43.3958 39.5512 39.5496C43.3974 35.7059 43.3974 29.4712 39.5512 25.625Z"/>
	<path fill="#b300ff" fill-opacity="0.65" fill-rule="nonzero" opacity="0.3" stroke="none" d="M39.5512 39.5521C42.671 36.4323 43.2152 31.7563 41.2724 28.0406L55.3053 42.0735C54.1037 44.9545 52.3431 47.6557 49.999 49.9998C47.6548 52.344 44.9536 54.1046 42.0727 55.3062L28.0397 41.2733C31.7554 43.2161 36.4314 42.6744 39.5512 39.5521Z"/>
	<path fill="#b300ff" fill-opacity="0.65" fill-rule="nonzero" opacity="0.4" stroke="none" d="M39.5512 39.5521C42.0628 37.0405 42.9025 33.5144 42.1342 30.2937L54.8646 43.024C53.6851 45.5455 52.0821 47.9167 49.999 49.9998C47.9183 52.0805 45.5446 53.686 43.0256 54.8655L30.2952 42.1351C33.5135 42.9058 37.0396 42.0662 39.5512 39.5521Z"/>
</g>
<g id="blurlower" filter="url(#FiLinkA2)" opacity="1">
	<path fill="#b300ff" fill-opacity="0.65" fill-rule="nonzero" opacity="0.05" stroke="none" d="M74.4279 60.5018L77.8555 63.9294C77.4862 61.4005 76.3683 58.9603 74.4279 57.0175L61.1066 43.6962C57.0585 44.7747 53.2271 46.8776 50.0531 50.054C46.8792 53.2304 44.7739 57.0594 43.6954 61.1075L57.0167 74.4288C58.9595 76.3716 61.3972 77.4871 63.9285 77.8564L60.5009 74.4288C56.6547 70.5826 56.6547 64.3455 60.5009 60.4993C64.3471 56.6531 70.5818 56.6531 74.4279 60.5018Z"/>
	<path fill="#b300ff" fill-opacity="0.65" fill-rule="nonzero" opacity="0.1" stroke="none" d="M74.4279 60.5018L76.5653 62.6391C76.0556 60.8391 75.147 59.1302 73.7336 57.7169L60.0257 44.0089C56.3789 45.1613 52.9439 47.1657 50.0556 50.0565C47.1648 52.9473 45.1605 56.3823 44.0081 60.0265L57.716 73.7344C59.1294 75.1478 60.8382 76.0589 62.6382 76.5661L60.5009 74.4288C56.6547 70.5826 56.6547 64.3455 60.5009 60.4993C64.3471 56.6531 70.5818 56.6531 74.4279 60.5018Z"/>
	<path fill="#b300ff" fill-opacity="0.65" fill-rule="nonzero" opacity="0.2" stroke="none" d="M74.4279 60.5018L74.7998 60.8736C74.3319 59.9945 73.773 59.1524 73.0343 58.4112L58.989 44.366C55.7289 45.5578 52.6657 47.4365 50.0507 50.0516C47.4357 52.6666 45.5569 55.7322 44.3651 58.9899L58.4104 73.0351C59.1515 73.7763 59.9936 74.3328 60.8727 74.8006L60.5009 74.4288C56.6547 70.5826 56.6547 64.3455 60.5009 60.4993C64.3471 56.6531 70.5818 56.6531 74.4279 60.5018Z"/>
	<path fill="#b300ff" fill-opacity="0.65" fill-rule="nonzero" opacity="0.3" stroke="none" d="M60.5009 60.5018C63.6207 57.382 68.2967 56.8378 72.0124 58.7806L57.9794 44.7477C55.0985 45.9493 52.3973 47.7099 50.0531 50.054C47.709 52.3982 45.9484 55.0994 44.7468 57.9803L58.7797 72.0133C56.8345 68.2976 57.3786 63.6216 60.5009 60.5018Z"/>
	<path fill="#b300ff" fill-opacity="0.65" fill-rule="nonzero" opacity="0.4" stroke="none" d="M60.5818 60.5682C58.0702 63.0798 57.2305 66.6058 57.9988 69.8266L45.2684 57.0962C46.4479 54.5748 48.0509 52.2036 50.134 50.1204C52.2147 48.0397 54.5884 46.4343 57.1074 45.2548L69.8378 57.9852C66.6195 57.2144 63.0934 58.0541 60.5818 60.5682Z"/>
	<path fill="#b300ff" fill-opacity="0.65" fill-rule="nonzero" opacity="0.4" stroke="none" d="M60.5009 60.5018C63.0125 57.9902 66.5386 57.1505 69.7593 57.9188L57.029 45.1884C54.5075 46.3679 52.1363 47.9709 50.0556 50.054C47.9749 52.1347 46.3695 54.5084 45.19 57.0274L57.9203 69.7577C57.1472 66.537 57.9868 63.0134 60.5009 60.5018Z"/>
</g>
	<path fill="#80f" fill-opacity="0.65" fill-rule="nonzero" d="M42.2814 31.8125L54.344 43.875C53.2424 45.9973 51.9169 48.0503 50.1564 49.8438C51.9495 48.0828 54.0032 46.758 56.1252 45.6562L68.1877 57.7188C65.4091 57.4952 62.5631 58.3121 60.4377 60.4375C58.3123 62.5642 57.4954 65.4093 57.719 68.1875L45.6564 56.125C46.7634 53.9929 48.1029 51.9557 49.8752 50.1562L49.844 50.125C48.0422 51.8991 46.0099 53.2365 43.8752 54.3438L31.8127 42.2812C34.5914 42.5048 37.4373 41.6879 39.5627 39.5625C41.6881 37.4371 42.505 34.5911 42.2814 31.8125Z" filter="url(#FiLinkA3)" opacity="1" stroke="none"/>
</g>
</g>
</g>
</svg>