<svg xmlns="http://www.w3.org/2000/svg" xmlns:vectornator="http://vectornator.io" xmlns:xlink="http://www.w3.org/1999/xlink" width="100%" height="100%" stroke-miterlimit="10" version="1.1" viewBox="0 0 100 100" xml:space="preserve" style="fill-rule:nonzero;clip-rule:evenodd;stroke-linecap:round;stroke-linejoin:round"><defs><linearGradient id="LinearGradient" x1="0" x2="1" y1="0" y2="0" gradientTransform="matrix(-0.185011 -53.2215 -52.1744 0.188724 50.553 98.7152)" gradientUnits="userSpaceOnUse"><stop offset="0" stop-color="#ececec" stop-opacity="0"/><stop offset=".492" stop-color="#f2f2f2" stop-opacity=".492"/><stop offset="1" stop-color="#f2f2f2"/></linearGradient><radialGradient id="RadialGradient" cx="0" cy="0" r="1" gradientTransform="matrix(98.4968 0 0 100.476 49.363 99.746)" gradientUnits="userSpaceOnUse"><stop offset="0" stop-color="#fff" stop-opacity="0"/><stop offset=".833" stop-color="#e6e6e6" stop-opacity=".794"/></radialGradient><radialGradient id="RadialGradient_2" cx="0" cy="0" r="1" gradientTransform="matrix(38.8699 0 0 -39.7362 50.2613 34.4576)" gradientUnits="userSpaceOnUse"><stop offset="0" stop-color="#fff"/><stop offset=".542" stop-color="#fff"/><stop offset=".791" stop-color="#d9d9d9"/><stop offset="1" stop-color="#ccc"/></radialGradient><radialGradient id="RadialGradient_3" cx="0" cy="0" r="1" gradientTransform="matrix(38.011 0 0 -38.8582 50.1854 33.6175)" gradientUnits="userSpaceOnUse"><stop offset="0" stop-color="#fff"/><stop offset=".542" stop-color="#fff"/><stop offset=".791" stop-color="#d9d9d9"/><stop offset="1" stop-color="#ccc"/></radialGradient></defs><g id="Layer"><g opacity="1"><path fill="#fff" fill-rule="nonzero" stroke="none" d="M50 0.526C50 0.526 19.635 0.516088 19.0493 31.7631L19.0493 42.815L19.0493 68.2379C19.635 99.4849 47.4677 99.475 47.4677 99.475L52.5323 99.475C52.5323 99.475 80.9507 99.485 80.9507 68.2379L80.9507 42.815L80.9507 31.7631C80.9507 0.516088 50 0.526 50 0.526Z" opacity=".2"/><path fill="url(#LinearGradient)" fill-rule="nonzero" stroke="none" d="M19.0493 42.815L19.0493 68.2379C19.635 99.4849 47.4677 99.475 47.4677 99.475L52.5323 99.475C52.5323 99.475 80.9507 99.485 80.9507 68.2379L80.9507 42.815L19.0493 42.815Z" opacity="1"/><path fill="url(#RadialGradient)" fill-rule="nonzero" stroke="none" d="M19.0493 42.815L19.0493 68.2379C19.635 99.4849 47.4677 99.475 47.4677 99.475L52.5323 99.475C52.5323 99.475 80.9507 99.485 80.9507 68.2379L80.9507 42.815L19.0493 42.815Z" opacity="1"/><g opacity="1"><path fill="url(#RadialGradient_2)" fill-rule="nonzero" stroke="none" d="M50 0.526L50 42.815L80.9507 42.815L80.9507 31.7631C80.9507 0.516088 50 0.526 50 0.526Z" opacity="1"/><path fill="url(#RadialGradient_3)" fill-rule="nonzero" stroke="none" d="M50 0.526C50 0.526 19.635 0.516088 19.0493 31.7631L19.0493 42.815L50 42.815L50 0.526Z" opacity="1"/></g><path fill="#ccc" fill-rule="nonzero" stroke="none" d="M49.925 0.525L49.925 42.6575L19.05 42.6575L19.05 43.0044L80.95 43.0044L80.95 42.6575L50.225 42.6575L50.225 0.525L49.925 0.525Z" opacity="1"/></g></g></svg>