<?xml version="1.0" encoding="UTF-8" standalone="no"?>
<!DOCTYPE svg PUBLIC "-//W3C//DTD SVG 1.1//EN" "http://www.w3.org/Graphics/SVG/1.1/DTD/svg11.dtd">
<!-- Created with Vectornator (http://vectornator.io/) -->
<svg height="100%" stroke-miterlimit="10" style="fill-rule:nonzero;clip-rule:evenodd;stroke-linecap:round;stroke-linejoin:round;" version="1.1" viewBox="-0.00140328 1.39277 99.0014 97.2151" width="100%" xml:space="preserve" xmlns="http://www.w3.org/2000/svg" xmlns:vectornator="http://vectornator.io" xmlns:xlink="http://www.w3.org/1999/xlink">
<defs>
<linearGradient gradientTransform="matrix(9.46688 9.72403 -8.67913 14.9514 4.66789 9.95111)" gradientUnits="userSpaceOnUse" id="LinearGradient" x1="0" x2="1" y1="0" y2="0">
<stop offset="0" stop-color="#e600d0"/>
<stop offset="0.593421" stop-color="#c200ae"/>
<stop offset="1" stop-color="#800073"/>
</linearGradient>
<linearGradient gradientTransform="matrix(9.46688 9.72403 -8.67913 14.9514 3.41524 47.5702)" gradientUnits="userSpaceOnUse" id="LinearGradient_2" x1="0" x2="1" y1="0" y2="0">
<stop offset="0" stop-color="#e600d0"/>
<stop offset="0.593421" stop-color="#c200ae"/>
<stop offset="1" stop-color="#800073"/>
</linearGradient>
<linearGradient gradientTransform="matrix(9.46688 9.72403 -8.67913 14.9514 4.58965 81.4469)" gradientUnits="userSpaceOnUse" id="LinearGradient_3" x1="0" x2="1" y1="0" y2="0">
<stop offset="0" stop-color="#e600d0"/>
<stop offset="0.593421" stop-color="#c200ae"/>
<stop offset="1" stop-color="#800073"/>
</linearGradient>
<linearGradient gradientTransform="matrix(-4.94566 1.04903 -0.725085 -7.15524 28.6753 20.3367)" gradientUnits="userSpaceOnUse" id="LinearGradient_4" x1="0" x2="1" y1="0" y2="0">
<stop offset="0" stop-color="#9600b9"/>
<stop offset="0.656579" stop-color="#910095"/>
<stop offset="1" stop-color="#5e0073"/>
</linearGradient>
<linearGradient gradientTransform="matrix(-4.94566 1.04903 -0.725085 -7.15524 29.5964 57.6908)" gradientUnits="userSpaceOnUse" id="LinearGradient_5" x1="0" x2="1" y1="0" y2="0">
<stop offset="0" stop-color="#9600b9"/>
<stop offset="0.656579" stop-color="#910095"/>
<stop offset="1" stop-color="#5e0073"/>
</linearGradient>
<linearGradient gradientTransform="matrix(-4.94566 1.04903 -0.725085 -7.15524 30.7641 91.2443)" gradientUnits="userSpaceOnUse" id="LinearGradient_6" x1="0" x2="1" y1="0" y2="0">
<stop offset="0" stop-color="#9600b9"/>
<stop offset="0.656579" stop-color="#910095"/>
<stop offset="1" stop-color="#5e0073"/>
</linearGradient>
<linearGradient gradientTransform="matrix(-64.594 -0.0999153 -0.520413 77.886 103.585 20.7589)" gradientUnits="userSpaceOnUse" id="LinearGradient_7" x1="0" x2="1" y1="0" y2="0">
<stop offset="0" stop-color="#000399"/>
<stop offset="1" stop-color="#0004ff"/>
</linearGradient>
<linearGradient gradientTransform="matrix(80.8371 -0.259082 0.950052 84.8529 29.7036 54.6241)" gradientUnits="userSpaceOnUse" id="LinearGradient_8" x1="0" x2="1" y1="0" y2="0">
<stop offset="0" stop-color="#000399"/>
<stop offset="1" stop-color="#0004ff"/>
</linearGradient>
<linearGradient gradientTransform="matrix(-64.594 -0.0999153 -0.520413 77.886 103.585 88.4894)" gradientUnits="userSpaceOnUse" id="LinearGradient_9" x1="0" x2="1" y1="0" y2="0">
<stop offset="0" stop-color="#000399"/>
<stop offset="1" stop-color="#0004ff"/>
</linearGradient>
</defs>
<g id="Layer">
<g opacity="1">
<g opacity="1">
<g opacity="1">
<path d="M15.3741 1.39679C15.2496 1.40799 15.1247 1.44116 15.0071 1.50151L10.1185 4.01061C9.88996 4.12785 9.71621 4.32783 9.63164 4.57037C9.36049 5.34794 8.91505 6.23422 8.28534 7.21275C7.64132 8.2135 6.93046 9.21009 6.15504 10.2013C5.37546 11.1977 4.5834 12.1393 3.78101 13.0277C2.97463 13.9205 2.27891 14.641 1.70288 15.182C1.52917 15.3451 1.42145 15.5652 1.39544 15.8021L1.25904 17.036C1.21376 17.4456 1.42445 17.841 1.78967 18.0319L3.18851 18.7629C3.55885 18.9564 4.01267 18.8994 4.32308 18.6198C5.28426 17.7538 6.33079 16.8884 7.46195 16.0229C8.02904 15.5891 8.56603 15.1268 9.08297 14.6415C9.09078 15.065 9.10061 15.4511 9.10035 15.9584C9.09955 17.4954 9.16273 22.3927 9.29056 24.8545C8.11444 25.1975 7.03504 25.5958 6.0609 26.059C4.86211 26.6291 3.88188 27.2873 3.14213 28.0706C3.12738 28.0862 3.11215 28.1026 3.09844 28.1191C2.86919 28.3955 2.82729 28.5917 2.75441 28.8177C2.68377 29.0368 2.62119 29.2692 2.56357 29.5166C2.50596 29.764 2.45898 30.0078 2.42235 30.2469C2.39183 30.4461 2.36547 30.586 2.36547 30.586C2.16997 31.4255 3.05805 32.1032 3.81615 31.6929C5.1141 30.9905 6.42857 30.4333 7.76459 30.0199C9.11585 29.6018 10.4518 29.3041 11.7714 29.126C13.0983 28.9469 14.4135 28.8724 15.7213 28.9011C17.0508 28.9302 18.3215 29.0209 19.5321 29.1717C19.795 29.2044 20.0588 29.1307 20.268 28.9681L23.9796 26.0841C24.2894 25.8432 24.4289 25.4432 24.3376 25.0616C24.3041 24.9215 24.2698 24.7934 24.2124 24.6543C24.1585 24.5237 24.0886 24.3378 23.8416 24.133C23.5866 23.9214 23.3546 23.8605 23.1547 23.814C22.5911 23.6827 22.0599 23.576 21.5615 23.4957C21.0459 23.4125 20.5101 23.3604 19.9538 23.3394C19.4013 23.3186 18.7768 23.3235 18.0755 23.3512C17.6581 23.3678 17.0956 23.4112 16.5825 23.4463L15.8209 11.6604C15.9373 11.312 16.1028 10.8726 16.3589 10.2811C16.6811 9.53706 16.9354 8.72601 17.1216 7.8489C17.3148 6.93878 17.3822 5.99403 17.3317 5.0242C17.2758 3.95075 16.9242 2.89644 16.3244 1.88293C16.1224 1.54159 15.7476 1.36317 15.3741 1.39679Z" fill="url(#LinearGradient)" fill-rule="nonzero" opacity="1" stroke="none"/>
<path d="M13.8676 39.092C13.2687 39.1786 12.7243 39.3477 12.2424 39.6248C10.4241 40.6602 9.01619 41.5099 8.0052 42.1889C6.99961 42.8643 6.25331 43.4334 5.72789 43.9552C5.23806 44.4417 4.85918 44.8849 4.66869 45.4414C4.55275 45.7801 4.46189 46.1242 4.3995 46.4743C4.31865 46.928 4.2781 47.4649 4.26326 48.1119C4.24773 48.7889 4.29646 49.4588 4.40766 50.1189C4.52366 50.8074 4.72948 51.4471 5.03727 52.0233C5.41222 52.7253 6.06361 53.2307 6.86142 53.3729C7.1078 53.4168 7.36307 53.3653 7.57434 53.2312L11.7732 50.5643C12.0703 50.3757 12.2458 50.0447 12.2363 49.693C12.2208 49.1213 12.1158 48.5759 11.8938 48.0792C11.7345 47.7227 11.5751 47.3651 11.4158 47.0085C11.2774 46.699 11.1622 46.3767 11.0689 46.0383C11.0136 45.8381 10.9919 45.5349 11.0668 45.1147C11.1669 44.5531 11.2638 44.5884 11.2638 44.5884C11.477 44.5144 11.8622 44.478 12.4393 44.5809C13.6889 44.8036 14.0517 45.2009 14.1381 45.4298C14.3347 45.9506 14.3927 46.6766 14.22 47.6456C14.0074 48.8386 13.5936 49.9638 12.9648 51.0366C12.3137 52.1475 11.5454 53.1924 10.658 54.1739C9.76146 55.1653 8.78417 56.0861 7.72699 56.9392C6.65067 57.8078 5.60168 58.5838 4.58108 59.2663C4.5688 59.2745 4.55717 59.2825 4.54526 59.2913C4.00807 59.6861 3.50519 60.0383 3.03623 60.3453C2.50181 60.6952 2.02254 61.0732 1.60351 61.4839C1.15705 61.9216 0.791082 62.4287 0.516467 62.9907C0.222885 63.5916 0.0611676 64.2711 0.00195148 65.0132C-0.0607684 65.7991 0.768166 66.3446 1.46544 65.9766C2.91719 65.2103 4.26989 64.5736 5.52033 64.0652C6.7441 63.5677 8.0531 63.1835 9.44491 62.9132C10.8232 62.6456 12.4053 62.4971 14.1916 62.4771C15.981 62.4572 18.1408 62.5553 20.657 62.7742C20.8592 62.7918 21.0611 62.7481 21.2375 62.6477L25.809 60.0461C26.2421 59.7996 26.4253 59.2717 26.2416 58.8084C26.1556 58.5916 26.026 58.1911 25.5067 57.9628C25.3002 57.872 25.1311 57.8386 24.9367 57.804C23.5495 57.5567 22.1111 57.4328 20.6249 57.4284C19.1493 57.424 17.658 57.5156 16.152 57.7034C14.653 57.8904 13.1808 58.1508 11.7349 58.4862C11.6411 58.508 11.5541 58.5344 11.4609 58.5567C11.7845 58.2654 12.0745 58.0023 12.4065 57.7038C13.7386 56.5062 14.9899 55.2631 16.1613 53.9753C17.3481 52.6708 18.3938 51.2971 19.2952 49.8552C20.2265 48.3653 20.8483 46.7796 21.1448 45.1158C21.3971 43.7001 21.1422 42.3509 20.3355 41.2311C19.5064 40.0802 18.201 39.4068 16.6136 39.1239C15.9843 39.0117 15.2795 38.9878 14.4848 39.0328C14.2741 39.0447 14.0673 39.0631 13.8676 39.092Z" fill="url(#LinearGradient_2)" fill-rule="nonzero" opacity="1" stroke="none"/>
<path d="M18.2101 72.9688C17.2278 73.0973 16.234 73.3532 15.2329 73.7322C14.2379 74.109 13.2679 74.584 12.3235 75.1545C11.3774 75.7261 10.5043 76.3692 9.71008 77.0813C8.91103 77.7977 8.21995 78.5729 7.6372 79.4091C7.04696 80.2561 6.60973 81.1395 6.34769 82.0529C6.34177 82.0736 6.33901 82.0952 6.33443 82.1162C6.27412 82.3925 6.2669 82.6456 6.26349 83.0029C6.26009 83.3583 6.26402 83.6184 6.30771 83.8799C6.41147 84.5009 7.05566 84.8726 7.64503 84.6512C8.17462 84.4522 8.76298 84.2077 9.41215 83.9171C10.109 83.6052 10.7276 83.2429 11.2642 82.8204C11.4188 82.6987 11.5334 82.5334 11.5949 82.3465C11.8273 81.6407 12.101 80.9361 12.4121 80.2312C12.7026 79.573 13.048 79.0128 13.4439 78.538C13.8145 78.0936 14.2346 77.7736 14.7288 77.5524C15.1197 77.3774 15.6435 77.3197 16.3839 77.4814C16.7516 77.5617 16.9957 77.6642 17.1206 77.7431C17.2891 77.8496 17.3538 77.9313 17.3696 77.9583C17.4132 78.0326 17.4308 78.0966 17.437 78.1831C17.4477 78.334 17.4401 78.4581 17.4169 78.5642C17.305 79.0768 17.0844 79.5702 16.7377 80.0636C16.3637 80.5958 15.9287 81.0913 15.4309 81.5531C14.9081 82.0383 14.3679 82.493 13.8072 82.9168C13.2299 83.3531 12.6899 83.7439 12.1921 84.085C12.1821 84.0919 12.1747 84.0973 12.1649 84.1045C12.0789 84.1682 11.7727 84.33 11.2998 84.5006C10.7811 84.6877 10.2417 84.883 9.67837 85.0875C9.11632 85.2916 8.57767 85.4873 8.06045 85.6739C7.50728 85.8735 7.09178 86.0472 6.7479 86.2678C6.57629 86.3779 6.4426 86.5383 6.36445 86.7267L5.41634 89.0125C5.17743 89.5882 5.51815 90.2408 6.12713 90.3737C6.60773 90.4787 7.09402 90.4384 7.5758 90.316C7.99084 90.2106 8.41151 90.0772 8.8317 89.9171C9.23221 89.7644 9.62648 89.6035 10.0168 89.4343C10.3577 89.2865 10.6457 89.1882 10.8638 89.1328C10.8769 89.1295 10.8881 89.126 10.901 89.1221C11.733 88.8746 12.5226 88.6597 13.2687 88.4762C14.0002 88.2963 14.7138 88.1586 15.4072 88.0641C16.0792 87.9726 16.7627 87.9389 17.4638 87.9658C18.153 87.9921 18.9044 88.093 19.714 88.2698C20.1331 88.3613 20.4109 88.4487 20.614 88.5222C20.4795 88.8453 20.1943 89.214 19.6164 89.61C18.9292 90.0809 18.0682 90.5201 17.0274 90.9124C15.961 91.3144 14.8006 91.6857 13.5515 92.0269C12.2809 92.3741 11.0711 92.6941 9.9229 92.9857C8.765 93.2797 7.7235 93.5515 6.79196 93.8004C5.82255 94.0594 5.09498 94.3086 4.54231 94.6328C4.53082 94.6395 4.51935 94.6461 4.50814 94.6533C4.32935 94.768 4.0823 94.9214 3.7727 95.109C3.45884 95.2992 3.15223 95.4839 2.85426 95.6639C2.55001 95.8477 2.28318 96.0143 2.05124 96.1631C1.92953 96.2412 1.83597 96.3041 1.74706 96.3699C1.71552 96.3932 1.63056 96.4646 1.58068 96.5099C1.58068 96.5099 1.51111 96.5782 1.43887 96.6692L1.3492 96.8411C1.31232 96.9118 1.28523 96.9873 1.2687 97.0653L1.19886 97.395C1.05535 98.0523 1.58653 98.6604 2.25699 98.6042C2.25699 98.6042 2.52941 98.5829 3.071 98.5376C3.63101 98.4907 4.29196 98.4195 5.05811 98.3245C5.83083 98.2287 6.62642 98.1088 7.44732 97.9691C8.27774 97.8278 8.98608 97.679 9.58335 97.514C9.59232 97.5115 9.6019 97.51 9.61079 97.5073C10.0717 97.366 10.8223 97.1393 11.8553 96.834C12.908 96.5229 14.0793 96.1468 15.3732 95.7004C16.6684 95.2536 18.0201 94.7559 19.4295 94.2123C20.8547 93.6626 22.1738 93.0882 23.3841 92.4841C24.6062 91.8742 25.6566 91.237 26.5386 90.5626C27.4416 89.8721 28.1231 89.099 28.3316 88.1442C28.5155 87.3017 28.3926 86.443 27.9273 85.7176C27.4917 85.0388 26.8387 84.545 26.0464 84.3721C24.9185 84.1258 23.8605 83.9588 22.8736 83.8727C21.9009 83.7878 20.9549 83.7601 20.0349 83.7877C19.4392 83.8056 18.8302 83.8524 18.2242 83.8924C18.861 83.4723 19.4813 83.0381 20.07 82.577C20.9224 81.9092 21.6803 81.15 22.3376 80.304C23.038 79.4025 23.5148 78.3598 23.7658 77.2102C23.9819 76.2205 23.96 75.2357 23.4122 74.4415C22.8875 73.6807 22.0341 73.2737 21.0703 73.0633C20.164 72.8654 19.2067 72.8385 18.2101 72.9688Z" fill="url(#LinearGradient_3)" fill-rule="nonzero" opacity="1" stroke="none"/>
<path d="M23.5209 22.7017C23.5476 22.3554 23.714 21.9758 24.0204 21.5629C24.3267 21.15 24.693 20.7637 25.1192 20.4041C25.5455 20.0445 25.9917 19.7515 26.4578 19.525C26.924 19.2986 27.3169 19.1854 27.6366 19.1854C27.8497 19.1854 27.9962 19.2986 28.0761 19.525C28.156 19.7515 28.2093 20.0178 28.236 20.3242C28.2626 20.6305 28.2626 20.9369 28.236 21.2432C28.2093 21.5496 28.196 21.796 28.196 21.9824C28.196 22.1689 28.1893 22.3088 28.176 22.402C28.1627 22.4952 28.1294 22.5752 28.0761 22.6418C28.0229 22.7084 27.9429 22.7816 27.8364 22.8615C27.7298 22.9414 27.5833 23.0613 27.3968 23.2211C27.1837 23.3543 26.9107 23.5408 26.5777 23.7806C26.2447 24.0203 25.9184 24.2601 25.5987 24.4998C25.2258 24.7928 24.8395 25.0859 24.4399 25.3789L23.7207 25.3789C23.6408 25.3789 23.5808 25.2657 23.5409 25.0392C23.5009 24.8128 23.4743 24.5531 23.461 24.2601C23.4477 23.967 23.4477 23.674 23.461 23.381C23.4743 23.088 23.4943 22.8615 23.5209 22.7017Z" fill="url(#LinearGradient_4)" fill-rule="nonzero" opacity="1" stroke="none"/>
<path d="M24.442 60.0558C24.4686 59.7095 24.6351 59.3299 24.9415 58.917C25.2478 58.5041 25.6141 58.1178 26.0403 57.7582C26.4665 57.3986 26.9127 57.1056 27.3789 56.8791C27.8451 56.6527 28.238 56.5395 28.5577 56.5395C28.7708 56.5395 28.9173 56.6527 28.9972 56.8791C29.0771 57.1056 29.1304 57.3719 29.157 57.6783C29.1837 57.9846 29.1837 58.291 29.157 58.5973C29.1304 58.9037 29.1171 59.1501 29.1171 59.3365C29.1171 59.523 29.1104 59.6629 29.0971 59.7561C29.0838 59.8493 29.0505 59.9293 28.9972 59.9959C28.9439 60.0625 28.864 60.1357 28.7575 60.2156C28.6509 60.2955 28.5044 60.4154 28.3179 60.5752C28.1048 60.7084 27.8318 60.8949 27.4988 61.1347C27.1658 61.3744 26.8395 61.6142 26.5198 61.8539C26.1469 62.1469 25.7606 62.44 25.361 62.733L24.6418 62.733C24.5619 62.733 24.5019 62.6198 24.462 62.3933C24.422 62.1669 24.3954 61.9072 24.382 61.6142C24.3687 61.3211 24.3687 61.0281 24.382 60.7351C24.3954 60.4421 24.4153 60.2156 24.442 60.0558Z" fill="url(#LinearGradient_5)" fill-rule="nonzero" opacity="1" stroke="none"/>
<path d="M25.6098 93.6093C25.6364 93.263 25.8029 92.8834 26.1092 92.4705C26.4156 92.0576 26.7819 91.6713 27.2081 91.3117C27.6343 90.9521 28.0805 90.6591 28.5467 90.4326C29.0128 90.2062 29.4058 90.093 29.7254 90.093C29.9385 90.093 30.0851 90.2062 30.165 90.4326C30.2449 90.6591 30.2982 90.9254 30.3248 91.2318C30.3514 91.5381 30.3514 91.8445 30.3248 92.1508C30.2982 92.4572 30.2848 92.7036 30.2848 92.89C30.2848 93.0765 30.2782 93.2164 30.2649 93.3096C30.2515 93.4028 30.2182 93.4828 30.165 93.5494C30.1117 93.6159 30.0318 93.6892 29.9252 93.7691C29.8187 93.849 29.6722 93.9689 29.4857 94.1287C29.2726 94.2619 28.9995 94.4484 28.6665 94.6882C28.3336 94.9279 28.0072 95.1677 27.6876 95.4074C27.3146 95.7004 26.9284 95.9935 26.5288 96.2865L25.8095 96.2865C25.7296 96.2865 25.6697 96.1733 25.6297 95.9468C25.5898 95.7204 25.5631 95.4607 25.5498 95.1677C25.5365 94.8746 25.5365 94.5816 25.5498 94.2886C25.5631 93.9955 25.5831 93.7691 25.6098 93.6093Z" fill="url(#LinearGradient_6)" fill-rule="nonzero" opacity="1" stroke="none"/>
</g>
</g>
<g opacity="1">
<path d="M99 19.964C99 17.0991 96.6776 14.7766 93.8127 14.7766L40.1573 14.7766C37.2924 14.7766 34.97 17.0991 34.97 19.964L34.97 20.469C34.97 23.3338 37.2924 25.6563 40.1573 25.6563L93.8127 25.6563C96.6776 25.6563 99 23.3338 99 20.469L99 19.964Z" fill="url(#LinearGradient_7)" fill-rule="nonzero" opacity="1" stroke="none"/>
<path d="M99 53.8292C99 50.9643 96.6776 48.6419 93.8127 48.6419L40.1573 48.6419C37.2924 48.6419 34.97 50.9643 34.97 53.8292L34.97 54.3342C34.97 57.1991 37.2924 59.5215 40.1573 59.5215L93.8127 59.5215C96.6776 59.5215 99 57.1991 99 54.3342L99 53.8292Z" fill="url(#LinearGradient_8)" fill-rule="nonzero" opacity="1" stroke="none"/>
<path d="M99 87.6944C99 84.8296 96.6776 82.5071 93.8127 82.5071L40.1573 82.5071C37.2924 82.5071 34.97 84.8296 34.97 87.6944L34.97 88.1994C34.97 91.0643 37.2924 93.3867 40.1573 93.3867L93.8127 93.3867C96.6776 93.3867 99 91.0643 99 88.1994L99 87.6944Z" fill="url(#LinearGradient_9)" fill-rule="nonzero" opacity="1" stroke="none"/>
</g>
</g>
</g>
</svg>
