<svg width="100%" height="100%" viewBox="0 0 100 100" stroke-miterlimit="10" style="fill-rule:nonzero;clip-rule:evenodd;stroke-linecap:round;stroke-linejoin:round;" version="1.1" xml:space="preserve" xmlns="http://www.w3.org/2000/svg" xmlns:xlink="http://www.w3.org/1999/xlink"><defs><linearGradient id="LG_NYT" gradientTransform="matrix(1.86646 120.985 -120.985 1.86646 47.8478 -9.82072)" gradientUnits="userSpaceOnUse" x1="0" x2="1" y1="0" y2="0"><stop offset="0" stop-color="#fff"/><stop offset="1" stop-color="#cecece"/></linearGradient><filter id="Fi_NYT" color-interpolation-filters="sRGB" filterUnits="userSpaceOnUse" height="106.044" x="9.36022" y="-2.32308"><feDropShadow dx="-2.56689e-06" dy="0.698815" flood-color="#000" flood-opacity="0.333" in="SourceGraphic" result="Shadow" stdDeviation="1.60876"/></filter></defs><g id="NYT"><path fill="url(#LG_NYT)" fill-rule="nonzero" filter="url(#Fi_NYT)" shadowAngle="1.5708" shadowColor="#000" shadowOffset="0.698815" shadowOpacity="0.333" shadowRadius="3.21752" d="M86.616 14.1716C86.616 3.63431 76.6056 1 68.7026 1L68.7026 2.58059C73.4444 2.58059 77.1324 4.16117 77.1324 7.84921C77.0599 9.41266 76.3338 10.8737 75.1314 11.8757C73.929 12.8776 72.361 13.3284 70.8101 13.1178C64.8548 12.4815 59.0092 11.0644 53.4236 8.90293C47.4961 6.66943 41.2927 5.2515 34.9835 4.68804C30.3602 4.50373 25.8571 6.18653 22.4878 9.35765C19.1185 12.5288 17.1661 16.9217 17.0702 21.5476C17.0009 26.69 20.1608 31.3245 24.9731 33.1386L25.4999 32.0849C23.4819 31.1249 22.2362 29.0486 22.3388 26.8162C22.7942 23.1897 26.0835 20.6052 29.7148 21.0208C36.3901 21.7539 42.9425 23.3478 49.2087 25.7625C55.6052 27.6016 62.1178 29.0098 68.7026 29.9774L68.7026 46.3101L60.7997 53.1594L60.7997 53.6862L68.7026 60.5354L68.7026 83.1905C64.6999 85.4698 60.1323 86.566 55.5311 86.3517C47.7652 86.76 40.2251 83.6666 34.9835 77.9219L56.5848 67.3846L56.5848 30.5043L30.2417 42.0952C33.1901 35.7555 37.9587 30.4367 43.9401 26.8162L43.4133 25.7625C26.4494 29.8809 14.2243 44.6798 13.3821 62.116C13.4385 82.4611 29.9174 98.94 50.2625 98.9964C59.4338 99.1299 68.2759 95.5817 74.811 89.1456C81.3461 82.7096 85.0288 73.9226 85.0354 64.7503L83.9816 64.7503C81.2085 71.4766 76.424 77.1812 70.2832 81.0831L70.2832 59.4817L78.713 52.6325L78.713 52.1056L70.8101 45.2564L70.8101 29.4506C74.9704 29.6582 79.0308 28.1331 82.0258 25.238C85.0207 22.3429 86.6825 18.3365 86.616 14.1716ZM40.779 72.1264L34.4566 75.2876C30.291 69.4736 28.2454 62.4069 28.6611 55.2668C28.6315 51.5205 29.1643 47.7909 30.2417 44.2027L41.3058 39.4609L40.779 72.1264Z"/></g></svg>