<svg xmlns="http://www.w3.org/2000/svg" width="720" height="720" viewBox="0 0 256 256"><defs><linearGradient id="a" x1="26" x2="26" y1="44.502" y2="-2.243" gradientUnits="userSpaceOnUse"><stop offset="0" stop-color="#9f9f9f" stop-opacity=".341"/><stop offset=".12" stop-color="#bcbcbc" stop-opacity=".349"/><stop offset=".416" stop-color="#a6a6a6" stop-opacity=".38"/><stop offset=".672" stop-color="#b2b2b2" stop-opacity=".388"/><stop offset=".875" stop-opacity="0"/><stop offset="1" stop-color="#cbcbcb" stop-opacity=".451"/></linearGradient><linearGradient id="b" x1="37" x2="37" y1="7.12" y2="23.402" gradientUnits="userSpaceOnUse"><stop offset="0" stop-color="#d5a5ff" stop-opacity=".251"/><stop offset="1" stop-color="#b687ff" stop-opacity=".239"/></linearGradient><linearGradient id="c" x1="37" x2="37" y1="17" y2="6.114" gradientUnits="userSpaceOnUse"><stop offset="0" stop-opacity="0"/><stop offset="1" stop-color="#bb5bff" stop-opacity=".239"/></linearGradient><linearGradient id="d" x1="26" x2="26" y1="30.5" y2="6.5" gradientUnits="userSpaceOnUse"><stop offset="0" stop-color="#9f9f9f" stop-opacity=".341"/><stop offset=".12" stop-color="#bcbcbc" stop-opacity=".349"/><stop offset=".416" stop-color="#a6a6a6" stop-opacity=".38"/><stop offset=".672" stop-color="#b2b2b2" stop-opacity=".388"/><stop offset=".875" stop-opacity="0"/><stop offset="1" stop-color="#cbcbcb" stop-opacity=".451"/></linearGradient><linearGradient id="e" x1="23.4" x2="4.953" y1="6.71" y2="24.941" gradientUnits="userSpaceOnUse"><stop offset="0" stop-color="#bb5bff" stop-opacity=".239"/><stop offset="1" stop-color="#dca6ff" stop-opacity=".31"/></linearGradient><linearGradient id="f" x1="3.004" x2="19.954" y1="6.901" y2="20.927" gradientUnits="userSpaceOnUse"><stop offset="0" stop-opacity="0"/><stop offset="1" stop-opacity="0"/></linearGradient></defs><rect x="0" y="0" width="256" height="256" fill="#00000000"/><g fill="none" stroke-miterlimit="10" font-family="none" font-size="none" font-weight="none" style="mix-blend-mode:normal" text-anchor="none" transform="scale(5.33333)"><path fill="#dbb3f8" fill-opacity=".412" d="M25 16c0 6.08-4.92 11-11 11a10.907 10.907 0 0 1-6.6-2.2c-.28-.21-.54-.42-.8-.66a10.796 10.796 0 0 1-2.79-3.99c-.01-.05-.01-.1-.01-.15v-5c0-2.87 2.33-5.2 5.2-5.2h14.09c.18.26.34.53.5.8.14.26.28.53.41.8.12.26.23.52.32.8.44 1.18.68 2.46.68 3.8z" opacity=".1"/><path fill="#dbb3f8" fill-opacity=".412" d="M25 16c0 6.08-4.92 11-11 11a10.907 10.907 0 0 1-6.6-2.2c-.28-.21-.54-.42-.8-.66v-.45c-1.23-.81-2-2.21-2-3.69v-5A4.4 4.4 0 0 1 9 10.6h14.59c.14.26.28.53.41.8.12.26.23.52.32.8.44 1.18.68 2.46.68 3.8z" opacity=".2"/><path fill="#dbb3f8" fill-opacity=".412" d="M25 16c0 6.08-4.92 11-11 11a10.907 10.907 0 0 1-6.6-2.2v-1.58c-1.2-.6-2-1.85-2-3.22v-5c0-1.99 1.62-3.6 3.6-3.6h15c.12.26.23.52.32.8.44 1.18.68 2.46.68 3.8z" opacity=".3"/><path fill="#dbb3f8" fill-opacity=".412" d="M25 16c0 6.08-4.92 11-11 11-2.13 0-4.12-.6-5.8-1.65v-2.67c-1.16-.34-2-1.41-2-2.68v-5c0-1.54 1.26-2.8 2.8-2.8h15.32c.44 1.18.68 2.46.68 3.8z" opacity=".4"/><path fill="url(#a)" d="M43 13H9a2 2 0 0 0-2 2v5a2 2 0 0 0 2 2v19a2 2 0 0 0 2 2h30a2 2 0 0 0 2-2V22a2 2 0 0 0 2-2v-5a2 2 0 0 0-2-2z"/><path fill="#b397ff" fill-opacity=".361" d="M35 16c0 1.1.9 2 2 2s2-.9 2-2v-3.75h-4z" opacity=".4"/><path fill="#b397ff" fill-opacity=".361" d="M35 16c0 1.1.9 2 2 2s2-.9 2-2v-4.5h-4z" opacity=".3"/><path fill="#b397ff" fill-opacity=".361" d="M35 16c0 1.1.9 2 2 2s2-.9 2-2v-5.25h-4z" opacity=".2"/><path fill="#b397ff" fill-opacity=".361" d="M35 16c0 1.1.9 2 2 2s2-.9 2-2v-6h-4z" opacity=".1"/><path fill="#af84ff" fill-opacity=".302" d="M33 13v3c0 2.206 1.794 4 4 4s4-1.794 4-4v-3z" opacity=".05"/><path fill="#af84ff" fill-opacity=".302" d="M33.4 13v3c0 1.985 1.615 3.6 3.6 3.6s3.6-1.615 3.6-3.6v-3z" opacity=".1"/><path fill="#af84ff" fill-opacity=".302" d="M33.8 13v3c0 1.764 1.436 3.2 3.2 3.2 1.764 0 3.2-1.436 3.2-3.2v-3z" opacity=".2"/><path fill="#af84ff" fill-opacity=".302" d="M34.2 13v3c0 1.542 1.258 2.8 2.8 2.8 1.542 0 2.8-1.258 2.8-2.8v-3z" opacity=".3"/><path fill="#af84ff" fill-opacity=".302" d="M34.6 13v3c0 1.321 1.079 2.4 2.4 2.4s2.4-1.079 2.4-2.4v-3z" opacity=".4"/><path fill="#af84ff" fill-opacity=".302" d="M35 13v3c0 1.1.9 2 2 2s2-.9 2-2v-3z"/><path fill="url(#b)" d="M37 7c-1.1 0-2 .9-2 2v7c0 1.1.9 2 2 2s2-.9 2-2V9c0-1.1-.9-2-2-2z"/><path fill="url(#c)" d="M37 7.5c.827 0 1.5.673 1.5 1.5v7c0 .827-.673 1.5-1.5 1.5s-1.5-.673-1.5-1.5V9c0-.827.673-1.5 1.5-1.5m0-.5c-1.1 0-2 .9-2 2v7c0 1.1.9 2 2 2s2-.9 2-2V9c0-1.1-.9-2-2-2z"/><path fill="url(#d)" d="M14 23h6v6h-6zm9 6h6v-6h-6zm9 0h6v-6h-6zm-18 9h6v-6h-6zm9 0h6v-6h-6zm9 0h6v-6h-6z"/><path fill="#dbb3f8" fill-opacity=".412" d="M27 16c0 7.17-5.83 13-13 13-1.77 0-3.46-.36-5-1v-6c-1.1 0-2-.9-2-2v-5c0-1.1.9-2 2-2h17.65c.23.96.35 1.97.35 3z" opacity=".05"/><path fill="#dbb3f8" fill-opacity=".412" d="M26.6 16c0 6.95-5.65 12.6-12.6 12.6-1.78 0-3.47-.37-5-1.03V22c-1.1 0-2-.9-2-2v-5c0-1.1.9-2 2-2h17.23c.25.96.37 1.97.37 3z" opacity=".1"/><path fill="#dbb3f8" fill-opacity=".412" d="M26.2 16c0 6.73-5.47 12.2-12.2 12.2-1.78 0-3.48-.38-5-1.08V22c-1.1 0-2-.9-2-2v-5c0-1.1.9-2 2-2h16.82c.25.96.38 1.97.38 3z" opacity=".2"/><path fill="#dbb3f8" fill-opacity=".412" d="M25.8 16c0 6.51-5.29 11.8-11.8 11.8-1.79 0-3.48-.4-5-1.11V22c-1.1 0-2-.9-2-2v-5c0-1.1.9-2 2-2h16.42c.25.96.38 1.96.38 3z" opacity=".3"/><path fill="#dbb3f8" fill-opacity=".412" d="M25.4 16c0 6.29-5.11 11.4-11.4 11.4-1.79 0-3.49-.42-5-1.16V22c-1.1 0-2-.9-2-2v-5c0-1.1.9-2 2-2h16c.26.96.4 1.96.4 3z" opacity=".4"/><circle cx="14" cy="16" r="11" fill="url(#e)"/><path fill="url(#f)" d="M14 5.5c5.79 0 10.5 4.71 10.5 10.5S19.79 26.5 14 26.5 3.5 21.79 3.5 16 8.21 5.5 14 5.5m0-.5C7.925 5 3 9.925 3 16s4.925 11 11 11 11-4.925 11-11S20.075 5 14 5z"/><path fill="#7f25ff" fill-opacity=".169" d="M17 22.002a2.986 2.986 0 0 1-2.119-.879l-3.001-3A2.986 2.986 0 0 1 11 16v-6a3.005 3.005 0 0 1 3-3.002c1.654 0 3 1.347 3 3.002v4.756l2.121 2.121C19.687 17.446 20 18.2 20 19c0 .801-.312 1.554-.877 2.12a2.997 2.997 0 0 1-2.123.882z" opacity=".05"/><path fill="#7f25ff" fill-opacity=".169" d="M17 21.602a2.588 2.588 0 0 1-1.837-.762l-3.001-3A2.591 2.591 0 0 1 11.4 16v-6A2.604 2.604 0 0 1 14 7.398c1.434 0 2.6 1.167 2.6 2.602v4.922l2.238 2.238c.491.493.762 1.146.762 1.84 0 .694-.27 1.347-.761 1.838a2.592 2.592 0 0 1-1.839.764z" opacity=".1"/><path fill="#7f25ff" fill-opacity=".169" d="M17 21.201a2.188 2.188 0 0 1-1.555-.645l-3-3A2.187 2.187 0 0 1 11.8 16v-6c0-1.214.987-2.201 2.2-2.201s2.2.987 2.2 2.201v5.088l2.355 2.355c.416.417.645.97.645 1.557a2.19 2.19 0 0 1-.644 1.556c-.418.416-.97.645-1.556.645z" opacity=".2"/><path fill="#7f25ff" fill-opacity=".169" d="M17 20.801c-.48 0-.932-.188-1.272-.527l-3-3A1.79 1.79 0 0 1 12.2 16v-6c0-.993.807-1.801 1.8-1.801s1.8.808 1.8 1.801v5.254l2.473 2.473c.34.34.527.793.527 1.273 0 .48-.187.933-.527 1.273-.341.34-.793.528-1.273.528z" opacity=".3"/><path fill="#7f25ff" fill-opacity=".169" d="M17 20.4c-.374 0-.726-.146-.99-.41l-3-3a1.39 1.39 0 0 1-.41-.99v-6c0-.771.628-1.4 1.4-1.4.772 0 1.4.629 1.4 1.4v5.42l2.59 2.59c.265.265.41.616.41.99s-.146.726-.41.99-.616.41-.99.41z" opacity=".4"/><path fill="#42007d" fill-opacity=".161" d="M17 20a.997.997 0 0 1-.707-.293l-3-3A.996.996 0 0 1 13 16v-6a1 1 0 1 1 2 0v5.586l2.707 2.707A.999.999 0 0 1 17 20z"/></g></svg>