<svg xmlns="http://www.w3.org/2000/svg" width="100" height="100" baseProfile="basic" viewBox="0 0 48 48"><path fill="#904aff" d="M45.1 22.01c-.03-.01-.07-.01-.1-.01H35c-.13 0-.25.03-.37.07.11.63.17 1.27.17 1.93 0 .66-.06 1.3-.17 1.93.12.04.24.07.37.07h10c.03 0 .07 0 .1-.01.07-.65.1-1.32.1-1.99 0-.67-.03-1.34-.1-1.99zM24 2.8c-.67 0-1.34.03-1.99.1-.01.03-.01.07-.01.1v10c0 .13.03.25.07.37.63-.11 1.27-.17 1.93-.17.66 0 1.3.06 1.93.17.04-.12.07-.24.07-.37V3c0-.03 0-.07-.01-.1-.65-.07-1.32-.1-1.99-.1zm0 32c-.66 0-1.3-.06-1.93-.17-.04.12-.07.24-.07.37v10c0 .03 0 .07.01.1.65.07 1.32.1 1.99.1.67 0 1.34-.03 1.99-.1.01-.03.01-.07.01-.1V35c0-.13-.03-.25-.07-.37-.63.11-1.27.17-1.93.17zM13 22H3c-.03 0-.07 0-.1.01-.07.65-.1 1.32-.1 1.99 0 .67.03 1.34.1 1.99.03.01.07.01.1.01h10c.13 0 .25-.03.37-.07-.11-.63-.17-1.27-.17-1.93 0-.66.06-1.3.17-1.93-.12-.04-.24-.07-.37-.07z" opacity=".1"/><path fill="#904aff" d="M44.3 22h-8.87c.11.65.17 1.32.17 2s-.06 1.35-.17 2h8.87c.07-.66.1-1.32.1-2s-.03-1.34-.1-2zM22 35.43v8.87c.66.07 1.32.1 2 .1s1.34-.03 2-.1v-8.87c-.65.11-1.32.17-2 .17s-1.35-.06-2-.17zM22 3.7v8.87c.65-.11 1.32-.17 2-.17s1.35.06 2 .17V3.7c-.66-.07-1.32-.1-2-.1s-1.34.03-2 .1zM3.7 22c-.07.66-.1 1.32-.1 2s.03 1.34.1 2h8.87c-.11-.65-.17-1.32-.17-2s.06-1.35.17-2H3.7z" opacity=".2"/><path fill="#904aff" d="M43.5 22h-7.26c.11.65.16 1.32.16 2s-.05 1.35-.16 2h7.26c.07-.66.1-1.32.1-2s-.03-1.34-.1-2zM22 36.24v7.26c.66.07 1.32.1 2 .1s1.34-.03 2-.1v-7.26c-.65.11-1.32.16-2 .16s-1.35-.05-2-.16zM22 4.5v7.26c.65-.11 1.32-.16 2-.16s1.35.05 2 .16V4.5c-.66-.07-1.32-.1-2-.1s-1.34.03-2 .1zM4.5 22c-.07.66-.1 1.32-.1 2s.03 1.34.1 2h7.26c-.11-.65-.16-1.32-.16-2s.05-1.35.16-2H4.5z" opacity=".3"/><path fill="#904aff" d="M42.69 22h-5.64c.1.65.15 1.32.15 2s-.05 1.35-.15 2h5.64c.07-.66.11-1.32.11-2s-.04-1.34-.11-2zM22 37.05v5.64c.66.07 1.32.11 2 .11s1.34-.04 2-.11v-5.64c-.65.1-1.32.15-2 .15s-1.35-.05-2-.15zm0-31.74v5.64c.65-.1 1.32-.15 2-.15s1.35.05 2 .15V5.31c-.66-.07-1.32-.11-2-.11s-1.34.04-2 .11zM5.31 22c-.07.66-.11 1.32-.11 2s.04 1.34.11 2h5.64c-.1-.65-.15-1.32-.15-2s.05-1.35.15-2H5.31z" opacity=".4"/><linearGradient id="a" x1="24" x2="24" y1="52.28" y2="-9.202" gradientUnits="userSpaceOnUse"><stop offset="0" stop-color="#962aff"/><stop offset=".137" stop-color="#9f3eff"/><stop offset=".535" stop-color="#b572ff"/><stop offset=".835" stop-color="#c493ff"/><stop offset="1" stop-color="#c99fff"/></linearGradient><path fill="url(#a)" d="M24 6C14.059 6 6 14.059 6 24s8.059 18 18 18 18-8.059 18-18S33.941 6 24 6zm0 32c-7.732 0-14-6.268-14-14s6.268-14 14-14 14 6.268 14 14-6.268 14-14 14z"/><path fill="#904aff" d="M28 6.46v4.12c-.13-.04-.26-.07-.4-.11-.13-.04-.26-.07-.4-.1l-.4-.09c-.13-.03-.27-.05-.4-.07-.78-.14-1.58-.21-2.4-.21s-1.62.07-2.4.21c-.13.02-.27.04-.4.07l-.4.09c-.14.03-.27.06-.4.1-.14.04-.27.07-.4.11V6.46c.13-.04.27-.07.4-.1s.27-.05.4-.07c.13-.03.27-.05.4-.07l.4-.06C22.38 6.05 23.19 6 24 6s1.62.05 2.4.16l.4.06c.13.02.27.04.4.07.13.02.27.04.4.07s.27.06.4.1z" opacity=".05"/><path fill="#904aff" d="M27.6 6.36v4.11c-.13-.04-.26-.07-.4-.1l-.4-.09c-.13-.03-.27-.05-.4-.07-.78-.14-1.58-.21-2.4-.21s-1.62.07-2.4.21c-.13.02-.27.04-.4.07l-.4.09c-.14.03-.27.06-.4.1V6.36c.13-.03.27-.05.4-.07.13-.03.27-.05.4-.07l.4-.06C22.38 6.05 23.19 6 24 6s1.62.05 2.4.16l.4.06c.13.02.27.04.4.07.13.02.27.04.4.07z" opacity=".1"/><path fill="#904aff" d="M27.2 6.29v4.08l-.4-.09c-.13-.03-.27-.05-.4-.07-.78-.14-1.58-.21-2.4-.21s-1.62.07-2.4.21c-.13.02-.27.04-.4.07l-.4.09V6.29c.13-.03.27-.05.4-.07l.4-.06C22.38 6.05 23.19 6 24 6s1.62.05 2.4.16l.4.06c.13.02.27.04.4.07z" opacity=".2"/><path fill="#904aff" d="M26.8 6.22v4.06c-.13-.03-.27-.05-.4-.07-.78-.14-1.58-.21-2.4-.21s-1.62.07-2.4.21c-.13.02-.27.04-.4.07V6.22l.4-.06C22.38 6.05 23.19 6 24 6s1.62.05 2.4.16l.4.06z" opacity=".3"/><path fill="#904aff" d="M26.4 6.16v4.05c-.78-.14-1.58-.21-2.4-.21s-1.62.07-2.4.21V6.16C22.38 6.05 23.19 6 24 6s1.62.05 2.4.16z" opacity=".4"/><path fill="#904aff" d="M28 37.42v4.12c-.13.04-.27.07-.4.1s-.27.05-.4.07c-.13.03-.27.05-.4.07l-.4.06c-.78.11-1.59.16-2.4.16s-1.62-.05-2.4-.16l-.4-.06c-.13-.02-.27-.04-.4-.07-.13-.02-.27-.04-.4-.07-.13-.03-.27-.06-.4-.1v-4.12c.13.04.26.07.4.11.13.04.26.07.4.1l.4.09c.13.03.27.05.4.07.78.14 1.58.21 2.4.21s1.62-.07 2.4-.21c.13-.02.27-.04.4-.07l.4-.09c.14-.03.27-.06.4-.1.14-.04.27-.07.4-.11z" opacity=".05"/><path fill="#904aff" d="M27.6 37.53v4.11c-.13.03-.27.05-.4.07-.13.03-.27.05-.4.07l-.4.06c-.78.11-1.59.16-2.4.16s-1.62-.05-2.4-.16l-.4-.06c-.13-.02-.27-.04-.4-.07-.13-.02-.27-.04-.4-.07v-4.11c.13.04.26.07.4.1l.4.09c.13.03.27.05.4.07.78.14 1.58.21 2.4.21s1.62-.07 2.4-.21c.13-.02.27-.04.4-.07l.4-.09c.14-.03.27-.06.4-.1z" opacity=".1"/><path fill="#904aff" d="M27.2 37.63v4.08c-.13.03-.27.05-.4.07l-.4.06c-.78.11-1.59.16-2.4.16s-1.62-.05-2.4-.16l-.4-.06c-.13-.02-.27-.04-.4-.07v-4.08l.4.09c.13.03.27.05.4.07.78.14 1.58.21 2.4.21s1.62-.07 2.4-.21c.13-.02.27-.04.4-.07l.4-.09z" opacity=".2"/><path fill="#904aff" d="M26.8 37.72v4.06l-.4.06c-.78.11-1.59.16-2.4.16s-1.62-.05-2.4-.16l-.4-.06v-4.06c.13.03.27.05.4.07.78.14 1.58.21 2.4.21s1.62-.07 2.4-.21c.13-.02.27-.04.4-.07z" opacity=".3"/><path fill="#904aff" d="M26.4 37.79v4.05c-.78.11-1.59.16-2.4.16s-1.62-.05-2.4-.16v-4.05c.78.14 1.58.21 2.4.21s1.62-.07 2.4-.21z" opacity=".4"/><path fill="#904aff" d="M42 24c0 .81-.05 1.62-.16 2.4l-.06.4c-.02.13-.04.27-.07.4-.02.13-.04.27-.07.4s-.06.27-.1.4h-4.12c.04-.13.07-.26.11-.4.04-.12.07-.26.1-.4.03-.13.06-.26.09-.4.03-.13.05-.27.07-.4.14-.78.21-1.58.21-2.4s-.07-1.62-.21-2.4c-.02-.13-.04-.27-.07-.4l-.09-.4c-.03-.14-.06-.27-.1-.4-.04-.14-.07-.27-.11-.4h4.12c.04.13.07.27.1.4s.05.27.07.4c.03.13.05.27.07.4l.06.4c.11.78.16 1.59.16 2.4z" opacity=".05"/><path fill="#904aff" d="M42 24c0 .81-.05 1.62-.16 2.4l-.06.4c-.02.13-.04.27-.07.4-.02.13-.04.27-.07.4h-4.11c.04-.12.07-.26.1-.4.03-.13.06-.26.09-.4.03-.13.05-.27.07-.4.14-.78.21-1.58.21-2.4s-.07-1.62-.21-2.4c-.02-.13-.04-.27-.07-.4l-.09-.4c-.03-.14-.06-.27-.1-.4h4.11c.03.13.05.27.07.4.03.13.05.27.07.4l.06.4c.11.78.16 1.59.16 2.4z" opacity=".1"/><path fill="#904aff" d="M42 24c0 .81-.05 1.62-.16 2.4l-.06.4c-.02.13-.04.27-.07.4h-4.08c.03-.13.06-.26.09-.4.03-.13.05-.27.07-.4.14-.78.21-1.58.21-2.4s-.07-1.62-.21-2.4c-.02-.13-.04-.27-.07-.4l-.09-.4h4.08c.03.13.05.27.07.4l.06.4c.11.78.16 1.59.16 2.4z" opacity=".2"/><path fill="#904aff" d="M42 24c0 .81-.05 1.62-.16 2.4l-.06.4h-4.06c.03-.13.05-.27.07-.4.14-.78.21-1.58.21-2.4s-.07-1.62-.21-2.4c-.02-.13-.04-.27-.07-.4h4.06l.06.4c.11.78.16 1.59.16 2.4z" opacity=".3"/><path fill="#904aff" d="M42 24c0 .81-.05 1.62-.16 2.4h-4.05c.14-.78.21-1.58.21-2.4s-.07-1.62-.21-2.4h4.05c.11.78.16 1.59.16 2.4z" opacity=".4"/><path fill="#904aff" d="M10.47 27.6c.04.14.07.27.11.4H6.46c-.04-.13-.07-.27-.1-.4s-.05-.27-.07-.4c-.03-.13-.05-.27-.07-.4l-.06-.4C6.05 25.62 6 24.81 6 24s.05-1.62.16-2.4l.06-.4c.02-.13.04-.27.07-.4.02-.13.04-.27.07-.4.03-.13.06-.27.1-.4h4.12c-.04.13-.07.26-.11.4-.04.13-.07.26-.1.4l-.09.4c-.03.13-.05.27-.07.4-.14.78-.21 1.58-.21 2.4s.07 1.62.21 2.4c.02.13.04.27.07.4l.09.4c.03.14.06.27.1.4z" opacity=".05"/><path fill="#904aff" d="M10.37 27.2c.03.14.06.27.1.4H6.36c-.03-.13-.05-.27-.07-.4-.03-.13-.05-.27-.07-.4l-.06-.4C6.05 25.62 6 24.81 6 24s.05-1.62.16-2.4l.06-.4c.02-.13.04-.27.07-.4.02-.13.04-.27.07-.4h4.11c-.04.13-.07.26-.1.4l-.09.4c-.03.13-.05.27-.07.4-.14.78-.21 1.58-.21 2.4s.07 1.62.21 2.4c.02.13.04.27.07.4l.09.4z" opacity=".1"/><path fill="#904aff" d="m10.28 26.8.09.4H6.29c-.03-.13-.05-.27-.07-.4l-.06-.4C6.05 25.62 6 24.81 6 24s.05-1.62.16-2.4l.06-.4c.02-.13.04-.27.07-.4h4.08l-.09.4c-.03.13-.05.27-.07.4-.14.78-.21 1.58-.21 2.4s.07 1.62.21 2.4c.02.13.04.27.07.4z" opacity=".2"/><path fill="#904aff" d="M10.21 26.4c.02.13.04.27.07.4H6.22l-.06-.4C6.05 25.62 6 24.81 6 24s.05-1.62.16-2.4l.06-.4h4.06c-.03.13-.05.27-.07.4-.14.78-.21 1.58-.21 2.4s.07 1.62.21 2.4z" opacity=".3"/><path fill="#904aff" d="M10 24c0 .82.07 1.62.21 2.4H6.16C6.05 25.62 6 24.81 6 24s.05-1.62.16-2.4h4.05c-.14.78-.21 1.58-.21 2.4z" opacity=".4"/><linearGradient id="b" x1="24" x2="24" y1="18.538" y2=".803" gradientUnits="userSpaceOnUse"><stop offset="0" stop-color="#4eaefe" stop-opacity=".2"/><stop offset="1" stop-color="#41a2fe" stop-opacity=".4"/></linearGradient><path fill="url(#b)" d="M23 14h2a1 1 0 0 0 1-1V3a1 1 0 0 0-1-1h-2a1 1 0 0 0-1 1v10a1 1 0 0 0 1 1z"/><linearGradient id="c" x1="24" x2="24" y1="50.538" y2="32.803" gradientUnits="userSpaceOnUse"><stop offset="0" stop-color="#4eaefe" stop-opacity=".2"/><stop offset="1" stop-color="#41a2fe" stop-opacity=".4"/></linearGradient><path fill="url(#c)" d="M23 46h2a1 1 0 0 0 1-1V35a1 1 0 0 0-1-1h-2a1 1 0 0 0-1 1v10a1 1 0 0 0 1 1z"/><linearGradient id="d" x1="24" x2="24" y1="47.798" y2="30.793" gradientUnits="userSpaceOnUse"><stop offset="0" stop-color="#fff" stop-opacity=".2"/><stop offset="1" stop-color="#71b5ff" stop-opacity=".4"/></linearGradient><path fill="url(#d)" d="M25 34.5a.5.5 0 0 1 .5.5v10a.5.5 0 0 1-.5.5h-2a.5.5 0 0 1-.5-.5V35a.5.5 0 0 1 .5-.5h2m0-.5h-2a1 1 0 0 0-1 1v10a1 1 0 0 0 1 1h2a1 1 0 0 0 1-1V35a1 1 0 0 0-1-1z"/><linearGradient id="e" x1="24" x2="24" y1="18.538" y2=".803" gradientTransform="rotate(90 24 24)" gradientUnits="userSpaceOnUse"><stop offset="0" stop-color="#4eaefe" stop-opacity=".2"/><stop offset="1" stop-color="#41a2fe" stop-opacity=".4"/></linearGradient><path fill="url(#e)" d="M34 23v2a1 1 0 0 0 1 1h10a1 1 0 0 0 1-1v-2a1 1 0 0 0-1-1H35a1 1 0 0 0-1 1z"/><linearGradient id="f" x1="24" x2="24" y1="50.538" y2="32.803" gradientTransform="rotate(90 24 24)" gradientUnits="userSpaceOnUse"><stop offset="0" stop-color="#4eaefe" stop-opacity=".2"/><stop offset="1" stop-color="#41a2fe" stop-opacity=".4"/></linearGradient><path fill="url(#f)" d="M2 23v2a1 1 0 0 0 1 1h10a1 1 0 0 0 1-1v-2a1 1 0 0 0-1-1H3a1 1 0 0 0-1 1z"/><linearGradient id="g" x1="24" x2="24" y1="15.798" y2="-1.207" gradientUnits="userSpaceOnUse"><stop offset="0" stop-color="#fff" stop-opacity=".2"/><stop offset="1" stop-color="#71b5ff" stop-opacity=".4"/></linearGradient><path fill="url(#g)" d="M25 2.5a.5.5 0 0 1 .5.5v10a.5.5 0 0 1-.5.5h-2a.5.5 0 0 1-.5-.5V3a.5.5 0 0 1 .5-.5h2m0-.5h-2a1 1 0 0 0-1 1v10a1 1 0 0 0 1 1h2a1 1 0 0 0 1-1V3a1 1 0 0 0-1-1z"/><linearGradient id="h" x1="40" x2="40" y1="26.599" y2="20.931" gradientUnits="userSpaceOnUse"><stop offset="0" stop-color="#fff" stop-opacity=".2"/><stop offset="1" stop-color="#71b5ff" stop-opacity=".4"/></linearGradient><path fill="url(#h)" d="M45 22.5a.5.5 0 0 1 .5.5v2a.5.5 0 0 1-.5.5H35a.5.5 0 0 1-.5-.5v-2a.5.5 0 0 1 .5-.5h10m0-.5H35a1 1 0 0 0-1 1v2a1 1 0 0 0 1 1h10a1 1 0 0 0 1-1v-2a1 1 0 0 0-1-1z"/><linearGradient id="i" x1="8" x2="8" y1="26.599" y2="20.931" gradientUnits="userSpaceOnUse"><stop offset="0" stop-color="#fff" stop-opacity=".2"/><stop offset="1" stop-color="#71b5ff" stop-opacity=".4"/></linearGradient><path fill="url(#i)" d="M13 22.5a.5.5 0 0 1 .5.5v2a.5.5 0 0 1-.5.5H3a.5.5 0 0 1-.5-.5v-2a.5.5 0 0 1 .5-.5h10m0-.5H3a1 1 0 0 0-1 1v2a1 1 0 0 0 1 1h10a1 1 0 0 0 1-1v-2a1 1 0 0 0-1-1z"/></svg>