<svg xmlns="http://www.w3.org/2000/svg" xml:space="preserve" width="100%" height="100%" stroke-miterlimit="10" style="fill-rule:nonzero;clip-rule:evenodd;stroke-linecap:round;stroke-linejoin:round" version="1.1" viewBox="0 0 100 100"><defs><linearGradient id="LGScopea" x1="0" x2="1" y1="0" y2="0" gradientTransform="matrix(0 -138.334 138.334 0 50 113.63)" gradientUnits="userSpaceOnUse"><stop offset="0" stop-color="#962aff"/><stop offset=".137" stop-color="#9f3eff"/><stop offset=".535" stop-color="#b572ff"/><stop offset=".835" stop-color="#c493ff"/><stop offset="1" stop-color="#c99fff"/></linearGradient><linearGradient id="LGScopeb" x1="0" x2="1" y1="0" y2="0" gradientTransform="matrix(0 -39.9038 39.9038 0 50 37.71)" gradientUnits="userSpaceOnUse"><stop offset="0" stop-color="#4eaefe" stop-opacity=".2"/><stop offset="1" stop-color="#41a2fe" stop-opacity=".4"/></linearGradient><linearGradient id="LGScopec" x1="0" x2="1" y1="0" y2="0" gradientTransform="matrix(0 -39.9037 39.9037 0 50 109.71)" gradientUnits="userSpaceOnUse"><stop offset="0" stop-color="#4eaefe" stop-opacity=".2"/><stop offset="1" stop-color="#41a2fe" stop-opacity=".4"/></linearGradient><linearGradient id="LGScoped" x1="0" x2="1" y1="0" y2="0" gradientTransform="translate(62.29 50) scale(39.9038)" gradientUnits="userSpaceOnUse"><stop offset="0" stop-color="#4eaefe" stop-opacity=".2"/><stop offset="1" stop-color="#41a2fe" stop-opacity=".4"/></linearGradient><linearGradient id="LGScopee" x1="0" x2="1" y1="0" y2="0" gradientTransform="translate(-9.71 50) scale(39.9037)" gradientUnits="userSpaceOnUse"><stop offset="0" stop-color="#4eaefe" stop-opacity=".2"/><stop offset="1" stop-color="#41a2fe" stop-opacity=".4"/></linearGradient></defs><g id="scope" fill-rule="nonzero" opacity="1"><path fill="#904aff" d="M97.475 45.5225C97.4075 45.5 97.3175 45.5 97.25 45.5L74.75 45.5C74.4575 45.5 74.1875 45.5675 73.9175 45.6575C74.165 47.075 74.3 48.515 74.3 50C74.3 51.485 74.165 52.925 73.9175 54.3425C74.1875 54.4325 74.4575 54.5 74.75 54.5L97.25 54.5C97.3175 54.5 97.4075 54.5 97.475 54.4775C97.6325 53.015 97.7 51.5075 97.7 50C97.7 48.4925 97.6325 46.985 97.475 45.5225ZM50 2.3C48.4925 2.3 46.985 2.3675 45.5225 2.525C45.5 2.5925 45.5 2.6825 45.5 2.75L45.5 25.25C45.5 25.5425 45.5675 25.8125 45.6575 26.0825C47.075 25.835 48.515 25.7 50 25.7C51.485 25.7 52.925 25.835 54.3425 26.0825C54.4325 25.8125 54.5 25.5425 54.5 25.25L54.5 2.75C54.5 2.6825 54.5 2.5925 54.4775 2.525C53.015 2.3675 51.5075 2.3 50 2.3ZM50 74.3C48.515 74.3 47.075 74.165 45.6575 73.9175C45.5675 74.1875 45.5 74.4575 45.5 74.75L45.5 97.25C45.5 97.3175 45.5 97.4075 45.5225 97.475C46.985 97.6325 48.4925 97.7 50 97.7C51.5075 97.7 53.015 97.6325 54.4775 97.475C54.5 97.4075 54.5 97.3175 54.5 97.25L54.5 74.75C54.5 74.4575 54.4325 74.1875 54.3425 73.9175C52.925 74.165 51.485 74.3 50 74.3ZM25.25 45.5L2.75 45.5C2.6825 45.5 2.5925 45.5 2.525 45.5225C2.3675 46.985 2.3 48.4925 2.3 50C2.3 51.5075 2.3675 53.015 2.525 54.4775C2.5925 54.5 2.6825 54.5 2.75 54.5L25.25 54.5C25.5425 54.5 25.8125 54.4325 26.0825 54.3425C25.835 52.925 25.7 51.485 25.7 50C25.7 48.515 25.835 47.075 26.0825 45.6575C25.8125 45.5675 25.5425 45.5 25.25 45.5Z" opacity=".1"/><path fill="#904aff" d="M95.675 45.5L75.7175 45.5C75.965 46.9625 76.1 48.47 76.1 50C76.1 51.53 75.965 53.0375 75.7175 54.5L95.675 54.5C95.8325 53.015 95.9 51.53 95.9 50C95.9 48.47 95.8325 46.985 95.675 45.5ZM45.5 75.7175L45.5 95.675C46.985 95.8325 48.47 95.9 50 95.9C51.53 95.9 53.015 95.8325 54.5 95.675L54.5 75.7175C53.0375 75.965 51.53 76.1 50 76.1C48.47 76.1 46.9625 75.965 45.5 75.7175ZM45.5 4.325L45.5 24.2825C46.9625 24.035 48.47 23.9 50 23.9C51.53 23.9 53.0375 24.035 54.5 24.2825L54.5 4.325C53.015 4.1675 51.53 4.1 50 4.1C48.47 4.1 46.985 4.1675 45.5 4.325ZM4.325 45.5C4.1675 46.985 4.1 48.47 4.1 50C4.1 51.53 4.1675 53.015 4.325 54.5L24.2825 54.5C24.035 53.0375 23.9 51.53 23.9 50C23.9 48.47 24.035 46.9625 24.2825 45.5L4.325 45.5Z" opacity=".2"/><path fill="#904aff" d="M93.875 45.5L77.54 45.5C77.7875 46.9625 77.9 48.47 77.9 50C77.9 51.53 77.7875 53.0375 77.54 54.5L93.875 54.5C94.0325 53.015 94.1 51.53 94.1 50C94.1 48.47 94.0325 46.985 93.875 45.5ZM45.5 77.54L45.5 93.875C46.985 94.0325 48.47 94.1 50 94.1C51.53 94.1 53.015 94.0325 54.5 93.875L54.5 77.54C53.0375 77.7875 51.53 77.9 50 77.9C48.47 77.9 46.9625 77.7875 45.5 77.54ZM45.5 6.125L45.5 22.46C46.9625 22.2125 48.47 22.1 50 22.1C51.53 22.1 53.0375 22.2125 54.5 22.46L54.5 6.125C53.015 5.9675 51.53 5.9 50 5.9C48.47 5.9 46.985 5.9675 45.5 6.125ZM6.125 45.5C5.9675 46.985 5.9 48.47 5.9 50C5.9 51.53 5.9675 53.015 6.125 54.5L22.46 54.5C22.2125 53.0375 22.1 51.53 22.1 50C22.1 48.47 22.2125 46.9625 22.46 45.5L6.125 45.5Z" opacity=".3"/><path fill="#904aff" d="M92.0525 45.5L79.3625 45.5C79.5875 46.9625 79.7 48.47 79.7 50C79.7 51.53 79.5875 53.0375 79.3625 54.5L92.0525 54.5C92.21 53.015 92.3 51.53 92.3 50C92.3 48.47 92.21 46.985 92.0525 45.5ZM45.5 79.3625L45.5 92.0525C46.985 92.21 48.47 92.3 50 92.3C51.53 92.3 53.015 92.21 54.5 92.0525L54.5 79.3625C53.0375 79.5875 51.53 79.7 50 79.7C48.47 79.7 46.9625 79.5875 45.5 79.3625ZM45.5 7.9475L45.5 20.6375C46.9625 20.4125 48.47 20.3 50 20.3C51.53 20.3 53.0375 20.4125 54.5 20.6375L54.5 7.9475C53.015 7.79 51.53 7.7 50 7.7C48.47 7.7 46.985 7.79 45.5 7.9475ZM7.9475 45.5C7.79 46.985 7.7 48.47 7.7 50C7.7 51.53 7.79 53.015 7.9475 54.5L20.6375 54.5C20.4125 53.0375 20.3 51.53 20.3 50C20.3 48.47 20.4125 46.9625 20.6375 45.5L7.9475 45.5Z" opacity=".4"/><path fill="url(#LGScopea)" d="M50 9.5C27.6327 9.5 9.5 27.6327 9.5 50C9.5 72.3673 27.6327 90.5 50 90.5C72.3673 90.5 90.5 72.3673 90.5 50C90.5 27.6327 72.3673 9.5 50 9.5ZM50 81.5C32.603 81.5 18.5 67.397 18.5 50C18.5 32.603 32.603 18.5 50 18.5C67.397 18.5 81.5 32.603 81.5 50C81.5 67.397 67.397 81.5 50 81.5Z" opacity="1"/><path fill="#904aff" d="M59 10.535L59 19.805C58.7075 19.715 58.415 19.6475 58.1 19.5575C57.8075 19.4675 57.515 19.4 57.2 19.3325L56.3 19.13C56.0075 19.0625 55.6925 19.0175 55.4 18.9725C53.645 18.6575 51.845 18.5 50 18.5C48.155 18.5 46.355 18.6575 44.6 18.9725C44.3075 19.0175 43.9925 19.0625 43.7 19.13L42.8 19.3325C42.485 19.4 42.1925 19.4675 41.9 19.5575C41.585 19.6475 41.2925 19.715 41 19.805L41 10.535C41.2925 10.445 41.6075 10.3775 41.9 10.31C42.1925 10.2425 42.5075 10.1975 42.8 10.1525C43.0925 10.085 43.4075 10.04 43.7 9.995L44.6 9.86C46.355 9.6125 48.1775 9.5 50 9.5C51.8225 9.5 53.645 9.6125 55.4 9.86L56.3 9.995C56.5925 10.04 56.9075 10.085 57.2 10.1525C57.4925 10.1975 57.8075 10.2425 58.1 10.31C58.3925 10.3775 58.7075 10.445 59 10.535Z" opacity=".05"/><path fill="#904aff" d="M58.1 10.31L58.1 19.5575C57.8075 19.4675 57.515 19.4 57.2 19.3325L56.3 19.13C56.0075 19.0625 55.6925 19.0175 55.4 18.9725C53.645 18.6575 51.845 18.5 50 18.5C48.155 18.5 46.355 18.6575 44.6 18.9725C44.3075 19.0175 43.9925 19.0625 43.7 19.13L42.8 19.3325C42.485 19.4 42.1925 19.4675 41.9 19.5575L41.9 10.31C42.1925 10.2425 42.5075 10.1975 42.8 10.1525C43.0925 10.085 43.4075 10.04 43.7 9.995L44.6 9.86C46.355 9.6125 48.1775 9.5 50 9.5C51.8225 9.5 53.645 9.6125 55.4 9.86L56.3 9.995C56.5925 10.04 56.9075 10.085 57.2 10.1525C57.4925 10.1975 57.8075 10.2425 58.1 10.31Z" opacity=".1"/><path fill="#904aff" d="M57.2 10.1525L57.2 19.3325L56.3 19.13C56.0075 19.0625 55.6925 19.0175 55.4 18.9725C53.645 18.6575 51.845 18.5 50 18.5C48.155 18.5 46.355 18.6575 44.6 18.9725C44.3075 19.0175 43.9925 19.0625 43.7 19.13L42.8 19.3325L42.8 10.1525C43.0925 10.085 43.4075 10.04 43.7 9.995L44.6 9.86C46.355 9.6125 48.1775 9.5 50 9.5C51.8225 9.5 53.645 9.6125 55.4 9.86L56.3 9.995C56.5925 10.04 56.9075 10.085 57.2 10.1525Z" opacity=".2"/><path fill="#904aff" d="M56.3 9.995L56.3 19.13C56.0075 19.0625 55.6925 19.0175 55.4 18.9725C53.645 18.6575 51.845 18.5 50 18.5C48.155 18.5 46.355 18.6575 44.6 18.9725C44.3075 19.0175 43.9925 19.0625 43.7 19.13L43.7 9.995L44.6 9.86C46.355 9.6125 48.1775 9.5 50 9.5C51.8225 9.5 53.645 9.6125 55.4 9.86C55.4 9.86 56.3 9.995 56.3 9.995Z" opacity=".3"/><path fill="#904aff" d="M55.4 9.86L55.4 18.9725C53.645 18.6575 51.845 18.5 50 18.5C48.155 18.5 46.355 18.6575 44.6 18.9725L44.6 9.86C46.355 9.6125 48.1775 9.5 50 9.5C51.8225 9.5 53.645 9.6125 55.4 9.86Z" opacity=".4"/><path fill="#904aff" d="M59 80.195L59 89.465C58.7075 89.555 58.3925 89.6225 58.1 89.69C57.8075 89.7575 57.4925 89.8025 57.2 89.8475C56.9075 89.915 56.5925 89.96 56.3 90.005L55.4 90.14C53.645 90.3875 51.8225 90.5 50 90.5C48.1775 90.5 46.355 90.3875 44.6 90.14L43.7 90.005C43.4075 89.96 43.0925 89.915 42.8 89.8475C42.5075 89.8025 42.1925 89.7575 41.9 89.69C41.6075 89.6225 41.2925 89.555 41 89.465L41 80.195C41.2925 80.285 41.585 80.3525 41.9 80.4425C42.1925 80.5325 42.485 80.6 42.8 80.6675L43.7 80.87C43.9925 80.9375 44.3075 80.9825 44.6 81.0275C46.355 81.3425 48.155 81.5 50 81.5C51.845 81.5 53.645 81.3425 55.4 81.0275C55.6925 80.9825 56.0075 80.9375 56.3 80.87L57.2 80.6675C57.515 80.6 57.8075 80.5325 58.1 80.4425C58.415 80.3525 58.7075 80.285 59 80.195Z" opacity=".05"/><path fill="#904aff" d="M58.1 80.4425L58.1 89.69C57.8075 89.7575 57.4925 89.8025 57.2 89.8475C56.9075 89.915 56.5925 89.96 56.3 90.005L55.4 90.14C53.645 90.3875 51.8225 90.5 50 90.5C48.1775 90.5 46.355 90.3875 44.6 90.14L43.7 90.005C43.4075 89.96 43.0925 89.915 42.8 89.8475C42.5075 89.8025 42.1925 89.7575 41.9 89.69L41.9 80.4425C42.1925 80.5325 42.485 80.6 42.8 80.6675L43.7 80.87C43.9925 80.9375 44.3075 80.9825 44.6 81.0275C46.355 81.3425 48.155 81.5 50 81.5C51.845 81.5 53.645 81.3425 55.4 81.0275C55.6925 80.9825 56.0075 80.9375 56.3 80.87L57.2 80.6675C57.515 80.6 57.8075 80.5325 58.1 80.4425Z" opacity=".1"/><path fill="#904aff" d="M57.2 80.6675L57.2 89.8475C56.9075 89.915 56.5925 89.96 56.3 90.005L55.4 90.14C53.645 90.3875 51.8225 90.5 50 90.5C48.1775 90.5 46.355 90.3875 44.6 90.14L43.7 90.005C43.4075 89.96 43.0925 89.915 42.8 89.8475L42.8 80.6675L43.7 80.87C43.9925 80.9375 44.3075 80.9825 44.6 81.0275C46.355 81.3425 48.155 81.5 50 81.5C51.845 81.5 53.645 81.3425 55.4 81.0275C55.6925 80.9825 56.0075 80.9375 56.3 80.87L57.2 80.6675Z" opacity=".2"/><path fill="#904aff" d="M56.3 80.87L56.3 90.005L55.4 90.14C53.645 90.3875 51.8225 90.5 50 90.5C48.1775 90.5 46.355 90.3875 44.6 90.14L43.7 90.005L43.7 80.87C43.9925 80.9375 44.3075 80.9825 44.6 81.0275C46.355 81.3425 48.155 81.5 50 81.5C51.845 81.5 53.645 81.3425 55.4 81.0275C55.6925 80.9825 56.0075 80.9375 56.3 80.87Z" opacity=".3"/><path fill="#904aff" d="M55.4 81.0275L55.4 90.14C53.645 90.3875 51.8225 90.5 50 90.5C48.1775 90.5 46.355 90.3875 44.6 90.14L44.6 81.0275C46.355 81.3425 48.155 81.5 50 81.5C51.845 81.5 53.645 81.3425 55.4 81.0275Z" opacity=".4"/><path fill="#904aff" d="M90.5 50C90.5 51.8225 90.3875 53.645 90.14 55.4L90.005 56.3C89.96 56.5925 89.915 56.9075 89.8475 57.2C89.8025 57.4925 89.7575 57.8075 89.69 58.1C89.6225 58.3925 89.555 58.7075 89.465 59L80.195 59C80.285 58.7075 80.3525 58.415 80.4425 58.1C80.5325 57.83 80.6 57.515 80.6675 57.2C80.735 56.9075 80.8025 56.615 80.87 56.3C80.9375 56.0075 80.9825 55.6925 81.0275 55.4C81.3425 53.645 81.5 51.845 81.5 50C81.5 48.155 81.3425 46.355 81.0275 44.6C80.9825 44.3075 80.9375 43.9925 80.87 43.7L80.6675 42.8C80.6 42.485 80.5325 42.1925 80.4425 41.9C80.3525 41.585 80.285 41.2925 80.195 41L89.465 41C89.555 41.2925 89.6225 41.6075 89.69 41.9C89.7575 42.1925 89.8025 42.5075 89.8475 42.8C89.915 43.0925 89.96 43.4075 90.005 43.7L90.14 44.6C90.3875 46.355 90.5 48.1775 90.5 50Z" opacity=".05"/><path fill="#904aff" d="M90.5 50C90.5 51.8225 90.3875 53.645 90.14 55.4L90.005 56.3C89.96 56.5925 89.915 56.9075 89.8475 57.2C89.8025 57.4925 89.7575 57.8075 89.69 58.1L80.4425 58.1C80.5325 57.83 80.6 57.515 80.6675 57.2C80.735 56.9075 80.8025 56.615 80.87 56.3C80.9375 56.0075 80.9825 55.6925 81.0275 55.4C81.3425 53.645 81.5 51.845 81.5 50C81.5 48.155 81.3425 46.355 81.0275 44.6C80.9825 44.3075 80.9375 43.9925 80.87 43.7L80.6675 42.8C80.6 42.485 80.5325 42.1925 80.4425 41.9L89.69 41.9C89.7575 42.1925 89.8025 42.5075 89.8475 42.8C89.915 43.0925 89.96 43.4075 90.005 43.7L90.14 44.6C90.3875 46.355 90.5 48.1775 90.5 50Z" opacity=".1"/><path fill="#904aff" d="M90.5 50C90.5 51.8225 90.3875 53.645 90.14 55.4L90.005 56.3C89.96 56.5925 89.915 56.9075 89.8475 57.2L80.6675 57.2C80.735 56.9075 80.8025 56.615 80.87 56.3C80.9375 56.0075 80.9825 55.6925 81.0275 55.4C81.3425 53.645 81.5 51.845 81.5 50C81.5 48.155 81.3425 46.355 81.0275 44.6C80.9825 44.3075 80.9375 43.9925 80.87 43.7L80.6675 42.8L89.8475 42.8C89.915 43.0925 89.96 43.4075 90.005 43.7L90.14 44.6C90.3875 46.355 90.5 48.1775 90.5 50Z" opacity=".2"/><path fill="#904aff" d="M90.5 50C90.5 51.8225 90.3875 53.645 90.14 55.4L90.005 56.3L80.87 56.3C80.9375 56.0075 80.9825 55.6925 81.0275 55.4C81.3425 53.645 81.5 51.845 81.5 50C81.5 48.155 81.3425 46.355 81.0275 44.6C80.9825 44.3075 80.9375 43.9925 80.87 43.7L90.005 43.7L90.14 44.6C90.3875 46.355 90.5 48.1775 90.5 50Z" opacity=".3"/><path fill="#904aff" d="M90.5 50C90.5 51.8225 90.3875 53.645 90.14 55.4L81.0275 55.4C81.3425 53.645 81.5 51.845 81.5 50C81.5 48.155 81.3425 46.355 81.0275 44.6L90.14 44.6C90.3875 46.355 90.5 48.1775 90.5 50Z" opacity=".4"/><path fill="#904aff" d="M19.5575 58.1C19.6475 58.415 19.715 58.7075 19.805 59L10.535 59C10.445 58.7075 10.3775 58.3925 10.31 58.1C10.2425 57.8075 10.1975 57.4925 10.1525 57.2C10.085 56.9075 10.04 56.5925 9.995 56.3L9.86 55.4C9.6125 53.645 9.5 51.8225 9.5 50C9.5 48.1775 9.6125 46.355 9.86 44.6L9.995 43.7C10.04 43.4075 10.085 43.0925 10.1525 42.8C10.1975 42.5075 10.2425 42.1925 10.31 41.9C10.3775 41.6075 10.445 41.2925 10.535 41L19.805 41C19.715 41.2925 19.6475 41.585 19.5575 41.9C19.4675 42.1925 19.4 42.485 19.3325 42.8L19.13 43.7C19.0625 43.9925 19.0175 44.3075 18.9725 44.6C18.6575 46.355 18.5 48.155 18.5 50C18.5 51.845 18.6575 53.645 18.9725 55.4C19.0175 55.6925 19.0625 56.0075 19.13 56.3L19.3325 57.2C19.4 57.515 19.4675 57.8075 19.5575 58.1Z" opacity=".05"/><path fill="#904aff" d="M19.3325 57.2C19.4 57.515 19.4675 57.8075 19.5575 58.1L10.31 58.1C10.2425 57.8075 10.1975 57.4925 10.1525 57.2C10.085 56.9075 10.04 56.5925 9.995 56.3L9.86 55.4C9.6125 53.645 9.5 51.8225 9.5 50C9.5 48.1775 9.6125 46.355 9.86 44.6L9.995 43.7C10.04 43.4075 10.085 43.0925 10.1525 42.8C10.1975 42.5075 10.2425 42.1925 10.31 41.9L19.5575 41.9C19.4675 42.1925 19.4 42.485 19.3325 42.8L19.13 43.7C19.0625 43.9925 19.0175 44.3075 18.9725 44.6C18.6575 46.355 18.5 48.155 18.5 50C18.5 51.845 18.6575 53.645 18.9725 55.4C19.0175 55.6925 19.0625 56.0075 19.13 56.3C19.13 56.3 19.3325 57.2 19.3325 57.2Z" opacity=".1"/><path fill="#904aff" d="M19.13 56.3L19.3325 57.2L10.1525 57.2C10.085 56.9075 10.04 56.5925 9.995 56.3L9.86 55.4C9.6125 53.645 9.5 51.8225 9.5 50C9.5 48.1775 9.6125 46.355 9.86 44.6L9.995 43.7C10.04 43.4075 10.085 43.0925 10.1525 42.8L19.3325 42.8L19.13 43.7C19.0625 43.9925 19.0175 44.3075 18.9725 44.6C18.6575 46.355 18.5 48.155 18.5 50C18.5 51.845 18.6575 53.645 18.9725 55.4C19.0175 55.6925 19.0625 56.0075 19.13 56.3Z" opacity=".2"/><path fill="#904aff" d="M18.9725 55.4C19.0175 55.6925 19.0625 56.0075 19.13 56.3L9.995 56.3L9.86 55.4C9.6125 53.645 9.5 51.8225 9.5 50C9.5 48.1775 9.6125 46.355 9.86 44.6L9.995 43.7L19.13 43.7C19.0625 43.9925 19.0175 44.3075 18.9725 44.6C18.6575 46.355 18.5 48.155 18.5 50C18.5 51.845 18.6575 53.645 18.9725 55.4Z" opacity=".3"/><path fill="#904aff" d="M18.5 50C18.5 51.845 18.6575 53.645 18.9725 55.4L9.86 55.4C9.6125 53.645 9.5 51.8225 9.5 50C9.5 48.1775 9.6125 46.355 9.86 44.6L18.9725 44.6C18.6575 46.355 18.5 48.155 18.5 50Z" opacity=".4"/><g opacity="1"><path fill="url(#LGScopeb)" d="M47.75 27.5L52.25 27.5C53.4926 27.5 54.5 26.4926 54.5 25.25L54.5 2.75C54.5 1.50736 53.4926 0.5 52.25 0.5L47.75 0.5C46.5074 0.5 45.5 1.50736 45.5 2.75L45.5 25.25C45.5 26.4926 46.5074 27.5 47.75 27.5Z" opacity="1"/><path fill="url(#LGScopec)" d="M47.75 99.5L52.25 99.5C53.4926 99.5 54.5 98.4926 54.5 97.25L54.5 74.75C54.5 73.5074 53.4926 72.5 52.25 72.5L47.75 72.5C46.5074 72.5 45.5 73.5074 45.5 74.75L45.5 97.25C45.5 98.4926 46.5074 99.5 47.75 99.5Z" opacity="1"/><path fill="url(#LGScoped)" d="M72.5 47.75L72.5 52.25C72.5 53.4926 73.5074 54.5 74.75 54.5L97.25 54.5C98.4926 54.5 99.5 53.4926 99.5 52.25L99.5 47.75C99.5 46.5074 98.4926 45.5 97.25 45.5L74.75 45.5C73.5074 45.5 72.5 46.5074 72.5 47.75Z" opacity="1"/><path fill="url(#LGScopee)" d="M0.5 47.75L0.5 52.25C0.5 53.4926 1.50736 54.5 2.75 54.5L25.25 54.5C26.4926 54.5 27.5 53.4926 27.5 52.25L27.5 47.75C27.5 46.5074 26.4926 45.5 25.25 45.5L2.75 45.5C1.50736 45.5 0.5 46.5074 0.5 47.75Z" opacity="1"/></g></g></svg>