<svg xmlns="http://www.w3.org/2000/svg" width="100" height="100" viewBox="0 0 256 256"><defs><linearGradient id="a" x1="24" x2="24" y1="52.28" y2="-9.202" gradientUnits="userSpaceOnUse"><stop offset="0" stop-color="#ff15ba"/><stop offset=".137" stop-color="#ff24b3"/><stop offset=".535" stop-color="#ff49ba"/><stop offset=".835" stop-color="#ff3cae"/><stop offset="1" stop-color="#ff4bb0"/></linearGradient><linearGradient id="b" x1="24" x2="24" y1="18.538" y2=".803" gradientUnits="userSpaceOnUse"><stop offset="0" stop-color="#ffcb00" stop-opacity=".2"/><stop offset="1" stop-color="#fee641" stop-opacity=".671"/></linearGradient><linearGradient id="c" x1="24" x2="24" y1="50.538" y2="32.803" gradientUnits="userSpaceOnUse"><stop offset="0" stop-color="#ffcb00" stop-opacity=".2"/><stop offset="1" stop-color="#fee641" stop-opacity=".671"/></linearGradient><linearGradient id="d" x1="24" x2="24" y1="47.798" y2="30.793" gradientUnits="userSpaceOnUse"><stop offset="0" stop-color="#fff" stop-opacity=".2"/><stop offset="1" stop-color="#fff471" stop-opacity=".42"/></linearGradient><linearGradient id="e" x1="29.462" x2="47.197" y1="24" y2="24" gradientUnits="userSpaceOnUse"><stop offset="0" stop-color="#ffcb00" stop-opacity=".2"/><stop offset="1" stop-color="#fee641" stop-opacity=".671"/></linearGradient><linearGradient id="f" x1="-2.538" x2="15.197" y1="24" y2="24" gradientUnits="userSpaceOnUse"><stop offset="0" stop-color="#ffcb00" stop-opacity=".2"/><stop offset="1" stop-color="#fee641" stop-opacity=".671"/></linearGradient><linearGradient id="g" x1="24" x2="24" y1="15.798" y2="-1.207" gradientUnits="userSpaceOnUse"><stop offset="0" stop-color="#fff" stop-opacity=".2"/><stop offset="1" stop-color="#fff471" stop-opacity=".42"/></linearGradient><linearGradient id="h" x1="40" x2="40" y1="26.599" y2="20.931" gradientUnits="userSpaceOnUse"><stop offset="0" stop-color="#fff" stop-opacity=".2"/><stop offset="1" stop-color="#fff471" stop-opacity=".42"/></linearGradient><linearGradient id="i" x1="8" x2="8" y1="26.599" y2="20.931" gradientUnits="userSpaceOnUse"><stop offset="0" stop-color="#fff" stop-opacity=".2"/><stop offset="1" stop-color="#fff471" stop-opacity=".42"/></linearGradient></defs><g fill="none" stroke-miterlimit="10" font-family="none" font-size="none" font-weight="none" style="mix-blend-mode:normal" text-anchor="none"><path fill="#ff22c1" d="M240.533 117.387c-.16-.054-.373-.054-.533-.054h-53.333c-.694 0-1.334.16-1.974.374.587 3.36.907 6.773.907 10.293 0 3.52-.32 6.933-.907 10.293.64.214 1.28.374 1.974.374H240c.16 0 .373 0 .533-.054.374-3.466.534-7.04.534-10.613 0-3.573-.16-7.147-.534-10.613zM128 14.933c-3.573 0-7.147.16-10.613.534-.054.16-.054.373-.054.533v53.333c0 .694.16 1.334.374 1.974A59.582 59.582 0 0 1 128 70.4c3.52 0 6.933.32 10.293.907.214-.64.374-1.28.374-1.974V16c0-.16 0-.373-.054-.533-3.466-.374-7.04-.534-10.613-.534zm0 170.667c-3.52 0-6.933-.32-10.293-.907-.214.64-.374 1.28-.374 1.974V240c0 .16 0 .373.054.533 3.466.374 7.04.534 10.613.534 3.573 0 7.147-.16 10.613-.534.054-.16.054-.373.054-.533v-53.333c0-.694-.16-1.334-.374-1.974-3.36.587-6.773.907-10.293.907zm-58.667-68.267H16c-.16 0-.373 0-.533.054-.374 3.466-.534 7.04-.534 10.613 0 3.573.16 7.147.534 10.613.16.054.373.054.533.054h53.333c.694 0 1.334-.16 1.974-.374A59.582 59.582 0 0 1 70.4 128c0-3.52.32-6.933.907-10.293-.64-.214-1.28-.374-1.974-.374z" opacity=".1"/><path fill="#ff22c1" d="M236.267 117.333H188.96c.587 3.467.907 7.04.907 10.667s-.32 7.2-.907 10.667h47.307c.373-3.52.533-7.04.533-10.667s-.16-7.147-.533-10.667zM117.333 188.96v47.307c3.52.373 7.04.533 10.667.533s7.147-.16 10.667-.533V188.96c-3.467.587-7.04.907-10.667.907s-7.2-.32-10.667-.907zm0-169.227V67.04A63.976 63.976 0 0 1 128 66.133c3.627 0 7.2.32 10.667.907V19.733c-3.52-.373-7.04-.533-10.667-.533s-7.147.16-10.667.533zm-97.6 97.6c-.373 3.52-.533 7.04-.533 10.667s.16 7.147.533 10.667H67.04A63.976 63.976 0 0 1 66.133 128c0-3.627.32-7.2.907-10.667z" opacity=".2"/><path fill="#ff22c1" d="M232 117.333h-38.72c.587 3.467.853 7.04.853 10.667s-.266 7.2-.853 10.667H232c.373-3.52.533-7.04.533-10.667s-.16-7.147-.533-10.667zM117.333 193.28V232c3.52.373 7.04.533 10.667.533s7.147-.16 10.667-.533v-38.72c-3.467.587-7.04.853-10.667.853s-7.2-.266-10.667-.853zm0-169.28v38.72c3.467-.587 7.04-.853 10.667-.853s7.2.266 10.667.853V24c-3.52-.373-7.04-.533-10.667-.533s-7.147.16-10.667.533zM24 117.333c-.373 3.52-.533 7.04-.533 10.667s.16 7.147.533 10.667h38.72c-.587-3.467-.853-7.04-.853-10.667s.266-7.2.853-10.667z" opacity=".3"/><path fill="#ff22c1" d="M227.68 117.333H197.6c.533 3.467.8 7.04.8 10.667s-.267 7.2-.8 10.667h30.08c.373-3.52.587-7.04.587-10.667s-.214-7.147-.587-10.667zM117.333 197.6v30.08c3.52.373 7.04.587 10.667.587s7.147-.214 10.667-.587V197.6c-3.467.533-7.04.8-10.667.8s-7.2-.267-10.667-.8zm0-169.28V58.4A70.23 70.23 0 0 1 128 57.6c3.627 0 7.2.267 10.667.8V28.32c-3.52-.373-7.04-.587-10.667-.587s-7.147.214-10.667.587zM28.32 117.333c-.373 3.52-.587 7.04-.587 10.667s.214 7.147.587 10.667H58.4A70.23 70.23 0 0 1 57.6 128c0-3.627.267-7.2.8-10.667z" opacity=".4"/><path fill="url(#a)" d="M24 6C14.059 6 6 14.059 6 24s8.059 18 18 18 18-8.059 18-18S33.941 6 24 6zm0 32c-7.732 0-14-6.268-14-14s6.268-14 14-14 14 6.268 14 14-6.268 14-14 14z" transform="scale(5.33333)"/><path fill="#ff22c1" d="M149.333 34.453v21.974c-.693-.214-1.386-.374-2.133-.587a24.93 24.93 0 0 0-2.133-.533c-.694-.16-1.44-.32-2.134-.48-.693-.16-1.44-.267-2.133-.374a72.318 72.318 0 0 0-12.8-1.12c-4.373 0-8.64.374-12.8 1.12-.693.107-1.44.214-2.133.374-.694.16-1.44.32-2.134.48-.746.16-1.44.32-2.133.533-.747.213-1.44.373-2.133.587V34.453c.693-.213 1.44-.373 2.133-.533.693-.16 1.44-.267 2.133-.373.694-.16 1.44-.267 2.134-.374.693-.106 1.386-.213 2.133-.32 4.16-.586 8.48-.853 12.8-.853s8.64.267 12.8.853c.747.107 1.44.214 2.133.32.694.107 1.44.214 2.134.374.693.106 1.44.213 2.133.373.693.16 1.44.32 2.133.533z" opacity=".05"/><path fill="#ff22c1" d="M147.2 33.92v21.92a24.93 24.93 0 0 0-2.133-.533c-.694-.16-1.44-.32-2.134-.48-.693-.16-1.44-.267-2.133-.374a72.318 72.318 0 0 0-12.8-1.12c-4.373 0-8.64.374-12.8 1.12-.693.107-1.44.214-2.133.374-.694.16-1.44.32-2.134.48-.746.16-1.44.32-2.133.533V33.92c.693-.16 1.44-.267 2.133-.373.694-.16 1.44-.267 2.134-.374.693-.106 1.386-.213 2.133-.32 4.16-.586 8.48-.853 12.8-.853s8.64.267 12.8.853c.747.107 1.44.214 2.133.32.694.107 1.44.214 2.134.374.693.106 1.44.213 2.133.373z" opacity=".1"/><path fill="#ff22c1" d="M145.067 33.547v21.76c-.694-.16-1.44-.32-2.134-.48-.693-.16-1.44-.267-2.133-.374a72.318 72.318 0 0 0-12.8-1.12c-4.373 0-8.64.374-12.8 1.12-.693.107-1.44.214-2.133.374-.694.16-1.44.32-2.134.48v-21.76c.694-.16 1.44-.267 2.134-.374.693-.106 1.386-.213 2.133-.32 4.16-.586 8.48-.853 12.8-.853s8.64.267 12.8.853c.747.107 1.44.214 2.133.32.694.107 1.44.214 2.134.374z" opacity=".2"/><path fill="#ff22c1" d="M142.933 33.173v21.654c-.693-.16-1.44-.267-2.133-.374a72.318 72.318 0 0 0-12.8-1.12c-4.373 0-8.64.374-12.8 1.12-.693.107-1.44.214-2.133.374V33.173c.693-.106 1.386-.213 2.133-.32 4.16-.586 8.48-.853 12.8-.853s8.64.267 12.8.853c.747.107 1.44.214 2.133.32z" opacity=".3"/><path fill="#ff22c1" d="M140.8 32.853v21.6a72.318 72.318 0 0 0-12.8-1.12c-4.373 0-8.64.374-12.8 1.12v-21.6c4.16-.586 8.48-.853 12.8-.853s8.64.267 12.8.853z" opacity=".4"/><path fill="#ff22c1" d="M149.333 199.573v21.974c-.693.213-1.44.373-2.133.533-.693.16-1.44.267-2.133.373-.694.16-1.44.267-2.134.374a196 196 0 0 1-2.133.32c-4.16.586-8.48.853-12.8.853s-8.64-.267-12.8-.853c-.747-.107-1.44-.214-2.133-.32-.694-.107-1.44-.214-2.134-.374-.693-.106-1.44-.213-2.133-.373-.693-.16-1.44-.32-2.133-.533v-21.974c.693.214 1.386.374 2.133.587a24.93 24.93 0 0 0 2.133.533c.694.16 1.44.32 2.134.48.693.16 1.44.267 2.133.374 4.16.746 8.427 1.12 12.8 1.12 4.373 0 8.64-.374 12.8-1.12.693-.107 1.44-.214 2.133-.374.694-.16 1.44-.32 2.134-.48.746-.16 1.44-.32 2.133-.533.747-.213 1.44-.373 2.133-.587z" opacity=".05"/><path fill="#ff22c1" d="M147.2 200.16v21.92c-.693.16-1.44.267-2.133.373-.694.16-1.44.267-2.134.374a196 196 0 0 1-2.133.32c-4.16.586-8.48.853-12.8.853s-8.64-.267-12.8-.853c-.747-.107-1.44-.214-2.133-.32-.694-.107-1.44-.214-2.134-.374-.693-.106-1.44-.213-2.133-.373v-21.92a24.93 24.93 0 0 0 2.133.533c.694.16 1.44.32 2.134.48.693.16 1.44.267 2.133.374 4.16.746 8.427 1.12 12.8 1.12 4.373 0 8.64-.374 12.8-1.12.693-.107 1.44-.214 2.133-.374.694-.16 1.44-.32 2.134-.48.746-.16 1.44-.32 2.133-.533z" opacity=".1"/><path fill="#ff22c1" d="M145.067 200.693v21.76c-.694.16-1.44.267-2.134.374a196 196 0 0 1-2.133.32c-4.16.586-8.48.853-12.8.853s-8.64-.267-12.8-.853c-.747-.107-1.44-.214-2.133-.32-.694-.107-1.44-.214-2.134-.374v-21.76c.694.16 1.44.32 2.134.48.693.16 1.44.267 2.133.374 4.16.746 8.427 1.12 12.8 1.12 4.373 0 8.64-.374 12.8-1.12.693-.107 1.44-.214 2.133-.374.694-.16 1.44-.32 2.134-.48z" opacity=".2"/><path fill="#ff22c1" d="M142.933 201.173v21.654a196 196 0 0 1-2.133.32c-4.16.586-8.48.853-12.8.853s-8.64-.267-12.8-.853c-.747-.107-1.44-.214-2.133-.32v-21.654c.693.16 1.44.267 2.133.374 4.16.746 8.427 1.12 12.8 1.12 4.373 0 8.64-.374 12.8-1.12.693-.107 1.44-.214 2.133-.374z" opacity=".3"/><path fill="#ff22c1" d="M140.8 201.547v21.6c-4.16.586-8.48.853-12.8.853s-8.64-.267-12.8-.853v-21.6c4.16.746 8.427 1.12 12.8 1.12 4.373 0 8.64-.374 12.8-1.12z" opacity=".4"/><path fill="#ff22c1" d="M224 128c0 4.32-.267 8.64-.853 12.8-.107.747-.214 1.44-.32 2.133-.107.694-.214 1.44-.374 2.134-.106.693-.213 1.44-.373 2.133-.16.693-.32 1.44-.533 2.133h-21.974c.214-.693.374-1.386.587-2.133.213-.64.373-1.387.533-2.133.16-.694.32-1.387.48-2.134.16-.693.267-1.44.374-2.133a72.318 72.318 0 0 0 1.12-12.8c0-4.373-.374-8.64-1.12-12.8-.107-.693-.214-1.44-.374-2.133-.16-.694-.32-1.44-.48-2.134a24.93 24.93 0 0 0-.533-2.133c-.213-.747-.373-1.44-.587-2.133h21.974c.213.693.373 1.44.533 2.133.16.693.267 1.44.373 2.133.16.694.267 1.44.374 2.134a196 196 0 0 1 .32 2.133c.586 4.16.853 8.48.853 12.8z" opacity=".05"/><path fill="#ff22c1" d="M224 128c0 4.32-.267 8.64-.853 12.8-.107.747-.214 1.44-.32 2.133-.107.694-.214 1.44-.374 2.134-.106.693-.213 1.44-.373 2.133h-21.92c.213-.64.373-1.387.533-2.133.16-.694.32-1.387.48-2.134.16-.693.267-1.44.374-2.133a72.318 72.318 0 0 0 1.12-12.8c0-4.373-.374-8.64-1.12-12.8-.107-.693-.214-1.44-.374-2.133-.16-.694-.32-1.44-.48-2.134a24.93 24.93 0 0 0-.533-2.133h21.92c.16.693.267 1.44.373 2.133.16.694.267 1.44.374 2.134a196 196 0 0 1 .32 2.133c.586 4.16.853 8.48.853 12.8z" opacity=".1"/><path fill="#ff22c1" d="M224 128c0 4.32-.267 8.64-.853 12.8-.107.747-.214 1.44-.32 2.133-.107.694-.214 1.44-.374 2.134h-21.76c.16-.694.32-1.387.48-2.134.16-.693.267-1.44.374-2.133a72.318 72.318 0 0 0 1.12-12.8c0-4.373-.374-8.64-1.12-12.8-.107-.693-.214-1.44-.374-2.133-.16-.694-.32-1.44-.48-2.134h21.76c.16.694.267 1.44.374 2.134a196 196 0 0 1 .32 2.133c.586 4.16.853 8.48.853 12.8z" opacity=".2"/><path fill="#ff22c1" d="M224 128c0 4.32-.267 8.64-.853 12.8-.107.747-.214 1.44-.32 2.133h-21.654c.16-.693.267-1.44.374-2.133a72.318 72.318 0 0 0 1.12-12.8c0-4.373-.374-8.64-1.12-12.8-.107-.693-.214-1.44-.374-2.133h21.654a196 196 0 0 1 .32 2.133c.586 4.16.853 8.48.853 12.8z" opacity=".3"/><path fill="#ff22c1" d="M224 128c0 4.32-.267 8.64-.853 12.8h-21.6a72.318 72.318 0 0 0 1.12-12.8c0-4.373-.374-8.64-1.12-12.8h21.6c.586 4.16.853 8.48.853 12.8z" opacity=".4"/><path fill="#ff22c1" d="M55.84 147.2c.213.747.373 1.44.587 2.133H34.453c-.213-.693-.373-1.44-.533-2.133-.16-.693-.267-1.44-.373-2.133-.16-.694-.267-1.44-.374-2.134-.106-.693-.213-1.386-.32-2.133-.586-4.16-.853-8.48-.853-12.8s.267-8.64.853-12.8c.107-.747.214-1.44.32-2.133.107-.694.214-1.44.374-2.134.106-.693.213-1.44.373-2.133.16-.693.32-1.44.533-2.133h21.974c-.214.693-.374 1.386-.587 2.133a24.93 24.93 0 0 0-.533 2.133c-.16.694-.32 1.44-.48 2.134-.16.693-.267 1.44-.374 2.133a72.318 72.318 0 0 0-1.12 12.8c0 4.373.374 8.64 1.12 12.8.107.693.214 1.44.374 2.133.16.694.32 1.44.48 2.134.16.746.32 1.44.533 2.133z" opacity=".05"/><path fill="#ff22c1" d="M55.307 145.067c.16.746.32 1.44.533 2.133H33.92c-.16-.693-.267-1.44-.373-2.133-.16-.694-.267-1.44-.374-2.134-.106-.693-.213-1.386-.32-2.133-.586-4.16-.853-8.48-.853-12.8s.267-8.64.853-12.8c.107-.747.214-1.44.32-2.133.107-.694.214-1.44.374-2.134.106-.693.213-1.44.373-2.133h21.92a24.93 24.93 0 0 0-.533 2.133c-.16.694-.32 1.44-.48 2.134-.16.693-.267 1.44-.374 2.133a72.318 72.318 0 0 0-1.12 12.8c0 4.373.374 8.64 1.12 12.8.107.693.214 1.44.374 2.133.16.694.32 1.44.48 2.134z" opacity=".1"/><path fill="#ff22c1" d="M54.827 142.933c.16.694.32 1.44.48 2.134h-21.76c-.16-.694-.267-1.44-.374-2.134-.106-.693-.213-1.386-.32-2.133-.586-4.16-.853-8.48-.853-12.8s.267-8.64.853-12.8c.107-.747.214-1.44.32-2.133.107-.694.214-1.44.374-2.134h21.76c-.16.694-.32 1.44-.48 2.134-.16.693-.267 1.44-.374 2.133a72.318 72.318 0 0 0-1.12 12.8c0 4.373.374 8.64 1.12 12.8.107.693.214 1.44.374 2.133z" opacity=".2"/><path fill="#ff22c1" d="M54.453 140.8c.107.693.214 1.44.374 2.133H33.173c-.106-.693-.213-1.386-.32-2.133-.586-4.16-.853-8.48-.853-12.8s.267-8.64.853-12.8c.107-.747.214-1.44.32-2.133h21.654c-.16.693-.267 1.44-.374 2.133a72.318 72.318 0 0 0-1.12 12.8c0 4.373.374 8.64 1.12 12.8z" opacity=".3"/><path fill="#ff22c1" d="M53.333 128c0 4.373.374 8.64 1.12 12.8h-21.6c-.586-4.16-.853-8.48-.853-12.8s.267-8.64.853-12.8h21.6a72.318 72.318 0 0 0-1.12 12.8z" opacity=".4"/><path fill="url(#b)" d="M23 14h2a1 1 0 0 0 1-1V3a1 1 0 0 0-1-1h-2a1 1 0 0 0-1 1v10a1 1 0 0 0 1 1z" transform="scale(5.33333)"/><path fill="url(#c)" d="M23 46h2a1 1 0 0 0 1-1V35a1 1 0 0 0-1-1h-2a1 1 0 0 0-1 1v10a1 1 0 0 0 1 1z" transform="scale(5.33333)"/><path fill="url(#d)" d="M25 34.5a.5.5 0 0 1 .5.5v10a.5.5 0 0 1-.5.5h-2a.5.5 0 0 1-.5-.5V35a.5.5 0 0 1 .5-.5h2m0-.5h-2a1 1 0 0 0-1 1v10a1 1 0 0 0 1 1h2a1 1 0 0 0 1-1V35a1 1 0 0 0-1-1z" transform="scale(5.33333)"/><path fill="url(#e)" d="M34 23v2a1 1 0 0 0 1 1h10a1 1 0 0 0 1-1v-2a1 1 0 0 0-1-1H35a1 1 0 0 0-1 1z" transform="scale(5.33333)"/><path fill="url(#f)" d="M2 23v2a1 1 0 0 0 1 1h10a1 1 0 0 0 1-1v-2a1 1 0 0 0-1-1H3a1 1 0 0 0-1 1z" transform="scale(5.33333)"/><path fill="url(#g)" d="M25 2.5a.5.5 0 0 1 .5.5v10a.5.5 0 0 1-.5.5h-2a.5.5 0 0 1-.5-.5V3a.5.5 0 0 1 .5-.5h2m0-.5h-2a1 1 0 0 0-1 1v10a1 1 0 0 0 1 1h2a1 1 0 0 0 1-1V3a1 1 0 0 0-1-1z" transform="scale(5.33333)"/><path fill="url(#h)" d="M45 22.5a.5.5 0 0 1 .5.5v2a.5.5 0 0 1-.5.5H35a.5.5 0 0 1-.5-.5v-2a.5.5 0 0 1 .5-.5h10m0-.5H35a1 1 0 0 0-1 1v2a1 1 0 0 0 1 1h10a1 1 0 0 0 1-1v-2a1 1 0 0 0-1-1z" transform="scale(5.33333)"/><path fill="url(#i)" d="M13 22.5a.5.5 0 0 1 .5.5v2a.5.5 0 0 1-.5.5H3a.5.5 0 0 1-.5-.5v-2a.5.5 0 0 1 .5-.5h10m0-.5H3a1 1 0 0 0-1 1v2a1 1 0 0 0 1 1h10a1 1 0 0 0 1-1v-2a1 1 0 0 0-1-1z" transform="scale(5.33333)"/></g></svg>