<svg xmlns="http://www.w3.org/2000/svg" xmlns:xlink="http://www.w3.org/1999/xlink" viewBox="0,0,256,256" width="100px" height="100px" fill-rule="nonzero"><defs><linearGradient x1="24" y1="52.28" x2="24" y2="-9.202" gradientUnits="userSpaceOnUse" id="color-1"><stop offset="0" stop-color="#ff15ba"></stop><stop offset="0.137" stop-color="#ff24b3"></stop><stop offset="0.535" stop-color="#ff49ba"></stop><stop offset="0.835" stop-color="#ff3cae"></stop><stop offset="1" stop-color="#ff4bb0"></stop></linearGradient><linearGradient x1="24" y1="18.538" x2="24" y2="0.803" gradientUnits="userSpaceOnUse" id="color-2"><stop offset="0" stop-color="#ffcb00" stop-opacity="0.2"></stop><stop offset="1" stop-color="#fee641" stop-opacity="0.67059"></stop></linearGradient><linearGradient x1="24" y1="50.538" x2="24" y2="32.803" gradientUnits="userSpaceOnUse" id="color-3"><stop offset="0" stop-color="#ffcb00" stop-opacity="0.2"></stop><stop offset="1" stop-color="#fee641" stop-opacity="0.67059"></stop></linearGradient><linearGradient x1="24" y1="47.798" x2="24" y2="30.793" gradientUnits="userSpaceOnUse" id="color-4"><stop offset="0" stop-color="#ffffff" stop-opacity="0.2"></stop><stop offset="1" stop-color="#fff471" stop-opacity="0.41961"></stop></linearGradient><linearGradient x1="29.462" y1="24" x2="47.197" y2="24" gradientUnits="userSpaceOnUse" id="color-5"><stop offset="0" stop-color="#ffcb00" stop-opacity="0.2"></stop><stop offset="1" stop-color="#fee641" stop-opacity="0.67059"></stop></linearGradient><linearGradient x1="-2.538" y1="24" x2="15.197" y2="24" gradientUnits="userSpaceOnUse" id="color-6"><stop offset="0" stop-color="#ffcb00" stop-opacity="0.2"></stop><stop offset="1" stop-color="#fee641" stop-opacity="0.67059"></stop></linearGradient><linearGradient x1="24" y1="15.798" x2="24" y2="-1.207" gradientUnits="userSpaceOnUse" id="color-7"><stop offset="0" stop-color="#ffffff" stop-opacity="0.2"></stop><stop offset="1" stop-color="#fff471" stop-opacity="0.41961"></stop></linearGradient><linearGradient x1="40" y1="26.599" x2="40" y2="20.931" gradientUnits="userSpaceOnUse" id="color-8"><stop offset="0" stop-color="#ffffff" stop-opacity="0.2"></stop><stop offset="1" stop-color="#fff471" stop-opacity="0.41961"></stop></linearGradient><linearGradient x1="8" y1="26.599" x2="8" y2="20.931" gradientUnits="userSpaceOnUse" id="color-9"><stop offset="0" stop-color="#ffffff" stop-opacity="0.2"></stop><stop offset="1" stop-color="#fff471" stop-opacity="0.41961"></stop></linearGradient></defs><g fill="none" fill-rule="nonzero" stroke="none" stroke-width="1" stroke-linecap="butt" stroke-linejoin="miter" stroke-miterlimit="10" stroke-dasharray="" stroke-dashoffset="0" font-family="none" font-weight="none" font-size="none" text-anchor="none" style="mix-blend-mode: normal"><g transform="scale(5.33333,5.33333)"><path d="M45.1,22.01c-0.03,-0.01 -0.07,-0.01 -0.1,-0.01h-10c-0.13,0 -0.25,0.03 -0.37,0.07c0.11,0.63 0.17,1.27 0.17,1.93c0,0.66 -0.06,1.3 -0.17,1.93c0.12,0.04 0.24,0.07 0.37,0.07h10c0.03,0 0.07,0 0.1,-0.01c0.07,-0.65 0.1,-1.32 0.1,-1.99c0,-0.67 -0.03,-1.34 -0.1,-1.99zM24,2.8c-0.67,0 -1.34,0.03 -1.99,0.1c-0.01,0.03 -0.01,0.07 -0.01,0.1v10c0,0.13 0.03,0.25 0.07,0.37c0.63,-0.11 1.27,-0.17 1.93,-0.17c0.66,0 1.3,0.06 1.93,0.17c0.04,-0.12 0.07,-0.24 0.07,-0.37v-10c0,-0.03 0,-0.07 -0.01,-0.1c-0.65,-0.07 -1.32,-0.1 -1.99,-0.1zM24,34.8c-0.66,0 -1.3,-0.06 -1.93,-0.17c-0.04,0.12 -0.07,0.24 -0.07,0.37v10c0,0.03 0,0.07 0.01,0.1c0.65,0.07 1.32,0.1 1.99,0.1c0.67,0 1.34,-0.03 1.99,-0.1c0.01,-0.03 0.01,-0.07 0.01,-0.1v-10c0,-0.13 -0.03,-0.25 -0.07,-0.37c-0.63,0.11 -1.27,0.17 -1.93,0.17zM13,22h-10c-0.03,0 -0.07,0 -0.1,0.01c-0.07,0.65 -0.1,1.32 -0.1,1.99c0,0.67 0.03,1.34 0.1,1.99c0.03,0.01 0.07,0.01 0.1,0.01h10c0.13,0 0.25,-0.03 0.37,-0.07c-0.11,-0.63 -0.17,-1.27 -0.17,-1.93c0,-0.66 0.06,-1.3 0.17,-1.93c-0.12,-0.04 -0.24,-0.07 -0.37,-0.07z" fill="#ff22c1" opacity="0.1"></path><path d="M44.3,22h-8.87c0.11,0.65 0.17,1.32 0.17,2c0,0.68 -0.06,1.35 -0.17,2h8.87c0.07,-0.66 0.1,-1.32 0.1,-2c0,-0.68 -0.03,-1.34 -0.1,-2zM22,35.43v8.87c0.66,0.07 1.32,0.1 2,0.1c0.68,0 1.34,-0.03 2,-0.1v-8.87c-0.65,0.11 -1.32,0.17 -2,0.17c-0.68,0 -1.35,-0.06 -2,-0.17zM22,3.7v8.87c0.65,-0.11 1.32,-0.17 2,-0.17c0.68,0 1.35,0.06 2,0.17v-8.87c-0.66,-0.07 -1.32,-0.1 -2,-0.1c-0.68,0 -1.34,0.03 -2,0.1zM3.7,22c-0.07,0.66 -0.1,1.32 -0.1,2c0,0.68 0.03,1.34 0.1,2h8.87c-0.11,-0.65 -0.17,-1.32 -0.17,-2c0,-0.68 0.06,-1.35 0.17,-2z" fill="#ff22c1" opacity="0.2"></path><path d="M43.5,22h-7.26c0.11,0.65 0.16,1.32 0.16,2c0,0.68 -0.05,1.35 -0.16,2h7.26c0.07,-0.66 0.1,-1.32 0.1,-2c0,-0.68 -0.03,-1.34 -0.1,-2zM22,36.24v7.26c0.66,0.07 1.32,0.1 2,0.1c0.68,0 1.34,-0.03 2,-0.1v-7.26c-0.65,0.11 -1.32,0.16 -2,0.16c-0.68,0 -1.35,-0.05 -2,-0.16zM22,4.5v7.26c0.65,-0.11 1.32,-0.16 2,-0.16c0.68,0 1.35,0.05 2,0.16v-7.26c-0.66,-0.07 -1.32,-0.1 -2,-0.1c-0.68,0 -1.34,0.03 -2,0.1zM4.5,22c-0.07,0.66 -0.1,1.32 -0.1,2c0,0.68 0.03,1.34 0.1,2h7.26c-0.11,-0.65 -0.16,-1.32 -0.16,-2c0,-0.68 0.05,-1.35 0.16,-2z" fill="#ff22c1" opacity="0.3"></path><path d="M42.69,22h-5.64c0.1,0.65 0.15,1.32 0.15,2c0,0.68 -0.05,1.35 -0.15,2h5.64c0.07,-0.66 0.11,-1.32 0.11,-2c0,-0.68 -0.04,-1.34 -0.11,-2zM22,37.05v5.64c0.66,0.07 1.32,0.11 2,0.11c0.68,0 1.34,-0.04 2,-0.11v-5.64c-0.65,0.1 -1.32,0.15 -2,0.15c-0.68,0 -1.35,-0.05 -2,-0.15zM22,5.31v5.64c0.65,-0.1 1.32,-0.15 2,-0.15c0.68,0 1.35,0.05 2,0.15v-5.64c-0.66,-0.07 -1.32,-0.11 -2,-0.11c-0.68,0 -1.34,0.04 -2,0.11zM5.31,22c-0.07,0.66 -0.11,1.32 -0.11,2c0,0.68 0.04,1.34 0.11,2h5.64c-0.1,-0.65 -0.15,-1.32 -0.15,-2c0,-0.68 0.05,-1.35 0.15,-2z" fill="#ff22c1" opacity="0.4"></path><path d="M24,6c-9.941,0 -18,8.059 -18,18c0,9.941 8.059,18 18,18c9.941,0 18,-8.059 18,-18c0,-9.941 -8.059,-18 -18,-18zM24,38c-7.732,0 -14,-6.268 -14,-14c0,-7.732 6.268,-14 14,-14c7.732,0 14,6.268 14,14c0,7.732 -6.268,14 -14,14z" fill="url(#color-1)"></path><path d="M28,6.46v4.12c-0.13,-0.04 -0.26,-0.07 -0.4,-0.11c-0.13,-0.04 -0.26,-0.07 -0.4,-0.1c-0.13,-0.03 -0.27,-0.06 -0.4,-0.09c-0.13,-0.03 -0.27,-0.05 -0.4,-0.07c-0.78,-0.14 -1.58,-0.21 -2.4,-0.21c-0.82,0 -1.62,0.07 -2.4,0.21c-0.13,0.02 -0.27,0.04 -0.4,0.07c-0.13,0.03 -0.27,0.06 -0.4,0.09c-0.14,0.03 -0.27,0.06 -0.4,0.1c-0.14,0.04 -0.27,0.07 -0.4,0.11v-4.12c0.13,-0.04 0.27,-0.07 0.4,-0.1c0.13,-0.03 0.27,-0.05 0.4,-0.07c0.13,-0.03 0.27,-0.05 0.4,-0.07c0.13,-0.02 0.26,-0.04 0.4,-0.06c0.78,-0.11 1.59,-0.16 2.4,-0.16c0.81,0 1.62,0.05 2.4,0.16c0.14,0.02 0.27,0.04 0.4,0.06c0.13,0.02 0.27,0.04 0.4,0.07c0.13,0.02 0.27,0.04 0.4,0.07c0.13,0.03 0.27,0.06 0.4,0.1z" fill="#ff22c1" opacity="0.05"></path><path d="M27.6,6.36v4.11c-0.13,-0.04 -0.26,-0.07 -0.4,-0.1c-0.13,-0.03 -0.27,-0.06 -0.4,-0.09c-0.13,-0.03 -0.27,-0.05 -0.4,-0.07c-0.78,-0.14 -1.58,-0.21 -2.4,-0.21c-0.82,0 -1.62,0.07 -2.4,0.21c-0.13,0.02 -0.27,0.04 -0.4,0.07c-0.13,0.03 -0.27,0.06 -0.4,0.09c-0.14,0.03 -0.27,0.06 -0.4,0.1v-4.11c0.13,-0.03 0.27,-0.05 0.4,-0.07c0.13,-0.03 0.27,-0.05 0.4,-0.07c0.13,-0.02 0.26,-0.04 0.4,-0.06c0.78,-0.11 1.59,-0.16 2.4,-0.16c0.81,0 1.62,0.05 2.4,0.16c0.14,0.02 0.27,0.04 0.4,0.06c0.13,0.02 0.27,0.04 0.4,0.07c0.13,0.02 0.27,0.04 0.4,0.07z" fill="#ff22c1" opacity="0.1"></path><path d="M27.2,6.29v4.08c-0.13,-0.03 -0.27,-0.06 -0.4,-0.09c-0.13,-0.03 -0.27,-0.05 -0.4,-0.07c-0.78,-0.14 -1.58,-0.21 -2.4,-0.21c-0.82,0 -1.62,0.07 -2.4,0.21c-0.13,0.02 -0.27,0.04 -0.4,0.07c-0.13,0.03 -0.27,0.06 -0.4,0.09v-4.08c0.13,-0.03 0.27,-0.05 0.4,-0.07c0.13,-0.02 0.26,-0.04 0.4,-0.06c0.78,-0.11 1.59,-0.16 2.4,-0.16c0.81,0 1.62,0.05 2.4,0.16c0.14,0.02 0.27,0.04 0.4,0.06c0.13,0.02 0.27,0.04 0.4,0.07z" fill="#ff22c1" opacity="0.2"></path><path d="M26.8,6.22v4.06c-0.13,-0.03 -0.27,-0.05 -0.4,-0.07c-0.78,-0.14 -1.58,-0.21 -2.4,-0.21c-0.82,0 -1.62,0.07 -2.4,0.21c-0.13,0.02 -0.27,0.04 -0.4,0.07v-4.06c0.13,-0.02 0.26,-0.04 0.4,-0.06c0.78,-0.11 1.59,-0.16 2.4,-0.16c0.81,0 1.62,0.05 2.4,0.16c0.14,0.02 0.27,0.04 0.4,0.06z" fill="#ff22c1" opacity="0.3"></path><path d="M26.4,6.16v4.05c-0.78,-0.14 -1.58,-0.21 -2.4,-0.21c-0.82,0 -1.62,0.07 -2.4,0.21v-4.05c0.78,-0.11 1.59,-0.16 2.4,-0.16c0.81,0 1.62,0.05 2.4,0.16z" fill="#ff22c1" opacity="0.4"></path><path d="M28,37.42v4.12c-0.13,0.04 -0.27,0.07 -0.4,0.1c-0.13,0.03 -0.27,0.05 -0.4,0.07c-0.13,0.03 -0.27,0.05 -0.4,0.07c-0.13,0.02 -0.26,0.04 -0.4,0.06c-0.78,0.11 -1.59,0.16 -2.4,0.16c-0.81,0 -1.62,-0.05 -2.4,-0.16c-0.14,-0.02 -0.27,-0.04 -0.4,-0.06c-0.13,-0.02 -0.27,-0.04 -0.4,-0.07c-0.13,-0.02 -0.27,-0.04 -0.4,-0.07c-0.13,-0.03 -0.27,-0.06 -0.4,-0.1v-4.12c0.13,0.04 0.26,0.07 0.4,0.11c0.13,0.04 0.26,0.07 0.4,0.1c0.13,0.03 0.27,0.06 0.4,0.09c0.13,0.03 0.27,0.05 0.4,0.07c0.78,0.14 1.58,0.21 2.4,0.21c0.82,0 1.62,-0.07 2.4,-0.21c0.13,-0.02 0.27,-0.04 0.4,-0.07c0.13,-0.03 0.27,-0.06 0.4,-0.09c0.14,-0.03 0.27,-0.06 0.4,-0.1c0.14,-0.04 0.27,-0.07 0.4,-0.11z" fill="#ff22c1" opacity="0.05"></path><path d="M27.6,37.53v4.11c-0.13,0.03 -0.27,0.05 -0.4,0.07c-0.13,0.03 -0.27,0.05 -0.4,0.07c-0.13,0.02 -0.26,0.04 -0.4,0.06c-0.78,0.11 -1.59,0.16 -2.4,0.16c-0.81,0 -1.62,-0.05 -2.4,-0.16c-0.14,-0.02 -0.27,-0.04 -0.4,-0.06c-0.13,-0.02 -0.27,-0.04 -0.4,-0.07c-0.13,-0.02 -0.27,-0.04 -0.4,-0.07v-4.11c0.13,0.04 0.26,0.07 0.4,0.1c0.13,0.03 0.27,0.06 0.4,0.09c0.13,0.03 0.27,0.05 0.4,0.07c0.78,0.14 1.58,0.21 2.4,0.21c0.82,0 1.62,-0.07 2.4,-0.21c0.13,-0.02 0.27,-0.04 0.4,-0.07c0.13,-0.03 0.27,-0.06 0.4,-0.09c0.14,-0.03 0.27,-0.06 0.4,-0.1z" fill="#ff22c1" opacity="0.1"></path><path d="M27.2,37.63v4.08c-0.13,0.03 -0.27,0.05 -0.4,0.07c-0.13,0.02 -0.26,0.04 -0.4,0.06c-0.78,0.11 -1.59,0.16 -2.4,0.16c-0.81,0 -1.62,-0.05 -2.4,-0.16c-0.14,-0.02 -0.27,-0.04 -0.4,-0.06c-0.13,-0.02 -0.27,-0.04 -0.4,-0.07v-4.08c0.13,0.03 0.27,0.06 0.4,0.09c0.13,0.03 0.27,0.05 0.4,0.07c0.78,0.14 1.58,0.21 2.4,0.21c0.82,0 1.62,-0.07 2.4,-0.21c0.13,-0.02 0.27,-0.04 0.4,-0.07c0.13,-0.03 0.27,-0.06 0.4,-0.09z" fill="#ff22c1" opacity="0.2"></path><path d="M26.8,37.72v4.06c-0.13,0.02 -0.26,0.04 -0.4,0.06c-0.78,0.11 -1.59,0.16 -2.4,0.16c-0.81,0 -1.62,-0.05 -2.4,-0.16c-0.14,-0.02 -0.27,-0.04 -0.4,-0.06v-4.06c0.13,0.03 0.27,0.05 0.4,0.07c0.78,0.14 1.58,0.21 2.4,0.21c0.82,0 1.62,-0.07 2.4,-0.21c0.13,-0.02 0.27,-0.04 0.4,-0.07z" fill="#ff22c1" opacity="0.3"></path><path d="M26.4,37.79v4.05c-0.78,0.11 -1.59,0.16 -2.4,0.16c-0.81,0 -1.62,-0.05 -2.4,-0.16v-4.05c0.78,0.14 1.58,0.21 2.4,0.21c0.82,0 1.62,-0.07 2.4,-0.21z" fill="#ff22c1" opacity="0.4"></path><path d="M42,24c0,0.81 -0.05,1.62 -0.16,2.4c-0.02,0.14 -0.04,0.27 -0.06,0.4c-0.02,0.13 -0.04,0.27 -0.07,0.4c-0.02,0.13 -0.04,0.27 -0.07,0.4c-0.03,0.13 -0.06,0.27 -0.1,0.4h-4.12c0.04,-0.13 0.07,-0.26 0.11,-0.4c0.04,-0.12 0.07,-0.26 0.1,-0.4c0.03,-0.13 0.06,-0.26 0.09,-0.4c0.03,-0.13 0.05,-0.27 0.07,-0.4c0.14,-0.78 0.21,-1.58 0.21,-2.4c0,-0.82 -0.07,-1.62 -0.21,-2.4c-0.02,-0.13 -0.04,-0.27 -0.07,-0.4c-0.03,-0.13 -0.06,-0.27 -0.09,-0.4c-0.03,-0.14 -0.06,-0.27 -0.1,-0.4c-0.04,-0.14 -0.07,-0.27 -0.11,-0.4h4.12c0.04,0.13 0.07,0.27 0.1,0.4c0.03,0.13 0.05,0.27 0.07,0.4c0.03,0.13 0.05,0.27 0.07,0.4c0.02,0.13 0.04,0.26 0.06,0.4c0.11,0.78 0.16,1.59 0.16,2.4z" fill="#ff22c1" opacity="0.05"></path><path d="M42,24c0,0.81 -0.05,1.62 -0.16,2.4c-0.02,0.14 -0.04,0.27 -0.06,0.4c-0.02,0.13 -0.04,0.27 -0.07,0.4c-0.02,0.13 -0.04,0.27 -0.07,0.4h-4.11c0.04,-0.12 0.07,-0.26 0.1,-0.4c0.03,-0.13 0.06,-0.26 0.09,-0.4c0.03,-0.13 0.05,-0.27 0.07,-0.4c0.14,-0.78 0.21,-1.58 0.21,-2.4c0,-0.82 -0.07,-1.62 -0.21,-2.4c-0.02,-0.13 -0.04,-0.27 -0.07,-0.4c-0.03,-0.13 -0.06,-0.27 -0.09,-0.4c-0.03,-0.14 -0.06,-0.27 -0.1,-0.4h4.11c0.03,0.13 0.05,0.27 0.07,0.4c0.03,0.13 0.05,0.27 0.07,0.4c0.02,0.13 0.04,0.26 0.06,0.4c0.11,0.78 0.16,1.59 0.16,2.4z" fill="#ff22c1" opacity="0.1"></path><path d="M42,24c0,0.81 -0.05,1.62 -0.16,2.4c-0.02,0.14 -0.04,0.27 -0.06,0.4c-0.02,0.13 -0.04,0.27 -0.07,0.4h-4.08c0.03,-0.13 0.06,-0.26 0.09,-0.4c0.03,-0.13 0.05,-0.27 0.07,-0.4c0.14,-0.78 0.21,-1.58 0.21,-2.4c0,-0.82 -0.07,-1.62 -0.21,-2.4c-0.02,-0.13 -0.04,-0.27 -0.07,-0.4c-0.03,-0.13 -0.06,-0.27 -0.09,-0.4h4.08c0.03,0.13 0.05,0.27 0.07,0.4c0.02,0.13 0.04,0.26 0.06,0.4c0.11,0.78 0.16,1.59 0.16,2.4z" fill="#ff22c1" opacity="0.2"></path><path d="M42,24c0,0.81 -0.05,1.62 -0.16,2.4c-0.02,0.14 -0.04,0.27 -0.06,0.4h-4.06c0.03,-0.13 0.05,-0.27 0.07,-0.4c0.14,-0.78 0.21,-1.58 0.21,-2.4c0,-0.82 -0.07,-1.62 -0.21,-2.4c-0.02,-0.13 -0.04,-0.27 -0.07,-0.4h4.06c0.02,0.13 0.04,0.26 0.06,0.4c0.11,0.78 0.16,1.59 0.16,2.4z" fill="#ff22c1" opacity="0.3"></path><path d="M42,24c0,0.81 -0.05,1.62 -0.16,2.4h-4.05c0.14,-0.78 0.21,-1.58 0.21,-2.4c0,-0.82 -0.07,-1.62 -0.21,-2.4h4.05c0.11,0.78 0.16,1.59 0.16,2.4z" fill="#ff22c1" opacity="0.4"></path><path d="M10.47,27.6c0.04,0.14 0.07,0.27 0.11,0.4h-4.12c-0.04,-0.13 -0.07,-0.27 -0.1,-0.4c-0.03,-0.13 -0.05,-0.27 -0.07,-0.4c-0.03,-0.13 -0.05,-0.27 -0.07,-0.4c-0.02,-0.13 -0.04,-0.26 -0.06,-0.4c-0.11,-0.78 -0.16,-1.59 -0.16,-2.4c0,-0.81 0.05,-1.62 0.16,-2.4c0.02,-0.14 0.04,-0.27 0.06,-0.4c0.02,-0.13 0.04,-0.27 0.07,-0.4c0.02,-0.13 0.04,-0.27 0.07,-0.4c0.03,-0.13 0.06,-0.27 0.1,-0.4h4.12c-0.04,0.13 -0.07,0.26 -0.11,0.4c-0.04,0.13 -0.07,0.26 -0.1,0.4c-0.03,0.13 -0.06,0.27 -0.09,0.4c-0.03,0.13 -0.05,0.27 -0.07,0.4c-0.14,0.78 -0.21,1.58 -0.21,2.4c0,0.82 0.07,1.62 0.21,2.4c0.02,0.13 0.04,0.27 0.07,0.4c0.03,0.13 0.06,0.27 0.09,0.4c0.03,0.14 0.06,0.27 0.1,0.4z" fill="#ff22c1" opacity="0.05"></path><path d="M10.37,27.2c0.03,0.14 0.06,0.27 0.1,0.4h-4.11c-0.03,-0.13 -0.05,-0.27 -0.07,-0.4c-0.03,-0.13 -0.05,-0.27 -0.07,-0.4c-0.02,-0.13 -0.04,-0.26 -0.06,-0.4c-0.11,-0.78 -0.16,-1.59 -0.16,-2.4c0,-0.81 0.05,-1.62 0.16,-2.4c0.02,-0.14 0.04,-0.27 0.06,-0.4c0.02,-0.13 0.04,-0.27 0.07,-0.4c0.02,-0.13 0.04,-0.27 0.07,-0.4h4.11c-0.04,0.13 -0.07,0.26 -0.1,0.4c-0.03,0.13 -0.06,0.27 -0.09,0.4c-0.03,0.13 -0.05,0.27 -0.07,0.4c-0.14,0.78 -0.21,1.58 -0.21,2.4c0,0.82 0.07,1.62 0.21,2.4c0.02,0.13 0.04,0.27 0.07,0.4c0.03,0.13 0.06,0.27 0.09,0.4z" fill="#ff22c1" opacity="0.1"></path><path d="M10.28,26.8c0.03,0.13 0.06,0.27 0.09,0.4h-4.08c-0.03,-0.13 -0.05,-0.27 -0.07,-0.4c-0.02,-0.13 -0.04,-0.26 -0.06,-0.4c-0.11,-0.78 -0.16,-1.59 -0.16,-2.4c0,-0.81 0.05,-1.62 0.16,-2.4c0.02,-0.14 0.04,-0.27 0.06,-0.4c0.02,-0.13 0.04,-0.27 0.07,-0.4h4.08c-0.03,0.13 -0.06,0.27 -0.09,0.4c-0.03,0.13 -0.05,0.27 -0.07,0.4c-0.14,0.78 -0.21,1.58 -0.21,2.4c0,0.82 0.07,1.62 0.21,2.4c0.02,0.13 0.04,0.27 0.07,0.4z" fill="#ff22c1" opacity="0.2"></path><path d="M10.21,26.4c0.02,0.13 0.04,0.27 0.07,0.4h-4.06c-0.02,-0.13 -0.04,-0.26 -0.06,-0.4c-0.11,-0.78 -0.16,-1.59 -0.16,-2.4c0,-0.81 0.05,-1.62 0.16,-2.4c0.02,-0.14 0.04,-0.27 0.06,-0.4h4.06c-0.03,0.13 -0.05,0.27 -0.07,0.4c-0.14,0.78 -0.21,1.58 -0.21,2.4c0,0.82 0.07,1.62 0.21,2.4z" fill="#ff22c1" opacity="0.3"></path><path d="M10,24c0,0.82 0.07,1.62 0.21,2.4h-4.05c-0.11,-0.78 -0.16,-1.59 -0.16,-2.4c0,-0.81 0.05,-1.62 0.16,-2.4h4.05c-0.14,0.78 -0.21,1.58 -0.21,2.4z" fill="#ff22c1" opacity="0.4"></path><path d="M23,14h2c0.552,0 1,-0.448 1,-1v-10c0,-0.552 -0.448,-1 -1,-1h-2c-0.552,0 -1,0.448 -1,1v10c0,0.552 0.448,1 1,1z" fill="url(#color-2)"></path><path d="M23,46h2c0.552,0 1,-0.448 1,-1v-10c0,-0.552 -0.448,-1 -1,-1h-2c-0.552,0 -1,0.448 -1,1v10c0,0.552 0.448,1 1,1z" fill="url(#color-3)"></path><path d="M25,34.5c0.276,0 0.5,0.224 0.5,0.5v10c0,0.276 -0.224,0.5 -0.5,0.5h-2c-0.276,0 -0.5,-0.224 -0.5,-0.5v-10c0,-0.276 0.224,-0.5 0.5,-0.5h2M25,34h-2c-0.552,0 -1,0.448 -1,1v10c0,0.552 0.448,1 1,1h2c0.552,0 1,-0.448 1,-1v-10c0,-0.552 -0.448,-1 -1,-1z" fill="url(#color-4)"></path><path d="M34,23v2c0,0.552 0.448,1 1,1h10c0.552,0 1,-0.448 1,-1v-2c0,-0.552 -0.448,-1 -1,-1h-10c-0.552,0 -1,0.448 -1,1z" fill="url(#color-5)"></path><path d="M2,23v2c0,0.552 0.448,1 1,1h10c0.552,0 1,-0.448 1,-1v-2c0,-0.552 -0.448,-1 -1,-1h-10c-0.552,0 -1,0.448 -1,1z" fill="url(#color-6)"></path><path d="M25,2.5c0.276,0 0.5,0.224 0.5,0.5v10c0,0.276 -0.224,0.5 -0.5,0.5h-2c-0.276,0 -0.5,-0.224 -0.5,-0.5v-10c0,-0.276 0.224,-0.5 0.5,-0.5h2M25,2h-2c-0.552,0 -1,0.448 -1,1v10c0,0.552 0.448,1 1,1h2c0.552,0 1,-0.448 1,-1v-10c0,-0.552 -0.448,-1 -1,-1z" fill="url(#color-7)"></path><path d="M45,22.5c0.276,0 0.5,0.224 0.5,0.5v2c0,0.276 -0.224,0.5 -0.5,0.5h-10c-0.276,0 -0.5,-0.224 -0.5,-0.5v-2c0,-0.276 0.224,-0.5 0.5,-0.5h10M45,22h-10c-0.552,0 -1,0.448 -1,1v2c0,0.552 0.448,1 1,1h10c0.552,0 1,-0.448 1,-1v-2c0,-0.552 -0.448,-1 -1,-1z" fill="url(#color-8)"></path><path d="M13,22.5c0.276,0 0.5,0.224 0.5,0.5v2c0,0.276 -0.224,0.5 -0.5,0.5h-10c-0.276,0 -0.5,-0.224 -0.5,-0.5v-2c0,-0.276 0.224,-0.5 0.5,-0.5h10M13,22h-10c-0.552,0 -1,0.448 -1,1v2c0,0.552 0.448,1 1,1h10c0.552,0 1,-0.448 1,-1v-2c0,-0.552 -0.448,-1 -1,-1z" fill="url(#color-9)"></path></g></g></svg>