<svg xmlns="http://www.w3.org/2000/svg" xmlns:vectornator="http://vectornator.io" xmlns:xlink="http://www.w3.org/1999/xlink" width="100%" height="100%" stroke-miterlimit="10" version="1.1" viewBox="0 0 100 100" xml:space="preserve" style="fill-rule:nonzero;clip-rule:evenodd;stroke-linecap:round;stroke-linejoin:round"><defs><linearGradient id="LinearGradient" x1="0" x2="1" y1="0" y2="0" gradientTransform="matrix(29.4468 0 0 30.0384 35.3566 27.5919)" gradientUnits="userSpaceOnUse"><stop offset="0" stop-color="#e91e63"/><stop offset="1" stop-color="#ff01aa"/></linearGradient></defs><g id="Layer"><g opacity="1"><g opacity="1"><path fill="#000" fill-rule="nonzero" stroke="none" d="M53.3153 21.4672L66.0925 21.4654L50.0001 5.46681L33.9076 21.4654L46.5411 21.5219L46.5411 36.9681L33.9075 36.9116L50 52.7883L66.0924 36.9116L53.3153 36.9133L53.3153 21.4672Z" opacity=".05"/><path fill="#000" fill-rule="nonzero" stroke="none" d="M53.1721 21.1281L65.7908 21.158L50.0001 5.56387L34.2093 21.158L46.7034 21.2247L46.7034 36.5158L34.2092 36.4491L50 52.0434L65.7907 36.4491L53.1721 36.4192L53.1721 21.1281Z" opacity=".1"/><path fill="#000" fill-rule="nonzero" stroke="none" d="M53.0365 20.8615L65.4891 20.8234L50.0001 5.45091L34.5111 20.8234L46.9283 20.8227L46.9283 35.8966L34.5109 35.8974L50 51.27L65.4889 35.8974L53.0365 35.9354L53.0365 20.8615Z" opacity=".15"/><path fill="#000" fill-rule="nonzero" stroke="none" d="M52.8922 20.5442L65.137 20.5402L50.0001 5.37605L34.8631 20.5402L47.1218 20.583L47.1218 35.4526L34.863 35.4099L50 50.5742L65.1369 35.4099L52.8922 35.4138L52.8922 20.5442Z" opacity=".2"/></g><path fill="url(#LinearGradient)" fill-rule="nonzero" stroke="none" d="M47.3086 20.2283L35.08 20.2283L50.08 5.20916L65.08 20.2283L52.8514 20.2283L52.8514 34.9557L65.08 34.9557L50.08 49.975L35.08 34.9557L47.3086 34.9557L47.3086 20.2283Z" opacity="1"/></g></g></svg>