<svg width="100%" height="100%" viewBox="0 0 100 100" xmlns="http://www.w3.org/2000/svg" xmlns:xlink="http://www.w3.org/1999/xlink" xml:space="preserve"><defs><linearGradient id="a" x1="0" x2="1" y1="0" y2="0" gradientTransform="scale(59.7453) rotate(45.548 -.856 1.986)" gradientUnits="userSpaceOnUse"><stop offset="0" stop-color="#fe00a5" stop-opacity=".706"/><stop offset="1" stop-color="#ff0089" stop-opacity="0"/></linearGradient><linearGradient id="b" x1="0" x2="1" y1="0" y2="0" gradientTransform="matrix(-76.8787 -59.3241 59.3241 -76.8788 80.828 64.91)" gradientUnits="userSpaceOnUse"><stop offset="0" stop-color="#00fbff" stop-opacity=".74"/><stop offset="1" stop-color="#00ffc3" stop-opacity=".145"/></linearGradient><linearGradient id="c" x1="0" x2="1" y1="0" y2="0" gradientTransform="scale(-109.6685) rotate(11.79 1.914 -4.378)" gradientUnits="userSpaceOnUse"><stop offset="0" stop-color="#74bcff"/><stop offset="1" stop-color="#cbf1ff" stop-opacity=".26"/></linearGradient><linearGradient id="d" x1="0" x2="1" y1="0" y2="0" gradientTransform="matrix(31.9723 -.0529 .0529 31.9723 46.08 62.266)" gradientUnits="userSpaceOnUse"><stop offset=".118" stop-color="#ba0042"/><stop offset=".537" stop-color="#e80075"/><stop offset="1" stop-color="#ff0083"/></linearGradient><linearGradient id="e" x1="0" x2="1" y1="0" y2="0" gradientTransform="rotate(-.097 38075.754 -29354.468) scale(28.18714)" gradientUnits="userSpaceOnUse"><stop offset=".118" stop-color="#ba0042"/><stop offset=".537" stop-color="#e80075"/><stop offset="1" stop-color="#ff0083"/></linearGradient><linearGradient id="f" x1="0" x2="1" y1="0" y2="0" gradientTransform="rotate(-.097 38075.754 -29354.468) scale(28.18714)" gradientUnits="userSpaceOnUse"><stop offset=".118" stop-color="#ba0042"/><stop offset=".537" stop-color="#e80075"/><stop offset="1" stop-color="#ff0083"/></linearGradient><linearGradient id="g" x1="0" x2="1" y1="0" y2="0" gradientTransform="matrix(24.4018 -.04038 .04038 24.4018 51.169 63.65)" gradientUnits="userSpaceOnUse"><stop offset=".118" stop-color="#ba0042"/><stop offset=".537" stop-color="#e80075"/><stop offset="1" stop-color="#ff0083"/></linearGradient><linearGradient id="h" x1="0" x2="1" y1="0" y2="0" gradientTransform="rotate(-.098 38916.008 -32410.176) scale(20.61663)" gradientUnits="userSpaceOnUse"><stop offset=".118" stop-color="#ba0042"/><stop offset=".537" stop-color="#e80075"/><stop offset="1" stop-color="#ff0083"/></linearGradient><linearGradient id="i" x1="0" x2="1" y1="0" y2="0" gradientTransform="matrix(16.8288 -.02785 .02785 16.8288 56.227 65.036)" gradientUnits="userSpaceOnUse"><stop offset=".118" stop-color="#ba0042"/><stop offset=".537" stop-color="#e80075"/><stop offset="1" stop-color="#ff0083"/></linearGradient></defs><path fill="url(#a)" d="M96.243 96.853a7.325 7.325 0 0 1-10.361 0l-3.666-3.666-2.054-2.053-2.384-2.384-1.98-1.98L58.47 69.442a7.325 7.325 0 0 1 0-10.361 7.325 7.325 0 0 1 10.362 0l17.104 17.104 2.667 2.668 2.002 2 1.776 1.778 3.862 3.861a7.325 7.325 0 0 1 0 10.361Z" opacity=".835"/><path fill="url(#b)" d="M7.291 60.357c-11.2-18.444-5.327-42.476 13.117-53.676 18.444-11.2 42.476-5.328 53.676 13.116 11.2 18.445 5.328 42.477-13.116 53.677-18.445 11.2-42.476 5.328-53.677-13.117Z" opacity=".36"/><path fill="url(#c)" d="M7.291 60.357c-11.2-18.444-5.327-42.476 13.117-53.676 18.444-11.2 42.476-5.328 53.676 13.116 11.2 18.445 5.328 42.477-13.116 53.677-18.445 11.2-42.476 5.328-53.677-13.117Z" opacity=".55"/><path fill="url(#d)" d="M63.826 46.563a17.729 17.729 0 0 0-12.564 5.24c-3.464 3.476-5.187 8.037-5.179 12.595.008 4.558 1.734 9.1 5.21 12.564l.514.578a38.622 38.622 0 0 0 9.17-4.071c8.104-4.922 13.751-12.238 16.619-20.553l-1.175-1.174c-3.473-3.461-8.037-5.186-12.595-5.179Z" opacity=".11"/><path fill="url(#e)" d="M63.826 49.107A15.152 15.152 0 0 0 53.07 53.58a15.188 15.188 0 0 0-4.444 10.787c.007 3.907 1.495 7.817 4.474 10.786l1.41 1.41c2.207-.837 4.376-1.826 6.466-3.095 7.244-4.399 12.444-10.808 15.537-18.05l-1.87-1.869a15.274 15.274 0 0 0-10.817-4.443Z" opacity=".15"/><path fill="url(#f)" d="M63.826 49.107A15.152 15.152 0 0 0 53.07 53.58a15.188 15.188 0 0 0-4.444 10.787c.007 3.907 1.495 7.817 4.474 10.786l1.443 1.487c2.206-.837 4.343-1.903 6.433-3.172A38.848 38.848 0 0 0 76.6 55.453l-1.957-1.903a15.274 15.274 0 0 0-10.817-4.443Z" opacity=".15"/><path fill="url(#g)" d="M63.857 51.65a12.746 12.746 0 0 0-9.01 3.739c-2.474 2.483-3.682 5.722-3.677 8.979.005 3.256 1.225 6.501 3.708 8.978l2.188 2.2a37.782 37.782 0 0 0 3.91-2.077 38.79 38.79 0 0 0 14.475-15.56l-2.616-2.55a12.642 12.642 0 0 0-8.978-3.709Z" opacity=".2"/><path fill="url(#h)" d="M63.857 54.194c-2.603.004-5.22.986-7.202 2.972a10.156 10.156 0 0 0-2.972 7.202 10.181 10.181 0 0 0 3.003 7.201l2.697 2.666c.523-.286 1.078-.453 1.593-.766a38.694 38.694 0 0 0 13.183-13.23l-3.132-3.103c-1.986-1.98-4.567-2.947-7.17-2.942Z" opacity=".25"/><path fill="url(#i)" d="M63.857 56.737a7.605 7.605 0 0 0-5.394 2.237 7.61 7.61 0 0 0-2.237 5.394 7.637 7.637 0 0 0 2.268 5.393L61.73 73c2.31-1.475 4.36-3.2 6.246-5.04 1.757-1.715 3.391-3.55 4.77-5.528l-3.496-3.488a7.578 7.578 0 0 0-5.393-2.207Z" opacity=".3"/></svg>