<svg width="100%" height="100%" viewBox="0 0 100 100" xmlns="http://www.w3.org/2000/svg" xmlns:xlink="http://www.w3.org/1999/xlink" xml:space="preserve"><defs><linearGradient id="LG" gradientTransform="matrix(41.8405 42.6483 -42.6483 41.8405 69.3851 72.0926)" gradientUnits="userSpaceOnUse" x1="0" x2="1" y1="0" y2="0"><stop offset="0" stop-color="#fe00a5" stop-opacity="0.706167"/><stop offset="1" stop-color="#ff0089" stop-opacity="0"/></linearGradient><linearGradient id="LG2" gradientTransform="matrix(-76.8787 -59.3241 59.3241 -76.8788 80.8279 64.9105)" gradientUnits="userSpaceOnUse" x1="0" x2="1" y1="0" y2="0"><stop offset="0" stop-color="#00fbff" stop-opacity="0.74"/><stop offset="1" stop-color="#00ffc3" stop-opacity="0.145002"/></linearGradient><linearGradient id="LG3" gradientTransform="matrix(-107.355 -22.4071 22.4071 -107.355 93.6597 53.0218)" gradientUnits="userSpaceOnUse" x1="0" x2="1" y1="0" y2="0"><stop offset="0" stop-color="#74bcff"/><stop offset="1" stop-color="#cbf1ff" stop-opacity="0.260468"/></linearGradient><linearGradient id="LG4" gradientTransform="matrix(31.9723 -0.0529016 0.0529016 31.9723 46.0795 62.2663)" gradientUnits="userSpaceOnUse" x1="0" x2="1" y1="0" y2="0"><stop offset="0.118421" stop-color="#ba0042"/><stop offset="0.536842" stop-color="#e80075"/><stop offset="1" stop-color="#ff0083"/></linearGradient><linearGradient id="LG5" gradientTransform="matrix(28.1871 -0.0466386 0.0466386 28.1871 48.6241 62.9587)" gradientUnits="userSpaceOnUse" x1="0" x2="1" y1="0" y2="0"><stop offset="0.118421" stop-color="#ba0042"/><stop offset="0.536842" stop-color="#e80075"/><stop offset="1" stop-color="#ff0083"/></linearGradient><linearGradient id="LG6" gradientTransform="matrix(28.1871 -0.0466386 0.0466386 28.1871 48.6241 62.9587)" gradientUnits="userSpaceOnUse" x1="0" x2="1" y1="0" y2="0"><stop offset="0.118421" stop-color="#ba0042"/><stop offset="0.536842" stop-color="#e80075"/><stop offset="1" stop-color="#ff0083"/></linearGradient><linearGradient id="LG7" gradientTransform="matrix(24.4018 -0.0403754 0.0403754 24.4018 51.1688 63.6498)" gradientUnits="userSpaceOnUse" x1="0" x2="1" y1="0" y2="0"><stop offset="0.118421" stop-color="#ba0042"/><stop offset="0.536842" stop-color="#e80075"/><stop offset="1" stop-color="#ff0083"/></linearGradient><linearGradient id="LG8" gradientTransform="matrix(20.6166 -0.0341124 0.0341124 20.6166 53.6827 64.3435)" gradientUnits="userSpaceOnUse" x1="0" x2="1" y1="0" y2="0"><stop offset="0.118421" stop-color="#ba0042"/><stop offset="0.536842" stop-color="#e80075"/><stop offset="1" stop-color="#ff0083"/></linearGradient><linearGradient id="LG9" gradientTransform="matrix(16.8288 -0.0278451 0.0278451 16.8288 56.2273 65.0359)" gradientUnits="userSpaceOnUse" x1="0" x2="1" y1="0" y2="0"><stop offset="0.118421" stop-color="#ba0042"/><stop offset="0.536842" stop-color="#e80075"/><stop offset="1" stop-color="#ff0083"/></linearGradient></defs><g opacity="1"><path fill="url(#LG)" fill-rule="nonzero" opacity="0.835427" stroke="none" d="M96.2429 96.8534L96.2429 96.8534C93.3809 99.7155 88.7436 99.7155 85.8816 96.8534L82.2155 93.1873L80.1619 91.1338L77.7781 88.7499L75.7987 86.7705L58.4704 69.4422C55.6084 66.5801 55.6084 61.9428 58.4704 59.0808L58.4704 59.0808C61.3324 56.2189 65.9698 56.2189 68.8317 59.0808L85.9361 76.1852L88.6034 78.8526L90.6047 80.8538L92.3815 82.6307L96.2429 86.4921C99.105 89.3541 99.105 93.9914 96.2429 96.8534Z"/><g opacity="1"><path fill="url(#LG2)" fill-rule="nonzero" opacity="0.36" stroke="none" d="M7.29148 60.3572C-3.90878 41.9129 1.96374 17.8812 20.4081 6.68092C38.8524-4.5193 62.8841 1.35314 74.0844 19.7975C85.2847 38.2419 79.4121 62.2736 60.9678 73.4738C42.5234 84.6741 18.4917 78.8016 7.29148 60.3572Z"/><path fill="url(#LG3)" fill-rule="nonzero" opacity="0.55" stroke="none" d="M7.29148 60.3572C-3.90878 41.9129 1.96374 17.8812 20.4081 6.68092C38.8524-4.5193 62.8841 1.35314 74.0844 19.7975C85.2847 38.2419 79.4121 62.2736 60.9678 73.4738C42.5234 84.6741 18.4917 78.8016 7.29148 60.3572Z"/></g><g opacity="1"><path fill="url(#LG4)" fill-rule="nonzero" opacity="0.11" stroke="none" d="M63.826 46.5634C59.268 46.5709 54.7261 48.3278 51.2619 51.8035C47.7976 55.2792 46.0755 59.8403 46.083 64.3983C46.0906 68.9563 47.8168 73.4982 51.2925 76.9624L51.8065 77.5404C54.9776 76.6038 58.0166 75.2661 60.9761 73.469C69.0813 68.5471 74.7281 61.2305 77.5959 52.9159L76.4208 51.7422C72.9476 48.2806 68.3841 46.5558 63.826 46.5634Z"/><path fill="url(#LG5)" fill-rule="nonzero" opacity="0.15" stroke="none" d="M63.826 49.1068C59.9214 49.1133 56.0392 50.6017 53.0699 53.5809C50.1005 56.5601 48.62 60.4604 48.6265 64.3676C48.633 68.2748 50.1213 72.185 53.1005 75.1544L54.5102 76.564C56.7165 75.7268 58.8864 74.7379 60.9761 73.469C68.2203 69.07 73.4199 62.6614 76.5127 55.4195L74.6434 53.5502C71.6643 50.5835 67.7307 49.1004 63.826 49.1068Z"/><path fill="url(#LG6)" fill-rule="nonzero" opacity="0.15" stroke="none" d="M63.826 49.1068C59.9214 49.1133 56.0392 50.6017 53.0699 53.5809C50.1005 56.5601 48.62 60.4604 48.6265 64.3676C48.633 68.2748 50.1213 72.185 53.1005 75.1544L54.543 76.6409C56.7494 75.8037 58.8864 74.7379 60.9761 73.469C68.2203 69.07 73.5073 62.6944 76.6001 55.4526L74.6434 53.5502C71.6643 50.5835 67.7307 49.1004 63.826 49.1068Z"/><path fill="url(#LG7)" fill-rule="nonzero" opacity="0.2" stroke="none" d="M63.8567 51.6503C60.6028 51.6557 57.3242 52.9063 54.8473 55.3889C52.3728 57.8716 51.1646 61.1112 51.17 64.3676C51.1753 67.6241 52.3952 70.8693 54.8779 73.3464L57.0662 75.5463C58.4223 74.9226 59.6695 74.2624 60.9761 73.469C67.3938 69.5719 72.2666 64.1378 75.4506 57.9097L72.8354 55.3582C70.3528 52.8837 67.1107 51.6449 63.8567 51.6503Z"/><path fill="url(#LG8)" fill-rule="nonzero" opacity="0.25" stroke="none" d="M63.8567 54.1938C61.2536 54.1981 58.6373 55.1801 56.6553 57.1663C54.6731 59.155 53.6785 61.7646 53.6828 64.3676C53.6871 66.9708 54.6972 69.5895 56.6859 71.569L59.3826 74.2351C59.9063 73.9487 60.4607 73.782 60.9761 73.469C61.2299 73.3148 61.4813 73.1583 61.7303 72.9995C66.9823 69.6486 71.1447 65.263 74.159 60.2398L71.0274 57.1356C69.0413 55.156 66.4599 54.1895 63.8567 54.1938Z"/><path fill="url(#LG9)" fill-rule="nonzero" opacity="0.3" stroke="none" d="M63.8567 56.7372C61.9069 56.7405 59.948 57.4821 58.4633 58.9743C56.9761 60.4664 56.223 62.4179 56.2263 64.3676C56.2295 66.3174 57.0019 68.2764 58.4939 69.761L61.7303 72.9995C64.0398 71.525 66.0909 69.8 67.9763 67.9597C69.7333 66.2448 71.3673 64.4104 72.7459 62.4319L69.25 58.9436C67.758 57.4564 65.8066 56.734 63.8567 56.7372Z"/></g></g></svg>