<svg xmlns="http://www.w3.org/2000/svg" xml:space="preserve" width="100%" height="100%" stroke-miterlimit="10" style="fill-rule:nonzero;clip-rule:evenodd;stroke-linecap:round;stroke-linejoin:round" version="1.1" viewBox="0 0 100 100"><defs><linearGradient id="a" x1="0" x2="1" y1="0" y2="0" gradientTransform="matrix(.59036 -97.0715 98.7993 -2.88366 77.018 94.355)" gradientUnits="userSpaceOnUse"><stop offset="0" stop-color="#fff" stop-opacity=".95"/><stop offset="1" stop-color="#ccc" stop-opacity=".5"/></linearGradient><linearGradient id="b" x1="0" x2="1" y1="0" y2="0" gradientTransform="matrix(-1.4414 -79.2171 80.5581 -4.31025 77.018 94.355)" gradientUnits="userSpaceOnUse"><stop offset="0" stop-color="#fff"/><stop offset="1" stop-color="#ccc" stop-opacity=".5"/></linearGradient><linearGradient id="d" x1="0" x2="1" y1="0" y2="0" gradientTransform="matrix(-53.5946 .61145 -2.51439 -56.253 77.745 66.98)" gradientUnits="userSpaceOnUse"><stop offset="0" stop-color="#fff"/><stop offset="1" stop-color="#ccc" stop-opacity=".5"/></linearGradient><linearGradient id="e" x1="0" x2="1" y1="0" y2="0" gradientTransform="matrix(-71.1353 -.94806 -1.24679 -78.3797 71.981 28.94)" gradientUnits="userSpaceOnUse"><stop offset="0" stop-color="#fff"/><stop offset="1" stop-color="#ccc" stop-opacity=".5"/></linearGradient><linearGradient id="f" x1="0" x2="1" y1="0" y2="0" gradientTransform="matrix(-1.4414 -79.2171 80.5581 -4.31025 77.018 94.355)" gradientUnits="userSpaceOnUse"><stop offset="0" stop-color="#fff" stop-opacity=".95"/><stop offset="1" stop-color="#f2f2f2" stop-opacity=".5"/></linearGradient><filter id="c" width="47.906" height="48.938" x="37.75" y="41.656" color-interpolation-filters="sRGB" filterUnits="userSpaceOnUse"><feGaussianBlur in="SourceGraphic" result="Blur" stdDeviation="2.5"/></filter><filter id="g" width="27.188" height="38.125" x="37.75" y="11.781" color-interpolation-filters="sRGB" filterUnits="userSpaceOnUse"><feGaussianBlur in="SourceGraphic" result="Blur" stdDeviation="2.5"/></filter></defs><g fill-rule="nonzero" opacity="1"><path fill="#00000000" opacity="1" d="M0 0L100 0L100 100L0 100L0 0Z"/><g opacity="1"><path fill="url(#a)" opacity="1" d="M58.6875 18.0312L58.6875 34.7812C58.6875 37.763 57.9789 39.9924 56.5938 41.4688C55.2011 42.9451 53.0978 43.6562 50.3125 43.6562L44 43.6562L44 83.9375C44 87.3203 44.7903 89.8251 46.4375 91.5C48.0772 93.1749 50.5581 94.0312 53.875 94.0312L88.0938 94.0312C91.3732 94.0312 93.814 93.1749 95.4688 91.5C97.131 89.8251 97.9687 87.3203 97.9688 83.9375L97.9688 28.125C97.9688 24.7423 97.131 22.1749 95.4688 20.5C93.814 18.8251 91.3732 18.0312 88.0938 18.0312L58.6875 18.0312Z"/><path fill="url(#b)" d="M44 47.9062L44 83.9375C44 84.0938 44.059 84.1911 44.0625 84.3438L69.625 84.3438C72.8895 84.3438 75.3202 83.5022 76.9375 81.8438C78.5548 80.1853 79.4063 77.6639 79.4062 74.2812L79.4062 57.9688C79.4062 54.5532 78.5548 52.0023 76.9375 50.3438C75.3202 48.6852 72.8895 47.9062 69.625 47.9062L44 47.9062Z" filter="url(#c)" opacity="1"/><path fill="url(#d)" opacity="1" d="M29.0312 47.9062C25.7967 47.9062 23.3823 48.6852 21.75 50.3438C20.1177 52.0023 19.3125 54.5532 19.3125 57.9688L19.3125 74.2812C19.3125 77.664 20.1177 80.1853 21.75 81.8438C23.3823 83.5022 25.7967 84.3438 29.0312 84.3438L44.0625 84.3438C44.059 84.1911 44 84.0938 44 83.9375L44 47.9062L29.0312 47.9062Z"/><path fill="url(#e)" opacity="1" d="M10.3802 5.96756C7.59491 5.96756 5.49843 6.70095 4.10576 8.16283C2.7131 9.62472 2.02426 11.8597 2.02426 14.8414L2.02426 34.7844C2.02426 37.766 2.7131 39.9866 4.10576 41.4629C5.49843 42.9393 7.59491 43.6582 10.3802 43.6582L50.3182 43.6582C53.1035 43.6582 55.2 42.9393 56.5927 41.4629C57.9779 39.9866 58.6742 37.7661 58.6742 34.7844L58.6742 14.8414C58.6742 11.8597 57.9779 9.62473 56.5927 8.16283C55.2 6.70095 53.1035 5.96757 50.3182 5.96756L10.3802 5.96756Z"/><path fill="url(#f)" d="M53.875 18.0312C50.5581 18.0312 48.0773 18.8251 46.4375 20.5C44.7903 22.1749 44 24.7422 44 28.125L44 43.6562L50.3125 43.6562C53.0978 43.6562 55.2011 42.9451 56.5938 41.4688C57.9789 39.9924 58.6875 37.763 58.6875 34.7812L58.6875 18.0312L53.875 18.0312Z" filter="url(#g)" opacity="1"/></g></g></svg>