<svg viewBox="0 0 100 100" width="100%" height="100%" xmlns="http://www.w3.org/2000/svg" xmlns:xlink="http://www.w3.org/1999/xlink" xml:space="preserve" stroke-miterlimit="10" style="fill-rule:nonzero;clip-rule:evenodd;stroke-linecap:round;stroke-linejoin:round"><defs><linearGradient id="a" x1="0" x2="1" y1="0" y2="0" gradientTransform="rotate(.123 -14795.856 -4075.358) scale(73.55427)" gradientUnits="userSpaceOnUse"><stop offset="0" stop-color="#0ef"/><stop offset=".278" stop-color="#33cffe"/><stop offset=".463" stop-color="#00aefd" stop-opacity=".95"/><stop offset=".632" stop-color="#00aafd" stop-opacity=".812"/><stop offset=".697" stop-color="#00a3fd" stop-opacity="0"/><stop offset=".904" stop-color="#07a0fc" stop-opacity="0"/><stop offset="1" stop-color="#009cfc" stop-opacity="0"/></linearGradient><linearGradient id="b" x1="0" x2="1" y1="0" y2="0" gradientTransform="rotate(179.934 56.345 25.09) scale(74.84305)" gradientUnits="userSpaceOnUse"><stop offset="0" stop-color="#0ef"/><stop offset=".278" stop-color="#33cffe"/><stop offset=".463" stop-color="#00aefd" stop-opacity=".95"/><stop offset=".632" stop-color="#00aafd" stop-opacity=".812"/><stop offset=".697" stop-color="#00a3fd" stop-opacity="0"/><stop offset=".904" stop-color="#07a0fc" stop-opacity="0"/><stop offset="1" stop-color="#009cfc" stop-opacity="0"/></linearGradient><linearGradient id="c" x1="0" x2="1" y1="0" y2="0" gradientTransform="scale(104.56) rotate(33.506 -.545 .012)" gradientUnits="userSpaceOnUse"><stop offset="0" stop-color="#97f8ff"/><stop offset=".217" stop-color="#6adcfe"/><stop offset=".467" stop-color="#3cc1fd"/><stop offset=".69" stop-color="#1badfd"/><stop offset=".875" stop-color="#07a0fc"/><stop offset="1" stop-color="#009cfc"/></linearGradient><linearGradient id="e" x1="0" x2="1" y1="0" y2="0" gradientTransform="scale(104.56) rotate(33.506 -.545 .012)" gradientUnits="userSpaceOnUse"><stop offset="0" stop-color="#97f8ff"/><stop offset=".217" stop-color="#6adcfe"/><stop offset=".467" stop-color="#3cc1fd"/><stop offset=".69" stop-color="#1badfd"/><stop offset=".875" stop-color="#07a0fc"/><stop offset="1" stop-color="#009cfc"/></linearGradient><linearGradient id="g" x1="0" x2="1" y1="0" y2="0" gradientTransform="rotate(-160.685 60.624 15.467) scale(91.5276)" gradientUnits="userSpaceOnUse"><stop offset="0" stop-color="#97f8ff"/><stop offset=".217" stop-color="#6adcfe"/><stop offset=".467" stop-color="#3cc1fd"/><stop offset=".69" stop-color="#1badfd"/><stop offset=".875" stop-color="#07a0fc"/><stop offset="1" stop-color="#009cfc"/></linearGradient><linearGradient id="i" x1="0" x2="1" y1="0" y2="0" gradientTransform="rotate(-160.685 60.624 15.467) scale(91.5276)" gradientUnits="userSpaceOnUse"><stop offset="0" stop-color="#97f8ff"/><stop offset=".217" stop-color="#6adcfe"/><stop offset=".467" stop-color="#3cc1fd"/><stop offset=".69" stop-color="#1badfd"/><stop offset=".875" stop-color="#07a0fc"/><stop offset="1" stop-color="#009cfc"/></linearGradient><linearGradient id="k" x1="0" x2="1" y1="0" y2="0" gradientTransform="rotate(90 19.569 33.163) scale(75.5928)" gradientUnits="userSpaceOnUse"><stop offset="0" stop-color="#E725FF" stop-opacity=".6"/><stop offset="1" stop-color="#f725FF" stop-opacity=".4"/></linearGradient><filter id="d" width="36.018" height="46.768" x="30.844" y="49.156" color-interpolation-filters="sRGB" filterUnits="userSpaceOnUse"><feGaussianBlur in="SourceGraphic" result="Blur" stdDeviation="3"/></filter><filter id="f" width="38.518" height="49.268" x="29.594" y="47.906" color-interpolation-filters="sRGB" filterUnits="userSpaceOnUse"><feGaussianBlur in="SourceGraphic" result="Blur" stdDeviation="3.5"/></filter><filter id="h" width="36.013" height="46.169" x="38.612" y="4.018" color-interpolation-filters="sRGB" filterUnits="userSpaceOnUse"><feGaussianBlur in="SourceGraphic" result="Blur" stdDeviation="3"/></filter><filter id="j" width="38.513" height="48.669" x="37.362" y="2.768" color-interpolation-filters="sRGB" filterUnits="userSpaceOnUse"><feGaussianBlur in="SourceGraphic" result="Blur" stdDeviation="3.5"/></filter></defs><path fill="#00000000" fill-rule="nonzero" opacity="1" d="M0 7.10543e-15L100 7.10543e-15L100 100L0 100L0 7.10543e-15Z"/><g fill-rule="nonzero" opacity="1"><path fill="url(#a)" opacity="1" d="M57.7623 76.7624L57.7767 76.7504C57.4335 76.3904 57.1167 76.0112 56.7255 75.6992L27.2559 45.176C27.2559 37.844 23.1879 33.944 18.8847 32.8568C17.8791 32.6024 17.0343 33.6224 17.4903 34.5536C18.7887 37.2032 20.8719 42.5696 17.0415 45.176C12.4455 48.3032 7.01906 45.2408 7.01906 38.2112C7.01906 31.1816-2.85934 40.7048 1.90226 51.0248C6.66386 61.3448 19.2327 57.392 19.2327 57.392L46.8999 86.1224C53.2143 92.624 63.3159 84.0248 57.7623 76.7624Z"/><path fill="url(#b)" opacity="1" d="M99.0399 54.3632C93.0207 48.344 58.7319 14.0744 58.0047 13.3472C50.9919 7.0712 41.4015 18.4496 48.7383 24.3032C48.7383 24.3032 67.5327 43.0976 79.6935 55.2584C84.9807 60.5456 93.3687 60.8216 98.9919 56.1032C99.5175 55.6616 99.5247 54.848 99.0399 54.3632Z"/><path fill="url(#c)" d="M38.3438 56.6562L38.3438 77.25L46.9063 86.125C53.2206 92.6266 63.3036 84.0124 57.75 76.75C57.4126 76.3948 57.1042 75.9949 56.7188 75.6875L38.3438 56.6562Z" filter="url(#d)" opacity="1"/><path fill="url(#e)" d="M38.3438 56.6562L38.3438 77.25L46.9063 86.125C53.2206 92.6266 63.3036 84.0124 57.75 76.75C57.4126 76.3948 57.1042 75.9949 56.7188 75.6875L38.3438 56.6562Z" filter="url(#f)" opacity="1"/><path fill="url(#g)" d="M52.5625 11.5938C47.2506 12.4206 43.2474 19.9223 48.75 24.3125C48.75 24.3125 59.1927 34.7552 67.125 42.6875L67.125 22.4688C64.3236 19.6688 58.1617 13.5055 58 13.3438C56.2468 11.7748 54.3331 11.3181 52.5625 11.5938Z" filter="url(#h)" opacity=".997"/><path fill="url(#i)" d="M52.5625 11.5938C47.2506 12.4206 43.2474 19.9223 48.75 24.3125C48.75 24.3125 59.1927 34.7552 67.125 42.6875L67.125 22.4688C64.3236 19.6688 58.1617 13.5055 58 13.3438C56.2468 11.7748 54.3331 11.3181 52.5625 11.5938Z" filter="url(#j)" opacity="1"/><path fill="url(#k)" opacity="1" d="M52.7319 98L52.7319 98C60.6855 98 67.1319 91.5536 67.1319 83.6L67.1319 16.4C67.1319 8.4464 60.6855 2 52.7319 2L52.7319 2C44.7783 2 38.3319 8.4464 38.3319 16.4L38.3319 83.6C38.3319 91.5536 44.7783 98 52.7319 98Z"/></g></svg>