<svg viewBox="0 0 100 100" width="100%" height="100%" xmlns="http://www.w3.org/2000/svg" xmlns:xlink="http://www.w3.org/1999/xlink" xml:space="preserve" stroke-miterlimit="10" style="fill-rule:nonzero;clip-rule:evenodd;stroke-linecap:round;stroke-linejoin:round"><defs><linearGradient id="a" x1="0" x2="1" y1="0" y2="0" gradientTransform="matrix(68.783 -.33735 .33735 68.783 -.393 39.636)" gradientUnits="userSpaceOnUse"><stop offset="0" stop-color="#97f8ff"/><stop offset=".205" stop-color="#6adcfe"/><stop offset=".412" stop-color="#3cc1fd" stop-opacity=".9"/><stop offset=".611" stop-color="#1badfd" stop-opacity=".7"/><stop offset=".896" stop-color="#07a0fc" stop-opacity="0"/><stop offset="1" stop-color="#009cfc" stop-opacity="0"/></linearGradient><linearGradient id="b" x1="0" x2="1" y1="0" y2="0" gradientTransform="matrix(-64.7994 .39216 -.39216 -64.7994 101.309 50.627)" gradientUnits="userSpaceOnUse"><stop offset="0" stop-color="#97f8ff"/><stop offset=".205" stop-color="#6adcfe"/><stop offset=".412" stop-color="#3cc1fd" stop-opacity=".9"/><stop offset=".611" stop-color="#1badfd" stop-opacity=".7"/><stop offset=".896" stop-color="#7F29FF" stop-opacity="0"/><stop offset="1" stop-color="#C052FF" stop-opacity="1"/></linearGradient><linearGradient id="c" x1="0" x2="1" y1="0" y2="0" gradientTransform="rotate(90 19.569 33.163) scale(75.5928)" gradientUnits="userSpaceOnUse"><stop offset="0" stop-color="#C052FF" stop-opacity=".6"/><stop offset="1" stop-color="#E725FF" stop-opacity=".4"/></linearGradient></defs><path fill="#00000000" fill-rule="nonzero" opacity="1" d="M0 7.10543e-15L100 7.10543e-15L100 100L0 100L0 7.10543e-15Z"/><g fill-rule="nonzero" opacity="1"><path fill="url(#a)" opacity="1" d="M57.7623 76.7624L57.7767 76.7504C57.4335 76.3904 57.1167 76.0112 56.7255 75.6992L27.2559 45.176C27.2559 37.844 23.1879 33.944 18.8847 32.8568C17.8791 32.6024 17.0343 33.6224 17.4903 34.5536C18.7887 37.2032 20.8719 42.5696 17.0415 45.176C12.4455 48.3032 7.01906 45.2408 7.01906 38.2112C7.01906 31.1816-2.85934 40.7048 1.90226 51.0248C6.66386 61.3448 19.2327 57.392 19.2327 57.392L46.8999 86.1224C53.2143 92.624 63.3159 84.0248 57.7623 76.7624Z"/><path fill="url(#b)" opacity="1" d="M99.6448 55.1154C93.6256 49.0962 59.3368 14.8266 58.6096 14.0994C51.5968 7.82343 42.0064 19.2018 49.3432 25.0554C49.3432 25.0554 68.1376 43.8498 80.2984 56.0106C85.5856 61.2978 93.9736 61.5738 99.5968 56.8554C100.122 56.4138 100.13 55.6002 99.6448 55.1154Z"/><g fill="#118bef" opacity="1"><path opacity=".1" d="M67.0119 81.416C67.0119 83.528 66.5319 85.616 65.5479 87.608C63.0279 92.696 57.6039 96.104 52.0119 96.104C48.0039 96.104 44.3319 94.496 41.3799 91.472L39.6999 89.744C39.0999 88.496 38.6919 87.128 38.4999 85.688C38.3799 85.016 38.3319 84.32 38.3319 83.6L38.3319 45.584L63.2919 71.432C65.7639 74.6 67.0119 78.032 67.0119 81.416Z"/><path opacity=".2" d="M61.9239 72.752L38.3319 48.368L38.3319 83.6C38.3319 84.32 38.3799 85.016 38.4999 85.688L42.7719 90.128C45.3399 92.792 48.5319 94.184 52.0119 94.184C56.8839 94.184 61.6359 91.184 63.8199 86.744C66.0279 82.28 65.4039 77.24 61.9239 72.752Z"/><path opacity=".3" d="M62.1159 85.904C60.2199 89.696 56.1639 92.264 52.0119 92.264C49.0599 92.264 46.3479 91.064 44.1399 88.808L38.3319 82.784L38.3319 51.104C47.2599 60.368 60.2919 73.856 60.5319 74.096C63.4599 77.864 63.9879 82.112 62.1159 85.904Z"/><path opacity=".4" d="M60.3879 85.04C58.8279 88.208 55.4679 90.344 52.0119 90.344C49.6119 90.344 47.3559 89.336 45.5319 87.464L38.3319 79.976L38.3319 53.864C47.1879 63.032 58.9479 75.2 59.1639 75.416C61.5159 78.512 61.9239 81.944 60.3879 85.04Z"/></g><g fill="#118bef" opacity=".5"><path opacity=".1" d="M67.0119 81.416C67.0119 83.528 66.5319 85.616 65.5479 87.608C63.0279 92.696 57.6039 96.104 52.0119 96.104C48.0039 96.104 44.3319 94.496 41.3799 91.472L39.6999 89.744C39.0999 88.496 38.6919 87.128 38.4999 85.688C38.3799 85.016 38.3319 84.32 38.3319 83.6L38.3319 45.584L63.2919 71.432C65.7639 74.6 67.0119 78.032 67.0119 81.416Z"/><path opacity=".2" d="M61.9239 72.752L38.3319 48.368L38.3319 83.6C38.3319 84.32 38.3799 85.016 38.4999 85.688L42.7719 90.128C45.3399 92.792 48.5319 94.184 52.0119 94.184C56.8839 94.184 61.6359 91.184 63.8199 86.744C66.0279 82.28 65.4039 77.24 61.9239 72.752Z"/><path opacity=".3" d="M62.1159 85.904C60.2199 89.696 56.1639 92.264 52.0119 92.264C49.0599 92.264 46.3479 91.064 44.1399 88.808L38.3319 82.784L38.3319 51.104C47.2599 60.368 60.2919 73.856 60.5319 74.096C63.4599 77.864 63.9879 82.112 62.1159 85.904Z"/><path opacity=".4" d="M60.3879 85.04C58.8279 88.208 55.4679 90.344 52.0119 90.344C49.6119 90.344 47.3559 89.336 45.5319 87.464L38.3319 79.976L38.3319 53.864C47.1879 63.032 58.9479 75.2 59.1639 75.416C61.5159 78.512 61.9239 81.944 60.3879 85.04Z"/></g><g fill="#118bef" opacity="1"><path opacity=".05" d="M71.9319 27.272L71.9319 47.504C71.6199 47.192 71.3079 46.856 70.9719 46.544C70.6599 46.232 70.3479 45.896 70.0119 45.584C69.6999 45.248 69.3879 44.936 69.0519 44.624C68.7399 44.288 68.4039 43.976 68.0919 43.64C58.2279 33.776 48.7479 24.296 48.7479 24.296C41.4039 18.44 51.0039 7.064 58.0119 13.352C58.2519 13.592 62.4519 17.792 68.0919 23.432C68.4039 23.744 68.7159 24.056 69.0519 24.368C69.3639 24.704 69.6759 25.016 70.0119 25.352C70.3239 25.664 70.6599 25.976 70.9719 26.312L71.9319 27.272Z"/><path opacity=".1" d="M70.9719 26.312L70.9719 46.544C70.6599 46.232 70.3479 45.896 70.0119 45.584C69.6999 45.248 69.3879 44.936 69.0519 44.624C68.7399 44.288 68.4039 43.976 68.0919 43.64C58.2279 33.776 48.7479 24.296 48.7479 24.296C41.4039 18.44 51.0039 7.064 58.0119 13.352C58.2519 13.592 62.4519 17.792 68.0919 23.432C68.4039 23.744 68.7159 24.056 69.0519 24.368C69.3639 24.704 69.6759 25.016 70.0119 25.352C70.3239 25.664 70.6599 25.976 70.9719 26.312Z"/><path opacity=".2" d="M70.0119 25.352L70.0119 45.584C69.6999 45.248 69.3879 44.936 69.0519 44.624C68.7399 44.288 68.4039 43.976 68.0919 43.64C58.2279 33.776 48.7479 24.296 48.7479 24.296C41.4039 18.44 51.0039 7.064 58.0119 13.352C58.2519 13.592 62.4519 17.792 68.0919 23.432C68.4039 23.744 68.7159 24.056 69.0519 24.368C69.3639 24.704 69.6759 25.016 70.0119 25.352Z"/><path opacity=".3" d="M69.0519 24.368L69.0519 44.624C68.7399 44.288 68.4039 43.976 68.0919 43.64C58.2279 33.776 48.7479 24.296 48.7479 24.296C41.4039 18.44 51.0039 7.064 58.0119 13.352C58.2519 13.592 62.4519 17.792 68.0919 23.432C68.4039 23.744 68.7159 24.056 69.0519 24.368Z"/><path opacity=".4" d="M68.0919 23.432L68.0919 43.64C58.2279 33.776 48.7479 24.296 48.7479 24.296C41.4039 18.44 51.0039 7.064 58.0119 13.352C58.2519 13.592 62.4519 17.792 68.0919 23.432Z"/></g><g fill="#118bef" opacity="1"><path opacity=".05" d="M57.7719 76.76C63.3159 84.008 53.2119 92.624 46.8999 86.12L37.3719 76.232L36.4119 75.224L35.4519 74.24L34.4919 73.232L33.5319 72.248L33.5319 51.68C33.8439 51.992 34.1559 52.328 34.4919 52.664C34.8039 53 35.1159 53.336 35.4519 53.672C35.7639 53.984 36.0759 54.32 36.4119 54.656C36.7239 54.968 37.0359 55.304 37.3719 55.64C46.1799 64.76 57.5559 76.544 57.7719 76.76Z"/><path opacity=".1" d="M57.7719 76.76C63.3159 84.008 53.2119 92.624 46.8999 86.12L37.3719 76.232L36.4119 75.224L35.4519 74.24L34.4919 73.232L34.4919 52.664C34.8039 53 35.1159 53.336 35.4519 53.672C35.7639 53.984 36.0759 54.32 36.4119 54.656C36.7239 54.968 37.0359 55.304 37.3719 55.64C46.1799 64.76 57.5559 76.544 57.7719 76.76Z"/><path opacity=".2" d="M57.7719 76.76C63.3159 84.008 53.2119 92.624 46.8999 86.12L37.3719 76.232L36.4119 75.224L35.4519 74.24L35.4519 53.672C35.7639 53.984 36.0759 54.32 36.4119 54.656C36.7239 54.968 37.0359 55.304 37.3719 55.64C46.1799 64.76 57.5559 76.544 57.7719 76.76Z"/><path opacity=".3" d="M57.7719 76.76C63.3159 84.008 53.2119 92.624 46.8999 86.12L37.3719 76.232L36.4119 75.224L36.4119 54.656C36.7239 54.968 37.0359 55.304 37.3719 55.64C46.1799 64.76 57.5559 76.544 57.7719 76.76Z"/><path opacity=".4" d="M57.7719 76.76C63.3159 84.008 53.2119 92.624 46.8999 86.12L37.3719 76.232L37.3719 55.64C46.1799 64.76 57.5559 76.544 57.7719 76.76Z"/></g><g fill="#118bef" opacity="1"><path opacity=".1" d="M67.1319 16.4L67.1319 53.552L48.3639 34.784C46.2759 32.696 44.8839 31.304 43.9719 30.296C40.3479 27.344 38.4279 23.336 38.4279 19.112C38.4279 17.528 38.7159 15.92 39.2679 14.312C41.3799 8.24 47.3799 3.824 53.5239 3.824C57.0279 3.824 60.3639 5.144 63.1239 7.616L65.7399 10.232C66.3159 11.432 66.7479 12.752 66.9399 14.144C67.0599 14.864 67.1319 15.632 67.1319 16.4Z"/><path opacity=".2" d="M67.1319 16.4L67.1319 50.84L49.7319 33.44C47.5959 31.304 46.2039 29.912 45.2919 28.904L45.2199 28.856C40.8519 25.376 39.2919 20.048 41.0679 14.96C42.9399 9.632 48.1719 5.744 53.5239 5.744C56.5479 5.744 59.4279 6.896 61.8519 9.056L66.9399 14.144C67.0599 14.864 67.1319 15.632 67.1319 16.4Z"/><path opacity=".3" d="M67.1319 17.072L67.1319 48.128L51.0759 32.072C48.9159 29.912 47.4999 28.472 46.5639 27.464L46.3479 27.296C42.6999 24.392 41.3799 19.904 42.8919 15.584C44.4999 11 48.9639 7.664 53.5239 7.664C56.0679 7.664 58.5159 8.648 60.5559 10.496L67.1319 17.072Z"/><path opacity=".4" d="M67.1319 19.76L67.1319 45.416L52.4439 30.704C49.9239 28.208 48.4359 26.72 47.5959 25.736L47.5479 25.808C44.4999 23.384 43.4439 19.808 44.6919 16.208C46.0359 12.368 49.7559 9.584 53.5239 9.584C55.5879 9.584 57.5799 10.4 59.2839 11.912L67.1319 19.76Z"/></g><g fill="#118bef" opacity=".5"><path opacity=".1" d="M67.1319 16.4L67.1319 53.552L48.3639 34.784C46.2759 32.696 44.8839 31.304 43.9719 30.296C40.3479 27.344 38.4279 23.336 38.4279 19.112C38.4279 17.528 38.7159 15.92 39.2679 14.312C41.3799 8.24 47.3799 3.824 53.5239 3.824C57.0279 3.824 60.3639 5.144 63.1239 7.616L65.7399 10.232C66.3159 11.432 66.7479 12.752 66.9399 14.144C67.0599 14.864 67.1319 15.632 67.1319 16.4Z"/><path opacity=".2" d="M67.1319 16.4L67.1319 50.84L49.7319 33.44C47.5959 31.304 46.2039 29.912 45.2919 28.904L45.2199 28.856C40.8519 25.376 39.2919 20.048 41.0679 14.96C42.9399 9.632 48.1719 5.744 53.5239 5.744C56.5479 5.744 59.4279 6.896 61.8519 9.056L66.9399 14.144C67.0599 14.864 67.1319 15.632 67.1319 16.4Z"/><path opacity=".3" d="M67.1319 17.072L67.1319 48.128L51.0759 32.072C48.9159 29.912 47.4999 28.472 46.5639 27.464L46.3479 27.296C42.6999 24.392 41.3799 19.904 42.8919 15.584C44.4999 11 48.9639 7.664 53.5239 7.664C56.0679 7.664 58.5159 8.648 60.5559 10.496L67.1319 17.072Z"/><path opacity=".4" d="M67.1319 19.76L67.1319 45.416L52.4439 30.704C49.9239 28.208 48.4359 26.72 47.5959 25.736L47.5479 25.808C44.4999 23.384 43.4439 19.808 44.6919 16.208C46.0359 12.368 49.7559 9.584 53.5239 9.584C55.5879 9.584 57.5799 10.4 59.2839 11.912L67.1319 19.76Z"/></g><path fill="url(#c)" opacity="1" d="M52.7319 98L52.7319 98C60.6855 98 67.1319 91.5536 67.1319 83.6L67.1319 16.4C67.1319 8.4464 60.6855 2 52.7319 2L52.7319 2C44.7783 2 38.3319 8.4464 38.3319 16.4L38.3319 83.6C38.3319 91.5536 44.7783 98 52.7319 98Z"/></g></svg>