<svg xmlns="http://www.w3.org/2000/svg"  viewBox="0 0 48 48" width="100%" height="100%" baseProfile="basic"><path fill="#118bef" d="M30.95,37.09c0,0.88-0.2,1.75-0.61,2.58c-1.05,2.12-3.31,3.54-5.64,3.54	c-1.67,0-3.2-0.67-4.43-1.93l-0.7-0.72c-0.25-0.52-0.42-1.09-0.5-1.69C19.02,38.59,19,38.3,19,38V22.16l10.4,10.77	C30.43,34.25,30.95,35.68,30.95,37.09z" opacity=".1"/><path fill="#118bef" d="M28.83,33.48L19,23.32V38c0,0.3,0.02,0.59,0.07,0.87l1.78,1.85	c1.07,1.11,2.4,1.69,3.85,1.69c2.03,0,4.01-1.25,4.92-3.1C30.54,37.45,30.28,35.35,28.83,33.48z" opacity=".2"/><path fill="#118bef" d="M28.91,38.96c-0.79,1.58-2.48,2.65-4.21,2.65c-1.23,0-2.36-0.5-3.28-1.44L19,37.66v-13.2	c3.72,3.86,9.15,9.48,9.25,9.58C29.47,35.61,29.69,37.38,28.91,38.96z" opacity=".3"/><path fill="#118bef" d="M28.19,38.6c-0.65,1.32-2.05,2.21-3.49,2.21c-1,0-1.94-0.42-2.7-1.2l-3-3.12V25.61	c3.69,3.82,8.59,8.89,8.68,8.98C28.66,35.88,28.83,37.31,28.19,38.6z" opacity=".4"/><linearGradient id="G3UGDVz4978FIzq3LMBuca" x1="-.622" x2="35.705" y1="16.364" y2="40.414" gradientUnits="userSpaceOnUse"><stop offset="0" stop-color="#97f8ff"/><stop offset=".217" stop-color="#6adcfe"/><stop offset=".467" stop-color="#3cc1fd"/><stop offset=".69" stop-color="#1badfd"/><stop offset=".875" stop-color="#07a0fc"/><stop offset="1" stop-color="#009cfc"/></linearGradient><path fill="url(#G3UGDVz4978FIzq3LMBuca)" d="M27.096,35.151l0.006-0.005c-0.143-0.15-0.275-0.308-0.438-0.438	c0,0-12.279-12.718-12.279-12.718c0-3.055-1.695-4.68-3.488-5.133c-0.419-0.106-0.771,0.319-0.581,0.707	c0.541,1.104,1.409,3.34-0.187,4.426c-1.915,1.303-4.176,0.027-4.176-2.902s-4.116,1.039-2.132,5.339s7.221,2.653,7.221,2.653	L22.57,39.051C25.201,41.76,29.41,38.177,27.096,35.151z"/><path fill="#118bef" d="M31,10v15.48l-7.82-7.82c-0.87-0.87-1.45-1.45-1.83-1.87c-1.51-1.23-2.31-2.9-2.31-4.66	c0-0.66,0.12-1.33,0.35-2c0.88-2.53,3.38-4.37,5.94-4.37c1.46,0,2.85,0.55,4,1.58l1.09,1.09c0.24,0.5,0.42,1.05,0.5,1.63	C30.97,9.36,31,9.68,31,10z" opacity=".1"/><path fill="#118bef" d="M31,10v14.35l-7.25-7.25c-0.89-0.89-1.47-1.47-1.85-1.89l-0.03-0.02	c-1.82-1.45-2.47-3.67-1.73-5.79c0.78-2.22,2.96-3.84,5.19-3.84c1.26,0,2.46,0.48,3.47,1.38l2.12,2.12C30.97,9.36,31,9.68,31,10z" opacity=".2"/><path fill="#118bef" d="M31,10.28v12.94l-6.69-6.69c-0.9-0.9-1.49-1.5-1.88-1.92l-0.09-0.07	c-1.52-1.21-2.07-3.08-1.44-4.88c0.67-1.91,2.53-3.3,4.43-3.3c1.06,0,2.08,0.41,2.93,1.18L31,10.28z" opacity=".3"/><path fill="#118bef" d="M31,11.4v10.69l-6.12-6.13c-1.05-1.04-1.67-1.66-2.02-2.07l-0.02,0.03	c-1.27-1.01-1.71-2.5-1.19-4c0.56-1.6,2.11-2.76,3.68-2.76c0.86,0,1.69,0.34,2.4,0.97L31,11.4z" opacity=".4"/><linearGradient id="G3UGDVz4978FIzq3LMBucb" x1="49.995" x2="14.005" y1="24.048" y2="11.434" gradientUnits="userSpaceOnUse"><stop offset="0" stop-color="#97f8ff"/><stop offset=".217" stop-color="#6adcfe"/><stop offset=".467" stop-color="#3cc1fd"/><stop offset=".69" stop-color="#1badfd"/><stop offset=".875" stop-color="#07a0fc"/><stop offset="1" stop-color="#009cfc"/></linearGradient><path fill="url(#G3UGDVz4978FIzq3LMBucb)" d="M44.295,25.818C41.787,23.31,27.5,9.031,27.197,8.728c-2.922-2.615-6.918,2.126-3.861,4.565	c0,0,7.831,7.831,12.898,12.898c2.203,2.203,5.698,2.318,8.041,0.352C44.494,26.359,44.497,26.02,44.295,25.818z"/><path fill="#118bef" d="M33,14.53v8.43c-0.13-0.13-0.26-0.27-0.4-0.4c-0.13-0.13-0.26-0.27-0.4-0.4	c-0.13-0.14-0.26-0.27-0.4-0.4c-0.13-0.14-0.27-0.27-0.4-0.41c-4.11-4.11-8.06-8.06-8.06-8.06c-3.06-2.44,0.94-7.18,3.86-4.56	c0.1,0.1,1.85,1.85,4.2,4.2c0.13,0.13,0.26,0.26,0.4,0.39c0.13,0.14,0.26,0.27,0.4,0.41c0.13,0.13,0.27,0.26,0.4,0.4L33,14.53z" opacity=".05"/><path fill="#118bef" d="M32.6,14.13v8.43c-0.13-0.13-0.26-0.27-0.4-0.4c-0.13-0.14-0.26-0.27-0.4-0.4	c-0.13-0.14-0.27-0.27-0.4-0.41c-4.11-4.11-8.06-8.06-8.06-8.06c-3.06-2.44,0.94-7.18,3.86-4.56c0.1,0.1,1.85,1.85,4.2,4.2	c0.13,0.13,0.26,0.26,0.4,0.39c0.13,0.14,0.26,0.27,0.4,0.41C32.33,13.86,32.47,13.99,32.6,14.13z" opacity=".1"/><path fill="#118bef" d="M32.2,13.73v8.43c-0.13-0.14-0.26-0.27-0.4-0.4c-0.13-0.14-0.27-0.27-0.4-0.41	c-4.11-4.11-8.06-8.06-8.06-8.06c-3.06-2.44,0.94-7.18,3.86-4.56c0.1,0.1,1.85,1.85,4.2,4.2c0.13,0.13,0.26,0.26,0.4,0.39	C31.93,13.46,32.06,13.59,32.2,13.73z" opacity=".2"/><path fill="#118bef" d="M31.8,13.32v8.44c-0.13-0.14-0.27-0.27-0.4-0.41c-4.11-4.11-8.06-8.06-8.06-8.06	c-3.06-2.44,0.94-7.18,3.86-4.56c0.1,0.1,1.85,1.85,4.2,4.2C31.53,13.06,31.66,13.19,31.8,13.32z" opacity=".3"/><path fill="#118bef" d="M31.4,12.93v8.42c-4.11-4.11-8.06-8.06-8.06-8.06c-3.06-2.44,0.94-7.18,3.86-4.56	C27.3,8.83,29.05,10.58,31.4,12.93z" opacity=".4"/><path fill="#118bef" d="M27.1,35.15c2.31,3.02-1.9,6.61-4.53,3.9l-3.97-4.12l-0.4-0.42l-0.4-0.41l-0.4-0.42	L17,33.27V24.7c0.13,0.13,0.26,0.27,0.4,0.41c0.13,0.14,0.26,0.28,0.4,0.42c0.13,0.13,0.26,0.27,0.4,0.41	c0.13,0.13,0.26,0.27,0.4,0.41C22.27,30.15,27.01,35.06,27.1,35.15z" opacity=".05"/><path fill="#118bef" d="M27.1,35.15c2.31,3.02-1.9,6.61-4.53,3.9l-3.97-4.12l-0.4-0.42l-0.4-0.41l-0.4-0.42	v-8.57c0.13,0.14,0.26,0.28,0.4,0.42c0.13,0.13,0.26,0.27,0.4,0.41c0.13,0.13,0.26,0.27,0.4,0.41	C22.27,30.15,27.01,35.06,27.1,35.15z" opacity=".1"/><path fill="#118bef" d="M27.1,35.15c2.31,3.02-1.9,6.61-4.53,3.9l-3.97-4.12l-0.4-0.42l-0.4-0.41v-8.57	c0.13,0.13,0.26,0.27,0.4,0.41c0.13,0.13,0.26,0.27,0.4,0.41C22.27,30.15,27.01,35.06,27.1,35.15z" opacity=".2"/><path fill="#118bef" d="M27.1,35.15c2.31,3.02-1.9,6.61-4.53,3.9l-3.97-4.12l-0.4-0.42v-8.57	c0.13,0.13,0.26,0.27,0.4,0.41C22.27,30.15,27.01,35.06,27.1,35.15z" opacity=".3"/><path fill="#118bef" d="M27.1,35.15c2.31,3.02-1.9,6.61-4.53,3.9l-3.97-4.12v-8.58	C22.27,30.15,27.01,35.06,27.1,35.15z" opacity=".4"/><linearGradient id="G3UGDVz4978FIzq3LMBucc" x1="25" x2="25" y1="8.831" y2="40.328" gradientUnits="userSpaceOnUse"><stop offset="0" stop-color="#daa6ff" stop-opacity=".6"/><stop offset="1" stop-color="#dca6ff" stop-opacity=".4"/></linearGradient><path fill="url(#G3UGDVz4978FIzq3LMBucc)" d="M25,44L25,44c3.314,0,6-2.686,6-6V10c0-3.314-2.686-6-6-6h0c-3.314,0-6,2.686-6,6v28	C19,41.314,21.686,44,25,44z"/><linearGradient id="G3UGDVz4978FIzq3LMBucd" x1="25" x2="25" y1="47.234" y2="-.175" gradientUnits="userSpaceOnUse"><stop offset="0" stop-color="#daa6ff" stop-opacity=".6"/><stop offset="1" stop-color="#f6e9ff" stop-opacity=".1"/></linearGradient><path fill="url(#G3UGDVz4978FIzq3LMBucd)" d="M25,4.5c3.033,0,5.5,2.467,5.5,5.5v28c0,3.033-2.467,5.5-5.5,5.5c-3.033,0-5.5-2.467-5.5-5.5	V10C19.5,6.967,21.967,4.5,25,4.5 M25,4L25,4c-3.314,0-6,2.686-6,6v28c0,3.314,2.686,6,6,6h0c3.314,0,6-2.686,6-6V10	C31,6.686,28.314,4,25,4L25,4z"/></svg>