<svg width="100%" height="100%" viewBox="0 0 48 48" xmlns="http://www.w3.org/2000/svg" xmlns:xlink="http://www.w3.org/1999/xlink"><defs><style>
.cls-1 {fill: url(#linear-gradient-2);}.cls-2 {fill: url(#linear-gradient-17);}.cls-3 {fill: url(#linear-gradient-15);}.cls-4 {fill: url(#linear-gradient-18);}.cls-5 {fill: url(#linear-gradient-14);}.cls-6 {fill: url(#linear-gradient-20);}.cls-7 {fill: url(#linear-gradient-6);}.cls-8 {fill: url(#linear-gradient-11);}.cls-9 {fill: url(#linear-gradient-10);}.cls-10 {fill: url(#linear-gradient-16);}.cls-11 {fill: url(#linear-gradient-5);}.cls-12 {fill: url(#linear-gradient-7);}.cls-13 {fill: url(#linear-gradient-9);}.cls-14 {fill: url(#linear-gradient-3);}.cls-15 {fill: url(#linear-gradient);}.cls-16 {fill: url(#linear-gradient-19);}.cls-17 {fill: url(#linear-gradient-4);}.cls-18 {fill: url(#linear-gradient-8);}.cls-19 {fill: url(#linear-gradient-12);}.cls-20 {fill: url(#linear-gradient-13);}
</style><linearGradient id="linear-gradient" x1="24" y1="-8.57" x2="24" y2="46.11" gradientUnits="userSpaceOnUse"><stop offset="0" stop-color="#f2fcff"/><stop offset=".55" stop-color="#c1f3f9"/><stop offset=".97" stop-color="#baccfd"/></linearGradient><linearGradient id="linear-gradient-2" x1="24" y1="-8.85" x2="24" y2="45.67" gradientUnits="userSpaceOnUse"><stop offset="0" stop-color="#effbff"/><stop offset=".55" stop-color="#b3f0f8"/><stop offset=".97" stop-color="#abc1fd"/></linearGradient><linearGradient id="linear-gradient-3" x1="24" y1="-9.11" x2="24" y2="45.23" gradientUnits="userSpaceOnUse"><stop offset="0" stop-color="#ecfbff"/><stop offset=".55" stop-color="#a5edf7"/><stop offset=".97" stop-color="#9bb5fc"/></linearGradient><linearGradient id="linear-gradient-4" x1="24" y1="-9.34" x2="24" y2="44.8" gradientUnits="userSpaceOnUse"><stop offset="0" stop-color="#eafaff"/><stop offset=".55" stop-color="#98ebf5"/><stop offset=".97" stop-color="#8caafc"/></linearGradient><linearGradient id="linear-gradient-5" x1="24" y1="-9.54" x2="24" y2="44.37" gradientUnits="userSpaceOnUse"><stop offset="0" stop-color="#e7f9ff"/><stop offset=".55" stop-color="#8ae8f4"/><stop offset=".97" stop-color="#7c9ffc"/></linearGradient><linearGradient id="linear-gradient-6" x1="24" y1="-9.72" x2="24" y2="43.94" gradientUnits="userSpaceOnUse"><stop offset="0" stop-color="#e4f9fe"/><stop offset=".55" stop-color="#7ce5f3"/><stop offset=".97" stop-color="#6d93fb"/></linearGradient><linearGradient id="linear-gradient-7" x1="24" y1="-9.86" x2="24" y2="43.51" gradientUnits="userSpaceOnUse"><stop offset="0" stop-color="#e1f8fe"/><stop offset=".55" stop-color="#6ee2f2"/><stop offset=".97" stop-color="#5d88fb"/></linearGradient><linearGradient id="linear-gradient-8" x1="24" y1="-9.98" x2="24" y2="43.09" gradientUnits="userSpaceOnUse"><stop offset="0" stop-color="#dff7fe"/><stop offset=".55" stop-color="#61e0f0"/><stop offset=".97" stop-color="#4e7dfb"/></linearGradient><linearGradient id="linear-gradient-9" x1="24" y1="-10.07" x2="24" y2="42.67" gradientUnits="userSpaceOnUse"><stop offset="0" stop-color="#dcf7fe"/><stop offset=".55" stop-color="#53ddef"/><stop offset=".97" stop-color="#3e71fa"/></linearGradient><linearGradient id="linear-gradient-10" x1="24" y1="-10.13" x2="24" y2="42.25" gradientUnits="userSpaceOnUse"><stop offset="0" stop-color="#d9f6fe"/><stop offset=".55" stop-color="#45daee"/><stop offset=".97" stop-color="#2f66fa"/></linearGradient><linearGradient id="linear-gradient-11" x1="28.49" y1="20.52" x2="18.05" y2="31.22" gradientUnits="userSpaceOnUse"><stop offset="0" stop-color="#f8fdff"/><stop offset="1" stop-color="#e2fbff"/></linearGradient><linearGradient id="linear-gradient-12" x1="28.53" y1="20.53" x2="17.7" y2="31.55" gradientUnits="userSpaceOnUse"><stop offset="0" stop-color="#f6fdff"/><stop offset="1" stop-color="#dcfaff"/></linearGradient><linearGradient id="linear-gradient-13" x1="28.56" y1="20.54" x2="17.34" y2="31.86" gradientUnits="userSpaceOnUse"><stop offset="0" stop-color="#f5fcff"/><stop offset="1" stop-color="#d5f9ff"/></linearGradient><linearGradient id="linear-gradient-14" x1="28.58" y1="20.56" x2="17.02" y2="32.14" gradientUnits="userSpaceOnUse"><stop offset="0" stop-color="#f3fcff"/><stop offset="1" stop-color="#cff9ff"/></linearGradient><linearGradient id="linear-gradient-15" x1="28.63" y1="20.55" x2="16.7" y2="32.4" gradientUnits="userSpaceOnUse"><stop offset="0" stop-color="#f2fcff"/><stop offset="1" stop-color="#c8f8ff"/></linearGradient><linearGradient id="linear-gradient-16" x1="28.66" y1="20.57" x2="16.42" y2="32.64" gradientUnits="userSpaceOnUse"><stop offset="0" stop-color="#f0fbfe"/><stop offset="1" stop-color="#c2f7ff"/></linearGradient><linearGradient id="linear-gradient-17" x1="28.67" y1="20.58" x2="16.14" y2="32.85" gradientUnits="userSpaceOnUse"><stop offset="0" stop-color="#effbfe"/><stop offset="1" stop-color="#bbf6ff"/></linearGradient><linearGradient id="linear-gradient-18" x1="28.69" y1="20.6" x2="15.88" y2="33.04" gradientUnits="userSpaceOnUse"><stop offset="0" stop-color="#edfbfe"/><stop offset="1" stop-color="#b5f6ff"/></linearGradient><linearGradient id="linear-gradient-19" x1="28.69" y1="20.61" x2="15.63" y2="33.19" gradientUnits="userSpaceOnUse"><stop offset="0" stop-color="#ecfafe"/><stop offset="1" stop-color="#aef5ff"/></linearGradient><linearGradient id="linear-gradient-20" x1="28.69" y1="20.61" x2="15.39" y2="33.33" gradientUnits="userSpaceOnUse"><stop offset="0" stop-color="#eafafe"/><stop offset="1" stop-color="#a8f4ff"/></linearGradient></defs><g><circle class="cls-15" cx="24" cy="24" r="20"/><circle class="cls-1" cx="24" cy="24" r="19.67"/><circle class="cls-14" cx="24" cy="24" r="19.33"/><circle class="cls-17" cx="24" cy="24" r="19"/><circle class="cls-11" cx="24" cy="24" r="18.67"/><circle class="cls-7" cx="24" cy="24" r="18.33"/><circle class="cls-12" cx="24" cy="24" r="18"/><circle class="cls-18" cx="24" cy="24" r="17.67"/><circle class="cls-13" cx="24" cy="24" r="17.33"/><circle class="cls-9" cx="24" cy="24" r="17"/></g><g><path class="cls-8" d="m11.55,23.72c6.99-3.08,16.04-6.82,17.28-7.34,3.28-1.36,4.28-1.1,3.78,1.91-.36,2.16-1.4,9.32-2.23,13.77-.49,2.64-1.59,2.96-3.33,1.81-.83-.55-5.04-3.33-5.95-3.98-.83-.59-1.98-1.31-.54-2.72.51-.5,3.87-3.71,6.49-6.21.34-.33-.09-.87-.48-.6-3.53,2.34-8.42,5.59-9.05,6.01-.94.64-1.85.93-3.47.47-1.23-.35-2.42-.77-2.89-.93-1.8-.62-1.37-1.41.37-2.18Z"/><path class="cls-19" d="m32.44,18.34c-.32,1.92-1.45,9.7-2.19,13.66-.29,1.56-.87,2.23-1.64,2.24-.42,0-1.03-.25-1.6-.63-.74-.49-4.92-3.26-5.73-3.84-.46-.33-.94-.74-1.06-1.22-.1-.37.12-.92.69-1.48.36-.35,2.76-2.68,4.71-4.53.58-.56,1.11-1.15,1.56-1.69.15-.17.1-.4-.03-.54h0c-.12-.12-.3-.17-.48-.07-.47.25-.98.55-1.48.88-2.92,1.94-7.03,4.66-7.51,4.98-.49.34-1.15.65-1.76.72-.47.05-1.01.03-1.66-.14-.51-.13-1.01-.27-1.46-.42-.56-.18-1.16-.39-1.4-.48-.64-.22-.94-.51-1.01-.76-.11-.41.53-.9,1.5-1.33,6.21-2.73,15.68-6.61,16.79-7.07,1.5-.62,2.72-.94,3.25-.68s.75,1.02.52,2.4Z"/><path class="cls-20" d="m32.26,18.39c-.28,1.68-1.51,10.09-2.15,13.55-.26,1.46-.88,2.06-1.64,2.05-.37,0-1.02-.31-1.53-.64-.65-.43-4.8-3.19-5.51-3.7-.46-.33-.86-.77-.95-1.24-.06-.32.25-.95.75-1.44.31-.31,2.95-2.88,4.65-4.51.58-.56,1.05-1.18,1.4-1.73.12-.17.06-.39-.08-.53h0c-.12-.12-.3-.18-.48-.1-.48.2-.99.46-1.49.79-2.56,1.7-7.03,4.64-7.45,4.93-.43.29-1.2.68-1.73.75-.47.06-1,.08-1.63-.06-.5-.11-1-.24-1.45-.39-.49-.16-1.18-.4-1.39-.47-.6-.21-.88-.52-.88-.76-.12-.35.65-.86,1.5-1.23,5.44-2.39,15.32-6.39,16.29-6.79,1.31-.54,2.66-.91,3.14-.71.56.23.83.93.62,2.23Z"/><path class="cls-5" d="m32.08,18.45c-.24,1.44-1.56,10.47-2.12,13.44-.24,1.36-.89,1.9-1.63,1.86-.31-.02-1.02-.36-1.45-.64-.56-.37-4.68-3.12-5.29-3.56-.47-.33-.86-.8-.83-1.27-.09-.27.37-.98.8-1.4.27-.26,3.14-3.08,4.59-4.48.57-.55.99-1.21,1.23-1.77.09-.17.02-.38-.12-.52h0c-.12-.12-.3-.18-.47-.12-.48.14-1,.37-1.5.69-2.19,1.45-7.03,4.63-7.39,4.87-.37.25-1.24.71-1.7.78s-.99.13-1.61.02c-.49-.08-.99-.21-1.44-.36-.42-.14-1.2-.41-1.38-.47-.57-.2-.81-.53-.76-.76-.11-.3.78-.82,1.5-1.14,4.66-2.05,14.96-6.17,15.8-6.52,1.13-.47,2.61-.88,3.03-.74.58.2.91.85.72,2.06Z"/><path class="cls-3" d="m31.89,18.5c-.2,1.2-1.62,10.85-2.08,13.33-.22,1.25-.89,1.73-1.63,1.67-.26-.02-1.02-.41-1.37-.65-.46-.31-4.56-3.05-5.07-3.42-.47-.33-.81-.83-.72-1.29-.07-.22.5-1.01.85-1.36.22-.22,3.32-3.29,4.53-4.45.57-.55.93-1.24,1.07-1.81.06-.17-.02-.37-.16-.5h0c-.12-.12-.29-.18-.46-.14-.48.08-1.02.28-1.51.6-1.83,1.21-7.02,4.61-7.32,4.81-.31.21-1.29.74-1.67.82-.47.09-.98.19-1.58.1-.49-.06-.98-.18-1.42-.33-.35-.12-1.22-.42-1.37-.47-.53-.18-.74-.55-.63-.76-.09-.25.9-.78,1.5-1.04,3.88-1.71,14.61-5.95,15.3-6.24.94-.39,2.59-.94,2.92-.76.62.05,1,.76.82,1.89Z"/><path class="cls-10" d="m31.71,18.56c-.16.96-1.67,11.23-2.04,13.21-.2,1.15-.92,1.69-1.62,1.47-.21.01-1.01-.47-1.3-.66-.37-.24-4.44-2.98-4.85-3.27-.47-.33-.75-.86-.6-1.31-.06-.18.62-1.04.91-1.32.18-.18,3.5-3.49,4.47-4.43.57-.55.86-1.26.91-1.85.03-.17-.06-.36-.2-.49h0c-.12-.11-.29-.18-.45-.17-.49.02-1.03.19-1.52.51-1.46.97-7.02,4.59-7.26,4.76-.25.17-1.34.78-1.64.85-.48.11-.98.24-1.55.18-.48-.04-.96-.15-1.41-.29-.28-.09-1.23-.43-1.36-.47-.5-.17-.66-.56-.51-.76-.07-.2,1.02-.73,1.5-.95,3.11-1.37,14.25-5.73,14.81-5.96.75-.31,2.55-.93,2.81-.79.63-.02,1.08.67.91,1.73Z"/><path class="cls-2" d="m31.53,18.61c-.12.72-1.73,11.62-2,13.1-.18,1.05-.93,1.55-1.62,1.28-.16,0-1.01-.52-1.22-.66-.28-.18-4.32-2.91-4.63-3.13-.47-.33-.7-.9-.49-1.34-.04-.13.75-1.06.96-1.27.13-.13,3.69-3.7,4.41-4.4.56-.55.8-1.29.74-1.89,0-.17-.1-.34-.24-.48h0c-.13-.11-.29-.19-.45-.19-.49-.04-1.05.1-1.53.42-1.1.72-7.02,4.58-7.2,4.7-.19.13-1.38.83-1.61.88-.48.12-.97.29-1.53.26-.47-.02-.95-.11-1.4-.26-.21-.07-1.25-.43-1.34-.46-.46-.16-.59-.58-.38-.76-.05-.15,1.14-.69,1.5-.85,2.33-1.03,13.89-5.51,14.31-5.69.56-.23,2.5-.92,2.7-.82.65-.08,1.17.58,1.01,1.56Z"/><path class="cls-4" d="m31.35,18.67c-.08.48-1.78,12-1.97,12.99-.16.95-.95,1.41-1.61,1.09-.1,0-1.01-.57-1.15-.67-.19-.12-4.21-2.84-4.41-2.99-.47-.32-.65-.93-.37-1.36-.03-.09.87-1.09,1.02-1.23.09-.09,3.87-3.9,4.35-4.37.56-.55.74-1.32.58-1.93-.03-.16-.14-.33-.28-.46h0c-.13-.11-.28-.19-.44-.21-.49-.1-1.06,0-1.54.32-.73.48-7.01,4.56-7.13,4.65-.12.08-1.42.9-1.58.92-.45.23-.96.35-1.5.34-.47,0-.94-.08-1.39-.23-.14-.05-1.27-.44-1.33-.46-.43-.15-.51-.6-.26-.76-.04-.1,1.26-.65,1.5-.76,1.55-.68,13.54-5.3,13.82-5.41.38-.16,2.46-.91,2.59-.84.66-.14,1.25.49,1.11,1.39Z"/><path class="cls-16" d="m31.17,18.72c-.04.24-1.84,12.38-1.93,12.88-.13.85-.96,1.27-1.61.89-.05,0-1-.63-1.07-.68-.09-.06-4.09-2.77-4.19-2.85-.47-.32-.59-.96-.26-1.39-.01-.04,1-1.12,1.07-1.19.04-.04,4.05-4.11,4.29-4.34.55-.55.68-1.35.41-1.97-.06-.16-.18-.32-.33-.45h0c-.13-.11-.28-.19-.43-.24-.5-.15-1.07-.08-1.55.23-.37.24-7.01,4.55-7.07,4.59-.06.04-1.47.94-1.55.95-.45.26-.95.4-1.48.42-.46.02-.93-.05-1.37-.2-.07-.02-1.29-.45-1.32-.46-.39-.14-.44-.61-.13-.76-.02-.05,1.38-.61,1.5-.66.78-.34,13.18-5.08,13.32-5.14.19-.08,2.41-.91,2.48-.87.68-.2,1.34.41,1.21,1.22Z"/><path class="cls-6" d="m14.31,25.26c.94.33,1.98.2,2.82-.34l8.52-5.51c.62-.4,1.42-.35,1.98.12h0c.74.63.8,1.75.12,2.45l-5.35,5.46c-.4.41-.34,1.09.14,1.41l4.97,3.39c.63.43,1.49.05,1.6-.7l1.89-12.77c.11-.74-.61-1.32-1.31-1.06l-16.69,6.32c-.35.13-.35.64,0,.76l1.31.46Z"/></g></svg>