<svg xmlns="http://www.w3.org/2000/svg" width="100%" height="100%" viewBox="0 0 256 256"><defs><linearGradient id="a" x1="26.92" x2="26.92" y1="44.234" y2="10.812" gradientUnits="userSpaceOnUse"><stop offset="0" stop-color="#c99fff"/><stop offset=".219" stop-color="#be85ff"/><stop offset="1" stop-color="#962aff" stop-opacity=".859"/></linearGradient><linearGradient id="b" x1="24" x2="24" y1="50.935" y2="9.301" gradientUnits="userSpaceOnUse"><stop offset="0" stop-color="#04afff" stop-opacity=".2"/><stop offset="1" stop-color="#038bff" stop-opacity=".4"/></linearGradient><linearGradient id="c" x1="25.331" x2="15.306" y1="26.015" y2="9.74" gradientUnits="userSpaceOnUse"><stop offset="0" stop-color="#fff" stop-opacity=".3"/><stop offset="1" stop-color="#e5f3ff" stop-opacity="0"/></linearGradient></defs><g fill="none" stroke-miterlimit="10" font-family="none" font-size="none" font-weight="none" style="mix-blend-mode:normal" text-anchor="none"><path fill="url(#a)" d="M23.58 42.083c-.413-.658-.579-1.442-.579-2.219L23 5a1 1 0 0 1 2 0l.001 34.846c0 1.022.693 1.99 1.705 2.135a2.003 2.003 0 0 0 2.194-1.355c.128-.389.528-.624.937-.624.663 0 1.166.647.954 1.274A4.005 4.005 0 0 1 27 44c-1.379 0-2.651-.69-3.42-1.917z" transform="scale(5.33333)"/><path fill="#6817dd" fill-opacity=".49" d="M122.661 32.272v112.07c1.77-.267 3.547-.427 5.328-.427 1.782 0 3.568.16 5.339.432V32.277c-1.776-.096-3.536-.277-5.333-.277-1.798 0-3.558.181-5.334.272z" opacity=".05"/><path fill="#6817dd" fill-opacity=".49" d="M122.661 34.395v107.813c1.77-.261 3.547-.41 5.328-.41 1.782 0 3.568.154 5.339.41V34.395c-1.776-.091-3.536-.262-5.333-.262-1.798 0-3.558.171-5.334.262z" opacity=".15"/><path fill="#6817dd" fill-opacity=".49" d="M122.661 36.517v103.558c1.77-.251 3.547-.395 5.328-.395 1.782 0 3.568.15 5.339.395V36.517c-1.776-.085-3.536-.25-5.333-.25-1.798 0-3.558.165-5.334.25z" opacity=".2"/><path fill="#6817dd" fill-opacity=".49" d="M122.661 38.64v99.301c1.77-.24 3.547-.378 5.328-.378 1.782 0 3.568.144 5.339.378V38.64c-1.776-.08-3.536-.24-5.333-.24-1.798 0-3.558.16-5.334.24z" opacity=".25"/><path fill="#6817dd" fill-opacity=".49" d="M122.661 40.763v95.045a41.46 41.46 0 0 1 5.328-.363c1.782 0 3.568.134 5.339.363V40.763c-1.776-.08-3.536-.23-5.333-.23-1.798 0-3.558.155-5.334.23z" opacity=".3"/><path fill="#ac64ff" d="m106.667 44.56.005 93.51c6.47-2.662 13.899-4.742 21.328-4.742 7.435 0 14.864 2.085 21.339 4.747l-.006-93.515A122.354 122.354 0 0 0 128 42.667c-7.307 0-14.427.672-21.333 1.893z" opacity=".1"/><path fill="#ac64ff" d="m110.667 44.016.005 92.57c5.456-1.893 11.381-3.253 17.328-3.253 5.952 0 11.877 1.36 17.339 3.259l-.006-92.576c-5.658-.81-11.418-1.35-17.333-1.35-5.915 0-11.675.54-17.333 1.35z" opacity=".2"/><path fill="#ac64ff" d="M114.667 43.467v91.888c4.309-1.206 8.805-2.027 13.328-2.027 4.528 0 9.029.821 13.338 2.027V43.467c-4.378-.48-8.81-.8-13.333-.8s-8.955.32-13.333.8z" opacity=".3"/><path fill="#ac64ff" d="M118.667 43.088v91.296c3.066-.63 6.192-1.056 9.328-1.056 3.14 0 6.266.427 9.338 1.056V43.088c-3.082-.235-6.181-.421-9.333-.421s-6.25.186-9.333.421z" opacity=".4"/><path fill="#b383ff" fill-opacity=".541" d="M122.661 42.885v90.79a43.452 43.452 0 0 1 5.328-.347c1.782 0 3.568.128 5.339.347v-90.79c-1.776-.074-3.536-.218-5.333-.218-1.798 0-3.558.144-5.334.218z"/><path fill="url(#b)" d="M42.877 26.457c.932.544 2.075-.251 1.926-1.32C43.399 15.044 34.619 8 24 8 13.381 8 4.601 15.044 3.196 25.137c-.149 1.069.994 1.864 1.926 1.32 1.261-.736 2.981-1.458 4.878-1.458 2.62 0 4.566 1.379 5.548 2.268.44.398 1.081.456 1.579.134C18.483 26.525 21.242 25 23.999 25c2.757 0 5.516 1.526 6.872 2.401.498.322 1.14.264 1.579-.134.981-.888 2.927-2.268 5.548-2.268 1.898 0 3.619.722 4.879 1.458z" transform="scale(5.33333)"/><path fill="url(#c)" d="M24 8.5c10.42 0 18.961 7.026 20.308 16.706a.816.816 0 0 1-.793.927.757.757 0 0 1-.386-.108c-1.735-1.013-3.461-1.526-5.13-1.526-2.815 0-4.894 1.502-5.883 2.397a.808.808 0 0 1-.543.212.79.79 0 0 1-.43-.128c-1.436-.927-4.272-2.481-7.144-2.481s-5.708 1.555-7.144 2.481a.79.79 0 0 1-.43.128.81.81 0 0 1-.543-.212c-.989-.895-3.068-2.397-5.883-2.397-1.669 0-3.395.513-5.13 1.526a.761.761 0 0 1-.386.108.816.816 0 0 1-.793-.927C5.039 15.526 13.58 8.5 24 8.5m0-.5C13.381 8 4.601 15.044 3.196 25.137a1.314 1.314 0 0 0 1.288 1.496c.212 0 .43-.055.638-.176 1.261-.736 2.981-1.458 4.878-1.458 2.62 0 4.566 1.379 5.548 2.268.249.225.563.342.878.342.242 0 .485-.068.701-.208C18.483 26.525 21.242 25 23.999 25c2.757 0 5.516 1.526 6.872 2.401.216.14.459.208.701.208.316 0 .629-.116.878-.342.981-.888 2.927-2.268 5.548-2.268 1.897 0 3.618.722 4.878 1.458.208.121.426.176.638.176.739 0 1.404-.665 1.288-1.496C43.399 15.044 34.619 8 24 8z" transform="scale(5.33333)"/></g></svg>