<svg xmlns="http://www.w3.org/2000/svg" xml:space="preserve" width="100%" height="100%" stroke-miterlimit="10" style="fill-rule:nonzero;clip-rule:evenodd;stroke-linecap:round;stroke-linejoin:round" version="1.1" viewBox="7.571 14.91 404.859 390.18"><defs><linearGradient id="b" x1="0" x2="1" y1="0" y2="0" gradientTransform="matrix(313.987 75.6972 273.565 -626.213 91.561 132.678)" gradientUnits="userSpaceOnUse"><stop offset=".176" stop-color="#fff"/><stop offset=".554" stop-color="#969696" stop-opacity=".39"/><stop offset="1" stop-color="#595959" stop-opacity=".05"/></linearGradient><linearGradient id="c" x1="0" x2="1" y1="0" y2="0" gradientTransform="matrix(114.937 -121.536 -206.137 -282.776 129.797 258.422)" gradientUnits="userSpaceOnUse"><stop offset="0" stop-color="#fff"/><stop offset=".73" stop-color="#969696" stop-opacity=".492"/><stop offset="1" stop-color="#595959" stop-opacity=".2"/></linearGradient><linearGradient id="d" x1="0" x2="1" y1="0" y2="0" gradientTransform="matrix(25.8263 -90.3678 321.887 2.58634 156.229 238.6)" gradientUnits="userSpaceOnUse"><stop offset="0" stop-color="#fff"/><stop offset=".617" stop-color="#969696" stop-opacity=".492"/><stop offset="1" stop-color="#595959" stop-opacity="0"/></linearGradient><radialGradient id="a" cx="0" cy="0" r="1" gradientTransform="matrix(264.365 -165.615 156.741 279.334 120.854 215.079)" gradientUnits="userSpaceOnUse"><stop offset="0" stop-color="#fff" stop-opacity=".8"/><stop offset=".714" stop-color="#969696" stop-opacity=".29"/><stop offset="1" stop-color="#595959" stop-opacity="0"/></radialGradient></defs><g fill-rule="nonzero" stroke="none" opacity="1"><path fill="url(#a)" d="M209.477 32.1451C196.375 32.1451 183.649 33.7259 171.39 36.5554C150.567 41.3618 131.241 50.0489 114.055 61.7844C113.154 62.4002 112.254 63.0204 111.364 63.6532C100.012 73.0005 96.1658 95.1806 102.768 126.557C106.371 143.684 112.897 162.324 121.83 181.463C122.847 178.733 123.883 176.012 124.969 173.277C139.958 135.539 159.02 102.364 179.763 76.1368C179.785 76.1086 179.815 76.0903 179.837 76.062C182.976 72.0962 186.159 68.3677 189.368 64.7371C189.944 64.0886 190.51 63.4309 191.088 62.7935C194.366 59.1607 197.66 55.7025 200.992 52.4403C201.017 52.4163 201.043 52.3896 201.067 52.3656C208.718 44.8834 216.454 38.1737 224.24 32.8178C219.373 32.3955 214.452 32.1451 209.477 32.1451ZM270.026 46.7218C256.993 47.9148 240.489 57.1415 222.745 74.567C196.819 100.029 172.039 139.338 153.973 184.827C150.324 194.016 147.075 203.455 144.181 212.577C164.794 214.334 187.06 215.101 210 215.101C213.39 215.101 216.668 214.996 220.017 214.952C227.474 214.852 234.812 214.659 242.031 214.354C246.649 214.16 251.318 213.991 255.823 213.718C255.913 213.713 255.995 213.724 256.085 213.718C265.002 213.175 273.603 212.442 282.024 211.625C287.55 211.085 293.045 210.517 298.32 209.869C309.933 208.441 320.793 206.786 330.762 204.823C333.395 204.304 336.41 203.881 338.91 203.328C354.736 199.825 367.2 195.743 375.203 191.554C377.199 190.51 378.657 189.612 379.875 188.714C379.833 188.69 379.793 188.661 379.763 188.639C379.818 188.65 379.865 188.663 379.912 188.676C379.923 188.668 379.938 188.647 379.949 188.639L380.062 188.639C379.674 184.906 378.976 181.28 378.38 177.613C377.811 174.263 377.121 170.565 376.287 166.662C375.188 161.818 374.058 156.979 372.549 152.309C364.949 128.787 352.493 107.564 336.518 89.6296C322.342 73.7143 305.369 60.4234 286.322 50.6836C284.351 49.6757 282.356 48.7376 280.342 47.8057C277.201 46.8029 273.801 46.3762 270.026 46.7218ZM68.6434 107.084C59.1027 121 51.4454 136.332 46.1803 152.795C42.4956 164.317 40.0855 176.399 38.8172 188.826C38.8007 188.988 40.2028 188.836 40.088 188.751C41.3195 189.665 42.801 190.602 44.8348 191.667C52.8376 195.855 65.3013 199.937 81.127 203.44C90.6409 205.546 101.32 207.318 112.598 208.897C108.128 208.283 103.791 207.535 99.5161 206.804C81.2149 171.127 70.4967 136.454 68.6434 107.084ZM38.4808 221.792C42.5097 269.941 65.8251 312.405 100.413 341.47C94.7016 312.913 96.3077 276.818 104.959 237.916C94.0573 236.322 83.7305 234.675 74.3245 232.593C60.2274 229.473 48.222 225.873 38.4808 221.792ZM380.435 222.278C370.9 226.164 359.259 229.595 345.713 232.593C344.94 232.764 344.069 232.912 343.283 233.079C333.999 235.051 323.928 236.753 313.27 238.275C313.29 238.222 313.326 238.177 313.345 238.125C312.809 238.201 312.314 238.274 311.775 238.349C301.177 239.833 289.839 240.999 278.211 242.012C278.181 242.085 278.167 242.164 278.137 242.236C274.363 242.557 270.332 242.713 266.475 242.984C264.075 243.154 261.657 243.284 259.224 243.432C252.178 243.864 245.12 244.265 237.845 244.516C236.232 244.571 234.572 244.583 232.949 244.629C225.349 244.846 217.799 245.114 210 245.114C192.209 245.114 175.086 244.4 158.421 243.358C158.445 243.395 158.469 243.433 158.496 243.47C187.039 283.034 220.599 314.982 251.899 333.247C279.429 349.313 301.564 352.671 314.055 345.021C315.113 344.192 316.231 343.444 317.27 342.591C333.921 328.915 347.905 312.09 358.57 293.068C370.469 271.845 378.222 247.893 380.435 222.278ZM132.332 260.551C129.135 278.997 127.768 296.486 128.37 312.205C129.614 344.63 138.909 365.331 152.403 371.408C153.275 371.722 154.142 372.044 155.02 372.343C172.149 378.181 190.409 381.5 209.477 381.5C212.853 381.5 216.165 381.21 219.494 381.014C234.331 380.142 248.626 377.249 262.214 372.791C220.281 356.851 172.746 316.625 133.155 261.747C132.868 261.35 132.617 260.948 132.332 260.551Z" opacity=".5"/><g opacity="1"><path fill="url(#b)" d="M272.231 14.9147C256.75 15.1064 240.398 21.5144 224.128 32.7057C216.342 38.0616 208.606 44.7713 200.955 52.2534C193.715 59.3341 186.591 67.2491 179.651 76.0247C158.908 102.252 139.845 135.426 124.857 173.165C123.751 175.95 122.827 178.721 121.792 181.5C121.82 181.559 121.839 181.628 121.867 181.687C118.473 190.807 115.315 199.906 112.598 208.897C117.606 209.598 128.224 210.699 135.771 211.492C137.382 211.662 138.811 211.866 140.038 212.031C142.167 212.318 143.655 212.532 144.181 212.577C147.084 203.419 150.197 193.941 153.861 184.715C167.778 149.672 185.688 118.355 205.029 94.1521C210.794 86.9375 216.679 80.3019 222.633 74.4549C223.882 73.228 225.098 72.1988 226.333 71.0536C247.731 51.2228 267.008 43.4722 280.23 47.6935C280.704 47.8449 281.229 47.8853 281.687 48.0673C283.252 48.6887 284.761 49.5671 286.21 50.5715C305.257 60.3113 322.23 73.6022 336.406 89.5175C331.921 54.4246 317.774 28.465 293.349 18.7644C286.559 16.0679 279.496 14.8247 272.231 14.9147ZM104.959 237.916C96.3077 276.818 94.7016 312.913 100.413 341.47C106.301 370.908 119.825 392.586 141.602 401.235C165.43 410.698 192.786 402.28 219.494 381.014C216.165 381.21 212.853 381.5 209.477 381.5C190.409 381.5 172.149 378.181 155.02 372.343C154.446 372.168 153.814 372.113 153.263 371.894C152.964 371.776 152.698 371.541 152.403 371.408C138.909 365.331 129.614 344.63 128.37 312.205C127.768 296.486 129.135 278.997 132.332 260.551C133.398 254.402 134.683 248.161 136.145 241.825C129.932 241.247 124.169 240.393 118.279 239.662C113.837 239.111 109.222 238.54 104.959 237.916Z" opacity=".917"/><path fill="url(#c)" d="M133.155 26.6134C130.21 26.4585 127.309 26.4734 124.483 26.6508C113.175 27.3605 102.871 30.7797 93.9844 37.1908C74.5461 51.2145 66.6957 76.2191 68.6434 107.084C70.4967 136.454 81.2149 171.127 99.5161 206.804C103.791 207.535 108.128 208.283 112.598 208.897C115.321 199.885 118.352 190.792 121.755 181.65C121.775 181.595 121.809 181.517 121.83 181.463C112.897 162.324 106.372 143.684 102.768 126.557C96.1658 95.1806 100.012 73.0005 111.364 63.6532C111.72 63.3603 112.003 62.9487 112.373 62.6814C112.88 62.3159 113.512 62.1083 114.055 61.7844C131.241 50.0489 150.567 41.3618 171.39 36.5554C158.021 30.8424 145.1 27.2419 133.155 26.6134ZM136.145 241.825C134.683 248.161 133.398 254.402 132.332 260.551C132.617 260.948 132.868 261.35 133.155 261.747C172.746 316.625 220.281 356.851 262.214 372.791C289.849 383.296 315.075 383.346 333.902 369.764C354.732 354.737 362.151 327.033 358.57 293.068C347.906 312.09 333.921 328.915 317.27 342.591C316.675 343.128 316.152 343.775 315.513 344.236C315.073 344.553 314.523 344.735 314.055 345.021C301.564 352.671 279.429 349.313 251.899 333.247C220.599 314.982 187.039 283.034 158.496 243.47C158.469 243.433 158.445 243.395 158.421 243.358C150.93 242.889 143.297 242.492 136.145 241.825Z"/><path fill="url(#d)" d="M372.549 152.197C374.007 156.713 375.236 161.758 376.287 166.675C377.105 170.286 377.78 173.944 378.38 177.636C379.82 186.121 380.44 191.822 380.099 188.672L380.062 188.672C380.064 188.697 380.059 188.722 380.062 188.747C380.007 188.735 379.959 188.723 379.912 188.709C379.901 188.718 379.886 188.738 379.875 188.747C378.657 189.646 377.199 190.545 375.203 191.59C367.2 195.782 354.736 199.868 338.91 203.374C336.41 203.928 333.395 204.352 330.762 204.871C320.793 206.835 309.933 208.492 298.32 209.921C293.045 210.57 287.55 211.138 282.024 211.679C273.608 212.503 265.011 213.231 256.085 213.774C255.995 213.78 255.913 213.769 255.823 213.774C251.302 214.049 246.664 214.214 242.031 214.41C234.812 214.714 227.475 214.911 220.017 215.009C216.624 215.054 213.436 215.271 210 215.271C187.006 215.271 164.834 214.343 144.181 212.577C144.181 212.577 142.319 212.327 140.038 212.031C138.663 211.853 137.135 211.658 135.771 211.492C129.827 210.768 121.261 210.139 112.598 208.948C108.128 208.334 103.791 207.585 99.5161 206.853C92.3099 205.62 85.6063 204.367 81.127 203.374C65.3013 199.868 52.8376 195.782 44.8348 191.59C42.801 190.525 41.3195 189.587 40.088 188.672C40.088 188.672 39.0466 188.01 38.8546 187.886C40.1567 175.747 42.5787 163.956 46.1803 152.684C40.2785 154.776 34.8894 156.975 30.3702 159.343C16.2528 166.738 7.57073 176.127 7.57073 188.672C7.57073 201.217 16.2528 210.569 30.3702 217.964C32.8429 219.259 35.5872 220.529 38.4808 221.743C48.222 225.828 60.2274 229.431 74.3245 232.554C83.5698 234.602 93.8159 236.341 104.626 237.869C104.737 237.885 104.848 237.901 104.959 237.916C109.318 238.53 113.767 239.11 118.279 239.662C124.087 240.373 130.069 241.253 136.145 241.825C143.369 242.506 150.743 242.851 158.346 243.328C175.032 244.375 192.184 245.086 210 245.086C217.755 245.086 225.381 244.923 232.949 244.712C234.571 244.666 236.234 244.656 237.845 244.6C245.112 244.354 252.194 243.945 259.224 243.515C261.652 243.366 264.077 243.235 266.475 243.066C270.46 242.784 274.323 242.433 278.211 242.094C289.839 241.08 301.177 239.913 311.775 238.427C312.314 238.352 312.809 238.279 313.345 238.203C323.954 236.689 334.023 234.981 343.246 233.003C344.019 232.837 344.951 232.723 345.713 232.554C359.259 229.553 370.9 226.12 380.435 222.229C383.771 220.868 386.869 219.43 389.667 217.964C403.785 210.569 412.43 201.218 412.429 188.672C412.429 176.127 403.785 166.738 389.667 159.343C384.805 156.796 379.006 154.425 372.549 152.197Z"/></g></g></svg>