<svg viewBox="0 0 100 100" width="100%" height="100%" xmlns="http://www.w3.org/2000/svg" xmlns:xlink="http://www.w3.org/1999/xlink" xml:space="preserve" stroke-miterlimit="10" style="fill-rule:nonzero;clip-rule:evenodd;stroke-linecap:round;stroke-linejoin:round">
<defs>
	<linearGradient id="a" x1="0" x2="1" y1="0" y2="0" gradientTransform="rotate(-133.5 65.897 29.55) scale(122.605)" gradientUnits="userSpaceOnUse"><stop offset="0" stop-color="#bf200a" stop-opacity=".9"/><stop offset=".209" stop-color="#d92929" stop-opacity=".96"/><stop offset=".536" stop-color="#d62b4b"/><stop offset=".794" stop-color="#d42c60"/><stop offset=".98" stop-color="#d42c67"/><stop offset="1" stop-color="#d42c67"/></linearGradient>
	<linearGradient id="b" x1="0" x2="1" y1="0" y2="0" gradientTransform="matrix(49.9227 -49.7181 -84.1185 -83.9382 29.77 69.063)" gradientUnits="userSpaceOnUse"><stop offset="0" stop-color="snow" stop-opacity=".25"/><stop offset="1" stop-color="#fff" stop-opacity=".9"/></linearGradient>
	<linearGradient id="c" x1="0" x2="1" y1="0" y2="0" gradientTransform="matrix(49.9227 -49.7181 -84.1185 -83.9382 29.77 69.063)" gradientUnits="userSpaceOnUse"><stop offset="0" stop-color="snow" stop-opacity=".25"/><stop offset="1" stop-color="#fff" stop-opacity=".9"/></linearGradient>
	<linearGradient id="d" x1="0" x2="1" y1="0" y2="0" gradientTransform="matrix(142.064 -165.899 -271.211 -248.117 -21.28 149.672)" gradientUnits="userSpaceOnUse"><stop offset="0" stop-color="snow" stop-opacity=".65"/><stop offset="1" stop-color="#fff" stop-opacity=".8"/></linearGradient>
	<linearGradient id="e" x1="0" x2="1" y1="0" y2="0" gradientTransform="matrix(142.064 -165.899 -271.211 -248.117 -21.28 149.672)" gradientUnits="userSpaceOnUse"><stop offset="0" stop-color="snow" stop-opacity=".65"/><stop offset="1" stop-color="#fff" stop-opacity=".8"/></linearGradient>
	<linearGradient id="f" x1="0" x2="1" y1="0" y2="0" gradientTransform="matrix(-45.9488 -46.237 -42.5288 42.3838 72.148 73.58)" gradientUnits="userSpaceOnUse"><stop offset="0" stop-color="#bbb7b7" stop-opacity=".8"/><stop offset="1" stop-color="#fff"/></linearGradient>
	<linearGradient id="g" x1="0" x2="1" y1="0" y2="0" gradientTransform="matrix(45.1903 -45.7651 -78.1716 -77.3127 27.24 76.877)" gradientUnits="userSpaceOnUse"><stop offset="0" stop-color="snow" stop-opacity=".5"/><stop offset="1" stop-color="#fff" stop-opacity=".8"/></linearGradient>
	<filter id="h" width="32.879" height="32.879" x="33.637" y="33.637" color-interpolation-filters="sRGB" filterUnits="userSpaceOnUse"><feGaussianBlur in="SourceGraphic" result="Blur" stdDeviation="2"/></filter>
</defs>
	<path fill="url(#a)" d="M13.594 5.5A8.095 8.095 0 0 0 5.5 13.594v72.812a8.095 8.095 0 0 0 8.094 8.094h72.812a8.095 8.095 0 0 0 8.094-8.094V13.594A8.095 8.095 0 0 0 86.406 5.5H13.594Zm54.312 19.094c1.993-.082 3.946.602 5.406 2.062 2.921 2.921 2.734 7.892-.437 11.063L60.594 50l12.281 12.281c3.17 3.171 3.358 8.11.438 11.032-2.921 2.92-7.86 2.733-11.032-.438L50 60.594 37.719 72.875c-3.171 3.17-8.11 3.327-11.032.406-2.92-2.92-2.733-7.829.438-11L39.406 50 27.125 37.719c-3.17-3.171-3.358-8.11-.438-11.032 1.46-1.46 3.405-2.135 5.407-2.062 2.001.073 4.04.915 5.625 2.5L50 39.406l12.281-12.281c1.586-1.585 3.633-2.45 5.625-2.531Z"/>
	<path fill="url(#b)" d="M39.406 50 27.125 62.281c-3.17 3.171-3.358 8.08-.438 11 2.921 2.921 7.86 2.765 11.032-.406L50 60.594 39.406 50Z"/>
	<path fill="url(#c)" opacity=".8" d="M67.906 24.594c-1.993.082-4.04.946-5.625 2.531L50 39.406 60.594 50l12.281-12.281c3.17-3.171 3.358-8.142.438-11.063-1.46-1.46-3.414-2.144-5.407-2.062Z"/>
	<path fill="url(#d)" opacity=".4" d="M39.406 50 27.125 62.281c-3.17 3.171-3.358 8.08-.438 11 2.921 2.921 7.86 2.765 11.032-.406L50 60.594 39.406 50Z"/>
	<path fill="url(#e)" opacity=".4" d="M67.906 24.594c-1.993.082-4.04.946-5.625 2.531L50 39.406 60.594 50l12.281-12.281c3.17-3.171 3.358-8.142.438-11.063-1.46-1.46-3.414-2.144-5.407-2.062Z"/>
	<path fill="url(#f)" opacity=".959" d="M32.094 24.625c-2.002-.073-3.946.602-5.407 2.063-2.92 2.92-2.733 7.86.438 11.03L39.406 50 50 60.594l12.281 12.281c3.171 3.17 8.11 3.358 11.032.438 2.92-2.921 2.733-7.86-.438-11.032L60.594 50 50 39.406 37.719 27.125c-1.586-1.585-3.624-2.427-5.625-2.5Z"/>
	<path fill="url(#g)" filter="url(#h)" opacity=".466" d="M50 38.637 38.637 50l11.517 11.517 11.363-11.363L50 38.637Z"/>
</svg>