<svg width="100%" height="100%" viewBox="0 0 48 48" xmlns="http://www.w3.org/2000/svg" xmlns:xlink="http://www.w3.org/1999/xlink"><defs><style>
.cls-1 {fill: url(#linear-gradient-2);}.cls-2 {fill: url(#linear-gradient-17);}.cls-3 {fill: url(#linear-gradient-15);}.cls-4 {fill: url(#linear-gradient-18);}.cls-5 {fill: url(#linear-gradient-14);}.cls-6 {fill: url(#linear-gradient-20);}.cls-7 {fill: url(#linear-gradient-6);}.cls-8 {fill: url(#linear-gradient-11);}.cls-9 {fill: url(#linear-gradient-10);}.cls-10 {fill: url(#linear-gradient-16);}.cls-11 {fill: url(#linear-gradient-5);}.cls-12 {fill: url(#linear-gradient-7);}.cls-13 {fill: url(#linear-gradient-9);}.cls-14 {fill: url(#linear-gradient-3);}.cls-15 {fill: url(#linear-gradient);}.cls-16 {fill: url(#linear-gradient-19);}.cls-17 {fill: url(#linear-gradient-4);}.cls-18 {fill: url(#linear-gradient-8);}.cls-19 {fill: url(#linear-gradient-12);}.cls-20 {fill: url(#linear-gradient-13);}
</style><linearGradient id="linear-gradient" x1="24.05" y1="-1.82" x2="24.05" y2="38.01" gradientUnits="userSpaceOnUse"><stop offset="0" stop-color="#fee6e6"/><stop offset=".18" stop-color="#fcdee2"/><stop offset=".44" stop-color="#f9c8d7"/><stop offset=".6" stop-color="#f7b8d0"/><stop offset="1" stop-color="#feaaaa"/></linearGradient><linearGradient id="linear-gradient-2" x1="24.05" y1="-1.85" x2="24.05" y2="38.56" gradientUnits="userSpaceOnUse"><stop offset="0" stop-color="#fee1e1"/><stop offset=".15" stop-color="#fcd9dd"/><stop offset=".38" stop-color="#f9c3d3"/><stop offset=".6" stop-color="#f5a8c6"/><stop offset="1" stop-color="#fe9797"/></linearGradient><linearGradient id="linear-gradient-3" x1="24.05" y1="-1.83" x2="24.05" y2="39.06" gradientUnits="userSpaceOnUse"><stop offset="0" stop-color="#fddbdb"/><stop offset=".14" stop-color="#fbd3d7"/><stop offset=".34" stop-color="#f9bdcc"/><stop offset=".59" stop-color="#f49abc"/><stop offset=".6" stop-color="#f498bb"/><stop offset="1" stop-color="#fe8484"/></linearGradient><linearGradient id="linear-gradient-4" x1="24.05" y1="-1.76" x2="24.05" y2="39.49" gradientUnits="userSpaceOnUse"><stop offset="0" stop-color="#fdd6d6"/><stop offset=".12" stop-color="#fbced2"/><stop offset=".31" stop-color="#f8b8c7"/><stop offset=".53" stop-color="#f395b7"/><stop offset=".6" stop-color="#f289b1"/><stop offset="1" stop-color="#fd7171"/></linearGradient><linearGradient id="linear-gradient-5" x1="24.05" y1="-1.65" x2="24.05" y2="39.87" gradientUnits="userSpaceOnUse"><stop offset="0" stop-color="#fdd0d0"/><stop offset=".11" stop-color="#fbc8cc"/><stop offset=".28" stop-color="#f8b2c1"/><stop offset=".49" stop-color="#f38fb0"/><stop offset=".6" stop-color="#f079a6"/><stop offset="1" stop-color="#fd5e5e"/></linearGradient><linearGradient id="linear-gradient-6" x1="24.05" y1="-1.49" x2="24.05" y2="40.19" gradientUnits="userSpaceOnUse"><stop offset="0" stop-color="#fccbcb"/><stop offset=".11" stop-color="#fac3c7"/><stop offset=".26" stop-color="#f8adbc"/><stop offset=".45" stop-color="#f38aac"/><stop offset=".6" stop-color="#ef699c"/><stop offset="1" stop-color="#fd4c4c"/></linearGradient><linearGradient id="linear-gradient-7" x1="24.05" y1="-1.27" x2="24.05" y2="40.45" gradientUnits="userSpaceOnUse"><stop offset="0" stop-color="#fcc5c5"/><stop offset=".1" stop-color="#fabdc1"/><stop offset=".24" stop-color="#f7a7b6"/><stop offset=".42" stop-color="#f384a5"/><stop offset=".6" stop-color="#ed5991"/><stop offset="1" stop-color="#fd3939"/></linearGradient><linearGradient id="linear-gradient-8" x1="24.05" y1="-1.01" x2="24.05" y2="40.65" gradientUnits="userSpaceOnUse"><stop offset="0" stop-color="#fcc0c0"/><stop offset=".09" stop-color="#fab8bc"/><stop offset=".23" stop-color="#f7a2b1"/><stop offset=".4" stop-color="#f27fa0"/><stop offset=".59" stop-color="#eb4e89"/><stop offset=".6" stop-color="#eb4a87"/><stop offset="1" stop-color="#fc2626"/></linearGradient><linearGradient id="linear-gradient-9" x1="24.05" y1="-.71" x2="24.05" y2="40.79" gradientUnits="userSpaceOnUse"><stop offset="0" stop-color="#fbbaba"/><stop offset=".09" stop-color="#f9b2b6"/><stop offset=".22" stop-color="#f79cab"/><stop offset=".37" stop-color="#f2799a"/><stop offset=".55" stop-color="#eb4883"/><stop offset=".6" stop-color="#ea3a7c"/><stop offset="1" stop-color="#fc1313"/></linearGradient><linearGradient id="linear-gradient-10" x1="24.05" y1="-.35" x2="24.05" y2="40.87" gradientUnits="userSpaceOnUse"><stop offset="0" stop-color="#fbb5b5"/><stop offset=".08" stop-color="#f9adb1"/><stop offset=".21" stop-color="#f697a6"/><stop offset=".35" stop-color="#f27495"/><stop offset=".52" stop-color="#eb437e"/><stop offset=".6" stop-color="#e82a72"/><stop offset="1" stop-color="#fc0000"/></linearGradient><linearGradient id="linear-gradient-11" x1="23.65" y1="18.35" x2="25.94" y2="28.1" gradientUnits="userSpaceOnUse"><stop offset=".22" stop-color="#fdf7f7"/><stop offset="1" stop-color="#ffe8e8"/></linearGradient><linearGradient id="linear-gradient-12" x1="23.73" y1="18.7" x2="25.95" y2="28.4" gradientUnits="userSpaceOnUse"><stop offset=".22" stop-color="#fdf5f5"/><stop offset="1" stop-color="#ffe1e1"/></linearGradient><linearGradient id="linear-gradient-13" x1="23.79" y1="19.04" x2="25.94" y2="28.64" gradientUnits="userSpaceOnUse"><stop offset=".22" stop-color="#fcf3f3"/><stop offset="1" stop-color="#ffdada"/></linearGradient><linearGradient id="linear-gradient-14" x1="23.86" y1="19.38" x2="25.91" y2="28.82" gradientUnits="userSpaceOnUse"><stop offset=".22" stop-color="#fcf2f2"/><stop offset="1" stop-color="#ffd3d3"/></linearGradient><linearGradient id="linear-gradient-15" x1="23.91" y1="19.72" x2="25.87" y2="28.94" gradientUnits="userSpaceOnUse"><stop offset=".22" stop-color="#fcf0f0"/><stop offset="1" stop-color="#fcc"/></linearGradient><linearGradient id="linear-gradient-16" x1="23.96" y1="20.05" x2="25.82" y2="29" gradientUnits="userSpaceOnUse"><stop offset=".22" stop-color="#fbeeee"/><stop offset="1" stop-color="#ffc4c4"/></linearGradient><linearGradient id="linear-gradient-17" x1="24" y1="20.37" x2="25.75" y2="29.01" gradientUnits="userSpaceOnUse"><stop offset=".22" stop-color="#fbecec"/><stop offset="1" stop-color="#ffbdbd"/></linearGradient><linearGradient id="linear-gradient-18" x1="24.04" y1="20.7" x2="25.67" y2="28.95" gradientUnits="userSpaceOnUse"><stop offset=".22" stop-color="#fbebeb"/><stop offset="1" stop-color="#ffb6b6"/></linearGradient><linearGradient id="linear-gradient-19" x1="24.07" y1="21.01" x2="25.57" y2="28.84" gradientUnits="userSpaceOnUse"><stop offset=".22" stop-color="#fae9e9"/><stop offset="1" stop-color="#ffafaf"/></linearGradient><linearGradient id="linear-gradient-20" x1="24.09" y1="21.32" x2="25.46" y2="28.66" gradientUnits="userSpaceOnUse"><stop offset=".22" stop-color="#fae7e7"/><stop offset="1" stop-color="#ffa8a8"/></linearGradient></defs><g><path class="cls-15" d="m43.2,33.9c-.4,2.1-2.1,3.7-4.2,4-3.3.5-8.8,1.1-15,1.1s-11.6-.6-15-1.1c-2.1-.3-3.8-1.9-4.2-4-.4-2.3-.8-5.7-.8-9.9s.4-7.6.8-9.9c.4-2.1,2.1-3.7,4.2-4,3.3-.5,8.8-1.1,15-1.1s11.6.6,15,1.1c2.1.3,3.8,1.9,4.2,4,.4,2.3.9,5.7.9,9.9-.1,4.2-.5,7.6-.9,9.9Z"/><path class="cls-1" d="m24,38.56c-6.12,0-11.61-.61-14.94-1.1-1.92-.27-3.46-1.73-3.83-3.64-.39-2.25-.79-5.63-.79-9.82s.4-7.56.79-9.82c.36-1.91,1.91-3.36,3.83-3.64,3.17-.48,8.68-1.1,14.94-1.1s11.55.6,14.94,1.1c1.92.27,3.46,1.73,3.83,3.64.39,2.27.89,5.65.89,9.82-.1,4.22-.51,7.61-.89,9.82-.36,1.91-1.91,3.36-3.83,3.64-3.17.48-8.68,1.1-14.94,1.1Z"/><path class="cls-14" d="m24,38.11c-6.14,0-11.63-.61-14.87-1.09-1.73-.25-3.13-1.56-3.46-3.29-.38-2.21-.78-5.56-.78-9.73s.4-7.53.79-9.75c.33-1.71,1.72-3.03,3.45-3.27,3.04-.46,8.56-1.09,14.87-1.09s11.5.59,14.87,1.09c1.73.25,3.13,1.56,3.46,3.29.39,2.24.88,5.6.88,9.73-.1,4.25-.52,7.62-.89,9.75-.33,1.71-1.72,3.03-3.45,3.27-3.04.46-8.56,1.09-14.87,1.09Z"/><path class="cls-17" d="m24,37.67c-6.16,0-11.64-.62-14.81-1.09-1.55-.22-2.79-1.39-3.08-2.93-.38-2.16-.78-5.49-.78-9.65s.4-7.49.78-9.67c.29-1.52,1.53-2.69,3.08-2.91,2.91-.44,8.44-1.09,14.81-1.09s11.45.59,14.81,1.09c1.55.22,2.79,1.39,3.08,2.93.38,2.2.88,5.54.88,9.65-.1,4.27-.52,7.62-.88,9.67-.29,1.52-1.53,2.69-3.08,2.91-2.91.44-8.44,1.09-14.81,1.09Z"/><path class="cls-11" d="m24,37.22c-6.18,0-11.66-.63-14.74-1.08-1.36-.19-2.46-1.22-2.71-2.57-.37-2.11-.77-5.42-.77-9.57s.4-7.45.77-9.6c.25-1.32,1.35-2.35,2.7-2.54,2.78-.42,8.32-1.08,14.75-1.08s11.39.59,14.74,1.08c1.36.19,2.46,1.22,2.71,2.57.38,2.17.87,5.49.87,9.57-.1,4.29-.53,7.63-.87,9.6-.25,1.32-1.35,2.35-2.7,2.54-2.78.42-8.32,1.08-14.75,1.08Z"/><path class="cls-7" d="m24,36.78c-6.21,0-11.67-.63-14.68-1.08-1.18-.17-2.12-1.06-2.34-2.22-.36-2.07-.76-5.35-.76-9.48s.4-7.42.77-9.52c.21-1.13,1.16-2.01,2.33-2.18,2.65-.4,8.2-1.08,14.68-1.08,6.07,0,11.34.59,14.68,1.08,1.18.17,2.12,1.06,2.34,2.22.37,2.14.86,5.44.86,9.48-.1,4.31-.54,7.64-.87,9.52-.21,1.13-1.16,2.01-2.33,2.18-2.65.4-8.2,1.08-14.68,1.08Z"/><path class="cls-12" d="m24,36.33c-6.23,0-11.69-.64-14.61-1.07-.99-.14-1.78-.89-1.97-1.86-.35-2.02-.75-5.27-.75-9.4s.4-7.38.76-9.44c.18-.93.97-1.68,1.95-1.82,2.52-.38,8.08-1.07,14.62-1.07,6.05,0,11.29.58,14.61,1.07.99.14,1.78.89,1.97,1.86.37,2.11.85,5.39.85,9.4-.1,4.34-.55,7.65-.86,9.44-.18.93-.97,1.68-1.95,1.82-2.52.38-8.08,1.07-14.62,1.07Z"/><path class="cls-18" d="m24,35.89c-6.25,0-11.7-.65-14.55-1.07-.81-.12-1.45-.72-1.6-1.5-.34-1.97-.74-5.2-.74-9.32s.4-7.34.75-9.37c.14-.74.78-1.34,1.58-1.45,2.39-.36,7.96-1.07,14.56-1.07,6.02,0,11.24.58,14.55,1.07.81.12,1.45.72,1.6,1.5.36,2.08.84,5.33.84,9.32-.1,4.36-.56,7.65-.85,9.37-.14.74-.78,1.34-1.58,1.45-2.39.36-7.96,1.07-14.56,1.07Z"/><path class="cls-13" d="m24,35.44c-6.27,0-11.72-.66-14.48-1.06-.62-.09-1.11-.55-1.23-1.15-.33-1.93-.74-5.13-.74-9.23s.4-7.31.75-9.29c.1-.54.59-1,1.2-1.09,2.25-.34,7.84-1.06,14.5-1.06,6,0,11.19.58,14.48,1.06.62.09,1.11.55,1.23,1.15.35,2.05.84,5.28.84,9.23-.1,4.38-.56,7.66-.85,9.29-.1.54-.59,1-1.2,1.09-2.25.34-7.84,1.06-14.5,1.06Z"/><path class="cls-9" d="m24,35c-6.29,0-11.73-.66-14.42-1.06-.44-.06-.77-.38-.85-.79-.33-1.88-.73-5.06-.73-9.15s.4-7.27.74-9.22c.07-.35.4-.66.83-.72,2.12-.32,7.72-1.06,14.43-1.06,5.97,0,11.14.58,14.42,1.06.44.06.77.38.85.79.35,2.01.83,5.23.83,9.15-.11,4.4-.57,7.67-.84,9.22-.07.35-.4.66-.83.72-2.12.32-7.72,1.06-14.43,1.06Z"/></g><g><path class="cls-8" d="m20,29.77v-11.53c0-.55.59-.89,1.07-.61l9.89,5.77c.47.27.47.95,0,1.22l-9.89,5.77c-.47.28-1.07-.07-1.07-.61Z"/><path class="cls-19" d="m21.22,17.97l9.36,5.46c.44.26.44.89,0,1.14l-9.36,5.46c-.44.26-.99-.06-.99-.57v-10.92c0-.51.55-.83.99-.57Z"/><path class="cls-20" d="m21.37,18.31l8.84,5.16c.41.24.41.82,0,1.06l-8.84,5.16c-.41.24-.92-.06-.92-.53v-10.32c0-.47.51-.77.92-.53Z"/><path class="cls-5" d="m21.52,18.66l8.32,4.85c.37.22.37.76,0,.98l-8.32,4.85c-.38.22-.85-.05-.85-.49v-9.71c0-.44.47-.71.85-.49Z"/><path class="cls-3" d="m21.67,19l7.8,4.55c.34.2.34.7,0,.9l-7.8,4.55c-.35.2-.78-.05-.78-.45v-9.1c0-.4.43-.65.78-.45Z"/><path class="cls-10" d="m21.82,19.35l7.28,4.24c.31.18.31.63,0,.81l-7.28,4.24c-.31.18-.71-.04-.71-.41v-8.49c0-.36.39-.59.71-.41Z"/><path class="cls-2" d="m21.97,19.69l6.76,3.94c.28.16.28.57,0,.73l-6.76,3.94c-.28.16-.64-.04-.64-.37v-7.88c0-.33.35-.53.64-.37Z"/><path class="cls-4" d="m22.12,20.04l6.23,3.64c.25.15.25.51,0,.65l-6.23,3.64c-.25.15-.57-.03-.57-.33v-7.27c0-.29.32-.47.57-.33Z"/><path class="cls-16" d="m22.27,20.38l5.71,3.33c.22.13.22.44,0,.57l-5.71,3.33c-.22.13-.49-.03-.49-.28v-6.66c0-.25.28-.41.49-.28Z"/><path class="cls-6" d="m22.42,20.73l5.19,3.03c.19.11.19.38,0,.49l-5.19,3.03c-.19.11-.42-.03-.42-.24v-6.05c0-.22.24-.35.42-.24Z"/></g></svg>