<svg width="100%" height="100%" viewBox="0 0 961 961" xmlns="http://www.w3.org/2000/svg" ><path fill="none" fill-opacity="0" stroke="#C7C7C7" stroke-opacity=".1" stroke-width=".3" d="M369 26c8.06-3.81 12.59.57 20 1 .04-.35.75-.75 1-1s.97-1.04 1-1c-4-6.09-17.68-2.05-22 1Z"/><path fill="none" fill-opacity="0" stroke="#C1C1C1" stroke-opacity=".13" stroke-width=".3" d="M430 34c.22-.63 1.6-1.46 2-2 .9-1.23 1.13-3.41 3-4 2.53-2.23 8.69-3.96 12-4 2.06-.03 3.2.19 5 1-.25-.27 0-1 0-1 .43-2.29-21.22-1.48-22 10Z"/><path fill="none" fill-opacity="0" stroke="#A4A4A4" stroke-opacity=".12" stroke-width=".3" d="M499 59c.15-4.49.32-9.19 1-13 .32-4.77 1.55-8.98 3-13 .31-1.51.49-1.88 1-3 .92-2.02 2.44-3.81 3-6 5.72.49 12.11-1.43 17 2 1.75.87 3.34 1.73 5 3 .32.24 1 0 1 0-3.81-9.54-26.58-9.86-29.8-.25-3.22 9.62-2.36 23.98-1.2 30.25Z"/><path fill="none" fill-opacity="0" stroke="#B2B2B2" stroke-opacity=".31" stroke-width=".3" d="M452 24s-.25.73 0 1c.73.81 2.27 1.29 3 2-.4-2.18 1.08 1.17 1 1 .35.72.69 1.27 1 2 .01.43 2.9-1.84 0-3 1.06-1.12 1.84-.48 3 0-1.45-1.36-5.94-4.77-8-3Z"/><path fill="none" fill-opacity="0" stroke="#949494" stroke-opacity=".1" stroke-width=".3" d="M576 25c-1.32.53-2.22.79-4 1 0 0 .07.51 0 1-.27 2.01-2.34 1.14-3 2-11.2 19.19-2.26 68.39-2 84-.14.26 1.1-2.38 1-2-.65-7.2 0-14.77 0-22 0-10.32.08-21.46 1-31 0-6.73.28-14.02 1-20 .08-3.78-.33-7.5 3-10 2.06-1.54 5.22-1.81 8-2 1.46-.3 3.88-1.82 6-1-.53-1.6-2.75-.72-4-1-3.39-.57-3.69-.33-7 1Z"/><path fill="none" fill-opacity="0" stroke="#CECECE" stroke-opacity=".28" stroke-width=".3" d="M583 24c1.25.28 3.47-.6 4 1-2.12-.82-4.54.7-6 1 3.99-.27 8.35-.29 12 1 .44.16 1 0 1 0-3.03-4.06-7.34-3.01-11-3Z"/><path fill="none" fill-opacity="0" stroke="#BFBFBF" stroke-width=".3" d="M369 26c-1.33.94-2.89 1.95-4 3 .01-.09.97 2.38 1 3 .05.99 0 2.01 0 3 10 45.58-3 109.73 1 156 4 46.27-3.85 101.67 6.32 144.68 10.17 43.01 82.96 36.44 75.68 82.32-7.28 45.88-9.84 90.21-10.33 138.67-.49 48.46.31 95.8-2.67 145.33-2.98 49.53 3.01 97.62-3 150-6.01 52.38 47.25 76.97 82 36 1.81-160.76-4.87-323.77-21-480 14.66-38.84 76.84-30.82 91.3-74.7 14.46-43.87 1.18-102.92 4.77-151.37 3.59-48.46-2.58-106.8 2.93-154.93-3.65-1.29-8.01-1.27-12-1-2.78.19-5.94.46-8 2-6.47 44.14 4.57 97.92-2 143s11.82 98.92-4 141c-.78 2.08.15 2.66-2 4-1.69 1.06-4.91.69-7 2-1.87.91-2.67 1.52-5 2-3.92.8-7.23 1.98-11 3-2.25.61-5.6 1.16-8 1-10.44-.33-7.82-39.01-9-51-1.18-11.99 1.46-38.22 0-54-1.46-15.78-.31-39.69-1-57-.69-17.31 2.18-36.27 1-55-1.18-18.73 1-40.36 1-59 0-5.72 2.33-17.84-2-22-4.89-3.43-11.28-1.51-17-2-.56 2.19-2.08 3.98-3 6-6.85 30.92 3 66-1 98s4.88 68.11 0 99 8.67 70.17-3 98c.45 1.47-.35 3.7-2 4 14.23 5.2 3.28-44.9 18-41 3.95 16.43 5.1 41.3 27 37 21.9-4.3 29.1-12.79 40-27 7.38 61.57-81.88 70.79-125 78-30.82-12.5-100.26-30.54-80-81 5.51 6.16 6.19 14.82 10 22 12.53-3.58 32.7 16.25 44.22 9.22 11.52-7.02 3.49-33.53 11.78-44.22 7.06 13.12 9.5 32.9 14 49 12.34-1.6 26.18.08 38-2-9.8 0-21.37 1.73-31 0-10.17 1.09-6.16-35.79-8-47-1.84-11.21-.72-38.73-1-53-.28-14.27.34-34.28-.02-50.02-.37-15.75 1.47-35.37-.76-51.2-2.23-15.83 4.26-33.55.78-48.78-3.49-15.24 6.77-35.33 1-49-.31-.73-.65-1.28-1-2-.24-.25-.75-.75-1-1-.73-.71-2.27-1.19-3-2-1.8-.81-2.94-1.03-5-1 11.22 2.33 4.32 25.88-2 29-5.17-7.38-3.79-17.17-10-24-11.54 15.59 6.36 51.67 0 72s2.67 52.3-1 74c-3.67 21.7 4.81 53.27 0 74-4.81 20.73 9 55.73-3 72-.22.3-.91.75-1 1-.62 1.73.12 3.83-3 3 3.29-1.36.35-4.21 1-7-1.76.5-.72 2.72-1 4-2.03-.75-3.83-.74-6-1 .6.35 1.67 1.25 2 2-3.7.67-6.6-1.44-10-2 1.72-2.62 4.63.65 7 0-1.6-2.09-5.51-2.42-8-3-3.07.08-9.71-1.8-15-2-.5-.02-1 0-1 0h-1c-.87 0-2.16.22-3 0-6.89-1.82-1.18-34.98-2.99-45.01-1.81-10.03.75-36.44-.01-49.99-.76-13.55-.35-32.87 0-48 .35-15.13-1.2-34.3 0-50 1.2-15.7-2.63-33.59-1-49 1.63-15.41-.76-32.1 1-47-7.41-.43-11.94-4.81-20-1m216 15c-3.35-1.19-3.83-5.39-2-8 3.35 1.19 3.83 5.39 2 8Z"/><path fill="none" fill-opacity="0" stroke="#DADADA" stroke-width=".3" d="M435 28c-.25.22 0 1 0 1 6.21 6.83 4.83 16.62 10 24 6.32-3.12 13.22-26.67 2-29-3.31.04-9.47 1.77-12 4Z"/><path fill="none" fill-opacity="0" stroke="#6D6D6D" stroke-opacity=".09" stroke-width=".3" d="M390 26c.67 1.89 2.29 3.11 3 5 .71 1.89.93 3.56 1 6 2.72 14.12-1.22 31.49 2 46 .05.23.83.67 1 1-.19-19.11 4.25-42.7-6-59-.03-.04-.75.75-1 1Z"/><path fill="none" fill-opacity="0" stroke="#9B9B9B" stroke-width=".3" d="M389 27c-1.76 14.9.63 31.59-1 47s2.2 33.3 1 49c-1.2 15.7.35 34.87 0 50-.35 15.13-.76 34.45 0 48 .76 13.55-1.8 39.96.01 49.99 1.81 10.03-3.9 43.19 2.99 45.01-5.97-3.35 1.33-27.1-.07-38.07-1.41-10.97-.05-26.5-.26-42.6-.21-16.1-2.24-15.67-.67-39.33 1.57-23.66 1.28-59.13.01-83.01-1.27-23.88-.97-19.75.99-39.99 0-13.1 2.53-29.97 1-42-.71-1.89-2.33-3.11-3-5-.25.25-.96.65-1 1Z"/><path fill="none" fill-opacity="0" stroke="#A5A5A5" stroke-opacity=".66" stroke-width=".3" d="M455 27c.25.25.76.75 1 1 .08.17-1.4-3.18-1-1Z"/><path fill="none" fill-opacity="0" stroke="#9F9F9F" stroke-opacity=".98" stroke-width=".3" d="M457 30c5.77 13.67-4.49 33.76-1 49 3.48 15.23-3.01 32.95-.78 48.78 2.23 15.83.39 35.45.76 51.2.36 15.74-.26 35.75.02 50.02.28 14.27-.84 41.79 1 53 1.84 11.21-2.17 48.09 8 47 .67-.07 1.64-1.16 3-1-1.07-.99-1.45-.78-3-1-.84-.12-.57 1.27-1-1-.08-.18-1 0-1 0-10.73-9.47-.37-42.64-4-58s2.65-41.01 1-59c-1.65-17.99-.64-40.5-1-59s1.16-39.03-.33-57.67S458.35 53.68 460 35c.12-1.32-.09-2.67 0-4 1.39.26.78 2.05 1 3 .59-.88.69-.76 1-2 .47-1.84-.41-3.52-2-5-1.16-.48-1.94-1.12-3 0 2.9 1.16.01 3.43 0 3Z"/><path fill="none" fill-opacity="0" stroke="#8B8B8B" stroke-opacity=".99" stroke-width=".3" d="M526 48c1.63 16.81-2 37.27 0 55 2 17.73-.28 38.82 0 56s.84 39.72 1 56c.16 16.28-1.71 43.88 1 57 2.71 13.12-5.99 45.07 5 51 .12-3.33-.75-5.84-1-9-2.86-14.81-.45-31.53-2-47-1.55-15.47-.76-33.38-1-49-.24-15.62.48-35.18 0-50s-1.04-33.32-1-47c.04-13.68 1.06-35.97-1-47-2.05-11.04 4.83-42.29 2-44 .03-.5 0-1 0-1-1.66-1.27-3.25-2.13-5-3 4.33 4.16 2 16.28 2 22Z"/><path fill="none" fill-opacity="0" stroke="#A8A8A8" stroke-width=".3" d="M366 35c.01 39.28-.8 82.33-1 121-.19 38.67 1.31 85.39 1 122-.31 36.61-3.11 73.92 33.08 91.92 36.2 18 43.29 38.75 35.92 76.08-7.37 37.33.19 77.5-2.93 114.08-3.13 36.58-1.02 78.12-2.07 114.92-1.05 36.8-4.97 87.22-3 121 1.97 33.78-10.74 91.36 10.1 112.9 20.84 21.54 84.93 10.9 88.88-21.92 3.94-32.82-2.24-82.42-2.76-118.2-.52-35.79-3.97-78.87-4.57-115.47-.61-36.61-4.99-78.29-5.58-115.39-.59-37.09-3.6-75.95-9.39-111.6-5.8-35.65 32.97-42.29 58.57-62.07 25.59-19.78 38.82-56.2 32.53-92.47-6.29-36.27 5.85-86.5-.78-123.78s11.6-84.97 1-120c-.15.01-.65-.97-1-1 0 0-.56.16-1 0-5.51 48.13.66 106.47-2.93 154.93-3.59 48.45 9.69 107.5-4.77 151.37-14.46 43.88-76.64 35.86-91.3 74.7 16.13 156.23 22.81 319.24 21 480-34.75 40.97-88.01 16.38-82-36 6.01-52.38.02-100.47 3-150s2.18-96.87 2.67-145.33c.49-48.46 3.05-92.79 10.33-138.67 7.28-45.88-65.51-39.31-75.68-82.32C363.15 292.67 371 237.27 367 191c-4-46.27 9-110.42-1-156Z"/><path fill="none" fill-opacity="0" stroke="#9B9B9B" stroke-opacity=".99" stroke-width=".3" d="M432 32c-.39 1.8 0 4.15 0 6 4.01 41.42-.03 83.65 0 126 .03 42.35 3.01 87.57-1 129 0 9.02 1.28 19.09 0 28 12-16.27-1.81-51.27 3-72 4.81-20.73-3.67-52.3 0-74 3.67-21.7-5.36-53.67 1-74s-11.54-56.41 0-72c0 0-.25-.78 0-1-1.87.59-2.1 2.77-3 4Z"/><path fill="none" fill-opacity="0" stroke="#929292" stroke-opacity=".98" stroke-width=".3" d="M570 38c-.21 10.64-.04 22.12-1 32v41c0 14.25.3 29.54-1 43v66c0 13.27.21 27.52-1 40 1.42 15.81 2.34 36.32 0 52 15.82-42.08-2.57-95.92 4-141s-4.47-98.86 2-143c-3.33 2.5-2.92 6.22-3 10Z"/><path fill="none" fill-opacity="0" stroke="#959595" stroke-width=".3" d="M366 35c0-.99.05-2.01 0-3-.27 5.99-2 13.08-2 20 0 9.17.83 19.66-1 28v203c1.85 8.41 1 18.83 1 28 0 4.65-.18 9.35 0 14 8.08 39.7 44.36 43.97 64.75 72.25s-6.54 82.58.25 119.75-6.08 91.37-3 131c3.08 39.63-5.86 85.4-3 123 2.86 37.6-7.79 93.89.78 127.22s78.43 34.88 99.97 9.53c21.53-25.36 3.68-79.65 6.25-115.75 2.57-36.1-7.84-90.64-5.99-130.01 1.84-39.37-9.48-88.62-6-128 3.48-39.37-12.93-85.15-9.23-121.21 3.7-36.06 61.68-28.01 74.47-63.53 12.8-35.51 14.64-81.69 12.75-123.25-1.89-41.56 1-90.23 1-131v-3c-2.61-11.91-4.56-39.6 0-51 .47-1.17.8-1.69 1-3 .36-2.34.65-7.16-1-9-.26-.14-1.72-1.02-2-1 10.6 35.03-7.63 82.72-1 120s-5.51 87.51.78 123.78c6.29 36.27-6.94 72.69-32.53 92.47-25.6 19.78-64.37 26.42-58.57 62.07 5.79 35.65 8.8 74.51 9.39 111.6.59 37.1 4.97 78.78 5.58 115.39.6 36.6 4.05 79.68 4.57 115.47.52 35.78 6.7 85.38 2.76 118.2-3.95 32.82-68.04 43.46-88.88 21.92-20.84-21.54-8.13-79.12-10.1-112.9-1.97-33.78 1.95-84.2 3-121s-1.06-78.34 2.07-114.92c3.12-36.58-4.44-76.75 2.93-114.08 7.37-37.33.28-58.08-35.92-76.08-36.19-18-33.39-55.31-33.08-91.92.31-36.61-1.19-83.33-1-122 .2-38.67 1.01-81.72 1-121Z"/><path fill="none" fill-opacity="0" stroke="#9F9F9F" stroke-opacity=".07" stroke-width=".3" d="M362 53c2.47-7.58.25-16.46 3-24-6.2 5.86-2.42 15.61-3 24Z"/><path fill="none" fill-opacity="0" stroke="#868686" stroke-opacity=".29" stroke-width=".3" d="M362 53c-1.99 6.11-1.42 10.92 0 18 .69 3.46.72 9.07 1 12v-3c0-9.33.17-19.44 1-28 0-6.92 1.73-14.01 2-20-.03-.62-.99-3.09-1-3-2.75 7.54-.53 16.42-3 24Z"/><path fill="none" fill-opacity="0" stroke="#717171" stroke-opacity=".97" stroke-width=".3" d="M532 314c-1.51-19.06 0-38.87 0-58v-8c-2.26-23.34-1-48.89-1-73V89c0-19.51-3.28-39.88-2-59 2.83 1.71-4.05 32.96-2 44 2.06 11.03 1.04 33.32 1 47-.04 13.68.52 32.18 1 47s-.24 34.38 0 50c.24 15.62-.55 33.53 1 49 1.55 15.47-.86 32.19 2 47Z"/><path fill="none" fill-opacity="0" stroke="#5C5C5C" stroke-opacity=".15" stroke-width=".3" d="M529 30c-1.28 19.12 2 39.49 2 59 .87 8.97 1 19.33 1 29v138c1.39 14.37-.27 31.81 2 46-1.65-42.3 3.57-98.9 0-141-3.57-42.1 8.02-91.13-4-132 0 0-.68.24-1 0 0 0 .03.5 0 1Z"/><path fill="none" fill-opacity="0" stroke="#676767" stroke-opacity=".16" stroke-width=".3" d="M598 38c.34-.6 1.25-1.67 2-2v36c.23.51 1.69.67 2 1-1.17-6.68 4.37-38.92-5-44 1.65 1.84 1.36 6.66 1 9Z"/><path fill="none" fill-opacity="0" stroke="#949494" stroke-opacity=".98" stroke-width=".3" d="M503 33c-4.37 21.56-.91 46.36-3 68v34c0 62.46 5.62 127.83 0 190 11.67-27.83-1.88-67.11 3-98s-4-67 0-99-5.85-67.08 1-98c-.51 1.12-.69 1.49-1 3Z"/><path fill="none" fill-opacity="0" stroke="#727272" stroke-opacity=".99" stroke-width=".3" d="M392 73c0 25.86.84 54.35 1.98 80.02 1.13 25.68-4.42 54.32-.98 79.98 3.44 25.66-7.8 57.96 2 81V83c0-15.48-.57-30.84-1-46-.07-2.44-.29-4.11-1-6 1.53 12.03-1 28.9-1 42Z"/><path fill="none" fill-opacity="0" stroke="#7C7C7C" stroke-opacity=".72" stroke-width=".3" d="M460 35c0-.04 1 0 1 0v-1c-.22-.95.39-2.74-1-3-.09 1.33.12 2.68 0 4Z"/><path fill="none" fill-opacity="0" stroke="#8E8E8E" stroke-opacity=".13" stroke-width=".3" d="M430 34c-7.03 103.26-9.49 172.39-1 253 .61 5.83-.3 13.07-1 19-.51 4.37-.69 7.59 0 12-.65 2.79 2.29 5.64-1 7 3.12.83 2.38-1.27 3-3-6.61-20.62 2.43-47.12 0-69-2.43-21.88 0-47.76 0-70V82c0-7.03.39-14.72 1-21 .65-6.73-1.49-15.14 1-21v-2c0-1.85-.39-4.2 0-6-.4.54-1.78 1.37-2 2Z"/><path fill="none" fill-opacity="0" stroke="#686868" stroke-opacity=".38" stroke-width=".3" d="M461 34v7c1.23 12.68 2 26.72 2 40 0-.04 1 0 1 0v-1c1.75-4.02.65-9.02 0-13-.91-5.59.03-16.09 0-16 .19-7.34.3-11.92-2-19-.31 1.24-.41 1.12-1 2Z"/><path fill="none" fill-opacity="0" stroke="#848484" stroke-opacity=".8" stroke-width=".3" d="M500 46c-.58 8.58 0 17.4 0 26v29c2.09-21.64-1.37-46.44 3-68-1.45 4.02-2.68 8.23-3 13Z"/><path fill="none" fill-opacity="0" stroke="#F3F3F3" stroke-width=".3" d="M585 41c1.83-2.61 1.35-6.81-2-8-1.83 2.61-1.35 6.81 2 8Z"/><path fill="none" fill-opacity="0" stroke="#888" stroke-width=".3" d="M463 326c-.6-6.54 0-13.43 0-20-7.69-42.92.49-89.77-2-134-2.49-44.23.01-88.49 0-131v-6s-1-.04-1 0c-1.65 18.68-2.82 38.69-1.33 57.33 1.49 18.64-.03 39.17.33 57.67s-.65 41.01 1 59c1.65 17.99-4.63 43.64-1 59s-6.73 48.53 4 58Z"/><path fill="none" fill-opacity="0" stroke="#5E5E5E" stroke-opacity=".98" stroke-width=".3" d="M598 38c-.2 1.31-.53 1.83-1 3-3.1 15.62 0 34.99 0 51v3c9.77 44.5 1 102.4 1 149 3.58 36.94 1.01 83.57-15.25 114.75-16.26 31.18-70.04 26.16-66.75 63.25 3.29 37.1 10.77 82.36 10 122-.77 39.64 6.33 87.92 5.99 127.01-.34 39.09 7.03 89.7 6.01 125.99-1.02 36.29 15.2 91.84-8.23 115.77C506.34 936.7 445.92 931.83 423 917c1.06 2.03 1.02 4.14 3 6 0 0 .5-.05 1 0 9.17.86 17.18 12.31 28 12-2.09 2.4-5.32-1.18-8-1 4.26 1.95 7.06 3.08 12 4-.62-.37-1.66-1.23-2-2 5.16 1.31 10.82.69 16 2 11.49.91 25.5.74 36-3 .44-.16 1 0 1 0 4.49-3.65 16.21-8.91 22-11 .44-.16 1 0 1 0 11.11-15.9 12-24.69 12-45-.9-9.3-1-20-1-30-.96-9.91-2-21.61-2-32v-12c-1.05-10.81-2-22.47-2-34 0-14.8-2-28.36-2-43-2.26-23.31-4-47.95-4-72v-13c-1.14-11.8-2-24.43-2-37v-9c-3.21-33.16-5-67.87-5-102 0-7.58-1-14.4-1-22-1.33-13.71-9.25-52.85 5-59 12-5.18 23.48-12.63 34-20 17.8-14.62 26.46-32.57 32-53 .97-6.13 1.58-12.78 2-19 .84-12.37 1-24.45 1-37V90c-1.34-13.82-1.33-30.25 0-44V36c-.75.33-1.66 1.4-2 2Z"/><path fill="none" fill-opacity="0" stroke="#5F5F5F" stroke-opacity=".56" stroke-width=".3" d="M395 83c0-.04 1 0 1 0-3.22-14.51.72-31.88-2-46 .43 15.16 1 30.52 1 46Z"/><path fill="none" fill-opacity="0" stroke="#868686" stroke-opacity=".98" stroke-width=".3" d="M432 40c0 7.03-.39 14.72-1 21-.66 6.85 0 14.11 0 21v211c4.01-41.43 1.03-86.65 1-129-.03-42.35 4.01-84.58 0-126v2Z"/><path fill="none" fill-opacity="0" stroke="gray" stroke-opacity=".65" stroke-width=".3" d="M569 58v12c.96-9.88.79-21.36 1-32-.72 5.98-1 13.27-1 20Z"/><path fill="none" fill-opacity="0" stroke="#7A7A7A" stroke-opacity=".6" stroke-width=".3" d="M431 61c.61-6.28 1-13.97 1-21-2.49 5.86-.35 14.27-1 21Z"/><path fill="none" fill-opacity="0" stroke="#727272" stroke-opacity=".98" stroke-width=".3" d="M463 306V81c0-13.28-.77-27.32-2-40 .01 42.51-2.49 86.77 0 131 2.49 44.23-5.69 91.08 2 134Z"/><path fill="none" fill-opacity="0" stroke="#7F7F7F" stroke-width=".3" d="M597 92c0-16.01-3.1-35.38 0-51-4.56 11.4-2.61 39.09 0 51Z"/><path fill="none" fill-opacity="0" stroke="#7F7F7F" stroke-opacity=".33" stroke-width=".3" d="M499 59c-.08 2.44-.08 3.63 0 6 .08 2.33 0 4.67 0 7 .01.07 1 0 1 0 0-8.6-.58-17.42 0-26-.68 3.81-.85 8.51-1 13Z"/><path fill="none" fill-opacity="0" stroke="#5B5B5B" stroke-opacity=".7" stroke-width=".3" d="M600 90V46c-1.33 13.75-1.34 30.18 0 44Z"/><path fill="none" fill-opacity="0" stroke="#9E9E9E" stroke-width=".3" d="M534 324c-.03 0 0-1 0-1-.25-.25-1 0-1 0-10.99-5.93-2.29-37.88-5-51-2.71-13.12-.84-40.72-1-57-.16-16.28-.72-38.82-1-56s2-38.27 0-56c-2-17.73 1.63-38.19 0-55 0 18.64-2.18 40.27-1 59 1.18 18.73-1.69 37.69-1 55 .69 17.31-.46 41.22 1 57 1.46 15.78-1.18 42.01 0 54 1.18 11.99-1.44 50.67 9 51Z"/><path fill="none" fill-opacity="0" stroke="#5C5C5C" stroke-opacity=".19" stroke-width=".3" d="M464 67c-.05-4.62-.13-11.07 0-16 .03-.09-.91 10.41 0 16Z"/><path fill="none" fill-opacity="0" stroke="#7E7E7E" stroke-opacity=".8" stroke-width=".3" d="M363 80c1.83-8.34 1-18.83 1-28-.83 8.56-1 18.67-1 28Z"/><path fill="none" fill-opacity="0" stroke="#7B7B7B" stroke-opacity=".45" stroke-width=".3" d="M568 89c0-.04 1 0 1 0V58c-.92 9.54-1 20.68-1 31Z"/><path fill="none" fill-opacity="0" stroke="#777" stroke-opacity=".31" stroke-width=".3" d="M430 82c0-.04 1 0 1 0 0-6.89-.66-14.15 0-21-.61 6.28-1 13.97-1 21Z"/><path fill="none" fill-opacity="0" stroke="#767676" stroke-opacity=".09" stroke-width=".3" d="M497 305c.67 6.91 1.58 15.37 1 23 1.19-.72.89-1.68 1-3 5.34-62.29 0-127.45 0-190V72c0-2.33.08-4.67 0-7-12.67 68.26-2 162.96-2 240Z"/><path fill="none" fill-opacity="0" stroke="#8D8D8D" stroke-opacity=".18" stroke-width=".3" d="M361 163c.68 3.56.57 9.42 0 13-3.86 24.25-1.57 40.9 0 64 .91 13.39 1 26.64 1 40 0-.04 1 0 1 0v-17c-4.94-51.05-4.93-112.02 0-163V83c-.28-2.93-.31-8.54-1-12 .74 26.96-5.79 66.75-1 92Z"/><path fill="none" fill-opacity="0" stroke="#7A7A7A" stroke-opacity=".6" stroke-width=".3" d="M499 135c0-.04 1 0 1 0V72s-.99.07-1 0v63Z"/><path fill="none" fill-opacity="0" stroke="#636363" stroke-opacity=".4" stroke-width=".3" d="M600 90v28c0-.04 1 0 1 0 0-12.04-.76-34.28 1-40-.01-1.31.34-3.04 0-5-.31-.33-1.77-.49-2-1v18Z"/><path fill="none" fill-opacity="0" stroke="#878787" stroke-width=".3" d="M392 316c.84.22 2.13 0 3 0-.23-.16 0-1.5 0-2-9.8-23.04 1.44-55.34-2-81-3.44-25.66 2.11-54.3.98-79.98C392.84 127.35 392 98.86 392 73c-1.96 20.24-2.26 16.11-.99 39.99 1.27 23.88 1.56 59.35-.01 83.01-1.57 23.66.46 23.23.67 39.33.21 16.1-1.15 31.63.26 42.6 1.4 10.97-5.9 34.72.07 38.07Z"/><path fill="none" fill-opacity="0" stroke="#646464" stroke-opacity=".11" stroke-width=".3" d="M601 118v167c0 7.62-.45 15.39 0 23 10.58-73.12 1.85-155.05 1-230-1.76 5.72-1 27.96-1 40Z"/><path fill="none" fill-opacity="0" stroke="#636363" stroke-opacity=".04" stroke-width=".3" d="M464 81v34c2.2 22.68 1 47.55 1 71 0 21.96 3.05 48.5 0 70s7.97 51.25 0 71c1.55.22 1.93.01 3 1 .49.06 1 0 1 0 .4-.2.74-1.88 1-2h-4c-.11-16.39.15-34.81 0-51-.15-16.19.3-34.47 0-50-.3-15.53.63-36.93 0-51s1.4-39.39 0-50 3.73-43.04-2-44v1Z"/><path fill="none" fill-opacity="0" stroke="#606060" stroke-opacity=".65" stroke-width=".3" d="M463 109c0-.04 1 0 1 0V81s-1-.04-1 0v28Z"/><path fill="none" fill-opacity="0" stroke="#797979" stroke-opacity=".44" stroke-width=".3" d="M430 104c0-.04 1 0 1 0V82s-1-.04-1 0v22Z"/><path fill="none" fill-opacity="0" stroke="#676767" stroke-opacity=".78" stroke-width=".3" d="M395 314c0 .5-.23 1.84 0 2h1c-6.98-77.03 6.94-155.96 0-233 0 0-1-.04-1 0v231Z"/><path fill="none" fill-opacity="0" stroke="#636363" stroke-opacity=".25" stroke-width=".3" d="M396 316s.5-.02 1 0c.06-1.81.86-3.87 1-5 2.85-23.82 0-52.47-.07-75.92-.07-23.46 3.21-52.38-.14-74.85-3.36-22.47 9.57-55.98-.79-76.23-.17-.33-.95-.77-1-1 6.94 77.04-6.98 155.97 0 233Z"/><path fill="none" fill-opacity="0" stroke="#626262" stroke-opacity=".52" stroke-width=".3" d="M531 118c0-.04 1 0 1 0 0-9.67-.13-20.03-1-29v29Z"/><path fill="none" fill-opacity="0" stroke="#7C7D7C" stroke-opacity=".68" stroke-width=".3" d="M568 111c0-.04 1 0 1 0V89s-1-.04-1 0c0 7.23-.65 14.8 0 22Z"/><path fill="none" fill-opacity="0" stroke="#848484" stroke-width=".3" d="M364 325c.16 4.16 1.29 7.82 1 12 3.37 15.74 18.86 35.5 32.23 43.77 13.37 8.27 44 23.68 29.77 41.23.25.25 0 1 0 1 5.88 7.94-.79 25.68 1 36s-.04 27.08-1 37v12c0 23.92 2.99 53.25-2 76v3c0 10.71 1.16 23.16-1 33v3c0 22.15.05 44.84-2 66v10c0 22.15.04 44.87-2 66v21c0 9-.2 18.76-1 27v12c0 25.81-1.49 52.65 1 78 9.37 26.37 77.29 31.9 101.7 10.7 24.4-21.2 13.22-76.91 12.3-113.7-.92-36.79-5.02-86.45-6.33-125.67-1.31-39.22-4.61-86.99-4.67-127.33-.06-40.34-5.67-85.53-9.93-124.07-4.25-38.55 45.99-35.46 65.63-64.23C598.33 329.93 598 280.55 598 244c0-46.6 8.77-104.5-1-149 0 40.77-2.89 89.44-1 131 1.89 41.56.05 87.74-12.75 123.25-12.79 35.52-70.77 27.47-74.47 63.53-3.7 36.06 12.71 81.84 9.23 121.21-3.48 39.38 7.84 88.63 6 128-1.85 39.37 8.56 93.91 5.99 130.01-2.57 36.1 15.28 90.39-6.25 115.75-21.54 25.35-91.4 23.8-99.97-9.53-8.57-33.33 2.08-89.62-.78-127.22-2.86-37.6 6.08-83.37 3-123-3.08-39.63 9.79-93.83 3-131-6.79-37.17 20.14-91.47-.25-119.75S372.08 364.7 364 325Z"/><path fill="none" fill-opacity="0" stroke="#7C7C7C" stroke-opacity=".72" stroke-width=".3" d="M363 263V100c-4.93 50.98-4.94 111.95 0 163Z"/><path fill="none" fill-opacity="0" stroke="#797979" stroke-opacity=".56" stroke-width=".3" d="M430 137c0-.04 1 0 1 0v-33s-1-.04-1 0v33Z"/><path fill="none" fill-opacity="0" stroke="#686868" stroke-opacity=".83" stroke-width=".3" d="M463 306c0 6.57-.6 13.46 0 20 0 0 .92-.18 1 0-8.11-43.19 0-95.94 0-140v-77s-1-.04-1 0v197Z"/><path fill="none" fill-opacity="0" stroke="gray" stroke-opacity=".31" stroke-width=".3" d="M567 113c-2.99 5.49-.51 11.15 0 18 .44 5.93 0 12.06 0 18 0-.04 1 0 1 0 0-12.49-1.12-25.57 0-38 .1-.38-1.14 2.26-1 2Z"/><path fill="none" fill-opacity="0" stroke="#818181" stroke-opacity=".86" stroke-width=".3" d="M568 149v5c1.3-13.46 1-28.75 1-43 0 0-1-.04-1 0-1.12 12.43 0 25.51 0 38Z"/><path fill="none" fill-opacity="0" stroke="#5E5E5E" stroke-opacity=".25" stroke-width=".3" d="M464 186c0-.04 1 0 1 0 0-23.45 1.2-48.32-1-71v71Z"/><path fill="none" fill-opacity="0" stroke="#606060" stroke-opacity=".67" stroke-width=".3" d="M531 175c0-.04 1 0 1 0v-57s-1-.04-1 0v57Z"/><path fill="none" fill-opacity="0" stroke="#5B5B5B" stroke-opacity=".64" stroke-width=".3" d="M600 285c0-.04 1 0 1 0V118s-1-.04-1 0v167Z"/><path fill="none" fill-opacity="0" stroke="#858585" stroke-opacity=".05" stroke-width=".3" d="M566 201c1.07-7.63.32-16.95 1-24v-28c0-5.94.44-12.07 0-18-2.74 19.05-.01 47.24-1 70Z"/><path fill="none" fill-opacity="0" stroke="gray" stroke-opacity=".75" stroke-width=".3" d="M499 325c.05-.14 1 0 1 0 5.62-62.17 0-127.54 0-190 0 0-1-.04-1 0 0 62.55 5.34 127.71 0 190Z"/><path fill="none" fill-opacity="0" stroke="#7B7B7B" stroke-opacity=".68" stroke-width=".3" d="M430 183c0-.04 1 0 1 0v-46s-1-.04-1 0v46Z"/><path fill="none" fill-opacity="0" stroke="#7D7D7D" stroke-opacity=".6" stroke-width=".3" d="M567 177v6c.02.1 1 0 1 0v-34s-1-.04-1 0v28Z"/><path fill="none" fill-opacity="0" stroke="#A3A3A3" stroke-opacity=".01" stroke-width=".3" d="M361 176c.57-3.58.68-9.44 0-13 .04.68-.01 14.2 0 13Z"/><path fill="none" fill-opacity="0" stroke="#626262" stroke-opacity=".78" stroke-width=".3" d="M532 248v-73s-1-.04-1 0c0 24.11-1.26 49.66 1 73Z"/><path fill="none" fill-opacity="0" stroke="#979797" stroke-opacity=".2" stroke-width=".3" d="M566 201c-.91 6.5-1.64 9.71 0 16 .22.84 0 2.13 0 3 .27.25 1 0 1 0-1.09-12.11 0-24.84 0-37v-6c-.68 7.05.07 16.37-1 24Z"/><path fill="none" fill-opacity="0" stroke="#828282" stroke-opacity=".8" stroke-width=".3" d="M430 322c.09-.25.78-.7 1-1 1.28-8.91 0-18.98 0-28V183s-1-.04-1 0c0 22.24-2.43 48.12 0 70 2.43 21.88-6.61 48.38 0 69Z"/><path fill="none" fill-opacity="0" stroke="gray" stroke-opacity=".71" stroke-width=".3" d="M567 220c0-.04 1 0 1 0v-37s-.98.1-1 0c0 12.16-1.09 24.89 0 37Z"/><path fill="none" fill-opacity="0" stroke="#646464" stroke-opacity=".39" stroke-width=".3" d="M464 326c.43 2.27.16.88 1 1 7.97-19.75-3.05-49.5 0-71s0-48.04 0-70c0 0-1-.04-1 0 0 44.06-8.11 96.81 0 140Z"/><path fill="none" fill-opacity="0" stroke="#8B8B8B" stroke-opacity=".04" stroke-width=".3" d="M562 314c-1.37 1.55-4.21 1.79-5 4 .5.05 1 0 1 0 2.09-1.31 5.31-.94 7-2 6.79-6.72 1-46 1-56v-40c0-.87.22-2.16 0-3 .48 11.78-.79 32.02-2 46-1.21 13.98 6.54 41.4-2 51Z"/><path fill="none" fill-opacity="0" stroke="#777" stroke-opacity=".44" stroke-width=".3" d="M566 260c0-.04 1 0 1 0 1.14-12.61 1.14-27.39 0-40 0 0-.73.25-1 0v40Z"/><path fill="none" fill-opacity="0" stroke="gray" stroke-opacity=".82" stroke-width=".3" d="M567 260c1.21-12.48 1-26.73 1-40 0 0-1-.04-1 0 1.14 12.61 1.14 27.39 0 40Z"/><path fill="none" fill-opacity="0" stroke="#888" stroke-opacity=".05" stroke-width=".3" d="M362 292c.29-3.95 0-8.04 0-12 0-13.36-.09-26.61-1-40-.55 16.6-.46 40.59 1 52Z"/><path fill="none" fill-opacity="0" stroke="#757575" stroke-width=".3" d="M420 903c.13 1.3 0 2.69 0 4 .01 4.67 1.11 6.37 3 10 22.92 14.83 83.34 19.7 106.77-4.23 23.43-23.93 7.21-79.48 8.23-115.77 1.02-36.29-6.35-86.9-6.01-125.99.34-39.09-6.76-87.37-5.99-127.01.77-39.64-6.71-84.9-10-122-3.29-37.09 50.49-32.07 66.75-63.25C599.01 327.57 601.58 280.94 598 244c0 36.55.33 85.93-19.3 114.7-19.64 28.77-69.88 25.68-65.63 64.23 4.26 38.54 9.87 83.73 9.93 124.07.06 40.34 3.36 88.11 4.67 127.33S533.08 763.21 534 800c.92 36.79 12.1 92.5-12.3 113.7-24.41 21.2-92.33 15.67-101.7-10.7Z"/><path fill="none" fill-opacity="0" stroke="#707070" stroke-opacity=".38" stroke-width=".3" d="M532 314c.25 3.16 1.12 5.67 1 9 0 0 .75-.25 1 0 .27-2.95-.45-6.08 0-9 .65-4.24 1.05-5.43 0-12-2.27-14.19-.61-31.63-2-46 0 19.13-1.51 38.94 0 58Z"/><path fill="none" fill-opacity="0" stroke="gray" stroke-opacity=".59" stroke-width=".3" d="M565 316c2.15-1.34 1.22-1.92 2-4 2.34-15.68 1.42-36.19 0-52 0 0-1-.04-1 0 0 10 5.79 49.28-1 56Z"/><path fill="none" fill-opacity="0" stroke="#7A7A7A" stroke-opacity=".34" stroke-width=".3" d="M362 292c-.58 7.9-.21 16.1 0 21 .64 1.18 2.05 19.37 3 26 .03-.5-.03-1.5 0-2 .29-4.18-.84-7.84-1-12-.18-4.65 0-9.35 0-14-.84-8.64-1-18.66-1-28v-3s-1-.04-1 0c0 3.96.29 8.05 0 12Z"/><path fill="none" fill-opacity="0" stroke="#DBDBDB" stroke-width=".3" d="M498 329c-.44-.16-1.5 0-2 0-11.82 2.08-25.66.4-38 2-4.5-16.1-6.94-35.88-14-49-8.29 10.69-.26 37.2-11.78 44.22-11.52 7.03-31.69-12.8-44.22-9.22-3.81-7.18-4.49-15.84-10-22-20.26 50.46 49.18 68.5 80 81 43.12-7.21 132.38-16.43 125-78-10.9 14.21-18.1 22.7-40 27-21.9 4.3-23.05-20.57-27-37-14.72-3.9-3.77 46.2-18 41m-89 12c14.75.17 47.08 1.03 59 7 11.92 5.97 57.52-10.18 51.75.75-5.77 10.93-44.6 12.46-57.82 10.32-13.22-2.13-43.86-7.02-52.93-18.07Z"/><path fill="none" fill-opacity="0" stroke="#7D7D7D" stroke-opacity=".84" stroke-width=".3" d="M364 311c0-9.17.85-19.59-1-28 0 9.34.16 19.36 1 28Z"/><path fill="none" fill-opacity="0" stroke="#585858" stroke-opacity=".42" stroke-width=".3" d="M599 322c.28-1.19 1.73-3.85 2-5 .14-3.49.21-5.54 0-9-.45-7.61 0-15.38 0-23 0 0-1-.04-1 0 0 12.55-.16 24.63-1 37Z"/><path fill="none" fill-opacity="0" stroke="#E6E6E6" stroke-opacity=".01" stroke-width=".3" d="M428 306c.7-5.93 1.61-13.17 1-19-.08 3.4-1.02 13.54-1 19Z"/><path fill="none" fill-opacity="0" stroke="#B4B4B4" stroke-opacity=".03" stroke-width=".3" d="M470 326c-.26.12-.6 1.8-1 2 6.35 0 23.75 3.18 29 0 .58-7.63-.33-16.09-1-23v21c-7.57 2.97-19.22-3.57-27 0Z"/><path fill="none" fill-opacity="0" stroke="#767676" stroke-opacity=".1" stroke-width=".3" d="M362 313c.31 7.46-3.91 34.89 5 39-.72-4.35-2.33-8.36-2-13-.95-6.63-2.36-24.82-3-26Z"/><path fill="none" fill-opacity="0" stroke="#B3B3B3" stroke-opacity=".07" stroke-width=".3" d="M397 316c5.29.2 11.93 2.08 15 2-4.08-.95-12.45-1.66-14-7-.14 1.13-.94 3.19-1 5Z"/><path fill="none" fill-opacity="0" stroke="#8B8B8B" stroke-opacity=".02" stroke-width=".3" d="M534 323c1.94-.16 4.29-.04 6-1-.24-.2 0-1 0-1-1.45-.08-2.86.07-4 1 1-2.72-1.99-7.44-2-8-.45 2.92.27 6.05 0 9Z"/><path fill="none" fill-opacity="0" stroke="#AFAFAF" stroke-opacity=".29" stroke-width=".3" d="M553 318c-.13.46.2 1.9 0 2 2.33-.48 3.13-1.09 5-2 0 0-.5.05-1 0-.35-.03-.73-.87-1-1-1.34-.67-2.3.8-3 1m2 0c.74.74-.82-.82 0 0Z"/><path fill="none" fill-opacity="0" stroke="#5D5D5D" stroke-opacity=".2" stroke-width=".3" d="M599 322c-.42 6.22-1.03 12.87-2 19-.69 4.32-1.34 8.7-2 13 3.26-9 5.53-24.88 6-37-.27 1.15-1.72 3.81-2 5Z"/><path fill="none" fill-opacity="0" stroke="#C8C8C8" stroke-opacity=".05" stroke-width=".3" d="M540 321s-.24.8 0 1c-.68-.55 2.96 1.02 2 1 3.77-1.02 7.08-2.2 11-3 .2-.1-.13-1.54 0-2-4.16 1.18-9.48.78-13 3Z"/><path fill="none" fill-opacity="0" stroke="#BBB" stroke-opacity=".06" stroke-width=".3" d="M555 318c-.82-.82.74.74 0 0Z"/><path fill="none" fill-opacity="0" stroke="#B9B9B9" stroke-opacity=".29" stroke-width=".3" d="M421 321s-.51.08-1 0c-2.37.65-5.28-2.62-7 0 3.4.56 6.3 2.67 10 2-.33-.75-1.4-1.65-2-2Z"/><path fill="none" fill-opacity="0" stroke="#BBB" stroke-opacity=".28" stroke-width=".3" d="M534 323s-.03 1 0 1c2.4.16 5.75-.39 8-1 .96.02-2.68-1.55-2-1-1.71.96-4.06.84-6 1Z"/><path fill="none" fill-opacity="0" stroke="#C1C1C1" stroke-opacity=".79" stroke-width=".3" d="M498 328c-5.25 3.18-22.65 0-29 0 0 0-.51.06-1 0-1.36-.16-2.33.93-3 1 9.63 1.73 21.2 0 31 0 .5 0 1.56-.16 2 0 1.65-.3 2.45-2.53 2-4 0 0-.95-.14-1 0-.11 1.32.19 2.28-1 3Z"/><path fill="none" fill-opacity="0" stroke="#5D5D5D" stroke-opacity=".96" stroke-width=".3" d="M365 339c-.33 4.64 1.28 8.65 2 13 0 0 .2.61 0 1 .12.26.87.65 1 1 5.41 6.48 9.05 15.78 14 23 4.98 7.25 11.87 12.87 18 19 8.21 6.48 24.4 11.91 25 23 .2.8.89 1.69 1 3 .05.14 1 0 1 0 14.23-17.55-16.4-32.96-29.77-41.23-13.37-8.27-28.86-28.03-32.23-43.77-.03.5.03 1.5 0 2Z"/><path fill="none" fill-opacity="0" stroke="#F6F6F6" stroke-width=".3" d="M409 341c9.07 11.05 39.71 15.94 52.93 18.07 13.22 2.14 52.05.61 57.82-10.32 5.77-10.93-39.83 5.22-51.75-.75-11.92-5.97-44.25-6.83-59-7Z"/><path fill="none" fill-opacity="0" stroke="#5B5B5B" stroke-opacity=".36" stroke-width=".3" d="M565 394c6.61-4.62 10.7-11.3 17-16 6.64-4.95 11.47-13.99 13-24 .66-4.3 1.31-8.68 2-13-5.54 20.43-14.2 38.38-32 53Z"/><path fill="none" fill-opacity="0" stroke="#676767" stroke-opacity=".08" stroke-width=".3" d="M392 390c-4.12-5.28-9.28-9.58-13-15-4.52-6.59-8.21-13.6-11-21-.13-.35-.88-.74-1-1-4.31 8.26 17.12 34.61 25 37Z"/><path fill="none" fill-opacity="0" stroke="#5C5C5C" stroke-opacity=".64" stroke-width=".3" d="M379 375c.78.78 2.27 1.27 3 2-4.95-7.22-8.59-16.52-14-23 2.79 7.4 6.48 14.41 11 21Z"/><path fill="none" fill-opacity="0" stroke="#5B5B5B" stroke-opacity=".49" stroke-width=".3" d="M392 390c.35.11.74.77 1 1 2.11 1.87 4.78 3.25 7 5-6.13-6.13-13.02-11.75-18-19-.73-.73-2.22-1.22-3-2 3.72 5.42 8.88 9.72 13 15Z"/><path fill="none" fill-opacity="0" stroke="#5F5F5F" stroke-opacity=".11" stroke-width=".3" d="M565 394c-10.52 7.37-22 14.82-34 20-3.78 2.2-5.49 3.41-6 8-.21 14.13 1.7 30.03 2 45 .19 9.24 1 18.48 1 28v12c.92 9.52 2 19.71 2 30 0 15.76 2 30.5 2 46 .94 9.7 1.94 20.3 1 30 .18 8.9 1 17.08 1 26 1.34 13.84 3 28.35 3 43v4c1.56 11.45 1.53 23.72 2 36 1.31 34.27 5 68.51 5 103v6c1.01 10.41 2 21.98 2 33v20c.58 6 2.51 15.1 0 21 0 .5.02 1.5 0 2-.21 6.76-9.07 17.02-15 20 34.42-43.47 10.69-98.63 12-155 1.31-56.37-7.25-123.57-8-181-.75-57.43-8.04-118.22-8-174 19.08-5.64 38.63-19.02 55-39-6.3 4.7-10.39 11.38-17 16Z"/><path fill="none" fill-opacity="0" stroke="#5F5F5F" stroke-opacity=".06" stroke-width=".3" d="M423 427c.15.46 1.86 1.61 2 2 0-3.32.18-6.69 0-10-.6-11.09-16.79-16.52-25-23-2.22-1.75-4.89-3.13-7-5 .24-.18 7.86 11.3 16.75 13.25 8.88 1.96 13.11 12.72 13.25 22.75Z"/><path fill="none" fill-opacity="0" stroke="#5C5C5C" stroke-opacity=".77" stroke-width=".3" d="M526 473v-6c0-14.79-2.67-30.01-1-45 .51-4.59 2.22-5.8 6-8-14.25 6.15-6.33 45.29-5 59Z"/><path fill="none" fill-opacity="0" stroke="#767676" stroke-opacity=".22" stroke-width=".3" d="M425 429v56c0-.04 1 0 1 0 0-20.74 1.77-42.35 0-63-.11-1.31-.8-2.2-1-3 .18 3.31 0 6.68 0 10Z"/><path fill="none" fill-opacity="0" stroke="#7B7B7B" stroke-opacity=".62" stroke-width=".3" d="M426 485c0 6.98 1.55 17.02-1 23v16c0-.04 1 0 1 0 0-5.39.55-11.36 1-16v-12c0-24.33.01-48.67 0-73 0 0 .25-.75 0-1 0 0-.95.14-1 0 1.77 20.65 0 42.26 0 63Z"/><path fill="none" fill-opacity="0" stroke="#5B5B5B" stroke-opacity=".38" stroke-width=".3" d="M526 467c.02-.1 1 0 1 0-.3-14.97-2.21-30.87-2-45-1.67 14.99 1 30.21 1 45Z"/><path fill="none" fill-opacity="0" stroke="#7F7F7F" stroke-opacity=".89" stroke-width=".3" d="M427 496c.96-9.92 2.79-26.68 1-37s4.88-28.06-1-36c.01 24.33 0 48.67 0 73Z"/><path fill="none" fill-opacity="0" stroke="#9A9A9A" stroke-opacity=".02" stroke-width=".3" d="M425 458v-29c-.14-.39-1.85-1.54-2-2 .08 5.59-1.53 29.21 2 31Z"/><path fill="none" fill-opacity="0" stroke="#7D7D7D" stroke-opacity=".07" stroke-width=".3" d="M419 715c.25-.25 1 0 1 0v-16c0-19.88.15-40.85 2-60 0-10.61 1-20.44 1-31 0-12.29-.11-25.5 1-37v-32c0-8.54-2.15-21.6 1-29v-51c-10.2 13.75 1.13 45.71-2.6 64.25-3.73 18.55-.15 44.38-1.4 63.75-1.25 19.37-2.56 48.83-1.01 67.99 1.56 19.17-8.4 45.84-.99 60.01Z"/><path fill="none" fill-opacity="0" stroke="#5D5D5D" stroke-opacity=".49" stroke-width=".3" d="M526 473c0 7.6 1 14.42 1 22 0-.04 1 0 1 0 0-9.52-.81-18.76-1-28 0 0-.98-.1-1 0v6Z"/><path fill="none" fill-opacity="0" stroke="#797979" stroke-opacity=".36" stroke-width=".3" d="M425 508c2.55-5.98 1-16.02 1-23 0 0-1-.04-1 0v23Z"/><path fill="none" fill-opacity="0" stroke="#5D5D5D" stroke-opacity=".72" stroke-width=".3" d="M532 597v-14c0-15.5-2-30.24-2-46-.92-9.47-2-19.89-2-30v-12s-1-.04-1 0c0 34.13 1.79 68.84 5 102Z"/><path fill="none" fill-opacity="0" stroke="#5C5C5C" stroke-opacity=".45" stroke-width=".3" d="M530 537c0-10.29-1.08-20.48-2-30 0 10.11 1.08 20.53 2 30Z"/><path fill="none" fill-opacity="0" stroke="gray" stroke-opacity=".85" stroke-width=".3" d="M426 524c0 12.17-1 23.72-1 36v24c4.99-22.75 2-52.08 2-76-.45 4.64-1 10.61-1 16Z"/><path fill="none" fill-opacity="0" stroke="#787878" stroke-opacity=".22" stroke-width=".3" d="M424 539c.42-4.39 1-9.93 1-15v-14c-3.15 7.4-1 20.46-1 29Z"/><path fill="none" fill-opacity="0" stroke="#7B7B7B" stroke-opacity=".51" stroke-width=".3" d="M424 539v21c0-.04 1 0 1 0 0-12.28 1-23.83 1-36 0 0-1-.04-1 0 0 5.07-.58 10.61-1 15Z"/><path fill="none" fill-opacity="0" stroke="#7D7D7D" stroke-opacity=".63" stroke-width=".3" d="M424 571v16c0-.04 1 0 1 0v-27s-1-.04-1 0v11Z"/><path fill="none" fill-opacity="0" stroke="#7C7C7C" stroke-opacity=".4" stroke-width=".3" d="M423 608c0-.04 1 0 1 0v-37c-1.11 11.5-1 24.71-1 37Z"/><path fill="none" fill-opacity="0" stroke="#5C5C5C" stroke-opacity=".38" stroke-width=".3" d="M532 597v9c.17 1.75.95 4.6 1 7 .94-9.7-.06-20.3-1-30v14Z"/><path fill="none" fill-opacity="0" stroke="gray" stroke-opacity=".86" stroke-width=".3" d="M424 608v12c2.16-9.84 1-22.29 1-33 0 0-1-.04-1 0v21Z"/><path fill="none" fill-opacity="0" stroke="#5D5D5D" stroke-opacity=".78" stroke-width=".3" d="M534 643v-4c0-8.92-.82-17.1-1-26-.05-2.4-.83-5.25-1-7 0 12.57.86 25.2 2 37Z"/><path fill="none" fill-opacity="0" stroke="#7D7D7D" stroke-opacity=".53" stroke-width=".3" d="M422 639v4c.13.22 1 0 1 0 0-6.7-.3-14.06 1-20v-15s-1-.04-1 0c0 10.56-1 20.39-1 31Z"/><path fill="none" fill-opacity="0" stroke="#818181" stroke-opacity=".86" stroke-width=".3" d="M423 643c0 8.02-.3 16.74-1 24v22c2.05-21.16 2-43.85 2-66-1.3 5.94-1 13.3-1 20Z"/><path fill="none" fill-opacity="0" stroke="#7A7A7A" stroke-opacity=".32" stroke-width=".3" d="M420 699c.6-6.15 1.41-14.92 2-21v-39c-1.85 19.15-2 40.12-2 60Z"/><path fill="none" fill-opacity="0" stroke="#5C5C5C" stroke-opacity=".49" stroke-width=".3" d="M534 643v13c.76 7.85 1.93 18.15 3 26 0-14.65-1.66-29.16-3-43v4Z"/><path fill="none" fill-opacity="0" stroke="#7D7D7D" stroke-opacity=".67" stroke-width=".3" d="M422 667c.7-7.26 1-15.98 1-24 0 0-.87.22-1 0v24Z"/><path fill="none" fill-opacity="0" stroke="#5D5D5D" stroke-opacity=".76" stroke-width=".3" d="M538 728v-6c0-12.25-1-23.95-1-36v-4c-1.07-7.85-2.24-18.15-3-26 0 24.05 1.74 48.69 4 72Z"/><path fill="none" fill-opacity="0" stroke="#7E7E7E" stroke-opacity=".58" stroke-width=".3" d="M420 699v44c1.33-13.76.68-30.31 2-44v-21c-.59 6.08-1.4 14.85-2 21Z"/><path fill="none" fill-opacity="0" stroke="#5B5B5B" stroke-opacity=".31" stroke-width=".3" d="M538 722c.02-.1 1 0 1 0-.47-12.28-.44-24.55-2-36 0 12.05 1 23.75 1 36Z"/><path fill="none" fill-opacity="0" stroke="gray" stroke-opacity=".85" stroke-width=".3" d="M420 743v22c2.04-21.13 2-43.85 2-66-1.32 13.69-.67 30.24-2 44Z"/><path fill="none" fill-opacity="0" stroke="#7A7A7A" stroke-opacity=".35" stroke-width=".3" d="M419 716v42c0-.04 1 0 1 0v-43s-.75-.25-1 0v1Z"/><path fill="none" fill-opacity="0" stroke="#898989" stroke-opacity=".04" stroke-width=".3" d="M415 819c.15 1.56 1.86 5.5 2 7v-1c0-9.66.14-20.11 1-29v-21c0-8.35.27-17.42 1-25v-34c-7.94 10.73-.41 33.38-3 48-2.59 14.62-1 40.5-1 55Z"/><path fill="none" fill-opacity="0" stroke="#5D5D5D" stroke-opacity=".46" stroke-width=".3" d="M538 728c0 14.64 2 28.2 2 43 1.05 10.81 2 22.47 2 34v12c.18 1.88 1.82 6.19 2 8 0-34.49-3.69-68.73-5-103 0 0-.98-.1-1 0v6Z"/><path fill="none" fill-opacity="0" stroke="#7A7A7A" stroke-opacity=".21" stroke-width=".3" d="M418 775c0-.04 1 0 1 0v-25c-.73 7.58-1 16.65-1 25Z"/><path fill="none" fill-opacity="0" stroke="#7E7E7E" stroke-opacity=".66" stroke-width=".3" d="M419 775v11c0-.04 1 0 1 0v-28s-1-.04-1 0v17Z"/><path fill="none" fill-opacity="0" stroke="#5D5D5D" stroke-opacity=".73" stroke-width=".3" d="M542 805c0-11.53-.95-23.19-2-34 0 11.53.95 23.19 2 34Z"/><path fill="none" fill-opacity="0" stroke="#777" stroke-opacity=".47" stroke-width=".3" d="M418 796c0 6.92 2.87 23.76-1 29v1c0 23.51-9.98 80.1 8 97h1c-1.98-1.86-1.94-3.97-3-6-1.89-3.63-2.99-5.33-3-10-4.23-25-3.46-56.62-1-82v-50s-1-.04-1 0v21Z"/><path fill="none" fill-opacity="0" stroke="#7F7F7F" stroke-opacity=".85" stroke-width=".3" d="M419 813c.8-8.24 1-18 1-27 0 0-1-.04-1 0v27Z"/><path fill="none" fill-opacity="0" stroke="#787878" stroke-opacity=".25" stroke-width=".3" d="M417 825c3.87-5.24 1-22.08 1-29-.86 8.89-1 19.34-1 29Z"/><path fill="none" fill-opacity="0" stroke="#5D5D5D" stroke-opacity=".67" stroke-width=".3" d="M544 849v-24c-.18-1.81-1.82-6.12-2-8 0 10.39 1.04 22.09 2 32Z"/><path fill="none" fill-opacity="0" stroke="#707070" stroke-opacity=".08" stroke-width=".3" d="M425 923c-17.98-16.9-8-73.49-8-97-.14-1.5-1.85-5.44-2-7 0 14.42-.84 44.11 0 57s-4.18 44.23 10 47Z"/><path fill="none" fill-opacity="0" stroke="#7D7D7D" stroke-opacity=".81" stroke-width=".3" d="M420 907c0-1.31.13-2.7 0-4-2.49-25.35-1-52.19-1-78-2.46 25.38-3.23 57 1 82Z"/><path fill="none" fill-opacity="0" stroke="#5C5C5C" stroke-opacity=".5" stroke-width=".3" d="M544 849c0 10 .1 20.7 1 30 0-5.06.58-10.68 1-15 0-11.02-.99-22.59-2-33v18Z"/><path fill="none" fill-opacity="0" stroke="#5C5C5C" stroke-opacity=".62" stroke-width=".3" d="M545 879c0 20.31-.89 29.1-12 45 6.03-2.95 11.1-11.49 13-17 .02-.5 0-1.5 0-2v-41c-.42 4.32-1 9.94-1 15Z"/><path fill="none" fill-opacity="0" stroke="#5C5C5C" stroke-opacity=".31" stroke-width=".3" d="M546 905c2.51-5.9.58-15 0-21v21Z"/><path fill="none" fill-opacity="0" stroke="#5B5B5B" stroke-opacity=".36" stroke-width=".3" d="M533 924s-.56-.16-1 0c-1.34 1.4-2.96 2.34-4 4 .43-.17 1 0 1 0 1.03-.69.64-.58 2-1 5.93-2.98 14.79-13.24 15-20-1.9 5.51-6.97 14.05-13 17Z"/><path fill="none" fill-opacity="0" stroke="#5B5B5B" stroke-opacity=".41" stroke-width=".3" d="M447 934c2.68-.18 5.91 3.4 8 1-10.82.31-18.83-11.14-28-12 2.16 5.22 15.21 9.55 20 11Z"/><path fill="none" fill-opacity="0" stroke="#5B5B5B" stroke-opacity=".62" stroke-width=".3" d="M510 935c6.36.47 12.35-4.78 18-7 1.04-1.66 2.66-2.6 4-4-5.79 2.09-17.51 7.35-22 11Z"/><path fill="none" fill-opacity="0" stroke="#5C5C5C" stroke-opacity=".18" stroke-width=".3" d="M510 935s-.56-.16-1 0c-3.17 6.95-30.22 4.12-36 3-5.18-1.31-10.84-.69-16-2 .34.77 1.38 1.63 2 2 22.54 4.19 51.44 4.28 70-10 0 0-.57-.17-1 0-5.65 2.22-11.64 7.47-18 7Z"/><path fill="none" fill-opacity="0" stroke="#5B5B5B" stroke-opacity=".58" stroke-width=".3" d="M473 938c5.78 1.12 32.83 3.95 36-3-10.5 3.74-24.51 3.91-36 3Z"/><path fill="#C7C7C7" fill-opacity=".1" d="M369 26c8.06-3.81 12.59.57 20 1 .04-.35.75-.75 1-1s.97-1.04 1-1c-4-6.09-17.68-2.05-22 1Z"/><path fill="#C1C1C1" fill-opacity=".13" d="M430 34c.22-.63 1.6-1.46 2-2 .9-1.23 1.13-3.41 3-4 2.53-2.23 8.69-3.96 12-4 2.06-.03 3.2.19 5 1-.25-.27 0-1 0-1 .43-2.29-21.22-1.48-22 10Z"/><path fill="#A4A4A4" fill-opacity=".12" d="M499 59c.15-4.49.32-9.19 1-13 .32-4.77 1.55-8.98 3-13 .31-1.51.49-1.88 1-3 .92-2.02 2.44-3.81 3-6 5.72.49 12.11-1.43 17 2 1.75.87 3.34 1.73 5 3 .32.24 1 0 1 0-3.81-9.54-26.58-9.86-29.8-.25-3.22 9.62-2.36 23.98-1.2 30.25Z"/><path fill="#B2B2B2" fill-opacity=".31" d="M452 24s-.25.73 0 1c.73.81 2.27 1.29 3 2-.4-2.18 1.08 1.17 1 1 .35.72.69 1.27 1 2 .01.43 2.9-1.84 0-3 1.06-1.12 1.84-.48 3 0-1.45-1.36-5.94-4.77-8-3Z"/><path fill="#949494" fill-opacity=".1" d="M576 25c-1.32.53-2.22.79-4 1 0 0 .07.51 0 1-.27 2.01-2.34 1.14-3 2-11.2 19.19-2.26 68.39-2 84-.14.26 1.1-2.38 1-2-.65-7.2 0-14.77 0-22 0-10.32.08-21.46 1-31 0-6.73.28-14.02 1-20 .08-3.78-.33-7.5 3-10 2.06-1.54 5.22-1.81 8-2 1.46-.3 3.88-1.82 6-1-.53-1.6-2.75-.72-4-1-3.39-.57-3.69-.33-7 1Z"/><path fill="#CECECE" fill-opacity=".28" d="M583 24c1.25.28 3.47-.6 4 1-2.12-.82-4.54.7-6 1 3.99-.27 8.35-.29 12 1 .44.16 1 0 1 0-3.03-4.06-7.34-3.01-11-3Z"/><path fill="#BFBFBF" d="M369 26c-1.33.94-2.89 1.95-4 3 .01-.09.97 2.38 1 3 .05.99 0 2.01 0 3 10 45.58-3 109.73 1 156 4 46.27-3.85 101.67 6.32 144.68 10.17 43.01 82.96 36.44 75.68 82.32-7.28 45.88-9.84 90.21-10.33 138.67-.49 48.46.31 95.8-2.67 145.33-2.98 49.53 3.01 97.62-3 150-6.01 52.38 47.25 76.97 82 36 1.81-160.76-4.87-323.77-21-480 14.66-38.84 76.84-30.82 91.3-74.7 14.46-43.87 1.18-102.92 4.77-151.37 3.59-48.46-2.58-106.8 2.93-154.93-3.65-1.29-8.01-1.27-12-1-2.78.19-5.94.46-8 2-6.47 44.14 4.57 97.92-2 143s11.82 98.92-4 141c-.78 2.08.15 2.66-2 4-1.69 1.06-4.91.69-7 2-1.87.91-2.67 1.52-5 2-3.92.8-7.23 1.98-11 3-2.25.61-5.6 1.16-8 1-10.44-.33-7.82-39.01-9-51-1.18-11.99 1.46-38.22 0-54-1.46-15.78-.31-39.69-1-57-.69-17.31 2.18-36.27 1-55-1.18-18.73 1-40.36 1-59 0-5.72 2.33-17.84-2-22-4.89-3.43-11.28-1.51-17-2-.56 2.19-2.08 3.98-3 6-6.85 30.92 3 66-1 98s4.88 68.11 0 99 8.67 70.17-3 98c.45 1.47-.35 3.7-2 4 14.23 5.2 3.28-44.9 18-41 3.95 16.43 5.1 41.3 27 37 21.9-4.3 29.1-12.79 40-27 7.38 61.57-81.88 70.79-125 78-30.82-12.5-100.26-30.54-80-81 5.51 6.16 6.19 14.82 10 22 12.53-3.58 32.7 16.25 44.22 9.22 11.52-7.02 3.49-33.53 11.78-44.22 7.06 13.12 9.5 32.9 14 49 12.34-1.6 26.18.08 38-2-9.8 0-21.37 1.73-31 0-10.17 1.09-6.16-35.79-8-47-1.84-11.21-.72-38.73-1-53-.28-14.27.34-34.28-.02-50.02-.37-15.75 1.47-35.37-.76-51.2-2.23-15.83 4.26-33.55.78-48.78-3.49-15.24 6.77-35.33 1-49-.31-.73-.65-1.28-1-2-.24-.25-.75-.75-1-1-.73-.71-2.27-1.19-3-2-1.8-.81-2.94-1.03-5-1 11.22 2.33 4.32 25.88-2 29-5.17-7.38-3.79-17.17-10-24-11.54 15.59 6.36 51.67 0 72s2.67 52.3-1 74c-3.67 21.7 4.81 53.27 0 74-4.81 20.73 9 55.73-3 72-.22.3-.91.75-1 1-.62 1.73.12 3.83-3 3 3.29-1.36.35-4.21 1-7-1.76.5-.72 2.72-1 4-2.03-.75-3.83-.74-6-1 .6.35 1.67 1.25 2 2-3.7.67-6.6-1.44-10-2 1.72-2.62 4.63.65 7 0-1.6-2.09-5.51-2.42-8-3-3.07.08-9.71-1.8-15-2-.5-.02-1 0-1 0h-1c-.87 0-2.16.22-3 0-6.89-1.82-1.18-34.98-2.99-45.01-1.81-10.03.75-36.44-.01-49.99-.76-13.55-.35-32.87 0-48 .35-15.13-1.2-34.3 0-50 1.2-15.7-2.63-33.59-1-49 1.63-15.41-.76-32.1 1-47-7.41-.43-11.94-4.81-20-1m216 15c-3.35-1.19-3.83-5.39-2-8 3.35 1.19 3.83 5.39 2 8Z"/><path fill="#DADADA" d="M435 28c-.25.22 0 1 0 1 6.21 6.83 4.83 16.62 10 24 6.32-3.12 13.22-26.67 2-29-3.31.04-9.47 1.77-12 4Z"/><path fill="#6D6D6D" fill-opacity=".09" d="M390 26c.67 1.89 2.29 3.11 3 5 .71 1.89.93 3.56 1 6 2.72 14.12-1.22 31.49 2 46 .05.23.83.67 1 1-.19-19.11 4.25-42.7-6-59-.03-.04-.75.75-1 1Z"/><path fill="#9B9B9B" d="M389 27c-1.76 14.9.63 31.59-1 47s2.2 33.3 1 49c-1.2 15.7.35 34.87 0 50-.35 15.13-.76 34.45 0 48 .76 13.55-1.8 39.96.01 49.99 1.81 10.03-3.9 43.19 2.99 45.01-5.97-3.35 1.33-27.1-.07-38.07-1.41-10.97-.05-26.5-.26-42.6-.21-16.1-2.24-15.67-.67-39.33 1.57-23.66 1.28-59.13.01-83.01-1.27-23.88-.97-19.75.99-39.99 0-13.1 2.53-29.97 1-42-.71-1.89-2.33-3.11-3-5-.25.25-.96.65-1 1Z"/><path fill="#A5A5A5" fill-opacity=".66" d="M455 27c.25.25.76.75 1 1 .08.17-1.4-3.18-1-1Z"/><path fill="#9F9F9F" fill-opacity=".98" d="M457 30c5.77 13.67-4.49 33.76-1 49 3.48 15.23-3.01 32.95-.78 48.78 2.23 15.83.39 35.45.76 51.2.36 15.74-.26 35.75.02 50.02.28 14.27-.84 41.79 1 53 1.84 11.21-2.17 48.09 8 47 .67-.07 1.64-1.16 3-1-1.07-.99-1.45-.78-3-1-.84-.12-.57 1.27-1-1-.08-.18-1 0-1 0-10.73-9.47-.37-42.64-4-58s2.65-41.01 1-59c-1.65-17.99-.64-40.5-1-59s1.16-39.03-.33-57.67S458.35 53.68 460 35c.12-1.32-.09-2.67 0-4 1.39.26.78 2.05 1 3 .59-.88.69-.76 1-2 .47-1.84-.41-3.52-2-5-1.16-.48-1.94-1.12-3 0 2.9 1.16.01 3.43 0 3Z"/><path fill="#8B8B8B" fill-opacity=".99" d="M526 48c1.63 16.81-2 37.27 0 55 2 17.73-.28 38.82 0 56s.84 39.72 1 56c.16 16.28-1.71 43.88 1 57 2.71 13.12-5.99 45.07 5 51 .12-3.33-.75-5.84-1-9-2.86-14.81-.45-31.53-2-47-1.55-15.47-.76-33.38-1-49-.24-15.62.48-35.18 0-50s-1.04-33.32-1-47c.04-13.68 1.06-35.97-1-47-2.05-11.04 4.83-42.29 2-44 .03-.5 0-1 0-1-1.66-1.27-3.25-2.13-5-3 4.33 4.16 2 16.28 2 22Z"/><path fill="#A8A8A8" d="M366 35c.01 39.28-.8 82.33-1 121-.19 38.67 1.31 85.39 1 122-.31 36.61-3.11 73.92 33.08 91.92 36.2 18 43.29 38.75 35.92 76.08-7.37 37.33.19 77.5-2.93 114.08-3.13 36.58-1.02 78.12-2.07 114.92-1.05 36.8-4.97 87.22-3 121 1.97 33.78-10.74 91.36 10.1 112.9 20.84 21.54 84.93 10.9 88.88-21.92 3.94-32.82-2.24-82.42-2.76-118.2-.52-35.79-3.97-78.87-4.57-115.47-.61-36.61-4.99-78.29-5.58-115.39-.59-37.09-3.6-75.95-9.39-111.6-5.8-35.65 32.97-42.29 58.57-62.07 25.59-19.78 38.82-56.2 32.53-92.47-6.29-36.27 5.85-86.5-.78-123.78s11.6-84.97 1-120c-.15.01-.65-.97-1-1 0 0-.56.16-1 0-5.51 48.13.66 106.47-2.93 154.93-3.59 48.45 9.69 107.5-4.77 151.37-14.46 43.88-76.64 35.86-91.3 74.7 16.13 156.23 22.81 319.24 21 480-34.75 40.97-88.01 16.38-82-36 6.01-52.38.02-100.47 3-150s2.18-96.87 2.67-145.33c.49-48.46 3.05-92.79 10.33-138.67 7.28-45.88-65.51-39.31-75.68-82.32C363.15 292.67 371 237.27 367 191c-4-46.27 9-110.42-1-156Z"/><path fill="#9B9B9B" fill-opacity=".99" d="M432 32c-.39 1.8 0 4.15 0 6 4.01 41.42-.03 83.65 0 126 .03 42.35 3.01 87.57-1 129 0 9.02 1.28 19.09 0 28 12-16.27-1.81-51.27 3-72 4.81-20.73-3.67-52.3 0-74 3.67-21.7-5.36-53.67 1-74s-11.54-56.41 0-72c0 0-.25-.78 0-1-1.87.59-2.1 2.77-3 4Z"/><path fill="#929292" fill-opacity=".98" d="M570 38c-.21 10.64-.04 22.12-1 32v41c0 14.25.3 29.54-1 43v66c0 13.27.21 27.52-1 40 1.42 15.81 2.34 36.32 0 52 15.82-42.08-2.57-95.92 4-141s-4.47-98.86 2-143c-3.33 2.5-2.92 6.22-3 10Z"/><path fill="#959595" d="M366 35c0-.99.05-2.01 0-3-.27 5.99-2 13.08-2 20 0 9.17.83 19.66-1 28v203c1.85 8.41 1 18.83 1 28 0 4.65-.18 9.35 0 14 8.08 39.7 44.36 43.97 64.75 72.25s-6.54 82.58.25 119.75-6.08 91.37-3 131c3.08 39.63-5.86 85.4-3 123 2.86 37.6-7.79 93.89.78 127.22s78.43 34.88 99.97 9.53c21.53-25.36 3.68-79.65 6.25-115.75 2.57-36.1-7.84-90.64-5.99-130.01 1.84-39.37-9.48-88.62-6-128 3.48-39.37-12.93-85.15-9.23-121.21 3.7-36.06 61.68-28.01 74.47-63.53 12.8-35.51 14.64-81.69 12.75-123.25-1.89-41.56 1-90.23 1-131v-3c-2.61-11.91-4.56-39.6 0-51 .47-1.17.8-1.69 1-3 .36-2.34.65-7.16-1-9-.26-.14-1.72-1.02-2-1 10.6 35.03-7.63 82.72-1 120s-5.51 87.51.78 123.78c6.29 36.27-6.94 72.69-32.53 92.47-25.6 19.78-64.37 26.42-58.57 62.07 5.79 35.65 8.8 74.51 9.39 111.6.59 37.1 4.97 78.78 5.58 115.39.6 36.6 4.05 79.68 4.57 115.47.52 35.78 6.7 85.38 2.76 118.2-3.95 32.82-68.04 43.46-88.88 21.92-20.84-21.54-8.13-79.12-10.1-112.9-1.97-33.78 1.95-84.2 3-121s-1.06-78.34 2.07-114.92c3.12-36.58-4.44-76.75 2.93-114.08 7.37-37.33.28-58.08-35.92-76.08-36.19-18-33.39-55.31-33.08-91.92.31-36.61-1.19-83.33-1-122 .2-38.67 1.01-81.72 1-121Z"/><path fill="#9F9F9F" fill-opacity=".07" d="M362 53c2.47-7.58.25-16.46 3-24-6.2 5.86-2.42 15.61-3 24Z"/><path fill="#868686" fill-opacity=".29" d="M362 53c-1.99 6.11-1.42 10.92 0 18 .69 3.46.72 9.07 1 12v-3c0-9.33.17-19.44 1-28 0-6.92 1.73-14.01 2-20-.03-.62-.99-3.09-1-3-2.75 7.54-.53 16.42-3 24Z"/><path fill="#717171" fill-opacity=".97" d="M532 314c-1.51-19.06 0-38.87 0-58v-8c-2.26-23.34-1-48.89-1-73V89c0-19.51-3.28-39.88-2-59 2.83 1.71-4.05 32.96-2 44 2.06 11.03 1.04 33.32 1 47-.04 13.68.52 32.18 1 47s-.24 34.38 0 50c.24 15.62-.55 33.53 1 49 1.55 15.47-.86 32.19 2 47Z"/><path fill="#5C5C5C" fill-opacity=".15" d="M529 30c-1.28 19.12 2 39.49 2 59 .87 8.97 1 19.33 1 29v138c1.39 14.37-.27 31.81 2 46-1.65-42.3 3.57-98.9 0-141-3.57-42.1 8.02-91.13-4-132 0 0-.68.24-1 0 0 0 .03.5 0 1Z"/><path fill="#676767" fill-opacity=".16" d="M598 38c.34-.6 1.25-1.67 2-2v36c.23.51 1.69.67 2 1-1.17-6.68 4.37-38.92-5-44 1.65 1.84 1.36 6.66 1 9Z"/><path fill="#949494" fill-opacity=".98" d="M503 33c-4.37 21.56-.91 46.36-3 68v34c0 62.46 5.62 127.83 0 190 11.67-27.83-1.88-67.11 3-98s-4-67 0-99-5.85-67.08 1-98c-.51 1.12-.69 1.49-1 3Z"/><path fill="#727272" fill-opacity=".99" d="M392 73c0 25.86.84 54.35 1.98 80.02 1.13 25.68-4.42 54.32-.98 79.98 3.44 25.66-7.8 57.96 2 81V83c0-15.48-.57-30.84-1-46-.07-2.44-.29-4.11-1-6 1.53 12.03-1 28.9-1 42Z"/><path fill="#7C7C7C" fill-opacity=".72" d="M460 35c0-.04 1 0 1 0v-1c-.22-.95.39-2.74-1-3-.09 1.33.12 2.68 0 4Z"/><path fill="#8E8E8E" fill-opacity=".13" d="M430 34c-7.03 103.26-9.49 172.39-1 253 .61 5.83-.3 13.07-1 19-.51 4.37-.69 7.59 0 12-.65 2.79 2.29 5.64-1 7 3.12.83 2.38-1.27 3-3-6.61-20.62 2.43-47.12 0-69-2.43-21.88 0-47.76 0-70V82c0-7.03.39-14.72 1-21 .65-6.73-1.49-15.14 1-21v-2c0-1.85-.39-4.2 0-6-.4.54-1.78 1.37-2 2Z"/><path fill="#686868" fill-opacity=".38" d="M461 34v7c1.23 12.68 2 26.72 2 40 0-.04 1 0 1 0v-1c1.75-4.02.65-9.02 0-13-.91-5.59.03-16.09 0-16 .19-7.34.3-11.92-2-19-.31 1.24-.41 1.12-1 2Z"/><path fill="#848484" fill-opacity=".8" d="M500 46c-.58 8.58 0 17.4 0 26v29c2.09-21.64-1.37-46.44 3-68-1.45 4.02-2.68 8.23-3 13Z"/><path fill="#F3F3F3" d="M585 41c1.83-2.61 1.35-6.81-2-8-1.83 2.61-1.35 6.81 2 8Z"/><path fill="#888" d="M463 326c-.6-6.54 0-13.43 0-20-7.69-42.92.49-89.77-2-134-2.49-44.23.01-88.49 0-131v-6s-1-.04-1 0c-1.65 18.68-2.82 38.69-1.33 57.33 1.49 18.64-.03 39.17.33 57.67s-.65 41.01 1 59c1.65 17.99-4.63 43.64-1 59s-6.73 48.53 4 58Z"/><path fill="#5E5E5E" fill-opacity=".98" d="M598 38c-.2 1.31-.53 1.83-1 3-3.1 15.62 0 34.99 0 51v3c9.77 44.5 1 102.4 1 149 3.58 36.94 1.01 83.57-15.25 114.75-16.26 31.18-70.04 26.16-66.75 63.25 3.29 37.1 10.77 82.36 10 122-.77 39.64 6.33 87.92 5.99 127.01-.34 39.09 7.03 89.7 6.01 125.99-1.02 36.29 15.2 91.84-8.23 115.77C506.34 936.7 445.92 931.83 423 917c1.06 2.03 1.02 4.14 3 6 0 0 .5-.05 1 0 9.17.86 17.18 12.31 28 12-2.09 2.4-5.32-1.18-8-1 4.26 1.95 7.06 3.08 12 4-.62-.37-1.66-1.23-2-2 5.16 1.31 10.82.69 16 2 11.49.91 25.5.74 36-3 .44-.16 1 0 1 0 4.49-3.65 16.21-8.91 22-11 .44-.16 1 0 1 0 11.11-15.9 12-24.69 12-45-.9-9.3-1-20-1-30-.96-9.91-2-21.61-2-32v-12c-1.05-10.81-2-22.47-2-34 0-14.8-2-28.36-2-43-2.26-23.31-4-47.95-4-72v-13c-1.14-11.8-2-24.43-2-37v-9c-3.21-33.16-5-67.87-5-102 0-7.58-1-14.4-1-22-1.33-13.71-9.25-52.85 5-59 12-5.18 23.48-12.63 34-20 17.8-14.62 26.46-32.57 32-53 .97-6.13 1.58-12.78 2-19 .84-12.37 1-24.45 1-37V90c-1.34-13.82-1.33-30.25 0-44V36c-.75.33-1.66 1.4-2 2Z"/><path fill="#5F5F5F" fill-opacity=".56" d="M395 83c0-.04 1 0 1 0-3.22-14.51.72-31.88-2-46 .43 15.16 1 30.52 1 46Z"/><path fill="#868686" fill-opacity=".98" d="M432 40c0 7.03-.39 14.72-1 21-.66 6.85 0 14.11 0 21v211c4.01-41.43 1.03-86.65 1-129-.03-42.35 4.01-84.58 0-126v2Z"/><path fill="gray" fill-opacity=".65" d="M569 58v12c.96-9.88.79-21.36 1-32-.72 5.98-1 13.27-1 20Z"/><path fill="#7A7A7A" fill-opacity=".6" d="M431 61c.61-6.28 1-13.97 1-21-2.49 5.86-.35 14.27-1 21Z"/><path fill="#727272" fill-opacity=".98" d="M463 306V81c0-13.28-.77-27.32-2-40 .01 42.51-2.49 86.77 0 131 2.49 44.23-5.69 91.08 2 134Z"/><path fill="#7F7F7F" d="M597 92c0-16.01-3.1-35.38 0-51-4.56 11.4-2.61 39.09 0 51Z"/><path fill="#7F7F7F" fill-opacity=".33" d="M499 59c-.08 2.44-.08 3.63 0 6 .08 2.33 0 4.67 0 7 .01.07 1 0 1 0 0-8.6-.58-17.42 0-26-.68 3.81-.85 8.51-1 13Z"/><path fill="#5B5B5B" fill-opacity=".7" d="M600 90V46c-1.33 13.75-1.34 30.18 0 44Z"/><path fill="#9E9E9E" d="M534 324c-.03 0 0-1 0-1-.25-.25-1 0-1 0-10.99-5.93-2.29-37.88-5-51-2.71-13.12-.84-40.72-1-57-.16-16.28-.72-38.82-1-56s2-38.27 0-56c-2-17.73 1.63-38.19 0-55 0 18.64-2.18 40.27-1 59 1.18 18.73-1.69 37.69-1 55 .69 17.31-.46 41.22 1 57 1.46 15.78-1.18 42.01 0 54 1.18 11.99-1.44 50.67 9 51Z"/><path fill="#5C5C5C" fill-opacity=".19" d="M464 67c-.05-4.62-.13-11.07 0-16 .03-.09-.91 10.41 0 16Z"/><path fill="#7E7E7E" fill-opacity=".8" d="M363 80c1.83-8.34 1-18.83 1-28-.83 8.56-1 18.67-1 28Z"/><path fill="#7B7B7B" fill-opacity=".45" d="M568 89c0-.04 1 0 1 0V58c-.92 9.54-1 20.68-1 31Z"/><path fill="#777" fill-opacity=".31" d="M430 82c0-.04 1 0 1 0 0-6.89-.66-14.15 0-21-.61 6.28-1 13.97-1 21Z"/><path fill="#767676" fill-opacity=".09" d="M497 305c.67 6.91 1.58 15.37 1 23 1.19-.72.89-1.68 1-3 5.34-62.29 0-127.45 0-190V72c0-2.33.08-4.67 0-7-12.67 68.26-2 162.96-2 240Z"/><path fill="#8D8D8D" fill-opacity=".18" d="M361 163c.68 3.56.57 9.42 0 13-3.86 24.25-1.57 40.9 0 64 .91 13.39 1 26.64 1 40 0-.04 1 0 1 0v-17c-4.94-51.05-4.93-112.02 0-163V83c-.28-2.93-.31-8.54-1-12 .74 26.96-5.79 66.75-1 92Z"/><path fill="#7A7A7A" fill-opacity=".6" d="M499 135c0-.04 1 0 1 0V72s-.99.07-1 0v63Z"/><path fill="#636363" fill-opacity=".4" d="M600 90v28c0-.04 1 0 1 0 0-12.04-.76-34.28 1-40-.01-1.31.34-3.04 0-5-.31-.33-1.77-.49-2-1v18Z"/><path fill="#878787" d="M392 316c.84.22 2.13 0 3 0-.23-.16 0-1.5 0-2-9.8-23.04 1.44-55.34-2-81-3.44-25.66 2.11-54.3.98-79.98C392.84 127.35 392 98.86 392 73c-1.96 20.24-2.26 16.11-.99 39.99 1.27 23.88 1.56 59.35-.01 83.01-1.57 23.66.46 23.23.67 39.33.21 16.1-1.15 31.63.26 42.6 1.4 10.97-5.9 34.72.07 38.07Z"/><path fill="#646464" fill-opacity=".11" d="M601 118v167c0 7.62-.45 15.39 0 23 10.58-73.12 1.85-155.05 1-230-1.76 5.72-1 27.96-1 40Z"/><path fill="#636363" fill-opacity=".04" d="M464 81v34c2.2 22.68 1 47.55 1 71 0 21.96 3.05 48.5 0 70s7.97 51.25 0 71c1.55.22 1.93.01 3 1 .49.06 1 0 1 0 .4-.2.74-1.88 1-2h-4c-.11-16.39.15-34.81 0-51-.15-16.19.3-34.47 0-50-.3-15.53.63-36.93 0-51s1.4-39.39 0-50 3.73-43.04-2-44v1Z"/><path fill="#606060" fill-opacity=".65" d="M463 109c0-.04 1 0 1 0V81s-1-.04-1 0v28Z"/><path fill="#797979" fill-opacity=".44" d="M430 104c0-.04 1 0 1 0V82s-1-.04-1 0v22Z"/><path fill="#676767" fill-opacity=".78" d="M395 314c0 .5-.23 1.84 0 2h1c-6.98-77.03 6.94-155.96 0-233 0 0-1-.04-1 0v231Z"/><path fill="#636363" fill-opacity=".25" d="M396 316s.5-.02 1 0c.06-1.81.86-3.87 1-5 2.85-23.82 0-52.47-.07-75.92-.07-23.46 3.21-52.38-.14-74.85-3.36-22.47 9.57-55.98-.79-76.23-.17-.33-.95-.77-1-1 6.94 77.04-6.98 155.97 0 233Z"/><path fill="#626262" fill-opacity=".52" d="M531 118c0-.04 1 0 1 0 0-9.67-.13-20.03-1-29v29Z"/><path fill="#7C7D7C" fill-opacity=".68" d="M568 111c0-.04 1 0 1 0V89s-1-.04-1 0c0 7.23-.65 14.8 0 22Z"/><path fill="#848484" d="M364 325c.16 4.16 1.29 7.82 1 12 3.37 15.74 18.86 35.5 32.23 43.77 13.37 8.27 44 23.68 29.77 41.23.25.25 0 1 0 1 5.88 7.94-.79 25.68 1 36s-.04 27.08-1 37v12c0 23.92 2.99 53.25-2 76v3c0 10.71 1.16 23.16-1 33v3c0 22.15.05 44.84-2 66v10c0 22.15.04 44.87-2 66v21c0 9-.2 18.76-1 27v12c0 25.81-1.49 52.65 1 78 9.37 26.37 77.29 31.9 101.7 10.7 24.4-21.2 13.22-76.91 12.3-113.7-.92-36.79-5.02-86.45-6.33-125.67-1.31-39.22-4.61-86.99-4.67-127.33-.06-40.34-5.67-85.53-9.93-124.07-4.25-38.55 45.99-35.46 65.63-64.23C598.33 329.93 598 280.55 598 244c0-46.6 8.77-104.5-1-149 0 40.77-2.89 89.44-1 131 1.89 41.56.05 87.74-12.75 123.25-12.79 35.52-70.77 27.47-74.47 63.53-3.7 36.06 12.71 81.84 9.23 121.21-3.48 39.38 7.84 88.63 6 128-1.85 39.37 8.56 93.91 5.99 130.01-2.57 36.1 15.28 90.39-6.25 115.75-21.54 25.35-91.4 23.8-99.97-9.53-8.57-33.33 2.08-89.62-.78-127.22-2.86-37.6 6.08-83.37 3-123-3.08-39.63 9.79-93.83 3-131-6.79-37.17 20.14-91.47-.25-119.75S372.08 364.7 364 325Z"/><path fill="#7C7C7C" fill-opacity=".72" d="M363 263V100c-4.93 50.98-4.94 111.95 0 163Z"/><path fill="#797979" fill-opacity=".56" d="M430 137c0-.04 1 0 1 0v-33s-1-.04-1 0v33Z"/><path fill="#686868" fill-opacity=".83" d="M463 306c0 6.57-.6 13.46 0 20 0 0 .92-.18 1 0-8.11-43.19 0-95.94 0-140v-77s-1-.04-1 0v197Z"/><path fill="gray" fill-opacity=".31" d="M567 113c-2.99 5.49-.51 11.15 0 18 .44 5.93 0 12.06 0 18 0-.04 1 0 1 0 0-12.49-1.12-25.57 0-38 .1-.38-1.14 2.26-1 2Z"/><path fill="#818181" fill-opacity=".86" d="M568 149v5c1.3-13.46 1-28.75 1-43 0 0-1-.04-1 0-1.12 12.43 0 25.51 0 38Z"/><path fill="#5E5E5E" fill-opacity=".25" d="M464 186c0-.04 1 0 1 0 0-23.45 1.2-48.32-1-71v71Z"/><path fill="#606060" fill-opacity=".67" d="M531 175c0-.04 1 0 1 0v-57s-1-.04-1 0v57Z"/><path fill="#5B5B5B" fill-opacity=".64" d="M600 285c0-.04 1 0 1 0V118s-1-.04-1 0v167Z"/><path fill="#858585" fill-opacity=".05" d="M566 201c1.07-7.63.32-16.95 1-24v-28c0-5.94.44-12.07 0-18-2.74 19.05-.01 47.24-1 70Z"/><path fill="gray" fill-opacity=".75" d="M499 325c.05-.14 1 0 1 0 5.62-62.17 0-127.54 0-190 0 0-1-.04-1 0 0 62.55 5.34 127.71 0 190Z"/><path fill="#7B7B7B" fill-opacity=".68" d="M430 183c0-.04 1 0 1 0v-46s-1-.04-1 0v46Z"/><path fill="#7D7D7D" fill-opacity=".6" d="M567 177v6c.02.1 1 0 1 0v-34s-1-.04-1 0v28Z"/><path fill="#A3A3A3" fill-opacity=".01" d="M361 176c.57-3.58.68-9.44 0-13 .04.68-.01 14.2 0 13Z"/><path fill="#626262" fill-opacity=".78" d="M532 248v-73s-1-.04-1 0c0 24.11-1.26 49.66 1 73Z"/><path fill="#979797" fill-opacity=".2" d="M566 201c-.91 6.5-1.64 9.71 0 16 .22.84 0 2.13 0 3 .27.25 1 0 1 0-1.09-12.11 0-24.84 0-37v-6c-.68 7.05.07 16.37-1 24Z"/><path fill="#828282" fill-opacity=".8" d="M430 322c.09-.25.78-.7 1-1 1.28-8.91 0-18.98 0-28V183s-1-.04-1 0c0 22.24-2.43 48.12 0 70 2.43 21.88-6.61 48.38 0 69Z"/><path fill="gray" fill-opacity=".71" d="M567 220c0-.04 1 0 1 0v-37s-.98.1-1 0c0 12.16-1.09 24.89 0 37Z"/><path fill="#646464" fill-opacity=".39" d="M464 326c.43 2.27.16.88 1 1 7.97-19.75-3.05-49.5 0-71s0-48.04 0-70c0 0-1-.04-1 0 0 44.06-8.11 96.81 0 140Z"/><path fill="#8B8B8B" fill-opacity=".04" d="M562 314c-1.37 1.55-4.21 1.79-5 4 .5.05 1 0 1 0 2.09-1.31 5.31-.94 7-2 6.79-6.72 1-46 1-56v-40c0-.87.22-2.16 0-3 .48 11.78-.79 32.02-2 46-1.21 13.98 6.54 41.4-2 51Z"/><path fill="#777" fill-opacity=".44" d="M566 260c0-.04 1 0 1 0 1.14-12.61 1.14-27.39 0-40 0 0-.73.25-1 0v40Z"/><path fill="gray" fill-opacity=".82" d="M567 260c1.21-12.48 1-26.73 1-40 0 0-1-.04-1 0 1.14 12.61 1.14 27.39 0 40Z"/><path fill="#888" fill-opacity=".05" d="M362 292c.29-3.95 0-8.04 0-12 0-13.36-.09-26.61-1-40-.55 16.6-.46 40.59 1 52Z"/><path fill="#757575" d="M420 903c.13 1.3 0 2.69 0 4 .01 4.67 1.11 6.37 3 10 22.92 14.83 83.34 19.7 106.77-4.23 23.43-23.93 7.21-79.48 8.23-115.77 1.02-36.29-6.35-86.9-6.01-125.99.34-39.09-6.76-87.37-5.99-127.01.77-39.64-6.71-84.9-10-122-3.29-37.09 50.49-32.07 66.75-63.25C599.01 327.57 601.58 280.94 598 244c0 36.55.33 85.93-19.3 114.7-19.64 28.77-69.88 25.68-65.63 64.23 4.26 38.54 9.87 83.73 9.93 124.07.06 40.34 3.36 88.11 4.67 127.33S533.08 763.21 534 800c.92 36.79 12.1 92.5-12.3 113.7-24.41 21.2-92.33 15.67-101.7-10.7Z"/><path fill="#707070" fill-opacity=".38" d="M532 314c.25 3.16 1.12 5.67 1 9 0 0 .75-.25 1 0 .27-2.95-.45-6.08 0-9 .65-4.24 1.05-5.43 0-12-2.27-14.19-.61-31.63-2-46 0 19.13-1.51 38.94 0 58Z"/><path fill="gray" fill-opacity=".59" d="M565 316c2.15-1.34 1.22-1.92 2-4 2.34-15.68 1.42-36.19 0-52 0 0-1-.04-1 0 0 10 5.79 49.28-1 56Z"/><path fill="#7A7A7A" fill-opacity=".34" d="M362 292c-.58 7.9-.21 16.1 0 21 .64 1.18 2.05 19.37 3 26 .03-.5-.03-1.5 0-2 .29-4.18-.84-7.84-1-12-.18-4.65 0-9.35 0-14-.84-8.64-1-18.66-1-28v-3s-1-.04-1 0c0 3.96.29 8.05 0 12Z"/><path fill="#DBDBDB" d="M498 329c-.44-.16-1.5 0-2 0-11.82 2.08-25.66.4-38 2-4.5-16.1-6.94-35.88-14-49-8.29 10.69-.26 37.2-11.78 44.22-11.52 7.03-31.69-12.8-44.22-9.22-3.81-7.18-4.49-15.84-10-22-20.26 50.46 49.18 68.5 80 81 43.12-7.21 132.38-16.43 125-78-10.9 14.21-18.1 22.7-40 27-21.9 4.3-23.05-20.57-27-37-14.72-3.9-3.77 46.2-18 41m-89 12c14.75.17 47.08 1.03 59 7 11.92 5.97 57.52-10.18 51.75.75-5.77 10.93-44.6 12.46-57.82 10.32-13.22-2.13-43.86-7.02-52.93-18.07Z"/><path fill="#7D7D7D" fill-opacity=".84" d="M364 311c0-9.17.85-19.59-1-28 0 9.34.16 19.36 1 28Z"/><path fill="#585858" fill-opacity=".42" d="M599 322c.28-1.19 1.73-3.85 2-5 .14-3.49.21-5.54 0-9-.45-7.61 0-15.38 0-23 0 0-1-.04-1 0 0 12.55-.16 24.63-1 37Z"/><path fill="#E6E6E6" fill-opacity=".01" d="M428 306c.7-5.93 1.61-13.17 1-19-.08 3.4-1.02 13.54-1 19Z"/><path fill="#B4B4B4" fill-opacity=".03" d="M470 326c-.26.12-.6 1.8-1 2 6.35 0 23.75 3.18 29 0 .58-7.63-.33-16.09-1-23v21c-7.57 2.97-19.22-3.57-27 0Z"/><path fill="#767676" fill-opacity=".1" d="M362 313c.31 7.46-3.91 34.89 5 39-.72-4.35-2.33-8.36-2-13-.95-6.63-2.36-24.82-3-26Z"/><path fill="#B3B3B3" fill-opacity=".07" d="M397 316c5.29.2 11.93 2.08 15 2-4.08-.95-12.45-1.66-14-7-.14 1.13-.94 3.19-1 5Z"/><path fill="#8B8B8B" fill-opacity=".02" d="M534 323c1.94-.16 4.29-.04 6-1-.24-.2 0-1 0-1-1.45-.08-2.86.07-4 1 1-2.72-1.99-7.44-2-8-.45 2.92.27 6.05 0 9Z"/><path fill="#AFAFAF" fill-opacity=".29" d="M553 318c-.13.46.2 1.9 0 2 2.33-.48 3.13-1.09 5-2 0 0-.5.05-1 0-.35-.03-.73-.87-1-1-1.34-.67-2.3.8-3 1m2 0c.74.74-.82-.82 0 0Z"/><path fill="#5D5D5D" fill-opacity=".2" d="M599 322c-.42 6.22-1.03 12.87-2 19-.69 4.32-1.34 8.7-2 13 3.26-9 5.53-24.88 6-37-.27 1.15-1.72 3.81-2 5Z"/><path fill="#C8C8C8" fill-opacity=".05" d="M540 321s-.24.8 0 1c-.68-.55 2.96 1.02 2 1 3.77-1.02 7.08-2.2 11-3 .2-.1-.13-1.54 0-2-4.16 1.18-9.48.78-13 3Z"/><path fill="#BBB" fill-opacity=".06" d="M555 318c-.82-.82.74.74 0 0Z"/><path fill="#B9B9B9" fill-opacity=".29" d="M421 321s-.51.08-1 0c-2.37.65-5.28-2.62-7 0 3.4.56 6.3 2.67 10 2-.33-.75-1.4-1.65-2-2Z"/><path fill="#BBB" fill-opacity=".28" d="M534 323s-.03 1 0 1c2.4.16 5.75-.39 8-1 .96.02-2.68-1.55-2-1-1.71.96-4.06.84-6 1Z"/><path fill="#C1C1C1" fill-opacity=".79" d="M498 328c-5.25 3.18-22.65 0-29 0 0 0-.51.06-1 0-1.36-.16-2.33.93-3 1 9.63 1.73 21.2 0 31 0 .5 0 1.56-.16 2 0 1.65-.3 2.45-2.53 2-4 0 0-.95-.14-1 0-.11 1.32.19 2.28-1 3Z"/><path fill="#5D5D5D" fill-opacity=".96" d="M365 339c-.33 4.64 1.28 8.65 2 13 0 0 .2.61 0 1 .12.26.87.65 1 1 5.41 6.48 9.05 15.78 14 23 4.98 7.25 11.87 12.87 18 19 8.21 6.48 24.4 11.91 25 23 .2.8.89 1.69 1 3 .05.14 1 0 1 0 14.23-17.55-16.4-32.96-29.77-41.23-13.37-8.27-28.86-28.03-32.23-43.77-.03.5.03 1.5 0 2Z"/><path fill="#F6F6F6" d="M409 341c9.07 11.05 39.71 15.94 52.93 18.07 13.22 2.14 52.05.61 57.82-10.32 5.77-10.93-39.83 5.22-51.75-.75-11.92-5.97-44.25-6.83-59-7Z"/><path fill="#5B5B5B" fill-opacity=".36" d="M565 394c6.61-4.62 10.7-11.3 17-16 6.64-4.95 11.47-13.99 13-24 .66-4.3 1.31-8.68 2-13-5.54 20.43-14.2 38.38-32 53Z"/><path fill="#676767" fill-opacity=".08" d="M392 390c-4.12-5.28-9.28-9.58-13-15-4.52-6.59-8.21-13.6-11-21-.13-.35-.88-.74-1-1-4.31 8.26 17.12 34.61 25 37Z"/><path fill="#5C5C5C" fill-opacity=".64" d="M379 375c.78.78 2.27 1.27 3 2-4.95-7.22-8.59-16.52-14-23 2.79 7.4 6.48 14.41 11 21Z"/><path fill="#5B5B5B" fill-opacity=".49" d="M392 390c.35.11.74.77 1 1 2.11 1.87 4.78 3.25 7 5-6.13-6.13-13.02-11.75-18-19-.73-.73-2.22-1.22-3-2 3.72 5.42 8.88 9.72 13 15Z"/><path fill="#5F5F5F" fill-opacity=".11" d="M565 394c-10.52 7.37-22 14.82-34 20-3.78 2.2-5.49 3.41-6 8-.21 14.13 1.7 30.03 2 45 .19 9.24 1 18.48 1 28v12c.92 9.52 2 19.71 2 30 0 15.76 2 30.5 2 46 .94 9.7 1.94 20.3 1 30 .18 8.9 1 17.08 1 26 1.34 13.84 3 28.35 3 43v4c1.56 11.45 1.53 23.72 2 36 1.31 34.27 5 68.51 5 103v6c1.01 10.41 2 21.98 2 33v20c.58 6 2.51 15.1 0 21 0 .5.02 1.5 0 2-.21 6.76-9.07 17.02-15 20 34.42-43.47 10.69-98.63 12-155 1.31-56.37-7.25-123.57-8-181-.75-57.43-8.04-118.22-8-174 19.08-5.64 38.63-19.02 55-39-6.3 4.7-10.39 11.38-17 16Z"/><path fill="#5F5F5F" fill-opacity=".06" d="M423 427c.15.46 1.86 1.61 2 2 0-3.32.18-6.69 0-10-.6-11.09-16.79-16.52-25-23-2.22-1.75-4.89-3.13-7-5 .24-.18 7.86 11.3 16.75 13.25 8.88 1.96 13.11 12.72 13.25 22.75Z"/><path fill="#5C5C5C" fill-opacity=".77" d="M526 473v-6c0-14.79-2.67-30.01-1-45 .51-4.59 2.22-5.8 6-8-14.25 6.15-6.33 45.29-5 59Z"/><path fill="#767676" fill-opacity=".22" d="M425 429v56c0-.04 1 0 1 0 0-20.74 1.77-42.35 0-63-.11-1.31-.8-2.2-1-3 .18 3.31 0 6.68 0 10Z"/><path fill="#7B7B7B" fill-opacity=".62" d="M426 485c0 6.98 1.55 17.02-1 23v16c0-.04 1 0 1 0 0-5.39.55-11.36 1-16v-12c0-24.33.01-48.67 0-73 0 0 .25-.75 0-1 0 0-.95.14-1 0 1.77 20.65 0 42.26 0 63Z"/><path fill="#5B5B5B" fill-opacity=".38" d="M526 467c.02-.1 1 0 1 0-.3-14.97-2.21-30.87-2-45-1.67 14.99 1 30.21 1 45Z"/><path fill="#7F7F7F" fill-opacity=".89" d="M427 496c.96-9.92 2.79-26.68 1-37s4.88-28.06-1-36c.01 24.33 0 48.67 0 73Z"/><path fill="#9A9A9A" fill-opacity=".02" d="M425 458v-29c-.14-.39-1.85-1.54-2-2 .08 5.59-1.53 29.21 2 31Z"/><path fill="#7D7D7D" fill-opacity=".07" d="M419 715c.25-.25 1 0 1 0v-16c0-19.88.15-40.85 2-60 0-10.61 1-20.44 1-31 0-12.29-.11-25.5 1-37v-32c0-8.54-2.15-21.6 1-29v-51c-10.2 13.75 1.13 45.71-2.6 64.25-3.73 18.55-.15 44.38-1.4 63.75-1.25 19.37-2.56 48.83-1.01 67.99 1.56 19.17-8.4 45.84-.99 60.01Z"/><path fill="#5D5D5D" fill-opacity=".49" d="M526 473c0 7.6 1 14.42 1 22 0-.04 1 0 1 0 0-9.52-.81-18.76-1-28 0 0-.98-.1-1 0v6Z"/><path fill="#797979" fill-opacity=".36" d="M425 508c2.55-5.98 1-16.02 1-23 0 0-1-.04-1 0v23Z"/><path fill="#5D5D5D" fill-opacity=".72" d="M532 597v-14c0-15.5-2-30.24-2-46-.92-9.47-2-19.89-2-30v-12s-1-.04-1 0c0 34.13 1.79 68.84 5 102Z"/><path fill="#5C5C5C" fill-opacity=".45" d="M530 537c0-10.29-1.08-20.48-2-30 0 10.11 1.08 20.53 2 30Z"/><path fill="gray" fill-opacity=".85" d="M426 524c0 12.17-1 23.72-1 36v24c4.99-22.75 2-52.08 2-76-.45 4.64-1 10.61-1 16Z"/><path fill="#787878" fill-opacity=".22" d="M424 539c.42-4.39 1-9.93 1-15v-14c-3.15 7.4-1 20.46-1 29Z"/><path fill="#7B7B7B" fill-opacity=".51" d="M424 539v21c0-.04 1 0 1 0 0-12.28 1-23.83 1-36 0 0-1-.04-1 0 0 5.07-.58 10.61-1 15Z"/><path fill="#7D7D7D" fill-opacity=".63" d="M424 571v16c0-.04 1 0 1 0v-27s-1-.04-1 0v11Z"/><path fill="#7C7C7C" fill-opacity=".4" d="M423 608c0-.04 1 0 1 0v-37c-1.11 11.5-1 24.71-1 37Z"/><path fill="#5C5C5C" fill-opacity=".38" d="M532 597v9c.17 1.75.95 4.6 1 7 .94-9.7-.06-20.3-1-30v14Z"/><path fill="gray" fill-opacity=".86" d="M424 608v12c2.16-9.84 1-22.29 1-33 0 0-1-.04-1 0v21Z"/><path fill="#5D5D5D" fill-opacity=".78" d="M534 643v-4c0-8.92-.82-17.1-1-26-.05-2.4-.83-5.25-1-7 0 12.57.86 25.2 2 37Z"/><path fill="#7D7D7D" fill-opacity=".53" d="M422 639v4c.13.22 1 0 1 0 0-6.7-.3-14.06 1-20v-15s-1-.04-1 0c0 10.56-1 20.39-1 31Z"/><path fill="#818181" fill-opacity=".86" d="M423 643c0 8.02-.3 16.74-1 24v22c2.05-21.16 2-43.85 2-66-1.3 5.94-1 13.3-1 20Z"/><path fill="#7A7A7A" fill-opacity=".32" d="M420 699c.6-6.15 1.41-14.92 2-21v-39c-1.85 19.15-2 40.12-2 60Z"/><path fill="#5C5C5C" fill-opacity=".49" d="M534 643v13c.76 7.85 1.93 18.15 3 26 0-14.65-1.66-29.16-3-43v4Z"/><path fill="#7D7D7D" fill-opacity=".67" d="M422 667c.7-7.26 1-15.98 1-24 0 0-.87.22-1 0v24Z"/><path fill="#5D5D5D" fill-opacity=".76" d="M538 728v-6c0-12.25-1-23.95-1-36v-4c-1.07-7.85-2.24-18.15-3-26 0 24.05 1.74 48.69 4 72Z"/><path fill="#7E7E7E" fill-opacity=".58" d="M420 699v44c1.33-13.76.68-30.31 2-44v-21c-.59 6.08-1.4 14.85-2 21Z"/><path fill="#5B5B5B" fill-opacity=".31" d="M538 722c.02-.1 1 0 1 0-.47-12.28-.44-24.55-2-36 0 12.05 1 23.75 1 36Z"/><path fill="gray" fill-opacity=".85" d="M420 743v22c2.04-21.13 2-43.85 2-66-1.32 13.69-.67 30.24-2 44Z"/><path fill="#7A7A7A" fill-opacity=".35" d="M419 716v42c0-.04 1 0 1 0v-43s-.75-.25-1 0v1Z"/><path fill="#898989" fill-opacity=".04" d="M415 819c.15 1.56 1.86 5.5 2 7v-1c0-9.66.14-20.11 1-29v-21c0-8.35.27-17.42 1-25v-34c-7.94 10.73-.41 33.38-3 48-2.59 14.62-1 40.5-1 55Z"/><path fill="#5D5D5D" fill-opacity=".46" d="M538 728c0 14.64 2 28.2 2 43 1.05 10.81 2 22.47 2 34v12c.18 1.88 1.82 6.19 2 8 0-34.49-3.69-68.73-5-103 0 0-.98-.1-1 0v6Z"/><path fill="#7A7A7A" fill-opacity=".21" d="M418 775c0-.04 1 0 1 0v-25c-.73 7.58-1 16.65-1 25Z"/><path fill="#7E7E7E" fill-opacity=".66" d="M419 775v11c0-.04 1 0 1 0v-28s-1-.04-1 0v17Z"/><path fill="#5D5D5D" fill-opacity=".73" d="M542 805c0-11.53-.95-23.19-2-34 0 11.53.95 23.19 2 34Z"/><path fill="#777" fill-opacity=".47" d="M418 796c0 6.92 2.87 23.76-1 29v1c0 23.51-9.98 80.1 8 97h1c-1.98-1.86-1.94-3.97-3-6-1.89-3.63-2.99-5.33-3-10-4.23-25-3.46-56.62-1-82v-50s-1-.04-1 0v21Z"/><path fill="#7F7F7F" fill-opacity=".85" d="M419 813c.8-8.24 1-18 1-27 0 0-1-.04-1 0v27Z"/><path fill="#787878" fill-opacity=".25" d="M417 825c3.87-5.24 1-22.08 1-29-.86 8.89-1 19.34-1 29Z"/><path fill="#5D5D5D" fill-opacity=".67" d="M544 849v-24c-.18-1.81-1.82-6.12-2-8 0 10.39 1.04 22.09 2 32Z"/><path fill="#707070" fill-opacity=".08" d="M425 923c-17.98-16.9-8-73.49-8-97-.14-1.5-1.85-5.44-2-7 0 14.42-.84 44.11 0 57s-4.18 44.23 10 47Z"/><path fill="#7D7D7D" fill-opacity=".81" d="M420 907c0-1.31.13-2.7 0-4-2.49-25.35-1-52.19-1-78-2.46 25.38-3.23 57 1 82Z"/><path fill="#5C5C5C" fill-opacity=".5" d="M544 849c0 10 .1 20.7 1 30 0-5.06.58-10.68 1-15 0-11.02-.99-22.59-2-33v18Z"/><path fill="#5C5C5C" fill-opacity=".62" d="M545 879c0 20.31-.89 29.1-12 45 6.03-2.95 11.1-11.49 13-17 .02-.5 0-1.5 0-2v-41c-.42 4.32-1 9.94-1 15Z"/><path fill="#5C5C5C" fill-opacity=".31" d="M546 905c2.51-5.9.58-15 0-21v21Z"/><path fill="#5B5B5B" fill-opacity=".36" d="M533 924s-.56-.16-1 0c-1.34 1.4-2.96 2.34-4 4 .43-.17 1 0 1 0 1.03-.69.64-.58 2-1 5.93-2.98 14.79-13.24 15-20-1.9 5.51-6.97 14.05-13 17Z"/><path fill="#5B5B5B" fill-opacity=".41" d="M447 934c2.68-.18 5.91 3.4 8 1-10.82.31-18.83-11.14-28-12 2.16 5.22 15.21 9.55 20 11Z"/><path fill="#5B5B5B" fill-opacity=".62" d="M510 935c6.36.47 12.35-4.78 18-7 1.04-1.66 2.66-2.6 4-4-5.79 2.09-17.51 7.35-22 11Z"/><path fill="#5C5C5C" fill-opacity=".18" d="M510 935s-.56-.16-1 0c-3.17 6.95-30.22 4.12-36 3-5.18-1.31-10.84-.69-16-2 .34.77 1.38 1.63 2 2 22.54 4.19 51.44 4.28 70-10 0 0-.57-.17-1 0-5.65 2.22-11.64 7.47-18 7Z"/><path fill="#5B5B5B" fill-opacity=".58" d="M473 938c5.78 1.12 32.83 3.95 36-3-10.5 3.74-24.51 3.91-36 3Z"/></svg>