<svg width="100%" height="100%" xmlns="http://www.w3.org/2000/svg" viewBox="0 0 961 961"><path fill="none" fill-opacity="0" stroke="#323232" stroke-opacity=".05" stroke-width=".3" d="M371 25c1.16-.41 1.7-.8 3-1 2.12-.72 4.27-1.09 7-1-4.88-.79-5.91-1.27-10 2Z"/><path fill="none" fill-opacity="0" stroke="#353535" stroke-opacity=".13" stroke-width=".3" d="M430 35c.16-.95 1.51-3.09 2-4 .01-.5 0-1 0-1 1.4-3.09 5.13-4.16 8-5 1.66-.49 3.27-.6 5-1 1.64-.37 3.69-1.55 6-1 .25-.38-10.94-1.5-14.77 1.23S430.2 29.03 430 35Z"/><path fill="none" fill-opacity="0" stroke="#2A2A2A" stroke-opacity=".12" stroke-width=".3" d="M497 149c0-.04 1 0 1 0v-46c0-7.69.33-16.07 1-23 0-11.3-.45-22.71 0-34 .08-2.04.67-3.57 1-5 .48-4.06.77-9.44 3-13 3.52-5.63 12.35-5.76 18-4 2.36.74 6.68 2.6 8 5-4.33-13.69-32.83-8.11-30.93 8.92 1.89 17.03-2.2 35.5-1.07 54.08 1.13 18.58 0 38.88 0 57Z"/><path fill="none" fill-opacity="0" stroke="#363636" stroke-opacity=".19" stroke-width=".3" d="M374 24c2.38-.37 5.6-.25 8 0 2.63.27 5.56.98 8 2 .92-3.4-5.98-2.51-9-3-2.73-.09-4.88.28-7 1Z"/><path fill="none" fill-opacity="0" stroke="#282828" stroke-opacity=".73" stroke-width=".3" d="M445 24c.29-.25 1 0 1 0 .5 0 1.5-.01 2 0 .99.02 2.02.06 3 0 0 0-.23-.65 0-1-2.31-.55-4.36.63-6 1Z"/><path fill="none" fill-opacity="0" stroke="#262626" stroke-opacity=".15" stroke-width=".3" d="M453 24c.23.34 0 1 0 1 3.22 1.15 7.49 3.77 9 7 .54-1.31 1.41-2.44 1-4-4.01-.87-6.04-5.83-10-4Z"/><path fill="none" fill-opacity="0" stroke="#202020" stroke-width=".3" d="M503 28c1.07-1.19 2.63-2.18 4-1-2.63 12.64 1.74 30.18 1.33 42.67-.41 12.49.54 21.73.87 34.58.33 12.84-1.28 23.74.58 35.97 1.86 12.24-3.2 27.5-1.77 40.79 1.42 13.28 1.38 20.63 1 33-.39 12.37-.01 26.07-.01 38.99 0 12.93 1.46 27.27-1.59 38.75-3.06 11.47 4.12 31.65-9.41 36.25-1.33.05-2.67 0-4 0h-10c-5.59 0-11.44.5-17 0 6.93 4.9 20.86-1.59 29 1-11.94 1.96-25.57.62-38 2-3.1-7.9-3.05-17.91-6.32-25.68-3.28-7.77-2.53-18.33-7.68-23.32-1.25 4.56.74 9.82 0 15-10.21 5.54-2.28 32.07-19 30-16.72-2.07-23.53-9.29-39-9 .58-7.21-9.25-14.63-9.07-5.92.18 8.7 2.8 14.1 7.82 20.17 5.03 6.07 9.32 8.27 14.95 13.05 5.63 4.78 11.78 5.33 17.55 8.89 5.77 3.57 12.02 4.73 18.42 7.14 6.4 2.41 12.89 6.32 19.55 8.45 6.66 2.13 12.38 2.46 16.78 5.22 8.74-4.97 19.98.79 29.22-2.78 9.24-3.57 17.22-3.96 27.46-7.54 10.24-3.58 18.32-6.71 27.99-11.01 9.68-4.3 16.59-9.51 22.58-18.42 5.99-8.9 10.52-19.6 8.42-30.92-2.1-11.32-2.31-25.91-2-37 .31-11.09 1.58-25.16 1.33-36.33-.25-11.17.41-22.76 0-35-.41-12.24 1.11-21.41.93-33.08-.18-11.67-2.96-21.65-1.86-33 1.09-11.36-1.04-23.38-.05-34.94 1-11.57.41-24.29.05-35.05-.36-10.77 7.43-23 8.93-31.93-1.32-1.1-1.23-1.39-3-2-6.69-2.32-14.92-1.56-20 3 3.35.08 2.15 11.16 3 15 .85 3.84.9 11.37 1 17 .1 5.63-.26 10.23-1 17-.73 6.78 2.33 7.8 1 17s-.29 21.78-.21 30.23c.07 8.45-1.46 7.49.2 15.78 1.67 8.29-1.4 7.19-.99 16.99.41 9.8 1.84 22.77.01 32.01-1.84 9.24.95 9.02-.01 17.99-.96 8.97 1.88 21.64.2 30.25-1.68 8.6-2.32 5.57-1.2 14.75 1.12 9.18 1.1 24.94 0 34-1.1 9.06 1.97 25.25-6 30 9.77.33 3.17-13.22 11.25-14.75 8.08-1.53 5.25 14.59 3.75 18.75-3.93 10.9-13.74 19.89-25.08 23.92-11.35 4.03-24.47 7.15-36.15 11.85-11.68 4.7-27.72 4.62-39.8 7.21-12.08 2.59-29.29-.35-40.05-5.9-10.75-5.56-27.69-4.44-36-13-8.3-8.57-22.01-13.36-25.92-24.08-1.02-2.79-1.17-5.89-1-9 2.8-.11 4.02 2.94 5 5 .74 1.13 1.4 2.55 2 4 5.68-3.03 10.21 8.52 14 3 6.71 3.22 16.68 6.68 26.22 7.78 9.55 1.1 15.11-15.12 15.78-21.78v-1c.51-2.33 2.23-5.91 5-6 3.76 10.03 2.45 31.21 17.02 30.98 14.58-.23 22.11 2.58 35.98-1.98 13.88-4.55 4.38-27.76 12-37 12.31 6.02 4.99 29.44 19 30-11.51-5.63-7.66-26.22-12.06-35.08-4.41-8.86-1.3-11.78-1.94-20.92-.64-9.14-2.06-12.46 0-22s-1.09-9.46-.33-20.67.63-26.69.26-38.4c-.38-11.72.08-14.22-.71-23.15-.79-8.93 1.71-13.68.78-21.78-.93-8.1-.25-14.04.2-21.25.44-7.2.2-13.51-.2-20.75s1.32-11.87.6-18.74c-.73-6.87-.68-11.94 1.38-18.28 2.06-6.35-3.11-18.14 2.32-22.68 5.43-4.53-2.87-16.8-.3-17.3-5.65-1.76-14.48-1.63-18 4m5 0c10.93-5.69 16.75 4.33 10.02 15.02C511.3 53.72 505.49 36.86 508 28m72 22c2.73-6.31-7.41-13.93-3.67-19.67 3.74-5.74 17.43-2.6 12.92 3.92-4.52 6.51 2.8 16.99-9.25 15.75Z"/><path fill="none" fill-opacity="0" stroke="#353535" stroke-opacity=".15" stroke-width=".3" d="M569 31c.04-.13 1 0 1 0 .67-.64 1.33-1.4 2-2 5.08-4.56 13.31-5.32 20-3-4.92-2.78-23.48-5.43-23 5Z"/><path fill="none" fill-opacity="0" stroke="#2C2C2C" stroke-width=".3" d="M371 25c-1.15.41-1.14.38-2 1 .09 3.47.32 9.87 1.93 15.07 1.61 5.21 3.87 10.52 5.07 15.93 5-6.79 18.13-25.68 4-31 .08-1.26 2.06-.56 2-2-2.4-.25-5.62-.37-8 0-1.3.2-1.84.59-3 1m13 4c1.47 6.61-1.84 11.47-4 17-11.72-1.15-10.76-27.71 4-17Z"/><path fill="none" fill-opacity="0" stroke="#000" stroke-width=".3" d="M369 26c-1.26.9-2.83 1.91-4 3-.79 1.36-.73 3.42-1 5-.97 5.64-1.49 12.77-2 18v31c0 9.33-.17 19.44-1 28v152c.49 5.04 1 11.27 1 17v13c0 1.65.13 3.36 0 5-.51 6.41 0 11.97 0 19 .39 4.06 1 9.26 1 14 0 1.66-.08 3.34 0 5 .55 3.73 2.13 8.84 3 13 .34 1.65.64 3.29 1 5 .52 1.67 2.23 4.07 3 6 1.71 4.26 3.57 8.07 6 12 1.98 2.43 4.27 3.69 5 7 5.49 2.29 9.81 10.13 14 14 4.46 3.52 9.34 6.79 13.75 10.25 4.42 3.46 11 5.21 14.25 9.75 2.55 3.57 1.55 6.37 2 11 1.85 19.14 1.85 41.93 0 61 .44 4.91 0 10.07 0 15 0 5.76-.32 11.97-1 17v35c0 2.81.54 5.91-1 8v35c0 5.72-.52 12.03-1 17 .27 2.94 0 6.04 0 9 0 7.36-.36 15.4-1 22v24c0 3.42-.74 7.32-1 10v27c0 3.75-.71 7.99-1 11v36c0 8.02-.3 16.74-1 24 .33 3.6 0 7.38 0 11v9c0 6.39.24 13.36-1 19v81c0 1.94-.25 4.08 0 6 .16 1.2.97 3.17 1 5 .02 1.28-.2 2.74 0 4 .61 3.75 3.46 10.42 7 13 13.79 6.9 25.74 15.38 42 16 3.32.13 6.68 0 10 0h17c14.14 0 27.51-5.74 39-13 2.84-2.11 6.59-6.41 9-9 .41-.67.65-1.32 1-2 4.13-8.07 4-15.74 4-25v-15c-.3-3.08-1-7.25-1-11 0-3.59.41-7.44 0-11-.17-1.47-.95-3.89-1-6-.06-2.33 0-4.67 0-7 0-1.97.19-4.04 0-6-.27-2.75-1-6.58-1-10v-7c0-2.29.25-4.73 0-7-.16-1.46-.95-3.89-1-6-.04-2 0-4 0-6v-10c-.32-3.4-1-7.92-1-12v-6c0-1.96.21-4.05 0-6-.16-1.45-.94-3.91-1-6-.09-3.33 0-6.67 0-10-.17-1.75-.95-4.6-1-7-.07-3.33 0-6.67 0-10v-3c-.58-2.66-1-5.73-1-9v-15c-.2-1.52-.95-3.86-1-6-.06-2.33 0-4.67 0-7v-5c0-3.18-.73-6.15-1-9-.25-2.61 0-5.37 0-8v-4c-.39-2.84-1-6.51-1-10v-16c-1.52-2.05-1-5.27-1-8 0-1.63.17-3.38 0-5-.4-3.75-1-8.57-1-13v-16c-.33-3.4-1-7.92-1-12v-8c-1.76-2.38-1-6.85-1-10v-7c-.36-3.73-1-8.59-1-13v-6c-.3-3.08-1-7.25-1-11v-13c-.3-2.2-1-5.16-1-8v-18c-.2-2.1-1-5.23-1-8v-9c-.2-2.1-1-5.23-1-8v-25c-.2-2.1-1-5.23-1-8 0-3.66.07-7.34 0-11-.05-2.52-1.59-2.66 1-5 2.43-3.45 11.42-3.97 14.92-7.08 3.49-3.11 9.01-5.1 13.08-7.92 2.81-1.95 5.81-5.44 9-7 0 0 .56.16 1 0 1.93-2.76 4.53-4.89 7-7 1.59-1.36 3.33-2.84 5-4 0 0-.2-.6 0-1 1.11-2.26 3.45-3.34 5-5 .38-.62.57-1.37 1-2 1.49-2.18 3.64-4.05 5-6 .99-1.77 1.24-3.31 2-5 1.12-2.5 2.94-4.82 4-7 1.46-4.45 2.36-7.65 3-12 .5-3.42 1.59-6.53 2-10 .21-1.76.79-3.8 1-5v-3c0-2-.07-4.01 0-6 .06-1.86.83-3.81 1-5V58c-.33-3.4-1-7.92-1-12v-6s.08-.51 0-1c-.43-2.61-.38-6.8-2-9-.73-.72-2.16-1.3-3-2-1.5 8.93-9.29 21.16-8.93 31.93.36 10.76.95 23.48-.05 35.05-.99 11.56 1.14 23.58.05 34.94-1.1 11.35 1.68 21.33 1.86 33 .18 11.67-1.34 20.84-.93 33.08.41 12.24-.25 23.83 0 35 .25 11.17-1.02 25.24-1.33 36.33-.31 11.09-.1 25.68 2 37s-2.43 22.02-8.42 30.92c-5.99 8.91-12.9 14.12-22.58 18.42-9.67 4.3-17.75 7.43-27.99 11.01-10.24 3.58-18.22 3.97-27.46 7.54-9.24 3.57-20.48-2.19-29.22 2.78-4.4-2.76-10.12-3.09-16.78-5.22-6.66-2.13-13.15-6.04-19.55-8.45-6.4-2.41-12.65-3.57-18.42-7.14-5.77-3.56-11.92-4.11-17.55-8.89-5.63-4.78-9.92-6.98-14.95-13.05-5.02-6.07-7.64-11.47-7.82-20.17-.18-8.71 9.65-1.29 9.07 5.92 15.47-.29 22.28 6.93 39 9 16.72 2.07 8.79-24.46 19-30 .74-5.18-1.25-10.44 0-15 5.15 4.99 4.4 15.55 7.68 23.32 3.27 7.77 3.22 17.78 6.32 25.68 12.43-1.38 26.06-.04 38-2-8.14-2.59-22.07 3.9-29-1-4.13-.24-1.47-13.92-2-19s.25-15.81 0-22c-.25-6.19.11-14.25 0-21s.05-15.02 0-22 .02-13.9 0-21 .01-14.85 0-22 0-13.81 0-21v-22c-1.31-13.54-1-28.73-1-43V92c0-3.98-.2-8.02 0-12 .51-10.21 0-19.68 0-31-.23-2.4-.94-5.94-1-9-.06-2.87-.69-5.43-1-8-1.51-3.23-5.78-5.85-9-7-1.74 3.36 3.16 11.4.22 17.22-2.93 5.83-2.16 12.09-4.22 18.78-2.05 6.69 3.93 13.63 1 22s-.39 9.94-1 21 .47 26.87-1.11 36.89 1.25 9.63 2.03 19.19c.78 9.57-.04 9.46-1.7 20.14s-.33 24.55-1.29 32.86c-.96 8.3-1.7 6.98.07 13.92-7.78-7.28-1.92-14.11-4.2-23.25-2.27-9.14 1.36-12.41.13-20.83-1.22-8.42-2.13-16.75-2-26 .14-9.25-1.51-19.12-.01-29 1.49-9.88.86-23.71.08-33.92s.75-23.97-1-34c-1.75-10.03-1.37-24.21-8-30 0 0 .01.5 0 1-.07 3.14-.82 5.78-1 9-.27 4.97 0 10.03 0 15 0 3.75-.71 7.99-1 11v49c0 22.9 2 48.02-1 70-.17 1.28 0 2.71 0 4v47c0 1.65.13 3.36 0 5-.5 6.27-.75 11.75 0 18 .15 1.29 0 2.7 0 4v61c-10.98-1.42-21.03-6.36-32-8v-9c2.57-75.95 0-145.71 0-224-.49-5.04-1-11.27-1-17V43c0-1.66.06-3.34 0-5-.42-3.23-2.56-8.24-5-11-.32-.19-.74-.89-1-1-2.44-1.02-5.37-1.73-8-2 .06 1.44-1.92.74-2 2 14.13 5.32 1 24.21-4 31-1.2-5.41-3.46-10.72-5.07-15.93-1.61-5.2-1.84-11.6-1.93-15.07Z"/><path fill="none" fill-opacity="0" stroke="#484848" stroke-width=".3" d="M440 25c-1.51.62-3.08 2.67-5 3 5.68 6.41 6.35 16.49 10 24 6.39-6.5 11.95-20.85 3-28-.5-.01-1.5 0-2 0 2.83 6.32 8.55 14.87-1 21-1.45-1.77-.57-4.22-2-6-.14-.45 0-1 0-1-3.83-7.31-4.17-8.72 2-14-1.73.4-3.34.51-5 1Z"/><path fill="none" fill-opacity="0" stroke="#6B6B6B" stroke-width=".3" d="M443 38c-.81-4.95-.1-11.26 5.22-7.22 5.32 4.03-1.53 13.13-5.22 8.22 1.43 1.78.55 4.23 2 6 9.55-6.13 3.83-14.68 1-21 0 0-.71-.25-1 0-6.17 5.28-5.83 6.69-2 14Z"/><path fill="none" fill-opacity="0" stroke="#1D1D1D" stroke-width=".3" d="M440 25c-2.87.84-6.6 1.91-8 5 6.63 5.79 6.25 19.97 8 30 1.75 10.03.22 23.79 1 34s1.41 24.04-.08 33.92c-1.5 9.88.15 19.75.01 29-.13 9.25.78 17.58 2 26 1.23 8.42-2.4 11.69-.13 20.83 2.28 9.14-3.58 15.97 4.2 23.25-1.77-6.94-1.03-5.62-.07-13.92.96-8.31-.37-22.18 1.29-32.86 1.66-10.68 2.48-10.57 1.7-20.14-.78-9.56-3.61-9.17-2.03-19.19 1.58-10.02.5-25.83 1.11-36.89.61-11.06-1.93-12.63 1-21 2.93-8.37-3.05-15.31-1-22 2.06-6.69 1.29-12.95 4.22-18.78 2.94-5.82-1.96-13.86-.22-17.22 0 0 .23-.66 0-1-.41.19-1.5-.03-2 0-.98.06-2.01.02-3 0 8.95 7.15 3.39 21.5-3 28-3.65-7.51-4.32-17.59-10-24 1.92-.33 3.49-2.38 5-3Z"/><path fill="none" fill-opacity="0" stroke="#000" stroke-width=".3" d="M531 325c.4.2 1 0 1 0 2.67-.13 2.06-2.83 2-5-.03-1 0-2 0-3-1.12-5.09-1-11.24-1-17v-15c0-7.67-.01-15.33 0-23v-18c0-1.63.17-3.38 0-5-5.14-48.29-1-100.75-1-150V63c-.17-1.21-.94-3.18-1-5-.07-1.99 0-4 0-6 0-6.19.01-12.09-1-18-.31-1.79-.47-3.33-1-5-1.32-2.4-5.64-4.26-8-5-2.57.5 5.73 12.77.3 17.3-5.43 4.54-.26 16.33-2.32 22.68-2.06 6.34-2.11 11.41-1.38 18.28.72 6.87-1 11.5-.6 18.74.4 7.24.64 13.55.2 20.75-.45 7.21-1.13 13.15-.2 21.25.93 8.1-1.57 12.85-.78 21.78.79 8.93.33 11.43.71 23.15.37 11.71.5 27.19-.26 38.4-.76 11.21 2.39 11.13.33 20.67-2.06 9.54-.64 12.86 0 22s-2.47 12.06 1.94 20.92c4.4 8.86.55 29.45 12.06 35.08ZM503 28c-2.23 3.56-2.52 8.94-3 13-.19 1.65-.85 3.93-1 5-.45 11.29 0 22.7 0 34v74c0 24.55.27 50.25-1 74 .18 3.84.18 6.11 0 10 .11 2.12.3 4.83 0 7v4c.56 4.12.21 9.05 0 13 1.04 21.56-.53 43.12 0 66 13.53-4.6 6.35-24.78 9.41-36.25 3.05-11.48 1.59-25.82 1.59-38.75 0-12.92-.38-26.62.01-38.99.38-12.37.42-19.72-1-33-1.43-13.29 3.63-28.55 1.77-40.79-1.86-12.23-.25-23.13-.58-35.97-.33-12.85-1.28-22.09-.87-34.58.41-12.49-3.96-30.03-1.33-42.67-1.37-1.18-2.93-.19-4 1Z"/><path fill="none" fill-opacity="0" stroke="#4E4E4E" stroke-width=".3" d="M508 28c-2.51 8.86 3.3 25.72 10.02 15.02 6.73-10.69.91-20.71-10.02-15.02m8 14c-7.1.1-4.53-9.31-5-14 9.35-2.25 7.68 8.91 5 14Z"/><path fill="none" fill-opacity="0" stroke="#4C4C4C" stroke-width=".3" d="M384 29c-14.76-10.71-15.72 15.85-4 17 2.16-5.53 5.47-10.39 4-17m-10-1c7.42-2.62 12.66 6.54 7.22 12.22-5.44 5.68-9.41-7.62-7.22-12.22Z"/><path fill="none" fill-opacity="0" stroke="#242424" stroke-opacity=".44" stroke-width=".3" d="M396 38c-.15-4.36-.98-8.6-5-11 2.44 2.76 4.58 7.77 5 11Z"/><path fill="none" fill-opacity="0" stroke="#696969" stroke-width=".3" d="M374 28c-2.19 4.6 1.78 17.9 7.22 12.22 5.44-5.68.2-14.84-7.22-12.22m5 1c3.92 1.24 2.79 13.62-1.68 11.66-4.47-1.96-2.94-13.12 1.68-11.66Z"/><path fill="none" fill-opacity="0" stroke="#838383" stroke-width=".3" d="M516 42c2.68-5.09 4.35-16.25-5-14 .47 4.69-2.1 14.1 5 14Z"/><path fill="none" fill-opacity="0" stroke="#4E4E4E" stroke-width=".3" d="M580 50c12.05 1.24 4.73-9.24 9.25-15.75 4.51-6.52-9.18-9.66-12.92-3.92S582.73 43.69 580 50m3-7c-.88-4.29-7.27-12.5.01-12.99 7.28-.49 4.74 12.34-.01 12.99Z"/><path fill="none" fill-opacity="0" stroke="#2E2E2E" stroke-opacity=".32" stroke-width=".3" d="M363 34c.34-.23 1 0 1 0 .27-1.58.21-3.64 1-5-2.2 2.05-2.86 1.9-2 5Z"/><path fill="none" fill-opacity="0" stroke="#878787" stroke-width=".3" d="M379 29c-4.62-1.46-6.15 9.7-1.68 11.66 4.47 1.96 5.6-10.42 1.68-11.66Z"/><path fill="none" fill-opacity="0" stroke="#8B8B8B" stroke-width=".3" d="M443 38s-.14.55 0 1c3.69 4.91 10.54-4.19 5.22-8.22-5.32-4.04-6.03 2.27-5.22 7.22Z"/><path fill="none" fill-opacity="0" stroke="#000" stroke-width=".3" d="M570 31c-.3 3.94-.83 7.82-1 12-.07 1.84-.83 3.82-1 5v30c0 3.75-.71 7.99-1 11v12c0 .5-.14 1.96 0 2 .11.03 0 2.77 0 3v14c0 1.31.13 2.7 0 4-.28 2.87-.15 4.21 0 7 .11 1.99 0 4.01 0 6v17c0 7.69-.33 16.07-1 23v129c0 4.33-.31 6.36-2 10 .22.04.65.91 1 1 .47.12 1.5 0 2 0h1c7.97-4.75 4.9-20.94 6-30 1.1-9.06 1.12-24.82 0-34s-.48-6.15 1.2-14.75c1.68-8.61-1.16-21.28-.2-30.25.96-8.97-1.83-8.75.01-17.99 1.83-9.24.4-22.21-.01-32.01-.41-9.8 2.66-8.7.99-16.99-1.66-8.29-.13-7.33-.2-15.78-.08-8.45-1.12-21.03.21-30.23s-1.73-10.22-1-17c.74-6.77 1.1-11.37 1-17-.1-5.63-.15-13.16-1-17s.35-14.92-3-15c-.67.6-1.33 1.36-2 2Z"/><path fill="none" fill-opacity="0" stroke="#858585" stroke-width=".3" d="M583 43c4.75-.65 7.29-13.48.01-12.99-7.28.49-.89 8.7-.01 12.99Z"/><path fill="none" fill-opacity="0" stroke="#212121" stroke-opacity=".46" stroke-width=".3" d="M600 39c1.73-2.37.03-6.99-2-9 1.62 2.2 1.57 6.39 2 9Z"/><path fill="none" fill-opacity="0" stroke="#282828" stroke-opacity=".45" stroke-width=".3" d="M430 35c-.06 1.66 0 3.34 0 5 .05.15 1 0 1 0 .18-3.22.93-5.86 1-9-.49.91-1.84 3.05-2 4Z"/><path fill="none" fill-opacity="0" stroke="#282828" stroke-opacity=".41" stroke-width=".3" d="M568 41c.03.5 0 1.5 0 2 .34.23 1 0 1 0 .17-4.18.7-8.06 1-12 0 0-.96-.13-1 0-.91 3.15-1.21 6.6-1 10Z"/><path fill="none" fill-opacity="0" stroke="#1F1F1F" stroke-opacity=".7" stroke-width=".3" d="M363 36c-1.19 5.14-1 10.52-1 16 .51-5.23 1.03-12.36 2-18 0 0-.66-.23-1 0 .13.46.11 1.53 0 2Z"/><path fill="none" fill-opacity="0" stroke="#232323" stroke-opacity=".3" stroke-width=".3" d="M531 52c.17.77.93 1.68 1 3 1.12-5.97-.26-14.86-2-21 1.01 5.91 1 11.81 1 18Z"/><path fill="none" fill-opacity="0" stroke="#292929" stroke-opacity=".08" stroke-width=".3" d="M361 123v-12c0-9.32-.26-18.68 0-28 .07-2.34-.44-4.31 1-6v-1c-1.84-2.09-.15-3.24 0-5V52c0-5.48-.19-10.86 1-16-5.83 4.67-1.59 18.78-3 27-1.41 8.22.73 23.06 0 32-.73 8.94-.06 20.47 1 28Z"/><path fill="none" fill-opacity="0" stroke="#222" stroke-opacity=".64" stroke-width=".3" d="M430 55c.02-.1 1 0 1 0 0-4.97-.27-10.03 0-15 0 0-.95.15-1 0v15Z"/><path fill="none" fill-opacity="0" stroke="#212121" stroke-opacity=".53" stroke-width=".3" d="M464 49c0-3.14-.7-6.52-1-9 .06 3.06.77 6.6 1 9Z"/><path fill="none" fill-opacity="0" stroke="#212121" stroke-opacity=".42" stroke-width=".3" d="M600 46c.02.1 1 0 1 0-.06-2.25.38-4.38-1-6v6Z"/><path fill="none" fill-opacity="0" stroke="#282828" stroke-opacity=".41" stroke-width=".3" d="M499 46c.15-1.07.81-3.35 1-5-.33 1.43-.92 2.96-1 5Z"/><path fill="none" fill-opacity="0" stroke="#272727" stroke-opacity=".05" stroke-width=".3" d="M567 101V67c0-3.1.77-6.64 1-9V43c0-.5.03-1.5 0-2-1.29 8.86-3.51 21.94-2 32 1.51 10.06-4.36 20.51 1 28Z"/><path fill="none" fill-opacity="0" stroke="#252525" stroke-opacity=".28" stroke-width=".3" d="M396 49c.02-.1 1 0 1 0-.05-2.11-.83-4.53-1-6v6Z"/><path fill="none" fill-opacity="0" stroke="#212121" stroke-opacity=".68" stroke-width=".3" d="M568 48c.17-1.18.93-3.16 1-5 0 0-.66.23-1 0v5Z"/><path fill="none" fill-opacity="0" stroke="#1A1A1A" stroke-opacity=".73" stroke-width=".3" d="M601 58c0-3.99.11-8.01 0-12 0 0-.98.1-1 0 0 4.08.67 8.6 1 12Z"/><path fill="none" fill-opacity="0" stroke="#202020" stroke-opacity=".47" stroke-width=".3" d="M396 55c.02.1 1 0 1 0 0-2 .04-4 0-6 0 0-.98-.1-1 0v6Z"/><path fill="none" fill-opacity="0" stroke="#1F1F1F" stroke-opacity=".6" stroke-width=".3" d="M531 58c.02.1 1 0 1 0-.2-.91.05-2.06 0-3-.07-1.32-.83-2.23-1-3 0 2-.07 4.01 0 6Z"/><path fill="none" fill-opacity="0" stroke="#1D1D1D" stroke-opacity=".64" stroke-width=".3" d="M396 66c0-.04 1 0 1 0V55s-.98.1-1 0v11Z"/><path fill="none" fill-opacity="0" stroke="#1A1A1A" stroke-opacity=".84" stroke-width=".3" d="M430 61v5c.29-3.01 1-7.25 1-11 0 0-.98-.1-1 0v6Z"/><path fill="none" fill-opacity="0" stroke="#181818" stroke-opacity=".81" stroke-width=".3" d="M532 63c0-1.39.45-3.69 0-5 0 0-.98.1-1 0 .06 1.82.83 3.79 1 5Z"/><path fill="none" fill-opacity="0" stroke="#232323" stroke-opacity=".33" stroke-width=".3" d="M532 63v8c0-.04 1 0 1 0 0-4.52-.15-9.12-1-13 .45 1.31 0 3.61 0 5Z"/><path fill="none" fill-opacity="0" stroke="#292929" stroke-opacity=".29" stroke-width=".3" d="M567 67c0-.04 1 0 1 0v-9c-.23 2.36-1 5.9-1 9Z"/><path fill="none" fill-opacity="0" stroke="#272727" stroke-opacity=".36" stroke-width=".3" d="M429 83c.14-1.13.83-1.36 1-2V61c-.62 6.43-1.11 15.9-1 22Z"/><path fill="none" fill-opacity="0" stroke="#171717" stroke-opacity=".81" stroke-width=".3" d="M397 83V66s-1-.04-1 0c0 5.73.51 11.96 1 17Z"/><path fill="none" fill-opacity="0" stroke="#222" stroke-opacity=".58" stroke-width=".3" d="M567 78c0-.04 1 0 1 0V67s-1-.04-1 0v11Z"/><path fill="none" fill-opacity="0" stroke="#242424" stroke-opacity=".39" stroke-width=".3" d="M362 76v-5c-.15 1.76-1.84 2.91 0 5Z"/><path fill="none" fill-opacity="0" stroke="#212121" stroke-opacity=".49" stroke-width=".3" d="M532 89c0-.04 1 0 1 0V71s-1-.04-1 0v18Z"/><path fill="none" fill-opacity="0" stroke="#252525" stroke-opacity=".07" stroke-width=".3" d="M601 72v6c.23 2.42 1 5.91 1 9v43c.57-5.89 1-13.38 1-20 0-6.62-.85-14.55 0-21 .85-6.45-1.43-14.79-2-17Z"/><path fill="none" fill-opacity="0" stroke="#242424" stroke-opacity=".44" stroke-width=".3" d="M361 83c0-.04 1 0 1 0v-6c-1.44 1.69-.93 3.66-1 6Z"/><path fill="none" fill-opacity="0" stroke="#1D1D1D" stroke-opacity=".76" stroke-width=".3" d="M567 89c.29-3.01 1-7.25 1-11 0 0-1-.04-1 0v11Z"/><path fill="none" fill-opacity="0" stroke="#232323" stroke-opacity=".31" stroke-width=".3" d="M601 87c0-.04 1 0 1 0 0-3.09-.77-6.58-1-9v9Z"/><path fill="none" fill-opacity="0" stroke="#282828" stroke-opacity=".16" stroke-width=".3" d="M464 92c.17 1.47.94 3.9 1 6 .16 5.66 0 11.34 0 17v8c0-.04 1 0 1 0 0-7.39-.68-15.7 0-23 .68-7.3-1.08-15.01-2-20-.2 3.98 0 8.02 0 12Z"/><path fill="none" fill-opacity="0" stroke="#292929" stroke-opacity=".31" stroke-width=".3" d="M498 103c0-.04 1 0 1 0V80c-.67 6.93-1 15.31-1 23Z"/><path fill="none" fill-opacity="0" stroke="#202020" stroke-opacity=".66" stroke-width=".3" d="M429 83c-1.27 10.31 0 21.6 0 32 0-.04 1 0 1 0V81c-.17.64-.86.87-1 2Z"/><path fill="none" fill-opacity="0" stroke="#1C1C1C" stroke-opacity=".73" stroke-width=".3" d="M361 111c.83-8.56 1-18.67 1-28 0 0-1-.04-1 0-.26 9.32 0 18.68 0 28Z"/><path fill="none" fill-opacity="0" stroke="#1F1F1F" stroke-opacity=".53" stroke-width=".3" d="M601 109c0-.04 1 0 1 0V87s-1-.04-1 0v22Z"/><path fill="none" fill-opacity="0" stroke="#1B1B1B" stroke-opacity=".68" stroke-width=".3" d="M533 239v-1c0-5.33-.01-10.67 0-16v-1c0-1.65-.13-3.36 0-5 .35-4.39.35-7.64 0-12-.13-1.64 0-3.35 0-5v-12c0-1.65-.13-3.36 0-5 2.28-28.36 0-61.07 0-93 0 0-1-.04-1 0 0 49.25-4.14 101.71 1 150Z"/><path fill="none" fill-opacity="0" stroke="#242424" stroke-opacity=".45" stroke-width=".3" d="M464 98c.02.1 1 0 1 0-.06-2.1-.83-4.53-1-6v6Z"/><path fill="none" fill-opacity="0" stroke="#1D1D1D" stroke-opacity=".64" stroke-width=".3" d="M464 115c0-.04 1 0 1 0 0-5.66.16-11.34 0-17 0 0-.98.1-1 0v17Z"/><path fill="none" fill-opacity="0" stroke="#222" stroke-opacity=".55" stroke-width=".3" d="M498 149v5c.05.15 1 0 1 0v-51s-1-.04-1 0v46Z"/><path fill="none" fill-opacity="0" stroke="#323232" stroke-opacity=".13" stroke-width=".3" d="M567 106c0-.23.11-2.97 0-3-2.8 2.59-1.08.67 0 3Z"/><path fill="none" fill-opacity="0" stroke="#313131" stroke-opacity=".15" stroke-width=".3" d="M567 112v-3c-1.1 2.39-2.78.43 0 3Z"/><path fill="none" fill-opacity="0" stroke="#1B1B1B" stroke-opacity=".71" stroke-width=".3" d="M601 126c0-.04 1 0 1 0v-17s-1-.04-1 0v17Z"/><path fill="none" fill-opacity="0" stroke="#2F2F2F" stroke-opacity=".2" stroke-width=".3" d="M567 118v-4c-2.06 2.15-2.1 1.8 0 4Z"/><path fill="none" fill-opacity="0" stroke="#181818" stroke-opacity=".84" stroke-width=".3" d="M429 140v4c0 .5-.24 1.83 0 2 .22.16 0 2.67 0 3v12c0 .5-.22 1.63 0 2 .3.52 0 2.39 0 3v8c0 1.29.18 2.73 0 4-.13.94-.87 1.51-1 2-.38 1.45.37 2.8 1 4 0 0 .18.92 0 1 3-21.98 1-47.1 1-70 0 0-1-.04-1 0v25Z"/><path fill="none" fill-opacity="0" stroke="#151515" stroke-opacity=".87" stroke-width=".3" d="M465 158v-43s-1-.04-1 0c0 14.27-.31 29.46 1 43Z"/><path fill="none" fill-opacity="0" stroke="#2E2E2E" stroke-opacity=".22" stroke-width=".3" d="M567 124c.13-1.3 0-2.69 0-4-3.07 2.5-.28.92 0 4Z"/><path fill="none" fill-opacity="0" stroke="#252525" stroke-opacity=".28" stroke-width=".3" d="M465 158v22c0 7.19-.01 13.85 0 21s-.02 14.9 0 22-.05 14.02 0 21-.11 15.25 0 22-.25 14.81 0 21c.25 6.19-.53 16.92 0 22 .53 5.08-2.13 18.76 2 19-.04 0 0-1 0-1-4.91-6.64.61-20.37-1-29-1.61-8.63.72-19.76 0-29-.72-9.24.32-19.44 0-29-.32-9.56.15-20.33 0-30-.15-9.67.06-19.33 0-29-.06-9.67.02-19.33 0-29-.02-9.67 0-19.33 0-29 0 0-1-.04-1 0v35Z"/><path fill="none" fill-opacity="0" stroke="#131313" stroke-opacity=".89" stroke-width=".3" d="M601 260c0-.04 1 0 1 0V126s-1-.04-1 0v134Z"/><path fill="none" fill-opacity="0" stroke="#2C2C2C" stroke-opacity=".19" stroke-width=".3" d="M566 138c.09-.35.91-.75 1-1 0-1.99.11-4.01 0-6-.48 2.94-2.73 3.41-1 7Z"/><path fill="none" fill-opacity="0" stroke="#232323" stroke-opacity=".49" stroke-width=".3" d="M566 138c-.12.47 0 1.5 0 2v14c0-.04 1 0 1 0v-17c-.09.25-.91.65-1 1Z"/><path fill="none" fill-opacity="0" stroke="#333" stroke-opacity=".09" stroke-width=".3" d="M429 144v-4c-.34 2.21-3.36 1.17 0 4Z"/><path fill="none" fill-opacity="0" stroke="#292929" stroke-opacity=".09" stroke-width=".3" d="M534 282v35c0 1-.03 2 0 3 .09.5 1.83 1.86 1 3 11.28-.04 18.53-4.78 29-7 1.69-3.64 2-5.67 2-10-1.15-11.91-1-25.38-1-38 0-9.66.14-20.11 1-29v-99c-2.25 12.89-.45 30.55-1 44s-.45 19.07-1 33 .12 30.69 0 45c-.12 14.31-.26 29.65 0 44 .26 14.34-18.41 10.93-28 16 .48-13.91-.76-27.17-2-40Z"/><path fill="none" fill-opacity="0" stroke="#393939" stroke-opacity=".04" stroke-width=".3" d="M361 152v-9c-.49 3.07-3.51 6.53 0 9Z"/><path fill="none" fill-opacity="0" stroke="#323232" stroke-opacity=".09" stroke-width=".3" d="M429 149c0-.33.22-2.84 0-3-3.26.4-1.79 1.14 0 3Z"/><path fill="none" fill-opacity="0" stroke="#2A2A2A" stroke-opacity=".2" stroke-width=".3" d="M493 327c.35.09.73.87 1 1 1.33 0 2.67.05 4 0-.53-22.88 1.04-44.44 0-66-.21-4.31 0-8.68 0-13v-4c0-2.32-.11-4.68 0-7 .18-3.89.18-6.16 0-10-1.18-24.54 0-49.43 0-74v-5s-1-.04-1 0v177c-1.4-.91-3.27.9-4 1Z"/><path fill="none" fill-opacity="0" stroke="#323232" stroke-opacity=".1" stroke-width=".3" d="M429 155v-4c-2.46 2.07-2.39 1.99 0 4Z"/><path fill="none" fill-opacity="0" stroke="#2D2D2D" stroke-opacity=".05" stroke-width=".3" d="M361 221v-68c-5.09 1.36-.92 18.19-2 24-1.08 5.81.59 18.44 0 25-.59 6.56.32 15.01 2 19Z"/><path fill="none" fill-opacity="0" stroke="#1E1E1E" stroke-opacity=".72" stroke-width=".3" d="M498 228c1.27-23.75 1-49.45 1-74 0 0-.95.15-1 0 0 24.57-1.18 49.46 0 74Z"/><path fill="none" fill-opacity="0" stroke="#1D1D1D" stroke-opacity=".75" stroke-width=".3" d="M566 177c.67-6.93 1-15.31 1-23 0 0-1-.04-1 0v23Z"/><path fill="none" fill-opacity="0" stroke="#313131" stroke-opacity=".11" stroke-width=".3" d="M429 161v-4c-2.46 2.07-2.39 1.99 0 4Z"/><path fill="none" fill-opacity="0" stroke="#1F1F1F" stroke-opacity=".06" stroke-width=".3" d="M602 235c1.19-6.82 2.4-17.2 1.93-25.92-.47-8.73-.36-17.37.06-26.07.42-8.71-.73-18.45-1.99-26.01v78Z"/><path fill="none" fill-opacity="0" stroke="#313131" stroke-opacity=".13" stroke-width=".3" d="M429 166c0-.61.3-2.48 0-3-2.25 2.08-2.2.97 0 3Z"/><path fill="none" fill-opacity="0" stroke="#303030" stroke-opacity=".12" stroke-width=".3" d="M429 172v-4c-2.46 2.07-2.39 1.99 0 4ZM429 178c.18-1.27 0-2.71 0-4-3.13 2.64-1.1 1.65 0 4Z"/><path fill="none" fill-opacity="0" stroke="#383838" stroke-opacity=".05" stroke-width=".3" d="M429 184c-.63-1.2-1.38-2.55-1-4-1.27 1.96-1.54 3.24 1 4Z"/><path fill="none" fill-opacity="0" stroke="#262626" stroke-opacity=".21" stroke-width=".3" d="M533 187c1.87-2.13.06-3.17 0-5-.13 1.64 0 3.35 0 5Z"/><path fill="none" fill-opacity="0" stroke="#303030" stroke-opacity=".13" stroke-width=".3" d="M429 189c0-1.29-.17-2.72 0-4-3.33 1.43-1.78 2.5 0 4Z"/><path fill="none" fill-opacity="0" stroke="#292929" stroke-opacity=".21" stroke-width=".3" d="M533 198c1.62-2.19 1.66-7.76 0-10v10Z"/><path fill="none" fill-opacity="0" stroke="#303030" stroke-opacity=".14" stroke-width=".3" d="M429 195v-4c-2.46 2.07-2.39 1.99 0 4ZM429 201v-4c-1.87 1.57-3.24 2.61 0 4Z"/><path fill="none" fill-opacity="0" stroke="#242424" stroke-opacity=".22" stroke-width=".3" d="M533 204c.06-1.71 1.85-2.89 0-5 0 1.65-.13 3.36 0 5Z"/><path fill="none" fill-opacity="0" stroke="#303030" stroke-opacity=".15" stroke-width=".3" d="M429 206v-4c-3.33 1.43-1.78 2.5 0 4ZM429 212v-4c-2.46 2.07-2.39 1.99 0 4ZM429 218v-4c-1.87 1.57-3.23 2.61 0 4Z"/><path fill="none" fill-opacity="0" stroke="#242424" stroke-opacity=".26" stroke-width=".3" d="M533 221c1.87-2.13.06-3.17 0-5-.13 1.64 0 3.35 0 5Z"/><path fill="none" fill-opacity="0" stroke="#2F2F2F" stroke-opacity=".16" stroke-width=".3" d="M429 224v-5c-2.65.97-2.75 3.55 0 5Z"/><path fill="none" fill-opacity="0" stroke="#232323" stroke-opacity=".28" stroke-width=".3" d="M533 238c1.94-2.63 1.99-13.31 0-16-.01 5.33 0 10.67 0 16Z"/><path fill="none" fill-opacity="0" stroke="#262626" stroke-opacity=".06" stroke-width=".3" d="M361 283v-59c-2.96 8.56-2.23 19.54-1 29s-2.59 21.56 1 30Z"/><path fill="none" fill-opacity="0" stroke="#313131" stroke-opacity=".16" stroke-width=".3" d="M429 229v-4c-3.33 1.43-1.78 2.5 0 4Z"/><path fill="none" fill-opacity="0" stroke="#2D2D2D" stroke-opacity=".21" stroke-width=".3" d="M429 235v-4c-1.69 1.37-2.52 1.9 0 4Z"/><path fill="none" fill-opacity="0" stroke="#2B2B2B" stroke-opacity=".2" stroke-width=".3" d="M429 241c.13-1.64 0-3.35 0-5-3.25 2.62-.21 2.98 0 5Z"/><path fill="none" fill-opacity="0" stroke="#1C1C1C" stroke-opacity=".78" stroke-width=".3" d="M498 245c.3-2.17.11-4.88 0-7-.11 2.32 0 4.68 0 7Z"/><path fill="none" fill-opacity="0" stroke="#232323" stroke-opacity=".32" stroke-width=".3" d="M533 244c1.36-1.54 1.38-3.43 0-5 .17 1.62 0 3.37 0 5Z"/><path fill="none" fill-opacity="0" stroke="#272727" stroke-opacity=".29" stroke-width=".3" d="M565 268c0-.04 1 0 1 0v-29c-.86 8.89-1 19.34-1 29Z"/><path fill="none" fill-opacity="0" stroke="#242424" stroke-opacity=".34" stroke-width=".3" d="M533 255c1.62-2.19 1.66-7.76 0-10v10Z"/><path fill="none" fill-opacity="0" stroke="#191919" stroke-opacity=".82" stroke-width=".3" d="M498 262c.21-3.95.56-8.88 0-13 0 4.32-.21 8.69 0 13Z"/><path fill="none" fill-opacity="0" stroke="#262626" stroke-opacity=".05" stroke-width=".3" d="M602 260v28c1.04-10.73 1.46-25.32 0-35v7Z"/><path fill="none" fill-opacity="0" stroke="#232323" stroke-opacity=".38" stroke-width=".3" d="M533 261c1.36-1.54 1.38-3.43 0-5v5Z"/><path fill="none" fill-opacity="0" stroke="#2D2D2D" stroke-opacity=".23" stroke-width=".3" d="M429 263c0-1.3.15-2.71 0-4-.11 1.61-2.41.75 0 4Z"/><path fill="none" fill-opacity="0" stroke="#1A1A1A" stroke-opacity=".75" stroke-width=".3" d="M601 283c0-.04 1 0 1 0v-23s-1-.04-1 0v23Z"/><path fill="none" fill-opacity="0" stroke="#222" stroke-opacity=".49" stroke-width=".3" d="M533 285c0-.04 1 0 1 0v-3c0-5.13 1.9-16.08-1-20-.01 7.67 0 15.33 0 23Z"/><path fill="none" fill-opacity="0" stroke="#1A1A1A" stroke-opacity=".75" stroke-width=".3" d="M361 280c.27-.25 1 0 1 0 0-5.73-.51-11.96-1-17v17Z"/><path fill="none" fill-opacity="0" stroke="#2C2C2C" stroke-opacity=".24" stroke-width=".3" d="M429 269v-4c-2.06 2.15-2.1 1.8 0 4Z"/><path fill="none" fill-opacity="0" stroke="#242424" stroke-opacity=".53" stroke-width=".3" d="M566 306v-38s-1-.04-1 0c0 12.62-.15 26.09 1 38Z"/><path fill="none" fill-opacity="0" stroke="#2F2F2F" stroke-opacity=".21" stroke-width=".3" d="M429 275v-4c-1.8 1.88-3 2.8 0 4Z"/><path fill="none" fill-opacity="0" stroke="#2D2D2D" stroke-opacity=".17" stroke-width=".3" d="M429 286v-10c-3.75 1-1.97 8.99 0 10Z"/><path fill="none" fill-opacity="0" stroke="#1F1F1F" stroke-opacity=".53" stroke-width=".3" d="M361 283c0 .5-.12 1.53 0 2 .09.35.91.75 1 1v-6s-.73-.25-1 0v3Z"/><path fill="none" fill-opacity="0" stroke="#1F1F1F" stroke-opacity=".54" stroke-width=".3" d="M601 296c0-.04 1 0 1 0v-13s-1-.04-1 0v13Z"/><path fill="none" fill-opacity="0" stroke="#2D2D2D" stroke-opacity=".2" stroke-width=".3" d="M362 292v-6c-.09-.25-.91-.65-1-1-.68 2.02-2.24 8.18 1 7Z"/><path fill="none" fill-opacity="0" stroke="#1E1E1E" stroke-opacity=".69" stroke-width=".3" d="M533 300c0-.04 1 0 1 0v-15s-1-.04-1 0v15Z"/><path fill="none" fill-opacity="0" stroke="#313131" stroke-opacity=".17" stroke-width=".3" d="M397 307v9c10.97 1.64 21.02 6.58 32 8v-9c-.13-1.5-.13-3.56 0-5v-23c-4.6 8.59-.32 24.16-2 35-9.84-2.15-19.26-5.48-29-8 .97-2.3-.88-5.41-1-7Z"/><path fill="none" fill-opacity="0" stroke="#222" stroke-opacity=".38" stroke-width=".3" d="M362 298c.13-1.64 0-3.35 0-5-1.87 2.13-.06 3.17 0 5Z"/><path fill="none" fill-opacity="0" stroke="#414141" stroke-width=".3" d="M442 309c1.42-2.22 5.48-6.39 6-1 .05.5 0 1 0 1 3.37 4.55-.93 9.57-1.26 13.74-.33 4.18.99 7.58-3.74 10.26 10.69-1.38 16.26 9.46 27.07 7.07 10.81-2.38 21.18-1.78 31.6-7.4 10.42-5.62 6.9-22.9 10.33-32.67 10.46 5.03 5.76 23.55 18 29 12.92-1.78 25.9-5.46 37-12-.5 0-1.53.12-2 0-4.01 2.05-11.68 5.33-16.02 5.98-4.35.64-14.49 7.51-16.98 2.02 0 0-.6.2-1 0-14.01-.56-6.69-23.98-19-30-7.62 9.24 1.88 32.45-12 37-13.87 4.56-21.4 1.75-35.98 1.98-14.57.23-13.26-20.95-17.02-30.98-2.77.09-4.49 3.67-5 6Z"/><path fill="none" fill-opacity="0" stroke="#242424" stroke-opacity=".29" stroke-width=".3" d="M601 305c.23-2.36 1-5.9 1-9 0 0-1-.04-1 0v9Z"/><path fill="none" fill-opacity="0" stroke="#595959" stroke-width=".3" d="M448 309c0 3.81 1.39 10.6-4 11-1.7-3.73-1.84-17.27 4-12-.52-5.39-4.58-1.22-6 1v1c0 5.29-1.12 10.46-1 15-4.41.49-9.6 8.31-2 6 1.74 3.6-4.31 2.09-2 5-4.52-.26-11.62-.44-15.68 1.32-4.06 1.76-14.86.17-7.32-2.32-7.35-.16-9.62-2.57-17-1 4.67 7.2 11.59 12.51 20 14-2.45-.97-5.48-3.62-7-6 16.88-1 30.8-2.8 46.02 2.98 15.23 5.77 31.88-.52 45.98-2.98-2.49-4.77 7.76-8.5 8.77-15.23 1.01-6.73-.43-16.3 4.23-22.77 5.21 7.88 3.47 18.11 5 27 4.6-1.08 5.78 5.68 11 4 1.67-5.44 14.03-1.79 20.02-4.98 6-3.18 9.02-9.86 16.06-10.94 7.03-1.09 9.81-8.33 15.92-11.08 1.08 21.86-21.48 28.52-38 33s-31.48 16.55-51.67 18.33c-20.19 1.78-43.13 1.2-62.33-6.33 16.72 6.8 38.58 11.67 57 9 18.43-2.66 37.97-8.99 54.02-14.98 16.06-5.98 32.16-9.33 40.98-26.02 1.5-4.16 4.33-20.28-3.75-18.75-8.08 1.53-1.48 15.08-11.25 14.75h-1c-11.1 6.54-24.08 10.22-37 12-12.24-5.45-7.54-23.97-18-29-3.43 9.77.09 27.05-10.33 32.67-10.42 5.62-20.79 5.02-31.6 7.4-10.81 2.39-16.38-8.45-27.07-7.07 4.73-2.68 3.41-6.08 3.74-10.26.33-4.17 4.63-9.19 1.26-13.74Z"/><path fill="none" fill-opacity="0" stroke="#181818" stroke-opacity=".85" stroke-width=".3" d="M534 317v-17s-1-.04-1 0c0 5.76-.12 11.91 1 17Z"/><path fill="none" fill-opacity="0" stroke="gray" stroke-width=".3" d="M417 348c4.98 1.27 9.09 3.69 14 5 19.2 7.53 42.14 8.11 62.33 6.33 20.19-1.78 35.15-13.85 51.67-18.33 16.52-4.48 39.08-11.14 38-33-6.11 2.75-8.89 9.99-15.92 11.08-7.04 1.08-10.06 7.76-16.06 10.94-5.99 3.19-18.35-.46-20.02 4.98-5.22 1.68-6.4-5.08-11-4-1.53-8.89.21-19.12-5-27-4.66 6.47-3.22 16.04-4.23 22.77-1.01 6.73-11.26 10.46-8.77 15.23-14.1 2.46-30.75 8.75-45.98 2.98C440.8 339.2 426.88 341 410 342c1.52 2.38 4.55 5.03 7 6ZM448 309s.05-.5 0-1c-5.84-5.27-5.7 8.27-4 12 5.39-.4 4-7.19 4-11Z"/><path fill="none" fill-opacity="0" stroke="#282828" stroke-opacity=".36" stroke-width=".3" d="M429 315v-5c-.13 1.44-.13 3.5 0 5Z"/><path fill="none" fill-opacity="0" stroke="#414141" stroke-width=".3" d="M384 317c.75 2.12.82 4.68 1 7-1.88-.68-3.32-2.02-5-3 3.91 10.72 17.62 15.51 25.92 24.08 8.31 8.56 25.25 7.44 36 13 10.76 5.55 27.97 8.49 40.05 5.9 12.08-2.59 28.12-2.51 39.8-7.21 11.68-4.7 24.8-7.82 36.15-11.85 11.34-4.03 21.15-13.02 25.08-23.92-8.82 16.69-24.92 20.04-40.98 26.02-16.05 5.99-35.59 12.32-54.02 14.98-18.42 2.67-40.28-2.2-57-9-4.91-1.31-9.02-3.73-14-5-8.41-1.49-15.33-6.8-20-14 7.38-1.57 9.65.84 17 1-7.54 2.49 3.26 4.08 7.32 2.32 4.06-1.76 11.16-1.58 15.68-1.32-2.31-2.91 3.74-1.4 2-5-7.6 2.31-2.41-5.51 2-6-.12-4.54 1-9.71 1-15-.67 6.66-6.23 22.88-15.78 21.78-9.54-1.1-19.51-4.56-26.22-7.78-3.79 5.52-8.32-6.03-14-3-.6-1.45-1.26-2.87-2-4Z"/><path fill="none" fill-opacity="0" stroke="#777" stroke-width=".3" d="M380 321c1.68.98 3.12 2.32 5 3-.18-2.32-.25-4.88-1-7-.98-2.06-2.2-5.11-5-5-.17 3.11-.02 6.21 1 9Z"/><path fill="none" fill-opacity="0" stroke="#272727" stroke-opacity=".97" stroke-width=".3" d="M534 320c.06 2.17.67 4.87-2 5 2.49 5.49 12.63-1.38 16.98-2.02 4.34-.65 12.01-3.93 16.02-5.98-.35-.09-.78-.96-1-1-10.47 2.22-17.72 6.96-29 7 .83-1.14-.91-2.5-1-3Z"/><path fill="none" fill-opacity="0" stroke="#1B1B1B" stroke-opacity=".68" stroke-width=".3" d="M363 331c0-4.74-.61-9.94-1-14 0 4.75.57 9.92 1 14Z"/><path fill="none" fill-opacity="0" stroke="#1D1D1D" stroke-opacity=".64" stroke-width=".3" d="M600 322c.02-.1 1 0 1 0 .03-1.67 0-3.33 0-5-.17 1.19-.94 3.14-1 5Z"/><path fill="none" fill-opacity="0" stroke="#232323" stroke-opacity=".32" stroke-width=".3" d="M600 328c.33-1.66.96-3.68 1-6 0 0-.98-.1-1 0-.07 1.99 0 4 0 6Z"/><path fill="none" fill-opacity="0" stroke="#333" stroke-opacity=".16" stroke-width=".3" d="M467 327s-.04 1 0 1c5.56.5 11.41 0 17 0 1.82-.18 4.47-1.16 7-1-5.71-2.43-17.77-1.8-24 0Z"/><path fill="none" fill-opacity="0" stroke="#2D2D2D" stroke-opacity=".46" stroke-width=".3" d="M484 328h10c-.27-.13-.65-.91-1-1-.47-.12-1.5.03-2 0-2.53-.16-5.18.82-7 1Z"/><path fill="none" fill-opacity="0" stroke="#1E1E1E" stroke-opacity=".58" stroke-width=".3" d="M599 336c.04-.13 1 0 1 0 .11-1.65 0-3.35 0-5-.21 1.2-.79 3.24-1 5Z"/><path fill="none" fill-opacity="0" stroke="#1F1F1F" stroke-opacity=".48" stroke-width=".3" d="M366 349c-.87-4.16-2.45-9.27-3-13 .24 4.73 1.57 8.96 3 13Z"/><path fill="none" fill-opacity="0" stroke="#222" stroke-opacity=".4" stroke-width=".3" d="M597 346c.89-2.9 2.74-6.19 3-10 0 0-.96-.13-1 0-.41 3.47-1.5 6.58-2 10Z"/><path fill="none" fill-opacity="0" stroke="#1D1D1D" stroke-opacity=".44" stroke-width=".3" d="M370 360c-.77-1.93-2.48-4.33-3-6 .58 2.77 1.84 3.9 3 6Z"/><path fill="none" fill-opacity="0" stroke="#202020" stroke-opacity=".47" stroke-width=".3" d="M590 365c1.41-2.29 2.88-3.61 4-7-1.06 2.18-2.88 4.5-4 7Z"/><path fill="none" fill-opacity="0" stroke="#212121" stroke-opacity=".45" stroke-width=".3" d="M583 376c1.96-2.1 3.53-3.37 5-6-1.36 1.95-3.51 3.82-5 6Z"/><path fill="none" fill-opacity="0" stroke="#242424" stroke-opacity=".33" stroke-width=".3" d="M381 380c-.23-.16 0-1 0-1-.73-3.31-3.02-4.57-5-7 1.5 2.43 4.15 8.66 5 8Z"/><path fill="none" fill-opacity="0" stroke="#202020" stroke-opacity=".53" stroke-width=".3" d="M577 383c1.9-1.34 3.74-2.93 5-5-1.55 1.66-3.89 2.74-5 5Z"/><path fill="none" fill-opacity="0" stroke="#1B1B1B" stroke-opacity=".59" stroke-width=".3" d="M381 380c5.11 3.57 9.06 9.1 14 13-4.19-3.87-8.51-11.71-14-14 0 0-.23.84 0 1Z"/><path fill="none" fill-opacity="0" stroke="#252525" stroke-opacity=".24" stroke-width=".3" d="M572 388c-1.41 1.41-2.59 3.7-4 5 2.89-2.19 7.34-5.61 9-9-1.67 1.16-3.41 2.64-5 4Z"/><path fill="none" fill-opacity="0" stroke="#1C1C1C" stroke-opacity=".67" stroke-width=".3" d="M565 395c1.05-.38 2.09-1.31 3-2 1.41-1.3 2.59-3.59 4-5-2.47 2.11-5.07 4.24-7 7Z"/><path fill="none" fill-opacity="0" stroke="#212121" stroke-opacity=".45" stroke-width=".3" d="M555 402c3.7-1.98 6.34-3.2 9-7-3.19 1.56-6.19 5.05-9 7Z"/><path fill="none" fill-opacity="0" stroke="#1E1E1E" stroke-opacity=".46" stroke-width=".3" d="M424 424c0-.04 1 0 1 0-.45-4.63.55-7.43-2-11 1.44 3.05 1 7.58 1 11Z"/><path fill="none" fill-opacity="0" stroke="#1D1D1D" stroke-opacity=".57" stroke-width=".3" d="M526 422c.02-.8.64-4.49 1-5-2.59 2.34-1.05 2.48-1 5Z"/><path fill="none" fill-opacity="0" stroke="#212121" stroke-opacity=".41" stroke-width=".3" d="M526 433c0-.04 1 0 1 0 0-3.44-1.06-8.34-1-11 .07 3.66 0 7.34 0 11Z"/><path fill="none" fill-opacity="0" stroke="#252525" stroke-opacity=".24" stroke-width=".3" d="M425 443c0-6.24.56-12.78 0-19 0 0-1-.04-1 0 0 4.94-1.79 15.23 1 19Z"/><path fill="none" fill-opacity="0" stroke="#171717" stroke-opacity=".87" stroke-width=".3" d="M425 443v31c0 3.62.33 7.4 0 11 1.85-19.07 1.85-41.86 0-61 .56 6.22 0 12.76 0 19Z"/><path fill="none" fill-opacity="0" stroke="#1C1C1C" stroke-opacity=".64" stroke-width=".3" d="M527 441v-8s-1-.04-1 0c0 2.77.8 5.9 1 8Z"/><path fill="none" fill-opacity="0" stroke="#242424" stroke-opacity=".26" stroke-width=".3" d="M527 441v12c.02-.1 1 0 1 0 0-5.76.12-11.91-1-17v5Z"/><path fill="none" fill-opacity="0" stroke="#2B2B2B" stroke-opacity=".13" stroke-width=".3" d="M423 521c.34-.23 1 0 1 0v-36c0-3.75.71-7.99 1-11v-30c-4.98 2.19.6 15.37-1.07 21.92-1.67 6.56-.71 16.4-.93 25.08-.22 8.68 0 20.99 0 30Z"/><path fill="none" fill-opacity="0" stroke="#1F1F1F" stroke-opacity=".49" stroke-width=".3" d="M527 459c.02.1 1 0 1 0v-6s-.98-.1-1 0v6Z"/><path fill="none" fill-opacity="0" stroke="#1C1C1C" stroke-opacity=".67" stroke-width=".3" d="M527 466c.01.07 1 0 1 0-.25-2.27 0-4.72 0-7 0 0-.98.1-1 0v7Z"/><path fill="none" fill-opacity="0" stroke="#161616" stroke-opacity=".83" stroke-width=".3" d="M528 474v-2c0-1.86.38-4.18 0-6 0 0-.99.07-1 0 0 2.77.8 5.9 1 8Z"/><path fill="none" fill-opacity="0" stroke="#242424" stroke-opacity=".24" stroke-width=".3" d="M528 472c.34-.23 1 0 1 0-.06-2.09-.84-4.54-1-6 .38 1.82 0 4.14 0 6Z"/><path fill="none" fill-opacity="0" stroke="#202020" stroke-opacity=".45" stroke-width=".3" d="M528 474v9c0-.04 1 0 1 0 0-3.66.1-7.34 0-11 0 0-.66-.23-1 0v2Z"/><path fill="none" fill-opacity="0" stroke="#252525" stroke-opacity=".3" stroke-width=".3" d="M424 485c0-.04 1 0 1 0 .33-3.6 0-7.38 0-11-.29 3.01-1 7.25-1 11Z"/><path fill="none" fill-opacity="0" stroke="#1B1B1B" stroke-opacity=".69" stroke-width=".3" d="M529 491v-8s-1-.04-1 0c0 2.77.8 5.9 1 8Z"/><path fill="none" fill-opacity="0" stroke="#212121" stroke-opacity=".49" stroke-width=".3" d="M424 500c0-.04 1 0 1 0 0-4.93.44-10.09 0-15 0 0-1-.04-1 0v15Z"/><path fill="none" fill-opacity="0" stroke="#232323" stroke-opacity=".25" stroke-width=".3" d="M529 491v6c.05-.15 1 0 1 0 0-3.49-.61-7.16-1-10v4Z"/><path fill="none" fill-opacity="0" stroke="#202020" stroke-opacity=".43" stroke-width=".3" d="M529 502c.05.15 1 0 1 0v-5s-.95-.15-1 0v5Z"/><path fill="none" fill-opacity="0" stroke="#1C1C1C" stroke-opacity=".71" stroke-width=".3" d="M424 517c.68-5.03 1-11.24 1-17 0 0-1-.04-1 0v17Z"/><path fill="none" fill-opacity="0" stroke="#1D1D1D" stroke-opacity=".6" stroke-width=".3" d="M529 509c.01.07 1 0 1 0-.22-2.29 0-4.7 0-7 0 0-.95.15-1 0v7Z"/><path fill="none" fill-opacity="0" stroke="#181818" stroke-opacity=".78" stroke-width=".3" d="M530 517c0-2.63.24-5.38 0-8 0 0-.99.07-1 0 0 2.84.7 5.8 1 8Z"/><path fill="none" fill-opacity="0" stroke="#232323" stroke-opacity=".21" stroke-width=".3" d="M530 517v4c.13.22 1 0 1 0 0-4.08-.68-8.6-1-12 .24 2.62 0 5.37 0 8Z"/><path fill="none" fill-opacity="0" stroke="#232323" stroke-opacity=".32" stroke-width=".3" d="M423 523v14c0-.04 1 0 1 0v-16s-.66-.23-1 0v2Z"/><path fill="none" fill-opacity="0" stroke="#1E1E1E" stroke-opacity=".51" stroke-width=".3" d="M530 530c0-.04 1 0 1 0v-9s-.87.22-1 0v9Z"/><path fill="none" fill-opacity="0" stroke="#262626" stroke-opacity=".12" stroke-width=".3" d="M422 561c0-.04 1 0 1 0v-38c-4.05 9.53-1 27.11-1 38Z"/><path fill="none" fill-opacity="0" stroke="#171717" stroke-opacity=".78" stroke-width=".3" d="M531 541v-11s-1-.04-1 0c0 3.75.7 7.92 1 11Z"/><path fill="none" fill-opacity="0" stroke="#212121" stroke-opacity=".29" stroke-width=".3" d="M531 541v6c.02.1 1 0 1 0 0-4.1-.64-8.57-1-12v6Z"/><path fill="none" fill-opacity="0" stroke="#202020" stroke-opacity=".55" stroke-width=".3" d="M423 552c0-.04 1 0 1 0v-15s-1-.04-1 0v15Z"/><path fill="none" fill-opacity="0" stroke="#1B1B1B" stroke-opacity=".63" stroke-width=".3" d="M532 560v-1c1.51-2.71 0-8.48 0-12 0 0-.98.1-1 0 0 4.41.64 9.27 1 13Z"/><path fill="none" fill-opacity="0" stroke="#1B1B1B" stroke-opacity=".73" stroke-width=".3" d="M423 560c1.54-2.09 1-5.19 1-8 0 0-1-.04-1 0v8Z"/><path fill="none" fill-opacity="0" stroke="#242424" stroke-opacity=".27" stroke-width=".3" d="M532 560v7c.01.07 1 0 1 0 0-2.44.73-6.34-1-8v1Z"/><path fill="none" fill-opacity="0" stroke="#232323" stroke-opacity=".34" stroke-width=".3" d="M422 580c.01-.07 1 0 1 0v-19s-1-.04-1 0v19Z"/><path fill="none" fill-opacity="0" stroke="#1B1B1B" stroke-opacity=".64" stroke-width=".3" d="M533 577v-10s-.99.07-1 0c0 3.15-.76 7.62 1 10Z"/><path fill="none" fill-opacity="0" stroke="#222" stroke-opacity=".17" stroke-width=".3" d="M533 577v1c.25.25 1 0 1 0 0-3.27.13-6.34-1-9v8Z"/><path fill="none" fill-opacity="0" stroke="#212121" stroke-opacity=".33" stroke-width=".3" d="M533 585c.01.07 1 0 1 0v-7s-.75.25-1 0v7Z"/><path fill="none" fill-opacity="0" stroke="#202020" stroke-opacity=".51" stroke-width=".3" d="M422 587c.27-.25 1 0 1 0v-7s-.99-.07-1 0v7Z"/><path fill="none" fill-opacity="0" stroke="#1C1C1C" stroke-opacity=".58" stroke-width=".3" d="M534 597v-12s-.99.07-1 0c0 4.08.67 8.6 1 12Z"/><path fill="none" fill-opacity="0" stroke="#1C1C1C" stroke-opacity=".67" stroke-width=".3" d="M422 590v5c.05.15 1 0 1 0v-8s-.73-.25-1 0v3Z"/><path fill="none" fill-opacity="0" stroke="#242424" stroke-opacity=".26" stroke-width=".3" d="M421 612c.01-.07 1 0 1 0 .5-5.56 0-11.41 0-17v-5c-1.43 6.54-1 14.69-1 22Z"/><path fill="none" fill-opacity="0" stroke="#232323" stroke-opacity=".27" stroke-width=".3" d="M534 597v9c.01-.07 1 0 1 0 0-4.41-.64-9.27-1-13v4Z"/><path fill="none" fill-opacity="0" stroke="#171717" stroke-opacity=".84" stroke-width=".3" d="M422 612c.48-4.97 1-11.28 1-17 0 0-.95.15-1 0 0 5.59.5 11.44 0 17Z"/><path fill="none" fill-opacity="0" stroke="#1D1D1D" stroke-opacity=".53" stroke-width=".3" d="M534 613c.01.07 1 0 1 0v-7s-.99-.07-1 0v7Z"/><path fill="none" fill-opacity="0" stroke="#212121" stroke-opacity=".48" stroke-width=".3" d="M421 619v2c.34.23 1 0 1 0 0-2.96.27-6.06 0-9 0 0-.99-.07-1 0v7Z"/><path fill="none" fill-opacity="0" stroke="#222" stroke-opacity=".26" stroke-width=".3" d="M535 613c0 4.27-.38 8.75 0 13 .05-.15 1 0 1 0 0-4.74-.61-9.94-1-14v1Z"/><path fill="none" fill-opacity="0" stroke="#151515" stroke-opacity=".82" stroke-width=".3" d="M535 626c-.38-4.25 0-8.73 0-13 0 0-.99.07-1 0 0 4.43.6 9.25 1 13Z"/><path fill="none" fill-opacity="0" stroke="#262626" stroke-opacity=".12" stroke-width=".3" d="M420 639c0-.04 1 0 1 0v-20c-.57 5.95-1 13.3-1 20Z"/><path fill="none" fill-opacity="0" stroke="#1C1C1C" stroke-opacity=".71" stroke-width=".3" d="M421 639v4c.64-6.6 1-14.64 1-22 0 0-.66.23-1 0v18Z"/><path fill="none" fill-opacity="0" stroke="#1E1E1E" stroke-opacity=".49" stroke-width=".3" d="M535 631c.05.15 1 0 1 0v-5s-.95-.15-1 0c.17 1.62 0 3.37 0 5Z"/><path fill="none" fill-opacity="0" stroke="#1B1B1B" stroke-opacity=".65" stroke-width=".3" d="M536 639v-8s-.95.15-1 0c0 2.73-.52 5.95 1 8Z"/><path fill="none" fill-opacity="0" stroke="#232323" stroke-opacity=".33" stroke-width=".3" d="M420 652c.02-.1 1 0 1 0v-13s-1-.04-1 0v13Z"/><path fill="none" fill-opacity="0" stroke="#212121" stroke-opacity=".32" stroke-width=".3" d="M536 648c.01-.07 1 0 1 0 0-2.73.52-5.95-1-8v8Z"/><path fill="none" fill-opacity="0" stroke="#1D1D1D" stroke-opacity=".55" stroke-width=".3" d="M536 655c.01.07 1 0 1 0v-7s-.99-.07-1 0v7Z"/><path fill="none" fill-opacity="0" stroke="#1F1F1F" stroke-opacity=".55" stroke-width=".3" d="M420 658v9c.34-.23 1 0 1 0v-15s-.98-.1-1 0v6Z"/><path fill="none" fill-opacity="0" stroke="#171717" stroke-opacity=".78" stroke-width=".3" d="M537 665v-10s-.99.07-1 0c0 3.49.61 7.16 1 10Z"/><path fill="none" fill-opacity="0" stroke="#393939" stroke-opacity=".03" stroke-width=".3" d="M420 663v-5c-.14 1.57-.21 3.33 0 5Z"/><path fill="none" fill-opacity="0" stroke="#212121" stroke-opacity=".25" stroke-width=".3" d="M537 665v4c.13.22 1 0 1 0 0-2.77-.8-5.9-1-8v4Z"/><path fill="none" fill-opacity="0" stroke="#1A1A1A" stroke-opacity=".76" stroke-width=".3" d="M420 669v8c.26-2.68 1-6.58 1-10 0 0-.66-.23-1 0v2Z"/><path fill="none" fill-opacity="0" stroke="#242424" stroke-opacity=".25" stroke-width=".3" d="M419 691c0-.04 1 0 1 0v-22c-2.44 5.75-1 15.28-1 22Z"/><path fill="none" fill-opacity="0" stroke="#1E1E1E" stroke-opacity=".48" stroke-width=".3" d="M537 677c.01-1.71 1-5.47 1-8 0 0-.87.22-1 0 0 2.63-.25 5.39 0 8Z"/><path fill="none" fill-opacity="0" stroke="#1F1F1F" stroke-opacity=".36" stroke-width=".3" d="M538 691c.05.15 1 0 1 0-.06-1.82-.83-3.79-1-5v5Z"/><path fill="none" fill-opacity="0" stroke="#202020" stroke-opacity=".53" stroke-width=".3" d="M419 704c.13-.22 1 0 1 0v-13s-1-.04-1 0v13Z"/><path fill="none" fill-opacity="0" stroke="#1C1C1C" stroke-opacity=".57" stroke-width=".3" d="M538 698c.01.07 1 0 1 0v-1c0-2 .07-4 0-6 0 0-.95.15-1 0 0 2.33-.06 4.67 0 7Z"/><path fill="none" fill-opacity="0" stroke="#202020" stroke-opacity=".21" stroke-width=".3" d="M539 698v10c.13.22 1 0 1 0 0-3.75-.7-7.92-1-11v1Z"/><path fill="none" fill-opacity="0" stroke="#161616" stroke-opacity=".78" stroke-width=".3" d="M539 704v-6s-.99.07-1 0c.05 2.14.8 4.48 1 6Z"/><path fill="none" fill-opacity="0" stroke="#1C1C1C" stroke-opacity=".7" stroke-width=".3" d="M419 708v7c.29-3.01 1-7.25 1-11 0 0-.87-.22-1 0v4Z"/><path fill="none" fill-opacity="0" stroke="#252525" stroke-opacity=".19" stroke-width=".3" d="M418 731c.24-.25 1 0 1 0v-23c-.37 2.73-2.07 8.67-1 12 1.07 3.33-1.92 9.16 0 11Z"/><path fill="none" fill-opacity="0" stroke="#1E1E1E" stroke-opacity=".51" stroke-width=".3" d="M539 719c0-.04 1 0 1 0-.35-3.59 0-7.39 0-11 0 0-.87.22-1 0v11Z"/><path fill="none" fill-opacity="0" stroke="#141414" stroke-opacity=".84" stroke-width=".3" d="M540 728c0-2.96.26-6.05 0-9 0 0-1-.04-1 0 0 3.27.42 6.34 1 9Z"/><path fill="none" fill-opacity="0" stroke="#202020" stroke-opacity=".31" stroke-width=".3" d="M540 728v3c.27.25 1 0 1 0 0-4.08-.67-8.6-1-12 .26 2.95 0 6.04 0 9Z"/><path fill="none" fill-opacity="0" stroke="#232323" stroke-opacity=".43" stroke-width=".3" d="M418 736c.11 2.3-.3 4.72 0 7 .01.07 1 0 1 0v-12s-.76-.25-1 0c-1.64 1.68-.09 3.19 0 5Z"/><path fill="none" fill-opacity="0" stroke="#1B1B1B" stroke-opacity=".6" stroke-width=".3" d="M540 741c0 .05 1 0 1 0v-10s-.73.25-1 0c0 3.33-.07 6.67 0 10Z"/><path fill="none" fill-opacity="0" stroke="#393939" stroke-opacity=".03" stroke-width=".3" d="M418 743c-.3-2.28.11-4.7 0-7-.11 1.95-.2 4.93 0 7Z"/><path fill="none" fill-opacity="0" stroke="#222" stroke-opacity=".24" stroke-width=".3" d="M541 741v6c.25-.25 1 0 1 0 0-3.09-.77-6.58-1-9v3Z"/><path fill="none" fill-opacity="0" stroke="#141414" stroke-opacity=".84" stroke-width=".3" d="M541 748v-7s-1 .05-1 0c.05 2.4.83 5.25 1 7Z"/><path fill="none" fill-opacity="0" stroke="#1D1D1D" stroke-opacity=".67" stroke-width=".3" d="M418 751c.25-.25 1 0 1 0v-8s-.99.07-1 0c.25 2.61 0 5.38 0 8Z"/><path fill="none" fill-opacity="0" stroke="#1E1E1E" stroke-opacity=".49" stroke-width=".3" d="M541 748c0 3.33-.09 6.67 0 10 0 .04 1 0 1 0v-11s-.75-.25-1 0v1Z"/><path fill="none" fill-opacity="0" stroke="#161616" stroke-opacity=".86" stroke-width=".3" d="M418 752c0 7.56.68 15.47 0 23 .7-7.26 1-15.98 1-24 0 0-.75-.25-1 0v1Z"/><path fill="none" fill-opacity="0" stroke="#282828" stroke-opacity=".21" stroke-width=".3" d="M417 756c.06 1.65.08 3.35 0 5-.2 4.17 0 9.17 0 14 0-.04 1 0 1 0 .68-7.53 0-15.44 0-23-2.7 1.38-1.07 1.95-1 4Z"/><path fill="none" fill-opacity="0" stroke="#393939" stroke-opacity=".03" stroke-width=".3" d="M417 761c.08-1.65.06-3.35 0-5-.14 1.45-.1 3.53 0 5Z"/><path fill="none" fill-opacity="0" stroke="#171717" stroke-opacity=".75" stroke-width=".3" d="M542 764c-.21-1.95 0-4.04 0-6 0 0-1 .04-1 0 .06 2.09.84 4.55 1 6Z"/><path fill="none" fill-opacity="0" stroke="#202020" stroke-opacity=".32" stroke-width=".3" d="M542 770c.02-.1 1 0 1 0-.05-2.1-.84-4.54-1-6 .21 1.95 0 4.04 0 6Z"/><path fill="none" fill-opacity="0" stroke="#1D1D1D" stroke-opacity=".49" stroke-width=".3" d="M542 776c.02.1 1 0 1 0 0-2 .04-4 0-6 0 0-.98-.1-1 0v6Z"/><path fill="none" fill-opacity="0" stroke="#1E1E1E" stroke-opacity=".52" stroke-width=".3" d="M417 786c0-.04 1 0 1 0 0-3.62.33-7.4 0-11 0 0-1-.04-1 0v11Z"/><path fill="none" fill-opacity="0" stroke="#181818" stroke-opacity=".71" stroke-width=".3" d="M543 788v-12s-.98.1-1 0c0 4.08.68 8.6 1 12Z"/><path fill="none" fill-opacity="0" stroke="#212121" stroke-opacity=".31" stroke-width=".3" d="M543 788v7c.82-3.71.35-7.34 0-11v4Z"/><path fill="none" fill-opacity="0" stroke="#1B1B1B" stroke-opacity=".72" stroke-width=".3" d="M417 795c.25-.25 1 0 1 0v-9s-1-.04-1 0v9Z"/><path fill="none" fill-opacity="0" stroke="#151515" stroke-opacity=".86" stroke-width=".3" d="M417 796v18c1.24-5.64 1-12.61 1-19 0 0-.75-.25-1 0v1Z"/><path fill="none" fill-opacity="0" stroke="#252525" stroke-opacity=".26" stroke-width=".3" d="M416 817c0-.04 1 0 1 0v-21c-3.38 4.58-1 15.11-1 21Z"/><path fill="none" fill-opacity="0" stroke="#191919" stroke-opacity=".65" stroke-width=".3" d="M543 804c.02.1 1 0 1 0v-1c.25-2.06-.75-3.62-1-5 0 2-.04 4 0 6Z"/><path fill="none" fill-opacity="0" stroke="#1F1F1F" stroke-opacity=".16" stroke-width=".3" d="M544 804c0 1.86-.38 4.18 0 6 .02.1 1 0 1 0-.04-2.51-.73-5.12-1-7v1Z"/><path fill="none" fill-opacity="0" stroke="#151515" stroke-opacity=".81" stroke-width=".3" d="M544 810c-.38-1.82 0-4.14 0-6 0 0-.98.1-1 0 .05 2.11.84 4.54 1 6Z"/><path fill="none" fill-opacity="0" stroke="#202020" stroke-opacity=".31" stroke-width=".3" d="M544 817c.01-.07 1 0 1 0 0-2.33.04-4.67 0-7 0 0-.98.1-1 0 .25 2.27 0 4.71 0 7Z"/><path fill="none" fill-opacity="0" stroke="#1E1E1E" stroke-opacity=".56" stroke-width=".3" d="M416 826v12c0-.04 1 0 1 0v-21s-1-.04-1 0v9Z"/><path fill="none" fill-opacity="0" stroke="#1B1B1B" stroke-opacity=".56" stroke-width=".3" d="M544 824c.01.07 1 0 1 0v-7s-.99-.07-1 0v7Z"/><path fill="none" fill-opacity="0" stroke="#161616" stroke-opacity=".77" stroke-width=".3" d="M545 834c-.17-1.28 0-2.71 0-4v-6s-.99.07-1 0c0 3.42.73 7.25 1 10Z"/><path fill="none" fill-opacity="0" stroke="#252525" stroke-opacity=".19" stroke-width=".3" d="M416 900v-74c-.69 7.14-1.77 17.17-1 25 .77 7.83-1.32 17.62 0 25 1.32 7.38-3.22 18.3 1 24Z"/><path fill="none" fill-opacity="0" stroke="#232323" stroke-opacity=".13" stroke-width=".3" d="M545 834c.2 1.52.94 3.86 1 6 .06 2.33 0 4.67 0 7 0 1.86-.38 4.18 0 6 .02.1 1 0 1 0 0-8.14-.7-15.9-2-23 0 1.29-.17 2.72 0 4Z"/><path fill="none" fill-opacity="0" stroke="#1F1F1F" stroke-opacity=".36" stroke-width=".3" d="M545 840c.02.1 1 0 1 0-.06-2.14-.8-4.48-1-6 .19 1.96 0 4.03 0 6Z"/><path fill="none" fill-opacity="0" stroke="#191919" stroke-opacity=".78" stroke-width=".3" d="M416 888c.01-.07 1 0 1 0v-50s-1-.04-1 0v50Z"/><path fill="none" fill-opacity="0" stroke="#1B1B1B" stroke-opacity=".59" stroke-width=".3" d="M545 847c.01.07 1 0 1 0 0-2.33.06-4.67 0-7 0 0-.98.1-1 0 0 2.33-.06 4.67 0 7Z"/><path fill="none" fill-opacity="0" stroke="#161616" stroke-opacity=".77" stroke-width=".3" d="M546 853c-.38-1.82 0-4.14 0-6 0 0-.99.07-1 0 .05 2.11.83 4.53 1 6Z"/><path fill="none" fill-opacity="0" stroke="#1F1F1F" stroke-opacity=".36" stroke-width=".3" d="M546 864c0-.04 1 0 1 0v-11s-.98.1-1 0c.41 3.56 0 7.41 0 11Z"/><path fill="none" fill-opacity="0" stroke="#191919" stroke-opacity=".63" stroke-width=".3" d="M547 875v-11s-1-.04-1 0c0 3.75.7 7.92 1 11Z"/><path fill="none" fill-opacity="0" stroke="#212121" stroke-opacity=".28" stroke-width=".3" d="M547 875v15c0-.04 1 0 1 0 0-7.38-.09-15.3-1-22v7Z"/><path fill="none" fill-opacity="0" stroke="#1D1D1D" stroke-opacity=".62" stroke-width=".3" d="M416 895c.05-.15 1 0 1 0v-7s-.99-.07-1 0v7Z"/><path fill="none" fill-opacity="0" stroke="#1C1C1C" stroke-opacity=".49" stroke-width=".3" d="M543 915c.4-.2 1 0 1 0 4.45-8.08 4-15.65 4-25 0 0-1-.04-1 0 0 9.26.13 16.93-4 25Z"/><path fill="none" fill-opacity="0" stroke="#202020" stroke-opacity=".39" stroke-width=".3" d="M416 900s.05.5 0 1c.25.25 1 0 1 0-.25-1.92 0-4.06 0-6 0 0-.95-.15-1 0v5Z"/><path fill="none" fill-opacity="0" stroke="#212121" stroke-opacity=".21" stroke-width=".3" d="M418 910c-.2-1.26.02-2.72 0-4-.16-1.2-.94-3.19-1-5 0 0-.75.25-1 0-.38 4.03 1.11 5.94 2 9Z"/><path fill="none" fill-opacity="0" stroke="#181818" stroke-opacity=".76" stroke-width=".3" d="M418 906c-.03-1.83-.84-3.8-1-5 .06 1.81.84 3.8 1 5Z"/><path fill="none" fill-opacity="0" stroke="#1D1D1D" stroke-opacity=".45" stroke-width=".3" d="M425 923c-3.54-2.58-6.39-9.25-7-13 1.72 5.89 1.03 10.01 7 13Z"/><path fill="none" fill-opacity="0" stroke="#202020" stroke-opacity=".3" stroke-width=".3" d="M542 917c-1 1.64-2.7 3.7-4 5 2.59-2.22 4.33-3.98 6-7 0 0-.6-.2-1 0-.35.68-.59 1.33-1 2Z"/><path fill="none" fill-opacity="0" stroke="#181818" stroke-opacity=".67" stroke-width=".3" d="M533 926c1.71-1.08 3.43-2.66 5-4 1.3-1.3 3-3.36 4-5-2.41 2.59-6.16 6.89-9 9Z"/><path fill="none" fill-opacity="0" stroke="#1F1F1F" stroke-opacity=".36" stroke-width=".3" d="M477 940c-.04 0 0-1 0-1-3.32 0-6.68.13-10 0 2.8.4 6.49 1 10 1Z"/><path fill="none" fill-opacity="0" stroke="#1A1A1A" stroke-opacity=".62" stroke-width=".3" d="M477 940c3.66 0 7.34.1 11 0 .05 0 0-1 0-1h-11s-.04 1 0 1Z"/><path fill="none" fill-opacity="0" stroke="#1D1D1D" stroke-opacity=".42" stroke-width=".3" d="M488 940c2.1-.06 4.54-.83 6-1h-6s.05 1 0 1Z"/><path fill="#323232" fill-opacity=".05" d="M371 25c1.16-.41 1.7-.8 3-1 2.12-.72 4.27-1.09 7-1-4.88-.79-5.91-1.27-10 2Z"/><path fill="#353535" fill-opacity=".13" d="M430 35c.16-.95 1.51-3.09 2-4 .01-.5 0-1 0-1 1.4-3.09 5.13-4.16 8-5 1.66-.49 3.27-.6 5-1 1.64-.37 3.69-1.55 6-1 .25-.38-10.94-1.5-14.77 1.23S430.2 29.03 430 35Z"/><path fill="#2A2A2A" fill-opacity=".12" d="M497 149c0-.04 1 0 1 0v-46c0-7.69.33-16.07 1-23 0-11.3-.45-22.71 0-34 .08-2.04.67-3.57 1-5 .48-4.06.77-9.44 3-13 3.52-5.63 12.35-5.76 18-4 2.36.74 6.68 2.6 8 5-4.33-13.69-32.83-8.11-30.93 8.92 1.89 17.03-2.2 35.5-1.07 54.08 1.13 18.58 0 38.88 0 57Z"/><path fill="#363636" fill-opacity=".19" d="M374 24c2.38-.37 5.6-.25 8 0 2.63.27 5.56.98 8 2 .92-3.4-5.98-2.51-9-3-2.73-.09-4.88.28-7 1Z"/><path fill="#282828" fill-opacity=".73" d="M445 24c.29-.25 1 0 1 0 .5 0 1.5-.01 2 0 .99.02 2.02.06 3 0 0 0-.23-.65 0-1-2.31-.55-4.36.63-6 1Z"/><path fill="#262626" fill-opacity=".15" d="M453 24c.23.34 0 1 0 1 3.22 1.15 7.49 3.77 9 7 .54-1.31 1.41-2.44 1-4-4.01-.87-6.04-5.83-10-4Z"/><path fill="#202020" d="M503 28c1.07-1.19 2.63-2.18 4-1-2.63 12.64 1.74 30.18 1.33 42.67-.41 12.49.54 21.73.87 34.58.33 12.84-1.28 23.74.58 35.97 1.86 12.24-3.2 27.5-1.77 40.79 1.42 13.28 1.38 20.63 1 33-.39 12.37-.01 26.07-.01 38.99 0 12.93 1.46 27.27-1.59 38.75-3.06 11.47 4.12 31.65-9.41 36.25-1.33.05-2.67 0-4 0h-10c-5.59 0-11.44.5-17 0 6.93 4.9 20.86-1.59 29 1-11.94 1.96-25.57.62-38 2-3.1-7.9-3.05-17.91-6.32-25.68-3.28-7.77-2.53-18.33-7.68-23.32-1.25 4.56.74 9.82 0 15-10.21 5.54-2.28 32.07-19 30-16.72-2.07-23.53-9.29-39-9 .58-7.21-9.25-14.63-9.07-5.92.18 8.7 2.8 14.1 7.82 20.17 5.03 6.07 9.32 8.27 14.95 13.05 5.63 4.78 11.78 5.33 17.55 8.89 5.77 3.57 12.02 4.73 18.42 7.14 6.4 2.41 12.89 6.32 19.55 8.45 6.66 2.13 12.38 2.46 16.78 5.22 8.74-4.97 19.98.79 29.22-2.78 9.24-3.57 17.22-3.96 27.46-7.54 10.24-3.58 18.32-6.71 27.99-11.01 9.68-4.3 16.59-9.51 22.58-18.42 5.99-8.9 10.52-19.6 8.42-30.92-2.1-11.32-2.31-25.91-2-37 .31-11.09 1.58-25.16 1.33-36.33-.25-11.17.41-22.76 0-35-.41-12.24 1.11-21.41.93-33.08-.18-11.67-2.96-21.65-1.86-33 1.09-11.36-1.04-23.38-.05-34.94 1-11.57.41-24.29.05-35.05-.36-10.77 7.43-23 8.93-31.93-1.32-1.1-1.23-1.39-3-2-6.69-2.32-14.92-1.56-20 3 3.35.08 2.15 11.16 3 15 .85 3.84.9 11.37 1 17 .1 5.63-.26 10.23-1 17-.73 6.78 2.33 7.8 1 17s-.29 21.78-.21 30.23c.07 8.45-1.46 7.49.2 15.78 1.67 8.29-1.4 7.19-.99 16.99.41 9.8 1.84 22.77.01 32.01-1.84 9.24.95 9.02-.01 17.99-.96 8.97 1.88 21.64.2 30.25-1.68 8.6-2.32 5.57-1.2 14.75 1.12 9.18 1.1 24.94 0 34-1.1 9.06 1.97 25.25-6 30 9.77.33 3.17-13.22 11.25-14.75 8.08-1.53 5.25 14.59 3.75 18.75-3.93 10.9-13.74 19.89-25.08 23.92-11.35 4.03-24.47 7.15-36.15 11.85-11.68 4.7-27.72 4.62-39.8 7.21-12.08 2.59-29.29-.35-40.05-5.9-10.75-5.56-27.69-4.44-36-13-8.3-8.57-22.01-13.36-25.92-24.08-1.02-2.79-1.17-5.89-1-9 2.8-.11 4.02 2.94 5 5 .74 1.13 1.4 2.55 2 4 5.68-3.03 10.21 8.52 14 3 6.71 3.22 16.68 6.68 26.22 7.78 9.55 1.1 15.11-15.12 15.78-21.78v-1c.51-2.33 2.23-5.91 5-6 3.76 10.03 2.45 31.21 17.02 30.98 14.58-.23 22.11 2.58 35.98-1.98 13.88-4.55 4.38-27.76 12-37 12.31 6.02 4.99 29.44 19 30-11.51-5.63-7.66-26.22-12.06-35.08-4.41-8.86-1.3-11.78-1.94-20.92-.64-9.14-2.06-12.46 0-22s-1.09-9.46-.33-20.67.63-26.69.26-38.4c-.38-11.72.08-14.22-.71-23.15-.79-8.93 1.71-13.68.78-21.78-.93-8.1-.25-14.04.2-21.25.44-7.2.2-13.51-.2-20.75s1.32-11.87.6-18.74c-.73-6.87-.68-11.94 1.38-18.28 2.06-6.35-3.11-18.14 2.32-22.68 5.43-4.53-2.87-16.8-.3-17.3-5.65-1.76-14.48-1.63-18 4Z"/><path fill="#353535" fill-opacity=".15" d="M569 31c.04-.13 1 0 1 0 .67-.64 1.33-1.4 2-2 5.08-4.56 13.31-5.32 20-3-4.92-2.78-23.48-5.43-23 5Z"/><path fill="#2C2C2C" d="M371 25c-1.15.41-1.14.38-2 1 .09 3.47.32 9.87 1.93 15.07 1.61 5.21 3.87 10.52 5.07 15.93 5-6.79 18.13-25.68 4-31 .08-1.26 2.06-.56 2-2-2.4-.25-5.62-.37-8 0-1.3.2-1.84.59-3 1Z"/><path d="M369 26c-1.26.9-2.83 1.91-4 3-.79 1.36-.73 3.42-1 5-.97 5.64-1.49 12.77-2 18v31c0 9.33-.17 19.44-1 28v152c.49 5.04 1 11.27 1 17v13c0 1.65.13 3.36 0 5-.51 6.41 0 11.97 0 19 .39 4.06 1 9.26 1 14 0 1.66-.08 3.34 0 5 .55 3.73 2.13 8.84 3 13 .34 1.65.64 3.29 1 5 .52 1.67 2.23 4.07 3 6 1.71 4.26 3.57 8.07 6 12 1.98 2.43 4.27 3.69 5 7 5.49 2.29 9.81 10.13 14 14 4.46 3.52 9.34 6.79 13.75 10.25 4.42 3.46 11 5.21 14.25 9.75 2.55 3.57 1.55 6.37 2 11 1.85 19.14 1.85 41.93 0 61 .44 4.91 0 10.07 0 15 0 5.76-.32 11.97-1 17v35c0 2.81.54 5.91-1 8v35c0 5.72-.52 12.03-1 17 .27 2.94 0 6.04 0 9 0 7.36-.36 15.4-1 22v24c0 3.42-.74 7.32-1 10v27c0 3.75-.71 7.99-1 11v36c0 8.02-.3 16.74-1 24 .33 3.6 0 7.38 0 11v9c0 6.39.24 13.36-1 19v81c0 1.94-.25 4.08 0 6 .16 1.2.97 3.17 1 5 .02 1.28-.2 2.74 0 4 .61 3.75 3.46 10.42 7 13 13.79 6.9 25.74 15.38 42 16 3.32.13 6.68 0 10 0h17c14.14 0 27.51-5.74 39-13 2.84-2.11 6.59-6.41 9-9 .41-.67.65-1.32 1-2 4.13-8.07 4-15.74 4-25v-15c-.3-3.08-1-7.25-1-11 0-3.59.41-7.44 0-11-.17-1.47-.95-3.89-1-6-.06-2.33 0-4.67 0-7 0-1.97.19-4.04 0-6-.27-2.75-1-6.58-1-10v-7c0-2.29.25-4.73 0-7-.16-1.46-.95-3.89-1-6-.04-2 0-4 0-6v-10c-.32-3.4-1-7.92-1-12v-6c0-1.96.21-4.05 0-6-.16-1.45-.94-3.91-1-6-.09-3.33 0-6.67 0-10-.17-1.75-.95-4.6-1-7-.07-3.33 0-6.67 0-10v-3c-.58-2.66-1-5.73-1-9v-15c-.2-1.52-.95-3.86-1-6-.06-2.33 0-4.67 0-7v-5c0-3.18-.73-6.15-1-9-.25-2.61 0-5.37 0-8v-4c-.39-2.84-1-6.51-1-10v-16c-1.52-2.05-1-5.27-1-8 0-1.63.17-3.38 0-5-.4-3.75-1-8.57-1-13v-16c-.33-3.4-1-7.92-1-12v-8c-1.76-2.38-1-6.85-1-10v-7c-.36-3.73-1-8.59-1-13v-6c-.3-3.08-1-7.25-1-11v-13c-.3-2.2-1-5.16-1-8v-18c-.2-2.1-1-5.23-1-8v-9c-.2-2.1-1-5.23-1-8v-25c-.2-2.1-1-5.23-1-8 0-3.66.07-7.34 0-11-.05-2.52-1.59-2.66 1-5 2.43-3.45 11.42-3.97 14.92-7.08 3.49-3.11 9.01-5.1 13.08-7.92 2.81-1.95 5.81-5.44 9-7 0 0 .56.16 1 0 1.93-2.76 4.53-4.89 7-7 1.59-1.36 3.33-2.84 5-4 0 0-.2-.6 0-1 1.11-2.26 3.45-3.34 5-5 .38-.62.57-1.37 1-2 1.49-2.18 3.64-4.05 5-6 .99-1.77 1.24-3.31 2-5 1.12-2.5 2.94-4.82 4-7 1.46-4.45 2.36-7.65 3-12 .5-3.42 1.59-6.53 2-10 .21-1.76.79-3.8 1-5v-3c0-2-.07-4.01 0-6 .06-1.86.83-3.81 1-5V58c-.33-3.4-1-7.92-1-12v-6s.08-.51 0-1c-.43-2.61-.38-6.8-2-9-.73-.72-2.16-1.3-3-2-1.5 8.93-9.29 21.16-8.93 31.93.36 10.76.95 23.48-.05 35.05-.99 11.56 1.14 23.58.05 34.94-1.1 11.35 1.68 21.33 1.86 33 .18 11.67-1.34 20.84-.93 33.08.41 12.24-.25 23.83 0 35 .25 11.17-1.02 25.24-1.33 36.33-.31 11.09-.1 25.68 2 37s-2.43 22.02-8.42 30.92c-5.99 8.91-12.9 14.12-22.58 18.42-9.67 4.3-17.75 7.43-27.99 11.01-10.24 3.58-18.22 3.97-27.46 7.54-9.24 3.57-20.48-2.19-29.22 2.78-4.4-2.76-10.12-3.09-16.78-5.22-6.66-2.13-13.15-6.04-19.55-8.45-6.4-2.41-12.65-3.57-18.42-7.14-5.77-3.56-11.92-4.11-17.55-8.89-5.63-4.78-9.92-6.98-14.95-13.05-5.02-6.07-7.64-11.47-7.82-20.17-.18-8.71 9.65-1.29 9.07 5.92 15.47-.29 22.28 6.93 39 9 16.72 2.07 8.79-24.46 19-30 .74-5.18-1.25-10.44 0-15 5.15 4.99 4.4 15.55 7.68 23.32 3.27 7.77 3.22 17.78 6.32 25.68 12.43-1.38 26.06-.04 38-2-8.14-2.59-22.07 3.9-29-1-4.13-.24-1.47-13.92-2-19s.25-15.81 0-22c-.25-6.19.11-14.25 0-21s.05-15.02 0-22 .02-13.9 0-21 .01-14.85 0-22 0-13.81 0-21v-22c-1.31-13.54-1-28.73-1-43V92c0-3.98-.2-8.02 0-12 .51-10.21 0-19.68 0-31-.23-2.4-.94-5.94-1-9-.06-2.87-.69-5.43-1-8-1.51-3.23-5.78-5.85-9-7-1.74 3.36 3.16 11.4.22 17.22-2.93 5.83-2.16 12.09-4.22 18.78-2.05 6.69 3.93 13.63 1 22s-.39 9.94-1 21 .47 26.87-1.11 36.89 1.25 9.63 2.03 19.19c.78 9.57-.04 9.46-1.7 20.14s-.33 24.55-1.29 32.86c-.96 8.3-1.7 6.98.07 13.92-7.78-7.28-1.92-14.11-4.2-23.25-2.27-9.14 1.36-12.41.13-20.83-1.22-8.42-2.13-16.75-2-26 .14-9.25-1.51-19.12-.01-29 1.49-9.88.86-23.71.08-33.92s.75-23.97-1-34c-1.75-10.03-1.37-24.21-8-30 0 0 .01.5 0 1-.07 3.14-.82 5.78-1 9-.27 4.97 0 10.03 0 15 0 3.75-.71 7.99-1 11v49c0 22.9 2 48.02-1 70-.17 1.28 0 2.71 0 4v47c0 1.65.13 3.36 0 5-.5 6.27-.75 11.75 0 18 .15 1.29 0 2.7 0 4v61c-10.98-1.42-21.03-6.36-32-8v-9c2.57-75.95 0-145.71 0-224-.49-5.04-1-11.27-1-17V43c0-1.66.06-3.34 0-5-.42-3.23-2.56-8.24-5-11-.32-.19-.74-.89-1-1-2.44-1.02-5.37-1.73-8-2 .06 1.44-1.92.74-2 2 14.13 5.32 1 24.21-4 31-1.2-5.41-3.46-10.72-5.07-15.93-1.61-5.2-1.84-11.6-1.93-15.07Z"/><path fill="#484848" d="M440 25c-1.51.62-3.08 2.67-5 3 5.68 6.41 6.35 16.49 10 24 6.39-6.5 11.95-20.85 3-28-.5-.01-1.5 0-2 0 2.83 6.32 8.55 14.87-1 21-1.45-1.77-.57-4.22-2-6-.14-.45 0-1 0-1-3.83-7.31-4.17-8.72 2-14-1.73.4-3.34.51-5 1Z"/><path fill="#6B6B6B" d="M443 38c-.81-4.95-.1-11.26 5.22-7.22 5.32 4.03-1.53 13.13-5.22 8.22 1.43 1.78.55 4.23 2 6 9.55-6.13 3.83-14.68 1-21 0 0-.71-.25-1 0-6.17 5.28-5.83 6.69-2 14Z"/><path fill="#1D1D1D" d="M440 25c-2.87.84-6.6 1.91-8 5 6.63 5.79 6.25 19.97 8 30 1.75 10.03.22 23.79 1 34s1.41 24.04-.08 33.92c-1.5 9.88.15 19.75.01 29-.13 9.25.78 17.58 2 26 1.23 8.42-2.4 11.69-.13 20.83 2.28 9.14-3.58 15.97 4.2 23.25-1.77-6.94-1.03-5.62-.07-13.92.96-8.31-.37-22.18 1.29-32.86 1.66-10.68 2.48-10.57 1.7-20.14-.78-9.56-3.61-9.17-2.03-19.19 1.58-10.02.5-25.83 1.11-36.89.61-11.06-1.93-12.63 1-21 2.93-8.37-3.05-15.31-1-22 2.06-6.69 1.29-12.95 4.22-18.78 2.94-5.82-1.96-13.86-.22-17.22 0 0 .23-.66 0-1-.41.19-1.5-.03-2 0-.98.06-2.01.02-3 0 8.95 7.15 3.39 21.5-3 28-3.65-7.51-4.32-17.59-10-24 1.92-.33 3.49-2.38 5-3Z"/><path d="M531 325c.4.2 1 0 1 0 2.67-.13 2.06-2.83 2-5-.03-1 0-2 0-3-1.12-5.09-1-11.24-1-17v-15c0-7.67-.01-15.33 0-23v-18c0-1.63.17-3.38 0-5-5.14-48.29-1-100.75-1-150V63c-.17-1.21-.94-3.18-1-5-.07-1.99 0-4 0-6 0-6.19.01-12.09-1-18-.31-1.79-.47-3.33-1-5-1.32-2.4-5.64-4.26-8-5-2.57.5 5.73 12.77.3 17.3-5.43 4.54-.26 16.33-2.32 22.68-2.06 6.34-2.11 11.41-1.38 18.28.72 6.87-1 11.5-.6 18.74.4 7.24.64 13.55.2 20.75-.45 7.21-1.13 13.15-.2 21.25.93 8.1-1.57 12.85-.78 21.78.79 8.93.33 11.43.71 23.15.37 11.71.5 27.19-.26 38.4-.76 11.21 2.39 11.13.33 20.67-2.06 9.54-.64 12.86 0 22s-2.47 12.06 1.94 20.92c4.4 8.86.55 29.45 12.06 35.08ZM503 28c-2.23 3.56-2.52 8.94-3 13-.19 1.65-.85 3.93-1 5-.45 11.29 0 22.7 0 34v74c0 24.55.27 50.25-1 74 .18 3.84.18 6.11 0 10 .11 2.12.3 4.83 0 7v4c.56 4.12.21 9.05 0 13 1.04 21.56-.53 43.12 0 66 13.53-4.6 6.35-24.78 9.41-36.25 3.05-11.48 1.59-25.82 1.59-38.75 0-12.92-.38-26.62.01-38.99.38-12.37.42-19.72-1-33-1.43-13.29 3.63-28.55 1.77-40.79-1.86-12.23-.25-23.13-.58-35.97-.33-12.85-1.28-22.09-.87-34.58.41-12.49-3.96-30.03-1.33-42.67-1.37-1.18-2.93-.19-4 1Z"/><path fill="#4E4E4E" d="M508 28c-2.51 8.86 3.3 25.72 10.02 15.02 6.73-10.69.91-20.71-10.02-15.02Z"/><path fill="#4C4C4C" d="M384 29c-14.76-10.71-15.72 15.85-4 17 2.16-5.53 5.47-10.39 4-17Z"/><path fill="#242424" fill-opacity=".44" d="M396 38c-.15-4.36-.98-8.6-5-11 2.44 2.76 4.58 7.77 5 11Z"/><path fill="#696969" d="M374 28c-2.19 4.6 1.78 17.9 7.22 12.22 5.44-5.68.2-14.84-7.22-12.22Z"/><path fill="#838383" d="M516 42c2.68-5.09 4.35-16.25-5-14 .47 4.69-2.1 14.1 5 14Z"/><path fill="#4E4E4E" d="M580 50c12.05 1.24 4.73-9.24 9.25-15.75 4.51-6.52-9.18-9.66-12.92-3.92S582.73 43.69 580 50Z"/><path fill="#2E2E2E" fill-opacity=".32" d="M363 34c.34-.23 1 0 1 0 .27-1.58.21-3.64 1-5-2.2 2.05-2.86 1.9-2 5Z"/><path fill="#878787" d="M379 29c-4.62-1.46-6.15 9.7-1.68 11.66 4.47 1.96 5.6-10.42 1.68-11.66Z"/><path fill="#8B8B8B" d="M443 38s-.14.55 0 1c3.69 4.91 10.54-4.19 5.22-8.22-5.32-4.04-6.03 2.27-5.22 7.22Z"/><path d="M570 31c-.3 3.94-.83 7.82-1 12-.07 1.84-.83 3.82-1 5v30c0 3.75-.71 7.99-1 11v12c0 .5-.14 1.96 0 2 .11.03 0 2.77 0 3v14c0 1.31.13 2.7 0 4-.28 2.87-.15 4.21 0 7 .11 1.99 0 4.01 0 6v17c0 7.69-.33 16.07-1 23v129c0 4.33-.31 6.36-2 10 .22.04.65.91 1 1 .47.12 1.5 0 2 0h1c7.97-4.75 4.9-20.94 6-30 1.1-9.06 1.12-24.82 0-34s-.48-6.15 1.2-14.75c1.68-8.61-1.16-21.28-.2-30.25.96-8.97-1.83-8.75.01-17.99 1.83-9.24.4-22.21-.01-32.01-.41-9.8 2.66-8.7.99-16.99-1.66-8.29-.13-7.33-.2-15.78-.08-8.45-1.12-21.03.21-30.23s-1.73-10.22-1-17c.74-6.77 1.1-11.37 1-17-.1-5.63-.15-13.16-1-17s.35-14.92-3-15c-.67.6-1.33 1.36-2 2Z"/><path fill="#858585" d="M583 43c4.75-.65 7.29-13.48.01-12.99-7.28.49-.89 8.7-.01 12.99Z"/><path fill="#212121" fill-opacity=".46" d="M600 39c1.73-2.37.03-6.99-2-9 1.62 2.2 1.57 6.39 2 9Z"/><path fill="#282828" fill-opacity=".45" d="M430 35c-.06 1.66 0 3.34 0 5 .05.15 1 0 1 0 .18-3.22.93-5.86 1-9-.49.91-1.84 3.05-2 4Z"/><path fill="#282828" fill-opacity=".41" d="M568 41c.03.5 0 1.5 0 2 .34.23 1 0 1 0 .17-4.18.7-8.06 1-12 0 0-.96-.13-1 0-.91 3.15-1.21 6.6-1 10Z"/><path fill="#1F1F1F" fill-opacity=".7" d="M363 36c-1.19 5.14-1 10.52-1 16 .51-5.23 1.03-12.36 2-18 0 0-.66-.23-1 0 .13.46.11 1.53 0 2Z"/><path fill="#232323" fill-opacity=".3" d="M531 52c.17.77.93 1.68 1 3 1.12-5.97-.26-14.86-2-21 1.01 5.91 1 11.81 1 18Z"/><path fill="#292929" fill-opacity=".08" d="M361 123v-12c0-9.32-.26-18.68 0-28 .07-2.34-.44-4.31 1-6v-1c-1.84-2.09-.15-3.24 0-5V52c0-5.48-.19-10.86 1-16-5.83 4.67-1.59 18.78-3 27-1.41 8.22.73 23.06 0 32-.73 8.94-.06 20.47 1 28Z"/><path fill="#222" fill-opacity=".64" d="M430 55c.02-.1 1 0 1 0 0-4.97-.27-10.03 0-15 0 0-.95.15-1 0v15Z"/><path fill="#212121" fill-opacity=".53" d="M464 49c0-3.14-.7-6.52-1-9 .06 3.06.77 6.6 1 9Z"/><path fill="#212121" fill-opacity=".42" d="M600 46c.02.1 1 0 1 0-.06-2.25.38-4.38-1-6v6Z"/><path fill="#282828" fill-opacity=".41" d="M499 46c.15-1.07.81-3.35 1-5-.33 1.43-.92 2.96-1 5Z"/><path fill="#272727" fill-opacity=".05" d="M567 101V67c0-3.1.77-6.64 1-9V43c0-.5.03-1.5 0-2-1.29 8.86-3.51 21.94-2 32 1.51 10.06-4.36 20.51 1 28Z"/><path fill="#252525" fill-opacity=".28" d="M396 49c.02-.1 1 0 1 0-.05-2.11-.83-4.53-1-6v6Z"/><path fill="#212121" fill-opacity=".68" d="M568 48c.17-1.18.93-3.16 1-5 0 0-.66.23-1 0v5Z"/><path fill="#1A1A1A" fill-opacity=".73" d="M601 58c0-3.99.11-8.01 0-12 0 0-.98.1-1 0 0 4.08.67 8.6 1 12Z"/><path fill="#202020" fill-opacity=".47" d="M396 55c.02.1 1 0 1 0 0-2 .04-4 0-6 0 0-.98-.1-1 0v6Z"/><path fill="#1F1F1F" fill-opacity=".6" d="M531 58c.02.1 1 0 1 0-.2-.91.05-2.06 0-3-.07-1.32-.83-2.23-1-3 0 2-.07 4.01 0 6Z"/><path fill="#1D1D1D" fill-opacity=".64" d="M396 66c0-.04 1 0 1 0V55s-.98.1-1 0v11Z"/><path fill="#1A1A1A" fill-opacity=".84" d="M430 61v5c.29-3.01 1-7.25 1-11 0 0-.98-.1-1 0v6Z"/><path fill="#181818" fill-opacity=".81" d="M532 63c0-1.39.45-3.69 0-5 0 0-.98.1-1 0 .06 1.82.83 3.79 1 5Z"/><path fill="#232323" fill-opacity=".33" d="M532 63v8c0-.04 1 0 1 0 0-4.52-.15-9.12-1-13 .45 1.31 0 3.61 0 5Z"/><path fill="#292929" fill-opacity=".29" d="M567 67c0-.04 1 0 1 0v-9c-.23 2.36-1 5.9-1 9Z"/><path fill="#272727" fill-opacity=".36" d="M429 83c.14-1.13.83-1.36 1-2V61c-.62 6.43-1.11 15.9-1 22Z"/><path fill="#171717" fill-opacity=".81" d="M397 83V66s-1-.04-1 0c0 5.73.51 11.96 1 17Z"/><path fill="#222" fill-opacity=".58" d="M567 78c0-.04 1 0 1 0V67s-1-.04-1 0v11Z"/><path fill="#242424" fill-opacity=".39" d="M362 76v-5c-.15 1.76-1.84 2.91 0 5Z"/><path fill="#212121" fill-opacity=".49" d="M532 89c0-.04 1 0 1 0V71s-1-.04-1 0v18Z"/><path fill="#252525" fill-opacity=".07" d="M601 72v6c.23 2.42 1 5.91 1 9v43c.57-5.89 1-13.38 1-20 0-6.62-.85-14.55 0-21 .85-6.45-1.43-14.79-2-17Z"/><path fill="#242424" fill-opacity=".44" d="M361 83c0-.04 1 0 1 0v-6c-1.44 1.69-.93 3.66-1 6Z"/><path fill="#1D1D1D" fill-opacity=".76" d="M567 89c.29-3.01 1-7.25 1-11 0 0-1-.04-1 0v11Z"/><path fill="#232323" fill-opacity=".31" d="M601 87c0-.04 1 0 1 0 0-3.09-.77-6.58-1-9v9Z"/><path fill="#282828" fill-opacity=".16" d="M464 92c.17 1.47.94 3.9 1 6 .16 5.66 0 11.34 0 17v8c0-.04 1 0 1 0 0-7.39-.68-15.7 0-23 .68-7.3-1.08-15.01-2-20-.2 3.98 0 8.02 0 12Z"/><path fill="#292929" fill-opacity=".31" d="M498 103c0-.04 1 0 1 0V80c-.67 6.93-1 15.31-1 23Z"/><path fill="#202020" fill-opacity=".66" d="M429 83c-1.27 10.31 0 21.6 0 32 0-.04 1 0 1 0V81c-.17.64-.86.87-1 2Z"/><path fill="#1C1C1C" fill-opacity=".73" d="M361 111c.83-8.56 1-18.67 1-28 0 0-1-.04-1 0-.26 9.32 0 18.68 0 28Z"/><path fill="#1F1F1F" fill-opacity=".53" d="M601 109c0-.04 1 0 1 0V87s-1-.04-1 0v22Z"/><path fill="#1B1B1B" fill-opacity=".68" d="M533 239v-1c0-5.33-.01-10.67 0-16v-1c0-1.65-.13-3.36 0-5 .35-4.39.35-7.64 0-12-.13-1.64 0-3.35 0-5v-12c0-1.65-.13-3.36 0-5 2.28-28.36 0-61.07 0-93 0 0-1-.04-1 0 0 49.25-4.14 101.71 1 150Z"/><path fill="#242424" fill-opacity=".45" d="M464 98c.02.1 1 0 1 0-.06-2.1-.83-4.53-1-6v6Z"/><path fill="#1D1D1D" fill-opacity=".64" d="M464 115c0-.04 1 0 1 0 0-5.66.16-11.34 0-17 0 0-.98.1-1 0v17Z"/><path fill="#222" fill-opacity=".55" d="M498 149v5c.05.15 1 0 1 0v-51s-1-.04-1 0v46Z"/><path fill="#323232" fill-opacity=".13" d="M567 106c0-.23.11-2.97 0-3-2.8 2.59-1.08.67 0 3Z"/><path fill="#313131" fill-opacity=".15" d="M567 112v-3c-1.1 2.39-2.78.43 0 3Z"/><path fill="#1B1B1B" fill-opacity=".71" d="M601 126c0-.04 1 0 1 0v-17s-1-.04-1 0v17Z"/><path fill="#2F2F2F" fill-opacity=".2" d="M567 118v-4c-2.06 2.15-2.1 1.8 0 4Z"/><path fill="#181818" fill-opacity=".84" d="M429 140v4c0 .5-.24 1.83 0 2 .22.16 0 2.67 0 3v12c0 .5-.22 1.63 0 2 .3.52 0 2.39 0 3v8c0 1.29.18 2.73 0 4-.13.94-.87 1.51-1 2-.38 1.45.37 2.8 1 4 0 0 .18.92 0 1 3-21.98 1-47.1 1-70 0 0-1-.04-1 0v25Z"/><path fill="#151515" fill-opacity=".87" d="M465 158v-43s-1-.04-1 0c0 14.27-.31 29.46 1 43Z"/><path fill="#2E2E2E" fill-opacity=".22" d="M567 124c.13-1.3 0-2.69 0-4-3.07 2.5-.28.92 0 4Z"/><path fill="#252525" fill-opacity=".28" d="M465 158v22c0 7.19-.01 13.85 0 21s-.02 14.9 0 22-.05 14.02 0 21-.11 15.25 0 22-.25 14.81 0 21c.25 6.19-.53 16.92 0 22 .53 5.08-2.13 18.76 2 19-.04 0 0-1 0-1-4.91-6.64.61-20.37-1-29-1.61-8.63.72-19.76 0-29-.72-9.24.32-19.44 0-29-.32-9.56.15-20.33 0-30-.15-9.67.06-19.33 0-29-.06-9.67.02-19.33 0-29-.02-9.67 0-19.33 0-29 0 0-1-.04-1 0v35Z"/><path fill="#131313" fill-opacity=".89" d="M601 260c0-.04 1 0 1 0V126s-1-.04-1 0v134Z"/><path fill="#2C2C2C" fill-opacity=".19" d="M566 138c.09-.35.91-.75 1-1 0-1.99.11-4.01 0-6-.48 2.94-2.73 3.41-1 7Z"/><path fill="#232323" fill-opacity=".49" d="M566 138c-.12.47 0 1.5 0 2v14c0-.04 1 0 1 0v-17c-.09.25-.91.65-1 1Z"/><path fill="#333" fill-opacity=".09" d="M429 144v-4c-.34 2.21-3.36 1.17 0 4Z"/><path fill="#292929" fill-opacity=".09" d="M534 282v35c0 1-.03 2 0 3 .09.5 1.83 1.86 1 3 11.28-.04 18.53-4.78 29-7 1.69-3.64 2-5.67 2-10-1.15-11.91-1-25.38-1-38 0-9.66.14-20.11 1-29v-99c-2.25 12.89-.45 30.55-1 44s-.45 19.07-1 33 .12 30.69 0 45c-.12 14.31-.26 29.65 0 44 .26 14.34-18.41 10.93-28 16 .48-13.91-.76-27.17-2-40Z"/><path fill="#393939" fill-opacity=".04" d="M361 152v-9c-.49 3.07-3.51 6.53 0 9Z"/><path fill="#323232" fill-opacity=".09" d="M429 149c0-.33.22-2.84 0-3-3.26.4-1.79 1.14 0 3Z"/><path fill="#2A2A2A" fill-opacity=".2" d="M493 327c.35.09.73.87 1 1 1.33 0 2.67.05 4 0-.53-22.88 1.04-44.44 0-66-.21-4.31 0-8.68 0-13v-4c0-2.32-.11-4.68 0-7 .18-3.89.18-6.16 0-10-1.18-24.54 0-49.43 0-74v-5s-1-.04-1 0v177c-1.4-.91-3.27.9-4 1Z"/><path fill="#323232" fill-opacity=".1" d="M429 155v-4c-2.46 2.07-2.39 1.99 0 4Z"/><path fill="#2D2D2D" fill-opacity=".05" d="M361 221v-68c-5.09 1.36-.92 18.19-2 24-1.08 5.81.59 18.44 0 25-.59 6.56.32 15.01 2 19Z"/><path fill="#1E1E1E" fill-opacity=".72" d="M498 228c1.27-23.75 1-49.45 1-74 0 0-.95.15-1 0 0 24.57-1.18 49.46 0 74Z"/><path fill="#1D1D1D" fill-opacity=".75" d="M566 177c.67-6.93 1-15.31 1-23 0 0-1-.04-1 0v23Z"/><path fill="#313131" fill-opacity=".11" d="M429 161v-4c-2.46 2.07-2.39 1.99 0 4Z"/><path fill="#1F1F1F" fill-opacity=".06" d="M602 235c1.19-6.82 2.4-17.2 1.93-25.92-.47-8.73-.36-17.37.06-26.07.42-8.71-.73-18.45-1.99-26.01v78Z"/><path fill="#313131" fill-opacity=".13" d="M429 166c0-.61.3-2.48 0-3-2.25 2.08-2.2.97 0 3Z"/><path fill="#303030" fill-opacity=".12" d="M429 172v-4c-2.46 2.07-2.39 1.99 0 4ZM429 178c.18-1.27 0-2.71 0-4-3.13 2.64-1.1 1.65 0 4Z"/><path fill="#383838" fill-opacity=".05" d="M429 184c-.63-1.2-1.38-2.55-1-4-1.27 1.96-1.54 3.24 1 4Z"/><path fill="#262626" fill-opacity=".21" d="M533 187c1.87-2.13.06-3.17 0-5-.13 1.64 0 3.35 0 5Z"/><path fill="#303030" fill-opacity=".13" d="M429 189c0-1.29-.17-2.72 0-4-3.33 1.43-1.78 2.5 0 4Z"/><path fill="#292929" fill-opacity=".21" d="M533 198c1.62-2.19 1.66-7.76 0-10v10Z"/><path fill="#303030" fill-opacity=".14" d="M429 195v-4c-2.46 2.07-2.39 1.99 0 4ZM429 201v-4c-1.87 1.57-3.24 2.61 0 4Z"/><path fill="#242424" fill-opacity=".22" d="M533 204c.06-1.71 1.85-2.89 0-5 0 1.65-.13 3.36 0 5Z"/><path fill="#303030" fill-opacity=".15" d="M429 206v-4c-3.33 1.43-1.78 2.5 0 4ZM429 212v-4c-2.46 2.07-2.39 1.99 0 4ZM429 218v-4c-1.87 1.57-3.23 2.61 0 4Z"/><path fill="#242424" fill-opacity=".26" d="M533 221c1.87-2.13.06-3.17 0-5-.13 1.64 0 3.35 0 5Z"/><path fill="#2F2F2F" fill-opacity=".16" d="M429 224v-5c-2.65.97-2.75 3.55 0 5Z"/><path fill="#232323" fill-opacity=".28" d="M533 238c1.94-2.63 1.99-13.31 0-16-.01 5.33 0 10.67 0 16Z"/><path fill="#262626" fill-opacity=".06" d="M361 283v-59c-2.96 8.56-2.23 19.54-1 29s-2.59 21.56 1 30Z"/><path fill="#313131" fill-opacity=".16" d="M429 229v-4c-3.33 1.43-1.78 2.5 0 4Z"/><path fill="#2D2D2D" fill-opacity=".21" d="M429 235v-4c-1.69 1.37-2.52 1.9 0 4Z"/><path fill="#2B2B2B" fill-opacity=".2" d="M429 241c.13-1.64 0-3.35 0-5-3.25 2.62-.21 2.98 0 5Z"/><path fill="#1C1C1C" fill-opacity=".78" d="M498 245c.3-2.17.11-4.88 0-7-.11 2.32 0 4.68 0 7Z"/><path fill="#232323" fill-opacity=".32" d="M533 244c1.36-1.54 1.38-3.43 0-5 .17 1.62 0 3.37 0 5Z"/><path fill="#272727" fill-opacity=".29" d="M565 268c0-.04 1 0 1 0v-29c-.86 8.89-1 19.34-1 29Z"/><path fill="#242424" fill-opacity=".34" d="M533 255c1.62-2.19 1.66-7.76 0-10v10Z"/><path fill="#191919" fill-opacity=".82" d="M498 262c.21-3.95.56-8.88 0-13 0 4.32-.21 8.69 0 13Z"/><path fill="#262626" fill-opacity=".05" d="M602 260v28c1.04-10.73 1.46-25.32 0-35v7Z"/><path fill="#232323" fill-opacity=".38" d="M533 261c1.36-1.54 1.38-3.43 0-5v5Z"/><path fill="#2D2D2D" fill-opacity=".23" d="M429 263c0-1.3.15-2.71 0-4-.11 1.61-2.41.75 0 4Z"/><path fill="#1A1A1A" fill-opacity=".75" d="M601 283c0-.04 1 0 1 0v-23s-1-.04-1 0v23Z"/><path fill="#222" fill-opacity=".49" d="M533 285c0-.04 1 0 1 0v-3c0-5.13 1.9-16.08-1-20-.01 7.67 0 15.33 0 23Z"/><path fill="#1A1A1A" fill-opacity=".75" d="M361 280c.27-.25 1 0 1 0 0-5.73-.51-11.96-1-17v17Z"/><path fill="#2C2C2C" fill-opacity=".24" d="M429 269v-4c-2.06 2.15-2.1 1.8 0 4Z"/><path fill="#242424" fill-opacity=".53" d="M566 306v-38s-1-.04-1 0c0 12.62-.15 26.09 1 38Z"/><path fill="#2F2F2F" fill-opacity=".21" d="M429 275v-4c-1.8 1.88-3 2.8 0 4Z"/><path fill="#2D2D2D" fill-opacity=".17" d="M429 286v-10c-3.75 1-1.97 8.99 0 10Z"/><path fill="#1F1F1F" fill-opacity=".53" d="M361 283c0 .5-.12 1.53 0 2 .09.35.91.75 1 1v-6s-.73-.25-1 0v3Z"/><path fill="#1F1F1F" fill-opacity=".54" d="M601 296c0-.04 1 0 1 0v-13s-1-.04-1 0v13Z"/><path fill="#2D2D2D" fill-opacity=".2" d="M362 292v-6c-.09-.25-.91-.65-1-1-.68 2.02-2.24 8.18 1 7Z"/><path fill="#1E1E1E" fill-opacity=".69" d="M533 300c0-.04 1 0 1 0v-15s-1-.04-1 0v15Z"/><path fill="#313131" fill-opacity=".17" d="M397 307v9c10.97 1.64 21.02 6.58 32 8v-9c-.13-1.5-.13-3.56 0-5v-23c-4.6 8.59-.32 24.16-2 35-9.84-2.15-19.26-5.48-29-8 .97-2.3-.88-5.41-1-7Z"/><path fill="#222" fill-opacity=".38" d="M362 298c.13-1.64 0-3.35 0-5-1.87 2.13-.06 3.17 0 5Z"/><path fill="#414141" d="M442 309c1.42-2.22 5.48-6.39 6-1 .05.5 0 1 0 1 3.37 4.55-.93 9.57-1.26 13.74-.33 4.18.99 7.58-3.74 10.26 10.69-1.38 16.26 9.46 27.07 7.07 10.81-2.38 21.18-1.78 31.6-7.4 10.42-5.62 6.9-22.9 10.33-32.67 10.46 5.03 5.76 23.55 18 29 12.92-1.78 25.9-5.46 37-12-.5 0-1.53.12-2 0-4.01 2.05-11.68 5.33-16.02 5.98-4.35.64-14.49 7.51-16.98 2.02 0 0-.6.2-1 0-14.01-.56-6.69-23.98-19-30-7.62 9.24 1.88 32.45-12 37-13.87 4.56-21.4 1.75-35.98 1.98-14.57.23-13.26-20.95-17.02-30.98-2.77.09-4.49 3.67-5 6Z"/><path fill="#242424" fill-opacity=".29" d="M601 305c.23-2.36 1-5.9 1-9 0 0-1-.04-1 0v9Z"/><path fill="#595959" d="M448 309c0 3.81 1.39 10.6-4 11-1.7-3.73-1.84-17.27 4-12-.52-5.39-4.58-1.22-6 1v1c0 5.29-1.12 10.46-1 15-4.41.49-9.6 8.31-2 6 1.74 3.6-4.31 2.09-2 5-4.52-.26-11.62-.44-15.68 1.32-4.06 1.76-14.86.17-7.32-2.32-7.35-.16-9.62-2.57-17-1 4.67 7.2 11.59 12.51 20 14-2.45-.97-5.48-3.62-7-6 16.88-1 30.8-2.8 46.02 2.98 15.23 5.77 31.88-.52 45.98-2.98-2.49-4.77 7.76-8.5 8.77-15.23 1.01-6.73-.43-16.3 4.23-22.77 5.21 7.88 3.47 18.11 5 27 4.6-1.08 5.78 5.68 11 4 1.67-5.44 14.03-1.79 20.02-4.98 6-3.18 9.02-9.86 16.06-10.94 7.03-1.09 9.81-8.33 15.92-11.08 1.08 21.86-21.48 28.52-38 33s-31.48 16.55-51.67 18.33c-20.19 1.78-43.13 1.2-62.33-6.33 16.72 6.8 38.58 11.67 57 9 18.43-2.66 37.97-8.99 54.02-14.98 16.06-5.98 32.16-9.33 40.98-26.02 1.5-4.16 4.33-20.28-3.75-18.75-8.08 1.53-1.48 15.08-11.25 14.75h-1c-11.1 6.54-24.08 10.22-37 12-12.24-5.45-7.54-23.97-18-29-3.43 9.77.09 27.05-10.33 32.67-10.42 5.62-20.79 5.02-31.6 7.4-10.81 2.39-16.38-8.45-27.07-7.07 4.73-2.68 3.41-6.08 3.74-10.26.33-4.17 4.63-9.19 1.26-13.74Z"/><path fill="#181818" fill-opacity=".85" d="M534 317v-17s-1-.04-1 0c0 5.76-.12 11.91 1 17Z"/><path fill="gray" d="M417 348c4.98 1.27 9.09 3.69 14 5 19.2 7.53 42.14 8.11 62.33 6.33 20.19-1.78 35.15-13.85 51.67-18.33 16.52-4.48 39.08-11.14 38-33-6.11 2.75-8.89 9.99-15.92 11.08-7.04 1.08-10.06 7.76-16.06 10.94-5.99 3.19-18.35-.46-20.02 4.98-5.22 1.68-6.4-5.08-11-4-1.53-8.89.21-19.12-5-27-4.66 6.47-3.22 16.04-4.23 22.77-1.01 6.73-11.26 10.46-8.77 15.23-14.1 2.46-30.75 8.75-45.98 2.98C440.8 339.2 426.88 341 410 342c1.52 2.38 4.55 5.03 7 6ZM448 309s.05-.5 0-1c-5.84-5.27-5.7 8.27-4 12 5.39-.4 4-7.19 4-11Z"/><path fill="#282828" fill-opacity=".36" d="M429 315v-5c-.13 1.44-.13 3.5 0 5Z"/><path fill="#414141" d="M384 317c.75 2.12.82 4.68 1 7-1.88-.68-3.32-2.02-5-3 3.91 10.72 17.62 15.51 25.92 24.08 8.31 8.56 25.25 7.44 36 13 10.76 5.55 27.97 8.49 40.05 5.9 12.08-2.59 28.12-2.51 39.8-7.21 11.68-4.7 24.8-7.82 36.15-11.85 11.34-4.03 21.15-13.02 25.08-23.92-8.82 16.69-24.92 20.04-40.98 26.02-16.05 5.99-35.59 12.32-54.02 14.98-18.42 2.67-40.28-2.2-57-9-4.91-1.31-9.02-3.73-14-5-8.41-1.49-15.33-6.8-20-14 7.38-1.57 9.65.84 17 1-7.54 2.49 3.26 4.08 7.32 2.32 4.06-1.76 11.16-1.58 15.68-1.32-2.31-2.91 3.74-1.4 2-5-7.6 2.31-2.41-5.51 2-6-.12-4.54 1-9.71 1-15-.67 6.66-6.23 22.88-15.78 21.78-9.54-1.1-19.51-4.56-26.22-7.78-3.79 5.52-8.32-6.03-14-3-.6-1.45-1.26-2.87-2-4Z"/><path fill="#777" d="M380 321c1.68.98 3.12 2.32 5 3-.18-2.32-.25-4.88-1-7-.98-2.06-2.2-5.11-5-5-.17 3.11-.02 6.21 1 9Z"/><path fill="#272727" fill-opacity=".97" d="M534 320c.06 2.17.67 4.87-2 5 2.49 5.49 12.63-1.38 16.98-2.02 4.34-.65 12.01-3.93 16.02-5.98-.35-.09-.78-.96-1-1-10.47 2.22-17.72 6.96-29 7 .83-1.14-.91-2.5-1-3Z"/><path fill="#1B1B1B" fill-opacity=".68" d="M363 331c0-4.74-.61-9.94-1-14 0 4.75.57 9.92 1 14Z"/><path fill="#1D1D1D" fill-opacity=".64" d="M600 322c.02-.1 1 0 1 0 .03-1.67 0-3.33 0-5-.17 1.19-.94 3.14-1 5Z"/><path fill="#232323" fill-opacity=".32" d="M600 328c.33-1.66.96-3.68 1-6 0 0-.98-.1-1 0-.07 1.99 0 4 0 6Z"/><path fill="#333" fill-opacity=".16" d="M467 327s-.04 1 0 1c5.56.5 11.41 0 17 0 1.82-.18 4.47-1.16 7-1-5.71-2.43-17.77-1.8-24 0Z"/><path fill="#2D2D2D" fill-opacity=".46" d="M484 328h10c-.27-.13-.65-.91-1-1-.47-.12-1.5.03-2 0-2.53-.16-5.18.82-7 1Z"/><path fill="#1E1E1E" fill-opacity=".58" d="M599 336c.04-.13 1 0 1 0 .11-1.65 0-3.35 0-5-.21 1.2-.79 3.24-1 5Z"/><path fill="#1F1F1F" fill-opacity=".48" d="M366 349c-.87-4.16-2.45-9.27-3-13 .24 4.73 1.57 8.96 3 13Z"/><path fill="#222" fill-opacity=".4" d="M597 346c.89-2.9 2.74-6.19 3-10 0 0-.96-.13-1 0-.41 3.47-1.5 6.58-2 10Z"/><path fill="#1D1D1D" fill-opacity=".44" d="M370 360c-.77-1.93-2.48-4.33-3-6 .58 2.77 1.84 3.9 3 6Z"/><path fill="#202020" fill-opacity=".47" d="M590 365c1.41-2.29 2.88-3.61 4-7-1.06 2.18-2.88 4.5-4 7Z"/><path fill="#212121" fill-opacity=".45" d="M583 376c1.96-2.1 3.53-3.37 5-6-1.36 1.95-3.51 3.82-5 6Z"/><path fill="#242424" fill-opacity=".33" d="M381 380c-.23-.16 0-1 0-1-.73-3.31-3.02-4.57-5-7 1.5 2.43 4.15 8.66 5 8Z"/><path fill="#202020" fill-opacity=".53" d="M577 383c1.9-1.34 3.74-2.93 5-5-1.55 1.66-3.89 2.74-5 5Z"/><path fill="#1B1B1B" fill-opacity=".59" d="M381 380c5.11 3.57 9.06 9.1 14 13-4.19-3.87-8.51-11.71-14-14 0 0-.23.84 0 1Z"/><path fill="#252525" fill-opacity=".24" d="M572 388c-1.41 1.41-2.59 3.7-4 5 2.89-2.19 7.34-5.61 9-9-1.67 1.16-3.41 2.64-5 4Z"/><path fill="#1C1C1C" fill-opacity=".67" d="M565 395c1.05-.38 2.09-1.31 3-2 1.41-1.3 2.59-3.59 4-5-2.47 2.11-5.07 4.24-7 7Z"/><path fill="#212121" fill-opacity=".45" d="M555 402c3.7-1.98 6.34-3.2 9-7-3.19 1.56-6.19 5.05-9 7Z"/><path fill="#1E1E1E" fill-opacity=".46" d="M424 424c0-.04 1 0 1 0-.45-4.63.55-7.43-2-11 1.44 3.05 1 7.58 1 11Z"/><path fill="#1D1D1D" fill-opacity=".57" d="M526 422c.02-.8.64-4.49 1-5-2.59 2.34-1.05 2.48-1 5Z"/><path fill="#212121" fill-opacity=".41" d="M526 433c0-.04 1 0 1 0 0-3.44-1.06-8.34-1-11 .07 3.66 0 7.34 0 11Z"/><path fill="#252525" fill-opacity=".24" d="M425 443c0-6.24.56-12.78 0-19 0 0-1-.04-1 0 0 4.94-1.79 15.23 1 19Z"/><path fill="#171717" fill-opacity=".87" d="M425 443v31c0 3.62.33 7.4 0 11 1.85-19.07 1.85-41.86 0-61 .56 6.22 0 12.76 0 19Z"/><path fill="#1C1C1C" fill-opacity=".64" d="M527 441v-8s-1-.04-1 0c0 2.77.8 5.9 1 8Z"/><path fill="#242424" fill-opacity=".26" d="M527 441v12c.02-.1 1 0 1 0 0-5.76.12-11.91-1-17v5Z"/><path fill="#2B2B2B" fill-opacity=".13" d="M423 521c.34-.23 1 0 1 0v-36c0-3.75.71-7.99 1-11v-30c-4.98 2.19.6 15.37-1.07 21.92-1.67 6.56-.71 16.4-.93 25.08-.22 8.68 0 20.99 0 30Z"/><path fill="#1F1F1F" fill-opacity=".49" d="M527 459c.02.1 1 0 1 0v-6s-.98-.1-1 0v6Z"/><path fill="#1C1C1C" fill-opacity=".67" d="M527 466c.01.07 1 0 1 0-.25-2.27 0-4.72 0-7 0 0-.98.1-1 0v7Z"/><path fill="#161616" fill-opacity=".83" d="M528 474v-2c0-1.86.38-4.18 0-6 0 0-.99.07-1 0 0 2.77.8 5.9 1 8Z"/><path fill="#242424" fill-opacity=".24" d="M528 472c.34-.23 1 0 1 0-.06-2.09-.84-4.54-1-6 .38 1.82 0 4.14 0 6Z"/><path fill="#202020" fill-opacity=".45" d="M528 474v9c0-.04 1 0 1 0 0-3.66.1-7.34 0-11 0 0-.66-.23-1 0v2Z"/><path fill="#252525" fill-opacity=".3" d="M424 485c0-.04 1 0 1 0 .33-3.6 0-7.38 0-11-.29 3.01-1 7.25-1 11Z"/><path fill="#1B1B1B" fill-opacity=".69" d="M529 491v-8s-1-.04-1 0c0 2.77.8 5.9 1 8Z"/><path fill="#212121" fill-opacity=".49" d="M424 500c0-.04 1 0 1 0 0-4.93.44-10.09 0-15 0 0-1-.04-1 0v15Z"/><path fill="#232323" fill-opacity=".25" d="M529 491v6c.05-.15 1 0 1 0 0-3.49-.61-7.16-1-10v4Z"/><path fill="#202020" fill-opacity=".43" d="M529 502c.05.15 1 0 1 0v-5s-.95-.15-1 0v5Z"/><path fill="#1C1C1C" fill-opacity=".71" d="M424 517c.68-5.03 1-11.24 1-17 0 0-1-.04-1 0v17Z"/><path fill="#1D1D1D" fill-opacity=".6" d="M529 509c.01.07 1 0 1 0-.22-2.29 0-4.7 0-7 0 0-.95.15-1 0v7Z"/><path fill="#181818" fill-opacity=".78" d="M530 517c0-2.63.24-5.38 0-8 0 0-.99.07-1 0 0 2.84.7 5.8 1 8Z"/><path fill="#232323" fill-opacity=".21" d="M530 517v4c.13.22 1 0 1 0 0-4.08-.68-8.6-1-12 .24 2.62 0 5.37 0 8Z"/><path fill="#232323" fill-opacity=".32" d="M423 523v14c0-.04 1 0 1 0v-16s-.66-.23-1 0v2Z"/><path fill="#1E1E1E" fill-opacity=".51" d="M530 530c0-.04 1 0 1 0v-9s-.87.22-1 0v9Z"/><path fill="#262626" fill-opacity=".12" d="M422 561c0-.04 1 0 1 0v-38c-4.05 9.53-1 27.11-1 38Z"/><path fill="#171717" fill-opacity=".78" d="M531 541v-11s-1-.04-1 0c0 3.75.7 7.92 1 11Z"/><path fill="#212121" fill-opacity=".29" d="M531 541v6c.02.1 1 0 1 0 0-4.1-.64-8.57-1-12v6Z"/><path fill="#202020" fill-opacity=".55" d="M423 552c0-.04 1 0 1 0v-15s-1-.04-1 0v15Z"/><path fill="#1B1B1B" fill-opacity=".63" d="M532 560v-1c1.51-2.71 0-8.48 0-12 0 0-.98.1-1 0 0 4.41.64 9.27 1 13Z"/><path fill="#1B1B1B" fill-opacity=".73" d="M423 560c1.54-2.09 1-5.19 1-8 0 0-1-.04-1 0v8Z"/><path fill="#242424" fill-opacity=".27" d="M532 560v7c.01.07 1 0 1 0 0-2.44.73-6.34-1-8v1Z"/><path fill="#232323" fill-opacity=".34" d="M422 580c.01-.07 1 0 1 0v-19s-1-.04-1 0v19Z"/><path fill="#1B1B1B" fill-opacity=".64" d="M533 577v-10s-.99.07-1 0c0 3.15-.76 7.62 1 10Z"/><path fill="#222" fill-opacity=".17" d="M533 577v1c.25.25 1 0 1 0 0-3.27.13-6.34-1-9v8Z"/><path fill="#212121" fill-opacity=".33" d="M533 585c.01.07 1 0 1 0v-7s-.75.25-1 0v7Z"/><path fill="#202020" fill-opacity=".51" d="M422 587c.27-.25 1 0 1 0v-7s-.99-.07-1 0v7Z"/><path fill="#1C1C1C" fill-opacity=".58" d="M534 597v-12s-.99.07-1 0c0 4.08.67 8.6 1 12Z"/><path fill="#1C1C1C" fill-opacity=".67" d="M422 590v5c.05.15 1 0 1 0v-8s-.73-.25-1 0v3Z"/><path fill="#242424" fill-opacity=".26" d="M421 612c.01-.07 1 0 1 0 .5-5.56 0-11.41 0-17v-5c-1.43 6.54-1 14.69-1 22Z"/><path fill="#232323" fill-opacity=".27" d="M534 597v9c.01-.07 1 0 1 0 0-4.41-.64-9.27-1-13v4Z"/><path fill="#171717" fill-opacity=".84" d="M422 612c.48-4.97 1-11.28 1-17 0 0-.95.15-1 0 0 5.59.5 11.44 0 17Z"/><path fill="#1D1D1D" fill-opacity=".53" d="M534 613c.01.07 1 0 1 0v-7s-.99-.07-1 0v7Z"/><path fill="#212121" fill-opacity=".48" d="M421 619v2c.34.23 1 0 1 0 0-2.96.27-6.06 0-9 0 0-.99-.07-1 0v7Z"/><path fill="#222" fill-opacity=".26" d="M535 613c0 4.27-.38 8.75 0 13 .05-.15 1 0 1 0 0-4.74-.61-9.94-1-14v1Z"/><path fill="#151515" fill-opacity=".82" d="M535 626c-.38-4.25 0-8.73 0-13 0 0-.99.07-1 0 0 4.43.6 9.25 1 13Z"/><path fill="#262626" fill-opacity=".12" d="M420 639c0-.04 1 0 1 0v-20c-.57 5.95-1 13.3-1 20Z"/><path fill="#1C1C1C" fill-opacity=".71" d="M421 639v4c.64-6.6 1-14.64 1-22 0 0-.66.23-1 0v18Z"/><path fill="#1E1E1E" fill-opacity=".49" d="M535 631c.05.15 1 0 1 0v-5s-.95-.15-1 0c.17 1.62 0 3.37 0 5Z"/><path fill="#1B1B1B" fill-opacity=".65" d="M536 639v-8s-.95.15-1 0c0 2.73-.52 5.95 1 8Z"/><path fill="#232323" fill-opacity=".33" d="M420 652c.02-.1 1 0 1 0v-13s-1-.04-1 0v13Z"/><path fill="#212121" fill-opacity=".32" d="M536 648c.01-.07 1 0 1 0 0-2.73.52-5.95-1-8v8Z"/><path fill="#1D1D1D" fill-opacity=".55" d="M536 655c.01.07 1 0 1 0v-7s-.99-.07-1 0v7Z"/><path fill="#1F1F1F" fill-opacity=".55" d="M420 658v9c.34-.23 1 0 1 0v-15s-.98-.1-1 0v6Z"/><path fill="#171717" fill-opacity=".78" d="M537 665v-10s-.99.07-1 0c0 3.49.61 7.16 1 10Z"/><path fill="#393939" fill-opacity=".03" d="M420 663v-5c-.14 1.57-.21 3.33 0 5Z"/><path fill="#212121" fill-opacity=".25" d="M537 665v4c.13.22 1 0 1 0 0-2.77-.8-5.9-1-8v4Z"/><path fill="#1A1A1A" fill-opacity=".76" d="M420 669v8c.26-2.68 1-6.58 1-10 0 0-.66-.23-1 0v2Z"/><path fill="#242424" fill-opacity=".25" d="M419 691c0-.04 1 0 1 0v-22c-2.44 5.75-1 15.28-1 22Z"/><path fill="#1E1E1E" fill-opacity=".48" d="M537 677c.01-1.71 1-5.47 1-8 0 0-.87.22-1 0 0 2.63-.25 5.39 0 8Z"/><path fill="#1F1F1F" fill-opacity=".36" d="M538 691c.05.15 1 0 1 0-.06-1.82-.83-3.79-1-5v5Z"/><path fill="#202020" fill-opacity=".53" d="M419 704c.13-.22 1 0 1 0v-13s-1-.04-1 0v13Z"/><path fill="#1C1C1C" fill-opacity=".57" d="M538 698c.01.07 1 0 1 0v-1c0-2 .07-4 0-6 0 0-.95.15-1 0 0 2.33-.06 4.67 0 7Z"/><path fill="#202020" fill-opacity=".21" d="M539 698v10c.13.22 1 0 1 0 0-3.75-.7-7.92-1-11v1Z"/><path fill="#161616" fill-opacity=".78" d="M539 704v-6s-.99.07-1 0c.05 2.14.8 4.48 1 6Z"/><path fill="#1C1C1C" fill-opacity=".7" d="M419 708v7c.29-3.01 1-7.25 1-11 0 0-.87-.22-1 0v4Z"/><path fill="#252525" fill-opacity=".19" d="M418 731c.24-.25 1 0 1 0v-23c-.37 2.73-2.07 8.67-1 12 1.07 3.33-1.92 9.16 0 11Z"/><path fill="#1E1E1E" fill-opacity=".51" d="M539 719c0-.04 1 0 1 0-.35-3.59 0-7.39 0-11 0 0-.87.22-1 0v11Z"/><path fill="#141414" fill-opacity=".84" d="M540 728c0-2.96.26-6.05 0-9 0 0-1-.04-1 0 0 3.27.42 6.34 1 9Z"/><path fill="#202020" fill-opacity=".31" d="M540 728v3c.27.25 1 0 1 0 0-4.08-.67-8.6-1-12 .26 2.95 0 6.04 0 9Z"/><path fill="#232323" fill-opacity=".43" d="M418 736c.11 2.3-.3 4.72 0 7 .01.07 1 0 1 0v-12s-.76-.25-1 0c-1.64 1.68-.09 3.19 0 5Z"/><path fill="#1B1B1B" fill-opacity=".6" d="M540 741c0 .05 1 0 1 0v-10s-.73.25-1 0c0 3.33-.07 6.67 0 10Z"/><path fill="#393939" fill-opacity=".03" d="M418 743c-.3-2.28.11-4.7 0-7-.11 1.95-.2 4.93 0 7Z"/><path fill="#222" fill-opacity=".24" d="M541 741v6c.25-.25 1 0 1 0 0-3.09-.77-6.58-1-9v3Z"/><path fill="#141414" fill-opacity=".84" d="M541 748v-7s-1 .05-1 0c.05 2.4.83 5.25 1 7Z"/><path fill="#1D1D1D" fill-opacity=".67" d="M418 751c.25-.25 1 0 1 0v-8s-.99.07-1 0c.25 2.61 0 5.38 0 8Z"/><path fill="#1E1E1E" fill-opacity=".49" d="M541 748c0 3.33-.09 6.67 0 10 0 .04 1 0 1 0v-11s-.75-.25-1 0v1Z"/><path fill="#161616" fill-opacity=".86" d="M418 752c0 7.56.68 15.47 0 23 .7-7.26 1-15.98 1-24 0 0-.75-.25-1 0v1Z"/><path fill="#282828" fill-opacity=".21" d="M417 756c.06 1.65.08 3.35 0 5-.2 4.17 0 9.17 0 14 0-.04 1 0 1 0 .68-7.53 0-15.44 0-23-2.7 1.38-1.07 1.95-1 4Z"/><path fill="#393939" fill-opacity=".03" d="M417 761c.08-1.65.06-3.35 0-5-.14 1.45-.1 3.53 0 5Z"/><path fill="#171717" fill-opacity=".75" d="M542 764c-.21-1.95 0-4.04 0-6 0 0-1 .04-1 0 .06 2.09.84 4.55 1 6Z"/><path fill="#202020" fill-opacity=".32" d="M542 770c.02-.1 1 0 1 0-.05-2.1-.84-4.54-1-6 .21 1.95 0 4.04 0 6Z"/><path fill="#1D1D1D" fill-opacity=".49" d="M542 776c.02.1 1 0 1 0 0-2 .04-4 0-6 0 0-.98-.1-1 0v6Z"/><path fill="#1E1E1E" fill-opacity=".52" d="M417 786c0-.04 1 0 1 0 0-3.62.33-7.4 0-11 0 0-1-.04-1 0v11Z"/><path fill="#181818" fill-opacity=".71" d="M543 788v-12s-.98.1-1 0c0 4.08.68 8.6 1 12Z"/><path fill="#212121" fill-opacity=".31" d="M543 788v7c.82-3.71.35-7.34 0-11v4Z"/><path fill="#1B1B1B" fill-opacity=".72" d="M417 795c.25-.25 1 0 1 0v-9s-1-.04-1 0v9Z"/><path fill="#151515" fill-opacity=".86" d="M417 796v18c1.24-5.64 1-12.61 1-19 0 0-.75-.25-1 0v1Z"/><path fill="#252525" fill-opacity=".26" d="M416 817c0-.04 1 0 1 0v-21c-3.38 4.58-1 15.11-1 21Z"/><path fill="#191919" fill-opacity=".65" d="M543 804c.02.1 1 0 1 0v-1c.25-2.06-.75-3.62-1-5 0 2-.04 4 0 6Z"/><path fill="#1F1F1F" fill-opacity=".16" d="M544 804c0 1.86-.38 4.18 0 6 .02.1 1 0 1 0-.04-2.51-.73-5.12-1-7v1Z"/><path fill="#151515" fill-opacity=".81" d="M544 810c-.38-1.82 0-4.14 0-6 0 0-.98.1-1 0 .05 2.11.84 4.54 1 6Z"/><path fill="#202020" fill-opacity=".31" d="M544 817c.01-.07 1 0 1 0 0-2.33.04-4.67 0-7 0 0-.98.1-1 0 .25 2.27 0 4.71 0 7Z"/><path fill="#1E1E1E" fill-opacity=".56" d="M416 826v12c0-.04 1 0 1 0v-21s-1-.04-1 0v9Z"/><path fill="#1B1B1B" fill-opacity=".56" d="M544 824c.01.07 1 0 1 0v-7s-.99-.07-1 0v7Z"/><path fill="#161616" fill-opacity=".77" d="M545 834c-.17-1.28 0-2.71 0-4v-6s-.99.07-1 0c0 3.42.73 7.25 1 10Z"/><path fill="#252525" fill-opacity=".19" d="M416 900v-74c-.69 7.14-1.77 17.17-1 25 .77 7.83-1.32 17.62 0 25 1.32 7.38-3.22 18.3 1 24Z"/><path fill="#232323" fill-opacity=".13" d="M545 834c.2 1.52.94 3.86 1 6 .06 2.33 0 4.67 0 7 0 1.86-.38 4.18 0 6 .02.1 1 0 1 0 0-8.14-.7-15.9-2-23 0 1.29-.17 2.72 0 4Z"/><path fill="#1F1F1F" fill-opacity=".36" d="M545 840c.02.1 1 0 1 0-.06-2.14-.8-4.48-1-6 .19 1.96 0 4.03 0 6Z"/><path fill="#191919" fill-opacity=".78" d="M416 888c.01-.07 1 0 1 0v-50s-1-.04-1 0v50Z"/><path fill="#1B1B1B" fill-opacity=".59" d="M545 847c.01.07 1 0 1 0 0-2.33.06-4.67 0-7 0 0-.98.1-1 0 0 2.33-.06 4.67 0 7Z"/><path fill="#161616" fill-opacity=".77" d="M546 853c-.38-1.82 0-4.14 0-6 0 0-.99.07-1 0 .05 2.11.83 4.53 1 6Z"/><path fill="#1F1F1F" fill-opacity=".36" d="M546 864c0-.04 1 0 1 0v-11s-.98.1-1 0c.41 3.56 0 7.41 0 11Z"/><path fill="#191919" fill-opacity=".63" d="M547 875v-11s-1-.04-1 0c0 3.75.7 7.92 1 11Z"/><path fill="#212121" fill-opacity=".28" d="M547 875v15c0-.04 1 0 1 0 0-7.38-.09-15.3-1-22v7Z"/><path fill="#1D1D1D" fill-opacity=".62" d="M416 895c.05-.15 1 0 1 0v-7s-.99-.07-1 0v7Z"/><path fill="#1C1C1C" fill-opacity=".49" d="M543 915c.4-.2 1 0 1 0 4.45-8.08 4-15.65 4-25 0 0-1-.04-1 0 0 9.26.13 16.93-4 25Z"/><path fill="#202020" fill-opacity=".39" d="M416 900s.05.5 0 1c.25.25 1 0 1 0-.25-1.92 0-4.06 0-6 0 0-.95-.15-1 0v5Z"/><path fill="#212121" fill-opacity=".21" d="M418 910c-.2-1.26.02-2.72 0-4-.16-1.2-.94-3.19-1-5 0 0-.75.25-1 0-.38 4.03 1.11 5.94 2 9Z"/><path fill="#181818" fill-opacity=".76" d="M418 906c-.03-1.83-.84-3.8-1-5 .06 1.81.84 3.8 1 5Z"/><path fill="#1D1D1D" fill-opacity=".45" d="M425 923c-3.54-2.58-6.39-9.25-7-13 1.72 5.89 1.03 10.01 7 13Z"/><path fill="#202020" fill-opacity=".3" d="M542 917c-1 1.64-2.7 3.7-4 5 2.59-2.22 4.33-3.98 6-7 0 0-.6-.2-1 0-.35.68-.59 1.33-1 2Z"/><path fill="#181818" fill-opacity=".67" d="M533 926c1.71-1.08 3.43-2.66 5-4 1.3-1.3 3-3.36 4-5-2.41 2.59-6.16 6.89-9 9Z"/><path fill="#1F1F1F" fill-opacity=".36" d="M477 940c-.04 0 0-1 0-1-3.32 0-6.68.13-10 0 2.8.4 6.49 1 10 1Z"/><path fill="#1A1A1A" fill-opacity=".62" d="M477 940c3.66 0 7.34.1 11 0 .05 0 0-1 0-1h-11s-.04 1 0 1Z"/><path fill="#1D1D1D" fill-opacity=".42" d="M488 940c2.1-.06 4.54-.83 6-1h-6s.05 1 0 1Z"/></svg>