<svg width="100%" height="100%" xmlns="http://www.w3.org/2000/svg" viewBox="0 0 961 961"><path fill="none" fill-opacity="0" stroke="#00CCD4" stroke-opacity=".96" stroke-width=".3" d="M361 49c.02 2.66-.92 4.42-1 5-1.02 25.55-1.04 49.75 0 76 .07 1.66.94 4.05 1 5 .59-7.96-.44-16.03 0-24 1.06 46.2 2.92 96.29-1 142 .44 12.76 0 26.62 0 40 .21-.37 1.61-.93 2-1 .48-.09 1 0 1 0V179c1.39.26.78 2.05 1 3 7.88 15.08-.48 38.76 2 56 2.48 17.24-1.66 40.91 0 58 1.66 17.09 1.35 34 9.92 48.08 8.57 14.07 17.44 18.5 30.16 27.84 12.73 9.33 21.47 12.72 31.69 26.31 10.22 13.59 1.98 27.51.25 43.79-1.72 16.29.44 33.55-.03 49.99-.46 16.44.35 35.81 2.01 50.99 2.16-2.76.45-7.49 1-11 2.04 9.13.73 21.95 2.4 30.74 1.68 8.8 1.14 17.55 1.6 27.26.47 9.72 2.27 21.49 2 31-.27 9.51 4.97 17.14 6.06 25.08 1.1 7.94.23 17.46 3.92 24.94 3.68 7.49.11 14.34 3.94 23.06 3.84 8.71 8.7 13.88 12.08 21.92 4.26-1.1 7.54 1.73 12 3 1.46-3.75 3.72-5.79 6-7-2-3.4.13-3.64 1.75-4.39 1.63-.76-.72-7.1 3.25-2.61 1.49-6.09-1.86-23.15 6-17-2.26-4.49 1.61-7.33 1-12 4.12 2.33.2-5.54 1.99-10.01 1.8-4.47-.43-11.95 1.01-16.99 1.44-5.04-.08-10.55 0-16 1.99 7.65 4.48-6.46 3-12-1.48-5.54.65-12.86-.01-19.01-.65-6.15-.32-12.74.01-18.99.32-6.26-1.87-14.74-1.78-21.22.1-6.48 2.58-13.85 1.78-20.78 2.42 4.75.01 11.28 2 16 1.77-17.9 4.32-39.94 2-59-2.32-19.06.83-42.65-3.78-60.22-4.6-17.57-5.61-33.65 10.86-43.7 16.48-10.05 26.39-13.86 41.92-24.08-1.11 4.4-7.48 5.67-10.75 8.25-3.26 2.59-9.09 4.27-12 7-2.9 2.74-12.25 4.45-9.25 6.75 23.49-11.24 47.28-20.87 59.32-47.68 12.04-26.8 6.87-66.54 8.68-98.32 1.81-31.78-2.63-71.58-1-104s-1.2-67.87 1-100c2.08 55.26 3.53 117.53 2 173-1.53 55.47 8.6 110.78-16 159-.36 1.03-.45 1.97-1 3 .51-.56 5.2-5.03 6-6 1.38-2.4 2.09-4.63 3-6 .37-.99.64-2.09 1-3 .79-2.01 3.12-7.3 3-7 1.07-5.62 3.5-11.76 4-18 .44-5.54-.02-12.26 2-17 0-.5.17-1.56 0-2-1.71-4.52.33-8.12 1-12 0-20.96 1.66-41.71-1-60-.87-6.01-1.1-11.6-1-18 .1-6.4.17-13.57 0-20s.56-13.71 0-20c-.56-6.29 1.32-14.09 0-20s2.26-14.8 2-14c.1-1.79-.58-1.81-1-4-.34-1.77.82-2.84 0-5 0 0-.21-.62 0-1 1.26-2.26.86-11.38 1-14-1.66-18.06.06-39.76 0-59-.18-1.18-1.19-4.53-1-7 .49-6.37.23-12.29 0-19-.39-2.74-1.58-6.93-2-10-.98-12.87-21.84-14.01-30-9-3.37 4.86-2.07 10.06-2 15 .08 5.23-1.28 8.85-2 13-.43 10.31.58 20.7 0 31 .08 2.48 2.07 11.44-1 13v1c3.11 2.59-.02 3.1 0 4 .56 5.76 1.14 8.51 0 14 .07 2.73 2.96.29 0 3-.19.09 0 1.5 0 2 2.26 3.23.51 4.55 0 8 .53 26.32 1.62 58.68-1 84 .07 1.59.07 2.78 0 4 .29 2.46.19 3.59 0 6 .03 1.04.03 4.02 0 5 .19 2.31.15 3.72 0 6 .04 1.38.07 4.64 0 6 .6 19.88 0 41.43 0 62 .55 3.09 3.53 6.98 2 11-10.13 4.97-20.89 8.04-32 9 .84-2.76-1.96-8.57 2-9 .09-1.32 0-2.68 0-4-.09-.25-3.58-4.97-1-9 0 0-.03-.5 0-1-1.81-2.06-.18-2.79 0-5 1.32-16-1-32.31-1-49v-18s-.06-.51 0-1c.25-2.06-.82-3.7-1-5-.8 5.55.6 11.42 0 17-1.67-40.34-1.66-83.35 0-124 .35-1.65.84-3.4 1-5 .06-1.76-1.88-2.86 0-5v-1c-1.97-2.66-1.07-8.49-1-12 .05-2.38.06-3.53 0-6-.25-9.99 0-20.01 0-30 0-9.41 1.07-22.8-5-29-.81-.83-2.37-3.57-3-4-8.79-3.65-23.52-1.52-25.22 7.78-1.71 9.3-2.04 19.92-2.78 29.22-.1-.56 1.06-.32 1.07 2.08.01 2.39-1.13 2.24-1.07 1.92.36 84.56-.38 177.97 0 262-4.24-.01-9.71 1.2-14 0-4.29-1.2-12.52 2.43-16 0-3.63-2.54-.31-14.19-1-19-.69-4.81-.3-14.77 0-20 .11-1.96.12-3.06 0-5-.12-1.98 0-4.01 0-6 0-67.23 2.45-131.85 0-196-1.04-7.16-1.31-17.79-1-27 1.18-8.89-1.65-17.88-2-25-6.93-7.55-31.18-9.31-33 3-.29 1.94.1 4.04 0 6-.53 10.78-2 22.76-2 34 .11 1.32.04 3.82 0 5 .21 2.67.19 4.27 0 7 .11 3.21 1 8.06 1 12v16c0 1.29-.17 2.72 0 4 1.48 10.9.9 23.38 1 35 .1 11.62.68 25.66-2 35 .46 10.43-1.59 23.18-.99 34.99.6 11.81 1.21 19.94-.01 30.01-.03.87 0 5.14 0 6 .99 9.45 0 18.98 0 31 2.1 9.95 2.59 24.76 2 37-6.26-.64-12.06-3.11-18-5-3.02-3.5-8.74-3.21-13-5-.1-2.33.14-4.67 0-7-.07-1.27-.17-4.78 0-6 0 0 .06-.51 0-1-.39-3.34-.88-5.72 0-9 0 0-.23-.65 0-1-1.2-8.49-1.18-20.59 0-29 0 0 .24-.69 0-1-3.45-4.39.19-14.6-1-21s1.24-15.56.66-21.68c-.58-6.12-1.2-14.06.34-19.32 0 0 .13-.53 0-1-2.81-10.48.29-22.96-.66-33.68-.95-10.72.36-23.06.66-33.32a32.1 32.1 0 0 1 0-5c-.2-6.68-1.33-14.63 0-22 .09-.48.04-1.5 0-2-.53-5.99-.43-11.85 0-17 1.01-11.98.98-27.7 0-41-.27-1.57-.91-3.67-1-5-.85-4.52-.32-7.41-3-11 .7.67-3.12-2.09-3-2-8.36-4-17.44-4.2-24.3 2.7-6.87 6.9-5.79 10.19-5.7 21.3m33-12c2.49 92.54 1.98 185.84 2 279-8.11-3.91-3.69-18.38-5-29-1.3-10.63 2.43-24.45 1-36-1.43-11.55-.26-22.34 0-34 .25-11.67.3-24.19 1-36 .7-11.81-.57-25.05 0-37s-.83-24.06 0-36c.83-11.94-1.82-24.1-.67-35.67S392.03 47.96 394 37m68 33c-2.3-6.79-2.72-15.61-1-23 2.3 6.76.36 15.49 1 23m68-18c2.21 67.86.42 136.73 1 205-2.44-67.99-2.26-136.47-1-205m-68 29c1.24 73.96 4.56 150.65 0 224-1.51-74.12-1.48-150.68 0-224M362 263c1.26 7.32-2.94 4.99 0 0Z"/><path fill="none" fill-opacity="0" stroke="#007A95" stroke-opacity=".01" stroke-width=".3" d="M528 27c-.81-1.18.04-2.74-3-4 .63.43 2.19 3.17 3 4ZM394 27c-1.15-1.54-1.39-1.23-3-2-.12-.09 3.7 2.67 3 2Z"/><path fill="none" fill-opacity="0" stroke="#007A95" stroke-opacity=".02" stroke-width=".3" d="M430 37c.1-1.96-.29-4.06 0-6-.76 2.4-.1 3.84 0 6ZM602 45c-.15-4.24-1.31-7.66-2-10 .42 3.07 1.61 7.26 2 10Z"/><path fill="none" fill-opacity="0" stroke="#007A95" stroke-width=".3" d="M394 37c-1.97 10.96-.52 23.76-1.67 35.33-1.15 11.57 1.5 23.73.67 35.67-.83 11.94.57 24.05 0 36s.7 25.19 0 37c-.7 11.81-.75 24.33-1 36-.26 11.66-1.43 22.45 0 34s-2.3 25.37-1 36c1.31 10.62-3.11 25.09 5 29-.02-93.16.49-186.46-2-279Z"/><path fill="none" fill-opacity="0" stroke="#007A95" stroke-opacity=".02" stroke-width=".3" d="M398 43c-.14-1.93-.68-3.29-1-5 .09 1.33.73 3.43 1 5ZM566 54c.72-4.15 2.08-7.77 2-13-.33 4.13-1.82 8.57-2 13Z"/><path fill="none" fill-opacity="0" stroke="#007A95" stroke-width=".3" d="M530 392c-16.38 7.84-22.87 20.8-17.02 38.02 5.85 17.23 2.35 36.29 4.02 53.98 1.66 17.69.59 37.45 1.99 56.01 1.41 18.55-.15 37.03 1.01 55.99s1.13 41.08 1.67 59.67c.54 18.59.99 33.32 1.31 51.36.32 18.03.24 33.72 1.02 51.97.77 18.25-.56 41.75 0 60s-1.08 38.02-1 55c.09 16.99-8.52 32.44-25.67 35.33-17.15 2.89-35.18 7.47-52.4-.26-17.23-7.73-14.66-28.65-15.92-46.08-1.27-17.43.91-38.01.64-55.68-.28-17.68 1.12-36.01 1.33-53.33.2-17.33-.21-34.98 1.02-52.98s-1.19-40.11-1-58c.19-17.89 1.06-30.02.07-48.07-.99-18.06.33-42.96-.07-61.93s.27-40.48 0-59c-.27-18.52-.73-38.06 4.32-55.68 5.06-17.62-11.9-27.42-24.57-36.07-12.66-8.66-22.87-14.44-33-28-10.12-13.57-12.7-30.67-12.74-49.26-.04-18.58 0-41.59-1.01-60.99s2.46-42.5 0-62c-.22-.95.39-2.74-1-3v113c0 15.77.24 36.35 2.93 51.07 2.69 14.73 6.99 26.5 17.82 37.18s15.66 17.84 29.95 25.05c14.29 7.22 14.66 24.98 13.3 41.7-1.36 16.72 1.23 36.72 0 54s-.33 36.39-1 54c-.67 17.61-.47 36.08-1.33 53.67-.86 17.59-.58 35.85-1.67 53.33-1.09 17.48-.5 35.51-1 53-.5 17.49-1.58 35.72-2 53-.42 17.28-1.14 37.22-1 54 .14 16.78-3.17 38.23-1 54 2.17 15.77-5.12 37.35 8 47 .35.09.75.74 1 1 4.35 2.14 8.97 4.88 13 7 1.03.36 1.97.61 3 1 8.2 3.1 19.47 4.67 26 8 1 .03 2 0 3 0 4.06-.89 10.29-1.78 15-1 4.71.78 10.21-2.81 14 0 0 0 .56.16 1 0 2.23-4.49 17.94-6.1 22-8 2.03-1.38 3.4-2.92 6-4 24.67-16.58 14.68-46.19 15-73 .32-26.81-4-58.68-4-86 0-8.91-.29-17.99-1-27-.46-5.82-.82-15.24-1-21-.18-5.76-1.76-16.46-1.78-21.22-.02-4.76-2.21-20.55 1.78-20.78 0-.5.11-1.53 0-2-6.91.34-3.23-19.02-4-27s-.66-23.58-1-33c-.34-9.42-2.07-20.24-2.78-30.22-.71-9.99-.22-23.46-.22-33.78v-2c-1.55-3.64-1-8.66-1-13 0-1.32.09-2.68 0-4-.3-4.28-1-8.44-1-13 0-34.38-4.52-68.41-4-103 2.81.46 6.36-5.02 8-1 1.15-.53 1.14-1.31 2-2 .5-2.13 6.18-5.04 11.23-7.77 5.05-2.73 9.42-5.9 14-9 4.58-3.1 8.35-6.76 12.02-10.98 3.67-4.22 8.47-7.97 11.75-12.25 24.6-48.22 14.47-103.53 16-159 1.53-55.47.08-117.74-2-173-2.2 32.13.63 67.58-1 100s2.81 72.22 1 104 3.36 71.52-8.68 98.32C577.28 371.13 553.49 380.76 530 392ZM462 70c-.64-7.51 1.3-16.24-1-23-1.72 7.39-1.3 16.21 1 23Z"/><path fill="none" fill-opacity="0" stroke="#007A95" stroke-opacity=".01" stroke-width=".3" d="M360 54c.08-.58 1.02-2.34 1-5-.17 1.18-.93 3.16-1 5Z"/><path fill="none" fill-opacity="0" stroke="#007A95" stroke-width=".3" d="M530 52c-1.26 68.53-1.44 137.01 1 205-.58-68.27 1.21-137.14-1-205Z"/><path fill="none" fill-opacity="0" stroke="#007A95" stroke-opacity=".02" stroke-width=".3" d="M466 80c-.36-9.46-.47-18.68-1-27-.31 9.21-.04 19.84 1 27ZM533 86c.79-9.36.91-20.56 0-30 0 9.99-.25 20.01 0 30ZM497 60c-.1 1.31 0 2.68 0 4-.06.32 1.08.47 1.07-1.92-.01-2.4-1.17-2.64-1.07-2.08ZM603 71c-.01-2.43-.84-5.24-1-7-.19 2.47.82 5.82 1 7ZM428 76c.04-1.18.11-3.68 0-5 0 1.65-.13 3.36 0 5Z"/><path fill="none" fill-opacity="0" stroke="#007A95" stroke-width=".3" d="M462 81c-1.48 73.32-1.51 149.88 0 224 4.56-73.35 1.24-150.04 0-224Z"/><path fill="none" fill-opacity="0" stroke="#007A95" stroke-opacity=".02" stroke-width=".3" d="M429 95c0-3.94-.89-8.79-1-12-.28 4.14.63 8.56 1 12ZM398 101c2.09-4.58.16-11.78 0-17-.43 5.15-.53 11.01 0 17ZM565 98c3.07-1.56 1.08-10.52 1-13-.19 3.31.24 10.23-1 13ZM534 104c0-4.07-.69-8.61-1-12-.07 3.51-.97 9.34 1 12ZM565 103c-.02-.9 3.11-1.41 0-4 0 1.31-.13 2.7 0 4ZM429 104v-4c-.46 2.28-3.32 1.2 0 4ZM398 125c.5-6.29 2.52-16.48 0-22-1.33 7.37-.2 15.32 0 22ZM534 110c.17-1.63 0-3.36 0-5-1.88 2.14.06 3.24 0 5ZM429 110v-4c-1.87 1.57-3.23 2.61 0 4Z"/><path fill="none" fill-opacity="0" stroke="#00CCD4" stroke-opacity=".38" stroke-width=".3" d="M361 135c-.29 3.92-1.46 7.62-2 11 0 15.25.74 26.13.34 40.32-.41 14.2.33 21.73-.34 34.68.13 1.14 1.89 1.9 0 5v1c2.68.29 1.19 14.55 1 18-.14 2.63-.09 5.37 0 8 3.92-45.71 2.06-95.8 1-142-.44 7.97.59 16.04 0 24Z"/><path fill="none" fill-opacity="0" stroke="#007A95" stroke-opacity=".02" stroke-width=".3" d="M429 115c-.17-1.28 0-2.71 0-4-3.33 1.43-1.78 2.5 0 4Z"/><path fill="none" fill-opacity="0" stroke="#00CCD4" stroke-opacity=".3" stroke-width=".3" d="M429 117c-1.38 4.29-1.88 14.3-2 18 .76 5.71.25 8.59 0 15s1.11 11.11.78 17.78c-.33 6.67-.12 9.59.22 17.22 2.68-9.34 2.1-23.38 2-35-.1-11.62.48-24.1-1-35 .25.21.15 1.55 0 2Z"/><path fill="none" fill-opacity="0" stroke="#00CCD4" stroke-opacity=".34" stroke-width=".3" d="M533 222c.05-.35.79-.74 1-1 2.14-2.7.4-8.87 0-12-.24-1.89-.09-3.99 0-5 .19-2.13.19-2.89 0-5-.09-.96-.08-3.21 0-5 .18-3.98-.33-8.03 0-12-.01-.85-.08-3.3 0-5 .31-6.73-.67-12.62 0-19-.02-1.94-.8-3.91 0-5 0 0 .03-.5 0-1-.12-1.83-.02-4.08 0-5-.14-1.58-.14-3.42 0-5-.02-.86-.02-3.3 0-5-.76-7.19-1.36-15.88-1-22-1.66 40.65-1.67 83.66 0 124 .6-5.58-.8-11.45 0-17Z"/><path fill="none" fill-opacity="0" stroke="#007A95" stroke-opacity=".02" stroke-width=".3" d="M427 135c.12-3.7.62-13.71 2-18-3.23 2.59-2.67 12.99-2 18ZM565 120c2.96-2.71.07-.27 0-3-.06.3.21 2.9 0 3ZM565 130c.51-3.45 2.26-4.77 0-8 0 2.66-.05 5.34 0 8ZM359 146c.54-3.38 1.71-7.08 2-11-.06-.95-.93-3.34-1-5-.45 4.64-1 10.61-1 16ZM398 197c4.1-5.54-.1-17.81 1-25 1.1-7.19-.68-15.27 0-22s-.5-13.79-1-20c-.3 10.26-1.61 22.6-.66 33.32.95 10.72-2.15 23.2.66 33.68ZM602 144c2.95-1.5 1.31-10.61 1-14-.14 2.62.26 11.74-1 14ZM534 142c.19-2.08.18-3.28 0-5-.02 1.7-.02 4.14 0 5ZM602 150c-.06-1.66 4.09-2.8 0-5 .82 2.16-.34 3.23 0 5ZM534 152c1.83-2.07.2-2.77 0-5-.02.92-.12 3.17 0 5Z"/><path fill="none" fill-opacity="0" stroke="#00CCD4" stroke-opacity=".42" stroke-width=".3" d="M602 246c.01-.99.04-3.54 0-5-.06-1.93.47-2.81 0-5-.06-.29.76-.74 1-1 1.35-12.92-1.2-25.46-.78-38.22.42-12.77.95-25.95.78-38.78-.34-1.99-.1-2.14 0-4 .26-.8-3.32 8.09-2 14 1.32 5.91-.56 13.71 0 20 .56 6.29-.17 13.57 0 20s.1 13.6 0 20 .13 11.99 1 18Z"/><path fill="none" fill-opacity="0" stroke="#007A95" stroke-opacity=".02" stroke-width=".3" d="M534 158c.18-1.74 1.55-2.68 0-5-.8 1.09-.02 3.06 0 5ZM603 235c3.48-3.75-.54-14.52.93-19.92 1.47-5.41-1.29-13.05-.86-19.01.44-5.95 1.04-13.02.92-19.06-.11-6.04-.06-13.58-.99-19.01.17 12.83-.36 26.01-.78 38.78-.42 12.76 2.13 25.3.78 38.22ZM534 182c.16-1.94.09-3.48 0-5-.08 1.7-.01 4.15 0 5Z"/><path fill="none" fill-opacity="0" stroke="#00AED7" stroke-width=".3" d="M530 392c-3-2.3 6.35-4.01 9.25-6.75 2.91-2.73 8.74-4.41 12-7 3.27-2.58 9.64-3.85 10.75-8.25-15.53 10.22-25.44 14.03-41.92 24.08-16.47 10.05-15.46 26.13-10.86 43.7 4.61 17.57 1.46 41.16 3.78 60.22 2.32 19.06-.23 41.1-2 59-1.99-4.72.42-11.25-2-16 .8 6.93-1.68 14.3-1.78 20.78-.09 6.48 2.1 14.96 1.78 21.22-.33 6.25-.66 12.84-.01 18.99.66 6.15-1.47 13.47.01 19.01 1.48 5.54-1.01 19.65-3 12-.08 5.45 1.44 10.96 0 16-1.44 5.04.79 12.52-1.01 16.99-1.79 4.47 2.13 12.34-1.99 10.01.61 4.67-3.26 7.51-1 12-7.86-6.15-4.51 10.91-6 17-3.97-4.49-1.62 1.85-3.25 2.61-1.62.75-3.75.99-1.75 4.39-2.28 1.21-4.54 3.25-6 7-4.46-1.27-7.74-4.1-12-3-3.38-8.04-8.24-13.21-12.08-21.92-3.83-8.72-.26-15.57-3.94-23.06-3.69-7.48-2.82-17-3.92-24.94-1.09-7.94-6.33-15.57-6.06-25.08.27-9.51-1.53-21.28-2-31-.46-9.71.08-18.46-1.6-27.26-1.67-8.79-.36-21.61-2.4-30.74-.55 3.51 1.16 8.24-1 11-1.66-15.18-2.47-34.55-2.01-50.99.47-16.44-1.69-33.7.03-49.99 1.73-16.28 9.97-30.2-.25-43.79s-18.96-16.98-31.69-26.31c-12.72-9.34-21.59-13.77-30.16-27.84-8.57-14.08-8.26-30.99-9.92-48.08-1.66-17.09 2.48-40.76 0-58-2.48-17.24 5.88-40.92-2-56 2.46 19.5-1.01 42.6 0 62s.97 42.41 1.01 60.99c.04 18.59 2.62 35.69 12.74 49.26 10.13 13.56 20.34 19.34 33 28 12.67 8.65 29.63 18.45 24.57 36.07-5.05 17.62-4.59 37.16-4.32 55.68.27 18.52-.4 40.03 0 59s-.92 43.87.07 61.93c.99 18.05.12 30.18-.07 48.07s2.23 40 1 58-.82 35.65-1.02 52.98c-.21 17.32-1.61 35.65-1.33 53.33.27 17.67-1.91 38.25-.64 55.68 1.26 17.43-1.31 38.35 15.92 46.08 17.22 7.73 35.25 3.15 52.4.26 17.15-2.89 25.76-18.34 25.67-35.33-.08-16.98 1.56-36.75 1-55s.77-41.75 0-60c-.78-18.25-.7-33.94-1.02-51.97-.32-18.04-.77-32.77-1.31-51.36-.54-18.59-.51-40.71-1.67-59.67s.4-37.44-1.01-55.99c-1.4-18.56-.33-38.32-1.99-56.01-1.67-17.69 1.83-36.75-4.02-53.98-5.85-17.22.64-30.18 17.02-38.02Z"/><path fill="none" fill-opacity="0" stroke="#007A95" stroke-opacity=".02" stroke-width=".3" d="M534 199c.05-1.74.09-3.62 0-5-.08 1.79-.09 4.04 0 5Z"/><path fill="none" fill-opacity="0" stroke="#007A95" stroke-opacity=".04" stroke-width=".3" d="M398 260c2.15-4.74.61-12.29.98-17.97.36-5.69.68-16.81.02-23.03-.65-6.22 2.33-16.74-1-21-1.54 5.26-.92 13.2-.34 19.32.58 6.12-1.85 15.28-.66 21.68s-2.45 16.61 1 21Z"/><path fill="none" fill-opacity="0" stroke="#007A95" stroke-opacity=".02" stroke-width=".3" d="M534 209c-.01-.88.04-3.62 0-5-.09 1.01-.24 3.11 0 5ZM564 218c.07-1.22.07-2.41 0-4-.13 1.22-.15 2.78 0 4ZM359 226c1.89-3.1.13-3.86 0-5-.09 1.66 0 3.34 0 5ZM533 222c.18 1.3 1.25 2.94 1 5 1.88-2.39.11-3.5 0-6-.21.26-.95.65-1 1ZM564 229c.03-.98.03-3.96 0-5a32.1 32.1 0 0 0 0 5ZM360 245c.19-3.45 1.68-17.71-1-18 0 6.05.48 12.63 1 18ZM534 246c.41-4.29 3.06-13.86 0-18v18ZM564 241c.07-1.36.04-4.62 0-6-.13 1.97-.06 4.03 0 6ZM602 241c.24-2.67 3.09-1.72 0-5 .47 2.19-.06 3.07 0 5ZM427 256c0-.86-.03-5.13 0-6-.22 1.83-.19 4.16 0 6ZM398 290c2.05-3.2.79-11.39.93-14.92.14-3.53 1.03-11.01-.93-14.08-1.18 8.41-1.2 20.51 0 29Z"/><path fill="none" fill-opacity="0" stroke="#00AED7" stroke-opacity=".55" stroke-width=".3" d="M362 263c-2.94 4.99 1.26 7.32 0 0Z"/><path fill="none" fill-opacity="0" stroke="#007A95" stroke-opacity=".02" stroke-width=".3" d="M466 282c.04-1.42.12-4.45 0-6 0 1.99-.12 4.02 0 6Z"/><path fill="none" fill-opacity="0" stroke="#00CCD4" stroke-opacity=".09" stroke-width=".3" d="M411 319c5.94 1.89 11.74 4.36 18 5 .59-12.24.1-27.05-2-37-.19 12.13.55 23.63 0 35-4.72-2.32-12.15-1.85-16-3Z"/><path fill="none" fill-opacity="0" stroke="#007A95" stroke-opacity=".02" stroke-width=".3" d="M467 326c.63-12.91-.4-26.82-1-39-.3 5.23-.69 15.19 0 20 .69 4.81-2.63 16.46 1 19ZM398 300c1.45-1.89.84-7.16 0-9-.88 3.28-.39 5.66 0 9ZM360 293v6c.32-.24 2-.02 2 0 .11-2.35-2.13-4.46 0-7-.39.07-1.79.63-2 1Z"/><path fill="none" fill-opacity="0" stroke="#00AED7" stroke-opacity=".57" stroke-width=".3" d="M362 299c-.12 2.6-1.76 3.09-2 4 .03 2.4.65 5.85 1 7 .35 1.17.86 1.68 1 3 .21 1.97-1.15 4.4-1 7 .84 3.79-.61 8.54 0 13-.26-.95 1.7 1.65 2 4 .4 3.14.39 5.04 1 8 .33 1.59.55 3.4 1 5 .98 2.5.57 2.92 1 5 .48 1.2 1.81 4.49 2 5 2.19 4.02 3.45 7.74 6 12 1.21 1.51 4.4 6.19 5 7 2.59 2.91 5.05 4.87 8 8 .51.39 3.68 3.57 4 4 6.63 6.01 13.27 8.79 20 15 1.87 1.03 2.5-.84 3 2 0 0 .7-.24 1 0 1.88 1.5 3.5 2.55 5 3 1.22.37 1.2.06 2 1 .83.98.67 1.86 1 3 .94 3.28.23 4.91 0 8 .05 1.87 1 5.4 1 8 0 3.35-.84 7.42-1 10 .28 5.61.33 10.33 0 16 .12.33 1.95.84 2 1 .93-9.91-.7-20.07 0-30 2.35 18.19.66 38.38 0 57 0 8.39 1.84 19.96-2 27v1c1.79 2.42.96 5.64 0 8-.1.7-.97 1.78-1 2 .23 1.15.82 1.8 1 3 .44 2.89-.8 5.91-1 8 0 13.97-.25 29.31 0 42 .06 2.81-.8 5.94-1 8 0 7.66.15 15.34 0 23-.05 2.4-.84 5.32-1 7-.04 12.22 0 24.9 0 38 0 2 .07 4 0 6-.06 1.86-.83 3.81-1 5 0 19.66.58 39.98-1 56-.18 1.87-.9 4.79-1 6 .07 3.86.78 7.16 1 11 .13 2.26.19 4.75 0 7-.38 4.46-1.51 8.85-1 13 .27 2.22-.63 2.96-1 5-.47 11.88.61 23.76 0 35-.14 2.54-.9 6.18-1 8 .52 10.35-.94 24.01 1 34 3.6 18.51-.62 39.67 1 59-2.2-.74.31-4.33-2-5 0 5.41.34 10.66 1 16 .24 1.17 1.55 3.5 2 5 1.46 4.86 2.72 8.62 8 10-13.12-9.65-5.83-31.23-8-47s1.14-37.22 1-54c-.14-16.78.58-36.72 1-54 .42-17.28 1.5-35.51 2-53 .5-17.49-.09-35.52 1-53 1.09-17.48.81-35.74 1.67-53.33.86-17.59.66-36.06 1.33-53.67s-.23-36.72 1-54-1.36-37.28 0-54 .99-34.48-13.3-41.7c-14.29-7.21-19.12-14.37-29.95-25.05-10.83-10.68-15.13-22.45-17.82-37.18-2.69-14.72-2.93-35.3-2.93-51.07 0 0-.52-.09-1 0-2.13 2.54.11 4.65 0 7Z"/><path fill="none" fill-opacity="0" stroke="#007A95" stroke-opacity=".02" stroke-width=".3" d="M535 300c.12-1.71.01-4.15 0-5-.18 2.21-1.81 2.94 0 5Z"/><path fill="none" fill-opacity="0" stroke="#00CCD4" stroke-opacity=".11" stroke-width=".3" d="M360 303c.24-.91 1.88-1.4 2-4 0-.02-1.68-.24-2 0 0 1.33-.02 2.67 0 4Z"/><path fill="none" fill-opacity="0" stroke="#007A95" stroke-opacity=".02" stroke-width=".3" d="M398 307c.08-2.43 1.67-3.38 0-6-.17 1.22-.07 4.73 0 6ZM536 310c0-2.94.64-6.78-1-9-2.58 4.03.91 8.75 1 9Z"/><path fill="none" fill-opacity="0" stroke="#00CCD4" stroke-opacity=".09" stroke-width=".3" d="M536 314c-3.96.43-1.16 6.24-2 9 11.11-.96 21.87-4.03 32-9 1.53-4.02-1.45-7.91-2-11 3.73 16.85-18.02 14.07-28 19-1-3.05-.2-5 0-8Z"/><path fill="none" fill-opacity="0" stroke="#007A95" stroke-opacity=".02" stroke-width=".3" d="M602 318c.18-3 1-7.83 1-12-.67 3.88-2.71 7.48-1 12Z"/><path fill="none" fill-opacity="0" stroke="#00CCD4" stroke-opacity=".05" stroke-width=".3" d="M360 313c.32.24 1.67.24 2 0-.14-1.32-.65-1.83-1-3-.29.96-.87 1.51-1 3Z"/><path fill="none" fill-opacity="0" stroke="#007A95" stroke-opacity=".02" stroke-width=".3" d="M361 320c-.15-2.6 1.21-5.03 1-7-.33.24-1.68.24-2 0-.24 2.68.55 4.97 1 7ZM600 337c1.34-5.4 2-10.73 2-17-2.02 4.74-1.56 11.46-2 17Z"/><path fill="none" fill-opacity="0" stroke="#007A95" stroke-opacity=".03" stroke-width=".3" d="M361 333c.32 2.33 1.39 2.42 2 4-.3-2.35-2.26-4.95-2-4Z"/><path fill="none" fill-opacity="0" stroke="#007A95" stroke-opacity=".02" stroke-width=".3" d="M365 350c-.45-1.6-.67-3.41-1-5 .12 1.54.18 2.92 1 5ZM593 362c1.88-2.79 2.34-3.52 3-7 .12-.3-2.21 4.99-3 7ZM368 360c-.19-.51-1.52-3.8-2-5 .41 1.96 1.17 3.47 2 5ZM589 371c1.52-1.85 2.14-3.71 3-6-.91 1.37-1.62 3.6-3 6ZM379 379c-.6-.81-3.79-5.49-5-7 1.28 2.14 3.05 4.81 5 7Z"/><path fill="none" fill-opacity="0" stroke="#00CCD4" stroke-opacity=".47" stroke-width=".3" d="M535 414c5.29-4.22 13.54-7.75 21-11 2-1.36 4.36-3.35 6-5 .75-.76.93-1.38 2-2 .91-.52 2.26-.53 3-1 1.94-1.96 3.83-4.13 6-6 2.62-2.26 7.42-6.1 9-9 .1-1.06.14-1.39 1-3 .55-1.03.64-1.97 1-3-3.28 4.28-8.08 8.03-11.75 12.25-3.67 4.22-7.44 7.88-12.02 10.98-4.58 3.1-8.95 6.27-14 9-5.05 2.73-10.73 5.64-11.23 7.77Z"/><path fill="none" fill-opacity="0" stroke="#007A95" stroke-opacity=".02" stroke-width=".3" d="M582 380c-1.58 2.9-6.38 6.74-9 9 3.83-2.68 8.87-7.63 9-9Z"/><path fill="none" fill-opacity="0" stroke="#007A95" stroke-opacity=".01" stroke-width=".3" d="M387 387c1.28 1.36 2.38 2.53 4 4-.32-.43-3.49-3.61-4-4ZM564 396c.85-.18.24 1.79 3-1-.74.47-2.09.48-3 1Z"/><path fill="none" fill-opacity="0" stroke="#007A95" stroke-opacity=".02" stroke-width=".3" d="M556 403c2.32-1.01 4.05-1.73 6-5-1.64 1.65-4 3.64-6 5Z"/><path fill="none" fill-opacity="0" stroke="#00CCD4" stroke-opacity=".05" stroke-width=".3" d="M414 408c-.5-2.84-1.13-.97-3-2 1.13 1.04 1.02 2.06 3 2Z"/><path fill="none" fill-opacity="0" stroke="#007A95" stroke-opacity=".02" stroke-width=".3" d="M420 411c-1.5-.45-3.12-1.5-5-3 1.93 2.76 2.63 3.09 5 3ZM423 415c-.33-1.14-.17-2.02-1-3 .02.05.89 2.74 1 3Z"/><path fill="none" fill-opacity="0" stroke="#00CCD4" stroke-opacity=".38" stroke-width=".3" d="M529 520c.24 2.49 1.01 7.67 2 10v-11c0-4.02-.1-8.61 0-12-.21-2.19-.91-4.52-1-7-.61-16.03.44-32.42-1-48-.16-1.73-.95-4.61-1-7-.16-8.04-.43-16.06 0-23-.28-3.1-1.5-2.2 1-4 1.99-1.43 2.79-1.45 4-2-1.64-4.02-5.19 1.46-8 1-.52 34.59 4 68.62 4 103Z"/><path fill="none" fill-opacity="0" stroke="#007A95" stroke-opacity=".02" stroke-width=".3" d="M528 422c.14-2.22-.64-1.89 1-4-2.5 1.8-1.28.9-1 4Z"/><path fill="none" fill-opacity="0" stroke="#00CCD4" stroke-opacity=".02" stroke-width=".3" d="M423 431c0-.04 1 0 1 0 0-2.6-.95-6.13-1-8-.19 2.63 0 5.36 0 8Z"/><path fill="none" fill-opacity="0" stroke="#00CCD4" stroke-opacity=".33" stroke-width=".3" d="M425 458c-.25 2.64-1.79 6.77-2 9 .15 7.63 0 16.32 0 25 .15-1.56 1.86-5.5 2-7 .66-18.62 2.35-38.81 0-57-.7 9.93.93 20.09 0 30Z"/><path fill="none" fill-opacity="0" stroke="#007A95" stroke-opacity=".02" stroke-width=".3" d="M423 441c.16-2.58 1-6.65 1-10 0 0-1-.04-1 0 0 3.32-.17 6.69 0 10ZM529 452c-.01-2.44-.83-5.23-1-7 .05 2.39.84 5.27 1 7ZM423 467c.21-2.23 1.75-6.36 2-9-.05-.16-1.88-.67-2-1-.19 3.29-.07 6.7 0 10Z"/><path fill="none" fill-opacity="0" stroke="#00AED7" stroke-opacity=".2" stroke-width=".3" d="M423 492v20c3.84-7.04 2-18.61 2-27-.14 1.5-1.85 5.44-2 7Z"/><path fill="none" fill-opacity="0" stroke="#007A95" stroke-opacity=".02" stroke-width=".3" d="M531 507c.05-1.55-.77-5.1-1-7 .09 2.48.79 4.81 1 7Z"/><path fill="none" fill-opacity="0" stroke="#00CCD4" stroke-opacity=".09" stroke-width=".3" d="M423 517c0 1.29.18 2.73 0 4 .96-2.36 1.79-5.58 0-8v4Z"/><path fill="none" fill-opacity="0" stroke="#007A95" stroke-opacity=".02" stroke-width=".3" d="M422 523c.03-.22.9-1.3 1-2 .18-1.27 0-2.71 0-4-.21 1.56-1.46 3.65-1 6ZM531 530c0 .5.12 1.53 0 2 .59 1.53 1.28 2.14 0 4 .01.1.84 2.51 1 3 .11.35.99.82 1 1 .5-6.94-1.39-14.65-2-21v11Z"/><path fill="none" fill-opacity="0" stroke="#00AED7" stroke-opacity=".72" stroke-width=".3" d="M530 533c.13-.27.91-.65 1-1 .12-.47 0-1.5 0-2-.99-2.33-1.76-7.51-2-10 0 4.56.7 8.72 1 13Z"/><path fill="none" fill-opacity="0" stroke="#00CCD4" stroke-opacity=".03" stroke-width=".3" d="M422 534c.2-2.09 1.44-5.11 1-8 .03 1.63-1 5.54-1 8Z"/><path fill="none" fill-opacity="0" stroke="#00CCD4" stroke-opacity=".31" stroke-width=".3" d="M530 533c.09 1.32 0 2.68 0 4 .05-.23.79-.7 1-1 1.28-1.86.59-2.47 0-4-.09.35-.87.73-1 1Z"/><path fill="none" fill-opacity="0" stroke="#00AED7" stroke-opacity=".6" stroke-width=".3" d="M530 537c0 4.34-.55 9.36 1 13 0-3.65.85-8.13 1-11-.16-.49-.99-2.9-1-3-.21.3-.95.77-1 1Z"/><path fill="none" fill-opacity="0" stroke="#00CCD4" stroke-opacity=".18" stroke-width=".3" d="M531 550v2c.34.23 1 0 1 0 1.4-1.36.84-9.74 1-12-.01-.18-.89-.65-1-1-.15 2.87-1 7.35-1 11Z"/><path fill="none" fill-opacity="0" stroke="#00AED7" stroke-opacity=".5" stroke-width=".3" d="M539 676c-3.5-15.14-.5-33.36-2-47-.12-1.12-.93-3.26-1-5-.16-4.1-.62-8.2-1-12-.16-1.63 0-3.36 0-5v-5c0-1.33.02-2.67 0-4-.17-1.26-1.04-3.09-1-5-.1-.95.06-2.01 0-3-.1-1.65 0-3.34 0-5 0-2.98.16-6.02 0-9-.14-2.6-.54-4.6-1-7-.76-3.96-.07-7.65 0-11-.29-1.99-.02-4.26-1-6 0 0-.66.23-1 0 0 10.32-.49 23.79.22 33.78.71 9.98 2.44 20.8 2.78 30.22.34 9.42.23 25.02 1 33s-2.91 27.34 4 27m-6-105c1.21 6.27-2.9 3.91 0 0Z"/><path fill="none" fill-opacity="0" stroke="#00CCD4" stroke-opacity=".09" stroke-width=".3" d="M533 569c.03-3.22.57-7.09 0-11-.07 3.35-.76 7.04 0 11Z"/><path fill="none" fill-opacity="0" stroke="#00CCD4" stroke-opacity=".45" stroke-width=".3" d="M533 571c-2.9 3.91 1.21 6.27 0 0Z"/><path fill="none" fill-opacity="0" stroke="#00CCD4" stroke-opacity=".03" stroke-width=".3" d="M421 584c.2-2.06 1.06-5.19 1-8-.19 2.03-1 5.24-1 8Z"/><path fill="none" fill-opacity="0" stroke="#007A95" stroke-opacity=".02" stroke-width=".3" d="M534 585c.05-.15 1 0 1 0 .13-3.24-.58-6.42-1-9 .16 2.98 0 6.02 0 9Z"/><path fill="none" fill-opacity="0" stroke="#00CCD4" stroke-opacity=".04" stroke-width=".3" d="M534 590c.11-1.07.93-3.24 1-5 0 0-.95-.15-1 0 0 1.66-.1 3.35 0 5Z"/><path fill="none" fill-opacity="0" stroke="#00CCD4" stroke-opacity=".09" stroke-width=".3" d="M535 598c-.03-1.78-.88-3.87-1-5-.04 1.91.83 3.74 1 5Z"/><path fill="none" fill-opacity="0" stroke="#007A95" stroke-opacity=".02" stroke-width=".3" d="M535 607c.05-.15 1 0 1 0 0-1.88-.83-3.76-1-5v5ZM420 614c.16-1.68.95-4.6 1-7-.17 1.72-.99 4.55-1 7Z"/><path fill="none" fill-opacity="0" stroke="#00CCD4" stroke-opacity=".03" stroke-width=".3" d="M535 612c.05-1.11 1.63-3.03 1-5 0 0-.95-.15-1 0 0 1.64-.16 3.37 0 5Z"/><path fill="none" fill-opacity="0" stroke="#007A95" stroke-opacity=".02" stroke-width=".3" d="M537 629c.01-1.89-.83-3.75-1-5 .07 1.74.88 3.88 1 5ZM419 658c.05-.15 1 0 1 0 .07-2 0-4 0-6-.17 1.44-.97 3.85-1 6Z"/><path fill="none" fill-opacity="0" stroke="#00CCD4" stroke-opacity=".02" stroke-width=".3" d="M419 663c.17-1.19.94-3.14 1-5 0 0-.95-.15-1 0-.03 1.67 0 3.33 0 5Z"/><path fill="none" fill-opacity="0" stroke="#00AED7" stroke-opacity=".4" stroke-width=".3" d="M540 741c.24-2.47 1.87-7.61 2-10-.42-6.84-1-15.2-1-23-.5-2.49-1.09-6.49-1-11 .08-3.93-.23-7.37-1-11-.39-1.85-.32-2.23 0-4-.12-.96 0-2.03 0-3v-1c-3.99.23-1.8 16.02-1.78 20.78.02 4.76 1.6 15.46 1.78 21.22.18 5.76.54 15.18 1 21Z"/><path fill="none" fill-opacity="0" stroke="#007A95" stroke-opacity=".02" stroke-width=".3" d="M539 682c.1.84.95 1.66 1 2 .27-1.81.14-3.82-1-5 0 .97-.12 2.04 0 3Z"/><path fill="none" fill-opacity="0" stroke="#00CCD4" stroke-opacity=".06" stroke-width=".3" d="M539 686c.09-.73 1.23-.54 1-2-.05-.34-.9-1.16-1-2-.32 1.77-.39 2.15 0 4Z"/><path fill="none" fill-opacity="0" stroke="#007A95" stroke-opacity=".04" stroke-width=".3" d="M541 708c0-3.92-.77-8.22-1-11-.09 4.51.5 8.51 1 11Z"/><path fill="none" fill-opacity="0" stroke="#007A95" stroke-opacity=".02" stroke-width=".3" d="M417 725c.1-1.21.82-4.13 1-6 .15-.57-1.04 3.78-1 6Z"/><path fill="none" fill-opacity="0" stroke="#00AED7" stroke-opacity=".3" stroke-width=".3" d="M540 741c.71 9.01 1 18.09 1 27 .78 8.08-.05 21.53 3 29-.18-1.27 0-2.71 0-4 0-5.71.43-11.87 0-17-.14-1.71-.95-4.63-1-7-.1-5.12.38-10.43 0-15-.14-1.71-.95-4.63-1-7-.11-5.31.32-10.7 0-16-.13 2.39-1.76 7.53-2 10Z"/><path fill="none" fill-opacity="0" stroke="#00CCD4" stroke-opacity=".02" stroke-width=".3" d="M418 743c.19-2.25.13-4.74 0-7-.08 1.6-.01 5.4 0 7Z"/><path fill="none" fill-opacity="0" stroke="#007A95" stroke-opacity=".02" stroke-width=".3" d="M543 754c.01-2.45-.83-5.23-1-7 .05 2.37.86 5.29 1 7Z"/><path fill="none" fill-opacity="0" stroke="#00CCD4" stroke-opacity=".04" stroke-width=".3" d="M416 761c.37-2.04 1.27-2.78 1-5-.14 1.14-.93 3.19-1 5Z"/><path fill="none" fill-opacity="0" stroke="#00AED7" stroke-opacity=".41" stroke-width=".3" d="M530 927c3.43-1.43 6.28-2.9 9-5 2.36-2.31 6.68-7.29 8-10 2.36-6.62 1.63-17.68 2-25-.12-1.96-.93-5.36-1-8-.21-8.07.69-17.56 0-25-.09-.97-.85-3.44-1-5-.37-3.85 0-7.62 0-12-.16-1.13-.85-3.3-1-5-.35-3.83-.96-7.7 0-11v-1c-2.11-2.85-2.36-16.17-1-19-.15-.45-.03-1.5 0-2-.54.81-1.01-2.09-1-2-3.05-7.47-2.22-20.92-3-29 0 27.32 4.32 59.19 4 86-.32 26.81 9.67 56.42-15 73Z"/><path fill="none" fill-opacity="0" stroke="#007A95" stroke-opacity=".02" stroke-width=".3" d="M544 776c.01-2.45-.83-5.23-1-7 .05 2.37.86 5.29 1 7ZM544 797c-.01-.09.46 2.81 1 2 .14-2.24-.82-4.45-1-6 0 1.29-.18 2.73 0 4ZM415 804c.1-1.82.86-5.46 1-8-.36 2.23-1.15 5.05-1 8ZM546 820c0-6.15.97-13.3-1-19-1.36 2.83-1.11 16.15 1 19ZM546 832c.04.14 1 0 1 0-.15-3.43.31-7.82-1-11-.96 3.3-.35 7.17 0 11Z"/><path fill="none" fill-opacity="0" stroke="#00CCD4" stroke-opacity=".02" stroke-width=".3" d="M547 837c0-1.66.07-3.34 0-5 0 0-.96.14-1 0 .15 1.7.84 3.87 1 5Z"/><path fill="none" fill-opacity="0" stroke="#00AED7" stroke-opacity=".31" stroke-width=".3" d="M415 892c2.31.67-.2 4.26 2 5-1.62-19.33 2.6-40.49-1-59-.33 16.3-1 36.23-1 54Z"/><path fill="none" fill-opacity="0" stroke="#007A95" stroke-opacity=".02" stroke-width=".3" d="M548 854c.05-2.04-.69-3.57-1-5 .15 1.56.91 4.03 1 5ZM549 887c.15-2.91-.68-5.76-1-8 .07 2.64.88 6.04 1 8ZM418 913c-.45-1.5-1.76-3.83-2-5 .3 2.44 1.21 3.13 2 5ZM539 922c3.32-2.57 6.57-5.98 8-10-1.32 2.71-5.64 7.69-8 10Z"/><path fill="none" fill-opacity="0" stroke="#00AED7" stroke-opacity=".47" stroke-width=".3" d="M440 931c-4.03-2.12-8.65-4.86-13-7 2.93 3.06 8.92 5.56 13 7Z"/><path fill="none" fill-opacity="0" stroke="#00AED7" stroke-opacity=".34" stroke-width=".3" d="M502 939c7.65-2.7 15.02-3.26 22-8-4.06 1.9-19.77 3.51-22 8Z"/><path fill="none" fill-opacity="0" stroke="#00AED7" stroke-opacity=".36" stroke-width=".3" d="M469 940c-6.53-3.33-17.8-4.9-26-8 6.73 4.43 16.7 7.68 26 8Z"/><path fill="none" fill-opacity="0" stroke="#00AED7" stroke-opacity=".33" stroke-width=".3" d="M472 940c9.68 0 19.71.53 29-1-3.79-2.81-9.29.78-14 0-4.71-.78-10.94.11-15 1Z"/><path fill="#00CCD4" fill-opacity=".96" d="M361 49c.02 2.66-.92 4.42-1 5-1.02 25.55-1.04 49.75 0 76 .07 1.66.94 4.05 1 5 .59-7.96-.44-16.03 0-24 1.06 46.2 2.92 96.29-1 142 .44 12.76 0 26.62 0 40 .21-.37 1.61-.93 2-1 .48-.09 1 0 1 0V179c1.39.26.78 2.05 1 3 7.88 15.08-.48 38.76 2 56 2.48 17.24-1.66 40.91 0 58 1.66 17.09 1.35 34 9.92 48.08 8.57 14.07 17.44 18.5 30.16 27.84 12.73 9.33 21.47 12.72 31.69 26.31 10.22 13.59 1.98 27.51.25 43.79-1.72 16.29.44 33.55-.03 49.99-.46 16.44.35 35.81 2.01 50.99 2.16-2.76.45-7.49 1-11 2.04 9.13.73 21.95 2.4 30.74 1.68 8.8 1.14 17.55 1.6 27.26.47 9.72 2.27 21.49 2 31-.27 9.51 4.97 17.14 6.06 25.08 1.1 7.94.23 17.46 3.92 24.94 3.68 7.49.11 14.34 3.94 23.06 3.84 8.71 8.7 13.88 12.08 21.92 4.26-1.1 7.54 1.73 12 3 1.46-3.75 3.72-5.79 6-7-2-3.4.13-3.64 1.75-4.39 1.63-.76-.72-7.1 3.25-2.61 1.49-6.09-1.86-23.15 6-17-2.26-4.49 1.61-7.33 1-12 4.12 2.33.2-5.54 1.99-10.01 1.8-4.47-.43-11.95 1.01-16.99 1.44-5.04-.08-10.55 0-16 1.99 7.65 4.48-6.46 3-12-1.48-5.54.65-12.86-.01-19.01-.65-6.15-.32-12.74.01-18.99.32-6.26-1.87-14.74-1.78-21.22.1-6.48 2.58-13.85 1.78-20.78 2.42 4.75.01 11.28 2 16 1.77-17.9 4.32-39.94 2-59-2.32-19.06.83-42.65-3.78-60.22-4.6-17.57-5.61-33.65 10.86-43.7 16.48-10.05 26.39-13.86 41.92-24.08-1.11 4.4-7.48 5.67-10.75 8.25-3.26 2.59-9.09 4.27-12 7-2.9 2.74-12.25 4.45-9.25 6.75 23.49-11.24 47.28-20.87 59.32-47.68 12.04-26.8 6.87-66.54 8.68-98.32 1.81-31.78-2.63-71.58-1-104s-1.2-67.87 1-100c2.08 55.26 3.53 117.53 2 173-1.53 55.47 8.6 110.78-16 159-.36 1.03-.45 1.97-1 3 .51-.56 5.2-5.03 6-6 1.38-2.4 2.09-4.63 3-6 .37-.99.64-2.09 1-3 .79-2.01 3.12-7.3 3-7 1.07-5.62 3.5-11.76 4-18 .44-5.54-.02-12.26 2-17 0-.5.17-1.56 0-2-1.71-4.52.33-8.12 1-12 0-20.96 1.66-41.71-1-60-.87-6.01-1.1-11.6-1-18 .1-6.4.17-13.57 0-20s.56-13.71 0-20c-.56-6.29 1.32-14.09 0-20s2.26-14.8 2-14c.1-1.79-.58-1.81-1-4-.34-1.77.82-2.84 0-5 0 0-.21-.62 0-1 1.26-2.26.86-11.38 1-14-1.66-18.06.06-39.76 0-59-.18-1.18-1.19-4.53-1-7 .49-6.37.23-12.29 0-19-.39-2.74-1.58-6.93-2-10-.98-12.87-21.84-14.01-30-9-3.37 4.86-2.07 10.06-2 15 .08 5.23-1.28 8.85-2 13-.43 10.31.58 20.7 0 31 .08 2.48 2.07 11.44-1 13v1c3.11 2.59-.02 3.1 0 4 .56 5.76 1.14 8.51 0 14 .07 2.73 2.96.29 0 3-.19.09 0 1.5 0 2 2.26 3.23.51 4.55 0 8 .53 26.32 1.62 58.68-1 84 .07 1.59.07 2.78 0 4 .29 2.46.19 3.59 0 6 .03 1.04.03 4.02 0 5 .19 2.31.15 3.72 0 6 .04 1.38.07 4.64 0 6 .6 19.88 0 41.43 0 62 .55 3.09 3.53 6.98 2 11-10.13 4.97-20.89 8.04-32 9 .84-2.76-1.96-8.57 2-9 .09-1.32 0-2.68 0-4-.09-.25-3.58-4.97-1-9 0 0-.03-.5 0-1-1.81-2.06-.18-2.79 0-5 1.32-16-1-32.31-1-49v-18s-.06-.51 0-1c.25-2.06-.82-3.7-1-5-.8 5.55.6 11.42 0 17-1.67-40.34-1.66-83.35 0-124 .35-1.65.84-3.4 1-5 .06-1.76-1.88-2.86 0-5v-1c-1.97-2.66-1.07-8.49-1-12 .05-2.38.06-3.53 0-6-.25-9.99 0-20.01 0-30 0-9.41 1.07-22.8-5-29-.81-.83-2.37-3.57-3-4-8.79-3.65-23.52-1.52-25.22 7.78-1.71 9.3-2.04 19.92-2.78 29.22-.1-.56 1.06-.32 1.07 2.08.01 2.39-1.13 2.24-1.07 1.92.36 84.56-.38 177.97 0 262-4.24-.01-9.71 1.2-14 0-4.29-1.2-12.52 2.43-16 0-3.63-2.54-.31-14.19-1-19-.69-4.81-.3-14.77 0-20 .11-1.96.12-3.06 0-5-.12-1.98 0-4.01 0-6 0-67.23 2.45-131.85 0-196-1.04-7.16-1.31-17.79-1-27 1.18-8.89-1.65-17.88-2-25-6.93-7.55-31.18-9.31-33 3-.29 1.94.1 4.04 0 6-.53 10.78-2 22.76-2 34 .11 1.32.04 3.82 0 5 .21 2.67.19 4.27 0 7 .11 3.21 1 8.06 1 12v16c0 1.29-.17 2.72 0 4 1.48 10.9.9 23.38 1 35 .1 11.62.68 25.66-2 35 .46 10.43-1.59 23.18-.99 34.99.6 11.81 1.21 19.94-.01 30.01-.03.87 0 5.14 0 6 .99 9.45 0 18.98 0 31 2.1 9.95 2.59 24.76 2 37-6.26-.64-12.06-3.11-18-5-3.02-3.5-8.74-3.21-13-5-.1-2.33.14-4.67 0-7-.07-1.27-.17-4.78 0-6 0 0 .06-.51 0-1-.39-3.34-.88-5.72 0-9 0 0-.23-.65 0-1-1.2-8.49-1.18-20.59 0-29 0 0 .24-.69 0-1-3.45-4.39.19-14.6-1-21s1.24-15.56.66-21.68c-.58-6.12-1.2-14.06.34-19.32 0 0 .13-.53 0-1-2.81-10.48.29-22.96-.66-33.68-.95-10.72.36-23.06.66-33.32a32.1 32.1 0 0 1 0-5c-.2-6.68-1.33-14.63 0-22 .09-.48.04-1.5 0-2-.53-5.99-.43-11.85 0-17 1.01-11.98.98-27.7 0-41-.27-1.57-.91-3.67-1-5-.85-4.52-.32-7.41-3-11 .7.67-3.12-2.09-3-2-8.36-4-17.44-4.2-24.3 2.7-6.87 6.9-5.79 10.19-5.7 21.3m1 214c1.26 7.32-2.94 4.99 0 0Z"/><path fill="#007A95" fill-opacity=".01" d="M528 27c-.81-1.18.04-2.74-3-4 .63.43 2.19 3.17 3 4ZM394 27c-1.15-1.54-1.39-1.23-3-2-.12-.09 3.7 2.67 3 2Z"/><path fill="#007A95" fill-opacity=".02" d="M430 37c.1-1.96-.29-4.06 0-6-.76 2.4-.1 3.84 0 6ZM602 45c-.15-4.24-1.31-7.66-2-10 .42 3.07 1.61 7.26 2 10Z"/><path fill="#007A95" d="M394 37c-1.97 10.96-.52 23.76-1.67 35.33-1.15 11.57 1.5 23.73.67 35.67-.83 11.94.57 24.05 0 36s.7 25.19 0 37c-.7 11.81-.75 24.33-1 36-.26 11.66-1.43 22.45 0 34s-2.3 25.37-1 36c1.31 10.62-3.11 25.09 5 29-.02-93.16.49-186.46-2-279Z"/><path fill="#007A95" fill-opacity=".02" d="M398 43c-.14-1.93-.68-3.29-1-5 .09 1.33.73 3.43 1 5ZM566 54c.72-4.15 2.08-7.77 2-13-.33 4.13-1.82 8.57-2 13Z"/><path fill="#007A95" d="M530 392c-16.38 7.84-22.87 20.8-17.02 38.02 5.85 17.23 2.35 36.29 4.02 53.98 1.66 17.69.59 37.45 1.99 56.01 1.41 18.55-.15 37.03 1.01 55.99s1.13 41.08 1.67 59.67c.54 18.59.99 33.32 1.31 51.36.32 18.03.24 33.72 1.02 51.97.77 18.25-.56 41.75 0 60s-1.08 38.02-1 55c.09 16.99-8.52 32.44-25.67 35.33-17.15 2.89-35.18 7.47-52.4-.26-17.23-7.73-14.66-28.65-15.92-46.08-1.27-17.43.91-38.01.64-55.68-.28-17.68 1.12-36.01 1.33-53.33.2-17.33-.21-34.98 1.02-52.98s-1.19-40.11-1-58c.19-17.89 1.06-30.02.07-48.07-.99-18.06.33-42.96-.07-61.93s.27-40.48 0-59c-.27-18.52-.73-38.06 4.32-55.68 5.06-17.62-11.9-27.42-24.57-36.07-12.66-8.66-22.87-14.44-33-28-10.12-13.57-12.7-30.67-12.74-49.26-.04-18.58 0-41.59-1.01-60.99s2.46-42.5 0-62c-.22-.95.39-2.74-1-3v113c0 15.77.24 36.35 2.93 51.07 2.69 14.73 6.99 26.5 17.82 37.18s15.66 17.84 29.95 25.05c14.29 7.22 14.66 24.98 13.3 41.7-1.36 16.72 1.23 36.72 0 54s-.33 36.39-1 54c-.67 17.61-.47 36.08-1.33 53.67-.86 17.59-.58 35.85-1.67 53.33-1.09 17.48-.5 35.51-1 53-.5 17.49-1.58 35.72-2 53-.42 17.28-1.14 37.22-1 54 .14 16.78-3.17 38.23-1 54 2.17 15.77-5.12 37.35 8 47 .35.09.75.74 1 1 4.35 2.14 8.97 4.88 13 7 1.03.36 1.97.61 3 1 8.2 3.1 19.47 4.67 26 8 1 .03 2 0 3 0 4.06-.89 10.29-1.78 15-1 4.71.78 10.21-2.81 14 0 0 0 .56.16 1 0 2.23-4.49 17.94-6.1 22-8 2.03-1.38 3.4-2.92 6-4 24.67-16.58 14.68-46.19 15-73 .32-26.81-4-58.68-4-86 0-8.91-.29-17.99-1-27-.46-5.82-.82-15.24-1-21-.18-5.76-1.76-16.46-1.78-21.22-.02-4.76-2.21-20.55 1.78-20.78 0-.5.11-1.53 0-2-6.91.34-3.23-19.02-4-27s-.66-23.58-1-33c-.34-9.42-2.07-20.24-2.78-30.22-.71-9.99-.22-23.46-.22-33.78v-2c-1.55-3.64-1-8.66-1-13 0-1.32.09-2.68 0-4-.3-4.28-1-8.44-1-13 0-34.38-4.52-68.41-4-103 2.81.46 6.36-5.02 8-1 1.15-.53 1.14-1.31 2-2 .5-2.13 6.18-5.04 11.23-7.77 5.05-2.73 9.42-5.9 14-9 4.58-3.1 8.35-6.76 12.02-10.98 3.67-4.22 8.47-7.97 11.75-12.25 24.6-48.22 14.47-103.53 16-159 1.53-55.47.08-117.74-2-173-2.2 32.13.63 67.58-1 100s2.81 72.22 1 104 3.36 71.52-8.68 98.32C577.28 371.13 553.49 380.76 530 392ZM462 70c-.64-7.51 1.3-16.24-1-23-1.72 7.39-1.3 16.21 1 23Z"/><path fill="#007A95" fill-opacity=".01" d="M360 54c.08-.58 1.02-2.34 1-5-.17 1.18-.93 3.16-1 5Z"/><path fill="#007A95" d="M530 52c-1.26 68.53-1.44 137.01 1 205-.58-68.27 1.21-137.14-1-205Z"/><path fill="#007A95" fill-opacity=".02" d="M466 80c-.36-9.46-.47-18.68-1-27-.31 9.21-.04 19.84 1 27ZM533 86c.79-9.36.91-20.56 0-30 0 9.99-.25 20.01 0 30ZM497 60c-.1 1.31 0 2.68 0 4-.06.32 1.08.47 1.07-1.92-.01-2.4-1.17-2.64-1.07-2.08ZM603 71c-.01-2.43-.84-5.24-1-7-.19 2.47.82 5.82 1 7ZM428 76c.04-1.18.11-3.68 0-5 0 1.65-.13 3.36 0 5Z"/><path fill="#007A95" d="M462 81c-1.48 73.32-1.51 149.88 0 224 4.56-73.35 1.24-150.04 0-224Z"/><path fill="#007A95" fill-opacity=".02" d="M429 95c0-3.94-.89-8.79-1-12-.28 4.14.63 8.56 1 12ZM398 101c2.09-4.58.16-11.78 0-17-.43 5.15-.53 11.01 0 17ZM565 98c3.07-1.56 1.08-10.52 1-13-.19 3.31.24 10.23-1 13ZM534 104c0-4.07-.69-8.61-1-12-.07 3.51-.97 9.34 1 12ZM565 103c-.02-.9 3.11-1.41 0-4 0 1.31-.13 2.7 0 4ZM429 104v-4c-.46 2.28-3.32 1.2 0 4ZM398 125c.5-6.29 2.52-16.48 0-22-1.33 7.37-.2 15.32 0 22ZM534 110c.17-1.63 0-3.36 0-5-1.88 2.14.06 3.24 0 5ZM429 110v-4c-1.87 1.57-3.23 2.61 0 4Z"/><path fill="#00CCD4" fill-opacity=".38" d="M361 135c-.29 3.92-1.46 7.62-2 11 0 15.25.74 26.13.34 40.32-.41 14.2.33 21.73-.34 34.68.13 1.14 1.89 1.9 0 5v1c2.68.29 1.19 14.55 1 18-.14 2.63-.09 5.37 0 8 3.92-45.71 2.06-95.8 1-142-.44 7.97.59 16.04 0 24Z"/><path fill="#007A95" fill-opacity=".02" d="M429 115c-.17-1.28 0-2.71 0-4-3.33 1.43-1.78 2.5 0 4Z"/><path fill="#00CCD4" fill-opacity=".3" d="M429 117c-1.38 4.29-1.88 14.3-2 18 .76 5.71.25 8.59 0 15s1.11 11.11.78 17.78c-.33 6.67-.12 9.59.22 17.22 2.68-9.34 2.1-23.38 2-35-.1-11.62.48-24.1-1-35 .25.21.15 1.55 0 2Z"/><path fill="#00CCD4" fill-opacity=".34" d="M533 222c.05-.35.79-.74 1-1 2.14-2.7.4-8.87 0-12-.24-1.89-.09-3.99 0-5 .19-2.13.19-2.89 0-5-.09-.96-.08-3.21 0-5 .18-3.98-.33-8.03 0-12-.01-.85-.08-3.3 0-5 .31-6.73-.67-12.62 0-19-.02-1.94-.8-3.91 0-5 0 0 .03-.5 0-1-.12-1.83-.02-4.08 0-5-.14-1.58-.14-3.42 0-5-.02-.86-.02-3.3 0-5-.76-7.19-1.36-15.88-1-22-1.66 40.65-1.67 83.66 0 124 .6-5.58-.8-11.45 0-17Z"/><path fill="#007A95" fill-opacity=".02" d="M427 135c.12-3.7.62-13.71 2-18-3.23 2.59-2.67 12.99-2 18ZM565 120c2.96-2.71.07-.27 0-3-.06.3.21 2.9 0 3ZM565 130c.51-3.45 2.26-4.77 0-8 0 2.66-.05 5.34 0 8ZM359 146c.54-3.38 1.71-7.08 2-11-.06-.95-.93-3.34-1-5-.45 4.64-1 10.61-1 16ZM398 197c4.1-5.54-.1-17.81 1-25 1.1-7.19-.68-15.27 0-22s-.5-13.79-1-20c-.3 10.26-1.61 22.6-.66 33.32.95 10.72-2.15 23.2.66 33.68ZM602 144c2.95-1.5 1.31-10.61 1-14-.14 2.62.26 11.74-1 14ZM534 142c.19-2.08.18-3.28 0-5-.02 1.7-.02 4.14 0 5ZM602 150c-.06-1.66 4.09-2.8 0-5 .82 2.16-.34 3.23 0 5ZM534 152c1.83-2.07.2-2.77 0-5-.02.92-.12 3.17 0 5Z"/><path fill="#00CCD4" fill-opacity=".42" d="M602 246c.01-.99.04-3.54 0-5-.06-1.93.47-2.81 0-5-.06-.29.76-.74 1-1 1.35-12.92-1.2-25.46-.78-38.22.42-12.77.95-25.95.78-38.78-.34-1.99-.1-2.14 0-4 .26-.8-3.32 8.09-2 14 1.32 5.91-.56 13.71 0 20 .56 6.29-.17 13.57 0 20s.1 13.6 0 20 .13 11.99 1 18Z"/><path fill="#007A95" fill-opacity=".02" d="M534 158c.18-1.74 1.55-2.68 0-5-.8 1.09-.02 3.06 0 5ZM603 235c3.48-3.75-.54-14.52.93-19.92 1.47-5.41-1.29-13.05-.86-19.01.44-5.95 1.04-13.02.92-19.06-.11-6.04-.06-13.58-.99-19.01.17 12.83-.36 26.01-.78 38.78-.42 12.76 2.13 25.3.78 38.22ZM534 182c.16-1.94.09-3.48 0-5-.08 1.7-.01 4.15 0 5Z"/><path fill="#00AED7" d="M530 392c-3-2.3 6.35-4.01 9.25-6.75 2.91-2.73 8.74-4.41 12-7 3.27-2.58 9.64-3.85 10.75-8.25-15.53 10.22-25.44 14.03-41.92 24.08-16.47 10.05-15.46 26.13-10.86 43.7 4.61 17.57 1.46 41.16 3.78 60.22 2.32 19.06-.23 41.1-2 59-1.99-4.72.42-11.25-2-16 .8 6.93-1.68 14.3-1.78 20.78-.09 6.48 2.1 14.96 1.78 21.22-.33 6.25-.66 12.84-.01 18.99.66 6.15-1.47 13.47.01 19.01 1.48 5.54-1.01 19.65-3 12-.08 5.45 1.44 10.96 0 16-1.44 5.04.79 12.52-1.01 16.99-1.79 4.47 2.13 12.34-1.99 10.01.61 4.67-3.26 7.51-1 12-7.86-6.15-4.51 10.91-6 17-3.97-4.49-1.62 1.85-3.25 2.61-1.62.75-3.75.99-1.75 4.39-2.28 1.21-4.54 3.25-6 7-4.46-1.27-7.74-4.1-12-3-3.38-8.04-8.24-13.21-12.08-21.92-3.83-8.72-.26-15.57-3.94-23.06-3.69-7.48-2.82-17-3.92-24.94-1.09-7.94-6.33-15.57-6.06-25.08.27-9.51-1.53-21.28-2-31-.46-9.71.08-18.46-1.6-27.26-1.67-8.79-.36-21.61-2.4-30.74-.55 3.51 1.16 8.24-1 11-1.66-15.18-2.47-34.55-2.01-50.99.47-16.44-1.69-33.7.03-49.99 1.73-16.28 9.97-30.2-.25-43.79s-18.96-16.98-31.69-26.31c-12.72-9.34-21.59-13.77-30.16-27.84-8.57-14.08-8.26-30.99-9.92-48.08-1.66-17.09 2.48-40.76 0-58-2.48-17.24 5.88-40.92-2-56 2.46 19.5-1.01 42.6 0 62s.97 42.41 1.01 60.99c.04 18.59 2.62 35.69 12.74 49.26 10.13 13.56 20.34 19.34 33 28 12.67 8.65 29.63 18.45 24.57 36.07-5.05 17.62-4.59 37.16-4.32 55.68.27 18.52-.4 40.03 0 59s-.92 43.87.07 61.93c.99 18.05.12 30.18-.07 48.07s2.23 40 1 58-.82 35.65-1.02 52.98c-.21 17.32-1.61 35.65-1.33 53.33.27 17.67-1.91 38.25-.64 55.68 1.26 17.43-1.31 38.35 15.92 46.08 17.22 7.73 35.25 3.15 52.4.26 17.15-2.89 25.76-18.34 25.67-35.33-.08-16.98 1.56-36.75 1-55s.77-41.75 0-60c-.78-18.25-.7-33.94-1.02-51.97-.32-18.04-.77-32.77-1.31-51.36-.54-18.59-.51-40.71-1.67-59.67s.4-37.44-1.01-55.99c-1.4-18.56-.33-38.32-1.99-56.01-1.67-17.69 1.83-36.75-4.02-53.98-5.85-17.22.64-30.18 17.02-38.02Z"/><path fill="#007A95" fill-opacity=".02" d="M534 199c.05-1.74.09-3.62 0-5-.08 1.79-.09 4.04 0 5Z"/><path fill="#007A95" fill-opacity=".04" d="M398 260c2.15-4.74.61-12.29.98-17.97.36-5.69.68-16.81.02-23.03-.65-6.22 2.33-16.74-1-21-1.54 5.26-.92 13.2-.34 19.32.58 6.12-1.85 15.28-.66 21.68s-2.45 16.61 1 21Z"/><path fill="#007A95" fill-opacity=".02" d="M534 209c-.01-.88.04-3.62 0-5-.09 1.01-.24 3.11 0 5ZM564 218c.07-1.22.07-2.41 0-4-.13 1.22-.15 2.78 0 4ZM359 226c1.89-3.1.13-3.86 0-5-.09 1.66 0 3.34 0 5ZM533 222c.18 1.3 1.25 2.94 1 5 1.88-2.39.11-3.5 0-6-.21.26-.95.65-1 1ZM564 229c.03-.98.03-3.96 0-5a32.1 32.1 0 0 0 0 5ZM360 245c.19-3.45 1.68-17.71-1-18 0 6.05.48 12.63 1 18ZM534 246c.41-4.29 3.06-13.86 0-18v18ZM564 241c.07-1.36.04-4.62 0-6-.13 1.97-.06 4.03 0 6ZM602 241c.24-2.67 3.09-1.72 0-5 .47 2.19-.06 3.07 0 5ZM427 256c0-.86-.03-5.13 0-6-.22 1.83-.19 4.16 0 6ZM398 290c2.05-3.2.79-11.39.93-14.92.14-3.53 1.03-11.01-.93-14.08-1.18 8.41-1.2 20.51 0 29Z"/><path fill="#00AED7" fill-opacity=".55" d="M362 263c-2.94 4.99 1.26 7.32 0 0Z"/><path fill="#007A95" fill-opacity=".02" d="M466 282c.04-1.42.12-4.45 0-6 0 1.99-.12 4.02 0 6Z"/><path fill="#00CCD4" fill-opacity=".09" d="M411 319c5.94 1.89 11.74 4.36 18 5 .59-12.24.1-27.05-2-37-.19 12.13.55 23.63 0 35-4.72-2.32-12.15-1.85-16-3Z"/><path fill="#007A95" fill-opacity=".02" d="M467 326c.63-12.91-.4-26.82-1-39-.3 5.23-.69 15.19 0 20 .69 4.81-2.63 16.46 1 19ZM398 300c1.45-1.89.84-7.16 0-9-.88 3.28-.39 5.66 0 9ZM360 293v6c.32-.24 2-.02 2 0 .11-2.35-2.13-4.46 0-7-.39.07-1.79.63-2 1Z"/><path fill="#00AED7" fill-opacity=".57" d="M362 299c-.12 2.6-1.76 3.09-2 4 .03 2.4.65 5.85 1 7 .35 1.17.86 1.68 1 3 .21 1.97-1.15 4.4-1 7 .84 3.79-.61 8.54 0 13-.26-.95 1.7 1.65 2 4 .4 3.14.39 5.04 1 8 .33 1.59.55 3.4 1 5 .98 2.5.57 2.92 1 5 .48 1.2 1.81 4.49 2 5 2.19 4.02 3.45 7.74 6 12 1.21 1.51 4.4 6.19 5 7 2.59 2.91 5.05 4.87 8 8 .51.39 3.68 3.57 4 4 6.63 6.01 13.27 8.79 20 15 1.87 1.03 2.5-.84 3 2 0 0 .7-.24 1 0 1.88 1.5 3.5 2.55 5 3 1.22.37 1.2.06 2 1 .83.98.67 1.86 1 3 .94 3.28.23 4.91 0 8 .05 1.87 1 5.4 1 8 0 3.35-.84 7.42-1 10 .28 5.61.33 10.33 0 16 .12.33 1.95.84 2 1 .93-9.91-.7-20.07 0-30 2.35 18.19.66 38.38 0 57 0 8.39 1.84 19.96-2 27v1c1.79 2.42.96 5.64 0 8-.1.7-.97 1.78-1 2 .23 1.15.82 1.8 1 3 .44 2.89-.8 5.91-1 8 0 13.97-.25 29.31 0 42 .06 2.81-.8 5.94-1 8 0 7.66.15 15.34 0 23-.05 2.4-.84 5.32-1 7-.04 12.22 0 24.9 0 38 0 2 .07 4 0 6-.06 1.86-.83 3.81-1 5 0 19.66.58 39.98-1 56-.18 1.87-.9 4.79-1 6 .07 3.86.78 7.16 1 11 .13 2.26.19 4.75 0 7-.38 4.46-1.51 8.85-1 13 .27 2.22-.63 2.96-1 5-.47 11.88.61 23.76 0 35-.14 2.54-.9 6.18-1 8 .52 10.35-.94 24.01 1 34 3.6 18.51-.62 39.67 1 59-2.2-.74.31-4.33-2-5 0 5.41.34 10.66 1 16 .24 1.17 1.55 3.5 2 5 1.46 4.86 2.72 8.62 8 10-13.12-9.65-5.83-31.23-8-47s1.14-37.22 1-54c-.14-16.78.58-36.72 1-54 .42-17.28 1.5-35.51 2-53 .5-17.49-.09-35.52 1-53 1.09-17.48.81-35.74 1.67-53.33.86-17.59.66-36.06 1.33-53.67s-.23-36.72 1-54-1.36-37.28 0-54 .99-34.48-13.3-41.7c-14.29-7.21-19.12-14.37-29.95-25.05-10.83-10.68-15.13-22.45-17.82-37.18-2.69-14.72-2.93-35.3-2.93-51.07 0 0-.52-.09-1 0-2.13 2.54.11 4.65 0 7Z"/><path fill="#007A95" fill-opacity=".02" d="M535 300c.12-1.71.01-4.15 0-5-.18 2.21-1.81 2.94 0 5Z"/><path fill="#00CCD4" fill-opacity=".11" d="M360 303c.24-.91 1.88-1.4 2-4 0-.02-1.68-.24-2 0 0 1.33-.02 2.67 0 4Z"/><path fill="#007A95" fill-opacity=".02" d="M398 307c.08-2.43 1.67-3.38 0-6-.17 1.22-.07 4.73 0 6ZM536 310c0-2.94.64-6.78-1-9-2.58 4.03.91 8.75 1 9Z"/><path fill="#00CCD4" fill-opacity=".09" d="M536 314c-3.96.43-1.16 6.24-2 9 11.11-.96 21.87-4.03 32-9 1.53-4.02-1.45-7.91-2-11 3.73 16.85-18.02 14.07-28 19-1-3.05-.2-5 0-8Z"/><path fill="#007A95" fill-opacity=".02" d="M602 318c.18-3 1-7.83 1-12-.67 3.88-2.71 7.48-1 12Z"/><path fill="#00CCD4" fill-opacity=".05" d="M360 313c.32.24 1.67.24 2 0-.14-1.32-.65-1.83-1-3-.29.96-.87 1.51-1 3Z"/><path fill="#007A95" fill-opacity=".02" d="M361 320c-.15-2.6 1.21-5.03 1-7-.33.24-1.68.24-2 0-.24 2.68.55 4.97 1 7ZM600 337c1.34-5.4 2-10.73 2-17-2.02 4.74-1.56 11.46-2 17Z"/><path fill="#007A95" fill-opacity=".03" d="M361 333c.32 2.33 1.39 2.42 2 4-.3-2.35-2.26-4.95-2-4Z"/><path fill="#007A95" fill-opacity=".02" d="M365 350c-.45-1.6-.67-3.41-1-5 .12 1.54.18 2.92 1 5ZM593 362c1.88-2.79 2.34-3.52 3-7 .12-.3-2.21 4.99-3 7ZM368 360c-.19-.51-1.52-3.8-2-5 .41 1.96 1.17 3.47 2 5ZM589 371c1.52-1.85 2.14-3.71 3-6-.91 1.37-1.62 3.6-3 6ZM379 379c-.6-.81-3.79-5.49-5-7 1.28 2.14 3.05 4.81 5 7Z"/><path fill="#00CCD4" fill-opacity=".47" d="M535 414c5.29-4.22 13.54-7.75 21-11 2-1.36 4.36-3.35 6-5 .75-.76.93-1.38 2-2 .91-.52 2.26-.53 3-1 1.94-1.96 3.83-4.13 6-6 2.62-2.26 7.42-6.1 9-9 .1-1.06.14-1.39 1-3 .55-1.03.64-1.97 1-3-3.28 4.28-8.08 8.03-11.75 12.25-3.67 4.22-7.44 7.88-12.02 10.98-4.58 3.1-8.95 6.27-14 9-5.05 2.73-10.73 5.64-11.23 7.77Z"/><path fill="#007A95" fill-opacity=".02" d="M582 380c-1.58 2.9-6.38 6.74-9 9 3.83-2.68 8.87-7.63 9-9Z"/><path fill="#007A95" fill-opacity=".01" d="M387 387c1.28 1.36 2.38 2.53 4 4-.32-.43-3.49-3.61-4-4ZM564 396c.85-.18.24 1.79 3-1-.74.47-2.09.48-3 1Z"/><path fill="#007A95" fill-opacity=".02" d="M556 403c2.32-1.01 4.05-1.73 6-5-1.64 1.65-4 3.64-6 5Z"/><path fill="#00CCD4" fill-opacity=".05" d="M414 408c-.5-2.84-1.13-.97-3-2 1.13 1.04 1.02 2.06 3 2Z"/><path fill="#007A95" fill-opacity=".02" d="M420 411c-1.5-.45-3.12-1.5-5-3 1.93 2.76 2.63 3.09 5 3ZM423 415c-.33-1.14-.17-2.02-1-3 .02.05.89 2.74 1 3Z"/><path fill="#00CCD4" fill-opacity=".38" d="M529 520c.24 2.49 1.01 7.67 2 10v-11c0-4.02-.1-8.61 0-12-.21-2.19-.91-4.52-1-7-.61-16.03.44-32.42-1-48-.16-1.73-.95-4.61-1-7-.16-8.04-.43-16.06 0-23-.28-3.1-1.5-2.2 1-4 1.99-1.43 2.79-1.45 4-2-1.64-4.02-5.19 1.46-8 1-.52 34.59 4 68.62 4 103Z"/><path fill="#007A95" fill-opacity=".02" d="M528 422c.14-2.22-.64-1.89 1-4-2.5 1.8-1.28.9-1 4Z"/><path fill="#00CCD4" fill-opacity=".02" d="M423 431c0-.04 1 0 1 0 0-2.6-.95-6.13-1-8-.19 2.63 0 5.36 0 8Z"/><path fill="#00CCD4" fill-opacity=".33" d="M425 458c-.25 2.64-1.79 6.77-2 9 .15 7.63 0 16.32 0 25 .15-1.56 1.86-5.5 2-7 .66-18.62 2.35-38.81 0-57-.7 9.93.93 20.09 0 30Z"/><path fill="#007A95" fill-opacity=".02" d="M423 441c.16-2.58 1-6.65 1-10 0 0-1-.04-1 0 0 3.32-.17 6.69 0 10ZM529 452c-.01-2.44-.83-5.23-1-7 .05 2.39.84 5.27 1 7ZM423 467c.21-2.23 1.75-6.36 2-9-.05-.16-1.88-.67-2-1-.19 3.29-.07 6.7 0 10Z"/><path fill="#00AED7" fill-opacity=".2" d="M423 492v20c3.84-7.04 2-18.61 2-27-.14 1.5-1.85 5.44-2 7Z"/><path fill="#007A95" fill-opacity=".02" d="M531 507c.05-1.55-.77-5.1-1-7 .09 2.48.79 4.81 1 7Z"/><path fill="#00CCD4" fill-opacity=".09" d="M423 517c0 1.29.18 2.73 0 4 .96-2.36 1.79-5.58 0-8v4Z"/><path fill="#007A95" fill-opacity=".02" d="M422 523c.03-.22.9-1.3 1-2 .18-1.27 0-2.71 0-4-.21 1.56-1.46 3.65-1 6ZM531 530c0 .5.12 1.53 0 2 .59 1.53 1.28 2.14 0 4 .01.1.84 2.51 1 3 .11.35.99.82 1 1 .5-6.94-1.39-14.65-2-21v11Z"/><path fill="#00AED7" fill-opacity=".72" d="M530 533c.13-.27.91-.65 1-1 .12-.47 0-1.5 0-2-.99-2.33-1.76-7.51-2-10 0 4.56.7 8.72 1 13Z"/><path fill="#00CCD4" fill-opacity=".03" d="M422 534c.2-2.09 1.44-5.11 1-8 .03 1.63-1 5.54-1 8Z"/><path fill="#00CCD4" fill-opacity=".31" d="M530 533c.09 1.32 0 2.68 0 4 .05-.23.79-.7 1-1 1.28-1.86.59-2.47 0-4-.09.35-.87.73-1 1Z"/><path fill="#00AED7" fill-opacity=".6" d="M530 537c0 4.34-.55 9.36 1 13 0-3.65.85-8.13 1-11-.16-.49-.99-2.9-1-3-.21.3-.95.77-1 1Z"/><path fill="#00CCD4" fill-opacity=".18" d="M531 550v2c.34.23 1 0 1 0 1.4-1.36.84-9.74 1-12-.01-.18-.89-.65-1-1-.15 2.87-1 7.35-1 11Z"/><path fill="#00AED7" fill-opacity=".5" d="M539 676c-3.5-15.14-.5-33.36-2-47-.12-1.12-.93-3.26-1-5-.16-4.1-.62-8.2-1-12-.16-1.63 0-3.36 0-5v-5c0-1.33.02-2.67 0-4-.17-1.26-1.04-3.09-1-5-.1-.95.06-2.01 0-3-.1-1.65 0-3.34 0-5 0-2.98.16-6.02 0-9-.14-2.6-.54-4.6-1-7-.76-3.96-.07-7.65 0-11-.29-1.99-.02-4.26-1-6 0 0-.66.23-1 0 0 10.32-.49 23.79.22 33.78.71 9.98 2.44 20.8 2.78 30.22.34 9.42.23 25.02 1 33s-2.91 27.34 4 27m-6-105c1.21 6.27-2.9 3.91 0 0Z"/><path fill="#00CCD4" fill-opacity=".09" d="M533 569c.03-3.22.57-7.09 0-11-.07 3.35-.76 7.04 0 11Z"/><path fill="#00CCD4" fill-opacity=".45" d="M533 571c-2.9 3.91 1.21 6.27 0 0Z"/><path fill="#00CCD4" fill-opacity=".03" d="M421 584c.2-2.06 1.06-5.19 1-8-.19 2.03-1 5.24-1 8Z"/><path fill="#007A95" fill-opacity=".02" d="M534 585c.05-.15 1 0 1 0 .13-3.24-.58-6.42-1-9 .16 2.98 0 6.02 0 9Z"/><path fill="#00CCD4" fill-opacity=".04" d="M534 590c.11-1.07.93-3.24 1-5 0 0-.95-.15-1 0 0 1.66-.1 3.35 0 5Z"/><path fill="#00CCD4" fill-opacity=".09" d="M535 598c-.03-1.78-.88-3.87-1-5-.04 1.91.83 3.74 1 5Z"/><path fill="#007A95" fill-opacity=".02" d="M535 607c.05-.15 1 0 1 0 0-1.88-.83-3.76-1-5v5ZM420 614c.16-1.68.95-4.6 1-7-.17 1.72-.99 4.55-1 7Z"/><path fill="#00CCD4" fill-opacity=".03" d="M535 612c.05-1.11 1.63-3.03 1-5 0 0-.95-.15-1 0 0 1.64-.16 3.37 0 5Z"/><path fill="#007A95" fill-opacity=".02" d="M537 629c.01-1.89-.83-3.75-1-5 .07 1.74.88 3.88 1 5ZM419 658c.05-.15 1 0 1 0 .07-2 0-4 0-6-.17 1.44-.97 3.85-1 6Z"/><path fill="#00CCD4" fill-opacity=".02" d="M419 663c.17-1.19.94-3.14 1-5 0 0-.95-.15-1 0-.03 1.67 0 3.33 0 5Z"/><path fill="#00AED7" fill-opacity=".4" d="M540 741c.24-2.47 1.87-7.61 2-10-.42-6.84-1-15.2-1-23-.5-2.49-1.09-6.49-1-11 .08-3.93-.23-7.37-1-11-.39-1.85-.32-2.23 0-4-.12-.96 0-2.03 0-3v-1c-3.99.23-1.8 16.02-1.78 20.78.02 4.76 1.6 15.46 1.78 21.22.18 5.76.54 15.18 1 21Z"/><path fill="#007A95" fill-opacity=".02" d="M539 682c.1.84.95 1.66 1 2 .27-1.81.14-3.82-1-5 0 .97-.12 2.04 0 3Z"/><path fill="#00CCD4" fill-opacity=".06" d="M539 686c.09-.73 1.23-.54 1-2-.05-.34-.9-1.16-1-2-.32 1.77-.39 2.15 0 4Z"/><path fill="#007A95" fill-opacity=".04" d="M541 708c0-3.92-.77-8.22-1-11-.09 4.51.5 8.51 1 11Z"/><path fill="#007A95" fill-opacity=".02" d="M417 725c.1-1.21.82-4.13 1-6 .15-.57-1.04 3.78-1 6Z"/><path fill="#00AED7" fill-opacity=".3" d="M540 741c.71 9.01 1 18.09 1 27 .78 8.08-.05 21.53 3 29-.18-1.27 0-2.71 0-4 0-5.71.43-11.87 0-17-.14-1.71-.95-4.63-1-7-.1-5.12.38-10.43 0-15-.14-1.71-.95-4.63-1-7-.11-5.31.32-10.7 0-16-.13 2.39-1.76 7.53-2 10Z"/><path fill="#00CCD4" fill-opacity=".02" d="M418 743c.19-2.25.13-4.74 0-7-.08 1.6-.01 5.4 0 7Z"/><path fill="#007A95" fill-opacity=".02" d="M543 754c.01-2.45-.83-5.23-1-7 .05 2.37.86 5.29 1 7Z"/><path fill="#00CCD4" fill-opacity=".04" d="M416 761c.37-2.04 1.27-2.78 1-5-.14 1.14-.93 3.19-1 5Z"/><path fill="#00AED7" fill-opacity=".41" d="M530 927c3.43-1.43 6.28-2.9 9-5 2.36-2.31 6.68-7.29 8-10 2.36-6.62 1.63-17.68 2-25-.12-1.96-.93-5.36-1-8-.21-8.07.69-17.56 0-25-.09-.97-.85-3.44-1-5-.37-3.85 0-7.62 0-12-.16-1.13-.85-3.3-1-5-.35-3.83-.96-7.7 0-11v-1c-2.11-2.85-2.36-16.17-1-19-.15-.45-.03-1.5 0-2-.54.81-1.01-2.09-1-2-3.05-7.47-2.22-20.92-3-29 0 27.32 4.32 59.19 4 86-.32 26.81 9.67 56.42-15 73Z"/><path fill="#007A95" fill-opacity=".02" d="M544 776c.01-2.45-.83-5.23-1-7 .05 2.37.86 5.29 1 7ZM544 797c-.01-.09.46 2.81 1 2 .14-2.24-.82-4.45-1-6 0 1.29-.18 2.73 0 4ZM415 804c.1-1.82.86-5.46 1-8-.36 2.23-1.15 5.05-1 8ZM546 820c0-6.15.97-13.3-1-19-1.36 2.83-1.11 16.15 1 19ZM546 832c.04.14 1 0 1 0-.15-3.43.31-7.82-1-11-.96 3.3-.35 7.17 0 11Z"/><path fill="#00CCD4" fill-opacity=".02" d="M547 837c0-1.66.07-3.34 0-5 0 0-.96.14-1 0 .15 1.7.84 3.87 1 5Z"/><path fill="#00AED7" fill-opacity=".31" d="M415 892c2.31.67-.2 4.26 2 5-1.62-19.33 2.6-40.49-1-59-.33 16.3-1 36.23-1 54Z"/><path fill="#007A95" fill-opacity=".02" d="M548 854c.05-2.04-.69-3.57-1-5 .15 1.56.91 4.03 1 5ZM549 887c.15-2.91-.68-5.76-1-8 .07 2.64.88 6.04 1 8ZM418 913c-.45-1.5-1.76-3.83-2-5 .3 2.44 1.21 3.13 2 5ZM539 922c3.32-2.57 6.57-5.98 8-10-1.32 2.71-5.64 7.69-8 10Z"/><path fill="#00AED7" fill-opacity=".47" d="M440 931c-4.03-2.12-8.65-4.86-13-7 2.93 3.06 8.92 5.56 13 7Z"/><path fill="#00AED7" fill-opacity=".34" d="M502 939c7.65-2.7 15.02-3.26 22-8-4.06 1.9-19.77 3.51-22 8Z"/><path fill="#00AED7" fill-opacity=".36" d="M469 940c-6.53-3.33-17.8-4.9-26-8 6.73 4.43 16.7 7.68 26 8Z"/><path fill="#00AED7" fill-opacity=".33" d="M472 940c9.68 0 19.71.53 29-1-3.79-2.81-9.29.78-14 0-4.71-.78-10.94.11-15 1Z"/></svg>