<svg width="100%" height="100%" xmlns="http://www.w3.org/2000/svg" viewBox="0 0 961 961"><path fill="none" fill-opacity="0" stroke="#C7C7C7" stroke-opacity=".1" stroke-width=".3" d="M369 26c8.06-3.81 12.59.57 20 1 .04-.35.75-.75 1-1s.97-1.04 1-1c-4-6.09-17.68-2.05-22 1Z"/><path fill="none" fill-opacity="0" stroke="#C1C1C1" stroke-opacity=".13" stroke-width=".3" d="M430 34c.22-.63 1.6-1.46 2-2 .9-1.23 1.13-3.41 3-4 2.53-2.23 8.69-3.96 12-4 2.06-.03 3.2.19 5 1-.25-.27 0-1 0-1 .67-3.53-9.74-1.73-13.97.03-4.24 1.75-7.63 4.09-8.03 9.97Z"/><path fill="none" fill-opacity="0" stroke="#A4A4A4" stroke-opacity=".12" stroke-width=".3" d="M499 59c.15-4.49.32-9.19 1-13 .32-4.77 1.55-8.98 3-13 .31-1.51.49-1.88 1-3 .92-2.02 2.44-3.81 3-6 5.72.49 12.11-1.43 17 2 1.75.87 3.34 1.73 5 3 .32.24 1 0 1 0-2.23-5.58-9.01-6.64-15-7-5.99-.36-12.9 1.49-14.8 6.75-1.9 5.27-.07 10.02-1.87 14.58-1.8 4.56.64 15.5.67 15.67Z"/><path fill="none" fill-opacity="0" stroke="#B2B2B2" stroke-opacity=".31" stroke-width=".3" d="M452 24s-.25.73 0 1c.73.81 2.27 1.29 3 2-.4-2.18 1.08 1.17 1 1 .35.72.69 1.27 1 2 .01.43 2.9-1.84 0-3 1.06-1.12 1.84-.48 3 0-1.45-1.36-5.94-4.77-8-3Z"/><path fill="none" fill-opacity="0" stroke="#949494" stroke-opacity=".1" stroke-width=".3" d="M576 25c-1.32.53-2.22.79-4 1 0 0 .07.51 0 1-.27 2.01-2.34 1.14-3 2-5.17 8.86 1.16 21.11-2.07 29.93-3.23 8.82.94 23.1-.13 31.82-1.06 8.73.09 15.24.2 22.25-.14.26 1.1-2.38 1-2-.65-7.2 0-14.77 0-22 0-10.32.08-21.46 1-31 0-6.73.28-14.02 1-20 .08-3.78-.33-7.5 3-10 2.06-1.54 5.22-1.81 8-2 1.46-.3 3.88-1.82 6-1-.53-1.6-2.75-.72-4-1-3.39-.57-3.69-.33-7 1Z"/><path fill="none" fill-opacity="0" stroke="#CECECE" stroke-opacity=".28" stroke-width=".3" d="M583 24c1.25.28 3.47-.6 4 1-2.12-.82-4.54.7-6 1 3.99-.27 8.35-.29 12 1 .44.16 1 0 1 0-3.03-4.06-7.34-3.01-11-3Z"/><path fill="none" fill-opacity="0" stroke="#BFBFBF" stroke-width=".3" d="M369 26c-1.33.94-2.89 1.95-4 3 .01-.09.97 2.38 1 3 .05.99 0 2.01 0 3 2.9 13.23.59 28.12 1.93 42.07 1.33 13.96-1.94 29.44-.93 43.93 1.01 14.49-.24 29.37 0 44 .24 14.63.84 28.83.02 43.02-.81 14.2 1.07 25.65-.02 38.98-1.09 13.33 1.28 29.74 1 43-.28 13.26-.2 29.67 3.78 41.22 3.97 11.56 9.69 18.83 18.47 26.53 8.78 7.71 16.09 12.03 26 18 9.9 5.98 18.41 9.89 25.52 19.48 7.11 9.6 8.8 19.79 4.3 30.84-4.49 11.06-5.54 25.65-5.85 38.15-.31 12.5-.04 29.18-1.2 41.8-1.15 12.63.47 26.66-.02 39.98-.49 13.32-1.13 23.54-1 38 .13 14.46-.73 27.82-1 42s-1.31 26.42-1 41c.31 14.58-.25 26.07-.99 40.01-.75 13.94-.18 26.4-1.01 39.99-.83 13.59.67 30.24 0 44-.67 13.76-.87 27.98-1 42s.09 30.42 1.78 43.22c1.69 12.8 2.28 25.08 15.44 28.56 13.16 3.48 25.08 3.05 37.8 1.24 12.73-1.8 20.04-8.88 26.98-18.02 2.73-17.6 3.83-35.67 3-54-.83-18.33-1.95-37.47-2.93-56.07-.97-18.61-.04-36.33-1.4-54.6-1.36-18.27-1.96-35.9-2.67-54.33s-1.23-33.85-2-52-2.01-36.79-2.33-54.67c-.32-17.88-2.38-35.72-2.27-53.07.12-17.36-2.59-34.26-3.39-52.27-.81-18.01-10.3-31.98-7.01-48.99 4.04-3.68 8.22-11.79 14.25-16.75 6.02-4.97 13.2-9.44 20.45-13.55 7.24-4.12 14.57-7.25 21.53-11.47 6.96-4.22 13.09-8.55 19.52-14.48 6.44-5.92 11.65-10.29 15.55-18.45 3.9-8.16 6.66-17.35 5.7-27.3s-.55-20.71-1-31c-.45-10.29.26-18.77.02-29.02-.23-10.25.86-21.63-.01-31.99s1.26-21.72.06-32.06c-1.19-10.35 1.06-20.57-.06-30.94-1.13-10.37 1.06-21.65-.01-31.99s.72-20.82 0-31 1.99-21.22.94-31.08c-1.06-9.87 6.13-20.04 2.06-29.92-3.65-1.29-8.01-1.27-12-1-2.78.19-5.94.46-8 2-3.27 21.62.97 46.72-1 70s.04 49.36-1 73 1.23 47.05-1 70c-2.23 22.95 4.86 50.1-3 71-.78 2.08.15 2.66-2 4-1.69 1.06-4.91.69-7 2-1.87.91-2.67 1.52-5 2-3.92.8-7.23 1.98-11 3-2.25.61-5.6 1.16-8 1-7.36-.23-6.53-16.39-7-23-.47-6.61-2.8-19.98-2-28 .8-8.02-1.32-18.79.33-27.67 1.65-8.88-1.41-16.9-.33-26.33 1.08-9.43-2.36-19.62-1-29 1.36-9.38.24-18.61 0-28-.23-9.39.93-16.88.35-25.7-.58-8.81 1.47-19.78.65-29.3s.67-20.27 0-30 1-19.4 1-29c0-5.72 2.33-17.84-2-22-4.89-3.43-11.28-1.51-17-2-.56 2.19-2.08 3.98-3 6-4.18 18.86 1.11 37.6-1 57-2.11 19.4 1.77 41.51 0 61-1.77 19.49 2.28 40.37.78 59.22-1.5 18.85 1.63 41.12-.78 59.78-2.41 18.66 3.88 41.59-3 58 .45 1.47-.35 3.7-2 4 8.25 3.01 8.06-14.18 9-20 .94-5.82-.53-23.17 9-21-.41 10.02 7.15 15.9 6.93 26.07-.23 10.17 11.48 13.77 20.07 10.93 8.59-2.83 16.52-5.36 25.01-7.99 8.49-2.63 4.87-19 14.99-19.01 12.32 31.14-20.18 48.81-45.22 57.78-25.05 8.97-52.49 21.02-79.78 20.22-2.18-5.01-12.96-2.92-18.69-7.31-5.74-4.39-15.09-3.82-21-8-5.92-4.17-13.61-5.67-19.01-9.99-5.41-4.32-10.77-8.03-15.55-13.45-4.79-5.41-7.73-12.08-9.68-19.32-1.94-7.25 1.14-16.23 3.93-22.93 5.51 6.16 6.19 14.82 10 22 10.92 2.22 18.78 2.48 29.22 7.78 10.45 5.29 22.69.09 19.78-12.78s9.04-17.56 7-30c5.05 5.07 4.3 14.54 7.75 22.25 3.46 7.71 3.04 18.78 6.25 26.75 12.34-1.6 26.18.08 38-2-9.8 0-21.37 1.73-31 0-9.03.97-5.09-16.4-6.98-23.02-1.88-6.63-.33-19.99-1.95-28.05-1.62-8.06 1.38-22.53-.07-30.93-1.45-8.4 1.07-19.53 0-28-1.07-8.47 1.33-17.56-.33-26.67-1.66-9.11 1.75-19.22.33-28.33s.97-17.63 0-27c-.97-9.37-.37-19.41 0-28s-2.23-16.46-.67-25.67-.32-17.05-.33-26.33c-.01-9.28 5.84-17.91 2-27-.31-.73-.65-1.28-1-2-.24-.25-.75-.75-1-1-.73-.71-2.27-1.19-3-2-1.8-.81-2.94-1.03-5-1 11.22 2.33 4.32 25.88-2 29-5.17-7.38-3.79-17.17-10-24-5.53 7.47 1.89 21.35 0 31-1.89 9.65.64 22.62 0 33-.64 10.38-.49 21.38-1 32-.51 10.62.35 22.24 0 33-.35 10.76.42 22.26 0 33-.42 10.74.78 22.45 0 33s1.65 22.94 0 33c-1.65 10.06 3.62 24.06 0 33-3.62 8.94 2.18 23.98-3 31-.22.3-.91.75-1 1-.62 1.73.12 3.83-3 3 3.29-1.36.35-4.21 1-7-1.76.5-.72 2.72-1 4-2.03-.75-3.83-.74-6-1 .6.35 1.67 1.25 2 2-3.7.67-6.6-1.44-10-2 1.72-2.62 4.63.65 7 0-1.6-2.09-5.51-2.42-8-3-.64.02-3.62 1.98-6.22.22-2.6-1.76-5.93-2.11-8.78-2.22-.5-.02-1 0-1 0h-1c-.87 0-2.16.22-3 0-5.95-1.57.35-15.85-2-21s-.06-14.59-.4-20.74c-.34-6.15-.73-15.25-.6-22.26.13-7.01.16-15.73 0-23s.56-15.73 0-23-.08-13.37 0-21c.08-7.63-.02-15.37 0-23 .02-7.63.02-15.39 0-23-.02-7.61.07-15.45 0-23-.07-7.55.17-15.59 0-23s-2.18-13.97-.22-21.22c1.96-7.25-1.6-15.52.22-22.78 1.82-7.26-.83-15 0-22-7.41-.43-11.94-4.81-20-1m216 15c-3.35-1.19-3.83-5.39-2-8 3.35 1.19 3.83 5.39 2 8Z"/><path fill="none" fill-opacity="0" stroke="#DADADA" stroke-width=".3" d="M435 28c-.25.22 0 1 0 1 6.21 6.83 4.83 16.62 10 24 6.32-3.12 13.22-26.67 2-29-3.31.04-9.47 1.77-12 4Z"/><path fill="none" fill-opacity="0" stroke="#6D6D6D" stroke-opacity=".09" stroke-width=".3" d="M390 26c.67 1.89 2.29 3.11 3 5 .71 1.89.93 3.56 1 6 2.72 14.12-1.22 31.49 2 46 .05.23.83.67 1 1-.19-19.11 4.25-42.7-6-59-.03-.04-.75.75-1 1Z"/><path fill="none" fill-opacity="0" stroke="#9B9B9B" stroke-width=".3" d="M389 27c-.83 7 1.82 14.74 0 22s1.74 15.53-.22 22.78c-1.96 7.25.05 13.81.22 21.22.17 7.41-.07 15.45 0 23 .07 7.55-.02 15.39 0 23 .02 7.61.02 15.37 0 23-.02 7.63.08 15.37 0 23-.08 7.63-.56 13.73 0 21s-.16 15.73 0 23 .13 15.99 0 23 .26 16.11.6 22.26c.34 6.15-1.95 15.59.4 20.74 2.35 5.15-3.95 19.43 2 21-2.94-1.65.7-12.57 0-17s-1.66-13.73-1-19c.66-5.27 1.33-11.98 1-18-.33-6.02.15-13.9 0-20s-1.53-12.94-1-19c.53-6.06 2.51-11.82 1-18-1.51-6.18-.38-11.64 0-18 .38-6.36-.17-12.54 0-19 .17-6.46-.11-13.48 0-20s-.12-13.51 0-20-.23-11.74-1-18 2.21-12.76 1-19-.55-12.31 0-18c0-6.77.86-14.31 0-21-.86-6.69 1.72-15.34 1-21-.71-1.89-2.33-3.11-3-5-.25.25-.96.65-1 1Z"/><path fill="none" fill-opacity="0" stroke="#A5A5A5" stroke-opacity=".66" stroke-width=".3" d="M455 27c.25.25.76.75 1 1 .08.17-1.4-3.18-1-1Z"/><path fill="none" fill-opacity="0" stroke="#9F9F9F" stroke-opacity=".98" stroke-width=".3" d="M457 30c3.84 9.09-2.01 17.72-2 27 .01 9.28 1.89 17.12.33 26.33-1.56 9.21 1.04 17.08.67 25.67-.37 8.59-.97 18.63 0 28 .97 9.37-1.42 17.89 0 27s-1.99 19.22-.33 28.33-.74 18.2.33 26.67c1.07 8.47-1.45 19.6 0 28 1.45 8.4-1.55 22.87.07 30.93 1.62 8.06.07 21.42 1.95 28.05 1.89 6.62-2.05 23.99 6.98 23.02.67-.07 1.64-1.16 3-1-1.07-.99-1.45-.78-3-1-.84-.12-.57 1.27-1-1-.08-.18-1 0-1 0-5.55-4.9-1.76-20.03-3-28-1.24-7.97-.81-21.23-1-30-.19-8.77.56-19.76 0-29-.55-9.24 1.08-20.17 1-30-.08-9.83-1.44-20.41-1-30 .44-9.59-.17-19.44 0-29 .17-9.56.96-19.43 0-29s2.38-19.32-.33-28.67c-2.71-9.35 1.92-19.4 0-29-1.92-9.6.48-18.69 1.33-28.33.12-1.32-.09-2.67 0-4 1.39.26.78 2.05 1 3 .59-.88.69-.76 1-2 .47-1.84-.41-3.52-2-5-1.16-.48-1.94-1.12-3 0 2.9 1.16.01 3.43 0 3Z"/><path fill="none" fill-opacity="0" stroke="#8B8B8B" stroke-opacity=".99" stroke-width=".3" d="M526 48c.68 7.04.25 14.15 0 22s.31 16.08 0 24c-.31 7.92.36 15.27 1 23s-.67 16.23 0 24-1.92 15.09-.67 22.67c1.25 7.58.49 15.48.67 23.33.18 7.85-.21 16.18 0 24s-.38 16.32 0 24-1.21 16.05.93 23.07c2.14 7.03-2.87 16.63-.93 22.93 1.94 6.3 1.31 16.37 2 22 .69 5.63-.38 17.63 4 20 .12-3.33-.75-5.84-1-9-1.38-7.13-.5-15.2-1-23-.5-7.8-1.1-15.93-1-24 .1-8.07-1.41-15.74-1-24 .41-8.26.01-16.78 0-25-.01-8.22.44-16.89 0-25s1.16-17.16 0-25-.39-15.41 0-23-2.65-16.4-1-24c1.65-7.6-.47-15.33 0-23s-.11-17.3-1-24c-.88-6.71 2.81-18.54 1-24-1.81-5.46-.76-21.06 1-20 .03-.5 0-1 0-1-1.66-1.27-3.25-2.13-5-3 4.33 4.16 2 16.28 2 22Z"/><path fill="none" fill-opacity="0" stroke="#A8A8A8" stroke-width=".3" d="M366 35c0 17.88-.2 34.75-.07 52.08.13 17.32.24 35.58-.93 52.92-1.17 17.35.62 36.83 1 54s-.25 37.12 0 54c.25 16.88-.53 35.47 0 52s.93 32.74 8.92 46.08c8 13.33 16.13 17.34 27.83 26.17 11.69 8.83 19.63 11.72 31 23 11.37 11.28 4.47 27.85 2.25 42.75-2.22 14.9-1.45 33.69-2 50-.55 16.31-.82 32.39-1 49-.18 16.61-1.25 33.22-1 50s-.93 29.52-1 47c-.07 17.48-2.06 35.44-1.98 53.02.09 17.58-1.27 35.44-1.02 52.98s-1.58 35.65-1 53c.58 17.35-1.53 37.39-1 54s-.65 35.18 3.33 50.67c3.97 15.49 21.2 17.19 35.67 18.33 14.47 1.14 33.23-.6 46.74-8.26 13.51-7.65 15.31-23.04 15.26-38.74-.05-15.7-1.57-35.43-2-52-.43-16.57-1.09-34.78-1.99-51.01-.91-16.22-1.67-35.47-2.01-51.99-.34-16.52-2.97-35.03-2.78-51.22.19-16.19-1.73-31.71-2.22-48.78-.49-17.08-.72-33.21-2-50s-1.2-34.24-2-51c-.8-16.76-2.34-33.93-2.4-49.75-.07-15.81-5.13-29.14-7.53-44.32-2.39-15.19 12.94-23.97 23.18-31.68 10.23-7.71 23.58-11.49 33.83-20.17 10.25-8.68 19.76-14.34 26.69-27.31 6.93-12.97 8.53-30.49 8.23-46.77-.3-16.28.49-34.78 0-52s.82-36.45 0-54c-.82-17.55 1.67-37.53 0-55s2.4-34.77 0-52c-2.4-17.23 5.72-36.39 1-52-.15.01-.65-.97-1-1 0 0-.56.16-1 0 4.07 9.88-3.12 20.05-2.06 29.92 1.05 9.86-1.66 20.9-.94 31.08s-1.07 20.66 0 31-1.12 21.62.01 31.99c1.12 10.37-1.13 20.59.06 30.94 1.2 10.34-.93 21.7-.06 32.06.87 10.36-.22 21.74.01 31.99.24 10.25-.47 18.73-.02 29.02.45 10.29.04 21.05 1 31s-1.8 19.14-5.7 27.3c-3.9 8.16-9.11 12.53-15.55 18.45-6.43 5.93-12.56 10.26-19.52 14.48-6.96 4.22-14.29 7.35-21.53 11.47-7.25 4.11-14.43 8.58-20.45 13.55-6.03 4.96-10.21 13.07-14.25 16.75-3.29 17.01 6.2 30.98 7.01 48.99.8 18.01 3.51 34.91 3.39 52.27-.11 17.35 1.95 35.19 2.27 53.07.32 17.88 1.56 36.52 2.33 54.67s1.29 33.57 2 52 1.31 36.06 2.67 54.33c1.36 18.27.43 35.99 1.4 54.6.98 18.6 2.1 37.74 2.93 56.07.83 18.33-.27 36.4-3 54-6.94 9.14-14.25 16.22-26.98 18.02-12.72 1.81-24.64 2.24-37.8-1.24-13.16-3.48-13.75-15.76-15.44-28.56-1.69-12.8-1.91-29.2-1.78-43.22.13-14.02.33-28.24 1-42 .67-13.76-.83-30.41 0-44s.26-26.05 1.01-39.99c.74-13.94 1.3-25.43.99-40.01-.31-14.58.73-26.82 1-41s1.13-27.54 1-42c-.13-14.46.51-24.68 1-38s-1.13-27.35.02-39.98c1.16-12.62.89-29.3 1.2-41.8.31-12.5 1.36-27.09 5.85-38.15 4.5-11.05 2.81-21.24-4.3-30.84-7.11-9.59-15.62-13.5-25.52-19.48-9.91-5.97-17.22-10.29-26-18-8.78-7.7-14.5-14.97-18.47-26.53-3.98-11.55-4.06-27.96-3.78-41.22.28-13.26-2.09-29.67-1-43 1.09-13.33-.79-24.78.02-38.98.82-14.19.22-28.39-.02-43.02-.24-14.63 1.01-29.51 0-44-1.01-14.49 2.26-29.97.93-43.93-1.34-13.95.97-28.84-1.93-42.07Z"/><path fill="none" fill-opacity="0" stroke="#9B9B9B" stroke-opacity=".99" stroke-width=".3" d="M432 32c-.39 1.8 0 4.15 0 6 4.01 41.42-.03 83.65 0 126 .03 42.35 3.01 87.57-1 129 0 9.02 1.28 19.09 0 28 5.18-7.02-.62-22.06 3-31 3.62-8.94-1.65-22.94 0-33 1.65-10.06-.78-22.45 0-33s-.42-22.26 0-33c.42-10.74-.35-22.24 0-33 .35-10.76-.51-22.38 0-33 .51-10.62.36-21.62 1-32 .64-10.38-1.89-23.35 0-33 1.89-9.65-5.53-23.53 0-31 0 0-.25-.78 0-1-1.87.59-2.1 2.77-3 4Z"/><path fill="none" fill-opacity="0" stroke="#929292" stroke-opacity=".98" stroke-width=".3" d="M570 38c-.21 10.64-.04 22.12-1 32v41c0 14.25.3 29.54-1 43v66c0 13.27.21 27.52-1 40 1.42 15.81 2.34 36.32 0 52 7.86-20.9.77-48.05 3-71 2.23-22.95-.04-46.36 1-70s-.97-49.72 1-73-2.27-48.38 1-70c-3.33 2.5-2.92 6.22-3 10Z"/><path fill="none" fill-opacity="0" stroke="#959595" stroke-width=".3" d="M366 35c0-.99.05-2.01 0-3-.27 5.99-2 13.08-2 20 0 9.17.83 19.66-1 28v203c1.85 8.41 1 18.83 1 28 0 4.65-.18 9.35 0 14 3.4 16.72 11.39 30.8 25.08 42.92 13.7 12.12 26.59 14.97 39.67 29.33 13.09 14.36-.34 35.79 1.25 55.75s-1.72 43.31-1 64c.72 20.69-1.86 41.44-1.93 63.07-.06 21.64-.48 46.43-1.07 67.93-.59 21.5-1.56 43.57-2 65-.44 21.43-.61 36.63-1 58-.39 21.37-1.11 44.89-1 66 .11 21.11-1.38 40.67 1.78 61.22 3.16 20.56 28.02 22.53 45.44 23.56 17.43 1.03 40.37-1.79 54.53-14.03 14.15-12.25 9.23-39.33 9.25-57.75.02-18.42-2.85-37.26-3-58-.15-20.74-2.36-43.15-2.98-64.03-.61-20.87-1.89-44.79-3.01-65.98-1.12-21.18-2.08-43.89-2.41-64.74-.33-20.85-4.01-42.73-3.59-63.26.41-20.52-4.11-45.1-2.81-64.24 1.3-19.13-7.9-38.6-6.42-56.97 1.48-18.37 25.04-21.63 37.3-31.7 12.26-10.06 27.18-16.27 37.17-31.83 10-15.55 12.48-36.74 11.75-57.25-.73-20.51 1.92-44.34 1-66-.92-21.66 1.11-45.76 0-67-1.11-21.24 1-43.33 1-64v-3c-1.61-7.32-1.5-16.91-1-25s-1.84-18.89 1-26c.47-1.17.8-1.69 1-3 .36-2.34.65-7.16-1-9-.26-.14-1.72-1.02-2-1 4.72 15.61-3.4 34.77-1 52 2.4 17.23-1.67 34.53 0 52s-.82 37.45 0 55c.82 17.55-.49 36.78 0 54s-.3 35.72 0 52-1.3 33.8-8.23 46.77c-6.93 12.97-16.44 18.63-26.69 27.31s-23.6 12.46-33.83 20.17c-10.24 7.71-25.57 16.49-23.18 31.68 2.4 15.18 7.46 28.51 7.53 44.32.06 15.82 1.6 32.99 2.4 49.75.8 16.76.72 34.21 2 51s1.51 32.92 2 50c.49 17.07 2.41 32.59 2.22 48.78-.19 16.19 2.44 34.7 2.78 51.22.34 16.52 1.1 35.77 2.01 51.99.9 16.23 1.56 34.44 1.99 51.01.43 16.57 1.95 36.3 2 52 .05 15.7-1.75 31.09-15.26 38.74-13.51 7.66-32.27 9.4-46.74 8.26-14.47-1.14-31.7-2.84-35.67-18.33-3.98-15.49-2.8-34.06-3.33-50.67-.53-16.61 1.58-36.65 1-54-.58-17.35 1.25-35.46 1-53s1.11-35.4 1.02-52.98c-.08-17.58 1.91-35.54 1.98-53.02.07-17.48 1.25-30.22 1-47s.82-33.39 1-50c.18-16.61.45-32.69 1-49 .55-16.31-.22-35.1 2-50 2.22-14.9 9.12-31.47-2.25-42.75-11.37-11.28-19.31-14.17-31-23-11.7-8.83-19.83-12.84-27.83-26.17-7.99-13.34-8.39-29.55-8.92-46.08-.53-16.53.25-35.12 0-52-.25-16.88.38-36.83 0-54s-2.17-36.65-1-54c1.17-17.34 1.06-35.6.93-52.92-.13-17.33.07-34.2.07-52.08Z"/><path fill="none" fill-opacity="0" stroke="#9F9F9F" stroke-opacity=".07" stroke-width=".3" d="M362 53c2.47-7.58.25-16.46 3-24-6.2 5.86-2.42 15.61-3 24Z"/><path fill="none" fill-opacity="0" stroke="#868686" stroke-opacity=".29" stroke-width=".3" d="M362 53c-1.99 6.11-1.42 10.92 0 18 .69 3.46.72 9.07 1 12v-3c0-9.33.17-19.44 1-28 0-6.92 1.73-14.01 2-20-.03-.62-.99-3.09-1-3-2.75 7.54-.53 16.42-3 24Z"/><path fill="none" fill-opacity="0" stroke="#717171" stroke-opacity=".97" stroke-width=".3" d="M532 314c-1.51-19.06 0-38.87 0-58v-8c-2.26-23.34-1-48.89-1-73V89c0-19.51-3.28-39.88-2-59-1.76-1.06-2.81 14.54-1 20 1.81 5.46-1.88 17.29-1 24 .89 6.7 1.47 16.33 1 24-.47 7.67 1.65 15.4 0 23s1.39 16.41 1 24c-.39 7.59-1.16 15.16 0 23s-.44 16.89 0 25-.01 16.78 0 25c.01 8.22.41 16.74 0 25-.41 8.26 1.1 15.93 1 24-.1 8.07.5 16.2 1 24 .5 7.8-.38 15.87 1 23Z"/><path fill="none" fill-opacity="0" stroke="#5C5C5C" stroke-opacity=".15" stroke-width=".3" d="M529 30c-1.28 19.12 2 39.49 2 59 .87 8.97 1 19.33 1 29v138c1.39 14.37-.27 31.81 2 46-1.07-27.35 1.25-67.38-.2-96.75-1.44-29.38 2.38-56.97-.01-85.02-2.4-28.05 3.88-65.16-3.79-91.23 0 0-.68.24-1 0 0 0 .03.5 0 1Z"/><path fill="none" fill-opacity="0" stroke="#676767" stroke-opacity=".16" stroke-width=".3" d="M598 38c.34-.6 1.25-1.67 2-2v36c.23.51 1.69.67 2 1-.84-4.81.23-15.26-.34-21.32-.57-6.06 1.69-19.24-4.66-22.68 1.65 1.84 1.36 6.66 1 9Z"/><path fill="none" fill-opacity="0" stroke="#949494" stroke-opacity=".98" stroke-width=".3" d="M503 33c-4.37 21.56-.91 46.36-3 68v34c0 31.55 1.06 63.49 0 95-1.06 31.51 2.83 63.64 0 95 6.88-16.41.59-39.34 3-58 2.41-18.66-.72-40.93.78-59.78s-2.55-39.73-.78-59.22c1.77-19.49-2.11-41.6 0-61s-3.18-38.14 1-57c-.51 1.12-.69 1.49-1 3Z"/><path fill="none" fill-opacity="0" stroke="#727272" stroke-opacity=".99" stroke-width=".3" d="M392 73c0 13.26 1.92 26.52 1 40-.92 13.48.91 26.91.98 40.02.07 13.11-1.28 26.11-.91 39.05.38 12.95-.84 27.87-.07 40.93.77 13.06-1.58 28.22 0 41 1.58 12.78-2.79 28.73 2 40V83c0-15.48-.57-30.84-1-46-.07-2.44-.29-4.11-1-6 .72 5.66-1.86 14.31-1 21 .86 6.69 0 14.23 0 21Z"/><path fill="none" fill-opacity="0" stroke="#7C7C7C" stroke-opacity=".72" stroke-width=".3" d="M460 35c0-.04 1 0 1 0v-1c-.22-.95.39-2.74-1-3-.09 1.33.12 2.68 0 4Z"/><path fill="none" fill-opacity="0" stroke="#8E8E8E" stroke-opacity=".13" stroke-width=".3" d="M430 34c-1.23 18.07-1.52 34.6-1 52s-.89 40.22-1.12 52.1c-.23 11.88-.49 25.18-.85 37.87-.36 12.69 1.36 25.15.75 37.81-.61 12.65.22 22.34.02 34.97-.2 12.64-.16 25.36 1.2 38.25.61 5.83-.3 13.07-1 19-.51 4.37-.69 7.59 0 12-.65 2.79 2.29 5.64-1 7 3.12.83 2.38-1.27 3-3-3.34-10.41 1.44-22.93 0-34s.63-23.61 0-35 .24-23.48 0-35 0-23.44 0-35V82c0-7.03.39-14.72 1-21 .65-6.73-1.49-15.14 1-21v-2c0-1.85-.39-4.2 0-6-.4.54-1.78 1.37-2 2Z"/><path fill="none" fill-opacity="0" stroke="#686868" stroke-opacity=".38" stroke-width=".3" d="M461 34v7c1.23 12.68 2 26.72 2 40 0-.04 1 0 1 0v-1c1.75-4.02.65-9.02 0-13-.91-5.59.03-16.09 0-16 .19-7.34.3-11.92-2-19-.31 1.24-.41 1.12-1 2Z"/><path fill="none" fill-opacity="0" stroke="#848484" stroke-opacity=".8" stroke-width=".3" d="M500 46c-.58 8.58 0 17.4 0 26v29c2.09-21.64-1.37-46.44 3-68-1.45 4.02-2.68 8.23-3 13Z"/><path fill="none" fill-opacity="0" stroke="#F3F3F3" stroke-width=".3" d="M585 41c1.83-2.61 1.35-6.81-2-8-1.83 2.61-1.35 6.81 2 8Z"/><path fill="none" fill-opacity="0" stroke="#888" stroke-width=".3" d="M463 326c-.6-6.54 0-13.43 0-20-5.09-28.41-1-58.81-2-88-1-29.2.32-62.17-.78-91.22-1.1-29.06.79-57.72.78-85.78v-6s-1-.04-1 0c-.85 9.64-3.25 18.73-1.33 28.33 1.92 9.6-2.71 19.65 0 29 2.71 9.35-.63 19.1.33 28.67s.17 19.44 0 29c-.17 9.56.44 19.41 0 29s.92 20.17 1 30c.08 9.83-1.55 20.76-1 30 .56 9.24-.19 20.23 0 29s-.24 22.03 1 30c1.24 7.97-2.55 23.1 3 28Z"/><path fill="none" fill-opacity="0" stroke="#5E5E5E" stroke-opacity=".98" stroke-width=".3" d="M598 38c-.2 1.31-.53 1.83-1 3-1.68 8.47 1.33 16.78.99 25.01-.34 8.23-.99 17.41-.99 25.99v3c5.03 22.92-.78 49.33 1 74s0 50.07 0 75c1.34 13.86-.89 31.21 0 46s-1.33 31.91-3.78 45.22c-2.45 13.32-9.07 21.65-17.97 31.03-8.9 9.38-17.67 13.1-27.48 20.52-9.81 7.43-22.45 7.63-30.52 18.48-8.07 10.85 3.02 26.22 2.75 39.75-.27 13.53 3.21 32.09 2 47-1.21 14.91 3.03 29.85 2.93 45.07-.1 15.22 1.06 31.7 2.05 46.95.98 15.26.94 31.63 2.02 46.98 1.08 15.35.67 31.74 2 47 1.33 15.26.61 30.83 2 46 1.39 15.17.56 32.02 2 47 1.44 14.98 2.41 32 2 47-.41 15 4.06 31.86 3 46-1.06 14.14 3.96 31.37-3.77 42.23-7.73 10.86-19.99 13.91-31.31 17.69-11.32 3.79-33.8 5.39-45.59 2.75-11.79-2.64-28.57-4-37.33-9.67 1.06 2.03 1.02 4.14 3 6 0 0 .5-.05 1 0 9.17.86 17.18 12.31 28 12-2.09 2.4-5.32-1.18-8-1 4.26 1.95 7.06 3.08 12 4-.62-.37-1.66-1.23-2-2 5.16 1.31 10.82.69 16 2 11.49.91 25.5.74 36-3 .44-.16 1 0 1 0 2.68-2.18 7.4-3.71 11.08-4.92 3.67-1.21 7.27-4.77 10.92-6.08.44-.16 1 0 1 0 4.48-6.41 9.4-8.88 10.93-17.07 1.53-8.2 1.07-19.11 1.07-27.93-.9-9.3-1-20-1-30-.96-9.91-2-21.61-2-32v-12c-1.05-10.81-2-22.47-2-34 0-14.8-2-28.36-2-43-2.26-23.31-4-47.95-4-72v-13c-1.14-11.8-2-24.43-2-37v-9c-3.21-33.16-5-67.87-5-102 0-7.58-1-14.4-1-22-.98-10.18-2.34-21.15-2-32 .34-10.85-3.72-22.37 7-27 12-5.18 23.48-12.63 34-20 17.8-14.62 26.46-32.57 32-53 .97-6.13 1.58-12.78 2-19 .84-12.37 1-24.45 1-37V90c-1.34-13.82-1.33-30.25 0-44V36c-.75.33-1.66 1.4-2 2Z"/><path fill="none" fill-opacity="0" stroke="#5F5F5F" stroke-opacity=".56" stroke-width=".3" d="M395 83c0-.04 1 0 1 0-3.22-14.51.72-31.88-2-46 .43 15.16 1 30.52 1 46Z"/><path fill="none" fill-opacity="0" stroke="#868686" stroke-opacity=".98" stroke-width=".3" d="M432 40c0 7.03-.39 14.72-1 21-.66 6.85 0 14.11 0 21v211c4.01-41.43 1.03-86.65 1-129-.03-42.35 4.01-84.58 0-126v2Z"/><path fill="none" fill-opacity="0" stroke="gray" stroke-opacity=".65" stroke-width=".3" d="M569 58v12c.96-9.88.79-21.36 1-32-.72 5.98-1 13.27-1 20Z"/><path fill="none" fill-opacity="0" stroke="#7A7A7A" stroke-opacity=".6" stroke-width=".3" d="M431 61c.61-6.28 1-13.97 1-21-2.49 5.86-.35 14.27-1 21Z"/><path fill="none" fill-opacity="0" stroke="#727272" stroke-opacity=".98" stroke-width=".3" d="M463 306V81c0-13.28-.77-27.32-2-40 .01 28.06-1.88 56.72-.78 85.78 1.1 29.05-.22 62.02.78 91.22 1 29.19-3.09 59.59 2 88Z"/><path fill="none" fill-opacity="0" stroke="#7F7F7F" stroke-width=".3" d="M597 92c0-8.58.65-17.76.99-25.99.34-8.23-2.67-16.54-.99-25.01-2.84 7.11-.5 17.91-1 26s-.61 17.68 1 25Z"/><path fill="none" fill-opacity="0" stroke="#7F7F7F" stroke-opacity=".33" stroke-width=".3" d="M499 59c-.08 2.44-.08 3.63 0 6 .08 2.33 0 4.67 0 7 .01.07 1 0 1 0 0-8.6-.58-17.42 0-26-.68 3.81-.85 8.51-1 13Z"/><path fill="none" fill-opacity="0" stroke="#5B5B5B" stroke-opacity=".7" stroke-width=".3" d="M600 90V46c-1.33 13.75-1.34 30.18 0 44Z"/><path fill="none" fill-opacity="0" stroke="#9E9E9E" stroke-width=".3" d="M534 324c-.03 0 0-1 0-1-.25-.25-1 0-1 0-4.38-2.37-3.31-14.37-4-20-.69-5.63-.06-15.7-2-22-1.94-6.3 3.07-15.9.93-22.93-2.14-7.02-.55-15.39-.93-23.07s.21-16.18 0-24 .18-16.15 0-24c-.18-7.85.58-15.75-.67-23.33-1.25-7.58 1.34-14.9.67-22.67-.67-7.77.64-16.27 0-24s-1.31-15.08-1-23c.31-7.92-.25-16.15 0-24 .25-7.85.68-14.96 0-22 0 9.6-1.67 19.27-1 29 .67 9.73-.82 20.48 0 30s-1.23 20.49-.65 29.3c.58 8.82-.58 16.31-.35 25.7.24 9.39 1.36 18.62 0 28-1.36 9.38 2.08 19.57 1 29s1.98 17.45.33 26.33c-1.65 8.88.47 19.65-.33 27.67-.8 8.02 1.53 21.39 2 28 .47 6.61-.36 22.77 7 23Z"/><path fill="none" fill-opacity="0" stroke="#5C5C5C" stroke-opacity=".19" stroke-width=".3" d="M464 67c-.05-4.62-.13-11.07 0-16 .03-.09-.91 10.41 0 16Z"/><path fill="none" fill-opacity="0" stroke="#7E7E7E" stroke-opacity=".8" stroke-width=".3" d="M363 80c1.83-8.34 1-18.83 1-28-.83 8.56-1 18.67-1 28Z"/><path fill="none" fill-opacity="0" stroke="#7B7B7B" stroke-opacity=".45" stroke-width=".3" d="M568 89c0-.04 1 0 1 0V58c-.92 9.54-1 20.68-1 31Z"/><path fill="none" fill-opacity="0" stroke="#777" stroke-opacity=".31" stroke-width=".3" d="M430 82c0-.04 1 0 1 0 0-6.89-.66-14.15 0-21-.61 6.28-1 13.97-1 21Z"/><path fill="none" fill-opacity="0" stroke="#767676" stroke-opacity=".09" stroke-width=".3" d="M497 305c.67 6.91 1.58 15.37 1 23 1.19-.72.89-1.68 1-3 2.69-31.39-1.01-63.47 0-95 1.01-31.52 0-63.44 0-95V72c0-2.33.08-4.67 0-7-.45 2.44-2.05 9.74-1.65 16.31.41 6.56-.53 15.78-.35 23.69.18 7.91.28 17.84 0 26-.27 8.16.8 16.59.33 24.33-.47 7.74.85 14.05.45 21.45-.4 7.4-1.11 17-.78 25.22.33 8.22-.15 17.56 0 26 .15 8.44-.06 17.48 0 26s-.03 17.51 0 26c.03 8.49 0 16.55 0 25Z"/><path fill="none" fill-opacity="0" stroke="#8D8D8D" stroke-opacity=".18" stroke-width=".3" d="M361 163c.68 3.56.57 9.42 0 13-1.67 10.5-2.42 12.36-1.93 23.92.49 11.57.93 25.4 1.93 40.08.91 13.39 1 26.64 1 40 0-.04 1 0 1 0v-17c-2.52-26.07-1.02-54.1-1-81 .02-26.9-1.52-55.92 1-82V83c-.28-2.93-.31-8.54-1-12 .05 1.95-2.82 10.08-1.22 14.78 1.6 4.7-1.52 10.58-.78 16.22.74 5.64-.11 13.95.6 19.26.71 5.31-1.27 10.9-.6 15.74s-.11 10.26-.27 14.25c-.16 3.98.32 6.72 1.27 11.75Z"/><path fill="none" fill-opacity="0" stroke="#7A7A7A" stroke-opacity=".6" stroke-width=".3" d="M499 135c0-.04 1 0 1 0V72s-.99.07-1 0v63Z"/><path fill="none" fill-opacity="0" stroke="#636363" stroke-opacity=".4" stroke-width=".3" d="M600 90v28c0-.04 1 0 1 0 0-4.7.33-10.4 0-15s.87-10.76 0-15 1.63-12.05 1-10c-.01-1.31.34-3.04 0-5-.31-.33-1.77-.49-2-1v18Z"/><path fill="none" fill-opacity="0" stroke="#878787" stroke-width=".3" d="M392 316c.84.22 2.13 0 3 0-.23-.16 0-1.5 0-2-4.79-11.27-.42-27.22-2-40-1.58-12.78.77-27.94 0-41-.77-13.06.45-27.98.07-40.93-.37-12.94.98-25.94.91-39.05-.07-13.11-1.9-26.54-.98-40.02.92-13.48-1-26.74-1-40-.55 5.69-1.21 11.76 0 18s-1.77 12.74-1 19 1.12 11.51 1 18c-.12 6.49.11 13.48 0 20s.17 13.54 0 20c-.17 6.46.38 12.64 0 19-.38 6.36-1.51 11.82 0 18s-.47 11.94-1 18c-.53 6.06.85 12.9 1 19 .15 6.1-.33 13.98 0 20s-.34 12.73-1 18c-.66 5.27.3 14.57 1 19s-2.94 15.35 0 17Z"/><path fill="none" fill-opacity="0" stroke="#646464" stroke-opacity=".11" stroke-width=".3" d="M601 118v167c0 7.62-.45 15.39 0 23 2.68-18.54 1.21-37.65 1.22-56.78.01-19.13.46-37.77.77-57.21.31-19.44-1.6-37.51-.99-57.01.61-19.5.22-39.88 0-59 .63-2.05-1.87 5.76-1 10 .87 4.24-.33 10.4 0 15s0 10.3 0 15Z"/><path fill="none" fill-opacity="0" stroke="#636363" stroke-opacity=".04" stroke-width=".3" d="M464 81v34c2.2 22.68 1 47.55 1 71 0 9.29.11 18.72 0 28-.11 9.28.3 18.77 0 28s.69 18.89 0 28 1.55 19.15 0 28c-1.55 8.85 3.3 20.81 0 29 1.55.22 1.93.01 3 1 .49.06 1 0 1 0 .4-.2.74-1.88 1-2h-4v-51c0-8.4.01-16.64 0-25s.02-16.66 0-25 .03-16.67 0-25c-.03-8.33.07-17.79 0-26s.16-17.14 0-25c-.16-7.86.37-17.8 0-25-.37-7.2.41-17.23 0-23s1.75-20.37-2-21v1Z"/><path fill="none" fill-opacity="0" stroke="#606060" stroke-opacity=".65" stroke-width=".3" d="M463 109c0-.04 1 0 1 0V81s-1-.04-1 0v28Z"/><path fill="none" fill-opacity="0" stroke="#797979" stroke-opacity=".44" stroke-width=".3" d="M430 104c0-.04 1 0 1 0V82s-1-.04-1 0v22Z"/><path fill="none" fill-opacity="0" stroke="#676767" stroke-opacity=".78" stroke-width=".3" d="M395 314c0 .5-.23 1.84 0 2h1c-3.49-38.48 2.61-77.4 0-116-2.61-38.6 3.48-78.44 0-117 0 0-1-.04-1 0v231Z"/><path fill="none" fill-opacity="0" stroke="#636363" stroke-opacity=".25" stroke-width=".3" d="M396 316s.5-.02 1 0c.06-1.81.86-3.87 1-5 1.31-10.92-1.26-22.28-.93-32.93.33-10.64 1.24-21.23.86-31.99-.38-10.76-.31-21.37.06-32.07.38-10.71-.81-21.44-.92-31.94-.1-10.5 1.58-22.5.71-32.85-.87-10.34 1.56-21.53-.11-31.55C396 107.66 401.6 92.99 397 84c-.17-.33-.95-.77-1-1 3.48 38.56-2.61 78.4 0 117 2.61 38.6-3.49 77.52 0 116Z"/><path fill="none" fill-opacity="0" stroke="#626262" stroke-opacity=".52" stroke-width=".3" d="M531 118c0-.04 1 0 1 0 0-9.67-.13-20.03-1-29v29Z"/><path fill="none" fill-opacity="0" stroke="#7C7D7C" stroke-opacity=".68" stroke-width=".3" d="M568 111c0-.04 1 0 1 0V89s-1-.04-1 0c0 7.23-.65 14.8 0 22Z"/><path fill="none" fill-opacity="0" stroke="#848484" stroke-width=".3" d="M364 325c.16 4.16 1.29 7.82 1 12 2.6 12.15 9.13 23.46 18.75 32.25s18.38 16.12 29.33 21.67c10.95 5.56 23.32 19.49 13.92 31.08.25.25 0 1 0 1 4.19 5.67-.32 16.69 1 24 1.32 7.31-.79 17.32 0 25s-.33 17.05-1 24v12c0 12.8.1 25.52-1 38s1.56 26.32-1 38v3c0 10.71 1.16 23.16-1 33v3c0 22.15.05 44.84-2 66v10c0 22.15.04 44.87-2 66v21c0 9-.2 18.76-1 27v12c0 25.81-1.49 52.65 1 78 6.23 17.53 27.44 18.03 45.22 20.78 17.79 2.75 38.91-1.3 56.48-10.08 17.56-8.78 15.93-31.73 14.52-50.92-1.41-19.2-1-42.28-2.22-62.78-1.22-20.5-1.4-42.7-3.97-63.03-2.57-20.32-.46-42.18-2.36-62.64s-1.33-43.53-3-64 .1-42.38-1.67-63.33c-1.77-20.95-1.56-43.1-3-64-1.44-20.89-.03-40.65-6.93-60.07-6.9-19.43 12.93-27.09 27.01-35.85 14.08-8.76 27.04-15.42 38.62-28.38 11.58-12.97 17.95-30.71 17.23-49.77-.72-19.06 2.07-45.48 2.07-64.93 0-24.93 1.78-50.33 0-75s4.03-51.08-1-74c0 20.67-2.11 42.76-1 64 1.11 21.24-.92 45.34 0 67 .92 21.66-1.73 45.49-1 66 .73 20.51-1.75 41.7-11.75 57.25-9.99 15.56-24.91 21.77-37.17 31.83-12.26 10.07-35.82 13.33-37.3 31.7-1.48 18.37 7.72 37.84 6.42 56.97-1.3 19.14 3.22 43.72 2.81 64.24-.42 20.53 3.26 42.41 3.59 63.26.33 20.85 1.29 43.56 2.41 64.74 1.12 21.19 2.4 45.11 3.01 65.98.62 20.88 2.83 43.29 2.98 64.03.15 20.74 3.02 39.58 3 58-.02 18.42 4.9 45.5-9.25 57.75-14.16 12.24-37.1 15.06-54.53 14.03-17.42-1.03-42.28-3-45.44-23.56-3.16-20.55-1.67-40.11-1.78-61.22-.11-21.11.61-44.63 1-66 .39-21.37.56-36.57 1-58 .44-21.43 1.41-43.5 2-65 .59-21.5 1.01-46.29 1.07-67.93.07-21.63 2.65-42.38 1.93-63.07-.72-20.69 2.59-44.04 1-64-1.59-19.96 11.84-41.39-1.25-55.75-13.08-14.36-25.97-17.21-39.67-29.33C375.39 355.8 367.4 341.72 364 325Z"/><path fill="none" fill-opacity="0" stroke="#7C7C7C" stroke-opacity=".72" stroke-width=".3" d="M363 263V100c-2.52 26.08-.98 55.1-1 82-.02 26.9-1.52 54.93 1 81Z"/><path fill="none" fill-opacity="0" stroke="#797979" stroke-opacity=".56" stroke-width=".3" d="M430 137c0-.04 1 0 1 0v-33s-1-.04-1 0v33Z"/><path fill="none" fill-opacity="0" stroke="#686868" stroke-opacity=".83" stroke-width=".3" d="M463 306c0 6.57-.6 13.46 0 20 0 0 .92-.18 1 0-2.8-14.94 1.19-30.71 0-46s.45-31.53 0-47c-.45-15.47 0-31.48 0-47v-77s-1-.04-1 0v197Z"/><path fill="none" fill-opacity="0" stroke="gray" stroke-opacity=".31" stroke-width=".3" d="M567 113c-2.99 5.49-.51 11.15 0 18 .44 5.93 0 12.06 0 18 0-.04 1 0 1 0 0-12.49-1.12-25.57 0-38 .1-.38-1.14 2.26-1 2Z"/><path fill="none" fill-opacity="0" stroke="#818181" stroke-opacity=".86" stroke-width=".3" d="M568 149v5c1.3-13.46 1-28.75 1-43 0 0-1-.04-1 0-1.12 12.43 0 25.51 0 38Z"/><path fill="none" fill-opacity="0" stroke="#5E5E5E" stroke-opacity=".25" stroke-width=".3" d="M464 186c0-.04 1 0 1 0 0-23.45 1.2-48.32-1-71v71Z"/><path fill="none" fill-opacity="0" stroke="#606060" stroke-opacity=".67" stroke-width=".3" d="M531 175c0-.04 1 0 1 0v-57s-1-.04-1 0v57Z"/><path fill="none" fill-opacity="0" stroke="#5B5B5B" stroke-opacity=".64" stroke-width=".3" d="M600 285c0-.04 1 0 1 0V118s-1-.04-1 0v167Z"/><path fill="none" fill-opacity="0" stroke="#858585" stroke-opacity=".05" stroke-width=".3" d="M566 201c1.07-7.63.32-16.95 1-24v-28c0-5.94.44-12.07 0-18-1.26 8.75-1.57 19.06-2 31-.43 11.94 1.49 27.67 1 39Z"/><path fill="none" fill-opacity="0" stroke="gray" stroke-opacity=".75" stroke-width=".3" d="M499 325c.05-.14 1 0 1 0 2.83-31.36-1.06-63.49 0-95 1.06-31.51 0-63.45 0-95 0 0-1-.04-1 0 0 31.56 1.01 63.48 0 95-1.01 31.53 2.69 63.61 0 95Z"/><path fill="none" fill-opacity="0" stroke="#7B7B7B" stroke-opacity=".68" stroke-width=".3" d="M430 183c0-.04 1 0 1 0v-46s-1-.04-1 0v46Z"/><path fill="none" fill-opacity="0" stroke="#7D7D7D" stroke-opacity=".6" stroke-width=".3" d="M567 177v6c.02.1 1 0 1 0v-34s-1-.04-1 0v28Z"/><path fill="none" fill-opacity="0" stroke="#A3A3A3" stroke-opacity=".01" stroke-width=".3" d="M361 176c.57-3.58.68-9.44 0-13 0-.08-1.95 6.03-1.93 7.92.02 1.9 1.91 6.98 1.93 5.08Z"/><path fill="none" fill-opacity="0" stroke="#626262" stroke-opacity=".78" stroke-width=".3" d="M532 248v-73s-1-.04-1 0c0 24.11-1.26 49.66 1 73Z"/><path fill="none" fill-opacity="0" stroke="#979797" stroke-opacity=".2" stroke-width=".3" d="M566 201c-.91 6.5-1.64 9.71 0 16 .22.84 0 2.13 0 3 .27.25 1 0 1 0-1.09-12.11 0-24.84 0-37v-6c-.68 7.05.07 16.37-1 24Z"/><path fill="none" fill-opacity="0" stroke="#828282" stroke-opacity=".8" stroke-width=".3" d="M430 322c.09-.25.78-.7 1-1 1.28-8.91 0-18.98 0-28V183s-1-.04-1 0c0 11.56-.24 23.48 0 35s-.63 23.61 0 35-1.44 23.93 0 35-3.34 23.59 0 34Z"/><path fill="none" fill-opacity="0" stroke="gray" stroke-opacity=".71" stroke-width=".3" d="M567 220c0-.04 1 0 1 0v-37s-.98.1-1 0c0 12.16-1.09 24.89 0 37Z"/><path fill="none" fill-opacity="0" stroke="#646464" stroke-opacity=".39" stroke-width=".3" d="M464 326c.43 2.27.16.88 1 1 3.3-8.19-1.55-20.15 0-29 1.55-8.85-.69-18.89 0-28s-.3-18.77 0-28-.11-18.72 0-28c.11-9.28 0-18.71 0-28 0 0-1-.04-1 0 0 15.52-.45 31.53 0 47 .45 15.47-1.19 31.71 0 47s-2.8 31.06 0 46Z"/><path fill="none" fill-opacity="0" stroke="#8B8B8B" stroke-opacity=".04" stroke-width=".3" d="M562 314c-1.37 1.55-4.21 1.79-5 4 .5.05 1 0 1 0 2.09-1.31 5.31-.94 7-2 3.79-3.75-.01-12.73 1-18s-.38-13.22 0-19c.38-5.78 0-13.08 0-19v-40c0-.87.22-2.16 0-3 .33 8.14-1.39 18.44-1.4 28.26-.02 9.81.16 26.69-.6 36.74s4.54 24.64-2 32Z"/><path fill="none" fill-opacity="0" stroke="#777" stroke-opacity=".44" stroke-width=".3" d="M566 260c0-.04 1 0 1 0 1.14-12.61 1.14-27.39 0-40 0 0-.73.25-1 0v40Z"/><path fill="none" fill-opacity="0" stroke="gray" stroke-opacity=".82" stroke-width=".3" d="M567 260c1.21-12.48 1-26.73 1-40 0 0-1-.04-1 0 1.14 12.61 1.14 27.39 0 40Z"/><path fill="none" fill-opacity="0" stroke="#888" stroke-opacity=".05" stroke-width=".3" d="M362 292c.29-3.95 0-8.04 0-12 0-13.36-.09-26.61-1-40-.18 5.47-1.07 13.84-1 20 .07 6.16 1 14.14.33 19.33-.67 5.18 1.55 11.71 1.67 12.67Z"/><path fill="none" fill-opacity="0" stroke="#757575" stroke-width=".3" d="M420 903c.13 1.3 0 2.69 0 4 .01 4.67 1.11 6.37 3 10 8.76 5.67 25.54 7.03 37.33 9.67 11.79 2.64 34.27 1.04 45.59-2.75 11.32-3.78 23.58-6.83 31.31-17.69 7.73-10.86 2.71-28.09 3.77-42.23 1.06-14.14-3.41-31-3-46 .41-15-.56-32.02-2-47-1.44-14.98-.61-31.83-2-47-1.39-15.17-.67-30.74-2-46-1.33-15.26-.92-31.65-2-47-1.08-15.35-1.04-31.72-2.02-46.98-.99-15.25-2.15-31.73-2.05-46.95.1-15.22-4.14-30.16-2.93-45.07 1.21-14.91-2.27-33.47-2-47 .27-13.53-10.82-28.9-2.75-39.75 8.07-10.85 20.71-11.05 30.52-18.48 9.81-7.42 18.58-11.14 27.48-20.52 8.9-9.38 15.52-17.71 17.97-31.03 2.45-13.31 4.67-30.43 3.78-45.22-.89-14.79 1.34-32.14 0-46 0 19.45-2.79 45.87-2.07 64.93.72 19.06-5.65 36.8-17.23 49.77-11.58 12.96-24.54 19.62-38.62 28.38-14.08 8.76-33.91 16.42-27.01 35.85 6.9 19.42 5.49 39.18 6.93 60.07 1.44 20.9 1.23 43.05 3 64 1.77 20.95 0 42.86 1.67 63.33s1.1 43.54 3 64-.21 42.32 2.36 62.64c2.57 20.33 2.75 42.53 3.97 63.03 1.22 20.5.81 43.58 2.22 62.78 1.41 19.19 3.04 42.14-14.52 50.92-17.57 8.78-38.69 12.83-56.48 10.08-17.78-2.75-38.99-3.25-45.22-20.78Z"/><path fill="none" fill-opacity="0" stroke="#707070" stroke-opacity=".38" stroke-width=".3" d="M532 314c.25 3.16 1.12 5.67 1 9 0 0 .75-.25 1 0 .27-2.95-.45-6.08 0-9 .65-4.24 1.05-5.43 0-12-2.27-14.19-.61-31.63-2-46 0 19.13-1.51 38.94 0 58Z"/><path fill="none" fill-opacity="0" stroke="gray" stroke-opacity=".59" stroke-width=".3" d="M565 316c2.15-1.34 1.22-1.92 2-4 2.34-15.68 1.42-36.19 0-52 0 0-1-.04-1 0 0 5.92.38 13.22 0 19-.38 5.78 1.01 13.73 0 19s2.79 14.25-1 18Z"/><path fill="none" fill-opacity="0" stroke="#7A7A7A" stroke-opacity=".34" stroke-width=".3" d="M362 292c-.58 7.9-.21 16.1 0 21-.76-1.41 2.06 6.42 1 11s1.44 11.05 2 15c.03-.5-.03-1.5 0-2 .29-4.18-.84-7.84-1-12-.18-4.65 0-9.35 0-14-.84-8.64-1-18.66-1-28v-3s-1-.04-1 0c0 3.96.29 8.05 0 12Z"/><path fill="none" fill-opacity="0" stroke="#DBDBDB" stroke-width=".3" d="M498 329c-.44-.16-1.5 0-2 0-11.82 2.08-25.66.4-38 2-3.21-7.97-2.79-19.04-6.25-26.75-3.45-7.71-2.7-17.18-7.75-22.25 2.04 12.44-9.91 17.13-7 30 2.91 12.87-9.33 18.07-19.78 12.78-10.44-5.3-18.3-5.56-29.22-7.78-3.81-7.18-4.49-15.84-10-22-2.79 6.7-5.87 15.68-3.93 22.93 1.95 7.24 4.89 13.91 9.68 19.32 4.78 5.42 10.14 9.13 15.55 13.45 5.4 4.32 13.09 5.82 19.01 9.99 5.91 4.18 15.26 3.61 21 8 5.73 4.39 16.51 2.3 18.69 7.31 27.29.8 54.73-11.25 79.78-20.22 25.04-8.97 57.54-26.64 45.22-57.78-10.12.01-6.5 16.38-14.99 19.01-8.49 2.63-16.42 5.16-25.01 7.99-8.59 2.84-20.3-.76-20.07-10.93.22-10.17-7.34-16.05-6.93-26.07-9.53-2.17-8.06 15.18-9 21-.94 5.82-.75 23.01-9 20m-89 12c9.47.91 22.46.64 31.67.67 9.21.03 18.35 6.08 27.33 6.33 8.98.24 22.83 2.29 30.07-.93 7.25-3.21 27.52-5.79 21.68 1.68s-17.47 5.98-25.77 9.23c-8.31 3.24-23 2.46-32.05 1.09-9.05-1.37-20.49-2.99-29-6-8.51-3-19.37-5.54-23.93-12.07Z"/><path fill="none" fill-opacity="0" stroke="#7D7D7D" stroke-opacity=".84" stroke-width=".3" d="M364 311c0-9.17.85-19.59-1-28 0 9.34.16 19.36 1 28Z"/><path fill="none" fill-opacity="0" stroke="#585858" stroke-opacity=".42" stroke-width=".3" d="M599 322c.28-1.19 1.73-3.85 2-5 .14-3.49.21-5.54 0-9-.45-7.61 0-15.38 0-23 0 0-1-.04-1 0 0 12.55-.16 24.63-1 37Z"/><path fill="none" fill-opacity="0" stroke="#E6E6E6" stroke-opacity=".01" stroke-width=".3" d="M428 306c.7-5.93 1.61-13.17 1-19-.02.99-2.26 4.81-2 8 .26 3.19.99 8.47 1 11Z"/><path fill="none" fill-opacity="0" stroke="#B4B4B4" stroke-opacity=".03" stroke-width=".3" d="M470 326c-.26.12-.6 1.8-1 2 4.19 0 9.97.85 14 0 4.03-.85 11.59 2.07 15 0 .58-7.63-.33-16.09-1-23v21c-7.57 2.97-19.22-3.57-27 0Z"/><path fill="none" fill-opacity="0" stroke="#767676" stroke-opacity=".1" stroke-width=".3" d="M362 313c.15 3.63-2.48 16.62-.76 19.61 1.73 2.99.95 17.17 5.76 19.39-.72-4.35-2.33-8.36-2-13-.56-3.95-3.06-10.42-2-15s-1.76-12.41-1-11Z"/><path fill="none" fill-opacity="0" stroke="#B3B3B3" stroke-opacity=".07" stroke-width=".3" d="M397 316c2.85.11 6.18.46 8.78 2.22 2.6 1.76 5.58-.2 6.22-.22-4.08-.95-12.45-1.66-14-7-.14 1.13-.94 3.19-1 5Z"/><path fill="none" fill-opacity="0" stroke="#8B8B8B" stroke-opacity=".02" stroke-width=".3" d="M534 323c1.94-.16 4.29-.04 6-1-.24-.2 0-1 0-1-1.45-.08-2.86.07-4 1 1-2.72-1.99-7.44-2-8-.45 2.92.27 6.05 0 9Z"/><path fill="none" fill-opacity="0" stroke="#AFAFAF" stroke-opacity=".29" stroke-width=".3" d="M553 318c-.13.46.2 1.9 0 2 2.33-.48 3.13-1.09 5-2 0 0-.5.05-1 0-.35-.03-.73-.87-1-1-1.34-.67-2.3.8-3 1m2 0c.74.74-.82-.82 0 0Z"/><path fill="none" fill-opacity="0" stroke="#5D5D5D" stroke-opacity=".2" stroke-width=".3" d="M599 322c-.42 6.22-1.03 12.87-2 19-.69 4.32-1.34 8.7-2 13 .98-2.7 5.21-10.56 5-17-.21-6.44.79-14.52 1-20-.27 1.15-1.72 3.81-2 5Z"/><path fill="none" fill-opacity="0" stroke="#C8C8C8" stroke-opacity=".05" stroke-width=".3" d="M540 321s-.24.8 0 1c-.68-.55 2.96 1.02 2 1 3.77-1.02 7.08-2.2 11-3 .2-.1-.13-1.54 0-2-4.16 1.18-9.48.78-13 3Z"/><path fill="none" fill-opacity="0" stroke="#BBB" stroke-opacity=".06" stroke-width=".3" d="M555 318c-.82-.82.74.74 0 0Z"/><path fill="none" fill-opacity="0" stroke="#B9B9B9" stroke-opacity=".29" stroke-width=".3" d="M421 321s-.51.08-1 0c-2.37.65-5.28-2.62-7 0 3.4.56 6.3 2.67 10 2-.33-.75-1.4-1.65-2-2Z"/><path fill="none" fill-opacity="0" stroke="#BBB" stroke-opacity=".28" stroke-width=".3" d="M534 323s-.03 1 0 1c2.4.16 5.75-.39 8-1 .96.02-2.68-1.55-2-1-1.71.96-4.06.84-6 1Z"/><path fill="none" fill-opacity="0" stroke="#C1C1C1" stroke-opacity=".79" stroke-width=".3" d="M498 328c-3.41 2.07-10.97-.85-15 0-4.03.85-9.81 0-14 0 0 0-.51.06-1 0-1.36-.16-2.33.93-3 1 9.63 1.73 21.2 0 31 0 .5 0 1.56-.16 2 0 1.65-.3 2.45-2.53 2-4 0 0-.95-.14-1 0-.11 1.32.19 2.28-1 3Z"/><path fill="none" fill-opacity="0" stroke="#5D5D5D" stroke-opacity=".96" stroke-width=".3" d="M365 339c-.33 4.64 1.28 8.65 2 13 0 0 .2.61 0 1 .12.26.87.65 1 1 5.41 6.48 9.05 15.78 14 23 4.98 7.25 11.87 12.87 18 19 8.21 6.48 24.4 11.91 25 23 .2.8.89 1.69 1 3 .05.14 1 0 1 0 9.4-11.59-2.97-25.52-13.92-31.08-10.95-5.55-19.71-12.88-29.33-21.67-9.62-8.79-16.15-20.1-18.75-32.25-.03.5.03 1.5 0 2Z"/><path fill="none" fill-opacity="0" stroke="#F6F6F6" stroke-width=".3" d="M409 341c4.56 6.53 15.42 9.07 23.93 12.07 8.51 3.01 19.95 4.63 29 6s23.74 2.15 32.05-1.09c8.3-3.25 19.93-1.76 25.77-9.23 5.84-7.47-14.43-4.89-21.68-1.68-7.24 3.22-21.09 1.17-30.07.93-8.98-.25-18.12-6.3-27.33-6.33-9.21-.03-22.2.24-31.67-.67Z"/><path fill="none" fill-opacity="0" stroke="#5B5B5B" stroke-opacity=".36" stroke-width=".3" d="M565 394c6.61-4.62 10.7-11.3 17-16 6.64-4.95 11.47-13.99 13-24 .66-4.3 1.31-8.68 2-13-5.54 20.43-14.2 38.38-32 53Z"/><path fill="none" fill-opacity="0" stroke="#676767" stroke-opacity=".08" stroke-width=".3" d="M392 390c-4.12-5.28-9.28-9.58-13-15-4.52-6.59-8.21-13.6-11-21-.13-.35-.88-.74-1-1-2.67 5.13 2.39 8.7 5.81 14.75 3.42 6.04 10.44 19.6 19.19 22.25Z"/><path fill="none" fill-opacity="0" stroke="#5C5C5C" stroke-opacity=".64" stroke-width=".3" d="M379 375c.78.78 2.27 1.27 3 2-4.95-7.22-8.59-16.52-14-23 2.79 7.4 6.48 14.41 11 21Z"/><path fill="none" fill-opacity="0" stroke="#5B5B5B" stroke-opacity=".49" stroke-width=".3" d="M392 390c.35.11.74.77 1 1 2.11 1.87 4.78 3.25 7 5-6.13-6.13-13.02-11.75-18-19-.73-.73-2.22-1.22-3-2 3.72 5.42 8.88 9.72 13 15Z"/><path fill="none" fill-opacity="0" stroke="#5F5F5F" stroke-opacity=".11" stroke-width=".3" d="M565 394c-10.52 7.37-22 14.82-34 20-3.78 2.2-5.49 3.41-6 8-.21 14.13 1.7 30.03 2 45 .19 9.24 1 18.48 1 28v12c.92 9.52 2 19.71 2 30 0 15.76 2 30.5 2 46 .94 9.7 1.94 20.3 1 30 .18 8.9 1 17.08 1 26 1.34 13.84 3 28.35 3 43v4c1.56 11.45 1.53 23.72 2 36 1.31 34.27 5 68.51 5 103v6c1.01 10.41 2 21.98 2 33v20c.58 6 2.51 15.1 0 21 0 .5.02 1.5 0 2-.21 6.76-9.07 17.02-15 20 26.63-15.7 16.19-45.01 16.2-71.75.01-26.75-3.53-54.57-4.2-83.25-.67-28.68-2.1-62.25-4.01-90.99-1.91-28.74-2.91-60.17-3.99-90.01-1.08-29.84-3.92-59.04-5-88s-1.36-59.2-3-86c7.34.07 13.07-6.85 18.75-8.8 5.69-1.96 10.54-7.3 18.17-12.28 7.63-4.97 13.32-12.11 18.08-17.92-6.3 4.7-10.39 11.38-17 16Z"/><path fill="none" fill-opacity="0" stroke="#5F5F5F" stroke-opacity=".06" stroke-width=".3" d="M423 427c.15.46 1.86 1.61 2 2 0-3.32.18-6.69 0-10-.6-11.09-16.79-16.52-25-23-2.22-1.75-4.89-3.13-7-5-1.98 1.47 6.08 6.5 9.75 9.25 3.68 2.75 8.73 8.06 15 9.95 6.27 1.89 5.15 9.86 5.25 16.8Z"/><path fill="none" fill-opacity="0" stroke="#5C5C5C" stroke-opacity=".77" stroke-width=".3" d="M526 473v-6c0-14.79-2.67-30.01-1-45 .51-4.59 2.22-5.8 6-8-10.72 4.63-6.66 16.15-7 27-.34 10.85 1.02 21.82 2 32Z"/><path fill="none" fill-opacity="0" stroke="#767676" stroke-opacity=".22" stroke-width=".3" d="M425 429v56c0-.04 1 0 1 0 0-20.74 1.77-42.35 0-63-.11-1.31-.8-2.2-1-3 .18 3.31 0 6.68 0 10Z"/><path fill="none" fill-opacity="0" stroke="#7B7B7B" stroke-opacity=".62" stroke-width=".3" d="M426 485c0 6.98 1.55 17.02-1 23v16c0-.04 1 0 1 0 0-5.39.55-11.36 1-16v-12c0-24.33.01-48.67 0-73 0 0 .25-.75 0-1 0 0-.95.14-1 0 1.77 20.65 0 42.26 0 63Z"/><path fill="none" fill-opacity="0" stroke="#5B5B5B" stroke-opacity=".38" stroke-width=".3" d="M526 467c.02-.1 1 0 1 0-.3-14.97-2.21-30.87-2-45-1.67 14.99 1 30.21 1 45Z"/><path fill="none" fill-opacity="0" stroke="#7F7F7F" stroke-opacity=".89" stroke-width=".3" d="M427 496c.67-6.95 1.79-16.32 1-24s1.32-17.69 0-25c-1.32-7.31 3.19-18.33-1-24 .01 24.33 0 48.67 0 73Z"/><path fill="none" fill-opacity="0" stroke="#9A9A9A" stroke-opacity=".02" stroke-width=".3" d="M425 458v-29c-.14-.39-1.85-1.54-2-2 .07 4.7.71 14.25.07 17.92-.64 3.68-.46 11.87 1.93 13.08Z"/><path fill="none" fill-opacity="0" stroke="#7D7D7D" stroke-opacity=".07" stroke-width=".3" d="M419 715c.25-.25 1 0 1 0v-16c0-19.88.15-40.85 2-60 0-10.61 1-20.44 1-31 0-12.29-.11-25.5 1-37v-32c0-8.54-2.15-21.6 1-29v-51c-5.47 7.37-.36 20.18-2 30-1.64 9.82.93 24.12-.6 34.25-1.53 10.13-.15 22.66-.4 33.75s-.92 18.89-1 30c-.08 11.11.07 22.6-1 33-1.07 10.4.82 24.62-.01 34.99-.83 10.38-2.14 24.96-.99 35.01 1.15 10.05-4.06 17.24 0 25Z"/><path fill="none" fill-opacity="0" stroke="#5D5D5D" stroke-opacity=".49" stroke-width=".3" d="M526 473c0 7.6 1 14.42 1 22 0-.04 1 0 1 0 0-9.52-.81-18.76-1-28 0 0-.98-.1-1 0v6Z"/><path fill="none" fill-opacity="0" stroke="#797979" stroke-opacity=".36" stroke-width=".3" d="M425 508c2.55-5.98 1-16.02 1-23 0 0-1-.04-1 0v23Z"/><path fill="none" fill-opacity="0" stroke="#5D5D5D" stroke-opacity=".72" stroke-width=".3" d="M532 597v-14c0-15.5-2-30.24-2-46-.92-9.47-2-19.89-2-30v-12s-1-.04-1 0c0 34.13 1.79 68.84 5 102Z"/><path fill="none" fill-opacity="0" stroke="#5C5C5C" stroke-opacity=".45" stroke-width=".3" d="M530 537c0-10.29-1.08-20.48-2-30 0 10.11 1.08 20.53 2 30Z"/><path fill="none" fill-opacity="0" stroke="gray" stroke-opacity=".85" stroke-width=".3" d="M426 524c0 12.17-1 23.72-1 36v24c2.56-11.68-.1-25.52 1-38s1-25.2 1-38c-.45 4.64-1 10.61-1 16Z"/><path fill="none" fill-opacity="0" stroke="#787878" stroke-opacity=".22" stroke-width=".3" d="M424 539c.42-4.39 1-9.93 1-15v-14c-3.15 7.4-1 20.46-1 29Z"/><path fill="none" fill-opacity="0" stroke="#7B7B7B" stroke-opacity=".51" stroke-width=".3" d="M424 539v21c0-.04 1 0 1 0 0-12.28 1-23.83 1-36 0 0-1-.04-1 0 0 5.07-.58 10.61-1 15Z"/><path fill="none" fill-opacity="0" stroke="#7D7D7D" stroke-opacity=".63" stroke-width=".3" d="M424 571v16c0-.04 1 0 1 0v-27s-1-.04-1 0v11Z"/><path fill="none" fill-opacity="0" stroke="#7C7C7C" stroke-opacity=".4" stroke-width=".3" d="M423 608c0-.04 1 0 1 0v-37c-1.11 11.5-1 24.71-1 37Z"/><path fill="none" fill-opacity="0" stroke="#5C5C5C" stroke-opacity=".38" stroke-width=".3" d="M532 597v9c.17 1.75.95 4.6 1 7 .94-9.7-.06-20.3-1-30v14Z"/><path fill="none" fill-opacity="0" stroke="gray" stroke-opacity=".86" stroke-width=".3" d="M424 608v12c2.16-9.84 1-22.29 1-33 0 0-1-.04-1 0v21Z"/><path fill="none" fill-opacity="0" stroke="#5D5D5D" stroke-opacity=".78" stroke-width=".3" d="M534 643v-4c0-8.92-.82-17.1-1-26-.05-2.4-.83-5.25-1-7 0 12.57.86 25.2 2 37Z"/><path fill="none" fill-opacity="0" stroke="#7D7D7D" stroke-opacity=".53" stroke-width=".3" d="M422 639v4c.13.22 1 0 1 0 0-6.7-.3-14.06 1-20v-15s-1-.04-1 0c0 10.56-1 20.39-1 31Z"/><path fill="none" fill-opacity="0" stroke="#818181" stroke-opacity=".86" stroke-width=".3" d="M423 643c0 8.02-.3 16.74-1 24v22c2.05-21.16 2-43.85 2-66-1.3 5.94-1 13.3-1 20Z"/><path fill="none" fill-opacity="0" stroke="#7A7A7A" stroke-opacity=".32" stroke-width=".3" d="M420 699c.6-6.15 1.41-14.92 2-21v-39c-1.85 19.15-2 40.12-2 60Z"/><path fill="none" fill-opacity="0" stroke="#5C5C5C" stroke-opacity=".49" stroke-width=".3" d="M534 643v13c.76 7.85 1.93 18.15 3 26 0-14.65-1.66-29.16-3-43v4Z"/><path fill="none" fill-opacity="0" stroke="#7D7D7D" stroke-opacity=".67" stroke-width=".3" d="M422 667c.7-7.26 1-15.98 1-24 0 0-.87.22-1 0v24Z"/><path fill="none" fill-opacity="0" stroke="#5D5D5D" stroke-opacity=".76" stroke-width=".3" d="M538 728v-6c0-12.25-1-23.95-1-36v-4c-1.07-7.85-2.24-18.15-3-26 0 24.05 1.74 48.69 4 72Z"/><path fill="none" fill-opacity="0" stroke="#7E7E7E" stroke-opacity=".58" stroke-width=".3" d="M420 699v44c1.33-13.76.68-30.31 2-44v-21c-.59 6.08-1.4 14.85-2 21Z"/><path fill="none" fill-opacity="0" stroke="#5B5B5B" stroke-opacity=".31" stroke-width=".3" d="M538 722c.02-.1 1 0 1 0-.47-12.28-.44-24.55-2-36 0 12.05 1 23.75 1 36Z"/><path fill="none" fill-opacity="0" stroke="gray" stroke-opacity=".85" stroke-width=".3" d="M420 743v22c2.04-21.13 2-43.85 2-66-1.32 13.69-.67 30.24-2 44Z"/><path fill="none" fill-opacity="0" stroke="#7A7A7A" stroke-opacity=".35" stroke-width=".3" d="M419 716v42c0-.04 1 0 1 0v-43s-.75-.25-1 0v1Z"/><path fill="none" fill-opacity="0" stroke="#898989" stroke-opacity=".04" stroke-width=".3" d="M415 819c.15 1.56 1.86 5.5 2 7v-1c0-9.66.14-20.11 1-29v-21c0-8.35.27-17.42 1-25v-34c-4.47 6.03-.66 15.7-2 23-1.33 7.3-.19 16.49-1 25-.81 8.51.18 20.99 0 30-.18 9.01-1 16.23-1 25Z"/><path fill="none" fill-opacity="0" stroke="#5D5D5D" stroke-opacity=".46" stroke-width=".3" d="M538 728c0 14.64 2 28.2 2 43 1.05 10.81 2 22.47 2 34v12c.18 1.88 1.82 6.19 2 8 0-34.49-3.69-68.73-5-103 0 0-.98-.1-1 0v6Z"/><path fill="none" fill-opacity="0" stroke="#7A7A7A" stroke-opacity=".21" stroke-width=".3" d="M418 775c0-.04 1 0 1 0v-25c-.73 7.58-1 16.65-1 25Z"/><path fill="none" fill-opacity="0" stroke="#7E7E7E" stroke-opacity=".66" stroke-width=".3" d="M419 775v11c0-.04 1 0 1 0v-28s-1-.04-1 0v17Z"/><path fill="none" fill-opacity="0" stroke="#5D5D5D" stroke-opacity=".73" stroke-width=".3" d="M542 805c0-11.53-.95-23.19-2-34 0 11.53.95 23.19 2 34Z"/><path fill="none" fill-opacity="0" stroke="#777" stroke-opacity=".47" stroke-width=".3" d="M418 796c0 6.92 2.87 23.76-1 29v1c0 15.75-.83 36.78 0 52 .83 15.22-3.53 34.16 8 45h1c-1.98-1.86-1.94-3.97-3-6-1.89-3.63-2.99-5.33-3-10-4.23-25-3.46-56.62-1-82v-50s-1-.04-1 0v21Z"/><path fill="none" fill-opacity="0" stroke="#7F7F7F" stroke-opacity=".85" stroke-width=".3" d="M419 813c.8-8.24 1-18 1-27 0 0-1-.04-1 0v27Z"/><path fill="none" fill-opacity="0" stroke="#787878" stroke-opacity=".25" stroke-width=".3" d="M417 825c3.87-5.24 1-22.08 1-29-.86 8.89-1 19.34-1 29Z"/><path fill="none" fill-opacity="0" stroke="#5D5D5D" stroke-opacity=".67" stroke-width=".3" d="M544 849v-24c-.18-1.81-1.82-6.12-2-8 0 10.39 1.04 22.09 2 32Z"/><path fill="none" fill-opacity="0" stroke="#707070" stroke-opacity=".08" stroke-width=".3" d="M425 923c-11.53-10.84-7.17-29.78-8-45-.83-15.22 0-36.25 0-52-.14-1.5-1.85-5.44-2-7 0 11.33-.37 27.11 0 38s-.99 28.74 0 38c.99 9.26.33 26.11 10 28Z"/><path fill="none" fill-opacity="0" stroke="#7D7D7D" stroke-opacity=".81" stroke-width=".3" d="M420 907c0-1.31.13-2.7 0-4-2.49-25.35-1-52.19-1-78-2.46 25.38-3.23 57 1 82Z"/><path fill="none" fill-opacity="0" stroke="#5C5C5C" stroke-opacity=".5" stroke-width=".3" d="M544 849c0 10 .1 20.7 1 30 0-5.06.58-10.68 1-15 0-11.02-.99-22.59-2-33v18Z"/><path fill="none" fill-opacity="0" stroke="#5C5C5C" stroke-opacity=".62" stroke-width=".3" d="M545 879c0 8.82.46 19.73-1.07 27.93-1.53 8.19-6.45 10.66-10.93 17.07 6.03-2.95 11.1-11.49 13-17 .02-.5 0-1.5 0-2v-41c-.42 4.32-1 9.94-1 15Z"/><path fill="none" fill-opacity="0" stroke="#5C5C5C" stroke-opacity=".31" stroke-width=".3" d="M546 905c2.51-5.9.58-15 0-21v21Z"/><path fill="none" fill-opacity="0" stroke="#5B5B5B" stroke-opacity=".36" stroke-width=".3" d="M533 924s-.56-.16-1 0c-1.34 1.4-2.96 2.34-4 4 .43-.17 1 0 1 0 1.03-.69.64-.58 2-1 5.93-2.98 14.79-13.24 15-20-1.9 5.51-6.97 14.05-13 17Z"/><path fill="none" fill-opacity="0" stroke="#5B5B5B" stroke-opacity=".41" stroke-width=".3" d="M447 934c2.68-.18 5.91 3.4 8 1-10.82.31-18.83-11.14-28-12 2.16 5.22 15.21 9.55 20 11Z"/><path fill="none" fill-opacity="0" stroke="#5B5B5B" stroke-opacity=".62" stroke-width=".3" d="M510 935c6.36.47 12.35-4.78 18-7 1.04-1.66 2.66-2.6 4-4-3.65 1.31-7.25 4.87-10.92 6.08-3.68 1.21-8.4 2.74-11.08 4.92Z"/><path fill="none" fill-opacity="0" stroke="#5C5C5C" stroke-opacity=".18" stroke-width=".3" d="M510 935s-.56-.16-1 0c-1.84 4.05-11.37 2.96-16 4-4.64 1.04-15.68-.17-20-1-5.18-1.31-10.84-.69-16-2 .34.77 1.38 1.63 2 2 22.54 4.19 51.44 4.28 70-10 0 0-.57-.17-1 0-5.65 2.22-11.64 7.47-18 7Z"/><path fill="none" fill-opacity="0" stroke="#5B5B5B" stroke-opacity=".58" stroke-width=".3" d="M473 938c4.32.83 15.36 2.04 20 1 4.63-1.04 14.16.05 16-4-10.5 3.74-24.51 3.91-36 3Z"/><path fill="#C7C7C7" fill-opacity=".1" d="M369 26c8.06-3.81 12.59.57 20 1 .04-.35.75-.75 1-1s.97-1.04 1-1c-4-6.09-17.68-2.05-22 1Z"/><path fill="#C1C1C1" fill-opacity=".13" d="M430 34c.22-.63 1.6-1.46 2-2 .9-1.23 1.13-3.41 3-4 2.53-2.23 8.69-3.96 12-4 2.06-.03 3.2.19 5 1-.25-.27 0-1 0-1 .67-3.53-9.74-1.73-13.97.03-4.24 1.75-7.63 4.09-8.03 9.97Z"/><path fill="#A4A4A4" fill-opacity=".12" d="M499 59c.15-4.49.32-9.19 1-13 .32-4.77 1.55-8.98 3-13 .31-1.51.49-1.88 1-3 .92-2.02 2.44-3.81 3-6 5.72.49 12.11-1.43 17 2 1.75.87 3.34 1.73 5 3 .32.24 1 0 1 0-2.23-5.58-9.01-6.64-15-7-5.99-.36-12.9 1.49-14.8 6.75-1.9 5.27-.07 10.02-1.87 14.58-1.8 4.56.64 15.5.67 15.67Z"/><path fill="#B2B2B2" fill-opacity=".31" d="M452 24s-.25.73 0 1c.73.81 2.27 1.29 3 2-.4-2.18 1.08 1.17 1 1 .35.72.69 1.27 1 2 .01.43 2.9-1.84 0-3 1.06-1.12 1.84-.48 3 0-1.45-1.36-5.94-4.77-8-3Z"/><path fill="#949494" fill-opacity=".1" d="M576 25c-1.32.53-2.22.79-4 1 0 0 .07.51 0 1-.27 2.01-2.34 1.14-3 2-5.17 8.86 1.16 21.11-2.07 29.93-3.23 8.82.94 23.1-.13 31.82-1.06 8.73.09 15.24.2 22.25-.14.26 1.1-2.38 1-2-.65-7.2 0-14.77 0-22 0-10.32.08-21.46 1-31 0-6.73.28-14.02 1-20 .08-3.78-.33-7.5 3-10 2.06-1.54 5.22-1.81 8-2 1.46-.3 3.88-1.82 6-1-.53-1.6-2.75-.72-4-1-3.39-.57-3.69-.33-7 1Z"/><path fill="#CECECE" fill-opacity=".28" d="M583 24c1.25.28 3.47-.6 4 1-2.12-.82-4.54.7-6 1 3.99-.27 8.35-.29 12 1 .44.16 1 0 1 0-3.03-4.06-7.34-3.01-11-3Z"/><path fill="#BFBFBF" d="M369 26c-1.33.94-2.89 1.95-4 3 .01-.09.97 2.38 1 3 .05.99 0 2.01 0 3 2.9 13.23.59 28.12 1.93 42.07 1.33 13.96-1.94 29.44-.93 43.93 1.01 14.49-.24 29.37 0 44 .24 14.63.84 28.83.02 43.02-.81 14.2 1.07 25.65-.02 38.98-1.09 13.33 1.28 29.74 1 43-.28 13.26-.2 29.67 3.78 41.22 3.97 11.56 9.69 18.83 18.47 26.53 8.78 7.71 16.09 12.03 26 18 9.9 5.98 18.41 9.89 25.52 19.48 7.11 9.6 8.8 19.79 4.3 30.84-4.49 11.06-5.54 25.65-5.85 38.15-.31 12.5-.04 29.18-1.2 41.8-1.15 12.63.47 26.66-.02 39.98-.49 13.32-1.13 23.54-1 38 .13 14.46-.73 27.82-1 42s-1.31 26.42-1 41c.31 14.58-.25 26.07-.99 40.01-.75 13.94-.18 26.4-1.01 39.99-.83 13.59.67 30.24 0 44-.67 13.76-.87 27.98-1 42s.09 30.42 1.78 43.22c1.69 12.8 2.28 25.08 15.44 28.56 13.16 3.48 25.08 3.05 37.8 1.24 12.73-1.8 20.04-8.88 26.98-18.02 2.73-17.6 3.83-35.67 3-54-.83-18.33-1.95-37.47-2.93-56.07-.97-18.61-.04-36.33-1.4-54.6-1.36-18.27-1.96-35.9-2.67-54.33s-1.23-33.85-2-52-2.01-36.79-2.33-54.67c-.32-17.88-2.38-35.72-2.27-53.07.12-17.36-2.59-34.26-3.39-52.27-.81-18.01-10.3-31.98-7.01-48.99 4.04-3.68 8.22-11.79 14.25-16.75 6.02-4.97 13.2-9.44 20.45-13.55 7.24-4.12 14.57-7.25 21.53-11.47 6.96-4.22 13.09-8.55 19.52-14.48 6.44-5.92 11.65-10.29 15.55-18.45 3.9-8.16 6.66-17.35 5.7-27.3s-.55-20.71-1-31c-.45-10.29.26-18.77.02-29.02-.23-10.25.86-21.63-.01-31.99s1.26-21.72.06-32.06c-1.19-10.35 1.06-20.57-.06-30.94-1.13-10.37 1.06-21.65-.01-31.99s.72-20.82 0-31 1.99-21.22.94-31.08c-1.06-9.87 6.13-20.04 2.06-29.92-3.65-1.29-8.01-1.27-12-1-2.78.19-5.94.46-8 2-3.27 21.62.97 46.72-1 70s.04 49.36-1 73 1.23 47.05-1 70c-2.23 22.95 4.86 50.1-3 71-.78 2.08.15 2.66-2 4-1.69 1.06-4.91.69-7 2-1.87.91-2.67 1.52-5 2-3.92.8-7.23 1.98-11 3-2.25.61-5.6 1.16-8 1-7.36-.23-6.53-16.39-7-23-.47-6.61-2.8-19.98-2-28 .8-8.02-1.32-18.79.33-27.67 1.65-8.88-1.41-16.9-.33-26.33 1.08-9.43-2.36-19.62-1-29 1.36-9.38.24-18.61 0-28-.23-9.39.93-16.88.35-25.7-.58-8.81 1.47-19.78.65-29.3s.67-20.27 0-30 1-19.4 1-29c0-5.72 2.33-17.84-2-22-4.89-3.43-11.28-1.51-17-2-.56 2.19-2.08 3.98-3 6-4.18 18.86 1.11 37.6-1 57-2.11 19.4 1.77 41.51 0 61-1.77 19.49 2.28 40.37.78 59.22-1.5 18.85 1.63 41.12-.78 59.78-2.41 18.66 3.88 41.59-3 58 .45 1.47-.35 3.7-2 4 8.25 3.01 8.06-14.18 9-20 .94-5.82-.53-23.17 9-21-.41 10.02 7.15 15.9 6.93 26.07-.23 10.17 11.48 13.77 20.07 10.93 8.59-2.83 16.52-5.36 25.01-7.99 8.49-2.63 4.87-19 14.99-19.01 12.32 31.14-20.18 48.81-45.22 57.78-25.05 8.97-52.49 21.02-79.78 20.22-2.18-5.01-12.96-2.92-18.69-7.31-5.74-4.39-15.09-3.82-21-8-5.92-4.17-13.61-5.67-19.01-9.99-5.41-4.32-10.77-8.03-15.55-13.45-4.79-5.41-7.73-12.08-9.68-19.32-1.94-7.25 1.14-16.23 3.93-22.93 5.51 6.16 6.19 14.82 10 22 10.92 2.22 18.78 2.48 29.22 7.78 10.45 5.29 22.69.09 19.78-12.78s9.04-17.56 7-30c5.05 5.07 4.3 14.54 7.75 22.25 3.46 7.71 3.04 18.78 6.25 26.75 12.34-1.6 26.18.08 38-2-9.8 0-21.37 1.73-31 0-9.03.97-5.09-16.4-6.98-23.02-1.88-6.63-.33-19.99-1.95-28.05-1.62-8.06 1.38-22.53-.07-30.93-1.45-8.4 1.07-19.53 0-28-1.07-8.47 1.33-17.56-.33-26.67-1.66-9.11 1.75-19.22.33-28.33s.97-17.63 0-27c-.97-9.37-.37-19.41 0-28s-2.23-16.46-.67-25.67-.32-17.05-.33-26.33c-.01-9.28 5.84-17.91 2-27-.31-.73-.65-1.28-1-2-.24-.25-.75-.75-1-1-.73-.71-2.27-1.19-3-2-1.8-.81-2.94-1.03-5-1 11.22 2.33 4.32 25.88-2 29-5.17-7.38-3.79-17.17-10-24-5.53 7.47 1.89 21.35 0 31-1.89 9.65.64 22.62 0 33-.64 10.38-.49 21.38-1 32-.51 10.62.35 22.24 0 33-.35 10.76.42 22.26 0 33-.42 10.74.78 22.45 0 33s1.65 22.94 0 33c-1.65 10.06 3.62 24.06 0 33-3.62 8.94 2.18 23.98-3 31-.22.3-.91.75-1 1-.62 1.73.12 3.83-3 3 3.29-1.36.35-4.21 1-7-1.76.5-.72 2.72-1 4-2.03-.75-3.83-.74-6-1 .6.35 1.67 1.25 2 2-3.7.67-6.6-1.44-10-2 1.72-2.62 4.63.65 7 0-1.6-2.09-5.51-2.42-8-3-.64.02-3.62 1.98-6.22.22-2.6-1.76-5.93-2.11-8.78-2.22-.5-.02-1 0-1 0h-1c-.87 0-2.16.22-3 0-5.95-1.57.35-15.85-2-21s-.06-14.59-.4-20.74c-.34-6.15-.73-15.25-.6-22.26.13-7.01.16-15.73 0-23s.56-15.73 0-23-.08-13.37 0-21c.08-7.63-.02-15.37 0-23 .02-7.63.02-15.39 0-23-.02-7.61.07-15.45 0-23-.07-7.55.17-15.59 0-23s-2.18-13.97-.22-21.22c1.96-7.25-1.6-15.52.22-22.78 1.82-7.26-.83-15 0-22-7.41-.43-11.94-4.81-20-1Z"/><path fill="#DADADA" d="M435 28c-.25.22 0 1 0 1 6.21 6.83 4.83 16.62 10 24 6.32-3.12 13.22-26.67 2-29-3.31.04-9.47 1.77-12 4Z"/><path fill="#6D6D6D" fill-opacity=".09" d="M390 26c.67 1.89 2.29 3.11 3 5 .71 1.89.93 3.56 1 6 2.72 14.12-1.22 31.49 2 46 .05.23.83.67 1 1-.19-19.11 4.25-42.7-6-59-.03-.04-.75.75-1 1Z"/><path fill="#9B9B9B" d="M389 27c-.83 7 1.82 14.74 0 22s1.74 15.53-.22 22.78c-1.96 7.25.05 13.81.22 21.22.17 7.41-.07 15.45 0 23 .07 7.55-.02 15.39 0 23 .02 7.61.02 15.37 0 23-.02 7.63.08 15.37 0 23-.08 7.63-.56 13.73 0 21s-.16 15.73 0 23 .13 15.99 0 23 .26 16.11.6 22.26c.34 6.15-1.95 15.59.4 20.74 2.35 5.15-3.95 19.43 2 21-2.94-1.65.7-12.57 0-17s-1.66-13.73-1-19c.66-5.27 1.33-11.98 1-18-.33-6.02.15-13.9 0-20s-1.53-12.94-1-19c.53-6.06 2.51-11.82 1-18-1.51-6.18-.38-11.64 0-18 .38-6.36-.17-12.54 0-19 .17-6.46-.11-13.48 0-20s-.12-13.51 0-20-.23-11.74-1-18 2.21-12.76 1-19-.55-12.31 0-18c0-6.77.86-14.31 0-21-.86-6.69 1.72-15.34 1-21-.71-1.89-2.33-3.11-3-5-.25.25-.96.65-1 1Z"/><path fill="#A5A5A5" fill-opacity=".66" d="M455 27c.25.25.76.75 1 1 .08.17-1.4-3.18-1-1Z"/><path fill="#9F9F9F" fill-opacity=".98" d="M457 30c3.84 9.09-2.01 17.72-2 27 .01 9.28 1.89 17.12.33 26.33-1.56 9.21 1.04 17.08.67 25.67-.37 8.59-.97 18.63 0 28 .97 9.37-1.42 17.89 0 27s-1.99 19.22-.33 28.33-.74 18.2.33 26.67c1.07 8.47-1.45 19.6 0 28 1.45 8.4-1.55 22.87.07 30.93 1.62 8.06.07 21.42 1.95 28.05 1.89 6.62-2.05 23.99 6.98 23.02.67-.07 1.64-1.16 3-1-1.07-.99-1.45-.78-3-1-.84-.12-.57 1.27-1-1-.08-.18-1 0-1 0-5.55-4.9-1.76-20.03-3-28-1.24-7.97-.81-21.23-1-30-.19-8.77.56-19.76 0-29-.55-9.24 1.08-20.17 1-30-.08-9.83-1.44-20.41-1-30 .44-9.59-.17-19.44 0-29 .17-9.56.96-19.43 0-29s2.38-19.32-.33-28.67c-2.71-9.35 1.92-19.4 0-29-1.92-9.6.48-18.69 1.33-28.33.12-1.32-.09-2.67 0-4 1.39.26.78 2.05 1 3 .59-.88.69-.76 1-2 .47-1.84-.41-3.52-2-5-1.16-.48-1.94-1.12-3 0 2.9 1.16.01 3.43 0 3Z"/><path fill="#8B8B8B" fill-opacity=".99" d="M526 48c.68 7.04.25 14.15 0 22s.31 16.08 0 24c-.31 7.92.36 15.27 1 23s-.67 16.23 0 24-1.92 15.09-.67 22.67c1.25 7.58.49 15.48.67 23.33.18 7.85-.21 16.18 0 24s-.38 16.32 0 24-1.21 16.05.93 23.07c2.14 7.03-2.87 16.63-.93 22.93 1.94 6.3 1.31 16.37 2 22 .69 5.63-.38 17.63 4 20 .12-3.33-.75-5.84-1-9-1.38-7.13-.5-15.2-1-23-.5-7.8-1.1-15.93-1-24 .1-8.07-1.41-15.74-1-24 .41-8.26.01-16.78 0-25-.01-8.22.44-16.89 0-25s1.16-17.16 0-25-.39-15.41 0-23-2.65-16.4-1-24c1.65-7.6-.47-15.33 0-23s-.11-17.3-1-24c-.88-6.71 2.81-18.54 1-24-1.81-5.46-.76-21.06 1-20 .03-.5 0-1 0-1-1.66-1.27-3.25-2.13-5-3 4.33 4.16 2 16.28 2 22Z"/><path fill="#A8A8A8" d="M366 35c0 17.88-.2 34.75-.07 52.08.13 17.32.24 35.58-.93 52.92-1.17 17.35.62 36.83 1 54s-.25 37.12 0 54c.25 16.88-.53 35.47 0 52s.93 32.74 8.92 46.08c8 13.33 16.13 17.34 27.83 26.17 11.69 8.83 19.63 11.72 31 23 11.37 11.28 4.47 27.85 2.25 42.75-2.22 14.9-1.45 33.69-2 50-.55 16.31-.82 32.39-1 49-.18 16.61-1.25 33.22-1 50s-.93 29.52-1 47c-.07 17.48-2.06 35.44-1.98 53.02.09 17.58-1.27 35.44-1.02 52.98s-1.58 35.65-1 53c.58 17.35-1.53 37.39-1 54s-.65 35.18 3.33 50.67c3.97 15.49 21.2 17.19 35.67 18.33 14.47 1.14 33.23-.6 46.74-8.26 13.51-7.65 15.31-23.04 15.26-38.74-.05-15.7-1.57-35.43-2-52-.43-16.57-1.09-34.78-1.99-51.01-.91-16.22-1.67-35.47-2.01-51.99-.34-16.52-2.97-35.03-2.78-51.22.19-16.19-1.73-31.71-2.22-48.78-.49-17.08-.72-33.21-2-50s-1.2-34.24-2-51c-.8-16.76-2.34-33.93-2.4-49.75-.07-15.81-5.13-29.14-7.53-44.32-2.39-15.19 12.94-23.97 23.18-31.68 10.23-7.71 23.58-11.49 33.83-20.17 10.25-8.68 19.76-14.34 26.69-27.31 6.93-12.97 8.53-30.49 8.23-46.77-.3-16.28.49-34.78 0-52s.82-36.45 0-54c-.82-17.55 1.67-37.53 0-55s2.4-34.77 0-52c-2.4-17.23 5.72-36.39 1-52-.15.01-.65-.97-1-1 0 0-.56.16-1 0 4.07 9.88-3.12 20.05-2.06 29.92 1.05 9.86-1.66 20.9-.94 31.08s-1.07 20.66 0 31-1.12 21.62.01 31.99c1.12 10.37-1.13 20.59.06 30.94 1.2 10.34-.93 21.7-.06 32.06.87 10.36-.22 21.74.01 31.99.24 10.25-.47 18.73-.02 29.02.45 10.29.04 21.05 1 31s-1.8 19.14-5.7 27.3c-3.9 8.16-9.11 12.53-15.55 18.45-6.43 5.93-12.56 10.26-19.52 14.48-6.96 4.22-14.29 7.35-21.53 11.47-7.25 4.11-14.43 8.58-20.45 13.55-6.03 4.96-10.21 13.07-14.25 16.75-3.29 17.01 6.2 30.98 7.01 48.99.8 18.01 3.51 34.91 3.39 52.27-.11 17.35 1.95 35.19 2.27 53.07.32 17.88 1.56 36.52 2.33 54.67s1.29 33.57 2 52 1.31 36.06 2.67 54.33c1.36 18.27.43 35.99 1.4 54.6.98 18.6 2.1 37.74 2.93 56.07.83 18.33-.27 36.4-3 54-6.94 9.14-14.25 16.22-26.98 18.02-12.72 1.81-24.64 2.24-37.8-1.24-13.16-3.48-13.75-15.76-15.44-28.56-1.69-12.8-1.91-29.2-1.78-43.22.13-14.02.33-28.24 1-42 .67-13.76-.83-30.41 0-44s.26-26.05 1.01-39.99c.74-13.94 1.3-25.43.99-40.01-.31-14.58.73-26.82 1-41s1.13-27.54 1-42c-.13-14.46.51-24.68 1-38s-1.13-27.35.02-39.98c1.16-12.62.89-29.3 1.2-41.8.31-12.5 1.36-27.09 5.85-38.15 4.5-11.05 2.81-21.24-4.3-30.84-7.11-9.59-15.62-13.5-25.52-19.48-9.91-5.97-17.22-10.29-26-18-8.78-7.7-14.5-14.97-18.47-26.53-3.98-11.55-4.06-27.96-3.78-41.22.28-13.26-2.09-29.67-1-43 1.09-13.33-.79-24.78.02-38.98.82-14.19.22-28.39-.02-43.02-.24-14.63 1.01-29.51 0-44-1.01-14.49 2.26-29.97.93-43.93-1.34-13.95.97-28.84-1.93-42.07Z"/><path fill="#9B9B9B" fill-opacity=".99" d="M432 32c-.39 1.8 0 4.15 0 6 4.01 41.42-.03 83.65 0 126 .03 42.35 3.01 87.57-1 129 0 9.02 1.28 19.09 0 28 5.18-7.02-.62-22.06 3-31 3.62-8.94-1.65-22.94 0-33 1.65-10.06-.78-22.45 0-33s-.42-22.26 0-33c.42-10.74-.35-22.24 0-33 .35-10.76-.51-22.38 0-33 .51-10.62.36-21.62 1-32 .64-10.38-1.89-23.35 0-33 1.89-9.65-5.53-23.53 0-31 0 0-.25-.78 0-1-1.87.59-2.1 2.77-3 4Z"/><path fill="#929292" fill-opacity=".98" d="M570 38c-.21 10.64-.04 22.12-1 32v41c0 14.25.3 29.54-1 43v66c0 13.27.21 27.52-1 40 1.42 15.81 2.34 36.32 0 52 7.86-20.9.77-48.05 3-71 2.23-22.95-.04-46.36 1-70s-.97-49.72 1-73-2.27-48.38 1-70c-3.33 2.5-2.92 6.22-3 10Z"/><path fill="#959595" d="M366 35c0-.99.05-2.01 0-3-.27 5.99-2 13.08-2 20 0 9.17.83 19.66-1 28v203c1.85 8.41 1 18.83 1 28 0 4.65-.18 9.35 0 14 3.4 16.72 11.39 30.8 25.08 42.92 13.7 12.12 26.59 14.97 39.67 29.33 13.09 14.36-.34 35.79 1.25 55.75s-1.72 43.31-1 64c.72 20.69-1.86 41.44-1.93 63.07-.06 21.64-.48 46.43-1.07 67.93-.59 21.5-1.56 43.57-2 65-.44 21.43-.61 36.63-1 58-.39 21.37-1.11 44.89-1 66 .11 21.11-1.38 40.67 1.78 61.22 3.16 20.56 28.02 22.53 45.44 23.56 17.43 1.03 40.37-1.79 54.53-14.03 14.15-12.25 9.23-39.33 9.25-57.75.02-18.42-2.85-37.26-3-58-.15-20.74-2.36-43.15-2.98-64.03-.61-20.87-1.89-44.79-3.01-65.98-1.12-21.18-2.08-43.89-2.41-64.74-.33-20.85-4.01-42.73-3.59-63.26.41-20.52-4.11-45.1-2.81-64.24 1.3-19.13-7.9-38.6-6.42-56.97 1.48-18.37 25.04-21.63 37.3-31.7 12.26-10.06 27.18-16.27 37.17-31.83 10-15.55 12.48-36.74 11.75-57.25-.73-20.51 1.92-44.34 1-66-.92-21.66 1.11-45.76 0-67-1.11-21.24 1-43.33 1-64v-3c-1.61-7.32-1.5-16.91-1-25s-1.84-18.89 1-26c.47-1.17.8-1.69 1-3 .36-2.34.65-7.16-1-9-.26-.14-1.72-1.02-2-1 4.72 15.61-3.4 34.77-1 52 2.4 17.23-1.67 34.53 0 52s-.82 37.45 0 55c.82 17.55-.49 36.78 0 54s-.3 35.72 0 52-1.3 33.8-8.23 46.77c-6.93 12.97-16.44 18.63-26.69 27.31s-23.6 12.46-33.83 20.17c-10.24 7.71-25.57 16.49-23.18 31.68 2.4 15.18 7.46 28.51 7.53 44.32.06 15.82 1.6 32.99 2.4 49.75.8 16.76.72 34.21 2 51s1.51 32.92 2 50c.49 17.07 2.41 32.59 2.22 48.78-.19 16.19 2.44 34.7 2.78 51.22.34 16.52 1.1 35.77 2.01 51.99.9 16.23 1.56 34.44 1.99 51.01.43 16.57 1.95 36.3 2 52 .05 15.7-1.75 31.09-15.26 38.74-13.51 7.66-32.27 9.4-46.74 8.26-14.47-1.14-31.7-2.84-35.67-18.33-3.98-15.49-2.8-34.06-3.33-50.67-.53-16.61 1.58-36.65 1-54-.58-17.35 1.25-35.46 1-53s1.11-35.4 1.02-52.98c-.08-17.58 1.91-35.54 1.98-53.02.07-17.48 1.25-30.22 1-47s.82-33.39 1-50c.18-16.61.45-32.69 1-49 .55-16.31-.22-35.1 2-50 2.22-14.9 9.12-31.47-2.25-42.75-11.37-11.28-19.31-14.17-31-23-11.7-8.83-19.83-12.84-27.83-26.17-7.99-13.34-8.39-29.55-8.92-46.08-.53-16.53.25-35.12 0-52-.25-16.88.38-36.83 0-54s-2.17-36.65-1-54c1.17-17.34 1.06-35.6.93-52.92-.13-17.33.07-34.2.07-52.08Z"/><path fill="#9F9F9F" fill-opacity=".07" d="M362 53c2.47-7.58.25-16.46 3-24-6.2 5.86-2.42 15.61-3 24Z"/><path fill="#868686" fill-opacity=".29" d="M362 53c-1.99 6.11-1.42 10.92 0 18 .69 3.46.72 9.07 1 12v-3c0-9.33.17-19.44 1-28 0-6.92 1.73-14.01 2-20-.03-.62-.99-3.09-1-3-2.75 7.54-.53 16.42-3 24Z"/><path fill="#717171" fill-opacity=".97" d="M532 314c-1.51-19.06 0-38.87 0-58v-8c-2.26-23.34-1-48.89-1-73V89c0-19.51-3.28-39.88-2-59-1.76-1.06-2.81 14.54-1 20 1.81 5.46-1.88 17.29-1 24 .89 6.7 1.47 16.33 1 24-.47 7.67 1.65 15.4 0 23s1.39 16.41 1 24c-.39 7.59-1.16 15.16 0 23s-.44 16.89 0 25-.01 16.78 0 25c.01 8.22.41 16.74 0 25-.41 8.26 1.1 15.93 1 24-.1 8.07.5 16.2 1 24 .5 7.8-.38 15.87 1 23Z"/><path fill="#5C5C5C" fill-opacity=".15" d="M529 30c-1.28 19.12 2 39.49 2 59 .87 8.97 1 19.33 1 29v138c1.39 14.37-.27 31.81 2 46-1.07-27.35 1.25-67.38-.2-96.75-1.44-29.38 2.38-56.97-.01-85.02-2.4-28.05 3.88-65.16-3.79-91.23 0 0-.68.24-1 0 0 0 .03.5 0 1Z"/><path fill="#676767" fill-opacity=".16" d="M598 38c.34-.6 1.25-1.67 2-2v36c.23.51 1.69.67 2 1-.84-4.81.23-15.26-.34-21.32-.57-6.06 1.69-19.24-4.66-22.68 1.65 1.84 1.36 6.66 1 9Z"/><path fill="#949494" fill-opacity=".98" d="M503 33c-4.37 21.56-.91 46.36-3 68v34c0 31.55 1.06 63.49 0 95-1.06 31.51 2.83 63.64 0 95 6.88-16.41.59-39.34 3-58 2.41-18.66-.72-40.93.78-59.78s-2.55-39.73-.78-59.22c1.77-19.49-2.11-41.6 0-61s-3.18-38.14 1-57c-.51 1.12-.69 1.49-1 3Z"/><path fill="#727272" fill-opacity=".99" d="M392 73c0 13.26 1.92 26.52 1 40-.92 13.48.91 26.91.98 40.02.07 13.11-1.28 26.11-.91 39.05.38 12.95-.84 27.87-.07 40.93.77 13.06-1.58 28.22 0 41 1.58 12.78-2.79 28.73 2 40V83c0-15.48-.57-30.84-1-46-.07-2.44-.29-4.11-1-6 .72 5.66-1.86 14.31-1 21 .86 6.69 0 14.23 0 21Z"/><path fill="#7C7C7C" fill-opacity=".72" d="M460 35c0-.04 1 0 1 0v-1c-.22-.95.39-2.74-1-3-.09 1.33.12 2.68 0 4Z"/><path fill="#8E8E8E" fill-opacity=".13" d="M430 34c-1.23 18.07-1.52 34.6-1 52s-.89 40.22-1.12 52.1c-.23 11.88-.49 25.18-.85 37.87-.36 12.69 1.36 25.15.75 37.81-.61 12.65.22 22.34.02 34.97-.2 12.64-.16 25.36 1.2 38.25.61 5.83-.3 13.07-1 19-.51 4.37-.69 7.59 0 12-.65 2.79 2.29 5.64-1 7 3.12.83 2.38-1.27 3-3-3.34-10.41 1.44-22.93 0-34s.63-23.61 0-35 .24-23.48 0-35 0-23.44 0-35V82c0-7.03.39-14.72 1-21 .65-6.73-1.49-15.14 1-21v-2c0-1.85-.39-4.2 0-6-.4.54-1.78 1.37-2 2Z"/><path fill="#686868" fill-opacity=".38" d="M461 34v7c1.23 12.68 2 26.72 2 40 0-.04 1 0 1 0v-1c1.75-4.02.65-9.02 0-13-.91-5.59.03-16.09 0-16 .19-7.34.3-11.92-2-19-.31 1.24-.41 1.12-1 2Z"/><path fill="#848484" fill-opacity=".8" d="M500 46c-.58 8.58 0 17.4 0 26v29c2.09-21.64-1.37-46.44 3-68-1.45 4.02-2.68 8.23-3 13Z"/><path fill="#F3F3F3" d="M585 41c1.83-2.61 1.35-6.81-2-8-1.83 2.61-1.35 6.81 2 8Z"/><path fill="#888" d="M463 326c-.6-6.54 0-13.43 0-20-5.09-28.41-1-58.81-2-88-1-29.2.32-62.17-.78-91.22-1.1-29.06.79-57.72.78-85.78v-6s-1-.04-1 0c-.85 9.64-3.25 18.73-1.33 28.33 1.92 9.6-2.71 19.65 0 29 2.71 9.35-.63 19.1.33 28.67s.17 19.44 0 29c-.17 9.56.44 19.41 0 29s.92 20.17 1 30c.08 9.83-1.55 20.76-1 30 .56 9.24-.19 20.23 0 29s-.24 22.03 1 30c1.24 7.97-2.55 23.1 3 28Z"/><path fill="#5E5E5E" fill-opacity=".98" d="M598 38c-.2 1.31-.53 1.83-1 3-1.68 8.47 1.33 16.78.99 25.01-.34 8.23-.99 17.41-.99 25.99v3c5.03 22.92-.78 49.33 1 74s0 50.07 0 75c1.34 13.86-.89 31.21 0 46s-1.33 31.91-3.78 45.22c-2.45 13.32-9.07 21.65-17.97 31.03-8.9 9.38-17.67 13.1-27.48 20.52-9.81 7.43-22.45 7.63-30.52 18.48-8.07 10.85 3.02 26.22 2.75 39.75-.27 13.53 3.21 32.09 2 47-1.21 14.91 3.03 29.85 2.93 45.07-.1 15.22 1.06 31.7 2.05 46.95.98 15.26.94 31.63 2.02 46.98 1.08 15.35.67 31.74 2 47 1.33 15.26.61 30.83 2 46 1.39 15.17.56 32.02 2 47 1.44 14.98 2.41 32 2 47-.41 15 4.06 31.86 3 46-1.06 14.14 3.96 31.37-3.77 42.23-7.73 10.86-19.99 13.91-31.31 17.69-11.32 3.79-33.8 5.39-45.59 2.75-11.79-2.64-28.57-4-37.33-9.67 1.06 2.03 1.02 4.14 3 6 0 0 .5-.05 1 0 9.17.86 17.18 12.31 28 12-2.09 2.4-5.32-1.18-8-1 4.26 1.95 7.06 3.08 12 4-.62-.37-1.66-1.23-2-2 5.16 1.31 10.82.69 16 2 11.49.91 25.5.74 36-3 .44-.16 1 0 1 0 2.68-2.18 7.4-3.71 11.08-4.92 3.67-1.21 7.27-4.77 10.92-6.08.44-.16 1 0 1 0 4.48-6.41 9.4-8.88 10.93-17.07 1.53-8.2 1.07-19.11 1.07-27.93-.9-9.3-1-20-1-30-.96-9.91-2-21.61-2-32v-12c-1.05-10.81-2-22.47-2-34 0-14.8-2-28.36-2-43-2.26-23.31-4-47.95-4-72v-13c-1.14-11.8-2-24.43-2-37v-9c-3.21-33.16-5-67.87-5-102 0-7.58-1-14.4-1-22-.98-10.18-2.34-21.15-2-32 .34-10.85-3.72-22.37 7-27 12-5.18 23.48-12.63 34-20 17.8-14.62 26.46-32.57 32-53 .97-6.13 1.58-12.78 2-19 .84-12.37 1-24.45 1-37V90c-1.34-13.82-1.33-30.25 0-44V36c-.75.33-1.66 1.4-2 2Z"/><path fill="#5F5F5F" fill-opacity=".56" d="M395 83c0-.04 1 0 1 0-3.22-14.51.72-31.88-2-46 .43 15.16 1 30.52 1 46Z"/><path fill="#868686" fill-opacity=".98" d="M432 40c0 7.03-.39 14.72-1 21-.66 6.85 0 14.11 0 21v211c4.01-41.43 1.03-86.65 1-129-.03-42.35 4.01-84.58 0-126v2Z"/><path fill="gray" fill-opacity=".65" d="M569 58v12c.96-9.88.79-21.36 1-32-.72 5.98-1 13.27-1 20Z"/><path fill="#7A7A7A" fill-opacity=".6" d="M431 61c.61-6.28 1-13.97 1-21-2.49 5.86-.35 14.27-1 21Z"/><path fill="#727272" fill-opacity=".98" d="M463 306V81c0-13.28-.77-27.32-2-40 .01 28.06-1.88 56.72-.78 85.78 1.1 29.05-.22 62.02.78 91.22 1 29.19-3.09 59.59 2 88Z"/><path fill="#7F7F7F" d="M597 92c0-8.58.65-17.76.99-25.99.34-8.23-2.67-16.54-.99-25.01-2.84 7.11-.5 17.91-1 26s-.61 17.68 1 25Z"/><path fill="#7F7F7F" fill-opacity=".33" d="M499 59c-.08 2.44-.08 3.63 0 6 .08 2.33 0 4.67 0 7 .01.07 1 0 1 0 0-8.6-.58-17.42 0-26-.68 3.81-.85 8.51-1 13Z"/><path fill="#5B5B5B" fill-opacity=".7" d="M600 90V46c-1.33 13.75-1.34 30.18 0 44Z"/><path fill="#9E9E9E" d="M534 324c-.03 0 0-1 0-1-.25-.25-1 0-1 0-4.38-2.37-3.31-14.37-4-20-.69-5.63-.06-15.7-2-22-1.94-6.3 3.07-15.9.93-22.93-2.14-7.02-.55-15.39-.93-23.07s.21-16.18 0-24 .18-16.15 0-24c-.18-7.85.58-15.75-.67-23.33-1.25-7.58 1.34-14.9.67-22.67-.67-7.77.64-16.27 0-24s-1.31-15.08-1-23c.31-7.92-.25-16.15 0-24 .25-7.85.68-14.96 0-22 0 9.6-1.67 19.27-1 29 .67 9.73-.82 20.48 0 30s-1.23 20.49-.65 29.3c.58 8.82-.58 16.31-.35 25.7.24 9.39 1.36 18.62 0 28-1.36 9.38 2.08 19.57 1 29s1.98 17.45.33 26.33c-1.65 8.88.47 19.65-.33 27.67-.8 8.02 1.53 21.39 2 28 .47 6.61-.36 22.77 7 23Z"/><path fill="#5C5C5C" fill-opacity=".19" d="M464 67c-.05-4.62-.13-11.07 0-16 .03-.09-.91 10.41 0 16Z"/><path fill="#7E7E7E" fill-opacity=".8" d="M363 80c1.83-8.34 1-18.83 1-28-.83 8.56-1 18.67-1 28Z"/><path fill="#7B7B7B" fill-opacity=".45" d="M568 89c0-.04 1 0 1 0V58c-.92 9.54-1 20.68-1 31Z"/><path fill="#777" fill-opacity=".31" d="M430 82c0-.04 1 0 1 0 0-6.89-.66-14.15 0-21-.61 6.28-1 13.97-1 21Z"/><path fill="#767676" fill-opacity=".09" d="M497 305c.67 6.91 1.58 15.37 1 23 1.19-.72.89-1.68 1-3 2.69-31.39-1.01-63.47 0-95 1.01-31.52 0-63.44 0-95V72c0-2.33.08-4.67 0-7-.45 2.44-2.05 9.74-1.65 16.31.41 6.56-.53 15.78-.35 23.69.18 7.91.28 17.84 0 26-.27 8.16.8 16.59.33 24.33-.47 7.74.85 14.05.45 21.45-.4 7.4-1.11 17-.78 25.22.33 8.22-.15 17.56 0 26 .15 8.44-.06 17.48 0 26s-.03 17.51 0 26c.03 8.49 0 16.55 0 25Z"/><path fill="#8D8D8D" fill-opacity=".18" d="M361 163c.68 3.56.57 9.42 0 13-1.67 10.5-2.42 12.36-1.93 23.92.49 11.57.93 25.4 1.93 40.08.91 13.39 1 26.64 1 40 0-.04 1 0 1 0v-17c-2.52-26.07-1.02-54.1-1-81 .02-26.9-1.52-55.92 1-82V83c-.28-2.93-.31-8.54-1-12 .05 1.95-2.82 10.08-1.22 14.78 1.6 4.7-1.52 10.58-.78 16.22.74 5.64-.11 13.95.6 19.26.71 5.31-1.27 10.9-.6 15.74s-.11 10.26-.27 14.25c-.16 3.98.32 6.72 1.27 11.75Z"/><path fill="#7A7A7A" fill-opacity=".6" d="M499 135c0-.04 1 0 1 0V72s-.99.07-1 0v63Z"/><path fill="#636363" fill-opacity=".4" d="M600 90v28c0-.04 1 0 1 0 0-4.7.33-10.4 0-15s.87-10.76 0-15 1.63-12.05 1-10c-.01-1.31.34-3.04 0-5-.31-.33-1.77-.49-2-1v18Z"/><path fill="#878787" d="M392 316c.84.22 2.13 0 3 0-.23-.16 0-1.5 0-2-4.79-11.27-.42-27.22-2-40-1.58-12.78.77-27.94 0-41-.77-13.06.45-27.98.07-40.93-.37-12.94.98-25.94.91-39.05-.07-13.11-1.9-26.54-.98-40.02.92-13.48-1-26.74-1-40-.55 5.69-1.21 11.76 0 18s-1.77 12.74-1 19 1.12 11.51 1 18c-.12 6.49.11 13.48 0 20s.17 13.54 0 20c-.17 6.46.38 12.64 0 19-.38 6.36-1.51 11.82 0 18s-.47 11.94-1 18c-.53 6.06.85 12.9 1 19 .15 6.1-.33 13.98 0 20s-.34 12.73-1 18c-.66 5.27.3 14.57 1 19s-2.94 15.35 0 17Z"/><path fill="#646464" fill-opacity=".11" d="M601 118v167c0 7.62-.45 15.39 0 23 2.68-18.54 1.21-37.65 1.22-56.78.01-19.13.46-37.77.77-57.21.31-19.44-1.6-37.51-.99-57.01.61-19.5.22-39.88 0-59 .63-2.05-1.87 5.76-1 10 .87 4.24-.33 10.4 0 15s0 10.3 0 15Z"/><path fill="#636363" fill-opacity=".04" d="M464 81v34c2.2 22.68 1 47.55 1 71 0 9.29.11 18.72 0 28-.11 9.28.3 18.77 0 28s.69 18.89 0 28 1.55 19.15 0 28c-1.55 8.85 3.3 20.81 0 29 1.55.22 1.93.01 3 1 .49.06 1 0 1 0 .4-.2.74-1.88 1-2h-4v-51c0-8.4.01-16.64 0-25s.02-16.66 0-25 .03-16.67 0-25c-.03-8.33.07-17.79 0-26s.16-17.14 0-25c-.16-7.86.37-17.8 0-25-.37-7.2.41-17.23 0-23s1.75-20.37-2-21v1Z"/><path fill="#606060" fill-opacity=".65" d="M463 109c0-.04 1 0 1 0V81s-1-.04-1 0v28Z"/><path fill="#797979" fill-opacity=".44" d="M430 104c0-.04 1 0 1 0V82s-1-.04-1 0v22Z"/><path fill="#676767" fill-opacity=".78" d="M395 314c0 .5-.23 1.84 0 2h1c-3.49-38.48 2.61-77.4 0-116-2.61-38.6 3.48-78.44 0-117 0 0-1-.04-1 0v231Z"/><path fill="#636363" fill-opacity=".25" d="M396 316s.5-.02 1 0c.06-1.81.86-3.87 1-5 1.31-10.92-1.26-22.28-.93-32.93.33-10.64 1.24-21.23.86-31.99-.38-10.76-.31-21.37.06-32.07.38-10.71-.81-21.44-.92-31.94-.1-10.5 1.58-22.5.71-32.85-.87-10.34 1.56-21.53-.11-31.55C396 107.66 401.6 92.99 397 84c-.17-.33-.95-.77-1-1 3.48 38.56-2.61 78.4 0 117 2.61 38.6-3.49 77.52 0 116Z"/><path fill="#626262" fill-opacity=".52" d="M531 118c0-.04 1 0 1 0 0-9.67-.13-20.03-1-29v29Z"/><path fill="#7C7D7C" fill-opacity=".68" d="M568 111c0-.04 1 0 1 0V89s-1-.04-1 0c0 7.23-.65 14.8 0 22Z"/><path fill="#848484" d="M364 325c.16 4.16 1.29 7.82 1 12 2.6 12.15 9.13 23.46 18.75 32.25s18.38 16.12 29.33 21.67c10.95 5.56 23.32 19.49 13.92 31.08.25.25 0 1 0 1 4.19 5.67-.32 16.69 1 24 1.32 7.31-.79 17.32 0 25s-.33 17.05-1 24v12c0 12.8.1 25.52-1 38s1.56 26.32-1 38v3c0 10.71 1.16 23.16-1 33v3c0 22.15.05 44.84-2 66v10c0 22.15.04 44.87-2 66v21c0 9-.2 18.76-1 27v12c0 25.81-1.49 52.65 1 78 6.23 17.53 27.44 18.03 45.22 20.78 17.79 2.75 38.91-1.3 56.48-10.08 17.56-8.78 15.93-31.73 14.52-50.92-1.41-19.2-1-42.28-2.22-62.78-1.22-20.5-1.4-42.7-3.97-63.03-2.57-20.32-.46-42.18-2.36-62.64s-1.33-43.53-3-64 .1-42.38-1.67-63.33c-1.77-20.95-1.56-43.1-3-64-1.44-20.89-.03-40.65-6.93-60.07-6.9-19.43 12.93-27.09 27.01-35.85 14.08-8.76 27.04-15.42 38.62-28.38 11.58-12.97 17.95-30.71 17.23-49.77-.72-19.06 2.07-45.48 2.07-64.93 0-24.93 1.78-50.33 0-75s4.03-51.08-1-74c0 20.67-2.11 42.76-1 64 1.11 21.24-.92 45.34 0 67 .92 21.66-1.73 45.49-1 66 .73 20.51-1.75 41.7-11.75 57.25-9.99 15.56-24.91 21.77-37.17 31.83-12.26 10.07-35.82 13.33-37.3 31.7-1.48 18.37 7.72 37.84 6.42 56.97-1.3 19.14 3.22 43.72 2.81 64.24-.42 20.53 3.26 42.41 3.59 63.26.33 20.85 1.29 43.56 2.41 64.74 1.12 21.19 2.4 45.11 3.01 65.98.62 20.88 2.83 43.29 2.98 64.03.15 20.74 3.02 39.58 3 58-.02 18.42 4.9 45.5-9.25 57.75-14.16 12.24-37.1 15.06-54.53 14.03-17.42-1.03-42.28-3-45.44-23.56-3.16-20.55-1.67-40.11-1.78-61.22-.11-21.11.61-44.63 1-66 .39-21.37.56-36.57 1-58 .44-21.43 1.41-43.5 2-65 .59-21.5 1.01-46.29 1.07-67.93.07-21.63 2.65-42.38 1.93-63.07-.72-20.69 2.59-44.04 1-64-1.59-19.96 11.84-41.39-1.25-55.75-13.08-14.36-25.97-17.21-39.67-29.33C375.39 355.8 367.4 341.72 364 325Z"/><path fill="#7C7C7C" fill-opacity=".72" d="M363 263V100c-2.52 26.08-.98 55.1-1 82-.02 26.9-1.52 54.93 1 81Z"/><path fill="#797979" fill-opacity=".56" d="M430 137c0-.04 1 0 1 0v-33s-1-.04-1 0v33Z"/><path fill="#686868" fill-opacity=".83" d="M463 306c0 6.57-.6 13.46 0 20 0 0 .92-.18 1 0-2.8-14.94 1.19-30.71 0-46s.45-31.53 0-47c-.45-15.47 0-31.48 0-47v-77s-1-.04-1 0v197Z"/><path fill="gray" fill-opacity=".31" d="M567 113c-2.99 5.49-.51 11.15 0 18 .44 5.93 0 12.06 0 18 0-.04 1 0 1 0 0-12.49-1.12-25.57 0-38 .1-.38-1.14 2.26-1 2Z"/><path fill="#818181" fill-opacity=".86" d="M568 149v5c1.3-13.46 1-28.75 1-43 0 0-1-.04-1 0-1.12 12.43 0 25.51 0 38Z"/><path fill="#5E5E5E" fill-opacity=".25" d="M464 186c0-.04 1 0 1 0 0-23.45 1.2-48.32-1-71v71Z"/><path fill="#606060" fill-opacity=".67" d="M531 175c0-.04 1 0 1 0v-57s-1-.04-1 0v57Z"/><path fill="#5B5B5B" fill-opacity=".64" d="M600 285c0-.04 1 0 1 0V118s-1-.04-1 0v167Z"/><path fill="#858585" fill-opacity=".05" d="M566 201c1.07-7.63.32-16.95 1-24v-28c0-5.94.44-12.07 0-18-1.26 8.75-1.57 19.06-2 31-.43 11.94 1.49 27.67 1 39Z"/><path fill="gray" fill-opacity=".75" d="M499 325c.05-.14 1 0 1 0 2.83-31.36-1.06-63.49 0-95 1.06-31.51 0-63.45 0-95 0 0-1-.04-1 0 0 31.56 1.01 63.48 0 95-1.01 31.53 2.69 63.61 0 95Z"/><path fill="#7B7B7B" fill-opacity=".68" d="M430 183c0-.04 1 0 1 0v-46s-1-.04-1 0v46Z"/><path fill="#7D7D7D" fill-opacity=".6" d="M567 177v6c.02.1 1 0 1 0v-34s-1-.04-1 0v28Z"/><path fill="#A3A3A3" fill-opacity=".01" d="M361 176c.57-3.58.68-9.44 0-13 0-.08-1.95 6.03-1.93 7.92.02 1.9 1.91 6.98 1.93 5.08Z"/><path fill="#626262" fill-opacity=".78" d="M532 248v-73s-1-.04-1 0c0 24.11-1.26 49.66 1 73Z"/><path fill="#979797" fill-opacity=".2" d="M566 201c-.91 6.5-1.64 9.71 0 16 .22.84 0 2.13 0 3 .27.25 1 0 1 0-1.09-12.11 0-24.84 0-37v-6c-.68 7.05.07 16.37-1 24Z"/><path fill="#828282" fill-opacity=".8" d="M430 322c.09-.25.78-.7 1-1 1.28-8.91 0-18.98 0-28V183s-1-.04-1 0c0 11.56-.24 23.48 0 35s-.63 23.61 0 35-1.44 23.93 0 35-3.34 23.59 0 34Z"/><path fill="gray" fill-opacity=".71" d="M567 220c0-.04 1 0 1 0v-37s-.98.1-1 0c0 12.16-1.09 24.89 0 37Z"/><path fill="#646464" fill-opacity=".39" d="M464 326c.43 2.27.16.88 1 1 3.3-8.19-1.55-20.15 0-29 1.55-8.85-.69-18.89 0-28s-.3-18.77 0-28-.11-18.72 0-28c.11-9.28 0-18.71 0-28 0 0-1-.04-1 0 0 15.52-.45 31.53 0 47 .45 15.47-1.19 31.71 0 47s-2.8 31.06 0 46Z"/><path fill="#8B8B8B" fill-opacity=".04" d="M562 314c-1.37 1.55-4.21 1.79-5 4 .5.05 1 0 1 0 2.09-1.31 5.31-.94 7-2 3.79-3.75-.01-12.73 1-18s-.38-13.22 0-19c.38-5.78 0-13.08 0-19v-40c0-.87.22-2.16 0-3 .33 8.14-1.39 18.44-1.4 28.26-.02 9.81.16 26.69-.6 36.74s4.54 24.64-2 32Z"/><path fill="#777" fill-opacity=".44" d="M566 260c0-.04 1 0 1 0 1.14-12.61 1.14-27.39 0-40 0 0-.73.25-1 0v40Z"/><path fill="gray" fill-opacity=".82" d="M567 260c1.21-12.48 1-26.73 1-40 0 0-1-.04-1 0 1.14 12.61 1.14 27.39 0 40Z"/><path fill="#888" fill-opacity=".05" d="M362 292c.29-3.95 0-8.04 0-12 0-13.36-.09-26.61-1-40-.18 5.47-1.07 13.84-1 20 .07 6.16 1 14.14.33 19.33-.67 5.18 1.55 11.71 1.67 12.67Z"/><path fill="#757575" d="M420 903c.13 1.3 0 2.69 0 4 .01 4.67 1.11 6.37 3 10 8.76 5.67 25.54 7.03 37.33 9.67 11.79 2.64 34.27 1.04 45.59-2.75 11.32-3.78 23.58-6.83 31.31-17.69 7.73-10.86 2.71-28.09 3.77-42.23 1.06-14.14-3.41-31-3-46 .41-15-.56-32.02-2-47-1.44-14.98-.61-31.83-2-47-1.39-15.17-.67-30.74-2-46-1.33-15.26-.92-31.65-2-47-1.08-15.35-1.04-31.72-2.02-46.98-.99-15.25-2.15-31.73-2.05-46.95.1-15.22-4.14-30.16-2.93-45.07 1.21-14.91-2.27-33.47-2-47 .27-13.53-10.82-28.9-2.75-39.75 8.07-10.85 20.71-11.05 30.52-18.48 9.81-7.42 18.58-11.14 27.48-20.52 8.9-9.38 15.52-17.71 17.97-31.03 2.45-13.31 4.67-30.43 3.78-45.22-.89-14.79 1.34-32.14 0-46 0 19.45-2.79 45.87-2.07 64.93.72 19.06-5.65 36.8-17.23 49.77-11.58 12.96-24.54 19.62-38.62 28.38-14.08 8.76-33.91 16.42-27.01 35.85 6.9 19.42 5.49 39.18 6.93 60.07 1.44 20.9 1.23 43.05 3 64 1.77 20.95 0 42.86 1.67 63.33s1.1 43.54 3 64-.21 42.32 2.36 62.64c2.57 20.33 2.75 42.53 3.97 63.03 1.22 20.5.81 43.58 2.22 62.78 1.41 19.19 3.04 42.14-14.52 50.92-17.57 8.78-38.69 12.83-56.48 10.08-17.78-2.75-38.99-3.25-45.22-20.78Z"/><path fill="#707070" fill-opacity=".38" d="M532 314c.25 3.16 1.12 5.67 1 9 0 0 .75-.25 1 0 .27-2.95-.45-6.08 0-9 .65-4.24 1.05-5.43 0-12-2.27-14.19-.61-31.63-2-46 0 19.13-1.51 38.94 0 58Z"/><path fill="gray" fill-opacity=".59" d="M565 316c2.15-1.34 1.22-1.92 2-4 2.34-15.68 1.42-36.19 0-52 0 0-1-.04-1 0 0 5.92.38 13.22 0 19-.38 5.78 1.01 13.73 0 19s2.79 14.25-1 18Z"/><path fill="#7A7A7A" fill-opacity=".34" d="M362 292c-.58 7.9-.21 16.1 0 21-.76-1.41 2.06 6.42 1 11s1.44 11.05 2 15c.03-.5-.03-1.5 0-2 .29-4.18-.84-7.84-1-12-.18-4.65 0-9.35 0-14-.84-8.64-1-18.66-1-28v-3s-1-.04-1 0c0 3.96.29 8.05 0 12Z"/><path fill="#DBDBDB" d="M498 329c-.44-.16-1.5 0-2 0-11.82 2.08-25.66.4-38 2-3.21-7.97-2.79-19.04-6.25-26.75-3.45-7.71-2.7-17.18-7.75-22.25 2.04 12.44-9.91 17.13-7 30 2.91 12.87-9.33 18.07-19.78 12.78-10.44-5.3-18.3-5.56-29.22-7.78-3.81-7.18-4.49-15.84-10-22-2.79 6.7-5.87 15.68-3.93 22.93 1.95 7.24 4.89 13.91 9.68 19.32 4.78 5.42 10.14 9.13 15.55 13.45 5.4 4.32 13.09 5.82 19.01 9.99 5.91 4.18 15.26 3.61 21 8 5.73 4.39 16.51 2.3 18.69 7.31 27.29.8 54.73-11.25 79.78-20.22 25.04-8.97 57.54-26.64 45.22-57.78-10.12.01-6.5 16.38-14.99 19.01-8.49 2.63-16.42 5.16-25.01 7.99-8.59 2.84-20.3-.76-20.07-10.93.22-10.17-7.34-16.05-6.93-26.07-9.53-2.17-8.06 15.18-9 21-.94 5.82-.75 23.01-9 20Z"/><path fill="#7D7D7D" fill-opacity=".84" d="M364 311c0-9.17.85-19.59-1-28 0 9.34.16 19.36 1 28Z"/><path fill="#585858" fill-opacity=".42" d="M599 322c.28-1.19 1.73-3.85 2-5 .14-3.49.21-5.54 0-9-.45-7.61 0-15.38 0-23 0 0-1-.04-1 0 0 12.55-.16 24.63-1 37Z"/><path fill="#E6E6E6" fill-opacity=".01" d="M428 306c.7-5.93 1.61-13.17 1-19-.02.99-2.26 4.81-2 8 .26 3.19.99 8.47 1 11Z"/><path fill="#B4B4B4" fill-opacity=".03" d="M470 326c-.26.12-.6 1.8-1 2 4.19 0 9.97.85 14 0 4.03-.85 11.59 2.07 15 0 .58-7.63-.33-16.09-1-23v21c-7.57 2.97-19.22-3.57-27 0Z"/><path fill="#767676" fill-opacity=".1" d="M362 313c.15 3.63-2.48 16.62-.76 19.61 1.73 2.99.95 17.17 5.76 19.39-.72-4.35-2.33-8.36-2-13-.56-3.95-3.06-10.42-2-15s-1.76-12.41-1-11Z"/><path fill="#B3B3B3" fill-opacity=".07" d="M397 316c2.85.11 6.18.46 8.78 2.22 2.6 1.76 5.58-.2 6.22-.22-4.08-.95-12.45-1.66-14-7-.14 1.13-.94 3.19-1 5Z"/><path fill="#8B8B8B" fill-opacity=".02" d="M534 323c1.94-.16 4.29-.04 6-1-.24-.2 0-1 0-1-1.45-.08-2.86.07-4 1 1-2.72-1.99-7.44-2-8-.45 2.92.27 6.05 0 9Z"/><path fill="#AFAFAF" fill-opacity=".29" d="M553 318c-.13.46.2 1.9 0 2 2.33-.48 3.13-1.09 5-2 0 0-.5.05-1 0-.35-.03-.73-.87-1-1-1.34-.67-2.3.8-3 1m2 0c.74.74-.82-.82 0 0Z"/><path fill="#5D5D5D" fill-opacity=".2" d="M599 322c-.42 6.22-1.03 12.87-2 19-.69 4.32-1.34 8.7-2 13 .98-2.7 5.21-10.56 5-17-.21-6.44.79-14.52 1-20-.27 1.15-1.72 3.81-2 5Z"/><path fill="#C8C8C8" fill-opacity=".05" d="M540 321s-.24.8 0 1c-.68-.55 2.96 1.02 2 1 3.77-1.02 7.08-2.2 11-3 .2-.1-.13-1.54 0-2-4.16 1.18-9.48.78-13 3Z"/><path fill="#BBB" fill-opacity=".06" d="M555 318c-.82-.82.74.74 0 0Z"/><path fill="#B9B9B9" fill-opacity=".29" d="M421 321s-.51.08-1 0c-2.37.65-5.28-2.62-7 0 3.4.56 6.3 2.67 10 2-.33-.75-1.4-1.65-2-2Z"/><path fill="#BBB" fill-opacity=".28" d="M534 323s-.03 1 0 1c2.4.16 5.75-.39 8-1 .96.02-2.68-1.55-2-1-1.71.96-4.06.84-6 1Z"/><path fill="#C1C1C1" fill-opacity=".79" d="M498 328c-3.41 2.07-10.97-.85-15 0-4.03.85-9.81 0-14 0 0 0-.51.06-1 0-1.36-.16-2.33.93-3 1 9.63 1.73 21.2 0 31 0 .5 0 1.56-.16 2 0 1.65-.3 2.45-2.53 2-4 0 0-.95-.14-1 0-.11 1.32.19 2.28-1 3Z"/><path fill="#5D5D5D" fill-opacity=".96" d="M365 339c-.33 4.64 1.28 8.65 2 13 0 0 .2.61 0 1 .12.26.87.65 1 1 5.41 6.48 9.05 15.78 14 23 4.98 7.25 11.87 12.87 18 19 8.21 6.48 24.4 11.91 25 23 .2.8.89 1.69 1 3 .05.14 1 0 1 0 9.4-11.59-2.97-25.52-13.92-31.08-10.95-5.55-19.71-12.88-29.33-21.67-9.62-8.79-16.15-20.1-18.75-32.25-.03.5.03 1.5 0 2Z"/><path fill="#F6F6F6" d="M409 341c4.56 6.53 15.42 9.07 23.93 12.07 8.51 3.01 19.95 4.63 29 6s23.74 2.15 32.05-1.09c8.3-3.25 19.93-1.76 25.77-9.23 5.84-7.47-14.43-4.89-21.68-1.68-7.24 3.22-21.09 1.17-30.07.93-8.98-.25-18.12-6.3-27.33-6.33-9.21-.03-22.2.24-31.67-.67Z"/><path fill="#5B5B5B" fill-opacity=".36" d="M565 394c6.61-4.62 10.7-11.3 17-16 6.64-4.95 11.47-13.99 13-24 .66-4.3 1.31-8.68 2-13-5.54 20.43-14.2 38.38-32 53Z"/><path fill="#676767" fill-opacity=".08" d="M392 390c-4.12-5.28-9.28-9.58-13-15-4.52-6.59-8.21-13.6-11-21-.13-.35-.88-.74-1-1-2.67 5.13 2.39 8.7 5.81 14.75 3.42 6.04 10.44 19.6 19.19 22.25Z"/><path fill="#5C5C5C" fill-opacity=".64" d="M379 375c.78.78 2.27 1.27 3 2-4.95-7.22-8.59-16.52-14-23 2.79 7.4 6.48 14.41 11 21Z"/><path fill="#5B5B5B" fill-opacity=".49" d="M392 390c.35.11.74.77 1 1 2.11 1.87 4.78 3.25 7 5-6.13-6.13-13.02-11.75-18-19-.73-.73-2.22-1.22-3-2 3.72 5.42 8.88 9.72 13 15Z"/><path fill="#5F5F5F" fill-opacity=".11" d="M565 394c-10.52 7.37-22 14.82-34 20-3.78 2.2-5.49 3.41-6 8-.21 14.13 1.7 30.03 2 45 .19 9.24 1 18.48 1 28v12c.92 9.52 2 19.71 2 30 0 15.76 2 30.5 2 46 .94 9.7 1.94 20.3 1 30 .18 8.9 1 17.08 1 26 1.34 13.84 3 28.35 3 43v4c1.56 11.45 1.53 23.72 2 36 1.31 34.27 5 68.51 5 103v6c1.01 10.41 2 21.98 2 33v20c.58 6 2.51 15.1 0 21 0 .5.02 1.5 0 2-.21 6.76-9.07 17.02-15 20 26.63-15.7 16.19-45.01 16.2-71.75.01-26.75-3.53-54.57-4.2-83.25-.67-28.68-2.1-62.25-4.01-90.99-1.91-28.74-2.91-60.17-3.99-90.01-1.08-29.84-3.92-59.04-5-88s-1.36-59.2-3-86c7.34.07 13.07-6.85 18.75-8.8 5.69-1.96 10.54-7.3 18.17-12.28 7.63-4.97 13.32-12.11 18.08-17.92-6.3 4.7-10.39 11.38-17 16Z"/><path fill="#5F5F5F" fill-opacity=".06" d="M423 427c.15.46 1.86 1.61 2 2 0-3.32.18-6.69 0-10-.6-11.09-16.79-16.52-25-23-2.22-1.75-4.89-3.13-7-5-1.98 1.47 6.08 6.5 9.75 9.25 3.68 2.75 8.73 8.06 15 9.95 6.27 1.89 5.15 9.86 5.25 16.8Z"/><path fill="#5C5C5C" fill-opacity=".77" d="M526 473v-6c0-14.79-2.67-30.01-1-45 .51-4.59 2.22-5.8 6-8-10.72 4.63-6.66 16.15-7 27-.34 10.85 1.02 21.82 2 32Z"/><path fill="#767676" fill-opacity=".22" d="M425 429v56c0-.04 1 0 1 0 0-20.74 1.77-42.35 0-63-.11-1.31-.8-2.2-1-3 .18 3.31 0 6.68 0 10Z"/><path fill="#7B7B7B" fill-opacity=".62" d="M426 485c0 6.98 1.55 17.02-1 23v16c0-.04 1 0 1 0 0-5.39.55-11.36 1-16v-12c0-24.33.01-48.67 0-73 0 0 .25-.75 0-1 0 0-.95.14-1 0 1.77 20.65 0 42.26 0 63Z"/><path fill="#5B5B5B" fill-opacity=".38" d="M526 467c.02-.1 1 0 1 0-.3-14.97-2.21-30.87-2-45-1.67 14.99 1 30.21 1 45Z"/><path fill="#7F7F7F" fill-opacity=".89" d="M427 496c.67-6.95 1.79-16.32 1-24s1.32-17.69 0-25c-1.32-7.31 3.19-18.33-1-24 .01 24.33 0 48.67 0 73Z"/><path fill="#9A9A9A" fill-opacity=".02" d="M425 458v-29c-.14-.39-1.85-1.54-2-2 .07 4.7.71 14.25.07 17.92-.64 3.68-.46 11.87 1.93 13.08Z"/><path fill="#7D7D7D" fill-opacity=".07" d="M419 715c.25-.25 1 0 1 0v-16c0-19.88.15-40.85 2-60 0-10.61 1-20.44 1-31 0-12.29-.11-25.5 1-37v-32c0-8.54-2.15-21.6 1-29v-51c-5.47 7.37-.36 20.18-2 30-1.64 9.82.93 24.12-.6 34.25-1.53 10.13-.15 22.66-.4 33.75s-.92 18.89-1 30c-.08 11.11.07 22.6-1 33-1.07 10.4.82 24.62-.01 34.99-.83 10.38-2.14 24.96-.99 35.01 1.15 10.05-4.06 17.24 0 25Z"/><path fill="#5D5D5D" fill-opacity=".49" d="M526 473c0 7.6 1 14.42 1 22 0-.04 1 0 1 0 0-9.52-.81-18.76-1-28 0 0-.98-.1-1 0v6Z"/><path fill="#797979" fill-opacity=".36" d="M425 508c2.55-5.98 1-16.02 1-23 0 0-1-.04-1 0v23Z"/><path fill="#5D5D5D" fill-opacity=".72" d="M532 597v-14c0-15.5-2-30.24-2-46-.92-9.47-2-19.89-2-30v-12s-1-.04-1 0c0 34.13 1.79 68.84 5 102Z"/><path fill="#5C5C5C" fill-opacity=".45" d="M530 537c0-10.29-1.08-20.48-2-30 0 10.11 1.08 20.53 2 30Z"/><path fill="gray" fill-opacity=".85" d="M426 524c0 12.17-1 23.72-1 36v24c2.56-11.68-.1-25.52 1-38s1-25.2 1-38c-.45 4.64-1 10.61-1 16Z"/><path fill="#787878" fill-opacity=".22" d="M424 539c.42-4.39 1-9.93 1-15v-14c-3.15 7.4-1 20.46-1 29Z"/><path fill="#7B7B7B" fill-opacity=".51" d="M424 539v21c0-.04 1 0 1 0 0-12.28 1-23.83 1-36 0 0-1-.04-1 0 0 5.07-.58 10.61-1 15Z"/><path fill="#7D7D7D" fill-opacity=".63" d="M424 571v16c0-.04 1 0 1 0v-27s-1-.04-1 0v11Z"/><path fill="#7C7C7C" fill-opacity=".4" d="M423 608c0-.04 1 0 1 0v-37c-1.11 11.5-1 24.71-1 37Z"/><path fill="#5C5C5C" fill-opacity=".38" d="M532 597v9c.17 1.75.95 4.6 1 7 .94-9.7-.06-20.3-1-30v14Z"/><path fill="gray" fill-opacity=".86" d="M424 608v12c2.16-9.84 1-22.29 1-33 0 0-1-.04-1 0v21Z"/><path fill="#5D5D5D" fill-opacity=".78" d="M534 643v-4c0-8.92-.82-17.1-1-26-.05-2.4-.83-5.25-1-7 0 12.57.86 25.2 2 37Z"/><path fill="#7D7D7D" fill-opacity=".53" d="M422 639v4c.13.22 1 0 1 0 0-6.7-.3-14.06 1-20v-15s-1-.04-1 0c0 10.56-1 20.39-1 31Z"/><path fill="#818181" fill-opacity=".86" d="M423 643c0 8.02-.3 16.74-1 24v22c2.05-21.16 2-43.85 2-66-1.3 5.94-1 13.3-1 20Z"/><path fill="#7A7A7A" fill-opacity=".32" d="M420 699c.6-6.15 1.41-14.92 2-21v-39c-1.85 19.15-2 40.12-2 60Z"/><path fill="#5C5C5C" fill-opacity=".49" d="M534 643v13c.76 7.85 1.93 18.15 3 26 0-14.65-1.66-29.16-3-43v4Z"/><path fill="#7D7D7D" fill-opacity=".67" d="M422 667c.7-7.26 1-15.98 1-24 0 0-.87.22-1 0v24Z"/><path fill="#5D5D5D" fill-opacity=".76" d="M538 728v-6c0-12.25-1-23.95-1-36v-4c-1.07-7.85-2.24-18.15-3-26 0 24.05 1.74 48.69 4 72Z"/><path fill="#7E7E7E" fill-opacity=".58" d="M420 699v44c1.33-13.76.68-30.31 2-44v-21c-.59 6.08-1.4 14.85-2 21Z"/><path fill="#5B5B5B" fill-opacity=".31" d="M538 722c.02-.1 1 0 1 0-.47-12.28-.44-24.55-2-36 0 12.05 1 23.75 1 36Z"/><path fill="gray" fill-opacity=".85" d="M420 743v22c2.04-21.13 2-43.85 2-66-1.32 13.69-.67 30.24-2 44Z"/><path fill="#7A7A7A" fill-opacity=".35" d="M419 716v42c0-.04 1 0 1 0v-43s-.75-.25-1 0v1Z"/><path fill="#898989" fill-opacity=".04" d="M415 819c.15 1.56 1.86 5.5 2 7v-1c0-9.66.14-20.11 1-29v-21c0-8.35.27-17.42 1-25v-34c-4.47 6.03-.66 15.7-2 23-1.33 7.3-.19 16.49-1 25-.81 8.51.18 20.99 0 30-.18 9.01-1 16.23-1 25Z"/><path fill="#5D5D5D" fill-opacity=".46" d="M538 728c0 14.64 2 28.2 2 43 1.05 10.81 2 22.47 2 34v12c.18 1.88 1.82 6.19 2 8 0-34.49-3.69-68.73-5-103 0 0-.98-.1-1 0v6Z"/><path fill="#7A7A7A" fill-opacity=".21" d="M418 775c0-.04 1 0 1 0v-25c-.73 7.58-1 16.65-1 25Z"/><path fill="#7E7E7E" fill-opacity=".66" d="M419 775v11c0-.04 1 0 1 0v-28s-1-.04-1 0v17Z"/><path fill="#5D5D5D" fill-opacity=".73" d="M542 805c0-11.53-.95-23.19-2-34 0 11.53.95 23.19 2 34Z"/><path fill="#777" fill-opacity=".47" d="M418 796c0 6.92 2.87 23.76-1 29v1c0 15.75-.83 36.78 0 52 .83 15.22-3.53 34.16 8 45h1c-1.98-1.86-1.94-3.97-3-6-1.89-3.63-2.99-5.33-3-10-4.23-25-3.46-56.62-1-82v-50s-1-.04-1 0v21Z"/><path fill="#7F7F7F" fill-opacity=".85" d="M419 813c.8-8.24 1-18 1-27 0 0-1-.04-1 0v27Z"/><path fill="#787878" fill-opacity=".25" d="M417 825c3.87-5.24 1-22.08 1-29-.86 8.89-1 19.34-1 29Z"/><path fill="#5D5D5D" fill-opacity=".67" d="M544 849v-24c-.18-1.81-1.82-6.12-2-8 0 10.39 1.04 22.09 2 32Z"/><path fill="#707070" fill-opacity=".08" d="M425 923c-11.53-10.84-7.17-29.78-8-45-.83-15.22 0-36.25 0-52-.14-1.5-1.85-5.44-2-7 0 11.33-.37 27.11 0 38s-.99 28.74 0 38c.99 9.26.33 26.11 10 28Z"/><path fill="#7D7D7D" fill-opacity=".81" d="M420 907c0-1.31.13-2.7 0-4-2.49-25.35-1-52.19-1-78-2.46 25.38-3.23 57 1 82Z"/><path fill="#5C5C5C" fill-opacity=".5" d="M544 849c0 10 .1 20.7 1 30 0-5.06.58-10.68 1-15 0-11.02-.99-22.59-2-33v18Z"/><path fill="#5C5C5C" fill-opacity=".62" d="M545 879c0 8.82.46 19.73-1.07 27.93-1.53 8.19-6.45 10.66-10.93 17.07 6.03-2.95 11.1-11.49 13-17 .02-.5 0-1.5 0-2v-41c-.42 4.32-1 9.94-1 15Z"/><path fill="#5C5C5C" fill-opacity=".31" d="M546 905c2.51-5.9.58-15 0-21v21Z"/><path fill="#5B5B5B" fill-opacity=".36" d="M533 924s-.56-.16-1 0c-1.34 1.4-2.96 2.34-4 4 .43-.17 1 0 1 0 1.03-.69.64-.58 2-1 5.93-2.98 14.79-13.24 15-20-1.9 5.51-6.97 14.05-13 17Z"/><path fill="#5B5B5B" fill-opacity=".41" d="M447 934c2.68-.18 5.91 3.4 8 1-10.82.31-18.83-11.14-28-12 2.16 5.22 15.21 9.55 20 11Z"/><path fill="#5B5B5B" fill-opacity=".62" d="M510 935c6.36.47 12.35-4.78 18-7 1.04-1.66 2.66-2.6 4-4-3.65 1.31-7.25 4.87-10.92 6.08-3.68 1.21-8.4 2.74-11.08 4.92Z"/><path fill="#5C5C5C" fill-opacity=".18" d="M510 935s-.56-.16-1 0c-1.84 4.05-11.37 2.96-16 4-4.64 1.04-15.68-.17-20-1-5.18-1.31-10.84-.69-16-2 .34.77 1.38 1.63 2 2 22.54 4.19 51.44 4.28 70-10 0 0-.57-.17-1 0-5.65 2.22-11.64 7.47-18 7Z"/><path fill="#5B5B5B" fill-opacity=".58" d="M473 938c4.32.83 15.36 2.04 20 1 4.63-1.04 14.16.05 16-4-10.5 3.74-24.51 3.91-36 3Z"/></svg>