<svg xmlns="http://www.w3.org/2000/svg" width="100%" height="100%" viewBox="0 0 256 256"><defs><linearGradient id="a" x1="23.871" x2="23.611" y1="41.08" y2="-.103" gradientUnits="userSpaceOnUse"><stop offset="0" stop-color="#bb76ff" stop-opacity=".871"/><stop offset=".781" stop-color="#cca0ff" stop-opacity=".839"/><stop offset="1" stop-color="#d3b1ff" stop-opacity=".851"/></linearGradient><linearGradient id="b" x1="40.521" x2="19.785" y1="18.115" y2="25.146" gradientUnits="userSpaceOnUse"><stop offset="0" stop-color="#00b1ff" stop-opacity=".8"/><stop offset="1" stop-color="#16c7ff" stop-opacity=".412"/></linearGradient><linearGradient id="c" x1="14.096" x2="33.192" y1="26.881" y2="20.755" gradientUnits="userSpaceOnUse"><stop offset="0" stop-color="#00c2ff" stop-opacity="0"/><stop offset="1" stop-color="#6ddaff" stop-opacity="0"/></linearGradient></defs><rect x="0" y="0" width="256" height="256" fill="#00000000"/><g fill="none" stroke-miterlimit="10" style="mix-blend-mode:normal" text-anchor="none"><path fill="url(#a)" d="M36.194 24.693 13.835 4.878c-1.274-1.129-3.282-.212-3.263 1.49l.325 29.866c.018 1.688 2.019 2.566 3.274 1.437l5.893-5.299 4.377 9.588a1.962 1.962 0 0 0 2.6.97l3.57-1.63a1.962 1.962 0 0 0 .97-2.6L27.2 29.108l7.938-1.001c1.674-.21 2.318-2.295 1.056-3.414z" transform="scale(5.33333)"/><g fill="#d243ff" fill-opacity=".929" opacity=".1"><path d="M91.605 20.437c-3.6 1.627-6.32 5.19-6.272 9.83L87.1 192.64c.064 6.037 4.8 10.09 9.968 10.464l2.41-2.165a1.986 1.986 0 0 1 3.136.65l.134.294c.74-.4 1.477-.816 2.149-1.424l32.037-28.811 23.798 52.128c2.448 5.36 8.773 7.723 14.133 5.275l4.928-2.251c5.755-7.52 7.381-17.819 3.173-27.035l-13.194-28.901a1.991 1.991 0 0 1 1.557-2.8l10.272-1.296-5.877-12.87 34.805-4.389c3.936-9.717 2.283-21.642-6.901-29.786zM134.73 245.333c3.377.672 6.88.699 10.353 0z"/></g><path fill="#d243ff" fill-opacity=".929" d="M88.315 22.87c-1.798 1.871-3.014 4.373-2.982 7.397L87.1 192.64c.048 4.181 2.373 7.37 5.493 9.11l8.33-7.494a1.923 1.923 0 0 1 3.035.63l2.075 4.549 30.907-27.792 23.797 52.128c1.77 3.877 5.573 6.149 9.568 6.202 9.75-5.776 13.845-18.01 9.03-28.554l-15.494-33.936a1.922 1.922 0 0 1 1.51-2.704l14.522-1.83-4.133-9.056 30.133-3.797c4.523-8.565 3.595-19.872-4.88-27.381z" opacity=".2"/><path fill="#d243ff" fill-opacity=".929" d="M86.128 26.277c-.475 1.222-.81 2.528-.795 3.99L87.1 192.64c.026 2.592.976 4.779 2.389 6.523l12.875-11.58a1.853 1.853 0 0 1 2.928.609l3.856 8.443 27.786-24.987 23.798 52.128a10.622 10.622 0 0 0 4.037 4.597l1.792-.821c9.275-4.235 13.36-15.19 9.125-24.464L157.9 164.123a1.858 1.858 0 0 1 1.456-2.614l18.768-2.368-2.395-5.242 25.003-3.152c5.429-7.19 5.44-18.086-2.4-25.035z" opacity=".3"/><path fill="#d243ff" fill-opacity=".929" d="m85.339 30.923 1.76 161.717c.01 1.024.197 1.973.458 2.88l16.25-14.613a1.793 1.793 0 0 1 2.828.586l5.632 12.336 24.672-22.186 23.797 52.128c.267.58.592 1.109.944 1.616l3.227-1.472c7.264-3.318 10.469-11.9 7.152-19.163l-20.086-44a1.789 1.789 0 0 1 1.403-2.517l23.019-2.902-.656-1.434 18.405-2.32c7.403-4.928 9.05-16.22 1.541-22.875z" opacity=".4"/><path fill="#d243ff" fill-opacity=".929" d="m168.421 206.405-23.354-51.162 42.336-5.334c8.928-1.125 12.362-12.245 5.632-18.213L73.792 26.02l1.899 174.79 31.312-28.155 13.338 29.221 12.592-11.322 16.454 36.048 13.856-6.326c5.264-2.405 7.578-8.613 5.178-13.872z" opacity=".05"/><path fill="#d243ff" fill-opacity=".929" d="m107.003 172.65 12.346 27.046 14.374-12.928 17.749 38.88 11.776-5.376c5.259-2.4 7.573-8.608 5.173-13.867l-23.354-51.162 42.336-5.334c8.928-1.125 12.362-12.245 5.632-18.213L76.1 28.069l1.856 170.704z" opacity=".1"/><path fill="#d243ff" fill-opacity=".929" d="m107.003 172.65 11.349 24.865 16.155-14.528 19.04 41.712 9.7-4.427c5.26-2.4 7.574-8.608 5.174-13.867l-23.354-51.162 42.336-5.334c8.928-1.125 12.362-12.245 5.632-18.213L78.41 30.112l1.808 166.624z" opacity=".15"/><path fill="#d243ff" fill-opacity=".929" d="m107.003 172.65 10.357 22.689 17.936-16.128 20.336 44.544 7.621-3.478c5.259-2.4 7.574-8.608 5.174-13.866l-23.36-51.168 42.336-5.334c8.928-1.125 12.362-12.245 5.632-18.213L80.715 32.16l1.765 162.544z" opacity=".2"/><path fill="#d243ff" fill-opacity=".929" d="m107.003 172.65 9.36 20.507 19.717-17.733 21.627 47.376 5.54-2.528c5.26-2.4 7.574-8.608 5.174-13.867l-23.354-51.162 42.336-5.334c8.928-1.125 12.362-12.245 5.632-18.213L83.024 34.203l1.723 158.464z" opacity=".25"/><path fill="#d243ff" fill-opacity=".929" d="m85.333 36.31 1.675 154.266 19.925-17.92.022.043.048-.043 8.368 18.325 21.498-19.333 22.907 50.181 3.408-1.557c5.259-2.4 7.573-8.608 5.173-13.867l-23.354-51.162 42.336-5.334c8.928-1.125 12.362-12.245 5.632-18.213z"/><path fill="url(#b)" d="M42.119 24.355 19.326 4.156C18.028 3.006 15.981 3.94 16 5.675l.331 30.445c.019 1.721 2.058 2.616 3.337 1.465l6.007-5.402 4.462 9.774a2 2 0 0 0 2.65.989l3.639-1.661a2 2 0 0 0 .989-2.65l-4.464-9.779 8.092-1.02c1.706-.215 2.363-2.34 1.076-3.481z" transform="scale(5.33333)"/><path fill="url(#c)" d="M18.012 4.149c.361 0 .701.132.983.381l22.792 20.199c.453.402.617.987.438 1.566a1.466 1.466 0 0 1-1.246 1.045l-8.092 1.02-.675.085.282.619 4.464 9.779a1.501 1.501 0 0 1-.742 1.987l-3.639 1.661a1.505 1.505 0 0 1-1.988-.742l-4.462-9.774-.283-.62-.506.455-6.007 5.402a1.465 1.465 0 0 1-.991.388c-.735 0-1.502-.556-1.512-1.487L16.5 5.669a1.452 1.452 0 0 1 .422-1.064c.287-.29.684-.456 1.09-.456m0-.5c-1.039 0-2.025.819-2.012 2.026l.331 30.445c.013 1.188.988 1.982 2.012 1.982.46 0 .929-.16 1.325-.517l6.007-5.402 4.462 9.774a2 2 0 0 0 2.65.989l3.639-1.661a2 2 0 0 0 .989-2.65l-4.464-9.779 8.092-1.02c1.706-.215 2.363-2.341 1.076-3.481L19.326 4.156a1.964 1.964 0 0 0-1.314-.507z" transform="scale(5.33333)"/></g></svg>