<?xml version="1.0" encoding="UTF-8" standalone="no"?>
<!DOCTYPE svg PUBLIC "-//W3C//DTD SVG 1.1//EN" "http://www.w3.org/Graphics/SVG/1.1/DTD/svg11.dtd">
<!-- Created with Vectornator (http://vectornator.io/) -->
<svg height="100%" stroke-miterlimit="10" style="fill-rule:nonzero;clip-rule:evenodd;stroke-linecap:round;stroke-linejoin:round;" version="1.1" viewBox="-0.828151 8.51842 47.1071 30.6456" width="100%" xml:space="preserve" xmlns="http://www.w3.org/2000/svg" xmlns:vectornator="http://vectornator.io" xmlns:xlink="http://www.w3.org/1999/xlink">
<defs>
<linearGradient gradientTransform="matrix(8.54758 35.8225 39.7629 -7.70053 9.7826 13.5765)" gradientUnits="userSpaceOnUse" id="LinearGradient" x1="0" x2="1" y1="0" y2="0">
<stop offset="0" stop-color="#00fbff"/>
<stop offset="1" stop-color="#2355ce"/>
</linearGradient>
<linearGradient gradientTransform="matrix(-9.66067 8.73704 9.14366 11.0269 32.5017 18.7986)" gradientUnits="userSpaceOnUse" id="LinearGradient_2" x1="0" x2="1" y1="0" y2="0">
<stop offset="0" stop-color="#00fbff"/>
<stop offset="1" stop-color="#2355ce" stop-opacity="0.05"/>
</linearGradient>
<linearGradient gradientTransform="matrix(1.78779e-12 13.4209 -13.4209 1.78346e-12 20.5688 9.93197)" gradientUnits="userSpaceOnUse" id="LinearGradient_3" x1="0" x2="1" y1="0" y2="0">
<stop offset="0" stop-color="#808080"/>
<stop offset="0.493421" stop-color="#b3b3b3"/>
<stop offset="1" stop-color="#ffffff"/>
</linearGradient>
</defs>
<g id="Layer">
<g opacity="1">
<g opacity="1">
<path d="M21.3818 8.51842C14.8591 8.51842 9.4571 12.5078 7.35131 18.0423C3.90744 18.8253 1.08474 21.0911-0.159667 24.3215C-2.28531 29.8395 0.835533 36.0966 6.69034 38.352C6.8907 38.4292 7.38135 38.5623 7.38135 38.5623C8.32854 38.8692 9.5261 39.0761 11.1669 39.1632C11.3473 39.1728 33.9816 39.0921 34.6011 39.043C35.7828 38.9494 36.6738 38.8408 37.275 38.6825C43.5176 37.0393 47.4649 31.3091 45.9577 25.5834C44.7424 20.9665 40.4938 18.0714 35.5926 17.9522C35.2911 17.1701 34.9736 16.4088 34.541 15.6989C31.8484 11.2801 26.8645 8.51843 21.3818 8.51842ZM21.1715 11.4026C25.3196 11.4026 29.0649 13.4531 31.056 16.7204C31.1894 16.9394 31.2706 17.1845 31.3864 17.4114C31.3864 17.4114 33.3751 17.8941 35.2898 18.9662C37.2046 20.0383 38.3317 21.2788 39.0454 21.6997C40.5041 22.5599 41.5824 23.9133 42.022 25.5834C42.9539 29.1235 40.3736 32.8637 36.0733 33.9957C35.7659 34.0766 35.046 34.1903 34.0904 34.2661C33.5138 34.3118 12.851 34.3913 11.8879 34.3562C10.3054 34.2985 9.1019 34.1332 8.43289 33.8755C4.96282 32.5387 3.18536 29.0014 4.31688 26.0641C4.97902 24.3452 6.51187 23.0853 8.49298 22.6691C9.792 22.3962 10.6286 21.144 10.3557 19.845C10.3508 19.8215 10.3312 19.8081 10.3257 19.7849C11.3964 15.0441 15.7195 11.4026 21.1715 11.4026Z" fill="url(#LinearGradient)" fill-rule="nonzero" opacity="1" stroke="none"/>
<path d="M21.3818 8.51842C14.8591 8.51842 9.4571 12.5078 7.35131 18.0423C3.90744 18.8253 1.08474 21.0911-0.159667 24.3215C-2.28531 29.8395 0.835533 36.0966 6.69034 38.352C6.8907 38.4292 7.38135 38.5623 7.38135 38.5623C8.32854 38.8692 9.5261 39.0761 11.1669 39.1632C11.3473 39.1728 33.9816 39.0921 34.6011 39.043C35.7828 38.9494 36.6738 38.8408 37.275 38.6825C43.5176 37.0393 47.4649 31.3091 45.9577 25.5834C44.7424 20.9665 40.4938 18.0714 35.5926 17.9522C35.2911 17.1701 34.9736 16.4088 34.541 15.6989C31.8484 11.2801 26.8645 8.51843 21.3818 8.51842ZM21.1715 11.4026C25.3196 11.4026 29.0649 13.4531 31.056 16.7204C31.1894 16.9394 31.2706 17.1845 31.3864 17.4114C25.3917 19.1768 21.6104 24.9335 23.0943 30.5707C23.3646 31.5976 24.4408 32.223 25.4678 31.9527C26.4947 31.6823 27.0901 30.6061 26.8198 29.5792C25.8724 25.9804 28.439 22.1026 32.6783 20.9866C33.0907 20.8781 33.7209 20.7697 34.2406 20.7163C37.9715 20.3329 41.1769 22.3728 42.022 25.5834C42.9539 29.1235 40.3736 32.8637 36.0733 33.9957C35.7659 34.0766 35.046 34.1903 34.0904 34.2661C33.5138 34.3118 12.851 34.3913 11.8879 34.3562C10.3054 34.2985 9.1019 34.1332 8.43289 33.8755C4.96282 32.5387 3.18536 29.0014 4.31688 26.0641C4.97902 24.3452 6.51187 23.0853 8.49298 22.6691C9.792 22.3962 10.6286 21.144 10.3557 19.845C10.3508 19.8215 10.3312 19.8081 10.3257 19.7849C11.3964 15.0441 15.7195 11.4026 21.1715 11.4026Z" fill="url(#LinearGradient_2)" fill-rule="nonzero" opacity="1" stroke="none"/>
</g>
<path d="M22.7254 17.8742C22.7254 16.7696 21.83 15.8742 20.7254 15.8742C19.6208 15.8742 18.7254 16.7696 18.7254 17.8742L18.7254 23.8742C18.7254 24.9788 19.6208 25.8742 20.7254 25.8742C21.83 25.8742 22.7254 24.9788 22.7254 23.8742L22.7254 17.8742ZM20.7254 31.8742C21.83 31.8742 22.7254 30.9788 22.7254 29.8742C22.7254 28.7696 21.83 27.8742 20.7254 27.8742C19.6208 27.8742 18.7254 28.7696 18.7254 29.8742C18.7254 30.9788 19.6208 31.8742 20.7254 31.8742Z" fill="url(#LinearGradient_3)" fill-rule="evenodd" opacity="1" stroke="none"/>
</g>
</g>
</svg>
