<svg viewBox="0 0 48 48" width="100%" height="100%" stroke-miterlimit="10" style="fill-rule:nonzero;clip-rule:evenodd;stroke-linecap:round;stroke-linejoin:round;" version="1.1"  xml:space="preserve" xmlns="http://www.w3.org/2000/svg" xmlns:vectornator="http://vectornator.io" xmlns:xlink="http://www.w3.org/1999/xlink">
<defs>
<linearGradient gradientTransform="matrix(8.54758 35.8225 39.7629 -7.70053 11.0572 13.7353)" gradientUnits="userSpaceOnUse" id="LG" x1="0" x2="1" y1="0" y2="0"><stop offset="0" stop-color="#00fbff"/><stop offset="1" stop-color="#2355ce"/></linearGradient>
<linearGradient gradientTransform="matrix(-9.66067 8.73704 9.14366 11.0269 33.7763 18.9574)" gradientUnits="userSpaceOnUse" id="LG2" x1="0" x2="1" y1="0" y2="0"><stop offset="0" stop-color="#00fbff"/><stop offset="1" stop-color="#2355ce" stop-opacity="0.05"/></linearGradient>
<linearGradient gradientTransform="matrix(8.54758 35.8225 39.7629 -7.70053 9.7826 13.5765)" gradientUnits="userSpaceOnUse" id="LGg" x1="0" x2="1" y1="0" y2="0"><stop offset="0" stop-color="#00fbff"/><stop offset="1" stop-color="#2355ce"/></linearGradient>
<linearGradient gradientTransform="matrix(1.78701e-12 13.4209 -13.4209 1.78346e-12 20.5688 9.93197)" gradientUnits="userSpaceOnUse" id="LG00" x1="0" x2="1" y1="0" y2="0"><stop offset="0" stop-color="#808080"/><stop offset="0.493421" stop-color="#b3b3b3"/><stop offset="1" stop-color="#ffffff"/></linearGradient>
<linearGradient gradientTransform="matrix(0.0150018 11.1663 -11.1663 0.0150018 23.9388 11.648)" gradientUnits="userSpaceOnUse" id="LG0" x1="0" x2="1" y1="0" y2="0"><stop offset="0" stop-color="#808080"/><stop offset="0.493421" stop-color="#b3b3b3"/><stop offset="1" stop-color="#ffffff"/></linearGradient>
<linearGradient gradientTransform="matrix(-9.66067 8.73704 9.14366 11.0269 32.5017 18.7986)" gradientUnits="userSpaceOnUse" id="LG02" x1="0" x2="1" y1="0" y2="0"><stop offset="0" stop-color="#00fbff"/><stop offset="1" stop-color="#2355ce" stop-opacity="0.05"/></linearGradient>
<linearGradient gradientTransform="matrix(1.78779e-12 13.4209 -13.4209 1.78346e-12 20.5688 9.93197)" gradientUnits="userSpaceOnUse" id="LG3" x1="0" x2="1" y1="0" y2="0"><stop offset="0" stop-color="#808080"/><stop offset="0.493421" stop-color="#b3b3b3"/><stop offset="1" stop-color="#fff"/></linearGradient>
<linearGradient gradientTransform="matrix(-0.150542 12.3396 -12.3396 -0.150542 2.20524 -4.87959)" gradientUnits="userSpaceOnUse" id="LGEP" x1="0" x2="1" y1="0" y2="0"><stop offset="0" stop-color="#808080"/><stop offset="0.493421" stop-color="#b3b3b3"/><stop offset="1" stop-color="#ffffff"/></linearGradient>
</defs>
    <style>
@keyframes cloud_t { 0% { transform: translate(0px,0px); animation-timing-function: cubic-bezier(0,0,0.58,1); } 76.6666% { transform: translate(0px,0px); animation-timing-function: cubic-bezier(0.42,0,0.58,1); } 78.3333% { transform: translate(0px,2px); animation-timing-function: cubic-bezier(0.42,0,0.58,1); } 80% { transform: translate(0px,0px); animation-timing-function: cubic-bezier(0.42,0,1,1); } 100% { transform: translate(0px,0px); } }
@keyframes clooud_t { 0% { transform: translate(0px,0px); animation-timing-function: cubic-bezier(0,0,0.58,1); } 76.6666% { transform: translate(0px,0px); animation-timing-function: cubic-bezier(0.42,0,0.58,1); } 78.3333% { transform: translate(0px,2px); animation-timing-function: cubic-bezier(0.42,0,0.58,1); } 80% { transform: translate(0px,0px); animation-timing-function: cubic-bezier(0.42,0,1,1); } 100% { transform: translate(0px,0px); } }
@keyframes shakepoint_t { 0% { transform: translate(24px,30px); } 58.3333% { transform: translate(24px,30px); animation-timing-function: cubic-bezier(0.42,0,1,1); } 71.6666% { transform: translate(24px,26px); animation-timing-function: cubic-bezier(0.525328,0.017657,0.922379,0.508087); } 76.6666% { transform: translate(24px,30.0103px); } 100% { transform: translate(24px,30.0103px); } }
@keyframes exclamationpoint_t { 0% { transform: rotate(0deg) translate(-2px,-14px); } 76.6666% { transform: rotate(0deg) translate(-2px,-14px); animation-timing-function: cubic-bezier(0.42,0,0.58,1); } 80% { transform: rotate(25deg) translate(-2px,-14px); animation-timing-function: cubic-bezier(0.42,0,0.58,1); } 83.3333% { transform: rotate(-25deg) translate(-2px,-14px); animation-timing-function: cubic-bezier(0.42,0,0.58,1); } 86.6666% { transform: rotate(15deg) translate(-2px,-14px); animation-timing-function: cubic-bezier(0.42,0,0.58,1); } 90% { transform: rotate(-15deg) translate(-2px,-14px); animation-timing-function: cubic-bezier(0.42,0,0.58,1); } 93.3333% { transform: rotate(7deg) translate(-2px,-14px); animation-timing-function: cubic-bezier(0.42,0,0.58,1); } 96.6666% { transform: rotate(-7deg) translate(-2px,-14px); animation-timing-function: cubic-bezier(0.42,0,0.58,1); } 100% { transform: rotate(0deg) translate(-2px,-14px); } }
@keyframes exclamationspoint_t { 0% { transform: rotate(0deg) translate(0px,-14px); } 76.6666% { transform: rotate(0deg) translate(0px,-14px); animation-timing-function: cubic-bezier(0.42,0,0.58,1); } 80% { transform: rotate(25deg) translate(0px,-14px); animation-timing-function: cubic-bezier(0.42,0,0.58,1); } 83.3333% { transform: rotate(-25deg) translate(0px,-14px); animation-timing-function: cubic-bezier(0.42,0,0.58,1); } 86.6666% { transform: rotate(15deg) translate(0px,-14px); animation-timing-function: cubic-bezier(0.42,0,0.58,1); } 90% { transform: rotate(-15deg) translate(0px,-14px); animation-timing-function: cubic-bezier(0.42,0,0.58,1); } 93.3333% { transform: rotate(7deg) translate(0px,-14px); animation-timing-function: cubic-bezier(0.42,0,0.58,1); } 96.6666% { transform: rotate(-7deg) translate(0px,-14px); animation-timing-function: cubic-bezier(0.42,0,0.58,1); } 100% { transform: rotate(0deg) translate(0px,-14px); } }
@keyframes shakedpoint_t { 0% { transform: translate(18px,30px); } 58.3333% { transform: translate(18px,30px); animation-timing-function: cubic-bezier(0.42,0,1,1); } 71.6666% { transform: translate(18px,26px); animation-timing-function: cubic-bezier(0.525328,0.017657,0.922379,0.508087); } 76.6666% { transform: translate(18px,30.0103px); } 100% { transform: translate(18px,30.0103px); } }
@keyframes shakespoint_t { 0% { transform: translate(20px,30px); } 58.3333% { transform: translate(20px,30px); animation-timing-function: cubic-bezier(0.42,0,1,1); } 71.6666% { transform: translate(20px,26px); animation-timing-function: cubic-bezier(0.525328,0.017657,0.922379,0.508087); } 76.6666% { transform: translate(20px,30.0103px); } 100% { transform: translate(20px,30.0103px); } }
    </style>
<g opacity="1" stroke="none">
<g opacity="1" fill-rule="nonzero">
<path id="cloud" d="M21.3818 8.51842C14.8591 8.51842 9.4571 12.5078 7.35131 18.0423C3.90744 18.8253 1.08474 21.0911-0.159667 24.3215C-2.28531 29.8395 0.835533 36.0966 6.69034 38.352C6.8907 38.4292 7.38135 38.5623 7.38135 38.5623C8.32854 38.8692 9.5261 39.0761 11.1669 39.1632C11.3473 39.1728 33.9816 39.0921 34.6011 39.043C35.7828 38.9494 36.6738 38.8408 37.275 38.6825C43.5176 37.0393 47.4649 31.3091 45.9577 25.5834C44.7424 20.9665 40.4938 18.0714 35.5926 17.9522C35.2911 17.1701 34.9736 16.4088 34.541 15.6989C31.8484 11.2801 26.8645 8.51843 21.3818 8.51842ZM21.1715 11.4026C25.3196 11.4026 29.0649 13.4531 31.056 16.7204C31.1894 16.9394 31.2706 17.1845 31.3864 17.4114C31.3864 17.4114 33.3751 17.8941 35.2898 18.9662C37.2046 20.0383 38.3317 21.2788 39.0454 21.6997C40.5041 22.5599 41.5824 23.9133 42.022 25.5834C42.9539 29.1235 40.3736 32.8637 36.0733 33.9957C35.7659 34.0766 35.046 34.1903 34.0904 34.2661C33.5138 34.3118 12.851 34.3913 11.8879 34.3562C10.3054 34.2985 9.1019 34.1332 8.43289 33.8755C4.96282 32.5387 3.18536 29.0014 4.31688 26.0641C4.97902 24.3452 6.51187 23.0853 8.49298 22.6691C9.792 22.3962 10.6286 21.144 10.3557 19.845C10.3508 19.8215 10.3312 19.8081 10.3257 19.7849C11.3964 15.0441 15.7195 11.4026 21.1715 11.4026Z" fill="url(#LG)" transform="translate(24,23) translate(-24,-23)" style="animation: cloud_t 2s linear infinite both;"/>
<path id="cloud2" d="M21.3818 8.51842C14.8591 8.51842 9.4571 12.5078 7.35131 18.0423C3.90744 18.8253 1.08474 21.0911-0.159667 24.3215C-2.28531 29.8395 0.835533 36.0966 6.69034 38.352C6.8907 38.4292 7.38135 38.5623 7.38135 38.5623C8.32854 38.8692 9.5261 39.0761 11.1669 39.1632C11.3473 39.1728 33.9816 39.0921 34.6011 39.043C35.7828 38.9494 36.6738 38.8408 37.275 38.6825C43.5176 37.0393 47.4649 31.3091 45.9577 25.5834C44.7424 20.9665 40.4938 18.0714 35.5926 17.9522C35.2911 17.1701 34.9736 16.4088 34.541 15.6989C31.8484 11.2801 26.8645 8.51843 21.3818 8.51842ZM21.1715 11.4026C25.3196 11.4026 29.0649 13.4531 31.056 16.7204C31.1894 16.9394 31.2706 17.1845 31.3864 17.4114C25.3917 19.1768 21.6104 24.9335 23.0943 30.5707C23.3646 31.5976 24.4408 32.223 25.4678 31.9527C26.4947 31.6823 27.0901 30.6061 26.8198 29.5792C25.8724 25.9804 28.439 22.1026 32.6783 20.9866C33.0907 20.8781 33.7209 20.7697 34.2406 20.7163C37.9715 20.3329 41.1769 22.3728 42.022 25.5834C42.9539 29.1235 40.3736 32.8637 36.0733 33.9957C35.7659 34.0766 35.046 34.1903 34.0904 34.2661C33.5138 34.3118 12.851 34.3913 11.8879 34.3562C10.3054 34.2985 9.1019 34.1332 8.43289 33.8755C4.96282 32.5387 3.18536 29.0014 4.31688 26.0641C4.97902 24.3452 6.51187 23.0853 8.49298 22.6691C9.792 22.3962 10.6286 21.144 10.3557 19.845C10.3508 19.8215 10.3312 19.8081 10.3257 19.7849C11.3964 15.0441 15.7195 11.4026 21.1715 11.4026Z" fill="url(#LG2)" transform="translate(24,23) translate(-24,-23)" style="animation: cloud_t 2s linear infinite both;"/>
</g>
    <g opacity="0" id="exclamation point" style="animation: shakepoint_t 2s linear infinite both;">
        <path d="M4 2C4 0.895431 3.10457 0 2 0C0.895431 0 0 0.895431 0 2L0 8C0 9.10457 0.895431 10 2 10C3.10457 10 4 9.10457 4 8L4 2ZM2 16C3.10457 16 4 15.1046 4 14C4 12.8954 3.10457 12 2 12C0.895431 12 0 12.8954 0 14C0 15.1046 0.895431 16 2 16Z" fill="url(#LGEP)" fill-rule="evenodd" stroke-dashoffset="0" stroke-width="1" transform="translate(24,30) translate(-2,-14)" style="animation: exclamationpoint_t 2s linear infinite both;"/>
    </g>
    <g id="exclamation point" style="animation: shakespoint_t 2s linear infinite both;">
        <path d="M4 2C4 0.895431 3.10457 0 2 0C0.895431 0 0 0.895431 0 2L0 8C0 9.10457 0.895431 10 2 10C3.10457 10 4 9.10457 4 8L4 2ZM2 16C3.10457 16 4 15.1046 4 14C4 12.8954 3.10457 12 2 12C0.895431 12 0 12.8954 0 14C0 15.1046 0.895431 16 2 16Z" fill="url(#LGEP)" fill-rule="evenodd" stroke-dashoffset="0" stroke-width="1" transform="translate(20,30) translate(0,-14)" style="animation: exclamationspoint_t 2s linear infinite both;"/>
    </g>
</g>
</svg>


<?xml version="1.0" encoding="UTF-8" standalone="no"?>
<!DOCTYPE svg PUBLIC "-//W3C//DTD SVG 1.1//EN" "http://www.w3.org/Graphics/SVG/1.1/DTD/svg11.dtd">
<!-- Created with Vectornator (http://vectornator.io/) -->
<svg height="100%" stroke-miterlimit="10" style="fill-rule:nonzero;clip-rule:evenodd;stroke-linecap:round;stroke-linejoin:round;" version="1.1" viewBox="0.446458 8.67722 47.1071 30.6456" width="100%" xml:space="preserve" xmlns="http://www.w3.org/2000/svg" xmlns:vectornator="http://vectornator.io" xmlns:xlink="http://www.w3.org/1999/xlink">
<defs>
<linearGradient gradientTransform="matrix(8.54758 35.8225 39.7629 -7.70053 11.0572 13.7353)" gradientUnits="userSpaceOnUse" id="LG" x1="0" x2="1" y1="0" y2="0"><stop offset="0" stop-color="#00fbff"/><stop offset="1" stop-color="#2355ce"/></linearGradient>
<linearGradient gradientTransform="matrix(-9.66067 8.73704 9.14366 11.0269 33.7763 18.9574)" gradientUnits="userSpaceOnUse" id="LG2" x1="0" x2="1" y1="0" y2="0"><stop offset="0" stop-color="#00fbff"/><stop offset="1" stop-color="#2355ce" stop-opacity="0.05"/></linearGradient>
</defs>
<g id="Layer">
<g opacity="1">
<path d="M22.6564 8.67722C16.1337 8.67722 10.7317 12.6666 8.62592 18.2011C5.18205 18.9841 2.35935 21.2499 1.11494 24.4803C-1.0107 29.9983 2.11014 36.2554 7.96495 38.5108C8.16531 38.588 8.65596 38.7211 8.65596 38.7211C9.60315 39.028 10.8007 39.2349 12.4415 39.322C12.6219 39.3316 35.2562 39.2509 35.8757 39.2018C37.0574 39.1082 37.9484 38.9996 38.5496 38.8413C44.7922 37.1981 48.7395 31.4679 47.2323 25.7422C46.017 21.1253 41.7684 18.2302 36.8672 18.111C36.5657 17.3289 36.2482 16.5676 35.8156 15.8577C33.123 11.4389 28.1391 8.67723 22.6564 8.67722ZM22.4461 11.5614C26.5942 11.5614 30.3395 13.6119 32.3306 16.8792C32.464 17.0982 32.5452 17.3433 32.661 17.5702C32.661 17.5702 34.6497 18.0529 36.5644 19.125C38.4792 20.1971 39.6063 21.4376 40.32 21.8585C41.7787 22.7187 42.857 24.0721 43.2966 25.7422C44.2285 29.2823 41.6482 33.0225 37.3479 34.1545C37.0405 34.2354 36.3206 34.3491 35.365 34.4249C34.7884 34.4706 14.1256 34.5501 13.1625 34.515C11.58 34.4573 10.3765 34.292 9.7075 34.0343C6.23743 32.6975 4.45997 29.1602 5.59149 26.2229C6.25363 24.504 7.78648 23.2441 9.76759 22.8279C11.0666 22.555 11.9032 21.3028 11.6303 20.0038C11.6254 19.9803 11.6058 19.9669 11.6003 19.9437C12.671 15.2029 16.9941 11.5614 22.4461 11.5614Z" fill="url(#LinearGradient)" fill-rule="nonzero" opacity="1" stroke="none"/>
<path d="M22.6564 8.67722C16.1337 8.67722 10.7317 12.6666 8.62592 18.2011C5.18205 18.9841 2.35935 21.2499 1.11494 24.4803C-1.0107 29.9983 2.11014 36.2554 7.96495 38.5108C8.16531 38.588 8.65596 38.7211 8.65596 38.7211C9.60315 39.028 10.8007 39.2349 12.4415 39.322C12.6219 39.3316 35.2562 39.2509 35.8757 39.2018C37.0574 39.1082 37.9484 38.9996 38.5496 38.8413C44.7922 37.1981 48.7395 31.4679 47.2323 25.7422C46.017 21.1253 41.7684 18.2302 36.8672 18.111C36.5657 17.3289 36.2482 16.5676 35.8156 15.8577C33.123 11.4389 28.1391 8.67723 22.6564 8.67722ZM22.4461 11.5614C26.5942 11.5614 30.3395 13.6119 32.3306 16.8792C32.464 17.0982 32.5452 17.3433 32.661 17.5702C26.6663 19.3356 22.885 25.0923 24.3689 30.7295C24.6392 31.7564 25.7154 32.3818 26.7424 32.1115C27.7693 31.8411 28.3647 30.7649 28.0944 29.738C27.147 26.1392 29.7136 22.2614 33.9529 21.1454C34.3653 21.0369 34.9955 20.9285 35.5152 20.8751C39.2461 20.4917 42.4515 22.5316 43.2966 25.7422C44.2285 29.2823 41.6482 33.0225 37.3479 34.1545C37.0405 34.2354 36.3206 34.3491 35.365 34.4249C34.7884 34.4706 14.1256 34.5501 13.1625 34.515C11.58 34.4573 10.3765 34.292 9.7075 34.0343C6.23743 32.6975 4.45997 29.1602 5.59149 26.2229C6.25363 24.504 7.78648 23.2441 9.76759 22.8279C11.0666 22.555 11.9032 21.3028 11.6303 20.0038C11.6254 19.9803 11.6058 19.9669 11.6003 19.9437C12.671 15.2029 16.9941 11.5614 22.4461 11.5614Z" fill="url(#LG2)" fill-rule="nonzero" opacity="1" stroke="none"/>
</g>
</g>
</svg>

