<svg viewBox="0 0 48 48" width="100%" height="100%" stroke-miterlimit="10" style="fill-rule:nonzero;clip-rule:evenodd;stroke-linecap:round;stroke-linejoin:round;" version="1.1"  xml:space="preserve" xmlns="http://www.w3.org/2000/svg" xmlns:vectornator="http://vectornator.io" xmlns:xlink="http://www.w3.org/1999/xlink">
<defs><linearGradient gradientTransform="matrix(8.54758 35.8225 39.7629 -7.70053 11.0572 13.7023)" gradientUnits="userSpaceOnUse" id="LG" x1="0" x2="1" y1="0" y2="0"><stop offset="0" stop-color="#00fbff"/><stop offset="1" stop-color="#2355ce"/></linearGradient></defs>
    <style>
@keyframes cloud_t { 0% { transform: translate(0px,0px); animation-timing-function: cubic-bezier(0,0,0.58,1); } 76.6666% { transform: translate(0px,0px); animation-timing-function: cubic-bezier(0.42,0,0.58,1); } 78.3333% { transform: translate(0px,2px); animation-timing-function: cubic-bezier(0.42,0,0.58,1); } 80% { transform: translate(0px,0px); animation-timing-function: cubic-bezier(0.42,0,1,1); } 100% { transform: translate(0px,0px); } }
@keyframes shakepoint_t { 0% { transform: translate(24px,30px); } 58.3333% { transform: translate(24px,30px); animation-timing-function: cubic-bezier(0.42,0,1,1); } 71.6666% { transform: translate(24px,26px); animation-timing-function: cubic-bezier(0.525328,0.017657,0.922379,0.508087); } 76.6666% { transform: translate(24px,30.0103px); } 100% { transform: translate(24px,30.0103px); } }
@keyframes exclamationpoint_t { 0% { transform: rotate(0deg) translate(-2px,-14px); } 76.6666% { transform: rotate(0deg) translate(-2px,-14px); animation-timing-function: cubic-bezier(0.42,0,0.58,1); } 80% { transform: rotate(25deg) translate(-2px,-14px); animation-timing-function: cubic-bezier(0.42,0,0.58,1); } 83.3333% { transform: rotate(-25deg) translate(-2px,-14px); animation-timing-function: cubic-bezier(0.42,0,0.58,1); } 86.6666% { transform: rotate(15deg) translate(-2px,-14px); animation-timing-function: cubic-bezier(0.42,0,0.58,1); } 90% { transform: rotate(-15deg) translate(-2px,-14px); animation-timing-function: cubic-bezier(0.42,0,0.58,1); } 93.3333% { transform: rotate(7deg) translate(-2px,-14px); animation-timing-function: cubic-bezier(0.42,0,0.58,1); } 96.6666% { transform: rotate(-7deg) translate(-2px,-14px); animation-timing-function: cubic-bezier(0.42,0,0.58,1); } 100% { transform: rotate(0deg) translate(-2px,-14px); } }
    </style>
<g opacity="1" fill-rule="nonzero" stroke="none">
<path id="cloud" d="M22.6564 8.64422C16.1337 8.64422 10.7317 12.6336 8.62591 18.1681C5.18204 18.9511 2.35934 21.2169 1.11493 24.4473C-1.01071 29.9653 2.11013 36.2224 7.96494 38.4778C8.1653 38.555 8.65595 38.6881 8.65595 38.6881C9.60314 38.995 10.8007 39.2019 12.4415 39.289C12.6219 39.2986 35.2562 39.2179 35.8757 39.1688C37.0574 39.0752 37.9484 38.9666 38.5496 38.8083C44.7922 37.1651 48.7395 31.4349 47.2323 25.7092C46.017 21.0923 41.7684 18.1972 36.8672 18.078C36.5657 17.2959 36.2482 16.5346 35.8156 15.8247C33.123 11.4059 28.1391 8.64423 22.6564 8.64422ZM22.4461 11.5284C26.5942 11.5284 30.3395 13.5789 32.3306 16.8462C32.464 17.0652 32.5452 17.3103 32.661 17.5372C26.6663 19.3026 22.885 25.0593 24.3689 30.6965C24.6392 31.7234 25.7154 32.3488 26.7424 32.0785C27.7693 31.8081 28.3647 30.7319 28.0944 29.705C27.147 26.1062 29.7136 22.2284 33.9529 21.1124C34.3653 21.0039 34.9955 20.8955 35.5152 20.8421C39.2461 20.4587 42.4515 22.4986 43.2966 25.7092C44.2285 29.2493 41.6482 32.9895 37.3479 34.1215C37.0405 34.2024 36.3206 34.3161 35.365 34.3919C34.7884 34.4376 14.1256 34.5171 13.1625 34.482C11.58 34.4243 10.3765 34.259 9.70749 34.0013C6.23742 32.6645 4.45996 29.1272 5.59148 26.1899C6.25362 24.471 7.78647 23.2111 9.76758 22.7949C11.0666 22.522 11.9032 21.2698 11.6303 19.9708C11.6254 19.9473 11.6058 19.9339 11.6003 19.9107C12.671 15.1699 16.9941 11.5284 22.4461 11.5284Z" fill="url(#LG)" transform="translate(24,23) translate(-24,-23)" style="animation: cloud_t 2s linear infinite both;"/>
    <g id="exclamation point" style="animation: shakepoint_t 2s linear infinite both;">
        <path fill="#ff0000" stroke="none" d="M4,2C4,0.895431,3.10457,0,2,0C0.895431,0,0,0.895431,0,2L0,8C0,9.10457,0.895431,10,2,10C3.10457,10,4,9.10457,4,8ZM2,16C3.10457,16,4,15.1046,4,14C4,12.8954,3.10457,12,2,12C0.895431,12,0,12.8954,0,14C0,15.1046,0.895431,16,2,16z" fill-rule="evenodd" stroke-dashoffset="0" stroke-width="1" transform="translate(24,30) translate(-2,-14)" style="animation: exclamationpoint_t 2s linear infinite both;"/>
    </g>
</g>
</svg>