<svg viewBox="0 0 48 48" width="100%" height="100%" stroke-miterlimit="10" style="fill-rule:nonzero;clip-rule:evenodd;stroke-linecap:round;stroke-linejoin:round;" version="1.1"  xml:space="preserve" xmlns="http://www.w3.org/2000/svg" xmlns:vectornator="http://vectornator.io" xmlns:xlink="http://www.w3.org/1999/xlink">
<defs>
<linearGradient gradientTransform="matrix(8.54758 35.8225 39.7629 -7.70053 11.0572 13.7353)" gradientUnits="userSpaceOnUse" id="LG" x1="0" x2="1" y1="0" y2="0"><stop offset="0" stop-color="#00fbff"/><stop offset="1" stop-color="#2355ce"/></linearGradient>
<linearGradient gradientTransform="matrix(-9.66067 8.73704 9.14366 11.0269 33.7763 18.9574)" gradientUnits="userSpaceOnUse" id="LG2" x1="0" x2="1" y1="0" y2="0"><stop offset="0" stop-color="#00fbff"/><stop offset="1" stop-color="#2355ce" stop-opacity="0.05"/></linearGradient>
</defs>
    <style>
@keyframes Combined-Shape_t { 0% { transform: translate(24px,23px) scale(0.95,0.95) translate(-24px,-23px); animation-timing-function: cubic-bezier(0.42,0,0.58,1); } 50% { transform: translate(24px,23px) scale(1,1) translate(-24px,-23px); animation-timing-function: cubic-bezier(0.42,0,0.58,1); } 100% { transform: translate(24px,23px) scale(0.95,0.95) translate(-24px,-23px); } }
@keyframes a0_t { 0% { transform: translate(24.164986px,25.974101px) rotate(45deg) scale(1,1) translate(-2px,-9px); animation-timing-function: cubic-bezier(0.42,0,0.58,1); } 50% { transform: translate(24.164986px,25.974101px) rotate(45deg) scale(1,0.6) translate(-2px,-9px); animation-timing-function: cubic-bezier(0.42,0,0.58,1); } 100% { transform: translate(24.164986px,25.974101px) rotate(45deg) scale(1,1) translate(-2px,-9px); } }
@keyframes a1_t { 0% { transform: translate(24.164986px,25.974101px) rotate(-45deg) scale(1,1) translate(-2px,-9px); animation-timing-function: cubic-bezier(0.42,0,0.58,1); } 50% { transform: translate(24.164986px,25.974101px) rotate(-45deg) scale(1,0.6) translate(-2px,-9px); animation-timing-function: cubic-bezier(0.42,0,0.58,1); } 100% { transform: translate(24.164986px,25.974101px) rotate(-45deg) scale(1,1) translate(-2px,-9px); } }
    </style>
<g opacity="1" stroke="none">
<g id="Combined-Shape" opacity="1" fill-rule="nonzero" transform="translate(24,23) scale(0.95,0.95) translate(-24,-23)" style="animation: Combined-Shape_t 1s linear infinite both;">
<path id="Combined-Shape1"  d="M22.6564 8.67722C16.1337 8.67722 10.7317 12.6666 8.62592 18.2011C5.18205 18.9841 2.35935 21.2499 1.11494 24.4803C-1.0107 29.9983 2.11014 36.2554 7.96495 38.5108C8.16531 38.588 8.65596 38.7211 8.65596 38.7211C9.60315 39.028 10.8007 39.2349 12.4415 39.322C12.6219 39.3316 35.2562 39.2509 35.8757 39.2018C37.0574 39.1082 37.9484 38.9996 38.5496 38.8413C44.7922 37.1981 48.7395 31.4679 47.2323 25.7422C46.017 21.1253 41.7684 18.2302 36.8672 18.111C36.5657 17.3289 36.2482 16.5676 35.8156 15.8577C33.123 11.4389 28.1391 8.67723 22.6564 8.67722ZM22.4461 11.5614C26.5942 11.5614 30.3395 13.6119 32.3306 16.8792C32.464 17.0982 32.5452 17.3433 32.661 17.5702C32.661 17.5702 34.6497 18.0529 36.5644 19.125C38.4792 20.1971 39.6063 21.4376 40.32 21.8585C41.7787 22.7187 42.857 24.0721 43.2966 25.7422C44.2285 29.2823 41.6482 33.0225 37.3479 34.1545C37.0405 34.2354 36.3206 34.3491 35.365 34.4249C34.7884 34.4706 14.1256 34.5501 13.1625 34.515C11.58 34.4573 10.3765 34.292 9.7075 34.0343C6.23743 32.6975 4.45997 29.1602 5.59149 26.2229C6.25363 24.504 7.78648 23.2441 9.76759 22.8279C11.0666 22.555 11.9032 21.3028 11.6303 20.0038C11.6254 19.9803 11.6058 19.9669 11.6003 19.9437C12.671 15.2029 16.9941 11.5614 22.4461 11.5614Z" fill="url(#LG)"/>
<path id="Combined-Shape2" d="M22.6564 8.67722C16.1337 8.67722 10.7317 12.6666 8.62592 18.2011C5.18205 18.9841 2.35935 21.2499 1.11494 24.4803C-1.0107 29.9983 2.11014 36.2554 7.96495 38.5108C8.16531 38.588 8.65596 38.7211 8.65596 38.7211C9.60315 39.028 10.8007 39.2349 12.4415 39.322C12.6219 39.3316 35.2562 39.2509 35.8757 39.2018C37.0574 39.1082 37.9484 38.9996 38.5496 38.8413C44.7922 37.1981 48.7395 31.4679 47.2323 25.7422C46.017 21.1253 41.7684 18.2302 36.8672 18.111C36.5657 17.3289 36.2482 16.5676 35.8156 15.8577C33.123 11.4389 28.1391 8.67723 22.6564 8.67722ZM22.4461 11.5614C26.5942 11.5614 30.3395 13.6119 32.3306 16.8792C32.464 17.0982 32.5452 17.3433 32.661 17.5702C26.6663 19.3356 22.885 25.0923 24.3689 30.7295C24.6392 31.7564 25.7154 32.3818 26.7424 32.1115C27.7693 31.8411 28.3647 30.7649 28.0944 29.738C27.147 26.1392 29.7136 22.2614 33.9529 21.1454C34.3653 21.0369 34.9955 20.9285 35.5152 20.8751C39.2461 20.4917 42.4515 22.5316 43.2966 25.7422C44.2285 29.2823 41.6482 33.0225 37.3479 34.1545C37.0405 34.2354 36.3206 34.3491 35.365 34.4249C34.7884 34.4706 14.1256 34.5501 13.1625 34.515C11.58 34.4573 10.3765 34.292 9.7075 34.0343C6.23743 32.6975 4.45997 29.1602 5.59149 26.2229C6.25363 24.504 7.78648 23.2441 9.76759 22.8279C11.0666 22.555 11.9032 21.3028 11.6303 20.0038C11.6254 19.9803 11.6058 19.9669 11.6003 19.9437C12.671 15.2029 16.9941 11.5614 22.4461 11.5614Z" fill="url(#LG2)"/>
</g>
    <rect width="4" height="18" stroke="none" fill="#FB1200" stroke-width="0" stroke-linecap="round" stroke-linejoin="round" rx="2" transform="translate(24.165,25.9741) rotate(45) translate(-2,-9)" style="animation: a0_t 1s linear infinite both;"/>
    <rect width="4" height="18" stroke="none" fill="#FC0D1B" stroke-width="0" stroke-linecap="round" stroke-linejoin="round" rx="2" transform="translate(24.165,25.9741) rotate(-45) translate(-2,-9)" style="animation: a1_t 1s linear infinite both;"/>
</g>
</svg>