<svg xmlns="http://www.w3.org/2000/svg" xmlns:xlink="http://www.w3.org/1999/xlink" width="100%" height="100%" stroke-linecap="round" stroke-linejoin="round" stroke-miterlimit="10" clip-rule="evenodd" viewBox="0 0 256 256"><defs><path id="a" d="m76.443 186.27.566 13.456s9.207 10.659 21.575 17.069c12.368 6.41 14.225 7.355 27.898 8.572 13.672 1.216 18.306.976 30.58-2.946 12.274-3.921 20.826-11.624 20.826-11.624l9.692-10.874-.216-7.296-.238-8.009-16.628 4.274-25.143 4.15-30.109.056z"/><path id="b" d="M48.757 134.535c0-16.014 37.877-28.996 84.601-28.996s84.601 12.982 84.601 28.996-37.877 28.996-84.601 28.996-84.601-12.982-84.601-28.996z"/><path id="c" d="M1.488 109.2c0-47.545 57.306-84.07 127.502-84.07 70.195 0 125.724 36.652 125.724 84.197 0 19.922-6.76 37.746-23.511 52.354-23.226 20.255-61.723 33.706-102.505 33.706-70.196 0-127.21-38.643-127.21-86.187z"/><mask id="d" width="111.138" height="41.397" x="76.443" y="184.618" maskUnits="userSpaceOnUse"><path d="M76.443 184.618H187.58v41.397H76.443z"/><use fill="#fff" xlink:href="#a"/></mask><mask id="e" width="169.203" height="57.992" x="48.757" y="105.539" maskUnits="userSpaceOnUse"><path d="M48.757 105.539H217.96v57.992H48.757z"/><use fill="#fff" xlink:href="#b"/></mask><mask id="f" width="253.226" height="170.256" x="1.488" y="25.131" maskUnits="userSpaceOnUse"><path d="M1.488 25.13h253.226v170.257H1.488z"/><use fill="#fff" xlink:href="#c"/></mask></defs><use fill="#575757" xlink:href="#a"/><use fill="none" stroke="#1a1a1a" stroke-linecap="butt" stroke-linejoin="miter" stroke-width="2.48" mask="url(#d)" xlink:href="#a"/><use fill="#010101" xlink:href="#b"/><use fill="none" stroke="#1a1a1a" stroke-linecap="butt" stroke-linejoin="miter" stroke-width=".48" mask="url(#e)" xlink:href="#b"/><path d="M75.154 31.576v1.047c7.001-1.443 4.6 4.917 8.033 5.93 9.241 2.73 20.762 4.617 69.259-2.03 5.804-.795 19.312 2.957 25.506 2.596 7.946-.463 8.606-4.878 16.057-4.402-38.745-25.304-78.79-25.772-118.855-3.14z"/><path fill="#f8fbf9" d="M78 32v1c6.716-1.379 4.413 4.697 7.705 5.665 8.864 2.607 19.914 4.41 66.43-1.94 5.567-.76 18.523 2.825 24.464 2.48 7.621-.441 8.255-4.66 15.401-4.205-37.162-24.173-75.571-24.62-114-3z"/><use fill="none" stroke="#1a1a1a" stroke-linecap="butt" stroke-linejoin="miter" stroke-width="8.48" mask="url(#f)" xlink:href="#c"/><path fill="#68c3f1" d="M136.855 107.297s-8.727-.6-18.294-.049c-6.117.353-5.586-.12-17.159 2.055-4.107.772-9.463 1.365-14.026 2.413-8.294 1.903-15.109 4.23-15.109 4.23s-9.686 3.884-14.755 7.297-3.872 2.57-5.52 6.357c-1.649 3.786-1.074 8.79-1.074 8.79.939-.05 2.337 4.148 5.932 7.223 3.46 2.958 9.083 4.777 11.755 5.721 9.232 3.26 25.464 7.471 43.357 9.297 9.43.963 19.322.726 28.893.507 13.085-.299 26.224-1.701 35.059-3.483 7.373-1.488 5.704-.912 12.467-3.172 6.763-2.261 8.018-2.379 14.585-5.87s10.83-8.352 10.83-8.352 3.037-5.55 1.622-9.7-2.955-3.73-7.283-6.901c-4.328-3.17-3.368-2.869-10.028-5.782s-16.611-5.87-16.611-5.87l-24.009-3.825z"/><path fill="#aaacad" d="M102 27c2.369 2.916 5.758 3.074 8 0h-3l1 2h-1z"/><path fill="#bcbebf" d="M110 27v3h1l1-3z"/><path fill="#b4b6b7" d="M111 29h5z"/><path fill="#bcbebf" d="M114 27v1h2v1h-3v1l4-1v-1z"/><path fill="#c2c4c6" d="M116 30h4v-1h-2v-1h24v1h-2v1h4c-4.974-5.08-23.026-5.08-28 0z"/><path fill="#bcbebf" d="M143 28v1l5 1v-1h-4v-1h2z"/><path fill="#b4b6b7" d="M144 28v1h5z"/><path fill="#bcbebf" d="M149 27v3h1z"/><path fill="#aaacad" d="m150 27 3 3v-3z"/><path fill="#b4b6b7" d="m151 27 1 1zm2 0v1h3z"/><path fill="#bcbebf" d="M118 28v1h24z"/><path fill="#b4b6b7" d="M126 28v1h8z"/><path fill="#aaacad" d="M154 28v1h4zm-64 2v1h4z"/><path fill="#b4b6b7" d="m96 29-10 4v1l12-5z"/><path fill="#bcbebf" d="m98 29-2 2v1l7-3z"/><path fill="#c2c4c6" d="M99 29v1h3z"/><path fill="#b4b6b7" d="M103 29v1h3zm5.667.333.666.334zm42 0 .666.334zM153 29v1h4z"/><path fill="#bcbebf" d="m157 29 7 3v-1z"/><path fill="#c2c4c6" d="M158 29v1h4z"/><path fill="#b4b6b7" d="m162 29 6 3v-1h-4v-1h2z"/><path fill="#aaacad" d="m169 29-5 1v1z"/><path fill="#c2c4c6" d="M101 31v1l5-1z"/><path fill="#cecfcf" d="M104 31v1l7-1z"/><path fill="#d4d7d8" d="M106 31v1l14-1z"/><path fill="#dedfdf" d="M119 31v1h27c-7.55-3.257-19.106-2.88-27-1z"/><path fill="#d4d7d8" d="M140 30v1l14 1z"/><path fill="#cecfcf" d="M150 30v1l6 1z"/><path fill="#c2c4c6" d="M154 30v1l5 1z"/><path fill="#aaacad" d="m85 33-4-1v1l7-2z"/><path fill="#d5ddde" d="M116 31v1h3zm30.667.333.666.334z"/><path fill="#bcbebf" d="m168 31 4 3v-1c-1.96-.653-2.554-1 0-1z"/><path fill="#b4b6b7" d="M170 32v1l4 1 1-2z"/><path fill="#aaacad" d="m175 31 1 2-3-1v1h5v-1z"/><path fill="#bcbebf" d="m90 32-2 1v1z"/><path fill="#c2c4c6" d="M90 33v1l4-1z"/><path fill="#cecfcf" d="M92 33v1l5-1z"/><path fill="#d4d7d8" d="M94 33v1l6-1z"/><path fill="#dedfdf" d="M98 33v1l8-1z"/><path fill="#e8e9e8" d="M78 39v1l25.996-3.982L129 39.743l27.004-3.723L182 40c-5.94-4.697-15.734-5.153-23-6.463-25.666-4.628-56.312-3.099-81 5.463z"/><path fill="#dedfdf" d="M154 32v1l8 1z"/><path fill="#d4d7d8" d="M160 32v1l6 1v-1z"/><path fill="#cecfcf" d="M163 32v1l5 1v-1z"/><path fill="#c2c4c6" d="M166 32v1l4 1v-1z"/><path fill="#b4b6b7" d="M176 33v1l6 2v-1l-3-3z"/><path fill="#aaacad" d="m78 33-5 1v1l7-1z"/><path fill="#b4b6b7" d="m79 33-1 2v1l6-2z"/><path fill="#aaacad" d="M180 33c1.819 2.415 3.372 2.397 6 1l-3 1z"/><path fill="#bcbebf" d="m82 34-2 1v1z"/><path fill="#c2c4c6" d="m83 34-1 2h2z"/><path fill="#d4d7d8" d="M85 35v1l5-1z"/><path fill="#dedfdf" d="M89 35v1l5-1zm77-1v1l5 1v-1z"/><path fill="#d4d7d8" d="M170 34v1l5 1v-1z"/><path fill="#cecfcf" d="M172 34v1l4 1z"/><path fill="#c2c4c6" d="M176 34v2h2z"/><path fill="#b4b6b7" d="M72 35v1c1.96.653 2.554 1 0 1v1l5-2zm111 0v1l5 2v-1c-1.96-.653-2.554-1 0-1z"/><path fill="#9fa4a5" d="m188 35 2 2v-2z"/><path fill="#aaacad" d="m190 35-4 1v1l8 3zM67 36l-5 5-5 1-10 3-1 1 1 2-22 12-3 8-3-1-3 5 1 3-4 2c8.061-2.648 12.578-12.132 19.18-17.414C44.59 49.661 58.738 41.614 74 37z"/><path fill="#bcbebf" d="m75 36-1 2h2z"/><path fill="#cecfcf" d="M76 37v1l4-1z"/><path fill="#d4d7d8" d="M78 37v1l5-1z"/><path fill="#eef0ef" d="m46 142 2-2c-4.8-20.399 24.207-26.609 37.561-34.349 7.127-4.13 14.739-5.97 22.609-7.609 27.343-5.695 57.801 1.27 81.83 12.696 12.677 6.028 24.52 8.403 31 22.262 9.072-1.619 12.664-8.647 17.561-15.69 4.138-5.951 9.445-13.695 9.342-21.27-.289-21.256-22.266-31.409-36.917-40.49-6.92-4.29-13.021-9.282-20.6-12.5-10.614-4.507-24.836-7.818-36.347-6.996-8.182.584-16.816 3.428-25.039 3.428-10.321 0-20.478-4.177-30.96-3.428-21.144 1.51-36.02 12.072-53.616 22.278-4.373 2.536-9.677 3.617-13.87 6.421-7.834 5.24-19.56 23.563-18.34 33.25 1.208 9.597 8.558 18.669 14.12 26.163C31.412 131.007 37.67 139.135 46 142z"/><path fill="#dedfdf" d="M174 36v1l4 1v-1z"/><path fill="#d4d7d8" d="M177 36v1l5 1v-1z"/><path fill="#cecfcf" d="M180 36v1l4 1v-1z"/><path fill="#bcbebf" d="M184 36v2h2zm8 0 1 1z"/><path fill="#9fa4a5" d="M193 37v1l4 1z"/><path fill="#dedfdf" d="M75 39v1l4-1zm106-1v1l4 1z"/><path fill="#d4d7d8" d="M184 38v1l4 1z"/><path fill="#b4b6b7" d="M190 38v1l3 1z"/><path fill="#aaacad" d="m195 38 16.289 10.05 21.71 16.283L247 77l-1-3-2 1h-1l1-3-3-5-3 1-3-8-22-12v-3l-10-3-5-1z"/><path fill="#9fa4a5" d="M60 39v2h2v-2zm138 0v2h2v-2z"/><path fill="#d4d7d8" d="M62 43v1l8-3z"/><path fill="#dedfdf" d="M69 41v1l4-1z"/><path fill="#e8e9e8" d="M72 41v1l4-2zm112-1 4 2z"/><path fill="#dedfdf" d="M187 40v1l4 1v-1z"/><path fill="#d4d7d8" d="M190 40v1l8 3v-1z"/><path fill="#cecfcf" d="M192 40v1l3 1z"/><path fill="#dedfdf" d="M38 58c8.356-4.401 24.318-8.385 30-16-9.205 2.631-24.58 7.7-30 16z"/><path fill="#e8e9e8" d="M68 42v2h2v-2zm122 0v2h2v-2z"/><path fill="#dedfdf" d="M192 42c5.682 7.615 21.644 11.599 30 16-5.42-8.3-20.795-13.368-30-16z"/><path fill="#b4b6b7" d="M54 44v2l2-2z"/><path fill="#cecfcf" d="m57 44-1 2h2z"/><path fill="#e8e9e8" d="M64 44v2h2v-2zm130 0v2h2v-2z"/><path fill="#cecfcf" d="M202 44v2h2z"/><path fill="#b4b6b7" d="m204 44 2 2v-2zM50 46v2l2-2z"/><path fill="#cecfcf" d="m53 46-1 2h2z"/><path fill="#e8e9e8" d="M60 46v2h2v-2z"/><path fill="#f8fbf9" d="M94 46v4c-6.71-3.492-13.32-.213-20.166 1.55-7.207 1.855-17.164 2.686-23.65 6.018C41.611 61.972 34.42 69.72 26 74l-8 20c2.32 13.084 9.1 39.537 26 42 2.872-12.846 11.742-17.493 21.961-24.004 4.38-2.79 6.76-6.751 12.039-7.996l2-4v-2l-4-6h6l-4-8h4v-8l-2-2h4c1.301-4.98 5.199-6.911 10-8v-4l20.039-9.78L136 50l2 6h2l2-2v4l8 4 7-4 9 4v4c4.801 1.089 8.699 3.02 10 8h4l-2 2v2c5.609 7.169 5.63 14.545 2 22 6.533.447 9.448 5.317 14.576 8.779 8.895 6.004 21.078 8.096 25.424 19.221 16.788-.545 19.827-21.75 22-34l-8-20-26.04-17.235L176 48h-2v2h-2c-1.556-1.813-2.444-1.813-4 0h-2c-2.27-2.597-15.768-4.528-18-2h-2l-5.835-1.736L114 48h-2z"/><path fill="#e8e9e8" d="M198 46v2h2v-2z"/><path fill="#cecfcf" d="M206 46v2h2z"/><path fill="#b4b6b7" d="m208 46 2 2v-2zM47 48l-1 2h2z"/><path fill="#c2c4c6" d="M48 48v2l2-2z"/><path fill="#e8e9e8" d="M31 63v1c10.384-1.85 19.828-8.69 28-15-8.723-1.527-21.51 8.989-28 14m170-15v1c8.172 6.31 17.616 13.15 28 15v-1c-8.399-6.486-17.69-12.135-28-15z"/><path fill="#c2c4c6" d="m210 48 2 2v-2z"/><path fill="#b4b6b7" d="M212 48v2h2z"/><path fill="#9c9d9e" d="m217 48 3 2v-1z"/><path fill="#f8fbf9" d="m218 48 1 1zM39 49l1 1z"/><path fill="#b4b6b7" d="m41 52-1 2h2z"/><path fill="#eef0ef" d="M110 53v1l4-2z"/><path fill="#e8e9e8" d="M114 52v2l9 4-1-6z"/><path fill="#b4b6b7" d="M218 52v2h2z"/><path fill="#9c9d9e" d="m224 53 1 1zM33 54l1 1z"/><path fill="#e8e9e8" d="M110 54v2l2-2z"/><path fill="#d4d7d8" d="m113 54-1 6 4-2-1 3 5 1z"/><path fill="#dedfdf" d="M114 54v1c9.278 8.288 14.689 10.257 27 7l-15.985-3.39z"/><path fill="#b4b6b7" d="M224 57v1l4 2z"/><path fill="#e8e9e8" d="M110 58v2h2z"/><path fill="#cecfcf" d="M114 58v2h2v-2z"/><path fill="#e8e9e8" d="M124 58v1l10 1zm-12 2 2 2v-2z"/><path fill="#dedfdf" d="M114 60v2h2z"/><path fill="#d5ddde" d="M120 60v2h2v-2z"/><path fill="#e8e9e8" d="M138 60v1h3v1l-5 1v1c4.06-.003 7.471.507 10-3z"/><path fill="#dedfdf" d="m32.667 61.333.666.334zM226 61v1l6 3v-1zM30 62l-2 2v1l4-3z"/><path fill="#e8e9e8" d="M118 62v1l6 1zm-89.333 3.333.666.334zM230 65v1c14.584 15.226 22.733 31.255 9.127 49.745-3.669 4.986-10.344 19.181-18.127 15.255h-1l2 7h1c19.599-17.291 35.984-38.404 17.323-63-2.952-3.892-5.903-7.846-10.323-10zM27 66c-7.466 9.2-18.036 21.076-16.8 34 1.084 11.351 10.91 21.653 17.815 30.04C32.869 135.936 39.998 144.834 48 146l1-6-3 2c-12.572-6.385-22.178-20.375-28.92-32.386-2.443-4.352-5.75-10.303-4.605-15.444 1.282-5.75 5.319-12.947 8.748-17.692C23.666 73.098 28.067 70.57 27 66z"/><path fill="#9fa4a5" d="M17 70v3h1zm225 0v3h1zM12 77 8 92h1l7-16z"/><path fill="#e8e9e8" d="M126 76v14h2l4-6v-2l-2-2h4v-2z"/><path fill="#9fa4a5" d="m244 76 7 16h1l-4-15z"/><path fill="#aaacad" d="M15 77 7 93l1 1zm229 0 8 17 1-1zM9 81v3h1zm241 0v3h1z"/><path fill="#dedfdf" d="m11.333 90.667.334.666zM248 90l1 5h1z"/><path fill="#949495" d="m6 91-1 3h1zm247 0 1 3h1z"/><path fill="#9fa4a5" d="m6 92 1 8h1z"/><path fill="#dedfdf" d="M10 92v3h1z"/><path fill="#9fa4a5" d="m253 92-1 8h1z"/><path fill="#c2c4c6" d="m9 94-1 2h2z"/><path fill="#e8e9e8" d="M70 113v1c18.28-3.146 35.234-10.534 54-11.91 23.621-1.731 47.355 4.856 70 10.91-26.759-22.172-72.748-21.016-103.561-10.272C83.337 105.204 76.969 110.084 70 113z"/><path fill="#c2c4c6" d="M250 94v2h2z"/><path fill="#dedfdf" d="M9 98c.054 19.446 18.546 31.516 29 46l-4-2 3 6h1v-4c3.9 1.51 13.34 6.169 12 11l6 2v-1l-2-2 20 6v-2c-10.127-1.832-21.061-10.631-25-20h-1v8c-19.54-5.03-30.504-32.369-39-48m241 0c-2.572 17.403-16.77 27.394-27 40h-1l-2-2-1 5c12.444-3.278 36.769-29.222 31-43z"/><path fill="#aaacad" d="M5 100v2h3v-2zm247 0v2h3v-2z"/><path fill="#b4b6b7" d="m5 102 2 10h1v-10z"/><path fill="#dedfdf" d="M90 108v1c28.555-5.32 54.488-2.37 83-1-6.709-4.025-15.36-4.114-22.845-4.993-4.658-.547-9.327-1.095-13.905-1.284-15.509-.64-30.721 1.913-46.25 6.277z"/><path fill="#b4b6b7" d="M252 102v10h1l2-10z"/><path fill="#d4d7d8" d="m8 103 4 16c2.48 1.539 3.557 2.364 2 5 2.864 11.924 17.196 25.171 29 28v-1l-13-10c3.22-4.731-1.435-7.488-4.348-11.184C18.772 121.083 13.301 112.647 8 103m243 0c-3.331 21.259-25.756 33.335-40 46l1 3-8 1 2 3h-4v1c13.115 1.487 33.136-13.854 40.057-24.326 3.007-4.549 1.934-10.123 5.943-13.674z"/><path fill="#d5ddde" d="M114 105v1h12z"/><path fill="#d4d7d8" d="M126 105v1h10z"/><path fill="#d5ddde" d="M140 105v1h12zM9 106l1 1zm95.667.333.666.334z"/><path fill="#d4d7d8" d="M103 107v1l6-1z"/><path fill="#c0ccd2" d="M108 107v1l6-1z"/><path fill="#b5c9d5" d="M110 107v1l7-1z"/><path fill="#b1c1cb" d="M117 106v1h4z"/><path fill="#a3bdcf" d="M121 106v1h6z"/><path fill="#96bbd2" d="M120 107v1h28z"/><path fill="#a3bdcf" d="M140 106v1h7z"/><path fill="#b1c1cb" d="M147 106v1h5z"/><path fill="#b5c9d5" d="M152 106v1l6 1v-1z"/><path fill="#c0ccd2" d="M154 106v1l6 1z"/><path fill="#d5ddde" d="M160 106v1h3zm90 0 1 1zm-151 1v1h4z"/><path fill="#a3bdcf" d="M116 107v1h4z"/><path fill="#88b4d0" d="M127 107v1h13z"/><path fill="#a3bdcf" d="M148 107v1h5z"/><path fill="#d4d7d8" d="M161 107v1h3z"/><path fill="#d5ddde" d="M164 107v1h3zm4 0 1 1zm-79 2v1l5-1z"/><path fill="#d4d7d8" d="M92 109v1l4-1z"/><path fill="#c0ccd2" d="M94 109v1l4-1z"/><path fill="#b5c9d5" d="M96 109v1l4-1z"/><path fill="#96bbd2" d="M100 109v1l6-1z"/><path fill="#81b6da" d="M104 109v1l8-1z"/><path fill="#75b6e0" d="M108 109v1l28-1c-7.697-3.23-19.88-1.026-28 0z"/><path fill="#74beea" d="M136 108c-3.886 2.834-11.196 1.976-16 1.999-12.657.06-39.178-1.311-46 12.001l11.855 3.189L88 120v-1h-3v-1h7l14-4h18l12-4 6 1v-1l-4-2z"/><path fill="#69b6e5" d="M138 109v1l30 1c-7.537-3.163-21.836-2.912-30-2z"/><path fill="#75b6e0" d="M141 108v1h15z"/><path fill="#79afd2" d="M156 108v1h4z"/><path fill="#88b4d0" d="M162 108v1l5 1v-1z"/><path fill="#a3bdcf" d="M166 108v1l4 1v-1z"/><path fill="#b1c1cb" d="M168 108v1l3 1z"/><path fill="#c0ccd2" d="M170 108v1l4 1v-1z"/><path fill="#d4d7d8" d="M172 108v1l4 1v-1z"/><path fill="#dedfdf" d="m174.667 108.333.666.334zM85 109v1h4z"/><path fill="#69b6e5" d="m121 109 1 1zm2 0v1h5zm7 0v1h6z"/><path fill="#6aacd7" d="M154 109v1h7z"/><path fill="#79afd2" d="M161 109v1h3z"/><path fill="#d5ddde" d="M176 109v1h3z"/><path fill="#dedfdf" d="M179 109v1h3z"/><path fill="#aaacad" d="M5 110v6c2.895-1.927 2.82-3.987 0-6z"/><path fill="#cecfcf" d="M8 110c.03 13.996 7.804 26.561 20 34l-14-20c2.653-2.34.718-3.915-2-5z"/><path fill="#d5ddde" d="m83 110-2 1v1z"/><path fill="#dedfdf" d="M187 111v1h3z"/><path fill="#a3bdcf" d="m80 112-2 1v1z"/><path fill="#81b6da" d="M84 112v1h6z"/><path fill="#5ab7ee" d="m160 116 12 3 1-1c-2.403-5.878-9.488-8.698-13-2z"/><path fill="#5ca5d6" d="M176 112v1h6z"/><path fill="#5899c6" d="M182 112v1l4 1v-1z"/><path fill="#6ba2c6" d="M184 112v1l3 1z"/><path fill="#81b6da" d="m82 113-6 1v1l7-1z"/><path fill="#75b6e0" d="M85 113v1h4z"/><path fill="#4dafdf" d="m174 116 6 2c-.72-4.3-2.871-5.103-6-2z"/><path fill="#48a3d9" d="M179 113v1l7 2v-1z"/><path fill="#469fd1" d="M181 113v1h3z"/><path fill="#e8e9e8" d="M196 113v1l4 1v-1zm-128 1-2 1v1z"/><path fill="#96bbd2" d="m74 114-2 1v1z"/><path fill="#76c9f3" d="m106 114-14 4h-7v1h3v1h-4c.996 8.871 9.284 10.866 17 12v-1l-2-4 12-2c2.946 3.371 13.562 2.45 18 2 1.617 2.26 2.973 3.301 5 1l3.933.924L139 127v2l10 1 4-4h1l2 2c-3.937-7.511-14.861-9.558-24.857-11.03-5.432-.799-10.793-.419-14.143-2.97h-9z"/><path fill="#469fd1" d="M185 114v1h4z"/><path fill="#4891c4" d="M189 114v1h3z"/><path fill="#b4b6b7" d="M5 117c2.396.575 2.487.475 3-2z"/><path fill="#79afd2" d="M75 115v1h3z"/><path fill="#75b6e0" d="m69 120 13-4c-4.217-1.508-10.267.499-13 4z"/><path fill="#41a9e4" d="M180 115c.672 3.865 2.21 4.497 6 4v-3z"/><path fill="#3c9fdc" d="m186 115 4 3v-1z"/><path fill="#3c9ad1" d="M187 115v1l3 1z"/><path fill="#b4b6b7" d="M252 115c.513 2.475.604 2.575 3 2z"/><path fill="#e8e9e8" d="m63 116-6 3v1l7-3z"/><path fill="#79afd2" d="M65 118v1l8-1z"/><path fill="#5ac3f4" d="m161 118-2-1c-1.096 4.535 1.191 9.958 6 11v4l12 2v-1l-9-1 1-14z"/><path fill="#4bb4ee" d="M172 116v4l3 2h1l3-5z"/><path fill="#2f92d3" d="M190 116v1l4 1z"/><path fill="#aaacad" d="m5 117 2 5h1z"/><path fill="#2896de" d="M190 117v3l4-1z"/><path fill="#aaacad" d="m254 117-2 5h1z"/><path fill="#6aacd7" d="m68 118-6 2v1c2.689.578 6.857.743 6-3z"/><path fill="#4dc0f7" d="m169 118-1 14c8.471.691 33.817 1.428 28 14 17.306-11.155-17.163-14.46-24-15 .124-5.337 2.592-10.106-3-13z"/><path fill="#3eb2f2" d="m178 118-2 8h2l4-7z"/><path fill="#2c9fe7" d="M184 119v1l7-1z"/><path fill="#1f8bd5" d="m194 118 19 14c-4.206-7.276-10.74-12.213-19-14z"/><path fill="#9fa4a5" d="M5 119v3c2.006-1.127 2.006-1.873 0-3z"/><path fill="#69b6e5" d="m67 121 6 3 1-4z"/><path fill="#1d93e1" d="m192 120 15 8c-2.711-5.501-8.949-8.49-15-8z"/><path fill="#3582bd" d="m203 119 3 2v-1z"/><path fill="#9fa4a5" d="M253 119v3h2v-3z"/><path fill="#31b0f4" d="m176 128 31 8c-3.947-7.619-18.25-8.948-26-10l3-6c-4.803.706-6.291 3.737-8 8z"/><path fill="#25abf4" d="m184 120-3 6c7.836 1.797 17.839 2.461 24 8h1c-1.798-6.424-11.919-9.191-18-10v-4z"/><path fill="#1e9fed" d="M188 120v4l18 6c-2.949-5.973-11.682-9.107-18-10z"/><path fill="#e8e9e8" d="M48 129h1l7-7c-4.065-.086-6.258 3.653-8 7z"/><path fill="#5ca5d6" d="M60 122v2l5-2z"/><path fill="#40bcf7" d="m174 121-2 10 32 7-7-6c-11.02.393-17.073-3.355-23-11z"/><path fill="#9c9d9e" d="M7 122v5h1z"/><path fill="#669cc4" d="M56 123v1l4-1z"/><path fill="#59b2e5" d="M64 123v1l5 2-1-4z"/><path fill="#5ab7ee" d="M68 122c1.385 4.315 4.94 5.523 9 7z"/><path fill="#68c3f1" d="M73 122c3.413 5.166 12.244 7.331 18 9-5.44-7.204-9.192-9-18-9z"/><path fill="#2184cb" d="m205 122 10 11c-1.698-5.275-4.958-8.734-10-11z"/><path fill="#e8e9e8" d="m214 122 2 4h1z"/><path fill="#9c9d9e" d="M252 122v5h1z"/><path fill="#5899c6" d="M56 124v1l4-1z"/><path fill="#bcbebf" d="m8 124 2 2v-2z"/><path fill="#c2c4c6" d="m10 124 7 20 3-2-1-1-1 2h-1l1-4h-3l1-3-3-1 3-2z"/><path fill="#469fd1" d="m58 124 2 3v-3z"/><path fill="#48a3d9" d="M60 124v3l3-1v-1z"/><path fill="#4dafdf" d="m63 124 3 4 1-3z"/><path fill="#c2c4c6" d="m248 124-4 9 3 2-3 1 1 3h-3v1h4l4-16z"/><path fill="#bcbebf" d="M250 124v2l2-2z"/><path fill="#4891c4" d="M54 126v1l4-1z"/><path fill="#5ac3f4" d="M75 125c3.438 5.188 12.1 7.594 18 9-2.995-5.145-12.36-7.66-18-9z"/><path fill="#75d8f9" d="M99 127c.996 5.805 6.234 4.651 11.001 5.86 8.391 2.13 35.005 5.088 38.999-4.86l-10-1h-2v2l-3-1-5-1-18-2z"/><path fill="#5ecdf9" d="m158 125 1 1zm2 0-4 8c8.678 2.566 18.303 1.722 26.999 4.62 8.295 2.763 5.88 7.179-.998 9.54-1.981.681-3.99 1.258-6.001 1.84v1c7.783-.599 18.696-2.855 19-12l-30-6v-4z"/><path fill="#575757" d="m254 125 1 1zM6 126l1 1z"/><path fill="#41a9e4" d="M62 126v4h6l-1-3-2 1z"/><path fill="#4bb4ee" d="M66 126v1l13 5 1-1z"/><path fill="#69d1f8" d="m151 126 1 1zm2 0c-10.162 10.974-28.404 9.442-44.479 6.461-1.93-.358-4.501-.735-6.329-1.115-.223-.047-1.099-.75-1.32-.796-2.913-.61-5.402.015-7.872-.55v1l14 5c-2.054.422-3.989 1.005-6.004 1.6-5.139 1.517-12.105 6.647-3.976 10.175 5.977 2.595 13.008 2.803 19.597 3.425 1.144.108 2.274.229 3.383.376 17.42 2.315 36.716.73 54-1.784 3.304-.481 17.022-3.267 15.263-8.543-2.593-7.78-26.623-6.668-33.263-8.249 5.578-5.175 1.904-5.404-3-7z"/><path fill="#3c9fdc" d="M60 127v3h2v-3z"/><path fill="#3582bd" d="M52 128v2h2v-2z"/><path fill="#2f92d3" d="M56 128v4l3-3z"/><path fill="#81ddf9" d="M108 128v2h2v-2zm6 0c.946 4.413 6.233 3 10 3v-1z"/><path fill="#2896de" d="M206 128v2l2-2z"/><path fill="#1d93e1" d="m208 128-1 2h2z"/><path fill="#2896de" d="m59 129-2 3h4z"/><path fill="#d5ddde" d="m218 129 1 3h1z"/><path fill="#949495" d="m251 129-1 4h1z"/><path fill="#2e2f2f" d="m4 130 1 4h1z"/><path fill="#347cb7" d="m51 130-1 8h1z"/><path fill="#207dc6" d="M52 130c.138 6.65 2.007 13.737 9 16z"/><path fill="#2c9fe7" d="M60 130v1l6 1z"/><path fill="#25abf4" d="M65 130v1l7 3-2 10h1l8-10z"/><path fill="#31b0f4" d="M67 130v1l7 1z"/><path fill="#40bcf7" d="M76 130v2h2v-2z"/><path fill="#4dc0f7" d="M80 130v1l8.58 2.452.23.275L90 134c-2.318 3.055-6.922 5.345-8.012 9.159-1.89 6.611 9.617 8.403 14.012 8.841v-1c-6.716-1.948-10.261-3.585-10-11l8-6z"/><path fill="#68c3f1" d="m88.491 127.946 2.388 2.964-1.142-.292 3.147 3.169 6.78-.786z"/><path fill="#2c9fe7" d="M204 130v1l7 6c-1.325-4.139-2.522-6.342-7-7z"/><path fill="#2896de" d="m208 130 2 6h2z"/><path fill="#207dc6" d="m214 130 2 2v-2z"/><path fill="#444" d="M7 131v5h1z"/><path fill="#e8e9e8" d="M47 131v8h1z"/><path fill="#2579bb" d="M51 131c.056 6.27 1.22 10.837 7 14z"/><path fill="#2184cb" d="m53 131 2 5h1z"/><path fill="#2e2f2f" d="M7 132v3h1z"/><path fill="#aaacad" d="m10 132 2 2v-2z"/><path fill="#bcbebf" d="M14 132c.916 3.811 2.199 5.828 6 7v1l-2 1 4 3-2-4 3 2z"/><path fill="#92b2ca" d="M49 132v4h1z"/><path fill="#1f8bd5" d="M56 132c.324 5.086 1.689 9.091 6 12l-4-12z"/><path fill="#1d93e1" d="m58 132 4 12h2l-2-12z"/><path fill="#1e9fed" d="M62 132c.447 9.618 6.633 11.642 10 2z"/><path fill="#31b0f4" d="M74 132v2h5l-7 11h3l9-11z"/><path fill="#3eb2f2" d="M78 132v1l4 1z"/><path fill="#40bcf7" d="m82 132 3 2-6 12h2l9-12z"/><path fill="#5ecdf9" d="M93 134h4c-2.346 3.028-8.488 5.046-9.017 9.075-.52 3.964 4.022 5.521 7.02 6.341 8.172 2.234 27.78 3.826 36.184 3.826l-.184-.949L120 151c-7.092-.059-15.407-.408-21.99-3.225-6.698-2.865-3.525-7.83 1.992-9.625L107 136c-3.066-2.098-11.214-4.882-14-2z"/><path fill="#2c88ca" d="m212 132 2 7h1l1-7z"/><path fill="#2579bb" d="M216 132v3h1z"/><path fill="#b5c9d5" d="M218 132v5h1z"/><path fill="#d4d7d8" d="M219 132v5h1z"/><path fill="#bcbebf" d="m245 132-8 10 3-2-2 4 2-4v-1c3.487-1.076 5.883-3.178 5-7z"/><path fill="#aaacad" d="M248 132v2l2-2z"/><path fill="#5ac3f4" d="m93.995 133.91-8.316 6.095 3.197.01-.119.956.987-.852c3.363-.784 7.36-6.143 7.36-6.143M178 133l1 1z"/><path fill="#2f92d3" d="M212 133v5h2z"/><path fill="#c2c4c6" d="m16 134 2 2v-2z"/><path fill="#5ac3f4" d="M184 134v1l5 1v-1z"/><path fill="#c2c4c6" d="M242 134v2l2-2z"/><path fill="#75d8f9" d="M184 140c-10.533-2.349-20.287-3.45-31-4.715-7.401-.873-14.618.703-22 .715-4.623.007-9.412-.354-14 .3-3.435.49-19.541 1.591-17.654 7.529 1.657 5.216 15.181 6.045 19.654 6.156 16.102.401 33.22 1.359 49-1.61 6.369-1.198 14.808-.266 16-8.375z"/><path fill="#41a9e4" d="m207 135-1 9h1c1.644-3.437 2.357-5.837 0-9z"/><path fill="#c2c4c6" d="m18 136 2 2v-2z"/><path fill="#5ac3f4" d="M189 136v1l6 1z"/><path fill="#3c9fdc" d="M209 136v6h1z"/><path fill="#3c9ad1" d="M211 136c-1.047 5.779-4.104 8.989-9 12v1c5.5-2.082 13.144-6.334 9-13z"/><path fill="#c2c4c6" d="M240 136v2l2-2z"/><path fill="#c0ccd2" d="m15.333 137.667.334.666zM48 137l1 1z"/><path fill="#2184cb" d="m56 137 1 5h1z"/><path fill="#81ddf9" d="m109 146 34 2 28-2 3-3-1-3c-15.487-.212-31.135-2.21-47-1.996-6.272.085-15.852.797-17 7.996z"/><path fill="#858687" d="m12 138 1 3h1z"/><path fill="#c2c4c6" d="m20 138 2 2v-2z"/><path fill="#d5ddde" d="m32 138-2 3 6 6-2-5 4 2-4-6z"/><path fill="#5ac3f4" d="m90 138-1 2h2zm105 0c-.58 7.514-7.654 9.16-14 11v1c7.668-.085 17.741-2.672 17-12z"/><path fill="#4bb4ee" d="M194 147v1c5.567-1.607 10.724-3.963 12-10z"/><path fill="#3a90ca" d="m213 138-1 5h1l3-5z"/><path fill="#c2c4c6" d="M238 138v2l2-2z"/><path fill="#c0ccd2" d="M17 140v3h1z"/><path fill="#b4b6b7" d="M20 140c2.89 7.602 9.784 14.38 17 18l-5-7c21.539 15.603 54.366 24.649 80.91 23.89 12.675-.362 25.567.695 38.26-.27 3.658-.279 10.955-3.374 13.83-1.62h2s8.416-.304 9-4c17.198 3.941 37.872-12.136 53-18l-6 6v1c7.216-3.62 14.111-10.398 17-18-7.791 4.709-14.654 10.823-23.001 14.691-14.923 6.914-31.365 11.826-48.441 14.761-39.803 6.841-83.055 2.941-118.558-11.375-11.187-4.511-19.861-11.949-30-18.077z"/><path fill="#c2c4c6" d="m22 140 2 2v-2z"/><path fill="#2c9fe7" d="M68 140c-1.874 3.857-.99 5.539 3 7l1-4-2-3z"/><path fill="#3eb2f2" d="m77 140-3 7 7.718 3.868 1.897-.608-1.858-3.732-.006-1.136-2.088-.407 2.169-4.789 3.13-6.229-.94.038-.075-1.03 5.78.827-9.51-2.923-1.07.964-.266 1.325 4.983 1.052z"/><path fill="#5ac3f4" d="M86 140c-.921 11.494 10.047 11.294 19 12.579 20.781 2.984 42.146 1.316 63 .421v-1c-20.129 0-40.992 2.527-61-.59-7.076-1.103-20.448-1.356-18-11.41z"/><path fill="#d5ddde" d="M218 140c1.556 1.813 2.444 1.813 4 0z"/><path fill="#c2c4c6" d="M236 140v2l2-2z"/><path fill="#c0ccd2" d="m242 140-2 4 1 1 3-5z"/><path fill="#4dafdf" d="m205 141-9 6v1c3.538-.766 10.043-2.463 9-7z"/><path fill="#c2c4c6" d="m241 141-1 2h2z"/><path fill="#bcbebf" d="m235 142-1 2h2z"/><path fill="#c0ccd2" d="M18 143v2l2-2z"/><path fill="#c2c4c6" d="M20 144c1.407 10.494 17.037 22.202 27 24v-1zm8 0 4 4z"/><path fill="#d5ddde" d="M38 144c.343 4.297 1.751 5.511 6 6l7 6 1-4-10-4v-1l2-1z"/><path fill="#d4d7d8" d="m52 144 6 5v-1z"/><path fill="#2c88ca" d="m62 144 1 3-3-1v1l10 3v-1z"/><path fill="#41a9e4" d="m73 144-1 3 8 3v-1z"/><path fill="#48a3d9" d="M204 144v2h2v-2z"/><path fill="#c2c4c6" d="m230 144-2 2v1l4-3z"/><path fill="#bcbebf" d="M232 144v2l2-2z"/><path fill="#c2c4c6" d="m238 144-21 21v1c8.918-2.823 21.695-12.242 23-22z"/><path fill="#469fd1" d="M205 147v1l5-2z"/><path fill="#cecfcf" d="M32 146v2h2z"/><path fill="#2f92d3" d="M66 146v1l4 2z"/><path fill="#3c9fdc" d="M70 148h3l-1-2z"/><path fill="#4bb4ee" d="M80 146c1.615 4.884 7.3 5.701 12 6v-1z"/><path fill="#48a3d9" d="M200 146v2h2v-2z"/><path fill="#469fd1" d="M202 146v2h2v-2z"/><path fill="#cecfcf" d="m213 146-5 5 4 1-1-3zm3 0-2 4 4-4zm10 0v2h2v-2z"/><path fill="#c0ccd2" d="m22 148 1 3h1v-3z"/><path fill="#bcbebf" d="m25.333 148.667.334.666zM32 148v2h2v-2z"/><path fill="#c2c4c6" d="m34 148 5 4v-1z"/><path fill="#3a90ca" d="m70 148-2 3v1l10-1z"/><path fill="#3c9ad1" d="M72 148v2h2v-2z"/><path fill="#5ab7ee" d="M188 149v1l4-1z"/><path fill="#469fd1" d="M191 151v1h9v-1h-4v-1h8c-4.35-2.951-8.53-.866-13 1z"/><path fill="#c2c4c6" d="m225 148-1 2h2z"/><path fill="#bcbebf" d="M226 148v2l2-2zm8.333.667.334.666z"/><path fill="#c0ccd2" d="M236 148v3h1l1-3z"/><path fill="#3a3b3b" d="m243 148-1 2h2zm-226 1 1 1z"/><path fill="#5ac3f4" d="m179 149-10 2v1c2.582 0 11.487.999 10-3z"/><path fill="#cecfcf" d="M215 153v1l9-4z"/><path fill="#bcbebf" d="m26 150 2 2v-2zm9 0 1 1z"/><path fill="#cecfcf" d="m38 150 2 2v-2z"/><path fill="#d4d7d8" d="M48 150v2h2v-2z"/><path fill="#3c9ad1" d="m77 150-3 3v1l6-2v4h9l-1 2h14v1h-2v1h68v-1h-2v-1h9c-10.552-4.552-26.657 0-38 0-21.04 0-39.642-3.805-60-8z"/><path fill="#41a9e4" d="M82 150v1l4 1v-1z"/><path fill="#5ecdf9" d="M160 151v1l15-1z"/><path fill="#5ab7ee" d="M178 151v1l6-1z"/><path fill="#4dafdf" d="M183 151v1l5-2z"/><path fill="#5899c6" d="M200 150v2l2-2z"/><path fill="#bcbebf" d="m223 150-1 2h2zm9 0v2l2-2z"/><path fill="#aaacad" d="M32 151c4.265 13.222 31.971 21.609 44 25.246 37.493 11.338 79.031 10.584 115.996-2.716C203.96 169.225 222.464 162.707 229 151c-16.903 4.462-34.3 21.034-53 18l-9 4h-2v-2c-14.411 5.187-29.891 3.646-44.961 3.144C87.268 173.05 61.154 166.501 32 151z"/><path fill="#d4d7d8" d="M60 151v1l5 2v-1z"/><path fill="#bcbebf" d="m24 152 3 3zm4 0 2 2v-2zm10 0v1l17 7v-1z"/><path fill="#cecfcf" d="M42 152v2h2v-2z"/><path fill="#d4d7d8" d="M44 152v2h2z"/><path fill="#4891c4" d="m71 152 3 2v-1z"/><path fill="#3a90ca" d="m79 152-1 3h3z"/><path fill="#469fd1" d="M86 152v1l4 1v-1z"/><path fill="#48a3d9" d="M88 152v1l5 1v-1z"/><path fill="#4dafdf" d="M92 152v1l8 1z"/><path fill="#4bb4ee" d="M96 152v1l9 1z"/><path fill="#68c3f1" d="m129 152 1 1zm2 0v1h10z"/><path fill="#5ecdf9" d="M143 152v1h6zm7 0 1 1z"/><path fill="#5ab7ee" d="M162 153v1l11-1z"/><path fill="#4dafdf" d="M170 153v1l10-1z"/><path fill="#48a3d9" d="M177 153v1l9-1z"/><path fill="#469fd1" d="M182 153v1h12z"/><path fill="#5899c6" d="m196 152-2 1v1z"/><path fill="#bcbebf" d="M218 153v1l4-1zm12-1v2l2-2z"/><path fill="#5ab7ee" d="m136.298 154.325-40.312-3.006-10.063-.213.044.759 9.05 1.81 15.92 2.507 15.467 1.713 9.858.368z"/><path fill="#b1c1cb" d="M196 155v1l6-2z"/><path fill="#cecfcf" d="m195 157 1 4-12 2v1l20-5-2-2v-1h4c-2.862-3.719-7.388-.535-11 1z"/><path fill="#c2c4c6" d="M44 154v1l3 1z"/><path fill="#cecfcf" d="m46 154 2 2v-2z"/><path fill="#d4d7d8" d="M48 154v2h2zm6 0v2h2v-2zm12.667.333.666.334z"/><path fill="#b5c9d5" d="m69 154 3 2v-1z"/><path fill="#4891c4" d="m77 154 3 2v-1z"/><path fill="#469fd1" d="M95 154v1l9 1z"/><path fill="#48a3d9" d="M100 154v1l9 1z"/><path fill="#4dafdf" d="M108 154v1l28 1z"/><path fill="#4bb4ee" d="M120 154v1h15zm16 0v2h2v-2zm3 0v1h3zm5 0v1h8z"/><path fill="#4dafdf" d="M138 155v1l26-1z"/><path fill="#48a3d9" d="M160 155v1l14-1z"/><path fill="#469fd1" d="M168 155v1h20z"/><path fill="#3c9fdc" d="M180 154v1h6z"/><path fill="#cecfcf" d="m212 154-2 1v1z"/><path fill="#c2c4c6" d="m214 154-2 1v1z"/><path fill="#bcbebf" d="M214 155v1l4-1zm14-1 1 1z"/><path fill="#224747" d="m239 154-1 2h2z"/><path fill="#d5ddde" d="M56 155v2h2v-2zm10 0v1l6 2v-1z"/><path fill="#c2c4c6" d="M48 156v1l4 1v-1z"/><path fill="#d4d7d8" d="M52 156c3.394 4.094 11.904 5.272 17.015 6.191C82.312 164.582 97.527 169.404 111 166v-1l-31-5v1l4 2-20-5-5 1 1-3zm18 0v1l4 1v-1z"/><path fill="#c0ccd2" d="m73 156 3 2v-1z"/><path fill="#b1c1cb" d="m75 156 3 2v-1z"/><path fill="#a2b5bf" d="M76 156v1l3 1z"/><path fill="#5591bb" d="m83 156 3 2v-1z"/><path fill="#4891c4" d="M84 156v1l4 1v-1z"/><path fill="#3a90ca" d="M86 156v1h3z"/><path fill="#469fd1" d="M111 156v1l19 1z"/><path fill="#48a3d9" d="m119 156 1 1zm3 0v1h28z"/><path fill="#469fd1" d="M144 157v1l19-1zm20-1 1 1z"/><path fill="#3c9fdc" d="M168 156v1h8z"/><path fill="#7da0bb" d="M184 157v1l4-1z"/><path fill="#a2b5bf" d="M188 157v1l4-1z"/><path fill="#cecfcf" d="m207 156-1 2h2z"/><path fill="#c2c4c6" d="M208 156v2h2v-2z"/><path fill="#469fd1" d="M134 157v1h8z"/><path fill="#bcbebf" d="m36 158 11 9v1l-6-2v1c9.475 5.588 19.975 10.615 31 12v-1z"/><path fill="#b4b6b7" d="M38 158v2h2v-2z"/><path fill="#c2c4c6" d="m54 158 2 2v-2z"/><path fill="#cecfcf" d="M56 158v2h2z"/><path fill="#d5ddde" d="M59 158v1h3zm5 0 6 2v-1zm10 0c1.537 4.371 5.877 4.223 10 5z"/><path fill="#d4d7d8" d="M75 158v1l4 1v-1z"/><path fill="#c0ccd2" d="M78 158v1l4 1v-1z"/><path fill="#94acbc" d="m85 158 3 2v-1z"/><path fill="#85a6b8" d="M86 158v1l4 1v-1z"/><path fill="#7098b5" d="m89 158 3 2v-1z"/><path fill="#6494b8" d="M90 158v1l4 1v-1z"/><path fill="#4891c4" d="M94 158v1l6 1v-1z"/><path fill="#3a90ca" d="M96 158v1h5zm70 0v1h5z"/><path fill="#4891c4" d="M168 159v1l5-1z"/><path fill="#6494b8" d="M173 159v1l4-1z"/><path fill="#94acbc" d="m180 158-2 1v1z"/><path fill="#c0ccd2" d="M187 158v1h3z"/><path fill="#cecfcf" d="M186 159v1l6-1z"/><path fill="#d4d7d8" d="M150 166v2l18-.495 19.587-4.55L196 161c-1.054-4.919-7.149-1.275-11-.972-11.696.92-23.096 5.772-35 5.972m48-8v1h4z"/><path fill="#c2c4c6" d="m204 158-2 1v1z"/><path fill="#bcbebf" d="M204 159v1l4-1z"/><path fill="#b4b6b7" d="M220 158c-7.871 10.214-26.989 15.361-39 18.576-30.286 8.109-62.224 10.469-93 2.983-14.491-3.525-27.789-12.483-42-15.559 4.682 6.616 18.308 11.785 26 14v1l-22-7v1c39.54 20.159 89.515 23.748 132 11.573 12.03-3.448 22.608-9.688 34-14.573v-1l-55.09 18.741L120 188v-1c26.032-2.054 50.919-3.335 76.004-12.164C204 172.021 218.01 165.909 222 158z"/><path fill="#bcbebf" d="M222 158v2h2v-2z"/><path fill="#262a2b" d="m235 158-1 2h2z"/><path fill="#bcbebf" d="M56 160v1h4z"/><path fill="#c2c4c6" d="M60 160v2h2v-2z"/><path fill="#cecfcf" d="M62 160v2h2v-2zm22 0v1l4 1v-1z"/><path fill="#c0ccd2" d="M87 160v1l4 1v-1z"/><path fill="#b1c1cb" d="M90 160v1l4 1v-1z"/><path fill="#a2b5bf" d="M92 160v1l5 1v-1z"/><path fill="#7f9cb1" d="m99 160 3 2v-1z"/><path fill="#7098b5" d="M100 160v1l4 1v-1z"/><path fill="#6494b8" d="M102 160v1l6 1v-1z"/><path fill="#4f8ab8" d="M106 160v1h3z"/><path fill="#4288bb" d="M109 160v1h5z"/><path fill="#3a90ca" d="M114 160v1h40l-14-.015z"/><path fill="#2f92d3" d="M120 160v1h14zm16 0v1h10z"/><path fill="#4288bb" d="M154 160v1h4z"/><path fill="#4f8ab8" d="M158 160v1h3z"/><path fill="#6494b8" d="M160 161v1l6-1z"/><path fill="#94acbc" d="M168 161v1l4-1z"/><path fill="#a2b5bf" d="m172 160-2 1v1z"/><path fill="#c0ccd2" d="M174 161v1l6-1z"/><path fill="#c2c4c6" d="M196 161v1l4-1z"/><path fill="#bcbebf" d="m200.667 160.333.666.334zM220 160v2h2v-2z"/><path fill="#444" d="m231 160-5 4v1z"/><path fill="#5591bb" d="M108 161v1h4z"/><path fill="#4891c4" d="M113 161v1h6zm36 0v1h7z"/><path fill="#5591bb" d="M156 161v1h4z"/><path fill="#b4b6b7" d="M224 162v1l4-1zm-190 0 2 2v-2z"/><path fill="#bcbebf" d="M64 162v1l4 1v-1z"/><path fill="#c2c4c6" d="M66 162v1l4 1v-1z"/><path fill="#cecfcf" d="M68 162v1l6 1zm24 0v1l12 2z"/><path fill="#c0ccd2" d="M97 162v1l7 1v-1z"/><path fill="#b1c1cb" d="M102 162v1h3z"/><path fill="#a2b5bf" d="M106 162v1l8 1z"/><path fill="#94acbc" d="M110 162v1l9 1z"/><path fill="#7da0bb" d="M116 162v1h3z"/><path fill="#7f9cb1" d="M119 162v1l24 1v-1z"/><path fill="#7098b5" d="M122 162v1h6z"/><path fill="#6494b8" d="M128 162v1h8z"/><path fill="#7098b5" d="M136 162v1h10z"/><path fill="#85a6b8" d="M150 162v1h3z"/><path fill="#94acbc" d="M153 162v1h3z"/><path fill="#a2b5bf" d="M152 163v1l9-1z"/><path fill="#b1c1cb" d="M162 162v1h4z"/><path fill="#c0ccd2" d="M167 162v1h3z"/><path fill="#bcbebf" d="m192 164 3-2zm-72 23v1c13.568.112 27.308 1.511 40.91-.129 22.433-2.705 43.599-13.063 63.09-23.871v-1l-7 3v-1l3-3-32.17 15.58z"/><path fill="#072a2a" d="m230 162 2 2v-2z"/><path fill="#b1c1cb" d="M106 163v1h3z"/><path fill="#85a6b8" d="M119 163v1h3zm24 0 1 1z"/><path fill="#94acbc" d="M147 163v1h5z"/><path fill="#b1c1cb" d="M157 163v1h4z"/><path fill="#c2c4c6" d="M161 163v1h3z"/><path fill="#cecfcf" d="M166 163v1h4z"/><path fill="#bcbebf" d="m38 164 2 2zm32 0v1l5 1z"/><path fill="#c2c4c6" d="M74 164v1l5 1z"/><path fill="#cecfcf" d="M78 164v1l6 1v-1zm29 0v1h4v1H87v1c8.692 1.614 33.28 7.82 39-1z"/><path fill="#c0ccd2" d="M113 164v1h5z"/><path fill="#c2c4c6" d="M118 164v1h4z"/><path fill="#bcbebf" d="M123 164v1h5z"/><path fill="#b1c1cb" d="M128 164v1h4z"/><path fill="#bcbebf" d="M132 164v1h5zm7 0v1h3z"/><path fill="#c2c4c6" d="M142 164v1h5z"/><path fill="#c0ccd2" d="M147 164v1h5z"/><path fill="#cecfcf" d="M129 167v1h35v-1l-14 1v-2l10-1c-7.09-2.968-23.482.21-31 2m47-2v1l6-1z"/><path fill="#c2c4c6" d="M181 165v1l5-1zm-56 0 1 3-10 2v1h29l13.155-2.968-14.196.099L128 168v-2h11z"/><path fill="#c0ccd2" d="M139 165v1h6z"/><path fill="#bcbebf" d="M80 166v1l5 1z"/><path fill="#c2c4c6" d="M84 166v1l6 1z"/><path fill="#cecfcf" d="M169 167v1l4-1z"/><path fill="#c2c4c6" d="M171 167v1l5-1z"/><path fill="#bcbebf" d="M175 167v1l4-1z"/><path fill="#0f1010" d="M226 166v2h2v-2zm-192 1 1 1z"/><path fill="#bcbebf" d="M92 168v1l7 1z"/><path fill="#c2c4c6" d="M96 168v1l9 1zm60 1v1l9-1z"/><path fill="#bcbebf" d="M163 169v1l6-1z"/><path fill="#b4b6b7" d="M44 169v1l5 2v-1z"/><path fill="#0f1010" d="m223 169 1 1zm-185 1 4 3v-1z"/><path fill="#bcbebf" d="m88.83 167.797 19.17 4.041c12.981 1.641 44.461 1.899 57.1-1.837l-5.43-2.43-13.131 3.011-26.439.537z"/><path fill="#0f1010" d="m216.667 173.333.666.334zM44 174v2h2v-2zm168.667 1.333.666.334zM48 176v2h2z"/><path fill="#191a1a" d="M49 176v1l5 2v-1z"/><path fill="#aaacad" d="m57 176 3 2v-1zm145 0-2 1v1zm-4 2-2 1v1z"/><path fill="#0f1010" d="m206 178 1 1zm-154 1v1h3z"/><path fill="#aaacad" d="M62 179v1h3z"/><path fill="#0f1010" d="m204.667 179.333.666.334zM56 180l1 1z"/><path fill="#aaacad" d="m66 180 1 1zm127 0-3 1v1l4-1z"/><path fill="#0f1010" d="m202.667 180.333.666.334zM58 181l1 1zm143 0 1 1zm-141 1v1l4 1v-1z"/><path fill="#aaacad" d="M73 183v1h3zm112.667.333.666.334z"/><path fill="#0f1010" d="M195 183v1h3zm-129 1 1 1z"/><path fill="#3a3b3b" d="M70 184v1l3 1z"/><path fill="#9fa4a5" d="m77 184 3 2v-1z"/><path fill="#0f1010" d="m192.667 184.333.666.334zM68 185l1 1z"/><path fill="#aaacad" d="M80 185v1h4z"/><path fill="#bcbebf" d="M104 185v3h14v-2z"/><path fill="#aaacad" d="M178 185v1h3z"/><path fill="#0f1010" d="m190.667 185.333.666.334zM70 186v1l5 1v-1z"/><path fill="#78797a" d="M80 186v6h1z"/><path fill="#949495" d="M82 186v1l4 1v-1z"/><path fill="#9fa4a5" d="M84 186v1l4 1v-1z"/><path fill="#aaacad" d="M86 186v1l7 1v-1zm88.667.333.666.334z"/><path fill="#9c9d9e" d="m176 186-2 1v1z"/><path fill="#0f1010" d="M188 186v2l2-2z"/><path fill="#aaacad" d="M170 187v1h3z"/><path fill="#4e4f4f" d="m172 189 2 3-6 4 14-8z"/><path fill="#3a3b3b" d="M170 196v2l14-10z"/><path fill="#262a2b" d="m187 187-1 3h1z"/><path fill="#0f1010" d="m76 188 1 9h1z"/><path fill="#2e2f2f" d="M78 188v4h1z"/><path fill="#444" d="M83 188v2h3v-1z"/><path fill="#6a6c6d" d="m86 188 9 6v-1z"/><path fill="#78797a" d="m87 188 5 3v-1z"/><path fill="#858687" d="M90 188v2h2z"/><path fill="#949495" d="m91 188 3 2v-1z"/><path fill="#9c9d9e" d="M92 188v1l4 1v-1z"/><path fill="#aaacad" d="M94 188v1l21 2zm72 0 1 1z"/><path fill="#444" d="M182 188c-3.339 4.74-8.891 12.428-14 6h-2l-9 7-2-1-8 2 1-4-5 4 15 4 1-1-2-2 7-1-11 9v1l16-4-9 5 1 3-4 4 9-3-2-2v-1l11-7-1-3 3 1-1-3 3 1v-1l-15 4 20-18z"/><path fill="#616161" d="m184 188-14 14v1c4.027-1.022 18.264-10.77 14-15z"/><path fill="#191a1a" d="M187 188v5h1z"/><path fill="#9fa4a5" d="M96 189v1h3z"/><path fill="#aaacad" d="M158 189v1h5z"/><path fill="#9fa4a5" d="M163 189v1h3z"/><path fill="#444" d="M174 189v1h4zm5 0 1 1zm-100 1-1 6h1z"/><path fill="#7b8182" d="M81 190v2h3v-1z"/><path fill="#616161" d="M92 190v2l2-2z"/><path fill="#4e4f4f" d="M94 190v2l5 3-2 2 5 1z"/><path fill="#858687" d="M100 190v1l3 1z"/><path fill="#9c9d9e" d="M102 190v1h3z"/><path fill="#575757" d="m164 190-2 1v1z"/><path fill="#4e4f4f" d="M165 190v1h3z"/><path fill="#444" d="M136 195v1h16v-3l6 3 12-5z"/><path fill="#3a3b3b" d="m147 202 8-2 2 1 15-11c-5.823 1.618-23.211 6.609-25 12z"/><path fill="#444" d="M172 190v2h2v-2z"/><path fill="#232324" d="m186 190 1 4h1z"/><path fill="#949495" d="M103 191v1h3z"/><path fill="#9c9d9e" d="M106 191v1h5z"/><path fill="#9fa4a5" d="M111 191v1h6z"/><path fill="#aaacad" d="M117 191v1h29z"/><path fill="#9fa4a5" d="M146 191v1h7z"/><path fill="#949495" d="M154 191v1h3z"/><path fill="#616161" d="m90.667 192.333.666.334zM94 192l1 4h1z"/><path fill="#444" d="m98 194 4 2-4 4-1-4-1 3-3-1v1l3 3 6-2-3 3 3 3-12-4 3 3-1 3c4.76 1.88 8.692 4.92 10 10h5v-1l-3-1 1-3-7-5 8 2v-1l-2-1 2-2-4-2 5-5-3-1 6-4v-1l-8 3 1-3z"/><path fill="#575757" d="M102 192v1h4z"/><path fill="#4e4f4f" d="M106 192v1h3z"/><path fill="#575757" d="M109 192v1h3v1l-4 2 6-2v-1z"/><path fill="#6a6c6d" d="M112 192v1l7 1z"/><path fill="#858687" d="M120 192v1h20z"/><path fill="#7b8182" d="M140 192v1h3z"/><path fill="#6a6c6d" d="M141 193v1l7-1z"/><path fill="#575757" d="M146 193v1l4-1z"/><path fill="#4e4f4f" d="m150.667 192.333.666.334zM160 192v1h4z"/><path fill="#78797a" d="M119 193v1h22z"/><path fill="#3a3b3b" d="M152 193v1h6z"/><path fill="#444" d="m88 194 3 4 3-3-1-1-1 2z"/><path fill="#575757" d="M96 196h3l-1-2z"/><path fill="#3a3b3b" d="M102 194v2h2v-2z"/><path fill="#4e4f4f" d="M106 194v2h2v-2zm5 1 6 3v-1l-3-1 2-1z"/><path fill="#444" d="M114 195v1h16z"/><path fill="#4e4f4f" d="M126 194v1h13zm26 0v4l6-2v-2z"/><path fill="#444" d="M172 194v2h2v-2z"/><path fill="#6a6c6d" d="m180 194-2 4 4-4z"/><path fill="#444" d="m183 194-1 2h2z"/><path fill="#2e2f2f" d="m187 194-1 4h1z"/><path fill="#0f1010" d="M188 194v3h1z"/><path fill="#858687" d="m87 196-1 2h2z"/><path fill="#78797a" d="M88 196v4h1l1-3z"/><path fill="#3a3b3b" d="m92 196 4 3zm12 0 3 3-3 3 7-2v2l8-3z"/><path fill="#444" d="M110 196v1l4 1z"/><path fill="#575757" d="M116 196v1h8z"/><path fill="#616161" d="m123 197 5 3v2l-2 4h-4v2l22-1v-1l-8-6 10-2v-2l-20 2v-1h6z"/><path fill="#6a6c6d" d="M126 197v1h16v-2z"/><path fill="#575757" d="M146 196v2h6v-2z"/><path fill="#4e4f4f" d="m181 196-5 4v1l4-3 4 1v-1z"/><path fill="#3a3b3b" d="M182 196v2l2-2z"/><path fill="#616161" d="M184 196v4c1.813-1.556 1.813-2.444 0-4z"/><path fill="#7b8182" d="m80 197 2 2v-2z"/><path fill="#6a6c6d" d="M82 198v2h2z"/><path fill="#7b8182" d="m88 198 2 2v-2z"/><path fill="#6a6c6d" d="M90 198v4h4z"/><path fill="#444" d="m118 198-7 4v-2l-5 1v1c6.212 1.38 12.395 2.702 16-4z"/><path fill="#4e4f4f" d="m122 198-8 5v1h4l-3 3 3 1 6-10z"/><path fill="#575757" d="m124 198-6 10 8-2 2-4v-2zm18 0-6 2 8 6-1 2h5l-8-7z"/><path fill="#4e4f4f" d="m140 201 9 7c-.194-3.828-2.635-4.631-6-6l2-4z"/><path fill="#3a3b3b" d="M166 198v2h2v-2zm14 0-2 4 4-4z"/><path fill="#0f1010" d="m187 198-2 5h1z"/><path fill="#3a3b3b" d="m86 200 7 6v-1z"/><path fill="#575757" d="m94 200 3 3-2 2 5 1z"/><path fill="#4e4f4f" d="M98 204h1l3-4zm66-4v2h4v-2zm6 0v2l2-2z"/><path fill="#6a6c6d" d="m182 200-5 8 7-8z"/><path fill="#858687" d="m82 202 7 6-2-4z"/><path fill="#616161" d="M92 202v1l5 1z"/><path fill="#4e4f4f" d="M102 202v2h2v-2z"/><path fill="#616161" d="M104 202v2h3v-2z"/><path fill="#4e4f4f" d="M108 202v2h2v-2z"/><path fill="#6a6c6d" d="m132 202 4 2v-1z"/><path fill="#575757" d="M160 202v2h2v-2z"/><path fill="#4e4f4f" d="M162 202v2l2-2z"/><path fill="#575757" d="M168 202c1.947 2.231 4.053 2.231 6 0z"/><path fill="#3a3b3b" d="M176 202v2h2v-2z"/><path fill="#4e4f4f" d="m164 206 8-1c-3.044-1.528-5.797-1.797-8 1zm-75-2 1 1zm5 0v2h2zm6 0v2h2v-2z"/><path fill="#3a3b3b" d="m103 205 3 1-2 3 13 2c-1.812-5.054-9.134-6.439-14-6z"/><path fill="#444" d="m106 204 2 2v-2z"/><path fill="#616161" d="M110 204c1.947 2.231 4.053 2.231 6 0z"/><path fill="#575757" d="M116 204v2h2v-2zm33 0v2h3v-2zm6 0-1 2h2z"/><path fill="#3a3b3b" d="M144 209c6.471 4.971 14.577 2.012 18-5zm30-5v2h2v-2z"/><path fill="#616161" d="m178 204-8 7v1l10-4v-1l-3 1 3-4zm3.333.667.334.666z"/><path fill="#78797a" d="M88 208v1l4 1z"/><path fill="#444" d="M117 208v3l-9-1v1l16-1z"/><path fill="#4e4f4f" d="M122 208v1h2v1l-4 2 8-2v-2z"/><path fill="#575757" d="M128 208v2l10-1z"/><path fill="#4e4f4f" d="m137 209 13 4v-1l-10-2v-1h2z"/><path fill="#444" d="M140 209v1l9 2v-1l-4-3z"/><path fill="#4e4f4f" d="m164 208-2 1v1z"/><path fill="#575757" d="M172 208v2h2v-2z"/><path fill="#6a6c6d" d="m88.667 209.333.666.334zM92 209l-1 1 4 2z"/><path fill="#4e4f4f" d="m96 210 2 2v-2zm4 0v2h2z"/><path fill="#616161" d="M102 210v2l6 2z"/><path fill="#575757" d="m106 210 2 2v-2zm9 2v1c4.792 1.413 9.1 1.462 12-3z"/><path fill="#616161" d="M124 213v1h16v-1l-2-3z"/><path fill="#575757" d="M138 210c1.995 5.673 9.204 4.142 14 3v-1z"/><path fill="#4e4f4f" d="m158 210-2 1v1z"/><path fill="#616161" d="M160 210v2h4v-2z"/><path fill="#4e4f4f" d="m165 210-1 2h2zm4 0-5 6 5-1z"/><path fill="#575757" d="m90.667 211.333.666.334zM96 211l1 1zm-2 2v1l5-2z"/><path fill="#4e4f4f" d="m99 212-2 3 5 1zm5 0 2 2v-2z"/><path fill="#6a6c6d" d="M108 212v2h6zm46 0v2h2v-2z"/><path fill="#616161" d="M156 212v2h2v-2z"/><path fill="#575757" d="M168 212v2h4v-2z"/><path fill="#444" d="m173 212-1 2h2zm-77 2v2h2z"/><path fill="#3a3b3b" d="m104 215 3 2-1 3 8 2 4-4z"/><path fill="#575757" d="m112 214 2 2v-2z"/><path fill="#6a6c6d" d="M116 214v1l6 1v-2z"/><path fill="#78797a" d="M122 214v2h4v-2z"/><path fill="#7b8182" d="m126 214 4 2v-1z"/><path fill="#78797a" d="M128 214v1l4 1z"/><path fill="#7b8182" d="M132 214v2h4v-2z"/><path fill="#78797a" d="M136 216h8v-2z"/><path fill="#6a6c6d" d="M144 214v2l5-1z"/><path fill="#444" d="M154 214v2h2v-2z"/><path fill="#3a3b3b" d="M147 220h7v1h-2v1l6-1-1-4 4-3c-4.617.307-12.347 1.3-14 6z"/><path fill="#0f1010" d="m172.667 215.333.666.334zM95 216l3 2z"/><path fill="#3a3b3b" d="M100 216v2h2v-2z"/><path fill="#444" d="M116 216v1h2v1l-5 3 5 1 4-5z"/><path fill="#4e4f4f" d="M120 216v1l2 1-5 3 7 3v-4z"/><path fill="#575757" d="m122 216 2 4-2 3h21l-3-4 4-2v-1l-8 2 3 5h-13l2-5z"/><path fill="#616161" d="M124 216v2h4l-2 5h13l-3-5 6-1z"/><path fill="#6a6c6d" d="M128 216v1h10z"/><path fill="#4e4f4f" d="M140 219c1.467 2.085 3.436 3.557 0 4v1l6-1v-6z"/><path fill="#444" d="M144 223v1l10-3v-1h-7l2-3c-5.25-1.423-3.888 2.913-5 6z"/><path fill="#0f1010" d="M99 218v1h3zm5 2v1l4 1v-1z"/><path fill="#191a1a" d="m107 220 3 2v-1z"/><path fill="#6a6c6d" d="M132 220v2h2v-2z"/><path fill="#0f1010" d="m160.667 221.333.666.334zM110 222v1l4 1v-1z"/><path fill="#191a1a" d="m113 222 3 2v-1z"/><path fill="#232324" d="M114 222v1l3 1z"/><path fill="#3a3b3b" d="M118 222v2h2z"/><path fill="#191a1a" d="M150 223v1l5-1z"/><path fill="#0f1010" d="M155 222v1h3zm4 0 1 1zm-7 1v1h3zm-36 1v1l28 1z"/><path fill="#191a1a" d="M122 224v1h24z"/><path fill="#0f1010" d="M146 224v1h4z"/></svg>