<svg xmlns="http://www.w3.org/2000/svg" xmlns:xlink="http://www.w3.org/1999/xlink" xml:space="preserve" stroke-linecap="round" stroke-linejoin="round" stroke-miterlimit="10" clip-rule="evenodd" width="100%" height="100%" viewBox="0 0 100 100"><defs><path id="d" d="M79.292 33.661c-.133-.587.254-1.176.863-1.314.61-.138 1.213.226 1.346.813.133.588-.253 1.176-.863 1.315-.61.138-1.212-.226-1.346-.814ZM64.29 38.924c-.593-.77-.425-1.894.375-2.508.8-.615 1.929-.49 2.52.281.593.77.425 1.894-.375 2.508-.8.615-1.928.49-2.52-.281Z"/></defs><defs><filter id="a" width="28.268" height="40.745" x="7.494" y="29.45" color-interpolation-filters="sRGB" filterUnits="userSpaceOnUse"><feDropShadow dx=".406" dy=".914" flood-color="#fff" flood-opacity=".7" in="SourceGraphic" result="Shadow" stdDeviation=".5"/></filter><filter id="b" width="41.496" height="38.564" x="22.486" y="14.073" color-interpolation-filters="sRGB" filterUnits="userSpaceOnUse"><feDropShadow dx=".406" dy=".914" flood-color="#fff" flood-opacity=".7" in="SourceGraphic" result="Shadow" stdDeviation=".5"/></filter><filter id="c" width="20.092" height="9.778" x="62.334" y="31.45" color-interpolation-filters="sRGB" filterUnits="userSpaceOnUse"><feDropShadow dx="-.351" dy=".382" flood-color="#000" flood-opacity=".46" in="SourceGraphic" result="Shadow" stdDeviation=".5"/></filter><filter id="f" width="14.944" height="12.792" x="66.565" y="54.018" color-interpolation-filters="sRGB" filterUnits="userSpaceOnUse"><feDropShadow dx="-.351" dy=".382" flood-color="#000" flood-opacity=".5" in="SourceGraphic" result="Shadow" stdDeviation=".5"/></filter><filter id="g" width="15.558" height="14.64" x="35.477" y="26.083" color-interpolation-filters="sRGB" filterUnits="userSpaceOnUse"><feDropShadow dx="-.351" dy=".382" flood-color="#000" flood-opacity=".5" in="SourceGraphic" result="Shadow" stdDeviation=".5"/></filter><filter id="h" width="7.309" height="7.634" x="64.419" y="51.964" color-interpolation-filters="sRGB" filterUnits="userSpaceOnUse"><feDropShadow dx="-.351" dy=".382" flood-color="#000" flood-opacity=".5" in="SourceGraphic" result="Shadow" stdDeviation=".5"/></filter><filter id="i" width="25.976" height="14.257" x="59.535" y="29.124" color-interpolation-filters="sRGB" filterUnits="userSpaceOnUse"><feDropShadow dx="-.351" dy=".382" flood-color="#000" flood-opacity=".46" in="SourceGraphic" result="Shadow" stdDeviation=".5"/></filter><filter id="l" width="20.092" height="9.778" x="62.334" y="31.45" color-interpolation-filters="sRGB" filterUnits="userSpaceOnUse"><feDropShadow dx="-.351" dy=".382" flood-color="#000" flood-opacity=".46" in="SourceGraphic" result="Shadow" stdDeviation=".5"/></filter><filter id="o" width="8.069" height="9.127" x="56.923" y="25.817" color-interpolation-filters="sRGB" filterUnits="userSpaceOnUse"><feDropShadow dx="-.351" dy=".382" flood-color="#000" flood-opacity=".5" in="SourceGraphic" result="Shadow" stdDeviation=".5"/></filter><filter id="p" width="5.949" height="3.604" x="73.181" y="22.449" color-interpolation-filters="sRGB" filterUnits="userSpaceOnUse"><feDropShadow dx="-.351" dy=".382" flood-color="#000" flood-opacity=".5" in="SourceGraphic" result="Shadow" stdDeviation=".5"/></filter><filter id="q" width="100.5" height="78.228" x="-.254" y="12.564" color-interpolation-filters="sRGB" filterUnits="userSpaceOnUse"><feDropShadow dx="-.004" dy=".519" flood-color="#000" flood-opacity=".5" in="SourceGraphic" result="Shadow" stdDeviation=".5"/></filter><radialGradient id="e" cx="34.748" cy="28.44" r="4.289" gradientTransform="matrix(2.07678 0 0 2.05045 .157 1.996)" gradientUnits="userSpaceOnUse"><stop offset="0" stop-color="#d33686"/><stop offset="0" stop-color="#d63f7a"/><stop offset=".238" stop-color="#712041"/><stop offset=".543" stop-color="#11020a"/><stop offset="1"/></radialGradient><radialGradient id="j" cx="32.215" cy="17.033" r="1.544" gradientTransform="translate(.157 1.316) scale(2.07678)" gradientUnits="userSpaceOnUse"><stop offset=".228"/><stop offset=".8" stop-color="#080ff9"/><stop offset="1" stop-color="#020211"/></radialGradient><radialGradient id="k" cx="39.269" cy="15.11" r="1.288" gradientTransform="translate(.157 1.316) scale(2.07678)" gradientUnits="userSpaceOnUse"><stop offset=".228"/><stop offset=".8" stop-color="#080ff9"/><stop offset="1" stop-color="#020211"/></radialGradient><radialGradient id="m" cx="32.215" cy="17.033" r="1.544" gradientTransform="translate(.157 1.316) scale(2.07678)" gradientUnits="userSpaceOnUse"><stop offset=".228"/><stop offset=".8" stop-color="#080ff9"/><stop offset="1" stop-color="#020211"/></radialGradient><radialGradient id="n" cx="39.269" cy="15.11" r="1.288" gradientTransform="translate(.157 1.316) scale(2.07678)" gradientUnits="userSpaceOnUse"><stop offset=".228"/><stop offset=".8" stop-color="#080ff9"/><stop offset="1" stop-color="#020211"/></radialGradient></defs><path fill="#ff0" fill-rule="evenodd" d="m34.567 29.568-6.815 1.104-6.22 2.722-5.28 3.317-5.027 6.123-2.838 3.002-2.746 1.011-.726-1.77 1.27-1.83.285-2.578.85.033.93.846-.252-2.628-1.03-.69L7 37.227l-2.44 1.38-2.209 2.6-.46 2.326.944 1.862.882 3.165 1.793.846 1.884-.091 1.789-1.038-1.192 6.038 1.192 6.718-1.312 3.102-4.299 4.624.764 2.762 2.036 3.2 3.84 2.698 2.038.278 2.265.076-1.412 5.791 5.196 2.125 6.475.85 2.214-1.445.171-3.91 2.47-4.084.17-3.231 5.962.425 5.537-.51-5.537 3.316.938 3.996 3.492 5.442 3.408 1.445 2.726-1.105 1.107-2.211 5.706-4.337 1.107.936 8.945.34 1.789-1.445.169-2.55-.597-1.105-.425-6.887-2.983-5.951.51-2.637 1.789.935 5.027 4.677 2.47.17 2.726-1.105 2.726-2.04 1.363-4.422 8.008.51 4.855-1.87 3.918-3.658 2.81-5.272.682-6.207-.597-7.228-1.532-6.461-1.532-2.04-2.13-.68-3.748 4.083-3.408 1.19-2.982-4.932-2.983-2.722-1.619-1.02-6.475-5.356-5.196-2.807-5.196-.425-6.047 1.02-5.281 1.955-3.664 2.976-2.896 3.486-2.982.85-5.192 4.93Z"/><path fill="#cc0" fill-rule="evenodd" d="M71.293 64.781c1.082.666 1.058 1.15.878 1.606l2.561-1.022c.552-.742 1.107-1.481 1.66-2.223l1.231-3.167-1.572-1.18-6.878.875-.513 1.387.147 1.971.66 1.17c.34.171.683.34 1.024.512.267.022.535.047.802.071"/><path fill="#c0ca33" fill-rule="evenodd" d="M70.654 53.041c-3.448.994-3.421 1.268-4.44 4.682 1.346-2.154 2.34-3.24 4.44-4.682m22.92-25.547c-.612.283-1.209.419-1.592.978-.824 1.205-1.532 2.218-2.895 3.062-.686.426-1.397.702-2.125.93-.603.186-.967.02-1.481.389l.915.16h2.018c.829-.512 1.66-1.022 2.488-1.534l1.463-1.535c.404-.815.807-1.633 1.21-2.45m-54.912 7.638c-1.356 3.704-2.541 6.88-4.595 10.234 2.633-2.831 4.228-5.239 5.736-8.44.585-1.242.697-2.701 2.327-2.16.074 1.24.336 2.484.41 3.724.882-6.308 3.367-8.945 9.145-11.392-1.635.196-3.267.39-4.902.583l-4.608 1.022-2.268 3.288-1.245 3.14m11.195-.147c1.245 5.854 3.04 11.473 3.82 17.42.505 3.865.56 5.722-1.386 9.054-2.13-.138-3.45.103-5.51.775-8.197 2.682-12.899 6.627-18.422-1.32 1.764.828 3.525 1.659 5.29 2.487 1.256-.247 2.514-.492 3.77-.74l6.658-3.87 5.194-1.023 1.684-7.011-1.243-9.275-.147-4.38c.095-.704.194-1.41.291-2.117M63.98 71.207c-.689 4.755 1.585 7.312.643 8.626-.267.372-.628 1.02-1.031 1.199-1.441.635-3.421-.118-3.564.254h-4.755l-1.902-.805 2.927-3.432 2.853-6.207c.61-2.094 1.22-4.188 1.828-6.281h.951c.682 2.216 1.366 4.432 2.05 6.646"/><path fill="#c0ca33" d="M65.9 14.686c2.352 2.18 5.26 4.085 7.14 6.75.728 1.03 1.55 1.593 0 3.05 1.636-.468 2.26-.418 3.569-.26 2.383.287 4.595 3.612 4.737 6.036-.029.227-.687.79-2.53 1.297-.036.072-.999-.134-.974-.064.191.523.454.598.844.843.08.547.184 1.325.519 1.947.096-.127.21-.227.324-.324-.283-.702-.129-1.505.974-1.623.309-.033 2.017-.259 2.264.132.242.385-.974 1.386-.966 1.426.006.034-.068.03-.065.065v.13c0 .107-.127.134-.195.194-.05.11.087.236 0 .325.37.024.739.057 1.103.13.383.632.293 1.314.26 1.947.439-.074.924-.189 1.363-.26-.123-.998-.267-1.988-.39-2.985.39-.657.777-1.29 1.169-1.947-.562-1.265-1.126-2.564-1.688-3.83-1.073-1.022-2.173-2.027-3.245-3.05-.102-.004-.157.005-.26 0-1.206-.74-2.429-1.467-3.634-2.206-1.969-1.608-3.936-3.26-5.905-4.868-1.457-.953-2.952-1.902-4.414-2.855Zm27.712 11.811c.996 4.47 2.262 8.598 2.142 13.175-.147 5.615-1.278 12.71-6.49 16.095-5.838 3.793-12.675 2.013-19.08.39 2.61 1.07 5.242 2.173 7.853 3.244 2.438.123 4.894.202 7.333.325 1.66-.488 3.273-.94 4.933-1.428 1.291-1.071 2.602-2.174 3.894-3.245.975-2.045 1.944-4.056 2.92-6.1.365-2.361.736-4.711 1.103-7.075-.291-2.311-.617-4.632-.908-6.944-.537-2.287-1.021-4.592-1.558-6.88-.715-.507-1.426-1.051-2.142-1.557ZM69.86 32.663c-.263.109-.643.41-.908.519-.689.225-1.389.424-2.077.649l-3.18 2.401c-.597.62-1.22 1.263-1.817 1.882-.363.223-.546.262-.909.26.572.212 1.187.053 1.882-.13.597 1.263.908 1.803 2.142 2.466.272-.26.566-.513.843-.779-.207-.237-1.038-.778-1.038-.778-.182-.258-.378-2.124-.029-2.733.175-.305.84.288 1.067.267.826-.08 1.355.143 2.142.649.044.028.084-.031.13 0 .02.013-.019.05 0 .064.148.076.281.161.39.26.886-.435 1.771-.858 2.66-1.298-.35-1.31-.837-1.931-1.817-2.855.24-.239.394-.628.52-.844ZM6.842 38.309c-.132.517-.256 1.04-.39 1.558-2.65 1.721-3.664 2.454-3.374 5.646.265.955.513 1.9.778 2.855.375.252.73.528 1.104.78.463.153.964.3 1.428.453.835-.198 1.693-.387 2.53-.584.43-1.33.804-2.696 1.234-4.023-1.19.581-2.38 1.17-3.57 1.752h-.779c-.307-.472-.666-.956-.973-1.428.374-.55.794-1.072 1.168-1.622.198-1.045.386-2.07.584-3.115.254.077.525.118.78.194.306.243.6.536.908.779-.045-.55-.088-1.137-.13-1.687-.21-.352-.44-.69-.65-1.039-.209-.176-.439-.343-.648-.519Zm16.874 10.319c-.103 1.842-.23 2.657.584 4.283 1.035 2.07 2.315 3.991 3.44 6.036.122-1.363.266-2.726.389-4.089-1.463-2.069-2.95-4.163-4.413-6.23Zm32.255 8.761c.385 2.16 1.059 2.647 2.077 4.738-.678 3.41-1.741 7.505-3.05 10.514-.553 1.27-1.04 1.94-2.013 2.92a50.31 50.31 0 0 1-5.127 4.543c-1.34 1.034-2.304.494-3.958.26-.704 1.274-.91 2.015-2.207 2.66-1.994.996-3.758-1.14-5.322-2.4 1.13 1.761 2.246 3.495 3.375 5.256.78.73 1.557 1.476 2.336 2.207.66.098 1.353.162 2.012.26.878-.537 1.719-1.024 2.596-1.558.463-.875.965-1.786 1.428-2.661.975-.73 1.945-1.476 2.92-2.207l3.57-3.05c.755-1.071 1.516-2.109 2.271-3.18.682-1.265 1.393-2.564 2.077-3.829.878-2.628 1.716-5.225 2.596-7.853.074-.998.188-2.052.26-3.05-1.098-.488-2.212-.94-3.31-1.428-.806-.757-1.727-1.386-2.531-2.142ZM8.724 62.581c-.316.673-.655 1.34-.974 2.012.871 2.931 1.651 4.772 3.31 7.334-.29 1.038-.502 1.492-1.168 2.336-1.461-.225-2.737-.264-4.218-.26l4.867 3.765c.804-.147 1.662-.307 2.466-.454l2.402-2.402c-1.148-1.777-2.293-3.544-3.44-5.322-1.076-2.343-2.165-4.663-3.245-7.009Zm35.046 4.414c-1.172 1.267-2.093 2.394-3.05 3.829-3.382 1.548-7.276 1.752-10.969 1.752-.024.34-.04.7-.065 1.038.096.098.162.227.26.325.902.098 1.824.162 2.726.26 2.782-.072 5.527-.122 8.307-.195.367-.535.738-1.088 1.103-1.623.283-2.258.62-3.377 1.688-5.386Zm-14.084 6.62c-.143-1.198-.31-2.375-.454-3.57-.096-.864-.229-1.732-.324-2.596-.63 3.79-.459 6.338-2.207 9.735-1.305 1.51-2.898 2.9-4.738 3.634.156.931.221 1.458.13 2.142-.325 2.454-5.246 1.396-7.268 1.298 3.247.835 6.487 1.696 9.734 2.53.731-.29 1.476-.616 2.207-.908.245-1.412.471-2.806.714-4.218.684-1.265 1.328-2.564 2.012-3.83.122-.779.269-1.558.39-2.336-.076-.63-.12-1.252-.196-1.882Z"/><path fill="#c0ca33" fill-rule="evenodd" d="M72.946 35.993c-3.524 1.894-6.898 3.798-8.7 7.395.002-4.566 4.593-6.575 8.7-7.395m-9.397-8.98c-2.617 1.78-4.466 5.375-4.234 8.876-.853-3.032-.55-5.898 2.067-7.992l1.325-.643c.278-.078.561-.159.842-.241"/><path fill="#fffeed" fill-rule="evenodd" d="M14.804 44.916c-5.837 6.796-4.541 15.039-2.922 23.115l-2.59-6.533a4841.21 4841.21 0 0 1-.954-5.989c.092-2.042.183-4.083.272-6.125l2.455-5.851 3.681-5.444 5.727-4.764 6.272-2.586c2.454-.318 4.909-.634 7.361-.953-2.272 2.586-4.544 5.172-6.818 7.758-5.474 1.773-8.704 2.966-12.484 7.372" filter="url(#a)"/><path fill="#fffeed" fill-rule="evenodd" d="M42.282 24.209c-4.058 3.951-6.274 6.933-8.857 11.56-1.847 3.31-3.92 6.499-5.863 9.762-.982 1.652-1.076 3.038-1.37 4.942-.953-1.134-1.908-2.267-2.862-3.403l1.364-4.083 4.634-8.301 9.816-9.662 3.139-.815m20.043-9.8c-3.25 1.216-8.649 1.617-9.023 5.34-.267 2.645.2 3.974 1.798 6.772-3.945-4.074-4.92-3.444-12.542-2.179l3.272-4.628c1.908-1.178 3.817-2.359 5.726-3.54 2.454-.542 4.909-1.088 7.361-1.632 1.134-.042 2.272-.086 3.408-.133" filter="url(#b)"/><g filter="url(#c)"><use xlink:href="#d" fill="#fffffe"/></g><path fill="url(#e)" d="M68.886 54.923c-.074.05-.085.17-.065.256.34 1.509.312 2.672 0 3.716-.441 1.467-1.077 3.693-.26 5.063.334.558.87.926 1.623 1.089 1.111.244 1.659.195 3.18-.577.098-.05.103-.153.065-.256-.038-.103-.157-.155-.26-.128-1.178.261-1.742.14-2.531 0-.365-.068-.625-.191-.844-.449.23.068.505.113.844.192 2.074.489 4.171-.39 4.608-1.986.073-.273.15-.542.195-.769.08-.409.144-.794.389-1.41.24.072.825.391 2.02.154 1.195-.237 2.76-1.101 2.76-1.101s-3.748-.862-4.118-.952a51.718 51.718 0 0 1-4.361-1.24c-1.003-.334-1.739-.807-2.596-1.346l-.39-.256c-.075-.046-.188-.053-.26 0Z" filter="url(#f)"/><path d="M49.935 26.952c-1.88.213-3.809.405-5.711.584h-.26c-1.432.133-1.782.175-2.92 1.298-1.806 1.784-3.46 7.823-3.959 9.994-.025.112.02.224.13.26.022.006.042 0 .065 0a.205.205 0 0 0 .194-.13c.119-.276.29-.644.455-1.038.955-2.272 2.74-6.507 4.088-7.659.112-.095.231-.183.325-.26-.704 1.393-.61 2.113-.26 4.35.016.106.086.194.195.194.11 0 .246-.086.26-.195.314-2.39 1.098-3.365 2.4-5.062l.26-.39A39.84 39.84 0 0 0 50 27.342a.217.217 0 0 0 .13-.26c-.027-.109-.084-.136-.195-.13Z" filter="url(#g)"/><path d="M69.534 53.03a46.15 46.15 0 0 1-1.07.198c-1.592.268-1.826.693-2.073 2.252-.054.34-.118.722-.183 1.105a66.62 66.62 0 0 0-.185 1.125.22.22 0 0 0 .426.111c.387-1.038.699-1.804.973-2.41.31-.673.461-.755 1.103-1.1l.126-.07c.263-.144.646-.318 1.018-.49.379-.173.769-.351 1.045-.503a.224.224 0 0 0 .105-.267.223.223 0 0 0-.248-.147c-.271.05-.654.123-1.037.196Z" filter="url(#h)"/><g filter="url(#i)"><path fill="url(#j)" d="M69.86 32.468c-.662.305-1.374.386-2.078.52-.89.169-1.832.391-2.596.908-.677.456-1.494 1.443-2.271 2.401-.588.724-1.182 1.432-1.687 1.882-.08.072-.12.233-.065.325.055.091.161.1.26.065.656-.254 1.397-.681 2.206-1.298.047.343.108.722.26 1.038.28.588.747 1.022 1.297 1.363a7.45 7.45 0 0 0-.908 1.752c-.036.1-.029.206.065.26.035.02.092.065.13.065.064 0 .15-.079.194-.13 2.134-2.524 5.286-4.505 8.437-5.387.107-.029.143-.152.13-.26-.013-.108-.086-.192-.195-.194-.03-.002-.096 0-.13 0-.81 0-1.689.113-2.596.39a3.048 3.048 0 0 0-.26-.78 3.46 3.46 0 0 0-1.492-1.557c.526-.294 1.11-.633 1.558-1.038.08-.074.06-.169 0-.26s-.162-.116-.26-.065Zm-4.544 4.673c.66-.314 1.503-.008 1.817.649.03.062.045.132.065.194-.63.466-1.204.986-1.687 1.623-.325-.131-.618-.313-.779-.649-.314-.657-.075-1.505.584-1.817Z"/><path fill="url(#k)" d="M81.995 30.002a2.655 2.655 0 0 0-1.622.39h-.065c-.64.309-1.74.725-2.466.843-.1.016-.186.092-.195.195-.009.1.099.226.195.26.3.102.886.136 1.363.064-.074.203-.108.43-.13.65-.049.502.028.98.26 1.427.03.071.092.197.13.26-.246.095-.526.148-.78.26a.218.218 0 0 0-.13.259c.032.107.142.223.26.194 1.602-.242 2.968-.305 4.413-.13.057.27.314-.127.78-.259.104-.03.73-.957.583-1.947-.146-.99-.73-1.46-1.168-2.012-.438-.552-.413-.145-.584-.194-.27-.123-.552-.233-.844-.26Zm-1.492 2.336c.543.054.962.56.908 1.104-.01.115-.083.224-.13.324-.498.085-.98.202-1.492.39a1.236 1.236 0 0 1-.325-.91c.054-.543.493-.961 1.039-.908Z"/></g><path d="M63.824 26.692c-4.406 1.102-5.834 2.895-5.127 6.425.02.102.092.195.194.195.105 0 .173-.093.195-.195.454-2.007 1.248-4.303 4.867-6.036.105-.049.168-.152.13-.26-.038-.106-.141-.156-.26-.129Zm12.59-3.375c-.763.017-.983.254-1.493.454a.212.212 0 0 0-.13.26c.034.111.153.159.26.13.829-.154 1.855.025 2.79.195.044.027.089.04.13.064.083-.15.115-.356.26-.519-.086-.063-.163-.171-.26-.194-.467-.113-.794-.406-1.557-.39Z"/><g filter="url(#l)"><use xlink:href="#d" fill="#fffffe"/></g><path fill="url(#m)" d="M69.86 32.468c-.662.305-1.374.386-2.078.52-.89.169-1.832.391-2.596.908-.677.456-1.494 1.443-2.271 2.401-.588.724-1.182 1.432-1.687 1.882-.08.072-.12.233-.065.325.055.091.161.1.26.065.656-.254 1.397-.681 2.206-1.298.047.343.108.722.26 1.038.28.588.747 1.022 1.297 1.363a7.45 7.45 0 0 0-.908 1.752c-.036.1-.029.206.065.26.035.02.092.065.13.065.064 0 .15-.079.194-.13 2.134-2.524 5.286-4.505 8.437-5.387.107-.029.143-.152.13-.26-.013-.108-.086-.192-.195-.194-.03-.002-.096 0-.13 0-.81 0-1.689.113-2.596.39a3.048 3.048 0 0 0-.26-.78 3.46 3.46 0 0 0-1.492-1.557c.526-.294 1.11-.633 1.558-1.038.08-.074.06-.169 0-.26s-.162-.116-.26-.065Zm-4.544 4.673c.66-.314 1.503-.008 1.817.649.03.062.045.132.065.194-.63.466-1.204.986-1.687 1.623-.325-.131-.618-.313-.779-.649-.314-.657-.075-1.505.584-1.817Z"/><path fill="url(#n)" d="M81.995 30.002a2.655 2.655 0 0 0-1.622.39h-.065c-.64.309-1.74.725-2.466.843-.1.016-.186.092-.195.195-.009.1.099.226.195.26.3.102.886.136 1.363.064-.074.203-.108.43-.13.65-.049.502.028.98.26 1.427.03.071.092.197.13.26-.246.095-.526.148-.78.26a.218.218 0 0 0-.13.259c.032.107.142.223.26.194 1.602-.242 2.968-.305 4.413-.13.057.27.314-.127.78-.259.104-.03.73-.957.583-1.947-.146-.99-.73-1.46-1.168-2.012-.438-.552-.413-.145-.584-.194-.27-.123-.552-.233-.844-.26Zm-1.492 2.336c.543.054.962.56.908 1.104-.01.115-.083.224-.13.324-.498.085-.98.202-1.492.39a1.236 1.236 0 0 1-.325-.91c.054-.543.493-.961 1.039-.908Z"/><path d="M63.824 26.692c-4.406 1.102-5.834 2.895-5.127 6.425.02.102.092.195.194.195.105 0 .173-.093.195-.195.454-2.007 1.248-4.303 4.867-6.036.105-.049.168-.152.13-.26-.038-.106-.141-.156-.26-.129Z" filter="url(#o)"/><path d="M76.414 23.317c-.763.017-.983.254-1.493.454a.212.212 0 0 0-.13.26c.034.111.153.159.26.13.829-.154 1.855.025 2.79.195.044.027.089.04.13.064.083-.15.115-.356.26-.519-.086-.063-.163-.171-.26-.194-.467-.113-.794-.406-1.557-.39Z" filter="url(#p)"/><path d="M68.886 54.923c-.074.05-.085.17-.065.256.34 1.509.456 1.784.456 1.784.896 1.003 2.489-1.464 6.237 1.945.908.928-.459.753.125.98.584.228 1.612.049 2.21-.07 1.196-.237 2.762-1.101 2.762-1.101s-3.75-.862-4.12-.952a51.718 51.718 0 0 1-4.36-1.24c-1.003-.334-1.739-.807-2.596-1.346l-.39-.256c-.075-.046-.188-.053-.26 0Zm27.253-27.476c-.502-.957-2.043-1.933-3.368-2.131-.826-.13-1.517.058-1.982.528-.466.47-.862 1.05-1.25 1.614-.454.662-.924 1.346-1.488 1.827-.686.586-1.512.915-2.312 1.234l-.18.073c-.62-1.592-1.492-2.998-2.889-4.66-1.009-1.195-1.944-1.781-3.24-2.592-1.758-1.098-3.221-2.379-4.77-3.733a88.821 88.821 0 0 0-2.053-1.762c-5.561-4.579-11.185-6.501-22.008-1.957-4.212 1.77-6.22 4.136-8.77 7.535-1.531.09-2.631.423-4.273 1.868a56.77 56.77 0 0 0-3.38 3.248c-8.104 1.291-13.22 2.837-18.652 7.646-2.085 1.844-3.735 3.978-5.05 6.524l-.093.104c-1.08 1.192-2.196 2.421-3.633 2.976-.392.152-.701.265-.788.227-.072-.03-.156-.24-.274-.55 1.102-.933 1.2-2.463 1.292-3.944l.015-.236c.352.122.59.492.862.91.127.197.258.4.408.586a.221.221 0 0 0 .39-.089c.298-1.33.554-3.648-.952-4.597l.228-.581c.162-.417.331-.842.49-1.29a.222.222 0 0 0-.247-.292c-1.566.272-6.052 2.983-6.994 6.056-.428 1.397-.083 2.658 1.026 3.749.279 1.13.488 1.84.836 2.561.962 1.994 3.024 2.341 4.773 1.804-.446 2.25-.51 4.669-.225 7.987.069.809.187 1.653.35 2.506l-1.221 3.319-3.09 3.047c-.13.131-.251.245-.358.347-.886.853-1.065 1.085-.82 2.555.35 2.076 1.364 4.002 2.934 5.575 1.539 1.541 5.06 4.09 7.856 3.25a17.854 17.854 0 0 1-.851 2.263c-.5 1.093-.564 2.042-.194 2.824.753 1.581 3.098 2.19 5.167 2.728.245.065.486.127.717.19l.283.075c2.18.593 6.241 1.697 8.33.5a2.45 2.45 0 0 0 1.188-1.542c.396-1.47.47-2.276.33-3.702.656-1.454.924-1.846 1.402-2.548l.227-.332c.927-1.372.86-1.924.662-3.584a33.594 33.594 0 0 0-.093-.726c2.443.343 4.89.397 7.443.156a89.84 89.84 0 0 1-1.706.889l-.283.145c-.66.338-1.082.846-1.26 1.51-.484 1.813.93 4.316 2.213 6.294 1.85 2.838 3.655 5.194 6.315 5.194.895 0 1.889-.267 3.011-.873 1.103-.597 1.468-1.234 1.929-2.04.156-.272.332-.58.552-.911.417-.256 1.633-1.258 2.92-2.319.508-.418 1.012-.835 1.446-1.187.655.613 1.764.737 3.332.851.563.04 2.194.045 3.497.045h.953c.356 0 .561 0 .773.002 2.432 0 4.154-.303 4.368-3.294.1-1.38.029-1.718-.624-2.882l-.118-4.395c-.045-1.695-.372-2.748-1.038-4.337-.227-.536-.414-1.042-.6-1.539-.3-.808-.583-1.574-1.004-2.412.067-.383.123-.775.167-1.167l2.332 2.24c1.613 1.551 3.016 2.9 5.49 2.9.11 0 .221-.001.335-.006 2.873-.136 5.96-2.414 6.74-4.974l.728-2.394c4.613.833 9.065.345 12.241-1.345 4.675-2.492 7.629-7.586 8.317-14.348.492-4.84-.492-12.9-2.737-17.19ZM7.22 39.546c.005-.013.007-.029.011-.042.159.173.25.405.308.688a1.025 1.025 0 0 0-.421-.158c.027-.178.062-.339.102-.488Zm79.822-7.686c.644-.228 1.31-.462 1.864-.9.689-.541 1.252-1.265 1.8-1.965.403-.517.82-1.051 1.274-1.49.259-.25.56-.33.92-.258.147.031.294.084.441.158-1.127 2.214-2.815 3.922-4.893 4.947-.991.49-1.67.416-2.698.303-.084-.01-.171-.018-.26-.03.352-.342.906-.538 1.552-.765ZM4.327 47.725c-.365-.76-.577-1.522-.85-2.508a.198.198 0 0 0-.054-.094c-.608-.63-.862-1.354-.758-2.151.232-1.767 2.074-3.477 3.404-4.42a8.08 8.08 0 0 0-.354.963c-.225.773-.259 1.501-.29 2.207-.058 1.28-.111 2.386-1.32 3.352a.223.223 0 0 0-.06.272c.12.243.224.468.32.673.693 1.487 1.029 1.968 2.996 1.18a7.004 7.004 0 0 0 1.55-.864 39.574 39.574 0 0 0-.532 1.572c-.034.1-.063.2-.094.303-1.207.492-3.23 1.034-3.958-.485Zm9.032 28.387c-.288.385-.673.588-1.176.621a3.28 3.28 0 0 1-.15.004c-1.73 0-4.193-1.913-5.08-2.815-1.243-1.267-2.065-2.775-2.256-4.134-.118-.846-.074-.89.483-1.445l3.14-3.172a.22.22 0 0 0 .05-.078l.416-1.111c1.383 4.448 3.54 8.232 5.156 10.682-.124.512-.274 1.04-.583 1.448Zm49.911-4.063.134 4.708c0 .036.011.072.029.105.488.856.548 1 .465 1.94-.169 1.902-.728 2-2.445 1.951l-.893-.01c-1.261-.014-3.375-.036-4.003-.09-.85-.074-1.436-.147-1.804-.287 1.907-1.675 4.791-6.854 5.381-8.716.263-.826.537-1.608.804-2.372.305-.875.597-1.715.86-2.568.16.544.33 1.103.577 1.69.6 1.415.855 2.237.895 3.649Zm33.666-27.498c-.481 4.448-2.63 10.112-7.221 12.666-3.855 2.15-8.13 1.906-12.414.868-1.728-.419-.89 1.816-.585 1.892l-.69 2.243c-.603 1.964-3.011 3.662-5.178 3.662h-.072c-1.868-.034-3.111-1.143-4.428-2.317l-.276-.245a948.97 948.97 0 0 0-2.893-2.559.21.21 0 0 0-.078-.044c-2.83-.894-4.798-1.88-7.016-3.52a.22.22 0 0 0-.294.027.227.227 0 0 0-.007.296c1.747 2.047 2.927 3.145 5.199 4.119-.265 2.467-.971 4.499-1.717 6.646-.294.844-.597 1.72-.89 2.653-.476 1.536-4.213 7.59-5.166 8.14-.377.216-1.653 1.243-3.005 2.328-1.388 1.113-2.824 2.265-3.259 2.523a.2.2 0 0 0-.064.058c-.17.228-.337.475-.503.726-.466.702-.947 1.426-1.624 1.782-2.809 1.481-4.617-1.38-6.212-3.906-1.303-2.07-1.844-3.566-1.608-4.45a1.02 1.02 0 0 1 .534-.671c1.555-.822 2.457-1.414 3.956-2.397l.185-.12c.125.19.27.374.407.555.154.198.312.4.435.601.053.09.162.127.263.094a.226.226 0 0 0 .147-.236l-.188-1.495c-.102-.824-.11-1.523-.035-2.499l.207-2.64a.222.222 0 0 0-.183-.235.216.216 0 0 0-.251.158c-.125.434-.317.882-.504 1.316-.191.446-.39.907-.537 1.417-.078.271-.149.514-.196.737-3.73.744-7.354.788-11.078.145a67.381 67.381 0 0 0-.769-3.807c-.024-.107-.127-.191-.233-.17a.222.222 0 0 0-.203.208c-.053.844-.045 2.742-.038 4.415.002.695.007 1.352.005 1.888-.005 1.44-.072 1.858-.767 3-.202.337-.372.595-.534.84-.377.577-.733 1.123-1.412 2.473a.205.205 0 0 0-.023.113c.083 1.259.07 2.002-.233 3.074-.179.628-1.332 1.452-7.066-.114l-.472-.125c-1.311-.34-3.294-.86-3.826-1.902-.18-.354-.183-.744-.007-1.194.795-2.035 1.308-4.165 1.71-7.122a.225.225 0 0 0-.037-.156c-3.7-5.32-6.21-11.453-6.718-16.411-.425-4.163-.213-6.849.753-9.578 1.642-4.63 3.822-8.029 6.865-10.695 4.14-3.626 8.018-5.334 14.63-6.404-1.124 1.27-2.242 2.59-3.42 3.979l-1.05 1.233c-1.786 2.1-2.86 4.275-3.9 6.377-1.576 3.194-1.478 4.47.55 7.19l.647.86c1.298 1.717 2.089 2.761 2.73 4.655-.621 1.307-.844 2.425-1.046 4.131a.23.23 0 0 0 .055.176c2.176 2.375 3.76 3.967 5.894 4.473 2.198.52 3.9.356 5.688-.557.822-.419 1.642-.869 2.437-1.305 3.192-1.753 6.207-3.408 9.776-3.495a.223.223 0 0 0 .2-.138c2.131-5.232 1.9-9.62.893-14.598-.661-3.28-.949-6.405-1.176-10.087a.222.222 0 0 0-.2-.207.212.212 0 0 0-.234.169c-.882 3.702-1 6.905-.383 10.386.735 4.138 1.345 8.86-.684 12.575-3.232.28-6.14 1.898-8.954 3.464a95.68 95.68 0 0 1-2.352 1.278c-1.374.713-2.857.833-4.528.377-1.412-.388-2.399-1.303-4.05-3.199-.01-1.826.417-2.67 1.26-4.328 1.454-2.862 3.097-5.566 4.659-8.06a.224.224 0 0 0-.058-.299.224.224 0 0 0-.3.038c-.542.653-1.075 1.276-1.596 1.887-1.396 1.635-2.721 3.183-3.89 4.92-.484-1.203-1.112-2.018-2.014-3.194-.27-.35-.56-.728-.878-1.16-1.443-1.954-1.523-2.727-.499-4.874l.116-.243c1.05-2.196 1.956-4.091 3.729-6.002 1.251-1.35 2.485-2.784 3.68-4.174 1.89-2.199 3.846-4.473 5.988-6.553 1.666-1.62 2.408-1.724 4.384-2.009l.71-.105a89.005 89.005 0 0 0 6.874-1.327.223.223 0 0 0 .169-.252c-.018-.113-.123-.207-.238-.185-2.018.188-3.963.27-6.22.332 1.896-2.412 3.186-3.92 6.554-5.379 8.263-3.583 13.733-4.334 20.698 1.51.501.42.982.836 1.457 1.245 1.066.92 2.08 1.796 3.185 2.618a6.784 6.784 0 0 0-1.44.405.221.221 0 0 0-.13.267c.033.112.146.185.253.156.829-.153 1.807-.009 2.742.16.252.163.51.324.778.477l.06.036c1.218.717 1.888 1.111 2.7 2.238.79 1.1 1.465 2.205 2.05 3.364-.22-.076-.167 2.898-.147 4.247.02 1.35.154.757.228 1.15l-.303.024c-.829-.613-1.769-.461-2.822-.225-2.5.568-2.876 1.737-3.4 3.352-.226.701-.482 1.494-.964 2.379a.222.222 0 0 0 .366.247c.57-.697.94-1.412 1.265-2.045.639-1.243 1.142-2.225 2.82-2.621.171-.04.327-.083.474-.125.002 0 .007 0 .011-.002-.448.38-.784.842-.953 1.32-.365 1.027-.443 1.974-.521 2.89-.08.97-.159 1.888-.562 2.857a.222.222 0 0 0 .397.196c.552-.956.828-1.911 1.096-2.835.227-.787.463-1.597.866-2.421.312-.633 1.446-1.582 2.054-1.593l.407-.009c.18 1.234.24 2.218.185 3.005-.13 1.782-.59 4.339-.84 5.245-.026.102.02.21.116.256a.22.22 0 0 0 .274-.062c.795-1.023 1.207-2.92 1.57-4.593.065-.298.127-.586.19-.858.38-1.661.363-3.795-.052-6.006-.093-.504-.066-.88.056-1.174.227.067.441.136.646.202 1 .326 1.862.604 3.04.183 2.457-.875 4.052-2.764 4.871-5.77.462.347.856.839 1.03 1.258 1.697 4.136 2.643 10.998 2.14 15.63Z" filter="url(#q)"/></svg>