<svg xmlns="http://www.w3.org/2000/svg" xml:space="preserve" width="100%" height="100%" viewBox="0 0 100 100"><defs><filter id="a" width="105.411" height="105.401" x="-2.705" y="-1.652" color-interpolation-filters="sRGB" filterUnits="userSpaceOnUse"><feDropShadow dx="0" dy="1.048" flood-color="#000" flood-opacity=".65" in="SourceGraphic" result="Shadow" stdDeviation="1.572"/></filter></defs><g filter="url(#a)"><path fill="#c62828" d="M98.775 50.307c0 7.124-.898 12.248-2.912 16.613a1.833 1.833 0 0 1-2.429.895 1.832 1.832 0 0 1-.895-2.429c1.08-2.341 1.795-4.985 2.19-8.162a48.439 48.439 0 0 0 3.622-13.318c.275 2.114.424 4.253.424 6.401ZM90.2 77.055a1.828 1.828 0 1 1-3.58.752 44.055 44.055 0 0 1-.914-6.856 49.276 49.276 0 0 0 3.665-4.443c-.188 3.048-.063 6.311.83 10.547Zm-71.09-1.514c.14 3.02.36 6.216.7 9.636a1.827 1.827 0 0 1-1.821 2.011 1.829 1.829 0 0 1-1.817-1.646c-.488-4.88-.746-9.355-.844-13.452a49.713 49.713 0 0 0 3.783 3.451Zm65.25 7.73a1.83 1.83 0 0 1-3.483 1.123 75.78 75.78 0 0 1-1.992-7.356 49.526 49.526 0 0 0 3.214-2.575c.458 2.551 1.173 5.431 2.26 8.809ZM29.497 91.54a1.83 1.83 0 0 1-1.752 2.353c-.785 0-1.514-.51-1.75-1.304-1.332-4.441-2.173-9.211-2.666-13.98a48.676 48.676 0 0 0 3.975 2.347c.483 3.639 1.188 7.228 2.192 10.584Zm9.933 3.89a1.83 1.83 0 0 1-3.459 1.195c-1.46-4.236-2.58-8.687-3.392-13.306 1.3.498 2.62.951 3.97 1.339.74 3.722 1.69 7.324 2.88 10.772Zm31.896-3.534a1.829 1.829 0 1 1-3.31 1.556 62.973 62.973 0 0 1-3.458-9.09c1.176-.367 2.317-.811 3.454-1.262.81 2.819 1.88 5.75 3.314 8.796Zm-7.14 2.763a1.83 1.83 0 0 1-3.33 1.515A73.747 73.747 0 0 1 57.094 86a49.48 49.48 0 0 0 3.63-.647c.875 2.99 2.004 6.1 3.462 9.304Zm-16.399 1.598a1.832 1.832 0 0 1-1.01 2.382 1.83 1.83 0 0 1-2.383-1.012c-1.74-4.309-2.887-8.465-3.645-11.952 1.283.246 2.58.451 3.897.595.715 3.024 1.717 6.465 3.141 9.987Zm4.378-5.927c.965-.321 1.995.2 2.314 1.157l1.627 4.877a1.831 1.831 0 0 1-1.737 2.407c-.765 0-1.48-.485-1.734-1.251l-1.625-4.88a1.826 1.826 0 0 1 1.156-2.312ZM73.08 78.39c.895-.202 1.751.315 2.068 1.147.032.085.088.156.11.248l.061.256c.67 2.71 2.878 8.241 2.9 8.297a1.829 1.829 0 0 1-3.395 1.36c-.09-.226-2.12-5.318-2.936-8.35-.037-.138-.086-.297-.12-.426l-.083-.354a1.83 1.83 0 0 1 1.395-2.178ZM7.15 66.084c.039-1.01.85-1.813 1.897-1.759.022 0 .042.015.064.015a1.822 1.822 0 0 1 1.695 1.88c-.008.163-.008.34-.015.502-.07 2.044-.115 4.183-.115 6.439a1.83 1.83 0 0 1-3.658 0c0-2.483.049-4.846.132-7.078Z"/><path fill="#c2185b" d="M1.669 44.04a49.33 49.33 0 0 1 1.495-7.363 48.7 48.7 0 0 0 2.324 6.368 45.814 45.814 0 0 0-.602 7.262v.298c0 .873-.627 1.57-1.447 1.75-.129.03-.248.079-.385.079a1.83 1.83 0 0 1-1.829-1.83v-.297c0-2.124.18-4.209.444-6.267Zm92.848-1.005a48.409 48.409 0 0 0 2.305-6.302c.043.093.11.169.138.27a49.04 49.04 0 0 1 1.393 6.9 48.464 48.464 0 0 1-3.621 13.318c.258-2.056.385-4.333.385-6.914a46.1 46.1 0 0 0-.6-7.272Zm-83.125 14.14a1.83 1.83 0 0 1-3.64-.337c.277-2.985.606-5.563.943-7.813a48.432 48.432 0 0 0 3.097 4.406c-.141 1.178-.275 2.42-.4 3.744Zm74.982 3.09c.23-1.705.454-3.459.612-5.353a49.273 49.273 0 0 0 3.85-5.114c.003.168.015.334.015.5 0 4.119-.431 7.338-.85 10.452-.264 1.956-.508 3.814-.627 5.755a48.883 48.883 0 0 1-3.666 4.444c-.217-4.002.207-7.29.666-10.684ZM15.66 57.792a48.28 48.28 0 0 0 3.46 3.121c-.219 4.19-.265 9.065-.007 14.626a49.215 49.215 0 0 1-3.782-3.451c-.137-5.478.022-10.238.329-14.296Zm62.278 5.324a49.073 49.073 0 0 0 4.068-3.2c-.585 4.165-1.02 8.353.095 14.547a49.5 49.5 0 0 1-3.214 2.575c-1.258-5.853-1.293-10.155-.949-13.922Zm-55.11.558a49.235 49.235 0 0 0 3.63 2.207c-.065 4.807.167 9.99.845 15.076a48.723 48.723 0 0 1-3.976-2.346c-.531-5.13-.65-10.24-.5-14.937Zm50.95 7.665c0 1.01-.82 1.824-1.83 1.824h-.004a1.828 1.828 0 0 1-1.824-1.834c.002-1.395.022-2.624.046-3.787a49.225 49.225 0 0 0 3.707-1.863 190.202 190.202 0 0 0-.095 5.66ZM34.81 69.5c.198 5.253.776 10.316 1.74 15.155a48.676 48.676 0 0 1-3.971-1.34c-.853-4.865-1.344-9.93-1.47-15.17 1.204.507 2.448.943 3.702 1.355Zm31.033-.239c.13 4.18.72 8.821 2.166 13.84-1.136.451-2.278.898-3.453 1.263A58.833 58.833 0 0 1 62.22 70.34c1.227-.32 2.437-.67 3.624-1.078Zm-7.67 1.944a66.842 66.842 0 0 0 2.55 14.15 48.012 48.012 0 0 1-3.63.646 70.125 70.125 0 0 1-2.558-14.289c1.232-.112 2.436-.302 3.639-.507Zm-17.122 3.18c1.042-.07 1.873.71 1.934 1.717.005.063.283 4.324 1.663 10.165a48.72 48.72 0 0 1-3.897-.596c-1.158-5.336-1.402-9.1-1.417-9.355a1.827 1.827 0 0 1 1.717-1.931Zm9.507-2.47c.24 3.636.707 7.533 1.538 11.547a1.828 1.828 0 0 1-1.795 2.2c-.848 0-1.61-.595-1.787-1.459-.898-4.34-1.398-8.535-1.646-12.418 1.039.066 2.073.159 3.131.159.188 0 .37-.027.559-.03Z"/><path fill="#d81b60" d="M5.486 43.045a48.351 48.351 0 0 1-2.325-6.368A49.08 49.08 0 0 1 5.915 29.3a48.77 48.77 0 0 0 2.214 4.16 45.59 45.59 0 0 0-2.643 9.585Zm89.224-7.31c.873-.245 1.74.208 2.114.998a48.423 48.423 0 0 1-2.305 6.302 45.959 45.959 0 0 0-1.078-5.046 1.824 1.824 0 0 1 1.269-2.253Zm-83.623 2.123a49.283 49.283 0 0 0 2.812 3.394c-.436 1.759-1.358 5.912-2.107 12.18a49.123 49.123 0 0 1-3.097-4.407c.773-5.18 1.583-8.443 1.888-9.565.148-.547.339-1.068.504-1.602Zm74.994 3.416a48.804 48.804 0 0 0 2.834-3.421A41.265 41.265 0 0 1 90.832 49.8a48.6 48.6 0 0 1-3.85 5.114c.124-1.436.209-2.944.209-4.614 0-3.073-.386-6.102-1.11-9.026Zm-65.444 6.143c-.59 3.142-1.214 7.65-1.519 13.496a49.337 49.337 0 0 1-3.46-3.121c.439-5.822 1.173-10.17 1.785-13.01a49.253 49.253 0 0 0 3.194 2.635ZM79.266 50.3c0-.915-.056-1.814-.137-2.71a49.124 49.124 0 0 0 3.317-2.709c.29 1.768.478 3.568.478 5.416 0 3.203-.393 5.936-.77 8.578-.05.346-.1.692-.147 1.038a48.675 48.675 0 0 1-4.068 3.2c.151-1.656.373-3.212.593-4.755.378-2.63.734-5.117.734-8.058ZM27.55 51.81c-.578 3.745-1.017 8.655-1.09 14.071a47.639 47.639 0 0 1-3.631-2.207c.173-5.377.687-10.189 1.334-13.823a48.487 48.487 0 0 0 3.387 1.959Zm43.724.565a49.176 49.176 0 0 0 3.722-2.012c-.005 2.322-.195 4.014-.42 5.965a103.28 103.28 0 0 0-.702 9.348 47.48 47.48 0 0 1-3.707 1.864c.122-5.87.478-9.036.776-11.63.143-1.25.263-2.345.331-3.535ZM31.1 62.138c.092-3.32.32-6.08.59-8.412 1.16.471 2.334.913 3.536 1.295a92.394 92.394 0 0 0-.473 7.22 110.15 110.15 0 0 0 .054 7.26 48.227 48.227 0 0 1-3.702-1.357c-.044-1.98-.061-3.977-.005-6.006Zm31.855-6.307.036-.324a48.161 48.161 0 0 0 3.807-1.23c-.068.644-.127 1.261-.207 1.964-.405 3.585-.9 7.967-.744 13.018-1.188.407-2.397.76-3.624 1.078-.258-5.663.283-10.553.732-14.506Zm-8.121 1.236c1.263-.124 2.502-.336 3.736-.553-.407 3.804-.815 8.799-.395 14.693-1.203.203-2.407.395-3.639.51-.432-5.797-.098-10.76.298-14.65ZM42.379 66.77a1.83 1.83 0 0 1-1.83 1.822h-.007a1.828 1.828 0 0 1-1.821-1.837c.017-3.429.302-7.23.714-10.62 1.188.263 2.398.453 3.615.629-.371 3.07-.654 6.611-.671 10.006Zm4.64-9.609c.991.061 1.974.151 2.981.151.234 0 .46-.031.695-.034a97.614 97.614 0 0 0-.139 14.64c-.185 0-.368.027-.556.027-1.058 0-2.092-.093-3.131-.159a99 99 0 0 1 .15-14.625Z"/><path fill="#ec407a" d="M13.455 23.69a45.473 45.473 0 0 0-5.326 9.768 48.77 48.77 0 0 1-2.214-4.16c1.424-3.027 3.175-5.868 5.165-8.524a47.825 47.825 0 0 0 2.375 2.917Zm80.152 4.61.076.149c.451.902.01 1.846-.893 2.3a1.586 1.586 0 0 1-.72.165c-.728 0-1.47-.458-1.809-1.131a45.898 45.898 0 0 0-3.712-6.092c.83-.94 1.615-1.91 2.37-2.912 1.75 2.339 3.337 4.838 4.688 7.521Zm-74.399.976a37.477 37.477 0 0 0-5.306 11.976 49.283 49.283 0 0 1-2.812-3.395 40.958 40.958 0 0 1 5.377-11.035c.888.844 1.788 1.678 2.741 2.454Zm61.574.007c.95-.776 1.853-1.61 2.743-2.454a41.518 41.518 0 0 1 5.39 11.021 49.484 49.484 0 0 1-2.834 3.422 37.803 37.803 0 0 0-5.3-11.99Zm-58.137 2.565c1.01.686 2.068 1.303 3.128 1.912a30.167 30.167 0 0 0-4.148 9.26c-.244.886-.607 2.368-.988 4.397a50.013 50.013 0 0 1-3.194-2.634c.266-1.226.507-2.202.69-2.865.936-3.636 2.487-7.016 4.512-10.07Zm54.713-.005c2.558 3.854 4.31 8.283 5.087 13.038a49.124 49.124 0 0 1-3.317 2.71 29.59 29.59 0 0 0-4.89-13.84c1.06-.608 2.115-1.222 3.12-1.907ZM25.803 43.308a1.83 1.83 0 1 1 3.463 1.18 38.41 38.41 0 0 0-1.251 4.656 56.755 56.755 0 0 0-.466 2.666 49.07 49.07 0 0 1-3.387-1.959c.087-.497.178-.992.27-1.444a41.888 41.888 0 0 1 1.37-5.099Zm41.117-6.146a48.88 48.88 0 0 0 3.48-1.436A25.342 25.342 0 0 1 74.997 50.3l-.002.063a48.751 48.751 0 0 1-3.722 2.012c.04-.648.066-1.319.066-2.075 0-4.943-1.66-9.49-4.419-13.138Zm-29.687 1.332c1.444.39 2.91.72 4.402.978-2.256 1.717-4.007 4.085-4.838 6.843-.21.666-1.02 3.527-1.566 8.706a48.482 48.482 0 0 1-3.536-1.295c.556-4.762 1.317-7.565 1.62-8.525.767-2.559 2.145-4.822 3.918-6.707ZM50 40.85c5.043 0 9.145 4.238 9.145 9.45 0 1.093-.163 2.527-.368 4.343-.066.583-.136 1.215-.207 1.868-1.234.22-2.47.43-3.736.554.102-1.014.21-1.973.307-2.836.193-1.703.346-3.046.346-3.931 0-3.195-2.46-5.793-5.487-5.793-2.478 0-3.985 1.083-5.375 3.866-.378.756-1.06 4.116-1.575 8.384-1.217-.173-2.427-.366-3.615-.629.534-4.41 1.278-8.118 1.917-9.394C42.616 44.21 44.886 40.85 50 40.85Z"/><path fill="#ec407a" d="M50.049 48.81a1.829 1.829 0 0 1 1.441 2.146c-.012.058-.46 2.441-.795 6.319-.234.005-.46.036-.695.036-1.007 0-1.99-.09-2.98-.15.349-4.083.831-6.654.883-6.91a1.823 1.823 0 0 1 2.146-1.441Zm10.684-9.699c.114-.09.246-.13.373-.19.2-.086.43-.137.651-.169.576-.034 1.159.171 1.546.656A17.628 17.628 0 0 1 67.071 50.3c0 1.158-.124 2.522-.275 3.98-1.249.459-2.512.87-3.807 1.23.229-2.042.424-3.822.424-5.21 0-3.175-1.03-6.155-2.98-8.621a1.83 1.83 0 0 1 .3-2.568Z"/><path fill="#e040fb" d="M13.455 23.69a49.519 49.519 0 0 1-2.375-2.916 48.964 48.964 0 0 1 8.165-8.543 49.208 49.208 0 0 0 3.031 2.266 45.288 45.288 0 0 0-8.82 9.194Zm64.283-9.2a48.665 48.665 0 0 0 3.022-2.261 49.062 49.062 0 0 1 8.155 8.55 49.37 49.37 0 0 1-2.37 2.912 45.017 45.017 0 0 0-8.807-9.202Zm-58.53 14.786c-.95-.776-1.85-1.61-2.74-2.454a41.143 41.143 0 0 1 9.703-9.894 48.184 48.184 0 0 0 3.704 1.858 37.5 37.5 0 0 0-10.667 10.49Zm13.355-7.166a1.83 1.83 0 1 1 1.953 3.095c-3.521 2.224-6.462 5.144-8.74 8.558-1.063-.61-2.12-1.227-3.129-1.912a32.978 32.978 0 0 1 9.916-9.74Zm44.795 9.733c-1.007.683-2.06 1.3-3.12 1.908a29.406 29.406 0 0 0-14.993-11.484 48.771 48.771 0 0 0 5.797-1.488 33.21 33.21 0 0 1 12.316 11.064Zm-46.912 2.693C35.221 28.473 42.35 24.998 50 24.998c8.421 0 15.867 4.248 20.4 10.728-1.136.524-2.297 1-3.48 1.436-3.904-5.16-10.026-8.506-16.92-8.506-6.524 0-12.601 2.968-16.679 8.143-.104.132-.241.22-.373.315-.648.473-1.536.507-2.197-.01a1.808 1.808 0 0 1-.659-1.141 1.81 1.81 0 0 1 .354-1.427Z"/><path fill="#e040fb" d="M50 32.924c1.873 0 3.714.307 5.463.91l.346.121a1.828 1.828 0 1 1-1.251 3.437l-.273-.098A13.219 13.219 0 0 0 50 36.582c-3.053 0-5.99 1.083-8.367 2.89a48.743 48.743 0 0 1-4.402-.978c3.236-3.441 7.826-5.57 12.769-5.57ZM71.188 17.22a1.833 1.833 0 0 1 2.553-.415c.044.032.085.066.127.098a40.984 40.984 0 0 1 9.655 9.925c-.89.844-1.79 1.678-2.744 2.454a37.356 37.356 0 0 0-9.179-9.509 1.797 1.797 0 0 1-.732-1.346c-.026-.417.059-.844.32-1.207Z"/><path fill="#d500f9" d="M43.262 3.503a1.83 1.83 0 0 1-1.466 2.131C34.46 6.99 27.84 10.124 22.274 14.5a49.196 49.196 0 0 1-3.031-2.265C25.415 7.178 32.856 3.569 41.13 2.037a1.815 1.815 0 0 1 2.132 1.466Zm7.323 1.385a1.827 1.827 0 0 1-1.804-1.853A1.828 1.828 0 0 1 50.61 1.23h.024a48.355 48.355 0 0 1 30.128 10.999 50.702 50.702 0 0 1-3.021 2.26c-7.629-5.994-17.091-9.472-27.156-9.6ZM50 9.146c5.185 0 10.24.966 15.025 2.873a1.83 1.83 0 0 1-1.356 3.4A36.703 36.703 0 0 0 50 12.804a36.894 36.894 0 0 0-20.127 5.982 48.2 48.2 0 0 1-3.704-1.858C32.953 12.014 41.22 9.146 50 9.146Z"/><path fill="#d500f9" d="M50 20.73a29.02 29.02 0 0 0-7.458.968 1.822 1.822 0 0 1-2.236-1.3 1.83 1.83 0 0 1 1.3-2.236A32.678 32.678 0 0 1 50 17.072c5.421 0 10.528 1.354 15.045 3.707a47.841 47.841 0 0 1-5.797 1.488A28.842 28.842 0 0 0 50 20.73Z"/></g></svg>