<svg xmlns="http://www.w3.org/2000/svg" xml:space="preserve" stroke-linecap="round" stroke-linejoin="round" stroke-miterlimit="10" clip-rule="evenodd" width="100%" height="100%" viewBox="0 0 100 100"><defs><filter id="c" width="67.439" height="79.283" x="10.256" y="21.686" color-interpolation-filters="sRGB" filterUnits="userSpaceOnUse"><feDropShadow dx="0" dy=".549" flood-color="#000" flood-opacity=".55" in="SourceGraphic" result="Shadow" stdDeviation="1.014"/></filter><filter id="e" width="38.071" height="28.382" x="25.59" y="27.494" color-interpolation-filters="sRGB" filterUnits="userSpaceOnUse"><feDropShadow dx="0" dy=".549" flood-color="#000" flood-opacity=".55" in="SourceGraphic" result="Shadow" stdDeviation="1.014"/></filter><filter id="g" width="19.152" height="16.331" x="19.269" y="27.495" color-interpolation-filters="sRGB" filterUnits="userSpaceOnUse"><feDropShadow dx="0" dy=".549" flood-color="#000" flood-opacity=".55" in="SourceGraphic" result="Shadow" stdDeviation="1.014"/></filter><filter id="i" width="56.744" height="55.233" x="10.194" y="46.346" color-interpolation-filters="sRGB" filterUnits="userSpaceOnUse"><feDropShadow dx="0" dy=".549" flood-color="#000" flood-opacity=".55" in="SourceGraphic" result="Shadow" stdDeviation="1.014"/></filter><filter id="k" width="26.324" height="19.378" x="54.107" y="81.591" color-interpolation-filters="sRGB" filterUnits="userSpaceOnUse"><feDropShadow dx="0" dy=".549" flood-color="#000" flood-opacity=".55" in="SourceGraphic" result="Shadow" stdDeviation="1.014"/></filter><filter id="m" width="37.385" height="48.32" x="22.806" y="46.84" color-interpolation-filters="sRGB" filterUnits="userSpaceOnUse"><feDropShadow dx="0" dy=".549" flood-color="#000" flood-opacity=".55" in="SourceGraphic" result="Shadow" stdDeviation="1.014"/></filter><filter id="o" width="20.87" height="16.13" x="19.269" y="20.747" color-interpolation-filters="sRGB" filterUnits="userSpaceOnUse"><feDropShadow dx="0" dy=".549" flood-color="#000" flood-opacity=".55" in="SourceGraphic" result="Shadow" stdDeviation="1.014"/></filter><filter id="q" width="67.439" height="79.283" x="18.014" y="17.375" color-interpolation-filters="sRGB" filterUnits="userSpaceOnUse"><feDropShadow dx="0" dy=".549" flood-color="#000" flood-opacity=".55" in="SourceGraphic" result="Shadow" stdDeviation="1.014"/></filter><filter id="r" width="11.631" height="10.98" x="51.781" y="11.164" color-interpolation-filters="sRGB" filterUnits="userSpaceOnUse"><feDropShadow dx="0" dy=".563" flood-color="#000" flood-opacity=".46" in="SourceGraphic" result="Shadow" stdDeviation="1.014"/></filter><filter id="s" width="12.449" height="11.684" x="68.827" y="26.155" color-interpolation-filters="sRGB" filterUnits="userSpaceOnUse"><feDropShadow dx="0" dy=".563" flood-color="#000" flood-opacity=".46" in="SourceGraphic" result="Shadow" stdDeviation="1.014"/></filter><filter id="u" width="21.954" height="21.954" x="55.219" y="13.905" color-interpolation-filters="sRGB" filterUnits="userSpaceOnUse"><feDropShadow dx="0" dy=".563" flood-color="#000" flood-opacity=".46" in="SourceGraphic" result="Shadow" stdDeviation="1.014"/></filter><filter id="w" width="21.954" height="21.953" x="37.587" y="-1.295" color-interpolation-filters="sRGB" filterUnits="userSpaceOnUse"><feDropShadow dx="0" dy=".563" flood-color="#000" flood-opacity=".46" in="SourceGraphic" result="Shadow" stdDeviation="1.014"/></filter><filter id="y" width="21.954" height="21.953" x="72.925" y="29.022" color-interpolation-filters="sRGB" filterUnits="userSpaceOnUse"><feDropShadow dx="0" dy=".563" flood-color="#000" flood-opacity=".46" in="SourceGraphic" result="Shadow" stdDeviation="1.014"/></filter><linearGradient id="b" x1="7.557" x2="83.118" y1="52.241" y2="52.241" gradientTransform="translate(6.554 17.66) scale(.8254)" gradientUnits="userSpaceOnUse"><stop offset=".167" stop-color="#fff"/><stop offset=".5" stop-color="#fff"/><stop offset=".86" stop-color="#bebebe"/><stop offset="1" stop-color="#a9a9a9"/></linearGradient><linearGradient id="d" x1="26.136" x2="66.116" y1="28.443" y2="28.443" gradientTransform="translate(6.554 17.66) scale(.8254)" gradientUnits="userSpaceOnUse"><stop offset=".167" stop-color="#fff"/><stop offset=".5" stop-color="#fff"/><stop offset=".86" stop-color="#bebebe"/><stop offset="1" stop-color="#a9a9a9"/></linearGradient><linearGradient id="f" x1="18.477" x2="35.536" y1="21.145" y2="21.145" gradientTransform="translate(6.554 17.66) scale(.8254)" gradientUnits="userSpaceOnUse"><stop offset=".167" stop-color="#fff"/><stop offset=".5" stop-color="#fff"/><stop offset=".86" stop-color="#bebebe"/><stop offset="1" stop-color="#a9a9a9"/></linearGradient><linearGradient id="h" x1="7.482" x2="70.085" y1="67.55" y2="67.55" gradientTransform="translate(6.554 17.66) scale(.8254)" gradientUnits="userSpaceOnUse"><stop offset=".167" stop-color="#fff"/><stop offset=".5" stop-color="#fff"/><stop offset=".86" stop-color="#bebebe"/><stop offset="1" stop-color="#a9a9a9"/></linearGradient><linearGradient id="j" x1="60.685" x2="86.433" y1="88.53" y2="88.53" gradientTransform="translate(6.554 17.66) scale(.8254)" gradientUnits="userSpaceOnUse"><stop offset=".167" stop-color="#fff"/><stop offset=".5" stop-color="#fff"/><stop offset=".86" stop-color="#bebebe"/><stop offset="1" stop-color="#a9a9a9"/></linearGradient><linearGradient id="l" x1="22.763" x2="61.912" y1="63.96" y2="63.96" gradientTransform="translate(6.554 17.66) scale(.8254)" gradientUnits="userSpaceOnUse"><stop offset=".167" stop-color="#fff"/><stop offset=".5" stop-color="#fff"/><stop offset=".86" stop-color="#bebebe"/><stop offset="1" stop-color="#a9a9a9"/></linearGradient><linearGradient id="n" x1="18.477" x2="37.617" y1="12.848" y2="12.848" gradientTransform="translate(6.554 17.66) scale(.8254)" gradientUnits="userSpaceOnUse"><stop offset=".167" stop-color="#fff"/><stop offset=".5" stop-color="#fff"/><stop offset=".86" stop-color="#bebebe"/><stop offset="1" stop-color="#a9a9a9"/></linearGradient><linearGradient id="p" x1="33.961" x2="108.184" y1="59.754" y2="44.396" gradientTransform="translate(6.554 17.66) scale(.8254)" gradientUnits="userSpaceOnUse"><stop offset=".236" stop-color="#b007a0"/><stop offset=".91" stop-color="#2f003b"/><stop offset="1" stop-color="#29002e"/></linearGradient><linearGradient id="t" x1="137.884" x2="174.183" y1="68.372" y2="68.372" gradientTransform="rotate(-4.718 72.09 -137.807) scale(.33942)" gradientUnits="userSpaceOnUse"><stop offset="0" stop-color="#fff"/><stop offset="0" stop-color="#fff"/><stop offset=".493" stop-color="#acacac"/><stop offset="1" stop-color="#676767"/></linearGradient><linearGradient id="v" x1="137.884" x2="174.183" y1="68.372" y2="68.372" gradientTransform="rotate(-4.718 67.87 -133.058) scale(.33942)" gradientUnits="userSpaceOnUse"><stop offset="0" stop-color="#fff"/><stop offset="0" stop-color="#fff"/><stop offset=".493" stop-color="#acacac"/><stop offset="1" stop-color="#676767"/></linearGradient><linearGradient id="x" x1="137.884" x2="174.183" y1="68.372" y2="68.372" gradientTransform="rotate(-4.718 68.303 -132.65) scale(.33942)" gradientUnits="userSpaceOnUse"><stop offset="0" stop-color="#fff"/><stop offset="0" stop-color="#fff"/><stop offset=".493" stop-color="#acacac"/><stop offset="1" stop-color="#676767"/></linearGradient></defs><clipPath id="a"><path d="M10.194-1.295h84.685V101.58H10.194z"/></clipPath><g clip-path="url(#a)"><path fill="url(#b)" d="M66.763 79.236V57.405c0-23.08-9.587-33.732-23.612-33.732-14.397 0-21.346 10.12-21.346 10.12l6.322 6.948s6.297-6.948 15.027-6.948c10.265 0 10.12 14.781 10.12 18.998 0 0-5.13-5.506-15.18-5.506-14.501 0-25.302 11.638-25.302 27.033 0 8.173 8.295 23.565 23.612 23.565 17.011 0 20.24-9.995 20.24-9.995 2.786 9.995 13.492 9.995 13.492 9.995l5.023-8.47s-8.396-1.525-8.396-10.177Zm-28.672 11.9c-6.52 0-11.806-8.304-11.806-18.552 0-10.247 5.288-18.75 11.806-18.552 8.573.26 11.806 8.305 11.806 18.552 0 10.248-5.286 18.553-11.806 18.553Z" filter="url(#c)"/><path fill="url(#d)" d="m28.127 40.741 7.758-4.31s6.268-7.062 15.028-6.949c11.89.155 10.12 18.998 10.12 18.998l-7.76 4.31s1.1-18.872-10.119-18.997c-5.103-.057-15.027 6.948-15.027 6.948Z" filter="url(#e)"/><path fill="url(#f)" d="m29.564 29.482-7.759 4.31 6.322 6.95 7.758-4.31-6.321-6.95Z" filter="url(#g)"/><path fill="url(#h)" d="m64.402 83.578-7.759 4.31c1.216 1.593-8.176 12.612-23.123 10.285-13.335-2.076-20.01-15.8-20.678-22.182-.61-5.831.757-21.497 17.572-27.657-3.501 2.784-9.986 10.431-9.864 21.674.073 6.681 5.545 18.659 16.451 22.27 10.906 3.612 27.4-8.7 27.4-8.7Z" filter="url(#i)"/><path fill="url(#j)" d="m77.895 93.573-7.759 4.31c-12.07-.76-13.493-9.995-13.493-9.995l7.759-4.31c1.03.778.834 8.694 13.493 9.995Z" filter="url(#k)"/><path fill="url(#l)" d="M45.774 48.84c-9.166.47-21.778 5.693-20.315 20.76 1.874 19.295 19.87 18.369 15.623 18.21-1.862-.07.99 2.19-2.55 1.25-4.695-1.246-10.923-7.904-10.744-20.34.121-8.451 8.42-15.029 10.303-14.688 11.758 2.128 11.81 18.392 11.806 18.552-.297 13.75-6.823 15.282-7.846 15.679-2.847 1.103 2.968 3.813 2.968 3.813s12.61-2.761 12.637-23.802c.013-10.196-4.026-19.837-11.882-19.434Z" filter="url(#m)"/><path fill="url(#n)" d="m21.805 33.793 7.759-4.31c.311-.35 1.637-2.886 8.039-6.748 0 0-4.717 2.479-8.905 4.866-4.357 2.484-6.893 6.192-6.893 6.192Z" filter="url(#o)"/><path fill="url(#p)" d="M74.522 74.926V53.095c0-23.08-9.587-33.732-23.613-33.732-14.397 0-21.345 10.12-21.345 10.12l6.321 6.948s6.298-6.949 15.028-6.949c10.264 0 10.12 14.782 10.12 18.998 0 0-5.132-5.505-15.18-5.505-14.502 0-25.303 11.638-25.303 27.033 0 8.173 8.295 23.565 23.613 23.565 17.01 0 20.239-9.995 20.239-9.995 2.786 9.995 13.493 9.995 13.493 9.995l5.022-8.47s-8.395-1.525-8.395-10.177Zm-28.673 11.9c-7.892.174-11.806-8.304-11.806-18.552s4.06-18.607 11.806-18.552c7.144.05 11.807 8.304 11.807 18.552S54.387 86.64 45.849 86.827Z" filter="url(#q)"/><path fill="none" stroke="#00e298" stroke-width="1.303" d="M54.968 13.789c1.19 1.046 3.513 3.078 5.257 4.605" filter="url(#r)"/><path fill="none" stroke="#00e298" stroke-width="1.303" d="M72.014 28.78c1.847 1.614 4.97 4.34 6.074 5.309" filter="url(#s)"/><path fill="url(#t)" stroke="#00e298" stroke-linecap="butt" stroke-linejoin="miter" stroke-width="4.56" d="M65.763 18.096a6.16 6.16 0 1 0 1.014 12.279 6.16 6.16 0 0 0-1.014-12.28Z" opacity=".528"/><path fill="none" stroke="#00e298" stroke-linecap="butt" stroke-linejoin="miter" stroke-width="4.56" d="M65.69 18.18a6.16 6.16 0 1 0 1.013 12.28 6.16 6.16 0 0 0-1.013-12.28Z" filter="url(#u)"/><path fill="url(#v)" stroke="#00e298" stroke-linecap="butt" stroke-linejoin="miter" stroke-width="4.56" d="M47.984 3.063a6.16 6.16 0 1 0 1.014 12.28 6.16 6.16 0 0 0-1.014-12.28Z" opacity=".528"/><path fill="none" stroke="#00e298" stroke-linecap="butt" stroke-linejoin="miter" stroke-width="4.56" d="M48.058 2.98a6.16 6.16 0 1 0 1.013 12.278A6.16 6.16 0 0 0 48.058 2.98Z" filter="url(#w)"/><path fill="url(#x)" stroke="#00e298" stroke-linecap="butt" stroke-linejoin="miter" stroke-width="4.56" d="M83.47 33.212a6.16 6.16 0 1 0 1.013 12.28 6.16 6.16 0 0 0-1.014-12.28Z" opacity=".528"/><path fill="none" stroke="#00e298" stroke-linecap="butt" stroke-linejoin="miter" stroke-width="4.56" d="M83.396 33.297a6.16 6.16 0 1 0 1.013 12.278 6.16 6.16 0 0 0-1.013-12.279Z" filter="url(#y)"/></g></svg>