<svg xmlns="http://www.w3.org/2000/svg" xml:space="preserve" stroke-linecap="round" stroke-linejoin="round" stroke-miterlimit="10" clip-rule="evenodd" width="100%" height="100%" viewBox="0 0 100 100"><defs><linearGradient id="a" x1="0" x2="100" y1="50" y2="50" gradientUnits="userSpaceOnUse"><stop offset=".167" stop-color="#fff" stop-opacity="0"/><stop offset=".5" stop-color="#fff" stop-opacity="0"/><stop offset=".86" stop-color="#bebebe" stop-opacity="0"/><stop offset="1" stop-color="#a9a9a9" stop-opacity="0"/></linearGradient><linearGradient id="b" x1="9.716" x2="100.85" y1="42.534" y2="43.257" gradientTransform="translate(-1.29 -.235) scale(1.02579)" gradientUnits="userSpaceOnUse"><stop offset="0" stop-color="#50e6fe"/><stop offset="1" stop-color="#00b1ff"/></linearGradient><linearGradient id="c" x1="61.505" x2="84.523" y1="42.534" y2="42.534" gradientTransform="translate(-1.29 -.235) scale(1.02579)" gradientUnits="userSpaceOnUse"><stop offset="0" stop-color="#f1c2ff"/><stop offset="1" stop-color="#ee7fff"/></linearGradient><linearGradient id="e" x1="49.997" x2="67.26" y1="42.534" y2="42.534" gradientTransform="translate(-1.29 -.235) scale(1.02579)" gradientUnits="userSpaceOnUse"><stop offset="0" stop-color="#f1c2ff"/><stop offset="1" stop-color="#ee7fff"/></linearGradient><linearGradient id="g" x1="35.611" x2="52.874" y1="40.046" y2="40.046" gradientTransform="translate(-1.29 -.235) scale(1.02579)" gradientUnits="userSpaceOnUse"><stop offset="0" stop-color="#f1c2ff"/><stop offset="1" stop-color="#ee7fff"/></linearGradient><linearGradient id="i" x1="78.768" x2="90.277" y1="50" y2="50" gradientTransform="translate(-1.29 -.235) scale(1.02579)" gradientUnits="userSpaceOnUse"><stop offset="0" stop-color="#f1c2ff"/><stop offset="1" stop-color="#ee7fff"/></linearGradient><linearGradient id="k" x1="33.351" x2="47.477" y1="40.837" y2="40.837" gradientTransform="translate(-1.29 -.235) scale(1.02579)" gradientUnits="userSpaceOnUse"><stop offset="0" stop-color="#f1c2ff"/><stop offset="1" stop-color="#ee7fff"/></linearGradient><linearGradient id="m" x1="22.436" x2="39.7" y1="34.946" y2="34.946" gradientTransform="translate(-1.29 -.235) scale(1.02579)" gradientUnits="userSpaceOnUse"><stop offset="0" stop-color="#f1c2ff"/><stop offset="1" stop-color="#ee7fff"/></linearGradient><linearGradient id="o" x1="9.716" x2="26.979" y1="41.29" y2="41.29" gradientTransform="translate(-1.29 -.235) scale(1.02579)" gradientUnits="userSpaceOnUse"><stop offset="0" stop-color="#f1c2ff"/><stop offset="1" stop-color="#ee7fff"/></linearGradient><linearGradient id="q" x1="48.131" x2="65.11" y1="48.789" y2="48.789" gradientTransform="translate(-1.29 -.235) scale(1.02579)" gradientUnits="userSpaceOnUse"><stop offset="0" stop-color="#f1c2ff"/><stop offset="1" stop-color="#ee7fff"/></linearGradient><linearGradient id="s" x1="39.641" x2="52.376" y1="48.789" y2="48.789" gradientTransform="translate(-1.29 -.235) scale(1.02579)" gradientUnits="userSpaceOnUse"><stop offset="0" stop-color="#f1c2ff"/><stop offset="1" stop-color="#ee7fff"/></linearGradient><linearGradient id="u" x1="29.028" x2="41.763" y1="46.953" y2="46.953" gradientTransform="translate(-1.29 -.235) scale(1.02579)" gradientUnits="userSpaceOnUse"><stop offset="0" stop-color="#f1c2ff"/><stop offset="1" stop-color="#ee7fff"/></linearGradient><linearGradient id="w" x1="60.865" x2="69.355" y1="54.296" y2="54.296" gradientTransform="translate(-1.29 -.235) scale(1.02579)" gradientUnits="userSpaceOnUse"><stop offset="0" stop-color="#f1c2ff"/><stop offset="1" stop-color="#ee7fff"/></linearGradient><linearGradient id="y" x1="27.361" x2="37.782" y1="47.536" y2="47.536" gradientTransform="translate(-1.29 -.235) scale(1.02579)" gradientUnits="userSpaceOnUse"><stop offset="0" stop-color="#f1c2ff"/><stop offset="1" stop-color="#ee7fff"/></linearGradient><linearGradient id="A" x1="19.31" x2="32.045" y1="43.191" y2="43.191" gradientTransform="translate(-1.29 -.235) scale(1.02579)" gradientUnits="userSpaceOnUse"><stop offset="0" stop-color="#f1c2ff"/><stop offset="1" stop-color="#ee7fff"/></linearGradient><linearGradient id="C" x1="9.926" x2="22.661" y1="47.871" y2="47.871" gradientTransform="translate(-1.29 -.235) scale(1.02579)" gradientUnits="userSpaceOnUse"><stop offset="0" stop-color="#f1c2ff"/><stop offset="1" stop-color="#ee7fff"/></linearGradient><linearGradient id="E" x1="69.203" x2="86.183" y1="51.598" y2="51.598" gradientTransform="translate(-1.29 -.235) scale(1.02579)" gradientUnits="userSpaceOnUse"><stop offset="0" stop-color="#f1c2ff"/><stop offset="1" stop-color="#ee7fff"/></linearGradient><linearGradient id="G" x1="60.713" x2="73.448" y1="51.598" y2="51.598" gradientTransform="translate(-1.29 -.235) scale(1.02579)" gradientUnits="userSpaceOnUse"><stop offset="0" stop-color="#f1c2ff"/><stop offset="1" stop-color="#ee7fff"/></linearGradient><linearGradient id="I" x1="50.101" x2="62.835" y1="49.762" y2="49.762" gradientTransform="translate(-1.29 -.235) scale(1.02579)" gradientUnits="userSpaceOnUse"><stop offset="0" stop-color="#f1c2ff"/><stop offset="1" stop-color="#ee7fff"/></linearGradient><linearGradient id="K" x1="81.938" x2="90.428" y1="57.105" y2="57.105" gradientTransform="translate(-1.29 -.235) scale(1.02579)" gradientUnits="userSpaceOnUse"><stop offset="0" stop-color="#f1c2ff"/><stop offset="1" stop-color="#ee7fff"/></linearGradient><linearGradient id="M" x1="48.016" x2="58.437" y1="52.501" y2="52.501" gradientTransform="translate(-1.29 -.235) scale(1.02579)" gradientUnits="userSpaceOnUse"><stop offset="0" stop-color="#f1c2ff"/><stop offset="1" stop-color="#ee7fff"/></linearGradient><linearGradient id="O" x1="66.189" x2="91.746" y1="49.448" y2="49.448" gradientTransform="translate(-1.29 -.235) scale(1.02579)" gradientUnits="userSpaceOnUse"><stop offset="0" stop-color="#f1c2ff"/><stop offset="1" stop-color="#ee7fff"/></linearGradient><linearGradient id="Q" x1="85.043" x2="24.515" y1="86.047" y2="54.147" gradientTransform="translate(-1.29 -.235) scale(1.02579)" gradientUnits="userSpaceOnUse"><stop offset="0" stop-color="#333fb5"/><stop offset="1" stop-color="#251585"/></linearGradient><linearGradient id="R" x1="49.274" x2="90.461" y1="65.737" y2="65.737" gradientTransform="translate(-1.29 -.235) scale(1.02579)" gradientUnits="userSpaceOnUse"><stop offset="0" stop-color="#333fb5"/><stop offset="1" stop-color="#251585"/></linearGradient><linearGradient id="V" x1="37.462" x2="46.732" y1="37.846" y2="40.75" gradientTransform="translate(-1.29 -.235) scale(1.02579)" gradientUnits="userSpaceOnUse"><stop offset="0" stop-color="#ff1744"/><stop offset="1" stop-color="#9c283e"/></linearGradient><linearGradient id="W" x1="42.689" x2="53.645" y1="59.288" y2="84.907" gradientTransform="matrix(.94837 -.61676 .61986 .95314 -52.82 22.486)" gradientUnits="userSpaceOnUse"><stop offset=".167" stop-color="#fff"/><stop offset=".5" stop-color="#fff"/><stop offset=".86" stop-color="#bebebe"/><stop offset="1" stop-color="#a9a9a9"/></linearGradient><filter id="d" width="30.465" height="27.276" x="58.375" y="30.589" color-interpolation-filters="sRGB" filterUnits="userSpaceOnUse"><feDropShadow dx="0" dy=".831" flood-color="#000" flood-opacity=".6" in="SourceGraphic" result="Shadow" stdDeviation="1.371"/></filter><filter id="f" width="24.562" height="22.17" x="46.57" y="33.142" color-interpolation-filters="sRGB" filterUnits="userSpaceOnUse"><feDropShadow dx="0" dy=".831" flood-color="#000" flood-opacity=".6" in="SourceGraphic" result="Shadow" stdDeviation="1.371"/></filter><filter id="h" width="24.562" height="22.17" x="31.813" y="30.589" color-interpolation-filters="sRGB" filterUnits="userSpaceOnUse"><feDropShadow dx="0" dy=".831" flood-color="#000" flood-opacity=".6" in="SourceGraphic" result="Shadow" stdDeviation="1.371"/></filter><filter id="j" width="18.659" height="22.17" x="76.084" y="40.8" color-interpolation-filters="sRGB" filterUnits="userSpaceOnUse"><feDropShadow dx="0" dy=".831" flood-color="#000" flood-opacity=".6" in="SourceGraphic" result="Shadow" stdDeviation="1.371"/></filter><filter id="l" width="21.344" height="19.387" x="29.494" y="32.792" color-interpolation-filters="sRGB" filterUnits="userSpaceOnUse"><feDropShadow dx="0" dy=".831" flood-color="#000" flood-opacity=".6" in="SourceGraphic" result="Shadow" stdDeviation="1.371"/></filter><filter id="n" width="24.562" height="22.17" x="18.299" y="25.358" color-interpolation-filters="sRGB" filterUnits="userSpaceOnUse"><feDropShadow dx="0" dy=".831" flood-color="#000" flood-opacity=".6" in="SourceGraphic" result="Shadow" stdDeviation="1.371"/></filter><filter id="p" width="24.562" height="24.723" x="5.25" y="30.589" color-interpolation-filters="sRGB" filterUnits="userSpaceOnUse"><feDropShadow dx="0" dy=".831" flood-color="#000" flood-opacity=".6" in="SourceGraphic" result="Shadow" stdDeviation="1.371"/></filter><filter id="r" width="22.474" height="20.121" x="45.554" y="40.365" color-interpolation-filters="sRGB" filterUnits="userSpaceOnUse"><feDropShadow dx="0" dy=".613" flood-color="#000" flood-opacity=".6" in="SourceGraphic" result="Shadow" stdDeviation="1.011"/></filter><filter id="t" width="18.119" height="16.355" x="36.846" y="42.248" color-interpolation-filters="sRGB" filterUnits="userSpaceOnUse"><feDropShadow dx="0" dy=".613" flood-color="#000" flood-opacity=".6" in="SourceGraphic" result="Shadow" stdDeviation="1.011"/></filter><filter id="v" width="18.119" height="16.355" x="25.959" y="40.365" color-interpolation-filters="sRGB" filterUnits="userSpaceOnUse"><feDropShadow dx="0" dy=".613" flood-color="#000" flood-opacity=".6" in="SourceGraphic" result="Shadow" stdDeviation="1.011"/></filter><filter id="x" width="13.765" height="16.355" x="58.618" y="47.897" color-interpolation-filters="sRGB" filterUnits="userSpaceOnUse"><feDropShadow dx="0" dy=".613" flood-color="#000" flood-opacity=".6" in="SourceGraphic" result="Shadow" stdDeviation="1.011"/></filter><filter id="z" width="15.745" height="14.302" x="24.249" y="41.99" color-interpolation-filters="sRGB" filterUnits="userSpaceOnUse"><feDropShadow dx="0" dy=".613" flood-color="#000" flood-opacity=".6" in="SourceGraphic" result="Shadow" stdDeviation="1.011"/></filter><filter id="B" width="18.119" height="16.355" x="15.99" y="36.505" color-interpolation-filters="sRGB" filterUnits="userSpaceOnUse"><feDropShadow dx="0" dy=".613" flood-color="#000" flood-opacity=".6" in="SourceGraphic" result="Shadow" stdDeviation="1.011"/></filter><filter id="D" width="18.119" height="18.238" x="6.364" y="40.365" color-interpolation-filters="sRGB" filterUnits="userSpaceOnUse"><feDropShadow dx="0" dy=".613" flood-color="#000" flood-opacity=".6" in="SourceGraphic" result="Shadow" stdDeviation="1.011"/></filter><filter id="F" width="22.474" height="20.121" x="67.17" y="43.246" color-interpolation-filters="sRGB" filterUnits="userSpaceOnUse"><feDropShadow dx="0" dy=".613" flood-color="#000" flood-opacity=".6" in="SourceGraphic" result="Shadow" stdDeviation="1.011"/></filter><filter id="H" width="18.119" height="16.355" x="58.461" y="45.129" color-interpolation-filters="sRGB" filterUnits="userSpaceOnUse"><feDropShadow dx="0" dy=".613" flood-color="#000" flood-opacity=".6" in="SourceGraphic" result="Shadow" stdDeviation="1.011"/></filter><filter id="J" width="18.119" height="16.355" x="47.575" y="43.246" color-interpolation-filters="sRGB" filterUnits="userSpaceOnUse"><feDropShadow dx="0" dy=".613" flood-color="#000" flood-opacity=".6" in="SourceGraphic" result="Shadow" stdDeviation="1.011"/></filter><filter id="L" width="13.765" height="16.355" x="80.234" y="50.779" color-interpolation-filters="sRGB" filterUnits="userSpaceOnUse"><feDropShadow dx="0" dy=".613" flood-color="#000" flood-opacity=".6" in="SourceGraphic" result="Shadow" stdDeviation="1.011"/></filter><filter id="N" width="15.745" height="14.302" x="45.437" y="47.082" color-interpolation-filters="sRGB" filterUnits="userSpaceOnUse"><feDropShadow dx="0" dy=".613" flood-color="#000" flood-opacity=".6" in="SourceGraphic" result="Shadow" stdDeviation="1.011"/></filter><filter id="P" width="34.319" height="38.124" x="62.555" y="31.426" color-interpolation-filters="sRGB" filterUnits="userSpaceOnUse"><feGaussianBlur in="SourceGraphic" result="Blur" stdDeviation="1.621"/></filter><filter id="S" width="58.959" height="48.239" x="40.806" y="37.275" color-interpolation-filters="sRGB" filterUnits="userSpaceOnUse"><feGaussianBlur in="SourceGraphic" result="Blur" stdDeviation="1.621"/></filter><filter id="T" width="104.437" height="106" x="-1.812" y="-4.083" color-interpolation-filters="sRGB" filterUnits="userSpaceOnUse"><feDropShadow dx=".399" dy=".917" flood-color="#000" flood-opacity=".5" in="SourceGraphic" result="Shadow" stdDeviation="2"/></filter><filter id="U" width="35.136" height="29.649" x="20.685" y="66.855" color-interpolation-filters="sRGB" filterUnits="userSpaceOnUse"><feGaussianBlur in="SourceGraphic" result="Blur" stdDeviation="1.621"/></filter></defs><path fill="url(#a)" d="M0 0h100v100H0V0Z"/><path fill="url(#b)" d="M8.677 5.105h82.639v76.583H8.677V5.105Z"/><path fill="url(#c)" d="M73.608 33.186c-6.52 0-11.806 4.571-11.806 10.21 0 5.64 5.286 10.212 11.806 10.212s11.805-4.572 11.805-10.211c0-5.64-5.285-10.211-11.805-10.211Z" filter="url(#d)"/><path fill="url(#e)" d="M58.85 35.738c-4.89 0-8.854 3.43-8.854 7.659 0 4.23 3.965 7.658 8.855 7.658 4.89 0 8.854-3.429 8.854-7.658 0-4.23-3.964-7.659-8.854-7.659Z" filter="url(#f)"/><path fill="url(#g)" d="M44.094 33.186c-4.89 0-8.854 3.428-8.854 7.658s3.964 7.658 8.854 7.658c4.89 0 8.854-3.428 8.854-7.658s-3.964-7.658-8.854-7.658Z" filter="url(#h)"/><path fill="url(#i)" d="M91.316 43.866a9.963 9.963 0 0 0-2.951-.47c-4.89 0-8.855 3.43-8.855 7.659 0 4.23 3.964 7.658 8.855 7.658a9.963 9.963 0 0 0 2.951-.47V43.866Z" filter="url(#j)"/><path fill="url(#k)" d="M40.166 35.389c-4.001 0-7.245 2.805-7.245 6.266s3.244 6.267 7.245 6.267c4.002 0 7.245-2.806 7.245-6.267 0-3.46-3.243-6.266-7.245-6.266Z" filter="url(#l)"/><path fill="url(#m)" d="M30.58 27.954c-4.89 0-8.854 3.43-8.854 7.659 0 4.23 3.964 7.658 8.854 7.658 4.89 0 8.854-3.429 8.854-7.658 0-4.23-3.964-7.659-8.854-7.659Z" filter="url(#n)"/><path fill="url(#o)" d="M16.055 33.186c-2.895 0-5.504 1.036-7.378 2.695v12.48c1.874 1.658 4.483 2.694 7.378 2.694 5.706 0 10.33-4 10.33-8.935 0-4.934-4.625-8.934-10.33-8.934Z" filter="url(#p)"/><path fill="#0d47a1" d="m49.996 58.713 7.379-5.105 33.941 22.974v5.642h-8.854l-32.466-23.51Z"/><path fill="url(#q)" d="M56.791 42.28c-4.81 0-8.709 3.372-8.709 7.532s3.9 7.533 8.71 7.533c4.81 0 8.708-3.373 8.708-7.533s-3.899-7.532-8.709-7.532Z" filter="url(#r)"/><path fill="url(#s)" d="M45.905 44.163c-3.607 0-6.532 2.53-6.532 5.65 0 3.12 2.925 5.649 6.532 5.649 3.608 0 6.532-2.53 6.532-5.65 0-3.12-2.924-5.649-6.532-5.649Z" filter="url(#t)"/><path fill="url(#u)" d="M35.02 42.28c-3.608 0-6.533 2.53-6.533 5.65 0 3.12 2.925 5.649 6.532 5.649s6.532-2.53 6.532-5.65c0-3.12-2.925-5.65-6.532-5.65Z" filter="url(#v)"/><path fill="url(#w)" d="M69.855 50.159a7.35 7.35 0 0 0-2.178-.347c-3.607 0-6.531 2.53-6.531 5.65 0 3.12 2.924 5.65 6.531 5.65a7.35 7.35 0 0 0 2.178-.347V50.159Z" filter="url(#x)"/><path fill="url(#y)" d="M32.122 43.905c-2.952 0-5.345 2.07-5.345 4.623 0 2.553 2.393 4.623 5.345 4.623s5.345-2.07 5.345-4.623c0-2.553-2.393-4.623-5.345-4.623Z" filter="url(#z)"/><path fill="url(#A)" d="M25.05 38.42c-3.608 0-6.532 2.53-6.532 5.65 0 3.12 2.924 5.65 6.532 5.65 3.607 0 6.531-2.53 6.531-5.65 0-3.12-2.924-5.65-6.531-5.65Z" filter="url(#B)"/><path fill="url(#C)" d="M14.335 42.28c-2.135 0-4.06.764-5.443 1.989v9.206c1.383 1.222 3.308 1.987 5.443 1.987 4.209 0 7.62-2.951 7.62-6.591s-3.411-6.591-7.62-6.591Z" filter="url(#D)"/><path fill="url(#E)" d="M78.407 45.161c-4.81 0-8.709 3.373-8.709 7.533s3.9 7.532 8.71 7.532c4.809 0 8.708-3.372 8.708-7.532s-3.9-7.533-8.709-7.533Z" filter="url(#F)"/><path fill="url(#G)" d="M67.52 47.044c-3.606 0-6.53 2.53-6.53 5.65 0 3.12 2.924 5.65 6.53 5.65 3.608 0 6.533-2.53 6.533-5.65 0-3.12-2.925-5.65-6.532-5.65Z" filter="url(#H)"/><path fill="url(#I)" d="M56.635 45.161c-3.607 0-6.532 2.53-6.532 5.65 0 3.12 2.925 5.65 6.532 5.65s6.532-2.53 6.532-5.65c0-3.12-2.925-5.65-6.532-5.65Z" filter="url(#J)"/><path fill="url(#K)" d="M91.47 53.04a7.35 7.35 0 0 0-2.177-.346c-3.607 0-6.532 2.529-6.532 5.65 0 3.12 2.925 5.649 6.532 5.649a7.35 7.35 0 0 0 2.177-.347V53.04Z" filter="url(#L)"/><path fill="url(#M)" d="M53.31 48.997c-2.952 0-5.345 2.07-5.345 4.623 0 2.553 2.393 4.623 5.345 4.623 2.951 0 5.344-2.07 5.344-4.623 0-2.553-2.393-4.623-5.344-4.623Z" filter="url(#N)"/><path fill="#0d47a1" d="M8.673 48.502v20.422l13.281-10.21L8.673 48.501Zm50.225 15.393-11.717 10.97-2.472 5.9h10.62l11.26-10.51-7.69-6.36Z"/><path fill="#1565c0" d="m66.557 59.893 8.686 5.856 16.073 10.837v5.719H47.142c.073-.081 1.289-2.083.625-5.123l18.79-17.29Z"/><path fill="url(#O)" d="M92.822 49.118v-13.64L66.606 59.792l8.325 5.707 17.891-16.381Z" filter="url(#P)" opacity=".5"/><path fill="url(#Q)" d="M8.677 82.305V48.502l13.932 10.71 12.63-10.71 14.384 9.779 6.208-6.116 35.572 23.891-.087 6.249H8.677Z"/><path fill="#0d47a1" d="m66.381 59.704 24.935 16.878v5.642h-8.854l-22.62-16.377 6.54-6.143Z"/><path fill="url(#R)" d="m55.795 52.092 35.71 23.956-.192 6.257h-8.716L49.256 58.439l6.539-6.347Z"/><path fill="#ffccfb" d="M2.774 0H97.22v94.579H2.774V0Z" opacity=".1"/><path fill="#110e3f" fill-opacity=".5" d="m44.858 72.771 1.886-1.257 44.834-29.72a2.628 2.628 0 0 1 3.665.68 2.657 2.657 0 0 1-.659 3.684L49.691 81.463s.447-3.26-.762-5.433c-1.208-2.173-4.072-3.259-4.072-3.259Z" filter="url(#S)" opacity=".722"/><path fill="#e1e7ea" d="M2.789 0v96h94.437V0H2.789Zm5.898 4.883h82.64v72.43H8.688V4.882Z" filter="url(#T)"/><path fill="#110e3f" fill-opacity=".5" d="M47.673 89.06c-4.364 3.187-22.937 3.393-22.937 3.393S32.16 75.927 36.524 72.74c4.364-3.187 10.398-2.114 13.477 2.392 3.077 4.505 2.037 10.74-2.328 13.928Z" filter="url(#U)" opacity=".722"/><path fill="url(#V)" d="m27.05 65.607 18.59-55.03a2.728 2.728 0 0 1 3.332-1.826 2.591 2.591 0 0 1 1.775 3.267l-13.886 56.29-9.811-2.7Z"/><path fill="url(#W)" d="M40.266 75.204c-1.477 5.258-16.089 17.323-16.089 17.323s-4.411-17.514-2.935-22.772c1.477-5.258 6.933-8.298 12.187-6.794 5.251 1.505 8.313 6.985 6.837 12.243Z"/></svg>