<svg xmlns="http://www.w3.org/2000/svg" xml:space="preserve" stroke-linecap="round" stroke-linejoin="round" stroke-miterlimit="10" clip-rule="evenodd" width="100%" height="100%" viewBox="3.022 3.107 93.957 93.953"><defs><filter id="b" width="93.957" height="93.953" x="3.022" y="3.107" color-interpolation-filters="sRGB" filterUnits="userSpaceOnUse"><feDropShadow dx="0" dy=".084" flood-color="#000" flood-opacity=".55" in="SourceGraphic" result="Shadow" stdDeviation="1.057"/></filter></defs><clipPath id="a"><path d="M3.022 3.107h93.957V97.06H3.022z"/></clipPath><g clip-path="url(#a)" filter="url(#b)"><path fill="#07eff8" d="M71.111 22.555h4.223a2.11 2.11 0 1 1 0 4.219H71.11a2.11 2.11 0 0 1 0-4.22Z"/><path fill="#f0f" d="M7.774 90.114h21.111a2.11 2.11 0 1 1 0 4.22H7.775a2.11 2.11 0 1 1 0-4.22Z"/><path fill="#7600ff" d="M58.446 56.334h12.669a2.11 2.11 0 1 1 0 4.22h-12.67a2.11 2.11 0 1 1 0-4.22Z"/><path fill="#f0f" d="M33.112 56.334H50a2.11 2.11 0 1 1 0 4.22H33.112a2.11 2.11 0 1 1 0-4.22Z"/><path fill="#07eff8" d="M7.774 56.334h16.892a2.11 2.11 0 1 1 0 4.22H7.774a2.11 2.11 0 1 1 0-4.22Z"/><path fill="#7600ff" d="M7.774 73.226h21.111a2.11 2.11 0 0 1 0 4.22H7.775a2.11 2.11 0 1 1 0-4.22Zm0-33.78h21.111a2.11 2.11 0 1 1 0 4.22H7.775a2.11 2.11 0 1 1 0-4.22Z"/><path fill="#f7ba3e" d="M28.889 14.112h42.222a2.11 2.11 0 0 1 0 4.22H28.889a2.11 2.11 0 1 1 0-4.22Z"/><path fill="#f0f" d="M7.774 14.112h12.67a2.11 2.11 0 0 1 2.109 2.11 2.11 2.11 0 0 1-2.11 2.113H7.774a2.11 2.11 0 0 1-2.11-2.113 2.11 2.11 0 0 1 2.11-2.11Z"/><path fill="#f7ba3e" d="M24.666 81.668h4.223a2.11 2.11 0 1 1 0 4.22h-4.223a2.11 2.11 0 0 1 0-4.22Z"/><path fill="#07eff8" d="M24.666 31h4.223a2.11 2.11 0 1 1 0 4.22h-4.223a2.11 2.11 0 1 1 0-4.22ZM7.774 81.668h8.446a2.11 2.11 0 1 1 0 4.22H7.774a2.11 2.11 0 0 1 0-4.22Z"/><path fill="#f7ba3e" d="M7.774 31h8.446a2.11 2.11 0 0 1 2.11 2.11 2.11 2.11 0 0 1-2.11 2.113H7.774a2.11 2.11 0 0 1-2.11-2.11A2.11 2.11 0 0 1 7.775 31Z"/><path fill="#efefef" d="M62.669 81.668h4.223a2.11 2.11 0 1 1 0 4.22h-4.223a2.11 2.11 0 0 1 0-4.22Zm-25.338 0H54.22a2.11 2.11 0 1 1 0 4.22H37.331a2.11 2.11 0 0 1 0-4.22Zm38.003 0h16.888a2.11 2.11 0 1 1 0 4.22H75.334a2.11 2.11 0 0 1 0-4.22Z" opacity=".5"/><path fill="#07eff8" d="M41.554 47.892h33.78a2.11 2.11 0 1 1 0 4.22h-33.78a2.11 2.11 0 0 1 0-4.22Z"/><path fill="#f7ba3e" d="M20.443 47.892h12.669a2.11 2.11 0 1 1 0 4.22H20.443a2.11 2.11 0 0 1 0-4.22Z"/><path fill="#f0f" d="M7.774 47.892h4.223a2.11 2.11 0 1 1 .004 4.22H7.774a2.11 2.11 0 0 1 0-4.22Z"/><path fill="#7600ff" d="M45.777 22.555h16.888a2.11 2.11 0 0 1 2.113 2.113 2.11 2.11 0 0 1-2.11 2.11h-16.89a2.11 2.11 0 0 1-1.494-3.604 2.11 2.11 0 0 1 1.493-.62Z"/><path fill="#07eff8" d="M7.774 22.555h29.557a2.11 2.11 0 1 1 0 4.219H7.774a2.11 2.11 0 0 1 0-4.22Z"/><path fill="#f7ba3e" d="M20.443 64.78h38.003a2.11 2.11 0 1 1 0 4.22H20.443a2.11 2.11 0 1 1 0-4.22Z"/><path fill="#7600ff" d="M7.774 64.78h4.223a2.11 2.11 0 1 1 0 4.22H7.774a2.11 2.11 0 1 1 0-4.22Z"/><path fill="#f0f" d="M58.446 31h21.11a2.11 2.11 0 0 1 2.11 2.11 2.11 2.11 0 0 1-2.11 2.113h-21.11a2.11 2.11 0 0 1-2.11-2.11A2.11 2.11 0 0 1 58.446 31Z"/><path fill="#f7ba3e" d="M58.446 39.446h21.11a2.11 2.11 0 1 1 0 4.22h-21.11a2.11 2.11 0 1 1 0-4.22Z"/><path fill="#07eff8" d="M7.774 5.667h50.672a2.11 2.11 0 0 1 0 4.219H7.774a2.11 2.11 0 0 1 0-4.22Z"/><path fill="#efefef" d="M66.888 5.667h25.334a2.11 2.11 0 1 1 .004 4.219H66.888a2.11 2.11 0 0 1 0-4.22Zm0 59.113h8.446a2.11 2.11 0 1 1 0 4.22h-8.446a2.11 2.11 0 1 1 0-4.22Zm16.892 0h8.446a2.11 2.11 0 1 1 0 4.22H83.78a2.11 2.11 0 1 1 0-4.22Zm-4.223-8.446h12.669a2.11 2.11 0 1 1 0 4.22h-12.67a2.11 2.11 0 1 1 0-4.22Zm0-42.222h12.669a2.11 2.11 0 0 1 0 4.22h-12.67a2.11 2.11 0 1 1 0-4.22Zm4.223 33.78h8.446a2.11 2.11 0 1 1 0 4.22H83.78a2.11 2.11 0 1 1 0-4.22Zm0-25.337h8.446a2.11 2.11 0 0 1 2.11 2.113 2.11 2.11 0 0 1-2.11 2.11H83.78a2.11 2.11 0 0 1-2.11-2.11 2.11 2.11 0 0 1 2.11-2.113ZM88.003 31h4.223a2.11 2.11 0 1 1 0 4.22h-4.223a2.11 2.11 0 1 1 0-4.22Zm0 8.446h4.223a2.11 2.11 0 1 1 0 4.22h-4.223a2.11 2.11 0 1 1 0-4.22Zm-33.78 33.78h38.003a2.11 2.11 0 0 1 0 4.22H54.223a2.11 2.11 0 1 1 0-4.22Zm-16.892 0h8.446a2.11 2.11 0 0 1 0 4.22h-8.446a2.11 2.11 0 1 1 0-4.22Zm33.78 16.888h21.111a2.11 2.11 0 1 1 0 4.22H71.111a2.11 2.11 0 1 1 0-4.22Zm-33.78 0h25.334a2.11 2.11 0 1 1 0 4.22H37.331a2.11 2.11 0 1 1 0-4.22Zm0-59.114H50a2.11 2.11 0 0 1 2.11 2.11A2.11 2.11 0 0 1 50 35.223H37.331a2.11 2.11 0 0 1-2.11-2.11A2.11 2.11 0 0 1 37.332 31Zm0 8.446H50a2.11 2.11 0 1 1 0 4.22H37.331a2.11 2.11 0 1 1 0-4.22Z" opacity=".5"/></g></svg>