<svg width="100%" height="100%" viewBox="0 0 100 100" version="1.1" xml:space="preserve" xmlns="http://www.w3.org/2000/svg" xmlns:xlink="http://www.w3.org/1999/xlink">
 <defs>
<filter color-interpolation-filters="sRGB" filterUnits="userSpaceOnUse" height="104" id="F_AdG" width="101.588" x="-0.794042" y="-2"><feGaussianBlur in="SourceGraphic" result="Blur" stdDeviation="1"/></filter>
 <filter color-interpolation-filters="sRGB" filterUnits="userSpaceOnUse" height="98.5119" id="F_AdG2" width="95.9833" x="2.00837" y="0.435774"><feGaussianBlur in="SourceGraphic" result="Blur" stdDeviation="0.75"/></filter>
 <filter color-interpolation-filters="sRGB" filterUnits="userSpaceOnUse" height="89.566" id="F_AdG3" width="87.2427" x="6.37865" y="4.68239"><feGaussianBlur in="SourceGraphic" result="Blur" stdDeviation="0.5"/></filter>
 <filter color-interpolation-filters="sRGB" filterUnits="userSpaceOnUse" height="37.541" id="F_AdG4" width="46.9372" x="28.4768" y="28.5148"><feGaussianBlur in="SourceGraphic" result="Blur" stdDeviation="0.5"/></filter>
 </defs>
 <g id="AdGuard">
 <g id="Shield+Back">
 <g id="Back">
   <path id="Sh" fill="#030303" fill-opacity="0.6" fill-rule="evenodd" filter="url(#F_AdG)" blur="2" d="M49.9989 0.5C34.904 0.5 16.6958 4.04971 1.70597 11.8628C1.70597 28.7372 1.49905 70.7761 49.9989 99.5C98.4998 70.7761 98.294 28.7372 98.294 11.8628C83.3031 4.04971 65.0949 0.5 49.9989 0.5L49.9989 0.5Z"/>
   <path id="Back" fill="#00a873" fill-rule="evenodd" d="M50 0.958288C35.0296 0.958288 17.1146 4.67765 2.24844 12.4263C2.24844 29.1614 1.90025 70.5548 50 99.0417C98.1007 70.5548 97.7516 29.1614 97.7516 12.4263C82.8844 4.67765 64.9704 0.908396 49.999 0.908396L50 0.958288Z"/>
 </g>
 <g id="Shield+Trim">
 <g id="WTrim">
   <path id="Sh" fill="#030303" fill-opacity="0.45" fill-rule="evenodd" filter="url(#F_AdG2)" blur="1.5" d="M49.9528 2.31077C64.3671 2.31077 81.8027 6.19563 96.1166 13.6345C96.1166 29.7002 96.3142 69.7251 50.001 97.0727C3.68683 69.7251 3.88337 29.7002 3.88337 13.6345C18.1985 6.19563 35.5375 2.31077 49.9528 2.31077L49.9528 2.31077Z"/>
   <path id="WhiteTrim" fill="#fff" fill-rule="evenodd" d="M49.999 3.17422C35.851 3.17422 18.785 6.50125 4.73549 13.8243C4.73549 29.6401 4.54155 69.0419 49.999 95.9639C95.4574 69.0419 95.2645 29.6401 95.2645 13.8243C81.214 6.50125 64.148 3.17422 49.999 3.17422L49.999 3.17422Z"/>
 </g>
 <g id="Shield+Check">
 <g id="Main">
   <path id="Sh" fill="#030303" fill-opacity="0.6" fill-rule="evenodd" filter="url(#F_AdG3)" blur="1" d="M49.9566 5.93239C63.2003 5.93239 79.2199 9.50175 92.3714 16.3364C92.3714 31.0975 92.5529 67.8718 50.0009 92.9984C7.44808 67.8718 7.62866 31.0975 7.62866 16.3364C20.7812 9.50175 36.712 5.93239 49.9566 5.93239L49.9566 5.93239Z"/>
	<path id="Back" fill="#009980" fill-rule="evenodd" d="M49.9991 6.98902C37.0144 6.98902 21.3516 10.0425 8.45735 16.7634C8.45735 31.2786 8.27936 67.4407 49.9991 92.149C91.7197 67.4407 91.5427 31.2786 91.5427 16.7634C78.6474 10.0425 62.9847 6.98902 49.9991 6.98902L49.9991 6.98902Z"/>
 <g id="Right">
   <path id="8" fill="#00a698" fill-rule="evenodd" d="M80.2928 63.2834C91.6171 44.6914 91.5427 26.1761 91.5427 16.7634C87.9493 14.8906 84.1411 13.3025 80.2358 11.986L80.2928 63.2834Z"/>
   <path id="7" fill="#00a290" fill-rule="evenodd" d="M70.4637 76.0846C74.4445 71.8879 77.6736 67.5836 80.2928 63.2834L80.2358 11.986C77.0229 10.9028 73.7443 10.0035 70.4655 9.28043L70.4637 76.0846Z"/>
   <path id="6" fill="#009980" fill-rule="evenodd" d="M49.9991 6.98902L49.9991 92.149C54.3155 89.5927 58.1834 86.9138 61.6495 84.149L61.5796 7.74113C57.5867 7.23504 53.6851 6.98902 49.9991 6.98902L49.9991 6.98902Z"/>
   <path id="5" fill="#009d88" fill-rule="evenodd" d="M61.6495 84.149C64.9355 81.5277 67.8604 78.8292 70.4637 76.0846L70.4655 9.28043C67.4873 8.62367 64.5089 8.11241 61.5796 7.74113L61.6495 84.149Z"/>
 </g>
<path id="Lback" fill="#007b69" fill-rule="evenodd" d="M49.9566 92.124C8.27948 67.4161 8.45735 31.2738 8.45735 16.7634C21.3376 10.0498 36.9803 6.99568 49.9566 6.98903L50.0105 50.3191L50 61.496C50 82.077 49.9566 92.124 49.9566 92.124Z"/>
  <g id="Left">
    <path id="1" fill="#00a873" fill-rule="evenodd" d="M19.7099 63.2834C8.38556 44.6914 8.46001 26.1761 8.46001 16.7634C12.0534 14.8906 15.8616 13.3025 19.7669 11.986L19.7099 63.2834Z"/>
	<path id="2" fill="#009970" fill-rule="evenodd" d="M29.539 76.0846C25.5582 71.8879 22.3291 67.5836 19.7099 63.2834L19.7669 11.986C22.9798 10.9028 26.2584 10.0035 29.5372 9.28043L29.539 76.0846Z"/>
	<path id="3" fill="#007b69" fill-rule="evenodd" d="M50.0036 6.98902L50.0036 92.149C45.6872 89.5927 41.8193 86.9138 38.3532 84.149L38.4231 7.74113C42.4159 7.23504 46.3176 6.98902 50.0036 6.98902L50.0036 6.98902Z"/>
	<path id="4" fill="#008a6c" fill-rule="evenodd" d="M38.3532 84.149C35.0672 81.5277 32.1423 78.8292 29.539 76.0846L29.5372 9.28043C32.5154 8.62367 35.4938 8.11241 38.4231 7.74113L38.3532 84.149Z"/>
  </g>
 </g>
 <g id="Check">
   <path id="sh" fill="#2d2d2d" fill-opacity="0.5" fill-rule="nonzero" filter="url(#F_AdG4)" blur="1" d="M70.5844 30.0088C69.7658 30.2047 69.0772 30.7274 68.5887 31.1742L50.0895 50.8085L48.1989 52.7862L40.0891 43.0448C35.9513 38.2225 31.0408 41.9395 29.7268 42.9115L48.4994 64.8058L74.164 30.2822C73.1524 29.4643 71.403 29.8129 70.5844 30.0088Z"/>
   <path id="right" fill="#fff" fill-rule="evenodd" d="M50 61.9347L73.6048 29.953C71.764 28.4776 70.1493 29.519 69.2604 30.3252L69.228 30.3277L50.0105 50.3191L50 61.9347Z"/>
   <path id="left" fill="#f2f2f2" fill-rule="evenodd" d="M48.4838 63.8105L50 61.9347L50.0105 50.3191L48.2822 52.117L40.3904 42.62C36.6255 38.2702 31.5071 41.588 30.3115 42.4649L48.4838 63.8105"/>
 </g>
 </g>
 </g>
 </g>
 </g>
</svg>