<svg width="100%" height="100%" viewBox="0 0 100 100" version="1.1" xml:space="preserve" xmlns="http://www.w3.org/2000/svg" xmlns:xlink="http://www.w3.org/1999/xlink"><defs><linearGradient gradientTransform="matrix(23.1419 -143.395 143.395 23.1419 50.6053 106.64)" gradientUnits="userSpaceOnUse" id="LG_AGr" x1="0" x2="1" y1="0" y2="0"><stop offset="0" stop-color="#00a873"/><stop offset="1" stop-color="#00b095"/></linearGradient><filter color-interpolation-filters="sRGB" filterUnits="userSpaceOnUse" height="104.566" id="F_AGr" width="101.962" x="-1.04074" y="-1.17417"><feDropShadow dx="-0.0599489" dy="1.10882" flood-color="#000" flood-opacity="0.33" in="SourceGraphic" result="Shadow" stdDeviation="1.1132"/></filter><filter color-interpolation-filters="sRGB" filterUnits="userSpaceOnUse" height="98.9612" id="F_AG2" width="96.6795" x="1.60313" y="1.14114"><feDropShadow dx="-0.0571317" dy="1.05672" flood-color="#000" flood-opacity="0.33" in="SourceGraphic" result="Shadow" stdDeviation="1.06089"/></filter><linearGradient gradientTransform="matrix(48.6185 0.041903 -0.041903 48.6185 43.3124 49.5231)" gradientUnits="userSpaceOnUse" id="LG_AG2" x1="0" x2="1" y1="0" y2="0"><stop offset="0" stop-color="#01a87b"/><stop offset="1" stop-color="#00a698"/></linearGradient><filter color-interpolation-filters="sRGB" filterUnits="userSpaceOnUse" height="94.2899" id="F_AG3" width="92.1958" x="4.82552" y="3.03679"><feDropShadow dx="0.923429" dy="0.616736" flood-color="#000" flood-opacity="0.45" in="SourceGraphic" result="Shadow" stdDeviation="1.66681"/></filter><linearGradient gradientTransform="matrix(41.9415 0 0 41.9415 8.06913 49.5523)" gradientUnits="userSpaceOnUse" id="LG_AG3" x1="0" x2="1" y1="0" y2="0"><stop offset="0" stop-color="#00a873"/><stop offset="1" stop-color="#007b69"/></linearGradient><filter color-interpolation-filters="sRGB" filterUnits="userSpaceOnUse" height="94.2645" id="F_AG4" width="50.2756" x="2.92148" y="2.94109"><feDropShadow dx="-0.980621" dy="0.521024" flood-color="#000" flood-opacity="0.45" in="SourceGraphic" result="Shadow" stdDeviation="1.66681"/></filter><filter color-interpolation-filters="sRGB" filterUnits="userSpaceOnUse" height="43.2585" id="F_AG5" width="52.032" x="25.9604" y="25.9586"><feDropShadow dx="-4.07889e-06" dy="1.11044" flood-color="#000" flood-opacity="0.45" in="SourceGraphic" result="Shadow" stdDeviation="1.66681"/></filter></defs><g id="AdGuard-1"><g opacity="1" id="AdGuard"><path id="AG1" shadowAngle="1.62481" shadowColor="#000" shadowOffset="1.11044" shadowOpacity="0.33" shadowRadius="2.2264" fill="url(#LG_AGr)" fill-rule="nonzero" filter="url(#F_AGr)" stroke="none" d="M50 0.5C34.0121 0.5 16.4316 4.4663 2.57389 11.6893L1.80221 12.0752C1.80221 12.0752 1.80221 13.0637 1.80221 13.1684C1.80173 22.5823 2.10355 28.3427 3.44203 35.9329C5.34655 46.7331 9.00862 56.9921 14.9851 66.6393C22.6975 79.0888 33.9515 89.9832 49.2605 99.0499L50 99.5L50.7395 99.0499C66.0488 89.9832 77.3022 79.0887 85.0149 66.6393C90.9918 56.9918 94.6533 46.7335 96.558 35.9329C97.8966 28.3425 98.1983 22.5822 98.1978 13.1684C98.1978 13.0642 98.1978 12.0752 98.1978 12.0752L97.4261 11.6893C83.5673 4.46622 65.9887 0.499999 50 0.5ZM50 3.4581C65.2318 3.4581 81.9409 7.17025 95.2397 13.9079C95.2213 22.6582 94.925 28.2691 93.6642 35.4185C91.8212 45.8689 88.2764 55.7513 82.507 65.0638C75.1772 76.8951 64.5043 87.3266 50 96.0596C35.496 87.3267 24.8225 76.8951 17.493 65.0638C11.7241 55.7516 8.17862 45.8686 6.33582 35.4185C5.07346 28.2598 4.7779 22.6784 4.76031 13.9079C18.0579 7.17035 34.769 3.4581 50 3.4581Z"/><g opacity="1" id="g"><g opacity="1" id="g"><g opacity="1" id="g"><path id="AG1" shadowAngle="1.62481" shadowColor="#000" shadowOffset="1.05826" shadowOpacity="0.33" shadowRadius="2.12177" fill="#fff" fill-rule="evenodd" filter="url(#F_AG2)" stroke="none" d="M49.999 2.73664C35.7188 2.73664 18.4933 6.09476 4.3125 13.4862C4.3125 29.4498 4.11675 69.2198 49.999 96.3934C95.8822 69.2198 95.6875 29.4498 95.6875 13.4862C81.5057 6.09476 64.2802 2.73664 49.999 2.73664L49.999 2.73664Z"/></g><path id="AGr" fill="#fff" fill-rule="evenodd" opacity="0" stroke="none" d="M48.421 64.3963L74.5822 29.1368C72.6652 27.6002 70.9837 28.6847 70.058 29.5243L70.0242 29.527L48.2111 52.2185L39.9924 42.3281C36.0716 37.7983 30.7414 41.2535 29.4962 42.1667L48.421 64.3963"/><g opacity="1" id="AGd1"><path id="AGr" shadowAngle="0.588839" shadowColor="#000" shadowOffset="1.11044" shadowOpacity="0.45" shadowRadius="3.33363" fill="url(#LG_AG2)" fill-rule="evenodd" filter="url(#F_AG3)" stroke="none" d="M49.9991 6.58709C36.8931 6.58709 21.0839 9.66909 8.06914 16.4528C8.06914 31.1037 7.88949 67.6037 49.9991 92.5429C92.1096 67.6037 91.9309 31.1037 91.9309 16.4528C78.9151 9.66909 63.106 6.58709 49.9991 6.58709L49.9991 6.58709Z"/><path id="AGr" shadowAngle="2.6532" shadowColor="#000" shadowOffset="1.11044" shadowOpacity="0.45" shadowRadius="3.33363" fill="url(#LG_AG3)" fill-rule="evenodd" filter="url(#F_AG4)" stroke="none" d="M49.9562 92.5176C7.88961 67.5789 8.06914 31.0988 8.06914 16.4528C21.0698 9.67648 36.8586 6.59381 49.9562 6.5871L50.0106 50.3221L50 61.6034C50 82.3768 49.9562 92.5176 49.9562 92.5176Z"/><path id="AG1" fill="#f2f2f2" fill-rule="nonzero" opacity="1" stroke="none" d="M71.2855 29.0843C70.5337 29.2626 69.9013 29.7385 69.4527 30.1453L69.4206 30.1453L50 50.3376L48.2637 52.1382L40.2897 42.5565C36.4896 38.1661 31.3361 41.5107 30.1293 42.3957L48.4566 63.9385L50 61.5913L73.8256 29.7595C72.8966 29.0149 72.0373 28.9059 71.2855 29.0843Z"/><g filter="url(#F_AG5)" id="AGd1" shadowAngle="1.5708" shadowColor="#000" shadowOffset="1.11044" shadowOpacity="0.45" shadowRadius="3.33363"><path id="AG1" fill="#fff" fill-rule="evenodd" opacity="1" stroke="none" d="M50 61.6034L73.8254 29.7657C71.9674 28.2765 70.3376 29.3276 69.4404 30.1413L69.4077 30.1439L50.0106 50.3221L50 61.6034Z"/><path id="AG2" fill="#f2f2f2" fill-rule="evenodd" opacity="1" stroke="none" d="M48.4696 63.9396L50 61.6034L50.0106 50.3221L48.2661 52.1368L40.3006 42.551C36.5005 38.1606 31.3343 41.5094 30.1275 42.3945L48.4696 63.9396"/></g></g></g></g></g></g></svg>