<svg xmlns="http://www.w3.org/2000/svg" xml:space="preserve" viewBox="0 0 1310.4 1310.4"><defs><filter id="b" width="864.904" height="855.803" x="222.748" y="294.987" color-interpolation-filters="sRGB" filterUnits="userSpaceOnUse"><feDropShadow dx="0" dy="3.473" flood-color="#000" flood-opacity=".45" in="SourceGraphic" result="Shadow" stdDeviation="7.389"/></filter><filter id="c" width="942.345" height="1319.71" x="184.028" y="-1.647" color-interpolation-filters="sRGB" filterUnits="userSpaceOnUse"><feDropShadow dx="0" dy="3.007" flood-color="#000" flood-opacity=".333" in="SourceGraphic" result="Shadow" stdDeviation="7.943"/></filter><linearGradient id="a" x1="0" x2="1" y1="0" y2="0" gradientTransform="matrix(-269.273 -775.156 839.897 -269.273 803.121 1032.93)" gradientUnits="userSpaceOnUse"><stop offset=".376" stop-color="#73feec"/><stop offset="1" stop-color="#73fe73"/></linearGradient></defs><path fill="url(#a)" d="M253.221 719.415c0-219.493 179.972-397.428 401.979-397.428s401.98 177.935 401.98 397.428c0 219.494-179.973 397.425-401.98 397.425S253.221 938.909 253.221 719.415"/><g fill="none" stroke="#000" stroke-linejoin="round" stroke-width="24" filter="url(#b)"><path d="M253.221 719.415c0-219.493 179.972-397.428 401.979-397.428s401.98 177.935 401.98 397.428c0 219.494-179.973 397.425-401.98 397.425S253.221 938.909 253.221 719.415Z"/><path d="M483.257 719.415c0-219.493 133.79-397.428 168.109-397.428s168.109 177.935 168.109 397.428c0 219.494-136.12 397.425-168.109 397.425S483.257 938.909 483.257 719.415Z"/><path d="M359.246 458.755s148.502 85.551 295.954 85.223 293.853-86.539 293.853-86.539"/><path d="M359.246 458.755s131.679 85.222 295.954 85.223c164.275 0 293.853-86.539 293.853-86.539M946.269 974.231s-126.794-74.482-294.903-80.947-294.903 80.946-294.903 80.946M253.221 729.425l803.959-.001"/></g><g fill="none" stroke-linejoin="round" stroke-width="23.004"><path stroke="#333" d="M160.263 125.103c0-17.742 14.383-32.124 32.124-32.124h925.623c17.74 0 32.13 14.382 32.13 32.124V259.59c0 17.742-14.39 32.124-32.13 32.124H192.387c-17.741 0-32.124-14.382-32.124-32.124z"/><g stroke="#000" opacity=".7"><path d="m296.8 92.979-.003 198.735"/><path d="M1018.36 92.979v198.735" opacity=".84"/><path d="m214.194 159.301 882.016-.004"/></g><path stroke="#333" d="M160.263 125.103c0-17.742 14.383-32.124 32.124-32.124h925.623c17.74 0 32.13 14.382 32.13 32.124V259.59c0 17.742-14.39 32.124-32.13 32.124H192.387c-17.741 0-32.124-14.382-32.124-32.124z"/></g><g fill="none" stroke="#000" stroke-linejoin="round"><path stroke-linecap="round" stroke-width="23.004" d="M290.542 1220.5s133.286-65.76 363.789-67.39c230.502-1.64 365.529 67.39 365.529 67.39" opacity=".743"/><path stroke-width="24" d="m1094.51 345.001.01 913.839c0 13.45-10.91 24.36-24.37 24.36H240.246c-13.454 0-24.361-10.91-24.361-24.36l.001-912.929s61.34-11.621 60.682-61.998-60.683-53.747-60.683-53.747V51.564c0-13.454 10.907-24.361 24.361-24.361h829.904c13.46 0 24.37 10.907 24.37 24.36v172.173s-64.67 2.064-67.05 60.18 67.04 61.085 67.04 61.085Z" filter="url(#c)"/></g></svg>