<svg xmlns="http://www.w3.org/2000/svg" xmlns:svg="http://www.w3.org/2000/svg" xmlns:vectornator="http://vectornator.io" xmlns:xlink="http://www.w3.org/1999/xlink" id="svg6" width="100%" height="100%" stroke-miterlimit="10" version="1.1" viewBox="0 11.905 100 76.191" xml:space="preserve" style="fill-rule:nonzero;clip-rule:evenodd;stroke-linecap:round;stroke-linejoin:round"><defs id="defs1"><linearGradient id="linearGradient487"><stop style="stop-color:#ffac3d;stop-opacity:1" id="stop488" offset=".513"/><stop style="stop-color:#d27700;stop-opacity:1" id="stop489" offset=".563"/></linearGradient><linearGradient id="linearGradient480"><stop style="stop-color:#e3f2fd;stop-opacity:1" id="stop480" offset=".733"/><stop style="stop-color:#bbdefb;stop-opacity:1" id="stop481" offset=".855"/></linearGradient><linearGradient id="linearGradient481" x1="52.05" x2="52.05" y1="38.521" y2="40.804" gradientUnits="userSpaceOnUse" xlink:href="#linearGradient480"/><linearGradient id="linearGradient489" x1="52.424" x2="52.372" y1="32.411" y2="47.605" gradientUnits="userSpaceOnUse" xlink:href="#linearGradient487"/><filter style="color-interpolation-filters:sRGB" id="filter521" width="1.118" height="1.118" x="-.059" y="-.049"><feFlood id="feFlood520" flood-color="#000" flood-opacity=".302" in="SourceGraphic" result="flood"/><feGaussianBlur id="feGaussianBlur520" in="SourceGraphic" result="blur" stdDeviation="1.4"/><feOffset id="feOffset520" dx="0" dy="1.4" in="blur" result="offset"/><feComposite id="feComposite520" in="flood" in2="offset" operator="in" result="comp1"/><feComposite id="feComposite521" in="SourceGraphic" in2="comp1" operator="over" result="comp2"/></filter><filter style="color-interpolation-filters:sRGB" id="filter607" width="1.024" height="1.038" x="-.012" y="-.016"><feFlood id="feFlood606" flood-color="#000" flood-opacity=".302" in="SourceGraphic" result="flood"/><feGaussianBlur id="feGaussianBlur606" in="SourceGraphic" result="blur" stdDeviation=".5"/><feOffset id="feOffset606" dx="0" dy=".5" in="blur" result="offset"/><feComposite id="feComposite606" in="flood" in2="offset" operator="in" result="comp1"/><feComposite id="feComposite607" in="SourceGraphic" in2="comp1" operator="over" result="comp2"/></filter><filter style="color-interpolation-filters:sRGB" id="filter609" width="1.024" height="1.061" x="-.012" y="-.025"><feFlood id="feFlood607" flood-color="#000" flood-opacity=".302" in="SourceGraphic" result="flood"/><feGaussianBlur id="feGaussianBlur607" in="SourceGraphic" result="blur" stdDeviation=".5"/><feOffset id="feOffset607" dx="0" dy=".5" in="blur" result="offset"/><feComposite id="feComposite608" in="flood" in2="offset" operator="in" result="comp1"/><feComposite id="feComposite609" in="SourceGraphic" in2="comp1" operator="over" result="comp2"/></filter><filter style="color-interpolation-filters:sRGB" id="filter611" width="1.046" height="1.051" x="-.023" y="-.021"><feFlood id="feFlood609" flood-color="#000" flood-opacity=".302" in="SourceGraphic" result="flood"/><feGaussianBlur id="feGaussianBlur609" in="SourceGraphic" result="blur" stdDeviation=".5"/><feOffset id="feOffset609" dx="0" dy=".5" in="blur" result="offset"/><feComposite id="feComposite610" in="flood" in2="offset" operator="in" result="comp1"/><feComposite id="feComposite611" in="SourceGraphic" in2="comp1" operator="over" result="comp2"/></filter><filter style="color-interpolation-filters:sRGB" id="filter613" width="1.056" height="1.059" x="-.028" y="-.025"><feFlood id="feFlood611" flood-color="#000" flood-opacity=".302" in="SourceGraphic" result="flood"/><feGaussianBlur id="feGaussianBlur611" in="SourceGraphic" result="blur" stdDeviation=".5"/><feOffset id="feOffset611" dx="0" dy=".5" in="blur" result="offset"/><feComposite id="feComposite612" in="flood" in2="offset" operator="in" result="comp1"/><feComposite id="feComposite613" in="SourceGraphic" in2="comp1" operator="over" result="comp2"/></filter></defs><clipPath id="ArtboardFrame"><rect id="rect1" width="100" height="76.191" x="0" y="11.905"/></clipPath><g id="Layer" clip-path="url(#ArtboardFrame)" vectornator:layerName="Layer" style="display:inline"><path id="path1" fill="#ef6c00" fill-rule="nonzero" stroke="none" d="M 85.7143,11.9048 H 14.2857 L 0,40.4762 v 47.619 h 100 v -47.619 z" opacity="1" vectornator:layerName="path" style="display:inline;filter:url(#filter607)"/><path id="path2" fill="#bf360c" fill-rule="nonzero" stroke="none" d="m 0,40.4762 h 100 v 47.619 H 0 Z" opacity="1" vectornator:layerName="path 1" style="display:inline;filter:url(#filter609)"/><path id="path5" fill="#ffc107" fill-rule="nonzero" stroke="none" d="m 60,83.3333 c -4.5238,0 -6.6667,-1.6666 -8.0952,-3.0952 C 50.9524,79.5238 50.7143,79.2857 50,79.2857 c -6.6667,0 -10,-5.7143 -13.3333,-11.4286 L 36.1905,67.1429 C 35.7143,66.1905 34.5238,65 32.8571,63.5714 28.3333,59.0476 21.4286,52.381 21.4286,40.2381 21.4286,32.381 35.7143,21.4286 50,21.4286 c 13.8095,0 28.5714,9.5238 28.5714,18.8095 C 78.5714,63.0952 70,83.3333 60,83.3333 Z M 50,26.1905 c -12.619,0 -23.8095,9.5238 -23.8095,14.0476 0,10.2381 5.9524,15.9524 10.2381,20 1.6666,1.6667 3.0952,3.0952 4.0476,4.5238 l 0.4762,0.7143 c 3.3333,5.4762 5.4762,9.0476 9.2857,9.0476 2.619,0 3.8095,1.1905 5,2.1429 1.1905,0.9523 2.1429,1.9047 5,1.9047 C 65,78.5714 74.0476,64.0476 74.0476,40.2381 73.8095,35 62.381,26.1905 50,26.1905 Z m 0,-11.9048 c -4.0476,0 -7.1429,1.6667 -7.1429,3.5714 0,1.9048 3.0953,3.5715 7.1429,3.5715 4.0476,0 7.1429,-1.6667 7.1429,-3.5715 0,-1.9047 -3.0953,-3.5714 -7.1429,-3.5714 z" opacity="1" vectornator:layerName="path 4" style="display:inline;fill:url(#linearGradient489);filter:url(#filter521)"/><path id="path3" fill="#e3f2fd" fill-rule="nonzero" stroke="none" d="m 76.1905,40.2381 c 0,23.8095 -9.0476,40.7143 -16.1905,40.7143 -6.4286,0 -6.4286,-4.0476 -10,-4.0476 -5.7143,0 -8.3333,-5.2381 -11.6667,-10.9524 -2.619,-4.5238 -14.5238,-10.7143 -14.5238,-25.7143 0,-6.1905 12.6191,-16.4286 26.1905,-16.4286 13.5714,0 26.1905,9.2857 26.1905,16.4286 z" opacity="1" vectornator:layerName="path 2" style="clip-rule:evenodd;display:inline;fill:url(#linearGradient481);fill-rule:nonzero;stroke:none;stroke-linecap:round;stroke-linejoin:round;stroke-opacity:1;filter:url(#filter611)"/><path id="path6" fill="#1a237e" fill-rule="nonzero" stroke="none" d="m 50,61.9048 c -1.4286,0 -2.381,-0.9524 -2.381,-2.381 V 41.6667 L 41.4286,37.619 C 40.2381,36.9048 40,35.4762 40.7143,34.2857 c 0.7143,-1.1905 2.1428,-1.4286 3.3333,-0.7143 l 7.1429,4.7619 c 0.7143,0.4762 0.9524,1.1905 0.9524,1.9048 V 59.2857 C 52.381,60.9524 51.4286,61.9048 50,61.9048 Z m 0,4.7619 c -1.4286,0 -2.381,0.9523 -2.381,2.3809 0,1.4286 0.9524,2.381 2.381,2.381 1.4286,0 2.381,-0.9524 2.381,-2.381 0,-1.4286 -0.9524,-2.3809 -2.381,-2.3809 z M 50,27.381 c -1.4286,0 -2.381,0.4761 -2.381,1.1904 0,0.7143 0.9524,1.1905 2.381,1.1905 1.4286,0 2.381,-0.4762 2.381,-1.1905 0,-0.7143 -0.9524,-1.1904 -2.381,-1.1904 z m 9.5238,2.3809 c -1.4286,0 -2.3809,0.4762 -2.3809,1.1905 0,0.7143 0.9523,1.1905 2.3809,1.1905 1.4286,0 2.381,-0.4762 2.381,-1.1905 0,-0.7143 -0.9524,-1.1905 -2.381,-1.1905 z m -19.0476,0 c -1.4286,0 -2.381,0.4762 -2.381,1.1905 0,0.7143 0.9524,1.1905 2.381,1.1905 1.4286,0 2.3809,-0.4762 2.3809,-1.1905 0,-0.7143 -0.9523,-1.1905 -2.3809,-1.1905 z m 26.1905,4.7619 c -1.4286,0 -2.381,0.4762 -2.381,1.1905 0,0.7143 0.9524,1.1905 2.381,1.1905 1.4285,0 2.3809,-0.4762 2.3809,-1.1905 0,-0.7143 -0.9524,-1.1905 -2.3809,-1.1905 z m -33.3334,0 c -1.4285,0 -2.3809,0.4762 -2.3809,1.1905 0,0.7143 0.9524,1.1905 2.3809,1.1905 1.4286,0 2.381,-0.4762 2.381,-1.1905 0,-0.7143 -0.9524,-1.1905 -2.381,-1.1905 z m 7.1429,20.2381 c -1.4286,0 -2.381,0.9524 -2.381,2.381 0,1.4285 0.9524,2.3809 2.381,2.3809 1.4286,0 2.3809,-0.9524 2.3809,-2.3809 0,-1.4286 -0.9523,-2.381 -2.3809,-2.381 z M 30.9524,42.8571 c -1.4286,0 -2.381,0.9524 -2.381,2.381 0,1.4286 0.9524,2.3809 2.381,2.3809 1.4286,0 2.3809,-0.9523 2.3809,-2.3809 0,-1.4286 -0.9523,-2.381 -2.3809,-2.381 z m 28.5714,28.5715 c -1.4286,0 -2.3809,0.9524 -2.3809,2.3809 0,1.4286 0.9523,2.381 2.3809,2.381 1.4286,0 2.381,-0.9524 2.381,-2.381 0,-1.4285 -0.9524,-2.3809 -2.381,-2.3809 z m 4.7619,-7.1429 c -1.4286,0 -2.3809,0.9524 -2.3809,2.381 0,1.4285 0.9523,2.3809 2.3809,2.3809 1.4286,0 2.381,-0.9524 2.381,-2.3809 0,-1.4286 -0.9524,-2.381 -2.381,-2.381 z m 2.381,-9.5238 c -1.4286,0 -2.381,0.9524 -2.381,2.381 0,1.4285 0.9524,2.3809 2.381,2.3809 1.4285,0 2.3809,-0.9524 2.3809,-2.3809 0,-1.4286 -0.9524,-2.381 -2.3809,-2.381 z m 2.3809,-11.9048 c -1.4286,0 -2.3809,0.9524 -2.3809,2.381 0,1.4286 0.9523,2.3809 2.3809,2.3809 1.4286,0 2.381,-0.9523 2.381,-2.3809 0,-1.4286 -0.9524,-2.381 -2.381,-2.381 z" opacity="1" vectornator:layerName="path 5" style="clip-rule:evenodd;display:inline;fill-rule:nonzero;stroke-linecap:round;stroke-linejoin:round;filter:url(#filter613)"/></g></svg>