<svg xmlns="http://www.w3.org/2000/svg" xmlns:vectornator="http://vectornator.io" xmlns:xlink="http://www.w3.org/1999/xlink" width="100%" height="100%" stroke-miterlimit="10" version="1.1" viewBox="0 0 100 100" xml:space="preserve" style="fill-rule:nonzero;clip-rule:evenodd;stroke-linecap:round;stroke-linejoin:round"><g opacity="1"><path fill="#222" fill-rule="nonzero" stroke="none" d="M0 12.5L100 12.5L100 87.5L0 87.5L0 12.5Z" opacity="1"/><g opacity="1"><path fill="#fff" fill-rule="nonzero" stroke="none" d="M2.62003 15.7811L97.38 15.7811L97.38 84.2189L2.62003 84.2189L2.62003 15.7811Z" opacity="1"/><path fill="#f44336" fill-rule="nonzero" stroke="none" d="M2.62003 15.7811L39.4711 15.7811L39.4711 52.6322L2.62003 52.6322L2.62003 15.7811Z" opacity="1"/><path fill="#ffeb3b" fill-rule="nonzero" stroke="none" d="M42.1033 15.7811L63.1611 15.7811L63.1611 34.2067L42.1033 34.2067L42.1033 15.7811Z" opacity="1"/><path fill="#3f51b5" fill-rule="nonzero" stroke="none" d="M42.1033 55.2644L63.1611 55.2644L63.1611 84.2189L42.1033 84.2189L42.1033 55.2644Z" opacity="1"/><path fill="#ffeb3b" fill-rule="nonzero" stroke="none" d="M65.7933 50L97.38 50L97.38 84.2189L65.7933 84.2189L65.7933 50Z" opacity="1"/><path fill="#3f51b5" fill-rule="nonzero" stroke="none" d="M65.7933 36.8389L84.2189 36.8389L84.2189 47.3678L65.7933 47.3678L65.7933 36.8389Z" opacity="1"/><path fill="#f44336" fill-rule="nonzero" stroke="none" d="M86.8511 15.7811L97.38 15.7811L97.38 26.31L86.8511 26.31L86.8511 15.7811Z" opacity="1"/><path fill="#222" fill-rule="nonzero" stroke="none" d="M39.4711 15.7811L42.1033 15.7811L42.1033 84.2189L39.4711 84.2189L39.4711 15.7811ZM63.1611 15.7811L65.7933 15.7811L65.7933 84.2189L63.1611 84.2189L63.1611 15.7811ZM2.62003 52.6322L65.7933 52.6322L65.7933 55.2644L2.62003 55.2644L2.62003 52.6322ZM65.7933 47.3678L97.38 47.3678L97.38 50L65.7933 50L65.7933 47.3678ZM42.1033 34.2067L86.8511 34.2067L86.8511 36.8389L42.1033 36.8389L42.1033 34.2067ZM84.2189 15.7811L86.8511 15.7811L86.8511 50L84.2189 50L84.2189 15.7811ZM84.2189 26.31L97.38 26.31L97.38 28.9422L84.2189 28.9422L84.2189 26.31Z" opacity="1"/></g></g></svg>