<svg width="100%" height="100%" viewBox="0 0 100 100" version="1.1" xml:space="preserve" xmlns="http://www.w3.org/2000/svg" xmlns:xlink="http://www.w3.org/1999/xlink"><defs/><g id="Mondrian"><path opacity="1" d="M1.19904e-14 13.8889L100 13.8889L100 86.1111L1.19904e-14 86.1111L1.19904e-14 13.8889Z" fill="#ffffff" stroke="none" /><path opacity="1" d="M1.19904e-14 13.8889L38.8889 13.8889L38.8889 52.7778L1.19904e-14 52.7778L1.19904e-14 13.8889Z" fill="#f44336" stroke="none" /><path opacity="1" d="M41.6667 13.8889L63.8889 13.8889L63.8889 33.3333L41.6667 33.3333L41.6667 13.8889Z" fill="#ffeb3b" stroke="none" /><path opacity="1" d="M41.6667 55.5556L63.8889 55.5556L63.8889 86.1111L41.6667 86.1111L41.6667 55.5556Z" fill="#3f51b5" stroke="none" /><path opacity="1" d="M66.6667 50L100 50L100 86.1111L66.6667 86.1111L66.6667 50Z" fill="#ffeb3b" stroke="none" /><path opacity="1" d="M66.6667 36.1111L86.1111 36.1111L86.1111 47.2222L66.6667 47.2222L66.6667 36.1111Z" fill="#3f51b5" stroke="none" /><path opacity="1" d="M88.8889 13.8889L100 13.8889L100 25L88.8889 25L88.8889 13.8889Z" fill="#f44336" stroke="none" /><path opacity="1" fill="#222222" stroke="none" d="M38.8889 13.8889L41.6667 13.8889L41.6667 86.1111L38.8889 86.1111L38.8889 13.8889ZM63.8889 13.8889L66.6667 13.8889L66.6667 86.1111L63.8889 86.1111L63.8889 13.8889ZM1.19904e-14 52.7778L66.6667 52.7778L66.6667 55.5556L1.19904e-14 55.5556L1.19904e-14 52.7778ZM66.6667 47.2222L100 47.2222L100 50L66.6667 50L66.6667 47.2222ZM41.6667 33.3333L88.8889 33.3333L88.8889 36.1111L41.6667 36.1111L41.6667 33.3333ZM86.1111 13.8889L88.8889 13.8889L88.8889 50L86.1111 50L86.1111 13.8889ZM86.1111 25L100 25L100 27.7778L86.1111 27.7778L86.1111 25Z"/></g></svg>
