<svg width="100%" height="100%" viewBox="0 0 100 100" xml:space="preserve" xmlns="http://www.w3.org/2000/svg" xmlns:xlink="http://www.w3.org/1999/xlink"><defs><filter color-interpolation-filters="sRGB" filterUnits="userSpaceOnUse" height="107.736" id="Filter_Picasso" width="107.736" x="-4.84833" y="-3.04542"><feDropShadow dx="-0.980323" dy="0.822588" flood-color="#000000" flood-opacity="0.8" in="SourceGraphic" result="Shadow" stdDeviation="1.5472"/></filter><filter color-interpolation-filters="sRGB" filterUnits="userSpaceOnUse" height="36.6834" id="Filter_Picasso_2" width="62.9992" x="-4.84833" y="20.6388"><feDropShadow dx="-0.980323" dy="0.822588" flood-color="#000000" flood-opacity="0.8" in="SourceGraphic" result="Shadow" stdDeviation="1.5472"/></filter><filter color-interpolation-filters="sRGB" filterUnits="userSpaceOnUse" height="28.7886" id="Filter_Picasso_3" width="66.9466" x="4.3622" y="-3.04542"><feDropShadow dx="-0.980323" dy="0.822588" flood-color="#000000" flood-opacity="0.8" in="SourceGraphic" result="Shadow" stdDeviation="1.5472"/></filter><filter color-interpolation-filters="sRGB" filterUnits="userSpaceOnUse" height="70.8939" id="Filter_Picasso_4" width="107.736" x="-4.84833" y="33.7967"><feDropShadow dx="-0.980323" dy="0.822588" flood-color="#000000" flood-opacity="0.8" in="SourceGraphic" result="Shadow" stdDeviation="1.5472"/></filter><filter color-interpolation-filters="sRGB" filterUnits="userSpaceOnUse" height="81.4202" id="Filter_Picasso_5" width="41.9466" x="0.41483" y="20.6388"><feDropShadow dx="-0.980323" dy="0.822588" flood-color="#000000" flood-opacity="0.8" in="SourceGraphic" result="Shadow" stdDeviation="1.5472"/></filter><filter color-interpolation-filters="sRGB" filterUnits="userSpaceOnUse" height="55.1044" id="Filter_Picasso_6" width="62.736" x="40.1517" y="49.5862"><feDropShadow dx="-0.980323" dy="0.822588" flood-color="#000000" flood-opacity="0.8" in="SourceGraphic" result="Shadow" stdDeviation="1.5472"/></filter><filter color-interpolation-filters="sRGB" filterUnits="userSpaceOnUse" height="102.667" id="Filter_Picasso_7" width="91.9465" x="10.9412" y="2.02404"><feDropShadow dx="-0.980323" dy="0.822588" flood-color="#000000" flood-opacity="0.8" in="SourceGraphic" result="Shadow" stdDeviation="1.5472"/></filter><filter color-interpolation-filters="sRGB" filterUnits="userSpaceOnUse" height="41.9964" id="Filter_Picasso_8" width="68.2623" x="31.9938" y="60.0626"><feDropShadow dx="-0.980323" dy="0.822588" flood-color="#000000" flood-opacity="0.8" in="SourceGraphic" result="Shadow" stdDeviation="1.5472"/></filter><filter color-interpolation-filters="sRGB" filterUnits="userSpaceOnUse" height="76.1571" id="Filter_Picasso_9" width="107.736" x="-4.84833" y="-3.04542"><feDropShadow dx="-0.980323" dy="0.822588" flood-color="#000000" flood-opacity="0.8" in="SourceGraphic" result="Shadow" stdDeviation="1.5472"/></filter><filter color-interpolation-filters="sRGB" filterUnits="userSpaceOnUse" height="23.5254" id="Filter_Picasso_10" width="81.4706" x="-4.84833" y="15.3757"><feDropShadow dx="-0.980323" dy="0.822588" flood-color="#000000" flood-opacity="0.8" in="SourceGraphic" result="Shadow" stdDeviation="1.5472"/></filter><filter color-interpolation-filters="sRGB" filterUnits="userSpaceOnUse" height="31.5563" id="Filter_Picasso_11" width="58.9552" x="33.0648" y="36.997"><feDropShadow dx="-0.980323" dy="0.822588" flood-color="#000000" flood-opacity="0.8" in="SourceGraphic" result="Shadow" stdDeviation="1.5472"/></filter><filter color-interpolation-filters="sRGB" filterUnits="userSpaceOnUse" height="52.4792" id="Filter_Picasso_12" width="16.2723" x="34.7075" y="4.84932"><feDropShadow dx="-0.980323" dy="0.822588" flood-color="#000000" flood-opacity="0.8" in="SourceGraphic" result="Shadow" stdDeviation="1.5472"/></filter><filter color-interpolation-filters="sRGB" filterUnits="userSpaceOnUse" height="52.4729" id="Filter_Picasso_13" width="16.3863" x="34.6254" y="4.84932"><feDropShadow dx="-0.980323" dy="0.822588" flood-color="#000000" flood-opacity="0.8" in="SourceGraphic" result="Shadow" stdDeviation="1.5472"/></filter><filter color-interpolation-filters="sRGB" filterUnits="userSpaceOnUse" height="26.4202" id="Filter_Picasso_14" width="17.3135" x="60.678" y="20.6388"><feDropShadow dx="-0.980323" dy="0.822588" flood-color="#000000" flood-opacity="0.8" in="SourceGraphic" result="Shadow" stdDeviation="1.5472"/></filter><filter color-interpolation-filters="sRGB" filterUnits="userSpaceOnUse" height="12.9992" id="Filter_Picasso_15" width="12.9992" x="31.9938" y="60.1125"><feDropShadow dx="-0.980323" dy="0.822588" flood-color="#000000" flood-opacity="0.8" in="SourceGraphic" result="Shadow" stdDeviation="1.5472"/></filter></defs><g opacity="1"><path fill="#388e3c" filter="url(#Filter_Picasso)" d="M89.4737 100L10.5263 100C4.73684 100 0 95.2632 0 89.4737L0 10.5263C0 4.73684 4.73684 0 10.5263 0L89.4737 0C95.2632 0 100 4.73684 100 10.5263L100 89.4737C100 95.2632 95.2632 100 89.4737 100Z"/><path fill="#2e7d32" filter="url(#Filter_Picasso_2)" d="M0 23.6842L55.2632 23.6842L55.2632 52.6316L0 52.6316L0 23.6842Z"/><path fill="#1b5e20" filter="url(#Filter_Picasso_3)" d="M21.0526 21.0526L9.21053 21.0526L9.21053 0L21.0526 0L21.0526 21.0526ZM44.7368 0L32.8947 0L32.8947 21.0526L44.7368 21.0526L44.7368 0ZM68.4211 0L55.2632 0L55.2632 21.0526L68.4211 21.0526L68.4211 0Z"/><path fill="#ff3d00" filter="url(#Filter_Picasso_4)" d="M44.7368 36.8421C44.7368 36.8421 7.10526 44.2105 0 68.4211L0 89.4737C0 95.2632 4.73684 100 10.5263 100L89.4737 100C95.2632 100 100 95.2632 100 89.4737L100 36.8421L44.7368 36.8421Z"/><path fill="#ffab00" filter="url(#Filter_Picasso_5)" d="M31.5789 23.6842C31.5789 23.6842 5.26316 25 5.26316 60.5263C5.26316 86.5789 18.4211 97.3684 18.4211 97.3684C18.4211 97.3684 23.1579 65.7895 39.4737 65.7895L39.4737 23.6842L31.5789 23.6842Z"/><path fill="#ffccbc" filter="url(#Filter_Picasso_6)" d="M89.4737 100C95.2632 100 100 95.2632 100 89.4737L100 78.4211C98.4211 77.1053 96.5789 76.3158 94.7368 76.3158C82.6316 75.5263 81.5789 52.6316 81.5789 52.6316C73.9474 63.1579 45 63.1579 45 63.1579L45 100L89.4737 100Z"/><path fill="#ffecb3" filter="url(#Filter_Picasso_7)" d="M94.7368 76.3158C84.4737 76.3158 84.7368 94.7368 71.0526 94.7368C55.7895 94.7368 61.8421 71.8421 46.3158 66.8421C46.8421 66.3158 47.3684 65.5263 47.3684 64.4737C47.3684 64.2105 47.3684 63.6842 47.1053 63.4211C63.2875 65.2993 83.4212 54.9483 88.8873 40.8131C89.1907 40.0287 89.4139 38.678 89.349 37.8569C87.5801 15.4675 55.5103 6.92212 43.4211 5.26316C40.245 4.82733 38.1579 5.26316 38.1579 5.26316C34.4737 5.26316 31.5789 8.15789 31.5789 11.8421C31.5789 15.5263 34.4737 18.4211 38.1579 18.4211L36.8421 23.6842C25.7895 23.6842 21.5789 32.1053 21.0526 42.8947C21.3158 52.6316 28.4211 60.5263 37.3684 62.6316C40 63.1579 42.1053 63.4211 42.1053 65.7895C42.1053 66.3158 37.1053 65.5263 37.1053 66.0526C18.9474 68.4211 15.7895 100 15.7895 100L89.4737 100C95.2632 100 100 95.2632 100 89.4737L100 77.3684C98.4211 76.5789 96.5789 76.3158 94.7368 76.3158Z"/><path fill="#d84315" filter="url(#Filter_Picasso_8)" d="M39.4737 68.4211C38.6842 68.4211 38.1579 68.1579 37.6316 67.6316C37.1053 67.1053 36.8421 66.5789 36.8421 65.7895C36.8421 65 37.1053 64.4737 37.6316 63.9474C38.6842 62.8947 40.2632 62.8947 41.3158 63.9474C41.8421 64.4737 42.1053 65.2632 42.1053 65.7895C42.1053 66.3158 41.8421 67.1053 41.3158 67.6316C40.7895 68.1579 40.2632 68.4211 39.4737 68.4211ZM71.3158 97.3684L71.3158 97.3684L71.3158 97.3684L71.3158 97.3684C72.8947 97.3684 73.9474 96.0526 73.9474 94.7368L73.9474 94.7368L73.9474 94.7368L73.9474 94.7368C74.4737 96.0526 76.0526 96.5789 77.3684 96.0526L77.3684 96.0526C78.6842 95.5263 79.2105 93.9474 78.6842 92.6316L78.6842 92.6316L78.6842 92.6316L78.6842 92.6316C79.7368 93.6842 81.3158 93.6842 82.3684 92.6316L82.3684 92.6316C83.4211 91.5789 83.4211 90 82.3684 88.9474L82.3684 88.9474C83.6842 89.7368 85 89.2105 85.7895 88.1579L85.7895 88.1579C86.5789 87.1053 86.3158 85.5263 85.2632 84.7368L85.2632 84.7368C86.3158 85.2632 87.8947 85 88.6842 83.9474L88.6842 83.9474C89.4737 82.8947 89.2105 81.5789 88.4211 80.7895L88.4211 80.7895C89.4737 81.3158 90.5263 81.3158 91.5789 80.5263L91.5789 80.5263C92.6316 79.7368 92.8947 77.8947 91.8421 76.8421L91.8421 76.8421C91.0526 75.7895 89.2105 75.5263 88.1579 76.5789L88.1579 76.5789C87.1053 77.3684 86.8421 79.2105 87.8947 80.2632L87.8947 80.2632L87.8947 80.2632L87.8947 80.2632C86.8421 79.4737 85.2632 80 84.4737 81.0526L84.4737 81.0526C83.6842 82.1053 83.9474 83.6842 85 84.4737L85 84.4737C83.9474 83.9474 82.3684 84.2105 81.5789 85.2632L81.5789 85.2632C80.7895 86.3158 81.0526 87.6316 81.8421 88.4211L81.8421 88.4211C80.7895 87.8947 79.4737 88.1579 78.6842 88.9474L78.6842 88.9474C77.8947 89.7368 77.8947 91.0526 78.1579 91.8421L78.1579 91.8421C77.3684 91.0526 76.3158 90.7895 75.2632 91.3158L75.2632 91.3158C74.2105 91.8421 73.6842 92.6316 73.6842 93.6842L73.6842 93.6842C73.1579 92.6316 72.3684 92.1053 71.0526 92.1053L71.0526 92.1053C70 92.1053 69.2105 92.6316 68.6842 93.6842L68.6842 93.6842C68.6842 92.6316 68.1579 91.8421 67.1053 91.3158L67.1053 91.3158C66.3158 90.7895 65.2632 91.0526 64.4737 91.5789L64.4737 91.5789C65 90.7895 65 89.7368 64.4737 88.6842L64.4737 88.6842C63.6842 87.6316 62.6316 87.3684 61.5789 87.6316L61.5789 87.6316C62.6316 86.8421 62.8947 85.5263 62.3684 84.4737L62.3684 84.4737C61.8421 83.1579 60.5263 82.6316 59.2105 82.8947L59.2105 82.8947C60.2632 82.3684 60.7895 80.7895 60.5263 79.7368L60.5263 79.7368L60.5263 79.7368L60.5263 79.7368C60 78.4211 58.6842 77.6316 57.3684 78.1579L57.3684 78.1579C58.4211 77.3684 58.9474 76.0526 58.4211 74.7368L58.4211 74.7368L58.4211 74.7368L58.4211 74.7368C57.8947 73.4211 56.3158 72.8947 55 73.4211L55 73.4211C56.0526 72.3684 56.3158 70.7895 55.2632 69.7368L55.2632 69.7368L55.2632 69.7368L55.2632 69.7368C54.4737 68.6842 52.6316 68.4211 51.5789 69.2105L51.5789 69.2105C52.3684 67.8947 51.8421 66.3158 50.5263 65.5263L50.5263 65.5263L50.5263 65.5263L50.5263 65.5263C49.2105 64.7368 47.6316 65.2632 46.8421 66.3158L46.8421 66.3158C47.1053 65 46.0526 63.6842 44.7368 63.1579L44.7368 63.1579L44.7368 63.1579L44.7368 63.1579C43.4211 62.8947 41.8421 63.6842 41.5789 65.2632L41.5789 65.2632C41.3158 66.5789 42.1053 68.1579 43.6842 68.4211L43.6842 68.4211C44.7368 68.6842 45.7895 68.1579 46.5789 67.3684L46.5789 67.3684C46.3158 68.4211 46.8421 69.4737 47.8947 70L47.8947 70C48.9474 70.5263 50 70.5263 50.7895 69.7368L50.7895 69.7368C50.2632 70.7895 50.2632 71.8421 51.0526 72.6316L51.0526 72.6316C51.8421 73.6842 53.1579 73.9474 54.2105 73.4211L54.2105 73.4211C53.4211 74.2105 53.1579 75.5263 53.6842 76.5789L53.6842 76.5789C54.2105 77.6316 55.5263 78.1579 56.8421 77.8947L56.8421 77.8947C55.7895 78.4211 55.2632 79.7368 55.7895 81.0526L55.7895 81.0526C56.3158 82.3684 57.6316 83.1579 58.9474 82.6316L58.9474 82.6316C57.6316 83.1579 57.1053 84.7368 57.6316 86.0526L57.6316 86.0526C58.1579 87.3684 59.4737 87.8947 60.7895 87.6316L60.7895 87.6316C59.7368 88.4211 59.4737 90 60.2632 91.3158L60.2632 91.3158C61.0526 92.6316 62.6316 92.8947 63.9474 92.1053L63.9474 92.1053L63.9474 92.1053L63.9474 92.1053L63.9474 92.1053L63.9474 92.1053C63.4211 93.4211 63.9474 95 65.2632 95.5263L65.2632 95.5263C66.5789 96.3158 68.1579 95.5263 68.6842 94.2105L68.6842 94.2105L68.6842 94.2105C68.6842 96.3158 69.7368 97.3684 71.3158 97.3684ZM96.5789 78.1579C97.1053 77.6316 97.3684 77.1053 97.3684 76.3158C97.3684 75.5263 97.1053 75 96.5789 74.4737C95.5263 73.4211 93.9474 73.4211 92.8947 74.4737C92.3684 75 92.1053 75.5263 92.1053 76.3158C92.1053 77.1053 92.3684 77.6316 92.8947 78.1579C93.4211 78.6842 94.2105 78.9474 94.7368 78.9474C95.2632 78.9474 96.0526 78.6842 96.5789 78.1579Z"/><path fill="#37474f" filter="url(#Filter_Picasso_9)" d="M0 68.4211C1.05263 64.7368 2.89474 61.3158 5.26316 58.4211C5.52632 51.8421 6.57895 46.5789 8.42105 42.1053L0 42.1053L0 68.4211ZM89.4737 0L78.9474 0L78.9474 19.4737C84.2105 23.9474 88.4211 29.7368 89.2105 36.8421L100 36.8421L100 10.5263C100 4.73684 95.2632 0 89.4737 0Z"/><path fill="#37474f" filter="url(#Filter_Picasso_10)" d="M57.8947 24.4737L57.8947 28.9474C57.8947 30.2632 58.6842 31.3158 60 31.5789L70.5263 34.2105C70.7895 34.2105 71.0526 34.2105 71.0526 34.2105C72.1053 34.2105 73.4211 33.4211 73.6842 32.1053C73.9474 30.7895 73.1579 29.2105 71.8421 28.9474L63.1579 26.8421L63.1579 24.4737C63.1579 21.0526 60.5263 18.4211 57.1053 18.4211L10.5263 18.4211L7.89474 18.4211L0 18.4211L0 23.6842L7.89474 23.6842L10.5263 23.6842L57.1053 23.6842C57.6316 23.6842 57.8947 23.9474 57.8947 24.4737Z"/><path fill="#37474f" filter="url(#Filter_Picasso_11)" d="M37.9131 62.7735C43.6195 63.2477 60.107 66.3314 73.4086 59.3806C84.6546 53.504 89.3111 40.3925 89.1271 40.0424C88.7326 40.8774 80.7669 53.6607 69.4511 58.6434C55.8455 64.6344 38.6978 62.6383 37.9131 62.7735Z"/><path fill="#37474f" filter="url(#Filter_Picasso_12)" d="M46.3158 18.4211L46.5789 18.1579C47.1053 17.3684 47.6316 16.3158 47.8947 15.2632C48.1579 14.2105 48.1579 13.1579 47.8947 12.1053C47.6316 11.0526 47.3684 10.2632 46.8421 9.47368C46.0526 8.42105 44.7368 7.89474 44.7368 7.89474L44.7368 7.89474C44.7368 7.89474 45 8.68421 45.2632 10C45.5263 11.3158 45.5263 13.1579 45 14.7368C44.7368 16.0526 44.2105 17.3684 43.6842 18.4211L46.3158 18.4211ZM46.521 44.6187C48.081 37.9312 44.806 34.4511 44.806 34.4511L44.806 34.4511C44.806 34.4511 44.9779 41.5823 42.4249 47.9059C41.2246 50.8788 39.7892 52.3125 39.7184 52.3952C39.5865 52.5493 39.5558 52.6379 39.5558 52.6379L40.3323 52.3459C40.3323 52.3459 45.1244 50.6059 46.521 44.6187Z"/><path fill="#37474f" filter="url(#Filter_Picasso_13)" d="M46.3158 18.4211C46.3158 18.4211 48.2756 16.9576 48.1146 13.4103C47.9072 8.83888 44.7368 7.89474 44.7368 7.89474L44.7368 7.89474C44.7368 7.89474 45.8012 10.3248 45.4251 12.884C45.0334 15.5496 43.9158 17.9578 43.6842 18.4211L46.3158 18.4211ZM46.5789 40.7895C46.5789 39.4737 46.5789 38.4211 46.3158 37.3684C45.7895 35.5263 44.7368 34.2105 44.7368 34.2105L44.7368 34.2105C44.7368 34.2105 44.9234 35.5263 44.9234 37.3684C44.8036 38.2071 45.3958 41.5551 44.4192 44.6467C43.2507 48.3455 40.3787 51.9084 40.092 52.1951C39.5657 52.4583 39.4737 52.6316 39.4737 52.6316L39.4737 52.6316C39.4737 52.6316 39.9481 52.4827 40.4745 51.9564C41.0008 51.6932 41.5789 51.3158 42.3684 50.5263C43.1579 50 46.5789 41.8421 46.5789 40.7895Z"/><path fill="#d32f2f" filter="url(#Filter_Picasso_14)" d="M71.3158 23.6842C71.3158 23.6842 76.2942 27.4311 74.8364 34.0398C73.1869 41.5174 67.6253 42.1053 67.3684 42.1053C66.5789 42.3684 66.0526 42.3684 66.0526 42.3684L65.5263 42.1053C65.5263 42.1053 65.7895 41.8421 66.0526 41.3158C66.1849 41.0513 68.5194 36.6729 69.2771 33.1157C70.2897 28.3616 70.5263 23.6842 70.5263 23.6842L71.3158 23.6842Z"/><path fill="#d84315" filter="url(#Filter_Picasso_15)" d="M39.4737 63.1579C38.0203 63.1579 36.8421 64.3361 36.8421 65.7895C36.8421 67.2429 38.0203 68.4211 39.4737 68.4211C40.9271 68.4211 42.1053 67.2429 42.1053 65.7895C42.1053 64.3361 40.9271 63.1579 39.4737 63.1579Z"/></g></svg>
