<?xml version="1.0" encoding="UTF-8" standalone="no"?>
<svg
   height="100%"
   stroke-miterlimit="10"
   style="fill-rule:nonzero;clip-rule:evenodd;stroke-linecap:round;stroke-linejoin:round;"
   version="1.1"
   viewBox="0 11.9048 100 76.1905"
   width="100%"
   xml:space="preserve"
   id="svg6"
   sodipodi:docname="pen.2 copy.svg"
   inkscape:version="1.3-beta (cedbd6c, 2023-05-28)"
   xmlns:inkscape="http://www.inkscape.org/namespaces/inkscape"
   xmlns:sodipodi="http://sodipodi.sourceforge.net/DTD/sodipodi-0.dtd"
   xmlns:xlink="http://www.w3.org/1999/xlink"
   xmlns="http://www.w3.org/2000/svg"
   xmlns:svg="http://www.w3.org/2000/svg"
   xmlns:vectornator="http://vectornator.io"><sodipodi:namedview
   id="namedview6"
   pagecolor="#505050"
   bordercolor="#ffffff"
   borderopacity="1"
   inkscape:showpageshadow="0"
   inkscape:pageopacity="0"
   inkscape:pagecheckerboard="1"
   inkscape:deskcolor="#505050"
   inkscape:zoom="4.1113053"
   inkscape:cx="21.52601"
   inkscape:cy="15.93168"
   inkscape:window-width="1310"
   inkscape:window-height="718"
   inkscape:window-x="0"
   inkscape:window-y="90"
   inkscape:window-maximized="0"
   inkscape:current-layer="Layer" />&#10;<defs
   id="defs1"><linearGradient
   id="linearGradient487"
   inkscape:collect="always"><stop
     style="stop-color:#ffac3d;stop-opacity:1;"
     offset="0.51326692"
     id="stop488" /><stop
     style="stop-color:#d27700;stop-opacity:1;"
     offset="0.56333053"
     id="stop489" /></linearGradient><linearGradient
   id="linearGradient480"
   inkscape:collect="always"><stop
     style="stop-color:#e3f2fd;stop-opacity:1;"
     offset="0.73250008"
     id="stop480" /><stop
     style="stop-color:#bbdefb;stop-opacity:1;"
     offset="0.85500002"
     id="stop481" /></linearGradient>&#10;&#10;&#10;&#10;&#10;&#10;&#10;<linearGradient
   inkscape:collect="always"
   xlink:href="#linearGradient480"
   id="linearGradient481"
   x1="52.049686"
   y1="38.520878"
   x2="52.050274"
   y2="40.804382"
   gradientUnits="userSpaceOnUse" /><linearGradient
   inkscape:collect="always"
   xlink:href="#linearGradient487"
   id="linearGradient489"
   x1="52.424202"
   y1="32.41106"
   x2="52.372219"
   y2="47.604618"
   gradientUnits="userSpaceOnUse" /><filter
   style="color-interpolation-filters:sRGB;"
   inkscape:label="Drop Shadow"
   id="filter521"
   x="-0.058800058"
   y="-0.048662082"
   width="1.1176001"
   height="1.1176"><feFlood
     result="flood"
     in="SourceGraphic"
     flood-opacity="0.301961"
     flood-color="rgb(0,0,0)"
     id="feFlood520" /><feGaussianBlur
     result="blur"
     in="SourceGraphic"
     stdDeviation="1.400000"
     id="feGaussianBlur520" /><feOffset
     result="offset"
     in="blur"
     dx="0.000000"
     dy="1.400000"
     id="feOffset520" /><feComposite
     result="comp1"
     operator="in"
     in="flood"
     in2="offset"
     id="feComposite520" /><feComposite
     result="comp2"
     operator="over"
     in="SourceGraphic"
     in2="comp1"
     id="feComposite521" /></filter><filter
   style="color-interpolation-filters:sRGB;"
   inkscape:label="Drop Shadow"
   id="filter607"
   x="-0.012"
   y="-0.015750016"
   width="1.024"
   height="1.0380625"><feFlood
     result="flood"
     in="SourceGraphic"
     flood-opacity="0.301961"
     flood-color="rgb(0,0,0)"
     id="feFlood606" /><feGaussianBlur
     result="blur"
     in="SourceGraphic"
     stdDeviation="0.500000"
     id="feGaussianBlur606" /><feOffset
     result="offset"
     in="blur"
     dx="0.000000"
     dy="0.500000"
     id="feOffset606" /><feComposite
     result="comp1"
     operator="in"
     in="flood"
     in2="offset"
     id="feComposite606" /><feComposite
     result="comp2"
     operator="over"
     in="SourceGraphic"
     in2="comp1"
     id="feComposite607" /></filter><filter
   style="color-interpolation-filters:sRGB;"
   inkscape:label="Drop Shadow"
   id="filter609"
   x="-0.012"
   y="-0.025200025"
   width="1.024"
   height="1.0609001"><feFlood
     result="flood"
     in="SourceGraphic"
     flood-opacity="0.301961"
     flood-color="rgb(0,0,0)"
     id="feFlood607" /><feGaussianBlur
     result="blur"
     in="SourceGraphic"
     stdDeviation="0.500000"
     id="feGaussianBlur607" /><feOffset
     result="offset"
     in="blur"
     dx="0.000000"
     dy="0.500000"
     id="feOffset607" /><feComposite
     result="comp1"
     operator="in"
     in="flood"
     in2="offset"
     id="feComposite608" /><feComposite
     result="comp2"
     operator="over"
     in="SourceGraphic"
     in2="comp1"
     id="feComposite609" /></filter><filter
   style="color-interpolation-filters:sRGB;"
   inkscape:label="Drop Shadow"
   id="filter611"
   x="-0.02290907"
   y="-0.020999984"
   width="1.0458181"
   height="1.05075"><feFlood
     result="flood"
     in="SourceGraphic"
     flood-opacity="0.301961"
     flood-color="rgb(0,0,0)"
     id="feFlood609" /><feGaussianBlur
     result="blur"
     in="SourceGraphic"
     stdDeviation="0.500000"
     id="feGaussianBlur609" /><feOffset
     result="offset"
     in="blur"
     dx="0.000000"
     dy="0.500000"
     id="feOffset609" /><feComposite
     result="comp1"
     operator="in"
     in="flood"
     in2="offset"
     id="feComposite610" /><feComposite
     result="comp2"
     operator="over"
     in="SourceGraphic"
     in2="comp1"
     id="feComposite611" /></filter><filter
   style="color-interpolation-filters:sRGB;"
   inkscape:label="Drop Shadow"
   id="filter613"
   x="-0.027999963"
   y="-0.024585378"
   width="1.0559999"
   height="1.0594147"><feFlood
     result="flood"
     in="SourceGraphic"
     flood-opacity="0.301961"
     flood-color="rgb(0,0,0)"
     id="feFlood611" /><feGaussianBlur
     result="blur"
     in="SourceGraphic"
     stdDeviation="0.500000"
     id="feGaussianBlur611" /><feOffset
     result="offset"
     in="blur"
     dx="0.000000"
     dy="0.500000"
     id="feOffset611" /><feComposite
     result="comp1"
     operator="in"
     in="flood"
     in2="offset"
     id="feComposite612" /><feComposite
     result="comp2"
     operator="over"
     in="SourceGraphic"
     in2="comp1"
     id="feComposite613" /></filter></defs>&#10;<clipPath
   id="ArtboardFrame">&#10;<rect
   height="76.1905"
   width="100"
   x="0"
   y="11.9048"
   id="rect1" />&#10;</clipPath>&#10;<g
   clip-path="url(#ArtboardFrame)"
   id="Layer"
   vectornator:layerName="Layer"
   style="display:inline">&#10;<path
   d="M 85.7143,11.9048 H 14.2857 L 0,40.4762 v 47.619 h 100 v -47.619 z"
   fill="#ef6c00"
   fill-rule="nonzero"
   opacity="1"
   stroke="none"
   vectornator:layerName="path"
   id="path1"
   style="display:inline;filter:url(#filter607)" /><path
   d="m 0,40.4762 h 100 v 47.619 H 0 Z"
   fill="#bf360c"
   fill-rule="nonzero"
   opacity="1"
   stroke="none"
   vectornator:layerName="path 1"
   id="path2"
   style="display:inline;filter:url(#filter609)" /><path
   d="m 60,83.3333 c -4.5238,0 -6.6667,-1.6666 -8.0952,-3.0952 C 50.9524,79.5238 50.7143,79.2857 50,79.2857 c -6.6667,0 -10,-5.7143 -13.3333,-11.4286 L 36.1905,67.1429 C 35.7143,66.1905 34.5238,65 32.8571,63.5714 28.3333,59.0476 21.4286,52.381 21.4286,40.2381 21.4286,32.381 35.7143,21.4286 50,21.4286 c 13.8095,0 28.5714,9.5238 28.5714,18.8095 C 78.5714,63.0952 70,83.3333 60,83.3333 Z M 50,26.1905 c -12.619,0 -23.8095,9.5238 -23.8095,14.0476 0,10.2381 5.9524,15.9524 10.2381,20 1.6666,1.6667 3.0952,3.0952 4.0476,4.5238 l 0.4762,0.7143 c 3.3333,5.4762 5.4762,9.0476 9.2857,9.0476 2.619,0 3.8095,1.1905 5,2.1429 1.1905,0.9523 2.1429,1.9047 5,1.9047 C 65,78.5714 74.0476,64.0476 74.0476,40.2381 73.8095,35 62.381,26.1905 50,26.1905 Z m 0,-11.9048 c -4.0476,0 -7.1429,1.6667 -7.1429,3.5714 0,1.9048 3.0953,3.5715 7.1429,3.5715 4.0476,0 7.1429,-1.6667 7.1429,-3.5715 0,-1.9047 -3.0953,-3.5714 -7.1429,-3.5714 z"
   fill="#ffc107"
   fill-rule="nonzero"
   opacity="1"
   stroke="none"
   vectornator:layerName="path 4"
   id="path5"
   style="display:inline;fill:url(#linearGradient489);filter:url(#filter521)" /><path
   d="m 76.1905,40.2381 c 0,23.8095 -9.0476,40.7143 -16.1905,40.7143 -6.4286,0 -6.4286,-4.0476 -10,-4.0476 -5.7143,0 -8.3333,-5.2381 -11.6667,-10.9524 -2.619,-4.5238 -14.5238,-10.7143 -14.5238,-25.7143 0,-6.1905 12.6191,-16.4286 26.1905,-16.4286 13.5714,0 26.1905,9.2857 26.1905,16.4286 z"
   fill="#e3f2fd"
   fill-rule="nonzero"
   opacity="1"
   stroke="none"
   vectornator:layerName="path 2"
   id="path3"
   style="clip-rule:evenodd;display:inline;fill:url(#linearGradient481);fill-rule:nonzero;stroke:none;stroke-linecap:round;stroke-linejoin:round;stroke-opacity:1;filter:url(#filter611)" /><path
   d="m 50,61.9048 c -1.4286,0 -2.381,-0.9524 -2.381,-2.381 V 41.6667 L 41.4286,37.619 C 40.2381,36.9048 40,35.4762 40.7143,34.2857 c 0.7143,-1.1905 2.1428,-1.4286 3.3333,-0.7143 l 7.1429,4.7619 c 0.7143,0.4762 0.9524,1.1905 0.9524,1.9048 V 59.2857 C 52.381,60.9524 51.4286,61.9048 50,61.9048 Z m 0,4.7619 c -1.4286,0 -2.381,0.9523 -2.381,2.3809 0,1.4286 0.9524,2.381 2.381,2.381 1.4286,0 2.381,-0.9524 2.381,-2.381 0,-1.4286 -0.9524,-2.3809 -2.381,-2.3809 z M 50,27.381 c -1.4286,0 -2.381,0.4761 -2.381,1.1904 0,0.7143 0.9524,1.1905 2.381,1.1905 1.4286,0 2.381,-0.4762 2.381,-1.1905 0,-0.7143 -0.9524,-1.1904 -2.381,-1.1904 z m 9.5238,2.3809 c -1.4286,0 -2.3809,0.4762 -2.3809,1.1905 0,0.7143 0.9523,1.1905 2.3809,1.1905 1.4286,0 2.381,-0.4762 2.381,-1.1905 0,-0.7143 -0.9524,-1.1905 -2.381,-1.1905 z m -19.0476,0 c -1.4286,0 -2.381,0.4762 -2.381,1.1905 0,0.7143 0.9524,1.1905 2.381,1.1905 1.4286,0 2.3809,-0.4762 2.3809,-1.1905 0,-0.7143 -0.9523,-1.1905 -2.3809,-1.1905 z m 26.1905,4.7619 c -1.4286,0 -2.381,0.4762 -2.381,1.1905 0,0.7143 0.9524,1.1905 2.381,1.1905 1.4285,0 2.3809,-0.4762 2.3809,-1.1905 0,-0.7143 -0.9524,-1.1905 -2.3809,-1.1905 z m -33.3334,0 c -1.4285,0 -2.3809,0.4762 -2.3809,1.1905 0,0.7143 0.9524,1.1905 2.3809,1.1905 1.4286,0 2.381,-0.4762 2.381,-1.1905 0,-0.7143 -0.9524,-1.1905 -2.381,-1.1905 z m 7.1429,20.2381 c -1.4286,0 -2.381,0.9524 -2.381,2.381 0,1.4285 0.9524,2.3809 2.381,2.3809 1.4286,0 2.3809,-0.9524 2.3809,-2.3809 0,-1.4286 -0.9523,-2.381 -2.3809,-2.381 z M 30.9524,42.8571 c -1.4286,0 -2.381,0.9524 -2.381,2.381 0,1.4286 0.9524,2.3809 2.381,2.3809 1.4286,0 2.3809,-0.9523 2.3809,-2.3809 0,-1.4286 -0.9523,-2.381 -2.3809,-2.381 z m 28.5714,28.5715 c -1.4286,0 -2.3809,0.9524 -2.3809,2.3809 0,1.4286 0.9523,2.381 2.3809,2.381 1.4286,0 2.381,-0.9524 2.381,-2.381 0,-1.4285 -0.9524,-2.3809 -2.381,-2.3809 z m 4.7619,-7.1429 c -1.4286,0 -2.3809,0.9524 -2.3809,2.381 0,1.4285 0.9523,2.3809 2.3809,2.3809 1.4286,0 2.381,-0.9524 2.381,-2.3809 0,-1.4286 -0.9524,-2.381 -2.381,-2.381 z m 2.381,-9.5238 c -1.4286,0 -2.381,0.9524 -2.381,2.381 0,1.4285 0.9524,2.3809 2.381,2.3809 1.4285,0 2.3809,-0.9524 2.3809,-2.3809 0,-1.4286 -0.9524,-2.381 -2.3809,-2.381 z m 2.3809,-11.9048 c -1.4286,0 -2.3809,0.9524 -2.3809,2.381 0,1.4286 0.9523,2.3809 2.3809,2.3809 1.4286,0 2.381,-0.9523 2.381,-2.3809 0,-1.4286 -0.9524,-2.381 -2.381,-2.381 z"
   fill="#1a237e"
   fill-rule="nonzero"
   opacity="1"
   stroke="none"
   vectornator:layerName="path 5"
   id="path6"
   style="clip-rule:evenodd;display:inline;fill-rule:nonzero;stroke-linecap:round;stroke-linejoin:round;filter:url(#filter613)" />&#10;</g>&#10;</svg>
