<svg width="100%" height="100%" viewBox="0 0 512 512" xml:space="preserve" xmlns="http://www.w3.org/2000/svg" xmlns:vectornator="http://vectornator.io" xmlns:xlink="http://www.w3.org/1999/xlink">
<defs>
<linearGradient gradientTransform="matrix(1.00594 0 0 1 -0.711677 0)" gradientUnits="userSpaceOnUse" id="LinearGradient" x1="47.3605" x2="528.234" y1="216.621" y2="112.259">
<stop offset="0" stop-color="#ffffff"/>
<stop offset="1" stop-color="#c6d7fd"/>
</linearGradient>
<filter color-interpolation-filters="sRGB" filterUnits="userSpaceOnUse" height="482.045" id="Filter" width="302.486" x="103.24" y="40.2391">
<feDropShadow dx="-1" dy="1.73205" flood-color="#000000" flood-opacity="0.4" in="SourceGraphic" result="Shadow" stdDeviation="5.5"/>
</filter>
<filter color-interpolation-filters="sRGB" filterUnits="userSpaceOnUse" height="496.446" id="Filter_2" width="192.361" x="212.235" y="25.6564">
<feDropShadow dx="-1" dy="1.73205" flood-color="#000000" flood-opacity="0.4" in="SourceGraphic" result="Shadow" stdDeviation="5.5"/>
</filter>
<filter color-interpolation-filters="sRGB" filterUnits="userSpaceOnUse" height="176.488" id="Filter_3" width="205.241" x="129.465" y="-11.0179">
<feDropShadow dx="-1" dy="1.73205" flood-color="#000000" flood-opacity="0.4" in="SourceGraphic" result="Shadow" stdDeviation="5.5"/>
</filter>
<filter color-interpolation-filters="sRGB" filterUnits="userSpaceOnUse" height="527.93" id="Filter_4" width="299.664" x="104.366" y="-4.80472">
<feDropShadow dx="-1.80465" dy="2.87988" flood-color="#000000" flood-opacity="0.44" in="SourceGraphic" result="Shadow" stdDeviation="3.45023"/>
</filter>
<filter color-interpolation-filters="sRGB" filterUnits="userSpaceOnUse" height="43.5619" id="Filter_5" width="43.5694" x="199.331" y="304.594">
<feDropShadow dx="-1" dy="1.73205" flood-color="#000000" flood-opacity="0.4" in="SourceGraphic" result="Shadow" stdDeviation="5.5"/>
</filter>
<filter color-interpolation-filters="sRGB" filterUnits="userSpaceOnUse" height="43.6007" id="Filter_6" width="43.7539" x="303.783" y="287.846">
<feDropShadow dx="-1" dy="1.73205" flood-color="#000000" flood-opacity="0.4" in="SourceGraphic" result="Shadow" stdDeviation="5.5"/>
</filter>
<filter color-interpolation-filters="sRGB" filterUnits="userSpaceOnUse" height="43.5658" id="Filter_7" width="43.6465" x="262.418" y="434.257">
<feDropShadow dx="-1" dy="1.73205" flood-color="#000000" flood-opacity="0.4" in="SourceGraphic" result="Shadow" stdDeviation="5.5"/>
</filter>
<filter color-interpolation-filters="sRGB" filterUnits="userSpaceOnUse" height="64.1625" id="Filter_8" width="80.9793" x="124.672" y="324.605">
<feDropShadow dx="-1" dy="1.73205" flood-color="#000000" flood-opacity="0.4" in="SourceGraphic" result="Shadow" stdDeviation="5.5"/>
</filter>
<filter color-interpolation-filters="sRGB" filterUnits="userSpaceOnUse" height="60.3808" id="Filter_9" width="79.348" x="125.31" y="330.731">
<feDropShadow dx="-1.80465" dy="2.87988" flood-color="#000000" flood-opacity="0.44" in="SourceGraphic" result="Shadow" stdDeviation="3.45023"/>
</filter>
<filter color-interpolation-filters="sRGB" filterUnits="userSpaceOnUse" height="110.034" id="Filter_10" width="83.4821" x="321.666" y="199.506">
<feDropShadow dx="-0.951477" dy="1.64801" flood-color="#000000" flood-opacity="0.4" in="SourceGraphic" result="Shadow" stdDeviation="5.23313"/>
</filter>
<filter color-interpolation-filters="sRGB" filterUnits="userSpaceOnUse" height="109.056" id="Filter_11" width="79.1469" x="324.884" y="200.732">
<feDropShadow dx="-1.80465" dy="2.87988" flood-color="#000000" flood-opacity="0.44" in="SourceGraphic" result="Shadow" stdDeviation="3.45023"/>
</filter>
<filter color-interpolation-filters="sRGB" filterUnits="userSpaceOnUse" height="102.322" id="Filter_12" width="210.59" x="162.423" y="284.274">
<feDropShadow dx="-1" dy="1.73205" flood-color="#000000" flood-opacity="0.4" in="SourceGraphic" result="Shadow" stdDeviation="5.5"/>
</filter>
</defs>
<g opacity="1" layerName="Statue">
<path d="M367.579 505L172.013 505C167.141 498.061 190.898 454.933 197.752 445.536C219.137 416.217 211.342 365.948 211.342 365.948C211.342 365.948 197.376 357.941 191.117 349.273C184.859 340.605 186.281 338.67 186.281 338.67C160.706 331.819 136.924 359.541 141.98 366.962C130.592 346.122 114.192 283.725 121.683 270.344C130.153 255.213 204.87 210.078 213.592 195.568C215.983 191.59 219.244 195.839 208.62 161.793C200.938 137.174 196.804 115.695 192.722 92.2985C204.481 83.2821 220.863 67.4832 228.148 54.057C263.039 55.6958 270.541 156.389 233.994 151.655C234.984 156.235 241.15 176.062 241.15 176.062L304.669 196.552C361.751 211.296 399.104 212.016 389.74 273.105C386.877 291.782 348.696 415.071 353.785 444.649C355.701 455.781 382.103 505.362 367.579 505Z" fill="url(#LinearGradient)" filter="url(#Filter)" stroke="#e9effd" stroke-linecap="butt" stroke-linejoin="round" stroke-width="3.6" layerName="Curve 14" shadowAngle="2.0944" shadowColor="#000000" shadowOffset="2" shadowOpacity="0.4" shadowRadius="11"/>
<path d="M238.585 37.6743C236.399 44.3156 229.541 49.6682 226.985 53.5515C243.486 55.258 256.207 83.0235 256.583 106.58C257.158 142.678 244.593 152.85 233.427 152.796C235.493 161.203 258.595 215.71 258.595 215.71C258.595 215.71 325.332 226.411 334.647 229.344C368.355 239.957 360.506 259.988 353.364 280.528C344.505 306.006 323.751 360.655 322.441 368.236C321.317 374.734 315.906 411.522 324.423 442.91C331.819 470.169 331.669 499.41 327.169 506.443L373.395 506.621C373.395 506.621 373.985 499.34 371.682 488.797C367.128 467.943 358.311 460.034 354.147 442.91C348.555 419.918 381.281 321.355 390.473 270.159C395.206 243.801 387.38 223.993 371.962 213.04C357.612 202.846 280.773 190.071 280.773 190.071C280.773 190.071 272.374 178.045 267.338 161.219C276.991 157.628 296.333 150.851 297.307 107.594C297.784 86.4008 294.276 69.4578 288.526 56.5C288.025 56.0886 287.561 55.6063 287.026 55.25C280.185 50.6962 254.013 50.5014 238.585 37.6743Z" fill="#b6c9f5" filter="url(#Filter_2)" layerName="Curve 2" shadowAngle="2.0944" shadowColor="#000000" shadowOffset="2" shadowOpacity="0.4" shadowRadius="11"/>
<path d="M249.789 6.06103C239.555 6.63102 229.458 11.2009 222.079 19.9517C186.274 6.30708 136.474 39.6119 158.094 78.3894L157.879 78.692C141.542 94.4479 144.322 149.403 201.399 144.704C197.178 131.7 181.234 100.676 195.69 83.755C206.703 70.8634 227.179 66.2388 231.66 40.875C248.713 56.3933 268.694 57.2398 275.535 61.7209C294.892 74.4014 292.215 117.529 292.215 117.529C334.726 104.961 315.812 42.0535 285.156 33.7516C281.926 24.5381 269.197 6.89736 254.187 6.06103C252.727 5.97972 251.251 5.9796 249.789 6.06103Z" fill="#6480cc" filter="url(#Filter_3)" stroke="#6480cc" stroke-linecap="round" stroke-linejoin="round" stroke-width="10" layerName="Curve 11" shadowAngle="2.0944" shadowColor="#000000" shadowOffset="2" shadowOpacity="0.4" shadowRadius="11"/>
<path d="M222.088 19.9375C186.284 6.29288 139.146 38.1989 158.088 78.375L157.87 78.6875C141.533 94.4434 145.108 147.951 202.879 143.373C202.879 143.373 220.496 194.359 216.113 197.331C201.303 210.957 130.103 255.213 121.682 270.344C114.633 283.011 128.821 339.195 139.963 362.875L141.807 367.281C146.044 376.643 163.175 373.479 176.62 368.562C184.938 365.521 191.196 357.872 192.588 351.344C199.322 359.151 207.284 364.19 210.807 365.938C211.557 369.081 218.565 416.212 197.307 445.531C190.494 454.928 167.87 499.681 172.713 506.62L374.401 506.62C374.401 506.62 373.985 499.324 371.682 488.781C367.127 467.927 358.315 460.031 354.151 442.906C348.56 419.914 382.247 322.028 391.439 270.832C396.172 244.474 377.8 217.336 371.708 214.238C370.46 213.603 360.458 208.718 355.084 207.116C328.13 199.081 280.776 190.875 280.776 190.875C280.776 190.875 272.374 178.045 267.338 161.219C276.991 157.628 289.819 150.531 292.215 117.529C336.174 101.262 318.396 36.3819 285.156 33.7516C278.592 16.0691 264.872 7.4895 249.906 6.06409C238.512 4.97897 229.467 11.1867 222.088 19.9375ZM232.458 46.2294C236.933 58.6697 214.133 71.6696 193.29 90.1237C190.194 99.1221 194.411 110.397 195.978 116.747C198.227 125.862 204.251 146.813 204.251 146.813M237.066 154.341C286.654 182.25 298.678 126.63 289.773 87.9772C287.301 77.2495 282.999 66.9782 275.535 61.7209C270.837 58.4124 264.495 59.1846 257.798 56.507C252.198 54.2679 244.681 53.7435 234.015 51.9117C232.226 46.5345 228.702 32.9809 222.088 19.9375" fill="none" filter="url(#Filter_4)" stroke="#3e59a5" stroke-linecap="round" stroke-linejoin="round" stroke-width="10" layerName="Curve 11" shadowAngle="2.13058" shadowColor="#000000" shadowOffset="3.3986" shadowOpacity="0.44" shadowRadius="6.90045"/>
<path d="M222.151 324.612L222.081 324.674" fill="none" filter="url(#Filter_5)" stroke="#3e59a5" stroke-linecap="round" stroke-linejoin="round" stroke-width="16" layerName="Curve 3" shadowAngle="2.0944" shadowColor="#000000" shadowOffset="2" shadowOpacity="0.4" shadowRadius="11"/>
<path d="M326.787 307.864L326.533 307.965" fill="none" filter="url(#Filter_6)" stroke="#3e59a5" stroke-linecap="round" stroke-linejoin="round" stroke-width="16" layerName="Curve 4" shadowAngle="2.0944" shadowColor="#000000" shadowOffset="2" shadowOpacity="0.4" shadowRadius="11"/>
<path d="M285.315 454.34L285.168 454.275" fill="none" filter="url(#Filter_7)" stroke="#3e59a5" stroke-linecap="round" stroke-linejoin="round" stroke-width="16" layerName="Curve 5" shadowAngle="2.0944" shadowColor="#000000" shadowOffset="2" shadowOpacity="0.4" shadowRadius="11"/>
<path d="M176.613 368.55C187.54 364.554 194.964 352.62 192.389 345.701C190.617 340.938 182.362 332.351 165.233 339.135C150.659 344.907 136.919 360.878 139.81 367.266C144.047 376.628 163.168 373.467 176.613 368.55Z" fill="#6480cc" filter="url(#Filter_8)" layerName="Curve 15" shadowAngle="2.0944" shadowColor="#000000" shadowOffset="2" shadowOpacity="0.4" shadowRadius="11"/>
<path d="M141.807 367.281C132.457 347.089 187.468 329.951 192.588 351.344C196.644 368.288 149.751 384.436 141.807 367.281Z" fill="none" filter="url(#Filter_9)" stroke="#3e59a5" stroke-linecap="round" stroke-linejoin="round" stroke-width="10" layerName="Curve 10" shadowAngle="2.13058" shadowColor="#000000" shadowOffset="3.3986" shadowOpacity="0.44" shadowRadius="6.90045"/>
<path d="M352.522 214.593C335.488 221.329 335.201 248.928 343.008 264.857C351.659 282.507 364.959 294.524 378.061 292.125C389.433 290.043 394.74 267.402 386.954 242.044C381.938 225.706 368.074 208.442 352.522 214.593Z" fill="#6480cc" filter="url(#Filter_10)" stroke="#6480cc" stroke-linecap="round" stroke-linejoin="round" stroke-width="4.75739" layerName="Curve 6" shadowAngle="2.0944" shadowColor="#000000" shadowOffset="1.90295" shadowOpacity="0.4" shadowRadius="10.4663"/>
<path d="M360.976 211.522C364.887 211.278 368.682 212.01 371.721 214.229C384.325 223.429 395.239 252.693 391.446 270.829C387.315 290.58 378.406 303.452 356.261 282.682C333.025 260.889 335.68 213.103 360.976 211.522Z" fill="none" filter="url(#Filter_11)" stroke="#3e59a5" stroke-linecap="round" stroke-linejoin="round" stroke-width="10" layerName="Curve 8" shadowAngle="2.13058" shadowColor="#000000" shadowOffset="3.3986" shadowOpacity="0.44" shadowRadius="6.90045"/>
<path d="M182.173 301.292L191.05 323.343L191.05 323.343C184.407 359.218 214.954 370.778 242.124 364.483C258.218 360.753 273.127 350.758 278.418 335.84L279.858 335.116C295.712 357.611 342.856 357.19 355.263 342.54" fill="none" filter="url(#Filter_12)" stroke="#3e59a5" stroke-linecap="round" stroke-linejoin="round" stroke-width="10" layerName="Curve 3" shadowAngle="2.0944" shadowColor="#000000" shadowOffset="2" shadowOpacity="0.4" shadowRadius="11"/>
</g>
</svg>