<svg width="100%" height="100%" viewBox="6.19391 6.94201 86.1673 90.264" version="1.1" xml:space="preserve" xmlns="http://www.w3.org/2000/svg" xmlns:xlink="http://www.w3.org/1999/xlink"><defs><filter color-interpolation-filters="sRGB" filterUnits="userSpaceOnUse" height="90.264" id="Filter_zxcv" width="86.1673" x="6.19391" y="6.94201"><feDropShadow dx="-0.722418" dy="2.07403" flood-color="#000000" flood-opacity="0.8" in="SourceGraphic" result="Shadow" stdDeviation="1.03159"/></filter></defs><g id="zxcv-48"><path id="zxcv-19" shadowAngle="1.90597" shadowColor="#000000" shadowOffset="2.19624" shadowOpacity="0.8" shadowRadius="2.06318" fill="#9c27b0" filter="url(#Filter_zxcv)" stroke="none" d="M90.5047 69.5202C90.5047 73.8374 89.5995 77.4893 87.7736 80.4602C85.9554 83.4467 83.348 85.791 79.9515 87.5202C76.3461 89.35 72.203 90.6575 67.5067 91.4196C62.8065 92.1739 61.147 92.553 54.7872 92.553L9.4953 92.553L9.4953 85.6517C10.7332 85.5434 17.3521 84.0231 17.3521 78.0966L17.3521 23.1258C17.3521 15.946 10.7332 15.1026 9.4953 14.9092L9.4953 7.44696L55.735 7.44696C67.3713 7.44696 69.8123 9.0485 74.9728 12.24C80.1334 15.4469 82.7098 20.1626 82.7098 26.3985C82.7098 38.3405 73.1585 45.4662 70.0405 46.1896L70.0405 47.3269C73.1585 47.648 90.5047 51.0058 90.5047 69.5202ZM61.4642 29.9769C61.4642 26.4527 60.1334 23.6984 57.4758 21.7293C54.8182 19.737 51.7195 18.7545 46.4043 18.7545C45.646 18.7545 44.6557 18.7815 43.441 18.8241C42.2186 18.8705 41.1664 18.9092 40.2882 18.9363L40.2882 42.5416L43.4062 42.5416C49.8859 42.5416 53.7737 41.4082 56.853 39.149C59.9207 36.8937 61.4642 33.8414 61.4642 29.9769ZM64.6131 67.3114C64.6131 62.8046 62.9303 59.3385 59.5493 56.9361C56.1799 54.5261 52.1876 53.323 45.8588 53.323C45.1315 53.323 44.1644 53.3462 42.9575 53.3926C41.7544 53.4468 40.8608 53.4777 40.2844 53.5048L40.2844 81.2571C40.2844 81.2571 46.6402 81.2571 49.2089 81.2571C53.7737 81.2571 57.4758 80.0424 60.3346 77.6015C63.1856 75.1643 64.6131 71.7291 64.6131 67.3114Z"/></g></svg>
