<svg width="100%" height="100%" viewBox="0 0 100 100" version="1.1" xml:space="preserve" xmlns="http://www.w3.org/2000/svg" xmlns:xlink="http://www.w3.org/1999/xlink"><defs><linearGradient gradientTransform="matrix(103.207 -107.52 108.303 104.251 -3.89689 103.967)" gradientUnits="userSpaceOnUse" id="LinearGradient_Bear" x1="0" x2="1" y1="0" y2="0"><stop offset="0" stop-color="#ff3b38"/><stop offset="1" stop-color="#bd2725"/></linearGradient><filter color-interpolation-filters="sRGB" filterUnits="userSpaceOnUse" height="105.5" id="Filter_Bear" width="105.046" x="-2.52321" y="-1.75"><feDropShadow dx="-3.67321e-06" dy="1" flood-color="#000000" flood-opacity="0.49" in="SourceGraphic" result="Shadow" stdDeviation="1.5"/></filter><radialGradient cx="0" cy="0" gradientTransform="matrix(47.3032 1.19109 -1.10896 47.3032 49.1537 49.5705)" gradientUnits="userSpaceOnUse" id="RadialGradient_Bear" r="1"><stop offset="0" stop-color="#d04947"/><stop offset="0.542982" stop-color="#d03432" stop-opacity="0.854795"/><stop offset="1" stop-color="#9f2a29" stop-opacity="0"/></radialGradient><linearGradient gradientTransform="matrix(23.0471 62.9538 -62.9538 23.0471 51.0201 77.3124)" gradientUnits="userSpaceOnUse" id="LinearGradient_Bear_2" x1="0" x2="1" y1="0" y2="0"><stop offset="0" stop-color="#e1dfdf"/><stop offset="1" stop-color="#ffffff"/></linearGradient><filter color-interpolation-filters="sRGB" filterUnits="userSpaceOnUse" height="52.9948" id="Filter_Bear_2" width="37.9711" x="32.014" y="47.3804"><feDropShadow dx="0.312413" dy="-0.262302" flood-color="#000000" flood-opacity="0.33" in="SourceGraphic" result="Shadow" stdDeviation="0.655011"/></filter><filter color-interpolation-filters="sRGB" filterUnits="userSpaceOnUse" height="80.3959" id="Filter_Bear_3" width="78.0322" x="7.51424" y="19.9445"><feDropShadow dx="0.133891" dy="-0.112415" flood-color="#000000" flood-opacity="0.33" in="SourceGraphic" result="Shadow" stdDeviation="0.655011"/></filter></defs><g id="Bear"><g opacity="1" id="BearGroup-1"><path id="Oval-1" shadowAngle="1.5708" shadowColor="#000000" shadowOffset="1" shadowOpacity="0.49" shadowRadius="3" d="M1.22679 49.9999C1.22679 22.938 23.0633 1 50 1C76.9367 1 98.7732 22.938 98.7732 49.9999C98.7732 70.6853 86.0149 88.377 67.9726 95.5658C64.7734 96.8405 61.4081 97.785 57.9183 98.3574C55.3412 98.7801 52.6961 98.9999 50 98.9999C48.883 98.9999 47.7747 98.9621 46.6764 98.8879C37.0508 98.2371 28.1906 94.7808 20.8991 89.326C15.616 85.3737 11.1565 80.3722 7.82621 74.6287C3.63032 67.3924 1.22679 58.9782 1.22679 49.9999Z" fill="url(#LinearGradient_Bear)" filter="url(#Filter_Bear)" stroke="none"/><path id="Oval-2" d="M1.22679 49.9999C1.22679 22.938 23.0633 1 50 1C76.9367 1 98.7732 22.938 98.7732 49.9999C98.7732 77.0618 76.9367 98.9999 50 98.9999C23.0633 98.9999 1.22679 77.0618 1.22679 49.9999Z" fill="url(#RadialGradient_Bear)" opacity="1" stroke="none"/><path id="Bear-3" shadowAngle="5.58476" shadowColor="#000000" shadowOffset="0.407927" shadowOpacity="0.33" shadowRadius="1.31002" d="M33.8624 49.2802C30.7881 57.4289 42.1596 88.8882 44.6068 98.5998C45.3018 98.677 45.9659 98.8293 46.6695 98.8769C47.7678 98.9511 48.8773 99 49.9944 99C52.6905 99 55.3293 98.7762 57.9064 98.3535C61.3962 97.7811 64.7744 96.8266 67.9735 95.5519C67.995 95.5434 68.0137 95.5297 68.0351 95.5212C64.8119 90.4994 59.9292 82.6765 57.7833 77.111C55.1246 70.2156 53.479 66.519 60.1846 61.8718L33.8624 49.2802Z" fill="url(#LinearGradient_Bear_2)" filter="url(#Filter_Bear_2)" stroke="none"/><path id="Bear-3" shadowAngle="5.58476" shadowColor="#000000" shadowOffset="0.174825" shadowOpacity="0.33" shadowRadius="1.31002" fill="#fbfbfb" filter="url(#Filter_Bear_3)" stroke="none" d="M32.0152 21.7881C31.2245 21.6601 30.4218 21.6477 29.6139 21.8497C27.956 22.2641 27.148 25.2309 27.1202 26.6523C27.0867 28.3562 27.1549 30.059 27.1202 31.7628C27.1016 32.675 22.4753 38.6731 21.671 40.0136C16.7284 48.2514 13.1559 56.0636 10.8035 65.4738C10.4399 66.9281 9.51353 72.2941 9.01788 76.4645C12.199 81.4245 16.2018 85.8173 20.9014 89.3331C22.599 90.6032 24.4006 91.738 26.2582 92.7812C26.7701 93.0605 27.2811 93.2768 27.7975 93.5508C33.4135 96.4477 39.6207 98.3078 46.2385 98.8153C47.577 89.9113 48.3453 77.6054 43.7448 69.9378C40.7105 64.8807 32.6029 55.5776 33.8624 49.2802C34.3209 50.6558 35.5891 51.9543 36.4792 53.0669C41.7232 59.6219 46.7127 61.1851 55.6283 61.7794C65.7763 62.4559 78.1389 60.9797 82.4739 50.1422C83.3563 47.9362 84.7167 43.9803 82.8125 42.0762C82.6054 41.8691 73.9623 39.195 72.4683 38.5974C65.3815 35.7627 61.4575 28.8131 54.0889 27.1757C49.5022 26.1564 44.6218 27.7712 40.1736 26.7447C39.7063 26.6369 38.8762 25.456 38.4187 25.113C36.6258 23.7683 34.3874 22.172 32.0152 21.7881Z"/></g></g></svg>
