<svg xmlns="http://www.w3.org/2000/svg" xmlns:xlink="http://www.w3.org/1999/xlink" width="100%" height="100%" version="1.1" viewBox="0 0 100 100" xml:space="preserve"><defs><filter id="Filter_zxcv" width="8.922" height="13.567" x="3.763" y="73.081" color-interpolation-filters="sRGB" filterUnits="userSpaceOnUse"><feDropShadow dx="0" dy=".964" flood-color="#000" flood-opacity=".4" in="SourceGraphic" result="Shadow" stdDeviation=".5"/></filter><filter id="Filter_zxcv_2" width="99.228" height="101.271" x="-1.895" y="-1.907" color-interpolation-filters="sRGB" filterUnits="userSpaceOnUse"><feDropShadow dx="-.707" dy=".655" flood-color="#000" flood-opacity=".65" in="SourceGraphic" result="Shadow" stdDeviation="1.445"/></filter><filter id="Filter_zxcv_3" width="85.129" height="77.648" x="9.297" y="17.449" color-interpolation-filters="sRGB" filterUnits="userSpaceOnUse"><feDropShadow dx="0" dy=".964" flood-color="#000" flood-opacity=".4" in="SourceGraphic" result="Shadow" stdDeviation=".5"/></filter><filter id="Filter_zxcv_4" width="91.347" height="74.438" x="2.425" y="20.277" color-interpolation-filters="sRGB" filterUnits="userSpaceOnUse"><feDropShadow dx="0" dy=".979" flood-color="#000" flood-opacity=".65" in="SourceGraphic" result="Shadow" stdDeviation="1.468"/></filter><filter id="Filter_zxcv_5" width="89.657" height="72.858" x="2.984" y="20.427" color-interpolation-filters="sRGB" filterUnits="userSpaceOnUse"><feDropShadow dx="0" dy=".964" flood-color="#000" flood-opacity=".65" in="SourceGraphic" result="Shadow" stdDeviation="1.445"/></filter><filter id="Filter_zxcv_6" width="87.736" height="72.913" x="4.045" y="19.145" color-interpolation-filters="sRGB" filterUnits="userSpaceOnUse"><feDropShadow dx="0" dy=".964" flood-color="#000" flood-opacity=".65" in="SourceGraphic" result="Shadow" stdDeviation="1.445"/></filter><filter id="Filter_zxcv_7" width="83.671" height="73.155" x="6.637" y="17.704" color-interpolation-filters="sRGB" filterUnits="userSpaceOnUse"><feDropShadow dx="0" dy=".964" flood-color="#000" flood-opacity=".65" in="SourceGraphic" result="Shadow" stdDeviation="1.445"/></filter><filter id="Filter_zxcv_8" width="81.813" height="75.96" x="3.763" y="1.051" color-interpolation-filters="sRGB" filterUnits="userSpaceOnUse"><feDropShadow dx="0" dy=".964" flood-color="#000" flood-opacity=".4" in="SourceGraphic" result="Shadow" stdDeviation=".5"/></filter><filter id="Filter_zxcv_9" width="45.95" height="54.493" x="18.962" y="16.105" color-interpolation-filters="sRGB" filterUnits="userSpaceOnUse"><feDropShadow dx="0" dy=".964" flood-color="#000" flood-opacity=".65" in="SourceGraphic" result="Shadow" stdDeviation="1.445"/></filter></defs><g id="Book-Reference"><g id="zxcvGroup-2" opacity="1"><path id="zxcv-2" fill="#828282" stroke="none" d="M5.01337 73.9599L10.2509 73.3676L11.4353 83.8427L6.1978 84.4349L5.01337 73.9599Z" filter="url(#Filter_zxcv)" shadowAngle="1.571" shadowColor="#000000" shadowOffset=".964" shadowOpacity=".4" shadowRadius="1"/><g id="zxcvGroup-1" filter="url(#Filter_zxcv_2)" shadowAngle="2.394" shadowColor="#000000" shadowOffset=".964" shadowOpacity=".65" shadowRadius="2.89"><path id="zxcv" fill="#85827f" stroke="none" d="M33.1352 17.7351L10.547 75.9864L11.4353 83.8427C11.4353 83.8427 20.8577 89.682 37.9059 92.0625C47.3482 93.3809 58.9949 93.0563 72.9965 91.4731L93.1762 29.9668C53.8947 34.4084 35.9545 22.5431 33.1352 17.7351Z" filter="url(#Filter_zxcv_3)" shadowAngle="1.571" shadowColor="#000000" shadowOffset=".964" shadowOpacity=".4" shadowRadius="1"/><path id="zxcv-3" fill="#d8d7d6" stroke="none" d="M7.54358 79.8733C7.54358 79.8733 39.4294 96.5367 69.0218 87.2523L90.1019 24.9873C90.1019 24.9873 64.4127 36.0365 35.9989 22.9679L6.09456 74.4282L7.54358 79.8733Z" filter="url(#Filter_zxcv_4)" shadowAngle="1.571" shadowColor="#000000" shadowOffset=".979" shadowOpacity=".65" shadowRadius="2.936"/><path id="zxcv-3" fill="#d8d7d6" stroke="none" d="M8.26907 79.2279C8.26907 79.2279 39.087 94.9747 68.2279 85.8792L89.027 25.0109C89.027 25.0109 63.7277 35.8282 35.7633 23.0767L6.59663 74.1139L8.26907 79.2279Z" filter="url(#Filter_zxcv_5)" shadowAngle="1.571" shadowColor="#000000" shadowOffset=".964" shadowOpacity=".65" shadowRadius="2.89"/><path id="zxcv-3" fill="#d8d7d6" stroke="none" d="M7.65812 78.3474C7.65812 78.3474 37.4232 93.7202 66.9896 84.5801L88.1682 23.6558C88.1682 23.6558 62.4954 34.5132 34.1526 21.795L7.71855 73.1142L7.65812 78.3474Z" filter="url(#Filter_zxcv_6)" shadowAngle="1.571" shadowColor="#000000" shadowOffset=".964" shadowOpacity=".65" shadowRadius="2.89"/><path id="zxcv-1" fill="#d8d7d6" stroke="none" d="M10.8431 78.6052C10.8431 78.6052 36.755 92.2518 65.8959 83.1564L86.695 22.288C86.695 22.288 61.3956 33.1054 33.4313 20.3539L10.2497 73.3572L10.8431 78.6052Z" filter="url(#Filter_zxcv_7)" shadowAngle="1.571" shadowColor="#000000" shadowOffset=".964" shadowOpacity=".65" shadowRadius="2.89"/><path id="zxcv-2" fill="#828282" stroke="none" d="M5.01337 73.9599L10.2509 73.3676L11.4353 83.8427L6.1978 84.4349L5.01337 73.9599Z" opacity="1"/><path id="zxcv-3" fill="#ff3d00" stroke="none" d="M5.01337 73.9599L10.2509 73.3676C20.1541 74.7251 44.9806 77.5062 60.0075 67.7416L84.3261 1.33789C84.3261 1.33789 61.9417 14.4779 32.8391 15.1163L27.6016 15.7086L5.01337 73.9599Z" filter="url(#Filter_zxcv_8)" shadowAngle="1.571" shadowColor="#000000" shadowOffset=".964" shadowOpacity=".4" shadowRadius="1"/><path id="zxcv-4" fill="#dd2c00" stroke="none" d="M5.01337 73.9599L10.2509 73.3676L32.8391 15.1163L27.6016 15.7086L5.01337 73.9599Z" opacity="1"/><path id="zxcv-5" fill="#ffccbc" stroke="none" d="M59.0907 43.9644L61.0812 39.8008C61.7652 36.0925 60.8939 34.6262 57.6676 34.991C56.0518 35.1737 52.7245 35.3961 53.0111 33.8492C53.3015 32.2887 53.284 32.1342 54.2545 31.311C55.1622 30.5427 56.47 29.7238 57.3809 25.958C58.6985 20.4409 55.4958 18.1295 50.3206 18.8977C44.613 19.742 43.729 23.8866 42.9992 26.8389C42.5493 28.6296 43.6961 30.8207 44.8229 31.4969C45.4782 31.8976 44.8702 32.6426 44.5609 33.895C44.099 35.6977 40.8359 35.9951 39.4046 36.7536C35.6684 38.7542 35.2389 39.2722 33.6628 43.1132C32.3085 46.3827 29.7858 52.5241 29.7858 52.5241C36.6852 52.2506 51.8132 52.317 59.0907 43.9644ZM35.7204 63.3744C36.33 62.4091 37.7087 61.6776 38.7797 62.4477C39.2787 62.8024 39.2302 63.5001 39.676 63.9006C40.155 64.3132 40.6881 64.2662 41.2871 64.1693C42.7433 63.9357 43.2661 62.4841 43.9832 61.3899C44.5096 60.6036 45.5108 58.6922 46.6314 59.1729C47.5851 59.5849 47.7334 60.7324 48.8596 60.9578C49.8311 61.153 50.5782 60.8404 51.3624 60.3168C52.489 59.5608 52.5515 59.2461 52.9892 58.027C53.8003 55.7471 54.6248 53.4685 55.472 51.0864C54.4619 51.8637 53.3568 52.4342 52.2643 53.0935C51.5262 53.5324 50.7261 53.9385 50.2578 54.6996C49.842 55.3619 49.4221 55.9637 48.584 55.894C47.4657 55.7844 48.2978 54.7461 47.4879 54.5035C46.7858 54.2991 45.3194 54.9821 44.6577 55.1816C43.5122 55.5127 42.6317 55.7475 42.1079 56.9552C41.6167 58.0769 40.9193 60.2829 39.2492 59.6336C37.9234 59.1204 39.4897 57.1159 38.0417 56.6007C37.0221 56.2386 35.2432 56.8084 34.6756 57.6762C33.9806 58.7547 33.6973 60.4948 32.4713 61.1453C31.0307 61.9155 30.2301 60.7224 30.339 59.4105C30.4227 58.4621 31.317 56.942 29.7798 56.9514C28.4894 56.962 26.2014 56.3137 25.5879 57.6429C25.1665 58.5604 24.8818 59.5846 24.5367 60.5439C23.8859 62.3415 23.2288 64.153 22.5748 65.9456C22.6226 65.8049 25.2977 66.078 25.6163 66.0101C26.8303 65.7694 27.3224 64.5388 28.1046 63.7396C28.7529 63.0695 30.4436 62.3294 31.3127 62.8384C32.3704 63.4668 31.7807 65.0771 33.2594 65.3714C34.6605 65.6585 35.141 64.3258 35.7204 63.3744Z" filter="url(#Filter_zxcv_9)" shadowAngle="1.571" shadowColor="#000000" shadowOffset=".964" shadowOpacity=".65" shadowRadius="2.89"/></g></g></g></svg>