<svg width="100%" height="100%" viewBox="0 0 100 100" version="1.1" xml:space="preserve" xmlns="http://www.w3.org/2000/svg" xmlns:xlink="http://www.w3.org/1999/xlink"><defs><linearGradient gradientTransform="matrix(86.1243 -79.6909 79.6909 86.1243 4.82952 93.2057)" gradientUnits="userSpaceOnUse" id="LG" x1="0" x2="1" y1="0" y2="0"><stop offset="0" stop-color="#fff" stop-opacity="0.4"/><stop offset="0.515789" stop-color="#ffd000" stop-opacity="0.4"/><stop offset="1" stop-color="#ffd300" stop-opacity="0.718823"/></linearGradient><linearGradient gradientTransform="matrix(-6.11299 -141.821 -141.821 6.11299 48.5704 102.357)" gradientUnits="userSpaceOnUse" id="LG_2" x1="0" x2="1" y1="0" y2="0"><stop offset="0" stop-color="#ff005b"/><stop offset="0.478947" stop-color="#ff1a8c"/><stop offset="1" stop-color="#ff01bb"/></linearGradient><linearGradient gradientTransform="matrix(86.1243 -79.6909 79.6909 86.1243 4.82952 93.2057)" gradientUnits="userSpaceOnUse" id="LG_3" x1="0" x2="1" y1="0" y2="0"><stop offset="0" stop-color="#fff" stop-opacity="0.4"/><stop offset="0.515789" stop-color="#ffd000" stop-opacity="0.4"/><stop offset="1" stop-color="#ffd300" stop-opacity="0.718823"/></linearGradient></defs><g id="ZXCV"><g opacity="1"><path fill="url(#LG)" opacity="1" stroke="none" d="M28.4765 35.9756L87.6661 35.9756C90.6256 35.9756 93.0469 33.5543 93.0469 30.5948L93.0469 7.50278C93.0469 3.91105 90.1359 1 86.5442 1L15.0244 1C19.3748 1 23.0957 4.09131 23.0957 9.0713L23.0957 30.5948C23.0957 33.5543 25.5171 35.9756 28.4765 35.9756Z"/><path fill="url(#LG_2)" opacity="1" stroke="none" d="M14.8333 1.09955L83.512 1.09955C79.5948 1.09955 76.9043 4.12359 76.9043 7.84715L76.9043 93.6101C76.9043 97.818 72.2902 100.398 68.7066 98.1946L44.7483 83.4645C43.021 82.4018 40.8391 82.4018 39.1118 83.4645L15.1535 98.1946C11.5672 100.398 6.95306 97.8206 6.95306 93.6101L6.95306 8.97983C6.95306 4.6267 10.4829 1.09955 14.8333 1.09955Z"/><g opacity="1"><path fill="#ff016b" opacity="0.1" stroke="none" d="M76.9 36.0429L76.9 1.09955L84.9756 1.09955C84.9756 3.78729 84.9756 5.79973 84.9756 7.84715L84.9756 36.0429L76.9 36.0429Z"/><path fill="#ff016b" opacity="0.2" stroke="none" d="M76.9 36.0429L76.9 1.09955L84.4725 1.09955C83.2565 3.24651 82.9578 5.79973 82.9578 7.84715L82.9578 36.0429L76.9 36.0429Z"/><path fill="#ff016b" opacity="0.3" stroke="none" d="M76.9 1.09955L83.9694 1.09955C81.5346 2.70574 80.94 5.79704 80.94 7.84715L80.94 36.0429L76.9 36.0429L76.9 1.09955Z"/><path fill="#ff016b" opacity="0.4" stroke="none" d="M76.9 1.09955L83.469 1.09955C79.8181 2.16496 78.9222 5.79973 78.9222 7.84715L78.9222 36.0429L76.9 36.0429L76.9 1.09955Z"/><g opacity="1"><path fill="#ff016b" opacity="0.1" stroke="none" d="M76.9 36.0429L76.9 1.09955L84.9756 1.09955C84.9756 3.78729 84.9756 5.79973 84.9756 7.84715L84.9756 36.0429L76.9 36.0429Z"/><path fill="#ff016b" opacity="0.2" stroke="none" d="M76.9 36.0429L76.9 1.09955L84.4725 1.09955C83.2565 3.24651 82.9578 5.79973 82.9578 7.84715L82.9578 36.0429L76.9 36.0429Z"/><path fill="#ff016b" opacity="0.3" stroke="none" d="M76.9 1.09955L83.9694 1.09955C81.5346 2.70574 80.94 5.79704 80.94 7.84715L80.94 36.0429L76.9 36.0429L76.9 1.09955Z"/><path fill="#ff016b" opacity="0.4" stroke="none" d="M76.9 1.09955L83.469 1.09955C79.8181 2.16496 78.9222 5.79973 78.9222 7.84715L78.9222 36.0429L76.9 36.0429L76.9 1.09955Z"/></g></g><g opacity="1"><path fill="#e8005d" fill-opacity="0.839084" opacity="0.05" stroke="none" d="M15.0244 1.09955L83.512 1.09955C79.5948 1.09955 76.9043 4.12359 76.9043 7.84715L76.9043 44.1061L28.4765 44.1061C21.059 44.1061 15.0244 38.0769 15.0244 30.6674C15.0244 30.6674 15.0163 8.95292 15.0244 8.97445L15.0244 1.09955Z"/><path fill="#e8005d" fill-opacity="0.839084" opacity="0.1" stroke="none" d="M15.0244 1.09955L83.512 1.09955C79.5948 1.09955 76.9043 4.12359 76.9043 7.84715L76.9043 42.7609L28.4765 42.7609C21.8016 42.7609 16.3696 37.3343 16.3696 30.6647C16.3696 30.6647 16.3615 8.98521 16.3696 9.00404C16.3696 8.17539 15.7481 1.09955 15.0244 1.09955Z"/><path fill="#e8005d" fill-opacity="0.839084" opacity="0.2" stroke="none" d="M15.0244 1.09955L83.512 1.09955C79.5948 1.09955 76.9043 4.12359 76.9043 7.84715L76.9043 41.4184L28.4765 41.4184C22.5441 41.4184 17.7148 36.5918 17.7148 30.6674C17.7148 30.6674 17.7094 9.02287 17.7148 9.03902C17.7148 7.37902 16.4745 1.09955 15.0244 1.09955Z"/><path fill="#e8005d" fill-opacity="0.839084" opacity="0.3" stroke="none" d="M15.0244 1.09955L83.512 1.09955C79.5948 1.09955 76.9043 4.12359 76.9043 7.84715L76.9043 40.0732L28.4765 40.0732C23.2894 40.0732 19.06 35.8492 19.06 30.6647C19.06 30.6647 19.0546 9.05516 19.06 9.06592C19.06 6.57996 17.1982 1.09955 15.0244 1.09955Z"/><path fill="#e8005d" fill-opacity="0.839084" opacity="0.4" stroke="none" d="M15.0244 1.09955L83.512 1.09955C79.5948 1.09955 76.9043 4.12359 76.9043 7.84715L76.9043 38.7306L28.4765 38.7306C24.0319 38.7306 20.4052 35.1066 20.4052 30.6674C20.4052 30.6674 20.4025 9.09283 20.4052 9.1009C20.4052 5.78359 17.9246 1.09955 15.0244 1.09955Z"/><path fill="#e8005d" fill-opacity="0.839084" opacity="0.5" stroke="none" d="M15.0244 1.09955L83.512 1.09955C79.5948 1.09955 76.9043 4.12359 76.9043 7.84715L76.9043 37.3854L28.4765 37.3854C24.7745 37.3854 21.7504 34.3641 21.7504 30.6647C21.7504 30.6647 21.7478 9.12511 21.7504 9.13049C21.7504 4.98453 18.6484 1.09955 15.0244 1.09955Z"/></g><path fill="url(#LG_3)" opacity="0.817839" stroke="none" d="M28.4765 35.9756L87.6661 35.9756C90.6256 35.9756 93.0469 33.5543 93.0469 30.5948L93.0469 7.50278C93.0469 3.91105 90.1359 1 86.5442 1L15.0244 1C19.3748 1 23.0957 4.09131 23.0957 9.0713L23.0957 30.5948C23.0957 33.5543 25.5171 35.9756 28.4765 35.9756Z"/></g></g></svg>