<svg id="Button.BW" xmlns="http://www.w3.org/2000/svg" xml:space="preserve" viewBox="0 0 100 100"><defs><linearGradient id="h" x1="0" x2="1" y1="0" y2="0" gradientTransform="matrix(-.1 11.77 -11.77 -.1 16.404 37.701)" gradientUnits="userSpaceOnUse"><stop offset="0"/><stop offset="1" stop-color="#424242"/></linearGradient><linearGradient id="i" x1="0" x2="1" y1="0" y2="0" gradientTransform="matrix(-.18 13.71 -13.71 -.18 28.46 37.033)" gradientUnits="userSpaceOnUse"><stop offset="0"/><stop offset="1" stop-color="#424242"/></linearGradient><linearGradient id="j" x1="0" x2="1" y1="0" y2="0" gradientTransform="rotate(88.921 1.76 38.72) scale(13.62)" gradientUnits="userSpaceOnUse"><stop offset="0"/><stop offset="1" stop-color="#424242"/></linearGradient><linearGradient id="k" x1="0" x2="1" y1="0" y2="0" gradientTransform="rotate(90.675 8.4 44.491) scale(12.37)" gradientUnits="userSpaceOnUse"><stop offset="0"/><stop offset="1" stop-color="#424242"/></linearGradient><linearGradient id="l" x1="0" x2="1" y1="0" y2="0" gradientTransform="matrix(.15 13.53 -13.53 .15 64.698 36.64)" gradientUnits="userSpaceOnUse"><stop offset="0"/><stop offset="1" stop-color="#424242"/></linearGradient><linearGradient id="m" x1="0" x2="1" y1="0" y2="0" gradientTransform="matrix(-.07 13.17 -13.17 -.07 78.853 36.58)" gradientUnits="userSpaceOnUse"><stop offset="0"/><stop offset="1" stop-color="#424242"/></linearGradient><filter id="a" width="99.623" height="77.933" x=".188" y="11.034" color-interpolation-filters="sRGB" filterUnits="userSpaceOnUse"><feDropShadow dx="0" dy="0" flood-color="#000" flood-opacity=".333" in="SourceGraphic" result="Shadow" stdDeviation=".925"/></filter><filter id="b" width="95.36" height="72.529" x="2.32" y="14.274" color-interpolation-filters="sRGB" filterUnits="userSpaceOnUse"><feDropShadow dx="0" dy="0" flood-color="#000" flood-opacity=".333" in="SourceGraphic" result="Shadow" stdDeviation=".833"/></filter><filter id="d" width="87.061" height="66.03" x="6.47" y="17.815" color-interpolation-filters="sRGB" filterUnits="userSpaceOnUse"><feDropShadow dx="0" dy=".291" flood-color="#000" flood-opacity=".333" in="SourceGraphic" result="Shadow" stdDeviation=".338"/></filter><filter id="e" width="76.564" height="4.99" x="11.718" y="20.803" color-interpolation-filters="sRGB" filterUnits="userSpaceOnUse"><feDropShadow dx="0" dy=".291" flood-color="#000" flood-opacity=".333" in="SourceGraphic" result="Shadow" stdDeviation=".338"/></filter><filter id="f" width="83.075" height="19.842" x="8.462" y="60.408" color-interpolation-filters="sRGB" filterUnits="userSpaceOnUse"><feDropShadow dx="0" dy=".291" flood-color="#000" flood-opacity=".333" in="SourceGraphic" result="Shadow" stdDeviation=".338"/></filter><filter id="g" width="78.96" height="16.237" x="10.52" y="35.336" color-interpolation-filters="sRGB" filterUnits="userSpaceOnUse"><feDropShadow dx="0" dy=".291" flood-color="#000" flood-opacity=".333" in="SourceGraphic" result="Shadow" stdDeviation=".513"/></filter><radialGradient id="c" cx="0" cy="0" r="1" gradientTransform="matrix(-.95 108.49 91.82 1.12 45.99 42.18)" gradientUnits="userSpaceOnUse"><stop offset="0" stop-color="#fff"/><stop offset=".365" stop-color="#fff"/><stop offset=".802" stop-color="#7c808a"/></radialGradient></defs><path fill="#1a1a1a" d="M8.916 13.345c-3.73 0-6.416 3.816-6.416 8.269v56.772c0 4.453 2.687 8.269 6.416 8.269h82.168c3.73 0 6.416-3.816 6.416-8.269V21.614c0-4.453-2.687-8.269-6.416-8.269H8.916Zm0 4.431h82.168c.968 0 2.087 1.575 2.087 3.838v56.772c0 2.263-1.12 3.838-2.087 3.838H8.916c-.968 0-2.087-1.575-2.087-3.838V21.614c0-2.263 1.12-3.838 2.087-3.838Z" filter="url(#a)"/><path fill="#262626" d="M10.562 16.357c-3.58 0-6.158 3.558-6.158 7.71V77.01c0 4.153 2.579 7.71 6.158 7.71h78.876c3.58 0 6.159-3.557 6.159-7.71V24.068c0-4.153-2.58-7.711-6.16-7.711H10.563Zm0 4.132h78.876c.928 0 2.003 1.468 2.003 3.579v52.941c0 2.11-1.075 3.579-2.003 3.579H10.562c-.928 0-2.003-1.468-2.003-3.579V24.068c0-2.11 1.075-3.579 2.003-3.579Z" filter="url(#b)"/><path fill="url(#c)" d="M11.316 82.708h77.368c2.21 0 4.001-2.54 4.001-5.677V24.045c0-3.135-1.791-5.677-4.001-5.677H11.316c-2.21 0-4.001 2.542-4.001 5.678V77.03c0 3.136 1.791 5.677 4.001 5.677Z" filter="url(#d)"/><path d="M79.299 21.357c-.9 0-1.628.739-1.628 1.65 0 .912.729 1.65 1.628 1.65.899 0 1.627-.738 1.627-1.65 0-.911-.728-1.65-1.627-1.65Zm-6.511 0c-.9 0-1.628.739-1.628 1.65 0 .912.729 1.65 1.628 1.65a1.64 1.64 0 0 0 1.627-1.65c0-.911-.728-1.65-1.627-1.65Zm-6.51 0a1.64 1.64 0 0 0-1.629 1.65c0 .912.73 1.65 1.628 1.65a1.64 1.64 0 0 0 1.628-1.65c0-.911-.729-1.65-1.628-1.65Zm-6.512 0a1.64 1.64 0 0 0-1.627 1.65c0 .912.728 1.65 1.627 1.65a1.64 1.64 0 0 0 1.628-1.65c0-.911-.729-1.65-1.628-1.65Zm-6.51 0c-.9 0-1.628.739-1.628 1.65 0 .912.728 1.65 1.627 1.65a1.64 1.64 0 0 0 1.628-1.65c0-.911-.729-1.65-1.628-1.65Zm-6.511 0c-.9 0-1.628.739-1.628 1.65 0 .912.729 1.65 1.628 1.65a1.64 1.64 0 0 0 1.627-1.65c0-.911-.728-1.65-1.627-1.65Zm-6.511 0c-.9 0-1.628.739-1.628 1.65 0 .912.729 1.65 1.628 1.65a1.64 1.64 0 0 0 1.627-1.65 1.64 1.64 0 0 0-1.627-1.65Zm-6.511 0c-.899 0-1.628.739-1.628 1.65 0 .912.729 1.65 1.628 1.65a1.64 1.64 0 0 0 1.628-1.65 1.64 1.64 0 0 0-1.628-1.65Zm52.086 0c-.898 0-1.627.739-1.627 1.65 0 .912.728 1.65 1.627 1.65a1.64 1.64 0 0 0 1.628-1.65 1.64 1.64 0 0 0-1.628-1.65Zm-58.597 0c-.899 0-1.628.739-1.628 1.65 0 .912.73 1.65 1.628 1.65.9 0 1.628-.738 1.628-1.65 0-.911-.729-1.65-1.628-1.65Zm-6.51 0c-.9 0-1.628.739-1.628 1.65 0 .912.728 1.65 1.627 1.65a1.64 1.64 0 0 0 1.628-1.65c0-.911-.729-1.65-1.628-1.65Zm-6.511 0a1.64 1.64 0 0 0-1.628 1.65c0 .912.729 1.65 1.628 1.65a1.64 1.64 0 0 0 1.627-1.65c0-.911-.729-1.65-1.627-1.65Z" filter="url(#e)"/><path d="M30.468 70.862c-.9 0-1.628.74-1.628 1.65 0 .912.729 1.65 1.628 1.65.899 0 1.627-.738 1.627-1.65 0-.91-.728-1.65-1.627-1.65Zm6.51 0c-.899 0-1.627.74-1.627 1.65 0 .912.728 1.65 1.627 1.65a1.64 1.64 0 0 0 1.628-1.65 1.64 1.64 0 0 0-1.628-1.65Zm6.511 0c-.899 0-1.627.74-1.627 1.65 0 .912.728 1.65 1.627 1.65a1.64 1.64 0 0 0 1.628-1.65 1.64 1.64 0 0 0-1.628-1.65Zm6.511 0c-.899 0-1.628.74-1.628 1.65 0 .912.729 1.65 1.628 1.65a1.64 1.64 0 0 0 1.628-1.65A1.64 1.64 0 0 0 50 70.862Zm6.51 0c-.898 0-1.627.74-1.627 1.65 0 .912.729 1.65 1.628 1.65a1.64 1.64 0 0 0 1.628-1.65 1.64 1.64 0 0 0-1.628-1.65Zm6.512 0a1.64 1.64 0 0 0-1.628 1.65c0 .912.729 1.65 1.628 1.65.899 0 1.627-.738 1.627-1.65 0-.91-.728-1.65-1.627-1.65Zm6.51 0a1.64 1.64 0 0 0-1.627 1.65c0 .912.728 1.65 1.627 1.65.9 0 1.628-.738 1.628-1.65 0-.91-.729-1.65-1.627-1.65Zm6.511 0a1.64 1.64 0 0 0-1.628 1.65c0 .912.73 1.65 1.628 1.65a1.64 1.64 0 0 0 1.628-1.65 1.64 1.64 0 0 0-1.628-1.65Zm-52.086 0a1.64 1.64 0 0 0-1.628 1.65c0 .912.729 1.65 1.628 1.65.899 0 1.627-.738 1.627-1.65 0-.91-.728-1.65-1.627-1.65Zm-13.022 0a1.64 1.64 0 0 0-1.628 1.65c0 .912.73 1.65 1.628 1.65.9 0 1.628-.738 1.628-1.65 0-.91-.729-1.65-1.628-1.65Zm6.511 0a1.64 1.64 0 0 0-1.628 1.65c0 .912.729 1.65 1.628 1.65.899 0 1.628-.738 1.628-1.65 0-.91-.73-1.65-1.628-1.65Zm65.108 0c-.899 0-1.628.74-1.628 1.65 0 .912.73 1.65 1.628 1.65.9 0 1.628-.738 1.628-1.65 0-.91-.729-1.65-1.628-1.65Zm6.51 0c-.898 0-1.627.74-1.627 1.65 0 .912.729 1.65 1.628 1.65a1.64 1.64 0 0 0 1.628-1.65 1.64 1.64 0 0 0-1.628-1.65Zm-61.852 4.95a1.64 1.64 0 0 0-1.628 1.651c0 .911.73 1.65 1.628 1.65.9 0 1.628-.739 1.628-1.65 0-.911-.729-1.65-1.628-1.65Zm6.51 0c-.898 0-1.627.74-1.627 1.651s.729 1.65 1.628 1.65a1.64 1.64 0 0 0 1.628-1.65 1.64 1.64 0 0 0-1.628-1.65Zm6.512 0c-.9 0-1.628.74-1.628 1.651s.729 1.65 1.628 1.65a1.64 1.64 0 0 0 1.627-1.65 1.64 1.64 0 0 0-1.627-1.65Zm6.51 0c-.898 0-1.627.74-1.627 1.651s.729 1.65 1.628 1.65a1.64 1.64 0 0 0 1.627-1.65 1.64 1.64 0 0 0-1.627-1.65Zm6.511 0c-.899 0-1.627.74-1.627 1.651s.728 1.65 1.627 1.65a1.64 1.64 0 0 0 1.628-1.65 1.64 1.64 0 0 0-1.628-1.65Zm6.511 0c-.899 0-1.627.74-1.627 1.651s.728 1.65 1.627 1.65c.9 0 1.628-.739 1.628-1.65 0-.911-.729-1.65-1.628-1.65Zm6.511 0a1.64 1.64 0 0 0-1.628 1.651c0 .911.73 1.65 1.628 1.65.899 0 1.628-.739 1.628-1.65 0-.911-.729-1.65-1.628-1.65Zm6.51 0a1.64 1.64 0 0 0-1.627 1.651c0 .911.729 1.65 1.628 1.65.899 0 1.627-.739 1.627-1.65 0-.911-.728-1.65-1.627-1.65Zm-52.086 0a1.64 1.64 0 0 0-1.627 1.651c0 .911.728 1.65 1.627 1.65.9 0 1.628-.739 1.628-1.65 0-.911-.729-1.65-1.628-1.65Zm-6.51 0a1.64 1.64 0 0 0-1.628 1.651c0 .911.729 1.65 1.628 1.65.898 0 1.627-.739 1.627-1.65 0-.911-.729-1.65-1.627-1.65Zm65.108 0a1.64 1.64 0 0 0-1.628 1.651c0 .911.729 1.65 1.628 1.65.899 0 1.627-.739 1.627-1.65 0-.911-.728-1.65-1.627-1.65Zm6.51 0c-.898 0-1.627.74-1.627 1.651s.728 1.65 1.627 1.65c.9 0 1.628-.739 1.628-1.65 0-.911-.728-1.65-1.628-1.65Zm-6.51-14.85a1.64 1.64 0 0 0-1.628 1.65c0 .91.729 1.65 1.628 1.65.899 0 1.627-.74 1.627-1.65 0-.912-.728-1.65-1.627-1.65Zm-6.511 0a1.64 1.64 0 0 0-1.628 1.65c0 .91.729 1.65 1.628 1.65.899 0 1.627-.74 1.627-1.65 0-.912-.728-1.65-1.627-1.65Zm-6.51 0a1.64 1.64 0 0 0-1.629 1.65c0 .91.73 1.65 1.628 1.65.899 0 1.628-.74 1.628-1.65 0-.912-.729-1.65-1.628-1.65Zm-6.512 0c-.899 0-1.627.738-1.627 1.65 0 .91.728 1.65 1.627 1.65.9 0 1.628-.74 1.628-1.65 0-.912-.729-1.65-1.628-1.65Zm-6.51 0c-.9 0-1.628.738-1.628 1.65 0 .91.728 1.65 1.627 1.65a1.64 1.64 0 0 0 1.628-1.65 1.64 1.64 0 0 0-1.628-1.65Zm-6.511 0c-.9 0-1.628.738-1.628 1.65 0 .91.729 1.65 1.628 1.65a1.64 1.64 0 0 0 1.627-1.65 1.64 1.64 0 0 0-1.627-1.65Zm-6.511 0c-.9 0-1.628.738-1.628 1.65 0 .91.729 1.65 1.628 1.65a1.64 1.64 0 0 0 1.627-1.65 1.64 1.64 0 0 0-1.627-1.65Zm-6.511 0c-.899 0-1.628.738-1.628 1.65 0 .91.729 1.65 1.628 1.65a1.64 1.64 0 0 0 1.628-1.65 1.64 1.64 0 0 0-1.628-1.65Zm52.086 0c-.898 0-1.627.738-1.627 1.65 0 .91.728 1.65 1.627 1.65.9 0 1.628-.74 1.628-1.65 0-.912-.728-1.65-1.628-1.65Zm-58.597 0a1.64 1.64 0 0 0-1.628 1.65c0 .91.73 1.65 1.628 1.65.9 0 1.628-.74 1.628-1.65 0-.912-.729-1.65-1.628-1.65Zm-6.51 0a1.64 1.64 0 0 0-1.628 1.65c0 .91.728 1.65 1.627 1.65.9 0 1.628-.74 1.628-1.65 0-.912-.729-1.65-1.628-1.65Zm-6.511 0a1.64 1.64 0 0 0-1.628 1.65c0 .91.729 1.65 1.628 1.65.898 0 1.627-.74 1.627-1.65 0-.912-.729-1.65-1.627-1.65Z" filter="url(#f)"/><g filter="url(#g)"><path fill="url(#h)" d="M24.313 45.716c0-1.96-1.253-3.19-3.236-3.623.843-.707 1.276-1.55 1.276-2.416 0-1.892-1.39-2.94-3.692-2.94h-6.859V49.59h7.794c2.985 0 4.717-1.732 4.717-3.874ZM18.82 40.61c0 .479-.228.912-.684 1.345h-2.894v-2.644h1.983c1.094 0 1.595.525 1.595 1.3Zm1.914 5.105c0 .82-.524 1.299-1.982 1.299h-3.51v-2.62h3.464c1.413 0 2.028.523 2.028 1.32Z"/><path fill="url(#i)" d="M36.962 49.59V36.737h-3.44v8.865c-.958.889-2.029 1.436-2.78 1.436-1.3 0-1.824-.866-1.824-2.074v-8.227h-3.441v9.23c0 2.483 1.527 3.828 4.056 3.828 1.368 0 2.735-.638 3.988-1.459v1.254h3.441Z"/><path fill="url(#j)" d="M50.181 39.45v-2.713H38.126v2.712h4.307v10.14h3.441V39.45h4.307Z"/><path fill="url(#k)" d="M62.557 39.45v-2.713H50.502v2.712h4.307v10.14h3.441V39.45h4.307Z"/><path fill="url(#l)" d="M75.548 42.981c0-3.35-2.142-6.654-6.677-6.654-4.33 0-6.63 3.555-6.63 7.042 0 3.35 2.118 6.631 6.63 6.631 4.376 0 6.677-3.532 6.677-7.019Zm-3.669 0c0 2.051-1.048 4.148-3.008 4.148-2.005 0-2.962-1.869-2.962-3.806 0-2.028 1.071-4.125 2.962-4.125 2.074 0 3.008 1.869 3.008 3.783Z"/><path fill="url(#m)" d="M88.198 49.59v-8.158c0-1.345-.137-2.097-.41-2.712-.684-1.55-2.097-2.188-3.647-2.188-1.412 0-2.916.524-4.101 1.459l-.228-1.254h-3.1V49.59h3.442v-8.865c.774-.752 1.845-1.413 2.78-1.413.797 0 1.253.297 1.526.752.206.342.297.775.297 1.596v7.93h3.44Z"/></g></svg>