<svg height="100%" viewBox="0 0 100 100" width="100%" xml:space="preserve" xmlns="http://www.w3.org/2000/svg" xmlns:vectornator="http://vectornator.io" xmlns:xlink="http://www.w3.org/1999/xlink">
<defs>
<radialGradient cx="7.42861" cy="7.90362" gradientTransform="matrix(-5.62286 -6.88602e-16 0 4.98639 106.229 -4.62877)" gradientUnits="userSpaceOnUse" id="RadialGradient" r="13.0269">
<stop offset="0.644737" stop-color="#ffffff"/>
<stop offset="0.946053" stop-color="#c3c3c3"/>
<stop offset="1" stop-color="#979797"/>
</radialGradient>
<radialGradient cx="9.96835" cy="3.66052" gradientTransform="matrix(-6.18085 -7.56936e-16 0 5.68817 111.533 -10.3338)" gradientUnits="userSpaceOnUse" id="RadialGradient_2" r="6.02973">
<stop offset="0" stop-color="#2622ff"/>
<stop offset="0.246625" stop-color="#1817ff"/>
<stop offset="0.590035" stop-color="#0002ca"/>
<stop offset="1" stop-color="#0400bf"/>
</radialGradient>
<filter color-interpolation-filters="sRGB" filterUnits="userSpaceOnUse" height="29.9176" id="Filter" width="76.4748" x="11.7626" y="4.36273">
<feDropShadow dx="-7.29954e-06" dy="1.98724" flood-color="#000000" flood-opacity="0.5" in="SourceGraphic" result="Shadow" stdDeviation="1.79929"/>
</filter>
<radialGradient cx="10.0249" cy="10.4444" gradientTransform="matrix(-5.62286 -6.88602e-16 0 4.98639 106.229 -4.62877)" gradientUnits="userSpaceOnUse" id="RadialGradient_3" r="16.0472">
<stop offset="0.763158" stop-color="#ffffff"/>
<stop offset="0.882895" stop-color="#c3c3c3"/>
<stop offset="1" stop-color="#979797"/>
</radialGradient>
<filter color-interpolation-filters="sRGB" filterUnits="userSpaceOnUse" height="86.403" id="Filter_2" width="103.559" x="-1.77959" y="15.3025">
<feDropShadow dx="-1.02205e-05" dy="2.78244" flood-color="#000000" flood-opacity="0.7" in="SourceGraphic" result="Shadow" stdDeviation="2.3187"/>
</filter>
<radialGradient cx="50.3949" cy="60.6477" gradientTransform="matrix(-1.21283 -1.48529e-16 0 1.09472 110.642 -9.81803)" gradientUnits="userSpaceOnUse" id="RadialGradient_4" r="28.614">
<stop offset="0" stop-color="#2622ff"/>
<stop offset="0.246625" stop-color="#1817ff"/>
<stop offset="0.590035" stop-color="#0002ca"/>
<stop offset="1" stop-color="#0400bf"/>
</radialGradient>
<filter color-interpolation-filters="sRGB" filterUnits="userSpaceOnUse" height="50.0894" id="Filter_3" width="61.2211" x="19.3895" y="35.3944">
<feComponentTransfer in="SourceGraphic" result="Alpha">
<feFuncA slope="0" type="linear"/>
</feComponentTransfer>
<feDropShadow dx="-4.04823e-06" dy="1.1021" flood-color="#000000" flood-opacity="0.7" in="Alpha" result="Shadow" stdDeviation="1.65315"/>
</filter>
<linearGradient gradientTransform="matrix(1.04205 0 0 1.09377 -6.44622 15.2725)" gradientUnits="userSpaceOnUse" id="LinearGradient" x1="-17.4044" x2="64.0847" y1="58.207" y2="103.049">
<stop offset="0" stop-color="#ffffff"/>
<stop offset="0" stop-color="#006b2b"/>
<stop offset="0.494165" stop-color="#00ff82"/>
<stop offset="1" stop-color="#00af5a"/>
</linearGradient>
<filter color-interpolation-filters="sRGB" filterUnits="userSpaceOnUse" height="47.7436" id="Filter_4" width="90.9798" x="4.21218" y="36.948">
<feDropShadow dx="-0.297941" dy="0.818577" flood-color="#000000" flood-opacity="0.5" in="SourceGraphic" result="Shadow" stdDeviation="1.25166"/>
</filter>
</defs>
<g opacity="1" layerName="Group 1">
<path d="M90.36 18.3168C93.4525 18.3168 95.9828 20.5607 95.9828 23.3032L95.9828 88.1399C95.9828 90.9323 93.4525 93.1263 90.36 93.1263L9.63997 93.1263C6.54745 93.1263 4.01718 90.9323 4.01718 88.1399L4.01718 23.3032C4.01718 20.5607 6.54745 18.3168 9.63997 18.3168L19.4257 18.3168L16.2629 21.4332L16.2629 30.2759L83.7371 30.2759L83.7371 21.4332L80.5742 18.3168L90.36 18.3168Z" fill="url(#RadialGradient)" opacity="1" layerName="path 1"/>
<path d="M64.3995 6.87371L83.7392 21.6177L83.6199 27.7949L16.2608 27.7949L16.3376 21.4934L35.0449 6.87371L64.3995 6.87371ZM49.7247 11.7308C46.3252 11.7308 43.5438 14.2903 43.5438 17.4188C43.5438 20.6042 46.3252 23.107 49.7247 23.107C53.1241 23.107 55.9054 20.6042 55.9054 17.4188C55.9054 14.2903 53.1241 11.7308 49.7247 11.7308Z" fill="url(#RadialGradient_2)" filter="url(#Filter)" layerName="path" shadowAngle="1.5708" shadowColor="#000000" shadowOffset="1.98724" shadowOpacity="0.5" shadowRadius="3.59857"/>
<path d="M90.36 18.3168C93.4525 18.3168 95.9828 20.5607 95.9828 23.3032L95.9828 88.1399C95.9828 90.9323 93.4525 93.1263 90.36 93.1263L9.63997 93.1263C6.54745 93.1263 4.01718 90.9323 4.01718 88.1399L4.01718 23.3032C4.01718 20.5607 6.54745 18.3168 9.63997 18.3168L19.4257 18.3168L16.2629 21.4332L16.2629 30.2759L83.7371 30.2759L83.7371 21.4332L80.5742 18.3168L90.36 18.3168Z" fill="url(#RadialGradient_3)" filter="url(#Filter_2)" layerName="path 1" shadowAngle="1.5708" shadowColor="#000000" shadowOffset="2.78244" shadowOpacity="0.7" shadowRadius="4.6374"/>

<path d="M34.3979 80.0584L7.63928 65.5915L7.63928 60.2103L34.3979 45.7399L34.3979 54.1086L17.6951 62.8992L34.3979 71.6862L34.3979 80.0584ZM50.0411 80.7438L42.3963 80.7438L57.609 39.2586L65.3074 39.2586L50.0411 80.7438ZM65.6021 80.0479L65.6021 71.6827L82.4221 62.8992L65.6021 54.1157L65.6021 45.7469L92.3607 60.1541L92.3607 65.6442L65.6021 80.0479Z" fill="url(#LinearGradient)" filter="url(#Filter_4)" layerName="path" shadowAngle="1.91987" shadowColor="#000000" shadowOffset="0.871113" shadowOpacity="0.5" shadowRadius="2.50333"/>
</g>
</svg>
