<svg width="100%" height="100%" viewBox="0 0 128 128" version="1.1" xml:space="preserve" xmlns="http://www.w3.org/2000/svg" xmlns:xlink="http://www.w3.org/1999/xlink"><defs><linearGradient gradientTransform="matrix(516.474 0 0 516.474 -203.237 55.0233)" gradientUnits="userSpaceOnUse" id="LG" x1="0" x2="1" y1="0" y2="0"><stop offset="0" stop-color="#fff"/><stop offset="0.980702" stop-color="#fff" stop-opacity="0.461733"/></linearGradient><linearGradient gradientTransform="matrix(516.474 0 0 516.474 -203.237 55.0233)" gradientUnits="userSpaceOnUse" id="LG_2" x1="0" x2="1" y1="0" y2="0"><stop offset="0" stop-color="#fff"/><stop offset="0.980702" stop-color="#fff" stop-opacity="0.461733"/></linearGradient><linearGradient gradientTransform="matrix(0.182195 -14.105 -18.5103 -0.2927 63.9541 110.911)" gradientUnits="userSpaceOnUse" id="LG_3" x1="0" x2="1" y1="0" y2="0"><stop offset="0" stop-color="#999999"/><stop offset="1" stop-color="#fff"/></linearGradient><linearGradient gradientTransform="matrix(15.9382 -15.6865 -11.5128 -11.5453 59.1545 118.194)" gradientUnits="userSpaceOnUse" id="LG_4" x1="0" x2="1" y1="0" y2="0"><stop offset="0" stop-color="#fff" stop-opacity="0.461733"/><stop offset="1" stop-color="#fff"/></linearGradient><linearGradient gradientTransform="matrix(15.9546 -16.6149 22.5747 22.0932 60.0742 120.178)" gradientUnits="userSpaceOnUse" id="LG_5" x1="0" x2="1" y1="0" y2="0"><stop offset="0" stop-color="#999999"/><stop offset="1" stop-color="#fff"/></linearGradient><linearGradient gradientTransform="matrix(15.0639 13.5858 9.56514 -11.3093 48.0969 98.5701)" gradientUnits="userSpaceOnUse" id="LG_6" x1="0" x2="1" y1="0" y2="0"><stop offset="0" stop-color="#999999"/><stop offset="1" stop-color="#fff"/></linearGradient><linearGradient gradientTransform="matrix(0.161702 21.171 -22.0215 -0.605682 62.3802 86.9311)" gradientUnits="userSpaceOnUse" id="LG_7" x1="0" x2="1" y1="0" y2="0"><stop offset="0" stop-color="#fff"/><stop offset="1" stop-color="#b3b3b3" stop-opacity="0.7"/></linearGradient><linearGradient gradientTransform="matrix(-31.7225 30.5476 21.9592 23.4315 87.787 92.0594)" gradientUnits="userSpaceOnUse" id="LG_8" x1="0" x2="1" y1="0" y2="0"><stop offset="0" stop-color="#fff"/><stop offset="1" stop-color="#b3b3b3" stop-opacity="0.6"/></linearGradient><linearGradient gradientTransform="matrix(-20.1925 -20.3659 -15.0488 14.5214 59.0906 112.197)" gradientUnits="userSpaceOnUse" id="LG_9" x1="0" x2="1" y1="0" y2="0"><stop offset="0" stop-color="#fff"/><stop offset="1" stop-color="#b3b3b3" stop-opacity="0.6"/></linearGradient><linearGradient gradientTransform="matrix(-68.2446 -106.495 93.446 -59.8827 104.568 117.419)" gradientUnits="userSpaceOnUse" id="LG_10" x1="0" x2="1" y1="0" y2="0"><stop offset="0" stop-color="#8c8c8c" stop-opacity="0.572633"/><stop offset="1" stop-color="#fff" stop-opacity="0.9"/></linearGradient><linearGradient gradientTransform="matrix(-1.83864 41.5411 -39.0544 1.83756 74.7139 87.4811)" gradientUnits="userSpaceOnUse" id="LG_11" x1="0" x2="1" y1="0" y2="0"><stop offset="0" stop-color="#fff"/><stop offset="0.980702" stop-color="#fff" stop-opacity="0.461733"/></linearGradient><filter color-interpolation-filters="sRGB" filterUnits="userSpaceOnUse" height="53.9629" id="F" width="24.6788" x="51.6606" y="34.6162"><feGaussianBlur in="SourceGraphic" result="Blur" stdDeviation="2.24992"/></filter><linearGradient gradientTransform="matrix(-2.37336 35.5904 -33.5283 0.827032 65.0679 94.9125)" gradientUnits="userSpaceOnUse" id="LG_12" x1="0" x2="1" y1="0" y2="0"><stop offset="0" stop-color="#fff"/><stop offset="0.980702" stop-color="#fff" stop-opacity="0.461733"/></linearGradient><filter color-interpolation-filters="sRGB" filterUnits="userSpaceOnUse" height="54.6079" id="F_2" width="27.1538" x="50.4231" y="33.3787"><feGaussianBlur in="SourceGraphic" result="Blur" stdDeviation="2.74491"/></filter></defs><g id="cloud-download"><g opacity="0" id="ZXCVGroup-3"><path id="Text-1" fill="url(#LG)" opacity="1" stroke="none" d="M183.547 197.323C197.016 197.323 209.59 195.029 221.271 190.44C232.952 185.851 243.172 179.504 251.933 171.399C260.694 163.294 267.517 153.878 272.404 143.151C277.291 132.424 279.734 120.922 279.734 108.645C279.734 96.1302 277.47 84.3601 272.94 73.3349C268.411 62.3098 261.915 52.5361 253.453 44.014C244.99 35.4918 234.919 28.7874 223.238 23.9005C223.238 3.99566 219.96-14.3299 213.405-31.0762C206.849-47.8225 197.642-62.3638 185.782-74.7001C173.923-87.0363 160.096-96.5716 144.304-103.306C128.511-110.04 111.437-113.407 93.0815-113.407C76.8715-113.407 62.2408-110.815 49.1894-105.63C36.1381-100.445 24.5765-93.5322 14.5049-84.8909C4.4333-76.2495-4.17823-66.6845-11.3297-56.1957C-22.2952-59.4138-33.231-59.9204-44.137-57.7154C-55.0429-55.5103-64.9655-51.1003-73.9049-44.4852C-82.8442-37.8701-90.0552-29.5267-95.538-19.4551C-101.021-9.3835-103.881 1.90983-104.12 14.4249C-117.588 16.5703-129.239 21.6955-139.072 29.8005C-148.906 37.9054-156.474 48.0963-161.778 60.3729C-167.082 72.6496-169.734 86.0585-169.734 100.6C-169.734 113.711-167.052 126.107-161.689 137.787C-156.325 149.468-148.786 159.748-139.072 168.628C-129.358 177.508-118.005 184.51-105.014 189.635C-92.0219 194.761-77.8977 197.323-62.6413 197.323L183.547 197.323Z"/><path id="Text-2" fill="url(#LG_2)" opacity="1" stroke="none" d="M-72.6534 164.605L37.8365 164.605L37.8365 55.1881C37.8365 50.3013 39.6542 46.0998 43.2895 42.5837C46.9248 39.0676 51.2455 37.3095 56.2515 37.3095C61.1383 37.3095 65.3994 39.0676 69.0347 42.5837C72.67 46.0998 74.4877 50.3013 74.4877 55.1881L74.4877 164.605L193.738 164.605C210.902 164.605 225.92 161.328 238.792 154.772C251.665 148.217 261.707 139.307 268.918 128.043C276.129 116.78 279.734 104.116 279.734 90.0514C279.734 72.5304 274.698 56.3502 264.627 41.511C254.555 26.6717 240.759 15.6168 223.238 8.34613C223.238-11.5587 219.96-29.8843 213.405-46.6306C206.849-63.3769 197.642-77.8884 185.782-90.1651C173.923-102.442 160.096-111.977 144.304-118.771C128.511-125.565 111.437-128.962 93.0815-128.962C76.8715-128.962 62.2408-126.369 49.1894-121.184C36.1381-116 24.5765-109.057 14.5049-100.356C4.4333-91.655-4.17823-82.1197-11.3297-71.7501C-21.4609-74.4915-31.9199-74.7299-42.7067-72.4652C-53.4934-70.2006-63.4757-65.8203-72.6534-59.3244C-81.831-52.8286-89.3103-44.6342-95.091-34.7413C-100.872-24.8485-103.881-13.585-104.12-0.950754C-117.588 1.19468-129.239 6.23049-139.072 14.1567C-148.906 22.0829-156.474 31.9757-161.778 43.8352C-167.082 55.6947-169.734 68.5375-169.734 82.3636C-169.734 97.62-165.712 111.446-157.666 123.842C-149.621 136.238-138.327 146.131-123.786 153.521C-109.245 160.91-92.2006 164.605-72.6534 164.605ZM56.2515 270.804C58.0394 270.804 59.7378 270.447 61.3469 269.732C62.956 269.016 64.6545 267.765 66.4423 265.977L126.872 207.693C128.302 206.382 129.375 204.951 130.09 203.402C130.805 201.852 131.163 200.124 131.163 198.217C131.163 194.641 129.911 191.662 127.408 189.278C124.905 186.894 121.806 185.702 118.112 185.702C114.178 185.702 110.96 187.132 108.457 189.993L81.2816 218.956L69.3029 231.471L70.3756 204.832L70.3756 164.426C70.3756 160.612 68.9751 157.335 66.1741 154.593C63.3732 151.852 60.0656 150.481 56.2515 150.481C52.3182 150.481 48.9511 151.852 46.1501 154.593C43.3491 157.335 41.9486 160.612 41.9486 164.426L41.9486 204.832L43.0213 231.65L31.0426 218.956L3.86715 189.993C1.36414 187.132-1.91361 185.702-5.9661 185.702C-9.66101 185.702-12.7302 186.894-15.1736 189.278C-17.617 191.662-18.8387 194.641-18.8387 198.217C-18.8387 200.124-18.4811 201.852-17.766 203.402C-17.0508 204.951-15.9781 206.382-14.5478 207.693L45.8819 265.977C47.6698 267.765 49.3682 269.016 50.9773 269.732C52.5864 270.447 54.3445 270.804 56.2515 270.804Z"/></g><g opacity="0" id="ZXCVGroup-1"><path id="ZXCV-4" fill="url(#LG_3)" opacity="1" stroke="none" d="M64 84.9844C65.4815 84.9844 66.8135 86.1803 66.8135 87.648L66.8135 106.999L66.8135 107.158L64 109.945L61.1865 107.158L61.1865 87.648C61.1865 86.1803 62.5185 84.9844 64 84.9844L64 84.9844Z"/><path id="ZXCVRectangle-2" fill="url(#LG_4)" opacity="1" stroke="none" d="M75.5355 106.372C76.6385 105.279 76.6385 103.497 75.5355 102.404L75.5355 102.404C74.4471 101.326 72.6933 101.326 71.6049 102.404L62.0508 111.869C60.9478 112.961 60.9478 114.744 62.0508 115.836L62.0508 115.836C63.1392 116.915 64.893 116.915 65.9814 115.836L75.5355 106.372Z"/><path id="ZXCVRectangle-4" fill="url(#LG_5)" opacity="1" stroke="none" d="M75.5355 106.372C76.6385 105.279 76.6385 103.497 75.5355 102.404L75.5355 102.404C74.4471 101.326 72.6933 101.326 71.6049 102.404L62.0508 111.869C60.9478 112.961 60.9478 114.744 62.0508 115.836L62.0508 115.836C63.1392 116.915 64.893 116.915 65.9814 115.836L75.5355 106.372Z"/><path id="ZXCVRectangle-3" fill="url(#LG_6)" opacity="1" stroke="none" d="M56.3951 102.404C55.3067 101.326 53.5529 101.326 52.4645 102.404L52.4645 102.404C51.3615 103.497 51.3615 105.279 52.4645 106.372L62.02 115.838C63.1084 116.916 64.8622 116.916 65.9506 115.838L65.9506 115.838C67.0536 114.745 67.0536 112.963 65.9506 111.87L56.3951 102.404Z"/></g><g opacity="1" id="ZXCVGroup-4"><g opacity="1" id="ZXCVGroup-1"><g opacity="1" id="ZXCVGroup-1"><path id="ZXCV-1" fill="url(#LG_7)" opacity="1" stroke="none" d="M64 107.282L70.7146 100.637L70.7146 83.5168L70.7146 80.7044L57.2854 80.7044L57.2854 83.5168L57.2854 100.637L64 107.282Z"/><path id="ZXCV-2" fill="url(#LG_8)" opacity="1" stroke="none" d="M84.7596 89.2739C83.1714 89.2735 81.5705 89.8844 80.3539 91.089L70.7143 100.641L60.3521 110.897C60.145 111.102 60.0486 111.359 59.8763 111.584C57.9969 114.038 58.0944 117.524 60.3521 119.761C62.7842 122.172 66.7126 122.171 69.1458 119.761L89.1476 99.9533C91.6134 97.5116 91.6124 93.5317 89.1476 91.089C87.9316 89.8839 86.3477 89.2742 84.7596 89.2739Z"/><path id="ZXCV-2" fill="url(#LG_9)" opacity="1" stroke="none" d="M43.258 89.2915C41.6699 89.2915 40.0687 89.8841 38.8523 91.089C36.3871 93.5312 36.3871 97.5111 38.8523 99.9533L60.2111 121.118C62.6438 123.528 66.5722 123.528 69.0048 121.118C71.4701 118.676 71.4701 114.696 69.0048 112.254L64 107.284L57.2857 100.641L47.6461 91.089C46.4298 89.8841 44.8462 89.2915 43.258 89.2915Z"/></g></g><path id="ZXCV-5" fill="url(#LG_10)" opacity="1" stroke="none" d="M59.8864 5.07441C55.1761 5.07441 50.7572 5.88156 46.7004 7.44114C42.6435 9.00071 39.0384 11.1797 35.881 13.9778C32.7237 16.7759 30.1306 20.0029 28.1047 23.7265C26.0874 27.4341 24.7881 31.4293 24.1601 35.7291C24.1127 35.7188 23.9179 35.566 23.8784 35.5601C17.3717 34.5959 12.3382 36.3234 7.59304 40.4062C4.59747 42.9837 3.38063 44.9156 2.01433 47.7882C0.648025 50.6608-0.0142962 53.8544-0.0142967 57.4241C-0.0142967 61.8061 1.02443 65.7406 3.08499 69.2578C5.14555 72.7749 7.99165 75.5872 11.7066 77.654C15.4216 79.7208 19.7358 80.7533 24.6673 80.7533L33.1762 80.7533L82.7084 80.7533L91.2173 80.7533L98.9937 80.7533C103.107 80.7533 106.909 80.0148 110.433 78.5556C113.957 77.0964 117.047 75.0788 119.674 72.4697C122.302 69.8607 124.349 66.8492 125.817 63.3973C127.284 59.9454 128.02 56.1995 128.014 52.1835C128 42.1298 124.323 34.7495 116.857 29.1361C108.837 23.1062 100.806 22.7884 100.515 22.7685C99.0285 22.6669 93.4688 22.7291 90.9919 24.5154C90.4083 22.5178 89.4151 20.8067 88.3435 19.2184C87.1623 17.4679 85.833 15.8419 84.3989 14.2032C81.5806 11.4204 78.1895 9.20013 74.1431 7.55384C70.0968 5.90754 65.3449 5.07441 59.8864 5.07441Z"/><path id="ZXCV-3" fill="url(#LG_11)" filter="url(#F)" opacity="1" stroke="none" blendMode="lighten" blur="4.49984" d="M70.7146 82.9543L70.7146 63.5136L70.7146 46.3931C70.7146 43.0123 67.4128 40.241 64 40.241C60.5872 40.241 57.2854 43.0123 57.2854 46.3931L57.2854 63.5136L57.2854 82.9543L70.7146 82.9543Z"/><path id="ZXCV-5" fill="url(#LG_12)" filter="url(#F_2)" opacity="0.641541" stroke="none" blendMode="luminosity" blur="5.48982" d="M70.7146 81.1244L70.7146 63.5136L70.7146 46.3931C70.7146 43.0123 67.4128 40.241 64 40.241C60.5872 40.241 57.2854 43.0123 57.2854 46.3931L57.2854 63.5136L57.2854 81.1244L70.7146 81.1244Z"/></g></g></svg>