<svg xmlns="http://www.w3.org/2000/svg" xml:space="preserve" viewBox="0 0 100 100"><defs><linearGradient id="LinearGradient_leftBracket" x1="0" x2="1" y1="0" y2="0" gradientTransform="matrix(-22.3 31.77 -41.36 -22.3 23.741 30.442)" gradientUnits="userSpaceOnUse"><stop offset="0" stop-color="#5464f7"/><stop offset="1" stop-color="#474bcd"/></linearGradient><linearGradient id="LinearGradient_rightBracket" x1="0" x2="1" y1="0" y2="0" gradientTransform="matrix(28.52 36.56 47.6 -28.52 72.652 32.928)" gradientUnits="userSpaceOnUse"><stop offset="0" stop-color="#5464f7"/><stop offset="1" stop-color="#474bcd"/></linearGradient><linearGradient id="LinearGradient_Slash" x1="0" x2="1" y1="0" y2="0" gradientTransform="matrix(10.56 3.55 -3.5 10.71 49.263 46.078)" gradientUnits="userSpaceOnUse"><stop offset="0" stop-color="#31995f"/><stop offset=".093" stop-color="#329e62"/><stop offset=".666" stop-color="#22ec79"/><stop offset="1" stop-color="#00ff70"/></linearGradient></defs><style>@keyframes left_bracket_f_o{0%{fill-opacity:1;animation-timing-function:step-end}15%,50%{fill-opacity:0;animation-timing-function:step-end}95%{fill-opacity:1}}@keyframes slash_f_o{0%{fill-opacity:1;animation-timing-function:step-end}25%,50%{fill-opacity:0;animation-timing-function:step-end}85%{fill-opacity:1}}@keyframes right_bracket_f_o{0%{fill-opacity:1;animation-timing-function:step-end}35%,50%{fill-opacity:0;animation-timing-function:step-end}75%{fill-opacity:1}}</style><g id="Code-green-blue" stroke="none" opacity="1"><path fill="url(#LinearGradient_leftBracket)" d="M26.375 29.334 2.1 47.493a5.176 5.176 0 0 0-.013 8.314l24.277 18.276c2.332 1.756 8.802-6.546 6.469-8.303L14.09 51.67l18.73-14.012c2.338-1.749-3.504-11.007-6.445-8.323Z" class="left_bracket" style="animation:left_bracket_f_o 2000ms linear infinite normal forwards"/><path fill="url(#LinearGradient_rightBracket)" d="M72.127 74.335c-2.324-.741-7.285-6.817-4.946-8.567l18.728-14.011-18.741-14.112c-2.333-1.756 4.136-10.058 6.47-8.302l24.276 18.275a5.176 5.176 0 0 1-.013 8.315l-24.28 18.159c-.877.656-.919.427-1.494.243Z" class="right_bracket" style="animation:right_bracket_f_o 2000ms linear infinite normal forwards"/><path fill="url(#LinearGradient_Slash)" d="M59.716 14.525 37.817 81.268c-.995 3.033 9.191 6.921 10.186 3.888L69.897 18.41c.995-3.033-9.435-6.158-10.181-3.884Z" class="slash" style="animation:slash_f_o 2000ms linear infinite normal forwards"/></g></svg>