<svg xmlns="http://www.w3.org/2000/svg" width="100%" height="100%" stroke-linecap="round" stroke-linejoin="round" stroke-miterlimit="10" clip-rule="evenodd" viewBox="0 0 100 100" xml:space="preserve"><defs><linearGradient id="b" x1="0" x2="1" y1="0" y2="0" gradientTransform="matrix(-1 51.89 -51.89 -1 50.79 15.098)" gradientUnits="userSpaceOnUse"><stop offset="0" stop-color="#455a64"/><stop offset="1" stop-color="#536c78"/></linearGradient><linearGradient id="d" x1="0" x2="1" y1="0" y2="0" gradientTransform="matrix(-.39 47.66 -47.66 -.39 49.893 31.81)" gradientUnits="userSpaceOnUse"><stop offset="0" stop-color="#455a64"/><stop offset="1" stop-color="#536c78"/></linearGradient><linearGradient id="f" x1="0" x2="1" y1="0" y2="0" gradientTransform="matrix(-1.1 93.29 -93.29 -1.1 49.58 4.73)" gradientUnits="userSpaceOnUse"><stop offset="0" stop-color="#455a64"/><stop offset="1" stop-color="#536c78"/></linearGradient><filter id="c" width="102.289" height="76.758" x="-1.098" y="-1.759" color-interpolation-filters="sRGB" filterUnits="userSpaceOnUse"><feDropShadow dx=".047" dy=".385" flood-color="#000" flood-opacity=".333" in="SourceGraphic" result="Shadow" stdDeviation="1.258"/></filter><filter id="e" width="102.289" height="76.758" x="-1.098" y="25.772" color-interpolation-filters="sRGB" filterUnits="userSpaceOnUse"><feDropShadow dx=".047" dy=".385" flood-color="#000" flood-opacity=".333" in="SourceGraphic" result="Shadow" stdDeviation="1.258"/></filter><filter id="g" width="102.289" height="104.31" x="-1.098" y="-1.77" color-interpolation-filters="sRGB" filterUnits="userSpaceOnUse"><feDropShadow dx=".047" dy=".385" flood-color="#000" flood-opacity=".333" in="SourceGraphic" result="Shadow" stdDeviation="1.258"/></filter></defs><g id="CodePen"><g id="CodePenGroup-6"><path id="CodePen-9" fill="url(#b)" d="M92.156 71.469 50 41.188 12.094 68.28l-4.5 2.688L2 67.438v-6.094l33.156-23.188 9.782-6.812V4.28L50 1l5.063 3.281v27.062l42.937 30v6.094l-5.844 4.032Z" filter="url(#c)" shadowAngle="1.451" shadowColor="#000000" shadowOffset=".388" shadowOpacity=".333" shadowRadius="2.516"/><path id="CodePen-1" fill="url(#d)" d="M92.156 28.531 50 58.813 12.094 31.718l-4.5-2.688L2 32.563v6.093l33.156 23.188 9.782 6.812V95.72L50 99l5.063-3.281V68.656l42.937-30v-6.093l-5.844-4.032Z" filter="url(#e)" shadowAngle="1.451" shadowColor="#000000" shadowOffset=".388" shadowOpacity=".333" shadowRadius="2.516"/><path id="CodePen" fill="url(#f)" d="M50 99.01 2 67.938V32.063L50 .99l48 31.074v35.874L50 99.01ZM12.105 62.38 50 86.884 87.895 62.38V37.62L50 13.116 12.105 37.62V62.38Z" filter="url(#g)" shadowAngle="1.451" shadowColor="#000000" shadowOffset=".388" shadowOpacity=".333" shadowRadius="2.516"/></g></g></svg>