<svg xmlns="http://www.w3.org/2000/svg" xmlns:xlink="http://www.w3.org/1999/xlink" width="100%" height="100%" stroke-miterlimit="10" version="1.1" viewBox="0 0 100 100" xml:space="preserve" style="fill-rule:nonzero;clip-rule:evenodd;stroke-linecap:round;stroke-linejoin:round"><defs><filter id="Filter" width="32" height="56.5" x="21.75" y="-2.75" color-interpolation-filters="sRGB" filterUnits="userSpaceOnUse"><feDropShadow dx="0" dy="0" flood-color="#000" flood-opacity=".4" in="SourceGraphic" result="Shadow" stdDeviation="1.5"/></filter><filter id="Filter_2" width="49.932" height="49.932" x="46.25" y="3.818" color-interpolation-filters="sRGB" filterUnits="userSpaceOnUse"><feDropShadow dx="0" dy="0" flood-color="#000" flood-opacity=".4" in="SourceGraphic" result="Shadow" stdDeviation="1.5"/></filter><filter id="Filter_3" width="32" height="56.5" x="46.25" y="-2.75" color-interpolation-filters="sRGB" filterUnits="userSpaceOnUse"><feDropShadow dx="0" dy="0" flood-color="#000" flood-opacity=".4" in="SourceGraphic" result="Shadow" stdDeviation="1.5"/></filter><filter id="Filter_4" width="32" height="56.5" x="46.25" y="46.25" color-interpolation-filters="sRGB" filterUnits="userSpaceOnUse"><feDropShadow dx="0" dy="0" flood-color="#000" flood-opacity=".4" in="SourceGraphic" result="Shadow" stdDeviation="1.5"/></filter><filter id="Filter_5" width="49.932" height="49.932" x="3.818" y="46.25" color-interpolation-filters="sRGB" filterUnits="userSpaceOnUse"><feDropShadow dx="0" dy="0" flood-color="#000" flood-opacity=".4" in="SourceGraphic" result="Shadow" stdDeviation="1.5"/></filter><filter id="Filter_6" width="32" height="56.5" x="21.75" y="46.25" color-interpolation-filters="sRGB" filterUnits="userSpaceOnUse"><feDropShadow dx="0" dy="0" flood-color="#000" flood-opacity=".4" in="SourceGraphic" result="Shadow" stdDeviation="1.5"/></filter><filter id="Filter_7" width="56.5" height="32" x="46.25" y="21.75" color-interpolation-filters="sRGB" filterUnits="userSpaceOnUse"><feDropShadow dx="0" dy="0" flood-color="#000" flood-opacity=".4" in="SourceGraphic" result="Shadow" stdDeviation="1.5"/></filter><filter id="Filter_8" width="49.932" height="49.932" x="46.25" y="46.25" color-interpolation-filters="sRGB" filterUnits="userSpaceOnUse"><feDropShadow dx="0" dy="0" flood-color="#000" flood-opacity=".4" in="SourceGraphic" result="Shadow" stdDeviation="1.5"/></filter><filter id="Filter_9" width="56.5" height="32" x="46.25" y="46.25" color-interpolation-filters="sRGB" filterUnits="userSpaceOnUse"><feDropShadow dx="0" dy="0" flood-color="#000" flood-opacity=".4" in="SourceGraphic" result="Shadow" stdDeviation="1.5"/></filter><filter id="Filter_10" width="56.5" height="32" x="-2.75" y="46.25" color-interpolation-filters="sRGB" filterUnits="userSpaceOnUse"><feDropShadow dx="0" dy="0" flood-color="#000" flood-opacity=".4" in="SourceGraphic" result="Shadow" stdDeviation="1.5"/></filter><filter id="Filter_11" width="49.932" height="49.932" x="3.818" y="3.818" color-interpolation-filters="sRGB" filterUnits="userSpaceOnUse"><feDropShadow dx="0" dy="0" flood-color="#000" flood-opacity=".4" in="SourceGraphic" result="Shadow" stdDeviation="1.5"/></filter><filter id="Filter_12" width="56.5" height="32" x="-2.75" y="21.75" color-interpolation-filters="sRGB" filterUnits="userSpaceOnUse"><feDropShadow dx="0" dy="0" flood-color="#000" flood-opacity=".4" in="SourceGraphic" result="Shadow" stdDeviation="1.5"/></filter></defs><path fill="#fff" fill-opacity="0" fill-rule="nonzero" stroke="none" d="M0 0L100 0L100 100L0 100L0 0Z" opacity="1"/><g opacity="1"><g opacity="1"><path fill="#e91e63" fill-rule="nonzero" stroke="none" d="M50 1L50 50L25.5 7.56845L50 1Z" filter="url(#Filter)"/><path fill="#ff5722" fill-rule="nonzero" stroke="none" d="M74.5 7.56845L92.4316 25.5L50 50L74.5 7.56845Z" filter="url(#Filter_2)"/><path fill="#f44336" fill-rule="nonzero" stroke="none" d="M50 1L74.5 7.56845L50 50L50 1Z" filter="url(#Filter_3)"/><path fill="#8bc34a" fill-rule="nonzero" stroke="none" d="M50 99L50 50L74.5 92.4316L50 99Z" filter="url(#Filter_4)"/><path fill="#03a9f4" fill-rule="nonzero" stroke="none" d="M25.5 92.4316L7.56845 74.5L50 50L25.5 92.4316Z" filter="url(#Filter_5)"/><path fill="#4caf50" fill-rule="nonzero" stroke="none" d="M50 99L25.5 92.4316L50 50L50 99Z" filter="url(#Filter_6)"/><path fill="#ff9800" fill-rule="nonzero" stroke="none" d="M99 50L50 50L92.4316 25.5L99 50Z" filter="url(#Filter_7)"/><path fill="#ffeb3b" fill-rule="nonzero" stroke="none" d="M92.4316 74.5L74.5 92.4316L50 50L92.4316 74.5Z" filter="url(#Filter_8)"/><path fill="#ffc107" fill-rule="nonzero" stroke="none" d="M99 50L92.4316 74.5L50 50L99 50Z" filter="url(#Filter_9)"/><path fill="#3f51b5" fill-rule="nonzero" stroke="none" d="M1 50L50 50L7.56845 74.5L1 50Z" filter="url(#Filter_10)"/><path fill="#9c27b0" fill-rule="nonzero" stroke="none" d="M7.56845 25.5L25.5 7.56845L50 50L7.56845 25.5Z" filter="url(#Filter_11)"/><path fill="#673ab7" fill-rule="nonzero" stroke="none" d="M1 50L7.56845 25.5L50 50L1 50Z" filter="url(#Filter_12)"/></g></g></svg>