<svg width="100%" height="100%" viewBox="0 0 100 100" stroke-miterlimit="10" style="fill-rule:nonzero;clip-rule:evenodd;stroke-linecap:round;stroke-linejoin:round;" version="1.1" xml:space="preserve" xmlns="http://www.w3.org/2000/svg" xmlns:xlink="http://www.w3.org/1999/xlink">
<defs>
<filter color-interpolation-filters="sRGB" filterUnits="userSpaceOnUse" height="56.5" id="Filter" width="32" x="21.75" y="-2.75">
<feDropShadow dx="0" dy="0" flood-color="#000000" flood-opacity="0.4" in="SourceGraphic" result="Shadow" stdDeviation="1.5"/>
</filter>
<filter color-interpolation-filters="sRGB" filterUnits="userSpaceOnUse" height="49.9316" id="Filter_2" width="49.9316" x="46.25" y="3.81845">
<feDropShadow dx="0" dy="0" flood-color="#000000" flood-opacity="0.4" in="SourceGraphic" result="Shadow" stdDeviation="1.5"/>
</filter>
<filter color-interpolation-filters="sRGB" filterUnits="userSpaceOnUse" height="56.5" id="Filter_3" width="32" x="46.25" y="-2.75">
<feDropShadow dx="0" dy="0" flood-color="#000000" flood-opacity="0.4" in="SourceGraphic" result="Shadow" stdDeviation="1.5"/>
</filter>
<filter color-interpolation-filters="sRGB" filterUnits="userSpaceOnUse" height="56.5" id="Filter_4" width="32" x="46.25" y="46.25">
<feDropShadow dx="0" dy="0" flood-color="#000000" flood-opacity="0.4" in="SourceGraphic" result="Shadow" stdDeviation="1.5"/>
</filter>
<filter color-interpolation-filters="sRGB" filterUnits="userSpaceOnUse" height="49.9316" id="Filter_5" width="49.9316" x="3.81845" y="46.25">
<feDropShadow dx="0" dy="0" flood-color="#000000" flood-opacity="0.4" in="SourceGraphic" result="Shadow" stdDeviation="1.5"/>
</filter>
<filter color-interpolation-filters="sRGB" filterUnits="userSpaceOnUse" height="56.5" id="Filter_6" width="32" x="21.75" y="46.25">
<feDropShadow dx="0" dy="0" flood-color="#000000" flood-opacity="0.4" in="SourceGraphic" result="Shadow" stdDeviation="1.5"/>
</filter>
<filter color-interpolation-filters="sRGB" filterUnits="userSpaceOnUse" height="32" id="Filter_7" width="56.5" x="46.25" y="21.75">
<feDropShadow dx="0" dy="0" flood-color="#000000" flood-opacity="0.4" in="SourceGraphic" result="Shadow" stdDeviation="1.5"/>
</filter>
<filter color-interpolation-filters="sRGB" filterUnits="userSpaceOnUse" height="49.9316" id="Filter_8" width="49.9316" x="46.25" y="46.25">
<feDropShadow dx="0" dy="0" flood-color="#000000" flood-opacity="0.4" in="SourceGraphic" result="Shadow" stdDeviation="1.5"/>
</filter>
<filter color-interpolation-filters="sRGB" filterUnits="userSpaceOnUse" height="32" id="Filter_9" width="56.5" x="46.25" y="46.25">
<feDropShadow dx="0" dy="0" flood-color="#000000" flood-opacity="0.4" in="SourceGraphic" result="Shadow" stdDeviation="1.5"/>
</filter>
<filter color-interpolation-filters="sRGB" filterUnits="userSpaceOnUse" height="32" id="Filter_10" width="56.5" x="-2.75" y="46.25">
<feDropShadow dx="0" dy="0" flood-color="#000000" flood-opacity="0.4" in="SourceGraphic" result="Shadow" stdDeviation="1.5"/>
</filter>
<filter color-interpolation-filters="sRGB" filterUnits="userSpaceOnUse" height="49.9316" id="Filter_11" width="49.9316" x="3.81845" y="3.81845">
<feDropShadow dx="0" dy="0" flood-color="#000000" flood-opacity="0.4" in="SourceGraphic" result="Shadow" stdDeviation="1.5"/>
</filter>
<filter color-interpolation-filters="sRGB" filterUnits="userSpaceOnUse" height="32" id="Filter_12" width="56.5" x="-2.75" y="21.75">
<feDropShadow dx="0" dy="0" flood-color="#000000" flood-opacity="0.4" in="SourceGraphic" result="Shadow" stdDeviation="1.5"/>
</filter>
</defs>
<path d="M0 0L100 0L100 100L0 100L0 0Z" fill="#ffffff" fill-opacity="0" fill-rule="nonzero" opacity="1" stroke="none"/>
<g opacity="1">
<g opacity="1">
<path d="M50 1L50 50L25.5 7.56845L50 1Z" fill="#e91e63" fill-rule="nonzero" filter="url(#Filter)" stroke="none"/>
<path d="M74.5 7.56845L92.4316 25.5L50 50L74.5 7.56845Z" fill="#ff5722" fill-rule="nonzero" filter="url(#Filter_2)" stroke="none"/>
<path d="M50 1L74.5 7.56845L50 50L50 1Z" fill="#f44336" fill-rule="nonzero" filter="url(#Filter_3)" stroke="none"/>
<path d="M50 99L50 50L74.5 92.4316L50 99Z" fill="#8bc34a" fill-rule="nonzero" filter="url(#Filter_4)" stroke="none"/>
<path d="M25.5 92.4316L7.56845 74.5L50 50L25.5 92.4316Z" fill="#03a9f4" fill-rule="nonzero" filter="url(#Filter_5)" stroke="none"/>
<path d="M50 99L25.5 92.4316L50 50L50 99Z" fill="#4caf50" fill-rule="nonzero" filter="url(#Filter_6)" stroke="none"/>
<path d="M99 50L50 50L92.4316 25.5L99 50Z" fill="#ff9800" fill-rule="nonzero" filter="url(#Filter_7)" stroke="none"/>
<path d="M92.4316 74.5L74.5 92.4316L50 50L92.4316 74.5Z" fill="#ffeb3b" fill-rule="nonzero" filter="url(#Filter_8)" stroke="none"/>
<path d="M99 50L92.4316 74.5L50 50L99 50Z" fill="#ffc107" fill-rule="nonzero" filter="url(#Filter_9)" stroke="none"/>
<path d="M1 50L50 50L7.56845 74.5L1 50Z" fill="#3f51b5" fill-rule="nonzero" filter="url(#Filter_10)" stroke="none"/>
<path d="M7.56845 25.5L25.5 7.56845L50 50L7.56845 25.5Z" fill="#9c27b0" fill-rule="nonzero" filter="url(#Filter_11)" stroke="none"/>
<path d="M1 50L7.56845 25.5L50 50L1 50Z" fill="#673ab7" fill-rule="nonzero" filter="url(#Filter_12)" stroke="none"/>
</g>
</g>
</svg>
