<svg width="100%" height="100%" viewBox="-1.51241 -0.379414 102.153 102.453" version="1.1" xml:space="preserve" xmlns="http://www.w3.org/2000/svg" xmlns:xlink="http://www.w3.org/1999/xlink"><defs><linearGradient gradientTransform="matrix(1 0 0 1 0 0)" gradientUnits="userSpaceOnUse" id="LinearGradient_zxcv" x1="4.10082" x2="102.53" y1="56.8833" y2="55.3101"><stop offset="0" stop-color="#ffffff"/><stop offset="0" stop-color="#04006b"/><stop offset="0.494165" stop-color="#0005ff"/><stop offset="1" stop-color="#0e00af"/></linearGradient><filter color-interpolation-filters="sRGB" filterUnits="userSpaceOnUse" height="83.9533" id="Filter_zxcv" width="83.9533" x="7.58759" y="18.1206"><feDropShadow dx="-0.435763" dy="1.19724" flood-color="#000000" flood-opacity="0.55" in="SourceGraphic" result="Shadow" stdDeviation="2.83066"/></filter><filter color-interpolation-filters="sRGB" filterUnits="userSpaceOnUse" height="83.3533" id="Filter_zxcv_2" width="73.9533" x="12.5876" y="13.7206"><feDropShadow dx="-0.435763" dy="1.19724" flood-color="#000000" flood-opacity="0.55" in="SourceGraphic" result="Shadow" stdDeviation="0.83066"/></filter><filter color-interpolation-filters="sRGB" filterUnits="userSpaceOnUse" height="97.4533" id="Filter_zxcv_3" width="102.153" x="-1.51241" y="-0.379414"><feDropShadow dx="-0.435759" dy="1.19724" flood-color="#000000" flood-opacity="0.55" in="SourceGraphic" result="Shadow" stdDeviation="0.83066"/></filter></defs><g id="zxcv"><g opacity="1" id="g-12"><path id="zxcv" d="M50 16.6L82.9 35.4L82.9 73L50 91.8L17.1 73L17.1 35.4L50 16.6Z" fill="url(#LinearGradient_zxcv)" opacity="1" stroke="#ffffff" stroke-linecap="butt" stroke-linejoin="round" stroke-width="4"/><path id="zxcv" shadowAngle="1.91987" shadowColor="#000000" shadowOffset="1.27407" shadowOpacity="0.55" shadowRadius="5.66132" d="M66.45 26L82.9 35.4L82.9 54.2M33.55 26L17.1 35.4L17.1 54.2M33.55 82.4L50 91.8L66.45 82.4" fill="none" filter="url(#Filter_zxcv)" stroke="#ffffff" stroke-linecap="butt" stroke-linejoin="round" stroke-width="4"/><path id="zxcv-37" shadowAngle="1.91987" shadowColor="#000000" shadowOffset="1.27407" shadowOpacity="0.55" shadowRadius="1.66132" d="M50 16.6L82.9 35.4L82.9 73L50 91.8L17.1 73L17.1 35.4L50 16.6Z" fill="none" filter="url(#Filter_zxcv_2)" stroke="#ffffff" stroke-linecap="butt" stroke-linejoin="round" stroke-width="4"/><g filter="url(#Filter_zxcv_3)" id="g" shadowAngle="1.91986" shadowColor="#000000" shadowOffset="1.27407" shadowOpacity="0.55" shadowRadius="1.66132"><path id="zxcv" d="M50 2.5L50 16.6" fill="none" opacity="1" stroke="#ffffff" stroke-linecap="round" stroke-linejoin="round" stroke-width="4"/><path id="zxcv" d="M17.1 35.4L50 54.2L82.9 35.4" fill="none" opacity="1" stroke="#ffffff" stroke-linecap="round" stroke-linejoin="round" stroke-width="4"/><path id="zxcv" d="M82.9 73L97 80.05M3 80.05L17.1 73" fill="none" opacity="1" stroke="#ffffff" stroke-linecap="round" stroke-linejoin="round" stroke-width="4"/><path id="zxcv" fill="none" opacity="1" stroke="#ffffff" stroke-linecap="round" stroke-linejoin="round" stroke-width="4" d="M50 54.2L50 91.8"/></g></g></g></svg>
