<svg xmlns="http://www.w3.org/2000/svg" xmlns:xlink="http://www.w3.org/1999/xlink" width="100%" height="100%" version="1.1" viewBox="0 0 100 100" xml:space="preserve"><defs><linearGradient id="LinearGradient_CSSPink" x1="34.603" x2="65.397" y1="49.715" y2="49.715" gradientTransform="matrix(1 0 0 1 0 0)" gradientUnits="userSpaceOnUse"><stop offset="0" stop-color="#f60aff"/><stop offset=".361" stop-color="#ff02cc"/><stop offset="1" stop-color="#ff0245"/></linearGradient><filter id="Filter_CSSPink" width="40.795" height="46.954" x="29.603" y="27.238" color-interpolation-filters="sRGB" filterUnits="userSpaceOnUse"><feDropShadow dx="0" dy="1" flood-color="#000" flood-opacity=".5" in="SourceGraphic" result="Shadow" stdDeviation="2"/></filter><linearGradient id="LinearGradient_CSSPink_2" x1="1.5" x2="32.295" y1="49.715" y2="49.715" gradientTransform="matrix(1 0 0 1 0 0)" gradientUnits="userSpaceOnUse"><stop offset="0" stop-color="#f60aff"/><stop offset=".361" stop-color="#ff02cc"/><stop offset="1" stop-color="#ff0245"/></linearGradient><filter id="Filter_CSSPink_2" width="40.795" height="46.954" x="-3.5" y="27.238" color-interpolation-filters="sRGB" filterUnits="userSpaceOnUse"><feDropShadow dx="0" dy="1" flood-color="#000" flood-opacity=".5" in="SourceGraphic" result="Shadow" stdDeviation="2"/></filter><linearGradient id="LinearGradient_CSSPink_3" x1="67.705" x2="98.5" y1="49.715" y2="49.715" gradientTransform="matrix(1 0 0 1 0 0)" gradientUnits="userSpaceOnUse"><stop offset="0" stop-color="#f60aff"/><stop offset=".361" stop-color="#ff02cc"/><stop offset="1" stop-color="#ff0245"/></linearGradient><filter id="Filter_CSSPink_3" width="40.795" height="46.954" x="62.705" y="27.238" color-interpolation-filters="sRGB" filterUnits="userSpaceOnUse"><feDropShadow dx="0" dy="1" flood-color="#000" flood-opacity=".5" in="SourceGraphic" result="Shadow" stdDeviation="2"/></filter></defs><g id="CSSPink"><g id="zxcvGroup-2" opacity="1"><path id="zxcv" fill="url(#LinearGradient_CSSPink)" stroke="none" d="M34.6026 68.1921L34.6026 55.8742L43.841 55.8742L43.841 58.9537L56.159 58.9537L56.159 52.7947L34.6026 52.7947L34.6026 31.2383L65.3974 31.2383L65.3974 43.5562L56.159 43.5562L56.159 40.4767L43.841 40.4767L43.841 46.6357L65.3974 46.6357L65.3974 68.1921L34.6026 68.1921Z" filter="url(#Filter_CSSPink)" shadowAngle="1.571" shadowColor="#000" shadowOffset="1" shadowOpacity=".5" shadowRadius="4"/><path id="zxcv-1" fill="url(#LinearGradient_CSSPink_2)" stroke="none" d="M1.5 68.1921L1.5 31.2383L32.2949 31.2383L32.2949 43.5562L23.0564 43.5562L23.0564 40.4767L10.7385 40.4767L10.7385 58.9537L23.0564 58.9537L23.0564 55.8742L32.2949 55.8742L32.2949 68.1921L1.5 68.1921Z" filter="url(#Filter_CSSPink_2)" shadowAngle="1.571" shadowColor="#000" shadowOffset="1" shadowOpacity=".5" shadowRadius="4"/><path id="zxcv-2" fill="url(#LinearGradient_CSSPink_3)" stroke="none" d="M67.7051 68.1921L67.7051 55.8742L76.9436 55.8742L76.9436 58.9537L89.2615 58.9537L89.2615 52.7947L67.7051 52.7947L67.7051 31.2383L98.5 31.2383L98.5 43.5562L89.2615 43.5562L89.2615 40.4767L76.9436 40.4767L76.9436 46.6357L98.5 46.6357L98.5 68.1921L67.7051 68.1921Z" filter="url(#Filter_CSSPink_3)" shadowAngle="1.571" shadowColor="#000" shadowOffset="1" shadowOpacity=".5" shadowRadius="4"/></g></g></svg>