<svg xmlns="http://www.w3.org/2000/svg" xmlns:vectornator="http://vectornator.io" xmlns:xlink="http://www.w3.org/1999/xlink" style="fill-rule:nonzero;clip-rule:evenodd;stroke-linecap:round;stroke-linejoin:round" width="100%" height="100%" stroke-miterlimit="10" version="1.1" viewBox="0 0 100 100" xml:space="preserve"><defs><linearGradient id="LinearGradient" x1="29.278" x2="98" y1="59.633" y2="59.633" gradientTransform="matrix(1 0 0 1 0 0)" gradientUnits="userSpaceOnUse"><stop offset="0" stop-color="#a100bd"/><stop offset="1" stop-color="#650076"/></linearGradient><filter id="Filter" width="78.722" height="86.735" x="23.449" y="16.824" color-interpolation-filters="sRGB" filterUnits="userSpaceOnUse"><feDropShadow dx="-.829" dy=".559" flood-color="#000" flood-opacity=".4" in="SourceGraphic" result="Shadow" stdDeviation="2"/></filter><linearGradient id="LinearGradient_2" x1="81.109" x2="87.317" y1="49.389" y2="42.211" gradientTransform="matrix(0.932252 0 0 0.932252 3.94766 2.49589)" gradientUnits="userSpaceOnUse"><stop offset="0" stop-color="#e4c6f0"/><stop offset=".554" stop-color="#fefdff"/></linearGradient><filter id="Filter_2" width="39.227" height="47.73" x="52.44" y="32.4" color-interpolation-filters="sRGB" filterUnits="userSpaceOnUse"><feDropShadow dx="-.829" dy=".559" flood-color="#000" flood-opacity=".4" in="SourceGraphic" result="Shadow" stdDeviation="2"/></filter><linearGradient id="LinearGradient_3" x1="48.388" x2="70.712" y1="88.94" y2="88.94" gradientTransform="matrix(1 0 0 1 0 0)" gradientUnits="userSpaceOnUse"><stop offset="0" stop-color="#190f92"/><stop offset="1" stop-color="#1d32d1"/></linearGradient><linearGradient id="LinearGradient_4" x1="70.947" x2="1.915" y1="61.586" y2="61.58" gradientTransform="matrix(1 0 0 1 0 0)" gradientUnits="userSpaceOnUse"><stop offset=".236" stop-color="#0a43ff"/><stop offset=".91" stop-color="#090075"/><stop offset="1" stop-color="#07004d"/></linearGradient><filter id="Filter_3" width="78.722" height="87.89" x="-3.829" y="-2.441" color-interpolation-filters="sRGB" filterUnits="userSpaceOnUse"><feDropShadow dx="-.829" dy=".559" flood-color="#000" flood-opacity=".4" in="SourceGraphic" result="Shadow" stdDeviation="2"/></filter><filter id="Filter_4" width="47.246" height="51.697" x="4.162" y="14.46" color-interpolation-filters="sRGB" filterUnits="userSpaceOnUse"><feDropShadow dx="-.829" dy=".559" flood-color="#000" flood-opacity=".4" in="SourceGraphic" result="Shadow" stdDeviation="2"/></filter></defs><g opacity="1" vectornator:layerName="g8"><path fill="#00ffa7" fill-rule="nonzero" stroke="none" d="M91.6126 98C95.106 98.0172 97.9586 95.2121 98 91.7189L98 27.5566C97.9642 24.0593 95.1099 21.248 91.6126 21.2651L29.2777 21.2651L54.296 98L91.6126 98Z" opacity="0" vectornator:layerName="path"/><path fill="url(#LinearGradient)" fill-rule="nonzero" stroke="none" d="M91.6126 98C95.106 98.0172 97.9586 95.2121 98 91.7189L98 27.5566C97.9642 24.0593 95.1099 21.248 91.6126 21.2651L29.2777 21.2651L54.296 98L91.6126 98Z" filter="url(#Filter)" vectornator:layerName="path" vectornator:shadowAngle="2.548" vectornator:shadowColor="#000000" vectornator:shadowOffset="1" vectornator:shadowOpacity=".4" vectornator:shadowRadius="4"/><path fill="url(#LinearGradient_2)" fill-rule="nonzero" stroke="none" d="M86.0679 36.8406C84.0202 36.9953 82.1419 37.1235 80.3962 37.2009C78.6506 37.2783 76.7389 37.3166 74.6576 37.3553L67.7578 37.4325C67.59 37.4325 67.2009 37.4261 66.5967 37.4068C65.9925 37.3874 65.3256 37.3489 64.587 37.3296C63.8485 37.3102 63.1538 37.2846 62.5327 37.2266C61.9117 37.1686 61.506 37.1109 61.3046 37.0722C61.0696 38.852 60.7918 40.6648 60.4561 42.5026C60.1204 44.3405 59.8092 46.0892 59.5406 47.7529C59.6078 47.8303 59.8023 47.9008 60.1212 47.9588C60.4401 48.0169 60.7235 48.036 60.992 48.036C61.2606 48.036 61.4329 48.0105 61.4833 47.9331C61.5336 47.8557 61.5613 47.7788 61.5949 47.7015C61.9642 46.502 62.3866 45.3042 62.823 44.124C63.2594 42.9439 63.9207 41.9575 64.8103 41.1643C65.6999 40.3711 67.017 39.9804 68.7626 39.9804L77.7614 39.9804L58.2902 73.361C58.223 73.477 58.3174 73.7076 58.6028 74.0559C58.8881 74.4041 59.2049 74.5706 59.5406 74.5706C59.5406 74.5706 59.9518 74.5706 60.7911 74.5706C61.6303 74.5706 62.7529 74.5706 64.1628 74.5706C65.5727 74.5706 67.1344 74.5706 68.8296 74.5706C70.5249 74.5706 72.2421 74.5642 73.9877 74.5449C75.7333 74.5255 77.3728 74.5191 78.9002 74.5191C80.4276 74.5191 81.728 74.5191 82.7855 74.5191C83.8429 74.5191 84.5153 74.5191 84.8175 74.5191C84.9853 73.7066 85.2354 72.7393 85.5543 71.6366C85.8733 70.5339 86.2067 69.3937 86.5592 68.2136C86.9116 67.0335 87.2284 65.9511 87.497 64.9451C87.4298 64.8677 87.2353 64.7908 86.9164 64.7134C86.5975 64.636 86.2918 64.5847 86.0232 64.5847C85.6204 64.5847 85.3982 64.7129 85.331 64.9451C84.8947 66.2219 84.4666 67.2147 84.0806 67.9305C83.6945 68.6463 83.2333 69.3189 82.6962 69.938C81.5548 71.2535 80.0099 71.894 78.0293 71.894L67.4452 71.894C67.4452 71.894 67.7119 71.4328 68.2491 70.5042C68.7862 69.5756 69.5086 68.3458 70.415 66.7981C71.3214 65.2504 72.3496 63.5018 73.4741 61.5478C74.5987 59.5939 75.749 57.5633 76.9575 55.4739C78.166 53.3846 79.3386 51.354 80.4632 49.4001C81.5878 47.4461 82.5936 45.6783 83.5 44.0726C84.4064 42.4668 85.1567 41.1794 85.7106 40.2121C86.2645 39.2448 86.5368 38.7323 86.5368 38.6936C86.5368 38.3841 86.4812 38.0061 86.3805 37.5612C86.2798 37.1162 86.1686 36.8792 86.0679 36.8406Z" filter="url(#Filter_2)" vectornator:layerName="Curve 2" vectornator:shadowAngle="2.548" vectornator:shadowColor="#000000" vectornator:shadowOffset="1" vectornator:shadowOpacity=".4" vectornator:shadowRadius="4"/><path fill="url(#LinearGradient_3)" fill-rule="nonzero" stroke="none" d="M70.712 79.88L54.296 98L48.3884 79.8903L70.712 79.88Z" opacity="1" vectornator:layerName="path"/><path fill="url(#LinearGradient_4)" fill-rule="nonzero" stroke="none" d="M8.38743 2C4.86521 2.01316 2.01316 4.86521 2 8.38743L2 73.5029C2.01129 77.0258 4.86444 79.879 8.38743 79.8903L70.7223 79.8903L45.704 2L8.38743 2Z" filter="url(#Filter_3)" vectornator:layerName="path" vectornator:shadowAngle="2.548" vectornator:shadowColor="#000000" vectornator:shadowOffset="1" vectornator:shadowOpacity=".4" vectornator:shadowRadius="4"/><path fill="#fff" fill-rule="nonzero" stroke="none" d="M53.3909 21.2651L91.6126 21.2651C95.1099 21.248 97.9642 24.0593 98 27.5566L98 66.0491L53.3909 21.2651Z" opacity=".25" vectornator:layerName="path"/><path fill="#fff" fill-rule="nonzero" stroke="none" d="M48.4223 79.9021L70.7418 79.88L54.3281 98.0001L48.4223 79.9021Z" opacity=".101" vectornator:layerName="path"/><path fill="#fff" fill-rule="nonzero" stroke="#fff" stroke-linecap="butt" stroke-linejoin="miter" stroke-width="1.929" d="M28.6265 21.2651L11.4781 59.6326L14.2385 59.6326L20.663 45.2721L36.6144 45.2721L43.0145 59.6326L45.7505 59.6326L28.6265 21.2651ZM28.6265 27.4309L35.6617 43.1638L21.6157 43.1638L28.6265 27.4309Z" filter="url(#Filter_4)" vectornator:layerName="path" vectornator:shadowAngle="2.548" vectornator:shadowColor="#000000" vectornator:shadowOffset="1" vectornator:shadowOpacity=".4" vectornator:shadowRadius="4"/></g></svg>