<svg width="100%" height="100%" viewBox="0 0 512 512" version="1.1" xml:space="preserve" xmlns="http://www.w3.org/2000/svg" xmlns:xlink="http://www.w3.org/1999/xlink"><defs><filter color-interpolation-filters="sRGB" filterUnits="userSpaceOnUse" height="508.716" id="F_DB" width="561.03" x="-24.5151" y="4.71421"><feDropShadow dx="-1.129e-05" dy="3.0736" flood-color="#000" flood-opacity="0.333" in="SourceGraphic" result="Shadow" stdDeviation="11.8298"/></filter></defs><g id="Dropbox"><g opacity="1" id="Dropbox-1"><g opacity="1" id="DBGroup-1"/><g opacity="1" id="DBGroup-4"><g opacity="1" id="DBGroup-1"/></g><g opacity="1" id="DBGroup-3"/><g filter="url(#F_DB)" id="DBGroup-9" shadowAngle="1.5708" shadowColor="#000" shadowOffset="3.0736" shadowOpacity="0.333" shadowRadius="23.6597"><g opacity="1" id="DBGroup-5"><path id="DB" fill="#50b7eb" fill-rule="nonzero" opacity="1" stroke="none" d="M253.374 480.602L253.374 338.644L253.374 304.377C282.067 318.724 400.743 209.566 400.743 209.566L504.829 296.132C504.829 296.132 482.972 310.707 456.13 327.96C427.055 346.648 397.203 366.437 403.282 362.385C403.282 372.347 402.733 381.028 401.774 390.944C401.301 395.828 371.555 409.372 366.735 412.585C349.402 424.14 268.565 480.602 253.374 480.602Z"/><path id="DB-1" fill="#8fdfff" fill-rule="nonzero" opacity="1" stroke="none" d="M299.812 78.875C289.339 87.6113 264.66 116.644 255.5 119.062C261.674 119.063 401.376 208.281 402.844 209.75L417.281 198.406C392.966 174.091 345.048 119.855 318.531 94.4062C314.991 91.0089 311.085 87.4855 307.688 84.625C307.569 84.5261 307.631 84.5719 307.344 84.3125C306.972 84.0293 307.086 84.1232 306.938 84C303.672 81.2879 300.969 79.2606 299.812 78.875Z"/><path id="DB-2" fill="#87dcff" fill-rule="nonzero" opacity="1" stroke="none" d="M354.406 31.4688C351.1 31.4688 299.813 78.875 299.812 78.875C300.199 78.5528 314.991 91.0089 318.531 94.4062C345.048 119.855 392.966 174.091 417.281 198.406C448.841 177.366 476.582 150.08 506.938 127.312C498.606 110.65 418.776 68.5595 398.312 56.2812C389.732 51.1333 364.721 31.4687 354.406 31.4688Z"/><path id="DB" fill="#36abe1" fill-rule="nonzero" opacity="0" stroke="#36abe1" stroke-linecap="round" stroke-linejoin="round" stroke-width="1.03056" d="M401.824 205.624C401.308 206.654 401.308 206.654 400.793 207.685C401.824 207.685 401.824 207.685 402.854 207.685C402.854 214 379.556 224.591 373.999 228.296C347.282 246.107 308.031 282.403 277.126 290.129C275.247 290.599 256.553 277.605 256.515 275.701C255.492 223.495 255.828 171.272 255.485 119.057C260.074 119.057 271.974 124.347 271.974 129.362C308.178 141.43 365.14 205.624 401.824 205.624Z"/><path id="DB" fill="#33aae0" fill-rule="nonzero" opacity="1" stroke="none" d="M402.854 209.746C369.791 242.809 319.188 258.316 286.132 291.372C286.132 291.372 275.66 285.792 266.325 280.212C257.561 274.973 255.485 271.579 255.485 271.579C254.495 220.748 255.485 169.898 255.485 119.057C260.408 117.881 379.929 192.041 402.854 209.746C402.854 209.746 399.763 203.562 402.854 209.746Z"/><path id="DB" fill="#87dcff" fill-rule="nonzero" opacity="1" stroke="none" d="M255.485 304.557C268.376 285.701 380.439 209.746 402.854 209.746C407.147 209.746 503.187 288.805 506.94 296.312C500.571 299.497 492.303 304.409 482.924 310.352C480.171 312.097 477.322 313.931 474.397 315.836C468.557 319.64 462.415 323.728 456.13 327.96C415.886 355.058 369.784 388.051 359.571 390.093C359.571 390.093 339.067 373.711 335.868 370.513C313.311 347.955 278.101 327.173 255.485 304.557Z"/><path id="DB" fill="#50b7eb" fill-rule="nonzero" opacity="1" stroke="none" d="M255.485 480.782L255.485 304.557C284.178 318.904 310.468 351.463 335.868 370.513C340.74 374.166 359.571 390.093 359.571 390.093C372.379 387.531 394.118 375.235 405.393 367.718C405.393 377.68 404.844 381.208 403.885 391.124C403.698 393.052 264.678 480.782 255.485 480.782Z"/><path id="DB" fill="#45b4f2" fill-rule="nonzero" opacity="1" stroke="none" d="M337.929 408.643C338.936 414.682 340.393 416.066 334.838 417.918C334.838 409.466 332.837 412.038 337.929 408.643Z"/></g><g opacity="1" id="DBGroup-6"><path id="DB" fill="#7ed6fb" fill-rule="nonzero" opacity="1" stroke="none" d="M255.485 119.057C255.485 169.898 254.495 220.748 255.485 271.579L232.684 290.34L255.485 304.557C255.485 304.557 189.529 375.923 152.429 390.093C115.329 404.263 129.757 375.665 107.085 361.238C76.3954 340.778 31.5304 319.692 5.05953 293.221C63.4245 232.307 101.665 213.105 105.023 209.746C105.023 209.746 249.921 119.057 255.485 119.057Z"/><path id="DB" fill="#62c8f7" fill-rule="nonzero" opacity="1" stroke="none" d="M255.485 119.057C255.485 169.898 254.495 220.748 255.485 271.579L232.684 290.34C190.61 263.882 105.023 209.746 105.023 209.746C108.294 206.475 252.351 119.057 255.485 119.057Z"/><path id="DB" fill="#1a89d1" fill-rule="nonzero" opacity="1" stroke="none" d="M107.085 361.238C117.729 358.774 147.576 393.035 153.46 390.093C189.089 372.278 228.626 331.296 255.485 304.557C255.485 304.557 243.437 328.865 236.935 337.535C229.863 346.964 217.563 365.19 210.216 375.584C196.654 394.769 202.129 413.254 177.162 415.595C144.185 418.686 123.031 390.082 108.115 370.513C108.115 370.513 107.623 363.93 107.085 361.238Z"/><path id="DB" fill="#72cdf6" fill-rule="nonzero" opacity="1" stroke="none" d="M255.485 304.557C228.492 331.55 187.563 373.041 153.46 390.093C149.191 392.227 121.045 369.514 116.36 366.39C79.4732 341.799 23.239 316.726 5.05953 294.251C33.1516 260.541 68.455 232.411 105.023 209.746L255.485 304.557Z"/><path id="DB-1" fill="#8fdfff" fill-rule="nonzero" opacity="1" stroke="none" d="M213.625 67.9688C182.362 99.2316 117.393 159.791 94.7188 200.469L105.031 209.75C128.193 197.137 246.293 122.079 255.5 119.062C255.5 119.063 249.552 109.472 244.969 103.906C234.715 91.454 230.381 84.1872 213.625 67.9688Z"/><path id="DB-2" fill="#87dcff" fill-rule="nonzero" opacity="1" stroke="none" d="M154.75 31.4375C146.433 33.5488 127.135 49.2998 122.531 52.0625C106.215 61.8519 7.67893 117.878 5.0625 128.344C15.9191 133.772 87.9771 194.069 89.3125 195.281C91.8876 197.618 93.7638 199.402 94.7188 200.469C117.393 159.791 182.362 99.2315 213.625 67.9688C194.061 49.5753 178.13 41.7369 157.594 31.4688C156.929 31.1363 155.938 31.1359 154.75 31.4375Z"/><path id="DB" fill="#2696d2" fill-rule="nonzero" opacity="1" stroke="none" d="M108.115 370.513C120.942 383.339 153.084 411.735 173.04 411.735C187.534 411.735 199.949 391.079 204.882 381.213C219.406 352.165 240.163 335.2 255.485 304.557C255.828 315.893 255.485 310.195 255.485 321.536C255.485 337.796 186.437 438.529 186.437 438.529C186.437 438.529 125.882 397.39 107.085 391.124C107.6 380.818 107.6 380.818 108.115 370.513Z"/><path id="DB" fill="#31a6dc" fill-rule="nonzero" opacity="1" stroke="none" d="M186.437 438.529C202.878 413.868 238.296 330.187 255.485 304.557C255.485 304.557 264.89 334.616 264.833 373.823C264.783 407.539 255.246 448.143 255.485 480.782C234.013 470.046 186.437 438.529 186.437 438.529Z"/></g></g><g opacity="1" id="DBGroup-7"><path id="DB" fill="#7ed6fb" fill-rule="nonzero" opacity="1" stroke="none" d="M255.485 119.057C255.485 169.898 254.495 220.748 255.485 271.579L232.684 290.34L255.485 304.557C255.485 304.557 189.529 375.923 152.429 390.093C115.329 404.263 129.757 375.665 107.085 361.238C76.3954 340.778 31.5304 319.692 5.05953 293.221C63.4245 232.307 101.665 213.105 105.023 209.746C105.023 209.746 249.921 119.057 255.485 119.057Z"/><path id="DB" fill="#62c8f7" fill-rule="nonzero" opacity="1" stroke="none" d="M255.485 119.057C255.485 169.898 254.495 220.748 255.485 271.579L232.684 290.34C190.61 263.882 105.023 209.746 105.023 209.746C108.294 206.475 252.351 119.057 255.485 119.057Z"/><path id="DB" fill="#1a89d1" fill-rule="nonzero" opacity="1" stroke="none" d="M107.085 361.238C117.729 358.774 147.576 393.035 153.46 390.093C189.089 372.278 228.626 331.296 255.485 304.557C255.485 304.557 243.437 328.865 236.935 337.535C229.863 346.964 217.563 365.19 210.216 375.584C196.654 394.769 202.129 413.254 177.162 415.595C144.185 418.686 123.031 390.082 108.115 370.513C108.115 370.513 107.623 363.93 107.085 361.238Z"/><path id="DB" fill="#72cdf6" fill-rule="nonzero" opacity="1" stroke="none" d="M255.485 304.557C228.492 331.55 187.563 373.041 153.46 390.093C149.191 392.227 121.045 369.514 116.36 366.39C79.4732 341.799 23.239 316.726 5.05953 294.251C33.1516 260.541 68.455 232.411 105.023 209.746L255.485 304.557Z"/><path id="DB-1" fill="#8fdfff" fill-rule="nonzero" opacity="1" stroke="none" d="M213.625 67.9688C182.362 99.2316 117.393 159.791 94.7188 200.469L105.031 209.75C128.193 197.137 246.293 122.079 255.5 119.062C255.5 119.063 249.552 109.472 244.969 103.906C234.715 91.454 230.381 84.1872 213.625 67.9688Z"/><path id="DB-2" fill="#87dcff" fill-rule="nonzero" opacity="1" stroke="none" d="M154.75 31.4375C146.433 33.5488 127.135 49.2998 122.531 52.0625C106.215 61.8519 7.67893 117.878 5.0625 128.344C15.9191 133.772 87.9771 194.069 89.3125 195.281C91.8876 197.618 93.7638 199.402 94.7188 200.469C117.393 159.791 182.362 99.2315 213.625 67.9688C194.061 49.5753 178.13 41.7369 157.594 31.4688C156.929 31.1363 155.938 31.1359 154.75 31.4375Z"/><path id="DB" fill="#2696d2" fill-rule="nonzero" opacity="1" stroke="none" d="M108.115 370.513C120.942 383.339 153.084 411.735 173.04 411.735C187.534 411.735 199.949 391.079 204.882 381.213C219.406 352.165 240.163 335.2 255.485 304.557C255.828 315.893 255.485 310.195 255.485 321.536C255.485 337.796 186.437 438.529 186.437 438.529C186.437 438.529 125.882 397.39 107.085 391.124C107.6 380.818 107.6 380.818 108.115 370.513Z"/><path id="DB" fill="#31a6dc" fill-rule="nonzero" opacity="1" stroke="none" d="M186.437 438.529C202.878 413.868 238.296 330.187 255.485 304.557C255.485 304.557 264.89 334.616 264.833 373.823C264.783 407.539 255.246 448.143 255.485 480.782C234.013 470.046 186.437 438.529 186.437 438.529Z"/></g><path id="DB" fill="#80d9ff" fill-rule="nonzero" opacity="1" stroke="none" d="M255.485 271.579C255.485 271.579 268.032 284.678 282.279 287.037C282.794 287.553 258.607 304.557 255.485 304.557C255.345 304.557 246.289 298.896 232.684 290.34L255.485 271.579Z"/><g opacity="1" id="DBGroup-8"><path id="DB" fill="#50b7eb" fill-rule="nonzero" opacity="1" stroke="none" d="M253.374 480.602L253.374 338.644L253.374 304.377C282.067 318.724 400.743 209.566 400.743 209.566L504.829 296.132C504.829 296.132 482.972 310.707 456.13 327.96C427.055 346.648 397.203 366.437 403.282 362.385C403.282 372.347 402.733 381.028 401.774 390.944C401.301 395.828 371.555 409.372 366.735 412.585C349.402 424.14 268.565 480.602 253.374 480.602Z"/><path id="DB-1" fill="#8fdfff" fill-rule="nonzero" opacity="1" stroke="none" d="M299.812 78.875C289.339 87.6113 264.66 116.644 255.5 119.062C261.674 119.063 401.376 208.281 402.844 209.75L417.281 198.406C392.966 174.091 345.048 119.855 318.531 94.4062C314.991 91.0089 311.085 87.4855 307.688 84.625C307.569 84.5261 307.631 84.5719 307.344 84.3125C306.972 84.0293 307.086 84.1232 306.938 84C303.672 81.2879 300.969 79.2606 299.812 78.875Z"/><path id="DB-2" fill="#87dcff" fill-rule="nonzero" opacity="1" stroke="none" d="M354.406 31.4688C351.1 31.4688 299.813 78.875 299.812 78.875C300.199 78.5528 314.991 91.0089 318.531 94.4062C345.048 119.855 392.966 174.091 417.281 198.406C448.841 177.366 476.582 150.08 506.938 127.312C498.606 110.65 418.776 68.5595 398.312 56.2812C389.732 51.1333 364.721 31.4687 354.406 31.4688Z"/><path id="DB" fill="#36abe1" fill-rule="nonzero" opacity="0" stroke="#36abe1" stroke-linecap="round" stroke-linejoin="round" stroke-width="1.03056" d="M401.824 205.624C401.308 206.654 401.308 206.654 400.793 207.685C401.824 207.685 401.824 207.685 402.854 207.685C402.854 214 379.556 224.591 373.999 228.296C347.282 246.107 308.031 282.403 277.126 290.129C275.247 290.599 256.553 277.605 256.515 275.701C255.492 223.495 255.828 171.272 255.485 119.057C260.074 119.057 271.974 124.347 271.974 129.362C308.178 141.43 365.14 205.624 401.824 205.624Z"/><path id="DB" fill="#33aae0" fill-rule="nonzero" opacity="1" stroke="none" d="M402.854 209.746C369.791 242.809 319.188 258.316 286.132 291.372C286.132 291.372 275.66 285.792 266.325 280.212C257.561 274.973 255.485 271.579 255.485 271.579C254.495 220.748 255.485 169.898 255.485 119.057C260.408 117.881 379.929 192.041 402.854 209.746C402.854 209.746 399.763 203.562 402.854 209.746Z"/><path id="DB" fill="#87dcff" fill-rule="nonzero" opacity="1" stroke="none" d="M255.485 304.557C268.376 285.701 380.439 209.746 402.854 209.746C407.147 209.746 503.187 288.805 506.94 296.312C500.571 299.497 492.303 304.409 482.924 310.352C480.171 312.097 477.322 313.931 474.397 315.836C468.557 319.64 462.415 323.728 456.13 327.96C415.886 355.058 369.784 388.051 359.571 390.093C359.571 390.093 339.067 373.711 335.868 370.513C313.311 347.955 278.101 327.173 255.485 304.557Z"/><path id="DB" fill="#50b7eb" fill-rule="nonzero" opacity="1" stroke="none" d="M255.485 480.782L255.485 304.557C284.178 318.904 310.468 351.463 335.868 370.513C340.74 374.166 359.571 390.093 359.571 390.093C372.379 387.531 394.118 375.235 405.393 367.718C405.393 377.68 404.844 381.208 403.885 391.124C403.698 393.052 264.678 480.782 255.485 480.782Z"/><path id="DB" fill="#45b4f2" fill-rule="nonzero" opacity="1" stroke="none" d="M337.929 408.643C338.936 414.682 340.393 416.066 334.838 417.918C334.838 409.466 332.837 412.038 337.929 408.643Z"/></g></g></g></svg>