<svg height="100%" stroke-miterlimit="10" style="fill-rule:nonzero;clip-rule:evenodd;stroke-linecap:round;stroke-linejoin:round;" version="1.1" viewBox="0 0 100 100" width="100%" xml:space="preserve" xmlns="http://www.w3.org/2000/svg" xmlns:vectornator="http://vectornator.io" xmlns:xlink="http://www.w3.org/1999/xlink">
<defs>
<filter color-interpolation-filters="sRGB" filterUnits="userSpaceOnUse" height="40.745" id="Filter" width="28.2676" x="7.49425" y="29.4499">
<feDropShadow dx="0.405831" dy="0.913948" flood-color="#ffffff" flood-opacity="0.7" in="SourceGraphic" result="Shadow" stdDeviation="0.5"/>
</filter>
<filter color-interpolation-filters="sRGB" filterUnits="userSpaceOnUse" height="38.5644" id="Filter_2" width="41.4956" x="22.4862" y="14.0726">
<feDropShadow dx="0.405831" dy="0.913948" flood-color="#ffffff" flood-opacity="0.7" in="SourceGraphic" result="Shadow" stdDeviation="0.5"/>
</filter>
<filter color-interpolation-filters="sRGB" filterUnits="userSpaceOnUse" height="9.7776" id="Filter_3" width="20.0917" x="62.3341" y="31.45">
<feDropShadow dx="-0.351443" dy="0.382233" flood-color="#000000" flood-opacity="0.46" in="SourceGraphic" result="Shadow" stdDeviation="0.5"/>
</filter>
<radialGradient cx="34.7477" cy="28.4399" gradientTransform="matrix(2.07678 0 0 2.05045 0.157223 1.99561)" gradientUnits="userSpaceOnUse" id="RadialGradient" r="4.28941">
<stop offset="0" stop-color="#d33686"/>
<stop offset="0" stop-color="#d63f7a"/>
<stop offset="0.238158" stop-color="#712041"/>
<stop offset="0.543421" stop-color="#11020a"/>
<stop offset="1" stop-color="#000000"/>
</radialGradient>
<filter color-interpolation-filters="sRGB" filterUnits="userSpaceOnUse" height="12.7918" id="Filter_4" width="14.9443" x="66.565" y="54.0179">
<feDropShadow dx="-0.351443" dy="0.382233" flood-color="#000000" flood-opacity="0.5" in="SourceGraphic" result="Shadow" stdDeviation="0.5"/>
</filter>
<filter color-interpolation-filters="sRGB" filterUnits="userSpaceOnUse" height="14.6401" id="Filter_5" width="15.5582" x="35.4771" y="26.0829">
<feDropShadow dx="-0.351443" dy="0.382233" flood-color="#000000" flood-opacity="0.5" in="SourceGraphic" result="Shadow" stdDeviation="0.5"/>
</filter>
<filter color-interpolation-filters="sRGB" filterUnits="userSpaceOnUse" height="7.63414" id="Filter_6" width="7.30947" x="64.419" y="51.9639">
<feDropShadow dx="-0.351443" dy="0.382233" flood-color="#000000" flood-opacity="0.5" in="SourceGraphic" result="Shadow" stdDeviation="0.5"/>
</filter>
<filter color-interpolation-filters="sRGB" filterUnits="userSpaceOnUse" height="14.2573" id="Filter_7" width="25.9764" x="59.5355" y="29.1236">
<feDropShadow dx="-0.351443" dy="0.382233" flood-color="#000000" flood-opacity="0.46" in="SourceGraphic" result="Shadow" stdDeviation="0.5"/>
</filter>
<radialGradient cx="32.2146" cy="17.0329" gradientTransform="matrix(2.07678 0 0 2.07678 0.157223 1.31633)" gradientUnits="userSpaceOnUse" id="RadialGradient_2" r="1.54394">
<stop offset="0.227632" stop-color="#000000"/>
<stop offset="0.8" stop-color="#080ff9"/>
<stop offset="1" stop-color="#020211"/>
</radialGradient>
<radialGradient cx="39.2685" cy="15.1095" gradientTransform="matrix(2.07678 0 0 2.07678 0.157223 1.31633)" gradientUnits="userSpaceOnUse" id="RadialGradient_3" r="1.28823">
<stop offset="0.227632" stop-color="#000000"/>
<stop offset="0.8" stop-color="#080ff9"/>
<stop offset="1" stop-color="#020211"/>
</radialGradient>
<filter color-interpolation-filters="sRGB" filterUnits="userSpaceOnUse" height="9.7776" id="Filter_8" width="20.0917" x="62.3341" y="31.45">
<feDropShadow dx="-0.351443" dy="0.382233" flood-color="#000000" flood-opacity="0.46" in="SourceGraphic" result="Shadow" stdDeviation="0.5"/>
</filter>
<radialGradient cx="32.2146" cy="17.0329" gradientTransform="matrix(2.07678 0 0 2.07678 0.157223 1.31633)" gradientUnits="userSpaceOnUse" id="RadialGradient_4" r="1.54394">
<stop offset="0.227632" stop-color="#000000"/>
<stop offset="0.8" stop-color="#080ff9"/>
<stop offset="1" stop-color="#020211"/>
</radialGradient>
<radialGradient cx="39.2685" cy="15.1095" gradientTransform="matrix(2.07678 0 0 2.07678 0.157223 1.31633)" gradientUnits="userSpaceOnUse" id="RadialGradient_5" r="1.28823">
<stop offset="0.227632" stop-color="#000000"/>
<stop offset="0.8" stop-color="#080ff9"/>
<stop offset="1" stop-color="#020211"/>
</radialGradient>
<filter color-interpolation-filters="sRGB" filterUnits="userSpaceOnUse" height="9.12686" id="Filter_9" width="8.06934" x="56.9235" y="25.8171">
<feDropShadow dx="-0.351443" dy="0.382233" flood-color="#000000" flood-opacity="0.5" in="SourceGraphic" result="Shadow" stdDeviation="0.5"/>
</filter>
<filter color-interpolation-filters="sRGB" filterUnits="userSpaceOnUse" height="3.60394" id="Filter_10" width="5.9485" x="73.1813" y="22.4488">
<feDropShadow dx="-0.351443" dy="0.382233" flood-color="#000000" flood-opacity="0.5" in="SourceGraphic" result="Shadow" stdDeviation="0.5"/>
</filter>
<filter color-interpolation-filters="sRGB" filterUnits="userSpaceOnUse" height="78.2282" id="Filter_11" width="100.5" x="-0.253721" y="12.5642">
<feDropShadow dx="-0.00372135" dy="0.519231" flood-color="#000000" flood-opacity="0.5" in="SourceGraphic" result="Shadow" stdDeviation="0.5"/>
</filter>
</defs>
<g id="Elephant" layerName="Elephant">
<g opacity="1" layerName="Group 13">
<g opacity="1" layerName="Group 1">
<path d="M34.5671 29.5677L27.7516 30.6724L21.5329 33.3942L16.252 36.7106L11.225 42.8335L8.38742 45.8359L5.64116 46.8471L4.91506 45.0764L6.18462 43.2478L6.46972 40.6686L7.32055 40.702L8.24933 41.5483L7.99765 38.9201L6.96863 38.2297L6.99982 37.2274L4.56092 38.6061L2.35144 41.2076L1.89039 43.5329L2.83477 45.3949L3.71678 48.5599L5.50975 49.4063L7.39405 49.3149L9.18257 48.277L7.99096 54.3152L9.18257 61.0328L7.87069 64.1354L3.572 68.7593L4.33596 71.5211L6.37172 74.7217L10.2116 77.419L12.2496 77.6974L14.5147 77.7731L13.1026 83.5641L18.2989 85.689L24.7737 86.5398L26.9876 85.0943L27.1591 81.1831L29.6292 77.1005L29.7985 73.8687L35.7609 74.2941L41.298 73.784L35.7609 77.1005L36.6986 81.0963L40.191 86.5376L43.5988 87.9831L46.325 86.8783L47.432 84.6666L53.1383 80.3301L54.2453 81.2655L63.1901 81.6063L64.9787 80.1608L65.1479 77.6105L64.551 76.5058L64.1256 69.619L61.1432 63.6676L61.6533 61.0305L63.4418 61.966L68.4688 66.6433L70.9389 66.8126L73.6651 65.7079L76.3913 63.6676L77.7544 59.2465L85.7616 59.7565L90.6171 57.8856L94.5349 54.2284L97.3458 48.9563L98.0273 42.7489L97.4304 35.5213L95.898 29.0599L94.3656 27.0197L92.2363 26.3403L88.4878 30.423L85.08 31.6124L82.0977 26.6811L79.1153 23.9594L77.4961 22.9392L71.0213 17.5826L65.825 14.7762L60.6287 14.3508L54.5816 15.3709L49.3007 17.3265L45.6368 20.3021L42.7413 23.7879L39.7589 24.6387L34.5671 29.5677L34.5671 29.5677Z" fill="#ffff00" fill-rule="evenodd" opacity="1" stroke="none" layerName="path"/>
<path d="M71.293 64.7813C72.3755 65.4473 72.351 65.9306 72.1706 66.3872C73.0237 66.0464 73.8767 65.7056 74.732 65.3649C75.2844 64.6232 75.839 63.8837 76.3913 63.142C76.8012 62.0863 77.2132 61.0305 77.623 59.9748C77.0974 59.5806 76.574 59.1885 76.0506 58.7943C73.7587 59.0861 71.4668 59.3779 69.1727 59.6696C69.0012 60.1329 68.8319 60.594 68.6604 61.0573C68.7094 61.7143 68.7584 62.3714 68.8074 63.0284C69.0257 63.4182 69.2462 63.808 69.4667 64.1977C69.8074 64.3692 70.1504 64.5385 70.4912 64.71C70.7585 64.7323 71.0258 64.7568 71.293 64.7813" fill="#cccc00" fill-rule="evenodd" opacity="1" stroke="none" layerName="path 3"/>
<path d="M70.6538 53.0412C67.206 54.0346 67.2327 54.3085 66.2148 57.723C67.5601 55.5692 68.5535 54.4823 70.6538 53.0412M93.5749 27.4941C92.9624 27.7769 92.3655 27.9128 91.9824 28.4719C91.1583 29.6768 90.45 30.6903 89.0869 31.5344C88.4009 31.9598 87.6904 32.236 86.9621 32.4632C86.3585 32.6503 85.9954 32.4832 85.4809 32.853C85.7861 32.9064 86.0912 32.9599 86.3964 33.0133C87.069 33.0133 87.7417 33.0133 88.4143 33.0133C89.2429 32.501 90.0736 31.991 90.9022 31.4787C91.39 30.9664 91.8777 30.4564 92.3655 29.9441C92.7687 29.1289 93.1718 28.3115 93.5749 27.4941M38.6631 35.1315C37.3067 38.8355 36.1218 42.0116 34.0682 45.3659C36.7009 42.535 38.2956 40.1273 39.8035 36.9267C40.3893 35.6839 40.5006 34.225 42.131 34.7662C42.2045 36.0068 42.4673 37.2496 42.5408 38.4903C43.4228 32.1825 45.9085 29.5454 51.6861 27.0976C50.0513 27.2936 48.4187 27.4874 46.7838 27.6812C45.247 28.0219 43.7102 28.3627 42.1756 28.7035C41.4205 29.7993 40.6632 30.8952 39.9082 31.991C39.4917 33.0378 39.0774 34.0847 38.6631 35.1315M49.8575 34.9845C51.1026 40.8378 52.8978 46.4573 53.6773 52.4042C54.1829 56.2686 54.2386 58.1261 52.292 61.4582C50.1627 61.3201 48.8419 61.5606 46.7816 62.2333C38.5852 64.9149 33.8833 68.8595 28.3596 60.9125C30.1236 61.741 31.8854 62.5718 33.6495 63.4004C34.9057 63.1531 36.1641 62.9081 37.4203 62.6609C39.6387 61.3713 41.8593 60.0795 44.0777 58.7899C45.8083 58.4491 47.5411 58.1083 49.2717 57.7675C49.833 55.4311 50.3943 53.0924 50.9556 50.756C50.5413 47.6645 50.127 44.573 49.7127 41.4815C49.6637 40.0204 49.6147 38.5615 49.5657 37.1004C49.6615 36.3966 49.7595 35.6905 49.8575 34.9845M63.9786 71.2071C63.2904 75.9623 65.5644 78.5193 64.6223 79.8334C64.355 80.2053 63.9942 80.8535 63.591 81.0317C62.15 81.6665 60.1699 80.9136 60.0274 81.2856C58.4415 81.2856 56.8579 81.2856 55.2721 81.2856C54.6373 81.0183 54.0047 80.7488 53.37 80.4815C54.3455 79.3367 55.3211 78.1941 56.2966 77.0493C57.2477 74.9801 58.1988 72.9109 59.1498 70.8418C59.7601 68.7481 60.3704 66.6545 60.9784 64.5608C61.2947 64.5608 61.6132 64.5608 61.9295 64.5608C62.611 66.777 63.2948 68.9931 63.9786 71.2071" fill="#c0ca33" fill-rule="evenodd" opacity="1" stroke="none" layerName="path 4"/>
<path d="M65.9004 14.6856C68.2524 16.8661 71.1595 18.7713 73.0393 21.4352C73.7676 22.4664 74.5894 23.0288 73.0393 24.4854C74.6764 24.0177 75.2991 24.0677 76.6088 24.2258C78.992 24.5132 81.2039 27.8382 81.3464 30.2615C81.3175 30.4887 80.6595 31.0517 78.8154 31.5595C78.7797 31.6307 77.8174 31.4255 77.8419 31.4946C78.0334 32.018 78.2958 32.0933 78.6856 32.3383C78.7652 32.8854 78.87 33.6628 79.2048 34.2852C79.3012 34.1584 79.4142 34.0582 79.5292 33.9608C79.2458 33.2594 79.4001 32.4558 80.5027 32.3383C80.8117 32.3053 82.5198 32.0792 82.7666 32.4703C83.0092 32.8548 81.7932 33.8559 81.8007 33.8959C81.8071 33.9299 81.7329 33.9268 81.7358 33.9608C81.7358 34.0059 81.7358 34.0556 81.7358 34.0906C81.7359 34.1981 81.6093 34.2255 81.5411 34.2852C81.4913 34.3944 81.6283 34.5206 81.5411 34.6097C81.9104 34.6341 82.28 34.6673 82.6444 34.7395C83.0275 35.3721 82.9374 36.054 82.904 36.6865C83.3428 36.613 83.8282 36.4982 84.2669 36.4269C84.1444 35.4291 84 34.4394 83.8775 33.4416C84.2673 32.7845 84.6537 32.1517 85.0457 31.4946C84.4844 30.2295 83.9196 28.9306 83.3583 27.6655C82.2848 26.6432 81.1847 25.6376 80.1133 24.6152C80.0109 24.6108 79.9562 24.6197 79.8537 24.6152C78.6466 23.8758 77.4243 23.1481 76.2194 22.4086C74.2504 20.8005 72.2825 19.1493 70.3135 17.5412C68.8569 16.5879 67.3615 15.6389 65.9004 14.6856ZM93.6124 26.4973C94.608 30.9675 95.8744 35.0948 95.7541 39.6719C95.6071 45.2869 94.4761 52.3815 89.2642 55.767C83.4264 59.5601 76.5894 57.7801 70.1837 56.1564C72.7941 57.2277 75.4261 58.33 78.0366 59.4013C80.4755 59.5238 82.9313 59.6034 85.3702 59.7258C87.0295 59.2381 88.6432 58.7858 90.3026 58.298C91.5944 57.2267 92.9048 56.1244 94.1965 55.0531C95.1721 53.0084 96.1415 50.9972 97.117 48.9525C97.4823 46.5916 97.8527 44.2417 98.2203 41.8785C97.9285 39.5666 97.6034 37.2462 97.3117 34.9342C96.7749 32.6468 96.2909 30.3424 95.7541 28.0549C95.0391 27.5471 94.3276 27.0029 93.6124 26.4973ZM69.8592 32.6628C69.5964 32.7719 69.2157 33.0728 68.9506 33.182C68.2624 33.4069 67.5621 33.606 66.8739 33.831C65.8203 34.6261 64.7473 35.4371 63.6938 36.2322C63.0969 36.8514 62.4734 37.4951 61.8766 38.1143C61.5136 38.337 61.331 38.3762 60.968 38.3739C61.5404 38.5855 62.1552 38.4268 62.8501 38.2441C63.447 39.507 63.7579 40.0466 64.9918 40.7103C65.2645 40.4493 65.5582 40.1968 65.8355 39.9315C65.6283 39.6936 64.7971 39.1527 64.7971 39.1527C64.615 38.8952 64.4187 37.0291 64.768 36.4203C64.9431 36.115 65.6089 36.7084 65.8355 36.6865C66.6605 36.6068 67.1896 36.83 67.9771 37.3355C68.0211 37.3637 68.0613 37.305 68.1069 37.3355C68.1267 37.3488 68.0882 37.3859 68.1069 37.4004C68.2549 37.4762 68.3881 37.5611 68.4963 37.66C69.3832 37.2254 70.2681 36.8021 71.1572 36.362C70.8075 35.0524 70.32 34.4308 69.34 33.5065C69.5806 33.2681 69.7345 32.8788 69.8592 32.6628ZM6.84187 38.309C6.71046 38.8257 6.5861 39.3498 6.45247 39.8666C3.80198 41.5883 2.78815 42.3211 3.0777 45.5129C3.34275 46.4684 3.59144 47.413 3.85649 48.3684C4.23068 48.6201 4.5856 48.8956 4.95978 49.1472C5.42306 49.3009 5.9243 49.4478 6.38757 49.6015C7.22281 49.4033 8.08118 49.2135 8.91865 49.0174C9.34852 47.6877 9.72187 46.3212 10.1517 44.9937C8.96236 45.575 7.77164 46.1647 6.58227 46.7459C6.30608 46.7459 6.07966 46.7459 5.80347 46.7459C5.49611 46.2738 5.13735 45.7903 4.82998 45.3182C5.20417 44.768 5.62399 44.2458 5.99817 43.6957C6.1964 42.6511 6.38404 41.6251 6.58227 40.5805C6.83618 40.6585 7.10715 40.6995 7.36106 40.7752C7.66843 41.018 7.96229 41.3112 8.26965 41.554C8.22511 41.0038 8.18217 40.4167 8.13985 39.8666C7.93049 39.5147 7.70023 39.1779 7.49086 38.8282C7.28149 38.6523 7.05123 38.485 6.84187 38.309ZM23.7157 48.628C23.6133 50.47 23.4868 51.2854 24.2998 52.9114C25.3355 54.9806 26.6147 56.9024 27.7395 58.947C27.862 57.5839 28.0064 56.2215 28.1289 54.8584C26.6655 52.7892 25.1791 50.6949 23.7157 48.628ZM55.9707 57.3895C56.3561 59.5499 57.0297 60.0357 58.0475 62.1271C57.3704 65.5371 56.3068 69.6318 54.9973 72.6408C54.4449 73.9104 53.9587 74.5813 52.9854 75.5613C51.3416 77.2184 49.7226 78.6677 47.8583 80.1043C46.5175 81.1377 45.5543 80.5977 43.8995 80.3639C43.1956 81.6379 42.9892 82.3789 41.6929 83.0247C39.6994 84.0203 37.9347 81.8841 36.3711 80.6235C37.5004 82.3853 38.6167 84.1185 39.7459 85.8803C40.5254 86.6109 41.3027 87.3563 42.0823 88.0869C42.7415 88.1849 43.4348 88.2485 44.0942 88.3465C44.9717 87.8097 45.8126 87.3234 46.6901 86.7889C47.1534 85.9136 47.6546 85.0033 48.1179 84.128C49.0935 83.3975 50.0628 82.652 51.0384 81.9214C52.2345 80.8991 53.4118 79.8935 54.6079 78.8712C55.3629 77.7998 56.1243 76.7624 56.8793 75.6911C57.5609 74.426 58.2722 73.1271 58.9561 71.862C59.8337 69.2338 60.6723 66.6374 61.5521 64.0092C61.6256 63.0114 61.7404 61.9568 61.8117 60.9589C60.7136 60.4711 59.5998 60.0189 58.5018 59.5311C57.6955 58.7739 56.7748 58.1445 55.9707 57.3895ZM8.72395 62.5814C8.40767 63.2541 8.06896 63.9207 7.75046 64.5933C8.62133 67.5244 9.40099 69.3655 11.0603 71.9269C10.7708 72.9649 10.5581 73.4192 9.89214 74.2633C8.43103 74.0384 7.15483 73.9993 5.67368 74.0037C7.30851 75.2688 8.9063 76.5028 10.5411 77.7679C11.3452 77.6209 12.2033 77.4606 13.0073 77.3136C13.8114 76.5095 14.6045 75.7164 15.4086 74.9123C14.2615 73.1349 13.116 71.3679 11.9689 69.5905C10.8931 67.2474 9.80419 64.9267 8.72395 62.5814ZM43.7697 66.9946C42.5981 68.2619 41.6771 69.3893 40.7194 70.8236C37.3383 72.3716 33.4442 72.5759 29.7514 72.5759C29.7269 72.9167 29.711 73.2758 29.6865 73.6143C29.7822 73.7123 29.848 73.8409 29.9461 73.9388C30.8481 74.0368 31.7698 74.1005 32.6718 74.1984C35.4538 74.1271 38.1993 74.0772 40.979 74.0037C41.3465 73.4692 41.717 72.9158 42.0823 72.3812C42.3651 70.1227 42.7028 69.0036 43.7697 66.9946ZM29.6865 73.6143C29.5432 72.4169 29.3767 71.2404 29.2322 70.0448C29.1364 69.1807 29.0035 68.313 28.9077 67.4489C28.2774 71.2397 28.4495 73.7872 26.7011 77.1838C25.3959 78.6939 23.8032 80.0831 21.9634 80.8182C22.1193 81.7492 22.1845 82.2761 22.0932 82.9598C21.7681 85.4143 16.8469 84.3558 14.8245 84.2578C18.0719 85.0931 21.312 85.9537 24.5594 86.7889C25.29 86.4971 26.0355 86.1721 26.766 85.8803C27.011 84.4682 27.2371 83.074 27.4799 81.6618C28.1637 80.3967 28.808 79.0979 29.4918 77.8328C29.6143 77.0532 29.7609 76.2738 29.8812 75.4964C29.806 74.8662 29.7618 74.2439 29.6865 73.6143Z" fill="#c0ca33" fill-rule="nonzero" opacity="1" stroke="none" layerName="Curve 1"/>
<path d="M72.9457 35.9935C69.4221 37.8867 66.0478 39.791 64.2459 43.3881C64.2481 38.8221 68.8386 36.8131 72.9457 35.9935M63.5487 27.013C60.9316 28.7926 59.083 32.3875 59.3146 35.8888C58.4616 32.8574 58.7645 29.9909 61.3816 27.8972C61.8226 27.6834 62.2636 27.4696 62.7068 27.2535C62.9852 27.1756 63.2681 27.0954 63.5487 27.013" fill="#c0ca33" fill-rule="evenodd" opacity="1" stroke="none" layerName="path 6"/>
<path d="M14.8043 44.916C8.96652 51.7115 10.2628 59.9547 11.8821 68.0309C11.0179 65.8526 10.1559 63.6766 9.29171 61.4983C8.9732 59.5026 8.6547 57.5069 8.33842 55.5091C8.42974 53.4666 8.52106 51.4264 8.61015 49.384C9.42757 47.4329 10.2472 45.4817 11.0646 43.5329C12.2919 41.7176 13.5191 39.9046 14.7464 38.0893C16.6552 36.5013 18.564 34.9132 20.4728 33.3251C22.5642 32.4632 24.6534 31.6012 26.7448 30.7393C29.1993 30.4207 31.6538 30.1045 34.1061 29.786C31.8342 32.3719 29.5624 34.9578 27.2883 37.5437C21.8136 39.3166 18.584 40.5104 14.8043 44.916" fill="#fffeed" fill-rule="evenodd" filter="url(#Filter)" stroke="none" layerName="path 1" shadowAngle="1.15291" shadowColor="#ffffff" shadowOffset="1" shadowOpacity="0.7" shadowRadius="1"/>
<path d="M42.2825 24.2088C38.2243 28.16 36.0082 31.1424 33.4245 35.7685C31.5781 39.0783 29.5045 42.2678 27.5622 45.5307C26.58 47.1834 26.4865 48.5688 26.1925 50.4731C25.2392 49.3394 24.2837 48.2057 23.3304 47.0698C23.7847 45.7089 24.2391 44.3481 24.6935 42.9872C26.2392 40.2209 27.7827 37.4523 29.3285 34.686C32.6004 31.4654 35.8723 28.2447 39.1442 25.024C40.1933 24.7523 41.2379 24.4805 42.2825 24.2088M62.3259 14.4087C59.0763 15.6248 53.6773 16.0257 53.3031 19.7498C53.0359 22.3936 53.5036 23.7233 55.1006 26.5207C51.156 22.447 50.1805 23.0773 42.5587 24.3424C43.65 22.7989 44.7392 21.2576 45.8306 19.7141C47.7394 18.5359 49.6481 17.3554 51.5569 16.1749C54.0114 15.6315 56.4659 15.0858 58.9182 14.5423C60.0519 14.5 61.19 14.4555 62.3259 14.4087" fill="#fffeed" fill-rule="evenodd" filter="url(#Filter_2)" stroke="none" layerName="path 2" shadowAngle="1.15291" shadowColor="#ffffff" shadowOffset="1" shadowOpacity="0.7" shadowRadius="1"/>
</g>
<g filter="url(#Filter_3)" layerName="Group 9" shadowAngle="2.31425" shadowColor="#000000" shadowOffset="0.519244" shadowOpacity="0.46" shadowRadius="1">
<g opacity="1" layerName="Group 8">
<path d="M79.2924 33.6613C79.1591 33.0738 79.5455 32.4854 80.1554 32.3471C80.7652 32.2087 81.3677 32.5728 81.5009 33.1603C81.6342 33.7477 81.2478 34.3361 80.638 34.4745C80.0281 34.6128 79.4257 34.2487 79.2924 33.6613Z" fill="#fffffe" fill-rule="nonzero" opacity="1" stroke="none" layerName="Oval 1"/>
<path d="M64.2894 38.9237C63.6972 38.1533 63.8655 37.0303 64.6653 36.4155C65.4652 35.8007 66.5937 35.9269 67.1859 36.6973C67.7781 37.4678 67.6098 38.5907 66.81 39.2055C66.0101 39.8204 64.8816 39.6942 64.2894 38.9237Z" fill="#fffffe" fill-rule="nonzero" opacity="1" stroke="none" layerName="Oval 3"/>
</g>
</g>
<path d="M68.8857 54.9228C68.8122 54.9734 68.8008 55.0933 68.8208 55.1791C69.1616 56.6877 69.1327 57.851 68.8208 58.8955C68.3798 60.3623 67.7438 62.5876 68.5612 63.9576C68.8953 64.5161 69.4309 64.8842 70.1837 65.0469C71.2952 65.291 71.8425 65.2421 73.3638 64.4702C73.4618 64.4196 73.4666 64.3172 73.4287 64.2139C73.3908 64.1105 73.2716 64.0594 73.1691 64.0857C71.9909 64.3474 71.4265 64.2265 70.638 64.0857C70.2727 64.0176 70.0126 63.8945 69.7943 63.6372C70.0237 63.7054 70.2995 63.7503 70.638 63.8294C72.7116 64.3176 74.8093 63.4396 75.2459 61.8431C75.3194 61.5704 75.396 61.3006 75.4406 61.0741C75.5208 60.6651 75.5849 60.2802 75.83 59.6645C76.0704 59.7357 76.6545 60.0552 77.8497 59.8182C79.0448 59.5812 80.6107 58.7165 80.6107 58.7165C80.6107 58.7165 76.8616 57.8554 76.4918 57.7654C75.5 57.5239 74.0861 57.1741 72.1307 56.5247C71.1284 56.1905 70.3922 55.7179 69.5347 55.1791L69.1453 54.9228C69.0696 54.8766 68.957 54.87 68.8857 54.9228Z" fill="url(#RadialGradient)" fill-rule="nonzero" filter="url(#Filter_4)" stroke="none" layerName="Curve 2" shadowAngle="2.31425" shadowColor="#000000" shadowOffset="0.519244" shadowOpacity="0.5" shadowRadius="1"/>
<g opacity="1" layerName="Group 7">
<g opacity="1" layerName="Group 6">
<path d="M49.9351 26.9516C48.0553 27.1654 46.1261 27.3575 44.2239 27.5357L43.9644 27.5357C42.5322 27.6693 42.182 27.7111 41.0439 28.8337C39.2375 30.6178 37.5839 36.6566 37.085 38.8282C37.0605 38.9396 37.1057 39.0522 37.2148 39.0878C37.2371 39.0945 37.2574 39.0878 37.2797 39.0878C37.3666 39.0878 37.4388 39.0404 37.4744 38.958C37.5925 38.6818 37.7639 38.3138 37.9287 37.9196C38.8842 35.6478 40.6699 31.413 42.0174 30.2615C42.1287 30.1657 42.2483 30.0776 42.3419 30.0019C41.638 31.3939 41.7326 32.1139 42.0823 34.3501C42.0979 34.4571 42.1678 34.5448 42.277 34.5448C42.3861 34.5448 42.5232 34.4593 42.5366 34.3501C42.8506 31.9603 43.6349 30.9852 44.9378 29.288L45.1974 28.8986C46.8278 28.4865 48.3406 27.9869 50 27.341C50.1047 27.3009 50.1565 27.1906 50.1298 27.0814C50.1031 26.9723 50.0465 26.9449 49.9351 26.9516Z" fill="#000000" fill-rule="nonzero" filter="url(#Filter_5)" stroke="none" layerName="Curve 1" shadowAngle="2.31425" shadowColor="#000000" shadowOffset="0.519244" shadowOpacity="0.5" shadowRadius="1"/>
<path d="M69.5335 53.0301C69.1415 53.1058 68.7472 53.1815 68.4644 53.2283C66.8719 53.4956 66.638 53.921 66.3908 55.4801C66.3373 55.8209 66.2727 56.2017 66.2081 56.5848C66.1413 56.9724 66.0767 57.3622 66.0233 57.7096C66.0054 57.8232 66.0745 57.9301 66.1858 57.9591C66.2037 57.9635 66.2237 57.9658 66.2415 57.9658C66.3328 57.9658 66.4153 57.9101 66.4487 57.821C66.8362 56.7831 67.148 56.0169 67.422 55.411C67.7316 54.7384 67.883 54.656 68.5245 54.3108L68.6515 54.2417C68.9143 54.0969 69.2974 53.9232 69.6693 53.7517C70.048 53.578 70.4378 53.3998 70.7139 53.2483C70.8097 53.1971 70.852 53.0835 70.8186 52.9811C70.783 52.8786 70.6828 52.8185 70.5714 52.8341C70.2997 52.8831 69.9166 52.9566 69.5335 53.0301Z" fill="#000000" fill-rule="nonzero" filter="url(#Filter_6)" stroke="none" layerName="path 9" shadowAngle="2.31425" shadowColor="#000000" shadowOffset="0.519244" shadowOpacity="0.5" shadowRadius="1"/>
</g>
<g opacity="1" layerName="Group 5">
<g filter="url(#Filter_7)" layerName="Group 3" shadowAngle="2.31425" shadowColor="#000000" shadowOffset="0.519244" shadowOpacity="0.46" shadowRadius="1">
<path d="M69.8592 32.4681C69.1977 32.7732 68.4862 32.8536 67.7824 32.9873C66.8915 33.1565 65.9504 33.3791 65.1865 33.8959C64.5094 34.3524 63.6922 35.3394 62.915 36.2971C62.327 37.021 61.7333 37.7293 61.2276 38.1792C61.1474 38.2505 61.1071 38.4124 61.1627 38.5037C61.2184 38.595 61.3243 38.6042 61.4223 38.5686C62.0794 38.3147 62.8204 37.8876 63.6289 37.2706C63.6757 37.6136 63.7371 37.9927 63.8885 38.309C64.1691 38.897 64.6363 39.3311 65.1865 39.6719C64.8011 40.2154 64.4984 40.8184 64.2779 41.4242C64.2422 41.5244 64.2492 41.6304 64.3428 41.6838C64.3784 41.7038 64.4348 41.7487 64.4726 41.7487C64.5372 41.7487 64.6227 41.6701 64.6673 41.6189C66.801 39.0954 69.9526 37.1143 73.1042 36.2322C73.2111 36.2033 73.2474 36.0795 73.234 35.9726C73.2206 35.8635 73.1484 35.7802 73.0393 35.7779C73.0081 35.7757 72.9429 35.7779 72.9095 35.7779C72.0988 35.7779 71.2201 35.8912 70.3135 36.1673C70.2601 35.8845 70.1787 35.6514 70.0539 35.3885C69.7377 34.727 69.2049 34.1695 68.5612 33.831C69.0869 33.5369 69.6711 33.198 70.1188 32.7926C70.199 32.7191 70.1789 32.6243 70.1188 32.533C70.0587 32.4416 69.9572 32.4169 69.8592 32.4681ZM65.3163 37.1408C65.9755 36.8268 66.8194 37.1328 67.1335 37.7898C67.1624 37.8522 67.1783 37.9221 67.1984 37.9845C66.568 38.45 65.9943 38.97 65.511 39.607C65.1858 39.4756 64.8926 39.2943 64.7322 38.958C64.4181 38.301 64.657 37.4527 65.3163 37.1408Z" fill="url(#RadialGradient_2)" fill-rule="nonzero" opacity="1" stroke="none" layerName="Curve 3"/>
<path d="M81.9954 30.0019C81.423 29.9484 80.8384 30.1017 80.3729 30.3913L80.308 30.3913C79.6688 30.7009 78.5681 31.1168 77.8419 31.235C77.7416 31.2506 77.6562 31.3273 77.6472 31.4297C77.6383 31.5299 77.7459 31.6559 77.8419 31.6893C78.1425 31.7917 78.7281 31.8256 79.2048 31.7542C79.1313 31.9569 79.0972 32.1848 79.075 32.4032C79.026 32.9065 79.1031 33.3832 79.3346 33.831C79.3657 33.9022 79.4265 34.028 79.4644 34.0906C79.2193 34.1863 78.9395 34.2387 78.6856 34.3501C78.5831 34.3947 78.5246 34.5028 78.5558 34.6097C78.5869 34.7167 78.6973 34.8334 78.8154 34.8044C80.4168 34.5617 81.783 34.4987 83.2285 34.6746C83.2849 34.9436 83.5424 34.5472 84.0073 34.415C84.1123 34.3852 84.7374 33.4578 84.5914 32.4681C84.4454 31.4783 83.8613 31.0078 83.4232 30.4562C82.9851 29.9045 83.0105 30.3106 82.8391 30.2615C82.5696 30.139 82.2872 30.0287 81.9954 30.0019ZM80.5027 32.3383C81.0462 32.3917 81.4648 32.8981 81.4113 33.4416C81.4002 33.5574 81.3283 33.6658 81.2815 33.7661C80.7826 33.8507 80.3011 33.9684 79.7888 34.1554C79.5728 33.9327 79.4354 33.5609 79.4644 33.2469C79.5178 32.7034 79.9571 32.2848 80.5027 32.3383Z" fill="url(#RadialGradient_3)" fill-rule="nonzero" opacity="1" stroke="none" layerName="Curve 2"/>
</g>
<g opacity="1" layerName="Group 4">
<path d="M63.8236 26.692C59.418 27.7945 57.9904 29.5868 58.6965 33.1171C58.7166 33.2195 58.7888 33.3118 58.8912 33.3118C58.9959 33.3118 59.0636 33.2195 59.0859 33.1171C59.5403 31.1103 60.3341 28.8143 63.9534 27.0814C64.0581 27.0324 64.121 26.9287 64.0832 26.8218C64.0453 26.7149 63.9416 26.6653 63.8236 26.692Z" fill="#000000" fill-rule="nonzero" opacity="1" stroke="none" layerName="Curve 1"/>
<path d="M76.4141 23.3172C75.6515 23.3335 75.4314 23.5712 74.9214 23.7715C74.8145 23.8139 74.7602 23.922 74.7916 24.0311C74.825 24.1425 74.9441 24.1898 75.0512 24.1609C75.8797 24.0073 76.9064 24.1864 77.8419 24.3556C77.8849 24.3834 77.9296 24.3962 77.9717 24.4205C78.0537 24.2696 78.0865 24.0642 78.2313 23.9013C78.1452 23.838 78.0682 23.73 77.9717 23.7066C77.5036 23.5936 77.1766 23.301 76.4141 23.3172Z" fill="#000000" fill-rule="nonzero" opacity="1" stroke="none" layerName="Curve 2"/>
</g>
</g>
</g>
<g opacity="1" layerName="Group 12">
<g filter="url(#Filter_8)" layerName="Group 11" shadowAngle="2.31425" shadowColor="#000000" shadowOffset="0.519244" shadowOpacity="0.46" shadowRadius="1">
<g opacity="1" layerName="Group 8">
<path d="M79.2924 33.6613C79.1591 33.0738 79.5455 32.4854 80.1554 32.3471C80.7652 32.2087 81.3677 32.5728 81.5009 33.1603C81.6342 33.7477 81.2478 34.3361 80.638 34.4745C80.0281 34.6128 79.4257 34.2487 79.2924 33.6613Z" fill="#fffffe" fill-rule="nonzero" opacity="1" stroke="none" layerName="Oval 1"/>
<path d="M64.2894 38.9237C63.6972 38.1533 63.8655 37.0303 64.6653 36.4155C65.4652 35.8007 66.5937 35.9269 67.1859 36.6973C67.7781 37.4678 67.6098 38.5907 66.81 39.2055C66.0101 39.8204 64.8816 39.6942 64.2894 38.9237Z" fill="#fffffe" fill-rule="nonzero" opacity="1" stroke="none" layerName="Oval 3"/>
</g>
</g>
<g opacity="1" layerName="Group 10">
<g opacity="1" layerName="Group 3">
<path d="M69.8592 32.4681C69.1977 32.7732 68.4862 32.8536 67.7824 32.9873C66.8915 33.1565 65.9504 33.3791 65.1865 33.8959C64.5094 34.3524 63.6922 35.3394 62.915 36.2971C62.327 37.021 61.7333 37.7293 61.2276 38.1792C61.1474 38.2505 61.1071 38.4124 61.1627 38.5037C61.2184 38.595 61.3243 38.6042 61.4223 38.5686C62.0794 38.3147 62.8204 37.8876 63.6289 37.2706C63.6757 37.6136 63.7371 37.9927 63.8885 38.309C64.1691 38.897 64.6363 39.3311 65.1865 39.6719C64.8011 40.2154 64.4984 40.8184 64.2779 41.4242C64.2422 41.5244 64.2492 41.6304 64.3428 41.6838C64.3784 41.7038 64.4348 41.7487 64.4726 41.7487C64.5372 41.7487 64.6227 41.6701 64.6673 41.6189C66.801 39.0954 69.9526 37.1143 73.1042 36.2322C73.2111 36.2033 73.2474 36.0795 73.234 35.9726C73.2206 35.8635 73.1484 35.7802 73.0393 35.7779C73.0081 35.7757 72.9429 35.7779 72.9095 35.7779C72.0988 35.7779 71.2201 35.8912 70.3135 36.1673C70.2601 35.8845 70.1787 35.6514 70.0539 35.3885C69.7377 34.727 69.2049 34.1695 68.5612 33.831C69.0869 33.5369 69.6711 33.198 70.1188 32.7926C70.199 32.7191 70.1789 32.6243 70.1188 32.533C70.0587 32.4416 69.9572 32.4169 69.8592 32.4681ZM65.3163 37.1408C65.9755 36.8268 66.8194 37.1328 67.1335 37.7898C67.1624 37.8522 67.1783 37.9221 67.1984 37.9845C66.568 38.45 65.9943 38.97 65.511 39.607C65.1858 39.4756 64.8926 39.2943 64.7322 38.958C64.4181 38.301 64.657 37.4527 65.3163 37.1408Z" fill="url(#RadialGradient_4)" fill-rule="nonzero" opacity="1" stroke="none" layerName="Curve 3"/>
<path d="M81.9954 30.0019C81.423 29.9484 80.8384 30.1017 80.3729 30.3913L80.308 30.3913C79.6688 30.7009 78.5681 31.1168 77.8419 31.235C77.7416 31.2506 77.6562 31.3273 77.6472 31.4297C77.6383 31.5299 77.7459 31.6559 77.8419 31.6893C78.1425 31.7917 78.7281 31.8256 79.2048 31.7542C79.1313 31.9569 79.0972 32.1848 79.075 32.4032C79.026 32.9065 79.1031 33.3832 79.3346 33.831C79.3657 33.9022 79.4265 34.028 79.4644 34.0906C79.2193 34.1863 78.9395 34.2387 78.6856 34.3501C78.5831 34.3947 78.5246 34.5028 78.5558 34.6097C78.5869 34.7167 78.6973 34.8334 78.8154 34.8044C80.4168 34.5617 81.783 34.4987 83.2285 34.6746C83.2849 34.9436 83.5424 34.5472 84.0073 34.415C84.1123 34.3852 84.7374 33.4578 84.5914 32.4681C84.4454 31.4783 83.8613 31.0078 83.4232 30.4562C82.9851 29.9045 83.0105 30.3106 82.8391 30.2615C82.5696 30.139 82.2872 30.0287 81.9954 30.0019ZM80.5027 32.3383C81.0462 32.3917 81.4648 32.8981 81.4113 33.4416C81.4002 33.5574 81.3283 33.6658 81.2815 33.7661C80.7826 33.8507 80.3011 33.9684 79.7888 34.1554C79.5728 33.9327 79.4354 33.5609 79.4644 33.2469C79.5178 32.7034 79.9571 32.2848 80.5027 32.3383Z" fill="url(#RadialGradient_5)" fill-rule="nonzero" opacity="1" stroke="none" layerName="Curve 2"/>
</g>
<g opacity="1" layerName="Group 4">
<path d="M63.8236 26.692C59.418 27.7945 57.9904 29.5868 58.6965 33.1171C58.7166 33.2195 58.7888 33.3118 58.8912 33.3118C58.9959 33.3118 59.0636 33.2195 59.0859 33.1171C59.5403 31.1103 60.3341 28.8143 63.9534 27.0814C64.0581 27.0324 64.121 26.9287 64.0832 26.8218C64.0453 26.7149 63.9416 26.6653 63.8236 26.692Z" fill="#000000" fill-rule="nonzero" filter="url(#Filter_9)" stroke="none" layerName="Curve 1" shadowAngle="2.31425" shadowColor="#000000" shadowOffset="0.519244" shadowOpacity="0.5" shadowRadius="1"/>
<path d="M76.4141 23.3172C75.6515 23.3335 75.4314 23.5712 74.9214 23.7715C74.8145 23.8139 74.7602 23.922 74.7916 24.0311C74.825 24.1425 74.9441 24.1898 75.0512 24.1609C75.8797 24.0073 76.9064 24.1864 77.8419 24.3556C77.8849 24.3834 77.9296 24.3962 77.9717 24.4205C78.0537 24.2696 78.0865 24.0642 78.2313 23.9013C78.1452 23.838 78.0682 23.73 77.9717 23.7066C77.5036 23.5936 77.1766 23.301 76.4141 23.3172Z" fill="#000000" fill-rule="nonzero" filter="url(#Filter_10)" stroke="none" layerName="Curve 2" shadowAngle="2.31425" shadowColor="#000000" shadowOffset="0.519244" shadowOpacity="0.5" shadowRadius="1"/>
</g>
</g>
</g>
<path d="M68.8857 54.9228C68.8122 54.9734 68.8008 55.0933 68.8208 55.1791C69.1616 56.6877 69.2765 56.963 69.2765 56.963C70.1728 57.9658 71.7658 55.4993 75.5143 58.908C76.4218 59.8365 75.0551 59.6613 75.6389 59.8889C76.2228 60.1164 77.2508 59.937 77.8497 59.8182C79.0448 59.5812 80.6107 58.7165 80.6107 58.7165C80.6107 58.7165 76.8616 57.8554 76.4918 57.7654C75.5 57.5239 74.0861 57.1741 72.1307 56.5247C71.1284 56.1905 70.3922 55.7179 69.5347 55.1791L69.1453 54.9228C69.0696 54.8766 68.957 54.87 68.8857 54.9228ZM96.1386 27.4473C95.6374 26.4896 94.0961 25.514 92.7709 25.3158C91.9446 25.1866 91.2541 25.3737 90.7886 25.8436C90.3231 26.3136 89.9266 26.8949 89.5391 27.4584C89.0847 28.1199 88.6148 28.8037 88.0512 29.2848C87.3652 29.8706 86.5389 30.2002 85.7393 30.5187L85.5589 30.5923C84.9397 28.9997 84.0666 27.5943 82.6701 25.9327C81.6611 24.7367 80.7257 24.1509 79.4294 23.3402C77.672 22.2421 76.2087 20.9614 74.6607 19.6072C73.9992 19.0281 73.3154 18.429 72.6072 17.8454C67.0456 13.2661 61.4217 11.3439 50.5992 15.8876C46.3874 17.6583 44.3784 20.0237 41.8281 23.4226C40.2979 23.5139 39.1977 23.8458 37.5561 25.2913C36.4291 26.2847 35.3222 27.3471 34.1751 28.5387C26.0722 29.8305 20.9561 31.3763 15.5237 36.185C13.4389 38.0292 11.7885 40.163 10.4744 42.7088L10.3809 42.8134C9.30062 44.005 8.18474 45.2345 6.74813 45.7891C6.35613 45.9406 6.04653 46.0542 5.95967 46.0163C5.88839 45.9851 5.80376 45.7758 5.68571 45.4662C6.78822 44.5329 6.88622 43.0028 6.97754 41.5216L6.99313 41.2855C7.34505 41.408 7.58337 41.7777 7.8551 42.1965C7.98205 42.3925 8.11347 42.5952 8.26269 42.7823C8.31615 42.8491 8.40524 42.8803 8.48542 42.8602C8.56783 42.8402 8.63465 42.7756 8.65247 42.6932C8.95093 41.3635 9.20707 39.0449 7.70141 38.096C7.77714 37.9045 7.85287 37.7107 7.9286 37.5147C8.09119 37.0982 8.26047 36.6728 8.41861 36.2251C8.44533 36.1494 8.42974 36.0692 8.37851 36.009C8.32729 35.9489 8.24933 35.92 8.17137 35.9333C6.60558 36.205 2.1198 38.9157 1.17765 41.9893C0.750013 43.3859 1.09524 44.6465 2.20444 45.7379C2.48285 46.8671 2.69222 47.5776 3.03968 48.2993C4.00187 50.2927 6.06435 50.6402 7.81278 50.1034C7.36732 52.353 7.30273 54.7718 7.58782 58.0905C7.65687 58.899 7.77492 59.7431 7.93751 60.5962L6.71695 63.9149L3.62768 66.9618C3.49627 67.0932 3.376 67.2068 3.26909 67.3093C2.38262 68.1623 2.20444 68.394 2.44944 69.864C2.79913 71.9398 3.81255 73.8665 5.3828 75.4389C6.92186 76.9802 10.4432 79.5282 13.2385 78.6886C13.0002 79.477 12.7151 80.2365 12.3877 80.9515C11.8887 82.0451 11.8241 82.9939 12.1939 83.7757C12.9467 85.3571 15.2921 85.9651 17.3612 86.5042C17.6062 86.5687 17.8468 86.6311 18.0784 86.6935L18.3613 86.7692C20.5418 87.3617 24.6022 88.4664 26.6914 87.2681C27.2972 86.9207 27.6981 86.4017 27.8785 85.7268C28.275 84.2568 28.3485 83.4505 28.2082 82.0251C28.8652 80.5706 29.1325 80.1786 29.6114 79.477L29.8385 79.1452C30.7651 77.7731 30.6983 77.2208 30.5001 75.5614C30.4733 75.3342 30.4421 75.0892 30.4065 74.8353C32.8499 75.1783 35.2977 75.2318 37.8501 74.9912C37.3312 75.2719 36.7788 75.5547 36.144 75.8799L35.8612 76.0247C35.2019 76.3633 34.7787 76.8711 34.6005 77.5348C34.1172 79.3478 35.5315 81.8513 36.8144 83.8292C38.6631 86.6667 40.4694 89.0232 43.1288 89.0232C44.0242 89.0232 45.0176 88.756 46.1402 88.1501C47.2427 87.5532 47.6079 86.9162 48.069 86.1099C48.2249 85.8382 48.4009 85.5308 48.6214 85.199C49.0379 84.9428 50.254 83.9405 51.5414 82.8803C52.0492 82.4616 52.5525 82.0451 52.9869 81.6932C53.6417 82.3057 54.7509 82.4304 56.3189 82.544C56.8824 82.5841 58.5128 82.5886 59.8158 82.5886C60.1677 82.5886 60.4973 82.5886 60.7691 82.5886C61.1254 82.5886 61.3303 82.5886 61.5419 82.5908C63.9741 82.5908 65.6958 82.2879 65.9097 79.2966C66.0099 77.9179 65.9386 77.5794 65.286 76.4145L65.168 72.02C65.1234 70.325 64.796 69.2715 64.13 67.6835C63.9029 67.1467 63.7158 66.6411 63.5309 66.1444C63.2302 65.3359 62.9474 64.5697 62.5264 63.7322C62.5932 63.3491 62.6489 62.9571 62.6934 62.5651L65.0254 64.8058C66.638 66.356 68.0412 67.7057 70.5157 67.7057C70.6249 67.7057 70.7362 67.7035 70.8498 67.6991C73.723 67.5632 76.8101 65.2847 77.5896 62.7255L78.3179 60.3312C82.9307 61.1642 87.3831 60.6764 90.5592 58.9859C95.2343 56.4935 98.1877 51.3997 98.8759 44.6376C99.3682 39.7977 98.3837 31.7371 96.1386 27.4473ZM7.22032 39.546C7.22477 39.5326 7.227 39.517 7.23145 39.5037C7.38959 39.6774 7.48091 39.909 7.53882 40.1919C7.41187 40.1117 7.27377 40.0538 7.11786 40.0338C7.14459 39.8556 7.18023 39.6952 7.22032 39.546ZM87.0423 31.8596C87.686 31.6324 88.3519 31.3985 88.9065 30.9598C89.5948 30.4185 90.1583 29.6946 90.7062 28.9953C91.1093 28.4785 91.5258 27.944 91.9802 27.5052C92.2386 27.2558 92.5393 27.1756 92.9001 27.2468C93.0471 27.278 93.1941 27.3315 93.3411 27.405C92.2141 29.6189 90.5258 31.3273 88.4477 32.3518C87.4566 32.8418 86.7772 32.7683 85.7504 32.6547C85.6658 32.6458 85.5789 32.6369 85.4899 32.6258C85.8418 32.2828 86.3964 32.0868 87.0423 31.8596ZM4.32706 47.7246C3.96178 46.9651 3.75019 46.2034 3.47623 45.2167C3.46732 45.1811 3.4495 45.1499 3.42277 45.1232C2.81472 44.4928 2.56081 43.769 2.66549 42.9716C2.89713 41.2053 4.73911 39.4948 6.0688 38.5526C5.91957 38.9001 5.80376 39.2052 5.71466 39.5148C5.48971 40.2877 5.4563 41.016 5.42511 41.7221C5.3672 43.0028 5.31375 44.1075 4.10433 45.0742C4.02414 45.1387 3.99742 45.2523 4.04419 45.3459C4.16446 45.5887 4.26915 45.8136 4.36492 46.0185C5.05761 47.5064 5.39393 47.9875 7.36064 47.199C7.90633 46.9807 8.41861 46.6956 8.91084 46.3348C8.72597 46.8426 8.55002 47.3683 8.37851 47.9073C8.3451 48.0075 8.31615 48.1077 8.28497 48.2102C7.07777 48.7024 5.05538 49.2437 4.32706 47.7246ZM13.3588 76.1116C13.0714 76.4969 12.6861 76.6996 12.1827 76.733C12.1337 76.7352 12.0847 76.7374 12.0335 76.7374C10.3029 76.7374 7.83951 74.8242 6.95304 73.9221C5.71021 72.6548 4.88834 71.1469 4.69679 69.7883C4.57874 68.9419 4.62329 68.8973 5.18011 68.3428L8.3206 65.1711C8.34288 65.1488 8.35847 65.1221 8.3696 65.0931L8.78611 63.9817C10.1693 68.4296 12.3253 72.2138 13.9423 74.6638C13.8176 75.1761 13.6684 75.704 13.3588 76.1116ZM63.2703 72.049L63.4039 76.7575C63.4039 76.7931 63.4151 76.8288 63.4329 76.8622C63.9207 77.7175 63.9808 77.8622 63.8984 78.8021C63.7291 80.7043 63.1701 80.8023 61.4528 80.7533C61.2635 80.751 60.9472 80.7466 60.5597 80.7421C59.299 80.7288 57.1853 80.7065 56.5572 80.653C55.7064 80.5795 55.1206 80.506 54.7531 80.3657C56.6597 78.6908 59.544 73.5123 60.1343 71.6503C60.3971 70.824 60.6711 70.0422 60.9383 69.2782C61.2435 68.4029 61.5352 67.5632 61.7981 66.7101C61.9584 67.2536 62.1277 67.8127 62.3749 68.4007C62.9741 69.815 63.2302 70.6369 63.2703 72.049ZM96.9359 44.5507C96.4548 48.9987 94.3055 54.6627 89.715 57.2174C85.8603 59.3662 81.5849 59.1234 77.3013 58.0852C75.573 57.6663 76.4114 59.9013 76.7165 59.977L76.0261 62.2199C75.4225 64.1844 73.0147 65.8816 70.8476 65.8816C70.8231 65.8816 70.8008 65.8816 70.7763 65.8816C68.9076 65.8482 67.6648 64.739 66.3484 63.5652L66.0723 63.3202C65.0811 62.4404 64.1278 61.5963 63.179 60.761C63.1567 60.741 63.13 60.7254 63.101 60.7165C60.2701 59.8233 58.3034 58.8366 56.085 57.1973C55.9937 57.1283 55.8668 57.1417 55.791 57.2241C55.7153 57.3065 55.7131 57.4334 55.7844 57.5203C57.5306 59.5672 58.711 60.6652 60.9829 61.6386C60.7178 64.1064 60.0118 66.1377 59.2656 68.2848C58.9716 69.129 58.6687 70.0043 58.3769 70.9376C57.9003 72.4744 54.1629 78.5282 53.2096 79.0783C52.8332 79.2944 51.5569 80.3212 50.205 81.4059C48.8174 82.5195 47.3808 83.671 46.9464 83.9294C46.9219 83.9428 46.8997 83.9628 46.8818 83.9873C46.7126 84.2145 46.5455 84.4617 46.3785 84.7134C45.913 85.415 45.4319 86.1389 44.7548 86.4952C41.9461 87.9764 40.1376 85.1143 38.5428 82.5886C37.2399 80.5194 36.6986 79.0227 36.9347 78.1384C37.0149 77.8355 37.1909 77.615 37.4693 77.468C39.0239 76.6461 39.926 76.0537 41.425 75.0714L41.6098 74.9511C41.7346 75.1405 41.8793 75.3253 42.0174 75.5057C42.1711 75.704 42.3292 75.9067 42.4517 76.1071C42.5052 76.1962 42.6143 76.2341 42.7146 76.2007C42.8126 76.165 42.8727 76.067 42.8616 75.9646L42.6745 74.4701C42.572 73.646 42.5631 72.9466 42.6388 71.971L42.846 69.3317C42.8549 69.2181 42.7769 69.1156 42.6633 69.0956C42.552 69.0711 42.4428 69.1424 42.4117 69.2537C42.2869 69.688 42.0954 70.1357 41.9083 70.5701C41.7167 71.0155 41.5185 71.4766 41.3715 71.9866C41.2935 72.2583 41.2223 72.5011 41.1755 72.7238C37.4448 73.4678 33.821 73.5123 30.0969 72.8686C29.8608 71.51 29.5757 70.1001 29.3285 69.0622C29.304 68.9553 29.2015 68.8706 29.0946 68.8929C28.9855 68.9018 28.8986 68.9909 28.8919 69.1C28.8385 69.9442 28.8474 71.8418 28.8541 73.5145C28.8563 74.2095 28.8608 74.8665 28.8585 75.4033C28.8541 76.8421 28.7873 77.2609 28.0923 78.4035C27.8897 78.7398 27.7204 78.9982 27.5578 79.2432C27.1814 79.82 26.825 80.3657 26.1457 81.7155C26.1279 81.7511 26.119 81.7912 26.1234 81.8291C26.2058 83.0875 26.1925 83.8314 25.8895 84.9027C25.7114 85.5308 24.5576 86.3549 18.8245 84.7891L18.3524 84.6644C17.0405 84.3236 15.0582 83.8047 14.5259 82.7623C14.3454 82.4081 14.3432 82.0184 14.5192 81.5685C15.3143 79.5327 15.8266 77.4034 16.2297 74.4456C16.2364 74.3899 16.2231 74.3342 16.1919 74.2896C12.4923 68.9708 9.98217 62.8369 9.47435 57.8789C9.04893 53.7161 9.26052 51.03 10.2272 48.3015C11.8687 43.671 14.0492 40.2721 17.0917 37.606C21.2323 33.98 25.11 32.2716 31.7228 31.2025C30.5981 32.4721 29.4799 33.7929 28.3017 35.1805L27.2527 36.4144C25.4664 38.5148 24.3928 40.6886 23.3526 42.7912C21.7757 45.9851 21.8737 47.2614 23.9028 49.9809C24.1322 50.2883 24.346 50.5711 24.5487 50.8406C25.8472 52.5579 26.6379 53.6025 27.2794 55.4957C26.658 56.8031 26.4352 57.9212 26.2325 59.6273C26.2259 59.6919 26.2459 59.7543 26.2882 59.8033C28.4643 62.1776 30.0479 63.7701 32.1817 64.2757C34.38 64.7969 36.0817 64.6321 37.8702 63.7189C38.6921 63.3001 39.5117 62.8502 40.3069 62.4137C43.4986 60.6608 46.5143 59.0059 50.0825 58.919C50.1693 58.9168 50.2495 58.8634 50.2829 58.781C52.4145 53.549 52.1828 49.1612 51.1761 44.1832C50.5146 40.9024 50.2272 37.7775 50.0001 34.0958C49.9934 33.9867 49.9087 33.8998 49.7996 33.8887C49.6838 33.8753 49.5902 33.951 49.5657 34.0579C48.6837 37.7597 48.5657 40.9626 49.1826 44.4438C49.9177 48.5821 50.5279 53.304 48.4989 57.0192C45.267 57.2998 42.3582 58.9168 39.5451 60.4826C38.7767 60.9103 37.9816 61.3513 37.1931 61.7611C35.8188 62.4738 34.3355 62.5941 32.665 62.1375C31.2529 61.7499 30.2662 60.8345 28.6158 58.9391C28.6046 57.1127 29.0323 56.2686 29.8742 54.6114C31.3286 51.7494 32.9724 49.0454 34.5337 46.5509C34.5961 46.4506 34.5693 46.3214 34.4758 46.2524C34.3822 46.1856 34.2486 46.2012 34.1751 46.2903C33.6339 46.9429 33.1015 47.5665 32.5804 48.1768C31.1838 49.8116 29.8586 51.3596 28.6893 53.0969C28.2059 51.8941 27.5778 51.079 26.6758 49.9029C26.4063 49.5533 26.1167 49.1746 25.7982 48.7425C24.3549 46.7892 24.2748 46.0163 25.2993 43.8692L25.4151 43.6264C26.4642 41.4303 27.3707 39.5349 29.1436 37.6238C30.3954 36.2741 31.6293 34.8397 32.8231 33.4499C34.7141 31.2515 36.6697 28.9775 38.8123 26.8972C40.4784 25.2779 41.22 25.1732 43.1957 24.8881L43.9062 24.7835C46.1268 24.4471 48.3741 24.015 50.7796 23.456C50.8932 23.4293 50.9667 23.3201 50.9489 23.2043C50.9311 23.0907 50.8264 22.9972 50.7106 23.0194C48.6926 23.2065 46.7482 23.2889 44.4919 23.3513C46.3874 20.9391 47.677 19.4313 51.0447 17.9724C59.3079 14.3886 64.7782 13.638 71.743 19.4825C72.2441 19.9012 72.7252 20.3177 73.1996 20.7275C74.2665 21.6474 75.2799 22.5227 76.3847 23.3446C75.9036 23.4226 75.4559 23.5495 74.9458 23.75C74.8389 23.7923 74.7832 23.9081 74.8144 24.0173C74.8478 24.1286 74.9614 24.2021 75.0683 24.1732C75.8969 24.0195 76.8747 24.1643 77.8101 24.3335C78.0618 24.4961 78.3202 24.6565 78.5875 24.8102L78.6476 24.8458C79.8659 25.563 80.5363 25.9572 81.3471 27.0843C82.1378 28.1845 82.8126 29.2893 83.3984 30.4475C83.1779 30.3717 83.2314 33.3457 83.2514 34.6949C83.2715 36.0441 83.4051 35.4522 83.4786 35.8442L83.1757 35.8687C82.3471 35.2562 81.4072 35.4077 80.3537 35.6438C77.8547 36.2117 77.4783 37.3811 76.9548 38.9959C76.7277 39.6975 76.4715 40.4904 75.9904 41.3746C75.937 41.4748 75.9659 41.6018 76.0617 41.6642C76.1552 41.7243 76.2844 41.7109 76.3557 41.6218C76.9259 40.9247 77.2956 40.2097 77.6208 39.5772C78.26 38.3343 78.7634 37.3521 80.4406 36.9556C80.6121 36.9156 80.768 36.8732 80.915 36.8309C80.9172 36.8309 80.9217 36.8309 80.9261 36.8287C80.4784 37.2096 80.1421 37.6706 79.9728 38.1495C79.6076 39.1763 79.5296 40.1229 79.4516 41.0383C79.3715 42.0094 79.2935 42.927 78.8904 43.8959C78.8458 44.005 78.8904 44.1276 78.9973 44.181C79.102 44.23 79.2311 44.1944 79.2868 44.0919C79.8392 43.1364 80.1154 42.1809 80.3827 41.2566C80.6098 40.4703 80.8459 39.6596 81.2491 38.8355C81.5609 38.2029 82.6946 37.2541 83.3026 37.243L83.7102 37.2341C83.8907 38.468 83.9508 39.4524 83.8951 40.2387C83.7659 42.0205 83.3049 44.5775 83.0554 45.484C83.0287 45.5864 83.0755 45.6933 83.1712 45.7401C83.267 45.7891 83.3828 45.7602 83.4452 45.6778C84.2403 44.6554 84.6524 42.7578 85.0154 41.0851C85.08 40.7866 85.1424 40.4993 85.2048 40.2275C85.5856 38.566 85.5678 36.4322 85.1535 34.2205C85.06 33.7172 85.0867 33.3407 85.2092 33.0467C85.4364 33.1136 85.6502 33.1826 85.8551 33.2494C86.8552 33.5746 87.7172 33.853 88.8954 33.4321C91.3521 32.5567 92.9469 30.668 93.7665 27.6611C94.2275 28.0086 94.6218 28.5008 94.7955 28.9195C96.4927 33.0556 97.4393 39.918 96.9359 44.5507Z" fill="#000000" fill-rule="nonzero" filter="url(#Filter_11)" stroke="none" layerName="Curve 3" shadowAngle="1.57796" shadowColor="#000000" shadowOffset="0.519244" shadowOpacity="0.5" shadowRadius="1"/>
</g>
</g>
</svg>
