<svg xmlns="http://www.w3.org/2000/svg" xmlns:xlink="http://www.w3.org/1999/xlink" viewBox="0,0,256,256" width="100%" height="100%" fill-rule="nonzero">
<defs>
<linearGradient x1="27.505" y1="54.084" x2="16.348" y2="18.802" gradientUnits="userSpaceOnUse" id="grays"><stop offset="0" stop-color="#919191"></stop><stop offset="0.689" stop-color="#aeaeae"></stop><stop offset="1" stop-color="#d8d8d8"></stop></linearGradient>
<linearGradient x1="36.126" y1="41.699" x2="16.475" y2="18.101" gradientUnits="userSpaceOnUse" id="C2"><stop offset="0" stop-color="#ffa4a4" stop-opacity="0.7098"></stop><stop offset="1" stop-color="#ff4949" stop-opacity="0.2"></stop></linearGradient>
<linearGradient x1="6" y1="29.5" x2="47" y2="29.5" gradientUnits="userSpaceOnUse" id="C3"><stop offset="0" stop-color="#fffff0" stop-opacity="0.2"></stop><stop offset="1" stop-color="#ffa4a4" stop-opacity="0.7098"></stop></linearGradient>
</defs>
<g stroke-width="1" stroke-linecap="butt" stroke-linejoin="miter" stroke-miterlimit="10" stroke-dasharray="" stroke-dashoffset="0" style="mix-blend-mode: normal">
<g transform="scale(5.33333,5.33333)">
<g>
<path fill="#ff016b" fill-opacity=".68" opacity="0.1" d="M33,18v23h5c0,-1 0,-1.748 0,-2.511v-20.489z"></path>
<path fill="#ff016b" fill-opacity=".68" opacity="0.18" d="M32.25,18v23h5.563c-0.452,-0.799 -0.563,-1.748 -0.563,-2.511v-20.489z"></path>
<path fill="#ff016b" fill-opacity=".68" opacity="0.26" d="M31.5,18v23h6.126c-0.905,-0.598 -1.126,-1.748 -1.126,-2.511v-20.489z"></path>
<path fill="#ff016b" fill-opacity=".68" opacity="0.34" d="M30.75,18v23h6.69c-1.357,-0.397 -1.69,-1.748 -1.69,-2.511v-20.489z"></path>
<path fill="#ff016b" fill-opacity=".68" opacity="0.42" d="M30,18v23h7.253c-1.81,-0.196 -2.253,-1.748 -2.253,-2.511v-20.489z"></path>
</g>
<g>
<path fill="url(#grays)" d="M33,11h-14l-4,-4h-11c-1.1,0 -2,0.9 -2,2v29.068c0,1.619 1.313,2.932 2.932,2.932h32.524c-1.336,0.016 -2.456,-1.125 -2.456,-2.511v-25.489c0,-1.1 -0.9,-2 -2,-2z"></path>
</g>
<g>
<path fill="#ff1b66" fill-opacity=".82" d="M35,38.489v-20.489h-17c-1.1,0 -2.62,0.902 -3,2c0,0 -3.693,13.516 -5,18c-0.547,1.877 -2.383,3 -4,3h31.457c-1.337,0.016 -2.457,-1.125 -2.457,-2.511z"></path>
</g>
<g opacity=".9">
	<path fill="#ff1b66" fill-opacity=".82" opacity="0.05" d="M35,16h-17c-1.794,0 -4.174,1.279 -4.89,3.345l-0.04,0.128c-0.036,0.134 -3.703,13.55 -4.99,17.967c-0.281,0.963 -1.298,3.56 -2.08,3.56h29z"></path>
	<path fill="#ff1b66" fill-opacity=".82" opacity="0.1" d="M13.488,19.476c0,0 -0.033,0.109 -0.037,0.121c-0.094,0.342 -3.395,12.417 -4.8,17.308c-0.085,0.294 -0.168,0.566 -0.255,0.811c-0.371,1.049 -1.497,3.284 -2.396,3.284h29v-24.6h-17c-1.655,0 -3.863,1.204 -4.512,3.076z"></path>
	<path fill="#ff1b66" fill-opacity=".82" opacity="0.15" d="M13.866,19.607c0,0 -0.027,0.09 -0.034,0.114c-0.152,0.556 -3.479,12.723 -4.844,17.458c-0.085,0.293 -0.175,0.565 -0.277,0.812c-0.465,1.134 -1.695,3.009 -2.711,3.009h29v-24.2h-17c-1.516,0 -3.552,1.128 -4.134,2.807z"></path>
	<path fill="#ff1b66" fill-opacity=".82" opacity="0.2" d="M14.244,19.738c0,0 -0.021,0.07 -0.031,0.107c-0.211,0.77 -3.563,13.029 -4.888,17.607c-0.085,0.292 -0.183,0.565 -0.298,0.813c-0.563,1.219 -1.894,2.735 -3.027,2.735h29v-23.8h-17c-1.378,0 -3.241,1.053 -3.756,2.538z"></path>
	<path fill="#ff1b66" fill-opacity=".82" opacity="0.25" d="M14.622,19.869c0,0 -0.015,0.051 -0.028,0.1c-0.269,0.985 -3.647,13.335 -4.931,17.757c-0.085,0.291 -0.191,0.564 -0.319,0.814c-0.666,1.302 -2.094,2.46 -3.344,2.46h29v-23.4h-17c-1.239,0 -2.93,0.978 -3.378,2.269z"></path>
</g>
<g>
	<path fill="#ff1b66" fill-opacity=".82" opacity=".75" d="M35,18h-17c-1.1,0 -2.62,0.902 -3,2c0,0 -3.693,13.516 -5,18c-0.547,1.877 -2.383,3 -4,3h29z"></path>
<g>
</g>
	<path id="widePinkFront" fill="url(#C2)" opacity=".7" d="M18,18h27c1.1,0 2,0.9 2,2l-5,18.583c-0.554,1.352 -2.082,2.417 -3.417,2.417h-32.583c1.617,0 3.453,-1.123 4,-3c1.307,-4.484 5,-18 5,-18c0.38,-1.098 1.9,-2 3,-2z"></path>
	<path fill="url(#C3)" opacity="0.15" d="M45,18.5c0.807,0 1.466,0.64 1.499,1.438l-4.973,18.483c-0.486,1.149 -1.8,2.079 -2.943,2.079h-29.729c0.731,-0.559 1.331,-1.349 1.626,-2.36c1.293,-4.437 4.965,-17.873 4.992,-17.976c0.311,-0.896 1.65,-1.664 2.528,-1.664h27M45,18h-27c-1.1,0 -2.62,0.902 -3,2c0,0 -3.693,13.516 -5,18c-0.547,1.877 -2.383,3 -4,3h32.583c1.335,0 2.863,-1.065 3.417,-2.417l5,-18.583c0,-1.1 -0.9,-2 -2,-2z"></path>
</g>
</g>
</g>
</svg>