<svg height="100%" stroke-miterlimit="10" style="fill-rule:nonzero;clip-rule:evenodd;stroke-linecap:round;stroke-linejoin:round;" version="1.1" viewBox="0 0 100 100" width="100%" xml:space="preserve" xmlns="http://www.w3.org/2000/svg" xmlns:vectornator="http://vectornator.io" xmlns:xlink="http://www.w3.org/1999/xlink">
<defs>
<linearGradient gradientTransform="matrix(0.825391 -3.24323e-18 1.31395e-18 0.825391 6.55417 17.6593)" gradientUnits="userSpaceOnUse" id="LinearGradient" x1="7.55743" x2="83.1181" y1="52.2407" y2="52.2407">
<stop offset="0.167105" stop-color="#ffffff"/>
<stop offset="0.500452" stop-color="#ffffff"/>
<stop offset="0.860017" stop-color="#bebebe"/>
<stop offset="1" stop-color="#a9a9a9"/>
</linearGradient>
<filter color-interpolation-filters="sRGB" filterUnits="userSpaceOnUse" height="79.2826" id="Filter" width="67.4394" x="10.2559" y="21.6855">
<feDropShadow dx="-2.01496e-06" dy="0.548555" flood-color="#000000" flood-opacity="0.55" in="SourceGraphic" result="Shadow" stdDeviation="1.01446"/>
</filter>
<linearGradient gradientTransform="matrix(0.825391 -3.24323e-18 1.31395e-18 0.825391 6.55417 17.6593)" gradientUnits="userSpaceOnUse" id="LinearGradient_2" x1="26.136" x2="66.1157" y1="28.4429" y2="28.4429">
<stop offset="0.167105" stop-color="#ffffff"/>
<stop offset="0.500452" stop-color="#ffffff"/>
<stop offset="0.860017" stop-color="#bebebe"/>
<stop offset="1" stop-color="#a9a9a9"/>
</linearGradient>
<filter color-interpolation-filters="sRGB" filterUnits="userSpaceOnUse" height="28.3817" id="Filter_2" width="38.0712" x="25.5904" y="27.4935">
<feDropShadow dx="-2.01496e-06" dy="0.548555" flood-color="#000000" flood-opacity="0.55" in="SourceGraphic" result="Shadow" stdDeviation="1.01446"/>
</filter>
<linearGradient gradientTransform="matrix(0.825391 -3.24323e-18 1.31395e-18 0.825391 6.55417 17.6593)" gradientUnits="userSpaceOnUse" id="LinearGradient_3" x1="18.4773" x2="35.5357" y1="21.1447" y2="21.1447">
<stop offset="0.167105" stop-color="#ffffff"/>
<stop offset="0.500452" stop-color="#ffffff"/>
<stop offset="0.860017" stop-color="#bebebe"/>
<stop offset="1" stop-color="#a9a9a9"/>
</linearGradient>
<filter color-interpolation-filters="sRGB" filterUnits="userSpaceOnUse" height="16.3313" id="Filter_3" width="19.1521" x="19.269" y="27.4949">
<feDropShadow dx="-2.01496e-06" dy="0.548555" flood-color="#000000" flood-opacity="0.55" in="SourceGraphic" result="Shadow" stdDeviation="1.01446"/>
</filter>
<linearGradient gradientTransform="matrix(0.825391 -3.24323e-18 1.31395e-18 0.825391 6.55417 17.6593)" gradientUnits="userSpaceOnUse" id="LinearGradient_4" x1="7.48225" x2="70.0852" y1="67.5499" y2="67.5499">
<stop offset="0.167105" stop-color="#ffffff"/>
<stop offset="0.500452" stop-color="#ffffff"/>
<stop offset="0.860017" stop-color="#bebebe"/>
<stop offset="1" stop-color="#a9a9a9"/>
</linearGradient>
<filter color-interpolation-filters="sRGB" filterUnits="userSpaceOnUse" height="55.2332" id="Filter_4" width="56.7442" x="10.1938" y="46.3463">
<feDropShadow dx="-2.01496e-06" dy="0.548555" flood-color="#000000" flood-opacity="0.55" in="SourceGraphic" result="Shadow" stdDeviation="1.01446"/>
</filter>
<linearGradient gradientTransform="matrix(0.825391 -3.24323e-18 1.31395e-18 0.825391 6.55417 17.6593)" gradientUnits="userSpaceOnUse" id="LinearGradient_5" x1="60.6855" x2="86.4326" y1="88.5296" y2="88.5296">
<stop offset="0.167105" stop-color="#ffffff"/>
<stop offset="0.500452" stop-color="#ffffff"/>
<stop offset="0.860017" stop-color="#bebebe"/>
<stop offset="1" stop-color="#a9a9a9"/>
</linearGradient>
<filter color-interpolation-filters="sRGB" filterUnits="userSpaceOnUse" height="19.3776" id="Filter_5" width="26.3237" x="54.1073" y="81.5906">
<feDropShadow dx="-2.01496e-06" dy="0.548555" flood-color="#000000" flood-opacity="0.55" in="SourceGraphic" result="Shadow" stdDeviation="1.01446"/>
</filter>
<linearGradient gradientTransform="matrix(0.825391 -3.24323e-18 1.31395e-18 0.825391 6.55417 17.6593)" gradientUnits="userSpaceOnUse" id="LinearGradient_6" x1="22.7632" x2="61.9118" y1="63.9604" y2="63.9604">
<stop offset="0.167105" stop-color="#ffffff"/>
<stop offset="0.500452" stop-color="#ffffff"/>
<stop offset="0.860017" stop-color="#bebebe"/>
<stop offset="1" stop-color="#a9a9a9"/>
</linearGradient>
<filter color-interpolation-filters="sRGB" filterUnits="userSpaceOnUse" height="48.3202" id="Filter_6" width="37.3852" x="22.8065" y="46.8401">
<feDropShadow dx="-2.01496e-06" dy="0.548555" flood-color="#000000" flood-opacity="0.55" in="SourceGraphic" result="Shadow" stdDeviation="1.01446"/>
</filter>
<linearGradient gradientTransform="matrix(0.825391 -3.24323e-18 1.31395e-18 0.825391 6.55417 17.6593)" gradientUnits="userSpaceOnUse" id="LinearGradient_7" x1="18.4773" x2="37.6167" y1="12.8477" y2="12.8477">
<stop offset="0.167105" stop-color="#ffffff"/>
<stop offset="0.500452" stop-color="#ffffff"/>
<stop offset="0.860017" stop-color="#bebebe"/>
<stop offset="1" stop-color="#a9a9a9"/>
</linearGradient>
<filter color-interpolation-filters="sRGB" filterUnits="userSpaceOnUse" height="16.1304" id="Filter_7" width="20.8698" x="19.269" y="20.747">
<feDropShadow dx="-2.01496e-06" dy="0.548555" flood-color="#000000" flood-opacity="0.55" in="SourceGraphic" result="Shadow" stdDeviation="1.01446"/>
</filter>
<linearGradient gradientTransform="matrix(0.825391 -3.24323e-18 1.31395e-18 0.825391 6.55417 17.6593)" gradientUnits="userSpaceOnUse" id="LinearGradient_8" x1="33.9613" x2="108.184" y1="59.754" y2="44.396">
<stop offset="0.23553" stop-color="#b007a0"/>
<stop offset="0.909762" stop-color="#2f003b"/>
<stop offset="1" stop-color="#29002e"/>
</linearGradient>
<filter color-interpolation-filters="sRGB" filterUnits="userSpaceOnUse" height="79.2826" id="Filter_8" width="67.4393" x="18.0143" y="17.3753">
<feDropShadow dx="-2.01496e-06" dy="0.548555" flood-color="#000000" flood-opacity="0.55" in="SourceGraphic" result="Shadow" stdDeviation="1.01446"/>
</filter>
<filter color-interpolation-filters="sRGB" filterUnits="userSpaceOnUse" height="10.9798" id="Filter_9" width="11.6312" x="51.781" y="11.164">
<feDropShadow dx="-2.06722e-06" dy="0.562782" flood-color="#000000" flood-opacity="0.46" in="SourceGraphic" result="Shadow" stdDeviation="1.01446"/>
</filter>
<filter color-interpolation-filters="sRGB" filterUnits="userSpaceOnUse" height="11.6843" id="Filter_10" width="12.4489" x="68.8268" y="26.1548">
<feDropShadow dx="-2.06722e-06" dy="0.562782" flood-color="#000000" flood-opacity="0.46" in="SourceGraphic" result="Shadow" stdDeviation="1.01446"/>
</filter>
<linearGradient gradientTransform="matrix(0.338269 -0.0279196 0.0279197 0.338269 11.5796 5.46326)" gradientUnits="userSpaceOnUse" id="LinearGradient_9" x1="137.884" x2="174.183" y1="68.3717" y2="68.3717">
<stop offset="0" stop-color="#ffffff"/>
<stop offset="0" stop-color="#ffffff"/>
<stop offset="0.492741" stop-color="#acacac"/>
<stop offset="1" stop-color="#676767"/>
</linearGradient>
<filter color-interpolation-filters="sRGB" filterUnits="userSpaceOnUse" height="21.9537" id="Filter_11" width="21.954" x="55.2195" y="13.9052">
<feDropShadow dx="-2.06722e-06" dy="0.562782" flood-color="#000000" flood-opacity="0.46" in="SourceGraphic" result="Shadow" stdDeviation="1.01446"/>
</filter>
<linearGradient gradientTransform="matrix(0.338269 -0.0279196 0.0279197 0.338269 11.1754 5.13185)" gradientUnits="userSpaceOnUse" id="LinearGradient_10" x1="137.884" x2="174.183" y1="68.3717" y2="68.3717">
<stop offset="0" stop-color="#ffffff"/>
<stop offset="0" stop-color="#ffffff"/>
<stop offset="0.492741" stop-color="#acacac"/>
<stop offset="1" stop-color="#676767"/>
</linearGradient>
<filter color-interpolation-filters="sRGB" filterUnits="userSpaceOnUse" height="21.9535" id="Filter_12" width="21.9537" x="37.5875" y="-1.29544">
<feDropShadow dx="-2.06722e-06" dy="0.562782" flood-color="#000000" flood-opacity="0.46" in="SourceGraphic" result="Shadow" stdDeviation="1.01446"/>
</filter>
<linearGradient gradientTransform="matrix(0.338269 -0.0279196 0.0279197 0.338269 11.1432 5.16892)" gradientUnits="userSpaceOnUse" id="LinearGradient_11" x1="137.884" x2="174.183" y1="68.3717" y2="68.3717">
<stop offset="0" stop-color="#ffffff"/>
<stop offset="0" stop-color="#ffffff"/>
<stop offset="0.492741" stop-color="#acacac"/>
<stop offset="1" stop-color="#676767"/>
</linearGradient>
<filter color-interpolation-filters="sRGB" filterUnits="userSpaceOnUse" height="21.9535" id="Filter_13" width="21.9537" x="72.9254" y="29.0218">
<feDropShadow dx="-2.06722e-06" dy="0.562782" flood-color="#000000" flood-opacity="0.46" in="SourceGraphic" result="Shadow" stdDeviation="1.01446"/>
</filter>
</defs>
<g opacity="1">
<path d="M66.7631 79.2363C66.7631 75.0976 66.7631 67.5246 66.7631 57.4049C66.7631 34.3257 57.1765 23.6731 43.1508 23.6731C28.754 23.6731 21.8052 33.7927 21.8052 33.7927L28.1266 40.7414C28.1266 40.7414 34.4243 33.7927 43.1542 33.7927C53.4188 33.7927 53.2739 48.5741 53.2739 52.7905C53.2739 52.7905 48.1431 47.2853 38.0943 47.2853C23.593 47.2853 12.792 58.9231 12.792 74.3181C12.792 82.4914 21.0867 97.8834 36.4044 97.8834C53.4155 97.8834 56.6434 87.8884 56.6434 87.8884C59.4299 97.8834 70.1364 97.8834 70.1364 97.8834L75.1591 89.4132C75.1591 89.4132 66.7631 87.8884 66.7631 79.2363ZM38.091 91.1368C31.5705 91.1368 26.2848 82.8323 26.2848 72.5844C26.2848 62.3366 31.5735 53.8349 38.091 54.032C46.6638 54.2911 49.8972 62.3366 49.8972 72.5844C49.8972 82.8323 44.6114 91.1368 38.091 91.1368Z" fill="url(#LinearGradient)" fill-rule="nonzero" filter="url(#Filter)" stroke="none" shadowAngle="1.5708" shadowColor="#000000" shadowOffset="0.548555" shadowOpacity="0.55" shadowRadius="2.02892"/>
<path d="M28.1266 40.7414L35.885 36.4312C35.885 36.4312 42.1526 29.3688 50.9127 29.4824C62.8028 29.6368 61.0323 48.4802 61.0323 48.4802L53.2739 52.7905C53.2739 52.7905 54.3731 33.9181 43.1542 33.7927C38.0513 33.7357 28.1266 40.7414 28.1266 40.7414Z" fill="url(#LinearGradient_2)" fill-rule="nonzero" filter="url(#Filter_2)" stroke="none" shadowAngle="1.5708" shadowColor="#000000" shadowOffset="0.548555" shadowOpacity="0.55" shadowRadius="2.02892"/>
<path d="M29.5636 29.4824L21.8052 33.7927L28.1266 40.7414L35.885 36.4312L29.5636 29.4824Z" fill="url(#LinearGradient_3)" fill-rule="nonzero" filter="url(#Filter_3)" stroke="none" shadowAngle="1.5708" shadowColor="#000000" shadowOffset="0.548555" shadowOpacity="0.55" shadowRadius="2.02892"/>
<path d="M64.4019 83.5782L56.6434 87.8884C57.8592 89.4809 48.4668 100.5 33.5205 98.1735C20.1847 96.0974 13.5092 82.3724 12.8416 75.991C12.2315 70.1597 13.5993 54.4938 30.4145 48.3339C26.913 51.1184 20.4282 58.7653 20.5504 70.0078C20.623 76.6895 26.0951 88.6667 37.001 92.2783C47.907 95.8899 64.4019 83.5782 64.4019 83.5782Z" fill="url(#LinearGradient_4)" fill-rule="nonzero" filter="url(#Filter_4)" stroke="none" shadowAngle="1.5708" shadowColor="#000000" shadowOffset="0.548555" shadowOpacity="0.55" shadowRadius="2.02892"/>
<path d="M77.8949 93.5732L70.1364 97.8834C58.0667 97.1237 56.6434 87.8884 56.6434 87.8884L64.4019 83.5782C65.4321 84.3555 65.2363 92.272 77.8949 93.5732Z" fill="url(#LinearGradient_5)" fill-rule="nonzero" filter="url(#Filter_5)" stroke="none" shadowAngle="1.5708" shadowColor="#000000" shadowOffset="0.548555" shadowOpacity="0.55" shadowRadius="2.02892"/>
<path d="M45.7742 48.8398C36.6084 49.3094 23.9962 54.5326 25.4593 69.6006C27.3328 88.8949 45.3286 87.969 41.0818 87.8093C39.22 87.7393 42.0711 90.0001 38.5327 89.0605C33.8372 87.8136 27.6087 81.1558 27.7875 68.7193C27.9091 60.2685 36.2087 53.6913 38.091 54.032C49.8494 56.16 49.9006 72.4237 49.8972 72.5844C49.5995 86.3336 43.0743 87.8661 42.0505 88.263C39.2041 89.3663 45.0194 92.0756 45.0194 92.0756C45.0194 92.0756 57.6287 89.3145 57.6556 68.2742C57.6687 58.078 53.6298 48.4374 45.7742 48.8398Z" fill="url(#LinearGradient_6)" fill-rule="nonzero" filter="url(#Filter_6)" stroke="none" shadowAngle="1.5708" shadowColor="#000000" shadowOffset="0.548555" shadowOpacity="0.55" shadowRadius="2.02892"/>
<path d="M21.8052 33.7927L29.5636 29.4824C29.8752 29.1338 31.2006 26.5973 37.6027 22.7346C37.6027 22.7346 32.8856 25.2136 28.6975 27.6011C24.3406 30.0848 21.8052 33.7927 21.8052 33.7927Z" fill="url(#LinearGradient_7)" fill-rule="nonzero" filter="url(#Filter_7)" stroke="none" shadowAngle="1.5708" shadowColor="#000000" shadowOffset="0.548555" shadowOpacity="0.55" shadowRadius="2.02892"/>
<path d="M74.5215 74.9261C74.5215 70.7873 74.5215 63.2144 74.5215 53.0947C74.5215 30.0154 64.9349 19.3629 50.9093 19.3629C36.5124 19.3629 29.5636 29.4824 29.5636 29.4824L35.885 36.4312C35.885 36.4312 42.1827 29.4824 50.9127 29.4824C61.1772 29.4824 61.0323 44.2639 61.0323 48.4802C61.0323 48.4802 55.9015 42.9751 45.8527 42.9751C31.3514 42.9751 20.5504 54.6128 20.5504 70.0078C20.5504 78.1812 28.8451 93.5732 44.1628 93.5732C61.1739 93.5732 64.4019 83.5782 64.4019 83.5782C67.1883 93.5732 77.8949 93.5732 77.8949 93.5732L82.9174 85.1029C82.9174 85.1029 74.5215 83.5782 74.5215 74.9261ZM45.8494 86.8266C37.9565 87 34.0432 78.5221 34.0432 68.2742C34.0432 58.0263 38.1029 49.6666 45.8494 49.7218C52.9927 49.7727 57.6556 58.0263 57.6556 68.2742C57.6556 78.5221 54.3873 86.639 45.8494 86.8266Z" fill="url(#LinearGradient_8)" fill-rule="nonzero" filter="url(#Filter_8)" stroke="none" shadowAngle="1.5708" shadowColor="#000000" shadowOffset="0.548555" shadowOpacity="0.55" shadowRadius="2.02892"/>
<path d="M54.9685 13.7887C56.1585 14.8355 58.4813 16.8672 60.2247 18.3936" fill="none" filter="url(#Filter_9)" stroke="#00e298" stroke-linecap="round" stroke-linejoin="round" stroke-width="1.30267" shadowAngle="1.5708" shadowColor="#000000" shadowOffset="0.562782" shadowOpacity="0.46" shadowRadius="2.02892"/>
<path d="M72.0143 28.7795C73.8607 30.394 76.9839 33.1199 78.0882 34.0888" fill="none" filter="url(#Filter_10)" stroke="#00e298" stroke-linecap="round" stroke-linejoin="round" stroke-width="1.30267" shadowAngle="1.5708" shadowColor="#000000" shadowOffset="0.562782" shadowOpacity="0.46" shadowRadius="2.02892"/>
<path d="M65.7634 18.0955C62.3726 18.3754 59.8507 21.351 60.1305 24.7417C60.4104 28.1323 63.3861 30.6541 66.7768 30.3742C70.1674 30.0944 72.6893 27.1189 72.4094 23.7282C72.1296 20.3375 69.1539 17.8157 65.7634 18.0955Z" fill="url(#LinearGradient_9)" fill-rule="nonzero" opacity="0.527778" stroke="#00e298" stroke-linecap="butt" stroke-linejoin="miter" stroke-width="4.56032"/>
<path d="M65.6899 18.1799C62.2991 18.4598 59.7772 21.4354 60.057 24.8261C60.3369 28.2167 63.3126 30.7385 66.7033 30.4586C70.0939 30.1788 72.6158 27.2033 72.3359 23.8126C72.0561 20.4219 69.0804 17.9001 65.6899 18.1799Z" fill="none" filter="url(#Filter_11)" stroke="#00e298" stroke-linecap="butt" stroke-linejoin="miter" stroke-width="4.56032" shadowAngle="1.5708" shadowColor="#000000" shadowOffset="0.562782" shadowOpacity="0.46" shadowRadius="2.02892"/>
<path d="M47.9842 3.06349C44.5935 3.34336 42.0716 6.319 42.3514 9.70964C42.6312 13.1002 45.607 15.6221 48.9977 15.3422C52.3883 15.0624 54.9101 12.0868 54.6303 8.69618C54.3505 5.30554 51.3748 2.78366 47.9842 3.06349Z" fill="url(#LinearGradient_10)" fill-rule="nonzero" opacity="0.527778" stroke="#00e298" stroke-linecap="butt" stroke-linejoin="miter" stroke-width="4.56032"/>
<path d="M48.0578 2.97929C44.6671 3.25915 42.1452 6.23472 42.425 9.62528C42.7049 13.0159 45.6805 15.5376 49.0712 15.2578C52.4617 14.9779 54.9835 12.0025 54.7037 8.61186C54.4239 5.22129 51.4483 2.69946 48.0578 2.97929Z" fill="none" filter="url(#Filter_12)" stroke="#00e298" stroke-linecap="butt" stroke-linejoin="miter" stroke-width="4.56032" shadowAngle="1.5708" shadowColor="#000000" shadowOffset="0.562782" shadowOpacity="0.46" shadowRadius="2.02892"/>
<path d="M83.4691 33.2119C80.0783 33.4919 77.5563 36.4675 77.8361 39.8581C78.1161 43.2487 81.0917 45.7706 84.4825 45.4907C87.8731 45.2108 90.395 42.2353 90.1151 38.8447C89.8352 35.4541 86.8596 32.9321 83.4691 33.2119Z" fill="url(#LinearGradient_11)" fill-rule="nonzero" opacity="0.527778" stroke="#00e298" stroke-linecap="butt" stroke-linejoin="miter" stroke-width="4.56032"/>
<path d="M83.3956 33.2965C80.0049 33.5763 77.483 36.5519 77.7629 39.9425C78.0427 43.3331 81.0184 45.8549 84.409 45.575C87.7995 45.2952 90.3214 42.3197 90.0415 38.9291C89.7617 35.5385 86.7861 33.0167 83.3956 33.2965Z" fill="none" filter="url(#Filter_13)" stroke="#00e298" stroke-linecap="butt" stroke-linejoin="miter" stroke-width="4.56032" shadowAngle="1.5708" shadowColor="#000000" shadowOffset="0.562782" shadowOpacity="0.46" shadowRadius="2.02892"/>
</g>
</svg>