<svg width="100%" height="100%" viewBox="0 0 100 100" xml:space="preserve" xmlns="http://www.w3.org/2000/svg" xmlns:vectornator="http://vectornator.io" xmlns:xlink="http://www.w3.org/1999/xlink">
<defs>
<filter color-interpolation-filters="sRGB" filterUnits="userSpaceOnUse" height="89.7103" id="Filter" width="78.885" x="7.45601" y="12.8111">
<feDropShadow dx="-0.767124" dy="0.641499" flood-color="#000000" flood-opacity="0.7" in="SourceGraphic" result="Shadow" stdDeviation="1"/>
</filter>
<linearGradient gradientTransform="matrix(0.90443 0 0 0.904428 -0.515704 14.7386)" gradientUnits="userSpaceOnUse" id="LinearGradient" x1="-9.27116" x2="59.373" y1="55.838" y2="21.9954">
<stop offset="0.167105" stop-color="#ffffff"/>
<stop offset="0.459591" stop-color="#ffffff"/>
<stop offset="0.860017" stop-color="#bebebe"/>
<stop offset="1" stop-color="#a9a9a9"/>
</linearGradient>
<linearGradient gradientTransform="matrix(0.90443 0 0 0.904428 -0.515704 14.7386)" gradientUnits="userSpaceOnUse" id="LinearGradient_2" x1="21.7049" x2="64.6434" y1="24.5631" y2="-1.93193">
<stop offset="0.167105" stop-color="#ffffff"/>
<stop offset="0.459591" stop-color="#ffffff"/>
<stop offset="0.860017" stop-color="#bebebe"/>
<stop offset="1" stop-color="#a9a9a9"/>
</linearGradient>
<linearGradient gradientTransform="matrix(0.90443 0 0 0.904428 -0.00607072 14.7438)" gradientUnits="userSpaceOnUse" id="LinearGradient_3" x1="25.1858" x2="36.298" y1="28.4872" y2="15.3702">
<stop offset="0.167105" stop-color="#ffffff"/>
<stop offset="0.500452" stop-color="#ffffff"/>
<stop offset="0.860017" stop-color="#bebebe"/>
<stop offset="1" stop-color="#a9a9a9"/>
</linearGradient>
<linearGradient gradientTransform="matrix(0.90443 0 0 0.904428 -2.468 12.8299)" gradientUnits="userSpaceOnUse" id="LinearGradient_4" x1="22.6632" x2="33.2254" y1="18.0829" y2="12.3811">
<stop offset="0.167105" stop-color="#ffffff"/>
<stop offset="0.500452" stop-color="#ffffff"/>
<stop offset="0.860017" stop-color="#bebebe"/>
<stop offset="1" stop-color="#a9a9a9"/>
</linearGradient>
<linearGradient gradientTransform="matrix(1.00601 0 0 1.00601 -0.0664385 -0.144676)" gradientUnits="userSpaceOnUse" id="LinearGradient_5" x1="36.3819" x2="79.6402" y1="41.2349" y2="42.1207">
<stop offset="0" stop-color="#cc00b9"/>
<stop offset="0.669737" stop-color="#a60095"/>
<stop offset="1" stop-color="#800073"/>
</linearGradient>
<filter color-interpolation-filters="sRGB" filterUnits="userSpaceOnUse" height="22.002" id="Filter_2" width="29.0346" x="50.6651" y="10.7399">
<feDropShadow dx="-3.67321e-06" dy="1" flood-color="#000000" flood-opacity="0.6" in="SourceGraphic" result="Shadow" stdDeviation="0.5"/>
</filter>
<linearGradient gradientTransform="matrix(0.332199 -0.0662179 0.066218 0.332199 8.81893 8.33166)" gradientUnits="userSpaceOnUse" id="LinearGradient_6" x1="137.884" x2="174.183" y1="68.3717" y2="68.3717">
<stop offset="0" stop-color="#ffffff"/>
<stop offset="0" stop-color="#ffffff"/>
<stop offset="0.492741" stop-color="#acacac"/>
<stop offset="1" stop-color="#676767"/>
</linearGradient>
<linearGradient gradientTransform="matrix(0.332199 -0.0662179 0.066218 0.332199 8.81893 8.33166)" gradientUnits="userSpaceOnUse" id="LinearGradient_7" x1="137.884" x2="174.183" y1="68.3717" y2="68.3717">
<stop offset="0" stop-color="#ffffff"/>
<stop offset="0" stop-color="#ffffff"/>
<stop offset="0.492741" stop-color="#acacac"/>
<stop offset="1" stop-color="#676767"/>
</linearGradient>
<linearGradient gradientTransform="matrix(0.332199 -0.0662179 0.066218 0.332199 8.81893 8.33166)" gradientUnits="userSpaceOnUse" id="LinearGradient_8" x1="137.884" x2="174.183" y1="68.3717" y2="68.3717">
<stop offset="0" stop-color="#ffffff"/>
<stop offset="0" stop-color="#ffffff"/>
<stop offset="0.492741" stop-color="#acacac"/>
<stop offset="1" stop-color="#676767"/>
</linearGradient>
<filter color-interpolation-filters="sRGB" filterUnits="userSpaceOnUse" height="44.3215" id="Filter_3" width="56.3636" x="37.0008" y="-0.918987">
<feDropShadow dx="-1.87755e-06" dy="0.511147" flood-color="#000000" flood-opacity="0.6" in="SourceGraphic" result="Shadow" stdDeviation="0.552054"/>
</filter>
<filter color-interpolation-filters="sRGB" filterUnits="userSpaceOnUse" height="19.2001" id="Filter_4" width="19.2004" x="55.5805" y="11.6235">
<feDropShadow dx="-1.87755e-06" dy="0.511147" flood-color="#000000" flood-opacity="0.46" in="SourceGraphic" result="Shadow" stdDeviation="0.552054"/>
</filter>
<filter color-interpolation-filters="sRGB" filterUnits="userSpaceOnUse" height="19.1999" id="Filter_5" width="19.2001" x="37.5121" y="-0.400077">
<feDropShadow dx="-1.87755e-06" dy="0.511147" flood-color="#000000" flood-opacity="0.46" in="SourceGraphic" result="Shadow" stdDeviation="0.552054"/>
</filter>
<filter color-interpolation-filters="sRGB" filterUnits="userSpaceOnUse" height="19.1999" id="Filter_6" width="19.2001" x="73.6582" y="23.6921">
<feDropShadow dx="-1.87755e-06" dy="0.511147" flood-color="#000000" flood-opacity="0.46" in="SourceGraphic" result="Shadow" stdDeviation="0.552054"/>
</filter>
</defs>
<g opacity="1" layerName="Group 15">
<g opacity="1" layerName="Group 14">
<path d="M75.7995 75.3587C75.7995 71.0166 75.7995 63.0713 75.7995 52.4542C75.7995 28.2402 68.8713 16.074 48.3141 14.7178C34.5521 13.8099 22.6006 25.9735 18.6599 30.4504L27.5402 39.4082C29.0368 38.2077 35.2633 34.9 35.2633 34.9C37.9827 33.3717 40.4711 31.5268 44.7144 32.0733C56.288 33.5638 55.3316 47.5813 55.3316 52.005C55.3316 52.005 49.9485 46.2293 39.4058 46.2293C29.6296 46.2293 8.58449 54.25 10.8997 77.4739C12.0758 89.2713 21.5229 99.8118 39.7507 99.3663C50.1801 99.1114 58.8669 88.8285 58.8669 88.8285C61.7902 99.315 68.1668 98.915 73.0232 99.315L79.3386 94.9227L84.6082 86.036C84.6082 86.036 75.7995 84.4362 75.7995 75.3587ZM39.4022 92.2366C32.5612 92.2366 27.0156 83.5239 27.0156 72.7721C27.0156 62.0204 32.5612 53.3076 39.4022 53.3076C46.2432 53.3076 51.7889 62.0204 51.7889 72.7721C51.7889 83.5239 46.2432 92.2366 39.4022 92.2366Z" fill="#ffffff" filter="url(#Filter)" layerName="path 13" shadowAngle="2.44514" shadowColor="#000000" shadowOffset="1" shadowOpacity="0.7" shadowRadius="2"/>
<path d="M55.3175 52.1021C55.3175 52.1021 49.9344 46.3263 39.3917 46.3263C37.7976 46.3263 37.3065 43.7299 35.2633 44.1876C24.776 46.5366 8.94792 58.134 10.8856 77.5709C12.0617 89.3684 21.5088 99.9088 39.7366 99.4633C50.1661 99.2084 61.1037 90.8392 61.2618 87.4523C61.8434 75.0012 55.3175 47.6784 55.3175 52.1021ZM39.3881 92.3337C32.5471 92.3337 27.0015 83.6209 27.0015 72.8692C27.0015 62.1174 32.5471 53.4046 39.3881 53.4046C46.2292 53.4046 51.7748 62.1174 51.7748 72.8692C51.7748 83.6209 46.2292 92.3337 39.3881 92.3337Z" fill="url(#LinearGradient)" opacity="1" stroke="#303030" stroke-linecap="square" stroke-linejoin="round" stroke-width="1.25" layerName="path 12"/>
<path d="M68.8665 47.709C66.9537 29.3016 58.8278 19.1467 43.5123 18.4889L35.2633 34.8C37.7727 33.4138 39.7938 31.4906 44.5421 32.1382C51.3893 33.0721 53.8502 38.3388 54.7185 43.3976C55.3164 46.8811 69.1646 50.5776 68.8665 47.709Z" fill="url(#LinearGradient_2)" opacity="1" stroke="#303030" stroke-linecap="square" stroke-linejoin="round" stroke-width="1.25" layerName="path 1"/>
<path d="M79.2333 95.0806L72.8509 99.3799C72.2719 99.3669 67.8287 99.45 65.1825 97.9845C60.4302 95.3526 58.7864 89.6308 58.6946 88.8934L65.1823 84.4362C65.1823 84.4362 67.3232 91.1612 71.2716 93.2626C73.153 94.2639 78.447 95.0309 79.2333 95.0806Z" fill="#ffffff" opacity="1" stroke="#303030" stroke-linecap="square" stroke-linejoin="round" stroke-width="1.25" layerName="Curve 12"/>
<path d="M26.1466 25.7565L18.6599 30.4504L27.5402 39.4082L35.2633 34.9715L26.1466 25.7565Z" fill="url(#LinearGradient_3)" opacity="1" stroke="#303030" stroke-linecap="square" stroke-linejoin="round" stroke-width="1.25" layerName="Curve 1"/>
<path d="M18.6599 30.4504L26.1691 25.7671C26.4077 25.5003 37.8583 16.2022 37.8583 16.2022C38.4507 15.2956 30.1567 19.3831 25.8653 22.6081C21.5739 25.8331 18.6599 30.4504 18.6599 30.4504Z" fill="url(#LinearGradient_4)" opacity="1" stroke="#303030" stroke-linecap="square" stroke-linejoin="round" stroke-width="1.25" layerName="Curve 14"/>
<path d="M75.7995 75.3587C75.7995 71.0166 75.7995 63.0713 75.7995 52.4542C75.7995 28.2402 67.7022 14.792 50 14.0317C36.2207 13.4399 30.2713 21.1725 26.3305 25.6494L35.2633 34.9C38.0717 32.6472 41.9457 26.5111 51.0297 27.681C62.6034 29.1716 61.6469 43.1891 61.6469 47.6128C61.6469 47.6128 56.2638 41.837 45.7211 41.837C35.945 41.837 14.8999 49.8578 17.2151 73.0817C18.3912 84.8791 27.8383 95.4195 46.0661 94.974C56.4955 94.7191 65.1823 84.4362 65.1823 84.4362C68.1056 94.9227 74.4821 94.5228 79.3386 94.9227L84.6082 86.036C84.6082 86.036 75.7995 84.4362 75.7995 75.3587ZM45.7175 87.8444C38.8766 87.8444 33.3309 79.1316 33.3309 68.3799C33.3309 57.6281 38.8766 48.9154 45.7175 48.9154C52.5586 48.9154 58.1043 57.6281 58.1043 68.3799C58.1043 79.1316 52.5586 87.8444 45.7175 87.8444Z" fill="url(#LinearGradient_5)" opacity="1" stroke="#303030" stroke-linecap="square" stroke-linejoin="round" stroke-width="1.44855" layerName="path 10"/>
</g>
<g opacity="1" layerName="Group 13">
<g opacity="0" layerName="g275">
<path d="M54.0568 12.4975C55.3559 13.3998 57.0577 14.5776 58.9601 15.8923" fill="none" opacity="1" stroke="#00e298" stroke-linecap="round" stroke-linejoin="round" stroke-width="1.18315" layerName="path"/>
<path d="M71.8645 24.7993C73.8791 26.1897 75.6208 27.3926 76.8261 28.2274" fill="none" opacity="1" stroke="#00e298" stroke-linecap="round" stroke-linejoin="round" stroke-width="1.18315" layerName="path"/>
</g>
<path d="M53.5349 11.393C53.1548 11.4615 52.798 11.648 52.5603 11.9903C52.0849 12.6748 52.2531 13.6212 52.9375 14.0966C54.1688 14.9518 55.8101 16.0878 57.8418 17.4919C58.5274 17.9657 59.4744 17.8002 59.9482 17.1146C60.422 16.429 60.2565 15.4821 59.5709 15.0083C57.541 13.6055 55.8955 12.4666 54.6666 11.613C54.3244 11.3753 53.9149 11.3245 53.5349 11.393ZM71.3286 23.6851C70.9487 23.7548 70.5907 23.9709 70.354 24.3139C69.8807 24.9998 70.0768 25.9468 70.7627 26.4202C73.0273 27.9831 74.5942 29.0821 75.6985 29.8469C76.3836 30.3214 77.3302 30.1548 77.8048 29.4697C78.2793 28.7845 78.1126 27.8379 77.4275 27.3633C76.3215 26.5972 74.7263 25.5004 72.4604 23.9366C72.1174 23.6999 71.7085 23.6155 71.3286 23.6851Z" fill="#00e298" filter="url(#Filter_2)" stroke="#2c2c2c" stroke-linecap="round" stroke-linejoin="round" stroke-width="0.75" layerName="Curve 1" shadowAngle="1.5708" shadowColor="#000000" shadowOffset="1" shadowOpacity="0.6" shadowRadius="1"/>
<g opacity="1" layerName="g292">
<path d="M82.0566 26.7517C78.7266 27.4155 76.5652 30.653 77.2289 33.9828C77.8927 37.3126 81.1303 39.4739 84.4601 38.8101C87.7899 38.1464 89.9513 34.9089 89.2875 31.5791C88.6238 28.2494 85.3862 26.088 82.0566 26.7517Z" fill="url(#LinearGradient_6)" opacity="0.527778" stroke="#00e298" stroke-linecap="butt" stroke-linejoin="miter" stroke-width="4.14191" layerName="path 14"/>
<path d="M63.9791 14.6833C60.6491 15.3471 58.4877 18.5845 59.1514 21.9144C59.8152 25.2441 63.0528 27.4054 66.3826 26.7416C69.7124 26.0779 71.8738 22.8405 71.21 19.5107C70.5463 16.1809 67.3087 14.0196 63.9791 14.6833Z" fill="url(#LinearGradient_7)" opacity="0.527778" stroke="#00e298" stroke-linecap="butt" stroke-linejoin="miter" stroke-width="4.14191" layerName="path 14"/>
<path d="M45.9103 2.65955C42.5805 3.3233 40.4191 6.56083 41.0828 9.89064C41.7465 13.2204 44.9841 15.3817 48.314 14.7179C51.6438 14.0542 53.8051 10.8167 53.1414 7.48698C52.4777 4.15718 49.2401 1.99583 45.9103 2.65955Z" fill="url(#LinearGradient_8)" opacity="0.527778" stroke="#00e298" stroke-linecap="butt" stroke-linejoin="miter" stroke-width="4.14191" layerName="path 14"/>
</g>
<path d="M45.4868 0.609829C41.0302 1.49816 38.1531 5.83272 39.0421 10.2926C39.9311 14.7523 44.2681 17.6571 48.7249 16.7688C53.1813 15.8805 56.0586 11.5459 55.1696 7.086C54.2807 2.62644 49.9435-0.278533 45.4868 0.609829ZM46.3042 4.69673C48.5006 4.25892 50.643 5.69727 51.0827 7.90338C51.5227 10.1106 50.1029 12.2443 47.9075 12.6819C45.711 13.1197 43.5688 11.6815 43.129 9.47526C42.689 7.26808 44.1087 5.13437 46.3042 4.69673ZM63.5635 12.6505C59.1068 13.5389 56.2298 17.8733 57.1188 22.3333C58.0072 26.7898 62.3416 29.667 66.8016 28.778C71.2581 27.8897 74.1354 23.5551 73.2463 19.0952C72.358 14.6387 68.0234 11.7615 63.5635 12.6505ZM64.3809 16.7374C66.5881 16.2974 68.7218 17.7171 69.1594 19.9126C69.5994 22.1198 68.1797 24.2535 65.9842 24.6911C63.7769 25.1311 61.6434 23.7115 61.2057 21.5159C60.7657 19.3086 62.1853 17.1751 64.3809 16.7374ZM81.6402 24.7226C77.1836 25.6108 74.3063 29.9454 75.1954 34.4054C76.0837 38.8618 80.4184 41.7391 84.8783 40.8501C89.3347 39.9618 92.2121 35.6272 91.323 31.1673C90.4347 26.7109 86.1 23.8336 81.6402 24.7226ZM82.4576 28.8095C84.6647 28.3695 86.7985 29.7893 87.2361 31.9847C87.6761 34.1918 86.2563 36.3256 84.0609 36.7632C81.8537 37.2032 79.72 35.7834 79.2824 33.588C78.8423 31.3807 80.262 29.2471 82.4576 28.8095Z" fill="#00e298" filter="url(#Filter_3)" stroke="#2c2c2c" stroke-linecap="round" stroke-linejoin="round" stroke-width="1" layerName="Curve 1" shadowAngle="1.5708" shadowColor="#000000" shadowOffset="0.511147" shadowOpacity="0.6" shadowRadius="1.10411"/>
<g opacity="0" layerName="g276">
<path d="M63.9791 14.6833C60.6491 15.3471 58.4877 18.5845 59.1514 21.9144C59.8152 25.2441 63.0528 27.4054 66.3826 26.7416C69.7124 26.0779 71.8738 22.8405 71.21 19.5107C70.5463 16.1809 67.3087 14.0196 63.9791 14.6833Z" fill="none" filter="url(#Filter_4)" stroke="#00e298" stroke-linecap="butt" stroke-linejoin="miter" stroke-width="4.14191" layerName="path 16" shadowAngle="1.5708" shadowColor="#000000" shadowOffset="0.511147" shadowOpacity="0.46" shadowRadius="1.10411"/>
<path d="M45.9105 2.65965C42.5807 3.32339 40.4193 6.56085 41.083 9.89059C41.7468 13.2203 44.9842 15.3815 48.3141 14.7178C51.6438 14.0541 53.8051 10.8167 53.1414 7.48698C52.4777 4.15725 49.2402 1.99595 45.9105 2.65965Z" fill="none" filter="url(#Filter_5)" stroke="#00e298" stroke-linecap="butt" stroke-linejoin="miter" stroke-width="4.14191" layerName="path 16" shadowAngle="1.5708" shadowColor="#000000" shadowOffset="0.511147" shadowOpacity="0.46" shadowRadius="1.10411"/>
<path d="M82.0566 26.7519C78.7267 27.4156 76.5653 30.653 77.2291 33.9828C77.8928 37.3126 81.1304 39.4738 84.4601 38.8101C87.7898 38.1464 89.9512 34.909 89.2874 31.5792C88.6237 28.2495 85.3862 26.0882 82.0566 26.7519Z" fill="none" filter="url(#Filter_6)" stroke="#00e298" stroke-linecap="butt" stroke-linejoin="miter" stroke-width="4.14191" layerName="path 16" shadowAngle="1.5708" shadowColor="#000000" shadowOffset="0.511147" shadowOpacity="0.46" shadowRadius="1.10411"/>
</g>
</g>
</g>
</svg>