<svg height="100%" viewBox="0 0 100 100" width="100%" xml:space="preserve" xmlns="http://www.w3.org/2000/svg" xmlns:xlink="http://www.w3.org/1999/xlink"><defs><linearGradient gradientTransform="matrix(1 0 0 1.04268 -1.42109e-14 -2.13407)" gradientUnits="userSpaceOnUse" id="LinearGradient" x1="24.4706" x2="73.3037" y1="39.4937" y2="40.3372"><stop offset="0" stop-color="#3f51b5"/><stop offset="1" stop-color="#54009f"/></linearGradient><filter color-interpolation-filters="sRGB" filterUnits="userSpaceOnUse" height="37.1407" id="Filter" width="50.7092" x="24.6562" y="22.1683"><feDropShadow dx="6.12323e-17" dy="1" flood-color="#000000" flood-opacity="0.7" in="SourceGraphic" result="Shadow" stdDeviation="1.5"/></filter><linearGradient gradientTransform="matrix(1 0 0 1.04268 -2.46875 -0.0487047)" gradientUnits="userSpaceOnUse" id="LinearGradient_2" x1="6.46455" x2="99.8952" y1="24.6372" y2="24.059"><stop offset="0" stop-color="#b007a0"/><stop offset="0.315789" stop-color="#9d00a8"/><stop offset="0.713158" stop-color="#7a0175"/></linearGradient><filter color-interpolation-filters="sRGB" filterUnits="userSpaceOnUse" height="107.597" id="Filter_2" width="103.5" x="-1.75" y="-2.7987"><feDropShadow dx="6.12323e-17" dy="1" flood-color="#000000" flood-opacity="0.7" in="SourceGraphic" result="Shadow" stdDeviation="1.5"/></filter></defs><g opacity="1"><path d="M71.6101 24.9183L71.5937 26.2138C71.5938 38.726 62 48.7618 50 48.7618C38 48.7618 28.4062 38.726 28.4062 26.2138L28.4419 24.9494C28.4419 24.9494 28.1786 54.8504 50.3539 54.5569C72.5292 54.2633 71.6101 24.9183 71.6101 24.9183Z" fill="url(#LinearGradient)" filter="url(#Filter)"/><path d="M21.1875-0.0487047L2 24.9756L14 24.9756L14 26.2138C14 44.4209 26.3449 59.5438 42.8125 63.0009L42.8125 100.049L57.1875 100.049L57.1875 63.0009C73.6551 59.5438 86 44.4209 86 26.2138L86 24.9756L98 24.9756L78.8125-0.0487047L59.5937 24.9756L71.5937 24.9756L71.5937 26.2138C71.5938 38.726 64.763 54.381 50.3539 54.5569C35.9448 54.7327 28.4062 38.726 28.4062 26.2138L28.4062 24.9756L40.4062 24.9756L21.1875-0.0487047Z" fill="url(#LinearGradient_2)" filter="url(#Filter_2)"/></g></svg>