<svg xmlns="http://www.w3.org/2000/svg" xmlns:vectornator="http://vectornator.io" xmlns:xlink="http://www.w3.org/1999/xlink" style="fill-rule:nonzero;clip-rule:evenodd;stroke-linecap:round;stroke-linejoin:round" width="100%" height="100%" stroke-miterlimit="10" version="1.1" viewBox="0 0 100 100" xml:space="preserve"><defs><linearGradient id="LinearGradient" x1="32.776" x2="93.601" y1="20.987" y2="133.333" gradientTransform="matrix(0.981459 4.19926e-32 0 -0.819599 1.42712 89.9812)" gradientUnits="userSpaceOnUse"><stop offset="0" stop-color="#0032ff"/><stop offset=".399" stop-color="#0007ff"/><stop offset=".787" stop-color="#030097"/><stop offset="1" stop-color="#000377"/></linearGradient><filter id="Filter" width="73.637" height="74.531" x="12.81" y="14.578" color-interpolation-filters="sRGB" filterUnits="userSpaceOnUse"><feDropShadow dx="-.864" dy="1.771" flood-color="#000" flood-opacity=".5" in="SourceGraphic" result="Shadow" stdDeviation="1.478"/></filter><filter id="Filter_2" width="76.77" height="77.664" x="11.676" y="12.126" color-interpolation-filters="sRGB" filterUnits="userSpaceOnUse"><feDropShadow dx="-.432" dy=".885" flood-color="#000" flood-opacity=".59" in="SourceGraphic" result="Shadow" stdDeviation="1.478"/></filter><radialGradient id="RadialGradient" cx="20.737" cy="18.299" r="18.698" gradientTransform="matrix(1.05824 1.94292e-33 0 -1.06709 28.3369 33.5222)" gradientUnits="userSpaceOnUse"><stop offset=".228" stop-color="#fff"/><stop offset=".8" stop-color="#8d8d8d"/><stop offset="1" stop-color="#fff"/></radialGradient><filter id="Filter_3" width="31.77" height="31.961" x="34.033" y="-.898" color-interpolation-filters="sRGB" filterUnits="userSpaceOnUse"><feDropShadow dx="-.378" dy=".774" flood-color="#000" flood-opacity=".59" in="SourceGraphic" result="Shadow" stdDeviation="1.292"/></filter><filter id="Filter_4" width="31.77" height="31.961" x="34.033" y="-.898" color-interpolation-filters="sRGB" filterUnits="userSpaceOnUse"><feDropShadow dx="-.378" dy=".774" flood-color="#000" flood-opacity=".59" in="SourceGraphic" result="Shadow" stdDeviation="1.292"/></filter><radialGradient id="RadialGradient_2" cx="20.737" cy="18.299" r="18.698" gradientTransform="matrix(1.09701 2.81672e-32 0 -1.10618 56.9937 105.187)" gradientUnits="userSpaceOnUse"><stop offset=".228" stop-color="#fff"/><stop offset=".8" stop-color="#8d8d8d"/><stop offset="1" stop-color="#fff"/></radialGradient><filter id="Filter_5" width="32.934" height="33.132" x="62.898" y="69.507" color-interpolation-filters="sRGB" filterUnits="userSpaceOnUse"><feDropShadow dx="-.391" dy=".803" flood-color="#000" flood-opacity=".59" in="SourceGraphic" result="Shadow" stdDeviation="1.339"/></filter><filter id="Filter_6" width="32.934" height="33.132" x="62.678" y="69.507" color-interpolation-filters="sRGB" filterUnits="userSpaceOnUse"><feDropShadow dx="-.391" dy=".803" flood-color="#000" flood-opacity=".59" in="SourceGraphic" result="Shadow" stdDeviation="1.339"/></filter><radialGradient id="RadialGradient_3" cx="20.737" cy="18.299" r="18.698" gradientTransform="matrix(1.09701 2.81672e-32 0 -1.10618 -2.51971 105.187)" gradientUnits="userSpaceOnUse"><stop offset=".228" stop-color="#fff"/><stop offset=".8" stop-color="#8d8d8d"/><stop offset="1" stop-color="#fff"/></radialGradient><filter id="Filter_7" width="32.934" height="33.132" x="3.385" y="69.507" color-interpolation-filters="sRGB" filterUnits="userSpaceOnUse"><feDropShadow dx="-.391" dy=".803" flood-color="#000" flood-opacity=".59" in="SourceGraphic" result="Shadow" stdDeviation="1.339"/></filter><filter id="Filter_8" width="32.934" height="33.132" x="3.385" y="69.507" color-interpolation-filters="sRGB" filterUnits="userSpaceOnUse"><feDropShadow dx="-.391" dy=".803" flood-color="#000" flood-opacity=".59" in="SourceGraphic" result="Shadow" stdDeviation="1.339"/></filter></defs><g opacity="1"><g opacity="1"><path fill="url(#LinearGradient)" fill-rule="nonzero" stroke="none" d="M21.7763 83.6434C19.3371 83.6434 17.3684 81.987 17.3684 79.95L17.3684 65.5919C17.3684 61.5839 18.4814 58.6836 22.1004 55.274C24.5969 52.922 27.422 51.0032 33.4443 47.0079C45.0277 39.3233 46.0847 37.9865 46.0847 34.257L46.0847 19.9609C46.0922 16.5436 50.4926 16.5021 50.4926 16.5021C50.4926 16.5021 54.8702 16.3787 54.9329 19.9609L54.9329 34.257C54.9329 37.9865 55.9575 39.3233 67.5409 47.0079C73.5632 51.0032 76.3883 52.922 78.8848 55.274C82.5038 58.6836 83.6168 61.5839 83.6168 65.5919L83.6168 79.95C83.6168 81.987 81.6481 83.6434 79.2089 83.6434C76.7697 83.6434 74.801 81.987 74.801 79.95L74.801 64.7633C75.1432 59.916 61.2545 52.0124 61.2545 52.0124C61.2545 52.0124 54.2855 47.5426 51.789 45.1905C51.3466 44.7736 50.8855 44.3813 50.4926 43.9594C50.0997 44.3813 49.6386 44.7736 49.1961 45.1905C46.6997 47.5426 39.763 52.0124 39.763 52.0124C39.7631 52.0124 25.8744 59.916 26.2166 64.7633L26.2166 79.95C26.2166 81.987 24.2155 83.6434 21.7763 83.6434Z" filter="url(#Filter)" shadowAngle="2.025" shadowColor="#000000" shadowOffset="1.97" shadowOpacity=".5" shadowRadius="2.956"/><path fill="none" stroke="#000" stroke-linecap="butt" stroke-linejoin="round" stroke-width="3.133" d="M21.7763 83.6434C19.3371 83.6434 17.3684 81.987 17.3684 79.95L17.3684 65.5919C17.3684 61.5839 18.4814 58.6836 22.1004 55.274C24.5969 52.922 27.422 51.0032 33.4443 47.0079C45.0277 39.3233 46.0847 37.9865 46.0847 34.257L46.0847 19.9609C46.0922 16.5436 50.4926 16.5021 50.4926 16.5021C50.4926 16.5021 54.8702 16.3787 54.9329 19.9609L54.9329 34.257C54.9329 37.9865 55.9575 39.3233 67.5409 47.0079C73.5632 51.0032 76.3883 52.922 78.8848 55.274C82.5038 58.6836 83.6168 61.5839 83.6168 65.5919L83.6168 79.95C83.6168 81.987 81.6481 83.6434 79.2089 83.6434C76.7697 83.6434 74.801 81.987 74.801 79.95L74.801 64.7633C75.1432 59.916 61.2545 52.0124 61.2545 52.0124C61.2545 52.0124 54.2855 47.5426 51.789 45.1905C51.3466 44.7736 50.8855 44.3813 50.4926 43.9594C50.0997 44.3813 49.6386 44.7736 49.1961 45.1905C46.6997 47.5426 39.763 52.0124 39.763 52.0124C39.7631 52.0124 25.8744 59.916 26.2166 64.7633L26.2166 79.95C26.2166 81.987 24.2155 83.6434 21.7763 83.6434Z" filter="url(#Filter_2)" shadowAngle="2.025" shadowColor="#000000" shadowOffset=".985" shadowOpacity=".59" shadowRadius="2.956"/></g><g opacity="1"><g opacity="1"><path fill="url(#RadialGradient)" fill-rule="nonzero" stroke="#000" stroke-linecap="butt" stroke-linejoin="round" stroke-width="2.49" d="M50.2955 25.8138C43.994 25.8138 38.8856 20.6628 38.8856 14.3086C38.8856 7.95447 43.994 2.80336 50.2955 2.80336C56.5969 2.80336 61.7053 7.95447 61.7053 14.3086C61.7053 20.6628 56.5969 25.8138 50.2955 25.8138Z" filter="url(#Filter_3)" shadowAngle="2.025" shadowColor="#000000" shadowOffset=".861" shadowOpacity=".59" shadowRadius="2.584"/><path fill="none" stroke="#000" stroke-linecap="butt" stroke-linejoin="round" stroke-width="2.49" d="M50.2955 25.8138C43.994 25.8138 38.8856 20.6628 38.8856 14.3086C38.8856 7.95447 43.994 2.80336 50.2955 2.80336C56.5969 2.80336 61.7053 7.95447 61.7053 14.3086C61.7053 20.6628 56.5969 25.8138 50.2955 25.8138Z" filter="url(#Filter_4)" shadowAngle="2.025" shadowColor="#000000" shadowOffset=".861" shadowOpacity=".59" shadowRadius="2.584"/></g><g opacity="1"><path fill="url(#RadialGradient_2)" fill-rule="nonzero" stroke="#000" stroke-linecap="butt" stroke-linejoin="round" stroke-width="2.581" d="M79.7567 97.1966C73.2244 97.1966 67.9289 91.8569 67.9289 85.2699C67.9289 78.683 73.2244 73.3432 79.7567 73.3432C86.289 73.3432 91.5845 78.683 91.5845 85.2699C91.5845 91.8569 86.289 97.1966 79.7567 97.1966Z" filter="url(#Filter_5)" shadowAngle="2.025" shadowColor="#000000" shadowOffset=".893" shadowOpacity=".59" shadowRadius="2.679"/><path fill="none" stroke="#000" stroke-linecap="butt" stroke-linejoin="round" stroke-width="2.581" d="M79.5358 97.1966C73.0034 97.1966 67.7079 91.8569 67.7079 85.2699C67.7079 78.683 73.0034 73.3432 79.5358 73.3432C86.068 73.3432 91.3636 78.683 91.3636 85.2699C91.3636 91.8569 86.068 97.1966 79.5358 97.1966Z" filter="url(#Filter_6)" shadowAngle="2.025" shadowColor="#000000" shadowOffset=".893" shadowOpacity=".59" shadowRadius="2.679"/></g><g opacity="1"><path fill="url(#RadialGradient_3)" fill-rule="nonzero" stroke="#000" stroke-linecap="butt" stroke-linejoin="round" stroke-width="2.581" d="M20.2433 97.1966C13.711 97.1966 8.41549 91.8569 8.41549 85.2699C8.41549 78.683 13.711 73.3432 20.2433 73.3432C26.7756 73.3432 32.0711 78.683 32.0711 85.2699C32.0711 91.8569 26.7756 97.1966 20.2433 97.1966Z" filter="url(#Filter_7)" shadowAngle="2.025" shadowColor="#000000" shadowOffset=".893" shadowOpacity=".59" shadowRadius="2.679"/><path fill="none" stroke="#000" stroke-linecap="butt" stroke-linejoin="round" stroke-width="2.581" d="M20.2433 97.1966C13.711 97.1966 8.41549 91.8569 8.41549 85.2699C8.41549 78.683 13.711 73.3432 20.2433 73.3432C26.7756 73.3432 32.0711 78.683 32.0711 85.2699C32.0711 91.8569 26.7756 97.1966 20.2433 97.1966Z" filter="url(#Filter_8)" shadowAngle="2.025" shadowColor="#000000" shadowOffset=".893" shadowOpacity=".59" shadowRadius="2.679"/></g></g></g></svg>