<svg height="100%" stroke-miterlimit="10" style="fill-rule:nonzero;clip-rule:evenodd;stroke-linecap:round;stroke-linejoin:round;" version="1.1" viewBox="0 0 100 100" width="100%" xml:space="preserve" xmlns="http://www.w3.org/2000/svg" xmlns:vectornator="http://vectornator.io" xmlns:xlink="http://www.w3.org/1999/xlink">
<defs>
<radialGradient cx="50" cy="50" gradientTransform="matrix(1 0 0 1 0 0)" gradientUnits="userSpaceOnUse" id="RadialGradient" r="13.009">
<stop offset="0.252401" stop-color="#d9d9d9"/>
<stop offset="0.72776" stop-color="#585656"/>
<stop offset="0.974649" stop-color="#414141"/>
</radialGradient>
<filter color-interpolation-filters="sRGB" filterUnits="userSpaceOnUse" height="34.018" id="Filter" width="34.018" x="33.4454" y="33.8818">
<feDropShadow dx="0.454426" dy="0.890785" flood-color="#000000" flood-opacity="0.42" in="SourceGraphic" result="Shadow" stdDeviation="1"/>
</filter>
<linearGradient gradientTransform="matrix(1 0 0 1 0 0)" gradientUnits="userSpaceOnUse" id="LinearGradient" x1="11.5448" x2="147.571" y1="-2.4446" y2="95.2579">
<stop offset="0" stop-color="#ffb600"/>
<stop offset="1" stop-color="#3c2f18"/>
</linearGradient>
<filter color-interpolation-filters="sRGB" filterUnits="userSpaceOnUse" height="85.5541" id="Filter_2" width="100.422" x="0.436609" y="7.98511">
<feDropShadow dx="0.647383" dy="0.762165" flood-color="#000000" flood-opacity="0.5" in="SourceGraphic" result="Shadow" stdDeviation="1.5"/>
</filter>
</defs>
<g id="Frame" layerName="Frame">
<g opacity="1" layerName="Frame">
<path d="M36.991 50L63.009 50M50 36.991L50 63.009" fill="url(#RadialGradient)" fill-rule="nonzero" filter="url(#Filter)" stroke="#ffffff" stroke-linecap="butt" stroke-linejoin="miter" stroke-width="3" layerName="path" shadowAngle="1.09907" shadowColor="#000000" shadowOffset="1" shadowOpacity="0.42" shadowRadius="2"/>
<path d="M96.4608 50C96.4608 45.93 95.08 40.6279 93.9705 36.3703C93.2383 33.564 92.5488 30.9139 92.5488 29.7264C92.5488 28.366 93.5876 26.4648 94.5057 24.7904C95.5111 22.9505 96.4608 21.2148 96.4608 19.5886C96.4608 14.8366 92.5488 10.973 87.741 10.973C86.4364 10.973 84.5594 11.5714 81.6026 12.5508C78.5381 13.5655 74.7264 14.8273 72.3012 14.8273C70.3554 14.8273 69.0601 13.9985 67.5603 13.0358C66.0531 12.0694 64.3434 10.973 62.0073 10.973C59.7772 10.973 57.7701 11.9728 55.828 12.9392C53.8785 13.9093 52.0387 14.8255 50 14.8255C48.0672 14.8255 46.7719 13.9966 45.2722 13.0358C43.7594 12.0694 42.0441 10.973 39.7062 10.973C37.3329 10.973 34.8556 12.0954 32.4583 13.1826C30.6798 13.991 28.8399 14.8255 27.6988 14.8255C26.2734 14.8255 22.6327 13.7067 19.7076 12.8091C16.0019 11.6699 13.6584 10.973 12.259 10.973C7.45122 10.973 3.53923 14.8366 3.53923 19.5886C3.53923 21.2278 4.50933 23.0342 5.5389 24.9465C6.43652 26.6135 7.45308 28.5035 7.45308 29.7264C7.45308 30.769 6.80635 33.2109 6.1243 35.796C4.97208 40.1466 3.53923 45.5602 3.53923 50C3.53923 54.3822 4.94606 59.6806 6.07784 63.9382C6.78405 66.6014 7.45308 69.1158 7.45308 70.2736C7.45308 71.634 6.41422 73.5352 5.49615 75.2096C4.48888 77.0495 3.53923 78.7852 3.53923 80.4114C3.53923 85.1634 7.45122 89.027 12.259 89.027C13.5599 89.027 15.435 88.4361 18.3899 87.4715C21.4545 86.4717 25.268 85.2266 27.6988 85.2266C29.6502 85.2266 30.9474 86.0461 32.449 86.9958C33.9562 87.9473 35.6641 89.027 37.9927 89.027C40.2172 89.027 42.2225 88.0421 44.1627 87.0887C46.114 86.1316 47.9576 85.2266 50 85.2266C51.9365 85.2266 53.2355 86.0443 54.739 86.9921C56.2499 87.9473 57.9634 89.027 60.2938 89.027C62.6633 89.027 65.1388 87.9194 67.5324 86.8471C69.3128 86.0498 71.1564 85.2266 72.3012 85.2266C73.7303 85.2266 77.3728 86.3305 80.2999 87.2169C84.0037 88.3394 86.3453 89.027 87.741 89.027C92.5488 89.027 96.4608 85.1634 96.4608 80.4114C96.4608 78.7722 95.4888 76.9658 94.4611 75.0535C93.5635 73.3865 92.5469 71.4965 92.5469 70.2736C92.5469 69.2032 93.2141 66.6274 93.9222 63.9011C95.0539 59.5449 96.4608 54.1239 96.4608 50ZM79.7349 72.3012L20.2651 72.3012L20.2651 27.6988L79.7349 27.6988L79.7349 72.3012Z" fill="url(#LinearGradient)" fill-rule="nonzero" filter="url(#Filter_2)" stroke="none" layerName="path 1" shadowAngle="0.866651" shadowColor="#000000" shadowOffset="1" shadowOpacity="0.5" shadowRadius="3"/>
</g>
</g>
</svg>
