<svg height="100%" stroke-miterlimit="10" style="fill-rule:nonzero;clip-rule:evenodd;stroke-linecap:round;stroke-linejoin:round;" version="1.1" viewBox="-0.220763 -0.78539 98.5746 102.481" width="100%" xml:space="preserve" xmlns="http://www.w3.org/2000/svg" xmlns:vectornator="http://vectornator.io" xmlns:xlink="http://www.w3.org/1999/xlink">
<defs>
<filter color-interpolation-filters="sRGB" filterUnits="userSpaceOnUse" height="102.481" id="Filter" width="98.5746" x="-0.220763" y="-0.78539">
<feDropShadow dx="-0.933453" dy="0.455275" flood-color="#000000" flood-opacity="0.49" in="SourceGraphic" result="Shadow" stdDeviation="1.06161"/>
</filter>
</defs>
<g id="Layer" layerName="Layer">
<g opacity="1" layerName="Group 2">
<path d="M86.2704 96.6333L13.7296 96.6333C8.02992 96.6333 3.36672 91.9699 3.36672 86.2704L3.36672 13.7296C3.36672 8.02992 8.02992 3.3665 13.7296 3.3665L86.2704 3.3665C91.9701 3.3665 96.6333 8.02992 96.6333 13.7296L96.6333 86.2704C96.6333 98.5864 96.6333 96.6333 86.2704 96.6333Z" fill="#ffc107" fill-rule="nonzero" opacity="1" stroke="none" layerName="path"/>
<path d="M87.1009 3.3665C76.2185 3.38789 53.7373 3.3665 53.7373 3.3665L53.7373 44.0709L96.6333 44.0709L96.6333 10.7674C96.6333 3.3479 96.6333 3.3479 87.1009 3.3665Z" fill="#4caf50" fill-rule="nonzero" opacity="1" stroke="none" layerName="path 1"/>
<path d="M3.36672 91.3045C3.36672 96.7466 3.36672 96.7466 14.5601 96.6333C27.2225 96.5052 53.7373 96.6333 53.7373 96.6333L53.7373 67.4576L3.36672 67.4576L3.36672 91.3045Z" fill="#ff4081" fill-rule="nonzero" opacity="1" stroke="none" layerName="path 2"/>
<path d="M53.7373 67.4576L53.7373 3.38361L14.5601 3.38361C13.0693 3.38361 13.7296 3.38361 9.73924 3.36479C6.93849 3.35175 3.36672 5.95893 3.36672 11.3844L3.36672 67.4576L53.7373 67.4576Z" fill="#aa00ff" fill-rule="nonzero" opacity="1" stroke="none" layerName="path 3"/>
<path d="M8.36314 98.5864L91.6369 98.5864C94.3916 98.5864 96.6333 96.0712 96.6333 92.9802L96.6333 7.01955C96.6333 3.92879 94.3916 1.41336 91.6369 1.41336L8.36314 1.41336C5.60838 1.41336 3.36672 3.92858 3.36672 7.01955L3.36672 92.9804C3.36672 96.0714 5.60838 98.5866 8.36293 98.5866L8.36314 98.5864ZM56.6619 5.1509L91.6369 5.1509C92.5546 5.1509 93.3023 5.98802 93.3023 7.01955L93.3023 42.5251L56.6619 42.5251L56.6619 5.1509ZM56.6619 46.2625L93.3023 46.2625L93.3023 92.9802C93.3023 94.0118 92.5546 94.8491 91.6369 94.8491L56.6619 94.8491L56.6619 46.2625ZM6.69767 7.01955C6.69767 5.98802 7.44539 5.1509 8.36314 5.1509L53.3309 5.1509L53.3309 64.9495L6.69767 64.9495L6.69767 7.01955ZM6.69767 68.687L53.3309 68.687L53.3309 94.8491L8.36293 94.8491C7.44539 94.8491 6.69767 94.0118 6.69767 92.9802L6.69767 68.687Z" fill="#000000" fill-rule="nonzero" filter="url(#Filter)" stroke="none" layerName="path 4" shadowAngle="2.68781" shadowColor="#000000" shadowOffset="1.03856" shadowOpacity="0.49" shadowRadius="2.12322"/>
</g>
</g>
</svg>
