<svg xmlns="http://www.w3.org/2000/svg" xmlns:vectornator="http://vectornator.io" xmlns:xlink="http://www.w3.org/1999/xlink" style="fill-rule:nonzero;clip-rule:evenodd;stroke-linecap:round;stroke-linejoin:round" width="100%" height="100%" stroke-miterlimit="10" version="1.1" viewBox="1.43 2.887 95.666 95.666" xml:space="preserve"><defs><filter id="Filter" width="95.666" height="95.666" x="1.43" y="2.887" color-interpolation-filters="sRGB" filterUnits="userSpaceOnUse"><feDropShadow dx="-.695" dy=".719" flood-color="#000" flood-opacity=".4" in="SourceGraphic" result="Shadow" stdDeviation="1.15"/></filter></defs><g id="Gallery.Layout.Grid.White-copy-copy" layerName="Gallery.Layout.Grid.White copy copy"><g layerName="Group 2" opacity="1"><path fill="#131212" fill-rule="nonzero" stroke="none" d="M12.493 5.04219L87.4226 5.04219C91.5609 5.04219 94.9156 8.39691 94.9156 12.5352L94.9156 87.4648C94.9156 91.6031 91.5609 94.9578 87.4226 94.9578L12.493 94.9578C8.35472 94.9578 5 91.6031 5 87.4648L5 12.5352C5 8.39691 8.35472 5.04219 12.493 5.04219Z" filter="url(#Filter)" layerName="rect" shadowAngle="2.339" shadowColor="#000000" shadowOffset="1" shadowOpacity=".4" shadowRadius="2.3"/><g layerName="Group 1" opacity="1"><path fill="#f7ff01" fill-rule="nonzero" stroke="none" d="M94.9575 35.843L94.9575 44.1275C94.9575 44.5851 91.6028 44.956 87.4645 44.956L49.6143 44.956L49.2128 35.0146L87.4645 35.0146C91.6028 35.0146 94.9575 35.3855 94.9575 35.843Z" layerName="rect 5" opacity="1"/><path fill="#00f" fill-rule="nonzero" stroke="none" d="M50.3704 66.1524L12.493 66.1524C8.35472 66.1524 5 65.7815 5 65.3239L5 57.0394C5 56.5819 8.35472 56.211 12.493 56.211L49.6439 56.211L50.3704 66.1524Z" layerName="rect 6" opacity="1"/><path fill="#fc0d1b" fill-rule="nonzero" stroke="none" d="M45.8578 5.04219L54.1422 5.04219C54.5998 5.04219 54.9707 8.39691 54.9707 12.5352L54.9707 87.4648C54.9707 91.6031 54.5998 94.9578 54.1422 94.9578L45.8578 94.9578C45.4002 94.9578 45.0293 91.6031 45.0293 87.4648L45.0293 12.5352C45.0293 8.39691 45.4002 5.04219 45.8578 5.04219Z" layerName="rect 5" opacity="1"/></g></g></g></svg>