<svg xmlns="http://www.w3.org/2000/svg" xmlns:vectornator="http://vectornator.io" xmlns:xlink="http://www.w3.org/1999/xlink" style="fill-rule:nonzero;clip-rule:evenodd;stroke-linecap:round;stroke-linejoin:round" width="100%" height="100%" stroke-miterlimit="10" version="1.1" viewBox="0 0 24 24" xml:space="preserve"><defs><filter id="Filter" width="17.466" height="24.611" x="2.501" y=".337" color-interpolation-filters="sRGB" filterUnits="userSpaceOnUse"><feComponentTransfer in="SourceGraphic" result="Alpha"><feFuncA slope=".809" type="linear"/></feComponentTransfer><feDropShadow dx="-.766" dy=".643" flood-color="#000" flood-opacity=".5" in="Alpha" result="Shadow" stdDeviation=".5"/></filter><filter id="Filter_2" width="17.466" height="24.611" x="2.463" y=".368" color-interpolation-filters="sRGB" filterUnits="userSpaceOnUse"><feDropShadow dx="-.804" dy=".674" flood-color="#000" flood-opacity=".5" in="SourceGraphic" result="Shadow" stdDeviation=".5"/></filter></defs><g opacity="1"><path fill="#00ff79" fill-opacity=".863" fill-rule="nonzero" stroke="#1a4b35" stroke-linecap="butt" stroke-linejoin="round" stroke-width=".676" d="M9.32057 10.2137L14.6794 10.2137L14.6794 22.7177L9.32057 22.7177L9.32057 10.2137ZM17.3589 20.0383L14.6794 22.7177L14.6794 10.2137L19.1451 8.42743L17.3589 20.0383ZM14.6794 10.2137L9.32057 10.2137L12 1.28228L14.6794 10.2137ZM14.6794 10.2137L19.1451 8.42743L12 1.28228L14.6794 10.2137ZM6.64114 20.0383L9.32057 22.7177L9.32057 10.2137L4.85485 8.42743L6.64114 20.0383ZM9.32057 10.2137L4.85485 8.42743L12 1.28228L9.32057 10.2137Z" filter="url(#Filter)" shadowAngle="2.443" shadowColor="#000000" shadowOffset="1" shadowOpacity=".5" shadowRadius="1"/></g><g filter="url(#Filter_2)" shadowAngle="2.443" shadowColor="#000000" shadowOffset="1.049" shadowOpacity=".5" shadowRadius="1"><path fill="none" stroke="#000" stroke-linecap="butt" stroke-linejoin="round" stroke-width=".676" d="M9.32057 10.2137L14.6794 10.2137L14.6794 22.7177L9.32057 22.7177L9.32057 10.2137ZM17.3589 20.0383L14.6794 22.7177L14.6794 10.2137L19.1451 8.42743L17.3589 20.0383ZM14.6794 10.2137L9.32057 10.2137L12 1.28228L14.6794 10.2137Z" opacity="1"/><path fill="none" stroke="#000" stroke-linecap="butt" stroke-linejoin="round" stroke-width=".676" d="M14.6794 10.2137L19.1451 8.42743L12 1.28228L14.6794 10.2137ZM6.64114 20.0383L9.32057 22.7177L9.32057 10.2137L4.85485 8.42743L6.64114 20.0383Z" opacity="1"/><path fill="none" stroke="#000" stroke-linecap="butt" stroke-linejoin="round" stroke-width=".676" d="M9.32057 10.2137L4.85485 8.42743L12 1.28228L9.32057 10.2137Z" opacity="1"/></g></svg>