<svg height="100%" stroke-miterlimit="10" style="fill-rule:nonzero;clip-rule:evenodd;stroke-linecap:round;stroke-linejoin:round;" version="1.1" viewBox="0 0 24 24" width="100%" xml:space="preserve" xmlns="http://www.w3.org/2000/svg" xmlns:vectornator="http://vectornator.io" xmlns:xlink="http://www.w3.org/1999/xlink">
<defs/>
<g id="Layer-3" layerName="Layer 3">
<path d="M7.42782 0L16.5722 1.77636e-15C17.0407 1.77636e-15 17.4907 0.186529 17.8222 0.518039L20.3222 3.01806C20.6537 3.34957 20.8403 3.79954 20.8403 4.26807L20.8403 18.7157C20.8403 19.1842 20.6537 19.6342 20.3222 19.9657L17.8222 22.4657C17.4907 22.7981 17.0407 22.9847 16.5722 22.9847L7.54628 22.9847C7.00879 22.9847 6.50136 22.7407 6.16543 22.3208L3.54783 19.0481C3.29677 18.7352 3.15975 18.3462 3.15975 17.9439L3.15975 4.26807C3.15975 3.79954 3.34628 3.34957 3.67778 3.01806L6.17781 0.518039C6.50932 0.186529 6.95929 0 7.42782 0ZM5.81182 17.6805L8.4639 20.3326L15.5361 20.3326L18.1882 17.6805L18.1882 5.30415L15.5361 2.65208L8.4639 2.65208L5.81182 5.30415L5.81182 17.6805Z" fill="#7f0101" fill-opacity="0.9" fill-rule="nonzero" opacity="1" stroke="none" layerName="path"/>
<path d="M15.5361 7.57987L13.7681 5.81182L10.2319 5.81182L8.4639 7.57987L8.4639 16.4201L10.2319 18.1882L13.7681 18.1882L15.5361 16.4201L15.5361 7.57987ZM10.2319 5.81182L6.69585 2.27572L10.2319 1.3917L10.2319 5.81182ZM8.4639 7.57987L4.9278 4.04377L4.9278 9.34792L8.4639 7.57987ZM19.0722 4.04377L15.5361 7.57987L19.0722 9.34792L19.0722 4.04377ZM15.5361 16.4201L19.0722 19.9562L19.0722 14.6521L15.5361 16.4201ZM4.9278 19.9562L8.4639 16.4201L4.9278 14.6521L4.9278 19.9562ZM13.7681 1.3917L17.3042 2.27572L13.7681 5.81182L13.7681 1.3917ZM13.7681 18.1882L17.3042 21.7243L13.7681 22.6083L13.7681 18.1882ZM10.2319 22.6083L6.69585 21.7243L10.2319 18.1882L10.2319 22.6083Z" fill="#e60726" fill-opacity="0.9" fill-rule="nonzero" opacity="1" stroke="none" layerName="path"/>
</g>
</svg>
