<svg height="100%" stroke-miterlimit="10" style="fill-rule:nonzero;clip-rule:evenodd;stroke-linecap:round;stroke-linejoin:round;" version="1.1" viewBox="0 0 100 100" width="100%" xml:space="preserve" xmlns="http://www.w3.org/2000/svg" xmlns:vectornator="http://vectornator.io" xmlns:xlink="http://www.w3.org/1999/xlink">
<defs>
<filter color-interpolation-filters="sRGB" filterUnits="userSpaceOnUse" height="109.938" id="Filter" width="82.1274" x="8.27785" y="-4.67673">
<feDropShadow dx="-2.98948e-06" dy="0.813863" flood-color="#000000" flood-opacity="0.73" in="SourceGraphic" result="Shadow" stdDeviation="1.25358"/>
</filter>
<filter color-interpolation-filters="sRGB" filterUnits="userSpaceOnUse" height="100.223" id="Filter_2" width="71.5847" x="14.2077" y="-0.721676">
<feDropShadow dx="-2.98948e-06" dy="0.813863" flood-color="#000000" flood-opacity="0.73" in="SourceGraphic" result="Shadow" stdDeviation="1.25358"/>
</filter>
<filter color-interpolation-filters="sRGB" filterUnits="userSpaceOnUse" height="103.67" id="Filter_3" width="75.8595" x="11.4118" y="-2.35664">
<feDropShadow dx="-0.65843" dy="0.478374" flood-color="#000000" flood-opacity="0.52" in="SourceGraphic" result="Shadow" stdDeviation="1.77337"/>
</filter>
<filter color-interpolation-filters="sRGB" filterUnits="userSpaceOnUse" height="69.9916" id="Filter_4" width="58.7852" x="19.9251" y="19.3894">
<feDropShadow dx="-0.681977" dy="0.495481" flood-color="#000000" flood-opacity="0.63" in="SourceGraphic" result="Shadow" stdDeviation="1.29841"/>
</filter>
</defs>
<g filter="url(#Filter)" shadowAngle="1.5708" shadowColor="#000000" shadowOffset="0.813863" shadowOpacity="0.73" shadowRadius="2.50716">
<path d="M17.3416 62.8953C17.3416 44.8586 36.2034 17.3528 49.9998 1.59841C63.7912 18.4131 82.6584 44.8586 82.6584 62.8953C82.6584 80.932 68.0367 95.5537 50 95.5537C31.9633 95.5537 17.3416 80.932 17.3416 62.8953Z" fill="#ffffff" fill-rule="nonzero" filter="url(#Filter_2)" stroke="none" shadowAngle="1.5708" shadowColor="#000000" shadowOffset="0.813863" shadowOpacity="0.73" shadowRadius="2.50716"/>
<path d="M57.2123 84.5433L68.031 80.9371L60.8186 73.7238L57.2123 84.5433Z" fill="#d4baff" fill-rule="nonzero" opacity="1" stroke="none"/>
<path d="M49.9998 1.59841C49.9998 1.59841 16.5037 37.813 16.5037 63.3958C16.5037 81.0489 29.9873 96.4016 49.9998 96.4016C70.0123 96.4016 83.4963 81.0489 83.4963 63.3958C83.4963 38.2095 49.9998 1.59841 49.9998 1.59841ZM71.6373 70.1176L68.031 80.9371L64.4248 88.1495L57.2123 84.5433L49.9998 91.7557L42.7874 84.5433L35.5749 88.1495L31.9685 80.9371L28.3621 70.1176L24.7559 55.6926L28.3621 41.2677L39.1811 34.0552L35.5749 26.8424L42.7874 23.2362L49.9998 8.81104L57.2123 23.2362L64.4248 26.8424L60.8186 34.0552L71.6373 41.2677L75.2435 55.6926L71.6373 70.1176Z" fill="#3a0392" fill-rule="nonzero" filter="url(#Filter_3)" stroke="none" shadowAngle="2.51328" shadowColor="#000000" shadowOffset="0.813863" shadowOpacity="0.52" shadowRadius="3.54674"/>
<path d="M31.3237 81.9043L42.5295 85.6395L38.7942 74.4331L31.3237 81.9043ZM35.0591 59.4923L27.5883 70.6979L38.7942 74.4331L35.0591 59.4923ZM42.5295 22.14L38.7942 33.3459L49.9998 25.8752L42.5295 22.14ZM38.7942 33.3459L23.8531 55.7571L35.0591 59.4923L38.7942 33.3459ZM42.5295 85.6395L57.4703 85.6395L49.9998 78.1691L42.5295 85.6395ZM61.2055 33.3459L57.4703 22.14L49.9998 25.8752L61.2055 33.3459ZM76.1463 55.7571L61.2055 33.3459L38.7942 74.4331L49.9998 78.1691L61.2055 74.4331L72.4111 70.6979L64.9406 59.4923L76.1463 55.7571Z" fill="#5b05e4" fill-rule="nonzero" filter="url(#Filter_4)" stroke="none" shadowAngle="2.51328" shadowColor="#000000" shadowOffset="0.842967" shadowOpacity="0.63" shadowRadius="2.59682"/>
</g>
</svg>