<svg width="100%" height="100%" viewBox="0 0 100 100" version="1.1" xml:space="preserve" xmlns="http://www.w3.org/2000/svg" xmlns:xlink="http://www.w3.org/1999/xlink"><defs><filter color-interpolation-filters="sRGB" filterUnits="userSpaceOnUse" height="47.1453" id="F_GreasyFork" width="31.8921" x="73.285" y="22.2621"><feDropShadow dx="-1.4984e-06" dy="0.407927" flood-color="#000" flood-opacity="0.55" in="SourceGraphic" result="Shadow" stdDeviation="2.23194"/></filter><radialGradient cx="0" cy="0" gradientTransform="matrix(10 -6.058 6.058 10 86.83 52.673)" gradientUnits="userSpaceOnUse" id="RG_GreasyFork" r="1"><stop offset="0" stop-color="#957c53"/><stop offset="0.762" stop-color="#d3af75"/><stop offset="1" stop-color="#c8a66f"/></radialGradient><filter color-interpolation-filters="sRGB" filterUnits="userSpaceOnUse" height="32.4073" id="F_GreasyFork_2" width="19.389" x="79.9827" y="29.4242"><feDropShadow dx="-1.4984e-06" dy="0.407927" flood-color="#000" flood-opacity="0.55" in="SourceGraphic" result="Shadow" stdDeviation="2.23194"/></filter><filter color-interpolation-filters="sRGB" filterUnits="userSpaceOnUse" height="46.7963" id="F_GreasyFork_3" width="32.6507" x="-5.1755" y="28.2517"><feDropShadow dx="-1.4984e-06" dy="0.407927" flood-color="#000" flood-opacity="0.55" in="SourceGraphic" result="Shadow" stdDeviation="2.23194"/></filter><radialGradient cx="0" cy="0" gradientTransform="matrix(14.458 -6.404 6.404 14.458 15.645 58.2)" gradientUnits="userSpaceOnUse" id="RG_GreasyFork_2" r="1"><stop offset="0" stop-color="#957c53"/><stop offset="0.762" stop-color="#d3af75"/><stop offset="1" stop-color="#c8a66f"/></radialGradient><filter color-interpolation-filters="sRGB" filterUnits="userSpaceOnUse" height="32.7244" id="F_GreasyFork_4" width="18.0098" x="1.82004" y="35.2634"><feDropShadow dx="-1.4984e-06" dy="0.407927" flood-color="#000" flood-opacity="0.55" in="SourceGraphic" result="Shadow" stdDeviation="2.23194"/></filter><filter color-interpolation-filters="sRGB" filterUnits="userSpaceOnUse" height="34.7535" id="F_GreasyFork_5" width="44.3472" x="36.1702" y="-5.17191"><feDropShadow dx="-1.4984e-06" dy="0.407927" flood-color="#000" flood-opacity="0.55" in="SourceGraphic" result="Shadow" stdDeviation="2.23194"/></filter><filter color-interpolation-filters="sRGB" filterUnits="userSpaceOnUse" height="111.175" id="F_GreasyFork_6" width="97.9828" x="3.45116" y="-5.17191"><feDropShadow dx="-1.4984e-06" dy="0.407927" flood-color="#000" flood-opacity="0.55" in="SourceGraphic" result="Shadow" stdDeviation="2.23194"/></filter><radialGradient cx="0" cy="0" gradientTransform="matrix(69.45 -0.00999451 0.00999451 69.45 52.29 69.34)" gradientUnits="userSpaceOnUse" id="RG_GreasyFork_3" r="1"><stop offset="0" stop-color="#efddb5"/><stop offset="0.407" stop-color="#efd092"/><stop offset="0.678" stop-color="#cca76e"/><stop offset="1" stop-color="#8d4600"/></radialGradient><filter color-interpolation-filters="sRGB" filterUnits="userSpaceOnUse" height="79.5763" id="F_GreasyFork_7" width="83.6161" x="10.4915" y="20.3271"><feDropShadow dx="-1.4984e-06" dy="0.407927" flood-color="#000" flood-opacity="0.55" in="SourceGraphic" result="Shadow" stdDeviation="2.23194"/></filter><radialGradient cx="0" cy="0" gradientTransform="matrix(35.877 -0.00799942 0.00799942 35.877 50.44 50.745)" gradientUnits="userSpaceOnUse" id="RG_GreasyFork_4" r="1"><stop offset="0.631" stop-color="#570503"/><stop offset="0.796" stop-color="#710603"/><stop offset="0.889" stop-color="#680603"/><stop offset="1" stop-color="#570503"/></radialGradient><filter color-interpolation-filters="sRGB" filterUnits="userSpaceOnUse" height="22.5848" id="F_GreasyFork_8" width="59.0365" x="22.521" y="62.8683"><feDropShadow dx="0.000813613" dy="0.0582685" flood-color="#000" flood-opacity="0.55" in="SourceGraphic" result="Shadow" stdDeviation="1.22378"/></filter><linearGradient gradientTransform="matrix(8.63377 20.9839 -20.9839 8.63377 30.1975 45.8292)" gradientUnits="userSpaceOnUse" id="LG_GreasyFork" x1="0" x2="1" y1="0" y2="0"><stop offset="0" stop-color="#346732"/><stop offset="1" stop-color="#021301"/></linearGradient><filter color-interpolation-filters="sRGB" filterUnits="userSpaceOnUse" height="23.7609" id="F_GreasyFork_9" width="16.3688" x="29.812" y="44.6506"><feDropShadow dx="-1.61408e-06" dy="0.43942" flood-color="#000" flood-opacity="0.55" in="SourceGraphic" result="Shadow" stdDeviation="0.458251"/></filter><linearGradient gradientTransform="matrix(-4.62874 -3.41473 3.41473 -4.62874 37.2575 53.4558)" gradientUnits="userSpaceOnUse" id="LG_GreasyFork_2" x1="0" x2="1" y1="0" y2="0"><stop offset="0" stop-color="#e6ffe6"/><stop offset="0.343" stop-color="#d0e6d0"/><stop offset="0.694" stop-color="#d0e6d0"/><stop offset="1" stop-color="#e6ffe6"/></linearGradient><linearGradient gradientTransform="matrix(8.63916 20.9828 -20.9828 8.63916 54.2009 43.81)" gradientUnits="userSpaceOnUse" id="LG_GreasyFork_3" x1="0" x2="1" y1="0" y2="0"><stop offset="0" stop-color="#346732"/><stop offset="1" stop-color="#021301"/></linearGradient><filter color-interpolation-filters="sRGB" filterUnits="userSpaceOnUse" height="23.762" id="F_GreasyFork_10" width="16.3686" x="53.8211" y="42.6358"><feDropShadow dx="-1.61408e-06" dy="0.43942" flood-color="#000" flood-opacity="0.55" in="SourceGraphic" result="Shadow" stdDeviation="0.458251"/></filter><linearGradient gradientTransform="matrix(-4.62874 -3.41258 3.41258 -4.62874 61.2641 51.4398)" gradientUnits="userSpaceOnUse" id="LG_GreasyFork_4" x1="0" x2="1" y1="0" y2="0"><stop offset="0" stop-color="#e6ffe6"/><stop offset="0.343" stop-color="#d0e6d0"/><stop offset="0.694" stop-color="#d0e6d0"/><stop offset="1" stop-color="#e6ffe6"/></linearGradient><filter color-interpolation-filters="sRGB" filterUnits="userSpaceOnUse" height="38.5756" id="F_GreasyFork_11" width="38.5757" x="44.1598" y="35.9367"><feDropShadow dx="0.0126994" dy="0.909491" flood-color="#000" flood-opacity="0.55" in="SourceGraphic" result="Shadow" stdDeviation="1.12398"/></filter><linearGradient gradientTransform="matrix(-8.16646 49.0312 -49.0312 -8.16646 74.18 32.9624)" gradientUnits="userSpaceOnUse" id="LG_GreasyFork_5" x1="0" x2="1" y1="0" y2="0"><stop offset="0" stop-color="#a3a3cd"/><stop offset="1" stop-color="#81819b"/></linearGradient><linearGradient gradientTransform="matrix(18.2269 16.2644 -16.2644 18.2269 53.6871 46.9689)" gradientUnits="userSpaceOnUse" id="LG_GreasyFork_6" x1="0" x2="1" y1="0" y2="0"><stop offset="0" stop-color="#defcff"/><stop offset="0.264035" stop-color="#cffbff"/><stop offset="0.811404" stop-color="#a7f8ff"/><stop offset="1" stop-color="#99f7ff"/></linearGradient><linearGradient gradientTransform="matrix(-7.19287 13.7999 -13.7999 -7.19287 69.8708 40.7824)" gradientUnits="userSpaceOnUse" id="LG_GreasyFork_7" x1="0" x2="1" y1="0" y2="0"><stop offset="0" stop-color="#cefbff"/><stop offset="0.479825" stop-color="#c9fbff" stop-opacity="0.276627"/><stop offset="0.998246" stop-color="#c3faff" stop-opacity="0"/></linearGradient><filter color-interpolation-filters="sRGB" filterUnits="userSpaceOnUse" height="26.8352" id="F_GreasyFork_12" width="26.8352" x="50.0205" y="41.1208"><feDropShadow dx="0.00311846" dy="0.223335" flood-color="#000" flood-opacity="0.55" in="SourceGraphic" result="Shadow" stdDeviation="0.262238"/></filter><linearGradient gradientTransform="matrix(-6.71087 11.2549 -11.2549 -6.71087 73.0729 41.9364)" gradientUnits="userSpaceOnUse" id="LG_GreasyFork_8" x1="0" x2="1" y1="0" y2="0"><stop offset="0" stop-color="#cefbff"/><stop offset="1" stop-color="#c3faff" stop-opacity="0"/></linearGradient><filter color-interpolation-filters="sRGB" filterUnits="userSpaceOnUse" height="55.242" id="F_GreasyFork_13" width="7.84965" x="83.0071" y="53.3074"><feDropShadow dx="0.0934309" dy="6.69124" flood-color="#000" flood-opacity="0.55" in="SourceGraphic" result="Shadow" stdDeviation="1.12398"/></filter></defs><g opacity="1" id="GreasyFork"><g opacity="1" id="Ears"><g opacity="1" id="Ear-Right"><g><path id="Ear-Right-Dark" shadowAngle="1.5708" shadowColor="#000" shadowOffset="0.407927" shadowOpacity="0.55" shadowRadius="4.46387" fill="#874300" filter="url(#F_GreasyFork)" stroke="#874300" stroke-linecap="butt" stroke-linejoin="round" stroke-width="0.5" d="M89.3438 27.75C87.1996 27.4381 84.9772 28.2317 82.9062 30.125C82.8142 30.2092 82.7165 30.2237 82.625 30.3125C82.2081 30.7175 81.7731 31.0124 81.375 31.5312L81.3438 31.5312C77.5708 36.4412 79.4238 45.7075 80.8438 51.5625C81.9137 55.9545 85.7615 64.5938 88.9375 62.9688C90.6134 62.1117 92.2014 61.0425 93.625 59.75C93.6356 59.7404 93.6457 59.7284 93.6562 59.7188C98.0906 55.6732 100.793 49.0639 98.5312 36.9688C97.7563 32.8119 93.8008 28.3983 89.3438 27.75Z"/></g><g><path id="Ear-Right-Light-fit" shadowAngle="1.5708" shadowColor="#000" shadowOffset="0.407927" shadowOpacity="0.55" shadowRadius="4.46387" fill="url(#RG_GreasyFork)" filter="url(#F_GreasyFork_2)" stroke="none" d="M87.0625 34.6562C86.6234 34.7411 86.1656 34.9004 85.6875 35.1875C85.6317 35.221 85.6151 35.4183 85.5625 35.4688C88.1186 40.9003 88.4746 45.166 89.1562 53.9375C89.8503 54.3783 90.4832 55.1446 91.125 55.8438C91.8937 54.614 92.6113 53.0898 92.9688 51.6562C93.5118 49.4763 94.429 44.526 93.125 40.625C92.2482 38.0009 90.1363 34.0626 87.0625 34.6562Z"/></g></g><g opacity="1" id="Ear-Left"><g><path id="Ear-Left-Dark" shadowAngle="1.5708" shadowColor="#000" shadowOffset="0.407927" shadowOpacity="0.55" shadowRadius="4.46387" fill="#874300" filter="url(#F_GreasyFork_3)" stroke="#874300" stroke-linecap="butt" stroke-linejoin="round" stroke-width="0.5" d="M11.5938 33.6875C5.73761 33.343 0.866751 39.4865 0.6875 44.5625C0.239381 57.2905 4.38653 63.3221 9.90625 66.5312C9.91869 66.5385 9.92505 66.5553 9.9375 66.5625C11.465 67.4461 13.077 68.2001 14.75 68.7188C18.303 69.8208 20.9015 60.6935 21.3125 56.1875C21.8605 50.1785 22.318 40.7277 17.625 36.4688C17.186 36.0703 16.7529 35.9011 16.3125 35.5938C16.2104 35.5225 16.102 35.5053 16 35.4375C14.506 34.4443 13.026 33.7718 11.5938 33.6875Z"/></g><g><path id="Ear-Left-light-fit" shadowAngle="1.5708" shadowColor="#000" shadowOffset="0.407927" shadowOpacity="0.55" shadowRadius="4.46387" fill="url(#RG_GreasyFork_2)" filter="url(#F_GreasyFork_4)" stroke="none" d="M12.625 40.4375C9.49634 40.3251 8.02363 44.5226 7.5625 47.25C6.8755 51.305 8.53325 56.057 9.40625 58.125C9.98242 59.4907 10.9538 60.9025 11.9062 62C12.4339 61.2076 12.9433 60.3565 13.5625 59.8125C12.8814 51.0358 12.5632 46.7649 14.25 41C14.1892 40.9571 14.1239 40.775 14.0625 40.75C13.5457 40.54 13.072 40.4536 12.625 40.4375Z"/></g></g></g><g opacity="1" id="Face-Hair"><g opacity="1" id="GreasyForkGroup-1"><g><path id="GreasyFork-1" shadowAngle="1.5708" shadowColor="#000" shadowOffset="0.407927" shadowOpacity="0.55" shadowRadius="4.46387" fill="#613000" filter="url(#F_GreasyFork_5)" stroke="none" d="M74.9375 0C63.3105 4.906 50.006 13.9457 41.75 23.5938C52.613 21.7487 58.4267 19.2942 68.2188 16.5312L74.9375 0Z"/></g><g><path id="Head-outer" shadowAngle="1.5708" shadowColor="#000" shadowOffset="0.407927" shadowOpacity="0.55" shadowRadius="4.46387" fill="#874300" filter="url(#F_GreasyFork_6)" stroke="none" d="M74.9375 0C28.7573 9.90285 19.6916 25.0312 16 35.4375C16.102 35.5053 16.2104 35.5225 16.3125 35.5938C15.866 36.6298 15.2629 37.7085 14.9062 38.6875C12.3072 45.8275 12.7905 49.8645 13.5625 59.8125C11.955 61.2248 10.7155 63.654 9.90625 66.5312C9.4039 68.3134 9.13699 70.3304 9.09375 72.4375C9.09275 72.6551 9.02641 72.8421 9.03125 73.0625C9.03439 73.5296 9.12478 74.0214 9.15625 74.5C9.30037 76.3093 9.5421 78.183 10.125 80.0938C11.467 84.4927 14.0151 88.2803 17.25 91.2812C20.4849 94.2823 24.4055 96.5045 28.5 97.6875C36.689 100.054 44.8595 100.42 54.6875 99.6562L54.6875 99.625C64.5145 98.862 72.4928 97.2583 80.2188 93.6562C82.15 92.7558 84.0099 91.6028 85.7188 90.25C90.8443 86.1898 94.688 80.2625 95.6562 73.4375C95.9315 71.5002 95.8766 69.6832 95.75 67.9062C95.705 67.3549 95.7049 66.78 95.625 66.25C95.5817 65.9377 95.4603 65.6799 95.4062 65.375C95.0175 63.3401 94.4685 61.4264 93.6875 59.7812C93.6772 59.7595 93.6666 59.7404 93.6562 59.7188C92.4279 57.1564 90.8916 55.0395 89.1562 53.9375C88.3832 43.9905 88.2013 39.9373 84.5312 33.2812C84.0102 32.3366 83.2204 31.3329 82.5938 30.3438C82.6043 30.3336 82.6145 30.3227 82.625 30.3125C82.7164 30.2237 82.8142 30.2092 82.9062 30.125C81.3137 27.117 79.299 24.165 77.7188 22.8125C80.3937 18.6015 82.165 15.4565 84 13.3125C84 13.3125 75.1038 14.9972 68.2188 16.5312C58.4267 19.2942 52.613 21.7487 41.75 23.5938C50.006 13.9457 63.3105 4.906 74.9375 0Z"/></g></g><g><path id="Face-light" shadowAngle="1.5708" shadowColor="#000" shadowOffset="0.407927" shadowOpacity="0.55" shadowRadius="4.46387" fill="url(#RG_GreasyFork_3)" filter="url(#F_GreasyFork_7)" stroke="none" d="M49.962 38.968C53.392 26.658 69.427 17.618 78.728 35.734C81.571 41.267 81.626 47.286 82.185 54.478C86.513 58.697 88.94 60.985 88.47 71C88.093 79.03 81.189 84.746 75.78 87.996C70.044 91.443 61.621 93.098 54.207 93.674C46.794 94.249 38.216 93.914 32.017 91.394C26.171 89.018 18.468 84.441 16.857 76.561C14.857 66.737 16.892 64.102 20.517 59.266C19.959 52.075 19.085 46.119 21.039 40.216C27.432 20.881 44.67 27.338 49.959 38.971"/></g></g><g><path id="Smile" shadowAngle="1.55683" shadowColor="#000" shadowOffset="0.0582742" shadowOpacity="0.55" shadowRadius="2.44755" fill="url(#RG_GreasyFork_4)" filter="url(#F_GreasyFork_8)" stroke="none" d="M52.42 76.1C48.438 76.41 44.43 76.787 40.445 76.53C37.345 76.33 34.138 76.002 31.3 74.739C29.78 74.062 28.694 71.816 28.007 70.992C27.407 69.921 26.162 69.442 25.94 70.152C25.345 72.056 25.478 74.352 26.404 76.12C27.386 77.994 29.292 79.392 31.227 80.248C33.922 81.44 36.939 81.831 39.875 82.078C44.195 82.441 48.56 82.404 52.885 82.068C57.208 81.733 61.525 81.096 65.739 80.07C68.601 79.373 71.522 78.52 74 76.927C75.78 75.782 77.448 74.107 78.129 72.103C78.77 70.213 78.548 67.925 77.666 66.135C77.336 65.468 76.181 66.134 75.753 67.285C75.201 68.205 74.475 70.592 73.078 71.495C70.47 73.181 67.351 74 64.319 74.676C60.421 75.546 56.404 75.791 52.422 76.101"/></g><g opacity="1" id="Eyes"><g opacity="1" id="LeftEye"><g><path id="Left-Eye-dark" shadowAngle="1.5708" shadowColor="#000" shadowOffset="0.43942" shadowOpacity="0.55" shadowRadius="0.916502" fill="url(#LG_GreasyFork)" filter="url(#F_GreasyFork_9)" stroke="none" d="M31.0323 56.6335C30.4528 49.1297 33.3181 45.6784 37.1648 45.3768C41.0104 45.0816 44.3821 48.0482 44.9605 55.5498C45.5401 63.0504 42.6747 66.505 38.828 66.8066C34.9824 67.1018 31.6108 64.1319 31.0323 56.6335"/></g><g><path id="Left-Eye-light" fill="url(#LG_GreasyFork_2)" opacity="1" stroke="none" d="M32.9713 53.7897C32.7634 51.1139 33.7512 49.957 34.823 49.8741C35.8948 49.7911 37.0496 50.7811 37.2575 53.4579C37.4654 56.138 36.4765 57.2874 35.4047 57.3746C34.3339 57.4608 33.1803 56.4698 32.9713 53.7897"/></g></g><g opacity="1" id="RightEye"><g><path id="Right-Eye-dark" shadowAngle="1.5708" shadowColor="#000" shadowOffset="0.43942" shadowOpacity="0.55" shadowRadius="0.916502" fill="url(#LG_GreasyFork_3)" filter="url(#F_GreasyFork_10)" stroke="none" d="M55.0411 54.6187C54.4627 47.116 57.327 43.6635 61.1736 43.3619C65.0192 43.0668 68.3909 46.0334 68.9693 53.5361C69.5489 61.0356 66.6835 64.4912 62.8379 64.7928C58.9912 65.088 55.6207 62.1171 55.0411 54.6187"/></g><g><path id="Right-Eye-light" fill="url(#LG_GreasyFork_4)" opacity="1" stroke="none" d="M56.9779 51.7695C56.77 49.0926 57.7589 47.9357 58.8307 47.8528C59.9015 47.7709 61.0562 48.7598 61.2641 51.4377C61.472 54.1167 60.4842 55.2661 59.4124 55.3533C58.3417 55.4406 57.1869 54.4495 56.9779 51.7695"/></g></g></g></g><g opacity="1" id="Monocle"><g><path id="GreasyFork-2" shadowAngle="1.55683" shadowColor="#000" shadowOffset="0.90958" shadowOpacity="0.55" shadowRadius="2.24795" fill="none" filter="url(#F_GreasyFork_11)" stroke="#1f212b" stroke-linecap="butt" stroke-linejoin="miter" stroke-width="2.24606" d="M68.8768 68.6725C76.794 65.6716 80.793 56.7897 77.7923 48.8732C74.7917 40.9566 65.9102 36.9568 57.993 39.9577C50.0759 42.9585 46.0769 51.8404 49.0775 59.757C52.0781 67.6735 60.9603 71.6731 68.8768 68.6725ZM58.4662 41.2061C65.6943 38.4665 73.804 42.1177 76.5439 49.3464C79.2838 56.575 75.6317 64.6844 68.4036 67.424C61.1756 70.1637 53.0659 66.5124 50.326 59.2838C47.5861 52.0551 51.2382 43.9458 58.4662 41.2061Z"/></g><g><path id="GreasyFork-2" fill="url(#LG_GreasyFork_5)" opacity="1" stroke="none" d="M64.0037 38.7279C61.9791 38.6512 59.905 38.9709 57.8913 39.7342C49.8363 42.7873 45.7813 51.8056 48.8344 59.8606C51.8875 67.9155 60.9058 71.9705 68.9608 68.9174C77.0157 65.8643 81.0707 56.846 78.0176 48.7911C75.7278 42.7498 70.0776 38.9579 64.0037 38.7279ZM63.8919 41.8959C68.7234 42.0789 73.2145 45.1037 75.0359 49.9092C77.4645 56.3166 74.25 63.4699 67.8426 65.8985C61.4353 68.3271 54.2447 65.1125 51.8161 58.7052C49.3875 52.2978 52.6393 45.1445 59.0467 42.7159C60.6485 42.1087 62.2814 41.8349 63.8919 41.8959Z"/></g><g><path id="GreasyFork-3" fill="url(#LG_GreasyFork_6)" opacity="0.454953" stroke="none" d="M59.0376 42.7135C65.445 40.2849 72.6079 43.5104 75.0365 49.9177C77.4651 56.3251 74.2397 63.4881 67.8323 65.9167C61.4249 68.3453 54.262 65.1198 51.8334 58.7124C49.4048 52.3051 52.6302 45.1421 59.0376 42.7135Z"/></g><g><path id="GreasyFork-6" fill="url(#LG_GreasyFork_7)" opacity="1" stroke="none" d="M59.0376 42.7135C65.445 40.2849 72.6079 43.5104 75.0365 49.9177C77.4651 56.3251 74.2397 63.4881 67.8323 65.9167C61.4249 68.3453 54.262 65.1198 51.8334 58.7124C49.4048 52.3051 52.6302 45.1421 59.0376 42.7135Z"/></g><g><path id="GreasyFork-4" shadowAngle="1.55683" shadowColor="#000" shadowOffset="0.223357" shadowOpacity="0.55" shadowRadius="0.524476" fill="#1f212b" filter="url(#F_GreasyFork_12)" stroke="none" d="M67.9579 66.2481C74.5377 63.7542 77.8619 56.3718 75.368 49.7921C72.8741 43.2123 65.4917 39.8881 58.9119 42.382C52.3322 44.876 49.008 52.2583 51.5019 58.8381C53.9958 65.4178 61.3782 68.7421 67.9579 66.2481ZM59.1632 43.045C65.3777 40.6895 72.3496 43.8289 74.705 50.0434C77.0605 56.2578 73.9211 63.2297 67.7067 65.5852C61.4922 67.9407 54.5203 64.8013 52.1648 58.5868C49.8094 52.3723 52.9488 45.4005 59.1632 43.045Z"/></g><g><path id="GreasyFork-3" fill="url(#LG_GreasyFork_8)" opacity="0" stroke="none" d="M61.923 43.7114C61.2925 43.752 60.8016 44.3108 60.8422 44.9413C60.8828 45.5719 61.4415 46.0255 62.0721 45.9849C67.3581 45.6446 71.9068 49.6813 72.2471 54.9673C72.2877 55.5978 72.8465 56.0514 73.4771 56.0108C74.1076 55.9702 74.5612 55.4487 74.5207 54.8182C74.0991 48.2711 68.4702 43.2899 61.923 43.7114Z"/></g><g><path id="GreasyFork-1" fill="none" opacity="1" stroke="#a6a6d1" stroke-linecap="butt" stroke-linejoin="miter" stroke-width="1.12088" d="M82.379 53.5343C82.8653 53.5343 83.2596 53.9286 83.2596 54.4149C83.2596 54.9013 82.8653 55.2956 82.379 55.2956C81.8926 55.2956 81.4983 54.9013 81.4983 54.4149C81.4983 53.9286 81.8926 53.5343 82.379 53.5343Z"/></g><g><path id="GreasyFork-3" fill="none" opacity="1" stroke="#1f212b" stroke-linecap="butt" stroke-linejoin="miter" stroke-width="0.46146" d="M82.379 53.015C81.6058 53.015 80.979 53.6418 80.979 54.4149C80.979 55.1881 81.6058 55.8149 82.379 55.8149C83.1522 55.8149 83.7789 55.1881 83.7789 54.4149C83.7789 53.6418 83.1522 53.015 82.379 53.015Z"/></g><g><path id="GreasyFork-2" fill="none" opacity="1" stroke="#1f212b" stroke-linecap="butt" stroke-linejoin="miter" stroke-width="1.12088" d="M82.379 51.773C80.9199 51.773 79.737 52.9558 79.737 54.4149C79.737 55.874 80.9199 57.0569 82.379 57.0569C83.8381 57.0569 85.0209 55.874 85.0209 54.4149C85.0209 52.9558 83.8381 51.773 82.379 51.773Z"/></g><g><path id="GreasyFork-4" shadowAngle="1.55683" shadowColor="#000" shadowOffset="6.69189" shadowOpacity="0.55" shadowRadius="2.24795" fill="#000" filter="url(#F_GreasyFork_13)" stroke="none" d="M86.8385 53.3074C86.2228 53.3074 85.7236 53.8065 85.7236 54.4223C85.7236 55.038 86.2228 55.5372 86.8385 55.5372C87.4542 55.5372 87.9534 55.038 87.9534 54.4223C87.9534 53.8065 87.4542 53.3074 86.8385 53.3074ZM86.8385 56.652C86.2228 56.652 85.7236 57.1512 85.7236 57.7669C85.7236 58.3826 86.2228 58.8818 86.8385 58.8818C87.4542 58.8818 87.9534 58.3826 87.9534 57.7669C87.9534 57.1512 87.4542 56.652 86.8385 56.652ZM86.8385 59.9967C86.2228 59.9967 85.7236 60.4958 85.7236 61.1116C85.7236 61.7273 86.2228 62.2264 86.8385 62.2264C87.4542 62.2264 87.9534 61.7273 87.9534 61.1116C87.9534 60.4958 87.4542 59.9967 86.8385 59.9967ZM86.8385 80.0645C86.2228 80.0645 85.7236 80.5637 85.7236 81.1794C85.7236 81.7951 86.2228 82.2943 86.8385 82.2943C87.4542 82.2943 87.9534 81.7951 87.9534 81.1794C87.9534 80.5637 87.4542 80.0645 86.8385 80.0645ZM86.8385 83.4092C86.2228 83.4092 85.7236 83.9083 85.7236 84.5241C85.7236 85.1398 86.2228 85.6389 86.8385 85.6389C87.4542 85.6389 87.9534 85.1398 87.9534 84.5241C87.9534 83.9083 87.4542 83.4092 86.8385 83.4092ZM86.8385 63.3413C86.2228 63.3413 85.7236 63.8405 85.7236 64.4562C85.7236 65.0719 86.2228 65.5711 86.8385 65.5711C87.4542 65.5711 87.9534 65.0719 87.9534 64.4562C87.9534 63.8405 87.4542 63.3413 86.8385 63.3413ZM86.8385 66.686C86.2228 66.686 85.7236 67.1851 85.7236 67.8008C85.7236 68.4166 86.2228 68.9157 86.8385 68.9157C87.4542 68.9157 87.9534 68.4166 87.9534 67.8008C87.9534 67.1851 87.4542 66.686 86.8385 66.686ZM86.8385 70.0306C86.2228 70.0306 85.7236 70.5298 85.7236 71.1455C85.7236 71.7612 86.2228 72.2604 86.8385 72.2604C87.4542 72.2604 87.9534 71.7612 87.9534 71.1455C87.9534 70.5298 87.4542 70.0306 86.8385 70.0306ZM86.8385 73.3752C86.2228 73.3752 85.7236 73.8744 85.7236 74.4901C85.7236 75.1059 86.2228 75.605 86.8385 75.605C87.4542 75.605 87.9534 75.1059 87.9534 74.4901C87.9534 73.8744 87.4542 73.3752 86.8385 73.3752ZM86.8385 76.7199C86.2228 76.7199 85.7236 77.219 85.7236 77.8348C85.7236 78.4505 86.2228 78.9497 86.8385 78.9497C87.4542 78.9497 87.9534 78.4505 87.9534 77.8348C87.9534 77.219 87.4542 76.7199 86.8385 76.7199ZM86.8708 93.4738C86.2729 93.4738 85.7882 93.973 85.7882 94.5887C85.7882 95.2044 86.2729 95.7036 86.8708 95.7036C87.4687 95.7036 87.9534 95.2044 87.9534 94.5887C87.9534 93.973 87.4687 93.4738 86.8708 93.4738ZM86.8708 96.8185C86.2729 96.8185 85.7882 97.3176 85.7882 97.9334C85.7882 98.5491 86.2729 99.0482 86.8708 99.0482C87.4687 99.0482 87.9534 98.5491 87.9534 97.9334C87.9534 97.3176 87.4687 96.8185 86.8708 96.8185ZM86.8708 86.7845C86.2729 86.7845 85.7882 87.2837 85.7882 87.8994C85.7882 88.5152 86.2729 89.0143 86.8708 89.0143C87.4687 89.0143 87.9534 88.5152 87.9534 87.8994C87.9534 87.2837 87.4687 86.7845 86.8708 86.7845ZM86.8708 90.1292C86.2729 90.1292 85.7882 90.6283 85.7882 91.2441C85.7882 91.8598 86.2729 92.359 86.8708 92.359C87.4687 92.359 87.9534 91.8598 87.9534 91.2441C87.9534 90.6283 87.4687 90.1292 86.8708 90.1292Z"/></g></g></svg>