<svg width="100%" height="100%" viewBox="0 0 100 100" xml:space="preserve" xmlns="http://www.w3.org/2000/svg" xmlns:xlink="http://www.w3.org/1999/xlink" fill="currentColor"><defs><filter color-interpolation-filters="sRGB" filterUnits="userSpaceOnUse" height="42.9167" id="Filter_zxcv" width="107.5" x="-4.14004" y="13.3766"><feDropShadow dx="-0.390038" dy="0.459895" flood-color="#000000" flood-opacity="0.5" in="SourceGraphic" result="Shadow" stdDeviation="1.5"></feDropShadow></filter><filter color-interpolation-filters="sRGB" filterUnits="userSpaceOnUse" height="42.9167" id="Filter_zxcv_2" width="107.5" x="-4.14004" y="13.3766"><feDropShadow dx="-0.390038" dy="0.459895" flood-color="#000000" flood-opacity="0.5" in="SourceGraphic" result="Shadow" stdDeviation="1.5"></feDropShadow></filter><filter color-interpolation-filters="sRGB" filterUnits="userSpaceOnUse" height="51.25" id="Filter_zxcv_3" width="70" x="14.61" y="30.0432"><feDropShadow dx="-0.390038" dy="0.459895" flood-color="#000000" flood-opacity="0.5" in="SourceGraphic" result="Shadow" stdDeviation="1.5"></feDropShadow></filter><filter color-interpolation-filters="sRGB" filterUnits="userSpaceOnUse" height="32.5099" id="Filter_zxcv_4" width="45" x="27.11" y="55.0334"><feDropShadow dx="-0.390038" dy="0.459895" flood-color="#000000" flood-opacity="0.5" in="SourceGraphic" result="Shadow" stdDeviation="1.5"></feDropShadow></filter><filter color-interpolation-filters="sRGB" filterUnits="userSpaceOnUse" height="34.5833" id="Filter_zxcv_5" width="65.8369" x="16.6897" y="32.1266"><feDropShadow dx="-0.390038" dy="0.459895" flood-color="#000000" flood-opacity="0.5" in="SourceGraphic" result="Shadow" stdDeviation="1.5"></feDropShadow></filter><filter color-interpolation-filters="sRGB" filterUnits="userSpaceOnUse" height="15.8467" id="Filter_zxcv_6" width="49.1667" x="25.0266" y="42.5432"><feDropShadow dx="-0.390038" dy="0.459895" flood-color="#000000" flood-opacity="0.5" in="SourceGraphic" result="Shadow" stdDeviation="1.5"></feDropShadow></filter><filter color-interpolation-filters="sRGB" filterUnits="userSpaceOnUse" height="15.8333" id="Filter_zxcv_7" width="36.6667" x="31.2766" y="42.5432"><feDropShadow dx="-0.390038" dy="0.459895" flood-color="#000000" flood-opacity="0.5" in="SourceGraphic" result="Shadow" stdDeviation="1.5"></feDropShadow></filter><filter color-interpolation-filters="sRGB" filterUnits="userSpaceOnUse" height="22.0855" id="Filter_zxcv_8" width="40.8333" x="29.1933" y="59.2099"><feDropShadow dx="-0.390038" dy="0.459895" flood-color="#000000" flood-opacity="0.5" in="SourceGraphic" result="Shadow" stdDeviation="1.5"></feDropShadow></filter><filter color-interpolation-filters="sRGB" filterUnits="userSpaceOnUse" height="19.1667" id="Filter_zxcv_9" width="35.8333" x="31.6933" y="60.0432"><feDropShadow dx="-0.390038" dy="0.459895" flood-color="#000000" flood-opacity="0.5" in="SourceGraphic" result="Shadow" stdDeviation="1.5"></feDropShadow></filter><filter color-interpolation-filters="sRGB" filterUnits="userSpaceOnUse" height="26.25" id="Filter_zxcv_10" width="24.1667" x="37.5266" y="21.7099"><feDropShadow dx="-0.390038" dy="0.459895" flood-color="#000000" flood-opacity="0.5" in="SourceGraphic" result="Shadow" stdDeviation="1.5"></feDropShadow></filter></defs><g opacity="1" id="Gremlin"><path id="zxcv-5" shadowangle="2.27419" shadowcolor="#000000" shadowoffset="0.60302" shadowopacity="0.5" shadowradius="3" d="M79.1667 52.0833C103.333 52.0833 94.375 29.5833 93.75 27.0833C93.125 24.5833 92.0833 21.25 100 16.6667C72.9167 16.6667 66.6667 37.5 66.6667 37.5L79.1667 52.0833ZM20.8333 52.0833C-2.70833 52.0833 5.625 29.5833 6.25 27.0833C6.875 24.5833 7.91667 21.25 0 16.6667C27.0833 16.6667 33.3333 37.5 33.3333 37.5L20.8333 52.0833Z" fill="#afb42b" filter="url(#Filter_zxcv)"></path><path id="zxcv-6" shadowangle="2.27419" shadowcolor="#000000" shadowoffset="0.60302" shadowopacity="0.5" shadowradius="3" d="M79.1667 52.0833C76.4583 46.4583 73.9583 37.9167 75 35.4167C76.6667 32.0833 88.5417 20.2083 100 16.6667C72.9167 16.6667 66.6667 37.5 66.6667 37.5L79.1667 52.0833ZM20.8333 52.0833C23.5417 46.4583 26.0417 37.9167 25 35.4167C23.3333 32.0833 11.4583 20.2083 0 16.6667C27.0833 16.6667 33.3333 37.5 33.3333 37.5L20.8333 52.0833Z" fill="#9e9d24" filter="url(#Filter_zxcv_2)"></path><path id="zxcv-7" shadowangle="2.27419" shadowcolor="#000000" shadowoffset="0.60302" shadowopacity="0.5" shadowradius="3" d="M20.8333 43.75C21.4583 38.3333 25.8333 33.3333 34.375 33.3333L50 33.3333L65.625 33.3333C74.1667 33.3333 78.75 38.3333 79.1667 43.75C79.5833 49.1667 81.25 60.4167 81.25 60.4167C81.25 73.125 68.75 75 68.75 75C68.75 75 62.5 77.0833 50 77.0833C37.5 77.0833 31.25 75 31.25 75C31.25 75 18.75 73.125 18.75 60.4167C18.75 60.4167 20.2083 49.1667 20.8333 43.75Z" fill="#827717" filter="url(#Filter_zxcv_3)"></path><path id="zxcv-8" shadowangle="2.27419" shadowcolor="#000000" shadowoffset="0.60302" shadowopacity="0.5" shadowradius="3" d="M31.25 62.5C31.25 67.0833 41.875 83.3333 50 83.3333C58.125 83.3333 68.75 67.0833 68.75 62.5C68.75 57.9167 58.125 58.3333 50 58.3333C41.875 58.3333 31.25 57.9167 31.25 62.5Z" fill="#9e9d24" filter="url(#Filter_zxcv_4)"></path><path id="zxcv-9" shadowangle="2.27419" shadowcolor="#000000" shadowoffset="0.60302" shadowopacity="0.5" shadowradius="3" d="M54.1667 52.0833C54.1667 52.0833 61.25 58.75 71.0417 55.2083C78.9583 52.2917 79.1667 45.8333 79.1667 45.8333L79.1667 35.4167C79.1667 35.4167 54.1667 37.7083 54.1667 52.0833ZM20.8333 45.8333L20.8333 35.4167C20.8333 35.4167 45.8333 37.5 45.8333 52.0833C45.8333 52.0833 38.5417 58.75 28.5417 55.2083C20.4167 52.2917 20.8333 45.8333 20.8333 45.8333ZM50 54.1667C53.5417 54.1667 56.25 56.0417 56.25 58.3333C56.25 60.625 53.5417 62.5 50 62.5C46.4583 62.5 43.75 60.625 43.75 58.3333C43.75 56.0417 46.4583 54.1667 50 54.1667Z" fill="#665b0e" filter="url(#Filter_zxcv_5)"></path><path id="zxcv-10" shadowangle="2.27419" shadowcolor="#000000" shadowoffset="0.60302" shadowopacity="0.5" shadowradius="3" d="M54.1667 52.0833C54.1667 52.0833 57.9167 54.375 62.5 54.1667C69.5833 53.9583 70.8333 45.8333 70.8333 45.8333C70.8333 45.8333 67.0833 45.8333 62.5 45.8333C57.9167 45.8333 54.1667 52.0833 54.1667 52.0833ZM45.8333 52.0833C45.8333 52.0833 42.0833 54.375 37.5 54.1667C30.4167 53.9583 29.1667 45.8333 29.1667 45.8333C29.1667 45.8333 32.9167 45.8333 37.5 45.8333C42.0833 45.8333 45.8333 52.0833 45.8333 52.0833Z" fill="#ffea00" filter="url(#Filter_zxcv_6)"></path><path id="zxcv-11" shadowangle="2.27419" shadowcolor="#000000" shadowoffset="0.60302" shadowopacity="0.5" shadowradius="3" d="M62.5 45.8333C62.5 45.8333 60.4167 47.7083 60.4167 50C60.4167 52.2917 62.5 54.1667 62.5 54.1667C62.5 54.1667 64.5833 52.2917 64.5833 50C64.5833 47.7083 62.5 45.8333 62.5 45.8333ZM37.5 45.8333C37.5 45.8333 39.5833 47.7083 39.5833 50C39.5833 52.2917 37.5 54.1667 37.5 54.1667C37.5 54.1667 35.4167 52.2917 35.4167 50C35.4167 47.7083 37.5 45.8333 37.5 45.8333Z" fill="#4e342e" filter="url(#Filter_zxcv_7)"></path><path id="zxcv-12" shadowangle="2.27419" shadowcolor="#000000" shadowoffset="0.60302" shadowopacity="0.5" shadowradius="3" d="M66.6667 62.5C66.6667 62.5 56.0417 66.6667 50 66.6667C43.9583 66.6667 33.3333 62.5 33.3333 62.5C33.3333 62.5 38.3333 77.2917 50 77.0833C61.6667 76.875 66.6667 62.5 66.6667 62.5Z" fill="#ff3d00" filter="url(#Filter_zxcv_8)"></path><path id="zxcv-13" shadowangle="2.27419" shadowcolor="#000000" shadowoffset="0.60302" shadowopacity="0.5" shadowradius="3" d="M47.9167 75L50 66.6667C45.8333 66.6667 39.375 64.5833 35.8333 63.3333L39.5833 70.8333L40.8333 65.625L43.75 72.9167L45 67.7083L47.9167 75ZM60.4167 70.8333L59.1667 65.625L56.25 72.9167L55 67.7083L52.0833 75L50 66.6667C54.1667 66.6667 60.625 64.5833 64.1667 63.3333L60.4167 70.8333Z" fill="#ffffff" filter="url(#Filter_zxcv_9)"></path><path id="zxcv-14" shadowangle="2.27419" shadowcolor="#000000" shadowoffset="0.60302" shadowopacity="0.5" shadowradius="3" fill="#cfd8dc" filter="url(#Filter_zxcv_10)" d="M50 43.75L41.6667 33.3333C41.6667 33.3333 44.375 25 50 25C55.625 25 58.3333 33.3333 58.3333 33.3333L50 43.75Z"></path></g></svg>
