<svg width="100%" height="100%" viewBox="0 0 100 100" xml:space="preserve" xmlns="http://www.w3.org/2000/svg" xmlns:vectornator="http://vectornator.io" xmlns:xlink="http://www.w3.org/1999/xlink">
<defs>
<filter color-interpolation-filters="sRGB" filterUnits="userSpaceOnUse" height="40" id="Filter" width="42.5" x="28.36" y="64.2099">
<feDropShadow dx="-0.390038" dy="0.459895" flood-color="#000000" flood-opacity="0.5" in="SourceGraphic" result="Shadow" stdDeviation="1.5"/>
</filter>
<filter color-interpolation-filters="sRGB" filterUnits="userSpaceOnUse" height="37.5" id="Filter_2" width="32.5" x="33.36" y="49.2099">
<feDropShadow dx="-0.390038" dy="0.459895" flood-color="#000000" flood-opacity="0.5" in="SourceGraphic" result="Shadow" stdDeviation="1.5"/>
</filter>
<filter color-interpolation-filters="sRGB" filterUnits="userSpaceOnUse" height="17.5" id="Filter_3" width="62.5" x="18.36" y="29.2099">
<feDropShadow dx="-0.390038" dy="0.459895" flood-color="#000000" flood-opacity="0.5" in="SourceGraphic" result="Shadow" stdDeviation="1.5"/>
</filter>
<filter color-interpolation-filters="sRGB" filterUnits="userSpaceOnUse" height="59.4473" id="Filter_4" width="52.5" x="23.36" y="7.26263">
<feDropShadow dx="-0.390038" dy="0.459895" flood-color="#000000" flood-opacity="0.5" in="SourceGraphic" result="Shadow" stdDeviation="1.5"/>
</filter>
<filter color-interpolation-filters="sRGB" filterUnits="userSpaceOnUse" height="12.5" id="Filter_5" width="32.5" x="33.36" y="31.7099">
<feDropShadow dx="-0.390038" dy="0.459895" flood-color="#000000" flood-opacity="0.5" in="SourceGraphic" result="Shadow" stdDeviation="1.5"/>
</filter>
<filter color-interpolation-filters="sRGB" filterUnits="userSpaceOnUse" height="32.5" id="Filter_6" width="32.5" x="33.36" y="64.2099">
<feDropShadow dx="-0.390038" dy="0.459895" flood-color="#000000" flood-opacity="0.5" in="SourceGraphic" result="Shadow" stdDeviation="1.5"/>
</filter>
<filter color-interpolation-filters="sRGB" filterUnits="userSpaceOnUse" height="32.5" id="Filter_7" width="17.5" x="40.86" y="66.7099">
<feDropShadow dx="-0.390038" dy="0.459895" flood-color="#000000" flood-opacity="0.5" in="SourceGraphic" result="Shadow" stdDeviation="1.5"/>
</filter>
<filter color-interpolation-filters="sRGB" filterUnits="userSpaceOnUse" height="40" id="Filter_8" width="87.5" x="5.85996" y="64.2099">
<feDropShadow dx="-0.390038" dy="0.459895" flood-color="#000000" flood-opacity="0.5" in="SourceGraphic" result="Shadow" stdDeviation="1.5"/>
</filter>
<filter color-interpolation-filters="sRGB" filterUnits="userSpaceOnUse" height="38.8725" id="Filter_9" width="32.5" x="33.36" y="64.2099">
<feDropShadow dx="-0.390038" dy="0.459895" flood-color="#000000" flood-opacity="0.5" in="SourceGraphic" result="Shadow" stdDeviation="1.5"/>
</filter>
<filter color-interpolation-filters="sRGB" filterUnits="userSpaceOnUse" height="7.505" id="Filter_10" width="7.5025" x="45.86" y="94.2049">
<feDropShadow dx="-0.390038" dy="0.459895" flood-color="#000000" flood-opacity="0.5" in="SourceGraphic" result="Shadow" stdDeviation="1.5"/>
</filter>
<filter color-interpolation-filters="sRGB" filterUnits="userSpaceOnUse" height="22.5" id="Filter_11" width="42.5" x="28.3625" y="29.2099">
<feDropShadow dx="-0.390038" dy="0.459895" flood-color="#000000" flood-opacity="0.5" in="SourceGraphic" result="Shadow" stdDeviation="1.5"/>
</filter>
<filter color-interpolation-filters="sRGB" filterUnits="userSpaceOnUse" height="20" id="Filter_12" width="15" x="50.86" y="14.2099">
<feDropShadow dx="-0.390038" dy="0.459895" flood-color="#000000" flood-opacity="0.5" in="SourceGraphic" result="Shadow" stdDeviation="1.5"/>
</filter>
<filter color-interpolation-filters="sRGB" filterUnits="userSpaceOnUse" height="45" id="Filter_13" width="57.5" x="20.86" y="-3.2901">
<feDropShadow dx="-0.390038" dy="0.459895" flood-color="#000000" flood-opacity="0.5" in="SourceGraphic" result="Shadow" stdDeviation="1.5"/>
</filter>
</defs>
<g opacity="1" layerName="Group 9">
<path d="M37.5 67.5L62.5 67.5L67.5 100L32.5 100L37.5 67.5Z" fill="#78909c" filter="url(#Filter)" layerName="path 3" shadowAngle="2.27419" shadowColor="#000000" shadowOffset="0.60302" shadowOpacity="0.5" shadowRadius="3"/>
<path d="M50 82.5L62.5 67.5L62.5 52.5L37.5 52.5L37.5 67.5L50 82.5Z" fill="#ff9800" filter="url(#Filter_2)" layerName="path 4" shadowAngle="2.27419" shadowColor="#000000" shadowOffset="0.60302" shadowOpacity="0.5" shadowRadius="3"/>
<path d="M22.5 37.5C22.5 40.2625 24.74 42.5 27.5 42.5C30.265 42.5 32.5 40.2625 32.5 37.5C32.5 34.7375 30.265 32.5 27.5 32.5C24.74 32.5 22.5 34.7375 22.5 37.5M67.5 37.5C67.5 34.7375 69.74 32.5 72.5 32.5C75.265 32.5 77.5 34.7375 77.5 37.5C77.5 40.2625 75.265 42.5 72.5 42.5C69.74 42.5 67.5 40.2625 67.5 37.5" fill="#ffa726" filter="url(#Filter_3)" layerName="path 5" shadowAngle="2.27419" shadowColor="#000000" shadowOffset="0.60302" shadowOpacity="0.5" shadowRadius="3"/>
<path d="M27.5 22.5C27.5 3.4125 72.5 10.0725 72.5 22.5L72.5 40C72.5 52.4275 62.43 62.5 50 62.5C37.5725 62.5 27.5 52.4275 27.5 40L27.5 22.5Z" fill="#ffb74d" filter="url(#Filter_4)" layerName="path 6" shadowAngle="2.27419" shadowColor="#000000" shadowOffset="0.60302" shadowOpacity="0.5" shadowRadius="3"/>
<path d="M42.5 37.5C42.5 36.1225 41.38 35 40 35C38.62 35 37.5 36.1225 37.5 37.5C37.5 38.8775 38.62 40 40 40C41.38 40 42.5 38.8775 42.5 37.5M62.5 37.5C62.5 38.8775 61.38 40 60 40C58.62 40 57.5 38.8775 57.5 37.5C57.5 36.1225 58.62 35 60 35C61.38 35 62.5 36.1225 62.5 37.5" fill="#784719" filter="url(#Filter_5)" layerName="path 7" shadowAngle="2.27419" shadowColor="#000000" shadowOffset="0.60302" shadowOpacity="0.5" shadowRadius="3"/>
<path d="M50 92.5C62.5 82.5 62.5 67.5 62.5 67.5L50 70L37.5 67.5C37.5 67.5 37.7075 82.9175 50 92.5Z" fill="#ffffff" filter="url(#Filter_6)" layerName="path 8" shadowAngle="2.27419" shadowColor="#000000" shadowOffset="0.60302" shadowOpacity="0.5" shadowRadius="3"/>
<path d="M52.5 77.5L54.1675 88.6625L50 95L45.8325 88.6625L47.5 77.5L45 75L50 70L55 75L52.5 77.5Z" fill="#d32f2f" filter="url(#Filter_7)" layerName="path 9" shadowAngle="2.27419" shadowColor="#000000" shadowOffset="0.60302" shadowOpacity="0.5" shadowRadius="3"/>
<path d="M90 100L62.5 100L62.5 67.5C62.5 67.5 90 72.465 90 100ZM37.5 67.5L37.5 100L10 100C10 72.5625 37.5 67.5 37.5 67.5Z" fill="#37474f" filter="url(#Filter_8)" layerName="path 10" shadowAngle="2.27419" shadowColor="#000000" shadowOffset="0.60302" shadowOpacity="0.5" shadowRadius="3"/>
<path d="M37.5 67.5C37.5 67.5 37.7075 82.9175 50 92.5C62.5 82.5 62.5 67.5 62.5 67.5L62.5 85.245C60.39 89.0675 57.4025 92.9825 53.1225 96.405L50.04 98.8725L46.925 96.445C42.625 93.0925 39.6175 89.1525 37.5 85.275L37.5 67.5Z" fill="#ffc107" filter="url(#Filter_9)" layerName="path 11" shadowAngle="2.27419" shadowColor="#000000" shadowOffset="0.60302" shadowOpacity="0.5" shadowRadius="3"/>
<path d="M50 97.5L50.0025 97.495" fill="#37474f" filter="url(#Filter_10)" layerName="path 12" shadowAngle="2.27419" shadowColor="#000000" shadowOffset="0.60302" shadowOpacity="0.5" shadowRadius="3"/>
<path d="M40 32.5C43.255 32.5 46.0025 34.5975 47.04 37.5L52.9625 37.5C53.9975 34.5975 56.7475 32.5 60.0025 32.5C64.1375 32.5 67.5025 35.865 67.5025 40C67.5025 44.135 64.1375 47.5 60.0025 47.5C55.8675 47.5 52.5025 44.135 52.5025 40L47.5025 40C47.5025 44.135 44.1375 47.5 40.0025 47.5C35.8675 47.5 32.5025 44.135 32.5025 40C32.5 35.865 35.865 32.5 40 32.5ZM60 45C62.76 45 65 42.755 65 40C65 37.245 62.76 35 60 35C57.24 35 55 37.245 55 40C55 42.755 57.24 45 60 45ZM40 45C42.76 45 45 42.755 45 40C45 37.245 42.76 35 40 35C37.24 35 35 37.245 35 40C35 42.755 37.24 45 40 45Z" fill="#455a64" filter="url(#Filter_11)" layerName="path 13" shadowAngle="2.27419" shadowColor="#000000" shadowOffset="0.60302" shadowOpacity="0.5" shadowRadius="3"/>
<path d="M60 30L62.5 30L62.5 20.4775L57.5 22.9775L57.5 17.5L55 17.5L55 27.0225L60 24.5225L60 30Z" fill="#f57f17" filter="url(#Filter_12)" layerName="path 14" shadowAngle="2.27419" shadowColor="#000000" shadowOffset="0.60302" shadowOpacity="0.5" shadowRadius="3"/>
<path d="M50-7.10543e-15C34.8125-7.10543e-15 25 12.315 25 27.5L25 33.2125L30 37.5L30 25L60 15L70 25L70 37.5L75 33.145L75 27.5C75 17.4375 72.405 7.46 60 5L57.5-7.10543e-15L50-7.10543e-15Z" fill="#424242" filter="url(#Filter_13)" layerName="path 15" shadowAngle="2.27419" shadowColor="#000000" shadowOffset="0.60302" shadowOpacity="0.5" shadowRadius="3"/>
</g>
</svg>