<svg xmlns="http://www.w3.org/2000/svg" xmlns:vectornator="http://vectornator.io" xmlns:xlink="http://www.w3.org/1999/xlink" width="100%" height="100%" stroke-miterlimit="10" version="1.1" viewBox="0 0 100 100" xml:space="preserve" style="fill-rule:nonzero;clip-rule:evenodd;stroke-linecap:round;stroke-linejoin:round"><defs><filter id="Filter_HighlighterOne" width="90.039" height="93.647" x="12.485" y="-1.823" color-interpolation-filters="sRGB" filterUnits="userSpaceOnUse"><feDropShadow dx="0" dy="0" flood-color="#000" flood-opacity=".5" in="SourceGraphic" result="Shadow" stdDeviation="1.087"/></filter><filter id="Filter_HighlighterOne_2" width="39.419" height="32.65" x="-1.039" y="69.434" color-interpolation-filters="sRGB" filterUnits="userSpaceOnUse"><feDropShadow dx="-.775" dy="1.095" flood-color="#000" flood-opacity=".5" in="SourceGraphic" result="Shadow" stdDeviation="1.087"/></filter><filter id="Filter_HighlighterOne_3" width="24.417" height="21.083" x="14.205" y="69.157" color-interpolation-filters="sRGB" filterUnits="userSpaceOnUse"><feDropShadow dx="-.628" dy=".887" flood-color="#000" flood-opacity=".5" in="SourceGraphic" result="Shadow" stdDeviation=".543"/></filter><filter id="Filter_HighlighterOne_4" width="51.973" height="48.61" x="32.385" y="19.193" color-interpolation-filters="sRGB" filterUnits="userSpaceOnUse"><feDropShadow dx="0" dy="0" flood-color="#000" flood-opacity=".5" in="SourceGraphic" result="Shadow" stdDeviation="1.113"/></filter></defs><g id="Highlighter" opacity="1"><path fill="#ebebeb" fill-rule="nonzero" stroke="#dfdfdf" stroke-linecap="butt" stroke-linejoin="miter" stroke-width="1.087" d="M62.1335 1.65487L34.1605 33.3746L25.2908 60.0604L15.9794 70.3181L37.0013 88.3513L46.3128 78.0936L71.1998 65.3844L99.0386 33.3131L62.1335 1.65487Z" filter="url(#Filter_HighlighterOne)" shadowAngle="2.187" shadowColor="#000000" shadowOffset="0" shadowOpacity=".5" shadowRadius="2.173"/><path fill="#e8ff00" fill-rule="nonzero" stroke="none" d="M26.3521 98.2723L2.45274 88.718L17.7843 71.0555L36.4386 86.6522L26.3521 98.2723Z" filter="url(#Filter_HighlighterOne_2)" shadowAngle="2.187" shadowColor="#000000" shadowOffset="1.341" shadowOpacity=".5" shadowRadius="2.173"/><path fill="none" stroke="#dfdfdf" stroke-linecap="butt" stroke-linejoin="miter" stroke-width="1.087" d="M16.7348 70.1716L37.3488 87.4515" filter="url(#Filter_HighlighterOne_3)" shadowAngle="2.187" shadowColor="#000000" shadowOffset="1.087" shadowOpacity=".5" shadowRadius="1.087"/><path fill="none" stroke="#dfdfdf" stroke-linecap="butt" stroke-linejoin="miter" stroke-width="1.087" d="M62.1335 1.65487L34.2946 33.7262L25.2908 60.0604L15.9794 70.3181L37.0013 88.3513L46.3128 78.0936L71.1998 65.3844L99.0386 33.3131L62.1335 1.65487Z" opacity="1"/><path fill="#c8dc00" fill-rule="nonzero" stroke="none" d="M35.1668 33.7456L45.6206 21.9746L81.5767 52.9746L70.9802 65.022L35.1668 33.7456Z" filter="url(#Filter_HighlighterOne_4)" shadowAngle="1.934" shadowColor="#000000" shadowOffset="0" shadowOpacity=".5" shadowRadius="2.225"/><path fill="#c8dc00" fill-rule="nonzero" stroke="none" d="M33.9883 32.7238L44.4421 20.9528L82.206 53.558L71.6095 65.6054L33.9883 32.7238Z" opacity="1"/></g></svg>