<svg width="100%" height="100%" viewBox="0 0 100 100" xmlns="http://www.w3.org/2000/svg" xml:space="preserve" stroke-linecap="round" stroke-linejoin="round" stroke-miterlimit="10" clip-rule="evenodd"><defs><linearGradient id="b" x1="0" x2="1" y1="0" y2="0" gradientTransform="matrix(.13 -154.18 139.09 -.08 61.515 175.969)" gradientUnits="userSpaceOnUse"><stop offset="0" stop-color="#ff00fd"/><stop offset=".83" stop-color="#cc00cb"/><stop offset=".927" stop-color="#bf00be"/><stop offset="1" stop-color="#af00ae"/></linearGradient><linearGradient id="d" x1="0" x2="1" y1="0" y2="0" gradientTransform="matrix(138.51 -90.1 -95.45 -150.62 -49.464 127.949)" gradientUnits="userSpaceOnUse"><stop offset=".145" stop-color="#fff"/><stop offset=".494" stop-color="#fff"/><stop offset=".842" stop-color="#bebebe"/><stop offset="1" stop-color="#a9a9a9"/></linearGradient><linearGradient id="f" x1="0" x2="1" y1="0" y2="0" gradientTransform="scale(96.53) rotate(-52.119 .875 -.044)" gradientUnits="userSpaceOnUse"><stop offset="0" stop-color="#ffea00"/><stop offset=".206" stop-color="#ffea00"/><stop offset=".635" stop-color="#beae00"/><stop offset="1" stop-color="#a99b00"/></linearGradient><linearGradient id="h" x1="0" x2="1" y1="0" y2="0" gradientTransform="matrix(70.54 -31.24 41.93 52.55 17.161 82.487)" gradientUnits="userSpaceOnUse"><stop offset=".145" stop-color="#fff"/><stop offset=".494" stop-color="#fff"/><stop offset=".842" stop-color="#bebebe"/><stop offset="1" stop-color="#a9a9a9"/></linearGradient><linearGradient id="j" x1="0" x2="1" y1="0" y2="0" gradientTransform="matrix(45.25 -31.73 48.54 29.58 -5.224 85.016)" gradientUnits="userSpaceOnUse"><stop offset=".145" stop-color="#fff"/><stop offset=".494" stop-color="#fff"/><stop offset=".842" stop-color="#bebebe"/><stop offset="1" stop-color="#a9a9a9"/></linearGradient><filter id="c" width="109.884" height="90.111" x="-4.76" y="14.782" color-interpolation-filters="sRGB" filterUnits="userSpaceOnUse"><feDropShadow dx="0" dy="0" flood-color="#000" flood-opacity=".55" in="SourceGraphic" result="Shadow" stdDeviation="3"/></filter><filter id="e" width="113.319" height="93.024" x="-6.659" y="13.297" color-interpolation-filters="sRGB" filterUnits="userSpaceOnUse"><feDropShadow dx="0" dy="0" flood-color="#000" flood-opacity=".55" in="SourceGraphic" result="Shadow" stdDeviation="2.901"/></filter><filter id="g" width="55.575" height="55.575" x="45.136" y="-3.121" color-interpolation-filters="sRGB" filterUnits="userSpaceOnUse"><feDropShadow dx=".648" dy="-.219" flood-color="#000" flood-opacity=".333" in="SourceGraphic" result="Shadow" stdDeviation="1.534"/></filter><filter id="i" width="62.419" height="42.908" x="32.015" y="42.1" color-interpolation-filters="sRGB" filterUnits="userSpaceOnUse"><feDropShadow dx=".627" dy="-.212" flood-color="#000" flood-opacity=".333" in="SourceGraphic" result="Shadow" stdDeviation="1.484"/></filter><filter id="k" width="55.421" height="34.592" x="6.212" y="50.415" color-interpolation-filters="sRGB" filterUnits="userSpaceOnUse"><feDropShadow dx=".627" dy="-.212" flood-color="#000" flood-opacity=".333" in="SourceGraphic" result="Shadow" stdDeviation="1.484"/></filter></defs><g id="Add Pink Photo"><g id="Add-PinkPhoto"><g id="Picture"><path id="Pink-Photo" shadowAngle="5.958" shadowColor="#000000" shadowOffset="0" shadowOpacity=".55" shadowRadius="6" fill="url(#b)" stroke="#fff" stroke-linecap="butt" stroke-width="-13.588" d="M9.482 22.282c-3.724 0-6.742 3.086-6.742 6.892v61.327c0 3.806 3.018 6.892 6.742 6.892h81.4c3.723 0 6.741-3.086 6.741-6.892V48H67.63V22.282H9.482Z" filter="url(#c)"/><path id="Outline" shadowAngle="5.958" shadowColor="#000" shadowOffset="0" shadowOpacity=".55" shadowRadius="5.803" fill="url(#d)" d="M68.094 20.55a2.465 2.465 0 0 1 2.469 2.466l-.003 22.357h26.377a2.465 2.465 0 0 1 2.47 2.467v48.73c0 1.373-1.112 2.498-2.47 2.498H3.064c-1.358 0-2.47-1.125-2.47-2.499V23.016a2.465 2.465 0 0 1 2.47-2.466h65.03Zm-.844 2.498H9.75c-3.68 0-6.656 3.01-6.656 6.736v60.018c0 3.725 2.975 6.736 6.656 6.736h80.5c3.68 0 6.656-3.011 6.656-6.736V48.22H67.25V23.048Z" filter="url(#e)"/><path id="Plus" shadowAngle="5.958" shadowColor="#000" shadowOffset=".684" shadowOpacity=".333" shadowRadius="3.068" fill="url(#f)" d="M78.475 20.095V.932h-10.99v19.163H48.324v10.989h19.163v17.755h10.989V31.084h17.754v-10.99H78.475Z" filter="url(#g)"/><g id="Mnts"><path id="Right-Mt" shadowAngle="5.958" shadowColor="#000" shadowOffset=".662" shadowOpacity=".333" shadowRadius="2.969" fill="url(#h)" d="m62.597 46.022 13.75 17.743 13.75 17.743H35.098l13.75-17.743 13.748-17.743Z" filter="url(#i)"/><path id="Left-Mt" shadowAngle="5.958" shadowColor="#000" shadowOffset=".662" shadowOpacity=".333" shadowRadius="2.969" fill="url(#j)" filter="url(#k)" d="m33.296 54.337 12 13.586 12 13.585h-48l12-13.585 12-13.586Z"/></g></g></g></g></svg>