<svg clip-rule="evenodd" height="100%" stroke-linecap="round" stroke-linejoin="round" stroke-miterlimit="10" viewBox="0 0 24 24" width="100%" xmlns="http://www.w3.org/2000/svg"><g stroke="#232423" stroke-linecap="butt" stroke-linejoin="miter"><path d="m9.5 11.344c-.23-.002-.459.091-.688.281l-.093.094-6.688 6.687a3.981 3.981 0 0 0 3.969 3.594h12.219a3.97 3.97 0 0 0 3.75-3.594l-4.657-4.687-.125-.094c-.468-.391-.918-.38-1.375 0l-.093.094-.313.281 1.313 1.281.062.094c.309.398.294.988-.062 1.344s-.946.37-1.344.062l-.094-.062-4.969-5-.124-.094c-.235-.195-.457-.28-.688-.281z" fill="#07eff8"/><path d="m5.813 2a4.015 4.015 0 0 0 -3.813 4v9.594l5.313-5.313.156-.156c1.246-1.08 2.837-1.064 4.093.031l.157.125 2.281 2.313.313-.313.156-.156c1.246-1.08 2.838-1.064 4.094.031l.156.125 3.281 3.313v-9.782a4.015 4.015 0 0 0 -4-3.812h-12.188zm9.062 5h.25a1 1 0 0 1 .875 1c0 .507-.372.94-.875 1h-.25a1 1 0 0 1 -.875-1c0-.507.372-.94.875-1z" fill="#d72adf" fill-opacity=".785"/></g></svg>