<svg xmlns="http://www.w3.org/2000/svg" xml:space="preserve" stroke-linecap="round" stroke-linejoin="round" stroke-miterlimit="10" clip-rule="evenodd" viewBox="0 0 150 150"><defs><filter id="a" width="138.9" height="103.4" x="4.1" y="6.9" color-interpolation-filters="sRGB" filterUnits="userSpaceOnUse"><feDropShadow dx="-1.4" dy="1.4" flood-color="#000" flood-opacity=".8" in="SourceGraphic" result="Shadow" stdDeviation="3"/></filter><filter id="b" width="138.7" height="82.9" x="3.9" y="63.2" color-interpolation-filters="sRGB" filterUnits="userSpaceOnUse"><feDropShadow dx="-1.7" dy="1.7" flood-color="#000" flood-opacity=".8" in="SourceGraphic" result="Shadow" stdDeviation="3"/></filter><filter id="c" width="28.4" height="28.4" x="79.5" y="36.2" color-interpolation-filters="sRGB" filterUnits="userSpaceOnUse"><feDropShadow dx="-.8" dy=".8" flood-color="#000" flood-opacity=".3" in="SourceGraphic" result="Shadow" stdDeviation="1.6"/></filter><filter id="d" width="20.7" height="20.7" x="83.5" y="39.9" color-interpolation-filters="sRGB" filterUnits="userSpaceOnUse"><feDropShadow dx="-.6" dy=".6" flood-color="#000" flood-opacity=".3" in="SourceGraphic" result="Shadow" stdDeviation="1.2"/></filter></defs><g stroke="#232423" stroke-linecap="butt" stroke-linejoin="miter" stroke-width="4"><path fill="#d72adf" fill-opacity=".8" d="M37.9 15A24 24 0 0 0 15 39v57.6l31.9-32 1-.8c7.4-6.5 17-6.4 24.5.1l1 .8L87 78.6l1.9-2 .9-.9c7.5-6.4 17-6.3 24.6.2l.9.8L135 96.6V37.9A24 24 0 0 0 111 15H37.9Zm54.3 30h1.5a6 6 0 0 1 5.3 6 6 6 0 0 1-5.3 6h-1.5a6 6 0 0 1-5.2-6 6 6 0 0 1 5.2-6Z" filter="url(#a)"/><path fill="#07eff8" d="M60 71c-1.4 0-2.7.6-4.1 1.8l-.6.5-40 40.1A23.9 23.9 0 0 0 39 135h73.3a23.8 23.8 0 0 0 22.5-21.6l-28-28-.7-.7c-2.8-2.3-5.5-2.2-8.2 0l-.6.6-1.9 1.7 7.9 7.7.4.5c1.8 2.4 1.7 6-.4 8.1a6.2 6.2 0 0 1-8 .4l-.6-.4-29.8-30-.8-.5a6.3 6.3 0 0 0-4-1.7Z" filter="url(#b)"/></g><path fill="#fdfdfd" d="M94.4 40.2a9.5 9.5 0 1 1 0 19 9.5 9.5 0 0 1 0-19Z"/><path fill="#fd9304" stroke="#fd9304" stroke-linecap="butt" stroke-linejoin="miter" stroke-width=".7" d="M94.4 40.7a9 9 0 1 0 0 18 9 9 0 0 0 0-18Zm0 16.2a7.2 7.2 0 1 1 0-14.4 7.2 7.2 0 0 1 0 14.4Z"/><path fill="#fd9304" fill-opacity=".9" d="M94.4 39.5a10.2 10.2 0 1 0 0 20.4 10.2 10.2 0 0 0 0-20.4Z" filter="url(#c)"/><path fill="#ffd103" fill-opacity=".9" d="M94.4 42.4a7.3 7.3 0 1 1 0 14.6 7.3 7.3 0 0 1 0-14.6Z" filter="url(#d)"/></svg>