<svg height="100%" stroke-miterlimit="10" style="fill-rule:nonzero;clip-rule:evenodd;stroke-linecap:round;stroke-linejoin:round;" version="1.1" viewBox="-1.58906 -1.02856 103.178 103.09" width="100%" xml:space="preserve" xmlns="http://www.w3.org/2000/svg" xmlns:vectornator="http://vectornator.io" xmlns:xlink="http://www.w3.org/1999/xlink">
<defs>
<filter color-interpolation-filters="sRGB" filterUnits="userSpaceOnUse" height="96.3635" id="Filter" width="96.3635" x="1.89189" y="2.69874">
<feComponentTransfer in="SourceGraphic" result="Alpha">
<feFuncA slope="0.601167" type="linear"/>
</feComponentTransfer>
<feDropShadow dx="5.57301e-17" dy="0.910141" flood-color="#000000" flood-opacity="0.5" in="Alpha" result="Shadow" stdDeviation="1.13768"/>
</filter>
<filter color-interpolation-filters="sRGB" filterUnits="userSpaceOnUse" height="54.7703" id="Filter_2" width="49.1727" x="51.4561" y="41.802">
<feComponentTransfer in="SourceGraphic" result="Alpha">
<feFuncA slope="0.901735" type="linear"/>
</feComponentTransfer>
<feDropShadow dx="0.951284" dy="0.346239" flood-color="#000000" flood-opacity="0.61" in="Alpha" result="Shadow" stdDeviation="1.70651"/>
</filter>
<filter color-interpolation-filters="sRGB" filterUnits="userSpaceOnUse" height="64.6197" id="Filter_3" width="93.4135" x="3.71784" y="34.197">
<feComponentTransfer in="SourceGraphic" result="Alpha">
<feFuncA slope="0.950312" type="linear"/>
</feComponentTransfer>
<feDropShadow dx="1.82595" dy="0.664592" flood-color="#000000" flood-opacity="0.6" in="Alpha" result="Shadow" stdDeviation="1.13768"/>
</filter>
<filter color-interpolation-filters="sRGB" filterUnits="userSpaceOnUse" height="103.09" id="Filter_4" width="103.178" x="-1.58906" y="-1.02856">
<feDropShadow dx="3.16263e-17" dy="0.516497" flood-color="#000000" flood-opacity="0.6" in="SourceGraphic" result="Shadow" stdDeviation="1.54949"/>
</filter>
</defs>
<g id="Layer" layerName="Layer">
<g opacity="1" layerName="Group 1">
<path d="M83.2562 4.63279L16.891 4.63279C9.04662 4.6559 4.7592 8.94333 4.73608 16.7877L4.73608 58.7873L21.0629 40.3945C26.6917 35.0373 35.5334 35.0373 41.1622 40.3945L54.7722 54.0796L58.9816 49.8702C64.5435 44.3393 73.5283 44.3393 79.0901 49.8702L95.4112 68.2676L95.4112 16.7877C95.3881 8.94333 91.1007 4.6559 83.2562 4.63279ZM41.1622 40.3945C35.5334 35.0373 26.6917 35.0373 21.0629 40.3945L4.73608 58.7873L4.73608 83.153C4.7592 90.9974 9.04662 95.2848 16.891 95.3079L83.2551 95.3079C87.1188 95.3056 89.7823 94.7643 92.4612 91.9802L41.1622 40.3945ZM95.4112 68.2585L79.0889 49.8702C73.5271 44.3393 64.5423 44.3393 58.9805 49.8702L54.7711 54.0796L92.443 91.9597C95.0122 89.3288 95.4155 86.8291 95.4112 83.1518L95.4112 68.2574L95.4112 68.2585Z" fill="#0000ff" fill-rule="nonzero" filter="url(#Filter)" stroke="none" layerName="Curve 1" shadowAngle="1.5708" shadowColor="#000000" shadowOffset="0.910141" shadowOpacity="0.5" shadowRadius="2.27535"/>
<path d="M83.2562 4.63279L16.891 4.63279C9.04662 4.6559 4.7592 8.94333 4.73608 16.7877L4.73608 58.7873L21.0629 40.3945C26.6917 35.0373 35.5334 35.0373 41.1622 40.3945L54.7722 54.0796L58.9816 49.8702C64.5435 44.3393 73.5283 44.3393 79.0901 49.8702L95.4112 68.2676L95.4112 16.7877C95.3881 8.94333 91.1007 4.6559 83.2562 4.63279Z" fill="#0000ff" fill-rule="nonzero" opacity="0.348274" stroke="none" layerName="path"/>
<path d="M95.4112 68.2585L79.0889 49.8702C73.5271 44.3393 64.5423 44.3393 58.9805 49.8702L54.7711 54.0796L92.443 91.9597C95.0122 89.3288 95.4155 86.8291 95.4112 83.1518L95.4112 68.2574L95.4112 68.2585Z" fill="#844ed0" fill-rule="nonzero" filter="url(#Filter_2)" stroke="none" layerName="path 2" shadowAngle="0.349066" shadowColor="#000000" shadowOffset="1.01234" shadowOpacity="0.61" shadowRadius="3.41303"/>
<path d="M41.1622 40.3945C35.5334 35.0373 26.6917 35.0373 21.0629 40.3945L4.73608 58.7873L4.73608 83.153C4.7592 90.9974 9.04662 95.2848 16.891 95.3079L83.2551 95.3079C87.1188 95.3056 89.7823 94.7643 92.4612 91.9802L41.1622 40.3945Z" fill="#ffffff" fill-rule="nonzero" filter="url(#Filter_3)" stroke="none" layerName="path 1" shadowAngle="0.349066" shadowColor="#000000" shadowOffset="1.94314" shadowOpacity="0.6" shadowRadius="2.27535"/>
<path d="M87.0913 4.41527L12.9087 4.35598C8.70999 4.35598 4.31198 8.754 4.31198 12.9527L4.31198 86.988C4.31198 91.1867 8.70999 95.5847 12.9087 95.5847L87.0913 95.644C91.29 95.644 95.688 91.246 95.688 87.0473L95.688 13.012C95.688 8.81329 91.29 4.41527 87.0913 4.41527Z" fill="none" filter="url(#Filter_4)" stroke="#000000" stroke-linecap="butt" stroke-linejoin="round" stroke-width="4.05461" layerName="rect" shadowAngle="1.5708" shadowColor="#000000" shadowOffset="0.516497" shadowOpacity="0.6" shadowRadius="3.09898"/>
</g>
</g>
</svg>
