<svg width="100%" height="100%" viewBox="0 0 100 100" xmlns="http://www.w3.org/2000/svg" xml:space="preserve" stroke-linecap="round" stroke-linejoin="round" stroke-miterlimit="10" clip-rule="evenodd"><defs><linearGradient id="b" x1="0" x2="1" y1="0" y2="0" gradientTransform="scale(168.52) rotate(48.027 .089 -.079)" gradientUnits="userSpaceOnUse"><stop offset="0" stop-color="#877800"/><stop offset=".279" stop-color="#b9aa00"/><stop offset=".637" stop-color="#dccb00"/><stop offset="1" stop-color="#ffeb00"/></linearGradient><linearGradient id="d" x1="0" x2="1" y1="0" y2="0" gradientTransform="matrix(-81.4 -74.62 77.12 -78.75 118.965 72.335)" gradientUnits="userSpaceOnUse"><stop offset="0" stop-color="#ff00fd"/><stop offset=".357" stop-color="#cc00cb"/><stop offset=".714" stop-color="#bf00be"/><stop offset="1" stop-color="#af00ae"/></linearGradient><linearGradient id="f" x1="0" x2="1" y1="0" y2="0" gradientTransform="matrix(70.54 -31.24 41.93 52.55 17.465 87.299)" gradientUnits="userSpaceOnUse"><stop offset=".145" stop-color="#fff"/><stop offset=".494" stop-color="#fff"/><stop offset=".842" stop-color="#bebebe"/><stop offset="1" stop-color="#a9a9a9"/></linearGradient><linearGradient id="h" x1="0" x2="1" y1="0" y2="0" gradientTransform="matrix(45.25 -31.73 48.54 29.58 -4.92 89.827)" gradientUnits="userSpaceOnUse"><stop offset=".145" stop-color="#fff"/><stop offset=".494" stop-color="#fff"/><stop offset=".842" stop-color="#bebebe"/><stop offset="1" stop-color="#a9a9a9"/></linearGradient><filter id="c" width="112" height="90.111" x="-6" y="14.593" color-interpolation-filters="sRGB" filterUnits="userSpaceOnUse"><feDropShadow dx="0" dy="0" flood-color="#000" flood-opacity=".55" in="SourceGraphic" result="Shadow" stdDeviation="3"/></filter><filter id="e" width="53.496" height="52.001" x="45.034" y="-.256" color-interpolation-filters="sRGB" filterUnits="userSpaceOnUse"><feDropShadow dx=".627" dy="-.212" flood-color="#000" flood-opacity=".333" in="SourceGraphic" result="Shadow" stdDeviation="1.484"/></filter><filter id="g" width="62.419" height="42.908" x="32.319" y="46.911" color-interpolation-filters="sRGB" filterUnits="userSpaceOnUse"><feDropShadow dx=".627" dy="-.212" flood-color="#000" flood-opacity=".333" in="SourceGraphic" result="Shadow" stdDeviation="1.484"/></filter><filter id="i" width="55.421" height="34.592" x="6.516" y="55.227" color-interpolation-filters="sRGB" filterUnits="userSpaceOnUse"><feDropShadow dx=".627" dy="-.212" flood-color="#000" flood-opacity=".333" in="SourceGraphic" result="Shadow" stdDeviation="1.484"/></filter></defs><g id="Add Yellow and Pink Photo"><g id="Add Add Yellow and Pink Photo"><g id="Picture"><path id="Yellow-Picture" shadowAngle="5.958" shadowColor="#000" shadowOffset="0" shadowOpacity=".55" shadowRadius="6" fill="url(#b)" d="M8.392 22.093A6.892 6.892 0 0 0 1.5 28.985v61.327a6.892 6.892 0 0 0 6.892 6.892h83.216a6.892 6.892 0 0 0 6.892-6.892v-42.5H67.837V22.092H8.392Z" filter="url(#c)"/><path id="Plus" shadowAngle="5.958" shadowColor="#000" shadowOffset=".662" shadowOpacity=".333" shadowRadius="2.969" fill="url(#d)" d="M77.116 21.498V3.666H66.547v17.832h-18.43v10.226h18.43v16.521h10.569V31.724h17.076V21.498H77.116Z" filter="url(#e)"/><g id="Mnts"><path id="Right-Mt" shadowAngle="5.958" shadowColor="#000" shadowOffset=".662" shadowOpacity=".333" shadowRadius="2.969" fill="url(#f)" d="M62.902 50.834 76.65 68.577 90.4 86.32H35.402l13.75-17.743 13.749-17.743Z" filter="url(#g)"/><path id="Left-Mt" shadowAngle="5.958" shadowColor="#000" shadowOffset=".662" shadowOpacity=".333" shadowRadius="2.969" fill="url(#h)" filter="url(#i)" d="m33.6 59.149 12 13.585 12 13.586h-48l12-13.586 12-13.585Z"/></g></g></g></g></svg>