<svg width="100%" height="100%" viewBox="0 0 100 100" version="1.1" xml:space="preserve" xmlns="http://www.w3.org/2000/svg" xmlns:xlink="http://www.w3.org/1999/xlink"><defs><filter color-interpolation-filters="sRGB" filterUnits="userSpaceOnUse" height="33.3863" id="Filter_Instructables" width="30.9292" x="-6.89592" y="54.753"><feDropShadow dx="-1.86793e-06" dy="0.508529" flood-color="#000000" flood-opacity="0.45" in="SourceGraphic" result="Shadow" stdDeviation="0.815846"/></filter><filter color-interpolation-filters="sRGB" filterUnits="userSpaceOnUse" height="29.5379" id="Filter_Instructables_2" width="24.7946" x="-15.2785" y="65.7479"><feDropShadow dx="-3.15488e-05" dy="8.58891" flood-color="#000000" flood-opacity="0.333" in="SourceGraphic" result="Shadow" stdDeviation="4.29446"/></filter><linearGradient gradientTransform="matrix(68.2347 -24.8745 24.8745 68.2347 23.7966 96.6451)" gradientUnits="userSpaceOnUse" id="LinearGradient_Instructables" x1="0" x2="1" y1="0" y2="0"><stop offset="0" stop-color="#f1b80d"/><stop offset="1" stop-color="#f3b756"/></linearGradient><filter color-interpolation-filters="sRGB" filterUnits="userSpaceOnUse" height="50.6048" id="Filter_Instructables_3" width="104.796" x="-2.39796" y="52.0863"><feDropShadow dx="-1.07675e-06" dy="0.293137" flood-color="#000000" flood-opacity="0.6" in="SourceGraphic" result="Shadow" stdDeviation="0.501888"/></filter><filter color-interpolation-filters="sRGB" filterUnits="userSpaceOnUse" height="6.1649" id="Filter_Instructables_4" width="13.2872" x="31.732" y="83.8272"><feDropShadow dx="-1.07675e-06" dy="0.293137" flood-color="#000000" flood-opacity="0.6" in="SourceGraphic" result="Shadow" stdDeviation="0.501888"/></filter><filter color-interpolation-filters="sRGB" filterUnits="userSpaceOnUse" height="6.44362" id="Filter_Instructables_5" width="13.2872" x="46.3239" y="83.6663"><feDropShadow dx="-1.07675e-06" dy="0.293137" flood-color="#000000" flood-opacity="0.6" in="SourceGraphic" result="Shadow" stdDeviation="0.501888"/></filter><filter color-interpolation-filters="sRGB" filterUnits="userSpaceOnUse" height="12.3184" id="Filter_Instructables_6" width="13.2872" x="31.732" y="80.1424"><feDropShadow dx="-1.07675e-06" dy="0.293137" flood-color="#000000" flood-opacity="0.6" in="SourceGraphic" result="Shadow" stdDeviation="0.501888"/></filter><filter color-interpolation-filters="sRGB" filterUnits="userSpaceOnUse" height="13.2798" id="Filter_Instructables_7" width="13.2872" x="46.3239" y="79.5727"><feDropShadow dx="-1.07675e-06" dy="0.293137" flood-color="#000000" flood-opacity="0.6" in="SourceGraphic" result="Shadow" stdDeviation="0.501888"/></filter><filter color-interpolation-filters="sRGB" filterUnits="userSpaceOnUse" height="13.2798" id="Filter_Instructables_8" width="13.2872" x="61.6127" y="79.1055"><feDropShadow dx="-1.07675e-06" dy="0.293137" flood-color="#000000" flood-opacity="0.6" in="SourceGraphic" result="Shadow" stdDeviation="0.501888"/></filter><filter color-interpolation-filters="sRGB" filterUnits="userSpaceOnUse" height="6.44362" id="Filter_Instructables_9" width="13.2872" x="61.6127" y="83.1991"><feDropShadow dx="-1.07675e-06" dy="0.293137" flood-color="#000000" flood-opacity="0.6" in="SourceGraphic" result="Shadow" stdDeviation="0.501888"/></filter><filter color-interpolation-filters="sRGB" filterUnits="userSpaceOnUse" height="33.1778" id="Filter_Instructables_10" width="30.2487" x="74.3288" y="58.5882"><feDropShadow dx="-1.56782e-06" dy="0.426827" flood-color="#000000" flood-opacity="0.6" in="SourceGraphic" result="Shadow" stdDeviation="0.730781"/></filter><filter color-interpolation-filters="sRGB" filterUnits="userSpaceOnUse" height="21.9262" id="Filter_Instructables_11" width="36.0761" x="74.3269" y="47.6371"><feDropShadow dx="-1.56782e-06" dy="0.426827" flood-color="#000000" flood-opacity="0.6" in="SourceGraphic" result="Shadow" stdDeviation="0.730781"/></filter><filter color-interpolation-filters="sRGB" filterUnits="userSpaceOnUse" height="20.2944" id="Filter_Instructables_12" width="23.8505" x="90.6833" y="50.678"><feDropShadow dx="-1.56782e-06" dy="0.426827" flood-color="#000000" flood-opacity="0.6" in="SourceGraphic" result="Shadow" stdDeviation="0.730781"/></filter><filter color-interpolation-filters="sRGB" filterUnits="userSpaceOnUse" height="17.3901" id="Filter_Instructables_13" width="22.4976" x="85.1066" y="53.9606"><feDropShadow dx="-1.56782e-06" dy="0.426827" flood-color="#000000" flood-opacity="0.6" in="SourceGraphic" result="Shadow" stdDeviation="0.730781"/></filter><linearGradient gradientTransform="matrix(70.5269 -14.6959 14.6959 70.5269 18.4121 42.8267)" gradientUnits="userSpaceOnUse" id="LinearGradient_Instructables_2" x1="0" x2="1" y1="0" y2="0"><stop offset="0" stop-color="#f1b80d"/><stop offset="1" stop-color="#f3b756"/></linearGradient><filter color-interpolation-filters="sRGB" filterUnits="userSpaceOnUse" height="6.9156" id="Filter_Instructables_14" width="24.287" x="76.7389" y="41.0351"><feDropShadow dx="-1.56782e-06" dy="0.426827" flood-color="#000000" flood-opacity="0.6" in="SourceGraphic" result="Shadow" stdDeviation="0.730781"/></filter><filter color-interpolation-filters="sRGB" filterUnits="userSpaceOnUse" height="22.5251" id="Filter_Instructables_15" width="10.0634" x="71.944" y="32.6116"><feDropShadow dx="-1.56782e-06" dy="0.426827" flood-color="#000000" flood-opacity="0.6" in="SourceGraphic" result="Shadow" stdDeviation="0.730781"/></filter><filter color-interpolation-filters="sRGB" filterUnits="userSpaceOnUse" height="58.5893" id="Filter_Instructables_16" width="54.1234" x="26.9521" y="11.1202"><feDropShadow dx="-1.56782e-06" dy="0.426827" flood-color="#000000" flood-opacity="0.6" in="SourceGraphic" result="Shadow" stdDeviation="0.730781"/></filter><filter color-interpolation-filters="sRGB" filterUnits="userSpaceOnUse" height="60.7385" id="Filter_Instructables_17" width="24.1313" x="14.8869" y="12.799"><feDropShadow dx="-1.56782e-06" dy="0.426827" flood-color="#000000" flood-opacity="0.6" in="SourceGraphic" result="Shadow" stdDeviation="0.730781"/></filter><filter color-interpolation-filters="sRGB" filterUnits="userSpaceOnUse" height="14.8996" id="Filter_Instructables_18" width="14.4008" x="61.4498" y="30.1679"><feDropShadow dx="-1.56782e-06" dy="0.426827" flood-color="#000000" flood-opacity="0.6" in="SourceGraphic" result="Shadow" stdDeviation="0.42036"/></filter><filter color-interpolation-filters="sRGB" filterUnits="userSpaceOnUse" height="10.3899" id="Filter_Instructables_19" width="9.40869" x="64.2875" y="32.2286"><feDropShadow dx="-1.56782e-06" dy="0.426827" flood-color="#000000" flood-opacity="0.6" in="SourceGraphic" result="Shadow" stdDeviation="0.730781"/></filter><filter color-interpolation-filters="sRGB" filterUnits="userSpaceOnUse" height="18.9972" id="Filter_Instructables_20" width="18.3844" x="44.3241" y="25.9019"><feDropShadow dx="-1.56782e-06" dy="0.426827" flood-color="#000000" flood-opacity="0.6" in="SourceGraphic" result="Shadow" stdDeviation="0.730781"/></filter><filter color-interpolation-filters="sRGB" filterUnits="userSpaceOnUse" height="11.5494" id="Filter_Instructables_21" width="10.3439" x="48.7641" y="29.3873"><feDropShadow dx="-1.56782e-06" dy="0.426827" flood-color="#000000" flood-opacity="0.6" in="SourceGraphic" result="Shadow" stdDeviation="0.730781"/></filter><filter color-interpolation-filters="sRGB" filterUnits="userSpaceOnUse" height="8.19159" id="Filter_Instructables_22" width="36.1639" x="35.4343" y="44.9496"><feDropShadow dx="-1.56782e-06" dy="0.426827" flood-color="#000000" flood-opacity="0.6" in="SourceGraphic" result="Shadow" stdDeviation="0.42036"/></filter><filter color-interpolation-filters="sRGB" filterUnits="userSpaceOnUse" height="6.79055" id="Filter_Instructables_23" width="29.3672" x="47.085" y="25.0158"><feDropShadow dx="-1.56782e-06" dy="0.426827" flood-color="#000000" flood-opacity="0.6" in="SourceGraphic" result="Shadow" stdDeviation="0.42036"/></filter><filter color-interpolation-filters="sRGB" filterUnits="userSpaceOnUse" height="5.62698" id="Filter_Instructables_24" width="16.2985" x="1.36209" y="35.7686"><feDropShadow dx="-1.56782e-06" dy="0.426827" flood-color="#000000" flood-opacity="0.6" in="SourceGraphic" result="Shadow" stdDeviation="0.730781"/></filter><filter color-interpolation-filters="sRGB" filterUnits="userSpaceOnUse" height="22.3502" id="Filter_Instructables_25" width="14.1844" x="13.5647" y="30.4097"><feDropShadow dx="-1.56782e-06" dy="0.426827" flood-color="#000000" flood-opacity="0.6" in="SourceGraphic" result="Shadow" stdDeviation="0.730781"/></filter></defs><g id="Instructables"><g opacity="1" id="Left-Arm"><g opacity="1" id="InstructablesGroup-9"><path id="Instructables-24" d="M1.46367 83.7198C-1.92123 78.1749-0.263145 70.7139 4.41143 66.6264C7.38152 64.0293 18.5004 62.3263 20.7198 65.5785C20.7198 65.5785 16.6041 67.2654 11.6986 71.7353C6.94835 76.0637 1.51002 83.7957 1.46367 83.7198Z" fill="#4698ef" opacity="1" stroke="#221e1e" stroke-linecap="round" stroke-linejoin="round" stroke-width="2.09485"/><path id="Instructables-25" d="M-0.477178 80.6904C-4.24228 75.4114-3.44772 68.2675 0.540412 64.329C3.07435 61.8266 13.3877 60.1257 15.8169 63.2204C15.8169 63.2204 12.1083 64.8601 7.94171 69.1657C3.90707 73.3349-0.425617 80.7627-0.477178 80.6904Z" fill="#4698ef" opacity="1" stroke="#221e1e" stroke-linecap="round" stroke-linejoin="round" stroke-width="2.09485"/><path id="Instructables-26" d="M-3.47528 76.4369C-6.62216 71.9682-5.79521 65.8046-2.27395 62.3367C-0.0366516 60.1332 8.902 58.466 10.9385 61.0814C10.9385 61.0814 7.70393 62.5656 4.02136 66.353C0.455393 70.0205-3.43218 76.4981-3.47528 76.4369Z" fill="#4698ef" opacity="1" stroke="#221e1e" stroke-linecap="round" stroke-linejoin="round" stroke-width="2.09485"/><path id="Instructables-27" d="M-5.75384 72.7957C-8.90073 68.327-8.89052 64.3136-5.88478 60.3904C-2.55294 56.0415 5.29117 56.5198 7.32762 59.1351C7.32762 59.1351 3.57169 60.515-0.110874 64.3024C-3.67684 67.9699-5.71075 72.8569-5.75384 72.7957Z" fill="#4698ef" opacity="1" stroke="#221e1e" stroke-linecap="round" stroke-linejoin="round" stroke-width="2.09485"/></g><path id="Instructables-24" shadowAngle="1.5708" shadowColor="#000000" shadowOffset="0.508529" shadowOpacity="0.45" shadowRadius="1.63169" d="M-0.477178 80.6904C-0.433516 81.2474 1.3568 84.4368 2.10123 84.7316C2.31231 84.8151 5.41463 78.0608 11.6986 71.7353C15.2015 68.2092 19.1309 66.9189 21.1348 65.7126L21.1348 65.7126C19.5523 64.7088 18.6994 64.0776 16.0173 63.3847L11.1597 61.3051C12.2674 61.1073 15.4393 62.2327 16.0173 63.3847C16.0394 63.4286 10.2777 66.2256 6.51271 70.1621C2.07595 74.8009-0.477178 80.6904-0.477178 80.6904C-1.78784 79.5968-2.6582 78.2609-2.11425 75.0876L-2.11425 75.0876C-1.95965 74.5788-0.48935 70.2326 2.73924 66.9421C5.98899 63.6299 10.9972 61.3748 11.1597 61.3051C11.6774 60.1562 8.26706 58.8661 7.32762 59.1351C7.32762 59.1351 5.61456 56.9351 7.32762 59.1351C7.32762 59.1351 3.57169 60.515-0.110874 64.3024C-1.4968 65.7278-2.65131 67.3374-3.54746 68.7691L-3.99741 58.673C-0.208064 56.2473 5.61456 56.9351 7.32762 59.1351" fill="none" filter="url(#Filter_Instructables)" stroke="#221e1e" stroke-linecap="round" stroke-linejoin="round" stroke-width="1.71778"/><path id="Instructables-29" shadowAngle="1.5708" shadowColor="#000000" shadowOffset="8.58891" shadowOpacity="0.333" shadowRadius="8.58891" d="M-3.36294 68.754C-4.54441 73.8594-2.0789 75.1018-2.0789 75.1018" fill="none" filter="url(#Filter_Instructables_2)" stroke="#221e1e" stroke-linecap="round" stroke-linejoin="round" stroke-width="1.71778"/></g><g opacity="1" id="Body"><path id="Instructables-1" d="M100 90.2658C96.7432 82.8242 80.0112 67.3472 77.0581 65.0908C68.184 58.3108 55.4851 52.7834 41.9213 54.5104C24.3361 56.7495 0.849386 80.8154 0 90.2658L0 100L100 100L100 90.2658Z" fill="url(#LinearGradient_Instructables)" opacity="1" stroke="#221e1e" stroke-linecap="round" stroke-linejoin="round" stroke-width="2.28647"/><path id="Outline" shadowAngle="1.5708" shadowColor="#000000" shadowOffset="0.293137" shadowOpacity="0.6" shadowRadius="1.00378" d="M100 90.2658C96.7432 82.8242 80.0112 67.3472 77.0581 65.0908C68.184 58.3108 55.4851 52.7834 41.9213 54.5104C24.3361 56.7495 0.849386 80.8154 0 90.2658L0 100L100 100L100 90.2658Z" fill="none" filter="url(#Filter_Instructables_3)" stroke="#221e1e" stroke-linecap="round" stroke-linejoin="round" stroke-width="2.28647"/><g opacity="1" id="Buttons"><g opacity="1" id="InstructablesGroup-15"><path id="Instructables-12" d="M37.9189 81.6984C44.4094 81.1849 44.9692 89.4787 39.2648 90.2691C32.297 91.2346 31.5462 82.2026 37.9189 81.6984Z" fill="#9f8561" opacity="1" stroke="#221e1e" stroke-linecap="round" stroke-linejoin="round" stroke-width="1.14324"/><path id="Instructables-12" d="M52.5109 81.1313C59.0013 80.5609 59.5612 89.7748 53.8568 90.6529C46.889 91.7255 46.1381 81.6915 52.5109 81.1313Z" fill="#9f8561" opacity="1" stroke="#221e1e" stroke-linecap="round" stroke-linejoin="round" stroke-width="1.14324"/><path id="Instructables-12" d="M67.7997 80.6641C74.2901 80.0937 74.85 89.3076 69.1455 90.1857C62.1778 91.2583 61.4269 81.2242 67.7997 80.6641Z" fill="#9f8561" opacity="1" stroke="#221e1e" stroke-linecap="round" stroke-linejoin="round" stroke-width="1.14324"/></g><g opacity="1" id="InstructablesGroup-14"><path id="Instructables-17" shadowAngle="1.5708" shadowColor="#000000" shadowOffset="0.293137" shadowOpacity="0.6" shadowRadius="1.00378" d="M33.5583 85.3604C34.5429 88.6118 43.1928 88.8068 43.1928 85.3604" fill="none" filter="url(#Filter_Instructables_4)" stroke="#221e1e" stroke-linecap="round" stroke-linejoin="round" stroke-width="1.14324"/><path id="Instructables-17" shadowAngle="1.5708" shadowColor="#000000" shadowOffset="0.293137" shadowOpacity="0.6" shadowRadius="1.00378" d="M48.1503 85.1995C49.1349 88.8117 57.7848 89.0284 57.7848 85.1995" fill="none" filter="url(#Filter_Instructables_5)" stroke="#221e1e" stroke-linecap="round" stroke-linejoin="round" stroke-width="1.14324"/><path id="Instructables-18" shadowAngle="1.5708" shadowColor="#000000" shadowOffset="0.293137" shadowOpacity="0.6" shadowRadius="1.00378" d="M37.9189 81.6984C44.4094 81.1849 44.9692 89.4787 39.2648 90.2691C32.297 91.2346 31.5462 82.2026 37.9189 81.6984Z" fill="none" filter="url(#Filter_Instructables_6)" stroke="#221e1e" stroke-linecap="round" stroke-linejoin="round" stroke-width="1.14324"/><path id="Instructables-19" shadowAngle="1.5708" shadowColor="#000000" shadowOffset="0.293137" shadowOpacity="0.6" shadowRadius="1.00378" d="M52.5109 81.1313C59.0013 80.5609 59.5612 89.7748 53.8568 90.6529C46.889 91.7255 46.1381 81.6915 52.5109 81.1313Z" fill="none" filter="url(#Filter_Instructables_7)" stroke="#221e1e" stroke-linecap="round" stroke-linejoin="round" stroke-width="1.14324"/><path id="Instructables-20" shadowAngle="1.5708" shadowColor="#000000" shadowOffset="0.293137" shadowOpacity="0.6" shadowRadius="1.00378" d="M67.7997 80.6641C74.2901 80.0937 74.85 89.3076 69.1455 90.1857C62.1778 91.2583 61.4269 81.2242 67.7997 80.6641Z" fill="none" filter="url(#Filter_Instructables_8)" stroke="#221e1e" stroke-linecap="round" stroke-linejoin="round" stroke-width="1.14324"/><path id="Instructables-17" shadowAngle="1.5708" shadowColor="#000000" shadowOffset="0.293137" shadowOpacity="0.6" shadowRadius="1.00378" d="M63.4391 84.7323C64.4237 88.3445 73.0736 88.5611 73.0736 84.7323" fill="none" filter="url(#Filter_Instructables_9)" stroke="#221e1e" stroke-linecap="round" stroke-linejoin="round" stroke-width="1.14324"/></g></g></g><g opacity="1" id="Right-Arm"><g opacity="1" id="InstructablesGroup-13"><path id="Instructables-24" d="M77.4059 65.6586C78.4832 62.1444 86.8904 56.5564 91.2488 59.9538C94.0544 62.1408 97.9476 61.8043 100.099 64.8608C106.864 74.4719 102.522 83.6277 99.6545 88.0082C99.6545 88.0082 95.0773 80.213 89.4192 74.282C83.3625 67.9331 77.387 65.7203 77.4059 65.6586Z" fill="#4698ef" opacity="1" stroke="#191a22" stroke-linecap="round" stroke-linejoin="round" stroke-width="2.09895"/><path id="Instructables-25" d="M82.2206 60.4345C84.3107 58.2498 86.755 57.0155 89.2612 56.5761C93.9863 55.7478 100.382 55.7924 103.588 59.5729C106.707 63.249 106.261 77.0281 102.148 80.191C102.148 80.191 100.191 75.1678 94.8169 69.1107C89.6128 63.2454 82.1385 60.5204 82.2206 60.4345Z" fill="#4698ef" opacity="1" stroke="#191a22" stroke-linecap="round" stroke-linejoin="round" stroke-width="2.09895"/><path id="Instructables-26" d="M86.8904 56.5564C92.7006 50.603 103.391 52.1721 107.164 57.4444C109.561 60.7943 108.489 74.495 104.83 76.781C104.83 76.781 105.259 69.5206 100.999 64.0563C95.1207 56.5156 86.8904 56.5564 86.8904 56.5564Z" fill="#4698ef" opacity="1" stroke="#191a22" stroke-linecap="round" stroke-linejoin="round" stroke-width="2.09895"/><path id="Instructables-27" d="M93.2028 52.951C96.7159 50.2968 102.593 48.4571 107.527 52.8804C112.995 57.7836 112.015 68.6225 108.54 71.2727C108.54 71.2727 108.315 64.9252 103.588 59.5729C99.0115 54.39 93.124 53.0106 93.2028 52.951Z" fill="#4698ef" opacity="1" stroke="#191a22" stroke-linecap="round" stroke-linejoin="round" stroke-width="2.09895"/></g><g opacity="1" id="InstructablesGroup-12"><path id="Instructables-31" shadowAngle="1.5708" shadowColor="#000000" shadowOffset="0.426827" shadowOpacity="0.6" shadowRadius="1.46156" d="M77.2052 66.2601C83.2244 67.8817 97.6845 80.8297 98.9344 88.4628L98.9344 88.4628C101.682 87.8173 102.283 80.14 101.179 76.9227C99.3626 71.6289 91.8813 61.3579 81.8579 61.0378" fill="none" filter="url(#Filter_Instructables_10)" stroke="#191a22" stroke-linecap="round" stroke-linejoin="round" stroke-width="2.09895"/><path id="Instructables-32" shadowAngle="1.5708" shadowColor="#000000" shadowOffset="0.426827" shadowOpacity="0.6" shadowRadius="1.46156" d="M107.527 52.8804C102.376 48.2879 97.6066 50.0719 93.5597 53.1276L93.5597 53.1276C91.5403 52.0391 87.6455 53.7305 87.983 56.4102L87.983 56.4102C85.9994 55.4074 81.7218 57.5306 81.8579 61.0378L81.8579 61.0378C79.9427 60.3077 77.1192 64.0433 77.2052 66.2601" fill="none" filter="url(#Filter_Instructables_11)" stroke="#191a22" stroke-linecap="round" stroke-linejoin="round" stroke-width="2.09895"/><path id="Instructables-35" shadowAngle="1.5708" shadowColor="#000000" shadowOffset="0.426827" shadowOpacity="0.6" shadowRadius="1.46156" d="M93.5597 53.1276C100.657 53.7968 107.363 62.2369 111.657 67.6692" fill="none" filter="url(#Filter_Instructables_12)" stroke="#191a22" stroke-linecap="round" stroke-linejoin="round" stroke-width="2.09895"/><path id="Instructables-36" shadowAngle="1.5708" shadowColor="#000000" shadowOffset="0.426827" shadowOpacity="0.6" shadowRadius="1.46156" d="M87.983 56.4102C94.5212 58.2264 100.45 62.7043 104.728 68.0474" fill="none" filter="url(#Filter_Instructables_13)" stroke="#191a22" stroke-linecap="round" stroke-linejoin="round" stroke-width="2.09895"/></g></g><g opacity="1" id="Head"><path id="Head-Fill" d="M43.4692 13.6225C40.403 13.5674 37.7948 14.1255 36.03 15.5802C36.03 15.5802 24.7491 24.264 20.5467 29.6753C17.8623 33.132 20.7311 47.4104 20.4043 51.9215C20.2718 53.7513 17.1559 69.2482 17.9484 69.9675C18.9693 70.8943 29.2965 68.6997 30.1571 66.337C30.359 66.5158 43.1629 59.305 54.2541 60.3216C65.3453 61.3382 74.7231 66.469 75.7528 65.6607C75.7722 65.6454 73.5511 45.2694 73.6171 43.7705C73.9009 37.3268 79.6445 25.058 77.746 19.2463C77.555 18.6614 74.3041 18.8728 73.8663 18.8904C66.4387 19.1891 52.8114 13.7902 43.4692 13.6225Z" fill="url(#LinearGradient_Instructables_2)" opacity="1" stroke="none"/><g opacity="1" id="Right-Ear"><path id="Instructables-19" shadowAngle="1.5708" shadowColor="#000000" shadowOffset="0.426827" shadowOpacity="0.6" shadowRadius="1.46156" d="M98.3666 44.8646C93.2876 41.9018 80.4663 43.9531 79.3982 44.0364" fill="none" filter="url(#Filter_Instructables_14)" stroke="#221e1e" stroke-linecap="round" stroke-linejoin="round" stroke-width="1.66463"/><path id="Instructables" d="M75.8002 34.3224C76.003 34.3433 79.8609 38.9314 79.8697 43.5081C79.8854 51.6738 76.0497 52.0164 74.8744 52.5723C74.3403 49.6569 74.1593 46.5903 74.0816 43.7439C74.0029 40.863 74.0414 38.1968 75.8002 34.3224Z" fill="#b92025" opacity="1" stroke="#221e1e" stroke-linecap="round" stroke-linejoin="round" stroke-width="1.66463"/><path id="Instructables-1" shadowAngle="1.5708" shadowColor="#000000" shadowOffset="0.426827" shadowOpacity="0.6" shadowRadius="1.46156" d="M75.8002 34.3224C75.9107 34.3338 79.8911 38.9398 79.8697 43.5081C79.8342 51.0857 74.8744 52.5723 74.8744 52.5723L74.0816 43.7439C74.2987 39.3907 75.591 34.8864 75.8002 34.3224Z" fill="none" filter="url(#Filter_Instructables_15)" stroke="#221e1e" stroke-linecap="round" stroke-linejoin="round" stroke-width="0.621269"/></g><path id="Outline-Square" shadowAngle="1.5708" shadowColor="#000000" shadowOffset="0.426827" shadowOpacity="0.6" shadowRadius="1.46156" d="M35.9393 15.6097C43.0018 9.57937 63.9745 19.2876 73.8779 18.8894C74.3157 18.8718 77.5646 18.6656 77.7557 19.2505C79.6542 25.0622 73.8952 37.3252 73.6114 43.7689C73.5454 45.2678 75.7678 65.656 75.7484 65.6712C74.7187 66.4795 65.359 61.3385 54.2678 60.3219C43.1766 59.3054 30.3528 66.5215 30.1509 66.3427C28.8056 65.1515 32.9284 18.1805 35.9393 15.6097Z" fill="none" filter="url(#Filter_Instructables_16)" stroke="#221e1e" stroke-linecap="round" stroke-linejoin="round" stroke-width="2.2195"/><path id="Outline" shadowAngle="1.5708" shadowColor="#000000" shadowOffset="0.426827" shadowOpacity="0.6" shadowRadius="1.46156" d="M30.1509 66.3427C30.1509 66.3427 30.2714 50.6128 31.754 37.8543C33.2367 25.0959 36.0815 15.3089 36.0815 15.3089C31.974 20.598 24.7528 24.2479 20.5505 29.6592C17.866 33.1159 20.7196 47.4161 20.3928 51.9272C20.2603 53.757 17.1606 69.2362 17.953 69.9555C18.9739 70.8822 29.2903 68.7054 30.1509 66.3427Z" fill="none" filter="url(#Filter_Instructables_17)" stroke="#221e1e" stroke-linecap="round" stroke-linejoin="round" stroke-width="2.2195"/><g opacity="1" id="Face"><g opacity="1" id="Right-Eye"><path id="Instructables-7" shadowAngle="1.5708" shadowColor="#000000" shadowOffset="0.426827" shadowOpacity="0.6" shadowRadius="0.840719" d="M67.6476 31.6808C76.1428 30.7143 75.7886 42.4602 68.2934 42.753C61.4871 43.0189 61.6455 31.2637 69.014 31.7727" fill="#de2425" filter="url(#Filter_Instructables_18)" stroke="#221e1e" stroke-linecap="round" stroke-linejoin="round" stroke-width="1.66463"/><path id="Instructables-8" shadowAngle="1.5708" shadowColor="#000000" shadowOffset="0.426827" shadowOpacity="0.6" shadowRadius="1.46156" d="M68.8634 34.4826C71.9576 34.5994 71.4449 39.7624 69.221 39.5244C65.4552 39.1215 66.7981 32.981 70.1087 34.7955" fill="#252020" filter="url(#Filter_Instructables_19)" stroke="#221e1e" stroke-linecap="round" stroke-linejoin="round" stroke-width="1.66463"/></g><g opacity="1" id="Left-Eye"><path id="Instructables-7" shadowAngle="1.5708" shadowColor="#000000" shadowOffset="0.426827" shadowOpacity="0.6" shadowRadius="1.46156" d="M52.2844 28.2038C62.7219 27.0163 62.2868 41.4478 53.0778 41.8075C44.7154 42.1342 44.9099 27.6913 53.9633 28.3167" fill="#de2425" filter="url(#Filter_Instructables_20)" stroke="#221e1e" stroke-linecap="round" stroke-linejoin="round" stroke-width="1.66463"/><path id="Instructables-8" shadowAngle="1.5708" shadowColor="#000000" shadowOffset="0.426827" shadowOpacity="0.6" shadowRadius="1.46156" d="M53.7782 31.6462C57.5799 31.7897 56.9499 38.1331 54.2176 37.8408C49.5907 37.3458 51.2407 29.8013 55.3082 32.0307" fill="#252020" filter="url(#Filter_Instructables_21)" stroke="#221e1e" stroke-linecap="round" stroke-linejoin="round" stroke-width="1.66463"/></g><g opacity="1" id="Face"><path id="Instructables-10" shadowAngle="1.5708" shadowColor="#000000" shadowOffset="0.426827" shadowOpacity="0.6" shadowRadius="0.840719" d="M37.0401 46.1285C48.0633 47.1229 58.8145 51.6381 69.9924 51.0572" fill="none" filter="url(#Filter_Instructables_22)" stroke="#221e1e" stroke-linecap="round" stroke-linejoin="round" stroke-width="1.10975"/><path id="Instructables-11" shadowAngle="1.5708" shadowColor="#000000" shadowOffset="0.426827" shadowOpacity="0.6" shadowRadius="0.840719" d="M48.6908 26.1948C57.4576 26.7102 66.2993 27.9134 74.8464 29.7738" fill="none" filter="url(#Filter_Instructables_23)" stroke="#221e1e" stroke-linecap="round" stroke-linejoin="round" stroke-width="1.10975"/></g></g><g opacity="1" id="Left-Ear"><path id="Instructables-20" shadowAngle="1.5708" shadowColor="#000000" shadowOffset="0.426827" shadowOpacity="0.6" shadowRadius="1.46156" d="M15.0013 38.3095C11.3222 38.2411 7.71197 37.7002 4.02135 38.2344" fill="none" filter="url(#Filter_Instructables_24)" stroke="#221e1e" stroke-linecap="round" stroke-linejoin="round" stroke-width="1.66463"/><path id="Instructables-5" d="M24.0289 32.6446C22.4971 35.2242 16.6642 31.8337 16.2275 38.3836C16.0774 40.6343 20.7349 51.6624 24.4773 49.3594C25.738 48.5836 24.6699 39.0188 24.6208 37.6662C24.5775 36.4771 24.0973 32.5294 24.0289 32.6446Z" fill="#b92025" opacity="1" stroke="#221e1e" stroke-linecap="round" stroke-linejoin="round" stroke-width="1.66463"/><path id="Instructables-23" shadowAngle="1.5708" shadowColor="#000000" shadowOffset="0.426827" shadowOpacity="0.6" shadowRadius="1.46156" fill="none" filter="url(#Filter_Instructables_25)" stroke="#221e1e" stroke-linecap="round" stroke-linejoin="round" stroke-width="1.66463" d="M24.0289 32.6446C22.4971 35.2242 16.6642 31.8337 16.2275 38.3836C16.0774 40.6343 20.7349 51.6624 24.4773 49.3594C25.738 48.5836 24.6699 39.0188 24.6208 37.6662C24.5775 36.4771 24.0973 32.5294 24.0289 32.6446Z"/></g></g></g></svg>
