<svg xmlns="http://www.w3.org/2000/svg" xmlns:xlink="http://www.w3.org/1999/xlink" width="100%" height="100%" version="1.1" viewBox="0 0 100 100" xml:space="preserve"><defs><filter id="Filter_waybackmachine" width="87.624" height="99.161" x="6.188" y="1" color-interpolation-filters="sRGB" filterUnits="userSpaceOnUse"><feDropShadow dx="0" dy=".351" flood-color="#000" flood-opacity=".45" in="SourceGraphic" result="Shadow" stdDeviation=".4"/></filter></defs><g id="waybackmachin"><path fill="#d4d4d4" stroke="none" d="M93.3023 94.4419L93.3023 99L6.69767 99L6.6986 94.4419L93.3023 94.4419ZM89.8837 87.6047L89.8837 93.3023L10.1163 93.3023L10.1163 87.6047L89.8837 87.6047ZM18.4695 26.0698L19.4203 26.5503L19.8962 34.2349L20.3721 46.7216L20.3721 58.7304L19.8962 73.6998L19.8171 83.7845L18.4695 84.186L13.7135 84.186L12.2867 83.7845L11.7326 73.6998L11.2558 58.8103L11.2558 46.8024L11.7326 34.2349L12.1675 26.509L13.1593 26.0698L18.4695 26.0698ZM86.8421 26.0698L87.7941 26.5503L88.2691 34.2349L88.7442 46.7216L88.7442 58.7304L88.2691 73.6998L88.1909 83.7845L86.8421 84.186L82.086 84.186L80.659 83.7845L80.103 73.6998L79.6279 58.8103L79.6279 46.8024L80.103 34.2349L80.5398 26.509L81.5309 26.0698L86.8421 26.0698ZM38.9809 26.0698L39.9319 26.5503L40.4078 34.2349L40.8837 46.7216L40.8837 58.7304L40.4078 73.6998L40.3295 83.7845L38.9809 84.186L34.2244 84.186L32.7966 83.7845L32.2425 73.6998L31.7674 58.8103L31.7674 46.8024L32.2425 34.2349L32.6793 26.509L33.6693 26.0698L38.9809 26.0698ZM65.1902 26.0698L66.1412 26.5503L66.6171 34.2349L67.093 46.7216L67.093 58.7304L66.6171 73.6998L66.5388 83.7845L65.1902 84.186L60.4337 84.186L59.0069 83.7845L58.4518 73.6998L57.9767 58.8103L57.9767 46.8024L58.4518 34.2349L58.8886 26.509L59.8795 26.0698L65.1902 26.0698ZM89.8837 15.814L89.8837 23.7907L10.1163 23.7907L10.1163 15.814L89.8837 15.814ZM49.1794 1L91.0233 10.5822L89.3458 13.5349L9.20464 13.5349L6.69767 11.1403L49.1794 1Z" filter="url(#Filter_waybackmachine)" shadowAngle="1.571" shadowColor="#000" shadowOffset=".351" shadowOpacity=".5" shadowRadius="10"/></g></svg>