<svg width="100%" height="100%" xmlns="http://www.w3.org/2000/svg" xml:space="preserve" viewBox="0 0 100 100"><defs><linearGradient id="a" x1="0" x2="1" y1="0" y2="0" gradientTransform="rotate(178.037 19.51 33.207) scale(19.76)" gradientUnits="userSpaceOnUse"><stop offset="0" stop-color="#455a64"/><stop offset=".668" stop-color="#546e7a"/></linearGradient></defs><path fill="#f1f1f1" d="M2 50C2 23.49 23.49 2 50 2s48 21.49 48 48-21.49 48-48 48S2 76.51 2 50Z"/><path fill="#514f51" fill-opacity=".5" d="M91.475 46c-.219-.288-.707-.29-1.451.002L4.209 100h9.436l62.76-44.12L43.147 100h14.5s32.05-50.805 33.652-53.205c.247-.369.308-.62.176-.794ZM99.146 38.323c-1.271-1.169-4.017-.933-5.321.414-1.303 1.348-1.164 3.807.107 4.976 1.27 1.168 3.674 1.047 4.977-.3 1.304-1.348 1.508-3.921.237-5.09Z"/><path fill="#514f51" d="M33.823 32.106c-.317 0-.574.35-.765 1.048 0 0-24.835 63.399-25.724 63.938-.889.54-2.332.843-4.332.907-2 .063-3.002.382-3.002.953C0 99.524.447 100 1.336 100H18.67c1.651 0 2.473-.319 2.473-.954 0-.571-.92-.89-2.761-.953-2.984-.19-4.572-.319-4.762-.382-.762-.19-1.142-.73-1.142-1.62 0-1.523 15.628-40.236 18.295-47.221 0 0 13.42 47.352 13.42 47.416 0 1.08-2.794 1.65-8.382 1.713-1.714 0-2.572.35-2.572 1.047 0 .635.637.954 1.907.954h27.336c.953 0 1.43-.288 1.43-.86 0-.57-.826-.89-2.477-.953-2.477-.063-4.11-.284-4.904-.665-.794-.381-21.406-62.369-22.232-64.845-.127-.381-.286-.571-.477-.571Z"/><path fill="url(#a)" d="M33.823 32.106c-.317 0-.574.35-.765 1.048 0 0-24.835 63.399-25.724 63.938-.889.54-2.332.843-4.332.907-2 .063-3.002.382-3.002.953C0 99.524.447 100 1.336 100H18.67c1.651 0 2.473-.319 2.473-.954 0-.571-.92-.89-2.761-.953-2.984-.19-4.572-.319-4.762-.382-.762-.19-1.142-.73-1.142-1.62 0-1.523 15.628-40.236 18.295-47.221 0 0 13.42 47.352 13.42 47.416 0 1.08-2.794 1.65-8.382 1.713-1.714 0-2.572.35-2.572 1.047 0 .635.637.954 1.907.954h27.336c.953 0 1.43-.288 1.43-.86 0-.57-.826-.89-2.477-.953-2.477-.063-4.11-.284-4.904-.665-.794-.381-21.406-62.369-22.232-64.845-.127-.381-.286-.571-.477-.571Z"/><path fill="#0bb5ed" d="M29.458 23.759c0-2.42 2.008-4.382 4.484-4.382s4.484 1.962 4.484 4.382-2.008 4.382-4.484 4.382-4.484-1.962-4.484-4.382Z"/></svg>