<svg xmlns="http://www.w3.org/2000/svg" xml:space="preserve" viewBox="0 0 100 100"><defs><filter id="b" width="79.9" height="104.9" x="10.4" y="-1.7" color-interpolation-filters="sRGB" filterUnits="userSpaceOnUse"><feDropShadow dx=".4" dy=".8" flood-color="#000" flood-opacity=".3" in="SourceGraphic" result="Shadow" stdDeviation="1.3"/></filter><filter id="c" width="77.6" height="102.7" x="11.3" y="-1.1" color-interpolation-filters="sRGB" filterUnits="userSpaceOnUse"><feDropShadow dx=".1" dy=".3" flood-color="#000" flood-opacity=".3" in="SourceGraphic" result="Shadow" stdDeviation=".7"/></filter><linearGradient id="a" x1="0" x2="1" y1="0" y2="0" gradientTransform="rotate(75.7 -7.8 62.6) scale(48.2)" gradientUnits="userSpaceOnUse"><stop offset="0" stop-color="#ff0070"/><stop offset="1" stop-color="#cd0043"/></linearGradient></defs><path fill="url(#a)" d="M77 46.2a7 7 0 0 1 3.8-1.2c2.3 0 4.2 2 4.2 4.9 0 5.4-6.9 10.3-16.7 11.4 1.4-5.6 2.5-12 3.3-19.2 1.2-11 2.5-20.4 4.2-27.4 6.2-2.9 11-5.7 11-10.4 0-1.9-1.3-3.6-3.1-3.6-3.9 0-6.4 4.7-9.6 13.1-15 4.6-39.2 6.5-39.2 26.6 0 12.5 8.8 19.2 19.3 21.6C46.4 74.2 38.5 78.8 30 78.8c-7.1 0-12.3-3.8-12.3-9 0-5.6 5.3-9.9 11-9.9 2.2 0 4.4.7 6.4 2l.2-.8c-2-1.4-4.4-2-6.7-2-7.8 0-15.4 7.7-15.4 17a24 24 0 0 0 23.3 23.2C48 99.3 61 89.6 68 62.6c9.7-1.3 17.9-6.1 17.9-12.7 0-3-2-5.8-5-5.8-1.2 0-2.6.4-4 1.4l.1.7Zm-30-4.1c0-15.8 15-21.2 26.5-26.3-2.2 6-4.7 13.7-8.2 22.9-3.2 8.1-6.3 14.8-9.3 20.2a20 20 0 0 1-9-16.8ZM83.6 1.5c1.3 0 2.2 1.2 2.2 2.6 0 4.6-4 7-9.7 9 2-7.3 4.4-11.6 7.5-11.6Z" filter="url(#b)"/><path fill="#d5004a" d="M68.7 41.7C64.2 83 49.3 96.5 36.4 96.5a21 21 0 0 1-20.3-20.4v-.7c2.4 4 7.5 6.5 13.8 6.5 14 0 26.2-10.5 38.3-42.2l1-2.7-.5 4.7Zm-24.8.3a23 23 0 0 0 6 15.6c-6.9-3-12-8.5-12-17.3 0-10 7.3-14.9 16.3-18A23.4 23.4 0 0 0 43.9 42Zm33.2 4.2A7 7 0 0 1 81 45c2.3 0 4.2 2 4.2 4.9 0 5.4-6.9 10.4-16.7 11.5 1.4-5.7 2.5-12.1 3.3-19.4 1.2-11 2.6-20.4 4.2-27.4 6.2-3 11-5.8 11-10.5 0-1.9-1.3-3.6-3-3.6-4 0-6.5 4.7-9.6 13.2-15.1 4.6-39.5 6.5-39.5 26.6 0 12.6 9 19.4 19.4 21.8-7.8 12.3-15.8 16.8-24.3 16.8-7.1 0-12.3-3.8-12.3-9 0-5.6 5.3-10 11-10 2.2 0 4.4.8 6.4 2l.2-.7c-2-1.4-4.4-2-6.7-2-7.8 0-15.4 7.7-15.4 17a24 24 0 0 0 23.3 23.3c11.6 0 24.7-9.7 31.7-36.8 9.7-1.3 18-6.2 18-12.8 0-3-2-5.8-5-5.8-1.3 0-2.7.4-4.2 1.4l.2.7ZM47 42c0-15.8 15-21.2 26.7-26.3-2.2 6-4.7 13.7-8.2 23C62.2 46.7 59 53.4 56 59a20 20 0 0 1-9-17ZM84 1.3C85 1.3 86 2.5 86 3.9c0 4.6-4 7-9.7 9 2-7.3 4.4-11.6 7.5-11.6Z" filter="url(#c)"/></svg>