<svg width="100%" height="100%" stroke-miterlimit="10" style="fill-rule:nonzero;clip-rule:evenodd;stroke-linecap:round;stroke-linejoin:round;" version="1.1" viewBox="0 0 50 50" xml:space="preserve" xmlns="http://www.w3.org/2000/svg" xmlns:xlink="http://www.w3.org/1999/xlink">
<defs>
<filter color-interpolation-filters="sRGB" filterUnits="userSpaceOnUse" height="19.3022" id="Filter" width="45.6993" x="1.13245" y="18.9287">
<feDropShadow dx="-1.01792" dy="0.940073" flood-color="#000000" flood-opacity="0.4" in="SourceGraphic" result="Shadow" stdDeviation="0.692802"/>
</filter>
<filter color-interpolation-filters="sRGB" filterUnits="userSpaceOnUse" height="8.74342" id="Filter_2" width="45.6993" x="1.13245" y="13.6493">
<feDropShadow dx="-1.01792" dy="0.940073" flood-color="#000000" flood-opacity="0.4" in="SourceGraphic" result="Shadow" stdDeviation="0.692802"/>
</filter>
<filter color-interpolation-filters="sRGB" filterUnits="userSpaceOnUse" height="12.263" id="Filter_3" width="38.66" x="4.65205" y="22.4483">
<feDropShadow dx="-1.01792" dy="0.940073" flood-color="#000000" flood-opacity="0.4" in="SourceGraphic" result="Shadow" stdDeviation="0.692802"/>
</filter>
</defs>
<g id="Layer-8">
<path d="M3.88238 32.0392C3.88238 33.982 5.45916 35.5588 7.40198 35.5588L42.598 35.5588C44.5408 35.5588 46.1176 33.982 46.1176 32.0392L46.1176 19.7206L3.88238 19.7206L3.88238 32.0392Z" fill="#37474f" fill-rule="nonzero" filter="url(#Filter)" stroke="none"/>
<path d="M3.88238 19.7206L46.1176 19.7206L46.1176 16.201C46.1176 16.201 46.1176 14.4412 44.3578 14.4412C42.598 14.4412 7.40198 14.4412 5.64218 14.4412C3.88238 14.4412 3.88238 16.201 3.88238 16.201L3.88238 19.7206Z" fill="#ffecb3" fill-rule="nonzero" filter="url(#Filter_2)" stroke="none"/>
<path d="M40.8382 23.2402C41.8101 23.2402 42.598 24.0281 42.598 25C42.598 25.9719 41.8101 26.7598 40.8382 26.7598C39.8663 26.7598 39.0784 25.9719 39.0784 25C39.0784 24.0281 39.8663 23.2402 40.8382 23.2402ZM40.8382 28.5196C41.8101 28.5196 42.598 29.3075 42.598 30.2794C42.598 31.2513 41.8101 32.0392 40.8382 32.0392C39.8663 32.0392 39.0784 31.2513 39.0784 30.2794C39.0784 29.3075 39.8663 28.5196 40.8382 28.5196ZM9.16178 23.2402C10.1337 23.2402 10.9216 24.0281 10.9216 25C10.9216 25.9719 10.1337 26.7598 9.16178 26.7598C8.18987 26.7598 7.40198 25.9719 7.40198 25C7.40198 24.0281 8.18987 23.2402 9.16178 23.2402ZM9.16178 28.5196C10.1337 28.5196 10.9216 29.3075 10.9216 30.2794C10.9216 31.2513 10.1337 32.0392 9.16178 32.0392C8.18987 32.0392 7.40198 31.2513 7.40198 30.2794C7.40198 29.3075 8.18987 28.5196 9.16178 28.5196ZM35.5588 23.2402C36.5307 23.2402 37.3186 24.0281 37.3186 25C37.3186 25.9719 36.5307 26.7598 35.5588 26.7598C34.5869 26.7598 33.799 25.9719 33.799 25C33.799 24.0281 34.5869 23.2402 35.5588 23.2402ZM30.2794 23.2402C31.2513 23.2402 32.0392 24.0281 32.0392 25C32.0392 25.9719 31.2513 26.7598 30.2794 26.7598C29.3075 26.7598 28.5196 25.9719 28.5196 25C28.5196 24.0281 29.3075 23.2402 30.2794 23.2402ZM25 23.2402C25.9719 23.2402 26.7598 24.0281 26.7598 25C26.7598 25.9719 25.9719 26.7598 25 26.7598C24.0281 26.7598 23.2402 25.9719 23.2402 25C23.2402 24.0281 24.0281 23.2402 25 23.2402ZM19.7206 23.2402C20.6925 23.2402 21.4804 24.0281 21.4804 25C21.4804 25.9719 20.6925 26.7598 19.7206 26.7598C18.7487 26.7598 17.9608 25.9719 17.9608 25C17.9608 24.0281 18.7487 23.2402 19.7206 23.2402ZM14.4412 23.2402C15.4131 23.2402 16.201 24.0281 16.201 25C16.201 25.9719 15.4131 26.7598 14.4412 26.7598C13.4693 26.7598 12.6814 25.9719 12.6814 25C12.6814 24.0281 13.4693 23.2402 14.4412 23.2402ZM12.6814 30.2794C12.6814 31.2526 13.4698 32.0392 14.4412 32.0392L35.5588 32.0392C36.5302 32.0392 37.3186 31.2526 37.3186 30.2794L37.3186 30.2794C37.3186 29.3062 36.5302 28.5196 35.5588 28.5196L14.4412 28.5196C13.4698 28.5196 12.6814 29.3062 12.6814 30.2794L12.6814 30.2794Z" fill="#b0bec5" fill-rule="nonzero" filter="url(#Filter_3)" stroke="none"/>
</g>
</svg>
