<svg height="100%" stroke-miterlimit="10" style="fill-rule:nonzero;clip-rule:evenodd;stroke-linecap:round;stroke-linejoin:round;" version="1.1" viewBox="0 0 100 100" width="100%" xml:space="preserve" xmlns="http://www.w3.org/2000/svg" xmlns:xlink="http://www.w3.org/1999/xlink">
<defs>
<filter color-interpolation-filters="sRGB" filterUnits="userSpaceOnUse" height="109.973" id="Filter" width="103.008" x="-1.27327" y="-3.76747">
<feDropShadow dx="-0.297945" dy="0.818576" flood-color="#000000" flood-opacity="0.55" in="SourceGraphic" result="Shadow" stdDeviation="1.25167"/>
</filter>
<filter color-interpolation-filters="sRGB" filterUnits="userSpaceOnUse" height="86.666" id="Filter_2" width="77.1296" x="19.7579" y="0.929257">
<feDropShadow dx="-0.310728" dy="0.853696" flood-color="#000000" flood-opacity="0.55" in="SourceGraphic" result="Shadow" stdDeviation="1.0429"/>
</filter>
<linearGradient gradientTransform="matrix(1.43434 0 0 1.43434 -17.6904 -24.9052)" gradientUnits="userSpaceOnUse" id="LinearGradient" x1="78.0186" x2="29.553" y1="62.6072" y2="58.6422">
<stop offset="0.167105" stop-color="#ffffff"/>
<stop offset="0.500452" stop-color="#ffffff"/>
<stop offset="0.860017" stop-color="#bebebe"/>
<stop offset="1" stop-color="#a9a9a9"/>
</linearGradient>
<filter color-interpolation-filters="sRGB" filterUnits="userSpaceOnUse" height="103.715" id="Filter_3" width="96.7501" x="2.15384" y="-1.45688">
<feDropShadow dx="-0.310728" dy="0.853696" flood-color="#000000" flood-opacity="0.55" in="SourceGraphic" result="Shadow" stdDeviation="1.5429"/>
</filter>
</defs>
<g filter="url(#Filter)">
<g opacity="1">
<path d="M26.9812 2.68282C25.4629 2.68282 24.3651 2.99479 23.6858 3.6358C23.0066 4.27666 22.6758 5.31268 22.6758 6.7453L22.6758 20.4376C22.6758 21.8702 23.0066 22.9063 23.6858 23.5473C24.3651 24.1881 25.4629 24.5002 26.9812 24.5002L44.5746 24.5002L44.5746 80.0717C44.5746 81.5043 44.9584 82.5404 45.6377 83.1814C46.3169 83.8222 47.4149 84.1343 48.9331 84.1343L68.3336 84.1343C69.8519 84.1343 70.9499 83.8222 71.6292 83.1814C72.3083 82.5404 72.6391 81.5043 72.6391 80.0717L72.6391 24.5002L90.2856 24.5002C91.8038 24.5002 92.9018 24.1881 93.581 23.5473C94.2603 22.9063 94.5909 21.8702 94.5909 20.4376L94.5909 6.7453C94.5909 5.31268 94.2603 4.27666 93.581 3.6358C92.9018 2.99479 91.8038 2.68282 90.2856 2.68282L26.9812 2.68282ZM33.4658 12.8642L83.801 12.8642L83.801 14.0178L59.2447 14.0178L59.2447 73.9529L58.0222 73.9529L58.0222 14.0178L33.4658 14.0178L33.4658 12.8642Z" fill="#1e00da" fill-rule="nonzero" filter="url(#Filter_2)" stroke="none"/>
<path d="M27.1442 1.54669C26.3518 1.54669 25.6038 1.65914 24.9302 1.84747C24.2565 2.03594 23.6922 2.29799 23.2961 2.59949L8.00861 14.9316C7.45381 15.3837 7.02093 15.9075 6.74353 16.5858C6.46613 17.2641 6.32183 18.1127 6.32183 19.0924L6.32183 32.7781C6.32183 34.5868 6.76791 35.9094 7.6397 36.7384C8.51135 37.5673 9.90208 37.9916 11.8042 37.9916L28.0931 37.9916L28.0931 92.3332C28.0931 94.142 28.4865 95.4645 29.3583 96.2935C30.2299 97.1226 31.6207 97.5467 33.5227 97.5467L52.8164 97.5467C53.6089 97.5467 54.3041 97.4219 54.9777 97.1958C55.6514 96.9698 56.1894 96.6951 56.5064 96.3938L71.9519 84.2119C72.5067 83.7598 72.8871 83.1858 73.1644 82.5075C73.4418 81.8292 73.5862 80.9808 73.5862 80.001L73.5862 37.9916L74.535 37.9916C75.3275 37.9916 76.0753 37.8668 76.749 37.6408C77.4226 37.4146 77.908 37.14 78.225 36.8387L93.6705 24.6068C94.2253 24.1546 94.6583 23.6307 94.9357 22.9524C95.2131 22.2741 95.3574 21.4257 95.3574 20.4459L95.3574 6.76021C95.3574 4.95151 94.9113 3.62906 94.0395 2.80001C93.1678 1.97096 91.777 1.54669 89.8751 1.54669L27.1442 1.54669ZM27.1442 2.69975L89.8751 2.69975C91.3809 2.69975 92.4698 3.01157 93.1434 3.65215C93.8171 4.29272 94.145 5.32831 94.145 6.76021L94.145 20.4459C94.145 21.8778 93.8171 22.9134 93.1434 23.554C92.4697 24.1946 91.3809 24.5065 89.8751 24.5065L72.4264 24.5065L72.4264 80.001C72.4264 81.4329 72.0985 82.4685 71.4248 83.1091C70.7511 83.7498 69.6623 84.1117 68.1565 84.1117L48.8628 84.1117C47.3571 84.1117 46.2681 83.7497 45.5944 83.1091C44.9208 82.4685 44.5928 81.4329 44.5928 80.001L44.5928 24.5065L27.1442 24.5065C25.6385 24.5065 24.5495 24.1946 23.8758 23.554C23.2023 22.9134 22.8216 21.8778 22.8216 20.4459L22.8216 6.76021C22.8216 5.32831 23.2023 4.29272 23.8758 3.65215C24.5495 3.01157 25.6385 2.69975 27.1442 2.69975Z" fill="url(#LinearGradient)" fill-rule="nonzero" filter="url(#Filter_3)" stroke="none"/>
</g>
</g>
</svg>