<svg xmlns="http://www.w3.org/2000/svg" xmlns:xlink="http://www.w3.org/1999/xlink" width="100%" height="100%" version="1.1" viewBox="0 0 100 100" xml:space="preserve"><defs><linearGradient id="LinearGradient_Ligature" x1="-19.11" x2="114.189" y1="90.161" y2="34.24" gradientTransform="matrix(1 0 0 1 5.32907e-15 0)" gradientUnits="userSpaceOnUse"><stop offset=".134" stop-color="#a19d9d"/><stop offset=".862" stop-color="#fffdfd"/></linearGradient><filter id="Filter_Ligature" width="89.84" height="112.5" x="3.343" y="-5.048" color-interpolation-filters="sRGB" filterUnits="userSpaceOnUse"><feDropShadow dx="-1.598" dy="1.203" flood-color="#000" flood-opacity=".6" in="SourceGraphic" result="Shadow" stdDeviation="2.5"/></filter></defs><path id="Ligature-1" fill="url(#LinearGradient_Ligature)" stroke="none" d="M52.9688 0C51.2403 0 49.8953 0.229753 48.7188 0.53125C40.595 1.71285 34.1082 6.01911 29.4688 13.9062C24.9212 21.637 22.6563 31.0603 22.6563 42.1562C22.6562 42.1562 17.1181 42.1563 14.7188 42.1562C14.0206 42.1562 13.519 42.254 13.0938 43.125C12.7427 43.8441 12.6781 47.022 12.6875 47.4688C12.6992 48.0272 12.9876 48.6007 13.5 48.7188C14.1944 48.8787 22.6563 48.7188 22.6563 48.7188L22.6563 90.1875C22.6562 93.7346 21.0923 95.466 18 95.375C18 95.375 15.1631 95.2336 13.4688 95.1875C12.728 95.1673 11.8754 95.7607 11.5 96.4688C11.1765 97.0789 10.9964 98.3182 11.5313 99.0938C12.0219 99.8052 12.5625 100 12.5625 100C12.5625 100 33.3264 100 40.875 100C42.2095 100 42.5056 99.0589 42.6875 98.375C42.8407 97.7989 42.823 96.6012 42.5625 96.1875C42.0827 95.4256 41.2405 95.0353 40.7188 95C34.7482 94.5956 33.4692 93.5298 32.4688 90.4375C32.1959 89.4371 32.0625 85.54 32.0625 78.7188C32.0625 73.8984 32.4688 40.4141 32.4688 35.5938C32.4687 27.3173 33.3004 21.0559 34.9375 16.7812C37.3932 10.0509 42.0565 6.6875 48.9688 6.6875C49.4033 6.6875 49.8014 6.60147 50.2188 6.5625C56.2204 6.81719 59.2434 11.145 59.1562 19.6875L59.1562 37.5938C58.3477 38.4024 56.4297 40.0116 53.375 42.4375C50.5898 44.504 48.3951 46.2037 48.375 47.0312C48.361 47.6075 49.4236 48.5968 50.4062 48.6562C51.3417 48.7129 58.625 48.6562 58.625 48.6562C58.5352 50.9923 58.2617 55.0662 57.8125 60.9062C57.4531 66.1174 57.2813 70.2225 57.2812 73.1875C57.2812 91.0671 61.8671 100 71.0312 100C73.0977 100 76.0078 99.3829 79.7812 98.125C84.1836 96.6875 86.375 95.1837 86.375 93.6562C86.375 93.6562 86.0317 92.479 85.5938 91.9062C85.1558 91.3335 84.0938 91.4062 84.0938 91.4062C82.9258 91.4063 81.8477 91.7011 79.7812 92.375C77.7148 93.0488 76.1406 93.4062 75.0625 93.4062C70.3906 93.4063 68.0625 89.4027 68.0625 81.4062L68.0625 65.5C68.0625 60.5584 68.1992 54.9456 68.4688 48.6562C68.4687 48.6563 81.3749 48.6709 85.8438 48.6562C86.478 48.6542 87.0625 47.5625 87.0625 47.5625C87.0625 47.5625 88.5312 43.2279 88.5312 42.7188C88.5312 42.4102 87.9177 41.6566 87.2813 41.6562C82.3242 41.6533 68.7188 41.6562 68.7188 41.6562L68.4688 31.5312C68.4687 29.3749 68.6406 26.3107 69 22.3125C69.3594 18.3143 69.5312 15.4923 69.5312 13.875C69.5313 9.38264 68.5039 6.06258 66.4375 3.90625C63.9525 1.33247 59.5297 0.0313991 53.1875 0C53.1092-0.000387786 53.0477 0 52.9688 0Z" filter="url(#Filter_Ligature)" shadowAngle="2.496" shadowColor="#000000" shadowOffset="2" shadowOpacity=".6" shadowRadius="5"/></svg>