<svg height="100%" stroke-miterlimit="10" style="fill-rule:nonzero;clip-rule:evenodd;stroke-linecap:round;stroke-linejoin:round;" version="1.1" viewBox="-5.539 -9.61961 110.368 112.346" width="100%" xml:space="preserve" xmlns="http://www.w3.org/2000/svg" xmlns:vectornator="http://vectornator.io" xmlns:xlink="http://www.w3.org/1999/xlink">
<defs>
<radialGradient cx="50.2611" cy="44.8765" gradientTransform="matrix(1.05009 0 0 1.05009 -2.50428 1.66276)" gradientUnits="userSpaceOnUse" id="RadialGradient" r="27.5013">
<stop offset="0" stop-color="#ffec04"/>
<stop offset="0.444737" stop-color="#ffcc00"/>
<stop offset="0.561842" stop-color="#ffb502"/>
<stop offset="1" stop-color="#f4f4f2"/>
</radialGradient>
<radialGradient cx="55.3993" cy="76.832" gradientTransform="matrix(1.07098 0 0 1.05009 -3.46873 1.66276)" gradientUnits="userSpaceOnUse" id="RadialGradient_2" r="21.6493">
<stop offset="0" stop-color="#9fa8da"/>
<stop offset="0.491439" stop-color="#9fa8da"/>
<stop offset="1" stop-color="#000000"/>
</radialGradient>
<filter color-interpolation-filters="sRGB" filterUnits="userSpaceOnUse" height="23.6434" id="Filter" width="30.2497" x="35.0463" y="75.0444">
<feDropShadow dx="6.63615e-17" dy="1.08377" flood-color="#000000" flood-opacity="0.55" in="SourceGraphic" result="Shadow" stdDeviation="1.05722"/>
</filter>
<radialGradient cx="52.5931" cy="75.684" gradientTransform="matrix(1.07008 0 0 1.04801 -3.42358 1.81516)" gradientUnits="userSpaceOnUse" id="RadialGradient_3" r="18.7938">
<stop offset="0.00921053" stop-color="#021df3"/>
<stop offset="1" stop-color="#050025"/>
</radialGradient>
<filter color-interpolation-filters="sRGB" filterUnits="userSpaceOnUse" height="25.6427" id="Filter_2" width="30.2287" x="35.0568" y="77.0841">
<feDropShadow dx="6.63615e-17" dy="1.08377" flood-color="#000000" flood-opacity="0.55" in="SourceGraphic" result="Shadow" stdDeviation="1.05722"/>
</filter>
<filter color-interpolation-filters="sRGB" filterUnits="userSpaceOnUse" height="53.0736" id="Filter_3" width="42.8531" x="28.8683" y="29.7815">
<feDropShadow dx="0.0639509" dy="-0.95929" flood-color="#ffffff" flood-opacity="0.8" in="SourceGraphic" result="Shadow" stdDeviation="2.88426"/>
</filter>
<filter color-interpolation-filters="sRGB" filterUnits="userSpaceOnUse" height="97.8201" id="Filter_4" width="108.453" x="-4.2264" y="-8.307">
<feDropShadow dx="0" dy="-0" flood-color="#ffd9a7" flood-opacity="0.6" in="SourceGraphic" result="Shadow" stdDeviation="3.36497"/>
<feGaussianBlur in="Shadow" result="Blur" stdDeviation="3.6753"/>
</filter>
<filter color-interpolation-filters="sRGB" filterUnits="userSpaceOnUse" height="100.445" id="Filter_5" width="110.368" x="-5.539" y="-9.61961">
<feGaussianBlur in="SourceGraphic" result="Blur" stdDeviation="0.525043"/>
</filter>
<filter color-interpolation-filters="sRGB" filterUnits="userSpaceOnUse" height="95.4914" id="Filter_6" width="64.4343" x="39.082" y="-6.81246">
<feDropShadow dx="0" dy="-0" flood-color="#ffffff" flood-opacity="0.8" in="SourceGraphic" result="Shadow" stdDeviation="3.08091"/>
<feGaussianBlur in="Shadow" result="Blur" stdDeviation="3.6753"/>
</filter>
<filter color-interpolation-filters="sRGB" filterUnits="userSpaceOnUse" height="39.2807" id="Filter_7" width="39.2807" x="30.4485" y="-8.307">
<feDropShadow dx="0" dy="-0" flood-color="#ffd9a7" flood-opacity="0.6" in="SourceGraphic" result="Shadow" stdDeviation="3.36497"/>
<feGaussianBlur in="Shadow" result="Blur" stdDeviation="3.6753"/>
</filter>
<filter color-interpolation-filters="sRGB" filterUnits="userSpaceOnUse" height="62.8352" id="Filter_8" width="63.4585" x="-1.64503" y="-7.32624">
<feDropShadow dx="0" dy="-0" flood-color="#ffd9a7" flood-opacity="0.6" in="SourceGraphic" result="Shadow" stdDeviation="3.36497"/>
<feGaussianBlur in="Shadow" result="Blur" stdDeviation="3.6753"/>
</filter>
<filter color-interpolation-filters="sRGB" filterUnits="userSpaceOnUse" height="69.2958" id="Filter_9" width="48.64" x="-4.2264" y="20.2173">
<feDropShadow dx="0" dy="-0" flood-color="#ffd9a7" flood-opacity="0.6" in="SourceGraphic" result="Shadow" stdDeviation="3.36497"/>
<feGaussianBlur in="Shadow" result="Blur" stdDeviation="3.6753"/>
</filter>
</defs>
<g id="Layer" layerName="Layer">
<g opacity="1" layerName="Group 2">
<path d="M78.6447 46.0083C78.6447 30.3026 65.7946 17.4524 50.0888 17.4524C34.3831 17.4524 21.5331 30.3026 21.5331 46.0083C21.5331 56.2067 26.8363 64.9774 34.7911 70.0766C36.6268 72.3204 37.8506 75.1759 37.8506 78.0315L37.8506 78.6434L62.3271 78.6434L62.3271 78.4394C62.3271 75.3799 63.3469 72.5243 65.1827 70.2807C73.3414 65.1814 78.6447 56.2067 78.6447 46.0083Z" fill="url(#RadialGradient)" fill-rule="nonzero" opacity="1" stroke="none" layerName="path"/>
<path d="M54.3317 94.961L46.0105 94.961C41.4339 94.961 37.6893 91.2895 37.6893 86.8022L37.6893 76.6037L62.6529 76.6037L62.6529 86.8022C62.6529 91.2895 58.9083 94.961 54.3317 94.961" fill="url(#RadialGradient_2)" fill-rule="nonzero" filter="url(#Filter)" stroke="none" layerName="path 1" shadowAngle="1.5708" shadowColor="#000000" shadowOffset="1.08377" shadowOpacity="0.55" shadowRadius="2.11443"/>
<path d="M55.9911 94.7251C55.3674 97.1679 52.8732 99 50.1711 99C47.469 99 44.9747 97.1679 44.3512 94.7251C44.7669 94.9287 45.3904 94.9287 46.014 94.9287L54.3281 94.9287C54.9518 94.9287 55.5753 94.9287 55.9911 94.7251ZM62.6424 86.786L38.3291 89.9071C37.9548 91.1202 39.9745 93.4809 41.8261 93.8629L61.3952 91.0609C62.2267 89.8396 62.6424 88.4146 62.6424 86.786M37.6998 82.104L37.6998 86.1753L62.6424 82.7147L62.6424 78.6434L37.6998 82.104Z" fill="url(#RadialGradient_3)" fill-rule="nonzero" filter="url(#Filter_2)" stroke="none" layerName="path 2" shadowAngle="1.5708" shadowColor="#000000" shadowOffset="1.08377" shadowOpacity="0.55" shadowRadius="2.11443"/>
<path d="M63.5508 42.3367L57.4318 38.2574C56.8199 37.8494 55.8 37.8494 55.1882 38.2574L50.0888 41.5208L45.1936 38.2574C44.5817 37.8494 43.5618 37.8494 42.9499 38.2574L36.8308 42.3367C36.4229 42.7447 36.015 43.1527 36.015 43.7645C36.015 44.3764 36.015 44.9883 36.4229 45.3963L44.1737 54.9829L44.1737 76.6037L48.2531 76.6037L48.2531 54.167C48.2531 53.7591 48.0492 53.3511 47.8452 52.9432L41.1142 44.5805L44.1737 42.5408L49.069 45.8042C49.6809 46.2122 50.7007 46.2122 51.3127 45.8042L56.208 42.5408L59.2675 44.5805L52.5365 52.9432C52.3326 53.3511 52.1285 53.7591 52.1285 54.167L52.1285 76.6037L56.208 76.6037L56.208 54.9829L63.9588 45.3963C64.3668 44.9883 64.5707 44.3764 64.3668 43.7645C64.1628 43.1527 63.9588 42.5408 63.5508 42.3367Z" fill="#fffffd" fill-rule="nonzero" filter="url(#Filter_3)" stroke="none" layerName="path 3" shadowAngle="-1.50423" shadowColor="#ffffff" shadowOffset="0.96142" shadowOpacity="0.8" shadowRadius="5.76852"/>
<path d="M23.3688 71.3005C22.553 70.4846 22.553 69.2607 23.3688 68.4449L23.3688 68.4449C24.1847 67.629 25.4085 67.629 26.2244 68.4449L26.2244 68.4449C27.0403 69.2607 27.0403 70.4846 26.0205 71.3005L26.0205 71.3005C25.6125 71.7084 25.2045 71.9124 24.5927 71.9124L24.5927 71.9124C24.3886 71.9124 23.7767 71.7084 23.3688 71.3005ZM73.9533 71.3005C73.1375 70.4846 73.1375 69.2607 73.9533 68.4449L73.9533 68.4449C74.7692 67.629 75.9931 67.629 76.8089 68.2409L76.8089 68.2409C77.6248 69.0568 77.6248 70.2807 76.8089 71.0965L76.8089 71.0965C76.4009 71.5045 75.7891 71.7084 75.3811 71.7084L75.3811 71.7084C74.7692 71.9124 74.3613 71.7084 73.9533 71.3005ZM18.2696 64.3655C17.6577 63.3457 18.0656 62.1218 19.0855 61.5099L19.0855 61.5099C20.1053 60.8981 21.3291 61.3059 21.941 62.3258L21.941 62.3258C22.553 63.3457 22.145 64.5695 21.1252 65.1814L21.1252 65.1814C20.7172 65.3854 20.5132 65.3854 20.1053 65.3854L20.1053 65.3854C19.2894 65.3854 18.6775 64.9774 18.2696 64.3655ZM79.0526 65.1814C78.0328 64.5695 77.8287 63.3457 78.2367 62.3258L78.2367 62.3258C78.8486 61.3059 80.0725 60.8981 81.0923 61.5099L81.0923 61.5099C82.1122 62.1218 82.3161 63.3457 81.9081 64.3655L81.9081 64.3655L81.9081 64.3655L81.9081 64.3655C81.5003 64.9774 80.8883 65.3854 80.0725 65.3854L80.0725 65.3854C79.6645 65.3854 79.4606 65.1814 79.0526 65.1814ZM15.006 56.6147C14.5982 55.5948 15.21 54.3709 16.4338 54.167L16.4338 54.167C17.4536 53.7591 18.6775 54.3709 18.8814 55.5948L18.8814 55.5948C19.0855 56.6147 18.6775 57.8384 17.4536 58.0425L17.4536 58.0425C17.2497 58.0425 17.0457 58.0425 16.8418 58.0425L16.8418 58.0425C16.0258 58.0425 15.21 57.4306 15.006 56.6147ZM82.724 57.8384C81.7042 57.4306 81.0923 56.4107 81.2962 55.3908L81.2962 55.3908C81.7042 54.3709 82.724 53.7591 83.9479 53.9631L83.9479 53.9631C84.9678 54.167 85.5796 55.3908 85.3756 56.4107L85.3756 56.4107C85.1717 57.2265 84.3558 57.8384 83.3359 57.8384L83.3359 57.8384C83.132 58.0425 82.9281 58.0425 82.724 57.8384ZM13.3743 48.2519C13.3743 48.2519 13.3743 48.048 13.3743 48.2519L13.3743 48.2519C13.3743 48.048 13.3743 48.048 13.3743 48.2519L13.3743 48.2519L13.3743 48.2519L13.3743 48.2519C13.3743 47.0281 14.1902 46.0083 15.414 46.0083L15.414 46.0083C16.6378 46.0083 17.4536 46.8241 17.6577 47.8439L17.6577 47.8439L17.6577 47.8439L17.6577 47.8439L17.6577 47.8439L17.6577 47.8439C17.6577 48.8638 16.8418 49.8836 15.8219 50.0876L15.8219 50.0876C15.8219 50.0876 15.8219 50.0876 15.618 50.0876L15.618 50.0876C14.3941 50.0876 13.5782 49.2717 13.3743 48.2519ZM84.5598 50.0876C83.3359 50.0876 82.5201 49.0678 82.5201 47.8439L82.5201 47.8439C82.5201 46.8241 83.54 45.8042 84.7637 46.0083L84.7637 46.0083C85.7836 46.0083 86.8034 47.0281 86.5995 48.2519L86.5995 48.2519C86.5995 49.2717 85.7836 50.0876 84.5598 50.0876L84.5598 50.0876L84.5598 50.0876ZM82.3161 40.2971C82.1122 39.2772 82.9281 38.0533 83.9479 37.8494L83.9479 37.8494C84.9678 37.6455 86.1915 38.4613 86.3956 39.4811L86.3956 39.4811L86.3956 39.4811L86.3956 39.4811C86.5995 40.705 85.7836 41.7249 84.7637 41.9288L84.7637 41.9288C84.5598 41.9288 84.5598 41.9288 84.3558 41.9288L84.3558 41.9288C83.3359 41.9288 82.3161 41.3169 82.3161 40.2971ZM15.618 41.9288C14.5982 41.7249 13.7822 40.705 13.9862 39.4811L13.9862 39.4811C14.1902 38.4613 15.21 37.6455 16.2299 37.8494L16.2299 37.8494C17.4536 38.0533 18.0656 39.0733 17.8616 40.2971L17.8616 40.2971C17.6577 41.3169 16.8418 41.9288 15.8219 41.9288L15.8219 41.9288L15.618 41.9288ZM80.0725 33.1582C79.6645 32.1383 80.0725 30.9144 81.0923 30.5065L81.0923 30.5065C82.1122 30.0985 83.3359 30.5065 83.7439 31.5263L83.7439 31.5263C84.1518 32.5462 83.7439 33.77 82.724 34.178L82.724 34.178C82.5201 34.178 82.1122 34.3819 81.9081 34.3819L81.9081 34.3819C81.0923 34.3819 80.4804 33.77 80.0725 33.1582ZM17.4536 33.974C16.4338 33.566 16.0258 32.3422 16.4338 31.3224L16.4338 31.3224C16.8418 30.3026 18.0656 29.8946 19.0855 30.3026L19.0855 30.3026C20.1053 30.7105 20.5132 31.9343 20.1053 32.9541L20.1053 32.9541C19.6974 33.77 19.0855 34.178 18.2696 34.178L18.2696 34.178C18.0656 34.178 17.6577 34.178 17.4536 33.974ZM76.197 26.4271C75.5851 25.6112 75.7891 24.3874 76.605 23.5715L76.605 23.5715C77.4208 22.9596 78.8486 23.1635 79.4606 23.9795L79.4606 23.9795C80.0725 24.7954 79.8684 26.2232 79.0526 26.8351L79.0526 26.8351C78.6447 27.039 78.2367 27.243 77.8287 27.243L77.8287 27.243C77.2169 27.243 76.605 27.039 76.197 26.4271ZM21.1252 26.8351C20.3093 26.2232 20.1053 24.9993 20.7172 23.9795L20.7172 23.9795C21.3291 23.1635 22.7569 22.9596 23.5728 23.5715L23.5728 23.5715C24.3886 24.1834 24.5927 25.6112 23.9807 26.4271L23.9807 26.4271C23.5728 27.039 22.9608 27.243 22.3489 27.243L22.3489 27.243C21.941 27.243 21.5331 27.243 21.1252 26.8351ZM71.0978 21.1239C70.2819 20.308 70.078 19.0842 70.8938 18.2684L70.8938 18.2684C71.7097 17.4524 72.9335 17.2484 73.7494 18.0643L73.7494 18.0643C74.5653 18.8802 74.7692 20.104 73.9533 20.9199L73.9533 20.9199C73.5454 21.3279 72.9335 21.5318 72.3216 21.5318L72.3216 21.5318C71.9136 21.5318 71.5057 21.3279 71.0978 21.1239ZM26.2244 20.7159C25.4085 19.9001 25.6125 18.6762 26.4283 17.8604L26.4283 17.8604L26.4283 17.8604L26.4283 17.8604C27.2442 17.0445 28.672 17.2484 29.2839 18.0643L29.2839 18.0643C30.0998 18.8802 29.8958 20.104 29.08 20.9199L29.08 20.9199C28.672 21.3279 28.2641 21.5318 27.8561 21.5318L27.8561 21.5318C27.2442 21.5318 26.6323 21.1239 26.2244 20.7159ZM64.7747 16.8406L64.7747 16.8406C63.7549 16.4326 63.3469 15.0048 63.9588 14.1889L63.9588 14.1889C64.5707 13.169 65.5906 12.7611 66.6105 13.3731L66.6105 13.3731L66.6105 13.3731L66.6105 13.3731C67.6303 13.985 68.0382 15.2087 67.4263 16.0246L67.4263 16.0246C67.0183 16.8406 66.4064 17.2484 65.5906 17.2484L65.5906 17.2484C65.3866 17.0445 64.9786 17.0445 64.7747 16.8406ZM32.7514 15.8207C32.3434 14.8009 32.7514 13.577 33.7712 13.169L33.7712 13.169L33.7712 13.169L33.7712 13.169C34.7911 12.5572 36.015 12.9651 36.4229 13.985L36.4229 13.985C37.0348 15.0048 36.4229 16.2286 35.607 16.6365L35.607 16.6365C35.4031 16.8406 34.9951 16.8406 34.5872 16.8406L34.5872 16.8406C33.7712 17.0445 33.1594 16.6365 32.7514 15.8207ZM57.6357 14.1889C56.6159 13.985 55.8 12.7611 56.004 11.7413L56.004 11.7413C56.208 10.7215 57.4318 9.90557 58.4516 10.1095L58.4516 10.1095L58.4516 10.1095L58.4516 10.1095C59.4715 10.3135 60.2874 11.5373 59.8794 12.5572L59.8794 12.5572C59.6755 13.577 58.8596 14.1889 57.8397 14.1889L57.8397 14.1889C58.0437 14.3929 57.8397 14.1889 57.6357 14.1889ZM40.0943 12.7611C39.8904 11.7413 40.5023 10.5175 41.7261 10.3135L41.7261 10.3135C42.7459 10.1095 43.9698 10.7215 44.1737 11.7413L44.1737 11.7413C44.3777 12.7611 43.7658 13.985 42.7459 14.1889L42.7459 14.1889C42.542 14.1889 42.3381 14.1889 42.3381 14.1889L42.3381 14.1889C41.1142 14.1889 40.2983 13.577 40.0943 12.7611ZM48.0492 11.3334C48.0492 10.1095 48.8651 9.29367 50.0888 9.29367L50.0888 9.29367L50.0888 9.29367L50.0888 9.29367C51.1087 9.29367 52.1285 10.1095 52.1285 11.3334L52.1285 11.3334C52.1285 12.3532 51.1087 13.3731 50.0888 13.3731L50.0888 13.3731C49.069 13.3731 48.0492 12.3532 48.0492 11.3334Z" fill="#fffe9b" fill-rule="nonzero" filter="url(#Filter_4)" stroke="none" blur="7.3506" layerName="path 4" shadowAngle="-1.50423" shadowColor="#ffd9a7" shadowOffset="0" shadowOpacity="0.6" shadowRadius="6.72994"/>
<g filter="url(#Filter_5)" opacity="0.812814" blur="1.05009" layerName="Group 1">
<path d="M73.9533 71.3005C73.1375 70.4846 73.1375 69.2607 73.9533 68.4449L73.9533 68.4449C74.7692 67.629 75.9931 67.629 76.8089 68.2409L76.8089 68.2409C77.6248 69.0568 77.6248 70.2807 76.8089 71.0965L76.8089 71.0965C76.4009 71.5045 75.7891 71.7084 75.3811 71.7084L75.3811 71.7084C74.7692 71.9124 74.3613 71.7084 73.9533 71.3005ZM79.0526 65.1814C78.0328 64.5695 77.8287 63.3457 78.2367 62.3258L78.2367 62.3258C78.8486 61.3059 80.0725 60.8981 81.0923 61.5099L81.0923 61.5099C82.1122 62.1218 82.3161 63.3457 81.9081 64.3655L81.9081 64.3655L81.9081 64.3655L81.9081 64.3655C81.5003 64.9774 80.8883 65.3854 80.0725 65.3854L80.0725 65.3854C79.6645 65.3854 79.4606 65.1814 79.0526 65.1814ZM82.724 57.8384C81.7042 57.4306 81.0923 56.4107 81.2962 55.3908L81.2962 55.3908C81.7042 54.3709 82.724 53.7591 83.9479 53.9631L83.9479 53.9631C84.9678 54.167 85.5796 55.3908 85.3756 56.4107L85.3756 56.4107C85.1717 57.2265 84.3558 57.8384 83.3359 57.8384L83.3359 57.8384C83.132 58.0425 82.9281 58.0425 82.724 57.8384ZM84.5598 50.0876C83.3359 50.0876 82.5201 49.0678 82.5201 47.8439L82.5201 47.8439C82.5201 46.8241 83.54 45.8042 84.7637 46.0083L84.7637 46.0083C85.7836 46.0083 86.8034 47.0281 86.5995 48.2519L86.5995 48.2519C86.5995 49.2717 85.7836 50.0876 84.5598 50.0876L84.5598 50.0876L84.5598 50.0876ZM82.3161 40.2971C82.1122 39.2772 82.9281 38.0533 83.9479 37.8494L83.9479 37.8494C84.9678 37.6455 86.1915 38.4613 86.3956 39.4811L86.3956 39.4811L86.3956 39.4811L86.3956 39.4811C86.5995 40.705 85.7836 41.7249 84.7637 41.9288L84.7637 41.9288C84.5598 41.9288 84.5598 41.9288 84.3558 41.9288L84.3558 41.9288C83.3359 41.9288 82.3161 41.3169 82.3161 40.2971ZM80.0725 33.1582C79.6645 32.1383 80.0725 30.9144 81.0923 30.5065L81.0923 30.5065C82.1122 30.0985 83.3359 30.5065 83.7439 31.5263L83.7439 31.5263C84.1518 32.5462 83.7439 33.77 82.724 34.178L82.724 34.178C82.5201 34.178 82.1122 34.3819 81.9081 34.3819L81.9081 34.3819C81.0923 34.3819 80.4804 33.77 80.0725 33.1582ZM76.197 26.4271C75.5851 25.6112 75.7891 24.3874 76.605 23.5715L76.605 23.5715C77.4208 22.9596 78.8486 23.1635 79.4606 23.9795L79.4606 23.9795C80.0725 24.7954 79.8684 26.2232 79.0526 26.8351L79.0526 26.8351C78.6447 27.039 78.2367 27.243 77.8287 27.243L77.8287 27.243C77.2169 27.243 76.605 27.039 76.197 26.4271ZM71.0978 21.1239C70.2819 20.308 70.078 19.0842 70.8938 18.2684L70.8938 18.2684C71.7097 17.4524 72.9335 17.2484 73.7494 18.0643L73.7494 18.0643C74.5653 18.8802 74.7692 20.104 73.9533 20.9199L73.9533 20.9199C73.5454 21.3279 72.9335 21.5318 72.3216 21.5318L72.3216 21.5318C71.9136 21.5318 71.5057 21.3279 71.0978 21.1239ZM64.7747 16.8406L64.7747 16.8406C63.7549 16.4326 63.3469 15.0048 63.9588 14.1889L63.9588 14.1889C64.5707 13.169 65.5906 12.7611 66.6105 13.3731L66.6105 13.3731L66.6105 13.3731L66.6105 13.3731C67.6303 13.985 68.0382 15.2087 67.4263 16.0246L67.4263 16.0246C67.0183 16.8406 66.4064 17.2484 65.5906 17.2484L65.5906 17.2484C65.3866 17.0445 64.9786 17.0445 64.7747 16.8406ZM57.6357 14.1889C56.6159 13.985 55.8 12.7611 56.004 11.7413L56.004 11.7413C56.208 10.7215 57.4318 9.90557 58.4516 10.1095L58.4516 10.1095L58.4516 10.1095L58.4516 10.1095C59.4715 10.3135 60.2874 11.5373 59.8794 12.5572L59.8794 12.5572C59.6755 13.577 58.8596 14.1889 57.8397 14.1889L57.8397 14.1889C58.0437 14.3929 57.8397 14.1889 57.6357 14.1889Z" fill="#fffe9b" fill-rule="nonzero" filter="url(#Filter_6)" stroke="none" blur="7.3506" layerName="path 4" shadowAngle="-1.50423" shadowColor="#ffffff" shadowOffset="0" shadowOpacity="0.8" shadowRadius="6.16183"/>
<path d="M48.0492 11.3334C48.0492 10.1095 48.8651 9.29367 50.0888 9.29367L50.0888 9.29367L50.0888 9.29367L50.0888 9.29367C51.1087 9.29367 52.1285 10.1095 52.1285 11.3334L52.1285 11.3334C52.1285 12.3532 51.1087 13.3731 50.0888 13.3731L50.0888 13.3731C49.069 13.3731 48.0492 12.3532 48.0492 11.3334Z" fill="#fffe9b" fill-rule="nonzero" filter="url(#Filter_7)" stroke="none" blur="7.3506" layerName="path 5" shadowAngle="-1.50423" shadowColor="#ffd9a7" shadowOffset="0" shadowOpacity="0.6" shadowRadius="6.72994"/>
<path d="M16.2299 37.8494L16.2299 37.8494C17.4536 38.0533 15.21 37.6455 16.2299 37.8494ZM17.4536 33.974C16.4338 33.566 16.0258 32.3422 16.4338 31.3224L16.4338 31.3224C16.8418 30.3026 18.0656 29.8946 19.0855 30.3026L19.0855 30.3026C20.1053 30.7105 20.5132 31.9343 20.1053 32.9541L20.1053 32.9541C19.6974 33.77 19.0855 34.178 18.2696 34.178L18.2696 34.178C18.0656 34.178 17.6577 34.178 17.4536 33.974ZM21.1252 26.8351C20.3093 26.2232 20.1053 24.9993 20.7172 23.9795L20.7172 23.9795C21.3291 23.1635 22.7569 22.9596 23.5728 23.5715L23.5728 23.5715C24.3886 24.1834 24.5927 25.6112 23.9807 26.4271L23.9807 26.4271C23.5728 27.039 22.9608 27.243 22.3489 27.243L22.3489 27.243C21.941 27.243 21.5331 27.243 21.1252 26.8351ZM26.2244 20.7159C25.4085 19.9001 25.6125 18.6762 26.4283 17.8604L26.4283 17.8604L26.4283 17.8604L26.4283 17.8604C27.2442 17.0445 28.672 17.2484 29.2839 18.0643L29.2839 18.0643C30.0998 18.8802 29.8958 20.104 29.08 20.9199L29.08 20.9199C28.672 21.3279 28.2641 21.5318 27.8561 21.5318L27.8561 21.5318C27.2442 21.5318 26.6323 21.1239 26.2244 20.7159ZM32.7514 15.8207C32.3434 14.8009 32.7514 13.577 33.7712 13.169L33.7712 13.169L33.7712 13.169L33.7712 13.169C34.7911 12.5572 36.015 12.9651 36.4229 13.985L36.4229 13.985C37.0348 15.0048 36.4229 16.2286 35.607 16.6365L35.607 16.6365C35.4031 16.8406 34.9951 16.8406 34.5872 16.8406L34.5872 16.8406C33.7712 17.0445 33.1594 16.6365 32.7514 15.8207ZM40.0943 12.7611C39.8904 11.7413 40.5023 10.5175 41.7261 10.3135L41.7261 10.3135C42.7459 10.1095 43.9698 10.7215 44.1737 11.7413L44.1737 11.7413C44.3777 12.7611 43.7658 13.985 42.7459 14.1889L42.7459 14.1889C42.542 14.1889 42.3381 14.1889 42.3381 14.1889L42.3381 14.1889C41.1142 14.1889 40.2983 13.577 40.0943 12.7611Z" fill="#fffe9b" fill-rule="nonzero" filter="url(#Filter_8)" stroke="none" blur="7.3506" layerName="path 6" shadowAngle="-1.50423" shadowColor="#ffd9a7" shadowOffset="0" shadowOpacity="0.6" shadowRadius="6.72994"/>
<path d="M23.3688 71.3005C22.553 70.4846 22.553 69.2607 23.3688 68.4449L23.3688 68.4449C24.1847 67.629 25.4085 67.629 26.2244 68.4449L26.2244 68.4449C27.0403 69.2607 27.0403 70.4846 26.0205 71.3005L26.0205 71.3005C25.6125 71.7084 25.2045 71.9124 24.5927 71.9124L24.5927 71.9124C24.3886 71.9124 23.7767 71.7084 23.3688 71.3005ZM18.2696 64.3655C17.6577 63.3457 18.0656 62.1218 19.0855 61.5099L19.0855 61.5099C20.1053 60.8981 21.3291 61.3059 21.941 62.3258L21.941 62.3258C22.553 63.3457 22.145 64.5695 21.1252 65.1814L21.1252 65.1814C20.7172 65.3854 20.5132 65.3854 20.1053 65.3854L20.1053 65.3854C19.2894 65.3854 18.6775 64.9774 18.2696 64.3655ZM15.006 56.6147C14.5982 55.5948 15.21 54.3709 16.4338 54.167L16.4338 54.167C17.4536 53.7591 18.6775 54.3709 18.8814 55.5948L18.8814 55.5948C19.0855 56.6147 18.6775 57.8384 17.4536 58.0425L17.4536 58.0425C17.2497 58.0425 17.0457 58.0425 16.8418 58.0425L16.8418 58.0425C16.0258 58.0425 15.21 57.4306 15.006 56.6147ZM13.3743 48.2519C13.3743 48.2519 13.3743 48.048 13.3743 48.2519L13.3743 48.2519C13.3743 48.048 13.3743 48.048 13.3743 48.2519L13.3743 48.2519L13.3743 48.2519L13.3743 48.2519C13.3743 47.0281 14.1902 46.0083 15.414 46.0083L15.414 46.0083C16.6378 46.0083 17.4536 46.8241 17.6577 47.8439L17.6577 47.8439L17.6577 47.8439L17.6577 47.8439L17.6577 47.8439L17.6577 47.8439C17.6577 48.8638 16.8418 49.8836 15.8219 50.0876L15.8219 50.0876C15.8219 50.0876 15.8219 50.0876 15.618 50.0876L15.618 50.0876C14.3941 50.0876 13.5782 49.2717 13.3743 48.2519ZM15.618 41.9288C14.5982 41.7249 13.7822 40.705 13.9862 39.4811L13.9862 39.4811C14.1902 38.4613 15.21 37.6455 16.2299 37.8494L16.2299 37.8494C17.4536 38.0533 18.0656 39.0733 17.8616 40.2971L17.8616 40.2971C17.6577 41.3169 16.8418 41.9288 15.8219 41.9288L15.8219 41.9288L15.618 41.9288Z" fill="#fffe9b" fill-rule="nonzero" filter="url(#Filter_9)" stroke="none" blur="7.3506" layerName="path 4" shadowAngle="-1.50423" shadowColor="#ffd9a7" shadowOffset="0" shadowOpacity="0.6" shadowRadius="6.72994"/>
</g>
</g>
</g>
</svg>
