<svg width="100%" height="100%" viewBox="0 0 100 100" xml:space="preserve" xmlns="http://www.w3.org/2000/svg" xmlns:xlink="http://www.w3.org/1999/xlink"><defs><filter color-interpolation-filters="sRGB" filterUnits="userSpaceOnUse" height="106.718" id="Filter_zxcv" width="92.9188" x="3.54058" y="-2.40168"><feDropShadow dx="5.86207e-17" dy="0.957349" flood-color="#000000" flood-opacity="0.6" in="SourceGraphic" result="Shadow" stdDeviation="1.43602"/></filter><filter color-interpolation-filters="sRGB" filterUnits="userSpaceOnUse" height="41.8438" id="Filter_zxcv_2" width="36.4827" x="31.7586" y="30.0355"><feDropShadow dx="5.86207e-17" dy="0.957349" flood-color="#000000" flood-opacity="0.6" in="SourceGraphic" result="Shadow" stdDeviation="1.43602"/></filter></defs><g opacity="1" id="zxcvGroup-15"><path id="zxcv-1" shadowAngle="1.5708" shadowColor="#000000" shadowOffset="0.957349" shadowOpacity="0.6" shadowRadius="2.87205" d="M26.4774 1.74129C23.268 1.8518 20.0487 2.8409 17.228 4.80317L15.5057 5.98326C11.939 8.43302 9.53721 12.2381 8.83974 16.5085C8.14236 20.779 9.20392 25.1392 11.8059 28.5965L23.7664 44.48C28.2471 50.2634 35.9053 52.5539 42.8394 50.221L43.7005 51.3692C39.2632 57.011 39.1714 64.9468 43.5091 70.6655L59.3288 91.6202C64.9537 98.8589 75.2593 100.415 82.7714 95.1605L84.4937 93.9804C88.059 91.5334 90.459 87.7223 91.1596 83.4552C91.8602 79.188 90.7892 74.8257 88.1934 71.3671L72.4056 50.4124C67.7634 44.4209 59.7393 42.1794 52.6629 44.8946L51.9931 44.0335C56.8505 38.4044 57.1204 30.1219 52.631 24.1951L40.7024 8.37536C37.1834 3.85739 31.8264 1.5571 26.4774 1.74129ZM28.8695 7.22715C31.6821 7.65662 34.3328 9.11892 36.2053 11.5329L48.1657 27.3526C50.8438 30.8803 51.0234 35.7253 48.6123 39.4407L39.2991 45.5006C35.1339 46.2445 30.9107 44.6095 28.3273 41.2587L16.3669 25.439C14.6259 23.1324 13.9223 20.2216 14.3894 17.3696C14.8565 14.5178 16.4686 11.9834 18.8546 10.3528L20.5769 9.14083C23.0845 7.39567 26.0569 6.79768 28.8695 7.22715ZM59.4245 49.2004C62.7012 49.3667 65.8124 50.9462 67.8766 53.6338L83.6644 74.6204C85.3834 76.9218 86.107 79.8233 85.6419 82.6578C85.1767 85.4925 83.5729 88.0114 81.2085 89.6427L79.5181 90.8228C74.507 94.324 67.6046 93.293 63.8579 88.4626L48.0701 67.5079C45.5815 64.2044 45.2731 59.742 47.2727 56.1215L56.1075 49.5194C57.2042 49.249 58.3323 49.145 59.4245 49.2004Z" fill="#ff22f0" filter="url(#Filter_zxcv)" stroke="#ff22f0" stroke-linecap="butt" stroke-linejoin="round" stroke-width="3"/><path id="zxcv-1" shadowAngle="1.5708" shadowColor="#000000" shadowOffset="0.957349" shadowOpacity="0.6" shadowRadius="2.87205" fill="#01fbff" filter="url(#Filter_zxcv_2)" d="M62.2536 66.0834C64.3322 64.479 65.5029 60.8808 63.9107 58.7908L45.1702 34.1923C43.5778 32.1023 39.8264 32.3102 37.7451 33.9166C35.6685 35.5236 34.4977 39.1218 36.088 41.2092L54.8285 65.8077C56.4208 67.8978 60.1723 67.6898 62.2536 66.0834Z"/></g></svg>
