<svg width="100%" height="100%" viewBox="0 0 100 100" xml:space="preserve" xmlns="http://www.w3.org/2000/svg" xmlns:xlink="http://www.w3.org/1999/xlink"><defs><linearGradient gradientTransform="matrix(1.00529 0 0 1.00529 -0.664448 -0.596614)" gradientUnits="userSpaceOnUse" id="LinearGradient_zxcv" x1="30.8867" x2="-4.12546" y1="-0.256335" y2="30.8677"><stop offset="0.623684" stop-color="#00ff68"/><stop offset="1" stop-color="#00ff8b"/></linearGradient><filter color-interpolation-filters="sRGB" filterUnits="userSpaceOnUse" height="60.039" id="Filter_zxcv" width="60.5643" x="-1.78159" y="-1"><feDropShadow dx="6.12323e-17" dy="1" flood-color="#000000" flood-opacity="0.44" in="SourceGraphic" result="Shadow" stdDeviation="1"/></filter><linearGradient gradientTransform="matrix(1.00529 0 0 1.00529 -0.664448 -0.596614)" gradientUnits="userSpaceOnUse" id="LinearGradient_zxcv_2" x1="73.5706" x2="38.5584" y1="43.5041" y2="74.6281"><stop offset="0.623684" stop-color="#00ff68"/><stop offset="1" stop-color="#00ff8b"/></linearGradient><filter color-interpolation-filters="sRGB" filterUnits="userSpaceOnUse" height="60.0079" id="Filter_zxcv_2" width="60.6533" x="41.1283" y="42.9921"><feDropShadow dx="6.12323e-17" dy="1" flood-color="#000000" flood-opacity="0.44" in="SourceGraphic" result="Shadow" stdDeviation="1"/></filter><filter color-interpolation-filters="sRGB" filterUnits="userSpaceOnUse" height="42.936" id="Filter_zxcv_3" width="42.9368" x="28.1319" y="29.2001"><feDropShadow dx="6.12323e-17" dy="1" flood-color="#000000" flood-opacity="0.44" in="SourceGraphic" result="Shadow" stdDeviation="1"/></filter></defs><g id="zxcv"><g opacity="1" id="zxcvGroup-1"><path id="zxcv-3" shadowAngle="1.5708" shadowColor="#000000" shadowOffset="1" shadowOpacity="0.44" shadowRadius="2" d="M40.2847 7.7192C31.4205-1.58967 16.5099-1.86686 7.47827 6.7188C-1.4817 15.2333-1.45482 29.2004 7.08431 38.9186L16.571 48.5121C26.0371 57.6993 40.6043 57.7962 49.5673 49.2818C58.5989 40.6992 58.4394 26.423 49.5782 17.1174L40.2847 7.7192ZM31.4672 16.0951L40.7607 25.4933C44.8795 29.8187 44.9652 36.4389 40.7889 40.4045C36.569 44.4147 29.6409 44.2943 25.1742 39.9618L16.0524 30.7373C12.1141 26.2525 12.0367 19.6062 16.2567 15.596C20.433 11.6273 27.3453 11.7727 31.4672 16.0951Z" fill="url(#LinearGradient_zxcv)" filter="url(#Filter_zxcv)"/><path id="zxcv-4" shadowAngle="1.5708" shadowColor="#000000" shadowOffset="1" shadowOpacity="0.44" shadowRadius="2" d="M83.1216 51.6264C74.1979 42.3598 59.2797 42.1599 50.2961 50.7959C41.3837 59.3603 41.4946 73.3329 50.0956 83.0107L59.6437 92.5588C69.1688 101.701 83.7424 101.722 92.6578 93.1575C101.641 84.5246 101.396 70.2435 92.4753 60.9801L83.1216 51.6264ZM74.3509 60.0514L83.7046 69.4051C87.8511 73.7109 87.9767 80.3334 83.8225 84.3223C79.625 88.3559 72.6934 88.2715 68.1989 83.9604L59.018 74.7795C55.0512 70.3134 54.9338 63.6648 59.1314 59.6311C63.2855 55.6391 70.2014 55.7486 74.3509 60.0514Z" fill="url(#LinearGradient_zxcv_2)" filter="url(#Filter_zxcv_2)"/><path id="zxcv-6" shadowAngle="1.5708" shadowColor="#000000" shadowOffset="1" shadowOpacity="0.44" shadowRadius="2" fill="#01fbff" filter="url(#Filter_zxcv_3)" d="M66.4606 66.5281C68.6516 64.3399 69.4693 59.9678 67.2784 57.7769L41.4919 31.9904C39.3009 29.7995 34.9317 30.6172 32.7379 32.8082C30.5498 34.9991 29.732 39.3712 31.9202 41.5593L57.7066 67.3458C59.8976 69.5368 64.2669 68.719 66.4606 66.5281Z"/></g></g></svg>
