<svg height="100%" viewBox="0.555472 5.98797 46.8891 36.0241" width="100%" xml:space="preserve" xmlns="http://www.w3.org/2000/svg" xmlns:vectornator="http://vectornator.io" xmlns:xlink="http://www.w3.org/1999/xlink"><defs><radialGradient cx="23.827" cy="30.9205" gradientTransform="matrix(1.48136 0 0 1.48136 -11.5526 -22.4176)" gradientUnits="userSpaceOnUse" id="RadialGradient" r="19.1875"><stop offset="0.411842" stop-color="#15d24f"/><stop offset="1" stop-color="#05500a"/><stop offset="1" stop-color="#047e10"/></radialGradient></defs><g id="Layer-9" layerName="Layer 9"><path d="M2.27002 9.33226C1.83542 9.33226 1.40082 9.16929 1.12919 8.84334C0.803244 8.57171 0.640269 8.13711 0.640269 7.70251C0.640269 7.26791 0.803244 6.83331 1.12919 6.56169C1.72677 5.96411 2.81327 5.96411 3.41084 6.56169C3.73679 6.88764 3.89977 7.26791 3.89977 7.70251C3.89977 8.13711 3.73679 8.57171 3.41084 8.84334C3.13922 9.16929 2.70462 9.33226 2.27002 9.33226M14.7648 9.33226C14.3302 9.33226 13.8956 9.16929 13.6239 8.84334C13.298 8.57171 13.135 8.13711 13.135 7.70251C13.135 7.26791 13.298 6.83331 13.6239 6.56169C14.2215 5.96411 15.308 5.96411 15.9056 6.56169C16.2315 6.88764 16.3945 7.26791 16.3945 7.70251C16.3945 8.13711 16.2315 8.57171 15.9056 8.84334C15.634 9.16929 15.1994 9.33226 14.7648 9.33226ZM10.4188 9.33226L7.70251 9.33226C6.77899 9.33226 6.07276 8.62604 6.07276 7.70251C6.07276 6.77899 6.77899 6.07276 7.70251 6.07276L10.4188 6.07276C11.3423 6.07276 12.0485 6.77899 12.0485 7.70251C12.0485 8.62604 11.3423 9.33226 10.4188 9.33226M19.1108 20.1973C18.6762 20.1973 18.2416 20.0343 17.9699 19.7083C17.644 19.4367 17.481 19.0021 17.481 18.5675C17.481 18.1329 17.644 17.6983 17.9699 17.4267C18.5675 16.8286 19.654 16.8286 20.2516 17.4267C20.5775 17.7526 20.7405 18.1329 20.7405 18.5675C20.7405 19.0021 20.5775 19.4367 20.2516 19.7083C19.98 20.0343 19.5454 20.1973 19.1108 20.1973ZM14.7648 20.1973L12.0485 20.1973C11.125 20.1973 10.4188 19.491 10.4188 18.5675C10.4188 17.644 11.125 16.9378 12.0485 16.9378L14.7648 16.9378C15.6883 16.9378 16.3945 17.644 16.3945 18.5675C16.3945 19.491 15.6883 20.1973 14.7648 20.1973ZM30.519 20.1973C30.0844 20.1973 29.6498 20.0343 29.3782 19.7083C29.0522 19.4367 28.8892 19.0021 28.8892 18.5675C28.8892 18.1329 29.0522 17.6983 29.3782 17.4267C29.9757 16.8291 31.0622 16.8291 31.6598 17.4267C31.9858 17.7526 32.1487 18.1329 32.1487 18.5675C32.1487 19.0021 31.9858 19.4367 31.6598 19.7083C31.3882 20.0343 30.9536 20.1973 30.519 20.1973ZM39.211 20.1973C38.7764 20.1973 38.3418 20.0343 38.0702 19.7083C37.7442 19.4367 37.5812 19.0021 37.5812 18.5675C37.5812 18.1329 37.7442 17.6983 38.0702 17.4267C38.6677 16.8291 39.7542 16.8291 40.3518 17.4267C40.6778 17.7526 40.8407 18.1329 40.8407 18.5675C40.8407 19.0021 40.6778 19.4367 40.3518 19.7083C40.0802 20.0343 39.6456 20.1973 39.211 20.1973ZM45.73 20.1973L43.557 20.1973C42.6335 20.1973 41.9272 19.491 41.9272 18.5675C41.9272 17.644 42.6335 16.9378 43.557 16.9378L45.73 16.9378C46.6535 16.9378 47.3597 17.644 47.3597 18.5675C47.3597 19.491 46.6535 20.1973 45.73 20.1973ZM26.173 20.1973L23.4568 20.1973C22.5332 20.1973 21.827 19.491 21.827 18.5675C21.827 17.644 22.5332 16.9378 23.4568 16.9378L26.173 16.9378C27.0965 16.9378 27.8027 17.644 27.8027 18.5675C27.8027 19.491 27.0965 20.1973 26.173 20.1973ZM25.0865 9.33226L19.1108 9.33226C18.1872 9.33226 17.481 8.62604 17.481 7.70251C17.481 6.77899 18.1872 6.07276 19.1108 6.07276L25.0865 6.07276C26.01 6.07276 26.7162 6.77899 26.7162 7.70251C26.7162 8.62604 26.01 9.33226 25.0865 9.33226ZM35.9515 9.33226L29.9757 9.33226C29.0522 9.33226 28.346 8.62604 28.346 7.70251C28.346 6.77899 29.0522 6.07276 29.9757 6.07276L35.9515 6.07276C36.875 6.07276 37.5812 6.77899 37.5812 7.70251C37.5812 8.62604 36.875 9.33226 35.9515 9.33226M45.1867 9.33226C44.7521 9.33226 44.3175 9.16929 44.0459 8.84334C43.7194 8.51739 43.557 8.13711 43.557 7.70251C43.557 7.26791 43.72 6.83331 44.0459 6.56169C44.6435 5.96411 45.73 5.96411 46.327 6.56169C46.6535 6.88764 46.8159 7.26791 46.8159 7.70251C46.8159 8.13711 46.653 8.57171 46.327 8.84334C46.0559 9.16929 45.6213 9.33226 45.1867 9.33226M40.8407 9.33226C40.4061 9.33226 39.9715 9.16929 39.6999 8.84334C39.374 8.57171 39.211 8.13711 39.211 7.70251C39.211 7.26791 39.374 6.83331 39.6999 6.56169C40.2975 5.96411 41.384 5.96411 41.981 6.56169C42.3075 6.88764 42.4705 7.26791 42.4705 7.70251C42.4705 8.13711 42.3075 8.57171 41.9816 8.84334C41.7099 9.16929 41.2753 9.33226 40.8407 9.33226M45.1867 14.7648C44.7521 14.7648 44.3175 14.6018 44.0459 14.2758C43.7194 14.0042 43.557 13.5696 43.557 13.135C43.557 12.7004 43.72 12.2658 44.0459 11.9942C44.6435 11.3966 45.73 11.3966 46.327 11.9942C46.6535 12.3201 46.8159 12.7004 46.8159 13.135C46.8159 13.5696 46.653 14.0042 46.327 14.2758C46.0559 14.6018 45.6213 14.7648 45.1867 14.7648M32.692 14.7648C32.2574 14.7648 31.8228 14.6018 31.5512 14.2758C31.2252 14.0042 31.0622 13.5696 31.0622 13.135C31.0622 12.7004 31.2252 12.2658 31.5512 11.9942C32.1487 11.3966 33.2352 11.3966 33.8323 11.9942C34.1588 12.3201 34.3217 12.7004 34.3217 13.135C34.3217 13.5696 34.1588 14.0042 33.8328 14.2758C33.5612 14.6018 33.1266 14.7648 32.692 14.7648ZM39.7542 14.7648L37.038 14.7648C36.1145 14.7648 35.4082 14.0585 35.4082 13.135C35.4082 12.2115 36.1145 11.5053 37.038 11.5053L39.7542 11.5053C40.6778 11.5053 41.384 12.2115 41.384 13.135C41.384 14.0585 40.6778 14.7648 39.7542 14.7648ZM28.346 14.7648L22.3703 14.7648C21.4467 14.7648 20.7405 14.0585 20.7405 13.135C20.7405 12.2115 21.4467 11.5053 22.3703 11.5053L28.346 11.5053C29.2695 11.5053 29.9757 12.2115 29.9757 13.135C29.9757 14.0585 29.2695 14.7648 28.346 14.7648ZM2.27002 14.7648C1.83542 14.7648 1.40082 14.6018 1.12919 14.2758C0.803244 14.0042 0.640269 13.5696 0.640269 13.135C0.640269 12.7004 0.803244 12.2658 1.12919 11.9942C1.72677 11.3966 2.81327 11.3966 3.41084 11.9942C3.73679 12.3201 3.89977 12.7004 3.89977 13.135C3.89977 13.5696 3.73679 14.0042 3.41084 14.2758C3.13922 14.6018 2.70462 14.7648 2.27002 14.7648M6.61601 14.7648C6.18141 14.7648 5.74682 14.6018 5.47519 14.2758C5.14924 14.0042 4.98627 13.5696 4.98627 13.135C4.98627 12.7004 5.14924 12.2658 5.47519 11.9942C6.07276 11.3966 7.15926 11.3966 7.75684 11.9942C8.08279 12.3201 8.24576 12.7004 8.24576 13.135C8.24576 13.5696 8.08279 14.0042 7.75684 14.2758C7.48521 14.6018 7.05061 14.7648 6.61601 14.7648M7.70251 20.1973L2.27002 20.1973C1.34649 20.1973 0.640269 19.491 0.640269 18.5675C0.640269 17.644 1.34649 16.9378 2.27002 16.9378L7.70251 16.9378C8.62604 16.9378 9.33226 17.644 9.33226 18.5675C9.33226 19.491 8.62604 20.1973 7.70251 20.1973ZM2.27002 41.9272C1.83542 41.9272 1.40082 41.7643 1.12919 41.4383C0.803244 41.1124 0.640269 40.7321 0.640269 40.2975C0.640269 39.8629 0.803244 39.4283 1.12919 39.1567C1.72677 38.5585 2.81327 38.5585 3.41084 39.1567C3.73679 39.4826 3.89977 39.8629 3.89977 40.2975C3.89977 40.7321 3.73679 41.1667 3.41084 41.4383C3.13922 41.7643 2.70462 41.9272 2.27002 41.9272ZM14.7648 41.9272C14.3302 41.9272 13.8956 41.7643 13.6239 41.4383C13.298 41.1124 13.135 40.7321 13.135 40.2975C13.135 39.8629 13.298 39.4283 13.6239 39.1567C14.2215 38.5585 15.308 38.5585 15.9056 39.1567C16.2315 39.4826 16.3945 39.8629 16.3945 40.2975C16.3945 40.7321 16.2315 41.1667 15.9056 41.4383C15.634 41.7643 15.1994 41.9272 14.7648 41.9272ZM19.1108 41.9272C18.6762 41.9272 18.2416 41.7643 17.9699 41.4383C17.644 41.1124 17.481 40.7321 17.481 40.2975C17.481 39.8629 17.644 39.4283 17.9699 39.1567C18.5675 38.5585 19.654 38.5585 20.2516 39.1567C20.5775 39.4826 20.7405 39.8629 20.7405 40.2975C20.7405 40.7321 20.5775 41.1667 20.2516 41.4383C19.98 41.7643 19.5454 41.9272 19.1108 41.9272ZM10.4188 41.9272L7.15926 41.9272C6.23574 41.9272 5.52952 41.221 5.52952 40.2975C5.52952 39.374 6.23574 38.6677 7.15926 38.6677L10.4188 38.6677C11.3423 38.6677 12.0485 39.374 12.0485 40.2975C12.0485 41.221 11.3423 41.9272 10.4188 41.9272ZM35.9515 41.9272L29.9757 41.9272C29.0522 41.9272 28.346 41.221 28.346 40.2975C28.346 39.374 29.0522 38.6677 29.9757 38.6677L35.9515 38.6677C36.875 38.6677 37.5812 39.374 37.5812 40.2975C37.5812 41.221 36.875 41.9272 35.9515 41.9272ZM45.1867 41.9272C44.7521 41.9272 44.3175 41.7643 44.0459 41.4383C43.7194 41.1124 43.557 40.7321 43.557 40.2975C43.557 39.8629 43.72 39.4283 44.0459 39.1567C44.6435 38.5585 45.73 38.5585 46.327 39.1567C46.6535 39.4826 46.8159 39.8629 46.8159 40.2975C46.8159 40.7321 46.653 41.1667 46.327 41.4383C46.0559 41.7643 45.6213 41.9272 45.1867 41.9272ZM40.8407 41.9272C40.4061 41.9272 39.9715 41.7643 39.6999 41.4383C39.3734 41.1124 39.211 40.7321 39.211 40.2975C39.211 39.8629 39.374 39.4283 39.6999 39.1567C40.2975 38.5585 41.384 38.5585 41.981 39.1567C42.3075 39.4826 42.4699 39.8629 42.4699 40.2975C42.4699 40.7321 42.307 41.1667 41.981 41.4383C41.7099 41.7643 41.2753 41.9272 40.8407 41.9272ZM45.73 36.4947C45.2954 36.4947 44.8608 36.3318 44.5892 36.0058C44.2627 35.6799 44.1002 35.2996 44.1002 34.865C44.1002 34.4304 44.2632 33.9958 44.5892 33.7242C45.1867 33.126 46.2732 33.126 46.8703 33.7242C47.1968 34.0501 47.3592 34.4304 47.3592 34.865C47.3592 35.2996 47.1962 35.7342 46.8703 36.0058C46.5992 36.3318 46.1646 36.4947 45.73 36.4947ZM33.2352 36.4947C32.8006 36.4947 32.366 36.3318 32.0944 36.0058C31.7679 35.6799 31.6055 35.2996 31.6055 34.865C31.6055 34.4304 31.7685 33.9958 32.0944 33.7242C32.692 33.126 33.7785 33.126 34.3755 33.7242C34.702 34.0501 34.8644 34.4304 34.8644 34.865C34.8644 35.2996 34.7015 35.7342 34.3755 36.0058C34.1044 36.3318 33.6698 36.4947 33.2352 36.4947ZM40.2975 36.4947L37.5812 36.4947C36.6577 36.4947 35.9515 35.7885 35.9515 34.865C35.9515 33.9415 36.6577 33.2352 37.5812 33.2352L40.2975 33.2352C41.221 33.2352 41.9272 33.9415 41.9272 34.865C41.9272 35.7885 41.221 36.4947 40.2975 36.4947ZM28.8892 25.6297C28.4546 25.6297 28.02 25.4668 27.7484 25.1408C27.4225 24.8692 27.2595 24.4346 27.2595 24C27.2595 23.5654 27.4225 23.1308 27.7484 22.8592C28.346 22.2616 29.4325 22.2616 30.0301 22.8592C30.356 23.1851 30.519 23.5654 30.519 24C30.519 24.4346 30.356 24.8692 30.0301 25.1408C29.7584 25.4668 29.3238 25.6297 28.8892 25.6297ZM35.9515 25.6297L33.2352 25.6297C32.3117 25.6297 31.6055 24.9235 31.6055 24C31.6055 23.0765 32.3117 22.3703 33.2352 22.3703L35.9515 22.3703C36.875 22.3703 37.5812 23.0765 37.5812 24C37.5812 24.9235 36.875 25.6297 35.9515 25.6297ZM17.481 25.6297C17.0464 25.6297 16.6118 25.4668 16.3402 25.1408C16.0142 24.8692 15.8513 24.4346 15.8513 24C15.8513 23.5654 16.0142 23.1308 16.3402 22.8592C16.9378 22.2611 18.0243 22.2611 18.6218 22.8592C18.9478 23.1851 19.1108 23.5654 19.1108 24C19.1108 24.4346 18.9478 24.8692 18.6218 25.1408C18.3502 25.4668 17.9156 25.6297 17.481 25.6297ZM13.135 25.6297C12.7004 25.6297 12.2658 25.4668 11.9942 25.1408C11.6682 24.8692 11.5053 24.4346 11.5053 24C11.5053 23.5654 11.6682 23.1308 11.9942 22.8592C12.5918 22.2611 13.6783 22.2611 14.2758 22.8592C14.6018 23.1851 14.7648 23.5654 14.7648 24C14.7648 24.4346 14.6018 24.8692 14.2758 25.1408C14.0042 25.4668 13.5696 25.6297 13.135 25.6297ZM8.78901 25.6297C8.35441 25.6297 7.91981 25.4668 7.64819 25.1408C7.32224 24.8692 7.15926 24.4346 7.15926 24C7.15926 23.5654 7.32224 23.1308 7.64819 22.8592C8.24576 22.2611 9.33226 22.2611 9.92984 22.8592C10.2558 23.1851 10.4188 23.5654 10.4188 24C10.4188 24.4346 10.2558 24.8692 9.92984 25.1408C9.65821 25.4668 9.22361 25.6297 8.78901 25.6297ZM4.44302 25.6297L2.27002 25.6297C1.34649 25.6297 0.640269 24.9235 0.640269 24C0.640269 23.0765 1.34649 22.3703 2.27002 22.3703L4.44302 22.3703C5.36654 22.3703 6.07276 23.0765 6.07276 24C6.07276 24.9235 5.36654 25.6297 4.44302 25.6297ZM28.8892 36.4947L22.9135 36.4947C21.99 36.4947 21.2838 35.7885 21.2838 34.865C21.2838 33.9415 21.99 33.2352 22.9135 33.2352L28.8892 33.2352C29.8128 33.2352 30.519 33.9415 30.519 34.865C30.519 35.7885 29.8128 36.4947 28.8892 36.4947ZM13.6783 36.4947L12.0485 36.4947C11.125 36.4947 10.4188 35.7885 10.4188 34.865C10.4188 33.9415 11.125 33.2352 12.0485 33.2352L13.6783 33.2352C14.6018 33.2352 15.308 33.9415 15.308 34.865C15.308 35.7885 14.6018 36.4947 13.6783 36.4947ZM2.81327 36.4947C2.37867 36.4947 1.94407 36.3318 1.67244 36.0058C1.34649 35.6799 1.18352 35.2996 1.18352 34.865C1.18352 34.4304 1.34649 33.9958 1.67244 33.7242C2.27002 33.126 3.35652 33.126 3.95409 33.7242C4.28004 34.0501 4.44302 34.4304 4.44302 34.865C4.44302 35.2996 4.28004 35.7342 3.95409 36.0058C3.68247 36.3318 3.24787 36.4947 2.81327 36.4947ZM2.81327 31.0622C2.37867 31.0622 1.94407 30.8993 1.67244 30.5733C1.34649 30.3017 1.18352 29.8671 1.18352 29.4325C1.18352 28.9979 1.34649 28.5633 1.67244 28.2917C2.27002 27.6936 3.35652 27.6936 3.95409 28.2917C4.28004 28.6176 4.44302 28.9979 4.44302 29.4325C4.44302 29.8671 4.28004 30.3017 3.95409 30.5733C3.68247 30.8993 3.24787 31.0622 2.81327 31.0622ZM15.308 31.0622C14.8734 31.0622 14.4388 30.8993 14.1672 30.5733C13.8412 30.3017 13.6783 29.8671 13.6783 29.4325C13.6783 28.9979 13.8412 28.5633 14.1672 28.2917C14.7648 27.6936 15.8513 27.6936 16.4488 28.2917C16.7748 28.6176 16.9378 28.9979 16.9378 29.4325C16.9378 29.8671 16.7748 30.3017 16.4488 30.5733C16.1772 30.8993 15.7426 31.0622 15.308 31.0622ZM10.962 31.0622L8.24576 31.0622C7.32224 31.0622 6.61601 30.356 6.61601 29.4325C6.61601 28.509 7.32224 27.8027 8.24576 27.8027L10.962 27.8027C11.8855 27.8027 12.5918 28.509 12.5918 29.4325C12.5918 30.356 11.8855 31.0622 10.962 31.0622ZM25.6297 31.0622L19.654 31.0622C18.7305 31.0622 18.0243 30.356 18.0243 29.4325C18.0243 28.509 18.7305 27.8027 19.654 27.8027L25.6297 27.8027C26.5533 27.8027 27.2595 28.509 27.2595 29.4325C27.2595 30.356 26.5533 31.0622 25.6297 31.0622ZM36.4947 31.0622L30.519 31.0622C29.5955 31.0622 28.8892 30.356 28.8892 29.4325C28.8892 28.509 29.5955 27.8027 30.519 27.8027L36.4947 27.8027C37.4183 27.8027 38.1245 28.509 38.1245 29.4325C38.1245 30.356 37.4183 31.0622 36.4947 31.0622ZM45.73 31.0622C45.2954 31.0622 44.8608 30.8993 44.5892 30.5733C44.2627 30.2474 44.1002 29.8671 44.1002 29.4325C44.1002 28.9979 44.2632 28.5633 44.5892 28.2917C45.1867 27.6936 46.2732 27.6936 46.8703 28.2917C47.1968 28.6176 47.3592 28.9979 47.3592 29.4325C47.3592 29.8671 47.1962 30.3017 46.8703 30.5733C46.5992 30.8993 46.1646 31.0622 45.73 31.0622ZM41.384 31.0622C40.9494 31.0622 40.5148 30.8993 40.2432 30.5733C39.9172 30.3017 39.7542 29.8671 39.7542 29.4325C39.7542 28.9979 39.9172 28.5633 40.2432 28.2917C40.8407 27.6941 41.9272 27.6941 42.5248 28.2917C42.8508 28.6176 43.0137 28.9979 43.0137 29.4325C43.0137 29.8671 42.8508 30.3017 42.5248 30.5733C42.2532 30.8993 41.8186 31.0622 41.384 31.0622ZM45.73 25.6297L40.2975 25.6297C39.374 25.6297 38.6677 24.9235 38.6677 24C38.6677 23.0765 39.374 22.3703 40.2975 22.3703L45.73 22.3703C46.6535 22.3703 47.3597 23.0765 47.3597 24C47.3597 24.9235 46.6535 25.6297 45.73 25.6297Z" fill="url(#RadialGradient)" fill-rule="nonzero" opacity="1" stroke="none" stroke-linecap="round" stroke-linejoin="round" stroke-width="0.169594" layerName="path 3"/></g></svg>
