<svg xmlns="http://www.w3.org/2000/svg" xmlns:xlink="http://www.w3.org/1999/xlink" width="100%" height="100%" viewBox="0 0 100 100" xml:space="preserve"><defs><linearGradient id="LinearGradient" x1="45.983" x2="90.489" y1="34.135" y2="80.462" gradientTransform="matrix(1 0 0 1 0 0)" gradientUnits="userSpaceOnUse"><stop offset="0" stop-color="#26c6da"/><stop offset="1" stop-color="#00f1d5"/></linearGradient><filter id="Filter" width="60.136" height="78.45" x="38.184" y="26.915" color-interpolation-filters="sRGB" filterUnits="userSpaceOnUse"><feDropShadow dx="0" dy="1" flood-color="#000" flood-opacity=".65" in="SourceGraphic" result="Shadow" stdDeviation="2"/></filter><linearGradient id="LinearGradient_2" x1="11.975" x2="51.223" y1="95.29" y2="5.987" gradientTransform="matrix(1 0 0 1 5.32907e-15 0)" gradientUnits="userSpaceOnUse"><stop offset="0" stop-color="#475ac9"/><stop offset="1" stop-color="#0536cc"/></linearGradient><filter id="Filter_2" width="77.688" height="108.73" x="1.68" y="-3.365" color-interpolation-filters="sRGB" filterUnits="userSpaceOnUse"><feDropShadow dx="0" dy="1" flood-color="#000" flood-opacity=".65" in="SourceGraphic" result="Shadow" stdDeviation="2"/></filter></defs><path fill="url(#LinearGradient)" d="M93.32 99.365C42.7729 99.365 42.719 62.9455 43.3163 30.9937L56.7561 31.0377C56.7561 31.0377 49.9946 37.0207 49.9946 37.055C49.9946 37.0893 43.1841 30.9153 43.1841 30.9153L56.7463 31.0132C56.3203 66.1818 57.2163 84.365 93.32 84.365L93.32 99.365Z" filter="url(#Filter)"/><path fill="url(#LinearGradient_2)" d="M49.9925 0.635L25.6175 31.092L42.7737 31.092L42.7737 49.3108C42.7737 73.3799 42.7837 84.365 6.67999 84.365L6.67999 99.365C55.5436 99.365 57.1258 74.9218 57.18 51.717L57.2112 51.717L57.2112 31.092L74.3675 31.092L49.9925 0.635Z" filter="url(#Filter_2)"/></svg>