<svg width="100%" height="100%" viewBox="0 0 100 100" version="1.1" xml:space="preserve" xmlns="http://www.w3.org/2000/svg" xmlns:xlink="http://www.w3.org/1999/xlink"><defs><linearGradient gradientTransform="matrix(73.9799 0 0 73.9799 26.2135 21.0706)" gradientUnits="userSpaceOnUse" id="LG_New" x1="0" x2="1" y1="0" y2="0"><stop offset="0" stop-color="#e9e6ed"/><stop offset="1" stop-color="#f2f0f5"/></linearGradient><filter color-interpolation-filters="sRGB" filterUnits="userSpaceOnUse" height="92.2243" id="F_New" width="98.4114" x="5.23787" y="3.62384"><feDropShadow dx="0.705836" dy="-0.262483" flood-color="#000" flood-opacity="0.5" in="SourceGraphic" result="Shadow" stdDeviation="1.77739"/></filter><linearGradient gradientTransform="matrix(0 -12.2206 12.2206 0 95.1725 89.8131)" gradientUnits="userSpaceOnUse" id="LG_New_2" x1="0" x2="1" y1="0" y2="0"><stop offset="0" stop-color="#e2dee7"/><stop offset="1" stop-color="#e2dee7" stop-opacity="0"/></linearGradient><linearGradient gradientTransform="matrix(0 -11.8924 11.8924 0 95.2807 90.9025)" gradientUnits="userSpaceOnUse" id="LG_New_3" x1="0" x2="1" y1="0" y2="0"><stop offset="0" stop-color="#fffeff"/><stop offset="1" stop-color="#f6f2fa" stop-opacity="0"/></linearGradient><linearGradient gradientTransform="matrix(7.58025 0 0 7.58025 85.0364 93.4758)" gradientUnits="userSpaceOnUse" id="LG_New_4" x1="0" x2="1" y1="0" y2="0"><stop offset="0" stop-color="#faf7fc"/><stop offset="1" stop-color="#fcfaff"/></linearGradient><linearGradient gradientTransform="matrix(2.2167 0 0 2.2167 10.0386 10.4511)" gradientUnits="userSpaceOnUse" id="LG_New_5" x1="0" x2="1" y1="0" y2="0"><stop offset="0" stop-color="#faf7fc"/><stop offset="1" stop-color="#f7f5fa"/></linearGradient><filter color-interpolation-filters="sRGB" filterUnits="userSpaceOnUse" height="84.549" id="F_New_2" width="100.694" x="-2.52901" y="11.5936"><feDropShadow dx="0.705836" dy="-0.262483" flood-color="#000" flood-opacity="0.4" in="SourceGraphic" result="Shadow" stdDeviation="1.89394"/></filter><linearGradient gradientTransform="matrix(0 -5.89381 5.89381 0 64.4046 91.6672)" gradientUnits="userSpaceOnUse" id="LG_New_6" x1="0" x2="1" y1="0" y2="0"><stop offset="0" stop-color="#cfc5d9"/><stop offset="0.983333" stop-color="#f0ebf5" stop-opacity="0"/></linearGradient><filter color-interpolation-filters="sRGB" filterUnits="userSpaceOnUse" height="11.4341" id="F_New_3" width="80.8296" x="6.10584" y="20.7309"><feDropShadow dx="0" dy="-0" flood-color="#000" flood-opacity="0.6" in="SourceGraphic" result="Shadow" stdDeviation="0.874126"/></filter><filter color-interpolation-filters="sRGB" filterUnits="userSpaceOnUse" height="7.80636" id="F_New_4" width="80.8296" x="6.10584" y="33.0317"><feDropShadow dx="0" dy="-0" flood-color="#000" flood-opacity="0.6" in="SourceGraphic" result="Shadow" stdDeviation="0.874126"/></filter><filter color-interpolation-filters="sRGB" filterUnits="userSpaceOnUse" height="7.80636" id="F_New_5" width="28.6477" x="58.2912" y="41.3143"><feDropShadow dx="0" dy="-0" flood-color="#000" flood-opacity="0.6" in="SourceGraphic" result="Shadow" stdDeviation="0.874126"/></filter><filter color-interpolation-filters="sRGB" filterUnits="userSpaceOnUse" height="45.1092" id="F_New_6" width="49.4611" x="6.10584" y="40.7643"><feDropShadow dx="0" dy="-0" flood-color="#000" flood-opacity="0.6" in="SourceGraphic" result="Shadow" stdDeviation="0.874126"/></filter><filter color-interpolation-filters="sRGB" filterUnits="userSpaceOnUse" height="7.80636" id="F_New_7" width="28.6477" x="58.2912" y="52.866"><feDropShadow dx="0" dy="-0" flood-color="#000" flood-opacity="0.6" in="SourceGraphic" result="Shadow" stdDeviation="0.874126"/></filter><filter color-interpolation-filters="sRGB" filterUnits="userSpaceOnUse" height="7.80636" id="F_New_8" width="28.6477" x="58.2912" y="65.4353"><feDropShadow dx="0" dy="-0" flood-color="#000" flood-opacity="0.6" in="SourceGraphic" result="Shadow" stdDeviation="0.874126"/></filter><filter color-interpolation-filters="sRGB" filterUnits="userSpaceOnUse" height="7.80636" id="F_New_9" width="28.6477" x="58.2912" y="76.987"><feDropShadow dx="0" dy="-0" flood-color="#000" flood-opacity="0.6" in="SourceGraphic" result="Shadow" stdDeviation="0.874126"/></filter><linearGradient gradientTransform="matrix(35.2231 -18.3943 18.8148 36.823 12.524 77.6586)" gradientUnits="userSpaceOnUse" id="LG_New_7" x1="0" x2="1" y1="0" y2="0"><stop offset="0" stop-color="#4c61ff"/><stop offset="0.576316" stop-color="#4b57d9"/><stop offset="0.968421" stop-color="#434dbf"/></linearGradient><filter color-interpolation-filters="sRGB" filterUnits="userSpaceOnUse" height="49.4346" id="F_New_10" width="39.7643" x="11.9984" y="40.4727"><feDropShadow dx="-4.75738e-07" dy="0.129516" flood-color="#000" flood-opacity="0.65" in="SourceGraphic" result="Shadow" stdDeviation="0.664748"/></filter></defs><g id="New"><g opacity="1" id="NewGroup-3"><g opacity="1" id="NewGroup-1"><g opacity="1" id="g"><path id="New" shadowAngle="5.92716" shadowColor="#000" shadowOffset="0.753062" shadowOpacity="0.5" shadowRadius="3.55478" fill="url(#LG_New)" fill-rule="nonzero" filter="url(#F_New)" stroke="none" d="M8.9755 12.6943C8.9755 10.2851 10.9308 8.3298 13.34 8.3298L94.1355 8.3298C96.5447 8.3298 98.5 10.2851 98.5 12.6943L98.5 88.1756C98.5 90.1039 96.9368 91.6672 95.0084 91.6672L12.4671 91.6672C10.5387 91.6672 8.9755 90.1039 8.9755 88.1756L8.9755 12.6978L8.9755 12.6943Z"/><path id="New" fill="url(#LG_New_2)" fill-rule="nonzero" opacity="1" stroke="none" d="M8.9755 12.6943C8.9755 10.2851 10.9308 8.3298 13.34 8.3298L94.1355 8.3298C96.5447 8.3298 98.5 10.2851 98.5 12.6943L98.5 88.1756C98.5 90.1039 96.9368 91.6672 95.0084 91.6672L12.4671 91.6672C10.5387 91.6672 8.9755 90.1039 8.9755 88.1756L8.9755 12.6978L8.9755 12.6943Z"/></g><path id="New" fill="url(#LG_New_3)" fill-rule="nonzero" opacity="1" stroke="none" d="M8.9755 16.5979L86.6635 16.5979C89.0727 16.5979 91.028 18.5532 91.028 20.9624L91.028 87.6519C91.028 88.9053 92.0405 89.9214 93.2975 89.9214L95.6893 89.9214C96.8624 89.9214 97.9553 88.7761 97.9553 87.4947L97.9553 11.5176C97.9558 11.1015 97.8958 10.6875 97.7772 10.2886C98.2311 10.9799 98.5 11.8074 98.5 12.6978L98.5 88.1756C98.5 90.1039 96.9368 91.6672 95.0084 91.6672L12.4671 91.6672C10.5387 91.6672 8.9755 90.1039 8.9755 88.1756L8.9755 16.5979Z"/><g opacity="1" id="g"><path id="New" fill="url(#LG_New_4)" fill-rule="nonzero" opacity="1" stroke="none" d="M5.86449 16.5979C3.45529 16.5979 1.5 18.5532 1.5 20.9624L1.5 88.1756C1.5 90.1039 3.06324 91.6672 4.99159 91.6672L92.7179 91.6672L92.7179 91.6532C91.3562 91.517 91.0245 90.2356 91.0245 89.5233L91.0245 20.9659C91.0245 18.5567 89.0692 16.6014 86.66 16.6014L5.86449 16.6014L5.86449 16.5979Z"/><path id="New-6" shadowAngle="5.92716" shadowColor="#000" shadowOffset="0.753062" shadowOpacity="0.4" shadowRadius="3.78788" fill="url(#LG_New_5)" fill-rule="nonzero" filter="url(#F_New_2)" stroke="none" d="M5.87138 16.5909C3.46218 16.5909 1.5 18.5531 1.5 20.9623L1.5 88.1603C1.5 90.0887 3.04961 91.6702 4.97796 91.6702L92.7247 91.6702L92.7247 91.6383C91.3629 91.5021 91.0336 90.2446 91.0336 89.5324L91.0336 20.9623C91.0336 18.5531 89.0714 16.5909 86.6622 16.5909L5.87138 16.5909ZM10.9128 22.9087L82.1313 22.9087C83.5775 22.9087 84.7477 24.0789 84.7477 25.5251L84.7477 27.3758C84.7477 28.8221 83.5775 29.9922 82.1313 29.9922L10.9128 29.9922C9.46656 29.9922 8.29638 28.8221 8.29638 27.3758L8.29638 25.5251C8.29638 24.0789 9.46656 22.9087 10.9128 22.9087ZM10.0194 35.2251L83.0247 35.2251C83.9734 35.2251 84.7477 35.9994 84.7477 36.9482C84.7477 37.8969 83.9734 38.6393 83.0247 38.6393L10.0194 38.6393C9.07066 38.6393 8.29638 37.8969 8.29638 36.9482C8.29638 35.9994 9.07066 35.2251 10.0194 35.2251ZM14.3908 42.9468L47.2559 42.9468C50.6323 42.9468 53.3822 46.171 53.3822 50.1261L53.3822 76.514C53.3822 80.4711 50.6305 83.6932 47.2559 83.6932L14.3908 83.6932C11.0162 83.6932 8.29638 80.4711 8.29638 76.514C8.29638 76.514 8.29638 50.1261 8.29638 50.1261C8.29638 46.171 11.0179 42.9469 14.3908 42.9468ZM62.1888 43.4893L83.0247 43.4893C83.9734 43.4893 84.7477 44.2636 84.7477 45.2123C84.7477 46.1611 83.9734 46.9353 83.0247 46.9353L62.1888 46.9353C61.2401 46.9353 60.4658 46.1611 60.4658 45.2123C60.4658 44.2636 61.2401 43.4893 62.1888 43.4893ZM62.1888 55.0399L83.0247 55.0399C83.9734 55.0399 84.7477 55.8142 84.7477 56.763C84.7477 57.7117 83.9734 58.486 83.0247 58.486L62.1888 58.486C61.2401 58.486 60.4658 57.7117 60.4658 56.763C60.4658 55.8142 61.2401 55.0399 62.1888 55.0399ZM62.1888 67.6116L83.0247 67.6116C83.9734 67.6116 84.7477 68.3859 84.7477 69.3347C84.7477 70.2834 83.9734 71.0577 83.0247 71.0577L62.1888 71.0577C61.2401 71.0577 60.4658 70.2834 60.4658 69.3347C60.4658 68.3859 61.2401 67.6117 62.1888 67.6116ZM62.1888 79.1623L83.0247 79.1623C83.9734 79.1623 84.7477 79.9366 84.7477 80.8853C84.7477 81.8341 83.9734 82.6084 83.0247 82.6084L62.1888 82.6084C61.2401 82.6084 60.4658 81.8341 60.4658 80.8853C60.4658 79.9366 61.2401 79.1623 62.1888 79.1623Z"/><path id="New" fill="url(#LG_New_6)" fill-rule="nonzero" opacity="1" stroke="none" d="M5.86449 16.5979C3.45529 16.5979 1.5 18.5532 1.5 20.9624L1.5 88.1756C1.5 90.1039 3.06324 91.6672 4.99159 91.6672L92.7179 91.6672L92.7179 91.6532C91.3562 91.517 91.0245 90.2356 91.0245 89.5233L91.0245 20.9659C91.0245 18.5567 89.0692 16.6014 86.66 16.6014L5.86449 16.6014L5.86449 16.5979Z"/></g><path id="rect" shadowAngle="5.92716" shadowColor="#000" shadowOffset="0" shadowOpacity="0.6" shadowRadius="1.74825" fill="#9c96a2" fill-rule="nonzero" filter="url(#F_New_3)" stroke="none" d="M10.9098 22.9162L82.1314 22.9162C83.5777 22.9162 84.7501 24.0886 84.7501 25.5349L84.7501 27.361C84.7501 28.8072 83.5777 29.9797 82.1314 29.9797L10.9098 29.9797C9.46358 29.9797 8.29115 28.8072 8.29115 27.361L8.29115 25.5349C8.29115 24.0886 9.46358 22.9162 10.9098 22.9162Z"/><path id="rect" shadowAngle="5.92716" shadowColor="#000" shadowOffset="0" shadowOpacity="0.6" shadowRadius="1.74825" fill="#9c96a2" fill-rule="nonzero" filter="url(#F_New_4)" stroke="none" d="M10.009 35.2171L83.0322 35.2171C83.981 35.2171 84.7501 35.9862 84.7501 36.9349L84.7501 36.9349C84.7501 37.8837 83.981 38.6528 83.0322 38.6528L10.009 38.6528C9.06027 38.6528 8.29115 37.8837 8.29115 36.9349L8.29115 36.9349C8.29115 35.9862 9.06027 35.2171 10.009 35.2171Z"/><path id="rect" shadowAngle="5.92716" shadowColor="#000" shadowOffset="0" shadowOpacity="0.6" shadowRadius="1.74825" fill="#9c96a2" fill-rule="nonzero" filter="url(#F_New_5)" stroke="none" d="M62.1944 43.4996L83.0357 43.4996C83.9845 43.4996 84.7536 44.2687 84.7536 45.2175L84.7536 45.2175C84.7536 46.1662 83.9845 46.9353 83.0357 46.9353L62.1944 46.9353C61.2456 46.9353 60.4765 46.1662 60.4765 45.2175L60.4765 45.2175C60.4765 44.2687 61.2456 43.4996 62.1944 43.4996Z"/><path id="New" shadowAngle="5.92716" shadowColor="#000" shadowOffset="0" shadowOpacity="0.6" shadowRadius="1.74825" fill="#b9b2c1" fill-rule="nonzero" filter="url(#F_New_6)" stroke="none" d="M8.29115 50.1147C8.29115 46.1596 11.0286 42.9496 14.4014 42.9496L47.2713 42.9496C50.6477 42.9496 53.3816 46.1596 53.3816 50.1147L53.3816 76.5231C53.3816 80.4803 50.6459 83.6882 47.2713 83.6882L14.4014 83.6882C11.0268 83.6882 8.29115 80.4803 8.29115 76.5231C8.29115 76.5231 8.29115 50.1147 8.29115 50.1147Z"/><path id="rect" shadowAngle="5.92716" shadowColor="#000" shadowOffset="0" shadowOpacity="0.6" shadowRadius="1.74825" fill="#9c96a2" fill-rule="nonzero" filter="url(#F_New_7)" stroke="none" d="M62.1944 55.0513L83.0357 55.0513C83.9845 55.0513 84.7536 55.8204 84.7536 56.7692L84.7536 56.7692C84.7536 57.7179 83.9845 58.487 83.0357 58.487L62.1944 58.487C61.2456 58.487 60.4765 57.7179 60.4765 56.7692L60.4765 56.7692C60.4765 55.8204 61.2456 55.0513 62.1944 55.0513Z"/><path id="rect" shadowAngle="5.92716" shadowColor="#000" shadowOffset="0" shadowOpacity="0.6" shadowRadius="1.74825" fill="#9c96a2" fill-rule="nonzero" filter="url(#F_New_8)" stroke="none" d="M62.1944 67.6206L83.0357 67.6206C83.9845 67.6206 84.7536 68.3897 84.7536 69.3384L84.7536 69.3384C84.7536 70.2872 83.9845 71.0563 83.0357 71.0563L62.1944 71.0563C61.2456 71.0563 60.4765 70.2872 60.4765 69.3384L60.4765 69.3384C60.4765 68.3897 61.2456 67.6206 62.1944 67.6206Z"/><path id="rect" shadowAngle="5.92716" shadowColor="#000" shadowOffset="0" shadowOpacity="0.6" shadowRadius="1.74825" fill="#9c96a2" fill-rule="nonzero" filter="url(#F_New_9)" stroke="none" d="M62.1944 79.1723L83.0357 79.1723C83.9845 79.1723 84.7536 79.9414 84.7536 80.8901L84.7536 80.8901C84.7536 81.8389 83.9845 82.608 83.0357 82.608L62.1944 82.608C61.2456 82.608 60.4765 81.8389 60.4765 80.8901L60.4765 80.8901C60.4765 79.9414 61.2456 79.1723 62.1944 79.1723Z"/></g><g opacity="1" id="NewGroup-2"><path id="New-1" shadowAngle="1.5708" shadowColor="#000" shadowOffset="0.129516" shadowOpacity="0.65" shadowRadius="1.3295" fill="url(#LG_New_7)" fill-rule="nonzero" filter="url(#F_New_10)" stroke="none" d="M22.4659 42.0051C18.8087 42.0051 15.8426 45.2754 15.8426 49.2743C15.8426 49.7771 15.8977 50.2884 15.995 50.781L17.01 51.0189C17.01 49.1554 17.8354 48.0848 19.3446 48.0848C20.1235 48.0848 20.9295 48.6904 21.7047 49.6179L21.7047 57.0987C21.6812 57.0987 21.6519 57.0987 21.6285 57.0987C18.1048 57.0987 15.2591 59.8502 15.2591 63.3104C15.2591 65.9087 16.9579 67.8544 18.9893 68.4122L19.2685 67.6455C18.8531 67.3779 18.558 66.8928 18.558 66.3503C18.558 64.9691 19.7976 64.5528 21.1464 64.5528C21.3354 64.5528 21.5155 64.5528 21.7047 64.5528L21.7047 73.5931C21.6862 73.5931 21.6716 73.5931 21.6539 73.5931C17.272 73.5931 13.6603 76.6186 13.6603 81.0737C13.6603 85.9398 17.8643 88.6567 21.5777 88.0257L21.8062 86.9947C19.9682 87.1901 18.2788 85.8319 18.2788 83.955C18.2788 82.3784 19.4758 81.391 20.9941 81.3909C22.9326 81.3909 24.3924 82.6264 25.4097 83.7699L32.2105 75.8663L31.4492 75.0733L29.6729 77.1881C27.4229 74.8405 24.9105 74.0028 23.1765 73.7252L23.1765 51.7591C23.3219 52.001 23.4661 52.2488 23.6079 52.4992L41.3461 83.7699L43.35 83.7699L43.3508 51.3625C46.977 51.0846 50.1009 48.6126 50.1009 44.8071C50.1009 43.8554 49.8642 42.9016 49.4411 42.0579L48.7306 42.0315C48.5692 43.6845 47.2627 44.9392 45.5078 44.9392C43.6149 44.9392 42.2719 43.7431 41.3968 42.5866L40.3563 42.5602L33.7585 50.4902L34.5198 51.2833L36.5499 48.9307C37.8087 50.1742 39.6668 51.1663 41.8536 51.3625C41.8536 57.4212 41.8536 63.4636 41.8536 69.5223L29.1399 47.3446C27.7248 44.8636 26.3189 42.0051 22.4659 42.0051Z"/></g></g></g></svg>