<svg xmlns="http://www.w3.org/2000/svg" xmlns:xlink="http://www.w3.org/1999/xlink" width="100%" height="100%" fill="currentColor" viewBox="0 0 100 100" xml:space="preserve"><defs><radialGradient id="RadialGradient_zxcv" cx="49.399" cy="47.863" r="59.57" gradientTransform="matrix(1.05013 0 0 1.05013 -2.51423 -4.96326)" gradientUnits="userSpaceOnUse"><stop offset=".005" stop-color="#fff"/><stop offset=".805" stop-color="#d5d5d5"/></radialGradient><filter id="Filter_zxcv" width="83.837" height="87.118" x="7.252" y="6.964" color-interpolation-filters="sRGB" filterUnits="userSpaceOnUse"><feDropShadow dx="-.669" dy=".743" flood-color="#000" flood-opacity=".5" in="SourceGraphic" result="Shadow" stdDeviation="1"/></filter><filter id="Filter_zxcv_2" width="96.69" height="102.984" x=".978" y="-.757" color-interpolation-filters="sRGB" filterUnits="userSpaceOnUse"><feDropShadow dx="-.669" dy=".743" flood-color="#000" flood-opacity=".5" in="SourceGraphic" result="Shadow" stdDeviation="1"/></filter><linearGradient id="LinearGradient_zxcv" x1="66.522" x2="160.457" y1="57.944" y2="50.186" gradientTransform="matrix(1.05013 0 0 1.05013 -2.51423 -3.53574)" gradientUnits="userSpaceOnUse"><stop offset=".009" stop-color="#283d4f"/><stop offset="1" stop-color="#595e79"/></linearGradient><filter id="Filter_zxcv_3" width="25.845" height="17.507" x="59.331" y="51.383" color-interpolation-filters="sRGB" filterUnits="userSpaceOnUse"><feDropShadow dx="-.669" dy=".743" flood-color="#000" flood-opacity=".5" in="SourceGraphic" result="Shadow" stdDeviation="1"/></filter><linearGradient id="LinearGradient_zxcv_2" x1="76.292" x2="226.965" y1="75.603" y2="71.136" gradientTransform="matrix(1.05013 0 0 1.05013 -2.51423 -3.53574)" gradientUnits="userSpaceOnUse"><stop offset=".009" stop-color="#283d4f"/><stop offset="1" stop-color="#595e79"/></linearGradient><filter id="Filter_zxcv_4" width="25.845" height="9.169" x="59.331" y="68.004" color-interpolation-filters="sRGB" filterUnits="userSpaceOnUse"><feDropShadow dx="-.669" dy=".743" flood-color="#000" flood-opacity=".5" in="SourceGraphic" result="Shadow" stdDeviation="1"/></filter><linearGradient id="LinearGradient_zxcv_3" x1="33.375" x2="34.452" y1="81.254" y2="68.042" gradientTransform="matrix(1.05013 0 0 1.05013 -2.51423 -3.53574)" gradientUnits="userSpaceOnUse"><stop offset=".009" stop-color="#283d4f"/><stop offset="1" stop-color="#292a33"/></linearGradient><filter id="Filter_zxcv_5" width="67.404" height="9.358" x="13.603" y="76.253" color-interpolation-filters="sRGB" filterUnits="userSpaceOnUse"><feDropShadow dx="-.669" dy=".743" flood-color="#000" flood-opacity=".5" in="SourceGraphic" result="Shadow" stdDeviation="1"/></filter><linearGradient id="LinearGradient_zxcv_4" x1="33.375" x2="34.452" y1="81.254" y2="68.042" gradientTransform="matrix(1.05013 0 0 1.05013 -2.51423 -28.5503)" gradientUnits="userSpaceOnUse"><stop offset=".009" stop-color="#283d4f"/><stop offset="1" stop-color="#292a33"/></linearGradient><filter id="Filter_zxcv_6" width="25.845" height="9.169" x="59.331" y="43.045" color-interpolation-filters="sRGB" filterUnits="userSpaceOnUse"><feDropShadow dx="-.669" dy=".743" flood-color="#000" flood-opacity=".5" in="SourceGraphic" result="Shadow" stdDeviation="1"/></filter><linearGradient id="LinearGradient_zxcv_5" x1="33.375" x2="34.452" y1="81.254" y2="68.042" gradientTransform="matrix(1.05013 0 0 1.05013 -2.51423 -36.855)" gradientUnits="userSpaceOnUse"><stop offset="0" stop-color="#2e475c"/><stop offset="1" stop-color="#292e33"/></linearGradient><filter id="Filter_zxcv_7" width="25.845" height="9.169" x="59.331" y="34.74" color-interpolation-filters="sRGB" filterUnits="userSpaceOnUse"><feDropShadow dx="-.669" dy=".743" flood-color="#000" flood-opacity=".5" in="SourceGraphic" result="Shadow" stdDeviation="1"/></filter><linearGradient id="LinearGradient_zxcv_6" x1="72.584" x2="72.584" y1="31.615" y2="21.091" gradientTransform="matrix(1.05013 0 0 1.05013 -2.51423 -3.53574)" gradientUnits="userSpaceOnUse"><stop offset="0" stop-color="#2d4559"/><stop offset="1" stop-color="#3e464d"/></linearGradient><filter id="Filter_zxcv_8" width="71.705" height="13.338" x="13.471" y="18.031" color-interpolation-filters="sRGB" filterUnits="userSpaceOnUse"><feDropShadow dx="-.669" dy=".743" flood-color="#000" flood-opacity=".5" in="SourceGraphic" result="Shadow" stdDeviation="1"/></filter><filter id="Filter_zxcv_9" width="33.48" height="34.781" x="64.203" y="67.462" color-interpolation-filters="sRGB" filterUnits="userSpaceOnUse"><feDropShadow dx="-.669" dy=".743" flood-color="#000" flood-opacity=".5" in="SourceGraphic" result="Shadow" stdDeviation="1"/></filter><linearGradient id="LinearGradient_zxcv_7" x1="17.159" x2="84.804" y1="220.119" y2="212.658" gradientTransform="matrix(1.0458 0 0 1.08936 -16.0151 -179.882)" gradientUnits="userSpaceOnUse"><stop offset="0" stop-color="#4c61ff"/><stop offset=".616" stop-color="#3c3496"/><stop offset="1" stop-color="#332e66"/></linearGradient><filter id="Filter_zxcv_10" width="51.93" height="64.384" x="12.648" y="22.514" color-interpolation-filters="sRGB" filterUnits="userSpaceOnUse"><feDropShadow dx="-.669" dy=".743" flood-color="#000" flood-opacity=".5" in="SourceGraphic" result="Shadow" stdDeviation="1"/></filter></defs><g id="g" opacity="1"><path id="zxcv" fill="url(#RadialGradient_zxcv)" d="M24.9862 8.72128L22.2296 11.4451C20.6995 12.9793 18.6936 13.7751 16.6508 13.7751C15.2055 13.7751 11.9418 13.3276 10.6523 12.5281L10.4211 90.8393L66.4321 90.8393L89.2585 68.1801L89.2585 12.2276C87.916 13.124 84.8518 13.7751 83.3343 13.7751C81.308 13.7751 79.298 12.9918 77.7554 11.4451L74.9989 8.72128L72.275 11.4451C70.7867 12.9334 68.7646 13.7751 66.6635 13.7751C64.5622 13.7751 62.5358 12.9294 61.0517 11.4451L58.3279 8.72128L55.6042 11.4451C54.0616 12.9918 52.0187 13.7751 49.9925 13.7751C47.9663 13.7751 45.9276 12.9918 44.3808 11.4451L41.6571 8.72128L38.9332 11.4451C37.4449 12.9334 35.4229 13.7751 33.3216 13.7751C31.2204 13.7751 29.1941 12.9334 27.7099 11.4451L24.9862 8.72128Z" filter="url(#Filter_zxcv)" shadowangle="2.304" shadowcolor="#000000" shadowoffset="1" shadowopacity=".5" shadowradius="2"/><path id="zxcv" fill="#f2f2f2" d="M4.14755 1L4.34446 95.4067C4.13601 97.4869 5.62347 98.9837 7.46204 98.9837L67.5167 98.9837L95.8374 69.8096L95.8374 1L83.3343 7.29376L74.9989 1L66.6635 7.29376L58.3279 1L49.9925 7.29376L41.6571 1L33.3216 7.29376L24.9862 1L16.6508 7.29376L4.14755 1ZM24.9862 10.1489L27.7099 12.8726C29.1941 14.361 31.2204 15.2027 33.3216 15.2027C35.4229 15.2027 37.4449 14.361 38.9332 12.8726L41.6571 10.1489L44.3808 12.8726C45.9276 14.4194 47.9663 15.2027 49.9925 15.2027C52.0187 15.2027 54.0616 14.4194 55.6042 12.8726L58.3279 10.1489L61.0517 12.8726C62.5358 14.3568 64.5622 15.2027 66.6635 15.2027C68.7646 15.2027 70.7867 14.361 72.275 12.8726L74.9989 10.1489L77.7554 12.8726C79.298 14.4194 81.308 15.2027 83.3343 15.2027C84.8518 15.2027 86.1595 14.7535 87.5019 13.8571L87.5019 69.8096L66.6635 90.6482L12.483 90.6482L12.483 13.9556C13.7723 14.7552 15.2055 15.2027 16.6508 15.2027C18.6936 15.2027 20.6995 14.4068 22.2296 12.8726L24.9862 10.1489Z" filter="url(#Filter_zxcv_2)" shadowangle="2.304" shadowcolor="#000000" shadowoffset="1" shadowopacity=".5" shadowradius="2"/><path id="zxcv" fill="url(#LinearGradient_zxcv)" d="M62.4997 53.1401L83.3451 53.1401L83.3451 57.3092L62.4997 57.3092L62.4997 53.1401ZM62.4997 61.4782L83.3451 61.4782L83.3451 65.6473L62.4997 65.6473L62.4997 61.4782Z" filter="url(#Filter_zxcv_3)" shadowangle="2.304" shadowcolor="#000000" shadowoffset="1" shadowopacity=".5" shadowradius="2"/><path id="zxcv" fill="url(#LinearGradient_zxcv_2)" d="M62.4997 69.7614L83.3451 69.7614L83.3451 73.9306L62.4997 73.9306L62.4997 69.7614Z" filter="url(#Filter_zxcv_4)" shadowangle="2.304" shadowcolor="#000000" shadowoffset="1" shadowopacity=".5" shadowradius="2"/><path id="zxcv" fill="url(#LinearGradient_zxcv_3)" d="M62.4997 78.1545L79.1761 78.1545L79.1761 82.3237L62.4997 82.3237L62.4997 78.1545ZM16.7719 78.0096L54.0527 78.0465L54.0527 82.3681L16.8232 82.3681L16.7719 78.0096Z" filter="url(#Filter_zxcv_5)" shadowangle="2.304" shadowcolor="#000000" shadowoffset="1" shadowopacity=".5" shadowradius="2"/><path id="zxcv" fill="url(#LinearGradient_zxcv_4)" d="M62.4997 44.8019L83.3451 44.8019L83.3451 48.971L62.4997 48.971L62.4997 44.8019Z" filter="url(#Filter_zxcv_6)" shadowangle="2.304" shadowcolor="#000000" shadowoffset="1" shadowopacity=".5" shadowradius="2"/><path id="zxcv" fill="url(#LinearGradient_zxcv_5)" d="M62.4997 36.4971L83.3451 36.4971L83.3451 40.6662L62.4997 40.6662L62.4997 36.4971Z" filter="url(#Filter_zxcv_7)" shadowangle="2.304" shadowcolor="#000000" shadowoffset="1" shadowopacity=".5" shadowradius="2"/><path id="zxcv" fill="url(#LinearGradient_zxcv_6)" d="M16.6399 19.7874L83.3451 19.7874L83.3451 28.1256L16.6399 28.1256L16.6399 19.7874Z" filter="url(#Filter_zxcv_8)" shadowangle="2.304" shadowcolor="#000000" shadowoffset="1" shadowopacity=".5" shadowradius="2"/><path id="zxcv" fill="#7790a6" d="M67.3722 99L67.3722 69.2188L95.8524 69.8466L67.3722 99Z" filter="url(#Filter_zxcv_9)" shadowangle="2.304" shadowcolor="#000000" shadowoffset="1" shadowopacity=".5" shadowradius="2"/><path id="zxcv" fill="url(#LinearGradient_zxcv_7)" d="M27.157 24.2705C22.447 24.2705 18.6271 28.4822 18.6271 33.6323C18.6271 34.2798 18.698 34.9383 18.8233 35.5727L20.1305 35.8791C20.1305 33.4791 21.1935 32.1003 23.1372 32.1003C24.1403 32.1003 25.1783 32.8802 26.1766 34.0747L26.1766 43.7089C26.1464 43.7089 26.1086 43.7089 26.0785 43.7089C21.5405 43.7089 17.8756 47.2525 17.8756 51.7087C17.8756 55.055 20.0634 57.5608 22.6796 58.2791L23.0392 57.2917C22.5042 56.9471 22.1241 56.3224 22.1241 55.6237C22.1241 53.8449 23.7205 53.3088 25.4576 53.3088C25.701 53.3088 25.933 53.3088 26.1766 53.3088L26.1766 64.9514C26.1528 64.9514 26.134 64.9514 26.1112 64.9514C20.4679 64.9514 15.8166 68.8478 15.8166 74.5853C15.8166 80.8522 21.2308 84.3512 26.0131 83.5386L26.3073 82.2108C23.9402 82.4624 21.7645 80.7132 21.7645 78.2961C21.7645 76.2656 23.3061 74.994 25.2615 74.9939C27.758 74.9939 29.638 76.585 30.9481 78.0577L39.7066 67.879L38.7262 66.8577L36.4385 69.5812C33.5408 66.5579 30.3053 65.479 28.0721 65.1215L28.0721 36.8323C28.2593 37.1439 28.445 37.463 28.6277 37.7855L51.472 78.0577L54.0527 78.0577L54.0537 36.3216C58.7238 35.9637 62.7469 32.7801 62.7469 27.8791C62.7469 26.6535 62.4421 25.4251 61.8972 24.3386L60.9822 24.3046C60.7743 26.4334 59.0917 28.0493 56.8317 28.0493C54.3938 28.0493 52.6643 26.5088 51.5372 25.0194L50.1973 24.9854L41.7002 35.1982L42.6806 36.2195L45.2951 33.1897C46.9163 34.7912 49.3093 36.0689 52.1256 36.3216C52.1256 44.1243 52.1256 51.906 52.1256 59.7088L35.7521 31.1471C33.9297 27.9519 32.119 24.2706 27.157 24.2705Z" filter="url(#Filter_zxcv_10)" shadowangle="2.304" shadowcolor="#000000" shadowoffset="1" shadowopacity=".5" shadowradius="2"/></g></svg>