<svg height="100%" stroke-miterlimit="10" style="fill-rule:nonzero;clip-rule:evenodd;stroke-linecap:round;stroke-linejoin:round;" version="1.1" viewBox="1.54482 5.22682 95.0944 90.913" width="100%" xml:space="preserve" xmlns="http://www.w3.org/2000/svg" xmlns:vectornator="http://vectornator.io" xmlns:xlink="http://www.w3.org/1999/xlink">
<defs>
<filter color-interpolation-filters="sRGB" filterUnits="userSpaceOnUse" height="90.913" id="Filter" width="95.0944" x="1.54482" y="5.22682">
<feDropShadow dx="-0.907979" dy="0.683298" flood-color="#000000" flood-opacity="0.6" in="SourceGraphic" result="Shadow" stdDeviation="0.618878"/>
</filter>
</defs>
<g filter="url(#Filter)" shadowAngle="2.49646" shadowColor="#000000" shadowOffset="1.13636" shadowOpacity="0.6" shadowRadius="1.23776">
<path d="M96 29.0911L87.6364 27.0002L83.4545 27.0002L73 29.0911L64.6364 24.9093L64.6364 18.6366C64.6364 18.6366 59.3882 12.9556 57.4144 11.1846C51.5807 5.94892 47.9091 6.0911 47.9091 6.0911L35.3636 18.6366L27 18.6366L22.8182 22.8184L20.7273 27.0002L14.4545 37.4547L14.4545 54.182L18.6364 60.4547L10.2727 62.5456L4 73.0002L12.3636 79.2729L20.7273 87.6366L24.9091 89.7275L31.0832 91.7837L58.375 93.9062L73 83.4547L89.6906 79.2462L91.8125 74.938L89.5784 60.1162L85.5455 50.0002L93.9091 35.3638L96 29.0911Z" fill="#e0e0e0" fill-rule="nonzero" opacity="1" stroke="none"/>
<path d="M96 29.0911L87.6364 27.0002L83.4545 27.0002L73 29.0911L64.6364 24.9093L64.6364 18.6366C64.6364 18.6366 59.3882 12.9556 57.4144 11.1846C51.5807 5.94892 47.9091 6.0911 47.9091 6.0911L35.3636 18.6366L27 18.6366L22.8182 22.8184L20.7273 27.0002L14.4545 37.4547L14.4545 54.182L18.6364 60.4547L10.2727 62.5456L4 73.0002L12.3636 79.2729L20.7273 87.6366L24.9091 89.7275L33.2419 85.5414L35.2799 81.5044L48.1812 72.8961L56.1618 83.4688L65.6875 75.3249L73 66.7344L75.1238 64.5941L77.1613 61.7131L85.5455 50.0002L93.9091 35.3638L96 29.0911Z" fill="#e0e0e0" fill-rule="nonzero" opacity="1" stroke="none"/>
<path d="M47.9091 89.7275L58.3636 93.9093L73 83.4547L80.9789 70.4346L77.1797 61.7072L48.1391 72.9981L35.3636 81.3617L33.2727 85.5436L24.9091 89.7254L31.1818 91.8163L47.9091 89.7254L47.9091 89.7275Z" fill="#919191" fill-rule="nonzero" opacity="1" stroke="none"/>
<path d="M47.9091 89.7275L58.3636 93.9093L62.5998 83.324L73 83.4547L80.9789 70.4346L77.1797 61.7072L65.3669 75.5217L56.2807 83.3035L48.1391 72.9981L35.3636 81.3617L33.2727 85.5436L24.9091 89.7254L31.1818 91.8163L47.9091 89.7254L47.9091 89.7275Z" fill="#919191" fill-rule="nonzero" opacity="1" stroke="none"/>
<g opacity="1">
<path d="M47.9091 89.7275L48.1391 72.9981L35.3636 81.3617L47.9091 89.7254L47.9091 89.7275Z" fill="#959595" fill-rule="nonzero" opacity="1" stroke="none"/>
<path d="M47.9091 89.7275L33.2727 85.5436L24.9091 89.7254L31.1818 91.8163L47.9091 89.7254L47.9091 89.7275Z" fill="#8a8a8a" fill-rule="nonzero" opacity="1" stroke="none"/>
<path d="M47.9091 89.7275L58.3636 93.9093L56.2807 83.3035L48.1391 72.9981L47.9091 89.7254L47.9091 89.7275Z" fill="#959595" fill-rule="nonzero" opacity="1" stroke="none"/>
<path d="M47.9091 89.7275L35.3636 81.3617L33.2727 85.5436L47.9091 89.7254L47.9091 89.7275Z" fill="#919191" fill-rule="nonzero" opacity="1" stroke="none"/>
<path d="M58.3636 93.9093L62.5998 83.324L73 83.4547L80.9789 70.4346L77.1797 61.7072L65.3669 75.5217L56.2807 83.3035L58.3636 93.9093Z" fill="#919191" fill-rule="nonzero" opacity="1" stroke="none"/>
<path d="M73 83.4547L80.9789 70.4346L77.1797 61.7072L65.3669 75.5217L73 83.4547Z" fill="#919191" fill-rule="nonzero" opacity="1" stroke="none"/>
<path d="M78.0261 75.253L80.9789 70.4346L77.35 61.71L73.1729 66.4162L78.0261 75.253Z" fill="#919191" fill-rule="nonzero" opacity="1" stroke="none"/>
<path d="M58.3636 93.9093L56.2807 83.3035L48.1391 72.9981L58.3636 93.9093Z" fill="#919191" fill-rule="nonzero" opacity="1" stroke="none"/>
</g>
<path d="M45.8182 24.9093L31.1818 22.8184L22.8182 22.8184L20.7273 27.0002L14.4545 37.4547L14.4545 54.182L20.4262 45.8184L26.9979 43.7275L33.2706 39.5456L37.4525 37.4547L41.6343 33.2729L49.9979 31.182L64.6343 24.9093L64.6343 18.6366L58.3615 22.8184L45.8161 24.9093L45.8182 24.9093Z" fill="#9e9e9e" fill-rule="nonzero" opacity="1" stroke="none"/>
<path d="M48.1391 73.0002L41.6364 64.6366L35.3636 66.7275L24.9091 66.7275L16.5455 73.0002L4 73.0002L12.3636 79.2729L20.7273 87.6366L24.9091 89.7275L33.2727 85.5456L35.3636 81.3638L48.1391 73.0002Z" fill="#b1b1b1" fill-rule="nonzero" opacity="1" stroke="none"/>
<path d="M31.1818 33.2729L22.8182 22.8184L37.4545 29.0911L41.6364 33.2729L37.4545 37.4547L33.2727 39.5456L31.1818 33.2729Z" fill="#919191" fill-rule="nonzero" opacity="1" stroke="none"/>
<path d="M47.7142 89.7277L31.0832 91.7837L58.375 93.9062L47.7142 89.7277Z" fill="#e0e0e0" fill-rule="nonzero" opacity="1" stroke="none"/>
<path d="M73 83.4688L62.5312 83.4688L58.375 93.9062L73 83.4688Z" fill="#b1b1b1" fill-rule="nonzero" opacity="1" stroke="none"/>
<path d="M85.5312 50L80.9687 70.4375L73 83.4688L89.7187 79.2812L91.8125 75.0938L89.7187 60.4688L85.5312 50Z" fill="#b1b1b1" fill-rule="nonzero" opacity="1" stroke="none"/>
<path d="M87.6364 27.0002L96 29.0911L93.9091 35.3638L87.6364 27.0002Z" fill="#b1b1b1" fill-rule="nonzero" opacity="1" stroke="none"/>
<path d="M85.5455 50.0002L77.1818 61.7093L80.9789 70.4346L85.5434 49.9981L85.5455 50.0002Z" fill="#9e9e9e" fill-rule="nonzero" opacity="1" stroke="none"/>
<path d="M50.0836 52.0911L50.69 53.0216L65.4121 75.6159L72.9979 66.7254L52.0888 47.9072L33.2706 45.8163L22.8161 47.9072L14.4525 54.1799L18.6343 60.4526L18.6343 66.7254L24.907 66.7254L37.4525 58.3617L39.5434 54.1799L43.6206 52.0911L50.0815 52.0911L50.0836 52.0911Z" fill="#b1b1b1" fill-rule="nonzero" opacity="1" stroke="none"/>
<g opacity="1">
<path d="M50.0836 52.0911L50.69 53.0216L52.0888 47.9072L33.2706 45.8163L43.6206 52.0911L50.0815 52.0911L50.0836 52.0911Z" fill="#ababab" fill-rule="nonzero" opacity="1" stroke="none"/>
<path d="M33.2706 45.8163L39.5434 54.1799L43.6206 52.0911L33.2706 45.8163Z" fill="#ababab" fill-rule="nonzero" opacity="1" stroke="none"/>
<path d="M33.2706 45.8163L37.4525 58.3617L39.5434 54.1799L33.2706 45.8163Z" fill="#ababab" fill-rule="nonzero" opacity="1" stroke="none"/>
</g>
<path d="M65.4121 75.6159L56.2727 83.4547L41.6364 64.6366L45.8182 56.2729L50.69 53.0236L65.4142 75.618L65.4121 75.6159ZM31.1818 22.8184L35.3636 18.6366L45.8182 24.9093L31.1818 22.8184ZM52.0909 47.9093L73 66.7275L77.35 61.71L85.5455 50.0002L93.9091 35.3638L87.6364 27.0002L83.4545 27.0002L81.3636 33.2729L64.6364 24.9093L60.4545 37.4547L52.0909 47.9093ZM18.6364 66.7275L10.2727 62.5456L18.6364 60.4547L18.6364 66.7275ZM33.2727 45.8184L33.2727 39.5456L52.0909 47.9093L33.2727 45.8184Z" fill="#c4c4c4" fill-rule="nonzero" opacity="1" stroke="none"/>
<path d="M31.1818 22.8184L22.8182 22.8184L27 18.6366L35.3636 18.6366L31.1818 22.8184ZM50 31.182L41.6364 33.2729L60.4545 37.4547L64.6364 24.9093L50 31.182Z" fill="#eeeeee" fill-rule="nonzero" opacity="1" stroke="none"/>
<path d="M41.6364 43.2612L41.6364 33.2729L37.4545 37.4547L33.2727 39.5456L52.0909 47.9093L60.4545 37.4547L54.1818 40.8525L41.6364 43.2633M50.0836 52.0932L43.6227 52.0932L39.5455 54.1841L37.4545 58.3659L24.9091 66.7296L35.3636 66.7296L41.6364 64.6386L45.8182 56.275L50.69 53.0236L50.0836 52.0932Z" fill="#eeeeee" fill-rule="nonzero" opacity="1" stroke="none"/>
</g>
</svg>