<svg height="100%" viewBox="0 0 100 100" width="100%" xml:space="preserve" xmlns="http://www.w3.org/2000/svg" xmlns:vectornator="http://vectornator.io" xmlns:xlink="http://www.w3.org/1999/xlink">
<defs>
<filter color-interpolation-filters="sRGB" filterUnits="userSpaceOnUse" height="69.8555" id="Filter" width="61.4913" x="2.013" y="19.9798">
<feDropShadow dx="-2.81028e-06" dy="0.765076" flood-color="#000000" flood-opacity="0.55" in="SourceGraphic" result="Shadow" stdDeviation="1.07847"/>
</filter>
<filter color-interpolation-filters="sRGB" filterUnits="userSpaceOnUse" height="61.932" id="Filter_2" width="54.5995" x="5.45963" y="22.6761">
<feDropShadow dx="-2.81028e-06" dy="0.765076" flood-color="#000000" flood-opacity="0.55" in="SourceGraphic" result="Shadow" stdDeviation="1.07847"/>
</filter>
<filter color-interpolation-filters="sRGB" filterUnits="userSpaceOnUse" height="49.3142" id="Filter_3" width="42.0744" x="11.189" y="32.078">
<feDropShadow dx="-2.81028e-06" dy="0.765076" flood-color="#000000" flood-opacity="0.55" in="SourceGraphic" result="Shadow" stdDeviation="1.07847"/>
</filter>
<filter color-interpolation-filters="sRGB" filterUnits="userSpaceOnUse" height="69.854" id="Filter_4" width="61.4958" x="19.8223" y="1.01759">
<feDropShadow dx="-2.81028e-06" dy="0.765076" flood-color="#000000" flood-opacity="0.55" in="SourceGraphic" result="Shadow" stdDeviation="1.07847"/>
</filter>
<filter color-interpolation-filters="sRGB" filterUnits="userSpaceOnUse" height="61.9245" id="Filter_5" width="54.5936" x="23.2749" y="3.71386">
<feDropShadow dx="-2.81028e-06" dy="0.765076" flood-color="#000000" flood-opacity="0.55" in="SourceGraphic" result="Shadow" stdDeviation="1.07847"/>
</filter>
<filter color-interpolation-filters="sRGB" filterUnits="userSpaceOnUse" height="49.3112" id="Filter_6" width="42.0718" x="29.0032" y="13.1069">
<feDropShadow dx="-2.81028e-06" dy="0.765076" flood-color="#000000" flood-opacity="0.55" in="SourceGraphic" result="Shadow" stdDeviation="1.07847"/>
</filter>
<filter color-interpolation-filters="sRGB" filterUnits="userSpaceOnUse" height="67.0143" id="Filter_7" width="58.9987" x="38.8787" y="33.3576">
<feDropShadow dx="-2.69604e-06" dy="0.733974" flood-color="#000000" flood-opacity="0.55" in="SourceGraphic" result="Shadow" stdDeviation="1.03463"/>
</filter>
<filter color-interpolation-filters="sRGB" filterUnits="userSpaceOnUse" height="59.4057" id="Filter_8" width="52.3828" x="42.1909" y="35.9613">
<feDropShadow dx="-2.69604e-06" dy="0.733974" flood-color="#000000" flood-opacity="0.55" in="SourceGraphic" result="Shadow" stdDeviation="1.03463"/>
</filter>
<filter color-interpolation-filters="sRGB" filterUnits="userSpaceOnUse" height="47.3023" id="Filter_9" width="40.3629" x="47.6888" y="44.9696">
<feDropShadow dx="-2.69604e-06" dy="0.733974" flood-color="#000000" flood-opacity="0.55" in="SourceGraphic" result="Shadow" stdDeviation="1.03463"/>
</filter>
</defs>
<g opacity="1">
<g opacity="1">
<path d="M60.8081 80.52C60.8081 83.7567 57.8156 86.3741 54.1114 86.3741L11.4074 86.3741C7.70618 86.3741 4.70918 83.7567 4.70918 80.52L4.70918 27.7635C4.70918 24.5327 7.70172 21.9109 11.4074 21.9109L54.1114 21.9109C57.8156 21.9109 60.8081 24.5327 60.8081 27.7635L60.8081 80.52" fill="#d0d2d3" fill-rule="nonzero" filter="url(#Filter)" stroke="none" shadowAngle="1.5708" shadowColor="#000000" shadowOffset="0.765076" shadowOpacity="0.55" shadowRadius="2.15694"/>
<path d="M57.363 76.0133C57.363 78.8466 54.7307 81.1468 51.4896 81.1468L14.0307 81.1468C10.7866 81.1468 8.15581 78.8466 8.15581 76.0133L8.15581 29.7406C8.15581 26.9074 10.7866 24.6072 14.0307 24.6072L51.4896 24.6072C54.7322 24.6072 57.363 26.9074 57.363 29.7406L57.363 76.0133" fill="#ffffff" fill-rule="nonzero" filter="url(#Filter_2)" stroke="none" shadowAngle="1.5708" shadowColor="#000000" shadowOffset="0.765076" shadowOpacity="0.55" shadowRadius="2.15694"/>
<path d="M15.5657 37.0463L48.8901 37.0463C51.1263 37.0463 51.1263 34.0091 48.8901 34.0091L15.5657 34.0091C13.325 34.0091 13.325 37.0463 15.5657 37.0463M15.5657 43.2041L48.8901 43.2041C51.1263 43.2041 51.1263 40.1728 48.8901 40.1728L15.5657 40.1728C13.325 40.1713 13.325 43.2041 15.5657 43.2041M15.5657 49.5003L48.8901 49.5003C51.1263 49.5003 51.1263 46.4691 48.8901 46.4691L15.5657 46.4691C13.325 46.4691 13.325 49.5003 15.5657 49.5003M15.5657 55.6581L48.8901 55.6581C51.1263 55.6581 51.1263 52.6269 48.8901 52.6269L15.5657 52.6269C13.325 52.6269 13.325 55.6581 15.5657 55.6581M15.5657 77.9309L30.8991 77.9309C33.1338 77.9309 33.1338 74.8997 30.8991 74.8997L15.5657 74.8997C13.325 74.8997 13.325 77.9309 15.5657 77.9309" fill="#34484c" fill-rule="nonzero" filter="url(#Filter_3)" stroke="none" shadowAngle="1.5708" shadowColor="#000000" shadowOffset="0.765076" shadowOpacity="0.55" shadowRadius="2.15694"/>
</g>
<g opacity="1">
<path d="M78.6219 61.5563C78.6219 64.7945 75.6145 67.4104 71.9267 67.4104L29.2138 67.4104C25.5185 67.4104 22.5185 64.7945 22.5185 61.5563L22.5185 8.80127C22.5185 5.57052 25.511 2.94869 29.2138 2.94869L71.9267 2.94869C75.6219 2.94869 78.6219 5.57052 78.6219 8.80127L78.6219 61.5563" fill="#d0d2d3" fill-rule="nonzero" filter="url(#Filter_4)" stroke="none" shadowAngle="1.5708" shadowColor="#000000" shadowOffset="0.765076" shadowOpacity="0.55" shadowRadius="2.15694"/>
<path d="M75.1723 57.0452C75.1723 59.8769 72.5445 62.1772 69.3004 62.1772L31.8415 62.1772C28.6004 62.1772 25.9711 59.8769 25.9711 57.0452L25.9711 10.7725C25.9711 7.93924 28.6004 5.64496 31.8415 5.64496L69.3004 5.64496C72.546 5.64496 75.1723 7.93924 75.1723 10.7725L75.1723 57.0452" fill="#ffffff" fill-rule="nonzero" filter="url(#Filter_5)" stroke="none" shadowAngle="1.5708" shadowColor="#000000" shadowOffset="0.765076" shadowOpacity="0.55" shadowRadius="2.15694"/>
<path d="M33.3765 18.0707L66.6949 18.0707C68.9401 18.0707 68.9401 15.038 66.6949 15.038L33.3765 15.038C31.1403 15.038 31.1403 18.0707 33.3765 18.0707M33.3765 24.2329L66.6949 24.2329C68.9401 24.2329 68.9401 21.2017 66.6949 21.2017L33.3765 21.2017C31.1403 21.2017 31.1403 24.2329 33.3765 24.2329M33.3765 30.5307L66.6949 30.5307C68.9401 30.5307 68.9401 27.492 66.6949 27.492L33.3765 27.492C31.1403 27.4935 31.1403 30.5307 33.3765 30.5307M33.3765 36.6885L66.6949 36.6885C68.9401 36.6885 68.9401 33.6572 66.6949 33.6572L33.3765 33.6572C31.1403 33.6557 31.1403 36.6885 33.3765 36.6885M33.3765 58.9568L48.7129 58.9568C50.9476 58.9568 50.9476 55.9256 48.7129 55.9256L33.3765 55.9256C31.1403 55.9256 31.1403 58.9568 33.3765 58.9568" fill="#34484c" fill-rule="nonzero" filter="url(#Filter_6)" stroke="none" shadowAngle="1.5708" shadowColor="#000000" shadowOffset="0.765076" shadowOpacity="0.55" shadowRadius="2.15694"/>
</g>
<g opacity="1">
<g opacity="1">
<path d="M95.2908 91.4367C95.2908 94.5418 92.4199 97.0513 88.8678 97.0513L47.8941 97.0513C44.3433 97.0513 41.4653 94.5418 41.4653 91.4367L41.4653 40.8248C41.4653 37.7268 44.3505 35.2101 47.8941 35.2101L88.8678 35.2101C92.4157 35.2101 95.2908 37.7254 95.2908 40.8248L95.2908 91.4367" fill="#d0d2d3" fill-rule="nonzero" filter="url(#Filter_7)" stroke="none" shadowAngle="1.5708" shadowColor="#000000" shadowOffset="0.733974" shadowOpacity="0.55" shadowRadius="2.06926"/>
<path d="M91.9872 87.1232C91.9872 89.8441 89.4591 92.0465 86.3497 92.0465L50.4136 92.0465C47.3028 92.0465 44.7775 89.8441 44.7775 87.1232L44.7775 42.7316C44.7775 40.015 47.3042 37.8139 50.4136 37.8139L86.3497 37.8139C89.4605 37.8139 91.9872 40.015 91.9872 42.7316L91.9872 87.1232" fill="#ffffff" fill-rule="nonzero" filter="url(#Filter_8)" stroke="none" shadowAngle="1.5708" shadowColor="#000000" shadowOffset="0.733974" shadowOpacity="0.55" shadowRadius="2.06926"/>
<path d="M51.8833 49.7374L83.853 49.7374C86.0026 49.7374 86.0026 46.8222 83.853 46.8222L51.8833 46.8222C49.7394 46.8222 49.7394 49.7374 51.8833 49.7374M51.8833 55.6434L83.853 55.6434C86.0026 55.6434 86.0026 52.7354 83.853 52.7354L51.8833 52.7354C49.7394 52.734 49.7394 55.6434 51.8833 55.6434M51.8833 61.6851L83.853 61.6851C86.0026 61.6851 86.0026 58.7771 83.853 58.7771L51.8833 58.7771C49.7394 58.7771 49.7394 61.6851 51.8833 61.6851M51.8833 67.5983L83.853 67.5983C86.0026 67.5983 86.0026 64.6831 83.853 64.6831L51.8833 64.6831C49.7394 64.6831 49.7394 67.5983 51.8833 67.5983M51.8833 88.9514L66.6005 88.9514C68.7444 88.9514 68.7444 86.0448 66.6005 86.0448L51.8833 86.0448C49.7394 86.0448 49.7394 88.9514 51.8833 88.9514" fill="#34484c" fill-rule="nonzero" filter="url(#Filter_9)" stroke="none" shadowAngle="1.5708" shadowColor="#000000" shadowOffset="0.733974" shadowOpacity="0.55" shadowRadius="2.06926"/>
</g>
</g>
</g>
</svg>