<svg width="100%" height="100%" viewBox="0 0 100 100" version="1.1" xml:space="preserve" xmlns="http://www.w3.org/2000/svg" xmlns:xlink="http://www.w3.org/1999/xlink"><defs><linearGradient gradientTransform="matrix(-99.9149 52.6224 -52.6224 -99.9149 102.169 21.4162)" gradientUnits="userSpaceOnUse" id="LG" x1="0" x2="1" y1="0" y2="0"><stop offset="0" stop-color="#ff00a6"/><stop offset="1" stop-color="#a4003e"/></linearGradient><linearGradient gradientTransform="matrix(31.2047 0 0 31.2047 54.6864 29.7112)" gradientUnits="userSpaceOnUse" id="LG_2" x1="0" x2="1" y1="0" y2="0"><stop offset="0" stop-color="#ffd100" stop-opacity="0.610543"/><stop offset="1" stop-color="#ffd300" stop-opacity="0.4"/></linearGradient><linearGradient gradientTransform="matrix(30.2468 0 0 30.2468 55.6443 29.2323)" gradientUnits="userSpaceOnUse" id="LG_3" x1="0" x2="1" y1="0" y2="0"><stop offset="0" stop-color="#ffd100" stop-opacity="0.610543"/><stop offset="1" stop-color="#ffd300" stop-opacity="0.4"/></linearGradient><linearGradient gradientTransform="matrix(29.2829 0 0 29.2829 56.6083 28.7533)" gradientUnits="userSpaceOnUse" id="LG_4" x1="0" x2="1" y1="0" y2="0"><stop offset="0" stop-color="#ffd100" stop-opacity="0.610543"/><stop offset="1" stop-color="#ffd300" stop-opacity="0.4"/></linearGradient><linearGradient gradientTransform="matrix(28.3249 0 0 28.3249 57.5662 28.2743)" gradientUnits="userSpaceOnUse" id="LG_5" x1="0" x2="1" y1="0" y2="0"><stop offset="0" stop-color="#ffd100" stop-opacity="0.610543"/><stop offset="1" stop-color="#ffd300" stop-opacity="0.4"/></linearGradient><linearGradient gradientTransform="matrix(27.367 0 0 27.367 58.5241 27.7954)" gradientUnits="userSpaceOnUse" id="LG_6" x1="0" x2="1" y1="0" y2="0"><stop offset="0" stop-color="#ffd100" stop-opacity="0.610543"/><stop offset="1" stop-color="#ffd300" stop-opacity="0.4"/></linearGradient><linearGradient gradientTransform="matrix(32.9529 0 0 32.9529 59.4761 24.0475)" gradientUnits="userSpaceOnUse" id="LG_7" x1="0" x2="1" y1="0" y2="0"><stop offset="0" stop-color="#ff0000" stop-opacity="0.4"/><stop offset="1" stop-color="#ffbb00" stop-opacity="0.610543"/></linearGradient><linearGradient gradientTransform="matrix(31.4442 0 0 31.4442 59.4761 24.8018)" gradientUnits="userSpaceOnUse" id="LG_8" x1="0" x2="1" y1="0" y2="0"><stop offset="0" stop-color="#ff0000" stop-opacity="0.4"/><stop offset="1" stop-color="#ffbb00" stop-opacity="0.610543"/></linearGradient><linearGradient gradientTransform="matrix(29.8636 0 0 29.8636 59.4761 25.5921)" gradientUnits="userSpaceOnUse" id="LG_9" x1="0" x2="1" y1="0" y2="0"><stop offset="0" stop-color="#ff0000" stop-opacity="0.4"/><stop offset="1" stop-color="#ffbb00" stop-opacity="0.610543"/></linearGradient><linearGradient gradientTransform="matrix(28.2112 0 0 28.2112 59.4761 26.4183)" gradientUnits="userSpaceOnUse" id="LG_10" x1="0" x2="1" y1="0" y2="0"><stop offset="0" stop-color="#ff0000" stop-opacity="0.4"/><stop offset="1" stop-color="#ffbb00" stop-opacity="0.610543"/></linearGradient><linearGradient gradientTransform="matrix(9.77093 9.77332 -9.77332 9.77093 72.413 17.4521)" gradientUnits="userSpaceOnUse" id="LG_11" x1="0" x2="1" y1="0" y2="0"><stop offset="0" stop-color="#ffd100" stop-opacity="0.610543"/><stop offset="1" stop-color="#ff6200" stop-opacity="0.4"/></linearGradient></defs><g opacity="1"><path fill="url(#LG)" opacity="0.98" stroke="none" d="M73.9097 14.1161L49.2094 14.1161C46.6685 14.1161 44.2329 15.1243 42.4368 16.9228L3.75302 55.6042C1.41566 57.9416 1.41566 61.7326 3.75302 64.0724L35.9276 96.247C38.265 98.5843 42.056 98.5843 44.3958 96.247L83.0796 57.5632C84.8757 55.7671 85.8863 53.3291 85.8863 50.7906L85.8863 26.0903C85.8839 19.4781 80.5219 14.1161 73.9097 14.1161ZM67.858 40.5239C63.2288 40.5239 59.4761 36.7712 59.4761 32.142C59.4761 27.5128 63.2288 23.7601 67.858 23.7601C72.4872 23.7601 76.2399 27.5128 76.2399 32.142C76.2399 36.7712 72.4872 40.5239 67.858 40.5239Z"/><g opacity="1"><path fill="url(#LG_2)" opacity="0.05" stroke="none" d="M73.9169 14.1089L67.1395 14.1089L58.566 22.6824C53.3932 27.8552 53.3932 36.2611 58.566 41.434C61.0806 43.9246 64.4094 45.3136 67.9538 45.3136C71.4742 45.3136 74.803 43.9246 77.3176 41.434L85.8911 32.8605L85.8911 26.0831C85.8911 19.4733 80.5267 14.1089 73.9169 14.1089ZM76.2399 32.142C76.2399 36.764 72.48 40.5239 67.858 40.5239C63.236 40.5239 59.4761 36.764 59.4761 32.142C59.4761 27.52 63.236 23.7601 67.858 23.7601C72.48 23.7601 76.2399 27.52 76.2399 32.142Z"/><path fill="url(#LG_3)" opacity="0.1" stroke="none" d="M73.9169 14.1089L68.4807 14.1089L59.2366 23.353C54.4469 28.1666 54.4469 35.9498 59.2366 40.7634C61.5835 43.0864 64.6729 44.3557 67.9538 44.3557C71.2347 44.3557 74.3241 43.0864 76.647 40.7634L85.8911 31.5193L85.8911 26.0831C85.8911 19.4733 80.5267 14.1089 73.9169 14.1089ZM76.2399 32.142C76.2399 36.764 72.48 40.5239 67.858 40.5239C63.236 40.5239 59.4761 36.764 59.4761 32.142C59.4761 27.52 63.236 23.7601 67.858 23.7601C72.48 23.7601 76.2399 27.52 76.2399 32.142Z"/><path fill="url(#LG_4)" opacity="0.2" stroke="none" d="M73.9169 14.1089L69.8697 14.1089L59.9311 24.0475C55.5006 28.454 55.5006 35.6624 59.9311 40.0689C62.0625 42.2243 64.9123 43.3977 67.9538 43.3977C70.9713 43.3977 73.8211 42.2243 75.9525 40.0689L85.8911 30.1303L85.8911 26.0831C85.8911 19.4733 80.5267 14.1089 73.9169 14.1089ZM76.2399 32.142C76.2399 36.764 72.48 40.5239 67.858 40.5239C63.236 40.5239 59.4761 36.764 59.4761 32.142C59.4761 27.52 63.236 23.7601 67.858 23.7601C72.48 23.7601 76.2399 27.52 76.2399 32.142Z"/><path fill="url(#LG_5)" opacity="0.3" stroke="none" d="M73.9169 14.1089L71.2108 14.1089L60.6016 24.718C56.5544 28.7653 56.5544 35.3511 60.6016 39.3984C62.5654 41.3621 65.1758 42.4398 67.9538 42.4398C70.7078 42.4398 73.3182 41.3621 75.282 39.3984L85.8911 28.7892L85.8911 26.0831C85.8911 19.4733 80.5267 14.1089 73.9169 14.1089ZM76.2399 32.142C76.2399 36.764 72.48 40.5239 67.858 40.5239C63.236 40.5239 59.4761 36.764 59.4761 32.142C59.4761 27.52 63.236 23.7601 67.858 23.7601C72.48 23.7601 76.2399 27.52 76.2399 32.142Z"/><path fill="url(#LG_6)" opacity="0.4" stroke="none" d="M73.9169 14.1089L72.5519 14.1089L61.2722 25.3886C57.6081 29.0766 57.6081 35.0398 61.2722 38.7278C63.0683 40.5 65.4153 41.4819 67.9538 41.4819C70.4684 41.4819 72.8393 40.5 74.6114 38.7278L85.8911 27.4481L85.8911 26.0831C85.8911 19.4733 80.5267 14.1089 73.9169 14.1089ZM67.858 40.5239C63.236 40.5239 59.4761 36.764 59.4761 32.142C59.4761 27.52 63.236 23.7601 67.858 23.7601C72.48 23.7601 76.2399 27.52 76.2399 32.142C76.2399 36.764 72.48 40.5239 67.858 40.5239Z"/></g><g opacity="1"><path fill="url(#LG_7)" opacity="0.1" stroke="none" d="M80.4548 7.57099L61.9667 26.0591C60.5058 27.52 59.6916 29.364 59.524 31.232C59.5 31.5433 59.4761 31.8307 59.4761 32.142L59.524 32.8605L59.6198 33.5789C59.6677 33.9381 59.7395 34.2974 59.8592 34.6326L60.0987 35.2313L60.434 35.9977C60.5777 36.2372 60.7214 36.4767 60.8651 36.7161C61.4877 37.698 62.302 38.5123 63.2839 39.1349C63.5233 39.2786 63.7628 39.4223 64.0023 39.566C64.2657 39.6857 64.5052 39.8055 64.7687 39.9013C65.2955 40.1408 65.8463 40.3084 66.4211 40.3802C66.6606 40.4281 66.9001 40.4521 67.1395 40.476C67.379 40.5239 67.6185 40.5239 67.858 40.5239C68.1693 40.5239 68.4567 40.5 68.768 40.476C70.636 40.3084 72.48 39.4942 73.9409 38.0333L92.429 19.5452C90.4652 13.9652 86.0348 9.53475 80.4548 7.57099ZM67.858 31.4236C68.2651 31.4236 68.5764 31.7349 68.5764 32.142C68.5764 32.5491 68.2651 32.8605 67.858 32.8605C67.4509 32.8605 67.1395 32.5491 67.1395 32.142C67.1395 31.7349 67.4509 31.4236 67.858 31.4236Z"/><path fill="url(#LG_8)" opacity="0.2" stroke="none" d="M78.9461 9.07973L61.9667 26.0591C60.5058 27.52 59.6916 29.364 59.524 31.232C59.5 31.5433 59.4761 31.8307 59.4761 32.142L59.524 32.8605L59.6198 33.5789C59.6677 33.9381 59.7395 34.2974 59.8592 34.6326L60.0987 35.2313L60.434 35.9977C60.5777 36.2372 60.7214 36.4767 60.8651 36.7161C61.4877 37.698 62.302 38.5123 63.2839 39.1349C63.5233 39.2786 63.7628 39.4223 64.0023 39.566C64.2657 39.6857 64.5052 39.8055 64.7687 39.9013C65.2955 40.1408 65.8463 40.3084 66.4211 40.3802C66.6606 40.4281 66.9001 40.4521 67.1395 40.476C67.379 40.5239 67.6185 40.5239 67.858 40.5239C68.1693 40.5239 68.4567 40.5 68.768 40.476C70.636 40.3084 72.48 39.4942 73.9409 38.0333L90.9203 21.0539C89.2199 15.3303 84.6697 10.7801 78.9461 9.07973ZM67.858 29.5077C69.3188 29.5077 70.4923 30.6812 70.4923 32.142C70.4923 33.6029 69.3188 34.7763 67.858 34.7763C66.3971 34.7763 65.2237 33.6029 65.2237 32.142C65.2237 30.6812 66.3971 29.5077 67.858 29.5077Z"/><path fill="url(#LG_9)" opacity="0.3" stroke="none" d="M77.3655 10.6603L61.9667 26.0591C60.5058 27.52 59.6916 29.364 59.524 31.232C59.5 31.5433 59.4761 31.8307 59.4761 32.142L59.524 32.8605L59.6198 33.5789C59.6677 33.9381 59.7395 34.2974 59.8592 34.6326L60.0987 35.2313L60.434 35.9977C60.5777 36.2372 60.7214 36.4767 60.8651 36.7161C61.4877 37.698 62.302 38.5123 63.2839 39.1349C63.5233 39.2786 63.7628 39.4223 64.0023 39.566C64.2657 39.6857 64.5052 39.8055 64.7687 39.9013C65.2955 40.1408 65.8463 40.3084 66.4211 40.3802C66.6606 40.4281 66.9001 40.4521 67.1395 40.476C67.379 40.5239 67.6185 40.5239 67.858 40.5239C68.1693 40.5239 68.4567 40.5 68.768 40.476C70.636 40.3084 72.48 39.4942 73.9409 38.0333L89.3397 22.6345C88.0225 16.6714 83.3286 11.9775 77.3655 10.6603ZM63.3078 32.142C63.3078 29.6274 65.3434 27.5918 67.858 27.5918C70.3726 27.5918 72.4082 29.6274 72.4082 32.142C72.4082 34.6566 70.3726 36.6922 67.858 36.6922C65.3434 36.6922 63.3078 34.6566 63.3078 32.142Z"/><path fill="url(#LG_10)" opacity="0.4" stroke="none" d="M75.7131 12.3128L61.9667 26.0591C60.5058 27.52 59.6916 29.364 59.524 31.232C59.5 31.5433 59.4761 31.8307 59.4761 32.142L59.524 32.8605L59.6198 33.5789C59.6677 33.9381 59.7395 34.2974 59.8592 34.6326L60.0987 35.2313L60.434 35.9977C60.5777 36.2372 60.7214 36.4767 60.8651 36.7161C61.4877 37.698 62.302 38.5123 63.2839 39.1349C63.5233 39.2786 63.7628 39.4223 64.0023 39.566C64.2657 39.6857 64.5052 39.8055 64.7687 39.9013C65.2955 40.1408 65.8463 40.3084 66.4211 40.3802C66.6606 40.4281 66.9001 40.4521 67.1395 40.476C67.379 40.5239 67.6185 40.5239 67.858 40.5239C68.1693 40.5239 68.4567 40.5 68.768 40.476C70.636 40.3084 72.48 39.4942 73.9409 38.0333L87.6872 24.2869C86.873 18.0604 81.9396 13.127 75.7131 12.3128ZM67.858 38.6081C64.2897 38.6081 61.3919 35.7103 61.3919 32.142C61.3919 28.5737 64.2897 25.6759 67.858 25.6759C71.4263 25.6759 74.3241 28.5737 74.3241 32.142C74.3241 35.7103 71.4263 38.6081 67.858 38.6081Z"/></g><path fill="url(#LG_11)" opacity="1" stroke="none" d="M88.7098 2.70229L97.2977 11.2902C98.2341 12.2265 98.2341 13.7425 97.2977 14.6765L73.9313 38.0429C70.624 41.3502 65.2644 41.3502 61.9571 38.0429L61.9571 38.0429C58.6498 34.7356 58.6498 29.376 61.9571 26.0687L85.3235 2.70229C86.2599 1.7659 87.7758 1.7659 88.7098 2.70229Z"/></g></svg>