<svg clip-rule="evenodd" height="840" stroke-linecap="round" stroke-linejoin="round" stroke-miterlimit="10" viewBox="0 0 630 630" width="840" xmlns="http://www.w3.org/2000/svg"><path d="m509.016 215.534c-11.914-36.354-31.45-61.475-61.46-88.013-25.253-22.331-76.504-47.603-128.76-48.762-55.156-1.224-111.382 22.899-137.393 46.34-30.463 27.454-47.886 48.574-61.001 84.316-12.827 34.956-12.042 49.229-12.042 49.229s-4.317 38.146 5.703 72.356c10.021 34.211 15.939 49.998 35.274 74.669 55.161 70.385 167.413 143.982 167.413 143.982s118.771-74.851 169.477-147.187c47.577-67.875 35.082-137.945 35.082-137.945v-.538s0-10.938-12.293-48.447z" fill="#14bbe9"/><path d="m316.903 550.58c46.471 0 84.479 7.229 152.064 2.618 33.557-2.289 73.834-16.598 110.311-53.183 20.595-20.656 31.865-57.648 35.023-93.723s-6.734-58.147-10.402-66.677c-8.618-20.042-16.368-27.51-24.852-38.48-23.248-30.062-58.521-40.083-58.521-40.083s-26.875-10.163-56.136-9.103-44.665 6.617-60.907 13.344c-20.4 8.449-38.47 20.482-49.722 34.236-36.764 44.939-36.858 95.528-36.858 95.528z" fill="#325fff"/><path d="m316.94 550.455c-92.175 0-217.906 23.01-277.148-66.54-7.48-11.309-13.75-23.914-17.765-36.877-4.268-13.783-6.454-41.642-4.486-65.736 1.459-17.856 5.952-33.157 9.62-41.687 8.618-20.042 16.368-27.51 24.852-38.48 23.248-30.062 56.347-42.491 56.347-42.491s45.188-8.572 67.911-6.317c17.875 1.773 34.871 5.477 51.306 12.966 35.341 16.103 48.076 34.236 48.076 34.236s15.145 16.429 25.481 40.331c10.336 23.903 15.863 55.28 15.863 55.28s-.057 119.521-.057 155.315z" fill="#00fff7"/><path d="m509.016 215.534c-11.914-36.354-31.45-61.475-61.46-88.013-25.253-22.331-76.504-47.603-128.76-48.762-55.156-1.224-111.382 22.899-137.393 46.34-30.463 27.454-47.886 48.574-61.001 84.316-12.827 34.956-12.042 49.229-12.042 49.229s-4.317 38.146 5.703 72.356c10.021 34.211 15.939 49.998 35.274 74.669 55.161 70.385 167.413 143.982 167.413 143.982s118.771-74.851 169.477-147.187c47.577-67.875 35.082-137.945 35.082-137.945v-.538s0-10.938-12.293-48.447z" fill="#14bbe9"/><path d="m316.903 550.58c46.471 0 84.479 7.229 152.064 2.618 33.557-2.289 73.834-16.598 110.311-53.183 20.595-20.656 31.865-57.648 35.023-93.723s-6.734-58.147-10.402-66.677c-8.618-20.042-16.368-27.51-24.852-38.48-23.248-30.062-58.521-40.083-58.521-40.083s-26.875-10.163-56.136-9.103-44.665 6.617-60.907 13.344c-20.4 8.449-38.47 20.482-49.722 34.236-36.764 44.939-36.858 95.528-36.858 95.528z" fill="#325fff"/><path d="m316.94 550.455c-92.175 0-217.906 23.01-277.148-66.54-7.48-11.309-13.75-23.914-17.765-36.877-4.268-13.783-6.454-41.642-4.486-65.736 1.459-17.856 5.952-33.157 9.62-41.687 8.618-20.042 16.368-27.51 24.852-38.48 23.248-30.062 56.347-42.491 56.347-42.491s45.188-8.572 67.911-6.317c17.875 1.773 34.871 5.477 51.306 12.966 35.341 16.103 48.076 34.236 48.076 34.236s15.145 16.429 25.481 40.331c10.336 23.903 15.863 55.28 15.863 55.28s-.057 119.521-.057 155.315z" fill="#00e6ff"/><path d="m107.912 257.244c-.043 5.96-2.507 22.79-.881 42.789s3.637 20.781 7.386 37.208c2.689 11.781 8.053 27.094 18.547 44.948 25.127 42.752 84.976 92.607 84.976 92.607s28.642 24.05 52.203 42.488c18.894 14.785 46.312 32.367 46.312 32.367.391-39.929.115-84.89.115-84.89s1.454-40.066 0-66.946c-.699-12.923-8.035-48.157-8.035-48.157s-28.826-47.703-29.117-48.022h.05c-17.315-23.083-55.287-44.162-91.58-49.614-41.147-6.182-79.918 4.936-79.976 5.222z" fill="#00ccc5"/><path d="m520.848 261.358c.042 5.961 3.259 18.676 1.653 38.675-1.607 19.999-3.592 20.781-7.295 37.208-2.655 11.781-7.953 27.094-18.318 44.948-24.817 42.752-83.926 92.607-83.926 92.607s-28.288 24.05-51.559 42.488c-23.27 18.438-44.5 32.367-44.5 32.367-.191-19.73.094-133.466-.449-149.749.342-.451.486-8.093 1.529-16.887.326-2.75 6.315-31.07 14.561-49.314s19.411-31.746 19.699-32.065h-.049c17.101-23.083 55.347-42.608 91.191-48.06 40.64-6.182 77.405 7.497 77.463 7.782z" fill="#6a8bff" stroke="#00fff4" stroke-linecap="butt" stroke-width=".16"/><path d="m353.761 299.529h-78.108c7.387 11.427 15.602 15.911 25.91 38.381 10.308 22.469 15.322 51.498 15.322 51.498s4.434-27.774 13.653-50.244 23.223-39.635 23.223-39.635z" fill="#2e8cb4" opacity=".5"/></svg>