<svg viewBox="0 0 48 48" xmlns="http://www.w3.org/2000/svg"><g stroke-linecap="round" stroke-linejoin="round" stroke-width="2"><g fill="none"><path d="m32.995 12.371a12.72 12.72 0 0 1 0 17.989l-8.995 8.994-8.994-8.994a12.72 12.72 0 0 1 0-17.989 12.72 12.72 0 0 1 17.989 0z" stroke="#3254FF"/><path d="m14.25 19.855a9.75 9.75 0 0 1 9.75 9.75v9.75h-9.75a9.75 9.75 0 0 1 -9.75-9.75 9.75 9.75 0 0 1 9.75-9.75zm9.75 19.5h9.75a9.75 9.75 0 0 0 9.75-9.75 9.75 9.75 0 0 0 -9.75-9.75 9.75 9.75 0 0 0 -9.75 9.75" opacity=".5" stroke="#07eff8"/><path d="m32.995 12.371a12.72 12.72 0 0 1 0 17.989l-8.995 8.994-8.994-8.994a12.72 12.72 0 0 1 0-17.989 12.72 12.72 0 0 1 17.989 0z" stroke="#3254FF"/></g><path d="m14.25 19.855a9.75 9.75 0 0 1 9.75 9.75v9.75h-9.75a9.75 9.75 0 0 1 -9.75-9.75 9.75 9.75 0 0 1 9.75-9.75zm9.75 19.5h9.75a9.75 9.75 0 0 0 9.75-9.75 9.75 9.75 0 0 0 -9.75-9.75 9.75 9.75 0 0 0 -9.75 9.75" fill="#07eff8" opacity=".2" stroke="#07eff8"/><path d="m32.995 12.371a12.72 12.72 0 0 1 0 17.989l-8.995 8.994-8.994-8.994a12.72 12.72 0 0 1 0-17.989 12.72 12.72 0 0 1 17.989 0z" fill="#3254FF" opacity=".1" stroke="#3254FF"/><path d="m14.25 19.855a9.75 9.75 0 0 1 9.75 9.75v9.75h-9.75a9.75 9.75 0 0 1 -9.75-9.75 9.75 9.75 0 0 1 9.75-9.75zm9.75 19.5h9.75a9.75 9.75 0 0 0 9.75-9.75 9.75 9.75 0 0 0 -9.75-9.75 9.75 9.75 0 0 0 -9.75 9.75" fill="#07eff8" opacity=".5" stroke="#07eff8"/><path d="m32.995 12.371a12.72 12.72 0 0 1 0 17.989l-8.995 8.994-8.994-8.994a12.72 12.72 0 0 1 0-17.989 12.72 12.72 0 0 1 17.989 0z" fill="#3254FF" opacity=".3" stroke="#3254FF"/></g></svg>