<svg height="100%" viewBox="0 0 100 100" width="100%" xml:space="preserve" xmlns="http://www.w3.org/2000/svg" xmlns:xlink="http://www.w3.org/1999/xlink"><defs><linearGradient gradientTransform="matrix(1 0 0 1.02042 0 -1.02095)" gradientUnits="userSpaceOnUse" id="LinearGradient" x1="0" x2="19.7405" y1="50" y2="50"><stop offset="0" stop-color="#f60aff"/><stop offset="0.360526" stop-color="#ff02cc"/><stop offset="1" stop-color="#ff0245"/></linearGradient><filter color-interpolation-filters="sRGB" filterUnits="userSpaceOnUse" height="107.861" id="Filter" width="27.6016" x="-3.93054" y="-2.8824"><feDropShadow dx="-3.85005e-06" dy="1.04814" flood-color="#000000" flood-opacity="0.65" in="SourceGraphic" result="Shadow" stdDeviation="1.57222"/></filter><linearGradient gradientTransform="matrix(1 0 0 1.02042 0 -2.04186)" gradientUnits="userSpaceOnUse" id="LinearGradient_2" x1="82.5659" x2="100" y1="51.0005" y2="51.0005"><stop offset="0" stop-color="#f60aff"/><stop offset="0.360526" stop-color="#ff02cc"/><stop offset="1" stop-color="#ff0245"/></linearGradient><filter color-interpolation-filters="sRGB" filterUnits="userSpaceOnUse" height="107.861" id="Filter_2" width="25.2952" x="78.6354" y="-2.8824"><feDropShadow dx="-3.85005e-06" dy="1.04814" flood-color="#000000" flood-opacity="0.65" in="SourceGraphic" result="Shadow" stdDeviation="1.57222"/></filter><linearGradient gradientTransform="matrix(0.965494 0 0 0.979343 8.46932 2.07505)" gradientUnits="userSpaceOnUse" id="LinearGradient_3" x1="9.0076" x2="42.3125" y1="83.3532" y2="83.3532"><stop offset="0" stop-color="#ffea00"/><stop offset="1" stop-color="#cfbe02"/></linearGradient><filter color-interpolation-filters="sRGB" filterUnits="userSpaceOnUse" height="40.4484" id="Filter_3" width="40.0168" x="13.2355" y="64.5303"><feDropShadow dx="-3.85005e-06" dy="1.04814" flood-color="#000000" flood-opacity="0.65" in="SourceGraphic" result="Shadow" stdDeviation="1.57222"/></filter><linearGradient gradientTransform="matrix(0.894698 0 0 0.894698 4.64168 -3.1786e-15)" gradientUnits="userSpaceOnUse" id="LinearGradient_4" x1="31.6117" x2="90.9831" y1="30.9711" y2="30.9711"><stop offset="0" stop-color="#ffea00"/><stop offset="1" stop-color="#cfbe02"/></linearGradient><filter color-interpolation-filters="sRGB" filterUnits="userSpaceOnUse" height="63.2807" id="Filter_4" width="60.9805" x="28.9941" y="-2.8824"><feDropShadow dx="-3.85005e-06" dy="1.04814" flood-color="#000000" flood-opacity="0.65" in="SourceGraphic" result="Shadow" stdDeviation="1.57222"/></filter></defs><path d="M18.258 0.00455044C12.2056 0.648659 6.57773 5.33581 6.57773 15.8623C6.57773 15.8623 6.57773 29.5149 6.57773 34.0668C6.57773 40.3645 3.55413 46.1018 1.03527 47.4333C0.437816 47.752 0 48.6239 0 49.705L0 50.5082C0 51.4664 0.382667 52.251 0.916956 52.5038C3.45818 53.7145 6.57773 59.5328 6.57773 65.9328C6.57773 70.4849 6.57773 84.1376 6.57773 84.1376C6.57773 94.6639 12.2056 99.3511 18.258 99.9952C19.0581 100.082 19.7405 98.9842 19.7405 97.5981C19.7405 96.4668 19.2729 95.5578 18.6425 95.2574C16.4224 94.199 14.4755 90.0096 14.4755 84.1376C14.4755 84.1376 14.4755 70.4849 14.4755 65.9328C14.4755 58.7363 10.526 52.2758 7.89403 49.9998C10.526 47.724 14.4755 41.2636 14.4755 34.0668C14.4755 29.5149 14.4755 15.8623 14.4755 15.8623C14.4755 9.99019 16.4224 5.80302 18.6425 4.74241C19.2729 4.44199 19.7405 3.53289 19.7405 2.40173C19.7405 1.01564 19.0581-0.0796607 18.258 0.00455044Z" fill="url(#LinearGradient)" filter="url(#Filter)"/><path d="M83.8753 0.00478285C83.1688-0.0817079 82.5659 1.01588 82.5659 2.40194C82.5659 3.53313 82.9791 4.44221 83.5358 4.74264C85.4965 5.80098 87.2159 9.99041 87.2159 15.8625C87.2159 15.8625 87.2159 29.5151 87.2159 34.0672C87.2159 41.2638 90.7039 47.7242 93.0285 50C90.7039 52.2761 87.2159 58.7365 87.2159 65.933C87.2159 70.4851 87.2159 84.1378 87.2159 84.1378C87.2159 90.0098 85.4965 94.2033 83.5358 95.2638C82.9791 95.5644 82.5659 96.467 82.5659 97.5983C82.5659 98.9844 83.1688 100.08 83.8753 99.9955C89.2205 99.3514 94.191 94.6643 94.191 84.1378C94.191 84.1378 94.191 70.4851 94.191 65.933C94.191 59.6355 96.8612 53.9068 99.0859 52.5731C99.6134 52.2544 100 51.3824 100 50.3012L100 49.4919C100 48.5336 99.6621 47.7489 99.1904 47.4962C96.9459 46.2856 94.191 40.4672 94.191 34.0672C94.191 29.5151 94.191 15.8625 94.191 15.8625C94.191 5.33604 89.2205 0.648892 83.8753 0.00478285Z" fill="url(#LinearGradient_2)" filter="url(#Filter_2)"/><path d="M33.4817 67.4156C30.7186 67.3627 27.8572 68.0256 25.1844 69.5885C14.4933 75.8404 14.4933 91.554 25.1844 97.8059C35.8753 104.057 49.3218 96.2012 49.3218 83.6972C49.3218 74.3194 41.771 67.574 33.4817 67.4156ZM33.361 74.8219C37.8804 74.9083 42.0202 78.5841 42.0202 83.6972C42.0202 90.5144 34.6942 94.8182 28.8654 91.4095C23.0364 88.001 23.0364 79.424 28.8654 76.0155C30.3225 75.1632 31.8545 74.793 33.361 74.8219Z" fill="url(#LinearGradient_3)" filter="url(#Filter_3)"/><path d="M53.8802 0L53.8802 18.8788L38.4144 9.42455L32.9246 18.7647L49.0909 27.742L32.9246 36.5902L38.3896 46.1042L53.8802 36.6102L53.8802 55.4196L64.9144 55.4196L64.9144 36.6102L80.4996 46.149L86.044 36.5902L69.8081 27.742L86.044 18.7647L80.5193 9.42455L64.9144 18.8788L64.9144 0L53.8802 0Z" fill="url(#LinearGradient_4)" filter="url(#Filter_4)"/></svg>
