<svg height="100%" viewBox="0 0 100 100" width="100%" xml:space="preserve" xmlns="http://www.w3.org/2000/svg" xmlns:xlink="http://www.w3.org/1999/xlink"><defs><linearGradient gradientTransform="matrix(1 0 0 1 0 0)" gradientUnits="userSpaceOnUse" id="LinearGradient" x1="7.64556" x2="22.7116" y1="-10.7571" y2="114.105"><stop offset="0" stop-color="#ff0ad6"/><stop offset="0.243421" stop-color="#ff02c0"/><stop offset="1" stop-color="#ff0080"/></linearGradient><filter color-interpolation-filters="sRGB" filterUnits="userSpaceOnUse" height="107.164" id="Filter" width="31.007" x="-3.42481" y="-4.53748"><feDropShadow dx="5.84927e-17" dy="-0.955258" flood-color="#000000" flood-opacity="0.65" in="SourceGraphic" result="Shadow" stdDeviation="1.43289"/></filter><linearGradient gradientTransform="matrix(1 0 0 1 0 0)" gradientUnits="userSpaceOnUse" id="LinearGradient_2" x1="96.5973" x2="78.0227" y1="109.771" y2="-19.4253"><stop offset="0" stop-color="#ff0ad6"/><stop offset="0.243421" stop-color="#ff02c0"/><stop offset="1" stop-color="#ff0080"/></linearGradient><filter color-interpolation-filters="sRGB" filterUnits="userSpaceOnUse" height="107.164" id="Filter_2" width="31.0764" x="72.3484" y="-4.53748"><feDropShadow dx="5.84927e-17" dy="-0.955258" flood-color="#000000" flood-opacity="0.65" in="SourceGraphic" result="Shadow" stdDeviation="1.43289"/></filter><linearGradient gradientTransform="matrix(0.859692 3.75974e-33 0 0.853329 16.6179 14.3944)" gradientUnits="userSpaceOnUse" id="LinearGradient_3" x1="58.2367" x2="1.64457" y1="78.4877" y2="84.0661"><stop offset="0.426316" stop-color="#ffffff"/><stop offset="1" stop-color="#c2c2c2"/></linearGradient><filter color-interpolation-filters="sRGB" filterUnits="userSpaceOnUse" height="35.9999" id="Filter_3" width="36.2376" x="20.5589" y="66.508"><feDropShadow dx="6.20945e-17" dy="-1.01408" flood-color="#000000" flood-opacity="0.44" in="SourceGraphic" result="Shadow" stdDeviation="1.52112"/></filter><linearGradient gradientTransform="matrix(0.791942 1.54446e-33 0 0.759072 10.4819 0.280901)" gradientUnits="userSpaceOnUse" id="LinearGradient_4" x1="107.324" x2="22.6461" y1="28.623" y2="31.7147"><stop offset="0.426316" stop-color="#ffffff"/><stop offset="1" stop-color="#c2c2c2"/></linearGradient><filter color-interpolation-filters="sRGB" filterUnits="userSpaceOnUse" height="54.6242" id="Filter_4" width="54.6242" x="31.7138" y="-4.53598"><feDropShadow dx="6.20945e-17" dy="-1.01408" flood-color="#000000" flood-opacity="0.44" in="SourceGraphic" result="Shadow" stdDeviation="1.52112"/></filter></defs><path d="M20.5045 0.00885926C19.6722 0.0705589 18.8506 0.463781 18.2625 1.14776C-5.87761 29.2226-5.87761 70.7849 18.2625 98.8598C19.4387 100.228 21.4991 100.39 22.8631 99.2102C24.2271 98.0305 24.3887 95.9642 23.2125 94.5962C1.18304 68.976 1.18304 31.0316 23.2125 5.41135C24.3887 4.04338 24.2271 1.97699 22.8631 0.79733C22.1811 0.2075 21.3369-0.0528404 20.5045 0.00885926Z" fill="url(#LinearGradient)" filter="url(#Filter)"/><path d="M79.4363 0.00885926C78.6015-0.0528405 77.7548 0.2075 77.0708 0.79733C75.7029 1.97699 75.5407 4.04338 76.7204 5.41135C98.814 31.0316 98.814 68.976 76.7204 94.5962C75.5408 95.9642 75.7029 98.0306 77.0708 99.2102C78.4388 100.39 80.5052 100.228 81.6849 98.8598C105.895 70.7849 105.895 29.2226 81.6849 1.14776C81.095 0.463781 80.271 0.070559 79.4363 0.00885926Z" fill="url(#LinearGradient_2)" filter="url(#Filter_2)"/><path d="M38.8894 71.3274C36.4291 71.2813 33.8812 71.8589 31.5013 73.2207C21.9818 78.6681 21.9818 92.3598 31.5013 97.8073C41.0207 103.254 52.9937 96.4091 52.9937 85.514C52.9937 77.3429 46.2703 71.4654 38.8894 71.3274ZM38.7819 77.7807C42.8061 77.856 46.4922 81.0588 46.4922 85.514C46.4922 91.454 39.969 95.204 34.779 92.2339C29.5887 89.264 29.5887 81.7906 34.779 78.8207C36.0764 78.0781 37.4405 77.7555 38.7819 77.7807Z" fill="url(#LinearGradient_3)" filter="url(#Filter_3)"/><path d="M54.0654 0.280901L54.0654 16.2979L40.3759 8.2768L35.5166 16.2011L49.8262 23.8175L35.5166 31.3244L40.3539 39.3962L54.0654 31.3414L54.0654 47.2995L63.8323 47.2995L63.8323 31.3414L77.6276 39.4342L82.5352 31.3244L68.164 23.8175L82.5352 16.2011L77.645 8.2768L63.8323 16.2979L63.8323 0.280901L54.0654 0.280901Z" fill="url(#LinearGradient_4)" filter="url(#Filter_4)"/></svg>
