<svg xmlns="http://www.w3.org/2000/svg" xmlns:vectornator="http://vectornator.io" xmlns:xlink="http://www.w3.org/1999/xlink" width="100%" height="100%" viewBox="0 0 100 100" xml:space="preserve"><defs><linearGradient id="LinearGradient" x1="30.544" x2="18.932" y1="48.24" y2="53.124" gradientTransform="matrix(0.998983 0.166408 -0.132125 1.2291 -2.2245 -17.1643)" gradientUnits="userSpaceOnUse"><stop offset="0" stop-color="#ec0014"/><stop offset="1" stop-color="#a60101"/></linearGradient><filter id="Filter" width="39.109" height="105.065" x="-2.533" y="-3.546" color-interpolation-filters="sRGB" filterUnits="userSpaceOnUse"><feDropShadow dx="0" dy="-1.013" flood-color="#000" flood-opacity=".44" in="SourceGraphic" result="Shadow" stdDeviation="1.013"/></filter><linearGradient id="LinearGradient_2" x1="86.699" x2="26.162" y1="72.917" y2="73.801" gradientTransform="matrix(0.796034 -3.51994e-18 1.88215e-17 0.758792 2.64324 34.6486)" gradientUnits="userSpaceOnUse"><stop offset=".426" stop-color="#fff"/><stop offset="1" stop-color="#d9d9d9"/></linearGradient><filter id="Filter_2" width="33.971" height="33.945" x="29.867" y="67.555" color-interpolation-filters="sRGB" filterUnits="userSpaceOnUse"><feDropShadow dx="0" dy="-1" flood-color="#000" flood-opacity=".44" in="SourceGraphic" result="Shadow" stdDeviation="1"/></filter><linearGradient id="LinearGradient_3" x1="89.264" x2="34.197" y1="13.055" y2="13.055" gradientTransform="matrix(0.869877 0 0 0.869877 20.8559 -3.55271e-15)" gradientUnits="userSpaceOnUse"><stop offset="0" stop-color="#ff0a99"/><stop offset=".499" stop-color="#ff0280"/><stop offset="1" stop-color="#ff026b"/></linearGradient><filter id="Filter_3" width="56.646" height="58.882" x="45.854" y="-3.5" color-interpolation-filters="sRGB" filterUnits="userSpaceOnUse"><feDropShadow dx="0" dy="-1" flood-color="#000" flood-opacity=".44" in="SourceGraphic" result="Shadow" stdDeviation="1"/></filter></defs><g layerName="Group 1" opacity="1"><path fill="url(#LinearGradient)" d="M0 4.44089e-16L23.9806 100L34.0438 100L9.93947 4.44089e-16L0 4.44089e-16Z" filter="url(#Filter)" layerName="path 2" shadowAngle="-1.571" shadowColor="#000000" shadowOffset="1.013" shadowOpacity=".44" shadowRadius="2.026"/><path fill="url(#LinearGradient_2)" d="M47.0671 71.0576C44.5778 71.0105 41.9997 71.5994 39.5916 72.9876C29.9593 78.5407 29.9593 92.4979 39.5916 98.0509C49.2238 103.604 61.3385 96.6256 61.3385 85.5193C61.3385 77.1896 54.5355 71.1983 47.0671 71.0576ZM46.9583 77.636C51.0302 77.7127 54.7601 80.9777 54.7601 85.5193C54.7601 91.5745 48.1596 95.3973 42.908 92.3696C37.6563 89.3421 37.6563 81.7237 42.908 78.6962C44.2208 77.9391 45.6011 77.6104 46.9583 77.636Z" filter="url(#Filter_2)" layerName="path" shadowAngle="-1.571" shadowColor="#000000" shadowOffset="1" shadowOpacity=".44" shadowRadius="2"/><path fill="url(#LinearGradient_3)" d="M68.7284 0L68.7284 18.3551L53.6917 9.16311L48.3542 18.2441L64.072 26.9725L48.3542 35.5752L53.6676 44.8252L68.7284 35.5945L68.7284 53.8822L79.4565 53.8822L79.4565 35.5945L94.6094 44.8687L100 35.5752L84.2145 26.9725L100 18.2441L94.6285 9.16311L79.4565 18.3551L79.4565 0L68.7284 0Z" filter="url(#Filter_3)" layerName="path 1" shadowAngle="-1.571" shadowColor="#000000" shadowOffset="1" shadowOpacity=".44" shadowRadius="2"/></g></svg>