<svg xmlns="http://www.w3.org/2000/svg" xmlns:vectornator="http://vectornator.io" xmlns:xlink="http://www.w3.org/1999/xlink" width="100%" height="100%" viewBox="0 0 100 100" xml:space="preserve"><defs><linearGradient id="LinearGradient" x1="24.052" x2="53.184" y1="84.893" y2="84.893" gradientTransform="matrix(1.12814 0 0 1.10519 3.63492 -12.1693)" gradientUnits="userSpaceOnUse"><stop offset=".426" stop-color="#fff"/><stop offset="1" stop-color="#d9d9d9"/></linearGradient><filter id="Filter" width="45.298" height="45.268" x="25.641" y="58.791" color-interpolation-filters="sRGB" filterUnits="userSpaceOnUse"><feDropShadow dx="0" dy="-.937" flood-color="#000" flood-opacity=".44" in="SourceGraphic" result="Shadow" stdDeviation="2.399"/></filter><linearGradient id="LinearGradient_2" x1="31.612" x2="90.983" y1="30.971" y2="30.971" gradientTransform="matrix(1.03571 0 0 1.03571 5.76801 -3.10862e-15)" gradientUnits="userSpaceOnUse"><stop offset="0" stop-color="#ffea00"/><stop offset="1" stop-color="#cfbe02"/></linearGradient><filter id="Filter_2" width="66.67" height="69.333" x="35.919" y="-3.625" color-interpolation-filters="sRGB" filterUnits="userSpaceOnUse"><feDropShadow dx="0" dy="-1.036" flood-color="#000" flood-opacity=".44" in="SourceGraphic" result="Shadow" stdDeviation="1.036"/></filter><linearGradient id="LinearGradient_3" x1="30.544" x2="18.932" y1="48.24" y2="53.124" gradientTransform="matrix(0.928382 0.168072 -0.122787 1.24139 -2.06728 -18.3359)" gradientUnits="userSpaceOnUse"><stop offset="0" stop-color="#ec0014"/><stop offset="1" stop-color="#a60101"/></linearGradient></defs><g id="Layer" layerName="Layer"><path fill="url(#LinearGradient)" d="M48.5365 65.7283C45.6747 65.6743 42.711 66.3511 39.9427 67.9471C28.8695 74.3308 28.8695 90.3758 39.9427 96.7596C51.0157 103.143 64.9427 95.1211 64.9427 82.3533C64.9427 72.7777 57.1221 65.8901 48.5365 65.7283ZM48.4115 73.2908C53.0924 73.379 57.3802 77.1324 57.3802 82.3533C57.3802 89.3143 49.7923 93.709 43.7552 90.2283C37.7179 86.7479 37.7179 77.99 43.7552 74.5096C45.2644 73.6393 46.8511 73.2614 48.4115 73.2908Z" filter="url(#Filter)" layerName="path 8" shadowAngle="-1.571" shadowColor="#000000" shadowOffset=".937" shadowOpacity=".44" shadowRadius="4.797"/><path fill="url(#LinearGradient_2)" d="M62.767 0L62.767 21.8543L44.8636 10.91L38.5086 21.7221L57.2228 32.1144L38.5086 42.3572L44.8348 53.3706L62.767 42.3802L62.767 64.1542L75.5403 64.1542L75.5403 42.3802L93.5817 53.4224L100 42.3572L81.2052 32.1144L100 21.7221L93.6046 10.91L75.5403 21.8543L75.5403 0L62.767 0Z" filter="url(#Filter_2)" layerName="path 9" shadowAngle="-1.571" shadowColor="#000000" shadowOffset="1.036" shadowOpacity=".44" shadowRadius="2.071"/><path fill="url(#LinearGradient_3)" d="M-1.11022e-15-0.999922L22.2858 100L31.6378 100L9.23702-0.999922L-1.11022e-15-0.999922Z" layerName="path 2" opacity="1"/></g></svg>