<svg xmlns="http://www.w3.org/2000/svg" xmlns:vectornator="http://vectornator.io" xmlns:xlink="http://www.w3.org/1999/xlink" width="100%" height="100%" viewBox="0 0 100 100" xml:space="preserve"><defs><filter id="Filter" width="0" height="0" x="inf" y="inf" color-interpolation-filters="sRGB" filterUnits="userSpaceOnUse"><feDropShadow dx="1.006" dy="3.31" flood-color="#000" flood-opacity=".44" in="SourceGraphic" result="Shadow" stdDeviation="5.585"/></filter><linearGradient id="LinearGradient" x1="89.407" x2="34.197" y1="46.353" y2="13.055" gradientTransform="matrix(0.869877 0 0 0.869877 16.8559 -3.55271e-15)" gradientUnits="userSpaceOnUse"><stop offset="0" stop-color="#ff0a99"/><stop offset=".499" stop-color="#ff0280"/><stop offset="1" stop-color="#ff026b"/></linearGradient><filter id="Filter_2" width="56.646" height="58.882" x="41.854" y="-3.5" color-interpolation-filters="sRGB" filterUnits="userSpaceOnUse"><feDropShadow dx="0" dy="-1" flood-color="#000" flood-opacity=".44" in="SourceGraphic" result="Shadow" stdDeviation="1"/></filter><linearGradient id="LinearGradient_2" x1="27.688" x2="56.819" y1="81.345" y2="81.345" gradientTransform="matrix(1.12814 0 0 1.10519 -16.0148 -11.1696)" gradientUnits="userSpaceOnUse"><stop offset=".426" stop-color="#fff"/><stop offset="1" stop-color="#d9d9d9"/></linearGradient><filter id="Filter_3" width="48.811" height="47.815" x="9.627" y="56.244" color-interpolation-filters="sRGB" filterUnits="userSpaceOnUse"><feDropShadow dx="0" dy="-.937" flood-color="#000" flood-opacity=".44" in="SourceGraphic" result="Shadow" stdDeviation="2.399"/></filter><filter id="Filter_4" width="60.547" height="51.136" x="10.897" y="53.237" color-interpolation-filters="sRGB" filterUnits="userSpaceOnUse"><feDropShadow dx="1.006" dy="3.31" flood-color="#000" flood-opacity=".44" in="SourceGraphic" result="Shadow" stdDeviation="2.307"/></filter><filter id="Filter_5" width="49.014" height="39.603" x="15.657" y="55.694" color-interpolation-filters="sRGB" filterUnits="userSpaceOnUse"><feDropShadow dx="0" dy="0" flood-color="#000" flood-opacity=".44" in="SourceGraphic" result="Shadow" stdDeviation="1.153"/></filter></defs><path fill="url(#LinearGradient)" d="M64.7284 0L64.7284 18.3551L49.6917 9.16311L44.3542 18.2441L60.072 26.9725L44.3542 35.5752L49.6676 44.8252L64.7284 35.5945L64.7284 53.8822L75.4565 53.8822L75.4565 35.5945L90.6094 44.8687L96 35.5752L80.2145 26.9725L96 18.2441L90.6285 9.16311L75.4565 18.3551L75.4565 0L64.7284 0Z" filter="url(#Filter_2)" layerName="path 3" shadowAngle="-1.571" shadowColor="#000000" shadowOffset="1" shadowOpacity=".44" shadowRadius="2"/><path fill="url(#LinearGradient_2)" d="M34.0182 63.1779C23.8672 63.1779 15.6238 71.1884 15.6239 81.1036C15.6239 91.0188 23.8672 99 34.0182 99C44.1691 99 52.4418 91.0188 52.4418 81.1036C52.4418 71.1884 44.1691 63.1779 34.0182 63.1779ZM34.0182 68.5673C41.2351 68.5673 47.0524 74.1997 47.0524 81.1036C47.0524 88.0075 41.2351 93.6399 34.0182 93.6398C26.8012 93.6398 21.0132 88.0075 21.0133 81.1036C21.0133 74.1997 26.8012 68.5673 34.0182 68.5673Z" filter="url(#Filter_3)" layerName="path 4" shadowAngle="-1.571" shadowColor="#000000" shadowOffset=".937" shadowOpacity=".44" shadowRadius="4.797"/><g filter="url(#Filter_4)" layerName="Group 1" shadowAngle="1.276" shadowColor="#000000" shadowOffset="3.46" shadowOpacity=".44" shadowRadius="4.613"><path fill="#00ff96" d="M55.2234 61.2399L34.2282 83.2438L25.8977 74.527C25.2524 73.8517 24.3271 71.8243 22.8001 72.2657C21.1587 72.7403 19.1742 76.072 19.1742 77.0285C19.1742 77.9851 20.4244 78.9181 21.0696 79.5944L31.8161 90.8393C32.4613 91.5146 33.3184 91.886 34.2302 91.886C35.1429 91.886 36.0009 91.5137 36.6461 90.8374L60.1276 66.0706C61.2206 64.4193 56.5129 59.8862 55.2234 61.2399Z" layerName="path 5" opacity="1"/><path fill="none" stroke="#06ea6e" stroke-linecap="square" stroke-linejoin="miter" stroke-width="3.054" d="M55.2234 60.2399L34.2282 82.2438L25.8977 73.527C25.2524 72.8517 24.3953 72.4803 23.4837 72.4803C23.4826 72.4803 23.4817 72.4803 23.4808 72.4803C22.568 72.4803 20.0671 75.1066 20.0671 76.0632C20.0671 77.0199 20.4244 77.9181 21.0696 78.5944L31.8161 89.8393C32.4613 90.5146 33.3184 90.886 34.2302 90.886C35.1429 90.886 36.0009 90.5137 36.6461 89.8374L60.1276 65.0706C61.1281 64.191 56.1994 59.2247 55.2234 60.2399Z" filter="url(#Filter_5)" layerName="path" shadowAngle="-1.571" shadowColor="#000000" shadowOffset="0" shadowOpacity=".44" shadowRadius="2.307"/></g></svg>