<svg xmlns="http://www.w3.org/2000/svg" xmlns:vectornator="http://vectornator.io" xmlns:xlink="http://www.w3.org/1999/xlink" width="100%" height="100%" viewBox="0 0 100 100" xml:space="preserve"><defs><linearGradient id="LinearGradient" x1="0" x2="19.741" y1="50" y2="50" gradientTransform="matrix(1 0 0 1 0 0)" gradientUnits="userSpaceOnUse"><stop offset="0" stop-color="#ffea00"/><stop offset="1" stop-color="#cfbe02"/></linearGradient><filter id="Filter" width="29.195" height="107.454" x="-5.482" y="-3.158" color-interpolation-filters="sRGB" filterUnits="userSpaceOnUse"><feDropShadow dx="-.755" dy=".569" flood-color="#000" flood-opacity=".65" in="SourceGraphic" result="Shadow" stdDeviation="1.891"/></filter><linearGradient id="LinearGradient_2" x1="82.566" x2="100" y1="51.001" y2="51.001" gradientTransform="matrix(1 0 0 1 0 0)" gradientUnits="userSpaceOnUse"><stop offset="0" stop-color="#ffea00"/><stop offset="1" stop-color="#cfbe02"/></linearGradient><filter id="Filter_2" width="26.889" height="107.454" x="77.083" y="-2.157" color-interpolation-filters="sRGB" filterUnits="userSpaceOnUse"><feDropShadow dx="-.755" dy=".569" flood-color="#000" flood-opacity=".65" in="SourceGraphic" result="Shadow" stdDeviation="1.891"/></filter><linearGradient id="LinearGradient_3" x1="9.008" x2="42.313" y1="83.353" y2="83.353" gradientTransform="matrix(0.965494 0 0 0.979343 8.46932 1.38757)" gradientUnits="userSpaceOnUse"><stop offset=".426" stop-color="#fff"/><stop offset="1" stop-color="#d9d9d9"/></linearGradient><filter id="Filter_3" width="41.611" height="42.042" x="11.684" y="62.567" color-interpolation-filters="sRGB" filterUnits="userSpaceOnUse"><feDropShadow dx="-.755" dy=".569" flood-color="#000" flood-opacity=".65" in="SourceGraphic" result="Shadow" stdDeviation="1.891"/></filter><linearGradient id="LinearGradient_4" x1="90.641" x2="35.574" y1="13.055" y2="13.055" gradientTransform="matrix(1.01529 0 0 1.01529 -1.48139 0)" gradientUnits="userSpaceOnUse"><stop offset="0" stop-color="#ff0a99"/><stop offset=".499" stop-color="#ff0280"/><stop offset="1" stop-color="#ff026b"/></linearGradient><filter id="Filter_4" width="63.871" height="66.227" x="26.508" y="-4.158" color-interpolation-filters="sRGB" filterUnits="userSpaceOnUse"><feDropShadow dx="-.755" dy=".569" flood-color="#000" flood-opacity=".65" in="SourceGraphic" result="Shadow" stdDeviation="1.891"/></filter></defs><g layerName="g 2" opacity="1"><path fill="url(#LinearGradient)" d="M18.258 1.00498C12.2056 1.6362 6.57773 6.22956 6.57773 16.5454C6.57773 16.5454 6.57773 29.9248 6.57773 34.3856C6.57773 40.5573 3.55413 46.1798 1.03527 47.4847C0.437816 47.797 0 48.6514 0 49.7109L0 50.498C0 51.4371 0.382667 52.206 0.916956 52.4537C3.45818 53.6402 6.57773 59.342 6.57773 65.614C6.57773 70.075 6.57773 83.4545 6.57773 83.4545C6.57773 93.7702 12.2056 98.3636 18.258 98.9948C19.0581 99.0795 19.7405 98.004 19.7405 96.6456C19.7405 95.537 19.2729 94.6462 18.6425 94.3518C16.4224 93.3146 14.4755 89.209 14.4755 83.4545C14.4755 83.4545 14.4755 70.075 14.4755 65.614C14.4755 58.5615 10.526 52.2303 7.89403 49.9998C10.526 47.7695 14.4755 41.4384 14.4755 34.3856C14.4755 29.9248 14.4755 16.5454 14.4755 16.5454C14.4755 10.7908 16.4224 6.68742 18.6425 5.64803C19.2729 5.35362 19.7405 4.46272 19.7405 3.35419C19.7405 1.99584 19.0581 0.922454 18.258 1.00498Z" filter="url(#Filter)" layerName="path" shadowAngle="2.496" shadowColor="#000000" shadowOffset=".945" shadowOpacity=".65" shadowRadius="3.782"/><path fill="url(#LinearGradient_2)" d="M83.8753 2.00569C83.1688 1.92093 82.5659 2.99655 82.5659 4.35488C82.5659 5.46343 82.9791 6.35432 83.5358 6.64874C85.4965 7.6859 87.2159 11.7915 87.2159 17.5461C87.2159 17.5461 87.2159 30.9255 87.2159 35.3865C87.2159 42.4391 90.7039 48.7702 93.0285 51.0005C90.7039 53.231 87.2159 59.5622 87.2159 66.6147C87.2159 71.0757 87.2159 84.4552 87.2159 84.4552C87.2159 90.2097 85.4965 94.3193 83.5358 95.3585C82.9791 95.6531 82.5659 96.5377 82.5659 97.6463C82.5659 99.0047 83.1688 100.078 83.8753 99.9955C89.2205 99.3643 94.191 94.771 94.191 84.4552C94.191 84.4552 94.191 71.0757 94.191 66.6147C94.191 60.4432 96.8612 54.8291 99.0859 53.5221C99.6134 53.2098 100 52.3552 100 51.2957L100 50.5025C100 49.5634 99.6621 48.7944 99.1904 48.5468C96.9459 47.3604 94.191 41.6584 94.191 35.3865C94.191 30.9255 94.191 17.5461 94.191 17.5461C94.191 7.23027 89.2205 2.63691 83.8753 2.00569Z" filter="url(#Filter_2)" layerName="path" shadowAngle="2.496" shadowColor="#000000" shadowOffset=".945" shadowOpacity=".65" shadowRadius="3.782"/><path fill="url(#LinearGradient_3)" d="M33.4817 66.7281C30.7186 66.6752 27.8572 67.3381 25.1844 68.901C14.4933 75.1529 14.4933 90.8665 25.1844 97.1184C35.8753 103.37 49.3218 95.5137 49.3218 83.0097C49.3218 73.6319 41.771 66.8865 33.4817 66.7281ZM33.361 74.1344C37.8804 74.2208 42.0202 77.8966 42.0202 83.0097C42.0202 89.8269 34.6942 94.1307 28.8654 90.722C23.0364 87.3135 23.0364 78.7365 28.8654 75.328C30.3225 74.4757 31.8545 74.1055 33.361 74.1344Z" filter="url(#Filter_3)" layerName="path" shadowAngle="2.496" shadowColor="#000000" shadowOffset=".945" shadowOpacity=".65" shadowRadius="3.782"/><path fill="url(#LinearGradient_4)" d="M53.4578 0L53.4578 19.3396L37.6145 9.65457L31.9907 19.2227L48.5516 28.4191L31.9907 37.4832L37.5891 47.2294L53.4578 37.5037L53.4578 56.7722L64.7613 56.7722L64.7613 37.5037L80.7269 47.2753L86.4066 37.4832L69.7744 28.4191L86.4066 19.2227L80.7471 9.65457L64.7613 19.3396L64.7613 0L53.4578 0Z" filter="url(#Filter_4)" layerName="path 3" shadowAngle="2.496" shadowColor="#000000" shadowOffset=".945" shadowOpacity=".65" shadowRadius="3.782"/></g></svg>