<svg xmlns="http://www.w3.org/2000/svg" xmlns:vectornator="http://vectornator.io" xmlns:xlink="http://www.w3.org/1999/xlink" width="100%" height="100%" viewBox="0 0 100 100" xml:space="preserve"><defs><linearGradient id="LinearGradient" x1="43.52" x2="61.178" y1="31.452" y2="84.744" gradientTransform="matrix(0.915111 -4.04648e-18 2.1637e-17 0.872298 -25.1629 24.8635)" gradientUnits="userSpaceOnUse"><stop offset=".426" stop-color="#fff"/><stop offset="1" stop-color="#d9d9d9"/></linearGradient><filter id="Filter" width="43.305" height="43.275" x="3.214" y="62.322" color-interpolation-filters="sRGB" filterUnits="userSpaceOnUse"><feDropShadow dx="-.799" dy=".602" flood-color="#000" flood-opacity=".65" in="SourceGraphic" result="Shadow" stdDeviation="2"/></filter><linearGradient id="LinearGradient_2" x1="89.264" x2="34.197" y1="13.055" y2="13.055" gradientTransform="matrix(1 0 0 1 0.00465 0.00468272)" gradientUnits="userSpaceOnUse"><stop offset="0" stop-color="#00f4ff"/><stop offset=".676" stop-color="#00ffb6"/></linearGradient><filter id="Filter_2" width="69.371" height="71.942" x="25.818" y="-4.394" color-interpolation-filters="sRGB" filterUnits="userSpaceOnUse"><feDropShadow dx="-.799" dy=".602" flood-color="#000" flood-opacity=".65" in="SourceGraphic" result="Shadow" stdDeviation="2"/></filter></defs><g layerName="Group 2" opacity="1"><path fill="url(#LinearGradient)" d="M25.9108 66.7235C23.0491 66.6694 20.0854 67.3463 17.3171 68.9422C6.24395 75.326 6.24395 91.371 17.3171 97.7547C28.3901 104.139 42.3171 96.1162 42.3171 83.3485C42.3171 73.7728 34.4964 66.8852 25.9108 66.7235ZM25.7858 74.2859C30.4668 74.3741 34.7546 78.1275 34.7546 83.3485C34.7546 90.3095 27.1667 94.7041 21.1296 91.2235C15.0923 87.7431 15.0923 78.9851 21.1296 75.5047C22.6388 74.6344 24.2255 74.2565 25.7858 74.2859Z" filter="url(#Filter)" layerName="path 2" shadowAngle="2.496" shadowColor="#000000" shadowOffset="1" shadowOpacity=".65" shadowRadius="4"/><path fill="url(#LinearGradient_2)" d="M55.0384 0.00468272L55.0384 21.1055L37.7523 10.5385L31.6163 20.9779L49.6853 31.0119L31.6163 40.9015L37.7246 51.5352L55.0384 40.9237L55.0384 61.947L67.3713 61.947L67.3713 40.9237L84.7908 51.5852L90.9877 40.9015L72.8409 31.0119L90.9877 20.9779L84.8127 10.5385L67.3713 21.1055L67.3713 0.00468272L55.0384 0.00468272Z" filter="url(#Filter_2)" layerName="path 3" shadowAngle="2.496" shadowColor="#000000" shadowOffset="1" shadowOpacity=".65" shadowRadius="4"/></g></svg>