<svg xmlns="http://www.w3.org/2000/svg" xmlns:vectornator="http://vectornator.io" xmlns:xlink="http://www.w3.org/1999/xlink" width="100%" height="100%" viewBox="0 0 100 100" xml:space="preserve"><defs><filter id="Filter" width="131.923" height="132.923" x="-14.955" y="-14.151" color-interpolation-filters="sRGB" filterUnits="userSpaceOnUse"><feDropShadow dx="1.006" dy="3.31" flood-color="#000" flood-opacity=".44" in="SourceGraphic" result="Shadow" stdDeviation="5.585"/></filter><linearGradient id="LinearGradient" x1="-14.983" x2="38.014" y1="88.016" y2="87.978" gradientTransform="matrix(1 -3.22981e-22 0 1 -0.000212426 -1.5883e-15)" gradientUnits="userSpaceOnUse"><stop offset="0" stop-color="#a100bd"/><stop offset="1" stop-color="#650076"/></linearGradient><filter id="Filter_2" width="34.423" height="105" x="-2" y="-3.5" color-interpolation-filters="sRGB" filterUnits="userSpaceOnUse"><feDropShadow dx="0" dy="-1" flood-color="#000" flood-opacity=".44" in="SourceGraphic" result="Shadow" stdDeviation="1"/></filter><linearGradient id="LinearGradient_2" x1="54.593" x2="107.591" y1="88.016" y2="87.978" gradientTransform="matrix(1 -3.22981e-22 0 1 -0.000212426 -1.5883e-15)" gradientUnits="userSpaceOnUse"><stop offset="0" stop-color="#a100bd"/><stop offset="1" stop-color="#650076"/></linearGradient><filter id="Filter_3" width="34.423" height="105" x="67.577" y="-3.5" color-interpolation-filters="sRGB" filterUnits="userSpaceOnUse"><feDropShadow dx="0" dy="-1" flood-color="#000" flood-opacity=".44" in="SourceGraphic" result="Shadow" stdDeviation="1"/></filter><linearGradient id="LinearGradient_3" x1="89.407" x2="34.197" y1="46.353" y2="13.055" gradientTransform="matrix(0.869877 0 0 0.869877 20.8559 -3.55271e-15)" gradientUnits="userSpaceOnUse"><stop offset="0" stop-color="#ff0a99"/><stop offset=".499" stop-color="#ff0280"/><stop offset="1" stop-color="#ff026b"/></linearGradient><filter id="Filter_4" width="56.646" height="58.882" x="45.854" y="-3.5" color-interpolation-filters="sRGB" filterUnits="userSpaceOnUse"><feDropShadow dx="0" dy="-1" flood-color="#000" flood-opacity=".44" in="SourceGraphic" result="Shadow" stdDeviation="1"/></filter><linearGradient id="LinearGradient_4" x1="27.688" x2="56.819" y1="81.345" y2="81.345" gradientTransform="matrix(1.12814 0 0 1.10519 -4.01477 -10.1696)" gradientUnits="userSpaceOnUse"><stop offset=".426" stop-color="#fff"/><stop offset="1" stop-color="#d9d9d9"/></linearGradient><filter id="Filter_5" width="48.811" height="47.815" x="21.627" y="57.244" color-interpolation-filters="sRGB" filterUnits="userSpaceOnUse"><feDropShadow dx="0" dy="-.937" flood-color="#000" flood-opacity=".44" in="SourceGraphic" result="Shadow" stdDeviation="2.399"/></filter><filter id="Filter_6" width="60.547" height="51.136" x="22.897" y="54.237" color-interpolation-filters="sRGB" filterUnits="userSpaceOnUse"><feDropShadow dx="1.006" dy="3.31" flood-color="#000" flood-opacity=".44" in="SourceGraphic" result="Shadow" stdDeviation="2.307"/></filter><filter id="Filter_7" width="49.014" height="39.603" x="27.657" y="56.694" color-interpolation-filters="sRGB" filterUnits="userSpaceOnUse"><feDropShadow dx="0" dy="0" flood-color="#000" flood-opacity=".44" in="SourceGraphic" result="Shadow" stdDeviation="1.153"/></filter></defs><path fill="url(#LinearGradient)" d="M17.9179 0C-5.22334 29.3056-5.30553 70.4992 17.6713 99.8908L29.9236 100L26.9861 97.0625C3.66712 70.0213 3.66712 29.9787 26.9861 2.9375L29.9236 0L17.9179 0Z" filter="url(#Filter_2)" layerName="path" shadowAngle="-1.571" shadowColor="#000000" shadowOffset="1" shadowOpacity=".44" shadowRadius="2"/><path fill="url(#LinearGradient_2)" d="M70.0766 0L73.0141 2.9375C96.3331 29.9787 96.3331 70.0213 73.0141 97.0625L70.0766 100L82.1653 100C105.219 70.7058 105.278 29.3491 82.3413 0L70.0766 0Z" filter="url(#Filter_3)" layerName="path 1" shadowAngle="-1.571" shadowColor="#000000" shadowOffset="1" shadowOpacity=".44" shadowRadius="2"/><path fill="url(#LinearGradient_3)" d="M68.7284 0L68.7284 18.3551L53.6917 9.16311L48.3542 18.2441L64.072 26.9725L48.3542 35.5752L53.6676 44.8252L68.7284 35.5945L68.7284 53.8822L79.4565 53.8822L79.4565 35.5945L94.6094 44.8687L100 35.5752L84.2145 26.9725L100 18.2441L94.6285 9.16311L79.4565 18.3551L79.4565 0L68.7284 0Z" filter="url(#Filter_4)" layerName="path 3" shadowAngle="-1.571" shadowColor="#000000" shadowOffset="1" shadowOpacity=".44" shadowRadius="2"/><path fill="url(#LinearGradient_4)" d="M46.0182 64.1779C35.8672 64.1779 27.6238 72.1884 27.6239 82.1036C27.6239 92.0188 35.8672 100 46.0182 100C56.1691 100 64.4418 92.0188 64.4418 82.1036C64.4418 72.1884 56.1691 64.1779 46.0182 64.1779ZM46.0182 69.5673C53.2351 69.5673 59.0524 75.1997 59.0524 82.1036C59.0524 89.0075 53.2351 94.6399 46.0182 94.6398C38.8012 94.6398 33.0132 89.0075 33.0133 82.1036C33.0133 75.1997 38.8012 69.5673 46.0182 69.5673Z" filter="url(#Filter_5)" layerName="path 4" shadowAngle="-1.571" shadowColor="#000000" shadowOffset=".937" shadowOpacity=".44" shadowRadius="4.797"/><g filter="url(#Filter_6)" layerName="Group 1" shadowAngle="1.276" shadowColor="#000000" shadowOffset="3.46" shadowOpacity=".44" shadowRadius="4.613"><path fill="#00ff96" d="M67.2234 61.2399L46.2282 83.2438L37.8977 74.527C37.2524 73.8517 36.3271 71.8243 34.8001 72.2657C33.1587 72.7403 31.1742 76.072 31.1742 77.0285C31.1742 77.9851 32.4244 78.9181 33.0696 79.5944L43.8161 90.8393C44.4613 91.5146 45.3184 91.886 46.2302 91.886C47.1429 91.886 48.0009 91.5137 48.6461 90.8374L72.1276 66.0706C73.2206 64.4193 68.5129 59.8862 67.2234 61.2399Z" layerName="path 5" opacity="1"/><path fill="none" stroke="#06ea6e" stroke-linecap="square" stroke-linejoin="miter" stroke-width="3.054" d="M67.2234 61.2399L46.2282 83.2438L37.8977 74.527C37.2524 73.8517 36.3953 73.4803 35.4837 73.4803C35.4826 73.4803 35.4817 73.4803 35.4808 73.4803C34.568 73.4803 32.0671 76.1066 32.0671 77.0632C32.0671 78.0199 32.4244 78.9181 33.0696 79.5944L43.8161 90.8393C44.4613 91.5146 45.3184 91.886 46.2302 91.886C47.1429 91.886 48.0009 91.5137 48.6461 90.8374L72.1276 66.0706C73.1281 65.191 68.1994 60.2247 67.2234 61.2399Z" filter="url(#Filter_7)" layerName="path" shadowAngle="-1.571" shadowColor="#000000" shadowOffset="0" shadowOpacity=".44" shadowRadius="2.307"/></g></svg>