<svg height="511.383pt" stroke-miterlimit="10" style="fill-rule:nonzero;clip-rule:evenodd;stroke-linecap:round;stroke-linejoin:round;" version="1.1" viewBox="0 0 512 511.383" width="512.0pt" xml:space="preserve" xmlns="http://www.w3.org/2000/svg" xmlns:xlink="http://www.w3.org/1999/xlink">
<defs>
<filter color-interpolation-filters="sRGB" filterUnits="userSpaceOnUse" height="185.689" id="Filter" width="180.711" x="196.621" y="22.5054">
<feDropShadow dx="-3.91866" dy="4.19572" flood-color="#000000" flood-opacity="0.65" in="SourceGraphic" result="Shadow" stdDeviation="7.5"/>
</filter>
<filter color-interpolation-filters="sRGB" filterUnits="userSpaceOnUse" height="137.793" id="Filter_2" width="138.435" x="125.135" y="337.432">
<feDropShadow dx="-3.91866" dy="4.19572" flood-color="#000000" flood-opacity="0.65" in="SourceGraphic" result="Shadow" stdDeviation="7.5"/>
</filter>
<filter color-interpolation-filters="sRGB" filterUnits="userSpaceOnUse" height="508.227" id="Filter_3" width="121.243" x="359.526" y="6.69356">
<feDropShadow dx="-4.77796" dy="5.11577" flood-color="#000000" flood-opacity="0.6" in="SourceGraphic" result="Shadow" stdDeviation="7.5"/>
</filter>
<filter color-interpolation-filters="sRGB" filterUnits="userSpaceOnUse" height="508.227" id="Filter_4" width="132.322" x="21.6749" y="6.69356">
<feDropShadow dx="-4.77796" dy="5.11577" flood-color="#000000" flood-opacity="0.6" in="SourceGraphic" result="Shadow" stdDeviation="7.5"/>
</filter>
</defs>
<path d="M275.776 37.0597L275.776 87.5294L234.09 62.268L219.289 87.2367L262.865 111.247L219.289 134.885L234.01 160.333L275.776 134.965L275.776 185.249C275.775 185.249 305.536 185.249 305.536 185.249L305.536 134.965L347.541 160.439L362.5 134.885L318.712 111.247L362.5 87.2367L347.593 62.268L305.536 87.5294L305.536 37.0597L275.776 37.0597Z" fill="#efefef" fill-rule="nonzero" filter="url(#Filter)" stroke="none"/>
<path d="M198.79 364.515C192.269 364.393 185.558 365.972 179.25 369.58C154.018 384.006 154.018 420.264 179.25 434.692C204.481 449.12 236.215 430.991 236.215 402.136C236.215 380.494 218.354 364.881 198.79 364.515Z" fill="none" filter="url(#Filter_2)" stroke="#efefef" stroke-linecap="butt" stroke-linejoin="round" stroke-width="25.0457"/>
<path d="M389.344 20.3503C385.95 19.9432 383.054 25.1098 383.054 31.6344C383.054 36.9591 385.038 41.2385 387.713 42.6527C397.131 47.6345 405.39 67.3555 405.39 94.9968C405.39 94.9968 405.39 159.264 405.39 180.691C405.39 214.568 422.144 244.978 433.309 255.692C422.144 266.406 405.39 296.816 405.39 330.693C405.39 352.12 405.39 416.387 405.39 416.387C405.39 444.029 397.131 463.768 387.713 468.761C385.038 470.175 383.054 474.425 383.054 479.75C383.054 486.274 385.95 491.43 389.344 491.034C415.019 488.002 438.893 465.938 438.893 416.387C438.893 416.387 438.893 352.12 438.893 330.693C438.893 301.048 451.72 274.081 462.405 267.803C464.94 266.303 466.797 262.199 466.797 257.11L466.797 253.299C466.797 248.789 465.174 245.095 462.907 243.906C452.127 238.206 438.893 210.818 438.893 180.691C438.893 159.264 438.893 94.9968 438.893 94.9968C438.893 45.446 415.019 23.3823 389.344 20.3503Z" fill="#D5004A" fill-rule="nonzero" filter="url(#Filter_3)" stroke="none"/>
<path d="M132.903 20.3492C103.831 23.3812 76.7983 45.4449 76.7983 94.9957C76.7983 94.9957 76.7983 159.263 76.7983 180.69C76.7983 210.335 62.2747 237.342 50.1757 243.609C47.3058 245.109 45.2028 249.214 45.2028 254.303L45.2028 258.084C45.2028 262.594 47.0409 266.288 49.6073 267.477C61.8138 273.177 76.7983 300.565 76.7983 330.692C76.7983 352.119 76.7983 416.386 76.7983 416.386C76.7983 465.937 103.831 488.001 132.903 491.033C136.746 491.44 140.025 486.273 140.025 479.749C140.025 474.424 137.778 470.145 134.75 468.73C124.086 463.748 114.734 444.027 114.734 416.386C114.734 416.386 114.734 352.119 114.734 330.692C114.734 296.815 95.7636 266.405 83.1209 255.691C95.7636 244.977 114.734 214.567 114.734 180.69C114.734 159.263 114.734 94.9957 114.734 94.9957C114.734 67.3544 124.086 47.6442 134.75 42.6516C137.778 41.2374 140.025 36.958 140.025 31.6333C140.025 25.1087 136.746 19.9528 132.903 20.3492Z" fill="#D5004A" fill-rule="nonzero" filter="url(#Filter_4)" stroke="none"/>
</svg>