<svg height="100%" stroke-miterlimit="10" style="fill-rule:nonzero;clip-rule:evenodd;stroke-linecap:round;stroke-linejoin:round;" version="1.1" viewBox="0 0 100 100" width="100%" xml:space="preserve" xmlns="http://www.w3.org/2000/svg" xmlns:vectornator="http://vectornator.io" xmlns:xlink="http://www.w3.org/1999/xlink">
<defs>
<radialGradient cx="11.4383" cy="97.1448" gradientTransform="matrix(1 0 0 1 0 0)" gradientUnits="userSpaceOnUse" id="RadialGradient" r="151.176">
<stop offset="0" stop-color="#00f4ff"/>
<stop offset="0.498684" stop-color="#00ffb6"/>
</radialGradient>
<filter color-interpolation-filters="sRGB" filterUnits="userSpaceOnUse" height="124.357" id="Filter" width="124.357" x="-12.1787" y="-12.1787">
<feGaussianBlur in="SourceGraphic" result="Blur" stdDeviation="7.5"/>
</filter>
<radialGradient cx="6.86698" cy="92.5735" gradientTransform="matrix(1 0 0 1 0 0)" gradientUnits="userSpaceOnUse" id="RadialGradient_2" r="151.176">
<stop offset="0" stop-color="#00f4ff"/>
<stop offset="0.498684" stop-color="#00ffb6"/>
</radialGradient>
<filter color-interpolation-filters="sRGB" filterUnits="userSpaceOnUse" height="108.5" id="Filter_2" width="108.5" x="-4.54794" y="-3.43142">
<feDropShadow dx="-0.297945" dy="0.818576" flood-color="#023b0d" flood-opacity="0.75" in="SourceGraphic" result="Shadow" stdDeviation="2.5"/>
</filter>
</defs>
<g id="Layer" layerName="Layer">
<g opacity="1" layerName="g">
<path d="M93.4287 93.4287L6.57129 93.4287L6.57129 6.57129C54.5411 6.57129 93.4287 45.4589 93.4287 93.4287Z" fill="url(#RadialGradient)" fill-rule="nonzero" filter="url(#Filter)" opacity="0.4" stroke="none" blur="15" layerName="path"/>
<path d="M98 93.4287C98 95.9532 95.9532 98 93.4287 98C90.9039 98 88.857 95.9532 88.857 93.4287C88.857 48.0569 51.9431 11.143 6.57129 11.143C4.04685 11.143 2 9.09615 2 6.57129C2 4.04685 4.04685 2 6.57129 2C56.9828 2 98 43.0172 98 93.4287ZM6.57129 43.1429C4.04685 43.1429 2 45.1897 2 47.7141C2 50.239 4.04685 52.2859 6.57129 52.2859C29.2834 52.3111 47.6889 70.7166 47.7141 93.4287C47.7141 95.9532 49.761 98 52.2859 98C54.8103 98 56.8571 95.9532 56.8571 93.4287C56.8257 65.6697 34.3303 43.1743 6.57129 43.1429ZM8.85714 84.2857C5.06986 84.2857 2 87.3556 2 91.1429C2 94.9301 5.06986 98 8.85714 98C12.6444 98 15.7143 94.9301 15.7143 91.1429C15.7143 87.3556 12.644 84.2857 8.85714 84.2857Z" fill="url(#RadialGradient_2)" fill-rule="nonzero" filter="url(#Filter_2)" stroke="none" layerName="path" shadowAngle="1.91987" shadowColor="#023b0d" shadowOffset="0.871113" shadowOpacity="0.75" shadowRadius="5"/>
</g>
</g>
</svg>