<svg xmlns="http://www.w3.org/2000/svg" xmlns:xlink="http://www.w3.org/1999/xlink" width="100%" height="100%" version="1.1" viewBox="0 0 100 100" xml:space="preserve"><defs><linearGradient id="LG" x1="0" x2="1" y1="0" y2="0" gradientTransform="matrix(40.9336 42.5406 -42.9677 40.5145 66.8494 68.6434)" gradientUnits="userSpaceOnUse"><stop offset="0" stop-color="#fe00a5" stop-opacity=".9"/><stop offset="1" stop-color="#ff0089" stop-opacity=".3"/></linearGradient><linearGradient id="LG_2" x1="0" x2="1" y1="0" y2="0" gradientTransform="matrix(-103.741 -21.6529 21.6529 -103.741 90.6396 51.3659)" gradientUnits="userSpaceOnUse"><stop offset="0" stop-color="#74bcff"/><stop offset="1" stop-color="#cbf1ff" stop-opacity=".26"/></linearGradient><linearGradient id="LG_3" x1="0" x2="1" y1="0" y2="0" gradientTransform="matrix(26.553 24.361 -24.361 26.553 51.7226 49.9957)" gradientUnits="userSpaceOnUse"><stop offset=".118" stop-color="#ba0042"/><stop offset=".537" stop-color="#e80075"/><stop offset="1" stop-color="#ff0083"/></linearGradient><linearGradient id="LG_4" x1="0" x2="1" y1="0" y2="0" gradientTransform="matrix(24.0406 22.056 -22.056 24.0406 52.9805 52.3016)" gradientUnits="userSpaceOnUse"><stop offset=".118" stop-color="#ba0042"/><stop offset=".537" stop-color="#e80075"/><stop offset="1" stop-color="#ff0083"/></linearGradient><linearGradient id="LG_5" x1="0" x2="1" y1="0" y2="0" gradientTransform="matrix(17.3757 15.9413 -15.9413 17.3757 53.4033 53.5778)" gradientUnits="userSpaceOnUse"><stop offset=".118" stop-color="#ba0042"/><stop offset=".537" stop-color="#e80075"/><stop offset="1" stop-color="#ff0083"/></linearGradient><linearGradient id="LG_6" x1="0" x2="1" y1="0" y2="0" gradientTransform="matrix(14.6804 13.4685 -13.4685 14.6804 54.7387 55.8846)" gradientUnits="userSpaceOnUse"><stop offset=".118" stop-color="#ba0042"/><stop offset=".537" stop-color="#e80075"/><stop offset="1" stop-color="#ff0083"/></linearGradient></defs><g opacity="1"><path fill="url(#LG)" stroke="none" d="M56.8037 57.3974C59.5686 54.6325 64.0513 54.6325 66.8162 57.3974L93.3047 83.8859C96.0696 86.6508 96.0696 91.1336 93.3047 93.8985L93.3047 93.8985C90.5398 96.6634 86.0571 96.6634 83.2922 93.8985L56.8037 67.41C54.0388 64.6451 54.0388 60.1623 56.8037 57.3974L56.8037 57.3974Z" opacity=".994"/><path fill="url(#LG_2)" stroke="none" d="M7.17867 58.4544C-3.64458 40.6309 2.03027 17.4082 19.8538 6.5849C37.6772-4.2383 60.9 1.43646 71.7233 19.26C79.4328 31.9558 78.7714 47.3911 71.3111 59.1332C68.298 63.8757 64.1758 68.0157 59.0482 71.1295C41.2247 81.9527 18.0019 76.2779 7.17867 58.4544Z" opacity="1"/><g opacity="1"><path fill="url(#LG_3)" stroke="none" d="M62.0196 45.2564C52.5177 45.2564 44.8088 52.9352 44.8088 62.4371C44.8088 67.3413 46.8724 71.7598 50.1646 74.8938C53.2089 73.9893 56.1989 72.8585 59.0408 71.1327C64.1685 68.019 68.3039 63.8698 71.317 59.1273C72.8803 56.6668 74.0662 54.03 75.0179 51.3042C71.8626 47.6263 67.2456 45.2564 62.0196 45.2564Z" opacity=".11"/><path fill="url(#LG_4)" stroke="none" d="M61.9594 47.7839C53.8126 47.7839 47.2159 54.3805 47.2159 62.5273C47.2159 67.2286 49.4468 71.3802 52.8726 74.0814C54.9791 73.277 57.0448 72.3448 59.0408 71.1327C64.1685 68.019 68.3039 63.8698 71.317 59.1273C72.3542 57.4949 73.2248 55.8002 73.9949 54.0423C71.3243 50.2597 66.9419 47.7839 61.9594 47.7839Z" opacity=".15"/><path fill="url(#LG_5)" stroke="none" d="M61.9895 50.1007C55.1879 50.1007 49.6832 55.6354 49.6832 62.4371C49.6832 66.8683 52.1588 70.558 55.6709 72.7274C56.7956 72.1885 57.9523 71.7937 59.0408 71.1327C64.1685 68.019 68.3039 63.8698 71.317 59.1273C71.8294 58.3208 72.2233 57.4692 72.671 56.63C70.5831 52.799 66.6596 50.1007 61.9895 50.1007Z" opacity=".2"/><path fill="url(#LG_6)" stroke="none" d="M61.9594 52.7184C56.5348 52.7184 52.1505 57.1027 52.1505 62.5273C52.1505 66.5869 54.5951 70.0875 58.1081 71.5841C58.1158 71.5874 58.1304 71.5808 58.1381 71.5841C58.4356 71.4142 58.7462 71.3116 59.0408 71.1327C64.0772 68.0744 68.1383 64.0049 71.1365 59.368C69.8081 55.5166 66.2622 52.7184 61.9594 52.7184Z" opacity=".25"/></g></g></svg>