<svg xmlns="http://www.w3.org/2000/svg" xmlns:svg="http://www.w3.org/2000/svg" id="svg4" version="1.1" viewBox="0 0 48 48"><defs id="defs4"><filter style="color-interpolation-filters:sRGB" id="filter25" width="1.179" height="1.187" x="-.086" y="-.088"><feFlood id="feFlood24" flood-color="#000" flood-opacity=".498" in="SourceGraphic" result="flood"/><feGaussianBlur id="feGaussianBlur24" in="SourceGraphic" result="blur" stdDeviation=".6"/><feOffset id="feOffset24" dx=".3" dy=".4" in="blur" result="offset"/><feComposite id="feComposite24" in="flood" in2="offset" operator="in" result="comp1"/><feComposite id="feComposite25" in="SourceGraphic" in2="comp1" operator="over" result="comp2"/></filter></defs><g id="g4" fill="none" stroke="#232423" stroke-linecap="round" stroke-linejoin="round" stroke-width="4" style="filter:url(#filter25)"><path id="path2" fill="#efefef" stroke="#232423" d="M 10.77,24.5 C 6.62,25.6 4,27.208 4,29 c 0,3.314 8.954,6 20,6 11.046,0 20,-2.686 20,-6 0,-1.792 -2.619,-3.4 -6.77,-4.5" style="display:inline;stroke:#0f122e;stroke-opacity:1"/><path id="path6" fill="#863bcc" stroke="#232423" d="M 10.77,33.5 C 6.62,34.6 4,36.208 4,38 c 0,3.314 8.954,6 20,6 11.046,0 20,-2.686 20,-6 0,-1.792 -2.619,-3.4 -6.77,-4.5 C 33.704,34.433 29.072,35 24,35 18.928,35 14.296,34.433 10.77,33.5 Z" style="display:inline;fill:#efefef;fill-opacity:1;stroke:#0f122e;stroke-opacity:1"/><path id="path4" fill="#863bcc" stroke="#232423" d="M 10.77,15.5 C 6.62,16.6 4,18.208 4,20 c 0,3.314 8.954,6 20,6 11.046,0 20,-2.686 20,-6 0,-1.792 -2.619,-3.4 -6.77,-4.5 C 33.704,16.433 29.072,17 24,17 18.928,17 14.296,16.433 10.77,15.5 Z" style="display:inline;stroke:#0f122e;stroke-opacity:1;fill:#f0f"/><ellipse id="ellipse6" cx="24" cy="11" rx="20" ry="6" style="display:inline;fill:#efefef;fill-opacity:1;stroke:#0f122e;stroke-opacity:1"/></g></svg>