<svg height="100%" stroke-miterlimit="10" style="fill-rule:nonzero;clip-rule:evenodd;stroke-linecap:round;stroke-linejoin:round;" version="1.1" viewBox="-0.247367 0.943273 99.9651 99.9972" width="100%" xml:space="preserve" xmlns="http://www.w3.org/2000/svg" xmlns:vectornator="http://vectornator.io" xmlns:xlink="http://www.w3.org/1999/xlink"><defs><filter color-interpolation-filters="sRGB" filterUnits="userSpaceOnUse" height="99.9972" id="Filter_SVGVECTORGREEN" width="99.9303" x="-0.212584" y="0.943273">
<feDropShadow dx="-0.328934" dy="0.944353" flood-color="#000000" flood-opacity="0.6" in="SourceGraphic" result="Shadow" stdDeviation="0.967373"/></filter><filter color-interpolation-filters="sRGB" filterUnits="userSpaceOnUse" height="69.8369" id="Filter_SVGVECTORGREEN_2" width="88.9806" x="-0.247367" y="31.0259">
<feDropShadow dx="-0.328934" dy="0.944353" flood-color="#000000" flood-opacity="0.6" in="SourceGraphic" result="Shadow" stdDeviation="0.967373"/></filter><filter color-interpolation-filters="sRGB" filterUnits="userSpaceOnUse" height="99.8369" id="Filter_SVGVECTORGREEN_3" width="99.8369" x="-0.247367" y="1.02592">
<feDropShadow dx="-0.328934" dy="0.944353" flood-color="#000000" flood-opacity="0.6" in="SourceGraphic" result="Shadow" stdDeviation="0.967373"/></filter></defs><g id="Layer-1" layerName="Layer-1"><g opacity="1" layerName="Group-1"><path d="M84.1438 20.4875L56.6563 5L25.4 10.5875L5 35L5 65.8925L25.4 89.7313L56.6563 95L84.1438 79.2313L95 49.805L84.1438 20.4875Z" fill="none" filter="url(#Filter_SVGVECTORGREEN)" stroke="#0ce453" stroke-linecap="butt" stroke-linejoin="miter" stroke-width="4.93043" layerName="path-71" shadowAngle="1.90597" shadowColor="#000000" shadowOffset="1" shadowOpacity="0.6" shadowRadius="1.93475"/><path d="M5 35L31.25 68.75L25.4 89.7313M84.1438 79.2313L72.5 61.25L31.25 68.75L56.6563 95" fill="none" filter="url(#Filter_SVGVECTORGREEN_2)" stroke="#0ce453" stroke-linecap="round" stroke-linejoin="round" stroke-width="5" layerName="path-72" shadowAngle="1.90597" shadowColor="#000000" shadowOffset="1" shadowOpacity="0.6" shadowRadius="1.93475"/><path d="M95 50L72.5 61.25L56.6563 95M56.6563 5L46.25 35L25.4 10.5875L5 35L46.25 35L31.25 68.75L5 65.8925M72.5 61.25L46.25 35L84.1438 20.4875L72.5 61.25" fill="none" filter="url(#Filter_SVGVECTORGREEN_3)" stroke="#4dff87" stroke-linecap="round" stroke-linejoin="round" stroke-width="5" layerName="path-73" shadowAngle="1.90597" shadowColor="#000000" shadowOffset="1" shadowOpacity="0.6" shadowRadius="1.93475"/></g></g></svg>
