<svg xmlns="http://www.w3.org/2000/svg" xmlns:vectornator="http://vectornator.io" xmlns:xlink="http://www.w3.org/1999/xlink" width="100%" height="100%" viewBox="0 0 100 100" xml:space="preserve"><defs><linearGradient id="LinearGradient" x1="11.389" x2="115.812" y1="20.901" y2="20.378" gradientTransform="matrix(1.10119 0 0 1.10119 -5.05945 -1.65141)" gradientUnits="userSpaceOnUse"><stop offset="0" stop-color="#cc00b9"/><stop offset=".67" stop-color="#a60095"/><stop offset="1" stop-color="#800073"/></linearGradient><filter id="Filter" width="75.132" height="84.53" x="12.434" y="-4.247" color-interpolation-filters="sRGB" filterUnits="userSpaceOnUse"><feDropShadow dx="0" dy="-1.041" flood-color="#000" flood-opacity=".65" in="SourceGraphic" result="Shadow" stdDeviation="2.082"/></filter><filter id="Filter_2" width="104.798" height="39.465" x="-2.399" y="64.317" color-interpolation-filters="sRGB" filterUnits="userSpaceOnUse"><feDropShadow dx="0" dy="-.945" flood-color="#000" flood-opacity=".65" in="SourceGraphic" result="Shadow" stdDeviation="1.891"/></filter></defs><g id="Layer" layerName="Layer"><g layerName="g 4" opacity="1"><path fill="url(#LinearGradient)" d="M17.64 19.1044L41.4478 19.1044L41.4478 76.1189L58.5522 76.1189L58.5522 19.1044L82.36 19.1044L82.36 2L17.64 2L17.64 19.1044Z" filter="url(#Filter)" layerName="path" shadowAngle="-1.571" shadowColor="#000000" shadowOffset="1.041" shadowOpacity=".65" shadowRadius="4.165"/><path fill="#2196f3" d="M79.3486 79.9932L79.3486 89.9966L20.3708 89.9966L20.3708 79.9932L79.3486 79.9932ZM20.3708 79.9932L20.3708 89.9966L9.94642 89.9966L9.94642 79.9932L20.3708 79.9932ZM20.3708 69.9898L20.3708 79.9932L9.94642 79.9932L9.94642 89.9966L20.3708 89.9966L20.3708 100L2.32857 85.0143L20.3708 69.9898ZM79.3486 69.9898L97.6714 85.0143L79.3486 100L79.3486 89.9966L88.49 89.9966L88.49 79.9932L79.3486 79.9932L79.3486 69.9898ZM88.49 79.9932L88.49 89.9966L79.3486 89.9966L79.3486 79.9932L88.49 79.9932Z" filter="url(#Filter_2)" layerName="path" shadowAngle="-1.571" shadowColor="#000000" shadowOffset=".945" shadowOpacity=".65" shadowRadius="3.782"/></g></g></svg>