<svg height="100%" stroke-miterlimit="10" style="fill-rule:nonzero;clip-rule:evenodd;stroke-linecap:round;stroke-linejoin:round;" version="1.1" viewBox="-2.0158 -2.16944 100.833 107.537" width="100%" xml:space="preserve" xmlns="http://www.w3.org/2000/svg" xmlns:vectornator="http://vectornator.io" xmlns:xlink="http://www.w3.org/1999/xlink">
<defs>
<filter color-interpolation-filters="sRGB" filterUnits="userSpaceOnUse" height="82.9558" id="Filter" width="100.833" x="-2.0158" y="10.1213">
<feComponentTransfer in="SourceGraphic" result="Alpha">
<feFuncA slope="0.5" type="linear"/>
</feComponentTransfer>
<feDropShadow dx="-1.5992" dy="1.59918" flood-color="#000000" flood-opacity="0.55" in="Alpha" result="Shadow" stdDeviation="2.28925"/>
</filter>
<filter color-interpolation-filters="sRGB" filterUnits="userSpaceOnUse" height="107.537" id="Filter_2" width="18.1503" x="52.7337" y="-2.16944">
<feDropShadow dx="-1.5992" dy="1.59918" flood-color="#000000" flood-opacity="0.55" in="SourceGraphic" result="Shadow" stdDeviation="2.28925"/>
</filter>
<filter color-interpolation-filters="sRGB" filterUnits="userSpaceOnUse" height="52.4386" id="Filter_3" width="47.6978" x="7.72433" y="25.477">
<feDropShadow dx="-1.69634" dy="1.69632" flood-color="#000000" flood-opacity="0.55" in="SourceGraphic" result="Shadow" stdDeviation="2.42831"/>
</filter>
</defs>
<g id="Layer" layerName="Layer">
<g opacity="1" layerName="Group 9">
<path d="M10.5446 80.5167C15.7782 85.7548 24.2074 85.7548 41.0613 85.7548L66.7601 85.728C78.5413 85.6073 85.1023 84.8743 89.4554 80.5167C94.6935 75.2831 94.6935 66.8539 94.6935 50C94.6935 33.1461 94.6935 24.7169 89.4554 19.4833C85.1023 15.1257 78.4876 14.3704 66.7064 14.2452L41.0613 14.2452C24.2074 14.2452 15.7782 14.2452 10.5446 19.4833C5.30651 24.7169 5.30651 33.1461 5.30651 50C5.30651 66.8539 5.30651 75.2831 10.5446 80.5167Z" fill="#efefef" fill-rule="nonzero" filter="url(#Filter)" stroke="none" layerName="path" shadowAngle="2.3562" shadowColor="#000000" shadowOffset="2.26159" shadowOpacity="0.55" shadowRadius="4.57849"/>
<path d="M63.408 1.9545C65.2593 1.9545 66.7601 3.45525 66.7601 5.30651L66.7601 94.6935C66.7601 96.5448 65.2593 98.0455 63.408 98.0455C61.5568 98.0455 60.056 96.5448 60.056 94.6935L60.056 5.30651C60.056 3.45525 61.5568 1.9545 63.408 1.9545Z" fill="#ffffff" fill-rule="evenodd" filter="url(#Filter_2)" stroke="none" layerName="path" shadowAngle="2.3562" shadowColor="#000000" shadowOffset="2.26159" shadowOpacity="0.55" shadowRadius="4.57849"/>
<path d="M22.9251 30.0269C24.3473 29.8514 26.0825 29.8514 27.9788 29.8514L38.5603 29.8514C40.4567 29.8514 42.1918 29.8514 43.6141 30.0269C45.1738 30.2212 46.8378 30.6763 48.2601 31.9469C48.5066 32.165 48.7342 32.3925 48.9523 32.6391C50.2228 34.0613 50.6779 35.7253 50.8723 37.2851C51.0477 38.7073 51.0477 40.4425 51.0477 42.3388L51.0477 42.5332C51.0477 44.4969 49.4558 46.0888 47.4921 46.0888C45.5284 46.0888 43.9365 44.4969 43.9365 42.5332C43.9365 40.3761 43.9317 39.0913 43.8132 38.1621C43.6994 37.2377 42.7323 37.086 42.7323 37.086C41.8078 36.9674 40.5231 36.9627 38.366 36.9627L36.8252 36.9627L36.8252 63.0373L42.7512 63.0373C44.715 63.0373 46.3069 64.6292 46.3069 66.5929C46.3069 68.5566 44.715 70.1486 42.7512 70.1486L23.7879 70.1486C21.8242 70.1486 20.2323 68.5566 20.2323 66.5929C20.2323 64.6292 21.8242 63.0373 23.7879 63.0373L29.7139 63.0373L29.7139 36.9627L28.1732 36.9627C26.0161 36.9627 24.7313 36.9674 23.8021 37.086C23.8021 37.086 22.8397 37.2377 22.7259 38.1621C22.6074 39.0913 22.6027 40.3761 22.6027 42.5332C22.6027 44.4969 21.0108 46.0888 19.0471 46.0888C17.0833 46.0888 15.4914 44.4969 15.4914 42.5332L15.4914 42.3388C15.4914 40.4425 15.4914 38.7073 15.6668 37.2851C15.8612 35.7253 16.3163 34.0613 17.5869 32.6391C17.805 32.3925 18.0325 32.165 18.279 31.9469C19.7013 30.6763 21.3653 30.2212 22.9251 30.0269Z" fill="#ffffff" fill-rule="nonzero" filter="url(#Filter_3)" stroke="none" layerName="path" shadowAngle="2.3562" shadowColor="#000000" shadowOffset="2.39897" shadowOpacity="0.55" shadowRadius="4.85661"/>
</g>
</g>
</svg>
