<svg width="100%" height="100%" viewBox="0 0 100 100" stroke-miterlimit="10" style="fill-rule:nonzero;clip-rule:evenodd;stroke-linecap:round;stroke-linejoin:round;" version="1.1" xml:space="preserve" xmlns="http://www.w3.org/2000/svg" xmlns:vectornator="http://vectornator.io" xmlns:xlink="http://www.w3.org/1999/xlink">
<defs>
<linearGradient gradientTransform="matrix(1.09244 0 0 1.09244 -4.62208 -1.53515)" gradientUnits="userSpaceOnUse" id="LinearGradient" x1="4.23096" x2="95.769" y1="50" y2="50">
<stop offset="0" stop-color="#00ff73"/>
<stop offset="0.289474" stop-color="#00d863"/>
<stop offset="1" stop-color="#047d3b"/>
</linearGradient>
<linearGradient gradientTransform="matrix(1.09244 0 0 1.09244 -4.62208 -1.53515)" gradientUnits="userSpaceOnUse" id="LinearGradient_2" x1="76.7502" x2="95.769" y1="49.8943" y2="50">
<stop offset="0" stop-color="#a100bd"/>
<stop offset="1" stop-color="#650076"/>
</linearGradient>
<filter color-interpolation-filters="sRGB" filterUnits="userSpaceOnUse" height="83.2494" id="Filter" width="21.0893" x="82.9377" y="12.3032">
<feDropShadow dx="-1.11751" dy="0.840982" flood-color="#000000" flood-opacity="0.5" in="SourceGraphic" result="Shadow" stdDeviation="2.05781"/>
</filter>
<linearGradient gradientTransform="matrix(1.09244 0 0 1.09244 -4.62208 -1.53515)" gradientUnits="userSpaceOnUse" id="LinearGradient_3" x1="2.44708" x2="16.6868" y1="50.4552" y2="50.8972">
<stop offset="0" stop-color="#a100bd"/>
<stop offset="1" stop-color="#650076"/>
</linearGradient>
<filter color-interpolation-filters="sRGB" filterUnits="userSpaceOnUse" height="83.2494" id="Filter_2" width="21.0893" x="-6.26203" y="12.3032">
<feDropShadow dx="-1.11751" dy="0.840982" flood-color="#000000" flood-opacity="0.5" in="SourceGraphic" result="Shadow" stdDeviation="2.05781"/>
</filter>
<linearGradient gradientTransform="matrix(1.09244 0 0 1.09244 -4.62208 -1.53515)" gradientUnits="userSpaceOnUse" id="LinearGradient_4" x1="70.2311" x2="70.7667" y1="89.4325" y2="73.0366">
<stop offset="0" stop-color="#2401ff"/>
<stop offset="1" stop-color="#6e8eff"/>
</linearGradient>
<filter color-interpolation-filters="sRGB" filterUnits="userSpaceOnUse" height="12.9697" id="Filter_3" width="83.2494" x="7.25779" y="82.5829">
<feDropShadow dx="-1.11751" dy="0.840982" flood-color="#000000" flood-opacity="0.5" in="SourceGraphic" result="Shadow" stdDeviation="2.05781"/>
</filter>
<linearGradient gradientTransform="matrix(1.09244 0 0 1.09244 -4.62208 -1.53515)" gradientUnits="userSpaceOnUse" id="LinearGradient_5" x1="41.4178" x2="40.1806" y1="-10.9877" y2="61.7307">
<stop offset="0" stop-color="#2401ff"/>
<stop offset="1" stop-color="#6e8eff"/>
</linearGradient>
<filter color-interpolation-filters="sRGB" filterUnits="userSpaceOnUse" height="12.9697" id="Filter_4" width="83.2494" x="7.25779" y="12.3032">
<feDropShadow dx="-1.11751" dy="0.840982" flood-color="#000000" flood-opacity="0.5" in="SourceGraphic" result="Shadow" stdDeviation="2.05781"/>
</filter>
<linearGradient gradientTransform="matrix(1.09244 0 0 1.09244 -4.62208 -1.53515)" gradientUnits="userSpaceOnUse" id="LinearGradient_6" x1="61.678" x2="61.8114" y1="65.4912" y2="35.5204">
<stop offset="0" stop-color="#ff0a99"/>
<stop offset="0.498684" stop-color="#ff0280"/>
<stop offset="1" stop-color="#ff026b"/>
</linearGradient>
<filter color-interpolation-filters="sRGB" filterUnits="userSpaceOnUse" height="41.5876" id="Filter_5" width="79.6182" x="9.07339" y="33.1341">
<feDropShadow dx="-1.11751" dy="0.840982" flood-color="#000000" flood-opacity="0.5" in="SourceGraphic" result="Shadow" stdDeviation="2.14522"/>
</filter>
</defs>
<g opacity="1" layerName="Group 1">
<g opacity="1" layerName="Group 1">
<path d="M0 16.6067L0 89.5671L10.8003 89.5671L10.8003 16.6067L0 16.6067ZM14.8796 16.6067C14.1333 16.6067 13.5198 17.2202 13.5198 17.9665C13.5198 18.7128 14.1333 19.2874 14.8796 19.2874C15.6259 19.2874 16.2005 18.7128 16.2005 17.9665C16.2005 17.2202 15.6259 16.6067 14.8796 16.6067ZM20.2797 16.6067C19.5334 16.6067 18.92 17.2202 18.92 17.9665C18.92 18.7128 19.5334 19.2874 20.2797 19.2874C21.026 19.2874 21.6395 18.7128 21.6395 17.9665C21.6395 17.2202 21.026 16.6067 20.2797 16.6067ZM25.6799 16.6067C24.9336 16.6067 24.3201 17.2202 24.3201 17.9665C24.3201 18.7128 24.9336 19.2874 25.6799 19.2874C26.4262 19.2874 27.0396 18.7128 27.0396 17.9665C27.0396 17.2202 26.4262 16.6067 25.6799 16.6067ZM31.08 16.6067C30.3337 16.6067 29.7203 17.2202 29.7203 17.9665C29.7203 18.7128 30.3337 19.2874 31.08 19.2874C31.8263 19.2874 32.4398 18.7128 32.4398 17.9665C32.4398 17.2202 31.8263 16.6067 31.08 16.6067ZM36.4802 16.6067C35.7339 16.6067 35.1204 17.2202 35.1204 17.9665C35.1204 18.7128 35.7339 19.2874 36.4802 19.2874C37.2265 19.2874 37.8399 18.7128 37.8399 17.9665C37.8399 17.2202 37.2265 16.6067 36.4802 16.6067ZM41.8803 16.6067C41.134 16.6067 40.5594 17.2202 40.5594 17.9665C40.5594 18.7128 41.134 19.2874 41.8803 19.2874C42.6266 19.2874 43.2401 18.7128 43.2401 17.9665C43.2401 17.2202 42.6266 16.6067 41.8803 16.6067ZM47.2805 16.6067C46.5342 16.6067 45.9596 17.2202 45.9596 17.9665C45.9596 18.7128 46.5342 19.2874 47.2805 19.2874C48.0268 19.2874 48.6402 18.7128 48.6402 17.9665C48.6402 17.2202 48.0268 16.6067 47.2805 16.6067ZM52.7195 16.6067C51.9732 16.6067 51.3598 17.2202 51.3598 17.9665C51.3598 18.7128 51.9732 19.2874 52.7195 19.2874C53.4658 19.2874 54.0404 18.7128 54.0404 17.9665C54.0404 17.2202 53.4658 16.6067 52.7195 16.6067ZM58.1197 16.6067C57.3734 16.6067 56.7599 17.2202 56.7599 17.9665C56.7599 18.7128 57.3734 19.2874 58.1197 19.2874C58.866 19.2874 59.4406 18.7128 59.4406 17.9665C59.4406 17.2202 58.866 16.6067 58.1197 16.6067ZM63.5198 16.6067C62.7735 16.6067 62.1601 17.2202 62.1601 17.9665C62.1601 18.7128 62.7735 19.2874 63.5198 19.2874C64.2661 19.2874 64.8795 18.7128 64.8796 17.9665C64.8796 17.2202 64.2661 16.6067 63.5198 16.6067ZM68.92 16.6067C68.1737 16.6067 67.5602 17.2202 67.5602 17.9665C67.5602 18.7128 68.1737 19.2874 68.92 19.2874C69.6663 19.2874 70.2797 18.7128 70.2797 17.9665C70.2797 17.2202 69.6663 16.6067 68.92 16.6067ZM74.3201 16.6067C73.5738 16.6067 72.9604 17.2202 72.9604 17.9665C72.9604 18.7128 73.5738 19.2874 74.3201 19.2874C75.0664 19.2874 75.6799 18.7128 75.6799 17.9665C75.6799 17.2202 75.0664 16.6067 74.3201 16.6067ZM79.7203 16.6067C78.974 16.6067 78.3605 17.2202 78.3605 17.9665C78.3605 18.7128 78.974 19.2874 79.7203 19.2874C80.4666 19.2874 81.08 18.7128 81.08 17.9665C81.08 17.2202 80.4666 16.6067 79.7203 16.6067ZM85.1204 16.6067C84.3741 16.6067 83.7996 17.2202 83.7995 17.9665C83.7995 18.7128 84.3741 19.2874 85.1204 19.2874C85.8667 19.2874 86.4802 18.7128 86.4802 17.9665C86.4802 17.2202 85.8667 16.6067 85.1204 16.6067ZM89.1997 16.6067L89.1997 89.5671L100 89.5671L100 16.6067L89.1997 16.6067ZM14.8796 86.8865C14.1333 86.8865 13.5198 87.461 13.5198 88.2074C13.5198 88.9537 14.1333 89.5671 14.8796 89.5671C15.6259 89.5671 16.2005 88.9537 16.2005 88.2074C16.2005 87.4611 15.6259 86.8865 14.8796 86.8865ZM20.2797 86.8865C19.5334 86.8865 18.92 87.461 18.92 88.2074C18.92 88.9537 19.5334 89.5671 20.2797 89.5671C21.026 89.5671 21.6395 88.9537 21.6395 88.2074C21.6395 87.4611 21.026 86.8865 20.2797 86.8865ZM25.6799 86.8865C24.9336 86.8865 24.3201 87.461 24.3201 88.2074C24.3201 88.9537 24.9336 89.5671 25.6799 89.5671C26.4262 89.5671 27.0396 88.9537 27.0396 88.2074C27.0396 87.4611 26.4262 86.8865 25.6799 86.8865ZM31.08 86.8865C30.3337 86.8865 29.7203 87.461 29.7203 88.2074C29.7203 88.9537 30.3337 89.5671 31.08 89.5671C31.8263 89.5671 32.4398 88.9537 32.4398 88.2074C32.4398 87.4611 31.8263 86.8865 31.08 86.8865ZM36.4802 86.8865C35.7339 86.8865 35.1204 87.461 35.1204 88.2074C35.1204 88.9537 35.7339 89.5671 36.4802 89.5671C37.2265 89.5671 37.8399 88.9537 37.8399 88.2074C37.8399 87.4611 37.2265 86.8865 36.4802 86.8865ZM41.8803 86.8865C41.134 86.8865 40.5594 87.461 40.5594 88.2074C40.5594 88.9537 41.134 89.5671 41.8803 89.5671C42.6266 89.5671 43.2401 88.9537 43.2401 88.2074C43.2401 87.4611 42.6266 86.8865 41.8803 86.8865ZM47.2805 86.8865C46.5342 86.8865 45.9596 87.461 45.9596 88.2074C45.9596 88.9537 46.5342 89.5671 47.2805 89.5671C48.0268 89.5671 48.6402 88.9537 48.6402 88.2074C48.6402 87.4611 48.0268 86.8865 47.2805 86.8865ZM52.7195 86.8865C51.9732 86.8865 51.3598 87.461 51.3598 88.2074C51.3598 88.9537 51.9732 89.5671 52.7195 89.5671C53.4658 89.5671 54.0404 88.9537 54.0404 88.2074C54.0404 87.4611 53.4658 86.8865 52.7195 86.8865ZM58.1197 86.8865C57.3734 86.8865 56.7599 87.461 56.7599 88.2074C56.7599 88.9537 57.3734 89.5671 58.1197 89.5671C58.866 89.5671 59.4406 88.9537 59.4406 88.2074C59.4406 87.4611 58.866 86.8865 58.1197 86.8865ZM63.5198 86.8865C62.7735 86.8865 62.1601 87.461 62.1601 88.2074C62.1601 88.9537 62.7735 89.5671 63.5198 89.5671C64.2661 89.5671 64.8795 88.9537 64.8796 88.2074C64.8796 87.4611 64.2661 86.8865 63.5198 86.8865ZM68.92 86.8865C68.1737 86.8865 67.5602 87.461 67.5602 88.2074C67.5602 88.9537 68.1737 89.5671 68.92 89.5671C69.6663 89.5671 70.2797 88.9537 70.2797 88.2074C70.2797 87.4611 69.6663 86.8865 68.92 86.8865ZM74.3201 86.8865C73.5738 86.8865 72.9604 87.461 72.9604 88.2074C72.9604 88.9537 73.5738 89.5671 74.3201 89.5671C75.0664 89.5671 75.6799 88.9537 75.6799 88.2074C75.6799 87.4611 75.0664 86.8865 74.3201 86.8865ZM79.7203 86.8865C78.974 86.8865 78.3605 87.461 78.3605 88.2074C78.3605 88.9537 78.974 89.5671 79.7203 89.5671C80.4666 89.5671 81.08 88.9537 81.08 88.2074C81.08 87.4611 80.4666 86.8865 79.7203 86.8865ZM85.1204 86.8865C84.3741 86.8865 83.7996 87.461 83.7995 88.2074C83.7995 88.9537 84.3741 89.5671 85.1204 89.5671C85.8667 89.5671 86.4802 88.9537 86.4802 88.2074C86.4802 87.4611 85.8667 86.8865 85.1204 86.8865Z" fill="url(#LinearGradient)" fill-rule="nonzero" opacity="1" stroke="none" layerName="Curve 2"/>
<path d="M89.1997 16.6067L89.1997 89.5671L100 89.5671L100 16.6067L89.1997 16.6067Z" fill="url(#LinearGradient_2)" fill-rule="nonzero" filter="url(#Filter)" stroke="none" layerName="Curve 3" shadowAngle="2.49646" shadowColor="#000000" shadowOffset="1.3986" shadowOpacity="0.5" shadowRadius="4.11561"/>
<path d="M0 16.6067L0 89.5671L10.8003 89.5671L10.8003 16.6067L0 16.6067Z" fill="url(#LinearGradient_3)" fill-rule="nonzero" filter="url(#Filter_2)" stroke="none" layerName="Curve 7" shadowAngle="2.49646" shadowColor="#000000" shadowOffset="1.3986" shadowOpacity="0.5" shadowRadius="4.11561"/>
<path d="M14.8796 86.8865C14.1333 86.8865 13.5198 87.461 13.5198 88.2074C13.5198 88.9537 14.1333 89.5671 14.8796 89.5671C15.6259 89.5671 16.2005 88.9537 16.2005 88.2074C16.2005 87.4611 15.6259 86.8865 14.8796 86.8865ZM20.2797 86.8865C19.5334 86.8865 18.92 87.461 18.92 88.2074C18.92 88.9537 19.5334 89.5671 20.2797 89.5671C21.026 89.5671 21.6395 88.9537 21.6395 88.2074C21.6395 87.4611 21.026 86.8865 20.2797 86.8865ZM25.6799 86.8865C24.9336 86.8865 24.3201 87.461 24.3201 88.2074C24.3201 88.9537 24.9336 89.5671 25.6799 89.5671C26.4262 89.5671 27.0396 88.9537 27.0396 88.2074C27.0396 87.4611 26.4262 86.8865 25.6799 86.8865ZM31.08 86.8865C30.3337 86.8865 29.7203 87.461 29.7203 88.2074C29.7203 88.9537 30.3337 89.5671 31.08 89.5671C31.8263 89.5671 32.4398 88.9537 32.4398 88.2074C32.4398 87.4611 31.8263 86.8865 31.08 86.8865ZM36.4802 86.8865C35.7339 86.8865 35.1204 87.461 35.1204 88.2074C35.1204 88.9537 35.7339 89.5671 36.4802 89.5671C37.2265 89.5671 37.8399 88.9537 37.8399 88.2074C37.8399 87.4611 37.2265 86.8865 36.4802 86.8865ZM41.8803 86.8865C41.134 86.8865 40.5594 87.461 40.5594 88.2074C40.5594 88.9537 41.134 89.5671 41.8803 89.5671C42.6266 89.5671 43.2401 88.9537 43.2401 88.2074C43.2401 87.4611 42.6266 86.8865 41.8803 86.8865ZM47.2805 86.8865C46.5342 86.8865 45.9596 87.461 45.9596 88.2074C45.9596 88.9537 46.5342 89.5671 47.2805 89.5671C48.0268 89.5671 48.6402 88.9537 48.6402 88.2074C48.6402 87.4611 48.0268 86.8865 47.2805 86.8865ZM52.7195 86.8865C51.9732 86.8865 51.3598 87.461 51.3598 88.2074C51.3598 88.9537 51.9732 89.5671 52.7195 89.5671C53.4658 89.5671 54.0404 88.9537 54.0404 88.2074C54.0404 87.4611 53.4658 86.8865 52.7195 86.8865ZM58.1197 86.8865C57.3734 86.8865 56.7599 87.461 56.7599 88.2074C56.7599 88.9537 57.3734 89.5671 58.1197 89.5671C58.866 89.5671 59.4406 88.9537 59.4406 88.2074C59.4406 87.4611 58.866 86.8865 58.1197 86.8865ZM63.5198 86.8865C62.7735 86.8865 62.1601 87.461 62.1601 88.2074C62.1601 88.9537 62.7735 89.5671 63.5198 89.5671C64.2661 89.5671 64.8795 88.9537 64.8796 88.2074C64.8796 87.4611 64.2661 86.8865 63.5198 86.8865ZM68.92 86.8865C68.1737 86.8865 67.5602 87.461 67.5602 88.2074C67.5602 88.9537 68.1737 89.5671 68.92 89.5671C69.6663 89.5671 70.2797 88.9537 70.2797 88.2074C70.2797 87.4611 69.6663 86.8865 68.92 86.8865ZM74.3201 86.8865C73.5738 86.8865 72.9604 87.461 72.9604 88.2074C72.9604 88.9537 73.5738 89.5671 74.3201 89.5671C75.0664 89.5671 75.6799 88.9537 75.6799 88.2074C75.6799 87.4611 75.0664 86.8865 74.3201 86.8865ZM79.7203 86.8865C78.974 86.8865 78.3605 87.461 78.3605 88.2074C78.3605 88.9537 78.974 89.5671 79.7203 89.5671C80.4666 89.5671 81.08 88.9537 81.08 88.2074C81.08 87.4611 80.4666 86.8865 79.7203 86.8865ZM85.1204 86.8865C84.3741 86.8865 83.7996 87.461 83.7995 88.2074C83.7995 88.9537 84.3741 89.5671 85.1204 89.5671C85.8667 89.5671 86.4802 88.9537 86.4802 88.2074C86.4802 87.4611 85.8667 86.8865 85.1204 86.8865Z" fill="url(#LinearGradient_4)" fill-rule="nonzero" filter="url(#Filter_3)" stroke="none" layerName="Curve 5" shadowAngle="2.49646" shadowColor="#000000" shadowOffset="1.3986" shadowOpacity="0.5" shadowRadius="4.11561"/>
<path d="M14.8796 16.6067C14.1333 16.6067 13.5198 17.2202 13.5198 17.9665C13.5198 18.7128 14.1333 19.2874 14.8796 19.2874C15.6259 19.2874 16.2005 18.7128 16.2005 17.9665C16.2005 17.2202 15.6259 16.6067 14.8796 16.6067ZM20.2797 16.6067C19.5334 16.6067 18.92 17.2202 18.92 17.9665C18.92 18.7128 19.5334 19.2874 20.2797 19.2874C21.026 19.2874 21.6395 18.7128 21.6395 17.9665C21.6395 17.2202 21.026 16.6067 20.2797 16.6067ZM25.6799 16.6067C24.9336 16.6067 24.3201 17.2202 24.3201 17.9665C24.3201 18.7128 24.9336 19.2874 25.6799 19.2874C26.4262 19.2874 27.0396 18.7128 27.0396 17.9665C27.0396 17.2202 26.4262 16.6067 25.6799 16.6067ZM31.08 16.6067C30.3337 16.6067 29.7203 17.2202 29.7203 17.9665C29.7203 18.7128 30.3337 19.2874 31.08 19.2874C31.8263 19.2874 32.4398 18.7128 32.4398 17.9665C32.4398 17.2202 31.8263 16.6067 31.08 16.6067ZM36.4802 16.6067C35.7339 16.6067 35.1204 17.2202 35.1204 17.9665C35.1204 18.7128 35.7339 19.2874 36.4802 19.2874C37.2265 19.2874 37.8399 18.7128 37.8399 17.9665C37.8399 17.2202 37.2265 16.6067 36.4802 16.6067ZM41.8803 16.6067C41.134 16.6067 40.5594 17.2202 40.5594 17.9665C40.5594 18.7128 41.134 19.2874 41.8803 19.2874C42.6266 19.2874 43.2401 18.7128 43.2401 17.9665C43.2401 17.2202 42.6266 16.6067 41.8803 16.6067ZM47.2805 16.6067C46.5342 16.6067 45.9596 17.2202 45.9596 17.9665C45.9596 18.7128 46.5342 19.2874 47.2805 19.2874C48.0268 19.2874 48.6402 18.7128 48.6402 17.9665C48.6402 17.2202 48.0268 16.6067 47.2805 16.6067ZM52.7195 16.6067C51.9732 16.6067 51.3598 17.2202 51.3598 17.9665C51.3598 18.7128 51.9732 19.2874 52.7195 19.2874C53.4658 19.2874 54.0404 18.7128 54.0404 17.9665C54.0404 17.2202 53.4658 16.6067 52.7195 16.6067ZM58.1197 16.6067C57.3734 16.6067 56.7599 17.2202 56.7599 17.9665C56.7599 18.7128 57.3734 19.2874 58.1197 19.2874C58.866 19.2874 59.4406 18.7128 59.4406 17.9665C59.4406 17.2202 58.866 16.6067 58.1197 16.6067ZM63.5198 16.6067C62.7735 16.6067 62.1601 17.2202 62.1601 17.9665C62.1601 18.7128 62.7735 19.2874 63.5198 19.2874C64.2661 19.2874 64.8795 18.7128 64.8796 17.9665C64.8796 17.2202 64.2661 16.6067 63.5198 16.6067ZM68.92 16.6067C68.1737 16.6067 67.5602 17.2202 67.5602 17.9665C67.5602 18.7128 68.1737 19.2874 68.92 19.2874C69.6663 19.2874 70.2797 18.7128 70.2797 17.9665C70.2797 17.2202 69.6663 16.6067 68.92 16.6067ZM74.3201 16.6067C73.5738 16.6067 72.9604 17.2202 72.9604 17.9665C72.9604 18.7128 73.5738 19.2874 74.3201 19.2874C75.0664 19.2874 75.6799 18.7128 75.6799 17.9665C75.6799 17.2202 75.0664 16.6067 74.3201 16.6067ZM79.7203 16.6067C78.974 16.6067 78.3605 17.2202 78.3605 17.9665C78.3605 18.7128 78.974 19.2874 79.7203 19.2874C80.4666 19.2874 81.08 18.7128 81.08 17.9665C81.08 17.2202 80.4666 16.6067 79.7203 16.6067ZM85.1204 16.6067C84.3741 16.6067 83.7996 17.2202 83.7995 17.9665C83.7995 18.7128 84.3741 19.2874 85.1204 19.2874C85.8667 19.2874 86.4802 18.7128 86.4802 17.9665C86.4802 17.2202 85.8667 16.6067 85.1204 16.6067Z" fill="url(#LinearGradient_5)" fill-rule="nonzero" filter="url(#Filter_4)" stroke="none" layerName="Curve 6" shadowAngle="2.49646" shadowColor="#000000" shadowOffset="1.3986" shadowOpacity="0.5" shadowRadius="4.11561"/>
<path d="M32.1795 37.6562L15.554 53.0869L32.1795 68.5177L32.1795 56.6374L48.8051 56.6374L51.1949 56.6374L67.8205 56.6374L67.8205 68.5177L84.446 53.0869L67.8205 37.6562L67.8205 49.5365L51.1949 49.5365L48.8051 49.5365L32.1795 49.5365L32.1795 37.6562Z" fill="url(#LinearGradient_6)" fill-rule="nonzero" filter="url(#Filter_5)" stroke="none" layerName="Curve 1" shadowAngle="2.49646" shadowColor="#000000" shadowOffset="1.3986" shadowOpacity="0.5" shadowRadius="4.29044"/>
</g>
</g>
</svg>
