<svg xmlns="http://www.w3.org/2000/svg" xmlns:vectornator="http://vectornator.io" xmlns:xlink="http://www.w3.org/1999/xlink" width="100%" height="100%" stroke-miterlimit="10" version="1.1" viewBox="0 0 100 100" xml:space="preserve" style="fill-rule:nonzero;clip-rule:evenodd;stroke-linecap:round;stroke-linejoin:round"><defs><linearGradient id="LinearGradient" x1="4.231" x2="95.769" y1="50" y2="50" gradientTransform="matrix(6.68928e-17 1.09244 -1.09244 6.68928e-17 104.622 -4.62208)" gradientUnits="userSpaceOnUse"><stop offset="0" stop-color="#00ff73"/><stop offset=".289" stop-color="#00d863"/><stop offset="1" stop-color="#047d3b"/></linearGradient><linearGradient id="LinearGradient_2" x1="76.75" x2="95.769" y1="49.894" y2="50" gradientTransform="matrix(6.68928e-17 1.09244 -1.09244 6.68928e-17 104.622 -4.62208)" gradientUnits="userSpaceOnUse"><stop offset="0" stop-color="#a100bd"/><stop offset="1" stop-color="#650076"/></linearGradient><filter id="Filter" width="83.249" height="21.089" x="7.258" y="84.896" color-interpolation-filters="sRGB" filterUnits="userSpaceOnUse"><feDropShadow dx="-1.118" dy=".841" flood-color="#000" flood-opacity=".5" in="SourceGraphic" result="Shadow" stdDeviation="2.058"/></filter><linearGradient id="LinearGradient_3" x1="2.447" x2="16.687" y1="50.455" y2="50.897" gradientTransform="matrix(6.68928e-17 1.09244 -1.09244 6.68928e-17 104.622 -4.62208)" gradientUnits="userSpaceOnUse"><stop offset="0" stop-color="#a100bd"/><stop offset="1" stop-color="#650076"/></linearGradient><filter id="Filter_2" width="83.249" height="21.089" x="7.258" y="-4.304" color-interpolation-filters="sRGB" filterUnits="userSpaceOnUse"><feDropShadow dx="-1.118" dy=".841" flood-color="#000" flood-opacity=".5" in="SourceGraphic" result="Shadow" stdDeviation="2.058"/></filter><linearGradient id="LinearGradient_4" x1="70.231" x2="70.767" y1="89.433" y2="73.037" gradientTransform="matrix(6.68928e-17 1.09244 -1.09244 6.68928e-17 104.622 -4.62208)" gradientUnits="userSpaceOnUse"><stop offset="0" stop-color="#2401ff"/><stop offset="1" stop-color="#6e8eff"/></linearGradient><filter id="Filter_3" width="12.97" height="83.249" x="7.258" y="9.216" color-interpolation-filters="sRGB" filterUnits="userSpaceOnUse"><feDropShadow dx="-1.118" dy=".841" flood-color="#000" flood-opacity=".5" in="SourceGraphic" result="Shadow" stdDeviation="2.058"/></filter><linearGradient id="LinearGradient_5" x1="41.418" x2="40.181" y1="-10.988" y2="61.731" gradientTransform="matrix(6.68928e-17 1.09244 -1.09244 6.68928e-17 104.622 -4.62208)" gradientUnits="userSpaceOnUse"><stop offset="0" stop-color="#2401ff"/><stop offset="1" stop-color="#6e8eff"/></linearGradient><filter id="Filter_4" width="12.97" height="83.249" x="77.537" y="9.216" color-interpolation-filters="sRGB" filterUnits="userSpaceOnUse"><feDropShadow dx="-1.118" dy=".841" flood-color="#000" flood-opacity=".5" in="SourceGraphic" result="Shadow" stdDeviation="2.058"/></filter><linearGradient id="LinearGradient_6" x1="61.678" x2="61.811" y1="65.491" y2="35.52" gradientTransform="matrix(6.68928e-17 1.09244 -1.09244 6.68928e-17 104.622 -4.62208)" gradientUnits="userSpaceOnUse"><stop offset="0" stop-color="#ff0a99"/><stop offset=".499" stop-color="#ff0280"/><stop offset="1" stop-color="#ff026b"/></linearGradient><filter id="Filter_5" width="41.588" height="79.618" x="28.089" y="11.032" color-interpolation-filters="sRGB" filterUnits="userSpaceOnUse"><feDropShadow dx="-1.118" dy=".841" flood-color="#000" flood-opacity=".5" in="SourceGraphic" result="Shadow" stdDeviation="2.145"/></filter></defs><g layerName="Group 1" opacity="1"><path fill="url(#LinearGradient)" fill-rule="nonzero" stroke="none" d="M86.4802-2.22045e-15L13.5198 2.22045e-15L13.5198 10.8003L86.4802 10.8003L86.4802-2.22045e-15ZM86.4802 14.8796C86.4802 14.1333 85.8667 13.5198 85.1204 13.5198C84.3741 13.5198 83.7995 14.1333 83.7995 14.8796C83.7995 15.6259 84.3741 16.2005 85.1204 16.2005C85.8667 16.2005 86.4802 15.6259 86.4802 14.8796ZM86.4802 20.2797C86.4802 19.5334 85.8667 18.92 85.1204 18.92C84.3741 18.92 83.7995 19.5334 83.7995 20.2797C83.7995 21.026 84.3741 21.6395 85.1204 21.6395C85.8667 21.6395 86.4802 21.026 86.4802 20.2797ZM86.4802 25.6799C86.4802 24.9336 85.8667 24.3201 85.1204 24.3201C84.3741 24.3201 83.7995 24.9336 83.7995 25.6799C83.7995 26.4262 84.3741 27.0396 85.1204 27.0396C85.8667 27.0396 86.4802 26.4262 86.4802 25.6799ZM86.4802 31.08C86.4802 30.3337 85.8667 29.7203 85.1204 29.7203C84.3741 29.7203 83.7995 30.3337 83.7995 31.08C83.7995 31.8263 84.3741 32.4398 85.1204 32.4398C85.8667 32.4398 86.4802 31.8263 86.4802 31.08ZM86.4802 36.4802C86.4802 35.7339 85.8667 35.1204 85.1204 35.1204C84.3741 35.1204 83.7995 35.7339 83.7995 36.4802C83.7995 37.2265 84.3741 37.8399 85.1204 37.8399C85.8667 37.8399 86.4802 37.2265 86.4802 36.4802ZM86.4802 41.8803C86.4802 41.134 85.8667 40.5594 85.1204 40.5594C84.3741 40.5594 83.7995 41.134 83.7995 41.8803C83.7995 42.6266 84.3741 43.2401 85.1204 43.2401C85.8667 43.2401 86.4802 42.6266 86.4802 41.8803ZM86.4802 47.2805C86.4802 46.5342 85.8667 45.9596 85.1204 45.9596C84.3741 45.9596 83.7995 46.5342 83.7995 47.2805C83.7995 48.0268 84.3741 48.6402 85.1204 48.6402C85.8667 48.6402 86.4802 48.0268 86.4802 47.2805ZM86.4802 52.7195C86.4802 51.9732 85.8667 51.3598 85.1204 51.3598C84.3741 51.3598 83.7995 51.9732 83.7995 52.7195C83.7995 53.4658 84.3741 54.0404 85.1204 54.0404C85.8667 54.0404 86.4802 53.4658 86.4802 52.7195ZM86.4802 58.1197C86.4802 57.3734 85.8667 56.7599 85.1204 56.7599C84.3741 56.7599 83.7995 57.3734 83.7995 58.1197C83.7995 58.866 84.3741 59.4406 85.1204 59.4406C85.8667 59.4406 86.4802 58.866 86.4802 58.1197ZM86.4802 63.5198C86.4802 62.7735 85.8667 62.1601 85.1204 62.1601C84.3741 62.1601 83.7995 62.7735 83.7995 63.5198C83.7995 64.2661 84.3741 64.8795 85.1204 64.8796C85.8667 64.8796 86.4802 64.2661 86.4802 63.5198ZM86.4802 68.92C86.4802 68.1737 85.8667 67.5602 85.1204 67.5602C84.3741 67.5602 83.7995 68.1737 83.7995 68.92C83.7995 69.6663 84.3741 70.2797 85.1204 70.2797C85.8667 70.2797 86.4802 69.6663 86.4802 68.92ZM86.4802 74.3201C86.4802 73.5738 85.8667 72.9604 85.1204 72.9604C84.3741 72.9604 83.7995 73.5738 83.7995 74.3201C83.7995 75.0664 84.3741 75.6799 85.1204 75.6799C85.8667 75.6799 86.4802 75.0664 86.4802 74.3201ZM86.4802 79.7203C86.4802 78.974 85.8667 78.3605 85.1204 78.3605C84.3741 78.3605 83.7995 78.974 83.7995 79.7203C83.7995 80.4666 84.3741 81.08 85.1204 81.08C85.8667 81.08 86.4802 80.4666 86.4802 79.7203ZM86.4802 85.1204C86.4802 84.3741 85.8667 83.7996 85.1204 83.7995C84.3741 83.7995 83.7995 84.3741 83.7995 85.1204C83.7995 85.8667 84.3741 86.4802 85.1204 86.4802C85.8667 86.4802 86.4802 85.8667 86.4802 85.1204ZM86.4802 89.1997L13.5198 89.1997L13.5198 100L86.4802 100L86.4802 89.1997ZM16.2005 14.8796C16.2005 14.1333 15.6259 13.5198 14.8796 13.5198C14.1333 13.5198 13.5198 14.1333 13.5198 14.8796C13.5198 15.6259 14.1333 16.2005 14.8796 16.2005C15.6259 16.2005 16.2004 15.6259 16.2005 14.8796ZM16.2005 20.2797C16.2005 19.5334 15.6259 18.92 14.8796 18.92C14.1333 18.92 13.5198 19.5334 13.5198 20.2797C13.5198 21.026 14.1333 21.6395 14.8796 21.6395C15.6259 21.6395 16.2004 21.026 16.2005 20.2797ZM16.2005 25.6799C16.2005 24.9336 15.6259 24.3201 14.8796 24.3201C14.1333 24.3201 13.5198 24.9336 13.5198 25.6799C13.5198 26.4262 14.1333 27.0396 14.8796 27.0396C15.6259 27.0396 16.2004 26.4262 16.2005 25.6799ZM16.2005 31.08C16.2005 30.3337 15.6259 29.7203 14.8796 29.7203C14.1333 29.7203 13.5198 30.3337 13.5198 31.08C13.5198 31.8263 14.1333 32.4398 14.8796 32.4398C15.6259 32.4398 16.2004 31.8263 16.2005 31.08ZM16.2005 36.4802C16.2005 35.7339 15.6259 35.1204 14.8796 35.1204C14.1333 35.1204 13.5198 35.7339 13.5198 36.4802C13.5198 37.2265 14.1333 37.8399 14.8796 37.8399C15.6259 37.8399 16.2004 37.2265 16.2005 36.4802ZM16.2005 41.8803C16.2005 41.134 15.6259 40.5594 14.8796 40.5594C14.1333 40.5594 13.5198 41.134 13.5198 41.8803C13.5198 42.6266 14.1333 43.2401 14.8796 43.2401C15.6259 43.2401 16.2004 42.6266 16.2005 41.8803ZM16.2005 47.2805C16.2005 46.5342 15.6259 45.9596 14.8796 45.9596C14.1333 45.9596 13.5198 46.5342 13.5198 47.2805C13.5198 48.0268 14.1333 48.6402 14.8796 48.6402C15.6259 48.6402 16.2004 48.0268 16.2005 47.2805ZM16.2005 52.7195C16.2005 51.9732 15.6259 51.3598 14.8796 51.3598C14.1333 51.3598 13.5198 51.9732 13.5198 52.7195C13.5198 53.4658 14.1333 54.0404 14.8796 54.0404C15.6259 54.0404 16.2004 53.4658 16.2005 52.7195ZM16.2005 58.1197C16.2005 57.3734 15.6259 56.7599 14.8796 56.7599C14.1333 56.7599 13.5198 57.3734 13.5198 58.1197C13.5198 58.866 14.1333 59.4406 14.8796 59.4406C15.6259 59.4406 16.2004 58.866 16.2005 58.1197ZM16.2005 63.5198C16.2005 62.7735 15.6259 62.1601 14.8796 62.1601C14.1333 62.1601 13.5198 62.7735 13.5198 63.5198C13.5198 64.2661 14.1333 64.8795 14.8796 64.8796C15.6259 64.8796 16.2004 64.2661 16.2005 63.5198ZM16.2005 68.92C16.2005 68.1737 15.6259 67.5602 14.8796 67.5602C14.1333 67.5602 13.5198 68.1737 13.5198 68.92C13.5198 69.6663 14.1333 70.2797 14.8796 70.2797C15.6259 70.2797 16.2004 69.6663 16.2005 68.92ZM16.2005 74.3201C16.2005 73.5738 15.6259 72.9604 14.8796 72.9604C14.1333 72.9604 13.5198 73.5738 13.5198 74.3201C13.5198 75.0664 14.1333 75.6799 14.8796 75.6799C15.6259 75.6799 16.2004 75.0664 16.2005 74.3201ZM16.2005 79.7203C16.2005 78.974 15.6259 78.3605 14.8796 78.3605C14.1333 78.3605 13.5198 78.974 13.5198 79.7203C13.5198 80.4666 14.1333 81.08 14.8796 81.08C15.6259 81.08 16.2004 80.4666 16.2005 79.7203ZM16.2005 85.1204C16.2005 84.3741 15.6259 83.7996 14.8796 83.7995C14.1333 83.7995 13.5198 84.3741 13.5198 85.1204C13.5198 85.8667 14.1333 86.4802 14.8796 86.4802C15.6259 86.4802 16.2004 85.8667 16.2005 85.1204Z" layerName="Curve 2" opacity="1"/><path fill="url(#LinearGradient_2)" fill-rule="nonzero" stroke="none" d="M86.4802 89.1997L13.5198 89.1997L13.5198 100L86.4802 100L86.4802 89.1997Z" filter="url(#Filter)" layerName="Curve 3" shadowAngle="2.496" shadowColor="#000000" shadowOffset="1.399" shadowOpacity=".5" shadowRadius="4.116"/><path fill="url(#LinearGradient_3)" fill-rule="nonzero" stroke="none" d="M86.4802-2.22045e-15L13.5198 2.22045e-15L13.5198 10.8003L86.4802 10.8003L86.4802-2.22045e-15Z" filter="url(#Filter_2)" layerName="Curve 7" shadowAngle="2.496" shadowColor="#000000" shadowOffset="1.399" shadowOpacity=".5" shadowRadius="4.116"/><path fill="url(#LinearGradient_4)" fill-rule="nonzero" stroke="none" d="M16.2005 14.8796C16.2005 14.1333 15.6259 13.5198 14.8796 13.5198C14.1333 13.5198 13.5198 14.1333 13.5198 14.8796C13.5198 15.6259 14.1333 16.2005 14.8796 16.2005C15.6259 16.2005 16.2004 15.6259 16.2005 14.8796ZM16.2005 20.2797C16.2005 19.5334 15.6259 18.92 14.8796 18.92C14.1333 18.92 13.5198 19.5334 13.5198 20.2797C13.5198 21.026 14.1333 21.6395 14.8796 21.6395C15.6259 21.6395 16.2004 21.026 16.2005 20.2797ZM16.2005 25.6799C16.2005 24.9336 15.6259 24.3201 14.8796 24.3201C14.1333 24.3201 13.5198 24.9336 13.5198 25.6799C13.5198 26.4262 14.1333 27.0396 14.8796 27.0396C15.6259 27.0396 16.2004 26.4262 16.2005 25.6799ZM16.2005 31.08C16.2005 30.3337 15.6259 29.7203 14.8796 29.7203C14.1333 29.7203 13.5198 30.3337 13.5198 31.08C13.5198 31.8263 14.1333 32.4398 14.8796 32.4398C15.6259 32.4398 16.2004 31.8263 16.2005 31.08ZM16.2005 36.4802C16.2005 35.7339 15.6259 35.1204 14.8796 35.1204C14.1333 35.1204 13.5198 35.7339 13.5198 36.4802C13.5198 37.2265 14.1333 37.8399 14.8796 37.8399C15.6259 37.8399 16.2004 37.2265 16.2005 36.4802ZM16.2005 41.8803C16.2005 41.134 15.6259 40.5594 14.8796 40.5594C14.1333 40.5594 13.5198 41.134 13.5198 41.8803C13.5198 42.6266 14.1333 43.2401 14.8796 43.2401C15.6259 43.2401 16.2004 42.6266 16.2005 41.8803ZM16.2005 47.2805C16.2005 46.5342 15.6259 45.9596 14.8796 45.9596C14.1333 45.9596 13.5198 46.5342 13.5198 47.2805C13.5198 48.0268 14.1333 48.6402 14.8796 48.6402C15.6259 48.6402 16.2004 48.0268 16.2005 47.2805ZM16.2005 52.7195C16.2005 51.9732 15.6259 51.3598 14.8796 51.3598C14.1333 51.3598 13.5198 51.9732 13.5198 52.7195C13.5198 53.4658 14.1333 54.0404 14.8796 54.0404C15.6259 54.0404 16.2004 53.4658 16.2005 52.7195ZM16.2005 58.1197C16.2005 57.3734 15.6259 56.7599 14.8796 56.7599C14.1333 56.7599 13.5198 57.3734 13.5198 58.1197C13.5198 58.866 14.1333 59.4406 14.8796 59.4406C15.6259 59.4406 16.2004 58.866 16.2005 58.1197ZM16.2005 63.5198C16.2005 62.7735 15.6259 62.1601 14.8796 62.1601C14.1333 62.1601 13.5198 62.7735 13.5198 63.5198C13.5198 64.2661 14.1333 64.8795 14.8796 64.8796C15.6259 64.8796 16.2004 64.2661 16.2005 63.5198ZM16.2005 68.92C16.2005 68.1737 15.6259 67.5602 14.8796 67.5602C14.1333 67.5602 13.5198 68.1737 13.5198 68.92C13.5198 69.6663 14.1333 70.2797 14.8796 70.2797C15.6259 70.2797 16.2004 69.6663 16.2005 68.92ZM16.2005 74.3201C16.2005 73.5738 15.6259 72.9604 14.8796 72.9604C14.1333 72.9604 13.5198 73.5738 13.5198 74.3201C13.5198 75.0664 14.1333 75.6799 14.8796 75.6799C15.6259 75.6799 16.2004 75.0664 16.2005 74.3201ZM16.2005 79.7203C16.2005 78.974 15.6259 78.3605 14.8796 78.3605C14.1333 78.3605 13.5198 78.974 13.5198 79.7203C13.5198 80.4666 14.1333 81.08 14.8796 81.08C15.6259 81.08 16.2004 80.4666 16.2005 79.7203ZM16.2005 85.1204C16.2005 84.3741 15.6259 83.7996 14.8796 83.7995C14.1333 83.7995 13.5198 84.3741 13.5198 85.1204C13.5198 85.8667 14.1333 86.4802 14.8796 86.4802C15.6259 86.4802 16.2004 85.8667 16.2005 85.1204Z" filter="url(#Filter_3)" layerName="Curve 5" shadowAngle="2.496" shadowColor="#000000" shadowOffset="1.399" shadowOpacity=".5" shadowRadius="4.116"/><path fill="url(#LinearGradient_5)" fill-rule="nonzero" stroke="none" d="M86.4802 14.8796C86.4802 14.1333 85.8667 13.5198 85.1204 13.5198C84.3741 13.5198 83.7995 14.1333 83.7995 14.8796C83.7995 15.6259 84.3741 16.2005 85.1204 16.2005C85.8667 16.2005 86.4802 15.6259 86.4802 14.8796ZM86.4802 20.2797C86.4802 19.5334 85.8667 18.92 85.1204 18.92C84.3741 18.92 83.7995 19.5334 83.7995 20.2797C83.7995 21.026 84.3741 21.6395 85.1204 21.6395C85.8667 21.6395 86.4802 21.026 86.4802 20.2797ZM86.4802 25.6799C86.4802 24.9336 85.8667 24.3201 85.1204 24.3201C84.3741 24.3201 83.7995 24.9336 83.7995 25.6799C83.7995 26.4262 84.3741 27.0396 85.1204 27.0396C85.8667 27.0396 86.4802 26.4262 86.4802 25.6799ZM86.4802 31.08C86.4802 30.3337 85.8667 29.7203 85.1204 29.7203C84.3741 29.7203 83.7995 30.3337 83.7995 31.08C83.7995 31.8263 84.3741 32.4398 85.1204 32.4398C85.8667 32.4398 86.4802 31.8263 86.4802 31.08ZM86.4802 36.4802C86.4802 35.7339 85.8667 35.1204 85.1204 35.1204C84.3741 35.1204 83.7995 35.7339 83.7995 36.4802C83.7995 37.2265 84.3741 37.8399 85.1204 37.8399C85.8667 37.8399 86.4802 37.2265 86.4802 36.4802ZM86.4802 41.8803C86.4802 41.134 85.8667 40.5594 85.1204 40.5594C84.3741 40.5594 83.7995 41.134 83.7995 41.8803C83.7995 42.6266 84.3741 43.2401 85.1204 43.2401C85.8667 43.2401 86.4802 42.6266 86.4802 41.8803ZM86.4802 47.2805C86.4802 46.5342 85.8667 45.9596 85.1204 45.9596C84.3741 45.9596 83.7995 46.5342 83.7995 47.2805C83.7995 48.0268 84.3741 48.6402 85.1204 48.6402C85.8667 48.6402 86.4802 48.0268 86.4802 47.2805ZM86.4802 52.7195C86.4802 51.9732 85.8667 51.3598 85.1204 51.3598C84.3741 51.3598 83.7995 51.9732 83.7995 52.7195C83.7995 53.4658 84.3741 54.0404 85.1204 54.0404C85.8667 54.0404 86.4802 53.4658 86.4802 52.7195ZM86.4802 58.1197C86.4802 57.3734 85.8667 56.7599 85.1204 56.7599C84.3741 56.7599 83.7995 57.3734 83.7995 58.1197C83.7995 58.866 84.3741 59.4406 85.1204 59.4406C85.8667 59.4406 86.4802 58.866 86.4802 58.1197ZM86.4802 63.5198C86.4802 62.7735 85.8667 62.1601 85.1204 62.1601C84.3741 62.1601 83.7995 62.7735 83.7995 63.5198C83.7995 64.2661 84.3741 64.8795 85.1204 64.8796C85.8667 64.8796 86.4802 64.2661 86.4802 63.5198ZM86.4802 68.92C86.4802 68.1737 85.8667 67.5602 85.1204 67.5602C84.3741 67.5602 83.7995 68.1737 83.7995 68.92C83.7995 69.6663 84.3741 70.2797 85.1204 70.2797C85.8667 70.2797 86.4802 69.6663 86.4802 68.92ZM86.4802 74.3201C86.4802 73.5738 85.8667 72.9604 85.1204 72.9604C84.3741 72.9604 83.7995 73.5738 83.7995 74.3201C83.7995 75.0664 84.3741 75.6799 85.1204 75.6799C85.8667 75.6799 86.4802 75.0664 86.4802 74.3201ZM86.4802 79.7203C86.4802 78.974 85.8667 78.3605 85.1204 78.3605C84.3741 78.3605 83.7995 78.974 83.7995 79.7203C83.7995 80.4666 84.3741 81.08 85.1204 81.08C85.8667 81.08 86.4802 80.4666 86.4802 79.7203ZM86.4802 85.1204C86.4802 84.3741 85.8667 83.7996 85.1204 83.7995C84.3741 83.7995 83.7995 84.3741 83.7995 85.1204C83.7995 85.8667 84.3741 86.4802 85.1204 86.4802C85.8667 86.4802 86.4802 85.8667 86.4802 85.1204Z" filter="url(#Filter_4)" layerName="Curve 6" shadowAngle="2.496" shadowColor="#000000" shadowOffset="1.399" shadowOpacity=".5" shadowRadius="4.116"/><path fill="url(#LinearGradient_6)" fill-rule="nonzero" stroke="none" d="M65.4307 32.1795L50 15.554L34.5693 32.1795L46.4496 32.1795L46.4496 48.8051L46.4496 51.1949L46.4496 67.8205L34.5693 67.8205L50 84.446L65.4307 67.8205L53.5504 67.8205L53.5504 51.1949L53.5504 48.8051L53.5504 32.1795L65.4307 32.1795Z" filter="url(#Filter_5)" layerName="Curve 1" shadowAngle="2.496" shadowColor="#000000" shadowOffset="1.399" shadowOpacity=".5" shadowRadius="4.29"/></g></svg>