<svg xmlns="http://www.w3.org/2000/svg" xmlns:xlink="http://www.w3.org/1999/xlink" width="100%" height="100%" stroke-miterlimit="10" version="1.1" viewBox="0 0 50 50" xml:space="preserve" style="fill-rule:nonzero;clip-rule:evenodd;stroke-linecap:round;stroke-linejoin:round"><defs><filter id="Filter" width="42.85" height="4.728" x="2.886" y="14.933" color-interpolation-filters="sRGB" filterUnits="userSpaceOnUse"><feDropShadow dx="-.689" dy=".636" flood-color="#000" flood-opacity=".4" in="SourceGraphic" result="Shadow" stdDeviation=".469"/></filter><filter id="Filter_2" width="40.467" height="30.937" x="4.077" y="10.168" color-interpolation-filters="sRGB" filterUnits="userSpaceOnUse"><feDropShadow dx="-.689" dy=".636" flood-color="#000" flood-opacity=".4" in="SourceGraphic" result="Shadow" stdDeviation=".469"/></filter><filter id="Filter_3" width="47.615" height="7.11" x=".503" y="13.742" color-interpolation-filters="sRGB" filterUnits="userSpaceOnUse"><feDropShadow dx="-.689" dy=".636" flood-color="#000" flood-opacity=".4" in="SourceGraphic" result="Shadow" stdDeviation=".469"/></filter><filter id="Filter_4" width="30.937" height="13.067" x="8.843" y="24.464" color-interpolation-filters="sRGB" filterUnits="userSpaceOnUse"><feDropShadow dx="-.689" dy=".636" flood-color="#000" flood-opacity=".4" in="SourceGraphic" result="Shadow" stdDeviation=".469"/></filter><filter id="Filter_5" width="30.937" height="5.919" x="8.843" y="20.89" color-interpolation-filters="sRGB" filterUnits="userSpaceOnUse"><feDropShadow dx="-.689" dy=".636" flood-color="#000" flood-opacity=".4" in="SourceGraphic" result="Shadow" stdDeviation=".469"/></filter><filter id="Filter_6" width="26.172" height="8.302" x="11.225" y="26.846" color-interpolation-filters="sRGB" filterUnits="userSpaceOnUse"><feDropShadow dx="-.689" dy=".636" flood-color="#000" flood-opacity=".4" in="SourceGraphic" result="Shadow" stdDeviation=".469"/></filter><filter id="Filter_7" width="35.702" height="10.684" x="6.46" y="10.168" color-interpolation-filters="sRGB" filterUnits="userSpaceOnUse"><feDropShadow dx="-.689" dy=".636" flood-color="#000" flood-opacity=".4" in="SourceGraphic" result="Shadow" stdDeviation=".469"/></filter></defs><g id="Layer-8"><path fill="#37474f" fill-rule="nonzero" stroke="none" d="M4.7475 15.4694L45.2525 15.4694L45.2525 17.8521L4.7475 17.8521L4.7475 15.4694Z" filter="url(#Filter)"/><path fill="#ffc107" fill-rule="nonzero" stroke="none" d="M39.2959 10.7041L39.2959 13.0868L29.6688 13.0868C29.2268 14.4461 27.3052 15.4694 25 15.4694C22.6948 15.4694 20.772 14.4461 20.3312 13.0868L9.51279 13.0868L9.51279 10.7041L5.93882 10.7041L5.93882 34.5306C5.93882 37.1586 8.07248 39.2959 10.7041 39.2959L39.2959 39.2959C41.9275 39.2959 44.0612 37.1586 44.0612 34.5306L44.0612 10.7041L39.2959 10.7041Z" filter="url(#Filter_2)"/><path fill="#546e7a" fill-rule="nonzero" stroke="none" d="M2.36485 14.2781L4.7475 14.2781L4.7475 19.0434L2.36485 19.0434L2.36485 14.2781ZM45.2525 14.2781L47.6351 14.2781L47.6351 19.0434L45.2525 19.0434L45.2525 14.2781Z" filter="url(#Filter_3)"/><path fill="#37474f" fill-rule="nonzero" stroke="none" d="M39.2959 33.3393C39.2959 34.6545 38.2285 35.7219 36.9132 35.7219L13.0868 35.7219C11.7715 35.7219 10.7041 34.6545 10.7041 33.3393L10.7041 25L39.2959 25L39.2959 33.3393Z" filter="url(#Filter_4)"/><path fill="#ffecb3" fill-rule="nonzero" stroke="none" d="M39.2959 25L10.7041 25L10.7041 22.6174C10.7041 22.6174 10.7041 21.426 11.8954 21.426C13.0868 21.426 36.9132 21.426 38.1046 21.426C39.2959 21.426 39.2959 22.6174 39.2959 22.6174L39.2959 25Z" filter="url(#Filter_5)"/><path fill="#b0bec5" fill-rule="nonzero" stroke="none" d="M14.2781 27.3826C13.6201 27.3826 13.0868 27.916 13.0868 28.574C13.0868 29.2319 13.6201 29.7653 14.2781 29.7653C14.936 29.7653 15.4694 29.2319 15.4694 28.574C15.4694 27.916 14.936 27.3826 14.2781 27.3826ZM14.2781 30.9566C13.6201 30.9566 13.0868 31.49 13.0868 32.1479C13.0868 32.8059 13.6201 33.3393 14.2781 33.3393C14.936 33.3393 15.4694 32.8059 15.4694 32.1479C15.4694 31.49 14.936 30.9566 14.2781 30.9566ZM35.7219 27.3826C35.064 27.3826 34.5306 27.916 34.5306 28.574C34.5306 29.2319 35.064 29.7653 35.7219 29.7653C36.3799 29.7653 36.9132 29.2319 36.9132 28.574C36.9132 27.916 36.3799 27.3826 35.7219 27.3826ZM35.7219 30.9566C35.064 30.9566 34.5306 31.49 34.5306 32.1479C34.5306 32.8059 35.064 33.3393 35.7219 33.3393C36.3799 33.3393 36.9132 32.8059 36.9132 32.1479C36.9132 31.49 36.3799 30.9566 35.7219 30.9566ZM17.8521 27.3826C17.1941 27.3826 16.6607 27.916 16.6607 28.574C16.6607 29.2319 17.1941 29.7653 17.8521 29.7653C18.51 29.7653 19.0434 29.2319 19.0434 28.574C19.0434 27.916 18.51 27.3826 17.8521 27.3826ZM21.426 27.3826C20.7681 27.3826 20.2347 27.916 20.2347 28.574C20.2347 29.2319 20.7681 29.7653 21.426 29.7653C22.084 29.7653 22.6174 29.2319 22.6174 28.574C22.6174 27.916 22.084 27.3826 21.426 27.3826ZM25 27.3826C24.3421 27.3826 23.8087 27.916 23.8087 28.574C23.8087 29.2319 24.3421 29.7653 25 29.7653C25.6579 29.7653 26.1913 29.2319 26.1913 28.574C26.1913 27.916 25.6579 27.3826 25 27.3826ZM28.574 27.3826C27.916 27.3826 27.3826 27.916 27.3826 28.574C27.3826 29.2319 27.916 29.7653 28.574 29.7653C29.2319 29.7653 29.7653 29.2319 29.7653 28.574C29.7653 27.916 29.2319 27.3826 28.574 27.3826ZM32.1479 27.3826C31.49 27.3826 30.9566 27.916 30.9566 28.574C30.9566 29.2319 31.49 29.7653 32.1479 29.7653C32.8059 29.7653 33.3393 29.2319 33.3393 28.574C33.3393 27.916 32.8059 27.3826 32.1479 27.3826ZM33.3393 32.1479C33.3393 32.8067 32.8056 33.3393 32.1479 33.3393L17.8521 33.3393C17.1944 33.3393 16.6607 32.8067 16.6607 32.1479L16.6607 32.1479C16.6607 31.4891 17.1944 30.9566 17.8521 30.9566L32.1479 30.9566C32.8056 30.9566 33.3393 31.4891 33.3393 32.1479L33.3393 32.1479Z" filter="url(#Filter_6)"/><path fill="#37474f" fill-rule="nonzero" stroke="none" d="M39.2959 10.7041L39.2959 11.8954L28.5144 11.8954C28.5466 12.0062 28.574 12.1194 28.574 12.235C28.574 13.3632 26.974 14.2781 25 14.2781C23.026 14.2781 21.426 13.3632 21.426 12.235C21.426 12.1182 21.4534 12.0062 21.4856 11.8954L10.7041 11.8954L10.7041 10.7041L8.32147 10.7041L8.32147 11.8954C8.32147 13.2107 9.3889 14.2781 10.7041 14.2781L16.6607 14.2781C16.6607 16.9061 20.3943 19.0434 25 19.0434C29.6057 19.0434 33.3393 16.9061 33.3393 14.2781L39.2959 14.2781C40.6111 14.2781 41.6785 13.2107 41.6785 11.8954L41.6785 10.7041L39.2959 10.7041Z" filter="url(#Filter_7)"/></g></svg>