<svg width="100%" height="100%" viewBox="0 0 100 100" xml:space="preserve" xmlns="http://www.w3.org/2000/svg" xmlns:vectornator="http://vectornator.io" xmlns:xlink="http://www.w3.org/1999/xlink">
<defs>
<filter color-interpolation-filters="sRGB" filterUnits="userSpaceOnUse" height="101.921" id="Filter" width="101.921" x="-0.96074" y="-0.96074">
<feDropShadow dx="0" dy="-0" flood-color="#000000" flood-opacity="0.55" in="SourceGraphic" result="Shadow" stdDeviation="1.5"/>
</filter>
<filter color-interpolation-filters="sRGB" filterUnits="userSpaceOnUse" height="41.5616" id="Filter_2" width="76.2766" x="11.1271" y="29.7612">
<feDropShadow dx="-0.734566" dy="0.54201" flood-color="#000000" flood-opacity="0.55" in="SourceGraphic" result="Shadow" stdDeviation="1.36933"/>
</filter>
<filter color-interpolation-filters="sRGB" filterUnits="userSpaceOnUse" height="76.6006" id="Filter_3" width="76.6026" x="10.9641" y="12.2417">
<feDropShadow dx="-0.734566" dy="0.54201" flood-color="#000000" flood-opacity="0.55" in="SourceGraphic" result="Shadow" stdDeviation="1.36933"/>
</filter>
</defs>
<g id="Layer" layerName="Layer">
<g opacity="1" layerName="Group 12">
<path d="M2.78926 13.2805C2.78926 7.51033 7.51033 2.78926 13.2805 2.78926L86.7195 2.78926C92.4897 2.78926 97.2107 7.51033 97.2107 13.2805L97.2107 86.7195C97.2107 92.4897 92.4897 97.2107 86.7195 97.2107L13.2805 97.2107C7.51033 97.2107 2.78926 92.4897 2.78926 86.7195L2.78926 13.2805Z" fill="#9c27b0" filter="url(#Filter)" layerName="path" shadowAngle="-1.5708" shadowColor="#000000" shadowOffset="0" shadowOpacity="0.55" shadowRadius="3"/>
<path d="M15.285 58.6787L84.715 58.6787L84.715 67.3575L15.285 67.3575L15.285 58.6787ZM15.285 32.6425L84.715 32.6425L84.715 41.3213L15.285 41.3213L15.285 32.6425Z" fill="#ffffff" filter="url(#Filter_2)" layerName="path 1" shadowAngle="2.5059" shadowColor="#000000" shadowOffset="0.912887" shadowOpacity="0.55" shadowRadius="2.73866"/>
<path d="M15.122 21.2599L21.2587 15.123L84.878 78.7401L78.7413 84.877L15.122 21.2599Z" fill="#e1bee7" filter="url(#Filter_3)" layerName="path 2" shadowAngle="2.5059" shadowColor="#000000" shadowOffset="0.912887" shadowOpacity="0.55" shadowRadius="2.73866"/>
</g>
</g>
</svg>