<svg width="100%" height="100%" viewBox="0 0 100 100" xml:space="preserve" xmlns="http://www.w3.org/2000/svg" xmlns:vectornator="http://vectornator.io" xmlns:xlink="http://www.w3.org/1999/xlink">
<defs>
<filter color-interpolation-filters="sRGB" filterUnits="userSpaceOnUse" height="94" id="Filter" width="110" x="-5" y="3">
<feDropShadow dx="6.12323e-17" dy="1" flood-color="#000000" flood-opacity="0.44" in="SourceGraphic" result="Shadow" stdDeviation="1"/>
</filter>
<linearGradient gradientTransform="matrix(1 0 0 1 0 0)" gradientUnits="userSpaceOnUse" id="LinearGradient" x1="19.6667" x2="80.3333" y1="50" y2="50">
<stop offset="0" stop-color="#1d00d5"/>
<stop offset="1" stop-color="#213aff"/>
</linearGradient>
<filter color-interpolation-filters="sRGB" filterUnits="userSpaceOnUse" height="37.6667" id="Filter_2" width="65.6667" x="17.1667" y="30.1667">
<feDropShadow dx="6.12323e-17" dy="-1" flood-color="#000000" flood-opacity="0.44" in="SourceGraphic" result="Shadow" stdDeviation="1"/>
</filter>
<linearGradient gradientTransform="matrix(1 0 0 1 0 0)" gradientUnits="userSpaceOnUse" id="LinearGradient_2" x1="102.057" x2="67.729" y1="11.5869" y2="12.2332">
<stop offset="0" stop-color="#b0bec5"/>
<stop offset="1" stop-color="#5c6367"/>
</linearGradient>
<filter color-interpolation-filters="sRGB" filterUnits="userSpaceOnUse" height="89" id="Filter_3" width="24.6667" x="77.8333" y="4.5">
<feDropShadow dx="6.12323e-17" dy="-1" flood-color="#000000" flood-opacity="0.44" in="SourceGraphic" result="Shadow" stdDeviation="1"/>
</filter>
<linearGradient gradientTransform="matrix(1 0 0 1 0 0)" gradientUnits="userSpaceOnUse" id="LinearGradient_3" x1="-2.73247" x2="29.44" y1="13.6757" y2="13.8347">
<stop offset="0" stop-color="#b0bec5"/>
<stop offset="1" stop-color="#5c6367"/>
</linearGradient>
<filter color-interpolation-filters="sRGB" filterUnits="userSpaceOnUse" height="89" id="Filter_4" width="24.6667" x="-2.5" y="4.5">
<feDropShadow dx="6.12323e-17" dy="-1" flood-color="#000000" flood-opacity="0.44" in="SourceGraphic" result="Shadow" stdDeviation="1"/>
</filter>
</defs>
<g filter="url(#Filter)" shadowAngle="1.5708" shadowColor="#000000" shadowOffset="1" shadowOpacity="0.44" shadowRadius="2">
<path d="M80.3333 50L61.6667 33.6667L61.6667 45.3333L38.3333 45.3333L38.3333 33.6667L19.6667 50L38.3333 66.3333L38.3333 54.6667L61.6667 54.6667L61.6667 66.3333L80.3333 50Z" fill="url(#LinearGradient)" filter="url(#Filter_2)" shadowAngle="-1.5708" shadowColor="#000000" shadowOffset="1" shadowOpacity="0.44" shadowRadius="2"/>
<path d="M100 92L80.3333 92L80.3333 8L100 8L100 17.33L89.6667 17.33L89.6667 82.6667L100 82.6667L100 92Z" fill="url(#LinearGradient_2)" filter="url(#Filter_3)" shadowAngle="-1.5708" shadowColor="#000000" shadowOffset="1" shadowOpacity="0.44" shadowRadius="2"/>
<path d="M19.6667 92L-7.10543e-15 92L-7.10543e-15 82.6667L10.3333 82.6667L10.3333 17.3333L-7.10543e-15 17.3333L-7.10543e-15 8L19.6667 8L19.6667 92Z" fill="url(#LinearGradient_3)" filter="url(#Filter_4)" shadowAngle="-1.5708" shadowColor="#000000" shadowOffset="1" shadowOpacity="0.44" shadowRadius="2"/>
</g>
</svg>