<svg height="100%" stroke-miterlimit="10" style="fill-rule:nonzero;clip-rule:evenodd;stroke-linecap:round;stroke-linejoin:round;" version="1.1" viewBox="0 0 175 175" width="100%" xml:space="preserve" xmlns="http://www.w3.org/2000/svg" xmlns:xlink="http://www.w3.org/1999/xlink"><defs><radialGradient cx="191.784" cy="258.793" gradientTransform="matrix(0 2.24068 2.28215 0 -550.532 -371.418)" gradientUnits="userSpaceOnUse" id="RadialGradient_WikiWhite" r="58.789"><stop offset="0" stop-color="#efefef"/><stop offset="0.235" stop-color="#efefef"/><stop offset="0.332" stop-color="#eaeaea"/><stop offset="0.677" stop-color="#c9c9c9"/><stop offset="0.702" stop-color="#c9c9c9"/><stop offset="0.887" stop-color="#919191"/><stop offset="1" stop-color="#636363"/></radialGradient><radialGradient cx="312.711" cy="279.838" gradientTransform="matrix(0 1.56919 1.37157 0 -357.949 -430.151)" gradientUnits="userSpaceOnUse" id="RadialGradient_WikiWhite_2" r="71.078"><stop offset="0" stop-color="#c8c8c8"/><stop offset="1" stop-color="#5a5a5a"/></radialGradient></defs><g id="WikipediaLight"><g opacity="1"><path d="M49.3875 60.7986C48.3444 60.7441 46.5735 60.7106 46.3505 58.8204C46.2384 57.8705 50.1352 54.3706 49.1571 52.9768C48.9131 52.6291 48.2051 52.2542 46.5348 51.7798C44.5409 51.3399 40.9698 51.6269 34.8015 53.8502C34.524 53.9507 34.8842 53.8166 34.6633 53.8962C34.4235 53.9811 34.547 53.9308 34.3868 53.9884C34.5774 53.9245 34.1082 54.1057 33.282 54.4031C33.2149 54.4356 33.1668 54.4638 32.1782 54.7717C30.8241 49.8989 34.4748 40.9063 37.562 40.5994C38.8187 40.4748 40.2231 42.2268 42.0254 41.2435C45.2718 39.4726 45.6038 36.7644 45.1545 33.4216C44.8121 30.8768 42.1825 33.2834 40.4158 33.9735C38.4962 34.7233 38.4564 35.1737 37.9307 34.6637C36.3305 33.1106 37.2175 29.595 43.4978 22.6539C45.7022 20.218 46.695 16.7496 46.8113 15.5683C46.9443 14.2079 42.5605 18.0188 42.1175 17.0868C41.8096 16.4375 45.6321 12.7187 47.5936 11.7029C48.5036 11.2316 48.5088 12.237 49.1581 12.1626C50.0043 12.0663 55.3033 7.23014 54.9557 6.45728C54.7274 5.95146 50.9007 8.16009 50.7227 7.60819C50.6264 7.30973 54.6802 5.26133 54.6802 5.26133C54.6802 5.26133 54.6582 5.15765 54.6802 5.07701C53.0853 5.64881 32.1101 12.3491 15.615 37.0566C-10.7828 76.592 0.132611 129.93 39.955 156.137C79.7774 182.344 133.514 171.517 159.912 131.981C173.111 112.213 177.001 88.9537 172.612 67.3784C168.221 45.8032 154.24 26.4344 149.053 23.942C150.089 24.9557 150.772 25.5956 150.479 25.9663C150.309 26.1821 149.041 26.425 147.856 25.138C146.671 23.8519 141.116 19.5436 140.448 18.5581C139.778 17.5737 139.906 17.2386 140.264 17.1779C140.622 17.1171 141.215 17.3214 141.461 17.4544C141.705 17.5863 136.038 13.0549 135.662 12.8067C135.288 12.5595 134.251 12.1386 134.053 12.2087C133.705 12.3312 134.955 13.1942 134.742 13.4057C134.547 13.5984 133.965 13.4895 133.5 13.0832C133.266 12.88 127.073 8.37268 123.285 6.91702C121.043 7.25423 119.612 7.46891 119.375 7.92865C119.033 8.58736 124.424 10.7562 124.711 11.2882C125.013 11.8453 123.862 12.6601 122.779 12.8067C119.39 13.2654 118.077 11.6202 117.671 10.6902C116.248 7.42179 110.127 8.62192 104.741 12.1166C102.416 13.6256 93.3245 13.6089 93.2386 12.4391C93.0731 10.1907 93.9078 8.7078 88.4066 9.63251C84.5392 10.2818 83.5034 11.6547 83.8511 11.9333C84.4952 12.4517 87.1363 13.3806 87.3479 14.2341C87.4913 14.8143 84.0333 18.0638 74.5097 17.4093C73.563 22.4654 73.6028 23.5849 74.5558 25.139C75.5088 26.6931 77.0388 27.2932 77.9154 27.0722C79.9365 26.5612 81.9357 24.1567 83.4364 24.1274C86.0618 24.0729 87.8432 26.5999 87.7154 30.0171C87.7291 30.0118 87.749 30.0223 87.7615 30.0171C87.7584 30.1364 87.7249 30.2275 87.7154 30.3396C87.7113 30.3857 87.7207 30.4318 87.7154 30.4778C87.2955 34.2552 82.9526 32.8488 80.0308 32.1346C76.3131 31.2245 76.2869 43.6856 79.8004 46.0765C72.9284 45.3466 64.23 48.615 59.6463 50.632C55.8657 52.295 63.2205 55.7907 61.947 56.9814C60.4526 58.3795 57.3423 59.7105 54.9536 60.2949C53.61 60.6206 50.3897 60.851 49.3875 60.7986Z" fill="#efefef" fill-rule="nonzero" opacity="1" stroke="none"/><path d="M49.3885 60.7986C48.3455 60.7441 46.5746 60.7106 46.3515 58.8204C46.2395 57.8705 50.1363 54.3706 49.1581 52.9768C48.9152 52.6291 48.2062 52.2542 46.5358 51.7798C44.5419 51.3399 40.9708 51.6269 34.8026 53.8502C34.525 53.9507 34.8853 53.8166 34.6643 53.8962C34.4245 53.9811 34.5481 53.9308 34.3879 53.9884C34.5785 53.9245 34.1103 54.1057 33.283 54.4031C33.216 54.4356 33.1689 54.4638 32.1792 54.7717C30.8251 49.8989 34.4758 40.9063 37.5631 40.5994C38.8198 40.4748 40.2241 42.2268 42.0264 41.2435C45.2729 39.4726 45.6048 36.7644 45.1556 33.4216C44.8131 30.8768 42.1835 33.2834 40.4168 33.9735C38.4972 34.7233 38.4574 35.1737 37.9317 34.6637C36.3315 33.1106 37.2185 29.595 43.4988 22.6539C45.7033 20.218 46.6961 16.7496 46.8123 15.5683C46.9453 14.2079 42.5616 18.0199 42.1186 17.0868C41.8107 16.4364 45.6331 12.7187 47.5946 11.7029C48.5047 11.2316 48.5099 12.237 49.1592 12.1626C50.0064 12.0663 55.3054 7.23014 54.9567 6.45728C54.7284 5.95146 50.9018 8.16009 50.7238 7.60819C50.6274 7.30973 54.6813 5.26133 54.6813 5.26133C54.6813 5.26133 54.6593 5.15765 54.6813 5.07701C53.0863 5.64881 32.1112 12.3491 15.6161 37.0556C-10.7828 76.5931 0.132611 129.93 39.956 156.137C79.7795 182.344 133.517 171.518 159.913 131.982C173.113 112.213 177.002 88.9547 172.613 67.3795C168.223 45.8042 154.242 26.4355 149.054 23.9431C150.091 24.9568 150.774 25.5966 150.48 25.9674C150.31 26.1831 149.042 26.4261 147.857 25.139C146.673 23.853 141.118 19.5446 140.449 18.5592C139.78 17.5748 139.907 17.2397 140.265 17.1789C140.623 17.1182 141.216 17.3224 141.462 17.4554C141.708 17.5884 136.039 13.0559 135.664 12.8077C135.289 12.5595 134.253 12.1396 134.054 12.2098C133.706 12.3323 134.958 13.1952 134.745 13.4068C134.549 13.5995 133.967 13.4916 133.501 13.0842C133.269 12.8811 127.074 8.37373 123.286 6.91806C121.044 7.25527 119.614 7.46996 119.376 7.9297C119.034 8.58841 124.425 10.7572 124.713 11.2892C125.015 11.8464 123.863 12.6611 122.781 12.8077C119.392 13.2664 118.079 11.6212 117.674 10.6913C116.249 7.42179 110.13 8.62192 104.743 12.1176C102.418 13.6267 93.3255 13.6099 93.2396 12.4402C93.0752 10.1917 93.9109 8.70884 88.4077 9.63356C84.5402 10.2828 83.5055 11.6558 83.8522 11.9343C84.4973 12.4527 87.1395 13.3816 87.35 14.2351C87.4934 14.8153 84.0365 18.0649 74.5118 17.4104C73.5651 22.4664 73.6049 23.5859 74.5579 25.1401C75.5109 26.6942 77.0409 27.2942 77.9175 27.0733C79.9397 26.5622 81.9378 24.1588 83.4385 24.1284C86.0639 24.074 87.8453 26.601 87.7186 30.0181C87.7312 30.0129 87.751 30.0233 87.7636 30.0181C87.7615 30.1385 87.727 30.2286 87.7186 30.3406C87.7144 30.3867 87.7228 30.4328 87.7186 30.4789C87.2997 34.2563 82.9547 32.8498 80.0339 32.1356C76.3162 31.2256 76.29 43.6867 79.8035 46.0775C72.9315 45.3476 64.2342 48.616 59.6494 50.633C55.8689 52.296 63.2236 55.7907 61.9502 56.9825C60.4558 58.3805 57.3455 59.7116 54.9557 60.2959C53.61 60.6216 50.3907 60.851 49.3885 60.7986Z" fill="url(#RadialGradient_WikiWhite)" fill-rule="nonzero" opacity="1" stroke="none"/><path d="M47.7821 38.9406C53.9786 39.2495 57.7612 37.6054 61.5857 36.0303C54.7514 31.0758 72.8645 28.663 67.755 34.827C72.4592 35.2292 76.1853 32.4048 80.6246 31.2172C82.4038 30.7407 85.977 30.7637 87.7762 30.0223C87.6809 34.4029 83.0626 32.8854 80.0224 32.1419C76.3047 31.2318 76.267 43.6888 79.7805 46.0796C72.9085 45.3497 64.2562 48.6349 59.6724 50.6508C55.8908 52.3139 63.209 55.7813 61.9355 56.973C60.4411 58.3711 57.3266 59.7252 54.9368 60.3106C53.5911 60.6394 50.3824 60.9086 49.3833 60.7965C48.3842 60.6844 48.446 59.9755 50.2515 57.8087C51.5521 56.2473 52.215 55.0513 50.1436 53.4889C48.4994 52.2479 47.6302 52.0384 46.5516 51.8007C44.5576 51.3609 40.9729 51.6436 34.8047 53.8659C35.876 47.2222 37.5139 45.2596 38.7203 43.826C39.8544 42.4771 41.5154 43.2804 43.7408 43.5746C46.0751 43.8836 47.426 41.1272 47.7821 38.9406Z" fill="#5a5a5a" fill-rule="nonzero" opacity="1" stroke="#5a5a5a" stroke-linecap="butt" stroke-linejoin="miter" stroke-width="0.147661"/><path d="M54.7672 5.07387C54.7672 5.07387 50.6128 7.29507 50.7091 7.59353C50.8871 8.14543 54.7022 5.9745 54.9305 6.48032C55.2793 7.25318 49.9844 12.0778 49.1382 12.1752C48.4889 12.2496 48.5099 11.2138 47.5998 11.6841C45.6394 12.6999 41.8254 16.4343 42.1343 17.0836C42.5773 18.0167 46.9474 14.2184 46.8144 15.5777C46.6992 16.759 45.7138 20.2432 43.5093 22.679C37.228 29.6191 36.3451 33.1043 37.9453 34.6574C38.471 35.1674 40.4001 34.0028 40.4001 34.0028C42.4568 28.0189 47.7108 25.959 48.7455 20.4212C48.9822 19.154 48.7665 19.1362 47.5014 16.9852C47.5014 16.9852 48.8094 15.807 49.6283 15.3159C50.4818 14.8038 50.4421 15.851 51.2976 15.5777C53.1136 14.9986 54.5797 13.3083 55.8469 11.683C57.114 10.0577 56.2291 9.74771 56.272 9.19581C56.3171 8.6303 56.6941 9.27017 56.272 8.27948C55.85 7.28879 54.7672 5.07387 54.7672 5.07387ZM119.369 8.08469C119.398 8.93191 119.283 9.82101 119.435 10.6379C119.558 11.305 121.461 12.2716 122.806 12.7983C123.897 12.7145 125.038 11.8506 124.737 11.2924C124.448 10.7604 121.883 10.1027 119.369 8.08469ZM83.8606 11.9459C83.7694 12.4925 83.9108 14.9117 84.2208 16.3642C85.4733 15.7746 87.506 14.8164 87.3625 14.2372C87.151 13.3837 84.3517 12.613 83.8606 11.9459ZM134.031 12.3386C133.719 12.7512 133.612 12.9345 133.507 13.0915C134.029 13.4979 134.556 13.612 134.751 13.4193C134.963 13.2078 134.214 12.659 134.031 12.3386ZM140.281 17.1496C139.922 17.2114 139.776 17.5716 140.444 18.5571C141.368 17.5151 140.596 18.4094 141.459 17.4439C141.214 17.3119 140.639 17.0878 140.281 17.1496ZM149.051 23.9242C147.826 25.1359 148.869 24.1274 147.841 25.1348C149.025 26.4208 150.289 26.1684 150.459 25.9527C150.751 25.582 150.089 24.9379 149.051 23.9242ZM83.4678 24.12C81.9671 24.1504 79.9261 26.5873 77.9038 27.0984C76.1508 27.5414 75.2805 25.7558 74.1076 24.6112C74.5464 27.2042 75.1904 29.7165 77.5436 30.2726C79.7606 30.7962 82.2289 27.4513 84.4166 27.4576C85.6964 27.4607 87.0756 29.7563 87.7217 30.4684C88.039 26.8177 86.2116 24.0635 83.4678 24.12ZM44.6875 32.3995C44.4927 35.8491 45.2833 39.4653 42.0369 41.2361C40.2346 42.2185 38.8093 40.457 37.5537 40.5816C34.4674 40.8874 30.8325 49.879 32.1866 54.7518C34.2391 54.113 32.2923 54.7298 34.6413 53.9004C35.432 49.612 36.498 45.5089 39.1245 43.2971C40.4849 42.1493 44.0256 44.3014 45.6373 42.9693C47.6721 41.2885 49.6336 35.7727 44.6875 32.3995ZM49.1707 52.9851C50.174 54.3738 46.6301 57.5103 46.3557 58.8109C46.0813 60.1116 47.4469 60.6803 48.8105 60.6761C47.7171 59.9587 50.596 57.8035 51.2976 55.8326C51.5951 54.9958 51.0756 54.2544 49.1707 52.9851Z" fill="#000000" fill-rule="nonzero" opacity="1" stroke="#000000" stroke-linecap="butt" stroke-linejoin="miter" stroke-width="0.147661"/><path d="M16.7188 101.98C15.4778 102.11 15.0443 103.151 15.7983 105.016C13.2483 104.548 11.4585 104.018 9.31063 102.9C8.80795 104.223 12.3895 104.964 14.0955 105.753C14.1897 106.387 14.2463 107.05 14.3259 107.687C14.1217 107.419 13.8619 107.206 13.5897 106.997C12.8419 106.418 12.2387 106.029 11.5653 106.03C11.1611 106.031 10.9192 105.984 10.6909 106.26C9.95049 107.155 10.3662 108.405 11.4732 109.436C12.5801 110.466 14.0892 110.962 14.7406 110.264C14.7563 110.246 14.772 110.236 14.7867 110.217C15.0076 111.24 15.2747 112.26 15.7983 113.208C15.9365 113.346 16.612 113.884 16.5806 113.76C15.7637 109.716 15.4925 108.749 15.2464 106.029C15.548 106.104 15.9826 106.255 16.9031 106.398C17.3199 108.87 17.0277 107.275 18.1912 113.116C18.7494 113.689 19.1159 114.088 19.6636 114.679C18.9515 110.598 18.3839 109.486 18.1452 106.582C18.5536 106.819 18.8866 106.807 19.2489 106.997C19.2458 106.975 19.4856 106.429 19.1107 105.892C15.3605 105.152 15.4632 100.504 22.2399 105.34C22.2734 105.363 23.3437 104.881 22.4703 104.281C20.0375 102.614 17.9598 101.85 16.7188 101.98ZM11.6575 107.18C12.0366 107.207 12.666 107.465 13.0838 107.824C13.7604 108.405 14.4337 109.185 13.9122 109.619C13.3949 110.048 12.5592 109.385 11.934 108.743C11.3088 108.101 10.9579 107.586 11.3821 107.226C11.4449 107.17 11.5308 107.17 11.6575 107.18Z" fill="#000000" fill-rule="nonzero" opacity="1" stroke="#000000" stroke-linecap="round" stroke-linejoin="round" stroke-width="0.147661"/><path d="M15.5323 127.872C17.8833 128.783 19.0217 131.652 19.5097 132.276L21.9205 133.583L19.982 129.654C20.7905 129.564 26.7357 132.531 29.2805 135.359C31.3414 137.65 32.3321 140.103 30.8262 141.749C30.6513 141.941 29.7685 141.98 29.6062 141.415C30.2303 140.693 30.4994 139.615 30.0334 138.372C29.5674 137.13 28.5558 135.576 27.8112 134.958C26.2644 133.673 24.2296 132.458 21.9477 131.59C22.8745 133.757 24.105 136.304 25.6549 138.827C24.239 137.643 23.6484 136.197 22.7499 135.137L20.2815 133.759C20.5203 134.105 21.1769 135.359 21.5665 136.131C20.6721 134.986 20.1653 134.122 19.1107 132.388C18.6426 131.618 18.2834 130.841 17.6802 130.078C17.1513 129.408 16.4507 128.832 16.2863 128.772C16.1795 128.731 15.5051 128.784 15.5323 127.872Z" fill="#000000" fill-rule="nonzero" opacity="1" stroke="#000000" stroke-linecap="butt" stroke-linejoin="miter" stroke-width="0.147661"/><path d="M163.019 72.1046C162.007 73.0754 161.696 74.3028 162.034 74.8232C162.876 76.126 164.181 74.7929 164.736 74.0703C165.124 73.5666 165.356 72.8639 165.302 72.2837C165.255 71.7663 164.718 70.4751 163.019 72.1046ZM168.115 74.8232C168.023 74.3499 166.555 68.7115 166.53 68.634C166.509 68.5742 166.49 68.5137 166.472 68.4529C166.408 68.2246 166.022 68.256 165.765 68.2078C165.518 68.1597 165.265 68.1428 165.013 68.1576C164.77 68.1722 164.637 68.1408 164.616 68.0612C164.584 67.9471 164.68 67.8193 164.9 67.6779C165.138 67.5271 165.51 67.3899 166.019 67.2632C166.528 67.1365 166.802 67.1794 166.843 67.391C166.971 68.012 167.137 68.3565 167.442 69.5546L168.581 74.0368C168.698 74.4965 168.95 75.8412 169.042 76.5261C169.134 77.211 168.998 77.6288 168.821 77.7419C168.683 77.8309 168.322 75.8799 168.115 74.8232ZM167.524 74.0211L164.97 76.9177L165.264 78.0634C165.332 78.3095 165.33 78.5347 165.405 78.8897C165.48 79.2447 165.536 79.672 165.568 80.1725C165.603 80.6731 165.541 80.9685 165.382 81.0575C165.307 81.0648 165.214 80.9423 165.105 80.6909C164.999 80.4471 164.915 80.1936 164.857 79.9338C164.818 79.7452 164.769 79.5589 164.71 79.3756L164.293 77.5052L162.976 78.587C162.853 78.7134 162.738 78.8466 162.63 78.986C162.469 79.1871 162.336 79.3201 162.232 79.3861C162.061 79.495 161.715 79.5756 161.19 79.629C160.665 79.6824 160.381 79.6301 160.338 79.4719C160.328 79.4363 160.338 79.3944 160.369 79.3442C160.397 79.295 160.429 79.2646 160.461 79.2541C161.085 78.9699 161.687 78.6394 162.262 78.2655C162.772 77.9419 163.495 77.2989 164.287 76.5952C165.074 75.8935 165.722 75.2107 166.268 74.6986L167.349 73.4985C167.349 73.4985 167.524 74.0211 167.524 74.0211ZM163.32 71.0542C163.813 70.762 164.346 70.3892 164.849 70.5055C165.351 70.6207 165.789 71.2354 165.846 71.8187C165.924 72.5102 165.789 73.2091 165.457 73.821C165.11 74.4703 164.621 75.1269 164.065 75.5804C162.629 76.7481 161.769 76.3072 161.35 75.4694C160.935 74.64 161.476 72.8953 162.333 71.9695C162.352 71.9465 162.433 71.8669 162.573 71.7307C162.714 71.5946 162.793 71.5108 162.811 71.4794C162.851 71.4019 162.863 71.337 162.849 71.2846C162.834 71.2323 162.793 71.1862 162.726 71.1453C162.659 71.1055 162.619 71.0678 162.61 71.0333L162.621 70.9799C162.645 70.9519 162.674 70.9285 162.706 70.9108C162.788 70.8594 162.906 70.8175 163.063 70.7851C163.22 70.7526 163.307 70.7715 163.327 70.8427C163.35 70.9306 163.337 71.0647 163.281 71.2438C163.281 71.2438 163.32 71.0542 163.32 71.0542ZM91.6478 15.7693L92.7055 15.2635L93.4994 17.3433L96.55 15.806C97.9533 21.0223 97.3899 25.6972 93.5664 31.3669C93.0679 30.9103 92.7736 30.3459 92.5317 29.9773C96.8222 22.9419 96.4987 21.8905 95.7541 17.2962L91.0551 19.8452L91.0415 23.5084L89.7974 24.4122L89.8487 19.33L92.3662 17.9256M102.606 17.1957L106.099 23.0278L105.198 23.6854L102.139 18.7655C101.871 19.3415 101.045 20.8568 100.227 21.7198C100.148 21.6142 100.051 21.5231 99.9409 21.4506C99.8753 21.3608 99.8005 21.278 99.7179 21.2035L99.2906 20.9689C100.115 19.5939 100.489 19.1582 101.101 17.7842C101.64 16.5799 102.09 15.8133 102.182 14.0613L103.249 14.0142C103.156 15.495 102.803 16.2773 102.606 17.1957" fill="#000000" fill-rule="nonzero" opacity="1" stroke="none"/><path d="M169.811 95.7754C171.531 93.2149 169.029 92.7237 169.322 90.9329C169.839 87.7514 173.423 81.7141 173.969 81.3936C172.885 81.1371 171.875 69.4163 172.354 68.6257C171.635 69.0571 172.171 76.7523 173.431 81.3936C170.901 85.26 169.054 89.8679 168.978 90.8837C168.822 92.9992 170.772 93.839 169.811 95.7754Z" fill="#5a5a5a" fill-rule="nonzero" opacity="1" stroke="#5a5a5a" stroke-linecap="butt" stroke-linejoin="miter" stroke-width="0.147661"/><path d="M40.6137 15.4332C41.5405 14.5399 42.6914 13.389 42.6464 13.3513C42.4767 13.2046 41.3593 13.5953 40.9813 13.7387C38.9308 15.541 37.2363 17.4502 35.4592 19.376L34.6497 19.5017C37.1547 16.8522 39.7068 14.2027 42.9752 11.5657L43.6549 11.4463L41.4892 13.2853C41.7447 13.2193 42.1479 13.0874 42.3333 13.0486C42.4998 13.0151 43.3229 12.7784 43.5805 12.8957C43.9083 13.0455 42.1971 14.5053 41.4934 15.2845L40.6137 15.4332ZM44.5304 68.3869C44.397 68.4063 44.269 68.453 44.1544 68.5241C43.946 68.6655 43.8183 68.833 43.7732 69.0289C43.7332 69.2 43.7686 69.38 43.8706 69.5232C43.9977 69.707 44.2008 69.8239 44.4236 69.8415C44.4916 69.8488 44.611 69.8405 44.7597 69.8227C44.9126 69.8017 45.0079 69.7797 45.0362 69.7829C45.2331 69.8059 45.3032 69.963 45.2404 70.2342C45.1692 70.5495 44.9618 70.8092 44.6414 70.9966C44.3209 71.1841 43.9575 71.3307 43.5763 71.4564L43.5083 71.7768C44.9901 71.5003 45.8625 70.8605 46.0908 69.8604C46.163 69.542 46.0908 69.2373 45.9033 68.9262C45.7159 68.6152 45.4258 68.4236 45.0069 68.3743C44.8482 68.356 44.6878 68.3603 44.5304 68.3869ZM53.4696 67.8926C51.1343 68.2204 49.155 69.0697 47.8407 70.2363C46.5264 71.404 45.6771 73.1299 45.8688 74.4944C46.0426 75.726 46.4793 76.945 47.6334 77.6068C48.7874 78.2687 49.5812 78.5347 50.8704 78.5357L50.9196 79.2908L49.4042 79.5599C48.7455 79.6521 48.2533 79.6269 47.9297 79.5128C47.6061 79.3997 47.1935 79.0122 47.028 78.6331L46.2028 78.6823L46.4353 80.937L53.1094 79.9998L53.0266 78.0069C50.8431 77.7461 50.4326 77.1492 49.7519 76.6036C49.2042 76.1648 48.6094 75.1039 48.4806 74.1834C48.3025 72.9131 48.889 71.2595 49.8619 70.3463C50.7793 69.4855 51.6935 69.0697 53.4131 68.6896C54.5022 68.4487 56.4982 68.3482 57.6282 68.9451C58.1257 69.2069 59.4169 70.2154 59.619 71.6585C59.929 73.865 58.9163 76.0977 55.7976 77.6173L55.8919 79.496L63.1995 78.4415L62.9199 76.0537L62.2403 76.0695C62.0874 76.3732 61.6465 76.9921 61.459 77.2738C61.2831 77.5377 61.0286 77.7346 60.2735 77.8414L58.1026 78.1419L58.0775 77.3544C59.5593 76.8287 60.7658 76.0475 61.547 75.1165C62.3272 74.1855 62.6267 72.5549 62.4644 71.4019C62.2654 69.9808 61.3805 68.9252 59.8149 68.2162C58.2461 67.5072 55.7338 67.5753 53.4696 67.8926ZM151.852 38.195C151.332 38.2641 150.191 38.5877 150.015 39.0558C149.891 39.3867 149.71 39.8569 150.841 40.3732C151.23 40.5502 151.993 40.0172 152.633 39.9899C153.912 39.9355 154.925 42.1326 154.324 43.7705C153.905 44.9067 152.597 45.8032 151.245 46.3645C150.308 46.7541 149.599 46.6724 148.954 46.5142C148.252 46.3425 147.737 45.8597 147.407 45.0649C147.17 44.4788 147.02 43.8615 146.961 43.2322C146.963 42.6656 147.415 42.5682 147.652 43.8521C147.919 44.4941 148.408 45.1413 148.985 45.2774C149.564 45.4136 150.266 45.311 151.092 44.9675C151.725 44.7056 152.436 44.0553 153.003 43.3003C153.948 42.0404 153.586 41.0916 152.956 40.8926C152.657 40.7984 151.769 41.4027 151.111 41.3377C149.914 41.2183 149.018 39.7082 149.016 39.1689C149.014 38.4861 149.506 38.0997 149.964 37.7802C150.696 37.2734 151.977 36.6691 151.852 38.195ZM154.779 45.4555L154.635 46.8483L153.075 46.7006L153.328 45.3937L154.779 45.4555ZM152.672 46.8357L152.547 48.2296L150.994 48.0977L151.103 46.7101L152.672 46.8357ZM52.0527 104.406L51.7626 104.558C52.746 105.23 53.3911 105.751 53.6592 106.145C53.9273 106.538 54.232 106.56 54.6226 106.19C55.0133 105.819 55.0991 105.527 54.852 105.342C54.6048 105.157 53.6696 104.841 52.0527 104.406ZM59.4756 104.265C59.6588 105.168 60.3029 109.08 61.8371 115.573L60.1521 115.623L59.3227 115.306L60.2557 116.201C61.0125 115.99 61.7856 115.843 62.567 115.761L75.845 114.245L73.386 113.322L71.8466 114.281L69.5668 104.259L70.6884 103.776L68.7122 103.1L67.3529 103.924L61.5198 104.593C61.5198 104.593 59.4756 104.265 59.4756 104.265ZM61.1951 104.917L67.7247 104.187L68.2954 107.299L61.9355 108.035C61.9355 108.035 61.1951 104.917 61.1951 104.917ZM55.8888 106.391L55.2594 106.98L48.9969 107.591L49.8305 107.934C50.4054 107.774 51.0453 107.671 51.7605 107.601L55.0709 107.258C54.3399 108.518 53.4309 109.626 52.3417 110.571C51.2526 111.515 50.0996 112.334 48.8565 113.05L49.155 113.181C50.9081 112.309 52.3522 111.487 53.455 110.681C53.7639 113.865 53.9241 115.811 53.9262 116.51L55.339 115.877C55.2101 115.226 55.0038 113.539 54.7357 110.769C56.0961 111.264 56.981 111.681 57.4114 112.058C57.8419 112.435 58.1822 112.495 58.4178 112.211C58.6524 111.925 58.7142 111.659 58.6262 111.422C58.5383 111.186 57.7706 110.926 56.3003 110.651C56.9716 110.131 57.6691 109.588 58.4021 109.027L59.1645 108.816L57.4596 108.275C57.1433 109.075 56.6145 109.857 55.8982 110.591L54.6907 110.408L54.6436 109.821C55.2742 109.043 55.886 108.25 56.4783 107.443L57.5235 107.026C57.5235 107.026 55.8888 106.391 55.8888 106.391ZM61.9753 108.339L68.3635 107.6L69.0285 110.783L62.5534 111.506L61.9753 108.339ZM62.6204 111.808L69.1468 111.05L69.8925 114.647L63.3661 115.405L62.6204 111.808ZM124.261 82.5006C124.596 82.3969 124.906 82.3749 125.191 82.4346C125.476 82.4943 125.648 82.6147 125.704 82.798C125.843 83.2493 125.465 83.7918 124.571 84.4243C123.677 85.0569 122.149 85.7072 119.986 86.3764C117.813 87.0487 116.18 87.3755 115.091 87.3566C114.002 87.3378 113.386 87.1021 113.247 86.6508C113.192 86.4738 113.263 86.279 113.458 86.0685C113.655 85.858 113.93 85.6978 114.286 85.5878C114.643 85.4779 114.969 85.4475 115.263 85.4988C115.556 85.5501 116.005 85.724 116.606 86.0224C117.45 86.4518 118.542 86.4591 119.882 86.0444C121.212 85.6329 122.11 85.0108 122.574 84.1772C122.891 83.5897 123.153 83.1949 123.362 82.9907C123.572 82.7833 123.87 82.621 124.261 82.5006ZM125.712 86.7859C125.533 86.213 124.761 86.4696 123.606 86.7157L123.519 86.434L130.44 84.0075L130.526 84.2893C129.296 84.8872 128.302 85.4286 128.496 86.0141L130.33 94.1899C130.416 94.4192 131.262 94.2537 132.514 93.9574L132.601 94.2391L125.807 96.8101L125.721 96.5284C127.105 95.8403 127.938 95.3429 127.687 94.5574L126.3 88.0269L117.731 98.7066C118.177 98.7768 119.291 98.6878 120.126 98.5034L120.212 98.7862L112.598 101.1L112.512 100.817C114.115 100.055 114.928 99.6533 114.853 99.2418L113.04 90.9968C112.983 90.5193 111.574 90.5863 110.4 90.8795L110.313 90.5978L118.408 88.0541L118.495 88.3358C117.636 88.7484 115.488 89.5202 115.71 90.2533L117.237 97.1735C117.237 97.1735 125.712 86.7859 125.712 86.7859ZM168.904 104.748C168.567 104.964 167.047 108.093 166.16 109.904L164.786 111.426L164.876 107.839C164.291 108.917 163.278 109.153 163.136 108.994C162.926 108.758 163.179 107.57 163.753 106.813C164.194 106.233 165.159 105.191 165.797 105.117C166.8 104.999 165.951 107.806 166.054 109.1C166.887 107.171 167.878 105.397 169.053 103.605L169.283 100.768C169.239 100.233 168.934 99.9863 168.357 100.264C167.778 100.542 167.134 101.185 166.437 101.955C165.482 103.008 164.08 104.564 163.564 106.027L162.082 107.407C162.309 104.753 166.282 100.607 168.818 98.4752C169.389 97.9945 169.97 98.1788 170.142 98.8553C170.316 99.536 170.022 100.385 170.052 101.982C170.919 101.154 171.095 101.158 170.964 102.214C170.827 103.327 169.97 104.903 169.262 105.976C168.708 106.813 168.737 105.868 168.904 104.748ZM164.388 106.764C163.998 107.243 163.801 107.469 163.843 107.909C163.871 108.233 164.151 108.018 164.491 107.712C164.837 107.402 165.065 107.023 165.049 106.583C165.028 106.039 164.654 106.439 164.388 106.764ZM169.895 103.29C169.692 103.709 169.609 104.279 169.762 104.373C169.897 104.455 170.054 104.063 170.216 103.683C170.323 103.435 170.549 102.793 170.402 102.651C170.264 102.519 170.019 103.034 169.895 103.29ZM119.248 46.6095C119.266 46.6682 119.255 46.73 119.216 46.7959C119.183 46.8567 119.127 46.9023 119.061 46.9237C118.539 47.1206 118.14 47.3698 117.861 47.6714C117.584 47.973 117.351 48.4569 117.162 49.125L114.665 59.1356C114.653 59.2246 114.564 59.2948 114.398 59.3461C114.287 59.3874 114.164 59.3782 114.061 59.3209L109.634 55.8755L107.427 61.3494C107.373 61.4541 107.276 61.5304 107.162 61.5589C107.002 61.6071 106.886 61.6008 106.812 61.5369L98.8309 54.7571C98.3313 54.3371 97.8653 54.0795 97.4276 53.9863C96.9898 53.8931 96.4295 53.9235 95.7446 54.0795C95.6849 54.0968 95.621 54.0919 95.5645 54.0659C95.5006 54.0397 95.4619 53.9999 95.4462 53.9455C95.4032 53.8083 95.4399 53.7224 95.5551 53.6868C96.0593 53.5334 96.5678 53.3944 97.0799 53.27C97.5784 53.1495 98.0423 53.0239 98.4737 52.8919C98.9115 52.7579 99.4246 52.5851 100.014 52.3735C100.559 52.1765 101.107 51.9925 101.66 51.8216C101.777 51.786 101.855 51.8374 101.898 51.9745C101.939 52.1117 101.924 52.1913 101.852 52.2133C101.378 52.3851 101.024 52.584 100.789 52.8113C100.556 53.0375 100.474 53.2658 100.545 53.4962C100.581 53.6135 100.683 53.7423 100.853 53.8837L107.417 59.3796L108.956 55.3467L105.565 52.7003C104.955 52.228 104.489 51.9473 104.161 51.8573C103.836 51.7672 103.391 51.7871 102.824 51.9169C102.769 51.932 102.711 51.9257 102.661 51.8991C102.606 51.8778 102.564 51.8332 102.546 51.7777C102.505 51.6405 102.534 51.5567 102.634 51.5263C103.117 51.3787 103.563 51.2582 103.974 51.165C104.372 51.076 104.79 50.964 105.227 50.8299C105.684 50.6894 106.137 50.5351 106.585 50.367C107.073 50.1859 107.558 50.0214 108.038 49.8738C108.153 49.8382 108.233 49.8895 108.275 50.0267C108.317 50.1639 108.301 50.2435 108.23 50.2654C107.28 50.6037 106.855 50.9378 106.954 51.2656C106.999 51.4122 107.179 51.6059 107.498 51.8457L109.722 53.5255L110.671 51.0771C110.802 50.7325 110.837 50.4644 110.78 50.2738C110.643 49.8235 110.087 49.7314 109.115 49.9963C109.029 50.0225 108.963 49.967 108.922 49.8298C108.907 49.776 108.915 49.7183 108.944 49.6706C108.973 49.613 109.01 49.5785 109.053 49.5648C109.479 49.4378 109.908 49.3229 110.34 49.2203C110.831 49.102 111.231 48.9962 111.54 48.9009C111.763 48.8328 112.087 48.7208 112.511 48.5647C113.047 48.3637 113.499 48.2066 113.865 48.0945C113.951 48.0683 114.013 48.1144 114.049 48.2317C114.096 48.3877 114.041 48.4904 113.884 48.5385C113.335 48.749 112.915 48.992 112.626 49.2674C112.338 49.5429 112.03 50.0623 111.705 50.8247L110.43 54.0627L114.423 57.0945L116.137 49.3774C116.206 49.0936 116.211 48.8517 116.15 48.6517C116.004 48.172 115.443 48.0652 114.471 48.3301C114.384 48.3563 114.32 48.3008 114.278 48.1636C114.236 48.0264 114.28 47.9385 114.41 47.8987C114.761 47.7908 115.182 47.6788 115.674 47.5604C116.13 47.4526 116.508 47.3531 116.809 47.2609C117.126 47.1646 117.487 47.0379 117.897 46.8808C118.318 46.7195 118.703 46.5865 119.048 46.4807C119.144 46.4483 119.211 46.4912 119.248 46.6095ZM134.821 129.509C134.799 125.544 134.742 125.383 134.604 122.562C129.966 124.342 122.537 127.352 121.365 127.579C120.14 127.818 118.606 127.686 118.861 126.781C119.07 126.04 120.546 124.484 121.872 123.999C121.448 124.56 121.145 125.063 121.872 125.112C122.806 125.176 126.681 123.551 128.572 122.931C130.446 122.317 134.354 120.184 135.509 120.648C136.682 121.121 136.433 124.989 136.433 127.784C136.434 128.182 136.554 128.518 136.367 128.801C136.027 129.325 135.364 129.384 134.821 129.509ZM70.0768 143.695C70.3658 144.041 71.546 144.086 72.1514 144.293C72.7577 144.5 75.8177 144.623 76.7697 144.558C77.8442 144.485 79.0904 144 79.6496 143.611C80.1303 143.279 80.412 142.891 80.3816 142.457C80.3146 141.475 77.6525 140.645 75.5444 140.197C73.6143 139.788 69.9668 140.187 67.2712 140.29C63.9368 140.418 61.4391 140.565 58.488 140.59C58.134 140.592 57.667 140.264 57.6691 139.935C57.6722 139.438 58.3759 139.244 58.4629 138.608C58.4838 138.457 58.5037 138.317 58.4157 138.283C58.3634 138.263 57.8743 138.243 57.6314 138.278C57.4439 138.306 57.2868 138.406 56.6941 138.431C56.4511 138.441 55.9945 138.431 55.6835 138.296C55.4102 138.179 54.5828 137.718 55.7348 137.525C56.1432 137.457 58.1927 137.156 59.0158 137.85C59.8567 138.558 58.9404 139.447 58.9404 139.447C58.9404 139.447 61.57 139.451 62.921 139.411C66.469 139.303 74.6218 138.588 74.6218 138.588C75.1737 138.55 76.467 138.172 76.8032 137.965C77.1184 137.772 77.3488 137.545 77.2546 137.355C76.8577 136.559 76.3456 136.591 75.27 136.397C76.8692 136.059 78.5667 136.453 78.6558 137.398C78.7605 138.511 77.5059 139.122 76.1036 139.679C77.5897 139.91 79.4737 140.523 80.3785 141.052C81.2843 141.582 81.8855 142.011 81.9305 142.666C81.9766 143.331 81.6331 143.915 80.7859 144.457C79.8203 145.067 78.5374 145.511 76.3644 145.605C74.5705 145.682 71.5481 145.219 70.4674 144.752C69.4715 145.363 67.554 146.019 65.7936 146.139C64.207 146.249 61.9282 145.993 61.1805 145.607C60.2285 145.118 59.6421 144.777 59.6002 144.166C59.5667 143.685 59.7038 143.195 60.439 143.008C61.3299 142.797 62.2469 142.718 63.1608 142.772C64.805 142.881 66.668 143.603 65.603 144.512C65.3579 144.721 64.9317 144.663 64.3766 144.502C65.5872 143.228 60.8097 143.432 60.8495 144.019C60.8736 144.372 61.1972 144.651 61.8182 144.861C62.4508 145.081 64.7076 145.224 65.6187 145.161C66.5916 145.094 68.1362 144.668 68.7227 144.382C69.3091 144.096 69.8097 144.073 70.0768 143.695ZM57.447 137.854C57.4502 137.745 57.003 137.727 56.7538 137.731C56.5077 137.733 56.0825 137.786 56.0856 137.874C56.0888 137.962 56.4899 138.071 56.7349 138.068C56.9768 138.064 57.4439 137.959 57.447 137.854ZM133.321 24.7641C130.623 18.9959 129.81 17.557 133.386 16.9747C132.329 16.4228 132.033 15.9526 131.343 16.139C129.766 16.5642 127.523 14.8949 126.508 14.4708C127.517 14.0812 128.971 13.7073 129.648 13.655C129.785 13.6434 131.163 14.1901 131.335 14.1639C131.08 13.5921 128.541 11.9972 128.138 12.0904C125.949 12.5972 122.747 13.5115 121.338 13.8822C121.798 14.8645 126.552 15.4416 129.018 16.7244C129.039 17.5538 130.161 23.1304 133.321 24.7641ZM14.9458 67.8298L14.2599 69.4645C14.2913 69.6614 14.4903 71.1966 13.8703 72.3737L16.0067 72.3371C16.0412 71.5401 16.8832 70.2657 15.194 69.475L15.7459 67.9691L17.7409 67.923C16.8895 69.2959 16.4758 71.5747 16.4884 72.3224L17.188 72.3067C16.4193 74.4996 16.1324 75.682 15.9334 78.7043C14.0452 76.9271 10.4521 76.8298 10.0102 77.0685C10.0919 75.8998 11.1265 73.9216 11.3004 73.6189L10.8962 73.5603L11.4418 72.2942L13.3278 72.3842C13.6158 71.848 14.0253 71.2626 13.8138 69.541C12.9676 69.4739 12.2691 69.3975 11.9978 69.5588C11.5214 69.8415 11.1349 70.3672 10.9935 71.8627C10.8574 70.4206 10.8731 69.3462 11.2847 68.7115C11.492 68.3817 11.8397 68.1806 12.1183 67.9156C12.1183 67.9156 14.9458 67.8298 14.9458 67.8298ZM15.7501 74.3865C15.194 73.5268 12.3183 73.5613 11.9905 73.5791C11.5245 73.9781 11.1328 75.1657 10.9873 75.6778C12.8074 75.4453 14.8945 77.0591 15.6182 77.7765C15.5888 76.7879 15.7889 75.4987 15.7501 74.3865ZM17.8341 67.1637C17.477 67.1847 16.7136 66.4705 15.9491 65.7353C14.9888 64.8095 13.1603 64.1288 12.4827 64.9268C12.3099 65.13 12.1727 65.3216 12.1843 65.7437C12.1895 65.9196 12.333 66.1311 12.5843 66.2317C12.778 66.3081 13.0535 66.3594 13.4263 66.3793C13.3415 67.0401 13.2891 67.4926 12.9425 67.4947C11.5245 67.5062 11.1611 66.1814 11.2637 65.5405C11.3831 64.8011 11.5538 64.5236 11.8355 64.1676C12.4031 63.4492 13.0514 63.424 13.6546 63.3884C15.215 63.2973 16.7345 65.9594 17.8341 67.1637ZM18.9212 42.3158L21.9404 36.4932L23.7207 36.0439L24.4778 36.6388L22.4022 40.7869C22.1959 41.1984 22.3142 41.6393 22.8494 41.609C23.4243 41.5765 24.2966 41.3398 24.5218 40.8612L26.1293 37.4388L25.4947 36.2921L27.2907 35.4334L27.6646 35.8512L28.2584 35.8188L27.1629 36.4701L26.7755 35.9549L26.0403 36.2974L26.6561 37.3959L25.0821 40.7596C24.6286 41.7273 22.6986 42.2006 22.0639 41.9043C21.7047 41.7357 21.8136 41.0916 21.9864 40.7335L23.8851 36.778L23.5353 36.4534L22.2001 36.7602L20.2522 40.4371C20.5821 40.2193 21.4743 39.9459 20.9025 40.9817C20.5768 41.5723 19.4584 42.4122 19.4584 42.4122C19.4584 42.4122 18.9212 42.3158 18.9212 42.3158ZM19.6155 41.7441L20.0626 40.8707C20.6177 40.4161 20.8261 40.4936 20.5988 40.9C20.4344 41.1932 19.9904 41.6645 19.6155 41.7441Z" fill="#000000" fill-rule="nonzero" opacity="1" stroke="none"/><path d="M63.9305 90.867C61.8067 92.5289 66.3936 93.8191 67.2827 95.3931C68.1729 96.9682 65.1757 98.6448 65.2375 98.6511C65.3254 98.6595 68.6138 96.6655 67.7749 95.1617C66.935 93.6568 62.545 92.3069 63.9305 90.867ZM54.5546 5.04664C54.6111 5.01104 54.3189 5.1388 54.0624 5.23619C54.0173 5.32207 51.5993 6.37559 50.2734 7.58516C50.2221 7.86477 51.2264 8.49521 53.7964 7.20605C53.3879 7.81764 50.9384 10.3918 49.3257 11.373C48.6261 11.7993 48.8042 10.8044 47.7726 11.2589C46.2007 11.9521 42.0034 15.0342 41.7112 17.4334C41.5751 18.5602 46.5107 14.9745 46.2573 15.9935C45.94 17.269 43.8853 22.6078 40.1581 25.2364C36.8038 25.848 36.6153 25.8166 34.324 26.2596C31.3383 26.2596 40.0513 21.3124 35.9912 21.1082C30.8754 20.8485 30.0554 23.5734 28.9066 25.805C30.2083 23.6058 31.2315 20.8945 36.0666 21.1836C39.4052 21.3836 30.9979 26.4114 34.2486 26.4114C36.5389 25.9695 36.8792 25.9632 40.2336 25.3505C43.9607 22.722 46.0908 17.2889 46.4081 15.8416C46.6332 14.8164 41.6096 18.4409 41.7866 17.3193C42.1165 15.2227 46.2824 12.0422 47.848 11.3343C48.7277 10.9363 48.5874 11.9878 49.288 11.5615C50.8997 10.5792 53.6728 7.76109 54.1367 6.94005C51.5657 8.22921 50.4106 7.86372 50.462 7.58411C51.726 6.43319 54.2896 5.2163 54.5546 5.04664ZM28.9087 25.8061C27.9348 27.4513 26.8142 28.8358 23.8327 28.42C26.1408 25.6689 29.248 22.4874 31.2189 19.973C29.9318 20.9228 29.9119 20.7469 30.4994 20.0861C29.6187 21.0087 29.3737 21.4056 30.8031 20.351C28.3589 23.0173 25.99 25.782 23.6809 28.5331C26.9849 28.9541 28.0311 27.511 28.9087 25.8061ZM53.9105 5.27389C53.6445 5.35139 52.9533 5.59749 51.6757 6.0321C48.4785 7.66265 45.4781 9.53721 42.2055 11.0704C39.8607 13.1669 38.4564 13.9786 36.6373 15.6541C36.9798 14.8949 36.586 14.9923 35.8414 15.4646C36.4761 15.1117 36.808 15.1274 36.4855 15.8437C38.3045 14.1681 39.9361 13.2434 42.2809 11.1468C45.5535 9.61366 48.5539 7.74015 51.7511 6.10855C52.9879 5.63415 53.4969 5.42889 53.9105 5.27389ZM124.561 7.58516C127.078 8.94971 130.115 11.3081 133.084 12.9261C131.435 11.8244 128.632 9.57596 124.561 7.58516ZM114.18 8.83451C113.426 8.82509 112.485 8.93714 111.302 9.13821C119.099 8.07631 113.429 14.8279 123.462 12.8507C115.71 13.4382 119.46 8.90258 114.18 8.83451ZM89.9356 9.47961C87.6683 9.63146 85.0607 10.4305 84.1768 11.2222C85.4712 10.2881 89.9492 9.35499 91.7536 10.0106C93.3517 10.5907 90.6069 11.6338 93.1182 13.1167C94.1267 13.7126 97.8653 13.7304 101.148 13.1544C97.8873 13.5659 94.3885 13.1135 93.6481 12.8517C92.4008 12.4087 94.0052 10.1666 92.4741 9.66916C91.8028 9.45029 90.8949 9.41468 89.9356 9.47961ZM106.188 11.2966C105.833 12.5847 110.923 19.0263 114.635 19.1383C115.747 19.1718 116.217 17.9623 116.984 17.2062C117.748 16.45 118.249 15.9631 118.688 15.8803C119.033 15.8154 117.794 15.3232 116.984 15.918C116.172 16.5129 115.428 18.0251 114.748 18.1906C112.327 18.7823 107.521 12.2852 106.188 11.2966ZM83.8752 11.6003C83.8469 11.6841 83.8302 11.749 83.8752 11.8275C83.8496 11.7539 83.8496 11.6739 83.8752 11.6003ZM134.068 12.282C134.041 12.3511 134.466 12.6224 134.711 12.9261C134.607 12.7036 134.451 12.509 134.257 12.3585C134.958 12.2108 139.697 15.9442 140.317 16.4877C141.336 17.3779 139.265 16.5275 139.371 17.2826C139.548 18.5403 143.461 21.9617 146.759 25.1243C145.042 25.7118 142.896 27.8178 142.896 29.1018C142.894 31.3292 146.148 32.2047 147.213 33.6101C148.222 34.9412 146.555 35.6973 142.705 36.7917C144.842 37.7122 149.203 36.3916 148.387 33.8751C147.489 31.103 144.538 31.7251 143.955 29.2159C143.737 28.2671 146.93 25.8553 147.479 25.6553C151.11 28.3519 156.364 34.2291 155.964 35.5423C155.829 35.9853 154.215 34.383 153.35 34.8605C151.839 35.6941 157.401 44.1757 159.147 44.9371C159.779 45.2136 160.199 40.7764 159.677 40.7701C158.631 40.7576 159.591 44.1946 158.956 43.8762C158.285 43.539 153.963 38.0002 154.07 35.9968C154.108 35.2868 156.814 36.865 156.759 35.8826C156.671 34.2772 151.572 28.4797 147.402 24.9348C141.385 19.2221 139.604 17.7612 139.939 17.2826C140.303 16.8208 141.757 17.7088 141.455 17.3203C140.747 16.4155 135.944 12.7072 134.598 12.3585C134.227 12.2621 134.081 12.2464 134.068 12.282ZM134.711 12.9261C134.821 13.1617 134.832 13.3565 134.787 13.4937C134.799 13.4811 134.815 13.4706 134.826 13.456C134.943 13.2916 134.852 13.0989 134.711 12.9261ZM134.787 13.4947C134.698 13.5841 134.572 13.6261 134.448 13.6078C134.482 13.6246 134.525 13.6298 134.56 13.6455C134.685 13.7021 134.745 13.6267 134.787 13.4947ZM133.235 13.0015C133.722 13.3188 134.136 13.5659 134.409 13.6078C134.014 13.4267 133.633 13.2151 133.235 13.0015ZM118.803 16.4113C121.071 17.7256 123.966 20.3625 124.597 22.2455C125.11 23.7692 123.364 23.2121 121.188 23.2299C123.278 24.0541 125.998 24.2761 125.734 22.3963C125.4 20.018 121.475 16.4019 118.803 16.4113ZM83.4197 16.9035C80.4486 17.8774 77.8012 17.2962 74.5558 17.5099C74.5485 17.6135 74.5317 17.8041 74.5181 17.9267C77.398 17.7371 80.1627 18.1518 83.4197 16.9035ZM74.4804 18.1916C74.206 20.0756 73.8395 21.9711 73.9118 23.3053C73.9254 21.8789 74.3045 19.618 74.4804 18.1916ZM34.9701 21.3731C33.5522 21.4569 31.5519 22.2025 31.1435 23.0403C29.3978 26.6167 26.8708 29.9574 23.4536 28.8735C21.3068 30.6894 16.9105 36.2775 16.9754 38.7992C16.99 39.37 19.5286 36.0251 19.7411 36.6021C20.0909 37.5519 18.9484 39.881 17.9608 41.4885C17.1147 42.8656 16.0559 44.6795 14.8547 45.4282C14.6243 45.5717 14.329 43.4448 13.9834 43.9129C11.5737 47.1803 8.78177 52.1568 8.86974 55.3529C8.92001 57.1699 12.1989 58.4287 14.4379 55.3529C15.2223 54.2764 14.3479 50.6864 15.3092 49.7083C15.8852 49.1229 16.9712 48.3595 18.3022 48.1176C19.5956 47.8819 22.4849 48.3867 22.2797 49.7083C21.9016 52.1463 18.497 53.9413 19.7799 55.2011C21.8932 57.2767 28.5411 56.7939 31.7509 54.9361C30.224 49.9691 33.6883 41.3848 37.2814 40.2758C38.5234 39.8925 39.6523 41.5011 41.2211 41.0717C44.1073 40.28 44.7754 37.4483 44.8205 35.692C44.8624 34.028 45.2739 31.9785 43.8361 32.321C41.9929 32.7598 38.8617 36.2356 37.4343 34.8961C35.1146 32.721 38.5758 28.73 40.1613 25.805C38.5779 25.8166 33.7019 27.2942 32.7741 26.4868C32.7699 27.9404 37.7715 26.3109 39.5162 26.2973C37.9307 29.2222 34.835 32.9242 37.0164 35.2375C38.1317 36.4199 41.4997 33.5169 43.3428 33.0781C44.7817 32.7357 44.3691 34.3694 44.3272 36.0334C44.2832 37.7886 43.9554 39.9386 41.0692 40.7303C39.5005 41.1607 38.5224 39.3626 37.2803 39.7459C33.6872 40.8549 29.5046 49.7408 31.0304 54.7089C27.8217 56.5677 22.4608 56.4599 20.3475 55.088C18.8405 54.1088 22.3184 51.919 22.6965 49.4811C22.9017 48.1594 19.8228 47.5405 18.5295 47.7762C17.1995 48.0181 15.5826 48.9711 15.0066 49.5565C14.0452 50.5346 14.9961 54.2177 14.0976 55.2011C11.8575 57.6516 9.22266 57.0945 9.17239 55.2765C9.08547 52.0793 11.8104 47.5489 13.907 44.5936C14.2442 44.1192 14.5479 46.0629 14.7783 45.9194C15.9784 45.1706 17.1775 43.1474 18.1116 41.8278C19.1872 40.3083 20.5884 37.0252 20.1192 35.957C19.8721 35.3936 17.1377 38.7458 17.278 38.1918C17.9169 35.6711 21.4576 31.0685 23.6044 29.2515C27.0216 30.3344 29.5475 26.957 31.2943 23.3807C31.7614 22.4235 34.3051 21.6213 35.6885 21.7512C35.9116 21.7721 36.0394 21.8098 36.143 21.8643C36.2362 21.6203 36.0928 21.4621 35.5367 21.4098C35.3649 21.3951 35.1722 21.3616 34.9701 21.3731ZM36.1441 21.8664C35.8446 22.6508 33.0118 24.3002 32.6212 25.9956C32.5691 26.1753 32.6288 26.3687 32.773 26.4878C32.773 26.4344 32.7583 26.3988 32.773 26.336C33.2369 24.3242 37.1222 22.3816 36.1441 21.8664ZM119.749 22.3586C118.767 22.3261 118.181 23.3556 118.196 24.4049C118.222 26.069 122.102 33.9201 125.205 34.9736C120.032 38.2536 118.868 37.3362 111.263 38.5343C116.196 38.2211 122.699 39.2244 127.098 34.671C123.19 32.7975 120.802 28.4546 119.598 24.4426C119.146 22.944 119.954 23.1011 120.847 22.7754C120.442 22.4905 120.076 22.3701 119.749 22.3586ZM73.9118 23.5713C73.9285 23.9682 73.9767 24.2667 74.1013 24.4049C74.1453 24.4531 74.1725 24.4719 74.2144 24.518C74.1285 24.3693 74.0374 24.2216 73.9872 24.0258C73.9524 23.876 73.9272 23.7242 73.9118 23.5713ZM82.8521 23.6467C82.6824 23.6425 82.5107 23.6467 82.3599 23.6844C79.8727 24.3127 78.0766 26.8156 76.3372 26.7151C75.5936 25.982 75.2051 25.6092 74.8595 25.2751C76.2984 26.9078 76.689 27.3403 78.1175 26.8659C80.2664 26.1517 81.7095 23.919 84.1789 24.0247C84.3234 24.031 84.4596 24.0551 84.5957 24.1001C84.0386 23.8488 83.4322 23.6624 82.8521 23.6467ZM22.1655 28.3436L22.1278 28.419L22.9237 28.7227C21.5215 30.2862 16.5984 34.9433 16.5596 38.6474C16.5565 38.9793 16.6539 39.1689 16.7869 39.2914C17.0445 39.5291 17.6173 39.0034 18.9463 37.6242C18.9725 37.597 19.2688 37.2661 19.2877 37.5865C19.3484 38.6358 16.1931 43.2887 15.4621 44.1401C15.0652 44.6009 14.9919 44.5852 14.8558 44.2155C14.5332 43.3421 14.4254 42.9211 14.2494 42.9662C13.9007 43.0541 11.4753 46.2755 9.70334 50.2016C9.14307 51.4425 8.60165 52.9066 8.26339 54.2554C7.99634 54.0418 7.3659 53.5088 7.08943 53.4218L7.01298 53.6868C7.44968 53.8742 7.83821 54.0879 8.37649 54.8607C8.97656 51.2739 11.9256 45.5696 14.173 43.2311C14.484 42.9075 14.8233 45.069 15.1574 44.7088C16.9419 42.7892 19.5139 38.4767 19.4374 37.4734C19.3673 36.5508 17.5859 39.0987 17.0131 39.1783C16.9188 39.1909 16.6874 39.0893 16.6717 38.9134C16.4088 36.001 20.1024 31.8078 23.1112 28.7237L22.1655 28.3436ZM136.227 30.0485C131.911 29.9563 126.424 33.4436 127.059 34.1023C127.951 35.0229 132.79 29.6191 138.954 30.7679C138.175 30.2904 137.223 30.0705 136.227 30.0485ZM136.833 31.0716C142.328 31.9262 136.319 38.794 144.144 37.7007C137.685 37.176 143.785 30.7533 136.833 31.0716ZM104.71 31.8665C98.1795 32.0822 91.7903 35.0585 93.7999 37.6242C94.7822 38.8778 99.1293 40.1606 98.1564 41.4875C95.9907 44.4459 90.6153 44.7601 81.034 45.7686C95.3425 45.4576 96.3447 44.625 99.521 41.7147C101.687 39.7271 95.9625 38.6589 95.0891 36.6388C94.1424 34.4469 102.752 31.634 108.916 32.1681C107.953 31.9915 106.978 31.8903 105.999 31.8654C105.57 31.8543 105.14 31.8546 104.71 31.8665ZM106.301 32.6624C106.002 32.6592 105.704 32.6823 105.392 32.7011C103.897 32.7891 102.301 33.12 101.148 33.6855C104.102 33.2677 106.597 32.6163 107.892 33.8374C108.554 34.4626 107.018 36.5424 107.21 37.7394C107.582 40.0632 108.679 39.6621 119.143 39.0652C109.656 38.7594 107.271 40.2224 109.56 34.4814C110.034 33.2897 108.386 32.6907 106.301 32.6624ZM127.515 35.5035C127.443 35.4978 127.373 35.5257 127.325 35.5789C126.521 36.5393 132.924 40.7125 132.78 45.1245C132.723 46.8567 132.802 47.0043 130.052 46.7541C132.334 47.4777 134.222 47.7594 134.258 45.2764C134.317 41.1042 128.755 35.5329 127.515 35.5035ZM160.282 41.7922C162.321 44.9402 163.873 46.5886 165.585 51.4143C162.997 53.2962 160.53 56.5384 160.736 59.3314C160.893 61.4563 163.618 62.5841 163.539 63.9152C163.436 65.6693 160.588 68.2675 158.691 68.7639C161.463 70.5872 164.854 65.5237 164.827 63.1957C164.813 62.0396 162.622 61.5736 162.061 59.3325C161.43 56.8107 165.445 52.7966 165.811 52.4762C167.34 53.8072 169.57 68.1439 171.038 61.7945C169.463 66.039 168.126 55.7237 166.304 52.2489C167.144 51.7483 166.758 51.9075 167.516 51.2258C167.401 50.9629 167.527 50.721 167.138 50.3168C166.211 51.0226 166.473 50.7336 165.963 51.2258C164.779 47.2463 162.807 43.848 160.282 41.7922ZM97.4747 44.3297C89.567 46.3697 87.3416 46.2744 82.0939 46.5645C87.4809 47.352 91.5023 46.2346 97.4747 44.3297ZM77.9656 46.11C77.4588 46.1142 76.7592 46.1456 75.8062 46.1864C78.1102 46.2095 78.8935 46.9729 78.9123 46.9436C81.4666 49.2088 83.1076 53.1569 82.9662 56.4902C82.8405 59.4309 81.8425 61.2615 77.1697 59.9755C72.676 58.7387 67.4021 60.3965 68.3436 65.6578C68.9782 69.2037 69.1217 73.8943 75.4282 73.4241C71.5366 73.4723 69.2285 68.7702 69.5186 64.7488C69.9113 59.2455 74.9433 59.6498 79.0642 60.6206C81.3021 61.1463 83.3736 61.4112 84.557 56.4159C85.0062 54.5246 83.5338 50.3911 79.7847 46.1875C79.3857 46.1864 79.4852 46.0964 77.9656 46.11ZM127.817 46.5268C127.407 46.5163 127.042 46.5415 126.681 46.5645C124.515 46.7069 123.266 47.5625 123.158 49.2538C122.917 53.0857 126.187 59.7995 130.887 58.6109C126.202 56.507 124.632 52.8228 124.825 48.837C124.908 47.1342 126.655 46.7101 129.144 46.6399C128.704 46.5821 128.261 46.5444 127.817 46.5268ZM75.6544 46.6409C70.1187 46.7656 62.0381 50.2487 59.441 51.5651C58.2094 52.1903 63.6038 55.6064 62.5471 57.0956C59.618 61.2269 50.8054 61.9401 46.8636 60.8834C42.704 59.7681 50.5195 54.2439 48.2648 52.8532C45.4027 51.0854 39.313 52.5055 32.7332 55.3152C33.4495 61.3233 33.725 62.2857 32.3918 66.3772C31.9195 67.8256 30.179 71.5182 26.1796 68.4225C24.0474 66.7731 22.1592 68.545 21.7089 71.7946C21.09 76.2642 21.9739 80.6428 25.989 77.1355C27.5829 75.7427 30.0826 76.4339 30.5351 77.7419C32.4389 83.2514 33.9826 87.0278 31.4064 91.8723C44.301 88.3944 49.2922 90.5821 51.1427 91.3037C53.6309 92.2745 51.3207 94.6936 49.2869 97.4782C52.2873 94.3585 53.7817 92.1802 51.5595 90.7727C47.5841 88.2531 38.1935 89.5516 32.2777 91.1518C34.3041 86.832 32.2263 80.8093 30.8765 77.6278C30.091 75.7773 27.2352 75.1269 25.7628 76.6433C21.4597 81.0721 22.0158 74.2117 22.4284 71.3401C22.6881 69.5357 23.8662 67.4748 25.9136 68.9158C28.096 70.451 30.2041 71.9706 32.7699 67.0213C34.6036 63.4837 34.414 59.3607 33.6035 55.354C40.1184 52.7966 44.7744 51.542 47.7705 53.4983C49.1142 54.3759 42.9365 58.5146 45.0435 60.5064C47.3077 62.647 59.1425 61.9485 62.5827 57.8171C64.8081 55.1445 58.0136 52.4825 60.0065 51.4907C63.8687 49.5701 71.6403 46.6179 77.8494 46.8315C77.1271 46.6867 76.3909 46.6227 75.6544 46.6409ZM128.499 47.5877C128.04 47.593 127.583 47.6438 127.135 47.7395C129.24 48.4548 130.098 48.6014 132.59 48.1563C131.05 47.8934 129.831 47.5699 128.499 47.5877ZM18.8698 48.6485C17.7587 48.6569 16.6109 48.9176 15.9533 49.5198C14.7385 50.6299 15.66 53.8899 14.6652 55.6566C13.2608 58.1501 10.3893 58.5805 8.30109 56.3384C7.58896 60.5588 5.77829 69.1608 4.43782 68.8016C4.47133 68.8236 4.47761 68.9011 4.51322 68.9158C5.84321 69.4593 7.81726 61.3526 8.52834 57.172C10.5925 59.3702 13.9583 57.8737 15.3469 55.4294C16.3313 53.6983 14.9846 50.4906 16.4078 49.7094C18.0425 48.8119 22.2922 48.9229 21.1424 50.3157C20.0071 51.6907 17.9409 53.8931 18.8311 55.8839C19.8637 58.1931 27.5965 58.392 31.597 56.0734C31.9153 60.7085 32.2546 66.2998 29.3244 68.1953C27.8677 69.1367 26.2162 66.2977 24.4003 66.2254C20.447 66.0641 18.1431 77.7429 22.9604 79.7495C24.6391 80.448 25.5638 77.8896 28.3767 77.4382C29.8879 77.1963 31.8148 88.1986 30.157 90.6963C27.5274 94.659 17.4802 91.9299 15.6862 89.8637C14.7605 88.7966 18.6028 86.0884 17.4665 84.3709C15.5365 81.4544 10.051 80.4197 8.3744 82.0597C6.29562 84.0945 9.97353 88.3735 8.33669 89.7108C7.26746 90.5853 4.79493 89.1484 3.86707 87.1734C4.05872 83.2588 4.90803 70.2248 2.99577 73.6493C2.98215 72.1936 2.94969 71.1726 3.03347 70.2395C2.9078 71.4595 2.86905 72.7466 2.88162 74.1792C4.76665 70.7778 3.67647 83.662 3.56337 87.6268C4.8054 90.026 7.44445 91.2461 8.52625 90.3538C10.1819 88.9882 6.64959 84.5888 8.7535 82.5131C10.449 80.8396 14.2714 82.0565 16.7083 84.4453C18.2059 85.9114 14.4641 88.6458 15.0045 89.9758C15.8266 92.0032 27.5159 95.9011 31.066 90.8471C32.8191 88.3504 30.6921 76.4318 28.4144 76.9827C25.613 77.6602 24.7208 80.0395 23.0735 79.2175C18.6059 76.9879 21.3277 66.9187 24.4747 66.9815C26.3126 67.0182 28.0772 69.7986 29.5506 68.8372C32.5143 66.903 32.3719 60.1933 32.0504 55.465C27.6394 58.1135 19.8438 57.1469 19.2845 55.8441C18.4091 53.802 20.5988 51.5651 21.7466 50.1618C22.4755 49.2758 20.7214 48.6349 18.8698 48.6485ZM136.189 53.3454C133.441 53.6397 130.5 56.9992 130.962 57.7396C131.791 59.0706 134.613 53.5622 137.289 53.4208C137.102 53.3774 136.912 53.3522 136.72 53.3454C136.539 53.336 136.372 53.3265 136.189 53.3454ZM6.97528 54.3308C6.80071 54.313 6.6394 54.4257 6.59618 54.5958C6.43491 55.1184 8.28747 54.2471 7.73244 56.907C7.26851 59.1335 6.49565 63.8492 4.96667 66.794C4.78027 67.1522 4.45038 64.4922 4.09537 64.6346C2.94969 65.0954 1.85113 74.5227 2.61771 75.5071C2.63028 75.5238 3.05755 74.6138 3.18532 75.0526C3.91524 77.5471 2.91513 78.8645 2.95807 85.6978C2.78946 85.0862 1.42805 82.2901 1.32856 83.3865C1.29924 83.7122 2.32868 85.7941 3.10887 86.6445C3.01357 82.9121 4.31005 76.6947 3.37382 74.3331C3.25339 74.0294 2.82507 74.8798 2.69207 75.0149C2.53079 72.0501 2.71615 67.3386 3.94247 65.241C4.18229 64.8315 4.45353 68.0623 4.69963 67.7031C6.35636 65.2829 7.30935 59.81 7.91989 56.8316C8.24454 55.2576 7.48529 54.3602 6.97528 54.3308ZM136.91 54.3685C136.776 54.3858 136.654 54.4536 136.569 54.5581C136.479 54.6649 145.144 63.1381 142.024 68.1953C139.085 72.9581 126.123 73.643 125.015 74.597C129.918 73.6807 140.644 74.1886 143.804 67.7031C146.027 63.1392 138.962 54.1025 136.91 54.3685ZM74.2532 60.7703C73.6636 60.7661 73.1221 60.8698 72.6624 61.2248C74.5254 61.1044 79.0925 63.1224 82.3976 61.5662C78.4641 61.9631 76.0209 60.7839 74.2532 60.7703ZM155.167 60.808C150.897 60.9169 144.461 65.4588 145.47 66.6035C149.245 64.8724 149.375 62.7622 156.834 61.0353C156.339 60.8457 155.779 60.7934 155.167 60.808ZM156.38 61.9066C157.93 64.8085 153.764 72.4334 159.334 69.2938C155.155 70.0719 159.449 62.6428 156.38 61.9066ZM121.719 66.15C114.947 66.0317 105.369 69.7357 105.279 73.4985C105.223 75.8286 112.994 76.9156 109.862 79.2573C101.886 85.2202 91.0205 82.9833 90.7315 84.4086C95.575 84.4348 105.168 85.0454 111.945 78.9536C114.506 76.6517 106.397 74.5918 106.831 72.8167C107.638 69.5242 118.625 66.0201 124.409 66.4526C123.525 66.2608 122.624 66.1594 121.719 66.15ZM3.75502 66.4903C3.40005 67.6642 3.15911 68.8696 3.03556 70.0897C3.12458 69.209 3.34031 68.3879 3.67962 67.2863C3.77177 67.6371 3.89639 68.0696 4.09642 68.4225C3.88487 67.8769 3.86393 66.9092 3.75502 66.4903ZM122.818 67.5889C121.588 67.5795 119.822 67.8245 117.856 67.8916C122.839 67.8539 123.949 67.3114 121.265 72.2481C119.143 76.1511 125.521 75.7469 127.136 75.6568C125.423 75.5867 121.682 74.795 123.272 72.0962C125.475 68.3618 124.866 67.6046 122.818 67.5889ZM82.5107 68.1576C78.8254 68.2769 76.4011 71.6396 74.0636 72.2491C76.422 73.665 79.6967 67.8842 85.2764 68.6498C84.3988 68.2949 83.4568 68.1273 82.5107 68.1576ZM143.879 69.3315C140.192 70.8898 144.853 85.2674 149.144 82.4C144.255 80.4207 144.38 74.7395 143.879 69.3315ZM83.2301 69.4457C83.1409 69.4504 83.0522 69.463 82.9652 69.4834C85.2125 72.5539 89.7083 78.2571 87.3206 83.6881C81.0539 83.5646 65.7737 87.1817 62.6979 89.559C58.2744 92.9803 66.8429 95.2005 65.3495 96.7567C62.5523 99.6722 54.3462 100.274 49.288 98.4239C52.192 100.893 63.8132 100.383 66.335 96.7567C67.7393 94.7355 59.885 92.8871 62.5848 90.3926C65.5862 87.6195 80.3952 84.1699 88.5333 84.483C88.6485 84.1091 89.1868 83.7122 89.5565 82.7781C91.187 78.6635 86.2524 69.9379 83.4951 69.4446C83.404 69.4289 83.3202 69.4373 83.2301 69.4457ZM154.751 75.5437C152.372 75.6558 149.676 81.1538 148.729 81.3769C151.526 82.8524 153.055 75.8998 155.736 75.8841C155.416 75.6516 155.092 75.528 154.751 75.5437ZM155.131 76.5669C154.549 78.2833 158.366 79.3725 156.418 86.4539C154.476 86.6131 151.807 85.9062 149.448 88.7264C148.71 89.6092 146.139 99.9486 150.244 103.917C144.707 109.553 134.546 110.404 133.31 111.227C132.542 112.791 145.562 110.212 150.356 105.091C151.732 103.622 162.908 93.8977 164.032 94.637C164.666 95.0528 162.09 101.779 162.668 102.857C163.24 103.924 168.625 98.4019 169.714 96.0005C167.804 98.7757 164.096 102.675 163.881 101.758C163.323 99.3768 166.441 93.0641 163.919 93.8411C161.397 94.6182 153.454 100.71 151.608 102.705C149.739 102.203 149.022 93.0693 150.812 89.2197C152.091 86.4665 157.251 88.5358 158.008 86.2277C159.312 82.2555 157.663 77.1774 155.131 76.5669ZM11.0669 82.2869C10.0196 82.2576 9.09804 82.6461 8.68019 83.7646C8.11573 85.2747 10.7527 88.8636 9.43839 90.3182C7.99948 91.909 6.11236 91.8105 3.71836 88.916C4.37394 90.3706 7.29678 92.708 9.93164 90.469C11.713 88.9558 8.40791 85.7742 9.13574 83.7646C9.90756 81.6345 12.9812 82.6702 14.7039 84.0683C16.9262 85.8706 13.5268 87.5807 13.9834 89.6365C15.0977 94.6517 26.389 94.9292 28.871 94.2579C27.3462 99.513 28.3683 110.234 36.9023 106.948C29.7842 109.366 27.8541 99.8586 29.8177 93.6149C25.1397 94.9533 15.1595 93.7605 14.5521 89.8648C14.0504 86.6445 18.2645 85.8004 14.3625 83.4253C13.3205 82.7896 12.1141 82.3162 11.0669 82.2869ZM100.921 84.7113C100.379 84.7773 99.0351 84.9951 98.0046 85.0516C96.6296 85.127 90.7043 85.2988 90.655 85.4684C90.5493 85.8339 96.1122 85.3553 97.4747 85.3166C98.835 85.2789 100.857 84.8862 101.148 84.7102C101.198 84.683 101.102 84.6893 100.921 84.7113ZM84.1014 85.3553C83.5495 85.3763 83.028 85.4423 82.5107 85.5072C84.5088 85.5784 85.7561 85.4381 86.5645 85.6967C86.4294 88.1002 82.34 100.784 93.7235 100.735C85.1769 98.7317 87.5845 91.1194 87.927 85.5072C87.4055 85.4234 85.7582 85.2925 84.1014 85.3553ZM3.26281 88.2342C2.5643 90.9392 3.12039 98.1296 4.47552 99.7497C5.16146 100.57 5.2777 98.1254 6.59618 99.9392C7.98482 101.847 9.05929 107.012 8.03614 109.599C9.86671 107.526 8.45922 102.94 7.35438 100.243C5.81913 96.4969 4.3111 100.554 3.94561 98.1212C3.56442 95.5963 2.72244 92.441 3.26281 88.2342ZM47.1673 90.8481C46.5275 90.8324 45.8311 90.8607 45.0456 90.8858C48.5664 91.1958 49.4901 91.3079 49.4775 92.552C49.4597 94.4087 44.7964 97.5588 47.1286 99.3329C49.2293 100.93 49.8284 100.328 55.1976 101C49.7435 99.9874 47.8983 99.7895 48.0763 97.8563C48.2565 95.8906 51.4359 93.8495 50.8034 92.3258C50.3457 91.2209 49.0859 90.8932 47.1673 90.8481ZM41.4861 90.8858C37.7977 90.9455 34.0789 91.3728 31.2577 92.6661C29.6836 97.9275 28.7642 104.843 33.7574 106.492C36.3849 107.36 38.7957 103.731 41.3332 104.257C45.5933 105.139 47.6826 111.591 45.121 115.697C48.6576 113.141 46.8542 103.663 40.7268 103.575C37.5704 103.529 35.1042 106.718 33.681 105.961C30.0544 104.036 30.5351 97.3965 31.7111 92.93C35.3398 91.5864 37.2479 91.1235 45.121 90.9235C43.9099 90.8809 42.6978 90.8683 41.4861 90.8858ZM173.502 93.8778C170.719 95.2727 170.582 100.693 171.95 103.689C171.081 100.757 171.07 95.9272 173.502 93.8778ZM103.384 94.7124C99.3147 94.68 96.9228 98.9077 92.8155 99.4847C96.5133 101.413 100.001 94.8109 105.24 95.0151C104.64 94.8238 104.014 94.7218 103.384 94.7124ZM89.1795 94.9774C88.8255 95.1156 89.0015 96.4592 89.8602 97.5149C90.7189 98.5715 92.2783 99.3182 92.7401 99.1454C92.9485 99.0658 91.6667 98.2186 90.7702 97.1745C89.8728 96.1294 89.3429 94.9125 89.1795 94.9774ZM104.18 95.811C104.006 95.855 103.886 96.0016 103.839 96.2267C103.71 96.8457 106.407 98.3327 106.34 101.19C106.3 102.857 107.523 106.941 102.779 106.379C97.7459 105.782 91.2457 105.612 90.8467 113.804C90.7085 116.649 89.922 118.731 92.1725 121.948C86.2336 122.799 69.174 125.517 68.0797 128.123C66.8356 131.084 73.2342 131.958 72.5116 133.009C71.6068 134.324 64.1054 135.183 57.4732 134.221C58.7173 136.582 71.1847 136.46 74.293 133.236C75.5109 131.973 68.7625 130.509 69.7092 128.425C70.9146 125.774 91.5012 122.696 94.7875 122.78C91.4112 118.312 92.472 115.631 92.7035 113.803C93.3496 108.72 94.6461 106.464 100.583 107.06C105.39 107.543 108.219 108.031 108.273 101.34C108.295 98.6134 105.567 95.8749 104.371 95.8099C104.301 95.8068 104.237 95.7953 104.18 95.811ZM7.39208 103.689C8.02881 107.532 7.9555 109.426 6.44538 106.493C5.87987 105.395 4.77503 103.835 4.77922 105.508C5.85264 104.416 7.2905 109.832 7.73348 108.35C8.36916 106.218 7.81622 103.689 7.39208 103.689ZM132.212 103.727C126.621 103.737 115.928 107.862 114.104 111.568C113.076 113.657 120.594 115.156 118.574 116.645C109.804 123.114 96.8076 121.367 96.8683 122.669C100.076 123.109 114.58 122.231 120.582 116.228C122.251 114.559 115.063 112.806 116.454 110.926C118.964 107.531 129.391 103.987 135.092 104.41C134.519 103.918 133.502 103.725 132.212 103.727ZM152.326 103.992C150.281 105.878 154.625 111.224 151.834 114.675C149.372 117.718 144.848 114.967 142.212 119.372C140.367 122.457 139.26 128.493 144.448 127.743C141.665 125.914 142.05 122.708 143.804 119.826C146.397 115.563 150.47 118.857 153.01 115.052C154.873 112.26 154.892 107.115 152.326 103.992ZM133.159 104.827C132.997 104.848 132.862 104.973 132.781 105.242C131.65 108.994 129.863 109.585 129.901 111.456C129.926 112.609 130.614 112.848 133.084 112.439C132.115 112.223 131.753 111.431 131.796 110.887C131.921 109.285 133.442 107.758 134.183 106.001C134.348 105.606 133.646 104.761 133.159 104.827ZM41.3719 105.015C44.3094 109.282 44.678 112.888 42.6977 114.902C41.6683 115.949 36.2666 111.047 33.8339 113.16C30.1989 116.315 32.0274 124.341 35.0466 127.252C30.756 127.658 23.9154 126.28 21.1057 123.047C19.9234 121.686 22.5446 120.446 21.4084 118.729C19.9223 116.479 11.757 112.9 11.2564 114.788C11.1737 115.102 11.2847 115.542 11.446 116C11.3779 115.738 11.3915 115.549 11.5214 115.432C13.2577 113.854 18.7798 117.65 21.068 119.068C22.2838 119.823 19.6867 122.395 20.6889 123.349C24.0107 126.513 30.2073 128.873 36.4478 127.555C33.3197 123.924 31.4964 117.527 34.2507 114.297C35.9367 112.319 41.019 116.719 43.6078 115.584C46.6458 114.252 44.9032 105.651 41.3719 105.015ZM38.3789 106.266C38.0595 106.432 37.7327 106.588 37.4322 106.721C37.7401 106.593 38.0521 106.436 38.3789 106.266ZM5.57407 106.303C4.95306 111.492 8.79434 119.778 13.3017 121.645C16.4727 122.959 13.2702 119.36 11.9382 117.062C13.0283 119.12 14.9594 121.504 14.173 121.342C9.77246 120.435 5.82122 112.922 5.57407 106.303ZM98.99 107.743C98.5167 107.758 98.1868 107.814 98.1952 107.895C98.2256 108.247 103.296 108.72 103.27 108.273C103.251 107.917 100.412 107.698 98.99 107.743ZM35.3482 114.486C33.437 114.629 33.5501 124.466 36.94 126.987C38.3653 128.048 53.6319 125.253 59.8955 128.882C55.762 124.345 40.9781 126.789 37.5453 126.268C34.1114 125.746 33.7438 114.319 35.5377 114.525C35.4717 114.507 35.41 114.481 35.3482 114.486ZM13.1498 115.698C10.3987 115.64 15.8025 120.984 15.3469 122.63C16.9188 120.364 11.846 116.987 13.1498 115.698ZM19.2489 118.729C20.402 119.971 16.9105 121.979 20.9916 124.789C17.8708 121.282 22.7164 119.991 19.2489 118.729ZM152.592 121.039C149.557 120.976 146.84 125.16 144.598 127.479C147.366 125.443 149.906 122.296 153.197 121.114C152.998 121.07 152.796 121.045 152.592 121.039ZM151.91 122.062C151.856 122.061 151.804 122.094 151.758 122.138C150.672 123.168 153.128 127.641 150.659 131.495C147.466 135.199 139.377 138.656 134.523 140.625C137.961 140.483 147.018 135.948 149.599 133.351C148.163 137.487 146.085 140.797 148.917 140.436C146.571 139.714 149.951 134.718 150.887 132.14C154.634 129.662 156.744 126.818 160.32 123.616C158.105 125.245 154.385 129.31 152.175 130.397C154.204 126.884 152.713 122.074 151.91 122.062ZM162.062 122.82C156.613 132.863 160.309 128.249 164.41 123.048C160.62 126.508 157.079 133.116 162.062 122.82ZM96.1866 123.54C95.7321 123.691 95.2294 124.491 95.4294 124.751C97.0589 126.871 99.2194 130.351 99.1419 131.305C98.6099 137.739 94.4335 135.399 90.0874 134.942C87.1311 134.63 83.0196 136.175 82.7767 138.73C82.4133 142.546 85.7571 145.559 88.0055 144.905C85.3811 143.192 84.2313 141.147 84.6711 138.692C85.3016 135.18 91.9128 135.671 94.5958 136.154C98.7136 136.894 100.779 133.601 100.961 131.001C101.075 129.338 98.9063 126.51 96.6044 123.652C96.4871 123.509 96.3374 123.489 96.1866 123.54ZM38.4166 128.199C37.9422 128.749 43.3418 133.468 42.6967 137.896C45.0749 134.941 38.8606 127.684 38.4166 128.199ZM55.6154 128.236C57.1381 129.51 56.7286 130.137 55.7673 131.001C53.389 133.14 53.2885 134.061 57.2072 135.245C54.7378 133.19 56.116 132.724 57.1318 131.797C58.8922 130.19 58.7456 128.418 55.6154 128.236ZM36.9023 128.502C36.5305 128.209 41.5971 134.851 40.2733 137.669C39.4586 139.403 32.7196 133.646 31.0681 135.851C30.2879 136.892 33.0044 141.482 35.5388 143.579C32.8055 140.651 30.4932 137.121 31.7886 136.229C33.7899 134.853 39.0711 140.578 41.1834 138.465C43.5952 136.048 38.5067 129.764 36.9023 128.502ZM155.055 134.146C153.935 134.064 150.842 138.051 149.448 139.829C151.038 138.109 154.077 134.819 154.448 134.904C154.777 134.98 154.24 136.557 153.804 137.177C151.397 140.599 147.665 141.952 145.545 144.753C144.016 146.637 142.229 148.365 142.099 150.701C142.387 149.033 144.519 146.563 145.887 145.055C148.754 141.706 151.254 140.452 153.765 137.746C154.8 136.631 155.647 134.536 155.242 134.223C155.189 134.177 155.124 134.151 155.055 134.146ZM136.076 135.131C130.23 135.208 117.906 140.936 118.499 142.934C118.806 143.968 122.365 144.47 121.492 145.358C117.692 149.217 105.218 150.006 104.028 151.04C110.925 150.503 120.065 148.399 123.802 144.715C124.562 143.966 119.766 143.093 120.317 142.213C121.136 140.905 130.913 135.904 137.137 135.167C136.81 135.121 136.466 135.127 136.076 135.131ZM135.962 135.964C135.28 135.673 128.365 144.096 134.067 141.116C131.696 140.81 137.442 136.598 135.962 135.964ZM32.4316 137.48C33.7365 141.74 36.541 145.293 40.2356 143.693C42.3856 142.761 49.7886 147.169 51.1835 152.141C50.9646 147.909 44.2173 142.123 40.1602 143.01C36.0299 143.914 36.2394 142.873 32.4316 137.48ZM23.6809 140.625C22.9593 140.657 26.3346 143.132 28.0374 145.246C28.3118 145.587 26.3859 144.17 25.878 144.109C26.3492 144.581 29.2627 146.342 28.9464 145.739C28.2447 144.4 23.8673 141.268 24.5522 141.344C25.8926 141.496 36.4624 146.713 33.8328 147.634C37.4364 146.662 26.9535 141.758 24.2485 140.776C23.9636 140.672 23.7845 140.619 23.6809 140.625ZM98.1187 141.079C95.0493 141.324 92.0971 143.38 89.1407 144.374C91.8374 145.192 95.3833 141.046 101.225 141.57C100.242 141.165 99.1783 140.997 98.1187 141.079ZM99.3304 142.518C99.1094 142.549 98.9293 142.671 98.7628 142.858C100.343 144.394 101.963 145.458 102.247 148.048C102.46 149.22 101.921 149.952 101.376 150.89C102.01 151.219 102.313 150.952 102.967 150.965C103.804 149.874 104.197 148.544 103.953 147.481C103.506 145.54 100.878 142.292 99.3304 142.518ZM43.7575 145.055C51.7071 153.785 52.1208 156.517 34.0601 148.429C46.8573 157.101 57.2051 155.718 43.7575 145.055ZM32.6966 145.965C32.6327 145.948 32.5793 145.971 32.507 146.002C32.0735 146.197 31.9907 147.477 33.0746 147.973C33.3511 147.277 33.1385 146.082 32.6966 145.965ZM99.2173 151.079C92.3516 151.399 80.9168 153.951 77.5478 155.133C75.2857 155.927 82.4541 158.216 81.1849 158.466C76.2126 159.444 74.0291 159.344 68.4944 158.77C71.3659 159.71 79.7669 160.135 83.0783 158.542C84.7046 157.761 77.7604 156.138 79.1762 155.625C85.2639 153.418 92.5883 152.793 101.829 151.117C100.96 151.052 100.088 151.04 99.2173 151.079ZM140.432 151.95C137.422 152.427 124.93 162.117 133.197 155.245C122.988 163.017 138.98 152.06 140.926 151.988C140.817 151.929 140.633 151.919 140.432 151.95ZM101.831 152.178C99.5618 152.278 99.3471 154.687 99.3691 156.383C99.3932 158.236 101.414 159.559 104.18 158.922C102.268 158.134 101.352 157.856 101.225 155.93C101.109 154.159 101.386 153.529 102.287 152.179C102.115 152.163 101.982 152.171 101.831 152.178ZM53.7964 153.427C52.2883 153.444 51.3406 153.505 51.372 153.618C51.5385 154.22 64.4856 153.488 70.9942 156.081C67.8524 153.931 58.3204 153.382 53.7964 153.427ZM49.4409 154.414C49.3756 154.411 49.3107 154.424 49.2513 154.451C48.1287 154.982 51.3615 158.942 54.365 160.247C50.8788 157.831 50.286 154.452 49.4409 154.414ZM51.0694 154.754C52.88 158.76 54.8122 161.002 59.4787 160.74C62.5848 160.565 66.5162 161.068 68.8358 163.429C66.7298 160.839 63.5933 160.042 58.5697 160.095C55.1054 160.13 52.3679 157.054 51.0694 154.754ZM114.9 154.754C112.022 154.746 106.428 158.289 104.71 158.429C107.06 159.367 110.759 155.504 115.923 154.982C115.642 154.815 115.311 154.755 114.9 154.754ZM132.022 155.019C128.855 155.597 120.807 158.328 118.272 160.852C117.908 161.214 120.241 161.104 119.901 161.383C116.919 163.826 106.954 164.865 104.785 166.346C103.82 167.006 107.028 167.064 106.188 167.52C103.912 168.753 97.5637 168.267 95.5813 169.983C97.1595 169.12 106.256 168.216 107.249 167.407C107.923 166.857 104.739 166.391 105.733 166.08C109.518 164.897 118.008 163.859 121.227 161.042C121.863 160.485 118.194 161.016 119.978 160.057C123.684 158.061 128.953 155.971 131.569 155.36C132.262 155.199 129.502 156.975 128.803 157.86C129.668 157.34 132.849 154.868 132.022 155.019ZM66.8282 155.511C68.8515 156.95 62.9472 158.211 67.6618 159.337C65.8909 157.281 71.7733 156.222 66.8282 155.511ZM114.862 155.966C114.456 155.94 113.977 156.051 113.46 156.307C115.927 157.219 114.123 160.196 111.605 160.284C109.073 160.373 107.037 160.172 104.749 161.308C102.638 162.355 101.298 163.905 102.021 166.12C97.7721 166.69 89.5659 167.86 86.6787 168.505C86.2462 168.603 86.8986 168.796 87.5877 168.961C87.3133 168.776 87.6537 168.517 87.9657 168.43C90.7085 167.663 99.1953 166.926 104.028 166.308C103.612 165.293 103.086 164.128 104.444 162.671C105.883 161.131 108.203 160.9 111.452 160.74C113.296 160.648 115.143 159.723 116.148 158.087C116.712 157.174 116.082 156.044 114.862 155.966ZM64.2897 161.421C65.3883 162.267 67.2042 163.996 66.2219 164.035C63.9399 164.128 56.9182 161.918 57.9256 163.277C61.7952 168.499 74.0259 167.259 80.5408 168.618C75.0491 167.105 62.7901 168.043 59.3268 163.807C57.6041 161.699 66.9235 165.74 67.7362 164.376C68.2169 163.569 65.4836 162.048 64.2897 161.421Z" fill="url(#RadialGradient_WikiWhite_2)" fill-rule="nonzero" opacity="1" stroke="none"/><path d="M122.249 6.75155C120.917 7.22909 120.367 7.2092 119.749 7.92551C120.13 8.42085 121.275 8.88792 121.87 9.21361C126.482 11.7406 125.61 11.4757 123.649 13.2675C127.304 11.4736 124.57 10.6546 121.983 9.21361C120.791 8.55071 120.845 8.56014 119.976 7.92551C120.576 7.45111 121.226 7.13275 122.249 6.75155ZM106.794 10.9562C106.674 10.9562 106.73 11.0232 106.415 11.0693C107.942 12.4391 112.763 19.0315 115.166 17.5853C112.406 17.7622 109.383 13.2916 106.794 10.9562ZM134.75 12.6224C135.333 13.39 135.206 13.6047 134.94 13.8351C136.327 14.0194 135.135 12.9617 134.75 12.6224ZM119.181 16.1463C121.389 16.7642 123.007 17.9005 124.445 19.6316C125.521 20.926 126.344 22.4465 125.583 23.6467C127.755 22.4591 126.102 20.8903 124.559 19.176C122.958 17.3988 121.162 16.5087 119.181 16.1463ZM118.347 16.449C117.62 17.1308 116.641 18.2209 116.908 18.4566C117.597 19.0661 118.372 17.7235 118.347 16.449ZM120.128 23.2299C119.559 23.2246 120.112 25.7548 121.112 27.6618C122.546 30.3972 124.672 33.0478 126.414 34.1013C126.359 33.828 126.487 33.5735 126.68 33.3808C122.738 29.8306 123.158 28.996 121.603 26.7518C120.056 24.518 120.981 23.6362 120.24 23.2665C120.194 23.2435 120.165 23.2299 120.128 23.2299ZM150.736 25.2762C151.136 26.4177 150.073 26.3538 149.297 26.4124C153.74 30.7208 156.628 34.1348 156.95 35.9968C156.666 33.3064 152.396 29.2065 149.979 26.6784C151.236 26.5434 150.984 25.4867 150.736 25.2762ZM147.555 26.071C144.415 28.1456 143.511 28.9541 145.092 30.3899C143.999 29.0798 145.48 27.6272 147.555 26.071ZM139.03 30.9575C142.13 32.1869 139.935 36.9152 142.402 36.4502C140.684 35.4753 143.1 31.9963 139.03 30.9575ZM134.561 31.1847C128.727 33.0163 125.955 36.778 122.856 37.7761C124.313 37.3907 126.133 36.3539 127.629 35.1621C129.711 36.3212 131.399 38.0756 132.478 40.2004C133.721 42.6468 135.771 46.0178 133.122 47.7008C136.582 46.0189 135.547 43.4605 133.577 40.1627C132.373 38.1489 130.425 36.2377 128.69 34.6699C130.617 33.3808 132.181 32.476 134.561 31.1847ZM146.115 31.2601C149.463 33.5483 149.512 35.3391 146.455 37.3593C150.948 34.7736 148.894 33.1567 146.115 31.2601ZM108.952 32.4728C112.183 34.7328 106.683 38.2159 110.733 38.4578C108.455 37.0943 114.014 33.4991 108.952 32.4728ZM78.8369 32.6624C76.4639 39.8915 78.1353 43.5495 80.5795 46.4514C82.6531 48.9135 86.8159 54.9707 83.3453 59.7859C80.8277 63.2785 75.5811 58.5303 71.9053 60.9599C68.4588 63.2376 69.1458 68.146 71.8298 71.4155C76.3372 76.9052 81.5179 66.659 84.7476 69.6352C90.5419 74.974 91.1745 81.2596 88.9533 84.7123C88.0411 86.1272 87.351 91.2764 87.8537 94.371C88.3564 97.4656 90.0749 98.494 93.0449 100.395C96.5741 102.653 100.425 97.297 104.144 95.811C107.339 94.5334 112.387 105.239 105.508 107.744C113.06 108.709 110.841 93.8275 104.182 95.1292C99.3859 96.0676 96.4798 101.641 92.2112 99.6376C87.0724 97.2248 87.8799 89.8365 88.991 85.4328C100.024 84.2924 108.827 85.5239 114.106 78.652C115.841 76.3931 106.75 73.8441 108.765 72.2502C110.859 70.5934 116.812 68.301 116.871 68.2728C112.925 68.9744 111.217 69.1043 107.778 72.0983C105.36 74.2064 114.227 76.5156 112.513 78.5378C107.6 84.3416 98.2821 84.9637 90.2016 84.4474C91.5724 78.9253 91.1535 74.9049 86.1467 69.9012C82.1085 65.8631 76.5131 74.7897 73.5704 72.2125C69.882 68.9817 69.8579 64.0398 71.4487 61.8322C74.0657 58.2035 80.5356 63.9047 84.6303 60.0519C88.0328 56.8515 83.7569 50.6425 81.9033 46.6043C84.1925 46.3153 86.9939 46.0168 89.745 45.6199C86.3519 45.9519 82.9819 45.8985 80.9555 45.9613C78.5657 41.344 77.4902 38.174 78.8369 32.6624ZM101.755 33.1933C99.1314 34.0207 99.2141 33.673 96.3761 35.2009C92.5652 37.2514 101.516 38.7688 100.089 41.2623C99.0738 43.0311 97.0464 44.1045 94.6335 44.7852C97.3427 44.2166 99.6289 43.4793 100.732 42.5504C104.547 39.3375 93.0784 36.7676 97.0568 35.0878C98.6266 34.4238 99.4529 33.9987 101.755 33.1933ZM94.6346 44.7842C93.137 45.0984 91.5138 45.3769 89.8602 45.6167C91.5054 45.4523 93.1349 45.2073 94.6346 44.7842ZM154.296 35.958C153.805 35.9549 155.414 39.4077 156.304 40.5408C156.967 41.3859 158.826 43.8281 158.955 43.4961C159.033 43.2992 157.271 41.2843 156.418 40.1627C155.46 38.9018 154.551 35.9601 154.296 35.958ZM160.206 41.9818C160.302 44.2522 160.144 44.1161 159.751 44.7465C160.815 45.2617 160.66 43.1222 160.206 41.9818ZM161.911 42.7766C162.894 44.0951 163.777 45.577 164.487 46.9059C163.83 45.4429 163.041 44.181 161.911 42.7766ZM164.487 46.9436C164.988 48.0621 165.452 49.2873 165.964 50.7692C166.225 50.6592 165.573 48.9773 164.487 46.9436ZM125.923 47.7772C124.46 48.1259 124.869 54.8639 129.976 57.3616C123.863 52.2782 127.744 48.2904 126.263 47.8149C126.155 47.7738 126.038 47.7608 125.923 47.7772ZM166.76 52.2856C166.741 52.3065 166.703 52.3023 166.685 52.3233C167.241 54.0816 167.806 55.797 168.238 57.3228C168.679 58.8863 169.579 62.8177 170.623 62.1338C169.554 62.449 168.768 58.9062 168.313 57.1333C167.942 55.6943 167.419 54.268 166.76 52.2856ZM165.812 52.8155C164.987 53.5161 163.995 54.7801 163.843 54.9749C162.32 56.9207 161.775 58.5051 162.555 60.0132C162.036 58.8884 163.008 56.6997 163.881 55.5058C164.77 54.2889 165.182 53.7433 165.812 52.8155ZM138.728 53.7999C138.523 53.7622 138.398 53.8355 138.387 54.0648C138.345 54.8995 144.898 60.386 144.41 66.6412C145.19 65.973 144.75 66.1825 145.244 65.7698C145.63 60.3745 140.16 54.0606 138.728 53.7999ZM135.773 54.7476C134.941 54.7759 131.953 57.9459 132.439 58.1564C132.917 58.3638 136.502 55.2524 135.924 54.7853C135.89 54.7571 135.828 54.7455 135.773 54.7476ZM162.668 60.2404C162.846 60.5315 163.026 60.8248 163.312 61.1117C165.306 63.1088 165.095 63.2732 164.714 64.6723C164.414 65.7719 163.628 66.9375 162.516 68.0822C165.947 64.7865 165.883 62.8208 162.857 60.43C162.787 60.374 162.723 60.3105 162.668 60.2404ZM157.478 61.4908C157.401 61.4841 157.323 61.497 157.251 61.5285C156.848 61.6762 158.283 61.9212 158.047 64.71C157.931 66.0631 157.481 67.9554 157.933 68.6498C158.245 68.5168 157.972 68.434 158.312 68.4979C157.736 66.9846 158.391 65.8327 158.502 64.6336C158.686 62.6156 158.021 61.5777 157.478 61.4908ZM154.032 61.983C153.195 62.1014 149.704 63.9623 144.258 67.968C144.02 76.8455 146.411 81.6209 148.235 81.0376C148.765 80.8679 145.595 79.3159 145.167 68.5744C152.42 62.8114 154.29 62.4459 154.22 62.0207C154.212 61.9673 154.151 61.9652 154.032 61.983ZM171.117 62.6648C170.959 62.7234 170.673 63.2156 170.852 63.4984C171.311 64.2273 171.062 62.8313 171.117 62.6648ZM123.31 66.6799C121.793 66.7825 120.054 67.281 118.726 67.6266C121.34 67.3135 124.87 66.8935 124.939 68.2707C125.034 70.206 122.282 73.1759 123.499 74.2556C126.655 77.056 137.686 75.0966 142.365 71.1118C142.349 70.8783 142.735 70.0677 142.516 70.0133C140.047 72.5895 129.047 77.1712 124.598 74.5216C122.944 73.5362 127.28 70.1442 126.607 68.1953C126.155 66.8935 124.827 66.5773 123.31 66.6799ZM172.594 69.5588C172.566 69.6122 172.57 69.7232 172.556 69.8625C172.57 69.7305 172.566 69.6352 172.594 69.5588ZM172.67 73.3089C172.737 74.22 172.797 75.0484 172.822 75.4306C172.842 75.7647 172.879 76.1532 172.934 76.6046C172.882 76.1648 172.872 75.7542 172.858 75.4306C172.837 74.929 172.743 74.1425 172.67 73.3089ZM156.607 76.1501C156.583 76.1501 156.579 76.1627 156.569 76.1878C156.403 76.6863 158.459 79.4604 158.577 82.2105C158.818 87.7808 156.541 87.6635 156.985 88.0824C157.435 88.5044 159.663 86.3806 159.524 82.2482C159.416 79.0133 156.976 76.147 156.607 76.1501ZM154.486 77.0591C152.998 78.4059 151.715 80.2113 150.471 81.7937C152.668 80.8156 153.631 78.9431 154.486 77.0591ZM173.275 78.764C173.412 79.4698 173.567 80.1055 173.73 80.5443C173.545 79.9599 173.393 79.3655 173.275 78.764ZM172.745 83.3855C171.739 85.7983 170.556 87.4844 169.638 90.1276C169 91.9645 170.609 92.9845 170.622 93.9155C170.63 94.3449 170.514 94.8465 170.282 95.3921C170.428 95.0936 170.578 94.8088 170.736 94.4831C171.07 93.7951 170.186 92.8578 169.79 91.5288C169.346 90.0355 171.915 86.0706 172.745 83.3855ZM154.486 87.8551C153.652 87.8792 152.843 87.9996 152.857 88.1588C152.888 88.5107 156.215 88.606 156.19 88.1588C156.178 87.9211 155.321 87.831 154.486 87.8551ZM152.289 88.2719C150.345 88.1619 149.931 93.1164 149.94 95.3554C149.952 97.9861 150.371 102.002 151.57 102.553C151.695 102.3 152.272 101.947 152.402 101.682C150.686 100.253 151.086 97.6122 150.888 95.545C150.651 93.0892 152.658 88.2929 152.289 88.2719ZM165.585 94.0296C164.955 94.1773 165.496 95.6382 164.903 97.5138C164.413 99.0637 163.494 101.177 164.298 101.568C164.232 100.222 165.075 98.5862 165.472 96.9839C165.867 95.3806 166.2 93.8862 165.585 94.0296ZM173.162 94.5606C171.885 95.5816 171.152 99.6345 171.911 102.174C171.386 99.3915 171.982 95.7366 173.162 94.5606ZM162.631 95.4685C159.261 97.7473 155.376 100.617 152.365 103.462C156.411 109.663 154.5 115.784 149.524 118.198C156.678 115.783 156.652 106.063 153.501 103.008C155.744 100.76 161.785 96.5168 162.631 95.4685ZM30.2722 103.765C32.0745 106.868 33.8873 107.499 35.8791 107.023C38.1495 106.478 40.4231 104.259 41.9406 104.977C44.6937 106.278 46.5421 111.846 44.4791 114.941C42.3406 118.147 38.1014 113.119 34.857 114.07C31.6169 115.018 33.9438 125.679 36.7515 127.668C29.8638 129.212 23.6097 126.244 20.3873 123.463C21.666 127.375 31.7614 130.579 36.9421 128.198C40.0367 131.12 43.5271 136.812 41.1844 138.615C38.9339 140.348 33.3019 135.438 31.9038 136.759C31.0828 137.534 34.8989 143.908 37.6615 144.715C39.5497 145.265 41.3908 143.412 44.0256 145.662C41.9521 143.075 40.7446 144.198 38.2291 144.222C34.7994 144.255 31.4535 137.625 32.2065 136.911C33.4851 135.696 39.136 141.696 41.9416 138.843C44.2455 136.502 39.8911 131.168 37.8888 128.008C45.5232 127.742 56.2605 126.395 55.6552 130.735C56.5213 129.914 56.5569 129.256 55.2384 128.047C60.2673 128.278 58.2628 131.39 56.2616 132.706C54.9023 133.6 57.4041 135.35 58.4964 135.736C62.6853 137.218 71.4822 136.947 75.9602 133.805C77.22 132.92 69.6903 129.516 70.7323 128.88C76.6084 125.291 87.6495 124.764 94.4859 123.388C88.3145 123.957 76.422 125.068 70.127 128.464C68.6965 129.236 76.1173 132.218 74.7862 133.463C72.8687 135.26 67.6178 136.186 63.2697 136.04C58.9226 135.893 55.2971 134.419 57.1329 133.123C66.69 126.361 48.2282 127.006 37.5107 127.555C33.8255 125.51 32.4201 115.315 34.8591 114.562C37.8647 113.634 42.6307 118.617 45.2771 115.017C47.603 111.854 45.6897 105.58 41.4504 104.448C39.5633 103.944 37.4929 106.056 35.655 106.607C33.1772 107.348 31.6902 105.473 30.2722 103.765ZM151.228 104.409C147.37 109.126 140.769 111.255 137.326 111.947C145.05 110.922 148.951 107.205 151.494 105.053C151.578 104.166 151.389 104.556 151.228 104.409ZM134.219 104.713C136.128 105.614 131.412 110.749 132.174 110.849C132.882 110.944 137.495 105.606 134.219 104.713ZM129.635 105.545C125.222 106.446 120.7 107.726 117.589 110.318C114.309 113.051 123.667 114.059 121.037 116.455C114.711 122.218 105.35 122.532 96.906 123.501C99.7168 127.074 102.038 129.414 100.732 133.35C98.6612 139.594 90.0906 133.877 85.8817 137.403C83.3924 139.489 85.4 143.594 88.5721 144.45C86.6912 142.971 83.8281 139.847 86.0336 137.934C89.9482 134.538 99.565 139.536 102.02 133.918C103.12 131.403 99.6529 125.997 98.3826 124.032C106.877 123.419 116.272 121.466 122.439 116.039C124.048 114.622 115.587 112.525 118.007 110.66C121.812 107.728 127.905 106.001 129.635 105.545ZM96.4138 107.895C95.9248 107.844 95.4221 108.322 94.9372 109.107C95.376 108.615 95.8536 108.2 96.4138 107.895ZM94.8608 109.22C91.873 112.705 91.851 119.983 95.8075 122.781C92.0981 119.056 93.1642 112.112 94.8608 109.22ZM145.888 118.237C143.059 119.256 141.378 125.485 143.993 127.138C144.421 125.596 142.555 122.53 145.888 118.237ZM153.236 121.607C153.172 121.611 153.104 121.652 153.045 121.721C152.275 122.64 154.693 125.774 152.477 130.129C155.505 128.428 154.18 121.548 153.236 121.607ZM162.858 122.478C162.657 122.368 160.88 126.296 159.826 128.008C161.102 126.327 163.001 122.559 162.858 122.478ZM150.925 122.63C148.94 124.006 146.998 126.263 144.94 127.707C148.1 126.199 149.401 124.095 150.925 122.63ZM160.661 123.805C157.55 126.425 154.435 129.987 151 132.214C150.163 134.437 147.211 139.094 148.841 140.017C148.228 138.831 149.989 134.598 151.303 132.365C154.245 129.834 158.575 126.084 160.661 123.805ZM149.259 133.843C145.091 137.244 141.734 138.73 135.129 141.231C139.949 139.613 143.924 138.419 149.07 134.298C149.154 134.064 149.117 134.141 149.259 133.843ZM155.585 133.918C155.393 133.888 156.616 135.711 151.343 140.244C155.205 137.669 156.882 134.132 155.585 133.918ZM136.985 135.473C136.843 135.496 136.704 135.534 136.569 135.585C138.224 135.426 134.479 139.075 133.803 140.625C135.449 139.234 138.804 135.117 136.985 135.473ZM154.108 135.473C153.378 135.765 149.613 139.788 149.637 139.866C149.676 139.985 154.468 135.701 154.184 135.473C154.163 135.456 154.156 135.452 154.108 135.473ZM135.053 136.116C131.433 137.126 123.417 139.324 120.923 142.214C120.281 142.959 125.108 143.807 124.181 144.716C119.203 149.584 107.756 151.186 103.082 151.306C101.648 153.941 100.276 157.792 104.065 158.466C101.412 157.03 102.966 153.982 103.61 151.95C106.853 151.306 120.528 149.981 125.204 144.488C126.295 143.204 120.879 143.358 121.452 142.443C122.869 140.18 130.394 137.727 135.053 136.116ZM100.468 142.026C105.996 146.91 104.493 149.264 103.687 150.738C104.858 150.158 104.87 150.163 105.847 149.601C106.487 146.404 103.133 143.077 100.468 142.026ZM98.2706 142.178C95.1299 142.406 93.0291 144.868 88.7239 145.397C93.6502 145.553 95.4996 142.931 98.8759 142.178C98.656 142.171 98.479 142.161 98.2706 142.178ZM148.085 143.161C147.551 143.172 144.226 146.914 142.516 149.943C144.89 146.289 148.242 143.523 148.161 143.237C148.151 143.204 148.12 143.161 148.085 143.161ZM100.316 152.102C93.3307 152.735 84.5496 154.061 79.5176 155.702C78.4369 156.055 84.7643 158.008 83.7223 158.467C80.4287 159.917 74.5391 160.315 70.0097 159.452C73.9777 160.281 81.7807 160.675 84.5947 158.695C85.5047 158.053 78.9176 156.05 80.0486 155.739C84.5748 154.494 93.7832 153.09 100.316 152.102ZM133.273 154.64C133.173 154.53 129.379 157.553 129.485 157.784C129.587 158.009 133.511 154.905 133.273 154.64ZM115.733 155.701C115.492 155.704 115.232 155.706 114.938 155.738C117.088 156.435 117.364 158.052 113.953 160.284C112.571 161.189 107.571 160.604 105.088 162.254C103.327 163.427 103.528 166.023 104.331 165.702C104.885 165.481 104.114 163.791 105.543 162.633C108.475 160.258 112.204 161.836 115.202 160.095C117.256 158.903 119.357 155.663 115.733 155.701ZM68.7981 155.738C70.7208 156.515 66.8733 158.131 68.1163 158.921C68.1551 158.319 72.5168 157.01 68.7981 155.738ZM113.423 155.738C113.069 155.677 111.257 156.429 109.445 157.33C108.363 157.868 106.893 158.59 106.035 158.656C105.087 158.728 104.673 158.735 104.634 158.847C105.234 159.239 108.52 158.193 110.619 157.179C112.627 156.21 113.459 155.949 113.499 155.815C113.511 155.771 113.473 155.748 113.423 155.738ZM130.242 155.929C126.633 156.882 122.594 158.848 119.673 160.36C118.913 160.754 121.7 160.383 121.339 160.966C119.894 163.305 105.589 165.822 105.656 166.307C105.691 166.563 107.339 166.726 107.474 167.142C107.682 167.777 105.516 168.109 104.33 168.353C105.978 168.458 108.891 167.196 108.005 166.99C107.086 166.776 106.645 166.364 106.527 166.155C106.272 165.709 119.208 163.664 122.286 160.891C122.682 160.535 120.309 160.427 120.581 160.17C121.58 159.236 129.66 156.211 130.242 155.929ZM68.154 158.958C68.1624 158.981 68.131 159.014 68.154 159.034C68.4148 159.113 68.7122 159.155 68.9876 159.224C68.6944 159.14 68.3562 159.045 68.154 158.958ZM65.8428 161.876C67.0502 162.607 68.8211 164.367 67.8503 164.68C65.5276 165.426 61.3815 163.392 59.5541 163.354C58.6105 163.335 61.0328 165.078 62.168 165.551C61.525 165.228 59.442 163.626 59.9709 163.656C61.8873 163.766 66.3371 165.689 68.6462 164.944C70.0705 164.485 67.709 162.783 65.8428 161.876ZM95.2011 167.482C90.5786 168.013 86.4273 168.549 87.8893 168.884C87.7133 168.526 91.2886 167.974 95.2011 167.482ZM69.3667 167.672C73.5683 168.162 78.2264 168.7 78.307 168.618C78.2201 168.487 73.5054 168.086 69.3667 167.672ZM80.5031 168.921C80.1292 168.964 79.8402 169.287 79.8967 169.3C80.1114 169.35 81.077 169.106 80.8812 168.996C80.7671 168.93 80.634 168.903 80.5031 168.921ZM91.2247 168.996C92.1222 169.464 90.6498 169.706 88.3071 169.831C90.5995 169.739 92.7726 169.553 91.2247 168.996Z" fill="#efefef" fill-rule="nonzero" opacity="1" stroke="#efefef" stroke-linecap="butt" stroke-linejoin="miter" stroke-width="0.147661"/></g></g></svg>