<svg width="100%" height="100%" viewBox="0 0 100 100" xml:space="preserve" xmlns="http://www.w3.org/2000/svg" xmlns:vectornator="http://vectornator.io" xmlns:xlink="http://www.w3.org/1999/xlink">
<defs>
<filter color-interpolation-filters="sRGB" filterUnits="userSpaceOnUse" height="45.5952" id="Filter" width="59.881" x="19.6695" y="58.6147">
<feDropShadow dx="-0.390038" dy="0.459895" flood-color="#000000" flood-opacity="0.5" in="SourceGraphic" result="Shadow" stdDeviation="1.5"/>
</filter>
<filter color-interpolation-filters="sRGB" filterUnits="userSpaceOnUse" height="26.5476" id="Filter_2" width="40.8333" x="29.1933" y="77.6623">
<feDropShadow dx="-0.390038" dy="0.459895" flood-color="#000000" flood-opacity="0.5" in="SourceGraphic" result="Shadow" stdDeviation="1.5"/>
</filter>
<filter color-interpolation-filters="sRGB" filterUnits="userSpaceOnUse" height="76.2786" id="Filter_3" width="55.119" x="22.0504" y="20.7361">
<feDropShadow dx="-0.390038" dy="0.459895" flood-color="#000000" flood-opacity="0.5" in="SourceGraphic" result="Shadow" stdDeviation="1.5"/>
</filter>
<filter color-interpolation-filters="sRGB" filterUnits="userSpaceOnUse" height="14.6429" id="Filter_4" width="26.5476" x="36.3362" y="70.5194">
<feDropShadow dx="-0.390038" dy="0.459895" flood-color="#000000" flood-opacity="0.5" in="SourceGraphic" result="Shadow" stdDeviation="1.5"/>
</filter>
<filter color-interpolation-filters="sRGB" filterUnits="userSpaceOnUse" height="14.6429" id="Filter_5" width="50.3571" x="24.4314" y="44.3289">
<feDropShadow dx="-0.390038" dy="0.459895" flood-color="#000000" flood-opacity="0.5" in="SourceGraphic" result="Shadow" stdDeviation="1.5"/>
</filter>
<filter color-interpolation-filters="sRGB" filterUnits="userSpaceOnUse" height="17.0238" id="Filter_6" width="59.8786" x="19.6719" y="39.567">
<feDropShadow dx="-0.390038" dy="0.459895" flood-color="#000000" flood-opacity="0.5" in="SourceGraphic" result="Shadow" stdDeviation="1.5"/>
</filter>
<filter color-interpolation-filters="sRGB" filterUnits="userSpaceOnUse" height="107.5" id="Filter_7" width="107.5" x="-4.14004" y="-3.2901">
<feDropShadow dx="-0.390038" dy="0.459895" flood-color="#000000" flood-opacity="0.5" in="SourceGraphic" result="Shadow" stdDeviation="1.5"/>
</filter>
</defs>
<g opacity="1" layerName="Raven">
<path d="M76.1905 61.9048L23.8095 61.9048L23.8095 100L76.1905 100L76.1905 61.9048Z" fill="#a31616" filter="url(#Filter)" layerName="path 3" shadowAngle="2.27419" shadowColor="#000000" shadowOffset="0.60302" shadowOpacity="0.5" shadowRadius="3"/>
<path d="M50 80.9524L66.6667 80.9524L66.6667 100L33.3333 100L33.3333 80.9524L50 80.9524Z" fill="#1565c0" filter="url(#Filter_2)" layerName="path 4" shadowAngle="2.27419" shadowColor="#000000" shadowOffset="0.60302" shadowOpacity="0.5" shadowRadius="3"/>
<path d="M51.0429 24.2262L72.0476 25.4857C73.1119 25.9119 73.8095 26.9429 73.8095 28.0905L73.8095 65.9548C73.8095 73.8619 69.9524 81.2738 63.4738 85.8071L56.3238 90.8119C52.5262 93.469 47.4738 93.469 43.6762 90.8119L36.5262 85.8071C30.0476 81.2714 26.1905 73.8619 26.1905 65.9548L26.1905 28.0905C26.1905 26.9429 26.8881 25.9119 27.9548 25.4857L48.9595 24.2262C49.6262 23.9595 50.3738 23.9595 51.0429 24.2262Z" fill="#1976d2" filter="url(#Filter_3)" layerName="path 5" shadowAngle="2.27419" shadowColor="#000000" shadowOffset="0.60302" shadowOpacity="0.5" shadowRadius="3"/>
<path d="M47.619 73.8095C49.4048 73.8095 50 76.1905 50 76.1905C50 76.1905 50.1 73.8095 52.381 73.8095C54.6619 73.8095 59.5238 76.1905 59.5238 76.1905C59.5238 76.1905 54.2857 80.9524 50 80.9524C45.7143 80.9524 40.4762 76.1905 40.4762 76.1905C40.4762 76.1905 45.8333 73.8095 47.619 73.8095Z" fill="#bf360c" filter="url(#Filter_4)" layerName="path 6" shadowAngle="2.27419" shadowColor="#000000" shadowOffset="0.60302" shadowOpacity="0.5" shadowRadius="3"/>
<path d="M42.8571 54.7619C42.8571 54.7619 41.3476 47.619 35.3071 47.619C30.0095 47.619 28.5714 50.7929 28.5714 50.7929C28.5714 50.7929 30.7786 54.7619 34.6119 54.7619C38.4429 54.7619 38.1452 54.7619 42.8571 54.7619ZM57.1429 54.7619C57.1429 54.7619 58.6524 47.619 64.6929 47.619C69.9905 47.619 71.4286 50.7929 71.4286 50.7929C71.4286 50.7929 69.2214 54.7619 65.3881 54.7619C61.5548 54.7619 61.8548 54.7619 57.1429 54.7619Z" fill="#fff8e1" filter="url(#Filter_5)" layerName="path 7" shadowAngle="2.27419" shadowColor="#000000" shadowOffset="0.60302" shadowOpacity="0.5" shadowRadius="3"/>
<path d="M54.7619 52.381C61.1905 49.4048 64.6167 42.8571 69.319 42.8571C74.0214 42.8571 76.1905 50.1476 76.1905 50.1476C76.1905 50.1476 73.8095 46.6143 69.0476 46.6143C64.7619 46.6143 60.119 52.381 54.7619 52.381ZM45.2381 52.381C38.8095 49.4048 35.6548 42.8571 30.9524 42.8571C26.25 42.8571 23.8119 50.1476 23.8119 50.1476C23.8119 50.1476 26.1905 46.6143 30.9524 46.6143C35.2381 46.6143 39.881 52.381 45.2381 52.381Z" fill="#424242" filter="url(#Filter_6)" layerName="path 8" shadowAngle="2.27419" shadowColor="#000000" shadowOffset="0.60302" shadowOpacity="0.5" shadowRadius="3"/>
<path d="M9.52381 64.2857C9.52381 54.7619 7.14286 50 7.14286 38.0952C7.14286 23.8095 19.0476 2.84217e-14 40.4762 2.84217e-14C47.619 2.84217e-14 50 4.7619 50 4.7619C50 4.7619 52.381 2.84217e-14 59.5238 2.84217e-14C80.9524 3.64153e-14 92.8571 23.8095 92.8571 38.0952C92.8571 50 90.4762 54.7619 90.4762 64.2857C90.4762 82.7619 100 78.5714 100 100L73.8095 100C73.8095 100 73.8095 42.1667 73.7857 41.2619C73.6429 33.1667 71.4286 28.5714 66.6667 28.5714C61.9048 28.5714 56.7619 30.9524 50 30.9524C43.2381 30.9524 38.0952 28.5714 33.3333 28.5714C28.5714 28.5714 26.3571 33.1667 26.2143 41.2619C26.1905 42.1667 26.1905 100 26.1905 100L7.10543e-15 100C7.10543e-15 78.5714 9.52381 82.7619 9.52381 64.2857Z" fill="#c62828" filter="url(#Filter_7)" layerName="path 9" shadowAngle="2.27419" shadowColor="#000000" shadowOffset="0.60302" shadowOpacity="0.5" shadowRadius="3"/>
<path d="M49.4976 23.8095L50.5 23.8095C55.2119 23.8095 59.5238 27.1071 59.5238 32.6C59.5238 36.4452 58.019 37.5452 58.019 37.5452C57.869 37.7095 57.719 37.8738 57.5167 38.0405L57.5167 39.1952C57.5167 41.0214 55.4643 41.7 54.7595 41.881L54.7595 43.3762C54.7619 44.4048 53.9286 45.2381 52.8976 45.2381L47.1 45.2381C46.0714 45.2381 45.2381 44.4048 45.2381 43.3738L45.2381 41.881C44.5357 41.7 42.481 41.019 42.481 39.1952L42.481 38.0405C42.281 37.8762 42.131 37.7119 41.9786 37.5452C41.9786 37.5452 40.4738 35.8976 40.4738 32.6C40.4762 27.1071 44.7881 23.8095 49.4976 23.8095ZM55.1119 35.6786C54.7119 34.25 53.5071 33.5357 52.1548 34.0857C51.0524 34.5262 50.65 36.119 51.0024 37.1619C51.4524 38.8095 52.8071 39.469 54.4119 38.9762C55.0119 38.7548 55.7643 37.7667 55.1119 35.6786ZM48.9476 42.6548C49.5 42.6548 49.9 41.6119 50 41.1714C50 41.7214 50.4 42.6548 51.0524 42.6548C51.4524 42.6548 51.7548 42.381 51.7548 41.8857C51.7548 40.8429 50.6524 38.8095 50 38.6429C49.3476 38.9167 48.2452 40.8405 48.2452 41.8857C48.2452 42.381 48.5452 42.6548 48.9476 42.6548ZM45.6381 38.9738C47.1929 39.5238 48.5452 38.8095 49.0476 37.1619C49.3476 36.0071 48.9476 34.4143 47.8452 34.0857C46.5929 33.6452 45.2881 34.25 44.9381 35.6786C44.2857 37.7667 44.9381 38.7 45.6381 38.9738Z" fill="#fafafa" opacity="0" layerName="path 10"/>
</g>
</svg>