<svg width="100%" height="100%" viewBox="0 0 100 100" version="1.1" xml:space="preserve" xmlns="http://www.w3.org/2000/svg" xmlns:xlink="http://www.w3.org/1999/xlink"><defs><linearGradient gradientTransform="matrix(0.718328 52.578 -47.6279 0.718328 50.546 5.53721)" gradientUnits="userSpaceOnUse" id="LinearGradient_YoutubePlaylist" x1="0" x2="1" y1="0" y2="0"><stop offset="0" stop-color="#db6569"/><stop offset="1" stop-color="#db6569" stop-opacity="0"/></linearGradient><linearGradient gradientTransform="matrix(18.7387 -28.6379 37.7764 24.9704 13.0238 101.841)" gradientUnits="userSpaceOnUse" id="LinearGradient_YoutubePlaylist_2" x1="0" x2="1" y1="0" y2="0"><stop offset="0" stop-color="#d82428"/><stop offset="1" stop-color="#d82428" stop-opacity="0"/></linearGradient></defs><g id="Youtube-Playlist"><path id="RedCircle" d="M50 99.5C22.775 99.5 0.5 77.225 0.5 50C0.5 22.775 22.775 0.5 50 0.5C77.225 0.5 99.5 22.775 99.5 50C99.5 77.225 77.225 99.5 50 99.5Z" fill="#911618" opacity="1" stroke="none"/><path id="gradientTop" d="M17.256 30.5901C17.256 16.9709 31.9495 5.93028 50.0747 5.93028C68.2 5.93028 82.8934 16.9709 82.8934 30.5901C82.8934 44.2094 68.2 55.25 50.0747 55.25C31.9495 55.25 17.256 44.2094 17.256 30.5901Z" fill="url(#LinearGradient_YoutubePlaylist)" opacity="1" stroke="none"/><path id="gradientLeft" d="M25.9532 86.2282C16.1453 79.6573 3.67245 65.6192 8.74096 60.4004C14.1409 54.8403 21.4754 67.7001 33.0455 75.2582C44.6157 82.8164 58.4441 84.9015 55.0215 90.6331C52.358 95.0933 35.761 92.7991 25.9532 86.2282Z" fill="url(#LinearGradient_YoutubePlaylist_2)" opacity="1" stroke="none"/><g opacity="1" id="Player"><path id="playerRedShaddow" d="M35.2994 38.8179C31.3011 38.8179 28.0602 41.7859 28.0602 45.4474L28.0602 60.6131C28.0602 64.2746 31.3011 67.2425 35.2994 67.2425L66.8869 67.2425C70.8852 67.2425 74.1261 64.2746 74.1261 60.6131L74.1261 45.4474C74.1261 41.7859 70.8852 38.8179 66.8869 38.8179L35.2994 38.8179ZM53.7947 50.3673C54.3797 50.6905 54.3679 51.5355 53.774 51.8421L45.3312 56.2022C44.7745 56.4897 44.1112 56.0855 44.1113 55.459L44.1139 46.4357C44.1141 45.7991 44.7972 45.3962 45.3544 45.7041L53.7947 50.3673Z" fill="#741315" opacity="0.869347" stroke="none"/><path id="playerWhite" fill="#e7e6e8" opacity="1" stroke="#e8e6e6" stroke-linecap="round" stroke-linejoin="round" stroke-width="1" d="M35.817 35.432C32.0572 35.432 29.0095 38.4796 29.0095 42.2395L29.0095 57.8127C29.0095 61.5726 32.0572 64.6203 35.817 64.6203L65.521 64.6203C69.2808 64.6203 72.3285 61.5726 72.3285 57.8127L72.3285 42.2395C72.3285 38.4796 69.2808 35.432 65.521 35.432L35.817 35.432ZM45.268 41.3649C45.483 41.3614 45.7059 41.414 45.9142 41.5346L52.304 45.2354L58.6938 48.9361C59.5271 49.4185 59.5282 50.6226 58.6938 51.103L52.2909 54.7842L45.8946 58.4719C45.0602 58.9523 44.0202 58.3447 44.0214 57.3819L44.0279 50L44.0344 42.6181C44.0353 41.896 44.6231 41.3754 45.268 41.3649Z"/></g></g></svg>
