<svg xmlns="http://www.w3.org/2000/svg" xml:space="preserve" viewBox="0 0 100 100"><defs><linearGradient id="a" x1="0" x2="1" y1="0" y2="0" gradientTransform="scale(-93.3) rotate(-55.2 -.7 .8)" gradientUnits="userSpaceOnUse"><stop offset="0" stop-color="red"/><stop offset=".2" stop-color="#fe1f1f"/><stop offset=".4" stop-color="#fc3d3d"/><stop offset=".7" stop-color="#f04141"/><stop offset="1" stop-color="#fb5151"/></linearGradient><linearGradient id="c" x1="0" x2="1" y1="0" y2="0" gradientTransform="scale(76.5) rotate(72.2 0 .1)" gradientUnits="userSpaceOnUse"><stop offset="0" stop-color="red"/><stop offset=".2" stop-color="#fe1f1f"/><stop offset=".4" stop-color="#fc3d3d"/><stop offset=".7" stop-color="#f04141"/><stop offset="1" stop-color="#fb5151"/></linearGradient><linearGradient id="d" x1="0" x2="1" y1="0" y2="0" gradientTransform="scale(-43.8) rotate(33.7 2 -4.4)" gradientUnits="userSpaceOnUse"><stop offset="0" stop-color="red"/><stop offset=".2" stop-color="#fe1f1f"/><stop offset=".5" stop-color="#fc3d3d"/><stop offset=".8" stop-color="#fa4b4b"/><stop offset="1" stop-color="#fa6c6c"/></linearGradient><filter id="b" width="104.4" height="80.7" x="-2.2" y="10.4" color-interpolation-filters="sRGB" filterUnits="userSpaceOnUse"><feDropShadow dx="0" dy=".7" flood-color="#000" flood-opacity=".3" in="SourceGraphic" result="Shadow" stdDeviation="1.9"/></filter><filter id="e" width="48.9" height="48.9" x="25.5" y="26.2" color-interpolation-filters="sRGB" filterUnits="userSpaceOnUse"><feDropShadow dx="0" dy=".7" flood-color="#000" flood-opacity=".3" in="SourceGraphic" result="Shadow" stdDeviation="2.8"/></filter></defs><path fill="url(#a)" d="M95.4 73.5c-1 5-5 8.8-10 9.5a246 246 0 0 1-71 0c-5-.7-9-4.5-10-9.5a139.3 139.3 0 0 1 0-47c1-5 5-8.8 10-9.5a246 246 0 0 1 71 0c5 .7 9 4.5 10 9.5a134.8 134.8 0 0 1 0 47Z" filter="url(#b)"/><path fill="url(#c)" d="M4.4 26.5c-1 5.3-1.8 13-1.9 22.6h18.3a5.5 5.5 0 1 0 0-11h-1a4.6 4.6 0 1 1 0-9.1h12c4 0 7.2-3.3 7.2-7.3 0-3.1-2-5.8-4.7-6.8-8 .5-15 1.3-20 2-5 .8-9 4.6-10 9.6Z"/><path fill="url(#d)" d="M74.6 58.2a4.6 4.6 0 1 0 0 9.1h1.8a4.6 4.6 0 1 1 0 9.2h-7.3A4.6 4.6 0 0 0 67 85c7.4-.5 13.8-1.3 18.4-2 5-.7 9-4.5 10-9.5.7-3.9 1.3-9 1.7-15.3H74.6Z"/><path fill="#f2f2f2" d="M64.3 32.5H35.7a3.2 3.2 0 0 0-3.2 3.2v28.6c0 1.8 1.4 3.2 3.2 3.2h28.6c1.8 0 3.2-1.4 3.2-3.2V35.7c0-1.8-1.4-3.2-3.2-3.2Z" filter="url(#e)"/></svg>