<svg xmlns="http://www.w3.org/2000/svg" xml:space="preserve" viewBox="0 0 100 100"><defs><linearGradient id="a" x1="0" x2="1" y1="0" y2="0" gradientTransform="matrix(-85.7 -85.9 -74.3 99 80.5 105.5)" gradientUnits="userSpaceOnUse"><stop offset="0" stop-color="red"/><stop offset=".2" stop-color="#fe1f1f"/><stop offset=".4" stop-color="#fc3d3d"/><stop offset=".7" stop-color="#f04141"/><stop offset="1" stop-color="#fb5151"/></linearGradient><linearGradient id="b" x1="0" x2="1" y1="0" y2="0" gradientTransform="matrix(-14.8 -27.4 29.9 -16.2 57.4 98.1)" gradientUnits="userSpaceOnUse"><stop offset="0" stop-color="#1da700"/><stop offset="1" stop-color="#00bd1d"/></linearGradient><linearGradient id="d" x1="0" x2="1" y1="0" y2="0" gradientTransform="matrix(14.4 6.7 -6.7 14.4 45.8 83.2)" gradientUnits="userSpaceOnUse"><stop offset="0" stop-color="#fff"/><stop offset="1" stop-color="#b8b8b8"/></linearGradient><radialGradient id="e" cx="0" cy="0" r="1" gradientTransform="matrix(2.2 -.5 1.3 2.1 59.3 75.4)" gradientUnits="userSpaceOnUse"><stop offset="0" stop-color="#00dd0f"/><stop offset="1" stop-color="#ff77b1" stop-opacity="0"/></radialGradient><radialGradient id="f" cx="0" cy="0" r="1" gradientTransform="matrix(-2.4 2 -2 -2.4 52.2 76.4)" gradientUnits="userSpaceOnUse"><stop offset="0" stop-color="#fefefe"/><stop offset="1" stop-color="#b8b8b8" stop-opacity="0"/></radialGradient><filter id="c" width="37.7" height="37.8" x="31.1" y="65.6" color-interpolation-filters="sRGB" filterUnits="userSpaceOnUse"><feDropShadow dx="0" dy="0" flood-color="#000" flood-opacity=".4" in="SourceGraphic" result="Shadow" stdDeviation="1.3"/></filter></defs><path fill="url(#a)" d="M79.6 9.8A212.6 212.6 0 0 0 40.2 8c-2.5.1-8.7 1.3-14.7 1.4C6.5 9.8 2.8 24.6 2.7 26a186.2 186.2 0 0 0-.8 40c.3 4.6.8 8.6 1.3 11.9.5 3 1.8 5.6 3.7 7.6 1.7 2 4 3.2 6.5 3.6A183.9 183.9 0 0 0 39.7 92a216.7 216.7 0 0 0 44-2.4c.9-.2 5.1-.5 8-2.9 2.4-2 4.3-5.2 4.9-8.8A191.9 191.9 0 0 0 98.8 50c-.1-3.8.1-13.6-.2-16.8-1.2-11.6-2-19.8-19-23.4Z"/><path fill="#e40512" d="M98.6 33.2 77.8 54A541 541 0 0 1 6.6 85.3S9 88 13.4 89c2.5.7 7.2 1.3 13 1.9a272.2 272.2 0 0 0 32.4 1c6 0 21.7-1.8 24.8-2.4 6.6-1.3 11-3.4 13-11.7 1.4-6.4 1-11 1.7-17.3a179.6 179.6 0 0 0 .3-27.4Z"/><path fill="#fe5067" d="M44.6 7.8 1.2 50C1.6 60.1 3 74.5 3 74.5s3.6 2.7 11.6-3.3c5-3.7 59.4-62 59.4-62-2.9-.3-8.4-.9-13.4-1.2-6.3-.3-13.8-.2-16-.2Z"/><path fill="#ff637b" d="M44.6 7.8c-4.7 0-14.9.7-22.4 1.5-11.2 1.3-19 9.4-19.8 21.3C2 35.8 1.6 42.8 1.3 50L44.5 7.8Z"/><path fill="#f5293d" d="M74 9.1s-31.7 33.7-38 40C29 56.4 22.9 64 14.7 70.3 6.3 76.7 3 74.5 3 74.5c.1 1.7 1.2 7.7 3.6 10.8 0 0 42-2.3 42.8-2.8l49.2-49.3c-2.4-15.2-2.3-21-24.6-24Z"/><path fill="#d6000c" d="m49.4 82.5 9.4 9.6 24.8-2.5c4.2-.5 7.3-2.3 8-2.9 2.3-1.7 4.3-5.6 5-8.8L77.8 54 49.4 82.5Z"/><g fill="#fff"><path d="M86.4 39.4c0-.3-.2-.5-.5-.5l-36.3.2c-.3 0-.5.3-.5.6v5.7c0 .3.2.5.5.5l36.3-.2c.3 0 .5-.3.5-.6v-5.7ZM86.5 54.8c0-.3-.2-.5-.5-.5l-26.5.2c-.3 0-.5.2-.5.5v5.7c0 .3.3.5.5.5L86 61c.3 0 .6-.2.6-.5v-5.7ZM86.5 70.2c0-.3-.2-.6-.5-.5H65.3c-.3.1-.5.3-.5.6V76c0 .3.2.6.5.6l20.8-.2c.2 0 .5-.2.5-.5v-5.7ZM86.3 24c0-.3-.2-.6-.5-.6l-71.6.5c-.3 0-.5.3-.5.6v5.7c0 .3.3.5.6.5l71.5-.5c.3 0 .6-.2.6-.5V24Z"/></g><path fill="#fff" d="M23.7 75.4c-3.7 2.6-7.6.8-7.5-3.8.2-10.7 0-20.2 0-30.9 0-3 4.4-5 6.6-3.7 8 4.5 17.7 11 24.8 15.7 4.3 2.9 2.3 6 .2 7.3-8.3 5.5-18 11.2-24 15.4Z"/></svg>