<svg xmlns="http://www.w3.org/2000/svg" xml:space="preserve" width="100%" height="100%" version="1.1" viewBox="0 0 100 100"><defs><linearGradient id="a" x1="0" x2="1" y1="0" y2="0" gradientTransform="matrix(31.6164 12.8662 -15.1672 26.82 6.644 58.897)" gradientUnits="userSpaceOnUse"><stop offset="0" stop-color="#fff"/><stop offset="1" stop-color="#888" stop-opacity=".296"/></linearGradient><linearGradient id="b" x1="0" x2="1" y1="0" y2="0" gradientTransform="matrix(39.7311 13.3662 -20.3407 26.108 6.341 43.292)" gradientUnits="userSpaceOnUse"><stop offset="0" stop-color="#fff" stop-opacity="0"/><stop offset=".149" stop-color="#fff" stop-opacity="0"/><stop offset=".291" stop-color="#fff"/><stop offset=".476" stop-color="#969696" stop-opacity=".38"/><stop offset=".72" stop-color="#8f8f8f" stop-opacity=".196"/><stop offset="1" stop-color="#888" stop-opacity="0"/></linearGradient><linearGradient id="c" x1="0" x2="1" y1="0" y2="0" gradientTransform="matrix(34.267 14.1077 -16.6307 29.0684 6.644 58.897)" gradientUnits="userSpaceOnUse"><stop offset="0" stop-color="#00fbff"/><stop offset="1" stop-color="#00fbff" stop-opacity=".3"/></linearGradient><linearGradient id="d" x1="0" x2="1" y1="0" y2="0" gradientTransform="matrix(37.9045 45.9379 -55.0219 34.8585 21.714 41.304)" gradientUnits="userSpaceOnUse"><stop offset="0" stop-color="#00fbff"/><stop offset="1" stop-color="#00ffc3" stop-opacity=".3"/></linearGradient><linearGradient id="f" x1="0" x2="1" y1="0" y2="0" gradientTransform="matrix(19.9543 10.1881 -11.9172 17.9549 16.153 52.565)" gradientUnits="userSpaceOnUse"><stop offset="0" stop-color="#00fbff"/><stop offset="1" stop-color="#00ffc3" stop-opacity=".3"/></linearGradient><linearGradient id="h" x1="0" x2="1" y1="0" y2="0" gradientTransform="matrix(46.9691 33.61 -39.0377 41.7036 20.576 39.18)" gradientUnits="userSpaceOnUse"><stop offset="0" stop-color="#00fbff"/><stop offset="1" stop-color="#00ffc3" stop-opacity=".3"/></linearGradient><linearGradient id="i" x1="0" x2="1" y1="0" y2="0" gradientTransform="matrix(54.2323 51.8855 -60.733 48.5022 20.578 39.182)" gradientUnits="userSpaceOnUse"><stop offset="0" stop-color="#fff"/><stop offset="1" stop-color="#888" stop-opacity=".296"/></linearGradient><linearGradient id="j" x1="0" x2="1" y1="0" y2="0" gradientTransform="matrix(36.0068 35.163 -41.1831 32.2147 20.576 39.18)" gradientUnits="userSpaceOnUse"><stop offset="0" stop-color="#00fbff"/><stop offset="1" stop-color="#00fbff" stop-opacity=".3"/></linearGradient><linearGradient id="k" x1="0" x2="1" y1="0" y2="0" gradientTransform="matrix(35.6994 24.6191 -29.671 30.5476 55.642 49.715)" gradientUnits="userSpaceOnUse"><stop offset="0" stop-color="#00fbff"/><stop offset="1" stop-color="#00ffc3" stop-opacity=".3"/></linearGradient><linearGradient id="l" x1="0" x2="1" y1="0" y2="0" gradientTransform="matrix(26.7662 36.168 -44.0613 21.9712 61.369 44.663)" gradientUnits="userSpaceOnUse"><stop offset="0" stop-color="#00fbff"/><stop offset="1" stop-color="#00fbff" stop-opacity=".3"/></linearGradient><filter id="e" width="60.849" height="75.337" x="33.39" y="18.249" color-interpolation-filters="sRGB" filterUnits="userSpaceOnUse"><feGaussianBlur in="SourceGraphic" result="Blur" stdDeviation="6.647"/></filter><filter id="g" width="45.644" height="53.178" x="3.567" y="34.379" color-interpolation-filters="sRGB" filterUnits="userSpaceOnUse"><feGaussianBlur in="SourceGraphic" result="Blur" stdDeviation="3.835"/></filter></defs><rect x="0" y="0" width="100" height="100" fill="#000"/><g opacity="1"><path fill="url(#c)" d="M13.577 45.1882C6.24568 47.8303 1 54.6001 1 62.5892C1 72.8717 9.64536 81.1962 20.3118 81.1962C24.3404 81.1962 28.0862 80.0036 31.1816 77.9697C20.5135 72.8836 13.1541 62.2867 13.1541 49.9966C13.1541 48.3566 13.3251 46.7598 13.577 45.1882Z" opacity=".75"/><path fill="url(#d)" d="M73.5798 34.8667C60.4874 35.33 50.0078 45.3135 50.0078 57.6399C50.0078 65.8127 54.6355 72.9276 61.5511 76.9673C71.1506 71.5637 77.6207 61.521 77.6207 49.9966C77.6207 44.5025 76.155 39.3505 73.5798 34.8667Z" filter="url(#e)" opacity=".4"/><path fill="url(#f)" d="M20.3118 43.9665C17.9328 43.9665 15.6815 44.4298 13.577 45.1882C13.3251 46.7598 13.1541 48.3566 13.1541 49.9966C13.1541 62.2867 20.5135 72.8836 31.1816 77.9697C36.2818 74.6185 39.6236 68.9882 39.6236 62.5892C39.6236 52.3067 30.9783 43.9665 20.3118 43.9665Z" filter="url(#g)" opacity=".6"/><g opacity=".85"><path fill="url(#h)" d="M45.3874 18.797C29.2805 18.797 15.9719 30.2456 13.577 45.1882C13.3251 46.7598 13.1541 48.3566 13.1541 49.9966C13.1541 62.2867 20.5135 72.8836 31.1816 77.9697C35.472 80.0152 40.2817 81.1962 45.3874 81.1962C51.284 81.1962 56.7961 79.6439 61.5511 76.9673C54.6355 72.9276 50.0078 65.8127 50.0078 57.6399C50.0078 45.3135 60.4874 35.33 73.5798 34.8667C68.0778 25.2865 57.5131 18.797 45.3874 18.797Z" opacity="1"/><path fill="url(#j)" d="M45.3874 18.797C29.2805 18.797 15.9719 30.2456 13.577 45.1882C13.3251 46.7598 13.1541 48.3566 13.1541 49.9966C13.1541 62.2867 20.5135 72.8836 31.1816 77.9697C35.472 80.0152 40.2817 81.1962 45.3874 81.1962C51.284 81.1962 56.7961 79.6439 61.5511 76.9673C54.6355 72.9276 50.0078 65.8127 50.0078 57.6399C50.0078 45.3135 60.4874 35.33 73.5798 34.8667C68.0778 25.2865 57.5131 18.797 45.3874 18.797Z" opacity="1"/></g><g opacity=".99"><path fill="url(#k)" d="M50.0014 57.6382C50.0014 45.0165 60.9701 34.7846 74.5007 34.7846C88.0313 34.7846 99 45.0165 99 57.6382C99 70.2598 88.0313 80.4917 74.5007 80.4917C60.9701 80.4917 50.0014 70.2598 50.0014 57.6382Z" opacity=".55"/><path fill="url(#l)" d="M50.0014 57.6382C50.0014 45.0165 60.9701 34.7846 74.5007 34.7846C88.0313 34.7846 99 45.0165 99 57.6382C99 70.2598 88.0313 80.4917 74.5007 80.4917C60.9701 80.4917 50.0014 70.2598 50.0014 57.6382Z" opacity=".9"/></g></g></svg>