<svg xmlns="http://www.w3.org/2000/svg" xml:space="preserve" width="100%" height="100%" stroke-miterlimit="10" style="fill-rule:nonzero;clip-rule:evenodd;stroke-linecap:round;stroke-linejoin:round" version="1.1" viewBox="0 0 100 100"><defs><linearGradient id="a" x1="0" x2="1" y1="0" y2="0" gradientTransform="scale(43.53114) rotate(-83.94 1.345 .043)" gradientUnits="userSpaceOnUse"><stop offset=".276" stop-color="#ffe32c"/><stop offset="1" stop-color="#ffd500"/></linearGradient><linearGradient id="b" x1="0" x2="1" y1="0" y2="0" gradientTransform="scale(43.53114) rotate(-83.94 1.387 .04)" gradientUnits="userSpaceOnUse"><stop offset=".276" stop-color="#ffe32c"/><stop offset="1" stop-color="#ffd500"/></linearGradient><linearGradient id="c" x1="0" x2="1" y1="0" y2="0" gradientTransform="scale(43.53114) rotate(-83.94 1.43 .035)" gradientUnits="userSpaceOnUse"><stop offset=".276" stop-color="#ffe32c"/><stop offset="1" stop-color="#ffd500"/></linearGradient><linearGradient id="d" x1="0" x2="1" y1="0" y2="0" gradientTransform="scale(43.53114) rotate(-83.94 1.472 .031)" gradientUnits="userSpaceOnUse"><stop offset=".276" stop-color="#fd0"/><stop offset="1" stop-color="#ffd500"/></linearGradient><linearGradient id="e" x1="0" x2="1" y1="0" y2="0" gradientTransform="rotate(94.569 .957 40.834) scale(53.81803)" gradientUnits="userSpaceOnUse"><stop offset="0" stop-color="#ffea00" stop-opacity=".5"/><stop offset="1" stop-color="#ffea00"/></linearGradient><linearGradient id="f" x1="0" x2="1" y1="0" y2="0" gradientTransform="matrix(0 58.3538 -58.3538 0 50 5.18)" gradientUnits="userSpaceOnUse"><stop offset="0" stop-color="#f1f1f1" stop-opacity=".6"/><stop offset="1" stop-color="#8e8e8e" stop-opacity=".4"/></linearGradient><linearGradient id="g" x1="0" x2="1" y1="0" y2="0" gradientTransform="rotate(-86.555 53.779 11.462) scale(34.26452)" gradientUnits="userSpaceOnUse"><stop offset="0" stop-color="#ffe900" stop-opacity=".7"/><stop offset="1" stop-color="#ffe900" stop-opacity=".4"/></linearGradient><linearGradient id="h" x1="0" x2="1" y1="0" y2="0" gradientTransform="matrix(0 -40.3717 40.3717 0 50 64.168)" gradientUnits="userSpaceOnUse"><stop offset="0" stop-color="#b2abb9" stop-opacity=".3"/><stop offset="1" stop-color="#fff" stop-opacity=".3"/></linearGradient></defs><g fill-rule="nonzero" opacity="1"><path fill="#000" d="M0 0L100 0L100 0L100 100L100 100L0 100L0 100L0 0L0 0Z" opacity="1"/><g opacity="1"><path fill="#f9d000" d="M68.3217 64.5593L69.2487 63.5761C71.1072 61.6073 69.7122 58.3718 67.0055 58.3718L55.8455 58.3718C54.6957 58.3718 54.0072 57.0893 54.6462 56.1308L67.586 36.7223C69.1115 34.4341 67.4712 31.3718 64.7217 31.3718L44.4245 31.3718C43.0295 31.3718 41.774 32.2133 41.243 33.5026L28.454 64.5593L68.3217 64.5593Z" opacity=".19"/><g opacity=".95"><path fill="url(#a)" d="M44.4313 26.3206C40.9843 26.3206 37.8815 28.3996 36.5675 31.5856L23 64.5256C23.0068 64.5324 22.9955 64.5526 23 64.5594L30.29 64.5594L42.8113 34.1506C43.0813 33.4936 43.7203 33.0706 44.4313 33.0706L64.715 33.0706C66.1168 33.0706 66.9425 34.6051 66.1663 35.7706L50 60.0706L67.01 60.0706C68.2363 60.0706 68.864 61.5421 68.0225 62.4331L66.0313 64.5594L74.5363 64.5594C76.6445 59.5149 73.0873 53.3206 67.01 53.3206L62.6225 53.3206L71.8025 39.5169C75.5713 33.8649 71.5078 26.3206 64.715 26.3206L44.4313 26.3206Z" opacity=".1"/><path fill="url(#b)" d="M44.4313 28.0081C41.6705 28.0081 39.173 29.6731 38.12 32.2269L24.7888 64.5594L30.29 64.5594L42.8113 34.1506C43.0813 33.4936 43.7203 33.0706 44.4313 33.0706L64.715 33.0706C66.1168 33.0706 66.9425 34.6051 66.1663 35.7706L50 60.0706L67.01 60.0706C68.2363 60.0706 68.864 61.5421 68.0225 62.4331L66.0313 64.5594L72.68 64.5594C74.9615 60.4644 72.0883 55.0081 67.01 55.0081L60.6313 55.0081C60.125 55.0081 59.8438 54.4164 60.125 53.9956L70.385 38.6056C73.4045 34.0764 70.16 28.0081 64.715 28.0081L44.4313 28.0081Z" opacity=".2"/><path fill="url(#c)" d="M44.4313 29.6956C42.3523 29.6956 40.4623 30.9466 39.6725 32.8681L26.645 64.5594L30.29 64.5594L42.8113 34.1506C43.0813 33.4936 43.7203 33.0706 44.4313 33.0706L64.715 33.0706C66.1168 33.0706 66.9425 34.6051 66.1663 35.7706L50 60.0706L67.01 60.0706C68.2363 60.0706 68.864 61.5421 68.0225 62.4331L66.0313 64.5594L70.5875 64.5594C73.229 61.5084 71.114 56.6956 67.01 56.6956L57.9988 56.6956C57.2765 56.6956 56.8558 55.8789 57.2563 55.2781L69.0013 37.6606C71.2738 34.2519 68.8123 29.6956 64.715 29.6956L44.4313 29.6956Z" opacity=".3"/><path fill="url(#d)" d="M44.4313 31.3831C43.0363 31.3831 41.7898 32.2201 41.2588 33.5094L28.4675 64.5594L30.29 64.5594L42.8113 34.1506C43.0813 33.4936 43.7203 33.0706 44.4313 33.0706L64.715 33.0706C66.1168 33.0706 66.9425 34.6051 66.1663 35.7706L50 60.0706L67.01 60.0706C68.2363 60.0706 68.864 61.5421 68.0225 62.4331L66.0313 64.5594L68.3263 64.5594L69.2375 63.5806C71.096 61.6119 69.7168 58.3831 67.01 58.3831L55.8388 58.3831C54.689 58.3831 54.0185 57.0804 54.6575 56.1219L67.5838 36.7156C69.1093 34.4274 67.4645 31.3831 64.715 31.3831L44.4313 31.3831Z" opacity=".4"/></g><path fill="url(#e)" d="M30.29 64.5594L28.2988 69.3856C27.9208 70.3059 28.5868 71.3094 29.5813 71.3094L43.25 71.3094L33.1588 97.5669C32.9113 98.2127 33.7303 98.7437 34.205 98.2419L66.0313 64.5594C52.5839 64.5594 38.1698 64.5594 30.29 64.5594Z" opacity=".7"/><g fill="#f9e400" opacity=".996"><path d="M30.29 64.5594L29.7163 65.9431L64.715 65.9431L66.0313 64.5594C52.5479 64.5594 39.052 64.5594 30.29 64.5594Z" opacity=".3"/><path d="M30.29 64.5594L29.1763 67.2594L63.4663 67.2594L66.0313 64.5594C52.5314 64.5594 39.0494 64.5594 30.29 64.5594Z" opacity=".25"/><path d="M30.29 64.5594L28.6025 68.6431L62.1838 68.6431L66.0313 64.5594C52.5479 64.5594 39.052 64.5594 30.29 64.5594Z" opacity=".2"/><path d="M30.29 64.5594L28.2988 69.3856C28.2115 69.5982 28.351 69.7851 28.3663 69.9931L60.9013 69.9931L66.0313 64.5594C52.5314 64.5594 39.0494 64.5594 30.29 64.5594Z" opacity=".15"/><path d="M30.29 64.5594L28.2988 69.3856C27.9208 70.3059 28.5868 71.3094 29.5813 71.3094L41.7988 71.3094L43.25 71.3094L59.6525 71.3094L66.0313 64.5594C52.5314 64.5594 39.0494 64.5594 30.29 64.5594Z" opacity=".05"/></g><path fill="url(#f)" d="M80.375 26.3093C79.187 26.3093 78.0305 26.4331 76.9032 26.6401C75.9155 12.6271 64.2627 1.55935 50 1.55935C38.219 1.55935 28.229 9.1171 24.5412 19.6381C24.0305 19.6021 23.5197 19.5593 23 19.5593C10.5733 19.5593 0.5 29.6326 0.5 42.0593C0.5 54.4861 10.5733 64.5593 23 64.5593C23 64.5593 79.9947 64.5593 80.375 64.5593C90.9365 64.5593 99.5 55.9958 99.5 45.4343C99.5 34.8728 90.9365 26.3093 80.375 26.3093Z" opacity="1"/><path fill="url(#g)" d="M44.4313 33.0706C43.7203 33.0706 43.0813 33.4936 42.8113 34.1506L30.29 64.5594C38.1698 64.5594 52.5839 64.5594 66.0313 64.5594L68.0225 62.4331C68.864 61.5421 68.2363 60.0706 67.01 60.0706L50 60.0706L66.1663 35.7706C66.9425 34.6051 66.1168 33.0706 64.715 33.0706L44.4313 33.0706Z" opacity=".8"/><path fill="url(#h)" d="M50 2.68435C63.5067 2.68435 74.831 13.2413 75.7805 26.7188C75.803 27.0383 75.9605 27.3331 76.2125 27.5288C76.4105 27.6818 76.6535 27.7651 76.901 27.7651C76.9685 27.7651 77.036 27.7583 77.1035 27.7471C78.2487 27.5356 79.3175 27.4343 80.375 27.4343C90.2997 27.4343 98.375 35.5096 98.375 45.4343C98.375 55.3591 90.2997 63.4343 80.375 63.4343L23 63.4343C11.2145 63.4343 1.625 53.8448 1.625 42.0593C1.625 30.2738 11.2145 20.6843 23 20.6843C23.4095 20.6843 23.81 20.7136 24.2127 20.7428L24.4647 20.7608C24.4895 20.7631 24.5165 20.7631 24.5412 20.7631C25.016 20.7631 25.4435 20.4638 25.6032 20.0093C29.2347 9.64585 39.0403 2.68435 50 2.68435M50 1.55935C38.219 1.55935 28.229 9.1171 24.5412 19.6381C24.0305 19.6021 23.5197 19.5593 23 19.5593C10.5733 19.5593 0.5 29.6326 0.5 42.0593C0.5 54.4861 10.5733 64.5593 23 64.5593C23 64.5593 79.9947 64.5593 80.375 64.5593C90.9365 64.5593 99.5 55.9958 99.5 45.4343C99.5 34.8728 90.9365 26.3093 80.375 26.3093C79.187 26.3093 78.0305 26.4331 76.9032 26.6401C75.9155 12.6271 64.2627 1.55935 50 1.55935Z" opacity="1"/></g></g></svg>