<?xml version="1.0" encoding="UTF-8" standalone="no"?>
<!DOCTYPE svg PUBLIC "-//W3C//DTD SVG 1.1//EN" "http://www.w3.org/Graphics/SVG/1.1/DTD/svg11.dtd">
<!-- Created with Vectornator (http://vectornator.io/) -->
<svg width="100%" height="100%" viewbox="0 0 100 100" stroke-miterlimit="10" style="fill-rule:nonzero;clip-rule:evenodd;stroke-linecap:round;stroke-linejoin:round;" version="1.1" xml:space="preserve" xmlns="http://www.w3.org/2000/svg" xmlns:xlink="http://www.w3.org/1999/xlink">
<defs>
<linearGradient gradientTransform="matrix(-25.6622 55.3754 -55.3754 -25.6622 63.8249 36.9772)" gradientUnits="userSpaceOnUse" id="LinearGradient" x1="0" x2="1" y1="0" y2="0">
<stop offset="0" stop-color="#ffcc00"/>
<stop offset="1" stop-color="#ffea00"/>
</linearGradient>
<linearGradient gradientTransform="matrix(-25.6622 55.3754 -55.3754 -25.6622 63.8249 36.9772)" gradientUnits="userSpaceOnUse" id="LinearGradient_2" x1="0" x2="1" y1="0" y2="0">
<stop offset="0" stop-color="#ffcc00"/>
<stop offset="1" stop-color="#ffea00"/>
</linearGradient>
<linearGradient gradientTransform="matrix(0 54.0312 -54.0312 0 50 7.51875)" gradientUnits="userSpaceOnUse" id="LinearGradient_3" x1="0" x2="1" y1="0" y2="0">
<stop offset="0" stop-color="#f1f1f1" stop-opacity="0.6"/>
<stop offset="1" stop-color="#8e8e8e" stop-opacity="0.4"/>
</linearGradient>
<linearGradient gradientTransform="matrix(0 -37.3812 37.3812 0 50 62.1375)" gradientUnits="userSpaceOnUse" id="LinearGradient_4" x1="0" x2="1" y1="0" y2="0">
<stop offset="0" stop-color="#b2abb9" stop-opacity="0.3"/>
<stop offset="1" stop-color="#ffffff" stop-opacity="0.3"/>
</linearGradient>
</defs>
<rect x="0" y="0" width="100" height="100" fill="#000"/>
<g id="Layer">
<g opacity="1">
<g opacity="0.95">
<path d="M25 62.5L72.7104 62.5C74.6625 57.8291 71.3729 52.0833 65.7458 52.0833L61.677 52.0833L70.1812 39.3271C73.6708 34.0937 69.9187 27.0833 63.6291 27.0833L44.8375 27.0833C41.6458 27.0833 38.7708 29.0104 37.5541 31.9604L24.9875 62.4833C24.9937 62.4895 24.9958 62.4937 25 62.5Z" fill="#f9d000" fill-rule="nonzero" opacity="0.1" stroke="none"/>
<path d="M70.9854 62.5C73.0979 58.7083 70.4479 53.6458 65.7458 53.6458L59.8541 53.6458C59.3854 53.6458 59.1062 53.1229 59.3666 52.7333L68.8833 38.4583C71.6791 34.2646 68.6729 28.6458 63.6312 28.6458L44.8354 28.6458C42.2791 28.6458 39.975 30.1896 39 32.5541L26.6708 62.5L70.9854 62.5Z" fill="#f9d000" fill-rule="nonzero" opacity="0.2" stroke="none"/>
<path d="M69.0729 62.5C71.5187 59.675 69.5458 55.2083 65.7458 55.2083L57.402 55.2083C56.7333 55.2083 56.3354 54.4646 56.7062 53.9083L67.5833 37.5937C69.6875 34.4375 67.425 30.2104 63.6312 30.2104L44.8375 30.2104C42.9125 30.2104 41.1791 31.3708 40.4479 33.15L28.3604 62.5L69.0729 62.5Z" fill="#f9d000" fill-rule="nonzero" opacity="0.3" stroke="none"/>
<path d="M66.9645 62.5L67.8229 61.5895C69.5437 59.7666 68.252 56.7708 65.7458 56.7708L55.4125 56.7708C54.3479 56.7708 53.7104 55.5833 54.3021 54.6958L66.2833 36.725C67.6958 34.6062 66.177 31.7708 63.6312 31.7708L44.8375 31.7708C43.5458 31.7708 42.3833 32.55 41.8916 33.7437L30.05 62.5L66.9645 62.5Z" fill="#f9d000" fill-rule="nonzero" opacity="0.4" stroke="none"/>
</g>
<path d="M31.75 62.5L29.9062 66.9688C29.5563 67.8208 30.1729 68.75 31.0938 68.75L43.75 68.75L34.4062 93.0625C34.1771 93.6604 34.9354 94.1521 35.375 93.6875L64.8438 62.5C52.3925 62.5 39.0461 62.5 31.75 62.5Z" fill="url(#LinearGradient)" fill-rule="nonzero" opacity="0.7" stroke="none"/>
<g opacity="0.5">
<path d="M31.75 62.5L31.2188 63.7812L63.625 63.7812L64.8438 62.5C52.3592 62.5 39.863 62.5 31.75 62.5Z" fill="#f9e400" fill-rule="nonzero" opacity="0.3" stroke="none"/>
<path d="M31.75 62.5L30.7188 65L62.4688 65L64.8438 62.5C52.3439 62.5 39.8605 62.5 31.75 62.5Z" fill="#f9e400" fill-rule="nonzero" opacity="0.25" stroke="none"/>
<path d="M31.75 62.5L30.1875 66.2812L61.2812 66.2812L64.8438 62.5C52.3592 62.5 39.863 62.5 31.75 62.5Z" fill="#f9e400" fill-rule="nonzero" opacity="0.2" stroke="none"/>
<path d="M31.75 62.5L29.9063 66.9688C29.8254 67.1656 29.9546 67.3386 29.9688 67.5312L60.0938 67.5312L64.8438 62.5C52.3439 62.5 39.8605 62.5 31.75 62.5Z" fill="#f9e400" fill-rule="nonzero" opacity="0.15" stroke="none"/>
<path d="M31.75 62.5L29.9063 66.9688C29.5563 67.8208 30.1729 68.75 31.0938 68.75L42.4063 68.75L43.75 68.75L58.9375 68.75L64.8438 62.5C52.3439 62.5 39.8605 62.5 31.75 62.5Z" fill="#f9e400" fill-rule="nonzero" opacity="0.05" stroke="none"/>
</g>
<path d="M44.8438 33.3438C44.1854 33.3438 43.5937 33.7354 43.3438 34.3438L31.75 62.5C39.0461 62.5 52.3925 62.5 64.8438 62.5L66.6875 60.5312C67.4667 59.7063 66.8854 58.3438 65.75 58.3438L50 58.3438L64.9688 35.8438C65.6875 34.7646 64.9229 33.3438 63.625 33.3438L44.8438 33.3438Z" fill="url(#LinearGradient_2)" fill-rule="nonzero" opacity="0.3" stroke="none"/>
<path d="M78.125 27.0833C77.025 27.0833 75.9541 27.1979 74.9104 27.3896C73.9958 14.4146 63.2062 4.16666 50 4.16666C39.0916 4.16666 29.8416 11.1646 26.4271 20.9062C25.9542 20.8729 25.4812 20.8333 25 20.8333C13.4937 20.8333 4.16666 30.1604 4.16666 41.6666C4.16666 53.1729 13.4937 62.5 25 62.5C25 62.5 77.7729 62.5 78.125 62.5C87.9041 62.5 95.8333 54.5708 95.8333 44.7916C95.8333 35.0125 87.9041 27.0833 78.125 27.0833Z" fill="url(#LinearGradient_3)" fill-rule="nonzero" opacity="1" stroke="none"/>
<path d="M50 5.20833C62.5062 5.20833 72.9916 14.9833 73.8708 27.4625C73.8916 27.7583 74.0375 28.0312 74.2708 28.2125C74.4541 28.3541 74.6791 28.4312 74.9083 28.4312C74.9708 28.4312 75.0333 28.425 75.0958 28.4146C76.1562 28.2187 77.1458 28.125 78.125 28.125C87.3145 28.125 94.7916 35.6021 94.7916 44.7916C94.7916 53.9812 87.3145 61.4583 78.125 61.4583L25 61.4583C14.0875 61.4583 5.20833 52.5791 5.20833 41.6666C5.20833 30.7541 14.0875 21.875 25 21.875C25.3792 21.875 25.75 21.9021 26.1229 21.9292L26.3562 21.9458C26.3792 21.9479 26.4042 21.9479 26.4271 21.9479C26.8667 21.9479 27.2625 21.6708 27.4104 21.25C30.7729 11.6542 39.8521 5.20833 50 5.20833M50 4.16666C39.0916 4.16666 29.8416 11.1646 26.4271 20.9062C25.9542 20.8729 25.4812 20.8333 25 20.8333C13.4937 20.8333 4.16666 30.1604 4.16666 41.6666C4.16666 53.1729 13.4937 62.5 25 62.5C25 62.5 77.7729 62.5 78.125 62.5C87.9041 62.5 95.8333 54.5708 95.8333 44.7916C95.8333 35.0125 87.9041 27.0833 78.125 27.0833C77.025 27.0833 75.9541 27.1979 74.9104 27.3896C73.9958 14.4146 63.2062 4.16666 50 4.16666Z" fill="url(#LinearGradient_4)" fill-rule="nonzero" opacity="1" stroke="none"/>
</g>
</g>
</svg>
