<svg xmlns="http://www.w3.org/2000/svg" width="100%" height="100%" viewBox="0 0 256 256"><defs>
	<linearGradient id="a" x1="29.758" x2="10.189" y1="24.333" y2="35.686" gradientUnits="userSpaceOnUse"><stop offset="0" stop-color="#f8fc00"/><stop offset=".12" stop-color="#fff24e"/><stop offset=".416" stop-color="#ffed7f"/><stop offset=".672" stop-color="#fef976"/><stop offset=".875" stop-color="#fff98e"/><stop offset="1" stop-color="#ffff97"/></linearGradient>
	<linearGradient id="b" x1="24" x2="24" y1="3.609" y2="29.544" gradientUnits="userSpaceOnUse"><stop offset="0" stop-color="#f1f1f1" stop-opacity=".6"/><stop offset="1" stop-color="#8e8e8e" stop-opacity=".4"/></linearGradient>
	<linearGradient id="c" x1="24" x2="24" y1="29.826" y2="11.883" gradientUnits="userSpaceOnUse"><stop offset="0" stop-color="#f5ebff" stop-opacity="0"/><stop offset="1" stop-color="#fff" stop-opacity=".4"/></linearGradient>
</defs>
	<rect x="0" y="0" width="256" height="256" fill="#000"/>
<g fill="none" stroke-miterlimit="10" style="mix-blend-mode:normal">
	<path fill="#f9f600" opacity=".1" d="M64 160h122.139c4.997-11.957-3.424-26.667-17.83-26.667h-10.416l21.77-32.656c8.934-13.397-.671-31.344-16.772-31.344h-48.107c-8.17 0-15.53 4.934-18.645 12.486l-32.171 78.138c.016.016.021.027.032.043z"/>
	<path fill="#f9f600" opacity=".2" d="M181.723 160c5.408-9.707-1.376-22.667-13.414-22.667h-15.082c-1.2 0-1.915-1.338-1.248-2.336l24.362-36.544c7.158-10.736-.538-25.12-13.445-25.12h-48.117a16.163 16.163 0 0 0-14.94 10.006l-31.562 76.66z"/>
	<path fill="#f9f600" opacity=".3" d="M176.827 160c6.26-7.232 1.21-18.667-8.518-18.667h-21.36c-1.712 0-2.73-1.904-1.781-3.328l27.845-41.765c5.387-8.08-.405-18.901-10.117-18.901h-48.112c-4.928 0-9.365 2.97-11.237 7.525L72.603 160z"/>
	<path fill="#f9f600" opacity=".4" d="m171.43 160 2.197-2.33c4.405-4.667 1.098-12.337-5.318-12.337h-26.453c-2.725 0-4.357-3.04-2.843-5.312l30.672-46.005c3.616-5.424-.272-12.683-6.79-12.683h-48.111a8.154 8.154 0 0 0-7.541 5.05L76.928 160z"/>
	<path fill="url(#a)" d="M21 33h-6.072a.622.622 0 0 1-.575-.858l6.448-15.659a.78.78 0 0 1 .721-.483h9.021a.78.78 0 0 1 .649 1.212L24 28h7.558c.545 0 .826.652.452 1.048L16.976 44.967c-.211.223-.576-.006-.466-.293z" transform="scale(5.33333)"/>
	<path fill="#f9f600" opacity=".3" d="M170.72 154.923c1.995-2.112.496-5.59-2.41-5.59H85.647l-5.27 12.8h83.537z"/>
	<path fill="#f9f600" opacity=".25" d="M170.72 154.923c1.995-2.112.496-5.59-2.41-5.59H85.647l-6.15 14.934h82.4z"/>
	<path fill="#f9f600" opacity=".2" d="M170.72 154.923c1.995-2.112.496-5.59-2.41-5.59H85.647l-7.03 17.067h81.265z"/>
	<path fill="#f9f600" opacity=".15" d="M170.72 154.923c1.995-2.112.496-5.59-2.41-5.59H85.647l-7.904 19.2h80.123z"/>
	<path fill="#f9f600" opacity=".05" d="M170.72 154.923c1.995-2.112.496-5.59-2.41-5.59H85.647L77.3 169.6c.592.613 1.36 1.067 2.315 1.067H155.85z"/>
	<path id="lightningBolt" opacity="0.25" fill="#f8fc00" d="m165.925 160 4.795-5.077c1.995-2.112.496-5.59-2.41-5.59H128l38.357-57.536c1.84-2.762-.138-6.464-3.461-6.464h-48.112a4.159 4.159 0 0 0-3.845 2.576L81.253 160h84.672z"/>
	<path fill="url(#b)" d="M37.5 13c-.528 0-1.042.055-1.543.147C35.518 6.919 30.339 2 24 2c-5.236 0-9.676 3.359-11.315 8.035-.227-.016-.454-.035-.685-.035-5.523 0-10 4.477-10 10s4.477 10 10 10h25.5a8.5 8.5 0 0 0 0-17z" transform="scale(5.33333)"/>
	<path fill="url(#c)" d="M24 2.5c6.003 0 11.036 4.692 11.458 10.682a.5.5 0 0 0 .588.457A7.926 7.926 0 0 1 37.5 13.5c4.411 0 8 3.589 8 8s-3.589 8-8 8H12c-5.238 0-9.5-4.262-9.5-9.5s4.262-9.5 9.5-9.5c.182 0 .36.013.539.026l.112.008.034.001a.5.5 0 0 0 .472-.335A11.508 11.508 0 0 1 24 2.5m0-.5c-5.236 0-9.676 3.359-11.315 8.035-.227-.016-.454-.035-.685-.035-5.523 0-10 4.477-10 10s4.477 10 10 10h25.5a8.5 8.5 0 0 0 0-17c-.528 0-1.042.055-1.543.147C35.518 6.919 30.339 2 24 2z" transform="scale(5.33333)"/>
</g></svg>