<svg xmlns="http://www.w3.org/2000/svg" xmlns:xlink="http://www.w3.org/1999/xlink" viewBox="0,0,256,256" width="100%" height="100%" fill-rule="nonzero"><defs>
	<linearGradient id="color-1" x1="29.758" y1="24.333" x2="10.189" y2="35.686" gradientUnits="userSpaceOnUse"><stop offset="0" stop-color="#f8fc00"></stop><stop offset="0.12" stop-color="#fff24e"></stop><stop offset="0.416" stop-color="#ffed7f"></stop><stop offset="0.672" stop-color="#fef976"></stop><stop offset="0.875" stop-color="#fff98e"></stop><stop offset="1" stop-color="#ffff97"></stop></linearGradient>
	<linearGradient id="color-2" x1="24" y1="3.609" x2="24" y2="29.544" gradientUnits="userSpaceOnUse"><stop offset="0" stop-color="#f1f1f1" stop-opacity="0.6"></stop><stop offset="1" stop-color="#8e8e8e" stop-opacity="0.4"></stop></linearGradient>
	<linearGradient id="color-3" x1="24" y1="29.826" x2="24" y2="11.883" gradientUnits="userSpaceOnUse"><stop offset="0" stop-color="#f5ebff" stop-opacity="0"></stop><stop offset="1" stop-color="#fff" stop-opacity="0.4"></stop></linearGradient>
</defs>
<rect x="0" y="0" width="256" height="256" fill="#000"/>
<g fill="none" fill-rule="nonzero" stroke="none" stroke-width="1" stroke-linecap="butt" stroke-linejoin="miter" stroke-miterlimit="10" stroke-dasharray="" stroke-dashoffset="0" style="mix-blend-mode: normal">
	<g transform="scale(5.33333,5.33333)">
	<g id="topGradient" fill="#f9f600" opacity="0.95">
	<path opacity="0.1" d="M12,30h22.901c0.937,-2.242 -0.642,-5 -3.343,-5h-1.953l4.082,-6.123c1.675,-2.512 -0.126,-5.877 -3.145,-5.877h-9.02c-1.532,0 -2.912,0.925 -3.496,2.341l-6.032,14.651c0.003,0.003 0.004,0.005 0.006,0.008z"></path>
	<path opacity="0.2" d="M34.073,30c1.014,-1.82 -0.258,-4.25 -2.515,-4.25h-2.828c-0.225,0 -0.359,-0.251 -0.234,-0.438l4.568,-6.852c1.342,-2.013 -0.101,-4.71 -2.521,-4.71h-9.022c-1.227,0 -2.333,0.741 -2.801,1.876l-5.918,14.374z"></path>
	<path opacity="0.3" d="M33.155,30c1.174,-1.356 0.227,-3.5 -1.597,-3.5h-4.005c-0.321,0 -0.512,-0.357 -0.334,-0.624l5.221,-7.831c1.01,-1.515 -0.076,-3.544 -1.897,-3.544h-9.021c-0.924,0 -1.756,0.557 -2.107,1.411l-5.802,14.088z"></path>
	<path opacity="0.4" d="M32.143,30l0.412,-0.437c0.826,-0.875 0.206,-2.313 -0.997,-2.313h-4.96c-0.511,0 -0.817,-0.57 -0.533,-0.996l5.751,-8.626c0.678,-1.017 -0.051,-2.378 -1.273,-2.378h-9.021c-0.62,0 -1.178,0.374 -1.414,0.947l-5.684,13.803z"></path>
	</g>
	<path id="lightningBolt" opacity=".26" fill="url(#color-1)" d="M21,33h-6.072c-0.442,0 -0.743,-0.449 -0.575,-0.858l6.448,-15.659c0.12,-0.292 0.405,-0.483 0.721,-0.483h9.021c0.623,0 0.994,0.694 0.649,1.212l-7.192,10.788h7.558c0.545,0 0.826,0.652 0.452,1.048l-15.034,15.919c-0.211,0.223 -0.576,-0.006 -0.466,-0.293z"></path>
	<g id="BottomGradient" fill="#f9f600" opacity="0.5">
	<path opacity="0.3" d="M32.01,29.048c0.374,-0.396 0.093,-1.048 -0.452,-1.048h-0.558h-7h-7.941l-0.988,2.4h15.663z"></path>
	<path opacity="0.25" d="M32.01,29.048c0.374,-0.396 0.093,-1.048 -0.452,-1.048h-0.558h-7h-7.941l-1.153,2.8h15.45z"></path>
	<path opacity="0.2" d="M32.01,29.048c0.374,-0.396 0.093,-1.048 -0.452,-1.048h-0.558h-7h-7.941l-1.318,3.2h15.237z"></path>
	<path opacity="0.15" d="M32.01,29.048c0.374,-0.396 0.093,-1.048 -0.452,-1.048h-0.558h-7h-7.941l-1.482,3.6h15.023z"></path>
	<path opacity="0.05" d="M32.01,29.048c0.374,-0.396 0.093,-1.048 -0.452,-1.048h-0.558h-7h-7.941l-1.565,3.8c0.111,0.115 0.255,0.2 0.434,0.2h6.072h8.222z"></path>
	</g>
	<path id="lightningBolt" opacity=".26" fill="#f8fc00" d="M31.111,30l0.899,-0.952c0.374,-0.396 0.093,-1.048 -0.452,-1.048h-7.558l7.192,-10.788c0.345,-0.518 -0.026,-1.212 -0.649,-1.212h-9.021c-0.316,0 -0.601,0.191 -0.721,0.483l-5.566,13.517c3.979,0 10.82,0 15.876,0z"></path>
	<path id="cloud" fill="url(#color-2)" d="M37.5,13c-0.528,0 -1.042,0.055 -1.543,0.147c-0.439,-6.228 -5.618,-11.147 -11.957,-11.147c-5.236,0 -9.676,3.359 -11.315,8.035c-0.227,-0.016 -0.454,-0.035 -0.685,-0.035c-5.523,0 -10,4.477 -10,10c0,5.523 4.477,10 10,10c0,0 25.331,0 25.5,0c4.694,0 8.5,-3.806 8.5,-8.5c0,-4.694 -3.806,-8.5 -8.5,-8.5z"></path>
	<path id="cloudOutline" fill="url(#color-3)" d="M24,2.5c6.003,0 11.036,4.692 11.458,10.682c0.01,0.142 0.08,0.273 0.192,0.36c0.088,0.068 0.196,0.105 0.306,0.105c0.03,0 0.06,-0.003 0.09,-0.008c0.509,-0.094 0.984,-0.139 1.454,-0.139c4.411,0 8,3.589 8,8c0,4.411 -3.589,8 -8,8h-25.5c-5.238,0 -9.5,-4.262 -9.5,-9.5c0,-5.238 4.262,-9.5 9.5,-9.5c0.182,0 0.36,0.013 0.539,0.026l0.112,0.008c0.011,0.001 0.023,0.001 0.034,0.001c0.211,0 0.401,-0.133 0.472,-0.335c1.614,-4.606 5.972,-7.7 10.843,-7.7M24,2c-5.236,0 -9.676,3.359 -11.315,8.035c-0.227,-0.016 -0.454,-0.035 -0.685,-0.035c-5.523,0 -10,4.477 -10,10c0,5.523 4.477,10 10,10c0,0 25.331,0 25.5,0c4.694,0 8.5,-3.806 8.5,-8.5c0,-4.694 -3.806,-8.5 -8.5,-8.5c-0.528,0 -1.042,0.055 -1.543,0.147c-0.439,-6.228 -5.618,-11.147 -11.957,-11.147z"></path></g></g></svg>