<svg xmlns="http://www.w3.org/2000/svg" xmlns:vectornator="http://vectornator.io" xml:space="preserve" width="100%" height="100%" stroke-miterlimit="10" style="fill-rule:nonzero;clip-rule:evenodd;stroke-linecap:round;stroke-linejoin:round" version="1.1" viewBox="0 0 128 128"><defs><linearGradient id="b" x1="0" x2="1" y1="0" y2="0" gradientTransform="translate(-203.237 55.023) scale(516.474)" gradientUnits="userSpaceOnUse"><stop offset="0" stop-color="#fff"/><stop offset=".981" stop-color="#fff" stop-opacity=".462"/></linearGradient><linearGradient id="c" x1="0" x2="1" y1="0" y2="0" gradientTransform="translate(-203.237 55.023) scale(516.474)" gradientUnits="userSpaceOnUse"><stop offset="0" stop-color="#fff"/><stop offset=".981" stop-color="#fff" stop-opacity=".462"/></linearGradient><linearGradient id="d" x1="0" x2="1" y1="0" y2="0" gradientTransform="matrix(.1822 -14.105 -18.5103 -.2927 63.954 110.911)" gradientUnits="userSpaceOnUse"><stop offset="0" stop-color="#999"/><stop offset="1" stop-color="#fff"/></linearGradient><linearGradient id="e" x1="0" x2="1" y1="0" y2="0" gradientTransform="matrix(15.9382 -15.6865 -11.5128 -11.5453 59.154 118.194)" gradientUnits="userSpaceOnUse"><stop offset="0" stop-color="#fff" stop-opacity=".462"/><stop offset="1" stop-color="#fff"/></linearGradient><linearGradient id="f" x1="0" x2="1" y1="0" y2="0" gradientTransform="matrix(15.9546 -16.6149 22.5747 22.0932 60.074 120.178)" gradientUnits="userSpaceOnUse"><stop offset="0" stop-color="#999"/><stop offset="1" stop-color="#fff"/></linearGradient><linearGradient id="g" x1="0" x2="1" y1="0" y2="0" gradientTransform="matrix(15.0639 13.5858 9.56514 -11.3093 48.097 98.57)" gradientUnits="userSpaceOnUse"><stop offset="0" stop-color="#999"/><stop offset="1" stop-color="#fff"/></linearGradient><linearGradient id="h" x1="0" x2="1" y1="0" y2="0" gradientTransform="matrix(.1617 21.171 -22.0215 -.60568 62.38 86.931)" gradientUnits="userSpaceOnUse"><stop offset="0" stop-color="#fff"/><stop offset="1" stop-color="#b3b3b3" stop-opacity=".7"/></linearGradient><linearGradient id="i" x1="0" x2="1" y1="0" y2="0" gradientTransform="matrix(-31.7225 30.5476 21.9592 23.4315 87.787 92.06)" gradientUnits="userSpaceOnUse"><stop offset="0" stop-color="#fff"/><stop offset="1" stop-color="#b3b3b3" stop-opacity=".6"/></linearGradient><linearGradient id="j" x1="0" x2="1" y1="0" y2="0" gradientTransform="matrix(-20.1925 -20.3659 -15.0488 14.5214 59.09 112.197)" gradientUnits="userSpaceOnUse"><stop offset="0" stop-color="#fff"/><stop offset="1" stop-color="#b3b3b3" stop-opacity=".6"/></linearGradient><linearGradient id="k" x1="0" x2="1" y1="0" y2="0" gradientTransform="matrix(-68.2446 -106.495 93.446 -59.8827 104.568 117.419)" gradientUnits="userSpaceOnUse"><stop offset="0" stop-color="#8c8c8c" stop-opacity=".573"/><stop offset="1" stop-color="#fff" stop-opacity=".9"/></linearGradient><linearGradient id="l" x1="0" x2="1" y1="0" y2="0" gradientTransform="matrix(-1.83864 41.5411 -39.0544 1.83756 74.714 87.481)" gradientUnits="userSpaceOnUse"><stop offset="0" stop-color="#fff"/><stop offset=".981" stop-color="#fff" stop-opacity=".462"/></linearGradient><linearGradient id="n" x1="0" x2="1" y1="0" y2="0" gradientTransform="matrix(-2.37336 35.5904 -33.5283 .82703 65.068 94.912)" gradientUnits="userSpaceOnUse"><stop offset="0" stop-color="#fff"/><stop offset=".981" stop-color="#fff" stop-opacity=".462"/></linearGradient><filter id="m" width="24.679" height="53.963" x="51.661" y="34.616" color-interpolation-filters="sRGB" filterUnits="userSpaceOnUse"><feGaussianBlur in="SourceGraphic" result="Blur" stdDeviation="2.25"/></filter><filter id="o" width="27.154" height="54.608" x="50.423" y="33.379" color-interpolation-filters="sRGB" filterUnits="userSpaceOnUse"><feGaussianBlur in="SourceGraphic" result="Blur" stdDeviation="2.745"/></filter></defs><rect x="0" y="0" width="128" height="128" fill="#000"/><g><g fill-rule="nonzero" opacity="1"><path fill="url(#h)" d="M64 107.282L70.7146 100.637L70.7146 83.5168L70.7146 80.7044L57.2854 80.7044L57.2854 83.5168L57.2854 100.637L64 107.282Z" opacity="1"/><path fill="url(#i)" d="M84.7596 89.2739C83.1714 89.2735 81.5705 89.8844 80.3539 91.089L70.7143 100.641L60.3521 110.897C60.145 111.102 60.0486 111.359 59.8763 111.584C57.9969 114.038 58.0944 117.524 60.3521 119.761C62.7842 122.172 66.7126 122.171 69.1458 119.761L89.1476 99.9533C91.6134 97.5116 91.6124 93.5317 89.1476 91.089C87.9316 89.8839 86.3477 89.2742 84.7596 89.2739Z" opacity="1"/><path fill="url(#j)" d="M43.258 89.2915C41.6699 89.2915 40.0687 89.8841 38.8523 91.089C36.3871 93.5312 36.3871 97.5111 38.8523 99.9533L60.2111 121.118C62.6438 123.528 66.5722 123.528 69.0048 121.118C71.4701 118.676 71.4701 114.696 69.0048 112.254L64 107.284L57.2857 100.641L47.6461 91.089C46.4298 89.8841 44.8462 89.2915 43.258 89.2915Z" opacity="1"/></g><path fill="url(#k)" fill-rule="nonzero" d="M59.8864 5.07441C55.1761 5.07441 50.7572 5.88156 46.7004 7.44114C42.6435 9.00071 39.0384 11.1797 35.881 13.9778C32.7237 16.7759 30.1306 20.0029 28.1047 23.7265C26.0874 27.4341 24.7881 31.4293 24.1601 35.7291C24.1127 35.7188 23.9179 35.566 23.8784 35.5601C17.3717 34.5959 12.3382 36.3234 7.59304 40.4062C4.59747 42.9837 3.38063 44.9156 2.01433 47.7882C0.648025 50.6608-0.0142962 53.8544-0.0142967 57.4241C-0.0142967 61.8061 1.02443 65.7406 3.08499 69.2578C5.14555 72.7749 7.99165 75.5872 11.7066 77.654C15.4216 79.7208 19.7358 80.7533 24.6673 80.7533L33.1762 80.7533L82.7084 80.7533L91.2173 80.7533L98.9937 80.7533C103.107 80.7533 106.909 80.0148 110.433 78.5556C113.957 77.0964 117.047 75.0788 119.674 72.4697C122.302 69.8607 124.349 66.8492 125.817 63.3973C127.284 59.9454 128.02 56.1995 128.014 52.1835C128 42.1298 124.323 34.7495 116.857 29.1361C108.837 23.1062 100.806 22.7884 100.515 22.7685C99.0285 22.6669 93.4688 22.7291 90.9919 24.5154C90.4083 22.5178 89.4151 20.8067 88.3435 19.2184C87.1623 17.4679 85.833 15.8419 84.3989 14.2032C81.5806 11.4204 78.1895 9.20013 74.1431 7.55384C70.0968 5.90754 65.3449 5.07441 59.8864 5.07441Z" opacity="1"/><path vectornator:blendMode="lighten" vectornator:blur="4.5" fill="url(#l)" fill-rule="nonzero" d="M70.7146 82.9543L70.7146 63.5136L70.7146 46.3931C70.7146 43.0123 67.4128 40.241 64 40.241C60.5872 40.241 57.2854 43.0123 57.2854 46.3931L57.2854 63.5136L57.2854 82.9543L70.7146 82.9543Z" filter="url(#m)" opacity="1"/><path vectornator:blendMode="luminosity" vectornator:blur="5.49" fill="url(#n)" fill-rule="nonzero" d="M70.7146 81.1244L70.7146 63.5136L70.7146 46.3931C70.7146 43.0123 67.4128 40.241 64 40.241C60.5872 40.241 57.2854 43.0123 57.2854 46.3931L57.2854 63.5136L57.2854 81.1244L70.7146 81.1244Z" filter="url(#o)" opacity=".642"/></g></svg>