<svg xmlns="http://www.w3.org/2000/svg" xmlns:xlink="http://www.w3.org/1999/xlink" viewBox="0,0,256,256" width="100px" height="100px" fill-rule="nonzero"><defs><linearGradient x1="18.964" y1="-8.673" x2="19.044" y2="52.832" gradientUnits="userSpaceOnUse" id="color-1"><stop offset="0" stop-color="#97f8ff"></stop><stop offset="0.217" stop-color="#6adcfe"></stop><stop offset="0.467" stop-color="#3cc1fd" stop-opacity="0.96078"></stop><stop offset="0.69" stop-color="#1badfd" stop-opacity="0.96078"></stop><stop offset="0.875" stop-color="#000000" stop-opacity="0"></stop><stop offset="1" stop-color="#90a8ff" stop-opacity="0"></stop></linearGradient><linearGradient x1="29" y1="18.382" x2="29" y2="40.429" gradientUnits="userSpaceOnUse" id="color-2"><stop offset="0" stop-color="#e4beff" stop-opacity="0.56078"></stop><stop offset="1" stop-color="#dca6ff" stop-opacity="0.63137"></stop></linearGradient><linearGradient x1="18.949" y1="8.526" x2="40.597" y2="52.624" gradientUnits="userSpaceOnUse" id="color-3"><stop offset="0" stop-color="#f6e9ff" stop-opacity="0"></stop><stop offset="1" stop-color="#e4beff" stop-opacity="0.56078"></stop></linearGradient></defs><g fill="none" fill-rule="nonzero" stroke="none" stroke-width="1" stroke-linecap="butt" stroke-linejoin="miter" stroke-miterlimit="10" stroke-dasharray="" stroke-dashoffset="0" font-family="none" font-weight="none" font-size="none" text-anchor="none" style="mix-blend-mode: normal"><g transform="scale(5.33333,5.33333)"><path d="M15,36.2v-18.2c0,-1.66 1.34,-3 3,-3h18.2v15c0,3.42 -2.78,6.2 -6.2,6.2z" fill-opacity="0.9098" fill="#6b5dff" opacity="0.1"></path><path d="M15,35.4v-17.4c0,-1.66 1.34,-3 3,-3h17.4v15c0,2.98 -2.42,5.4 -5.4,5.4z" fill-opacity="0.9098" fill="#6b5dff" opacity="0.2"></path><path d="M15,34.6v-16.6c0,-1.66 1.34,-3 3,-3h16.6v15c0,2.54 -2.06,4.6 -4.6,4.6z" fill-opacity="0.9098" fill="#6b5dff" opacity="0.3"></path><path d="M15,33.8v-15.8c0,-1.66 1.34,-3 3,-3h15.8v15c0,2.1 -1.7,3.8 -3.8,3.8z" fill-opacity="0.9098" fill="#6b5dff" opacity="0.4"></path><path d="M30,5h-22c-1.657,0 -3,1.343 -3,3v22c0,1.657 1.343,3 3,3h22c1.657,0 3,-1.343 3,-3v-22c0,-1.657 -1.343,-3 -3,-3z" fill="url(#color-1)"></path><path d="M18,13c-2.76,0 -5,2.24 -5,5v15h17c1.66,0 3,-1.34 3,-3v-17z" fill-opacity="0.9098" fill="#6b5dff" opacity="0.05"></path><path d="M18,13.4c-2.54,0 -4.6,2.06 -4.6,4.6v15h16.6c1.66,0 3,-1.34 3,-3v-16.6z" fill-opacity="0.9098" fill="#6b5dff" opacity="0.1"></path><path d="M13.8,33v-15c0,-2.32 1.88,-4.2 4.2,-4.2h15v16.2c0,1.66 -1.34,3 -3,3z" fill-opacity="0.9098" fill="#6b5dff" opacity="0.2"></path><path d="M14.2,33v-15c0,-2.1 1.7,-3.8 3.8,-3.8h15v15.8c0,1.66 -1.34,3 -3,3z" fill-opacity="0.9098" fill="#6b5dff" opacity="0.3"></path><path d="M14.6,33v-15c0,-1.88 1.52,-3.4 3.4,-3.4h15v15.4c0,1.66 -1.34,3 -3,3z" fill-opacity="0.9098" fill="#6b5dff" opacity="0.4"></path><path d="M40,15h-22c-1.657,0 -3,1.343 -3,3v22c0,1.657 1.343,3 3,3h22c1.657,0 3,-1.343 3,-3v-22c0,-1.657 -1.343,-3 -3,-3z" fill="url(#color-2)"></path><path d="M18,42.5c-1.378,0 -2.5,-1.121 -2.5,-2.5v-22c0,-1.378 1.122,-2.5 2.5,-2.5h22c1.378,0 2.5,1.122 2.5,2.5v22c0,1.379 -1.122,2.5 -2.5,2.5h-22M18,43h22c1.657,0 3,-1.343 3,-3v-22c0,-1.657 -1.343,-3 -3,-3h-22c-1.657,0 -3,1.343 -3,3v22c0,1.657 1.343,3 3,3z" fill="url(#color-3)"></path></g></g></svg>