<svg xmlns="http://www.w3.org/2000/svg" width="100" height="100" viewBox="0 0 256 256"><defs><linearGradient id="a" x1="18.964" x2="19.044" y1="-8.673" y2="52.832" gradientUnits="userSpaceOnUse"><stop offset="0" stop-color="#97f8ff"/><stop offset=".217" stop-color="#6adcfe"/><stop offset=".467" stop-color="#3cc1fd" stop-opacity=".961"/><stop offset=".69" stop-color="#1badfd" stop-opacity=".961"/><stop offset=".875" stop-opacity="0"/><stop offset="1" stop-color="#90a8ff" stop-opacity="0"/></linearGradient><linearGradient id="b" x1="29" x2="29" y1="18.382" y2="40.429" gradientUnits="userSpaceOnUse"><stop offset="0" stop-color="#e4beff" stop-opacity=".561"/><stop offset="1" stop-color="#dca6ff" stop-opacity=".631"/></linearGradient><linearGradient id="c" x1="18.949" x2="40.597" y1="8.526" y2="52.624" gradientUnits="userSpaceOnUse"><stop offset="0" stop-color="#f6e9ff" stop-opacity="0"/><stop offset="1" stop-color="#e4beff" stop-opacity=".561"/></linearGradient></defs><g fill="none" stroke-miterlimit="10" font-family="none" font-size="none" font-weight="none" style="mix-blend-mode:normal" text-anchor="none"><path fill="#6b5dff" fill-opacity=".91" d="M80 193.067V96c0-8.853 7.147-16 16-16h97.067v80c0 18.24-14.827 33.067-33.067 33.067z" opacity=".1"/><path fill="#6b5dff" fill-opacity=".91" d="M80 188.8V96c0-8.853 7.147-16 16-16h92.8v80c0 15.893-12.907 28.8-28.8 28.8z" opacity=".2"/><path fill="#6b5dff" fill-opacity=".91" d="M80 184.533V96c0-8.853 7.147-16 16-16h88.533v80c0 13.547-10.986 24.533-24.533 24.533z" opacity=".3"/><path fill="#6b5dff" fill-opacity=".91" d="M80 180.267V96c0-8.853 7.147-16 16-16h84.267v80c0 11.2-9.067 20.267-20.267 20.267z" opacity=".4"/><path fill="url(#a)" d="M30 5H8a3 3 0 0 0-3 3v22a3 3 0 0 0 3 3h22a3 3 0 0 0 3-3V8a3 3 0 0 0-3-3z" transform="scale(5.33333)"/><path fill="#6b5dff" fill-opacity=".91" d="M96 69.333C81.28 69.333 69.333 81.28 69.333 96v80H160c8.853 0 16-7.147 16-16V69.333z" opacity=".05"/><path fill="#6b5dff" fill-opacity=".91" d="M96 71.467c-13.547 0-24.533 10.986-24.533 24.533v80H160c8.853 0 16-7.147 16-16V71.467z" opacity=".1"/><path fill="#6b5dff" fill-opacity=".91" d="M73.6 176V96c0-12.373 10.027-22.4 22.4-22.4h80V160c0 8.853-7.147 16-16 16z" opacity=".2"/><path fill="#6b5dff" fill-opacity=".91" d="M75.733 176V96c0-11.2 9.067-20.267 20.267-20.267h80V160c0 8.853-7.147 16-16 16z" opacity=".3"/><path fill="#6b5dff" fill-opacity=".91" d="M77.867 176V96c0-10.027 8.106-18.133 18.133-18.133h80V160c0 8.853-7.147 16-16 16z" opacity=".4"/><path fill="url(#b)" d="M40 15H18a3 3 0 0 0-3 3v22a3 3 0 0 0 3 3h22a3 3 0 0 0 3-3V18a3 3 0 0 0-3-3z" transform="scale(5.33333)"/><path fill="url(#c)" d="M18 42.5a2.503 2.503 0 0 1-2.5-2.5V18c0-1.378 1.122-2.5 2.5-2.5h22c1.378 0 2.5 1.122 2.5 2.5v22c0 1.379-1.122 2.5-2.5 2.5H18m0 .5h22a3 3 0 0 0 3-3V18a3 3 0 0 0-3-3H18a3 3 0 0 0-3 3v22a3 3 0 0 0 3 3z" transform="scale(5.33333)"/></g></svg>