<?xml version="1.0" encoding="UTF-8" standalone="no"?>
<!DOCTYPE svg PUBLIC "-//W3C//DTD SVG 1.1//EN" "http://www.w3.org/Graphics/SVG/1.1/DTD/svg11.dtd">
<!-- Created with Vectornator (http://vectornator.io/) -->
<svg height="100%" stroke-miterlimit="10" style="fill-rule:nonzero;clip-rule:evenodd;stroke-linecap:round;stroke-linejoin:round;" version="1.1" viewBox="0 0 600 600" width="100%" xml:space="preserve" xmlns="http://www.w3.org/2000/svg" xmlns:vectornator="http://vectornator.io" xmlns:xlink="http://www.w3.org/1999/xlink">
<defs>
<linearGradient gradientTransform="matrix(-42.9951 154.954 -153.958 -46.1811 136.788 93.018)" gradientUnits="userSpaceOnUse" id="LinearGradient" x1="0" x2="1" y1="0" y2="0">
<stop offset="0" stop-color="#60105f"/>
<stop offset="1" stop-color="#54155e"/>
</linearGradient>
<linearGradient gradientTransform="matrix(15.7943 4.83303 -4.50511 15.8949 83.3477 223.067)" gradientUnits="userSpaceOnUse" id="LinearGradient_2" x1="0" x2="1" y1="0" y2="0">
<stop offset="0" stop-color="#523253"/>
<stop offset="1" stop-color="#523253" stop-opacity="0"/>
</linearGradient>
<linearGradient gradientTransform="matrix(10.6084 2.99006 -2.77269 10.6804 126.441 80.2395)" gradientUnits="userSpaceOnUse" id="LinearGradient_3" x1="0" x2="1" y1="0" y2="0">
<stop offset="0" stop-color="#c1bfc3"/>
<stop offset="1" stop-color="#c1bfc3" stop-opacity="0"/>
</linearGradient>
<linearGradient gradientTransform="matrix(-6.86447 -2.32522 2.18018 -6.90428 151.499 83.8241)" gradientUnits="userSpaceOnUse" id="LinearGradient_4" x1="0" x2="1" y1="0" y2="0">
<stop offset="0" stop-color="#b0a1bf"/>
<stop offset="1" stop-color="#b0a1bf" stop-opacity="0"/>
</linearGradient>
<radialGradient cx="0" cy="0" gradientTransform="matrix(-2.48301 9.21665 -11.0619 -3.22775 143.531 62.7411)" gradientUnits="userSpaceOnUse" id="RadialGradient" r="1">
<stop offset="0.21" stop-color="#ece8f2"/>
<stop offset="1" stop-color="#ece8f2" stop-opacity="0"/>
</radialGradient>
<linearGradient gradientTransform="matrix(10.7248 3.34018 -3.11686 10.7921 77.528 249.28)" gradientUnits="userSpaceOnUse" id="LinearGradient_5" x1="0" x2="1" y1="0" y2="0">
<stop offset="0" stop-color="#a8a6ad"/>
<stop offset="1" stop-color="#a8a6ad" stop-opacity="0"/>
</linearGradient>
<linearGradient gradientTransform="matrix(1.74224 -9.82367 9.74348 1.93274 84.9006 274.251)" gradientUnits="userSpaceOnUse" id="LinearGradient_6" x1="0" x2="1" y1="0" y2="0">
<stop offset="0" stop-color="#968fa1"/>
<stop offset="1" stop-color="#968fa1" stop-opacity="0"/>
</linearGradient>
<radialGradient cx="0" cy="0" gradientTransform="matrix(13.3708 36.8034 -36.9126 13.1581 81.8186 240.654)" gradientUnits="userSpaceOnUse" id="RadialGradient_2" r="1">
<stop offset="0.661" stop-color="#8f6eaf" stop-opacity="0"/>
<stop offset="0.918" stop-color="#8f6eaf"/>
</radialGradient>
<linearGradient gradientTransform="matrix(-25.8856 25.9052 -25.9052 -25.8856 201.277 66.5761)" gradientUnits="userSpaceOnUse" id="LinearGradient_7" x1="0" x2="1" y1="0" y2="0">
<stop offset="0" stop-color="#ffd459"/>
<stop offset="1" stop-color="#ffa271"/>
</linearGradient>
<linearGradient gradientTransform="matrix(-15.0476 15.0629 -15.0629 -15.0476 103.807 137.314)" gradientUnits="userSpaceOnUse" id="LinearGradient_8" x1="0" x2="1" y1="0" y2="0">
<stop offset="0" stop-color="#ffd465"/>
<stop offset="1" stop-color="#ffaf36"/>
</linearGradient>
<linearGradient gradientTransform="matrix(-19.3489 19.3685 -19.3685 -19.3489 167.995 176.834)" gradientUnits="userSpaceOnUse" id="LinearGradient_9" x1="0" x2="1" y1="0" y2="0">
<stop offset="0" stop-color="#ffd465"/>
<stop offset="1" stop-color="#ffaf36"/>
</linearGradient>
<radialGradient cx="0" cy="0" gradientTransform="matrix(-7.50734 9.67033 -9.04461 -7.02156 163.054 111.435)" gradientUnits="userSpaceOnUse" id="RadialGradient_3" r="1">
<stop offset="0" stop-color="#ffd463"/>
<stop offset="1" stop-color="#e68f2b"/>
</radialGradient>
<radialGradient cx="0" cy="0" gradientTransform="matrix(0 13.4653 -11.7381 0 159.462 109.267)" gradientUnits="userSpaceOnUse" id="RadialGradient_4" r="1">
<stop offset="0.797" stop-color="#e37a42" stop-opacity="0"/>
<stop offset="1" stop-color="#e37a42"/>
</radialGradient>
<radialGradient cx="0" cy="0" gradientTransform="matrix(-7.50734 9.67033 -9.04461 -7.02156 133.657 221.572)" gradientUnits="userSpaceOnUse" id="RadialGradient_5" r="1">
<stop offset="0" stop-color="#ffd463"/>
<stop offset="1" stop-color="#e68f2b"/>
</radialGradient>
<radialGradient cx="0" cy="0" gradientTransform="matrix(0 13.4653 -11.7381 0 130.059 219.411)" gradientUnits="userSpaceOnUse" id="RadialGradient_6" r="1">
<stop offset="0.797" stop-color="#e37a42" stop-opacity="0"/>
<stop offset="1" stop-color="#e37a42"/>
</radialGradient>
<radialGradient cx="0" cy="0" gradientTransform="matrix(-7.21223 9.29024 -8.6891 -6.74555 67.376 162.502)" gradientUnits="userSpaceOnUse" id="RadialGradient_7" r="1">
<stop offset="0" stop-color="#ffd463"/>
<stop offset="1" stop-color="#e68f2b"/>
</radialGradient>
<radialGradient cx="0" cy="0" gradientTransform="matrix(0 12.936 -11.2767 0 63.9257 160.415)" gradientUnits="userSpaceOnUse" id="RadialGradient_8" r="1">
<stop offset="0.797" stop-color="#e37a42" stop-opacity="0"/>
<stop offset="1" stop-color="#e37a42"/>
</radialGradient>
<radialGradient cx="0" cy="0" gradientTransform="matrix(-6.02003 7.75457 -7.25279 -5.63051 118.885 65.3112)" gradientUnits="userSpaceOnUse" id="RadialGradient_9" r="1">
<stop offset="0" stop-color="#ffd463"/>
<stop offset="1" stop-color="#e68f2b"/>
</radialGradient>
<radialGradient cx="0" cy="0" gradientTransform="matrix(0 10.7976 -9.41265 0 116.005 63.5807)" gradientUnits="userSpaceOnUse" id="RadialGradient_10" r="1">
<stop offset="0.869" stop-color="#e37a42" stop-opacity="0"/>
<stop offset="1" stop-color="#e37a42"/>
</radialGradient>
</defs>
<g id="Layer">
<g opacity="1">
<g opacity="1">
<g opacity="1">
<path d="M140.705 28.4869C141.668 27.9781 142.68 28.8544 143.728 28.6194C146.298 30.4338 142.299 33.5886 140.398 31.7117C140.024 30.7439 140.029 29.3515 140.705 28.4869Z" fill="#efefef" fill-rule="nonzero" opacity="0" stroke="none"/>
<path d="M113.737 190.609C114.662 190.33 115.698 190.49 116.474 191.026C116.783 192.52 115.75 194.661 113.832 194.317C111.541 194.309 112.106 191.135 113.737 190.609Z" fill="#efefef" fill-rule="nonzero" opacity="0" stroke="none"/>
<path d="M180.646 65.6525C181.916 65.3803 184.202 65.7447 183.602 67.4054C184.001 69.441 181.29 69.2133 180.029 68.5576C179.679 67.5846 179.19 66.0527 180.646 65.6525Z" fill="#ffcc02" fill-rule="nonzero" opacity="0" stroke="none"/>
<path d="M79.005 104.958C80.5494 103.94 80.7931 106.36 80.8741 107.316C80.2671 108.93 77.8285 108.535 76.5516 107.934C75.8892 106.134 77.8316 105.756 79.005 104.958Z" fill="#ffcc02" fill-rule="nonzero" opacity="0" stroke="none"/>
</g>
<g opacity="1">
<path d="M132.174 78.7145C132.608 62.7694 149.693 72.4333 150.284 74.4484L138.555 116.224L121.109 113.326L132.174 78.7145Z" fill="#ff0000" fill-rule="nonzero" opacity="1" stroke="none"/>
<path d="M121.363 104.931C124.91 94.2891 126.057 82.8437 130.923 72.6137C132.379 69.5155 136.268 68.7354 139.535 68.2477C142.499 67.6292 145.181 69.3626 147.984 69.9925C150.303 70.6635 150.451 73.0206 151.406 74.7151C150.926 78.6428 149.501 82.3853 148.274 86.1404C147.052 93.7705 143.975 100.987 142.578 108.543L141.535 111.765C139.683 117.979 137.515 122.696 136.225 129.073L133.671 138.124C132.075 147.742 128.408 157.005 126.076 166.541C123.504 173.838 118.731 192.542 116.056 199.818C114.82 204.603 113.887 207.216 112.556 212.864C111.278 218.291 109.924 221.669 109.266 224.645C106.568 236.833 102.624 248.707 99.0953 260.648C97.7019 262.369 98.3109 265.559 95.6128 266.149C91.0782 266.813 85.0959 265.965 82.9197 261.598C85.5012 246.863 89.4783 232.385 93.1041 217.877C94.5586 212.324 95.5949 206.619 97.3134 201.106C101.039 185.888 110.649 150.029 110.649 150.029C110.649 150.029 112.538 141.74 113.449 138.5C114.85 132.718 117.489 120.3 118.836 114.972C119.361 112.892 119.885 110.821 120.439 108.777L121.363 104.931ZM124.342 111.351C127.201 99.3948 130.785 87.5329 132.968 75.3558L132.973 75.3425C133.551 73.7308 134.225 71.8522 136.116 71.2295C139.819 69.9614 144.551 70.0559 147.494 72.908C148.447 73.7446 147.614 74.865 146.888 75.4933C143.568 76.3105 139.786 75.8415 136.836 74.0815C135.736 74.1497 135 75.6066 135.996 76.3133C138.574 79.0508 142.797 79.636 146.407 79.5105C143.404 90.3051 140.368 101.174 137.327 111.973C133.843 114.89 127.654 114.519 124.342 111.351Z" fill="#efefef" fill-rule="evenodd" opacity="1" stroke="none"/>
<path d="M100.917 61.2775C137.561 40.2925 182.755 60.7594 185.173 94.6642C187.114 121.874 167.024 136.082 153.176 141.94C139.329 147.799 115.603 152.577 96.4874 142.213C77.4886 131.912 88.3338 118.583 104.216 121.013C123.247 123.924 152.062 138.547 159.125 159.643C164.931 193.127 132.901 199.299 124.256 196.719" fill="none" opacity="0" stroke="#ffe452" stroke-dasharray="421.3641357421875" stroke-linecap="round" stroke-linejoin="round" stroke-opacity="0.75" stroke-width="5.51764"/>
</g>
<path d="M83.0415 105.565C81.0103 110.545 104.623 122.268 135.781 131.749C166.939 141.23 193.845 144.879 195.876 139.899C197.907 134.92 174.295 123.197 143.136 113.716C111.978 104.234 85.0726 100.585 83.0415 105.565Z" fill="#510b13" fill-opacity="0" fill-rule="nonzero" opacity="1" stroke="#ffe452" stroke-dasharray="110.6254653930664" stroke-linecap="round" stroke-linejoin="round" stroke-opacity="0.75" stroke-width="7.53127"/>
<g opacity="1">
<g opacity="1">
<path d="M97.8401 264.386C96.1193 270.389 93.0775 272.928 87.1121 271.084C81.1467 269.239 80.786 265.712 82.5068 259.708L130.942 69.8385C132.663 63.8355 138.199 59.9868 144.165 61.8317C150.13 63.6765 152.529 69.6041 150.808 75.6071L97.8401 264.386Z" fill="url(#LinearGradient)" fill-rule="nonzero" opacity="1" stroke="none"/>
<path d="M97.8401 264.386C96.1193 270.389 93.0775 272.928 87.1121 271.084C81.1467 269.239 80.786 265.712 82.5068 259.708L130.942 69.8385C132.663 63.8355 138.199 59.9868 144.165 61.8317C150.13 63.6765 152.529 69.6041 150.808 75.6071L97.8401 264.386Z" fill="url(#LinearGradient_2)" fill-rule="nonzero" opacity="1" stroke="none"/>
</g>
<g opacity="1">
<path d="M134.455 87.1096L91.3584 253.808" fill="#000000" fill-rule="nonzero" opacity="1" stroke="none"/>
<path d="M125.565 88.6052L130.942 69.8385C132.663 63.8355 138.199 59.9868 144.165 61.8317C150.13 63.6765 152.529 69.6041 150.808 75.6071L145.452 94.2798L125.558 88.6089L125.565 88.6052Z" fill="#cfc9d8" fill-rule="nonzero" opacity="1" stroke="none"/>
<path d="M125.565 88.6052L130.942 69.8385C132.663 63.8355 138.199 59.9868 144.165 61.8317C150.13 63.6765 152.529 69.6041 150.808 75.6071L145.452 94.2798L125.558 88.6089L125.565 88.6052Z" fill="url(#LinearGradient_3)" fill-rule="nonzero" opacity="1" stroke="none"/>
<path d="M125.565 88.6052L130.942 69.8385C132.663 63.8355 138.199 59.9868 144.165 61.8317C150.13 63.6765 152.529 69.6041 150.808 75.6071L145.452 94.2798L125.558 88.6089L125.565 88.6052Z" fill="url(#LinearGradient_4)" fill-rule="nonzero" opacity="1" stroke="none"/>
<path d="M125.565 88.6052L130.942 69.8385C132.663 63.8355 138.199 59.9868 144.165 61.8317C150.13 63.6765 152.529 69.6041 150.808 75.6071L145.452 94.2798L125.558 88.6089L125.565 88.6052Z" fill="url(#RadialGradient)" fill-rule="nonzero" opacity="1" stroke="none"/>
<path d="M87.0867 271.07C93.0554 272.932 96.1129 270.396 97.847 264.382L103.128 245.97L87.2015 241.261L82.5138 259.705C80.7957 265.695 81.1385 269.212 87.0867 271.07Z" fill="#cfc6dd" fill-rule="nonzero" opacity="1" stroke="none"/>
<path d="M87.0867 271.07C93.0554 272.932 96.1129 270.396 97.847 264.382L103.128 245.97L87.2015 241.261L82.5138 259.705C80.7957 265.695 81.1385 269.212 87.0867 271.07Z" fill="url(#LinearGradient_5)" fill-rule="nonzero" opacity="1" stroke="none"/>
<path d="M87.0867 271.07C93.0554 272.932 96.1129 270.396 97.847 264.382L103.128 245.97L87.2015 241.261L82.5138 259.705C80.7957 265.695 81.1385 269.212 87.0867 271.07Z" fill="url(#LinearGradient_6)" fill-rule="nonzero" opacity="1" stroke="none"/>
<path d="M87.0867 271.07C93.0554 272.932 96.1129 270.396 97.847 264.382L103.128 245.97L87.2015 241.261L82.5138 259.705C80.7957 265.695 81.1385 269.212 87.0867 271.07Z" fill="url(#RadialGradient_2)" fill-rule="nonzero" opacity="1" stroke="none"/>
</g>
</g>
<g opacity="0">
<path d="M79.2396 126.503C75.8426 134.068 107.239 149.781 149.365 161.599C191.491 173.417 228.394 176.864 231.791 169.299C235.188 161.734 203.792 146.021 161.666 134.204C119.54 122.386 82.6365 118.938 79.2396 126.503Z" fill="none" opacity="1" stroke="#ffe452" stroke-dasharray="265.897372648303" stroke-linecap="round" stroke-linejoin="round" stroke-width="8.86324"/>
<path d="M71.7986 125.797C68.7846 133.187 103.823 150.582 150.058 164.651C196.294 178.72 236.218 184.135 239.232 176.746C242.246 169.356 207.208 151.961 160.973 137.892C114.737 123.823 74.8126 118.408 71.7986 125.797Z" fill="#510b13" fill-opacity="0" fill-rule="nonzero" opacity="0" stroke="#ffe452" stroke-dasharray="164.15545317016878" stroke-linecap="round" stroke-linejoin="round" stroke-opacity="0.75" stroke-width="8.20777"/>
</g>
<path d="M69.1582 144.106C66.3922 151.845 103.227 168.153 151.43 180.533C199.634 192.912 240.953 196.674 243.719 188.936C246.485 181.197 209.65 164.888 161.447 152.509C113.243 140.13 71.9242 136.367 69.1582 144.106Z" fill="#510b13" fill-opacity="0" fill-rule="nonzero" opacity="0" stroke="#ffe452" stroke-dasharray="169.0437086487808" stroke-linecap="round" stroke-linejoin="round" stroke-opacity="0.96" stroke-width="8.45219"/>
<path d="M83.0415 105.565C81.0103 110.545 104.623 122.268 135.781 131.749C166.939 141.23 193.845 144.879 195.876 139.899C197.907 134.92 174.295 123.197 143.136 113.716C111.978 104.234 85.0726 100.585 83.0415 105.565Z" fill="#510b13" fill-opacity="0" fill-rule="nonzero" opacity="1" stroke="#ffe452" stroke-dasharray="110.6254653930664" stroke-linecap="round" stroke-linejoin="round" stroke-opacity="0.75" stroke-width="7.53127"/>
<g opacity="1">
<path d="M178.676 90.2675C178.151 87.8553 176.304 85.9496 173.909 85.3503C170.872 84.5202 167.923 83.3938 165.106 81.9873C163.875 81.4139 163.087 80.1786 163.087 78.8202C163.087 77.4617 163.875 76.2264 165.106 75.653C167.924 74.2487 170.872 73.1245 173.909 72.2965C176.304 71.6973 178.151 69.7915 178.676 67.3793C179.407 63.742 180.596 59.2492 182.398 54.861C182.836 53.6169 184.011 52.7846 185.33 52.7846C186.649 52.7846 187.824 53.6169 188.262 54.861C190.065 59.2492 191.253 63.742 191.978 67.3793C192.504 69.7907 194.351 71.6959 196.745 72.2965C199.403 72.9952 202.276 74.0793 205.502 75.653C208.192 76.9591 208.192 80.6813 205.502 81.9873C202.702 83.3918 199.771 84.5182 196.751 85.3503C194.357 85.9477 192.507 87.8503 191.978 90.261C191.133 94.5436 189.887 98.7371 188.256 102.786C187.815 104.025 186.642 104.853 185.327 104.853C184.012 104.853 182.839 104.025 182.398 102.786C180.767 98.737 179.521 94.5435 178.676 90.261L178.676 90.2675Z" fill="url(#LinearGradient_7)" fill-rule="evenodd" opacity="1" stroke="none"/>
<path d="M90.6691 151.087C90.3641 149.684 89.2892 148.575 87.8963 148.227C86.1319 147.746 84.419 147.093 82.7822 146.277C82.0668 145.944 81.6096 145.226 81.6096 144.436C81.6096 143.647 82.0668 142.929 82.7822 142.595C84.6663 141.681 86.3473 141.046 87.8963 140.64C89.2879 140.293 90.3624 139.187 90.6691 137.786C91.0957 135.668 91.7864 133.063 92.8326 130.503C93.0886 129.782 93.771 129.3 94.5364 129.3C95.3018 129.3 95.9843 129.782 96.2403 130.503C97.2864 133.058 97.9771 135.668 98.3986 137.786C98.7065 139.186 99.7805 140.292 101.171 140.64C102.72 141.046 104.386 141.676 106.265 142.595C106.981 142.929 107.438 143.647 107.438 144.436C107.438 145.226 106.981 145.944 106.265 146.277C104.386 147.191 102.72 147.821 101.171 148.227C99.7791 148.576 98.7048 149.684 98.3986 151.087C97.9771 153.204 97.2864 155.81 96.2403 158.364C95.9843 159.085 95.3018 159.567 94.5364 159.567C93.771 159.567 93.0886 159.085 92.8326 158.364C91.8863 156.011 91.1637 153.575 90.6742 151.087L90.6691 151.087Z" fill="url(#LinearGradient_8)" fill-rule="evenodd" opacity="1" stroke="none"/>
<path d="M151.107 194.544C150.715 192.74 149.333 191.315 147.542 190.868C145.271 190.248 143.066 189.405 140.96 188.354C140.044 187.923 139.459 187.002 139.459 185.99C139.459 184.977 140.044 184.056 140.96 183.626C143.389 182.45 145.544 181.634 147.542 181.112C149.333 180.664 150.715 179.239 151.107 177.435C151.65 174.719 152.544 171.362 153.883 168.077C154.209 167.145 155.089 166.521 156.077 166.521C157.065 166.521 157.945 167.145 158.271 168.077C159.616 171.362 160.504 174.719 161.046 177.435C161.44 179.238 162.822 180.663 164.612 181.112C166.597 181.634 168.739 182.444 171.155 183.619C172.079 184.047 172.67 184.972 172.67 185.99C172.67 187.007 172.079 187.933 171.155 188.36C168.739 189.536 166.597 190.345 164.612 190.868C162.822 191.316 161.44 192.741 161.046 194.544C160.504 197.267 159.61 200.617 158.271 203.902C157.945 204.834 157.065 205.458 156.077 205.458C155.089 205.458 154.209 204.834 153.883 203.902C152.666 200.877 151.737 197.744 151.107 194.544Z" fill="url(#LinearGradient_9)" fill-rule="evenodd" opacity="1" stroke="none"/>
<path d="M151.352 114.622C151.352 110.142 154.983 106.511 159.462 106.511C163.942 106.511 167.573 110.142 167.573 114.622C167.573 119.101 163.942 122.732 159.462 122.732C154.983 122.732 151.352 119.101 151.352 114.622Z" fill="url(#RadialGradient_3)" fill-rule="nonzero" opacity="1" stroke="none"/>
<path d="M151.352 114.622C151.352 110.142 154.983 106.511 159.462 106.511C163.942 106.511 167.573 110.142 167.573 114.622C167.573 119.101 163.942 122.732 159.462 122.732C154.983 122.732 151.352 119.101 151.352 114.622Z" fill="url(#RadialGradient_4)" fill-rule="nonzero" opacity="1" stroke="none"/>
<path d="M121.948 224.766C121.948 220.286 125.58 216.655 130.059 216.655C134.538 216.655 138.169 220.286 138.169 224.766C138.169 229.245 134.538 232.876 130.059 232.876C125.58 232.876 121.948 229.245 121.948 224.766Z" fill="url(#RadialGradient_5)" fill-rule="nonzero" opacity="1" stroke="none"/>
<path d="M121.948 224.766C121.948 220.286 125.58 216.655 130.059 216.655C134.538 216.655 138.169 220.286 138.169 224.766C138.169 229.245 134.538 232.876 130.059 232.876C125.58 232.876 121.948 229.245 121.948 224.766Z" fill="url(#RadialGradient_6)" fill-rule="nonzero" opacity="1" stroke="none"/>
<path d="M56.1352 165.561C56.1352 161.259 59.6231 157.771 63.9257 157.771C68.2282 157.771 71.7162 161.259 71.7162 165.561C71.7162 169.864 68.2282 173.352 63.9257 173.352C59.6231 173.352 56.1352 169.864 56.1352 165.561Z" fill="url(#RadialGradient_7)" fill-rule="nonzero" opacity="1" stroke="none"/>
<path d="M56.1352 165.561C56.1352 161.259 59.6231 157.771 63.9257 157.771C68.2282 157.771 71.7162 161.259 71.7162 165.561C71.7162 169.864 68.2282 173.352 63.9257 173.352C59.6231 173.352 56.1352 169.864 56.1352 165.561Z" fill="url(#RadialGradient_8)" fill-rule="nonzero" opacity="1" stroke="none"/>
<path d="M109.501 67.8711C109.501 64.279 112.413 61.367 116.005 61.367C119.597 61.367 122.509 64.279 122.509 67.8711C122.509 71.4631 119.597 74.3751 116.005 74.3751C112.413 74.3751 109.501 71.4631 109.501 67.8711Z" fill="url(#RadialGradient_9)" fill-rule="nonzero" opacity="1" stroke="none"/>
<path d="M109.501 67.8711C109.501 64.279 112.413 61.367 116.005 61.367C119.597 61.367 122.509 64.279 122.509 67.8711C122.509 71.4631 119.597 74.3751 116.005 74.3751C112.413 74.3751 109.501 71.4631 109.501 67.8711Z" fill="url(#RadialGradient_10)" fill-rule="nonzero" opacity="1" stroke="none"/>
</g>
</g>
<g opacity="1">
<path d="M160.646 31.1492C161.61 30.6403 162.621 31.5166 163.669 31.2816C166.24 33.096 162.24 36.2509 160.339 34.3739C159.965 33.4061 159.97 32.0138 160.646 31.1492Z" fill="#efefef" fill-rule="nonzero" opacity="0" stroke="none"/>
<path d="M133.678 193.271C134.603 192.992 135.639 193.152 136.415 193.688C136.725 195.182 135.691 197.323 133.774 196.979C131.483 196.972 132.047 193.797 133.678 193.271Z" fill="#efefef" fill-rule="nonzero" opacity="0" stroke="none"/>
<path d="M200.587 68.3148C201.858 68.0425 204.143 68.407 203.543 70.0677C203.943 72.1032 201.231 71.8755 199.97 71.2198C199.62 70.2468 199.131 68.715 200.587 68.3148Z" fill="#ffcc02" fill-rule="nonzero" opacity="0" stroke="none"/>
<path d="M98.9462 107.62C100.491 106.602 100.734 109.022 100.815 109.978C100.208 111.592 97.7697 111.197 96.4928 110.596C95.8303 108.796 97.7727 108.418 98.9462 107.62Z" fill="#ffcc02" fill-rule="nonzero" opacity="0" stroke="none"/>
</g>
<g opacity="1">
<path d="M152.115 81.3767C152.549 65.4316 169.634 75.0955 170.225 77.1106L158.497 118.886L141.05 115.988L152.115 81.3767Z" fill="#ff0000" fill-rule="nonzero" opacity="1" stroke="none"/>
<path d="M141.304 107.593C144.851 96.9513 145.998 85.506 150.864 75.2759C152.32 72.1778 156.21 71.3976 159.476 70.91C162.44 70.2915 165.122 72.0248 167.925 72.6547C170.244 73.3257 170.392 75.6828 171.347 77.3774C170.867 81.3051 169.442 85.0476 168.215 88.8027C166.994 96.4327 163.916 103.649 162.519 111.205L161.476 114.427C159.624 120.642 157.456 125.358 156.166 131.735L153.613 140.786C152.016 150.404 148.349 159.667 146.017 169.204C143.445 176.5 138.673 195.205 135.997 202.48C134.761 207.265 133.828 209.878 132.497 215.526C131.219 220.954 129.865 224.331 129.207 227.307C126.509 239.495 122.565 251.369 119.036 263.31C117.643 265.031 118.252 268.221 115.554 268.811C111.019 269.476 105.037 268.627 102.861 264.26C105.442 249.525 109.419 235.047 113.045 220.539C114.5 214.986 115.536 209.281 117.255 203.768C120.98 188.55 130.59 152.691 130.59 152.691C130.59 152.691 132.48 144.402 133.39 141.163C134.791 135.381 137.43 122.962 138.777 117.634C139.302 115.554 139.826 113.483 140.381 111.44L141.304 107.593ZM144.283 114.013C147.142 102.057 150.726 90.1951 152.909 78.0181L152.914 78.0047C153.492 76.3931 154.166 74.5145 156.057 73.8917C159.76 72.6237 164.492 72.7181 167.436 75.5702C168.388 76.4069 167.555 77.5272 166.829 78.1556C163.509 78.9728 159.727 78.5038 156.777 76.7437C155.677 76.812 154.941 78.2689 155.937 78.9755C158.515 81.7131 162.738 82.2983 166.348 82.1728C163.345 92.9673 160.309 103.836 157.269 114.636C153.785 117.552 147.595 117.181 144.283 114.013Z" fill="#efefef" fill-rule="evenodd" opacity="1" stroke="none"/>
</g>
</g>
</g>
</svg>
