<svg xmlns="http://www.w3.org/2000/svg" width="100" height="100" viewBox="0 0 256 256"><defs><linearGradient id="a" x1="24" x2="24" y1="3.076" y2="36.076" gradientUnits="userSpaceOnUse"><stop offset="0" stop-color="#f197ff" stop-opacity=".8"/><stop offset=".125" stop-color="#ff8ef3" stop-opacity=".839"/><stop offset=".328" stop-color="#fe76f5" stop-opacity=".851"/><stop offset=".584" stop-color="#fe4ef3" stop-opacity=".859"/><stop offset=".88" stop-color="#cc18fc" stop-opacity=".702"/><stop offset="1" stop-color="#db00fc" stop-opacity=".812"/></linearGradient><linearGradient id="b" x1="14" x2="34" y1="11" y2="11" gradientUnits="userSpaceOnUse"><stop offset="0" stop-color="#ffc700" stop-opacity=".502"/><stop offset="1" stop-color="#ffce01" stop-opacity=".31"/></linearGradient><linearGradient id="c" x1="24" x2="24" y1="21.467" y2="1.467" gradientUnits="userSpaceOnUse"><stop offset="0" stop-color="#f5ebff" stop-opacity="0"/><stop offset="1" stop-color="#ffcf14" stop-opacity="0"/></linearGradient></defs><g fill="none" stroke-miterlimit="10" font-family="none" font-size="none" font-weight="none" style="mix-blend-mode:normal" text-anchor="none"><path fill="#c710ff" fill-opacity=".941" d="M142.667 96V69.333c0-8.096-6.571-14.666-14.667-14.666s-14.667 6.57-14.667 14.666V96z" opacity=".4"/><path fill="#c710ff" fill-opacity=".941" d="M146.667 96V69.333c0-10.298-8.368-18.666-18.667-18.666-10.299 0-18.667 8.368-18.667 18.666V96z" opacity=".3"/><path fill="#c710ff" fill-opacity=".941" d="M150.667 96V69.333c0-12.501-10.166-22.666-22.667-22.666-12.501 0-22.667 10.165-22.667 22.666V96z" opacity=".2"/><path fill="#c710ff" fill-opacity=".941" d="M154.667 96V69.333c0-14.704-11.963-26.666-26.667-26.666-14.704 0-26.667 11.962-26.667 26.666V96z" opacity=".1"/><path fill="url(#a)" d="M42 34h-2v-9a1 1 0 0 0-1-1H26V13a2 2 0 1 0-4 0v11H9a1 1 0 0 0-1 1v9H6a1 1 0 0 0-1 1v8a1 1 0 0 0 1 1h8a1 1 0 0 0 1-1v-8a1 1 0 0 0-1-1h-2v-6h10v6h-2a1 1 0 0 0-1 1v8a1 1 0 0 0 1 1h8a1 1 0 0 0 1-1v-8a1 1 0 0 0-1-1h-2v-6h10v6h-2a1 1 0 0 0-1 1v8a1 1 0 0 0 1 1h8a1 1 0 0 0 1-1v-8a1 1 0 0 0-1-1z" transform="scale(5.33333)"/><path fill="#d30bf9" fill-opacity=".749" d="M138.667 69.333c0-5.893-4.774-10.666-10.667-10.666s-10.667 4.773-10.667 10.666v28.8h21.334z" opacity=".4"/><path fill="#d30bf9" fill-opacity=".749" d="M138.667 69.333c0-5.893-4.774-10.666-10.667-10.666s-10.667 4.773-10.667 10.666v30.934h21.334z" opacity=".3"/><path fill="#d30bf9" fill-opacity=".749" d="M138.667 69.333c0-5.893-4.774-10.666-10.667-10.666s-10.667 4.773-10.667 10.666V102.4h21.334z" opacity=".2"/><path fill="#d30bf9" fill-opacity=".749" d="M138.667 69.333c0-5.893-4.774-10.666-10.667-10.666s-10.667 4.773-10.667 10.666v35.2h21.334z" opacity=".1"/><path fill="#d30bf9" fill-opacity=".749" d="M138.667 69.333c0-5.893-4.774-10.666-10.667-10.666s-10.667 4.773-10.667 10.666v37.334h21.334z" opacity=".05"/><path fill="url(#b)" d="M15 4h18a1 1 0 0 1 1 1v12a1 1 0 0 1-1 1H15a1 1 0 0 1-1-1V5a1 1 0 0 1 1-1z" transform="scale(5.33333)"/><path fill="url(#c)" d="M33 4.5a.5.5 0 0 1 .5.5v12a.5.5 0 0 1-.5.5H15a.5.5 0 0 1-.5-.5V5a.5.5 0 0 1 .5-.5h18m0-.5H15a1 1 0 0 0-1 1v12a1 1 0 0 0 1 1h18a1 1 0 0 0 1-1V5a1 1 0 0 0-1-1z" transform="scale(5.33333)"/></g></svg>