<svg xmlns="http://www.w3.org/2000/svg"  viewBox="0 0 48 48" width="100px" height="100px" baseProfile="basic"><path fill="#118bef" d="M26.75,18v-5c0-1.518-1.232-2.75-2.75-2.75s-2.75,1.232-2.75,2.75v5H26.75z" opacity=".4"/><path fill="#118bef" d="M27.5,18v-5c0-1.931-1.569-3.5-3.5-3.5c-1.931,0-3.5,1.569-3.5,3.5v5H27.5z" opacity=".3"/><path fill="#118bef" d="M28.25,18v-5c0-2.344-1.906-4.25-4.25-4.25s-4.25,1.906-4.25,4.25v5H28.25z" opacity=".2"/><path fill="#118bef" d="M29,18v-5c0-2.757-2.243-5-5-5s-5,2.243-5,5v5H29z" opacity=".1"/><linearGradient id="hLOMnlN1AoQ2g79Bsfzh_a" x1="24" x2="24" y1="3.076" y2="36.076" gradientUnits="userSpaceOnUse"><stop offset="0" stop-color="#97f8ff"/><stop offset=".125" stop-color="#8ef3ff"/><stop offset=".328" stop-color="#76e4fe"/><stop offset=".584" stop-color="#4eccfe"/><stop offset=".88" stop-color="#18abfc"/><stop offset="1" stop-color="#009cfc"/></linearGradient><path fill="url(#hLOMnlN1AoQ2g79Bsfzh_a)" d="M42,34h-2v-9c0-0.552-0.448-1-1-1H26V13c0-1.105-0.895-2-2-2s-2,0.895-2,2v11H9	c-0.552,0-1,0.448-1,1v9H6c-0.552,0-1,0.448-1,1v8c0,0.552,0.448,1,1,1h8c0.552,0,1-0.448,1-1v-8c0-0.552-0.448-1-1-1h-2v-6h10v6h-2	c-0.552,0-1,0.448-1,1v8c0,0.552,0.448,1,1,1h8c0.552,0,1-0.448,1-1v-8c0-0.552-0.448-1-1-1h-2v-6h10v6h-2c-0.552,0-1,0.448-1,1v8	c0,0.552,0.448,1,1,1h8c0.552,0,1-0.448,1-1v-8C43,34.448,42.552,34,42,34z"/><path fill="#0b88f9" d="M26,13c0-1.105-0.895-2-2-2s-2,0.895-2,2v5.4h4V13z" opacity=".4"/><path fill="#0b88f9" d="M26,13c0-1.105-0.895-2-2-2s-2,0.895-2,2v5.8h4V13z" opacity=".3"/><path fill="#0b88f9" d="M26,13c0-1.105-0.895-2-2-2s-2,0.895-2,2v6.2h4V13z" opacity=".2"/><path fill="#0b88f9" d="M26,13c0-1.105-0.895-2-2-2s-2,0.895-2,2v6.6h4V13z" opacity=".1"/><path fill="#0b88f9" d="M26,13c0-1.105-0.895-2-2-2s-2,0.895-2,2v7h4V13z" opacity=".05"/><linearGradient id="hLOMnlN1AoQ2g79Bsfzh_b" x1="14" x2="34" y1="11" y2="11" gradientUnits="userSpaceOnUse"><stop offset="0" stop-color="#daa6ff" stop-opacity=".6"/><stop offset="1" stop-color="#dca6ff" stop-opacity=".4"/></linearGradient><path fill="url(#hLOMnlN1AoQ2g79Bsfzh_b)" d="M15,4h18c0.552,0,1,0.448,1,1v12	c0,0.552-0.448,1-1,1H15c-0.552,0-1-0.448-1-1V5C14,4.448,14.448,4,15,4z"/><linearGradient id="hLOMnlN1AoQ2g79Bsfzh_c" x1="24" x2="24" y1="21.467" y2="1.467" gradientUnits="userSpaceOnUse"><stop offset="0" stop-color="#f5ebff" stop-opacity=".2"/><stop offset="1" stop-color="#daa6ff" stop-opacity=".4"/></linearGradient><path fill="url(#hLOMnlN1AoQ2g79Bsfzh_c)" d="M33,4.5c0.276,0,0.5,0.224,0.5,0.5v12	c0,0.276-0.224,0.5-0.5,0.5H15c-0.276,0-0.5-0.224-0.5-0.5V5c0-0.276,0.224-0.5,0.5-0.5H33 M33,4H15c-0.552,0-1,0.448-1,1v12	c0,0.552,0.448,1,1,1h18c0.552,0,1-0.448,1-1V5C34,4.448,33.552,4,33,4L33,4z"/></svg>