<svg xmlns="http://www.w3.org/2000/svg" xmlns:xlink="http://www.w3.org/1999/xlink" viewBox="0,0,256,256" width="100px" height="100px" fill-rule="nonzero"><defs><linearGradient x1="24" y1="3.076" x2="24" y2="36.076" gradientUnits="userSpaceOnUse" id="color-1"><stop offset="0" stop-color="#f197ff" stop-opacity="0.8"></stop><stop offset="0.125" stop-color="#ff8ef3" stop-opacity="0.83922"></stop><stop offset="0.328" stop-color="#fe76f5" stop-opacity="0.85098"></stop><stop offset="0.584" stop-color="#fe4ef3" stop-opacity="0.85882"></stop><stop offset="0.88" stop-color="#cc18fc" stop-opacity="0.70196"></stop><stop offset="1" stop-color="#db00fc" stop-opacity="0.81176"></stop></linearGradient><linearGradient x1="14" y1="11" x2="34" y2="11" gradientUnits="userSpaceOnUse" id="color-2"><stop offset="0" stop-color="#ffc700" stop-opacity="0.50196"></stop><stop offset="1" stop-color="#ffce01" stop-opacity="0.3098"></stop></linearGradient><linearGradient x1="24" y1="21.467" x2="24" y2="1.467" gradientUnits="userSpaceOnUse" id="color-3"><stop offset="0" stop-color="#f5ebff" stop-opacity="0"></stop><stop offset="1" stop-color="#ffcf14" stop-opacity="0"></stop></linearGradient></defs><g fill="none" fill-rule="nonzero" stroke="none" stroke-width="1" stroke-linecap="butt" stroke-linejoin="miter" stroke-miterlimit="10" stroke-dasharray="" stroke-dashoffset="0" font-family="none" font-weight="none" font-size="none" text-anchor="none" style="mix-blend-mode: normal"><g transform="scale(5.33333,5.33333)"><path d="M26.75,18v-5c0,-1.518 -1.232,-2.75 -2.75,-2.75c-1.518,0 -2.75,1.232 -2.75,2.75v5z" fill-opacity="0.94118" fill="#c710ff" opacity="0.4"></path><path d="M27.5,18v-5c0,-1.931 -1.569,-3.5 -3.5,-3.5c-1.931,0 -3.5,1.569 -3.5,3.5v5z" fill-opacity="0.94118" fill="#c710ff" opacity="0.3"></path><path d="M28.25,18v-5c0,-2.344 -1.906,-4.25 -4.25,-4.25c-2.344,0 -4.25,1.906 -4.25,4.25v5z" fill-opacity="0.94118" fill="#c710ff" opacity="0.2"></path><path d="M29,18v-5c0,-2.757 -2.243,-5 -5,-5c-2.757,0 -5,2.243 -5,5v5z" fill-opacity="0.94118" fill="#c710ff" opacity="0.1"></path><path d="M42,34h-2v-9c0,-0.552 -0.448,-1 -1,-1h-13v-11c0,-1.105 -0.895,-2 -2,-2c-1.105,0 -2,0.895 -2,2v11h-13c-0.552,0 -1,0.448 -1,1v9h-2c-0.552,0 -1,0.448 -1,1v8c0,0.552 0.448,1 1,1h8c0.552,0 1,-0.448 1,-1v-8c0,-0.552 -0.448,-1 -1,-1h-2v-6h10v6h-2c-0.552,0 -1,0.448 -1,1v8c0,0.552 0.448,1 1,1h8c0.552,0 1,-0.448 1,-1v-8c0,-0.552 -0.448,-1 -1,-1h-2v-6h10v6h-2c-0.552,0 -1,0.448 -1,1v8c0,0.552 0.448,1 1,1h8c0.552,0 1,-0.448 1,-1v-8c0,-0.552 -0.448,-1 -1,-1z" fill="url(#color-1)"></path><path d="M26,13c0,-1.105 -0.895,-2 -2,-2c-1.105,0 -2,0.895 -2,2v5.4h4z" fill-opacity="0.74902" fill="#d30bf9" opacity="0.4"></path><path d="M26,13c0,-1.105 -0.895,-2 -2,-2c-1.105,0 -2,0.895 -2,2v5.8h4z" fill-opacity="0.74902" fill="#d30bf9" opacity="0.3"></path><path d="M26,13c0,-1.105 -0.895,-2 -2,-2c-1.105,0 -2,0.895 -2,2v6.2h4z" fill-opacity="0.74902" fill="#d30bf9" opacity="0.2"></path><path d="M26,13c0,-1.105 -0.895,-2 -2,-2c-1.105,0 -2,0.895 -2,2v6.6h4z" fill-opacity="0.74902" fill="#d30bf9" opacity="0.1"></path><path d="M26,13c0,-1.105 -0.895,-2 -2,-2c-1.105,0 -2,0.895 -2,2v7h4z" fill-opacity="0.74902" fill="#d30bf9" opacity="0.05"></path><path d="M15,4h18c0.552,0 1,0.448 1,1v12c0,0.552 -0.448,1 -1,1h-18c-0.552,0 -1,-0.448 -1,-1v-12c0,-0.552 0.448,-1 1,-1z" fill="url(#color-2)"></path><path d="M33,4.5c0.276,0 0.5,0.224 0.5,0.5v12c0,0.276 -0.224,0.5 -0.5,0.5h-18c-0.276,0 -0.5,-0.224 -0.5,-0.5v-12c0,-0.276 0.224,-0.5 0.5,-0.5h18M33,4h-18c-0.552,0 -1,0.448 -1,1v12c0,0.552 0.448,1 1,1h18c0.552,0 1,-0.448 1,-1v-12c0,-0.552 -0.448,-1 -1,-1z" fill="url(#color-3)"></path></g></g></svg>