<svg xmlns="http://www.w3.org/2000/svg" width="100" height="100" baseProfile="basic" viewBox="0 0 48 48"><path fill="#118bef" d="M26.75 18v-5a2.751 2.751 0 0 0-5.5 0v5h5.5z" opacity=".4"/><path fill="#118bef" d="M27.5 18v-5c0-1.931-1.569-3.5-3.5-3.5a3.503 3.503 0 0 0-3.5 3.5v5h7z" opacity=".3"/><path fill="#118bef" d="M28.25 18v-5c0-2.344-1.906-4.25-4.25-4.25s-4.25 1.906-4.25 4.25v5h8.5z" opacity=".2"/><path fill="#118bef" d="M29 18v-5c0-2.757-2.243-5-5-5s-5 2.243-5 5v5h10z" opacity=".1"/><linearGradient id="a" x1="24" x2="24" y1="3.076" y2="36.076" gradientUnits="userSpaceOnUse"><stop offset="0" stop-color="#97f8ff"/><stop offset=".125" stop-color="#8ef3ff"/><stop offset=".328" stop-color="#76e4fe"/><stop offset=".584" stop-color="#4eccfe"/><stop offset=".88" stop-color="#18abfc"/><stop offset="1" stop-color="#009cfc"/></linearGradient><path fill="url(#a)" d="M42 34h-2v-9a1 1 0 0 0-1-1H26V13a2 2 0 1 0-4 0v11H9a1 1 0 0 0-1 1v9H6a1 1 0 0 0-1 1v8a1 1 0 0 0 1 1h8a1 1 0 0 0 1-1v-8a1 1 0 0 0-1-1h-2v-6h10v6h-2a1 1 0 0 0-1 1v8a1 1 0 0 0 1 1h8a1 1 0 0 0 1-1v-8a1 1 0 0 0-1-1h-2v-6h10v6h-2a1 1 0 0 0-1 1v8a1 1 0 0 0 1 1h8a1 1 0 0 0 1-1v-8a1 1 0 0 0-1-1z"/><path fill="#0b88f9" d="M26 13a2 2 0 1 0-4 0v5.4h4V13z" opacity=".4"/><path fill="#0b88f9" d="M26 13a2 2 0 1 0-4 0v5.8h4V13z" opacity=".3"/><path fill="#0b88f9" d="M26 13a2 2 0 1 0-4 0v6.2h4V13z" opacity=".2"/><path fill="#0b88f9" d="M26 13a2 2 0 1 0-4 0v6.6h4V13z" opacity=".1"/><path fill="#0b88f9" d="M26 13a2 2 0 1 0-4 0v7h4v-7z" opacity=".05"/><linearGradient id="b" x1="14" x2="34" y1="11" y2="11" gradientUnits="userSpaceOnUse"><stop offset="0" stop-color="#daa6ff" stop-opacity=".6"/><stop offset="1" stop-color="#dca6ff" stop-opacity=".4"/></linearGradient><path fill="url(#b)" d="M15 4h18a1 1 0 0 1 1 1v12a1 1 0 0 1-1 1H15a1 1 0 0 1-1-1V5a1 1 0 0 1 1-1z"/><linearGradient id="c" x1="24" x2="24" y1="21.467" y2="1.467" gradientUnits="userSpaceOnUse"><stop offset="0" stop-color="#f5ebff" stop-opacity=".2"/><stop offset="1" stop-color="#daa6ff" stop-opacity=".4"/></linearGradient><path fill="url(#c)" d="M33 4.5a.5.5 0 0 1 .5.5v12a.5.5 0 0 1-.5.5H15a.5.5 0 0 1-.5-.5V5a.5.5 0 0 1 .5-.5h18m0-.5H15a1 1 0 0 0-1 1v12a1 1 0 0 0 1 1h18a1 1 0 0 0 1-1V5a1 1 0 0 0-1-1z"/></svg>