<svg xmlns="http://www.w3.org/2000/svg" xmlns:xlink="http://www.w3.org/1999/xlink" viewBox="0,0,256,256" width="100%" height="100%" fill-rule="nonzero"><defs><linearGradient x1="26.92" y1="44.234" x2="26.92" y2="10.812" gradientUnits="userSpaceOnUse" id="color-1"><stop offset="0" stop-color="#c99fff"></stop><stop offset="0.219" stop-color="#be85ff"></stop><stop offset="1" stop-color="#962aff" stop-opacity="0.85882"></stop></linearGradient><linearGradient x1="24" y1="50.935" x2="24" y2="9.301" gradientUnits="userSpaceOnUse" id="color-2"><stop offset="0" stop-color="#04afff" stop-opacity="0.2"></stop><stop offset="1" stop-color="#038bff" stop-opacity="0.4"></stop></linearGradient><linearGradient x1="25.331" y1="26.015" x2="15.306" y2="9.74" gradientUnits="userSpaceOnUse" id="color-3"><stop offset="0" stop-color="#ffffff" stop-opacity="0.3"></stop><stop offset="1" stop-color="#e5f3ff" stop-opacity="0"></stop></linearGradient></defs><rect x="0" y="0" width="256" height="256" fill="#000"/><g fill="none" fill-rule="nonzero" stroke="none" stroke-width="1" stroke-linecap="butt" stroke-linejoin="miter" stroke-miterlimit="10" stroke-dasharray="" stroke-dashoffset="0" style="mix-blend-mode: normal"><g transform="scale(5.33333,5.33333)"><path d="M23.58,42.083c-0.413,-0.658 -0.579,-1.442 -0.579,-2.219l-0.001,-34.864c0,-0.552 0.448,-1 1,-1v0c0.552,0 1,0.448 1,1l0.001,34.846c0,1.022 0.693,1.99 1.705,2.135c1.009,0.145 1.903,-0.47 2.194,-1.355c0.128,-0.389 0.528,-0.624 0.937,-0.624v0c0.663,0 1.166,0.647 0.954,1.274c-0.533,1.582 -2.031,2.724 -3.791,2.724c-1.379,0 -2.651,-0.69 -3.42,-1.917z" fill="url(#color-1)"></path><path d="M22.999,6.051v21.013c0.332,-0.05 0.665,-0.08 0.999,-0.08c0.334,0 0.669,0.03 1.001,0.081v-21.013c-0.333,-0.018 -0.663,-0.052 -1,-0.052c-0.337,0 -0.667,0.034 -1,0.051z" fill-opacity="0.4902" fill="#6817dd" opacity="0.05"></path><path d="M22.999,6.449v20.215c0.332,-0.049 0.665,-0.077 0.999,-0.077c0.334,0 0.669,0.029 1.001,0.077v-20.215c-0.333,-0.017 -0.663,-0.049 -1,-0.049c-0.337,0 -0.667,0.032 -1,0.049z" fill-opacity="0.4902" fill="#6817dd" opacity="0.15"></path><path d="M22.999,6.847v19.417c0.332,-0.047 0.665,-0.074 0.999,-0.074c0.334,0 0.669,0.028 1.001,0.074v-19.417c-0.333,-0.016 -0.663,-0.047 -1,-0.047c-0.337,0 -0.667,0.031 -1,0.047z" fill-opacity="0.4902" fill="#6817dd" opacity="0.2"></path><path d="M22.999,7.245v18.619c0.332,-0.045 0.665,-0.071 0.999,-0.071c0.334,0 0.669,0.027 1.001,0.071v-18.619c-0.333,-0.015 -0.663,-0.045 -1,-0.045c-0.337,0 -0.667,0.03 -1,0.045z" fill-opacity="0.4902" fill="#6817dd" opacity="0.25"></path><path d="M22.999,7.643v17.821c0.332,-0.043 0.665,-0.068 0.999,-0.068c0.334,0 0.669,0.025 1.001,0.068v-17.821c-0.333,-0.015 -0.663,-0.043 -1,-0.043c-0.337,0 -0.667,0.029 -1,0.043z" fill-opacity="0.4902" fill="#6817dd" opacity="0.3"></path><path d="M20,8.355l0.001,17.533c1.213,-0.499 2.606,-0.889 3.999,-0.889c1.394,0 2.787,0.391 4.001,0.89l-0.001,-17.534c-1.295,-0.229 -2.63,-0.355 -4,-0.355c-1.37,0 -2.705,0.126 -4,0.355z" fill="#ac64ff" opacity="0.1"></path><path d="M20.75,8.253l0.001,17.357c1.023,-0.355 2.134,-0.61 3.249,-0.61c1.116,0 2.227,0.255 3.251,0.611l-0.001,-17.358c-1.061,-0.152 -2.141,-0.253 -3.25,-0.253c-1.109,0 -2.189,0.101 -3.25,0.253z" fill="#ac64ff" opacity="0.2"></path><path d="M21.5,8.15v17.229c0.808,-0.226 1.651,-0.38 2.499,-0.38c0.849,0 1.693,0.154 2.501,0.38v-17.229c-0.821,-0.09 -1.652,-0.15 -2.5,-0.15c-0.848,0 -1.679,0.06 -2.5,0.15z" fill="#ac64ff" opacity="0.3"></path><path d="M22.25,8.079v17.118c0.575,-0.118 1.161,-0.198 1.749,-0.198c0.589,0 1.175,0.08 1.751,0.198v-17.118c-0.578,-0.044 -1.159,-0.079 -1.75,-0.079c-0.591,0 -1.172,0.035 -1.75,0.079z" fill="#ac64ff" opacity="0.4"></path><path d="M22.999,8.041v17.023c0.332,-0.041 0.665,-0.065 0.999,-0.065c0.334,0 0.669,0.024 1.001,0.065v-17.023c-0.333,-0.014 -0.663,-0.041 -1,-0.041c-0.337,0 -0.667,0.027 -1,0.041z" fill-opacity="0.54118" fill="#b383ff"></path><path d="M42.877,26.457c0.932,0.544 2.075,-0.251 1.926,-1.32c-1.404,-10.093 -10.184,-17.137 -20.803,-17.137c-10.619,0 -19.399,7.044 -20.804,17.137c-0.149,1.069 0.994,1.864 1.926,1.32c1.261,-0.736 2.981,-1.458 4.878,-1.458c2.62,0 4.566,1.379 5.548,2.268c0.44,0.398 1.081,0.456 1.579,0.134c1.356,-0.876 4.115,-2.401 6.872,-2.401c2.757,0 5.516,1.526 6.872,2.401c0.498,0.322 1.14,0.264 1.579,-0.134c0.981,-0.888 2.927,-2.268 5.548,-2.268c1.898,0 3.619,0.722 4.879,1.458z" fill="url(#color-2)"></path><path d="M24,8.5c10.42,0 18.961,7.026 20.308,16.706c0.033,0.237 -0.034,0.466 -0.189,0.644c-0.154,0.177 -0.38,0.283 -0.604,0.283c-0.133,0 -0.263,-0.036 -0.386,-0.108c-1.735,-1.013 -3.461,-1.526 -5.13,-1.526c-2.815,0 -4.894,1.502 -5.883,2.397c-0.151,0.137 -0.344,0.212 -0.543,0.212c-0.152,0 -0.3,-0.044 -0.43,-0.128c-1.436,-0.927 -4.272,-2.481 -7.144,-2.481c-2.872,0 -5.708,1.555 -7.144,2.481c-0.13,0.084 -0.278,0.128 -0.43,0.128c-0.199,0 -0.391,-0.075 -0.543,-0.212c-0.989,-0.895 -3.068,-2.397 -5.883,-2.397c-1.669,0 -3.395,0.513 -5.13,1.526c-0.122,0.071 -0.252,0.108 -0.386,0.108c-0.224,0 -0.45,-0.106 -0.604,-0.283c-0.155,-0.178 -0.222,-0.407 -0.189,-0.644c1.349,-9.68 9.89,-16.706 20.31,-16.706M24,8c-10.619,0 -19.399,7.044 -20.804,17.137c-0.116,0.831 0.549,1.496 1.288,1.496c0.212,0 0.43,-0.055 0.638,-0.176c1.261,-0.736 2.981,-1.458 4.878,-1.458c2.62,0 4.566,1.379 5.548,2.268c0.249,0.225 0.563,0.342 0.878,0.342c0.242,0 0.485,-0.068 0.701,-0.208c1.356,-0.876 4.115,-2.401 6.872,-2.401c2.757,0 5.516,1.526 6.872,2.401c0.216,0.14 0.459,0.208 0.701,0.208c0.316,0 0.629,-0.116 0.878,-0.342c0.981,-0.888 2.927,-2.268 5.548,-2.268c1.897,0 3.618,0.722 4.878,1.458c0.208,0.121 0.426,0.176 0.638,0.176c0.739,0 1.404,-0.665 1.288,-1.496c-1.403,-10.093 -10.183,-17.137 -20.802,-17.137z" fill="url(#color-3)"></path></g></g></svg>