<svg width="100%" height="100%" viewBox="0 0 100 100" xmlns="http://www.w3.org/2000/svg" xmlns:xlink="http://www.w3.org/1999/xlink" xml:space="preserve">
<defs><linearGradient id="a" x1="0" x2="1" y1="0" y2="0" gradientTransform="scale(137.3446 -137.3446) rotate(46.501 1.048 -.4)" gradientUnits="userSpaceOnUse"><stop offset="0" stop-color="#bf200a" stop-opacity=".9"/><stop offset=".209" stop-color="#d92929" stop-opacity=".96"/><stop offset=".536" stop-color="#d62b4b"/><stop offset=".794" stop-color="#d42c60"/><stop offset=".98" stop-color="#d42c67"/><stop offset="1" stop-color="#d42c67"/></linearGradient><linearGradient id="b" x1="0" x2="1" y1="0" y2="0" gradientTransform="matrix(38.5987 -38.4405 -65.0378 -64.8984 25.203 64.918)" gradientUnits="userSpaceOnUse"><stop offset="0" stop-color="snow" stop-opacity=".25"/><stop offset="1" stop-color="#fff" stop-opacity=".9"/></linearGradient><linearGradient id="c" x1="0" x2="1" y1="0" y2="0" gradientTransform="matrix(38.5987 -38.4405 -65.0378 -64.8984 25.203 64.918)" gradientUnits="userSpaceOnUse"><stop offset="0" stop-color="snow" stop-opacity=".25"/><stop offset="1" stop-color="#fff" stop-opacity=".9"/></linearGradient><linearGradient id="d" x1="0" x2="1" y1="0" y2="0" gradientTransform="matrix(109.84 -128.268 -209.692 -191.836 -14.267 127.243)" gradientUnits="userSpaceOnUse"><stop offset="0" stop-color="snow" stop-opacity=".65"/><stop offset="1" stop-color="#fff" stop-opacity=".8"/></linearGradient><linearGradient id="e" x1="0" x2="1" y1="0" y2="0" gradientTransform="matrix(109.84 -128.268 -209.692 -191.836 -14.267 127.243)" gradientUnits="userSpaceOnUse"><stop offset="0" stop-color="snow" stop-opacity=".65"/><stop offset="1" stop-color="#fff" stop-opacity=".8"/></linearGradient><linearGradient id="f" x1="0" x2="1" y1="0" y2="0" gradientTransform="matrix(-35.5262 -35.7491 -32.882 32.7699 57.97 68.412)" gradientUnits="userSpaceOnUse"><stop offset="0" stop-color="#bbb7b7" stop-opacity=".8"/><stop offset="1" stop-color="#fff"/></linearGradient><linearGradient id="g" x1="0" x2="1" y1="0" y2="0" gradientTransform="matrix(34.9398 -35.3842 -60.4399 -59.7758 23.248 70.96)" gradientUnits="userSpaceOnUse"><stop offset="0" stop-color="snow" stop-opacity=".5"/><stop offset="1" stop-color="#fff" stop-opacity=".8"/></linearGradient><linearGradient id="i" x1="0" x2="1" y1="0" y2="0" gradientTransform="matrix(34.9398 -35.3842 -60.4399 -59.7758 23.248 70.96)" gradientUnits="userSpaceOnUse"><stop offset="0" stop-color="snow" stop-opacity=".5"/><stop offset="1" stop-color="#fff" stop-opacity=".8"/></linearGradient><filter id="h" width="25.343" height="25.343" x="28.233" y="37.568" color-interpolation-filters="sRGB" filterUnits="userSpaceOnUse"><feGaussianBlur in="SourceGraphic" result="Blur" stdDeviation="1.531"/></filter><filter id="j" width="25.343" height="25.343" x="28.233" y="37.568" color-interpolation-filters="sRGB" filterUnits="userSpaceOnUse"><feGaussianBlur in="SourceGraphic" result="Blur" stdDeviation="1.531"/></filter></defs><g fill-rule="nonzero" opacity="1">
<g opacity="1"><path fill="url(#a)" opacity="1" d="M65.2478 18.1786C67.9491 18.1786 70.5409 19.1985 72.5086 21.0513L96.9114 44.0335C98.5537 45.5803 99.5 47.7442 99.5 50C99.5 52.2558 98.5537 54.4196 96.9114 55.9665L72.5086 78.9487C70.5409 80.8014 67.9492 81.8214 65.2478 81.8214L5.80357 81.8214C2.87418 81.8214 0.499997 79.4471 0.5 76.5179L0.5 23.4821C0.5 20.5529 2.87418 18.1786 5.80357 18.1786L65.2478 18.1786ZM26.9863 30.522C25.4455 30.4587 23.9483 31.0029 22.8192 32.132C20.561 34.3902 20.7148 38.2355 23.1665 40.6872L32.6687 50.1894L23.1665 59.6601C20.7148 62.1117 20.561 65.957 22.8192 68.2152C25.0774 70.4734 28.8911 70.3196 31.3428 67.868L40.845 58.3658L50.3473 67.868C52.7989 70.3196 56.6126 70.4419 58.8709 68.1837C61.1291 65.9255 60.9752 62.1117 58.5236 59.6601L49.0214 50.1894L58.5236 40.6872C60.9752 38.2355 61.1291 34.4218 58.8709 32.1636C57.7418 31.0345 56.2511 30.4968 54.7038 30.5536C53.1564 30.6103 51.5731 31.2535 50.3473 32.4793L40.845 41.9815L31.3428 32.4793C30.117 31.2535 28.5271 30.5853 26.9863 30.522Z"/><g opacity="1"><g opacity="1"><g opacity="1"><path fill="url(#b)" opacity="1" d="M32.6543 50.1798L23.1589 59.6753C20.7072 62.127 20.5624 65.922 22.8206 68.1802C25.0788 70.4384 28.898 70.3177 31.3496 67.8661L40.8451 58.3706L32.6543 50.1798Z"/><path fill="url(#c)" opacity=".8" d="M54.6897 30.5365C53.1489 30.5998 51.5664 31.2678 50.3406 32.4936L40.8451 41.9891L49.0359 50.1798L58.5314 40.6843C60.983 38.2327 61.1278 34.3894 58.8696 32.1312C57.7405 31.0021 56.2304 30.4732 54.6897 30.5365Z"/></g><g opacity=".7"><path fill="url(#d)" opacity=".8" d="M32.6543 50.1798L23.1589 59.6753C20.7072 62.127 20.5624 65.922 22.8206 68.1802C25.0788 70.4384 28.898 70.3177 31.3496 67.8661L40.8451 58.3706L32.6543 50.1798Z"/><path fill="url(#e)" opacity=".9" d="M54.6897 30.5365C53.1489 30.5998 51.5664 31.2678 50.3406 32.4936L40.8451 41.9891L49.0359 50.1798L58.5314 40.6843C60.983 38.2327 61.1278 34.3894 58.8696 32.1312C57.7405 31.0021 56.2304 30.4732 54.6897 30.5365Z"/></g></g><path fill="url(#f)" opacity="1" d="M27.0005 30.5607C25.4532 30.5039 23.9497 31.0262 22.8206 32.1553C20.5624 34.4135 20.7072 38.2327 23.1589 40.6843L32.6543 50.1798L40.8451 58.3706L50.3406 67.8661C52.7922 70.3177 56.6114 70.4625 58.8696 68.2043C61.1278 65.9461 60.983 62.127 58.5314 59.6753L49.0359 50.1798L40.8451 41.9891L31.3496 32.4936C30.1238 31.2678 28.5479 30.6174 27.0005 30.5607Z"/><path fill="url(#g)" d="M40.8451 41.3946L32.0599 50.1798L40.9642 59.0841L49.7494 50.2989L40.8451 41.3946Z" filter="url(#h)" opacity=".4"/><path fill="url(#i)" d="M40.8451 41.3946L32.0599 50.1798L40.9642 59.0841L49.7494 50.2989L40.8451 41.3946Z" filter="url(#j)" opacity=".466"/></g></g></g></svg>