<svg viewBox="0 0 100 100" width="100%" height="100%" xmlns="http://www.w3.org/2000/svg" xmlns:xlink="http://www.w3.org/1999/xlink" xml:space="preserve" stroke-miterlimit="10" style="fill-rule:nonzero;clip-rule:evenodd;stroke-linecap:round;stroke-linejoin:round"><defs>	<linearGradient id="LGX" gradientTransform="matrix(49.9227 -49.7181 -84.1185 -83.9382 29.7691 69.0626)" gradientUnits="userSpaceOnUse" x1="0" x2="1" y1="0" y2="0"><stop offset="0" stop-color="#fffafa" stop-opacity="0.25"/><stop offset="1" stop-color="#fff" stop-opacity="0.9"/></linearGradient>	<linearGradient id="LGX_2" gradientTransform="matrix(49.9227 -49.7181 -84.1185 -83.9382 29.7691 69.0626)" gradientUnits="userSpaceOnUse" x1="0" x2="1" y1="0" y2="0"><stop offset="0" stop-color="#fffafa" stop-opacity="0.25"/><stop offset="1" stop-color="#fff" stop-opacity="0.9"/></linearGradient>	<linearGradient id="LGX_3" gradientTransform="matrix(142.064 -165.899 -271.211 -248.117 -21.2805 149.672)" gradientUnits="userSpaceOnUse" x1="0" x2="1" y1="0" y2="0"><stop offset="0" stop-color="#fffafa" stop-opacity="0.65"/><stop offset="1" stop-color="#fff" stop-opacity="0.8"/></linearGradient>	<linearGradient id="LGX_4" gradientTransform="matrix(142.064 -165.899 -271.211 -248.117 -21.2805 149.672)" gradientUnits="userSpaceOnUse" x1="0" x2="1" y1="0" y2="0"><stop offset="0" stop-color="#fffafa" stop-opacity="0.65"/><stop offset="1" stop-color="#fff" stop-opacity="0.8"/></linearGradient>	<linearGradient id="LGX_5" gradientTransform="matrix(-45.9488 -46.237 -42.5288 42.3838 72.148 73.5806)" gradientUnits="userSpaceOnUse" x1="0" x2="1" y1="0" y2="0"><stop offset="0" stop-color="#bbb7b7" stop-opacity="0.8"/><stop offset="1" stop-color="#fff"/></linearGradient>	<linearGradient id="LGX_6" gradientTransform="matrix(-44.1463 -41.6251 -38.8681 40.1363 73.7093 73.2564)" gradientUnits="userSpaceOnUse" x1="0" x2="1" y1="0" y2="0"><stop offset="0" stop-color="#fffafa" stop-opacity="0.25"/><stop offset="1" stop-color="#fff" stop-opacity="0.7"/></linearGradient>	<linearGradient id="LGX_7" gradientTransform="matrix(-44.1463 -41.6251 -38.8681 40.1363 73.7093 73.2564)" gradientUnits="userSpaceOnUse" x1="0" x2="1" y1="0" y2="0"><stop offset="0" stop-color="#fffafa" stop-opacity="0.25"/><stop offset="1" stop-color="#fff" stop-opacity="0.7"/></linearGradient>	<linearGradient id="LGX_8" gradientTransform="matrix(-103.61 -122.411 -108.823 99.3658 107.957 131.249)" gradientUnits="userSpaceOnUse" x1="0" x2="1" y1="0" y2="0"><stop offset="0" stop-color="#fffafa" stop-opacity="0.25"/><stop offset="1" stop-color="#fff" stop-opacity="0.9"/></linearGradient>	<linearGradient id="LGX_9" gradientTransform="matrix(-103.61 -122.411 -108.823 99.3658 107.957 131.249)" gradientUnits="userSpaceOnUse" x1="0" x2="1" y1="0" y2="0"><stop offset="0" stop-color="#fffafa" stop-opacity="0.25"/><stop offset="1" stop-color="#fff" stop-opacity="0.9"/></linearGradient>	<linearGradient id="LGX_10" gradientTransform="matrix(-103.61 -122.411 -108.823 99.3658 107.957 131.249)" gradientUnits="userSpaceOnUse" x1="0" x2="1" y1="0" y2="0"><stop offset="0" stop-color="#fffafa" stop-opacity="0.25"/><stop offset="1" stop-color="#fff" stop-opacity="0.9"/></linearGradient>	<linearGradient id="LGX_11" gradientTransform="matrix(-103.61 -122.411 -108.823 99.3658 107.957 131.249)" gradientUnits="userSpaceOnUse" x1="0" x2="1" y1="0" y2="0"><stop offset="0" stop-color="#fffafa" stop-opacity="0.25"/><stop offset="1" stop-color="#fff" stop-opacity="0.9"/></linearGradient>	<linearGradient id="LGX_12" gradientTransform="matrix(-45.9488 -46.237 -42.5288 42.3838 72.148 73.5806)" gradientUnits="userSpaceOnUse" x1="0" x2="1" y1="0" y2="0"><stop offset="0" stop-color="#fffafa" stop-opacity="0.5"/><stop offset="1" stop-color="#fff" stop-opacity="0.8"/></linearGradient>	<linearGradient id="LGX_13" gradientTransform="matrix(46.0869 -42.889 -73.732 -76.3482 28.6838 74.9618)" gradientUnits="userSpaceOnUse" x1="0" x2="1" y1="0" y2="0"><stop offset="0" stop-color="#fffafa" stop-opacity="0.5"/><stop offset="1" stop-color="#fff" stop-opacity="0.8"/></linearGradient>	<filter id="F" color-interpolation-filters="sRGB" filterUnits="userSpaceOnUse" height="511.775" width="511.775" x="-205.18" y="-205.18"><feComponentTransfer in="SourceGraphic" result="Alpha"><feFuncA slope="0.869849" type="linear"/></feComponentTransfer><feDropShadow dx="0.707105" dy="0.707108" flood-color="#fff" flood-opacity="0.6" in="Alpha" result="Shadow" stdDeviation="1.54"/></filter>	<linearGradient id="LGX_14" gradientTransform="matrix(45.1903 -45.7651 -78.1716 -77.3127 27.2403 76.8769)" gradientUnits="userSpaceOnUse" x1="0" x2="1" y1="0" y2="0"><stop offset="0" stop-color="#fffafa" stop-opacity="0.5"/><stop offset="1" stop-color="#fff" stop-opacity="0.8"/></linearGradient>	<filter id="F_2" color-interpolation-filters="sRGB" filterUnits="userSpaceOnUse" height="511.61" width="511.61" x="180.543" y="-208.427"><feComponentTransfer in="SourceGraphic" result="Alpha"><feFuncA slope="0.35" type="linear"/></feComponentTransfer><feDropShadow dx="25.1848" dy="-2.69859" flood-color="#fff" flood-opacity="1" in="Alpha" result="Shadow" stdDeviation=".5"/><feGaussianBlur in="Shadow" result="Blur" stdDeviation="2"/></filter></defs><g id="ZXCV"><g opacity="1"><g opacity="1"><g opacity="1">	<path fill="url(#LGX)" opacity="1" stroke="none" d="M39.4063 50L27.125 62.2813C23.9541 65.4522 23.7668 70.3605 26.6875 73.2812C29.6082 76.202 34.5479 76.0459 37.7188 72.875L50 60.5938L39.4063 50Z"/>	<path fill="url(#LGX_2)" opacity="0.8" stroke="none" d="M67.9063 24.5938C65.9135 24.6756 63.8667 25.5396 62.2813 27.125L50 39.4063L60.5938 50L72.875 37.7188C76.0459 34.5479 76.2332 29.577 73.3125 26.6563C71.8521 25.1959 69.899 24.5119 67.9063 24.5938Z"/></g><g opacity="1">	<path fill="url(#LGX_3)" opacity="0.4" stroke="none" d="M39.4063 50L27.125 62.2813C23.9541 65.4522 23.7668 70.3605 26.6875 73.2812C29.6082 76.202 34.5479 76.0459 37.7188 72.875L50 60.5938L39.4063 50Z"/>	<path fill="url(#LGX_4)" opacity="0.4" stroke="none" d="M67.9063 24.5938C65.9135 24.6756 63.8667 25.5396 62.2813 27.125L50 39.4063L60.5938 50L72.875 37.7188C76.0459 34.5479 76.2332 29.577 73.3125 26.6563C71.8521 25.1959 69.899 24.5119 67.9063 24.5938Z"/></g></g>	<path fill="url(#LGX_5)" opacity="0.3" stroke="none" d="M32.0938 24.625C30.0925 24.5516 28.1479 25.2271 26.6875 26.6875C23.7668 29.6082 23.9541 34.5479 27.125 37.7188L39.4062 50L50 60.5938L62.2812 72.875C65.4522 76.0459 70.3918 76.2332 73.3125 73.3125C76.2332 70.3918 76.0459 65.4521 72.875 62.2812L60.5938 50L50 39.4062L37.7188 27.125C36.1333 25.5396 34.095 24.6984 32.0938 24.625Z"/><g opacity="1"><g opacity="1">	<path fill="url(#LGX_6)" opacity="1" stroke="none" d="M60.5938 50L50 60.5938L62.2813 72.875C65.4522 76.0459 70.3918 76.2332 73.3125 73.3125C76.2332 70.3918 76.0459 65.4521 72.875 62.2812L60.5938 50Z"/>	<path fill="url(#LGX_7)" opacity="0.8" stroke="none" d="M32.0938 24.625C30.0925 24.5516 28.1479 25.2271 26.6875 26.6875C23.7668 29.6082 23.9541 34.5479 27.125 37.7188L39.4063 50L50 39.4062L37.7188 27.125C36.1333 25.5396 34.095 24.6984 32.0938 24.625Z"/></g><g opacity="1">	<path fill="url(#LGX_8)" opacity="0.595859" stroke="none" d="M60.5938 50L50 60.5938L62.2813 72.875C65.4522 76.0459 70.3918 76.2332 73.3125 73.3125C76.2332 70.3918 76.0459 65.4521 72.875 62.2812L60.5938 50Z"/>	<path fill="url(#LGX_9)" opacity="0.595859" stroke="none" d="M32.0938 24.625C30.0925 24.5516 28.1479 25.2271 26.6875 26.6875C23.7668 29.6082 23.9541 34.5479 27.125 37.7188L39.4063 50L50 39.4062L37.7188 27.125C36.1333 25.5396 34.095 24.6984 32.0938 24.625Z"/></g></g><g opacity="1">	<path fill="url(#LGX_12)" opacity="0.2" stroke="none" d="M50 39.4063L39.4063 50L50 60.5938L60.5938 50L50 39.4063Z"/>	<path fill="url(#LGX_13)" filter="url(#F)" stroke="none" d="M50 39.4063L39.4063 50L50 60.5938L60.5938 50L50 39.4063Z"/>	<path fill="url(#LGX_14)" filter="url(#F_2)" stroke="none" d="M50 38.6374L38.6374 50L50.154 61.5166L61.5166 50.154L50 38.6374Z"/></g></g></g></svg>