<?xml version="1.0" encoding="UTF-8" standalone="no"?><!DOCTYPE svg PUBLIC "-//W3C//DTD SVG 1.1//EN" "http://www.w3.org/Graphics/SVG/1.1/DTD/svg11.dtd"><!-- Created with Vectornator (http://vectornator.io/) --><svg width="100%" height="100%" viewBox="0 0 100 100"  stroke-miterlimit="10" style="fill-rule:nonzero;clip-rule:evenodd;stroke-linecap:round;stroke-linejoin:round;" version="1.1" xml:space="preserve" xmlns="http://www.w3.org/2000/svg" xmlns:vectornator="http://vectornator.io" xmlns:xlink="http://www.w3.org/1999/xlink"><defs><linearGradient gradientTransform="matrix(1.15377 43.7493 -45.5369 -0.399309 50.0266 23.7788)" gradientUnits="userSpaceOnUse" id="LinearGradient" x1="0" x2="1" y1="0" y2="0"><stop offset="0" stop-color="#ffffff" stop-opacity="0.9"/><stop offset="0.997368" stop-color="#b3b3b3" stop-opacity="0.3"/></linearGradient><linearGradient gradientTransform="matrix(-19.749 18.5954 13.363 14.5833 67.5384 50.5768)" gradientUnits="userSpaceOnUse" id="LinearGradient_2" x1="0" x2="1" y1="0" y2="0"><stop offset="0" stop-color="#ffffff"/><stop offset="1" stop-color="#b3b3b3" stop-opacity="0.6"/></linearGradient><linearGradient gradientTransform="matrix(-19.749 18.5954 13.363 14.5833 67.5384 50.5768)" gradientUnits="userSpaceOnUse" id="LinearGradient_3" x1="0" x2="1" y1="0" y2="0"><stop offset="0" stop-color="#ffffff" stop-opacity="0.92"/><stop offset="0.569737" stop-color="#efefef" stop-opacity="0.7"/><stop offset="1" stop-color="#b3b3b3" stop-opacity="0"/></linearGradient><linearGradient gradientTransform="matrix(-17.6437 -17.6913 -13.0735 12.6895 47.405 64.2365)" gradientUnits="userSpaceOnUse" id="LinearGradient_4" x1="0" x2="1" y1="0" y2="0"><stop offset="0" stop-color="#ffffff"/><stop offset="1" stop-color="#b3b3b3" stop-opacity="0.6"/></linearGradient><linearGradient gradientTransform="matrix(-0.892472 -69.9953 -48.2198 1.06238 33.043 96.7973)" gradientUnits="userSpaceOnUse" id="LinearGradient_5" x1="0" x2="1" y1="0" y2="0"><stop offset="0" stop-color="#ffffff"/><stop offset="0.665789" stop-color="#b3b3b3" stop-opacity="0.4"/><stop offset="1" stop-color="#b3b3b3" stop-opacity="0.2"/></linearGradient><filter color-interpolation-filters="sRGB" filterUnits="userSpaceOnUse" height="75.8702" id="Filter" width="71.557" x="14.2215" y="24.8111"><feComponentTransfer in="SourceGraphic" result="Alpha"><feFuncA slope="0.3" type="linear"/></feComponentTransfer><feDropShadow dx="-0" dy="-0" flood-color="#ffffff" flood-opacity="0.2" in="Alpha" result="Shadow" stdDeviation="0.5"/></filter><linearGradient gradientTransform="matrix(-0.892472 -69.9953 -48.2198 1.06238 33.043 96.7973)" gradientUnits="userSpaceOnUse" id="LinearGradient_6" x1="0" x2="1" y1="0" y2="0"><stop offset="0" stop-color="#ffffff"/><stop offset="0.665789" stop-color="#b3b3b3" stop-opacity="0.4"/><stop offset="1" stop-color="#b3b3b3" stop-opacity="0.2"/></linearGradient><filter color-interpolation-filters="sRGB" filterUnits="userSpaceOnUse" height="78.3702" id="Filter_2" width="74.057" x="12.9715" y="23.5611"><feComponentTransfer in="SourceGraphic" result="Alpha"><feFuncA slope="0.4" type="linear"/></feComponentTransfer><feDropShadow dx="-0" dy="-0" flood-color="#ffffff" flood-opacity="0.4" in="Alpha" result="Shadow" stdDeviation="1"/></filter></defs><g id="Layer"><path d="M0 7.10543e-15L100 7.10543e-15L100 100L0 100L0 7.10543e-15Z" fill="#000" fill-rule="nonzero" opacity="1" stroke="none"/><g opacity="1"><g opacity="1"><path d="M50 0.56874C47.0602 0.56874 44.6875 2.97265 44.6875 5.91249L44.6875 26.0687L44.6875 47.0375L44.6875 54.1312L50 59.4125L55.3125 54.1312L55.3125 47.0375L55.3125 26.0687L55.3125 5.91249C55.3125 2.97265 52.9398 0.56874 50 0.56874Z" fill="url(#LinearGradient)" fill-rule="nonzero" opacity="0.7" stroke="none"/><g opacity="1"><path d="M66.4573 45.1309C65.1983 45.1306 63.9291 45.6149 62.9647 46.5699L55.3227 54.1418L47.1081 62.2727C46.9439 62.4353 46.8675 62.6392 46.7308 62.8176C45.241 64.763 45.3182 67.5261 47.1081 69.2999C49.0361 71.2108 52.1504 71.2099 54.0793 69.2999L69.936 53.597C71.8907 51.6614 71.8899 48.5063 69.936 46.5699C68.9719 45.6144 67.7163 45.1311 66.4573 45.1309Z" fill="url(#LinearGradient_2)" fill-rule="nonzero" opacity="0" stroke="none"/><path d="M66.4573 45.1309C65.1983 45.1306 63.9291 45.6149 62.9647 46.5699L55.3227 54.1418L47.1081 62.2727C46.9439 62.4353 46.8675 62.6392 46.7308 62.8176C45.241 64.763 45.3182 67.5261 47.1081 69.2999C49.0361 71.2108 52.1504 71.2099 54.0793 69.2999L69.936 53.597C71.8907 51.6614 71.8899 48.5063 69.936 46.5699C68.9719 45.6144 67.7163 45.1311 66.4573 45.1309Z" fill="url(#LinearGradient_3)" fill-rule="nonzero" opacity="0.7" stroke="none"/><path d="M33.5566 45.1448C32.2976 45.1448 31.0283 45.6146 30.064 46.5699C28.1097 48.5059 28.1097 51.661 30.064 53.597L46.9963 70.3757C48.9248 72.2861 52.0391 72.2861 53.9676 70.3757C55.922 68.4396 55.922 65.2845 53.9676 63.3485L50 59.4088L44.6772 54.1418L37.0353 46.5699C36.071 45.6146 34.8157 45.1448 33.5566 45.1448Z" fill="url(#LinearGradient_4)" fill-rule="nonzero" opacity="1" stroke="none"/></g></g><path d="M27.6846 26.0611C23.6128 26.0611 20.5531 27.2587 18.5172 29.6308C16.4813 32.0029 15.4715 35.564 15.4715 40.3081L15.4715 85.1849C15.4715 89.9282 16.4813 93.49 18.5172 95.8621C20.5531 98.2342 23.6128 99.4313 27.6846 99.4313L72.3156 99.4313C76.3874 99.4313 79.4469 98.2489 81.4833 95.8621C83.5188 93.4745 84.5285 89.898 84.5285 85.1849L84.5285 40.3081C84.5285 35.5947 83.5188 32.05 81.4833 29.6627C79.447 27.2753 76.3874 26.0611 72.3156 26.0611L55.7598 26.0611L44.2403 26.0611L27.6846 26.0611Z" fill="url(#LinearGradient_5)" fill-rule="nonzero" filter="url(#Filter)" stroke="none"/><path d="M27.6846 26.0611C23.6128 26.0611 20.5531 27.2587 18.5172 29.6308C16.4813 32.0029 15.4715 35.564 15.4715 40.3081L15.4715 85.1849C15.4715 89.9282 16.4813 93.49 18.5172 95.8621C20.5531 98.2342 23.6128 99.4313 27.6846 99.4313L72.3156 99.4313C76.3874 99.4313 79.4469 98.2489 81.4833 95.8621C83.5188 93.4745 84.5285 89.898 84.5285 85.1849L84.5285 40.3081C84.5285 35.5947 83.5188 32.05 81.4833 29.6627C79.447 27.2753 76.3874 26.0611 72.3156 26.0611L55.7598 26.0611L44.2403 26.0611L27.6846 26.0611Z" fill="url(#LinearGradient_6)" fill-rule="nonzero" filter="url(#Filter_2)" stroke="none"/></g></g></svg>