<svg xmlns="http://www.w3.org/2000/svg" xml:space="preserve" width="100%" height="100%" viewBox="0 0 100 100"><defs><linearGradient id="LGDLCirca" x1="19" x2="1" y1="1" y2="19" gradientTransform="translate(-2.167 -2.167) scale(1.05556)" gradientUnits="userSpaceOnUse"><stop offset="0" stop-color="#ffa269"/><stop offset="1" stop-color="#f93f3f"/></linearGradient></defs><rect x="0" y="0" width="100" height="100" fill="#000"/><g fill="none"><path d="M1 10.5a9.5 9.5 0 1 1 19 0 9.5 9.5 0 0 1-19 0Z" style="display:inline;fill:url(#LGDLCirca)" transform="translate(1.105 1) scale(4.66667)"><animate fill="freeze" attributeName="fill-opacity" begin=".3s" dur="8s" repeatCount="indefinite" values="0.1;1;0.1"/></path><g stroke-linecap="round" stroke-width="2" style="stroke:#e7e7e7;stroke-opacity:1"><path stroke-dasharray="2, 4" stroke-dashoffset="6" d="M10.5 1a9.5 9.5 0 0 1 0 19" transform="translate(1.105 1) scale(4.66667)"><animate attributeName="stroke-dashoffset" dur="0.7s" repeatCount="indefinite" values="6;0"/></path><path stroke-dasharray="30" stroke-dashoffset="30" d="M10.5 20a9.5 9.5 0 0 1 0-19" transform="translate(1.105 1) scale(4.66667)"><animate fill="freeze" attributeName="stroke-dashoffset" begin="0.1s" dur="0.3s" values="30;0"/></path><g style="stroke:#cfcfcf;stroke-opacity:1"><path stroke-dasharray="10" stroke-dashoffset="10" d="M10.478 5.371v8.972" style="stroke-dasharray:10;stroke-dashoffset:10" transform="matrix(-4.66667 0 0 4.66667 98.895 1)"><animate fill="freeze" attributeName="stroke-dashoffset" begin="0.6s" dur="0.3s" values="10;0"/></path><path stroke-dasharray="6" stroke-dashoffset="6" d="m10.478 15.629 3.694-3.694m-3.694 3.694-3.695-3.694" style="stroke-dasharray:6;stroke-dashoffset:6" transform="matrix(-4.66667 0 0 4.66667 98.895 1)"><animate fill="freeze" attributeName="stroke-dashoffset" begin="0.9s" dur="0.3s" values="6;0"/></path></g></g></g></svg>