<svg xmlns="http://www.w3.org/2000/svg" xml:space="preserve" viewBox="0 0 100 100"><defs><filter id="Fi" width="107.434" height="77.117" x="-4.353" y="12.185" color-interpolation-filters="sRGB" filterUnits="userSpaceOnUse"><feDropShadow dx="-.669" dy=".743" flood-color="#000" flood-opacity=".5" in="SourceGraphic" result="Shadow" stdDeviation="1.5"/></filter></defs><path fill="#ae0202" d="M36.808 15.281c-8.606.224-16.597.294-25.11 1.568C3.608 18.059.931 27.162.665 33.262c-.31 7.146-.684 14.299-.584 21.451.083 5.932-.5 18.579 4.658 24.515 2.438 2.807 7.617 4.192 10.951 4.438 9.966.736 19.966.964 29.957 1.102 9.003.124 18.01-.052 27.01-.318 16.986-.502 26.524-2.669 27.09-21.492.295-9.804.476-19.441-.312-29.218-.182-2.261-1.199-8.028-2.678-10.76-1.579-2.913-4.812-5.417-8.185-5.948-8.928-1.405-20.578-1.594-20.578-1.594s-20.795-.427-31.187-.157Z" filter="url(#Fi)"/><path fill="#ae0202" d="M79.448 31.793c-6.84.852-14.385.99-20.585 4.67-9.559 5.676-17.827 15.578-29.491 17.534-11.145 1.869-18.11-1.834-29.302-5.36C.475 79.52-1.26 83.894 31.39 84.341c13.633.186 27.27.146 40.901-.095 5.361-.095 14.57.312 19.921-3.257 5.917-3.947 6.968-11.581 7.067-18.136.145-9.494 1.622-19.153-.13-28.485-.4-2.139-3.913.337-19.702-2.576Z"/><path fill="#ebb2b2" d="M30.65 51.43s.126-1.713.126-1.76c.032-5.966.055-10.223.071-16.19.004-1.344-.258-5.296 2.267-6.252 2.97-1.124 6.564 2.064 8.57 3.266 2.788 1.674 3.317 2.198 6.106 3.871.844.507 5.473 3.881 5.854 3.977.06.015 2.537-2.392 5.694-4.123 3.157-1.732 5.526-2.401 6.934-2.803 4.748-1.357 9.554-1.869 14.506-1.869 4.784 0 9.671.95 14.26 2.262 1.079.308 4.472 1.729 4.472 1.729-.141-.283-.3-2.16-.6-3.785-.388-2.112-.95-4.14-1.364-5.173a12.419 12.419 0 0 0-1.72-3c-3.359-4.317-6.842-4.976-12.009-5.492-2.126-.213-4.26-.359-6.393-.492-3.177-.199-6.358-.308-9.54-.394-10.386-.28-20.788-.264-31.176-.147-5.964.067-11.953.242-17.9.738-2.555.213-5.385.175-7.868.885C1.095 19.49.758 29.96.33 38.546c-.127 2.53-.281 8.25-.281 8.25S3.1 48.233 7.1 49.499c3.652 1.157 8.119 2.134 11.227 2.463 6.51.688 12.323-.532 12.323-.532Z"/><path fill="#fff" d="M34.374 26.826c-2.1.01-3.738 2.24-3.75 4.542a4106.77 4106.77 0 0 0-.052 20.466c0 5.664.018 11.327.052 16.99.016 2.731 2.033 4.655 4.48 4.655 1.243 0 2.372-.86 3.385-1.514 1.58-1.02 3.211-1.951 4.792-2.972 6.408-4.14 13.019-7.916 19.427-12.056 2.658-1.717 6.72-3.2 6.72-7.121 0-3.199-5.098-5.39-7.345-6.841-5.946-3.84-12.026-7.32-17.969-11.159-2.84-1.835-6.409-5.005-9.74-4.99Z"/><path fill="#fff" d="m30.52 30.451.436 39.085c0 2.961 3.27 4.755 5.769 3.168L67.262 53.27c2.32-1.475 2.32-4.857 0-6.331l-12.978-8.957-16.508-10.356c-3.48-2.776-7.255-.137-7.255 2.824Z"/><path fill="#f2f1f1" d="M54.097 38.029c-.077.034-3.416 2.49-4.451 3.362-4.843 4.08-8.986 6.815-13.363 8.476-1.457.553-3.03.948-5.67 1.521l.007 17.89c0 2.94 3.84 5.281 6.32 3.705l30.665-19.137c3.262-1.592 3.318-5.927-.525-7.852l-12.983-7.965Z"/></svg>