<svg xmlns="http://www.w3.org/2000/svg" id="Chat" width="100%" height="100%" stroke-miterlimit="10" version="1.1" viewBox="-5 -5 110 110" xml:space="preserve" style="fill-rule:nonzero;clip-rule:evenodd;stroke-linecap:round;stroke-linejoin:round"><defs><linearGradient id="LGChatBump_3" x1="0" x2="1" y1="0" y2="0" gradientTransform="scale(90.1137) rotate(58.36 .056 .434)" gradientUnits="userSpaceOnUse"><stop offset="0" stop-color="#fff"/><stop offset="1" stop-color="#888" stop-opacity=".296"/></linearGradient><linearGradient id="LGChatBump_4" x1="0" x2="1" y1="0" y2="0" gradientTransform="scale(-13.8403) rotate(50 2.548 -4.39)" gradientUnits="userSpaceOnUse"><stop offset="0" stop-color="#000" stop-opacity="0"/><stop offset=".52" stop-color="#797979" stop-opacity=".331"/><stop offset=".987" stop-color="#fff" stop-opacity=".7"/></linearGradient><linearGradient id="LGChatBump_5" x1="0" x2="1" y1="0" y2="0" gradientTransform="scale(-13.8403) rotate(50 1.83 -5.928)" gradientUnits="userSpaceOnUse"><stop offset="0" stop-color="#000" stop-opacity="0"/><stop offset=".52" stop-color="#797979" stop-opacity=".331"/><stop offset=".987" stop-color="#fff" stop-opacity=".7"/></linearGradient><linearGradient id="LGChatBump_6" x1="0" x2="1" y1="0" y2="0" gradientTransform="scale(-13.8403) rotate(50 1.066 -7.567)" gradientUnits="userSpaceOnUse"><stop offset="0" stop-color="#000" stop-opacity="0"/><stop offset=".52" stop-color="#797979" stop-opacity=".331"/><stop offset=".987" stop-color="#fff" stop-opacity=".7"/></linearGradient><radialGradient id="RGChatBump" cx="0" cy="0" r="1" gradientTransform="matrix(48.7317 39.4359 -35.5177 53.824 37.998 27.35)" gradientUnits="userSpaceOnUse"><stop offset=".164" stop-color="#fff"/><stop offset=".371" stop-color="#fff" stop-opacity=".813"/><stop offset=".503" stop-color="#fff" stop-opacity=".624"/><stop offset="1" stop-color="#fff" stop-opacity="0"/></radialGradient></defs><style>@keyframes Combined-Shape_t{0%,23.4042%{transform:translate(-.073261px,-4.452231px);animation-timing-function:cubic-bezier(0,0,.58,1)}10.6382%{transform:translate(-.073261px,4.547769px);animation-timing-function:cubic-bezier(0,0,.58,1)}14.8936%{transform:translate(-.073261px,-12.452231px);animation-timing-function:cubic-bezier(0,0,.58,1)}}@keyframes a1_t{0%{transform:translate(2.075px,41.547769px);animation-timing-function:cubic-bezier(.42,0,.58,1)}10.6382%{transform:translate(2.075px,29.547769px);animation-timing-function:cubic-bezier(.42,0,.58,1)}29.7872%{transform:translate(2.075px,41.547769px);animation-timing-function:cubic-bezier(0,0,.58,1)}}@keyframes a2_t{0%{transform:translate(2.075px,41.547769px);animation-timing-function:cubic-bezier(.42,0,.58,1)}10.6382%{transform:translate(2.075px,29.547769px);animation-timing-function:cubic-bezier(.42,0,.58,1)}29.7872%{transform:translate(2.075px,41.547769px);animation-timing-function:cubic-bezier(0,0,.58,1)}}@keyframes a3_t{0%{transform:translate(2.075px,41.547769px);animation-timing-function:cubic-bezier(.42,0,.58,1)}10.6382%{transform:translate(2.075px,15.547769px);animation-timing-function:cubic-bezier(.42,0,.58,1)}29.7872%{transform:translate(2.075px,41.547769px);animation-timing-function:cubic-bezier(0,0,.58,1)}}</style><g fill-rule="nonzero" stroke="none" opacity="1"><rect width="120" height="120" x="-10" y="-10" fill="#000" opacity="0"/><g transform="translate(0 4)"><g id="Combined-Shape" opacity=".9" style="animation:Combined-Shape_t 1.567s linear infinite both"><path fill="url(#LGChatBump_3)" d="M17.7877 95.5048C19.0972 95.5048 20.8141 95.1847 22.9384 94.5446C25.0627 93.9044 27.3543 93.0532 29.8132 91.991C32.2722 90.9289 34.702 89.7431 37.1027 88.4336C39.5035 87.1241 41.635 85.8146 43.4974 84.5051C43.8757 84.2141 44.2249 84.0104 44.545 83.894C44.8651 83.7776 45.1706 83.7194 45.4616 83.7194C45.7526 83.7485 46.0436 83.7703 46.3346 83.7849C46.6256 83.7994 46.9021 83.8067 47.164 83.8067C53.4495 83.8067 59.2841 83.1374 64.6675 81.7988C70.051 80.4602 74.8888 78.576 79.1811 76.1462C83.4733 73.7164 87.1326 70.8428 90.159 67.5254C93.1853 64.208 95.4988 60.5778 97.0993 56.6348C98.6998 52.6917 99.5 48.5377 99.5 44.1728C99.5 38.6729 98.2269 33.5295 95.6806 28.7426C93.1344 23.9557 89.5988 19.7435 85.0738 16.106C80.5487 12.4685 75.289 9.62402 69.2944 7.57248C63.2998 5.52095 56.8688 4.49518 50.0012 4.49518C43.1337 4.49518 36.7026 5.52095 30.708 7.57248C24.7135 9.62402 19.4537 12.4685 14.9287 16.106C10.4036 19.7435 6.86802 23.9557 4.32178 28.7426C1.77555 33.5295 0.502432 38.6729 0.502432 44.1728C0.502432 48.8287 1.4118 53.2592 3.23054 57.4641C5.04928 61.669 7.65371 65.5029 11.0438 68.9658C14.434 72.4287 18.457 75.4114 23.113 77.914C23.4331 78.0886 23.6441 78.3287 23.7459 78.6342C23.8478 78.9398 23.8114 79.2671 23.6368 79.6163C22.822 80.9549 21.8617 82.3299 20.7559 83.7412C19.6501 85.1526 18.5807 86.4694 17.5476 87.6915C16.5146 88.9137 15.7216 89.8886 15.1687 90.6161C14.3248 91.6928 14.1284 92.7767 14.5795 93.868C15.0305 94.9592 16.0999 95.5048 17.7877 95.5048Z" opacity=".864"/><path fill="url(#RGChatBump)" d="M0.502477 44.7427C0.232282 22.8535 22.0979 4.83621 49.3408 4.49993C76.5836 4.16365 98.8874 21.6358 99.1576 43.525C99.4278 65.4142 77.5621 83.4315 50.3192 83.7678C23.0764 84.1041 0.772672 66.6319 0.502477 44.7427Z"/></g></g><g fill-rule="nonzero" stroke="none" opacity="1"><g style="animation:a1_t 1.567s linear .2s infinite both"><path fill="#C4005A" d="M22.5696 43.4121C22.5696 39.5902 25.6679 36.4919 29.4898 36.4919C33.3117 36.4919 36.4099 39.5902 36.4099 43.4121C36.4099 47.234 33.3117 50.3322 29.4898 50.3322C25.6679 50.3322 22.5696 47.234 22.5696 43.4121Z" transform="translate(0 -41)"/><path fill="url(#LGChatBump_4)" d="M33.938 48.7132C31.0102 51.1699 26.6453 50.788 24.1886 47.8603C21.7319 44.9325 22.1138 40.5676 25.0416 38.1109C27.9693 35.6542 32.3342 36.0361 34.7909 38.9639C37.2476 41.8916 36.8657 46.2566 33.938 48.7132Z" transform="translate(0 -41)"/></g><g style="animation:a2_t 1.567s linear .3s infinite both"><path fill="#CCC610" d="M42.4282 43.4121C42.4282 39.5902 45.5264 36.4919 49.3484 36.4919C53.1703 36.4919 56.2685 39.5902 56.2685 43.4121C56.2685 47.234 53.1703 50.3322 49.3484 50.3322C45.5264 50.3322 42.4282 47.234 42.4282 43.4121Z" transform="translate(0 -41)"/><path fill="url(#LGChatBump_5)" d="M53.7966 48.7132C50.8688 51.1699 46.5039 50.788 44.0472 47.8603C41.5905 44.9325 41.9724 40.5676 44.9001 38.1109C47.8279 35.6542 52.1928 36.0361 54.6495 38.9639C57.1062 41.8916 56.7243 46.2566 53.7966 48.7132Z" transform="translate(0 -41)"/></g><g style="animation:a3_t 1.567s linear .4s infinite both"><path fill="#9C00C7" d="M63.5901 43.4121C63.5901 39.5902 66.6883 36.4919 70.5102 36.4919C74.3321 36.4919 77.4304 39.5902 77.4304 43.4121C77.4304 47.234 74.3321 50.3322 70.5102 50.3322C66.6883 50.3322 63.5901 47.234 63.5901 43.4121Z" transform="translate(0 -41)"/><path fill="url(#LGChatBump_6)" d="M74.9584 48.7132C72.0307 51.1699 67.6658 50.788 65.2091 47.8603C62.7524 44.9325 63.1343 40.5676 66.062 38.1109C68.9898 35.6542 73.3547 36.0361 75.8114 38.9639C78.2681 41.8916 77.8862 46.2566 74.9584 48.7132Z" transform="translate(0 -41)"/></g></g></g></svg>