<svg xmlns="http://www.w3.org/2000/svg" id="svg1" width="100%" height="100%" version="1.1" viewBox="0 0 48 48"><style id="style1">@keyframes Combined-Shape_t{0%{transform:translate(7.9px,0);animation-timing-function:cubic-bezier(.42,0,.58,1)}33.3333%{transform:translate(-5.9px,0);animation-timing-function:cubic-bezier(.42,0,.58,1)}to{transform:translate(7.9px,0)}}</style><g fill="#efefef"><path id="Combined-Shape" d="m18.97 24 12.515-12.515a2.1 2.1 0 1 0-2.97-2.97l-14 14c-.41.41-.615.948-.615 1.485s.205 1.075.615 1.485l14 14a2.1 2.1 0 1 0 2.97-2.97z" style="animation:Combined-Shape_t 1s linear infinite both" transform="translate(7.9)"/><path d="m26.87 24 12.515 12.515a2.1 2.1 0 1 1-2.97 2.97l-14-14A2.1 2.1 0 0 1 21.8 24c0-.03 5.07 0 5.07 0" style="animation:Combined-Shape_t 1s linear infinite both"/><path d="m26.87 24 12.515-12.515a2.1 2.1 0 1 0-2.97-2.97l-14 14c-.41.41-.615.948-.615 1.485 0 .03 5.07 0 5.07 0" style="animation:Combined-Shape_t 1s linear infinite both"/></g></svg>