<svg width="100%" height="100%" xmlns="http://www.w3.org/2000/svg" xml:space="preserve" stroke-linecap="round" stroke-linejoin="round" stroke-miterlimit="10" clip-rule="evenodd" viewBox="0 0 131 131"><defs><linearGradient id="LG1" x1="0" x2="1" y1="0" y2="0" gradientTransform="matrix(-82.136 -86.2489 141.926 -83.6402 134.912 116.298)" gradientUnits="userSpaceOnUse"><stop offset="0" stop-color="#fff" stop-opacity=".94"/><stop offset="1" stop-color="#7b7b7b" stop-opacity="0"/></linearGradient><linearGradient id="LG2" x1="0" x2="1" y1="0" y2="0" gradientTransform="matrix(-86.6751 77.3278 -77.0289 -140.994 75.311 27.596)" gradientUnits="userSpaceOnUse"><stop offset="0" stop-color="#fff" stop-opacity=".95"/><stop offset="1" stop-color="#7b7b7b" stop-opacity=".1"/></linearGradient><linearGradient id="LG3" x1="0" x2="1" y1="0" y2="0" gradientTransform="matrix(78.801 80.2182 -133.608 96.9925 47.359 15.647)" gradientUnits="userSpaceOnUse"><stop offset="0" stop-color="#ddd" stop-opacity=".8"/><stop offset="1" stop-color="#7b7b7b" stop-opacity=".249"/></linearGradient><filter id="Fi" width="130.342" height="136.99" x=".794" y="-31.395" color-interpolation-filters="sRGB" filterUnits="userSpaceOnUse"><feComponentTransfer in="SourceGraphic" result="Alpha"><feFuncA slope=".49" type="linear"/></feComponentTransfer><feDropShadow dx="0" dy="0" flood-color="#fff" flood-opacity=".22" in="Alpha" result="Shadow" stdDeviation="6.986"/><feGaussianBlur in="Shadow" result="Blur" stdDeviation="13"/></filter></defs><style>@keyframes Combined-Shape_t{0%{transform:translate(-7.9px,0);animation-timing-function:cubic-bezier(.42,0,.58,1)}33.3333%{transform:translate(5.9px,0);animation-timing-function:cubic-bezier(.42,0,.58,1)}to{transform:translate(-7.9px,0)}}</style><g id="Combined-Shape" style="animation:Combined-Shape_t 1s linear infinite both" transform="translate(-7.9)"><g id="neg90" opacity=".907"><path fill="url(#LG1)" d="M130.5 86.568c0-3.99-1.452-7.987-4.357-11.02L76.168 23.33c5.482 6.092 5.442 15.703-.256 21.656L65.66 55.749l-.128.129 39.916 41.71c5.733 5.987 14.963 5.987 20.695 0 2.905-3.034 4.357-7.03 4.357-11.02" transform="rotate(90 66 66)"/><path fill="url(#LG2)" d="M80.268 33.965c0-3.838-1.412-7.648-4.1-10.635l-.385-.385c-.41-.428-.902-.66-1.345-1.025-.838-.69-1.695-1.388-2.627-1.858-1.143-.572-2.3-1.036-3.524-1.282a14.6 14.6 0 0 0-2.69-.32h-.129a14.5 14.5 0 0 0-2.69.32c-1.227.247-2.444.708-3.589 1.282-1.153.582-2.198 1.387-3.203 2.307-.244.223-.536.333-.77.576l-.191.192-50.168 52.41c-5.81 6.068-5.81 15.973 0 22.04 5.732 5.988 15.026 5.988 20.759 0l39.916-41.71.128-.128 10.252-10.763c2.904-3.034 4.356-7.03 4.356-11.02" transform="rotate(90 66 66)"/><path fill="url(#LG3)" d="M65.478 18.571c.07.001.139.04.209.042.738.018 1.483.078 2.214.21.263.05.531.14.794.208.806.189 1.567.462 2.34.794.62.287 1.228.566 1.838.96.95.615 1.89 1.366 2.799 2.257 7.836 7.676 6.558 14.807.794 20.764L65.227 55.629l-10.11-10.57c-5.809-6.068-5.809-15.95 0-22.017 1.287-1.344 2.788-2.308 4.345-3.05 1.331-.602 2.72-1.059 4.136-1.254.562-.07 1.142-.161 1.713-.167z" filter="url(#Fi)" opacity="1" transform="rotate(90 66 66)"/></g></g></svg>