<svg xmlns="http://www.w3.org/2000/svg" width="100%" height="100%" viewBox="0 0 24 24"><path stroke="#EF0091CC" fill="#EF0091" d="M12,1A11,11,0,1,0,23,12,11,11,0,0,0,12,1Zm0,20a9,9,0,1,1,9-9A9,9,0,0,1,12,21Z"/><path stroke="#EF0091" fill="#EF0091" opacity="0.16" d="M 12,22 C 17.523,22 22,17.523 22,12 22,6.477 17.523,2 12,2 6.477,2 2,6.477 2,12 2,17.523 6.477,22 12,22 Z" /><rect width="2" height="7" x="11" y="6" fill="#0FED" rx="1"><animateTransform attributeName="transform" dur="9s" repeatCount="indefinite" type="rotate" values="0 12 12;360 12 12"/></rect><rect width="2" height="9" x="11" y="11" fill="#0FED" rx="1"><animateTransform attributeName="transform" dur="0.75s" repeatCount="indefinite" type="rotate" values="0 12 12;360 12 12"/></rect></svg>