<svg xmlns="http://www.w3.org/2000/svg" xmlns:xlink="http://www.w3.org/1999/xlink" width="100%" height="100%" viewBox="0 0 48 48">
    <style>
@keyframes a0_t { 0% { transform: translate(36.000044px,30px) rotate(0deg) translate(-11.79966px,-12px); } 100% { transform: translate(36.000044px,30px) rotate(360deg) translate(-11.79966px,-12px); } }
@keyframes Combined-Shape_t { 0% { transform: translate(-0.186104px,39.9975px) scale(0.95,0.95) translate(0.19px,-40px); animation-timing-function: cubic-bezier(0.42,0,0.58,1); } 50% { transform: translate(-0.186104px,39.9975px) scale(1,1) translate(0.19px,-40px); animation-timing-function: cubic-bezier(0.42,0,0.58,1); } 100% { transform: translate(-0.186104px,39.9975px) scale(0.95,0.95) translate(0.19px,-40px); } }
    </style><g>
    <path id="Combined-Shape" fill="#efefef" d="M4,30C4,27.8055,5.18661,25.8208,7.0663,24.7645C7.80368,24.3501,8.20066,23.5167,8.05776,22.683C8.01945,22.4596,8,22.2315,8,22C8,19.7909,9.79086,18,12,18C12.292,18,12.5786,18.031,12.8572,18.0916C13.7735,18.2912,14.7055,17.8273,15.0986,16.9759C17.0463,12.758,21.2724,10,26,10C31.5967,10,36.415,13.8636,37.6806,19.2361C37.9339,20.3113,39.0108,20.9775,40.0859,20.7243C41.1611,20.471,41.8273,19.3941,41.5741,18.319C39.8852,11.1499,33.4628,6,26,6C20.197,6,14.9594,9.11827,12.1397,14.0012C12.0931,14.0004,12.0466,14,12,14C7.5821,14,4.00062,17.5811,4,21.9989C1.51959,23.8594,0,26.7974,0,30C0,35.151,3.91134,39.4453,9.00241,39.9507L9.19727,39.9605C12.8655,39.9655,15.7891,39.9704,18.5033,39.9758C19.9887,39.9787,23.9719,39.9873,24.2749,39.988C25.7081,39.9909,27.9316,39.9931,29.2939,39.9949C30.3985,39.9964,31.2951,39.1022,31.2966,37.9977C31.2981,36.8931,30.4039,35.9964,29.2994,35.9949C27.938,35.9931,25.7154,35.9909,24.2831,35.988C23.9805,35.9873,19.997,35.9787,18.5112,35.9758C15.822,35.9705,12.9275,35.9656,9.30742,35.9606C6.30152,35.6165,4,33.0594,4,30z" transform="translate(-0.186104,39.9975) scale(0.95,0.95) translate(0.19,-40)" style="animation: Combined-Shape_t 1s linear infinite both;"/>
<g transform="translate(36,30) translate(-11.7997,-12)" style="animation: a0_t 1s linear infinite both;">
        <path id="Combined-Shape" fill="#E0E009" d="M45.7359,29.9992C45.7171,29.9997,45.6982,30,45.6793,30L42.0334,30C40.9289,30,40.0334,29.1046,40.0334,28C40.0334,26.8954,40.9289,26,42.0334,26L42.9467,26C41.5595,23.588,38.9493,22,36,22C33.4437,22,31.0915,23.2047,29.5885,25.2144C28.9269,26.099,27.6735,26.2797,26.789,25.6182C25.9044,24.9566,25.7237,23.7033,26.3852,22.8187C28.6356,19.8098,32.1692,18,36,18C41.7524,18,46.6564,22.0439,47.7675,27.6084C47.9838,28.6916,47.281,29.745,46.1978,29.9613C46.0424,29.9923,45.8877,30.0044,45.7359,29.9992L45.7359,29.9992ZM25.9179,30.0585C26.0723,30.0203,26.2337,30,26.3999,30L30,30C31.1046,30,32,30.8954,32,32C32,33.1046,31.1046,34,30,34L29.0683,34C30.4618,36.4104,33.0683,38,36,38C38.5343,38,40.8684,36.8161,42.3739,34.8355C43.0423,33.9561,44.2971,33.7851,45.1764,34.4535C46.0558,35.1219,46.2268,36.3766,45.5584,37.256C43.3044,40.2214,39.7978,42,36,42C30.2836,42,25.3941,37.9736,24.2492,32.4428C24.0253,31.3612,24.7207,30.3028,25.8023,30.0789C25.8409,30.0709,25.8794,30.0641,25.9179,30.0585L25.9179,30.0585Z" transform="translate(11.7996,12) translate(-36.0069,-30)"/>
    </g>
</g></svg>
