<svg xmlns="http://www.w3.org/2000/svg" xmlns:xlink="http://www.w3.org/1999/xlink" width="100%" height="100%" viewBox="0 0 100 100"><defs><linearGradient id="d" x1="90.241" x2="33.992" y1="85.745" y2="56.091" gradientTransform="matrix(.84483 0 0 .8758 -10.47 -5.198)" gradientUnits="userSpaceOnUse"><stop offset="0" stop-color="#5500d8"/><stop offset=".726" stop-color="#8200ff"/></linearGradient><linearGradient id="b" x1="90.241" x2="33.992" y1="85.745" y2="56.091" gradientTransform="matrix(.84483 0 0 .8758 -10.47 -5.198)" gradientUnits="userSpaceOnUse"><stop offset="0" stop-color="#5500d8"/><stop offset=".726" stop-color="#8200ff"/></linearGradient><linearGradient id="a" x1="90.241" x2="33.992" y1="85.745" y2="56.091" gradientTransform="matrix(.84483 0 0 .8758 -10.47 -5.198)" gradientUnits="userSpaceOnUse"><stop offset=".274" stop-color="#8200ff"/><stop offset="1" stop-color="#5500d8"/></linearGradient><linearGradient id="c" x1="90.241" x2="33.992" y1="85.745" y2="56.091" gradientTransform="matrix(.84483 0 0 .8758 -10.47 -5.198)" gradientUnits="userSpaceOnUse"><stop offset="0" stop-color="#4000a0"/><stop offset="1" stop-color="#7600ff"/></linearGradient><linearGradient id="e" x1="73.926" x2="17.17" y1="66.664" y2="30.89" gradientTransform="translate(35.068 8.297) scale(.8302)" gradientUnits="userSpaceOnUse"><stop offset=".037" stop-color="#fff"/><stop offset=".532" stop-color="#e6e6e6"/><stop offset="1" stop-color="#ccc"/></linearGradient><linearGradient xlink:href="#a" id="f" x1="86.377" x2="33.357" y1="81.779" y2="50.902" gradientTransform="translate(-10.637 -3.877) scale(.8302)" gradientUnits="userSpaceOnUse"/><linearGradient xlink:href="#b" id="g" x1="17.357" x2="61.373" y1="44.282" y2="69.915" gradientTransform="translate(-.3 -5.9)" gradientUnits="userSpaceOnUse"/><linearGradient xlink:href="#c" id="i" x1="18.248" x2="65.769" y1="43.927" y2="69.898" gradientTransform="matrix(.9786 0 0 .97862 -.797 -4.184)" gradientUnits="userSpaceOnUse"/><linearGradient xlink:href="#d" id="h" x1="90.241" x2="33.992" y1="85.745" y2="56.091" gradientTransform="matrix(.82675 0 0 .85707 -11.043 -9.27)" gradientUnits="userSpaceOnUse"/><filter id="j" width="1.112" height="1.182" x="-.049" y="-.079" color-interpolation-filters="sRGB"><feFlood flood-color="#000" flood-opacity=".635" result="flood"/><feGaussianBlur in="SourceGraphic" result="blur" stdDeviation="1.2"/><feOffset dx="1" dy="1" in="blur" result="offset"/><feComposite in="offset" in2="flood" operator="in" result="comp1"/><feComposite in="comp1" in2="comp1" operator="atop" result="comp2"/></filter></defs><path fill="url(#e)" d="M98.512 53.01c-1.93 5.037-6.721 8.277-12.105 8.277-14.62 0-29.247-.004-43.868.005-3.35.005-6.303-.96-8.555-3.527-2.753-3.135-3.481-6.767-2.048-10.662 1.433-3.895 4.346-6.157 8.478-6.785.4-.06.805-.1 1.206-.15.227-1.197.364-2.417.7-3.577a12.934 12.934 0 0 1 16.019-8.856c.742.214 1.024-.004 1.379-.61 3.326-5.647 9.297-8.423 15.481-7.663 6.722.828 11.996 5.775 13.434 12.319.21.951.264 1.938.327 2.917.032.437.119.628.601.774 5.607 1.679 9.18 5.342 9.793 11.208.227 2.166-.153 4.312-.842 6.33z"><animate attributeName="d" dur="8s" repeatCount="indefinite" values="M64.9319 49.9239C64.6246 51.088 64.4213 52.2953 63.9928 53.4161C62.158 58.2066 57.6012 61.2877 52.4819 61.2877C38.5779 61.2877 24.6696 61.2834 10.7657 61.292C7.58068 61.2964 4.77219 60.3789 2.63012 57.9383C0.01204 54.9567-0.680346 51.5034 0.682789 47.7992C2.04592 44.0949 4.81547 41.9442 8.74476 41.347C9.12557 41.2907 9.51071 41.2518 9.89152 41.2042C10.1079 40.0661 10.2377 38.9063 10.5579 37.8028C12.4707 31.2468 19.2387 27.5079 25.7904 29.3817C26.4958 29.5851 26.7641 29.3774 27.1016 28.8018C30.265 23.4315 35.9425 20.7918 41.8235 21.5144C48.2151 22.302 53.2306 27.0059 54.598 33.2288C54.7971 34.1332 54.849 35.0722 54.9096 36.0026C54.9399 36.4181 55.0221 36.5998 55.4808 36.7383C60.8122 38.3351 63.9712 41.849 64.7934 47.3967C64.8107 47.5179 64.8843 47.6304 64.9319 47.7429C64.9319 47.7429 64.9319 49.9239 64.9319 49.9239Z;M100 49.9239C99.6928 51.088 99.4894 52.2953 99.061 53.4161C97.2261 58.2066 92.6694 61.2877 87.55 61.2877C73.6461 61.2877 59.7378 61.2834 45.8338 61.292C42.6488 61.2964 39.8403 60.3789 37.6982 57.9383C35.0802 54.9567 34.3878 51.5034 35.7509 47.7992C37.114 44.0949 39.8836 41.9442 43.8129 41.347C44.1937 41.2907 44.5788 41.2518 44.9596 41.2042C45.176 40.0661 45.3058 38.9063 45.6261 37.8028C47.5388 31.2468 54.3068 27.5079 60.8586 29.3817C61.5639 29.5851 61.8322 29.3774 62.1698 28.8018C65.3331 23.4315 71.0107 20.7918 76.8916 21.5144C83.2832 22.302 88.2987 27.0059 89.6661 33.2288C89.8652 34.1332 89.9171 35.0722 89.9777 36.0026C90.008 36.4181 90.0902 36.5998 90.5489 36.7383C95.8803 38.3351 99.0393 41.849 99.8615 47.3967C99.8788 47.5179 99.9524 47.6304 100 47.7429C100 47.7429 100 49.9239 100 49.9239Z;M64.9319 49.9239C64.6246 51.088 64.4213 52.2953 63.9928 53.4161C62.158 58.2066 57.6012 61.2877 52.4819 61.2877C38.5779 61.2877 24.6696 61.2834 10.7657 61.292C7.58068 61.2964 4.77219 60.3789 2.63012 57.9383C0.01204 54.9567-0.680346 51.5034 0.682789 47.7992C2.04592 44.0949 4.81547 41.9442 8.74476 41.347C9.12557 41.2907 9.51071 41.2518 9.89152 41.2042C10.1079 40.0661 10.2377 38.9063 10.5579 37.8028C12.4707 31.2468 19.2387 27.5079 25.7904 29.3817C26.4958 29.5851 26.7641 29.3774 27.1016 28.8018C30.265 23.4315 35.9425 20.7918 41.8235 21.5144C48.2151 22.302 53.2306 27.0059 54.598 33.2288C54.7971 34.1332 54.849 35.0722 54.9096 36.0026C54.9399 36.4181 55.0221 36.5998 55.4808 36.7383C60.8122 38.3351 63.9712 41.849 64.7934 47.3967C64.8107 47.5179 64.8843 47.6304 64.9319 47.7429C64.9319 47.7429 64.9319 49.9239 64.9319 49.9239Z"/></path><path fill="url(#f)" stroke="url(#g)" stroke-linecap="round" d="M72.623 63.813c-2.054 5.362-7.155 8.81-12.885 8.81-15.564 0-31.133-.004-46.697.006-3.565.005-6.709-1.022-9.106-3.754-2.931-3.338-3.706-7.203-2.18-11.35 1.526-4.146 4.626-6.554 9.024-7.222.426-.063.858-.107 1.284-.16.242-1.274.387-2.572.746-3.808a13.767 13.767 0 0 1 17.05-9.426c.79.228 1.09-.005 1.468-.65 3.541-6.01 9.897-8.965 16.48-8.156 7.154.881 12.769 6.147 14.3 13.112.222 1.013.28 2.064.348 3.105.034.465.126.669.64.824 5.967 1.787 9.347 5.746 10.424 11.93.502 2.887-.677 6.165-.896 6.739z" transform="translate(.3 5.9)"><animate attributeName="d" dur="9s" repeatCount="indefinite" values="M100 59.6035C99.6561 60.9065 99.4284 62.258 98.9489 63.5126C96.895 68.8749 91.7943 72.3238 86.0638 72.3238C70.5 72.3238 54.9314 72.319 39.3677 72.3287C35.8025 72.3335 32.6587 71.3066 30.261 68.5746C27.3303 65.237 26.5553 61.3715 28.0812 57.2251C29.607 53.0786 32.7072 50.6711 37.1055 50.0027C37.5318 49.9397 37.9629 49.8961 38.3892 49.8428C38.6314 48.5688 38.7767 47.2706 39.1352 46.0354C41.2762 38.6968 48.8522 34.5116 56.186 36.609C56.9756 36.8367 57.2759 36.6042 57.6538 35.9599C61.1947 29.9485 67.5501 26.9937 74.133 27.8026C81.2876 28.6842 86.9018 33.9497 88.4325 40.9153C88.6554 41.9277 88.7135 42.9789 88.7813 44.0203C88.8152 44.4854 88.9072 44.6888 89.4207 44.8438C95.3885 46.6312 98.9246 50.5646 99.845 56.7746C99.8644 56.9102 99.9467 57.0362 100 57.1621C100 57.1621 100 59.6035 100 59.6035Z;M72.6831 59.6035C72.3392 60.9065 72.1116 62.258 71.632 63.5126C69.5781 68.8749 64.4774 72.3238 58.747 72.3238C43.1832 72.3238 27.6146 72.319 12.0508 72.3287C8.48563 72.3335 5.34188 71.3066 2.9441 68.5746C0.0134773 65.237-0.761563 61.3715 0.764297 57.2251C2.29016 53.0786 5.39032 50.6711 9.78867 50.0027C10.2149 49.9397 10.6461 49.8961 11.0723 49.8428C11.3145 48.5688 11.4598 47.2706 11.8183 46.0354C13.9593 38.6968 21.5354 34.5116 28.8692 36.609C29.6587 36.8367 29.9591 36.6042 30.3369 35.9599C33.8779 29.9485 40.2332 26.9937 46.8162 27.8026C53.9708 28.6842 59.585 33.9497 61.1157 40.9153C61.3385 41.9277 61.3966 42.9789 61.4644 44.0203C61.4984 44.4854 61.5904 44.6888 62.1039 44.8438C68.0717 46.6312 71.6078 50.5646 72.5281 56.7746C72.5475 56.9102 72.6299 57.0362 72.6831 57.1621C72.6831 57.1621 72.6831 59.6035 72.6831 59.6035Z;M100 59.6035C99.6561 60.9065 99.4284 62.258 98.9489 63.5126C96.895 68.8749 91.7943 72.3238 86.0638 72.3238C70.5 72.3238 54.9314 72.319 39.3677 72.3287C35.8025 72.3335 32.6587 71.3066 30.261 68.5746C27.3303 65.237 26.5553 61.3715 28.0812 57.2251C29.607 53.0786 32.7072 50.6711 37.1055 50.0027C37.5318 49.9397 37.9629 49.8961 38.3892 49.8428C38.6314 48.5688 38.7767 47.2706 39.1352 46.0354C41.2762 38.6968 48.8522 34.5116 56.186 36.609C56.9756 36.8367 57.2759 36.6042 57.6538 35.9599C61.1947 29.9485 67.5501 26.9937 74.133 27.8026C81.2876 28.6842 86.9018 33.9497 88.4325 40.9153C88.6554 41.9277 88.7135 42.9789 88.7813 44.0203C88.8152 44.4854 88.9072 44.6888 89.4207 44.8438C95.3885 46.6312 98.9246 50.5646 99.845 56.7746C99.8644 56.9102 99.9467 57.0362 100 57.1621C100 57.1621 100 59.6035 100 59.6035Z"/></path><path fill="url(#h)" stroke="url(#i)" stroke-width=".979" d="M68.832 62.253c-1.953 5.1-6.805 8.38-12.255 8.38-14.803 0-29.61-.004-44.414.005-3.39.005-6.38-.972-8.661-3.57-2.788-3.175-3.525-6.852-2.074-10.795 1.452-3.944 4.4-6.234 8.584-6.87.405-.06.815-.101 1.22-.152.231-1.212.37-2.446.71-3.621a13.094 13.094 0 0 1 16.218-8.966c.75.217 1.036-.004 1.396-.617 3.367-5.718 9.412-8.528 15.673-7.759 6.805.839 12.145 5.847 13.6 12.472.213.963.268 1.963.333 2.953.032.443.12.636.608.784 5.676 1.7 8.89 5.465 9.915 11.347.4 2.303.154 3.775-.853 6.409z" filter="url(#j)" transform="matrix(1.02187 0 0 1.02185 .815 4.276)"><animate attributeName="d" dur="9s" repeatCount="indefinite" values="M98.1489 59.4349C97.8218 60.6743 97.6052 61.9597 97.1491 63.153C95.1956 68.2532 90.3442 71.5335 84.8939 71.5335C70.0908 71.5335 55.2832 71.5289 40.4802 71.5381C37.0892 71.5427 34.0991 70.566 31.8186 67.9675C29.0312 64.7931 28.294 61.1166 29.7453 57.1728C31.1966 53.229 34.1452 50.9392 38.3286 50.3034C38.734 50.2435 39.1441 50.202 39.5495 50.1513C39.7799 48.9396 39.9181 47.7049 40.259 46.5301C42.2954 39.5501 49.5011 35.5695 56.4765 37.5644C57.2274 37.7809 57.5131 37.5598 57.8725 36.947C61.2403 31.2294 67.285 28.419 73.5463 29.1884C80.3511 30.027 85.6909 35.035 87.1468 41.6602C87.3587 42.6231 87.414 43.6229 87.4785 44.6135C87.5108 45.0557 87.5983 45.2493 88.0867 45.3967C93.7628 47.0968 97.1261 50.8378 98.0014 56.7443C98.0199 56.8733 98.0982 56.9931 98.1489 57.1129C98.1489 57.1129 98.1489 59.4349 98.1489 59.4349Z;M70.832 59.4349C70.5049 60.6743 70.2884 61.9597 69.8322 63.153C67.8788 68.2532 63.0274 71.5335 57.577 71.5335C42.774 71.5335 27.9663 71.5289 13.1633 71.5381C9.77238 71.5427 6.78228 70.566 4.5017 67.9675C1.71433 64.7931 0.977172 61.1166 2.42845 57.1728C3.87973 53.229 6.82836 50.9392 11.0117 50.3034C11.4172 50.2435 11.8272 50.202 12.2326 50.1513C12.463 48.9396 12.6012 47.7049 12.9422 46.5301C14.9785 39.5501 22.1843 35.5695 29.1596 37.5644C29.9106 37.7809 30.1962 37.5598 30.5556 36.947C33.9235 31.2294 39.9682 28.419 46.2294 29.1884C53.0343 30.027 58.3741 35.035 59.8299 41.6602C60.0419 42.6231 60.0972 43.6229 60.1617 44.6135C60.1939 45.0557 60.2815 45.2493 60.7698 45.3967C66.4459 47.0968 69.8092 50.8378 70.6846 56.7443C70.703 56.8733 70.7813 56.9931 70.832 57.1129C70.832 57.1129 70.832 59.4349 70.832 59.4349Z;M98.1489 59.4349C97.8218 60.6743 97.6052 61.9597 97.1491 63.153C95.1956 68.2532 90.3442 71.5335 84.8939 71.5335C70.0908 71.5335 55.2832 71.5289 40.4802 71.5381C37.0892 71.5427 34.0991 70.566 31.8186 67.9675C29.0312 64.7931 28.294 61.1166 29.7453 57.1728C31.1966 53.229 34.1452 50.9392 38.3286 50.3034C38.734 50.2435 39.1441 50.202 39.5495 50.1513C39.7799 48.9396 39.9181 47.7049 40.259 46.5301C42.2954 39.5501 49.5011 35.5695 56.4765 37.5644C57.2274 37.7809 57.5131 37.5598 57.8725 36.947C61.2403 31.2294 67.285 28.419 73.5463 29.1884C80.3511 30.027 85.6909 35.035 87.1468 41.6602C87.3587 42.6231 87.414 43.6229 87.4785 44.6135C87.5108 45.0557 87.5983 45.2493 88.0867 45.3967C93.7628 47.0968 97.1261 50.8378 98.0014 56.7443C98.0199 56.8733 98.0982 56.9931 98.1489 57.1129C98.1489 57.1129 98.1489 59.4349 98.1489 59.4349Z"/></path></svg>