<svg xmlns="http://www.w3.org/2000/svg" xmlns:xlink="http://www.w3.org/1999/xlink" width="100%" height="100%" viewBox="0 0 48 48">
    <style>
@keyframes cloud_t { 0% { transform: translate(0px,0px); animation-timing-function: cubic-bezier(0,0,0.58,1); } 76.6666% { transform: translate(0px,0px); animation-timing-function: cubic-bezier(0.42,0,0.58,1); } 78.3333% { transform: translate(0px,2px); animation-timing-function: cubic-bezier(0.42,0,0.58,1); } 80% { transform: translate(0px,0px); animation-timing-function: cubic-bezier(0.42,0,1,1); } 100% { transform: translate(0px,0px); } }
@keyframes shakepoint_t { 0% { transform: translate(24px,30px); } 58.3333% { transform: translate(24px,30px); animation-timing-function: cubic-bezier(0.42,0,1,1); } 71.6666% { transform: translate(24px,26px); animation-timing-function: cubic-bezier(0.525328,0.017657,0.922379,0.508087); } 76.6666% { transform: translate(24px,30.0103px); } 100% { transform: translate(24px,30.0103px); } }
@keyframes exclamationpoint_t { 0% { transform: rotate(0deg) translate(-2px,-14px); } 76.6666% { transform: rotate(0deg) translate(-2px,-14px); animation-timing-function: cubic-bezier(0.42,0,0.58,1); } 80% { transform: rotate(25deg) translate(-2px,-14px); animation-timing-function: cubic-bezier(0.42,0,0.58,1); } 83.3333% { transform: rotate(-25deg) translate(-2px,-14px); animation-timing-function: cubic-bezier(0.42,0,0.58,1); } 86.6666% { transform: rotate(15deg) translate(-2px,-14px); animation-timing-function: cubic-bezier(0.42,0,0.58,1); } 90% { transform: rotate(-15deg) translate(-2px,-14px); animation-timing-function: cubic-bezier(0.42,0,0.58,1); } 93.3333% { transform: rotate(7deg) translate(-2px,-14px); animation-timing-function: cubic-bezier(0.42,0,0.58,1); } 96.6666% { transform: rotate(-7deg) translate(-2px,-14px); animation-timing-function: cubic-bezier(0.42,0,0.58,1); } 100% { transform: rotate(0deg) translate(-2px,-14px); } }
    </style>
    <title>
stat48_cloud_alert</title><g fill="#efefef"><path id="cloud" d="M48,30C48,35.5228,43.5228,40,38,40L9.20001,40C8.97906,40,8.76647,39.9642,8.56775,39.898C3.6904,39.1985,0,35.0034,0,30C0,26.7974,1.51959,23.8594,4,21.9989C4.00062,17.5811,7.5821,14,12,14C14.9594,9.11827,20.197,6,26,6C34.4373,6,41.3493,12.5308,41.9566,20.8131C45.5579,22.3633,48,25.9377,48,30zM38,36C41.3137,36,44,33.3137,44,30C44,27.2459,42.1279,24.8641,39.4998,24.1885C38.6031,23.9579,37.9818,23.142,37.9981,22.2162C37.9997,22.1083,37.9997,22.1083,38,22C38,15.3726,32.6274,10,26,10C21.2724,10,17.0463,12.758,15.0986,16.9759C14.7055,17.8273,13.7735,18.2912,12.8572,18.0916C12.5786,18.031,12.292,18,12,18C9.79086,18,8,19.7909,8,22C8,22.2315,8.01945,22.4596,8.05776,22.683C8.20066,23.5167,7.80368,24.3501,7.0663,24.7645C5.18661,25.8208,4,27.8055,4,30C4,33.09,6.34768,35.6675,9.39761,35.9703C9.46488,35.977,9.53109,35.9869,9.5961,36L38,36Z" transform="translate(24,23) translate(-24,-23)" style="animation: cloud_t 2s linear infinite both;"/>
    <g id="exclamation point" style="animation: shakepoint_t 2s linear infinite both;">
        <path fill="#ff0000" stroke="none" d="M4,2C4,0.895431,3.10457,0,2,0C0.895431,0,0,0.895431,0,2L0,8C0,9.10457,0.895431,10,2,10C3.10457,10,4,9.10457,4,8ZM2,16C3.10457,16,4,15.1046,4,14C4,12.8954,3.10457,12,2,12C0.895431,12,0,12.8954,0,14C0,15.1046,0.895431,16,2,16z" fill-rule="evenodd" stroke-dashoffset="0" stroke-width="1" transform="translate(24,30) translate(-2,-14)" style="animation: exclamationpoint_t 2s linear infinite both;"/>
    </g>
</g></svg>
