<svg viewBox="0 0 100 100" width="100%" height="100%" xmlns="http://www.w3.org/2000/svg" xmlns:xlink="http://www.w3.org/1999/xlink" xml:space="preserve" stroke-miterlimit="10" style="fill-rule:nonzero;clip-rule:evenodd;stroke-linecap:round;stroke-linejoin:round"><path fill="#cfd8dc" d="M99 99H1V3.722C1 2.09 2.089 1 3.722 1h92.556C97.91 1 99 2.089 99 3.722V99Z"/><path d="M7.368 18.106h85.264a3.267 3.267 0 0 1 3.267 3.267v65.708a3.267 3.267 0 0 1-3.267 3.267H7.368a3.267 3.267 0 0 1-3.267-3.267V21.373a3.267 3.267 0 0 1 3.267-3.267Z" opacity=".2"/><path d="M7.995 18.637h84.01a3.22 3.22 0 0 1 3.219 3.22v64.74a3.22 3.22 0 0 1-3.22 3.22H7.996a3.22 3.22 0 0 1-3.22-3.22v-64.74a3.22 3.22 0 0 1 3.22-3.22Z" opacity=".2"/><path fill="#374952" d="M8.775 19.297h82.45a3.16 3.16 0 0 1 3.16 3.16v63.54a3.16 3.16 0 0 1-3.16 3.16H8.775a3.16 3.16 0 0 1-3.16-3.16v-63.54a3.16 3.16 0 0 1 3.16-3.16Z"/><g fill-opacity=".771" opacity=".7"><path d="m44.762 80.15-8.337.041 14.714-50.428 7.682.046-14.06 50.34Z" opacity=".2"/><path d="m44.6 79.84-7.772.058 14.434-50.065 7.434.055L44.6 79.84Z" opacity=".25"/></g><path fill="#76ff03" d="M44.46 79.523h-7.078L51.539 29.97h7.08L44.46 79.523Z"/><g fill-opacity=".771" opacity=".7"><path d="m19.56 55.966 12.775 7.23.06 11.32L8.41 59.912l.036-8.526 23.852-12.653.008 10.59-12.747 6.643Z" opacity=".15"/><path d="m19.268 56.004 12.876 7.294-.012 10.72L8.777 59.645l.034-8.183 23.238-12.37.079 10.129-12.86 6.783Z" opacity=".2"/><path d="M19.018 56.004 31.89 63.41l.025 10.17L9.124 59.385l.119-7.83 22.655-12.05.003 9.607-12.883 6.892Z" opacity=".25"/></g><path fill="#ceff03" d="m18.798 55.968 12.882 7.729v9.201L9.597 59.281v-7.73L31.68 39.774v9.201l-12.882 6.993Z"/><g fill-opacity=".771" opacity=".7"><path d="m80.44 55.966-12.775 7.23-.06 11.32L91.59 59.912l-.036-8.526-23.852-12.653-.008 10.59 12.747 6.643Z" opacity=".15"/><path d="m80.732 56.004-12.876 7.294.012 10.72 23.355-14.373-.034-8.183-23.238-12.37-.079 10.129 12.86 6.783Z" opacity=".2"/><path d="M80.982 56.004 68.11 63.41l-.025 10.17 22.791-14.194-.119-7.83-22.655-12.05-.003 9.607 12.883 6.892Z" opacity=".25"/></g><path fill="#ceff03" d="M81.202 55.968 68.32 63.697v9.201l22.083-13.617v-7.73L68.32 39.774v9.201l12.882 6.993Z"/><path d="M19.378 6.774a4.122 4.122 0 1 0 0 8.245 4.122 4.122 0 0 0 0-8.245ZM9.197 6.797a4.122 4.122 0 1 0 0 8.245 4.122 4.122 0 0 0 0-8.245Z" opacity=".2"/><path d="M9.252 6.938c-2.204 0-3.99 1.772-3.99 3.958 0 2.187 1.786 3.96 3.99 3.96 2.203 0 3.99-1.773 3.99-3.96 0-2.186-1.787-3.958-3.99-3.958ZM19.429 6.91c-2.204 0-3.99 1.772-3.99 3.958 0 2.187 1.786 3.959 3.99 3.959s3.99-1.772 3.99-3.959c0-2.186-1.787-3.958-3.99-3.958Z" opacity=".2"/><path fill="#90a4ae" d="M19.518 6.994a3.792 3.792 0 1 0 0 7.583 3.792 3.792 0 0 0 0-7.583Zm-10.111 0a3.792 3.792 0 1 0 0 7.583 3.792 3.792 0 0 0 0-7.583Z"/></svg>