<svg width="100%" height="100%" viewBox="-0.50 -0.50 25 25" xml:space="preserve" xmlns="http://www.w3.org/2000/svg" xmlns:xlink="http://www.w3.org/1999/xlink"><defs><linearGradient gradientTransform="matrix(1.17391 0 0 1.17391 -2.12129 -2.08672)" gradientUnits="userSpaceOnUse" id="LinearGradient_OVAL" x1="-0.606756" x2="21.867" y1="5.78068" y2="20.0051"><stop offset="0" stop-color="#00ff78"/><stop offset="1" stop-color="#02fffd"/></linearGradient></defs><g id="ArrowSpinningRing"><path d="M1.40043 12.0002C1.40043 6.16518 6.13061 1.435 11.9656 1.435C17.8006 1.435 22.5307 6.16518 22.5307 12.0002C22.5307 17.8351 17.8006 22.5653 11.9656 22.5653C6.13061 22.5653 1.40043 17.8351 1.40043 12.0002Z" fill="url(#LinearGradient_OVAL)" fill-opacity="0" id="OVAL"><animate fill="freeze" attributeName="fill-opacity" begin="1.1s" dur="5s" values="0.2;1;0.2" repeatCount="indefinite"/></path><g fill="none" id="ArrowSpin" stroke="#f0f" stroke-width="2.36318" stroke-linecap="round"><path d="M12 1C18.0751 1 23 5.92487 23 12C23 18.0751 18.0751 23 12 23" fill="none" stroke-dasharray="2 4" stroke-dashoffset="6" stroke-linejoin="miter" id="RightDotted"><animate attributeName="stroke-dashoffset" dur="0.9s" repeatCount="indefinite" values="6;0"/></path><path stroke-dasharray="34" stroke-dashoffset="34" d="M12 23C5.92487 23 1 18.0751 1 12C1 5.92487 5.92487 1 12 1" fill="none" stroke-linejoin="miter" id="LeftBend"><animate fill="freeze" attributeName="stroke-dashoffset" begin="0.3s" dur="0.7s" values="34;0"/></path><path stroke-dasharray="11.5" stroke-dashoffset="11.5" d="M11.9654 6.09214L11.97 17.2827" fill="none" stroke-linejoin="round" id="Arrowline"><animate fill="freeze" attributeName="stroke-dashoffset" begin="0.8s" dur="0.6s" values="11;0"/></path></g><g id="arrowhead" stroke="#ff00ff" stroke-width="2.36318" stroke-linejoin="round" stroke-linecap="round"><path stroke-dasharray="6" stroke-dashoffset="6" d="M11.9656 17.2827L7.85691 13.1741" fill="none" id="LeftWing"><animate fill="freeze" attributeName="stroke-dashoffset" begin="1.4s" dur="0.6s" values="6;0"/></path><path stroke-dasharray="6" stroke-dashoffset="6" d="M11.9656 17.2827L15.9656 13.1741" fill="none" id="RightWing"><animate fill="freeze" attributeName="stroke-dashoffset" begin="1.4s" dur="0.6s" values="6;0"/></path></g></g></svg>