<svg xmlns="http://www.w3.org/2000/svg" style="width:503px;height:503px;transform:rotateY(180deg)" width="100%" height="100%" fill="none" viewBox="0 0 100 100"><style>@keyframes line-grid1-draw{0%,20%{stroke-dashoffset:180}60%{stroke-dashoffset:0}}.line-grid1-a{animation:line-grid1-draw 2s infinite;stroke-dasharray:180}@media (prefers-reduced-motion:reduce){.line-grid1-a{animation:none}}</style><path style="animation-duration:2.8s" fill="rgba(218,216,218,1)" stroke="rgba(0,0,0,1)" stroke-width="3.8" d="M12 10H44C45.1046 10 46 10.8954 46 12V55C46 56.1046 45.1046 57 44 57H12C10.8954 57 10 56.1046 10 55V12C10 10.8954 10.8954 10 12 10Z" class="line-grid1-a stroke1 fill1"/><path style="animation-duration:2.8s" fill="rgba(0,232,176,1)" stroke="#000" stroke-width="3.8" d="M12 64H44C45.1046 64 46 64.8954 46 66V89C46 90.1046 45.1046 91 44 91H12C10.8954 91 10 90.1046 10 89V66C10 64.8954 10.8954 64 12 64Z" class="line-grid1-a stroke2 fill2"/><path style="animation-duration:2.8s" fill="rgba(0,232,176,1)" stroke="#000" stroke-width="3.8" d="M56 10H88C89.1046 10 90 10.8954 90 12V35C90 36.1046 89.1046 37 88 37H56C54.8954 37 54 36.1046 54 35V12C54 10.8954 54.8954 10 56 10Z" class="line-grid1-a stroke2 fill2"/><path style="animation-duration:2.8s" fill="rgba(218,216,218,1)" stroke="rgba(0,0,0,1)" stroke-width="3.8" d="M56 44H88C89.1046 44 90 44.8954 90 46V89C90 90.1046 89.1046 91 88 91H56C54.8954 91 54 90.1046 54 89V46C54 44.8954 54.8954 44 56 44Z" class="line-grid1-a stroke1 fill1"/></svg>