<svg xmlns="http://www.w3.org/2000/svg" xmlns:svg="http://www.w3.org/2000/svg" xmlns:xlink="http://www.w3.org/1999/xlink" id="svg5" width="100%" height="100%" docname="moon-twotone-loop.svg" version="1.1" viewBox="0 0 100 100"><defs><linearGradient id="LG8" collect="always"><stop style="stop-color:#ffdf01;stop-opacity:1" id="stop7" offset="0"/><stop style="stop-color:#ffff62;stop-opacity:1" id="stop8" offset="1"/></linearGradient><linearGradient id="LG6" collect="always"><stop style="stop-color:#ffd41b;stop-opacity:1" id="stop5" offset="0"/><stop style="stop-color:#ffff8d;stop-opacity:1" id="stop6" offset="1"/></linearGradient><linearGradient id="LG4"><stop style="stop-color:#fefc74;stop-opacity:1" id="stop3" offset="0"/><stop style="stop-color:#ffe91b;stop-opacity:1" id="stop4" offset=".748"/></linearGradient><linearGradient id="LG2"><stop style="stop-color:#fefb3c;stop-opacity:1" id="stop1" offset="0"/><stop style="stop-color:#ffdb1b;stop-opacity:1" id="stop2" offset="1"/></linearGradient><linearGradient id="LG7" collect="always"><stop style="stop-color:#ffff1b;stop-opacity:1" id="stop17" offset="0"/><stop style="stop-color:#fff;stop-opacity:1" id="stop16" offset="1"/></linearGradient><radialGradient id="RG18" cx="13.5" cy="5.045" r="4.25" collect="always" fx="13.5" fy="5.045" gradientTransform="matrix(1,0,0,0.95176471,0,0.24334706)" gradientUnits="userSpaceOnUse" xlink:href="#LG7"/><radialGradient id="RG21" cx="13.5" cy="5.045" r="4.25" collect="always" fx="13.5" fy="5.045" gradientTransform="matrix(1,0,0,0.95176471,0,0.2433471)" gradientUnits="userSpaceOnUse" xlink:href="#LG8"/><radialGradient id="RG22" cx="13.5" cy="5.045" r="4.25" collect="always" fx="13.5" fy="5.045" gradientTransform="matrix(1,0,0,0.95176471,0,0.243347)" gradientUnits="userSpaceOnUse" xlink:href="#LG6"/><radialGradient id="RG27" cx="19.227" cy="10.115" r="3.477" collect="always" fx="19.227" fy="10.115" gradientTransform="matrix(1,0,0,1.1834915,0,-1.8560167)" gradientUnits="userSpaceOnUse" xlink:href="#LG4"/><radialGradient id="RG28" cx="19.227" cy="10.115" r="3.477" collect="always" fx="19.227" fy="10.115" gradientTransform="matrix(1,0,0,1.1834915,0,-1.8560167)" gradientUnits="userSpaceOnUse" xlink:href="#LG2"/></defs><g id="g28" transform="matrix(4.0833333,0,0,4.0833333,1.0000004,1.0000004)"><g id="g29" transform="matrix(1.1428615,0,0,1.1428615,-2.1166253,-1.1428615)"><g id="starsbottom" style="fill:url(#RG21);fill-opacity:0"><path d="m 12.515,6.765 1.94,2.53 0.09,-3.19 3,-1.06 -3,-1.06 -0.09,-3.19 -1.94,2.53 -3.06,-0.91 1.81,2.63 -1.81,2.63 z"><animate id="Twinkle" fill="freeze" attributeName="fill-opacity" begin="0.7s;Twinkle.begin+6s" dur="0.4s" values="0;1"/><animate fill="freeze" attributeName="fill-opacity" begin="Twinkle.begin+2.2s" dur="0.4s" values="1;0"/></path><path style="fill:url(#RG22);fill-opacity:0" d="m 13.135,3.505 -1.25,-1.64 -0.05,2.06 -1.95,0.69 1.95,0.69 0.05,2.06 1.25,-1.64 1.98,0.59 -1.17,-1.7 1.17,-1.7 z" opacity="1"><animate fill="freeze" attributeName="fill-opacity" begin="Twinkle.begin+3s" dur="0.4s" values="0;1" style="fill:url(#RG18)"/><animate fill="freeze" attributeName="fill-opacity" begin="Twinkle.begin+5.2s" dur="0.4s" values="1;0" style="fill:url(#RG18)"/></path></g><g id="moon" style="fill:#5840ff;fill-opacity:0;stroke:#8e8eff;stroke-opacity:1;stroke-linecap:round;stroke-linejoin:round;stroke-width:2;stroke-dasharray:56;stroke-dashoffset:56"><path d="m 7,6 c 0,6.08 4.92,11 11,11 0.53,0 1.05,-0.04 1.56,-0.11 C 17.95,19.36 15.17,21 12,21 7.03,21 3,16.97 3,12 3,8.83 4.64,6.05 7.11,4.44 7.04,4.95 7,5.47 7,6 Z" label="path5"><animate id="MoonDraw" fill="freeze" attributeName="stroke-dashoffset" dur="1.2s" values="56;0"/><animate id="MoonWax" fill="freeze" attributeName="fill-opacity" begin="MoonDraw.end+0.6s;MoonWane.end+1.9s" dur="2.5s" values="0;0.8"/><animate id="MoonWane" fill="freeze" attributeName="fill-opacity" begin="MoonWax.end+2.3s" dur="2.5s" values="0.8;0"/></path></g><g id="StarsTop" style="fill:url(#RG27);fill-opacity:0"><path d="M 17.39,12.25 15.75,11 17.81,10.95 18.5,9 l 0.69,1.95 2.06,0.05 -1.64,1.25 0.59,1.98 -1.7,-1.17 -1.7,1.17 z"><animate fill="freeze" attributeName="fill-opacity" begin="Twinkle.begin+0.4s" dur="0.4s" values="0;1"/><animate fill="freeze" attributeName="fill-opacity" begin="Twinkle.begin+2.8s" dur="0.4s" values="1;0"/></path><path style="fill:url(#RG28)" d="M 20.828,9.731 22.704,8.292 20.338,8.225 19.552,6 18.766,8.225 16.4,8.292 18.276,9.731 17.601,12 19.552,10.658 21.503,12 Z" label="path15"><animate fill="freeze" attributeName="fill-opacity" begin="Twinkle.begin+3.4s" dur="0.4s" values="0;1"/><animate fill="freeze" attributeName="fill-opacity" begin="Twinkle.begin+5.6s" dur="0.4s" values="1;0"/></path></g></g></g></svg>