<svg xmlns="http://www.w3.org/2000/svg" width="100%" height="100%" fill="none" viewBox="0 0 100 100"><style>@keyframes line-3d-printing1-overall{0%,10%,40%,65%,90%{transform:translate3d(0,0,0)}15%,35%,70%,85%{transform:translate3d(0,14px,0)}}@keyframes line-3d-printing1-tool{0%,10%,15%,30%,45%,55%{transform:translate3d(0,0,0)}20%{transform:translate3d(-3px,0,0)}25%{transform:translate3d(3px,0,0)}65%,75%,85%,90%{transform:translate3d(-25px,0,0)}80%{transform:translate3d(-20px,0,0)}}.line-3d-printing1-overall{animation:line-3d-printing1-overall 10s infinite}.line-3d-printing1-tool{animation:line-3d-printing1-tool 10s infinite}@media (prefers-reduced-motion:reduce){.line-3d-printing1-overall,.line-3d-printing1-tool{animation:none}}</style><rect width="83" height="84" x="9" y="9" fill="rgba(255,255,255,1)" stroke="#cdcdcd" stroke-width="1.4" class="fill1 stroke1" rx="4"/><path fill="rgba(255,255,255,1)" stroke-width="1.4" d="M23 71C23 69.8954 23.8954 69 25 69H76C77.1046 69 78 69.8954 78 71V75H23V71Z" class="fill1 stroke1"/><path stroke="#cdcdcd" stroke-width="1.4" d="M78 75V71C78 69.8954 77.1046 69 76 69H25C23.8954 69 23 69.8954 23 71V75M78 75H23M78 75H86V15H15V75H23" class="fill1 stroke1"/><g class="line-3d-printing1-overall fill1 stroke1"><rect width="71" height="7" x="15" y="29" fill="rgba(95,255,156,1)" stroke="rgba(10,10,10,1)" stroke-width="1.4" class="fill2 stroke2"/><g class="line-3d-printing1-tool fill2 stroke2"><path fill="rgba(95,255,156,1)" stroke-width="1.4" d="M59 24C59 23.4477 59.4477 23 60 23H72C72.5523 23 73 23.4477 73 24V42C73 42.5523 72.5523 43 72 43H70H62H60C59.4477 43 59 42.5523 59 42V24Z" class="fill2 stroke2"/><path fill="rgba(95,255,156,1)" stroke-width="1.4" d="M62 43V48H70V43H62Z" class="fill2 stroke2"/><path fill="rgba(95,255,156,1)" stroke-width="1.4" d="M70 48H62L65.1318 53.4806C65.5157 54.1524 66.4843 54.1524 66.8682 53.4806L70 48Z" class="fill2 stroke2"/><path stroke="rgba(10,10,10,1)" stroke-width="1.4" d="M62 43H60C59.4477 43 59 42.5523 59 42V24C59 23.4477 59.4477 23 60 23H72C72.5523 23 73 23.4477 73 24V42C73 42.5523 72.5523 43 72 43H70M62 43V48M62 43H70M62 48H70M62 48L65.1318 53.4806C65.5157 54.1524 66.4843 54.1524 66.8682 53.4806L70 48M70 48V43" class="fill2 stroke2"/></g></g><circle cx="20" cy="84" r="4" fill="rgba(95,255,156,1)" stroke="rgba(10,10,10,1)" stroke-width="1.4" class="fill2 stroke2"/><circle cx="33" cy="84" r="4" fill="rgba(95,255,156,1)" stroke="rgba(10,10,10,1)" stroke-width="1.4" class="fill2 stroke2"/><circle cx="46" cy="84" r="4" fill="rgba(95,255,156,1)" stroke="rgba(10,10,10,1)" stroke-width="1.4" class="fill2 stroke2"/></svg>