<svg xmlns="http://www.w3.org/2000/svg" xmlns:xlink="http://www.w3.org/1999/xlink" id="svg10" width="100%" height="100%" stroke-miterlimit="10" version="1.1" viewBox="-5 -5 110 110" xml:space="preserve" style="fill-rule:nonzero;clip-rule:evenodd;stroke-linecap:round;stroke-linejoin:round"><defs id="defs10"><filter id="Fi84" width="1.021" height="1.03" x="-.01" y="-.012" style="color-interpolation-filters:sRGB"><feFlood id="feFlood83" flood-color="#000" flood-opacity=".412" result="flood"/><feGaussianBlur id="feGaussianBlur83" in="SourceGraphic" result="blur" stdDeviation=".4"/><feOffset id="feOffset83" dx=".1" dy=".4" in="blur" result="offset"/><feComposite id="feComposite83" in="flood" in2="offset" operator="in" result="comp1"/><feComposite id="feComposite84" in="SourceGraphic" in2="comp1" operator="over" result="comp2"/></filter><filter id="Fi21" width="1.588" height="1.649" x="-.294" y="-.294" style="color-interpolation-filters:sRGB"><feFlood id="feFlood20" flood-color="#000A" flood-opacity="1" result="flood"/><feGaussianBlur id="feGaussianBlur20" in="SourceGraphic" result="blur" stdDeviation=".6"/><feOffset id="feOffset20" dx="0" dy=".3" in="blur" result="offset"/><feComposite id="feComposite20" in="flood" in2="offset" operator="in" result="comp1"/><feComposite id="feComposite21" in="SourceGraphic" in2="comp1" operator="over" result="comp2"/></filter><filter id="Fi40" width="1.037" height="1.057" x="-.019" y="-.025" style="color-interpolation-filters:sRGB"><feFlood id="feFlood39" flood-color="#000A" flood-opacity=".522" result="flood"/><feGaussianBlur id="feGaussianBlur39" in="SourceGraphic" result="blur" stdDeviation="1.2"/><feOffset id="feOffset39" dx="0" dy=".6" in="blur" result="offset"/><feComposite id="feComposite39" in="flood" in2="offset" operator="in" result="comp1"/><feComposite id="feComposite40" in="SourceGraphic" in2="comp1" operator="over" result="comp2"/></filter><filter id="Fi42" width="1.039" height="1.057" x="-.02" y="-.025" style="color-interpolation-filters:sRGB"><feFlood id="feFlood40" flood-color="#000" flood-opacity=".522" result="flood"/><feGaussianBlur id="feGaussianBlur40" in="SourceGraphic" result="blur" stdDeviation="1.2"/><feOffset id="feOffset40" dx="0" dy=".6" in="blur" result="offset"/><feComposite id="feComposite41" in="flood" in2="offset" operator="in" result="comp1"/><feComposite id="feComposite42" in="SourceGraphic" in2="comp1" operator="over" result="comp2"/></filter><linearGradient id="linearGradient10"><stop id="stop11" offset="0" style="stop-color:#0400ac;stop-opacity:0"/><stop id="stop10" offset="1" style="stop-color:#0400ac;stop-opacity:1"/></linearGradient><linearGradient id="linearGradient11" x1="49.032" x2="54.966" y1="49.097" y2="57.045" gradientTransform="matrix(1.13514 .00001 .00001 1.1383 -8.723 -7.754)" gradientUnits="userSpaceOnUse" xlink:href="#linearGradient10"/></defs><style id="style1">@keyframes cut-sc{0%{transform:rotate(0)}}@keyframes cut-sc-2{0%{transform:rotate(0)}}</style><g id="Scissors" fill-rule="nonzero" stroke="none" opacity="1" transform="matrix(.84178 0 0 .83944 5.672 2.017)" style="stroke-width:1.13671"><g id="g8" transform="rotate(.2 -560.11 -83.866)scale(1.03664)" style="animation:cut-sc 1s cubic-bezier(1,-.28,.01,1.13) infinite alternate-reverse both;transform-origin:center center;clip-rule:evenodd;display:inline;fill-rule:nonzero;stroke-width:1.13671;stroke-linecap:round;stroke-linejoin:round"><path id="top" d="M15.778 6.119c-8.27.028-14.953 6.52-14.925 14.5.04 6.976 5.241 12.927 12.361 14.143.765.317 1.15.486 1.75.724 6.853 2.71 13.941 5.518 20.042 14.818l9.847 8.965c2.37 1.61 4.697 3.28 7.015 4.962L74.5 80.381c.235.177 5.722 4.07 12.462 4.07h.004c3.68 0 7.016-1.004 9.924-3.383.468-.382 1.753-1.733 1.753-1.733-11.334-8.325-22.648-16.677-33.967-25.022-9.795-7.22-13.367-9.848-18.731-13.788 0 0-14.008-8.525-17.222-10.258-.598-.325-.966-.561-1.194-.735 2.12-2.561 3.275-5.741 3.275-9.018-.028-7.98-6.755-14.425-15.026-14.395m-.33 6.743c.718-.002 1.439.099 2.141.3 4.067 1.163 6.639 5.345 5.743 9.34s-4.917 6.288-8.983 5.124c-4.066-1.163-6.637-5.344-5.743-9.338.719-3.21 3.505-5.42 6.843-5.426" style="display:inline;fill:#4300dc;fill-opacity:1;stroke:none;stroke-width:1.13671;filter:url(#Fi42)"/><path id="shadow" fill="#0400ac" d="M35.006 50.305c3.219 3.054 6.544 6 9.848 8.965l7.014 4.961 12.808-9.918-16.39-12.068z" style="display:inline;fill:url(#linearGradient11);stroke-width:1.13671"/></g><g id="bottom" transform="rotate(-1.133 235.727 96.4)scale(.98756)" style="animation:cut-sc-2 1s cubic-bezier(1,-.28,.01,1.13) infinite alternate-reverse both;transform-origin:center center;clip-rule:evenodd;display:inline;fill-rule:nonzero;stroke-width:1.13671;stroke-linecap:round;stroke-linejoin:round"><path id="path9" d="M90.645 18.204c-7.073-.008-12.826 3.44-13.02 3.577L38.196 47.795a2 2 0 0 0-.608.644c-6.738 11.583-14.936 14.645-22.867 17.603-1.286.477-3.044 1.179-3.737 1.454A15.933 14.517 1.133 0 0 .1 80.93 15.933 14.517 1.133 0 0 15.742 95.76 15.933 14.517 1.133 0 0 31.96 81.56a15.933 14.517 1.133 0 0-3.854-9.727c.162-.103.521-.337 1.046-.609 2.236-1.135 14.044-7.5 14.044-7.5 19.994-13.408 39.773-27.105 59.63-40.692l-1.759-1.872c-3.056-2.36-6.555-2.952-10.42-2.956m-41.603 29.36a2.427 2.427 0 1 1 0 4.854 2.427 2.427 0 0 1 0-4.854M16.557 73.51a7.447 8.134 66.527 0 1 7.193 5.573 7.447 8.134 66.527 0 1-6.262 9.28 7.447 8.134 66.527 0 1-9.472-5.305 7.447 8.134 66.527 0 1 6.26-9.283 7.447 8.134 66.527 0 1 2.281-.265" style="display:inline;fill:#00e1ff;fill-opacity:1;stroke-width:1.13675;filter:url(#Fi40)"/><path id="button" fill="#0057ac" d="M49.042 47.518a2.45 2.45 0 1 0 0 4.9 2.45 2.45 0 0 0 0-4.9" style="clip-rule:evenodd;display:inline;fill:#0500cc;fill-opacity:1;fill-rule:nonzero;stroke-width:1.13675;stroke-linecap:round;stroke-linejoin:round;filter:url(#Fi21)"/></g></g></svg>