<?xml version="1.0" encoding="UTF-8" standalone="no"?>
<svg
   height="100%"
   stroke-miterlimit="10"
   style="fill-rule:nonzero;clip-rule:evenodd;stroke-linecap:round;stroke-linejoin:round"
   version="1.1"
   viewBox="0 0 100 100"
   width="100%"
   xml:space="preserve"
   id="svg10"
   sodipodi:docname="Scissors copy 2.svg"
   inkscape:version="1.3.2 (091e20e, 2023-11-25)"
   xmlns:inkscape="http://www.inkscape.org/namespaces/inkscape"
   xmlns:sodipodi="http://sodipodi.sourceforge.net/DTD/sodipodi-0.dtd"
   xmlns:xlink="http://www.w3.org/1999/xlink"
   xmlns="http://www.w3.org/2000/svg"
   xmlns:svg="http://www.w3.org/2000/svg"><defs
     id="defs10"><linearGradient
       id="linearGradient10"
       inkscape:collect="always"><stop
         style="stop-color:#0400ac;stop-opacity:0;"
         offset="0"
         id="stop11" /><stop
         style="stop-color:#0400ac;stop-opacity:1;"
         offset="1"
         id="stop10" /></linearGradient><linearGradient
       inkscape:collect="always"
       xlink:href="#linearGradient10"
       id="linearGradient11"
       x1="49.031803"
       y1="49.097"
       x2="54.965855"
       y2="57.045448"
       gradientUnits="userSpaceOnUse"
       gradientTransform="matrix(1.135137,1.1068705e-5,1.1068705e-5,1.1382959,-8.7226499,-7.7537041)" /><filter
       style="color-interpolation-filters:sRGB;"
       inkscape:label="Drop Shadow"
       id="filter84"
       x="-0.0098169964"
       y="-0.012255474"
       width="1.0206566"
       height="1.0296174"><feFlood
         result="flood"
         in="SourceGraphic"
         flood-opacity="0.411765"
         flood-color="rgb(0,0,0)"
         id="feFlood83" /><feGaussianBlur
         result="blur"
         in="SourceGraphic"
         stdDeviation="0.400000"
         id="feGaussianBlur83" /><feOffset
         result="offset"
         in="blur"
         dx="0.100000"
         dy="0.400000"
         id="feOffset83" /><feComposite
         result="comp1"
         operator="in"
         in="flood"
         in2="offset"
         id="feComposite83" /><feComposite
         result="comp2"
         operator="over"
         in="SourceGraphic"
         in2="comp1"
         id="feComposite84" /></filter><filter
       style="color-interpolation-filters:sRGB;"
       inkscape:label="Drop Shadow"
       id="filter21"
       x="-0.29385303"
       y="-0.29387936"
       width="1.5877061"
       height="1.6489836"><feFlood
         result="flood"
         in="SourceGraphic"
         flood-opacity="1.000000"
         flood-color="rgb(0,0,0)"
         id="feFlood20" /><feGaussianBlur
         result="blur"
         in="SourceGraphic"
         stdDeviation="0.600000"
         id="feGaussianBlur20" /><feOffset
         result="offset"
         in="blur"
         dx="0.000000"
         dy="0.300000"
         id="feOffset20" /><feComposite
         result="comp1"
         operator="in"
         in="flood"
         in2="offset"
         id="feComposite20" /><feComposite
         result="comp2"
         operator="over"
         in="SourceGraphic"
         in2="comp1"
         id="feComposite21" /></filter><filter
       style="color-interpolation-filters:sRGB;"
       inkscape:label="Drop Shadow"
       id="filter40"
       x="-0.018689871"
       y="-0.024755489"
       width="1.0373797"
       height="1.0572471"><feFlood
         result="flood"
         in="SourceGraphic"
         flood-opacity="0.521569"
         flood-color="rgb(0,0,0)"
         id="feFlood39" /><feGaussianBlur
         result="blur"
         in="SourceGraphic"
         stdDeviation="0.800000"
         id="feGaussianBlur39" /><feOffset
         result="offset"
         in="blur"
         dx="0.000000"
         dy="0.600000"
         id="feOffset39" /><feComposite
         result="comp1"
         operator="in"
         in="flood"
         in2="offset"
         id="feComposite39" /><feComposite
         result="comp2"
         operator="over"
         in="SourceGraphic"
         in2="comp1"
         id="feComposite40" /></filter><filter
       style="color-interpolation-filters:sRGB;"
       inkscape:label="Drop Shadow"
       id="filter42"
       x="-0.019633993"
       y="-0.024510948"
       width="1.039268"
       height="1.0566816"><feFlood
         result="flood"
         in="SourceGraphic"
         flood-opacity="0.521569"
         flood-color="rgb(0,0,0)"
         id="feFlood40" /><feGaussianBlur
         result="blur"
         in="SourceGraphic"
         stdDeviation="0.800000"
         id="feGaussianBlur40" /><feOffset
         result="offset"
         in="blur"
         dx="0.000000"
         dy="0.600000"
         id="feOffset40" /><feComposite
         result="comp1"
         operator="in"
         in="flood"
         in2="offset"
         id="feComposite41" /><feComposite
         result="comp2"
         operator="over"
         in="SourceGraphic"
         in2="comp1"
         id="feComposite42" /></filter></defs><sodipodi:namedview
     id="namedview10"
     pagecolor="#505050"
     bordercolor="#eeeeee"
     borderopacity="1"
     inkscape:showpageshadow="0"
     inkscape:pageopacity="0"
     inkscape:pagecheckerboard="0"
     inkscape:deskcolor="#505050"
     inkscape:zoom="6.9756346"
     inkscape:cx="48.884442"
     inkscape:cy="55.550502"
     inkscape:current-layer="Scissors"
     showguides="false" /><style
     id="style1">
      .cut-sc {
    animation: cut-sc 1s cubic-bezier(1, -0.28, 0.01, 1.13) infinite alternate-reverse both;
    transform-origin: center center;

}
@keyframes cut-sc {
 0% {
    transform: rotate(0);
   }
  100% {
    transform: rotate(-20deg);
  }
}
   .cut-sc-2 {
    animation: cut-sc-2 1s cubic-bezier(1, -0.28, 0.01, 1.13) infinite alternate-reverse both;
    transform-origin: center center;
}
@keyframes cut-sc-2 {
 0% {
    transform: rotate(0);
   }
  100% {
    transform: rotate(20deg);
  }
}
</style><g
     opacity="1"
     layerName="Scissors"
     fill-rule="nonzero"
     stroke="none"
     id="Scissors"
     transform="matrix(0.8417766,0,0,0.83944058,5.671753,2.0167276)"
     style="stroke-width:1.13671"><g
       class="cut-sc"
       id="g8"
       layername="top"
       inkscape:label="top"
       style="clip-rule:evenodd;display:inline;fill-rule:nonzero;stroke-width:1.13671;stroke-linecap:round;stroke-linejoin:round"
       transform="matrix(1.0366321,0.0036324,-0.0036324,1.0366321,-0.29730538,1.9621223)"><path
         id="top"
         style="display:inline;fill:#4300dc;fill-opacity:1;stroke:none;stroke-width:1.13671;filter:url(#filter42)"
         d="M 15.777985,6.1188625 C 7.5074332,6.1474327 0.82523059,12.639204 0.85306042,20.618452 0.89262805,27.595003 6.0940658,33.546397 13.214466,34.762154 c 0.764435,0.317039 1.149577,0.485701 1.749539,0.723431 6.852587,2.709694 13.941427,5.518563 20.041915,14.818745 l 9.846975,8.964737 c 2.369784,1.610106 4.696956,3.279079 7.015263,4.962071 l 22.631596,16.150487 c 0.235199,0.1764 5.722271,4.069482 12.462158,4.069482 l 0.0039,-1.4e-5 c 3.679892,0 7.015893,-1.003874 9.923987,-3.38287 0.467999,-0.382099 1.752761,-1.733428 1.752761,-1.733428 C 87.308571,71.010206 75.995062,62.657637 64.675721,54.313046 54.881001,47.092622 51.308545,44.464909 45.944656,40.525367 c 0,0 -14.007657,-8.525825 -17.222051,-10.258021 -0.597362,-0.325393 -0.965144,-0.561718 -1.193537,-0.735239 2.120254,-2.56106 3.275149,-5.741291 3.275088,-9.018604 C 30.776067,12.534255 24.048534,6.0894721 15.777985,6.1188625 Z M 15.448661,12.86156 c 0.717352,-0.0017 1.438135,0.09931 2.140442,0.300099 4.06707,1.163206 6.638542,5.345222 5.743026,9.339955 C 22.43693,26.495647 18.41501,28.79 14.348873,27.626221 10.282755,26.463044 7.7115773,22.282384 8.6058537,18.288238 9.3246067,15.07856 12.110943,12.868861 15.448661,12.86156 Z"
         sodipodi:nodetypes="ccccccccssccsccccccccccc" /><path
         layername="shadow"
         fill="#0400ac"
         d="m 35.005859,50.304688 c 3.218674,3.054626 6.544008,6.000524 9.847657,8.964843 l 7.014642,4.961607 12.807563,-9.918092 -16.390608,-12.067631 z"
         id="shadow"
         sodipodi:nodetypes="cccccc"
         style="display:inline;fill:url(#linearGradient11);stroke-width:1.13671" /></g><g
       class="cut-sc-2"
       id="bottom"
       style="clip-rule:evenodd;display:inline;fill-rule:nonzero;stroke-width:1.13671;stroke-linecap:round;stroke-linejoin:round"
       transform="matrix(0.9873646,-0.01952204,0.01952204,0.9873646,-1.8595647,4.6786815)"
       inkscape:label="bottom"
       inkscape:transform-center-x="-51.642579"
       inkscape:transform-center-y="51.537059"><path
         id="path9"
         style="display:inline;fill:#00e1ff;fill-opacity:1;stroke-width:1.13675;filter:url(#filter40)"
         d="m 90.64541,18.203787 c -7.073592,-0.0078 -12.826175,3.439359 -13.021253,3.577458 l -39.42742,26.013563 c -0.251695,0.167261 -0.456056,0.387097 -0.607455,0.644231 -6.738647,11.583342 -14.936246,14.645193 -22.867383,17.602719 -1.285764,0.477614 -3.043723,1.17899 -3.736513,1.453936 A 15.933491,14.516799 1.132697 0 0 0.09889725,80.930275 15.933491,14.516799 1.132697 0 0 15.742127,95.758919 15.933491,14.516799 1.132697 0 0 31.959281,81.560215 15.933491,14.516799 1.132697 0 0 28.105463,71.833162 c 0.161656,-0.103024 0.520862,-0.337317 1.045618,-0.608909 2.236178,-1.135332 14.044225,-7.500834 14.044225,-7.500834 C 63.188678,50.315591 82.967631,36.618709 102.82576,23.032154 L 101.06632,21.15989 C 98.010053,18.799497 94.511047,18.208039 90.64541,18.203787 Z M 49.04159,47.564218 c 1.340518,3e-6 2.427276,1.086471 2.427279,2.426868 2e-6,1.340394 -1.086353,2.427279 -2.42687,2.427277 -1.340416,-3e-6 -2.427275,-1.086471 -2.427278,-2.426867 -2e-6,-1.340398 1.08645,-2.42728 2.426869,-2.427278 z M 16.557317,73.509986 a 7.4469633,8.1344479 66.526593 0 1 7.192561,5.57261 7.4469633,8.1344479 66.526593 0 1 -6.261942,9.280954 7.4469633,8.1344479 66.526593 0 1 -9.4721183,-5.305968 7.4469633,8.1344479 66.526593 0 1 6.2599323,-9.283043 7.4469633,8.1344479 66.526593 0 1 2.281567,-0.264553 z"
         inkscape:label="bottom" /><path
         fill="#0057ac"
         d="m 49.04199,47.518393 c -1.353113,-2e-6 -2.450202,1.096889 -2.4502,2.449981 3e-6,1.353091 1.097096,2.449987 2.450209,2.449989 1.353213,2e-6 2.450202,-1.096889 2.4502,-2.449981 -2e-6,-1.353091 -1.096996,-2.449986 -2.450209,-2.449989 z"
         id="button"
         style="clip-rule:evenodd;display:inline;fill:#0500cc;fill-opacity:1;fill-rule:nonzero;stroke-width:1.13675;stroke-linecap:round;stroke-linejoin:round;filter:url(#filter21)" /></g></g></svg>
