<svg xmlns="http://www.w3.org/2000/svg" xmlns:vectornator="http://vectornator.io" xmlns:xlink="http://www.w3.org/1999/xlink" width="100%" height="100%" viewBox="0 0 100 100" xml:space="preserve"><defs><linearGradient id="LinearGradientDouble" x1="63.136" x2="36.757" y1="39.654" y2="39.567" gradientTransform="matrix(-0.956819 -1.17177e-16 0 0.976046 97.8561 -2.50041)" gradientUnits="userSpaceOnUse"><stop offset="0" stop-color="#e91e73"/><stop offset=".696" stop-color="#ff008c"/><stop offset="1" stop-color="#ff0095"/></linearGradient><filter id="FilterDouble" width="28.898" height="51.765" x="35.551" y="6.587" color-interpolation-filters="sRGB" filterUnits="userSpaceOnUse"><feDropShadow dx="0" dy="0" flood-color="#000" flood-opacity=".44" in="SourceGraphic" result="Shadow" stdDeviation=".478"/></filter><radialGradient id="RadialGradient" cx="50.153" cy="31.846" r="38.786" gradientTransform="matrix(1.04283 5.71568e-33 0 -1.06379 -1.89949 103.681)" gradientUnits="userSpaceOnUse"><stop offset="0" stop-color="#fff"/><stop offset=".542" stop-color="#fff"/><stop offset=".791" stop-color="#d9d9d9"/><stop offset="1" stop-color="#ccc"/></radialGradient><linearGradient id="LinearGradient" x1="50.537" x2="50.382" y1="4.234" y2="61.642" gradientTransform="matrix(1.04285 5.71568e-33 0 -1.06379 -1.9013 103.732)" gradientUnits="userSpaceOnUse"><stop offset="0" stop-color="#7d7d7d" stop-opacity="0"/><stop offset=".492" stop-color="#f2f2f2" stop-opacity=".492"/><stop offset="1" stop-color="#fff"/></linearGradient><linearGradient id="LinearGradient_2" x1="50.689" x2="99.845" y1="43.881" y2="44.034" gradientTransform="matrix(1.0101 2.47403e-16 0 -1.0101 -0.156917 100.505)" gradientUnits="userSpaceOnUse"><stop offset=".309" stop-color="#fff" stop-opacity="0"/><stop offset="1" stop-color="#d9d9d9"/></linearGradient><linearGradient id="LinearGradient_3" x1="50.689" x2="99.845" y1="43.881" y2="44.034" gradientTransform="matrix(-1.0101 1.23702e-16 0 -1.0101 100.869 100.473)" gradientUnits="userSpaceOnUse"><stop offset=".309" stop-color="#fff" stop-opacity="0"/><stop offset="1" stop-color="#d9d9d9"/></linearGradient><radialGradient id="RadialGradient_2" cx="50.253" cy="65.311" r="37.65" gradientTransform="matrix(1.04283 5.72793e-33 0 -1.06607 -1.89949 103.904)" gradientUnits="userSpaceOnUse"><stop offset="0" stop-color="#fff"/><stop offset=".542" stop-color="#fff"/><stop offset=".791" stop-color="#d9d9d9"/><stop offset="1" stop-color="#ccc"/></radialGradient><radialGradient id="RadialGradient_3" cx="50.253" cy="65.311" r="37.65" gradientTransform="matrix(1.04283 5.72793e-33 0 -1.06607 -1.89949 103.904)" gradientUnits="userSpaceOnUse"><stop offset="0" stop-color="#fff"/><stop offset=".542" stop-color="#fff"/><stop offset=".791" stop-color="#d9d9d9"/><stop offset="1" stop-color="#ccc"/></radialGradient><linearGradient id="LinearGradient_4" x1="63.136" x2="36.757" y1="39.654" y2="39.567" gradientTransform="matrix(-0.956819 -1.17177e-16 0 0.976046 97.8561 7.78969)" gradientUnits="userSpaceOnUse"><stop offset="0" stop-color="#e91e73"/><stop offset=".696" stop-color="#ff008c"/><stop offset="1" stop-color="#ff0095"/></linearGradient><filter id="Filter" width="28.898" height="41.475" x="35.551" y="16.877" color-interpolation-filters="sRGB" filterUnits="userSpaceOnUse"><feDropShadow dx="0" dy="0" flood-color="#000" flood-opacity=".44" in="SourceGraphic" result="Shadow" stdDeviation=".478"/></filter><linearGradient id="LinearGradient_5" x1="63.136" x2="36.757" y1="39.654" y2="39.567" gradientTransform="matrix(-0.956819 -1.17177e-16 0 0.976046 97.8561 -2.50041)" gradientUnits="userSpaceOnUse"><stop offset="0" stop-color="#e91e73"/><stop offset=".696" stop-color="#ff008c"/><stop offset="1" stop-color="#ff0095"/></linearGradient><filter id="Filter_2" width="28.898" height="41.475" x="35.551" y="6.587" color-interpolation-filters="sRGB" filterUnits="userSpaceOnUse"><feDropShadow dx="0" dy="0" flood-color="#000" flood-opacity=".44" in="SourceGraphic" result="Shadow" stdDeviation=".478"/></filter></defs><g id="Mouse" opacity="1"><path id="Solid Base" fill="url(#RadialGradient)" d="M81.5061 35.4444L81.5061 68.6234C81.5061 96.0187 59.5509 99.4555 54.0423 99.8866C53.2521 99.9485 50.2435 99.9485 50.2435 99.9485C50.2435 99.9485 47.1934 99.9485 46.3363 99.8757C40.722 99.399 19.4939 95.7996 18.9809 68.6234L18.9809 35.4444L81.5061 35.4444Z"/><path id="Gradient Base" fill="url(#LinearGradient)" d="M81.505 37.3737L81.5061 68.6768C81.5778 96.7115 57.6721 99.654 54.0417 99.9382C53.2515 100 50.2428 100 50.2428 100C50.2428 100 47.1926 100 46.3355 99.9272C40.7212 99.4505 20.0602 95.7175 18.9795 68.6768L18.9795 37.3737L81.505 37.3737Z"/><path id="Right Gradient" fill="url(#LinearGradient_2)" d="M50.3166 100L50.3166 0.0631313C50.3166 0.0631209 53.409 0.0631686 54.1991 0.126263C59.7075 0.566096 81.6613 4.06011 81.6613 32.0076L81.6613 68.0556L81.5666 68.0556C81.5666 96.003 59.6128 99.497 54.1044 99.9369C53.3143 100 50.3166 100 50.3166 100Z"/><path id="Left Gradient" fill="url(#LinearGradient_3)" d="M50.3956 99.9684L50.3956 0.0315658C50.3956 0.0315553 47.3032 0.0316031 46.5131 0.0946971C41.0047 0.53453 19.0509 4.02854 19.0509 31.976L19.0509 68.024L19.1456 68.024C19.1456 95.9715 41.0993 99.4655 46.6077 99.9053C47.3979 99.9684 50.3956 99.9684 50.3956 99.9684Z"/><path id="Left Button" fill="url(#RadialGradient_2)" d="M50.2422 0C50.2422 0 47.1922 0.00165445 46.3351 0.0759029C41.2117 0.519747 18.9655 4.17064 19.0441 31.9596C19.0511 34.4279 18.8596 35.2533 19.0509 38.1313L50.2787 38.1313L50.2422 0Z"/><path id="Right Button" fill="url(#RadialGradient_3)" d="M81.5048 31.9596C81.6613 4.11635 59.5492 0.506247 54.0408 0.0664065C53.2506 0.00331245 50.2422 0.00331245 50.2422 0.00331245L50.2787 38.1313L81.5778 38.1313L81.5048 31.9596Z"/><path id="Cross" fill="none" stroke="#dcdcdc" stroke-linecap="butt" stroke-linejoin="miter" stroke-width=".2" d="M81.5778 37.596L50.2787 37.4141L19.0509 37.2424M50.3944 37.4141L50.2787 0"/></g><g id="Arrows" opacity="1"><path id="Up" fill="url(#LinearGradient_5)" stroke="none" d="M52.6669 22.1537L63.2527 22.1537L50.0152 7.78304L36.7776 22.1537L47.3634 22.1537L47.3331 32.4956L36.7473 32.4956L49.9849 46.8664L63.2224 32.4956L52.6366 32.4956L52.6669 22.1537Z" filter="url(#FilterDouble)" shadowAngle="1.571" shadowColor="#000000" shadowOffset="0" shadowOpacity=".44" shadowRadius=".957"><animate attributeName="d" dur="3s" repeatCount="indefinite" values="M52.6669 22.1537L63.2527 22.1537L50.0152 7.78304L36.7776 22.1537L47.3634 22.1537L47.3331 32.4956L36.7473 32.4956L49.9849 46.8664L63.2224 32.4956L52.6366 32.4956L52.6669 22.1537Z; M52.6669 32.4438L63.2527 32.4438L50.0152 18.0731L36.7776 32.4438L47.3634 32.4438L47.3331 42.7857L36.7473 42.7857L49.9849 57.1564L63.2224 42.7857L52.6366 42.7857L52.6669 32.4438Z;M52.6669 22.1537L63.2527 22.1537L50.0152 7.78304L36.7776 22.1537L47.3634 22.1537L47.3331 32.4956L36.7473 32.4956L49.9849 46.8664L63.2224 32.4956L52.6366 32.4956L52.6669 22.1537Z"/></path></g></svg>