<svg xmlns="http://www.w3.org/2000/svg" xmlns:vectornator="http://vectornator.io" xmlns:xlink="http://www.w3.org/1999/xlink" width="100%" height="100%" viewBox="0 0 100 100" xml:space="preserve"><defs><filter id="Filter_ArrowsCombined" width="34.447" height="64.901" x="32.776" y="3.234" color-interpolation-filters="sRGB" filterUnits="userSpaceOnUse"><feDropShadow dx="0" dy="1" flood-color="#000" flood-opacity=".44" in="SourceGraphic" result="Shadow" stdDeviation="1"/></filter><radialGradient id="RadialGradient" cx="50.182" cy="66.109" r="36.818" gradientTransform="matrix(1.0324 5.67065e-33 0 -1.05541 -1.62091 103.365)" gradientUnits="userSpaceOnUse"><stop offset="0" stop-color="#fff"/><stop offset=".542" stop-color="#fff"/><stop offset=".791" stop-color="#d9d9d9"/><stop offset="1" stop-color="#ccc"/></radialGradient><radialGradient id="RadialGradient_2" cx="50.253" cy="65.311" r="37.65" gradientTransform="matrix(1.0324 5.67065e-33 0 -1.05541 -1.62091 103.365)" gradientUnits="userSpaceOnUse"><stop offset="0" stop-color="#fff"/><stop offset=".542" stop-color="#fff"/><stop offset=".791" stop-color="#d9d9d9"/><stop offset="1" stop-color="#ccc"/></radialGradient><radialGradient id="RadialGradient_3" cx="50.153" cy="31.846" r="34.1" gradientTransform="matrix(1.0324 5.65852e-33 0 -1.05315 -1.62091 103.144)" gradientUnits="userSpaceOnUse"><stop offset="0" stop-color="#fff"/><stop offset=".542" stop-color="#fff"/><stop offset=".791" stop-color="#d9d9d9"/><stop offset="1" stop-color="#ccc"/></radialGradient><linearGradient id="LinearGradient" x1="50.537" x2="50.358" y1="4.234" y2="54.77" gradientTransform="matrix(1.03243 5.65852e-33 0 -1.05315 -1.62271 103.195)" gradientUnits="userSpaceOnUse"><stop offset="0" stop-color="#ececec" stop-opacity="0"/><stop offset=".492" stop-color="#f2f2f2" stop-opacity=".492"/><stop offset="1" stop-color="#f2f2f2"/></linearGradient><radialGradient id="RadialGradient_4" cx="49.365" cy="98.07" r="98.497" gradientTransform="matrix(1 0 0 1.02009 -0.000699756 -0.518457)" gradientUnits="userSpaceOnUse"><stop offset="0" stop-color="#fff" stop-opacity="0"/><stop offset=".833" stop-color="#e6e6e6" stop-opacity=".794"/></radialGradient><linearGradient id="LinearGradient_2" x1="35.277" x2="64.723" y1="32.478" y2="32.478" gradientTransform="matrix(1 0 0 1.02009 0 -5.51337)" gradientUnits="userSpaceOnUse"><stop offset="0" stop-color="#e91e63"/><stop offset="1" stop-color="#ff01aa"/></linearGradient><linearGradient id="LinearGradient_3" x1="35.276" x2="64.723" y1="47.315" y2="47.315" gradientTransform="matrix(1 0 0 1.02009 -2.1684e-19 -5.51337)" gradientUnits="userSpaceOnUse"><stop offset="0" stop-color="#e91e63"/><stop offset="1" stop-color="#ff01aa"/></linearGradient><filter id="Filter_2" width="34.447" height="49.766" x="32.776" y="18.87" color-interpolation-filters="sRGB" filterUnits="userSpaceOnUse"><feDropShadow dx="0" dy="1" flood-color="#000" flood-opacity=".44" in="SourceGraphic" result="Shadow" stdDeviation="1"/></filter></defs><g layerName="Mouse" opacity="1"><path fill="#fff" d="M50 0.5C50 0.5 19.635 0.490088 19.0493 31.7371L19.0493 42.1494L19.0493 68.2119C19.635 99.4589 47.4677 99.449 47.4677 99.449L52.5323 99.449C52.5323 99.449 80.9507 99.459 80.9507 68.2119L80.9507 42.1494L80.9507 31.7371C80.9507 0.490088 50 0.5 50 0.5Z" layerName="Curve 1" opacity="1"/><path fill="url(#RadialGradient)" d="M49.9993 0.501638C49.9993 0.501638 46.9798 0.501638 46.1313 0.575144C40.5735 1.05662 19.5585 4.69186 19.0506 32.1385L19.0506 42.6826L49.9993 42.6842L49.9993 0.501638Z" layerName="path 7" opacity="1"/><path fill="url(#RadialGradient_2)" d="M80.948 42.6826L80.948 32.1402C80.948 4.47218 59.2133 1.00118 53.76 0.565742C52.9777 0.503279 49.9993 0.503279 49.9993 0.503279L49.9993 42.6826L80.948 42.6826Z" layerName="path 10" opacity="1"/><path fill="url(#RadialGradient_3)" d="M80.9506 42.5907L80.9506 68.4371C80.9506 95.5585 59.215 98.9609 53.7615 99.3878C52.9792 99.449 50.0006 99.449 50.0006 99.449C50.0006 99.449 46.981 99.449 46.1325 99.3769C40.5744 98.905 19.5586 95.3416 19.0506 68.4371L19.0506 42.5939L50.0006 42.5923L80.9506 42.5907Z" layerName="path 1" opacity="1"/><path fill="#d6d6d6" d="M49.9243 0.664853L49.9243 42.6825L19.1243 42.6825L19.1243 43.0294L80.8743 43.0294L80.8743 42.6825L50.2243 42.6825L50.2243 0.664853L49.9243 0.664853Z" layerName="Curve 7" opacity="1"/><path fill="url(#LinearGradient)" d="M80.9493 42.8356L80.9506 68.4881C80.9917 98.0721 57.355 99.1575 53.7609 99.4388C52.9786 99.5 50 99.5 50 99.5C50 99.5 46.9803 99.5 46.1317 99.4279C40.5735 98.956 19.5572 95.3926 19.0493 68.4881L19.0493 42.8356L80.9493 42.8356Z" layerName="path 8" opacity="1"/><path fill="url(#RadialGradient_4)" d="M80.9506 42.5907L80.9506 68.4371C80.9506 95.5585 59.215 98.9609 53.7615 99.3878C52.9792 99.449 50.0006 99.449 50.0006 99.449C50.0006 99.449 46.981 99.449 46.1325 99.3769C40.5744 98.905 19.5586 95.3416 19.0506 68.4371L19.0506 42.5939L50.0006 42.5923L80.9506 42.5907Z" layerName="path 11" opacity="1"/><path fill="url(#LinearGradient_2)" d="M47.2286 20.2533L35.2766 20.2533L49.9999 5.23416L64.7233 20.2533L52.7714 20.2533L52.7714 34.9807L64.7234 34.9807L50 50L35.2767 34.9807L47.2286 34.9807L47.2286 20.2533Z" filter="url(#Filter_ArrowsCombined)" layerName="Top" shadowAngle="1.571" shadowColor="#000000" shadowOffset="1" shadowOpacity=".44" shadowRadius="2"><animate attributeName="d" dur="3s" repeatCount="indefinite" values="M47.2286 20.2533L35.2766 20.2533L49.9999 5.23416L64.7233 20.2533L52.7714 20.2533L52.7714 34.9807L64.7234 34.9807L50 50L35.2767 34.9807L47.2286 34.9807L47.2286 20.2533Z;M47.2279 35.3889L35.2759 35.3889L49.9992 20.3698L64.7226 35.3889L52.7707 35.3889L52.7707 50.1163L64.7227 50.1163L49.9993 65.1356L35.276 50.1163L47.2279 50.1163L47.2279 35.3889Z;M47.2286 20.2533L35.2766 20.2533L49.9999 5.23416L64.7233 20.2533L52.7714 20.2533L52.7714 34.9807L64.7234 34.9807L50 50L35.2767 34.9807L47.2286 34.9807L47.2286 20.2533Z"/></path></g></svg>