<svg xmlns="http://www.w3.org/2000/svg" xmlns:xlink="http://www.w3.org/1999/xlink" id="e57e69Xyikj1" shape-rendering="geometricPrecision" text-rendering="geometricPrecision" viewBox="0 0 130 130"><style>@keyframes e57e69Xyikj3_to__to{0%{transform:translate(107.271528px,57.148376px)}66.486486%{transform:translate(107.271528px,57.148376px);animation-timing-function:cubic-bezier(.42,0,.58,1)}88.918919%{transform:translate(116.69123px,59.148376px)}}@keyframes e57e69Xyikj3_tr__tr{0%{transform:rotate(0deg)}66.486486%{transform:rotate(0deg);animation-timing-function:cubic-bezier(.42,0,1,1)}88.918919%{transform:rotate(11.364454deg)}}@keyframes e57e69Xyikj3_ts__ts{0%{transform:scale(1.06,1.06)}34.594595%{transform:scale(1.06,1.06);animation-timing-function:cubic-bezier(.42,0,.58,1)}43.243243%{transform:scale(.6,.6);animation-timing-function:cubic-bezier(0,0,.465547,.600799)}45.135135%{transform:scale(.6,.6);animation-timing-function:cubic-bezier(.332365,.571835,.68605,1)}48.378378%,66.486486%{transform:scale(1,1)}88.918919%{transform:scale(.842903,.842903)}}@keyframes e57e69Xyikj3_c_o{0%,65.945946%{opacity:0}88.918919%{opacity:1}}@keyframes e57e69Xyikj4_s_do{0%{stroke-dashoffset:600}77.027027%{stroke-dashoffset:600;animation-timing-function:cubic-bezier(0,1.015,1,1)}}@keyframes e57e69Xyikj5_c_o{0%,84.594595%{opacity:0}88.918919%{opacity:1}}@keyframes e57e69Xyikj6_to__to{0%{transform:translate(107.271528px,57.148376px)}66.486486%{transform:translate(107.271528px,57.148376px);animation-timing-function:cubic-bezier(.685,-.01,.36,1)}78.918919%{transform:translate(88.69123px,57.148376px)}}@keyframes e57e69Xyikj6_tr__tr{0%{transform:rotate(0deg)}66.486486%{transform:rotate(0deg);animation-timing-function:cubic-bezier(.42,0,1,1)}78.918919%{transform:rotate(-15deg)}}@keyframes e57e69Xyikj6_ts__ts{0%{transform:scale(1.06,1.06)}32.972973%{transform:scale(1.06,1.06);animation-timing-function:cubic-bezier(.42,0,.58,1)}43.243243%{transform:scale(.6,.6);animation-timing-function:cubic-bezier(0,0,.465547,.600799)}45.135135%{transform:scale(.6,.6);animation-timing-function:cubic-bezier(.332365,.571835,.68605,1)}48.378378%,66.486486%{transform:scale(1,1)}78.918919%{transform:scale(.9,.9)}}@keyframes e57e69Xyikj8_s_do{0%{stroke-dashoffset:350}15.675676%{stroke-dashoffset:350;animation-timing-function:cubic-bezier(.535,.58,.07,1)}34.594595%{stroke-dashoffset:0}}@keyframes e57e69Xyikj9_ts__ts{0%,50.27027%{transform:translate(91.607643px,69.811801px) rotate(10.5deg) scale(1,1)}34.594595%{transform:translate(91.607643px,69.811801px) rotate(10.5deg) scale(1,1);animation-timing-function:cubic-bezier(.55,.085,.68,.53)}43.243243%{transform:translate(91.607643px,69.811801px) rotate(10.5deg) scale(.7,.7);animation-timing-function:cubic-bezier(.455,.03,.515,.955)}48.378378%{transform:translate(91.607643px,69.811801px) rotate(10.5deg) scale(1.2,1.2);animation-timing-function:cubic-bezier(.25,.46,.45,.94)}}@keyframes e57e69Xyikj9_c_o{0%{opacity:0}34.594595%{opacity:0;animation-timing-function:cubic-bezier(.55,.085,.68,.53)}44.324324%{opacity:1}}@keyframes e57e69Xyikj10_ts__ts{0%{transform:translate(91.607643px,69.811801px) rotate(10.5deg) scale(1,1)}48.378378%{transform:translate(91.607643px,69.811801px) rotate(10.5deg) scale(1,1);animation-timing-function:cubic-bezier(0,.995,1,1)}59.189189%{transform:translate(91.607643px,69.811801px) rotate(10.5deg) scale(2.28,2.28)}}@keyframes e57e69Xyikj10_c_o{0%,47.567568%,57.027027%{opacity:0}48.378378%{opacity:1;animation-timing-function:cubic-bezier(0,.995,1,1)}}@keyframes e57e69Xyikj11_c_o{0%,32.972973%{opacity:0}45.675676%{opacity:1}}@keyframes e57e69Xyikj11_s_do{0%,32.972973%,43.243243%{stroke-dashoffset:0}}#e57e69Xyikj3_to{animation:e57e69Xyikj3_to__to 3700ms linear 1 normal forwards}#e57e69Xyikj3_tr{animation:e57e69Xyikj3_tr__tr 3700ms linear 1 normal forwards}#e57e69Xyikj3_ts{animation:e57e69Xyikj3_ts__ts 3700ms linear 1 normal forwards}#e57e69Xyikj3{animation:e57e69Xyikj3_c_o 3700ms linear 1 normal forwards}#e57e69Xyikj4{animation:e57e69Xyikj4_s_do 3700ms linear 1 normal forwards}#e57e69Xyikj5{animation:e57e69Xyikj5_c_o 3700ms linear 1 normal forwards}#e57e69Xyikj6_to{animation:e57e69Xyikj6_to__to 3700ms linear 1 normal forwards}#e57e69Xyikj6_tr{animation:e57e69Xyikj6_tr__tr 3700ms linear 1 normal forwards}#e57e69Xyikj6_ts{animation:e57e69Xyikj6_ts__ts 3700ms linear 1 normal forwards}#e57e69Xyikj8{animation:e57e69Xyikj8_s_do 3700ms linear 1 normal forwards}#e57e69Xyikj9_ts{animation:e57e69Xyikj9_ts__ts 3700ms linear 1 normal forwards}#e57e69Xyikj9{animation:e57e69Xyikj9_c_o 3700ms linear 1 normal forwards}#e57e69Xyikj10_ts{animation:e57e69Xyikj10_ts__ts 3700ms linear 1 normal forwards}#e57e69Xyikj10{animation:e57e69Xyikj10_c_o 3700ms linear 1 normal forwards}#e57e69Xyikj11{animation-name:e57e69Xyikj11_c_o,e57e69Xyikj11_s_do;animation-duration:3700ms;animation-fill-mode:forwards;animation-timing-function:linear;animation-direction:normal;animation-iteration-count:1}</style><defs><linearGradient id="e57e69Xyikj4-stroke" x1="50.062" x2="133.145" y1="54.749" y2="54.749" gradientTransform="translate(0 0)" gradientUnits="userSpaceOnUse" spreadMethod="pad"><stop id="e57e69Xyikj4-stroke-0" offset="0%" stop-color="#de2800"/><stop id="e57e69Xyikj4-stroke-1" offset="100%" stop-color="#ffb148"/></linearGradient><linearGradient id="e57e69Xyikj8-stroke" x1="50.062" x2="133.145" y1="54.749" y2="54.749" gradientTransform="translate(0 0)" gradientUnits="userSpaceOnUse" spreadMethod="pad"><stop id="e57e69Xyikj8-stroke-0" offset="0%" stop-color="#de2800"/><stop id="e57e69Xyikj8-stroke-1" offset="100%" stop-color="#ffb148"/></linearGradient></defs><g transform="translate(-34.649359 4.988851)"><g id="e57e69Xyikj3_to" transform="translate(107.271528,57.148376)"><g id="e57e69Xyikj3_tr" transform="rotate(0)"><g id="e57e69Xyikj3_ts" transform="scale(1.06,1.06)"><g id="e57e69Xyikj3" opacity="0" transform="translate(-91.624626,-54.768775)"><path id="e57e69Xyikj4" fill="none" stroke="url(#e57e69Xyikj4-stroke)" stroke-dasharray="500" stroke-dashoffset="600" stroke-linecap="round" stroke-linejoin="round" stroke-width="3" d="M85.2702,19.3662c6.4075-1.1535,10.5871-7.436,9.3354-14.03223c0-.00003,0-.00007,0-.0001l5.8004-1.0443c8.204-1.47691,12.306-2.21536,15.337-.13004c3.032,2.08533,3.809,6.18007,5.363,14.36957l9.89,52.1173c2.331,12.2843,3.496,18.4264.398,22.9308-3.099,4.5044-9.252,5.6121-21.557,7.8278l-17.4031,3.133c-12.3056,2.215-18.4584,3.323-23.0055.195-4.547-3.128-5.7125-9.2704-8.0436-21.5546l-9.89-52.1174c-1.5541-8.1894-2.3311-12.2842-.2653-15.2871c2.0657-3.003,6.1676-3.7414,14.3713-5.2184l5.8011-1.04431c0,.00003,0,.00007,0,.0001c1.2518,6.59621,7.4608,11.00841,13.8683,9.85491Z" clip-rule="evenodd" transform="matrix(.983255 0.182236-.182236 0.983255 11.515079-15.780154)"/><path id="e57e69Xyikj5" fill="none" stroke="#f9f9f9" stroke-dasharray="9.5" stroke-dashoffset="3" stroke-linecap="round" stroke-width="4.421" d="M95.683061,34.868287c8.33044-.986348,21.213771-3.182156,21.213771-3.182156" opacity="0" transform="matrix(.983255 0.182236-.182236 0.983255 8.379443-15.544214)"/></g></g></g></g><g id="e57e69Xyikj6_to" transform="translate(107.271528,57.148376)"><g id="e57e69Xyikj6_tr" transform="rotate(0)"><g id="e57e69Xyikj6_ts"><g opacity=".996" transform="scale(1.06,1.06) translate(-91.624626,-54.768775)"><path id="e57e69Xyikj8" fill="none" stroke="url(#e57e69Xyikj8-stroke)" stroke-dasharray="350" stroke-dashoffset="350" stroke-linecap="round" stroke-linejoin="round" stroke-width="3" d="M85.2702,19.3662c6.4075-1.1535,10.5871-7.436,9.3354-14.03223c0-.00003,0-.00007,0-.0001l5.8004-1.0443c8.204-1.47691,12.306-2.21536,15.337-.13004c3.032,2.08533,3.809,6.18007,5.363,14.36957l9.89,52.1173c2.331,12.2843,3.496,18.4264.398,22.9308-3.099,4.5044-9.252,5.6121-21.557,7.8278l-17.4031,3.133c-12.3056,2.215-18.4584,3.323-23.0055.195-4.547-3.128-5.7125-9.2704-8.0436-21.5546l-9.89-52.1174c-1.5541-8.1894-2.3311-12.2842-.2653-15.2871c2.0657-3.003,6.1676-3.7414,14.3713-5.2184l5.8011-1.04431c0,.00003,0,.00007,0,.0001c1.2518,6.59621,7.4608,11.00841,13.8683,9.85491Z" clip-rule="evenodd" transform="matrix(.983255 0.182236-.182236 0.983255 11.515079-15.780154)"/><g id="e57e69Xyikj9_ts" transform="translate(91.607643,69.811801) rotate(10.5) scale(1,1)"><path id="e57e69Xyikj9" fill="#f9f9f9" d="M96.7672,79.9514l9.4518,3.8125c1.731.699,3.348-1.0861,2.595-2.8398l-4.14-9.624l6.182-8.099c1.129-1.4774-.047-3.6824-1.865-3.5089l-9.9878.8975-5.6417-8.7825c-1.018-1.5962-3.3772-1.1715-3.7421.6737l-2.05,10.1452-9.6577,2.6394c-1.7615.4709-2.0502,2.9394-.4538,3.9262l8.7458,5.4117-.3344,10.4295c-.0601,1.9001,2.1054,3.0042,3.4656,1.7487l7.4323-6.8302Z" opacity="0" transform="translate(-93.854698,-69.068892)"/></g><g id="e57e69Xyikj10_ts" transform="translate(91.607643,69.811801) rotate(10.5) scale(1,1)"><path id="e57e69Xyikj10" fill="#f9f9f9" d="M96.7672,79.9514l9.4518,3.8125c1.731.699,3.348-1.0861,2.595-2.8398l-4.14-9.624l6.182-8.099c1.129-1.4774-.047-3.6824-1.865-3.5089l-9.9878.8975-5.6417-8.7825c-1.018-1.5962-3.3772-1.1715-3.7421.6737l-2.05,10.1452-9.6577,2.6394c-1.7615.4709-2.0502,2.9394-.4538,3.9262l8.7458,5.4117-.3344,10.4295c-.0601,1.9001,2.1054,3.0042,3.4656,1.7487l7.4323-6.8302Z" opacity="0" transform="translate(-93.854698,-69.068892)"/></g><path id="e57e69Xyikj11" fill="none" stroke="#f9f9f9" stroke-dasharray="11" stroke-linecap="round" stroke-width="4.421" d="M65.039336,42.084464c0,0,40.609874-7.36893,57.376447-10.634096" opacity="0" transform="matrix(.983255 0.182236-.182236 0.983255 8.379443-15.544214)"/></g></g></g></g></g></svg>