<svg xmlns="http://www.w3.org/2000/svg" xmlns:svg="http://www.w3.org/2000/svg" id="svg56" width="100%" height="100%" stroke-miterlimit="10" version="1.1" viewBox="0 0 100 100" xml:space="preserve" style="fill-rule:nonzero;clip-rule:evenodd;stroke-linecap:round;stroke-linejoin:round"><style id="style1">@keyframes line-bin1-lid{0%,20%,80%{transform:rotate(0)}40%,60%{transform:rotate(-40deg)}}.line-bin1{animation:line-bin1-lid 4s infinite;transform-origin:24px 48px}@media (prefers-reduced-motion:reduce){.line-bin1{animation:none}}</style><clipPath id="ArtboardFrame"><rect id="rect1" width="51.75" height="65.5" x="23.625" y="33"/></clipPath><g style="display:inline" id="g56" transform="matrix(1.1351102,0,0,1.1351102,-6.75551,-11.808361)"><g id="Layer" class="Layer" clip-path="url(#ArtboardFrame)"><path style="fill:url(#LinearGradient);filter:url(#filter88)" id="path1" fill="url(#LinearGradient)" fill-rule="nonzero" stroke="none" d="m 27.999998,48 h 44 v 46 c 0,2.2091 -1.7909,4 -4,4 h -36 c -2.2091,0 -4,-1.7909 -4,-4 z" class="bin-fill" opacity="1"/><path id="path2" fill="none" stroke="#5b0202" stroke-linecap="round" stroke-linejoin="round" stroke-width="1" d="m 27.999998,48 h 44 v 46 c 0,2.2091 -1.7909,4 -4,4 h -36 c -2.2091,0 -4,-1.7909 -4,-4 z" class="bin-outline" opacity="1"/></g><g id="g6" class="line-bin1" opacity="1" transform="translate(0.49999829)"><path style="fill:url(#LinearGradient_2);filter:url(#filter92)" id="path3" fill="url(#LinearGradient_2)" fill-rule="nonzero" stroke="none" d="m 39,34.339866 h 21 c 1.1046,0 2,0.8954 2,2 v 9 c 0,1.1046 -0.8954,2 -2,2 H 39 c -1.1046,0 -2,-0.8954 -2,-2 v -9 c 0,-1.1046 0.8954,-2 2,-2 z" class="lid-handle-fill" opacity="1"/><path style="opacity:1" id="path4" fill="none" stroke="#5b0202" stroke-linecap="round" stroke-linejoin="round" stroke-width=".776" d="m 39.224305,34.406556 h 20.551388 c 1.081016,0 1.957295,0.882436 1.957295,1.970988 v 8.869285 c 0,1.088551 -0.876279,1.506839 -1.957295,1.506839 H 39.224305 c -1.081016,0 -1.957294,-0.418288 -1.957294,-1.506839 v -8.869285 c 0,-1.088552 0.876278,-1.970988 1.957294,-1.970988 z" class="lid-handle-outline" opacity=".672"/><path style="fill:url(#LinearGradient_3);filter:url(#filter94)" id="path5" fill="url(#LinearGradient_3)" fill-rule="nonzero" stroke="none" d="m 26,42 h 47 c 1.1046,0 2,0.8954 2,2 v 4 c 0,1.1046 -0.8954,2 -2,2 H 26 c -1.1046,0 -2,-0.8954 -2,-2 v -4 c 0,-1.1046 0.8954,-2 2,-2 z" class="lid-base-fill" opacity="1"/><path id="path6" fill="none" stroke="#5b0202" stroke-linecap="round" stroke-linejoin="round" stroke-width=".75" d="m 26,42 h 47 c 1.1046,0 2,0.8954 2,2 v 4 c 0,1.1046 -0.8954,2 -2,2 H 26 c -1.1046,0 -2,-0.8954 -2,-2 v -4 c 0,-1.1046 0.8954,-2 2,-2 z" class="lid-base-outline" opacity="1"/></g><path style="fill:url(#LinearGradient_4)" id="path7" fill="url(#LinearGradient_4)" fill-rule="nonzero" stroke="none" d="m 49.9678,53.3125 c -1.4839,0 -2.6875,1.2036 -2.6875,2.6875 v 34 c 0,1.4839 1.2036,2.6875 2.6875,2.6875 1.4839,0 2.6875,-1.2036 2.6875,-2.6875 V 56 c 0,-1.4839 -1.2036,-2.6875 -2.6875,-2.6875 z" class="stroke-line-right" opacity="1"/><path style="fill:url(#LinearGradient_5)" id="path8" fill="url(#LinearGradient_5)" fill-rule="nonzero" stroke="none" d="m 59.9321,53.3125 c -1.484,0 -2.6875,1.2036 -2.6875,2.6875 v 34 c 0,1.4839 1.2035,2.6875 2.6875,2.6875 1.4839,0 2.6874,-1.2036 2.6875,-2.6875 V 56 c 0,-1.4839 -1.2036,-2.6875 -2.6875,-2.6875 z" class="stroke-line-middle" opacity="1"/><path style="fill:url(#LinearGradient_6)" id="path9" fill="url(#LinearGradient_6)" fill-rule="nonzero" stroke="none" d="m 40.0035,53.3125 c -1.4839,0 -2.6875,1.2036 -2.6875,2.6875 v 34 c 0,1.4839 1.2036,2.6875 2.6875,2.6875 1.4839,0 2.6875,-1.2036 2.6875,-2.6875 V 56 c 0,-1.4839 -1.2036,-2.6875 -2.6875,-2.6875 z" class="stroke-line-left" opacity="1"/></g><defs id="defs56"><linearGradient id="LinearGradient" x1="28.5" x2="72.5" y1="57.5" y2="57.5" gradientTransform="translate(-0.50000144,15.5)" gradientUnits="userSpaceOnUse"><stop id="stop9" offset="0" stop-color="#760002"/><stop id="stop10" offset=".413" stop-color="#ba0004"/><stop id="stop11" offset=".454" stop-color="#ba0004"/><stop id="stop12" offset=".476" stop-color="#ba0004"/><stop id="stop13" offset=".495" stop-color="#ba0004"/><stop id="stop14" offset=".536" stop-color="#ba0004"/><stop id="stop15" offset=".558" stop-color="#ba0004"/><stop id="stop16" offset=".587" stop-color="#ba0004"/><stop id="stop17" offset=".628" stop-color="#ba0004"/><stop id="stop18" offset="1" stop-color="#760002"/></linearGradient><linearGradient id="LinearGradient_2" x1="37.5" x2="62.5" y1="24" y2="24" gradientTransform="translate(-0.49999933,16.839866)" gradientUnits="userSpaceOnUse"><stop id="stop19" offset="0" stop-color="#760002"/><stop id="stop20" offset=".413" stop-color="#ba0004"/><stop id="stop21" offset=".454" stop-color="#ba0004"/><stop id="stop22" offset=".476" stop-color="#ba0004"/><stop id="stop23" offset=".495" stop-color="#ba0004"/><stop id="stop24" offset=".536" stop-color="#ba0004"/><stop id="stop25" offset=".558" stop-color="#ba0004"/><stop id="stop26" offset=".587" stop-color="#ba0004"/><stop id="stop27" offset=".628" stop-color="#ba0004"/><stop id="stop28" offset="1" stop-color="#760002"/></linearGradient><linearGradient id="LinearGradient_3" x1="24.5" x2="75.5" y1="30.5" y2="30.5" gradientTransform="translate(-0.5,15.5)" gradientUnits="userSpaceOnUse"><stop id="stop29" offset="0" stop-color="#760002"/><stop id="stop30" offset=".413" stop-color="#ba0004"/><stop id="stop31" offset=".454" stop-color="#ba0004"/><stop id="stop32" offset=".476" stop-color="#ba0004"/><stop id="stop33" offset=".495" stop-color="#ba0004"/><stop id="stop34" offset=".536" stop-color="#ba0004"/><stop id="stop35" offset=".558" stop-color="#ba0004"/><stop id="stop36" offset=".587" stop-color="#ba0004"/><stop id="stop37" offset=".628" stop-color="#ba0004"/><stop id="stop38" offset="1" stop-color="#760002"/></linearGradient><linearGradient id="LinearGradient_4" x1="38.371" x2="42.918" y1="64.664" y2="64.693" gradientTransform="translate(9.4678,15.5)" gradientUnits="userSpaceOnUse"><stop id="stop39" offset="0" stop-color="#ba0004"/><stop id="stop40" offset="0" stop-color="#ba0004"/><stop id="stop41" offset="0" stop-color="#ba0004"/><stop id="stop42" offset=".009" stop-color="#ba0004"/><stop id="stop43" offset=".228" stop-color="#ba0004"/><stop id="stop44" offset="1" stop-color="#760104"/></linearGradient><linearGradient id="LinearGradient_5" x1="38.371" x2="42.918" y1="64.664" y2="64.693" gradientTransform="translate(19.4321,15.5)" gradientUnits="userSpaceOnUse"><stop id="stop45" offset="0" stop-color="#ba0004"/><stop id="stop46" offset="0" stop-color="#ba0004"/><stop id="stop47" offset="0" stop-color="#ba0004"/><stop id="stop48" offset=".009" stop-color="#ba0004"/><stop id="stop49" offset=".228" stop-color="#ba0004"/><stop id="stop50" offset="1" stop-color="#760104"/></linearGradient><linearGradient id="LinearGradient_6" x1="38.371" x2="42.918" y1="64.664" y2="64.693" gradientTransform="translate(-0.496501,15.5)" gradientUnits="userSpaceOnUse"><stop id="stop51" offset="0" stop-color="#ba0004"/><stop id="stop52" offset="0" stop-color="#ba0004"/><stop id="stop53" offset="0" stop-color="#ba0004"/><stop id="stop54" offset=".009" stop-color="#ba0004"/><stop id="stop55" offset=".228" stop-color="#ba0004"/><stop id="stop56" offset="1" stop-color="#760104"/></linearGradient><filter id="filter88" width="1.087" height="1.077" x="-.044" y="-.038" style="color-interpolation-filters:sRGB"><feFlood id="feFlood87" flood-color="#000" flood-opacity=".973" in="SourceGraphic" result="flood"/><feGaussianBlur id="feGaussianBlur87" in="SourceGraphic" result="blur" stdDeviation=".4"/><feOffset id="feOffset87" dx="0" dy="0" in="blur" result="offset"/><feComposite id="feComposite87" in="offset" in2="flood" operator="in" result="comp1"/><feComposite id="feComposite88" in="SourceGraphic" in2="comp1" operator="over" result="fbSourceGraphic"/><feColorMatrix id="feColorMatrix88" in="fbSourceGraphic" result="fbSourceGraphicAlpha" values="0 0 0 -1 0 0 0 0 -1 0 0 0 0 -1 0 0 0 0 1 0"/><feFlood id="feFlood88" flood-color="#000" flood-opacity=".973" in="fbSourceGraphic" result="flood"/><feGaussianBlur id="feGaussianBlur88" in="fbSourceGraphic" result="blur" stdDeviation=".4"/><feOffset id="feOffset88" dx="0" dy="0" in="blur" result="offset"/><feComposite id="feComposite89" in="offset" in2="flood" operator="in" result="comp1"/><feComposite id="feComposite90" in="fbSourceGraphic" in2="comp1" operator="over" result="comp2"/></filter><filter id="filter92" width="1.077" height="1.148" x="-.038" y="-.074" style="color-interpolation-filters:sRGB"><feFlood id="feFlood90" flood-color="#000" flood-opacity=".973" in="SourceGraphic" result="flood"/><feGaussianBlur id="feGaussianBlur90" in="SourceGraphic" result="blur" stdDeviation=".4"/><feOffset id="feOffset90" dx="0" dy="0" in="blur" result="offset"/><feComposite id="feComposite91" in="offset" in2="flood" operator="in" result="comp1"/><feComposite id="feComposite92" in="SourceGraphic" in2="comp1" operator="over" result="comp2"/></filter><filter id="filter94" width="1.038" height="1.24" x="-.019" y="-.12" style="color-interpolation-filters:sRGB"><feFlood id="feFlood92" flood-color="#000" flood-opacity=".973" in="SourceGraphic" result="flood"/><feGaussianBlur id="feGaussianBlur92" in="SourceGraphic" result="blur" stdDeviation=".4"/><feOffset id="feOffset92" dx="0" dy="0" in="blur" result="offset"/><feComposite id="feComposite93" in="offset" in2="flood" operator="in" result="comp1"/><feComposite id="feComposite94" in="SourceGraphic" in2="comp1" operator="over" result="comp2"/></filter></defs></svg>