<svg id="ani-continue-watching" xmlns="http://www.w3.org/2000/svg" xmlns:xlink="http://www.w3.org/1999/xlink" viewBox="0 0 260 144" shape-rendering="geometricPrecision" text-rendering="geometricPrecision">
<style><![CDATA[
#ani-continue-watching-u-container-glow_to {animation: ani-continue-watching-u-container-glow_to__to 1000ms linear infinite normal forwards}@keyframes ani-continue-watching-u-container-glow_to__to { 0% {transform: translate(579.249984px,319.666985px)} 50% {transform: translate(579.249984px,319.666985px)} 100% {transform: translate(579.249984px,319.666985px)}} #ani-continue-watching-u-container-glow_ts {animation: ani-continue-watching-u-container-glow_ts__ts 1000ms linear infinite normal forwards}@keyframes ani-continue-watching-u-container-glow_ts__ts { 0% {transform: scale(0.632727,0.520956)} 50% {transform: scale(0.976266,0.976266)} 100% {transform: scale(0.632727,0.520957)}} #ani-continue-watching-u-container-glow {animation: ani-continue-watching-u-container-glow_c_o 1000ms linear infinite normal forwards}@keyframes ani-continue-watching-u-container-glow_c_o { 0% {opacity: 1} 50% {opacity: 0} 51% {opacity: 0} 99% {opacity: 0} 100% {opacity: 1}}
]]></style>
<g id="ani-continue-watching-u-large-card" transform="matrix(.464931 0 0 0.464931-49.779941-126.946902)"><rect id="ani-continue-watching-s-rect1" width="533" height="300" rx="8" ry="8" transform="translate(120 278)" fill="#202020" stroke="#3a3a3a"/><rect id="ani-continue-watching-s-rect2" width="177.082993" height="8.33333" rx="4.16667" ry="4.16667" transform="translate(145 553)" fill="#de3f00"/><g id="ani-continue-watching-u-expiration"><g id="ani-continue-watching-u-container-glow_to" transform="translate(579.249984,319.666985)"><g id="ani-continue-watching-u-container-glow_ts" transform="scale(0.632727,0.520956)"><rect id="ani-continue-watching-u-container-glow" width="173.8506" height="85.488981" rx="19" ry="19" transform="translate(-86.925292,-42.679965)" fill="#fff" stroke-width="4"/></g></g><rect id="ani-continue-watching-s-rect3" width="60" height="24" rx="4" ry="4" transform="matrix(1.826391 0 0 1.826388 524.666502 297.432572)" fill="#f9f9f9"/><g id="ani-continue-watching-u-clock" transform="translate(-5 0)"><path id="ani-continue-watching-s-path1" d="M557.583,333.556c7.671,0,13.889-6.219,13.889-13.889c0-7.671-6.218-13.889-13.889-13.889-7.67,0-13.888,6.218-13.888,13.889c0,7.67,6.218,13.889,13.888,13.889Z" fill="none" stroke="#000" stroke-width="2.08333" stroke-linecap="round" stroke-linejoin="round"/><path id="ani-continue-watching-s-path2" d="M557.583,311.333v8.334l4.167,4.166" fill="none" stroke="#000" stroke-width="2.08333" stroke-linecap="round" stroke-linejoin="round"/></g><path id="ani-continue-watching-s-path3" d="M215.572,24.5v-1.56l3.289-2.548c1.066-.845,1.404-1.43,1.404-2.054c0-.741-.624-1.183-1.352-1.183-.871,0-1.534.442-2.184,1.183l-1.222-1.183c.884-1.118,2.015-1.742,3.458-1.742c1.898,0,3.276,1.17,3.276,2.847c0,1.196-.52,2.119-2.08,3.25l-1.625,1.261h3.783v1.729h-6.747Zm8.857,0l3.549-7.202h-4.42v-1.729h6.643v1.443L226.6,24.5h-2.171Zm11.083-6.877c1.456,0,2.496,1.079,2.496,2.6v4.277h-1.833v-3.874c0-.832-.52-1.404-1.274-1.404-.793,0-1.404.572-1.404,1.3v3.978h-1.898v-9.087h1.898v3.185c.416-.585,1.157-.975,2.015-.975Z" transform="matrix(2.144482 0 0 2.144482 112.57835 276.12924)"/></g><g id="ani-continue-watching-s-g1" transform="matrix(1.892026 0 0 1.892031 154.957176 264.153318)" opacity="0.48"><path id="ani-continue-watching-s-path4" d="M70.6696,61.7753c2.7694-4.1683,8.8914-4.1683,11.6608,0L132.062,136.626c3.091,4.653-.244,10.874-5.83,10.874h-99.4638c-5.5859,0-8.9216-6.221-5.8304-10.874L70.6696,61.7753Z" opacity="0.32" fill="#f9f9f9"/><path id="ani-continue-watching-s-path5" d="M110.679,41.7152c2.771-4.1494,8.871-4.1495,11.642,0l63.55,95.1468c3.107,4.652-.227,10.888-5.821,10.888h-127.1001c-5.5936,0-8.9277-6.236-5.8209-10.888l63.55-95.1468Z" opacity="0.18" fill="#f9f9f9"/><circle id="ani-continue-watching-s-circle1" r="20" transform="translate(205 42)" opacity="0.4" fill="#f9f9f9"/></g></g></svg>