<svg xmlns="http://www.w3.org/2000/svg" shape-rendering="geometricPrecision" text-rendering="geometricPrecision" width="100%" height="100%" viewBox="280 200 250 250"><style>@keyframes wanding-g2_to__to{0%{transform:translate(45.617px,35.245611px);animation-timing-function:cubic-bezier(.42,0,.58,1)}to{transform:translate(69.561303px,35.245611px)}}@keyframes wanding-g2_ts__ts{0%{transform:scale(.8,.8);animation-timing-function:cubic-bezier(.42,0,.58,1)}to{transform:scale(1.2,1.2)}}@keyframes wanding-path1_c_o{0%,16.5%,65.5%,to{opacity:0}27.5%,53.5%{opacity:1}}@keyframes wanding-path2_c_o{0%,32%,81%,to{opacity:0}43%,69%{opacity:1}}@keyframes wanding-star_tr__tr{0%,8.5%{transform:translate(83.499401px,107.775513px) rotate(0deg)}92.5%,to{transform:translate(83.499401px,107.775513px) rotate(360deg)}}@keyframes wanding-star_ts__ts{0%,41%,99.5%,to{transform:scale(0,0)}55.5%,88%{transform:scale(1,1)}}@keyframes wanding-star2_tr__tr{0%{transform:translate(29.977854px,-10.265272px) rotate(0deg)}to{transform:translate(29.977854px,-10.265272px) rotate(360deg)}}@keyframes wanding-star2_ts__ts{0%,60%,to{transform:scale(0,0)}15%,43.5%{transform:scale(1,1)}}@keyframes wanding-path5_c_o{0%,21%,70%,to{opacity:0}32%,58%{opacity:1}}@keyframes wanding-star3_tr__tr{0%{transform:translate(108.943573px,40.321768px) rotate(0deg)}to{transform:translate(108.943573px,40.321768px) rotate(360deg)}}@keyframes wanding-star3_ts__ts{0%,18.5%,67.5%,to{transform:scale(0,0)}29.5%,56.5%{transform:scale(1,1)}}@keyframes wanding-path7_c_o{0%,25.5%,74.5%,to{opacity:0}36.5%,62.5%{opacity:1}}@keyframes wanding-star4_tr__tr{0%{transform:translate(17.944385px,78.248875px) rotate(0deg)}to{transform:translate(17.944385px,78.248875px) rotate(360deg)}}@keyframes wanding-star4_ts__ts{0%,29.5%,80%,to{transform:scale(0,0)}42%,67.5%{transform:scale(1,1)}}@keyframes wanding-wand_tr__tr{0%,50%{transform:translate(21.652274px,130.334346px) rotate(-11.368462deg);animation-timing-function:cubic-bezier(.42,0,.58,1)}25%,75%{transform:translate(21.652274px,130.334346px) rotate(10.778259deg);animation-timing-function:cubic-bezier(.42,0,.58,1)}to{transform:translate(21.652274px,130.334346px) rotate(-11.368462deg)}}@keyframes wanding-wand_ts__ts{0%,50%,to{transform:scale(1,1)}12.5%,62.5%{transform:scale(1,.89348);animation-timing-function:cubic-bezier(.305,0,1,1)}25%,75%{transform:scale(1,1);animation-timing-function:cubic-bezier(.305,0,1,1)}36%,86%{transform:scale(1,1.064975)}}@keyframes wanding-spiral_s_do{0%{stroke-dashoffset:-229.1}to{stroke-dashoffset:230}}@keyframes wanding-spin_to__to{0%,50%{transform:translate(60.674093px,27.78164px);animation-timing-function:cubic-bezier(.42,0,.58,1)}25%,75%{transform:translate(64.435317px,30.684733px);animation-timing-function:cubic-bezier(.42,0,.58,1)}to{transform:translate(60.674093px,27.78164px)}}@keyframes wanding-spin_s_do{0%{stroke-dashoffset:55}to{stroke-dashoffset:-104}}@keyframes wanding-circle_s_do{0%{stroke-dashoffset:29}25%{stroke-dashoffset:16}36%{stroke-dashoffset:9}to{stroke-dashoffset:-31}}#wanding-g2_to{animation:wanding-g2_to__to 2000ms linear infinite normal forwards}#wanding-g2_ts{animation:wanding-g2_ts__ts 2000ms linear infinite normal forwards}#wanding-star_tr{animation:wanding-star_tr__tr 2000ms linear infinite normal forwards}#wanding-star_ts{animation:wanding-star_ts__ts 2000ms linear infinite normal forwards}#wanding-star2_tr{animation:wanding-star2_tr__tr 2000ms linear infinite normal forwards}#wanding-star2_ts{animation:wanding-star2_ts__ts 2000ms linear infinite normal forwards}#wanding-star3_tr{animation:wanding-star3_tr__tr 2000ms linear infinite normal forwards}#wanding-star3_ts{animation:wanding-star3_ts__ts 2000ms linear infinite normal forwards}#wanding-star4_tr{animation:wanding-star4_tr__tr 2000ms linear infinite normal forwards}#wanding-star4_ts{animation:wanding-star4_ts__ts 2000ms linear infinite normal forwards}#wanding-wand_tr{animation:wanding-wand_tr__tr 2000ms linear infinite normal forwards}#wanding-wand_ts{animation:wanding-wand_ts__ts 2000ms linear infinite normal forwards}#wanding-spin_to{animation:wanding-spin_to__to 2000ms linear infinite normal forwards}#wanding-spin{animation:wanding-spin_s_do 2000ms linear infinite normal forwards}</style><g id="wanding-g1" transform="matrix(1.79583 0 0 1.55111 317.694 208.318)"><g id="wanding-g2_to" transform="translate(45.617 35.246)"><g id="wanding-g2_ts" transform="scale(.8)"><g id="wanding-g2" transform="translate(-63.444 -49.5)"><g id="wanding-star_tr" transform="translate(83.5 107.776)"><g id="wanding-star_ts" transform="scale(0)"><g id="wanding-star" transform="translate(-83.5 -107.776)"><path id="wanding-path3" fill="#FFCC02" stroke="none" stroke-width="1" transform="translate(26.125 4.982)" d="M58.008 99.124c.31-.407 1.032-.235 1.14.308.222 1.159-.66 2.075-.882 3.155.833.648 2.963.604 2.363 2.219-.928 1.055-2.2.065-3.172-.337-.52.839-.942 1.87-1.902 2.219-.846-.955.224-2.226.498-3.227-.797-.594-2.37-1.068-1.974-2.439.994-.316 1.952.107 2.778.673.618-.723.799-1.7 1.15-2.57Z"/></g></g></g><g id="wanding-star2_tr" transform="translate(29.978 -10.265)"><g id="wanding-star2_ts" transform="scale(0)"><g id="wanding-star2" transform="translate(-29.978 10.265)"><path id="wanding-path4" fill="#FFCC02" stroke="none" stroke-width="1" transform="translate(-28.737 -19.927)" d="M58.696 4.596c1.96-.135 1.318 2.887 1.199 4.234 1.132.43 2.835-.516 3.415 1.03-.798 1.028-2.242.788-3.35.948-.295 1.108-.083 2.29-.395 3.395a.693.693 0 0 1-1.263.2c-.71-.964-.16-2.247-.404-3.343-.808-.986-3.328.062-3.779-1.462 1.071-1.123 2.652-.713 3.986-.84.307-1.316-.403-3.241.591-4.162Z"/></g></g></g><g id="wanding-star3_tr" transform="translate(108.944 40.322)"><g id="wanding-star3_ts" transform="scale(0)"><g id="wanding-star3" transform="translate(-108.944 -40.322)"><path id="wanding-path6" fill="#FFCC02" stroke="none" stroke-width="1" transform="translate(20.9 2.49)" d="M88.343 32.883c1.871-.125-.036 3.06.36 3.806 1.199-.232 2.23-.997 3.381-1.377.658-.277 1.054.675.682 1.188-.738.937-1.997.904-2.893 1.584.451.964 1.615 1.758 1.046 3-1.087 1.068-1.972-.794-2.837-1.331-.29 1.047-.374 2.281-1.214 3.028-1.375.066-.943-1.946-1.108-2.905-.825.23-1.743.869-2.544.232-.309-1.47 1.36-2.13 2.291-2.765-.515-1.22-2.146-2.083-1.908-3.514 1.225-1.589 2.273 1.023 3.368 1.507.191-.957.496-1.986 1.376-2.453Z"/></g></g></g><g id="wanding-star4_tr" transform="translate(17.944 78.249)"><g id="wanding-star4_ts" transform="scale(0)"><g id="wanding-star4" transform="translate(-17.944 -78.249)"><path id="wanding-path8" fill="#FFCC02" stroke="none" stroke-width="1" transform="translate(-7.837 2.49)" d="M27.127 70.344c.247-.288.839-.135.784.311.127 1.772-1.006 3.216-1.48 4.83 1.445-.09 2.777-1.153 4.227-.847.142 2.014-3.024 1.479-3.778 2.321.466 1.183 1.526 2.332 1.402 3.632-1.178 1.177-1.717-1.238-2.425-1.952-.384.916-.185 2.429-1.351 2.68-1.47-.932.054-2.624-.039-3.948-1.178.174-2.631 2.725-3.566.898.228-1.619 1.963-2.077 3.143-2.676-.605-1.108-1.237-2.354-1.014-3.691 1.4-.743 1.567 1.492 2.267 2.282.682-1.235.962-2.75 1.83-3.84Z"/></g></g></g></g></g></g><g id="wanding-wand_tr" transform="rotate(-11.368 665.54 -43.6)"><g id="wanding-wand_ts"><g id="wanding-wand" transform="translate(-23.399 -130.822)"><path id="wanding-square" fill="#fff" stroke="none" stroke-width="1" transform="matrix(.17874 -.00033 .00044 .23758 60.156 20.838)" d="M48.43 2.883c12.768-42.201 57.997-8.535 58.356-2.9L40.999 105.609l-51.187-15.842L48.43 2.883Z"/><path id="wanding-path9" fill="#141415" fill-rule="evenodd" stroke="#000" stroke-width="1" d="M59.58 36.89c3.289-6.336 5.37-13.445 9.326-19.376 1.189-1.799 3.41-1.865 5.256-1.814 1.697-.066 2.94 1.324 4.39 2.03 1.181.678.963 2.184 1.27 3.36-.762 2.43-2.016 4.64-3.163 6.878-1.636 4.688-4.234 8.911-5.956 13.534l-.98 1.922c-1.8 3.725-3.583 6.468-5.097 10.357l-2.545 5.44c-2.094 5.904-5.273 11.356-7.758 17.128-2.33 4.33-7.313 15.627-9.699 19.932-1.282 2.89-2.124 4.438-3.568 7.862-1.388 3.29-2.556 5.276-3.294 7.085-3.021 7.407-6.683 14.479-10.127 21.639-.98.935-1.052 3.018-2.6 3.095-2.56-.078-5.718-1.271-6.351-4.27 3.281-9.03 7.293-17.744 11.116-26.516 1.5-3.35 2.79-6.842 4.429-10.138C38.197 85.828 48 64.218 48 64.218s2.085-5.031 2.994-6.979c1.5-3.5 4.518-11.06 5.93-14.28.552-1.257 1.1-2.508 1.663-3.739l.993-2.33Zm.81 4.385c3.08-7.243 6.545-14.347 9.284-21.804l.004-.008c.52-.955 1.127-2.068 2.239-2.254 2.182-.395 4.754.184 5.998 2.31.414.633-.184 1.25-.66 1.567-1.916.152-3.921-.56-5.308-1.995-.609-.078-1.196.762-.742 1.318 1.06 2.013 3.29 2.847 5.278 3.164A8115.793 8115.793 0 0 1 67.4 43.094c-2.272 1.461-5.604.547-7.01-1.819Z" clip-rule="evenodd"/></g></g></g><g id="wanding-spin_to" transform="translate(60.674 27.782)"><path id="wanding-spin" fill="#510B13" fill-opacity="0" stroke="rgba(255,228,82,.75)" stroke-dasharray="40" stroke-dashoffset="55" stroke-linecap="round" stroke-linejoin="round" stroke-width="2" transform="matrix(1.73309 .61056 .39812 -1.13006 -3.008 1.577)" d="M-13.177 2.168c0-2.84 8.116-5.144 18.127-5.144 10.012 0 18.127 2.303 18.127 5.144S14.962 7.312 4.95 7.312c-10.01 0-18.127-2.303-18.127-5.144Z"/></g></g></svg>
