<svg xmlns="http://www.w3.org/2000/svg"  viewBox="0 0 48 48" width="100px" height="100px" baseProfile="basic"><path fill="#904aff" d="M45.1,22.01C45.07,22,45.03,22,45,22H35c-0.13,0-0.25,0.03-0.37,0.07	c0.11,0.63,0.17,1.27,0.17,1.93c0,0.66-0.06,1.3-0.17,1.93C34.75,25.97,34.87,26,35,26h10c0.03,0,0.07,0,0.1-0.01	c0.07-0.65,0.1-1.32,0.1-1.99C45.2,23.33,45.17,22.66,45.1,22.01z M24,2.8c-0.67,0-1.34,0.03-1.99,0.1C22,2.93,22,2.97,22,3v10	c0,0.13,0.03,0.25,0.07,0.37c0.63-0.11,1.27-0.17,1.93-0.17c0.66,0,1.3,0.06,1.93,0.17C25.97,13.25,26,13.13,26,13V3	c0-0.03,0-0.07-0.01-0.1C25.34,2.83,24.67,2.8,24,2.8z M24,34.8c-0.66,0-1.3-0.06-1.93-0.17C22.03,34.75,22,34.87,22,35v10	c0,0.03,0,0.07,0.01,0.1c0.65,0.07,1.32,0.1,1.99,0.1c0.67,0,1.34-0.03,1.99-0.1C26,45.07,26,45.03,26,45V35	c0-0.13-0.03-0.25-0.07-0.37C25.3,34.74,24.66,34.8,24,34.8z M13,22H3c-0.03,0-0.07,0-0.1,0.01C2.83,22.66,2.8,23.33,2.8,24	c0,0.67,0.03,1.34,0.1,1.99C2.93,26,2.97,26,3,26h10c0.13,0,0.25-0.03,0.37-0.07C13.26,25.3,13.2,24.66,13.2,24	c0-0.66,0.06-1.3,0.17-1.93C13.25,22.03,13.13,22,13,22z" opacity=".1"/><path fill="#904aff" d="M44.3,22h-8.87c0.11,0.65,0.17,1.32,0.17,2s-0.06,1.35-0.17,2h8.87	c0.07-0.66,0.1-1.32,0.1-2S44.37,22.66,44.3,22z M22,35.43v8.87c0.66,0.07,1.32,0.1,2,0.1s1.34-0.03,2-0.1v-8.87	c-0.65,0.11-1.32,0.17-2,0.17S22.65,35.54,22,35.43z M22,3.7v8.87c0.65-0.11,1.32-0.17,2-0.17s1.35,0.06,2,0.17V3.7	c-0.66-0.07-1.32-0.1-2-0.1S22.66,3.63,22,3.7z M3.7,22c-0.07,0.66-0.1,1.32-0.1,2s0.03,1.34,0.1,2h8.87	c-0.11-0.65-0.17-1.32-0.17-2s0.06-1.35,0.17-2H3.7z" opacity=".2"/><path fill="#904aff" d="M43.5,22h-7.26c0.11,0.65,0.16,1.32,0.16,2s-0.05,1.35-0.16,2h7.26	c0.07-0.66,0.1-1.32,0.1-2S43.57,22.66,43.5,22z M22,36.24v7.26c0.66,0.07,1.32,0.1,2,0.1s1.34-0.03,2-0.1v-7.26	c-0.65,0.11-1.32,0.16-2,0.16S22.65,36.35,22,36.24z M22,4.5v7.26c0.65-0.11,1.32-0.16,2-0.16s1.35,0.05,2,0.16V4.5	c-0.66-0.07-1.32-0.1-2-0.1S22.66,4.43,22,4.5z M4.5,22c-0.07,0.66-0.1,1.32-0.1,2s0.03,1.34,0.1,2h7.26	c-0.11-0.65-0.16-1.32-0.16-2s0.05-1.35,0.16-2H4.5z" opacity=".3"/><path fill="#904aff" d="M42.69,22h-5.64c0.1,0.65,0.15,1.32,0.15,2s-0.05,1.35-0.15,2h5.64	c0.07-0.66,0.11-1.32,0.11-2S42.76,22.66,42.69,22z M22,37.05v5.64c0.66,0.07,1.32,0.11,2,0.11s1.34-0.04,2-0.11v-5.64	c-0.65,0.1-1.32,0.15-2,0.15S22.65,37.15,22,37.05z M22,5.31v5.64c0.65-0.1,1.32-0.15,2-0.15s1.35,0.05,2,0.15V5.31	c-0.66-0.07-1.32-0.11-2-0.11S22.66,5.24,22,5.31z M5.31,22c-0.07,0.66-0.11,1.32-0.11,2s0.04,1.34,0.11,2h5.64	c-0.1-0.65-0.15-1.32-0.15-2s0.05-1.35,0.15-2H5.31z" opacity=".4"/><linearGradient id="pZhFuX5dvidt-RypKQlWna" x1="24" x2="24" y1="52.28" y2="-9.202" gradientUnits="userSpaceOnUse"><stop offset="0" stop-color="#962aff"/><stop offset=".137" stop-color="#9f3eff"/><stop offset=".535" stop-color="#b572ff"/><stop offset=".835" stop-color="#c493ff"/><stop offset="1" stop-color="#c99fff"/></linearGradient><path fill="url(#pZhFuX5dvidt-RypKQlWna)" d="M24,6C14.059,6,6,14.059,6,24s8.059,18,18,18s18-8.059,18-18S33.941,6,24,6z M24,38	c-7.732,0-14-6.268-14-14s6.268-14,14-14s14,6.268,14,14S31.732,38,24,38z"/><path fill="#904aff" d="M28,6.46v4.12c-0.13-0.04-0.26-0.07-0.4-0.11c-0.13-0.04-0.26-0.07-0.4-0.1	c-0.13-0.03-0.27-0.06-0.4-0.09c-0.13-0.03-0.27-0.05-0.4-0.07C25.62,10.07,24.82,10,24,10s-1.62,0.07-2.4,0.21	c-0.13,0.02-0.27,0.04-0.4,0.07c-0.13,0.03-0.27,0.06-0.4,0.09c-0.14,0.03-0.27,0.06-0.4,0.1c-0.14,0.04-0.27,0.07-0.4,0.11V6.46	c0.13-0.04,0.27-0.07,0.4-0.1s0.27-0.05,0.4-0.07c0.13-0.03,0.27-0.05,0.4-0.07c0.13-0.02,0.26-0.04,0.4-0.06	C22.38,6.05,23.19,6,24,6s1.62,0.05,2.4,0.16c0.14,0.02,0.27,0.04,0.4,0.06c0.13,0.02,0.27,0.04,0.4,0.07	c0.13,0.02,0.27,0.04,0.4,0.07S27.87,6.42,28,6.46z" opacity=".05"/><path fill="#904aff" d="M27.6,6.36v4.11c-0.13-0.04-0.26-0.07-0.4-0.1c-0.13-0.03-0.27-0.06-0.4-0.09	c-0.13-0.03-0.27-0.05-0.4-0.07C25.62,10.07,24.82,10,24,10s-1.62,0.07-2.4,0.21c-0.13,0.02-0.27,0.04-0.4,0.07	c-0.13,0.03-0.27,0.06-0.4,0.09c-0.14,0.03-0.27,0.06-0.4,0.1V6.36c0.13-0.03,0.27-0.05,0.4-0.07c0.13-0.03,0.27-0.05,0.4-0.07	c0.13-0.02,0.26-0.04,0.4-0.06C22.38,6.05,23.19,6,24,6s1.62,0.05,2.4,0.16c0.14,0.02,0.27,0.04,0.4,0.06	c0.13,0.02,0.27,0.04,0.4,0.07C27.33,6.31,27.47,6.33,27.6,6.36z" opacity=".1"/><path fill="#904aff" d="M27.2,6.29v4.08c-0.13-0.03-0.27-0.06-0.4-0.09c-0.13-0.03-0.27-0.05-0.4-0.07	C25.62,10.07,24.82,10,24,10s-1.62,0.07-2.4,0.21c-0.13,0.02-0.27,0.04-0.4,0.07c-0.13,0.03-0.27,0.06-0.4,0.09V6.29	c0.13-0.03,0.27-0.05,0.4-0.07c0.13-0.02,0.26-0.04,0.4-0.06C22.38,6.05,23.19,6,24,6s1.62,0.05,2.4,0.16	c0.14,0.02,0.27,0.04,0.4,0.06C26.93,6.24,27.07,6.26,27.2,6.29z" opacity=".2"/><path fill="#904aff" d="M26.8,6.22v4.06c-0.13-0.03-0.27-0.05-0.4-0.07C25.62,10.07,24.82,10,24,10	s-1.62,0.07-2.4,0.21c-0.13,0.02-0.27,0.04-0.4,0.07V6.22c0.13-0.02,0.26-0.04,0.4-0.06C22.38,6.05,23.19,6,24,6s1.62,0.05,2.4,0.16	C26.54,6.18,26.67,6.2,26.8,6.22z" opacity=".3"/><path fill="#904aff" d="M26.4,6.16v4.05C25.62,10.07,24.82,10,24,10s-1.62,0.07-2.4,0.21V6.16	C22.38,6.05,23.19,6,24,6S25.62,6.05,26.4,6.16z" opacity=".4"/><path fill="#904aff" d="M28,37.42v4.12c-0.13,0.04-0.27,0.07-0.4,0.1c-0.13,0.03-0.27,0.05-0.4,0.07	c-0.13,0.03-0.27,0.05-0.4,0.07c-0.13,0.02-0.26,0.04-0.4,0.06C25.62,41.95,24.81,42,24,42s-1.62-0.05-2.4-0.16	c-0.14-0.02-0.27-0.04-0.4-0.06c-0.13-0.02-0.27-0.04-0.4-0.07c-0.13-0.02-0.27-0.04-0.4-0.07c-0.13-0.03-0.27-0.06-0.4-0.1v-4.12	c0.13,0.04,0.26,0.07,0.4,0.11c0.13,0.04,0.26,0.07,0.4,0.1c0.13,0.03,0.27,0.06,0.4,0.09c0.13,0.03,0.27,0.05,0.4,0.07	C22.38,37.93,23.18,38,24,38s1.62-0.07,2.4-0.21c0.13-0.02,0.27-0.04,0.4-0.07c0.13-0.03,0.27-0.06,0.4-0.09	c0.14-0.03,0.27-0.06,0.4-0.1C27.74,37.49,27.87,37.46,28,37.42z" opacity=".05"/><path fill="#904aff" d="M27.6,37.53v4.11c-0.13,0.03-0.27,0.05-0.4,0.07c-0.13,0.03-0.27,0.05-0.4,0.07	c-0.13,0.02-0.26,0.04-0.4,0.06C25.62,41.95,24.81,42,24,42s-1.62-0.05-2.4-0.16c-0.14-0.02-0.27-0.04-0.4-0.06	c-0.13-0.02-0.27-0.04-0.4-0.07c-0.13-0.02-0.27-0.04-0.4-0.07v-4.11c0.13,0.04,0.26,0.07,0.4,0.1c0.13,0.03,0.27,0.06,0.4,0.09	c0.13,0.03,0.27,0.05,0.4,0.07C22.38,37.93,23.18,38,24,38s1.62-0.07,2.4-0.21c0.13-0.02,0.27-0.04,0.4-0.07	c0.13-0.03,0.27-0.06,0.4-0.09C27.34,37.6,27.47,37.57,27.6,37.53z" opacity=".1"/><path fill="#904aff" d="M27.2,37.63v4.08c-0.13,0.03-0.27,0.05-0.4,0.07c-0.13,0.02-0.26,0.04-0.4,0.06	C25.62,41.95,24.81,42,24,42s-1.62-0.05-2.4-0.16c-0.14-0.02-0.27-0.04-0.4-0.06c-0.13-0.02-0.27-0.04-0.4-0.07v-4.08	c0.13,0.03,0.27,0.06,0.4,0.09c0.13,0.03,0.27,0.05,0.4,0.07C22.38,37.93,23.18,38,24,38s1.62-0.07,2.4-0.21	c0.13-0.02,0.27-0.04,0.4-0.07C26.93,37.69,27.07,37.66,27.2,37.63z" opacity=".2"/><path fill="#904aff" d="M26.8,37.72v4.06c-0.13,0.02-0.26,0.04-0.4,0.06C25.62,41.95,24.81,42,24,42	s-1.62-0.05-2.4-0.16c-0.14-0.02-0.27-0.04-0.4-0.06v-4.06c0.13,0.03,0.27,0.05,0.4,0.07C22.38,37.93,23.18,38,24,38	s1.62-0.07,2.4-0.21C26.53,37.77,26.67,37.75,26.8,37.72z" opacity=".3"/><path fill="#904aff" d="M26.4,37.79v4.05C25.62,41.95,24.81,42,24,42s-1.62-0.05-2.4-0.16v-4.05	C22.38,37.93,23.18,38,24,38S25.62,37.93,26.4,37.79z" opacity=".4"/><path fill="#904aff" d="M42,24c0,0.81-0.05,1.62-0.16,2.4c-0.02,0.14-0.04,0.27-0.06,0.4	c-0.02,0.13-0.04,0.27-0.07,0.4c-0.02,0.13-0.04,0.27-0.07,0.4s-0.06,0.27-0.1,0.4h-4.12c0.04-0.13,0.07-0.26,0.11-0.4	c0.04-0.12,0.07-0.26,0.1-0.4c0.03-0.13,0.06-0.26,0.09-0.4c0.03-0.13,0.05-0.27,0.07-0.4C37.93,25.62,38,24.82,38,24	s-0.07-1.62-0.21-2.4c-0.02-0.13-0.04-0.27-0.07-0.4c-0.03-0.13-0.06-0.27-0.09-0.4c-0.03-0.14-0.06-0.27-0.1-0.4	c-0.04-0.14-0.07-0.27-0.11-0.4h4.12c0.04,0.13,0.07,0.27,0.1,0.4s0.05,0.27,0.07,0.4c0.03,0.13,0.05,0.27,0.07,0.4	c0.02,0.13,0.04,0.26,0.06,0.4C41.95,22.38,42,23.19,42,24z" opacity=".05"/><path fill="#904aff" d="M42,24c0,0.81-0.05,1.62-0.16,2.4c-0.02,0.14-0.04,0.27-0.06,0.4	c-0.02,0.13-0.04,0.27-0.07,0.4c-0.02,0.13-0.04,0.27-0.07,0.4h-4.11c0.04-0.12,0.07-0.26,0.1-0.4c0.03-0.13,0.06-0.26,0.09-0.4	c0.03-0.13,0.05-0.27,0.07-0.4C37.93,25.62,38,24.82,38,24s-0.07-1.62-0.21-2.4c-0.02-0.13-0.04-0.27-0.07-0.4	c-0.03-0.13-0.06-0.27-0.09-0.4c-0.03-0.14-0.06-0.27-0.1-0.4h4.11c0.03,0.13,0.05,0.27,0.07,0.4c0.03,0.13,0.05,0.27,0.07,0.4	c0.02,0.13,0.04,0.26,0.06,0.4C41.95,22.38,42,23.19,42,24z" opacity=".1"/><path fill="#904aff" d="M42,24c0,0.81-0.05,1.62-0.16,2.4c-0.02,0.14-0.04,0.27-0.06,0.4	c-0.02,0.13-0.04,0.27-0.07,0.4h-4.08c0.03-0.13,0.06-0.26,0.09-0.4c0.03-0.13,0.05-0.27,0.07-0.4C37.93,25.62,38,24.82,38,24	s-0.07-1.62-0.21-2.4c-0.02-0.13-0.04-0.27-0.07-0.4c-0.03-0.13-0.06-0.27-0.09-0.4h4.08c0.03,0.13,0.05,0.27,0.07,0.4	c0.02,0.13,0.04,0.26,0.06,0.4C41.95,22.38,42,23.19,42,24z" opacity=".2"/><path fill="#904aff" d="M42,24c0,0.81-0.05,1.62-0.16,2.4c-0.02,0.14-0.04,0.27-0.06,0.4h-4.06	c0.03-0.13,0.05-0.27,0.07-0.4C37.93,25.62,38,24.82,38,24s-0.07-1.62-0.21-2.4c-0.02-0.13-0.04-0.27-0.07-0.4h4.06	c0.02,0.13,0.04,0.26,0.06,0.4C41.95,22.38,42,23.19,42,24z" opacity=".3"/><path fill="#904aff" d="M42,24c0,0.81-0.05,1.62-0.16,2.4h-4.05C37.93,25.62,38,24.82,38,24s-0.07-1.62-0.21-2.4	h4.05C41.95,22.38,42,23.19,42,24z" opacity=".4"/><path fill="#904aff" d="M10.47,27.6c0.04,0.14,0.07,0.27,0.11,0.4H6.46c-0.04-0.13-0.07-0.27-0.1-0.4	c-0.03-0.13-0.05-0.27-0.07-0.4c-0.03-0.13-0.05-0.27-0.07-0.4c-0.02-0.13-0.04-0.26-0.06-0.4C6.05,25.62,6,24.81,6,24	s0.05-1.62,0.16-2.4c0.02-0.14,0.04-0.27,0.06-0.4c0.02-0.13,0.04-0.27,0.07-0.4c0.02-0.13,0.04-0.27,0.07-0.4	c0.03-0.13,0.06-0.27,0.1-0.4h4.12c-0.04,0.13-0.07,0.26-0.11,0.4c-0.04,0.13-0.07,0.26-0.1,0.4c-0.03,0.13-0.06,0.27-0.09,0.4	c-0.03,0.13-0.05,0.27-0.07,0.4C10.07,22.38,10,23.18,10,24s0.07,1.62,0.21,2.4c0.02,0.13,0.04,0.27,0.07,0.4	c0.03,0.13,0.06,0.27,0.09,0.4C10.4,27.34,10.43,27.47,10.47,27.6z" opacity=".05"/><path fill="#904aff" d="M10.37,27.2c0.03,0.14,0.06,0.27,0.1,0.4H6.36c-0.03-0.13-0.05-0.27-0.07-0.4	c-0.03-0.13-0.05-0.27-0.07-0.4c-0.02-0.13-0.04-0.26-0.06-0.4C6.05,25.62,6,24.81,6,24s0.05-1.62,0.16-2.4	c0.02-0.14,0.04-0.27,0.06-0.4c0.02-0.13,0.04-0.27,0.07-0.4c0.02-0.13,0.04-0.27,0.07-0.4h4.11c-0.04,0.13-0.07,0.26-0.1,0.4	c-0.03,0.13-0.06,0.27-0.09,0.4c-0.03,0.13-0.05,0.27-0.07,0.4C10.07,22.38,10,23.18,10,24s0.07,1.62,0.21,2.4	c0.02,0.13,0.04,0.27,0.07,0.4C10.31,26.93,10.34,27.07,10.37,27.2z" opacity=".1"/><path fill="#904aff" d="M10.28,26.8c0.03,0.13,0.06,0.27,0.09,0.4H6.29c-0.03-0.13-0.05-0.27-0.07-0.4	c-0.02-0.13-0.04-0.26-0.06-0.4C6.05,25.62,6,24.81,6,24s0.05-1.62,0.16-2.4c0.02-0.14,0.04-0.27,0.06-0.4	c0.02-0.13,0.04-0.27,0.07-0.4h4.08c-0.03,0.13-0.06,0.27-0.09,0.4c-0.03,0.13-0.05,0.27-0.07,0.4C10.07,22.38,10,23.18,10,24	s0.07,1.62,0.21,2.4C10.23,26.53,10.25,26.67,10.28,26.8z" opacity=".2"/><path fill="#904aff" d="M10.21,26.4c0.02,0.13,0.04,0.27,0.07,0.4H6.22c-0.02-0.13-0.04-0.26-0.06-0.4	C6.05,25.62,6,24.81,6,24s0.05-1.62,0.16-2.4c0.02-0.14,0.04-0.27,0.06-0.4h4.06c-0.03,0.13-0.05,0.27-0.07,0.4	C10.07,22.38,10,23.18,10,24S10.07,25.62,10.21,26.4z" opacity=".3"/><path fill="#904aff" d="M10,24c0,0.82,0.07,1.62,0.21,2.4H6.16C6.05,25.62,6,24.81,6,24s0.05-1.62,0.16-2.4h4.05	C10.07,22.38,10,23.18,10,24z" opacity=".4"/><linearGradient id="pZhFuX5dvidt-RypKQlWnb" x1="24" x2="24" y1="18.538" y2=".803" gradientUnits="userSpaceOnUse"><stop offset="0" stop-color="#4eaefe" stop-opacity=".2"/><stop offset="1" stop-color="#41a2fe" stop-opacity=".4"/></linearGradient><path fill="url(#pZhFuX5dvidt-RypKQlWnb)" d="M23,14h2c0.552,0,1-0.448,1-1V3c0-0.552-0.448-1-1-1h-2c-0.552,0-1,0.448-1,1v10	C22,13.552,22.448,14,23,14z"/><linearGradient id="pZhFuX5dvidt-RypKQlWnc" x1="24" x2="24" y1="50.538" y2="32.803" gradientUnits="userSpaceOnUse"><stop offset="0" stop-color="#4eaefe" stop-opacity=".2"/><stop offset="1" stop-color="#41a2fe" stop-opacity=".4"/></linearGradient><path fill="url(#pZhFuX5dvidt-RypKQlWnc)" d="M23,46h2c0.552,0,1-0.448,1-1V35c0-0.552-0.448-1-1-1h-2c-0.552,0-1,0.448-1,1v10	C22,45.552,22.448,46,23,46z"/><linearGradient id="pZhFuX5dvidt-RypKQlWnd" x1="24" x2="24" y1="47.798" y2="30.793" gradientUnits="userSpaceOnUse"><stop offset="0" stop-color="#fff" stop-opacity=".2"/><stop offset="1" stop-color="#71b5ff" stop-opacity=".4"/></linearGradient><path fill="url(#pZhFuX5dvidt-RypKQlWnd)" d="M25,34.5c0.276,0,0.5,0.224,0.5,0.5v10c0,0.276-0.224,0.5-0.5,0.5h-2	c-0.276,0-0.5-0.224-0.5-0.5V35c0-0.276,0.224-0.5,0.5-0.5H25 M25,34h-2c-0.552,0-1,0.448-1,1v10c0,0.552,0.448,1,1,1h2	c0.552,0,1-0.448,1-1V35C26,34.448,25.552,34,25,34L25,34z"/><linearGradient id="pZhFuX5dvidt-RypKQlWne" x1="24" x2="24" y1="18.538" y2=".803" gradientTransform="rotate(90 24 24)" gradientUnits="userSpaceOnUse"><stop offset="0" stop-color="#4eaefe" stop-opacity=".2"/><stop offset="1" stop-color="#41a2fe" stop-opacity=".4"/></linearGradient><path fill="url(#pZhFuX5dvidt-RypKQlWne)" d="M34,23v2c0,0.552,0.448,1,1,1h10c0.552,0,1-0.448,1-1v-2c0-0.552-0.448-1-1-1H35	C34.448,22,34,22.448,34,23z"/><linearGradient id="pZhFuX5dvidt-RypKQlWnf" x1="24" x2="24" y1="50.538" y2="32.803" gradientTransform="rotate(90 24 24)" gradientUnits="userSpaceOnUse"><stop offset="0" stop-color="#4eaefe" stop-opacity=".2"/><stop offset="1" stop-color="#41a2fe" stop-opacity=".4"/></linearGradient><path fill="url(#pZhFuX5dvidt-RypKQlWnf)" d="M2,23v2c0,0.552,0.448,1,1,1h10c0.552,0,1-0.448,1-1v-2c0-0.552-0.448-1-1-1H3	C2.448,22,2,22.448,2,23z"/><linearGradient id="pZhFuX5dvidt-RypKQlWng" x1="24" x2="24" y1="15.798" y2="-1.207" gradientUnits="userSpaceOnUse"><stop offset="0" stop-color="#fff" stop-opacity=".2"/><stop offset="1" stop-color="#71b5ff" stop-opacity=".4"/></linearGradient><path fill="url(#pZhFuX5dvidt-RypKQlWng)" d="M25,2.5c0.276,0,0.5,0.224,0.5,0.5v10c0,0.276-0.224,0.5-0.5,0.5h-2	c-0.276,0-0.5-0.224-0.5-0.5V3c0-0.276,0.224-0.5,0.5-0.5H25 M25,2h-2c-0.552,0-1,0.448-1,1v10c0,0.552,0.448,1,1,1h2	c0.552,0,1-0.448,1-1V3C26,2.448,25.552,2,25,2L25,2z"/><linearGradient id="pZhFuX5dvidt-RypKQlWnh" x1="40" x2="40" y1="26.599" y2="20.931" gradientUnits="userSpaceOnUse"><stop offset="0" stop-color="#fff" stop-opacity=".2"/><stop offset="1" stop-color="#71b5ff" stop-opacity=".4"/></linearGradient><path fill="url(#pZhFuX5dvidt-RypKQlWnh)" d="M45,22.5c0.276,0,0.5,0.224,0.5,0.5v2c0,0.276-0.224,0.5-0.5,0.5H35	c-0.276,0-0.5-0.224-0.5-0.5v-2c0-0.276,0.224-0.5,0.5-0.5H45 M45,22H35c-0.552,0-1,0.448-1,1v2c0,0.552,0.448,1,1,1h10	c0.552,0,1-0.448,1-1v-2C46,22.448,45.552,22,45,22L45,22z"/><linearGradient id="pZhFuX5dvidt-RypKQlWni" x1="8" x2="8" y1="26.599" y2="20.931" gradientUnits="userSpaceOnUse"><stop offset="0" stop-color="#fff" stop-opacity=".2"/><stop offset="1" stop-color="#71b5ff" stop-opacity=".4"/></linearGradient><path fill="url(#pZhFuX5dvidt-RypKQlWni)" d="M13,22.5c0.276,0,0.5,0.224,0.5,0.5v2c0,0.276-0.224,0.5-0.5,0.5H3	c-0.276,0-0.5-0.224-0.5-0.5v-2c0-0.276,0.224-0.5,0.5-0.5H13 M13,22H3c-0.552,0-1,0.448-1,1v2c0,0.552,0.448,1,1,1h10	c0.552,0,1-0.448,1-1v-2C14,22.448,13.552,22,13,22L13,22z"/></svg>