<svg xmlns="http://www.w3.org/2000/svg" xmlns:xlink="http://www.w3.org/1999/xlink" width="100%" height="100%" viewBox="0 0 48 48">
    <style>
@keyframes a0_t { 0% { transform: translate(42px,24px) scale(0,1); animation-timing-function: cubic-bezier(0.42,0,0.58,1); } 25% { transform: translate(42px,24px) scale(0.7,1); animation-timing-function: cubic-bezier(0.42,0,0.58,1); } 46.8749% { transform: translate(42px,24px) scale(0,1); animation-timing-function: cubic-bezier(0,0,0.58,1); } 100% { transform: translate(42px,24px) scale(0,1); } }
@keyframes a1_t { 0% { transform: translate(36.721068px,11.278932px) rotate(-45deg) scale(0,1); animation-timing-function: cubic-bezier(0.42,0,0.58,1); } 24.9999% { transform: translate(36.721068px,11.278932px) rotate(-45deg) scale(0.7,1); animation-timing-function: cubic-bezier(0.42,0,0.58,1); } 46.875% { transform: translate(36.721068px,11.278932px) rotate(-45deg) scale(0,1); animation-timing-function: cubic-bezier(0,0,0.58,1); } 100% { transform: translate(36.721068px,11.278932px) rotate(-45deg) scale(0,1); } }
@keyframes a2_t { 0% { transform: translate(24px,6px) rotate(-90deg) scale(0,1); animation-timing-function: cubic-bezier(0.42,0,0.58,1); } 25% { transform: translate(24px,6px) rotate(-90deg) scale(0.7,1); animation-timing-function: cubic-bezier(0.42,0,0.58,1); } 46.8749% { transform: translate(24px,6px) rotate(-90deg) scale(0,1); animation-timing-function: cubic-bezier(0,0,0.58,1); } 100% { transform: translate(24px,6px) rotate(-90deg) scale(0,1); } }
@keyframes a3_t { 0% { transform: translate(11.278932px,11.278932px) rotate(-135deg) scale(0,1); animation-timing-function: cubic-bezier(0.42,0,0.58,1); } 25% { transform: translate(11.278932px,11.278932px) rotate(-135deg) scale(0.7,1); animation-timing-function: cubic-bezier(0.42,0,0.58,1); } 46.8749% { transform: translate(11.278932px,11.278932px) rotate(-135deg) scale(0,1); animation-timing-function: cubic-bezier(0,0,0.58,1); } 100% { transform: translate(11.278932px,11.278932px) rotate(-135deg) scale(0,1); } }
@keyframes a4_t { 0% { transform: translate(6px,24px) rotate(-180deg) scale(0,1); animation-timing-function: cubic-bezier(0.42,0,0.58,1); } 24.9999% { transform: translate(6px,24px) rotate(-180deg) scale(0.7,1); animation-timing-function: cubic-bezier(0.42,0,0.58,1); } 46.875% { transform: translate(6px,24px) rotate(-180deg) scale(0,1); animation-timing-function: cubic-bezier(0,0,0.58,1); } 100% { transform: translate(6px,24px) rotate(-180deg) scale(0,1); } }
@keyframes a5_t { 0% { transform: translate(11.278932px,36.735764px) rotate(-215deg) scale(0,1); animation-timing-function: cubic-bezier(0.42,0,0.58,1); } 25% { transform: translate(11.278932px,36.735764px) rotate(-215deg) scale(0.7,1); animation-timing-function: cubic-bezier(0.42,0,0.58,1); } 46.8749% { transform: translate(11.278932px,36.735764px) rotate(-215deg) scale(0,1); animation-timing-function: cubic-bezier(0,0,0.58,1); } 100% { transform: translate(11.278932px,36.735764px) rotate(-215deg) scale(0,1); } }
@keyframes a6_t { 0% { transform: translate(24px,42px) rotate(-270deg) scale(0,1); animation-timing-function: cubic-bezier(0.42,0,0.58,1); } 25% { transform: translate(24px,42px) rotate(-270deg) scale(0.7,1); animation-timing-function: cubic-bezier(0.42,0,0.58,1); } 46.8749% { transform: translate(24px,42px) rotate(-270deg) scale(0,1); animation-timing-function: cubic-bezier(0,0,0.58,1); } 100% { transform: translate(24px,42px) rotate(-270deg) scale(0,1); } }
@keyframes a7_t { 0% { transform: translate(36.721068px,36.721068px) rotate(-315deg) scale(0,1); animation-timing-function: cubic-bezier(0.42,0,0.58,1); } 24.9999% { transform: translate(36.721068px,36.721068px) rotate(-315deg) scale(0.7,1); animation-timing-function: cubic-bezier(0.42,0,0.58,1); } 46.875% { transform: translate(36.721068px,36.721068px) rotate(-315deg) scale(0,1); animation-timing-function: cubic-bezier(0,0,0.58,1); } 100% { transform: translate(36.721068px,36.721068px) rotate(-315deg) scale(0,1); } }
    </style>
    <title>
B_element_loader</title>
    <path fill="#efefef" stroke="none" d="M2,-36C2,-34.8954,1.10457,-34,0,-34C-1.10457,-34,-2,-34.8954,-2,-36C-2,-37.1046,-1.10457,-38,0,-38C1.10457,-38,2,-37.1046,2,-36zM-14.1421,-29.3137C-13.3611,-28.5326,-12.0948,-28.5326,-11.3137,-29.3137C-10.5326,-30.0948,-10.5326,-31.3611,-11.3137,-32.1421C-12.0948,-32.9232,-13.3611,-32.9232,-14.1421,-32.1421C-14.9232,-31.3611,-14.9232,-30.0948,-14.1421,-29.3137zM14.1421,-29.3137C13.3611,-28.5326,12.0948,-28.5327,11.3137,-29.3137C10.5327,-30.0948,10.5326,-31.3611,11.3137,-32.1421C12.0948,-32.9232,13.3611,-32.9232,14.1421,-32.1421C14.9232,-31.3611,14.9232,-30.0948,14.1421,-29.3137zM-18,-16C-16.8954,-16,-16,-16.8954,-16,-18C-16,-19.1046,-16.8954,-20,-18,-20C-19.1046,-20,-20,-19.1046,-20,-18C-20,-16.8954,-19.1046,-16,-18,-16zM20,-18C20,-16.8954,19.1046,-16,18,-16C16.8954,-16,16,-16.8954,16,-18C16,-19.1046,16.8954,-20,18,-20C19.1046,-20,20,-19.1046,20,-18zM14.1421,-3.85786C13.3611,-3.07679,12.0948,-3.07679,11.3137,-3.85786C10.5326,-4.63893,10.5326,-5.90522,11.3137,-6.68629C12.0948,-7.46736,13.3611,-7.46736,14.1421,-6.68629C14.9232,-5.90522,14.9232,-4.63893,14.1421,-3.85786zM-11.3137,-3.85786C-12.0948,-3.07682,-13.3611,-3.07682,-14.1421,-3.85786C-14.9232,-4.63891,-14.9232,-5.90524,-14.1421,-6.68629C-13.3611,-7.46734,-12.0948,-7.46734,-11.3137,-6.68629C-10.5327,-5.90524,-10.5327,-4.63891,-11.3137,-3.85786zM2,0C2,1.10457,1.10457,2,0,2C-1.10457,2,-2,1.10457,-2,0C-2,-1.10457,-1.10457,-2,0,-2C1.10457,-2,2,-1.10457,2,0z" fill-rule="evenodd" transform="translate(24,24) translate(0,18)"/>
    <path d="M0,0L-10,0" stroke="#efefef" fill="none" stroke-linecap="round" stroke-width="4" transform="translate(42,24) scale(0,1)" style="animation: a0_t 1.067s linear 0.933s infinite both;"/>
    <path d="M0,0L-10,0" stroke="#efefef" fill="none" stroke-linecap="round" stroke-width="4" transform="translate(36.7211,11.2789) rotate(-45) scale(0,1)" style="animation: a1_t 1.067s linear 0.8s infinite both;"/>
    <path d="M0,0L-10,0" stroke="#efefef" fill="none" stroke-linecap="round" stroke-width="4" transform="translate(24,6) rotate(-90) scale(0,1)" style="animation: a2_t 1.067s linear 0.667s infinite both;"/>
    <path d="M0,0L-10,0" stroke="#efefef" fill="none" stroke-linecap="round" stroke-width="4" transform="translate(11.2789,11.2789) rotate(-135) scale(0,1)" style="animation: a3_t 1.067s linear 0.533s infinite both;"/>
    <path d="M0,0L-10,0" stroke="#efefef" fill="none" stroke-linecap="round" stroke-width="4" transform="translate(6,24) rotate(-180) scale(0,1)" style="animation: a4_t 1.067s linear 0.4s infinite both;"/>
    <path d="M0,0L-10,0" stroke="#efefef" fill="none" stroke-linecap="round" stroke-width="4" transform="translate(11.2789,36.7358) rotate(-215) scale(0,1)" style="animation: a5_t 1.067s linear 0.267s infinite both;"/>
    <path d="M0,0L-10,0" stroke="#efefef" fill="none" stroke-linecap="round" stroke-width="4" transform="translate(24,42) rotate(-270) scale(0,1)" style="animation: a6_t 1.067s linear 0.133s infinite both;"/>
    <path d="M0,0L-10,0" stroke="#efefef" fill="none" stroke-linecap="round" stroke-width="4" transform="translate(36.7211,36.7211) rotate(-315) scale(0,1)" style="animation: a7_t 1.067s linear infinite both;"/>
    <path d="M0,0L-10.5,0" stroke="#efefef" fill="none" stroke-linecap="round" stroke-width="4" transform="translate(38.1642,9.85786) rotate(-45) scale(0,1) translate(-2,0)"/>
</svg>
