<svg width="100%" height="100%" viewBox="0 0 100 100" version="1.1" xml:space="preserve" xmlns="http://www.w3.org/2000/svg" xmlns:xlink="http://www.w3.org/1999/xlink">
<defs>
	<linearGradient id="LG" gradientTransform="matrix(-26.8944 -76.327 76.327 -26.8944 74.4837 96.8065)" gradientUnits="userSpaceOnUse" x1="0" x2="1" y1="0" y2="0"><stop offset="0.376" stop-color="#73feec"/><stop offset="1" stop-color="#83fe83"/></linearGradient>
	<linearGradient id="LG_2" gradientTransform="matrix(47.2882 0 0 47.2882 44.1552 25.3843)" gradientUnits="userSpaceOnUse" x1="0" x2="1" y1="0" y2="0"><stop offset="0" stop-color="#7986cb"/><stop offset="1" stop-color="#4a527c"/></linearGradient>
	<linearGradient id="LG_3" gradientTransform="matrix(39.3713 0 0 39.3713 51.9982 20.1363)" gradientUnits="userSpaceOnUse" x1="0" x2="1" y1="0" y2="0"><stop offset="0" stop-color="#9fa8da"/><stop offset="1" stop-color="#6e78ac"/></linearGradient>
	<linearGradient id="LG_4" gradientTransform="matrix(44.422 -1.74224 1.74224 44.422 46.4674 33.1052)" gradientUnits="userSpaceOnUse" x1="0" x2="1" y1="0" y2="0"><stop offset="0" stop-color="#9fa8da"/><stop offset="1" stop-color="#6e78ac"/></linearGradient>
	<linearGradient id="LG_5" gradientTransform="matrix(31.1515 0 0 31.1515 60.1922 11.7453)" gradientUnits="userSpaceOnUse" x1="0" x2="1" y1="0" y2="0"><stop offset="0" stop-color="#7986cb"/><stop offset="1" stop-color="#4a527c"/></linearGradient>
	<linearGradient id="LG_6" gradientTransform="matrix(-16.6297 -43.5173 47.2695 -17.1217 55.6882 89.9323)" gradientUnits="userSpaceOnUse" x1="0" x2="1" y1="0" y2="0"><stop offset="0.376" stop-color="#73feec"/><stop offset="1" stop-color="#83fe83"/></linearGradient>
</defs>
	<path fill="#15151500" fill-rule="nonzero" opacity="1" stroke="none" d="M0 0L100 0L100 100L0 100L0 0Z"/>
<g id="Layer-1" transform="matrix(1 0 0 1 0 0)">
<g opacity="1">
<g opacity="1">
	<path fill="url(#LG)" fill-rule="nonzero" opacity="1" stroke="none" d="M39.1562 19.9062C28.3486 22.222 18.8537 28.9899 13.125 38.75C1.67627 57.9233 8.09915 82.6108 27.5 94C46.8029 105.332 71.2462 98.9235 82.75 79.6562C88.4313 69.9795 89.6979 58.882 86.6562 48.1562L84.5 48.7812C87.3787 58.9324 86.1763 69.3641 80.8125 78.5C69.9371 96.7148 46.8666 102.803 28.625 92.0938C10.2877 81.3289 4.21433 58.0216 15.0312 39.9062C20.4458 30.6814 29.4239 24.2483 39.625 22.0625L39.1562 19.9062Z"/>
<g opacity="1">
	<path fill="none" opacity="1" stroke="#000" stroke-linecap="butt" stroke-linejoin="miter" stroke-width="2.228" d="M90.8892 39.0853L84.6992 49.6293C82.5812 53.2363 70.6282 49.7643 57.6432 42.3283C44.6592 34.8913 35.9632 25.8693 38.0822 22.2623L44.4922 11.6603"/>
<g opacity="1">
	<path fill="none" opacity="1" stroke="#000" stroke-linecap="butt" stroke-linejoin="miter" stroke-width="2.228" d="M55.3082 11.6683C50.1412 10.1033 45.4692 9.9953 44.4922 11.6603C42.3742 15.2683 51.2322 24.0123 64.0542 31.7263C76.8752 39.4403 88.9912 42.6353 91.1092 39.0283C92.0862 37.3633 90.5172 34.2203 86.1662 29.9693C78.1082 22.0993 65.0132 14.6053 55.3082 11.6673L55.3082 11.6683Z"/>
	<path fill="none" opacity="1" stroke="#000" stroke-linecap="butt" stroke-linejoin="miter" stroke-width="2.228" d="M90.8892 39.0853L84.6992 49.6293C82.5812 53.2363 70.6282 49.7643 57.6432 42.3283C44.6592 34.8913 35.9632 25.8693 38.0822 22.2623L44.4922 11.6603"/>
</g>
</g>
<g opacity="1">
	<path fill="url(#LG_2)" fill-rule="nonzero" opacity="1" stroke="#000" stroke-linecap="butt" stroke-linejoin="miter" stroke-width="2.228" d="M44.4922 11.6603C42.1882 15.6603 52.0212 24.7003 64.2652 32.0243C76.5092 39.3483 88.8052 43.0273 91.1092 39.0283C93.4132 35.0293 83.4992 26.4263 71.2552 19.1023C59.0102 11.7773 46.7952 7.6623 44.4922 11.6603Z"/>
	<path fill="url(#LG_3)" fill-rule="nonzero" opacity="1" stroke="#000" stroke-linecap="butt" stroke-linejoin="round" stroke-width="2.228" d="M51.9982 23.3433L60.8472 2.2283C60.8472 2.2283 61.3772 9.5913 72.8882 16.6513C84.3992 23.7113 91.3702 20.1523 91.3702 20.1523L76.9722 38.0043C76.9722 38.0043 67.0402 38.6243 60.7972 34.9583C54.5542 31.2923 51.9982 23.3433 51.9982 23.3433Z"/>
	<path fill="url(#LG_4)" fill-rule="nonzero" opacity="1" stroke="#000" stroke-linecap="round" stroke-linejoin="round" stroke-width="2.228" d="M44.4922 11.6603L38.0822 22.2623C35.9642 25.8693 44.6592 34.8923 57.6432 42.3283C70.6272 49.7643 82.5812 53.2363 84.6982 49.6293L90.8882 39.0853C90.8882 39.0853 85.6922 44.2183 64.2652 32.0243C42.8392 19.8303 44.4922 11.6603 44.4922 11.6603"/>
	<path fill="url(#LG_5)" fill-rule="nonzero" opacity="1" stroke="#000" stroke-linecap="butt" stroke-linejoin="miter" stroke-width="2.228" d="M60.4632 2.7613C58.8732 5.4713 64.4362 11.6893 72.8882 16.6513C81.3402 21.6133 89.4822 23.4393 91.0722 20.7303C92.6622 18.0213 87.1002 11.8023 78.6472 6.8403C70.1952 1.8783 62.0542 0.0523028 60.4632 2.7613Z"/>
</g>
<g opacity="1">
	<path fill="none" opacity="1" stroke="#000" stroke-linecap="round" stroke-linejoin="round" stroke-width="1.8" d="M44.4922 11.6603L38.0822 22.2623C35.9642 25.8693 44.6592 34.8923 57.6432 42.3283C70.6272 49.7643 82.5812 53.2363 84.6982 49.6293L90.8882 39.0853C90.8882 39.0853 85.6922 44.2183 64.2652 32.0243C42.8392 19.8303 44.4922 11.6603 44.4922 11.6603"/>
	<path fill="none" opacity="1" stroke="#000" stroke-linecap="butt" stroke-linejoin="miter" stroke-width="1.8" d="M84.7772 28.6233C89.6942 32.8723 92.4392 36.7183 91.1092 39.0283C88.8052 43.0273 76.5102 39.3483 64.2652 32.0243C52.0202 24.6983 42.1882 15.6583 44.4922 11.6603C45.8542 9.2973 50.7092 9.8533 56.8082 12.0953"/>
	<path fill="none" opacity="1" stroke="#000" stroke-linecap="butt" stroke-linejoin="round" stroke-width="1.8" d="M90.3692 21.5853L76.9722 38.0043"/>
	<path fill="none" opacity="1" stroke="#000" stroke-linecap="butt" stroke-linejoin="round" stroke-width="1.8" d="M51.9982 23.3433L60.2212 3.9833"/>
	<path fill="none" opacity="1" stroke="#000" stroke-linecap="butt" stroke-linejoin="miter" stroke-width="1.8" d="M60.4632 2.7613C58.8732 5.4713 64.4362 11.6893 72.8882 16.6513C81.3402 21.6133 89.4822 23.4393 91.0722 20.7303C92.6622 18.0213 87.1002 11.8023 78.6472 6.8403C70.1952 1.8783 62.0542 0.0523028 60.4632 2.7613Z"/>
</g>
</g>
	<path fill="url(#LG_6)" fill-rule="nonzero" opacity="1" stroke="none" d="M20.6152 73.4883C18.8062 59.6963 28.6492 47.0333 42.5972 45.2043C56.5452 43.3753 69.3212 53.0723 71.1302 66.8643C72.9392 80.6563 63.0972 93.3193 49.1472 95.1483C35.1972 96.9773 22.4232 87.2783 20.6152 73.4883"/>
<g opacity="1">
	<path fill="none" opacity="0.996682" stroke="#232323" stroke-linecap="butt" stroke-linejoin="round" stroke-width="1.694" d="M35.0692 71.5923C33.2602 57.8013 40.2012 45.5183 42.3572 45.2353C44.5132 44.9523 54.3872 55.0313 56.1952 68.8223C58.0032 82.6133 50.9162 94.9163 48.9062 95.1803C46.8962 95.4443 36.8772 85.3843 35.0692 71.5923Z"/>
	<path fill="none" opacity="0.996682" stroke="#232323" stroke-linecap="butt" stroke-linejoin="round" stroke-width="1.694" d="M25.1292 56.2363C25.1292 56.2363 34.1052 60.5063 44.4272 59.1523C54.7492 57.7983 62.1782 51.2943 62.1782 51.2943M66.2612 83.7883C66.2612 83.7883 57.6812 80.1533 47.0642 81.1323C36.4472 82.1113 29.2012 88.6483 29.2012 88.6483M20.6972 74.1173L71.2132 67.4933"/>
	<path fill="none" opacity="0.996682" stroke="#070707" stroke-linecap="butt" stroke-linejoin="round" stroke-width="1.694" d="M20.6152 73.4883C18.8062 59.6963 28.6492 47.0333 42.5972 45.2043C56.5452 43.3753 69.3212 53.0723 71.1302 66.8643C72.9392 80.6563 63.0972 93.3193 49.1472 95.1483C35.1972 96.9773 22.4232 87.2783 20.6152 73.4883Z"/>
</g>
</g>
</g>
</svg>