<svg width="100%" height="100%" viewBox="0 0 100 100" xml:space="preserve" xmlns="http://www.w3.org/2000/svg" xmlns:xlink="http://www.w3.org/1999/xlink">
<defs>
	<filter id="a" width="96.395" height="109.955" x="3.167" y="-3.197" color-interpolation-filters="sRGB" filterUnits="userSpaceOnUse"><feDropShadow dx="0" dy=".816" flood-color="#000" flood-opacity=".333" in="SourceGraphic" result="Shadow" stdDeviation="1.096"/></filter>
	<linearGradient id="c" x1="0" x2="1" y1="0" y2="0" gradientTransform="translate(45.358 25.426)scale(47.2882)" gradientUnits="userSpaceOnUse"><stop offset="0" stop-color="#7986cb"/><stop offset="1" stop-color="#4a527c"/></linearGradient>
	<linearGradient id="d" x1="0" x2="1" y1="0" y2="0" gradientTransform="matrix(39.3713 0 0 39.3713 53.201 20.178)" gradientUnits="userSpaceOnUse"><stop offset="0" stop-color="#9fa8da"/><stop offset="1" stop-color="#6e78ac"/></linearGradient>
	<linearGradient id="e" x1="0" x2="1" y1="0" y2="0" gradientTransform="rotate(-2.246 869.31 -1199.345)scale(44.45615)" gradientUnits="userSpaceOnUse"><stop offset="0" stop-color="#9fa8da"/><stop offset="1" stop-color="#6e78ac"/></linearGradient>
	<linearGradient id="f" x1="0" x2="1" y1="0" y2="0" gradientTransform="matrix(31.1515 0 0 31.1515 61.395 11.787)" gradientUnits="userSpaceOnUse"><stop offset="0" stop-color="#7986cb"/><stop offset="1" stop-color="#4a527c"/></linearGradient>
	<linearGradient id="m" x1="0" x2="1" y1="0" y2="0" gradientTransform="matrix(-16.6297 -43.5173 47.2695 -17.1217 56.891 89.974)" gradientUnits="userSpaceOnUse"><stop offset=".376" stop-color="#73feec"/><stop offset="1" stop-color="#83fe83"/></linearGradient>
</defs>
<g filter="url(#a)"><use xlink:href="#Fill" fill="#e3f2fd"/><mask id="b" width="78.576" height="77.512" x="9.759" y="21.022" maskUnits="userSpaceOnUse">
	<path d="M9.759 21.022h78.576v77.512H9.759z"/><use xlink:href="#Fill" fill="#fff"/></mask><use xlink:href="#Fill" fill="none" stroke="#8cc8f9" stroke-width="5" mask="url(#b)"/>
	<path fill="none" stroke="#000" stroke-width="2.228" d="m92.092 39.127-6.19 10.544c-2.118 3.607-14.071.135-27.056-7.301-12.984-7.437-21.68-16.459-19.561-20.066l6.41-10.602"/>
<g fill="none" stroke="#000" stroke-width="2.228">
	<path d="M56.511 11.71c-5.167-1.565-9.839-1.673-10.816-.008-2.118 3.608 6.74 12.352 19.562 20.066 12.821 7.714 24.937 10.909 27.055 7.302.977-1.665-.592-4.808-4.943-9.059-8.058-7.87-21.153-15.364-30.858-18.302Z"/>
	<path d="m92.092 39.127-6.19 10.544c-2.118 3.607-14.071.135-27.056-7.301-12.984-7.437-21.68-16.459-19.561-20.066l6.41-10.602"/>
</g>
	<path fill="url(#c)" stroke="#000" stroke-width="2.228" d="M45.695 11.702c-2.304 4 7.529 13.04 19.773 20.364s24.54 11.003 26.844 7.004-7.61-12.602-19.854-19.926c-12.245-7.325-24.46-11.44-26.763-7.442Z"/>
	<path fill="url(#d)" stroke="#000" stroke-linejoin="round" stroke-width="2.228" d="M53.201 23.385 62.05 2.27s.53 7.363 12.041 14.423 18.482 3.501 18.482 3.501L78.175 38.046S68.243 38.666 62 35s-8.799-11.615-8.799-11.615Z"/>
	<path fill="url(#e)" stroke="#000" stroke-linecap="round" stroke-linejoin="round" stroke-width="2.228" d="m45.695 11.702-6.41 10.602c-2.118 3.607 6.577 12.63 19.561 20.066s24.938 10.908 27.055 7.301l6.19-10.544s-5.196 5.133-26.623-7.061C44.042 19.872 45.695 11.702 45.695 11.702"/>
	<path fill="url(#f)" stroke="#000" stroke-width="2.228" d="M61.666 2.803c-1.59 2.71 3.973 8.928 12.425 13.89s16.594 6.788 18.184 4.079-3.972-8.928-12.425-13.89C71.398 1.92 63.257.094 61.666 2.803Z"/>
<g fill="none" stroke="#000" stroke-width="1.8">
	<path stroke-linecap="round" stroke-linejoin="round" d="m45.695 11.702-6.41 10.602c-2.118 3.607 6.577 12.63 19.561 20.066s24.938 10.908 27.055 7.301l6.19-10.544s-5.196 5.133-26.623-7.061C44.042 19.872 45.695 11.702 45.695 11.702"/>
	<path d="M85.98 28.665c4.917 4.249 7.662 8.095 6.332 10.405-2.304 3.999-14.599.32-26.844-7.004C53.223 24.74 43.391 15.7 45.695 11.702c1.362-2.363 6.217-1.807 12.316.435"/>
	<path stroke-linejoin="round" d="M91.572 21.627 78.175 38.046"/>
	<path stroke-linejoin="round" d="m53.201 23.385 8.223-19.36"/>
	<path d="M61.666 2.803c-1.59 2.71 3.973 8.928 12.425 13.89s16.594 6.788 18.184 4.079-3.972-8.928-12.425-13.89C71.398 1.92 63.257.094 61.666 2.803Z"/>
</g>
	<path fill="none" stroke="#000" stroke-width="2.228" d="M40.597 21.022c-10.244 2.195-19.619 8.63-25.32 18.343-11.135 18.648-4.89 42.649 13.979 53.726 18.868 11.077 42.592 4.67 53.726-13.978 5.702-9.712 6.647-20.538 3.791-30.609"/>
</g>
	<path fill="url(#m)" d="M21.818 73.53C20.009 59.738 29.852 47.075 43.8 45.246s26.724 7.868 28.533 21.66C74.142 80.698 64.3 93.361 50.35 95.19S23.626 87.32 21.818 73.53"/>
<g fill="none" stroke="#000" stroke-linejoin="round" stroke-width="1.694">
	<path d="M21.818 73.53C20.009 59.738 29.852 47.075 43.8 45.246s26.724 7.868 28.533 21.66C74.142 80.698 64.3 93.361 50.35 95.19S23.626 87.32 21.818 73.53Z"/>
	<path d="M36.272 71.634c-1.809-13.791 5.132-26.074 7.288-26.357s12.03 9.796 13.838 23.587-5.279 26.094-7.289 26.358-12.029-9.796-13.837-23.588Z"/>
	<path d="M26.332 56.278s10.036 4.152 19.298 2.916c9.262-1.235 17.751-7.858 17.751-7.858"/>
	<path d="M26.332 56.278s8.976 4.27 19.298 2.916 17.751-7.858 17.751-7.858M67.464 83.83s-8.58-3.635-19.197-2.656-17.863 7.516-17.863 7.516M21.9 74.159l50.516-6.624"/>
</g></svg>