<svg width="100%" height="100%" viewBox="0 0 600 600" stroke-miterlimit="10" style="fill-rule:nonzero;clip-rule:evenodd;stroke-linecap:round;stroke-linejoin:round;" version="1.1" xml:space="preserve" xmlns="http://www.w3.org/2000/svg" xmlns:xlink="http://www.w3.org/1999/xlink">
<defs>
	<linearGradient id="LG" gradientTransform="matrix(-9.97122 264 -292.442 -26.9101 188.007 216.603)" gradientUnits="userSpaceOnUse" x1="0" x2="1" y1="0" y2="0"><stop offset="0" stop-color="#f2f2f2" stop-opacity="0.9"/><stop offset="1" stop-color="#999" stop-opacity="0.5"/></linearGradient>
	<linearGradient id="LG_2" gradientTransform="matrix(-206.363 377.773 -431.458 -213.114 230.376 148.95)" gradientUnits="userSpaceOnUse" x1="0" x2="1" y1="0" y2="0"><stop offset="0" stop-color="#f2f2f2" stop-opacity="0.8"/><stop offset="1" stop-color="#757575" stop-opacity="0.5"/></linearGradient>
	<linearGradient id="LG_3" gradientTransform="matrix(-206.363 377.773 -431.458 -213.114 230.625 148.95)" gradientUnits="userSpaceOnUse" x1="0" x2="1" y1="0" y2="0"><stop offset="0" stop-color="#f2f2f2" stop-opacity="0.8"/><stop offset="1" stop-color="#757575" stop-opacity="0.5"/></linearGradient>
	<linearGradient id="LG_4" gradientTransform="matrix(-234.739 480.391 -546.787 -245.844 284.415 15.6149)" gradientUnits="userSpaceOnUse" x1="0" x2="1" y1="0" y2="0"><stop offset="0" stop-color="#f2f2f2" stop-opacity="0.8"/><stop offset="1" stop-color="#999" stop-opacity="0.5"/></linearGradient>
	<linearGradient id="LG_5" gradientTransform="matrix(14.3659 193.015 -212.345 0.0101135 354.704 394.753)" gradientUnits="userSpaceOnUse" x1="0" x2="1" y1="0" y2="0"><stop offset="0" stop-color="#f2f2f2" stop-opacity="0.8"/><stop offset="1" stop-color="#757575" stop-opacity="0.4"/></linearGradient>
	<linearGradient id="LG_6" gradientTransform="matrix(-206.363 377.773 -431.458 -213.114 230.376 148.95)" gradientUnits="userSpaceOnUse" x1="0" x2="1" y1="0" y2="0"><stop offset="0" stop-color="#f2f2f2" stop-opacity="0.8"/><stop offset="1" stop-color="#757575" stop-opacity="0.5"/></linearGradient>
	<linearGradient id="LG_7" gradientTransform="matrix(-234.739 480.391 -546.787 -245.844 284.415 15.6149)" gradientUnits="userSpaceOnUse" x1="0" x2="1" y1="0" y2="0"><stop offset="0" stop-color="#f2f2f2" stop-opacity="0.8"/><stop offset="1" stop-color="#999" stop-opacity="0.5"/></linearGradient>
	<linearGradient id="LG_8" gradientTransform="matrix(14.3659 193.015 -212.345 0.0101135 354.704 394.753)" gradientUnits="userSpaceOnUse" x1="0" x2="1" y1="0" y2="0"><stop offset="0" stop-color="#f2f2f2" stop-opacity="0.8"/><stop offset="1" stop-color="#757575" stop-opacity="0.4"/></linearGradient>
	<linearGradient id="LG_9" gradientTransform="matrix(-10.0751 217.663 -241.238 -23.8722 238.295 180.111)" gradientUnits="userSpaceOnUse" x1="0" x2="1" y1="0" y2="0"><stop offset="0" stop-color="#f2f2f2" stop-opacity="0.9"/><stop offset="1" stop-color="#999" stop-opacity="0.5"/></linearGradient>
	<linearGradient id="LG_10" gradientTransform="matrix(35.7388 291.249 -319.466 12.7966 222.723 59.0315)" gradientUnits="userSpaceOnUse" x1="0" x2="1" y1="0" y2="0"><stop offset="0" stop-color="#f2f2f2" stop-opacity="0.9"/><stop offset="1" stop-color="#999" stop-opacity="0.5"/></linearGradient>
	<linearGradient id="LG_11" gradientTransform="matrix(35.7388 291.249 -319.466 12.7966 222.723 59.0315)" gradientUnits="userSpaceOnUse" x1="0" x2="1" y1="0" y2="0"><stop offset="0" stop-color="#f2f2f2" stop-opacity="0.9"/><stop offset="1" stop-color="#999" stop-opacity="0.5"/></linearGradient>
	<linearGradient id="LG_12" gradientTransform="matrix(110.892 189.729 -202.188 87.9708 246.485 197.838)" gradientUnits="userSpaceOnUse" x1="0" x2="1" y1="0" y2="0"><stop offset="0" stop-color="#f2f2f2" stop-opacity="0.9"/><stop offset="1" stop-color="#757575" stop-opacity="0.4"/></linearGradient>
	<linearGradient id="LG_13" gradientTransform="matrix(13.4609 180.856 -198.968 0.0094764 348.331 393.897)" gradientUnits="userSpaceOnUse" x1="0" x2="1" y1="0" y2="0"><stop offset="0" stop-color="#f2f2f2" stop-opacity="0.9"/><stop offset="1" stop-color="#757575" stop-opacity="0.4"/></linearGradient>
	<linearGradient id="LG_14" gradientTransform="matrix(13.4609 180.856 -198.968 0.0094764 344.348 389.912)" gradientUnits="userSpaceOnUse" x1="0" x2="1" y1="0" y2="0"><stop offset="0" stop-color="#f2f2f2" stop-opacity="0.9"/><stop offset="1" stop-color="#757575" stop-opacity="0.4"/></linearGradient>
	<linearGradient id="LG_15" gradientTransform="matrix(13.4609 180.856 -198.968 0.0094764 348.331 393.897)" gradientUnits="userSpaceOnUse" x1="0" x2="1" y1="0" y2="0"><stop offset="0" stop-color="#f2f2f2" stop-opacity="0.9"/><stop offset="1" stop-color="#757575" stop-opacity="0.4"/></linearGradient>
</defs>
	<path fill="#33333300" fill-rule="nonzero" opacity="1" stroke="none" d="M0 0L600 0L600 600L0 600L0 0Z"/>
<g id="Bold-3" transform="matrix(1 0 0 1 0 0)">
<g opacity="1">
<g opacity="1">
	<path fill="url(#LG_2)" fill-rule="nonzero" opacity="0" stroke="none" d="M162.883 159.345C159.94 268.287 156.49 377.188 154.163 486.18C153.782 504.035 152.258 514.497 164.836 527.8C205.4 512.347 216.2 524.821 217.502 474.29C218.471 436.68 216.363 398.828 218.151 361.293C221.242 296.356 235.979 231.749 227.555 166.495C187.719 162.92 202.719 162.92 162.883 159.345Z"/>
<g opacity="1">
	<path fill="url(#LG_6)" fill-rule="nonzero" opacity="1" stroke="none" d="M162.883 159.345C159.94 268.287 156.49 377.188 154.163 486.18C153.782 504.035 152.258 514.497 164.836 527.8C205.4 512.347 216.2 524.821 217.502 474.29C218.471 436.68 216.363 398.828 218.151 361.293C221.242 296.356 235.979 231.749 227.555 166.495C187.719 162.92 202.719 162.92 162.883 159.345Z"/>
	<path fill="url(#LG_7)" fill-rule="nonzero" opacity="1" stroke="none" d="M160.682 43.6071C111.929 61.0058 72.9048 87.4087 42.2923 125.19C20.1278 152.546 9.77561 180.951 9.06865 210.53C8.36419 240.005 17.0211 270.011 31.209 301.621C35.6526 311.522 44.3431 316.824 53.4025 318.63C62.2736 320.399 71.584 319.437 80.8964 317.818C99.5106 314.581 113.415 308.314 126.391 307.839C133.01 307.597 137.569 301.103 135.548 294.795C115.284 231.562 121.252 182.214 147.348 144.881C173.597 107.328 221.784 80.2103 289.844 65.4571C315.477 59.9007 358.448 55.0885 397.348 59.6627C436.893 64.3128 469.257 78.2323 480.692 105.828C490.588 129.71 478.464 158.597 455.801 187.191C433.638 215.154 403.64 240.155 385.928 254.907C315.655 313.433 219.705 345.041 136.227 394.94C128.181 399.749 123.68 407.419 123.233 415.534C122.811 423.18 125.387 430.05 128.237 436.126C131.131 442.297 134.659 448.052 137.536 453.04C140.414 458.029 142.46 462.316 142.845 463.97C144.185 469.732 150.207 473.079 155.807 471.172C304.407 420.559 426.011 360.006 533.322 252.154C570.124 215.166 590.237 181.808 595.761 151.442C601.349 120.725 591.248 94.1557 570.582 73.6588C550.1 53.3452 519.834 38.7882 483.917 28.9262C447.928 19.0445 405.934 13.8697 361.442 13.2487C328.004 12.782 294.958 15.6825 262.573 19.7822C229.146 24.0138 194.04 31.7027 160.682 43.6071Z"/>
	<path fill="url(#LG_8)" fill-rule="nonzero" opacity="1" stroke="none" d="M145.25 391.015C124.137 398.186 122.061 418.433 122.061 418.433C119.453 426.814 122.332 434.95 128.866 441.654C135.864 450.455 139.157 456.439 140.276 465.306C140.341 465.827 140.365 466.608 140.496 467.734C140.892 471.16 144.384 473.315 147.623 472.134C150.116 471.226 192.6 457.219 240.58 441.819C275.246 430.693 319.075 422.066 327.532 420.682C351.254 416.798 368.402 415.464 389.285 415.734C410.113 416.003 426.866 418.203 439.441 422.116C448.646 424.98 456.159 429.166 462.174 434.662C464.933 437.182 466.455 439.657 467.154 442.157C467.854 444.655 467.817 447.442 466.762 450.834C465.071 456.266 462.944 460.176 458.937 464.241C454.902 468.334 448.72 472.633 439.014 477.876C413.103 491.871 381.894 498.746 352.964 505.992C311.31 516.426 299.439 515.083 242.493 526.734C228.133 529.672 201.566 533.645 178.668 536.987C167.208 538.659 156.648 540.179 148.901 541.349C145.025 541.935 141.86 542.43 139.59 542.825C138.449 543.024 137.544 543.193 136.802 543.358C136.422 543.443 136.098 543.52 135.671 543.656C135.446 543.727 135.206 543.798 134.587 544.106C134.587 544.106 134.081 544.412 133.596 544.78C133.596 544.78 133.203 545.179 132.799 545.649C132.872 545.552 132.938 545.448 133.018 545.356C130.686 548.026 126.766 553.466 123.055 558.964C119.298 564.531 116.009 569.335 114.927 572.81C113.872 576.2 113.95 580.084 116.099 583.322C118.165 586.434 121.416 588.167 124.916 589.256C133.391 591.893 154.123 593.908 181.53 594.835C208.874 595.76 242.523 595.423 275.306 592.619C300.614 590.454 356.58 585.238 410.387 570.251C476.667 551.789 524.469 525.216 537.758 517.047C556.913 505.271 571.526 489.412 576.637 472.986C581.03 458.868 576.892 444.444 565.963 430.637C561.052 424.432 534.092 388.808 462.842 372.866C425.607 364.535 396.858 359.885 328.369 365.655C260.807 371.346 183.741 377.94 145.25 391.015Z"/>
</g>
</g>
</g>
</g>
</svg>