<svg viewBox="0 0 48 48" width="100%" height="100%" stroke-miterlimit="10" style="fill-rule:nonzero;clip-rule:evenodd;stroke-linecap:round;stroke-linejoin:round;" version="1.1"  xml:space="preserve" xmlns="http://www.w3.org/2000/svg" xmlns:vectornator="http://vectornator.io" xmlns:xlink="http://www.w3.org/1999/xlink">
    <style>
@keyframes Combined-Shape-2_do { 0% { stroke-dashoffset: 0px; } 100% { stroke-dashoffset: -120px; } }
@keyframes Combined-Shape-3_do { 0% { stroke-dashoffset: -106px; } 100% { stroke-dashoffset: -235px; } }
    </style>
    <title>stat24_cloud_disconnect copy</title>
<g fill="none" opacity="1" stroke="#2355ce" stroke-linecap="round" stroke-linejoin="round" stroke-width="4">
    <path id="Combined-Shape-2" d="M35.4139 19.7375C40.0712 18.8855 44.4674 22.0205 45.5916 26.2909C46.8715 31.1532 43.4217 36.0609 37.9889 37.491C36.6794 37.8357 32.7156 37.97 32.7156 37.97C33.9586 37.9514 11.7839 37.9098 11.7839 37.9098C6.43931 37.8499 2.50241 34.9258 2.16276 30.4093C1.87697 26.6089 4.49167 23.1993 8.29137 21.9908C9.00732 21.7631 8.21323 22.211 8.244 21.8594C8.82349 15.2361 14.7525 10.03 21.9811 10.03C27.1139 10.03 31.5913 12.6548 33.9637 16.548C34.4467 17.3406 34.8425 18.1857 35.1387 19.072C35.2464 19.3942 35.2068 19.7754 35.4139 19.7375Z" stroke-dasharray="106 16" stroke-dashoffset="0" stroke-miterlimit="1" style="animation: Combined-Shape-2_do 2s linear infinite both;"/>
    <path id="Combined-Shape-3" d="M35.4139 19.7375C40.0712 18.8855 44.4674 22.0205 45.5916 26.2909C46.8715 31.1532 43.4217 36.0609 37.9889 37.491C36.6794 37.8357 32.7156 37.97 32.7156 37.97C33.9586 37.9514 11.7839 37.9098 11.7839 37.9098C6.43931 37.8499 2.50241 34.9258 2.16276 30.4093C1.87697 26.6089 4.49167 23.1993 8.29137 21.9908C9.00732 21.7631 8.21323 22.211 8.244 21.8594C8.82349 15.2361 14.7525 10.03 21.9811 10.03C27.1139 10.03 31.5913 12.6548 33.9637 16.548C34.4467 17.3406 34.8425 18.1857 35.1387 19.072C35.2464 19.3942 35.2068 19.7754 35.4139 19.7375Z" opacity="0.711055" stroke="#00fbff" stroke-dasharray="2 120" stroke-dashoffset="-113" stroke-miterlimit="1" style="animation: Combined-Shape-3_do 2s linear infinite both;"/>
</g>
</svg>
