<svg viewBox="0 0 48 48" width="100%" height="100%" stroke-miterlimit="10" style="fill-rule:nonzero;clip-rule:evenodd;stroke-linecap:round;stroke-linejoin:round;" version="1.1"  xml:space="preserve" xmlns="http://www.w3.org/2000/svg" xmlns:vectornator="http://vectornator.io" xmlns:xlink="http://www.w3.org/1999/xlink">
    <style>
@keyframes Combined-Shape-2_do { 0% { stroke-dashoffset: 0px; } 100% { stroke-dashoffset: -122px; } }
@keyframes Combined-Shape-3_do { 0% { stroke-dashoffset: -113px; } 100% { stroke-dashoffset: -235px; } }
    </style>
    <title>stat24_cloud_disconnect copy</title><g  fill="none" opacity="1" stroke="#2355CE">
    <path id="Combined-Shape-2" d="M27.2374 10.9668C28.8332 11.5791 30.262 12.4716 31.5074 13.5901C32.6798 14.6433 33.6593 15.865 34.4377 17.2741C35.9742 17.3013 37.425 17.5505 38.7635 18.0276C40.1761 18.5311 41.4296 19.2523 42.5032 20.1765C43.5769 21.1009 44.4179 22.1923 45.015 23.4418C45.6154 24.6987 45.908 26.0686 45.908 27.5443C45.908 28.9807 45.6376 30.3575 45.0708 31.619C44.5073 32.8731 43.7128 33.9635 42.6986 34.9121C41.6832 35.862 40.484 36.6092 39.1263 37.1449C37.7598 37.6838 36.2814 37.9542 34.6888 37.9542L22.4371 37.9542L11.3854 37.9542C9.4641 37.9542 7.78728 37.5972 6.38984 36.8657C5.00797 36.1424 3.94907 35.1622 3.20829 33.9354C2.46896 32.7109 2.09196 31.3398 2.09196 29.8607C2.09196 28.5371 2.36679 27.3176 2.92921 26.2327C3.48648 25.1576 4.25843 24.2373 5.21769 23.4977C6.09095 22.8243 7.0787 22.3731 8.14806 22.0465C8.33051 20.4507 8.77653 18.9259 9.51557 17.5252C10.2983 16.0417 11.324 14.7399 12.5854 13.6181C13.8487 12.4947 15.2697 11.6186 16.8833 10.9947C18.5024 10.3688 20.2273 10.0458 22.0464 10.0458C23.9016 10.0458 25.6356 10.3523 27.2374 10.9668Z" stroke-dasharray="1.8256694575206693,109.54016605608251,7.302677830082677,109.54016605608251" stroke-linecap="round" stroke-linejoin="round" stroke-width="3.90114" style="animation: Combined-Shape-2_do 2s linear infinite both;"/>
    <path id="Combined-Shape-3" d="M27.2374 10.9668C28.8332 11.5791 30.262 12.4716 31.5074 13.5901C32.6798 14.6433 33.6593 15.865 34.4377 17.2741C35.9742 17.3013 37.425 17.5505 38.7635 18.0276C40.1761 18.5311 41.4296 19.2523 42.5032 20.1765C43.5769 21.1009 44.4179 22.1923 45.015 23.4418C45.6154 24.6987 45.908 26.0686 45.908 27.5443C45.908 28.9807 45.6376 30.3575 45.0708 31.619C44.5073 32.8731 43.7128 33.9635 42.6986 34.9121C41.6832 35.862 40.484 36.6092 39.1263 37.1449C37.7598 37.6838 36.2814 37.9542 34.6888 37.9542L22.4371 37.9542L11.3854 37.9542C9.4641 37.9542 7.78728 37.5972 6.38984 36.8657C5.00797 36.1424 3.94907 35.1622 3.20829 33.9354C2.46896 32.7109 2.09196 31.3398 2.09196 29.8607C2.09196 28.5371 2.36679 27.3176 2.92921 26.2327C3.48648 25.1576 4.25843 24.2373 5.21769 23.4977C6.09095 22.8243 7.0787 22.3731 8.14806 22.0465C8.33051 20.4507 8.77653 18.9259 9.51557 17.5252C10.2983 16.0417 11.324 14.7399 12.5854 13.6181C13.8487 12.4947 15.2697 11.6186 16.8833 10.9947C18.5024 10.3688 20.2273 10.0458 22.0464 10.0458C23.9016 10.0458 25.6356 10.3523 27.2374 10.9668Z" fill="none" opacity="0.711055" stroke="#00fbff" stroke-dasharray="96.76047741191196,14.605355660165355,96.76047741191196,14.605355660165355" stroke-linecap="round" stroke-linejoin="round" stroke-width="3.90114" style="animation: Combined-Shape-3_do 2s linear infinite both;"/>
</g></svg>