<svg width="100%" height="100%" viewBox="0 0 48 48" version="1.1" xml:space="preserve" xmlns="http://www.w3.org/2000/svg" xmlns:xlink="http://www.w3.org/1999/xlink">
    <style>
@keyframes Combined-Shape_t { 0% { transform: translate(0px,0px); animation-timing-function: cubic-bezier(0.42,0,0.58,1); } 33.3333% { transform: translate(0px,2px); animation-timing-function: cubic-bezier(0.42,0,0.58,1); } 100% { transform: translate(0px,0px); } }
@keyframes Combined-Shape-2_t { 0% { transform: translate(-0px,4px); animation-timing-function: cubic-bezier(0.42,0,0.58,1); } 33.3333% { transform: translate(-0px,-4px); animation-timing-function: cubic-bezier(0.42,0,0.58,1); } 100% { transform: translate(-0px,4px); } }
    </style>
    <title>
B_cloud_upload</title><g fill="#efefef">
<g opacity="1" stroke="none">
	<path id="Combined-Shape" fill="#2355ce" d="M21.825 7.4182C19.8495 7.4182 17.9963 7.7611 16.245 8.4382C14.4937 9.1153 12.931 10.0584 11.565 11.2732C10.199 12.488 9.09763 13.8967 8.25 15.5032C7.40236 17.1097 6.88813 18.8478 6.72 20.6932C5.44504 21.0384 4.31576 21.5899 3.3 22.3732C2.28424 23.1565 1.47344 24.1181 0.885 25.2532C0.296559 26.3883-1.33227e-15 27.6559-1.33227e-15 29.0632C-1.33227e-15 30.6298 0.392417 32.0654 1.17 33.3532C1.94758 34.641 3.0589 35.6732 4.53 36.4432C6.0011 37.2132 7.79743 37.5982 9.885 37.5982L13.065 37.5982L16.74 37.5982C17.6308 37.5975 18.3381 36.869 18.33 35.9782C18.322 35.0983 17.62 34.3882 16.74 34.3882L12.975 34.3882L9.825 34.3882C8.39593 34.3882 7.21472 34.1562 6.255 33.6982C5.29528 33.2402 4.57836 32.6131 4.095 31.8232C3.61164 31.0332 3.36 30.1507 3.36 29.1682C3.36 27.96 3.75341 26.8573 4.545 25.8682C5.33659 24.8791 6.62066 24.1596 8.4 23.7082C8.98844 23.5622 9.41482 23.3486 9.66 23.0632C9.90518 22.7778 10.053 22.3441 10.095 21.7732C10.2211 20.1535 10.6065 18.679 11.265 17.3182C11.9235 15.9574 12.7882 14.7656 13.86 13.7632C14.9318 12.7608 16.146 11.9742 17.505 11.4232C18.864 10.8722 20.2979 10.6132 21.825 10.6132C24.1788 10.6132 26.2736 11.1949 28.095 12.3832C29.9164 13.5714 31.4001 15.2643 32.535 17.4682C32.7872 17.9462 33.0847 18.2957 33.435 18.4882C33.7853 18.6807 34.2735 18.7732 34.89 18.7732C36.9636 18.7732 38.7199 19.1279 40.17 19.8382C41.6201 20.5485 42.7134 21.4916 43.47 22.6732C44.2266 23.8548 44.61 25.1526 44.61 26.5732C44.61 28.0203 44.2426 29.3366 43.5 30.5182C42.7574 31.6998 41.745 32.6412 40.47 33.3382C39.195 34.0352 37.7622 34.3882 36.165 34.3882L31.26 34.3882C30.38 34.3882 29.678 35.0983 29.67 35.9782C29.6619 36.869 30.3692 37.5975 31.26 37.5982L35.955 37.5982C37.6783 37.5982 39.2759 37.3057 40.74 36.7282C42.2041 36.1507 43.4792 35.3588 44.565 34.3432C45.6508 33.3275 46.4976 32.1441 47.1 30.8032C47.7025 29.4623 48 28.0083 48 26.4682C48 24.8883 47.6775 23.4375 47.04 22.1032C46.4025 20.7689 45.5189 19.6123 44.37 18.6232C43.2211 17.6341 41.8772 16.8725 40.35 16.3282C38.8229 15.7839 37.1643 15.5032 35.385 15.5032C34.5163 13.8569 33.415 12.4364 32.07 11.2282C30.725 10.02 29.1803 9.08703 27.45 8.4232C25.7197 7.75937 23.8425 7.4182 21.825 7.4182Z" transform="translate(24,23) translate(-24,-23)" style="animation: Combined-Shape_t 1s linear infinite both;"/>
    <path id="Combined-Shape-2" d="M26 30.8284L26 42C26 43.1046 25.1046 44 24 44C22.8954 44 22 43.1046 22 42L22 30.8284L19.4142 33.4142C18.6332 34.1953 17.3668 34.1953 16.5858 33.4142C15.8047 32.6332 15.8047 31.3668 16.5858 30.5858L22.5858 24.5858C22.9763 24.1953 23.4882 24 24 24C24.5118 24 25.0237 24.1953 25.4142 24.5858L31.4142 30.5858C32.1953 31.3668 32.1953 32.6332 31.4142 33.4142C30.6332 34.1953 29.3668 34.1953 28.5858 33.4142L26 30.8284L26 30.8284Z" transform="translate(24,36) translate(-24,-32)" style="animation: Combined-Shape-2_t 1s linear infinite both;"/>
</g>
</g>
</svg>
