<svg viewBox="0 0 48 48" width="100%" height="100%" stroke-miterlimit="10" style="fill-rule:nonzero;clip-rule:evenodd;stroke-linecap:round;stroke-linejoin:round;" version="1.1"  xml:space="preserve" xmlns="http://www.w3.org/2000/svg" xmlns:vectornator="http://vectornator.io" xmlns:xlink="http://www.w3.org/1999/xlink">
    <style>
@keyframes Combined-Shape-2_do { 0% { stroke-dashoffset: 0px; } 100% { stroke-dashoffset: -122px; } }
@keyframes Combined-Shape-3_do { 0% { stroke-dashoffset: -113px; } 100% { stroke-dashoffset: -235px; } }
    </style>
    <title>stat24_cloud_disconnect copy</title>
<g opacity="1" fill="none" stroke="#2355CE" stroke-linecap="round" stroke-linejoin="round" stroke-width="3.90114" >
    <path id="Combined-Shape-2" d="M35.1387 19.072C34.8425 18.1857 34.4467 17.3406 33.9637 16.548C31.5913 12.6548 27.1139 10.03 21.9811 10.03C14.7525 10.03 8.82349 15.2361 8.244 21.8594C8.21323 22.211 9.00732 21.7631 8.29137 21.9908C4.49167 23.1993 1.87697 26.6089 2.16276 30.4093C2.50241 34.9258 6.43931 37.8499 11.7839 37.9098C11.7839 37.9098 33.9586 37.9514 32.7156 37.97C32.7156 37.97 36.6794 37.8357 37.9889 37.491C43.4217 36.0609 46.8715 31.1532 45.5916 26.2909C44.4674 22.0205 40.0712 18.8855 35.4139 19.7375C35.2068 19.7754 35.2464 19.3942 35.1387 19.072Z" stroke-dasharray="1.8256694575206693,109.54016605608251,7.302677830082677,109.54016605608251" style="animation: Combined-Shape-2_do 2s linear infinite both;"/>
    <path id="Combined-Shape-3" d="M35.1387 19.072C34.8425 18.1857 34.4467 17.3406 33.9637 16.548C31.5913 12.6548 27.1139 10.03 21.9811 10.03C14.7525 10.03 8.82349 15.2361 8.244 21.8594C8.21323 22.211 9.00732 21.7631 8.29137 21.9908C4.49167 23.1993 1.87697 26.6089 2.16276 30.4093C2.50241 34.9258 6.43931 37.8499 11.7839 37.9098C11.7839 37.9098 33.9586 37.9514 32.7156 37.97C32.7156 37.97 36.6794 37.8357 37.9889 37.491C43.4217 36.0609 46.8715 31.1532 45.5916 26.2909C44.4674 22.0205 40.0712 18.8855 35.4139 19.7375C35.2068 19.7754 35.2464 19.3942 35.1387 19.072Z" opacity="0.711055" stroke="#00fbff" stroke-dasharray="96.76047741191196,14.605355660165355,96.76047741191196,14.605355660165355" style="animation: Combined-Shape-3_do 2s linear infinite both;"/>
</g>
</svg>