<svg height="100%" stroke-miterlimit="10" style="fill-rule:nonzero;clip-rule:evenodd;stroke-linecap:round;stroke-linejoin:round;" version="1.1" viewBox="0 0 100 100" width="100%" xml:space="preserve" xmlns="http://www.w3.org/2000/svg" xmlns:xlink="http://www.w3.org/1999/xlink">
<defs>
<linearGradient gradientTransform="matrix(18.0223 75.5304 83.8387 -16.2363 21.7625 17.7687)" gradientUnits="userSpaceOnUse" id="LGCloudUpload" x1="0" x2="1" y1="0" y2="0"><stop offset="0" stop-color="#00fbff"/><stop offset="1" stop-color="#2355ce"/></linearGradient>
</defs><style>@keyframes Combined-Shape_t{0%{transform:translate(0,0);animation-timing-function:cubic-bezier(.42,0,.58,1)}33.3333%{transform:translate(0,2px);animation-timing-function:cubic-bezier(.42,0,.58,1)}to{transform:translate(0,0)}}@keyframes Combined-Shape-2_t{0%{transform:translate(0,4px);animation-timing-function:cubic-bezier(.42,0,.58,1)}33.3333%{transform:translate(0,-4px);animation-timing-function:cubic-bezier(.42,0,.58,1)}to{transform:translate(0,4px)}}</style>
<g id="CloudUpload" fill="#efefef" fill-rule="nonzero" stroke="none">
<path id="Combined-Shape" fill="url(#LGCloudUpload)" style="animation:Combined-Shape_t 1s linear infinite both" d="M45.4688 7.72708C41.3521 7.72708 37.4917 8.44167 33.8438 9.85208C30.2643 11.2171 26.9612 13.218 24.0938 15.7583C21.278 18.2543 18.9381 21.2401 17.1875 24.5708C15.4168 27.9273 14.3332 31.6031 14 35.3833C11.4156 36.0638 8.99318 37.2538 6.875 38.8833C4.77662 40.4885 3.05862 42.5373 1.84375 44.8833C0.61875 47.2479-7.10543e-15 49.8896-7.10543e-15 52.8208C-7.10543e-15 56.0854 0.816667 59.075 2.4375 61.7583C4.05833 64.4417 6.37292 66.5917 9.4375 68.1958C12.5021 69.8 16.2437 70.6021 20.5938 70.6021L34.875 70.6021C36.7292 70.6021 38.2042 69.0833 38.1875 67.2271C38.1841 65.3991 36.703 63.918 34.875 63.9146L20.4687 63.9146C17.4896 63.9146 15.0312 63.4313 13.0312 62.4771C11.0312 61.5229 9.5375 60.2167 8.53125 58.5708C7.51161 56.9074 6.98094 54.9905 7 53.0396C7 50.5229 7.81875 48.2271 9.46875 46.1646C11.1187 44.1042 13.7937 42.6063 17.5 41.6646C18.725 41.3604 19.6146 40.9146 20.125 40.3208C20.6354 39.7271 20.9437 38.8229 21.0312 37.6333C21.2937 34.2583 22.0958 31.1875 23.4687 28.3521C24.7966 25.5698 26.6298 23.0585 28.875 20.9458C31.0835 18.8658 33.6582 17.2129 36.4688 16.0708C39.3 14.925 42.2875 14.3833 45.4688 14.3833C50.3729 14.3833 54.7375 15.5958 58.5313 18.0708C62.325 20.5458 65.4167 24.0729 67.7813 28.6646C68.3063 29.6604 68.9271 30.3896 69.6563 30.7896C70.3854 31.1917 71.4021 31.3833 72.6875 31.3833C77.0083 31.3833 80.6667 32.1229 83.6875 33.6021C86.7083 35.0812 88.9854 37.0479 90.5625 39.5083C92.1303 41.9268 92.956 44.7512 92.9375 47.6333C92.9375 50.6479 92.1729 53.3917 90.625 55.8521C89.0771 58.3146 86.9688 60.275 84.3125 61.7271C81.6563 63.1792 78.6708 63.9146 75.3438 63.9146L65.125 63.9146C63.2917 63.9146 61.8292 65.3937 61.8125 67.2271C61.7958 69.0833 63.2708 70.6021 65.125 70.6021L74.9063 70.6021C78.4958 70.6021 81.8229 69.9938 84.875 68.7896C87.925 67.5875 90.5833 65.9354 92.8438 63.8208C95.0797 61.7404 96.8755 59.2326 98.125 56.4458C99.3792 53.6542 100 50.6229 100 47.4146C100 44.1229 99.3292 41.1021 98 38.3208C96.6754 35.5404 94.7801 33.0702 92.4375 31.0708C90.0437 29.0104 87.2437 27.425 84.0625 26.2896C80.8812 25.1562 77.425 24.5708 73.7188 24.5708C71.9659 21.2142 69.6271 18.1979 66.8125 15.6646C63.9912 13.1408 60.7282 11.1597 57.1875 9.82083C53.5833 8.4375 49.6729 7.72708 45.4688 7.72708Z"/>
<path id="Combined-Shape-2" style="animation:Combined-Shape-2_t 1s linear infinite both" transform="translate(0 4)" d="M54.1667 64.8313L54.1667 88.1063C54.1667 90.4074 52.3012 92.2729 50 92.2729C47.6988 92.2729 45.8333 90.4074 45.8333 88.1063L45.8333 64.8313L40.4458 70.2188C39.3997 71.3019 37.8505 71.7363 36.3937 71.355C34.9369 70.9737 33.7992 69.836 33.4179 68.3792C33.0366 66.9224 33.471 65.3732 34.5542 64.3271L47.0542 51.8271C47.8667 51.0146 48.9333 50.6063 50 50.6063C51.1054 50.6042 52.1659 51.0437 52.9458 51.8271L65.4458 64.3271C66.529 65.3732 66.9634 66.9224 66.5821 68.3792C66.2008 69.836 65.0631 70.9737 63.6063 71.355C62.1495 71.7363 60.6003 71.3019 59.5542 70.2188L54.1667 64.8313Z"/>
</g>
</svg>