<svg viewBox="0 0 48 48" width="100%" height="100%" stroke-miterlimit="10" style="fill-rule:nonzero;clip-rule:evenodd;stroke-linecap:round;stroke-linejoin:round;" version="1.1"  xml:space="preserve" xmlns="http://www.w3.org/2000/svg" xmlns:vectornator="http://vectornator.io" xmlns:xlink="http://www.w3.org/1999/xlink">
    <style>
@keyframes Combined-Shape-2_do { 0% { stroke-dashoffset: 0px; } 100% { stroke-dashoffset: -122px; } }
@keyframes Combined-Shape-3_do { 0% { stroke-dashoffset: -113px; } 100% { stroke-dashoffset: -235px; } }
    </style>
    <title>stat24_cloud_disconnect copy</title>
<g fill="none" opacity="1" stroke="#2355ce" stroke-linecap="round" stroke-linejoin="round" stroke-width="4">
    <path id="Combined-Shape-2" d="M35.4139 19.7375C40.0712 18.8855 44.4674 22.0205 45.5916 26.2909C46.8715 31.1532 43.4217 36.0609 37.9889 37.491C36.6794 37.8357 32.7156 37.97 32.7156 37.97C33.9586 37.9514 11.7839 37.9098 11.7839 37.9098C6.43931 37.8499 2.50241 34.9258 2.16276 30.4093C1.87697 26.6089 4.49167 23.1993 8.29137 21.9908C9.00732 21.7631 8.21323 22.211 8.244 21.8594C8.82349 15.2361 14.7525 10.03 21.9811 10.03C27.1139 10.03 31.5913 12.6548 33.9637 16.548C34.4467 17.3406 35.1176 18.8513 35.4139 19.7375C35.4139 19.7375 35.2068 19.7754 35.4139 19.7375Z" stroke-dasharray="2,224" style="animation: Combined-Shape-2_do 2s linear infinite both;"/>
    <path id="Combined-Shape-3" d="M35.4139 19.7375C40.0712 18.8855 44.4674 22.0205 45.5916 26.2909C46.8715 31.1532 43.4217 36.0609 37.9889 37.491C36.6794 37.8357 32.7156 37.97 32.7156 37.97C33.9586 37.9514 11.7839 37.9098 11.7839 37.9098C6.43931 37.8499 2.50241 34.9258 2.16276 30.4093C1.87697 26.6089 4.49167 23.1993 8.29137 21.9908C9.00732 21.7631 8.21323 22.211 8.244 21.8594C8.82349 15.2361 14.7525 10.03 21.9811 10.03C27.1139 10.03 31.5913 12.6548 33.9637 16.548C34.4467 17.3406 35.1176 18.8513 35.4139 19.7375C35.4139 19.7375 35.2068 19.7754 35.4139 19.7375Z" stroke-dasharray="99.21242552821174,14.975460457088564,99.21242552821174,14.975460457088564" style="animation: Combined-Shape-3_do 2s linear infinite both;" opacity="0.711055" stroke="#00fbff" />
</g>
</svg>


<?xml version="1.0" encoding="UTF-8" standalone="no"?>
<!DOCTYPE svg PUBLIC "-//W3C//DTD SVG 1.1//EN" "http://www.w3.org/Graphics/SVG/1.1/DTD/svg11.dtd">
<!-- Created with Vectornator (http://vectornator.io/) -->
<svg height="100%" stroke-miterlimit="10" style="fill-rule:nonzero;clip-rule:evenodd;stroke-linecap:round;stroke-linejoin:round;" version="1.1" viewBox="-0.530369 6.19273 49.0607 34" width="100%" xml:space="preserve" xmlns="http://www.w3.org/2000/svg" xmlns:vectornator="http://vectornator.io" xmlns:xlink="http://www.w3.org/1999/xlink">
<defs>
<linearGradient gradientTransform="matrix(8.6507 36.2546 40.2426 -7.79344 10.4461 13.9227)" gradientUnits="userSpaceOnUse" id="LinearGradient" x1="0" x2="1" y1="0" y2="0">
<stop offset="0" stop-color="#00fbff"/>
<stop offset="1" stop-color="#2355ce"/>
</linearGradient>
<linearGradient gradientTransform="matrix(8.6507 36.2546 40.2426 -7.79344 10.4409 13.9238)" gradientUnits="userSpaceOnUse" id="LinearGradient_2" x1="0" x2="1" y1="0" y2="0">
<stop offset="0" stop-color="#00fbff"/>
<stop offset="1" stop-color="#2355ce"/>
</linearGradient>
<linearGradient gradientTransform="matrix(8.6507 36.2546 40.2426 -7.79344 10.4461 13.9227)" gradientUnits="userSpaceOnUse" id="LinearGradient_3" x1="0" x2="1" y1="0" y2="0">
<stop offset="0" stop-color="#00fbff"/>
<stop offset="1" stop-color="#2355ce"/>
</linearGradient>
</defs>
<g id="Layer">
<g opacity="0">
<path d="M39.9978 22.4442C43.4494 23.3315 46 26.4642 46 30.1927C46 34.611 42.4183 38.1927 38 38.1927L9.20001 38.1927L9.20001 38.1532C5.15735 37.7518 2 34.341 2 30.1927C2 27.196 3.64768 24.5841 6.08651 23.2136C6.02963 22.8818 6 22.5407 6 22.1927C6 18.879 8.68629 16.1927 12 16.1927C12.4403 16.1927 12.8696 16.2401 13.2829 16.3302C15.5011 11.5263 20.3613 8.19273 26 8.19273C33.732 8.19273 40 14.4607 40 22.1927C40 22.2767 39.9993 22.3605 39.9978 22.4442L39.9978 22.4442Z" fill="none" opacity="1" stroke="#efefef" stroke-dasharray="2.0,120.0,2.0,120.0" stroke-linecap="round" stroke-linejoin="round" stroke-width="4"/>
<path d="M21.825 9.10273C19.8495 9.10273 17.9963 9.44562 16.245 10.1227C14.4937 10.7998 12.931 11.7429 11.565 12.9577C10.199 14.1725 9.09763 15.5813 8.25 17.1877C7.40236 18.7942 6.88813 20.5323 6.72 22.3777C5.44504 22.7229 4.31576 23.2744 3.3 24.0577C2.28424 24.841 1.47344 25.8026 0.885 26.9377C0.296559 28.0729 1.28786e-14 29.3404 1.28786e-14 30.7477C1.28786e-14 32.3144 0.392417 33.7499 1.17 35.0377C1.94758 36.3256 3.0589 37.3577 4.53 38.1277C6.0011 38.8978 7.79743 39.2827 9.885 39.2827L12.74 39.2827C13.6308 39.282 14.3381 38.5535 14.33 37.6627C14.322 36.7828 13.62 36.0727 12.74 36.0727L9.825 36.0727C8.39593 36.0727 7.21472 35.8408 6.255 35.3827C5.29528 34.9247 4.57836 34.2977 4.095 33.5077C3.61164 32.7178 3.36 31.8352 3.36 30.8527C3.36 29.6446 3.75341 28.5418 4.545 27.5527C5.33659 26.5636 6.62066 25.8441 8.4 25.3927C8.98844 25.2467 9.41482 25.0332 9.66 24.7477C9.90518 24.4623 10.053 24.0286 10.095 23.4577C10.2211 21.838 10.6065 20.3636 11.265 19.0027C11.9235 17.6419 12.7882 16.4501 13.86 15.4477C14.9318 14.4453 16.146 13.6587 17.505 13.1077C18.864 12.5568 20.2979 12.2977 21.825 12.2977C24.1788 12.2977 26.2736 12.8795 28.095 14.0677C29.9164 15.256 31.4001 16.9488 32.535 19.1527C32.7872 19.6307 33.0847 19.9802 33.435 20.1727C33.7853 20.3652 34.2735 20.4577 34.89 20.4577C36.9636 20.4577 38.7199 20.8124 40.17 21.5227C41.6201 22.233 42.7134 23.1761 43.47 24.3577C44.2266 25.5393 44.61 26.8371 44.61 28.2577C44.61 29.7049 44.2426 31.0211 43.5 32.2027C42.7574 33.3843 41.745 34.3257 40.47 35.0227C39.195 35.7197 37.7622 36.0727 36.165 36.0727L35.26 36.0727C34.38 36.0727 33.678 36.7828 33.67 37.6627C33.6619 38.5535 34.3692 39.282 35.26 39.2827L35.955 39.2827C37.6783 39.2827 39.2759 38.9903 40.74 38.4127C42.2041 37.8352 43.4792 37.0434 44.565 36.0277C45.6508 35.0121 46.4976 33.8287 47.1 32.4877C47.7025 31.1468 48 29.6928 48 28.1527C48 26.5728 47.6775 25.122 47.04 23.7877C46.4025 22.4534 45.5189 21.2968 44.37 20.3077C43.2211 19.3186 41.8772 18.5571 40.35 18.0127C38.8229 17.4684 37.1643 17.1877 35.385 17.1877C34.5163 15.5414 33.415 14.1209 32.07 12.9127C30.725 11.7046 29.1803 10.7716 27.45 10.1077C25.7197 9.4439 23.8425 9.10273 21.825 9.10273Z" fill="url(#LinearGradient)" fill-rule="nonzero" opacity="0" stroke="none"/>
<path d="M21.8243 8.57818C19.7874 8.57818 17.8575 8.92808 16.0447 9.62898C14.2378 10.3276 12.6261 11.3023 11.2117 12.5602C9.79913 13.8163 8.65025 15.2866 7.77375 16.9477C6.94621 18.5161 6.45008 20.2121 6.24579 21.9989C5.04838 22.3647 3.95179 22.8856 2.97397 23.6397C1.89985 24.468 1.0403 25.4962 0.4163 26.6999C-0.213464 27.9148-0.530369 29.2735-0.530369 30.7556C-0.530369 32.4117-0.112606 33.938 0.715249 35.3091C1.54473 36.6829 2.73868 37.7806 4.28602 38.5906C5.85078 39.4096 7.7316 39.8073 9.883 39.8073L19.7396 39.8073C20.9297 39.8064 21.8595 38.8291 21.8489 37.6504C21.8383 36.4861 20.9152 35.5487 19.7396 35.5488C19.7396 35.5488 9.81656 35.5488 9.81656 35.5488C8.44341 35.5488 7.34744 35.3183 6.47831 34.9035C5.59596 34.4824 4.96022 33.9206 4.53514 33.2259C4.1017 32.5176 3.88742 31.7381 3.88742 30.8478C3.88742 29.759 4.22757 28.7829 4.95035 27.8798C5.64303 27.0142 6.80763 26.3419 8.52112 25.9072C9.16043 25.7485 9.69255 25.5111 10.0491 25.096C10.3995 24.6881 10.567 24.1275 10.6138 23.4922C10.7353 21.931 11.115 20.5318 11.7431 19.2337C12.3752 17.9274 13.1954 16.7978 14.2177 15.8416C15.2447 14.8812 16.4077 14.1187 17.7055 13.5925C18.9972 13.0689 20.3572 12.8367 21.8243 12.8367C24.0902 12.8367 26.074 13.3861 27.8033 14.5143C29.5405 15.6476 30.9557 17.2648 32.055 19.3996C32.3355 19.9312 32.69 20.3722 33.1677 20.6347C33.6362 20.8922 34.2138 20.985 34.8784 20.985C36.8928 20.985 38.5673 21.3328 39.9273 21.9989C41.3054 22.674 42.3174 23.5434 43.0164 24.6352C43.7208 25.7353 44.0794 26.9439 44.0794 28.2669C44.0794 29.6231 43.7385 30.821 43.0497 31.917C42.3558 33.0211 41.4112 33.8964 40.2096 34.5533C39.0166 35.2055 37.6758 35.5488 36.1572 35.5488L28.2604 35.5488C27.0848 35.5487 26.1451 36.4863 26.1345 37.6504C26.1239 38.8294 27.0704 39.8064 28.2604 39.8073C28.2604 39.8073 35.9579 39.8073 35.9579 39.8073C37.7411 39.8073 39.3937 39.5075 40.9238 38.904C42.444 38.3043 43.7894 37.4787 44.9264 36.4152C46.062 35.353 46.9528 34.114 47.5837 32.7098C48.2183 31.2972 48.5304 29.7647 48.5304 28.1563C48.5304 26.5039 48.1896 24.9732 47.5173 23.5659C46.8488 22.1667 45.9127 20.9509 44.7105 19.9158C43.5084 18.8808 42.1069 18.083 40.5252 17.5192C39.0264 16.985 37.396 16.7017 35.6756 16.6712C34.804 15.0934 33.7331 13.7025 32.4204 12.5233C31.026 11.2708 29.4242 10.2961 27.6372 9.61055C25.8436 8.92245 23.9016 8.57818 21.8243 8.57818Z" fill="url(#LinearGradient_2)" fill-rule="nonzero" opacity="0" stroke="none"/>
<path d="M21.825 9.10273C19.8495 9.10273 17.9963 9.44562 16.245 10.1227C14.4937 10.7998 12.931 11.7429 11.565 12.9577C10.199 14.1725 9.09763 15.5813 8.25 17.1877C7.40236 18.7942 6.88813 20.5323 6.72 22.3777C5.44504 22.7229 4.31576 23.2744 3.3 24.0577C2.28424 24.841 1.47344 25.8026 0.885 26.9377C0.296559 28.0729 1.28786e-14 29.3404 1.28786e-14 30.7477C1.28786e-14 32.3144 0.392417 33.7499 1.17 35.0377C1.94758 36.3256 3.0589 37.3577 4.53 38.1277C6.0011 38.8978 7.79743 39.2827 9.885 39.2827L12.74 39.2827C13.6308 39.282 14.3381 38.5535 14.33 37.6627C14.322 36.7828 13.62 36.0727 12.74 36.0727L9.825 36.0727C8.39593 36.0727 7.21472 35.8408 6.255 35.3827C5.29528 34.9247 4.57836 34.2977 4.095 33.5077C3.61164 32.7178 3.36 31.8352 3.36 30.8527C3.36 29.6446 3.75341 28.5418 4.545 27.5527C5.33659 26.5636 6.62066 25.8441 8.4 25.3927C8.98844 25.2467 9.41482 25.0332 9.66 24.7477C9.90518 24.4623 10.053 24.0286 10.095 23.4577C10.2211 21.838 10.6065 20.3636 11.265 19.0027C11.9235 17.6419 12.7882 16.4501 13.86 15.4477C14.9318 14.4453 16.146 13.6587 17.505 13.1077C18.864 12.5568 20.2979 12.2977 21.825 12.2977C24.1788 12.2977 26.2736 12.8795 28.095 14.0677C29.9164 15.256 31.4001 16.9488 32.535 19.1527C32.7872 19.6307 33.0847 19.9802 33.435 20.1727C33.7853 20.3652 34.2735 20.4577 34.89 20.4577C36.9636 20.4577 38.7199 20.8124 40.17 21.5227C41.6201 22.233 42.7134 23.1761 43.47 24.3577C44.2266 25.5393 44.61 26.8371 44.61 28.2577C44.61 29.7049 44.2426 31.0211 43.5 32.2027C42.7574 33.3843 41.745 34.3257 40.47 35.0227C39.195 35.7197 37.7622 36.0727 36.165 36.0727L35.26 36.0727C34.38 36.0727 33.678 36.7828 33.67 37.6627C33.6619 38.5535 34.3692 39.282 35.26 39.2827L35.955 39.2827C37.6783 39.2827 39.2759 38.9903 40.74 38.4127C42.2041 37.8352 43.4792 37.0434 44.565 36.0277C45.6508 35.0121 46.4976 33.8287 47.1 32.4877C47.7025 31.1468 48 29.6928 48 28.1527C48 26.5728 47.6775 25.122 47.04 23.7877C46.4025 22.4534 45.5189 21.2968 44.37 20.3077C43.2211 19.3186 41.8772 18.5571 40.35 18.0127C38.8229 17.4684 37.1643 17.1877 35.385 17.1877C34.5163 15.5414 33.415 14.1209 32.07 12.9127C30.725 11.7046 29.1803 10.7716 27.45 10.1077C25.7197 9.4439 23.8425 9.10273 21.825 9.10273Z" fill="url(#LinearGradient_3)" fill-rule="nonzero" opacity="0" stroke="none"/>
<path d="M39.9978 22.4442C43.4494 23.3315 46 26.4642 46 30.1927C46 34.611 42.4183 38.1927 38 38.1927L9.20001 38.1927L9.20001 38.1532C5.15735 37.7518 2 34.341 2 30.1927C2 27.196 3.64768 24.5841 6.08651 23.2136C6.02963 22.8818 6 22.5407 6 22.1927C6 18.879 8.68629 16.1927 12 16.1927C12.4403 16.1927 12.8696 16.2401 13.2829 16.3302C15.5011 11.5263 20.3613 8.19273 26 8.19273C33.732 8.19273 40 14.4607 40 22.1927C40 22.2767 39.9993 22.3605 39.9978 22.4442L39.9978 22.4442Z" fill="none" opacity="0.711055" stroke="#efefef" stroke-dasharray="106.0,16.0,106.0,16.0" stroke-linecap="round" stroke-linejoin="round" stroke-width="4"/>
</g>
</g>
</svg>
