<svg xmlns="http://www.w3.org/2000/svg" xml:space="preserve" viewBox="0 0 48 48"><defs><linearGradient id="LGCloudUpload" x1="0" x2="1" y1="0" y2="0" gradientTransform="matrix(8.6507 36.2546 40.2426 -7.79344 10.446 12.238)" gradientUnits="userSpaceOnUse"><stop offset="0" stop-color="#00fbff"/><stop offset="1" stop-color="#2355ce"/></linearGradient></defs><style>@keyframes Combined-Shape_t{0%{transform:translate(0,0);animation-timing-function:cubic-bezier(.42,0,.58,1)}33.3333%{transform:translate(0,2px);animation-timing-function:cubic-bezier(.42,0,.58,1)}to{transform:translate(0,0)}}@keyframes Combined-Shape-2_t{0%{transform:translate(0,4px);animation-timing-function:cubic-bezier(.42,0,.58,1)}33.3333%{transform:translate(0,-4px);animation-timing-function:cubic-bezier(.42,0,.58,1)}to{transform:translate(0,4px)}}</style><g fill="#efefef"><path id="Combined-Shape" fill="url(#LGCloudUpload)" d="M21.825 7.418c-1.976 0-3.829.343-5.58 1.02a15.255 15.255 0 0 0-4.68 2.835 14.942 14.942 0 0 0-3.315 4.23 13.701 13.701 0 0 0-1.53 5.19 9.63 9.63 0 0 0-3.42 1.68 8.612 8.612 0 0 0-2.415 2.88C.297 26.388 0 27.656 0 29.063c0 1.567.392 3.002 1.17 4.29.778 1.288 1.889 2.32 3.36 3.09 1.471.77 3.267 1.155 5.355 1.155h6.855c.89 0 1.598-.729 1.59-1.62a1.593 1.593 0 0 0-1.59-1.59H9.825c-1.43 0-2.61-.232-3.57-.69-.96-.458-1.677-1.085-2.16-1.875a4.987 4.987 0 0 1-.735-2.655c0-1.208.393-2.31 1.185-3.3.792-.989 2.076-1.708 3.855-2.16.588-.146 1.015-.36 1.26-.645.245-.285.393-.719.435-1.29.126-1.62.511-3.094 1.17-4.455a11.947 11.947 0 0 1 2.595-3.555 11.79 11.79 0 0 1 3.645-2.34c1.359-.55 2.793-.81 4.32-.81 2.354 0 4.449.582 6.27 1.77 1.821 1.188 3.305 2.881 4.44 5.085.252.478.55.828.9 1.02.35.193.838.285 1.455.285 2.074 0 3.83.355 5.28 1.065 1.45.71 2.543 1.654 3.3 2.835a7.086 7.086 0 0 1 1.14 3.9c0 1.447-.367 2.764-1.11 3.945-.743 1.182-1.755 2.123-3.03 2.82-1.275.697-2.708 1.05-4.305 1.05H31.26c-.88 0-1.582.71-1.59 1.59-.008.891.7 1.62 1.59 1.62h4.695c1.723 0 3.32-.292 4.785-.87 1.464-.577 2.74-1.37 3.825-2.385a10.96 10.96 0 0 0 2.535-3.54c.602-1.34.9-2.795.9-4.335 0-1.58-.322-3.03-.96-4.365a10.528 10.528 0 0 0-2.67-3.48c-1.149-.989-2.493-1.75-4.02-2.295-1.527-.544-3.186-.825-4.965-.825a15.247 15.247 0 0 0-3.315-4.275 14.76 14.76 0 0 0-4.62-2.805c-1.73-.664-3.607-1.005-5.625-1.005Z" style="animation:Combined-Shape_t 1s linear infinite both"/><path id="Combined-Shape-2" d="M26 30.828V42a2 2 0 1 1-4 0V30.828l-2.586 2.586a2 2 0 1 1-2.828-2.828l6-6c.39-.39.902-.586 1.414-.586a1.99 1.99 0 0 1 1.414.586l6 6a2 2 0 1 1-2.828 2.828L26 30.828Z" style="animation:Combined-Shape-2_t 1s linear infinite both" transform="translate(0 4)"/></g></svg>