<svg width="100%" height="100%" viewBox="0.75 0.75 22.5 22.5" stroke-miterlimit="10" style="fill-rule:nonzero;clip-rule:evenodd;stroke-linecap:round;stroke-linejoin:round;" version="1.1" xml:space="preserve" xmlns="http://www.w3.org/2000/svg" xmlns:vectornator="http://vectornator.io" xmlns:xlink="http://www.w3.org/1999/xlink">
<g opacity="1">
<path d="M10.75 12C10.75 11.3096 11.3096 10.75 12 10.75C12.6904 10.75 13.25 11.3096 13.25 12C13.25 12.6904 12.6904 13.25 12 13.25C11.3096 13.25 10.75 12.6904 10.75 12Z" fill="#eb4e3d" fill-rule="nonzero" stroke="none" id="circle" />
<path d="M12 2C6.4775 2 2 6.4775 2 12C2 17.5225 6.4775 22 12 22C17.5225 22 22 17.5225 22 12C22 6.4775 17.5225 2 12 2ZM14.5 14.5L7.625 16.375L9.5 9.5L16.375 7.625L14.5 14.5Z" fill="#285ff4" fill-rule="nonzero" stroke="none">
<animateTransform id="eosIconsCompass0" attributeName="transform" attributeType="XML" begin="0;eosIconsCompass2.end" dur="1s" from="-90 12 12" to="0 12 12" type="rotate"/>
<animateTransform id="eosIconsCompass1" attributeName="transform" attributeType="XML" begin="eosIconsCompass0.end" dur="1s" from="0 12 12" to="-90 12 12" type="rotate"/>
<animateTransform id="eosIconsCompass2" attributeName="transform" attributeType="XML" begin="eosIconsCompass1.end" dur="1s" from="-90 12 12" to="270 12 12" type="rotate"/>
</path>
</g>
</svg>