<svg xmlns="http://www.w3.org/2000/svg" xmlns:vectornator="http://vectornator.io" xmlns:xlink="http://www.w3.org/1999/xlink" style="fill-rule:nonzero;clip-rule:evenodd;stroke-linecap:round;stroke-linejoin:round" width="100%" height="100%" stroke-miterlimit="10" version="1.1" viewBox="45.767 0.833 508.465 598.333" xml:space="preserve"><defs><linearGradient id="LinearGradient" x1="0" x2="1" y1="0" y2="0" gradientTransform="matrix(-384.603 -432.531 432.531 -384.603 440.476 433.043)" gradientUnits="userSpaceOnUse"><stop offset="0" stop-color="#e6e6e6" stop-opacity=".8"/><stop offset="1" stop-color="#999" stop-opacity=".6"/></linearGradient><linearGradient id="LinearGradient_2" x1="0" x2="1" y1="0" y2="0" gradientTransform="matrix(-123.77 123.77 -123.77 -123.77 378.113 53.6097)" gradientUnits="userSpaceOnUse"><stop offset="0" stop-color="#7e7e7e" stop-opacity=".471"/><stop offset=".12" stop-color="#8a8a8a" stop-opacity=".478"/><stop offset=".416" stop-color="#a6a6a6" stop-opacity=".49"/><stop offset=".672" stop-color="#bababa" stop-opacity=".478"/><stop offset=".875" stop-color="#c6c6c6" stop-opacity=".49"/><stop offset="1" stop-color="#cbcbcb" stop-opacity=".49"/></linearGradient><linearGradient id="LinearGradient_3" x1="0" x2="1" y1="0" y2="0" gradientTransform="matrix(198.832 191.847 -191.847 198.832 330.465 374.116)" gradientUnits="userSpaceOnUse"><stop offset="0" stop-color="#00fbff" stop-opacity=".74"/><stop offset="1" stop-color="#00ffc3" stop-opacity=".74"/></linearGradient><linearGradient id="LinearGradient_4" x1="0" x2="1" y1="0" y2="0" gradientTransform="matrix(196.137 196.137 -196.137 196.137 301.818 346.749)" gradientUnits="userSpaceOnUse"><stop offset="0" stop-color="#f5ebff" stop-opacity="0"/><stop offset="1" stop-color="#daa6ff" stop-opacity="0"/></linearGradient><linearGradient id="LinearGradient_5" x1="0" x2="1" y1="0" y2="0" gradientTransform="matrix(-227.237 -0.78985 0.348639 -238.534 306.15 352.534)" gradientUnits="userSpaceOnUse"><stop offset="0" stop-color="#7b7b7b" stop-opacity=".049"/><stop offset="1" stop-color="#fff"/></linearGradient><linearGradient id="LinearGradient_6" x1="0" x2="1" y1="0" y2="0" gradientTransform="matrix(-227.237 -0.78985 0.348639 -238.534 306.15 352.534)" gradientUnits="userSpaceOnUse"><stop offset="0" stop-color="#7b7b7b" stop-opacity=".049"/><stop offset="1" stop-color="#fff"/></linearGradient><filter id="Filter" width="136.586" height="48.887" x="93.107" y="328.814" color-interpolation-filters="sRGB" filterUnits="userSpaceOnUse"><feGaussianBlur in="SourceGraphic" result="Blur" stdDeviation="1.828"/></filter><linearGradient id="LinearGradient_7" x1="0" x2="1" y1="0" y2="0" gradientTransform="matrix(227.237 -0.78985 -0.348639 -238.534 76.7549 263.465)" gradientUnits="userSpaceOnUse"><stop offset="0" stop-color="#7b7b7b" stop-opacity=".049"/><stop offset="1" stop-color="#fff"/></linearGradient><linearGradient id="LinearGradient_8" x1="0" x2="1" y1="0" y2="0" gradientTransform="matrix(227.237 0.78985 -0.348639 238.534 76.7549 264.554)" gradientUnits="userSpaceOnUse"><stop offset="0" stop-color="#7b7b7b" stop-opacity=".049"/><stop offset="1" stop-color="#fff"/></linearGradient><filter id="Filter_2" width="292.418" height="51.46" x="92.218" y="238.498" color-interpolation-filters="sRGB" filterUnits="userSpaceOnUse"><feGaussianBlur in="SourceGraphic" result="Blur" stdDeviation="2.184"/></filter><linearGradient id="LinearGradient_9" x1="0" x2="1" y1="0" y2="0" gradientTransform="matrix(-227.237 0.78985 0.348639 238.534 305.592 175.484)" gradientUnits="userSpaceOnUse"><stop offset="0" stop-color="#7b7b7b" stop-opacity=".049"/><stop offset="1" stop-color="#fff"/></linearGradient><linearGradient id="LinearGradient_10" x1="0" x2="1" y1="0" y2="0" gradientTransform="matrix(-227.237 0.78985 0.348639 238.534 305.592 175.484)" gradientUnits="userSpaceOnUse"><stop offset="0" stop-color="#7b7b7b" stop-opacity=".049"/><stop offset="1" stop-color="#fff"/></linearGradient><filter id="Filter_3" width="292.782" height="51.704" x="91.757" y="148.292" color-interpolation-filters="sRGB" filterUnits="userSpaceOnUse"><feGaussianBlur in="SourceGraphic" result="Blur" stdDeviation="2.145"/></filter></defs><g id="Layer"><g opacity="1"><g opacity="1"><path fill="#0cffcf" fill-opacity=".141" fill-rule="nonzero" stroke="none" d="M404.38 322.473C337.276 328.93 283.922 382.323 277.529 449.452C279.545 468.619 286.336 486.309 296.58 501.509L405.227 501.509C440.621 501.509 469.416 472.714 469.416 437.32L469.416 351.486C451.764 335.619 429.298 325.053 404.38 322.473Z" opacity=".1"/><path fill="#0cffcf" fill-opacity=".141" fill-rule="nonzero" stroke="none" d="M404.38 322.473C337.276 328.93 283.922 382.323 277.529 449.452C279.134 464.703 283.768 479.004 290.739 491.881L405.227 491.881C435.319 491.881 459.788 467.412 459.788 437.32L459.788 343.719C443.856 332.217 424.972 324.604 404.38 322.473Z" opacity=".2"/><path fill="#0cffcf" fill-opacity=".141" fill-rule="nonzero" stroke="none" d="M404.38 322.473C337.276 328.93 283.922 382.323 277.529 449.452C278.749 460.993 281.714 471.982 286.092 482.252L405.227 482.252C430.017 482.252 450.159 462.11 450.159 437.32L450.159 337.454C436.423 329.482 420.953 324.193 404.38 322.473Z" opacity=".3"/><path fill="#0cffcf" fill-opacity=".141" fill-rule="nonzero" stroke="none" d="M404.38 322.473C337.276 328.93 283.922 382.323 277.529 449.452C278.376 457.463 280.097 465.191 282.497 472.624L405.227 472.624C424.715 472.624 440.531 456.808 440.531 437.32L440.531 332.409C429.324 327.248 417.179 323.795 404.38 322.473Z" opacity=".4"/></g><path fill="url(#LinearGradient)" fill-rule="nonzero" stroke="none" d="M404.662 129.212L402.287 129.212L328.752 129.212C314.271 129.212 302.524 117.465 302.524 102.971L302.524 31.3232L302.524 27.0739C302.524 12.58 290.778 0.833333 276.284 0.833333L71.4431 0.833333C57.2573 0.833333 45.7674 12.3232 45.7674 26.509L45.7674 437.32C45.7674 451.506 57.2573 462.996 71.4431 462.996L405.227 462.996C419.413 462.996 430.903 451.506 430.903 437.32L430.903 154.887L430.838 154.836C430.505 140.637 418.951 129.212 404.662 129.212Z" opacity="1"/><g opacity="1"><path fill="#0cffcf" fill-opacity=".141" fill-rule="nonzero" stroke="none" d="M405.227 462.996C419.413 462.996 430.903 451.493 430.903 437.32L430.903 323.063C388.846 308.929 340.563 318.48 307.056 351.987C276.913 382.13 266.155 424.225 274.563 462.996L405.227 462.996Z" opacity=".4"/><path fill="#0cffcf" fill-opacity=".141" fill-rule="nonzero" stroke="none" d="M405.227 462.996C419.413 462.996 430.903 451.493 430.903 437.32L430.903 317.633C387.447 303.691 337.918 313.858 303.423 348.354C272.291 379.486 260.955 422.877 269.274 462.996L405.227 462.996Z" opacity=".3"/><path fill="#0cffcf" fill-opacity=".141" fill-rule="nonzero" stroke="none" d="M405.227 462.996C419.413 462.996 430.903 451.493 430.903 437.32L430.903 312.202C386.047 298.44 335.286 309.25 299.803 344.733C267.669 376.867 255.756 421.542 264.011 463.009L405.227 463.009L405.227 462.996Z" opacity=".2"/><path fill="#0cffcf" fill-opacity=".141" fill-rule="nonzero" stroke="none" d="M405.227 462.996C419.413 462.996 430.903 451.493 430.903 437.32L430.903 306.785C384.674 293.19 332.642 304.615 296.17 341.088C263.035 374.222 250.569 420.194 258.76 462.983L405.227 462.983L405.227 462.996Z" opacity=".1"/><path fill="#0cffcf" fill-opacity=".141" fill-rule="nonzero" stroke="none" d="M405.227 462.996C419.413 462.996 430.903 451.493 430.903 437.32L430.903 301.508C383.287 288.054 330.01 299.994 292.536 337.467C258.401 371.603 245.447 418.859 253.574 462.996L405.227 462.996Z" opacity=".05"/></g><path fill="url(#LinearGradient_2)" fill-rule="nonzero" stroke="none" d="M295.091 8.83131C299.674 13.5428 302.524 19.9617 302.524 27.0739L302.524 31.3232L302.524 102.971C302.524 117.465 314.271 129.212 328.765 129.212L402.3 129.212L404.675 129.212C411.774 129.212 418.193 132.049 422.905 136.632L295.091 8.83131Z" opacity="1"/><path fill="#0cffcf" fill-opacity=".141" fill-rule="nonzero" stroke="none" d="M392.389 321.779C328.572 321.779 276.849 373.503 276.849 437.32C276.849 446.152 277.927 454.728 279.814 462.996L405.227 462.996C419.413 462.996 430.903 451.493 430.903 437.32L430.903 328.494C418.835 324.219 405.92 321.779 392.389 321.779Z" opacity="1"/><path fill="url(#LinearGradient_3)" fill-rule="nonzero" stroke="none" d="M546.713 555.325L490.124 498.736C501.344 480.943 507.93 459.915 507.93 437.32C507.93 373.503 456.206 321.779 392.389 321.779C328.572 321.779 276.849 373.503 276.849 437.32C276.849 501.124 328.572 552.861 392.389 552.861C414.984 552.861 436.012 546.275 453.818 535.054L510.407 591.644C520.434 601.67 536.686 601.67 546.713 591.644C556.739 581.617 556.739 565.352 546.713 555.325Z" opacity=".759"/><path fill="url(#LinearGradient_4)" fill-rule="nonzero" stroke="none" d="M392.389 328.198C452.56 328.198 501.511 377.149 501.511 437.32C501.511 457.796 495.695 477.862 484.693 495.321C483.101 497.863 483.461 501.163 485.592 503.281L542.181 559.87C545.814 563.503 547.817 568.343 547.817 573.491C547.817 578.639 545.814 583.466 542.181 587.112C538.548 590.745 533.708 592.748 528.56 592.748C523.412 592.748 518.585 590.745 514.939 587.112L458.35 530.523C457.118 529.277 455.461 528.648 453.805 528.648C452.624 528.648 451.443 528.969 450.391 529.637C432.931 540.626 412.865 546.442 392.389 546.442C332.218 546.442 283.267 497.491 283.267 437.32C283.267 377.149 332.218 328.198 392.389 328.198M392.389 321.779C328.572 321.779 276.849 373.503 276.849 437.32C276.849 501.124 328.572 552.861 392.389 552.861C414.984 552.861 436.012 546.275 453.818 535.054L510.407 591.644C515.427 596.663 521.987 599.167 528.56 599.167C535.133 599.167 541.706 596.663 546.713 591.644C556.739 581.617 556.739 565.365 546.713 555.338L490.124 498.749C501.344 480.943 507.93 459.915 507.93 437.32C507.93 373.503 456.206 321.779 392.389 321.779Z" opacity="0"/><g opacity="1"><g opacity="1"><path fill="url(#LinearGradient_5)" fill-rule="nonzero" stroke="none" d="M116.56 373.131C106.116 373.131 97.6771 364.189 97.6771 353.226C97.6771 342.263 106.116 333.384 116.56 333.384L206.24 333.384C216.684 333.384 225.123 342.263 225.123 353.226C225.123 364.189 216.684 373.131 206.24 373.131L116.56 373.131Z" opacity=".8"/><path fill="url(#LinearGradient_6)" fill-rule="nonzero" stroke="none" d="M116.56 373.131C106.116 373.131 97.6771 364.189 97.6771 353.226C97.6771 342.263 106.116 333.384 116.56 333.384L206.24 333.384C216.684 333.384 225.123 342.263 225.123 353.226C225.123 364.189 216.684 373.131 206.24 373.131L116.56 373.131Z" filter="url(#Filter)" opacity=".6"/></g><g opacity="1"><path fill="url(#LinearGradient_7)" fill-rule="nonzero" stroke="none" d="M360.295 284.499C370.739 284.499 379.177 275.558 379.177 264.595C379.177 253.631 370.739 244.752 360.295 244.752L116.56 244.314C106.116 244.314 97.6771 253.193 97.6771 264.156C97.6771 275.119 106.116 284.061 116.56 284.061L360.295 284.499Z" opacity=".8"/><path fill="url(#LinearGradient_8)" fill-rule="nonzero" stroke="none" d="M360.295 244.752C370.739 244.752 379.177 253.694 379.177 264.657C379.177 275.62 370.739 284.499 360.295 284.499L116.56 283.704C106.116 283.704 97.6771 274.825 97.6771 263.862C97.6771 252.899 106.116 243.957 116.56 243.957L360.295 244.752Z" filter="url(#Filter_2)" opacity=".6"/></g><g opacity="1"><path fill="url(#LinearGradient_9)" fill-rule="nonzero" stroke="none" d="M116.002 154.887C105.558 154.887 97.1188 163.829 97.1188 174.792C97.1187 185.755 105.558 194.634 116.002 194.634L360.295 193.401C370.739 193.401 379.177 184.522 379.177 173.559C379.177 162.595 370.739 153.654 360.295 153.654L116.002 154.887Z" opacity=".8"/><path fill="url(#LinearGradient_10)" fill-rule="nonzero" stroke="none" d="M116.002 154.887C105.558 154.887 97.1188 163.829 97.1188 174.792C97.1187 185.755 105.558 194.634 116.002 194.634L360.295 193.401C370.739 193.401 379.177 184.522 379.177 173.559C379.177 162.595 370.739 153.654 360.295 153.654L116.002 154.887Z" filter="url(#Filter_3)" opacity=".6"/></g></g></g></g></svg>