<?xml version="1.0" encoding="UTF-8" standalone="no"?>
<!DOCTYPE svg PUBLIC "-//W3C//DTD SVG 1.1//EN" "http://www.w3.org/Graphics/SVG/1.1/DTD/svg11.dtd">
<!-- Created with Vectornator (http://vectornator.io/) -->
<svg height="100%" stroke-miterlimit="10" style="fill-rule:nonzero;clip-rule:evenodd;stroke-linecap:round;stroke-linejoin:round;" version="1.1" viewBox="26.2232 9.3838 647.554 681.232" width="100%" xml:space="preserve" xmlns="http://www.w3.org/2000/svg" xmlns:vectornator="http://vectornator.io" xmlns:xlink="http://www.w3.org/1999/xlink">
<defs>
<linearGradient gradientTransform="matrix(1404.64 1884.27 -1884.27 1404.64 -343.432 -276.278)" gradientUnits="userSpaceOnUse" id="LinearGradient" x1="0" x2="1" y1="0" y2="0">
<stop offset="0" stop-color="#666666" stop-opacity="0.15"/>
<stop offset="1" stop-color="#ffffff" stop-opacity="0.9"/>
</linearGradient>
<linearGradient gradientTransform="matrix(1404.64 -1884.27 -1884.27 -1404.64 -343.432 976.278)" gradientUnits="userSpaceOnUse" id="LinearGradient_2" x1="0" x2="1" y1="0" y2="0">
<stop offset="0" stop-color="#666666" stop-opacity="0.15"/>
<stop offset="1" stop-color="#ffffff" stop-opacity="0.9"/>
</linearGradient>
<linearGradient gradientTransform="matrix(1404.64 1884.27 -1884.27 1404.64 -343.432 -276.278)" gradientUnits="userSpaceOnUse" id="LinearGradient_3" x1="0" x2="1" y1="0" y2="0">
<stop offset="0" stop-color="#666666" stop-opacity="0.15"/>
<stop offset="1" stop-color="#ffffff" stop-opacity="0.9"/>
</linearGradient>
<linearGradient gradientTransform="matrix(1404.64 1884.27 -1884.27 1404.64 -343.432 -276.278)" gradientUnits="userSpaceOnUse" id="LinearGradient_4" x1="0" x2="1" y1="0" y2="0">
<stop offset="0" stop-color="#666666" stop-opacity="0.15"/>
<stop offset="1" stop-color="#ffffff" stop-opacity="0.9"/>
</linearGradient>
<linearGradient gradientTransform="matrix(1404.64 1884.27 -1884.27 1404.64 -343.432 -276.278)" gradientUnits="userSpaceOnUse" id="LinearGradient_5" x1="0" x2="1" y1="0" y2="0">
<stop offset="0" stop-color="#666666" stop-opacity="0.15"/>
<stop offset="1" stop-color="#ffffff" stop-opacity="0.9"/>
</linearGradient>
<linearGradient gradientTransform="matrix(1404.64 1884.27 -1884.27 1404.64 -343.432 -276.278)" gradientUnits="userSpaceOnUse" id="LinearGradient_6" x1="0" x2="1" y1="0" y2="0">
<stop offset="0" stop-color="#666666" stop-opacity="0.15"/>
<stop offset="1" stop-color="#ffffff" stop-opacity="0.9"/>
</linearGradient>
<linearGradient gradientTransform="matrix(-895.782 -5.32676e-12 -5.01224e-12 895.782 862.587 644.156)" gradientUnits="userSpaceOnUse" id="LinearGradient_7" x1="0" x2="1" y1="0" y2="0">
<stop offset="0" stop-color="#666666" stop-opacity="0.15"/>
<stop offset="1" stop-color="#ffffff" stop-opacity="0.9"/>
</linearGradient>
<linearGradient gradientTransform="matrix(-380.176 -10.0376 -10.0376 380.176 301.136 382.543)" gradientUnits="userSpaceOnUse" id="LinearGradient_8" x1="0" x2="1" y1="0" y2="0">
<stop offset="0" stop-color="#666666" stop-opacity="0.15"/>
<stop offset="1" stop-color="#ffffff" stop-opacity="0.9"/>
</linearGradient>
<linearGradient gradientTransform="matrix(380.176 -10.0376 10.0376 380.176 397.193 382.543)" gradientUnits="userSpaceOnUse" id="LinearGradient_9" x1="0" x2="1" y1="0" y2="0">
<stop offset="0" stop-color="#666666" stop-opacity="0.15"/>
<stop offset="1" stop-color="#ffffff" stop-opacity="0.9"/>
</linearGradient>
<linearGradient gradientTransform="matrix(186.066 4.40392 -4.40392 186.066 263.899 334.615)" gradientUnits="userSpaceOnUse" id="LinearGradient_10" x1="0" x2="1" y1="0" y2="0">
<stop offset="0" stop-color="#666666" stop-opacity="0.5"/>
<stop offset="1" stop-color="#b3b3b3" stop-opacity="0.6"/>
</linearGradient>
<linearGradient gradientTransform="matrix(10.0376 -380.176 -380.176 -10.0376 559.543 803.58)" gradientUnits="userSpaceOnUse" id="LinearGradient_11" x1="0" x2="1" y1="0" y2="0">
<stop offset="0" stop-color="#666666" stop-opacity="0.15"/>
<stop offset="1" stop-color="#ffffff" stop-opacity="0.9"/>
</linearGradient>
<linearGradient gradientTransform="matrix(10.0376 380.176 -380.176 10.0376 317.338 414.749)" gradientUnits="userSpaceOnUse" id="LinearGradient_12" x1="0" x2="1" y1="0" y2="0">
<stop offset="0" stop-color="#666666" stop-opacity="0.15"/>
<stop offset="1" stop-color="#ffffff" stop-opacity="0.9"/>
</linearGradient>
<linearGradient gradientTransform="matrix(10.0376 -380.176 -380.176 -10.0376 74.6549 804.058)" gradientUnits="userSpaceOnUse" id="LinearGradient_13" x1="0" x2="1" y1="0" y2="0">
<stop offset="0" stop-color="#666666" stop-opacity="0.15"/>
<stop offset="1" stop-color="#ffffff" stop-opacity="0.9"/>
</linearGradient>
<linearGradient gradientTransform="matrix(10.0376 380.176 -380.176 10.0376 559.304 -103.58)" gradientUnits="userSpaceOnUse" id="LinearGradient_14" x1="0" x2="1" y1="0" y2="0">
<stop offset="0" stop-color="#666666" stop-opacity="0.15"/>
<stop offset="1" stop-color="#ffffff" stop-opacity="0.9"/>
</linearGradient>
<linearGradient gradientTransform="matrix(10.0376 -380.176 -380.176 -10.0376 317.099 285.251)" gradientUnits="userSpaceOnUse" id="LinearGradient_15" x1="0" x2="1" y1="0" y2="0">
<stop offset="0" stop-color="#666666" stop-opacity="0.15"/>
<stop offset="1" stop-color="#ffffff" stop-opacity="0.9"/>
</linearGradient>
<linearGradient gradientTransform="matrix(10.0376 380.176 -380.176 10.0376 74.416 -104.058)" gradientUnits="userSpaceOnUse" id="LinearGradient_16" x1="0" x2="1" y1="0" y2="0">
<stop offset="0" stop-color="#666666" stop-opacity="0.15"/>
<stop offset="1" stop-color="#ffffff" stop-opacity="0.9"/>
</linearGradient>
<linearGradient gradientTransform="matrix(1404.64 1884.27 -1884.27 1404.64 -343.432 -276.278)" gradientUnits="userSpaceOnUse" id="LinearGradient_17" x1="0" x2="1" y1="0" y2="0">
<stop offset="0" stop-color="#666666" stop-opacity="0.15"/>
<stop offset="1" stop-color="#ffffff" stop-opacity="0.9"/>
</linearGradient>
<linearGradient gradientTransform="matrix(-895.782 -5.32676e-12 -5.01224e-12 895.782 862.587 644.156)" gradientUnits="userSpaceOnUse" id="LinearGradient_18" x1="0" x2="1" y1="0" y2="0">
<stop offset="0" stop-color="#666666" stop-opacity="0.15"/>
<stop offset="1" stop-color="#ffffff" stop-opacity="0.9"/>
</linearGradient>
<linearGradient gradientTransform="matrix(-380.176 -10.0376 -10.0376 380.176 301.136 382.543)" gradientUnits="userSpaceOnUse" id="LinearGradient_19" x1="0" x2="1" y1="0" y2="0">
<stop offset="0" stop-color="#666666" stop-opacity="0.15"/>
<stop offset="1" stop-color="#ffffff" stop-opacity="0.9"/>
</linearGradient>
<linearGradient gradientTransform="matrix(380.176 -10.0376 10.0376 380.176 397.193 382.543)" gradientUnits="userSpaceOnUse" id="LinearGradient_20" x1="0" x2="1" y1="0" y2="0">
<stop offset="0" stop-color="#666666" stop-opacity="0.15"/>
<stop offset="1" stop-color="#ffffff" stop-opacity="0.9"/>
</linearGradient>
<linearGradient gradientTransform="matrix(-895.782 -5.23164e-12 -5.10736e-12 895.782 862.588 384.277)" gradientUnits="userSpaceOnUse" id="LinearGradient_21" x1="0" x2="1" y1="0" y2="0">
<stop offset="0" stop-color="#666666" stop-opacity="0.15"/>
<stop offset="1" stop-color="#ffffff" stop-opacity="0.9"/>
</linearGradient>
<linearGradient gradientTransform="matrix(895.782 -5.32676e-12 5.23164e-12 895.782 -163.304 125.351)" gradientUnits="userSpaceOnUse" id="LinearGradient_22" x1="0" x2="1" y1="0" y2="0">
<stop offset="0" stop-color="#666666" stop-opacity="0.15"/>
<stop offset="1" stop-color="#ffffff" stop-opacity="0.9"/>
</linearGradient>
<linearGradient gradientTransform="matrix(1404.64 1884.27 -1884.27 1404.64 -343.432 -276.278)" gradientUnits="userSpaceOnUse" id="LinearGradient_23" x1="0" x2="1" y1="0" y2="0">
<stop offset="0" stop-color="#666666" stop-opacity="0.15"/>
<stop offset="1" stop-color="#ffffff" stop-opacity="0.9"/>
</linearGradient>
</defs>
<g id="Layer">
<g opacity="1">
<path d="M61.5626 9.39878C37.995 9.39878 26.2233 21.1705 26.2232 44.7382L26.2232 136.487C26.2232 160.054 37.995 171.826 61.5626 171.826L151.396 171.826C176.237 171.826 188.65 160.054 188.65 136.487L188.65 44.7382C188.65 21.1705 176.237 9.39875 151.396 9.39878L61.5626 9.39878ZM303.288 9.39878C280.357 9.39878 268.906 21.1705 268.906 44.7382L268.906 136.487C268.906 160.054 280.357 171.826 303.288 171.826L394.079 171.826C418.92 171.826 431.333 160.054 431.333 136.487L431.333 44.7382C431.333 21.1705 418.92 9.39875 394.079 9.39878L303.288 9.39878ZM545.971 9.39878C523.04 9.39878 511.589 21.1705 511.589 44.7382L511.589 136.487C511.589 160.054 523.04 171.826 545.971 171.826L635.804 171.826C660.645 171.826 673.059 160.054 673.059 136.487L673.059 44.7382C673.059 21.1705 660.645 9.39875 635.804 9.39878L545.971 9.39878ZM61.5626 268.267C37.995 268.267 26.2233 280.135 26.2232 303.702L26.2232 396.312C26.2232 419.243 37.995 430.694 61.5626 430.694L151.396 430.694C176.237 430.694 188.65 419.243 188.65 396.312L188.65 303.702C188.65 280.135 176.237 268.267 151.396 268.267L61.5626 268.267ZM303.288 268.267C280.357 268.267 268.906 280.135 268.906 303.702L268.906 396.312C268.906 419.243 280.357 430.694 303.288 430.694L394.079 430.694C418.92 430.694 431.333 419.243 431.333 396.312L431.333 303.702C431.333 280.135 418.92 268.267 394.079 268.267L303.288 268.267ZM545.971 268.267C523.04 268.267 511.589 280.135 511.589 303.702L511.589 396.312C511.589 419.243 523.04 430.694 545.971 430.694L635.804 430.694C660.645 430.694 673.059 419.243 673.059 396.312L673.059 303.702C673.059 280.135 660.645 268.267 635.804 268.267L545.971 268.267ZM61.5626 528.189C37.995 528.189 26.2233 539.96 26.2232 563.528L26.2232 655.276C26.2232 678.844 37.995 690.616 61.5626 690.616L151.396 690.616C176.237 690.616 188.65 678.844 188.65 655.276L188.65 563.528C188.65 539.96 176.237 528.189 151.396 528.189L61.5626 528.189ZM303.288 528.189C280.357 528.189 268.906 539.96 268.906 563.528L268.906 655.276C268.906 678.844 280.357 690.616 303.288 690.616L394.079 690.616C418.92 690.616 431.333 678.844 431.333 655.276L431.333 563.528C431.333 539.96 418.92 528.189 394.079 528.189L303.288 528.189ZM545.971 528.189C523.04 528.189 511.589 539.96 511.589 563.528L511.589 655.276C511.589 678.844 523.04 690.616 545.971 690.616L635.804 690.616C660.645 690.616 673.059 678.844 673.059 655.276L673.059 563.528C673.059 539.96 660.645 528.189 635.804 528.189L545.971 528.189Z" fill="url(#LinearGradient)" fill-rule="nonzero" opacity="0" stroke="none"/>
<path d="M545.986 528.191L635.798 528.191C660.639 528.191 673.06 539.974 673.06 563.542L673.06 655.265C673.06 678.832 660.639 690.616 635.798 690.616L545.986 690.616C523.055 690.616 511.59 678.832 511.59 655.265L511.59 563.542C511.59 539.974 523.055 528.191 545.986 528.191Z" fill="url(#LinearGradient_2)" fill-rule="nonzero" opacity="0" stroke="none"/>
<path d="M61.5753 171.809L151.387 171.809C176.229 171.809 188.65 160.026 188.65 136.458L188.65 44.7353C188.65 21.1676 176.229 9.3838 151.387 9.3838L61.5753 9.3838C38.0077 9.3838 26.2238 21.1676 26.2238 44.7353L26.2238 136.458C26.2238 160.026 38.0077 171.809 61.5753 171.809ZM303.303 171.809L394.07 171.809C418.912 171.809 431.333 160.026 431.333 136.458L431.333 44.7353C431.333 21.1676 418.912 9.3838 394.07 9.3838L303.303 9.3838C280.372 9.3838 268.907 21.1676 268.907 44.7353L268.907 136.458C268.907 160.026 280.372 171.809 303.303 171.809ZM545.986 171.809L635.798 171.809C660.639 171.809 673.06 160.026 673.06 136.458L673.06 44.7353C673.06 21.1676 660.639 9.3838 635.798 9.3838L545.986 9.3838C523.055 9.3838 511.59 21.1676 511.59 44.7353L511.59 136.458C511.59 160.026 523.055 171.809 545.986 171.809Z" fill="url(#LinearGradient_3)" fill-rule="nonzero" opacity="0" stroke="none"/>
<g opacity="0">
<path d="M545.971 528.189C523.04 528.189 511.589 539.96 511.589 563.528L511.589 655.276C511.589 678.844 523.04 690.616 545.971 690.616L635.804 690.616C660.645 690.616 673.059 678.844 673.059 655.276L673.059 563.528C673.059 539.96 660.645 528.189 635.804 528.189L545.971 528.189Z" fill="url(#LinearGradient_4)" fill-rule="nonzero" opacity="1" stroke="none"/>
<path d="M303.303 690.616L394.07 690.616C418.912 690.616 431.333 678.832 431.333 655.265L431.333 563.542C431.333 539.974 418.912 528.191 394.07 528.191L303.303 528.191C280.372 528.191 268.907 539.974 268.907 563.542L268.907 655.265C268.907 678.832 280.372 690.616 303.303 690.616Z" fill="url(#LinearGradient_5)" fill-rule="nonzero" opacity="1" stroke="none"/>
<path d="M61.5753 690.616L151.387 690.616C176.229 690.616 188.65 678.832 188.65 655.265L188.65 563.542C188.65 539.974 176.229 528.191 151.387 528.191L61.5753 528.191C38.0077 528.191 26.2238 539.974 26.2238 563.542L26.2238 655.265C26.2238 678.832 38.0077 690.616 61.5753 690.616Z" fill="url(#LinearGradient_6)" fill-rule="nonzero" opacity="1" stroke="none"/>
</g>
<g opacity="1">
<path d="M303.303 430.735L394.07 430.735C418.912 430.735 431.333 419.27 431.333 396.339L431.333 303.661C431.333 280.093 418.912 268.309 394.07 268.309L303.303 268.309C280.372 268.309 268.907 280.093 268.907 303.661L268.907 396.339C268.907 419.27 280.372 430.735 303.303 430.735Z" fill="#ffffff" fill-opacity="0.814246" fill-rule="nonzero" opacity="0" stroke="none"/>
<g opacity="1">
<path d="M637.719 528.189C661.287 528.189 673.058 539.96 673.059 563.528L673.059 655.276C673.059 678.844 661.287 690.616 637.719 690.616L547.886 690.616C523.045 690.616 510.631 678.844 510.631 655.276L510.631 563.528C510.631 539.96 523.045 528.189 547.886 528.189L637.719 528.189ZM395.994 528.189C418.925 528.189 430.376 539.96 430.376 563.528L430.376 655.276C430.376 678.844 418.925 690.616 395.994 690.616L305.203 690.616C280.362 690.616 267.948 678.844 267.948 655.276L267.948 563.528C267.948 539.96 280.362 528.189 305.203 528.189L395.994 528.189ZM153.311 528.189C176.242 528.189 187.693 539.96 187.693 563.528L187.693 655.276C187.693 678.844 176.242 690.616 153.311 690.616L63.478 690.616C38.6364 690.616 26.2232 678.844 26.2232 655.276L26.2232 563.528C26.2232 539.96 38.6364 528.189 63.478 528.189L153.311 528.189Z" fill="url(#LinearGradient_7)" fill-rule="nonzero" opacity="0" stroke="none"/>
<g opacity="1">
<path d="M60.6199 430.735L150.432 430.735C175.273 430.735 187.694 419.27 187.694 396.339L187.694 303.661C187.694 280.093 175.273 268.309 150.432 268.309L60.6199 268.309C37.6892 268.309 26.2238 280.093 26.2238 303.661L26.2238 396.339C26.2238 419.27 37.6892 430.735 60.6199 430.735Z" fill="url(#LinearGradient_8)" fill-rule="nonzero" opacity="1" stroke="none"/>
<path d="M545.986 430.735L635.798 430.735C660.639 430.735 673.06 419.27 673.06 396.339L673.06 303.661C673.06 280.093 660.639 268.309 635.798 268.309L545.986 268.309C522.418 268.309 510.635 280.093 510.635 303.661L510.635 396.339C510.635 419.27 522.418 430.735 545.986 430.735Z" fill="url(#LinearGradient_9)" fill-rule="nonzero" opacity="1" stroke="none"/>
</g>
<path d="M395.861 431.213L306.05 431.213C281.208 431.213 268.787 419.747 268.787 396.817L268.787 304.139C268.787 280.571 281.208 268.787 306.05 268.787L395.861 268.787C419.429 268.787 431.213 280.571 431.213 304.139L431.213 396.817C431.213 419.747 419.429 431.213 395.861 431.213Z" fill="url(#LinearGradient_10)" fill-rule="nonzero" opacity="1" stroke="none"/>
<g opacity="1">
<path d="M511.351 655.742L511.351 565.931C511.351 541.089 523.135 528.668 546.703 528.668L638.425 528.668C661.993 528.668 673.777 541.089 673.777 565.931L673.777 655.742C673.777 678.673 661.993 690.138 638.425 690.138L546.703 690.138C523.135 690.138 511.351 678.673 511.351 655.742Z" fill="url(#LinearGradient_11)" fill-rule="nonzero" opacity="1" stroke="none"/>
<path d="M269.146 562.587L269.146 653.354C269.146 678.195 280.93 690.616 304.497 690.616L396.22 690.616C419.788 690.616 431.571 678.195 431.571 653.354L431.571 562.587C431.571 539.656 419.788 528.191 396.22 528.191L304.497 528.191C280.93 528.191 269.146 539.656 269.146 562.587Z" fill="url(#LinearGradient_12)" fill-rule="nonzero" opacity="1" stroke="none"/>
<path d="M26.4627 655.265L26.4627 565.453C26.4627 540.611 38.2465 528.191 61.8142 528.191L153.537 528.191C177.105 528.191 188.888 540.611 188.888 565.453L188.888 655.265C188.888 678.832 177.105 690.616 153.537 690.616L61.8142 690.616C38.2465 690.616 26.4627 678.832 26.4627 655.265Z" fill="url(#LinearGradient_13)" fill-rule="nonzero" opacity="1" stroke="none"/>
</g>
<g opacity="1">
<path d="M511.112 44.2576L511.112 134.069C511.112 158.911 522.896 171.332 546.464 171.332L638.186 171.332C661.754 171.332 673.538 158.911 673.538 134.069L673.538 44.2576C673.538 21.3269 661.754 9.86153 638.186 9.86153L546.464 9.86153C522.896 9.86153 511.112 21.3269 511.112 44.2576Z" fill="url(#LinearGradient_14)" fill-rule="nonzero" opacity="1" stroke="none"/>
<path d="M268.907 137.413L268.907 46.6462C268.907 21.8046 280.691 9.3838 304.258 9.3838L395.981 9.3838C419.549 9.3838 431.333 21.8046 431.333 46.6462L431.333 137.413C431.333 160.344 419.549 171.809 395.981 171.809L304.258 171.809C280.691 171.809 268.907 160.344 268.907 137.413Z" fill="url(#LinearGradient_15)" fill-rule="nonzero" opacity="1" stroke="none"/>
<path d="M26.2238 44.7353L26.2238 134.547C26.2238 159.389 38.0077 171.809 61.5753 171.809L153.298 171.809C176.866 171.809 188.65 159.389 188.65 134.547L188.65 44.7353C188.65 21.1676 176.866 9.3838 153.298 9.3838L61.5753 9.3838C38.0077 9.3838 26.2238 21.1676 26.2238 44.7353Z" fill="url(#LinearGradient_16)" fill-rule="nonzero" opacity="1" stroke="none"/>
</g>
<path d="M61.5753 430.735L151.387 430.735C176.229 430.735 188.65 419.27 188.65 396.339L188.65 303.661C188.65 280.093 176.229 268.309 151.387 268.309L61.5753 268.309C38.0077 268.309 26.2238 280.093 26.2238 303.661L26.2238 396.339C26.2238 419.27 38.0077 430.735 61.5753 430.735ZM303.303 430.735L394.07 430.735C418.912 430.735 431.333 419.27 431.333 396.339L431.333 303.661C431.333 280.093 418.912 268.309 394.07 268.309L303.303 268.309C280.372 268.309 268.907 280.093 268.907 303.661L268.907 396.339C268.907 419.27 280.372 430.735 303.303 430.735ZM545.986 430.735L635.798 430.735C660.639 430.735 673.06 419.27 673.06 396.339L673.06 303.661C673.06 280.093 660.639 268.309 635.798 268.309L545.986 268.309C523.055 268.309 511.59 280.093 511.59 303.661L511.59 396.339C511.59 419.27 523.055 430.735 545.986 430.735Z" fill="url(#LinearGradient_17)" fill-rule="nonzero" opacity="0" stroke="none"/>
</g>
</g>
<g opacity="0">
<path d="M303.303 430.735L394.07 430.735C418.912 430.735 431.333 419.27 431.333 396.339L431.333 303.661C431.333 280.093 418.912 268.309 394.07 268.309L303.303 268.309C280.372 268.309 268.907 280.093 268.907 303.661L268.907 396.339C268.907 419.27 280.372 430.735 303.303 430.735Z" fill="#ffffff" fill-opacity="0.814246" fill-rule="nonzero" opacity="1" stroke="none"/>
<g opacity="1">
<path d="M637.719 528.189C661.287 528.189 673.058 539.96 673.059 563.528L673.059 655.276C673.059 678.844 661.287 690.616 637.719 690.616L547.886 690.616C523.045 690.616 510.631 678.844 510.631 655.276L510.631 563.528C510.631 539.96 523.045 528.189 547.886 528.189L637.719 528.189ZM395.994 528.189C418.925 528.189 430.376 539.96 430.376 563.528L430.376 655.276C430.376 678.844 418.925 690.616 395.994 690.616L305.203 690.616C280.362 690.616 267.948 678.844 267.948 655.276L267.948 563.528C267.948 539.96 280.362 528.189 305.203 528.189L395.994 528.189ZM153.311 528.189C176.242 528.189 187.693 539.96 187.693 563.528L187.693 655.276C187.693 678.844 176.242 690.616 153.311 690.616L63.478 690.616C38.6364 690.616 26.2232 678.844 26.2232 655.276L26.2232 563.528C26.2232 539.96 38.6364 528.189 63.478 528.189L153.311 528.189Z" fill="url(#LinearGradient_18)" fill-rule="nonzero" opacity="1" stroke="none"/>
<path d="M60.6199 430.735L150.432 430.735C175.273 430.735 187.694 419.27 187.694 396.339L187.694 303.661C187.694 280.093 175.273 268.309 150.432 268.309L60.6199 268.309C37.6892 268.309 26.2238 280.093 26.2238 303.661L26.2238 396.339C26.2238 419.27 37.6892 430.735 60.6199 430.735Z" fill="url(#LinearGradient_19)" fill-rule="nonzero" opacity="1" stroke="none"/>
<path d="M545.986 430.735L635.798 430.735C660.639 430.735 673.06 419.27 673.06 396.339L673.06 303.661C673.06 280.093 660.639 268.309 635.798 268.309L545.986 268.309C522.418 268.309 510.635 280.093 510.635 303.661L510.635 396.339C510.635 419.27 522.418 430.735 545.986 430.735Z" fill="url(#LinearGradient_20)" fill-rule="nonzero" opacity="1" stroke="none"/>
<path d="M637.709 430.735L547.897 430.735C523.055 430.735 510.635 419.27 510.635 396.339L510.635 303.661C510.635 280.093 523.055 268.309 547.897 268.309L637.709 268.309C661.276 268.309 673.06 280.093 673.06 303.661L673.06 396.339C673.06 419.27 661.276 430.735 637.709 430.735Z" fill="url(#LinearGradient_21)" fill-rule="nonzero" opacity="0" stroke="none"/>
<path d="M61.5753 171.809L151.387 171.809C176.229 171.809 188.65 160.026 188.65 136.458L188.65 44.7353C188.65 21.1676 176.229 9.3838 151.387 9.3838L61.5753 9.3838C38.0077 9.3838 26.2238 21.1676 26.2238 44.7353L26.2238 136.458C26.2238 160.026 38.0077 171.809 61.5753 171.809ZM303.303 171.809L394.07 171.809C418.912 171.809 431.333 160.026 431.333 136.458L431.333 44.7353C431.333 21.1676 418.912 9.3838 394.07 9.3838L303.303 9.3838C280.372 9.3838 268.907 21.1676 268.907 44.7353L268.907 136.458C268.907 160.026 280.372 171.809 303.303 171.809ZM545.986 171.809L635.798 171.809C660.639 171.809 673.06 160.026 673.06 136.458L673.06 44.7353C673.06 21.1676 660.639 9.3838 635.798 9.3838L545.986 9.3838C523.055 9.3838 511.59 21.1676 511.59 44.7353L511.59 136.458C511.59 160.026 523.055 171.809 545.986 171.809Z" fill="url(#LinearGradient_22)" fill-rule="nonzero" opacity="1" stroke="none"/>
<path d="M61.5753 430.735L151.387 430.735C176.229 430.735 188.65 419.27 188.65 396.339L188.65 303.661C188.65 280.093 176.229 268.309 151.387 268.309L61.5753 268.309C38.0077 268.309 26.2238 280.093 26.2238 303.661L26.2238 396.339C26.2238 419.27 38.0077 430.735 61.5753 430.735ZM303.303 430.735L394.07 430.735C418.912 430.735 431.333 419.27 431.333 396.339L431.333 303.661C431.333 280.093 418.912 268.309 394.07 268.309L303.303 268.309C280.372 268.309 268.907 280.093 268.907 303.661L268.907 396.339C268.907 419.27 280.372 430.735 303.303 430.735ZM545.986 430.735L635.798 430.735C660.639 430.735 673.06 419.27 673.06 396.339L673.06 303.661C673.06 280.093 660.639 268.309 635.798 268.309L545.986 268.309C523.055 268.309 511.59 280.093 511.59 303.661L511.59 396.339C511.59 419.27 523.055 430.735 545.986 430.735Z" fill="url(#LinearGradient_23)" fill-rule="nonzero" opacity="0" stroke="none"/>
</g>
</g>
</g>
</g>
</svg>
