<?xml version="1.0" encoding="UTF-8" standalone="no"?>
<!DOCTYPE svg PUBLIC "-//W3C//DTD SVG 1.1//EN" "http://www.w3.org/Graphics/SVG/1.1/DTD/svg11.dtd">
<!-- Created with Vectornator (http://vectornator.io/) -->
<svg height="100%" stroke-miterlimit="10" style="fill-rule:nonzero;clip-rule:evenodd;stroke-linecap:round;stroke-linejoin:round;" version="1.1" viewBox="0 0 647.554 681.232" width="100%" xml:space="preserve" xmlns="http://www.w3.org/2000/svg" xmlns:vectornator="http://vectornator.io" xmlns:xlink="http://www.w3.org/1999/xlink">
<defs>
<linearGradient gradientTransform="matrix(-895.782 -5.32676e-12 -5.01224e-12 895.782 836.364 634.772)" gradientUnits="userSpaceOnUse" id="LinearGradient" x1="0" x2="1" y1="0" y2="0">
<stop offset="0" stop-color="#666666" stop-opacity="0.15"/>
<stop offset="1" stop-color="#ffffff" stop-opacity="0.9"/>
</linearGradient>
<linearGradient gradientTransform="matrix(-380.176 -10.0376 -10.0376 380.176 274.913 373.159)" gradientUnits="userSpaceOnUse" id="LinearGradient_2" x1="0" x2="1" y1="0" y2="0">
<stop offset="0" stop-color="#666666" stop-opacity="0.15"/>
<stop offset="1" stop-color="#ffffff" stop-opacity="0.9"/>
</linearGradient>
<linearGradient gradientTransform="matrix(380.176 -10.0376 10.0376 380.176 370.97 373.159)" gradientUnits="userSpaceOnUse" id="LinearGradient_3" x1="0" x2="1" y1="0" y2="0">
<stop offset="0" stop-color="#666666" stop-opacity="0.15"/>
<stop offset="1" stop-color="#ffffff" stop-opacity="0.9"/>
</linearGradient>
<linearGradient gradientTransform="matrix(206.503 234.409 -234.409 206.503 222.425 212.85)" gradientUnits="userSpaceOnUse" id="LinearGradient_4" x1="0" x2="1" y1="0" y2="0">
<stop offset="0" stop-color="#e6e6e6" stop-opacity="0.8"/>
<stop offset="1" stop-color="#999999" stop-opacity="0.6"/>
</linearGradient>
<linearGradient gradientTransform="matrix(10.0376 -380.176 -380.176 -10.0376 533.32 794.196)" gradientUnits="userSpaceOnUse" id="LinearGradient_5" x1="0" x2="1" y1="0" y2="0">
<stop offset="0" stop-color="#666666" stop-opacity="0.15"/>
<stop offset="1" stop-color="#ffffff" stop-opacity="0.9"/>
</linearGradient>
<linearGradient gradientTransform="matrix(10.0376 380.176 -380.176 10.0376 291.115 405.365)" gradientUnits="userSpaceOnUse" id="LinearGradient_6" x1="0" x2="1" y1="0" y2="0">
<stop offset="0" stop-color="#666666" stop-opacity="0.15"/>
<stop offset="1" stop-color="#ffffff" stop-opacity="0.9"/>
</linearGradient>
<linearGradient gradientTransform="matrix(10.0376 -380.176 -380.176 -10.0376 48.4317 794.674)" gradientUnits="userSpaceOnUse" id="LinearGradient_7" x1="0" x2="1" y1="0" y2="0">
<stop offset="0" stop-color="#666666" stop-opacity="0.15"/>
<stop offset="1" stop-color="#ffffff" stop-opacity="0.9"/>
</linearGradient>
<linearGradient gradientTransform="matrix(10.0376 380.176 -380.176 10.0376 533.081 -112.964)" gradientUnits="userSpaceOnUse" id="LinearGradient_8" x1="0" x2="1" y1="0" y2="0">
<stop offset="0" stop-color="#666666" stop-opacity="0.15"/>
<stop offset="1" stop-color="#ffffff" stop-opacity="0.9"/>
</linearGradient>
<linearGradient gradientTransform="matrix(10.0376 -380.176 -380.176 -10.0376 290.876 275.867)" gradientUnits="userSpaceOnUse" id="LinearGradient_9" x1="0" x2="1" y1="0" y2="0">
<stop offset="0" stop-color="#666666" stop-opacity="0.15"/>
<stop offset="1" stop-color="#ffffff" stop-opacity="0.9"/>
</linearGradient>
<linearGradient gradientTransform="matrix(10.0376 380.176 -380.176 10.0376 48.1928 -113.442)" gradientUnits="userSpaceOnUse" id="LinearGradient_10" x1="0" x2="1" y1="0" y2="0">
<stop offset="0" stop-color="#666666" stop-opacity="0.15"/>
<stop offset="1" stop-color="#ffffff" stop-opacity="0.9"/>
</linearGradient>
<linearGradient gradientTransform="matrix(1404.64 1884.27 -1884.27 1404.64 -369.655 -285.662)" gradientUnits="userSpaceOnUse" id="LinearGradient_11" x1="0" x2="1" y1="0" y2="0">
<stop offset="0" stop-color="#666666" stop-opacity="0.15"/>
<stop offset="1" stop-color="#ffffff" stop-opacity="0.9"/>
</linearGradient>
</defs>
<g id="Layer">
<g opacity="1">
<path d="M611.496 518.805C635.064 518.805 646.835 530.577 646.835 554.144L646.835 645.893C646.835 669.46 635.064 681.232 611.496 681.232L521.663 681.232C496.821 681.232 484.408 669.46 484.408 645.893L484.408 554.144C484.408 530.577 496.821 518.805 521.663 518.805L611.496 518.805ZM369.771 518.805C392.701 518.805 404.152 530.577 404.152 554.144L404.152 645.893C404.152 669.46 392.701 681.232 369.771 681.232L278.98 681.232C254.139 681.232 241.725 669.46 241.725 645.893L241.725 554.144C241.725 530.577 254.139 518.805 278.98 518.805L369.771 518.805ZM127.088 518.805C150.018 518.805 161.469 530.577 161.469 554.144L161.469 645.893C161.469 669.46 150.018 681.232 127.088 681.232L37.2548 681.232C12.4132 681.232 2.27374e-13 669.46 0 645.893L0 554.144C7.79384e-06 530.577 12.4132 518.805 37.2548 518.805L127.088 518.805Z" fill="url(#LinearGradient)" fill-rule="nonzero" opacity="0" stroke="none"/>
<g opacity="1">
<path d="M34.3967 421.351L124.209 421.351C149.05 421.351 161.471 409.886 161.471 386.955L161.471 294.277C161.471 270.709 149.05 258.926 124.209 258.926L34.3967 258.926C11.466 258.926 0.000633344 270.709 0.000633344 294.277L0.000633344 386.955C0.000633344 409.886 11.466 421.351 34.3967 421.351Z" fill="url(#LinearGradient_2)" fill-rule="nonzero" opacity="1" stroke="none"/>
<path d="M519.763 421.351L609.575 421.351C634.416 421.351 646.837 409.886 646.837 386.955L646.837 294.277C646.837 270.709 634.416 258.926 609.575 258.926L519.763 258.926C496.195 258.926 484.411 270.709 484.411 294.277L484.411 386.955C484.411 409.886 496.195 421.351 519.763 421.351Z" fill="url(#LinearGradient_3)" fill-rule="nonzero" opacity="1" stroke="none"/>
</g>
<path d="M369.638 421.829L279.826 421.829C254.985 421.829 242.564 410.364 242.564 387.433L242.564 294.755C242.564 271.187 254.985 259.403 279.826 259.403L369.638 259.403C393.206 259.403 404.99 271.187 404.99 294.755L404.99 387.433C404.99 410.364 393.206 421.829 369.638 421.829Z" fill="url(#LinearGradient_4)" fill-rule="nonzero" opacity="0.95" stroke="none"/>
<g opacity="1">
<path d="M485.128 646.359L485.128 556.547C485.128 531.705 496.912 519.284 520.479 519.284L612.202 519.284C635.77 519.284 647.554 531.705 647.554 556.547L647.554 646.359C647.554 669.289 635.77 680.755 612.202 680.755L520.479 680.755C496.912 680.755 485.128 669.289 485.128 646.359Z" fill="url(#LinearGradient_5)" fill-rule="nonzero" opacity="1" stroke="none"/>
<path d="M242.923 553.203L242.923 643.97C242.923 668.812 254.706 681.232 278.274 681.232L369.997 681.232C393.564 681.232 405.348 668.812 405.348 643.97L405.348 553.203C405.348 530.272 393.564 518.807 369.997 518.807L278.274 518.807C254.706 518.807 242.923 530.272 242.923 553.203Z" fill="url(#LinearGradient_6)" fill-rule="nonzero" opacity="1" stroke="none"/>
<path d="M0.239495 645.881L0.239495 556.069C0.239495 531.228 12.0233 518.807 35.591 518.807L127.314 518.807C150.881 518.807 162.665 531.228 162.665 556.069L162.665 645.881C162.665 669.449 150.881 681.232 127.314 681.232L35.591 681.232C12.0233 681.232 0.239495 669.449 0.239495 645.881Z" fill="url(#LinearGradient_7)" fill-rule="nonzero" opacity="1" stroke="none"/>
</g>
<g opacity="1">
<path d="M484.889 34.8737L484.889 124.686C484.889 149.527 496.673 161.948 520.241 161.948L611.963 161.948C635.531 161.948 647.315 149.527 647.315 124.686L647.315 34.8737C647.315 11.9431 635.531 0.477723 611.963 0.477723L520.241 0.477723C496.673 0.477723 484.889 11.9431 484.889 34.8737Z" fill="url(#LinearGradient_8)" fill-rule="nonzero" opacity="1" stroke="none"/>
<path d="M242.684 128.03L242.684 37.2624C242.684 12.4208 254.468 0 278.035 0L369.758 0C393.326 0 405.109 12.4208 405.109 37.2624L405.109 128.03C405.109 150.96 393.326 162.426 369.758 162.426L278.035 162.426C254.468 162.426 242.684 150.96 242.684 128.03Z" fill="url(#LinearGradient_9)" fill-rule="nonzero" opacity="1" stroke="none"/>
<path d="M0.000633344 35.3515L0.000633344 125.163C0.000633344 150.005 11.7845 162.426 35.3521 162.426L127.075 162.426C150.642 162.426 162.426 150.005 162.426 125.163L162.426 35.3515C162.426 11.7838 150.642 2.27374e-13 127.075 2.27374e-13L35.3521 2.27374e-13C11.7845 2.27374e-13 0.000633344 11.7838 0.000633344 35.3515Z" fill="url(#LinearGradient_10)" fill-rule="nonzero" opacity="1" stroke="none"/>
</g>
<path d="M35.3521 421.351L125.164 421.351C150.006 421.351 162.426 409.886 162.426 386.955L162.426 294.277C162.426 270.709 150.006 258.926 125.164 258.926L35.3521 258.926C11.7845 258.926 0.000633344 270.709 0.000633344 294.277L0.000633344 386.955C0.000633344 409.886 11.7845 421.351 35.3521 421.351ZM277.08 421.351L367.847 421.351C392.689 421.351 405.109 409.886 405.109 386.955L405.109 294.277C405.109 270.709 392.689 258.926 367.847 258.926L277.08 258.926C254.149 258.926 242.684 270.709 242.684 294.277L242.684 386.955C242.684 409.886 254.149 421.351 277.08 421.351ZM519.763 421.351L609.575 421.351C634.416 421.351 646.837 409.886 646.837 386.955L646.837 294.277C646.837 270.709 634.416 258.926 609.575 258.926L519.763 258.926C496.832 258.926 485.367 270.709 485.367 294.277L485.367 386.955C485.367 409.886 496.832 421.351 519.763 421.351Z" fill="url(#LinearGradient_11)" fill-rule="nonzero" opacity="0" stroke="none"/>
</g>
</g>
</svg>