<svg xmlns="http://www.w3.org/2000/svg" xmlns:xlink="http://www.w3.org/1999/xlink" width="552" height="789" viewBox="0 0 552 789"><g id="Layer"><g id="Group"><linearGradient id="linearGradient1" x1="903.669" x2="-70.821" y1="424.543" y2="9.303" gradientUnits="userSpaceOnUse"><stop offset="0" stop-color="#7b7b7b" stop-opacity=".049"/><stop offset="1" stop-color="#fff" stop-opacity=".9"/></linearGradient><path id="Path" fill="url(#linearGradient1)" stroke="none" d="M 70.280998 0 C 48.280998 0 31.084997 5.924072 18.655996 17.781189 C 6.228003 29.638428 -2e-06 47.138428 -2e-06 70.281189 L -2e-06 80.5625 C -2e-06 105.134033 4.424002 128.437012 13.280996 150.437988 C 22.138998 172.437988 33.639 193.013 47.780998 212.156006 C 61.924004 231.299011 77.228004 249.070984 93.657005 265.5 C 110.084999 281.928986 126.008995 296.928986 141.437988 310.5 C 156.865997 324.071014 170.018005 336.147003 180.875 346.718994 C 188.875 354.147003 194.798981 361.420013 198.656006 368.562012 C 202.514008 375.704987 204.437988 384.128998 204.437988 393.843994 C 204.437988 403.558014 202.437988 412.058014 198.437988 419.343994 C 194.437988 426.628998 188.589996 433.856995 180.875 441 C 170.018005 451.571014 156.865997 463.799011 141.437988 477.656006 C 126.008995 491.513 110.084999 506.786011 93.655998 523.5 C 77.228004 540.213989 61.848 558.289978 47.562996 577.718994 C 33.277 597.146973 21.776999 617.723022 13.062994 639.437012 C 4.347998 661.151978 -2e-06 683.848022 -2e-06 707.562012 L -2e-06 718.718994 C -2e-06 741.862 6.228003 759.362 18.657003 771.218994 C 31.084997 783.075989 48.280998 789 70.280998 789 L 486.437988 789 C 507.580994 789 523.852966 783.22699 535.281006 771.656006 C 546.710022 760.085022 552.437988 743.705994 552.437988 722.562012 L 552.437988 707.562012 C 552.437988 683.848022 548.013977 661.151978 539.156006 639.437012 C 530.299011 617.723022 518.799011 597.146973 504.656982 577.718994 C 490.513977 558.289978 475.210022 540.213989 458.781006 523.5 C 442.352966 506.786011 426.429016 491.513 411 477.656006 C 395.572021 463.799011 382.419983 451.571991 371.562988 441 C 363.562988 433.856995 357.639008 426.628998 353.781006 419.343994 C 349.923981 412.058014 348 403.558014 348 393.843994 C 348 384.128998 349.923981 375.704987 353.781006 368.562012 C 357.639008 361.420013 363.562988 354.147003 371.562988 346.718994 C 382.419983 336.147003 395.572021 324.071014 411 310.5 C 426.429016 296.928986 442.352966 281.928986 458.781006 265.5 C 475.210022 249.070984 490.513977 231.299011 504.656982 212.156006 C 518.799011 193.013 530.299011 172.437988 539.156982 150.437988 C 548.013977 128.437988 552.437988 105.134033 552.437988 80.5625 L 552.437988 66.4375 C 552.437988 45.294617 546.710022 28.915222 535.281006 17.343811 C 523.852966 5.772278 507.580994 0 486.437988 0 L 70.280998 0 Z" opacity=".711"/><linearGradient id="linearGradient2" x1="100.933" x2="421.823" y1="-247.519" y2="339.483" gradientUnits="userSpaceOnUse"><stop offset="0" stop-color="#ccc" stop-opacity=".6"/><stop offset="1" stop-color="#999" stop-opacity="0"/></linearGradient><filter id="filter1" width="552" height="789" x="0" y="0" color-interpolation-filters="sRGB" filterUnits="userSpaceOnUse" primitiveUnits="userSpaceOnUse"><feGaussianBlur stdDeviation="5.016"/></filter><path id="path1" fill="url(#linearGradient2)" stroke="none" d="M 477.549011 63.271118 C 486.151001 63.271118 491.213013 66.7995 492.695984 73.75708 C 494.179016 80.714722 492.521973 89.572876 487.776001 100.356995 C 479.768005 117.403015 468.606995 135.924011 454.221008 155.927002 C 439.835022 175.929993 423.921021 195.565979 406.570007 214.872986 C 389.218018 234.18103 371.919983 251.833984 354.71698 267.837036 C 337.513 283.838989 321.945984 296.658997 308.005005 306.226013 C 294.063995 315.791992 283.412994 320.562988 275.997986 320.562988 C 268.878998 320.562988 258.373993 315.791992 244.432983 306.226013 C 230.492004 296.658997 214.924988 283.776001 197.721008 267.599976 C 180.518005 251.422974 163.220001 233.707031 145.867981 214.398987 C 128.516998 195.09198 112.603004 175.460022 98.217003 155.630981 C 83.831001 135.802002 72.670006 117.403015 64.661995 100.356995 C 59.916008 89.572876 58.258995 80.7146 59.741997 73.75708 C 61.224998 66.799622 66.286995 63.271118 74.889 63.271118 L 477.549011 63.271118 Z" filter="url(#filter1)"/></g></g></svg>