<?xml version="1.0" encoding="UTF-8" standalone="no"?>
<!DOCTYPE svg PUBLIC "-//W3C//DTD SVG 1.1//EN" "http://www.w3.org/Graphics/SVG/1.1/DTD/svg11.dtd">
<!-- Created with Vectornator (http://vectornator.io/) -->
<svg height="100%" stroke-miterlimit="10" style="fill-rule:nonzero;clip-rule:evenodd;stroke-linecap:round;stroke-linejoin:round;" version="1.1" viewBox="123.781 5.5 552.438 789" width="100%" xml:space="preserve" xmlns="http://www.w3.org/2000/svg" xmlns:vectornator="http://vectornator.io" xmlns:xlink="http://www.w3.org/1999/xlink">
<defs>
<linearGradient gradientTransform="matrix(320.89 587.002 147.603 -343.877 224.714 -242.019)" gradientUnits="userSpaceOnUse" id="LinearGradient" x1="0" x2="1" y1="0" y2="0">
<stop offset="0" stop-color="#cccccc" stop-opacity="0.6"/>
<stop offset="1" stop-color="#999999" stop-opacity="0"/>
</linearGradient>
<filter color-interpolation-filters="sRGB" filterUnits="userSpaceOnUse" height="282.37" id="Filter" width="459.085" x="170.458" y="56.2317">
<feGaussianBlur in="SourceGraphic" result="Blur" stdDeviation="5.01575"/>
</filter>
<linearGradient gradientTransform="matrix(-974.49 -415.24 -415.24 974.49 1027.45 430.043)" gradientUnits="userSpaceOnUse" id="LinearGradient_2" x1="0" x2="1" y1="0" y2="0">
<stop offset="0" stop-color="#7b7b7b" stop-opacity="0.0486722"/>
<stop offset="1" stop-color="#ffffff" stop-opacity="0.9"/>
</linearGradient>
</defs>
<g id="Layer">
<g opacity="1">
<g opacity="0.771357">
<clipPath clip-rule="nonzero" id="ClipPath">
<path d="M151.333 29.5358C140.709 29.5358 134.492 33.5728 132.661 41.5915C130.829 49.6102 132.826 59.8154 138.687 72.2443C148.579 91.8901 162.413 113.253 180.181 136.307C197.949 159.361 217.582 182.01 239.014 204.262C260.445 226.514 281.785 246.855 303.033 265.298C324.281 283.741 343.511 298.494 360.729 309.52C377.947 320.545 391.138 326.063 400.296 326.063C409.089 326.063 422.053 320.545 439.271 309.52C456.489 298.494 475.719 283.617 496.967 264.973C518.215 246.33 539.555 225.919 560.986 203.668C582.418 181.416 602.051 158.836 619.819 135.983C637.587 113.129 651.421 91.8901 661.313 72.2443C667.174 59.8154 669.171 49.6102 667.339 41.5915C665.508 33.5729 659.291 29.5358 648.667 29.5358L151.333 29.5358Z"/>
</clipPath>
<g clip-path="url(#ClipPath)">
<path d="M601.33 68.7711C609.932 68.7711 614.994 72.2995 616.477 79.2571C617.96 86.2147 616.303 95.0729 611.557 105.857C603.549 122.903 592.388 141.424 578.002 161.427C563.616 181.43 547.702 201.066 530.351 220.373C512.999 239.681 495.701 257.334 478.498 273.337C461.294 289.339 445.727 302.159 431.786 311.726C417.845 321.292 407.194 326.063 399.779 326.063C392.66 326.063 382.155 321.292 368.214 311.726C354.273 302.159 338.706 289.276 321.502 273.1C304.299 256.923 287.001 239.207 269.649 219.899C252.298 200.592 236.384 180.96 221.998 161.131C207.612 141.302 196.451 122.903 188.443 105.857C183.697 95.0729 182.04 86.2146 183.523 79.2571C185.006 72.2996 190.068 68.7711 198.67 68.7711L601.33 68.7711Z" fill="url(#LinearGradient)" fill-rule="nonzero" filter="url(#Filter)" opacity="1" stroke="none"/>
</g>
</g>
<path d="M194.062 5.5C172.062 5.5 154.866 11.4241 142.438 23.2812C130.009 35.1384 123.781 52.6384 123.781 75.7812L123.781 86.0625C123.781 110.634 128.205 133.937 137.062 155.938C145.92 177.938 157.42 198.513 171.562 217.656C185.705 236.799 201.009 254.571 217.438 271C233.866 287.429 249.79 302.429 265.219 316C280.647 329.571 293.799 341.647 304.656 352.219C312.656 359.647 318.58 366.92 322.438 374.062C326.295 381.205 328.219 389.629 328.219 399.344C328.219 409.058 326.219 417.558 322.219 424.844C318.219 432.129 312.371 439.357 304.656 446.5C293.799 457.071 280.647 469.299 265.219 483.156C249.79 497.013 233.866 512.286 217.438 529C201.009 545.714 185.629 563.79 171.344 583.219C157.058 602.647 145.558 623.223 136.844 644.937C128.129 666.652 123.781 689.348 123.781 713.062L123.781 724.219C123.781 747.362 130.009 764.862 142.438 776.719C154.866 788.576 172.062 794.5 194.062 794.5L610.219 794.5C631.362 794.5 647.634 788.728 659.062 777.156C670.491 765.585 676.219 749.205 676.219 728.062L676.219 713.062C676.219 689.348 671.795 666.652 662.938 644.937C654.08 623.223 642.58 602.647 628.438 583.219C614.295 563.79 598.991 545.714 582.562 529C566.134 512.286 550.21 497.013 534.781 483.156C519.353 469.299 506.201 457.071 495.344 446.5C487.344 439.357 481.42 432.129 477.563 424.844C473.705 417.558 471.781 409.058 471.781 399.344C471.781 389.629 473.705 381.205 477.562 374.062C481.42 366.92 487.344 359.647 495.344 352.219C506.201 341.647 519.353 329.571 534.781 316C550.21 302.429 566.134 287.429 582.562 271C598.991 254.571 614.295 236.799 628.438 217.656C642.58 198.513 654.08 177.938 662.938 155.938C671.795 133.938 676.219 110.634 676.219 86.0625L676.219 71.9375C676.219 50.7946 670.491 34.4152 659.062 22.8438C647.634 11.2723 631.362 5.5 610.219 5.5L194.062 5.5ZM399.781 511.25C406.647 511.25 416.53 515.404 429.438 523.719C442.345 532.034 456.759 543.154 472.688 557.063C488.616 570.971 504.621 586.313 520.688 603.094C536.753 619.875 551.493 636.958 564.812 654.344C578.132 671.729 588.46 687.81 595.875 702.625C600.269 711.998 601.811 719.703 600.438 725.75C599.064 731.797 594.371 734.875 586.406 734.875L574.094 734.875C571.822 735.468 569.305 735.781 566.5 735.781L234.344 735.781C231.485 735.781 228.939 735.449 226.625 734.875L213.594 734.875C205.629 734.875 200.936 731.797 199.562 725.75C198.189 719.703 199.731 711.998 204.125 702.625C211.54 687.81 221.868 671.828 235.188 654.594C248.507 637.359 263.246 620.281 279.312 603.5C295.379 586.719 311.384 571.341 327.313 557.281C343.241 543.222 357.655 532.034 370.563 523.719C383.47 515.404 393.19 511.25 399.781 511.25Z" fill="url(#LinearGradient_2)" fill-rule="nonzero" opacity="0.9" stroke="none"/>
</g>
</g>
</svg>