<svg xmlns="http://www.w3.org/2000/svg" xmlns:vectornator="http://vectornator.io" xmlns:xlink="http://www.w3.org/1999/xlink" style="fill-rule:nonzero;clip-rule:evenodd;stroke-linecap:round;stroke-linejoin:round" width="100%" height="100%" stroke-miterlimit="10" version="1.1" viewBox="123.781 5.5 552.438 789" xml:space="preserve"><defs><linearGradient id="LinearGradient" x1="0" x2="1" y1="0" y2="0" gradientTransform="matrix(-974.49 -415.24 -415.24 974.49 1027.45 430.043)" gradientUnits="userSpaceOnUse"><stop offset="0" stop-color="#7b7b7b" stop-opacity=".049"/><stop offset="1" stop-color="#fff" stop-opacity=".9"/></linearGradient><linearGradient id="LinearGradient_2" x1="0" x2="1" y1="0" y2="0" gradientTransform="matrix(320.89 587.002 147.603 -343.877 224.714 -242.019)" gradientUnits="userSpaceOnUse"><stop offset="0" stop-color="#ccc" stop-opacity=".6"/><stop offset="1" stop-color="#999" stop-opacity="0"/></linearGradient><filter id="Filter" width="459.085" height="282.37" x="170.458" y="56.232" color-interpolation-filters="sRGB" filterUnits="userSpaceOnUse"><feGaussianBlur in="SourceGraphic" result="Blur" stdDeviation="5.016"/></filter></defs><g id="Layer"><g opacity="1"><path fill="url(#LinearGradient)" fill-rule="nonzero" stroke="none" d="M194.062 5.5C172.062 5.5 154.866 11.4241 142.437 23.2812C130.009 35.1384 123.781 52.6384 123.781 75.7812L123.781 86.0625C123.781 110.634 128.205 133.937 137.062 155.938C145.92 177.938 157.42 198.513 171.562 217.656C185.705 236.799 201.009 254.571 217.438 271C233.866 287.429 249.79 302.429 265.219 316C280.647 329.571 293.799 341.647 304.656 352.219C312.656 359.647 318.58 366.92 322.437 374.062C326.295 381.205 328.219 389.629 328.219 399.344C328.219 409.058 326.219 417.558 322.219 424.844C318.219 432.129 312.371 439.357 304.656 446.5C293.799 457.071 280.647 469.299 265.219 483.156C249.79 497.013 233.866 512.286 217.437 529C201.009 545.714 185.629 563.79 171.344 583.219C157.058 602.647 145.558 623.223 136.844 644.937C128.129 666.652 123.781 689.348 123.781 713.062L123.781 724.219C123.781 747.362 130.009 764.862 142.438 776.719C154.866 788.576 172.062 794.5 194.062 794.5L610.219 794.5C631.362 794.5 647.634 788.727 659.062 777.156C670.491 765.585 676.219 749.206 676.219 728.062L676.219 713.062C676.219 689.348 671.795 666.652 662.937 644.937C654.08 623.223 642.58 602.647 628.438 583.219C614.295 563.79 598.991 545.714 582.562 529C566.134 512.286 550.21 497.013 534.781 483.156C519.353 469.299 506.201 457.072 495.344 446.5C487.344 439.357 481.42 432.129 477.562 424.844C473.705 417.558 471.781 409.058 471.781 399.344C471.781 389.629 473.705 381.205 477.562 374.062C481.42 366.92 487.344 359.647 495.344 352.219C506.201 341.647 519.353 329.571 534.781 316C550.21 302.429 566.134 287.429 582.562 271C598.991 254.571 614.295 236.799 628.438 217.656C642.58 198.513 654.08 177.938 662.938 155.938C671.795 133.938 676.219 110.634 676.219 86.0625L676.219 71.9375C676.219 50.7946 670.491 34.4152 659.062 22.8438C647.634 11.2723 631.362 5.5 610.219 5.5L194.062 5.5Z" opacity=".711"/><path fill="url(#LinearGradient_2)" fill-rule="nonzero" stroke="none" d="M601.33 68.7711C609.932 68.7711 614.994 72.2995 616.477 79.2571C617.96 86.2147 616.303 95.0729 611.557 105.857C603.549 122.903 592.388 141.424 578.002 161.427C563.616 181.43 547.702 201.066 530.351 220.373C512.999 239.681 495.701 257.334 478.498 273.337C461.294 289.339 445.727 302.159 431.786 311.726C417.845 321.292 407.194 326.063 399.779 326.063C392.66 326.063 382.155 321.292 368.214 311.726C354.273 302.159 338.706 289.276 321.502 273.1C304.299 256.923 287.001 239.207 269.649 219.899C252.298 200.592 236.384 180.96 221.998 161.131C207.612 141.302 196.451 122.903 188.443 105.857C183.697 95.0729 182.04 86.2146 183.523 79.2571C185.006 72.2996 190.068 68.7711 198.67 68.7711L601.33 68.7711Z" filter="url(#Filter)" opacity="1"/></g></g></svg>