<?xml version="1.0" encoding="UTF-8" standalone="no"?>
<!DOCTYPE svg PUBLIC "-//W3C//DTD SVG 1.1//EN" "http://www.w3.org/Graphics/SVG/1.1/DTD/svg11.dtd">
<!-- Created with Vectornator (http://vectornator.io/) -->
<svg height="100%" stroke-miterlimit="10" style="fill-rule:nonzero;clip-rule:evenodd;stroke-linecap:round;stroke-linejoin:round;" version="1.1" viewBox="140.906 29.9688 518.188 740.062" width="100%" xml:space="preserve" xmlns="http://www.w3.org/2000/svg" xmlns:vectornator="http://vectornator.io" xmlns:xlink="http://www.w3.org/1999/xlink">
<defs>
<linearGradient gradientTransform="matrix(711.813 -492.583 492.583 711.813 -0.486928 810.609)" gradientUnits="userSpaceOnUse" id="LinearGradient" x1="0" x2="1" y1="0" y2="0">
<stop offset="0" stop-color="#f5cc00" stop-opacity="0.6"/>
<stop offset="1" stop-color="#ffd500" stop-opacity="0.2"/>
</linearGradient>
<linearGradient gradientTransform="matrix(711.813 -492.583 492.583 711.813 -0.486928 810.609)" gradientUnits="userSpaceOnUse" id="LinearGradient_2" x1="0" x2="1" y1="0" y2="0">
<stop offset="0" stop-color="#f5cc00" stop-opacity="0.6"/>
<stop offset="1" stop-color="#ffd500" stop-opacity="0.2"/>
</linearGradient>
</defs>
<g id="Layer">
<g opacity="1">
<path d="M206.812 29.9688C186.176 29.9688 170.064 35.5029 158.406 46.625C146.748 57.7472 140.906 74.1667 140.906 95.875L140.906 105.531C140.906 117.055 141.955 128.262 144.031 139.187C145.046 144.446 146.268 149.637 147.781 154.781C149.376 160.292 151.222 165.715 153.375 171.062C161.683 191.699 172.453 211.012 185.719 228.969C198.985 246.925 213.34 263.59 228.75 279C244.16 294.678 259.09 309.002 273.563 322C288.035 334.998 300.378 346.459 310.563 356.375C317.799 363.075 323.279 369.854 327.031 376.687C330.695 383.36 332.539 391.155 332.625 400C332.539 408.845 330.695 416.64 327.031 423.312C323.279 430.147 317.799 436.925 310.563 443.625C300.378 453.541 288.035 465.002 273.563 478C259.09 490.998 244.16 505.322 228.75 521C213.34 536.41 198.985 553.075 185.719 571.031C172.453 588.988 161.683 608.301 153.375 628.938C151.222 634.285 149.376 639.708 147.781 645.219C146.299 650.342 145.031 655.549 144.031 660.812C141.955 671.738 140.906 682.945 140.906 694.469L140.906 704.125C140.906 725.833 146.748 742.253 158.406 753.375C170.064 764.497 186.176 770.031 206.813 770.031L597.188 770.031C617.02 770.031 632.28 764.635 643 753.781C653.72 742.927 659.094 727.551 659.094 707.719L659.094 694.469C659.094 688.707 658.831 683.019 658.313 677.406C658.016 674.203 657.434 671.092 656.969 667.938C654.989 654.51 651.671 641.471 646.625 628.938C638.317 608.301 627.547 588.988 614.281 571.031C601.015 553.075 586.66 536.41 571.25 521C555.84 505.322 540.91 490.998 526.438 478C511.965 465.002 499.622 453.541 489.438 443.625C481.933 436.925 476.368 430.147 472.75 423.312C469.217 416.64 467.458 408.845 467.375 400C467.458 391.155 469.217 383.36 472.75 376.687C476.368 369.853 481.933 363.075 489.438 356.375C499.622 346.459 511.965 334.998 526.438 322C540.91 309.002 555.84 294.678 571.25 279C586.66 263.59 601.015 246.925 614.281 228.969C627.547 211.012 638.317 191.699 646.625 171.062C651.671 158.529 654.989 145.49 656.969 132.062C657.434 128.908 658.016 125.797 658.312 122.594C658.831 116.981 659.094 111.293 659.094 105.531L659.094 92.2812C659.094 72.449 653.72 57.0728 643 46.2188C632.28 35.3646 617.02 29.9688 597.188 29.9688L206.812 29.9688ZM244.625 85.0312L556.187 85.0312C558.819 85.0313 561.181 85.3184 563.312 85.875L574.844 85.875C582.314 85.875 586.712 88.7651 588 94.4375C589.288 100.11 587.841 107.333 583.719 116.125C576.763 130.022 567.088 145.13 554.594 161.437C542.1 177.745 528.289 193.759 513.219 209.5C498.148 225.241 483.129 239.641 468.188 252.688C453.246 265.734 439.733 276.138 427.625 283.937C415.517 291.737 406.221 295.656 399.781 295.656C393.599 295.656 384.483 291.737 372.375 283.937C360.267 276.138 346.754 265.657 331.813 252.469C316.871 239.281 301.851 224.866 286.781 209.125C271.711 193.384 257.9 177.354 245.406 161.187C232.912 145.021 223.237 130.022 216.281 116.125C212.159 107.333 210.712 100.11 212 94.4375C213.288 88.7652 217.685 85.8749 225.156 85.875L237.375 85.875C239.545 85.3363 241.944 85.0313 244.625 85.0312ZM399.781 504.344C406.221 504.344 415.517 508.263 427.625 516.062C439.733 523.862 453.246 534.266 468.188 547.312C483.129 560.359 498.148 574.759 513.219 590.5C528.289 606.241 542.1 622.255 554.594 638.562C567.088 654.87 576.763 669.978 583.719 683.875C587.841 692.667 589.288 699.89 588 705.562C586.712 711.235 582.314 714.125 574.844 714.125L563.313 714.125C561.181 714.682 558.818 714.968 556.188 714.969L244.625 714.969C241.944 714.969 239.545 714.664 237.375 714.125L225.156 714.125C217.685 714.125 213.288 711.235 212 705.562C210.712 699.89 212.159 692.667 216.281 683.875C223.237 669.978 232.912 654.978 245.406 638.812C257.9 622.646 271.711 606.615 286.781 590.875C301.851 575.134 316.871 560.719 331.813 547.531C346.754 534.343 360.267 523.862 372.375 516.062C384.483 508.263 393.599 504.344 399.781 504.344Z" fill="url(#LinearGradient)" fill-rule="nonzero" opacity="0.777778" stroke="none"/>
<path d="M244.625 85.0312C241.944 85.0312 239.545 85.3364 237.375 85.875L225.156 85.875C217.685 85.8749 213.288 88.7652 212 94.4375C210.712 100.11 212.159 107.333 216.281 116.125C223.237 130.022 232.912 145.022 245.406 161.187C257.9 177.354 271.711 193.384 286.781 209.125C301.851 224.866 316.871 239.281 331.813 252.469C346.754 265.657 360.267 276.138 372.375 283.937C384.483 291.737 393.599 295.656 399.781 295.656C406.221 295.656 415.517 291.737 427.625 283.937C439.733 276.138 453.246 265.734 468.188 252.688C483.129 239.641 498.148 225.241 513.219 209.5C528.289 193.759 542.1 177.745 554.594 161.437C567.088 145.13 576.763 130.022 583.719 116.125C587.841 107.333 589.288 100.11 588 94.4375C586.712 88.7651 582.314 85.875 574.844 85.875L563.312 85.875C561.181 85.3184 558.818 85.0313 556.188 85.0312L244.625 85.0312ZM399.781 504.344C393.599 504.344 384.483 508.263 372.375 516.062C360.267 523.862 346.754 534.343 331.813 547.531C316.871 560.719 301.851 575.134 286.781 590.875C271.711 606.616 257.9 622.646 245.406 638.812C232.912 654.978 223.237 669.978 216.281 683.875C212.159 692.667 210.712 699.89 212 705.562C213.288 711.235 217.685 714.125 225.156 714.125L237.375 714.125C239.545 714.664 241.944 714.969 244.625 714.969L556.188 714.969C558.819 714.969 561.181 714.681 563.313 714.125L574.844 714.125C582.314 714.125 586.712 711.235 588 705.562C589.288 699.89 587.841 692.667 583.719 683.875C576.763 669.978 567.088 654.87 554.594 638.562C542.1 622.255 528.289 606.241 513.219 590.5C498.148 574.759 483.129 560.359 468.188 547.312C453.246 534.266 439.733 523.862 427.625 516.062C415.517 508.263 406.221 504.344 399.781 504.344Z" fill="url(#LinearGradient_2)" fill-rule="nonzero" opacity="1" stroke="none"/>
</g>
</g>
</svg>
