<?xml version="1.0" encoding="UTF-8"?>
<!-- Generated by com.apple.automator.actionLoader.x86_64 2.10 -->
<svg width="555" height="791" viewBox="0 0 555 791" xmlns="http://www.w3.org/2000/svg" xmlns:xlink="http://www.w3.org/1999/xlink">
    <g id="Layer">
        <linearGradient id="linearGradient1" x1="633.34" y1="586.872" x2="-155.73" y2="93.234" gradientUnits="userSpaceOnUse">
            <stop offset="1e-05" stop-color="#7b7b7b" stop-opacity="0.048672"/>
            <stop offset="1" stop-color="#ffffff" stop-opacity="1"/>
        </linearGradient>
        <filter id="filter1" x="0" y="0" width="555" height="791" filterUnits="userSpaceOnUse" primitiveUnits="userSpaceOnUse" color-interpolation-filters="sRGB">
            <feGaussianBlur stdDeviation="0.594398"/>
        </filter>
        <path id="Path" fill="url(#linearGradient1)" stroke="none" filter="url(#filter1)" d="M 277.486023 528.942993 C 273.200012 528.942993 269.128998 530.156982 265.271027 532.584961 C 261.414001 535.014038 257.200012 538.370972 252.628983 542.656982 L 98.770996 693.942993 C 90.770996 701.942993 88.270996 710.084961 91.270996 718.370972 C 94.270996 726.656982 101.199997 730.799988 112.056992 730.799988 L 444.200012 730.799988 C 454.770996 730.799988 461.557007 726.584961 464.557007 718.156982 C 467.557007 709.727966 465.200012 701.656982 457.486023 693.942993 L 302.771027 542.656982 C 298.486023 538.656982 294.343018 535.370972 290.343018 532.800049 C 286.343018 530.228027 282.057007 528.942993 277.486023 528.942993 Z M 487.914001 789.513977 L 71.770996 789.513977 C 49.771 789.513977 32.556995 783.584961 20.129002 771.727966 C 7.7 759.870972 1.486003 742.370972 1.486003 719.227966 L 1.486003 708.084961 C 1.486003 684.370972 5.843005 661.656982 14.556994 639.942993 C 23.271 618.228027 34.771 597.656982 49.056995 578.228027 C 63.343006 558.800049 78.699997 540.728027 95.128998 524.014038 C 111.556992 507.300018 127.485992 492.014008 142.913986 478.157013 C 158.343002 464.300018 171.486008 452.085022 182.343002 441.514008 C 190.056992 434.371002 195.913986 427.157013 199.913986 419.871002 C 203.913986 412.585022 205.913986 404.085022 205.913986 394.371002 C 205.913986 384.657013 203.986008 376.227997 200.128983 369.085022 C 196.271011 361.942993 190.343002 354.657013 182.343002 347.227997 C 171.486008 336.657013 158.343002 324.585022 142.913986 311.014008 C 127.485992 297.442993 111.556992 282.442993 95.128998 266.013977 C 78.699997 249.585022 63.414005 231.799988 49.271 212.656982 C 35.129002 193.513977 23.629002 172.942993 14.770999 150.942993 C 5.914004 128.942993 1.486003 105.656982 1.486003 81.085388 L 1.486003 70.799683 C 1.486003 47.656921 7.7 30.156921 20.129002 18.299683 C 32.556995 6.442627 49.771 0.513977 71.770996 0.513977 L 487.914001 0.513977 C 509.057007 0.513977 525.343018 6.299683 536.770996 17.871094 C 548.200012 29.442627 553.914001 45.799683 553.914001 66.942627 L 553.914001 81.085388 C 553.914001 105.656982 549.486023 128.942993 540.629028 150.942993 C 531.770996 172.942993 520.270996 193.513977 506.129028 212.656982 C 491.986023 231.799988 476.700012 249.585022 460.270996 266.013977 C 443.843018 282.442993 427.914001 297.442993 412.486023 311.014008 C 397.057007 324.585022 383.914001 336.657013 373.057007 347.227997 C 365.057007 354.657013 359.128998 361.942993 355.271027 369.085022 C 351.414001 376.227997 349.486023 384.657013 349.486023 394.371002 C 349.486023 404.085022 351.414001 412.585022 355.271027 419.871002 C 359.128998 427.157013 365.057007 434.371002 373.057007 441.514008 C 383.914001 452.085022 397.057007 464.300018 412.486023 478.157013 C 427.914001 492.014008 443.843018 507.300018 460.270996 524.014038 C 476.700012 540.728027 491.986023 558.800049 506.129028 578.228027 C 520.270996 597.656982 531.770996 618.228027 540.629028 639.942993 C 549.486023 661.656982 553.914001 684.370972 553.914001 708.084961 L 553.914001 723.084961 C 553.914001 744.227966 548.200012 760.584961 536.770996 772.156982 C 525.343018 783.727966 509.057007 789.513977 487.914001 789.513977 Z"/>
    </g>
</svg>
