<svg xmlns="http://www.w3.org/2000/svg" xmlns:xlink="http://www.w3.org/1999/xlink" width="100%" height="100%" stroke-miterlimit="10" version="1.1" viewBox="0 0 800 800" xml:space="preserve" style="fill-rule:nonzero;clip-rule:evenodd;stroke-linecap:round;stroke-linejoin:round"><defs><linearGradient id="LinearGradient" x1="0" x2="1" y1="0" y2="0" gradientTransform="matrix(520.411 684.824 -698.112 510.505 143.591 34.1266)" gradientUnits="userSpaceOnUse"><stop offset="0" stop-color="#020066" stop-opacity=".247"/><stop offset="1" stop-color="#00eaff" stop-opacity=".9"/></linearGradient></defs><path fill="#00000000" fill-rule="nonzero" stroke="none" d="M0 0L800 0L800 800L0 800L0 0Z" opacity="1"/><g id="Layer-1"><path fill="url(#LinearGradient)" fill-rule="nonzero" stroke="none" d="M281.393 32.997C221.049 35.8233 172.913 85.4964 172.913 146.54L172.913 653.205C172.913 716.064 223.889 767.003 286.748 767.003L513.252 767.003C576.111 767.003 627.087 716.064 627.087 653.205L627.087 146.54C627.087 85.4964 578.951 35.8233 518.607 32.997L518.607 58.6781C518.607 86.7601 495.873 109.53 467.791 109.53L332.209 109.53C304.127 109.53 281.393 86.76 281.393 58.6781L281.393 32.997ZM400 546.765C434.764 546.765 462.946 573.93 462.946 607.452C462.946 640.975 434.764 668.176 400 668.176C365.236 668.176 337.054 640.975 337.054 607.452C337.054 573.93 365.236 546.765 400 546.765Z" opacity="1" transform="matrix(1 0 0 1 0 0)"/></g></svg>