<svg height="100%" stroke-miterlimit="10" style="fill-rule:nonzero;clip-rule:evenodd;stroke-linecap:round;stroke-linejoin:round;" version="1.1" viewBox="0 0 100 100" width="100%" xml:space="preserve" xmlns="http://www.w3.org/2000/svg" xmlns:vectornator="http://vectornator.io" xmlns:xlink="http://www.w3.org/1999/xlink">
<path d="M91.458 36.338c-0.071 -0.454 -0.104 -0.7 -0.104 -0.7l-0.108 0.025C89.438 27.192 81.925 20.833 72.917 20.833 62.563 20.833 54.167 29.229 54.167 39.583s8.396 18.75 18.75 18.75c0.929 0 1.821 -0.142 2.708 -0.271 -0.288 0.967 -0.583 1.95 -1.058 2.833 -0.475 1.283 -1.217 2.396 -1.954 3.517 -0.617 1.212 -1.704 2.033 -2.504 3.071 -0.838 1.008 -1.979 1.679 -2.883 2.517 -0.888 0.875 -2.05 1.313 -2.975 1.929 -0.967 0.554 -1.808 1.167 -2.708 1.458 -0.867 0.358 -1.625 0.667 -2.246 0.925 -1.258 0.521 -1.975 0.821 -1.975 0.821l2.017 8.079c0 0 0.908 -0.217 2.488 -0.6 0.796 -0.2 1.767 -0.433 2.871 -0.713 1.129 -0.208 2.333 -0.779 3.675 -1.3 1.321 -0.596 2.858 -0.992 4.283 -1.946 1.433 -0.908 3.088 -1.667 4.546 -2.883 1.413 -1.254 3.117 -2.342 4.375 -3.933 1.375 -1.492 2.733 -3.058 3.788 -4.842 1.221 -1.7 2.05 -3.567 2.925 -5.413 0.792 -1.846 1.429 -3.733 1.95 -5.567 0.988 -3.675 1.429 -7.167 1.6 -10.154 0.142 -2.992 0.058 -5.479 -0.117 -7.279C91.658 37.733 91.546 36.904 91.458 36.338zM45.625 36.338c-0.071 -0.454 -0.104 -0.7 -0.104 -0.7l-0.108 0.025C43.604 27.192 36.092 20.833 27.083 20.833 16.729 20.833 8.333 29.229 8.333 39.583S16.729 58.333 27.083 58.333c0.929 0 1.821 -0.142 2.708 -0.271 -0.288 0.967 -0.583 1.95 -1.058 2.833 -0.475 1.283 -1.217 2.396 -1.954 3.517 -0.617 1.212 -1.704 2.033 -2.504 3.071 -0.838 1.008 -1.979 1.679 -2.883 2.517 -0.888 0.875 -2.05 1.313 -2.975 1.929 -0.967 0.554 -1.808 1.167 -2.708 1.458 -0.867 0.358 -1.625 0.667 -2.246 0.925C12.208 74.825 11.492 75.125 11.492 75.125l2.017 8.079c0 0 0.908 -0.217 2.488 -0.6 0.796 -0.2 1.767 -0.433 2.871 -0.713 1.129 -0.208 2.333 -0.779 3.675 -1.3 1.321 -0.596 2.858 -0.992 4.283 -1.946 1.433 -0.908 3.088 -1.667 4.546 -2.883 1.413 -1.254 3.117 -2.342 4.375 -3.933 1.375 -1.492 2.733 -3.058 3.788 -4.842 1.221 -1.7 2.05 -3.567 2.925 -5.413 0.792 -1.846 1.429 -3.733 1.95 -5.567 0.988 -3.675 1.429 -7.167 1.6 -10.154 0.142 -2.992 0.058 -5.479 -0.117 -7.279C45.825 37.733 45.713 36.904 45.625 36.338z" fill="#7600FF"/>
</svg>