<svg xmlns="http://www.w3.org/2000/svg" xmlns:xlink="http://www.w3.org/1999/xlink" style="fill-rule:nonzero;clip-rule:evenodd;stroke-linecap:round;stroke-linejoin:round" width="465.781" height="620.16" stroke-miterlimit="10" version="1.1" viewBox="0 0 465.781 620.16" xml:space="preserve"><defs><linearGradient id="LinearGradient" x1="0" x2="1" y1="0" y2="0" gradientTransform="matrix(-5.37343 -421.43 -290.324 6.39639 215.705 599.521)" gradientUnits="userSpaceOnUse"><stop offset="0" stop-color="#fff"/><stop offset=".666" stop-color="#b3b3b3" stop-opacity=".4"/><stop offset="1" stop-color="#b3b3b3" stop-opacity=".2"/></linearGradient><linearGradient id="LinearGradient_2" x1="0" x2="1" y1="0" y2="0" gradientTransform="matrix(-5.37343 -421.43 -290.324 6.39639 215.705 599.521)" gradientUnits="userSpaceOnUse"><stop offset="0" stop-color="#fff"/><stop offset=".666" stop-color="#b3b3b3" stop-opacity=".4"/><stop offset="1" stop-color="#b3b3b3" stop-opacity=".2"/></linearGradient><filter id="Filter" width="465.781" height="491.75" x="84.909" y="148.629" color-interpolation-filters="sRGB" filterUnits="userSpaceOnUse"><feGaussianBlur in="SourceGraphic" result="Blur" stdDeviation="10"/></filter><linearGradient id="LinearGradient_3" x1="0" x2="1" y1="0" y2="0" gradientTransform="matrix(-11.5145 376.908 392.366 -1.80276 309.356 -62.9465)" gradientUnits="userSpaceOnUse"><stop offset="0" stop-color="#fff" stop-opacity=".65"/><stop offset="1" stop-color="#b3b3b3" stop-opacity=".6"/></linearGradient><linearGradient id="LinearGradient_4" x1="0" x2="1" y1="0" y2="0" gradientTransform="matrix(2.90257 108.881 -113.331 -0.961402 316.68 250.929)" gradientUnits="userSpaceOnUse"><stop offset="0" stop-color="#fff" stop-opacity=".9"/><stop offset=".997" stop-color="#b3b3b3" stop-opacity=".3"/></linearGradient><linearGradient id="LinearGradient_5" x1="0" x2="1" y1="0" y2="0" gradientTransform="matrix(-118.906 111.96 80.4562 87.8036 423.396 321.235)" gradientUnits="userSpaceOnUse"><stop offset="0" stop-color="#fff"/><stop offset="1" stop-color="#b3b3b3" stop-opacity=".6"/></linearGradient><linearGradient id="LinearGradient_6" x1="0" x2="1" y1="0" y2="0" gradientTransform="matrix(-118.906 111.96 80.4562 87.8036 423.396 321.235)" gradientUnits="userSpaceOnUse"><stop offset="0" stop-color="#fff" stop-opacity=".92"/><stop offset=".57" stop-color="#efefef" stop-opacity=".7"/><stop offset="1" stop-color="#b3b3b3" stop-opacity="0"/></linearGradient><linearGradient id="LinearGradient_7" x1="0" x2="1" y1="0" y2="0" gradientTransform="matrix(-106.23 -106.516 -78.7133 76.4013 302.176 403.478)" gradientUnits="userSpaceOnUse"><stop offset="0" stop-color="#fff"/><stop offset="1" stop-color="#b3b3b3" stop-opacity=".6"/></linearGradient></defs><path fill="#fff" fill-rule="nonzero" stroke="none" d="M0 0L465.781 0L465.781 620.16L0 620.16L0 0Z" opacity="1"/><clipPath id="ArtboardFrame"><rect width="465.781" height="620.16" x="0" y="0"/></clipPath><g id="square.and.arrow.down.fill-3" clip-path="url(#ArtboardFrame)"><g opacity="1"><path fill="url(#LinearGradient)" fill-rule="nonzero" stroke="none" d="M183.443 173.629C158.927 173.629 140.505 180.84 128.247 195.122C115.989 209.404 109.909 230.845 109.909 259.408L109.909 529.605C109.909 558.163 115.989 579.608 128.247 593.89C140.505 608.172 158.927 615.379 183.443 615.379L452.158 615.379C476.674 615.379 495.095 608.26 507.356 593.89C519.611 579.515 525.691 557.981 525.691 529.605L525.691 259.408C525.691 231.03 519.611 209.688 507.356 195.314C495.096 180.94 476.674 173.629 452.158 173.629L352.479 173.629L283.122 173.629L183.443 173.629Z" opacity=".4"/><path fill="url(#LinearGradient_2)" fill-rule="nonzero" stroke="none" d="M183.443 173.629C158.927 173.629 140.505 180.84 128.247 195.122C115.989 209.404 109.909 230.845 109.909 259.408L109.909 529.605C109.909 558.163 115.989 579.608 128.247 593.89C140.505 608.172 158.927 615.379 183.443 615.379L452.158 615.379C476.674 615.379 495.095 608.26 507.356 593.89C519.611 579.515 525.691 557.981 525.691 529.605L525.691 259.408C525.691 231.03 519.611 209.688 507.356 195.314C495.096 180.94 476.674 173.629 452.158 173.629L352.479 173.629L283.122 173.629L183.443 173.629Z" filter="url(#Filter)" opacity=".4"/><g opacity="1"><path fill="url(#LinearGradient_3)" fill-rule="nonzero" stroke="none" d="M349.849 173.659L349.849 52.2686C349.849 34.5683 335.5 20.2194 317.8 20.2194L317.8 20.2194C300.1 20.2194 285.751 34.5683 285.751 52.2686L285.751 173.659L349.849 173.659Z" opacity="1"/><g opacity="1"><path fill="url(#LinearGradient_4)" fill-rule="nonzero" stroke="none" d="M317.8 374.398L349.849 342.684L349.849 299.999L349.849 173.659L285.751 173.659L285.751 299.999L285.751 342.684L317.8 374.398Z" opacity=".7"/><g opacity="1"><path fill="url(#LinearGradient_5)" fill-rule="nonzero" stroke="none" d="M416.887 288.446C409.306 288.444 401.665 291.36 395.858 297.11L349.847 342.699L300.388 391.654C299.4 392.633 298.94 393.861 298.117 394.935C289.147 406.647 289.612 423.284 300.388 433.964C311.997 445.468 330.747 445.464 342.361 433.964L437.831 339.419C449.601 327.765 449.596 308.769 437.831 297.11C432.027 291.357 424.467 288.447 416.887 288.446Z" opacity="0"/><path fill="url(#LinearGradient_6)" fill-rule="nonzero" stroke="none" d="M416.887 288.446C409.306 288.444 401.665 291.36 395.858 297.11L349.847 342.699L300.388 391.654C299.4 392.633 298.94 393.861 298.117 394.935C289.147 406.647 289.612 423.284 300.388 433.964C311.997 445.468 330.747 445.464 342.361 433.964L437.831 339.419C449.601 327.765 449.596 308.769 437.831 297.11C432.027 291.357 424.467 288.447 416.887 288.446Z" opacity=".7"/><path fill="url(#LinearGradient_7)" fill-rule="nonzero" stroke="none" d="M218.797 288.53C211.217 288.53 203.574 291.358 197.769 297.11C186.002 308.766 186.002 327.763 197.769 339.419L299.715 440.44C311.326 451.943 330.077 451.943 341.689 440.44C353.455 428.784 353.455 409.787 341.689 398.131L317.8 374.41L285.752 342.699L239.742 297.11C233.936 291.358 226.378 288.53 218.797 288.53Z" opacity="1"/></g></g></g></g></g></svg>