<svg xmlns="http://www.w3.org/2000/svg" xml:space="preserve" width="100%" height="100%" viewBox="0 0 100 100"><defs><filter id="a" width="30.929" height="33.386" x="-6.896" y="54.753" color-interpolation-filters="sRGB" filterUnits="userSpaceOnUse"><feDropShadow dx="0" dy=".509" flood-color="#000" flood-opacity=".45" in="SourceGraphic" result="Shadow" stdDeviation=".816"/></filter><filter id="c" width="104.796" height="50.605" x="-2.398" y="52.086" color-interpolation-filters="sRGB" filterUnits="userSpaceOnUse"><feDropShadow dx="0" dy=".293" flood-color="#000" flood-opacity=".6" in="SourceGraphic" result="Shadow" stdDeviation=".502"/></filter><filter id="d" width="13.287" height="6.165" x="31.732" y="83.827" color-interpolation-filters="sRGB" filterUnits="userSpaceOnUse"><feDropShadow dx="0" dy=".293" flood-color="#000" flood-opacity=".6" in="SourceGraphic" result="Shadow" stdDeviation=".502"/></filter><filter id="e" width="13.287" height="6.444" x="46.324" y="83.666" color-interpolation-filters="sRGB" filterUnits="userSpaceOnUse"><feDropShadow dx="0" dy=".293" flood-color="#000" flood-opacity=".6" in="SourceGraphic" result="Shadow" stdDeviation=".502"/></filter><filter id="f" width="13.287" height="12.318" x="31.732" y="80.142" color-interpolation-filters="sRGB" filterUnits="userSpaceOnUse"><feDropShadow dx="0" dy=".293" flood-color="#000" flood-opacity=".6" in="SourceGraphic" result="Shadow" stdDeviation=".502"/></filter><filter id="g" width="13.287" height="13.28" x="46.324" y="79.573" color-interpolation-filters="sRGB" filterUnits="userSpaceOnUse"><feDropShadow dx="0" dy=".293" flood-color="#000" flood-opacity=".6" in="SourceGraphic" result="Shadow" stdDeviation=".502"/></filter><filter id="h" width="13.287" height="13.28" x="61.613" y="79.106" color-interpolation-filters="sRGB" filterUnits="userSpaceOnUse"><feDropShadow dx="0" dy=".293" flood-color="#000" flood-opacity=".6" in="SourceGraphic" result="Shadow" stdDeviation=".502"/></filter><filter id="i" width="13.287" height="6.444" x="61.613" y="83.199" color-interpolation-filters="sRGB" filterUnits="userSpaceOnUse"><feDropShadow dx="0" dy=".293" flood-color="#000" flood-opacity=".6" in="SourceGraphic" result="Shadow" stdDeviation=".502"/></filter><filter id="j" width="30.249" height="33.178" x="74.329" y="58.588" color-interpolation-filters="sRGB" filterUnits="userSpaceOnUse"><feDropShadow dx="0" dy=".427" flood-color="#000" flood-opacity=".6" in="SourceGraphic" result="Shadow" stdDeviation=".731"/></filter><filter id="k" width="36.076" height="21.926" x="74.327" y="47.637" color-interpolation-filters="sRGB" filterUnits="userSpaceOnUse"><feDropShadow dx="0" dy=".427" flood-color="#000" flood-opacity=".6" in="SourceGraphic" result="Shadow" stdDeviation=".731"/></filter><filter id="l" width="23.851" height="20.294" x="90.683" y="50.678" color-interpolation-filters="sRGB" filterUnits="userSpaceOnUse"><feDropShadow dx="0" dy=".427" flood-color="#000" flood-opacity=".6" in="SourceGraphic" result="Shadow" stdDeviation=".731"/></filter><filter id="m" width="22.498" height="17.39" x="85.107" y="53.961" color-interpolation-filters="sRGB" filterUnits="userSpaceOnUse"><feDropShadow dx="0" dy=".427" flood-color="#000" flood-opacity=".6" in="SourceGraphic" result="Shadow" stdDeviation=".731"/></filter><filter id="o" width="24.287" height="6.916" x="76.739" y="41.035" color-interpolation-filters="sRGB" filterUnits="userSpaceOnUse"><feDropShadow dx="0" dy=".427" flood-color="#000" flood-opacity=".6" in="SourceGraphic" result="Shadow" stdDeviation=".731"/></filter><filter id="p" width="10.063" height="22.525" x="71.944" y="32.612" color-interpolation-filters="sRGB" filterUnits="userSpaceOnUse"><feDropShadow dx="0" dy=".427" flood-color="#000" flood-opacity=".6" in="SourceGraphic" result="Shadow" stdDeviation=".731"/></filter><filter id="q" width="54.123" height="58.589" x="26.952" y="11.12" color-interpolation-filters="sRGB" filterUnits="userSpaceOnUse"><feDropShadow dx="0" dy=".427" flood-color="#000" flood-opacity=".6" in="SourceGraphic" result="Shadow" stdDeviation=".731"/></filter><filter id="r" width="24.131" height="60.739" x="14.887" y="12.799" color-interpolation-filters="sRGB" filterUnits="userSpaceOnUse"><feDropShadow dx="0" dy=".427" flood-color="#000" flood-opacity=".6" in="SourceGraphic" result="Shadow" stdDeviation=".731"/></filter><filter id="s" width="14.401" height="14.9" x="61.45" y="30.168" color-interpolation-filters="sRGB" filterUnits="userSpaceOnUse"><feDropShadow dx="0" dy=".427" flood-color="#000" flood-opacity=".6" in="SourceGraphic" result="Shadow" stdDeviation=".42"/></filter><filter id="t" width="9.409" height="10.39" x="64.287" y="32.229" color-interpolation-filters="sRGB" filterUnits="userSpaceOnUse"><feDropShadow dx="0" dy=".427" flood-color="#000" flood-opacity=".6" in="SourceGraphic" result="Shadow" stdDeviation=".731"/></filter><filter id="u" width="18.384" height="18.997" x="44.324" y="25.902" color-interpolation-filters="sRGB" filterUnits="userSpaceOnUse"><feDropShadow dx="0" dy=".427" flood-color="#000" flood-opacity=".6" in="SourceGraphic" result="Shadow" stdDeviation=".731"/></filter><filter id="v" width="10.344" height="11.549" x="48.764" y="29.387" color-interpolation-filters="sRGB" filterUnits="userSpaceOnUse"><feDropShadow dx="0" dy=".427" flood-color="#000" flood-opacity=".6" in="SourceGraphic" result="Shadow" stdDeviation=".731"/></filter><filter id="w" width="36.164" height="8.192" x="35.434" y="44.95" color-interpolation-filters="sRGB" filterUnits="userSpaceOnUse"><feDropShadow dx="0" dy=".427" flood-color="#000" flood-opacity=".6" in="SourceGraphic" result="Shadow" stdDeviation=".42"/></filter><filter id="x" width="29.367" height="6.791" x="47.085" y="25.016" color-interpolation-filters="sRGB" filterUnits="userSpaceOnUse"><feDropShadow dx="0" dy=".427" flood-color="#000" flood-opacity=".6" in="SourceGraphic" result="Shadow" stdDeviation=".42"/></filter><filter id="y" width="16.299" height="5.627" x="1.362" y="35.769" color-interpolation-filters="sRGB" filterUnits="userSpaceOnUse"><feDropShadow dx="0" dy=".427" flood-color="#000" flood-opacity=".6" in="SourceGraphic" result="Shadow" stdDeviation=".731"/></filter><filter id="z" width="14.184" height="22.35" x="13.565" y="30.41" color-interpolation-filters="sRGB" filterUnits="userSpaceOnUse"><feDropShadow dx="0" dy=".427" flood-color="#000" flood-opacity=".6" in="SourceGraphic" result="Shadow" stdDeviation=".731"/></filter><linearGradient id="b" x1="0" x2="1" y1="0" y2="0" gradientTransform="rotate(-20.029 285.57 -19.028) scale(72.6272)" gradientUnits="userSpaceOnUse"><stop offset="0" stop-color="#f1b80d"/><stop offset="1" stop-color="#f3b756"/></linearGradient><linearGradient id="n" x1="0" x2="1" y1="0" y2="0" gradientTransform="rotate(-11.77 216.918 -67.863) scale(72.0417)" gradientUnits="userSpaceOnUse"><stop offset="0" stop-color="#f1b80d"/><stop offset="1" stop-color="#f3b756"/></linearGradient></defs><g stroke="#221e1e" stroke-linecap="round" stroke-linejoin="round"><g fill="#4698ef" stroke-width="2.095"><path d="M1.464 83.72C-1.921 78.175-.263 70.714 4.41 66.626c2.97-2.597 14.09-4.3 16.309-1.047 0 0-4.116 1.686-9.021 6.156C6.949 76.064 1.51 83.795 1.464 83.72Z"/><path d="M-.477 80.69C-4.242 75.411-3.447 68.268.54 64.33c2.534-2.502 12.848-4.203 15.277-1.109 0 0-3.709 1.64-7.875 5.946C3.907 73.335-.426 80.763-.478 80.69Z"/><path d="M-3.475 76.437c-3.147-4.469-2.32-10.632 1.201-14.1 2.237-2.204 11.176-3.871 13.213-1.256 0 0-3.235 1.485-6.918 5.272-3.566 3.668-7.453 10.145-7.496 10.084Z"/><path d="M-5.754 72.796c-3.147-4.469-3.137-8.482-.13-12.406 3.331-4.349 11.175-3.87 13.212-1.255 0 0-3.756 1.38-7.439 5.167-3.566 3.668-5.6 8.555-5.643 8.494Z"/></g><path fill="none" stroke-width="1.718" d="M-.477 80.69c.043.557 1.834 3.747 2.578 4.042.211.083 3.314-6.671 9.598-12.997 3.502-3.526 7.432-4.816 9.436-6.022h0c-1.583-1.004-2.436-1.635-5.118-2.328l-4.857-2.08c1.107-.198 4.28.928 4.857 2.08.022.044-5.74 2.84-9.504 6.777C2.076 74.801-.477 80.69-.477 80.69c-1.31-1.093-2.181-2.43-1.637-5.602h0c.154-.51 1.625-4.855 4.853-8.146 3.25-3.312 8.258-5.567 8.42-5.637.518-1.149-2.892-2.439-3.831-2.17 0 0-1.713-2.2 0 0 0 0-3.756 1.38-7.439 5.167-1.386 1.426-2.54 3.035-3.436 4.467l-.45-10.096c3.789-2.426 9.612-1.738 11.325.462" filter="url(#a)"/></g><g stroke="#221e1e" stroke-linecap="round" stroke-linejoin="round"><path fill="url(#b)" stroke-width="2.286" d="M100 90.266c-3.257-7.442-19.989-22.919-22.942-25.175-8.874-6.78-21.573-12.308-35.137-10.58C24.336 56.748.85 80.814 0 90.265V100h100v-9.734Z"/><path fill="none" stroke-width="2.286" d="M100 90.266c-3.257-7.442-19.989-22.919-22.942-25.175-8.874-6.78-21.573-12.308-35.137-10.58C24.336 56.748.85 80.814 0 90.265V100h100v-9.734Z" filter="url(#c)"/><g stroke-width="1.143"><path fill="#9f8561" d="M37.919 81.698c6.49-.513 7.05 7.78 1.346 8.571-6.968.966-7.719-8.066-1.346-8.57Zm14.591-.567c6.491-.57 7.051 8.644 1.347 9.522-6.968 1.072-7.719-8.962-1.346-9.522Zm15.29-.467c6.49-.57 7.05 8.644 1.346 9.522-6.968 1.072-7.72-8.962-1.346-9.522Z"/><g fill="none"><path d="M33.558 85.36c.985 3.252 9.635 3.447 9.635 0" filter="url(#d)"/><path d="M48.15 85.2c.985 3.612 9.635 3.828 9.635 0" filter="url(#e)"/><path d="M37.919 81.698c6.49-.513 7.05 7.78 1.346 8.571-6.968.966-7.719-8.066-1.346-8.57Z" filter="url(#f)"/><path d="M52.51 81.131c6.491-.57 7.051 8.644 1.347 9.522-6.968 1.072-7.719-8.962-1.346-9.522Z" filter="url(#g)"/><path d="M67.8 80.664c6.49-.57 7.05 8.644 1.346 9.522-6.968 1.072-7.72-8.962-1.346-9.522Z" filter="url(#h)"/><path d="M63.44 84.732c.984 3.612 9.634 3.83 9.634 0" filter="url(#i)"/></g></g></g><g stroke="#191a22" stroke-linecap="round" stroke-linejoin="round" stroke-width="2.099"><g fill="#4698ef"><path d="M77.406 65.659c1.077-3.515 9.484-9.103 13.843-5.705 2.805 2.187 6.699 1.85 8.85 4.907 6.765 9.61 2.423 18.767-.445 23.147 0 0-4.577-7.795-10.235-13.726-6.056-6.349-12.032-8.562-12.013-8.623Z"/><path d="M82.22 60.434c2.09-2.184 4.535-3.418 7.041-3.858 4.725-.828 11.121-.784 14.327 2.997 3.119 3.676 2.673 17.455-1.44 20.618 0 0-1.957-5.023-7.331-11.08-5.204-5.866-12.678-8.59-12.596-8.677Z"/><path d="M86.89 56.556c5.81-5.953 16.501-4.384 20.274.888 2.397 3.35 1.325 17.051-2.334 19.337 0 0 .429-7.26-3.831-12.725-5.878-7.54-14.109-7.5-14.109-7.5Z"/><path d="M93.203 52.951c3.513-2.654 9.39-4.494 14.324-.07 5.468 4.903 4.488 15.742 1.013 18.392 0 0-.225-6.348-4.952-11.7-4.576-5.183-10.464-6.562-10.385-6.622Z"/></g><g fill="none"><path d="M77.205 66.26c6.02 1.622 20.48 14.57 21.73 22.203h0c2.747-.646 3.348-8.323 2.244-11.54-1.816-5.294-9.298-15.565-19.321-15.885" filter="url(#j)"/><path d="M107.527 52.88c-5.151-4.592-9.92-2.808-13.967.248h0c-2.02-1.089-5.915.602-5.577 3.282h0c-1.984-1.003-6.261 1.12-6.125 4.628h0c-1.915-.73-4.739 3.005-4.653 5.222" filter="url(#k)"/><path d="M93.56 53.128c7.097.669 13.803 9.109 18.097 14.541" filter="url(#l)"/><path d="M87.983 56.41c6.538 1.816 12.467 6.294 16.745 11.637" filter="url(#m)"/></g></g><path fill="url(#n)" d="M43.47 13.623c-3.067-.056-5.675.503-7.44 1.957 0 0-11.28 8.684-15.483 14.095-2.685 3.457.184 17.735-.143 22.247-.132 1.83-3.248 17.326-2.456 18.046 1.021.926 11.349-1.268 12.21-3.631.201.179 13.005-7.032 24.096-6.015 11.091 1.016 20.47 6.147 21.499 5.339.02-.016-2.202-20.392-2.136-21.89.284-6.444 6.027-18.713 4.129-24.525-.191-.585-3.442-.373-3.88-.356-7.427.3-21.055-5.1-30.397-5.268Z"/><g stroke="#221e1e" stroke-linecap="round" stroke-linejoin="round"><path fill="none" stroke-width="1.665" d="M98.367 44.865c-5.08-2.963-17.9-.912-18.969-.829" filter="url(#o)"/><path fill="#b92025" stroke-width="1.665" d="M75.8 34.322c.203.021 4.06 4.61 4.07 9.186.015 8.166-3.82 8.508-4.996 9.064-.534-2.915-.715-5.982-.792-8.828-.08-2.881-.04-5.547 1.718-9.422Z"/><path fill="none" stroke-width=".621" d="M75.8 34.322c.11.012 4.091 4.618 4.07 9.186-.036 7.578-4.996 9.064-4.996 9.064l-.792-8.828c.217-4.353 1.509-8.858 1.718-9.422Z" filter="url(#p)"/></g><path fill="none" stroke="#221e1e" stroke-linecap="round" stroke-linejoin="round" stroke-width="2.22" d="M35.94 15.61c7.062-6.03 28.035 3.678 37.938 3.28.438-.018 3.687-.224 3.878.36 1.898 5.812-3.86 18.075-4.145 24.519-.066 1.499 2.157 21.887 2.137 21.902-1.03.808-10.389-4.333-21.48-5.35-11.091-1.016-23.915 6.2-24.117 6.022-1.345-1.192 2.777-48.163 5.788-50.733Z" filter="url(#q)"/><path fill="none" stroke="#221e1e" stroke-linecap="round" stroke-linejoin="round" stroke-width="2.22" d="M30.15 66.343s.121-15.73 1.604-28.489c1.483-12.758 4.327-22.545 4.327-22.545-4.107 5.289-11.328 8.939-15.53 14.35-2.685 3.457.169 17.757-.158 22.268-.133 1.83-3.232 17.31-2.44 18.029 1.02.926 11.337-1.25 12.198-3.613Z" filter="url(#r)"/><g stroke="#221e1e" stroke-linecap="round" stroke-linejoin="round"><g stroke-width="1.665"><path fill="#de2425" d="M67.648 31.68c8.495-.966 8.14 10.78.645 11.073-6.806.266-6.648-11.49.721-10.98" filter="url(#s)"/><path fill="#252020" d="M68.863 34.483c3.095.116 2.582 5.28.358 5.041-3.766-.403-2.423-6.543.888-4.729" filter="url(#t)"/></g><g stroke-width="1.665"><path fill="#de2425" d="M52.284 28.204c10.438-1.188 10.003 13.244.794 13.603-8.363.327-8.168-14.116.885-13.49" filter="url(#u)"/><path fill="#252020" d="M53.778 31.646c3.802.144 3.172 6.487.44 6.195-4.627-.495-2.977-8.04 1.09-5.81" filter="url(#v)"/></g><g fill="none" stroke-width="1.11"><path d="M37.04 46.129c11.023.994 21.775 5.51 32.952 4.928" filter="url(#w)"/><path d="M48.69 26.195a170.773 170.773 0 0 1 26.156 3.579" filter="url(#x)"/></g></g><g stroke="#221e1e" stroke-linecap="round" stroke-linejoin="round" stroke-width="1.665"><path fill="none" d="M15.001 38.31c-3.679-.069-7.289-.61-10.98-.076" filter="url(#y)"/><path fill="#b92025" d="M24.029 32.645c-1.532 2.58-7.365-.811-7.802 5.739-.15 2.25 4.508 13.278 8.25 10.975 1.261-.775.193-10.34.144-11.693-.043-1.189-.524-5.137-.592-5.021Z"/><path fill="none" d="M24.029 32.645c-1.532 2.58-7.365-.811-7.802 5.739-.15 2.25 4.508 13.278 8.25 10.975 1.261-.775.193-10.34.144-11.693-.043-1.189-.524-5.137-.592-5.021Z" filter="url(#z)"/></g></svg>