<svg xmlns="http://www.w3.org/2000/svg" xml:space="preserve" width="100%" height="100%" viewBox="0 0 100 100"><defs><filter id="b" width="98.411" height="92.224" x="5.238" y="3.624" color-interpolation-filters="sRGB" filterUnits="userSpaceOnUse"><feDropShadow dx=".706" dy="-.262" flood-color="#000" flood-opacity=".5" in="SourceGraphic" result="Shadow" stdDeviation="1.777"/></filter><filter id="g" width="100.694" height="84.549" x="-2.529" y="11.594" color-interpolation-filters="sRGB" filterUnits="userSpaceOnUse"><feDropShadow dx=".706" dy="-.262" flood-color="#000" flood-opacity=".4" in="SourceGraphic" result="Shadow" stdDeviation="1.894"/></filter><filter id="i" width="80.83" height="11.434" x="6.106" y="20.731" color-interpolation-filters="sRGB" filterUnits="userSpaceOnUse"><feDropShadow dx="0" dy="0" flood-color="#000" flood-opacity=".6" in="SourceGraphic" result="Shadow" stdDeviation=".874"/></filter><filter id="j" width="80.83" height="7.806" x="6.106" y="33.032" color-interpolation-filters="sRGB" filterUnits="userSpaceOnUse"><feDropShadow dx="0" dy="0" flood-color="#000" flood-opacity=".6" in="SourceGraphic" result="Shadow" stdDeviation=".874"/></filter><filter id="k" width="28.648" height="7.806" x="58.291" y="41.314" color-interpolation-filters="sRGB" filterUnits="userSpaceOnUse"><feDropShadow dx="0" dy="0" flood-color="#000" flood-opacity=".6" in="SourceGraphic" result="Shadow" stdDeviation=".874"/></filter><filter id="l" width="49.461" height="45.109" x="6.106" y="40.764" color-interpolation-filters="sRGB" filterUnits="userSpaceOnUse"><feDropShadow dx="0" dy="0" flood-color="#000" flood-opacity=".6" in="SourceGraphic" result="Shadow" stdDeviation=".874"/></filter><filter id="m" width="28.648" height="7.806" x="58.291" y="52.866" color-interpolation-filters="sRGB" filterUnits="userSpaceOnUse"><feDropShadow dx="0" dy="0" flood-color="#000" flood-opacity=".6" in="SourceGraphic" result="Shadow" stdDeviation=".874"/></filter><filter id="n" width="28.648" height="7.806" x="58.291" y="65.435" color-interpolation-filters="sRGB" filterUnits="userSpaceOnUse"><feDropShadow dx="0" dy="0" flood-color="#000" flood-opacity=".6" in="SourceGraphic" result="Shadow" stdDeviation=".874"/></filter><filter id="o" width="28.648" height="7.806" x="58.291" y="76.987" color-interpolation-filters="sRGB" filterUnits="userSpaceOnUse"><feDropShadow dx="0" dy="0" flood-color="#000" flood-opacity=".6" in="SourceGraphic" result="Shadow" stdDeviation=".874"/></filter><filter id="q" width="39.764" height="49.435" x="11.998" y="40.473" color-interpolation-filters="sRGB" filterUnits="userSpaceOnUse"><feDropShadow dx="0" dy=".13" flood-color="#000" flood-opacity=".65" in="SourceGraphic" result="Shadow" stdDeviation=".665"/></filter><linearGradient id="a" x1="0" x2="1" y1="0" y2="0" gradientTransform="translate(26.213 21.07) scale(73.9799)" gradientUnits="userSpaceOnUse"><stop offset="0" stop-color="#e9e6ed"/><stop offset="1" stop-color="#f2f0f5"/></linearGradient><linearGradient id="c" x1="0" x2="1" y1="0" y2="0" gradientTransform="rotate(-90 92.493 -2.68) scale(12.2206)" gradientUnits="userSpaceOnUse"><stop offset="0" stop-color="#e2dee7"/><stop offset="1" stop-color="#e2dee7" stop-opacity="0"/></linearGradient><linearGradient id="d" x1="0" x2="1" y1="0" y2="0" gradientTransform="rotate(-90 93.092 -2.19) scale(11.8924)" gradientUnits="userSpaceOnUse"><stop offset="0" stop-color="#fffeff"/><stop offset="1" stop-color="#f6f2fa" stop-opacity="0"/></linearGradient><linearGradient id="e" x1="0" x2="1" y1="0" y2="0" gradientTransform="translate(85.036 93.476) scale(7.58025)" gradientUnits="userSpaceOnUse"><stop offset="0" stop-color="#faf7fc"/><stop offset="1" stop-color="#fcfaff"/></linearGradient><linearGradient id="f" x1="0" x2="1" y1="0" y2="0" gradientTransform="translate(10.039 10.451) scale(2.2167)" gradientUnits="userSpaceOnUse"><stop offset="0" stop-color="#faf7fc"/><stop offset="1" stop-color="#f7f5fa"/></linearGradient><linearGradient id="h" x1="0" x2="1" y1="0" y2="0" gradientTransform="rotate(-90 78.036 13.631) scale(5.89381)" gradientUnits="userSpaceOnUse"><stop offset="0" stop-color="#cfc5d9"/><stop offset=".983" stop-color="#f0ebf5" stop-opacity="0"/></linearGradient><linearGradient id="p" x1="0" x2="1" y1="0" y2="0" gradientTransform="matrix(35.2231 -18.3943 18.8148 36.823 12.524 77.659)" gradientUnits="userSpaceOnUse"><stop offset="0" stop-color="#4c61ff"/><stop offset=".576" stop-color="#4b57d9"/><stop offset=".968" stop-color="#434dbf"/></linearGradient></defs><path fill="url(#a)" d="M8.976 12.694A4.366 4.366 0 0 1 13.34 8.33h80.795a4.366 4.366 0 0 1 4.365 4.364v75.482a3.492 3.492 0 0 1-3.492 3.491h-82.54a3.492 3.492 0 0 1-3.492-3.491V12.694Z" filter="url(#b)"/><path fill="url(#c)" d="M8.976 12.694A4.366 4.366 0 0 1 13.34 8.33h80.795a4.366 4.366 0 0 1 4.365 4.364v75.482a3.492 3.492 0 0 1-3.492 3.491h-82.54a3.492 3.492 0 0 1-3.492-3.491V12.694Z"/><path fill="url(#d)" d="M8.976 16.598h77.688a4.366 4.366 0 0 1 4.364 4.364v66.69a2.267 2.267 0 0 0 2.27 2.27h2.391c1.173 0 2.266-1.146 2.266-2.427V11.518c0-.417-.06-.83-.178-1.23.454.692.723 1.52.723 2.41v75.478a3.492 3.492 0 0 1-3.492 3.491h-82.54a3.492 3.492 0 0 1-3.492-3.491V16.598Z"/><path fill="url(#e)" d="M5.864 16.598A4.366 4.366 0 0 0 1.5 20.962v67.214a3.492 3.492 0 0 0 3.492 3.491h87.726v-.014c-1.362-.136-1.694-1.417-1.694-2.13V20.966A4.366 4.366 0 0 0 86.66 16.6H5.864v-.003Z"/><path fill="url(#f)" d="M5.871 16.59A4.378 4.378 0 0 0 1.5 20.963V88.16c0 1.929 1.55 3.51 3.478 3.51h87.747v-.032c-1.362-.136-1.691-1.393-1.691-2.106v-68.57a4.378 4.378 0 0 0-4.372-4.371H5.872Zm5.042 6.319H82.13a2.615 2.615 0 0 1 2.617 2.616v1.85a2.615 2.615 0 0 1-2.617 2.617H10.913a2.615 2.615 0 0 1-2.617-2.616v-1.85a2.615 2.615 0 0 1 2.617-2.617Zm-.894 12.316h73.006c.948 0 1.723.774 1.723 1.723 0 .949-.775 1.691-1.723 1.691H10.019c-.948 0-1.723-.742-1.723-1.69 0-.95.775-1.724 1.723-1.724Zm4.372 7.722h32.865c3.376 0 6.126 3.224 6.126 7.18v26.387c0 3.957-2.752 7.18-6.126 7.18H14.39c-3.375 0-6.095-3.223-6.095-7.18V50.126c0-3.955 2.722-7.18 6.095-7.18Zm47.798.542h20.836c.948 0 1.723.775 1.723 1.723 0 .95-.775 1.723-1.723 1.723H62.189a1.727 1.727 0 0 1-1.723-1.723c0-.948.774-1.723 1.723-1.723Zm0 11.55h20.836c.948 0 1.723.775 1.723 1.724s-.775 1.723-1.723 1.723H62.189a1.727 1.727 0 0 1-1.723-1.723c0-.949.774-1.723 1.723-1.723Zm0 12.573h20.836c.948 0 1.723.774 1.723 1.723 0 .948-.775 1.723-1.723 1.723H62.189a1.727 1.727 0 0 1-1.723-1.723c0-.95.774-1.723 1.723-1.723Zm0 11.55h20.836c.948 0 1.723.775 1.723 1.723 0 .95-.775 1.723-1.723 1.723H62.189a1.727 1.727 0 0 1-1.723-1.723c0-.948.774-1.723 1.723-1.723Z" filter="url(#g)"/><path fill="url(#h)" d="M5.864 16.598A4.366 4.366 0 0 0 1.5 20.962v67.214a3.492 3.492 0 0 0 3.492 3.491h87.726v-.014c-1.362-.136-1.694-1.417-1.694-2.13V20.966A4.366 4.366 0 0 0 86.66 16.6H5.864v-.003Z"/><path fill="#9c96a2" d="M10.91 22.916h71.22a2.619 2.619 0 0 1 2.62 2.619v1.826a2.619 2.619 0 0 1-2.62 2.619H10.91a2.619 2.619 0 0 1-2.62-2.62v-1.826a2.619 2.619 0 0 1 2.619-2.619Z" filter="url(#i)"/><path fill="#9c96a2" d="M10.009 35.217h73.023a1.718 1.718 0 1 1 0 3.436H10.01a1.718 1.718 0 1 1 0-3.436Z" filter="url(#j)"/><path fill="#9c96a2" d="M62.194 43.5h20.842a1.718 1.718 0 1 1 0 3.436H62.194a1.718 1.718 0 1 1 0-3.436Z" filter="url(#k)"/><path fill="#b9b2c1" d="M8.291 50.115c0-3.955 2.738-7.165 6.11-7.165h32.87c3.377 0 6.11 3.21 6.11 7.165v26.408c0 3.957-2.735 7.165-6.11 7.165h-32.87c-3.374 0-6.11-3.208-6.11-7.165V50.115Z" filter="url(#l)"/><path fill="#9c96a2" d="M62.194 55.051h20.842a1.718 1.718 0 1 1 0 3.436H62.194a1.718 1.718 0 1 1 0-3.436Z" filter="url(#m)"/><path fill="#9c96a2" d="M62.194 67.62h20.842a1.718 1.718 0 1 1 0 3.436H62.194a1.718 1.718 0 1 1 0-3.436Z" filter="url(#n)"/><path fill="#9c96a2" d="M62.194 79.172h20.842a1.718 1.718 0 1 1 0 3.436H62.194a1.718 1.718 0 1 1 0-3.436Z" filter="url(#o)"/><path fill="url(#p)" d="M22.466 42.005c-3.657 0-6.623 3.27-6.623 7.27 0 .502.055 1.013.152 1.506l1.015.238c0-1.864.825-2.934 2.335-2.934.779 0 1.585.605 2.36 1.533v7.48h-.076c-3.524 0-6.37 2.752-6.37 6.212 0 2.599 1.699 4.544 3.73 5.102l.28-.767a1.558 1.558 0 0 1-.711-1.295c0-1.38 1.24-1.797 2.588-1.797h.559v9.04h-.051c-4.382 0-7.994 3.026-7.994 7.48 0 4.867 4.204 7.584 7.918 6.953l.228-1.031c-1.838.195-3.527-1.163-3.527-3.04 0-1.577 1.197-2.564 2.715-2.564 1.939 0 3.398 1.235 4.416 2.379l6.8-7.904-.76-.793-1.777 2.115c-2.25-2.347-4.762-3.185-6.496-3.463V51.76c.145.242.29.49.43.74l17.74 31.27h2.003V51.363c3.627-.277 6.75-2.75 6.75-6.555 0-.952-.236-1.905-.659-2.75l-.71-.026c-.162 1.654-1.468 2.908-3.223 2.908-1.893 0-3.236-1.196-4.111-2.352l-1.04-.027-6.599 7.93.762.793 2.03-2.352c1.259 1.243 3.117 2.235 5.304 2.431v18.16L29.14 47.345c-1.415-2.481-2.821-5.34-6.674-5.34Z" filter="url(#q)"/></svg>