<svg xmlns="http://www.w3.org/2000/svg" xml:space="preserve" width="100%" height="100%" viewBox="0 0 100 100"><defs><filter id="a" width="100.907" height="102.903" x="2.529" y=".033" color-interpolation-filters="sRGB" filterUnits="userSpaceOnUse"><feDropShadow dx="4.281" dy="5.004" flood-color="#000" flood-opacity=".4" in="SourceGraphic" result="Shadow" stdDeviation="2.397"/></filter><filter id="d" width="80.405" height="24.824" x="7.637" y="39.756" color-interpolation-filters="sRGB" filterUnits="userSpaceOnUse"><feDropShadow dx=".282" dy="-.092" flood-color="#000" flood-opacity=".333" in="SourceGraphic" result="Shadow" stdDeviation=".445"/></filter><filter id="e" width="11.977" height="16.292" x="76.067" y="58.528" color-interpolation-filters="sRGB" filterUnits="userSpaceOnUse"><feDropShadow dx=".282" dy="-.092" flood-color="#000" flood-opacity=".333" in="SourceGraphic" result="Shadow" stdDeviation=".445"/></filter><filter id="f" width="13.262" height="11.728" x="35.561" y="52.422" color-interpolation-filters="sRGB" filterUnits="userSpaceOnUse"><feDropShadow dx=".282" dy="-.092" flood-color="#000" flood-opacity=".23" in="SourceGraphic" result="Shadow" stdDeviation=".62"/></filter><filter id="g" width="16.671" height="15.397" x="21.404" y="50.232" color-interpolation-filters="sRGB" filterUnits="userSpaceOnUse"><feDropShadow dx=".282" dy="-.092" flood-color="#000" flood-opacity=".23" in="SourceGraphic" result="Shadow" stdDeviation=".62"/></filter><filter id="h" width="15.519" height="13.644" x="41.207" y="51.017" color-interpolation-filters="sRGB" filterUnits="userSpaceOnUse"><feDropShadow dx=".282" dy="-.092" flood-color="#000" flood-opacity=".23" in="SourceGraphic" result="Shadow" stdDeviation=".62"/></filter><filter id="i" width="14.97" height="13.647" x="71.973" y="59.283" color-interpolation-filters="sRGB" filterUnits="userSpaceOnUse"><feDropShadow dx=".282" dy="-.092" flood-color="#000" flood-opacity=".23" in="SourceGraphic" result="Shadow" stdDeviation=".62"/></filter><filter id="j" width="15.519" height="13.644" x="51.484" y="53.188" color-interpolation-filters="sRGB" filterUnits="userSpaceOnUse"><feDropShadow dx=".282" dy="-.092" flood-color="#000" flood-opacity=".23" in="SourceGraphic" result="Shadow" stdDeviation=".62"/></filter><filter id="k" width="19.659" height="17.159" x="59.758" y="51.845" color-interpolation-filters="sRGB" filterUnits="userSpaceOnUse"><feDropShadow dx=".282" dy="-.092" flood-color="#000" flood-opacity=".23" in="SourceGraphic" result="Shadow" stdDeviation=".62"/></filter><filter id="l" width="13.258" height="11.733" x="26.189" y="46.324" color-interpolation-filters="sRGB" filterUnits="userSpaceOnUse"><feDropShadow dx=".282" dy="-.092" flood-color="#000" flood-opacity=".23" in="SourceGraphic" result="Shadow" stdDeviation=".62"/></filter><filter id="m" width="17.187" height="15.397" x="12.106" y="43.917" color-interpolation-filters="sRGB" filterUnits="userSpaceOnUse"><feDropShadow dx=".282" dy="-.092" flood-color="#000" flood-opacity=".23" in="SourceGraphic" result="Shadow" stdDeviation=".62"/></filter><filter id="n" width="15.515" height="13.65" x="30.765" y="46.131" color-interpolation-filters="sRGB" filterUnits="userSpaceOnUse"><feDropShadow dx=".282" dy="-.092" flood-color="#000" flood-opacity=".23" in="SourceGraphic" result="Shadow" stdDeviation=".62"/></filter><filter id="o" width="15.037" height="13.632" x="62.282" y="41.488" color-interpolation-filters="sRGB" filterUnits="userSpaceOnUse"><feDropShadow dx=".282" dy="-.092" flood-color="#000" flood-opacity=".23" in="SourceGraphic" result="Shadow" stdDeviation=".62"/></filter><filter id="p" width="15.515" height="15.045" x="41.224" y="45.165" color-interpolation-filters="sRGB" filterUnits="userSpaceOnUse"><feDropShadow dx=".282" dy="-.092" flood-color="#000" flood-opacity=".23" in="SourceGraphic" result="Shadow" stdDeviation=".62"/></filter><filter id="q" width="19.653" height="17.166" x="48.477" y="46.191" color-interpolation-filters="sRGB" filterUnits="userSpaceOnUse"><feDropShadow dx=".282" dy="-.092" flood-color="#000" flood-opacity=".23" in="SourceGraphic" result="Shadow" stdDeviation=".62"/></filter><filter id="r" width="18.489" height="18.636" x="9.924" y="30.789" color-interpolation-filters="sRGB" filterUnits="userSpaceOnUse"><feDropShadow dx=".282" dy="-.092" flood-color="#000" flood-opacity=".23" in="SourceGraphic" result="Shadow" stdDeviation=".445"/></filter><filter id="s" width="26.651" height="21.921" x="58.712" y="29.789" color-interpolation-filters="sRGB" filterUnits="userSpaceOnUse"><feDropShadow dx=".282" dy="-.092" flood-color="#000" flood-opacity=".23" in="SourceGraphic" result="Shadow" stdDeviation=".445"/></filter><filter id="t" width="18.489" height="16.292" x="36.318" y="29.789" color-interpolation-filters="sRGB" filterUnits="userSpaceOnUse"><feDropShadow dx=".282" dy="-.092" flood-color="#000" flood-opacity=".23" in="SourceGraphic" result="Shadow" stdDeviation=".445"/></filter><filter id="u" width="12.388" height="10.854" x="41.535" y="44.407" color-interpolation-filters="sRGB" filterUnits="userSpaceOnUse"><feDropShadow dx=".282" dy="-.092" flood-color="#000" flood-opacity=".23" in="SourceGraphic" result="Shadow" stdDeviation=".445"/></filter><filter id="v" width="14.645" height="12.77" x="43.18" y="43.001" color-interpolation-filters="sRGB" filterUnits="userSpaceOnUse"><feDropShadow dx=".282" dy="-.092" flood-color="#000" flood-opacity=".23" in="SourceGraphic" result="Shadow" stdDeviation=".445"/></filter><filter id="w" width="14.095" height="12.773" x="73.947" y="51.267" color-interpolation-filters="sRGB" filterUnits="userSpaceOnUse"><feDropShadow dx=".282" dy="-.092" flood-color="#000" flood-opacity=".23" in="SourceGraphic" result="Shadow" stdDeviation=".445"/></filter><filter id="x" width="14.645" height="12.77" x="53.458" y="45.172" color-interpolation-filters="sRGB" filterUnits="userSpaceOnUse"><feDropShadow dx=".282" dy="-.092" flood-color="#000" flood-opacity=".23" in="SourceGraphic" result="Shadow" stdDeviation=".445"/></filter><filter id="y" width="17.622" height="15.826" x="70.496" y="36.976" color-interpolation-filters="sRGB" filterUnits="userSpaceOnUse"><feDropShadow dx=".282" dy="-.092" flood-color="#000" flood-opacity=".23" in="SourceGraphic" result="Shadow" stdDeviation=".474"/></filter><filter id="z" width="47.703" height="37.16" x="40.534" y="42.553" color-interpolation-filters="sRGB" filterUnits="userSpaceOnUse"><feDropShadow dx=".282" dy="-.092" flood-color="#000" flood-opacity=".45" in="SourceGraphic" result="Shadow" stdDeviation=".5"/></filter><filter id="A" width="18.776" height="16.296" x="64.736" y="44.824" color-interpolation-filters="sRGB" filterUnits="userSpaceOnUse"><feDropShadow dx=".282" dy="-.092" flood-color="#000" flood-opacity=".23" in="SourceGraphic" result="Shadow" stdDeviation=".445"/></filter><filter id="B" width="18.634" height="16.438" x="30.245" y="32.481" color-interpolation-filters="sRGB" filterUnits="userSpaceOnUse"><feDropShadow dx=".282" dy="-.092" flood-color="#000" flood-opacity=".23" in="SourceGraphic" result="Shadow" stdDeviation=".474"/></filter><filter id="C" width="15.679" height="13.882" x="20.928" y="36.08" color-interpolation-filters="sRGB" filterUnits="userSpaceOnUse"><feDropShadow dx=".282" dy="-.092" flood-color="#000" flood-opacity=".23" in="SourceGraphic" result="Shadow" stdDeviation=".474"/></filter><filter id="D" width="15.797" height="14.523" x="30.377" y="41.216" color-interpolation-filters="sRGB" filterUnits="userSpaceOnUse"><feDropShadow dx=".282" dy="-.092" flood-color="#000" flood-opacity=".23" in="SourceGraphic" result="Shadow" stdDeviation=".445"/></filter><filter id="E" width="21.345" height="17.941" x="45.087" y="34.802" color-interpolation-filters="sRGB" filterUnits="userSpaceOnUse"><feDropShadow dx=".282" dy="-.092" flood-color="#000" flood-opacity=".23" in="SourceGraphic" result="Shadow" stdDeviation=".474"/></filter><filter id="F" width="15.679" height="13.882" x="33.116" y="36.481" color-interpolation-filters="sRGB" filterUnits="userSpaceOnUse"><feDropShadow dx=".282" dy="-.092" flood-color="#000" flood-opacity=".23" in="SourceGraphic" result="Shadow" stdDeviation=".474"/></filter><filter id="G" width="13.213" height="16.438" x="74.901" y="42.835" color-interpolation-filters="sRGB" filterUnits="userSpaceOnUse"><feDropShadow dx=".282" dy="-.092" flood-color="#000" flood-opacity=".23" in="SourceGraphic" result="Shadow" stdDeviation=".474"/></filter><filter id="H" width="15.935" height="14.666" x="4.162" y="43.768" color-interpolation-filters="sRGB" filterUnits="userSpaceOnUse"><feDropShadow dx=".282" dy="-.092" flood-color="#000" flood-opacity=".15" in="SourceGraphic" result="Shadow" stdDeviation=".474"/></filter><filter id="I" width="18.924" height="16.438" x="42.532" y="40.704" color-interpolation-filters="sRGB" filterUnits="userSpaceOnUse"><feDropShadow dx=".282" dy="-.092" flood-color="#000" flood-opacity=".15" in="SourceGraphic" result="Shadow" stdDeviation=".474"/></filter><filter id="J" width="14.786" height="12.921" x="23.819" y="42.281" color-interpolation-filters="sRGB" filterUnits="userSpaceOnUse"><feDropShadow dx=".282" dy="-.092" flood-color="#000" flood-opacity=".15" in="SourceGraphic" result="Shadow" stdDeviation=".474"/></filter><filter id="K" width="12.53" height="11.004" x="19.244" y="43.005" color-interpolation-filters="sRGB" filterUnits="userSpaceOnUse"><feDropShadow dx=".282" dy="-.092" flood-color="#000" flood-opacity=".15" in="SourceGraphic" result="Shadow" stdDeviation=".474"/></filter><filter id="L" width="12.524" height="11.011" x="52.506" y="24.076" color-interpolation-filters="sRGB" filterUnits="userSpaceOnUse"><feDropShadow dx=".282" dy="-.092" flood-color="#000" flood-opacity=".15" in="SourceGraphic" result="Shadow" stdDeviation=".474"/></filter><filter id="M" width="16.53" height="14.032" x="55.303" y="47.016" color-interpolation-filters="sRGB" filterUnits="userSpaceOnUse"><feDropShadow dx=".282" dy="-.092" flood-color="#000" flood-opacity=".15" in="SourceGraphic" result="Shadow" stdDeviation=".474"/></filter><filter id="N" width="76.781" height="28.874" x="18.078" y="50.92" color-interpolation-filters="sRGB" filterUnits="userSpaceOnUse"><feDropShadow dx=".448" dy="-.146" flood-color="#000" flood-opacity=".45" in="SourceGraphic" result="Shadow" stdDeviation=".5"/></filter><filter id="O" width="44.5" height="33.64" x="9.726" y="46.08" color-interpolation-filters="sRGB" filterUnits="userSpaceOnUse"><feDropShadow dx=".282" dy="-.092" flood-color="#000" flood-opacity=".45" in="SourceGraphic" result="Shadow" stdDeviation=".5"/></filter><filter id="P" width="70.719" height="33.469" x="9.782" y="46.19" color-interpolation-filters="sRGB" filterUnits="userSpaceOnUse"><feDropShadow dx=".282" dy="-.092" flood-color="#000" flood-opacity=".45" in="SourceGraphic" result="Shadow" stdDeviation=".5"/></filter><filter id="Q" width="94.5" height="96.501" x="1.451" y="-1.782" color-interpolation-filters="sRGB" filterUnits="userSpaceOnUse"><feDropShadow dx="0" dy="0" flood-color="#000" flood-opacity=".25" in="SourceGraphic" result="Shadow" stdDeviation="1.115"/></filter><linearGradient id="b" x1="0" x2="1" y1="0" y2="0" gradientTransform="rotate(.455 559.52 -5210.412) scale(93.48714)" gradientUnits="userSpaceOnUse"><stop offset="0" stop-color="#50e6fe"/><stop offset="1" stop-color="#00b1ff"/></linearGradient><linearGradient id="c" x1="0" x2="1" y1="0" y2="0" gradientTransform="matrix(-3.1904 69.7763 -212.51 -1.04755 59.762 -6.748)" gradientUnits="userSpaceOnUse"><stop offset="0" stop-color="#de82f9"/><stop offset=".282" stop-color="#e488ff"/><stop offset=".475" stop-color="#fff" stop-opacity="0"/><stop offset="1" stop-color="#fff" stop-opacity="0"/></linearGradient><linearGradient id="R" x1="0" x2="1" y1="0" y2="0" gradientTransform="matrix(61.8534 -34.295 86.7496 61.8534 25.308 87.973)" gradientUnits="userSpaceOnUse"><stop offset="0" stop-color="#110e3f" stop-opacity=".5"/><stop offset="1" stop-color="#110e3f" stop-opacity="0"/></linearGradient><linearGradient id="S" x1="0" x2="1" y1="0" y2="0" gradientTransform="rotate(53.027 -21.028 82.332) scale(12.69245)" gradientUnits="userSpaceOnUse"><stop offset="0" stop-color="#ff1744"/><stop offset="1" stop-color="#6e0d0d"/></linearGradient><linearGradient id="T" x1="0" x2="1" y1="0" y2="0" gradientTransform="rotate(60.961 -40.544 59.056) scale(24.1045)" gradientUnits="userSpaceOnUse"><stop offset=".141" stop-color="#fff"/><stop offset=".489" stop-color="#fff" stop-opacity=".9"/><stop offset=".85" stop-color="#b3b3b3"/><stop offset="1" stop-color="#969696"/></linearGradient><linearGradient id="U" x1="0" x2="1" y1="0" y2="0" gradientTransform="rotate(51.121 -68.376 68.186) scale(8.04873)" gradientUnits="userSpaceOnUse"><stop offset="0" stop-color="#fff"/><stop offset="1" stop-color="#5b5b5b"/></linearGradient></defs><path fill="#f9e6ff" d="M10.755 40.996v37.51h75.892V50.372S68.831 40.29 56.832 40.995c-11.998.705-11.904 34.58-33.884 15.918-8.78-7.456-12.193-15.918-12.193-15.918Z"/><path fill="#fff" d="M10.755 7.767h75.892v70.738H10.755V7.767Z"/><path fill="#e190f9" d="M10.755 7.767h75.892v70.738H10.755V7.767Z"/><path fill="#e1e7ea" d="M4.242 1.023h88.92v90.916H4.241V1.023Z" filter="url(#a)"/><path fill="#90caf9" d="M10.755 7.683h75.892v70.33H10.755V7.683Z"/><path fill="url(#b)" d="M8.677 5.105h82.639v76.583H8.677V5.105Z"/><path fill="url(#c)" d="M11.189 7.767h75.025c.24 0 .433.064.433.142v22.942c0 .079-.194.142-.433.142H11.188c-.239 0-.433-.063-.433-.142V7.909c0-.078.194-.142.434-.142Z"/><path fill="#f9e6ff" d="M38.46 44.914c-3.668.228-6.481 2.985-6.284 6.157.198 3.173 3.331 5.559 6.999 5.33 3.668-.228 6.48-2.985 6.283-6.157-.198-3.172-3.331-5.559-6.999-5.33Zm-22.226-.642c-2.654.165-8.088 2.947-7.75 8.75.337 5.804 6.117 7.794 8.77 7.628 5.23-.326 9.24-4.256 8.958-8.779-.282-4.523-4.749-7.925-9.978-7.6Zm25.7-1.602c-4.483.28-7.92 3.649-7.679 7.526.242 3.876 4.07 6.793 8.553 6.513 4.482-.279 7.92-3.648 7.678-7.525-.241-3.877-4.07-6.793-8.553-6.514Zm44.713 7.186c-.865-.21-2.598-.414-3.553-.354-4.482.279-7.92 3.648-7.678 7.525.242 3.877 4.07 6.793 8.553 6.513a9.148 9.148 0 0 0 2.678-.599V49.856Zm-31.042-5.688c-4.482.279-7.92 3.648-7.678 7.525.241 3.876 4.07 6.793 8.553 6.513 4.482-.279 7.92-3.648 7.678-7.525-.242-3.876-4.07-6.793-8.553-6.513Zm13.38-3.183c-5.976.372-10.56 4.864-10.237 10.033.322 5.17 5.427 9.058 11.403 8.685 5.977-.372 10.56-4.864 10.238-10.033-.322-5.169-5.428-9.057-11.404-8.685Z" filter="url(#d)"/><path fill="#f9e6ff" d="M83.968 59.733c-3.904 0-7.07 3.149-7.07 7.033 0 3.884 3.166 7.033 7.07 7.033.95 0 1.855-.12 2.682-.458V60.218c-.801-.313-1.769-.485-2.682-.485Z" filter="url(#e)"/><path fill="#f9e6ff" d="M42.073 54.069c-2.804-.113-5.15 1.725-5.24 4.105-.09 2.38 2.11 4.4 4.915 4.513 2.805.113 5.151-1.725 5.241-4.105.09-2.38-2.111-4.4-4.916-4.513Z" filter="url(#f)"/><path fill="#f9e6ff" d="M29.23 51.876c-2.029-.081-6.37 1.573-6.552 5.925-.182 4.352 4.06 6.28 6.09 6.362 3.998.16 7.343-2.46 7.471-5.853.128-3.393-3.01-6.274-7.008-6.434Z" filter="url(#g)"/><path fill="#f9e6ff" d="M48.883 52.665c-3.427-.138-6.295 2.108-6.404 5.017-.11 2.908 2.58 5.377 6.007 5.514 3.428.138 6.295-2.108 6.405-5.016.11-2.909-2.58-5.378-6.008-5.515Z" filter="url(#h)"/><path fill="#f9e6ff" d="M79.65 60.931c-2.965-.141-6.296 2.108-6.405 5.017-.11 2.909 3.043 5.374 6.007 5.515 2.964.141 6.05-1.413 5.85-4.95-.15-2.631-2.488-5.44-5.453-5.582Z" filter="url(#i)"/><path fill="#f9e6ff" d="M59.16 54.835c-3.427-.137-6.294 2.109-6.404 5.017-.11 2.908 2.58 5.377 6.008 5.515 3.427.137 6.295-2.109 6.404-5.017.11-2.908-2.58-5.377-6.007-5.515Z" filter="url(#j)"/><path fill="#f9e6ff" d="M69.57 53.495c-4.57-.183-8.393 2.811-8.54 6.689-.145 3.878 3.44 7.17 8.01 7.353 4.571.184 8.394-2.811 8.54-6.689.147-3.878-3.44-7.17-8.01-7.353Z" filter="url(#k)"/><path fill="#f9e6ff" d="M32.2 56.581c-2.8-.213-4.917-2.31-4.731-4.684.186-2.374 2.606-4.126 5.405-3.913 2.799.212 4.917 2.31 4.73 4.684-.186 2.374-2.606 4.126-5.404 3.913Z" filter="url(#l)"/><path fill="#f9e6ff" d="M19.765 57.853c-2.108-.042-6.493-1.958-6.389-6.314.105-4.356 4.63-6.022 6.737-5.98 4.154.084 7.443 2.904 7.347 6.3-.097 3.394-3.542 6.078-7.695 5.994Z" filter="url(#m)"/><path fill="#f9e6ff" d="M37.828 58.301c-3.42-.26-6.009-2.823-5.781-5.724.228-2.902 3.185-5.043 6.605-4.783 3.42.26 6.01 2.823 5.782 5.725-.228 2.9-3.185 5.042-6.606 4.782Z" filter="url(#n)"/><path fill="#f9e6ff" d="M69.344 53.65c-2.96-.202-6.009-2.822-5.781-5.724.227-2.901 3.644-4.985 6.605-4.782 2.961.202 5.847 2.103 5.238 5.593-.453 2.596-3.101 5.116-6.062 4.913Z" filter="url(#o)"/><path fill="#f9e6ff" d="M48.288 58.727c-3.42-.295-6.01-3.197-5.781-6.482.227-3.285 3.184-5.709 6.605-5.415 3.42.295 6.009 3.197 5.781 6.482-.227 3.285-3.185 5.709-6.605 5.415Z" filter="url(#p)"/><path fill="#f9e6ff" d="M57.472 61.87c-4.56-.346-8.011-3.763-7.708-7.632.304-3.868 4.247-6.724 8.807-6.377 4.561.347 8.012 3.764 7.709 7.633-.304 3.868-4.247 6.723-8.808 6.377Z" filter="url(#q)"/><g fill="#f9e6ff"><path d="M17.531 31.993c-2.659 0-5.055.952-6.776 2.476V45.93c1.721 1.522 4.117 2.474 6.776 2.474 5.24 0 9.487-3.674 9.487-8.206 0-4.531-4.248-8.205-9.487-8.205Z" filter="url(#r)"/><path d="M71.756 30.993c-6.745 0-12.213 4.41-12.213 9.848 0 5.438 5.468 9.847 12.213 9.847 6.745 0 12.212-4.409 12.212-9.847 0-5.439-5.467-9.848-12.212-9.848Z" filter="url(#s)"/><path d="M45.28 30.993c-4.49 0-8.131 3.15-8.131 7.033 0 3.884 3.64 7.033 8.131 7.033s8.132-3.148 8.132-7.033c0-3.884-3.64-7.033-8.132-7.033Z" filter="url(#t)"/></g><path fill="#f9e6ff" d="M47.61 45.616c-2.805-.112-5.152 1.726-5.241 4.105-.09 2.38 2.11 4.4 4.916 4.513 2.804.113 5.15-1.725 5.24-4.105.09-2.38-2.11-4.4-4.916-4.513Z" filter="url(#u)"/><path fill="#f9e6ff" d="M50.42 44.212c-3.428-.138-6.296 2.109-6.405 5.017-.11 2.908 2.58 5.377 6.007 5.515 3.428.137 6.295-2.109 6.405-5.017.11-2.908-2.58-5.377-6.008-5.515Z" filter="url(#v)"/><path fill="#f9e6ff" d="M81.185 52.478c-2.964-.14-6.295 2.109-6.404 5.017-.11 2.909 3.043 5.374 6.007 5.515 2.965.142 6.05-1.413 5.85-4.95-.15-2.631-2.488-5.44-5.453-5.582Z" filter="url(#w)"/><path fill="#f9e6ff" d="M60.697 46.382c-3.428-.137-6.295 2.109-6.405 5.017-.11 2.908 2.58 5.378 6.008 5.515 3.427.138 6.295-2.108 6.404-5.017.11-2.908-2.58-5.377-6.007-5.515Z" filter="url(#x)"/><path fill="#f9e6ff" d="M79.757 38.253c-4.616 0-8.357 3.012-8.357 6.727 0 3.715 3.741 6.727 8.357 6.727 2.855 0 5.385-1.152 6.893-2.91v-7.689c-1.513-1.727-4.068-2.855-6.893-2.855Z" filter="url(#y)"/><path fill="#0d47a1" stroke="#000" stroke-opacity=".6" stroke-width=".11" d="M67.837 43.965 54.681 54.627 41.558 64.77V78.5H86.65V57.531l-4.243-2.903-13.294-9.73-1.276-.934Z" filter="url(#z)"/><path fill="#f9e6ff" d="M73.23 46.064c-4.557.387-7.978 3.835-7.64 7.7.338 3.866 4.306 6.686 8.864 6.299 4.557-.388 7.978-3.835 7.64-7.701-.338-3.866-4.307-6.686-8.864-6.298Z" filter="url(#A)"/><g fill="#f9e6ff"><path d="M39.28 33.759c-4.49 0-8.131 3.148-8.131 7.033 0 3.884 3.64 7.033 8.131 7.033s8.132-3.15 8.132-7.033c0-3.885-3.64-7.033-8.132-7.033Z" filter="url(#B)"/><path d="M28.486 37.358c-3.675 0-6.654 2.576-6.654 5.755 0 3.178 2.98 5.754 6.654 5.754 3.675 0 6.654-2.576 6.654-5.755 0-3.178-2.98-5.754-6.654-5.754Z" filter="url(#C)"/></g><path fill="#f9e6ff" d="M37.767 42.423c-2.03-.081-6.37 1.573-6.553 5.925-.182 4.353 4.06 6.281 6.09 6.363 3.998.16 7.343-2.46 7.471-5.854.128-3.393-3.01-6.273-7.008-6.434Z" filter="url(#D)"/><g fill="#f9e6ff"><path d="M55.477 36.08c-5.239 0-9.486 3.485-9.486 7.784 0 4.3 4.247 7.784 9.486 7.784 5.24 0 9.487-3.485 9.487-7.784 0-4.3-4.247-7.784-9.487-7.784Z" filter="url(#E)"/><path d="M40.673 37.758c-3.674 0-6.653 2.577-6.653 5.755s2.979 5.755 6.653 5.755c3.675 0 6.654-2.577 6.654-5.755s-2.979-5.755-6.654-5.755Z" filter="url(#F)"/><path d="M86.647 44.544a9.151 9.151 0 0 0-2.71-.431c-4.491 0-8.131 3.148-8.131 7.032 0 3.885 3.64 7.033 8.13 7.033.958 0 1.86-.168 2.711-.43V44.543Z" filter="url(#G)"/></g><g fill="#f9e6ff"><path d="M10.906 45.07c-2.025.154-6.145 2.3-5.822 6.644.322 4.344 4.759 5.768 6.784 5.614 3.99-.303 7.01-3.293 6.745-6.678-.266-3.385-3.716-5.883-7.707-5.58Z" filter="url(#H)"/><path d="M51.163 42.01c-4.56.347-8.012 3.764-7.709 7.633a6.174 6.174 0 0 0 1.185 3.163c1.553 2.136 4.437 3.456 7.623 3.213 4.56-.346 8.011-3.763 7.708-7.632-.304-3.869-4.247-6.724-8.807-6.377Z" filter="url(#I)"/><path d="M30.518 43.58c-3.42.26-6.008 2.822-5.78 5.724.227 2.901 3.184 5.042 6.605 4.782 3.42-.26 6.008-2.822 5.78-5.724-.227-2.901-3.184-5.043-6.605-4.783Z" filter="url(#J)"/><path d="M24.89 44.3c-2.8.212-4.917 2.31-4.73 4.684.186 2.374 2.605 4.126 5.404 3.913 2.8-.213 4.917-2.31 4.73-4.684-.185-2.374-2.605-4.126-5.404-3.914Z" filter="url(#K)"/><path d="M58.855 25.377c-2.796-.246-5.228 1.477-5.431 3.85-.204 2.372 1.898 4.496 4.694 4.743 2.796.247 5.227-1.477 5.431-3.85.204-2.372-1.898-4.496-4.694-4.743Z" filter="url(#L)"/><path d="M62.723 48.34c-3.489.423-6.928 3.526-6.475 6.718.452 3.193 4.625 5.265 8.114 4.841 3.488-.424 6.781-2.72 5.84-6.537-.699-2.84-3.99-5.447-7.479-5.023Z" filter="url(#M)"/></g><path fill="#0d47a1" d="M18.88 78.69h74.281L55.477 52.316 18.88 78.69Z" filter="url(#N)"/><path fill="#0d47a1" stroke="#000" stroke-opacity=".6" stroke-width=".11" d="M10.75 47.531V78.5l41.778.006L10.75 47.531Z" filter="url(#O)"/><path fill="#1565c0" d="m35.156 47.531-12.218 9.563-2.795 2.085-9.393 7.008V78.5h68.219L48.688 57.094 36.34 48.368l-1.185-.837Z" filter="url(#P)"/><path fill="#e1e7ea" d="M4.24 1.006V91.93h88.923V1.006H4.24Zm6.519 6.692h75.885V78.03H10.76V7.698Z" filter="url(#Q)"/><path fill="url(#R)" d="M84.328 53.224c-.645-.03-1.308.094-1.837.372L41.117 74.019c-2.598-.373-5.385-.094-7.546 1.093-3.588 1.97-8.727 11.326-8.727 11.326s16.458-1.186 20.047-3.157c2.35-1.29 3.181-3.19 2.69-4.992l38.19-22.342c1.06-.557 1.171-1.538.263-2.186-.455-.325-1.06-.506-1.706-.537Z"/><path fill="url(#S)" d="M38.875 68.787 79.738 36.68a2.454 2.454 0 0 1 3.396.256 2.303 2.303 0 0 1-.263 3.306L44.928 75.576l-6.053-6.789Z"/><path fill="#fff" stroke="#8e90a5" stroke-width=".1" d="M43.94 81.672c-2.92 2.55-14.79 4.221-18.185 4.654-.579.074 4.835-13.209 8.252-16.194 3.418-2.985 7.733-3.47 10.718-.052a8.218 8.218 0 0 1-.786 11.593Z"/><path fill="#fff" d="M43.952 81.66c-3.417 2.986-19.095 4.766-19.095 4.766s4.871-14.159 8.289-17.144a8.215 8.215 0 1 1 10.806 12.379Z"/><path fill="url(#T)" d="M43.952 81.66c-3.417 2.986-19.095 4.766-19.095 4.766s4.871-14.159 8.289-17.144a8.215 8.215 0 1 1 10.806 12.379Z"/><path fill="url(#U)" d="M43.952 81.66c-2.697 2.356-13.031 3.962-17.268 4.534-1.131.152-1.827.231-1.827.231s4.871-14.157 8.289-17.142A8.215 8.215 0 1 1 43.952 81.66Z" opacity=".288"/></svg>