<svg xmlns="http://www.w3.org/2000/svg" xml:space="preserve" stroke-linecap="round" stroke-linejoin="round" stroke-miterlimit="10" clip-rule="evenodd" width="100%" height="100%" viewBox="0 0 100 100"><defs><linearGradient id="a" x1="4.231" x2="95.769" y1="50" y2="50" gradientTransform="rotate(90 54.622 50) scale(1.09244)" gradientUnits="userSpaceOnUse"><stop offset="0" stop-color="#00ff73"/><stop offset=".289" stop-color="#00d863"/><stop offset="1" stop-color="#047d3b"/></linearGradient><linearGradient id="b" x1="76.75" x2="95.769" y1="49.894" y2="50" gradientTransform="rotate(90 54.622 50) scale(1.09244)" gradientUnits="userSpaceOnUse"><stop offset="0" stop-color="#a100bd"/><stop offset="1" stop-color="#650076"/></linearGradient><linearGradient id="d" x1="2.447" x2="16.687" y1="50.455" y2="50.897" gradientTransform="rotate(90 54.622 50) scale(1.09244)" gradientUnits="userSpaceOnUse"><stop offset="0" stop-color="#a100bd"/><stop offset="1" stop-color="#650076"/></linearGradient><linearGradient id="f" x1="70.231" x2="70.767" y1="89.433" y2="73.037" gradientTransform="rotate(90 54.622 50) scale(1.09244)" gradientUnits="userSpaceOnUse"><stop offset="0" stop-color="#2401ff"/><stop offset="1" stop-color="#6e8eff"/></linearGradient><linearGradient id="h" x1="41.418" x2="40.181" y1="-10.988" y2="61.731" gradientTransform="rotate(90 54.622 50) scale(1.09244)" gradientUnits="userSpaceOnUse"><stop offset="0" stop-color="#2401ff"/><stop offset="1" stop-color="#6e8eff"/></linearGradient><linearGradient id="j" x1="61.678" x2="61.811" y1="65.491" y2="35.52" gradientTransform="rotate(90 54.622 50) scale(1.09244)" gradientUnits="userSpaceOnUse"><stop offset="0" stop-color="#ff0a99"/><stop offset=".499" stop-color="#ff0280"/><stop offset="1" stop-color="#ff026b"/></linearGradient><filter id="c" width="83.249" height="21.089" x="7.258" y="84.896" color-interpolation-filters="sRGB" filterUnits="userSpaceOnUse"><feDropShadow dx="-1.118" dy=".841" flood-color="#000" flood-opacity=".5" in="SourceGraphic" result="Shadow" stdDeviation="2.058"/></filter><filter id="e" width="83.249" height="21.089" x="7.258" y="-4.304" color-interpolation-filters="sRGB" filterUnits="userSpaceOnUse"><feDropShadow dx="-1.118" dy=".841" flood-color="#000" flood-opacity=".5" in="SourceGraphic" result="Shadow" stdDeviation="2.058"/></filter><filter id="g" width="12.97" height="83.249" x="7.258" y="9.216" color-interpolation-filters="sRGB" filterUnits="userSpaceOnUse"><feDropShadow dx="-1.118" dy=".841" flood-color="#000" flood-opacity=".5" in="SourceGraphic" result="Shadow" stdDeviation="2.058"/></filter><filter id="i" width="12.97" height="83.249" x="77.537" y="9.216" color-interpolation-filters="sRGB" filterUnits="userSpaceOnUse"><feDropShadow dx="-1.118" dy=".841" flood-color="#000" flood-opacity=".5" in="SourceGraphic" result="Shadow" stdDeviation="2.058"/></filter><filter id="k" width="41.588" height="79.618" x="28.089" y="11.032" color-interpolation-filters="sRGB" filterUnits="userSpaceOnUse"><feDropShadow dx="-1.118" dy=".841" flood-color="#000" flood-opacity=".5" in="SourceGraphic" result="Shadow" stdDeviation="2.145"/></filter></defs><path fill="url(#a)" d="M86.48 0H13.52v10.8h72.96V0Zm0 14.88c0-.747-.613-1.36-1.36-1.36-.746 0-1.32.613-1.32 1.36a1.3 1.3 0 0 0 1.32 1.32c.747 0 1.36-.574 1.36-1.32Zm0 5.4c0-.747-.613-1.36-1.36-1.36-.746 0-1.32.613-1.32 1.36 0 .746.574 1.36 1.32 1.36.747 0 1.36-.614 1.36-1.36Zm0 5.4c0-.746-.613-1.36-1.36-1.36-.746 0-1.32.614-1.32 1.36 0 .746.574 1.36 1.32 1.36.747 0 1.36-.614 1.36-1.36Zm0 5.4c0-.746-.613-1.36-1.36-1.36-.746 0-1.32.614-1.32 1.36 0 .746.574 1.36 1.32 1.36.747 0 1.36-.614 1.36-1.36Zm0 5.4c0-.746-.613-1.36-1.36-1.36-.746 0-1.32.614-1.32 1.36 0 .747.574 1.36 1.32 1.36.747 0 1.36-.614 1.36-1.36Zm0 5.4c0-.746-.613-1.32-1.36-1.32a1.3 1.3 0 0 0-1.32 1.32c0 .747.574 1.36 1.32 1.36.747 0 1.36-.613 1.36-1.36Zm0 5.4c0-.746-.613-1.32-1.36-1.32a1.3 1.3 0 0 0-1.32 1.32c0 .747.574 1.36 1.32 1.36.747 0 1.36-.613 1.36-1.36Zm0 5.44c0-.747-.613-1.36-1.36-1.36-.746 0-1.32.613-1.32 1.36a1.3 1.3 0 0 0 1.32 1.32c.747 0 1.36-.574 1.36-1.32Zm0 5.4c0-.747-.613-1.36-1.36-1.36-.746 0-1.32.613-1.32 1.36a1.3 1.3 0 0 0 1.32 1.32c.747 0 1.36-.574 1.36-1.32Zm0 5.4c0-.747-.613-1.36-1.36-1.36-.746 0-1.32.614-1.32 1.36 0 .746.574 1.36 1.32 1.36.747 0 1.36-.614 1.36-1.36Zm0 5.4c0-.746-.613-1.36-1.36-1.36-.746 0-1.32.614-1.32 1.36 0 .746.574 1.36 1.32 1.36.747 0 1.36-.614 1.36-1.36Zm0 5.4c0-.746-.613-1.36-1.36-1.36-.746 0-1.32.614-1.32 1.36 0 .746.574 1.36 1.32 1.36.747 0 1.36-.614 1.36-1.36Zm0 5.4c0-.746-.613-1.36-1.36-1.36-.746 0-1.32.614-1.32 1.36 0 .747.574 1.36 1.32 1.36.747 0 1.36-.613 1.36-1.36Zm0 5.4c0-.746-.613-1.32-1.36-1.32a1.3 1.3 0 0 0-1.32 1.32c0 .747.574 1.36 1.32 1.36.747 0 1.36-.613 1.36-1.36Zm0 4.08H13.52V100h72.96V89.2ZM16.2 14.88c0-.747-.574-1.36-1.32-1.36-.747 0-1.36.613-1.36 1.36 0 .746.613 1.32 1.36 1.32a1.3 1.3 0 0 0 1.32-1.32Zm0 5.4c0-.747-.574-1.36-1.32-1.36-.747 0-1.36.613-1.36 1.36 0 .746.613 1.36 1.36 1.36.746 0 1.32-.614 1.32-1.36Zm0 5.4c0-.746-.574-1.36-1.32-1.36-.747 0-1.36.614-1.36 1.36 0 .746.613 1.36 1.36 1.36.746 0 1.32-.614 1.32-1.36Zm0 5.4c0-.746-.574-1.36-1.32-1.36-.747 0-1.36.614-1.36 1.36 0 .746.613 1.36 1.36 1.36.746 0 1.32-.614 1.32-1.36Zm0 5.4c0-.746-.574-1.36-1.32-1.36-.747 0-1.36.614-1.36 1.36 0 .747.613 1.36 1.36 1.36.746 0 1.32-.614 1.32-1.36Zm0 5.4a1.3 1.3 0 0 0-1.32-1.32c-.747 0-1.36.574-1.36 1.32 0 .747.613 1.36 1.36 1.36.746 0 1.32-.613 1.32-1.36Zm0 5.4a1.3 1.3 0 0 0-1.32-1.32c-.747 0-1.36.574-1.36 1.32 0 .747.613 1.36 1.36 1.36.746 0 1.32-.613 1.32-1.36Zm0 5.44c0-.747-.574-1.36-1.32-1.36-.747 0-1.36.613-1.36 1.36 0 .746.613 1.32 1.36 1.32a1.3 1.3 0 0 0 1.32-1.32Zm0 5.4c0-.747-.574-1.36-1.32-1.36-.747 0-1.36.613-1.36 1.36 0 .746.613 1.32 1.36 1.32a1.3 1.3 0 0 0 1.32-1.32Zm0 5.4c0-.747-.574-1.36-1.32-1.36-.747 0-1.36.614-1.36 1.36 0 .746.613 1.36 1.36 1.36.746 0 1.32-.614 1.32-1.36Zm0 5.4c0-.746-.574-1.36-1.32-1.36-.747 0-1.36.614-1.36 1.36 0 .746.613 1.36 1.36 1.36.746 0 1.32-.614 1.32-1.36Zm0 5.4c0-.746-.574-1.36-1.32-1.36-.747 0-1.36.614-1.36 1.36 0 .746.613 1.36 1.36 1.36.746 0 1.32-.614 1.32-1.36Zm0 5.4c0-.746-.574-1.36-1.32-1.36-.747 0-1.36.614-1.36 1.36 0 .747.613 1.36 1.36 1.36.746 0 1.32-.613 1.32-1.36Zm0 5.4a1.3 1.3 0 0 0-1.32-1.32c-.747 0-1.36.574-1.36 1.32 0 .747.613 1.36 1.36 1.36.746 0 1.32-.613 1.32-1.36Z"/><path fill="url(#b)" d="M86.48 89.2H13.52V100h72.96V89.2Z" filter="url(#c)"/><path fill="url(#d)" d="M86.48 0H13.52v10.8h72.96V0Z" filter="url(#e)"/><path fill="url(#f)" d="M16.2 14.88c0-.747-.574-1.36-1.32-1.36-.747 0-1.36.613-1.36 1.36 0 .746.613 1.32 1.36 1.32a1.3 1.3 0 0 0 1.32-1.32Zm0 5.4c0-.747-.574-1.36-1.32-1.36-.747 0-1.36.613-1.36 1.36 0 .746.613 1.36 1.36 1.36.746 0 1.32-.614 1.32-1.36Zm0 5.4c0-.746-.574-1.36-1.32-1.36-.747 0-1.36.614-1.36 1.36 0 .746.613 1.36 1.36 1.36.746 0 1.32-.614 1.32-1.36Zm0 5.4c0-.746-.574-1.36-1.32-1.36-.747 0-1.36.614-1.36 1.36 0 .746.613 1.36 1.36 1.36.746 0 1.32-.614 1.32-1.36Zm0 5.4c0-.746-.574-1.36-1.32-1.36-.747 0-1.36.614-1.36 1.36 0 .747.613 1.36 1.36 1.36.746 0 1.32-.614 1.32-1.36Zm0 5.4a1.3 1.3 0 0 0-1.32-1.32c-.747 0-1.36.574-1.36 1.32 0 .747.613 1.36 1.36 1.36.746 0 1.32-.613 1.32-1.36Zm0 5.4a1.3 1.3 0 0 0-1.32-1.32c-.747 0-1.36.574-1.36 1.32 0 .747.613 1.36 1.36 1.36.746 0 1.32-.613 1.32-1.36Zm0 5.44c0-.747-.574-1.36-1.32-1.36-.747 0-1.36.613-1.36 1.36 0 .746.613 1.32 1.36 1.32a1.3 1.3 0 0 0 1.32-1.32Zm0 5.4c0-.747-.574-1.36-1.32-1.36-.747 0-1.36.613-1.36 1.36 0 .746.613 1.32 1.36 1.32a1.3 1.3 0 0 0 1.32-1.32Zm0 5.4c0-.747-.574-1.36-1.32-1.36-.747 0-1.36.614-1.36 1.36 0 .746.613 1.36 1.36 1.36.746 0 1.32-.614 1.32-1.36Zm0 5.4c0-.746-.574-1.36-1.32-1.36-.747 0-1.36.614-1.36 1.36 0 .746.613 1.36 1.36 1.36.746 0 1.32-.614 1.32-1.36Zm0 5.4c0-.746-.574-1.36-1.32-1.36-.747 0-1.36.614-1.36 1.36 0 .746.613 1.36 1.36 1.36.746 0 1.32-.614 1.32-1.36Zm0 5.4c0-.746-.574-1.36-1.32-1.36-.747 0-1.36.614-1.36 1.36 0 .747.613 1.36 1.36 1.36.746 0 1.32-.613 1.32-1.36Zm0 5.4a1.3 1.3 0 0 0-1.32-1.32c-.747 0-1.36.574-1.36 1.32 0 .747.613 1.36 1.36 1.36.746 0 1.32-.613 1.32-1.36Z" filter="url(#g)"/><path fill="url(#h)" d="M86.48 14.88c0-.747-.613-1.36-1.36-1.36-.746 0-1.32.613-1.32 1.36a1.3 1.3 0 0 0 1.32 1.32c.747 0 1.36-.574 1.36-1.32Zm0 5.4c0-.747-.613-1.36-1.36-1.36-.746 0-1.32.613-1.32 1.36 0 .746.574 1.36 1.32 1.36.747 0 1.36-.614 1.36-1.36Zm0 5.4c0-.746-.613-1.36-1.36-1.36-.746 0-1.32.614-1.32 1.36 0 .746.574 1.36 1.32 1.36.747 0 1.36-.614 1.36-1.36Zm0 5.4c0-.746-.613-1.36-1.36-1.36-.746 0-1.32.614-1.32 1.36 0 .746.574 1.36 1.32 1.36.747 0 1.36-.614 1.36-1.36Zm0 5.4c0-.746-.613-1.36-1.36-1.36-.746 0-1.32.614-1.32 1.36 0 .747.574 1.36 1.32 1.36.747 0 1.36-.614 1.36-1.36Zm0 5.4c0-.746-.613-1.32-1.36-1.32a1.3 1.3 0 0 0-1.32 1.32c0 .747.574 1.36 1.32 1.36.747 0 1.36-.613 1.36-1.36Zm0 5.4c0-.746-.613-1.32-1.36-1.32a1.3 1.3 0 0 0-1.32 1.32c0 .747.574 1.36 1.32 1.36.747 0 1.36-.613 1.36-1.36Zm0 5.44c0-.747-.613-1.36-1.36-1.36-.746 0-1.32.613-1.32 1.36a1.3 1.3 0 0 0 1.32 1.32c.747 0 1.36-.574 1.36-1.32Zm0 5.4c0-.747-.613-1.36-1.36-1.36-.746 0-1.32.613-1.32 1.36a1.3 1.3 0 0 0 1.32 1.32c.747 0 1.36-.574 1.36-1.32Zm0 5.4c0-.747-.613-1.36-1.36-1.36-.746 0-1.32.614-1.32 1.36 0 .746.574 1.36 1.32 1.36.747 0 1.36-.614 1.36-1.36Zm0 5.4c0-.746-.613-1.36-1.36-1.36-.746 0-1.32.614-1.32 1.36 0 .746.574 1.36 1.32 1.36.747 0 1.36-.614 1.36-1.36Zm0 5.4c0-.746-.613-1.36-1.36-1.36-.746 0-1.32.614-1.32 1.36 0 .746.574 1.36 1.32 1.36.747 0 1.36-.614 1.36-1.36Zm0 5.4c0-.746-.613-1.36-1.36-1.36-.746 0-1.32.614-1.32 1.36 0 .747.574 1.36 1.32 1.36.747 0 1.36-.613 1.36-1.36Zm0 5.4c0-.746-.613-1.32-1.36-1.32a1.3 1.3 0 0 0-1.32 1.32c0 .747.574 1.36 1.32 1.36.747 0 1.36-.613 1.36-1.36Z" filter="url(#i)"/><path fill="url(#j)" d="M65.43 32.18 50 15.553 34.57 32.179h11.88V67.82H34.57L50 84.447 65.43 67.82H53.55V32.18h11.88Z" filter="url(#k)"/></svg>