<svg xmlns="http://www.w3.org/2000/svg" xml:space="preserve" stroke-linecap="round" stroke-linejoin="round" stroke-miterlimit="10" clip-rule="evenodd" width="100%" height="100%" viewBox="0 0 100 100"><defs><linearGradient id="a" x1="4.231" x2="95.769" y1="50" y2="50" gradientTransform="translate(-4.622 -1.535) scale(1.09244)" gradientUnits="userSpaceOnUse"><stop offset="0" stop-color="#00ff73"/><stop offset=".289" stop-color="#00d863"/><stop offset="1" stop-color="#047d3b"/></linearGradient><linearGradient id="b" x1="76.75" x2="95.769" y1="49.894" y2="50" gradientTransform="translate(-4.622 -1.535) scale(1.09244)" gradientUnits="userSpaceOnUse"><stop offset="0" stop-color="#a100bd"/><stop offset="1" stop-color="#650076"/></linearGradient><linearGradient id="d" x1="2.447" x2="16.687" y1="50.455" y2="50.897" gradientTransform="translate(-4.622 -1.535) scale(1.09244)" gradientUnits="userSpaceOnUse"><stop offset="0" stop-color="#a100bd"/><stop offset="1" stop-color="#650076"/></linearGradient><linearGradient id="f" x1="70.231" x2="70.767" y1="89.433" y2="73.037" gradientTransform="translate(-4.622 -1.535) scale(1.09244)" gradientUnits="userSpaceOnUse"><stop offset="0" stop-color="#2401ff"/><stop offset="1" stop-color="#6e8eff"/></linearGradient><linearGradient id="h" x1="41.418" x2="40.181" y1="-10.988" y2="61.731" gradientTransform="translate(-4.622 -1.535) scale(1.09244)" gradientUnits="userSpaceOnUse"><stop offset="0" stop-color="#2401ff"/><stop offset="1" stop-color="#6e8eff"/></linearGradient><linearGradient id="j" x1="61.678" x2="61.811" y1="65.491" y2="35.52" gradientTransform="translate(-4.622 -1.535) scale(1.09244)" gradientUnits="userSpaceOnUse"><stop offset="0" stop-color="#ff0a99"/><stop offset=".499" stop-color="#ff0280"/><stop offset="1" stop-color="#ff026b"/></linearGradient><filter id="c" width="21.089" height="83.249" x="82.938" y="12.303" color-interpolation-filters="sRGB" filterUnits="userSpaceOnUse"><feDropShadow dx="-1.118" dy=".841" flood-color="#000" flood-opacity=".5" in="SourceGraphic" result="Shadow" stdDeviation="2.058"/></filter><filter id="e" width="21.089" height="83.249" x="-6.262" y="12.303" color-interpolation-filters="sRGB" filterUnits="userSpaceOnUse"><feDropShadow dx="-1.118" dy=".841" flood-color="#000" flood-opacity=".5" in="SourceGraphic" result="Shadow" stdDeviation="2.058"/></filter><filter id="g" width="83.249" height="12.97" x="7.258" y="82.583" color-interpolation-filters="sRGB" filterUnits="userSpaceOnUse"><feDropShadow dx="-1.118" dy=".841" flood-color="#000" flood-opacity=".5" in="SourceGraphic" result="Shadow" stdDeviation="2.058"/></filter><filter id="i" width="83.249" height="12.97" x="7.258" y="12.303" color-interpolation-filters="sRGB" filterUnits="userSpaceOnUse"><feDropShadow dx="-1.118" dy=".841" flood-color="#000" flood-opacity=".5" in="SourceGraphic" result="Shadow" stdDeviation="2.058"/></filter><filter id="k" width="79.618" height="41.588" x="9.073" y="33.134" color-interpolation-filters="sRGB" filterUnits="userSpaceOnUse"><feDropShadow dx="-1.118" dy=".841" flood-color="#000" flood-opacity=".5" in="SourceGraphic" result="Shadow" stdDeviation="2.145"/></filter></defs><path fill="url(#a)" d="M0 16.607v72.96h10.8v-72.96H0Zm14.88 0c-.747 0-1.36.613-1.36 1.36 0 .746.613 1.32 1.36 1.32a1.3 1.3 0 0 0 1.32-1.32c0-.747-.574-1.36-1.32-1.36Zm5.4 0c-.747 0-1.36.613-1.36 1.36 0 .746.613 1.32 1.36 1.32.746 0 1.36-.574 1.36-1.32 0-.747-.614-1.36-1.36-1.36Zm5.4 0c-.746 0-1.36.613-1.36 1.36 0 .746.614 1.32 1.36 1.32.746 0 1.36-.574 1.36-1.32 0-.747-.614-1.36-1.36-1.36Zm5.4 0c-.746 0-1.36.613-1.36 1.36 0 .746.614 1.32 1.36 1.32.746 0 1.36-.574 1.36-1.32 0-.747-.614-1.36-1.36-1.36Zm5.4 0c-.746 0-1.36.613-1.36 1.36 0 .746.614 1.32 1.36 1.32.747 0 1.36-.574 1.36-1.32 0-.747-.614-1.36-1.36-1.36Zm5.4 0c-.746 0-1.32.613-1.32 1.36a1.3 1.3 0 0 0 1.32 1.32c.747 0 1.36-.574 1.36-1.32 0-.747-.613-1.36-1.36-1.36Zm5.4 0c-.746 0-1.32.613-1.32 1.36a1.3 1.3 0 0 0 1.32 1.32c.747 0 1.36-.574 1.36-1.32 0-.747-.613-1.36-1.36-1.36Zm5.44 0c-.747 0-1.36.613-1.36 1.36 0 .746.613 1.32 1.36 1.32a1.3 1.3 0 0 0 1.32-1.32c0-.747-.574-1.36-1.32-1.36Zm5.4 0c-.747 0-1.36.613-1.36 1.36 0 .746.613 1.32 1.36 1.32a1.3 1.3 0 0 0 1.32-1.32c0-.747-.574-1.36-1.32-1.36Zm5.4 0c-.747 0-1.36.613-1.36 1.36 0 .746.614 1.32 1.36 1.32.746 0 1.36-.574 1.36-1.32 0-.747-.614-1.36-1.36-1.36Zm5.4 0c-.746 0-1.36.613-1.36 1.36 0 .746.614 1.32 1.36 1.32.746 0 1.36-.574 1.36-1.32 0-.747-.614-1.36-1.36-1.36Zm5.4 0c-.746 0-1.36.613-1.36 1.36 0 .746.614 1.32 1.36 1.32.746 0 1.36-.574 1.36-1.32 0-.747-.614-1.36-1.36-1.36Zm5.4 0c-.746 0-1.36.613-1.36 1.36 0 .746.614 1.32 1.36 1.32.747 0 1.36-.574 1.36-1.32 0-.747-.613-1.36-1.36-1.36Zm5.4 0c-.746 0-1.32.613-1.32 1.36a1.3 1.3 0 0 0 1.32 1.32c.747 0 1.36-.574 1.36-1.32 0-.747-.613-1.36-1.36-1.36Zm4.08 0v72.96H100v-72.96H89.2Zm-74.32 70.28c-.747 0-1.36.574-1.36 1.32 0 .747.613 1.36 1.36 1.36.746 0 1.32-.613 1.32-1.36a1.3 1.3 0 0 0-1.32-1.32Zm5.4 0c-.747 0-1.36.574-1.36 1.32 0 .747.613 1.36 1.36 1.36.746 0 1.36-.613 1.36-1.36 0-.746-.614-1.32-1.36-1.32Zm5.4 0c-.746 0-1.36.574-1.36 1.32 0 .747.614 1.36 1.36 1.36.746 0 1.36-.613 1.36-1.36 0-.746-.614-1.32-1.36-1.32Zm5.4 0c-.746 0-1.36.574-1.36 1.32 0 .747.614 1.36 1.36 1.36.746 0 1.36-.613 1.36-1.36 0-.746-.614-1.32-1.36-1.32Zm5.4 0c-.746 0-1.36.574-1.36 1.32 0 .747.614 1.36 1.36 1.36.747 0 1.36-.613 1.36-1.36 0-.746-.614-1.32-1.36-1.32Zm5.4 0a1.3 1.3 0 0 0-1.32 1.32c0 .747.574 1.36 1.32 1.36.747 0 1.36-.613 1.36-1.36 0-.746-.613-1.32-1.36-1.32Zm5.4 0a1.3 1.3 0 0 0-1.32 1.32c0 .747.574 1.36 1.32 1.36.747 0 1.36-.613 1.36-1.36 0-.746-.613-1.32-1.36-1.32Zm5.44 0c-.747 0-1.36.574-1.36 1.32 0 .747.613 1.36 1.36 1.36.746 0 1.32-.613 1.32-1.36a1.3 1.3 0 0 0-1.32-1.32Zm5.4 0c-.747 0-1.36.574-1.36 1.32 0 .747.613 1.36 1.36 1.36.746 0 1.32-.613 1.32-1.36a1.3 1.3 0 0 0-1.32-1.32Zm5.4 0c-.747 0-1.36.574-1.36 1.32 0 .747.614 1.36 1.36 1.36.746 0 1.36-.613 1.36-1.36 0-.746-.614-1.32-1.36-1.32Zm5.4 0c-.746 0-1.36.574-1.36 1.32 0 .747.614 1.36 1.36 1.36.746 0 1.36-.613 1.36-1.36 0-.746-.614-1.32-1.36-1.32Zm5.4 0c-.746 0-1.36.574-1.36 1.32 0 .747.614 1.36 1.36 1.36.746 0 1.36-.613 1.36-1.36 0-.746-.614-1.32-1.36-1.32Zm5.4 0c-.746 0-1.36.574-1.36 1.32 0 .747.614 1.36 1.36 1.36.747 0 1.36-.613 1.36-1.36 0-.746-.613-1.32-1.36-1.32Zm5.4 0a1.3 1.3 0 0 0-1.32 1.32c0 .747.574 1.36 1.32 1.36.747 0 1.36-.613 1.36-1.36 0-.746-.613-1.32-1.36-1.32Z"/><path fill="url(#b)" d="M89.2 16.607v72.96H100v-72.96H89.2Z" filter="url(#c)"/><path fill="url(#d)" d="M0 16.607v72.96h10.8v-72.96H0Z" filter="url(#e)"/><path fill="url(#f)" d="M14.88 86.886c-.747 0-1.36.575-1.36 1.321 0 .747.613 1.36 1.36 1.36.746 0 1.32-.613 1.32-1.36a1.3 1.3 0 0 0-1.32-1.32Zm5.4 0c-.747 0-1.36.575-1.36 1.321 0 .747.613 1.36 1.36 1.36.746 0 1.36-.613 1.36-1.36 0-.746-.614-1.32-1.36-1.32Zm5.4 0c-.746 0-1.36.575-1.36 1.321 0 .747.614 1.36 1.36 1.36.746 0 1.36-.613 1.36-1.36 0-.746-.614-1.32-1.36-1.32Zm5.4 0c-.746 0-1.36.575-1.36 1.321 0 .747.614 1.36 1.36 1.36.746 0 1.36-.613 1.36-1.36 0-.746-.614-1.32-1.36-1.32Zm5.4 0c-.746 0-1.36.575-1.36 1.321 0 .747.614 1.36 1.36 1.36.747 0 1.36-.613 1.36-1.36 0-.746-.614-1.32-1.36-1.32Zm5.4 0a1.3 1.3 0 0 0-1.32 1.321c0 .747.574 1.36 1.32 1.36.747 0 1.36-.613 1.36-1.36 0-.746-.613-1.32-1.36-1.32Zm5.4 0a1.3 1.3 0 0 0-1.32 1.321c0 .747.574 1.36 1.32 1.36.747 0 1.36-.613 1.36-1.36 0-.746-.613-1.32-1.36-1.32Zm5.44 0c-.747 0-1.36.575-1.36 1.321 0 .747.613 1.36 1.36 1.36.746 0 1.32-.613 1.32-1.36a1.3 1.3 0 0 0-1.32-1.32Zm5.4 0c-.747 0-1.36.575-1.36 1.321 0 .747.613 1.36 1.36 1.36.746 0 1.32-.613 1.32-1.36a1.3 1.3 0 0 0-1.32-1.32Zm5.4 0c-.747 0-1.36.575-1.36 1.321 0 .747.614 1.36 1.36 1.36.746 0 1.36-.613 1.36-1.36 0-.746-.614-1.32-1.36-1.32Zm5.4 0c-.746 0-1.36.575-1.36 1.321 0 .747.614 1.36 1.36 1.36.746 0 1.36-.613 1.36-1.36 0-.746-.614-1.32-1.36-1.32Zm5.4 0c-.746 0-1.36.575-1.36 1.321 0 .747.614 1.36 1.36 1.36.746 0 1.36-.613 1.36-1.36 0-.746-.614-1.32-1.36-1.32Zm5.4 0c-.746 0-1.36.575-1.36 1.321 0 .747.614 1.36 1.36 1.36.747 0 1.36-.613 1.36-1.36 0-.746-.613-1.32-1.36-1.32Zm5.4 0a1.3 1.3 0 0 0-1.32 1.321c0 .747.574 1.36 1.32 1.36.747 0 1.36-.613 1.36-1.36 0-.746-.613-1.32-1.36-1.32Z" filter="url(#g)"/><path fill="url(#h)" d="M14.88 16.607c-.747 0-1.36.613-1.36 1.36 0 .746.613 1.32 1.36 1.32a1.3 1.3 0 0 0 1.32-1.32c0-.747-.574-1.36-1.32-1.36Zm5.4 0c-.747 0-1.36.613-1.36 1.36 0 .746.613 1.32 1.36 1.32.746 0 1.36-.574 1.36-1.32 0-.747-.614-1.36-1.36-1.36Zm5.4 0c-.746 0-1.36.613-1.36 1.36 0 .746.614 1.32 1.36 1.32.746 0 1.36-.574 1.36-1.32 0-.747-.614-1.36-1.36-1.36Zm5.4 0c-.746 0-1.36.613-1.36 1.36 0 .746.614 1.32 1.36 1.32.746 0 1.36-.574 1.36-1.32 0-.747-.614-1.36-1.36-1.36Zm5.4 0c-.746 0-1.36.613-1.36 1.36 0 .746.614 1.32 1.36 1.32.747 0 1.36-.574 1.36-1.32 0-.747-.614-1.36-1.36-1.36Zm5.4 0c-.746 0-1.32.613-1.32 1.36a1.3 1.3 0 0 0 1.32 1.32c.747 0 1.36-.574 1.36-1.32 0-.747-.613-1.36-1.36-1.36Zm5.4 0c-.746 0-1.32.613-1.32 1.36a1.3 1.3 0 0 0 1.32 1.32c.747 0 1.36-.574 1.36-1.32 0-.747-.613-1.36-1.36-1.36Zm5.44 0c-.747 0-1.36.613-1.36 1.36 0 .746.613 1.32 1.36 1.32a1.3 1.3 0 0 0 1.32-1.32c0-.747-.574-1.36-1.32-1.36Zm5.4 0c-.747 0-1.36.613-1.36 1.36 0 .746.613 1.32 1.36 1.32a1.3 1.3 0 0 0 1.32-1.32c0-.747-.574-1.36-1.32-1.36Zm5.4 0c-.747 0-1.36.613-1.36 1.36 0 .746.614 1.32 1.36 1.32.746 0 1.36-.574 1.36-1.32 0-.747-.614-1.36-1.36-1.36Zm5.4 0c-.746 0-1.36.613-1.36 1.36 0 .746.614 1.32 1.36 1.32.746 0 1.36-.574 1.36-1.32 0-.747-.614-1.36-1.36-1.36Zm5.4 0c-.746 0-1.36.613-1.36 1.36 0 .746.614 1.32 1.36 1.32.746 0 1.36-.574 1.36-1.32 0-.747-.614-1.36-1.36-1.36Zm5.4 0c-.746 0-1.36.613-1.36 1.36 0 .746.614 1.32 1.36 1.32.747 0 1.36-.574 1.36-1.32 0-.747-.613-1.36-1.36-1.36Zm5.4 0c-.746 0-1.32.613-1.32 1.36a1.3 1.3 0 0 0 1.32 1.32c.747 0 1.36-.574 1.36-1.32 0-.747-.613-1.36-1.36-1.36Z" filter="url(#i)"/><path fill="url(#j)" d="m32.18 37.656-16.626 15.43 16.625 15.432v-11.88H67.82v11.88l16.626-15.431-16.626-15.43v11.88H32.18v-11.88Z" filter="url(#k)"/></svg>