<svg viewBox="0 0 100 100" width="100%" height="100%" xmlns="http://www.w3.org/2000/svg" xmlns:xlink="http://www.w3.org/1999/xlink" xml:space="preserve" stroke-miterlimit="10" style="fill-rule:nonzero;clip-rule:evenodd;stroke-linecap:round;stroke-linejoin:round"><defs><linearGradient id="a" x1="0" x2="1" y1="0" y2="0" gradientTransform="rotate(.122 -14951.796 -4383.664) scale(74.38067)" gradientUnits="userSpaceOnUse"><stop offset="0" stop-color="#ffea00"/><stop offset=".259" stop-color="#fedc33"/><stop offset=".468" stop-color="#fdc600" stop-opacity=".95"/><stop offset=".632" stop-color="#fdb100" stop-opacity=".812"/><stop offset=".703" stop-color="#fdb100" stop-opacity="0"/><stop offset=".904" stop-color="#fcb307" stop-opacity="0"/><stop offset="1" stop-color="#fcb000" stop-opacity="0"/></linearGradient><linearGradient id="b" x1="0" x2="1" y1="0" y2="0" gradientTransform="matrix(-77.9169 .30222 -.30222 -77.9169 116.772 23.138)" gradientUnits="userSpaceOnUse"><stop offset="0" stop-color="#ffea00"/><stop offset=".259" stop-color="#fedc33"/><stop offset=".468" stop-color="#fdc600" stop-opacity=".95"/><stop offset=".632" stop-color="#fdb100" stop-opacity=".812"/><stop offset=".703" stop-color="#fdb100" stop-opacity="0"/><stop offset=".904" stop-color="#fcb307" stop-opacity="0"/><stop offset="1" stop-color="#fcb000" stop-opacity="0"/></linearGradient><linearGradient id="c" x1="0" x2="1" y1="0" y2="0" gradientTransform="rotate(33.506 -57.874 .355) scale(105.7347)" gradientUnits="userSpaceOnUse"><stop offset="0" stop-color="#fff563"/><stop offset=".203" stop-color="#fee751"/><stop offset=".411" stop-color="#fdeb23"/><stop offset=".69" stop-color="#fdc51b"/><stop offset=".876" stop-color="#fcb307"/><stop offset=".996" stop-color="#fcb000"/></linearGradient><linearGradient id="e" x1="0" x2="1" y1="0" y2="0" gradientTransform="rotate(33.506 -57.874 .355) scale(105.7347)" gradientUnits="userSpaceOnUse"><stop offset="0" stop-color="#fff563"/><stop offset=".203" stop-color="#fee751"/><stop offset=".411" stop-color="#fdeb23"/><stop offset=".69" stop-color="#fdc51b"/><stop offset=".876" stop-color="#fcb307"/><stop offset=".996" stop-color="#fcb000"/></linearGradient><linearGradient id="g" x1="0" x2="1" y1="0" y2="0" gradientTransform="rotate(-160.685 61.023 15.677) scale(92.5559)" gradientUnits="userSpaceOnUse"><stop offset="0" stop-color="#fff563"/><stop offset=".203" stop-color="#fee751"/><stop offset=".411" stop-color="#fdeb23"/><stop offset=".69" stop-color="#fdc51b"/><stop offset=".876" stop-color="#fcb307"/><stop offset=".996" stop-color="#fcb000"/></linearGradient><linearGradient id="i" x1="0" x2="1" y1="0" y2="0" gradientTransform="rotate(-160.685 61.023 15.677) scale(92.5559)" gradientUnits="userSpaceOnUse"><stop offset="0" stop-color="#fff563"/><stop offset=".203" stop-color="#fee751"/><stop offset=".411" stop-color="#fdeb23"/><stop offset=".69" stop-color="#fdc51b"/><stop offset=".876" stop-color="#fcb307"/><stop offset=".996" stop-color="#fcb000"/></linearGradient><filter id="d" width="36.254" height="47.125" x="30.713" y="49.77" color-interpolation-filters="sRGB" filterUnits="userSpaceOnUse"><feGaussianBlur in="SourceGraphic" result="Blur" stdDeviation="3"/></filter><filter id="f" width="38.754" height="49.625" x="29.463" y="48.52" color-interpolation-filters="sRGB" filterUnits="userSpaceOnUse"><feGaussianBlur in="SourceGraphic" result="Blur" stdDeviation="3.5"/></filter><filter id="h" width="36.249" height="46.519" x="38.568" y="4.125" color-interpolation-filters="sRGB" filterUnits="userSpaceOnUse"><feGaussianBlur in="SourceGraphic" result="Blur" stdDeviation="3"/></filter><filter id="j" width="38.749" height="49.019" x="37.318" y="2.875" color-interpolation-filters="sRGB" filterUnits="userSpaceOnUse"><feGaussianBlur in="SourceGraphic" result="Blur" stdDeviation="3.5"/></filter></defs><path fill="#00000000" fill-rule="nonzero" opacity="1" d="M0 7.10543e-15L100 7.10543e-15L100 100L0 100L0 7.10543e-15Z"/><g fill-rule="nonzero" opacity="1"><path fill="url(#a)" opacity="1" d="M57.8495 77.6024L57.864 77.5902C57.517 77.2262 57.1966 76.8427 56.801 76.5272L27.0003 45.6611C27.0003 38.2467 22.8866 34.3029 18.5351 33.2035C17.5182 32.9462 16.6639 33.9777 17.125 34.9193C18.438 37.5987 20.5446 43.0254 16.6712 45.6611C12.0235 48.8234 6.53616 45.7266 6.53616 38.618C6.53616 31.5095-3.45322 41.1397 1.36187 51.5756C6.17697 62.0115 18.887 58.0143 18.887 58.0143L46.865 87.0675C53.2504 93.6422 63.4655 84.9464 57.8495 77.6024Z"/><path fill="url(#b)" opacity="1" d="M99.5908 54.9515C93.504 48.8647 58.83 14.2101 58.0946 13.4747C51.003 7.12818 41.3049 18.6344 48.7241 24.5538C48.7241 24.5538 67.7296 43.5593 80.0271 55.8568C85.3737 61.2034 93.8559 61.4825 99.5423 56.7111C100.074 56.2645 100.081 55.4418 99.5908 54.9515Z"/><g opacity="1"><g opacity="1"><path fill="url(#c)" filter="url(#d)" opacity="1" d="M38.2128 57.2703L38.2128 78.0954L46.8715 87.0702C53.2568 93.6448 63.4531 84.9338 57.8371 77.5898C57.4959 77.2306 57.184 76.8263 56.7942 76.5154L38.2128 57.2703Z"/><path fill="url(#e)" filter="url(#f)" opacity="1" d="M38.2128 57.2703L38.2128 78.0954L46.8715 87.0702C53.2568 93.6448 63.4531 84.9338 57.8371 77.5898C57.4959 77.2306 57.184 76.8263 56.7942 76.5154L38.2128 57.2703Z"/></g><g opacity="1"><path fill="url(#g)" filter="url(#h)" opacity=".997" d="M52.5913 11.7015C47.2197 12.5377 43.1715 20.1237 48.736 24.5632C48.736 24.5632 59.296 35.1232 67.3174 43.1446L67.3174 22.6987C64.4845 19.8673 58.2534 13.6347 58.0899 13.4712C56.317 11.8846 54.3818 11.4228 52.5913 11.7015Z"/><path fill="url(#i)" filter="url(#j)" opacity="1" d="M52.5913 11.7015C47.2197 12.5377 43.1715 20.1237 48.736 24.5632C48.736 24.5632 59.296 35.1232 67.3174 43.1446L67.3174 22.6987C64.4845 19.8673 58.2534 13.6347 58.0899 13.4712C56.317 11.8846 54.3818 11.4228 52.5913 11.7015Z"/></g></g><path fill="#ff52de" fill-opacity=".6" opacity=".977" d="M52.7626 99.0786L52.7626 99.0786C60.8055 99.0786 67.3243 92.5597 67.3243 84.5168L67.3243 16.5618C67.3243 8.51883 60.8055 2 52.7626 2L52.7626 2C44.7196 2 38.2008 8.51883 38.2008 16.5618L38.2008 84.5168C38.2008 92.5597 44.7196 99.0786 52.7626 99.0786Z"/></g></svg>