<svg xmlns="http://www.w3.org/2000/svg" xmlns:xlink="http://www.w3.org/1999/xlink" viewBox="0,0,256,256" width="100%" height="100%" fill-rule="nonzero">
<defs>
	<linearGradient x1="-0.622" y1="16.364" x2="35.705" y2="40.414" id="color-1" gradientUnits="userSpaceOnUse"><stop offset="0" stop-color="#97f8ff"></stop><stop offset="0.217" stop-color="#6adcfe"></stop><stop offset="0.467" stop-color="#3cc1fd"></stop><stop offset="0.69" stop-color="#1badfd"></stop><stop offset="0.875" stop-color="#07a0fc"></stop><stop offset="1" stop-color="#009cfc" stop-opacity="0.76078"></stop></linearGradient>
	<linearGradient x1="49.995" y1="24.048" x2="14.005" y2="11.434" id="color-2" gradientUnits="userSpaceOnUse"><stop offset="0" stop-color="#97f8ff"></stop><stop offset="0.217" stop-color="#6adcfe"></stop><stop offset="0.467" stop-color="#3cc1fd"></stop><stop offset="0.69" stop-color="#1badfd"></stop><stop offset="0.875" stop-color="#07a0fc"></stop><stop offset="1" stop-color="#009cfc" stop-opacity="0.76078"></stop></linearGradient>
	<linearGradient x1="25" y1="8.831" x2="25" y2="40.328" id="color-3" gradientUnits="userSpaceOnUse"><stop offset="0" stop-color="#daa6ff" stop-opacity="0.6"></stop><stop offset="1" stop-color="#dca6ff" stop-opacity="0.4"></stop></linearGradient>
	<linearGradient x1="25" y1="47.234" x2="25" y2="-0.175" id="color-4" gradientUnits="userSpaceOnUse"><stop offset="0" stop-color="#daa6ff" stop-opacity="0.6"></stop><stop offset="1" stop-color="#f6e9ff" stop-opacity="0"></stop></linearGradient>
</defs>
<g>
<g transform="scale(5.33333,5.33333)">
	<path fill-opacity="0.78824" fill="#118bef" opacity="0.1" d="M30.95,37.09c0,0.88 -0.2,1.75 -0.61,2.58c-1.05,2.12 -3.31,3.54 -5.64,3.54c-1.67,0 -3.2,-0.67 -4.43,-1.93l-0.7,-0.72c-0.25,-0.52 -0.42,-1.09 -0.5,-1.69c-0.05,-0.28 -0.07,-0.57 -0.07,-0.87v-15.84l10.4,10.77c1.03,1.32 1.55,2.75 1.55,4.16z"/>
	<path fill-opacity="0.78824" fill="#118bef" opacity="0.2" d="M28.83,33.48l-9.83,-10.16v14.68c0,0.3 0.02,0.59 0.07,0.87l1.78,1.85c1.07,1.11 2.4,1.69 3.85,1.69c2.03,0 4.01,-1.25 4.92,-3.1c0.92,-1.86 0.66,-3.96 -0.79,-5.83z"/>
	<path fill-opacity="0.78824" fill="#118bef" opacity="0.3" d="M28.91,38.96c-0.79,1.58 -2.48,2.65 -4.21,2.65c-1.23,0 -2.36,-0.5 -3.28,-1.44l-2.42,-2.51v-13.2c3.72,3.86 9.15,9.48 9.25,9.58c1.22,1.57 1.44,3.34 0.66,4.92z"/>
	<path fill-opacity="0.78824" fill="#118bef" opacity="0.4" d="M28.19,38.6c-0.65,1.32 -2.05,2.21 -3.49,2.21c-1,0 -1.94,-0.42 -2.7,-1.2l-3,-3.12v-10.88c3.69,3.82 8.59,8.89 8.68,8.98c0.98,1.29 1.15,2.72 0.51,4.01z"/>
	<path fill="url(#color-1)" d="M27.096,35.151l0.006,-0.005c-0.143,-0.15 -0.275,-0.308 -0.438,-0.438l-12.279,-12.718c0,-3.055 -1.695,-4.68 -3.488,-5.133c-0.419,-0.106 -0.771,0.319 -0.581,0.707c0.541,1.104 1.409,3.34 -0.187,4.426c-1.915,1.303 -4.176,0.027 -4.176,-2.902c0,-2.929 -4.116,1.039 -2.132,5.339c1.984,4.3 7.221,2.653 7.221,2.653l11.528,11.971c2.631,2.709 6.84,-0.874 4.526,-3.9z"/>
	<path fill-opacity="0.78824" fill="#118bef" opacity="0.1" d="M31,10v15.48l-7.82,-7.82c-0.87,-0.87 -1.45,-1.45 -1.83,-1.87c-1.51,-1.23 -2.31,-2.9 -2.31,-4.66c0,-0.66 0.12,-1.33 0.35,-2c0.88,-2.53 3.38,-4.37 5.94,-4.37c1.46,0 2.85,0.55 4,1.58l1.09,1.09c0.24,0.5 0.42,1.05 0.5,1.63c0.05,0.3 0.08,0.62 0.08,0.94z"/>
	<path fill-opacity="0.78824" fill="#118bef" opacity="0.2" d="M31,10v14.35l-7.25,-7.25c-0.89,-0.89 -1.47,-1.47 -1.85,-1.89l-0.03,-0.02c-1.82,-1.45 -2.47,-3.67 -1.73,-5.79c0.78,-2.22 2.96,-3.84 5.19,-3.84c1.26,0 2.46,0.48 3.47,1.38l2.12,2.12c0.05,0.3 0.08,0.62 0.08,0.94z"/>
	<path fill-opacity="0.78824" fill="#118bef" opacity="0.3" d="M31,10.28v12.94l-6.69,-6.69c-0.9,-0.9 -1.49,-1.5 -1.88,-1.92l-0.09,-0.07c-1.52,-1.21 -2.07,-3.08 -1.44,-4.88c0.67,-1.91 2.53,-3.3 4.43,-3.3c1.06,0 2.08,0.41 2.93,1.18z"/>
	<path fill-opacity="0.78824" fill="#118bef" opacity="0.4" d="M31,11.4v10.69l-6.12,-6.13c-1.05,-1.04 -1.67,-1.66 -2.02,-2.07l-0.02,0.03c-1.27,-1.01 -1.71,-2.5 -1.19,-4c0.56,-1.6 2.11,-2.76 3.68,-2.76c0.86,0 1.69,0.34 2.4,0.97z"/>
	<path fill="url(#color-2)" d="M44.295,25.818c-2.508,-2.508 -16.795,-16.787 -17.098,-17.09c-2.922,-2.615 -6.918,2.126 -3.861,4.565c0,0 7.831,7.831 12.898,12.898c2.203,2.203 5.698,2.318 8.041,0.352c0.219,-0.184 0.222,-0.523 0.02,-0.725z"/>
	<path fill-opacity="0.78824" fill="#118bef" opacity="0.05" d="M33,14.53v8.43c-0.13,-0.13 -0.26,-0.27 -0.4,-0.4c-0.13,-0.13 -0.26,-0.27 -0.4,-0.4c-0.13,-0.14 -0.26,-0.27 -0.4,-0.4c-0.13,-0.14 -0.27,-0.27 -0.4,-0.41c-4.11,-4.11 -8.06,-8.06 -8.06,-8.06c-3.06,-2.44 0.94,-7.18 3.86,-4.56c0.1,0.1 1.85,1.85 4.2,4.2c0.13,0.13 0.26,0.26 0.4,0.39c0.13,0.14 0.26,0.27 0.4,0.41c0.13,0.13 0.27,0.26 0.4,0.4z"/>
	<path fill-opacity="0.78824" fill="#118bef" opacity="0.1" d="M32.6,14.13v8.43c-0.13,-0.13 -0.26,-0.27 -0.4,-0.4c-0.13,-0.14 -0.26,-0.27 -0.4,-0.4c-0.13,-0.14 -0.27,-0.27 -0.4,-0.41c-4.11,-4.11 -8.06,-8.06 -8.06,-8.06c-3.06,-2.44 0.94,-7.18 3.86,-4.56c0.1,0.1 1.85,1.85 4.2,4.2c0.13,0.13 0.26,0.26 0.4,0.39c0.13,0.14 0.26,0.27 0.4,0.41c0.13,0.13 0.27,0.26 0.4,0.4z"/>
	<path fill-opacity="0.78824" fill="#118bef" opacity="0.2" d="M32.2,13.73v8.43c-0.13,-0.14 -0.26,-0.27 -0.4,-0.4c-0.13,-0.14 -0.27,-0.27 -0.4,-0.41c-4.11,-4.11 -8.06,-8.06 -8.06,-8.06c-3.06,-2.44 0.94,-7.18 3.86,-4.56c0.1,0.1 1.85,1.85 4.2,4.2c0.13,0.13 0.26,0.26 0.4,0.39c0.13,0.14 0.26,0.27 0.4,0.41z"/>
	<path fill-opacity="0.78824" fill="#118bef" opacity="0.3" d="M31.8,13.32v8.44c-0.13,-0.14 -0.27,-0.27 -0.4,-0.41c-4.11,-4.11 -8.06,-8.06 -8.06,-8.06c-3.06,-2.44 0.94,-7.18 3.86,-4.56c0.1,0.1 1.85,1.85 4.2,4.2c0.13,0.13 0.26,0.26 0.4,0.39z"/>
	<path fill-opacity="0.78824" fill="#118bef" opacity="0.4" d="M31.4,12.93v8.42c-4.11,-4.11 -8.06,-8.06 -8.06,-8.06c-3.06,-2.44 0.94,-7.18 3.86,-4.56c0.1,0.1 1.85,1.85 4.2,4.2z"/>
	<path fill-opacity="0.78824" fill="#118bef" opacity="0.05" d="M27.1,35.15c2.31,3.02 -1.9,6.61 -4.53,3.9l-3.97,-4.12l-0.4,-0.42l-0.4,-0.41l-0.4,-0.42l-0.4,-0.41v-8.57c0.13,0.13 0.26,0.27 0.4,0.41c0.13,0.14 0.26,0.28 0.4,0.42c0.13,0.13 0.26,0.27 0.4,0.41c0.13,0.13 0.26,0.27 0.4,0.41c3.67,3.8 8.41,8.71 8.5,8.8z"/>
	<path fill-opacity="0.78824" fill="#118bef" opacity="0.1" d="M27.1,35.15c2.31,3.02 -1.9,6.61 -4.53,3.9l-3.97,-4.12l-0.4,-0.42l-0.4,-0.41l-0.4,-0.42v-8.57c0.13,0.14 0.26,0.28 0.4,0.42c0.13,0.13 0.26,0.27 0.4,0.41c0.13,0.13 0.26,0.27 0.4,0.41c3.67,3.8 8.41,8.71 8.5,8.8z"/>
	<path fill-opacity="0.78824" fill="#118bef" opacity="0.2" d="M27.1,35.15c2.31,3.02 -1.9,6.61 -4.53,3.9l-3.97,-4.12l-0.4,-0.42l-0.4,-0.41v-8.57c0.13,0.13 0.26,0.27 0.4,0.41c0.13,0.13 0.26,0.27 0.4,0.41c3.67,3.8 8.41,8.71 8.5,8.8z"/>
	<path fill-opacity="0.78824" fill="#118bef" opacity="0.3" d="M27.1,35.15c2.31,3.02 -1.9,6.61 -4.53,3.9l-3.97,-4.12l-0.4,-0.42v-8.57c0.13,0.13 0.26,0.27 0.4,0.41c3.67,3.8 8.41,8.71 8.5,8.8z"/>
	<path fill-opacity="0.78824" fill="#118bef" opacity="0.4" d="M27.1,35.15c2.31,3.02 -1.9,6.61 -4.53,3.9l-3.97,-4.12v-8.58c3.67,3.8 8.41,8.71 8.5,8.8z"/>
	<path fill="url(#color-3)" d="M25,44v0c3.314,0 6,-2.686 6,-6v-28c0,-3.314 -2.686,-6 -6,-6v0c-3.314,0 -6,2.686 -6,6v28c0,3.314 2.686,6 6,6z"/>
	<path fill="url(#color-4)" d="M25,4.5c3.033,0 5.5,2.467 5.5,5.5v28c0,3.033 -2.467,5.5 -5.5,5.5c-3.033,0 -5.5,-2.467 -5.5,-5.5v-28c0,-3.033 2.467,-5.5 5.5,-5.5M25,4v0c-3.314,0 -6,2.686 -6,6v28c0,3.314 2.686,6 6,6v0c3.314,0 6,-2.686 6,-6v-28c0,-3.314 -2.686,-6 -6,-6z"/>
</g>
</g>
</svg>