<svg xmlns="http://www.w3.org/2000/svg" xmlns:xlink="http://www.w3.org/1999/xlink" viewBox="0,0,256,256" width="100px" height="100px" fill-rule="nonzero"><defs><linearGradient x1="23.935" y1="21.674" x2="23.935" y2="39.674" gradientUnits="userSpaceOnUse" id="color-1"><stop offset="0" stop-color="#009cfc"></stop><stop offset="0.12" stop-color="#18abfc"></stop><stop offset="0.416" stop-color="#4eccfe"></stop><stop offset="0.672" stop-color="#76e4fe"></stop><stop offset="0.875" stop-color="#8ef3ff"></stop><stop offset="1" stop-color="#97f8ff"></stop></linearGradient><linearGradient x1="24.018" y1="36.626" x2="24.018" y2="-9.14" gradientUnits="userSpaceOnUse" id="color-2"><stop offset="0" stop-color="#daa6ff" stop-opacity="0"></stop><stop offset="0.036" stop-color="#dba8ff" stop-opacity="0"></stop><stop offset="1" stop-color="#c99fff" stop-opacity="0"></stop></linearGradient><linearGradient x1="24.018" y1="-2.35" x2="24.018" y2="34.603" gradientUnits="userSpaceOnUse" id="color-3"><stop offset="0" stop-color="#f9e9ff" stop-opacity="0"></stop><stop offset="1" stop-color="#daa6ff" stop-opacity="0"></stop></linearGradient></defs><g fill="none" fill-rule="nonzero" stroke="none" stroke-width="1" stroke-linecap="butt" stroke-linejoin="miter" stroke-miterlimit="10" stroke-dasharray="" stroke-dashoffset="0" font-family="none" font-weight="none" font-size="none" text-anchor="none" style="mix-blend-mode: normal"><g transform="scale(5.33333,5.33333)"><path d="M24,21c4.021,0.038 8.023,0.545 11.648,1.415c-1.185,-5.377 -5.983,-9.415 -11.713,-9.415c-5.72,0 -10.51,4.024 -11.706,9.386c3.639,-0.905 7.672,-1.425 11.771,-1.386z" fill="#0061ed" opacity="0.1"></path><path d="M24,21c3.719,0.035 7.421,0.47 10.825,1.222c-1.24,-4.863 -5.644,-8.472 -10.89,-8.472c-5.233,0 -9.628,3.591 -10.88,8.435c3.418,-0.781 7.155,-1.221 10.945,-1.185z" fill="#0061ed" opacity="0.2"></path><path d="M24,21c3.422,0.032 6.832,0.404 10.007,1.049c-1.276,-4.359 -5.303,-7.549 -10.072,-7.549c-4.754,0 -8.773,3.171 -10.062,7.51c3.194,-0.669 6.636,-1.043 10.127,-1.01z" fill="#0061ed" opacity="0.3"></path><path d="M24,21c3.124,0.029 6.235,0.346 9.17,0.889c-1.299,-3.857 -4.942,-6.639 -9.235,-6.639c-4.273,0 -7.901,2.757 -9.216,6.588c2.952,-0.561 6.097,-0.868 9.281,-0.838z" fill="#0061ed" opacity="0.4"></path><path d="M14.935,24.994c0,-4.971 4.034,-8.994 9,-8.994c4.968,0 9,4.023 9,8.994c0,4.977 -4.032,9.006 -9,9.006c-4.967,0 -9,-4.029 -9,-9.006z" fill="url(#color-1)"></path><path d="M23.935,16c-4.554,0 -8.314,3.386 -8.909,7.78c2.864,-0.522 5.901,-0.809 8.974,-0.78c3.015,0.028 6.009,0.337 8.854,0.846c-0.565,-4.426 -4.341,-7.846 -8.919,-7.846z" fill="#0061ed" opacity="0.05"></path><path d="M23.935,16c-4.411,0 -8.079,3.176 -8.846,7.369c2.846,-0.516 5.861,-0.798 8.911,-0.769c2.993,0.028 5.965,0.334 8.791,0.836c-0.74,-4.226 -4.42,-7.436 -8.856,-7.436z" fill="#0061ed" opacity="0.1"></path><path d="M23.935,16c-4.263,0 -7.831,2.968 -8.758,6.952c2.82,-0.505 5.805,-0.781 8.823,-0.752c2.965,0.028 5.908,0.329 8.711,0.822c-0.9,-4.019 -4.486,-7.022 -8.776,-7.022z" fill="#0061ed" opacity="0.2"></path><path d="M23.935,16c-4.112,0 -7.577,2.761 -8.65,6.532c2.788,-0.493 5.735,-0.76 8.715,-0.732c2.927,0.028 5.833,0.323 8.604,0.804c-1.049,-3.807 -4.529,-6.604 -8.669,-6.604z" fill="#0061ed" opacity="0.3"></path><path d="M23.935,16c-3.956,0 -7.313,2.556 -8.518,6.108c2.749,-0.478 5.65,-0.735 8.583,-0.708c2.884,0.027 5.746,0.315 8.481,0.784c-1.182,-3.592 -4.56,-6.184 -8.546,-6.184z" fill="#0061ed" opacity="0.4"></path><path d="M19.935,24.999c0,-2.213 1.786,-3.999 4,-3.999c2.204,0 4,1.786 4,3.999c0,2.22 -1.796,4.001 -4,4.001c-2.214,0 -4,-1.781 -4,-4.001z" fill="#0061ed"></path><path d="M47.841,24.421c-2.431,-4.303 -13.023,-13.381 -23.904,-13.381c-10.873,0 -20.468,9.065 -23.652,13.372c-0.311,0.421 -0.541,1.297 -0.109,1.959c4.955,7.595 15.113,13.129 23.824,13.129c8.735,0 18.906,-5.554 23.857,-13.183c0.451,-0.693 0.158,-1.589 -0.016,-1.896zM24,36.5c-7.443,0 -16.433,-4.775 -20.863,-11.125c4.976,-2.681 13.337,-4.446 20.863,-4.375c7.449,0.07 15.867,1.716 20.857,4.384c-4.431,6.346 -13.415,11.116 -20.857,11.116z" fill="url(#color-2)"></path><path d="M23.937,11.54c10.506,0 20.963,8.693 23.469,13.127c0.135,0.239 0.331,0.918 0.032,1.378c-5.029,7.749 -15.046,12.955 -23.438,12.955c-8.367,0 -18.371,-5.185 -23.404,-12.902c-0.286,-0.438 -0.13,-1.088 0.092,-1.389c1.625,-2.199 11.337,-13.169 23.249,-13.169M24,37c7.39,0 16.535,-4.553 21.267,-11.33c0.082,-0.117 0.11,-0.264 0.076,-0.403c-0.033,-0.139 -0.124,-0.257 -0.251,-0.324c-5.072,-2.711 -13.582,-4.372 -21.088,-4.443l-0.444,-0.002c-7.153,0 -15.503,1.659 -20.661,4.437c-0.126,0.068 -0.216,0.186 -0.249,0.324c-0.033,0.138 -0.005,0.285 0.076,0.402c4.732,6.782 13.879,11.339 21.274,11.339M23.937,11.04c-10.873,0 -20.468,9.065 -23.652,13.372c-0.311,0.421 -0.541,1.297 -0.109,1.959c4.955,7.595 15.113,13.129 23.824,13.129c8.735,0 18.906,-5.554 23.857,-13.183c0.45,-0.693 0.158,-1.589 -0.016,-1.896c-2.431,-4.303 -13.023,-13.381 -23.904,-13.381zM24,36.5c-7.443,0 -16.433,-4.775 -20.863,-11.125c4.879,-2.628 13.052,-4.377 20.424,-4.377c0.146,0 0.292,0.001 0.439,0.002c7.449,0.07 15.867,1.716 20.857,4.384c-4.431,6.346 -13.415,11.116 -20.857,11.116z" fill="url(#color-3)"></path></g></g></svg>