<svg xmlns="http://www.w3.org/2000/svg" width="100" height="100" viewBox="0 0 256 256"><defs><linearGradient id="a" x1="23.935" x2="23.935" y1="21.674" y2="39.674" gradientUnits="userSpaceOnUse"><stop offset="0" stop-color="#a60000" stop-opacity=".51"/><stop offset=".12" stop-color="#ffc00c"/><stop offset=".416" stop-color="#ffc700"/><stop offset=".672" stop-color="#ffa900"/><stop offset=".875" stop-color="#eab100"/><stop offset="1" stop-color="#c39300"/></linearGradient><linearGradient id="b" x1="24.018" x2="24.018" y1="36.626" y2="-9.14" gradientUnits="userSpaceOnUse"><stop offset="0" stop-color="#ffb8a6" stop-opacity=".6"/><stop offset=".036" stop-color="#ffb8a8" stop-opacity=".588"/><stop offset="1" stop-color="#ffc19f" stop-opacity=".588"/></linearGradient><linearGradient id="c" x1="24.018" x2="24.018" y1="-2.35" y2="34.603" gradientUnits="userSpaceOnUse"><stop offset="0" stop-color="#fff5e8" stop-opacity="0"/><stop offset="1" stop-color="#ffb8a6" stop-opacity=".6"/></linearGradient></defs><g fill="none" stroke-miterlimit="10" font-family="none" font-size="none" font-weight="none" style="mix-blend-mode:normal" text-anchor="none"><path fill="#ff169e" d="M128 112c21.445.203 42.79 2.907 62.123 7.547-6.32-28.678-31.91-50.214-62.47-50.214-30.506 0-56.053 21.462-62.432 50.059 19.408-4.827 40.918-7.6 62.779-7.392z" opacity=".1"/><path fill="#ff169e" d="M128 112c19.835.187 39.579 2.507 57.733 6.517-6.613-25.936-30.101-45.184-58.08-45.184-27.91 0-51.349 19.152-58.026 44.987 18.229-4.165 38.16-6.512 58.373-6.32z" opacity=".2"/><path fill="#ff169e" d="M128 112c18.25.17 36.437 2.155 53.37 5.595-6.805-23.248-28.282-40.262-53.717-40.262-25.354 0-46.79 16.912-53.664 40.054 17.035-3.568 35.392-5.563 54.01-5.387z" opacity=".3"/><path fill="#ff169e" d="M128 112c16.661.155 33.253 1.845 48.907 4.741-6.928-20.57-26.358-35.408-49.254-35.408-22.79 0-42.138 14.704-49.152 35.136 15.744-2.992 32.518-4.63 49.499-4.47z" opacity=".4"/><path fill="url(#a)" d="M14.935 24.994c0-4.971 4.034-8.994 9-8.994 4.968 0 9 4.023 9 8.994 0 4.977-4.032 9.006-9 9.006-4.967 0-9-4.029-9-9.006z" transform="scale(5.33333)"/><path fill="#ff169e" d="M127.653 85.333c-24.288 0-44.341 18.059-47.514 41.494 15.274-2.784 31.472-4.315 47.86-4.16 16.08.149 32.049 1.797 47.222 4.512-3.013-23.606-23.152-41.846-47.568-41.846z" opacity=".05"/><path fill="#ff169e" d="M127.653 85.333c-23.525 0-43.088 16.939-47.178 39.302 15.178-2.752 31.258-4.256 47.525-4.102 15.963.15 31.813 1.782 46.885 4.459-3.946-22.539-23.573-39.659-47.232-39.659z" opacity=".1"/><path fill="#ff169e" d="M127.653 85.333c-22.736 0-41.765 15.83-46.71 37.078 15.04-2.694 30.96-4.166 47.057-4.011 15.813.15 31.51 1.755 46.459 4.384-4.8-21.435-23.926-37.45-46.806-37.45z" opacity=".2"/><path fill="#ff169e" d="M127.653 85.333c-21.93 0-40.41 14.726-46.133 34.838 14.87-2.63 30.587-4.054 46.48-3.904 15.61.149 31.11 1.722 45.888 4.288-5.595-20.304-24.155-35.222-46.235-35.222z" opacity=".3"/><path fill="#ff169e" d="M127.653 85.333c-21.098 0-39.002 13.632-45.43 32.576 14.662-2.55 30.134-3.92 45.777-3.776 15.381.144 30.645 1.68 45.232 4.182-6.304-19.158-24.32-32.982-45.579-32.982z" opacity=".4"/><path fill="#ff169e" d="M106.32 133.328c0-11.803 9.525-21.328 21.333-21.328 11.755 0 21.334 9.525 21.334 21.328 0 11.84-9.58 21.339-21.334 21.339a21.284 21.284 0 0 1-21.333-21.34z"/><path fill="url(#b)" d="M47.841 24.421C45.41 20.118 34.818 11.04 23.937 11.04c-10.873 0-20.468 9.065-23.652 13.372-.311.421-.541 1.297-.109 1.959C5.131 33.966 15.289 39.5 24 39.5c8.735 0 18.906-5.554 23.857-13.183.451-.693.158-1.589-.016-1.896zM24 36.5c-7.443 0-16.433-4.775-20.863-11.125C8.113 22.694 16.474 20.929 24 21c7.449.07 15.867 1.716 20.857 4.384C40.426 31.73 31.442 36.5 24 36.5z" transform="scale(5.33333)"/><path fill="url(#c)" d="M23.937 11.54c10.506 0 20.963 8.693 23.469 13.127.135.239.331.918.032 1.378C42.409 33.794 32.392 39 24 39 15.633 39 5.629 33.815.596 26.098c-.286-.438-.13-1.088.092-1.389C2.313 22.51 12.025 11.54 23.937 11.54M24 37c7.39 0 16.535-4.553 21.267-11.33a.497.497 0 0 0-.175-.727C40.02 22.232 31.51 20.571 24.004 20.5l-.444-.002c-7.153 0-15.503 1.659-20.661 4.437a.5.5 0 0 0-.173.726C7.458 32.443 16.605 37 24 37m-.063-25.96c-10.873 0-20.468 9.065-23.652 13.372-.311.421-.541 1.297-.109 1.959C5.131 33.966 15.289 39.5 24 39.5c8.735 0 18.906-5.554 23.857-13.183.45-.693.158-1.589-.016-1.896C45.41 20.118 34.818 11.04 23.937 11.04zM24 36.5c-7.443 0-16.433-4.775-20.863-11.125 4.879-2.628 13.052-4.377 20.424-4.377L24 21c7.449.07 15.867 1.716 20.857 4.384C40.426 31.73 31.442 36.5 24 36.5z" transform="scale(5.33333)"/></g></svg>