<svg xmlns="http://www.w3.org/2000/svg" viewBox="0 0 128 128"><path fill="none" fill-opacity="0" stroke="none" stroke-opacity="0" stroke-width=".3" d="M0 128h128V0H0v128M82 3c27.14 4.41 28.04 29.58 28 48-.04 18.42 19.01 53.45-2.08 62.92C86.83 123.39 62.08 121.51 40 125S-2.4 105.24 6.93 85.93C16.25 66.62 17.09 47 28.31 28.31 39.52 9.61 59.43-.67 82 3Z"/><path fill="none" fill-opacity="0" stroke="#000004" stroke-opacity=".12" stroke-width=".3" d="M82 3C59.43-.67 39.52 9.61 28.31 28.31 17.09 47 16.25 66.62 6.93 85.93-2.4 105.24 17.92 128.49 40 125c22.08-3.49 46.83-1.61 67.92-11.08 21.09-9.47 2.04-44.5 2.08-62.92.04-18.42-.86-43.59-28-48m22 15c2.13 3.95 3.71 7.45 4 12 .48 2.67.58 4.34 0 7 0 1-.03 2 0 3 .07 2.7-.56 4.98-1 7 .03 1 0 2 0 3v4c0 1-.02 2 0 3 .19 1.08 1.23 2.24 1 4-.06.49 0 1 0 1 8.48 4.52 6 13.27 6 22 0 3.06-.01 5.58-1 8-.14 1.11-.84 1.37-1 2-.12 2.85.03 14.68-2 16-.02.42-33.73 7.52-37 9-.27.25-1 0-1 0-13.22 17.23-73.86-1.83-65.02-26.02 8.83-24.2 14.28-52 28.77-72.23C50.24.53 92.25-3.77 104 18Z"/><path fill="none" fill-opacity="0" stroke="#000004" stroke-opacity=".25" stroke-width=".3" d="M72 119h-9c-1.14.13-1.91.13-3 0h-9c-.23.05-.7.78-1 1-10.3 7.59-52.17-7.99-41.67-26.67S26.46-.93 63 8h3c5.12-1.12 10.96-.97 16 0 5.21.41 12.45 2.35 17 5 1.71 1 3 2.38 4 4 .2.32.82.73 1 1C92.25-3.77 50.24.53 35.75 20.75 21.26 40.98 15.81 68.78 6.98 92.98-1.86 117.17 58.78 136.23 72 119Z"/><path fill="none" fill-opacity="0" stroke="#000004" stroke-opacity=".5" stroke-width=".3" d="M50 120c-5.86.84-13.2.27-18-2-5.94-2.81-17.55-6.36-20-13-1.43-3.88-.94-8.21 0-12 1.46-5.91 4.81-10.46 7-16 .25-1.09.89-3.36 1-4 .11-1.99-.17-4.02 0-6 .15-1.7-.07-1.85 1-3-.06-.49 0-1 0-1 .2-5.38 3.55-8.83 6-13 .46-1.11.66-1.85 1-3 1.6-5.52 3.41-11.53 7-16 .11-.47 0-1 0-1-.05-1.68.72-2.23 2-3 .12-.47 0-1 0-1 1.67-3.41 6.85-8.08 10-10 .67-.41 1.32-.65 2-1 2.66-2.47 4.28-4.13 8-5 .47-.11 1 0 1 0 1.08-1.11 2.28-1.89 4-2 .5-.03 1 0 1 0C26.46-.93 18.83 74.65 8.33 93.33-2.17 112.01 39.7 127.59 50 120Z"/><path fill="none" fill-opacity="0" stroke="#0017AA" stroke-opacity=".73" stroke-width=".3" d="M66 8c5.28 0 10.74-.42 16 0-5.04-.97-10.88-1.12-16 0Z"/><path fill="none" fill-opacity="0" stroke="#000144" stroke-opacity=".77" stroke-width=".3" d="M58 10c1.73-.11 2.91-.87 4-2-1.72.11-2.92.89-4 2Z"/><path fill="none" fill-opacity="0" stroke="#0020E6" stroke-opacity=".98" stroke-width=".3" d="M58 10s-.53-.11-1 0c-1.75 2.28-5.32 3.62-8 5-.68.35-1.33.59-2 1-3.41 3.18-6.14 7.3-10 10 0 0 .12.53 0 1-.32 1.3-1.34 2.12-2 3 0 0 .11.53 0 1-1.29 5.52-4.7 11.15-7 16-.34 1.15-.54 1.89-1 3-1.54 3.75-3.59 10.04-6 13 0 0-.06.51 0 1 .2 1.66-.79 2.04-1 3-.17 1.98.11 4.01 0 6-.1 1.93-.45 2.61-1 4-2.19 5.54-5.54 10.09-7 16-.41 3.34-.72 8.73 0 12 2.45 6.64 14.06 10.19 20 13 5.75 1.6 12.89 1 19 1h17c1.68-.22 5.5-1.43 7-3 .78-1.26 1.11-2.84 2-4 .7-.92 1.4-2.59 3-2 9.16-.83 18.8 0 28 0 .5 0 1.65.23 2 0 2.03-1.32 1.88-13.15 2-16 .09-1.99 0-4.01 0-6-.02-.1-1 0-1 0 0 .5.12 1.53 0 2-.42 1.6-.57 3.37-1 5-1.07 4.06-3.19 7.6-1 12-3.53.91-8.93 2.16-12 0-.2-.11-1.97-.93-2-1-.2 1.24-2.1.99-3 1-.5 0-1.51-.05-2 0-3.92.41-6.18-1.89-5-6-.28-.25-1.55-.15-2 0-3.7 1.19-.42-1.94-3-3-.46.96-.67.57 0 2 .19.41 0 1 0 1 .36 1.93-.27 4.05 0 6-1.54.37-2.4-1.43-4-1 .64.44 1.64 1.18 2 2-1.56-.41-2.69.46-4 1 0 1.54-.68 1.05-1 2-.44 1.32.28 3.78-2 4 .41-4.49-1.41-8.55-4-12-.96 2.12-.54 7.45-2 7-4.94-1.51-4.53-8.17-7-12 0 .02-1.04 1.3-1 2 .02.31.93 2.09 1 3 .12 1.51-.45 3.56 0 5 1.74 1.51 3.6 3.53 6 4 .48.09 1 0 1 0 1.4-.16 2.17.53 2 2-.06.49 0 1 0 1 .97.16 2.02-.13 3 0-1.77 2.03-5.48.53-8 1-1.96-.14-4.18-1.15-6-1-.82.07-2.5 1.05-4 1-.5-.02-1.5 0-2 0-3.65 2.48-6.16 1.8-10 1-3.49.26-5.28-1.31-8-3-.36-.22-1 0-1 0-3.62-1.77-7.96-3.94-11-6-.5.03-1.84.23-2 0-1.17-.17-2.66-2-3-3-.15-.45 0-1 0-1v-1c-1.26-1.3-1.05-3.07-1-5-.78-1.72.63-2.96 1-4 .35-.98.61-1.97 1-3 .87-2.29 1.51-4.14 3-6 .11-.47 0-1 0-1 .03-.35.68-.8 1-1 .9-1.12 1.37-2.72 2-4 .22-.75.91-2.58 1-3 .24-2.75.65-5.87 1-8 .24-4.45 1.03-8.38 3-12 .78-1.43 1.33-2.64 2-4 1-2.04 2-3.97 3-6 .73-1.99 1.24-4.28 2-6 .62-1.39 1.27-1.88 2-3 1.44-5.37 3.78-9.39 8-13 1.37-1.37 2.48-2.8 4-4 4.88-3.85 8.83-7 15-8 .96-.31 1.49-.99 3-1h2c.83-.22 1.67-.89 3-1 3.8-.33 8.22-.25 11 2h1c1.75-.21 1.92.65 3 1 1.57.27 2.52.6 4 1 2.31.62 4.17.52 6 2 .5.02 1 0 1 0 1.52.51 2.15 1.91 3 3 1.91 2.43 2.91 4.25 4 7 .41 1.03.92 1.46 1 3 .05.99 0 2.01 0 3 .3 1.65 1.76 2.19 0 4v2c-.14.8-.85 1.16-1 2-.09.48 0 1.5 0 2 1.3 3.06.3 5.22 0 8-.15 1.45-.27 3.57 0 5 .21 1.09.86 1.76 1 3 .04.38-.26 2.8 0 3 .16.83 1.18 1.52 1 3-.06.49 0 1 0 1 .88-.02 2.15-.2 3 0 1.78.43 1.51 1.71 2 3 1.32 3.48 1 7.87 1 12 .87-8.95.82-10.96-4-18 0 0-.06-.51 0-1-1.16-1.14-.97-2.28-1-4-.02-1 0-2 0-3-.33-1.78-.32-2.27 0-4 0-1 .03-2 0-3-.07-2.7.56-4.98 1-7-.03-1 0-2 0-3 0-2.32.15-4.69 0-7-.29-4.55-1.87-8.05-4-12-.18-.27-.8-.68-1-1-1.35-1.05-2.79-3.17-4-4-4.55-2.65-11.79-4.59-17-5-5.26-.42-10.72 0-16 0h-3s-.5-.03-1 0c-1.09 1.13-2.27 1.89-4 2m10 98c3.33 4.7-2.6 3.17 0 0Z"/><path fill="none" fill-opacity="0" stroke="#000328" stroke-opacity=".73" stroke-width=".3" d="M49 15c2.68-1.38 6.25-2.72 8-5-3.72.87-5.34 2.53-8 5Z"/><path fill="none" fill-opacity="0" stroke="#8987DC" stroke-width=".3" d="M68 11h3c.25-.27 0-1 0-1-1.33.11-2.17.78-3 1Z"/><path fill="none" fill-opacity="0" stroke="#EF9D9E" stroke-width=".3" d="M71 11c3.32 0 5.98-.04 9 1 .45.15 1.5 0 2 0-2.78-2.25-7.2-2.33-11-2 0 0 .25.73 0 1Z"/><path fill="none" fill-opacity="0" stroke="#C5BAC7" stroke-width=".3" d="M63 12c1.25-.2 2.21-.79 3-1-1.51.01-2.04.69-3 1Z"/><path fill="none" fill-opacity="0" stroke="#F9FAEF" stroke-width=".3" d="M63 12c-6.17 1-10.12 4.15-15 8-1.34 1.24-2.61 2.81-4 4-4.22 3.61-6.56 7.63-8 13-3.51 13.06 9.35 1.66 13-1-7.4 8.32 11.46 6.29 8-1 3.7 1.83 3.83-.97 3-4 5 5.62 13.4-1.05 20-1-.34 3.96 5.47 7.48 10 6 .65-.92 1.49-1.8 2-3 .63-5.09-4.85-18.52-12-21-3.02-1.04-5.68-1-9-1h-5c-.79.21-1.75.8-3 1Z"/><path fill="none" fill-opacity="0" stroke="#F5D6EF" stroke-width=".3" d="M92 33c1.14-2.68.65-7.35 4-9 1.21 1.4.98 3.26 1 5 .93-.66 5.48-5.29 7-3-1.09-2.75-2.09-4.57-4-7-1.04-1.08-2.1-1.78-3-3 0 0-.5.02-1 0-2.52-.1-4.06-1.22-6-2-1.48-.4-2.43-.73-4-1-1.69-.29-1.8.11-3-1h-1c-.5 0-1.55.15-2 0 7.15 2.48 12.63 15.91 12 21Z"/><path fill="none" fill-opacity="0" stroke="#F68293" stroke-width=".3" d="M86 13c-1.08-.35-1.25-1.21-3-1 1.2 1.11 1.31.71 3 1Z"/><path fill="none" fill-opacity="0" stroke="#000550" stroke-opacity=".62" stroke-width=".3" d="M103 17c-1-1.62-2.29-3-4-4 1.21.83 2.65 2.95 4 4Z"/><path fill="none" fill-opacity="0" stroke="#D55EA0" stroke-width=".3" d="M96 16c-1.83-1.48-3.69-1.38-6-2 1.94.78 3.48 1.9 6 2Z"/><path fill="none" fill-opacity="0" stroke="#001043" stroke-opacity=".82" stroke-width=".3" d="M37 26c3.86-2.7 6.59-6.82 10-10-3.15 1.92-8.33 6.59-10 10Z"/><path fill="none" fill-opacity="0" stroke="#BC6B9F" stroke-width=".3" d="M100 19c-.85-1.09-1.48-2.49-3-3 .9 1.22 1.96 1.92 3 3Z"/><path fill="none" fill-opacity="0" stroke="#9C9FCE" stroke-width=".3" d="M44 24c1.39-1.19 2.66-2.76 4-4-1.52 1.2-2.63 2.63-4 4Z"/><path fill="none" fill-opacity="0" stroke="#F091EC" stroke-width=".3" d="M92 33c-.51 1.2-1.35 2.08-2 3-1.66 2.36-1.43 4.16-5 1v6c.03.63 1.14-3.22 1-3 .64-1.05 4.51.35 6-1 2.08 1.16 1.21 6 4 4 .37-.22 1 0 1 0 .77.14 1.14 1.11 2 1 .09-.25.79-.69 1-1-.25-1.32.13-2.57 0-4-.09-.99.07-2.01 0-3-1.41-.51-2.15.81-2 2-8.04 3.5-6.38-4.64-1-8 .11-.47 0-1 0-1-.02-1.74.21-3.6-1-5-3.35 1.65-2.86 6.32-4 9Z"/><path fill="none" fill-opacity="0" stroke="#F7FDFC" stroke-width=".3" d="M97 29s.11.53 0 1c-.72 3.09-2.56 5.78-3 9 1.56.41 2.69-.46 4-1-.15-1.19.59-2.51 2-2 .07.99-.09 2.01 0 3 1.12-2.18 3.16-1.98 5-2v-5c0-.99.05-2.01 0-3 .04.19-1.02-3.02-1-3-1.52-2.29-6.07 2.34-7 3Z"/><path fill="none" fill-opacity="0" stroke="#A277BF" stroke-width=".3" d="M105 29c-.08-1.54-.59-1.97-1-3-.02-.02 1.04 3.19 1 3Z"/><path fill="none" fill-opacity="0" stroke="#000550" stroke-opacity=".95" stroke-width=".3" d="M35 30c.66-.88 1.68-1.7 2-3-1.28.77-2.05 1.32-2 3Z"/><path fill="none" fill-opacity="0" stroke="#F2DCE6" stroke-width=".3" d="M36 37c-.73 1.12-1.38 1.61-2 3-.74 2.42-.96 3.9-2 6-1 2.03-2 3.96-3 6 .65-.91 2.73-1.21 2-3 2.52 4.29 2.51-.88 5-2 2.09 6.58 3.5 14.27 2 21-6.63.62-13.1 18.95-10 25 .67-3.69 2.7-8.13 4-12 1.08 5.06-2.75 11.88-2 18-1.67-.24-.17-2.85-2-3-.05 2 .04 4 0 6 2.77.35 3.5-.08 6 0 .31-3.33-1.45-8.19 3-9 .09 2.79 4.33 3.35 7 3-1.33 6.55 6.81 11.01 4 17 4.97-5.44 5.4-6.1 3-14-.83-2.73-2.35-5.18-3-8 3.12 2.17 3.5 7.25 8 8-1.85-3.44.32-4.68 2-1 2.47 3.83 2.06 10.49 7 12-2.54-2.59-2.51-7.46-2-8 .43-.46 1.72-1.49 2-2 .12-.21 1.01-2.69 1-3-9.3-6.93-12.25-19.92-21-25 .95 2.14-1.45 3.66-2 5-.35 1.36-.86 2.55-1 4-.05.5 0 1.5 0 2 0 3.83.82 8.99-1 12-.56-2.24-1.38-4.48-1-7-.21-3.9.29-7.82 1-11 .73-3.32 1.18-6.66 2-10 .09-6.8-3.3-12.43-4-19 1.67 1.93 2.66 4.71 5 6 .43.17 1.51-.08 2 0 1.3-1.23 1.56-3.8 3-5 3 3.04.13 7.28 4 10 1.63.34 4.61-.23 6-1 3.41-2.5 1.21-6.78-3-5 4.37-6.51 6.27-16.46 15-20-1.76 1.78-2.17 4.54-4 6-1.22 3.06-.48 5.76-1 9 2.79 7.55 17.59 6 20-1 .15-.45 0-1.5 0-2-2.15 1.4-2.82 4.01-5 5-.45-.15-1.5 0-2 0-1.14 0-2.91.33-4 0-5.29.51-7.11-6.45-1-9 .24-.26 2.61 0 3 0 .99 0 2.01-.06 3 0 1.84.1 3.73.55 5 2v-6c3.57 3.16 3.34 1.36 5-1-4.53 1.48-10.34-2.04-10-6-6.6-.05-15 6.62-20 1 .83 3.03.7 5.83-3 4 3.46 7.29-15.4 9.32-8 1-3.65 2.66-16.51 14.06-13 1m21 9c.77 6.08-6.14.31 0 0m-9 2c-.94 3.2-3.91 1.31-6 1 1.3-1.85 4.08-2.59 6-1Z"/><path fill="none" fill-opacity="0" stroke="#F5D6EF" stroke-width=".3" d="M98 38c-1.31.54-2.44 1.41-4 1 .44-3.22 2.28-5.91 3-9-5.38 3.36-7.04 11.5 1 8Z"/><path fill="none" fill-opacity="0" stroke="#000550" stroke-opacity=".51" stroke-width=".3" d="M108 37c.58-2.66.48-4.33 0-7 .15 2.31 0 4.68 0 7Z"/><path fill="none" fill-opacity="0" stroke="#000550" stroke-opacity=".92" stroke-width=".3" d="M28 47c2.3-4.85 5.71-10.48 7-16-3.59 4.47-5.4 10.48-7 16Z"/><path fill="none" fill-opacity="0" stroke="#8987DC" stroke-width=".3" d="M105 36c1.76-1.81.3-2.35 0-4v4Z"/><path fill="none" fill-opacity="0" stroke="#F4B5E9" stroke-width=".3" d="M59 58c4.83-2.68 5.75-11.39 4-16 2.04.02 2.32-5.17 4-3 1.83-1.46 2.24-4.22 4-6-8.73 3.54-10.63 13.49-15 20 4.21-1.78 6.41 2.5 3 5Z"/><path fill="none" fill-opacity="0" stroke="#F7E5F6" stroke-width=".3" d="M100 39c.13 1.43-.25 2.68 0 4 .21-.31.79-.73 1-1 1.26-1.62 2.34-2.84 4-4v-1c-1.84.02-3.88-.18-5 2Z"/><path fill="none" fill-opacity="0" stroke="#E938E4" stroke-width=".3" d="M59 58c-1.39.77-4.37 1.34-6 1-2.92-.62-3.83-4.49-7-5-.49-.08-1.57.17-2 0-3.63.71 0 5.99 0 9 .27-1.35.93-3.07 1-5 .16-.97-.13-2.02 0-3 2.78-.53.76 1.61 1 3 .86 4.37-1.43 8.47-1 13 2.2-.79 2.58-.64 4 1-.3-4.04 3.09-7 3-11 3.19 2.25 5.41 4.12 9 6 0-.5-.02-1.5 0-2-.38-1.24-1.14-2.15-1-4-.08-1.86 1.28-4.26 3-5 .41-2.81 2.56-5.2 3-8 .52-3.24-.22-5.94 1-9-1.68-2.17-1.96 3.02-4 3 1.75 4.61.83 13.32-4 16Z"/><path fill="none" fill-opacity="0" stroke="#F091EC" stroke-width=".3" d="M101 42c.51.18-.98 6.48-1 8-.89 1.38-1.51 3.24 1 3 .38-.39 1.74-.66 2-1 .1-1.33.77-1.2 1-2 .56-1.96 0-4.95 0-7-.19-1.63-.98-1.15 0-3 .15-.84.86-1.2 1-2-1.66 1.16-2.74 2.38-4 4Z"/><path fill="none" fill-opacity="0" stroke="#F564F4" stroke-width=".3" d="M86 40c1.76.61.7 2.96 0 4-.23.34 0 1 0 1 0 .5.15 1.55 0 2 2.58-1.89 2.44-.91 5-1 .43-.02 1.59-.82 2-1 1.58-.71 2-.33 3-2-2.79 2-1.92-2.84-4-4-1.49 1.35-5.36-.05-6 1Z"/><path fill="none" fill-opacity="0" stroke="#E89DD9" stroke-width=".3" d="M32 46c1.04-2.1 1.26-3.58 2-6-.76 1.72-1.27 4.01-2 6Z"/><path fill="none" fill-opacity="0" stroke="#A80CCE" stroke-width=".3" d="M85 43c.24.27.88.74 1 1 .7-1.04 1.76-3.39 0-4 .14-.22-.97 3.63-1 3Z"/><path fill="none" fill-opacity="0" stroke="#E45684" stroke-width=".3" d="M104 43v-1c0-.5-.09-1.52 0-2-.98 1.85-.19 1.37 0 3Z"/><path fill="none" fill-opacity="0" stroke="#000E75" stroke-opacity=".58" stroke-width=".3" d="M107 47c.44-2.02 1.07-4.3 1-7-.44 2.02-1.07 4.3-1 7Z"/><path fill="none" fill-opacity="0" stroke="#F68293" stroke-width=".3" d="M75 50c-.35-.11-.75-.76-1-1-.71-.68-1.88-.77-2-2-1.11-2.05-.7-3.9 2-5 .18-.07 0-1 0-1-6.11 2.55-4.29 9.51 1 9Z"/><path fill="none" fill-opacity="0" stroke="#EB3552" stroke-width=".3" d="M74 42c.16.23 1.5 0 2 0h1c.25-.25 0-1 0-1-.39 0-2.76-.26-3 0 0 0 .18.93 0 1Z"/><path fill="none" fill-opacity="0" stroke="#9F3335" stroke-width=".3" d="M77 42h3c-.25-.25 0-1 0-1-.99-.06-2.01 0-3 0 0 0 .25.75 0 1Z"/><path fill="none" fill-opacity="0" stroke="#F68293" stroke-width=".3" d="M80 42h1c2.41.95 2.23 3.15 1 5-.23.35 0 1 0 1-.03.16-1.26 1.91-1 2 2.18-.99 2.85-3.6 5-5 0 0-.23-.66 0-1-.12-.26-.76-.73-1-1-1.27-1.45-3.16-1.9-5-2 0 0-.25.75 0 1Z"/><path fill="none" fill-opacity="0" stroke="#B91A20" stroke-width=".3" d="M72 47c-.15-1.57.37-1.06 1-2-.25-.25 0-1 0-1 .02-.13.99-2 1-2-2.7 1.1-3.11 2.95-2 5Z"/><path fill="none" fill-opacity="0" stroke="#5D1613" stroke-width=".3" d="M73 44c.93-.77 2.13-1.35 3-2-.5 0-1.84.23-2 0-.01 0-.98 1.87-1 2Z"/><path fill="none" fill-opacity="0" stroke="#000004" stroke-width=".3" d="M73 44s-.25.75 0 1c.5-.05 1 0 1 0h2c2.33-1.78 3.01 1.64 5 3 .35-.23 1 0 1 0s-.23-.65 0-1c-.45-1.53-.04-3.09-1-5h-5c-.87.65-2.07 1.23-3 2Z"/><path fill="none" fill-opacity="0" stroke="#7A2B3D" stroke-width=".3" d="M82 47c1.23-1.85 1.41-4.05-1-5 .96 1.91.55 3.47 1 5Z"/><path fill="none" fill-opacity="0" stroke="#0034EC" stroke-width=".3" d="M100 43c-.21.31-.91.75-1 1-.45 1.22-.27 4.71 0 6 .24-.25 1 0 1 0 .02-1.52 1.51-7.82 1-8-.21.27-.79.69-1 1Z"/><path fill="none" fill-opacity="0" stroke="#773394" stroke-width=".3" d="M104 43c0 2.05.56 5.04 0 7 .3-2.78 1.3-4.94 0-8v1Z"/><path fill="none" fill-opacity="0" stroke="#5D1613" stroke-width=".3" d="M93 45c-1.23 1.31-.16 1.2 0 2-.47.05 2.12-1.06 2-1 .29-.18 1.74-1.73 2-2-.22-.37 0-1 0-1s-.63-.22-1 0c-1 1.67-1.42 1.29-3 2Z"/><path fill="none" fill-opacity="0" stroke="#001043" stroke-width=".3" d="M97 44c.78 1.28 2.24 5.96-1 4v1c1.16 1.23.17.49-1 1 .19.41 0 1 0 1 1.75.23 2.89.14 4-1-.27-1.29-.45-4.78 0-6-.86.11-1.23-.86-2-1 0 0-.22.63 0 1Z"/><path fill="none" fill-opacity="0" stroke="#7973A7" stroke-width=".3" d="M76 45c2.18.65 3.69 2.09 1 3 .23.34 0 1 0 1 .38-.21 1.71.25 2 0 .05-.04 1.78-.85 2-1-1.99-1.36-2.67-4.78-5-3Z"/><path fill="none" fill-opacity="0" stroke="#000004" stroke-width=".3" d="M95 46c.2-.1.97.65 1 1 .05.5 0 1 0 1 3.24 1.96 1.78-2.72 1-4-.26.27-1.71 1.82-2 2Z"/><path fill="none" fill-opacity="0" stroke="#3E0E0A" stroke-width=".3" d="M72 47c.12 1.23 1.29 1.32 2 2-.3-.14-1-1.67-1-2 0-.07 1.05-2.02 1-2 0 0-.5-.05-1 0-.63.94-1.15.43-1 2Z"/><path fill="none" fill-opacity="0" stroke="#A06485" stroke-width=".3" d="M73 47c.05.16 1.79 1.12 2 1-.99-.41-.7-2.51 0-3h-1c.05-.02-1 1.93-1 2Z"/><path fill="none" fill-opacity="0" stroke="#E1E8F5" stroke-width=".3" d="M75 48c.38-.21 1.84-.23 2 0 2.69-.91 1.18-2.35-1-3h-1c-.7.49-.99 2.59 0 3Z"/><path fill="none" fill-opacity="0" stroke="#F094BC" stroke-width=".3" d="M86 47c-2.41 7-17.21 8.55-20 1-.44 2.8-2.59 5.19-3 8 .42-.18 1 0 1 0 .37-1.8 1.1-3.36 2-5 1.57.96 3.25 2.32 4 4 5.28-.82 10.96.42 15-4-.37 1.54 1.43 2.4 1 4 .27-.25 1 0 1 0 1.22-1.81.83-1.11 2-1 1.93-.37 4.47.95 6 2 .3.21.77.72 1 1 1.66 2.03 1.68 4.27 2 7 .49.06 1 0 1 0 1.22.19 1.35 1.37 2 2h1c1.14-1.16 2.28-.97 4-1 0 0-.06-.51 0-1-.12-.26-.91-.65-1-1-8.29 2.56-7.42-9.15-2-9 0-.5-.04-1.5 0-2-.26.34-1.62.61-2 1-1.41 1.47-2.31 3.88-5 3 1.04-3.68-3.81-2.53-4-6-1.03-.32-1.5-3.1-1-4-2.56.09-2.42-.89-5 1Z"/><path fill="none" fill-opacity="0" stroke="#D7185D" stroke-width=".3" d="M91 46c-.5.9-.03 3.68 1 4 .46.14 1 0 1 0-.05-.5 0-1 0-1 0-.5.09-1.52 0-2-.16-.8-1.23-.69 0-2-.41.18-1.57.98-2 1Z"/><path fill="none" fill-opacity="0" stroke="#F9FAEF" stroke-width=".3" d="M57 46c-6.14.31.77 6.08 0 0Z"/><path fill="none" fill-opacity="0" stroke="#4945A4" stroke-width=".3" d="M93 47c.07-.09 2.92-.09 3 0-.03-.35-.8-1.1-1-1 .12-.06-2.47 1.05-2 1Z"/><path fill="none" fill-opacity="0" stroke="#F7FDFC" stroke-width=".3" d="M29 52c-.67 1.36-1.22 2.57-2 4-1.47 5.81 2.42 11.11 0 17 .24 3.18-.96 8.49-8 11 0 0 .11.53 0 1-.57 2.44-1.92 4.04-3 6-.39 1.03-.65 2.02-1 3-.05 2.94 2.32 6.86 0 10 0 0-.15.55 0 1 .72.79 2.33 1.27 3 2 2.38-.21 9.32-1.18 10 2 4.6 3.06 6.84 7.53 13 7 1.2-.1 3.07-1.23 5-1 .49.06 1 0 1 0 .45-.22.8-1.61 1-2 2.81-5.99-5.33-10.45-4-17-2.67.35-6.91-.21-7-3-4.45.81-2.69 5.67-3 9-2.5-.08-3.23.35-6 0 .04-2-.05-4 0-6 .02-.95-.17-2.07 0-3-3.1-6.05 3.37-24.38 10-25 1.5-6.73.09-14.42-2-21-2.49 1.12-2.48 6.29-5 2 .73 1.79-1.35 2.09-2 3Z"/><path fill="none" fill-opacity="0" stroke="#F9FAEF" stroke-width=".3" d="M48 48c-1.92-1.59-4.7-.85-6 1 2.09.31 5.06 2.2 6-1Z"/><path fill="none" fill-opacity="0" stroke="#2A1832" stroke-width=".3" d="M74 49c.3.14 2.71.16 3 0 0 0 .23-.66 0-1-.16-.23-1.62-.21-2 0-.21.12-1.95-.84-2-1 0 .33.7 1.86 1 2Z"/><path fill="none" fill-opacity="0" stroke="#E1E8F5" stroke-width=".3" d="M93 49c.25-.25 1 0 1 0 .5 0 1.84.23 2 0v-1s.05-.5 0-1c-.08-.09-2.93-.09-3 0 .09.48 0 1.5 0 2Z"/><path fill="none" fill-opacity="0" stroke="#F5C4F8" stroke-width=".3" d="M43 67c.24-.95.73-2.63 1-4 0-3.01-3.63-8.29 0-9-2.34-1.29-3.33-4.07-5-6 .7 6.57 4.09 12.2 4 19Z"/><path fill="none" fill-opacity="0" stroke="#793365" stroke-width=".3" d="M79 49c.23.34 0 1 0 1 .5 0 1.55-.15 2 0-.26-.09.97-1.84 1-2 0 0-.65-.23-1 0-.22.15-1.95.96-2 1Z"/><path fill="none" fill-opacity="0" stroke="#F5C4F8" stroke-width=".3" d="M46 54c3.17.51 4.08 4.38 7 5-3.87-2.72-1-6.96-4-10-1.44 1.2-1.7 3.77-3 5Z"/><path fill="none" fill-opacity="0" stroke="#D55EA0" stroke-width=".3" d="M75 50c1.09.33 2.86 0 4 0 0 0 .23-.66 0-1-.29.25-1.62-.21-2 0-.29.16-2.7.14-3 0 .25.24.65.89 1 1Z"/><path fill="none" fill-opacity="0" stroke="#793365" stroke-width=".3" d="M93 50c.22.15 1.3 1.74 2 1 0 0 .19-.59 0-1-.12-.26-.74-.88-1-1 0 0-.75-.25-1 0 0 0-.05.5 0 1Z"/><path fill="none" fill-opacity="0" stroke="#C5BAC7" stroke-width=".3" d="M95 50c1.17-.51 2.16.23 1-1-.16.23-1.5 0-2 0 .26.12.88.74 1 1Z"/><path fill="none" fill-opacity="0" stroke="#000F6B" stroke-opacity=".93" stroke-width=".3" d="M21 63c2.41-2.96 4.46-9.25 6-13-2.45 4.17-5.8 7.62-6 13Z"/><path fill="none" fill-opacity="0" stroke="#E96AC0" stroke-width=".3" d="M101 53c-2.51.24-1.89-1.62-1-3 0 0-.76-.25-1 0-1.11 1.14-2.25 1.23-4 1-.7.74-1.78-.85-2-1 0 0-.54.14-1 0 .19 3.47 5.04 2.32 4 6 2.69.88 3.59-1.53 5-3Z"/><path fill="none" fill-opacity="0" stroke="#AA3770" stroke-width=".3" d="M103 52c-.04.5 0 1.5 0 2v1c.25.25 1 0 1 0-.27-1.43-.15-3.55 0-5-.23.8-.9.67-1 2Z"/><path fill="none" fill-opacity="0" stroke="#000550" stroke-opacity=".71" stroke-width=".3" d="M107 54v-4c-.32 1.73-.33 2.22 0 4Z"/><path fill="none" fill-opacity="0" stroke="#F5CCAD" stroke-width=".3" d="M64 56c-.09 4.02 2.14 7.55 2 11 0 .02-1.52 3.15-3 3 .35 1.2-.16 2.76 0 4 .59 1.64 6.63 4.77 8 6 2.02.24 2.97 1.64 5 2 .49.09 1.53-.12 2 0-1.95-1.99-4-4.58-7-3-4.31-6.93-2.04-15.89-4-23 .95-1.69 2.53.73 3-1-.75-1.68-2.43-3.04-4-4-.9 1.64-1.63 3.2-2 5Z"/><path fill="none" fill-opacity="0" stroke="#F5F8E4" stroke-width=".3" d="M70 55c-.47 1.73-2.05-.69-3 1 1.96 7.11-.31 16.07 4 23 3-1.58 5.05 1.01 7 3 .35.09.74.88 1 1h1c2.36.84 5.34 1.42 8 1 .65-.34 2.39-4.29 2-5-.5-.04-1.51.08-2 0-3.71-.59-9.37-6.13-5-9 .03-.35.69-.79 1-1 .7-1.57.89-3.4 3-4 .27-.25 1 0 1 0-2.94-2.03-5.64-3.38-4-7 .36-.79 1.42-2.47 2-3 .43-1.6-1.37-2.46-1-4-4.04 4.42-9.72 3.18-15 4Z"/><path fill="none" fill-opacity="0" stroke="#EE626C" stroke-width=".3" d="M87 55h1c.35-.03.78-.96 1-1-1.17-.11-.78-.81-2 1Z"/><path fill="none" fill-opacity="0" stroke="#F6D1CD" stroke-width=".3" d="M88 55c-.81 1.05-2.91 4.8-4 3-1.64 3.62 1.06 4.97 4 7 2.64.07 4.81.76 7 0 .98-.34 1.42-1.19 3-1-.32-2.73-.34-4.97-2-7 0 .98-2.13 2.88-3 3-1.47 3.9-3.54-1.76-6 1-.12-4.02 4.3-.26 6-2 .12-.33 1.89-2.98 2-3-1.53-1.05-4.07-2.37-6-2-.22.04-.65.97-1 1Z"/><path fill="none" fill-opacity="0" stroke="#F7FDFC" stroke-width=".3" d="M105 63c-.12-.47.24-1.82 0-2-.26-.2.04-2.62 0-3-.4-1.26-2.06-.89-2-3v-1c-5.42-.15-6.29 11.56 2 9Z"/><path fill="none" fill-opacity="0" stroke="#AF1FF5" stroke-width=".3" d="M45 58c0-.02 1 0 1 0-.24-1.39 1.78-3.53-1-3-.13.98.16 2.03 0 3Z"/><path fill="none" fill-opacity="0" stroke="#7A2B3D" stroke-width=".3" d="M84 58c1.09 1.8 3.19-1.95 4-3h-1s-.73-.25-1 0c-.58.53-1.64 2.21-2 3Z"/><path fill="none" fill-opacity="0" stroke="#FA6543" stroke-width=".3" d="M105 58c-.14-1.24-.79-1.91-1-3 0 0-.75.25-1 0-.06 2.11 1.6 1.74 2 3Z"/><path fill="none" fill-opacity="0" stroke="#F5B3F6" stroke-width=".3" d="M24 68c-.16 2.92.49 6.12 0 9 .61-1.15 2.53-2.85 3-4 2.42-5.89-1.47-11.19 0-17-1.97 3.62-2.76 7.55-3 12Z"/><path fill="none" fill-opacity="0" stroke="#F7210D" stroke-width=".3" d="M60 61c.03.71 1.04 2.59 1 4-.02.5 0 1.5 0 2v1c.25.25 1 0 1 0 .94-.97 2.46-1.34 4-1 .14-3.45-2.09-6.98-2-11 0 0-.58-.18-1 0-1.72.74-3.08 3.14-3 5Z"/><path fill="none" fill-opacity="0" stroke="#AA3770" stroke-width=".3" d="M93 59c-.16.44 0 1 0 1 .87-.12 3-2.02 3-3-.23-.28-.7-.79-1-1-.11.02-1.88 2.67-2 3Z"/><path fill="none" fill-opacity="0" stroke="#000F6B" stroke-opacity=".86" stroke-width=".3" d="M108 61c.23-1.76-.81-2.92-1-4 .03 1.72-.16 2.86 1 4Z"/><path fill="none" fill-opacity="0" stroke="#5818A4" stroke-width=".3" d="M44 63c-.27 1.37-.76 3.05-1 4-.82 3.34-1.27 6.68-2 10-.04 1.92.61 2.7 1 4 .14-1.45.65-2.64 1-4 .55-2.12.2-3.53 2-5 .24-.2 0-1 0-1-.43-4.53 1.86-8.63 1-13 0 0-1-.02-1 0-.07 1.93-.73 3.65-1 5Z"/><path fill="none" fill-opacity="0" stroke="#F68293" stroke-width=".3" d="M93 60s-.16-.56 0-1c-1.7 1.74-6.12-2.02-6 2 2.46-2.76 4.53 2.9 6-1Z"/><path fill="none" fill-opacity="0" stroke="#F5C2E6" stroke-width=".3" d="M45 71s.24.8 0 1c8.75 5.08 11.7 18.07 21 25 1.7 1.27 3.23 2.93 5 4-.15-1.41-.65-3.34-2-4-.23-.23-3.72-2.36-5-4-.31-.21-.83-.67-1-1-1.83-1.37-3.37-3.72-4-6-.13-.46.18-1.58 0-2-.11-.26-.73-.8-1-1-1.49-1.13-2.5-1.46-1-3-.18-.42 0-1 0-1-2.7-2.23-.61-2.48 0-5 1.59 1.01 2.85 2.53 5 2-.83-1.93-.95-5.81-1-8v-1c-3.59-1.88-5.81-3.75-9-6 .09 4-3.3 6.96-3 11-1.42-1.64-1.8-1.79-4-1Z"/><path fill="none" fill-opacity="0" stroke="#D7185D" stroke-width=".3" d="M61 65c.04-1.41-.97-3.29-1-4-.14 1.85.62 2.76 1 4Z"/><path fill="none" fill-opacity="0" stroke="#A277BF" stroke-width=".3" d="M105 63c.09.35.88.74 1 1 .18-1.48-.84-2.17-1-3 .24.18-.12 1.53 0 2Z"/><path fill="none" fill-opacity="0" stroke="#000E75" stroke-opacity=".89" stroke-width=".3" d="M112 80v8c0 1.99.09 4.01 0 6 .16-.63.86-.89 1-2 .3-2.47.82-6.16 1-8 0-8.73 2.48-17.48-6-22 4.82 7.04 4.87 9.05 4 18Z"/><path fill="none" fill-opacity="0" stroke="#000F6B" stroke-opacity=".89" stroke-width=".3" d="M20 67c.21-.96 1.2-1.34 1-3-1.07 1.15-.85 1.3-1 3Z"/><path fill="none" fill-opacity="0" stroke="#3E0E0A" stroke-width=".3" d="M95 65c-.6.49-1.41 1.48-2 2-1.38 1.22-1.06 1.43-3 2-.13.04 0 1 0 1 .36.39 1 1.37 0 2h1c1.35-.96 8.93 7.9 9 10-2.79.42-5.9 3.21-1 3-2.62 2.11-1.17 4.21-1 7-1.91.43-6.06 5.88-2 4 1.26-1.95 2.59-3.4 4-5 .67-.76 1.33-1.35 2-2 .21-.27 1.82-2.67 2-3 .18-.46 1-2.48 1-3-.22-.67-.69-2.51-1-3-.14-.23-1 0-1 0 .2 1.64-.15 3.35 0 5-2.77-.34-3.21-8.32 0-6-.18-2.16-1.41-2.85-3-4-1.94-1.41-6-1.76-5-4 .06-.14 1.02-2.01 1-2-2-1.34-1.64-.08 0-2 1.02-1.2 2.11-1.85 3-3 0 0-.51.06-1 0-1.58-.19-2.02.66-3 1Z"/><path fill="none" fill-opacity="0" stroke="#BC2F39" stroke-width=".3" d="M96 67c1.05-.66 1.74-.91 3-1 .5-.04 1.5 0 2 0-.65-.63-.78-1.81-2-2-.89 1.15-1.98 1.8-3 3Z"/><path fill="none" fill-opacity="0" stroke="#F6D1CD" stroke-width=".3" d="M84 69c.31-.21.79-.69 1-1 .55-.83 1.32-2.38 2-3-2.11.6-2.3 2.43-3 4Z"/><path fill="none" fill-opacity="0" stroke="#F68293" stroke-width=".3" d="M85 68c2.8-3.34 5.22-.44 8-1 .59-.52 1.4-1.51 2-2-2.19.76-4.36.07-7 0 0 0-.73-.25-1 0-.68.62-1.45 2.17-2 3Z"/><path fill="none" fill-opacity="0" stroke="#FC1F2D" stroke-width=".3" d="M102 66c2.71.05 4.42 1.55 7 2 0-.41.26-2.74 0-3-.85-.2-2.12-.02-3 0-1.72.03-2.86-.16-4 1Z"/><path fill="none" fill-opacity="0" stroke="#F9F9C5" stroke-width=".3" d="M109 68v6c1.38 1.46.32.76 0 2 .23.16.04 1.5 0 2 1.33 3.12-.28 6.49 0 9 .24.63 1.96 2.83 2 3 .12-.47 0-1.5 0-2 0-6.18 1.31-13.98 0-20-.49-1.29-.22-2.57-2-3 .26.26 0 2.59 0 3Z"/><path fill="none" fill-opacity="0" stroke="#FC1F2D" stroke-width=".3" d="M85 68c-.21.31-.69.79-1 1-.31.21-.97.65-1 1-.05.5 0 1 0 1 .5-.05 1 0 1 0 .77-.51.69-1.08 2-1 .5.03 1 0 1 0 1.12-1.04 1.48-.59 3-1 1.94-.57 1.62-.78 3-2-2.78.56-5.2-2.34-8 1Z"/><path fill="none" fill-opacity="0" stroke="#F094BC" stroke-width=".3" d="M96 67c-1.64 1.92-2 .66 0 2 1.04-.38 3.66-.3 4 1-1.94-.62-3.13 1.2-5 1-1 2.24 3.06 2.59 5 4-1.32-2.75-1.13-2.64 1-4 1.14-.73 2.27-1.38 4-1-2.2-1.11-5.24-1.7-8-2 .08-1.26 2.06-.56 2-2-1.26.09-1.95.34-3 1Z"/><path fill="none" fill-opacity="0" stroke="#F2DCE6" stroke-width=".3" d="M105 70c1.85.93.73.73 2 2 .05-.01 2.03 1.06 2 1v-5c-2.58-.45-4.29-1.95-7-2h-1c-.5 0-1.5-.04-2 0 .06 1.44-1.92.74-2 2 2.76.3 5.8.89 8 2Z"/><path fill="none" fill-opacity="0" stroke="#F69C7C" stroke-width=".3" d="M62 68c-.44-.55 1.18 2.6 1 2 1.48.15 3-2.98 3-3-1.54-.34-3.06.03-4 1Z"/><path fill="none" fill-opacity="0" stroke="#F094BC" stroke-width=".3" d="M23 76c-.15 1.72-.41 1.79-1 3-.63 1.28-1.1 2.88-2 4 3.1-1.92 2.58-3.33 4-6 .49-2.88-.16-6.08 0-9-.35 2.13-.76 5.25-1 8Z"/><path fill="none" fill-opacity="0" stroke="#F68293" stroke-width=".3" d="M62 76c.25.59 1.72 1.47 2 2v-1c-.43-1.17-.83-1.68-1-3-.16-1.24.35-2.8 0-4 .18.6-1.44-2.55-1-2 0 0-.75.25-1 0 .05 2.19.17 6.07 1 8Z"/><path fill="none" fill-opacity="0" stroke="#C5BAC7" stroke-width=".3" d="M111 88s.98-.1 1 0v-8c0-4.13.32-8.52-1-12 1.31 6.02 0 13.82 0 20Z"/><path fill="none" fill-opacity="0" stroke="#AA3770" stroke-width=".3" d="M87 70c.35.03.97.65 1 1 .21-.42 1.86-.72 2-1 0 0-.13-.96 0-1-1.52.41-1.88-.04-3 1Z"/><path fill="none" fill-opacity="0" stroke="#9F3335" stroke-width=".3" d="M95 71c1.87.2 3.06-1.62 5-1-.34-1.3-2.96-1.38-4-1 .02-.01-.94 1.86-1 2Z"/><path fill="none" fill-opacity="0" stroke="#E7ADAB" stroke-width=".3" d="M88 79c-.23-.34 0-1 0-1-1.86-.54-1.72-.73-3-2-1.03-1.02-2.98-2.24-3-4 0-.33.65-.97 1-1 0 0-.05-.5 0-1-4.37 2.87 1.29 8.41 5 9Z"/><path fill="none" fill-opacity="0" stroke="#F2DCE6" stroke-width=".3" d="M84 71c.89.83 1.54 1.18 3 1-.13-.07-1.18-1.84-1-2-1.31-.08-1.23.49-2 1Z"/><path fill="none" fill-opacity="0" stroke="#A691A8" stroke-width=".3" d="M87 72c.49-.06 1 0 1 0-.25-.25 0-1 0-1-.03-.35-.65-.97-1-1 0 0-.5.03-1 0-.18.16.87 1.93 1 2Z"/><path fill="none" fill-opacity="0" stroke="#000" stroke-width=".3" d="M88 71s-.25.75 0 1h2c1-.63.36-1.61 0-2-.14.28-1.79.58-2 1Z"/><path fill="none" fill-opacity="0" stroke="#AA3770" stroke-width=".3" d="M101 71c1.13-.1 2.04.52 3 1 .41.21 1.73.73 2 1-.02-.01.65-.96 1-1-1.27-1.27-.15-1.07-2-2-1.73-.38-2.86.27-4 1Z"/><path fill="none" fill-opacity="0" stroke="#9F3335" stroke-width=".3" d="M82 72c.13-.06 1.76.94 2 1 1.03.26 4 .34 5 0-.05-.5 0-1 0-1h-1s-.51-.06-1 0c-1.46.18-2.11-.17-3-1 0 0-.5-.05-1 0-.35.03-1 .67-1 1ZM91 72c1.72.81.54 2.25-1 2 1.78.83 3.75 1.06 5 3 1.46 2.27.34 2.99 0 5-.09 1.9-.52 2.65-1 4-.39 1.09-1.81 3.24-2 4-.22.85 0 2.12 0 3 0 1.98.14 4.02 0 6-.19 2.66.23 5.48 0 8 .9-.01 2.8.24 3-1-.2-.4 0-1 0-1-1.44-.86-1.85-1.26-2-3-.19-2.18 1.91-4.31 3-6-4.06 1.88.09-3.57 2-4-.17-2.79-1.62-4.89 1-7-4.9.21-1.79-2.58 1-3-.07-2.1-7.65-10.96-9-10Z"/><path fill="none" fill-opacity="0" stroke="#F5D6EF" stroke-width=".3" d="M100 75c1.59 1.15 2.82 1.84 3 4 .04.5 0 1 0 1s.86-.23 1 0c-.39-2.71.04-4.21 3-4-.25-.25 0-1 0-1-1.07-.79-2.1-2.36-3-3-.96-.48-1.87-1.1-3-1-2.13 1.36-2.32 1.25-1 4Z"/><path fill="none" fill-opacity="0" stroke="#F091EC" stroke-width=".3" d="M43 77c.55-1.34 2.95-2.86 2-5-1.8 1.47-1.45 2.88-2 5Z"/><path fill="none" fill-opacity="0" stroke="#EE626C" stroke-width=".3" d="M85 76c-.49-.78-.57-2.48-1-3-.24-.06-1.87-1.06-2-1 .02 1.76 1.97 2.98 3 4Z"/><path fill="none" fill-opacity="0" stroke="#CA5F66" stroke-width=".3" d="M89 73c.03.35.66.84 1 1 1.54.25 2.72-1.19 1-2h-2s-.05.5 0 1Z"/><path fill="none" fill-opacity="0" stroke="#E89DD9" stroke-width=".3" d="M107 75c-.04-.24-.87-1.87-1-2-.27-.27-1.59-.79-2-1 .9.64 1.93 2.21 3 3Z"/><path fill="none" fill-opacity="0" stroke="#773394" stroke-width=".3" d="M106 73c.13.13.96 1.76 1 2 0 0-.25.75 0 1s1 0 1 0c.35-.18.93-1.63 1-2v-1c.03.06-1.95-1.01-2-1-.35.04-1.02.99-1 1Z"/><path fill="none" fill-opacity="0" stroke="#000144" stroke-opacity=".87" stroke-width=".3" d="M19 77c.55-1.39.9-2.07 1-4-.11.64-.75 2.91-1 4Z"/><path fill="none" fill-opacity="0" stroke="#FAE9EF" stroke-width=".3" d="M24 77c-1.42 2.67-.9 4.08-4 6-.32.2-.97.65-1 1 7.04-2.51 8.24-7.82 8-11-.47 1.15-2.39 2.85-3 4Z"/><path fill="none" fill-opacity="0" stroke="#F7210D" stroke-width=".3" d="M85 76c1.28 1.27 1.14 1.46 3 2 .87-.52 2.98.2 4 0 .52-.1 1.84-1.82 3-1-1.25-1.94-3.22-2.17-5-3-.34-.16-.97-.65-1-1-1 .34-3.97.26-5 0 .43.52.51 2.22 1 3Z"/><path fill="none" fill-opacity="0" stroke="#F564F4" stroke-width=".3" d="M57 79c.27-1.05 1.05-2.55 2-3 .4 3.53 3.4 5.98 5 9 .21.3.82.73 1 1-.18-1.29.26-2.72 0-4-.17-.83-1.18-1.52-1-3 .06-.49 0-1 0-1-.28-.53-1.75-1.41-2-2-2.15.53-3.41-.99-5-2-.61 2.52-2.7 2.77 0 5Z"/><path fill="none" fill-opacity="0" stroke="#F7210D" stroke-width=".3" d="M64 77c1.89 1.06 3.41 3.03 5 4 .42-.18 1.84.23 2 0-.25-.29 0-1 0-1-1.37-1.23-7.41-4.36-8-6 .17 1.32.57 1.83 1 3Z"/><path fill="none" fill-opacity="0" stroke="#F5CCAD" stroke-width=".3" d="M108 76h1c.32-1.24 1.38-.54 0-2-.07.37-.65 1.82-1 2Z"/><path fill="none" fill-opacity="0" stroke="#9F3335" stroke-width=".3" d="M22 79c.59-1.21.85-1.28 1-3-.09.42-.78 2.25-1 3Z"/><path fill="none" fill-opacity="0" stroke="#001FCF" stroke-width=".3" d="M57 79s-.18.58 0 1c.36.87.35 1.7 1 3 .27.2.89.74 1 1 1.76-.25 2.62 1.9 4 4 2.38-.39-1.06-2.67 1-3-1.6-3.02-4.6-5.47-5-9-.95.45-1.73 1.95-2 3Z"/><path fill="none" fill-opacity="0" stroke="#F7FDFC" stroke-width=".3" d="M104 80c.31.49.78 2.33 1 3 .68 2.03-1.17 10.83-3 12 .58.39.86 1.38 2 1 .95-1.45.65-3 2-4 .69-.99 2-3.73 3-2 .04.07.99 5.32 1 5 .43-1.63.58-3.4 1-5-.04-.17-1.76-2.37-2-3-.83-2.19-.69-4.32-1-7-.19-1.63-.66-2.5-1-4-2.96-.21-3.39 1.29-3 4Z"/><path fill="none" fill-opacity="0" stroke="#806878" stroke-width=".3" d="M108 80c.17-.6.92-.9 1-2 .04-.5.23-1.84 0-2h-1s-.75.25-1 0c.34 1.5.81 2.37 1 4Z"/><path fill="none" fill-opacity="0" stroke="#D13CB2" stroke-width=".3" d="M40 88c.11-1.09 1.7-3.94 2-5 0-.5-.05-1.5 0-2-.39-1.3-1.04-2.08-1-4-.71 3.18-1.21 7.1-1 11Z"/><path fill="none" fill-opacity="0" stroke="#F9B893" stroke-width=".3" d="M64 78s.06.51 0 1c1.78.59 2.2 1.09 3 3 .41.19 1 0 1 0 .35-.03.74-.89 1-1-1.59-.97-3.11-2.94-5-4v1Z"/><path fill="none" fill-opacity="0" stroke="#F272E1" stroke-width=".3" d="M92 78c2.75.75 2.49 5.16 2 8 .48-1.35.91-2.1 1-4 .08-1.66-.06-3.34 0-5-1.16-.82-2.48.9-3 1Z"/><path fill="none" fill-opacity="0" stroke="#D7185D" stroke-width=".3" d="M95 82c.34-2.01 1.46-2.73 0-5-.06 1.66.08 3.34 0 5Z"/><path fill="none" fill-opacity="0" stroke="#E89DD9" stroke-width=".3" d="M88 79c.49.08 1.5-.04 2 0 .99.08 2-.06 3 0 .69 2.83-2.71 4.55-5 5-2.66.42-5.64-.16-8-1 .25.25 0 1 0 1 2.99.47 3.1.69 3 3-.1 2.47-2 4.17-3 6-.59 1.07-.99 1.71-1 3v1c.46-.48 1.59-.6 2-1 .7-1.32 1.48-2.61 2-4 .51-1.35-.11-1.04 1-2 .64-2.17.26-5.99 4-5 .53 1.28-.97 1.86-1 3-.16.44.11 1.52 0 2-.21.93-1.49 2.23-2 3 1.76-1.62 6.22-2.25 7-3 .19-.76 1.61-2.91 2-4 .49-2.84.75-7.25-2-8-1.02.2-3.13-.52-4 0 0 0-.23.66 0 1Z"/><path fill="none" fill-opacity="0" stroke="#000004" stroke-width=".3" d="M103 80s.04-.5 0-1c-3.21-2.32-2.77 5.66 0 6-.15-1.65.2-3.36 0-5Z"/><path fill="none" fill-opacity="0" stroke="#F3E5DA" stroke-width=".3" d="M108 80c.31 2.68.17 4.81 1 7-.28-2.51 1.33-5.88 0-9-.08 1.1-.83 1.4-1 2Z"/><path fill="none" fill-opacity="0" stroke="#F4CCDD" stroke-width=".3" d="M65 82c-.87-.64 1.92-.04 2 0-.8-1.91-1.22-2.41-3-3-.18 1.48.83 2.17 1 3Z"/><path fill="none" fill-opacity="0" stroke="#F7E5F6" stroke-width=".3" d="M88 84c2.29-.45 5.69-2.17 5-5-1-.06-2.01.08-3 0 .39.71-1.35 4.66-2 5Z"/><path fill="none" fill-opacity="0" stroke="#B976E6" stroke-width=".3" d="M58 83c-.65-1.3-.64-2.13-1-3-1.5 1.54-.49 1.87 1 3Z"/><path fill="none" fill-opacity="0" stroke="#BC2F39" stroke-width=".3" d="M71 81c.87 1.03 2.07 1.87 3 3 .2.24 1 0 1 0 .26-.12.65-.97 1-1-.25-.25 0-1 0-1-2.03-.36-2.98-1.76-5-2 0 0-.25.71 0 1Z"/><path fill="none" fill-opacity="0" stroke="#F5C2E6" stroke-width=".3" d="M28 93c-.17.93.02 2.05 0 3 1.83.15.33 2.76 2 3-.75-6.12 3.08-12.94 2-18-1.3 3.87-3.33 8.31-4 12Z"/><path fill="none" fill-opacity="0" stroke="#F4E4E2" stroke-width=".3" d="M65 82c.26 1.28-.18 2.71 0 4-.04-.28.8 2.87 1 2v-3c2.69 3.69 6.71-.79 10 2-.47-.93-1.97-1.96-2-3-2-1.49-3.97.51-6-2 0 0-.59.19-1 0-.08-.04-2.87-.64-2 0Z"/><path fill="none" fill-opacity="0" stroke="#E7ADAB" stroke-width=".3" d="M68 82c2.03 2.51 4 .51 6 2-.93-1.13-2.13-1.97-3-3-.16.23-1.58-.18-2 0-.26.11-.65.97-1 1Z"/><path fill="none" fill-opacity="0" stroke="#F5AFD3" stroke-width=".3" d="M76 83c.5-.05 1 0 1 0h2c-.26-.12-.65-.91-1-1-.47-.12-1.51.09-2 0 0 0-.25.75 0 1Z"/><path fill="none" fill-opacity="0" stroke="#F094BC" stroke-width=".3" d="M40 88c-.38 2.52.44 4.76 1 7 1.82-3.01 1-8.17 1-12-.3 1.06-1.89 3.91-2 5Z"/><path fill="none" fill-opacity="0" stroke="#001043" stroke-width=".3" d="M59 84c.18.42-.13 1.54 0 2 1.6 1.98 2.75 3.6 4 6 .17.33.69.79 1 1 .98.65 2.1 1.33 3 2-.12-.21-.97-2.89-1-3 .48.62-3.16-1.47-3-3 1.28-.53 1.86.97 3 1 0-.5-.11-1.52 0-2-.2.87-1.04-2.28-1-2-.18-.27-.79-.7-1-1-2.06.33 1.38 2.61-1 3-1.38-2.1-2.24-4.25-4-4Z"/><path fill="none" fill-opacity="0" stroke="#7A2B3D" stroke-width=".3" d="M75 84c.87.32 2.23.62 3 1-.21-.25-.85-1.92-1-2 0 0-.5-.05-1 0-.35.03-.74.88-1 1Z"/><path fill="none" fill-opacity="0" stroke="#AA3770" stroke-width=".3" d="M78 85c.17.2 1.44 1.74 2 1 .08-.49 0-1.5 0-2 0 0 .25-.75 0-1h-3c.15.08.79 1.75 1 2Z"/><path fill="none" fill-opacity="0" stroke="#F5C2E6" stroke-width=".3" d="M104 86c-.52 1.29-1.1 2.13-2 3-.67.65-1.33 1.24-2 2-.82 1.39-1.66 3.44-2 5 .31-.78 2.34-.99 3-1h1c1.83-1.17 3.68-9.97 3-12 0 .52-.82 2.54-1 3Z"/><path fill="none" fill-opacity="0" stroke="#F5C4F8" stroke-width=".3" d="M76 87c.76 1.51 1.26 2.89 1 5 1.41-1.76 2.58-3.61 3-6-.56.74-1.83-.8-2-1-.77-.38-2.13-.68-3-1 0 0-.8.24-1 0 .03 1.04 1.53 2.07 2 3Z"/><path fill="none" fill-opacity="0" stroke="#302869" stroke-width=".3" d="M80 86c-.42 2.39-1.59 4.24-3 6-.06.49 0 1 0 1-.31 1.26-1.56 2.12-2 3-.36 1.02-.5 1.96-1 3 .05.35 1.02.93 1 1 .49-.83 1.35-2.41 2-3 .6-.97 2.55-3.14 3-4 .05-.1 2.86-5.55 3-6 .1-2.31-.01-2.53-3-3 0 .5.08 1.51 0 2Z"/><path fill="none" fill-opacity="0" stroke="#000013" stroke-opacity=".65" stroke-width=".3" d="M113 92c.99-2.42 1-4.94 1-8-.18 1.84-.7 5.53-1 8Z"/><path fill="none" fill-opacity="0" stroke="#F5AFD3" stroke-width=".3" d="M16 91c1.08-1.96 2.43-3.56 3-6-1.49 1.86-2.13 3.71-3 6Z"/><path fill="none" fill-opacity="0" stroke="#F7FDFC" stroke-width=".3" d="M66 88c-.11.48 0 1.5 0 2s-.12 1.53 0 2c.03.11.88 2.79 1 3 .98.73 1.3 1.06 2 2 1.35.66 1.85 2.59 2 4-1.77-1.07-3.3-2.73-5-4 .01.31-.88 2.79-1 3 .2.72 1.82.81 2 2 .07.49 0 1 0 1 1.87 2.49 3.63.31 5 1-.08-1.88 1.35-3.64 2-5 .5-1.04.64-1.98 1-3 .59-1.65.38-2.03 2-3 0 0-.06-.51 0-1 .26-2.11-.24-3.49-1-5-3.29-2.79-7.31 1.69-10-2v3Z"/><path fill="none" fill-opacity="0" stroke="#B91A20" stroke-width=".3" d="M84 90c.5-.43 1.58-.61 2-1 .19-.32.82-.73 1-1 .03-1.14 1.53-1.72 1-3-3.74-.99-3.36 2.83-4 5Z"/><path fill="none" fill-opacity="0" stroke="#4848C4" stroke-width=".3" d="M63 92c-1.25-2.4-2.4-4.02-4-6 .63 2.28 2.17 4.63 4 6Z"/><path fill="none" fill-opacity="0" stroke="#D7185D" stroke-width=".3" d="M102 89c.9-.87 1.48-1.71 2-3-.18.33-1.79 2.73-2 3Z"/><path fill="none" fill-opacity="0" stroke="#7973A7" stroke-width=".3" d="M80 93c1-1.83 2.9-3.53 3-6-.14.45-2.95 5.9-3 6Z"/><path fill="none" fill-opacity="0" stroke="#2A1832" stroke-width=".3" d="M86 89c-.81 1.34-2.17 1.96-3 3-.52 1.39-1.3 2.68-2 4-.37.7-.66 1.31-1 2 .14.6 2.52 1.21 3 1 .09-.35.87-.73 1-1-.12-.78-.35-3.31 0-4 .36-2.44 1.74-2.38 3-4 .11-.48-.16-1.56 0-2-.18.27-.81.68-1 1Z"/><path fill="none" fill-opacity="0" stroke="#000004" stroke-width=".3" d="M66 92c-.12-.47 0-1.5 0-2-1.14-.03-1.72-1.53-3-1-.16 1.53 3.48 3.62 3 3Z"/><path fill="none" fill-opacity="0" stroke="#7A2B3D" stroke-width=".3" d="M84 90c-1.11.96-.49.65-1 2 .83-1.04 2.19-1.66 3-3-.42.39-1.5.57-2 1Z"/><path fill="none" fill-opacity="0" stroke="#F6F2F5" stroke-width=".3" d="M85 93c-.21.31-.87.73-1 1-.35.69-.12 3.22 0 4 .22 1.4-.03 1.97 1 1 .49-1.38 1.17-3.31 3-3-.95.87-.54 2.68-2 3 .09-.16-.14 2.77-1 2-1.18 4.11 1.08 6.41 5 6-.23-.18 0-2.66 0-3-.36-.94-4.02-2.71-1-4 .46-2.15 2.67-4.66 3-7 0-.88-.22-2.15 0-3-.78.75-5.24 1.38-7 3Z"/><path fill="none" fill-opacity="0" stroke="#9C9FCE" stroke-width=".3" d="M106 92c.72-.79 2.12-1.46 3-2-1-1.73-2.31 1.01-3 2Z"/><path fill="none" fill-opacity="0" stroke="#302869" stroke-width=".3" d="M84 94c.13-.27.79-.69 1-1 .51-.77 1.79-2.07 2-3-1.26 1.62-2.64 1.56-3 4Z"/><path fill="none" fill-opacity="0" stroke="#005AF7" stroke-width=".3" d="M106 92c-.25.27 0 1 0 1 1.38 1.57 1.36 3.46 0 5v1c.19 1.57-.88 2.17-1 3-.02 1.95.75 3.13 1 5h-9c3.07 2.16 8.47.91 12 0-2.19-4.4-.07-7.94 1-12-.01.32-.96-4.93-1-5-.88.54-2.28 1.21-3 2Z"/><path fill="none" fill-opacity="0" stroke="#CF8FB5" stroke-width=".3" d="M51 99c.06.16 1 0 1 0 1.09-1.11 1.21-.08 2 1 1.32.69 2.02 1.46 3 0-.04-.7 1-1.98 1-2-1.68-3.68-3.85-2.44-2 1-4.5-.75-4.88-5.83-8-8 .65 2.82 2.17 5.27 3 8Z"/><path fill="none" fill-opacity="0" stroke="#E45684" stroke-width=".3" d="M96 96c-1.09 1.69-3.19 3.82-3 6 .14-.59 2.57-1.61 3-2 .25-.23 1.94-1.78 2-2 .14-.46-.1-1.52 0-2 .34-1.56 1.18-3.61 2-5-1.41 1.6-2.74 3.05-4 5Z"/><path fill="none" fill-opacity="0" stroke="#00E7FB" stroke-width=".3" d="M104 96c-1.25 1.91-1.28.95-4 2-.48 2.75 5.45 4.1 0 4 1.5 1.09 2.14 4.36 0 2-.44-.16-1.62-.22-2 0-.02.42-.47 2.87-1 3h9c-.25-1.87-1.02-3.05-1-5 .02-1.69-.03-1.9 1-3v-6s-.25-.73 0-1c-1.35 1-1.05 2.55-2 4Z"/><path fill="none" fill-opacity="0" stroke="#000550" stroke-opacity=".87" stroke-width=".3" d="M12 105c-.72-3.27-.41-8.66 0-12-.94 3.79-1.43 8.12 0 12Z"/><path fill="none" fill-opacity="0" stroke="#4945A4" stroke-width=".3" d="M69 97c-.7-.94-1.02-1.27-2-2-.9-.67-2.02-1.35-3-2 1.28 1.64 4.77 3.77 5 4Z"/><path fill="none" fill-opacity="0" stroke="#8987DC" stroke-width=".3" d="M75 96c.44-.88 1.69-1.74 2-3-1.62.97-1.41 1.35-2 3Z"/><path fill="none" fill-opacity="0" stroke="#005AF7" stroke-width=".3" d="M77 97c.27-.25 1 0 1 0 .2-.32.82-.73 1-1 .01-1.29.41-1.93 1-3-.45.86-2.4 3.03-3 4Z"/><path fill="none" fill-opacity="0" stroke="#A277BF" stroke-width=".3" d="M89 100c-.02.09.89.65 1 1 .12-.46 1.87-1.62 2-2 .14-1.98 0-4.02 0-6-.33 2.34-2.54 4.85-3 7Z"/><path fill="none" fill-opacity="0" stroke="#00A4F0" stroke-width=".3" d="M106 98c1.36-1.54 1.38-3.43 0-5v5Z"/><path fill="none" fill-opacity="0" stroke="#7160C5" stroke-width=".3" d="M14 98c.05-.15 1 0 1 0v-4c-.37 1.04-1.78 2.28-1 4Z"/><path fill="none" fill-opacity="0" stroke="#F9F9C5" stroke-width=".3" d="M15 98v6c2.32-3.14-.05-7.06 0-10v4Z"/><path fill="none" fill-opacity="0" stroke="#8987DC" stroke-width=".3" d="M98 96c-.1.48.14 1.54 0 2-.76 2.55.13 3.78 0 6 .38-.22 1.56-.16 2 0-2.59-3.39-1-5.51 1-9-.66.01-2.69.22-3 1Z"/><path fill="none" fill-opacity="0" stroke="#00A4F0" stroke-width=".3" d="M100 104c2.14 2.36 1.5-.91 0-2 5.45.1-.48-1.25 0-4 2.72-1.05 2.75-.09 4-2-1.14.38-1.42-.61-2-1h-1c-2 3.49-3.59 5.61-1 9Z"/><path fill="none" fill-opacity="0" stroke="#8987DC" stroke-width=".3" d="M78 97c-.66 1.05-.54 1.97-1 3 .22-.25 1 0 1 0 .01-1.28.58-1.85 1-3v-1c-.18.27-.8.68-1 1Z"/><path fill="none" fill-opacity="0" stroke="#A24AD6" stroke-width=".3" d="M79 97c-.42 1.15-.99 1.72-1 3v1c.14-.14 1.81-1.21 2-1-.67-1.43-.46-1.04 0-2 .34-.69.63-1.3 1-2-.41.4-1.54.52-2 1Z"/><path fill="none" fill-opacity="0" stroke="#F5C4F8" stroke-width=".3" d="M85 99c.26-.25 1 0 1 0 1.46-.32 1.05-2.13 2-3-1.83-.31-2.51 1.62-3 3Z"/><path fill="none" fill-opacity="0" stroke="#00A4F0" stroke-width=".3" d="M75 100c-.92 1.55-1.84 3.18-2 5 2.01-.98 2.64-3.36 4-5 .46-1.03.34-1.95 1-3 0 0-.73-.25-1 0-.65.59-1.51 2.17-2 3Z"/><path fill="none" fill-opacity="0" stroke="#7973A7" stroke-width=".3" d="M15 103v-5s-.95-.15-1 0c-.05 1.93-.26 3.7 1 5Z"/><path fill="none" fill-opacity="0" stroke="#AF1FF5" stroke-width=".3" d="M52 99c.54 1.74 1.06 3.35 2 5 1.31 2.29 2.22 2.45 4 4-.45-1.44.12-3.49 0-5-.05.42-1.34 2.72-2 3 .44-2.33-1.24-4.02-2-6-.79-1.08-.91-2.11-2-1Z"/><path fill="none" fill-opacity="0" stroke="#000F6B" stroke-width=".3" d="M83 101c-.25-.25-.12-1.53 0-2-.48.21-2.86-.4-3-1 2.58 1.06-.7 4.19 3 3Z"/><path fill="none" fill-opacity="0" stroke="#8987DC" stroke-width=".3" d="M83 99c-.12.47-.25 1.75 0 2 .45-.15 1.72-.25 2 0 .86.77 1.09-2.16 1-2 0 0-.74-.25-1 0-1.03.97-.78.4-1-1-.13.27-.91.65-1 1Z"/><path fill="none" fill-opacity="0" stroke="#F5C2E6" stroke-width=".3" d="M96 100c-.85 1.66-.54 3.26-1 5 0 0-.2.6 0 1 .03.07 1.8.89 2 1 .53-.13.98-2.58 1-3 .13-2.22-.76-3.45 0-6-.06.22-1.75 1.77-2 2Z"/><path fill="none" fill-opacity="0" stroke="#FBD7FD" stroke-width=".3" d="M48 113c-.2.39-.55 1.78-1 2 6.82 1.02 8.39-5.81 7-11-.94-1.65-1.46-3.26-2-5 0 0-.94.16-1 0 2.4 7.9 1.97 8.56-3 14Z"/><path fill="none" fill-opacity="0" stroke="#005AF7" stroke-width=".3" d="M72 104c.07 1.6.31.96 1 2 .69-.84 2.43-2.3 3-1 .54-.81.58-.96 1-2 .31-.77.85-1.15 1-2v-1s-.78-.25-1 0c-1.36 1.64-1.99 4.02-4 5 .16-1.82 1.08-3.45 2-5 .02-.07-.95-.65-1-1-.65 1.36-2.08 3.12-2 5Z"/><path fill="none" fill-opacity="0" stroke="#7A2B3D" stroke-width=".3" d="M90 101c.24.8 0 2.16 0 3 0 .34-.23 2.82 0 3 .49-.05 1.5 0 2 0 .23-2.52-.19-5.34 0-8-.13.38-1.88 1.54-2 2Z"/><path fill="none" fill-opacity="0" stroke="#0080E6" stroke-width=".3" d="M105 102c.12-.83 1.19-1.43 1-3-1.03 1.1-.98 1.31-1 3Z"/><path fill="none" fill-opacity="0" stroke="#D95EF0" stroke-width=".3" d="M58 103c-.07-.91-.98-2.69-1-3-.98 1.46-1.68.69-3 0 .76 1.98 2.44 3.67 2 6 .66-.28 1.95-2.58 2-3Z"/><path fill="none" fill-opacity="0" stroke="#F5C4F8" stroke-width=".3" d="M63 102c-.13.66 1.35 2.84 2 3-.11-1.7-.38-4.84 2-3-.18-1.19-1.8-1.28-2-2-.28.51-1.57 1.54-2 2Z"/><path fill="none" fill-opacity="0" stroke="#F9ABFB" stroke-width=".3" d="M78 101c-.15.85-.69 1.23-1 2 .51-.82 2.39-1.33 3-2 0 0 .19-.59 0-1-.19-.21-1.86.86-2 1Z"/><path fill="none" fill-opacity="0" stroke="#B994D5" stroke-width=".3" d="M90 104c0-.84.24-2.2 0-3-.11-.35-1.02-.91-1-1-3.02 1.29.64 3.06 1 4Z"/><path fill="none" fill-opacity="0" stroke="#E7ADAB" stroke-width=".3" d="M93 102c.15 1.74.56 2.14 2 3 .46-1.74.15-3.34 1-5-.43.39-2.86 1.41-3 2Z"/><path fill="none" fill-opacity="0" stroke="#A24AD6" stroke-width=".3" d="M65 110c1.46.45 1.04-4.88 2-7 0 0 .07-.51 0-1-2.38-1.84-2.11 1.3-2 3-.65-.16-2.13-2.34-2-3-.51.54-.54 5.41 2 8Z"/><path fill="none" fill-opacity="0" stroke="#F4E1FD" stroke-width=".3" d="M77 103c-.42 1.04-.46 1.19-1 2-.23.35 0 1 0 1 1.6-.43 2.46 1.37 4 1-.27-1.95.36-4.07 0-6-.61.67-2.49 1.18-3 2ZM73 111c.12-1.31 0-2.69 0-4v-1c-.69-1.04-.93-.4-1-2-1.37-.69-3.13 1.49-5-1 2.59 3.45 4.41 7.51 4 12 2.28-.22 1.56-2.68 2-4Z"/><path fill="none" fill-opacity="0" stroke="#F091EC" stroke-width=".3" d="M47 115s-.51.06-1 0c-.25.25 0 1 0 1h4c.5 0 1.5-.02 2 0 .43-.13 3.52-.72 4-1 .74-.44 1.37-2.35 2-3 3.04-3.12 2.92 2.32 6 0-2.4-.47-4.26-2.49-6-4-1.78-1.55-2.69-1.71-4-4 1.39 5.19-.18 12.02-7 11Z"/><path fill="none" fill-opacity="0" stroke="#000E75" stroke-width=".3" d="M73 106v1c.54.81 1 .67 1 2 1.31-.54 2.44-1.41 4-1-.36-.82-1.36-1.56-2-2 0 0-.23-.65 0-1-.57-1.3-2.31.16-3 1Z"/><path fill="none" fill-opacity="0" stroke="#8987DC" stroke-width=".3" d="M18 108c-.23-.34 0-1 0-1-.67-.73-2.28-1.21-3-2 .34 1 1.83 2.83 3 3Z"/><path fill="none" fill-opacity="0" stroke="#C5BAC7" stroke-width=".3" d="M18 108c.16.23 1.5.03 2 0 2.53-.16 5.16-.36 7 1 .32.24 1 0 1 0-.68-3.18-7.62-2.21-10-2 0 0-.23.66 0 1Z"/><path fill="none" fill-opacity="0" stroke="#5F556B" stroke-width=".3" d="M73 111c.32-.95 1-.46 1-2 0-1.33-.46-1.19-1-2 0 1.31.12 2.69 0 4Z"/><path fill="none" fill-opacity="0" stroke="#001043" stroke-width=".3" d="M31 114c-1.17-1.68-3.23-3.15-4-5-1.84-1.36-4.47-1.16-7-1 3.04 2.06 7.38 4.23 11 6Z"/><path fill="none" fill-opacity="0" stroke="#005AF7" stroke-width=".3" d="M68 108c-2.6 3.17 3.33 4.7 0 0Z"/><path fill="none" fill-opacity="0" stroke="#000004" stroke-width=".3" d="M31 114s.64-.22 1 0c-.77-1.86-2.88-3.4-4-5 0 0-.68.24-1 0 .77 1.85 2.83 3.32 4 5Z"/><path fill="none" fill-opacity="0" stroke="#592939" stroke-width=".3" d="M32 114c2.72 1.69 4.51 3.26 8 3 .5-.04 1 0 1 0 .25-.25 0-1 0-1-6.16.53-8.4-3.94-13-7 1.12 1.6 3.23 3.14 4 5Z"/><path fill="none" fill-opacity="0" stroke="#FAF0F9" stroke-width=".3" d="M58 112c.12 2.86.98 3.36 4 3 .16-.23 1.5 0 2 0 .26-.11.65-.91 1-1 .18-.42.23-1.84 0-2 0 0-.52.09-1 0-3.08 2.32-2.96-3.12-6 0Z"/><path fill="none" fill-opacity="0" stroke="#000013" stroke-opacity=".55" stroke-width=".3" d="M77 112c.93-.79 1.84-.82 3-1 .23-.14 0-1 0-1-1.6-.59-2.3 1.08-3 2Z"/><path fill="none" fill-opacity="0" stroke="#000550" stroke-opacity=".64" stroke-width=".3" d="M80 111c8.83-1.35 20.13 2.35 28-1-9.2 0-18.84-.83-28 0 0 0 .23.86 0 1Z"/><path fill="none" fill-opacity="0" stroke="#000004" stroke-opacity=".28" stroke-width=".3" d="M80 111c-1.16.18-2.07.21-3 1-.89 1.16-1.22 2.74-2 4-.51.83-1.34 2.4-2 3 3.27-1.48 36.98-8.58 37-9-.35.23-1.5 0-2 0-7.87 3.35-19.17-.35-28 1Z"/><path fill="none" fill-opacity="0" stroke="#B976E6" stroke-width=".3" d="M56 115c1.82-.15 4.04.86 6 1-.04 0 0-1 0-1-3.02.36-3.88-.14-4-3-.63.65-1.26 2.56-2 3Z"/><path fill="none" fill-opacity="0" stroke="#F5B3F6" stroke-width=".3" d="M65 114c.47-.12 1.84-.23 2 0 .17-1.47-.6-2.16-2-2 .23.16.18 1.58 0 2Z"/><path fill="none" fill-opacity="0" stroke="#7160C5" stroke-width=".3" d="M64 115c.39 0 2.76.26 3 0 0 0-.06-.51 0-1-.16-.23-1.53-.12-2 0-.35.09-.74.89-1 1Z"/><path fill="none" fill-opacity="0" stroke="#E7ADAB" stroke-width=".3" d="M41 116c1.31-.45 3.61 0 5 0 0 0-.25-.75 0-1-1.93-.23-3.8.9-5 1Z"/><path fill="none" fill-opacity="0" stroke="#773394" stroke-width=".3" d="M52 116c1.5.05 3.18-.93 4-1-.48.28-3.57.87-4 1Z"/><path fill="none" fill-opacity="0" stroke="#2A1832" stroke-width=".3" d="M62 116c2.52-.47 6.23 1.03 8-1-.98-.13-2.03.16-3 0-.24.26-2.61 0-3 0-.5 0-1.84-.23-2 0 0 0-.04 1 0 1Z"/><path fill="none" fill-opacity="0" stroke="#5D1613" stroke-width=".3" d="M41 117c2.72.26 4.94-.12 7-1h-2c-1.39 0-3.69-.45-5 0 0 0 .25.75 0 1Z"/><path fill="none" fill-opacity="0" stroke="#302869" stroke-width=".3" d="M41 117s-.5-.04-1 0c3.84.8 6.35 1.48 10-1h-2c-2.06.88-4.28 1.26-7 1Z"/><path fill="none" fill-opacity="0" stroke="#000328" stroke-opacity=".74" stroke-width=".3" d="M68 119h4s.73.25 1 0c.66-.6 1.49-2.17 2-3-1.5 1.57-5.32 2.78-7 3Z"/><path fill="none" fill-opacity="0" stroke="#000E75" stroke-opacity=".89" stroke-width=".3" d="M50 120c.3-.22.77-.95 1-1-6.11 0-13.25.6-19-1 4.8 2.27 12.14 2.84 18 2Z"/><path fill="none" fill-opacity="0" stroke="#000144" stroke-opacity=".56" stroke-width=".3" d="M63 119h-3c1.09.13 1.86.13 3 0Z"/><path fill="none" fill-opacity="0" stroke="None" d="M0 128h128V0H0v128M82 3c27.14 4.41 28.04 29.58 28 48-.04 18.42 19.01 53.45-2.08 62.92C86.83 123.39 62.08 121.51 40 125S-2.4 105.24 6.93 85.93C16.25 66.62 17.09 47 28.31 28.31 39.52 9.61 59.43-.67 82 3Z"/><path fill="#000004" fill-opacity=".12" stroke="None" d="M82 3C59.43-.67 39.52 9.61 28.31 28.31 17.09 47 16.25 66.62 6.93 85.93-2.4 105.24 17.92 128.49 40 125c22.08-3.49 46.83-1.61 67.92-11.08 21.09-9.47 2.04-44.5 2.08-62.92.04-18.42-.86-43.59-28-48m22 15c2.13 3.95 3.71 7.45 4 12 .48 2.67.58 4.34 0 7 0 1-.03 2 0 3 .07 2.7-.56 4.98-1 7 .03 1 0 2 0 3v4c0 1-.02 2 0 3 .19 1.08 1.23 2.24 1 4-.06.49 0 1 0 1 8.48 4.52 6 13.27 6 22 0 3.06-.01 5.58-1 8-.14 1.11-.84 1.37-1 2-.12 2.85.03 14.68-2 16-.02.42-33.73 7.52-37 9-.27.25-1 0-1 0-13.22 17.23-73.86-1.83-65.02-26.02 8.83-24.2 14.28-52 28.77-72.23C50.24.53 92.25-3.77 104 18Z"/><path fill="#000004" fill-opacity=".25" stroke="None" d="M72 119h-9c-1.14.13-1.91.13-3 0h-9c-.23.05-.7.78-1 1-10.3 7.59-52.17-7.99-41.67-26.67S26.46-.93 63 8h3c5.12-1.12 10.96-.97 16 0 5.21.41 12.45 2.35 17 5 1.71 1 3 2.38 4 4 .2.32.82.73 1 1C92.25-3.77 50.24.53 35.75 20.75 21.26 40.98 15.81 68.78 6.98 92.98-1.86 117.17 58.78 136.23 72 119Z"/><path fill="#000004" fill-opacity=".5" stroke="None" d="M50 120c-5.86.84-13.2.27-18-2-5.94-2.81-17.55-6.36-20-13-1.43-3.88-.94-8.21 0-12 1.46-5.91 4.81-10.46 7-16 .25-1.09.89-3.36 1-4 .11-1.99-.17-4.02 0-6 .15-1.7-.07-1.85 1-3-.06-.49 0-1 0-1 .2-5.38 3.55-8.83 6-13 .46-1.11.66-1.85 1-3 1.6-5.52 3.41-11.53 7-16 .11-.47 0-1 0-1-.05-1.68.72-2.23 2-3 .12-.47 0-1 0-1 1.67-3.41 6.85-8.08 10-10 .67-.41 1.32-.65 2-1 2.66-2.47 4.28-4.13 8-5 .47-.11 1 0 1 0 1.08-1.11 2.28-1.89 4-2 .5-.03 1 0 1 0C26.46-.93 18.83 74.65 8.33 93.33-2.17 112.01 39.7 127.59 50 120Z"/><path fill="#0017AA" fill-opacity=".73" stroke="None" d="M66 8c5.28 0 10.74-.42 16 0-5.04-.97-10.88-1.12-16 0Z"/><path fill="#000144" fill-opacity=".77" stroke="None" d="M58 10c1.73-.11 2.91-.87 4-2-1.72.11-2.92.89-4 2Z"/><path fill="#0020E6" fill-opacity=".98" stroke="None" d="M58 10s-.53-.11-1 0c-1.75 2.28-5.32 3.62-8 5-.68.35-1.33.59-2 1-3.41 3.18-6.14 7.3-10 10 0 0 .12.53 0 1-.32 1.3-1.34 2.12-2 3 0 0 .11.53 0 1-1.29 5.52-4.7 11.15-7 16-.34 1.15-.54 1.89-1 3-1.54 3.75-3.59 10.04-6 13 0 0-.06.51 0 1 .2 1.66-.79 2.04-1 3-.17 1.98.11 4.01 0 6-.1 1.93-.45 2.61-1 4-2.19 5.54-5.54 10.09-7 16-.41 3.34-.72 8.73 0 12 2.45 6.64 14.06 10.19 20 13 5.75 1.6 12.89 1 19 1h17c1.68-.22 5.5-1.43 7-3 .78-1.26 1.11-2.84 2-4 .7-.92 1.4-2.59 3-2 9.16-.83 18.8 0 28 0 .5 0 1.65.23 2 0 2.03-1.32 1.88-13.15 2-16 .09-1.99 0-4.01 0-6-.02-.1-1 0-1 0 0 .5.12 1.53 0 2-.42 1.6-.57 3.37-1 5-1.07 4.06-3.19 7.6-1 12-3.53.91-8.93 2.16-12 0-.2-.11-1.97-.93-2-1-.2 1.24-2.1.99-3 1-.5 0-1.51-.05-2 0-3.92.41-6.18-1.89-5-6-.28-.25-1.55-.15-2 0-3.7 1.19-.42-1.94-3-3-.46.96-.67.57 0 2 .19.41 0 1 0 1 .36 1.93-.27 4.05 0 6-1.54.37-2.4-1.43-4-1 .64.44 1.64 1.18 2 2-1.56-.41-2.69.46-4 1 0 1.54-.68 1.05-1 2-.44 1.32.28 3.78-2 4 .41-4.49-1.41-8.55-4-12-.96 2.12-.54 7.45-2 7-4.94-1.51-4.53-8.17-7-12 0 .02-1.04 1.3-1 2 .02.31.93 2.09 1 3 .12 1.51-.45 3.56 0 5 1.74 1.51 3.6 3.53 6 4 .48.09 1 0 1 0 1.4-.16 2.17.53 2 2-.06.49 0 1 0 1 .97.16 2.02-.13 3 0-1.77 2.03-5.48.53-8 1-1.96-.14-4.18-1.15-6-1-.82.07-2.5 1.05-4 1-.5-.02-1.5 0-2 0-3.65 2.48-6.16 1.8-10 1-3.49.26-5.28-1.31-8-3-.36-.22-1 0-1 0-3.62-1.77-7.96-3.94-11-6-.5.03-1.84.23-2 0-1.17-.17-2.66-2-3-3-.15-.45 0-1 0-1v-1c-1.26-1.3-1.05-3.07-1-5-.78-1.72.63-2.96 1-4 .35-.98.61-1.97 1-3 .87-2.29 1.51-4.14 3-6 .11-.47 0-1 0-1 .03-.35.68-.8 1-1 .9-1.12 1.37-2.72 2-4 .22-.75.91-2.58 1-3 .24-2.75.65-5.87 1-8 .24-4.45 1.03-8.38 3-12 .78-1.43 1.33-2.64 2-4 1-2.04 2-3.97 3-6 .73-1.99 1.24-4.28 2-6 .62-1.39 1.27-1.88 2-3 1.44-5.37 3.78-9.39 8-13 1.37-1.37 2.48-2.8 4-4 4.88-3.85 8.83-7 15-8 .96-.31 1.49-.99 3-1h2c.83-.22 1.67-.89 3-1 3.8-.33 8.22-.25 11 2h1c1.75-.21 1.92.65 3 1 1.57.27 2.52.6 4 1 2.31.62 4.17.52 6 2 .5.02 1 0 1 0 1.52.51 2.15 1.91 3 3 1.91 2.43 2.91 4.25 4 7 .41 1.03.92 1.46 1 3 .05.99 0 2.01 0 3 .3 1.65 1.76 2.19 0 4v2c-.14.8-.85 1.16-1 2-.09.48 0 1.5 0 2 1.3 3.06.3 5.22 0 8-.15 1.45-.27 3.57 0 5 .21 1.09.86 1.76 1 3 .04.38-.26 2.8 0 3 .16.83 1.18 1.52 1 3-.06.49 0 1 0 1 .88-.02 2.15-.2 3 0 1.78.43 1.51 1.71 2 3 1.32 3.48 1 7.87 1 12 .87-8.95.82-10.96-4-18 0 0-.06-.51 0-1-1.16-1.14-.97-2.28-1-4-.02-1 0-2 0-3-.33-1.78-.32-2.27 0-4 0-1 .03-2 0-3-.07-2.7.56-4.98 1-7-.03-1 0-2 0-3 0-2.32.15-4.69 0-7-.29-4.55-1.87-8.05-4-12-.18-.27-.8-.68-1-1-1.35-1.05-2.79-3.17-4-4-4.55-2.65-11.79-4.59-17-5-5.26-.42-10.72 0-16 0h-3s-.5-.03-1 0c-1.09 1.13-2.27 1.89-4 2m10 98c3.33 4.7-2.6 3.17 0 0Z"/><path fill="#000328" fill-opacity=".73" stroke="None" d="M49 15c2.68-1.38 6.25-2.72 8-5-3.72.87-5.34 2.53-8 5Z"/><path fill="#8987DC" stroke="None" d="M68 11h3c.25-.27 0-1 0-1-1.33.11-2.17.78-3 1Z"/><path fill="#EF9D9E" stroke="None" d="M71 11c3.32 0 5.98-.04 9 1 .45.15 1.5 0 2 0-2.78-2.25-7.2-2.33-11-2 0 0 .25.73 0 1Z"/><path fill="#C5BAC7" stroke="None" d="M63 12c1.25-.2 2.21-.79 3-1-1.51.01-2.04.69-3 1Z"/><path fill="#F9FAEF" stroke="None" d="M63 12c-6.17 1-10.12 4.15-15 8-1.34 1.24-2.61 2.81-4 4-4.22 3.61-6.56 7.63-8 13-3.51 13.06 9.35 1.66 13-1-7.4 8.32 11.46 6.29 8-1 3.7 1.83 3.83-.97 3-4 5 5.62 13.4-1.05 20-1-.34 3.96 5.47 7.48 10 6 .65-.92 1.49-1.8 2-3 .63-5.09-4.85-18.52-12-21-3.02-1.04-5.68-1-9-1h-5c-.79.21-1.75.8-3 1Z"/><path fill="#F5D6EF" stroke="None" d="M92 33c1.14-2.68.65-7.35 4-9 1.21 1.4.98 3.26 1 5 .93-.66 5.48-5.29 7-3-1.09-2.75-2.09-4.57-4-7-1.04-1.08-2.1-1.78-3-3 0 0-.5.02-1 0-2.52-.1-4.06-1.22-6-2-1.48-.4-2.43-.73-4-1-1.69-.29-1.8.11-3-1h-1c-.5 0-1.55.15-2 0 7.15 2.48 12.63 15.91 12 21Z"/><path fill="#F68293" stroke="None" d="M86 13c-1.08-.35-1.25-1.21-3-1 1.2 1.11 1.31.71 3 1Z"/><path fill="#000550" fill-opacity=".62" stroke="None" d="M103 17c-1-1.62-2.29-3-4-4 1.21.83 2.65 2.95 4 4Z"/><path fill="#D55EA0" stroke="None" d="M96 16c-1.83-1.48-3.69-1.38-6-2 1.94.78 3.48 1.9 6 2Z"/><path fill="#001043" fill-opacity=".82" stroke="None" d="M37 26c3.86-2.7 6.59-6.82 10-10-3.15 1.92-8.33 6.59-10 10Z"/><path fill="#BC6B9F" stroke="None" d="M100 19c-.85-1.09-1.48-2.49-3-3 .9 1.22 1.96 1.92 3 3Z"/><path fill="#9C9FCE" stroke="None" d="M44 24c1.39-1.19 2.66-2.76 4-4-1.52 1.2-2.63 2.63-4 4Z"/><path fill="#F091EC" stroke="None" d="M92 33c-.51 1.2-1.35 2.08-2 3-1.66 2.36-1.43 4.16-5 1v6c.03.63 1.14-3.22 1-3 .64-1.05 4.51.35 6-1 2.08 1.16 1.21 6 4 4 .37-.22 1 0 1 0 .77.14 1.14 1.11 2 1 .09-.25.79-.69 1-1-.25-1.32.13-2.57 0-4-.09-.99.07-2.01 0-3-1.41-.51-2.15.81-2 2-8.04 3.5-6.38-4.64-1-8 .11-.47 0-1 0-1-.02-1.74.21-3.6-1-5-3.35 1.65-2.86 6.32-4 9Z"/><path fill="#F7FDFC" stroke="None" d="M97 29s.11.53 0 1c-.72 3.09-2.56 5.78-3 9 1.56.41 2.69-.46 4-1-.15-1.19.59-2.51 2-2 .07.99-.09 2.01 0 3 1.12-2.18 3.16-1.98 5-2v-5c0-.99.05-2.01 0-3 .04.19-1.02-3.02-1-3-1.52-2.29-6.07 2.34-7 3Z"/><path fill="#A277BF" stroke="None" d="M105 29c-.08-1.54-.59-1.97-1-3-.02-.02 1.04 3.19 1 3Z"/><path fill="#000550" fill-opacity=".95" stroke="None" d="M35 30c.66-.88 1.68-1.7 2-3-1.28.77-2.05 1.32-2 3Z"/><path fill="#F2DCE6" stroke="None" d="M36 37c-.73 1.12-1.38 1.61-2 3-.74 2.42-.96 3.9-2 6-1 2.03-2 3.96-3 6 .65-.91 2.73-1.21 2-3 2.52 4.29 2.51-.88 5-2 2.09 6.58 3.5 14.27 2 21-6.63.62-13.1 18.95-10 25 .67-3.69 2.7-8.13 4-12 1.08 5.06-2.75 11.88-2 18-1.67-.24-.17-2.85-2-3-.05 2 .04 4 0 6 2.77.35 3.5-.08 6 0 .31-3.33-1.45-8.19 3-9 .09 2.79 4.33 3.35 7 3-1.33 6.55 6.81 11.01 4 17 4.97-5.44 5.4-6.1 3-14-.83-2.73-2.35-5.18-3-8 3.12 2.17 3.5 7.25 8 8-1.85-3.44.32-4.68 2-1 2.47 3.83 2.06 10.49 7 12-2.54-2.59-2.51-7.46-2-8 .43-.46 1.72-1.49 2-2 .12-.21 1.01-2.69 1-3-9.3-6.93-12.25-19.92-21-25 .95 2.14-1.45 3.66-2 5-.35 1.36-.86 2.55-1 4-.05.5 0 1.5 0 2 0 3.83.82 8.99-1 12-.56-2.24-1.38-4.48-1-7-.21-3.9.29-7.82 1-11 .73-3.32 1.18-6.66 2-10 .09-6.8-3.3-12.43-4-19 1.67 1.93 2.66 4.71 5 6 .43.17 1.51-.08 2 0 1.3-1.23 1.56-3.8 3-5 3 3.04.13 7.28 4 10 1.63.34 4.61-.23 6-1 3.41-2.5 1.21-6.78-3-5 4.37-6.51 6.27-16.46 15-20-1.76 1.78-2.17 4.54-4 6-1.22 3.06-.48 5.76-1 9 2.79 7.55 17.59 6 20-1 .15-.45 0-1.5 0-2-2.15 1.4-2.82 4.01-5 5-.45-.15-1.5 0-2 0-1.14 0-2.91.33-4 0-5.29.51-7.11-6.45-1-9 .24-.26 2.61 0 3 0 .99 0 2.01-.06 3 0 1.84.1 3.73.55 5 2v-6c3.57 3.16 3.34 1.36 5-1-4.53 1.48-10.34-2.04-10-6-6.6-.05-15 6.62-20 1 .83 3.03.7 5.83-3 4 3.46 7.29-15.4 9.32-8 1-3.65 2.66-16.51 14.06-13 1m21 9c.77 6.08-6.14.31 0 0m-9 2c-.94 3.2-3.91 1.31-6 1 1.3-1.85 4.08-2.59 6-1Z"/><path fill="#F5D6EF" stroke="None" d="M98 38c-1.31.54-2.44 1.41-4 1 .44-3.22 2.28-5.91 3-9-5.38 3.36-7.04 11.5 1 8Z"/><path fill="#000550" fill-opacity=".51" stroke="None" d="M108 37c.58-2.66.48-4.33 0-7 .15 2.31 0 4.68 0 7Z"/><path fill="#000550" fill-opacity=".92" stroke="None" d="M28 47c2.3-4.85 5.71-10.48 7-16-3.59 4.47-5.4 10.48-7 16Z"/><path fill="#8987DC" stroke="None" d="M105 36c1.76-1.81.3-2.35 0-4v4Z"/><path fill="#F4B5E9" stroke="None" d="M59 58c4.83-2.68 5.75-11.39 4-16 2.04.02 2.32-5.17 4-3 1.83-1.46 2.24-4.22 4-6-8.73 3.54-10.63 13.49-15 20 4.21-1.78 6.41 2.5 3 5Z"/><path fill="#F7E5F6" stroke="None" d="M100 39c.13 1.43-.25 2.68 0 4 .21-.31.79-.73 1-1 1.26-1.62 2.34-2.84 4-4v-1c-1.84.02-3.88-.18-5 2Z"/><path fill="#E938E4" stroke="None" d="M59 58c-1.39.77-4.37 1.34-6 1-2.92-.62-3.83-4.49-7-5-.49-.08-1.57.17-2 0-3.63.71 0 5.99 0 9 .27-1.35.93-3.07 1-5 .16-.97-.13-2.02 0-3 2.78-.53.76 1.61 1 3 .86 4.37-1.43 8.47-1 13 2.2-.79 2.58-.64 4 1-.3-4.04 3.09-7 3-11 3.19 2.25 5.41 4.12 9 6 0-.5-.02-1.5 0-2-.38-1.24-1.14-2.15-1-4-.08-1.86 1.28-4.26 3-5 .41-2.81 2.56-5.2 3-8 .52-3.24-.22-5.94 1-9-1.68-2.17-1.96 3.02-4 3 1.75 4.61.83 13.32-4 16Z"/><path fill="#F091EC" stroke="None" d="M101 42c.51.18-.98 6.48-1 8-.89 1.38-1.51 3.24 1 3 .38-.39 1.74-.66 2-1 .1-1.33.77-1.2 1-2 .56-1.96 0-4.95 0-7-.19-1.63-.98-1.15 0-3 .15-.84.86-1.2 1-2-1.66 1.16-2.74 2.38-4 4Z"/><path fill="#F564F4" stroke="None" d="M86 40c1.76.61.7 2.96 0 4-.23.34 0 1 0 1 0 .5.15 1.55 0 2 2.58-1.89 2.44-.91 5-1 .43-.02 1.59-.82 2-1 1.58-.71 2-.33 3-2-2.79 2-1.92-2.84-4-4-1.49 1.35-5.36-.05-6 1Z"/><path fill="#E89DD9" stroke="None" d="M32 46c1.04-2.1 1.26-3.58 2-6-.76 1.72-1.27 4.01-2 6Z"/><path fill="#A80CCE" stroke="None" d="M85 43c.24.27.88.74 1 1 .7-1.04 1.76-3.39 0-4 .14-.22-.97 3.63-1 3Z"/><path fill="#E45684" stroke="None" d="M104 43v-1c0-.5-.09-1.52 0-2-.98 1.85-.19 1.37 0 3Z"/><path fill="#000E75" fill-opacity=".58" stroke="None" d="M107 47c.44-2.02 1.07-4.3 1-7-.44 2.02-1.07 4.3-1 7Z"/><path fill="#F68293" stroke="None" d="M75 50c-.35-.11-.75-.76-1-1-.71-.68-1.88-.77-2-2-1.11-2.05-.7-3.9 2-5 .18-.07 0-1 0-1-6.11 2.55-4.29 9.51 1 9Z"/><path fill="#EB3552" stroke="None" d="M74 42c.16.23 1.5 0 2 0h1c.25-.25 0-1 0-1-.39 0-2.76-.26-3 0 0 0 .18.93 0 1Z"/><path fill="#9F3335" stroke="None" d="M77 42h3c-.25-.25 0-1 0-1-.99-.06-2.01 0-3 0 0 0 .25.75 0 1Z"/><path fill="#F68293" stroke="None" d="M80 42h1c2.41.95 2.23 3.15 1 5-.23.35 0 1 0 1-.03.16-1.26 1.91-1 2 2.18-.99 2.85-3.6 5-5 0 0-.23-.66 0-1-.12-.26-.76-.73-1-1-1.27-1.45-3.16-1.9-5-2 0 0-.25.75 0 1Z"/><path fill="#B91A20" stroke="None" d="M72 47c-.15-1.57.37-1.06 1-2-.25-.25 0-1 0-1 .02-.13.99-2 1-2-2.7 1.1-3.11 2.95-2 5Z"/><path fill="#5D1613" stroke="None" d="M73 44c.93-.77 2.13-1.35 3-2-.5 0-1.84.23-2 0-.01 0-.98 1.87-1 2Z"/><path fill="#000004" stroke="None" d="M73 44s-.25.75 0 1c.5-.05 1 0 1 0h2c2.33-1.78 3.01 1.64 5 3 .35-.23 1 0 1 0s-.23-.65 0-1c-.45-1.53-.04-3.09-1-5h-5c-.87.65-2.07 1.23-3 2Z"/><path fill="#7A2B3D" stroke="None" d="M82 47c1.23-1.85 1.41-4.05-1-5 .96 1.91.55 3.47 1 5Z"/><path fill="#0034EC" stroke="None" d="M100 43c-.21.31-.91.75-1 1-.45 1.22-.27 4.71 0 6 .24-.25 1 0 1 0 .02-1.52 1.51-7.82 1-8-.21.27-.79.69-1 1Z"/><path fill="#773394" stroke="None" d="M104 43c0 2.05.56 5.04 0 7 .3-2.78 1.3-4.94 0-8v1Z"/><path fill="#5D1613" stroke="None" d="M93 45c-1.23 1.31-.16 1.2 0 2-.47.05 2.12-1.06 2-1 .29-.18 1.74-1.73 2-2-.22-.37 0-1 0-1s-.63-.22-1 0c-1 1.67-1.42 1.29-3 2Z"/><path fill="#001043" stroke="None" d="M97 44c.78 1.28 2.24 5.96-1 4v1c1.16 1.23.17.49-1 1 .19.41 0 1 0 1 1.75.23 2.89.14 4-1-.27-1.29-.45-4.78 0-6-.86.11-1.23-.86-2-1 0 0-.22.63 0 1Z"/><path fill="#7973A7" stroke="None" d="M76 45c2.18.65 3.69 2.09 1 3 .23.34 0 1 0 1 .38-.21 1.71.25 2 0 .05-.04 1.78-.85 2-1-1.99-1.36-2.67-4.78-5-3Z"/><path fill="#000004" stroke="None" d="M95 46c.2-.1.97.65 1 1 .05.5 0 1 0 1 3.24 1.96 1.78-2.72 1-4-.26.27-1.71 1.82-2 2Z"/><path fill="#3E0E0A" stroke="None" d="M72 47c.12 1.23 1.29 1.32 2 2-.3-.14-1-1.67-1-2 0-.07 1.05-2.02 1-2 0 0-.5-.05-1 0-.63.94-1.15.43-1 2Z"/><path fill="#A06485" stroke="None" d="M73 47c.05.16 1.79 1.12 2 1-.99-.41-.7-2.51 0-3h-1c.05-.02-1 1.93-1 2Z"/><path fill="#E1E8F5" stroke="None" d="M75 48c.38-.21 1.84-.23 2 0 2.69-.91 1.18-2.35-1-3h-1c-.7.49-.99 2.59 0 3Z"/><path fill="#F094BC" stroke="None" d="M86 47c-2.41 7-17.21 8.55-20 1-.44 2.8-2.59 5.19-3 8 .42-.18 1 0 1 0 .37-1.8 1.1-3.36 2-5 1.57.96 3.25 2.32 4 4 5.28-.82 10.96.42 15-4-.37 1.54 1.43 2.4 1 4 .27-.25 1 0 1 0 1.22-1.81.83-1.11 2-1 1.93-.37 4.47.95 6 2 .3.21.77.72 1 1 1.66 2.03 1.68 4.27 2 7 .49.06 1 0 1 0 1.22.19 1.35 1.37 2 2h1c1.14-1.16 2.28-.97 4-1 0 0-.06-.51 0-1-.12-.26-.91-.65-1-1-8.29 2.56-7.42-9.15-2-9 0-.5-.04-1.5 0-2-.26.34-1.62.61-2 1-1.41 1.47-2.31 3.88-5 3 1.04-3.68-3.81-2.53-4-6-1.03-.32-1.5-3.1-1-4-2.56.09-2.42-.89-5 1Z"/><path fill="#D7185D" stroke="None" d="M91 46c-.5.9-.03 3.68 1 4 .46.14 1 0 1 0-.05-.5 0-1 0-1 0-.5.09-1.52 0-2-.16-.8-1.23-.69 0-2-.41.18-1.57.98-2 1Z"/><path fill="#F9FAEF" stroke="None" d="M57 46c-6.14.31.77 6.08 0 0Z"/><path fill="#4945A4" stroke="None" d="M93 47c.07-.09 2.92-.09 3 0-.03-.35-.8-1.1-1-1 .12-.06-2.47 1.05-2 1Z"/><path fill="#F7FDFC" stroke="None" d="M29 52c-.67 1.36-1.22 2.57-2 4-1.47 5.81 2.42 11.11 0 17 .24 3.18-.96 8.49-8 11 0 0 .11.53 0 1-.57 2.44-1.92 4.04-3 6-.39 1.03-.65 2.02-1 3-.05 2.94 2.32 6.86 0 10 0 0-.15.55 0 1 .72.79 2.33 1.27 3 2 2.38-.21 9.32-1.18 10 2 4.6 3.06 6.84 7.53 13 7 1.2-.1 3.07-1.23 5-1 .49.06 1 0 1 0 .45-.22.8-1.61 1-2 2.81-5.99-5.33-10.45-4-17-2.67.35-6.91-.21-7-3-4.45.81-2.69 5.67-3 9-2.5-.08-3.23.35-6 0 .04-2-.05-4 0-6 .02-.95-.17-2.07 0-3-3.1-6.05 3.37-24.38 10-25 1.5-6.73.09-14.42-2-21-2.49 1.12-2.48 6.29-5 2 .73 1.79-1.35 2.09-2 3Z"/><path fill="#F9FAEF" stroke="None" d="M48 48c-1.92-1.59-4.7-.85-6 1 2.09.31 5.06 2.2 6-1Z"/><path fill="#2A1832" stroke="None" d="M74 49c.3.14 2.71.16 3 0 0 0 .23-.66 0-1-.16-.23-1.62-.21-2 0-.21.12-1.95-.84-2-1 0 .33.7 1.86 1 2Z"/><path fill="#E1E8F5" stroke="None" d="M93 49c.25-.25 1 0 1 0 .5 0 1.84.23 2 0v-1s.05-.5 0-1c-.08-.09-2.93-.09-3 0 .09.48 0 1.5 0 2Z"/><path fill="#F5C4F8" stroke="None" d="M43 67c.24-.95.73-2.63 1-4 0-3.01-3.63-8.29 0-9-2.34-1.29-3.33-4.07-5-6 .7 6.57 4.09 12.2 4 19Z"/><path fill="#793365" stroke="None" d="M79 49c.23.34 0 1 0 1 .5 0 1.55-.15 2 0-.26-.09.97-1.84 1-2 0 0-.65-.23-1 0-.22.15-1.95.96-2 1Z"/><path fill="#F5C4F8" stroke="None" d="M46 54c3.17.51 4.08 4.38 7 5-3.87-2.72-1-6.96-4-10-1.44 1.2-1.7 3.77-3 5Z"/><path fill="#D55EA0" stroke="None" d="M75 50c1.09.33 2.86 0 4 0 0 0 .23-.66 0-1-.29.25-1.62-.21-2 0-.29.16-2.7.14-3 0 .25.24.65.89 1 1Z"/><path fill="#793365" stroke="None" d="M93 50c.22.15 1.3 1.74 2 1 0 0 .19-.59 0-1-.12-.26-.74-.88-1-1 0 0-.75-.25-1 0 0 0-.05.5 0 1Z"/><path fill="#C5BAC7" stroke="None" d="M95 50c1.17-.51 2.16.23 1-1-.16.23-1.5 0-2 0 .26.12.88.74 1 1Z"/><path fill="#000F6B" fill-opacity=".93" stroke="None" d="M21 63c2.41-2.96 4.46-9.25 6-13-2.45 4.17-5.8 7.62-6 13Z"/><path fill="#E96AC0" stroke="None" d="M101 53c-2.51.24-1.89-1.62-1-3 0 0-.76-.25-1 0-1.11 1.14-2.25 1.23-4 1-.7.74-1.78-.85-2-1 0 0-.54.14-1 0 .19 3.47 5.04 2.32 4 6 2.69.88 3.59-1.53 5-3Z"/><path fill="#AA3770" stroke="None" d="M103 52c-.04.5 0 1.5 0 2v1c.25.25 1 0 1 0-.27-1.43-.15-3.55 0-5-.23.8-.9.67-1 2Z"/><path fill="#000550" fill-opacity=".71" stroke="None" d="M107 54v-4c-.32 1.73-.33 2.22 0 4Z"/><path fill="#F5CCAD" stroke="None" d="M64 56c-.09 4.02 2.14 7.55 2 11 0 .02-1.52 3.15-3 3 .35 1.2-.16 2.76 0 4 .59 1.64 6.63 4.77 8 6 2.02.24 2.97 1.64 5 2 .49.09 1.53-.12 2 0-1.95-1.99-4-4.58-7-3-4.31-6.93-2.04-15.89-4-23 .95-1.69 2.53.73 3-1-.75-1.68-2.43-3.04-4-4-.9 1.64-1.63 3.2-2 5Z"/><path fill="#F5F8E4" stroke="None" d="M70 55c-.47 1.73-2.05-.69-3 1 1.96 7.11-.31 16.07 4 23 3-1.58 5.05 1.01 7 3 .35.09.74.88 1 1h1c2.36.84 5.34 1.42 8 1 .65-.34 2.39-4.29 2-5-.5-.04-1.51.08-2 0-3.71-.59-9.37-6.13-5-9 .03-.35.69-.79 1-1 .7-1.57.89-3.4 3-4 .27-.25 1 0 1 0-2.94-2.03-5.64-3.38-4-7 .36-.79 1.42-2.47 2-3 .43-1.6-1.37-2.46-1-4-4.04 4.42-9.72 3.18-15 4Z"/><path fill="#EE626C" stroke="None" d="M87 55h1c.35-.03.78-.96 1-1-1.17-.11-.78-.81-2 1Z"/><path fill="#F6D1CD" stroke="None" d="M88 55c-.81 1.05-2.91 4.8-4 3-1.64 3.62 1.06 4.97 4 7 2.64.07 4.81.76 7 0 .98-.34 1.42-1.19 3-1-.32-2.73-.34-4.97-2-7 0 .98-2.13 2.88-3 3-1.47 3.9-3.54-1.76-6 1-.12-4.02 4.3-.26 6-2 .12-.33 1.89-2.98 2-3-1.53-1.05-4.07-2.37-6-2-.22.04-.65.97-1 1Z"/><path fill="#F7FDFC" stroke="None" d="M105 63c-.12-.47.24-1.82 0-2-.26-.2.04-2.62 0-3-.4-1.26-2.06-.89-2-3v-1c-5.42-.15-6.29 11.56 2 9Z"/><path fill="#AF1FF5" stroke="None" d="M45 58c0-.02 1 0 1 0-.24-1.39 1.78-3.53-1-3-.13.98.16 2.03 0 3Z"/><path fill="#7A2B3D" stroke="None" d="M84 58c1.09 1.8 3.19-1.95 4-3h-1s-.73-.25-1 0c-.58.53-1.64 2.21-2 3Z"/><path fill="#FA6543" stroke="None" d="M105 58c-.14-1.24-.79-1.91-1-3 0 0-.75.25-1 0-.06 2.11 1.6 1.74 2 3Z"/><path fill="#F5B3F6" stroke="None" d="M24 68c-.16 2.92.49 6.12 0 9 .61-1.15 2.53-2.85 3-4 2.42-5.89-1.47-11.19 0-17-1.97 3.62-2.76 7.55-3 12Z"/><path fill="#F7210D" stroke="None" d="M60 61c.03.71 1.04 2.59 1 4-.02.5 0 1.5 0 2v1c.25.25 1 0 1 0 .94-.97 2.46-1.34 4-1 .14-3.45-2.09-6.98-2-11 0 0-.58-.18-1 0-1.72.74-3.08 3.14-3 5Z"/><path fill="#AA3770" stroke="None" d="M93 59c-.16.44 0 1 0 1 .87-.12 3-2.02 3-3-.23-.28-.7-.79-1-1-.11.02-1.88 2.67-2 3Z"/><path fill="#000F6B" fill-opacity=".86" stroke="None" d="M108 61c.23-1.76-.81-2.92-1-4 .03 1.72-.16 2.86 1 4Z"/><path fill="#5818A4" stroke="None" d="M44 63c-.27 1.37-.76 3.05-1 4-.82 3.34-1.27 6.68-2 10-.04 1.92.61 2.7 1 4 .14-1.45.65-2.64 1-4 .55-2.12.2-3.53 2-5 .24-.2 0-1 0-1-.43-4.53 1.86-8.63 1-13 0 0-1-.02-1 0-.07 1.93-.73 3.65-1 5Z"/><path fill="#F68293" stroke="None" d="M93 60s-.16-.56 0-1c-1.7 1.74-6.12-2.02-6 2 2.46-2.76 4.53 2.9 6-1Z"/><path fill="#F5C2E6" stroke="None" d="M45 71s.24.8 0 1c8.75 5.08 11.7 18.07 21 25 1.7 1.27 3.23 2.93 5 4-.15-1.41-.65-3.34-2-4-.23-.23-3.72-2.36-5-4-.31-.21-.83-.67-1-1-1.83-1.37-3.37-3.72-4-6-.13-.46.18-1.58 0-2-.11-.26-.73-.8-1-1-1.49-1.13-2.5-1.46-1-3-.18-.42 0-1 0-1-2.7-2.23-.61-2.48 0-5 1.59 1.01 2.85 2.53 5 2-.83-1.93-.95-5.81-1-8v-1c-3.59-1.88-5.81-3.75-9-6 .09 4-3.3 6.96-3 11-1.42-1.64-1.8-1.79-4-1Z"/><path fill="#D7185D" stroke="None" d="M61 65c.04-1.41-.97-3.29-1-4-.14 1.85.62 2.76 1 4Z"/><path fill="#A277BF" stroke="None" d="M105 63c.09.35.88.74 1 1 .18-1.48-.84-2.17-1-3 .24.18-.12 1.53 0 2Z"/><path fill="#000E75" fill-opacity=".89" stroke="None" d="M112 80v8c0 1.99.09 4.01 0 6 .16-.63.86-.89 1-2 .3-2.47.82-6.16 1-8 0-8.73 2.48-17.48-6-22 4.82 7.04 4.87 9.05 4 18Z"/><path fill="#000F6B" fill-opacity=".89" stroke="None" d="M20 67c.21-.96 1.2-1.34 1-3-1.07 1.15-.85 1.3-1 3Z"/><path fill="#3E0E0A" stroke="None" d="M95 65c-.6.49-1.41 1.48-2 2-1.38 1.22-1.06 1.43-3 2-.13.04 0 1 0 1 .36.39 1 1.37 0 2h1c1.35-.96 8.93 7.9 9 10-2.79.42-5.9 3.21-1 3-2.62 2.11-1.17 4.21-1 7-1.91.43-6.06 5.88-2 4 1.26-1.95 2.59-3.4 4-5 .67-.76 1.33-1.35 2-2 .21-.27 1.82-2.67 2-3 .18-.46 1-2.48 1-3-.22-.67-.69-2.51-1-3-.14-.23-1 0-1 0 .2 1.64-.15 3.35 0 5-2.77-.34-3.21-8.32 0-6-.18-2.16-1.41-2.85-3-4-1.94-1.41-6-1.76-5-4 .06-.14 1.02-2.01 1-2-2-1.34-1.64-.08 0-2 1.02-1.2 2.11-1.85 3-3 0 0-.51.06-1 0-1.58-.19-2.02.66-3 1Z"/><path fill="#BC2F39" stroke="None" d="M96 67c1.05-.66 1.74-.91 3-1 .5-.04 1.5 0 2 0-.65-.63-.78-1.81-2-2-.89 1.15-1.98 1.8-3 3Z"/><path fill="#F6D1CD" stroke="None" d="M84 69c.31-.21.79-.69 1-1 .55-.83 1.32-2.38 2-3-2.11.6-2.3 2.43-3 4Z"/><path fill="#F68293" stroke="None" d="M85 68c2.8-3.34 5.22-.44 8-1 .59-.52 1.4-1.51 2-2-2.19.76-4.36.07-7 0 0 0-.73-.25-1 0-.68.62-1.45 2.17-2 3Z"/><path fill="#FC1F2D" stroke="None" d="M102 66c2.71.05 4.42 1.55 7 2 0-.41.26-2.74 0-3-.85-.2-2.12-.02-3 0-1.72.03-2.86-.16-4 1Z"/><path fill="#F9F9C5" stroke="None" d="M109 68v6c1.38 1.46.32.76 0 2 .23.16.04 1.5 0 2 1.33 3.12-.28 6.49 0 9 .24.63 1.96 2.83 2 3 .12-.47 0-1.5 0-2 0-6.18 1.31-13.98 0-20-.49-1.29-.22-2.57-2-3 .26.26 0 2.59 0 3Z"/><path fill="#FC1F2D" stroke="None" d="M85 68c-.21.31-.69.79-1 1-.31.21-.97.65-1 1-.05.5 0 1 0 1 .5-.05 1 0 1 0 .77-.51.69-1.08 2-1 .5.03 1 0 1 0 1.12-1.04 1.48-.59 3-1 1.94-.57 1.62-.78 3-2-2.78.56-5.2-2.34-8 1Z"/><path fill="#F094BC" stroke="None" d="M96 67c-1.64 1.92-2 .66 0 2 1.04-.38 3.66-.3 4 1-1.94-.62-3.13 1.2-5 1-1 2.24 3.06 2.59 5 4-1.32-2.75-1.13-2.64 1-4 1.14-.73 2.27-1.38 4-1-2.2-1.11-5.24-1.7-8-2 .08-1.26 2.06-.56 2-2-1.26.09-1.95.34-3 1Z"/><path fill="#F2DCE6" stroke="None" d="M105 70c1.85.93.73.73 2 2 .05-.01 2.03 1.06 2 1v-5c-2.58-.45-4.29-1.95-7-2h-1c-.5 0-1.5-.04-2 0 .06 1.44-1.92.74-2 2 2.76.3 5.8.89 8 2Z"/><path fill="#F69C7C" stroke="None" d="M62 68c-.44-.55 1.18 2.6 1 2 1.48.15 3-2.98 3-3-1.54-.34-3.06.03-4 1Z"/><path fill="#F094BC" stroke="None" d="M23 76c-.15 1.72-.41 1.79-1 3-.63 1.28-1.1 2.88-2 4 3.1-1.92 2.58-3.33 4-6 .49-2.88-.16-6.08 0-9-.35 2.13-.76 5.25-1 8Z"/><path fill="#F68293" stroke="None" d="M62 76c.25.59 1.72 1.47 2 2v-1c-.43-1.17-.83-1.68-1-3-.16-1.24.35-2.8 0-4 .18.6-1.44-2.55-1-2 0 0-.75.25-1 0 .05 2.19.17 6.07 1 8Z"/><path fill="#C5BAC7" stroke="None" d="M111 88s.98-.1 1 0v-8c0-4.13.32-8.52-1-12 1.31 6.02 0 13.82 0 20Z"/><path fill="#AA3770" stroke="None" d="M87 70c.35.03.97.65 1 1 .21-.42 1.86-.72 2-1 0 0-.13-.96 0-1-1.52.41-1.88-.04-3 1Z"/><path fill="#9F3335" stroke="None" d="M95 71c1.87.2 3.06-1.62 5-1-.34-1.3-2.96-1.38-4-1 .02-.01-.94 1.86-1 2Z"/><path fill="#E7ADAB" stroke="None" d="M88 79c-.23-.34 0-1 0-1-1.86-.54-1.72-.73-3-2-1.03-1.02-2.98-2.24-3-4 0-.33.65-.97 1-1 0 0-.05-.5 0-1-4.37 2.87 1.29 8.41 5 9Z"/><path fill="#F2DCE6" stroke="None" d="M84 71c.89.83 1.54 1.18 3 1-.13-.07-1.18-1.84-1-2-1.31-.08-1.23.49-2 1Z"/><path fill="#A691A8" stroke="None" d="M87 72c.49-.06 1 0 1 0-.25-.25 0-1 0-1-.03-.35-.65-.97-1-1 0 0-.5.03-1 0-.18.16.87 1.93 1 2Z"/><path stroke="None" d="M88 71s-.25.75 0 1h2c1-.63.36-1.61 0-2-.14.28-1.79.58-2 1Z"/><path fill="#AA3770" stroke="None" d="M101 71c1.13-.1 2.04.52 3 1 .41.21 1.73.73 2 1-.02-.01.65-.96 1-1-1.27-1.27-.15-1.07-2-2-1.73-.38-2.86.27-4 1Z"/><path fill="#9F3335" stroke="None" d="M82 72c.13-.06 1.76.94 2 1 1.03.26 4 .34 5 0-.05-.5 0-1 0-1h-1s-.51-.06-1 0c-1.46.18-2.11-.17-3-1 0 0-.5-.05-1 0-.35.03-1 .67-1 1ZM91 72c1.72.81.54 2.25-1 2 1.78.83 3.75 1.06 5 3 1.46 2.27.34 2.99 0 5-.09 1.9-.52 2.65-1 4-.39 1.09-1.81 3.24-2 4-.22.85 0 2.12 0 3 0 1.98.14 4.02 0 6-.19 2.66.23 5.48 0 8 .9-.01 2.8.24 3-1-.2-.4 0-1 0-1-1.44-.86-1.85-1.26-2-3-.19-2.18 1.91-4.31 3-6-4.06 1.88.09-3.57 2-4-.17-2.79-1.62-4.89 1-7-4.9.21-1.79-2.58 1-3-.07-2.1-7.65-10.96-9-10Z"/><path fill="#F5D6EF" stroke="None" d="M100 75c1.59 1.15 2.82 1.84 3 4 .04.5 0 1 0 1s.86-.23 1 0c-.39-2.71.04-4.21 3-4-.25-.25 0-1 0-1-1.07-.79-2.1-2.36-3-3-.96-.48-1.87-1.1-3-1-2.13 1.36-2.32 1.25-1 4Z"/><path fill="#F091EC" stroke="None" d="M43 77c.55-1.34 2.95-2.86 2-5-1.8 1.47-1.45 2.88-2 5Z"/><path fill="#EE626C" stroke="None" d="M85 76c-.49-.78-.57-2.48-1-3-.24-.06-1.87-1.06-2-1 .02 1.76 1.97 2.98 3 4Z"/><path fill="#CA5F66" stroke="None" d="M89 73c.03.35.66.84 1 1 1.54.25 2.72-1.19 1-2h-2s-.05.5 0 1Z"/><path fill="#E89DD9" stroke="None" d="M107 75c-.04-.24-.87-1.87-1-2-.27-.27-1.59-.79-2-1 .9.64 1.93 2.21 3 3Z"/><path fill="#773394" stroke="None" d="M106 73c.13.13.96 1.76 1 2 0 0-.25.75 0 1s1 0 1 0c.35-.18.93-1.63 1-2v-1c.03.06-1.95-1.01-2-1-.35.04-1.02.99-1 1Z"/><path fill="#000144" fill-opacity=".87" stroke="None" d="M19 77c.55-1.39.9-2.07 1-4-.11.64-.75 2.91-1 4Z"/><path fill="#FAE9EF" stroke="None" d="M24 77c-1.42 2.67-.9 4.08-4 6-.32.2-.97.65-1 1 7.04-2.51 8.24-7.82 8-11-.47 1.15-2.39 2.85-3 4Z"/><path fill="#F7210D" stroke="None" d="M85 76c1.28 1.27 1.14 1.46 3 2 .87-.52 2.98.2 4 0 .52-.1 1.84-1.82 3-1-1.25-1.94-3.22-2.17-5-3-.34-.16-.97-.65-1-1-1 .34-3.97.26-5 0 .43.52.51 2.22 1 3Z"/><path fill="#F564F4" stroke="None" d="M57 79c.27-1.05 1.05-2.55 2-3 .4 3.53 3.4 5.98 5 9 .21.3.82.73 1 1-.18-1.29.26-2.72 0-4-.17-.83-1.18-1.52-1-3 .06-.49 0-1 0-1-.28-.53-1.75-1.41-2-2-2.15.53-3.41-.99-5-2-.61 2.52-2.7 2.77 0 5Z"/><path fill="#F7210D" stroke="None" d="M64 77c1.89 1.06 3.41 3.03 5 4 .42-.18 1.84.23 2 0-.25-.29 0-1 0-1-1.37-1.23-7.41-4.36-8-6 .17 1.32.57 1.83 1 3Z"/><path fill="#F5CCAD" stroke="None" d="M108 76h1c.32-1.24 1.38-.54 0-2-.07.37-.65 1.82-1 2Z"/><path fill="#9F3335" stroke="None" d="M22 79c.59-1.21.85-1.28 1-3-.09.42-.78 2.25-1 3Z"/><path fill="#001FCF" stroke="None" d="M57 79s-.18.58 0 1c.36.87.35 1.7 1 3 .27.2.89.74 1 1 1.76-.25 2.62 1.9 4 4 2.38-.39-1.06-2.67 1-3-1.6-3.02-4.6-5.47-5-9-.95.45-1.73 1.95-2 3Z"/><path fill="#F7FDFC" stroke="None" d="M104 80c.31.49.78 2.33 1 3 .68 2.03-1.17 10.83-3 12 .58.39.86 1.38 2 1 .95-1.45.65-3 2-4 .69-.99 2-3.73 3-2 .04.07.99 5.32 1 5 .43-1.63.58-3.4 1-5-.04-.17-1.76-2.37-2-3-.83-2.19-.69-4.32-1-7-.19-1.63-.66-2.5-1-4-2.96-.21-3.39 1.29-3 4Z"/><path fill="#806878" stroke="None" d="M108 80c.17-.6.92-.9 1-2 .04-.5.23-1.84 0-2h-1s-.75.25-1 0c.34 1.5.81 2.37 1 4Z"/><path fill="#D13CB2" stroke="None" d="M40 88c.11-1.09 1.7-3.94 2-5 0-.5-.05-1.5 0-2-.39-1.3-1.04-2.08-1-4-.71 3.18-1.21 7.1-1 11Z"/><path fill="#F9B893" stroke="None" d="M64 78s.06.51 0 1c1.78.59 2.2 1.09 3 3 .41.19 1 0 1 0 .35-.03.74-.89 1-1-1.59-.97-3.11-2.94-5-4v1Z"/><path fill="#F272E1" stroke="None" d="M92 78c2.75.75 2.49 5.16 2 8 .48-1.35.91-2.1 1-4 .08-1.66-.06-3.34 0-5-1.16-.82-2.48.9-3 1Z"/><path fill="#D7185D" stroke="None" d="M95 82c.34-2.01 1.46-2.73 0-5-.06 1.66.08 3.34 0 5Z"/><path fill="#E89DD9" stroke="None" d="M88 79c.49.08 1.5-.04 2 0 .99.08 2-.06 3 0 .69 2.83-2.71 4.55-5 5-2.66.42-5.64-.16-8-1 .25.25 0 1 0 1 2.99.47 3.1.69 3 3-.1 2.47-2 4.17-3 6-.59 1.07-.99 1.71-1 3v1c.46-.48 1.59-.6 2-1 .7-1.32 1.48-2.61 2-4 .51-1.35-.11-1.04 1-2 .64-2.17.26-5.99 4-5 .53 1.28-.97 1.86-1 3-.16.44.11 1.52 0 2-.21.93-1.49 2.23-2 3 1.76-1.62 6.22-2.25 7-3 .19-.76 1.61-2.91 2-4 .49-2.84.75-7.25-2-8-1.02.2-3.13-.52-4 0 0 0-.23.66 0 1Z"/><path fill="#000004" stroke="None" d="M103 80s.04-.5 0-1c-3.21-2.32-2.77 5.66 0 6-.15-1.65.2-3.36 0-5Z"/><path fill="#F3E5DA" stroke="None" d="M108 80c.31 2.68.17 4.81 1 7-.28-2.51 1.33-5.88 0-9-.08 1.1-.83 1.4-1 2Z"/><path fill="#F4CCDD" stroke="None" d="M65 82c-.87-.64 1.92-.04 2 0-.8-1.91-1.22-2.41-3-3-.18 1.48.83 2.17 1 3Z"/><path fill="#F7E5F6" stroke="None" d="M88 84c2.29-.45 5.69-2.17 5-5-1-.06-2.01.08-3 0 .39.71-1.35 4.66-2 5Z"/><path fill="#B976E6" stroke="None" d="M58 83c-.65-1.3-.64-2.13-1-3-1.5 1.54-.49 1.87 1 3Z"/><path fill="#BC2F39" stroke="None" d="M71 81c.87 1.03 2.07 1.87 3 3 .2.24 1 0 1 0 .26-.12.65-.97 1-1-.25-.25 0-1 0-1-2.03-.36-2.98-1.76-5-2 0 0-.25.71 0 1Z"/><path fill="#F5C2E6" stroke="None" d="M28 93c-.17.93.02 2.05 0 3 1.83.15.33 2.76 2 3-.75-6.12 3.08-12.94 2-18-1.3 3.87-3.33 8.31-4 12Z"/><path fill="#F4E4E2" stroke="None" d="M65 82c.26 1.28-.18 2.71 0 4-.04-.28.8 2.87 1 2v-3c2.69 3.69 6.71-.79 10 2-.47-.93-1.97-1.96-2-3-2-1.49-3.97.51-6-2 0 0-.59.19-1 0-.08-.04-2.87-.64-2 0Z"/><path fill="#E7ADAB" stroke="None" d="M68 82c2.03 2.51 4 .51 6 2-.93-1.13-2.13-1.97-3-3-.16.23-1.58-.18-2 0-.26.11-.65.97-1 1Z"/><path fill="#F5AFD3" stroke="None" d="M76 83c.5-.05 1 0 1 0h2c-.26-.12-.65-.91-1-1-.47-.12-1.51.09-2 0 0 0-.25.75 0 1Z"/><path fill="#F094BC" stroke="None" d="M40 88c-.38 2.52.44 4.76 1 7 1.82-3.01 1-8.17 1-12-.3 1.06-1.89 3.91-2 5Z"/><path fill="#001043" stroke="None" d="M59 84c.18.42-.13 1.54 0 2 1.6 1.98 2.75 3.6 4 6 .17.33.69.79 1 1 .98.65 2.1 1.33 3 2-.12-.21-.97-2.89-1-3 .48.62-3.16-1.47-3-3 1.28-.53 1.86.97 3 1 0-.5-.11-1.52 0-2-.2.87-1.04-2.28-1-2-.18-.27-.79-.7-1-1-2.06.33 1.38 2.61-1 3-1.38-2.1-2.24-4.25-4-4Z"/><path fill="#7A2B3D" stroke="None" d="M75 84c.87.32 2.23.62 3 1-.21-.25-.85-1.92-1-2 0 0-.5-.05-1 0-.35.03-.74.88-1 1Z"/><path fill="#AA3770" stroke="None" d="M78 85c.17.2 1.44 1.74 2 1 .08-.49 0-1.5 0-2 0 0 .25-.75 0-1h-3c.15.08.79 1.75 1 2Z"/><path fill="#F5C2E6" stroke="None" d="M104 86c-.52 1.29-1.1 2.13-2 3-.67.65-1.33 1.24-2 2-.82 1.39-1.66 3.44-2 5 .31-.78 2.34-.99 3-1h1c1.83-1.17 3.68-9.97 3-12 0 .52-.82 2.54-1 3Z"/><path fill="#F5C4F8" stroke="None" d="M76 87c.76 1.51 1.26 2.89 1 5 1.41-1.76 2.58-3.61 3-6-.56.74-1.83-.8-2-1-.77-.38-2.13-.68-3-1 0 0-.8.24-1 0 .03 1.04 1.53 2.07 2 3Z"/><path fill="#302869" stroke="None" d="M80 86c-.42 2.39-1.59 4.24-3 6-.06.49 0 1 0 1-.31 1.26-1.56 2.12-2 3-.36 1.02-.5 1.96-1 3 .05.35 1.02.93 1 1 .49-.83 1.35-2.41 2-3 .6-.97 2.55-3.14 3-4 .05-.1 2.86-5.55 3-6 .1-2.31-.01-2.53-3-3 0 .5.08 1.51 0 2Z"/><path fill="#000013" fill-opacity=".65" stroke="None" d="M113 92c.99-2.42 1-4.94 1-8-.18 1.84-.7 5.53-1 8Z"/><path fill="#F5AFD3" stroke="None" d="M16 91c1.08-1.96 2.43-3.56 3-6-1.49 1.86-2.13 3.71-3 6Z"/><path fill="#F7FDFC" stroke="None" d="M66 88c-.11.48 0 1.5 0 2s-.12 1.53 0 2c.03.11.88 2.79 1 3 .98.73 1.3 1.06 2 2 1.35.66 1.85 2.59 2 4-1.77-1.07-3.3-2.73-5-4 .01.31-.88 2.79-1 3 .2.72 1.82.81 2 2 .07.49 0 1 0 1 1.87 2.49 3.63.31 5 1-.08-1.88 1.35-3.64 2-5 .5-1.04.64-1.98 1-3 .59-1.65.38-2.03 2-3 0 0-.06-.51 0-1 .26-2.11-.24-3.49-1-5-3.29-2.79-7.31 1.69-10-2v3Z"/><path fill="#B91A20" stroke="None" d="M84 90c.5-.43 1.58-.61 2-1 .19-.32.82-.73 1-1 .03-1.14 1.53-1.72 1-3-3.74-.99-3.36 2.83-4 5Z"/><path fill="#4848C4" stroke="None" d="M63 92c-1.25-2.4-2.4-4.02-4-6 .63 2.28 2.17 4.63 4 6Z"/><path fill="#D7185D" stroke="None" d="M102 89c.9-.87 1.48-1.71 2-3-.18.33-1.79 2.73-2 3Z"/><path fill="#7973A7" stroke="None" d="M80 93c1-1.83 2.9-3.53 3-6-.14.45-2.95 5.9-3 6Z"/><path fill="#2A1832" stroke="None" d="M86 89c-.81 1.34-2.17 1.96-3 3-.52 1.39-1.3 2.68-2 4-.37.7-.66 1.31-1 2 .14.6 2.52 1.21 3 1 .09-.35.87-.73 1-1-.12-.78-.35-3.31 0-4 .36-2.44 1.74-2.38 3-4 .11-.48-.16-1.56 0-2-.18.27-.81.68-1 1Z"/><path fill="#000004" stroke="None" d="M66 92c-.12-.47 0-1.5 0-2-1.14-.03-1.72-1.53-3-1-.16 1.53 3.48 3.62 3 3Z"/><path fill="#7A2B3D" stroke="None" d="M84 90c-1.11.96-.49.65-1 2 .83-1.04 2.19-1.66 3-3-.42.39-1.5.57-2 1Z"/><path fill="#F6F2F5" stroke="None" d="M85 93c-.21.31-.87.73-1 1-.35.69-.12 3.22 0 4 .22 1.4-.03 1.97 1 1 .49-1.38 1.17-3.31 3-3-.95.87-.54 2.68-2 3 .09-.16-.14 2.77-1 2-1.18 4.11 1.08 6.41 5 6-.23-.18 0-2.66 0-3-.36-.94-4.02-2.71-1-4 .46-2.15 2.67-4.66 3-7 0-.88-.22-2.15 0-3-.78.75-5.24 1.38-7 3Z"/><path fill="#9C9FCE" stroke="None" d="M106 92c.72-.79 2.12-1.46 3-2-1-1.73-2.31 1.01-3 2Z"/><path fill="#302869" stroke="None" d="M84 94c.13-.27.79-.69 1-1 .51-.77 1.79-2.07 2-3-1.26 1.62-2.64 1.56-3 4Z"/><path fill="#005AF7" stroke="None" d="M106 92c-.25.27 0 1 0 1 1.38 1.57 1.36 3.46 0 5v1c.19 1.57-.88 2.17-1 3-.02 1.95.75 3.13 1 5h-9c3.07 2.16 8.47.91 12 0-2.19-4.4-.07-7.94 1-12-.01.32-.96-4.93-1-5-.88.54-2.28 1.21-3 2Z"/><path fill="#CF8FB5" stroke="None" d="M51 99c.06.16 1 0 1 0 1.09-1.11 1.21-.08 2 1 1.32.69 2.02 1.46 3 0-.04-.7 1-1.98 1-2-1.68-3.68-3.85-2.44-2 1-4.5-.75-4.88-5.83-8-8 .65 2.82 2.17 5.27 3 8Z"/><path fill="#E45684" stroke="None" d="M96 96c-1.09 1.69-3.19 3.82-3 6 .14-.59 2.57-1.61 3-2 .25-.23 1.94-1.78 2-2 .14-.46-.1-1.52 0-2 .34-1.56 1.18-3.61 2-5-1.41 1.6-2.74 3.05-4 5Z"/><path fill="#00E7FB" stroke="None" d="M104 96c-1.25 1.91-1.28.95-4 2-.48 2.75 5.45 4.1 0 4 1.5 1.09 2.14 4.36 0 2-.44-.16-1.62-.22-2 0-.02.42-.47 2.87-1 3h9c-.25-1.87-1.02-3.05-1-5 .02-1.69-.03-1.9 1-3v-6s-.25-.73 0-1c-1.35 1-1.05 2.55-2 4Z"/><path fill="#000550" fill-opacity=".87" stroke="None" d="M12 105c-.72-3.27-.41-8.66 0-12-.94 3.79-1.43 8.12 0 12Z"/><path fill="#4945A4" stroke="None" d="M69 97c-.7-.94-1.02-1.27-2-2-.9-.67-2.02-1.35-3-2 1.28 1.64 4.77 3.77 5 4Z"/><path fill="#8987DC" stroke="None" d="M75 96c.44-.88 1.69-1.74 2-3-1.62.97-1.41 1.35-2 3Z"/><path fill="#005AF7" stroke="None" d="M77 97c.27-.25 1 0 1 0 .2-.32.82-.73 1-1 .01-1.29.41-1.93 1-3-.45.86-2.4 3.03-3 4Z"/><path fill="#A277BF" stroke="None" d="M89 100c-.02.09.89.65 1 1 .12-.46 1.87-1.62 2-2 .14-1.98 0-4.02 0-6-.33 2.34-2.54 4.85-3 7Z"/><path fill="#00A4F0" stroke="None" d="M106 98c1.36-1.54 1.38-3.43 0-5v5Z"/><path fill="#7160C5" stroke="None" d="M14 98c.05-.15 1 0 1 0v-4c-.37 1.04-1.78 2.28-1 4Z"/><path fill="#F9F9C5" stroke="None" d="M15 98v6c2.32-3.14-.05-7.06 0-10v4Z"/><path fill="#8987DC" stroke="None" d="M98 96c-.1.48.14 1.54 0 2-.76 2.55.13 3.78 0 6 .38-.22 1.56-.16 2 0-2.59-3.39-1-5.51 1-9-.66.01-2.69.22-3 1Z"/><path fill="#00A4F0" stroke="None" d="M100 104c2.14 2.36 1.5-.91 0-2 5.45.1-.48-1.25 0-4 2.72-1.05 2.75-.09 4-2-1.14.38-1.42-.61-2-1h-1c-2 3.49-3.59 5.61-1 9Z"/><path fill="#8987DC" stroke="None" d="M78 97c-.66 1.05-.54 1.97-1 3 .22-.25 1 0 1 0 .01-1.28.58-1.85 1-3v-1c-.18.27-.8.68-1 1Z"/><path fill="#A24AD6" stroke="None" d="M79 97c-.42 1.15-.99 1.72-1 3v1c.14-.14 1.81-1.21 2-1-.67-1.43-.46-1.04 0-2 .34-.69.63-1.3 1-2-.41.4-1.54.52-2 1Z"/><path fill="#F5C4F8" stroke="None" d="M85 99c.26-.25 1 0 1 0 1.46-.32 1.05-2.13 2-3-1.83-.31-2.51 1.62-3 3Z"/><path fill="#00A4F0" stroke="None" d="M75 100c-.92 1.55-1.84 3.18-2 5 2.01-.98 2.64-3.36 4-5 .46-1.03.34-1.95 1-3 0 0-.73-.25-1 0-.65.59-1.51 2.17-2 3Z"/><path fill="#7973A7" stroke="None" d="M15 103v-5s-.95-.15-1 0c-.05 1.93-.26 3.7 1 5Z"/><path fill="#AF1FF5" stroke="None" d="M52 99c.54 1.74 1.06 3.35 2 5 1.31 2.29 2.22 2.45 4 4-.45-1.44.12-3.49 0-5-.05.42-1.34 2.72-2 3 .44-2.33-1.24-4.02-2-6-.79-1.08-.91-2.11-2-1Z"/><path fill="#000F6B" stroke="None" d="M83 101c-.25-.25-.12-1.53 0-2-.48.21-2.86-.4-3-1 2.58 1.06-.7 4.19 3 3Z"/><path fill="#8987DC" stroke="None" d="M83 99c-.12.47-.25 1.75 0 2 .45-.15 1.72-.25 2 0 .86.77 1.09-2.16 1-2 0 0-.74-.25-1 0-1.03.97-.78.4-1-1-.13.27-.91.65-1 1Z"/><path fill="#F5C2E6" stroke="None" d="M96 100c-.85 1.66-.54 3.26-1 5 0 0-.2.6 0 1 .03.07 1.8.89 2 1 .53-.13.98-2.58 1-3 .13-2.22-.76-3.45 0-6-.06.22-1.75 1.77-2 2Z"/><path fill="#FBD7FD" stroke="None" d="M48 113c-.2.39-.55 1.78-1 2 6.82 1.02 8.39-5.81 7-11-.94-1.65-1.46-3.26-2-5 0 0-.94.16-1 0 2.4 7.9 1.97 8.56-3 14Z"/><path fill="#005AF7" stroke="None" d="M72 104c.07 1.6.31.96 1 2 .69-.84 2.43-2.3 3-1 .54-.81.58-.96 1-2 .31-.77.85-1.15 1-2v-1s-.78-.25-1 0c-1.36 1.64-1.99 4.02-4 5 .16-1.82 1.08-3.45 2-5 .02-.07-.95-.65-1-1-.65 1.36-2.08 3.12-2 5Z"/><path fill="#7A2B3D" stroke="None" d="M90 101c.24.8 0 2.16 0 3 0 .34-.23 2.82 0 3 .49-.05 1.5 0 2 0 .23-2.52-.19-5.34 0-8-.13.38-1.88 1.54-2 2Z"/><path fill="#0080E6" stroke="None" d="M105 102c.12-.83 1.19-1.43 1-3-1.03 1.1-.98 1.31-1 3Z"/><path fill="#D95EF0" stroke="None" d="M58 103c-.07-.91-.98-2.69-1-3-.98 1.46-1.68.69-3 0 .76 1.98 2.44 3.67 2 6 .66-.28 1.95-2.58 2-3Z"/><path fill="#F5C4F8" stroke="None" d="M63 102c-.13.66 1.35 2.84 2 3-.11-1.7-.38-4.84 2-3-.18-1.19-1.8-1.28-2-2-.28.51-1.57 1.54-2 2Z"/><path fill="#F9ABFB" stroke="None" d="M78 101c-.15.85-.69 1.23-1 2 .51-.82 2.39-1.33 3-2 0 0 .19-.59 0-1-.19-.21-1.86.86-2 1Z"/><path fill="#B994D5" stroke="None" d="M90 104c0-.84.24-2.2 0-3-.11-.35-1.02-.91-1-1-3.02 1.29.64 3.06 1 4Z"/><path fill="#E7ADAB" stroke="None" d="M93 102c.15 1.74.56 2.14 2 3 .46-1.74.15-3.34 1-5-.43.39-2.86 1.41-3 2Z"/><path fill="#A24AD6" stroke="None" d="M65 110c1.46.45 1.04-4.88 2-7 0 0 .07-.51 0-1-2.38-1.84-2.11 1.3-2 3-.65-.16-2.13-2.34-2-3-.51.54-.54 5.41 2 8Z"/><path fill="#F4E1FD" stroke="None" d="M77 103c-.42 1.04-.46 1.19-1 2-.23.35 0 1 0 1 1.6-.43 2.46 1.37 4 1-.27-1.95.36-4.07 0-6-.61.67-2.49 1.18-3 2ZM73 111c.12-1.31 0-2.69 0-4v-1c-.69-1.04-.93-.4-1-2-1.37-.69-3.13 1.49-5-1 2.59 3.45 4.41 7.51 4 12 2.28-.22 1.56-2.68 2-4Z"/><path fill="#F091EC" stroke="None" d="M47 115s-.51.06-1 0c-.25.25 0 1 0 1h4c.5 0 1.5-.02 2 0 .43-.13 3.52-.72 4-1 .74-.44 1.37-2.35 2-3 3.04-3.12 2.92 2.32 6 0-2.4-.47-4.26-2.49-6-4-1.78-1.55-2.69-1.71-4-4 1.39 5.19-.18 12.02-7 11Z"/><path fill="#000E75" stroke="None" d="M73 106v1c.54.81 1 .67 1 2 1.31-.54 2.44-1.41 4-1-.36-.82-1.36-1.56-2-2 0 0-.23-.65 0-1-.57-1.3-2.31.16-3 1Z"/><path fill="#8987DC" stroke="None" d="M18 108c-.23-.34 0-1 0-1-.67-.73-2.28-1.21-3-2 .34 1 1.83 2.83 3 3Z"/><path fill="#C5BAC7" stroke="None" d="M18 108c.16.23 1.5.03 2 0 2.53-.16 5.16-.36 7 1 .32.24 1 0 1 0-.68-3.18-7.62-2.21-10-2 0 0-.23.66 0 1Z"/><path fill="#5F556B" stroke="None" d="M73 111c.32-.95 1-.46 1-2 0-1.33-.46-1.19-1-2 0 1.31.12 2.69 0 4Z"/><path fill="#001043" stroke="None" d="M31 114c-1.17-1.68-3.23-3.15-4-5-1.84-1.36-4.47-1.16-7-1 3.04 2.06 7.38 4.23 11 6Z"/><path fill="#005AF7" stroke="None" d="M68 108c-2.6 3.17 3.33 4.7 0 0Z"/><path fill="#000004" stroke="None" d="M31 114s.64-.22 1 0c-.77-1.86-2.88-3.4-4-5 0 0-.68.24-1 0 .77 1.85 2.83 3.32 4 5Z"/><path fill="#592939" stroke="None" d="M32 114c2.72 1.69 4.51 3.26 8 3 .5-.04 1 0 1 0 .25-.25 0-1 0-1-6.16.53-8.4-3.94-13-7 1.12 1.6 3.23 3.14 4 5Z"/><path fill="#FAF0F9" stroke="None" d="M58 112c.12 2.86.98 3.36 4 3 .16-.23 1.5 0 2 0 .26-.11.65-.91 1-1 .18-.42.23-1.84 0-2 0 0-.52.09-1 0-3.08 2.32-2.96-3.12-6 0Z"/><path fill="#000013" fill-opacity=".55" stroke="None" d="M77 112c.93-.79 1.84-.82 3-1 .23-.14 0-1 0-1-1.6-.59-2.3 1.08-3 2Z"/><path fill="#000550" fill-opacity=".64" stroke="None" d="M80 111c8.83-1.35 20.13 2.35 28-1-9.2 0-18.84-.83-28 0 0 0 .23.86 0 1Z"/><path fill="#000004" fill-opacity=".28" stroke="None" d="M80 111c-1.16.18-2.07.21-3 1-.89 1.16-1.22 2.74-2 4-.51.83-1.34 2.4-2 3 3.27-1.48 36.98-8.58 37-9-.35.23-1.5 0-2 0-7.87 3.35-19.17-.35-28 1Z"/><path fill="#B976E6" stroke="None" d="M56 115c1.82-.15 4.04.86 6 1-.04 0 0-1 0-1-3.02.36-3.88-.14-4-3-.63.65-1.26 2.56-2 3Z"/><path fill="#F5B3F6" stroke="None" d="M65 114c.47-.12 1.84-.23 2 0 .17-1.47-.6-2.16-2-2 .23.16.18 1.58 0 2Z"/><path fill="#7160C5" stroke="None" d="M64 115c.39 0 2.76.26 3 0 0 0-.06-.51 0-1-.16-.23-1.53-.12-2 0-.35.09-.74.89-1 1Z"/><path fill="#E7ADAB" stroke="None" d="M41 116c1.31-.45 3.61 0 5 0 0 0-.25-.75 0-1-1.93-.23-3.8.9-5 1Z"/><path fill="#773394" stroke="None" d="M52 116c1.5.05 3.18-.93 4-1-.48.28-3.57.87-4 1Z"/><path fill="#2A1832" stroke="None" d="M62 116c2.52-.47 6.23 1.03 8-1-.98-.13-2.03.16-3 0-.24.26-2.61 0-3 0-.5 0-1.84-.23-2 0 0 0-.04 1 0 1Z"/><path fill="#5D1613" stroke="None" d="M41 117c2.72.26 4.94-.12 7-1h-2c-1.39 0-3.69-.45-5 0 0 0 .25.75 0 1Z"/><path fill="#302869" stroke="None" d="M41 117s-.5-.04-1 0c3.84.8 6.35 1.48 10-1h-2c-2.06.88-4.28 1.26-7 1Z"/><path fill="#000328" fill-opacity=".74" stroke="None" d="M68 119h4s.73.25 1 0c.66-.6 1.49-2.17 2-3-1.5 1.57-5.32 2.78-7 3Z"/><path fill="#000E75" fill-opacity=".89" stroke="None" d="M50 120c.3-.22.77-.95 1-1-6.11 0-13.25.6-19-1 4.8 2.27 12.14 2.84 18 2Z"/><path fill="#000144" fill-opacity=".56" stroke="None" d="M63 119h-3c1.09.13 1.86.13 3 0Z"/></svg>