<svg width="100%" height="100%" viewBox="0 0 100 100" stroke-miterlimit="10" style="fill-rule:nonzero;clip-rule:evenodd;stroke-linecap:round;stroke-linejoin:round;" version="1.1" xml:space="preserve" xmlns="http://www.w3.org/2000/svg" xmlns:xlink="http://www.w3.org/1999/xlink"><defs>	<linearGradient id="LG_3" gradientTransform="matrix(47.2716 76.7195 -76.7195 47.2716 35.6939 14.3002)" gradientUnits="userSpaceOnUse" x1="0" x2="1" y1="0" y2="0"><stop offset="0" stop-color="#fff"/><stop offset="1" stop-color="#888" stop-opacity="0.295608"/></linearGradient>	<radialGradient cx="0" cy="0" id="RG" gradientTransform="matrix(48.7317 39.4359 -35.5177 53.824 37.9982 27.3504)" gradientUnits="userSpaceOnUse" r="1"><stop offset="0.164474" stop-color="#fff"/><stop offset="0.371053" stop-color="#fff" stop-opacity="0.812847"/><stop offset="0.502632" stop-color="#fff" stop-opacity="0.623859"/><stop offset="1" stop-color="#fff" stop-opacity="0"/></radialGradient>	<linearGradient id="LG_4" gradientTransform="matrix(6.92017 11.9861 -11.9861 6.92017 26.0297 37.419)" gradientUnits="userSpaceOnUse" x1="0" x2="1" y1="0" y2="0"><stop offset="0" stop-color="#000" stop-opacity="0"/><stop offset="1" stop-color="#000" stop-opacity="0.7"/></linearGradient>	<linearGradient id="LG_5" gradientTransform="matrix(6.92017 11.9861 -11.9861 6.92017 45.8883 37.419)" gradientUnits="userSpaceOnUse" x1="0" x2="1" y1="0" y2="0"><stop offset="0" stop-color="#000" stop-opacity="0"/><stop offset="1" stop-color="#000" stop-opacity="0.7"/></linearGradient>	<linearGradient id="LG_6" gradientTransform="matrix(6.92017 11.9861 -11.9861 6.92017 67.0502 37.419)" gradientUnits="userSpaceOnUse" x1="0" x2="1" y1="0" y2="0"><stop offset="0" stop-color="#000" stop-opacity="0"/><stop offset="1" stop-color="#000" stop-opacity="0.7"/></linearGradient></defs><g opacity="1"><path fill="#00000000" d="M0 7.10543e-15L100 7.10543e-15L100 100L0 100L0 7.10543e-15Z"/>	<g opacity="0.9" fill-rule="nonzero" stroke="none">		<path fill="url(#LG_3)" opacity="0.864428" d="M17.7877 95.5048C19.0972 95.5048 20.8141 95.1847 22.9384 94.5446C25.0627 93.9044 27.3543 93.0532 29.8132 91.991C32.2722 90.9289 34.702 89.7431 37.1027 88.4336C39.5035 87.1241 41.635 85.8146 43.4974 84.5051C43.8757 84.2141 44.2249 84.0104 44.545 83.894C44.8651 83.7776 45.1706 83.7194 45.4616 83.7194C45.7526 83.7485 46.0436 83.7703 46.3346 83.7849C46.6256 83.7994 46.9021 83.8067 47.164 83.8067C53.4495 83.8067 59.2841 83.1374 64.6675 81.7988C70.051 80.4602 74.8888 78.576 79.1811 76.1462C83.4733 73.7164 87.1326 70.8428 90.159 67.5254C93.1853 64.208 95.4988 60.5778 97.0993 56.6348C98.6998 52.6917 99.5 48.5377 99.5 44.1728C99.5 38.6729 98.2269 33.5295 95.6806 28.7426C93.1344 23.9557 89.5988 19.7435 85.0738 16.106C80.5487 12.4685 75.289 9.62402 69.2944 7.57248C63.2998 5.52095 56.8688 4.49518 50.0012 4.49518C43.1337 4.49518 36.7026 5.52095 30.708 7.57248C24.7135 9.62402 19.4537 12.4685 14.9287 16.106C10.4036 19.7435 6.86802 23.9557 4.32178 28.7426C1.77555 33.5295 0.502432 38.6729 0.502432 44.1728C0.502432 48.8287 1.4118 53.2592 3.23054 57.4641C5.04928 61.669 7.65371 65.5029 11.0438 68.9658C14.434 72.4287 18.457 75.4114 23.113 77.914C23.4331 78.0886 23.6441 78.3287 23.7459 78.6342C23.8478 78.9398 23.8114 79.2671 23.6368 79.6163C22.822 80.9549 21.8617 82.3299 20.7559 83.7412C19.6501 85.1526 18.5807 86.4694 17.5476 87.6915C16.5146 88.9137 15.7216 89.8886 15.1687 90.6161C14.3248 91.6928 14.1284 92.7767 14.5795 93.868C15.0305 94.9592 16.0999 95.5048 17.7877 95.5048Z"/>		<path fill="url(#RG)" d="M0.502477 44.7427C0.232282 22.8535 22.0979 4.83621 49.3408 4.49993C76.5836 4.16365 98.8874 21.6358 99.1576 43.525C99.4278 65.4142 77.5621 83.4315 50.3192 83.7678C23.0764 84.1041 0.772672 66.6319 0.502477 44.7427Z"/>	</g> <g opacity="1" fill-rule="nonzero" stroke="none">	<g>		<path fill="#ff2c7f" d="M22.5696 43.4121C22.5696 39.5902 25.6679 36.4919 29.4898 36.4919C33.3117 36.4919 36.4099 39.5902 36.4099 43.4121C36.4099 47.234 33.3117 50.3322 29.4898 50.3322C25.6679 50.3322 22.5696 47.234 22.5696 43.4121Z"/>		<path fill="url(#LG_4)" opacity="0.75" d="M26.0297 37.419C29.3395 35.5081 33.5719 36.6421 35.4828 39.952C37.3938 43.2619 36.2597 47.4942 32.9498 49.4051C29.64 51.3161 25.4077 50.182 23.4967 46.8722C21.5858 43.5623 22.7198 39.33 26.0297 37.419Z"/>	</g>	<g>		<path fill="#e8f118" d="M42.4282 43.4121C42.4282 39.5902 45.5264 36.4919 49.3484 36.4919C53.1703 36.4919 56.2685 39.5902 56.2685 43.4121C56.2685 47.234 53.1703 50.3322 49.3484 50.3322C45.5264 50.3322 42.4282 47.234 42.4282 43.4121Z"/>		<path fill="url(#LG_5)" opacity="0.75" d="M45.8883 37.419C49.1981 35.5081 53.4304 36.6421 55.3414 39.952C57.2523 43.2619 56.1183 47.4942 52.8084 49.4051C49.4986 51.3161 45.2663 50.182 43.3553 46.8722C41.4444 43.5623 42.5784 39.33 45.8883 37.419Z"/>	<g>	</g>		<path fill="#00ffd3" d="M63.5901 43.4121C63.5901 39.5902 66.6883 36.4919 70.5102 36.4919C74.3321 36.4919 77.4304 39.5902 77.4304 43.4121C77.4304 47.234 74.3321 50.3322 70.5102 50.3322C66.6883 50.3322 63.5901 47.234 63.5901 43.4121Z"/>		<path fill="url(#LG_6)" opacity="0.75" d="M67.0502 37.419C70.36 35.5081 74.5923 36.6421 76.5033 39.952C78.4142 43.2619 77.2802 47.4942 73.9703 49.4051C70.6605 51.3161 66.4281 50.182 64.5172 46.8722C62.6062 43.5623 63.7403 39.33 67.0502 37.419Z"/>	</g>  </g></g></svg>