<svg xmlns="http://www.w3.org/2000/svg" width="100%" height="100%" viewBox="0 0 256 256"><defs><linearGradient id="a" x1="24" x2="24" y1="23.469" y2="-33.288" gradientUnits="userSpaceOnUse"><stop offset="0" stop-color="#fce724" stop-opacity=".341"/><stop offset="1" stop-color="#ff6201" stop-opacity=".369"/></linearGradient><linearGradient id="b" x1="16.219" x2="31.224" y1="16.219" y2="31.224" gradientUnits="userSpaceOnUse"><stop offset="0" stop-color="#f4805d" stop-opacity=".4"/><stop offset="1" stop-color="#ffd8bb" stop-opacity=".49"/></linearGradient><linearGradient id="c" x1="40.304" x2="-4.604" y1="24.118" y2="23.794" gradientUnits="userSpaceOnUse"><stop offset="0" stop-color="ivory" stop-opacity="0"/><stop offset="1" stop-color="#ff9a83" stop-opacity=".4"/></linearGradient></defs><g fill="none" stroke-miterlimit="10" font-family="none" font-size="none" font-weight="none" style="mix-blend-mode:normal" text-anchor="none" transform="scale(5.33333)"><path fill="#fe8e0d" fill-opacity=".42" d="M35.98 18.94C34 14.27 29.38 11 24 11c-1.8 0-3.5.36-5.06 1.02-3.11 1.32-5.6 3.81-6.92 6.92C11.36 20.5 11 22.2 11 24c0 1.8.36 3.5 1.02 5.06 1.32 3.11 3.81 5.6 6.92 6.92C20.5 36.64 22.2 37 24 37c5.38 0 10-3.27 11.98-7.94C36.64 27.5 37 25.8 37 24c0-1.8-.36-3.5-1.02-5.06zM24 28.8a4.801 4.801 0 0 1 0-9.6 4.801 4.801 0 0 1 0 9.6z" opacity=".1"/><path fill="#fe8e0d" fill-opacity=".42" d="M35.98 18.94C34 14.27 29.38 11 24 11c-1.8 0-3.5.36-5.06 1.02-3.11 1.32-5.6 3.81-6.92 6.92C11.36 20.5 11 22.2 11 24c0 1.8.36 3.5 1.02 5.06 1.32 3.11 3.81 5.6 6.92 6.92C20.5 36.64 22.2 37 24 37c5.38 0 10-3.27 11.98-7.94C36.64 27.5 37 25.8 37 24c0-1.8-.36-3.5-1.02-5.06zM24 29.6c-3.09 0-5.6-2.51-5.6-5.6s2.51-5.6 5.6-5.6 5.6 2.51 5.6 5.6-2.51 5.6-5.6 5.6z" opacity=".2"/><path fill="#fe8e0d" fill-opacity=".42" d="M35.98 18.94C34 14.27 29.38 11 24 11c-1.8 0-3.5.36-5.06 1.02-3.11 1.32-5.6 3.81-6.92 6.92C11.36 20.5 11 22.2 11 24c0 1.8.36 3.5 1.02 5.06 1.32 3.11 3.81 5.6 6.92 6.92C20.5 36.64 22.2 37 24 37c5.38 0 10-3.27 11.98-7.94C36.64 27.5 37 25.8 37 24c0-1.8-.36-3.5-1.02-5.06zM24 30.4c-3.53 0-6.4-2.87-6.4-6.4 0-3.53 2.87-6.4 6.4-6.4 3.53 0 6.4 2.87 6.4 6.4 0 3.53-2.87 6.4-6.4 6.4z" opacity=".3"/><path fill="#fe8e0d" fill-opacity=".42" d="M35.98 18.94C34 14.27 29.38 11 24 11c-1.8 0-3.5.36-5.06 1.02-3.11 1.32-5.6 3.81-6.92 6.92C11.36 20.5 11 22.2 11 24c0 1.8.36 3.5 1.02 5.06 1.32 3.11 3.81 5.6 6.92 6.92C20.5 36.64 22.2 37 24 37c5.38 0 10-3.27 11.98-7.94C36.64 27.5 37 25.8 37 24c0-1.8-.36-3.5-1.02-5.06zM24 31.2c-3.97 0-7.2-3.23-7.2-7.2s3.23-7.2 7.2-7.2 7.2 3.23 7.2 7.2-3.23 7.2-7.2 7.2z" opacity=".4"/><path fill="url(#a)" d="M45 24c0-.266-.148-.514-.405-.708-2.103-1.587-5.317-3.155-8.582-4.269l-.002.005-.003-.008.005.002c1.521-3.096 2.685-6.478 3.05-9.086.045-.318-.026-.598-.214-.787-.188-.188-.468-.259-.787-.214-2.609.365-5.99 1.529-9.087 3.05l.002.005-.008-.003.005-.002c-1.114-3.265-2.681-6.479-4.268-8.582C24.514 3.148 24.267 3 24 3c-.266 0-.514.148-.708.405-1.587 2.103-3.155 5.317-4.268 8.582l.005.002-.007.003.002-.005c-3.096-1.521-6.478-2.686-9.087-3.05-.318-.045-.598.025-.786.214-.189.188-.259.468-.214.786.365 2.609 1.529 5.99 3.05 9.087l.005-.002-.003.008-.002-.005c-3.265 1.114-6.479 2.681-8.582 4.268-.257.193-.405.44-.405.707 0 .266.148.514.405.708 2.103 1.587 5.317 3.155 8.582 4.269l.002-.005.003.007-.005-.002c-1.521 3.096-2.685 6.478-3.05 9.086-.044.318.026.598.214.787.188.188.468.258.787.214 2.609-.365 5.99-1.529 9.087-3.05l-.002-.005.007.003-.005.002c1.114 3.265 2.681 6.479 4.268 8.582.193.256.44.404.707.404.266 0 .514-.148.708-.405 1.587-2.103 3.155-5.317 4.268-8.582l-.005-.002.008-.003-.002.005c3.096 1.521 6.478 2.686 9.086 3.05.318.045.598-.026.787-.214.188-.188.259-.468.214-.787-.365-2.609-1.529-5.99-3.05-9.086l-.005.002.003-.007.002.005c3.265-1.114 6.479-2.681 8.582-4.268.256-.194.404-.441.404-.708zm-21 8a8 8 0 1 1 0-16 8 8 0 0 1 0 16z"/><path fill="#fe8e0d" fill-opacity=".42" d="M38.44 19.94c-.15-.06-.31-.13-.47-.19-.16-.06-.32-.13-.48-.19-.16-.06-.33-.12-.49-.18-.16-.07-.33-.13-.49-.18-.17-.06-.33-.12-.5-.18.08-.16.15-.32.23-.48l.22-.48.21-.46c.07-.15.14-.31.2-.47.08-.15.14-.31.21-.47a15.07 15.07 0 0 0-5.74-5.74c-.16.07-.32.13-.47.21-.16.06-.32.13-.47.2-.16.06-.31.13-.46.21-.16.07-.32.14-.48.22-.16.08-.32.15-.48.23-.06-.17-.12-.33-.18-.5-.05-.16-.11-.33-.18-.49-.06-.16-.12-.33-.18-.49-.06-.16-.13-.32-.19-.48-.06-.16-.13-.32-.19-.47C26.77 9.19 25.41 9 24 9c-1.41 0-2.77.19-4.06.56-.06.15-.13.31-.19.47-.06.16-.13.32-.19.48-.06.16-.12.33-.18.49-.07.16-.13.33-.18.49-.06.17-.12.33-.18.5-.16-.08-.32-.15-.48-.23-.16-.08-.32-.15-.48-.22-.15-.08-.3-.15-.46-.21-.15-.07-.31-.14-.47-.2-.15-.08-.31-.14-.47-.21a15.07 15.07 0 0 0-5.74 5.74c.07.16.13.32.21.47.06.16.13.32.2.47.06.16.13.31.21.46.07.16.14.32.22.48.08.16.15.32.23.48-.17.06-.33.12-.5.18-.16.05-.33.11-.49.18-.16.06-.33.12-.49.18-.16.06-.32.13-.48.19-.16.06-.32.13-.47.19C9.19 21.23 9 22.59 9 24c0 1.41.19 2.77.56 4.06.15.06.31.13.47.19.16.06.32.13.48.19.16.06.33.12.49.18.16.07.33.13.49.18.17.06.33.12.5.18-.08.16-.15.32-.23.48l-.22.48-.21.46c-.07.15-.14.31-.2.47-.08.15-.14.31-.21.47a15.07 15.07 0 0 0 5.74 5.74c.16-.07.32-.13.47-.21.16-.06.32-.13.47-.2.16-.06.31-.13.46-.21.16-.07.32-.14.48-.22.16-.08.32-.15.48-.23.06.17.12.33.18.5.05.16.11.33.18.49.06.16.12.33.18.49.06.16.13.32.19.48.06.16.13.32.19.47 1.29.37 2.65.56 4.06.56 1.41 0 2.77-.19 4.06-.56.06-.15.13-.31.19-.47.06-.16.13-.32.19-.48.06-.16.12-.33.18-.49.07-.16.13-.33.18-.49.06-.17.12-.33.18-.5.16.08.32.15.48.23.16.08.32.15.48.22.15.08.3.15.46.21.15.07.31.14.47.2.15.08.31.14.47.21a15.07 15.07 0 0 0 5.74-5.74c-.07-.16-.13-.32-.21-.47-.06-.16-.13-.32-.2-.47-.06-.16-.13-.31-.21-.46-.07-.16-.14-.32-.22-.48-.08-.16-.15-.32-.23-.48.17-.06.33-.12.5-.18.16-.05.33-.11.49-.18.16-.06.33-.12.49-.18.16-.06.32-.13.48-.19.16-.06.32-.13.47-.19.37-1.29.56-2.65.56-4.06 0-1.41-.19-2.77-.56-4.06zM24 32c-4.42 0-8-3.58-8-8s3.58-8 8-8 8 3.58 8 8-3.58 8-8 8z" opacity=".05"/><path fill="#fe8e0d" fill-opacity=".42" d="M37.97 19.75c-.16-.06-.32-.13-.48-.19-.16-.06-.33-.12-.49-.18-.16-.07-.33-.13-.49-.18-.17-.06-.33-.12-.5-.18.08-.16.15-.32.23-.48l.22-.48.21-.46c.07-.15.14-.31.2-.47a14.46 14.46 0 0 0-6-6c-.16.06-.32.13-.47.2-.16.06-.31.13-.46.21-.16.07-.32.14-.48.22-.16.08-.32.15-.48.23-.06-.17-.12-.33-.18-.5-.05-.16-.11-.33-.18-.49-.06-.16-.12-.33-.18-.49-.06-.16-.13-.32-.19-.48-1.35-.41-2.77-.63-4.25-.63s-2.9.22-4.25.63c-.06.16-.13.32-.19.48-.06.16-.12.33-.18.49-.07.16-.13.33-.18.49-.06.17-.12.33-.18.5-.16-.08-.32-.15-.48-.23-.16-.08-.32-.15-.48-.22-.15-.08-.3-.15-.46-.21-.15-.07-.31-.14-.47-.2a14.46 14.46 0 0 0-6 6c.06.16.13.32.2.47.06.16.13.31.21.46.07.16.14.32.22.48.08.16.15.32.23.48-.17.06-.33.12-.5.18-.16.05-.33.11-.49.18-.16.06-.33.12-.49.18-.16.06-.32.13-.48.19-.41 1.35-.63 2.77-.63 4.25s.22 2.9.63 4.25c.16.06.32.13.48.19.16.06.33.12.49.18.16.07.33.13.49.18.17.06.33.12.5.18-.08.16-.15.32-.23.48l-.22.48-.21.46c-.07.15-.14.31-.2.47a14.46 14.46 0 0 0 6 6c.16-.06.32-.13.47-.2.16-.06.31-.13.46-.21.16-.07.32-.14.48-.22.16-.08.32-.15.48-.23.06.17.12.33.18.5.05.16.11.33.18.49.06.16.12.33.18.49.06.16.13.32.19.48 1.35.41 2.77.63 4.25.63s2.9-.22 4.25-.63c.06-.16.13-.32.19-.48.06-.16.12-.33.18-.49.07-.16.13-.33.18-.49.06-.17.12-.33.18-.5.16.08.32.15.48.23.16.08.32.15.48.22.15.08.3.15.46.21.15.07.31.14.47.2a14.46 14.46 0 0 0 6-6c-.06-.16-.13-.32-.2-.47-.06-.16-.13-.31-.21-.46-.07-.16-.14-.32-.22-.48-.08-.16-.15-.32-.23-.48.17-.06.33-.12.5-.18.16-.05.33-.11.49-.18.16-.06.33-.12.49-.18.16-.06.32-.13.48-.19.41-1.35.63-2.77.63-4.25s-.22-2.9-.63-4.25zM24 32c-4.42 0-8-3.58-8-8s3.58-8 8-8 8 3.58 8 8-3.58 8-8 8z" opacity=".1"/><path fill="#fe8e0d" fill-opacity=".42" d="M37.49 19.56c-.16-.06-.33-.12-.49-.18-.16-.07-.33-.13-.49-.18-.17-.06-.33-.12-.5-.18.08-.16.15-.32.23-.48l.22-.48.21-.46c-1.37-2.7-3.57-4.9-6.27-6.27-.16.06-.31.13-.46.21-.16.07-.32.14-.48.22-.16.08-.32.15-.48.23-.06-.17-.12-.33-.18-.5-.05-.16-.11-.33-.18-.49-.06-.16-.12-.33-.18-.49-1.4-.46-2.89-.71-4.44-.71-1.55 0-3.04.25-4.44.71-.06.16-.12.33-.18.49-.07.16-.13.33-.18.49-.06.17-.12.33-.18.5-.16-.08-.32-.15-.48-.23-.16-.08-.32-.15-.48-.22-.15-.08-.3-.15-.46-.21-2.7 1.37-4.9 3.57-6.27 6.27.06.16.13.31.21.46.07.16.14.32.22.48.08.16.15.32.23.48-.17.06-.33.12-.5.18-.16.05-.33.11-.49.18-.16.06-.33.12-.49.18-.46 1.4-.71 2.89-.71 4.44 0 1.55.25 3.04.71 4.44.16.06.33.12.49.18.16.07.33.13.49.18.17.06.33.12.5.18-.08.16-.15.32-.23.48l-.22.48-.21.46c1.37 2.7 3.57 4.9 6.27 6.27.16-.06.31-.13.46-.21.16-.07.32-.14.48-.22.16-.08.32-.15.48-.23.06.17.12.33.18.5.05.16.11.33.18.49.06.16.12.33.18.49 1.4.46 2.89.71 4.44.71 1.55 0 3.04-.25 4.44-.71.06-.16.12-.33.18-.49.07-.16.13-.33.18-.49.06-.17.12-.33.18-.5.16.08.32.15.48.23.16.08.32.15.48.22.15.08.3.15.46.21 2.7-1.37 4.9-3.57 6.27-6.27-.06-.16-.13-.31-.21-.46-.07-.16-.14-.32-.22-.48-.08-.16-.15-.32-.23-.48.17-.06.33-.12.5-.18.16-.05.33-.11.49-.18.16-.06.33-.12.49-.18.46-1.4.71-2.89.71-4.44 0-1.55-.25-3.04-.71-4.44zM24 32c-4.42 0-8-3.58-8-8s3.58-8 8-8 8 3.58 8 8-3.58 8-8 8z" opacity=".2"/><path fill="#fe8e0d" fill-opacity=".42" d="M37 19.38c-.16-.07-.33-.13-.49-.18-.17-.06-.33-.12-.5-.18.08-.16.15-.32.23-.48l.22-.48a14.022 14.022 0 0 0-6.52-6.52c-.16.07-.32.14-.48.22-.16.08-.32.15-.48.23-.06-.17-.12-.33-.18-.5-.05-.16-.11-.33-.18-.49-1.44-.52-3-.8-4.62-.8s-3.18.28-4.62.8c-.07.16-.13.33-.18.49-.06.17-.12.33-.18.5-.16-.08-.32-.15-.48-.23-.16-.08-.32-.15-.48-.22a14.022 14.022 0 0 0-6.52 6.52c.07.16.14.32.22.48.08.16.15.32.23.48-.17.06-.33.12-.5.18-.16.05-.33.11-.49.18-.52 1.44-.8 3-.8 4.62s.28 3.18.8 4.62c.16.07.33.13.49.18.17.06.33.12.5.18-.08.16-.15.32-.23.48l-.22.48c1.37 2.84 3.68 5.15 6.52 6.52.16-.07.32-.14.48-.22.16-.08.32-.15.48-.23.06.17.12.33.18.5.05.16.11.33.18.49 1.44.52 3 .8 4.62.8s3.18-.28 4.62-.8c.07-.16.13-.33.18-.49.06-.17.12-.33.18-.5.16.08.32.15.48.23.16.08.32.15.48.22 2.84-1.37 5.15-3.68 6.52-6.52-.07-.16-.14-.32-.22-.48-.08-.16-.15-.32-.23-.48.17-.06.33-.12.5-.18.16-.05.33-.11.49-.18.52-1.44.8-3 .8-4.62s-.28-3.18-.8-4.62zM24 32c-4.42 0-8-3.58-8-8s3.58-8 8-8 8 3.58 8 8-3.58 8-8 8z" opacity=".3"/><path fill="#fe8e0d" fill-opacity=".42" d="M37.4 24c0-1.69-.31-3.31-.89-4.8-.17-.06-.33-.12-.5-.18.08-.16.15-.32.23-.48a13.494 13.494 0 0 0-6.78-6.78c-.16.08-.32.15-.48.23-.06-.17-.12-.33-.18-.5-1.49-.58-3.11-.89-4.8-.89s-3.31.31-4.8.89c-.06.17-.12.33-.18.5-.16-.08-.32-.15-.48-.23a13.494 13.494 0 0 0-6.78 6.78c.08.16.15.32.23.48-.17.06-.33.12-.5.18-.57 1.49-.89 3.11-.89 4.8s.31 3.31.89 4.8c.17.06.33.12.5.18-.08.16-.15.32-.23.48 1.35 3.01 3.77 5.43 6.78 6.78.16-.08.32-.15.48-.23.06.17.12.33.18.5 1.49.58 3.11.89 4.8.89s3.31-.31 4.8-.89c.06-.17.12-.33.18-.5.16.08.32.15.48.23 3.01-1.35 5.43-3.77 6.78-6.78-.08-.16-.15-.32-.23-.48.17-.06.33-.12.5-.18.58-1.49.89-3.11.89-4.8zM24 32c-4.42 0-8-3.58-8-8s3.58-8 8-8 8 3.58 8 8-3.58 8-8 8z" opacity=".4"/><circle cx="24" cy="24" r="13" fill="url(#b)"/><path fill="url(#c)" d="M24 11.5c6.893 0 12.5 5.607 12.5 12.5S30.893 36.5 24 36.5 11.5 30.893 11.5 24 17.107 11.5 24 11.5m0-.5c-7.18 0-13 5.82-13 13s5.82 13 13 13 13-5.82 13-13-5.82-13-13-13z"/></g></svg>