<svg xmlns="http://www.w3.org/2000/svg" xmlns:xlink="http://www.w3.org/1999/xlink" viewBox="0,0,256,256" width="100%" height="100%" fill-rule="nonzero"><defs><linearGradient x1="24" y1="23.469" x2="24" y2="-33.288" gradientUnits="userSpaceOnUse" id="color-1"><stop offset="0" stop-color="#fce724" stop-opacity="0.34118"></stop><stop offset="1" stop-color="#ff6201" stop-opacity="0.36863"></stop></linearGradient><linearGradient x1="16.219" y1="16.219" x2="31.224" y2="31.224" gradientUnits="userSpaceOnUse" id="color-2"><stop offset="0" stop-color="#f4805d" stop-opacity="0.4"></stop><stop offset="1" stop-color="#ffd8bb" stop-opacity="0.4902"></stop></linearGradient><linearGradient x1="40.304" y1="24.118" x2="-4.604" y2="23.794" gradientUnits="userSpaceOnUse" id="color-3"><stop offset="0" stop-color="#fffff0" stop-opacity="0"></stop><stop offset="1" stop-color="#ff9a83" stop-opacity="0.4"></stop></linearGradient></defs><g fill="none" fill-rule="nonzero" stroke="none" stroke-width="1" stroke-linecap="butt" stroke-linejoin="miter" stroke-miterlimit="10" stroke-dasharray="" stroke-dashoffset="0" font-family="none" font-weight="none" font-size="none" text-anchor="none" style="mix-blend-mode: normal"><g transform="scale(5.33333,5.33333)"><path d="M35.98,18.94c-1.98,-4.67 -6.6,-7.94 -11.98,-7.94c-1.8,0 -3.5,0.36 -5.06,1.02c-3.11,1.32 -5.6,3.81 -6.92,6.92c-0.66,1.56 -1.02,3.26 -1.02,5.06c0,1.8 0.36,3.5 1.02,5.06c1.32,3.11 3.81,5.6 6.92,6.92c1.56,0.66 3.26,1.02 5.06,1.02c5.38,0 10,-3.27 11.98,-7.94c0.66,-1.56 1.02,-3.26 1.02,-5.06c0,-1.8 -0.36,-3.5 -1.02,-5.06zM24,28.8c-2.65,0 -4.8,-2.15 -4.8,-4.8c0,-2.65 2.15,-4.8 4.8,-4.8c2.65,0 4.8,2.15 4.8,4.8c0,2.65 -2.15,4.8 -4.8,4.8z" fill-opacity="0.41961" fill="#fe8e0d" opacity="0.1"></path><path d="M35.98,18.94c-1.98,-4.67 -6.6,-7.94 -11.98,-7.94c-1.8,0 -3.5,0.36 -5.06,1.02c-3.11,1.32 -5.6,3.81 -6.92,6.92c-0.66,1.56 -1.02,3.26 -1.02,5.06c0,1.8 0.36,3.5 1.02,5.06c1.32,3.11 3.81,5.6 6.92,6.92c1.56,0.66 3.26,1.02 5.06,1.02c5.38,0 10,-3.27 11.98,-7.94c0.66,-1.56 1.02,-3.26 1.02,-5.06c0,-1.8 -0.36,-3.5 -1.02,-5.06zM24,29.6c-3.09,0 -5.6,-2.51 -5.6,-5.6c0,-3.09 2.51,-5.6 5.6,-5.6c3.09,0 5.6,2.51 5.6,5.6c0,3.09 -2.51,5.6 -5.6,5.6z" fill-opacity="0.41961" fill="#fe8e0d" opacity="0.2"></path><path d="M35.98,18.94c-1.98,-4.67 -6.6,-7.94 -11.98,-7.94c-1.8,0 -3.5,0.36 -5.06,1.02c-3.11,1.32 -5.6,3.81 -6.92,6.92c-0.66,1.56 -1.02,3.26 -1.02,5.06c0,1.8 0.36,3.5 1.02,5.06c1.32,3.11 3.81,5.6 6.92,6.92c1.56,0.66 3.26,1.02 5.06,1.02c5.38,0 10,-3.27 11.98,-7.94c0.66,-1.56 1.02,-3.26 1.02,-5.06c0,-1.8 -0.36,-3.5 -1.02,-5.06zM24,30.4c-3.53,0 -6.4,-2.87 -6.4,-6.4c0,-3.53 2.87,-6.4 6.4,-6.4c3.53,0 6.4,2.87 6.4,6.4c0,3.53 -2.87,6.4 -6.4,6.4z" fill-opacity="0.41961" fill="#fe8e0d" opacity="0.3"></path><path d="M35.98,18.94c-1.98,-4.67 -6.6,-7.94 -11.98,-7.94c-1.8,0 -3.5,0.36 -5.06,1.02c-3.11,1.32 -5.6,3.81 -6.92,6.92c-0.66,1.56 -1.02,3.26 -1.02,5.06c0,1.8 0.36,3.5 1.02,5.06c1.32,3.11 3.81,5.6 6.92,6.92c1.56,0.66 3.26,1.02 5.06,1.02c5.38,0 10,-3.27 11.98,-7.94c0.66,-1.56 1.02,-3.26 1.02,-5.06c0,-1.8 -0.36,-3.5 -1.02,-5.06zM24,31.2c-3.97,0 -7.2,-3.23 -7.2,-7.2c0,-3.97 3.23,-7.2 7.2,-7.2c3.97,0 7.2,3.23 7.2,7.2c0,3.97 -3.23,7.2 -7.2,7.2z" fill-opacity="0.41961" fill="#fe8e0d" opacity="0.4"></path><path d="M45,24c0,-0.266 -0.148,-0.514 -0.405,-0.708c-2.103,-1.587 -5.317,-3.155 -8.582,-4.269l-0.002,0.005c-0.001,-0.002 -0.002,-0.005 -0.003,-0.008l0.005,0.002c1.521,-3.096 2.685,-6.478 3.05,-9.086c0.045,-0.318 -0.026,-0.598 -0.214,-0.787c-0.188,-0.188 -0.468,-0.259 -0.787,-0.214c-2.609,0.365 -5.99,1.529 -9.087,3.05l0.002,0.005c-0.002,-0.001 -0.005,-0.002 -0.008,-0.003l0.005,-0.002c-1.114,-3.265 -2.681,-6.479 -4.268,-8.582c-0.192,-0.255 -0.439,-0.403 -0.706,-0.403c-0.266,0 -0.514,0.148 -0.708,0.405c-1.587,2.103 -3.155,5.317 -4.268,8.582l0.005,0.002c-0.002,0.001 -0.005,0.002 -0.007,0.003l0.002,-0.005c-3.096,-1.521 -6.478,-2.686 -9.087,-3.05c-0.318,-0.045 -0.598,0.025 -0.786,0.214c-0.189,0.188 -0.259,0.468 -0.214,0.786c0.365,2.609 1.529,5.99 3.05,9.087l0.005,-0.002c-0.001,0.002 -0.002,0.005 -0.003,0.008l-0.002,-0.005c-3.265,1.114 -6.479,2.681 -8.582,4.268c-0.257,0.193 -0.405,0.44 -0.405,0.707c0,0.266 0.148,0.514 0.405,0.708c2.103,1.587 5.317,3.155 8.582,4.269l0.002,-0.005c0.001,0.002 0.002,0.005 0.003,0.007l-0.005,-0.002c-1.521,3.096 -2.685,6.478 -3.05,9.086c-0.044,0.318 0.026,0.598 0.214,0.787c0.188,0.188 0.468,0.258 0.787,0.214c2.609,-0.365 5.99,-1.529 9.087,-3.05l-0.002,-0.005c0.002,0.001 0.005,0.002 0.007,0.003l-0.005,0.002c1.114,3.265 2.681,6.479 4.268,8.582c0.193,0.256 0.44,0.404 0.707,0.404c0.266,0 0.514,-0.148 0.708,-0.405c1.587,-2.103 3.155,-5.317 4.268,-8.582l-0.005,-0.002c0.003,-0.001 0.005,-0.002 0.008,-0.003l-0.002,0.005c3.096,1.521 6.478,2.686 9.086,3.05c0.318,0.045 0.598,-0.026 0.787,-0.214c0.188,-0.188 0.259,-0.468 0.214,-0.787c-0.365,-2.609 -1.529,-5.99 -3.05,-9.086l-0.005,0.002c0.001,-0.002 0.002,-0.005 0.003,-0.007l0.002,0.005c3.265,-1.114 6.479,-2.681 8.582,-4.268c0.256,-0.194 0.404,-0.441 0.404,-0.708zM24,32c-4.418,0 -8,-3.582 -8,-8c0,-4.418 3.582,-8 8,-8c4.418,0 8,3.582 8,8c0,4.418 -3.582,8 -8,8z" fill="url(#color-1)"></path><path d="M38.44,19.94c-0.15,-0.06 -0.31,-0.13 -0.47,-0.19c-0.16,-0.06 -0.32,-0.13 -0.48,-0.19c-0.16,-0.06 -0.33,-0.12 -0.49,-0.18c-0.16,-0.07 -0.33,-0.13 -0.49,-0.18c-0.17,-0.06 -0.33,-0.12 -0.5,-0.18c0.08,-0.16 0.15,-0.32 0.23,-0.48l0.22,-0.48l0.21,-0.46c0.07,-0.15 0.14,-0.31 0.2,-0.47c0.08,-0.15 0.14,-0.31 0.21,-0.47c-1.35,-2.4 -3.34,-4.39 -5.74,-5.74c-0.16,0.07 -0.32,0.13 -0.47,0.21c-0.16,0.06 -0.32,0.13 -0.47,0.2c-0.16,0.06 -0.31,0.13 -0.46,0.21c-0.16,0.07 -0.32,0.14 -0.48,0.22c-0.16,0.08 -0.32,0.15 -0.48,0.23c-0.06,-0.17 -0.12,-0.33 -0.18,-0.5c-0.05,-0.16 -0.11,-0.33 -0.18,-0.49c-0.06,-0.16 -0.12,-0.33 -0.18,-0.49c-0.06,-0.16 -0.13,-0.32 -0.19,-0.48c-0.06,-0.16 -0.13,-0.32 -0.19,-0.47c-1.29,-0.37 -2.65,-0.56 -4.06,-0.56c-1.41,0 -2.77,0.19 -4.06,0.56c-0.06,0.15 -0.13,0.31 -0.19,0.47c-0.06,0.16 -0.13,0.32 -0.19,0.48c-0.06,0.16 -0.12,0.33 -0.18,0.49c-0.07,0.16 -0.13,0.33 -0.18,0.49c-0.06,0.17 -0.12,0.33 -0.18,0.5c-0.16,-0.08 -0.32,-0.15 -0.48,-0.23c-0.16,-0.08 -0.32,-0.15 -0.48,-0.22c-0.15,-0.08 -0.3,-0.15 -0.46,-0.21c-0.15,-0.07 -0.31,-0.14 -0.47,-0.2c-0.15,-0.08 -0.31,-0.14 -0.47,-0.21c-2.4,1.35 -4.39,3.34 -5.74,5.74c0.07,0.16 0.13,0.32 0.21,0.47c0.06,0.16 0.13,0.32 0.2,0.47c0.06,0.16 0.13,0.31 0.21,0.46c0.07,0.16 0.14,0.32 0.22,0.48c0.08,0.16 0.15,0.32 0.23,0.48c-0.17,0.06 -0.33,0.12 -0.5,0.18c-0.16,0.05 -0.33,0.11 -0.49,0.18c-0.16,0.06 -0.33,0.12 -0.49,0.18c-0.16,0.06 -0.32,0.13 -0.48,0.19c-0.16,0.06 -0.32,0.13 -0.47,0.19c-0.37,1.29 -0.56,2.65 -0.56,4.06c0,1.41 0.19,2.77 0.56,4.06c0.15,0.06 0.31,0.13 0.47,0.19c0.16,0.06 0.32,0.13 0.48,0.19c0.16,0.06 0.33,0.12 0.49,0.18c0.16,0.07 0.33,0.13 0.49,0.18c0.17,0.06 0.33,0.12 0.5,0.18c-0.08,0.16 -0.15,0.32 -0.23,0.48l-0.22,0.48l-0.21,0.46c-0.07,0.15 -0.14,0.31 -0.2,0.47c-0.08,0.15 -0.14,0.31 -0.21,0.47c1.35,2.4 3.34,4.39 5.74,5.74c0.16,-0.07 0.32,-0.13 0.47,-0.21c0.16,-0.06 0.32,-0.13 0.47,-0.2c0.16,-0.06 0.31,-0.13 0.46,-0.21c0.16,-0.07 0.32,-0.14 0.48,-0.22c0.16,-0.08 0.32,-0.15 0.48,-0.23c0.06,0.17 0.12,0.33 0.18,0.5c0.05,0.16 0.11,0.33 0.18,0.49c0.06,0.16 0.12,0.33 0.18,0.49c0.06,0.16 0.13,0.32 0.19,0.48c0.06,0.16 0.13,0.32 0.19,0.47c1.29,0.37 2.65,0.56 4.06,0.56c1.41,0 2.77,-0.19 4.06,-0.56c0.06,-0.15 0.13,-0.31 0.19,-0.47c0.06,-0.16 0.13,-0.32 0.19,-0.48c0.06,-0.16 0.12,-0.33 0.18,-0.49c0.07,-0.16 0.13,-0.33 0.18,-0.49c0.06,-0.17 0.12,-0.33 0.18,-0.5c0.16,0.08 0.32,0.15 0.48,0.23c0.16,0.08 0.32,0.15 0.48,0.22c0.15,0.08 0.3,0.15 0.46,0.21c0.15,0.07 0.31,0.14 0.47,0.2c0.15,0.08 0.31,0.14 0.47,0.21c2.4,-1.35 4.39,-3.34 5.74,-5.74c-0.07,-0.16 -0.13,-0.32 -0.21,-0.47c-0.06,-0.16 -0.13,-0.32 -0.2,-0.47c-0.06,-0.16 -0.13,-0.31 -0.21,-0.46c-0.07,-0.16 -0.14,-0.32 -0.22,-0.48c-0.08,-0.16 -0.15,-0.32 -0.23,-0.48c0.17,-0.06 0.33,-0.12 0.5,-0.18c0.16,-0.05 0.33,-0.11 0.49,-0.18c0.16,-0.06 0.33,-0.12 0.49,-0.18c0.16,-0.06 0.32,-0.13 0.48,-0.19c0.16,-0.06 0.32,-0.13 0.47,-0.19c0.37,-1.29 0.56,-2.65 0.56,-4.06c0,-1.41 -0.19,-2.77 -0.56,-4.06zM24,32c-4.42,0 -8,-3.58 -8,-8c0,-4.42 3.58,-8 8,-8c4.42,0 8,3.58 8,8c0,4.42 -3.58,8 -8,8z" fill-opacity="0.41961" fill="#fe8e0d" opacity="0.05"></path><path d="M37.97,19.75c-0.16,-0.06 -0.32,-0.13 -0.48,-0.19c-0.16,-0.06 -0.33,-0.12 -0.49,-0.18c-0.16,-0.07 -0.33,-0.13 -0.49,-0.18c-0.17,-0.06 -0.33,-0.12 -0.5,-0.18c0.08,-0.16 0.15,-0.32 0.23,-0.48l0.22,-0.48l0.21,-0.46c0.07,-0.15 0.14,-0.31 0.2,-0.47c-1.35,-2.55 -3.45,-4.65 -6,-6c-0.16,0.06 -0.32,0.13 -0.47,0.2c-0.16,0.06 -0.31,0.13 -0.46,0.21c-0.16,0.07 -0.32,0.14 -0.48,0.22c-0.16,0.08 -0.32,0.15 -0.48,0.23c-0.06,-0.17 -0.12,-0.33 -0.18,-0.5c-0.05,-0.16 -0.11,-0.33 -0.18,-0.49c-0.06,-0.16 -0.12,-0.33 -0.18,-0.49c-0.06,-0.16 -0.13,-0.32 -0.19,-0.48c-1.35,-0.41 -2.77,-0.63 -4.25,-0.63c-1.48,0 -2.9,0.22 -4.25,0.63c-0.06,0.16 -0.13,0.32 -0.19,0.48c-0.06,0.16 -0.12,0.33 -0.18,0.49c-0.07,0.16 -0.13,0.33 -0.18,0.49c-0.06,0.17 -0.12,0.33 -0.18,0.5c-0.16,-0.08 -0.32,-0.15 -0.48,-0.23c-0.16,-0.08 -0.32,-0.15 -0.48,-0.22c-0.15,-0.08 -0.3,-0.15 -0.46,-0.21c-0.15,-0.07 -0.31,-0.14 -0.47,-0.2c-2.55,1.35 -4.65,3.45 -6,6c0.06,0.16 0.13,0.32 0.2,0.47c0.06,0.16 0.13,0.31 0.21,0.46c0.07,0.16 0.14,0.32 0.22,0.48c0.08,0.16 0.15,0.32 0.23,0.48c-0.17,0.06 -0.33,0.12 -0.5,0.18c-0.16,0.05 -0.33,0.11 -0.49,0.18c-0.16,0.06 -0.33,0.12 -0.49,0.18c-0.16,0.06 -0.32,0.13 -0.48,0.19c-0.41,1.35 -0.63,2.77 -0.63,4.25c0,1.48 0.22,2.9 0.63,4.25c0.16,0.06 0.32,0.13 0.48,0.19c0.16,0.06 0.33,0.12 0.49,0.18c0.16,0.07 0.33,0.13 0.49,0.18c0.17,0.06 0.33,0.12 0.5,0.18c-0.08,0.16 -0.15,0.32 -0.23,0.48l-0.22,0.48l-0.21,0.46c-0.07,0.15 -0.14,0.31 -0.2,0.47c1.35,2.55 3.45,4.65 6,6c0.16,-0.06 0.32,-0.13 0.47,-0.2c0.16,-0.06 0.31,-0.13 0.46,-0.21c0.16,-0.07 0.32,-0.14 0.48,-0.22c0.16,-0.08 0.32,-0.15 0.48,-0.23c0.06,0.17 0.12,0.33 0.18,0.5c0.05,0.16 0.11,0.33 0.18,0.49c0.06,0.16 0.12,0.33 0.18,0.49c0.06,0.16 0.13,0.32 0.19,0.48c1.35,0.41 2.77,0.63 4.25,0.63c1.48,0 2.9,-0.22 4.25,-0.63c0.06,-0.16 0.13,-0.32 0.19,-0.48c0.06,-0.16 0.12,-0.33 0.18,-0.49c0.07,-0.16 0.13,-0.33 0.18,-0.49c0.06,-0.17 0.12,-0.33 0.18,-0.5c0.16,0.08 0.32,0.15 0.48,0.23c0.16,0.08 0.32,0.15 0.48,0.22c0.15,0.08 0.3,0.15 0.46,0.21c0.15,0.07 0.31,0.14 0.47,0.2c2.55,-1.35 4.65,-3.45 6,-6c-0.06,-0.16 -0.13,-0.32 -0.2,-0.47c-0.06,-0.16 -0.13,-0.31 -0.21,-0.46c-0.07,-0.16 -0.14,-0.32 -0.22,-0.48c-0.08,-0.16 -0.15,-0.32 -0.23,-0.48c0.17,-0.06 0.33,-0.12 0.5,-0.18c0.16,-0.05 0.33,-0.11 0.49,-0.18c0.16,-0.06 0.33,-0.12 0.49,-0.18c0.16,-0.06 0.32,-0.13 0.48,-0.19c0.41,-1.35 0.63,-2.77 0.63,-4.25c0,-1.48 -0.22,-2.9 -0.63,-4.25zM24,32c-4.42,0 -8,-3.58 -8,-8c0,-4.42 3.58,-8 8,-8c4.42,0 8,3.58 8,8c0,4.42 -3.58,8 -8,8z" fill-opacity="0.41961" fill="#fe8e0d" opacity="0.1"></path><path d="M37.49,19.56c-0.16,-0.06 -0.33,-0.12 -0.49,-0.18c-0.16,-0.07 -0.33,-0.13 -0.49,-0.18c-0.17,-0.06 -0.33,-0.12 -0.5,-0.18c0.08,-0.16 0.15,-0.32 0.23,-0.48l0.22,-0.48l0.21,-0.46c-1.37,-2.7 -3.57,-4.9 -6.27,-6.27c-0.16,0.06 -0.31,0.13 -0.46,0.21c-0.16,0.07 -0.32,0.14 -0.48,0.22c-0.16,0.08 -0.32,0.15 -0.48,0.23c-0.06,-0.17 -0.12,-0.33 -0.18,-0.5c-0.05,-0.16 -0.11,-0.33 -0.18,-0.49c-0.06,-0.16 -0.12,-0.33 -0.18,-0.49c-1.4,-0.46 -2.89,-0.71 -4.44,-0.71c-1.55,0 -3.04,0.25 -4.44,0.71c-0.06,0.16 -0.12,0.33 -0.18,0.49c-0.07,0.16 -0.13,0.33 -0.18,0.49c-0.06,0.17 -0.12,0.33 -0.18,0.5c-0.16,-0.08 -0.32,-0.15 -0.48,-0.23c-0.16,-0.08 -0.32,-0.15 -0.48,-0.22c-0.15,-0.08 -0.3,-0.15 -0.46,-0.21c-2.7,1.37 -4.9,3.57 -6.27,6.27c0.06,0.16 0.13,0.31 0.21,0.46c0.07,0.16 0.14,0.32 0.22,0.48c0.08,0.16 0.15,0.32 0.23,0.48c-0.17,0.06 -0.33,0.12 -0.5,0.18c-0.16,0.05 -0.33,0.11 -0.49,0.18c-0.16,0.06 -0.33,0.12 -0.49,0.18c-0.46,1.4 -0.71,2.89 -0.71,4.44c0,1.55 0.25,3.04 0.71,4.44c0.16,0.06 0.33,0.12 0.49,0.18c0.16,0.07 0.33,0.13 0.49,0.18c0.17,0.06 0.33,0.12 0.5,0.18c-0.08,0.16 -0.15,0.32 -0.23,0.48l-0.22,0.48l-0.21,0.46c1.37,2.7 3.57,4.9 6.27,6.27c0.16,-0.06 0.31,-0.13 0.46,-0.21c0.16,-0.07 0.32,-0.14 0.48,-0.22c0.16,-0.08 0.32,-0.15 0.48,-0.23c0.06,0.17 0.12,0.33 0.18,0.5c0.05,0.16 0.11,0.33 0.18,0.49c0.06,0.16 0.12,0.33 0.18,0.49c1.4,0.46 2.89,0.71 4.44,0.71c1.55,0 3.04,-0.25 4.44,-0.71c0.06,-0.16 0.12,-0.33 0.18,-0.49c0.07,-0.16 0.13,-0.33 0.18,-0.49c0.06,-0.17 0.12,-0.33 0.18,-0.5c0.16,0.08 0.32,0.15 0.48,0.23c0.16,0.08 0.32,0.15 0.48,0.22c0.15,0.08 0.3,0.15 0.46,0.21c2.7,-1.37 4.9,-3.57 6.27,-6.27c-0.06,-0.16 -0.13,-0.31 -0.21,-0.46c-0.07,-0.16 -0.14,-0.32 -0.22,-0.48c-0.08,-0.16 -0.15,-0.32 -0.23,-0.48c0.17,-0.06 0.33,-0.12 0.5,-0.18c0.16,-0.05 0.33,-0.11 0.49,-0.18c0.16,-0.06 0.33,-0.12 0.49,-0.18c0.46,-1.4 0.71,-2.89 0.71,-4.44c0,-1.55 -0.25,-3.04 -0.71,-4.44zM24,32c-4.42,0 -8,-3.58 -8,-8c0,-4.42 3.58,-8 8,-8c4.42,0 8,3.58 8,8c0,4.42 -3.58,8 -8,8z" fill-opacity="0.41961" fill="#fe8e0d" opacity="0.2"></path><path d="M37,19.38c-0.16,-0.07 -0.33,-0.13 -0.49,-0.18c-0.17,-0.06 -0.33,-0.12 -0.5,-0.18c0.08,-0.16 0.15,-0.32 0.23,-0.48l0.22,-0.48c-1.37,-2.84 -3.68,-5.15 -6.52,-6.52c-0.16,0.07 -0.32,0.14 -0.48,0.22c-0.16,0.08 -0.32,0.15 -0.48,0.23c-0.06,-0.17 -0.12,-0.33 -0.18,-0.5c-0.05,-0.16 -0.11,-0.33 -0.18,-0.49c-1.44,-0.52 -3,-0.8 -4.62,-0.8c-1.62,0 -3.18,0.28 -4.62,0.8c-0.07,0.16 -0.13,0.33 -0.18,0.49c-0.06,0.17 -0.12,0.33 -0.18,0.5c-0.16,-0.08 -0.32,-0.15 -0.48,-0.23c-0.16,-0.08 -0.32,-0.15 -0.48,-0.22c-2.84,1.37 -5.15,3.68 -6.52,6.52c0.07,0.16 0.14,0.32 0.22,0.48c0.08,0.16 0.15,0.32 0.23,0.48c-0.17,0.06 -0.33,0.12 -0.5,0.18c-0.16,0.05 -0.33,0.11 -0.49,0.18c-0.52,1.44 -0.8,3 -0.8,4.62c0,1.62 0.28,3.18 0.8,4.62c0.16,0.07 0.33,0.13 0.49,0.18c0.17,0.06 0.33,0.12 0.5,0.18c-0.08,0.16 -0.15,0.32 -0.23,0.48l-0.22,0.48c1.37,2.84 3.68,5.15 6.52,6.52c0.16,-0.07 0.32,-0.14 0.48,-0.22c0.16,-0.08 0.32,-0.15 0.48,-0.23c0.06,0.17 0.12,0.33 0.18,0.5c0.05,0.16 0.11,0.33 0.18,0.49c1.44,0.52 3,0.8 4.62,0.8c1.62,0 3.18,-0.28 4.62,-0.8c0.07,-0.16 0.13,-0.33 0.18,-0.49c0.06,-0.17 0.12,-0.33 0.18,-0.5c0.16,0.08 0.32,0.15 0.48,0.23c0.16,0.08 0.32,0.15 0.48,0.22c2.84,-1.37 5.15,-3.68 6.52,-6.52c-0.07,-0.16 -0.14,-0.32 -0.22,-0.48c-0.08,-0.16 -0.15,-0.32 -0.23,-0.48c0.17,-0.06 0.33,-0.12 0.5,-0.18c0.16,-0.05 0.33,-0.11 0.49,-0.18c0.52,-1.44 0.8,-3 0.8,-4.62c0,-1.62 -0.28,-3.18 -0.8,-4.62zM24,32c-4.42,0 -8,-3.58 -8,-8c0,-4.42 3.58,-8 8,-8c4.42,0 8,3.58 8,8c0,4.42 -3.58,8 -8,8z" fill-opacity="0.41961" fill="#fe8e0d" opacity="0.3"></path><path d="M37.4,24c0,-1.69 -0.31,-3.31 -0.89,-4.8c-0.17,-0.06 -0.33,-0.12 -0.5,-0.18c0.08,-0.16 0.15,-0.32 0.23,-0.48c-1.35,-3.01 -3.77,-5.43 -6.78,-6.78c-0.16,0.08 -0.32,0.15 -0.48,0.23c-0.06,-0.17 -0.12,-0.33 -0.18,-0.5c-1.49,-0.58 -3.11,-0.89 -4.8,-0.89c-1.69,0 -3.31,0.31 -4.8,0.89c-0.06,0.17 -0.12,0.33 -0.18,0.5c-0.16,-0.08 -0.32,-0.15 -0.48,-0.23c-3.01,1.35 -5.43,3.77 -6.78,6.78c0.08,0.16 0.15,0.32 0.23,0.48c-0.17,0.06 -0.33,0.12 -0.5,0.18c-0.57,1.49 -0.89,3.11 -0.89,4.8c0,1.69 0.31,3.31 0.89,4.8c0.17,0.06 0.33,0.12 0.5,0.18c-0.08,0.16 -0.15,0.32 -0.23,0.48c1.35,3.01 3.77,5.43 6.78,6.78c0.16,-0.08 0.32,-0.15 0.48,-0.23c0.06,0.17 0.12,0.33 0.18,0.5c1.49,0.58 3.11,0.89 4.8,0.89c1.69,0 3.31,-0.31 4.8,-0.89c0.06,-0.17 0.12,-0.33 0.18,-0.5c0.16,0.08 0.32,0.15 0.48,0.23c3.01,-1.35 5.43,-3.77 6.78,-6.78c-0.08,-0.16 -0.15,-0.32 -0.23,-0.48c0.17,-0.06 0.33,-0.12 0.5,-0.18c0.58,-1.49 0.89,-3.11 0.89,-4.8zM24,32c-4.42,0 -8,-3.58 -8,-8c0,-4.42 3.58,-8 8,-8c4.42,0 8,3.58 8,8c0,4.42 -3.58,8 -8,8z" fill-opacity="0.41961" fill="#fe8e0d" opacity="0.4"></path><circle cx="24" cy="24" r="13" fill="url(#color-2)"></circle><path d="M24,11.5c6.893,0 12.5,5.607 12.5,12.5c0,6.893 -5.607,12.5 -12.5,12.5c-6.893,0 -12.5,-5.607 -12.5,-12.5c0,-6.893 5.607,-12.5 12.5,-12.5M24,11c-7.18,0 -13,5.82 -13,13c0,7.18 5.82,13 13,13c7.18,0 13,-5.82 13,-13c0,-7.18 -5.82,-13 -13,-13z" fill="url(#color-3)"></path></g></g></svg>